<?xml version="1.0" encoding="UTF-8" standalone="no"?>
<svg
   width="700"
   height="1000"
   version="1.1"
   id="svg1"
   sodipodi:docname="1301E.svg"
   inkscape:version="1.4.3 (0d15f75, 2025-12-25)"
   xmlns:inkscape="http://www.inkscape.org/namespaces/inkscape"
   xmlns:sodipodi="http://sodipodi.sourceforge.net/DTD/sodipodi-0.dtd"
   xmlns="http://www.w3.org/2000/svg"
   xmlns:svg="http://www.w3.org/2000/svg">
  <defs
     id="defs1" />
  <sodipodi:namedview
     id="namedview1"
     pagecolor="#ffffff"
     bordercolor="#666666"
     borderopacity="1.0"
     inkscape:showpageshadow="2"
     inkscape:pageopacity="0.0"
     inkscape:pagecheckerboard="0"
     inkscape:deskcolor="#d1d1d1"
     inkscape:zoom="0.3775"
     inkscape:cx="446.35762"
     inkscape:cy="258.27815"
     inkscape:window-width="1680"
     inkscape:window-height="998"
     inkscape:window-x="-8"
     inkscape:window-y="-8"
     inkscape:window-maximized="1"
     inkscape:current-layer="svg1"
     showguides="true">
    <sodipodi:guide
       position="0,1000"
       orientation="0,-1"
       id="guide1"
       inkscape:locked="false" />
    <sodipodi:guide
       position="0,0"
       orientation="0,-1"
       id="guide2"
       inkscape:locked="false" />
  </sodipodi:namedview>
  <path
     style="fill:#000000;stroke:none;stroke-width:1"
     d="m 1258.1791,418.59522 c 12.8354,-83.42963 23.4246,-135.89404 31.7675,-157.39323 8.343,-21.4992 3.0484,-38.50602 -15.8837,-51.02046 -18.9321,-12.51444 -31.1256,-31.12567 -36.5807,-55.83369 -5.455,-24.70801 -4.1715,-42.3566 3.8506,-52.94576 8.0221,-10.58912 9.6265,-17.488108 4.8133,-20.696966 -4.8133,-3.208801 -11.3914,1.7e-5 -19.7344,9.626517 -34.0136,-25.028888 -57.4381,-34.013617 -70.2734,-26.954191 -22.4618,28.879495 -28.8795,43.64012 -19.253,44.28187 8.343,0 12.8353,7.70121 13.4771,23.10364 0.6418,12.83532 4.1715,17.96944 10.5892,15.40237 26.3124,-3.2088 39.7895,0.96268 40.4312,12.51444 v 17.32773 c 1.2836,21.82003 -12.354,35.45756 -40.9126,40.91257 -28.5586,5.45504 -39.6291,17.48816 -33.2114,36.0994 6.4177,18.61125 17.6486,48.45339 33.6928,89.52641 16.0441,41.07307 19.2529,78.29553 9.6264,111.66738 z m -136.6962,254.13954 h 132.8457 c 17.9694,-134.77097 22.7827,-212.10384 14.4397,-231.99858 -37.8642,18.61124 -71.557,31.76748 -101.0782,39.46869 -26.3125,89.84729 -41.7149,154.02388 -46.2072,192.52989 z m 47.1698,-628.610354 c 34.6554,10.910034 54.2293,20.857424 58.7217,29.842174 8.9847,-7.701213 18.2903,-9.466079 27.9168,-5.294598 9.6265,4.171482 10.2683,14.439748 1.9253,30.804799 -8.3429,16.365049 -10.5891,28.558619 -6.7385,36.580709 3.8505,8.02209 11.8726,10.74959 24.0662,8.18252 20.5366,-7.70121 30.484,-28.0773 29.8422,-61.12828 -0.6418,-33.050977 -18.7717,-54.389714 -54.3898,-64.016212 -35.618,-9.6264989 -62.7326,-1.283536 -81.3439,25.028888 z m -16.365,36.580708 c 5.1341,-14.760638 20.5365,-14.439747 46.2072,0.96268 -25.6707,10.910032 -41.0731,10.589141 -46.2072,-0.96268 z m 142.4722,118.405966 c 28.2377,0.64175 48.4534,12.19355 60.6469,34.6554 10.9101,31.44657 13.1562,80.5417 6.7386,147.2854 5.1341,19.89479 5.1341,42.6775 0,68.34814 -5.1341,25.67067 -8.6639,44.28192 -10.5892,55.83374 6.8336,52.62483 6.3265,84.71318 -1.0539,96.26494 -7.3803,11.55182 -14.6001,21.49922 -21.6595,29.84212 -14.1189,-6.41766 -15.4025,-21.17828 -3.8508,-44.28186 11.5518,-23.10359 9.2364,-31.44657 -0.3902,-25.02889 -2.5673,5.77591 -6.7122,12.87187 -8.9583,23.46101 -2.2462,10.58919 -6.5781,15.56292 -12.9958,14.92111 3.8506,-17.32773 7.9957,-29.87872 8.9584,-39.82611 0.9626,-9.94738 4.1714,-18.61122 9.6264,-25.99151 5.4551,-7.38034 8.8243,-14.60023 10.1079,-21.65965 v -0.96268 c -9.6264,-42.99835 -9.9472,-90.48906 -0.9624,-142.47212 -2.5671,-25.67068 -6.7386,-63.21403 -12.5146,-112.63005 -13.4771,35.29717 -22.7827,69.15035 -27.9168,101.55954 -5.1341,32.40923 -4.011,57.59857 3.3693,75.56803 7.3803,17.96947 5.6155,94.98145 -5.2946,231.03596 v 42.35657 c 17.9695,50.05783 21.8201,130.27866 11.5518,240.66247 11.5518,35.93896 2.5671,52.30406 -26.9542,49.09516 -24.3871,0 -49.416,0.80218 -75.0867,2.40656 -25.6706,1.60434 -35.9389,-1.12318 -30.8048,-8.18242 0.6418,-12.19357 7.7012,-18.9321 21.1783,-20.21565 46.849,-10.26833 68.669,-35.77858 65.4602,-76.53072 -3.2088,-40.75213 -8.0221,-81.34388 -14.4397,-121.7752 -8.343,-24.38708 -10.91,-46.20717 -7.7012,-65.4602 h -72.1988 c 11.5518,38.50601 -5.7759,113.91355 -51.9831,226.22273 10.2683,26.95419 10.5892,48.13247 0.9627,63.5349 -66.7437,1.28338 -107.3355,1.60437 -121.77518,0.9624 -14.4397,-0.64142 -21.9805,-2.56678 -22.6223,-5.77569 7.0595,-21.17828 38.18508,-37.86421 93.37708,-50.05778 10.2682,-23.74533 20.2156,-63.05347 29.8421,-117.92454 9.6265,-54.87106 14.4398,-93.85844 14.4398,-116.96202 h -24.0663 c 8.343,-28.23769 19.4135,-66.90414 33.2114,-115.99929 13.798,-49.09516 28.7191,-110.86519 44.7633,-185.31011 -16.0442,-46.84895 -33.051,-93.37703 -51.0205,-139.58424 -33.9522,10.41169 -74.6714,21.04137 -130.07118,28.44808 -21.579,-3.92491 -57.0943,-20.00414 -106.546,-48.2377 l 7.4286,-23.84285 c 53.4301,10.55792 91.8213,20.89991 115.1735,31.02596 L 1096.454,217.40138 c 25.6707,-17.32768 50.6996,-26.63328 75.0867,-27.91682 8.9847,-4.49236 14.1189,-10.4287 15.4024,-17.80904 1.2835,-7.3803 -1.6044,-11.23089 -8.6638,-11.55177 -7.0595,-0.32098 -14.7607,0.16022 -23.1036,1.44394 -8.343,1.28355 -13.798,-1.9253 -16.3651,-9.62646 -2.5671,-7.70122 -3.8506,-15.7233 -3.8506,-24.06627 0,-8.34296 -4.4923,-12.51444 -13.4771,-12.51444 -8.9847,-5.77589 -2.2462,-24.066248 20.2156,-54.871063 -0.6417,-6.417641 7.5408,-19.73429 24.5476,-39.949948 17.0068,-20.21565753 46.6885,-25.5102374 89.0451,-15.8837388 42.3566,9.6264988 63.5349,37.5433508 63.5349,83.7505578 0,47.490712 -19.8947,71.236062 -59.6843,71.236062 3.8506,15.40242 15.7233,28.55866 35.6181,39.46869 z"
     id="path1"
     sodipodi:nodetypes="cssssscccccccssscccccccccssscsscccccccscscscscssccccssccccsccscccccsccsccsccccccccssscsccssscc" />
  <path
     d="m 874.96662,222.86406 c -16.7704,-21.1574 -37.0779,-34.1046 -77.3439,-44.13736 -3.1129,8.71652 0.7486,14.44263 11.5844,17.17831 10.8357,2.73568 19.9657,11.45115 28.3129,23.64824 -18.1541,-0.86267 -31.8907,-4.57251 -41.2098,-11.12951 -9.3191,-6.55701 -16.2577,-13.9141 -20.8159,-22.07121 -1.8264,-4.53346 -5.798,-4.86395 -11.9147,-0.99153 -6.1167,3.87243 -8.7123,9.43787 -7.7867,16.69637 23.6603,25.35418 43.5478,39.03239 59.6627,41.03461 16.1148,2.00221 33.4756,3.20719 52.0824,3.61493"
     style="fill:#000000;stroke:none;stroke-width:1"
     id="path1-9"
     inkscape:transform-center-x="45.23377"
     inkscape:transform-center-y="-40.171141"
     sodipodi:nodetypes="ccscscscsc" />
  <path
     id="path1-9-2"
     style="fill:#000000;stroke:none;stroke-width:0.999999"
     d="M 526.19727,0.1796875 C 513.87442,-0.4193395 501.1239,0.47889195 487.94531,2.875 c -26.35718,4.7922161 -43.98693,26.700323 -52.88672,65.722656 -5.47687,8.215225 -11.9811,19.85278 -19.51171,34.914064 -4.10762,8.89982 -4.10762,13.86373 0,14.89062 4.10759,1.02691 7.18843,2.56727 9.24218,4.6211 -6.57503,4.93123 -1.90885,8.25131 2.05469,9.24218 1.36917,-0.68459 1.02651,0.1703 -1.02734,2.56641 -2.05375,2.39612 -1.7111,4.27922 1.02734,5.64844 2.73833,1.36921 4.45018,5.47624 5.13477,12.32226 0.68458,6.84601 3.59393,10.44109 8.72851,10.78321 5.13448,0.34246 13.86274,0.51367 26.18555,0.51367 l 3.08203,15.40234 c -10.26905,6.84601 -27.09163,8.74899 -50.31836,10.26953 -20.48121,1.3408 -93.41655,37.50938 -134.84961,69.19141 -24.06924,-9.80269 -44.54147,-16.28591 -80.18367,-18.60552 -35.64223,-2.31964 -60.71153,-10.52684 -75.20566,-24.61973 -14.49413,-14.09284 -35.939534,-21.26804 -64.339098,-21.52522 -2.533337,6.39677 1.606215,10.60119 12.422254,12.61351 10.816041,2.01228 19.095934,6.68296 24.838674,14.01282 -15.51444,1.98841 -28.068815,1.08425 -37.663952,-2.71588 -9.595145,-3.8001 -18.486322,-10.06913 -26.675282,-18.80743 -3.013064,-4.4171 -6.448656,-6.10709 -10.303283,-5.06931 -3.854731,1.0378 -6.388762,4.94124 -7.60531,11.71299 14.68599,18.41841 29.928454,29.87916 45.730697,34.37906 15.802227,4.49992 38.56486,9.55766 68.2856,15.17377 66.31797,24.57959 116.00661,37.97165 145.47833,40.96067 31.1153,-5.93973 75.69735,-19.48851 133.74609,-40.64649 19.85319,42.44544 35.07617,110.23079 35.07617,183.48242 l -50.31836,254.67383 c -18.48427,108.16723 -32.17632,175.94212 -41.07617,203.32617 -10.26903,26.69956 -21.56386,42.10334 -33.88672,46.21094 -12.32281,4.1076 -33.54546,12.66449 -63.66797,25.67188 -19.85346,4.1077 -31.83377,10.61183 -35.9414,19.51171 -4.1076,8.8997 4.10648,13.00682 24.64453,12.32232 26.69951,0 46.38174,-1.54051 59.04687,-4.62114 12.66513,-3.08083 29.09525,-2.39521 49.29102,2.05468 20.19577,4.45006 29.95217,-2.22571 29.26758,-20.02539 3.42301,-33.5455 16.94376,-74.10773 40.5625,-121.6875 23.61874,-47.57997 34.23003,-83.00871 31.83398,-106.28515 -2.39614,-23.27645 4.96314,-42.10371 22.07813,-56.48047 h 77.01758 c 16.4304,108.16723 26.35825,177.65572 29.78125,208.46289 1.3693,26.01478 -2.90914,43.4713 -12.83594,52.37109 -9.9267,8.89989 -29.609,14.71869 -59.04688,17.45703 -17.1151,9.58447 -26.18602,16.9456 -27.21289,22.08008 -1.02698,5.13448 4.96332,7.35838 17.97071,6.67388 12.3229,0 27.38389,-0.3427 45.18359,-1.02739 17.7995,-0.68459 39.19364,-0.68459 64.18164,0 24.9879,0.68469 33.03076,-7.18863 24.13086,-23.61914 -7.5307,-49.97591 -8.21413,-98.92355 -2.05273,-146.84571 6.1615,-47.92226 2.05248,-93.10734 -12.32422,-135.55273 L 601.41797,537.89258 c 10.9536,-40.39154 9.7539,-77.53211 -3.5957,-111.41992 -13.3498,-33.8878 -7.3596,-87.11574 17.9707,-159.6836 8.8999,37.65311 23.27736,71.8843 43.13086,102.69141 -5.4769,24.64568 -4.45042,54.4251 3.08008,89.33984 7.5307,34.9147 6.50432,61.10126 -3.08008,78.5586 -9.5845,17.45736 -10.61068,39.87774 -3.08008,67.26171 6.846,0.68459 9.75532,-4.45064 8.72852,-15.40429 -1.0269,-10.95361 1.19692,-19.85318 6.67382,-26.69922 6.1614,13.69206 8.73003,25.67239 7.70313,35.94141 -1.0269,10.26903 -4.6218,20.88033 -10.7832,31.83398 -3.423,4.10751 -4.10849,7.87375 -2.05469,11.29688 2.0538,3.4231 6.50361,4.792 13.34961,4.10742 C 693.15304,626.54785 700,608.74885 700,592.31836 c 0,-17.11504 -1.36892,-40.39215 -4.10742,-69.83008 5.4768,-71.19862 5.4768,-119.46267 0,-144.79297 -3.423,-31.4917 -13.35085,-77.36047 -29.78125,-137.60547 -7.5306,-28.06872 -24.64425,-44.84155 -51.34375,-50.31836 -39.0223,-3.42301 -60.0736,-9.2418 -63.1543,-17.45703 -3.0808,-8.21522 -5.30658,-17.45753 -6.67578,-27.72656 v -1.02734 c 12.3228,-4.79222 24.47458,-14.3753 36.45508,-28.75196 11.9807,-14.37665 17.28717,-33.546747 15.91797,-57.507809 C 596.62595,30.601276 584.81506,13.657079 561.88086,6.46875 550.41381,2.8745855 538.52011,0.7787145 526.19727,0.1796875 Z M 512.97461,16.482422 c 9.3277,0.171146 19.63958,1.453501 30.93555,3.849609 22.5919,4.792216 34.23141,17.800773 34.91601,39.023438 1.3692,20.538083 -5.13512,38.508552 -19.51172,53.912111 -14.3767,15.40355 -23.61889,20.0247 -27.72656,13.86328 -5.47677,-6.84602 -2.39613,-16.60245 9.24219,-29.267579 22.4293,-24.408362 9.48605,-61.091888 -31.83399,-37.480469 -7.53062,-7.53064 -24.30338,-12.323162 -50.31836,-14.376953 4.79229,-13.692075 14.54862,-22.591626 29.26758,-26.699218 7.35948,-2.053817 15.7016,-2.995365 25.0293,-2.824219 z m -59.43164,40.818359 c 20.53801,0 37.99639,4.449801 52.37305,13.34961 -0.68459,8.215225 2.05339,8.557984 8.21484,1.027343 12.38889,-15.142035 32.24924,-9.047443 23.61914,11.808594 -4.1076,9.926714 -9.75698,18.314092 -16.94531,25.160152 -7.18833,6.846 -8.55741,13.69109 -4.10742,20.53711 4.4499,6.84602 7.35935,12.66678 8.72851,17.45899 4.10771,40.39154 19.85418,60.58594 47.23828,60.58594 27.3841,0 32.5193,24.98886 15.4043,74.96484 -17.1151,49.97598 -23.61932,93.79023 -19.51172,131.44336 l -95.50195,21.56445 c -2.73844,-80.09846 -9.75681,-133.155 -21.05274,-159.16992 -11.29593,-26.01485 -19.68143,-43.98537 -25.1582,-53.91211 -5.47687,-9.92676 4.1082,-14.89062 28.75391,-14.89062 25.3302,0 36.79653,-10.0972 34.40039,-30.29297 -2.39605,-20.19577 -11.46706,-28.24046 -27.21289,-24.13282 -15.74592,4.10759 -22.59096,-0.34216 -20.53711,-13.34961 9.58437,-6.16142 12.83463,-10.43983 9.7539,-12.83593 -3.08073,-2.39607 -8.72815,-3.59375 -16.94336,-3.59375 0.68459,-4.79221 -3.07971,-8.55845 -11.29492,-11.29688 6.84604,-17.79965 13.34841,-30.122729 19.50977,-36.968748 7.53062,-3.423007 15.23255,-3.423007 23.10547,0 7.87291,3.42301 16.26036,5.477516 25.16015,6.16211 l -1.02734,-5.134766 c -5.47677,-0.684584 -12.15248,-2.908517 -20.02539,-6.673828 -7.87291,-3.765321 -15.91565,-3.936681 -24.13086,-0.513672 2.73844,-4.792226 5.13365,-8.55849 7.1875,-11.296875 z M 529.4082,67.125 c -11.69932,-0.289356 -24.71515,18.955368 -21.43945,27.144531 -6.5485,2.619409 -9.6072,11.443079 -1.53906,14.376949 8.22481,2.99075 24.57557,-16.622488 27.72461,-26.699214 2.56847,-8.219422 1.34586,-14.67159 -4.7461,-14.822266 z m -3.02539,5.830078 c 2.32328,0.0018 3.88298,1.525614 3.66407,4.371094 -0.85866,11.162733 -12.09091,19.651942 -14.88868,21.050781 -2.73844,1.369217 -2.73844,0.171571 0,-3.59375 2.73843,-3.76528 2.73843,-5.134318 0,-4.107422 -2.73844,1.026895 -3.42385,-0.342102 -2.05468,-4.107422 3.41459,-9.390087 9.40717,-13.61624 13.27929,-13.613281 z m -69.51758,2.38086 c -3.49789,-0.128365 -6.66039,0.706825 -9.48437,2.503906 l -6.16016,7.1875 v 5.134765 l 3.08008,-1.027343 c 9.58447,4.792216 20.53842,4.449506 32.86133,-1.027344 l 11.29492,2.054687 -1.02539,-5.134765 L 477.16211,84 c -7.70182,-5.562406 -14.46705,-8.450121 -20.29688,-8.664062 z m -3.32226,4.55664 c -1.36916,2.738425 -1.02641,5.476469 1.02734,8.214844 -2.73844,-1.369208 -5.1356,-2.395494 -7.18945,-3.080078 0.68468,-2.053801 2.73909,-3.765548 6.16211,-5.134766 z m 9.24219,1.027344 10.26953,5.134766 c -4.1076,1.369207 -7.87386,2.052734 -11.29688,2.052734 2.73843,-2.053791 3.0811,-4.449085 1.02735,-7.1875 z m 44.15625,18.484375 c 4.10761,2.053803 5.13588,3.936903 3.08203,5.648433 -2.05375,1.71149 -3.59412,1.71149 -4.6211,0 -1.02688,-1.71153 -0.51478,-3.59463 1.53907,-5.648433 z M 444,108.98242 c -0.84684,0.008 -1.56835,1.4318 -1.24023,2.74414 0.55493,2.21996 -2.26881,6.72425 -6.16016,2.05469 -3.18225,-6.20856 -7.26119,-2.19803 -5.64844,1.02734 1.36917,-1.36921 3.08102,-0.85704 5.13477,1.53907 4.32315,5.04369 10.43483,1.83746 9.75586,-3.59375 -0.35144,-2.81151 -1.14013,-3.77779 -1.8418,-3.77149 z m -10.4707,16.23828 c 0.4839,-0.005 1.02358,0.0488 1.61328,0.17774 3.00243,0.65652 6.02621,1.2755 9.44922,1.64844 3.4029,0.37074 4.50099,0.4267 3.8164,1.11132 h -15.40234 c -3.54912,0 -2.86391,-2.90318 0.52344,-2.9375 z m 14.8789,3.96289 c -3.09033,3.8804 -7.36719,6.25541 -12.32226,6.16211 -3.01095,0 -3.26738,-0.6548 -2.05469,-3.08008 z M 572.66406,438.2832 c 19.1689,26.01489 20.19518,59.21784 3.08008,99.60938 l 23.61914,133.49609 H 429.92383 l 42.10351,-208.46094 z"
     sodipodi:nodetypes="ssccsccssscccscsscscscscsccccccscscsscsscccscscsscsccccccscscscscsccccsccccsssscsccccssccsssscssccssssscscccsccsccscscsssssssssccccccccscccccccccsccscccsssssscsscccccccccc" />
</svg>
