<?xml version="1.0" encoding="UTF-8" standalone="no"?>
<svg
   width="800"
   height="1000"
   version="1.1"
   id="svg1"
   sodipodi:docname="1301B.svg"
   inkscape:version="1.4.2 (f4327f4, 2025-05-13)"
   xmlns:inkscape="http://www.inkscape.org/namespaces/inkscape"
   xmlns:sodipodi="http://sodipodi.sourceforge.net/DTD/sodipodi-0.dtd"
   xmlns:xlink="http://www.w3.org/1999/xlink"
   xmlns="http://www.w3.org/2000/svg"
   xmlns:svg="http://www.w3.org/2000/svg">
  <defs
     id="defs1" />
  <sodipodi:namedview
     id="namedview1"
     pagecolor="#ffffff"
     bordercolor="#666666"
     borderopacity="1.0"
     inkscape:showpageshadow="2"
     inkscape:pageopacity="0.0"
     inkscape:pagecheckerboard="0"
     inkscape:deskcolor="#d1d1d1"
     showguides="true"
     inkscape:zoom="1.0677312"
     inkscape:cx="373.22126"
     inkscape:cy="237.4193"
     inkscape:window-width="1680"
     inkscape:window-height="998"
     inkscape:window-x="-8"
     inkscape:window-y="-8"
     inkscape:window-maximized="1"
     inkscape:current-layer="svg1">
    <sodipodi:guide
       position="800,1000"
       orientation="0,-1"
       id="guide1"
       inkscape:locked="false" />
    <sodipodi:guide
       position="800,0"
       orientation="0,-1"
       id="guide2"
       inkscape:locked="false" />
    <sodipodi:guide
       position="598.79745,400.80998"
       orientation="0,-1"
       id="guide3"
       inkscape:locked="false" />
    <sodipodi:guide
       position="65.734375,700.20898"
       orientation="1,0"
       id="guide5"
       inkscape:locked="false" />
    <sodipodi:guide
       position="41.083984,836.8125"
       orientation="0,-1"
       id="guide6"
       inkscape:locked="false" />
    <sodipodi:guide
       position="749.30154,360.01065"
       orientation="0,-1"
       id="guide22"
       inkscape:locked="false" />
    <sodipodi:guide
       position="53.40918,0"
       orientation="1,0"
       id="guide23"
       inkscape:locked="false" />
    <sodipodi:guide
       position="469.40504,897.75679"
       orientation="0.94177806,-0.33623516"
       id="guide24"
       inkscape:locked="false" />
    <sodipodi:guide
       position="322.5078,922.06247"
       orientation="-0.74898383,0.66258828"
       id="guide4"
       inkscape:locked="false" />
  </sodipodi:namedview>
  <path
     style="fill:#000000;stroke:none;stroke-width:0.999999"
     d="m 320.93555,113.31641 c -0.14979,-0.005 -0.30929,0.0138 -0.48047,0.0566 -1.36946,0.34238 -1.88337,1.1989 -1.54102,2.56836 0.34235,1.36945 -0.17156,2.39534 -1.54101,3.08007 -1.36945,0.68476 -2.73993,0.001 -4.10938,-2.05273 -1.36945,-2.05419 -2.39535,-3.08203 -3.08008,-3.08203 -1.36949,0 -2.22601,0.34261 -2.56836,1.02734 -0.34238,0.68473 -0.17105,1.71258 0.51368,3.08203 0.68473,-2.05419 2.05515,-1.54222 4.10937,1.53907 2.05418,3.08129 4.27922,4.10914 6.67578,3.08203 2.39657,-1.02707 3.59375,-2.9095 3.59375,-5.64844 0,-2.39655 -0.52378,-3.61489 -1.57226,-3.65234 z"
     id="path10" />
  <path
     style="fill:#000000;stroke:none;stroke-width:0.999999"
     d="m 334.17969,79.173828 c -2.6881,-0.05349 -5.20874,0.561829 -7.5625,1.845703 l -8.2168,7.189453 1.02734,5.136719 3.08008,-1.027344 c 9.58625,5.477855 20.19945,5.820435 31.83985,1.027344 l 11.29882,3.080078 v -7.189453 h -11.29882 c -7.53203,-6.590547 -14.25415,-9.944814 -20.16797,-10.0625 z m -1.40039,4.927734 c -2.05419,2.738908 -2.05419,5.135273 0,7.189454 -2.73891,-0.684727 -5.13525,-1.712578 -7.18946,-3.082032 1.36945,-2.054181 3.76579,-3.422695 7.18946,-4.107422 z m 8.21679,1.027344 9.24414,6.16211 c -3.42363,0.684727 -7.19042,1.027343 -11.29882,1.027343 3.42364,-2.054181 4.10886,-4.450545 2.05468,-7.189453 z"
     id="path9" />
  <path
     style="fill:#000000;stroke:none;stroke-width:0.999999"
     d="m 314.54883,0.0078125 c -2.56775,-0.0855955 -5.39332,0.5563272 -8.47461,1.9257813 -6.16258,2.7389448 -8.90153,5.3065619 -8.2168,7.703125 0.68473,2.3965622 3.59496,3.4224602 8.73047,3.0800782 5.13547,-0.342382 5.3068,1.199376 0.51367,4.623047 -4.79313,3.423672 -6.33292,11.983121 -4.62109,25.677734 1.71184,13.694613 6.67582,21.22625 14.89258,22.595703 l -2.05469,5.134766 c -6.16258,8.216761 -13.3516,19.515151 -21.56836,33.894533 -4.79313,8.90149 -5.1357,14.20809 -1.02734,15.91992 4.1084,1.71183 6.84734,3.59621 8.21679,5.65039 -2.73891,1.36946 -3.59547,3.25188 -2.56836,5.64844 1.02707,2.39656 2.56883,3.59375 4.62305,3.59375 1.36945,0 0.85555,1.02781 -1.54102,3.08203 -2.39656,2.05418 -2.22527,3.7653 0.51368,5.13477 2.73891,1.36941 4.10742,5.82144 4.10742,13.35351 0,6.84731 2.73895,10.78348 8.2168,11.81055 5.47785,1.02711 13.69469,1.1984 24.65039,0.51367 l 2.05468,23.62305 c -0.68473,3.42363 -10.78397,6.67652 -30.29882,9.75781 -19.51485,3.08129 -33.72351,13.18054 -42.625,30.29883 -8.90153,17.11828 -21.39712,34.40851 -37.48829,51.86914 -16.09118,17.46067 -29.27395,36.46198 -39.54492,57.0039 C 179.39863,328.89245 143.10903,299.44927 82.167969,253.57227 77.374843,246.04024 72.581682,240.21973 65.734375,236.11133 V 163.1875 H 41.083984 v 61.625 H 13.351562 c -2.05418,9.58625 0.684764,16.4346 8.216797,20.54297 -4.108361,34.92129 2.39734,53.0661 19.515625,54.43555 V 1000 H 65.734375 V 299.79102 c 8.216797,-1.36945 12.324219,-5.47691 12.324219,-12.32422 21.226645,28.07399 42.966946,53.40776 65.220706,76.0039 22.25379,22.5961 39.88659,34.92236 52.89648,36.97657 52.03954,-52.03958 83.53648,-87.98852 94.49219,-107.84571 10.27098,26.7045 20.37024,52.38289 30.29883,77.03321 9.9286,24.65035 15.23711,54.43616 15.92187,89.35742 l -81.14062,229.04297 c -11.64047,32.86711 -16.7777,61.96967 -15.40821,87.30468 -15.74883,57.51743 -26.70461,99.62749 -32.86718,126.33204 -7.53203,23.96555 -16.77476,38.68812 -27.73047,44.16601 -10.95571,5.47781 -31.83945,14.03733 -62.65235,25.67773 -17.118268,4.10839 -26.876871,8.38715 -29.273434,12.8379 -2.396563,4.45067 1.370195,8.38868 11.298828,11.8125 9.928596,3.42348 23.623356,4.44948 41.083986,3.08007 17.46067,-1.37086 36.46199,-1.20019 57.0039,0.51172 20.54195,1.71189 30.12728,-5.64844 28.75782,-22.08203 0.68473,-17.80294 6.50522,-34.57925 17.46094,-50.32812 38.34492,-69.84256 56.14711,-124.96415 53.4082,-165.36328 0,-10.9557 4.79461,-22.93734 14.38086,-35.94727 9.58621,-13.00989 17.46046,-25.33613 23.62304,-36.97656 h 67.78711 c 2.05418,14.37934 8.21727,31.84085 18.48829,52.38281 8.21674,78.74408 13.69464,131.80995 16.43359,159.19922 2.05418,25.33501 -1.19866,45.09316 -9.75781,53.65234 -8.55914,8.55933 -25.16414,14.20851 -49.81446,16.94727 -15.06407,9.58617 -22.93828,16.77527 -23.62304,21.56836 -0.68469,4.7932 4.10992,7.18945 14.38086,7.18945 h 39.02929 c 15.06407,0 33.03758,-0.34265 53.92188,-1.02734 20.8843,-0.6848 27.90395,-8.55898 21.05664,-23.62305 -6.16261,-23.28087 -6.84785,-49.71414 -2.05469,-73.67969 16.43356,-81.48303 14.03727,-134.89151 -7.18945,-160.22656 V 689.06055 565.80859 c 5.07997,-40.63894 2.82142,-73.18471 -11.29883,-97.57421 -7.53205,-13.00991 -11.29883,-23.96566 -11.29883,-32.86719 0.68476,-16.43352 5.13676,-38.85711 13.35352,-67.27344 8.21677,-28.41637 16.4336,-51.18444 24.65039,-68.30273 v -1.02735 c 14.37934,36.29075 33.20936,68.13227 56.49023,95.52149 -8.90153,43.82279 -11.12656,76.6882 -6.67578,98.59961 4.45075,21.91141 2.90898,44.16561 -4.62305,66.76171 -19.97879,4.99474 -38.69681,33.34515 -40.05664,52.38282 -1.36946,19.17247 4.10844,23.27993 16.4336,12.32422 1.36945,17.11829 9.58632,22.59617 24.65039,16.43359 15.06418,-6.16254 23.28101,-15.74788 24.65039,-28.75781 1.42294,-17.78626 2.8745,-35.55375 3.08203,-53.41016 17.80305,-40.39915 24.64943,-93.80763 20.54101,-160.22656 -7.53201,-30.81293 -23.2805,-74.9787 -47.24609,-132.4961 -12.32516,-43.13805 -32.183,-64.70703 -59.57226,-64.70703 l -13.46831,4.90092 15.00931,27.9663 c 5.8202,13.00989 8.04524,25.67872 6.67578,38.00391 -15.74883,31.49763 -28.07312,62.65194 -36.97461,93.46484 -8.90149,30.81289 -13.35156,52.38187 -13.35156,64.70703 l -81.14062,14.37891 c 0,-29.44345 -4.79461,-56.31901 -14.38086,-80.62695 -9.58625,-24.30793 -20.88467,-58.71511 -33.89453,-103.22266 -8.9015,-22.59614 -1.71055,-35.94828 21.57031,-40.05664 23.28083,-4.1084 34.23662,-13.01047 32.86719,-26.70508 -0.68474,-26.70454 -8.73027,-38.34553 -24.13672,-34.92188 -15.40645,3.42366 -21.74087,-2.05425 -19.00196,-16.43359 10.27098,-4.79313 13.86645,-8.55796 10.78516,-11.29687 -3.08129,-2.73894 -8.38789,-4.10938 -15.91992,-4.10938 0.68473,-5.47785 -2.73942,-9.58531 -10.27149,-12.32422 7.53207,-17.803 15.654,-31.54005 25.2331,-41.119145 3.76602,-1.711836 7.53281,-2.481729 11.29883,-2.310547 3.76603,0.171182 7.53279,1.283691 11.29883,3.337891 7.53203,4.108399 11.74155,6.882506 19.95831,8.25196 v 0 c 5.47785,2.738945 9.92793,6.846366 13.35156,12.324219 15.06411,-7.532033 22.5957,-5.818964 22.5957,5.136722 0,7.83216 -3.84919,14.26456 -11.5479,19.29715 l 3.3311,17.67746 c 4.22794,-2.89281 7.20697,-6.76226 10.56876,-10.25133 26.12565,-27.11474 8.42078,-59.815585 -21.86562,-46.238939 -6.84731,-10.270979 -24.65145,-18.487811 -53.41016,-24.65039 8.90152,-19.172466 29.44461,-28.757813 61.62696,-28.757813 25.7025,0 44.20479,10.101274 55.50723,30.3039 l 13.20598,-8.703703 C 448.74983,23.855641 426.1872,11.177734 394.4043,11.177734 c -41.08387,0 -65.73246,13.694722 -73.94922,41.083985 -2.73895,-5.477853 -2.05567,-11.469649 2.05273,-17.97461 4.10839,-6.504925 5.99277,-12.668046 5.65039,-18.488281 -0.34238,-5.8201973 -2.56937,-10.2702726 -6.67773,-13.3515624 -2.0542,-1.5406448 -4.3639,-2.3538576 -6.93164,-2.4394531 z m -6.1543,129.1386675 c 0.72218,0.012 1.66091,0.40349 2.81641,1.17383 2.73891,0.68473 5.82047,1.02735 9.24414,1.02735 3.42363,0 4.79215,0.34261 4.10742,1.02734 h -16.43359 c -1.36945,-0.68473 -1.71208,-1.54125 -1.02735,-2.56836 0.29957,-0.44936 0.73127,-0.66952 1.29297,-0.66016 z m 15.14063,5.28125 c -0.68473,0.68473 -2.22453,1.54125 -4.6211,2.56836 -2.39656,1.02711 -4.96421,1.88363 -7.70312,2.56836 -1.36949,0 -2.22601,-0.34261 -2.56836,-1.02734 -0.34238,-0.68473 -0.17106,-1.36992 0.51367,-2.05469 z m 111.95312,317.37305 c 2.05422,9.58621 7.02012,20.88461 14.89453,33.89453 7.87438,13.00989 9.41419,40.05675 4.6211,81.14063 l -1.02735,100.65625 H 289.64062 l 64.70704,-199.25781 z"
     id="path1"
     sodipodi:nodetypes="sssssscccscssssssccssscccccccccccccsccsccccscsccscccsccccscsssscccccscscccscscsccccccccsccscscscscccsscccsccsccsccscssssscsccsscscscccsccccc" />
  <path
     style="fill:#1a5fb4;stroke:none;stroke-width:1"
     d="m 448.88614,57.915228 c 7.90286,15.600268 6.75585,33.69487 2.27661,48.895382 -9.51499,32.28958 -27.59159,44.52578 -40.24461,44.52578 -12.26325,0 -8.11541,-18.70537 -3.89041,-24.07792 l -13.89986,-7.42613 c -8.28716,7.89271 -11.74056,37.59508 6.98757,42.61327 4.1001,40.31801 19.8181,60.47657 47.1523,60.47657 27.3343,0 39.42622,27.86625 22.34242,77.75126 -2.1564,6.29659 -4.144,12.49509 -5.9629,18.5957 4.6599,2.24335 2.32318,1.63152 7.09118,3.64132 2.7448,1.15699 4.9343,2.03567 6.957,2.81054 3.4214,-12.39565 7.6285,-25.47715 12.6231,-39.24609 l 12.73426,-58.39886 -26.48053,-26.8866 c -26.651,0 -47.24313,-4.91658 -50.31823,-13.11688 -5.06125,-13.49663 -5.72553,-23.28403 -5.72553,-24.88507 13.76396,0 32.91651,-17.37689 43.49189,-45.62685 1.8803,-5.02283 4.1678,-9.9275 5.38464,-15.31744 3.53843,-15.6734 2.64336,-33.307438 -7.31292,-53.031685 z"
     id="path19"
     sodipodi:nodetypes="csscccsscsccccscsscc" />
  <path
     d="m 132.18471,613.54048 v -28.70091 h 17.42561 c 8.20025,-15.71723 26.30919,-23.57586 54.32683,-23.57586 23.9174,0 40.318,6.49191 49.2016,19.47572 7.517,4.10013 17.4256,6.1502 29.726,6.1502 l 323.75101,0 v 24.60077 l -323.75101,0 c -12.3004,0 -22.209,1.7084 -29.726,5.12518 -8.8836,12.98373 -25.2842,19.4756 -49.2016,19.4756 -28.01764,0 -46.12658,-7.51693 -54.32683,-22.55077 z m 12.30044,-11.27536 h 17.42555 c 0,12.98374 14.00881,20.50064 42.02645,22.55071 13.6671,0 24.2591,-2.7334 31.7761,-8.2002 7.5168,-5.46687 11.2753,-11.27541 11.2753,-17.42561 0,-6.15024 -3.7585,-11.95878 -11.2753,-17.42561 -7.517,-5.46682 -18.109,-8.20025 -31.7761,-8.20025 -28.01764,1.36671 -42.02645,8.8836 -42.02645,22.5507 h -17.42555 z"
     style="fill:#a51d2d;stroke:none;stroke-width:1"
     id="path1-1"
     sodipodi:nodetypes="cccscsccscsccccccsccccc" />
  <path
     style="fill:#26a269;stroke:none;stroke-width:1px;stroke-linecap:butt;stroke-linejoin:miter;stroke-opacity:1"
     d="m 368.72851,83.074249 c 36.40205,-0.125368 46.42838,14.722702 94.95388,35.197821 l 5.72265,-16.02886 C 432.78843,83.196359 366.67549,62.90804 331.75195,56.369141"
     id="path21"
     sodipodi:nodetypes="cccc" />
  <path
     style="fill:#a51d2d;stroke:none;stroke-width:1px;stroke-linecap:butt;stroke-linejoin:miter;stroke-opacity:1"
     d="m 306.2114,159.53376 12.67431,9.90965 -50.4363,53.40905 -16.86456,-16.8081 z"
     id="path22"
     sodipodi:nodetypes="ccccc" />
  <path
     style="fill:#a51d2d;stroke:none;stroke-width:1"
     d="m 499.14797,87.920925 c -5.09352,-1.768017 -15.00785,3.006667 -29.74293,14.322285 l -5.38464,15.31744 -3.72624,52.63855 16.37944,-0.29644 -5.56012,-46.40602 c 10.28716,-0.97396 12.66279,-6.64023 7.12501,-17.00163 15.73408,0.94064 24.4381,-0.9734 26.11339,-5.73945 1.96604,-5.229581 0.008,-10.613977 -5.20438,-12.834901 z"
     id="path24"
     sodipodi:nodetypes="cccccccscc"
     inkscape:transform-center-x="-8.2516655"
     inkscape:transform-center-y="26.528533" />
  <path
     d="m 41.083984,721.2428 c 0.8334,-23.33435 -10.83376,-50.41876 -35.00147,-81.25345 h 35.00147"
     style="fill:#000000;stroke:none;stroke-width:1"
     id="path1-38" />
  <use
     x="0"
     y="0"
     xlink:href="#path1-38"
     id="use23"
     transform="matrix(-1,0,0,1,106.81836,2.0926336e-8)" />
</svg>
