<?xml version="1.0" encoding="UTF-8" standalone="no"?>
<svg
   width="1100"
   height="833.8855"
   version="1.1"
   id="svg1"
   sodipodi:docname="13101.svg"
   inkscape:version="1.4.2 (f4327f4, 2025-05-13)"
   xml:space="preserve"
   xmlns:inkscape="http://www.inkscape.org/namespaces/inkscape"
   xmlns:sodipodi="http://sodipodi.sourceforge.net/DTD/sodipodi-0.dtd"
   xmlns="http://www.w3.org/2000/svg"
   xmlns:svg="http://www.w3.org/2000/svg"><defs
     id="defs1" /><sodipodi:namedview
     id="namedview1"
     pagecolor="#ffffff"
     bordercolor="#666666"
     borderopacity="1.0"
     inkscape:showpageshadow="2"
     inkscape:pageopacity="0.0"
     inkscape:pagecheckerboard="0"
     inkscape:deskcolor="#d1d1d1"
     showguides="true"
     inkscape:zoom="0.3775"
     inkscape:cx="496.68874"
     inkscape:cy="843.70861"
     inkscape:window-width="1680"
     inkscape:window-height="998"
     inkscape:window-x="-8"
     inkscape:window-y="-8"
     inkscape:window-maximized="1"
     inkscape:current-layer="svg1" /><path
     style="baseline-shift:baseline;display:inline;overflow:visible;opacity:1;vector-effect:none;fill:#000000;stroke-width:0.999999;enable-background:accumulate;stop-color:#000000;stop-opacity:1"
     d="M 643.47594,82.805692 C 584.72407,87.567492 537.99795,97.922748 487.67165,134.6576 403.2962,113.57387 324.27432,159.16855 325.40862,249.07468 280.20708,270.06643 186.95769,325.05995 113.21987,385.15062 34.501564,380.12562 0.19888729,428.10172 0,494.5027 c -0.07877689,26.30064 5.4096733,53.11346 18.285194,76.8112 96.371246,177.37385 245.644226,269.03678 376.906976,178.13256 58.97907,-40.84512 143.88062,-104.23658 190.1532,-104.8472 97.74679,-1.28975 219.8038,167.32272 235.28479,189.28621 C 877.97723,660.2742 953.55418,466.61729 1100,348.95094 1012.7146,238.42622 939.01796,158.04344 808.98224,98.007143 750.98147,71.228745 672.16085,80.480662 643.47594,82.805692 Z M 778.13871,158.94651 C 888.37926,209.84356 958.05835,287.48568 1025.1213,370.36183 925.9634,470.9384 865.07728,586.99762 819.23915,724.87112 756.68731,644.46952 650.52443,584.51808 591.19712,584.51808 c -54.13067,0 -79.4629,8.75773 -211.00458,99.85509 C 226.27024,790.96992 64.342764,580.28266 44.924379,507.81226 26.856204,440.38091 101.35424,392.81565 158.36704,439.52623 216.23946,388.90076 251.53301,356.04721 369.18453,301.15119 348.5094,181.45193 444.31198,140.79944 524.76422,192.8999 640.00805,94.714227 760.47518,150.79143 778.13871,158.94651 Z"
     id="path2"
     sodipodi:nodetypes="scccssssccsssccssscccs" /><path
     style="fill:#000000;stroke:none;stroke-width:0.999999px;stroke-linecap:butt;stroke-linejoin:miter;stroke-opacity:1"
     d="m 500.41174,210.81244 c -51.90554,-28.77985 -114.23877,-3.15025 -96.32786,72.5637 1.94777,8.23374 16.79594,13.42635 21.93689,5.21253 18.63818,-29.77866 43.85667,-49.73875 73.91102,-61.98168 5.18143,-2.11069 4.79863,-13.39999 0.47995,-15.79455 z"
     id="path3"
     sodipodi:nodetypes="sssss" /><path
     style="baseline-shift:baseline;display:inline;overflow:visible;vector-effect:none;fill:#f9f06b;stroke-width:1;enable-background:accumulate;stop-color:#000000"
     d="M 577.88742,183.57805 C 584.48964,105.459 638.97808,55.465154 700.38435,26.638212 c 25.19693,-11.8286 42.23033,-6.762025 40.00687,24.762667 -2.33131,33.053554 -21.60377,110.795971 -113.38201,154.861541"
     id="path7" /><path
     style="baseline-shift:baseline;display:inline;overflow:visible;vector-effect:none;fill:#000000;stroke-width:1;enable-background:accumulate;stop-color:#000000"
     d="m 574.32314,155.73336 c -1.15517,7.17701 -5.56069,26.97477 3.56428,28.02802 9.12498,1.05326 14.46607,-15.5368 15.74125,-21.71847 19.7839,-95.906098 122.14805,-146.076632 135.50863,-138.362896 13.36059,7.713736 4.24181,91.621856 -73.83911,147.778066 -10.31159,7.41616 -33.96637,26.09076 -28.28856,34.98747 5.67781,8.89672 30.44598,-4.18482 41.88482,-12.60388 61.46039,-45.23531 88.63492,-89.11944 86.29178,-158.78802 C 754.67077,19.727545 749.86144,5.427863 744.46085,1.824474 738.52396,-2.1367566 723.3701,0.73039214 703.48809,6.7883776 634.22109,27.89381 586.70514,78.804672 574.32314,155.73336 Z"
     id="path8"
     sodipodi:nodetypes="szszszsssss" /><path
     style="baseline-shift:baseline;display:inline;overflow:visible;opacity:1;vector-effect:none;stroke-width:0.999999;enable-background:accumulate;stop-color:#000000;stop-opacity:1"
     d="m 430.19284,496.62347 c -13.80187,35.31315 -48.50817,66.75182 -117.72185,79.07745 -67.06432,11.94287 -110.16322,67.8773 -127.83707,148.95358 l 34.4517,11.65248 c 16.27002,-74.63644 52.11043,-123.77517 103.44924,-132.91762 41.91766,-7.46472 110.06493,-23.38991 136.26603,-90.51401 3.65579,-9.36569 7.9425,-31.5624 -3.7774,-34.99001 -10.33085,-3.02136 -21.70384,10.73796 -24.83065,18.73813 z"
     id="path5"
     sodipodi:nodetypes="ssccssss" /><path
     style="baseline-shift:baseline;display:inline;overflow:visible;opacity:1;vector-effect:none;stroke-width:1;enable-background:accumulate;stop-color:#000000;stop-opacity:1"
     d="m 678.95468,372.67441 c -6.95943,0.39625 -8.58718,9.10421 -7.94497,19.69744 3.82917,63.1626 -1.45695,99.3121 -17.90739,154.71429 -2.38559,8.03421 -6.35845,26.09539 2.91228,28.9944 9.42098,2.946 16.75677,-14.15986 19.21818,-22.52922 16.88436,-57.41038 18.29655,-95.7864 14.52459,-160.09396 -0.60736,-10.3548 -3.84323,-21.17921 -10.80269,-20.78295 z"
     id="path9"
     sodipodi:nodetypes="zsssssz" /><path
     style="baseline-shift:baseline;display:inline;overflow:visible;opacity:1;vector-effect:none;stroke-width:1;enable-background:accumulate;stop-color:#000000;stop-opacity:1"
     d="m 758.49952,334.64239 c -9.05892,0.17468 -9.30906,16.91885 -9.0689,25.12237 2.04574,69.87541 4.06657,143.70053 -25.39476,205.42318 -3.92762,8.22853 -13.18892,25.17053 -4.28107,30.23322 8.90785,5.06269 19.83191,-10.65881 24.1011,-19.40341 33.23141,-68.06794 27.00003,-148.36572 24.71779,-218.10446 -0.27799,-8.49479 -1.01524,-23.44558 -10.07416,-23.2709 z"
     id="path10"
     sodipodi:nodetypes="zsszssz" /><path
     style="fill:none;stroke:#613583;stroke-width:15;stroke-linecap:butt;stroke-linejoin:miter;stroke-dasharray:none;stroke-opacity:1"
     d="M 628.05963,77.225008 C 572.17181,148.29275 651.66327,204.83181 704.3374,134.97682"
     id="path13"
     sodipodi:nodetypes="cc" /><ellipse
     style="fill:#000000;fill-rule:evenodd;stroke:none;stroke-width:15;stroke-linecap:round;stroke-miterlimit:5;stroke-dasharray:none"
     id="path14"
     cx="-232.50493"
     cy="416.50351"
     rx="39.900661"
     ry="21.664812"
     transform="rotate(-40.412967)" /></svg>
