<?xml version="1.0" encoding="UTF-8" standalone="no"?>
<!-- Created with Inkscape (http://www.inkscape.org/) -->

<svg
   sodipodi:docname="13120.svg"
   inkscape:version="1.4.3 (0d15f75, 2025-12-25)"
   sodipodi:version="0.32"
   id="svg2"
   height="1000"
   width="1000"
   version="1.1"
   xmlns:inkscape="http://www.inkscape.org/namespaces/inkscape"
   xmlns:sodipodi="http://sodipodi.sourceforge.net/DTD/sodipodi-0.dtd"
   xmlns:xlink="http://www.w3.org/1999/xlink"
   xmlns="http://www.w3.org/2000/svg"
   xmlns:svg="http://www.w3.org/2000/svg"
   xmlns:rdf="http://www.w3.org/1999/02/22-rdf-syntax-ns#"
   xmlns:cc="http://creativecommons.org/ns#"
   xmlns:dc="http://purl.org/dc/elements/1.1/">
  <defs
     id="defs3" />
  <sodipodi:namedview
     inkscape:window-y="-8"
     inkscape:window-x="-8"
     inkscape:window-height="998"
     inkscape:window-width="1680"
     inkscape:current-layer="layer1"
     inkscape:document-units="px"
     inkscape:cy="256.29024"
     inkscape:cx="122.28227"
     inkscape:zoom="0.29848971"
     inkscape:pageshadow="2"
     inkscape:pageopacity="0.0"
     borderopacity="1.0"
     bordercolor="#666666"
     pagecolor="#ffffff"
     id="base"
     inkscape:showpageshadow="2"
     inkscape:pagecheckerboard="0"
     inkscape:deskcolor="#d1d1d1"
     inkscape:window-maximized="1" />
  <metadata
     id="metadata4">
    <rdf:RDF>
      <cc:Work
         rdf:about="">
        <dc:format>image/svg+xml</dc:format>
        <dc:type
           rdf:resource="http://purl.org/dc/dcmitype/StillImage" />
        <dc:creator>
          <cc:Agent>
            <dc:title>S. Rosmorduc</dc:title>
          </cc:Agent>
        </dc:creator>
        <cc:license
           rdf:resource="http://creativecommons.org/licenses/by/2.0/" />
        <dc:description>Signe ms, tiré de la stèle d'Antef (Louvre C26), XVIIIeme dynastie
</dc:description>
      </cc:Work>
      <cc:License
         rdf:about="http://creativecommons.org/licenses/by/2.0/">
        <cc:permits
           rdf:resource="http://web.resource.org/cc/Reproduction" />
        <cc:permits
           rdf:resource="http://web.resource.org/cc/Distribution" />
        <cc:requires
           rdf:resource="http://web.resource.org/cc/Notice" />
        <cc:requires
           rdf:resource="http://web.resource.org/cc/Attribution" />
        <cc:permits
           rdf:resource="http://web.resource.org/cc/DerivativeWorks" />
        <cc:requires
           rdf:resource="http://web.resource.org/cc/ShareAlike" />
      </cc:License>
    </rdf:RDF>
  </metadata>
  <g
     id="layer1"
     inkscape:groupmode="layer"
     inkscape:label="Layer 1">
    <path
       id="path1334"
       d="m 340.8231,2.6249515 c -0.59012,-0.1088516 -1.2251,-0.1068561 -1.89962,0.017428 -27.59108,1.9083334 -55.24888,2.8307399 -82.9036,2.7361501 -5.95379,0.3530742 -6.43286,7.9107584 -4.42664,12.1645394 12.42979,35.053747 23.15078,70.626587 33.21721,106.413581 -0.47636,2.8e-4 -0.95271,-2.8e-4 -1.42907,0 -9.93424,0.17673 -20.03466,-0.0224 -29.85367,0.95853 -0.18461,0.24241 -0.32792,0.50365 -0.5054,0.74939 -0.59262,-2.25791 -2.12633,-4.29684 -4.46149,-4.8449 -32.14489,-21.666292 -63.26975,-44.829155 -94.16191,-68.212053 -0.95931,-0.146708 -1.91276,-0.491736 -2.893,-0.331126 -3.0689,1.911667 -4.20122,6.192965 -5.90799,9.341251 -5.41645,14.587377 -9.95452,29.513369 -15.98121,43.882968 -4.29244,10.88155 -9.06043,21.72572 -12.32139,32.90351 2.81784,6.10529 10.52535,3.99823 15.51066,2.45731 38.06459,-8.13395 77.25109,-7.40122 115.9814,-7.91218 -3.85454,8.46476 -5.50007,17.96192 -8.9927,26.59468 -1.56742,4.92118 -3.43128,9.89418 -4.51378,14.9704 -0.69998,-0.0995 -1.41345,-0.11656 -2.12618,0.0697 -47.27094,18.30957 -93.45638,40.72763 -133.827365,71.69759 -19.304451,14.96795 -38.445562,30.46437 -55.332972,48.08305 -0.361398,7.09486 7.645006,9.37565 12.966215,11.41515 10.879083,4.49015 21.77101,8.98035 32.659524,13.47162 -5.521611,7.56398 -6.938146,17.41668 -10.456625,26.01956 -18.315684,53.69983 -44.082926,104.40945 -65.580464,156.81452 0.114614,5.90883 7.553212,7.68345 12.094829,5.57687 7.584989,-1.43592 15.18948,-2.14007 22.81287,-2.31789 -1.591494,5.92651 -2.211462,12.23625 -4.862331,17.81112 -12.867645,40.98947 -33.9279899,78.70922 -49.8258165,118.49096 -0.9763996,5.58361 6.10331425,8.45352 10.4914801,6.27397 19.4349674,-3.21222 39.1045344,-6.00567 58.8185134,-6.77935 -2.249992,5.46695 -2.690525,11.60027 -4.391782,17.27089 -9.536491,40.26174 -23.439287,79.98916 -25.113327,121.6628 -0.357567,27.11606 2.902636,54.15751 7.232499,80.88196 7.401227,43.93232 20.685111,86.74771 37.818126,127.83227 0.263022,6.12267 9.19874,8.53874 12.321389,3.13698 2.501738,-5.54658 3.287195,-11.75458 5.176029,-17.54973 9.863638,-35.58526 16.932128,-71.9873 20.076718,-108.80115 3.07625,-31.7665 4.31259,-63.71955 4.09551,-95.6258 -1.31886,-37.35207 -10.21654,-73.81585 -15.96378,-110.61369 -0.98793,-5.55506 -1.71618,-11.266 -3.15441,-16.7306 18.98559,1.80679 37.65342,5.53833 56.30892,9.41096 6.10983,0.13937 7.47044,-7.90499 4.77519,-12.14708 -16.01551,-41.91389 -32.35043,-83.8084 -45.80001,-126.5949 0.64121,0.11988 1.29413,0.22894 1.93447,0.34855 16.25169,2.94194 32.55191,6.73962 49.00672,7.68562 5.15804,-4.27354 1.45041,-11.26487 -1.04567,-15.94635 -19.83791,-43.00952 -36.08483,-88.16275 -42.54103,-135.27387 -2.08157,-12.77472 -2.03671,-25.87883 -4.25236,-38.58494 13.99289,5.69214 27.98688,11.37139 42.03563,16.85259 6.11817,-1.47447 6.4096,-8.99871 5.17603,-13.99445 -2.14503,-30.59768 4.27086,-61.97725 19.72817,-88.58504 13.1564,-23.50926 32.19423,-42.78514 51.58601,-61.17125 7.70364,6.57987 16.64076,11.48916 25.32246,16.74802 -1.46255,0.35811 -2.92691,0.71477 -4.37435,1.1328 -15.95094,30.87521 -29.39004,62.95199 -43.7087,94.5976 -1.8394,4.38009 -3.97926,8.8802 -4.61834,13.55876 3.96768,6.44518 12.35606,4.24652 18.63022,4.3395 5.92863,-0.14995 11.86297,-0.27603 17.79369,-0.41827 -2.00386,6.15949 -2.55275,13.00598 -4.54863,19.10077 -11.42629,47.24643 -22.76926,94.51135 -34.05374,141.79183 1.77283,6.52563 9.72317,6.33345 15.1621,5.87314 9.77332,-0.35389 19.55221,-0.67527 29.33084,-1.01081 -2.69965,7.73295 -3.91413,16.08394 -6.53539,23.82368 -12.68882,46.44135 -25.60229,92.87633 -37.99241,139.36938 1.79186,6.80049 10.10136,6.55176 15.70237,6.04744 15.58002,-0.45039 31.16838,-0.88851 46.75854,-1.3245 -0.8074,2.55409 -1.35721,5.25268 -1.79506,7.63328 -9.77081,42.63397 -24.78736,84.46671 -27.03037,128.47706 -0.17305,39.91129 5.72833,79.62722 14.84841,118.4039 7.52089,31.30446 18.18746,61.77724 30.30678,91.56512 0.74693,5.39713 8.50081,7.95653 11.69399,3.13699 2.59806,-4.62847 3.07613,-10.17951 4.89719,-15.16205 13.22947,-45.73349 20.80412,-93.02029 23.2137,-140.55449 1.58178,-25.31485 2.48924,-50.7269 1.34194,-76.07198 -2.62451,-36.38074 -10.86188,-71.97782 -16.66089,-107.89491 -0.68446,-3.55135 -1.23039,-7.20737 -2.17846,-10.71801 16.35378,-0.51151 32.71495,-1.00651 49.04157,-1.67306 5.81219,-4.4867 2.58633,-12.35683 0.95852,-18.10742 -13.8957,-49.79996 -27.67728,-99.66845 -41.89621,-149.35545 13.65506,-0.52869 27.31982,-1.00607 40.95511,-1.65563 5.73047,-4.49992 2.50408,-12.30253 0.78425,-17.9854 -14.38437,-48.48537 -28.76663,-96.96629 -43.151,-145.45165 14.66158,-0.38388 29.32797,-0.74504 43.9701,-1.23736 5.55287,-3.66786 2.84313,-11.12238 0.26142,-15.78951 -13.05,-29.56209 -25.90528,-59.21484 -39.42148,-88.56761 9.7398,-4.00729 19.40333,-8.15429 28.87771,-12.66994 26.11076,24.46108 48.89118,53.81306 59.3762,88.39333 6.01899,20.56199 6.42584,42.32772 4.32208,63.524 2.12159,6.10097 10.05041,5.12013 14.48242,2.35274 10.90063,-4.49818 21.81753,-8.99312 32.72924,-13.48905 -0.0874,0.0947 -0.19258,0.1651 -0.27885,0.26142 -1.60195,42.8211 -10.09725,85.37286 -25.68844,125.32264 -7.18408,19.5649 -16.20088,38.38425 -24.06766,57.66829 -0.61197,5.66732 6.71185,8.23511 11.01431,5.75114 14.42422,-2.12928 28.78702,-4.99185 43.16843,-7.7379 -2.87203,7.9645 -4.85595,16.29035 -8.06903,24.13738 -12.26019,35.92235 -26.13721,71.2586 -39.49118,106.77956 -1.25182,5.31297 5.14428,9.78489 9.77694,7.0408 17.40424,-3.89561 35.11848,-6.85938 52.92795,-8.55698 -0.41458,1.67997 -0.72018,3.37473 -0.90624,4.89716 -5.86903,32.98644 -12.33283,65.90423 -16.48661,99.16365 -2.25981,20.75989 -2.63452,41.67632 -1.30708,62.51316 1.88486,52.66715 7.18309,105.53066 21.29666,156.44857 2.37995,8.67269 4.67795,17.44153 7.49391,25.94988 2.37731,4.86264 10.60218,4.12097 11.78113,-1.30711 20.3316,-48.39984 35.06877,-99.33815 41.77422,-151.46423 3.72197,-30.25305 6.12019,-61.18721 0.3137,-91.33859 -5.84899,-32.06369 -15.36084,-63.31712 -22.96972,-94.98101 -1.25897,-3.65982 -1.884,-7.63841 -3.13699,-11.31061 9.10964,0.2286 18.20429,0.84835 27.27436,2.02161 12.64959,1.34102 25.16285,3.98406 37.8181,5.10635 5.36601,-1.51997 4.91043,-8.54777 2.26566,-12.28656 -17.7065,-42.63581 -40.72351,-83.40753 -52.05659,-128.3899 -0.15132,-0.74141 -0.38536,-1.58361 -0.57512,-2.38759 2.12343,0.0204 4.24823,0.0632 6.37855,0.15685 8.07076,0.59001 16.07757,2.22806 24.10251,2.893 5.66091,-2.49606 4.28895,-9.93488 1.62075,-14.18616 -23.49338,-53.43323 -48.95309,-106.17582 -67.1315,-161.74655 -1.68404,-4.35264 -2.91553,-9.19209 -5.43744,-13.03593 -0.12728,-0.10666 -0.28629,-0.15949 -0.41827,-0.26141 14.70426,-6.13244 29.39838,-12.28382 43.98754,-18.6128 3.44096,-5.8738 -2.34635,-11.50689 -6.67482,-14.86583 -37.40604,-34.07779 -78.56524,-64.55419 -124.31184,-86.52857 -17.25437,-8.23071 -34.79165,-16.09262 -52.91052,-22.2029 -1.32183,-4.03173 -3.20132,-8.02132 -4.18265,-11.99026 -4.67249,-13.38914 -8.59885,-27.21172 -14.51728,-40.0663 3.07983,0.66111 6.76499,0.0979 9.70724,0.27884 37.15281,-0.17726 74.69617,0.3319 111.08421,8.69643 3.6243,1.59415 10.52185,0.33701 9.58523,-4.7752 -6.44374,-20.21589 -15.55555,-39.47038 -22.13318,-59.65504 -2.9397,-8.237818 -5.8437,-16.654524 -9.51553,-24.520785 -1.43466,-0.59466 -2.8709,-0.76851 -4.40921,-0.575114 -31.11945,22.732278 -61.65451,46.40679 -93.88306,67.619509 -3.37522,1.76984 -7.73787,5.1773 -5.33288,9.44581 0.0104,0.0201 0.0243,0.0324 0.0349,0.0523 -9.11324,-1.72336 -18.59228,-0.38108 -27.83205,-0.8191 -1.08632,5.6e-4 -2.17266,-5.6e-4 -3.25898,0 0.21666,-0.67795 0.31441,-1.39902 0.26142,-2.14361 12.56948,-37.506374 25.15255,-75.537926 46.63654,-109.062596 2.61568,-3.4150261 0.71505,-9.3461091 -3.41583,-10.1080701 z"
       style="color:#000000;display:inline;overflow:visible;visibility:visible;fill:#e5a50a;fill-opacity:1;fill-rule:evenodd;stroke:none;stroke-width:16.8816;stroke-linecap:round;stroke-linejoin:round;stroke-miterlimit:4;stroke-dashoffset:0;stroke-opacity:1;marker:none;marker-start:none;marker-mid:none;marker-end:none" />
    <path
       style="fill:none;stroke:#613583;stroke-width:65;stroke-linecap:butt;stroke-linejoin:miter;stroke-dasharray:none;stroke-opacity:1"
       d="M 291.38068,0 V 1000"
       id="path1" />
    <path
       style="fill:none;stroke:#613583;stroke-width:65;stroke-linecap:butt;stroke-linejoin:miter;stroke-dasharray:none;stroke-opacity:1"
       d="M 475.88758,84.581353 259.06973,202.48589 C 144.92528,264.55711 65.146086,387.01384 65.146086,546.76838 V 1000"
       id="path2"
       sodipodi:nodetypes="cssc"
       inkscape:transform-center-x="26.786216"
       inkscape:transform-center-y="375.94921" />
    <use
       x="0"
       y="0"
       xlink:href="#path2"
       inkscape:transform-center-x="-26.786216"
       inkscape:transform-center-y="375.94921"
       id="use2"
       transform="matrix(-1,0,0,1,582.76136,0)" />
  </g>
  <g
     inkscape:label="dessin"
     id="layer2"
     inkscape:groupmode="layer" />
</svg>
