<?xml version="1.0" encoding="UTF-8" standalone="no"?>
<!-- Created with Inkscape (http://www.inkscape.org/) -->

<svg
   width="1800"
   height="1800"
   id="svg2451"
   sodipodi:version="0.32"
   inkscape:version="1.4.3 (0d15f75, 2025-12-25)"
   version="1.0"
   sodipodi:docname="13247.svg"
   inkscape:output_extension="org.inkscape.output.svg.inkscape"
   xmlns:inkscape="http://www.inkscape.org/namespaces/inkscape"
   xmlns:sodipodi="http://sodipodi.sourceforge.net/DTD/sodipodi-0.dtd"
   xmlns:xlink="http://www.w3.org/1999/xlink"
   xmlns="http://www.w3.org/2000/svg"
   xmlns:svg="http://www.w3.org/2000/svg"
   xmlns:rdf="http://www.w3.org/1999/02/22-rdf-syntax-ns#"
   xmlns:cc="http://creativecommons.org/ns#"
   xmlns:dc="http://purl.org/dc/elements/1.1/">
  <defs
     id="defs2453">
    <inkscape:perspective
       sodipodi:type="inkscape:persp3d"
       inkscape:vp_x="0 : 526.18109 : 1"
       inkscape:vp_y="0 : 1000 : 0"
       inkscape:vp_z="744.09448 : 526.18109 : 1"
       inkscape:persp3d-origin="372.04724 : 350.78739 : 1"
       id="perspective2459" />
  </defs>
  <sodipodi:namedview
     id="base"
     pagecolor="#ffffff"
     bordercolor="#666666"
     borderopacity="1.0"
     inkscape:pageopacity="0.0"
     inkscape:pageshadow="2"
     inkscape:zoom="0.27944444"
     inkscape:cx="982.30617"
     inkscape:cy="1100.3976"
     inkscape:document-units="px"
     inkscape:current-layer="layer1"
     showgrid="true"
     inkscape:window-width="1680"
     inkscape:window-height="998"
     inkscape:window-x="-8"
     inkscape:window-y="-8"
     inkscape:showpageshadow="2"
     inkscape:pagecheckerboard="0"
     inkscape:deskcolor="#d1d1d1"
     inkscape:window-maximized="1"
     showguides="true">
    <inkscape:grid
       type="xygrid"
       id="grid2576"
       visible="true"
       enabled="true"
       originx="0"
       originy="0"
       spacingy="1"
       spacingx="1"
       units="px" />
    <sodipodi:guide
       position="1802.8438,1796.375"
       orientation="0,-1"
       id="guide1"
       inkscape:locked="false" />
    <sodipodi:guide
       position="1800,887.78125"
       orientation="0,-1"
       id="guide2"
       inkscape:locked="false" />
  </sodipodi:namedview>
  <metadata
     id="metadata2456">
    <rdf:RDF>
      <cc:Work
         rdf:about="">
        <dc:format>image/svg+xml</dc:format>
        <dc:type
           rdf:resource="http://purl.org/dc/dcmitype/StillImage" />
      </cc:Work>
    </rdf:RDF>
  </metadata>
  <g
     inkscape:label="Calque 1"
     inkscape:groupmode="layer"
     id="layer1">
    <path
       style="fill:#000000;stroke:none"
       d="M 1049.0625,3.625 C 927.35842,37.03409 843.89181,106.9176 798.68745,213.28125 c -22.94991,36.81817 -49.71262,74.66759 -80.3125,113.53125 -43.118,55.22724 -70.61483,102.96022 -82.4375,143.1875 10.43176,12.27275 21.40003,21.64776 32.875,28.125 11.47495,6.47729 34.60243,-0.16476 69.375,-19.9375 C 754.87829,465.23297 770.85627,462.5 786.1562,470 c 18.08174,34.09092 39.13191,66.82383 63.125,98.1875 23.99306,31.36363 36.00002,60.34662 36,86.9375 h 1.03125 c -5.56362,32.72727 -19.31202,64.60223 -41.21875,95.625 -21.9067,31.02271 -57.52918,69.69886 -106.90625,116.0625 -18.69653,9.16499 -30.67323,24.29873 -35.90625,45.40625 H 305.125 C 259.19232,765.36543 205.05595,691.93751 142.71875,691.9375 c -87.490814,0 -109.901774,73.42796 -67.25,220.28125 H 0 V 985.625 h 57.40625 l 59.0625,117.875 h 191.9375 l 59.0625,-117.875 H 497.0625 l 369.09375,365.2188 V 1403 H 0 v 69.5625 h 224.75 v 95.2813 H 0 v 71.4687 h 224.75 v 95.2813 H 0 v 71.4687 h 1802.8438 v -71.4687 H 1578.125 v -95.2813 h 224.7188 v -71.4687 H 1578.125 v -95.2813 h 224.7188 V 1403 H 935.0625 v -32.8438 c 108.2698,0 151.4663,-35.4309 129.5937,-106.2812 123.5808,-36.0692 151.4617,-94.688 83.6563,-175.8438 L 1064.6562,985.625 h 736.6563 V 912.21875 H 1440 c -0.8841,-11.03811 2.3067,-22.08687 9.625,-33.125 19.4725,6.13638 24.3301,-3.39772 14.5937,-28.625 0,-50.45454 5.9273,-96.82101 17.75,-139.09375 0,-11.59088 -18.0865,-25.22445 -54.25,-40.90625 v -1.03125 c 27.1225,-49.09088 37.5716,-85.57385 31.3125,-109.4375 15.2999,12.95453 26.4204,33.92892 33.375,62.90625 6.9543,28.97724 9.0319,65.61932 6.25,109.9375 4.1727,12.95456 12.8802,17.72159 26.0938,14.3125 8.3453,-36.81817 8.1617,-80.96022 -0.5313,-132.4375 -8.6931,-51.47727 -25.2216,-93.58523 -49.5625,-126.3125 -14.6045,-25.2273 -30.766,-40.89492 -48.5,-47.03125 -17.7339,-6.13638 -44.6801,-11.60225 -80.8438,-16.375 -36.1635,-4.7727 -70.7473,-4.77269 -103.7812,0 -33.034,4.77274 -84.6969,6.13921 -154.9375,4.09375 -70.2406,-2.04545 -135.25365,-22.82954 -195.0625,-62.375 -2.78183,-15 7.4836,-25.9318 30.78125,-32.75 23.29765,-6.81818 40.8336,-27.95171 52.65625,-63.40625 -31.99075,-12.27271 -55.08696,-15.32388 -69.34375,-9.1875 -14.25678,6.13632 -20.36759,4.071 -18.28125,-6.15625 7.65001,-23.86363 30.25811,-53.5142 67.8125,-88.96875 37.55437,-35.45453 90.4082,-71.588048 158.5625,-108.40625 13.2136,-5.454524 16.3608,-10.571008 9.4063,-15.34375 -102.9269,15.681821 -195.77254,79.08241 -278.5313,190.21875 6.95451,-29.99998 20.6717,-59.99999 41.1875,-90 C 906.29703,112.71877 962.45035,70.102284 1054.25,14.875 1067.4636,8.0568119 1065.7533,4.3068155 1049.0625,3.625 Z M 929.0937,278.5 c 14.37631,-0.0373 18.38945,3.94603 12,12 -7.30226,9.20453 -17.23188,16.19602 -29.75,20.96875 -12.51811,4.77272 -26.08303,14.65625 -40.6875,29.65625 l -8.34375,-30.65625 c 20.16808,-19.77274 40.17962,-30.35513 60,-31.71875 2.47755,-0.17046 4.72749,-0.24467 6.78125,-0.25 z m -135.03125,13.84375 c 6.30525,-0.21972 13.73756,1.89066 22.34375,6.34375 12.51814,6.47728 17.40682,16.86933 14.625,31.1875 -2.08634,30.00002 9.55354,51.32388 34.9375,63.9375 25.38399,12.61366 63.11495,28.4716 113.1875,47.5625 50.0725,19.09089 116.6747,25.38354 199.7813,18.90625 83.1064,-6.47727 151.4191,-5.61937 204.9687,2.5625 22.9501,6.13633 36.1791,23.51986 39.6562,52.15625 9.7365,49.77269 -2.0869,99.19029 -35.4687,148.28125 -43.8132,-17.72731 -70.4238,-42.76988 -79.8125,-75.15625 -9.3886,-32.38636 -25.9171,-51.29546 -49.5625,-56.75 18.0818,42.95457 9.5578,70.03129 -25.5625,81.28125 -35.1203,11.25003 -65.1825,15.00001 -90.2187,11.25 -25.0363,-3.74999 -50.7604,-2.89203 -77.1875,2.5625 -26.4272,5.45456 -43.4751,1.38642 -51.1251,-12.25 -7.6499,-13.63635 -17.73178,-22.50288 -30.24995,-26.59375 4.17274,18.40908 4.35626,30.48581 0.53125,36.28125 -3.82496,5.79547 -14.45745,-0.33808 -31.84375,-18.40625 -17.38627,-18.0682 -16.31638,-62.21026 3.15625,-132.4375 -16.69083,10.22727 -29.21708,24.36936 -37.5625,42.4375 -8.34542,18.06821 -15.64718,37.67612 -21.90625,58.8125 -13.21356,-10.2273 -25.37272,-24.87785 -36.5,-43.96875 -11.12721,-19.0909 -22.95067,-40.22442 -35.46875,-63.40625 -12.51815,-23.18181 -27.67226,-35.79829 -45.40625,-37.84375 -17.73402,-2.04545 -35.63701,5.29546 -53.71875,22 -18.08174,16.70454 -31.4631,21.12215 -40.15625,13.28125 -8.69315,-7.8409 -9.02898,-20.61647 -1.03125,-38.34375 7.99769,-17.72727 25.01433,-43.30968 51.09375,-76.71875 26.07944,-33.40911 42.94379,-51.80964 50.59375,-55.21875 2.39061,-1.06534 5.04023,-1.65013 7.90625,-1.75 z m -19.8125,33.3125 c -5.74563,0.0959 -11.1645,3.20739 -16.25,9.34375 -8.34538,10.90911 -6.93969,20.44319 4.1875,28.625 10.43177,8.86364 20.51369,7.49718 30.25,-4.09375 8.34544,-10.22725 6.93971,-19.76135 -4.1875,-28.625 -4.86817,-3.57955 -9.53118,-5.32457 -14,-5.25 z m 446.84375,325.1875 c 14.3977,-0.042 24.6825,5.6527 30.8437,17.0625 9.3886,17.38637 19.654,34.57955 30.7813,51.625 11.1272,17.04546 6.0863,40.59375 -15.125,70.59375 -21.2113,30.00001 -43.9717,55.90054 -68.3125,77.71875 -13.381,7.21528 -22.5802,22.01497 -27.5937,44.375 H 1037.875 c -6.5501,-18.37577 -6.3053,-33.86113 0.75,-46.4375 18.7772,-9.54549 20.8544,-24.19607 6.25,-43.96875 -45.89984,-95.45461 -60.50341,-151.00569 -43.8126,-166.6875 31.9908,8.18182 60.1592,9.19889 84.5001,3.0625 24.3408,-6.13635 41.5409,-5.78694 51.625,1.03125 10.084,6.81819 29.3927,5.61082 57.9062,-3.59375 9.8015,-3.16406 18.4584,-4.75928 26,-4.78125 z m 100.2187,30.875 c 34.0773,19.77271 61.5429,30.83235 82.4063,33.21875 20.8636,2.38634 31.8318,20.11934 32.875,53.1875 1.0432,33.06818 -7.8166,66.30965 -26.5937,99.71875 -24.7169,13.00271 -39.5162,27.78597 -44.375,44.375 h -118 c -4.4672,-18.52052 -0.09,-33.31031 13.1874,-44.375 16.6908,7.5 25.3984,1.36649 26.0938,-18.40625 11.8227,-31.36361 27.0978,-57.45451 45.875,-78.25 18.7772,-20.79547 22.4437,-35.7955 10.9688,-45 -11.475,-9.20457 -18.96,-24.01423 -22.4376,-44.46875 z m -381.7812,20.4375 c 31.29529,46.36361 49.86992,81.48012 55.78125,105.34375 5.91135,23.86361 4.35338,46.01416 -4.6875,66.46875 -18.04852,12.20324 -28.00943,24.9547 -29.90625,38.25 H 782.43745 c -4.66256,-20.92618 -1.34377,-34.01644 10,-39.25 25.03628,-2.04545 38.60117,-14.34373 40.6875,-36.84375 37.55441,-60 73.02456,-104.65054 106.40625,-133.96875 z M 142.71875,753.75 c 38.27724,0 72.72194,52.83744 103.34375,158.46875 H 134.53125 C 95.160381,806.58741 97.879706,753.75 142.71875,753.75 Z m -26.25,231.875 h 191.9375 l -27.875,56.0312 H 144.375 Z m 474.09375,0 h 275.59375 v 266.6562 z m 380.59375,0 h 27.875 L 1113.875,1124.75 c 30.6217,39.9339 9.8361,70.2015 -62.3438,90.8125 z m -36.09375,40.5938 80.375,233.8124 c 13.1235,42.5102 -13.6632,63.7501 -80.375,63.75 z M 292,1472.5625 h 254.28125 v 95.2813 H 292 Z m 319.875,0 h 254.28125 v 95.2813 H 611.875 Z m 323.1875,0 h 255.9063 v 95.2813 H 935.0625 Z m 321.5313,0 h 254.25 v 95.2813 h -254.25 z M 292,1639.3125 h 254.28125 v 95.2813 H 292 Z m 319.875,0 h 254.28125 v 95.2813 H 611.875 Z m 323.1875,0 h 255.9063 v 95.2813 H 935.0625 Z m 321.5313,0 h 254.25 v 95.2813 h -254.25 z"
       id="path2442"
       sodipodi:nodetypes="ccccsccsccscccsccccccccccccccccccccccccccccccccccccccccccccsccscsssscscscscccsccsssccsssscssscccscsssscsscscssssssssssccccsssssccccccsssscsscccccssccsccccccsccscccccccccccccccccccccccccccccccccccccccccccccccccccccccccc" />
    <path
       d="m 611.2049,912.55937 c 10.7189,-21.32561 17.8121,-50.14838 21.2429,-86.51505 6.2062,-52.51323 16.339,-89.02914 30.4064,-109.52196 3.7236,-5.55021 4.8782,-12.16128 3.4303,-19.84627 -1.4481,-7.68479 -6.5268,-12.80083 -15.2155,-15.36248 H 425.7036 c -18.7911,0 -14.4822,23.57128 -0.6125,39.3005 14.0673,20.49282 18.0747,52.91698 24.281,105.43021 2.4949,36.36306 8.0303,65.18999 16.6366,86.51505 m 1.3475,-196.03701 h 147.1074 l -21.7328,160.75476 c -2.4826,14.08898 -9.1135,21.12026 -19.8709,21.12026 h -64.5371 c -10.7574,0 -17.165,-7.03128 -19.2337,-21.12026 z"
       style="fill:#000000;stroke:none;stroke-width:1"
       id="path1" />
    <circle
       style="fill:#1a5fb4;fill-rule:evenodd;stroke-width:72;stroke-miterlimit:2.3"
       id="path2"
       cx="455"
       cy="635"
       r="35" />
    <use
       x="0"
       y="0"
       xlink:href="#path2"
       id="use2"
       transform="translate(85)" />
    <use
       x="0"
       y="0"
       xlink:href="#path2"
       id="use5"
       transform="translate(170)" />
  </g>
</svg>
