<?xml version="1.0" encoding="UTF-8" standalone="no"?>
<!-- Created with Inkscape (http://www.inkscape.org/) -->

<svg
   width="1000"
   height="1000"
   id="svg2451"
   sodipodi:version="0.32"
   inkscape:version="1.4.3 (0d15f75, 2025-12-25)"
   version="1.0"
   sodipodi:docname="1324F.svg"
   inkscape:output_extension="org.inkscape.output.svg.inkscape"
   xmlns:inkscape="http://www.inkscape.org/namespaces/inkscape"
   xmlns:sodipodi="http://sodipodi.sourceforge.net/DTD/sodipodi-0.dtd"
   xmlns="http://www.w3.org/2000/svg"
   xmlns:svg="http://www.w3.org/2000/svg"
   xmlns:rdf="http://www.w3.org/1999/02/22-rdf-syntax-ns#"
   xmlns:cc="http://creativecommons.org/ns#"
   xmlns:dc="http://purl.org/dc/elements/1.1/">
  <defs
     id="defs2453">
    <inkscape:perspective
       sodipodi:type="inkscape:persp3d"
       inkscape:vp_x="0 : -273.81891 : 1"
       inkscape:vp_y="0 : 1000 : 0"
       inkscape:vp_z="744.09448 : -273.81891 : 1"
       inkscape:persp3d-origin="372.04724 : -449.21261 : 1"
       id="perspective2459" />
  </defs>
  <sodipodi:namedview
     id="base"
     pagecolor="#ffffff"
     bordercolor="#666666"
     borderopacity="1.0"
     inkscape:pageopacity="0.0"
     inkscape:pageshadow="2"
     inkscape:zoom="0.29601642"
     inkscape:cx="751.64749"
     inkscape:cy="616.51985"
     inkscape:document-units="px"
     inkscape:current-layer="layer1"
     showgrid="false"
     inkscape:window-width="1680"
     inkscape:window-height="998"
     inkscape:window-x="-8"
     inkscape:window-y="-8"
     showguides="true"
     inkscape:guide-bbox="true"
     inkscape:showpageshadow="2"
     inkscape:pagecheckerboard="0"
     inkscape:deskcolor="#d1d1d1"
     inkscape:window-maximized="1">
    <inkscape:grid
       type="xygrid"
       id="grid2576"
       visible="false"
       enabled="true"
       originx="0"
       originy="0"
       spacingy="1"
       spacingx="1"
       units="px" />
    <sodipodi:guide
       position="1000,1000"
       orientation="1,0"
       id="guide1"
       inkscape:locked="false" />
  </sodipodi:namedview>
  <metadata
     id="metadata2456">
    <rdf:RDF>
      <cc:Work
         rdf:about="">
        <dc:format>image/svg+xml</dc:format>
        <dc:type
           rdf:resource="http://purl.org/dc/dcmitype/StillImage" />
      </cc:Work>
    </rdf:RDF>
  </metadata>
  <g
     inkscape:label="Calque 1"
     inkscape:groupmode="layer"
     id="layer1">
    <path
       style="fill:#000000;stroke:none;stroke-width:0.999998"
       d="M 169.2465,507.12992 C 143.76859,425.67343 113.74027,384.94449 79.163125,384.94449 c -48.529337,0 -60.96023,40.72896 -37.302178,122.18543 H 0 v 40.71692 h 31.842054 l 32.760741,65.38281 H 171.06654 l 32.76074,-65.38281 h 71.88296 l 204.72863,202.57928 v 28.92996 H 0 v 38.58487 h 124.66415 v 52.85056 H 0 v 39.6422 h 124.66415 v 52.85056 H 0 v 39.64223 H 999.99999 V 963.28427 H 875.35314 v -52.85056 h 124.64685 v -39.6422 H 875.35314 V 817.94095 H 999.99999 V 779.35608 H 518.65974 v -18.21777 c 60.05501,0 84.01521,-19.65279 71.88293,-58.95198 68.5477,-20.00683 84.01266,-52.52146 46.40241,-97.5369 L 590.54267,547.84684 H 999.15061 V 507.12992 Z M 79.163125,419.2306 c 21.231585,0 40.337345,29.30783 57.322635,87.89932 H 74.621689 C 52.783486,448.53841 54.291839,419.2306 79.163125,419.2306 Z M 64.602795,547.84684 H 171.06654 l -15.46169,31.07934 H 80.081812 Z m 262.969955,0 h 152.86612 v 147.90865 z m 211.10744,0 h 15.46168 l 63.70145,77.16975 c 16.98522,22.1505 5.45588,38.93931 -34.58081,50.3718 z m -20.02045,22.51654 44.58234,129.69088 c 7.27933,23.57952 -7.57869,35.36085 -44.58234,35.3608 z M 161.96633,817.94095 h 141.04453 v 52.85056 H 161.96633 Z m 177.42802,0 h 141.04452 v 52.85056 H 339.39435 Z m 179.26539,0 h 141.94591 v 52.85056 H 518.65974 Z m 178.34673,0 h 141.02719 v 52.85056 H 697.00647 Z m -535.04014,92.49276 h 141.04453 v 52.85056 H 161.96633 Z m 177.42802,0 h 141.04452 v 52.85056 H 339.39435 Z m 179.26539,0 h 141.94591 v 52.85056 H 518.65974 Z m 178.34673,0 h 141.02719 v 52.85056 H 697.00647 Z"
       id="path2442"
       sodipodi:nodetypes="csccccccccccccccccccccccccccccccccccccccsccscccccccccccccccccccccccccccccccccccccccccccccccccccccccccc" />
    <path
       style="fill:#000000;stroke:none;stroke-width:0.604392"
       d="m 33.44238,0 c 5.38134,85.428767 37.44516,175.45409 96.19145,270.07598 52.70686,84.57148 123.05704,170.93415 211.05052,259.08803 l 44.95958,-2.51721 C 270.92083,405.24176 194.66514,307.16169 156.87686,232.4066 115.61992,150.78962 92.637121,97.312558 87.928454,71.975418 v 0 L 501.95526,304.04569 519.44461,273.10298 Z"
       id="path1-7"
       sodipodi:nodetypes="ccccsscccc" />
    <path
       sodipodi:nodetypes="zcccczzccz"
       id="path2188"
       d="m 781.86438,129.44351 c -20.66233,0 -196.84166,3.75654 -196.84166,185.43055 v 14.26389 h 393.68335 v -14.26389 c 0,-178.5492 -176.17937,-185.43055 -196.84169,-185.43055 z m 0,27.10138 c 24.49647,0 164.17348,6.33273 168.31389,145.49168 H 614.97688 c 4.15365,-139.52549 142.39104,-145.49168 166.8875,-145.49168 z"
       style="display:inline;opacity:0.994152;fill:#000000;fill-opacity:1;fill-rule:nonzero;stroke:none;stroke-width:27.3867;stroke-linecap:butt;stroke-linejoin:miter;stroke-miterlimit:4;stroke-opacity:1" />
  </g>
</svg>
