<?xml version="1.0" encoding="UTF-8" standalone="no"?>
<svg
   width="584.18079"
   height="1000"
   version="1.1"
   id="svg1"
   sodipodi:docname="13271.svg"
   inkscape:version="1.4.3 (0d15f75, 2025-12-25)"
   xml:space="preserve"
   xmlns:inkscape="http://www.inkscape.org/namespaces/inkscape"
   xmlns:sodipodi="http://sodipodi.sourceforge.net/DTD/sodipodi-0.dtd"
   xmlns:xlink="http://www.w3.org/1999/xlink"
   xmlns="http://www.w3.org/2000/svg"
   xmlns:svg="http://www.w3.org/2000/svg"><defs
     id="defs1" /><sodipodi:namedview
     id="namedview1"
     pagecolor="#ffffff"
     bordercolor="#666666"
     borderopacity="1.0"
     inkscape:showpageshadow="2"
     inkscape:pageopacity="0.0"
     inkscape:pagecheckerboard="0"
     inkscape:deskcolor="#d1d1d1"
     inkscape:zoom="0.3775"
     inkscape:cx="271.52318"
     inkscape:cy="589.40397"
     inkscape:window-width="1680"
     inkscape:window-height="998"
     inkscape:window-x="-8"
     inkscape:window-y="-8"
     inkscape:window-maximized="1"
     inkscape:current-layer="svg1"
     showguides="true"><sodipodi:guide
       position="292.09039,500.00002"
       orientation="1,0"
       id="guide1"
       inkscape:locked="false" /></sodipodi:namedview><path
     id="path1"
     style="fill:#000000;stroke:none;stroke-width:55.6253"
     d="m -45.383021,0 c -16.572495,0 -24.859375,6.0254117 -24.859375,18.078125 0,12.806029 8.28688,19.210937 24.859375,19.210937 h 22.597656 C -3.1996815,69.680775 9.2306375,107.34533 14.503698,150.2832 L -9.2248175,870.05664 C -11.48469,892.65547 -20.336947,914.68927 -35.779505,936.1582 -51.222065,957.62714 -58.565986,978.90772 -57.812708,1000 H 292.08984 V 971.75195 H -4.7052865 c 3.766467,-17.32577 13.559691,-30.88492 29.3789065,-40.67773 h 267.41622 v -36.1582 h -67.23046 l 10.16796,-393.22071 h 57.0625 v -29.3789 H 205.65039 L 192.08984,894.91602 H 30.322054 L 55.181434,151.41211 H 292.08984 V 105.08398 H 54.050574 L 31.452914,37.289062 H 292.08984 V 0 Z"
     sodipodi:nodetypes="ssscccscccccccccccccccccccccs" /><use
     x="0"
     y="0"
     xlink:href="#path1"
     id="use1"
     transform="matrix(-1,0,0,1,584.18023,0)" /></svg>
