<?xml version="1.0" encoding="UTF-8" standalone="no"?>
<svg
   width="650"
   height="1000"
   version="1.1"
   id="svg1"
   sodipodi:docname="132BC.svg"
   inkscape:version="1.4.3 (0d15f75, 2025-12-25)"
   xmlns:inkscape="http://www.inkscape.org/namespaces/inkscape"
   xmlns:sodipodi="http://sodipodi.sourceforge.net/DTD/sodipodi-0.dtd"
   xmlns:xlink="http://www.w3.org/1999/xlink"
   xmlns="http://www.w3.org/2000/svg"
   xmlns:svg="http://www.w3.org/2000/svg">
  <defs
     id="defs1" />
  <sodipodi:namedview
     id="namedview1"
     pagecolor="#ffffff"
     bordercolor="#666666"
     borderopacity="1.0"
     inkscape:showpageshadow="2"
     inkscape:pageopacity="0.0"
     inkscape:pagecheckerboard="0"
     inkscape:deskcolor="#d1d1d1"
     inkscape:zoom="0.70710678"
     inkscape:cx="222.73864"
     inkscape:cy="815.29412"
     inkscape:window-width="1680"
     inkscape:window-height="998"
     inkscape:window-x="-8"
     inkscape:window-y="-8"
     inkscape:window-maximized="1"
     inkscape:current-layer="svg1"
     showguides="true">
    <sodipodi:guide
       position="360.40234,379.86523"
       orientation="0,-1"
       id="guide1"
       inkscape:locked="false" />
    <sodipodi:guide
       position="329.53282,360.95661"
       orientation="1,0"
       id="guide2"
       inkscape:locked="false" />
    <sodipodi:guide
       position="360.40039,344.27148"
       orientation="0,-1"
       id="guide3"
       inkscape:locked="false" />
    <sodipodi:guide
       position="309.22725,241.13867"
       orientation="-0.95946545,0.28182626"
       id="guide11"
       inkscape:locked="false" />
  </sodipodi:namedview>
  <path
     id="path6"
     style="fill:#000000;stroke:none;stroke-width:0.999998"
     d="M 309.79102 0 C 269.74652 7.41565 209.67884 11.123047 129.58984 11.123047 L -5.0039062 11.123047 L -5.0039062 191.87891 L 129.58984 191.87891 C 203.67911 191.87891 256.59006 199.30949 298.66602 254.72656 L 298.66602 620.13477 L 360.40234 620.13477 L 360.40234 0 L 309.79102 0 z M 42.826172 50.611328 L 309.79102 50.611328 L 309.79102 196.88477 C 289.02721 167.22217 228.95953 152.39062 129.58984 152.39062 L 42.826172 152.39062 L 42.826172 50.611328 z " />
  <path
     id="path6-1"
     style="fill:#000000;stroke:none;stroke-width:0.999998"
     d="M 220.73047 620.13477 L 104.13281 1000 L 329.5332 1000 L 329.5332 963.85352 L 160.66406 964.40625 L 252.43359 655.72852 L 329.5332 655.72852 L 329.5332 620.13477 L 220.73047 620.13477 z " />
  <path
     style="fill:#1a5fb4;stroke:none;stroke-width:1"
     d="m 244.76827,681.51172 38.68359,77.34961 -64.06095,218.09276 23.72815,6.96974 66.10819,-225.0625 -51.56445,-103.13281 -12.89453,-3.07226 z"
     id="path3"
     sodipodi:nodetypes="cccccccc" />
  <use
     x="0"
     y="0"
     xlink:href="#path6-1"
     id="use12"
     transform="matrix(-1,0,0,1,659.06738,0)" />
  <use
     x="0"
     y="0"
     xlink:href="#path3"
     id="use11"
     transform="matrix(-1,0,0,1,659.06738,0)" />
</svg>
