<?xml version="1.0" encoding="UTF-8" standalone="no"?>
<svg
   width="300"
   height="1000"
   version="1.1"
   id="svg1"
   sodipodi:docname="132C6.svg"
   inkscape:version="1.4.2 (f4327f4, 2025-05-13)"
   xmlns:inkscape="http://www.inkscape.org/namespaces/inkscape"
   xmlns:sodipodi="http://sodipodi.sourceforge.net/DTD/sodipodi-0.dtd"
   xmlns:xlink="http://www.w3.org/1999/xlink"
   xmlns="http://www.w3.org/2000/svg"
   xmlns:svg="http://www.w3.org/2000/svg">
  <defs
     id="defs1" />
  <sodipodi:namedview
     id="namedview1"
     pagecolor="#ffffff"
     bordercolor="#666666"
     borderopacity="1.0"
     inkscape:showpageshadow="2"
     inkscape:pageopacity="0.0"
     inkscape:pagecheckerboard="0"
     inkscape:deskcolor="#d1d1d1"
     inkscape:zoom="0.3775"
     inkscape:cx="290.06623"
     inkscape:cy="573.50993"
     inkscape:window-width="1680"
     inkscape:window-height="998"
     inkscape:window-x="-8"
     inkscape:window-y="-8"
     inkscape:window-maximized="1"
     inkscape:current-layer="svg1"
     showguides="true">
    <sodipodi:guide
       position="0,1000"
       orientation="0,-1"
       id="guide1"
       inkscape:locked="false" />
    <sodipodi:guide
       position="0,0"
       orientation="0,-1"
       id="guide2"
       inkscape:locked="false" />
    <sodipodi:guide
       position="-48.701394,323.79987"
       orientation="0,-1"
       id="guide7"
       inkscape:locked="false" />
    <sodipodi:guide
       position="145.16211,261.95703"
       orientation="0,-1"
       id="guide8"
       inkscape:locked="false" />
    <sodipodi:guide
       position="169.95196,756.56707"
       orientation="1,0"
       id="guide9"
       inkscape:locked="false" />
    <sodipodi:guide
       position="145.16016,171.22656"
       orientation="0,-1"
       id="guide10"
       inkscape:locked="false" />
    <sodipodi:guide
       position="149.12084,787.90457"
       orientation="0,-1"
       id="guide11"
       inkscape:locked="false" />
    <sodipodi:guide
       position="221.54983,764.39731"
       orientation="1,0"
       id="guide12"
       inkscape:locked="false" />
    <sodipodi:guide
       position="195.7509,171.22656"
       orientation="1,0"
       id="guide13"
       inkscape:locked="false" />
  </sodipodi:namedview>
  <path
     id="path13"
     style="fill:#000000;stroke:none;stroke-width:67.4125"
     d="m 169.95196,828.77344 c -38.6498,10.33656 -64.19717,35.95075 -64.19717,76.84765 0,14.83073 3.81892,34.38193 11.45899,58.65039 7.64008,23.81906 23.0767,35.72852 52.73818,35.72852 -13.48248,-48.08752 -17.00771,-78.64665 -17.00771,-91.67969 0,-22.04065 14.26992,-33.27331 42.80665,-33.69531 v -45.85156 z"
     sodipodi:nodetypes="csccsccc" />
  <path
     style="fill:#000000;stroke:none;stroke-width:67.4125"
     d="M 189.6543,30.55889 C 179.64318,85.063896 160.36273,123.62477 131.8125,146.24248 103.63304,168.86021 85.279945,193.51686 76.751953,220.21319 68.22396,247.28031 42.639971,300.11709 0,378.72295 c 24.471635,11.12347 43.937925,2.41157 58.398438,-26.13867 14.831293,-28.55024 27.252548,-45.97795 37.263671,-52.28125 10.011121,-6.3033 21.319181,-19.83775 33.925781,-40.60156 6.77899,-11.36478 13.29024,-17.04688 19.5332,-17.04688 9.18202,10e-6 20.83008,15.50023 20.83008,31.33789 0,12.59229 7.9e-4,431.20842 7.9e-4,554.78096 h 51.59787 l 9.5e-4,-562.61103 c 3e-5,-15.73765 -28.37875,-25.8323 -46.08362,-43.47261 -8.74176,-8.70987 2.8247,-29.70586 -13.06482,-33.62114 15.94364,-16.6852 31.33082,-42.64092 46.16211,-77.86524 15.20212,-35.224322 8.89853,-62.105413 -18.91015,-80.64453 z"
     id="path7"
     sodipodi:nodetypes="cccccscssccssccc" />
  <use
     x="0"
     y="0"
     xlink:href="#path13"
     id="use13"
     transform="matrix(-1,0,0,1,391.5018,0)" />
  <path
     style="fill:#000000;stroke:none;stroke-width:55.6083"
     d="m 378.83007,-0.159856 c -13.48932,-0.217225 -29.09715,8.362671 -46.82226,25.740234 l -169.60547,163.488282 8.39957,51.77387 50.74792,36.08716 c 23.72616,72.66137 38.92663,144.02547 45.59961,214.09179 4.07794,23.35544 20.01818,32.43815 47.82226,27.24805 28.17481,-5.19009 40.22247,-19.27895 36.14454,-42.26367 -4.07793,-20.38967 -8.52633,-37.44152 -13.34571,-51.15821 17.05317,3.33649 30.58427,-1.66965 40.59375,-15.01562 10.3802,-13.71669 11.49376,-27.8036 3.33789,-42.26172 -24.4676,-43.00367 -60.98433,-82.29942 -109.54882,-117.88867 -48.19376,-35.21852 -76.75709,-46.34049 -96.40532,-33.36524 9.63875,-7.41443 23.17181,-13.16035 40.59571,-17.23828 17.05318,-4.07793 41.33439,6.11639 72.8457,30.58399 L 374.82616,95.089842 c 17.05318,4.07793 31.14008,1.113 42.26172,-8.896482 10.75091,-10.009471 16.12695,-21.317352 16.12695,-33.921876 0,-12.97524 -5.00419,-24.467083 -15.01367,-34.476562 C 407.82097,7.785453 395.5874,1.853609 381.49999,0 c -0.88047,-0.09268 -1.77063,-0.145674 -2.66993,-0.160156 z m 3.92969,24.236328 c 5.92575,-0.01738 11.25182,2.337761 15.97852,7.064453 12.60453,12.604523 15.19958,24.098319 7.78515,34.478516 C 399.109,75.62892 385.20606,77.852132 364.8164,72.291316 L 283.07226,190.73663 C 262.6826,175.16633 239.88287,168.12288 214.67383,169.60577 L 348.13476,43.931941 c 13.20695,-13.206945 24.74876,-19.826503 34.625,-19.855469 z M 221.54984,229.66241 c 67.84199,56.72035 113.81131,106.39634 137.9082,149.02929 4.07793,9.63875 1.29697,17.05406 -8.34179,22.24414 -9.63875,5.1901 -17.79382,2.96494 -24.4668,-6.67382 -18.53607,-58.57395 -53.56936,-112.69835 -105.09961,-162.375 z m 0,19.46289 c 56.34963,76.36857 91.01304,151.25539 103.98828,224.6582 2.22433,13.71668 -2.96579,21.68583 -15.57031,23.91016 -12.60453,1.85361 -19.2781,-2.96467 -20.01953,-14.45703 -7.41443,-88.60238 -30.21415,-164.60079 -68.39844,-227.99414 z"
     id="path1"
     sodipodi:nodetypes="cccccccccccccccccsccccsscccccsccsccccccccc" />
</svg>
