<?xml version="1.0" encoding="UTF-8" standalone="no"?>
<svg
   width="759.45044"
   height="1000"
   id="svg2891"
   sodipodi:version="0.32"
   inkscape:version="1.4.3 (0d15f75, 2025-12-25)"
   sodipodi:docname="1330D.svg"
   version="1.1"
   xmlns:inkscape="http://www.inkscape.org/namespaces/inkscape"
   xmlns:sodipodi="http://sodipodi.sourceforge.net/DTD/sodipodi-0.dtd"
   xmlns:xlink="http://www.w3.org/1999/xlink"
   xmlns="http://www.w3.org/2000/svg"
   xmlns:svg="http://www.w3.org/2000/svg"
   xmlns:rdf="http://www.w3.org/1999/02/22-rdf-syntax-ns#"
   xmlns:cc="http://creativecommons.org/ns#"
   xmlns:dc="http://purl.org/dc/elements/1.1/">
  <metadata
     id="metadata2898">
    <rdf:RDF>
      <cc:Work
         rdf:about="">
        <dc:format>image/svg+xml</dc:format>
        <dc:type
           rdf:resource="http://purl.org/dc/dcmitype/StillImage" />
        <cc:license
           rdf:resource="http://creativecommons.org/licenses/GPL/2.0/" />
        <dc:date>2/12/2006
</dc:date>
        <dc:publisher>
          <cc:Agent>
            <dc:title>Serge Rosmorduc</dc:title>
          </cc:Agent>
        </dc:publisher>
        <dc:creator>
          <cc:Agent>
            <dc:title>Serge Thomas</dc:title>
          </cc:Agent>
        </dc:creator>
        <dc:description>réfection-optimisation du signe  qui avait une discrète asymétrie au niveau de la tête de la massue ! j'ai donc déconstruit et reconstruit  après avoir bien harmonisé l'ovale de la tête de l'engin</dc:description>
      </cc:Work>
      <cc:License
         rdf:about="http://creativecommons.org/licenses/GPL/2.0/">
        <cc:permits
           rdf:resource="http://web.resource.org/cc/Reproduction" />
        <cc:permits
           rdf:resource="http://web.resource.org/cc/Distribution" />
        <cc:requires
           rdf:resource="http://web.resource.org/cc/Notice" />
        <cc:permits
           rdf:resource="http://web.resource.org/cc/DerivativeWorks" />
        <cc:requires
           rdf:resource="http://web.resource.org/cc/ShareAlike" />
        <cc:requires
           rdf:resource="http://web.resource.org/cc/SourceCode" />
      </cc:License>
    </rdf:RDF>
  </metadata>
  <defs
     id="defs2896" />
  <sodipodi:namedview
     inkscape:window-height="998"
     inkscape:window-width="1680"
     inkscape:pageshadow="2"
     inkscape:pageopacity="0.0"
     guidetolerance="10.0"
     gridtolerance="10.0"
     objecttolerance="10.0"
     borderopacity="1.0"
     bordercolor="#666666"
     pagecolor="#ffffff"
     id="base"
     inkscape:zoom="0.3775"
     inkscape:cx="626.49007"
     inkscape:cy="600"
     inkscape:window-x="-8"
     inkscape:window-y="-8"
     inkscape:current-layer="svg2891"
     inkscape:showpageshadow="2"
     inkscape:pagecheckerboard="0"
     inkscape:deskcolor="#d1d1d1"
     inkscape:window-maximized="1"
     showguides="true">
    <sodipodi:guide
       position="0,788.76499"
       orientation="1,0"
       id="guide17"
       inkscape:locked="false" />
    <sodipodi:guide
       position="390.8639,29.15676"
       orientation="0,-1"
       id="guide1"
       inkscape:locked="false" />
  </sodipodi:namedview>
  <use
     x="0"
     y="0"
     xlink:href="#path1-8"
     id="use1"
     transform="matrix(-1,0,0,1,872.11264,0)" />
  <path
     id="path1-8"
     style="display:inline;fill:#000000;stroke:none;stroke-width:1"
     d="M 392.27989,9.3177487e-8 V 44.292705 c -40.14672,9.660769 -72.70929,40.822197 -70.22461,144.706215 1.48222,61.97284 38.42741,124.33576 78.8676,141.29902 l -0.65447,26.43515 -9.33615,615.02267 h 45.12406 v -30.3939 h -14.10756 l 1.34754,-57.98466 12.76002,-0.16131 v -30.45658 l -12.13752,0.12147 0.62261,-29.35762 11.51491,0.15937 v -30.58941 l -10.78804,0.0398 0.41377,-18.98335 10.37427,-0.0398 v -30.3902 l -9.75176,0.0398 0.62251,-26.97574 9.12925,0.0398 v -17.0513 h -9.64739 l 9.64739,-361.91829 v -32.17036 c -0.48393,0.01 -0.96971,0.0136 -1.45384,0.0136 -8.65416,0 -17.36926,-1.4035 -24.99803,-4.56453 -25.20054,-11.32066 -56.84586,-68.14777 -56.84586,-112.0309 0,-71.26993 11.06237,-100.606936 40.24818,-113.480999 9.42593,-3.63219 19.67057,-2.561286 29.5645,-2.697001 V 30.394227 h 13.48505 V 9.3177487e-8 Z"
     sodipodi:nodetypes="ccsccccccccccccccccccccccccscscccccc" />
  <path
     style="fill:#f9f06b;stroke:none;stroke-width:1px;stroke-linecap:butt;stroke-linejoin:miter;stroke-opacity:1"
     d="m 357.76793,342.78289 5.15111,52.44766 147.50903,1.87313 4.21455,-55.72564 z"
     id="path29" />
  <path
     style="fill:#f9f06b;stroke:none;stroke-width:1px;stroke-linecap:butt;stroke-linejoin:miter;stroke-opacity:1"
     d="m 376.03096,523.07171 0.93656,40.2723 113.79268,11.23879 9.36566,-44.48686 z"
     id="path30" />
  <path
     id="path2893"
     style="fill:#1a5fb4;stroke:none;stroke-width:1"
     d="m 79.858282,174.51964 c -24.230438,1.18118 -48.558827,8.63477 -69.538406,20.83043 -21.90952,12.73641 -4.3588952,37.50177 10.467033,48.39708 13.651486,10.03286 28.93653,19.37956 46.117126,19.37956 11.292858,0 28.529843,-6.63256 44.977155,-6.63256 6.21881,0 10.82439,1.26115 11.2961,4.87081 3.8834,29.71743 -28.755702,66.14028 -15.02692,100.1104 23.96947,59.3094 59.85502,55.91328 108.50478,57.41325 61.00714,0 121.79437,-11.28035 182.81037,-11.71064 24.49216,-0.17298 48.98433,-0.34542 73.4765,-0.5184 123.35299,-0.86993 185.92741,76.07907 201.04995,118.86819 15.71862,44.47488 27.09025,90.99746 23.11039,138.35139 -4.78872,56.9776 -13.16471,114.50919 -8.49803,171.51427 4.11644,50.28468 21.5434,99.0087 33.47381,147.78206 2.78674,11.39407 10.88841,17.09962 18.44684,17.09962 8.2601,0 15.88343,-6.80634 15.33786,-20.41591 -2.47793,-62.83994 -16.99765,-116.55568 -15.33786,-174.51967 1.4268,-49.81711 14.26539,-97.71232 17.20325,-147.67843 7.82034,-133.00317 0.31837,-332.57713 -274.52644,-330.28131 0,0 -57.90175,0.14167 -86.84529,0.72545 -76.74311,2.57088 -153.14103,6.98366 -229.7564,1.8654 8.70719,-31.00873 25.43322,-58.03233 21.55587,-90.36885 -3.06447,-25.55407 -31.08169,-35.13032 -52.33533,-40.93542 -19.83258,-5.41685 -33.20396,-24.14672 -54.200576,-24.14672 -0.572205,0 -1.178104,-0.0284 -1.761782,0 z m -0.829072,26.84121 c 0.382037,0 0.688833,0.0711 0.829072,0.10347 16.690961,3.84254 29.810978,17.86457 47.153468,22.69584 14.59374,4.06604 38.58421,9.52312 33.57741,30.88293 -6.68123,28.50309 -25.80214,56.08048 -19.79408,85.91258 3.7595,18.66662 24.53489,20.31226 41.34995,20.31226 62.37815,0 157.02661,-3.72055 218.04592,-4.87064 23.76342,-0.44783 47.53308,-0.7802 71.30019,-0.62182 106.17222,0.70746 170.70718,14.93205 214.52235,74.20194 75.87899,102.64392 49.96515,205.34246 31.09022,334.94511 C 722.38642,688.4503 747.73634,568.00883 669.12116,463.96936 618.43953,396.8962 533.71719,381.25381 472.21658,381.16583 l -72.44016,-0.10364 c -72.17447,-0.10326 -150.44524,10.46704 -199.0809,10.46703 -42.76319,0 -72.50486,-14.3837 -68.9166,-56.06599 2.57115,-29.86643 26.14544,-57.61829 17.30687,-87.77799 -3.93137,-13.41547 -15.66785,-16.4778 -28.39571,-16.4778 -9.94433,0 -39.867494,3.62717 -50.884294,3.62717 -10.53237,0 -20.66969,-2.05069 -30.468392,-10.6743 -18.660141,-16.42297 32.213513,-22.79946 39.691816,-22.79946 z m 30.26113,202.60445 c -19.255602,0.85306 -38.564801,6.21961 -55.23692,15.02693 -17.411197,9.19785 -3.387586,27.05646 8.394352,34.92466 10.848617,7.24542 23.033252,13.99059 36.686436,13.99059 10.023182,0 22.505772,-4.76718 35.650092,-4.76718 2.72196,0 8.46011,0.37673 8.91239,3.52354 3.08474,21.46124 -22.07211,47.43438 -11.9179,72.23292 8.32616,20.33495 27.3731,38.85124 52.85333,40.52084 74.59679,4.88954 135.33726,-8.60414 212.34607,-8.60414 26.08779,0 54.75153,2.74641 80.93815,10.05254 61.14915,17.0602 94.08195,52.18744 103.53035,76.48187 12.49126,32.11849 21.50594,65.80927 18.34321,100.00682 -3.80551,41.14734 -10.44488,82.67532 -6.73621,123.84261 3.27119,36.31382 17.15312,71.52044 26.63393,106.74302 2.21475,8.22837 8.6059,12.33248 14.61242,12.33238 6.56423,0 12.66238,-4.88739 12.22882,-14.71597 -1.96908,-45.38109 -13.44418,-84.1591 -12.1252,-126.01893 1.13391,-35.97626 11.24148,-70.65916 13.57609,-106.74303 2.70715,-41.83897 15.53567,-182.72326 -110.05931,-223.74576 -19.93457,-7.0854 -40.82973,-11.24366 -61.76581,-12.01906 l -78.34725,-2.90172 c -72.17925,-2.67327 -147.93668,9.17132 -219.4968,2.07266 6.91948,-22.39072 20.18089,-41.93699 17.0996,-65.28939 -2.435,-18.45437 -24.6674,-25.34347 -41.55722,-29.53569 -15.76065,-3.91195 -26.42615,-17.4105 -43.11175,-17.41051 -0.45472,0 -0.98708,-0.0205 -1.45087,0 z m -0.62181,19.37956 h 0.62188 c 13.26398,2.77496 23.7337,12.98886 37.5155,16.4778 11.5974,2.93638 30.71637,6.85596 26.73756,22.28131 -5.30945,20.58401 -20.63049,40.42941 -15.85599,61.97313 2.98763,13.48062 19.59277,14.71603 32.95561,14.71603 2.22382,0 4.35144,-0.0902 6.32167,-0.10612 81.27167,-0.57995 147.00359,-5.51602 200.53178,-3.83469 l 79.17637,2.48695 c 52.51847,1.64966 88.09922,18.74568 114.41192,51.09158 60.29977,74.12614 39.66455,148.28677 24.6649,241.88175 4.19816,-55.22579 24.33694,-142.18655 -38.13731,-217.32053 -23.82898,-28.65474 -62.09187,-44.77906 -100.21414,-51.71037 -25.79466,-4.68992 -53.31851,-8.56382 -80.21271,-8.70528 -79.65549,-0.41902 -184.03725,12.4703 -218.14957,6.52879 -17.51665,-3.04685 -29.93647,-22.70113 -28.3957,-38.9662 2.04326,-21.56861 20.70358,-41.53995 13.67969,-63.32037 -3.12416,-9.68823 -12.37395,-11.91791 -22.48858,-11.91791 -7.23874,0 -14.923,1.16786 -21.0377,1.45089 -6.59888,0.30509 -13.04708,1.13995 -19.37956,1.13995 -8.369926,0 -16.463493,-1.54486 -24.250349,-7.77255 -14.828794,-11.8602 25.561679,-16.37416 31.504729,-16.37416 z"
     sodipodi:nodetypes="cccsscsssscsscsccssscccscsccscssscccsssccsscsscsssscsssscssccsscssssscsscsssccsscscssscscscss" />
  <path
     id="path20"
     style="fill:#26a269;stroke:none;stroke-width:0.999998"
     d="M 105.78906 428.50781 C 98.329379 428.50781 79.993006 436.53917 97.1875 436.60938 C 99.99546 436.62117 106.19215 437.38477 110.7832 437.38477 C 116.25884 437.38477 119.45053 436.29879 111.88086 431.55469 C 110.04855 430.40609 108.39236 428.57541 106.05273 428.51172 L 105.78906 428.50781 z " />
  <path
     style="fill:#000000;stroke:none;stroke-width:0.999998"
     d="m 397.05177,552.33417 v 0 c 0,0 0,0 0,0 5e-5,0 5e-5,0 1e-4,0 z"
     id="path19" />
  <path
     id="path17"
     style="fill:#26a269;stroke:none;stroke-width:0.999998"
     d="m 75.410156,208.73047 c -9.388114,0.001 -32.457883,11.12149 -10.822265,11.21875 3.533404,0.0162 11.330333,1.07226 17.107421,1.07226 6.890367,0 10.906245,-1.50296 1.38086,-8.07226 -2.305628,-1.59047 -4.387977,-4.12504 -7.332031,-4.21289 -0.179174,-0.005 -0.259414,-0.006 -0.333985,-0.006 z"
     sodipodi:nodetypes="scscsss" />
</svg>
