<?xml version="1.0" encoding="UTF-8" standalone="no"?>
<svg
   width="300"
   height="1000"
   version="1.1"
   id="svg1"
   sodipodi:docname="13301.svg"
   inkscape:version="1.4.2 (f4327f4, 2025-05-13)"
   xmlns:inkscape="http://www.inkscape.org/namespaces/inkscape"
   xmlns:sodipodi="http://sodipodi.sourceforge.net/DTD/sodipodi-0.dtd"
   xmlns:xlink="http://www.w3.org/1999/xlink"
   xmlns="http://www.w3.org/2000/svg"
   xmlns:svg="http://www.w3.org/2000/svg">
  <defs
     id="defs1" />
  <sodipodi:namedview
     id="namedview1"
     pagecolor="#ffffff"
     bordercolor="#666666"
     borderopacity="1.0"
     inkscape:showpageshadow="2"
     inkscape:pageopacity="0.0"
     inkscape:pagecheckerboard="0"
     inkscape:deskcolor="#d1d1d1"
     inkscape:zoom="0.53386562"
     inkscape:cx="574.11451"
     inkscape:cy="879.43479"
     inkscape:window-width="1680"
     inkscape:window-height="998"
     inkscape:window-x="-8"
     inkscape:window-y="-8"
     inkscape:window-maximized="1"
     inkscape:current-layer="svg1"
     showguides="true">
    <sodipodi:guide
       position="0,1000"
       orientation="0,-1"
       id="guide1"
       inkscape:locked="false" />
    <sodipodi:guide
       position="0,0"
       orientation="0,-1"
       id="guide2"
       inkscape:locked="false" />
    <sodipodi:guide
       position="-48.701394,323.79987"
       orientation="0,-1"
       id="guide7"
       inkscape:locked="false" />
    <sodipodi:guide
       position="145.16211,261.95703"
       orientation="0,-1"
       id="guide8"
       inkscape:locked="false" />
    <sodipodi:guide
       position="174.63867,176.02832"
       orientation="1,0"
       id="guide9"
       inkscape:locked="false" />
    <sodipodi:guide
       position="152.62101,186.75479"
       orientation="0,-1"
       id="guide10"
       inkscape:locked="false" />
    <sodipodi:guide
       position="145.16016,171.22656"
       orientation="0,-1"
       id="guide3"
       inkscape:locked="false" />
  </sodipodi:namedview>
  <path
     style="fill:#000000;stroke:none;stroke-width:55.6174"
     d="M 189.6543,0 C 179.64318,54.505006 160.36273,93.065872 131.8125,115.68359 103.63304,138.30132 85.279945,162.95797 76.751953,189.6543 68.22396,216.72142 42.639971,269.5582 0,348.16406 c 24.471635,11.12347 43.937926,2.41157 58.398438,-26.13867 14.831295,-28.55024 27.252548,-45.97795 37.263671,-52.28125 10.011121,-6.3033 21.319181,-19.83775 33.925781,-40.60156 12.6066,-21.13459 24.28638,-22.61755 35.03906,-4.44922 11.12347,17.79756 4.81993,41.1571 -18.91015,70.07812 -23.35928,28.92102 -23.91491,58.02851 -1.66797,87.32032 22.24694,29.66259 22.43279,58.95398 0.55664,87.875 -21.87616,28.92102 -21.87616,58.21241 0,87.875 11.91902,16.16138 17.2889,32.04765 16.10979,47.65874 -0.98503,13.04148 -6.54053,25.89092 -16.66643,38.54829 -22.24694,27.43788 -21.87522,58.76983 1.11328,93.99414 l 58.39648,0 c -22.61772,-35.22431 -22.80162,-66.55626 -0.55468,-93.99414 22.24694,-27.80867 21.87521,-56.35857 -1.11329,-85.65039 -22.98849,-29.29181 -22.98849,-58.58319 0,-87.875 22.9885,-29.2918 23.36023,-58.76905 1.11329,-88.43164 -22.24694,-29.29181 -22.98842,-58.3993 -2.22461,-87.32032 20.39303,-28.92102 25.76923,-58.02656 16.1289,-87.31836 -9.64034,-29.29181 -27.80953,-45.6063 -54.50586,-48.94335 15.94364,-16.6852 31.33082,-42.64092 46.16211,-77.865239 C 223.76653,45.420208 217.46298,18.539117 189.6543,0 Z"
     id="path1"
     sodipodi:nodetypes="cccccsccccsssccccssccsccc" />
  <path
     style="fill:#000000;stroke:none;stroke-width:55.6174"
     d="m 145.71777,737.76465 c 19.07539,25.86493 21.37627,51.02519 6.90324,75.48056 -2.12502,3.59069 -7.45988,10.64288 -7.45988,15.52779 h 58.95508 c 0,-5.55019 5.32993,-11.94013 7.43784,-15.52779 14.34249,-24.41098 11.4917,-49.38547 -8.55112,-74.92392 z"
     id="path9"
     sodipodi:nodetypes="csccscc" />
  <path
     id="path13"
     style="fill:#000000;stroke:none;stroke-width:67.4125"
     d="m 145.16113,828.77287 c -38.6498,10.33656 -60.51857,35.95132 -60.51857,76.84822 0,14.83073 3.81892,34.38193 11.45899,58.65039 7.64008,23.81906 23.0767,35.72852 52.73818,35.72852 -13.48248,-48.08752 -17.00771,-78.64665 -17.00771,-91.67969 0,-22.04065 14.26992,-33.27331 42.80665,-33.69531 v -45.85156 z"
     sodipodi:nodetypes="csccsccc" />
  <use
     x="0"
     y="0"
     xlink:href="#path13"
     id="use5"
     transform="matrix(-1,0,0,1,349.27734,0)" />
</svg>
