<?xml version="1.0" encoding="UTF-8" standalone="no"?>
<svg
   width="300"
   height="1000"
   version="1.1"
   id="svg1"
   sodipodi:docname="13300.svg"
   inkscape:version="1.4.2 (f4327f4, 2025-05-13)"
   xmlns:inkscape="http://www.inkscape.org/namespaces/inkscape"
   xmlns:sodipodi="http://sodipodi.sourceforge.net/DTD/sodipodi-0.dtd"
   xmlns:xlink="http://www.w3.org/1999/xlink"
   xmlns="http://www.w3.org/2000/svg"
   xmlns:svg="http://www.w3.org/2000/svg">
  <defs
     id="defs1" />
  <sodipodi:namedview
     id="namedview1"
     pagecolor="#ffffff"
     bordercolor="#666666"
     borderopacity="1.0"
     inkscape:showpageshadow="2"
     inkscape:pageopacity="0.0"
     inkscape:pagecheckerboard="0"
     inkscape:deskcolor="#d1d1d1"
     inkscape:zoom="3.02"
     inkscape:cx="138.24503"
     inkscape:cy="916.39073"
     inkscape:window-width="1680"
     inkscape:window-height="998"
     inkscape:window-x="-8"
     inkscape:window-y="-8"
     inkscape:window-maximized="1"
     inkscape:current-layer="svg1"
     showguides="true">
    <sodipodi:guide
       position="0,1000"
       orientation="0,-1"
       id="guide1"
       inkscape:locked="false" />
    <sodipodi:guide
       position="0,0"
       orientation="0,-1"
       id="guide2"
       inkscape:locked="false" />
    <sodipodi:guide
       position="-48.701394,323.79987"
       orientation="0,-1"
       id="guide7"
       inkscape:locked="false" />
    <sodipodi:guide
       position="145.16211,261.95703"
       orientation="0,-1"
       id="guide8"
       inkscape:locked="false" />
    <sodipodi:guide
       position="169.95196,756.56707"
       orientation="1,0"
       id="guide9"
       inkscape:locked="false" />
    <sodipodi:guide
       position="145.16016,171.22656"
       orientation="0,-1"
       id="guide10"
       inkscape:locked="false" />
    <sodipodi:guide
       position="149.12084,787.90457"
       orientation="0,-1"
       id="guide11"
       inkscape:locked="false" />
    <sodipodi:guide
       position="221.54983,764.39731"
       orientation="1,0"
       id="guide12"
       inkscape:locked="false" />
    <sodipodi:guide
       position="195.7509,171.22656"
       orientation="1,0"
       id="guide13"
       inkscape:locked="false" />
  </sodipodi:namedview>
  <path
     id="path13"
     style="fill:#000000;stroke:none;stroke-width:67.4125"
     d="m 169.95196,828.77344 c -38.6498,10.33656 -64.19717,35.95075 -64.19717,76.84765 0,14.83073 3.81892,34.38193 11.45899,58.65039 7.64008,23.81906 23.0767,35.72852 52.73818,35.72852 -13.48248,-48.08752 -17.00771,-78.64665 -17.00771,-91.67969 0,-22.04065 14.26992,-33.27331 42.80665,-33.69531 v -45.85156 z"
     sodipodi:nodetypes="csccsccc" />
  <path
     style="fill:#000000;stroke:none;stroke-width:67.4125"
     d="M 189.6543,0 C 179.64318,54.505006 160.36273,93.06588 131.8125,115.68359 103.63304,138.30132 85.279945,162.95797 76.751953,189.6543 68.22396,216.72142 42.639971,269.5582 0,348.16406 c 24.471635,11.12347 43.937925,2.41157 58.398438,-26.13867 14.831293,-28.55024 27.252548,-45.97795 37.263671,-52.28125 10.011121,-6.3033 21.319181,-19.83775 33.925781,-40.60156 6.77899,-11.36478 13.29024,-17.04688 19.5332,-17.04688 9.18202,1e-5 20.83008,15.50023 20.83008,31.33789 0,12.59229 7.9e-4,461.76731 7.9e-4,585.33985 h 51.59787 l 9.5e-4,-593.16992 c 4e-5,-23.50809 -11.07751,-65.24877 -59.14844,-77.09375 15.94364,-16.6852 31.33082,-42.64092 46.16211,-77.865239 C 223.76657,45.420208 217.46298,18.539117 189.6543,0 Z"
     id="path7"
     sodipodi:nodetypes="cccccscssccsccc" />
  <use
     x="0"
     y="0"
     xlink:href="#path13"
     id="use13"
     transform="matrix(-1,0,0,1,391.5018,0)" />
</svg>
