<?xml version="1.0" encoding="UTF-8" standalone="no"?>
<!-- Created with Inkscape (http://www.inkscape.org/) -->

<svg
   width="1000"
   height="1000"
   id="svg1290"
   sodipodi:version="0.32"
   inkscape:version="1.4.3 (0d15f75, 2025-12-25)"
   sodipodi:docname="1330C.svg"
   version="1.1"
   xmlns:inkscape="http://www.inkscape.org/namespaces/inkscape"
   xmlns:sodipodi="http://sodipodi.sourceforge.net/DTD/sodipodi-0.dtd"
   xmlns:xlink="http://www.w3.org/1999/xlink"
   xmlns="http://www.w3.org/2000/svg"
   xmlns:svg="http://www.w3.org/2000/svg"
   xmlns:rdf="http://www.w3.org/1999/02/22-rdf-syntax-ns#"
   xmlns:cc="http://creativecommons.org/ns#"
   xmlns:dc="http://purl.org/dc/elements/1.1/">
  <defs
     id="defs3" />
  <sodipodi:namedview
     id="base"
     pagecolor="#ffffff"
     bordercolor="#666666"
     borderopacity="1.0"
     inkscape:pageopacity="0.0"
     inkscape:pageshadow="2"
     inkscape:zoom="1.028"
     inkscape:cx="749.51362"
     inkscape:cy="261.18677"
     inkscape:document-units="px"
     inkscape:current-layer="layer1"
     inkscape:window-width="1680"
     inkscape:window-height="998"
     inkscape:window-x="-8"
     inkscape:window-y="-8"
     inkscape:showpageshadow="2"
     inkscape:pagecheckerboard="0"
     inkscape:deskcolor="#d1d1d1"
     inkscape:window-maximized="1"
     showguides="true">
    <sodipodi:guide
       position="583.3918,652.327"
       orientation="1,0"
       id="guide2"
       inkscape:locked="false" />
    <sodipodi:guide
       position="546.5645,632.8984"
       orientation="0.99969365,-0.02475092"
       id="guide3"
       inkscape:locked="false" />
    <sodipodi:guide
       position="304.0712,795.5059"
       orientation="0,-1"
       id="guide4"
       inkscape:locked="false" />
    <sodipodi:guide
       position="227.11361,759.98575"
       orientation="1,0"
       id="guide5"
       inkscape:locked="false" />
  </sodipodi:namedview>
  <metadata
     id="metadata4">
    <rdf:RDF>
      <cc:Work
         rdf:about="">
        <dc:format>image/svg+xml</dc:format>
        <dc:type
           rdf:resource="http://purl.org/dc/dcmitype/StillImage" />
        <cc:license
           rdf:resource="http://creativecommons.org/licenses/by/2.0/" />
        <dc:subject>
          <rdf:Bag>
            <rdf:li>JSesh hieroglyph</rdf:li>
          </rdf:Bag>
        </dc:subject>
      </cc:Work>
      <cc:License
         rdf:about="http://creativecommons.org/licenses/by/2.0/">
        <cc:permits
           rdf:resource="http://web.resource.org/cc/Reproduction" />
        <cc:permits
           rdf:resource="http://web.resource.org/cc/Distribution" />
        <cc:requires
           rdf:resource="http://web.resource.org/cc/Notice" />
        <cc:requires
           rdf:resource="http://web.resource.org/cc/Attribution" />
        <cc:permits
           rdf:resource="http://web.resource.org/cc/DerivativeWorks" />
        <cc:requires
           rdf:resource="http://web.resource.org/cc/ShareAlike" />
      </cc:License>
    </rdf:RDF>
  </metadata>
  <g
     transform="translate(-832.831,-887.3468)"
     id="layer1"
     inkscape:groupmode="layer"
     inkscape:label="Layer 1"
     style="display:inline">
    <path
       id="path2070"
       d="m 1387.2417,887.3468 v 46.19173 c -41.8911,10.08049 -90.9459,64.20035 -90.9459,150.99347 0,68.5858 45.2862,134.1471 82.0262,147.2523 l -0.1559,10.4439 c -57.0981,2.3773 -112.1288,4.2582 -157.6442,-0.7102 8.3884,-29.8737 24.4325,-55.913 20.6971,-87.0663 -2.952,-24.6189 -29.8731,-33.8272 -50.3485,-39.4197 -19.6271,-5.3608 -32.7723,-24.2237 -53.9683,-23.1911 -23.3433,1.1372 -46.8159,8.3064 -67.0273,20.0562 -21.1074,12.2707 -4.151,36.0583 10.1321,46.5554 15.688,11.5297 33.6941,22.1819 54.2627,17.6489 13.4062,-2.9546 43.111,-10.0855 44.3385,-0.6928 3.7411,28.6301 -26.7718,63.3705 -14.462,96.4536 10.0937,27.1272 33.211,51.7583 64.1004,53.9856 49.7264,3.5858 99.2076,-0.3969 148.6899,-4.6244 l -8.7639,563.3936 h 102.6368 l -16.7481,-569.1264 c 9.2842,-0.4617 18.5724,-0.8277 27.8673,-0.9872 140.8656,-2.3995 211.4825,70.4374 227.3735,115.4014 15.1431,42.8478 26.0554,87.7405 22.2212,133.362 -4.6133,54.8921 -12.6708,110.2758 -8.1749,165.1956 3.9658,48.4442 20.7906,95.431 32.284,142.4202 5.6191,22.9725 33.5504,21.9053 32.5439,-3.2042 -2.3872,-60.5398 -16.3208,-112.2793 -14.7219,-168.1227 1.3744,-47.994 13.6582,-94.1957 16.4884,-142.3335 3.2816,-55.8155 18.8263,-243.7969 -133.4312,-298.523 -43.143,-15.5069 -97.6889,-19.8907 -155.6005,-20.0216 -16.1526,-0.037 -32.5998,0.3049 -49.1014,0.7794 l -0.1559,-5.473 c 57.0696,-15.2918 103.9703,-98.2518 103.9703,-148.9151 0,-102.71286 -43.2663,-142.61635 -80.606,-152.62152 V 887.3468 Z m 31.6778,31.66047 h 24.4208 v 44.44244 c 16.131,-0.46387 34.2523,-0.62991 45.5855,13.09372 25.4011,28.16127 33.7226,67.92777 34.1199,104.68047 0.3705,34.2703 -37.3306,121.6711 -88.4692,121.6711 -15.6168,-0.6348 -31.5598,1.6158 -46.9365,-1.299 -26.2955,-11.8125 -59.372,-66.1127 -59.372,-111.9028 0,-74.3665 29.3684,-110.02154 59.8223,-123.45501 9.8257,-3.99694 20.5164,-2.49634 30.8292,-2.78848 z m -282.0173,198.72663 c 16.0799,3.7029 28.7568,17.2369 45.4644,21.8921 14.0594,3.9174 37.1594,9.1249 32.3359,29.7034 -6.4366,27.4605 -24.909,54.0479 -19.1209,82.7883 4.2247,20.9773 30.8195,19.6162 47.5599,19.4847 50.0861,-0.3933 93.7386,-1.5754 134.609,-2.7365 l -0.3983,25.4254 c -66.7889,4.2754 -128.9675,9.6236 -155.8777,4.4684 -21.2351,-4.068 -36.3861,-30.2264 -34.5182,-51.9246 2.477,-28.774 25.1593,-55.498 16.6443,-84.5549 -6.4979,-22.1737 -35.02,-14.8642 -52.7906,-13.9597 -18.5734,0.9454 -36.3644,5.8475 -52.9464,-8.7464 -18.8951,-16.6299 36.258,-22.4806 39.0386,-21.8402 z m -3.9488,7.1184 c -8.8275,-0.2636 -31.8443,10.7296 -10.7383,10.8249 7.4678,0.034 34.7013,4.8871 17.822,-6.7547 -2.2223,-1.5329 -4.246,-3.9855 -7.0837,-4.0702 z m 280.926,123.7841 16.523,339.4668 -24.0051,-1.2123 z m 88.348,17.7181 c 109.342,0.1467 174.8983,12.3343 218.6963,71.5825 73.1009,98.8882 48.0778,197.8065 29.8938,322.6666 5.0895,-73.6734 29.5277,-189.7336 -46.2089,-289.9669 -31.9979,-42.3472 -86.2407,-60.1359 -136.1506,-72.7256 -29.0542,-7.3289 -70.5833,-8.558 -115.1415,-7.3436 l -0.6929,-23.6414 c 17.4719,-0.3685 33.9835,-0.5925 49.6038,-0.5716 z m -96.5229,352.2142 25.6333,1.2816 0.762,25.6679 -27.0188,1.1604 z m 27.3132,58.6099 0.5889,19.831 -29.6687,1.1778 0.4504,-19.7617 z m 1.5242,51.5089 0.8659,29.3223 -32.8382,2.6153 0.6929,-30.6906 z m 1.8013,61.0174 1.8532,63.2516 h -37.6705 l 1.3509,-60.515 z"
       style="color:#000000;display:inline;overflow:visible;visibility:visible;fill:#ffbe6f;fill-opacity:1;fill-rule:evenodd;stroke:none;stroke-width:59.3327;stroke-linecap:butt;stroke-linejoin:round;stroke-miterlimit:4;stroke-dashoffset:0;stroke-opacity:1;marker:none;marker-start:none;marker-mid:none;marker-end:none" />
    <path
       id="path1"
       style="fill:#000000;stroke:none;stroke-width:1"
       d="m 1371.1748,887.3468 v 45.58008 c -41.3136,9.94156 -74.8226,42.0087 -72.2657,148.91212 1.5253,63.7741 39.5443,127.9496 81.1599,145.4059 l -0.6735,27.2035 -9.6075,632.8984 h 46.4356 v -31.2773 h -14.5176 l 1.3867,-59.67 13.1309,-0.166 v -31.3418 l -12.4903,0.125 0.6407,-30.2109 11.8496,0.164 v -31.4785 l -11.1016,0.041 0.4258,-19.5351 10.6758,-0.041 v -31.2735 l -10.0352,0.041 0.6406,-27.7598 9.3946,0.041 v -17.5469 h -9.9278 l 9.9278,-372.4375 v -33.1054 c -0.498,0.01 -0.9979,0.014 -1.4961,0.014 -8.9057,0 -17.8741,-1.4443 -25.7246,-4.6972 -25.933,-11.6497 -58.4981,-70.1285 -58.4981,-115.2871 0,-73.3414 11.3839,-103.53109 41.418,-116.77934 9.6999,-3.73776 20.2423,-2.63573 30.4238,-2.77539 v -43.76563 h 13.877 V 887.3468 Z"
       sodipodi:nodetypes="ccsccccccccccccccccccccccccscscccccc" />
    <use
       x="0"
       y="0"
       xlink:href="#path1"
       id="use2"
       transform="matrix(-1,0,0,1,2832.4472,0)" />
    <path
       style="fill:#f9f06b;stroke:none;stroke-width:1px;stroke-linecap:butt;stroke-linejoin:miter;stroke-opacity:1"
       d="m 1341.0995,1254.0783 4.8638,56.9066 136.6732,-6.8093 2.9182,-52.5292 z"
       id="path5" />
    <path
       id="path17"
       style="fill:#1a5fb4;stroke:none;stroke-width:1"
       d="m 1131.3994,1124.8096 c -9.044,10e-4 -31.268,10.7138 -10.4255,10.8074 3.4039,0.016 10.915,1.033 16.4803,1.033 6.6377,0 10.5064,-1.4479 1.3301,-7.7763 -2.2211,-1.5321 -4.227,-3.9738 -7.0632,-4.0585 -0.1726,-0.01 -0.2498,-0.01 -0.3217,-0.01 z m 4.285,-32.9567 c -23.3421,1.1379 -46.7786,8.3182 -66.9891,20.0668 -21.1064,12.2695 -4.1992,36.1269 10.0833,46.6229 13.1511,9.665 27.8757,18.6691 44.4265,18.6691 10.8789,0 27.4839,-6.3894 43.3284,-6.3894 5.9908,0 10.4275,1.2149 10.8819,4.6922 3.7411,28.628 -27.7015,63.7156 -14.476,96.4405 23.0907,57.1352 57.6608,53.8634 104.5272,55.3085 58.7706,0 117.3294,-10.8668 176.1085,-11.2814 23.5944,-0.1666 47.1888,-0.3326 70.7829,-0.4994 118.831,-0.838 179.1115,73.29 193.6797,114.5107 15.1424,42.8443 26.0971,87.6615 22.2633,133.2795 -4.6134,54.8889 -12.6822,110.3113 -8.1866,165.2266 3.9655,48.4414 20.7535,95.3791 32.2467,142.3646 2.6845,10.9763 10.4893,16.4727 17.7706,16.4727 7.9572,0 15.3011,-6.5568 14.7755,-19.6675 -2.3871,-60.5362 -16.3745,-112.2828 -14.7755,-168.1219 1.3744,-47.9908 13.7424,-94.1303 16.5725,-142.2646 7.5338,-128.1275 0.3067,-320.3852 -264.4625,-318.1734 0,0 -55.7791,0.1364 -83.6616,0.6987 -73.9297,2.4767 -147.5269,6.7277 -221.3337,1.797 8.388,-29.8719 24.5008,-55.9048 20.7657,-87.0559 -2.9521,-24.6174 -29.9424,-33.8425 -50.4168,-39.4347 -19.1056,-5.2184 -31.9868,-23.2616 -52.2137,-23.2616 -0.5512,0 -1.1348,-0.027 -1.6972,0 z m -0.7986,25.8572 c 0.368,0 0.6635,0.068 0.7986,0.1 16.0791,3.7018 28.7182,17.2097 45.4249,21.8639 14.0588,3.9169 37.1697,9.1739 32.3465,29.7507 -6.4363,27.4582 -24.8562,54.0246 -19.0684,82.7631 3.6216,17.9823 23.6354,19.5676 39.8341,19.5676 60.0914,0 151.2701,-3.5841 210.0525,-4.6921 22.8923,-0.4314 45.7905,-0.7515 68.6863,-0.599 102.2802,0.6815 164.4493,14.3847 206.6582,71.4817 73.0973,98.8811 48.1334,197.8149 29.9505,322.6663 5.089,-73.6687 29.5096,-189.695 -46.2235,-289.9204 -48.8238,-64.6143 -130.4402,-79.6833 -189.6863,-79.7681 l -69.7846,-0.1 c -69.5285,-0.1 -144.9299,10.0833 -191.7827,10.0833 -41.1956,0 -69.8469,-13.8564 -66.3902,-54.0106 2.4769,-28.7716 25.1869,-55.5061 16.6725,-84.5601 -3.7873,-12.9236 -15.0935,-15.8738 -27.3549,-15.8738 -9.5797,0 -38.4058,3.4942 -49.0188,3.4942 -10.1463,0 -19.9119,-1.9755 -29.3514,-10.2829 -17.9762,-15.821 31.0325,-21.9637 38.2367,-21.9637 z" />
    <path
       style="fill:#26a269;stroke:none;stroke-width:1px;stroke-linecap:butt;stroke-linejoin:miter;stroke-opacity:1"
       d="m 1402.8699,1224.8954 3.6479,21.4008 22.6982,6.2987 0.6481,-27.4563 z"
       id="path2" />
  </g>
</svg>
