<?xml version="1.0" encoding="UTF-8" standalone="no"?>
<svg
   width="1400"
   height="1000"
   id="svg3378"
   sodipodi:version="0.32"
   inkscape:version="1.4.2 (f4327f4, 2025-05-13)"
   sodipodi:docname="1338E.svg"
   inkscape:output_extension="org.inkscape.output.svg.inkscape"
   version="1.0"
   xmlns:inkscape="http://www.inkscape.org/namespaces/inkscape"
   xmlns:sodipodi="http://sodipodi.sourceforge.net/DTD/sodipodi-0.dtd"
   xmlns:xlink="http://www.w3.org/1999/xlink"
   xmlns="http://www.w3.org/2000/svg"
   xmlns:svg="http://www.w3.org/2000/svg"
   xmlns:rdf="http://www.w3.org/1999/02/22-rdf-syntax-ns#"
   xmlns:cc="http://creativecommons.org/ns#"
   xmlns:dc="http://purl.org/dc/elements/1.1/">
  <metadata
     id="metadata3385">
    <rdf:RDF>
      <cc:Work
         rdf:about="">
        <dc:format>image/svg+xml</dc:format>
        <dc:type
           rdf:resource="http://purl.org/dc/dcmitype/StillImage" />
      </cc:Work>
    </rdf:RDF>
  </metadata>
  <defs
     id="defs3383">
    <inkscape:perspective
       sodipodi:type="inkscape:persp3d"
       inkscape:vp_x="0 : 988.67911 : 1"
       inkscape:vp_y="0 : 1000 : 0"
       inkscape:vp_z="20.727343 : 988.67911 : 1"
       inkscape:persp3d-origin="10.363671 : 985.68191 : 1"
       id="perspective3387" />
  </defs>
  <sodipodi:namedview
     inkscape:window-height="998"
     inkscape:window-width="1680"
     inkscape:pageshadow="2"
     inkscape:pageopacity="0.0"
     guidetolerance="10.0"
     gridtolerance="10.0"
     objecttolerance="10.0"
     borderopacity="1.0"
     bordercolor="#666666"
     pagecolor="#ffffff"
     id="base"
     showgrid="false"
     inkscape:zoom="0.37535714"
     inkscape:cx="-374.31018"
     inkscape:cy="102.56898"
     inkscape:window-x="-8"
     inkscape:window-y="-8"
     inkscape:current-layer="svg3378"
     inkscape:showpageshadow="2"
     inkscape:pagecheckerboard="0"
     inkscape:deskcolor="#d1d1d1"
     showguides="true"
     inkscape:window-maximized="1">
    <sodipodi:guide
       position="0,500"
       orientation="0,1"
       id="guide1"
       inkscape:locked="false"
       inkscape:label=""
       inkscape:color="rgb(0,134,229)" />
    <sodipodi:guide
       position="0,1000"
       orientation="0,-1"
       id="guide2"
       inkscape:locked="false" />
    <sodipodi:guide
       position="0,0"
       orientation="0,-1"
       id="guide3"
       inkscape:locked="false" />
    <sodipodi:guide
       position="0,520"
       orientation="0,1"
       id="guide4"
       inkscape:locked="false"
       inkscape:label=""
       inkscape:color="rgb(0,134,229)" />
    <sodipodi:guide
       position="1350,703.31126"
       orientation="-1,0"
       id="guide6"
       inkscape:locked="false"
       inkscape:label=""
       inkscape:color="rgb(0,134,229)" />
    <sodipodi:guide
       position="-473.90767,520"
       orientation="1,0"
       id="guide7"
       inkscape:locked="false" />
    <sodipodi:guide
       position="-314.28925,1000"
       orientation="1,0"
       id="guide8"
       inkscape:locked="false" />
    <sodipodi:guide
       position="-174.83444,980"
       orientation="0,1"
       id="guide9"
       inkscape:locked="false"
       inkscape:label=""
       inkscape:color="rgb(0,134,229)" />
    <sodipodi:guide
       position="0,550"
       orientation="0,1"
       id="guide10"
       inkscape:label=""
       inkscape:locked="false"
       inkscape:color="rgb(0,134,229)" />
    <sodipodi:guide
       position="-949.53681,550"
       orientation="1,0"
       id="guide13"
       inkscape:locked="false" />
    <sodipodi:guide
       position="0,680"
       orientation="0,1"
       id="guide11"
       inkscape:label=""
       inkscape:locked="false"
       inkscape:color="rgb(0,134,229)" />
    <sodipodi:guide
       position="-816.76914,1000.7265"
       orientation="1,0"
       id="guide5"
       inkscape:locked="false" />
    <sodipodi:guide
       position="949.11283,680"
       orientation="1,0"
       id="guide12"
       inkscape:locked="false" />
  </sodipodi:namedview>
  <path
     style="color:#000000;font-style:normal;font-variant:normal;font-weight:normal;font-stretch:normal;font-size:medium;line-height:normal;font-family:sans-serif;text-indent:0;text-align:start;text-decoration:none;text-decoration-line:none;text-decoration-style:solid;text-decoration-color:#000000;letter-spacing:normal;word-spacing:normal;text-transform:none;writing-mode:lr-tb;direction:ltr;baseline-shift:baseline;text-anchor:start;white-space:normal;clip-rule:nonzero;display:inline;overflow:visible;visibility:visible;isolation:auto;mix-blend-mode:normal;color-interpolation:sRGB;color-interpolation-filters:linearRGB;solid-color:#000000;solid-opacity:1;fill:#000000;fill-opacity:1;fill-rule:nonzero;stroke:none;stroke-width:80;stroke-linecap:butt;stroke-linejoin:miter;stroke-miterlimit:4;stroke-dasharray:none;stroke-dashoffset:0;stroke-opacity:1;marker:none;color-rendering:auto;image-rendering:auto;shape-rendering:auto;text-rendering:auto;enable-background:accumulate"
     d="M -315.65893,0 V 0.00938585 C -362.98822,0.38260673 -408.72748,18.890745 -441.80942,55.819114 -475.2104,93.103627 -495.21403,148.13438 -495.23914,218.85909 v 0.003 V 480 h 42.66295 v -261.12625 -0.007 c 0.0237,-62.77002 17.37299,-106.48324 42.54318,-134.579971 25.01122,-27.919274 58.23587,-41.426527 95.05944,-41.615131 36.82315,0.188855 70.04638,13.696118 95.05736,41.615131 25.17119,28.097841 42.52088,71.813321 42.54317,134.587261 v 261.12624 h 42.66296 v -261.13771 -0.003 C -134.73518,148.13445 -154.73882,93.103627 -188.13981,55.819103 -221.22174,18.890734 -266.95998,0.38259606 -314.28925,0.00937518 V 0 c -0.2282,1.1199026e-4 -0.45619,0.00319972 -0.68432,0.0042663 C -315.20205,0.00319972 -315.43038,0 -315.65893,0 Z"
     id="path3342" />
  <path
     style="fill:none;stroke:#613583;stroke-width:40;stroke-linecap:butt;stroke-linejoin:miter;stroke-dasharray:none;stroke-opacity:1"
     d="m -473.90767,480 0,-236.19727 C -473.90767,109.38242 -425.27322,20 -314.28925,20"
     id="path8"
     sodipodi:nodetypes="ccc" />
  <use
     x="0"
     y="0"
     xlink:href="#path8"
     id="use9"
     transform="matrix(-1,0,0,1,-628.5785,0)" />
  <path
     style="fill:none;stroke:#613583;stroke-width:35;stroke-linecap:butt;stroke-linejoin:miter;stroke-dasharray:none;stroke-opacity:1"
     d="M -932.03681,319.90498 V 184.70877 c 0,-121.374267 50.05678,-167.211441 115.26767,-167.211441"
     id="path11"
     sodipodi:nodetypes="ccc" />
  <use
     x="0"
     y="0"
     xlink:href="#path11"
     id="use13"
     transform="matrix(-1,0,0,1,-1633.5383,0)" />
  <g
     id="g15">
    <path
       id="path13"
       style="baseline-shift:baseline;display:inline;overflow:visible;opacity:1;vector-effect:none;fill:#000000;enable-background:accumulate;stop-color:#000000;stop-opacity:1"
       d="M 132.76758,-0.00195313 C 14.565836,-0.00195309 0,123.72291 0,184.70898 V 319.9043 H 35 V 184.70898 C 35,111.6265 53.822502,34.998047 132.76758,34.998047 c 78.9443,0 97.76758,76.626963 97.76758,149.710933 V 319.9043 h 35 V 184.70898 c 0,-60.98364 -14.56469,-184.71093313 -132.76758,-184.71093313 z"
       sodipodi:nodetypes="ssccsssccss" />
    <use
       x="0"
       y="0"
       xlink:href="#path13"
       id="use14"
       transform="translate(341.78883,0.00195313)" />
    <use
       x="0"
       y="0"
       xlink:href="#path13"
       id="use15"
       transform="translate(683.57767)" />
  </g>
  <g
     id="g17"
     transform="translate(0,340.04785)">
    <path
       id="path16"
       style="baseline-shift:baseline;display:inline;overflow:visible;opacity:1;vector-effect:none;fill:#000000;enable-background:accumulate;stop-color:#000000;stop-opacity:1"
       d="M 132.76758,-0.00195313 C 14.565836,-0.00195309 0,123.72291 0,184.70898 V 319.9043 H 35 V 184.70898 C 35,111.6265 53.822502,34.998047 132.76758,34.998047 c 78.9443,0 97.76758,76.626963 97.76758,149.710933 V 319.9043 h 35 V 184.70898 c 0,-60.98364 -14.56469,-184.71093313 -132.76758,-184.71093313 z"
       sodipodi:nodetypes="ssccsssccss" />
    <use
       x="0"
       y="0"
       xlink:href="#path13"
       id="use16"
       transform="translate(341.78883,0.00195313)" />
    <use
       x="0"
       y="0"
       xlink:href="#path13"
       id="use17"
       transform="translate(683.57767)" />
  </g>
  <g
     id="g19"
     transform="translate(0,680.0957)">
    <path
       id="path17"
       style="baseline-shift:baseline;display:inline;overflow:visible;opacity:1;vector-effect:none;fill:#000000;enable-background:accumulate;stop-color:#000000;stop-opacity:1"
       d="M 132.76758,-0.00195313 C 14.565836,-0.00195309 0,123.72291 0,184.70898 V 319.9043 H 35 V 184.70898 C 35,111.6265 53.822502,34.998047 132.76758,34.998047 c 78.9443,0 97.76758,76.626963 97.76758,149.710933 V 319.9043 h 35 V 184.70898 c 0,-60.98364 -14.56469,-184.71093313 -132.76758,-184.71093313 z"
       sodipodi:nodetypes="ssccsssccss" />
    <use
       x="0"
       y="0"
       xlink:href="#path13"
       id="use18"
       transform="translate(341.78883,0.00195313)" />
    <use
       x="0"
       y="0"
       xlink:href="#path13"
       id="use19"
       transform="translate(683.57767)" />
  </g>
</svg>
