<?xml version="1.0" encoding="UTF-8" standalone="no"?>
<svg
   width="800"
   height="800"
   version="1.1"
   id="svg1"
   sodipodi:docname="133F7.svg"
   inkscape:version="1.4.2 (f4327f4, 2025-05-13)"
   xmlns:inkscape="http://www.inkscape.org/namespaces/inkscape"
   xmlns:sodipodi="http://sodipodi.sourceforge.net/DTD/sodipodi-0.dtd"
   xmlns="http://www.w3.org/2000/svg"
   xmlns:svg="http://www.w3.org/2000/svg">
  <defs
     id="defs1" />
  <sodipodi:namedview
     id="namedview1"
     pagecolor="#ffffff"
     bordercolor="#666666"
     borderopacity="1.0"
     inkscape:showpageshadow="2"
     inkscape:pageopacity="0.0"
     inkscape:pagecheckerboard="0"
     inkscape:deskcolor="#d1d1d1"
     inkscape:zoom="0.53386562"
     inkscape:cx="450.4879"
     inkscape:cy="319.36876"
     inkscape:window-width="1680"
     inkscape:window-height="998"
     inkscape:window-x="-8"
     inkscape:window-y="-8"
     inkscape:window-maximized="1"
     inkscape:current-layer="svg1"
     showguides="true">
    <sodipodi:guide
       position="411.12224,528.39607"
       orientation="-1,0"
       id="guide4"
       inkscape:label=""
       inkscape:locked="false"
       inkscape:color="rgb(0,134,229)" />
    <sodipodi:guide
       position="471.12224,528.39607"
       orientation="0,-1"
       id="guide5"
       inkscape:locked="false" />
    <sodipodi:guide
       position="441.12224,574.2637"
       orientation="0,-1"
       id="guide6"
       inkscape:locked="false" />
    <sodipodi:guide
       position="101.14905,460.96337"
       orientation="1,0"
       id="guide7"
       inkscape:locked="false" />
    <sodipodi:guide
       position="487.07114,800"
       orientation="1,0"
       id="guide8"
       inkscape:locked="false" />
  </sodipodi:namedview>
  <path
     style="fill:#ffbe6f;stroke:none;stroke-width:51.2339"
     d="M 68.427835,0 V 42.197725 H 412.9477 V 152.41245 l -344.23705,0.10248 0.102476,43.22137 H 413.20235 l 1.58313,16.37843 c -0.51235,181.2904 96.35649,425.76136 187.42002,566.62367 43.59795,67.4391 84.68236,106.95473 139.55586,135.01549 11.11158,4.86722 18.64398,7.28853 21.19441,7.28853 2.61291,0 -9.5e-4,-2.53608 -9.34455,-7.57132 C 712.28087,891.19668 660.72068,848.12747 628.36599,766.25272 564.52609,604.70321 504.23872,479.47082 483.75697,296.2038 480.16036,264.01974 473.71206,225.88896 472.54547,112.02329 L 472.09,0 Z"
     id="path1" />
  <path
     style="fill:none;stroke:#613583;stroke-width:60;stroke-linecap:butt;stroke-linejoin:miter;stroke-dasharray:none;stroke-opacity:1"
     d="M 101.14905,30 H 441.12224"
     id="path2"
     sodipodi:nodetypes="cc" />
  <path
     style="fill:none;stroke:#613583;stroke-width:60;stroke-linecap:butt;stroke-linejoin:miter;stroke-dasharray:none;stroke-opacity:1"
     d="m 101.14905,195.7363 339.97319,0"
     id="path3"
     sodipodi:nodetypes="cc" />
  <path
     style="fill:none;stroke:#613583;stroke-width:76.8978;stroke-linecap:butt;stroke-linejoin:miter;stroke-dasharray:none;stroke-opacity:1"
     d="M 448.62224,0 V 225.7363"
     id="path4" />
  <path
     style="fill:#000000;stroke:none;stroke-width:1px;stroke-linecap:butt;stroke-linejoin:miter;stroke-opacity:1"
     d="m 411.12224,225.7363 c 0,226.33133 110.48221,436.60508 288.09662,574.2637 l 12.12213,-8.60927 C 549.9042,611.81498 487.07114,402.21208 487.07114,203.72702 Z"
     id="path5"
     sodipodi:nodetypes="ccccc" />
</svg>
