<?xml version="1.0" encoding="UTF-8" standalone="no"?>
<svg
   width="1100"
   height="1000"
   version="1.1"
   id="svg1"
   sodipodi:docname="1340E.svg"
   inkscape:version="1.4.3 (0d15f75, 2025-12-25)"
   xmlns:inkscape="http://www.inkscape.org/namespaces/inkscape"
   xmlns:sodipodi="http://sodipodi.sourceforge.net/DTD/sodipodi-0.dtd"
   xmlns:xlink="http://www.w3.org/1999/xlink"
   xmlns="http://www.w3.org/2000/svg"
   xmlns:svg="http://www.w3.org/2000/svg">
  <defs
     id="defs1" />
  <sodipodi:namedview
     id="namedview1"
     pagecolor="#ffffff"
     bordercolor="#666666"
     borderopacity="1.0"
     inkscape:showpageshadow="2"
     inkscape:pageopacity="0.0"
     inkscape:pagecheckerboard="0"
     inkscape:deskcolor="#d1d1d1"
     inkscape:zoom="0.3775"
     inkscape:cx="268.87417"
     inkscape:cy="411.92053"
     inkscape:window-width="1680"
     inkscape:window-height="998"
     inkscape:window-x="-8"
     inkscape:window-y="-8"
     inkscape:window-maximized="1"
     inkscape:current-layer="svg1"
     showguides="true">
    <sodipodi:guide
       position="0,650"
       orientation="0,1"
       id="guide2"
       inkscape:locked="false"
       inkscape:label=""
       inkscape:color="rgb(0,134,229)" />
    <sodipodi:guide
       position="0,0"
       orientation="0,-1"
       id="guide1"
       inkscape:locked="false" />
    <sodipodi:guide
       position="-236.01443,325"
       orientation="0,-1"
       id="guide3"
       inkscape:locked="false" />
    <sodipodi:guide
       position="0,700"
       orientation="0,1"
       id="guide5"
       inkscape:label=""
       inkscape:locked="false"
       inkscape:color="rgb(0,134,229)" />
  </sodipodi:namedview>
  <path
     id="path1"
     style="fill:none;fill-rule:evenodd;stroke:#613583;stroke-width:45;stroke-linecap:butt;stroke-miterlimit:5;stroke-dasharray:none"
     d="m -668.9226,675 c 0,-167.11194 80.84323,-302.58292 215.625,-302.58293 134.78175,-1e-5 215.62499,135.47099 215.62499,302.58293"
     sodipodi:nodetypes="czc" />
  <use
     x="0"
     y="0"
     xlink:href="#path1"
     id="use3"
     transform="matrix(1,0,0,-1,1.7461439e-5,1350)" />
  <path
     style="fill:none;stroke:#613583;stroke-width:45;stroke-linecap:butt;stroke-linejoin:miter;stroke-dasharray:none;stroke-opacity:1"
     d="m -776.91195,675 c 0,-59.92628 44.12064,-107.24175 120.09683,-107.24175"
     id="path3"
     sodipodi:nodetypes="cc" />
  <use
     x="0"
     y="0"
     xlink:href="#path3"
     id="use4"
     transform="matrix(1,0,0,-1,0,1350)" />
  <use
     x="0"
     y="0"
     xlink:href="#path3"
     id="use5"
     transform="matrix(-1,0,0,1,-906.56143,0)" />
  <use
     x="0"
     y="0"
     xlink:href="#use4"
     id="use6"
     transform="matrix(-1,0,0,1,-906.56143,0)" />
  <path
     id="path6"
     style="fill:none;fill-rule:evenodd;stroke:#613583;stroke-width:45;stroke-linecap:butt;stroke-miterlimit:5;stroke-dasharray:none"
     d="M 563.31466,836.68525 C 418.63138,692.00194 371.33539,504.71999 488.02765,388.02774 604.71989,271.33547 792.00186,318.63146 936.68515,463.31475"
     sodipodi:nodetypes="czc" />
  <path
     id="use7"
     style="fill:none;fill-rule:evenodd;stroke:#613583;stroke-width:45;stroke-linecap:butt;stroke-miterlimit:5;stroke-dasharray:none"
     d="m 563.31468,836.68523 c 144.6833,144.68326 331.96525,191.97917 448.65762,75.28701 116.6923,-116.69225 69.3962,-303.97422 -75.28713,-448.65751"
     sodipodi:nodetypes="czc" />
  <path
     style="fill:none;stroke:#613583;stroke-width:45;stroke-linecap:butt;stroke-linejoin:miter;stroke-dasharray:none;stroke-opacity:1"
     d="M 469.81892,930.18097 C 417.93556,878.29759 415.16952,799.13343 480.94869,733.35426"
     id="path7"
     sodipodi:nodetypes="cc" />
  <path
     style="fill:none;stroke:#613583;stroke-width:45;stroke-linecap:butt;stroke-linejoin:miter;stroke-dasharray:none;stroke-opacity:1"
     d="m 469.81895,930.18096 c 51.88339,51.88336 131.04752,54.64939 196.82671,-11.12976"
     id="use8"
     sodipodi:nodetypes="cc" />
  <path
     style="fill:none;stroke:#613583;stroke-width:45;stroke-linecap:butt;stroke-linejoin:miter;stroke-dasharray:none;stroke-opacity:1"
     d="M 1030.2103,369.78976 C 978.32675,317.9064 899.16263,315.14032 833.3834,380.91952"
     id="use9"
     sodipodi:nodetypes="cc" />
  <path
     style="fill:none;stroke:#613583;stroke-width:45;stroke-linecap:butt;stroke-linejoin:miter;stroke-dasharray:none;stroke-opacity:1"
     d="m 1030.2103,369.78976 c 51.8832,51.88338 54.6493,131.04749 -11.1298,196.82672"
     id="use10"
     sodipodi:nodetypes="cc" />
</svg>
