<?xml version="1.0" encoding="UTF-8" standalone="no"?>
<svg
   width="933.81543"
   height="1000"
   version="1.1"
   id="svg1"
   sodipodi:docname="13427.svg"
   inkscape:version="1.4.3 (0d15f75, 2025-12-25)"
   xmlns:inkscape="http://www.inkscape.org/namespaces/inkscape"
   xmlns:sodipodi="http://sodipodi.sourceforge.net/DTD/sodipodi-0.dtd"
   xmlns:xlink="http://www.w3.org/1999/xlink"
   xmlns="http://www.w3.org/2000/svg"
   xmlns:svg="http://www.w3.org/2000/svg">
  <defs
     id="defs1">
    <inkscape:path-effect
       effect="mirror_symmetry"
       start_point="466.07345,32.879569"
       end_point="466.07345,935.09934"
       center_point="466.07345,483.98945"
       id="path-effect2"
       is_visible="true"
       lpeversion="1.2"
       lpesatellites=""
       mode="free"
       discard_orig_path="false"
       fuse_paths="true"
       oposite_fuse="false"
       split_items="false"
       split_open="false"
       link_styles="false" />
  </defs>
  <sodipodi:namedview
     id="namedview1"
     pagecolor="#ffffff"
     bordercolor="#666666"
     borderopacity="1.0"
     inkscape:showpageshadow="2"
     inkscape:pageopacity="0.0"
     inkscape:pagecheckerboard="0"
     inkscape:deskcolor="#d1d1d1"
     inkscape:zoom="0.3775"
     inkscape:cx="255.62914"
     inkscape:cy="1124.5033"
     inkscape:window-width="1680"
     inkscape:window-height="998"
     inkscape:window-x="-8"
     inkscape:window-y="-8"
     inkscape:window-maximized="1"
     inkscape:current-layer="svg1"
     showguides="true">
    <sodipodi:guide
       position="466.07345,958.28698"
       orientation="1,0"
       id="guide1"
       inkscape:locked="false" />
  </sodipodi:namedview>
  <path
     style="fill:#ff7800;stroke:none;stroke-width:1"
     d="m 498.9533,32.879569 h -65.7597 q -3.39871,184.807331 0.56739,372.448781 3.96607,187.64201 12.47175,290.81641 8.50344,103.17439 19.841,113.37886 11.3381,-10.20447 19.84154,-113.37886 8.50344,-103.1744 12.47175,-290.81641 3.96609,-187.64145 0.56738,-372.448781 z M 404.84916,520.40768 v -56.68887 q -90.7032,21.54147 -163.83214,58.95672 -73.12949,37.41471 -85.60124,62.35821 132.65303,-49.88646 249.43338,-64.62606 z m 121.31493,0 q 116.77981,14.7396 249.43283,64.62606 -12.47175,-24.9435 -85.03387,-62.35821 -72.56211,-37.41525 -164.39896,-58.95672 z m 0,-94.10413 q 146.25844,30.61228 219.38793,81.63294 73.12894,51.0201 87.86798,97.50562 4.53346,23.80931 -34.01321,18.14054 -188.20882,-57.82308 -273.2427,-62.35822 -7.93662,94.10414 -17.00689,258.50311 -6.8024,158.73018 -43.08402,180.2722 -37.41471,-21.54202 -43.08348,-180.2722 -9.07027,-164.39897 -18.14054,-258.50311 -83.90022,4.53346 -272.10905,62.35822 -38.548346,5.66877 -35.14741,-18.14054 15.87324,-46.48552 89.00218,-97.50562 73.12949,-51.02066 218.25428,-81.63294 Q 398.0462,217.6869 396.91254,8.1801888e-6 H 535.23436 Q 534.0996,217.6869 526.16409,426.30355 Z"
     id="path1-9" />
  <path
     style="fill:#ffbe6f;stroke:none;stroke-width:1"
     d="m 402.66966,41.713018 61.73527,744.160232 h 2.2247 L 529.47724,41.713018 Z M 904.33822,942.15803 q -112.34706,0 -144.60512,-168.52059 -31.7019,-169.07677 -78.42048,-254.7275 -46.71858,-85.09456 -142.9366,-85.09456 l -1.11235,23.35929 q 87.31925,1.11235 132.36931,82.31369 45.05006,81.20134 76.75195,247.49724 32.25807,166.2959 157.95329,166.2959 14.46052,0 14.46052,-5.00556 0,-6.11791 -14.46052,-6.11791 z M 399.33262,486.65187 q -73.97108,0 -116.24027,77.30813 -41.71302,77.8643 -72.85874,240.82316 Q 178.53172,968.29819 35.595108,968.29819 0,968.29819 0,947.16359 q 0,-21.1346 35.595108,-21.1346 85.094552,0 117.908802,-169.63293 32.25806,-170.18912 76.75195,-260.84541 44.49388,-90.10012 161.29033,-96.21803 L 355.95108,0 h 219.13239 l -34.48276,399.33262 q 118.46497,6.11791 162.95886,96.21803 43.93771,90.65629 76.75195,260.84541 32.81424,169.63293 119.02114,169.63293 34.48276,0 34.48276,21.1346 0,21.1346 -34.48276,21.1346 -144.04895,0 -175.75085,-163.51503 Q 692.43609,641.8243 650.72308,563.96 609.56623,486.65187 534.4828,486.65187 L 488.87657,1000.0001 H 447.16355 Z M 29.477199,942.15803 q -14.460513,0 -14.460513,6.11791 0,5.00556 14.460513,5.00556 126.807571,0 158.509471,-166.2959 31.14572,-166.2959 76.19578,-247.49724 45.05005,-81.20134 132.36931,-82.31369 l -1.11235,-23.35929 q -96.21803,0 -142.93661,85.09456 -46.71858,85.65073 -78.97665,254.7275 -31.70189,168.52059 -144.048951,168.52059 z"
     id="path1" />
  <path
     style="fill:none;stroke:#613583;stroke-width:38;stroke-linecap:butt;stroke-linejoin:miter;stroke-dasharray:none;stroke-opacity:1"
     d="m 466.07345,441.0596 c -120.69457,0 -286.43221,63.56563 -349.68272,164.23841 -3.00706,4.7862 8.65679,1.7794 22.16879,-2.84297 105.097,-35.95301 205.13155,-63.38219 327.51393,-63.38219"
     id="path3"
     sodipodi:nodetypes="cssc" />
  <use
     x="0"
     y="0"
     xlink:href="#path3"
     id="use3"
     transform="matrix(-1,0,0,1,932.14689,0)" />
  <path
     style="fill:#f9f06b;stroke:none;stroke-width:1px;stroke-linecap:butt;stroke-linejoin:miter;stroke-opacity:1"
     d="m 412.98628,399.91683 17.80748,200.59013 70.00764,6.21496 39.79931,-207.3893 z"
     id="path4" />
  <path
     style="fill:none;stroke:#613583;stroke-width:40.38;stroke-linecap:butt;stroke-linejoin:miter;stroke-dasharray:none;stroke-opacity:1"
     d="M 466.07345,32.879569 H 379.42256 L 466.07345,935.09934 552.72434,32.879569 Z"
     id="path2"
     inkscape:path-effect="#path-effect2"
     inkscape:original-d="M 466.07345,32.879569 H 379.42256 L 466.07345,935.09934"
     transform="matrix(1,0,0,1.0818516,0,-13.728222)"
     sodipodi:nodetypes="ccc" />
</svg>
