<?xml version="1.0" encoding="UTF-8" standalone="no"?>
<svg
   width="1100"
   height="1000"
   version="1.1"
   id="svg1"
   sodipodi:docname="1348C-src.svg"
   inkscape:version="1.4.3 (0d15f75, 2025-12-25)"
   xmlns:inkscape="http://www.inkscape.org/namespaces/inkscape"
   xmlns:sodipodi="http://sodipodi.sourceforge.net/DTD/sodipodi-0.dtd"
   xmlns="http://www.w3.org/2000/svg"
   xmlns:svg="http://www.w3.org/2000/svg">
  <defs
     id="defs1" />
  <sodipodi:namedview
     id="namedview1"
     pagecolor="#ffffff"
     bordercolor="#666666"
     borderopacity="1.0"
     inkscape:showpageshadow="2"
     inkscape:pageopacity="0.0"
     inkscape:pagecheckerboard="0"
     inkscape:deskcolor="#d1d1d1"
     inkscape:zoom="0.35818182"
     inkscape:cx="-92.13198"
     inkscape:cy="470.43147"
     inkscape:window-width="1680"
     inkscape:window-height="998"
     inkscape:window-x="-8"
     inkscape:window-y="-8"
     inkscape:window-maximized="1"
     inkscape:current-layer="svg1"
     showguides="true">
    <sodipodi:guide
       position="17.228435,982.01461"
       orientation="1,0"
       id="guide1"
       inkscape:locked="false" />
    <sodipodi:guide
       position="0,982.01678"
       orientation="1,0"
       id="guide2"
       inkscape:locked="false" />
    <sodipodi:guide
       position="479.68752,519.99443"
       orientation="1,0"
       id="guide3"
       inkscape:locked="false" />
  </sodipodi:namedview>
  <path
     style="fill:#000000;stroke:none;stroke-width:1"
     d="m 289.32421,182.04108 c 25.05224,5.27481 38.8969,22.74763 41.53399,52.41845 13.84464,44.83597 25.71147,87.69386 35.60049,128.57367 17.14102,14.50572 40.54508,52.74811 70.21218,114.72721 19.11884,19.78057 33.62277,35.93469 43.51179,48.46237 9.88901,13.18706 15.16317,30.98955 15.82244,53.4075 -4.6149,4.61545 -8.90014,6.26382 -12.85571,4.94513 -3.95564,-1.3187 -5.60381,-4.61545 -4.94452,-9.89025 -1.31857,-11.86833 -4.61492,-22.08827 -9.88909,-30.65983 -5.27414,-8.57162 -14.5039,-16.48386 -27.68927,-23.73673 -3.95562,9.89027 -2.8019,19.1212 3.46113,27.6928 6.26308,8.57157 6.4279,14.17606 0.49447,16.81348 -19.77809,-19.12122 -29.99675,-38.24243 -30.656,-57.36362 -0.65928,-19.1212 -12.69095,-41.37432 -36.09501,-66.75937 -23.40406,-25.38507 -39.39134,-49.61625 -47.96183,-72.69356 -17.80025,-38.24242 -31.31528,-75.4958 -40.54506,-111.76013 v 0 c -19.1188,40.22045 -28.6782,95.93568 -28.6782,167.14568 l 48.4563,245.27892 v -0.98945 c 17.80027,104.83693 30.98564,170.11279 39.55613,195.82756 9.88906,26.37404 20.93183,41.37428 33.12831,45.00068 12.19648,3.62664 32.469,11.7037 60.81756,24.23118 19.11879,3.95627 30.656,10.22012 34.61164,18.79154 3.95562,8.57155 -3.95562,12.52768 -23.7337,11.86837 -25.7115,0 -44.50068,-1.31869 -56.36751,-3.95606 -11.86687,-2.63738 -27.68933,-1.97814 -47.46737,1.97772 -19.77809,3.95653 -29.3375,-2.30707 -28.67826,-18.7908 -2.63705,-32.96762 -15.49278,-72.3639 -38.5672,-118.18886 -23.07442,-45.82497 -33.45791,-79.94642 -31.15049,-102.36437 2.30743,-22.418 -4.7797,-40.55016 -21.26143,-54.39655 l -74.16779,0.98946 c -15.82245,103.51826 -25.38187,170.1128 -28.67825,199.78364 -1.31852,25.05536 2.80192,41.86884 12.36134,50.44045 9.55942,8.57154 28.5134,14.17602 56.86198,16.81343 16.48174,9.23095 25.21706,16.31896 26.20594,21.26406 0.9889,4.94514 -4.45007,7.08804 -16.31692,6.42871 -12.52611,0 -27.19486,-0.32962 -44.00624,-0.98886 -16.81134,-0.65965 -37.4135,-0.65965 -61.80649,0 -24.392946,0.65924 -32.304171,-6.92331 -23.733677,-22.74765 7.911244,-48.13272 8.735321,-95.27639 2.472229,-141.43101 -6.263038,-46.15467 -2.472235,-89.34222 11.37241,-129.56264 v -0.98947 L 113.29936,517.32151 c -10.54831,-38.24242 -9.22977,-73.84741 3.95558,-106.81499 13.1854,-32.96758 7.25197,-84.39702 -17.800253,-154.28832 v 0.98899 c -8.570488,35.605 -22.415145,68.2429 -41.533976,97.91372 5.274151,23.73668 4.285244,52.41849 -2.966722,86.04543 -7.25196,33.62698 -6.263053,58.84721 2.966722,75.6607 9.229775,16.81345 10.218682,38.73689 2.966721,65.77033 -6.592679,0 -9.394575,-5.27483 -8.405688,-15.82444 0.988919,-10.54963 -0.824075,-19.12121 -5.43898,-25.71475 -6.59268,13.84641 -9.394576,25.5499 -8.405689,35.11048 0.988907,9.56063 4.450087,19.61574 10.383538,30.16536 3.296343,3.95627 3.955608,7.58272 1.977793,10.87939 -1.977814,3.29702 -6.26306,4.61571 -12.85574,3.95607 -13.185397,-18.46178 -19.778095,-35.6049 -19.778095,-51.42934 0,-16.4838 1.318547,-38.90177 3.955641,-67.25391 -5.274188,-67.91324 -5.274188,-114.39755 0,-139.45291 3.296339,-30.33031 12.855737,-74.17724 28.678194,-131.54081 7.251961,-27.69282 23.733678,-44.17662 49.445154,-49.45143 38.23763,-3.29675 58.67499,-8.90124 61.31208,-16.81349 2.63706,-7.9122 4.61487,-16.81346 5.93344,-26.70375 v 0 c -11.86687,-5.27481 -23.56891,-14.8354 -35.1061,-28.68178 -11.53723,-13.846385 -16.64656,-32.308251 -15.32804,-55.385597 0.65929,-25.714701 12.19649,-41.868806 34.61163,-48.4623139 22.41517,-6.59354318 46.14887,-7.747414 71.2011,-3.4616126 25.05222,4.2857663 41.86359,25.2201965 50.4341,62.8032905 5.93342,7.912201 12.19648,19.121172 18.78915,33.626917 3.95564,8.571576 3.95564,13.351876 0,14.340906 -3.95562,0.98903 -6.92233,2.80226 -8.90014,5.43967 2.6371,1.97805 3.62601,3.62643 2.96671,4.94512 -0.65924,1.31868 -2.30741,2.30771 -4.94451,2.96707 -1.31853,-0.65936 -0.98888,0.16484 0.98893,2.4726 1.97781,2.30772 1.64817,4.12094 -0.98893,5.43967 -2.63706,1.31867 -4.28523,5.27477 -4.94452,11.8683 -0.65928,6.59354 -3.46117,10.21998 -8.40568,10.87931 -4.94452,0.65936 -13.35019,0.65936 -25.21702,0 l -2.96671,15.82442 c 9.88902,6.59354 26.37073,9.56063 49.44516,8.90127 z M 206.25629,68.302859 c 0,7.252872 -2.96672,7.252872 -8.90015,0 -12.0375,-14.714416 -31.0093,-7.417912 -22.74476,11.868361 3.95563,9.230929 9.3946,17.307991 16.31692,24.23117 6.92233,6.9232 8.24086,13.51672 3.95558,19.78058 -4.28521,6.26382 -7.0871,12.03315 -8.40563,17.30796 -3.95563,38.24243 -19.11884,57.36365 -45.48963,57.36365 -26.37076,0 -31.31528,24.06633 -14.83354,72.19901 16.48175,48.13268 22.7448,90.6609 18.78919,127.58462 l 91.96801,20.76959 c 2.63709,-77.14418 9.39461,-128.24397 20.27255,-153.29934 10.87796,-25.05536 18.95401,-42.52821 24.22815,-52.41851 5.27415,-9.89026 -3.95562,-14.83537 -27.68932,-14.83537 -24.39294,0 -35.43568,-9.56063 -33.12825,-28.68187 2.30746,-19.12118 11.04278,-26.70372 26.20595,-22.74759 15.16317,3.95611 21.75586,-0.65937 19.77804,-13.84641 -9.22975,-5.93417 -12.36126,-9.89028 -9.39457,-11.8683 2.96672,-1.97807 8.40569,-3.29677 16.31694,-3.95613 -0.6593,-3.95612 2.96668,-7.25288 10.87793,-9.89027 -5.93343,-17.143167 -12.19649,-29.341187 -18.78917,-36.594059 -7.25197,-3.296742 -14.66875,-3.296742 -22.25035,0 -7.5816,3.296754 -15.32802,5.274813 -23.23923,5.934178 v -4.945113 c 5.27415,0 11.70203,-1.813223 19.28364,-5.439667 7.58161,-3.626444 15.32801,-3.791256 23.23922,-0.494434 -2.63705,-5.274814 -4.94449,-9.230933 -6.92231,-11.868357 -19.77809,0 -36.25981,4.615466 -49.44521,13.846396 z m 69.22326,55.385581 c 1.97781,-0.65936 2.6371,-1.3187 1.97785,-1.97802 -0.65929,-0.65938 -1.97783,-0.98906 -3.95563,-0.98906 -2.6371,0.65937 -5.60383,0.98906 -8.90017,0.98906 -3.29634,0 -4.61487,0.32965 -3.95559,0.98898 z m -13.84465,0.98899 c 0.65928,0.65937 1.97782,1.64839 3.95564,2.96708 1.97781,1.31872 4.28524,1.97809 6.92231,1.97809 1.31852,0.65934 2.14261,0.65934 2.47228,0 0.32962,-0.65936 0.16483,-1.64838 -0.49443,-2.96708 z m 15.8225,-14.83537 c -1.31856,-1.31869 -2.96676,-0.82417 -4.94457,1.48355 -4.25776,4.968 -10.02763,1.46508 -9.39458,-2.96704 0.73304,-5.13204 3.59059,-4.10924 2.96674,-0.98904 -0.58436,2.92229 2.26225,5.88943 5.93331,1.48353 5.50045,-6.60142 6.32932,-0.79181 5.43902,0.98905 z M 247.79028,84.127353 c -2.63709,-1.978058 -2.96673,-4.285799 -0.98892,-6.923224 l -9.88908,5.934159 c 3.95567,0.659364 7.58167,0.989053 10.878,0.989065 z m 13.84462,-2.967081 c -0.65925,-1.978053 -2.63705,-3.296762 -5.9334,-3.956126 1.31853,1.978053 0.98889,4.285794 -0.98893,6.923224 2.63711,-0.659365 4.94455,-1.648397 6.92233,-2.967098 z m 2.9667,3.956065 c -9.22973,5.27482 -19.4484,4.945158 -30.65598,-0.988984 l -11.86686,1.978043 0.98891,-4.945129 9.88902,-0.989047 c 11.86688,-7.912241 21.42628,-9.560619 28.67821,-4.945132 l 5.93344,5.93416 v 5.9341 z m -60.3231,9.890274 c -3.95562,1.978049 -4.94454,3.791276 -2.96671,5.439669 1.9778,1.64843 3.46115,1.64843 4.45,0 0.98891,-1.648393 0.49448,-3.46162 -1.48329,-5.439669 z m -1.97779,-37.583059 c 7.25192,-6.593508 23.40403,-11.208957 48.4563,-13.846345 -4.61492,-12.527687 -14.00951,-20.934429 -28.1838,-25.22023 -14.17428,-4.285802 -31.97454,-3.95612 -53.4008,0.989046 -21.42624,4.945131 -32.79864,17.307977 -34.11716,37.088535 -1.31858,20.439888 4.94448,37.912702 18.78916,52.418442 13.84465,14.50574 22.74478,18.79155 26.70042,12.85741 5.27414,-6.59354 2.30742,-15.98931 -8.90016,-28.18732 -21.62398,-23.534891 -9.07128,-57.384642 30.65604,-36.099538 z m -9.88909,15.824439 c -7.25196,-3.956068 -10.71311,-3.791257 -10.38347,0.494433 0.98277,8.545918 7.31258,16.128064 14.3391,20.769629 2.63705,1.648389 2.63705,0.494511 0,-3.461632 -2.63711,-3.956106 -2.63711,-5.274815 0,-3.956126 2.63705,1.318848 3.29632,1.98e-4 1.97778,-3.955948 -1.3185,-3.956145 -3.29631,-7.252931 -5.93341,-9.890356 z m 10.87795,16.81349 c 6.06109,3.637114 9.38163,11.963019 1.48342,14.835439 -7.79958,2.83653 -23.57153,-15.569765 -26.70049,-26.209223 -3.11051,-10.577004 -0.39232,-17.342129 9.39462,-13.846418 9.62818,3.439104 18.44471,18.663786 15.82245,25.220202 z m 34.61164,355.061009 -96.91259,-23.73666 c -18.45951,25.7147 -19.44842,57.69326 -2.96672,95.93568 L 115.27714,645.89509 H 278.44626 Z M 680.93016,648.86224 H 844.09923 L 821.35451,520.2886 c 16.48173,-38.90179 15.49276,-70.88035 -2.9669,-95.93569 l -96.91236,22.74761 z M 756.08682,90.061481 c -2.55159,-6.380003 5.79792,-21.71356 16.31684,-25.220179 12.42514,-4.142301 11.01469,6.657857 8.90483,13.846419 -3.12865,10.639074 -18.90071,29.045799 -26.70043,26.209219 -7.89799,-2.87242 -4.57871,-11.19798 1.4827,-14.835435 z m 10.87796,-16.81349 c -2.63698,2.637416 -4.61472,5.934188 -5.9332,9.890314 -1.31849,3.956107 -0.65925,5.274796 1.97773,3.956067 2.63698,-1.31869 2.80218,1.9e-5 0.49562,3.956126 -2.30736,3.956105 -2.30736,5.109982 0,3.461633 6.5654,-5.197323 12.87929,-12.148792 13.84438,-20.76963 0.33043,-4.285765 -3.13076,-4.450575 -10.38359,-0.494433 z m -9.88904,-15.824439 c 41.38128,-21.406787 52.00575,12.863199 30.65596,36.099538 -11.20751,12.19801 -14.17423,21.59378 -8.90011,28.18732 4.61488,5.93414 13.67985,1.64833 27.19489,-12.85741 13.51503,-14.50574 19.9429,-31.978554 19.28362,-52.418443 -1.3185,-19.780558 -12.69089,-32.143404 -34.11719,-37.088535 -21.42625,-4.945166 -39.39133,-5.274849 -53.89523,-0.989045 -14.50394,4.285801 -23.73373,12.692543 -27.68935,25.22023 24.39297,2.637389 40.21545,7.252838 47.46741,13.846345 z m -0.98886,37.583059 c -1.97773,1.978049 -2.63698,3.791276 -1.97773,5.439669 0.65924,1.64843 2.14274,1.64843 4.4505,0 2.30735,-1.648393 1.4831,-3.46162 -2.47277,-5.439669 z M 691.80805,87.09439 v -5.9341 l 5.93321,-5.934158 c 7.25196,-4.615488 16.81138,-2.967116 28.67823,4.945111 l 10.87795,0.989047 v 4.945112 l -10.87773,-1.978049 c -11.20759,5.934142 -21.42627,6.263804 -30.65601,0.988984 z m 5.93321,-5.9341 c 1.97812,1.318689 4.28557,2.307715 6.92231,2.96708 -1.97813,-2.637418 -1.97813,-4.945159 0,-6.923224 -3.29624,0.659364 -5.60366,1.978079 -6.92231,3.956144 z m 13.84467,2.96708 c 3.29663,0 6.92262,-0.329682 10.87796,-0.989047 l -9.88885,-5.934194 c 1.97813,2.637416 1.64851,4.945158 -0.98886,6.923224 z m -29.66714,25.7147 c -1.167,-2.33432 1.00733,-7.49514 6.42824,-0.98905 4.01911,4.82376 5.43876,0.60093 5.43876,-1.48353 0,-2.82005 1.46599,-4.26396 2.9666,0.98905 1.26627,4.43258 -4.41992,7.94271 -9.39502,2.96701 -2.30735,-2.30771 -4.12028,-2.80222 -5.43876,-1.48354 z m 16.81134,14.83539 -12.85577,1.97809 c -1.31848,1.3187 -1.6481,2.30772 -0.98886,2.96708 0.65924,0.65934 1.3185,0.65934 1.97775,0 2.63696,0 5.10924,-0.65937 7.4168,-1.97809 2.30735,-1.31869 3.79065,-2.30771 4.44989,-2.96708 z m 0,-1.97803 c 1.31849,-0.65933 0.32962,-0.98898 -2.96661,-0.98898 -3.29663,0 -6.26335,-0.32969 -8.90016,-0.98906 -2.63698,0 -4.12048,0.32968 -4.4505,0.98906 -0.33042,0.65932 0.16401,1.31866 1.4833,1.97802 z M 754.10879,68.302889 C 740.92341,59.071958 724.11204,54.456491 703.6747,54.456491 c -1.97773,2.637426 -3.95548,6.593546 -5.9332,11.868358 7.25196,-3.296742 14.83357,-3.13193 22.74484,0.494434 7.91117,3.626444 14.17423,5.439666 18.78914,5.439666 l 0.98887,4.945113 c -7.91123,-0.659364 -15.82246,-2.637418 -23.73373,-5.93416 -7.9112,-3.296742 -15.4928,-3.296742 -22.74477,0 -5.93341,7.252872 -12.19645,19.450894 -18.78914,36.594058 7.91122,2.63738 11.53719,5.93414 10.8779,9.89028 7.91126,0.65936 13.35025,1.97805 16.31697,3.9561 2.9666,1.97803 0.16469,5.93413 -8.40573,11.86831 -2.63697,13.18704 3.62607,17.80252 18.78914,13.84641 15.16323,-3.95611 23.89856,3.62643 26.206,22.7476 2.30735,19.12123 -8.40577,28.68185 -32.13939,28.68185 -24.39294,0 -33.78752,4.94512 -28.18374,14.83539 5.60379,9.8903 13.67984,27.36314 24.22815,52.4185 10.54831,25.05537 17.14099,76.15515 19.77807,153.29933 l 92.95669,-20.76967 c -4.61487,-36.92373 1.31857,-79.45194 17.80032,-127.58462 16.48169,-48.13269 11.53716,-72.19903 -14.8336,-72.19903 -26.37077,0 -41.53394,-19.12122 -45.48957,-57.36364 -1.31848,-5.27481 -4.12036,-11.04414 -8.40561,-17.30795 -4.2853,-6.26387 -2.9668,-12.85739 3.95548,-19.78059 6.9223,-6.92318 12.36124,-15.000238 16.31683,-24.231171 8.22831,-19.202537 -9.51487,-26.616505 -22.25022,-11.868362 -6.26307,7.252877 -9.06497,7.252877 -8.40567,0 z M 671.04113,182.04108 c 22.41512,0.65936 38.89685,-2.30773 49.44521,-8.90127 l -3.95547,-15.82444 c -11.20757,0.65937 -19.44843,0.65937 -24.72258,0 -5.27416,-0.65933 -8.07602,-4.28577 -8.4056,-10.87931 -0.33042,-6.59351 -1.97873,-10.54962 -4.94494,-11.8683 -2.967,-1.31873 -3.46144,-3.13195 -1.4833,-5.43967 1.97772,-2.30776 2.63697,-3.13195 1.97772,-2.47259 -2.63698,-0.65936 -4.4499,-1.6484 -5.43875,-2.96708 -0.98887,-1.31869 0.16479,-2.96707 3.46103,-4.94512 -2.63698,-2.6374 -5.76854,-4.45063 -9.39465,-5.43966 -3.62585,-0.98901 -3.79107,-5.76932 -0.49565,-14.340916 7.25191,-14.505744 13.84457,-25.714714 19.77801,-33.626914 7.91122,-37.583095 24.55777,-58.5175253 49.93965,-62.8032914 25.38185,-4.2858015 49.11554,-3.13193064 71.20109,3.4616126 22.08553,6.5935088 33.45792,22.7476128 34.11717,48.4623138 1.31849,23.077347 -3.62603,41.539212 -14.83356,55.385595 -11.20754,13.84638 -23.07437,23.40697 -35.60047,28.68178 v 0 c 1.31849,9.89029 3.46111,18.79155 6.42782,26.70375 2.967,7.91225 23.56916,13.51674 61.80647,16.81349 25.71151,5.27481 41.8636,21.75861 48.45629,49.45143 15.82247,57.36357 25.38188,101.21047 28.67823,131.5407 5.2742,25.05536 5.2742,71.53966 0,139.45291 2.63698,28.35213 3.95547,50.7701 3.95547,67.25389 0,15.82445 -6.26305,32.96762 -18.78914,51.42949 -6.59265,0.65964 -11.04272,-0.65905 -13.35019,-3.95607 -2.30736,-3.29702 -1.81293,-6.92348 1.4833,-10.87939 5.93341,-10.54964 9.39458,-20.60476 10.38353,-30.16539 0.98886,-9.56058 -1.48342,-21.26407 -7.41686,-35.11048 -5.27416,6.59354 -7.41678,15.16512 -6.42789,25.71475 0.98887,10.54961 -1.81301,15.82444 -8.40568,15.82444 -7.25192,-27.03344 -6.26305,-48.95688 2.96662,-65.77033 9.22974,-16.81349 10.21881,-42.03371 2.9672,-75.66069 -7.24982,-33.62685 -8.23773,-62.30862 -2.96374,-86.04529 -18.46072,-29.67089 -32.30598,-62.30884 -41.53577,-97.91384 v -0.98899 c -24.39294,69.8913 -30.16153,121.32074 -17.30576,154.28832 12.85576,32.96759 14.00943,68.57257 3.46103,106.81499 l 22.74485,150.33225 v 0.98946 c 14.50388,40.22047 18.6243,83.40804 12.3612,129.56271 -6.26304,46.15462 -5.43878,93.2983 2.47277,141.43101 7.91116,15.82438 -0.16491,23.40691 -24.2282,22.74758 -24.06337,-0.65964 -44.66553,-0.65964 -61.8065,0 -17.14104,0.65925 -31.64496,0.98887 -43.51177,0.98887 -12.52612,0.65922 -18.29477,-1.48368 -17.3059,-6.42872 0.98888,-4.94508 9.7242,-12.03311 26.206,-21.26409 28.34858,-2.63738 47.30256,-8.24186 56.86197,-16.81344 9.55941,-8.57161 13.67985,-25.3851 12.36132,-50.44047 -3.29663,-29.6708 -12.5264,-96.26532 -27.68931,-199.78357 l -74.16778,-0.98944 c -17.14101,13.84636 -24.5578,31.97853 -22.25036,54.39652 2.30735,22.41795 -7.91131,56.53943 -30.65602,102.36444 -22.74475,45.82492 -35.76531,85.2212 -39.0617,118.18886 0.65925,16.4837 -8.73533,22.7475 -28.18373,18.79141 -19.44843,-3.95587 -35.2709,-4.61511 -47.46742,-1.97775 -12.19647,2.63739 -30.82083,3.95607 -55.87305,3.95607 -20.43736,0.65927 -28.67824,-3.29683 -24.72262,-11.86831 3.95563,-8.57158 15.82249,-14.83543 35.60055,-18.79153 28.34858,-12.52764 48.45629,-20.6047 60.32315,-24.23119 11.86684,-3.62665 22.74479,-18.62687 32.63381,-45.00067 9.22975,-25.71482 22.74479,-90.99069 40.54513,-195.82763 v 0.98947 l 48.45599,-245.27876 c 0,-71.20999 -9.88901,-126.92522 -29.66703,-167.14566 v 0 c -8.57059,36.26383 -21.756,73.51698 -39.55626,111.7594 -8.5705,23.07731 -24.7226,47.30849 -48.45628,72.69356 -23.73372,25.38505 -35.9302,47.63817 -36.58946,66.75937 -0.65928,19.12119 -10.54831,38.2424 -29.66711,57.36362 -6.59268,-2.63742 -6.7575,-8.24191 -0.49447,-16.81348 6.26308,-8.5716 7.41681,-17.80253 3.46118,-27.6928 -13.18536,7.25287 -22.25031,15.16511 -27.19485,23.73673 -4.94455,8.57156 -8.07609,18.7915 -9.39462,30.65983 0,5.2748 -1.81298,8.57155 -5.43895,9.89025 -3.626,1.31869 -7.74643,-0.32968 -12.36129,-4.94513 0.65928,-22.41795 5.60378,-40.22044 14.83352,-53.4075 9.88903,-12.52768 24.72259,-28.6818 44.5007,-48.46237 29.6671,-61.9791 53.07116,-100.22149 70.21218,-114.72721 9.22978,-40.87981 20.76701,-83.7377 34.61167,-128.57367 2.63698,-29.67082 16.81126,-47.14364 42.52285,-52.41845 z"
     id="path1"
     sodipodi:nodetypes="ccccccscscscsscssccccccscsccsscccscsccccscccscccsscscscccsccccsssscssccscscssssccccsssscssccssssscscccsccscccccscscccscscccssssccccccccccccccccccccsccccsscscsccssccsccsscccccccccccccccscscccsscsccccscscsscccsccccccccccccccccccsccssssccccscssccscccccccsccscccscsssssccsscsssscccccsccccscsccsscssscccccscscscscsccccscccsccccscscccssccscscsccccsscsscscscscccccc" />
  <rect
     style="fill:none;fill-rule:evenodd;stroke:#613583;stroke-width:14;stroke-miterlimit:5;stroke-dasharray:none"
     id="rect1"
     width="859.57361"
     height="26"
     x="49.900753"
     y="967" />
</svg>
