<?xml version="1.0" encoding="UTF-8" standalone="no"?>
<svg
   width="1250"
   height="1000"
   id="svg2241"
   sodipodi:version="0.32"
   inkscape:version="1.4.2 (f4327f4, 2025-05-13)"
   sodipodi:docname="13539.svg"
   inkscape:output_extension="org.inkscape.output.svg.inkscape"
   sodipodi:modified="true"
   version="1.1"
   xmlns:inkscape="http://www.inkscape.org/namespaces/inkscape"
   xmlns:sodipodi="http://sodipodi.sourceforge.net/DTD/sodipodi-0.dtd"
   xmlns:xlink="http://www.w3.org/1999/xlink"
   xmlns="http://www.w3.org/2000/svg"
   xmlns:svg="http://www.w3.org/2000/svg"
   xmlns:rdf="http://www.w3.org/1999/02/22-rdf-syntax-ns#"
   xmlns:cc="http://creativecommons.org/ns#"
   xmlns:dc="http://purl.org/dc/elements/1.1/">
  <metadata
     id="metadata2248">
    <rdf:RDF>
      <cc:Work
         rdf:about="">
        <dc:format>image/svg+xml</dc:format>
        <dc:type
           rdf:resource="http://purl.org/dc/dcmitype/StillImage" />
      </cc:Work>
    </rdf:RDF>
  </metadata>
  <defs
     id="defs2246" />
  <sodipodi:namedview
     inkscape:window-height="998"
     inkscape:window-width="1680"
     inkscape:pageshadow="2"
     inkscape:pageopacity="0.0"
     guidetolerance="10.0"
     gridtolerance="10.0"
     objecttolerance="10.0"
     borderopacity="1.0"
     bordercolor="#666666"
     pagecolor="#ffffff"
     id="base"
     inkscape:showpageshadow="2"
     inkscape:pagecheckerboard="0"
     inkscape:deskcolor="#d1d1d1"
     inkscape:zoom="0.53386562"
     inkscape:cx="368.07015"
     inkscape:cy="484.20425"
     inkscape:window-x="-8"
     inkscape:window-y="-8"
     inkscape:window-maximized="1"
     inkscape:current-layer="svg2241"
     showguides="true">
    <sodipodi:guide
       position="0,1000"
       orientation="0,-1"
       id="guide1"
       inkscape:locked="false" />
    <sodipodi:guide
       position="0,0"
       orientation="0,-1"
       id="guide2"
       inkscape:locked="false" />
    <sodipodi:guide
       position="336.62471,961.30609"
       orientation="1,0"
       id="guide4"
       inkscape:locked="false" />
    <sodipodi:guide
       position="73.74295,856.29883"
       orientation="0,-1"
       id="guide5"
       inkscape:locked="false" />
    <sodipodi:guide
       position="844.76454,500.99116"
       orientation="1,0"
       id="guide8"
       inkscape:locked="false" />
    <sodipodi:guide
       position="336.62471,912.21128"
       orientation="0,-1"
       id="guide9"
       inkscape:locked="false" />
    <sodipodi:guide
       position="374.218,856.29883"
       orientation="1,0"
       id="guide10"
       inkscape:locked="false" />
    <sodipodi:guide
       position="446.86029,0"
       orientation="1,0"
       id="guide12"
       inkscape:locked="false" />
    <sodipodi:guide
       position="0,0"
       orientation="1,0"
       id="guide14"
       inkscape:locked="false" />
    <sodipodi:guide
       position="230.38497,889.76441"
       orientation="0,-1"
       id="guide3"
       inkscape:locked="false" />
    <sodipodi:guide
       position="446.86029,112.90118"
       orientation="0,-1"
       id="guide6"
       inkscape:locked="false" />
    <sodipodi:guide
       position="187.06819,889.76441"
       orientation="1,0"
       id="guide13"
       inkscape:locked="false" />
  </sodipodi:namedview>
  <path
     d="m 37.511662,110.23559 0,852.17101 H 336.62471 l 0,-852.17101 z M 374.218,864.6212 V 1000 H 1.1006443 L -0.08162771,71.54168 H 374.218 Z"
     style="fill:#000000;stroke:none;stroke-width:0.999998"
     id="path1"
     sodipodi:nodetypes="ccccccccccc" />
  <path
     style="fill:#000000;stroke:none;stroke-width:0.999998"
     d="m 676.63867,104.56836 c -0.0935,0.005 -0.19171,0.0261 -0.29492,0.0606 -1.1004,0.36693 -1.65039,1.46636 -1.65039,3.30078 0,1.83442 -0.55,3.11977 -1.65039,3.85351 -1.10096,0.7338 -2.56994,-0.18378 -4.4043,-2.75195 -1.83437,-2.56817 -3.11759,-3.85156 -3.85156,-3.85156 -1.46794,0 -2.38496,0.36586 -2.75195,1.09961 -0.36698,0.7338 -0.18319,1.83524 0.55078,3.30273 1.46738,-0.73375 3.30255,-1.2e-4 5.5039,2.20117 2.20112,2.20128 4.40217,2.93493 6.60352,2.20118 2.20079,-0.73374 3.30078,-2.56887 3.30078,-5.50391 0,-2.65988 -0.45136,-3.96411 -1.35547,-3.91211 z"
     id="path9" />
  <path
     style="fill:#000000;stroke:none;stroke-width:0.999998"
     d="m 692.25195,70.578125 c -3.54268,-0.13758 -6.82675,0.755516 -9.85351,2.681641 l -7.70508,6.603515 v 5.503907 h 3.30078 c 10.27261,4.402585 21.64713,4.402585 34.12109,0 l 12.10743,2.201171 v -6.603515 l -12.10743,-1.101563 c -7.3376,-5.961788 -13.95881,-9.055857 -19.86328,-9.285156 z m -3.25,3.783203 c -2.20135,2.935038 -2.20135,5.501832 0,7.703125 -3.66873,-0.733746 -6.23769,-1.467371 -7.70507,-2.201172 0.73379,-1.467492 3.30237,-3.300661 7.70507,-5.501953 z m 8.80469,2.201172 8.80469,5.501953 c -3.66878,0.73369 -7.33714,1.101563 -11.00586,1.101563 3.66873,-1.467547 4.40252,-3.668477 2.20117,-6.603516 z"
     id="path8" />
  <path
     style="fill:#000000;stroke:none;stroke-width:0.999998"
     d="m 766.28711,64.902344 c -1.0777,0.0688 -2.25894,0.28741 -3.54297,0.654297 -5.13633,1.46753 -10.08969,5.685515 -14.85937,12.65625 -4.76913,6.970735 -6.05291,11.55652 -3.85157,13.757812 -4.40231,2.201277 -6.78731,4.953952 -7.15429,8.255857 -0.36699,3.30192 1.2844,5.68675 4.95312,7.1543 3.66879,1.46749 8.98824,-1.10125 15.95899,-7.705079 6.97075,-6.603862 11.74026,-12.656951 14.30859,-18.160156 2.56778,-5.503204 2.93592,-9.907073 1.10156,-13.208984 -1.37581,-2.476559 -3.68096,-3.610708 -6.91406,-3.404297 z m -1.2793,7.607422 c 1.99925,0.0645 2.89589,1.231896 2.68946,3.501953 -0.36692,4.035674 -2.38596,8.255617 -6.05469,12.658203 -3.66878,4.40253 -6.96898,7.33714 -9.9043,8.804687 -2.93532,1.467547 -2.93532,0.182198 0,-3.853515 2.93532,-4.035546 2.93532,-5.503018 0,-4.402344 -2.93476,1.100619 -3.48476,-0.182778 -1.65039,-3.851562 1.83442,-3.668801 4.58518,-7.337076 8.25391,-11.00586 2.88907,-1.284079 5.11104,-1.90173 6.66601,-1.851562 z M 744.0332,97.474609 c 2.93476,2.935041 3.30292,5.135961 1.10157,6.603511 -2.20134,1.46739 -3.66838,1.28364 -4.40235,-0.55078 -0.73397,-1.83442 0.36602,-3.851438 3.30078,-6.052731 z"
     id="path7" />
  <path
     style="fill:#000000;stroke:none;stroke-width:0.999998"
     d="m 747.12891,0.06835937 c -6.558,0.18344109 -13.27724,0.73318995 -20.15625,1.65039063 -27.51597,3.6688026 -47.51043,23.847128 -59.98438,60.535156 -6.60388,8.071354 -13.02477,18.344421 -19.26172,30.81836 -6.23706,12.473934 -7.15465,19.260644 -2.75195,20.361324 4.40264,1.10061 7.7049,2.75184 9.90625,4.95313 -2.93532,2.2013 -4.21854,4.21831 -3.85156,6.05273 0.36687,1.83442 3.4854,3.11978 9.35547,3.85352 1.46738,-0.73374 0.18415,-1.3e-4 -3.85157,2.20117 -4.03571,2.20129 -4.58766,4.0344 -1.65234,5.50195 2.93532,1.46753 4.40234,5.87139 4.40234,13.20899 0,7.33761 3.11846,12.47316 9.35547,15.4082 6.23695,2.93504 13.94326,3.66872 23.11524,2.20117 9.17177,-1.46749 13.20584,2.20076 12.10547,11.00586 -1.10069,8.80514 -7.88738,13.94261 -20.36133,15.41016 -12.47396,1.46753 -28.61616,10.27132 -48.42774,26.41406 L 531.60938,253.76562 C 517.66791,218.54509 502.62516,173.41881 486.48242,118.38672 471.07346,99.308961 454.38144,84.266174 436.4043,73.259766 l 7.15429,39.623044 c 4.03568,8.80511 3.61124,21.76506 12.10743,26.41602 2.20131,41.09062 3.66859,70.80832 4.40234,89.15234 0.73378,18.34401 11.00682,49.52902 30.81836,93.55469 62.36965,-7.33764 123.63826,-23.48185 183.80664,-48.42969 2.20129,28.61668 4.79946,51.4934 5.5332,66.90235 -39.15481,10.08462 -90.26558,25.72778 -145.45703,38.86132 -24.17617,1.99727 -45.57315,7.85788 -64.18945,17.58008 -18.61631,9.72222 -34.65556,27.04199 -48.11914,51.96094 0.31911,7.36733 3.07325,11.04897 8.26172,11.04297 5.18848,-0.005 9.95842,-2.91476 14.31054,-8.73047 8.59976,-12.35774 18.34376,-21.91534 29.23242,-28.67188 10.88862,-6.75657 22.55854,-10.66001 35.00977,-11.71093 -5.17747,10.38243 -14.40511,18.38232 -27.68164,24 -13.27653,5.61761 -17.57522,11.79506 -12.89844,18.53515 32.26426,-7.60943 56.37406,-22.94039 72.33008,-45.99414 48.3634,6.38237 84.86479,7.61488 109.50586,3.69727 24.64109,-3.91751 37.7364,-9.43077 49.47656,-13.09961 l 17.60938,-11.00586 c 33.01923,-41.82436 59.61847,-81.08147 79.79687,-117.76953 20.17845,-36.68803 17.05993,-57.41609 -9.35547,-62.18555 -26.41535,-4.76942 -57.2326,33.57014 -92.45312,115.01758 -1.46738,-23.48034 -1.83553,-49.16199 -1.10156,-77.04492 -74.84363,30.0842 -138.31315,48.42743 -190.41016,55.03125 -16.87652,-39.62305 -26.4159,-72.4593 -28.61719,-98.50781 -2.20129,-26.0485 -4.76808,-48.24388 -7.70312,-66.5879 l 5.50195,-7.70507 c 14.67521,52.83076 29.71796,100.8917 45.12695,144.18359 12.47394,3.6688 57.96612,-10.27248 136.47852,-41.82422 11.74016,-15.40895 33.75352,-23.47914 66.03906,-24.21289 V 176.7207 c -2.20129,-20.54527 -11.55678,-29.16714 -28.0664,-25.86523 -16.50967,3.30193 -23.29664,-1.65169 -20.36133,-14.85938 11.0063,-5.87008 14.85838,-10.08808 11.55664,-12.65625 -3.30191,-2.56817 -8.98918,-4.21931 -17.06055,-4.95312 0,-3.66876 -4.03605,-7.70484 -12.10742,-12.10742 8.07137,-17.610279 15.77566,-29.716493 23.11328,-36.320316 8.07137,-3.668784 15.95957,-3.668784 23.66406,0 7.7045,3.668785 15.5927,6.235577 23.66407,7.703125 v -5.501953 c -5.13633,0 -11.73918,-2.384839 -19.81055,-7.154297 -8.07137,-4.769459 -16.14347,-5.321127 -24.21484,-1.652343 2.93529,-5.136331 5.50372,-9.170447 7.70507,-12.105469 21.27912,2.201274 38.88863,7.704633 52.83008,16.509765 -0.73374,8.805133 2.56863,9.354872 9.90625,1.650391 7.33763,-7.704514 14.49214,-9.905444 21.46289,-6.603515 6.9707,3.301928 7.88628,9.904795 2.75,19.810546 -5.13633,9.90579 -11.73916,18.343726 -19.81055,25.314456 -8.07137,6.9707 -9.17281,19.6286 -3.30273,37.97265 5.87008,18.34402 17.97852,35.03795 36.32227,50.08008 18.34393,15.04209 25.86425,32.10189 22.5625,51.17969 -3.30174,19.07776 -4.95313,51.17836 -4.95313,96.30469 0,45.12625 4.21995,89.1531 12.6582,132.07812 8.43824,42.92501 -0.67913,65.21378 -31.44116,77.99978 -35.72291,14.84795 -81.07196,22.4987 -151.54449,29.38223 -70.47253,6.88353 -108.50172,23.50821 -100.43036,54.32619 8.07138,30.81794 7.70552,66.58877 -1.09961,107.3125 -8.80512,40.72372 -10.82409,71.54288 -6.05469,92.45508 4.76946,20.91248 -1.46754,29.53201 -18.71094,25.86328 -17.24336,-3.66873 -35.03682,-2.933 -53.38086,2.20313 -18.34401,5.1361 -34.48626,6.96934 -48.42773,5.50195 59.43463,-19.07777 90.98552,-38.15464 94.6543,-57.23242 1.46755,-102.72657 2.56899,-173.90234 3.30273,-213.52539 0.33234,-17.94699 19.79049,-32.72431 51.82417,-50.40688 38.68978,-21.35674 103.64808,-41.62153 191.12912,-62.66932 l -1.92587,-19.71671 c -68.31917,14.24932 -134.46618,31.77526 -196.3445,61.75497 -47.11015,23.40151 -73.30024,45.53977 -71.09893,80.3934 2.20127,34.85365 3.66876,69.34098 4.40234,103.46094 0.7338,34.1199 0.7338,62.1864 0,84.19922 0,16.87648 -16.32617,31.36753 -48.97852,43.47461 -32.65235,12.10708 -50.2619,22.92989 -52.83007,32.46875 -2.56815,9.53869 -0.18328,14.30859 7.15429,14.30859 h 57.23243 c 23.48034,-6.60349 41.82551,-8.43922 55.0332,-5.5039 13.20768,2.93487 25.86558,1.46773 37.97265,-4.40235 12.10708,-5.87007 14.6739,-20.72893 7.70313,-44.57617 -6.9707,-23.84724 -4.76978,-54.84834 6.60352,-93.0039 11.37328,-38.15556 12.29081,-69.34058 2.75195,-93.55469 -9.53888,-24.21411 13.65572,-37.3456 52.46784,-40.03045 38.81219,-2.68486 74.98053,-6.03301 108.50227,-10.04476 l 21.80038,-3.23619 c 27.32283,-7.09235 43.59509,-14.29297 62.67287,-20.8968 -14.6752,71.17478 -23.29691,113.91629 -25.86524,128.22461 -2.56817,14.30832 0.73426,29.53504 9.90625,45.67773 9.17199,16.14279 5.68761,77.7772 -10.45508,184.90625 13.20742,34.48672 14.12334,50.63104 2.75,48.42969 -11.37328,-2.20135 -28.43312,-2.20135 -51.17968,0 -22.74662,2.20135 -42.19131,2.56699 -58.33399,1.09961 v -3.30078 c 28.61664,-5.13634 52.09738,-11.55723 70.44141,-19.26172 18.34382,-7.70445 25.3148,-40.90654 20.91211,-99.60742 l -17.61133,-9.35544 c 5.87013,52.46388 1.28431,82.54745 -13.75781,90.25195 -15.04207,7.70444 -31.7341,13.39182 -50.07813,17.06055 -18.34403,3.66878 -30.81799,8.80433 -37.42187,15.4082 -6.60349,6.60388 -7.70543,11.92523 -3.30274,15.96094 4.40259,4.03588 8.8063,7.15412 13.20899,9.35547 h 88.05078 c 13.20764,-4.40269 22.19516,-5.13844 26.96484,-2.20313 4.76946,2.93476 12.47374,4.03671 23.11328,3.30274 10.6397,-0.73375 15.96094,-9.17177 15.96094,-25.31445 -8.80523,-27.88297 -11.00817,-52.83093 -6.60547,-74.84376 4.40259,-22.01281 8.2549,-48.61201 11.55664,-79.79687 3.30192,-31.18481 -1.64972,-68.79078 -14.85742,-112.81641 L 824.38086,567.4473 c 19.07778,-17.61023 24.76308,-48.05964 17.05859,-91.35157 -7.70433,-43.29189 -11.74044,-83.8324 -12.10742,-121.62109 -0.36698,-37.78864 1.10255,-72.09221 4.4043,-102.91016 3.30191,-30.81795 -4.22044,-51.72991 -22.56445,-62.73633 -18.34404,-11.00643 -31.55168,-26.04919 -39.62305,-45.12695 19.07777,-4.40259 34.48635,-13.57419 46.22656,-27.51562 11.74016,-13.94147 17.61133,-33.386115 17.61133,-58.333988 0,-24.947836 -11.19062,-41.457908 -33.57031,-49.5292964 -16.78477,-6.0535137 -35.01353,-8.80422946 -54.6875,-8.25390623 z M 752.83789,13 c 9.72233,0.550328 20.54513,2.293459 32.46875,5.228516 23.84723,5.870078 35.77149,19.443585 35.77148,40.722656 0,22.012817 -7.88819,40.541901 -23.66406,55.583988 -15.77581,15.04207 -25.86488,18.89425 -30.26758,11.55664 -5.13633,-5.87008 -1.28418,-15.2256 11.55664,-28.066409 12.84074,-12.840812 15.95935,-25.314809 9.35547,-37.421875 C 781.45471,48.496489 767.88121,47.578936 747.33594,57.851562 739.99831,49.78021 722.75461,43.909035 695.60547,40.240234 701.4756,27.032551 711.93059,18.594621 726.97266,14.925781 734.49372,13.09138 743.11556,12.449672 752.83789,13 Z m 30.81836,212.69922 c 13.94156,0.36688 12.10638,13.75842 -5.50391,40.17383 -17.61023,26.4154 -41.08901,61.63452 -70.43945,105.66015 -22.01282,10.27266 -50.17127,19.97343 -90.11914,23.12891 -39.94791,3.1555 -66.51427,2.71661 -79.69727,-1.31641 56.7485,-12.61635 110.18614,-25.76255 155.50782,-37.2207 8.80512,-7.33761 22.56252,-31.00223 41.27343,-70.99219 18.7109,-39.98996 35.03707,-59.80057 48.97852,-59.43359 z"
     id="path1-8"
     sodipodi:nodetypes="sscsscscssssscsccccccsccccscccscsccsccsscccsccccccscscccsccscccssssssssssssssssccsscccsccsssccssssscccsscssccsccsscscccscssccsssscssssssssscssccsssscsccss" />
  <path
     id="path15"
     style="fill:#000000;stroke:none;stroke-width:0.999998"
     d="M 680.19531 126.0918 C 678.72794 127.55933 676.71088 128.84269 674.14258 129.94336 C 671.57463 131.04387 669.18963 131.59375 666.98828 131.59375 C 665.5209 132.3275 664.42147 132.3275 663.6875 131.59375 C 662.95353 130.85995 663.68732 129.76052 665.88867 128.29297 L 680.19531 126.0918 L 680.19531 126.0918 " />
  <path
     id="path14"
     style="fill:#000000;stroke:none;stroke-width:0.999998"
     d="M 664.01367 121.32812 C 664.66718 121.29372 665.47438 121.41232 666.4375 121.6875 C 669.00561 122.42125 672.12424 123.15682 675.79297 123.89062 C 678.74515 124.48098 680.27352 124.83388 680.375 124.94922 L 680.377 124.95122 L 680.377 124.95322 L 680.379 124.95522 L 680.379 124.95722 L 680.379 124.95922 L 680.379 124.96122 L 680.379 124.96322 L 680.379 124.96522 L 680.377 124.96722 L 680.375 124.96922 C 680.3552 124.98222 680.2928 124.99072 680.19531 124.99072 L 662.58594 124.99072 C 661.85198 124.99072 661.66817 124.2571 662.03516 122.78955 C 662.26452 121.8723 662.92449 121.38592 664.01367 121.32861 L 664.01367 121.32812 L 664.01367 121.32812 " />
  <path
     id="path11"
     style="fill:#000000;stroke:none;stroke-width:0.999998"
     d="m 700.00781,397.94922 v 0 c 3.44472,20.66876 5.27209,58.14381 5.48242,78.81254 l 22.0159,-1.36528 c -0.27186,-39.33794 -3.56887,-80.02684 -9.88867,-88.45316"
     sodipodi:nodetypes="csccc" />
  <rect
     style="fill:#63452c;fill-rule:evenodd;stroke-width:58.0001;stroke-linecap:round;stroke-miterlimit:2"
     id="rect10"
     width="110.23558"
     height="112.90118"
     x="336.62469"
     y="887.09882" />
  <use
     x="0"
     y="0"
     xlink:href="#rect10"
     id="use11"
     transform="translate(5.364418e-7,-203.88929)" />
  <use
     x="0"
     y="0"
     xlink:href="#rect10"
     id="use12"
     transform="translate(9.4726556e-6,-815.55714)" />
  <use
     x="0"
     y="0"
     xlink:href="#use11"
     id="use13"
     transform="translate(-5.364418e-7,-407.77857)" />
  <use
     x="0"
     y="0"
     xlink:href="#rect10"
     id="use3"
     transform="translate(0,-407.77857)" />
  <path
     style="fill:#000000;stroke:none;stroke-width:0.999998"
     d="m 709.91407,589.46094 c -0.734,26.4154 -0.9178,54.11414 -0.5508,83.09765 0.3668,28.98357 4.5848,52.4643 12.6563,70.44141 8.0714,17.97716 15.042,53.19823 20.9121,105.66211 l 17.6113,9.35547 c -4.4025,-58.70083 -11.5572,-99.97504 -21.4629,-123.82227 -9.906,-23.84724 -12.291,-72.45987 -7.1543,-145.83593 z"
     id="path30"
     sodipodi:nodetypes="cssccscc" />
  <use
     x="0"
     y="0"
     xlink:href="#rect10"
     id="use31"
     transform="translate(-409.34863)" />
  <use
     x="0"
     y="0"
     xlink:href="#use11"
     id="use32"
     transform="translate(-409.34863)" />
  <use
     x="0"
     y="0"
     xlink:href="#use12"
     id="use33"
     transform="translate(-409.34863)" />
  <use
     x="0"
     y="0"
     xlink:href="#use13"
     id="use34"
     transform="translate(-409.34863)" />
  <use
     x="0"
     y="0"
     xlink:href="#use3"
     id="use35"
     transform="translate(-409.34863)" />
  <use
     x="0"
     y="0"
     xlink:href="#use33"
     id="use1"
     transform="rotate(90,70.195946,142.91987)" />
  <use
     x="0"
     y="0"
     xlink:href="#use1"
     id="use2"
     transform="translate(203.88928)" />
</svg>
