<?xml version="1.0" encoding="UTF-8" standalone="no"?>
<svg
   width="900"
   height="1000"
   id="svg2214"
   sodipodi:version="0.32"
   inkscape:version="1.4.2 (f4327f4, 2025-05-13)"
   sodipodi:docname="13564.svg"
   inkscape:output_extension="org.inkscape.output.svg.inkscape"
   sodipodi:modified="true"
   version="1.1"
   xmlns:inkscape="http://www.inkscape.org/namespaces/inkscape"
   xmlns:sodipodi="http://sodipodi.sourceforge.net/DTD/sodipodi-0.dtd"
   xmlns="http://www.w3.org/2000/svg"
   xmlns:svg="http://www.w3.org/2000/svg"
   xmlns:rdf="http://www.w3.org/1999/02/22-rdf-syntax-ns#"
   xmlns:cc="http://creativecommons.org/ns#"
   xmlns:dc="http://purl.org/dc/elements/1.1/">
  <metadata
     id="metadata2221">
    <rdf:RDF>
      <cc:Work
         rdf:about="">
        <dc:format>image/svg+xml</dc:format>
        <dc:type
           rdf:resource="http://purl.org/dc/dcmitype/StillImage" />
      </cc:Work>
    </rdf:RDF>
  </metadata>
  <defs
     id="defs2219" />
  <sodipodi:namedview
     inkscape:window-height="998"
     inkscape:window-width="1680"
     inkscape:pageshadow="2"
     inkscape:pageopacity="0.0"
     guidetolerance="10.0"
     gridtolerance="10.0"
     objecttolerance="10.0"
     borderopacity="1.0"
     bordercolor="#666666"
     pagecolor="#ffffff"
     id="base"
     inkscape:showpageshadow="2"
     inkscape:pagecheckerboard="0"
     inkscape:deskcolor="#d1d1d1"
     showguides="true"
     inkscape:zoom="0.70710678"
     inkscape:cx="451.84123"
     inkscape:cy="242.53763"
     inkscape:window-x="-8"
     inkscape:window-y="-8"
     inkscape:window-maximized="1"
     inkscape:current-layer="svg2214">
    <sodipodi:guide
       position="771.94531,596.64062"
       orientation="0,-1"
       id="guide1"
       inkscape:locked="false" />
    <sodipodi:guide
       position="700.66211,539.26562"
       orientation="0,-1"
       id="guide2"
       inkscape:locked="false" />
    <sodipodi:guide
       position="773.68555,467.98242"
       orientation="1,0"
       id="guide3"
       inkscape:locked="false" />
    <sodipodi:guide
       position="539.52248,829.61523"
       orientation="0,-1"
       id="guide4"
       inkscape:locked="false" />
    <sodipodi:guide
       position="781.81717,807.61524"
       orientation="0,-1"
       id="guide5"
       inkscape:locked="false" />
    <sodipodi:guide
       position="84.323239,812.22852"
       orientation="1,0"
       id="guide6"
       inkscape:locked="false" />
    <sodipodi:guide
       position="900,1000"
       orientation="0,-1"
       id="guide7"
       inkscape:locked="false" />
    <sodipodi:guide
       position="900,0"
       orientation="0,-1"
       id="guide8"
       inkscape:locked="false" />
  </sodipodi:namedview>
  <path
     style="fill:#000000;stroke:none;stroke-width:55.6358"
     d="m 478.11914,0 c -43.80341,6.6368634 -66.89017,29.723626 -69.54492,69.544922 -5.97321,7.964259 -11.8225,20.170325 -19.12305,34.771488 -3.98215,9.29162 -3.98216,14.32104 0,15.64843 3.98211,1.32736 6.70036,3.22377 8.69141,5.21485 -2.8395,2.12965 -4.62731,6.95508 3.47851,6.95508 0.66368,0 0.25293,1.15365 -1.73828,3.47656 -1.99103,2.3229 -2.98658,4.22131 0,5.21679 2.98659,0.99557 4.88299,5.20116 5.21485,12.16993 0.33159,6.96871 3.38387,9.76798 8.69336,10.43164 5.30949,0.66367 14.13366,0.66367 26.08007,0 l 1.73829,6.95508 H 161.69141 c -0.83377,-12.4299 -3.62322,-24.3071 -8.69336,-38.25 -8.62792,-1.99105 -12.16992,2.37471 -12.16993,15.64843 l -33.0332,1.73828 c -9.291652,5.3095 -12.011806,12.89903 -8.693358,20.86329 H 84.323239 v 17.38671 h 18.254881 c 7.19773,20.92507 25.8094,47.18507 59.11329,79.97657 43.13974,42.47605 77.76887,68.6919 104.3164,79.97461 14.60112,-3.31845 57.89634,-29.5343 126.91992,-79.97461 19.91063,41.81235 29.55664,99.11731 29.55665,172.12304 l -48.68165,253.83789 c -18.58323,108.18112 -32.43491,176.20674 -41.72656,203.41797 -9.95531,27.21123 -22.49523,43.29115 -34.77344,46.94141 -12.27826,3.65026 -32.31297,11.068 -60.85156,24.3418 -19.91063,3.98185 -30.78934,10.16519 -34.77148,19.125 -3.98213,8.95974 3.76552,12.83354 24.33984,12.16992 25.88383,0 45.09673,-0.48892 57.375,-3.47656 12.27821,-2.98653 28.77101,-2.57572 48.68164,1.73828 19.91063,4.314 28.48201,-1.86902 27.81836,-19.125 2.65477,-33.84807 16.7592,-74.24945 39.98828,-121.70313 23.22908,-47.45368 33.28597,-82.82754 31.29492,-106.05664 -1.99106,-23.2291 6.00936,-42.77194 22.60157,-57.37305 h 74.75976 c 15.92852,108.18112 26.23817,178.10315 29.55664,208.63282 1.32747,25.88381 -4.28472,43.1984 -13.9082,52.1582 -9.62347,8.95981 -27.09812,14.73195 -55.63672,17.38672 -17.25591,9.95529 -26.82089,17.62389 -27.8164,22.60156 -0.99555,4.97774 4.77469,5.88042 17.38476,5.2168 11.94637,0 26.21091,0.66372 43.4668,0 17.25584,-0.66374 38.03333,-0.66374 62.58984,0 24.55645,0.66372 32.30411,-7.74765 24.33984,-24.33985 -7.96424,-49.77659 -8.04337,-98.25937 -1.73828,-146.04492 6.30504,-47.78555 1.7674,-93.13526 -12.16992,-135.61133 L 572.00586,538.9707 c 13.93748,-39.15763 10.14269,-83.27466 -10.43164,-130.39648 -7.30056,-19.91066 0.69982,-66.49308 22.60156,-140.82617 5.97316,37.83024 18.33935,77.89971 38.25,121.70312 -5.30932,23.89281 -3.41315,54.90091 5.21484,90.40821 8.62794,35.50729 7.14241,61.2332 -3.47656,76.49804 -10.61898,15.26484 -12.51732,36.04235 -5.21679,62.58985 6.6369,0.66373 9.68891,-5.02729 8.69335,-15.64649 -0.99531,-10.61903 1.64576,-19.44318 6.95508,-26.08008 5.97322,13.27374 7.95057,24.81814 6.95508,34.77344 -0.99532,9.95535 -4.46054,20.67594 -10.43359,31.29492 -3.31868,3.98185 -3.72948,7.11319 -1.73828,10.43164 1.9912,3.31812 5.53508,4.1403 12.17187,3.47657 13.27375,-18.58323 20.86328,-34.49141 20.86328,-50.41993 0,-16.59219 -2.56185,-39.26805 -5.21679,-67.80664 5.30932,-69.02357 5.30932,-116.27164 0,-140.82812 -3.31812,-30.52964 -12.96443,-82.3943 -29.55665,-154.73633 -7.30056,-32.5207 -34.34021,-50.32527 -83.45312,-55.63477 H 773.68555 V 170.38477 H 523.32422 c -4.47989,-6.96873 -7.28692,-15.05016 -6.95508,-24.3418 11.94637,-5.3095 24.89718,-16.6938 36.51172,-31.29492 C 564.49538,100.14689 568.11642,81.267776 566.78906,57.375 566.12538,30.827471 556.89026,14.334676 538.9707,8.6933594 521.05113,3.0520049 500.68458,0.6636973 478.11914,0 Z m 6.95508,17.386719 c 9.04276,0.165906 18.77172,0.987713 29.55664,3.476562 21.56983,4.977659 34.52064,17.675676 36.51172,38.25 0.66368,21.238021 -6.92781,40.369946 -20.86524,55.634769 -13.93747,15.26482 -23.17057,18.80873 -27.8164,12.17187 -5.30949,-6.6369 -1.18288,-15.20829 10.43164,-27.818358 20.71628,-22.49191 11.75495,-61.747781 -31.29492,-36.511718 -7.30056,-7.300562 -23.46149,-12.991731 -48.68164,-15.646485 4.64581,-13.273764 13.21722,-21.766119 27.81836,-26.080078 7.30058,-2.156998 15.29707,-3.642486 24.33984,-3.476562 z M 425.96094,57.375 c 20.57429,0 38.22071,4.61653 52.1582,13.908203 -0.66368,7.964258 2.38614,9.368827 8.69336,1.738281 15.14457,-18.32206 30.69963,-6.517649 22.60171,12.169921 -4.314,9.955312 -10.41603,17.373075 -17.38476,24.341795 -6.96872,6.96871 -7.79252,14.22638 -3.47852,20.86328 4.31394,6.6369 7.36597,12.74092 8.69336,17.38672 1.42739,8.38588 2.56626,15.4868 5.2168,22.60157 h -41.72656 c -3.60675,-14.39476 -10.95221,-21.09021 -24.3418,-17.38672 -15.59667,4.31396 -23.51804,0.0292 -20.86328,-13.90821 8.62792,-5.9732 11.67993,-10.17887 8.69336,-12.16992 -2.9866,-1.99105 -7.68419,-2.81482 -15.64844,-3.47851 0.31247,-7.6379 -6.7414,-8.83876 -12.16992,-10.43164 6.63686,-17.255926 14.22642,-29.209214 20.86328,-36.509771 7.30059,-3.982146 14.97109,-5.390535 22.60351,-1.740234 7.63241,3.650318 15.71191,6.291421 24.33985,6.955078 L 462.47266,76.5 c -5.30947,0 -11.49255,-1.234646 -19.125,-5.216797 -7.63241,-3.982113 -14.6373,-5.056698 -22.60157,-1.738281 2.65476,-4.645808 3.88746,-8.851471 5.21485,-12.169922 z m 74.5957,9.552734 C 488.43045,66.702897 476.46,87.034463 481.59766,93.884767 c -6.75969,3.379798 -10.58121,13.065663 -3.47852,15.648433 7.30478,2.6563 24.44073,-15.947091 27.81836,-26.080074 1.77306,-5.31927 3.36463,-16.363255 -5.38086,-16.525392 z m -1.57422,7.832032 c 6.77412,0.356481 -2.77614,20.51403 -10.43164,24.341796 -2.65476,1.327388 -2.65472,0.503336 0,-3.478515 2.65476,-3.982146 1.24831,-4.803954 -1.73828,-3.476563 -2.9866,1.327358 -3.39751,-1.232736 -1.73828,-5.214843 2.91524,-6.996587 7.10467,-12.529918 13.9082,-12.171875 z m -66.1582,1.541015 c -4.31599,-0.203249 -8.88413,1.352857 -12.07813,3.675781 l -5.21679,5.214844 v 6.955078 l 1.73828,-1.738281 c 9.29165,4.645808 21.08877,4.234885 33.03515,-1.738281 l 10.43165,1.738281 v -5.216797 h -10.43165 c -7.09634,-5.125129 -11.98938,-8.632127 -17.47851,-8.890625 z m -5.125,3.675781 c -1.32736,2.654771 -1.99104,6.03861 0,8.69336 -2.65477,-1.327414 -4.96209,-2.814837 -6.95313,-3.478516 0.66368,-1.991037 3.63468,-3.887485 6.95313,-5.214844 z m 8.69336,1.738282 10.43164,5.216797 c -3.98211,1.327397 -8.85148,1.738281 -12.16992,1.738281 2.65476,-1.991093 3.72934,-4.300323 1.73828,-6.955078 z m 43.4668,19.124996 c 3.98212,1.99104 4.06118,3.55563 1.73828,5.21485 -2.3229,1.65923 -2.81485,1.99109 -3.47852,0 -0.6637,-1.99105 -0.25079,-3.88749 1.74024,-5.21485 z m -73.20761,25.41717 c 3.95966,0 7.56253,0.65511 10.61581,2.40119 h -10.43164 c -3.93737,-0.93265 -2.32902,-2.40119 -0.18417,-2.40119 z m 14.09432,4.13947 c -1.90961,3.81924 -7.4904,5.32155 -10.65261,5.87776 -4.00267,0.70405 -5.9798,-2.07707 -1.51926,-4.13947 z m -259.05468,57.375 h 269.48632 c -6.37394,2.45738 -13.99786,3.47657 -20.86328,3.47657 -11.28267,0 -24.05977,7.33674 -39.98828,22.60156 -28.53863,17.91957 -61.93506,44.80108 -99.10156,79.97656 -9.29165,-13.93746 -47.71749,-42.71536 -114.75,-85.1914 2.35307,-6.66705 4.48592,-13.61689 5.2168,-20.86329 z m 300.78125,0 h 48.68164 c 6.88576,11.19974 14.96134,19.27532 26.07812,26.07813 22.23355,13.60561 27.18396,43.46007 13.91016,86.93164 -13.27373,43.47159 -17.48138,80.48908 -12.17188,113.00977 l -92.14648,22.60156 c -2.65475,-79.64259 -9.91246,-133.73745 -20.86328,-159.95313 -10.95085,-26.21568 -20.43676,-43.94118 -26.07813,-53.89648 -5.64135,-9.95531 5.00021,-13.9082 29.55664,-13.9082 19.95213,0 30.82565,-7.50007 33.03321,-20.86329 z m 81.71484,252.09961 c 21.90168,27.21119 21.64893,58.86737 1.73828,97.36133 L 570.26562,672.8457 H 403.35938 l 41.72656,-210.37304 z"
     id="path2216"
     sodipodi:nodetypes="cccscscscsccccccccccscccccscsccscsscccscscsscscccccsscccscscsccccccccscscsscscsccssccsssscccscscccsccsccscssssscssssccccccccscccccccccsscsccscsccccsccccccssccsssccccccc" />
  <path
     d="m 733.83959,210.88941 c -29.7603,26.12916 -44.8208,56.25114 -45.1813,90.36426 -0.5548,34.1137 14.6942,51.17054 45.1813,51.17054 29.7602,0 44.4546,-17.05684 44.094,-51.17054 -0.5547,-34.11312 -15.0604,-64.2351 -44.094,-90.36426 z m -21.8113,-40.50464 -17.4235,-21.77467 c -3.6056,-13.06513 0.5546,-16.69406 11.9762,-10.88733 l 27.2198,30.48421 27.2196,-30.48421 c 11.6103,-5.80673 15.2381,-2.18002 10.8835,10.88733 l -16.3307,21.77467 v 22 c 29.0337,32.662 43.5504,70.7674 43.5504,114.31674 0,47.17826 -21.7723,70.76741 -65.3228,70.76741 -43.5506,0 -65.323,-23.58915 -65.323,-70.76741 0,-42.82323 14.5168,-80.92918 43.5505,-114.31674"
     style="fill:#000000;stroke:none;stroke-width:1"
     id="path1-7"
     sodipodi:nodetypes="ccsccccccccccsssc" />
  <rect
     style="fill:#1a5fb4;fill-rule:evenodd;stroke:none;stroke-width:25;stroke-linecap:round;stroke-miterlimit:5"
     id="rect8"
     width="723.3761"
     height="21.999996"
     x="58.441071"
     y="170.38477" />
</svg>
