<?xml version="1.0" encoding="UTF-8" standalone="no"?>
<svg
   width="1100"
   height="1000"
   version="1.1"
   id="svg1"
   sodipodi:docname="13590.svg"
   inkscape:version="1.4.2 (f4327f4, 2025-05-13)"
   xmlns:inkscape="http://www.inkscape.org/namespaces/inkscape"
   xmlns:sodipodi="http://sodipodi.sourceforge.net/DTD/sodipodi-0.dtd"
   xmlns="http://www.w3.org/2000/svg"
   xmlns:svg="http://www.w3.org/2000/svg">
  <defs
     id="defs1" />
  <sodipodi:namedview
     id="namedview1"
     pagecolor="#ffffff"
     bordercolor="#666666"
     borderopacity="1.0"
     inkscape:showpageshadow="2"
     inkscape:pageopacity="0.0"
     inkscape:pagecheckerboard="0"
     inkscape:deskcolor="#d1d1d1"
     inkscape:zoom="0.53386562"
     inkscape:cx="356.83137"
     inkscape:cy="650.91286"
     inkscape:window-width="1680"
     inkscape:window-height="998"
     inkscape:window-x="-8"
     inkscape:window-y="-8"
     inkscape:window-maximized="1"
     inkscape:current-layer="svg1" />
  <path
     id="path1"
     style="fill:#000000;stroke:none;stroke-width:1"
     d="M 497.63477,0.1875 C 485.32779,-0.4107556 472.67819,0.40095985 459.6875,2.6230469 433.70613,7.0672208 416.27116,28.77403 407.38281,67.746094 c -6.15349,8.20468 -12.64913,19.829254 -19.48633,34.871096 -4.10234,8.88835 -4.10234,14.01536 0,15.38281 4.10231,1.36745 7.17929,3.07776 9.23047,5.12891 -5.98617,4.48968 -2.94817,8.20507 2.05274,8.20507 1.36741,0 1.02381,1.02502 -1.02735,3.07618 -2.05115,2.05115 -1.70755,3.7595 1.02735,5.12695 2.73486,1.36745 4.44321,5.64125 5.12695,12.82031 0.68371,7.17907 3.58888,10.93942 8.7168,11.28125 5.12788,0.34188 13.84536,0.17199 26.15234,-0.51172 l 3.07813,16.40821 c -20.13752,2.87279 -39.24197,6.64635 -65.63868,19.48632 -17.26667,8.39891 -28.51174,24.28927 -33.84375,46.1504 -16.40928,54.69763 -27.00692,97.77348 -31.79296,129.2246 -31.45113,4.10234 -73.15835,10.25435 -125.1211,18.45899 -8.88838,-8.88835 -20.51101,-15.38399 -34.86914,-19.48633 C 131.16039,312.51804 80.907537,209.27699 0.22851562,63.644531 -2.5063407,158.68165 19.372269,261.23937 65.865234,371.31836 c 26.665119,-10.9395 44.441736,-15.0415 53.330076,-12.30664 l 4.10157,9.23047 c -4.10234,-0.68374 -13.33136,-4.1e-4 -27.689458,2.05078 -2.051189,12.99069 1.367474,20.16966 10.255858,21.53711 1.36745,25.29763 9.57144,39.31393 24.61328,42.04883 0,23.24652 5.47063,33.84411 16.41016,31.79297 12.99069,-0.68375 17.77605,-12.30637 14.35742,-34.86915 L 171.5,427.72656 c 42.39067,-2.73486 74.52523,-2.73486 96.4043,0 21.87904,2.7349 48.42699,-2.31831 72.35722,-10.52296 27.96697,-62.59277 42.56262,-110.22284 51.07442,-147.52391 23.98082,53.59685 28.60715,111.13718 29.38086,169.32812 l -50.25391,254.34375 c -18.46044,108.02785 -32.13509,175.71564 -41.02344,203.06446 -10.25583,26.66508 -21.7086,41.87823 -34.35742,45.63867 -12.64881,3.7605 -33.67225,12.47795 -63.07226,26.15234 -19.82788,3.4186 -31.79418,9.57259 -35.89649,18.46094 -4.10234,8.88832 4.10361,12.99028 24.61524,12.30664 26.66512,0 46.15008,-1.36652 58.45703,-4.10156 12.30698,-2.73497 28.71692,-2.05152 49.22851,2.05078 20.51162,4.10227 30.42589,-2.3934 29.74219,-19.48633 2.73485,-34.18606 16.06587,-74.86822 39.99609,-122.04492 23.93023,-47.17675 34.69967,-82.55817 32.30664,-106.14649 -2.39302,-23.58835 4.9578,-42.56174 22.05079,-56.91992 l 76.91796,1.02539 c 16.40928,107.34411 26.32341,176.40044 29.74219,207.16797 1.36745,25.98141 -2.90635,43.41634 -12.82031,52.30469 -9.91396,8.88823 -29.57076,14.69855 -58.9707,17.43359 -17.09299,9.5721 -26.15212,16.9229 -27.17774,22.05078 -1.02558,5.12784 4.61493,7.69141 16.92188,7.69141 12.99072,0 28.20381,-0.51338 45.63867,-1.53906 17.43487,-1.02569 38.80001,-1.02569 64.09766,0 25.29765,1.0255 33.50361,-6.66497 24.61523,-23.07422 -8.20468,-50.59535 -9.05977,-99.82319 -2.56445,-147.6836 6.49532,-47.86041 2.56317,-92.6446 -11.79493,-134.35156 v -1.02539 L 573.52734,536.4375 c 10.93936,-39.65577 9.57283,-76.40581 -4.10156,-110.25 -22.81252,-56.46089 16.99137,-156.69577 20.57227,-163.32031 11.25484,38.51589 14.85378,55.45905 47.11586,116.70572 l 47.59492,-7.30413 c -7.67025,-30.87469 -19.8965,-78.37395 -44.51942,-131.19847 -9.65378,-39.58033 -41.10852,-51.22099 -53.33007,-52.30469 -39.64727,-3.51559 -60.85105,-9.2309 -63.58594,-17.43554 -2.7349,-8.20464 -4.7849,-17.43366 -6.15235,-27.68946 12.30695,-5.46978 24.44309,-15.38405 36.40821,-29.74218 C 565.49434,99.540298 570.79312,80.395031 569.42578,56.464844 568.74204,29.799726 556.77578,13.050087 533.5293,6.2128906 521.90604,2.7942924 509.94174,0.7857556 497.63477,0.1875 Z m -12.56446,15.767578 c 9.23023,0.170926 19.40127,1.537623 30.51172,4.101563 22.22091,5.127915 34.01537,17.94931 35.38281,38.460937 1.36745,21.195331 -5.12815,39.313625 -19.48632,54.355472 -14.3581,15.04184 -23.58907,19.48548 -27.69141,13.33203 -5.46975,-6.1535 -2.39277,-15.72611 9.23047,-28.716799 22.47067,-25.114206 9.33486,-59.978042 -31.79297,-37.945312 -7.52093,-6.837197 -24.27057,-11.624482 -50.25195,-14.359375 4.78604,-12.990688 14.52851,-21.70817 29.22851,-26.152344 7.35001,-2.222087 15.63891,-3.247098 24.86914,-3.076172 z m -59.22656,40.509766 c 20.51162,0 37.6049,4.787285 51.2793,14.359375 0,7.5209 3.07697,7.5209 9.23047,0 12.38557,-15.137933 32.20536,-8.005182 23.58789,12.820312 -4.10234,9.913924 -9.74285,18.287799 -16.92188,25.124999 -7.17907,6.83719 -8.54573,13.50463 -4.10156,20 4.44417,6.49536 7.34935,12.47752 8.7168,17.94727 4.1023,39.65577 19.82692,59.48437 47.17578,59.48437 27.34878,0 32.47775,25.12544 15.38476,75.37891 -14.49449,42.61387 -21.36877,80.68004 -20.62247,114.19856 0.13379,6.00901 0.5125,11.87186 1.13614,17.58855 l -95.3789,21.53711 c -2.73486,-79.99528 -9.74399,-132.98347 -21.02539,-158.96485 -11.28137,-25.98137 -19.65525,-44.09967 -25.125,-54.35547 -5.46979,-10.25583 4.10091,-15.38281 28.71484,-15.38281 25.29763,0 36.75045,-9.9143 34.35742,-29.74219 -2.39298,-19.82788 -11.45215,-27.69019 -27.17773,-23.58789 -15.72554,4.10234 -22.56287,-0.68498 -20.51172,-14.35937 9.57209,-6.15349 12.81895,-10.2555 9.74219,-12.30664 -3.07673,-2.0512 -8.71724,-3.41786 -16.92188,-4.10156 0.6837,-4.10234 -3.07661,-7.52096 -11.28125,-10.25586 6.1535,-17.7767 12.64914,-30.426331 19.48633,-37.947269 7.52094,-3.418599 15.2134,-3.418599 23.07617,0 7.86281,3.418598 15.89696,5.81224 24.10156,7.179687 v -6.154297 c -5.46971,0 -12.13718,-1.880193 -20,-5.640625 -7.86281,-3.760469 -15.89695,-3.930317 -24.10156,-0.511718 2.73486,-5.469787 5.12854,-9.573738 7.17969,-12.308594 z m 75.5,9.783203 c -12.23247,0.14396 -24.21871,19.453292 -21.14453,27.138672 -6.27963,3.767762 -9.7321,12.402831 -1.53711,15.382811 8.08995,2.94184 24.444,-16.143323 27.68945,-27.177733 0.77133,-2.622487 4.08165,-15.450702 -5.00781,-15.34375 z m -1.5293,6.755859 c 1.79477,0.08546 2.60649,1.238851 2.43555,3.460938 -0.34183,4.44421 -2.22203,8.718009 -5.64062,12.820312 -3.41864,4.10234 -6.49561,7.007516 -9.23047,8.716797 -2.7349,1.709315 -2.7349,0.512494 0,-3.589844 2.73486,-4.102303 2.73486,-5.469009 0,-4.101562 -2.7349,1.367409 -3.41823,0.170588 -2.05079,-3.589844 1.48349,-4.079551 6.00733,-14.120527 14.48633,-13.716797 z m -70.65429,2.5 c -3.49338,-0.128194 -6.65037,0.70328 -9.47071,2.498047 l -6.15234,6.154297 v 6.154297 l 3.07617,-2.052735 c 9.57205,5.469751 20.16973,5.469751 31.79297,0 l 12.30664,1.027344 -1.02539,-5.128906 h -10.25586 c -7.69187,-5.555217 -14.44918,-8.438686 -20.27148,-8.652344 z m -3.31641,4.550782 c -1.36741,2.051151 -1.02576,4.442877 1.02539,7.177734 -2.73489,-0.683705 -5.12853,-1.708725 -7.17969,-3.076172 0.68371,-2.051151 2.7357,-3.417858 6.1543,-4.101562 z m 9.23047,1.02539 10.25586,5.126953 c -4.10231,0.683706 -7.86266,1.36704 -11.28125,2.050781 2.73485,-2.734892 3.07654,-5.126583 1.02539,-7.177734 z m 44.09961,17.433594 c 4.1023,2.734888 5.12732,4.786848 3.07617,6.154298 -2.05115,1.36741 -3.58962,1.19561 -4.61523,-0.51367 -1.02558,-1.70932 -0.51213,-3.58948 1.53906,-5.640628 z m -64.09766,13.333938 c 0.56233,2.24948 -2.26693,5.69017 -6.15429,1.02539 -5.7091,-6.85092 -6.56134,-0.81609 -5.64063,1.02539 1.36745,-1.36746 3.07581,-0.68412 5.12695,2.05078 4.49347,5.9912 10.37733,0.84232 9.74414,-3.58984 -0.7614,-5.32965 -3.71065,-3.04951 -3.07617,-0.51172 z M 15.611328,120.05078 C 53.89965,197.99491 87.061183,270.81167 115.09375,338.5 106.20536,337.81629 93.214086,340.55162 76.121094,346.70508 51.507128,290.64002 31.336873,215.08793 15.611328,120.05078 Z m 391.771482,5.12891 c 4.17997,-0.10367 9.73381,0.57872 13.33399,2.05078 l -15.38477,1.02539 c -4.32946,-1.44314 -1.93695,-2.97726 2.05078,-3.07617 z m 12.30664,4.10156 c -2.32749,4.07164 -7.09702,4.54011 -11.28125,5.12891 -4.68303,0.69526 -4.62298,-1.49327 -2.05078,-3.07618 z m 125.1211,307.67578 c 19.14414,26.66512 20.17112,59.8247 3.07812,99.48047 l 23.58789,133.32617 h -169.2207 l 42.04883,-208.19336 z"
     sodipodi:nodetypes="ssccscsssssccsccccccccccccccscccccscscsscsscccscsssscscccsccccsscscsssscscsccssccsssscsssccssssscscccsccsccscssssssssssssccccccccscccccccccsscsscsssccccsccssscscccccc" />
  <path
     style="fill:#f9f06b;stroke:#000000;stroke-width:1px;stroke-linecap:butt;stroke-linejoin:miter;stroke-opacity:1"
     d="m 314.03362,600.72984 276.93907,-32.703 -3.73133,59.04449 -175.0469,-6.51594 z"
     id="path4"
     sodipodi:nodetypes="ccccc" />
  <path
     d="m 684.70883,372.26878 c 2.2936,27.87248 3.38956,59.8579 -2.37154,81.14126 -5.7612,21.28338 -10.05092,54.16827 -12.86721,98.65233 24.40881,5.26688 36.54311,14.04831 35.40741,27.00729 -0.1725,11.02336 -13.0851,12.64306 -34.76484,5.18999 1.77245,16.82115 -13.53677,25.02148 -45.92968,24.59961 -2.59433,8.61043 -10.18042,10.99406 -22.75782,7.15039 -0.32297,-17.30743 0.5741,-28.57535 2.69141,-33.80078 l -4.86837,-0.19818 c -6.1436,7.2764 -8.09642,25.41509 -5.85738,54.41706 -119.23754,7.83578 -223.29938,-5.11782 -312.18755,-38.85836 166.41957,-29.09603 269.46054,-42.49798 334.02853,-42.79413 4.13924,-9.77386 11.5212,-18.05506 22.14454,-24.84375 -1.55052,-52.69465 -3.83209,-105.98397 -0.26242,-150.3586 z M 578.52598,579.16119 c -73.1376,4.29259 -152.80097,11.7484 -238.9898,22.36778 94.51851,15.4301 172.1833,21.03068 232.99508,16.80318 -0.20965,-18.16576 1.78894,-31.2221 5.99472,-39.17096 z"
     style="fill:#000000;stroke:none;stroke-width:1"
     id="path1-6"
     sodipodi:nodetypes="csccccccccccccccccc" />
</svg>
