<?xml version="1.0" encoding="UTF-8" standalone="no"?>
<svg
   width="900"
   height="1000"
   id="svg1333"
   sodipodi:version="0.32"
   inkscape:version="1.4.2 (f4327f4, 2025-05-13)"
   sodipodi:docname="135A9.svg"
   version="1.1"
   xmlns:inkscape="http://www.inkscape.org/namespaces/inkscape"
   xmlns:sodipodi="http://sodipodi.sourceforge.net/DTD/sodipodi-0.dtd"
   xmlns:xlink="http://www.w3.org/1999/xlink"
   xmlns="http://www.w3.org/2000/svg"
   xmlns:svg="http://www.w3.org/2000/svg"
   xmlns:rdf="http://www.w3.org/1999/02/22-rdf-syntax-ns#"
   xmlns:cc="http://creativecommons.org/ns#"
   xmlns:dc="http://purl.org/dc/elements/1.1/">
  <metadata
     id="metadata1340">
    <rdf:RDF>
      <cc:Work
         rdf:about="">
        <dc:format>image/svg+xml</dc:format>
        <dc:type
           rdf:resource="http://purl.org/dc/dcmitype/StillImage" />
        <dc:creator>
          <cc:Agent>
            <dc:title>Serge Thomas</dc:title>
          </cc:Agent>
        </dc:creator>
        <dc:publisher>
          <cc:Agent>
            <dc:title>Serge Rosmorduc</dc:title>
          </cc:Agent>
        </dc:publisher>
        <dc:date>03/04/06</dc:date>
        <dc:description>variante optimisée du signe de Jsesh</dc:description>
        <cc:license
           rdf:resource="http://creativecommons.org/licenses/GPL/2.0/" />
      </cc:Work>
      <cc:License
         rdf:about="http://creativecommons.org/licenses/GPL/2.0/">
        <cc:permits
           rdf:resource="http://web.resource.org/cc/Reproduction" />
        <cc:permits
           rdf:resource="http://web.resource.org/cc/Distribution" />
        <cc:requires
           rdf:resource="http://web.resource.org/cc/Notice" />
        <cc:permits
           rdf:resource="http://web.resource.org/cc/DerivativeWorks" />
        <cc:requires
           rdf:resource="http://web.resource.org/cc/ShareAlike" />
        <cc:requires
           rdf:resource="http://web.resource.org/cc/SourceCode" />
      </cc:License>
    </rdf:RDF>
  </metadata>
  <defs
     id="defs1338">
    <marker
       style="overflow:visible"
       id="Triangle"
       refX="0"
       refY="0"
       orient="auto-start-reverse"
       inkscape:stockid="Triangle arrow"
       markerWidth="1"
       markerHeight="1"
       viewBox="0 0 1 1"
       inkscape:isstock="true">
      <path
         transform="scale(0.5)"
         style="fill:context-stroke;fill-rule:evenodd;stroke:context-stroke;stroke-width:1pt"
         d="M 5.77,0 -2.88,5 V -5 Z"
         id="path135" />
    </marker>
    <marker
       style="overflow:visible"
       id="marker3"
       refX="0"
       refY="0"
       orient="auto-start-reverse"
       inkscape:stockid="Triangle arrow"
       markerWidth="0.69999999"
       markerHeight="0.5"
       viewBox="0 0 1 1"
       inkscape:isstock="true"
       inkscape:collect="always"
       preserveAspectRatio="none">
      <path
         transform="scale(0.5)"
         style="fill:context-stroke;fill-rule:evenodd;stroke:context-stroke;stroke-width:1pt"
         d="M 5.77,0 -2.88,5 V -5 Z"
         id="path3" />
    </marker>
  </defs>
  <sodipodi:namedview
     inkscape:window-height="998"
     inkscape:window-width="1680"
     inkscape:pageshadow="2"
     inkscape:pageopacity="0.0"
     borderopacity="1.0"
     bordercolor="#666666"
     pagecolor="#ffffff"
     id="base"
     inkscape:zoom="0.3775"
     inkscape:cx="229.13907"
     inkscape:cy="600"
     inkscape:window-x="-8"
     inkscape:window-y="-8"
     inkscape:current-layer="svg1333"
     inkscape:showpageshadow="2"
     inkscape:pagecheckerboard="0"
     inkscape:deskcolor="#d1d1d1"
     showguides="true"
     inkscape:window-maximized="1">
    <sodipodi:guide
       position="800,1000"
       orientation="0,-1"
       id="guide1"
       inkscape:locked="false" />
    <sodipodi:guide
       position="800,0"
       orientation="0,-1"
       id="guide2"
       inkscape:locked="false" />
    <sodipodi:guide
       position="1428.9261,881.99354"
       orientation="0,-1"
       id="guide6"
       inkscape:locked="false" />
    <sodipodi:guide
       position="1102.453,364.72076"
       orientation="0,-1"
       id="guide8"
       inkscape:locked="false" />
    <sodipodi:guide
       position="266.48032,396.53137"
       orientation="0,-1"
       id="guide11"
       inkscape:locked="false" />
    <sodipodi:guide
       position="422.69644,219.63203"
       orientation="-0.41380513,0.91036548"
       id="guide18"
       inkscape:locked="false" />
    <sodipodi:guide
       position="51.133108,496.75501"
       orientation="1,0"
       id="guide3"
       inkscape:locked="false" />
  </sodipodi:namedview>
  <path
     style="fill:#000000;stroke:none;stroke-width:1"
     d="m 593.77778,118.21898 c -7.6744,0.39356 -15.4919,1.33446 -23.4506,2.82127 -31.835,5.94719 -54.3987,31.30908 -67.6925,76.08798 -8.396,10.49504 -17.4919,24.48943 -27.2872,41.98118 -5.5975,11.89439 -5.7723,18.53999 -0.5247,19.93936 5.2474,1.39934 9.2698,3.84954 12.0685,7.34788 -3.4985,2.099 -4.8975,4.37251 -4.1977,6.82136 0.6996,2.44885 2.7982,3.67304 6.2966,3.67304 0.6997,0 -0.3496,1.22422 -3.1483,3.67303 -2.7985,2.44885 -2.2723,4.72233 1.576,6.82137 3.8481,2.09901 5.7719,7.34734 5.7719,15.74338 0,8.39601 1.99548,11.77925 4.1977,13.64273 8.01201,6.77964 22.84609,6.64285 39.8805,5.24899 l 2.0989,18.88992 c -53.1749,5.59734 -87.4577,18.19266 -102.8504,37.78342 -49.6767,29.38614 -96.41503,65.98909 -152.38853,116.36536 -28.44974,-5.6414 -58.62784,-10.09061 -96.48753,-6.57355 -37.85968,3.51709 -67.62379,1.91374 -76.63956,0.0683 C 74.081767,469.29298 48.828466,465.69588 1.1707066,468.85645 c -3.7109547,9.71685 2.0966456,16.14255 17.4247274,19.27588 -15.5430495,38.85218 3.655526,57.77109 32.34135,57.39147 21.064041,-0.27876 31.504008,-5.11927 55.089266,-15.11703 87.26497,12.16151 143.33071,16.50683 196.15303,15.15704 11.8944,-8.39603 52.8247,-37.7821 122.7917,-88.15833 11.1948,-6.99671 20.2905,-5.94739 27.2872,3.14832 0,18.89109 10.1451,48.10225 30.4356,87.63362 20.2903,39.53136 25.1889,97.77879 14.6939,174.74251 -81.8614,-95.85481 -137.1357,-146.58038 -165.8223,-152.17776 -30.0858,5.59738 -49.6764,16.79178 -58.7722,33.58387 -26.5874,59.47194 -48.6265,156.02637 -66.1182,289.66336 -6.2971,33.58424 -19.0673,51.25123 -38.3083,53.00026 -19.2408,1.74921 -51.9497,8.22172 -98.128002,19.41651 -36.3828,0 -36.3828,10.84462 0,32.53441 H 262.29858 c 8.3961,-8.39598 9.7951,-25.18858 4.1978,-50.3767 -5.5974,-25.18814 1.3999,-57.37235 20.9905,-96.55387 18.9751,-37.94988 28.761,-78.19679 29.3574,-120.74128 l -1.0206,145.92963 c -16.7921,15.39276 -27.2888,27.28676 -31.4868,35.68276 -9.0957,17.49173 -6.8204,36.38283 6.8231,56.6733 13.6436,20.29048 31.3105,30.43558 53.0003,30.43558 23.7888,0 70.8401,-15.91809 141.1569,-47.75307 70.3168,-31.83501 121.9187,-51.25085 154.8031,-58.24753 26.5875,30.08577 18.1912,60.17192 -25.1883,81.86171 -28.6865,0 -28.6865,8.04645 0,24.13889 h 31.4849 c 23.7888,-2.79872 36.0325,-9.44613 36.7323,-19.94113 7.6964,-33.58419 18.1913,-80.81079 31.485,-133.28606 0,-20.99013 -10.1452,-31.48499 -30.4356,-31.48499 16.0925,-23.08909 18.5426,-53.1765 7.3479,-90.25901 -28.9259,-95.04623 -11.4869,-197.04944 6.2966,-284.41436 l 30.4355,-69.26842 c -20.2904,-23.7888 -52.4763,-35.68276 -96.5556,-35.68276 V 296.8322 c 17.4917,2.79866 33.5847,-3.84877 48.2779,-19.94115 14.6929,-16.09242 21.3403,-44.42918 19.9411,-85.01002 0,-30.08584 -13.6446,-50.90073 -40.9318,-62.44526 -20.4653,-8.65843 -42.2088,-12.39748 -65.2324,-11.21679 z m 5.8043,18.30051 c 11.6321,0.69967 24.446,2.88571 38.4393,6.55899 27.9869,7.34652 41.9795,24.31396 41.9795,50.90143 -3.4985,34.28384 -11.7198,57.89871 -24.6637,70.84258 -12.9439,12.9439 -23.9635,15.56714 -33.0591,7.8708 -10.4951,-6.29704 -8.2216,-17.14168 6.8213,-32.53443 28.9541,-29.62741 15.4841,-74.94434 -37.2569,-49.32727 -9.0957,-9.09567 -29.3859,-16.44266 -60.8711,-22.04003 6.2971,-15.39276 18.7156,-25.36298 37.2569,-29.91084 9.2707,-2.27393 19.7218,-3.06092 31.3538,-2.36123 z m -77.0062,46.96602 c 25.8877,2.099 46.8775,9.09441 62.97,20.98879 -0.6997,9.79542 3.4975,10.14695 12.5933,1.05124 18.2486,-18.24871 41.3241,-9.60075 28.8613,16.79104 -5.9471,12.59405 -13.817,23.08895 -23.6123,31.48499 -9.7955,8.39604 -12.2456,16.79232 -7.348,25.18836 4.8977,8.39604 8.7469,15.39325 11.5457,20.99059 v 35.68275 c 0,8.39604 4.1972,15.91789 12.5933,22.56475 8.3961,6.6469 24.1393,9.96968 47.2284,9.96968 22.3894,0 30.0861,8.3963 23.0894,25.18835 -35.5287,86.83223 -42.0906,178.69642 -36.734,270.77165 l -131.1871,61.92235 c 7.6964,-89.55781 0.8741,-153.22848 -20.4659,-191.01063 -21.3399,-37.78218 -32.0097,-84.31052 -32.0097,-139.58449 0,-18.19139 15.7433,-27.28723 47.2283,-27.28723 32.8844,0 48.6259,-9.0958 47.2267,-27.28723 -1.3994,-25.88779 -12.9436,-37.43199 -34.6334,-34.63331 -21.6897,2.79866 -30.7855,-3.499 -27.2872,-18.89171 13.2938,-6.99671 18.0157,-12.06837 14.1675,-15.21689 -3.8482,-3.14851 -10.6687,-5.07224 -20.4641,-5.77191 0,-6.29704 -4.5489,-11.19562 -13.6445,-14.69396 9.0956,-21.68976 18.1915,-36.73166 27.2872,-45.1277 8.3961,-4.89771 17.4918,-5.07258 27.2872,-0.52473 9.7954,4.54786 19.5907,7.87068 29.3862,9.96968 v -6.29664 c -6.2971,-0.69966 -14.3436,-3.84938 -24.139,-9.44676 -9.7954,-5.59734 -19.9405,-6.29688 -30.4355,-2.09888 4.198,-6.29704 7.6975,-11.19381 10.4962,-14.69215 z m 94.2825,17.50444 c -16.8373,-0.80162 -32.6517,25.39293 -28.1642,32.87227 -9.2563,5.28933 -13.3907,14.6277 -3.673,18.3652 9.8939,3.80539 32.1792,-20.17672 36.7321,-32.53444 4.2225,-11.46079 2.015,-18.374 -4.8949,-18.70303 z m -90.6256,6.53564 c -4.362,-0.19678 -8.3809,0.88576 -12.0542,3.24716 l -8.3956,7.34607 v 6.29664 h 4.1978 c 11.8944,6.29704 25.1892,6.29704 39.8823,0 l 14.6922,3.14832 v -7.34608 l -13.6427,-1.04944 c -9.1832,-7.43401 -17.4098,-11.3147 -24.6798,-11.64267 z m 86.7063,2.2049 c 3.0368,0 4.2231,1.43559 3.5671,4.71529 -2.1242,10.62067 -11.1151,22.88526 -18.8917,25.71308 -3.8483,1.39934 -3.8483,-0.34953 0,-5.24721 3.8482,-4.8977 3.8482,-6.64832 0,-5.24899 -3.8481,1.39934 -4.7227,-0.17467 -2.6237,-4.72248 0.7803,-1.69065 7.2162,-15.20969 17.9483,-15.20969 z m -90.3632,3.14114 c -2.7987,2.7987 -2.7987,5.94661 0,9.44495 -3.4983,-0.69967 -6.648,-2.09872 -9.4468,-4.19776 1.3994,-2.09901 4.5491,-3.84786 9.4468,-5.24719 z m 9.4449,2.09888 12.5933,7.34607 c -4.8976,0.69967 -9.4446,1.04944 -13.6427,1.04944 3.4985,-2.09899 3.8482,-4.89714 1.0494,-8.39551 z m 56.6734,26.23778 c 3.4984,2.09897 4.023,4.19764 1.5742,6.29664 -2.4488,2.09901 -4.1976,1.92413 -5.2472,-0.52472 -1.0495,-2.44881 0.1748,-4.37259 3.673,-5.77192 z m -82.3865,11.54384 c 0.6592,3.95421 -3.5396,5.85388 -7.346,0.52472 -4.8394,-6.77493 -10.0212,-2.72661 -7.8708,1.57416 1.3993,-1.3989 3.4981,-0.52469 6.2966,2.6236 6.1428,6.91081 12.8361,0.44552 11.5439,-4.72248 -1.5386,-6.15669 -3.2827,-3.95379 -2.6237,0 z m -13.5205,16.44781 c 2.5898,-0.10142 4.4351,1.11829 14.0452,1.91919 4.1983,0.34981 5.947,0.87447 5.2473,1.57416 l -19.9394,1.04943 c -3.9913,-1.33043 -2.4803,-4.42014 0.6469,-4.54278 z m 19.2925,6.64166 c -4.4681,2.87528 -9.2237,5.86269 -14.6922,6.29664 -6.4901,0 -5.3448,-3.09938 -3.1483,-4.19776 z m -175.2672,325.34612 c 32.8845,15.39276 82.5607,61.92109 149.0294,139.58449 -46.8779,28.68646 -96.5542,66.81855 -149.0294,114.39612 z m 320.0989,82.91114 c 10.495,32.18484 15.7434,61.92063 15.7434,89.20778 0,26.58744 -8.3963,44.42935 -25.1884,53.52502 -16.7921,9.09575 -47.5772,22.03898 -92.3561,38.83107 -66.4687,-9.79538 -128.7402,16.79257 -186.8128,79.76281 4.8976,-35.68314 43.3795,-96.55389 115.4455,-182.61331 z"
     id="path1-7"
     sodipodi:nodetypes="ssccsccscsssccccscccsccccsccccscccsscccsssccccccccccccscsssscscsccssccsssscssscccssscscscccsccsccscssssccccccccsscssssscccccccccsccsscscsssccscscccccccsscccc" />
  <path
     d="M 613.95238,124.89712 715.99536,16.266919 c 22.33181,-19.7042974 38.69156,-20.8891211 58.1281,-6.8964021 20.95206,15.0838811 19.54216,29.8852581 9.36065,44.3351811 -10.18142,14.449931 -22.82529,18.391094 -37.93132,11.822501 L 700.08212,142.19648 C 689.57336,113.29665 669.3631,114.78997 658.85435,114.78997 l -9.85419,10.83756 m 18.37405,-28.571046 c 19.70324,1.968818 26.59876,4.325506 31.03713,13.013736 l 40.26832,-64.245825 c 17.0798,7.881819 22.50783,5.22667 28.41936,-0.684826 5.91155,-5.910979 9.90968,-15.525959 -3.7261,-21.74714 -15.26213,-6.968904 -15.37787,-5.983996 -33.1124,4.169267 z"
     style="fill:#000000;stroke:none;stroke-width:1"
     id="path1"
     sodipodi:nodetypes="ccssccccccccccc" />
  <path
     style="fill:#000000;stroke:none;stroke-width:60.6093"
     d="m 764.85655,199.8655 -383.26671,467.91968 6.19421,6.33869 31.46919,1.73864 c 40.44464,1.07781 71.20995,-11.25487 92.29585,-36.99805 21.08584,-25.74312 33.93938,-66.66345 38.5606,-122.76096 l -19.06577,-16.88163 98.60747,-120.38711 19.68591,16.12448 c 49.1271,-9.52231 84.95713,-28.03836 107.49008,-55.54822 22.53289,-27.50978 29.49482,-61.23723 20.88565,-101.18213 l -6.04211,-32.78184 z m -5.36472,-11.98503 c -4.54293,-3.72104 -2.26641,-11.13403 6.82946,-22.23892 12.08126,-13.72005 23.57361,-20.5427 34.47673,-20.46792 10.90323,0.0748 18.5216,4.41728 22.8555,13.0272 4.33366,8.61012 1.74579,18.72012 -7.76357,30.32979 l -23.13316,-8.82672 c 28.3332,70.43872 23.68789,128.62504 -13.93595,174.55894 -31.00858,37.85751 -66.78338,60.42503 -107.32436,67.70251 l -92.40577,112.81561 c -2.0442,44.71363 -17.12354,84.23252 -45.23805,118.55671 -38.03727,46.43863 -93.75542,61.94842 -167.15451,46.52935 l 13.21022,20.9414 c -9.09588,11.10489 -18.39468,15.50705 -27.89644,13.20649 -9.5018,-2.30056 -15.36305,-8.7883 -17.58384,-19.46319 -2.22075,-10.67486 2.20475,-23.28582 13.27658,-37.83277 7.44207,-9.08582 14.46817,-13.03013 21.07831,-11.83294 z m -109.00151,239.65135 -28.01459,-22.94638 -7.44208,9.08582 28.01461,22.94638 z m -20.46569,24.98599 -28.01458,-22.94638 -7.44207,9.08582 28.01459,22.94639 z m -20.46566,24.986 -27.25748,-22.32621 -6.82189,8.32867 27.25745,22.32622 z m -20.46572,24.98598 -28.01459,-22.94637 -7.44211,9.08585 28.01461,22.94638 z"
     id="path2"
     inkscape:transform-center-x="-5.6202793"
     inkscape:transform-center-y="-28.984366" />
  <path
     id="path1-2"
     style="fill:#a51d2d;stroke:none;stroke-width:1"
     d="m 728.27938,371.3457 -30.4355,69.26953 c 19.5145,41.15866 28.36214,60.04106 54.27654,92.70004 -40.42879,-21.20996 -69.23337,-37.06322 -126.61328,-54.77992 -26.91248,-20.44041 -47.4323,-36.09033 -94.3259,-45.15853 -6.06095,8.45299 -2.07778,16.14408 11.94888,23.07401 -18.68828,25.21601 -20.16589,43.20699 -4.58254,54.56472 19.11206,13.92958 40.65199,17.30475 75.72623,7.90664 63.90492,33.59336 117.55748,54.58955 172.30925,69.62465 15.79904,4.3385 33.38072,-4.02 29.99902,-18.21286 -12.3064,-51.64926 -35.8818,-102.30918 -88.3027,-198.98828 z"
     sodipodi:nodetypes="ccccccscssc" />
  <use
     x="0"
     y="0"
     xlink:href="#path1"
     id="use9"
     transform="matrix(-1,0,0,1,1204.1923,-2.0767952e-5)" />
  <path
     style="fill:none;stroke:#613583;stroke-width:15;stroke-linecap:butt;stroke-linejoin:miter;stroke-dasharray:none;stroke-opacity:1;marker-end:url(#marker3)"
     d="M -206.72383,348.73281 75.627882,0.82385651"
     id="path6"
     sodipodi:nodetypes="cc"
     inkscape:transform-center-y="-104.54492"
     inkscape:transform-center-x="-78.288232" />
  <use
     x="0"
     y="0"
     xlink:href="#path6"
     inkscape:transform-center-x="-69.656054"
     inkscape:transform-center-y="-110.48403"
     id="use3"
     transform="rotate(-8.1642069,-167.95332,297.59729)" />
  <use
     x="0"
     y="0"
     xlink:href="#path6"
     inkscape:transform-center-x="-97.884887"
     inkscape:transform-center-y="-86.471013"
     id="use4"
     transform="rotate(8.1486801,-171.33855,296.15466)" />
  <path
     id="path3-0"
     style="fill:#000000;stroke:none;stroke-width:55.6248"
     d="m 13.324964,700.04235 37.808144,66.0766 V 361.09481 C 38.419237,345.09342 32.244359,330.39877 32.608287,317.01077 32.89731,306.3784 37.310754,296.57004 45.848059,287.58592 h 5.285049 v -20.86585 c -4.019605,0 -5.285049,-4.4722 -5.285049,-13.41487 0,-8.94267 -2.303868,-13.24769 -6.911292,-12.91642 -4.065388,-0.33127 -6.504584,5.96125 -7.31766,18.87849 -0.813076,12.9172 -3.523728,22.35691 -8.131156,28.31865 -4.607447,5.96183 -6.911286,16.56019 -6.911286,31.79586 0,14.90447 3.523445,27.57311 10.570115,38.00622 7.046666,10.43313 11.654387,22.27478 13.822575,35.52319 l 1.7e-5,321.40371 h -0.407134 z"
     sodipodi:nodetypes="cccscccscsssscccc" />
  <use
     x="0"
     y="0"
     xlink:href="#path3-0"
     id="use1"
     transform="matrix(-1,0,0,1,102.26621,1.8807946e-7)"
     style="stroke-width:0.968712" />
</svg>
