<?xml version="1.0" encoding="UTF-8" standalone="no"?>
<svg
   width="900"
   height="1000"
   id="svg1333"
   sodipodi:version="0.32"
   inkscape:version="1.4.2 (f4327f4, 2025-05-13)"
   sodipodi:docname="135A8.svg"
   version="1.1"
   xmlns:inkscape="http://www.inkscape.org/namespaces/inkscape"
   xmlns:sodipodi="http://sodipodi.sourceforge.net/DTD/sodipodi-0.dtd"
   xmlns:xlink="http://www.w3.org/1999/xlink"
   xmlns="http://www.w3.org/2000/svg"
   xmlns:svg="http://www.w3.org/2000/svg"
   xmlns:rdf="http://www.w3.org/1999/02/22-rdf-syntax-ns#"
   xmlns:cc="http://creativecommons.org/ns#"
   xmlns:dc="http://purl.org/dc/elements/1.1/">
  <metadata
     id="metadata1340">
    <rdf:RDF>
      <cc:Work
         rdf:about="">
        <dc:format>image/svg+xml</dc:format>
        <dc:type
           rdf:resource="http://purl.org/dc/dcmitype/StillImage" />
        <dc:creator>
          <cc:Agent>
            <dc:title>Serge Thomas</dc:title>
          </cc:Agent>
        </dc:creator>
        <dc:publisher>
          <cc:Agent>
            <dc:title>Serge Rosmorduc</dc:title>
          </cc:Agent>
        </dc:publisher>
        <dc:date>03/04/06</dc:date>
        <dc:description>variante optimisée du signe de Jsesh</dc:description>
        <cc:license
           rdf:resource="http://creativecommons.org/licenses/GPL/2.0/" />
      </cc:Work>
      <cc:License
         rdf:about="http://creativecommons.org/licenses/GPL/2.0/">
        <cc:permits
           rdf:resource="http://web.resource.org/cc/Reproduction" />
        <cc:permits
           rdf:resource="http://web.resource.org/cc/Distribution" />
        <cc:requires
           rdf:resource="http://web.resource.org/cc/Notice" />
        <cc:permits
           rdf:resource="http://web.resource.org/cc/DerivativeWorks" />
        <cc:requires
           rdf:resource="http://web.resource.org/cc/ShareAlike" />
        <cc:requires
           rdf:resource="http://web.resource.org/cc/SourceCode" />
      </cc:License>
    </rdf:RDF>
  </metadata>
  <defs
     id="defs1338">
    <marker
       style="overflow:visible"
       id="Triangle"
       refX="0"
       refY="0"
       orient="auto-start-reverse"
       inkscape:stockid="Triangle arrow"
       markerWidth="1"
       markerHeight="1"
       viewBox="0 0 1 1"
       inkscape:isstock="true">
      <path
         transform="scale(0.5)"
         style="fill:context-stroke;fill-rule:evenodd;stroke:context-stroke;stroke-width:1pt"
         d="M 5.77,0 -2.88,5 V -5 Z"
         id="path135" />
    </marker>
    <marker
       style="overflow:visible"
       id="marker3"
       refX="0"
       refY="0"
       orient="auto-start-reverse"
       inkscape:stockid="Triangle arrow"
       markerWidth="0.69999999"
       markerHeight="0.5"
       viewBox="0 0 1 1"
       inkscape:isstock="true"
       inkscape:collect="always"
       preserveAspectRatio="none">
      <path
         transform="scale(0.5)"
         style="fill:context-stroke;fill-rule:evenodd;stroke:context-stroke;stroke-width:1pt"
         d="M 5.77,0 -2.88,5 V -5 Z"
         id="path3" />
    </marker>
  </defs>
  <sodipodi:namedview
     inkscape:window-height="998"
     inkscape:window-width="1680"
     inkscape:pageshadow="2"
     inkscape:pageopacity="0.0"
     borderopacity="1.0"
     bordercolor="#666666"
     pagecolor="#ffffff"
     id="base"
     inkscape:zoom="0.755"
     inkscape:cx="596.68874"
     inkscape:cy="525.16556"
     inkscape:window-x="-8"
     inkscape:window-y="-8"
     inkscape:current-layer="svg1333"
     inkscape:showpageshadow="2"
     inkscape:pagecheckerboard="0"
     inkscape:deskcolor="#d1d1d1"
     showguides="true"
     inkscape:window-maximized="1">
    <sodipodi:guide
       position="800,1000"
       orientation="0,-1"
       id="guide1"
       inkscape:locked="false" />
    <sodipodi:guide
       position="800,0"
       orientation="0,-1"
       id="guide2"
       inkscape:locked="false" />
    <sodipodi:guide
       position="1428.9261,881.99354"
       orientation="0,-1"
       id="guide6"
       inkscape:locked="false" />
    <sodipodi:guide
       position="1102.4141,937.39052"
       orientation="0,-1"
       id="guide7"
       inkscape:locked="false" />
    <sodipodi:guide
       position="1102.453,364.72076"
       orientation="0,-1"
       id="guide8"
       inkscape:locked="false" />
    <sodipodi:guide
       position="684.53505,934.4718"
       orientation="0.8601064,-0.51011467"
       id="guide4"
       inkscape:locked="false" />
    <sodipodi:guide
       position="677.66192,954.17561"
       orientation="0.84731785,-0.53108611"
       id="guide5"
       inkscape:locked="false" />
    <sodipodi:guide
       position="654.97762,983.73308"
       orientation="0.72886004,-0.68466273"
       id="guide9"
       inkscape:locked="false" />
    <sodipodi:guide
       position="266.48032,396.53137"
       orientation="0,-1"
       id="guide11"
       inkscape:locked="false" />
    <sodipodi:guide
       position="422.69644,219.63203"
       orientation="-0.41380513,0.91036548"
       id="guide18"
       inkscape:locked="false" />
  </sodipodi:namedview>
  <path
     style="fill:#000000;stroke:none;stroke-width:1"
     d="m 439.61719,252.07617 c -1.04913,-0.0282 -2.07286,1.84797 -1.74414,3.81055 0.51005,3.05956 -3.33529,6.24579 -8.02149,0.89062 -5.71681,-6.53393 -8.4667,-3.23426 -8.46679,0.89258 2.37653,-1.188 4.9008,-0.14857 7.57421,3.11914 5.88915,7.19783 13.02209,0.50537 12.47852,-4.90234 -0.27554,-2.75543 -1.05465,-3.78998 -1.82031,-3.81055 z"
     id="path16" />
  <path
     style="fill:#000000;stroke:none;stroke-width:1"
     d="m 456.97461,208.36523 c -3.7483,0.11604 -7.29264,1.10225 -10.63477,2.95899 l -8.91406,8.02148 v 7.12891 h 4.45703 c 12.47728,5.94155 26.44058,5.94155 41.88867,0 l 16.04297,2.67383 v -8.01953 l -15.15039,-0.89258 c -10.21206,-8.16967 -19.44318,-12.1264 -27.68945,-11.8711 z m -2.61523,5.63282 c -2.37688,2.97079 -2.37689,6.23973 0,9.80468 -3.56501,-1.1883 -6.53381,-2.3781 -8.91016,-3.5664 1.18831,-2.37664 4.15684,-4.45581 8.91016,-6.23828 z m 11.58789,1.7832 12.47656,7.13086 c -4.75332,1.1883 -9.50645,1.78125 -14.25977,1.78125 4.15956,-2.37664 4.75384,-5.34716 1.78321,-8.91211 z"
     id="path15" />
  <path
     style="fill:#000000;stroke:none;stroke-width:1"
     d="m 555.47656,200.93164 c -1.86347,-0.10707 -4.07749,0.21643 -6.64453,1.0332 -13.6438,4.34121 -27.93092,26.2861 -23.17187,33.42383 -10.84101,4.8184 -13.27917,15.96515 -3.56641,19.60742 10.25025,3.84385 32.72067,-19.41227 38.32422,-33.42187 4.64758,-11.61952 3.13367,-20.1786 -4.94141,-20.64258 z m -3.91406,9.53125 c 2.67367,0.0731 3.84209,1.69802 3.50781,4.87305 -0.59409,5.64451 -3.11999,10.99266 -7.57617,16.04297 -4.45618,5.05035 -8.61458,8.61382 -12.47656,10.69336 -3.86198,2.07955 -3.86198,0.44508 0,-4.90235 3.86198,-5.34762 3.86198,-7.27642 0,-5.79101 -3.86198,1.4854 -4.60344,-0.15105 -2.22656,-4.9043 2.37662,-4.75327 5.64369,-9.20807 9.80273,-13.36719 3.8992,-1.81961 6.88919,-2.70139 8.96875,-2.64453 z m -26.79492,32.05469 c 4.15904,2.97077 4.90405,5.49663 2.23047,7.57617 -2.67359,2.07973 -4.60653,1.93133 -5.79493,-0.44531 -1.18848,-2.37665 -3.7e-4,-4.75421 3.56446,-7.13086 z"
     id="path14" />
  <path
     style="fill:#000000;stroke:none;stroke-width:1"
     d="m 531.14648,118.05078 c -8.03962,0.1671 -16.25397,0.80784 -24.64648,1.92188 -33.56986,4.45619 -57.78273,30.44986 -72.63672,77.98242 -8.31815,10.69486 -17.82467,25.253 -28.51953,43.67187 -5.94172,12.47733 -6.23992,19.458 -0.89258,20.94336 5.34743,1.4854 9.8043,3.71476 13.36914,6.68555 -9.33086,5.33219 -5.28094,10.55533 0.89063,11.58398 1.78215,-0.59417 1.18939,0.59563 -1.78125,3.56641 -2.97108,2.97077 -2.52604,5.49468 1.33593,7.57422 3.86208,2.07952 5.79297,8.46725 5.79297,19.16211 0,10.10065 5.64463,15.15039 16.9336,15.15039 13.07148,0 22.57799,-0.59295 28.51953,-1.78125 l 3.56445,27.6289 c -57.03915,0.59414 -96.84784,14.55547 -119.42578,41.88672 -39.27476,44.46127 -80.85592,83.51699 -109.80664,128.77149 -30.96288,-28.63 -82.90889,-63.79394 -133.75195,-97.70508 -5.98296,-20.33977 -16.213808,-42.67337 -32.527347,-56.88086 -21.919782,-18.95403 -73.644316,35.41696 -48.185547,55.17383 18.158624,12.96988 37.892244,23.84754 59.015625,31.12305 55.922409,60.29544 112.103809,109.1133 170.078129,142.66601 54.6293,-47.4662 85.07806,-92.03962 116.56836,-128.2832 -1.78242,25.54877 1.6347,53.32513 10.25,83.33008 7.09044,24.69402 26.64781,108.36803 50.03655,191.21489 l 22.56283,0.9256 c -33.75412,-122.2593 -48.58068,-178.31769 -51.56875,-193.88168 -7.84571,-40.86603 -11.69866,-77.57456 -3.41119,-134.69994 2.73506,-18.85276 17.28791,-36.014 46.99579,-36.014 29.70788,0 44.85697,-10.39786 45.45117,-31.19336 0,-26.14295 -10.99078,-38.02509 -32.97461,-35.64844 -21.98384,2.37664 -31.19373,-4.75227 -27.6289,-21.38867 13.07157,-7.72407 17.67643,-13.22234 13.81445,-16.49023 -3.86207,-3.2679 -10.84463,-5.19688 -20.94531,-5.79102 0,-5.94156 -5.04973,-10.99322 -15.15039,-15.15234 10.10066,-22.57799 19.90369,-38.322 29.41015,-47.23438 9.50647,-4.75325 19.45961,-4.75325 29.85742,0 10.39772,4.75327 20.64729,8.02026 30.74805,9.80274 v -6.24024 c -6.53574,-0.59416 -15.00267,-3.71292 -25.40039,-9.35742 -10.39781,-5.64449 -20.94389,-6.68404 -31.63867,-3.11914 3.56493,-5.94155 6.83209,-10.69482 9.80273,-14.25977 27.33118,1.78248 49.90958,8.91334 67.73438,21.39063 -1.18831,10.69485 2.97195,11.13955 12.47851,1.33594 19.30831,-19.91176 43.90624,-9.65886 30.30078,16.93359 -6.53574,12.77437 -14.7042,23.61888 -24.50781,32.53125 -9.80361,8.91234 -12.03297,17.82397 -6.68554,26.73633 5.34743,8.91237 8.9128,16.63808 10.69531,23.17383 -0.5942,47.53258 3.26574,71.59333 11.58398,72.1875 17.16229,1.0208 34.53857,-0.31289 51.53906,1.99609 21.91499,2.97645 21.92669,42.69207 0.1543,118.32226 -3.89197,13.51959 -7.5456,27.32168 -10.96094,41.40625 -21.076,-7.27315 -27.68005,-7.0623 -54.32421,-16.11328 -12.62941,-17.4488 -29.00386,-34.88921 -49.3125,-43.15039 -25.73258,-10.29221 -55.7356,52.38776 -31.1836,66.20703 17.72179,9.97484 45.69018,11.77558 69.58594,11.83008 12.98182,9.09763 25.80031,18.29585 54.20117,31.94531 -6.09787,31.48417 -8.67645,67.95161 -9.62132,102.34186 l 25.95454,-9.362 c 2.1945,-27.52836 5.19917,-54.01465 9.15897,-81.07165 33.63698,15.23072 69.15596,29.25952 96.20508,34.81445 31.99057,6.56978 55.5645,-5.24908 47.40625,-30.13281 -12.99731,-39.64269 -39.21076,-118.84504 -89.17774,-224.57617 -25.86951,-31.19549 -68.37722,-36.01282 -94.47265,-35.65039 v -43.66993 c 16.04229,-6.53574 31.49171,-18.7163 46.3457,-36.54101 14.8539,-17.82472 22.2793,-42.48234 22.2793,-73.97266 0,-31.49036 -13.96125,-52.58252 -41.88672,-63.27734 -20.94405,-8.02114 -43.47665,-11.78063 -67.59571,-11.2793 z m 5.42969,15.95899 c 12.32874,0.74269 25.92149,3.04618 40.77539,6.9082 29.70797,7.72405 44.56055,25.54725 44.56055,53.47265 0,27.33123 -9.9512,50.5026 -29.85547,69.51563 -19.90428,19.01305 -32.53156,24.06472 -37.87891,15.15234 -6.53574,-8.31822 -1.63223,-20.49877 14.70704,-36.54101 16.33908,-16.04224 20.34941,-31.78825 12.03125,-47.23633 -8.31825,-15.44812 -25.84497,-16.63593 -52.58204,-3.56445 -8.91236,-10.10069 -30.30292,-17.82446 -64.16992,-23.17188 6.53574,-16.6364 19.60763,-27.33071 39.21485,-32.08398 9.80361,-2.37661 20.86848,-3.19387 33.19726,-2.45117 z M 424.74023,273.43945 c 2.02278,0.0594 4.29846,0.75774 14.02539,2.05469 4.45635,0.59413 6.38531,0.89063 5.79102,0.89063 l -21.38867,0.89062 c -3.90758,-0.97758 -3.46048,-3.98336 1.57226,-3.83594 z m 18.92579,5.61914 c -1.91057,1.91021 -9.7385,5.56901 -15.1504,6.23829 -5.456,0.67471 -5.63496,-1.49621 -3.5664,-3.56446 z m 193.12109,197.47266 c 19.6776,46.93844 24.81068,59.64857 54.95312,104.31055 -25.37659,-12.53723 -47.4956,-23.14269 -70.62109,-32.3711 4.50098,-23.65247 9.71161,-47.53294 15.66797,-71.93945 z"
     id="path13"
     sodipodi:nodetypes="ssccscccsssccccccccccsccssscscscccsccscccssssccsscccscccccsccccsssssssssccsccsscsccccscccccc" />
  <path
     d="M 552.93464,124.89712 654.97762,16.266919 c 22.33181,-19.7042973 38.69156,-20.889121 58.1281,-6.896402 20.95206,15.083881 19.54216,29.885258 9.36065,44.335181 -10.18142,14.449931 -22.82529,18.391094 -37.93132,11.822501 l -45.47067,76.668281 c -10.50876,-28.89983 -30.71902,-27.40651 -41.22777,-27.40651 l -9.85419,10.83756 m 18.37405,-28.571046 c 19.70324,1.968818 26.59876,4.325506 31.03713,13.013736 l 40.26832,-64.245825 c 17.0798,7.881819 22.50783,5.22667 28.41936,-0.684826 5.91155,-5.910979 9.90968,-15.525959 -3.7261,-21.74714 -15.26213,-6.968904 -15.37787,-5.983996 -33.1124,4.169267 z"
     style="fill:#000000;stroke:none;stroke-width:1"
     id="path1"
     sodipodi:nodetypes="ccssccccccccccc" />
  <path
     style="fill:#000000;stroke:none;stroke-width:60.6093"
     d="M 101.28477,709.54339 V 104.69447 l -8.808474,-0.9787 -25.44671,18.59566 c -31.97153,24.79422 -47.95732,53.82959 -47.95732,87.10609 0,33.27646 15.98579,73.07773 47.95732,119.40383 l 25.44671,0.97871 v 155.61646 h -25.44671 c -31.97153,38.49633 -47.95732,75.52457 -47.95732,111.08473 0,35.56008 15.98579,66.06359 47.95732,91.51027 l 25.44671,21.53187 z m 11.74463,5.87239 c 5.87232,0 8.80847,7.17731 8.80847,21.53187 -0.65245,18.26942 -5.21985,30.82971 -13.70206,37.68069 -8.482249,6.85106 -17.127594,8.31908 -25.936074,4.40448 -8.80847,-3.91478 -13.21271,-13.37588 -13.21271,-28.38293 l 23.48927,-7.83003 C 25.923336,706.281 -7.3531437,658.32369 -7.3531437,598.948 c 0,-48.93594 13.37582,-89.06343 40.1274897,-120.38246 V 332.73622 C 6.0226763,296.8498 -7.3531437,256.7223 -7.3531437,212.35368 c 0,-60.02817 33.2764797,-107.33296 99.8294397,-141.914378 L 68.987026,62.60948 c 0,-14.354549 4.40424,-23.652388 13.21271,-27.893501 8.80848,-4.241137 17.453825,-2.936155 25.936074,3.914882 8.48222,6.851034 13.04959,19.411289 13.70206,37.680755 0,11.744639 -2.93615,19.248155 -8.80847,22.510548 z M 45.497756,460.94854 h 36.21263 V 449.2039 h -36.21263 z m 0,-32.29774 h 36.21263 v -11.74464 h -36.21263 z m 0,-32.29775 h 35.2339 v -10.76592 h -35.2339 z m 0,-32.29775 h 36.21263 v -11.74468 h -36.21263 z"
     id="path2"
     inkscape:transform-center-x="11.744662"
     inkscape:transform-center-y="344.11631" />
  <use
     x="0"
     y="0"
     xlink:href="#path1"
     id="use9"
     transform="matrix(-1,0,0,1,1074.5761,-2.074089e-5)" />
  <path
     style="fill:#000000;stroke:none;stroke-width:1"
     d="m 281.78226,602.52344 c -27.85901,5.18308 -45.99967,15.54893 -54.42213,31.09812 -24.61954,55.07009 -45.02742,144.47786 -61.2245,268.22363 -5.83097,31.09842 -17.65597,47.45787 -35.47271,49.07743 -17.81682,1.61974 -48.104686,7.61311 -90.864966,17.97932 -33.6899298,0 -33.6899298,10.04195 0,30.12635 H 217.64245 c 7.77463,-7.77453 9.0702,-23.32422 3.88705,-46.64802 -5.18305,-23.3238 1.29626,-53.12584 19.43699,-89.40731 17.57052,-35.14097 26.63213,-72.40895 27.18445,-111.80451 l -0.94517,135.12851 c -15.54916,14.25342 -25.2689,25.26711 -29.1562,33.04166 -8.42247,16.19708 -6.31566,33.68995 6.31811,52.47859 12.63369,18.78866 28.99316,28.18279 49.07746,28.18279 22.02805,0 65.59666,-14.73988 130.70891,-44.21855 65.11224,-29.47868 112.89473,-47.45746 143.34524,-53.93626 24.61962,27.85894 16.84474,55.71822 -23.32397,75.80261 -26.56328,0 -26.56328,7.45092 0,22.3522 h 29.1546 c 22.02789,-2.59151 33.36539,-8.74694 34.0134,-18.46513 7.12671,-31.09842 16.84482,-74.8295 29.15459,-123.42074 0,-19.43657 -9.39419,-29.1546 -28.18285,-29.1546 14.90134,-21.38013 17.17019,-49.24058 6.80407,-83.57839 -6.20693,-20.395 -10.10872,-41.13567 -12.23513,-61.9736 l -18.45056,-3.33253 -128.76204,56.34573 -20.34383,7.01681 C 359.52878,654.67758 308.34547,607.70652 281.78226,602.52344 Z m 4.8588,28.18283 c 30.4506,14.25346 76.44994,57.33796 137.99886,129.253 -43.40819,26.56319 -89.40762,61.87294 -137.99886,105.92898 z m 294.78351,77.51209 c 9.71828,29.80268 16.20115,56.59982 16.20115,81.86726 0,24.61955 -7.77488,41.14087 -23.32405,49.56332 -15.54927,8.42254 -44.05578,20.40769 -85.52023,35.95695 -61.54901,-9.07038 -119.21148,15.54964 -172.98578,73.85909 4.53522,-33.042 40.1688,-89.40733 106.90078,-169.09701 z"
     id="path11"
     sodipodi:nodetypes="cccscccsscccsssccccccccccccccccccsscccc" />
  <path
     style="fill:none;stroke:#613583;stroke-width:15;stroke-linecap:butt;stroke-linejoin:miter;stroke-dasharray:none;stroke-opacity:1;marker-end:url(#marker3)"
     d="M 449.06446,579.09755 731.41617,231.1886"
     id="path6"
     sodipodi:nodetypes="cc"
     inkscape:transform-center-x="-78.288232"
     inkscape:transform-center-y="-104.54492" />
  <use
     x="0"
     y="0"
     xlink:href="#path6"
     inkscape:transform-center-x="-69.656054"
     inkscape:transform-center-y="-110.48403"
     id="use3"
     transform="rotate(-8.1642069,487.83492,527.96207)" />
  <use
     x="0"
     y="0"
     xlink:href="#path6"
     inkscape:transform-center-x="-97.884887"
     inkscape:transform-center-y="-86.471013"
     id="use4"
     transform="rotate(8.1486801,484.44971,526.5194)" />
</svg>
