<?xml version="1.0" encoding="UTF-8" standalone="no"?>
<svg
   width="900"
   height="1000"
   id="svg1333"
   sodipodi:version="0.32"
   inkscape:version="1.4.2 (f4327f4, 2025-05-13)"
   sodipodi:docname="135AE.svg"
   version="1.1"
   xmlns:inkscape="http://www.inkscape.org/namespaces/inkscape"
   xmlns:sodipodi="http://sodipodi.sourceforge.net/DTD/sodipodi-0.dtd"
   xmlns:xlink="http://www.w3.org/1999/xlink"
   xmlns="http://www.w3.org/2000/svg"
   xmlns:svg="http://www.w3.org/2000/svg"
   xmlns:rdf="http://www.w3.org/1999/02/22-rdf-syntax-ns#"
   xmlns:cc="http://creativecommons.org/ns#"
   xmlns:dc="http://purl.org/dc/elements/1.1/">
  <metadata
     id="metadata1340">
    <rdf:RDF>
      <cc:Work
         rdf:about="">
        <dc:format>image/svg+xml</dc:format>
        <dc:type
           rdf:resource="http://purl.org/dc/dcmitype/StillImage" />
        <dc:creator>
          <cc:Agent>
            <dc:title>Serge Thomas</dc:title>
          </cc:Agent>
        </dc:creator>
        <dc:publisher>
          <cc:Agent>
            <dc:title>Serge Rosmorduc</dc:title>
          </cc:Agent>
        </dc:publisher>
        <dc:date>03/04/06</dc:date>
        <dc:description>variante optimisée du signe de Jsesh</dc:description>
        <cc:license
           rdf:resource="http://creativecommons.org/licenses/GPL/2.0/" />
      </cc:Work>
      <cc:License
         rdf:about="http://creativecommons.org/licenses/GPL/2.0/">
        <cc:permits
           rdf:resource="http://web.resource.org/cc/Reproduction" />
        <cc:permits
           rdf:resource="http://web.resource.org/cc/Distribution" />
        <cc:requires
           rdf:resource="http://web.resource.org/cc/Notice" />
        <cc:permits
           rdf:resource="http://web.resource.org/cc/DerivativeWorks" />
        <cc:requires
           rdf:resource="http://web.resource.org/cc/ShareAlike" />
        <cc:requires
           rdf:resource="http://web.resource.org/cc/SourceCode" />
      </cc:License>
    </rdf:RDF>
  </metadata>
  <defs
     id="defs1338">
    <marker
       style="overflow:visible"
       id="Triangle"
       refX="0"
       refY="0"
       orient="auto-start-reverse"
       inkscape:stockid="Triangle arrow"
       markerWidth="1"
       markerHeight="1"
       viewBox="0 0 1 1"
       inkscape:isstock="true">
      <path
         transform="scale(0.5)"
         style="fill:context-stroke;fill-rule:evenodd;stroke:context-stroke;stroke-width:1pt"
         d="M 5.77,0 -2.88,5 V -5 Z"
         id="path135" />
    </marker>
    <marker
       style="overflow:visible"
       id="marker3"
       refX="0"
       refY="0"
       orient="auto-start-reverse"
       inkscape:stockid="Triangle arrow"
       markerWidth="0.69999999"
       markerHeight="0.5"
       viewBox="0 0 1 1"
       inkscape:isstock="true"
       inkscape:collect="always"
       preserveAspectRatio="none">
      <path
         transform="scale(0.5)"
         style="fill:context-stroke;fill-rule:evenodd;stroke:context-stroke;stroke-width:1pt"
         d="M 5.77,0 -2.88,5 V -5 Z"
         id="path3" />
    </marker>
  </defs>
  <sodipodi:namedview
     inkscape:window-height="998"
     inkscape:window-width="1680"
     inkscape:pageshadow="2"
     inkscape:pageopacity="0.0"
     borderopacity="1.0"
     bordercolor="#666666"
     pagecolor="#ffffff"
     id="base"
     inkscape:zoom="0.26693281"
     inkscape:cx="-477.64829"
     inkscape:cy="1017.1099"
     inkscape:window-x="-8"
     inkscape:window-y="-8"
     inkscape:current-layer="svg1333"
     inkscape:showpageshadow="2"
     inkscape:pagecheckerboard="0"
     inkscape:deskcolor="#d1d1d1"
     showguides="true"
     inkscape:window-maximized="1">
    <sodipodi:guide
       position="0,1000"
       orientation="0,-1"
       id="guide4"
       inkscape:locked="false" />
    <sodipodi:guide
       position="900,0"
       orientation="0,-1"
       id="guide5"
       inkscape:locked="false" />
  </sodipodi:namedview>
  <path
     style="fill:#000000;stroke:none;stroke-width:1"
     d="M 674.10161,0.24094945 C 665.40042,0.68716623 656.53697,1.753954 647.51343,3.439692 c -36.09435,6.742895 -61.67696,35.498081 -76.74941,86.268178 -9.51934,11.89923 -19.83223,27.766 -30.93809,47.59806 -6.34642,13.4858 -6.54461,21.02055 -0.59491,22.60715 5.94948,1.58656 10.51006,4.36459 13.68321,8.33098 -3.96658,2.37985 -5.55276,4.95754 -4.75933,7.73403 0.7932,2.77649 3.17258,4.16448 7.13905,4.16448 0.79332,0 -0.39638,1.38801 -3.56953,4.16446 -3.17292,2.7765 -2.57632,5.35416 1.78687,7.73404 4.36295,2.37984 6.54414,8.33038 6.54414,17.84977 0,9.51935 2.26248,13.35525 4.75934,15.46806 9.08398,7.68672 25.90278,7.53162 45.21632,5.95127 l 2.37972,21.41731 c -60.28944,6.34623 -99.15912,20.62675 -116.61128,42.83865 -51.64319,37.99788 -102.21802,87.609 -159.42522,150.98962 -32.74507,-3.02183 -67.29928,-4.4963 -109.58077,3.9146 -42.28147,8.41093 -76.03472,10.09713 -86.41846,9.07447 -43.894921,-17.38636 -72.795382,-18.47808 -126.168017,-9.31891 -3.044091,11.39337 4.259518,17.95782 21.912859,19.69177 -12.966674,45.63837 10.904645,64.71933 43.209099,60.92353 23.721209,-2.78726 34.926089,-9.47156 60.349469,-23.51494 99.83651,3.46966 163.57202,1.78778 222.98132,-5.93569 12.42763,-10.86461 55.13484,-48.80851 128.12251,-113.83191 11.80297,-9.20446 14.93202,-9.49286 22.86484,0.81982 0,21.41862 11.50247,54.53809 34.50774,99.35857 23.00504,44.82046 28.55905,110.86111 16.65987,198.1222 -92.81406,-108.67972 -155.48378,-166.19211 -188.00851,-172.5384 -34.11113,6.34629 -56.32286,19.03843 -66.63564,38.07723 -30.14466,67.42899 -55.13248,176.90193 -74.96449,328.4189 -7.13962,38.07764 -21.61841,58.10839 -43.43376,60.09143 -21.81513,1.98325 -58.90032,9.32175 -111.257051,22.01435 -41.250639,0 -41.250639,12.29558 0,36.88735 H 298.27213 c 9.51945,-9.51932 11.10563,-28.55869 4.75944,-57.11685 -6.34631,-28.55819 1.5872,-65.04849 23.79892,-109.47231 21.51388,-43.02739 32.60909,-88.65913 33.28529,-136.89588 l -1.15716,165.45431 c -19.0388,17.45223 -30.93991,30.9376 -35.69957,40.45694 -10.31267,19.83203 -7.73294,41.25067 7.73599,64.25591 15.46905,23.00524 35.49969,34.50771 60.09148,34.50771 26.97162,0 80.31816,-18.04786 160.04301,-54.1422 79.72482,-36.09438 138.23081,-58.10796 175.51498,-66.04076 30.14478,34.1111 20.62509,68.22262 -28.55837,92.8144 -32.52461,0 -32.52461,9.12303 0,27.36856 h 35.69743 c 26.97162,-3.17317 40.85347,-10.70998 41.6469,-22.60915 8.72614,-38.0776 20.6252,-91.62288 35.69754,-151.11909 0,-23.7985 -11.50258,-35.69752 -34.50774,-35.69752 18.2456,-26.1783 21.02351,-60.29126 8.33102,-102.33523 -32.79605,-107.76295 -13.02379,-223.41369 7.13905,-322.4676 l 34.50762,-78.5362 C 803.5928,260.26354 767.10059,246.77822 717.12369,246.77822 v -44.02648 c 19.83201,3.17312 38.07817,-4.36371 54.73725,-22.60917 16.65874,-18.24551 24.19553,-50.37359 22.60912,-96.38395 0,-34.111176 -15.47018,-57.710997 -46.40827,-70.800128 C 724.85833,3.1416056 700.20566,-1.0977111 674.10161,0.24094945 Z M 680.6825,20.989978 c 13.18841,0.793283 27.71675,3.271804 43.58228,7.436551 31.73142,8.329449 47.59616,27.567049 47.59616,57.711792 -3.96658,38.870859 -13.28785,65.645279 -27.96359,80.320969 -14.67572,14.67573 -27.16969,17.64995 -37.48224,8.92388 -11.89929,-7.13955 -9.32161,-19.43516 7.73396,-36.88738 32.82801,-33.59141 17.55579,-84.971527 -42.24169,-55.927019 -10.31267,-10.312627 -33.31759,-18.642608 -69.01535,-24.988878 7.13962,-17.452235 21.21965,-28.756422 42.24168,-33.912764 10.51107,-2.578171 22.36048,-3.470456 35.54879,-2.677151 z m -87.30925,53.249843 c 29.35135,2.379836 53.14947,10.311198 71.39507,23.796987 -0.79331,11.106002 3.96545,11.504572 14.27822,1.19189 20.69017,-20.690297 46.85307,-10.885282 32.72281,19.037602 -6.7428,14.27907 -15.66565,26.17814 -26.77152,35.69753 -11.10609,9.51939 -13.88399,19.03905 -8.33112,28.55844 5.55299,9.51939 9.91719,17.45279 13.09046,23.79902 v 40.45693 c 0,9.51939 4.75876,18.04763 14.27822,25.58381 9.51946,7.53622 27.36902,11.30357 53.54733,11.30357 25.38499,0 34.11147,9.51968 26.17865,28.55843 -40.28227,98.44995 -47.72212,202.60512 -41.64883,306.99957 l -148.73929,70.20725 c 8.72615,-101.5402 0.99105,-173.7297 -23.20413,-216.56692 -24.19508,-42.83725 -36.29244,-95.59085 -36.29244,-158.2602 0,-20.62531 17.84967,-30.93813 53.54721,-30.93813 37.28416,0 55.1318,-10.31278 53.54539,-30.93812 -1.58663,-29.35146 -14.67539,-42.44022 -39.26717,-39.26708 -24.59167,3.1731 -34.90445,-3.96715 -30.93809,-21.41933 15.07245,-7.93284 20.42611,-13.68307 16.06305,-17.25284 -4.36308,-3.56976 -12.09613,-5.75087 -23.20211,-6.54417 0,-7.13954 -5.15751,-12.69353 -15.47006,-16.65993 10.31255,-24.59174 20.62543,-41.64617 30.93809,-51.16556 9.51946,-5.553007 19.83212,-5.751272 30.9381,-0.594947 11.10597,5.156347 22.21182,8.923747 33.31791,11.303577 v -7.1391 c -7.13961,-0.79327 -16.26269,-4.364408 -27.36866,-10.710683 -11.10598,-6.346245 -22.60844,-7.13938 -34.50762,-2.379708 4.75966,-7.139553 8.72738,-12.691487 11.90053,-16.657888 z m 106.89703,19.846454 c -19.09004,-0.908874 -37.02034,28.790375 -31.93243,37.270425 -10.49475,5.99701 -15.18231,16.58481 -4.16443,20.82237 11.21766,4.31453 36.48462,-22.87627 41.64667,-36.88739 4.78746,-12.99419 2.28461,-20.832358 -5.54981,-21.205405 z m -102.75084,7.410075 c -4.94563,-0.22311 -9.50223,1.00427 -13.667,3.68161 l -9.51889,8.32894 v 7.1391 h 4.75944 c 13.48581,7.13955 28.55939,7.13955 45.21835,0 l 16.65794,3.56955 v -8.32895 l -15.46802,-1.18985 c -10.41186,-8.42864 -19.73914,-12.82855 -27.98182,-13.2004 z m 98.30716,2.49991 c 3.44311,0 4.78813,1.62766 4.04436,5.34617 -2.40841,12.04166 -12.60224,25.94719 -21.41932,29.15336 -4.36318,1.58657 -4.36318,-0.39629 0,-5.94926 4.36307,-5.55299 4.36307,-7.53784 0,-5.95127 -4.36295,1.58656 -5.35457,-0.19805 -2.97474,-5.35433 0.88471,-1.91686 8.18169,-17.24467 20.3497,-17.24467 z m -102.45335,3.5614 c -3.17315,3.17315 -3.17315,6.74224 0,10.70864 -3.96635,-0.79328 -7.53747,-2.37952 -10.71073,-4.7594 1.58663,-2.37985 5.15775,-4.36268 10.71073,-5.94924 z m 10.70858,2.3797 14.27823,8.32894 c -5.55288,0.79328 -10.70824,1.18985 -15.46803,1.18985 3.96658,-2.37982 4.36307,-5.55236 1.1898,-9.51879 z m 64.25602,29.74827 c 3.96646,2.3798 4.56126,4.75927 1.78482,7.1391 -2.77644,2.37984 -4.75921,2.18157 -5.94925,-0.59493 -1.18992,-2.77645 0.19819,-4.95762 4.16443,-6.54417 z m -93.4094,13.08835 c 0.7474,4.48326 -4.01318,6.6371 -8.32886,0.59493 -5.48689,-7.68139 -11.36199,-3.09142 -8.92388,1.78477 1.58652,-1.58606 3.96613,-0.59489 7.13906,2.97463 6.96468,7.83543 14.55351,0.50512 13.08842,-5.35433 -1.74446,-6.98043 -3.72191,-4.48278 -2.97474,0 z m -15.32948,18.64845 c 2.9363,-0.11499 5.02849,1.26791 15.92439,2.17596 4.76,0.39662 6.74267,0.99148 5.94936,1.78478 l -22.6072,1.18984 c -4.52532,-1.50844 -2.81215,-5.01154 0.73345,-5.15058 z m 21.87375,7.53028 c -5.06592,3.25997 -10.45779,6.64709 -16.65795,7.1391 -7.35844,0 -6.0599,-3.51407 -3.56953,-4.7594 z m -198.7171,368.87583 c 37.28428,17.45223 93.60692,70.20582 168.9688,158.26021 -53.14992,32.52457 -109.47268,75.75854 -168.9688,129.70176 z m 362.92656,94.00424 c 11.89918,36.49101 17.84978,70.20531 17.84978,101.14335 0,30.1447 -9.51968,50.37377 -28.55847,60.6864 -19.03881,10.31272 -53.94281,24.98769 -104.7129,44.02648 -75.36187,-11.10596 -145.965,19.03933 -211.80743,90.43469 5.55287,-40.45738 49.18346,-109.47233 130.89154,-207.04609 z"
     id="path1-7"
     sodipodi:nodetypes="ssccsccscsssccccscccsccccsccccscccsscccsssccccccccccccscsssscscsccssccsssscssscccssscscscccsccsccscssssccccccccsscssssscccccccccsccsscscsssccscscccccccsscccc" />
  <path
     style="fill:#000000;stroke:none;stroke-width:60.6093"
     d="m 868.06989,92.81138 -434.54592,530.52503 7.02297,7.18678 35.67961,1.97126 c 45.85594,1.22201 80.73749,-12.76072 104.64458,-41.9482 23.90703,-29.18743 38.48031,-75.58271 43.71981,-139.18578 l -21.61666,-19.14032 111.80065,-136.4943 22.31979,18.28186 c 55.70007,-10.79636 96.32398,-31.78976 121.87173,-62.98031 25.54768,-31.19045 33.44108,-69.43047 23.68005,-114.7198 l -6.85051,-37.167894 z m -6.0825,-13.588575 c -5.15075,-4.218897 -2.56964,-12.623708 7.74321,-25.214377 13.69767,-15.555726 26.72764,-23.291213 39.08955,-23.206429 12.36203,0.08481 20.9997,5.008291 25.91345,14.770177 4.91349,9.762111 1.97937,21.224779 -8.8023,34.387766 L 899.70303,69.952251 c 32.12406,79.863079 26.85723,145.834439 -15.8005,197.914079 -35.15737,42.92265 -75.71867,68.5096 -121.68383,76.76077 L 657.44948,472.53688 c -2.3177,50.69609 -19.41458,95.50242 -51.29067,134.41901 -43.12647,52.6519 -106.29943,70.23682 -189.51897,52.75475 l 14.97769,23.74326 c -10.31287,12.59067 -20.85579,17.58182 -31.62885,14.97346 -10.77309,-2.60837 -17.41855,-9.96414 -19.93647,-22.06727 -2.51788,-12.10311 2.49973,-26.40136 15.05292,-42.89461 8.43779,-10.30147 16.40394,-14.7735 23.89848,-13.41614 z m -123.58538,271.715525 -31.7628,-26.01649 -8.4378,10.30146 31.76283,26.0165 z m -23.20389,28.32899 -31.7628,-26.01648 -8.43778,10.30145 31.7628,26.0165 z m -23.20387,28.32901 -30.9044,-25.31335 -7.73462,9.443 30.90435,25.31337 z m -23.20393,28.32898 -31.76281,-26.01649 -8.43783,10.3015 31.76283,26.01649 z"
     id="path2"
     inkscape:transform-center-x="-6.3722157"
     inkscape:transform-center-y="-32.862354" />
  <path
     id="path1-2"
     style="fill:#a51d2d;stroke:none;stroke-width:1"
     d="m 826.59887,287.23479 -34.50762,78.53745 c 22.12544,46.66549 32.15685,68.07425 61.53847,105.10285 -45.83796,-24.04775 -78.49645,-42.0221 -143.55351,-62.10921 -30.51324,-23.17524 -53.77851,-40.91903 -106.94624,-51.20051 -6.87187,9.58396 -2.35578,18.30406 13.54758,26.16118 -21.18867,28.5898 -22.86398,48.98789 -5.19566,61.86523 21.66915,15.79328 46.09102,19.62004 85.85802,8.9645 72.45508,38.08799 133.28609,61.89336 195.36338,78.94008 17.91288,4.91897 37.8469,-4.55785 34.01275,-20.64964 C 912.7631,454.28704 886.03343,396.84907 826.59887,287.23479 Z"
     sodipodi:nodetypes="ccccccscssc" />
  <path
     style="fill:none;stroke:#613583;stroke-width:15;stroke-linecap:butt;stroke-linejoin:miter;stroke-dasharray:none;stroke-opacity:1;marker-end:url(#marker3)"
     d="M 82.922379,570.62991 V 62.61489"
     id="path6"
     sodipodi:nodetypes="cc"
     inkscape:transform-center-y="-172.30788"
     inkscape:transform-center-x="3.8825598e-06" />
  <use
     x="0"
     y="0"
     xlink:href="#path6"
     inkscape:transform-center-y="-170.24679"
     id="use3"
     transform="rotate(8.8709027,82.922379,488.93029)"
     inkscape:transform-center-x="-26.571359"
     style="stroke-width:0.881994" />
  <use
     x="0"
     y="0"
     xlink:href="#use3"
     inkscape:transform-center-x="26.571348"
     inkscape:transform-center-y="-170.24679"
     id="use4"
     transform="matrix(-1,0,0,1,165.84478,-1.4040039e-7)"
     style="stroke-width:0.881994" />
</svg>
