<?xml version="1.0" encoding="UTF-8" standalone="no"?>
<svg
   width="2500"
   height="1000"
   version="1.1"
   id="svg1"
   sodipodi:docname="135DC.svg"
   inkscape:version="1.4.2 (f4327f4, 2025-05-13)"
   xmlns:inkscape="http://www.inkscape.org/namespaces/inkscape"
   xmlns:sodipodi="http://sodipodi.sourceforge.net/DTD/sodipodi-0.dtd"
   xmlns="http://www.w3.org/2000/svg"
   xmlns:svg="http://www.w3.org/2000/svg">
  <defs
     id="defs1" />
  <sodipodi:namedview
     id="namedview1"
     pagecolor="#ffffff"
     bordercolor="#666666"
     borderopacity="1.0"
     inkscape:showpageshadow="2"
     inkscape:pageopacity="0.0"
     inkscape:pagecheckerboard="0"
     inkscape:deskcolor="#d1d1d1"
     inkscape:zoom="0.5"
     inkscape:cx="1139"
     inkscape:cy="579"
     inkscape:window-width="1680"
     inkscape:window-height="998"
     inkscape:window-x="-8"
     inkscape:window-y="-8"
     inkscape:window-maximized="1"
     inkscape:current-layer="svg1"
     showguides="true">
    <sodipodi:guide
       position="0,1000"
       orientation="0,-1"
       id="guide2"
       inkscape:locked="false" />
    <sodipodi:guide
       position="700,0"
       orientation="0,-1"
       id="guide1"
       inkscape:locked="false" />
    <sodipodi:guide
       position="710.46289,95.92969"
       orientation="0,-1"
       id="guide21"
       inkscape:locked="false" />
    <sodipodi:guide
       position="2500,1000"
       orientation="1,0"
       id="guide23"
       inkscape:locked="false" />
    <sodipodi:guide
       position="1530.5574,45.600521"
       orientation="0,-1"
       id="guide3"
       inkscape:locked="false" />
  </sodipodi:namedview>
  <path
     id="path18"
     style="fill:#000000;stroke:none;stroke-width:1"
     d="m 1820.4104,324.99414 c -14.7656,-5.07574 -34.3784,-7.61523 -58.834,-7.61523 -24.4555,0 -36.2216,-17.53528 -35.2988,-52.60352 15.6884,-6.45997 31.146,-18.45609 46.3731,-35.99023 15.227,-17.53415 22.8417,-41.98834 22.8417,-73.36524 0,-31.37687 -14.0737,-52.14161 -42.2207,-62.292967 -28.1469,-10.151366 -58.8321,-12.91894 -92.0546,-8.304687 -33.2227,4.614251 -57.2188,29.990344 -71.9844,76.132814 -8.3057,11.07422 -17.9942,25.37992 -29.0684,42.91406 -5.537,12.9199 -5.537,20.06885 0,21.45313 5.5371,1.38425 10.1524,3.46385 13.8438,6.23242 -11.2989,6.7793 -5.017,11.20278 0,12.45703 0.3059,0.81432 0.1421,1.24466 -1.3828,2.76953 -2.7686,2.76855 -2.3086,5.07425 1.3828,6.91992 3.6914,1.84571 5.539,9.0005 5.539,21.45899 0,12.45846 3.6895,19.14746 11.0723,20.07031 7.3828,0.92285 18.457,0.92285 33.2227,0 9.2285,4.61424 10.6123,12.91898 4.1523,24.91601 -37.8368,-0.92281 -65.7525,2.76862 -83.748,11.07422 -17.9956,8.30569 -70.1777,65.22323 -103.7771,108.85409 l -42.8209,104.18999 c 78.6962,-52.73406 93.8849,-70.67311 173.5626,-133.11425 -2.1405,85.51896 30.5436,183.60158 54.0139,264.75377 -78.4422,72.90512 -131.044,139.35266 -157.8067,199.33789 -46.3316,103.84674 43.2092,124.96261 64.0751,124.75034 16.7456,-0.17035 36.3196,-3.2878 57.9347,-7.36948 l 237.2085,-41.7201 -60.7817,-67.55173 c -57.8714,-8.64949 -125.246,0.80488 -179.4115,20.71909 33.3177,-39.75488 72.2767,-83.49837 130.1086,-102.86809 l -13.3052,-18.5092 c -49.3725,19.37989 -79.1426,49.93799 -115.2809,85.35405 -26.2526,25.7279 -68.0304,105.3751 -94.9971,82.16325 -16.1498,-16.14987 -9.1681,-41.9765 15.2874,-89.50326 24.4556,-47.5268 78.1495,-108.19624 151.0547,-176.48715 -46.277,-163.51179 -51.5261,-189.54959 -54.6035,-266.76367 -1.5367,-38.55508 3.0664,-71.67263 46.8184,-77.9289 3.6913,-44.29681 -6.461,-65.29152 -30.4551,-62.98437 -23.9941,2.30711 -34.1426,-5.30766 -30.4512,-22.8418 12.9199,-7.38278 17.5352,-12.68801 13.8438,-15.91797 -3.6914,-3.22994 -11.0762,-5.30565 -22.1504,-6.22851 0.9228,-4.61425 -3.6905,-9.69142 -13.8418,-15.22852 9.2285,-22.14839 18.9189,-37.37404 29.0703,-45.67969 9.2284,-4.61425 18.917,-4.61425 29.0683,0 10.1514,4.61425 20.3038,7.84375 30.4551,9.68946 v -6.92188 c -6.46,0 -14.7646,-2.99951 -24.916,-8.99804 -10.1513,-5.99855 -20.3037,-6.69043 -30.4551,-2.07618 2.7686,-6.45992 5.9981,-11.53712 9.6895,-15.22851 26.7627,2.76854 48.4473,9.6895 65.0586,20.76367 0,11.07422 4.6152,11.76611 13.8437,2.07617 18.6293,-19.56078 43.9734,-9.73577 30.4531,17.30469 -6.4599,12.9199 -14.7647,23.53419 -24.916,31.83984 -10.1513,8.30564 -12.457,16.84229 -6.9199,25.60938 5.5371,8.76708 9.2285,16.83986 11.0742,24.22265 2.7686,46.14247 19.3399,71.94672 50.7168,72.40821 5.0302,0.074 9.8375,0.18737 14.416,0.40039 18.7616,0.87287 34.3085,33.80357 12.5821,62.01172 -31.8933,41.4081 -62.3844,151.93243 -28.4414,236.82422 23.1125,10.27425 50.3487,33.76965 45.2461,65.73242 l 23.8457,19.70703 c 7.6191,-38.24381 -10.2736,-87.89072 -44.9082,-100.64844 -15.6555,-66.11435 -10.4227,-157.05733 35.9023,-209.69922 z M 1680.2776,98.796875 c 3.6759,-0.07591 7.3671,0.0049 11.0449,0.212891 12.2278,0.692132 25.7247,2.884774 40.4903,6.576174 29.5312,7.38277 44.2988,24.91604 44.2988,52.60156 0,26.76264 -9.6905,49.60306 -29.0703,68.52148 -19.3799,18.91842 -32.2979,23.76368 -38.7578,14.53516 -5.5371,-7.38277 -0.2319,-19.14896 15.9179,-35.29883 30.835,-30.83495 17.0637,-78.47694 -40.8359,-50.52539 -9.2285,-10.15132 -30.9151,-17.53615 -65.0606,-22.15039 11.4417,-25.7436 36.2416,-33.941303 61.9727,-34.472655 z m -99.7207,137.451175 c 1.3698,-0.0438 9.9909,0.96198 14.2441,1.8125 1.8288,0.36573 5.4821,0.87478 5.5059,1.79883 h -22.1465 c -2.8204,0 -2.6139,-3.45039 2.3965,-3.61133 z m 18.3691,4.99609 c -3.2216,5.31006 -9.7731,5.69746 -15.2265,6.91992 -3.7949,1.06274 -6.7565,-0.16732 -2.7715,-4.15234 z m 109.2255,-76.00431 c -20.0016,0.40858 -32.4944,28.14904 -27.5526,33.09077 -10.7275,5.36371 -14.1275,15.22454 -3.4622,20.07246 11.4828,5.21933 33.4692,-21.7344 38.0646,-33.22268 1.7746,-4.43651 7.1082,-20.22952 -7.0498,-19.94055 z m -1.6176,8.73005 c 6.6551,0.1213 2.0326,12.94222 -4.4807,20.90288 -4.1528,5.07568 -8.077,8.53433 -11.7684,10.38006 -3.6914,1.84568 -3.6914,0.22948 0,-4.8462 3.6914,-5.07565 3.6914,-6.91813 0,-5.53386 -3.6914,1.38428 -4.6115,-0.23197 -2.7659,-4.8462 2.0077,-5.01918 9.6214,-16.22786 19.015,-16.05668 z m -25.935,32.66911 c 3.6914,2.76853 4.1504,5.07431 1.3819,6.92004 -2.7686,1.84567 -4.6154,1.61515 -5.5383,-0.692 -0.9228,-2.30711 0.465,-4.38236 4.1564,-6.22804 z m -65.3079,-35.18193 c -4.4486,-0.22821 -9.0445,0.68496 -13.5979,3.34107 l -9.6902,8.30624 v 6.92219 h 5.5382 c 12.9199,5.53709 26.7633,5.53709 41.5289,0 l 15.2263,2.76802 v -8.30621 l -13.8445,-1.384 c -6.3049,-5.12277 -15.3739,-11.14526 -25.1608,-11.64731 z m -5.2938,6.10909 c -2.7686,2.76854 -2.7686,5.99879 0,9.69023 -4.6143,-1.84571 -7.3812,-3.22916 -8.3041,-4.15201 0.9229,-1.84569 3.6898,-3.69251 8.3041,-5.53822 z m 12.4604,1.38619 11.0742,6.92219 c -4.6143,0.92286 -9.2281,1.38185 -13.8423,1.38185 3.6914,-1.84571 4.6137,-4.61266 2.7681,-8.30404 z"
     sodipodi:nodetypes="cscssssccsccssssccsccccssccccccscscscscscccsccscccsssscsssccccccscssscsccssscssccccscsssssssssscsscsccccccccscccccccc" />
  <path
     id="path13"
     style="fill:#000000;stroke:none;stroke-width:1"
     d="m 1651.1125,655.03168 -25.8857,20.87457 c 63.3497,116.33508 121.8972,231.97698 228.9058,311.17187 14.9124,11.03634 21.2862,12.92188 41.2305,12.92188 20.9433,0 49.2318,-10.71551 91.2383,-28.0293 41.9972,-17.33443 57.6547,-39.37407 123.7273,-57.93452 44.6871,-12.55307 74.7454,-3.83914 97.0143,30.28965 22.5421,40.35017 41.8104,58.76177 57.8042,55.23223 9.4833,-4.07556 12.2495,-14.71787 8.299,-31.92682 -3.9507,-17.20916 -11.8306,-34.00774 -23.6419,-50.39455 -11.8116,-16.38678 -17.7295,-34.06652 -17.7518,-53.04114 -0.02,-18.97531 -5.5956,-26.61326 -16.7246,-38.25883 -11.1273,-11.64125 -29.2174,-17.32598 -54.2727,-1.70724 -25.0566,15.61459 -61.5922,27.37695 -107.4706,30.06647 -45.8785,2.68952 -98.6283,19.54938 -154.2215,49.77436 -44.527,-46.65653 -86.3684,-124.91765 -81.021,-178.05859 l -23.8457,-19.70703 c -12.8904,62.86194 39.7016,164.49196 72.9753,197.76562 23.5635,23.56352 29.3914,40.58165 18.4166,50.32917 -9.2879,8.24915 -32.4103,-4.58578 -45.3766,-14.73572 -98.6512,-77.03886 -134.7161,-172.79268 -189.3992,-284.63208 z"
     sodipodi:nodetypes="ccsscsccsccccscccsssc" />
  <path
     d="m 1440.4693,440.07479 c -13.6111,-80.10755 -21.1703,-104.04917 -34.3928,-160.31173 1.3778,-83.28665 -37.7365,-116.13247 -64.6916,-135.29151 -8.2961,0.97641 -12.7876,4.3775 -13.4771,10.2008 -0.6895,5.82331 1.8009,10.82509 7.4695,15.0104 35.2138,31.16745 38.4927,61.12991 38.6179,86.9277 -10.5769,-6.03392 -17.8857,-16.57823 -21.9219,-31.63121 -4.0361,-15.05302 -10.21,-20.79701 -18.5247,-17.23036 5.1543,39.66925 19.1951,68.26637 42.123,85.78662 9.7956,60.64136 -15.3592,158.70283 21.9768,250.72928 z"
     style="fill:#000000;stroke:none;stroke-width:1"
     id="path1"
     inkscape:transform-center-x="27.313776"
     inkscape:transform-center-y="-161.70399"
     sodipodi:nodetypes="ccccccccccc" />
  <path
     d="m 1557.7273,579.37996 c 42.5249,16.1346 68.4119,6.3281 88.4908,-2.97707 -10.0368,-6.44005 -22.0151,-8.40511 -35.9351,-5.89704 -13.9201,2.50809 -21.0204,-0.45182 -21.3038,-8.87952 35.5109,-11.35985 64.8181,-10.79122 87.922,1.7104 73.3874,-10.13166 79.2066,-42.72099 143.3633,-37.96654 l -10.9283,-109.70613 11.0742,-90.66992 c 26.0285,5.11198 40.4016,39.67757 44.9755,61.14921 17.2178,80.8257 17.2895,150.09309 15.726,175.7329 -62.7933,26.54192 -102.2019,29.2772 -203.648,33.70462 -71.5723,32.57809 -111.2232,14.32472 -138.6272,-1.15022 -5.2238,-16.64458 6.0743,-20.99586 18.8906,-15.05069 z"
     style="fill:#000000;stroke:none;stroke-width:1"
     id="path1-7"
     sodipodi:nodetypes="ccscccccscccc"
     inkscape:transform-center-x="-108.55309"
     inkscape:transform-center-y="237.19846" />
  <path
     id="path29"
     style="fill:#000000;stroke:none;stroke-width:1"
     d="m 705.02529,314.59563 c -14.60798,-5.54003 -21.1478,-22.81835 -20.43726,-49.82024 15.6884,-6.45997 31.146,-18.45609 46.3731,-35.99023 15.227,-17.53415 22.8417,-41.98834 22.8417,-73.36524 0,-31.37687 -14.0737,-52.14161 -42.2207,-62.292967 -28.1469,-10.151366 -58.8321,-12.91894 -92.0546,-8.304687 -33.2227,4.614251 -57.2188,29.990344 -71.9844,76.132814 -8.3057,11.07422 -17.9942,25.37992 -29.0684,42.91406 -5.537,12.9199 -5.537,20.06885 0,21.45313 5.5371,1.38425 10.1524,3.46385 13.8438,6.23242 -11.2989,6.7793 -5.017,11.20278 0,12.45703 0.3059,0.81432 0.1421,1.24466 -1.3828,2.76953 -2.7686,2.76855 -2.3086,5.07425 1.3828,6.91992 3.6914,1.84571 5.539,9.0005 5.539,21.45899 0,12.45846 3.6895,19.14746 11.0723,20.07031 7.3828,0.92285 18.457,0.92285 33.2227,0 9.2285,4.61424 10.6123,12.91898 4.1523,24.91601 -37.8368,-0.92281 -66.34695,5.02202 -85.748,9.07422 -39.20881,-7.95777 -87.15528,-11.45523 -140.63957,-9.23406 l -40.12017,60.50573 c 88.54365,9.47647 126.07607,11.83584 207.72434,14.65816 -2.1405,85.51896 32.5436,199.60158 56.0139,280.75377 -78.4422,72.90512 -131.044,139.35266 -157.8067,199.33789 -46.3316,103.84674 43.2092,124.96261 64.0751,124.75034 16.7456,-0.17035 36.3196,-3.2878 57.9347,-7.36948 l 232.2085,-40.2201 -60.7817,-64.05173 c -57.8714,-8.64949 -120.246,-4.19512 -174.4115,15.71909 33.3177,-39.75488 72.2767,-83.49837 130.1086,-102.86809 l -13.3052,-18.5092 c -49.3725,19.37989 -79.1426,49.93799 -115.2809,85.35405 -26.2526,25.7279 -68.0304,105.3751 -94.9971,82.16325 -16.1498,-16.14987 -9.1681,-41.9765 15.2874,-89.50326 24.4556,-47.5268 78.1495,-108.19624 151.0547,-176.48715 -46.277,-163.51179 -51.5261,-189.54959 -54.6035,-266.76367 -1.5367,-38.55508 3.0664,-71.67263 46.8184,-77.9289 3.6913,-44.29681 -6.461,-65.29152 -30.4551,-62.98437 -23.9941,2.30711 -34.1426,-5.30766 -30.4512,-22.8418 12.9199,-7.38278 17.5352,-12.68801 13.8438,-15.91797 -3.6914,-3.22994 -11.0762,-5.30565 -22.1504,-6.22851 0.9228,-4.61425 -3.6905,-9.69142 -13.8418,-15.22852 9.2285,-22.14839 18.9189,-37.37404 29.0703,-45.67969 9.2284,-4.61425 18.917,-4.61425 29.0683,0 10.1514,4.61425 20.3038,7.84375 30.4551,9.68946 v -6.92188 c -6.46,0 -14.7646,-2.99951 -24.916,-8.99804 -10.1513,-5.99855 -20.3037,-6.69043 -30.4551,-2.07618 2.7686,-6.45992 5.9981,-11.53712 9.6895,-15.22851 26.7627,2.76854 48.4473,9.6895 65.0586,20.76367 0,11.07422 4.6152,11.76611 13.8437,2.07617 18.6293,-19.56078 43.9734,-9.73577 30.4531,17.30469 -6.4599,12.9199 -14.7647,23.53419 -24.916,31.83984 -10.1513,8.30564 -12.457,16.84229 -6.9199,25.60938 5.5371,8.76708 9.2285,16.83986 11.0742,24.22265 2.07946,34.65699 12.30096,57.19841 30.02291,67.43018 18.00822,10.39705 27.91197,44.3991 19.40772,67.03659 -20.48373,54.52568 -34.10013,152.28598 -0.15713,237.17777 23.1125,10.27425 50.3487,33.76965 45.2461,65.73242 l 23.8457,19.70703 c 7.6191,-38.24381 -10.2736,-87.89072 -44.9082,-100.64844 -15.6555,-66.11435 -25.96729,-131.65892 4.2896,-206.02765 14.20594,-34.91692 1.99765,-92.22244 -31.00864,-104.74 z M 638.58803,98.796875 c 3.6759,-0.07591 7.3671,0.0049 11.0449,0.212891 12.2278,0.692132 25.7247,2.884774 40.4903,6.576174 29.5312,7.38277 44.2988,24.91604 44.2988,52.60156 0,26.76264 -9.6905,49.60306 -29.0703,68.52148 -19.3799,18.91842 -32.2979,23.76368 -38.7578,14.53516 -5.5371,-7.38277 -0.2319,-19.14896 15.9179,-35.29883 30.835,-30.83495 17.0637,-78.47694 -40.8359,-50.52539 -9.2285,-10.15132 -30.9151,-17.53615 -65.0606,-22.15039 11.4417,-25.7436 36.2416,-33.941303 61.9727,-34.472655 z m -99.7207,137.451175 c 1.3698,-0.0438 9.9909,0.96198 14.2441,1.8125 1.8288,0.36573 5.4821,0.87478 5.5059,1.79883 h -22.1465 c -2.8204,0 -2.6139,-3.45039 2.3965,-3.61133 z m 18.3691,4.99609 c -3.2216,5.31006 -9.7731,5.69746 -15.2265,6.91992 -3.7949,1.06274 -6.7565,-0.16732 -2.7715,-4.15234 z m 109.2255,-76.00431 c -20.0016,0.40858 -32.4944,28.14904 -27.5526,33.09077 -10.7275,5.36371 -14.1275,15.22454 -3.4622,20.07246 11.4828,5.21933 33.4692,-21.7344 38.0646,-33.22268 1.7746,-4.43651 7.1082,-20.22952 -7.0498,-19.94055 z m -1.6176,8.73005 c 6.6551,0.1213 2.0326,12.94222 -4.4807,20.90288 -4.1528,5.07568 -8.077,8.53433 -11.7684,10.38006 -3.6914,1.84568 -3.6914,0.22948 0,-4.8462 3.6914,-5.07565 3.6914,-6.91813 0,-5.53386 -3.6914,1.38428 -4.6115,-0.23197 -2.7659,-4.8462 2.0077,-5.01918 9.6214,-16.22786 19.015,-16.05668 z m -25.935,32.66911 c 3.6914,2.76853 4.1504,5.07431 1.3819,6.92004 -2.7686,1.84567 -4.6154,1.61515 -5.5383,-0.692 -0.9228,-2.30711 0.465,-4.38236 4.1564,-6.22804 z m -65.3079,-35.18193 c -4.4486,-0.22821 -9.0445,0.68496 -13.5979,3.34107 l -9.6902,8.30624 v 6.92219 h 5.5382 c 12.9199,5.53709 26.7633,5.53709 41.5289,0 l 15.2263,2.76802 v -8.30621 l -13.8445,-1.384 c -6.3049,-5.12277 -15.3739,-11.14526 -25.1608,-11.64731 z m -5.2938,6.10909 c -2.7686,2.76854 -2.7686,5.99879 0,9.69023 -4.6143,-1.84571 -7.3812,-3.22916 -8.3041,-4.15201 0.9229,-1.84569 3.6898,-3.69251 8.3041,-5.53822 z m 12.4604,1.38619 11.0742,6.92219 c -4.6143,0.92286 -9.2281,1.38185 -13.8423,1.38185 3.6914,-1.84571 4.6137,-4.61266 2.7681,-8.30404 z"
     sodipodi:nodetypes="scssssccsccsssscccccccssccccccscscscscscccsccscccsssscssccccssscssscsccscscsccccccccscssssssscsscsccccccccscccccccc"
     inkscape:transform-center-x="-220.42403"
     inkscape:transform-center-y="151.71833" />
  <path
     id="path30"
     style="fill:#000000;stroke:none;stroke-width:1"
     d="m 609.42293,655.03168 -25.8857,20.87457 c 63.3497,116.33508 113.5246,231.97698 220.5332,311.17187 C 818.9828,998.11446 825.3566,1000 845.3009,1000 c 20.9433,0 49.2319,-10.71551 91.2384,-28.0293 41.9972,-17.33443 68.9684,-39.37407 135.041,-57.93452 44.6871,-12.55307 74.7454,-3.83914 97.0143,30.28965 22.5421,40.35017 41.8104,58.76177 57.8042,55.23223 9.4833,-4.07556 12.2495,-14.71787 8.299,-31.92682 -3.9507,-17.20916 -11.8306,-34.00774 -23.6419,-50.39455 -11.8116,-16.38678 -17.7295,-34.06652 -17.7518,-53.04114 -0.02,-18.97531 -5.5956,-26.61326 -16.7246,-38.25883 -11.1273,-11.64125 -29.2174,-17.32598 -54.2727,-1.70724 -25.0566,15.61459 -61.5922,27.37695 -107.4706,30.06647 -45.8785,2.68952 -109.942,19.54938 -165.5353,49.77436 -44.52697,-46.65653 -77.99577,-124.91765 -72.64837,-178.05859 l -23.8457,-19.70703 c -12.77114,62.28016 23.47551,156.63846 64.60267,197.76562 23.56352,23.56352 28.81939,36.46185 18.4521,47.32917 -9.18529,9.62831 -38.35997,-3.75735 -51.32627,-13.90729 -98.6512,-77.03886 -120.4293,-170.62111 -175.1124,-282.46051 z"
     sodipodi:nodetypes="ccsscsccsccccscccsssc" />
  <path
     style="fill:#f9f06b;stroke:none;stroke-width:1px;stroke-linecap:butt;stroke-linejoin:miter;stroke-opacity:1"
     d="m 926.3587,985.70686 -28.9914,-66.46805 23.3345,-65.05382 333.7544,-76.36753 74.2462,256.67974 -362.7458,13.4351 z"
     id="path33"
     sodipodi:nodetypes="ccccccc" />
  <path
     d="M 359.91726,319.98664 C 354.80107,238.89222 350.21428,198.68211 342.97836,141.34144 353.10218,58.660897 317.6567,21.885981 292.86456,0 c -8.35278,0.09906 -13.17686,3.009244 -14.47459,8.727824 -1.29772,5.718588 0.65318,10.954412 5.8505,15.712328 31.74298,34.695886 31.85458,64.837026 29.26767,90.505088 -9.88414,-7.11217 -16.04422,-18.366242 -18.47596,-33.760072 -2.43163,-15.39385 -7.96763,-21.75492 -16.61114,-19.08192 0.95641,39.991272 11.91381,69.905722 32.87329,89.738722 3.36778,61.33503 -18.95421,133.20954 8.50276,228.6504 z"
     style="fill:#000000;stroke:none;stroke-width:1"
     id="path31"
     inkscape:transform-center-x="16.509538"
     inkscape:transform-center-y="-146.79278"
     sodipodi:nodetypes="ccccccccccc" />
  <path
     id="path25"
     style="fill:#000000;stroke:none;stroke-width:1"
     d="m 1109.7238,82.746094 c -7.9884,0.230804 -16.1358,0.922608 -24.4414,2.076172 -33.2227,4.614251 -57.2188,29.990344 -71.9844,76.132814 -8.3057,11.07422 -17.9941,25.37992 -29.0683,42.91406 -5.537,12.9199 -5.537,20.06885 0,21.45313 5.5371,1.38425 10.1523,3.46385 13.8437,6.23242 -11.2989,6.7793 -5.017,11.20278 0,12.45703 0.3059,0.81432 0.1421,1.24466 -1.3828,2.76953 -2.7686,2.76855 -2.3086,5.07425 1.3828,6.91992 3.6914,1.84571 5.5391,9.0005 5.5391,21.45899 0,12.45846 3.6894,19.14746 11.0722,20.07031 7.3828,0.92285 18.457,0.92285 33.2227,0 9.2285,4.61424 11.1123,19.91898 4.6523,31.91601 -52.4952,14.06605 -55.3458,66.2498 -48.7979,115.04554 11.3774,84.78578 24.1794,150.43877 45.5284,233.71228 -78.4422,72.90512 -131.0439,139.35266 -157.8066,199.33789 -46.3316,103.84674 43.2102,124.96231 64.0761,124.75 l 54.9493,-95.92188 c 29.4178,-35.10146 168.6015,-80.17872 212.4313,-144.41149 28.7785,-42.17511 9.8157,-98.78269 -27.9411,-131.29554 -15.6555,-66.11435 -7.9227,-160.05733 38.4023,-212.69922 l 11.0743,-90.66992 c -14.7656,-5.07574 -34.3784,-7.61523 -58.834,-7.61523 -24.4555,0 -36.2217,-17.53528 -35.2989,-52.60352 15.6884,-6.45997 31.146,-18.45609 46.3731,-35.99023 15.227,-17.53415 22.8418,-41.98834 22.8418,-73.36524 0,-31.37687 -14.0737,-52.14161 -42.2207,-62.292967 -21.1102,-7.613524 -43.648,-11.073272 -67.6133,-10.380859 z m -5.3809,16.050781 c 3.6759,-0.07591 7.3672,0.0049 11.045,0.212891 12.2278,0.692132 25.7246,2.884774 40.4902,6.576174 29.5312,7.38277 44.2988,24.91604 44.2988,52.60156 0,26.76264 -9.6905,49.60306 -29.0703,68.52148 -19.3799,18.91842 -32.2979,23.76368 -38.7578,14.53516 -5.5371,-7.38277 -0.2318,-19.14896 15.918,-35.29883 30.835,-30.83495 17.0636,-78.47694 -40.836,-50.52539 -9.2285,-10.15132 -30.915,-17.53615 -65.0605,-22.15039 11.4417,-25.7436 36.2415,-33.941303 61.9726,-34.472655 z m -68.8945,48.314455 c 26.7627,2.76854 48.4473,9.6895 65.0586,20.76367 0,11.07422 4.6153,11.76611 13.8438,2.07617 18.6293,-19.56078 43.9734,-9.73577 30.4531,17.30469 -6.4599,12.9199 -14.7647,23.53419 -24.916,31.83984 -10.1513,8.30564 -12.4571,16.84229 -6.92,25.60938 5.5371,8.76708 9.2286,16.83986 11.0743,24.22265 2.7686,46.14247 19.3399,71.94672 50.7168,72.40821 5.0302,0.074 9.8375,0.18737 14.416,0.40039 18.7616,0.87287 34.3084,33.80357 12.582,62.01172 -31.8933,41.4081 -62.3844,151.93243 -28.4414,236.82422 46.6374,39.28887 42.3691,86.64751 31.4436,102.17728 -44.2479,62.89497 -164.6867,96.0255 -196.3536,126.06957 -34.35489,32.59428 -64.4046,104.60367 -91.3713,81.39182 -16.1498,-16.14987 -9.1683,-41.97715 15.2872,-89.50391 24.4556,-47.5268 78.1494,-108.19542 151.0546,-176.48633 -31.4278,-133.81331 -40.6768,-160.42219 -49.4111,-243.29311 -5.3944,-51.18236 0.5969,-83.56622 41.626,-101.40025 3.6913,-44.29681 -6.461,-65.29152 -30.4551,-62.98437 -23.9941,2.30711 -34.1426,-5.30766 -30.4512,-22.8418 12.9199,-7.38278 17.5352,-12.68801 13.8438,-15.91797 -3.6914,-3.22994 -11.0762,-5.30565 -22.1504,-6.22851 0.9228,-4.61425 -3.6905,-9.69142 -13.8418,-15.22852 9.2285,-22.14839 18.9189,-37.37404 29.0703,-45.67969 9.2284,-4.61425 18.9171,-4.61425 29.0684,0 10.1514,4.61425 20.3037,7.84375 30.455,9.68946 v -6.92188 c -6.46,0 -14.7646,-2.99951 -24.916,-8.99804 -10.1513,-5.99855 -20.3036,-6.69043 -30.455,-2.07618 2.7686,-6.45992 5.998,-11.53712 9.6894,-15.22851 z m -30.8262,89.13672 c 1.3698,-0.0438 9.991,0.96198 14.2442,1.8125 1.8288,0.36573 5.482,0.87477 5.5058,1.79883 h -22.1464 c -2.8204,0 -2.614,-3.45039 2.3964,-3.61133 z m 18.3692,4.99609 c -3.2216,5.31006 -9.7732,5.69746 -15.2266,6.91992 -3.7949,1.06274 -6.7565,-0.16732 -2.7715,-4.15234 z m 109.2258,-76.00431 c -20.0016,0.40858 -32.4944,28.14904 -27.5526,33.09077 -10.7275,5.36371 -14.1275,15.22454 -3.4622,20.07246 11.4828,5.21933 33.4692,-21.7344 38.0646,-33.22268 1.7746,-4.43651 7.1082,-20.22952 -7.0498,-19.94055 z m -1.6176,8.73005 c 6.6551,0.1213 2.0326,12.94222 -4.4807,20.90288 -4.1528,5.07568 -8.077,8.53433 -11.7684,10.38006 -3.6914,1.84568 -3.6914,0.22948 0,-4.8462 3.6914,-5.07565 3.6914,-6.91813 0,-5.53386 -3.6914,1.38428 -4.6115,-0.23197 -2.7659,-4.8462 2.0077,-5.01918 9.6214,-16.22786 19.015,-16.05668 z m -25.935,32.66911 c 3.6914,2.76853 4.1504,5.07431 1.3819,6.92004 -2.7686,1.84567 -4.6154,1.61515 -5.5383,-0.692 -0.9228,-2.30711 0.465,-4.38236 4.1564,-6.22804 z m -65.3079,-35.18193 c -4.4486,-0.22821 -9.0445,0.68496 -13.5979,3.34107 l -9.6902,8.30624 v 6.92219 h 5.5382 c 12.9199,5.53709 26.7633,5.53709 41.5289,0 l 15.2263,2.76802 v -8.30621 l -13.8445,-1.384 c -6.3049,-5.12277 -15.3739,-11.14526 -25.1608,-11.64731 z m -5.2938,6.10909 c -2.7686,2.76854 -2.7686,5.99879 0,9.69023 -4.6143,-1.84571 -7.3812,-3.22916 -8.3041,-4.15201 0.9229,-1.84569 3.6898,-3.69251 8.3041,-5.53822 z m 12.4604,1.38619 11.0742,6.92219 c -4.6143,0.92286 -9.2281,1.38185 -13.8423,1.38185 3.6914,-1.84571 4.6137,-4.61266 2.7681,-8.30404 z"
     sodipodi:nodetypes="ssccsccssssccscsccscccscssssscssscsccsccsssscssscsscscscscscccsccsccsscssccccccsscssssssscsscsccccccccscccccccc" />
  <path
     d="m 1263.8336,785.37675 c 32.7993,-32.54672 33.7165,-61.202 33.249,-83.72718 -10.0635,6.72629 -16.7627,17.09182 -20.0992,31.09627 -3.3365,14.00445 -8.974,19.41509 -16.9137,16.23464 3.9054,-37.75404 16.3604,-64.84818 37.3693,-81.28082 17.4953,-52.32068 0.2207,-86.94812 9.0037,-131.15237 -28.4017,-43.7059 -49.7328,-70.38866 -73.0408,-120.88323 l 11.0742,-90.66992 c 26.0285,5.11198 33.1383,19.84052 41.4755,40.14921 30.7178,74.8257 72.8633,138.48326 77.2737,163.78924 -9.9886,61.53918 -21.2762,105.64198 -35.6219,151.42152 1.1178,80.05082 -31.9652,109.56129 -57.4846,128.78814 -16.8432,-1.80222 -15.4529,-14.66838 -6.2852,-23.7655 z"
     style="fill:#000000;stroke:none;stroke-width:1"
     id="path28"
     sodipodi:nodetypes="scscccccscccs"
     inkscape:transform-center-x="-108.55309"
     inkscape:transform-center-y="237.19846" />
  <path
     d="m 955.559,999.99253 c 20.9433,0 100.1818,-10.70802 142.1883,-28.02182 41.9972,-17.3344 68.9684,-39.3741 135.041,-57.9345 44.6871,-12.55309 74.7454,-3.8392 97.0143,30.2896 22.5421,40.3502 41.8104,58.76179 57.8042,55.2323 9.4833,-4.0756 12.2495,-14.7179 8.299,-31.9269 -3.9507,-17.2091 -11.8306,-34.0077 -23.6419,-50.3945 -11.8116,-16.38679 -17.7295,-34.06653 -17.7518,-53.04115 -0.02,-18.97531 -5.5956,-26.61326 -16.7246,-38.25883 -11.1273,-11.64125 -29.2174,-17.32598 -54.2727,-1.70724 -25.0566,15.61459 -61.5922,27.37695 -107.4706,30.06647 -45.8785,2.68952 -109.942,19.54938 -165.5352,49.77435"
     style="fill:#000000;stroke:none;stroke-width:1"
     id="path1-2"
     sodipodi:nodetypes="ccsccsscccsc" />
  <path
     d="m 407.05323,327.42549 c 15.22415,-79.8167 20.78746,-119.90337 28.04771,-177.24096 30.37947,-77.56063 5.19994,-121.99899 -13.36629,-149.3657851 -8.11469,-1.9825488 -13.5112,-0.36432126 -16.19111,4.8514557 -2.6799,5.2157874 -2.09324,10.7723774 1.75664,16.6739264 22.11084,41.503401 14.71865,70.724222 5.82591,94.941163 -7.80345,-9.34801 -10.96932,-21.780941 -9.49399,-37.295669 1.47543,-15.51472 -2.30355,-23.053272 -11.34033,-22.615189 -9.02504,38.971339 -5.85617,70.671448 9.50882,95.096128 -12.00067,60.24377 -51.50566,124.30289 -48.66171,223.57401 z"
     style="fill:#000000;stroke:none;stroke-width:1"
     id="path34"
     inkscape:transform-center-x="-21.99835"
     inkscape:transform-center-y="-149.83542"
     sodipodi:nodetypes="ccccccccccc" />
  <path
     style="fill:none;stroke:#613583;stroke-width:25;stroke-linecap:butt;stroke-linejoin:miter;stroke-dasharray:none;stroke-opacity:1"
     d="m 597.53275,320.14648 1134.78705,0"
     id="path35"
     sodipodi:nodetypes="cc" />
</svg>
