<?xml version="1.0" encoding="UTF-8" standalone="no"?>
<svg
   width="900"
   height="1000"
   version="1.1"
   id="svg1"
   sodipodi:docname="135E7.svg"
   inkscape:version="1.4.2 (f4327f4, 2025-05-13)"
   xmlns:inkscape="http://www.inkscape.org/namespaces/inkscape"
   xmlns:sodipodi="http://sodipodi.sourceforge.net/DTD/sodipodi-0.dtd"
   xmlns="http://www.w3.org/2000/svg"
   xmlns:svg="http://www.w3.org/2000/svg">
  <defs
     id="defs1" />
  <sodipodi:namedview
     id="namedview1"
     pagecolor="#ffffff"
     bordercolor="#666666"
     borderopacity="1.0"
     inkscape:showpageshadow="2"
     inkscape:pageopacity="0.0"
     inkscape:pagecheckerboard="0"
     inkscape:deskcolor="#d1d1d1"
     inkscape:zoom="0.75500005"
     inkscape:cx="272.18541"
     inkscape:cy="477.48341"
     inkscape:window-width="1680"
     inkscape:window-height="998"
     inkscape:window-x="-8"
     inkscape:window-y="-8"
     inkscape:window-maximized="1"
     inkscape:current-layer="svg1"
     showguides="true">
    <sodipodi:guide
       position="0,1000"
       orientation="0,-1"
       id="guide1"
       inkscape:locked="false" />
    <sodipodi:guide
       position="0,0"
       orientation="0,-1"
       id="guide17"
       inkscape:locked="false" />
  </sodipodi:namedview>
  <path
     style="fill:#000000;stroke:none;stroke-width:0.999997"
     d="m 323.9038,527.97359 c -4.82358,19.26892 -9.76611,41.08428 -17.69894,64.17014 -17.3129,50.38346 -76.2102,109.52455 -82.71018,165.16215 l -26.69597,140.31761 c -5.0481,26.5323 -11.37771,43.33944 -23.06103,47.88299 -17.72052,6.89137 -35.44872,12.14135 -53.18446,15.74983 -17.73584,3.60954 -30.019516,8.53285 -36.848285,14.7676 -6.829358,6.23473 -8.301077,11.32027 -4.409729,15.25777 3.89097,3.93589 7.084326,8.86092 11.462655,8.86092 h 83.677379 c 13.34615,0 21.5148,-6.58129 25.82872,-3.62543 4.31179,2.96114 11.42327,4.10423 21.33029,3.44634 9.9047,-0.6563 15.58042,-8.53196 17.01869,-23.62664 -3.62452,-17.06396 2.34957,-34.70654 13.17447,-55.62216 26.3476,-50.90794 31.14927,-86.31661 38.86366,-149.02584 l 96.27318,-133.2741 c 11.15155,-15.43756 34.53942,64.99512 45.66201,84.67282 11.12394,19.67782 24.14773,35.50406 39.0711,47.47953 14.92317,11.97495 43.20827,37.7902 77.17123,77.86311 33.95687,40.07648 46.6072,65.85294 37.94366,77.33333 -8.66336,11.48088 -11.61585,25.11423 -26.72986,34.36911 -13.9687,8.55352 -28.60634,11.14088 -33.61313,18.3987 -7.76942,12.17591 0.52105,21.43214 13.22544,21.43214 h 30.1366 c 18.675,0 51.60454,-28.61328 51.60454,-28.61328 11.86199,-4.46224 15.65929,-13.59122 21.08337,-12.9313 5.42494,0.66555 12.27512,-1.37613 20.55546,-6.11216 8.28207,-4.735 8.9927,-14.19189 2.13422,-28.37196 -21.41764,-23.17601 -36.68928,-44.95133 -45.81297,-65.32582 -9.12852,-20.37219 -21.1438,-44.08585 -36.05075,-71.14011 -14.90821,-27.05426 -38.29695,-50.31727 -69.87133,-82.7253 -15.42705,-53.07299 -31.68635,-86.0148 -31.02832,-105.70341 19.84125,-50.45132 5.99373,-97.17315 -5.16607,-120.15238 l -23.22597,5.23116 c 45.55448,105.26185 -12.72685,126.62346 -59.88957,126.62346 -54.21725,0 -56.95022,-52.32749 -51.57943,-71.96191 z"
     id="path20"
     sodipodi:nodetypes="csccscccsscccscccsccscssccccccccccscc" />
  <path
     style="fill:#000000;stroke:none;stroke-width:0.999997"
     d="m 326.21706,138.94276 c 0.6138,2.13958 -2.19104,5.44719 -5.85951,0.98413 -5.28451,-6.22242 -6.73344,-1.81465 -5.40516,0.91814 1.2815,-1.22984 2.92556,-0.72099 4.83014,1.53275 4.35209,5.03965 10.3086,1.30099 9.33606,-3.43502 -0.7432,-6.04399 -3.75228,-2.06758 -2.90153,0 z m -11.26467,1.90227 c -0.0203,0.0197 -0.0415,0.0398 -0.0618,0.0603 h 0.0927 c -0.0106,-0.0206 -0.0203,-0.0399 -0.0299,-0.0603 z"
     id="path12"
     sodipodi:nodetypes="ccccccccccc" />
  <path
     style="fill:#000000;stroke:none;stroke-width:0.999997"
     d="m 340.47757,103.30672 c -2.77237,0.0895 -5.38479,0.85005 -7.83727,2.28122 l -6.86437,5.88592 v 4.90745 l 3.92327,-0.004 c 9.1542,4.57976 19.6204,4.57976 31.39223,0 l 11.77184,2.94485 v -6.86628 h -11.77184 c -7.64228,-6.29569 -14.51476,-9.34632 -20.61386,-9.14939 z m -0.9672,3.26535 c -2.63386,2.61831 -2.63386,5.23075 0,7.84853 -3.2665,-1.31093 -5.57766,-2.28907 -6.86814,-2.94485 0.65832,-1.31091 2.94805,-2.94361 6.86814,-4.90368 z m 8.82513,1.95695 7.84847,4.90745 c -3.26823,1.30619 -6.53029,1.9626 -9.80924,1.9626 l 0.0261,-0.004 c 2.58008,-1.95983 3.22441,-4.24852 1.93431,-6.86629 z"
     id="path11" />
  <path
     id="path10"
     style="fill:#000000;stroke:none;stroke-width:0.999997"
     d="m 412.07196,97.190793 c -12.85543,0 -24.48697,20.720087 -20.54041,26.058687 l 0.0321,0.002 c -3.91323,1.96199 -6.22316,4.58034 -6.86816,7.84853 -0.6451,3.27248 0.80451,5.72426 4.40595,7.35835 3.59604,1.63517 8.6652,-0.81768 15.20688,-7.35835 6.53637,-6.54067 10.92905,-12.4276 13.2405,-17.65777 2.25759,-5.23233 2.57975,-9.48592 0.96716,-12.75409 -1.22561,-2.45114 -3.3777,-3.497242 -6.44397,-3.497242 z m -1.42341,6.903987 c 5.54808,0 2.88216,9.87902 -2.40942,16.21174 -3.27363,3.92558 -6.3645,6.70462 -9.32095,8.3387 -2.95644,1.63411 -2.95644,0.48895 0,-3.43502 2.95644,-3.92935 2.95646,-5.3918 0,-4.4135 -2.95644,0.98368 -3.60159,-0.32725 -1.98899,-3.92332 1.87779,-4.13418 6.57653,-12.7786 13.71936,-12.7786 z m -19.14339,25.04062 c 3.22518,2.61777 3.76313,4.57972 1.45168,5.88593 -2.25768,1.31157 -3.76264,0.98351 -4.40784,-0.97848 -0.64499,-1.96198 0.32231,-3.60124 2.95616,-4.90745 z"
     sodipodi:nodetypes="scccccccsscscccscccc" />
  <path
     id="path2243-9"
     style="fill:#000000;stroke:none;stroke-width:0.999997"
     d="m 395.2588,34.80039 c -25.96324,0.805925 -54.29716,5.171301 -71.55298,59.996066 -6.54177,7.848484 -13.73885,18.967564 -21.58674,33.356704 -3.92405,9.1563 -3.92405,14.39085 0,15.69706 3.94005,1.31157 6.89567,2.94546 8.83076,4.90744 -5.72582,4.26642 -4.36477,8.827 1.95695,8.827 1.34376,0 0.85976,1.14513 -1.45169,3.43502 -2.25768,2.28934 -2.09466,4.08955 0.5392,5.39575 2.63395,1.30781 3.92332,5.39643 3.92332,12.26391 0,6.8648 2.78441,10.79355 8.34248,11.77184 5.55805,0.96756 13.89468,1.14032 25.01611,0.48452 l 3.92521,14.7167 -0.96905,10.79148 c -38.58393,-0.65417 -66.0568,12.09879 -82.40858,38.26039 l 30.26861,36.30532 c 9.15951,48.39922 19.62073,87.96851 31.39787,118.70824 8.79878,22.97648 6.26959,62.39488 -7.58647,118.25576 l 18.64068,10.80691 c 18.85631,-71.4074 19.67432,-89.70135 1.75821,-156.56517 -11.06291,-41.28734 -23.37404,-83.86938 -30.29291,-125.16429 -2.3954,-14.29684 7.03421,-22.38765 21.3156,-23.35819 9.31859,-0.63327 20.50466,-0.77302 33.54484,-0.56213 v -27.4689 c -1.30621,-20.27779 -9.81042,-28.77637 -25.5063,-25.50817 -15.68506,3.27032 -21.92084,-1.63348 -18.64189,-14.71481 9.76145,-5.23233 13.25577,-8.99368 10.29942,-11.28355 -2.94033,-2.2888 -8.66578,-4.08955 -17.16948,-5.39575 0.65571,-3.92397 -2.61176,-7.84787 -9.80924,-11.77184 6.54167,-16.35112 13.73345,-28.12501 21.58675,-35.31931 7.19208,-3.278937 14.55118,-3.111545 22.07126,0.48453 7.52008,3.595 14.87944,6.05215 22.07692,7.35834 v -4.90745 c -4.57975,0 -10.79401,-2.45069 -18.64189,-7.358343 -7.84799,-4.90765 -15.36773,-5.396392 -22.56522,-1.472424 1.97814,-4.57814 4.2362,-8.505543 6.87006,-11.77373 20.27553,1.961985 36.94877,7.194395 50.03222,15.697051 -0.65581,8.503716 2.45137,8.995426 9.32095,1.474306 13.88214,-15.21273 32.82262,-7.294319 22.58219,13.24427 -4.90766,9.81047 -11.12192,17.98582 -18.6419,24.52594 -7.52558,6.54067 -9.13891,13.24305 -4.89237,20.11054 4.25716,6.86748 7.05239,12.91968 8.34248,18.14984 0.53746,10.46465 1.07685,22.40188 0.53919,35.80948 -0.3279,13.40816 13.21851,21.11047 44.61046,20.45469 24.85538,0.65417 29.13614,17.31717 23.41302,30.27423 -20.54883,46.52228 -27.94857,62.59433 -32.21399,115.56066 -2.89519,35.95133 -1.60302,73.09791 11.48062,104.81863 l 23.22597,-5.23116 c -10.77741,-21.91026 -15.34714,-51.3428 -13.73446,-88.29638 1.63412,-36.95304 19.71267,-96.14256 31.4846,-117.726 l 19.6099,-43.50471 c -13.06076,-6.15261 -43.71354,-12.91116 -64.33314,-12.91116 -20.28103,0 -28.45186,-14.062 -24.52782,-42.18558 11.77183,-4.57868 23.38322,-13.5711 34.82724,-26.97872 11.44403,-13.40815 17.1676,-32.53922 17.1676,-57.392463 0,-23.545424 -10.62684,-39.242669 -31.88618,-47.091152 -15.94047,-5.887161 -32.802,-8.553219 -50.58461,-8.001235 z m -2.87886,12.286533 c 2.64225,-0.0605 5.2722,-0.008 7.85984,0.131972 30.36464,2.425411 60.90294,7.757513 62.90698,44.63837 0,20.929275 -7.19142,38.753185 -21.58109,53.469135 -14.38966,14.71704 -23.882,18.4765 -28.45114,11.28167 -4.57965,-6.54013 -0.97846,-15.86115 10.79337,-27.96096 22.22075,-22.81906 13.66595,-60.083577 -30.41375,-38.754333 -6.54167,-7.194843 -22.56572,-12.753441 -48.07151,-16.677409 9.36605,-19.773874 28.46161,-25.704943 46.9573,-26.128445 z M 317.15249,152.09465 c 1.43909,-0.0576 16.19534,1.80937 14.50931,3.52363 h -16.62651 c -1.45151,0 -1.56856,-3.37596 2.1172,-3.52363 z m 14.50931,4.50776 h 0.0377 c -3.53106,2.64347 -8.09549,4.65042 -12.5863,5.78412 -1.16689,0.20574 -6.24176,-0.4126 -1.19151,-3.82151 z"
     sodipodi:nodetypes="cccscsccscccccccccssscccccccccccsccccccccccsscccccsccscccscccccccsscssccccc" />
  <path
     d="m 514.59949,229.3607 c 45.45425,-4.92503 83.25525,-4.30405 113.40282,1.86285 -1.57027,-19.25111 -3.3753,-42.27204 3.07219,-68.87304 6.44738,-26.60097 7.20389,-49.54201 2.26954,-68.823055 -4.93464,-19.281004 0.84452,-40.015636 17.3373,-62.203888 6.31943,1.908393 7.15949,7.57519 2.52017,17.000394 -4.63923,9.425121 -5.79676,18.281298 -3.47242,26.568478 10.75617,-10.956725 17.25557,-21.06132 19.49811,-30.313846 2.24265,-9.252513 2.56564,-19.912219 0.96907,-31.979131 -1.81181,-4.9604146 -1.23914,-8.6835102 1.71833,-11.1693021 2.95727,-2.4857803 7.62522,-1.73113607 14.00393,2.2639521 5.61398,21.141179 5.61203,39.414189 -0.006,54.818952 -5.84406,14.784712 -15.00927,33.945061 -27.49584,57.481106 7.37366,68.28745 4.45704,121.14264 -1.96894,152.0092 -53.21687,3.09135 -110.1574,11.9266 -161.45816,4.86204"
     style="fill:#000000;stroke:none;stroke-width:0.999997"
     id="path1-1"
     inkscape:transform-center-x="-97.56875"
     inkscape:transform-center-y="-135.09672"
     sodipodi:nodetypes="ccsccscscsccccc" />
  <path
     id="path1"
     style="fill:#000000;stroke:none;stroke-width:0.999997"
     d="M 269.82422,254.70508 C 240.68414,285.34825 211.328,324.5909 192.16088,361.73581 142.40918,360.138 137.52659,376.5253 82.663296,377.56416 57.518114,365.64935 30.080012,362.58297 0.36449856,368.71157 c -0.77269605,7.27413 4.38908294,10.65896 15.50292244,10.16719 11.128206,-0.28269 19.21689,2.67767 24.312564,9.51851 -10.194801,4.04058 -20.790769,4.82064 -31.7943795,2.34518 -11.0041311,-2.47542 -22.8953445,-5.84754 -35.6742605,-10.15378 -5.457433,-2.88492 -9.920145,-3.36375 -13.388798,-1.49077 -3.467569,1.87309 -4.636493,6.08173 -3.500795,12.55765 20.071497,14.25646 39.4900173,21.84017 58.247943,22.75128 18.759526,0.93249 38.033308,-2.26643 57.816419,-9.67755 50.737816,-0.56907 78.542586,-2.14252 138.159626,-9.70479 31.39175,-32.04755 75.006,-81.77764 90.04606,-104.01472 z"
     sodipodi:nodetypes="ccccccccccccccc" />
</svg>
