<?xml version="1.0" encoding="UTF-8" standalone="no"?>
<svg
   width="1100"
   height="1000"
   version="1.1"
   id="svg1"
   sodipodi:docname="135F5.svg"
   inkscape:version="1.4.2 (f4327f4, 2025-05-13)"
   xmlns:inkscape="http://www.inkscape.org/namespaces/inkscape"
   xmlns:sodipodi="http://sodipodi.sourceforge.net/DTD/sodipodi-0.dtd"
   xmlns="http://www.w3.org/2000/svg"
   xmlns:svg="http://www.w3.org/2000/svg">
  <defs
     id="defs1" />
  <sodipodi:namedview
     id="namedview1"
     pagecolor="#ffffff"
     bordercolor="#666666"
     borderopacity="1.0"
     inkscape:showpageshadow="2"
     inkscape:pageopacity="0.0"
     inkscape:pagecheckerboard="0"
     inkscape:deskcolor="#d1d1d1"
     inkscape:zoom="0.53386562"
     inkscape:cx="546.01755"
     inkscape:cy="703.36052"
     inkscape:window-width="1680"
     inkscape:window-height="998"
     inkscape:window-x="-8"
     inkscape:window-y="-8"
     inkscape:window-maximized="1"
     inkscape:current-layer="svg1"
     showguides="true">
    <sodipodi:guide
       position="219.91796,740.35765"
       orientation="1,0"
       id="guide14"
       inkscape:locked="false" />
  </sodipodi:namedview>
  <path
     style="fill:#000000;stroke:none;stroke-width:1"
     d="m 639.83849,35.789105 c -25.37459,0.504603 -42.9731,7.75652 -52.77693,21.88555 -13.07176,18.838713 -18.53686,31.720733 -16.23007,38.641062 l -27.64461,45.027243 c -6.92031,9.99608 -1.94244,18.52651 14.97392,25.44683 -0.38924,14.67927 -0.5168,16.64242 9.32034,17.59168 -4.60669,8.74698 0.11995,30.40415 14.3449,29.63522 14.22515,-0.76894 22.89472,3.44353 25.97039,12.67069 0,3.07567 -2.68457,4.53637 -8.0642,4.71196 -23.9617,0.78214 -35.9802,3.02702 -57.17437,10.46045 l -136.76027,37.78652 c -45.66467,-1.26785 -115.71986,0.0889 -152.27691,-10.36876 -10.78621,-9.47086 -22.647,-20.03446 -36.90798,-18.23101 -23.39108,2.95806 -38.94957,46.96316 -1.85828,58.11236 6.4175,1.92902 11.98199,2.02481 21.87952,1.95375 14.7917,-0.1062 30.12718,0.15818 61.76177,6.79076 39.14451,6.03997 72.0542,9.61899 108.63112,10.08955 46.86007,-6.20736 92.53735,-15.04016 136.95221,-29.1666 34.77057,74.54774 36.63633,163.80106 21.72051,241.48675 -16.14287,84.17624 -39.45369,240.41512 -42.09497,277.39336 -3.07572,43.05994 -11.50069,77.87337 -25.34137,104.40131 -13.84068,26.52803 -42.66627,43.13525 -86.4951,50.05558 -21.52995,0.76884 -28.52961,5.74679 -20.84033,14.97394 7.68925,9.2271 14.68892,13.5449 20.84033,12.77614 h 70.3686 c 17.6853,-5.38248 32.09811,-6.15042 43.24756,-2.30514 11.14942,3.8448 21.59431,2.5924 31.20589,-3.55939 9.61157,-6.15143 9.36705,-20.07706 -0.62902,-41.99139 -9.99603,-21.91481 -4.7736,-50.2192 15.60294,-84.82088 20.37653,-34.60156 30.57687,-68.40508 30.57687,-101.46902 0,-33.83269 25.04853,-89.26475 39.27007,-117.38837 3.24958,57.82282 21.55169,155.98482 35.39241,189.4331 13.84066,33.4483 20.10075,59.68979 19.33183,84.29543 -13.84068,26.52803 -42.66628,43.13525 -86.49511,50.05558 -21.52995,0.76884 -28.52772,5.74679 -20.83844,14.97394 7.68925,9.2271 14.68704,13.5449 20.83844,12.77614 h 70.36861 c 17.68528,-5.38248 32.09809,-6.15042 43.24755,-2.30514 11.14944,3.8448 21.5943,2.5924 31.20588,-3.55939 9.61157,-6.15143 9.36896,-20.07706 -0.62713,-41.99139 -16.91639,-25.75894 -20.97514,-72.16543 -19.43728,-111.38071 1.53785,-39.21528 -3.99464,-71.00021 -24.75566,-96.37478 12.1128,-27.25377 24.53959,-168.03069 12.29402,-223.57123 -5.56715,-25.25012 -11.26416,-57.35236 -20.73299,-95.6064 5.41803,-70.71751 72.77858,-166.08032 25.44683,-187.96601 l -28.90264,-6.90974 c 13.07178,-3.8446 19.68587,-10.84237 19.68589,-20.83845 -2e-5,-9.99602 -2.01803,-16.12483 -5.86265,-18.43161 26.91243,-21.52992 36.59007,-51.1209 28.90076,-88.79836 C 732.78208,64.502857 708.5526,42.953182 667.79948,37.570683 657.61121,36.225059 648.29669,35.620904 639.83849,35.789105 Z m 2.19966,17.593564 c 3.64533,-0.04459 7.41639,0.213285 11.30908,0.838058 31.14154,4.998037 51.40496,19.027203 60.63207,42.09499 9.22713,23.067813 11.28061,40.023223 6.2826,50.788183 -4.99803,10.76496 -12.51847,21.20794 -22.51456,31.20399 -3.84456,-3.84463 -9.58789,-6.14079 -17.27717,-6.90972 8.45821,-26.91242 12.53159,-50.8656 12.14713,-71.62665 -0.38446,-20.760992 -10.20299,-31.100415 -29.42619,-31.100415 -18.45422,0 -29.28086,6.753221 -32.35658,20.209435 -3.07566,13.45621 2.28397,25.95459 16.12462,37.48849 0,70.74123 8.53043,106.18287 25.44684,106.18287 -0.76896,13.84068 18.13062,18.11624 27.35774,17.34731 21.39201,1.27713 23.34594,30.99078 8.97817,66.11199 -16.14149,43.7374 -26.59751,81.15446 -26.59751,107.43903 10.31537,49.12081 18.56104,86.27556 23.1417,112.88356 -30.3564,19.92902 -81.06161,22.30875 -112.56906,-9.32035 13.01828,-98.32994 8.45015,-156.31678 -29.94973,-246.29293 6.87617,-19.8225 14.59737,-29.73884 23.14358,-29.73883 h 39.16271 l -8.06229,-56.54724 -29.94974,9.21487 c -10.94144,-6.78626 -9.22357,-14.58155 -2.30324,-20.73298 L 582.3496,172.5489 c -13.84067,-1.53796 -19.20216,-5.0886 -16.12649,-10.47107 3.07571,-5.3825 -0.36962,-9.21132 -10.36555,-11.51812 l 27.74818,-47.22879 c 13.4562,-32.967721 32.91511,-49.636108 58.43241,-49.948251 z m -46.5979,56.859871 c -0.50934,-0.0151 -0.99848,0.0787 -1.46706,0.10546 -2.49904,0.14423 -4.41351,0.85217 -5.75907,2.19778 -5.38248,5.38261 -6.00882,11.26672 -1.77969,17.80261 4.22912,6.53585 19.40728,4.866 45.55079,-5.13004 -16.76021,-9.73172 -28.90691,-14.74985 -36.54497,-14.97581 z"
     id="path3"
     sodipodi:nodetypes="ssccccscscccsssccccsscscccccsscsccscccscscscccscsssscssccsssccccccccscccccsccsscsscs" />
  <path
     style="fill:#000000;stroke:none;stroke-width:1"
     d="m 726.40433,287.37667 43.55668,116.9127 c -4.96571,34.51879 -1.26596,89.24197 6.53382,150.27897 -18.86902,11.98168 -27.21052,29.04085 -24.93765,51.22365 l 22.82227,-26.59956 -8.19266,56.39753 c 17.39569,11.35777 31.71233,8.07434 43.03103,-9.7044 11.31862,-17.77813 9.74164,-48.99299 -4.90441,-93.86949 14.66443,-45.73169 13.20881,-96.72536 7.9615,-136.52521 -11.77019,-53.29258 -21.46871,-97.639 -44.82557,-137.9125 -7.81614,-13.47712 -26.57599,-17.48499 -40.79936,-20.41997 z"
     id="path8"
     sodipodi:nodetypes="cccccccccscc" />
  <path
     style="fill:#000000;stroke:none;stroke-width:1"
     d="m 252.42675,23.96608 h -58.50856 q 5.23243,21.405621 13.31914,105.12534 h 32.34613 z m -61.83823,100.84416 q 3.8053,-0.47657 2.37841,-10.94074 L 180.59928,60.593382 q -22.3569,3.805537 -31.63268,-0.476572 -9.2758,-4.281171 -11.17857,-18.551585 1.42738,-14.746047 17.60009,-14.746047 8.56235,0 8.56235,7.135207 0,5.708305 -8.08648,5.708305 -2.85428,-2.854036 -4.75681,1.42737 -0.47656,8.562342 13.31891,8.562342 12.36765,0 12.36765,-15.697549 0,-19.502851 -22.83252,-19.502851 -27.58957,0 -27.58957,19.978719 0,10.94051 8.08672,22.832523 8.08648,11.892011 8.08648,10.94051 z m 88.00064,46.61655 q -1.42735,-6.65958 -12.60546,-16.411 -11.17855,-9.75143 -20.2163,-13.55697 -9.03797,-3.8053 -22.35712,-3.8053 -12.36765,0 -21.64343,3.8053 -9.27556,3.80554 -20.45413,13.55697 -11.17856,9.75142 -13.08109,16.88663 2.3784,12.36765 19.97849,29.01647 14.27042,13.79478 35.20016,13.79478 21.40563,0 35.20041,-13.79478 18.0757,-16.64882 19.97847,-29.4921 z m -32.82176,1.90159 q -9.03797,0 -11.89201,-4.7568 -3.3299,-3.80554 -4.28116,-9.98948 0,-5.23244 5.23243,-6.1837 15.22168,2.3784 19.97849,13.31914 0,7.61084 -9.03775,7.61084 z m -5.23267,13.31892 v 11.89201 H 206.76147 V 186.6473 Z M 304.27572,68.203048 q 0,0.950798 8.08672,-10.940509 8.08647,-11.892012 8.08647,-22.832521 0,-19.978721 -27.58933,-19.978721 -23.30839,0 -23.30839,19.502853 0,15.697548 12.36765,15.697548 14.27041,0 13.79479,-8.562341 -1.90396,-4.280938 -4.75682,-1.42737 -8.08647,0 -8.08647,-5.708308 0,-7.135207 8.56211,-7.135207 16.17317,0 17.12445,14.746047 -1.90394,14.270415 -10.94052,18.551585 -9.03797,4.281171 -31.39485,0.476574 l -12.36765,53.276112 q -1.42738,10.46488 2.3784,10.94075 z M 201.52902,173.32838 q -9.5136,0 -9.5136,-7.61084 4.75681,-10.94074 20.45434,-13.31914 5.23246,0.95079 5.23246,6.1837 -0.9508,6.18394 -4.28118,9.98948 -2.85404,4.7568 -11.89202,4.7568 z m -34.72453,21.40539 q -17.12444,-18.07572 -33.77325,-18.55135 -12.84329,-8.08671 -12.84329,-15.69755 6.65958,-9.03774 14.27042,-9.51361 5.23243,-0.47657 12.12982,0.71369 6.8974,1.19025 11.17833,1.19025 11.41638,0 20.45435,-14.74604 -2.85402,-17.60009 -33.77325,-49.946218 -29.01647,-31.394863 -29.01647,-54.227619 0,-19.502852 17.8379,-29.4920944 17.83813,-9.9892427 38.29226,2.3784024 H 275.2595 q 20.45413,-12.3676451 38.05419,-2.3784024 17.60009,9.9892424 17.60009,29.4920944 0,22.832756 -29.01647,54.227619 -30.44335,32.346128 -32.82176,49.470578 9.03799,14.27042 20.45413,14.27042 4.28118,0 11.17855,-0.9508 6.89739,-0.9508 12.12984,-0.47657 7.13521,0 13.79477,9.5136 0,7.61084 -12.84351,15.22169 -16.64857,0.47657 -33.2974,19.97872 -23.30839,19.50285 -36.6273,27.58933 -2.85426,11.41637 -6.18392,25.21092 -4.28118,19.50285 -4.28118,67.07089 0,38.53007 3.80554,107.02787 h -27.11369 q 3.32966,-68.4978 3.8053,-107.02787 -0.47659,-47.56804 -4.28094,-67.07089 -3.3299,-13.79455 -6.65958,-25.21092 -16.17318,-8.08648 -36.15167,-28.06521 z"
     id="path4" />
  <path
     style="fill:none;stroke:#613583;stroke-width:25;stroke-linecap:butt;stroke-linejoin:miter;stroke-dasharray:none;stroke-opacity:1"
     d="m 275.81847,295.48634 c 0,585.76603 227.34343,625.59818 444.63665,625.59818"
     id="path1"
     sodipodi:nodetypes="cc" />
</svg>
