<?xml version="1.0" encoding="UTF-8" standalone="no"?>
<svg
   width="1100"
   height="1000"
   version="1.1"
   id="svg1"
   sodipodi:docname="135FA.svg"
   inkscape:version="1.4.2 (f4327f4, 2025-05-13)"
   xmlns:inkscape="http://www.inkscape.org/namespaces/inkscape"
   xmlns:sodipodi="http://sodipodi.sourceforge.net/DTD/sodipodi-0.dtd"
   xmlns:xlink="http://www.w3.org/1999/xlink"
   xmlns="http://www.w3.org/2000/svg"
   xmlns:svg="http://www.w3.org/2000/svg">
  <defs
     id="defs1" />
  <sodipodi:namedview
     id="namedview1"
     pagecolor="#ffffff"
     bordercolor="#666666"
     borderopacity="1.0"
     inkscape:showpageshadow="2"
     inkscape:pageopacity="0.0"
     inkscape:pagecheckerboard="0"
     inkscape:deskcolor="#d1d1d1"
     inkscape:zoom="0.5338656"
     inkscape:cx="551.63697"
     inkscape:cy="424.26408"
     inkscape:window-width="1680"
     inkscape:window-height="998"
     inkscape:window-x="-8"
     inkscape:window-y="-8"
     inkscape:window-maximized="1"
     inkscape:current-layer="svg1"
     showguides="true">
    <sodipodi:guide
       position="906.9311,468.45803"
       orientation="1,0"
       id="guide1"
       inkscape:locked="false" />
    <sodipodi:guide
       position="562.56076,819.28306"
       orientation="1,0"
       id="guide2"
       inkscape:locked="false" />
    <sodipodi:guide
       position="526.58976,850.02855"
       orientation="1,0"
       id="guide5"
       inkscape:locked="false" />
    <sodipodi:guide
       position="598.53169,850.02865"
       orientation="1,0"
       id="guide6"
       inkscape:locked="false" />
    <sodipodi:guide
       position="658.5071,813.61516"
       orientation="0,-1"
       id="guide9"
       inkscape:locked="false" />
    <sodipodi:guide
       position="1100,0"
       orientation="0,-1"
       id="guide3"
       inkscape:locked="false" />
    <sodipodi:guide
       position="104.84664,881.69099"
       orientation="0,-1"
       id="guide4"
       inkscape:locked="false" />
    <sodipodi:guide
       position="104.84664,496.23418"
       orientation="0,-1"
       id="guide7"
       inkscape:locked="false" />
  </sodipodi:namedview>
  <path
     style="fill:#000000;stroke:none;stroke-width:0.999998"
     d="m 555.16557,186.40806 c -21.4132,0.42582 -36.2642,6.54557 -44.5374,18.46879 -11.0311,15.89761 -15.6429,26.76849 -13.6963,32.60843 l -23.3288,37.99761 c -5.8399,8.4355 -1.6391,15.63415 12.6363,21.47407 -0.3284,12.38755 -0.4361,14.04422 7.8653,14.84528 -3.8875,7.3814 0.1011,25.65746 12.1053,25.00858 12.0043,-0.64889 19.3204,2.90592 21.916,10.69254 0,2.59551 -2.2655,3.82816 -6.8053,3.97633 -20.2208,0.66003 -30.363,2.55444 -48.2483,8.82737 l -115.40933,31.88731 c -38.53552,-1.06992 -97.65372,0.075 -128.5035,-8.75 -9.10226,-7.99227 -19.11135,-16.90669 -31.14591,-15.38479 -19.73928,2.49625 -32.86878,39.63129 -1.56817,49.03988 5.4156,1.62786 10.11137,1.7087 18.4637,1.64873 12.48242,-0.0896 25.42373,0.13349 52.11954,5.73059 33.03329,5.09701 60.80512,8.11728 91.67167,8.51437 39.5443,-5.23827 78.0904,-12.69209 115.5713,-24.61311 29.3422,62.90936 30.9167,138.22849 18.3295,203.78592 -13.6227,71.03467 -33.2942,202.88159 -35.5231,234.08681 -2.5956,36.33743 -9.7053,65.7158 -21.3851,88.1022 -11.6799,22.38649 -36.0053,36.401 -72.99153,42.24092 -18.1687,0.64881 -24.07558,4.84961 -17.58675,12.63622 6.48882,7.78657 12.3957,11.43029 17.58675,10.78159 h 59.38273 c 14.9242,-4.54219 27.087,-5.19028 36.4957,-1.94531 9.4088,3.24461 18.223,2.18771 26.3341,-3.00371 8.111,-5.19107 7.9046,-16.94264 -0.5308,-35.4357 -8.4355,-18.49349 -4.0284,-42.379 13.1669,-71.57868 17.1954,-29.19958 25.8033,-57.7257 25.8033,-85.62771 0,-28.55074 21.1379,-75.32877 33.1393,-99.06175 2.7421,48.79555 18.1869,131.63254 29.8668,159.85888 11.6799,28.22636 16.9627,50.37104 16.3138,71.13525 -11.6798,22.38649 -36.0052,36.401 -72.9915,42.24092 -18.1688,0.64881 -24.0739,4.84961 -17.5851,12.63622 6.4887,7.78657 12.3941,11.43029 17.5851,10.78159 h 59.3826 c 14.9244,-4.54227 27.087,-5.19028 36.4958,-1.94531 9.4089,3.24461 18.223,2.18771 26.3341,-3.00371 8.111,-5.19107 7.9062,-16.94264 -0.5292,-35.4357 -14.2754,-21.73747 -17.7006,-60.89899 -16.4028,-93.992 1.2977,-33.093 -3.3709,-59.91568 -20.8909,-81.32878 10.2218,-22.99893 20.7085,-141.7978 10.3748,-188.66737 -4.698,-21.30808 -9.5056,-48.39853 -17.4962,-80.68037 4.5722,-59.67711 61.4164,-140.15191 21.474,-158.62082 l -24.3902,-5.83099 c 11.0309,-3.24439 16.6124,-9.14966 16.6124,-17.58516 0,-8.43545 -1.703,-13.60743 -4.9473,-15.55407 22.7108,-18.16867 30.8777,-43.13992 24.3888,-74.93519 -6.4889,-31.7952 -26.9357,-49.98055 -61.3264,-54.52273 -8.5977,-1.13555 -16.4581,-1.64539 -23.5957,-1.50344 z m 1.8563,14.84686 c 3.0761,-0.0376 6.2585,0.17998 9.5434,0.70722 26.2798,4.21775 43.3796,16.05668 51.1662,35.52314 7.7866,19.46647 9.5195,33.77481 5.3018,42.85915 -4.2177,9.08434 -10.5641,17.89697 -18.9996,26.33243 -3.2444,-3.24441 -8.091,-5.18209 -14.5798,-5.83097 7.1376,-22.71087 10.5751,-42.92448 10.2507,-60.44433 -0.3244,-17.51979 -8.6102,-26.24503 -24.8322,-26.24503 -15.5731,0 -24.7096,5.69891 -27.305,17.05434 -2.5956,11.35545 1.9273,21.90258 13.6072,31.63581 0,59.69713 7.1986,89.60564 21.474,89.60564 -0.5788,10.41858 2.8903,13.67537 7.8237,16.52361 18.0523,1.07774 34.9642,24.26796 22.8395,53.90605 -13.6215,36.90913 -22.4451,68.48466 -22.4451,90.66569 8.7049,41.45208 15.6632,72.80625 19.5288,95.26022 -25.6172,16.81771 -68.4063,18.82591 -94.9947,-7.86526 10.9857,-82.97871 7.1308,-131.91267 -25.2741,-207.84177 5.8027,-16.72782 12.3185,-25.09602 19.5304,-25.09601 h 33.0487 l -6.8037,-47.7191 -25.2739,7.77624 c -9.2333,-5.72679 -7.7836,-12.30508 -1.9436,-17.49616 l -2.0328,-8.74886 c -11.6798,-1.29786 -16.2043,-4.29417 -13.6087,-8.83634 2.5955,-4.54218 -0.312,-7.77324 -8.7474,-9.71991 l 23.4162,-39.85544 c 11.3554,-27.82082 27.7764,-41.88695 49.31,-42.15036 z m -39.3231,47.98293 c -0.4299,-0.0127 -0.8426,0.0664 -1.2381,0.089 -2.1089,0.12172 -3.7244,0.71913 -4.8599,1.85467 -4.5422,4.54227 -5.0708,9.50776 -1.5019,15.02327 3.569,5.51548 16.3775,4.10632 38.4395,-4.32914 -14.1436,-8.21241 -24.3939,-12.44711 -30.8396,-12.63779 z"
     id="path3-1"
     sodipodi:nodetypes="ssccccscscccsssccccsscscccccsscsccscccscscscccscsssscssccsssccccccccscccccsccsscsscs" />
  <path
     id="path1"
     style="fill:#000000;stroke:none;stroke-width:0.999997"
     d="m 504.5541,147.51091 c -31.64203,0 -40.92625,15.80996 -62.1234,15.80996 -8.81348,0 -18.28406,-3.88403 -27.21683,-7.51416 -4.26064,-1.42018 -5.91797,0.47463 -4.97118,5.68204 6.41385,17.49235 24.17725,22.05416 36.80971,22.05416 25.37219,0 38.06133,-9.29156 56.74301,-9.15157 25.48184,0.19096 40.09931,6.56328 53.43874,26.86199 h 5.32661 l -4.4e-4,-32.18036 c -15.69634,-15.49 -37.56376,-21.56206 -58.00622,-21.56206 z"
     sodipodi:nodetypes="ssccsscccs" />
  <use
     x="0"
     y="0"
     xlink:href="#path1"
     id="use1"
     transform="matrix(-1,0,0,1,1125.121,0)"
     style="stroke-width:1.07692" />
  <g
     id="g5"
     transform="matrix(0.92857143,0,0,0.92857143,40.182893,0.42857157)"
     style="stroke-width:1.07692">
    <path
       style="fill:#1a5fb4;stroke:none;stroke-width:1.07692px;stroke-linecap:butt;stroke-linejoin:miter;stroke-opacity:1"
       d="m 521.901,180.28882 c 2.65354,-36.68396 13.3338,-98.385241 40.65976,-122.137391 l 2e-5,28.929674 c -16.07541,22.154167 -20.8533,53.737547 -21.68869,97.885017 z"
       id="path2"
       sodipodi:nodetypes="ccccc" />
    <use
       x="0"
       y="0"
       xlink:href="#path2"
       id="use2"
       transform="matrix(-1,0,0,1,1125.1215,0)"
       style="stroke-width:1.07692" />
    <circle
       style="fill:none;fill-rule:evenodd;stroke:#613583;stroke-width:15.0769;stroke-linecap:round;stroke-miterlimit:5;stroke-dasharray:none"
       id="path5"
       cx="562.56073"
       cy="33.152649"
       r="26.075727" />
  </g>
  <g
     id="g8">
    <path
       style="fill:#26a269;stroke:none;stroke-width:0.999997px;stroke-linecap:butt;stroke-linejoin:miter;stroke-opacity:1"
       d="m 442.18682,167.91554 c 1.52191,-31.74288 5.87024,-53.56048 11.74051,-70.519012 -15.86067,-0.44889 -21.71132,-17.903445 -11.16704,-28.914911 10.54428,-11.011466 28.81078,-2.045771 29.86489,11.738971 l -12.17534,83.270692 z"
       id="path6"
       sodipodi:nodetypes="cczccc" />
    <use
       x="0"
       y="0"
       xlink:href="#g5"
       id="use8"
       transform="translate(-73.726455)" />
  </g>
  <use
     x="0"
     y="0"
     xlink:href="#g8"
     id="use9"
     transform="matrix(-1,0,0,1,1125.1215,0)" />
  <path
     style="fill:#000000;stroke:none;stroke-width:1"
     d="m 203.92219,321.59632 q -5.11249,1.13669 -10.22518,-5.68041 4.54457,-3.97641 11.36129,-4.2605 6.8167,-0.28468 10.79311,4.2605 -3.97641,6.2486 -11.92922,5.68041 z m 1.13671,-11.92918 5.11246,-2.84012 -2.84027,-21.01833 h -5.11251 l -3.40826,21.01833 z m 26.13055,-27.83484 q -14.20132,7.38488 -19.02996,2.27237 -4.8284,-5.11249 0,-7.95281 4.82864,-2.84033 8.52095,-1.41932 3.69233,1.41932 10.50901,7.10058 z m -17.04167,-28.97089 1.70402,-8.52079 h -22.15441 l 1.70408,8.52079 z m -8.52092,74.98372 q 22.15435,-8.52096 23.85843,-39.1961 25.56257,0 25.56257,-8.52075 0,-9.0889 -6.5325,-8.23689 -6.53265,0.85201 -13.34955,3.6923 -11.92911,-10.22497 -13.63336,-12.49713 h -34.0834 q -1.70403,2.27216 -12.49718,12.49713 -3.97637,-2.84029 -12.21327,-3.6923 -8.23688,-0.85201 -8.23688,8.23689 0,8.52075 27.26689,8.52075 0.56733,30.67514 22.15418,39.1961 z m 13.06528,-101.68231 3.40845,-21.58623 h -34.65154 l 4.54455,21.58623 z m 5.68063,-39.764 3.40844,-19.88204 H 182.9047 l 2.84009,19.88204 z m 3.40844,-39.76406 q -1.70405,-19.88203 -22.72231,-19.88203 -21.58624,0 -22.1542,19.88203 z m 5.68044,97.70586 -2.84033,15.33746 6.24878,5.68064 q 30.10707,-10.22498 30.10707,13.63346 0,19.31391 -25.56268,19.31391 -1.70408,21.01808 -27.26671,38.05976 l 1.70402,139.74213 h -21.58622 l 1.13668,-139.74213 q -24.42638,-17.04168 -26.13058,-38.05976 -26.69875,0 -26.69875,-19.31391 0,-23.85844 30.67515,-15.33767 l 5.1125,-3.97643 -1.70405,-15.33746 q -15.90559,0 -29.53884,-14.20139 2.84013,-15.33769 9.08886,-15.33769 7.38468,0 10.22502,11.36128 h 7.38462 l -3.97639,-21.58623 q -22.72211,0 -34.65134,-14.20139 0,-14.20157 13.06532,-14.20157 l 10.7931,10.22518 h 9.08893 l -3.40849,-19.88203 q -17.60963,0 -20.44997,-5.68064 -9.08889,-17.60986 -10.79311,-21.01811 3.40824,-9.08888 13.63345,-8.52094 l 9.08886,15.33767 h 5.68046 q 0,-38.62797 43.17253,-38.62797 43.17229,0 43.17229,38.62797 13.63338,0 17.60985,6.8167 9.65658,15.90564 11.36097,19.31389 -4.54427,9.08887 -13.63315,8.52076 l -10.22526,-14.76933 h -7.95284 l -2.84032,19.88204 q 17.04193,0 28.97125,15.33744 0,13.63345 -12.49734,13.63345 l -10.79316,-10.79312 h -8.52074 l -3.97638,21.58623 q 10.22483,0 23.8583,12.49718 -2.27229,16.47374 -7.95261,16.47374 -8.52108,0 -11.92931,-10.79312 z m -53.96544,37.49168 q 6.24858,-5.68044 10.22501,-7.10059 3.97641,-1.41934 8.80503,1.41934 4.8284,2.84032 0,7.95281 -4.82862,5.11248 -19.03004,-2.2724 z"
     id="path1-1"
     inkscape:transform-center-x="501.30621"
     inkscape:transform-center-y="150.6194" />
  <path
     style="fill:#000000;stroke:none;stroke-width:0.999998"
     d="m 590.47227,368.97593 -87.6666,140.60231 c -27.8905,9.3947 -63.3508,28.66279 -106.36281,57.76449 -16.20309,-9.65396 -32.28855,-9.43224 -48.134,0.71944 l 28.77716,7.06672 -45.63191,15.27911 c -1.94556,17.42563 5.99983,27.03206 23.70055,28.79265 17.69626,1.76012 40.60947,-11.38557 68.83921,-39.495 33.578,-5.33193 68.8799,-20.6581 105.8787,-45.9088 43.6455,-35.66662 76.5719,-99.83134 89.6756,-130.82346 22.2662,-42.78403 12.0584,-45.49389 -29.0759,-33.99926 z"
     id="path9"
     sodipodi:nodetypes="ccccccccccc" />
  <g
     id="g11"
     transform="matrix(21.549255,37.32442,-37.32442,21.549255,524.38077,-6.7881204)"
     style="stroke-width:0.0232028">
    <path
       style="fill:none;stroke:#613583;stroke-width:0.162419;stroke-linecap:butt;stroke-linejoin:miter;stroke-dasharray:none;stroke-opacity:1"
       d="m 8.8227699,10.50888 -0.3772144,0.407246 -0.090082,0.694381 0.3941079,0.574271 0.6868735,0.258985 0.7375411,-0.185796"
       id="path6-4" />
    <path
       d="m 11.807028,12.731971 c 0,-0.184255 -0.104411,-0.328587 -0.313233,-0.432998 -0.208821,-0.104411 -0.463706,-0.09213 -0.764655,0.03685 -0.598909,0.256675 -0.724762,0.215133 -0.8423793,0.01141 -0.1176173,-0.20372 0.3814703,-0.573328 0.6397063,-0.702364 0.509771,-0.245673 0.945839,-0.3378 1.308205,-0.276382 0.362367,0.06142 0.620324,0.214964 0.773869,0.460636 0.153545,0.245673 0.236459,0.54048 0.248743,0.884421 0.01228,0.331658 -0.05528,0.623394 -0.20268,0.875208 -0.147403,0.251814 -0.399217,0.417643 -0.755442,0.497486 -0.356225,0.07984 -0.792294,0.0061 -1.308206,-0.221105 -0.259726,-0.145412 -0.7687622,-0.374867 -0.6809956,-0.646942 0.087767,-0.272075 0.3204646,-0.233498 0.8468226,-0.04401 0.307091,0.110553 0.561976,0.110553 0.764655,0 0.20268,-0.110553 0.297878,-0.257956 0.285595,-0.44221 z M 9.0616391,9.931306 8.618403,9.9122009 8.7852571,9.489095 l 0.257956,0.23953 h 2.4505819 c 0.08599,-0.1474027 0.221105,-0.2333877 0.40536,-0.257955 0.356225,0.024567 0.534337,0.2211053 0.534337,0.589614 -0.02457,0.331657 -0.190396,0.503628 -0.497487,0.515912 -0.208821,-0.01228 -0.350083,-0.0737 -0.423785,-0.184255 H 9.0800641 l -0.1828879,0.40519 -0.3094835,-0.391543 0.4739464,-0.234755 z"
       style="fill:#000000;stroke:none;stroke-width:0.0232028"
       id="path1-1-2"
       sodipodi:nodetypes="ssszssscssczsssscccccccccccccc" />
    <circle
       style="fill:#000000;fill-rule:evenodd;stroke-width:0.116014;stroke-linecap:round;stroke-miterlimit:5;stroke-dasharray:none"
       id="path4-1"
       cx="8.4455519"
       cy="10.916123"
       r="0.26461521" />
    <use
       x="0"
       y="0"
       xlink:href="#path4-1"
       id="use4"
       transform="translate(-0.09008175,0.6943802)"
       style="stroke-width:0.0232028" />
    <use
       x="0"
       y="0"
       xlink:href="#path4-1"
       id="use5"
       transform="translate(0.30402593,1.2686514)"
       style="stroke-width:0.0232028" />
    <path
       style="fill:none;stroke:#613583;stroke-width:0.162419;stroke-linecap:butt;stroke-linejoin:miter;stroke-dasharray:none;stroke-opacity:1"
       d="M 10.117695,13.293912 9.3533136,13.244792 8.5124463,12.949038 7.9262112,12.382877 7.4497434,11.738735 c 0,0 -0.013015,-0.773675 -0.013015,-0.773675 L 7.6784495,10.251859 8.1956613,9.7414622 8.864412,9.7578057"
       id="path11"
       sodipodi:nodetypes="ccccc" />
    <use
       x="0"
       y="0"
       xlink:href="#path4-1"
       id="use6"
       transform="translate(0.99089931,1.5276364)"
       style="stroke-width:0.0232028" />
    <use
       x="0"
       y="0"
       xlink:href="#path4-1"
       id="use7"
       transform="translate(0.90776172,2.3286685)"
       style="stroke-width:0.0232028" />
    <use
       x="0"
       y="0"
       xlink:href="#path4-1"
       id="use8-3"
       transform="translate(0.06689439,2.0329148)"
       style="stroke-width:0.0232028" />
    <use
       x="0"
       y="0"
       xlink:href="#path4-1"
       id="use9-2"
       transform="translate(-0.5193407,1.4667536)"
       style="stroke-width:0.0232028" />
    <use
       x="0"
       y="0"
       xlink:href="#path4-1"
       id="use10"
       transform="translate(-0.24989053,-1.1746612)"
       style="stroke-width:0.0232028" />
    <use
       x="0"
       y="0"
       xlink:href="#path4-1"
       id="use2-2"
       transform="translate(-0.99580851,0.82261184)"
       style="stroke-width:0.0232028" />
    <use
       x="0"
       y="0"
       xlink:href="#path4-1"
       id="use3"
       transform="translate(-0.76710239,-0.66426413)"
       style="stroke-width:0.0232028" />
    <use
       x="0"
       y="0"
       xlink:href="#path4-1"
       id="use11"
       transform="translate(-1.0088235,0.04893674)"
       style="stroke-width:0.0232028" />
  </g>
</svg>
