<?xml version="1.0" encoding="UTF-8" standalone="no"?>
<svg
   width="1100"
   height="1000"
   version="1.1"
   id="svg1"
   sodipodi:docname="135F3.svg"
   inkscape:version="1.4.2 (f4327f4, 2025-05-13)"
   xmlns:inkscape="http://www.inkscape.org/namespaces/inkscape"
   xmlns:sodipodi="http://sodipodi.sourceforge.net/DTD/sodipodi-0.dtd"
   xmlns:xlink="http://www.w3.org/1999/xlink"
   xmlns="http://www.w3.org/2000/svg"
   xmlns:svg="http://www.w3.org/2000/svg">
  <defs
     id="defs1" />
  <sodipodi:namedview
     id="namedview1"
     pagecolor="#ffffff"
     bordercolor="#666666"
     borderopacity="1.0"
     inkscape:showpageshadow="2"
     inkscape:pageopacity="0.0"
     inkscape:pagecheckerboard="0"
     inkscape:deskcolor="#d1d1d1"
     inkscape:zoom="0.37749999"
     inkscape:cx="565.56293"
     inkscape:cy="467.54969"
     inkscape:window-width="1680"
     inkscape:window-height="998"
     inkscape:window-x="-8"
     inkscape:window-y="-8"
     inkscape:window-maximized="1"
     inkscape:current-layer="svg1"
     showguides="true">
    <sodipodi:guide
       position="219.91796,740.35765"
       orientation="1,0"
       id="guide14"
       inkscape:locked="false" />
    <sodipodi:guide
       position="761.50511,964.23841"
       orientation="0,-1"
       id="guide1"
       inkscape:locked="false" />
    <sodipodi:guide
       position="761.50511,-0.00065686345"
       orientation="0,-1"
       id="guide2"
       inkscape:locked="false" />
  </sodipodi:namedview>
  <path
     style="fill:#000000;stroke:none;stroke-width:1"
     d="m 639.83849,35.789105 c -25.37459,0.504603 -42.9731,7.75652 -52.77693,21.88555 -13.07176,18.838713 -18.53686,31.720733 -16.23007,38.641062 l -27.64461,45.027243 c -6.92031,9.99608 -1.94244,18.52651 14.97392,25.44683 -0.38924,14.67927 -0.5168,16.64242 9.32034,17.59168 -4.60669,8.74698 0.11995,30.40415 14.3449,29.63522 14.22515,-0.76894 22.89472,3.44353 25.97039,12.67069 0,3.07567 -2.68457,4.53637 -8.0642,4.71196 -23.9617,0.78214 -35.9802,3.02702 -57.17437,10.46045 l -136.76027,37.78652 c -45.66467,-1.26785 -115.71986,0.0889 -152.27691,-10.36876 -10.78621,-9.47086 -22.647,-20.03446 -36.90798,-18.23101 -23.39108,2.95806 -38.94957,46.96316 -1.85828,58.11236 6.4175,1.92902 11.98199,2.02481 21.87952,1.95375 14.7917,-0.1062 30.12718,0.15818 61.76177,6.79076 39.14451,6.03997 72.0542,9.61899 108.63112,10.08955 46.86007,-6.20736 92.53735,-15.04016 136.95221,-29.1666 34.77057,74.54774 36.63633,163.80106 21.72051,241.48675 -16.14287,84.17624 -39.45369,240.41512 -42.09497,277.39336 -3.07572,43.05994 -11.50069,77.87337 -25.34137,104.40131 -13.84068,26.52803 -42.66627,43.13525 -86.4951,50.05558 -21.52995,0.76884 -28.52961,5.74679 -20.84033,14.97394 7.68925,9.2271 14.68892,13.5449 20.84033,12.77614 h 70.3686 c 17.6853,-5.38248 32.09811,-6.15042 43.24756,-2.30514 11.14942,3.8448 21.59431,2.5924 31.20589,-3.55939 9.61157,-6.15143 9.36705,-20.07706 -0.62902,-41.99139 -9.99603,-21.91481 -4.7736,-50.2192 15.60294,-84.82088 20.37653,-34.60156 30.57687,-68.40508 30.57687,-101.46902 0,-33.83269 25.04853,-89.26475 39.27007,-117.38837 3.24958,57.82282 21.55169,155.98482 35.39241,189.4331 13.84066,33.4483 20.10075,59.68979 19.33183,84.29543 -13.84068,26.52803 -42.66628,43.13525 -86.49511,50.05558 -21.52995,0.76884 -28.52772,5.74679 -20.83844,14.97394 7.68925,9.2271 14.68704,13.5449 20.83844,12.77614 h 70.36861 c 17.68528,-5.38248 32.09809,-6.15042 43.24755,-2.30514 11.14944,3.8448 21.5943,2.5924 31.20588,-3.55939 9.61157,-6.15143 9.36896,-20.07706 -0.62713,-41.99139 -16.91639,-25.75894 -20.97514,-72.16543 -19.43728,-111.38071 1.53785,-39.21528 -3.99464,-71.00021 -24.75566,-96.37478 12.1128,-27.25377 24.53959,-168.03069 12.29402,-223.57123 -5.56715,-25.25012 -11.26416,-57.35236 -20.73299,-95.6064 5.41803,-70.71751 72.77858,-166.08032 25.44683,-187.96601 l -28.90264,-6.90974 c 13.07178,-3.8446 19.68587,-10.84237 19.68589,-20.83845 -2e-5,-9.99602 -2.01803,-16.12483 -5.86265,-18.43161 26.91243,-21.52992 36.59007,-51.1209 28.90076,-88.79836 C 732.78208,64.502857 708.5526,42.953182 667.79948,37.570683 657.61121,36.225059 648.29669,35.620904 639.83849,35.789105 Z m 2.19966,17.593564 c 3.64533,-0.04459 7.41639,0.213285 11.30908,0.838058 31.14154,4.998037 51.40496,19.027203 60.63207,42.09499 9.22713,23.067813 11.28061,40.023223 6.2826,50.788183 -4.99803,10.76496 -12.51847,21.20794 -22.51456,31.20399 -3.84456,-3.84463 -9.58789,-6.14079 -17.27717,-6.90972 8.45821,-26.91242 12.53159,-50.8656 12.14713,-71.62665 -0.38446,-20.760992 -10.20299,-31.100415 -29.42619,-31.100415 -18.45422,0 -29.28086,6.753221 -32.35658,20.209435 -3.07566,13.45621 2.28397,25.95459 16.12462,37.48849 0,70.74123 8.53043,106.18287 25.44684,106.18287 -0.68592,12.34603 3.425,16.20534 9.27097,19.58051 21.39201,1.27713 41.43271,28.75758 27.06494,63.87879 -16.14149,43.7374 -26.59751,81.15446 -26.59751,107.43903 10.31537,49.12081 18.56104,86.27556 23.1417,112.88356 -30.3564,19.92902 -81.06161,22.30875 -112.56906,-9.32035 13.01828,-98.32994 8.45015,-156.31678 -29.94973,-246.29293 6.87617,-19.8225 14.59737,-29.73884 23.14358,-29.73883 h 39.16271 l -8.06229,-56.54724 -29.94974,9.21487 c -10.94144,-6.78626 -9.22357,-14.58155 -2.30324,-20.73298 L 582.3496,172.5489 c -13.84067,-1.53796 -19.20216,-5.0886 -16.12649,-10.47107 3.07571,-5.3825 -0.36962,-9.21132 -10.36555,-11.51812 l 27.74818,-47.22879 c 13.4562,-32.967721 32.91511,-49.636108 58.43241,-49.948251 z m -46.5979,56.859871 c -0.50934,-0.0151 -0.99848,0.0787 -1.46706,0.10546 -2.49904,0.14423 -4.41351,0.85217 -5.75907,2.19778 -5.38248,5.38261 -6.00882,11.26672 -1.77969,17.80261 4.22912,6.53585 19.40728,4.866 45.55079,-5.13004 -16.76021,-9.73172 -28.90691,-14.74985 -36.54497,-14.97581 z"
     id="path3"
     sodipodi:nodetypes="ssccccscscccsssccccsscscccccsscsccscccscscscccscsssscssccsssccccccccscccccsccsscsscs" />
  <path
     style="fill:#000000;stroke:none;stroke-width:1"
     d="m 681.67696,252.13241 -103.885,166.61404 c -33.0504,11.13274 -75.0709,33.96547 -126.0402,68.45104 -19.2007,-11.43996 -38.262,-11.17723 -57.0389,0.85254 l 34.101,8.37408 -54.0739,18.10577 c -2.3055,20.64941 7.1098,32.03306 28.0852,34.11936 20.9701,2.08574 48.1223,-13.49193 81.5746,-46.80166 39.79,-6.31835 81.6229,-24.4799 125.4665,-54.40203 51.72,-42.26501 90.7379,-118.30035 106.2658,-155.02608 26.3854,-50.69916 14.2892,-53.91035 -34.4551,-40.28919 z"
     id="path9"
     sodipodi:nodetypes="ccccccccccc" />
  <path
     style="fill:#000000;stroke:none;stroke-width:0.999994"
     d="m 250.02425,23.0045 h -56.1703 q 5.0401,20.550761 12.7879,100.92541 h 31.0556 z m -59.3659,96.81558 q 3.646,-0.48256 2.3055,-10.5038 l -11.8764,-51.147403 q -21.4633,3.6514 -30.3693,-0.482564 -8.9006,-4.112506 -10.729,-17.810869 1.3405,-14.156795 16.895,-14.156795 8.2197,0 8.2197,6.850249 0,5.480309 -7.7639,5.480309 -2.7345,-2.739879 -4.5575,1.372626 -0.5362,8.220202 12.7826,8.220202 11.8764,0 11.8764,-15.070451 0,-18.72345 -21.9192,-18.72345 -26.4873,0 -26.4873,19.180271 0,10.50326 7.7639,21.920163 7.7639,11.416914 7.7639,10.503794 z m 84.486,44.75398 q -1.3941,-6.39343 -12.1016,-15.75515 -10.7343,-9.36172 -19.4097,-13.01527 -8.6754,-3.65139 -21.4634,-3.65139 -11.8764,0 -20.7823,3.65139 -8.9006,3.6514 -19.635,13.01527 -10.729,9.36172 -12.5574,16.21197 2.3055,11.87374 19.1792,27.8573 13.6994,13.24368 33.7955,13.24368 20.5518,0 33.7955,-13.24368 17.3508,-15.98356 19.1792,-28.31412 z m -31.5113,1.82838 q -8.6754,0 -11.4154,-4.56827 -3.2171,-3.6514 -4.1285,-9.59014 0,-5.02401 5.0401,-5.93713 14.6108,2.28413 19.1792,12.78739 0,7.30653 -8.6754,7.30653 z m -5.0401,12.78685 v 11.4169 h -32.423 v -11.4169 z m 61.1943,-113.712268 q 0,0.91152 7.7639,-10.503247 7.7639,-11.416903 7.7639,-21.920701 0,-19.18027 -26.4874,-19.18027 -22.3802,0 -22.3802,18.723449 0,15.070438 11.8764,15.070438 13.6994,0 13.2438,-8.220189 -1.823,-4.107146 -4.5576,-1.372625 -7.7639,0 -7.7639,-5.48031 0,-6.850249 8.2197,-6.850249 15.5277,0 16.4447,14.157333 -1.823,13.699961 -10.5039,17.810331 -8.6808,4.112505 -30.144,0.482565 l -11.8712,51.147943 q -1.3941,10.04696 2.3057,10.50378 z m -98.6413,100.925418 q -9.1365,0 -9.1365,-7.30709 4.5576,-10.50325 19.6403,-12.78684 5.0401,0.91151 5.0401,5.93713 -0.9115,5.93659 -4.1286,9.59014 -2.7345,4.56827 -11.4153,4.56827 z m -33.3397,20.55022 q -16.4394,-17.35351 -32.4229,-17.81034 -12.3322,-7.76337 -12.3322,-15.06991 6.3966,-8.67702 13.7048,-9.13384 5.0401,-0.48257 11.6459,0.6863 6.6218,1.14207 10.729,1.14207 10.9594,0 19.635,-14.15679 -2.7346,-16.89722 -32.423,-47.951228 -27.8545,-30.14037 -27.8545,-52.061071 0,-18.723449 17.1256,-28.3135782 17.1255,-9.590142 36.7605,2.284133 h 99.5582 q 19.635,-11.8732 36.53,-2.284133 16.9005,9.5901292 16.9005,28.3135782 0,21.920701 -27.8601,52.061071 -29.2272,31.054008 -31.5113,47.494398 8.6807,13.7005 19.6403,13.7005 4.1285,0 10.729,-0.9115 6.6218,-0.91151 11.6458,-0.48257 6.8524,0 13.2437,9.13385 0,7.30654 -12.3321,14.61363 -15.9836,0.48255 -31.9672,19.18027 -22.3748,18.72345 -35.1627,26.48681 -2.7346,10.96062 -5.9356,24.2043 -4.1285,18.72345 -4.1285,64.39107 0,36.99062 3.646,102.75217 h -26.0316 q 3.2171,-65.76155 3.6461,-102.75217 -0.5363,-45.66762 -4.1287,-64.39107 -3.2171,-13.24368 -6.3966,-24.20376 -15.5224,-7.76337 -34.707,-26.94417 z"
     id="path4" />
  <g
     id="g11"
     transform="matrix(25.535913,44.229516,-44.229516,25.535913,603.35846,-193.14878)"
     style="stroke-width:0.0195804">
    <path
       style="fill:none;stroke:#613583;stroke-width:0.137062;stroke-linecap:butt;stroke-linejoin:miter;stroke-dasharray:none;stroke-opacity:1"
       d="m 8.8227699,10.50888 -0.3772144,0.407246 -0.090082,0.694381 0.3941079,0.574271 0.6868735,0.258985 0.7375411,-0.185796"
       id="path6" />
    <path
       d="m 11.807028,12.731971 c 0,-0.184255 -0.104411,-0.328587 -0.313233,-0.432998 -0.208821,-0.104411 -0.463706,-0.09213 -0.764655,0.03685 -0.598909,0.256675 -0.724762,0.215133 -0.8423793,0.01141 -0.1176173,-0.20372 0.3814703,-0.573328 0.6397063,-0.702364 0.509771,-0.245673 0.945839,-0.3378 1.308205,-0.276382 0.362367,0.06142 0.620324,0.214964 0.773869,0.460636 0.153545,0.245673 0.236459,0.54048 0.248743,0.884421 0.01228,0.331658 -0.05528,0.623394 -0.20268,0.875208 -0.147403,0.251814 -0.399217,0.417643 -0.755442,0.497486 -0.356225,0.07984 -0.792294,0.0061 -1.308206,-0.221105 -0.259726,-0.145412 -0.7687622,-0.374867 -0.6809956,-0.646942 0.087767,-0.272075 0.3204646,-0.233498 0.8468226,-0.04401 0.307091,0.110553 0.561976,0.110553 0.764655,0 0.20268,-0.110553 0.297878,-0.257956 0.285595,-0.44221 z M 9.0616391,9.931306 8.618403,9.9122009 8.7852571,9.489095 l 0.257956,0.23953 h 2.4505819 c 0.08599,-0.1474027 0.221105,-0.2333877 0.40536,-0.257955 0.356225,0.024567 0.534337,0.2211053 0.534337,0.589614 -0.02457,0.331657 -0.190396,0.503628 -0.497487,0.515912 -0.208821,-0.01228 -0.350083,-0.0737 -0.423785,-0.184255 H 9.0800641 l -0.1828879,0.40519 -0.3094835,-0.391543 0.4739464,-0.234755 z"
       style="fill:#000000;stroke:none;stroke-width:0.0195804"
       id="path1-1"
       sodipodi:nodetypes="ssszssscssczsssscccccccccccccc" />
    <circle
       style="fill:#000000;fill-rule:evenodd;stroke-width:0.0979014;stroke-linecap:round;stroke-miterlimit:5;stroke-dasharray:none"
       id="path4-1"
       cx="8.4455519"
       cy="10.916123"
       r="0.26461521" />
    <use
       x="0"
       y="0"
       xlink:href="#path4-1"
       id="use4"
       transform="translate(-0.09008175,0.6943802)"
       style="stroke-width:0.0195804" />
    <use
       x="0"
       y="0"
       xlink:href="#path4-1"
       id="use5"
       transform="translate(0.30402593,1.2686514)"
       style="stroke-width:0.0195804" />
    <path
       style="fill:none;stroke:#613583;stroke-width:0.137062;stroke-linecap:butt;stroke-linejoin:miter;stroke-dasharray:none;stroke-opacity:1"
       d="M 10.117695,13.293912 9.3533136,13.244792 8.5124463,12.949038 7.9262112,12.382877 7.4497434,11.738735 c 0,0 -0.013015,-0.773675 -0.013015,-0.773675 L 7.6784495,10.251859 8.1956613,9.7414622 8.864412,9.7578057"
       id="path11"
       sodipodi:nodetypes="ccccc" />
    <use
       x="0"
       y="0"
       xlink:href="#path4-1"
       id="use6"
       transform="translate(0.99089931,1.5276364)"
       style="stroke-width:0.0195804" />
    <use
       x="0"
       y="0"
       xlink:href="#path4-1"
       id="use7"
       transform="translate(0.90776172,2.3286685)"
       style="stroke-width:0.0195804" />
    <use
       x="0"
       y="0"
       xlink:href="#path4-1"
       id="use8"
       transform="translate(0.06689439,2.0329148)"
       style="stroke-width:0.0195804" />
    <use
       x="0"
       y="0"
       xlink:href="#path4-1"
       id="use9"
       transform="translate(-0.5193407,1.4667536)"
       style="stroke-width:0.0195804" />
    <use
       x="0"
       y="0"
       xlink:href="#path4-1"
       id="use10"
       transform="translate(-0.24989053,-1.1746612)"
       style="stroke-width:0.0195804" />
    <use
       x="0"
       y="0"
       xlink:href="#path4-1"
       id="use2"
       transform="translate(-0.99580851,0.82261184)"
       style="stroke-width:0.0195804" />
    <use
       x="0"
       y="0"
       xlink:href="#path4-1"
       id="use3"
       transform="translate(-0.76710239,-0.66426413)"
       style="stroke-width:0.0195804" />
    <use
       x="0"
       y="0"
       xlink:href="#path4-1"
       id="use11"
       transform="translate(-1.0088235,0.04893674)"
       style="stroke-width:0.0195804" />
  </g>
</svg>
