<?xml version="1.0" encoding="UTF-8" standalone="no"?>
<svg
   width="1100"
   height="1000"
   version="1.1"
   id="svg1"
   sodipodi:docname="135F8.svg"
   inkscape:version="1.4.2 (f4327f4, 2025-05-13)"
   xmlns:inkscape="http://www.inkscape.org/namespaces/inkscape"
   xmlns:sodipodi="http://sodipodi.sourceforge.net/DTD/sodipodi-0.dtd"
   xmlns:xlink="http://www.w3.org/1999/xlink"
   xmlns="http://www.w3.org/2000/svg"
   xmlns:svg="http://www.w3.org/2000/svg">
  <defs
     id="defs1" />
  <sodipodi:namedview
     id="namedview1"
     pagecolor="#ffffff"
     bordercolor="#666666"
     borderopacity="1.0"
     inkscape:showpageshadow="2"
     inkscape:pageopacity="0.0"
     inkscape:pagecheckerboard="0"
     inkscape:deskcolor="#d1d1d1"
     inkscape:zoom="0.53386562"
     inkscape:cx="553.51008"
     inkscape:cy="109.57814"
     inkscape:window-width="1680"
     inkscape:window-height="998"
     inkscape:window-x="-8"
     inkscape:window-y="-8"
     inkscape:window-maximized="1"
     inkscape:current-layer="g5"
     showguides="true">
    <sodipodi:guide
       position="906.9311,468.45803"
       orientation="1,0"
       id="guide1"
       inkscape:locked="false" />
    <sodipodi:guide
       position="562.56076,819.28306"
       orientation="1,0"
       id="guide2"
       inkscape:locked="false" />
    <sodipodi:guide
       position="526.58976,850.02855"
       orientation="1,0"
       id="guide5"
       inkscape:locked="false" />
    <sodipodi:guide
       position="598.53169,850.02865"
       orientation="1,0"
       id="guide6"
       inkscape:locked="false" />
    <sodipodi:guide
       position="658.5071,813.61516"
       orientation="0,-1"
       id="guide9"
       inkscape:locked="false" />
  </sodipodi:namedview>
  <path
     style="fill:#000000;stroke:none;stroke-width:1"
     d="m 555.84595,186.40806 c -21.41083,0.42577 -36.26029,6.54486 -44.53268,18.46681 -11.02981,15.89594 -15.64123,26.76567 -13.69477,32.60496 l -23.32625,37.99357 c -5.8393,8.4346 -1.63902,15.63249 12.63485,21.47179 -0.32844,12.38622 -0.43607,14.04272 7.86441,14.84368 -3.88709,7.38063 0.10121,25.65474 12.10409,25.00594 12.00305,-0.64884 19.31835,2.90561 21.91356,10.69139 0,2.59523 -2.26521,3.82775 -6.80449,3.97591 -20.21866,0.65997 -30.35976,2.55417 -48.24319,8.82643 l -115.39702,31.88391 c -38.53141,-1.0698 -97.64331,0.075 -128.4898,-8.74906 -9.10131,-7.99142 -19.10933,-16.90488 -31.14262,-15.38314 -19.73716,2.49596 -32.86527,39.62704 -1.56799,49.03463 5.41503,1.62771 10.11029,1.70853 18.46173,1.64857 12.4811,-0.0896 25.42103,0.13347 52.114,5.72998 33.02977,5.09646 60.79865,8.11641 91.66191,8.51347 39.54008,-5.23772 78.08214,-12.69075 115.55897,-24.6105 29.33909,62.90267 30.91339,138.21378 18.32757,203.76421 -13.62121,71.0271 -33.29066,202.85999 -35.51934,234.06189 -2.59528,36.33356 -9.70418,65.70879 -21.38281,88.09282 -11.67864,22.3841 -36.00139,36.39712 -72.98376,42.23644 -18.16675,0.64874 -24.073,4.84908 -17.58487,12.63486 6.48812,7.78574 12.39438,11.42908 17.58487,10.78039 h 59.37637 c 14.92269,-4.54169 27.08408,-5.18968 36.49188,-1.94507 9.40776,3.24426 18.22107,2.18746 26.33122,-3.00337 8.11017,-5.19051 7.90384,-16.94082 -0.53075,-35.43194 -8.43455,-18.4915 -4.02791,-42.37448 13.16561,-71.57104 17.19352,-29.19647 25.80048,-57.71956 25.80048,-85.6186 0,-28.54771 21.13571,-75.32076 33.13571,-99.05119 2.74197,48.79034 18.1851,131.61851 29.86378,159.84184 11.67862,28.22337 16.96082,50.36569 16.31202,71.12768 -11.67865,22.3841 -36.0014,36.39712 -72.98375,42.23644 -18.16677,0.64874 -24.07143,4.84908 -17.58328,12.63486 6.48811,7.78574 12.39278,11.42908 17.58328,10.78039 h 59.37635 c 14.92269,-4.54169 27.08407,-5.18968 36.49188,-1.94507 9.40779,3.24426 18.22107,2.18746 26.33122,-3.00337 8.11016,-5.19051 7.90545,-16.94082 -0.52916,-35.43194 -14.27389,-21.73514 -17.69862,-60.89251 -16.40099,-93.98197 1.29762,-33.08949 -3.37065,-59.9093 -20.88859,-81.32013 10.22066,-22.99648 20.70627,-141.7827 10.37358,-188.64728 -4.69752,-21.30581 -9.5046,-48.39337 -17.49431,-80.67176 4.57169,-59.67077 61.40987,-140.137 21.4718,-158.60395 l -24.38778,-5.83036 c 11.02985,-3.24405 16.61075,-9.1487 16.61078,-17.58329 -3e-5,-8.43454 -1.7028,-13.60598 -4.94687,-15.55242 22.70847,-18.16674 30.87436,-43.13533 24.38621,-74.92722 -6.48813,-31.7918 -26.93273,-49.97522 -61.31984,-54.51692 -8.59676,-1.13542 -16.45627,-1.6452 -23.59322,-1.50327 z m 1.85605,14.84527 c 3.07591,-0.0377 6.25788,0.17998 9.5425,0.70715 26.27694,4.2173 43.37502,16.05498 51.16076,35.51935 7.78577,19.46441 9.51847,33.77122 5.3012,42.85459 -4.21729,9.08337 -10.56296,17.89506 -18.99757,26.32963 -3.24401,-3.24406 -8.09017,-5.18154 -14.57831,-5.83036 7.13696,-22.70843 10.57403,-42.91991 10.24964,-60.43788 -0.32441,-17.51793 -8.60919,-26.24223 -24.82955,-26.24223 -15.57149,0 -24.70691,5.69829 -27.30218,17.05252 -2.59521,11.35423 1.9272,21.90024 13.60581,31.63243 0,59.6908 7.1979,89.59611 21.4718,89.59611 -0.64883,11.67863 15.29844,15.28631 23.08421,14.63749 18.05036,1.07764 19.69907,26.14973 7.57569,55.78467 -13.62004,36.90521 -22.44274,68.47737 -22.44274,90.65602 8.70403,41.44769 15.66165,72.79851 19.52676,95.25008 -25.61445,16.81591 -68.39901,18.8239 -94.9847,-7.86443 10.98469,-82.96985 7.13015,-131.89861 -25.27131,-207.81962 5.80205,-16.72605 12.31712,-25.09334 19.52834,-25.09333 h 33.04512 l -6.80289,-47.71404 -25.27131,7.77543 c -9.23228,-5.7262 -7.78275,-12.30378 -1.94344,-17.4943 l -2.03246,-8.74794 c -11.67862,-1.29771 -16.20259,-4.29371 -13.60738,-8.83539 2.59526,-4.5417 -0.31187,-7.77243 -8.74634,-9.71888 l 23.41364,-39.8512 c 11.35421,-27.81786 27.77346,-41.88248 49.30471,-42.14587 z m -39.31886,47.97783 c -0.42978,-0.0127 -0.84251,0.0663 -1.2379,0.0891 -2.10865,0.1217 -3.72407,0.71906 -4.85944,1.85447 -4.54169,4.5418 -5.07019,9.50675 -1.50168,15.02167 3.56849,5.5149 16.37567,4.1059 38.43532,-4.32867 -14.1421,-8.21153 -24.39138,-12.44578 -30.8363,-12.63645 z"
     id="path3"
     sodipodi:nodetypes="ssccccscscccsssccccsscscccccsscsccscccscscscccscsssscssccsssccccccccscccccsccsscsscs" />
  <path
     style="fill:#000000;stroke:none;stroke-width:1"
     d="m 628.88939,398.69525 36.75272,98.64983 c -4.19002,29.12664 -1.06821,75.30153 5.51317,126.80396 -15.92151,10.11002 -22.95998,24.50439 -21.04215,43.22204 l 19.25721,-22.44447 -6.9129,47.5877 c 14.67833,9.58358 26.75857,6.81305 36.30918,-8.18849 9.55055,-15.001 8.21992,-41.33981 -4.13829,-79.20617 12.37371,-38.58796 11.14547,-81.61594 6.71783,-115.19867 -9.93156,-44.96778 -18.11508,-82.38686 -37.82338,-116.36925 -6.59518,-11.37187 -22.42457,-14.75367 -34.42611,-17.23019 z"
     id="path8"
     sodipodi:nodetypes="cccccccccscc" />
  <path
     style="fill:#000000;stroke:none;stroke-width:0.999997"
     d="M 229.95394,140.19499 H 176.5224 q 4.77895,19.54835 12.16313,96.00255 h 29.5393 z m -56.47234,92.09319 q 3.4733,-0.45903 2.17273,-9.99146 l -11.29458,-48.65258 q -20.41692,3.47329 -28.88746,-0.45902 -8.47105,-3.91192 -10.20872,-16.9421 1.30567,-13.46626 16.07302,-13.46626 7.81923,0 7.81923,6.5161 0,5.213 -7.38469,5.213 -2.60624,-2.60624 -4.34543,1.30566 -0.45904,7.81925 12.16313,7.81925 11.29406,0 11.29406,-14.33536 0,-17.81018 -20.85095,-17.81018 -25.19539,0 -25.19539,18.24473 0,9.99094 7.38469,20.85097 7.38521,10.86002 7.38521,9.99144 z m 80.36409,42.571 q -1.30059,-6.08156 -11.51134,-14.98665 -10.20871,-8.90509 -18.46199,-12.38042 -8.25379,-3.4733 -20.41692,-3.4733 -11.29458,0 -19.76513,3.4733 -8.47104,3.47329 -18.67925,12.38042 -10.20871,8.90509 -11.94587,15.4212 2.17272,11.29457 18.24472,26.49849 13.03171,12.59769 32.14553,12.59769 19.54784,0 32.14553,-12.59769 16.50705,-15.20392 18.24472,-26.93304 z m -29.97333,1.73919 q -8.25379,0 -10.86002,-4.34542 -3.03977,-3.4733 -3.91191,-9.12237 0,-4.77896 4.77896,-5.64753 13.9008,2.17271 18.24472,12.16365 0,6.95014 -8.25328,6.95014 z m -4.77897,12.16315 v 10.86003 H 188.2515 v -10.86156 z m 58.20949,-108.16569 q 0,0.86704 7.38469,-9.99093 7.38522,-10.86005 7.38522,-20.85148 0,-18.24471 -25.19538,-18.24471 -21.28551,0 -21.28551,17.81017 0,14.33536 11.29406,14.33536 13.03222,0 12.59769,-7.81925 -1.7392,-3.91191 -4.34543,-1.30567 -7.3847,0 -7.3847,-5.213 0,-6.51611 7.81923,-6.51611 14.76938,0 15.63848,13.46677 -1.73919,13.03173 -9.99145,16.94159 -8.25378,3.90683 -28.6702,0.45904 l -11.29457,48.65309 q -1.30567,9.55689 2.17273,9.99145 z m -93.83035,96.00254 q -8.68832,0 -8.68832,-6.95066 4.34545,-9.99093 18.67927,-12.16315 4.77896,0.86706 4.77896,5.64755 -0.86705,5.64704 -3.90682,9.12237 -2.60624,4.34543 -10.86002,4.34543 z m -31.71148,19.54785 q -15.63849,-16.50705 -30.8424,-16.94161 -11.72862,-7.38469 -11.72862,-14.33483 6.08158,-8.25378 13.03173,-8.68833 4.77895,-0.45902 11.07729,0.65283 6.29884,1.08637 10.20872,1.08637 10.42549,0 18.67927,-13.46627 -2.60625,-16.07302 -30.8424,-45.61231 -26.498,-28.67326 -26.498,-49.52472 0,-17.81018 16.28978,-26.93253 16.29028,-9.12237 34.96956,2.1727 h 94.69891 q 18.67926,-11.29405 34.75228,-2.1727 16.07252,9.12235 16.07252,26.93253 0,20.85146 -26.49799,49.52167 -27.80163,29.53928 -29.97383,45.17776 8.25379,13.03224 18.67925,13.03224 3.90682,0 10.20821,-0.86705 6.29884,-0.86705 11.0773,-0.45904 6.51613,0 12.59769,8.68833 0,6.95015 -11.7286,13.90081 -15.20444,0.45903 -30.40837,18.24472 -21.2855,17.81017 -33.44866,25.19487 -2.60624,10.42599 -5.64702,23.02368 -3.91191,17.81018 -3.91191,61.25027 0,35.18631 3.47328,97.74021 h -24.76083 q 3.03977,-62.5539 3.4733,-97.74021 -0.45904,-43.44009 -3.91193,-61.25027 -3.03976,-12.59769 -6.08157,-23.02317 -14.76938,-7.3847 -33.01462,-25.62992 z"
     id="path4" />
  <path
     id="path1"
     style="fill:#000000;stroke:none;stroke-width:0.999997"
     d="m 504.5541,147.51091 c -31.64203,0 -40.92625,15.80996 -62.1234,15.80996 -8.81348,0 -18.28406,-3.88403 -27.21683,-7.51416 -4.26064,-1.42018 -5.91797,0.47463 -4.97118,5.68204 6.41385,17.49235 24.17725,22.05416 36.80971,22.05416 25.37219,0 38.06133,-9.29156 56.74301,-9.15157 25.48184,0.19096 40.09931,6.56328 53.43874,26.86199 h 5.32661 l -4.4e-4,-32.18036 c -15.69634,-15.49 -37.56376,-21.56206 -58.00622,-21.56206 z"
     sodipodi:nodetypes="ssccsscccs" />
  <use
     x="0"
     y="0"
     xlink:href="#path1"
     id="use1"
     transform="matrix(-1,0,0,1,1125.121,0)"
     style="stroke-width:1.07692" />
  <g
     id="g5"
     transform="matrix(0.92857143,0,0,0.92857143,40.182893,0.42857157)"
     style="stroke-width:1.07692">
    <path
       style="fill:#1a5fb4;stroke:none;stroke-width:1.07692px;stroke-linecap:butt;stroke-linejoin:miter;stroke-opacity:1"
       d="m 521.901,180.28882 c 2.65354,-36.68396 13.3338,-98.385241 40.65976,-122.137391 l 2e-5,28.929674 c -16.07541,22.154167 -20.8533,53.737547 -21.68869,97.885017 z"
       id="path2"
       sodipodi:nodetypes="ccccc" />
    <use
       x="0"
       y="0"
       xlink:href="#path2"
       id="use2"
       transform="matrix(-1,0,0,1,1125.1215,0)"
       style="stroke-width:1.07692" />
    <circle
       style="fill:none;fill-rule:evenodd;stroke:#613583;stroke-width:15.0769;stroke-linecap:round;stroke-miterlimit:5;stroke-dasharray:none"
       id="path5"
       cx="562.56073"
       cy="33.152649"
       r="26.075727" />
  </g>
  <g
     id="g8">
    <path
       style="fill:#26a269;stroke:none;stroke-width:0.999997px;stroke-linecap:butt;stroke-linejoin:miter;stroke-opacity:1"
       d="m 442.18682,167.91554 c 1.52191,-31.74288 5.87024,-53.56048 11.74051,-70.519012 -15.86067,-0.44889 -21.71132,-17.903445 -11.16704,-28.914911 10.54428,-11.011466 28.81078,-2.045771 29.86489,11.738971 l -12.17534,83.270692 z"
       id="path6"
       sodipodi:nodetypes="cczccc" />
    <use
       x="0"
       y="0"
       xlink:href="#g5"
       id="use8"
       transform="translate(-73.726455)" />
  </g>
  <use
     x="0"
     y="0"
     xlink:href="#g8"
     id="use9"
     transform="matrix(-1,0,0,1,1125.1215,0)" />
</svg>
