<?xml version="1.0" encoding="UTF-8" standalone="no"?>
<svg
   width="1400"
   height="1000"
   version="1.1"
   id="svg1"
   sodipodi:docname="13605.svg"
   inkscape:version="1.4.2 (f4327f4, 2025-05-13)"
   xmlns:inkscape="http://www.inkscape.org/namespaces/inkscape"
   xmlns:sodipodi="http://sodipodi.sourceforge.net/DTD/sodipodi-0.dtd"
   xmlns="http://www.w3.org/2000/svg"
   xmlns:svg="http://www.w3.org/2000/svg">
  <defs
     id="defs1" />
  <sodipodi:namedview
     id="namedview1"
     pagecolor="#ffffff"
     bordercolor="#666666"
     borderopacity="1.0"
     inkscape:showpageshadow="2"
     inkscape:pageopacity="0.0"
     inkscape:pagecheckerboard="0"
     inkscape:deskcolor="#d1d1d1"
     showguides="true"
     inkscape:zoom="0.9908923"
     inkscape:cx="699.87424"
     inkscape:cy="387.02491"
     inkscape:window-width="1680"
     inkscape:window-height="998"
     inkscape:window-x="-8"
     inkscape:window-y="-8"
     inkscape:window-maximized="1"
     inkscape:current-layer="svg1">
    <sodipodi:guide
       position="826.52218,594.49425"
       orientation="0,-1"
       id="guide1"
       inkscape:locked="false" />
    <sodipodi:guide
       position="1258.9826,427.7007"
       orientation="0,-1"
       id="guide2"
       inkscape:locked="false" />
  </sodipodi:namedview>
  <path
     style="fill:#ffa348;stroke:none;stroke-width:1"
     d="m 860.56445,292.18945 -14.95312,2.99024 v 71.77929 c 0,17.27989 -6.31382,30.9039 -18.94141,40.87305 -23.26141,-4.65227 -42.86771,-2.32601 -58.81836,6.97852 -22.59675,15.95069 -47.18705,23.5943 -73.77148,22.92968 -13.95679,0.66462 -20.93555,4.98366 -20.93555,12.95899 0,16.61524 6.97876,24.59036 20.93555,23.92578 l 69.7832,2.99023 c 25.91981,0 45.69192,6.81301 59.31641,20.4375 10.16858,10.16858 19.68944,28.38957 28.5625,54.66211 -39.10901,61.14742 -73.54351,93.47221 -103.30469,96.97461 0.27739,7.22516 0.43741,14.05417 0.48047,19.71485 13.79847,-0.82275 26.92104,-5.76882 39.36914,-14.83594 26.69216,-19.44245 49.95352,-46.56397 69.7832,-81.36524 0.83768,2.95257 1.66887,5.98305 2.49414,9.08985 11.29835,42.53509 16.94727,76.09693 16.94727,100.6875 0,24.59065 -2.32433,45.02762 -6.97656,61.31055 -4.6523,16.28297 -12.62938,39.37769 -23.92774,69.28515 -9.30457,9.96919 -13.95703,21.93184 -13.95703,35.88867 -32.56589,82.41169 -51.17386,122.62075 -55.82617,120.62696 h -9.96875 c -12.62759,4.65223 -18.94141,10.96603 -18.94141,18.9414 -0.66462,5.31707 8.63839,9.30465 27.91211,11.9629 h 13.95703 c 3.32306,-0.6646 9.97027,-3.98725 19.93946,-9.96876 5.31688,-19.27372 21.93207,-58.81786 49.8457,-118.63281 11.96297,-12.62759 17.94336,-28.24636 17.94336,-46.85547 14.62149,-42.53508 29.90875,-73.77063 45.85937,-93.70898 7.97525,-1.99382 13.62417,-12.29524 16.94727,-30.9043 10.63381,3.32302 22.59642,14.78659 35.88867,34.39258 13.29228,19.60603 20.93589,45.69191 22.92969,78.25781 -3.9878,11.96305 -2.65976,22.26439 3.98628,30.9043 7.3107,5.31689 14.6229,46.19087 21.9336,122.62109 -17.9445,3.32307 -26.91793,10.96672 -26.91793,22.92969 0,6.64613 2.65963,9.96875 7.97653,9.96875 31.9013,0 47.8516,-4.32099 47.8516,-12.96094 l -28.9102,-243.24609 c 3.9877,-13.29225 -0.3333,-29.57592 -12.9609,-48.84961 57.8211,-7.97537 107.6666,-22.59577 149.5371,-43.86328 -0.6646,38.54741 1.6616,81.41421 6.9785,128.60156 -15.286,63.80263 -29.9064,121.29177 -43.8633,172.4668 -3.9877,9.30446 -10.6348,14.61991 -19.9394,15.94922 -15.9506,3.32303 -23.9258,12.62802 -23.9258,27.91406 13.2922,4.65238 31.5687,5.31728 54.8301,1.99414 l 58.8183,-176.45313 c 11.9632,-13.95683 17.2805,-28.24576 15.9512,-42.86718 l 40.8731,-94.70703 c 2.6584,11.96298 12.2948,37.21818 28.9101,75.76562 16.6152,38.5474 32.234,65.7954 46.8555,81.74609 7.3107,0 14.6209,32.23397 21.9316,96.70118 1.3293,14.62145 -1.3285,26.25266 -7.9746,34.89257 -6.6463,8.63995 -6.3146,17.61145 0.9961,26.91602 h 28.9121 c 9.3047,-4.65226 14.7878,-11.63098 16.4492,-20.93555 1.6615,-9.30457 0.4975,-21.93219 -3.4902,-37.88281 -5.9815,-20.60296 -11.2989,-54.82967 -15.9512,-102.68164 -15.9505,-23.26137 -23.5922,-60.81273 -22.9277,-112.65234 4.6523,-42.53509 -4.6527,-80.7494 -27.9141,-114.64454 42.5351,-29.90744 58.4853,-58.65301 47.8516,-86.23437 -10.6339,-27.58125 -26.4183,-41.53672 -47.3535,-41.86914 -20.9335,-0.33231 -31.2349,4.32019 -30.9043,13.95703 0.3323,9.63688 8.8067,14.45508 25.4219,14.45508 16.6154,0 25.9184,8.64002 27.9121,25.91992 1.9939,17.27986 -10.9652,35.5564 -38.8789,54.83008 -19.9383,-19.27368 -55.8264,-24.59112 -107.666,-15.95117 -59.8149,9.30446 -103.0152,12.46138 -129.5997,9.4707 -26.5845,-2.99075 -50.5098,-11.63077 -71.7773,-25.91992 -21.2675,-14.28911 -41.37304,-33.7297 -60.31445,-58.32031 -2.08556,-2.70758 -2.08547,-2.36423 -4.00586,-4.83008 l -1.47656,-2.14649 -0.18555,0.14258 c -14.19864,-18.13737 -26.23014,-33.10177 -30.71875,-37.0293 7.97537,-15.28604 11.96289,-28.57856 11.96289,-39.87695 0,-33.23051 -15.61874,-75.10091 -46.85547,-125.61133 z m -0.99609,30.9043 c 20.60288,39.21203 31.23573,70.78108 31.90039,94.70703 -0.66466,13.95687 -6.64696,27.9143 -17.94531,41.8711 9.13341,6.08891 22.17217,21.24419 39.11523,45.46289 l -45.88086,35.33984 c -0.23745,-0.69132 -0.47395,-1.37335 -0.71093,-2.04688 -6.31386,-17.94448 -15.95029,-34.89114 -28.91016,-50.84179 -12.9599,-15.95066 -44.69466,-24.25921 -95.20508,-24.92383 -35.88911,0 -54.16561,-2.32629 -54.83008,-6.97852 v -1.99414 c 22.59679,-0.66462 45.19231,-5.31708 67.78906,-13.95703 19.27373,-13.95683 36.55382,-20.93359 51.83985,-20.93359 7.97529,0 15.61894,1.32788 22.92969,3.98633 19.93831,-10.63377 29.9082,-29.57521 29.9082,-56.82422 z m 5.98047,23.92578 -4.98438,2.99219 c 8.63991,25.91981 12.95899,45.52419 12.95899,58.8164 0,13.9568 -4.31908,25.58801 -12.95899,34.89258 l 5.98047,3.98828 c 21.26765,-13.95679 20.93604,-47.52059 -0.99609,-100.68945 z m -69.86133,76.6543 c -9.08647,0.15576 -15.7075,2.5187 -19.86133,7.08789 l 2.99024,2.99023 c 5.98151,-4.65227 13.45945,-6.47931 22.43164,-5.48242 8.97222,0.99689 15.12026,1.49414 18.44336,1.49414 h 9.96875 v -3.98633 h -14.95313 c -7.22763,-1.49538 -13.56765,-2.19697 -19.01953,-2.10351 z m -2.91406,8.08398 c -7.97515,0 -13.29059,3.98756 -15.94922,11.96289 0.66462,5.31689 5.98007,7.97461 15.94922,7.97461 9.96919,-1.99383 22.2653,-6.31289 36.88672,-12.95898 0,-4.6523 -12.29611,-6.97852 -36.88672,-6.97852 z m 3.98828,4.98438 h 22.92969 c -19.93849,7.31071 -31.23823,8.97205 -33.89649,4.98437 0.66462,-3.32303 4.32071,-4.98437 10.9668,-4.98437 z m 127.1289,84.3164 c 18.30367,24.20319 41.22607,44.44795 68.76563,60.73438 30.90445,18.27694 54.99555,27.74764 72.27535,28.41211 29.2429,-2.65845 58.4857,-7.31091 87.7286,-13.95703 29.2429,-6.64617 54.1665,-9.30392 74.7695,-7.97461 20.6029,1.32921 39.8758,8.14026 57.8203,20.43554 17.9444,12.29533 30.0748,28.74474 36.3887,49.34766 6.3139,20.60293 9.8023,48.84929 10.4668,84.73828 0.6647,35.88896 4.9856,61.47568 12.9609,76.76172 9.3046,15.28604 14.9535,35.39154 16.9473,60.31445 1.9939,24.92288 6.6463,52.00518 13.957,81.24805 1.3292,15.95069 -6.646,23.92578 -23.9258,23.92578 6.6459,-13.95683 9.6352,-28.57724 8.9707,-43.86328 -6.6461,-70.44868 -14.2878,-107.3351 -22.9277,-110.6582 -19.2737,-21.93217 -45.8588,-77.09505 -79.7539,-165.48828 -23.2614,-22.59675 -45.5255,-33.89454 -66.793,-33.89454 -21.2676,0 -41.373,5.48317 -60.3144,16.44922 -18.9414,10.96608 -62.3074,21.43316 -130.0977,31.40235 -12.62768,-16.61527 -14.28897,-28.24645 -4.98437,-34.89258 l -6.97851,-6.97852 c -8.6399,7.31075 -12.95899,13.95799 -12.95899,19.93946 0,6.64613 6.6453,18.94028 19.9375,36.88476 13.29207,17.94452 18.60947,32.89836 15.95117,44.86133 8.6399,57.82112 18.6099,139.90056 29.9082,246.23828 0.6647,2.65863 -9.9702,3.98828 -31.9023,3.98828 v -1.99414 l 26.9179,-8.9707 c -8.64,-89.72248 -16.9485,-137.57517 -24.9238,-143.55664 1.3293,-60.47957 -14.95434,-107.00243 -48.84961,-139.56836 -40.54123,-25.91981 -60.81054,-43.53137 -60.81054,-52.83594 l -10.9668,1.99414 c 7.31071,17.94452 17.94551,31.56852 31.90234,40.87305 3.98765,5.9815 1.99291,17.27925 -5.98242,33.89453 -15.95062,15.28604 -32.89727,48.84984 -50.84179,100.68945 -3.98765,24.59072 -8.64015,37.21835 -13.95704,37.88282 l -44.86132,102.68164 c -8.63998,20.60292 -18.27837,30.90429 -28.91211,30.90429 -12.62759,-1.32902 -18.94141,-3.32183 -18.94141,-5.98046 0,-1.99379 2.32629,-3.32382 6.97852,-3.98829 l 12.96093,2.99024 c 9.96897,-10.63373 16.28278,-18.94034 18.94141,-24.92188 31.23673,-67.12565 46.85547,-103.68064 46.85547,-109.66211 29.24287,-72.44258 44.85973,-122.61957 46.85351,-150.5332 1.99386,-27.91367 -0.33044,-57.15644 -6.97656,-87.72852 -4.19009,-19.27445 -8.31504,-36.03965 -12.37305,-50.29492 z m 251.69918,125.03516 c 27.9136,6e-5 49.1813,7.6437 63.8028,22.92969 -27.9135,67.12565 -41.5376,104.67697 -40.8731,112.65234 0.6646,7.97529 -1.8293,14.62057 -7.4785,19.9375 -5.6492,5.31689 -26.0843,65.7972 -61.3086,181.43945 -0.6646,5.98147 -8.9731,8.97266 -24.9238,8.97266 l -12.959,-1.99414 v -3.98828 c 6.6461,-2.65837 13.6229,-4.65116 20.9336,-5.98047 7.3107,-1.32917 12.9615,-3.98888 16.9492,-7.97656 33.895,-112.98381 50.5102,-177.11823 49.8457,-192.4043 -3.9876,-47.18735 -5.3176,-91.71547 -3.9883,-133.58594 z"
     id="path3" />
  <path
     style="fill:#000000;stroke:none;stroke-width:1"
     d="m 409.95898,0.09375 c -43.86433,6.646089 -67.12671,29.575049 -69.78515,68.787109 -5.98151,7.975329 -12.62679,19.273111 -19.9375,33.894531 -3.32306,9.30457 -3.15733,14.62197 0.49805,15.95117 3.65537,1.32921 6.81226,2.99052 9.4707,4.98438 -3.32306,1.99382 -4.48517,3.82091 -3.48828,5.48242 0.99693,1.66155 2.82397,2.49219 5.48242,2.49219 0.66462,0 -3.1e-4,1.1641 -1.99414,3.49023 -1.99386,2.32613 -1.49466,4.15318 1.49609,5.48242 2.99075,1.32921 4.65207,5.48251 4.98438,12.46094 0.33231,6.9784 3.15576,10.63464 8.47265,10.9668 5.31689,0.33242 13.95696,0.49804 25.91992,0.49804 l 3.98829,15.95118 c -10.63374,6.64609 -22.26495,9.96875 -34.89258,9.96875 -11.29836,0 -30.21243,6.67201 -41.73438,21.55468 -22.50925,47.89783 -42.82281,96.75385 -60.93945,146.56836 -22.03653,12.708 -47.53927,12.75959 -80.95312,27.80664 -33.41388,15.04705 -56.02901,21.5854 -67.847661,19.61719 C 68.496608,389.11974 39.094353,382.87866 0.49414062,387.32617 -1.6988174,395.10844 3.4078012,400.34931 15.814453,403.05078 l 1.359375,33.2461 c 4.856021,10.5632 14.365548,15.28693 28.529297,14.16992 18.49079,-3.98426 39.990929,-7.97173 64.499995,-11.96289 84.57549,-15.38878 124.27066,-27.24845 155.92188,-43.02344 22.1414,-26.43329 39.32518,-56.13083 59.24219,-121.50781 19.93831,41.20588 27.76758,92.6526 27.76758,165.75976 l -48.84961,255.21094 v -0.99609 c -18.6091,108.33154 -32.2331,176.45355 -40.87305,204.36718 -10.63373,26.58443 -21.93152,41.86977 -33.89453,45.85743 -11.96297,3.98768 -32.56768,12.62767 -61.81055,25.91992 -19.93834,3.32303 -31.90103,9.63683 -35.88867,18.9414 -3.98769,9.30451 4.3209,13.2921 24.92383,11.9629 25.91985,0 45.02698,-1.49369 57.32226,-4.48438 12.29529,-2.99067 28.41127,-2.3278 48.34961,1.99219 19.9383,4.31999 29.57669,-2.15958 28.91211,-19.43946 2.65841,-33.8951 15.61751,-74.60139 38.87891,-122.12109 23.26137,-47.51966 33.89616,-82.91047 31.90234,-106.17188 -1.99383,-23.26133 5.64788,-42.20276 22.92774,-56.82421 l 74.76953,0.99609 c 15.95065,107.66692 25.5869,176.78744 28.91015,207.35937 1.3292,26.58443 -2.82409,44.19595 -12.46093,52.83594 -9.63688,8.6401 -28.74402,14.28902 -57.32227,16.94727 -17.27986,9.96915 -26.41908,17.44706 -27.41602,22.43164 -0.99689,4.98458 4.81773,7.47652 17.44532,7.47652 12.62759,0 27.58143,-0.4992 44.86133,-1.4961 17.27986,-0.99681 38.21603,-0.99681 62.80664,0 24.59057,0.9969 32.56569,-6.8124 23.92578,-23.42769 -7.97555,-50.51037 -8.80601,-99.691 -2.49219,-147.54297 6.31381,-47.85197 2.49199,-92.71351 -11.46484,-134.58398 v -0.99609 L 502.67188,538.42773 c 10.34384,-27.74033 13.28704,-54.31674 8.8293,-79.72887 -1.84344,-10.5089 -4.95255,-20.81868 -9.32735,-30.92933 -14.95373,-34.55975 -10.13553,-86.73152 14.45508,-156.51562 16.61527,34.55975 37.21802,64.80093 61.80859,90.7207 -5.31689,43.86433 -4.65199,96.69912 1.99414,158.50781 -9.30446,15.95066 -14.62186,31.56943 -15.95117,46.85547 -23.26141,9.30453 -34.89258,44.86111 -34.89258,106.66992 l 16.94727,-0.99609 c 0.66462,-39.87665 6.64692,-68.78794 17.94531,-86.73242 -0.66447,7.97533 0.33197,19.93801 2.99023,35.88867 7.97551,1.32924 12.29647,-4.31968 12.96094,-16.94727 0,0 36.96293,-3.0959 42.95301,-10.74989 8.87654,-11.34225 6.3877,-39.52704 -12.04871,-70.00011 11.29847,-79.08863 12.95974,-134.25158 4.98437,-165.48828 -9.96915,-27.24905 -28.57911,-68.78598 -55.82812,-124.61328 -14.62146,-33.23052 -37.8819,-49.8457 -69.78321,-49.8457 -21.26754,0 -33.39792,-4.15525 -36.38867,-12.46289 -2.99072,-8.30763 -5.14927,-17.44492 -6.47851,-27.41407 v -0.99804 c 11.96301,-4.65231 23.75995,-14.123 35.39062,-28.41211 11.63066,-14.28914 16.78033,-33.727792 15.45117,-58.318361 C 498.01897,30.998123 488.21684,14.880185 469.27539,8.5664062 450.33402,2.2525904 430.5619,-0.57087001 409.95898,0.09375 Z m 6.72852,16.449219 c 9.1384,0.166155 19.19018,1.49404 30.15625,3.986328 21.93217,4.984576 33.56338,17.779889 34.89258,38.382812 0.66462,21.267543 -5.98067,39.544039 -19.9375,54.830081 -13.9568,15.28603 -22.93029,19.60507 -26.91797,12.95898 -5.31685,-6.64609 -2.32569,-16.28253 8.97266,-28.910154 21.56537,-24.102444 9.83069,-61.349767 -31.9004,-36.886719 -7.3107,-7.310746 -23.59437,-12.294682 -48.8496,-14.953125 4.65231,-13.292215 14.28874,-22.098013 28.91015,-26.417969 7.31073,-2.159977 15.53543,-3.156389 24.67383,-2.990234 z m -58.56836,40.375 c 20.60293,0 37.54959,4.652499 50.8418,13.957031 -0.66462,7.975329 2.1608,8.141066 8.47461,0.498047 12.74148,-15.423849 31.77379,-8.404257 23.42773,12.460937 -3.98768,9.969151 -9.47082,18.443476 -16.44922,25.421876 -6.9784,6.97843 -8.30824,13.78946 -3.98828,20.43555 4.31999,6.64612 6.81198,12.62842 7.47656,17.94531 4.65227,39.87665 20.271,59.81445 46.85547,59.81445 33.8951,0.66462 40.70811,25.91984 20.4375,75.76563 -20.27061,49.84579 -28.41343,93.3775 -24.42578,130.5957 l -93.70898,21.93359 C 374.4021,355.9928 367.58913,302.9904 356.62305,276.73828 345.65697,250.48616 337.35037,232.3754 331.70117,222.40625 c -5.64916,-9.96915 3.82154,-14.95508 28.41211,-14.95508 24.59061,0 35.72262,-9.96791 33.39649,-29.90625 -2.32613,-19.93831 -11.1319,-27.91343 -26.41797,-23.92578 -15.28604,3.98769 -21.93332,-0.66481 -19.93946,-13.95703 9.30453,-6.64612 12.29573,-10.96711 8.97266,-12.96094 -3.32306,-1.99382 -8.64046,-3.32171 -15.95117,-3.98633 0,-4.65227 -3.98756,-7.97687 -11.96289,-9.9707 6.64609,-17.944514 13.29333,-30.572103 19.93945,-37.882812 7.31075,-3.323063 14.78667,-3.323063 22.42969,0 7.64298,3.323063 15.78388,5.317802 24.42383,5.982422 l -0.9961,-4.984375 c -5.31685,0 -11.7964,-1.994739 -19.43945,-5.982422 -7.64302,-3.987646 -15.45241,-4.319157 -23.42774,-0.996094 2.65845,-4.652303 4.98466,-8.639864 6.97852,-11.96289 z m 74.38672,10.505859 c -12.36116,0.145455 -23.45036,20.132769 -20.55274,27.376953 -8.12826,2.709454 -9.98723,12.227709 -2.49218,14.953129 7.84903,2.85422 24.74333,-16.642322 27.91211,-27.416019 0.75195,-2.556653 3.96573,-15.018014 -4.86719,-14.914063 z m -1.61133,6.566406 c 1.66152,0.08307 2.3245,1.203304 1.99219,3.363282 -0.66455,4.319993 -2.49163,8.640982 -5.48242,12.960937 -2.99075,4.319993 -5.81433,7.143453 -8.47266,8.472656 -2.65841,1.329241 -2.65841,0.0014 0,-3.986328 2.65833,-3.987646 2.49075,-5.317484 -0.5,-3.988281 -2.99072,1.32924 -3.65565,-5.98e-4 -1.99414,-3.988281 5.25561,-12.613541 12.89995,-12.911831 14.45703,-12.833985 z m -69.55078,1.962891 c -3.39575,-0.06231 -6.46551,0.902653 -9.20703,2.896484 l -5.98047,5.982422 V 90.8125 l 2.99023,-0.996094 c 9.30453,4.652303 19.93934,3.987366 31.90235,-1.99414 l 10.96484,2.990234 v -5.980469 h -10.96484 c -7.47688,-5.815355 -14.0455,-8.775056 -19.70508,-8.878906 z m -3.22461,4.890625 c -1.32924,1.993823 -0.99777,4.320073 0.99609,6.978516 -2.65848,-0.66462 -4.98469,-1.661032 -6.97851,-2.990235 0.66462,-1.99386 2.65936,-3.323698 5.98242,-3.988281 z m 8.97266,0 9.96875,5.980469 c -3.98769,0.66462 -7.64377,0.998047 -10.9668,0.998047 2.65845,-1.993823 2.99191,-4.320073 0.99805,-6.978516 z m 43.86328,18.941406 c 3.98769,1.993834 4.81832,3.820914 2.49219,5.482424 -2.32613,1.66155 -3.82171,1.49577 -4.48633,-0.49805 -0.66462,-1.99386 3.2e-4,-3.65516 1.99414,-4.984374 z M 347.65039,112.2461 c 0.58967,2.94862 -2.28021,5.93652 -5.98047,1.4961 -5.54864,-6.65827 -6.37797,-0.79507 -5.48242,0.99609 1.32921,-1.32921 2.99052,-0.66431 4.98438,1.99414 4.29629,5.72837 10.10719,1.10356 9.4707,-3.98828 -0.73823,-5.90644 -3.61635,-3.61884 -2.99219,-0.49805 z m -9.43945,14.05859 c 0.56076,0.0156 1.2152,0.14725 1.96289,0.39648 2.65844,0 5.64959,0.16585 8.97265,0.49805 3.32307,0.33242 4.65291,0.5 3.98829,0.5 l -15.95118,0.99609 c -1.3292,0 -1.66067,-0.49916 -0.99609,-1.49609 0.41539,-0.62308 1.08883,-0.92049 2.02344,-0.89453 z m 13.92578,3.38672 c -0.66462,1.32924 -2.16024,2.65908 -4.48633,3.98828 -2.32617,1.32924 -4.48469,1.99414 -6.47851,1.99414 -1.32924,0.66458 -2.32757,0.66458 -2.99219,0 -0.66459,-0.66462 -0.33117,-1.66104 0.99804,-2.99024 z m 122.62109,309.04492 c 21.93213,27.24901 22.92858,60.47938 2.99024,99.6914 l 22.92968,133.58789 H 334.19336 L 376.0625,462.66211 Z"
     id="path1"
     sodipodi:nodetypes="cccscssssscccsccsccccccccccccscscsscsscccscsssscscccsscccccccccscccssccscscsscscsccssccssssccsccssssscscccsccsccscssssssssssssccccccccscccccccccsscsscssssccccsscscscccccccc" />
  <path
     d="M 34.329783,1000 V 60.905138 h 25.91979 V 1000 Z"
     style="fill:#000000;stroke:none;stroke-width:1"
     id="path1-2" />
  <path
     style="fill:#000000;stroke:none;stroke-width:1"
     d="m 789.24869,316.69139 c 14.54834,15.10787 25.74027,40.28768 33.57582,75.53945 2.79632,22.38203 8.67101,38.60895 17.62404,48.68077 79.26273,84.65442 112.58719,124.4738 197.38495,124.4738 36.0914,0 74.1411,-2.9376 114.1491,-8.81281 40.0078,-5.87547 98.0615,3.497 174.1609,28.1174 12.8694,-6.71463 19.3042,-17.90564 19.3042,-33.57303 -1.6868,-11.19114 -6.1634,-16.78671 -13.4297,-16.78671 -10.073,-2.2376 -16.7871,1.39948 -20.1421,10.91125 7.8328,12.86974 5.3145,21.54286 -7.5549,26.01937 -14.5483,-3.35745 -19.8642,-15.38788 -15.9478,-36.09131 1.1331,-18.46506 12.8838,-29.09655 35.252,-31.89445 27.4178,-0.55875 44.4845,10.07274 51.1997,31.89445 2.2404,24.6204 -3.3562,49.52045 -16.7897,74.70013 7.8354,35.25177 6.7154,102.95751 -3.3604,203.11723 0,10.07181 10.6319,27.97745 31.8956,53.71694 0,26.29875 4.4765,61.27061 13.4295,104.91558 -6.1567,17.34626 -11.752,27.13846 -16.7859,29.37665 h -42.8069 c -7.8329,0 -11.3303,-3.9169 -10.4922,-11.75061 0.8435,-7.83397 11.8944,-12.86988 33.1529,-15.10774 2.7989,-60.43171 -11.0497,-99.04079 -41.5458,-115.82725 -30.4961,-16.78646 -50.5001,-45.32359 -60.0119,-85.6114 -22.3812,37.4899 -34.1318,69.10458 -35.2519,94.84406 -33.5719,39.72801 -57.3526,80.29545 -71.3421,121.70233 l -11.7495,3.35638 v 8.39423 h -60.4309 c -3.3577,-1.12018 -5.0365,-6.43599 -5.0365,-15.94751 0,-9.51228 14.2676,-16.50656 42.8029,-20.98279 4.4777,0 11.7518,-8.53318 21.8223,-25.59953 10.0733,-17.06635 23.5028,-47.70179 40.2887,-91.90631 -8.3916,-100.71924 -2.5156,-163.9486 17.6281,-189.68809 h -1.7001 c -17.9061,0 -50.9192,12.03044 -99.0393,36.09134 -48.1228,24.06062 -85.3331,34.41219 -111.63064,31.05474 14.54834,78.33722 36.37074,162.82943 65.46744,253.47659 v 18.46532 c -1.1333,3.35746 -4.491,5.03624 -10.0731,5.03624 h -53.7181 c -6.71279,-17.34631 2.80024,-28.8171 28.5391,-34.41241 -19.0261,-64.90795 -32.03519,-101.69849 -39.02735,-110.37162 -6.99481,-8.67313 -12.45045,-24.06075 -16.3669,-46.16288 -3.91908,-22.1024 -20.42696,-52.45807 -49.52363,-91.06701 -33.57185,99.04065 -57.63194,183.81262 -72.18027,254.31587 -5.59531,11.19115 -12.03004,16.78673 -19.30422,16.78673 0,7.27418 -12.31073,10.91132 -36.93219,10.91132 h -34.40996 c -1.1333,-19.02491 13.97376,-32.45419 45.3212,-40.28787 24.06273,-34.69225 42.52883,-106.03494 55.39829,-214.02809 l 1.66042,-25.18008 c 3.25045,-49.29271 -1.53238,-136.75005 -28.26071,-173.99387 -12.31072,-17.90551 -26.43868,-26.99821 -42.38386,-27.2781 -15.94782,-0.27938 -29.51704,-2.79741 -40.70766,-7.55406 -11.19062,-4.75615 -36.6502,-6.5747 -76.37874,-5.45564 -12.86946,-16.78645 -18.74546,-35.25163 -17.62798,-55.39554 16.22719,-5.03577 41.40739,-10.63122 75.54061,-16.78634 6.15406,-2.23758 11.47,-6.71396 15.94784,-13.42912 5.03657,-3.35745 12.5901,-6.15524 22.6606,-8.39336 4.47781,-34.69222 6.43604,-65.18784 5.87468,-91.48685 7.83554,7.27418 13.71153,14.54847 17.62797,21.82289 1.10695,-8.95303 2.50512,-17.90591 4.19453,-26.85868 z m 5.03658,27.69756 c -1.68677,24.62042 -1.68677,46.16316 0,64.6282 -3.91645,11.75069 -6.71411,11.19063 -8.39297,-1.68017 -1.68677,-12.86974 -4.20506,-26.57878 -7.55487,-41.12711 h -0.8302 l -3.36034,55.39594 c -0.55347,3.91672 -9.22712,8.67286 -26.02095,14.26845 -8.39164,12.3102 -16.78461,17.90563 -25.17888,16.78631 -16.78594,5.03604 -35.81078,9.23279 -57.07453,12.59024 l 3.36035,6.71436 c 39.72853,2.23759 41.68676,5.87469 5.87467,10.91125 v 0.83811 l 5.03656,5.87548 c 33.01313,-1.67886 54.13588,-0.42038 63.36827,3.77544 9.23503,4.19663 27.56144,5.4551 54.97925,3.77545 10.43311,2.43457 23.24409,12.9751 38.43297,31.62162 41.08856,50.4421 39.72475,166.54373 35.99101,223.78716 8.95302,-15.10786 19.58358,-37.48989 31.89168,-67.14608 10.07314,-1.12012 22.80293,9.09165 38.18938,30.63531 15.38906,21.54286 25.32119,32.03452 29.79639,31.47498 0,-8.953 -0.55347,-19.30472 -1.66041,-31.05514 -3.91908,-11.19114 0.27675,-16.78671 12.5875,-16.78671 40.28725,0 81.27425,-10.35171 122.96095,-31.05515 41.6868,-20.70317 71.7625,-31.05475 90.2274,-31.05475 37.4909,0 59.7338,12.31007 66.7285,36.93022 6.9948,24.62015 13.5692,53.15728 19.7233,85.61139 6.154,32.45384 22.6606,53.99657 49.5197,64.62818 9.5117,-83.93279 11.1906,-144.0846 5.0365,-180.45543 -5.0365,-27.4178 -20.9831,-43.0852 -47.8395,-47.00219 -44.7651,-13.9888 -78.6189,-20.98319 -101.5615,-20.98319 -76.6581,6.1551 -125.179,9.50895 -163.817,10.23677 -58.10873,1.0946 -133.63723,-44.14795 -211.0853,-148.979 z m -38.60844,91.48688 c 7.83292,0.55874 23.22068,4.47559 46.16328,11.75054 -25.18021,10.07182 -41.2677,13.7089 -48.2625,10.91125 -6.9948,-2.79766 -10.4922,-6.15497 -10.4922,-10.07193 4.47785,-7.83371 8.67499,-12.03033 12.59142,-12.58986 z m 464.71047,226.87153 c -15.6684,36.93035 -20.4243,96.24273 -14.2675,177.93714 h 0.8301 c 0,-10.63136 15.9479,-44.48417 47.8435,-101.55843 0.5535,-29.65619 -10.9179,-55.11576 -34.4139,-76.37871 z"
     id="path1-1"
     sodipodi:nodetypes="cccsccccccccccccccsccsccccccsccccsccccscccccccscccscccccccccccccccccccccccccccscccccsssssccccsccccscccccccc" />
  <path
     style="fill:none;stroke:#613583;stroke-width:22;stroke-linecap:butt;stroke-linejoin:miter;stroke-opacity:1;stroke-dasharray:none"
     d="m 838.13347,551.7754 50.45957,-45.16131"
     id="path4" />
  <path
     style="fill:none;stroke:#613583;stroke-width:17;stroke-linecap:butt;stroke-linejoin:miter;stroke-dasharray:none;stroke-opacity:1"
     d="m 619.05328,583.37298 c 59.10687,60.06969 151.77435,53.18591 219.08019,-31.59758"
     id="path5"
     sodipodi:nodetypes="cc" />
</svg>
