<?xml version="1.0" encoding="UTF-8" standalone="no"?>
<svg
   width="600"
   height="1000"
   version="1.1"
   id="svg1"
   sodipodi:docname="13603.svg"
   inkscape:version="1.4.2 (f4327f4, 2025-05-13)"
   xmlns:inkscape="http://www.inkscape.org/namespaces/inkscape"
   xmlns:sodipodi="http://sodipodi.sourceforge.net/DTD/sodipodi-0.dtd"
   xmlns="http://www.w3.org/2000/svg"
   xmlns:svg="http://www.w3.org/2000/svg">
  <defs
     id="defs1" />
  <sodipodi:namedview
     id="namedview1"
     pagecolor="#ffffff"
     bordercolor="#666666"
     borderopacity="1.0"
     inkscape:showpageshadow="2"
     inkscape:pageopacity="0.0"
     inkscape:pagecheckerboard="0"
     inkscape:deskcolor="#d1d1d1"
     inkscape:zoom="0.755"
     inkscape:cx="284.10596"
     inkscape:cy="150.33113"
     inkscape:window-width="1680"
     inkscape:window-height="998"
     inkscape:window-x="-8"
     inkscape:window-y="-8"
     inkscape:window-maximized="1"
     inkscape:current-layer="svg1"
     showguides="true">
    <sodipodi:guide
       position="295.18691,953.99166"
       orientation="0,-1"
       id="guide1"
       inkscape:locked="false" />
    <sodipodi:guide
       position="0,0"
       orientation="0,-1"
       id="guide2"
       inkscape:locked="false" />
    <sodipodi:guide
       position="39.072847,547.68212"
       orientation="-0.62088336,0.78390297"
       id="guide3"
       inkscape:locked="false" />
    <sodipodi:guide
       position="-150.99338,547.01987"
       orientation="1,0"
       id="guide4"
       inkscape:locked="false" />
    <sodipodi:guide
       position="592.7869,986.2464"
       orientation="0.78390296,0.62088336"
       id="guide6"
       inkscape:label=""
       inkscape:locked="false"
       inkscape:color="rgb(0,134,229)" />
  </sodipodi:namedview>
  <path
     id="path1"
     style="fill:#000000;stroke:none;stroke-width:1"
     d="m 196.7501,267.78792 c 2.81169,8.37398 5.43575,16.49674 7.87228,24.36961 13.54817,46.84615 24.51309,102.66711 24.51309,172.46922 l -47.94921,242.67697 c -17.61361,103.07235 -30.98678,167.65531 -40.11978,193.74954 -9.78534,26.0943 -20.54978,40.9347 -32.29221,44.52267 -11.742399,3.58793 -31.638269,11.57987 -59.689633,23.9746 -19.570675,3.91424 -31.150708,10.11103 -34.738675,18.59164 -3.587968,8.48053 4.403895,12.39453 23.974605,11.74229 24.789549,0 43.218154,-1.46734 55.28674,-4.4029 12.068583,-2.93569 27.724623,-2.28388 46.969143,1.95643 19.24452,4.24041 28.86752,-2.12038 28.86752,-19.08168 2.60945,-31.96548 15.16702,-70.61769 37.67332,-115.95645 22.5063,-45.33882 32.78102,-79.09755 30.82396,-101.27766 -1.95709,-22.18007 5.21921,-40.11896 21.52814,-53.81848 h 73.39021 c 15.0042,103.07234 24.1375,169.28638 27.39928,198.64247 1.30469,24.78948 -2.77318,41.42311 -12.23233,49.90377 -9.45919,8.48083 -27.88775,14.02599 -55.28673,16.63521 -16.96124,9.133 -25.76869,16.14728 -26.42107,21.03997 -0.65235,4.89263 4.89282,7.01166 16.63521,6.35932 11.74244,0 26.09501,-0.3259 43.05628,-0.97821 16.96128,-0.6523 37.34687,-0.6523 61.15788,0 23.81103,0.65235 31.80289,-6.84977 23.97461,-22.50636 -7.82828,-47.62196 -8.64383,-94.26608 -2.44646,-139.93106 6.1974,-45.66497 2.11954,-88.71901 -12.23233,-129.16511 l -22.50636,-148.7387 c 10.43772,-38.48904 9.29629,-73.87895 -3.42467,-106.17059 -12.72092,-32.29165 -4.07736,-93.12444 25.93103,-182.4973 50.23147,9.78534 108.38173,0.1305 160.9878,-2.65142 11.62011,-29.46253 4.40198,-82.7259 -6.90712,-149.65356 28.29093,-62.023881 32.00078,-77.610265 20.49402,-112.405072 -6.52849,-3.5640987 -11.178,-4.0336443 -13.94838,-1.4067633 -2.77042,2.6268964 -3.11459,6.3337323 -1.03412,11.1199533 6.00495,30.994438 -1.83875,45.807452 -16.51037,62.659673 -2.78253,-8.037697 -2.16374,-16.841882 1.85582,-26.413617 4.01956,-9.571783 2.8567,-15.113 -3.4899,-16.622169 -14.95853,22.862561 -19.43564,43.659132 -13.42854,62.387636 6.00698,18.728569 6.61622,41.403849 1.82787,68.025869 -4.78833,26.622 -2.10824,43.83142 -0.88878,65.1844 -29.76091,-6.24898 -63.00576,-6.42628 -107.95,-1.79247 -25.25049,-9.35552 -44.84972,-10.72271 -62.10629,-7.35802 -16.30893,0.65234 -25.93194,-2.93579 -28.86753,-10.76407 -2.93563,-7.82827 -5.0546,-16.63573 -6.35932,-26.42107 12.39481,-5.21887 24.13679,-14.678 35.22685,-28.3775 18.4428,-22.78237 28.85972,-88.209516 -19.08168,-103.235948 -21.85395,-6.849747 -45.33799,-7.991175 -70.4537,-3.424677 -25.11574,4.566497 -41.58918,25.441809 -49.41746,62.626135 -5.87121,7.82827 -12.39392,18.91855 -19.56985,33.27042 -3.26178,8.48063 -2.9359,13.21022 0.97822,14.18875 3.91415,0.97854 6.85057,2.44766 8.80764,4.40475 -8.75475,5.25285 0.33423,8.40024 1.95642,8.80578 0.55789,0.0568 -0.50484,0.75391 -1.95587,2.44675 -1.95709,2.28323 -1.46924,4.07824 1.46639,5.38297 2.93559,1.30472 4.56673,5.21873 4.89292,11.74229 0.32616,6.52356 3.09873,10.10987 8.31761,10.76221 5.21883,0.65237 13.37458,0.65237 24.46464,0 l 3.91286,14.67878 c -4.74172,0.35123 -9.41186,0.821 -14.01174,1.40863 -16.72844,-2.83955 -35.73504,-1.20957 -59.93,7.75489 z M 290.41633,61.837728 c 8.88836,0.244632 18.63193,1.589483 29.23273,4.035827 47.92485,11.059609 38.06617,62.398015 14.67879,88.067125 -13.3733,14.67803 -22.34462,19.08175 -26.91111,13.21054 -5.21888,-6.52357 -2.11856,-15.81887 9.29768,-27.88746 21.90304,-23.15468 10.04914,-58.267597 -30.82396,-35.71689 -7.17594,-6.523559 -22.83379,-11.089272 -46.971,-13.698709 3.91416,-13.047152 13.04745,-21.528737 27.39929,-25.442857 7.17592,-1.957078 15.20922,-2.812209 24.09758,-2.567576 z m -57.368,38.774502 c 20.22304,0 36.85852,4.56575 49.90563,13.69871 -0.65234,7.17594 2.12024,7.17594 8.31761,0 12.48318,-14.454133 31.40031,-8.58821 22.50635,11.25225 -4.24031,9.45914 -9.78547,17.451 -16.63522,23.9746 -6.84974,6.52355 -8.15501,13.04816 -3.91471,19.57172 4.24031,6.52356 7.01289,12.06871 8.31761,16.63521 3.91416,38.48904 18.91844,57.73321 45.0127,57.73321 26.09427,0 30.98773,23.80987 14.67879,71.43191 -16.3089,47.62204 -22.17992,89.37266 -17.61342,125.25227 l -91.98185,20.54992 c -2.60944,-75.67336 -9.13399,-126.06755 -19.57171,-151.18329 -1.51557,-3.64686 -2.97929,-7.12871 -4.39171,-10.44545 -8.73851,-31.11825 -6.27181,-49.65244 7.39902,-55.6035 0.2999,-0.002 0.60278,-0.002 0.9074,-0.002 24.13721,0 34.90166,-9.62302 32.29222,-28.86754 -2.60945,-19.24452 -11.41686,-26.90868 -26.42107,-22.99452 -15.00418,3.91412 -21.20108,-0.32759 -18.59164,-12.72237 8.48062,-5.87122 11.25324,-9.94721 8.31761,-12.23045 -2.93559,-2.28322 -8.31876,-3.42469 -16.14704,-3.42469 0.65238,-4.56649 -2.9358,-8.15462 -10.76408,-10.76406 6.52356,-16.30893 13.04817,-28.05282 19.57172,-35.22872 7.17591,-3.26178 14.5142,-3.26178 22.01631,0 7.5021,3.26178 15.16809,5.22067 22.9964,5.87301 l -0.97821,-4.89293 c -4.5665,-0.65234 -10.76523,-2.60936 -18.5935,-5.87114 -7.82828,-3.26178 -15.33042,-3.58948 -22.50636,-0.98008 2.60944,-4.5665 4.56642,-8.1528 5.87115,-10.76221 z m 72.82563,9.33309 c -12.41879,0.13808 -24.46663,18.422 -19.9835,25.89376 -8.04032,2.68011 -9.77899,12.189 -2.44646,14.18875 7.91047,2.15739 23.39281,-16.55388 26.90924,-25.93103 3.70783,-9.8876 0.45123,-14.20626 -4.47928,-14.15148 z m -2.00301,6.44502 c 1.54934,0.0815 2.2425,1.18155 2.07941,3.3017 -0.78623,10.22152 -9.67617,18.29287 -13.21054,20.05989 -2.60941,1.30472 -2.60941,0.1633 0,-3.42467 2.60961,-3.58794 2.44555,-4.72936 -0.49004,-3.42468 -2.93563,1.30472 -3.58733,0.001 -1.95642,-3.91285 5.29509,-12.70845 12.83237,-12.63861 13.57759,-12.59939 z m -67.27497,2.2471 c -3.18023,-0.0306 -5.99425,0.81042 -8.44059,2.52286 l -6.84935,5.87114 v 4.89293 l 3.91472,-0.97822 c 9.133,4.5665 19.24386,4.24067 30.33391,-0.97821 l 10.76408,1.95643 v -4.89293 l -10.76408,-0.97822 c -7.33899,-4.89269 -13.6583,-7.36481 -18.95869,-7.41578 z m -2.56944,3.50107 c -1.95707,2.60944 -1.62933,5.22003 0.98007,7.82943 -2.6094,-1.30472 -4.89415,-2.28416 -6.85122,-2.9365 0.65235,-1.95706 2.60937,-3.58821 5.87115,-4.89293 z m 7.82943,0.98008 9.78585,4.89106 c -3.91415,1.30472 -7.17641,1.95829 -9.78585,1.95829 1.9571,-1.95706 1.9571,-4.23992 0,-6.84935 z m 43.05442,17.61342 c 3.91415,1.95706 4.72971,3.75019 2.44646,5.3811 -2.28325,1.63088 -3.75051,1.63088 -4.40289,0 -0.65234,-1.63091 -6.4e-4,-3.42404 1.95643,-5.3811 z m -70.9512,25.05157 c 2.24338,0.0522 5.15873,0.33287 11.26157,1.0779 3.23774,0.39527 4.23932,0.61558 2.93463,1.26795 l -14.67691,0.98008 c -2.3322,-1.16608 -2.09819,-3.38592 0.48071,-3.32593 z m 14.1962,3.32593 c -1.23368,2.46731 -6.64058,5.10267 -10.7622,5.87114 -2.74022,0.51091 -4.77469,-0.12009 -1.95829,-2.93651 z M 346.5583,463.64854 c 18.91834,24.78955 19.89779,56.42744 2.93651,94.91648 l 22.50635,127.21055 H 210.54197 l 40.11978,-198.64246 z"
     sodipodi:nodetypes="cccccscscsscsscccscscsscsccsccccsccsccscccscsssccsccsssscccccssscsccsscccssscssccsccssscscccsccscccscsssssccscssccccccccscccccccccsscssccscscccccccc" />
  <path
     d="m 223.79394,152.97536 c 0.57813,2.89034 -2.23901,5.82802 -5.87191,1.46844 -5.36224,-6.43456 -7.51552,-1.33233 -6.36015,0.97834 1.95731,-1.30488 3.91438,-0.81511 5.87191,1.46844 4.0935,4.77572 10.11953,1.82526 8.80693,-3.42512 -1.48352,-5.93402 -3.01617,-3.33736 -2.44678,-0.4901 z"
     style="fill:#000000;stroke:none;stroke-width:55.5908"
     id="path1-2"
     sodipodi:nodetypes="ccccsc" />
  <path
     d="m 25.60007,494.00697 c -2.483142,-0.0459 -5.560272,-1.07144 -9.232468,-3.07625 C 4.8608527,456.13592 8.5706569,440.54953 36.861632,378.52566 25.552549,311.59799 18.334337,258.33461 29.954516,228.87209 82.560519,226.09017 131.19469,217.39946 182.36277,223.90682 l 14.38733,43.8811 c -44.94431,4.63382 -105.004657,4.45651 -134.765541,-1.79247 1.219305,21.35307 3.897544,38.56249 -0.890821,65.18451 -4.788366,26.62201 -4.177269,49.2973 1.829724,68.02586 6.007089,18.7285 1.530037,39.52508 -13.428537,62.38764 -6.346613,-1.50917 -7.509435,-7.05039 -3.489891,-16.62217 4.019544,-9.57174 4.638409,-18.37592 1.855809,-26.41362 -14.671983,16.85241 -22.515637,31.66543 -16.510743,62.65986 2.080559,4.78622 1.736278,8.49306 -1.034111,11.11996 -1.212045,1.14926 -2.784565,1.70521 -4.715919,1.66948 z"
     style="fill:#000000;stroke:none;stroke-width:1"
     id="path1-9"
     sodipodi:nodetypes="sccccccsccsccss" />
  <path
     id="use4"
     style="fill:none;stroke:#000000;stroke-width:1px;stroke-linecap:butt;stroke-linejoin:miter;stroke-opacity:1"
     d="m -150.99338,295.95462 c -78.22473,78.22473 -78.22425,148.42455 0,226.6488 78.22425,-78.22425 78.22473,-148.42407 0,-226.6488 z"
     sodipodi:nodetypes="ccc" />
  <path
     id="path5"
     style="fill:none;stroke:#613583;stroke-width:20;stroke-linecap:butt;stroke-linejoin:miter;stroke-dasharray:none;stroke-opacity:1"
     d="M 125.5072,383.85835 C 25.900257,372.29936 -23.980291,411.80738 -35.539196,511.4137 64.067134,522.9726 113.94823,483.46526 125.5072,383.85835 Z"
     sodipodi:nodetypes="ccc"
     inkscape:transform-center-x="-80.523198"
     inkscape:transform-center-y="-63.777663" />
  <path
     style="fill:none;stroke:#613583;stroke-width:30;stroke-linecap:butt;stroke-linejoin:miter;stroke-dasharray:none;stroke-opacity:1"
     d="M 119.76913,388.40311 643.68935,-26.563235"
     id="path6"
     sodipodi:nodetypes="cc" />
  <path
     style="fill:none;stroke:#813d9c;stroke-width:20;stroke-linecap:butt;stroke-linejoin:miter;stroke-dasharray:none;stroke-opacity:1"
     d="m 566.31131,-28.38056 61.70257,77.336865"
     id="path7"
     sodipodi:nodetypes="cc" />
</svg>
