<?xml version="1.0" encoding="UTF-8" standalone="no"?>
<svg
   width="2000"
   height="1000"
   version="1.1"
   id="svg1"
   sodipodi:docname="13606.svg"
   inkscape:version="1.4.2 (f4327f4, 2025-05-13)"
   xmlns:inkscape="http://www.inkscape.org/namespaces/inkscape"
   xmlns:sodipodi="http://sodipodi.sourceforge.net/DTD/sodipodi-0.dtd"
   xmlns="http://www.w3.org/2000/svg"
   xmlns:svg="http://www.w3.org/2000/svg">
  <defs
     id="defs1" />
  <sodipodi:namedview
     id="namedview1"
     pagecolor="#ffffff"
     bordercolor="#666666"
     borderopacity="1.0"
     inkscape:showpageshadow="2"
     inkscape:pageopacity="0.0"
     inkscape:pagecheckerboard="0"
     inkscape:deskcolor="#d1d1d1"
     inkscape:zoom="0.4675"
     inkscape:cx="1755.0802"
     inkscape:cy="520.85561"
     inkscape:window-width="1680"
     inkscape:window-height="998"
     inkscape:window-x="-8"
     inkscape:window-y="-8"
     inkscape:window-maximized="1"
     inkscape:current-layer="svg1"
     showguides="true">
    <sodipodi:guide
       position="1695.8065,22.49805"
       orientation="1,0"
       id="guide1"
       inkscape:locked="false" />
    <sodipodi:guide
       position="1129.6326,761.68164"
       orientation="0,-1"
       id="guide2"
       inkscape:locked="false" />
    <sodipodi:guide
       position="1068.4063,638.96643"
       orientation="0,-1"
       id="guide3"
       inkscape:locked="false" />
    <sodipodi:guide
       position="1532.3437,460.42581"
       orientation="0,-1"
       id="guide5"
       inkscape:locked="false" />
    <sodipodi:guide
       position="1778.8559,32.81808"
       orientation="1,0"
       id="guide4"
       inkscape:locked="false" />
  </sodipodi:namedview>
  <path
     style="fill:#ffa348;stroke:none;stroke-width:55.6024"
     d="m 1129.6326,238.31836 -16.0703,3.21289 v 77.13281 c 0,18.56892 -6.7839,33.56713 -20.3535,44.99414 -24.9965,-4.99932 -46.0645,-2.8567 -63.2051,6.42774 -24.2824,17.14053 -50.70781,25.71093 -79.27547,25.71094 -14.998,0 -22.498,4.64133 -22.498,13.92578 0,17.14056 7.5,25.3529 22.498,24.63867 l 74.99037,3.21484 c 27.8534,0 49.0993,7.32007 63.7402,21.96094 9.812,9.81206 19.012,26.70159 27.752,50.60937 3.6541,9.99563 6.7214,20.19558 9.6855,30.41211 5.9992,20.67737 20.9473,78.2343 20.9473,118.77344 0,25.71077 -2.4989,47.49293 -7.4981,65.34766 -4.9994,17.85471 -13.5696,42.49369 -25.7109,73.91797 -9.9985,10.71282 -15.354,23.56846 -16.0684,38.5664 -34.281,89.27369 -53.9225,132.48186 -58.9218,129.625 l -10.7129,1.07227 c -13.5696,4.2852 -20.3536,11.07103 -20.3536,20.35547 -0.7142,4.99921 9.2847,8.92636 29.9961,11.7832 h 14.9981 c 3.571,0 10.7129,-3.571 21.4258,-10.71289 5.7134,-20.71143 23.5666,-63.2054 53.5625,-127.48242 12.8554,-13.56952 19.2832,-30.35231 19.2832,-50.34961 15.7122,-45.70807 32.1388,-78.91937 49.2793,-99.63086 8.5702,-2.14253 14.2837,-13.21172 17.1406,-33.20899 12.1412,2.85674 25.175,14.82012 39.1016,35.88868 13.9266,21.06854 22.3189,49.10046 25.1757,84.0957 -4.2852,13.56959 -3.2148,24.63869 3.2129,33.20898 7.8561,5.71347 16.0704,49.63588 24.6407,131.76758 -19.2832,4.28512 -28.9258,12.49941 -28.9258,24.64063 0,7.85605 2.8586,11.7832 8.5722,11.7832 34.281,-0.71416 51.42,-5.71361 51.42,-14.99805 l -31.0664,-261.39257 c 4.2851,-13.56957 -0.3582,-31.06845 -13.9278,-52.49415 62.1344,-7.85604 115.6996,-23.21042 160.6934,-46.06445 -1.4284,40.70873 1.0704,86.7737 7.498,138.19531 -16.4263,68.56206 -32.1368,130.33953 -47.1347,185.33203 -4.2852,9.2846 -11.4272,14.64208 -21.4258,16.07032 -17.1406,3.57096 -25.711,13.56976 -25.711,29.99609 14.2839,5.71337 33.5672,6.42567 57.8497,2.14063 l 64.2753,-189.61719 c 12.8553,-14.28379 18.5689,-29.63812 17.1407,-46.06445 l 42.8515,-101.77149 c 3.571,12.85541 14.284,39.99506 32.1387,81.41797 17.8549,41.42291 34.6376,70.70322 50.3496,87.84375 7.8561,0 15.7124,34.99583 23.5684,104.98633 1.4284,14.99794 -1.4285,27.13936 -8.5703,36.42383 -7.1419,9.28444 -7.1419,18.92514 0,28.92382 h 32.1386 c 9.9987,-4.28516 15.8922,-11.42714 17.6778,-21.42578 1.7852,-9.99866 0.5351,-23.56653 -3.75,-40.70703 -6.4278,-22.85406 -12.1415,-59.63639 -17.1407,-110.34375 -17.1404,-25.71077 -25.7109,-66.41829 -25.7109,-122.125 4.9993,-45.70806 -4.6433,-86.41751 -28.9258,-122.12695 v -1.07031 c 45.7081,-32.13847 62.8488,-63.02717 51.4219,-92.66602 -11.427,-29.63893 -28.3878,-44.63717 -50.8848,-44.99414 -22.4956,-0.35708 -33.5666,4.64229 -33.2109,14.99805 0.3573,10.35571 9.4638,15.5332 27.3183,15.5332 17.8549,0 27.8536,9.46269 29.9961,28.38867 2.1426,18.926 -11.7852,38.3875 -41.7812,58.38477 -21.4257,-20.71147 -62.1333,-26.24703 -122.125,-16.60547 -59.9919,9.64156 -104.2722,13.03452 -132.8399,10.17773 -28.5675,-2.85676 -54.2788,-11.96334 -77.1328,-27.31836 -22.854,-15.35506 -44.4581,-36.24495 -64.8125,-62.66992 -2.1282,-2.763 -2.1197,-2.50445 -4.0879,-5.04101 l -1.8027,-2.45703 -0.125,0.0801 c -15.3165,-19.66266 -28.2515,-35.95466 -33.0859,-40.78906 8.5702,-15.71217 12.8554,-29.9962 12.8554,-42.85156 0,-35.70945 -16.7828,-80.70216 -50.3496,-134.98047 z m -1.0722,33.20898 c 22.1398,42.13711 33.2109,76.41875 33.2109,102.84375 0,14.99794 -6.0718,29.63807 -18.2129,43.92188 9.7037,6.46911 23.5106,22.60767 41.418,48.41406 l -50.9746,32.67383 c -6.7735,-17.46717 -16.6215,-34.31947 -29.5449,-50.55664 -13.9266,-17.49764 -48.0283,-26.60221 -102.3067,-27.31641 v -0.002 c -38.56617,0 -58.20757,-2.1426 -58.92197,-6.42774 v -3.21289 c 24.2824,0 48.56536,-4.9994 72.84777,-14.99804 20.7115,-14.99794 39.2807,-22.4961 55.707,-22.4961 7.8561,0 16.0684,1.42842 24.6387,4.28516 21.4256,-11.42702 32.1387,-31.42464 32.1387,-59.99219 v -18.21289 z m 0,28.92383 c 9.9986,27.85339 14.998,49.2794 14.998,64.27735 0,14.28374 -4.6413,26.42515 -13.9258,36.42382 l 6.4278,5.35743 c 22.1398,-15.71215 21.7818,-51.78029 -1.0723,-108.20118 z m -69.0645,79.66016 c -9.4853,0.27897 -16.4601,2.65155 -20.9238,7.11523 l 3.2148,4.28516 c 6.4276,-4.99931 14.4619,-7.1419 24.1035,-6.42774 9.6418,0.71419 16.2476,1.07032 19.8184,1.07032 h 10.7129 v -4.28516 h -17.1406 c -7.499,-1.33911 -14.094,-1.9252 -19.7852,-1.75781 z m -2.7109,8.18555 c -8.5702,-10e-6 -14.2838,4.28518 -17.1406,12.85546 0.7142,6.42767 6.4278,9.2845 17.1406,8.57032 10.7128,-2.14255 23.9244,-6.78389 39.6367,-13.92578 0,-4.99932 -13.2117,-7.5 -39.6367,-7.5 z m 28.9238,5.35742 c -21.4257,8.57028 -33.5651,10.71286 -36.4219,6.42773 v -0.002 c 0.7142,-4.28502 4.6413,-6.2476 11.7832,-5.89063 7.1419,0.35722 15.3542,0.17903 24.6387,-0.53515 z m 111.5918,90.90429 c 18.8306,26.19179 38.947,46.95596 60.3496,62.28907 23.9253,17.14056 53.3857,26.78128 88.3809,28.92382 34.9953,2.14254 66.7763,-0.17811 95.3437,-6.96289 28.5676,-6.78356 54.8149,-9.99843 78.7403,-9.64257 23.9253,0.35707 45.7073,7.14294 65.3476,20.35546 19.6401,13.21248 32.852,30.88751 39.6367,53.02735 6.7848,22.13985 10.5358,52.49436 11.25,91.06055 0.7142,38.56616 4.9995,65.70387 12.8555,81.41601 10.7129,16.42638 17.1406,38.03046 19.2832,64.8125 2.1426,26.78204 7.142,56.24231 14.9981,88.38086 1.4283,16.42633 -7.5001,24.64063 -26.7833,24.64063 7.8563,-14.99795 11.4272,-30.35423 10.7129,-46.06641 -7.142,-75.70401 -15.3543,-115.6973 -24.6386,-119.98242 -20.7116,-22.85404 -49.6377,-81.77464 -86.7754,-176.76172 -24.2824,-24.28242 -48.2071,-36.42383 -71.7754,-36.42383 -22.1398,0 -43.3858,5.89165 -63.7402,17.67578 -20.3544,11.7841 -66.9556,23.03327 -139.8028,33.7461 -13.5694,-17.85473 -15.356,-30.71035 -5.3574,-38.56641 l -8.5703,-6.42774 c -8.5703,7.14189 -12.8555,13.92585 -12.8555,20.35352 0,7.85605 7.1421,21.2478 21.4258,40.17383 14.2838,18.926 19.9974,35.17455 17.1406,48.74414 9.2845,62.13436 19.9975,149.97913 32.1387,263.53516 0.7141,3.57079 -11.0692,5.35546 -35.3516,5.35546 v -3.21289 l 29.9961,-8.57031 c -9.2844,-97.12957 -18.2128,-148.90824 -26.7832,-155.33594 1.4285,-64.99118 -16.0684,-114.98521 -52.4922,-149.98047 -44.2796,-27.85335 -66.4199,-46.77871 -66.4199,-56.77734 l -10.7129,3.21289 c 7.856,18.56894 19.2833,32.85292 34.2813,42.85156 4.2852,6.4277 2.1426,18.56915 -6.4278,36.42383 -17.1406,16.42634 -35.3517,52.49251 -54.6347,108.19922 -4.2851,27.1392 -9.2845,40.70899 -14.9981,40.70899 l -49.2793,110.34179 c -8.5702,22.1397 -18.5691,33.56694 -29.9961,34.28125 -13.5696,-2.14254 -20.3535,-4.28519 -20.3535,-6.42773 0,-2.14254 2.4987,-3.92722 7.4981,-5.35547 l 13.9277,4.28516 c 10.7127,-11.42703 17.4967,-20.35547 20.3535,-26.78321 33.5669,-72.84723 50.3496,-112.4844 50.3496,-118.91211 31.4242,-77.13235 48.2091,-130.87356 50.3516,-161.22656 2.1426,-30.35303 -0.3582,-61.95593 -7.5,-94.80859 -4.5199,-20.79131 -8.9669,-38.79438 -13.3438,-54.00782 z m 270.8574,134.06446 c 29.996,0 52.8504,8.57037 68.5625,25.71093 -29.996,72.13304 -44.6381,112.48445 -43.9238,121.05469 0.7142,8.57024 -1.9626,15.53419 -8.0332,20.89063 -6.0705,5.35643 -28.0327,70.5268 -65.8848,195.50976 -0.7141,5.71348 -9.6406,8.57032 -26.7812,8.57032 l -13.9278,-1.07227 v -4.28516 c 7.1419,-2.85666 14.642,-5.17732 22.4981,-6.96289 7.8562,-1.78565 13.9259,-4.46438 18.2109,-8.03515 36.4238,-122.12624 54.2787,-191.4018 53.5645,-207.82813 -4.2852,-49.99323 -5.7134,-97.84467 -4.2852,-143.55273 z"
     id="path3"
     sodipodi:nodetypes="ccsccssccsssssccccccscccccscccscccccccccccccsccsccscccccsscsscssssccccssccscccscccccscscccsccccsccsscccsscccssccssscssccssscscccccsscccsscccccccccccccccsccccssccccssccccsccc" />
  <path
     style="fill:#000000;stroke:none;stroke-width:55.6024"
     d="M 607.25,0.09179687 C 597.54151,0.35961703 587.59906,1.2063884 577.42188,2.6347656 536.71311,8.3482745 507.789,39.773113 490.64844,96.908203 c -10.7128,12.855367 -22.14001,30.352347 -34.28125,52.492187 -7.14186,14.28379 -7.67802,22.32001 -1.60742,24.10547 6.07062,1.78547 11.24805,4.82035 15.5332,9.10547 -4.28515,2.85678 -6.06966,5.71358 -5.35547,8.57031 0.71416,2.85677 3.21289,4.64128 7.49805,5.35547 2.14254,-0.71419 1.25027,0.53615 -2.67774,3.75 -3.92804,3.21385 -3.57192,6.24873 1.07031,9.10547 4.64221,2.85678 6.96485,10.35689 6.96485,22.49804 0,12.85542 7.14199,18.92511 21.42578,18.21094 14.99794,0.71417 26.06709,-2e-5 33.20898,-2.14258 l 5.35547,34.28125 c -36.08755,0 -65.15001,2.4734 -87.18945,7.41993 l -96,-194.894535 -27.85156,12.855465 94.92773,191.88477 c -5.48834,2.82533 -9.99289,5.9968 -13.51172,9.51562 -118.5553,46.42226 -193.54443,97.84473 -224.96875,154.26563 24.24938,37.41329 109.66168,50.63028 256.23828,39.65039 11.12302,31.18118 33.55311,105.80894 67.28907,223.88477 L 321.38477,557.56055 c -27.13916,-24.99661 -51.42198,-37.4961 -72.84766,-37.4961 -58.56345,0.71418 -84.27471,24.997 -77.13281,72.84766 l 31.06836,254.96484 C 158.19297,859.304 137.48116,893.22754 140.33789,949.64844 108.87633,961.77909 90.566803,970.1203 71.711658,974.82422 55.048409,978.98131 43.50199,982.14528 38.502674,1000 l 853.876236,0 c -18.56888,-35.70945 -44.63623,-49.99347 -78.20313,-42.85156 -33.56686,7.14185 -56.42129,-7.85638 -68.5625,-44.99414 -12.14117,-37.13782 -32.13881,-44.63597 -59.99219,-22.4961 26.42496,-52.13578 27.49531,-107.12924 3.21289,-164.97851 1.42839,-123.55462 18.92729,-230.32474 52.49414,-320.3125 14.2838,29.99594 42.49376,74.98865 84.63086,134.98047 -4.28512,52.13574 -6.42773,121.05517 -6.42773,206.75781 -12.14115,17.85475 -19.63926,35.35171 -22.49609,52.49219 -27.13906,0.7142 -41.06695,34.63968 -41.78125,101.77343 h 23.56836 c 1.42838,-46.42214 6.78583,-69.99076 16.07031,-70.70507 v 7.49804 c 2.14254,24.2812 6.96196,36.24453 14.46094,35.88867 7.499,-0.35711 12.32033,-8.39136 14.46289,-24.10351 46.29352,3.42914 53.6602,-20.6847 53.56445,-31.06836 -0.19098,-20.71059 -1.78469,-48.20719 -5.35547,-82.48828 13.56974,-78.56074 19.99556,-145.33757 19.28125,-200.33008 -24.99661,-77.13235 -65.70406,-149.26471 -122.125,-216.39844 -24.28237,-29.2817 -61.77699,-43.92383 -112.48437,-43.92383 L 655.625,222.24805 c 19.99723,-7.14191 38.74459,-21.60396 56.24219,-43.38672 17.49768,-21.78272 26.24609,-51.59915 26.24609,-89.451174 0,-37.851982 -16.60463,-63.207132 -49.81445,-76.0625 C 663.39152,3.7061029 636.37548,-0.71166359 607.25,0.09179687 Z m 6.72852,19.95117213 c 14.90868,0.892741 31.29178,3.660497 49.14648,8.302734 35.70944,9.284439 53.5625,30.354364 53.5625,63.207031 0,32.852666 -11.96141,60.884556 -35.88672,84.095706 -23.92531,23.21112 -39.45966,29.45892 -46.60156,18.74609 -7.14189,-9.99863 -1.07019,-24.81684 18.21289,-44.45703 19.2831,-19.64018 24.10245,-38.56749 14.46094,-56.779297 C 657.23146,74.946369 636.34161,73.339907 604.20312,88.337891 592.77615,76.910872 566.7088,67.984342 526,61.556641 c 7.85609,-19.997301 23.74658,-32.852898 47.67188,-38.566407 11.96267,-2.856754 25.39795,-3.840007 40.30664,-2.947265 z m -97.6211,59.724609 c 32.85268,2.142542 59.63621,10.712952 80.34766,25.710942 -0.7142,12.14118 4.46327,12.49733 15.5332,1.07031 11.06991,-11.427019 21.78292,-14.63998 32.13867,-9.640627 10.35574,4.999317 11.78416,15.176227 4.28516,30.531247 -7.49899,15.35506 -17.31973,28.38874 -29.46094,39.10157 -12.14116,10.71282 -14.998,21.24776 -8.57031,31.60351 6.42767,10.35576 11.07097,19.46231 13.92773,27.31836 -0.71418,57.13509 3.92715,86.23732 13.92579,87.30859 9.99862,1.07131 29.46009,1.96355 58.38476,2.67774 28.92462,0.71417 29.81694,38.21071 2.67774,112.48633 -27.13912,74.27561 -42.13542,173.9037 -44.99219,298.88672 l -100.70117,22.49804 c -39.7108,-128.3801 -66.78476,-212.11558 -81.22071,-251.20508 15.90274,-2.91422 30.51863,-5.23459 43.84766,-6.96093 l 60.94141,123.18359 25.71093,-14.99805 -56.16992,-114.0332 c 10.46309,-4.93836 17.0454,-13.3508 19.74609,-25.23437 l -5.35742,-47.13477 c 14.28376,-7.85605 19.28314,-16.78453 14.99805,-26.7832 -28.02711,5.01979 -50.66374,12.00137 -67.91016,20.9414 l -42.05468,-85.37695 c 9.31402,-4.69695 22.57978,-6.96554 39.79687,-6.80469 38.20895,0.35712 57.67045,-12.32044 58.38477,-38.03125 0,-31.42427 -13.39175,-45.5283 -40.17383,-42.31445 -26.78204,3.21385 -38.02922,-5.5346 -33.74414,-26.24609 16.42633,-8.57025 22.31798,-14.82 17.67578,-18.74805 -4.64223,-3.92803 -13.39072,-6.60679 -26.2461,-8.03516 0.71419,-6.42769 -5.35749,-12.1413 -18.21289,-17.14062 12.14121,-27.13918 23.9265,-46.06452 35.35352,-56.77735 11.42701,-6.4277 23.38842,-6.60577 35.88672,-0.53515 12.49828,6.07059 25.17589,10.17578 38.03125,12.31836 v -7.49805 c -8.57023,-0.71419 -18.92718,-4.64326 -31.06836,-11.78516 -12.14122,-7.141893 -24.99682,-8.21224 -38.56641,-3.212887 4.99932,-7.141896 9.28451,-12.855504 12.85547,-17.140625 z M 636.3418,100.21484 c -2.27648,-0.15065 -4.95522,0.17505 -8.03516,0.97852 -8.21317,2.14259 -15.53323,8.2123 -21.96094,18.21094 -6.42762,9.99862 -8.21231,17.49872 -5.35547,22.49804 -6.42771,2.85678 -10.35677,6.78389 -11.78515,11.78321 -1.42834,4.9993 0.71427,8.75034 6.42773,11.25 5.71351,2.49965 14.10595,-1.42942 25.17578,-11.78516 11.07006,-10.35571 18.39017,-19.81838 21.96094,-28.38867 3.57079,-8.57025 4.10693,-15.17613 1.60742,-19.81836 -1.56228,-2.9014 -4.24103,-4.47743 -8.03515,-4.72852 z m -118.37305,8.23828 c -4.42183,0.0697 -8.53009,1.22129 -12.32422,3.45313 l -11.7832,10.71289 v 8.57031 l 5.35742,-1.07226 c 15.71215,7.85605 32.85106,7.85605 51.41992,0 l 18.21289,4.28515 v -9.64062 l -17.14062,-1.07227 c -12.76613,-10.31109 -24.01416,-15.38977 -33.74219,-15.23633 z m 112.94141,3.03516 c 3.9336,-0.1674 5.56603,1.75613 4.89648,5.77344 -1.07127,6.42771 -4.28614,12.8555 -9.64258,19.2832 -5.35643,6.42771 -10.35584,10.71293 -14.99804,12.85547 -4.64224,2.14258 -4.64224,0.17996 0,-5.89062 4.6422,-6.07064 4.6422,-8.21321 0,-6.42774 -4.64243,1.7855 -5.53459,-0.17906 -2.67774,-5.89258 2.85678,-5.7135 7.14193,-11.42712 12.85547,-17.14062 4.01729,-1.60693 7.20624,-2.46011 9.56641,-2.56055 z m -115.62305,4.70313 c -2.85673,3.57096 -2.85673,7.49807 0,11.7832 -4.28509,-1.42839 -7.85612,-3.21293 -10.71289,-5.35547 0.71419,-2.85677 4.28522,-4.99935 10.71289,-6.42773 z m 13.92578,1.07031 14.99805,9.64258 c -5.71352,1.42838 -11.42713,2.14258 -17.14063,2.14258 4.28516,-2.85678 4.99936,-6.78584 2.14258,-11.78516 z m 69.63477,33.21094 c 5.71332,2.85677 6.96381,5.71358 3.75,8.57031 -3.21377,2.85689 -5.71442,2.6787 -7.5,-0.53516 -1.78566,-3.21384 -0.53517,-5.89257 3.75,-8.03515 z m -102.01172,11.19922 c -0.0973,-10e-4 -0.19645,0.0154 -0.29688,0.0488 -1.07131,0.35712 -1.60547,1.7855 -1.60547,4.28516 0,2.49965 -0.89422,4.10611 -2.67968,4.82031 -1.78546,0.7142 -3.92806,-0.53419 -6.42774,-3.74805 -2.49965,-3.21384 -4.82031,-4.82226 -6.96289,-4.82226 -1.42838,0 -2.49869,0.53615 -3.21289,1.60742 -0.71416,1.07131 -0.71416,2.67777 0,4.82031 2.14258,-2.14254 4.99934,-1.24832 8.57031,2.67969 3.57094,3.92803 7.14197,4.99835 10.71289,3.21289 3.57094,-1.78546 4.99932,-4.46419 4.28516,-8.03515 -0.64723,-3.23606 -1.44231,-4.85894 -2.38281,-4.86914 z m -17.63867,25.66015 c 0.8481,-0.0223 1.80957,0.0103 2.88085,0.0996 4.28513,0.35711 9.10451,0.89322 14.46094,1.60742 5.35639,0.71418 7.32097,1.42842 5.89258,2.14258 H 476.7207 c -2.14254,0 -2.85676,-0.71424 -2.14258,-2.14258 0.53562,-1.07129 2.07484,-1.64006 4.61915,-1.70703 z m 22.16211,7.0625 c -1.42836,1.42839 -4.10516,3.03485 -8.03321,4.82031 -3.92804,1.78546 -7.32099,2.67969 -10.17773,2.67969 -2.85677,0 -4.64128,-0.35808 -5.35547,-1.07226 -0.71419,-0.7142 0,-1.78454 2.14258,-3.21289 z m -51.40626,162.28125 33.71876,68.15625 c -1.32526,1.36271 -2.56961,2.75348 -3.73633,4.17383 -7.85668,7.64993 -16.16347,13.66879 -24.91797,18.05664 -3.20174,-20.60536 -4.89014,-50.73381 -5.06446,-90.38672 z m -42.27734,29.00195 c 5.87986,0.0725 9.25457,3.44595 10.125,10.11915 1.50526,23.70802 3.75367,43.64723 6.7461,59.82031 -13.20764,1.09146 -27.24128,-0.81466 -42.09961,-5.72071 -27.7799,-9.17259 -56.90628,-12.28652 -87.37891,-9.34179 24.70216,-6.39224 48.29492,-17.74042 70.77539,-34.04492 19.29425,-13.99364 33.23839,-20.93804 41.83203,-20.83204 z M 245.32422,586.48438 h 46.06445 l 205.6875,175.6914 -231.39844,68.56055 C 277.10475,697.18303 270.3208,615.76607 245.32422,586.48438 Z M 659.91016,752.5332 c 15.71214,60.70604 6.07141,113.55687 -28.92383,158.55078 -51.42159,29.99586 -114.27126,34.45917 -188.54688,13.39063 C 368.16387,903.40604 297.81604,907.86934 231.39648,937.86523 237.82419,914.297 292.81765,875.37398 396.375,821.0957 Z"
     id="path1"
     sodipodi:nodetypes="ssccscscsssccccccccccccccccsccssccccccccccccscccccsssssssscssccssccssssscsssccccccccccccccscscccsccsccssscsscssssccccccccsssssssscsccccccccccscscssssscsssssssscsssscssscccccccsccscsscccccccsccc" />
  <path
     style="fill:none;stroke:#613583;stroke-width:24;stroke-linecap:butt;stroke-linejoin:miter;stroke-dasharray:none;stroke-opacity:1"
     d="M 853.01719,809.99267 C 916.79378,901.68569 993.94402,912.7971 1084.6085,507.435"
     id="path4"
     sodipodi:nodetypes="cc" />
  <path
     style="fill:none;stroke:#613583;stroke-width:30;stroke-linecap:butt;stroke-linejoin:miter;stroke-dasharray:none;stroke-opacity:1"
     d="m 1147.1391,463.81455 -59.5894,48.70066"
     id="path5"
     sodipodi:nodetypes="cc" />
  <path
     style="fill:#000000;stroke:none;stroke-width:1"
     d="m 1033.3354,257.74661 c 15.7801,16.38724 27.9198,43.69934 36.4191,81.93632 3.033,24.27739 9.4051,41.87845 19.1164,52.80317 85.9749,91.82318 122.1213,135.01456 214.1,135.01456 39.1477,0 80.4196,-3.18636 123.8156,-9.5591 43.3957,-6.37302 106.3655,3.79313 188.9092,30.49846 13.9592,-7.28325 20.9389,-19.42195 20.9389,-36.41608 -1.8296,-12.13884 -6.6853,-18.20825 -14.5669,-18.20825 -10.926,-2.42709 -18.2087,1.51798 -21.8478,11.83524 8.4961,13.95958 5.7645,23.36715 -8.1947,28.22275 -15.7803,-3.64177 -21.5463,-16.69095 -17.2983,-39.14761 1.2291,-20.02873 13.9748,-31.56052 38.2373,-34.59534 29.7396,-0.60608 48.2515,10.92572 55.5354,34.59534 2.4301,26.70531 -3.6405,53.71397 -18.2115,81.02592 8.4989,38.23699 7.284,111.67622 -3.645,220.31771 0,10.92472 11.5323,30.34666 34.5966,58.26583 0,28.5258 4.8555,66.45916 14.5668,113.8001 -6.6782,18.81518 -12.7472,29.43661 -18.2074,31.86434 h -46.4319 c -8.4963,0 -12.2898,-4.2486 -11.3808,-12.74568 0.915,-8.49737 12.9017,-13.95973 35.9604,-16.38711 3.036,-65.54922 -11.9854,-107.42781 -45.064,-125.63579 -33.0786,-18.20798 -54.7765,-49.16171 -65.0938,-92.86119 -24.2765,40.66464 -37.0222,74.95654 -38.2372,102.87569 -36.4148,43.09228 -62.2093,87.09507 -77.3835,132.0084 l -12.7444,3.6406 v 9.10508 h -65.5484 c -3.642,-1.21504 -5.463,-6.981 -5.463,-17.29799 0,-10.3178 15.4759,-17.90437 46.4276,-22.75966 4.8568,0 12.7469,-9.25579 23.6702,-27.76737 10.9264,-18.51156 25.4931,-51.7413 43.7006,-99.68917 -9.1024,-109.2484 -2.7288,-177.83217 19.1208,-205.75135 h -1.844 c -19.4225,0 -55.2312,13.0492 -107.4263,39.14764 -52.1979,26.09814 -92.5593,37.32631 -121.0839,33.68454 15.7805,84.97102 39.4509,176.61824 71.0115,274.94163 v 20.02901 c -1.2293,3.64178 -4.8713,5.46272 -10.9261,5.46272 h -58.2672 c -7.2812,-18.81523 3.0374,-31.2574 30.956,-37.32654 -20.6373,-70.40452 -34.748,-110.31057 -42.3324,-119.71817 -7.5872,-9.40759 -13.5047,-26.09828 -17.7529,-50.07207 -4.2508,-23.9741 -22.1567,-56.90036 -53.7174,-98.7788 -36.4147,107.42767 -62.5123,199.37834 -78.2927,275.85199 -6.069,12.13884 -13.0488,18.20827 -20.939,18.20827 0,7.89018 -13.3531,11.83532 -40.0596,11.83532 h -37.32384 c -1.2293,-20.636 15.15694,-35.2025 49.15914,-43.69955 26.1005,-37.63008 46.1302,-115.01425 60.0896,-232.15253 l 1.801,-27.31238 c 3.5256,-53.46696 -1.6622,-148.3304 -30.654,-188.72813 -13.3533,-19.42178 -28.6775,-29.28449 -45.973,-29.58807 -17.2983,-0.30304 -32.01664,-3.0343 -44.15504,-8.19376 -12.1382,-5.15891 -39.7538,-7.13147 -82.84657,-5.91764 -13.95932,-18.20796 -20.33291,-38.23682 -19.12078,-60.08657 17.60136,-5.46221 44.91385,-11.53149 81.93765,-18.20785 6.6752,-2.42706 12.4413,-7.28252 17.2984,-14.56633 5.463,-3.64177 13.6562,-6.67649 24.57954,-9.10413 4.857,-37.63005 6.981,-70.70811 6.3722,-99.23419 8.499,7.89018 14.8725,15.78046 19.1207,23.67091 1.2007,-9.7112 2.7172,-19.42223 4.5497,-29.13314 z m 5.463,30.04305 c -1.8296,26.70535 -1.8296,50.07239 0,70.10109 -4.2481,12.74576 -7.2827,12.13828 -9.1038,-1.82246 -1.8296,-13.95957 -4.5611,-28.82953 -8.1946,-44.60986 h -0.9005 l -3.6449,60.08701 c -0.6003,4.24841 -10.0084,9.4073 -28.22454,15.47675 -9.1022,13.35265 -18.2059,19.42192 -27.3111,18.20781 -18.2073,5.4625 -38.8433,10.01464 -61.90771,13.65641 l 3.64497,7.28295 c 43.09274,2.42708 45.21674,6.37217 6.37207,11.83524 v 0.90909 l 5.46311,6.37302 c 35.80866,-1.82103 58.72026,-0.45596 68.73456,4.09516 10.0171,4.55201 29.89534,5.91705 59.63504,4.09516 11.3165,2.64074 25.2123,14.07387 41.6875,34.29942 44.568,54.71367 43.0887,180.64708 39.0388,242.73803 9.7113,-16.38723 21.2421,-40.66463 34.5924,-72.83218 10.9261,-1.21498 24.7339,9.86156 41.4234,33.22959 16.6922,23.36715 27.4653,34.74728 32.3195,34.14035 0,-9.71115 -0.6003,-20.93949 -1.801,-33.68496 -4.2509,-12.13884 0.3002,-18.20826 13.6534,-18.20826 43.699,0 88.1568,-11.22831 133.3736,-33.68497 45.217,-22.45636 77.8395,-33.68455 97.8682,-33.68455 40.6657,0 64.7922,13.35252 72.3792,40.05756 7.5871,26.70505 14.7183,57.65878 21.3936,92.86118 6.675,35.20212 24.5795,58.56914 53.7131,70.10106 10.3172,-91.04043 12.1382,-156.28605 5.463,-195.73684 -5.463,-29.73962 -22.7601,-46.73377 -51.8907,-50.98247 -48.556,-15.1734 -85.2765,-22.7601 -110.162,-22.7601 -83.1497,6.67634 -135.7794,10.3142 -177.6894,11.10366 -63.0296,1.18728 -144.954,-47.88651 -228.9605,-161.59492 z m -41.87794,99.23423 c 8.49624,0.60605 25.18714,4.85458 50.07254,12.7456 -27.3126,10.92473 -44.7624,14.8698 -52.34954,11.83524 -7.5872,-3.03458 -11.3807,-6.67618 -11.3807,-10.92484 4.857,-8.49708 9.4096,-13.04909 13.6577,-13.656 z m 504.06334,246.08357 c -16.9952,40.05771 -22.1539,104.39282 -15.4757,193.00531 h 0.9004 c 0,-11.53165 17.2984,-48.2512 51.895,-110.15865 0.6004,-32.16755 -11.8425,-59.7831 -37.3282,-82.84666 z"
     id="path1-1"
     sodipodi:nodetypes="cccsccccccccccccccsccsccccccsccccsccccscccccccscccscccccccccccccccccccccccccccscccccsssssccccsccccscccccccc" />
</svg>
