<?xml version="1.0" encoding="UTF-8" standalone="no"?>
<svg
   width="2500"
   height="800"
   id="svg2214"
   sodipodi:version="0.32"
   inkscape:version="1.4.3 (0d15f75, 2025-12-25)"
   sodipodi:docname="13610.svg"
   inkscape:output_extension="org.inkscape.output.svg.inkscape"
   sodipodi:modified="true"
   version="1.0"
   xmlns:inkscape="http://www.inkscape.org/namespaces/inkscape"
   xmlns:sodipodi="http://sodipodi.sourceforge.net/DTD/sodipodi-0.dtd"
   xmlns="http://www.w3.org/2000/svg"
   xmlns:svg="http://www.w3.org/2000/svg"
   xmlns:rdf="http://www.w3.org/1999/02/22-rdf-syntax-ns#"
   xmlns:cc="http://creativecommons.org/ns#"
   xmlns:dc="http://purl.org/dc/elements/1.1/">
  <metadata
     id="metadata2221">
    <rdf:RDF>
      <cc:Work
         rdf:about="">
        <dc:format>image/svg+xml</dc:format>
        <dc:type
           rdf:resource="http://purl.org/dc/dcmitype/StillImage" />
      </cc:Work>
    </rdf:RDF>
  </metadata>
  <defs
     id="defs2219">
    <inkscape:perspective
       sodipodi:type="inkscape:persp3d"
       inkscape:vp_x="0 : 790.93233 : 1"
       inkscape:vp_y="0 : 1000 : 0"
       inkscape:vp_z="32.375343 : 790.93233 : 1"
       inkscape:persp3d-origin="16.187672 : 787.93337 : 1"
       id="perspective2446" />
  </defs>
  <sodipodi:namedview
     inkscape:window-height="998"
     inkscape:window-width="1680"
     inkscape:pageshadow="2"
     inkscape:pageopacity="0.0"
     guidetolerance="10.0"
     gridtolerance="10.0"
     objecttolerance="10.0"
     borderopacity="1.0"
     bordercolor="#666666"
     pagecolor="#ffffff"
     id="base"
     inkscape:zoom="0.27375"
     inkscape:cx="1996.347"
     inkscape:cy="725.11415"
     inkscape:window-x="-8"
     inkscape:window-y="-8"
     inkscape:current-layer="svg2214"
     showguides="true"
     inkscape:guide-bbox="true"
     showgrid="false"
     inkscape:showpageshadow="2"
     inkscape:pagecheckerboard="0"
     inkscape:deskcolor="#d1d1d1"
     inkscape:window-maximized="1">
    <sodipodi:guide
       position="0,-0.00071800975"
       orientation="0,-1"
       id="guide7"
       inkscape:locked="false" />
    <sodipodi:guide
       position="1968.8704,-0.040582898"
       orientation="1,0"
       id="guide8"
       inkscape:locked="false" />
    <sodipodi:guide
       position="900.9886,503.51418"
       orientation="0,-1"
       id="guide9"
       inkscape:locked="false" />
    <sodipodi:guide
       position="1499.4011,92.49694"
       orientation="-0.92442215,0.3813708"
       id="guide10"
       inkscape:locked="false" />
  </sodipodi:namedview>
  <path
     style="fill:none;stroke:#613583;stroke-width:22;stroke-linecap:butt;stroke-linejoin:miter;stroke-dasharray:none;stroke-opacity:1"
     d="M 900.9886,294.87324 930.8788,86.052348 c 4.39236,-36.710835 29.71744,-67.452475 63.34045,-75.343307"
     id="path1-94"
     sodipodi:nodetypes="ccc" />
  <path
     style="fill:#1a5fb4;stroke:#000000;stroke-width:1px;stroke-linecap:butt;stroke-linejoin:miter;stroke-opacity:1"
     d="m 1631.0502,461.64384 14.6522,19.84389 31.6949,-24.18179 -13.242,-14.84019 z"
     id="path10" />
  <path
     style="fill:#1a5fb4;stroke:#000000;stroke-width:1px;stroke-linecap:butt;stroke-linejoin:miter;stroke-opacity:1"
     d="m 1574.9053,432.51611 6.1941,12.0804 31.8289,-12.27719 -7.9055,-16.33758 z"
     id="path11" />
  <path
     id="use2"
     style="fill:#000000;stroke:none;stroke-width:0.999998"
     d="m 271.99587,133.91092 v 12.74299 c 0,19.41382 -4.23777,35.42704 -11.5835,47.4951 -7.29757,15.81134 -25.99071,29.9176 -56.13841,42.53354 -41.6785,-22.42603 -62.60837,-52.80517 -61.75535,-91.18975 -3.14721,-7.34574 -6.22785,-10.73173 -10.42565,-8.10829 -8.39518,6.29629 -12.74298,18.48625 -12.74298,34.75212 0,15.74095 5.94257,35.84112 18.53556,60.23972 3.20902,6.2174 7.29437,12.07281 12.22584,17.59072 -4.4315,3.71109 -10.30234,3.39283 -18.28511,-0.21303 -8.13272,-3.6736 -13.06985,-3.04007 -16.21819,1.15623 C 52.643923,227.82321 20.724658,192.71601 21.774092,145.4928 18.62688,138.14706 15.54625,134.76107 11.348455,137.38451 c -8.3951805,6.29629 -12.7429862,18.48625 -12.7429862,34.75212 0,15.74095 5.9425729,35.84112 18.5355492,60.23972 12.592984,24.3986 38.677739,43.22923 76.456293,57.92075 -1.575467,9.96916 -1.945808,18.55471 -1.156234,24.32648 0.785885,5.77175 -3.188826,24.86613 -11.585127,57.92236 -9.96919,7.87064 -15.05871,16.5659 -15.05871,25.48599 0,9.44463 2.1208,15.38557 5.792562,18.53391 0,8.39519 17.716411,12.74299 54.445528,12.74299 8.39519,-0.52268 15.60443,-5.7241 20.85128,-16.2182 6.8212,8.92011 15.36275,14.22771 26.64383,17.37607 11.28107,3.14721 19.49575,9.35336 23.16862,18.53554 3.67363,9.18219 11.73513,18.88159 24.32811,27.8017 0,37.25404 17.71642,74.06442 54.44554,112.3679 v 11.58513 c -11.54354,20.98819 -19.2333,33.76745 -23.16863,38.22733 -3.93531,4.45986 -6.16344,11.67072 -6.95042,20.85289 -0.7859,9.1822 -9.85344,25.15143 -26.64383,49.81247 -14.6915,6.82123 -22.01077,19.75418 -22.01077,37.06946 l -16.21657,4.63308 c -8.92008,7.87065 -17.72535,23.99354 -26.64546,48.6546 h 72.98271 l 13.90084,-26.64384 c 0,-6.82122 3.23283,-9.15774 9.26779,-8.10828 6.03423,1.04907 8.63281,-4.04174 8.10828,-15.06034 -0.52268,-11.01863 11.03208,-30.85473 33.59426,-60.2381 12.59297,-5.77175 19.38731,-14.46733 22.01075,-25.48596 2.62453,-11.01861 15.55677,-23.53584 37.06949,-38.22734 13.11749,-14.16698 25.63435,-22.86254 38.22733,-25.48597 l 3.94518,5.91777 c -9.73664,17.48844 -16.34433,28.28554 -19.89506,32.30956 -3.93532,4.45986 -6.16345,11.67072 -6.95043,20.85289 -0.78589,9.1822 -9.85343,25.15143 -26.64383,49.81247 -14.69148,6.82123 -22.01076,19.75418 -22.01076,37.06946 l -16.21657,4.63308 c -8.92009,7.87065 -17.72536,23.99354 -26.64546,48.6546 h 72.9827 l 13.90086,-26.64384 c 0,-6.82122 3.23282,-9.15774 9.26777,-8.10828 6.03424,1.04907 8.63281,-4.04174 8.10828,-15.06034 -0.52267,-11.01863 11.03209,-30.85473 33.59426,-60.2381 8.68242,-3.97942 14.60976,-9.34856 18.31275,-15.91084 1.19867,1.41952 2.3414,2.47533 3.42968,3.16785 l 13.90086,69.50587 c -14.69186,13.64244 -25.50517,31.14164 -31.27692,52.12982 h 69.50587 v -28.96119 c 18.36438,-0.52267 24.83021,-11.33979 18.53393,-31.27853 -14.69151,-27.80937 -23.38546,-54.96276 -25.48435,-82.24723 l 2.31572,-19.69342 c -2.59846,-4.54738 -4.90196,-9.15067 -6.95205,-13.79026 11.9592,-12.18381 23.45851,-19.71235 35.02207,-22.12134 l 23.16864,34.75211 c 8.9201,24.13615 16.23898,38.03131 22.01074,41.70417 l 13.90085,69.50587 c -14.69186,13.64244 -25.50515,31.14164 -31.27691,52.12982 h 69.50587 v -28.96119 c 18.36439,-0.52267 24.83022,-11.33979 18.53392,-31.27853 -14.69151,-27.80937 -23.38544,-54.96276 -25.48434,-82.24723 l 2.31573,-19.69342 c -8.39523,-14.69186 -13.70319,-29.96297 -17.37607,-45.17938 76.91829,10.32345 158.74942,-10.63154 214.12966,-28.9124 l 0.18051,11.53634 4.63308,61.39595 c -5.77181,23.08671 -14.09483,44.78006 -24.32649,66.03066 -10.23164,21.25063 -23.01255,40.17178 -38.22896,53.2893 -8.92011,0 -18.68392,14.74496 -31.27691,45.17776 h 70.66373 l 4.63471,-22.00914 13.90084,1.15624 h 10.42563 c 7.3458,-28.33392 19.86423,-63.85763 38.229,-104.25962 13.64239,-5.24723 21.0776,-11.19332 20.85122,-18.53555 l 16.12068,-74.8626 c 19.38763,17.24556 42.7129,42.00944 58.01828,58.64604 13.6424,12.59296 19.69338,37.62829 19.69338,76.45628 v 5.79094 l -2.31735,26.64546 c 0,5.24688 -11.88381,21.37012 -37.0694,48.6546 v 2.31572 h 81.09098 v -18.53392 c 12.0681,0 18.5339,-5.19956 18.5339,-16.2182 v -3.47359 l -23.16865,-89.19927 10.42725,-68.34801 8.1083,28.96118 c 0.6005,26.77474 8.4322,43.02974 4.1014,75.39275 3.6587,23.42294 19.4896,43.45561 28.9286,43.45561 5.7718,0 3.971,-1.03705 14.4651,-9.95566 l 1.1579,-63.71494 v -13.90084 c 0,-17.31529 -2.2294,-35.44784 -6.9521,-53.28767 -16.2661,-49.84664 -24.3264,-81.45823 -24.3264,-96.14972 V 413.05973 c 55.7182,39.41975 162.2581,119.06719 319.6512,238.96841 l -43.9191,74.73738 c -11.8114,18.49149 -56.4979,29.27823 -134.0599,32.35997 -16.4279,-1.02706 -23.3627,3.85268 -20.8041,14.63914 1.5408,18.49038 33.9001,27.22122 97.0783,26.19501 h 275.8329 c 14.3809,-8.21841 20.0314,-22.60074 16.9499,-43.14662 -6.6773,-17.46417 -15.6662,-29.27762 -26.9657,-35.44163 l 82.049,-197.12794 c 5.1366,-14.89582 14.5097,-25.29668 28.1204,-31.20374 13.5995,-5.90704 19.6358,-12.97112 18.1062,-21.18952 -0.5117,-9.24603 -10.6566,-8.47429 -30.433,2.31246 -19.7764,10.78648 -32.4894,24.14019 -38.1378,40.06334 l -79.7365,193.27707 -33.1308,-23.11496 80.1282,-194.93062 c 5.1368,-14.89582 14.5098,-25.29668 28.1206,-31.20373 13.6023,-5.90677 19.639,-13.22665 18.1095,-21.95871 -0.5145,-9.24574 -10.6598,-8.47563 -30.4362,2.31084 -19.7737,10.78675 -32.4869,24.39895 -38.1379,40.83578 l -78.5883,193.38896 v 0.002 L 1035.0659,379.0703 c -1.2333,-24.70171 -4.2984,-42.87469 -8.6644,-55.17894 -12.593,-29.38337 -34.76561,-44.0199 -68.34642,-44.0199 l -22.01073,1.15623 -72.98104,-3.47358 c -32.53173,1.04905 -52.25904,3.16987 -59.08027,5.79256 -53.51949,12.06807 -91.59694,18.53554 -114.68363,18.53554 l -9.26778,1.15624 h -1.15623 l -2.31735,-1.15624 -42.86203,1.15624 -37.06949,-3.47358 C 559.37288,282.77448 526.4934,274.07889 498.15948,274.07889 464.5787,256.23906 441.13781,247.43506 427.49575,247.43506 h -37.07109 v -4.63308 l -9.26615,3.47359 c 24.13612,-27.80939 35.91161,-52.62785 35.91161,-74.14057 -4.19965,-25.70679 -9.18179,-38.22408 -13.9041,-38.22408 h -10.42564 v 12.74299 c 0,19.41382 -4.23776,35.42704 -11.58349,47.4951 -9.44431,20.46255 -37.97291,38.07001 -85.71757,53.28605 h -0.013 c -8.76852,-1.9927 -15.67985,-1.8907 -20.44958,0 h -5.29658 v -4.63308 l -9.26615,3.47359 c 24.1361,-27.80939 35.91159,-52.62785 35.91159,-74.14057 -4.19965,-25.70679 -9.18179,-38.22408 -13.90411,-38.22408 z m 103.36845,125.11089 c -4.19775,26.75994 -10.99214,40.02013 -22.01076,40.54469 -11.01861,0.52637 -21.19894,1.04906 -30.11905,0 -5.77177,0 -10.11955,2.22772 -12.74299,6.95042 l -5.79256,-9.26777 5.79256,-2.31573 c 1.0491,-10.49406 22.37194,-22.79409 64.8728,-35.91161 z m -212.26276,3.46871 0.002,0.005 c 7.34574,5.24684 11.0606,14.05086 11.58512,26.64384 l -4.6347,3.47359 9.26778,13.90085 v 0.002 c 5.24669,6.82046 11.60459,9.46366 17.37606,5.79094 4.02604,-2.56249 9.39279,-3.65299 16.09623,-3.3695 0.0329,2.10861 0.16327,4.01543 0.39192,5.68686 0.78589,5.77175 -3.18882,24.86612 -11.58513,57.92236 -9.96919,7.87064 -15.0587,16.56589 -15.0587,25.48598 0,9.44464 2.1208,15.38558 5.79256,18.53392 0,8.39518 17.71641,12.74298 54.44553,12.74298 8.39518,-0.52268 15.60442,-5.7241 20.85126,-16.21819 6.82122,8.9201 15.36276,14.22771 26.64385,17.37606 11.28107,3.14721 19.49575,9.35337 23.16862,18.53554 3.67362,9.1822 11.73513,18.88159 24.3281,27.80171 0,35.82147 16.38122,71.23307 50.29383,107.95598 l -12.33481,0.93508 c -32.53202,7.87041 -65.30273,3.41419 -97.30951,-13.90112 -30.43286,-34.10586 -45.17779,-69.21306 -45.17779,-105.41763 L 210.59831,444.366 c 0,-12.59296 -13.89316,-22.77328 -41.70254,-30.11904 -3.14722,0 -10.46724,-10.28874 -22.01076,-31.27691 h -6.95043 c -1.04907,23.08706 -9.00165,33.79192 -23.16862,30.11904 l -6.95042,-4.63306 -11.583496,2.31571 c -11.018641,0 -16.218202,-5.19959 -16.218202,-16.21819 l 10.425633,-9.26615 1.156243,4.63307 -5.792562,8.10829 v 6.95205 l 2.317347,2.31573 12.742997,-2.31573 h 2.31734 l 2.31572,-9.26777 v -8.10991 l -12.742985,-4.63308 c 9.444635,-37.77857 14.010895,-65.56688 15.060335,-83.40673 19.93873,-5.77177 39.66641,-5.66311 59.08023,1.15625 v -4.63308 c -18.36473,-7.87065 -35.231,-9.46544 -50.97194,-5.79256 4.19777,-5.77176 7.80385,-14.46734 10.42726,-25.48596 11.54354,3.67361 23.20857,2.928 34.75213,-2.31736 z m 16.21981,44.02477 c -18.88929,-4.19779 -39.46836,-5.04941 -62.55544,-3.47358 1.04909,8.39518 3.16988,14.70862 5.79256,19.69341 2.62455,4.98475 7.34208,11.45187 13.90085,18.53555 6.55877,7.08329 9.26778,15.51515 9.26778,25.48434 h 3.47358 c 1.04908,-12.59298 -5.52645,-25.10982 -19.6934,-38.22733 14.16695,0 30.92316,-7.84379 49.81245,-22.01076 z m 104.5247,-44.02477 0.003,0.005 c 7.34574,5.24684 11.0606,14.05086 11.58513,26.64384 l -4.63471,3.47359 9.26777,13.90085 v 0.002 c 5.2467,6.82046 11.6046,9.46366 17.37606,5.79094 5.77176,-3.67361 14.2049,-4.41623 25.48598,-2.31734 11.28108,2.09815 19.93106,-0.54533 27.8017,-5.79257 7.87066,-5.24685 13.48635,-14.90263 15.06034,-30.11905 1.04906,-7.34574 8.4771,-11.58349 23.16861,-11.58349 h 24.32649 c 35.67966,17.31528 56.04032,26.64383 60.2381,26.64383 l 44.02152,6.95042 c 30.95734,15.74095 67.96579,23.16863 108.89269,23.16863 h 9.26615 c 37.25364,0 63.77569,-0.96111 81.09099,-4.63471 60.34067,-13.11751 101.80371,-19.6934 122.79189,-19.6934 19.93875,2.09816 52.92665,2.31734 99.62497,2.31734 23.08655,0 39.09988,9.32855 47.49505,26.64384 l -11.58353,-12.74299 c -14.69137,-6.29629 -33.0429,-9.26779 -55.60498,-9.26776 -1.57549,0 -2.42442,4.34779 -3.47361,12.74297 0,2.62456 6.05115,3.58562 19.69346,4.63471 25.18559,0 38.22897,13.78475 38.22897,40.54468 v 25.64209 36.91336 c 0,26.75994 -11.66715,66.43177 -34.75378,120.47618 v 4.6347 c 32.89339,93.64497 -35.18002,29.78655 -69.50586,15.05872 l -34.75178,-24.32675 c -4.19773,-12.06806 -18.1994,-21.61544 -42.86039,-28.96119 l -4.6347,12.74298 c 8.39514,3.67361 14.8627,8.7624 18.53555,15.05872 -88.15012,31.48223 -170.02997,43.25735 -245.58708,35.9116 l -9.26777,-52.12818 v -13.90247 c 0,-8.92012 -6.46751,-16.34742 -18.53555,-23.16863 L 529.4381,451.31812 h -2.31735 l -11.58513,5.79094 v 4.6347 l 13.90085,22.00913 25.48597,26.64384 -2.31734,15.06034 c 2.66531,86.62505 -41.60307,30.00548 -94.99022,13.90084 -18.10229,-13.90448 -26.3814,-35.00852 -26.64384,-62.55543 -0.25948,-27.54694 7.05518,-50.02727 22.00914,-66.03067 14.95395,-16.00339 25.61517,-39.07305 32.43639,-69.50587 -0.5227,-3.67362 -5.72412,-4.63306 -16.21819,-4.63306 -6.29631,30.95735 -17.10996,53.284 -31.27691,67.18851 -14.16698,13.90449 -21.85671,30.39864 -23.16863,49.81246 -1.31226,19.4138 1.17865,39.99329 6.95043,62.55544 5.77176,22.56216 20.67074,38.0961 44.01989,45.17938 23.34915,7.08331 34.75375,14.88186 34.75375,24.32649 -32.5317,7.87068 -65.3024,3.41446 -97.3092,-13.90085 -30.43282,-34.10571 -45.17775,-69.2129 -45.17775,-105.41747 L 331.3445,444.36607 c 0,-12.59296 -13.89317,-22.77329 -41.70254,-30.11904 -3.14722,0 -10.46724,-10.28874 -22.01076,-31.27691 h -6.95044 c -1.04906,23.08706 -9.00165,33.79192 -23.16861,30.11904 l -6.95043,-4.63306 -11.58349,2.31571 c -11.01865,0 -16.21821,-5.19959 -16.21821,-16.21819 l 10.42564,-9.26615 1.15624,4.63307 -5.79256,8.10828 v 6.95206 l 2.31734,2.31573 12.743,-2.31573 h 2.31735 l 2.31571,-9.26777 v -8.10992 l -12.74298,-4.63307 c 9.44464,-37.77857 14.01089,-65.56689 15.06033,-83.40673 19.93873,-5.77177 39.66641,-5.66311 59.08023,1.15625 v -4.63309 c -18.36473,-7.87065 -35.23099,-9.46543 -50.97194,-5.79255 4.19778,-5.77176 7.80385,-14.46734 10.42727,-25.48597 11.54307,3.67347 23.20739,2.92745 34.75049,-2.31735 z m 85.72244,6.9553 c -6.82063,0.52288 -14.77121,2.12125 -23.16537,5.79256 -8.3952,3.67363 -17.30762,9.5054 -27.8017,17.37606 0.52269,1.57546 4.60862,2.31573 12.74136,2.31573 h 19.69341 c 4.72232,0 8.06592,-1.22266 10.42726,-4.63307 2.36136,-3.41045 4.10852,-6.27185 4.63308,-8.10829 0.52268,-1.83494 -0.95946,-0.72274 -4.63308,3.47358 -3.6736,4.19776 -9.65942,6.31546 -16.21819,5.79094 -6.55875,-0.52271 -7.41077,-3.27682 -3.47359,-6.95043 3.93494,-3.67326 13.1079,-8.23699 27.79682,-15.05708 z M 198.39846,283.5223 c 2.44317,1.13595 4.94752,2.25118 7.51146,3.34348 -2.57429,1.74203 -5.24654,3.6438 -8.053,5.74866 0.52269,1.57546 4.60863,2.31573 12.74136,2.31573 h 3.08493 c -0.22564,1.79368 -0.40761,3.5299 -0.54803,5.19899 -3.71774,-0.0178 -7.29222,-0.16834 -10.64518,-0.56266 -5.77177,0 -10.11955,2.22772 -12.74298,6.95042 l -5.79257,-9.26777 5.79257,-2.31573 c 0.3596,-3.59713 3.30574,-7.41888 8.65144,-11.41112 z m 71.9647,19.09172 c -10.39182,-0.54066 -21.30918,-0.36023 -32.85271,0.42769 1.04908,8.39518 3.16987,14.70862 5.79256,19.69341 2.62454,4.98475 7.34208,11.45187 13.90085,18.53555 6.55876,7.08329 9.26777,15.51515 9.26777,25.48434 h 3.47359 c 1.04907,-12.59298 -5.52647,-25.10982 -19.69342,-38.22733 14.16695,0 30.92317,-7.84379 49.81247,-22.01076 l 0.002,-0.002 c -9.44465,-2.09889 -19.31093,-3.36063 -29.70274,-3.90128 z m -140.85424,7.37649 19.69341,2.31734 v 2.31573 l -15.06033,4.63633 z m 120.74451,0 19.69341,2.31734 v 2.31573 l -15.06033,4.63633 z m 750.66377,169.13078 h 2.3157 c 1.0489,43.02542 3.389,83.33257 8.1099,121.63568 -15.2165,-9.44463 -25.72368,-26.31091 -33.59427,-50.97195 v -2.31573 z m 383.6799,188.31681 111.7207,77.04662 v 23.88577 l -139.4573,1.54003 c -11.3023,-4.62273 -15.9246,-13.86817 -13.8668,-27.73665 z"
     sodipodi:nodetypes="csccccsscscccsscccsccccccccsccccccccccccccsccccccccccccccccccccccccccccccccccsccccccccccsccccccscccccsccscsccccccccccccscccccccccccccccccccccccsccccscsccccccccsccccccccccccccccccsccccccccccccccccccccccccccccccccccccccccccccccccccccccscccssccsccsccscscccccccccsccccccccccsccscsscccccccccccccccccccccccccccccccsssccccccccscccccccccccccccccccccccccccccccccccccccc" />
  <path
     id="path1-948"
     style="fill:#000000;stroke:none;stroke-width:0.999994"
     d="m 1249.2897,0.10228248 c -9.7231,-0.40431752 -19.4994,0.39007467 -29.3321,2.38281062 -9.8326,1.9927265 -19.7217,5.1844291 -29.6639,9.5742099 -19.8847,8.779536 -29.1603,29.370658 -27.8301,61.771435 -3.2133,7.707695 -6.2821,18.249289 -9.2052,31.626922 -0.9177,7.69955 0.2426,11.71104 3.4845,12.03709 3.2417,0.32606 6.1493,1.0266 8.7187,2.09767 -5.2123,5.2493 -0.2744,6.96185 3.2618,6.06443 0.7772,1.15877 -5.4428,5.43145 1.2382,6.57617 2.702,0.46297 4.9056,3.49439 6.6132,9.0918 1.7077,5.59739 4.7554,7.98196 9.1407,7.15624 4.3853,-0.82569 11.0966,-2.67148 20.1328,-5.53905 l 6.5234,12.12889 c -13.4651,1.04959 -27.6922,8.71813 -43.08,22.56638 -5.8024,5.2218 -10.947,8.45348 -21.5508,15.39209 -31.6564,20.71449 -66.985,49.15283 -94.191,69.40807 -36.8141,-10.83444 -95.66301,-25.5632 -115.62137,-28.54752 -19.07994,-10.49273 -39.12034,-20.51033 -61.26995,-21.42396 -1.15824,5.94454 2.24951,11.36025 11.59091,14.17844 -6.40859,24.97479 -3.26361,37.5803 8.89798,37.98274 4.86185,0.16086 30.96476,-2.8796 33.32656,-3.72573 40.44329,16.89901 89.92277,29.82028 127.31027,37.28154 53.6671,-24.59974 89.273,-47.27351 122.3023,-68.96368 32.6598,33.63977 60.1464,55.47491 60.1464,115.04287 l -40.9179,207.09552 c -15.0311,87.96013 -26.4442,143.07518 -34.2383,165.3436 -8.3506,21.71167 -17.5358,34.09823 -27.5566,37.16013 -10.0209,3.06193 -27.0009,10.16075 -50.9394,21.29489 -16.7012,2.78356 -26.7223,7.93168 -30.0624,15.44727 -3.3403,7.51552 3.6188,10.71687 20.8768,9.60349 21.155,0 36.8826,-1.11286 47.1817,-3.33983 10.2992,-2.2269 23.6611,-1.67035 40.0839,1.66991 16.4231,3.34018 24.3555,-1.94749 23.7988,-15.86521 2.7835,-27.8355 13.7779,-60.96194 32.9844,-99.37492 19.2065,-38.41297 27.8353,-67.22116 25.8867,-86.42766 -1.9483,-19.20645 4.3146,-34.65472 18.7889,-46.34566 l 62.6289,0.83399 c 12.8045,87.40345 20.5993,143.63153 23.383,168.68344 1.1133,21.15498 -2.3672,35.35257 -10.4396,42.58981 -8.0722,7.2371 -24.077,11.9664 -48.0155,14.19335 -13.9178,7.79389 -21.2938,13.77971 -22.129,17.95507 -0.8351,4.17525 4.0376,6.26365 14.6153,6.26365 10.0207,0 22.2677,-0.41883 36.7421,-1.2539 14.4745,-0.83509 31.8716,-0.83509 52.1913,0 20.3201,0.83507 27.1396,-5.42606 20.459,-18.7871 -6.6806,-41.19652 -7.3765,-81.28019 -2.0879,-120.24989 5.2889,-38.96965 1.8103,-75.43515 -10.4374,-109.39443 l -19.209,-126.92959 c 8.9075,-32.84589 7.936,-63.04825 -2.9199,-90.60537 -1.4193,-29.98367 -16.553,-72.88683 -17.7109,-135.6913 l 0.5839,-0.2207 c 10.6352,29.37847 29.2359,54.86106 51.5508,88.21868 -0.8843,20.5114 1.9031,43.94366 12.4902,73.06634 10.5875,29.12273 11.9626,50.38915 4.123,63.79876 -7.8395,13.40963 -7.5339,31.14633 0.92,53.2148 6.1486,-0.0802 8.3464,-4.50625 6.5938,-13.27927 -1.7527,-8.77308 -1.0078,-16.40603 2.2342,-22.90037 8.951,14.66121 14.2003,28.0067 4.0451,54.99212 -4.4593,6.6456 -1.5082,13.96885 10.4336,11.50585 15.5537,-27.38487 15.633,-39.46829 2.0839,-100.96475 -0.9529,-57.5517 -6.1799,-96.02897 -12.1563,-118.10536 -7.2143,-24.72869 -22.4221,-69.46506 -47.8495,-124.39247 -10.0972,-21.81162 -27.7545,-30.69557 -49.8945,-29.67185 -31.9819,5.24442 -50.0107,4.93719 -54.082,-0.92188 -4.0715,-5.85903 -7.6733,-12.69931 -10.8066,-20.5195 9.1569,-6.91866 16.8859,-17.207522 23.1836,-30.867171 6.2974,-13.659628 6.5086,-29.795827 0.6366,-48.408157 -5.8801,-20.907658 -18.544,-31.76556195 -37.9901,-32.57418952 z M 1238.3033,14.520238 c 18.5643,-0.40346 30.4415,7.353297 35.6288,23.267557 4.7848,16.590838 3.1509,32.225714 -4.8983,46.90426 -8.0493,14.678521 -14.5782,20.067775 -19.5879,16.169905 -5.5493,-3.760935 -5.0382,-11.931264 1.5331,-24.511693 12.5402,-24.006846 -3.3123,-49.654247 -32.6913,-23.580063 -7.305,-3.889737 -21.2153,-4.380956 -41.7285,-1.472654 1.2916,-22.495555 24.1679,-30.930331 36.7422,-33.876924 7.3864,-1.730874 15.7198,-2.698677 25.0019,-2.900388 z m -0.9747,36.355438 c 5.4741,-0.0954 9.9226,4.990607 8.4493,15.16405 -1.252,8.6459 -4.0278,16.38483 -8.3243,23.218732 -4.2965,6.833896 -4.0387,12.369282 0.7697,16.605442 4.8084,4.23614 8.2998,8.37695 10.4745,12.41992 11.3171,31.01508 27.7674,43.78413 49.3516,38.3066 21.5841,-5.47751 25.5627,12.64601 25.8437,56.26949 0.2767,42.95603 11.869,79.22632 14.4179,110.65419 l -78.8728,17.40624 c -2.2269,-65.13506 -28.4911,-87.75427 -42.3282,-106.06826 -13.8373,-18.31399 -24.0411,-30.80061 -30.6133,-37.46091 -6.5722,-6.66031 0.1246,-12.52311 20.0898,-17.58982 19.4259,-4.92976 26.1725,-15.11558 20.2443,-30.55467 -5.9285,-15.43906 -14.6861,-19.96337 -26.2754,-13.57616 -11.5895,6.38721 -17.6736,3.91017 -18.2539,-7.42969 5.7823,-6.63663 7.255,-10.45638 4.4159,-11.45896 -2.8389,-1.00259 -7.5654,-0.9513 -14.1776,0.15234 -0.282,-3.37457 -3.9341,-5.3208 -10.9572,-5.83593 1.8357,-15.39916 4.4292,-26.683456 7.7794,-33.851537 5.2509,-4.204358 11.4552,-5.777442 18.6153,-4.722647 7.1598,1.054761 14.114,1.300365 20.8632,0.736323 l -2.0411,-4.652342 c -3.7773,0.958574 -9.2813,0.775767 -16.5097,-0.548824 -7.2284,-1.324579 -13.4677,0.115974 -18.7187,4.320312 0.5232,-4.727651 1.3215,-8.378015 2.3925,-10.947257 16.7278,-4.245077 31.4469,-3.958298 44.1562,0.857416 0.9667,6.072589 3.259,5.490461 6.879,-1.746087 3.1946,-6.386339 8.0724,-9.593763 12.3299,-9.667961 z m 0.1953,2.796872 c -1.456,0.02449 -3.1971,0.731748 -5.1504,1.984373 -7.8789,5.053316 -11.5307,19.337839 -8.117,24.029274 -2.2872,2.303503 -3.3581,4.872034 -3.2128,7.707027 0.1449,2.83494 1.8384,4.416148 5.0799,4.742179 3.2418,0.326074 6.7412,-2.859654 10.4981,-9.556629 3.7932,-7.338132 9.7096,-19.758396 3.75,-27.658178 -0.7539,-0.873165 -1.715,-1.267094 -2.8478,-1.248046 z m -1.5116,6.492179 c 3.7183,-0.181043 3.1236,7.24855 0.373,12.998038 -1.8763,3.922307 -3.5883,6.796691 -5.1347,8.624989 -1.5462,1.828319 -1.7858,0.882936 -0.7187,-2.833973 1.067,-3.716922 0.6579,-4.759767 -1.2266,-3.132817 -1.8845,1.626959 -2.6639,0.817855 -2.3379,-2.42382 0.8926,-8.873619 4.0836,-11.895751 8.2441,-13.091795 0.2868,-0.08252 0.5529,-0.128547 0.8008,-0.140622 z m -51.9004,15.242174 c -1.3184,0.0096 -2.5572,0.139295 -3.7167,0.388669 -2.7828,0.598484 -5.1083,1.885861 -6.9746,3.867187 l -3.625,6.089837 1.2323,4.857419 2.8282,-2.441406 c 8.6501,2.39969 17.014,0.275638 25.0918,-6.369128 l 9.1093,-1.447265 -1.0273,-4.048825 -8.9042,2.259757 c -5.3873,-2.132803 -10.058,-3.184368 -14.0138,-3.156245 z m 2.0645,3.605471 9.1211,1.992181 c -3.1006,1.36124 -5.9311,2.652642 -8.4921,3.876945 1.7474,-2.166574 1.5377,-4.121552 -0.629,-5.869126 z m -6.6796,0.832023 c -1.2082,2.029627 -0.7291,3.918398 1.4375,5.666014 -2.2953,0.0085 -4.3205,-0.05278 -6.0762,-0.181638 0.5314,-2.432283 2.0775,-4.260072 4.6387,-5.484376 z m 45.9921,4.69922 c 3.6483,0.797178 4.6654,1.974679 3.0509,3.533201 -1.6148,1.55847 -2.8623,1.729658 -3.7443,0.517578 -0.8819,-1.212058 -0.6514,-2.560735 0.6934,-4.050779 z m -47.1758,20.208965 c -0.056,5.3e-4 -0.1093,0.007 -0.1602,0.0215 -0.6536,0.18177 -0.9166,1.43347 -0.3905,2.38086 0.8896,1.60263 -0.3608,5.67345 -4.3398,2.86718 -3.7496,-4.1441 -6.0747,-0.19641 -4.1582,1.96484 0.7754,-1.34328 2.2071,-1.30124 4.2929,0.12695 4.3907,3.00624 8.4542,-0.74112 6.8027,-4.80272 -0.7747,-1.90543 -1.5121,-2.56379 -2.0469,-2.5586 z m 5.4766,13.31835 c 0.3364,0.023 0.3533,0.12 0.2989,0.23828 l -11.9336,3.89063 c -1.7906,0.4544 -3.1331,-1.78845 1.8104,-3.04297 2.2955,-0.008 4.845,-0.45806 7.6115,-0.87305 1.2213,-0.18321 1.8763,-0.23589 2.2128,-0.21289 z m 0.7109,1.85742 c -0.5571,2.5493 -4.772,5.32746 -8.4805,7.32225 -2.4757,0.54935 -2.2418,-1.09193 -1.6307,-3.03124 z m 158.3788,222.1248 c 8.5777,25.21667 13.9847,49.24983 0.066,81.53899 l 19.205,108.56046 h -137.7851 l 34.2384,-169.5194 z"
     sodipodi:nodetypes="sssccsccsssccssccccsccccccscscsscsscccscsssscsccccccsscscccccscscccsscscsccsssssscssccssssscscccsccscccsssccssccsssssssssssccccccccscccccccccsscscsccsssscccsscccccccccc" />
  <path
     id="path3"
     style="fill:#000000;stroke:none;stroke-width:0.999998"
     d="m 1808.4412,79.090464 c -1.6681,-2.472125 -1.5446,-6.464198 0.3707,-11.97622 1.93,-5.513704 4.6452,-9.355269 8.1457,-11.524697 3.4974,-2.168128 6.1556,-2.314883 7.9747,-0.440264 1.816,1.87531 2.515,5.123851 2.0972,9.745626 -0.418,4.621816 -2.6182,10.193651 -6.6005,16.715503 -3.9765,6.520887 -7.5706,9.560391 -10.7824,9.118512 -3.2116,-0.44196 -4.8372,-2.074951 -4.8771,-4.898971 -0.054,-2.819481 1.1628,-5.06396 3.6499,-6.733437 z m 5.9607,-15.728062 c -1.7055,2.633103 -2.7765,5.554323 -3.213,8.763658 -0.445,3.211461 0.302,4.042534 2.2406,2.493219 1.9388,-1.550263 2.1718,-0.467372 0.6992,3.248674 -1.4726,3.715691 -1.2396,4.798585 0.699,3.248685 1.9388,-1.550237 3.9101,-4.240508 5.9137,-8.070815 2.001,-3.829398 2.7606,-7.533394 2.2791,-11.111989 -0.4638,-3.582428 -3.3344,-3.102895 -8.6117,1.4386 z m -5.9011,19.964128 c -1.265,1.970238 -1.3555,3.547567 -0.2716,4.731986 1.113,1.176051 2.3308,0.913978 3.6536,-0.786217 1.323,-1.700221 0.1957,-3.015477 -3.382,-3.945769 z m -53.5477,3.874928 -0.8734,-4.058646 3.6497,-6.733395 c 5.1389,-5.071479 13.3388,-5.136594 24.5994,-0.195346 l 8.296,-0.937736 1.6657,3.888184 -9.2812,0.29765 c -8.8141,6.428567 -17.4191,8.56279 -25.8152,6.402672 z m 3.9996,-5.107277 c 1.731,0.19556 3.8004,0.600815 6.2079,1.215764 -2.0801,-1.818466 -2.8103,-3.927414 -2.1906,-6.326846 -2.5837,1.120988 -3.9171,2.823433 -3.9998,5.107334 z m 11.8953,-0.0081 c 2.7,-0.581005 5.5607,-1.763133 8.5822,-3.546383 l -8.996,-2.315338 c 2.0799,1.818491 2.2236,3.770415 0.4307,5.85577 z m -19.8216,26.358329 c -0.7612,-0.96926 -0.9358,-1.7807 -0.5238,-2.43433 0.4122,-0.65368 1.1027,-1.36879 2.0717,-2.14536 l 2.6367,2.40796 c 1.758,1.60538 3.0925,1.88463 4.0034,0.83809 0.9108,-1.04656 1.1178,-2.08288 0.6207,-3.10898 -0.5265,-1.01971 -0.408,-1.75298 0.3555,-2.19979 0.765,-0.44097 1.5119,0.39011 2.2407,2.49322 0.7595,2.10263 0.273,3.76518 -1.4597,4.98767 -1.7327,1.2234 -3.61,1.06088 -5.6322,-0.48755 -2.0219,-1.54851 -3.4593,-1.66447 -4.3123,-0.34786 z m 19.0306,131.86273 c -8.2179,24.99453 -19.5056,55.46494 -33.8632,91.41121 -34.9609,35.61779 -62.0943,63.52518 -95.1907,83.47833 -27.6159,26.83267 -52.7329,41.2861 -75.3509,43.36033 -2.5874,-5.37681 0.3492,-9.18199 8.8097,-11.41552 8.4518,-2.23143 15.7149,-7.71474 21.7893,-16.44997 -14.2903,2.06998 -25.2015,4.88435 -32.7336,8.44308 -7.5323,3.55873 -14.6499,9.17097 -21.3527,16.83675 -1.9939,3.46446 -4.5248,5.02142 -7.5929,4.67089 -3.0771,-0.34688 -5.3539,-3.24683 -6.8304,-8.69975 11.1552,-15.73609 22.6259,-26.77522 34.4119,-33.11743 12.8881,-6.41622 27.4276,-11.00053 43.6185,-13.75296 16.188,-2.75407 33.3488,-15.84049 51.4823,-39.25929 18.1306,-23.42041 32.4953,-39.44359 48.6914,-52.23037 9.4381,-45.65062 17.3394,-79.35763 23.7039,-101.12102 6.3618,-21.7625 14.0372,-35.45202 23.0261,-41.0686 8.9887,-5.6165 22.3964,-11.75911 40.2228,-18.42782 l -5.0424,-11.6607 c -9.7461,2.09728 -16.6769,3.45054 -20.7923,4.05979 -4.1184,0.6099 -7.0323,-1.73721 -8.7417,-7.04131 -1.6935,-5.3005 -3.7425,-8.25854 -6.147,-8.87414 -2.4047,-0.61559 -3.004,-2.04449 -1.7978,-4.2867 1.2062,-2.24317 1.2811,-3.25108 0.2246,-3.02374 -2.1716,0.46731 -3.6672,0.0814 -4.4866,-1.15779 -0.8485,-1.23292 -0.3619,-2.89551 1.46,-4.98775 -1.9634,-1.27552 -4.6612,-1.96926 -8.0935,-2.08121 -3.4238,-0.11381 -4.3267,-4.3098 -2.7089,-12.58801 3.5078,-12.651122 6.7284,-22.691285 9.6618,-30.120485 0.2799,-32.91657 10.4637,-53.377317 30.5515,-61.3822414 20.0876,-8.004871 39.8112,-11.1161599 59.1709,-9.33386617 19.3626,1.78133467 31.5859,13.17154457 36.6697,34.17063357 5.1636,18.716126 4.2306,34.778671 -2.7988,48.187635 -7.0293,13.408975 -14.951,23.327744 -23.7651,29.756304 45.9457,37.13196 68.2967,74.52582 67.0532,112.18162 -1.2437,37.65613 14.6976,75.99257 24.946,106.17531 10.2453,30.18304 10.9358,61.612 2.0713,94.28687 l 19.11,126.2697 c 11.629,34.33641 14.9521,70.88804 9.969,109.65487 -4.9861,38.76714 -4.4308,78.36489 1.666,118.79327 7.1983,13.29161 0.6903,19.6605 -19.5241,19.10667 -20.2145,-0.55534 -37.5217,-0.55534 -51.9216,0 -14.3969,0.55532 -26.5799,0.83298 -36.5492,0.83298 -10.5243,0.55235 -15.3707,-1.24754 -14.5393,-5.3997 0.8405,-4.15367 8.1786,-10.10726 22.014,-17.86076 23.8136,-2.21536 39.7356,-6.92272 47.7656,-14.12206 8.03,-7.19965 11.4911,-21.32188 10.3833,-42.36668 -2.7615,-24.92168 -10.7915,-81.13379 -24.0896,-168.63634 h -62.3052 c -13.8446,11.63009 -19.7973,26.86001 -17.8582,45.68973 1.9514,18.82941 -6.6324,47.48916 -25.7512,85.97924 -19.1067,38.49007 -30.0454,71.30364 -32.8162,98.4407 0.5402,14.399 -7.3517,19.79858 -23.6757,16.19874 -16.3361,-3.59981 -29.6268,-4.15366 -39.8721,-1.66153 -10.2454,2.49157 -26.1671,3.73735 -47.7653,3.73735 -16.6155,0.55531 -23.2615,-2.76745 -19.9385,-9.96829 3.3231,-7.19965 13.0146,-12.46084 29.0744,-15.78359 24.3691,-10.52269 41.5368,-17.44541 51.5028,-20.76816 9.9691,-3.32277 19.1083,-15.78362 27.4176,-37.38255 7.1984,-22.15248 18.2737,-76.97999 33.2258,-164.48252 l 46.5229,-206.84967 c -3.8784,-58.70426 -31.4267,-81.08775 -52.2933,-104.35541 z m 31.5233,292.92334 h 137.069 l -19.1052,-107.9938 c 13.8446,-32.67488 13.0191,-59.53485 -2.4767,-80.57995 l -76.43,24.92199 z m 1.9045,-481.110705 c 13.2964,-11.924963 23.6424,-13.867276 31.0377,-5.82694 7.3953,8.038873 7.5674,18.057017 0.5166,30.054433 -7.0477,11.996765 -7.8232,20.236185 -2.3265,24.718262 4.2973,4.17363 10.8196,-1.05369 19.567,-15.681981 8.7506,-14.629286 10.8367,-29.948674 6.2585,-45.958165 -4.1399,-16.670351 -15.5581,-24.976536 -34.2547,-24.918555 -18.6818,0.05453 -33.494,2.959459 -44.4363,8.714806 -10.94,5.752994 -17.199,14.181057 -18.7769,25.28419 21.041,-2.261738 35.1796,-1.055613 42.4155,3.618377 z m -36.2067,64.723895 -10.8467,4.88112 c -0.2952,1.19658 -0.2964,1.9046 0,2.12407 0.3504,0.20096 1.0538,0.18776 2.1103,-0.0396 2.1716,-0.46729 3.9508,-1.41668 5.3376,-2.84815 1.3813,-1.43027 2.4982,-2.80367 3.3509,-4.1202 z m -0.1744,-0.80998 c 0.4409,-0.6629 -0.7033,-0.7007 -3.4325,-0.11341 -2.7,0.58101 -5.1943,0.83374 -7.483,0.75817 -1.7307,-0.19562 -2.788,0.17009 -3.172,1.09712 -0.3535,0.92659 0.2769,1.21623 1.891,0.86889 z m 35.695,-55.2666 c -12.8866,-4.59139 -27.4501,-5.139703 -43.6905,-1.644937 -1.148,2.513147 -2.4032,5.89894 -3.7653,10.157379 5.9153,-4.103975 12.3062,-5.341039 19.1726,-3.711192 6.8653,1.63836 12.5219,2.262218 16.9699,1.871571 l 1.7098,3.878636 c -7.1564,0.975039 -14.1383,0.77793 -20.9458,-0.591325 -6.8095,-1.36571 -12.9004,-0.05501 -18.2726,3.932107 -3.7095,6.463117 -6.7567,17.315776 -9.142,32.557981 6.9635,0.76761 10.583,3.10443 10.8585,7.01047 6.4973,-1.39815 11.1678,-1.41141 14.0115,-0.0398 2.8438,1.37162 0.9415,5.03839 -5.7069,11.0003 0.7163,11.17568 6.9463,13.80036 18.6903,7.87406 11.7526,-5.92788 20.2954,-1.10983 25.6282,14.45418 5.3447,15.56117 -2.005,25.49839 -22.049,29.81166 -21.1149,4.54372 -21.5767,19.51356 -1.3853,44.90951 20.1944,25.395 51.0588,57.06038 56.5972,125.73349 l 72.2741,-23.26004 c -3.3229,-30.4598 -16.915,-63.96796 -15.727,-97.92986 1.188,-33.96194 -21.0942,-70.3793 -66.8466,-109.25211 -1.9015,-3.55615 -5.1927,-7.66305 -9.8734,-12.32069 -4.6836,-4.65703 -4.7628,-10.304878 -0.2376,-16.943541 4.5194,-6.637438 7.5587,-14.230962 9.118,-22.780573 1.5592,-8.549939 -0.6335,-13.459883 -6.5781,-14.729833 -5.9386,-1.270637 -10.6739,1.73116 -14.2056,9.005389 -3.5347,7.275139 -5.7289,7.60912 -6.5825,1.00194 z"
     sodipodi:nodetypes="ccccscsccccccssccccccscccccccccccccccccccccscssccccsccccccscsccccccccsccscscscccccsccscsccccccscccscccccccccccccccccccccccccccccccccccccsccccsccccccccccccccscccscccscccscccc" />
  <path
     style="fill:#000000;stroke:none;stroke-width:0.999998"
     d="m 1846.4801,205.03694 c -12.5274,53.15864 -29.505,110.91819 -50.9327,144.21951 -24.2583,39.94518 -52.4219,69.8714 -84.4905,89.77869 -24.9755,28.83678 -48.8923,45.42898 -71.7503,49.77656 -3.0061,-4.5546 -0.2934,-8.51254 8.1381,-11.87383 8.4254,-3.36118 15.2378,-9.68218 20.437,-18.963 -14.5701,3.53614 -25.2722,7.55439 -32.1063,12.0547 -6.8341,4.50003 -13.2138,10.88964 -19.1391,19.16881 -2.2721,3.1818 -4.9593,4.74969 -8.0616,4.70366 -3.096,-0.047 -5.3693,-2.75797 -6.8194,-8.13286 9.0293,-16.6525 19.3744,-28.75128 31.0351,-36.2963 11.7511,-6.99865 25.6874,-13.51732 41.8089,-19.55598 16.1212,-6.03834 31.91,-20.86308 47.3664,-44.47425 15.4561,-23.61112 30.5655,-41.69152 45.3284,-54.24119 12.9617,-33.58319 24.5172,-86.79595 34.6668,-130.57909 4.5705,-16.47503 13.5233,-23.43111 26.8582,-20.86827 13.3348,2.5626 19.2218,10.99022 17.661,25.28284 z"
     id="path2"
     sodipodi:nodetypes="ccccccsccccssccsc"
     inkscape:transform-center-x="102.23485"
     inkscape:transform-center-y="129.85094" />
</svg>
