<?xml version="1.0" encoding="UTF-8" standalone="no"?>
<svg
   width="545.15839"
   height="1000"
   version="1.1"
   id="svg1"
   sodipodi:docname="13628.svg"
   inkscape:version="1.4.2 (f4327f4, 2025-05-13)"
   xmlns:inkscape="http://www.inkscape.org/namespaces/inkscape"
   xmlns:sodipodi="http://sodipodi.sourceforge.net/DTD/sodipodi-0.dtd"
   xmlns="http://www.w3.org/2000/svg"
   xmlns:svg="http://www.w3.org/2000/svg">
  <defs
     id="defs1" />
  <sodipodi:namedview
     id="namedview1"
     pagecolor="#ffffff"
     bordercolor="#666666"
     borderopacity="1.0"
     inkscape:showpageshadow="2"
     inkscape:pageopacity="0.0"
     inkscape:pagecheckerboard="0"
     inkscape:deskcolor="#d1d1d1"
     inkscape:zoom="4.270925"
     inkscape:cx="378.95772"
     inkscape:cy="170.57195"
     inkscape:window-width="1680"
     inkscape:window-height="998"
     inkscape:window-x="-8"
     inkscape:window-y="-8"
     inkscape:window-maximized="1"
     inkscape:current-layer="svg1" />
  <path
     d="M 323.72984,201.02619 M 382.2295,28.718043 c -5.67269,-9.218159 -12.58629,-14.89086 -20.74081,-17.018102 -8.15448,-2.1272787 -15.42262,-2.1272787 -21.80442,0 -6.38176,2.127242 -9.57264,5.672682 -9.57264,10.636321 4.25452,3.54544 11.34538,5.31816 21.27258,5.31816 9.21816,0 19.49992,0.35454 30.84529,1.063621 z m -2.12725,151.035567 c -18.43628,-3.54544 -27.83168,-11.69994 -28.1862,-24.46351 -0.35456,-12.7636 5.14086,-29.60442 16.48626,-50.52247 11.3454,-20.918079 18.08172,-37.40436 20.20897,-49.458841 0,-11.345401 -6.73632,-16.309003 -20.20897,-14.890804 -9.92724,0 -17.90448,8.154501 -23.93172,24.463503 -6.0272,16.309003 -8.86354,35.454342 -8.50902,57.436032 0.35456,21.98172 3.72272,36.87254 10.10448,44.67247 6.3818,7.79996 17.7272,12.0545 34.0362,12.76362 z m 104.2358,45.73608 c -19.14536,0 -28.71804,-24.64078 -28.71804,-73.92235 0,-49.28153 -3.54544,-73.922289 -10.63632,-73.922289 -9.21813,0 -13.47265,19.499883 -12.76357,58.499649 0,27.65441 -8.86358,45.73613 -26.59074,54.24517 h -24.4635 -40.41793 c -12.76357,-12.76356 -18.43627,-37.93614 -17.01811,-75.51775 1.41817,-37.581609 7.79995,-62.399654 19.14535,-74.454135 0,-4.254521 -2.4818,-6.381782 -7.4454,-6.381782 -4.96364,0 -9.39544,-1.240919 -13.2954,-3.722756 -3.89997,-2.481801 -6.20451,-5.140862 -6.91362,-7.977185 C 322.31165,7.4454207 335.07521,0 353.51145,0 c 13.47268,0.7090806 23.04536,3.722701 28.71805,9.0408613 5.67271,5.3181607 9.92723,11.8772207 12.76356,19.6771817 7.09088,9.218122 9.57268,18.790785 7.4454,28.717988 0,9.218159 -8.50904,29.072602 -25.52712,59.563329 -17.01809,30.49076 -12.05447,45.73614 14.89086,45.73614 13.47264,0 20.20896,-18.08172 20.20896,-54.24516 0,-35.454367 10.99084,-53.181551 32.97253,-53.181551 19.14536,0 28.71804,22.158964 28.71804,66.476891 0,44.31797 1.06364,69.84511 3.19092,76.58143 2.12724,6.73632 6.02722,11.52266 11.69994,14.35902 5.67268,2.83636 9.39538,5.6727 11.1681,8.50903 1.77272,2.83635 -3.36816,4.25453 -15.42264,4.25453 z M 355.63875,17.018102 c -0.70908,-2.127279 -2.65908,-3.545459 -5.85,-4.25454 -3.19088,-0.709081 -6.20448,-0.709081 -9.0408,0 -2.83636,0.709081 -4.60908,2.127261 -5.31816,4.25454 -0.70912,2.127241 0.70904,3.545402 4.25448,4.254483 3.54544,0.709118 7.09088,0.886398 10.63632,0.531839 3.54544,-0.354559 5.31816,-1.95 5.31816,-4.786322 z"
     style="fill:#e5a50a;stroke:none;stroke-width:1"
     id="path1-8" />
  <path
     style="fill:#000000;stroke:none;stroke-width:1"
     d="m 329.04795,222.29883 c 15.59992,-1.4182 31.73166,1.77268 48.39522,9.57265 16.66353,7.79996 23.93167,14.53628 21.80443,20.20896 -2.12724,5.67272 1.06366,8.86362 9.5727,9.5727 7.79996,0.70908 11.34538,7.79994 10.63626,21.27259 -1.41816,12.76356 -5.4954,21.9817 -12.23172,27.65442 -6.73636,5.67268 -3.72274,6.55904 9.04086,2.65908 12.76356,-3.9 24.9953,-13.2954 36.69523,-28.18621 11.69996,-14.89084 14.18176,-32.44074 7.4454,-52.64971 -6.73632,-20.209 -28.00892,-31.73168 -63.81781,-34.56804 -35.80889,-2.83632 -58.32241,5.3182 -67.54057,24.46356 z m 32.97258,37.22707 c -23.39988,9.21812 -37.22708,10.81356 -41.4816,4.78632 -4.25452,-6.02724 -3.7227,-11.52266 1.59546,-16.48626 5.31816,-4.96361 18.61354,-1.06363 39.88614,11.69994 z M 406.693,538.19708 c 0,-26.23624 8.8636,-61.69058 26.5908,-106.36303 7.79993,-9.92724 8.15447,-20.74082 1.06362,-32.44075 -7.09088,-11.69996 -16.30902,-17.19538 -27.65442,-16.48626 -8.50904,0.70908 -13.47264,-8.50906 -14.8908,-27.65442 -2.83636,-33.32709 -1.41818,-51.76335 4.25454,-55.30879 5.67268,-3.54544 8.68628,-8.50904 9.0408,-14.89081 0.35456,-6.3818 -4.43176,-9.92724 -14.35897,-10.63632 -9.21815,-1.41816 -12.76359,-5.31814 -10.63632,-11.69994 2.12725,-6.3818 -4.60907,-12.76358 -20.20896,-19.14534 -15.59992,-6.3818 -30.1362,-8.8636 -43.60885,-7.4454 -2.83636,9.21812 -10.63634,24.46348 -23.39994,45.73608 11.34541,3.54544 13.82723,8.15452 7.44546,13.82724 v 3.19087 c 12.76357,9.21812 16.30901,14.53628 10.63632,15.95448 -3.54544,9.21812 -2.83636,14.53626 2.12724,15.95442 29.78165,0.70908 44.31793,9.57266 43.60885,26.59075 -0.70908,16.309 -14.18172,24.4635 -40.41793,24.4635 -10.63632,0 -15.2454,16.66356 -13.82724,49.99069 17.01809,44.67245 25.52713,79.77225 25.52713,105.29941 0,24.81805 -1.2409,48.92701 -3.7227,72.32689 -2.4818,23.39985 -9.04084,35.09977 -19.67713,35.09977 -49.63613,7.8 -89.34501,22.33628 -119.12666,43.60885 65.94509,7.8 98.91764,18.79088 98.91764,32.97264 9.21812,-9.21816 49.63609,-15.59996 121.2539,-19.1454 13.47268,-6.38177 21.27264,-14.53627 23.39988,-24.46351 0,-21.98172 -7.44542,-68.42693 -22.33626,-139.33562 z M 282.24824,443.53399 c -10.63632,19.14536 -29.24986,39.35432 -55.84063,60.62689 -26.59076,21.27264 -44.84974,34.56804 -54.77695,39.8862 -9.92724,5.31813 -16.66356,4.07723 -20.20896,-3.7227 -3.54544,-7.8 -7.97724,-18.79084 -13.2954,-32.97253 -5.31816,-14.18176 8.6863,-57.08154 42.01338,-128.69935 11.34541,-31.19985 30.13623,-51.05429 56.37247,-59.56333 26.23621,-8.50904 39.35431,-10.10448 39.35431,-4.78632 0,5.31816 -9.04086,11.3454 -27.12259,18.08172 -18.08172,6.73632 -30.66802,17.5499 -37.7589,32.44075 17.01812,-2.12728 28.71806,-5.85 35.09982,-11.16816 6.3818,-5.31813 12.0545,-5.67267 17.01811,-1.06362 4.9636,4.60907 -14.5363,17.19537 -58.49971,37.7589 -4.25452,43.96341 -10.28176,77.99959 -18.08172,102.10855 24.10896,-35.45436 42.0134,-59.20878 53.71333,-71.26327 11.69996,-12.05448 22.33628,-24.4635 31.90896,-37.22706 9.57268,-12.76356 20.0317,-19.14534 31.37706,-19.14534 11.34541,0 19.49991,-0.17737 24.46351,-0.53212 4.96364,-0.35437 7.0909,-4.78617 6.38178,-13.2954 0,-4.9636 -4.2545,-7.09084 -12.76351,-6.38173 -8.50908,0.70927 -15.06814,-0.177 -19.67718,-2.6588 -4.60908,-2.48184 -6.55908,-8.68636 -5.85,-18.61356 -7.09088,0 -8.8636,-3.89998 -5.31816,-11.69994 l -4.25448,-9.5727 5.31816,-5.31816 c -12.05452,-4.25449 -14.89088,-10.99081 -8.50908,-20.20897 14.18176,-20.56352 21.62718,-35.0998 22.33626,-43.60884 0,-1.0673 0.48258,-56.58491 101.04488,-49.99063 48.21793,3.54544 73.21325,24.28624 74.98597,62.22241 1.77272,37.93613 -16.8408,65.41325 -55.84057,82.43137 -9.92724,3.54544 -15.2454,10.6363 -15.95448,21.27258 -0.70908,12.76357 10.99084,19.49991 35.09977,20.20902 11.34543,0 27.12263,14.53628 47.3316,43.60885 20.20897,29.07257 37.75887,60.62695 52.64971,94.66315 1.41816,48.92701 -4.96362,90.4086 -19.14534,124.44477 4.25452,25.52712 0.35454,51.40878 -11.69995,77.64499 -12.05448,26.23624 -23.75442,34.7453 -35.09982,25.52718 8.50904,-12.05448 14.71356,-23.22262 18.61356,-33.50442 3.89996,-10.28173 5.84994,-22.51347 5.84994,-36.69523 -10.63632,6.38177 -17.37264,13.64991 -20.20896,21.80443 -2.83636,8.15448 -7.09088,10.81356 -12.76356,7.97724 0,-20.56356 10.28176,-39.70892 30.84528,-57.43609 -3.54544,-48.21789 -1.77274,-87.92677 5.31811,-119.12666 l -56.37241,-74.45407 c -19.14537,43.25429 -28.71805,76.22681 -28.71805,98.91758 18.43629,71.61781 26.59081,118.94939 24.46356,141.99475 -2.12727,23.04533 -23.39989,34.56799 -63.81786,34.56799 -39.70889,0 -73.39051,6.02722 -101.04488,18.08167 l -5.31816,10.63632 c 19.85444,22.6908 29.07256,52.11792 27.65436,88.28137 -1.41816,36.16348 5.67272,66.12242 21.27265,89.87683 15.59992,23.75441 14.18174,37.40433 -4.25454,40.94977 -18.43629,3.54559 -42.19071,14.18191 -71.26327,31.90896 h -41.48155 c -7.09088,0 -13.11812,-4.96362 -18.08173,-14.89086 -4.96363,-9.92724 1.06361,-14.89086 18.08173,-14.89086 29.07256,0 48.92698,-12.40904 59.56327,-37.22712 1.4182,-22.69077 -4.25448,-49.63607 -17.01805,-80.83592 -12.76356,-31.19981 -26.9453,-69.13597 -42.54522,-113.80849 -7.09088,0 -10.63632,15.59994 -10.63632,46.79982 0,30.49073 -9.3954,61.69055 -28.18621,93.59947 -18.7908,31.90893 -23.57714,58.14515 -14.35902,78.70868 9.21812,20.56349 9.39549,33.50431 0.53212,38.82247 -8.8636,5.31818 -18.43628,6.20448 -28.71805,2.65891 -10.28176,-3.54559 -23.57714,-2.83647 -39.886143,2.12735 H 21.658998 c -4.963601,1.41822 -11.168103,-2.30451 -18.6135049,-11.16816 -7.4454392,-8.8636 -1.2409376,-13.64992 18.6135049,-14.35896 41.127047,-6.3818 67.895091,-21.80444 80.304132,-46.26793 12.409,-24.46349 20.03168,-56.54969 22.86804,-96.25861 2.83636,-39.70889 11.3454,-86.86317 25.52713,-141.46286 35.45437,-32.61801 85.79955,-54.24517 151.03556,-64.88149 7.09069,-34.74517 10.45876,-63.99496 10.1042,-87.74937 -0.35452,-23.75441 -10.10446,-55.13151 -29.24982,-94.13131 z"
     id="path1"
     sodipodi:nodetypes="cssccsssssccsscccsccsscsscccccccscsscccccccsssscssscssccssscccscccccccscccsccscscscccccssccssscssscscsssssccscssccsc" />
  <path
     d="m 382.2295,28.718043 c -5.67269,-9.218159 -12.58629,-14.89086 -20.74081,-17.018102 -8.15448,-2.1272787 -15.42262,-2.1272787 -21.80442,0 -6.38176,2.127242 -9.57264,5.672682 -9.57264,10.636321 4.25452,3.54544 11.34538,5.31816 21.27258,5.31816 9.21816,0 19.49992,0.35454 30.84529,1.063621 z M 362.73601,177.63544 c -9.43363,-7.44688 -11.04468,-12.76794 -11.33021,-23.04768 -0.35452,-12.7636 0.44319,-29.37036 11.78859,-50.28841 11.3454,-20.918082 21.43649,-34.73547 21.43649,-44.685925 0,-8.301564 -6.42324,-14.690091 -16.22857,-14.290239 -19.37486,0.790088 -29.24151,35.332764 -28.58085,76.291914 0.64842,40.20045 8.13669,56.02034 22.91455,56.02034 z m 18.42987,12.75443 h -25.84839 c -24.02185,-4.81654 -33.00581,-37.93614 -31.58765,-75.51775 1.41817,-37.581609 7.79995,-62.399654 19.14535,-74.454135 0,-4.254521 -2.4818,-6.381782 -7.4454,-6.381782 -4.96364,0 -9.39544,-1.240919 -13.2954,-3.722756 -3.89997,-2.481801 -6.20451,-5.140862 -6.91362,-7.977185 C 322.31165,7.4454207 335.07521,0 353.51145,0 c 14.47581,0 32.61154,4.3251929 41.48161,28.718043 7.09088,9.218122 9.22882,18.627515 8.10765,28.717988 -1.01798,9.161777 -9.1713,29.072598 -26.18937,59.563329 -7.97721,14.29251 -13.08914,28.6515 -13.08914,38.78458 0,11.45706 13.19956,22.57065 32.00268,26.6752 z M 355.63875,17.018102 c -0.70908,-2.127279 -2.65908,-3.545459 -5.85,-4.25454 -3.19088,-0.709081 -6.20448,-0.709081 -9.0408,0 -2.83636,0.709081 -4.60908,2.127261 -5.31816,4.25454 -0.70912,2.127241 0.70904,3.545402 4.25448,4.254483 3.54544,0.709118 7.09088,0.886398 10.63632,0.531839 3.54544,-0.354559 5.31816,-1.95 5.31816,-4.786322 z"
     style="fill:#000000;stroke:none;stroke-width:1"
     id="path2"
     sodipodi:nodetypes="csscsccssssscccscsscscssscccsssssc" />
</svg>
