<?xml version="1.0" encoding="UTF-8" standalone="no"?>
<svg
   width="906.73401"
   height="999.99969"
   version="1.1"
   id="svg1"
   sodipodi:docname="1362C.svg"
   inkscape:version="1.4.3 (0d15f75, 2025-12-25)"
   xmlns:inkscape="http://www.inkscape.org/namespaces/inkscape"
   xmlns:sodipodi="http://sodipodi.sourceforge.net/DTD/sodipodi-0.dtd"
   xmlns="http://www.w3.org/2000/svg"
   xmlns:svg="http://www.w3.org/2000/svg">
  <defs
     id="defs1" />
  <sodipodi:namedview
     id="namedview1"
     pagecolor="#ffffff"
     bordercolor="#666666"
     borderopacity="1.0"
     inkscape:showpageshadow="2"
     inkscape:pageopacity="0.0"
     inkscape:pagecheckerboard="0"
     inkscape:deskcolor="#d1d1d1"
     inkscape:zoom="0.32799679"
     inkscape:cx="-641.77457"
     inkscape:cy="602.14004"
     inkscape:window-width="1680"
     inkscape:window-height="998"
     inkscape:window-x="-8"
     inkscape:window-y="-8"
     inkscape:window-maximized="1"
     inkscape:current-layer="svg1"
     showguides="true" />
  <path
     style="fill:#000000;stroke:none;stroke-width:0.999999"
     d="m 720.29558,45.447796 c 20.05708,-0.872071 39.89613,4.142203 59.51718,15.042795 19.62102,10.900593 27.90548,19.839083 24.85334,26.815467 -3.05204,6.976353 0.65377,10.900554 11.11857,11.772617 10.46457,1.744115 14.38881,10.464545 11.77262,26.161365 -1.74393,15.69686 -7.19436,26.81547 -16.35084,33.35582 -9.15649,6.54036 -5.66834,7.84843 10.46459,3.92423 16.13284,-3.92423 32.04767,-14.38881 47.7445,-31.39368 15.69684,-17.00492 19.83911,-38.370071 12.42666,-64.095463 -7.41242,-25.725391 -32.91975,-41.422232 -76.52206,-47.090525 -43.60232,-5.668293 -71.94387,2.834165 -85.02456,25.507374 z m -15.69684,18.312972 c -3.48844,9.59254 -13.51673,26.597452 -30.08566,51.014752 11.33661,6.10432 14.38881,12.64466 9.15648,19.62101 -4.36011,2.61613 -4.79652,6.97638 -1.30808,13.08071 l 23.54529,9.15648 -1.30808,7.84845 -11.77262,-1.30808 c 0,6.10433 3.05201,11.3366 9.15649,15.69684 l 47.09052,1.30811 0,54.28199 c -66.23963,0 -51.53045,52.88474 -51.13979,53.97098 28.51999,79.29974 29.79205,122.16977 22.36223,230.53718 -1.96931,28.72335 -10.46459,43.16631 -28.77755,43.16631 -61.04324,10.46454 -110.31386,28.34149 -147.81187,53.63082 81.97237,2.61616 122.52252,12.64471 121.65044,30.08561 12.20863,-11.33661 59.73524,-17.4409 142.57968,-18.313 16.56885,-7.84837 26.59743,-17.44094 30.08558,-28.77755 0,-24.41726 -8.72047,-80.22823 -26.16142,-167.43294 0,-31.39366 4.59834,-72.45536 25.8113,-127.97448 12.3978,-32.44778 -5.11279,-60.46035 -22.54102,-63.00374 -12.54188,-1.8303 -20.71112,-13.95274 -24.19927,-44.47436 -8.72053,-29.6496 -8.06649,-46.4365 1.96204,-50.36071 10.02855,-3.9242 15.47885,-9.81051 16.35087,-17.65892 0.8721,-7.84845 -4.36017,-12.64472 -15.69678,-14.38881 -11.33666,-1.74409 -15.69689,-6.54033 -13.0807,-14.388745 2.61611,-7.848408 -5.4503,-16.350872 -24.19935,-25.507373 C 737.51849,64.4148 720.29558,61.14462 704.59874,63.760768 Z m 54.9389,30.085591 c -30.52159,9.592541 -47.96254,10.682601 -52.32279,3.270177 -4.36012,-7.41238 -3.26993,-14.170731 3.26996,-20.275057 6.54035,-6.104327 22.89125,-0.43585 49.05262,17.00488 z m -77.8831,227.203901 c -23.12302,-49.27239 12.32511,-102.04384 38.64104,-103.59125 6.10933,-0.35924 7.63042,-4.57828 4.57804,-12.42667 -3.05199,-7.84841 -8.28423,-11.3366 -15.69662,-10.46458 -7.41242,0.87207 -14.60678,-0.43601 -21.58314,-3.92422 -6.97644,-3.48817 -8.72053,-9.15647 -5.23232,-17.00488 -11.33661,-3.48817 -12.64469,-9.15649 -3.92422,-17.00494 -8.72047,-1.74409 -12.20862,-6.54033 -10.46454,-14.38874 l 3.92417,-9.15649 c -13.08065,-8.72047 -17.00486,-16.13287 -11.77262,-22.2372 20.05708,-25.289353 30.52167,-43.166313 31.39369,-53.630876 0,-7.848411 8.06643,-20.711088 24.19933,-38.58803 16.13286,-17.87697822 50.79673,-22.8912618 103.99154,-15.0428503 52.32279,6.9763863 81.10035,32.9197733 86.33259,77.8301603 5.23237,44.910426 -19.18499,78.266216 -73.25189,100.067356 -10.46457,3.48821 -19.54333,12.351 -15.69684,24.85333 2.7496,8.93608 10.55431,14.24347 26.0842,23.38476 18.16191,10.69056 34.57069,51.2032 19.34807,88.01754 -21.9245,53.02233 -27.1193,90.91255 -27.1193,118.818 21.80115,88.07676 32.26571,146.28591 31.39369,174.62741 -0.87223,28.34147 -27.46945,42.51224 -79.79224,42.51224 -49.70671,0 -91.56494,7.84845 -125.57473,23.54529 l -6.54035,11.77256 c 24.4173,27.90554 35.75391,64.31349 34.0098,109.22392 -1.74394,44.91039 6.97638,82.19039 26.16136,111.83997 19.18507,29.64957 17.441,46.65446 -5.23237,51.01473 -22.67322,4.36015 -51.88678,17.00489 -87.6407,37.93404 h -49.70655 c -9.59249,0 -17.44089,-5.88631 -23.54523,-17.65898 -6.10431,-11.77267 1.74419,-17.65897 23.54523,-17.65897 35.75394,0 60.17125,-16.13285 73.25197,-48.39855 0.87223,-27.90549 -6.54037,-60.82524 -22.2372,-98.75933 -15.69684,-37.93399 -32.70175,-84.37047 -51.01477,-139.30939 -8.72042,0 -13.08064,18.749 -13.08064,56.24695 0,37.49803 -11.55461,75.86808 -34.66387,115.11017 -23.10927,39.24207 -28.99558,71.50783 -17.65898,96.79718 11.33664,25.28938 11.33664,41.42224 0,48.3986 -11.3366,6.97638 -23.10922,8.06648 -35.31785,3.26996 -12.20868,-4.79652 -28.34155,-4.14219 -48.39861,1.96239 h -79.7923 c -6.97635,1.74393 -14.82476,-2.83427 -23.54524,-13.73482 -8.72047,-10.90062 -0.87207,-16.78693 23.54524,-17.65898 49.70669,-6.97635 82.40845,-25.50735 98.10527,-55.59302 15.69684,-30.08553 25.28933,-69.76365 28.77756,-119.0343 3.48815,-49.27065 13.95272,-107.47975 31.39367,-174.6273 42.73027,-39.24212 104.6456,-68.01968 185.74598,-86.33264 7.41559,-54.38004 20.64873,-154.34361 -5.93932,-210.99955 z"
     id="path1"
     sodipodi:nodetypes="cssccssssscccccccccccssccccccsscsssssccssccssssccccccscsccsssssccssscssscscsssssccscssccss" />
  <path
     id="path1-1"
     style="fill:#000000;stroke:none;stroke-width:0.999999"
     d="m 359.47803,50.791551 c -1.1434,0.298932 -1.93616,0.931819 -2.37879,1.898062 -2.36071,5.15333 0.21889,10.191175 7.74098,15.112501 7.52191,4.921452 15.75978,11.259264 24.71399,19.013541 8.95416,7.754251 19.11309,24.194245 30.47556,49.321105 -23.22222,-5.8419 -37.91826,-12.73875 -44.08771,-20.69298 -6.16952,-7.95424 -12.20696,-7.41911 -18.1127,1.60716 9.23408,16.40444 35.5763,37.1783 79.0269,62.32165 50.15362,32.77514 56.44618,70.49683 127.46502,114.17489 48.23189,-0.26658 84.60735,-4.10942 132.82211,-7.71661 l 24.23595,-58.74163 c -48.08724,2.44778 -82.48237,7.70221 -134.68179,12.30113 C 552.71112,212.91494 504.59691,185.15452 449.98978,151.19003 435.0107,108.02631 416.37444,79.530863 394.08088,65.702761 375.96731,54.46743 364.43277,49.496177 359.47803,50.791551 Z"
     sodipodi:nodetypes="sscscscccccccss" />
  <path
     style="fill:#000000;stroke:none;stroke-width:1"
     d="M 408.38034,424.81267 H 298.69997 l 53.08535,-267.18151 h 3.9484 z m -92.57028,-14.03915 h 24.56848 l 11.40678,-92.13155 h 3.9484 l 11.40678,92.13155 h 23.69103 l -36.85257,-210.1476 z"
     id="path1613"
     sodipodi:nodetypes="ccccccccccccc" />
  <path
     d="m 712.88524,326.63025 c -34.10706,37.8615 -51.15907,56.41946 -91.41642,106.29312 -57.70983,3.58483 -111.60541,4.38748 -187.64424,1.29211 -42.56384,16.60712 -76.3392,20.91457 -101.32607,12.92234 -24.98689,-7.99228 -36.2855,-14.55839 -33.8958,-19.69836 2.38972,-5.13995 7.89718,-6.44458 16.52243,-3.91399 8.62529,2.53066 18.79304,4.68721 30.5032,6.47 11.71022,1.78217 30.81145,-1.15472 57.30375,-8.81127 -19.51229,-13.88019 -34.29622,-20.58717 -44.35179,-20.12094 -10.05561,0.4661 -13.56505,-4.47584 -10.5283,-14.82618 18.47416,-3.61693 51.37352,2.9498 98.69808,19.6999 63.60213,-8.20841 92.32715,-23.56582 144.83157,-25.38467 38.11465,-48.48864 73.16638,-91.19502 107.98457,-127.30316 10.10199,-9.04656 31.06906,-34.40384 49.50686,-18.78812 -24.46216,1.24654 3.84506,52.13632 -36.18784,92.16922 z"
     style="fill:#000000;stroke:none;stroke-width:0.999999"
     id="path1-5"
     sodipodi:nodetypes="cccsssccccccccc" />
</svg>
