<?xml version="1.0" encoding="UTF-8" standalone="no"?>
<svg
   width="751.54224"
   height="1000"
   version="1.1"
   id="svg1"
   sodipodi:docname="13650.svg"
   inkscape:version="1.4.3 (0d15f75, 2025-12-25)"
   xmlns:inkscape="http://www.inkscape.org/namespaces/inkscape"
   xmlns:sodipodi="http://sodipodi.sourceforge.net/DTD/sodipodi-0.dtd"
   xmlns="http://www.w3.org/2000/svg"
   xmlns:svg="http://www.w3.org/2000/svg">
  <defs
     id="defs1" />
  <sodipodi:namedview
     id="namedview1"
     pagecolor="#ffffff"
     bordercolor="#666666"
     borderopacity="1.0"
     inkscape:showpageshadow="2"
     inkscape:pageopacity="0.0"
     inkscape:pagecheckerboard="0"
     inkscape:deskcolor="#d1d1d1"
     showguides="true"
     inkscape:zoom="2.1354625"
     inkscape:cx="316.7932"
     inkscape:cy="142.59206"
     inkscape:window-width="1680"
     inkscape:window-height="998"
     inkscape:window-x="-8"
     inkscape:window-y="-8"
     inkscape:window-maximized="1"
     inkscape:current-layer="svg1">
    <sodipodi:guide
       position="240.37791,594.30588"
       orientation="0.96239766,0.27164453"
       id="guide1"
       inkscape:locked="false" />
  </sodipodi:namedview>
  <path
     style="fill:#000000;stroke:none;stroke-width:0.999998"
     d="M 618.56426,658.92128 H 322.33685 c -20.86111,0 -32.33472,19.47033 -34.42083,58.411 l 3.12916,39.63604 c -2.08611,20.86111 -1.04305,35.11622 3.12916,42.76532 4.17222,7.64902 6.25833,34.07304 6.25833,79.27207 0,40.33141 -8.17059,65.36474 -24.51177,75.09998 -16.34121,9.73513 -24.51181,19.1226 -24.51181,28.16239 h 7.30143 l 9.38748,-14.6028 h 12.51665 l -6.25833,14.6028 h 21.90413 c 9.73517,-9.03979 11.82127,-17.21038 6.25832,-24.51176 -5.56295,-7.30141 -3.303,-16.34123 6.77985,-27.11945 10.08289,-10.77818 12.69053,-27.98857 7.8229,-51.63116 -0.69537,-26.42406 2.08611,-49.71894 8.34443,-69.88465 6.25836,-20.1657 8.34447,-51.10962 6.25833,-92.83177 0,-24.33796 5.56297,-36.50694 16.68891,-36.50694 H 616.4781 Z m 127.2526,136.64009 c 3.47685,2.7814 5.38911,5.56287 5.7368,8.34442 0.34846,2.78141 -1.04224,5.56288 -4.17211,8.34443 -3.12912,2.78141 -6.60596,9.21357 -10.43053,19.2965 -3.82457,10.08289 -5.91068,25.03334 -6.25833,44.85136 -0.34846,19.81802 1.2161,33.20388 4.69369,40.15757 3.47685,6.95369 0.69537,11.29974 -8.34443,13.03817 -9.0398,1.73861 -13.5597,8.51845 -13.5597,20.33954 6.25833,15.99353 4.51991,32.68241 -5.21526,50.06664 h -81.3583 v -17.73192 c 0,-15.29808 10.08287,-29.20546 30.24861,-41.72214 13.90738,-10.43054 21.55646,-30.94395 22.94724,-61.54023 l 1.04316,-54.23884 C 642.20685,788.60768 620.30263,746.88551 615.43504,699.60037 H 364.059 c -10.43054,0.69545 -15.64581,9.03988 -15.64581,25.03329 2.08611,36.8546 -2e-5,65.36477 -6.25838,85.53051 -6.25828,20.16567 -9.03976,43.46053 -8.34443,69.8846 -0.69533,17.38423 0.69543,29.55319 4.17227,36.50688 3.47685,6.95369 0.69537,11.29974 -8.34443,13.03817 -9.03983,1.73861 -13.55975,8.51845 -13.55975,20.33954 6.25832,15.99353 4.5199,32.68241 -5.21527,50.06664 h -81.35824 v -17.73192 c 0,-15.29808 10.08287,-29.20546 30.24861,-41.72214 14.60275,-10.43054 21.90413,-30.94395 21.90413,-61.54023 0,-45.19903 -2.08611,-71.62305 -6.25832,-79.27207 -4.17221,-7.6491 -5.21527,-21.90421 -3.12916,-42.76532 l -3.12916,-39.63604 c -2.78148,-52.15268 8.34442,-78.22902 33.37771,-78.22902 h 318.13154 l 16.68886,-171.06091 c 0,-11.82128 4.8676,-17.73192 14.60281,-17.73192 h 79.27207 c 8.34447,-0.69541 12.5167,4.86755 12.5167,16.68886 v 172.10397 c -26.42406,23.64255 -39.63609,49.71889 -39.63609,78.22902 0,32.68239 13.9074,58.75875 41.7222,78.22909 z m -13.5597,8.34442 C 701.66092,782.34935 686.3628,753.8392 686.3628,718.37534 c 0,-30.59624 12.51664,-59.45408 37.54993,-86.57351 V 481.60204 c 0,-6.95369 -2.78149,-10.43053 -8.34448,-10.43053 h -49.02352 c -6.95369,0 -10.43054,3.82453 -10.43054,11.47359 l -19.81802,202.35252 c 0,51.45731 21.55646,93.52716 64.66938,126.20955 l -3.12949,67.79854 c 0,40.33141 -8.17059,65.36474 -24.51176,75.09998 -16.34117,9.73513 -24.51176,19.1226 -24.51176,28.16239 h 7.30137 l 9.38749,-14.6028 h 12.51664 l -6.25832,14.6028 h 21.90412 c 9.73521,-9.03979 11.82132,-17.21038 6.25833,-24.51176 -5.56292,-7.30141 -3.99836,-16.34123 4.69368,-27.11945 8.69211,-10.77818 11.9951,-38.76679 9.90896,-83.96582 0,-9.73517 5.91065,-23.99025 17.73196,-42.76526 z M 473.57969,90.456694 v -5.215268 l 8.34443,-7.301431 c 7.64909,-4.867584 17.73194,-2.433774 30.24855,7.301431 h 11.47359 v 7.301376 l -11.47359,-3.129161 c -13.21201,5.562953 -24.6856,5.562953 -34.42077,0 z m 7.30137,-5.215268 c 2.08611,0.695369 4.5199,1.738423 7.30138,3.129161 -2.08611,-2.781477 -2.08611,-5.562953 0,-8.34443 -4.17221,1.390739 -6.60601,3.129162 -7.30138,5.215269 z m 14.60275,3.129161 h 11.47359 l -10.43053,-7.301376 c 2.08611,2.781477 1.73842,5.215269 -1.04306,7.301376 z m -34.13108,27.210463 c -0.98775,-4.14193 2.22615,-6.58221 6.49016,-0.61259 3.82056,5.34879 6.89724,3.31188 6.25832,-0.52153 -0.68848,-4.13048 2.37438,-4.76203 3.12916,0.52153 0.62355,4.36476 -5.03779,9.81383 -10.43053,3.65068 -2.43379,-2.78147 -3.43548,-4.90482 -5.44711,-3.03809 z m 18.48528,18.6839 -15.64581,2.08611 c -0.69537,0.69537 -1.04305,1.39073 -1.04305,2.0861 0,0.69537 1.39074,1.04306 4.17221,1.04306 1.39074,-0.69537 3.47685,-1.56459 6.25833,-2.60764 2.78147,-1.04305 4.86758,-1.91226 6.25832,-2.60763 z m 0,-3.12916 c 0.69537,0 -0.69537,-0.34769 -4.17222,-1.04306 -3.47684,-0.69537 -6.43216,-1.21689 -8.86595,-1.56458 -2.43379,-0.34768 -4.17222,1e-5 -5.21527,1.04306 -1.04305,1.04305 -0.52153,1.91226 1.56458,2.60763 z m 73.01381,1.04305 c 11.82127,-14.60275 17.73191,-27.64092 17.73191,-39.114512 0,-11.473627 -4.17221,-17.210441 -12.51664,-17.210441 -5.56299,0 -8.34449,5.562972 -8.34449,16.688915 H 539.29207 C 542.07354,68.204845 524.34163,57.078921 486.09633,59.165028 l -6.25832,7.301376 c 9.03983,-3.476845 17.5581,-2.607634 25.55481,2.607634 7.99675,5.215305 15.12428,7.822958 21.3826,7.822958 v 5.215269 c -9.03979,-1.390739 -17.73191,-4.172234 -26.07634,-8.344485 -8.34443,-4.172215 -15.99349,-4.172215 -22.94718,0 -7.64909,7.649097 -15.29815,20.513444 -22.94718,38.59304 7.64903,4.17221 11.47354,8.34443 11.47354,12.51665 8.34447,0.69537 14.08128,2.43379 17.21044,5.21526 3.12916,2.78148 -0.52153,7.30138 -10.95207,13.5597 -3.47685,13.90738 3.65069,19.64418 21.3826,17.21039 17.73195,-2.43379 26.77175,1.39075 27.1194,11.47364 0.34769,10.08285 0.52153,16.8627 0.52153,20.33955 9.03983,8.34443 19.1227,10.43053 30.24861,6.25832 -0.69537,-15.29815 -0.34769,-37.54998 1.04305,-66.75549 z m 3.12916,137.6832 c -2.08611,-28.51017 -3.47684,-44.85137 -4.17221,-49.02358 -13.21201,4.17221 -25.72866,0 -37.54993,-12.51665 l -15.64581,42.76526 c 7.64906,10.43054 26.77171,16.68886 57.36795,18.77497 z m 31.29161,13.55969 c -9.73517,4.86759 -24.51176,6.9537 -44.32978,6.25833 -19.81805,-0.69537 -37.02846,-5.56296 -51.63121,-14.60275 -16.68889,57.0203 -22.25185,145.33223 -16.68886,264.93579 -62.58326,4.17222 -111.78064,9.73517 -147.59215,16.68886 -35.81155,6.95369 -65.19091,14.95044 -88.13809,23.99024 -26.42407,5.56295 -40.33147,26.42404 -41.7222,62.58327 -12.51665,63.27863 -21.90413,124.29729 -28.16245,183.05598 -6.25833,58.75877 -19.6442,95.96103 -40.15762,111.6068 -20.51339,15.64584 -50.588125,29.3794 -90.224202,41.20067 l 1.043053,1.04317 H 172.13701 c 24.33792,-4.86766 28.51013,-21.90424 12.51664,-51.10974 l -1.04305,-35.46383 c 12.51665,-41.72218 25.20713,-78.57678 38.07146,-110.5638 12.86433,-31.98701 22.42567,-67.45086 28.68403,-106.39153 3.47685,-22.25181 17.03654,-34.76846 40.67909,-37.54993 H 534.0768 c 48.67587,-1.39089 71.62309,-66.40794 68.84165,-195.05115 V 283.42173 Z m 35.46383,0 v 253.46216 c -8.34443,81.35826 -32.33467,122.03739 -71.97071,122.03739 H 287.91602 c -11.12591,6.25829 -17.90575,23.12099 -20.33954,50.5881 -2.43379,27.46708 -14.08125,61.36634 -34.94236,101.69779 -18.77497,51.45735 -27.81476,84.13974 -27.11939,98.04716 0.69537,13.90738 3.65068,26.94553 8.86595,39.11445 5.21527,12.169 6.60601,23.29491 4.17222,33.37772 -2.43379,10.08289 -13.73354,16.16739 -33.89925,18.2535 H 0.0330418 c -0.69536913,-17.38423 9.3874829,-28.85784 30.2485562,-34.42083 37.549969,-12.51665 65.19091,-27.1194 82.922822,-43.80825 17.73191,-16.68883 29.72703,-51.97883 35.98535,-105.87001 6.25836,-53.89114 15.29818,-111.78066 27.11945,-173.66855 1.39074,-43.11288 18.0796,-70.57996 50.06658,-82.40124 29.90091,-11.12594 62.93096,-19.99191 99.09015,-26.59792 36.15923,-6.60597 77.18605,-11.99508 123.08045,-16.16733 -2.78148,-73.01379 -1.56458,-129.68641 3.65069,-170.01786 5.21527,-40.33141 19.29649,-88.65958 42.24367,-144.98452 8.34443,-12.51664 10.08285,-22.25183 5.21527,-29.20556 h -9.38748 l -7.30138,36.50694 h -30.24856 l 13.55965,-38.59304 c -5.56292,-2.08611 -7.99669,-7.30138 -7.30132,-15.64581 0,-5.56295 -1.56458,-9.21364 -4.69375,-10.95206 -3.12919,-1.73843 -2.78151,-3.82453 1.04306,-6.25832 3.82449,-2.43379 5.38907,-3.30301 4.69374,-2.60764 -5.56295,-0.69537 -8.69213,-1.91226 -9.38754,-3.65069 -0.69537,-1.73842 1.73844,-3.99837 7.30143,-6.77984 -5.56299,-2.08611 -10.43057,-3.82454 -14.60275,-5.21527 -4.17221,-1.39074 -4.17221,-6.95369 0,-16.68886 8.34439,-15.298122 15.99344,-27.467101 22.94713,-36.506936 3.47688,-11.821275 8.34448,-23.990234 14.6028,-36.506878 6.25833,-12.516644 21.20878,-21.5564426 44.85137,-27.1193958 23.64255,-5.5629529 50.41426,-2.95531867 80.31513,7.8229028 29.90091,10.778221 44.67752,42.93906 44.32984,96.482517 -0.34847,53.54346 -3.30379,112.30219 -8.86596,176.27618 z m 2.08633,-19.81807 c 4.17221,-63.27863 6.25832,-116.47438 6.25832,-159.58727 0,-43.112921 -11.64745,-69.015438 -34.94235,-77.707552 -23.29487,-8.692114 -44.85133,-11.299748 -64.66939,-7.822903 -19.81802,3.476846 -32.16082,12.16896 -37.0284,26.076342 32.68235,0.695369 50.41428,7.301376 53.19579,19.81802 9.73517,-3.476846 18.60112,-3.476846 26.59787,0 7.99675,3.476845 11.82128,12.864347 11.47359,28.162505 -0.34847,15.298118 -5.73758,29.553188 -16.16733,42.765198 -3.47685,11.82127 -2.7814,54.58649 2.08633,128.29566 z"
     id="path1"
     sodipodi:nodetypes="csccsssccccccsscscscccccsccscccsccccccscsscccscssccsccscscsccscsssccccsccccccsscccccccccccccccccccccsssscccscsccssscccssccccsccscccscsscccccccccsccsccsscccccsccccccccscscssscccssccscscccccccsscscsccsssccccsssccscccc" />
  <path
     d="m 237.07442,348.43385 c 7.34107,-60.93079 2.56939,-96.16787 -14.31504,-105.71123 -16.88443,-9.54336 -29.36423,-5.50578 -37.4394,12.11275 -8.07517,17.61853 9.17631,48.81803 51.75444,93.59848 z m 44.58763,203.52407 -41.28414,-146.2638 c -34.50296,8.80923 -62.39898,23.85838 -83.68807,45.14747 -13.21387,-19.08672 -19.82081,-40.00874 -19.82081,-62.76605 30.83244,1.46823 60.93077,-3.6705 90.29498,-15.41619 -63.13307,-52.12153 -86.07388,-96.16788 -68.82242,-132.13907 17.2515,-35.97115 42.94521,-44.78042 77.08114,-26.4278 34.1359,18.35267 40.92637,67.9048 20.37142,148.65641 27.16189,-9.54336 54.69084,-24.22547 82.58687,-44.04632 12.47982,18.35266 18.71973,38.17351 18.71973,59.46256 -33.03477,0.73409 -63.86722,6.97398 -92.49734,18.71967 l 53.95673,137.64485"
     style="fill:#000000;stroke:none;stroke-width:0.999999"
     id="path1-2"
     sodipodi:nodetypes="cssccccccssccccc" />
</svg>
