<?xml version="1.0" encoding="UTF-8" standalone="no"?>
<svg
   width="1000"
   height="1000"
   version="1.1"
   id="svg1"
   sodipodi:docname="13651.svg"
   inkscape:version="1.4.3 (0d15f75, 2025-12-25)"
   xmlns:inkscape="http://www.inkscape.org/namespaces/inkscape"
   xmlns:sodipodi="http://sodipodi.sourceforge.net/DTD/sodipodi-0.dtd"
   xmlns="http://www.w3.org/2000/svg"
   xmlns:svg="http://www.w3.org/2000/svg">
  <defs
     id="defs1" />
  <sodipodi:namedview
     id="namedview1"
     pagecolor="#ffffff"
     bordercolor="#666666"
     borderopacity="1.0"
     inkscape:showpageshadow="2"
     inkscape:pageopacity="0.0"
     inkscape:pagecheckerboard="0"
     inkscape:deskcolor="#d1d1d1"
     inkscape:zoom="1"
     inkscape:cx="189.5"
     inkscape:cy="1077.5"
     inkscape:window-width="1680"
     inkscape:window-height="998"
     inkscape:window-x="-8"
     inkscape:window-y="-8"
     inkscape:window-maximized="1"
     inkscape:current-layer="svg1"
     showguides="true">
    <sodipodi:guide
       position="795.5,33"
       orientation="0,-1"
       id="guide2"
       inkscape:locked="false" />
    <sodipodi:guide
       position="795.5,28"
       orientation="0,1"
       id="guide3"
       inkscape:label=""
       inkscape:locked="false"
       inkscape:color="rgb(0,134,229)" />
    <sodipodi:guide
       position="1000,1000"
       orientation="0,-1"
       id="guide1"
       inkscape:locked="false" />
    <sodipodi:guide
       position="4.5,39.878601"
       orientation="0,-1"
       id="guide7"
       inkscape:locked="false" />
    <sodipodi:guide
       position="332.60474,300.36049"
       orientation="1,0"
       id="guide9"
       inkscape:locked="false" />
    <sodipodi:guide
       position="481.25444,285.1908"
       orientation="0,-1"
       id="guide10"
       inkscape:locked="false" />
  </sodipodi:namedview>
  <path
     style="fill:#000000;stroke:none;stroke-width:1"
     d="m 597.99281,544.86307 c -25.1749,0 -37.72067,9.64689 -37.72067,29.05254 0,81.43738 -3.07659,123.13766 -9.07892,125.04631 -0.0971,0.0197 -0.3126,0.0855 -0.41388,0.0855 l -237.05572,-0.003 V 971.99989 H 611.36456 V 693.51458 h 24.43137 V 573.17342 c 0,-18.8812 -12.62816,-28.31035 -37.80312,-28.31035 z m 0,16.09467 c 14.16092,0.26242 21.21214,4.56623 21.21214,12.95787 v 106.22721 h -14.9386 v -55.8785 H 589.32621 V 808.40837 H 462.71151 V 950.78786 H 335.01825 V 714.80918 h 217.48373 c 10.20459,0 24.27867,-7.96166 24.27867,-19.5002 V 573.91561 c 0,-8.91608 7.05126,-13.22032 21.21216,-12.95787 z m -119.5165,263.21543 h 110.8499 v 126.61469 h -110.8499 z"
     id="path7"
     sodipodi:nodetypes="sscccccccsssscccccccccssssccccc" />
  <rect
     style="fill:none;fill-rule:evenodd;stroke:#613583;stroke-width:14;stroke-miterlimit:5;stroke-dasharray:none"
     id="rect1"
     width="509.9213"
     height="25.986389"
     x="112.87868"
     y="967.01361" />
  <path
     id="path1"
     style="fill:#000000;stroke:none;stroke-width:1"
     d="m 464.89572,187.36388 c -22.14749,0.44042 -37.49814,6.82692 -46.05519,19.15902 -11.40968,16.44281 -16.10901,27.68291 -14.09529,33.72319 l -24.16022,39.26311 c -6.04028,8.72484 -1.6774,16.10659 13.08771,22.14687 v 7.04766 c -37.58392,-2.01343 -60.73858,0.33438 -69.4634,7.04581 -13.42282,10.73824 -25.16746,33.22184 -35.23457,67.45004 -19.46281,49.66416 -27.34941,80.87193 -23.65827,93.62361 3.69027,12.75167 6.20618,22.98763 7.54961,30.7059 1.34229,7.71798 8.22134,9.22665 20.63731,4.52867 12.41596,-4.69799 28.35723,-14.59596 47.82033,-29.69647 19.46309,-15.10083 34.22662,-31.37642 44.29374,-48.82608 18.79195,36.24161 28.18876,65.60397 28.18876,88.08734 0,22.48308 -3.02073,50.50361 -9.061,84.06066 -62.41612,10.06711 -110.06604,30.53594 -142.95166,61.40815 -13.42339,51.67786 -21.47807,96.30858 -24.16205,133.89249 -2.68457,37.58361 -10.06635,67.9538 -22.14689,91.10831 -12.08053,23.15422 -37.24838,37.75151 -75.50343,43.79178 -18.79195,0.67113 -24.83158,5.03217 -18.12017,13.08586 6.7114,8.05283 12.75104,11.74461 18.12017,11.07435 h 61.40998 c 15.43625,-4.69914 28.01849,-5.37086 37.74989,-2.01519 9.73169,3.35545 18.79205,2.34816 27.18117,-3.02094 8.38941,-5.36914 8.22259,-17.61646 -0.50197,-36.74412 -8.72483,-19.12738 -4.19543,-43.79257 13.58968,-73.99391 17.78509,-30.20107 26.67919,-59.73025 26.67919,-88.58931 0,-29.53022 3.35535,-44.29558 10.06677,-44.29558 h 68.45396 l -49.14675,-12.34657 c 0.67114,-13.42282 -14.77331,-30.84014 -41.45409,-33.96236 28.85907,-20.13423 66.77912,-33.89207 113.75899,-41.27463 10.06711,0 16.27511,-11.07386 18.62395,-33.22122 2.34886,-22.14766 3.52292,-44.96771 3.52292,-68.45765 0,-24.16108 -8.05469,-57.38176 -24.16207,-99.66365 h -14.09346 c 7.38256,-31.54334 16.1083,-47.31468 26.17542,-47.31468 h 34.22697 l -7.04581,-49.32988 -26.17542,8.0534 c -7.3837,-6.71141 -8.05544,-12.75104 -2.01518,-18.12016 l -2.0152,-9.06101 c -12.07996,-1.34228 -16.77745,-4.36117 -14.09346,-9.05916 2.68458,-4.69769 -0.33617,-8.05306 -9.061,-10.06676 l 24.16206,-41.27647 c 13.42282,-32.88563 33.72511,-47.14645 60.90619,-42.78418 27.18107,4.36256 44.79725,16.61018 52.85095,36.74413 8.0537,20.13424 9.90036,34.8996 5.53809,44.29558 -4.36256,9.39597 -10.90672,18.45633 -19.63156,27.18117 -3.35476,-3.35562 -8.38699,-5.3692 -15.09553,-6.04006 7.38226,-23.48994 10.90568,-44.29494 10.57054,-62.41575 -0.3357,-18.12052 -8.89308,-27.18116 -25.6716,-27.18116 -16.10768,0 -25.50294,5.87153 -28.18693,17.61636 -2.68456,11.74483 2.01321,22.65215 14.09347,32.71926 0,61.74498 7.3836,92.61603 22.1487,92.61603 -0.67113,12.07967 3.01882,17.78469 11.07251,17.11441 10.73827,-0.67113 15.92889,4.36255 22.63989,15.10106 6.71068,10.738 5.94614,17.75703 1.52034,31.20787 -14.1417,42.97928 -24.16206,75.83904 -24.16206,100.67126 14.09396,67.11382 21.15577,131.61228 21.14111,152.41765 -0.008,10.22808 -10.73564,23.49275 -23.15447,23.49261 l -21.14295,15.76866 c 21.94547,0 58.22046,-10.90544 59.89859,-32.71742 1.67816,-21.81219 -5.87213,-87.14983 -22.65066,-154.93479 0,-21.47653 6.65163,-52.20359 23.64565,-93.62362 7.39481,-18.02359 7.3424,-48.66383 -8.92341,-61.98387 l -17.73767,-14.52534 c 11.40737,-3.35588 17.11073,-9.39611 17.11073,-18.12016 0,-8.72454 -1.6786,-14.09311 -5.0343,-16.10681 23.48995,-18.79196 31.87922,-44.6309 25.16782,-77.5168 -6.71143,-32.88564 -27.85104,-51.67771 -63.4215,-56.37569 -8.89255,-1.17449 -17.03146,-1.68762 -24.41397,-1.54082 z m -68.20573,132.41052 0.002,0.004 c -0.67114,16.10652 5.2004,23.82474 17.61637,23.15446 12.41682,-0.67114 19.96851,3.01883 22.65251,11.07252 0,2.68398 -2.34966,4.02671 -7.04765,4.02671 -4.69799,0 -12.5843,0.16866 -23.65826,0.50379 -11.07369,0.33572 -19.79759,4.53022 -26.17357,12.58391 -6.37572,8.05369 -16.77848,20.80402 -31.20788,38.25369 -14.42967,17.44938 -29.02667,34.22825 -43.79177,50.33563 10.0671,-37.58362 17.44888,-70.80461 22.14686,-99.66367 17.44966,0.67114 29.02778,-1.67854 34.73262,-7.04765 5.70341,-5.36914 6.20571,-15.77163 1.50772,-31.20788 z m 28.18509,-67.38569 c -2.18122,0.12584 -3.85797,0.77451 -5.03247,1.949 -4.69653,4.69798 -5.20069,9.9 -1.50954,15.60486 3.69141,5.70455 16.94811,4.19432 39.7669,-4.53051 h -0.004 c -15.60403,-9.06041 -26.67759,-13.40087 -33.22121,-13.02335 z"
     sodipodi:nodetypes="scccccccccsccscccscccccscsssccccssccscccccccccsccccsccccsscsccscsscscsssccccsccccccccccccccc" />
  <path
     id="path1-3"
     style="fill:#000000;stroke:none;stroke-width:1"
     d="M 395.32825,4.8678559e-7 C 378.37537,4.8678559e-7 364.48426,13.891113 364.48426,30.843992 c 0,14.627555 10.34264,26.976854 24.06956,30.089334 -3.59804,4.519634 -6.81613,9.805844 -9.68689,15.615964 -3.0298,-12.018718 -19.36103,-19.013661 -29.06833,-8.876264 -10.41966,10.881331 -4.63726,28.128737 11.03596,28.572328 -5.51668,15.937076 -9.67265,36.216306 -11.36022,65.144676 -8.70932,0 -18.06792,-3.83764 -26.89513,-7.42487 -4.21027,-1.40339 -5.84947,0.46863 -4.91386,5.61448 6.33804,17.28561 23.89231,21.79403 36.37547,21.79403 25.0723,0 37.61067,-9.1825 56.07154,-9.04417 25.18068,0.1887 39.62609,6.487 52.80787,26.54579 h 5.26322 5.26322 c 13.18176,-20.05879 27.62718,-26.35709 52.80784,-26.54579 18.46089,-0.13833 30.99924,9.04417 56.07156,9.04417 12.48316,0 30.03743,-4.50842 36.37548,-21.79403 0.9356,-5.14585 -0.7036,-7.01787 -4.91389,-5.61448 -8.82702,3.58715 -18.18401,7.42473 -26.89318,7.42487 -1.68758,-28.92837 -5.84547,-49.2076 -11.36215,-65.144676 15.6732,-0.443591 21.45562,-17.690997 11.03597,-28.572328 C 576.861,57.535639 560.5298,64.5306 557.49994,76.54929 554.6292,70.739188 551.41302,65.45295 547.81499,60.933326 561.54192,57.820846 571.88261,45.471547 571.88261,30.843992 571.88261,13.891113 557.99151,4.8678558e-7 541.03863,4.8678558e-7 524.08575,4.8678558e-7 510.19465,13.891113 510.19465,30.843992 c 0,14.62747 10.34237,26.97676 24.06953,30.089334 -16.47775,20.698312 -24.97829,57.499334 -28.72094,86.865354 -0.60577,0.1272 -1.21051,0.25965 -1.81423,0.39952 -3.71626,-29.43121 -12.21643,-66.472347 -28.7692,-87.264874 13.72717,-3.112574 24.06955,-15.461864 24.06955,-30.089334 C 499.02936,13.891113 485.13631,4.8678558e-7 468.18345,4.8678558e-7 451.23056,4.8678558e-7 437.33946,13.891113 437.33946,30.843992 c 0,14.627546 10.34262,26.976854 24.06954,30.089334 -16.55275,20.792565 -25.05488,57.833674 -28.77112,87.264874 -0.60369,-0.13987 -1.2085,-0.27232 -1.81423,-0.39952 C 427.081,118.43264 418.58241,81.631656 402.10463,60.933326 415.8318,57.820752 426.17417,45.471462 426.17417,30.843992 426.17417,13.891113 412.28113,4.8678558e-7 395.32825,4.8678559e-7 Z m 0,13.83453451321441 c 9.47615,0 17.00946,7.533304 17.00947,17.009457 0,9.476144 -7.53332,17.009448 -17.00947,17.009448 -9.47615,0 -17.00945,-7.533304 -17.00945,-17.009448 0,-9.476153 7.5333,-17.009457 17.00945,-17.009457 z m 72.8552,0 c 9.47614,0 17.00945,7.533304 17.00945,17.009457 0,9.476144 -7.53331,17.009448 -17.00945,17.009448 -9.47617,0 -17.00946,-7.533304 -17.00946,-17.009448 0,-9.476153 7.53329,-17.009457 17.00946,-17.009457 z m 72.85518,0 c 9.47616,0 17.00945,7.533304 17.00945,17.009457 0,9.476144 -7.53329,17.009448 -17.00945,17.009448 -9.47616,0 -17.00945,-7.533304 -17.00945,-17.009448 0,-9.476153 7.53329,-17.009457 17.00945,-17.009457 z M 395.32825,80.328301 c 11.61135,16.002052 16.80031,37.366459 18.85651,65.494019 -1.1105,-0.0364 -2.21829,-0.054 -3.3216,-0.054 -15.81913,0 -25.9832,3.99837 -34.87777,7.94984 1.64867,-32.06722 6.66856,-55.922849 19.34286,-73.389819 z m 72.8552,0 c 12.67684,17.470491 17.69714,41.332139 19.3448,73.409109 -7.02981,3.28307 -13.60483,7.67206 -19.3448,13.33659 -5.73986,-5.66441 -12.31517,-10.05354 -19.3448,-13.33659 1.64763,-32.07707 6.66791,-55.938589 19.3448,-73.409109 z m 72.85518,0 c 12.67434,17.467027 17.69614,41.322469 19.3448,73.389819 -8.89471,-3.95154 -19.06025,-7.94984 -34.8797,-7.94984 -1.10314,0 -2.20936,0.0177 -3.31967,0.054 2.0562,-28.12754 7.24324,-49.491966 18.85457,-65.494009 z" />
  <path
     d="M 503.05955,378.9384 421.6024,511.00813 c -28.83795,8.67354 -70.30333,21.47849 -118.46201,45.25388 -15.24837,-12.16969 -31.70435,-14.16687 -49.36655,-5.9902 l 28.48991,11.21771 -42.91572,7.92421 c -4.43266,17.5831 2.29464,28.51906 20.18213,32.81083 17.88753,4.29109 37.25981,-4.56592 70.1369,-29.40075 35.15528,-0.74278 74.59853,-11.48305 114.00052,-31.3554 25.28364,-24.43705 47.48786,-50.41569 66.61352,-77.93357 19.12605,-27.51771 26.81778,-46.30806 23.07556,-56.37317 -4,-31 -20.79711,-39.22327 -30.29711,-28.22327 z"
     style="fill:#000000;stroke:none;stroke-width:1"
     id="path1-34"
     sodipodi:nodetypes="cccccccccccc" />
  <path
     d="m 176.12651,421.19905 c -3.67488,-39.23635 -11.73713,-60.4462 -24.13611,-63.63903 -12.41738,-3.1898 -19.94349,1.50189 -22.57792,14.07955 -2.63434,12.576 12.93699,29.09569 46.71403,49.55948 z m 80.4894,163.21888 -69.36123,-129.05623 c -20.99945,11.28848 -37.01933,25.32146 -48.06003,42.09904 -11.73479,-9.35872 -19.18667,-21.09583 -22.3564,-35.21119 20.3004,-3.80312 39.23762,-12.07854 56.81188,-24.8271 -48.65297,-21.35389 -69.96452,-44.67835 -63.93414,-69.97303 6.03033,-25.29469 21.54244,-35.02981 46.53582,-29.20568 24.99338,5.82414 36.70869,35.41138 35.14637,88.76204 15.92456,-10.33773 31.73814,-24.0698 47.44136,-41.19512 10.62465,9.04134 17.72767,20.31845 21.30988,33.8312 -22.04575,5.70366 -41.60117,14.88537 -58.66759,27.53839 l 80.78192,114.30927 z"
     style="fill:#000000;stroke:none;stroke-width:1"
     id="path1-7"
     sodipodi:nodetypes="cccccccccsscccccc"
     inkscape:transform-center-x="73.948725"
     inkscape:transform-center-y="-112.44042" />
</svg>
