<?xml version="1.0" encoding="UTF-8" standalone="no"?>
<svg
   width="2000"
   height="2000"
   version="1.1"
   id="svg1"
   sodipodi:docname="13661.svg"
   inkscape:version="1.4.2 (f4327f4, 2025-05-13)"
   xmlns:inkscape="http://www.inkscape.org/namespaces/inkscape"
   xmlns:sodipodi="http://sodipodi.sourceforge.net/DTD/sodipodi-0.dtd"
   xmlns:xlink="http://www.w3.org/1999/xlink"
   xmlns="http://www.w3.org/2000/svg"
   xmlns:svg="http://www.w3.org/2000/svg">
  <defs
     id="defs1" />
  <sodipodi:namedview
     id="namedview1"
     pagecolor="#ffffff"
     bordercolor="#666666"
     borderopacity="1.0"
     inkscape:showpageshadow="2"
     inkscape:pageopacity="0.0"
     inkscape:pagecheckerboard="0"
     inkscape:deskcolor="#d1d1d1"
     inkscape:zoom="0.26693281"
     inkscape:cx="365.26046"
     inkscape:cy="1062.065"
     inkscape:window-width="1680"
     inkscape:window-height="998"
     inkscape:window-x="-8"
     inkscape:window-y="-8"
     inkscape:window-maximized="1"
     inkscape:current-layer="svg1" />
  <path
     id="path1"
     style="fill:#000000;stroke:none;stroke-width:1"
     d="M 863.48633,7.2949219 C 799.78681,24.89609 758.29896,52.135014 739.02148,89.013672 719.74399,125.89232 708.42874,153.55279 705.07617,171.99219 l -7.54297,22.6289 c -21.79191,26.82087 -44.42239,62.02356 -67.89062,105.60743 -11.73411,28.49712 -11.31446,44.42274 1.25781,47.77539 12.5722,3.35257 23.8855,9.21807 33.94336,17.59961 -10.05786,5.02889 -13.82894,10.47865 -11.31445,16.3457 2.51448,5.86706 7.96221,9.63813 16.34375,11.31445 l -6.28516,6.28516 c -7.54338,7.54331 -6.28638,13.41076 3.77149,17.60156 10.05778,4.19074 15.08593,14.66864 15.08593,31.43164 0,21.78468 9.21364,35.19375 27.64063,40.22656 -22.72162,98.78433 -63.45843,176.74994 -136.64649,246.97657 -28.09604,-26.22297 -87.88789,-14.19397 -85.58007,25.19531 2.55432,43.59713 84.41936,47.44143 140.0996,-8.4707 60.4149,-60.66654 105.18808,-158.88599 129.91993,-258.66797 20.11565,0 38.55536,-1.67665 55.31836,-5.0293 20.11566,48.61277 15.0875,103.0925 -15.08594,163.43945 -77.10996,162.6014 -114.82671,445.89765 -113.15039,849.88675 L 307.79297,1019.3633 C 302.76408,927.16653 265.03268,879.63228 194.64258,881.06836 l -123.208986,2.51367 c -83.797743,1.70961 -93.873356,20.11635 -30.173828,60.34766 -23.468224,30.17344 -10.058626,74.59501 40.230468,133.26561 -23.468299,72.081 -1.675219,164.6972 65.376956,277.8477 67.0521,113.1504 124.88527,266.1118 173.49804,458.8867 L 104.12109,1874.2773 116.69336,2000 H 1240.6543 l -103.0918,-178.5254 c 26.8209,-248.0928 41.9068,-501.2146 45.2598,-759.3652 h 105.6074 c 0,-628.61381 -54.8994,-965.970024 -164.6973,-1012.068384 C 1004.0603,-0.20299363 920.89299,-8.5674315 863.48633,7.2949219 Z M 1083.5,90.271484 c 96.3874,39.393146 144.582,342.384136 144.582,908.974606 h -52.8027 c 0,-140.80949 -2.9333,-227.13851 -8.8008,-258.98828 -5.8671,-31.84968 -38.5557,-85.90977 -98.0644,-162.18164 -59.5088,-76.27173 -76.27168,-137.45633 -50.2891,-183.55469 25.9829,-46.09836 38.1372,-90.1022 36.4609,-132.00976 -1.6763,-41.90755 -15.9252,-68.30906 -42.7461,-79.20508 -26.82071,-10.89592 -51.1279,-12.99237 -72.91988,-6.28711 C 928.86206,143.49344 875.21968,127.56977 777.99414,129.24609 794.75714,89.014791 825.7691,62.613289 871.0293,50.041016 935.1549,32.228337 1038.3848,71.833005 1083.5,90.271484 Z M 792.8457,168.92773 c 86.90585,-2.56684 128.89249,26.95054 125.95899,88.55469 h 15.08593 c -1.67632,-31.84977 6.70514,-47.77344 25.14454,-47.77344 40.23122,-1.67632 56.57654,18.43815 49.03324,60.34571 -7.5433,41.90762 -20.11567,63.7007 -37.71684,65.37695 -17.60116,1.67632 -27.23969,-10.89593 -28.91601,-37.7168 l -15.08789,2.51368 c -3.35257,38.55499 10.05897,56.99467 40.23242,55.31836 -40.23131,83.81517 -31.01244,160.08603 27.6582,228.81445 -38.55491,23.46822 -78.78574,23.46822 -120.69336,0 4.1297,-11.7444 8.38003,-25.1441 5.02735,-70.4043 -3.35257,-45.26016 -32.26815,-63.28018 -86.74805,-54.06055 -54.47982,9.2197 -77.52803,-7.12363 -69.14649,-49.03125 31.84932,-16.763 42.74533,-28.91759 32.6875,-36.46093 -10.05779,-7.54334 -28.49748,-11.31446 -55.31835,-11.31446 -10e-6,-13.41043 -12.57225,-25.1453 -37.7168,-35.20312 21.79197,-53.64167 43.58309,-91.35842 65.375,-113.15039 23.4683,-13.41043 48.19509,-14.66744 74.17773,-3.77149 25.9827,10.89603 53.22155,17.18313 81.71875,18.85938 v -15.08789 c -18.43934,0 -40.6501,-6.28515 -66.63281,-18.85742 -25.98271,-12.57228 -53.22164,-12.99194 -81.71875,-1.25782 l 17.59961,-22.6289 c 14.24858,-1.67631 27.58097,-2.69776 39.99609,-3.06446 z m -18.58203,48.7168 c -11.55077,0.15716 -22.0415,3.37791 -31.4707,9.66406 l -22.63086,17.60157 v 17.60156 l 10.05859,-2.51367 c 33.52608,13.41043 69.56612,10.8944 108.1211,-7.54493 l 40.23047,10.0586 -2.51368,-20.11524 h -35.20312 c -25.14452,-16.76304 -47.34051,-25.01389 -66.5918,-24.75195 z m -11.35547,12.17969 c -6.70525,8.38154 -6.70525,15.92364 0,22.6289 -6.70528,-3.35257 -15.0867,-5.86668 -25.14453,-7.54296 5.02889,-6.70526 13.41034,-11.73326 25.14453,-15.08594 z m 27.66016,2.51367 35.20117,17.60156 c -13.41043,1.67596 -25.98268,2.51367 -37.7168,2.51367 10.05783,-5.02888 10.89706,-11.73369 2.51563,-20.11523 z m -60.9082,89.12695 c -0.22837,0.0123 -0.46154,0.0581 -0.69727,0.13672 -2.51437,0.8382 -3.77148,3.77192 -3.77148,8.80078 0,5.02886 -1.67662,8.38035 -5.0293,10.05664 -3.35258,1.67628 -7.96107,-0.83782 -13.82813,-7.54296 -5.86716,-6.70492 -11.31685,-9.21925 -16.3457,-7.54297 -1.67629,0 -3.35105,1.257 -5.02734,3.77148 -1.67595,2.51448 -2.51563,5.44821 -2.51563,8.80078 5.02889,-3.35257 11.7337,-1.67584 20.11524,5.0293 8.38154,6.70522 16.34529,7.96221 23.88867,3.77148 7.54334,-4.19074 10.47707,-9.63849 8.80078,-16.34375 -1.51914,-6.07663 -3.3823,-9.05641 -5.58984,-8.9375 z m -33.14844,50.18946 c 16.27433,0.92237 32.5367,2.65226 48.79492,4.00781 l -55.31836,7.54297 c -11.73411,-1.67626 -14.66588,-4.19032 -8.79883,-7.54297 4.4003,-2.51449 9.50758,-3.8507 15.32227,-4.00781 z m 48.79492,14.0664 c -9.70197,3.32492 -45.15119,22.5869 -54.06055,15.08594 -0.8382,-1.67628 1.25825,-4.19029 6.28711,-7.54297 z m 264.01756,256.47461 c 51.9654,43.58387 80.8829,93.03358 86.75,148.35157 5.867,55.31798 9.2185,183.13676 10.0567,383.45512 0.8382,200.3182 -20.5334,431.2291 -64.1172,692.7324 l 45.2597,60.3457 H 182.06836 l 243.90234,-75.4336 c -62.02321,-249.769 -129.07519,-432.905 -201.15625,-549.4082 -72.08099,-116.5031 -88.42439,-188.1636 -49.03125,-214.9844 39.39314,-26.8209 85.07177,0 137.03711,80.4609 l 367.11133,460.1465 h 90.51953 c -3.35258,-486.1278 29.33604,-812.16906 98.06445,-978.12302 53.64167,28.49719 100.57734,25.98311 140.80858,-7.54297 z M 99.091797,938.90039 h 93.035153 c 35.20234,11.73411 40.23048,35.20201 15.08594,70.40431 l -80.46094,10.0586 C 86.520649,1004.2765 77.299823,977.4553 99.091797,938.90039 Z"
     sodipodi:nodetypes="sscccscscsssccsscccccssccscccccccssscccscssccssscccsscccccsscscccsccsccssccccccccsccccccccscssccccsssssccsscccccssccccsscccccccccc" />
  <path
     id="path1-5"
     style="fill:#000000;stroke:none;stroke-width:21.3391"
     d="m 5.5375615,241.26491 -13.7241296,25.6221 -21.0473849,-6.40619 c 6.710481,21.96169 1.2213,30.19546 -16.470032,24.70505 7.320549,23.79184 3.353238,37.82446 -11.897957,42.09475 l 46.669484,147.3264 c 8.5406598,14.03111 15.8613313,19.21591 21.961799,15.5556 0,22.57176 3.355944,45.14246 10.066479,67.71422 -25.0119095,6.10047 -45.908097,19.36954 -50.788468,39.80609 -4.880384,20.43656 -2.747148,52.92299 6.403539,97.45647 l 11.441387,0.91441 3.6603015,10.06648 10.0646936,-0.91705 c -2.44017874,-21.35162 -3.5054642,-40.87078 -3.2004571,-58.56215 0.3050342,-17.69138 5.3376584,-37.82453 15.098401,-60.39627 h 10.063841 c 0,36.60286 2.440233,80.8312 7.320604,132.6852 L 14.689643,703.3744 c -23.1817594,12.20093 -39.255381,29.43468 -40.17047,51.7014 -0.915076,22.2667 1.984325,46.51675 8.694874,72.74874 6.710508,26.23202 18.9090206,49.71856 36.60034,70.46015 10.980852,9.76074 14.701165,0.91566 3.110258,-26.53647 l 2.74589,-8.23767 C 15.909766,839.10863 12.431865,816.7516 9.3816577,795.70498 6.3314108,774.65837 7.6734502,755.53428 19.264357,739.06298 v 0.91441 c 22.571636,46.97342 60.091187,74.72904 112.554863,83.26981 V 592.65101 C 100.21847,580.08494 77.642005,575.32544 50.189908,571.0551 38.719998,533.23294 37.257016,501.26508 44.700781,468.56671 71.787752,451.12027 95.819785,444.95516 131.81922,444.95516 v -92.05244 h -5.49178 v 12.80973 h -6.40354 v -11.89531 c -8.54066,3.05023 -15.55694,7.6263 -21.047383,13.72678 -2.440196,-9.15072 -8.540758,-13.72678 -18.3015,-13.72678 l 0.914413,10.06648 c 9.760742,12.20094 16.165648,26.23093 19.21592,42.09211 l -21.961796,-31.11121 -2.743251,19.21591 c -12.81097,10.3708 -18.302803,23.48767 -16.472666,39.34888 -16.423552,2.5662 -31.550964,8.58581 -45.383532,18.06032 -2.609225,1.78717 2.51709,-2.03303 0,0 C -2.3271731,418.5471 -8.1160163,399.69178 -9.9461537,376.81501 -11.776277,353.93824 -8.4847554,326.26898 15.307058,282.34561 17.747251,267.09443 12.248084,247.36535 5.5375615,241.26491 Z M 58.155437,601.04339 c 19.3643,-0.28477 38.183527,5.44862 58.908683,17.07458 V 792.50141 C 92.766399,785.98842 72.54435,774.40092 58.371842,753.44238 52.392343,698.41571 48.490658,657.45663 48.490658,601.6856 c 3.202744,-0.38128 6.423904,-0.59454 9.664779,-0.64221 z"
     sodipodi:nodetypes="ccccccccsccccsccccsscccscccccccccccccccccccscsccsccccs" />
  <use
     x="0"
     y="0"
     xlink:href="#path1-5"
     id="use1"
     transform="matrix(-1,0,0,1,263.63844,2.5099337e-6)" />
</svg>
