<?xml version="1.0" encoding="UTF-8" standalone="no"?>
<svg
   width="800"
   height="1000"
   version="1.1"
   id="svg1"
   sodipodi:docname="13683.svg"
   inkscape:version="1.4.2 (f4327f4, 2025-05-13)"
   xmlns:inkscape="http://www.inkscape.org/namespaces/inkscape"
   xmlns:sodipodi="http://sodipodi.sourceforge.net/DTD/sodipodi-0.dtd"
   xmlns="http://www.w3.org/2000/svg"
   xmlns:svg="http://www.w3.org/2000/svg">
  <defs
     id="defs1">
    <inkscape:path-effect
       effect="simplify"
       id="path-effect11"
       is_visible="true"
       lpeversion="1.3"
       threshold="10.8696"
       steps="1"
       smooth_angles="360"
       helper_size="0"
       simplify_individual_paths="false"
       simplify_just_coalesce="false" />
    <inkscape:path-effect
       effect="simplify"
       id="path-effect10"
       is_visible="true"
       lpeversion="1.3"
       threshold="10.8696"
       steps="1"
       smooth_angles="360"
       helper_size="0"
       simplify_individual_paths="false"
       simplify_just_coalesce="false" />
    <inkscape:path-effect
       effect="simplify"
       id="path-effect9"
       is_visible="true"
       lpeversion="1.3"
       threshold="10.8696"
       steps="1"
       smooth_angles="360"
       helper_size="0"
       simplify_individual_paths="false"
       simplify_just_coalesce="false" />
    <inkscape:path-effect
       effect="simplify"
       id="path-effect8"
       is_visible="true"
       lpeversion="1.3"
       threshold="10.8696"
       steps="1"
       smooth_angles="360"
       helper_size="0"
       simplify_individual_paths="false"
       simplify_just_coalesce="false" />
    <inkscape:path-effect
       effect="simplify"
       id="path-effect7"
       is_visible="true"
       lpeversion="1.3"
       threshold="10.8696"
       steps="1"
       smooth_angles="360"
       helper_size="0"
       simplify_individual_paths="false"
       simplify_just_coalesce="false" />
    <inkscape:path-effect
       effect="bspline"
       id="path-effect6"
       is_visible="true"
       lpeversion="1.3"
       weight="33.333333"
       steps="2"
       helper_size="0"
       apply_no_weight="true"
       apply_with_weight="true"
       only_selected="false"
       uniform="false" />
    <inkscape:path-effect
       effect="bspline"
       id="path-effect5"
       is_visible="true"
       lpeversion="1.3"
       weight="33.333333"
       steps="2"
       helper_size="0"
       apply_no_weight="true"
       apply_with_weight="true"
       only_selected="false"
       uniform="false" />
    <inkscape:path-effect
       effect="bspline"
       id="path-effect4"
       is_visible="true"
       lpeversion="1.3"
       weight="33.333333"
       steps="2"
       helper_size="0"
       apply_no_weight="true"
       apply_with_weight="true"
       only_selected="false"
       uniform="false" />
    <inkscape:path-effect
       effect="bspline"
       id="path-effect3"
       is_visible="true"
       lpeversion="1.3"
       weight="33.333333"
       steps="2"
       helper_size="0"
       apply_no_weight="true"
       apply_with_weight="true"
       only_selected="false"
       uniform="false" />
    <inkscape:path-effect
       effect="bspline"
       id="path-effect2"
       is_visible="true"
       lpeversion="1.3"
       weight="33.333333"
       steps="2"
       helper_size="0"
       apply_no_weight="true"
       apply_with_weight="true"
       only_selected="false"
       uniform="false" />
  </defs>
  <sodipodi:namedview
     id="namedview1"
     pagecolor="#ffffff"
     bordercolor="#000000"
     borderopacity="0.25"
     inkscape:showpageshadow="2"
     inkscape:pageopacity="0.0"
     inkscape:pagecheckerboard="0"
     inkscape:deskcolor="#d1d1d1"
     inkscape:zoom="0.46201436"
     inkscape:cx="866.85617"
     inkscape:cy="139.60605"
     inkscape:window-width="1680"
     inkscape:window-height="998"
     inkscape:window-x="-8"
     inkscape:window-y="-8"
     inkscape:window-maximized="1"
     inkscape:current-layer="svg1"
     showguides="true" />
  <path
     style="fill:#000000;stroke:none;stroke-width:55.8812"
     d="m 698.05807,685.64176 c 6.76801,0 10.152,-49.52903 10.152,-148.58713 0,-22.76489 15.07402,-34.14734 45.2221,-34.14734 28.91758,0 43.37634,11.07482 43.37634,33.22446 V 677.33563 H 768.19862 V 1004.0426 H 407.34428 V 685.64176 Z m 11.99777,18.45801 H 433.18549 V 979.1243 H 593.77033 V 812.07915 H 742.35735 V 596.12028 h 17.5352 v 65.52598 h 17.53507 V 537.05463 c 0,-9.8443 -8.30613,-14.92025 -24.91832,-15.22786 -16.61221,-0.30734 -24.91834,4.76835 -24.91834,15.22786 v 147.6642 c 0,12.92064 -5.84506,19.38094 -17.53512,19.38094 z M 611.3054,827.76853 V 979.1243 h 8.30613 V 836.99749 h 122.74582 v -9.22896 z m 26.76414,26.76408 V 979.1243 H 742.35735 V 854.53261 Z M 685.1375,373.70116 c -18.45801,4.30687 -36.45457,6.15267 -53.98969,5.53738 -17.53514,-0.61525 -32.76302,-4.61449 -45.68362,-11.9977 -14.15117,49.83666 -18.76567,126.7451 -13.8435,230.72532 -55.37407,3.69151 -99.05807,8.6137 -131.05201,14.76638 -31.99389,6.15269 -57.83511,13.22826 -77.52367,21.22676 -23.99543,5.53726 -36.30077,24.30302 -36.91602,56.29692 -11.69009,55.37408 -20.30384,109.0562 -25.84126,161.04623 -5.53744,51.99015 -17.38131,85.06077 -35.53168,99.2119 -18.15041,14.15114 -44.76072,26.14883 -79.83095,35.99309 l 0.92288,0.92316 h 118.13138 c 21.53434,-4.3071 24.9183,-19.38117 10.15188,-45.22243 v -31.37858 c 11.07483,-36.30077 22.30347,-68.75614 33.68592,-97.36603 11.38245,-28.60996 19.53473,-60.14238 24.45686,-94.59734 3.69162,-19.68858 15.68933,-30.7634 35.99315,-33.22446 h 215.95886 c 43.06873,-1.23049 63.37255,-60.91152 60.91147,-179.04284 z m -0.92293,-16.6122 c -3.0763,-24.61072 -17.53508,-36.91608 -43.37633,-36.91608 -28.30228,0 -44.29923,8.30611 -47.99085,24.91832 6.76793,9.22901 23.68777,14.76641 50.75953,16.61221 z m 31.3787,-341.473433 c -6.76796,-4.306877 -13.53593,0.922896 -20.30388,15.68932 -9.22901,22.149599 -20.76526,37.992726 -34.60874,47.529375 -13.84353,9.536648 -28.45613,21.534368 -43.83781,35.993138 -15.38168,14.45878 -26.14885,27.22559 -32.30152,38.30043 -6.15271,11.0748 -11.07486,26.45647 -14.76645,46.14503 18.45802,-1.8458 32.91679,1.53818 43.37635,10.15193 12.92059,-11.69008 25.37975,-13.84352 37.37748,-6.46031 11.99774,7.38321 8.15233,27.37939 -11.53623,59.98853 l 9.22901,14.76645 c 27.07176,-57.21987 41.99199,-96.90462 44.76068,-119.05426 2.76874,-22.14963 3.69163,-42.14581 2.7687,-59.988533 -0.9229,-17.842752 5.38359,-36.916055 18.91948,-57.219896 7.38319,-13.535882 7.69086,-22.149617 0.92293,-25.841204 z M 615.9199,238.03471 c -1.23054,-3.07638 -0.15382,-7.53708 3.23016,-13.3821 3.38398,-5.84507 7.38324,-9.53667 11.99775,-11.07482 4.6145,-1.53818 7.69081,-1.07672 9.22896,1.38435 1.53823,2.46106 1.53823,6.30651 0,11.53628 -1.53815,5.22977 -5.38356,11.07481 -11.53623,17.53508 -6.15267,6.46031 -10.921,9.0752 -14.30498,7.84466 -3.38394,-1.23051 -4.76831,-3.38393 -4.15309,-6.46026 0.61529,-3.07634 2.4611,-5.5374 5.53743,-7.38319 z m 11.07482,-16.61226 c -3.07631,3.07632 -5.22976,6.30649 -6.46026,9.69047 -1.23056,3.384 -0.46158,4.46072 2.30723,3.23016 2.76869,-1.23056 2.76869,0.15367 0,4.15304 -2.76875,3.99925 -2.76875,5.22976 0,3.69162 2.76869,-1.53819 5.69122,-4.15307 8.76759,-7.84466 3.0763,-3.69162 4.76827,-7.69088 5.07592,-11.99775 0.30764,-4.30688 -2.92251,-4.61451 -9.69048,-0.92288 z m -69.2176,12.92063 v -5.53744 l 5.53744,-6.46031 c 7.38322,-4.30688 16.61222,-2.15344 27.68702,6.46031 h 10.15193 v 4.61451 l -10.15193,-0.92288 c -11.0748,4.92213 -21.22671,4.92213 -30.45571,0 z m 5.53744,-5.53744 c 1.84581,1.23056 3.99925,2.15345 6.46031,2.76869 -1.84582,-2.46104 -2.15347,-4.92211 -0.92293,-7.38319 -2.46105,1.23054 -4.30683,2.76871 -5.53738,4.6145 z m 13.84351,3.69163 9.22901,-1.84581 -8.30614,-4.6145 c 1.84582,1.8458 1.53819,3.99924 -0.92287,6.46031 z m -28.60995,23.99545 c -0.61526,-1.23056 -0.61526,-2.15344 0,-2.76875 l 1.84581,-1.84581 c 0.61531,0 1.69202,1.07672 3.23016,3.23015 1.53819,2.1535 2.92253,2.92259 4.15303,2.30729 1.23056,-0.61526 1.69197,-1.69197 1.38435,-3.23016 -0.30735,-1.53819 4e-5,-2.46107 0.92294,-2.76869 0.92287,-0.30791 1.53818,0.76909 1.8458,3.23015 0.30791,2.46107 -0.61524,4.1531 -2.76874,5.07597 -2.1534,0.9229 -4.15299,0.30763 -5.99879,-1.84581 -1.84583,-2.15343 -3.38402,-2.61488 -4.61456,-1.38434 z m 15.68932,13.8435 -12.92057,2.7687 c -1.23056,1.23056 -1.53819,1.9996 -0.92294,2.30722 0.61531,0.3079 1.53819,0.46158 2.76875,0.46158 1.84581,-0.61525 3.8454,-1.38435 5.99879,-2.30722 2.1535,-0.92288 3.84547,-1.9996 5.07597,-3.23016 z m 0,-1.8458 c 1.23056,0 0.15367,-0.15368 -3.23016,-0.46159 -3.38394,-0.30734 -6.30645,-0.46158 -8.76753,-0.46158 -1.84582,-0.6153 -3.07633,-0.46157 -3.69163,0.46158 -0.61526,0.92294 -0.30735,1.38441 0.92293,1.38441 z m 83.98404,32.30151 c -9.22901,-6.76792 -16.30459,-19.07326 -21.22676,-36.91602 20.30384,-30.1481 25.84125,-47.68323 16.6122,-52.6054 -9.229,-4.92213 -16.91983,-3.99921 -23.07246,2.76875 l -9.22906,18.45801 -5.53738,-0.92294 c 8.61372,-17.84271 -4.61455,-26.14882 -39.68477,-24.91832 l -3.69157,6.46031 c 7.99847,-2.46106 15.53548,-1.9996 22.61105,1.38441 7.0756,3.38394 13.07445,5.38354 17.99655,5.99884 l 0.92293,5.53739 c -7.99846,-1.23055 -15.68931,-3.38399 -23.07252,-6.46032 -7.38321,-3.07633 -14.4588,-3.07633 -21.22675,0 -6.15267,6.76795 -12.30534,18.45805 -18.45801,35.07026 7.99849,2.46109 11.6901,5.53742 11.07482,9.22901 6.76795,0.61525 11.69008,1.9996 14.76638,4.15303 3.07637,2.15345 0.30768,5.69124 -8.30608,10.61341 -1.84579,12.9206 4.46071,17.5351 18.91948,13.84351 14.45878,-3.69162 21.38055,0.92288 20.7653,13.84351 5.53738,-3.69163 22.14959,-5.53744 49.83665,-5.53744 z m 54.45116,72.90923 v 221.49625 c -7.38321,72.60159 -28.91758,108.90236 -64.6031,108.90236 H 406.42135 c -9.84426,4.92202 -15.8431,19.53474 -17.99655,43.83782 -2.15343,24.30307 -12.45918,54.60499 -30.91723,90.90576 -16.61221,44.91447 -24.7645,73.52442 -24.45685,85.8298 0.3079,12.30532 2.76869,23.84155 7.38319,34.6088 4.6145,10.76713 5.99889,20.61139 4.15309,29.53277 -1.84581,8.92143 -11.69011,14.30498 -29.53283,16.15078 H 151.70065 c -0.61525,-15.38168 8.30612,-25.53357 26.76413,-30.45564 32.60919,-10.45962 56.91224,-23.22647 72.90917,-38.30048 15.99697,-15.07401 26.61035,-46.29887 31.84011,-93.67446 5.22978,-47.37559 13.38206,-98.75043 24.45687,-154.12447 0.61528,-37.53133 15.38171,-61.8344 44.29926,-72.90922 26.45652,-9.84426 55.68172,-17.68892 87.67562,-23.53398 31.99389,-5.84501 67.98704,-10.61336 107.97943,-14.30497 -1.8458,-68.90997 -0.46142,-119.66951 4.15309,-152.27866 4.61449,-32.60918 13.9973,-66.75653 28.14843,-102.44205 l 1.84581,-20.30383 h -9.229 l -21.2267,-2.76868 c 0.74547,-3.81847 -5.07598,-5.22982 -4.1531,-10.15195 0.92288,-4.92212 0,-8.15227 -2.76869,-9.69041 -2.76869,-1.53819 -3.07632,-3.23017 -0.92287,-5.07597 2.1534,-1.84579 2.61485,-2.76869 1.38434,-2.76869 -2.46106,0 -4.15309,-0.76909 -5.07597,-2.30728 -0.92288,-1.53813 0.15367,-3.23016 3.23015,-5.07597 -1.84579,-2.46105 -4.76832,-4.15302 -8.76759,-5.07592 -3.99924,-0.92289 -4.15303,-5.69121 -0.46141,-14.30497 6.76792,-13.53588 12.92059,-23.99544 18.45802,-31.37864 v 0 c -11.6901,-2.46108 -19.99621,-9.99812 -24.91834,-22.6111 -4.92213,-12.61299 -4.6145,-22.45727 0.92289,-29.53284 5.53743,-7.07556 5.53743,-9.53663 0,-7.38319 -5.53739,2.15344 -9.229,1.8458 -11.07482,-0.92293 -1.8458,-2.7687 0.46147,-5.99884 6.92178,-9.69042 6.46031,-3.69163 12.61299,-4.92217 18.45801,-3.69163 5.84506,1.23054 9.84431,5.53743 11.99775,12.92064 2.15341,7.38321 0.92287,14.92022 -3.69163,22.61105 -4.61451,7.69085 -3.84542,14.30497 2.30729,19.84235 3.69158,-15.99693 9.07516,-31.07098 16.15073,-45.22215 7.07556,-14.15113 18.15038,-28.76374 33.22446,-43.8378 15.07402,-15.074031 30.3019,-27.687001 45.68361,-37.838902 15.38168,-10.15194 26.45648,-24.764542 33.2244,-43.837806 4.92217,-11.690088 10.45957,-19.2271231 16.61219,-22.6111032 6.15271,-3.3839801 14.1512,-2.92253156 23.99552,1.3843455 9.84426,6.1526703 15.074,12.6129857 15.68932,19.3809457 1.2305,6.152671 -2.15367,15.07405 -10.15195,26.764139 -11.69006,16.612216 -16.91988,34.916426 -15.68932,54.912611 1.23051,19.99617 -0.15646,40.76144 -4.15303,62.29582 -3.99926,21.53435 -15.84316,55.06643 -35.53168,100.59624 11.69005,16.61222 29.68662,29.37901 53.98969,38.30037 24.30308,8.92137 36.45461,35.83931 36.45461,80.75383 h -32.30152 c 0,-38.76185 -7.84466,-61.83437 -23.53403,-69.21754 -15.68929,-7.38321 -31.22479,-18.76568 -46.6065,-34.14739 l -3.69157,4.61451 13.84345,18.45806 c 21.53439,4.92213 32.30158,27.37939 32.30158,67.37179 z"
     id="path1"
     sodipodi:nodetypes="sssscccccsscccccccccssssscccccccccccccsccsccsscccccsccccccscccccsssccsccsscccsssssssccsssssscccccccccccccccccccscssssssscccscsccccscccsscccccsccscccscsccscscscssscccssccscscccscsssscscsssssssssscssscscccsscsccscccsc" />
  <path
     style="fill:#000000;stroke:none;stroke-width:16.7929"
     d="M 386.32734,602.42991 252.60586,393.14296 232.4498,394.12565 378.27942,623.05749 Z"
     id="path1-1"
     sodipodi:nodetypes="ccccc" />
  <path
     d="m 302.76884,624.45436 h 29.02157"
     style="fill:#000000;stroke:none;stroke-width:72.3913"
     id="path1-5"
     sodipodi:nodetypes="cc" />
  <path
     d="m 372.45299,617.20983 21.79134,3.06098 1.00936,-247.11045 c -36.338,-20.86035 -51.06374,-43.10001 -51.06374,-60.59579 0,-26.91721 14.1312,-40.37613 42.39424,-40.37613 22.87973,0 33.64636,8.91675 32.30053,26.74898 -1.34583,17.83286 0.31741,33.47813 5.04685,46.93642 6.05624,18.16932 15.47767,25.23492 28.26305,21.19743 -10.76663,-25.57138 -14.46767,-44.24475 -11.10309,-56.02139 3.36457,-11.776 1.18077,-24.39315 -6.56091,-37.85207 -7.73916,-13.45829 -23.72087,-20.18743 -47.94643,-20.18743 -20.86034,0 -36.50624,5.71977 -46.93641,17.15932 -10.43017,11.44018 -15.6459,25.57138 -15.6459,42.39487 0,22.87909 16.48704,46.09527 49.46048,69.64727"
     style="fill:#000000;stroke:none;stroke-width:63.4825"
     id="path1-9"
     sodipodi:nodetypes="cccsssccccscsc" />
  <path
     id="path1-92"
     style="fill:#000000;stroke:none;stroke-width:51.6172"
     d="m 206.85685,394.562 -168.917397,278.21534 17.271485,7.03321 17.111328,-30.46875 22.300781,8.48632 -13.136719,31.05665 16.21875,6.16992 13.136722,-31.05664 22.30078,8.48437 -10.13672,31.73633 18.24609,6.94336 90.10157,-313.39844 21.25234,-4.62071 C 238.0582,369.36573 219.48927,373.75578 206.85685,394.562 Z m -43.62833,107.71144 -62.23438,137.64062 -17.271484,-7.0332 z m 16.13867,5.21484 -41.88281,146.31055 -18.32422,-7.89649 z"
     sodipodi:nodetypes="sccccccccccccscccccccc" />
  <path
     d="m 551.31687,299.86906 c -8.96211,38.9636 -22.6543,69.9429 -51.52193,97.64246 -11.08196,-10.34315 -34.66571,-5.59854 -33.75544,9.93781 1.00751,17.19606 33.29761,18.71237 55.25963,-3.3411 23.82951,-23.92876 41.48943,-62.66956 51.24444,-102.02666"
     style="fill:#000000;stroke:none;stroke-width:0.394431"
     id="path1-8"
     sodipodi:nodetypes="ccssc" />
</svg>
