<?xml version="1.0" encoding="UTF-8" standalone="no"?>
<svg
   width="800"
   height="1000"
   version="1.1"
   id="svg1"
   sodipodi:docname="136BD.svg"
   inkscape:version="1.4.2 (f4327f4, 2025-05-13)"
   xmlns:inkscape="http://www.inkscape.org/namespaces/inkscape"
   xmlns:sodipodi="http://sodipodi.sourceforge.net/DTD/sodipodi-0.dtd"
   xmlns="http://www.w3.org/2000/svg"
   xmlns:svg="http://www.w3.org/2000/svg">
  <defs
     id="defs1" />
  <sodipodi:namedview
     id="namedview1"
     pagecolor="#ffffff"
     bordercolor="#000000"
     borderopacity="0.25"
     inkscape:showpageshadow="2"
     inkscape:pageopacity="0.0"
     inkscape:pagecheckerboard="0"
     inkscape:deskcolor="#d1d1d1"
     inkscape:zoom="0.65338698"
     inkscape:cx="527.25262"
     inkscape:cy="296.14915"
     inkscape:window-width="1680"
     inkscape:window-height="998"
     inkscape:window-x="-8"
     inkscape:window-y="-8"
     inkscape:window-maximized="1"
     inkscape:current-layer="svg1"
     showguides="true">
    <sodipodi:guide
       position="269.47214,31.415396"
       orientation="0,-1"
       id="guide8"
       inkscape:locked="false" />
    <sodipodi:guide
       position="768.66711,1000"
       orientation="1,0"
       id="guide9"
       inkscape:locked="false" />
  </sodipodi:namedview>
  <path
     style="fill:#000000;stroke:none;stroke-width:53.2434"
     d="m 593.96787,178.15537 c -31.61757,32.27627 -47.65387,63.56547 -46.99518,93.86566 0.65872,30.30019 4.28281,60.10623 10.86979,89.41837 6.58701,29.31215 10.20911,53.84955 10.86779,73.6105 l -48.41526,245.03513 c -17.7849,104.07452 -31.28851,169.28623 -40.51032,195.63425 -9.8805,25.68929 -20.74879,40.51064 -32.60536,44.46278 -11.85661,3.95222 -31.94657,12.18513 -60.27067,24.70043 -19.761,3.29351 -31.45257,9.38748 -35.07541,18.27993 -3.62281,8.89252 4.44666,12.68005 24.20762,11.3626 25.0306,0 43.63744,-1.31758 55.82338,-3.95247 12.18593,-2.63477 28.15944,-1.977 47.92044,1.97523 19.76101,3.9522 29.31364,-2.30526 28.65492,-18.77274 2.6348,-32.2763 15.31511,-71.30399 38.04027,-117.08366 22.72512,-45.77958 33.09905,-79.86761 31.12294,-102.2634 -1.97607,-22.39578 5.27012,-40.51026 21.7376,-54.34295 h 74.10329 c 15.15009,104.07452 24.37179,170.93277 27.6653,200.57433 1.31742,25.03064 -2.63561,41.66393 -11.85742,49.89768 -9.22177,8.23361 -27.99409,13.6678 -56.31818,16.30269 -17.12621,9.22182 -26.019,16.30257 -26.67768,21.24277 -0.65869,4.94026 4.94094,7.41014 16.7975,7.41014 11.8566,0 26.34697,-0.3289 43.47316,-0.98762 17.1262,-0.65873 37.71056,-0.65873 61.75309,0 24.04256,0.65865 32.11207,-6.91642 24.20763,-22.7252 -7.90436,-48.74374 -8.7277,-96.00646 -2.47004,-141.78611 6.2576,-45.77966 2.14114,-89.08934 -12.35022,-129.92868 l -22.7252,-150.18386 c 10.53921,-38.86328 10.04482,-75.25567 -1.48243,-109.17872 -11.52726,-33.923 -12.67949,-72.62187 -3.45766,-116.09604 9.22177,-43.47419 -2.35682,-76.86576 -24.14527,-101.84503 l -20.05603,-22.9525 -13.99185,6.58015 c 11.10982,18.95039 30.77975,36.19511 37.95006,54.12097 6.91933,17.29831 10.69217,34.785 1.47037,67.06126 -9.22183,32.2763 -11.52825,66.52773 -6.91733,102.75621 l -23.27634,5.25588 c -0.83955,-7.14324 -1.97328,-13.50611 -3.40134,-19.08852 3.29351,-21.73712 7.57544,-55.98855 12.84503,-102.75622 5.26956,-46.76767 -3.62318,-69.8219 -26.67767,-69.16321 -23.05449,0.65868 -32.27619,19.43099 -27.66529,56.31819 -3.95218,33.5937 -2.63451,71.46925 3.95247,113.62601 -1.89918,10.03857 -2.84878,20.35665 -2.84819,30.95398 l -24.81709,5.60385 c -1.97608,-21.07838 -6.09253,-45.94466 -12.35022,-74.59811 -6.25762,-28.6534 -9.87973,-53.35427 -10.86778,-74.1033 1.46176,-26.33385 2.14662,-59.25122 28.76132,-86.81209 4.39469,-4.55092 11.348,-8.05359 9.98982,-17.59657 z m 95.28372,249.97721 c 17.78488,28.98281 18.1158,62.57642 0.98963,100.78097 L 712.9644,658.34743 H 549.93754 l 40.51032,-201.56195 28.24457,-8.19056 c 0.96868,7.85759 2.42202,15.85753 4.3608,24.00045 6.58701,27.66541 7.57374,51.7084 2.96284,72.12808 -15.80879,23.71318 -21.73528,53.02483 -17.7831,87.93594 8.56312,1.31736 14.48962,-2.30673 17.7831,-10.8698 31.61759,1.31738 47.09873,-2.3047 46.44003,-10.86779 0,-30.95893 -5.27069,-53.68424 -15.80988,-68.1756 v -0.98761 c 5.12456,-44.41299 6.19744,-78.08212 4.95416,-105.60641 z"
     id="path1"
     sodipodi:nodetypes="csscccscscsscsscccscsssscsccsscccsscccssccccsssccccccccscccccccc" />
  <path
     d="M 768.66711,968.5846 V -6.0714206e-7 h 29.15136 V 1000 l -464.91699,0 v -31.4154 z"
     style="fill:#000000;stroke:none;stroke-width:49.5106"
     id="path1-0"
     sodipodi:nodetypes="ccccccc" />
  <path
     id="path2"
     style="fill:#000000;stroke-width:1"
     d="m 647.41372,6.543415 c -12.1913,-0.592632 -24.80523,0.212512 -37.84314,2.413723 -26.07588,4.402389 -43.17817,25.904957 -51.3057,64.510773 -6.09566,8.127565 -12.86926,19.641899 -20.31952,34.542379 -3.38646,8.80483 -3.04597,13.71584 1.01778,14.73176 4.06377,1.01597 7.11009,2.54014 9.14199,4.57199 -3.38647,2.03189 -4.57016,3.89454 -3.55422,5.58777 1.01592,1.69323 2.87656,2.87892 5.58576,3.55622 0.14287,-0.14287 0.22709,-0.21802 0.24942,-0.22528 v -0.002 h 0.002 0.002 v 0.002 h 0.002 v 0.002 0.002 c -0.0158,0.0805 -0.77894,1.00031 -2.287,2.75968 -2.03189,2.37053 -1.52316,4.23318 1.52467,5.58778 3.04784,1.35459 4.74021,5.41834 5.07887,12.19131 0.33864,6.77291 3.21874,10.49823 8.6371,11.17553 5.41837,0.67731 13.88438,0.67731 25.3984,0 3.94045,-0.78808 4.95081,4.7456 5.22374,10.20432 l 13.98836,-0.16801 c 0.16297,-17.50903 -8.00712,-18.76242 -23.50249,-18.89067 -16.1054,-0.1333 -21.7856,-2.65966 -19.07646,-15.52828 8.80483,-6.09563 11.68294,-10.32766 8.6351,-12.69819 -3.04782,-2.37058 -8.63579,-3.55623 -16.76331,-3.55623 0.67731,-4.74106 -3.04797,-8.46639 -11.17553,-11.17553 6.77296,-16.93239 13.54656,-29.123677 20.31952,-36.573937 7.45022,-3.386462 15.06907,-3.386462 22.85795,0 7.78889,3.386504 15.7482,5.417347 23.87574,6.094652 L 612.11099,80.5803 c -4.74106,0 -11.17619,-1.862637 -19.30375,-5.587767 -8.12753,-3.725089 -15.9166,-4.233827 -23.36686,-1.52467 2.7092,-4.741061 4.74206,-8.464379 6.09666,-11.173529 20.99614,0 38.2667,4.740756 51.81258,14.222858 -0.6773,7.450219 2.20082,7.450219 8.6351,0 6.43434,-7.45026 13.03772,-9.821635 19.81063,-7.112426 6.77296,2.709157 7.95864,8.974075 3.55621,18.794855 -4.40238,9.820789 -10.15859,18.118599 -17.27018,24.891519 -7.11159,6.77296 -8.46755,13.54457 -4.06512,20.3175 2.02824,3.12035 5.71545,9.33355 11.09105,18.33937 -2.57354,12.90614 -6.10732,25.0402 2.7011,34.66102 l 13.99185,-6.58015 c -4.07315,-8.11168 -5.23642,-16.99378 -2.56461,-30.04711 6.48094,-3.1966 19.6939,-6.38468 39.29339,-30.59594 11.51403,-14.22319 16.5932,-33.186154 15.23864,-56.891455 C 717.09039,35.879886 705.40777,19.284303 682.71841,12.511338 671.3737,9.124855 659.605,7.136041 647.41369,6.543408 Z m -12.31802,15.49409 c 9.22814,0.253993 19.34449,1.649957 30.35055,4.189821 22.01207,5.079691 33.69669,17.779775 35.05128,38.098603 0.67731,20.318845 -5.92608,38.098101 -19.81063,53.337241 -13.88456,15.23914 -23.19778,19.80963 -27.93885,13.71398 -5.41835,-6.77297 -2.20177,-16.42467 9.65088,-28.95463 11.85268,-12.529944 14.39228,-24.55102 7.61931,-36.065037 -6.77297,-11.514029 -19.9797,-11.852497 -39.62125,-1.015777 -7.45025,-6.772917 -23.70536,-11.513665 -48.76526,-14.222863 4.06375,-13.545872 13.54524,-22.352395 28.44573,-26.416186 7.45023,-2.031884 15.79009,-2.919144 25.01824,-2.665152 z M 558.26488,130.36137 c 2.70916,0.67731 5.75749,1.01578 9.14399,1.01578 3.38647,0 4.40192,0.33847 3.04733,1.01576 l -15.23864,1.01578 c -1.35447,-0.6773 -1.86321,-1.35424 -1.52467,-2.03154 0.33864,-0.67731 1.8628,-1.01578 4.57199,-1.01578 z m 12.19132,3.04732 c -0.67731,1.35456 -2.20146,2.71051 -4.572,4.06512 -2.37053,1.35459 -4.57164,2.03154 -6.60354,2.03154 -1.35456,0.67731 -2.37004,0.67731 -3.04733,0 -0.67731,-0.6773 -0.33882,-1.69272 1.01578,-3.04732 z m 80.68874,-61.423214 c -13.39999,0.148756 -25.19478,19.46956 -20.74795,26.880834 -8.12145,4.06079 -10.23015,12.44439 -2.54045,15.24064 8.38715,3.04994 24.50672,-18.279552 27.93885,-27.43195 3.84043,-10.241016 0.49028,-14.746643 -4.65045,-14.689524 z m -2.07982,6.690042 c 1.60857,0.08465 2.3276,1.228287 2.15826,3.4295 -0.33863,4.402393 -2.03092,8.634418 -5.07887,12.698182 -3.04783,4.0638 -5.92593,6.77362 -8.63509,8.12822 -2.7092,1.35457 -2.7092,0.16892 0,-3.55622 2.70926,-3.72509 2.53893,-4.91078 -0.50889,-3.55622 -3.04783,1.3546 -3.72482,6.6e-4 -2.03155,-4.0631 5.49623,-13.190953 13.31634,-13.121411 14.09614,-13.080362 z m -19.68391,25.271672 c 4.06376,2.03192 4.91098,3.89455 2.54043,5.58777 -2.37052,1.69325 -3.89468,1.69325 -4.57199,0 -0.67729,-1.69322 -3.5e-4,-3.55585 2.03156,-5.58777 z m -50.1632,-22.938412 c -3.30181,-0.03172 -6.22196,0.84099 -8.76181,2.618891 l -7.11043,6.096659 V 94.8032 l 4.0631,-1.01576 c 9.48212,5.41835 19.97906,5.07988 31.49305,-1.01578 l 11.17554,2.03154 v -5.078872 l -11.17554,-1.015766 c -7.61955,-5.079709 -14.18089,-7.64687 -19.68391,-7.699784 z m -2.66516,3.634668 c -2.03185,2.709157 -1.69338,5.419015 1.01578,8.128214 -2.70916,-1.35459 -5.08053,-2.370037 -7.11243,-3.047332 0.67729,-2.031862 2.71019,-3.726283 6.09665,-5.080882 z m 8.12621,1.015777 10.15976,5.080882 c -4.06376,1.354595 -7.45056,2.031555 -10.15976,2.031555 2.03189,-2.031894 2.03189,-4.40328 0,-7.112437 z M 565.8842,116.64538 c 0.60109,3.00513 -2.32484,6.04845 -6.09465,1.52467 -5.56701,-6.6804 -7.80326,-1.38356 -6.60354,1.01578 2.0319,-1.35456 4.06279,-0.84588 6.09465,1.52465 4.24983,4.95807 10.50674,1.89518 9.14399,-3.55621 -1.54064,-6.16248 -3.13122,-3.46296 -2.54045,-0.50889 z"
     sodipodi:nodetypes="ssccscscccccccccsssscccscscccsccscccsssssccccscssssscscssccsscsccsccscsccscssssssssssscsscsccccccccsccccccccsscsss" />
</svg>
