<?xml version="1.0" encoding="UTF-8" standalone="no"?>
<svg
   width="600"
   height="2000"
   version="1.1"
   id="svg1"
   sodipodi:docname="136B6.svg"
   inkscape:version="1.4.3 (0d15f75, 2025-12-25)"
   xmlns:inkscape="http://www.inkscape.org/namespaces/inkscape"
   xmlns:sodipodi="http://sodipodi.sourceforge.net/DTD/sodipodi-0.dtd"
   xmlns="http://www.w3.org/2000/svg"
   xmlns:svg="http://www.w3.org/2000/svg">
  <defs
     id="defs1" />
  <sodipodi:namedview
     id="namedview1"
     pagecolor="#ffffff"
     bordercolor="#666666"
     borderopacity="1.0"
     inkscape:showpageshadow="2"
     inkscape:pageopacity="0.0"
     inkscape:pagecheckerboard="0"
     inkscape:deskcolor="#d1d1d1"
     inkscape:zoom="0.18875"
     inkscape:cx="-1385.4305"
     inkscape:cy="807.94702"
     inkscape:window-width="1680"
     inkscape:window-height="998"
     inkscape:window-x="-8"
     inkscape:window-y="-8"
     inkscape:window-maximized="1"
     inkscape:current-layer="svg1"
     showguides="true">
    <sodipodi:guide
       position="363.38733,1659.0902"
       orientation="0,-1"
       id="guide1"
       inkscape:locked="false" />
    <sodipodi:guide
       position="600,0"
       orientation="0,-1"
       id="guide2"
       inkscape:locked="false" />
    <sodipodi:guide
       position="426.37134,956.66628"
       orientation="0,-1"
       id="guide3"
       inkscape:locked="false" />
    <sodipodi:guide
       position="444.82942,1380.5092"
       orientation="0,-1"
       id="guide4"
       inkscape:locked="false" />
  </sodipodi:namedview>
  <path
     style="fill:#000000;stroke:none;stroke-width:0.999999"
     d="m 412.2977,1042.4219 c 40.48001,81.3527 44.79873,148.9088 9.46484,204.4336 -12.61929,90.8585 -11.25473,139.5414 -6.20703,327.5683 -2.5238,213.2654 -3.15451,266.3482 -1.89258,275.1817 18.92886,68.144 17.03696,104.1068 -5.67773,107.8925 H 97.549653 C 232.57572,1908.283 315.8648,1855.2828 347.41293,1798.4961 c 6.30965,-36.5958 1.57682,-97.2568 -14.19726,-198.8418 -15.77406,-101.5849 -36.23613,-186.9597 -64.67383,-387.0391 -10.05785,-70.7641 -16.20188,-131.8739 -18.37722,-186.4757 -0.63145,-15.8496 -11.1047,-34.2677 -50.41574,-22.6993 -0.0354,3.5235 -0.0508,6.943 -0.0508,10.2532 0,111.1653 31.05825,331.6513 67.70899,534.2285 24.52843,135.5743 33.9441,170.4413 28.89648,218.3945 -20.19087,59.3107 -87.07324,101.6844 -200.646485,145.8516 -47.95316,1.2619 -72.560311,42.4026 -73.822256,87.832 H 455.30551 c 32.81007,-18.9289 35.33457,-66.882 7.57227,-143.8594 v -449.2539 c -1.26194,-76.9775 5.04854,-123.6672 18.92969,-140.0722 25.23849,-73.1918 21.45265,-147.6458 -11.35743,-223.3614 2.49653,-12.7096 4.83889,-25.0244 7.02707,-36.9697 -58.06705,-14.04848 -75.59718,15.0019 -65.17941,35.9385 z"
     id="path10"
     sodipodi:nodetypes="sccccccssscsscccccccccs" />
  <path
     style="fill:#000000;stroke:none;stroke-width:0.999999"
     d="M 531.66406,0.04296875 C 523.30381,-0.27249708 516.12699,1.14596 510.13281,4.3007812 498.14454,10.610424 487.1032,25.123292 477.00781,47.837891 464.38852,86.95761 442.62025,116.61195 411.70312,136.80273 309.51252,205.17327 229.62522,298.27926 221.46875,426.41406 v -1.89258 c -11.35734,15.14309 -23.97823,36.59895 -37.85937,64.36133 -6.30967,16.40504 -5.99332,25.86683 0.94726,28.39063 6.94057,2.52389 12.9366,5.67909 17.98438,9.46484 -6.30965,3.78575 -8.51984,7.25729 -6.62696,10.41211 1.89287,3.15482 5.36441,4.73047 10.41211,4.73047 1.26195,0 6e-4,1.89589 -3.78515,5.68164 -3.78583,3.78575 -2.84081,6.939 2.83789,9.46289 5.67865,2.52389 7.87581,12.02566 5.67773,28.39258 C 134.74819,718.5644 84.440218,752.62452 56.645799,739.79153 39.652979,731.94576 30.813807,727.189 25.134505,733.94136 c -5.679168,6.75229 -2.41754,15.84393 9.919146,27.44037 72.865489,39.30935 132.496789,-39.08402 225.053769,-156.45204 l 18.14844,-0.58399 v 35.9668 c -4.6958,7.1818 -15.79939,20.02734 -2.17713,19.45798 11.23878,-0.11707 24.74941,6.54033 32.46229,8.93655 35.09318,10.90266 68.72243,8.08354 100.32226,-5.67969 10.48562,-4.56699 26.61214,-3.25686 26.61214,-3.25686 l 9.35466,-40.28025 c -11.35734,-12.6192 -13.88191,-27.13205 -7.57227,-43.53711 82.80346,-187.29362 107.06127,-262.0283 100.32227,-368.16601 -2.5238,-39.75066 8.20314,-76.02977 32.17969,-108.839844 C 584.90286,74.970641 591.84194,57.302653 590.58008,45.945312 588.05619,33.32611 577.9619,20.074589 560.29492,6.1933594 549.56859,2.4076064 540.02431,0.35843457 531.66406,0.04296875 Z m 5.11719,28.32617225 c 2.82084,-0.03452 5.60869,0.777326 8.36914,2.433593 13.88123,7.571587 13.2506,25.239576 -1.89258,53.001954 -27.76231,39.119652 -40.37927,76.343772 -37.85547,111.677732 8.8377,123.72581 -21.70543,205.31011 -92.7539,355.86524 L 391.82812,522.95312 C 486.35609,372.29906 378.24081,384.88635 342.61328,416.95117 321.16055,399.2842 292.13489,392.34315 255.53906,396.12891 277.82805,290.68754 346.25017,214.43208 435.36328,156.67773 463.12566,138.37982 486.4735,106.51717 505.40234,61.087891 516.24706,39.398533 526.70683,28.492408 536.78125,28.369141 Z M 271.98438,411.21484 c 51.3446,1.93229 69.84072,18.3563 55.48632,49.27344 l 11.35742,3.78516 18.92774,-37.85938 c 6.76849,-8.2726 114.46858,-49.17045 1.89258,106.00196 6.30964,16.40504 15.14469,28.3952 26.50195,35.96679 3.78584,30.28619 11.35555,49.2156 22.71289,56.78711 -10.72901,16.0936 -92.11908,14.51965 -94.64453,1.89258 0,-37.85769 -14.51092,-53.0012 -43.53516,-45.42969 -29.02432,7.57159 -41.01254,-1.26144 -35.96484,-26.5 15.59768,-10.79841 36.63766,-25.97204 -15.14258,-30.28711 1.26193,-7.57151 -5.68112,-13.88003 -20.82422,-18.92773 12.61929,-32.81007 24.60954,-55.52524 35.9668,-68.14453 13.88122,-7.57151 28.39401,-8.20214 43.53711,-1.89258 15.1431,6.30965 30.28659,10.72611 45.42969,13.25 l -1.89453,-11.35742 c -8.83345,0 -20.82175,-3.47153 -35.96485,-10.41211 -15.1431,-6.94058 -30.2866,-7.88755 -45.42969,-2.83985 l 7.57032,-13.25 c 8.67574,-0.31549 16.68262,-0.33277 24.01758,-0.0566 z m -50.51563,119.3086 c 7.4661,1.7971 15.06941,2.52693 22.69336,3.33008 l 0.0195,0.45703 -28.39258,1.89257 c -4.18133,0 -5.88789,-5.67966 5.67969,-5.67968 z m 22.71289,7.57226 c -2.64213,5.28429 -13.42342,9.03697 -22.71289,11.35938 -3.07215,0 -6.7432,-0.831 -1.89258,-5.68164 z"
     id="path8"
     sodipodi:nodetypes="sscccccscsssscsscccccsscccscccsscccccccccsscccccccsccccsccsccssscccsscccc" />
  <path
     style="fill:#000000;stroke:none;stroke-width:0.999999"
     d="m 237.08398,501.06641 c -0.15774,3e-5 -0.31491,0.0383 -0.47265,0.11718 -1.26194,0.63093 -1.89258,2.2105 -1.89258,4.73438 0,2.5238 -0.94892,4.41578 -2.8418,5.67773 -1.89287,1.26194 -4.41549,6.9e-4 -7.57031,-3.78515 -4.42376,-5.19901 -6.42338,-6.5842 -12.30273,-2.83985 -1.26194,0.63102 -1.26194,2.20862 0,4.73242 2.52389,-2.52379 5.99338,-1.26254 10.41015,3.78516 9.67188,11.0537 20.33238,1.60035 17.98242,-6.625 -1.1042,-3.86488 -2.2083,-5.79706 -3.3125,-5.79687 z"
     id="path7"
     sodipodi:nodetypes="ssssccccss" />
  <path
     style="fill:#000000;stroke:none;stroke-width:0.999999"
     d="m 259.76953,438.83789 c -6.44767,-0.23662 -12.27501,1.30269 -17.48047,4.61523 l -11.35742,11.35547 v 11.35743 l 7.57227,-1.89258 c 17.66698,8.83345 37.22695,8.20281 58.67968,-1.89258 l 20.82032,1.89258 v -9.46485 h -20.82032 c -14.19668,-10.25315 -26.66795,-15.57633 -37.41406,-15.9707 z m -4.23047,8.40039 c -3.78575,3.78575 -3.78575,8.2023 0,13.25 -5.0477,-1.26194 -9.46417,-2.52525 -13.25,-3.78711 2.52388,-5.0477 6.94036,-8.20094 13.25,-9.46289 z m 15.14453,1.89258 18.92774,9.46484 c -7.57151,1.26194 -14.51066,2.52321 -20.82031,3.78516 5.0477,-3.78575 5.67832,-8.2023 1.89257,-13.25 z"
     id="path6"
     sodipodi:nodetypes="sccccccccscccccccc" />
  <path
     style="fill:#000000;stroke:none;stroke-width:0.999999"
     d="m 380.4707,422.62891 c -12.61929,0 -19.87471,5.04913 -21.76758,15.14453 -1.89287,10.09539 -0.94785,20.82039 2.8379,32.17773 l 13.25,-7.57031 c -6.30964,-6.30965 -9.46485,-11.98746 -9.46485,-17.03516 0,-13.03479 5.74969,-15.14453 15.14453,-15.14453 10.0954,0 15.14259,3.1552 15.14258,9.46485 0,8.83345 -0.94696,15.46018 -2.83984,19.87695 -1.89287,4.41677 -9.77901,13.56221 -23.66016,27.44336 h -1.89453 c 12.6192,-15.1431 20.19291,-25.86808 22.7168,-32.17774 2.5238,-6.30964 1.57683,-11.67316 -2.83985,-16.08984 -4.41677,-4.41677 -8.83332,-4.41677 -13.25,0 -4.41677,4.41668 -4.10076,9.46387 0.94727,15.14258 5.0477,5.67863 6.93967,9.15017 5.67773,10.41211 l -17.03711,13.25 -13.25,15.14453 c -10.36685,13.82255 3.85206,15.14258 5.67969,15.14258 3.78575,0 10.72679,-5.04718 20.82227,-15.14258 21.08318,-23.71863 26.5,-36.0605 26.5,-54.89453 0,-10.0954 -7.57175,-15.14453 -22.71485,-15.14453 z m -24.60742,70.03906 c 3.78575,1.26195 5.67774,3.15385 5.67774,5.67773 0,2.52382 -2.52262,3.78516 -7.57032,3.78516 -2.52381,0 -3.78711,-1.26134 -3.78711,-3.78516 0,-2.52388 1.89394,-4.41578 5.67969,-5.67773 z"
     id="path1"
     sodipodi:nodetypes="ssccssssccsscccccscsscsssc" />
  <path
     style="fill:#000000;stroke:none;stroke-width:0.999998"
     d="m 435.47542,659.77048 c 40.6521,0 61.12408,12.8583 83.5802,56.10275 l 97.49504,187.74924 C 648.906,965.93016 603.00885,1038.5802 477.47711,1006.4834 l -7.02724,36.9691 c 163.6123,49.3298 228.29486,-71.9782 184.09919,-155.06054 L 539.51542,672.14308 c -16.51746,-31.05076 -58.3495,-47.6823 -94.686,-52.65231 z"
     id="path11"
     sodipodi:nodetypes="cssccsscc" />
  <path
     style="fill:#000000;stroke:none;stroke-width:0.999998"
     d="m 273.59054,659.70169 c -40.6521,0 -41.11212,16.61111 -69.56088,56.17154 L 78.444177,890.51056 c -40.989693,56.99966 -4.25293,148.06964 121.278813,115.97284 l 7.02724,36.9691 C 43.137927,1092.7823 -13.756112,952.20915 40.445777,875.28005 L 183.56986,672.14308 c 20.25713,-28.75109 58.3495,-47.6823 94.686,-52.65231 l 15.46208,23.38344 z"
     id="path2"
     sodipodi:nodetypes="cssccssccc" />
</svg>
