<?xml version="1.0" encoding="UTF-8" standalone="no"?>
<svg
   width="800"
   height="1000"
   version="1.1"
   id="svg1"
   sodipodi:docname="136B9.svg"
   inkscape:version="1.4.2 (f4327f4, 2025-05-13)"
   xmlns:inkscape="http://www.inkscape.org/namespaces/inkscape"
   xmlns:sodipodi="http://sodipodi.sourceforge.net/DTD/sodipodi-0.dtd"
   xmlns="http://www.w3.org/2000/svg"
   xmlns:svg="http://www.w3.org/2000/svg">
  <defs
     id="defs1" />
  <sodipodi:namedview
     id="namedview1"
     pagecolor="#ffffff"
     bordercolor="#000000"
     borderopacity="0.25"
     inkscape:showpageshadow="2"
     inkscape:pageopacity="0.0"
     inkscape:pagecheckerboard="0"
     inkscape:deskcolor="#d1d1d1"
     inkscape:zoom="0.32669349"
     inkscape:cx="543.32273"
     inkscape:cy="806.56641"
     inkscape:window-width="1680"
     inkscape:window-height="998"
     inkscape:window-x="-8"
     inkscape:window-y="-8"
     inkscape:window-maximized="1"
     inkscape:current-layer="svg1"
     showguides="true">
    <sodipodi:guide
       position="0,1000"
       orientation="0,-1"
       id="guide2"
       inkscape:locked="false" />
    <sodipodi:guide
       position="800,0"
       orientation="0,-1"
       id="guide3"
       inkscape:locked="false" />
    <sodipodi:guide
       position="904.12239,32.86614"
       orientation="0,-1"
       id="guide4"
       inkscape:locked="false" />
  </sodipodi:namedview>
  <path
     style="fill:#000000;stroke:none;stroke-width:52.9132"
     d="m 442.02152,646.5707 h 195.0012 l -4.97455,-97.50061 c 8.62252,-39.79616 9.11997,-65.9953 1.49237,-78.59743 -7.62758,-12.60215 -12.43628,-23.54609 -14.42611,-32.83184 l -78.59742,15.91843 z m 64.66874,-556.15144 -0.99491,-4.974545 7.95925,-6.964341 c 7.29596,-3.979627 16.25009,-1.326547 26.86241,7.959239 h 10.94393 v 6.964339 L 540.51701,90.41926 c -11.27558,4.642854 -21.55626,4.311206 -30.84202,-0.994953 z m 5.96943,-4.974545 c 1.98981,1.326531 4.31125,2.321428 6.96435,2.984693 -1.98983,-1.989795 -1.98983,-4.311224 0,-6.964286 -3.31637,0.663265 -5.63781,1.989797 -6.96435,3.979593 z m 12.93374,3.979592 c 3.97963,0 7.6276,-0.331633 10.94394,-0.994899 l -8.95408,-5.969386 c 1.98978,2.653061 1.32649,4.97449 -1.98986,6.964285 z m -29.8471,24.872613 c -0.6633,-1.32654 -0.82913,-2.32143 -0.49749,-2.9847 0.33166,-0.66324 1.16075,-0.99488 2.48729,-0.99488 0.66325,0 1.65816,0.99488 2.98468,2.98466 1.32654,1.98986 2.65309,2.65312 3.97965,1.98983 1.32653,-0.66327 1.824,-1.65817 1.49238,-2.98472 -0.33167,-1.32651 0.16578,-2.1556 1.49231,-2.48724 1.32657,-0.33182 1.98984,0.82891 1.98984,3.48213 0,2.65312 -1.16072,4.47711 -3.48215,5.472 -2.32149,0.9949 -4.47713,1e-5 -6.46692,-2.98471 -1.98979,-2.9847 -3.31633,-3.48217 -3.97959,-1.49237 z m 14.92353,15.91849 -13.92864,1.98978 c -0.66327,0.66331 -0.82907,1.32661 -0.49741,1.98984 0.33162,0.66327 1.16068,0.9949 2.48721,0.9949 2.65306,-0.66326 5.14033,-1.49234 7.46182,-2.48726 2.32143,-0.99491 3.81378,-1.824 4.47702,-2.48726 z m 0.99493,-1.98981 c 0.66327,-0.66327 -0.66326,-0.9949 -3.97964,-0.9949 -3.31636,0 -6.30107,-0.33164 -8.95413,-0.99489 -1.9898,-1.32657 -3.31632,-1.4924 -3.97963,-0.49748 -0.66325,0.99492 -0.3316,1.824 0.99494,2.48727 z m 133.31715,64.66876 v -72.62801 c 0,-62.347327 -22.21951,-93.520995 -66.65855,-93.520995 -31.17368,0 -51.07179,9.285768 -59.69429,27.857306 27.8573,5.969424 45.10232,13.928662 51.73501,23.877713 19.2348,-8.622485 29.01802,-3.813782 29.34967,14.426108 0.3318,18.239918 -5.80342,31.671148 -18.40568,40.293668 v 116.40376 h 22.88276 v -56.70955 z m -27.8573,14.92357 v 56.7095 H 567.37941 V 121.26126 c 14.59196,-5.30616 21.88793,-13.26539 21.88793,-23.877713 0,-10.612284 -7.29597,-12.270446 -21.88793,-4.974495 -3.31635,-5.306155 -7.6276,-9.285784 -12.93373,-11.93888 v 3.979645 c -7.95926,-1.32653 -15.58685,-3.97961 -22.88281,-7.959237 -7.29595,-3.979628 -14.59191,-4.311262 -21.88788,-0.994898 -6.6327,6.632688 -13.59706,18.571541 -20.89302,35.816538 7.29596,2.65307 10.61232,6.63267 9.94905,11.93884 7.29599,0 12.43634,1.32655 15.42107,3.97964 2.98466,2.65307 -0.4975,6.30106 -10.44652,10.94394 -2.6531,13.92864 3.48215,19.23479 18.40574,15.91848 14.92353,-3.31638 22.71694,7.95922 23.38024,33.82673 1.32654,13.2654 -9.28578,21.8879 -31.83695,25.86752 -22.55117,3.9796 -29.51551,16.91334 -20.89302,38.80124 6.63269,54.38812 16.25011,94.35009 28.85225,119.88593 12.60212,25.53587 18.57154,44.93652 17.90828,58.20194 l 78.59743,-13.92868 c 0,-11.93886 4.31124,-32.83184 12.93373,-62.67895 8.62252,-29.84711 20.56135,-60.02585 35.81654,-90.53624 1.32657,-11.9389 -0.82905,-24.20939 -6.46686,-36.81152 -5.63778,-12.6021 -20.06388,-18.90316 -43.27831,-18.90316 z M 192.34013,341.04135 C 182.31117,340.63693 177.72002,323.41 178.5667,289.36049 c -7.63152,-3.2906 -10.88431,-9.65068 -9.75836,-19.08029 l 27.02708,1.3612 5.44287,-108.0694 23.81728,1.19954 -5.68248,112.82724 c 7.02854,2.88671 14.58219,9.43218 18.33657,14.27985 68.13169,24.59604 117.08865,44.44893 135.76449,56.27206 9.94906,-19.89806 31.5301,-55.26845 47.11694,-72.18185 15.58682,-16.91334 27.69149,-33.6609 36.31402,-50.24265 8.62246,-16.58173 22.38529,-26.36497 41.28849,-29.34966 18.90314,-2.98472 28.68638,-6.13524 29.34969,-9.45157 l -1.98986,-22.88281 c -10.61229,0.66326 -18.57152,0.49744 -23.87765,-0.49749 -5.30617,-0.99488 -7.95925,-4.80866 -7.95925,-11.44134 0,-7.29598 -1.32655,-11.60725 -3.97965,-12.93378 -2.65305,-1.32654 -2.81888,-2.98471 -0.49746,-4.97451 2.32144,-1.98981 2.8189,-2.98472 1.49237,-2.98472 -1.98982,0 -3.48216,-1.16073 -4.47707,-3.48218 -0.99488,-2.32144 -0.1658,-4.14543 2.48725,-5.47196 -1.32651,-1.98982 -3.9796,-3.81379 -7.95922,-5.47199 -3.9796,-1.65818 -3.64797,-6.7985 0.99489,-15.42098 7.95926,-13.928687 14.92358,-24.872639 20.89298,-32.83186 l 1.98984,-4.974543 c -7.95926,-1.32653 -12.76794,-8.622485 -14.4261,-21.887864 -1.65818,-13.265378 -0.16584,-21.556249 4.47703,-24.872613 4.64292,-3.316363 4.47711,-4.808718 -0.49744,-4.477067 -4.9745,0.33165 -7.79341,-0.663246 -8.45666,-2.984694 -0.66327,-2.3214463 1.98982,-4.8087178 7.95924,-7.4618155 5.96938,-2.65306167 10.94389,-2.48723638 14.92352,0.4974759 3.97962,2.9847117 6.13528,7.2959545 6.46692,12.9337266 0.33162,5.637811 -1.49237,11.607235 -5.47198,17.908272 -3.97962,6.301076 -4.6429,12.104692 -1.98984,17.410851 7.95927,-26.530793 31.83696,-39.79619 71.63309,-39.79619 53.06155,0 79.59233,36.479826 79.59233,109.439471 v 74.61785 c 26.5308,0 45.76564,20.893 57.70453,62.67895 23.21438,55.71461 38.46959,98.49549 45.76558,128.34265 3.97958,64.33713 -2.65313,116.07215 -19.89813,155.20506 l -0.99485,23.87771 c 27.85732,0 44.43907,29.68128 49.74523,89.04383 5.30615,59.36263 -4.31125,88.04905 -28.8522,86.05925 -24.541,-1.98968 -29.1839,-25.70155 -13.92869,-71.13561 15.2552,-45.43399 12.27051,-71.13567 -8.95413,-77.1051 -1.32646,13.26541 -9.2857,22.88282 -23.87772,28.85219 -14.59194,5.96942 -22.55118,0.66328 -23.87771,-15.91848 -11.93886,10.61233 -17.24499,7.95924 -15.91842,-7.95925 l 0.99489,-9.94896 H 665.8749 v -21.88787 h 18.90325 c 9.28574,-12.60214 19.23477,-20.22976 29.84709,-22.88287 v 0 c 7.29595,-21.88785 8.78831,-43.44411 4.47706,-64.66873 -4.31124,-21.22465 -2.15561,-53.06158 6.46686,-95.51083 -22.55115,-26.53074 -40.79105,-57.37274 -54.7197,-92.52603 v 0.99483 c -7.95926,16.58175 -15.91849,38.63547 -23.87772,66.16118 -7.95921,27.52568 -12.27047,49.24773 -12.93373,65.16617 0,8.62252 3.64798,19.23484 10.94393,31.83696 7.29596,12.60211 11.27559,28.8522 11.93888,48.75027 0.66327,19.8981 -1.65816,35.1533 -6.96434,45.76563 l 5.9694,119.38852 v -0.99485 51.73502 c 20.56137,24.54096 22.8828,76.27599 6.96434,155.20506 -4.6429,23.2144 -3.97961,48.29094 1.98984,70.84209 6.63266,14.59189 -0.16587,22.21952 -20.39558,22.88287 -20.22968,0.66323 -37.64049,0.99484 -52.23245,0.99484 h -37.80635 c -9.94905,0 -14.59194,-2.32149 -13.92867,-6.96444 0.66327,-4.64287 8.29086,-11.60715 22.88281,-20.89287 23.87766,-2.65291 39.96195,-8.1249 48.25285,-16.41595 8.29084,-8.29091 11.44136,-26.90055 9.45156,-51.44149 -2.65307,-26.5308 -7.95921,-77.93418 -15.91841,-154.21016 -9.94906,-19.89812 -15.9185,-36.81148 -17.90834,-50.74012 h -65.66365 c -5.96941,11.27558 -13.59703,23.21444 -22.88281,35.81654 -9.28575,12.60216 -13.92863,24.20936 -13.92863,34.82165 2.65308,39.13291 -14.59194,92.52608 -51.735,160.17955 -10.61232,15.25524 -16.25012,31.50533 -16.91344,48.75027 1.32657,15.91851 -7.95918,23.04868 -27.85725,21.39049 -19.89811,-1.65825 -38.30385,-1.82342 -55.21719,-0.49554 -16.91339,1.32646 -30.1788,0.33163 -39.7962,-2.98453 -9.61739,-3.31651 -13.26536,-7.13034 -10.94393,-11.44149 2.32146,-4.31127 11.77305,-8.45669 28.35479,-12.43626 29.84712,-11.27559 50.07681,-19.56645 60.68911,-24.87256 10.6123,-5.3062 19.56645,-19.56652 26.86244,-42.78091 5.96943,-25.8675 16.58173,-66.65861 31.83691,-122.37325 -1.32652,-24.54093 3.648,-52.72985 14.92358,-84.56681 l -35.81654,0.99484 114.41396,-222.85856 c 0,-18.57154 -6.46688,-40.79106 -19.40065,-66.65855 -12.93371,-25.86885 -21.3904,-57.37481 -25.37003,-94.51788 -10.61232,19.2348 -41.12271,64.96208 -91.53119,115.37057 -12.60212,-1.98982 -42.59401,-7.36771 -68.81811,-23.36921 -26.22408,-16.00156 -54.6037,-30.17877 -81.67233,-50.49453 -6.65393,7.27656 -13.34602,12.03167 -20.48877,14.02465 l -31.99393,635.24707 h -23.87775 z"
     id="path1"
     sodipodi:nodetypes="cccscccccccccccccccccccccssssscssscccscsccscscccssccccccccccccscccscccscscscsccscsccccccccccsssccsssssscscccsssssssscsscccccssscsccccccssscccscssccccccsssscsccccscccsccscsccccccccsccccc" />
  <path
     d="m 510.13933,163.50772 -12.36291,42.85804 h -25.55003 l 22.06088,-50.62051"
     style="fill:#a51d2d;stroke:none;stroke-width:42.4571"
     id="path1-1"
     sodipodi:nodetypes="cccc" />
  <rect
     style="fill:#63452c;fill-rule:evenodd;stroke:none;stroke-width:20;stroke-linecap:round;stroke-miterlimit:2"
     id="rect4"
     width="632.39697"
     height="32.86615"
     x="132.69754"
     y="967.13385" />
</svg>
