<?xml version="1.0" encoding="UTF-8" standalone="no"?>
<svg
   width="1500"
   height="1000"
   version="1.1"
   id="svg1"
   sodipodi:docname="136C7.svg"
   inkscape:version="1.4.2 (f4327f4, 2025-05-13)"
   xmlns:inkscape="http://www.inkscape.org/namespaces/inkscape"
   xmlns:sodipodi="http://sodipodi.sourceforge.net/DTD/sodipodi-0.dtd"
   xmlns="http://www.w3.org/2000/svg"
   xmlns:svg="http://www.w3.org/2000/svg">
  <defs
     id="defs1" />
  <sodipodi:namedview
     id="namedview1"
     pagecolor="#ffffff"
     bordercolor="#000000"
     borderopacity="0.25"
     inkscape:showpageshadow="2"
     inkscape:pageopacity="0.0"
     inkscape:pagecheckerboard="0"
     inkscape:deskcolor="#d1d1d1"
     showguides="true"
     inkscape:zoom="0.35594469"
     inkscape:cx="-341.34517"
     inkscape:cy="369.43943"
     inkscape:window-width="1680"
     inkscape:window-height="998"
     inkscape:window-x="-8"
     inkscape:window-y="-8"
     inkscape:window-maximized="1"
     inkscape:current-layer="svg1" />
  <path
     style="fill:#000000;stroke:none;stroke-width:30.3569"
     d="m 224.98268,346.2358 c -243.628892,-229.66076 -243.628892,-229.66076 0,0 z m 16.08477,-32.2021 c -14.86203,-5.20173 -28.23784,-15.9767 -40.12744,-32.32489 -5.20169,-4.4586 -11.70387,-8.73143 -19.50638,-12.81845 -7.80255,-4.08706 -10.21764,-11.88965 -7.24525,-23.40775 2.9724,-11.518 3.52971,-23.59339 1.67201,-36.2261 -1.8578,-12.6327 -6.87372,-18.57752 -15.04781,-17.83441 -8.17409,0.74306 -13.19004,6.87364 -15.0478,18.39177 -1.85774,11.51802 -5.01591,12.81846 -9.47452,3.90123 -18.57752,-0.74311 -38.269673,4.08707 -59.07648,14.49046 v 15.6051 c 5.201668,-8.17409 13.004227,-12.26117 23.40765,-12.26117 10.40342,0 18.20596,-1.11466 23.40763,-3.34393 l 3.34399,4.45861 c -8.17412,2.9724 -17.27709,5.01591 -27.30897,6.13057 -10.031863,1.11468 -16.905547,5.75905 -20.621042,13.93314 -2.229276,11.1465 -1.857732,27.49475 1.114661,49.04466 9.660308,-0.7431 15.976668,1.11464 18.949058,5.57324 l 4.458643,6.68792 16.71973,-11.14655 4.45859,6.6879 -14.49047,8.91723 c 8.17414,16.34818 18.76334,18.20596 31.7676,5.57326 13.00424,-12.63271 25.07964,-11.51805 36.22614,3.34395 19.85306,26.47077 40.8341,42.297 62.42046,-13.37579 z m 2.22926,-18.94905 c 8.17411,-8.17412 28.23788,-13.00428 60.19115,-14.4905 31.95333,-1.48618 96.60308,11.51808 193.94928,39.01279 37.15504,-18.57752 81.3695,-13.74737 132.64342,14.49047 13.37581,7.431 35.48308,15.79085 66.32173,25.07964 30.83868,9.28876 61.49162,13.19001 91.95872,11.7038 30.46712,-20.06371 97.71776,-20.06371 201.75178,0 5.9448,-20.06371 18.20601,-30.28131 36.78351,-30.65285 18.5776,-0.37174 26.9374,8.91718 25.0796,27.86627 -1.8577,18.94906 7.431,33.99683 27.8663,45.14335 20.4352,11.1465 43.6571,15.97665 69.6657,14.49047 2.229,27.49468 -7.0595,41.98515 -27.8663,43.47136 -52.1147,1.20238 -110.0557,-35.39958 -151.03518,-34.55418 -23.62569,0.48739 -57.24837,6.77056 -107.00647,5.57327 -14.55958,-0.3503 -417.46769,78.63324 -602.46877,-16.71977 -70.36663,-36.26824 -67.06803,-60.67759 -102.54792,-94.74536 -15.6051,9.66036 -26.19428,15.60517 -31.76755,17.83447 -5.57326,2.22926 -10.77495,-0.1858 -15.60509,-7.24523 -4.83014,-7.05949 -8.91721,-10.77499 -12.261193,-11.1465 -3.34393,-0.37155 -4.64437,-2.78666 -3.90125,-7.24529 -2.97239,0.74312 -5.38747,0.55735 -7.24524,-0.55728 -1.85776,-1.11466 -1.67199,-3.90128 0.55732,-8.35988 -4.458584,-0.74313 -8.917204,-0.55735 -13.375802,0.55731 -4.4586,1.11467 -7.431013,-4.64438 -8.917218,-17.2771 C 63.837952,279.47948 63.466392,264.24593 64.952579,251.6132 52.319867,208.51339 56.964255,176.37433 78.885722,155.19592 100.80718,134.0176 125.51528,121.38489 153.01,117.29784 c 27.49473,-4.08708 50.90241,9.10296 70.22305,39.57008 25.2654,40.12741 24.52229,78.39709 -2.22931,114.80901 2.22927,12.6327 9.66026,20.4353 22.29297,23.40772 z M 153.01,236.00812 c -3.71548,-1.48621 -5.57322,-6.68792 -5.57322,-15.60511 0,-8.91721 1.85774,-15.60512 5.57322,-20.06373 3.7155,-4.45855 7.431,-5.57324 11.14652,-3.34397 3.71552,2.22931 6.13061,6.68794 7.24523,13.37586 1.11465,6.6879 0.55732,15.41931 -1.67194,26.19427 -2.22932,10.77497 -5.57327,16.34821 -10.03189,16.71979 -4.45861,0.37153 -7.6168,-1.30044 -9.47457,-5.01594 -1.85773,-3.71549 -0.92883,-7.80255 2.78665,-12.26117 z m 1.11466,-24.52232 c -0.74311,5.94479 -0.92888,11.14653 -0.55733,15.60509 0.37157,4.45862 1.67198,5.20175 3.90127,2.22933 2.22932,-2.97241 3.1582,-1.48621 2.78664,4.45861 -0.37155,5.94483 0.37156,7.24524 2.22932,3.90125 1.85774,-3.34395 3.15815,-7.98828 3.90127,-13.93305 0.74309,-5.94483 0,-11.33235 -2.22931,-16.16247 -2.22927,-4.83018 -5.57324,-3.52977 -10.03186,3.90124 z m -20.0637,-11.14652 c 12.6327,-20.8068 25.63696,-27.30892 39.01275,-19.50637 13.37581,7.80255 18.20599,21.73569 14.49049,41.79944 -3.71548,20.06369 -1.48619,31.95326 6.68791,35.66878 8.17409,3.71551 15.60508,-4.64438 22.29298,-25.07965 6.68792,-20.43526 3.34399,-41.79936 -10.03184,-64.0924 -17.09131,-26.75162 -38.0839,-36.22614 -62.97777,-28.42361 -24.89388,7.80257 -43.09984,17.64864 -54.617873,29.53827 -11.518091,11.88962 -15.790919,26.00851 -12.818488,42.3567 27.494701,-10.4034 46.815301,-14.49049 57.961841,-12.26116 z m -49.044683,69.1084 -2.229251,-4.45863 1.114664,-11.1465 c 5.201667,-9.66031 16.34816,-13.37583 33.43947,-11.14649 l 10.03189,-4.45865 3.34394,5.57325 -12.26116,4.45863 c -7.43101,11.88961 -17.46284,18.20595 -30.095573,18.94905 z m 3.34398,-8.91723 c 2.22929,0 4.83014,-0.37175 7.80257,-1.11468 -3.7155,-2.22927 -5.2017,-4.83014 -4.45864,-7.80257 -2.97237,3.71551 -4.08702,6.68793 -3.34393,8.91725 z m 15.605143,-5.57324 c 2.97239,-1.48623 5.94479,-4.08709 8.91718,-7.80257 h -12.26115 c 4.45858,2.97237 5.57324,5.57324 3.34397,7.80257 z M 89.782198,300.8068 c -1.787838,-5.36361 0.615312,-6.40415 4.708649,-4.60749 5.531223,2.42779 7.549083,-1.92552 5.573233,-3.90133 -2.254062,-2.25408 -0.104488,-6.52576 2.81334,-1.54029 3.05139,5.21367 0.12952,12.07515 -7.271923,8.78551 -3.34394,-1.4862 -5.080179,-1.70882 -5.823299,1.2636 z m 158.359822,36.0431 c -22.46896,27.23542 -15.9084,31.68946 -5.50499,48.78077 104.77718,46.07218 231.39243,73.67917 356.23335,65.50505 124.84089,-8.17408 213.26986,-17.83442 265.28693,-28.98094 52.01706,-11.14648 102.73364,-7.61675 152.14979,10.58922 49.4162,18.20599 88.6148,23.59345 117.5957,16.16248 l -1.1148,-6.68794 c -26.7516,0 -51.4597,-7.05945 -74.1243,-21.17834 -22.6644,-14.11895 -31.9532,-27.68051 -27.8662,-40.6848 4.0871,-13.00423 2.4151,-20.2495 -5.0159,-21.73569 -7.4309,-1.48621 -15.6051,9.28876 -24.5223,32.32487 -108.49269,-21.5499 -179.45879,-19.32061 -212.89829,6.68789 -34.92573,-2.97235 -64.83552,-7.98826 -89.7294,-15.04773 -24.89387,-7.05947 -55.17524,-17.64869 -90.84402,-31.7676 -36.41194,-24.52229 -73.56694,-24.89386 -111.46506,-1.11459 -98.08929,-32.69643 -160.69552,-47.93003 -187.81869,-45.70074 -27.12318,2.22932 -60.36182,10.55507 -60.36182,32.84809 z"
     id="path1-4"
     sodipodi:nodetypes="ccscccssssscccsccsccsccccscccsccsccssssssszcssscscsccsscsccsssssssccssssscccsssscscccccccccccccccccccsssscccccsssccsssccscc" />
  <path
     d="m 60.004205,230.56152 c -9.583693,1.70065 -17.992107,-4.65551 -25.22522,-19.06851 -7.23319,-14.41294 -8.87898,-24.44052 -4.937486,-30.08267 3.941556,-5.64219 3.151415,-7.27202 -2.370502,-4.88945 -5.521835,2.38255 -9.127738,2.38787 -10.817688,0.0166 -1.689982,-2.37185 0.323563,-6.26923 6.040624,-11.69213 5.717041,-5.42286 11.439444,-7.2398 17.167192,-5.45087 5.727744,1.78895 9.916583,5.82137 12.566508,12.09725 2.649908,6.27599 2.982791,13.79799 0.99864,22.56604 -1.984159,8.76812 -0.398524,15.63367 4.756945,20.59668"
     style="fill:#000000;stroke:none;stroke-width:53.4238"
     id="path1-0"
     inkscape:transform-center-x="20.143649"
     inkscape:transform-center-y="-19.874068"
     sodipodi:nodetypes="cssssssssc" />
  <path
     style="fill:#63452c;stroke:none;stroke-width:1px;stroke-linecap:butt;stroke-linejoin:miter;stroke-opacity:1"
     d="m 121.73146,349.32112 37.92621,96.1064 31.02425,-20.48756 -51.2867,-82.74017 z"
     id="path2"
     sodipodi:nodetypes="ccccc" />
  <path
     style="fill:#000000;stroke:none;stroke-width:33.6639"
     d="m 1179.5665,544.82767 c -10.1149,15.63219 -15.1724,44.5977 -15.1724,86.89653 0,6.43681 18.3908,25.74713 55.1725,57.93105 -34.0231,66.20689 -51.0346,134.25292 -51.0346,204.13795 0,12.87355 -5.5172,23.44826 -16.5517,31.72414 h -35.8621 c -7.3563,-3.67837 -11.954,-8.73564 -13.7931,-15.17243 34.023,-45.97699 51.0345,-108.04596 51.0345,-186.20687 -57.931,-68.96553 -86.8965,-128.73568 -86.8965,-179.31037 z M 0,462.06905 l 12.669875,53.7931 c 49.655178,159.08046 74.482784,279.54028 74.482784,361.37933 l -31.724124,-5.51726 c -28.505775,-1.83891 -42.75866,10.5747 -42.75866,37.24136 0,24.82762 11.494263,37.24139 34.482798,37.24139 v 0 L 38.876798,1000 h 93.793092 l -6.89651,-53.79294 v 0 c 15.6322,-10.11492 25.74711,-23.44831 30.3448,-40.00005 7.35631,-11.03448 7.5862,-35.86212 0.68965,-74.48276 -6.89656,-38.62068 -4.13794,-61.14941 8.27587,-67.58625 12.41381,-6.43673 14.02299,-25.74709 4.82758,-57.931 -9.19541,-32.18393 -7.5862,-60.22987 4.82758,-84.13792 12.41381,-23.90805 16.78164,-49.65521 13.10349,-77.24141 h 852.41385 c 0,59.77013 28.5057,119.54022 85.5173,179.31037 0,65.28734 -16.5518,124.13792 -49.6553,176.55178 0,30.34481 6.4368,45.51724 19.3104,45.51724 L 1085.7734,1000 h 93.7931 l -6.8965,-53.79294 c 15.6322,-10.11492 23.4483,-27.1265 23.4483,-51.03453 0.9197,-70.80462 17.4712,-141.60919 49.6551,-212.41383 l -52.4138,-53.79307 c -0.9197,-44.13795 6.4368,-72.18393 22.069,-84.13796 39.5402,-191.26439 59.3103,-307.58626 59.3103,-348.96558 C 1274.7389,65.287356 1216.8079,1.4497731e-5 1100.9458,1.4497731e-5 1044.8539,1.4497731e-5 991.98034,20.689668 942.32518,62.06896 842.09527,125.51727 808.99181,175.17247 843.01484,211.0345 882.55503,241.37936 929.91137,201.37935 985.08385,91.034525 1025.5436,58.850597 1064.1643,42.7586 1100.9458,42.7586 c 85.5173,0 128.2759,51.034496 128.2759,153.10349 -18.3908,166.43683 -40.8146,266.20696 -73.1034,266.20696 h -26.207 z m 1160.2562,24.82754 v 33.10349 l -1005.51733,1.3793 c 8.27586,40.45979 5.74711,74.02304 -7.58623,100.6897 -13.33327,26.6667 -16.55169,53.33329 -9.65514,79.99998 6.89655,26.66667 5.28731,45.51723 -4.82761,56.55172 -10.11494,11.0345 -11.72409,37.93107 -4.82754,80.68966 6.89655,42.75863 6.43679,67.12649 -1.37933,73.10347 -7.81608,5.97702 -17.24138,10.8046 -28.275871,14.4827 -39.540235,0 -59.310351,-5.97696 -59.310351,-17.93096 0,-8.27593 6.436789,-12.87362 19.310357,-13.79312 21.149413,5.51725 39.080444,7.81611 53.793085,6.89653 C 112.89982,795.40239 95.092489,644.21491 48.19592,493.41032 l 126.24791,-3.0596 z"
     id="path1"
     sodipodi:nodetypes="cscsccccccccccssccccscssssccccccccccccsscccscscccccssssscsccccc" />
</svg>
