<?xml version="1.0" encoding="UTF-8" standalone="no"?>
<svg
   width="1400"
   height="1000"
   version="1.1"
   id="svg1"
   sodipodi:docname="136CC.svg"
   inkscape:version="1.4.3 (0d15f75, 2025-12-25)"
   xmlns:inkscape="http://www.inkscape.org/namespaces/inkscape"
   xmlns:sodipodi="http://sodipodi.sourceforge.net/DTD/sodipodi-0.dtd"
   xmlns:xlink="http://www.w3.org/1999/xlink"
   xmlns="http://www.w3.org/2000/svg"
   xmlns:svg="http://www.w3.org/2000/svg">
  <defs
     id="defs1" />
  <sodipodi:namedview
     id="namedview1"
     pagecolor="#ffffff"
     bordercolor="#666666"
     borderopacity="1.0"
     inkscape:showpageshadow="2"
     inkscape:pageopacity="0.0"
     inkscape:pagecheckerboard="0"
     inkscape:deskcolor="#d1d1d1"
     showguides="true"
     inkscape:zoom="0.3775"
     inkscape:cx="186.75497"
     inkscape:cy="655.62914"
     inkscape:window-width="1680"
     inkscape:window-height="998"
     inkscape:window-x="-8"
     inkscape:window-y="-8"
     inkscape:window-maximized="1"
     inkscape:current-layer="svg1">
    <sodipodi:guide
       position="0,1000"
       orientation="0,-1"
       id="guide1"
       inkscape:locked="false" />
    <sodipodi:guide
       position="0,0"
       orientation="0,-1"
       id="guide2"
       inkscape:locked="false" />
    <sodipodi:guide
       position="1834.6328,828.37305"
       orientation="1,0"
       id="guide7"
       inkscape:locked="false" />
    <sodipodi:guide
       position="1834.6328,643.31251"
       orientation="0,-1"
       id="guide8"
       inkscape:locked="false" />
    <sodipodi:guide
       position="1888.748,660.9314"
       orientation="1,0"
       id="guide9"
       inkscape:locked="false" />
    <sodipodi:guide
       position="1869.2734,723.40625"
       orientation="0,-1"
       id="guide10"
       inkscape:locked="false" />
    <sodipodi:guide
       position="1251.2512,1237.8876"
       orientation="1,0"
       id="guide11"
       inkscape:locked="false" />
    <sodipodi:guide
       position="70.668373,847.99199"
       orientation="0,-1"
       id="guide14"
       inkscape:locked="false" />
    <sodipodi:guide
       position="54.022723,847.99199"
       orientation="1,0"
       id="guide15"
       inkscape:locked="false" />
    <sodipodi:guide
       position="705.7207,345.23828"
       orientation="0,-1"
       id="guide6"
       inkscape:locked="false" />
    <sodipodi:guide
       position="729.51367,382.13281"
       orientation="1,0"
       id="guide16"
       inkscape:locked="false" />
    <sodipodi:guide
       position="912.16797,82.84868"
       orientation="0,-1"
       id="guide17"
       inkscape:locked="false" />
  </sodipodi:namedview>
  <path
     style="fill:#000000;stroke:none;stroke-width:0.999996"
     d="M 730.85381,0 C 671.8895,1.5962814 624.04249,17.689394 609.31155,81.240427 l -3.53719,8.256287 c -9.4401,11.802566 -20.46189,28.321666 -33.04858,49.561156 -7.0803,13.37328 -7.47722,21.24691 -1.18404,23.60612 6.29373,2.35291 11.01687,5.53159 14.16368,9.44246 -13.79696,3.98336 -1.91744,12.9988 2.94304,12.9988 -2.61484,1.97679 -11.06471,9.10149 -2.94304,13.16066 4.72038,2.35287 7.09142,8.65942 7.09142,18.88491 l -77.22621,53.57536 19.92412,29.23241 85.44417,-64.18694 c 7.92977,-0.004 15.86688,0.1591 23.76798,-0.63461 v 0.36841 l 3.53931,34.21131 c -54.62304,8.36622 -78.22158,15.31549 -110.31312,38.88995 l 18.79546,84.23033 c 0,0 53.01719,196.72281 71.06905,344.74809 l 35.74518,23.5007 C 644.64372,589.47992 613.65364,461.84136 592.92497,379.35726 c -10.28936,-40.94372 -2.88843,-78.54931 83.64647,-91.92259 h 1.18403 c -1.43652,-45.2516 -12.38693,-67.87107 -32.84201,-67.87107 -1.94832,0 -3.99156,-0.004 -6.11183,0.63247 -21.06946,4.10251 -35.08348,-0.66251 -30.67624,-23.58482 15.7335,-7.86624 21.43348,-13.96657 17.10672,-18.29076 -4.32677,-4.32421 -12.37886,-6.50154 -24.17898,-6.50154 0.78668,-7.07772 -4.7147,-12.98026 -16.51471,-17.69874 11.80023,-25.95799 23.19978,-44.43321 34.21345,-55.447239 5.1395,-2.607239 10.40257,-3.882191 15.79917,-3.882181 V 94.7695 c 6.16768,0 12.50524,1.657533 19.00842,5.027881 12.19363,6.295539 24.58639,10.216389 37.17353,11.793469 v -4.69992 c 8.65331,3.94268 16.1287,9.83249 22.42209,17.69874 9.12554,-4.38781 16.43142,-6.60163 21.90674,-6.60163 8.21282,0 12.30457,4.95037 12.30457,14.85791 0,16.52104 -11.39762,28.7174 -34.21131,36.58365 v 219.47841 h 80.2374 v -87.32883 c 23.44237,0 47.22929,11.82094 47.22929,37.75703 0,25.78719 -1.4455,57.8868 -13.74059,99.77149 -14.40994,49.0892 -27.8369,163.64153 -27.8369,295.49588 l 31.41099,-2.71468 c 0,-130.25032 5.56015,-211.63615 26.71315,-292.09728 7.35726,-27.98532 19.65275,-62.13547 26.20419,-89.01969 3.57676,-14.67756 4.53805,-29.25247 6.6293,-42.16522 -6.05709,-5.87661 -19.5159,-11.23554 -29.3474,-11.23552 V 168.73536 C 860.65452,56.235901 817.38861,0 730.85381,0 Z m 0,23.1142 c 71.58786,0 107.3786,48.368608 107.3786,145.12923 v 112.10195 h -66.07372 v 87.32883 H 734.38888 V 187.13046 c 20.45389,-12.5911 30.49872,-32.8333 30.10553,-60.76261 -0.26713,-18.88033 -7.63925,-28.329486 -22.11331,-28.329486 -6.93113,0 -15.49955,2.149666 -25.68883,6.480236 C 706.46538,88.786087 678.5429,75.809437 632.91554,65.583932 646.28901,37.260348 678.93294,23.1142 730.85381,23.1142 Z M 595.59508,175.3966 c 6.08656,1.41194 12.20175,2.45362 18.43769,2.92389 5.50705,0.63591 7.85478,0.94937 7.068,1.77605 l -25.9529,1.20745 c -2.47037,-2.49637 -2.8118,-5.90739 0.44721,-5.90739 z m 23.15679,8.19454 c -1.19392,2.41294 -4.84465,3.86133 -20.14986,7.68557 -1.34067,0 -4.6115,-1.65132 -1.08395,-5.21315 z"
     id="path3"
     sodipodi:nodetypes="cccccccccccccccccccsccsccscccccccccssccccssccssccscssccccccsccsccccccccc" />
  <path
     style="fill:#000000;stroke:none;stroke-width:0.999996"
     d="m 615.63633,150.87904 c -1.38472,0.0124 -2.78973,2.2682 -2.78973,4.38687 0,4.40853 -4.5785,7.68941 -8.85042,0.95831 -4.77849,-7.72589 -12.52904,-2.87343 -10.03447,2.16788 2.4585,-3.3032 5.26945,-2.31678 8.27758,1.77818 6.86027,9.45189 16.65986,3.28459 15.91843,-4.12921 -0.38238,-3.82424 -1.44458,-5.17169 -2.52139,-5.16203 z"
     id="path2" />
  <path
     style="fill:#000000;stroke:none;stroke-width:0.999996"
     d="m 636.28875,101.43288 c -4.51114,0 -8.78572,1.09309 -12.81353,3.06443 l -10.62862,9.44032 v 8.25842 l 5.90527,-1.20533 c 18.35825,9.2337 36.98718,4.40337 48.37712,0 l 18.88277,5.90739 v -10.62862 l -17.69874,-1.20533 c -16.44277,-12.70507 -25.13468,-13.35522 -32.02427,-13.63128 z m -2.18705,5.43462 v 0.0213 c -2.35981,4.70576 -2.35981,8.6457 0,11.79348 l -10.62648,-3.55849 c 1.57324,-3.94267 5.11976,-6.6856 10.62648,-8.25629 z m 12.97752,2.37232 15.32854,9.44458 c -5.50694,0.76311 -11.40734,1.20321 -17.70086,1.20321 4.72037,-2.35288 5.51946,-5.90156 2.37232,-10.60732 z"
     id="path5" />
  <path
     d="m 537.93247,308.60671 c -35.94151,41.16052 -104.00525,139.31059 -136.39488,187.54657 -86.15099,-1.6913 -117.5323,29.48703 -228.03826,29.10038 -33.99221,-21.14395 -58.64237,-24.39405 -119.476607,-24.39405 0,11.32713 5.32558,21.00855 12.717707,21.05278 -0.34967,39.63799 11.857602,67.96338 38.07007,68.12023 0,0 48.59219,-9.99132 68.44607,-24.08101 65.00181,6.32899 136.0887,9.86253 252.80704,3.70477 56.26608,-61.6613 81.80381,-103.46538 130.66433,-176.81934"
     style="fill:#000000;stroke:none;stroke-width:0.999996"
     id="path1-4"
     sodipodi:nodetypes="ccccccccc" />
  <use
     x="0"
     y="0"
     xlink:href="#path1-4"
     id="use14"
     transform="matrix(-1,0,0,1,1427.9353,9.5346749e-6)"
     style="stroke-width:0.917151" />
  <path
     id="path13"
     style="fill:#000000;stroke:none;stroke-width:67.4122"
     d="m 1312.5989,0 c -6.459,35.16585 -18.8985,60.04477 -37.3187,74.63739 -18.181,14.59264 -30.0221,30.50075 -35.5242,47.72484 -5.5021,17.46332 -22.0086,51.55285 -49.5193,102.26822 15.7888,7.1767 28.3481,1.55591 37.6778,-16.86429 9.569,-18.42021 17.583,-29.66432 24.042,-33.73111 6.459,-4.0668 13.7549,-12.79904 21.8885,-26.19555 4.3737,-7.33239 8.5746,-10.9984 12.6025,-10.9984 5.9241,10e-6 13.4393,10.00053 13.4393,20.21876 v 732.46725 c -24.9363,6.669 -41.4192,23.19492 -41.4192,49.58101 0,9.56855 2.4639,22.18271 7.3932,37.84039 4.9293,15.36768 14.8888,23.05149 34.026,23.05149 -8.6987,-31.02533 -10.9732,-50.74169 -10.9732,-59.1504 0,-14.22028 9.2067,-21.46745 27.6182,-21.73972 18.4115,0.27227 27.6182,7.51944 27.6182,21.73972 0,8.40877 -2.2732,28.12507 -10.9719,59.1504 19.1372,0 29.0954,-7.68381 34.0247,-23.05149 4.9293,-15.65768 7.3932,-28.27184 7.3932,-37.84039 0,-26.38609 -16.4816,-42.91201 -41.4179,-49.58101 v -737.5191 c 0,-15.16708 -7.147,-42.09757 -38.1618,-49.73978 10.2867,-10.76505 20.2143,-27.51131 29.7832,-50.23753 9.8082,-22.72623 5.7412,-40.06952 -12.2006,-52.0307 z"
     sodipodi:nodetypes="cccccscsscsccscsccscsccc" />
  <path
     id="path14"
     style="fill:#000000;stroke:none;stroke-width:67.4122"
     d="M 98.958327,241.16329 V 1000 H 132.24963 V 241.16329 Z"
     sodipodi:nodetypes="ccccc" />
  <g
     id="g1369"
     transform="matrix(33.225488,0,0,33.225488,-138.52389,-123.90627)"
     style="stroke-width:0.0401299">
    <path
       id="path1321"
       style="color:#000000;display:inline;overflow:visible;visibility:visible;fill:#000000;fill-opacity:1;fill-rule:evenodd;stroke:none;stroke-width:0.231749;stroke-linecap:butt;stroke-linejoin:miter;stroke-miterlimit:4;stroke-dashoffset:0;stroke-opacity:1;marker:none;marker-start:none;marker-mid:none;marker-end:none"
       d="m 7.648582,3.7292538 c -1.6625437,0 -2.1198788,1.2526666 -2.1198788,2.276174 0,1.3250381 0.4729262,2.943607 1.5441933,5.0915722 -0.9312134,-0.135087 -1.862405,-0.270334 -2.7936314,-0.405328 -0.018401,0.495946 -0.037425,0.991891 -0.055827,1.487838 1.0316005,-0.08612 2.0631975,-0.172253 3.0947978,-0.258373 h 0.6606923 c 1.0316004,0.08612 2.0631968,0.172255 3.0947978,0.258373 -0.0184,-0.495947 -0.03743,-0.991892 -0.05583,-1.487838 C 10.086669,10.826666 9.1554782,10.961913 8.2242648,11.097 9.295532,8.9490348 9.7684582,7.3304659 9.7684582,6.0054278 c 0,-1.0235074 -0.4573352,-2.276174 -2.1198789,-2.276174 z m 0,1.035891 c 0.4633746,0 1.0244669,0.3161838 1.0244669,1.2915723 C 8.6506736,7.5456412 8.2830317,8.6402637 7.648582,10.345574 7.0141322,8.6402637 6.6464905,7.5456412 6.6241151,6.0567171 c 0,-0.9753885 0.5610923,-1.2915723 1.0244669,-1.2915723 z"
       sodipodi:nodetypes="ssccccccccssscccsc" />
  </g>
  <path
     style="fill:#000000;stroke:none;stroke-width:0.999997"
     d="m 404.86429,576.41313 c -57.74173,0.73556 -82.93572,24.82463 -75.58011,72.26861 l 26.73161,202.36646 c -43.76638,11.40127 -63.62635,44.31774 -59.58078,98.74963 -20.22796,4.0456 -38.43423,9.56304 -54.61673,16.55091 -16.55005,6.98787 -33.28393,10.11406 -50.20206,9.37856 -17.2857,-1.10342 -28.31866,6.98692 -33.09977,24.27268 h 871.09275 c -18.7568,-34.93936 -44.31617,-48.91244 -76.68112,-41.92456 -32.73255,6.62003 -54.98613,-8.09232 -66.75518,-44.13505 -11.76894,-36.04271 -31.44334,-43.58163 -59.02701,-22.61801 26.11249,-50.38625 27.21503,-103.5305 3.30938,-159.43346 l -32.54817,2.20409 -134.36432,26.99284 -35.74518,-23.5007 -152.31934,-124.2093 c -26.84824,-24.64144 -50.38591,-36.9627 -70.61397,-36.9627 z m -3.31145,64.54684 h 43.58343 l 172.73124,130.82796 -199.51119,63.26091 c 4.78122,-104.81809 1.58563,-159.88508 -16.80348,-194.08887 z m 401.3204,116.30472 c 15.44685,60.31637 6.06584,112.35798 -28.13789,156.12412 -50.38634,29.42261 -111.80663,33.65151 -184.25978,12.6879 -72.45314,-20.59587 -141.22653,-16.36693 -206.32418,12.68789 6.62006,-22.80251 60.31567,-60.49926 161.08814,-113.09219 z"
     id="path11"
     sodipodi:nodetypes="cccccccccscccccccccccccccccc" />
</svg>
