<?xml version="1.0" encoding="UTF-8" standalone="no"?>
<svg
   width="1500"
   height="1000"
   version="1.1"
   id="svg1"
   sodipodi:docname="136C6.svg"
   inkscape:version="1.4.2 (f4327f4, 2025-05-13)"
   xmlns:inkscape="http://www.inkscape.org/namespaces/inkscape"
   xmlns:sodipodi="http://sodipodi.sourceforge.net/DTD/sodipodi-0.dtd"
   xmlns="http://www.w3.org/2000/svg"
   xmlns:svg="http://www.w3.org/2000/svg">
  <defs
     id="defs1" />
  <sodipodi:namedview
     id="namedview1"
     pagecolor="#ffffff"
     bordercolor="#000000"
     borderopacity="0.25"
     inkscape:showpageshadow="2"
     inkscape:pageopacity="0.0"
     inkscape:pagecheckerboard="0"
     inkscape:deskcolor="#d1d1d1"
     showguides="true"
     inkscape:zoom="0.35033333"
     inkscape:cx="144.14843"
     inkscape:cy="381.06565"
     inkscape:window-width="1680"
     inkscape:window-height="998"
     inkscape:window-x="-8"
     inkscape:window-y="-8"
     inkscape:window-maximized="1"
     inkscape:current-layer="svg1" />
  <path
     style="fill:#000000;stroke:none;stroke-width:33.6639"
     d="m 1179.5665,544.82767 c -10.1149,15.63219 -15.1724,44.5977 -15.1724,86.89653 0,6.43681 18.3908,25.74713 55.1725,57.93105 -34.0231,66.20689 -51.0346,134.25292 -51.0346,204.13795 0,12.87355 -5.5172,23.44826 -16.5517,31.72414 h -35.8621 c -7.3563,-3.67837 -11.954,-8.73564 -13.7931,-15.17243 34.023,-45.97699 51.0345,-108.04596 51.0345,-186.20687 -57.931,-68.96553 -86.8965,-128.73568 -86.8965,-179.31037 z m -92.4138,-121.37934 c 15.6322,10.11495 16.092,14.71264 1.3793,13.79309 z M 0,462.06905 l 12.669875,53.7931 c 49.655178,159.08046 74.482784,279.54028 74.482784,361.37933 l -31.724124,-5.51726 c -28.505775,-1.83891 -42.75866,10.5747 -42.75866,37.24136 0,24.82762 11.494263,37.24139 34.482798,37.24139 v 0 L 38.876798,1000 h 93.793092 l -6.89651,-53.79294 v 0 c 15.6322,-10.11492 25.74711,-23.44831 30.3448,-40.00005 7.35631,-11.03448 7.5862,-35.86212 0.68965,-74.48276 -6.89656,-38.62068 -4.13794,-61.14941 8.27587,-67.58625 12.41381,-6.43673 14.02299,-25.74709 4.82758,-57.931 -9.19541,-32.18393 -7.5862,-60.22987 4.82758,-84.13792 12.41381,-23.90805 16.78164,-49.65521 13.10349,-77.24141 h 852.41385 c 0,59.77013 28.5057,119.54022 85.5173,179.31037 0,65.28734 -16.5518,124.13792 -49.6553,176.55178 0,30.34481 6.4368,45.51724 19.3104,45.51724 L 1085.7734,1000 h 93.7931 l -6.8965,-53.79294 c 15.6322,-10.11492 23.4483,-27.1265 23.4483,-51.03453 0.9197,-70.80462 17.4712,-141.60919 49.6551,-212.41383 l -52.4138,-53.79307 c -0.9197,-44.13795 6.4368,-72.18393 22.069,-84.13796 39.5402,-191.26439 59.3103,-307.58626 59.3103,-348.96558 C 1274.7389,65.287356 1216.8079,1.4497731e-5 1100.9458,1.4497731e-5 1044.8539,1.4497731e-5 991.98034,20.689668 942.32518,62.06896 842.09527,125.51727 808.99181,175.17247 843.01484,211.0345 882.55503,241.37936 929.91137,201.37935 985.08385,91.034525 1025.5436,58.850597 1064.1643,42.7586 1100.9458,42.7586 c 85.5173,0 128.2759,51.034496 128.2759,153.10349 -18.3908,166.43683 -40.8146,266.20696 -73.1034,266.20696 h -26.207 z m 1160.2562,24.82754 v 33.10349 l -1005.51733,1.3793 c 8.27586,40.45979 5.74711,74.02304 -7.58623,100.6897 -13.33327,26.6667 -16.55169,53.33329 -9.65514,79.99998 6.89655,26.66667 5.28731,45.51723 -4.82761,56.55172 -10.11494,11.0345 -11.72409,37.93107 -4.82754,80.68966 6.89655,42.75863 6.43679,67.12649 -1.37933,73.10347 -7.81608,5.97702 -17.24138,10.8046 -28.275871,14.4827 -39.540235,0 -59.310351,-5.97696 -59.310351,-17.93096 0,-8.27593 6.436789,-12.87362 19.310357,-13.79312 21.149413,5.51725 39.080444,7.81611 53.793085,6.89653 C 112.89982,795.40239 95.092489,644.21491 48.19592,493.41032 l 126.24791,-3.0596 z"
     id="path1"
     sodipodi:nodetypes="cscscccccccccccccssccccscssssccccccccccccsscccscscccccssssscsccccc" />
  <path
     style="fill:#000000;stroke:none;stroke-width:28.1705"
     d="m 290.03894,355.82486 c -225.187379,-212.27657 -225.187379,-212.27657 0,0 z m 14.86722,-29.76456 c -13.73704,-4.80796 -26.10037,-14.76733 -37.09,-29.87804 -4.80794,-4.12111 -10.81791,-8.07051 -18.02984,-11.84818 -7.21193,-3.77768 -9.4442,-10.98964 -6.69681,-21.63586 2.7474,-10.64617 3.26253,-21.80751 1.54544,-33.48397 -1.71716,-11.67648 -6.35341,-17.17131 -13.90875,-16.48447 -7.55538,0.68685 -12.19162,6.35337 -13.90877,16.99961 -1.71711,10.64618 -4.63621,11.84817 -8.75734,3.60595 -17.17129,-0.68686 -35.37283,3.77768 -54.60467,13.3936 v 14.42386 c 4.80793,-7.55535 12.01986,-11.33304 21.6358,-11.33304 9.61593,0 16.82786,-1.03029 21.63578,-3.09082 l 3.09087,4.12111 c -7.55538,2.7474 -15.9693,4.63623 -25.24181,5.66652 -9.2725,1.03029 -15.62588,5.3231 -19.06013,12.87846 -2.06053,10.30279 -1.71711,25.41353 1.03029,45.33222 8.92906,-0.68685 14.76731,1.03028 17.51471,5.15138 l 4.12114,6.18167 15.45413,-10.30281 4.12109,6.18167 -13.3936,8.24223 c 7.55539,15.11071 17.34303,16.82785 29.36293,5.15137 12.01989,-11.67646 23.18123,-10.64617 33.484,3.09085 18.35028,24.46705 37.74317,39.09531 57.69554,-12.36331 z m 2.06051,-17.51471 c 7.55539,-7.55536 26.10041,-12.0199 55.63498,-13.39362 29.53462,-1.37369 89.29071,10.6462 179.26826,36.0597 34.34258,-17.17129 75.21023,-12.70675 122.60296,13.39361 12.36334,6.86852 32.79719,14.59557 61.30151,23.18123 28.50431,8.58565 56.83697,12.19161 84.99787,10.8179 28.16092,-18.54498 90.321,-18.54498 186.48019,0 5.49476,-18.54498 16.82786,-27.98917 33.99916,-28.33261 17.1712,-0.3436 24.8983,8.24221 23.1811,25.75694 -1.7171,17.51472 6.8686,31.42346 25.757,41.72623 18.8884,10.30275 40.3525,14.76729 64.3923,13.3936 2.0603,25.41347 -6.5251,38.80708 -25.7569,40.1808 -19.2319,1.37372 -42.0697,-2.06053 -68.5134,-10.30275 -26.4438,-8.24223 -50.1402,-15.45419 -71.08912,-21.63585 -20.94898,-6.18165 -53.91783,-4.46451 -98.90661,5.15142 -44.98879,9.61591 -84.82616,15.62585 -119.51214,18.02984 -34.68602,2.40397 -92.72494,6.00994 -174.11686,10.8179 -81.3919,4.80798 -198.19561,-10.77899 -263.23583,-44.30193 -65.0402,-33.52291 -61.99128,-56.08458 -94.78552,-87.57357 -14.42386,8.92908 -24.2115,14.42391 -29.3629,16.48447 -5.15139,2.06053 -9.95933,-0.17174 -14.42386,-6.69681 -4.46452,-6.52512 -8.24222,-9.95935 -11.33307,-10.30275 -3.09082,-0.34344 -4.29282,-2.57573 -3.60595,-6.69687 -2.7474,0.68688 -4.97967,0.51517 -6.69681,-0.51509 -1.71714,-1.03029 -1.54543,-3.60598 0.51513,-7.72708 -4.12109,-0.68687 -8.24221,-0.51515 -12.36332,0.51514 -4.1211,1.03029 -6.86852,-4.29283 -8.24222,-15.96932 -2.06054,-16.48444 -2.40398,-30.5649 -1.03029,-42.24138 -11.67648,-39.83738 -7.38365,-69.54368 12.87847,-89.11895 20.26211,-19.57525 43.09992,-31.25173 68.51343,-35.0294 25.41352,-3.77772 47.04935,8.4139 64.90751,36.57482 23.35294,37.08996 22.66607,72.4628 -2.06058,106.11855 2.06055,11.67644 8.92905,18.88841 20.60551,21.63583 z M 223.51423,253.9409 c -3.43424,-1.37371 -5.15136,-6.18169 -5.15136,-14.4239 0,-8.24222 1.71712,-14.42389 5.15136,-18.545 3.43427,-4.12108 6.86852,-5.15137 10.30277,-3.09084 3.43428,2.06056 5.66655,6.18168 6.69681,12.36336 1.03027,6.18167 0.51514,14.25215 -1.54538,24.21147 -2.06058,9.95937 -5.15142,15.11075 -9.27252,15.4542 -4.12112,0.34342 -7.04025,-1.20201 -8.75739,-4.63625 -1.71711,-3.43425 -0.85853,-7.21192 2.57571,-11.33304 z m 1.03029,-22.66612 c -0.68686,5.49481 -0.85857,10.30278 -0.51513,14.42387 0.34342,4.12112 1.5454,4.808 3.60594,2.06058 2.06058,-2.74741 2.91914,-1.37372 2.57571,4.12111 -0.34344,5.49481 0.34343,6.69679 2.06057,3.60594 1.71711,-3.09083 2.9191,-7.38361 3.60595,-12.87841 0.68685,-5.49483 0,-10.47451 -2.06056,-14.93904 -2.06053,-4.46454 -5.15136,-3.26257 -9.27248,3.60595 z M 205.99953,220.972 c 11.67648,-19.23183 23.69638,-25.24177 36.0597,-18.02983 12.36333,7.21192 16.82787,20.0904 13.39362,38.63541 -3.43426,18.54497 -1.37371,29.53458 6.18166,32.96883 7.55536,3.43426 14.42386,-4.29282 20.60551,-23.18124 6.18169,-18.8884 3.09085,-38.63536 -9.27246,-59.2409 -15.79759,-24.72667 -35.20115,-33.48401 -58.21069,-26.2721 -23.00952,7.21195 -39.83738,16.31273 -50.48355,27.30239 -10.64622,10.9896 -14.59562,24.03977 -11.84819,39.15049 25.41349,-9.61592 43.2716,-13.39362 53.5744,-11.33305 z m -45.33222,63.87723 -2.06051,-4.12114 1.03029,-10.30277 c 4.80792,-8.92907 15.11068,-12.36332 30.90826,-10.30276 l 9.27252,-4.12114 3.09081,5.15138 -11.33304,4.12114 c -6.86852,10.98963 -16.14099,16.82784 -27.81748,17.51471 z m 3.09085,-8.24225 c 2.06054,0 4.46452,-0.3436 7.21195,-1.03028 -3.43425,-2.06055 -4.80796,-4.46453 -4.12113,-7.21196 -2.74739,3.43425 -3.77766,6.18167 -3.09082,8.24224 z m 14.42391,-5.15137 c 2.7474,-1.37373 5.49479,-3.77771 8.24219,-7.21196 h -11.33304 c 4.12109,2.7474 5.15138,5.15138 3.09085,7.21196 z m -12.88902,42.6409 c -3.16218,-5.9185 1.11727,-6.61875 4.63625,-5.15137 4.2584,1.77571 6.32631,-1.94048 4.79456,-3.82901 -1.85604,-2.28836 -0.6135,-6.12176 2.34825,-1.67922 2.45522,3.6829 0.72869,11.63962 -6.11254,8.59903 -3.09082,-1.37371 -4.97965,-0.68686 -5.66652,2.06057 z m 146.15216,33.05292 c -20.76816,25.17383 -14.70421,29.29071 -5.08829,45.08829 96.84605,42.58476 213.87715,68.10203 329.26822,60.54665 115.39105,-7.55535 197.12636,-16.48444 245.206,-26.78722 48.07963,-10.30276 94.9572,-7.0402 140.63276,9.78766 45.6757,16.82787 81.9071,21.80755 108.6942,14.93905 l -1.0303,-6.18167 c -24.7267,0 -47.5646,-6.5251 -68.5135,-19.57527 -20.9488,-13.0502 -29.5345,-25.58524 -25.7568,-37.60514 3.7777,-12.01988 2.2323,-18.71671 -4.6363,-20.09041 -6.8684,-1.37371 -14.4238,8.58564 -22.6661,29.87804 -100.28025,-19.91869 -165.87455,-17.85815 -196.78285,6.18165 -32.28203,-2.74738 -59.92779,-7.38362 -82.93731,-13.9087 -23.00954,-6.5251 -50.99873,-16.31276 -83.96758,-29.36295 -33.65574,-22.66609 -67.99829,-23.00949 -103.02769,-1.03022 -90.66442,-30.22148 -148.53165,-44.30195 -173.60174,-42.24141 -25.07008,2.06056 -55.79272,9.75611 -55.79272,30.36165 z"
     id="path1-4"
     sodipodi:nodetypes="ccscccssssscccsccsccsccccscccsccsccssscsssssszcssscscsccsscsccsssssssccssssscccsssscscccccccccccccccccccsssscccccsssccsssccscc" />
  <path
     d="m 352.89622,378.65982 c 21.57722,-22.41884 -17.0527,-61.36152 -39.47959,-39.97694 -2.3574,2.24784 -73.8044,81.26077 -87.50291,96.77884 -29.93741,-1.78233 -72.00203,-0.9416 -101.64192,2.52033 -19.7665,-8.39745 -36.189611,-15.23745 -49.268871,-20.51992 -13.393102,-5.28869 -35.445922,-1.33238 -66.157616,11.8695 -2.892668,3.39556 -2.979171,7.7884 -0.261036,13.17886 2.72429,5.07673 5.446299,6.30856 8.166508,3.69435 8.732008,-5.00604 18.054806,-8.11771 27.967162,-9.33334 9.59851,-1.22185 21.709863,1.45202 36.333208,8.02075 -13.777542,6.1614 -25.508346,8.04745 -35.192157,5.6577 -9.677454,-2.70364 -15.437258,-1.17003 -17.278478,4.6008 20.965566,11.24648 49.582018,12.67798 85.84836,4.29513 L 250.9838,470.0108 c 39.35241,-27.46055 70.98039,-59.21244 101.91242,-91.35098 z"
     style="fill:#000000;stroke:none;stroke-width:0.999997"
     id="path1-9"
     sodipodi:nodetypes="ssccccccccccccs" />
</svg>
