<?xml version="1.0" encoding="UTF-8" standalone="no"?>
<svg
   width="700"
   height="1000"
   version="1.1"
   id="svg1"
   sodipodi:docname="13708.svg"
   inkscape:version="1.4.3 (0d15f75, 2025-12-25)"
   xmlns:inkscape="http://www.inkscape.org/namespaces/inkscape"
   xmlns:sodipodi="http://sodipodi.sourceforge.net/DTD/sodipodi-0.dtd"
   xmlns="http://www.w3.org/2000/svg"
   xmlns:svg="http://www.w3.org/2000/svg">
  <defs
     id="defs1" />
  <sodipodi:namedview
     id="namedview1"
     pagecolor="#ffffff"
     bordercolor="#666666"
     borderopacity="1.0"
     inkscape:showpageshadow="2"
     inkscape:pageopacity="0.0"
     inkscape:pagecheckerboard="0"
     inkscape:deskcolor="#d1d1d1"
     inkscape:zoom="1.51"
     inkscape:cx="453.97352"
     inkscape:cy="965.23181"
     inkscape:window-width="1680"
     inkscape:window-height="998"
     inkscape:window-x="-8"
     inkscape:window-y="-8"
     inkscape:window-maximized="1"
     inkscape:current-layer="svg1"
     showguides="true">
    <sodipodi:guide
       position="659.04764,511.42862"
       orientation="1,0"
       id="guide1"
       inkscape:locked="false" />
    <sodipodi:guide
       position="510.47615,780.95238"
       orientation="0.99473836,-0.10244802"
       id="guide2"
       inkscape:locked="false" />
    <sodipodi:guide
       position="700,1000"
       orientation="0,-1"
       id="guide3"
       inkscape:locked="false" />
    <sodipodi:guide
       position="700,0"
       orientation="0,-1"
       id="guide4"
       inkscape:locked="false" />
    <sodipodi:guide
       position="619.14777,50"
       orientation="0,-1"
       id="guide5"
       inkscape:locked="false" />
    <sodipodi:guide
       position="14.813015,28.72493"
       orientation="0.98991855,-0.14163776"
       id="guide6"
       inkscape:locked="false" />
    <sodipodi:guide
       position="664.12701,43"
       orientation="0,-1"
       id="guide7"
       inkscape:locked="false" />
    <sodipodi:guide
       position="188.90967,57.80057"
       orientation="0,-1"
       id="guide9"
       inkscape:locked="false" />
  </sodipodi:namedview>
  <path
     style="fill:#ad7fa8;stroke:none;stroke-width:49.6079"
     d="m 510.64082,212.7555 c -13.87524,23.36385 -28.21912,46.5511 -37.92243,71.83641 -7.98564,18.98221 -3.34766,36.19882 13.91508,51.65036 5.63573,56.13185 6.10832,104.63692 -4.68345,154.94602 l 20.35016,20.34931 c 10.47583,-71.60121 13.59458,-117.82515 5.72796,-182.90727 -23.45711,-17.66571 -20.48522,-48.26307 13.69753,-100.14925 z"
     id="path5"
     sodipodi:nodetypes="cccccccc"
     inkscape:transform-center-x="14.861119"
     inkscape:transform-center-y="149.43447" />
  <path
     style="fill:#000000;stroke:none;stroke-width:55.6253"
     d="m 537.45198,0 c -45.63451,0 -70.91895,17.883975 -75.85242,53.651568 -3.08341,11.716963 -4.62493,25.592594 -4.62493,41.626347 -6.78349,16.033755 -10.17563,26.824435 -10.17563,32.374565 0,3.08343 3.39214,4.93402 10.17563,5.55069 l -2.77534,6.47453 c 0.6167,2.46671 2.15822,3.7011 4.62493,3.7011 -1.23337,3.70011 -1.54241,6.78316 -0.92574,9.24988 h 3.70108 c -3.08341,16.03376 2.46649,24.05044 16.65017,24.05044 h 14.80056 c 0,12.95033 5.85891,24.9753 17.57591,36.07567 l 11.09947,15.72629 V 348.7333 h 10.17563 c -1.23334,8.63353 -4.00928,24.66882 -8.32604,48.10278 -36.05881,13.15828 -111.21038,36.11144 -158.65171,62.9242 -29.68669,-7.54827 -59.92315,-2.639 -84.57871,15.70165 -9.45244,7.36946 -18.80808,12.60283 -28.06644,15.69976 -3.85071,3.2953 -4.26467,8.08933 -1.24256,14.38321 3.02212,6.29384 5.40058,10.75161 7.13281,13.37591 1.73228,2.62437 4.17528,2.89502 7.32251,0.81762 11.54637,-7.62148 20.6441,-13.81604 27.29434,-18.58134 6.64974,-4.76606 18.09515,-9.1161 34.3342,-13.0534 2.97028,-1.20717 4.66992,-1.19954 5.10109,0.0227 0.43063,1.22154 -0.57684,2.26452 -3.02384,3.12629 -3.49513,1.55356 -8.908,3.05459 -16.24041,4.50354 -7.33202,1.44871 -12.66217,3.64776 -15.98999,6.59784 -3.32709,2.94958 -3.8623,5.56344 -1.60679,7.84228 2.0786,3.14906 6.17857,3.08113 12.29839,-0.20487 6.11982,-3.28605 15.59116,-5.20567 28.4136,-5.75747 12.82247,-0.55184 26.14597,-5.7681 39.97024,-15.64663 64.85138,-12.69748 119.56261,-30.93806 178.84552,-55.69845 21.59075,-43.57731 42.69118,-84.46419 48.24126,-118.38175 v 34.22607 c -1.23317,47.48456 -3.08379,82.94536 -5.55069,106.37928 -2.46688,23.43394 -2.15773,55.03901 0.92575,94.81505 3.0834,39.77603 -18.80894,57.19644 -65.6768,52.26294 H 288.61965 c -19.73384,0 -29.60114,6.47513 -29.60114,19.42551 0,70.30177 -8.90276,114.14874 -30.79496,160.09159 -21.89223,45.94288 -28.98362,84.17765 -21.27511,114.7034 7.70853,30.52579 1.69506,45.78842 -18.03877,45.78842 l -123.027545,0.92574 c -19.733838,0.6167 -16.341719,-2.46636 10.175625,-9.24988 28.36739,-2.46671 51.18311,-12.64304 68.45022,-30.52686 17.26713,-17.8838 28.05972,-40.0833 32.37648,-66.60065 8.63356,-64.75164 17.99987,-123.24682 32.18358,-204.03226 -3.0834,-36.38427 11.40845,-58.89286 43.47595,-67.52637 98.05253,-31.45084 181.30445,-49.33481 249.7562,-53.65157 l -20.34937,-20.34939 c -56.11811,2.46675 -138.75376,20.96698 -247.90658,55.50116 -32.68418,13.56706 -47.79419,42.55075 -45.32744,86.9519 -7.40019,60.43489 -15.84123,118.62103 -29.40824,203.10654 -4.31678,24.05063 -14.02956,43.3216 -29.13825,57.81364 -15.10874,14.49206 -43.012619,25.13017 -83.713677,31.9136 -19.733842,0 -29.601128,10.17436 -29.601128,30.52497 H 187.98584 c 19.11713,-1.85007 31.14218,-7.39991 36.07564,-16.65017 4.93347,-9.25025 4.00816,-24.97647 -2.77533,-47.17703 -6.78351,-22.20055 1.69488,-57.50493 25.43716,-105.91451 23.74228,-48.40959 33.5722,-94.10712 33.5722,-165.64226 v 0.92573 l 0,340.93272 h 374.63334 l 0,-488.69168 c 0,-5.87657 2.61295,-8.81546 7.83659,-8.81546 5.87661,0 8.81547,2.93889 8.81547,8.81546 v 83.93183 h 22.19894 v -92.50257 c 0,-14.18372 -9.86534,-21.2751 -29.59922,-21.2751 -20.35052,0 -30.52688,7.09138 -30.52688,21.2751 v 8.32603 h -18.49976 c 3.70023,-40.08435 6.16702,-82.02038 7.40027,-125.80479 h 36.07567 V 222.00656 c 0,-77.70199 -9.09654,-134.129815 -27.28865,-169.280739 C 613.14913,17.574932 581.85312,0 537.45198,0 Z m 1.84959,15.263437 c 39.46768,0.308317 66.60087,17.421547 81.4012,51.339099 14.80042,33.917554 21.89368,85.718904 21.277,155.404024 v 106.37738 h -20.35124 c 0,-85.7189 -10.48352,-128.73279 -31.45073,-129.04111 -20.96722,-0.30834 -31.45072,8.78818 -31.45072,27.28866 v 9.24988 c -6.78351,18.50047 -13.87493,48.10043 -21.2751,88.80148 V 133.20317 c 3.70008,-4.93345 9.71169,-12.6411 18.03689,-23.12469 8.32526,-10.483628 12.48809,-20.967134 12.48809,-31.450724 0,-10.48359 -7.09135,-15.72631 -21.27509,-15.72631 -7.40018,0 -12.02477,5.549902 -13.87484,16.65016 0,-11.716963 -5.55175,-19.117428 -16.65205,-22.200846 -11.10028,-3.083416 -24.97402,-4.315897 -41.62445,-3.699192 3.70013,-25.900674 25.28337,-38.696483 64.75104,-38.388131 z m -48.21659,51.800075 c 6.08975,0.308344 12.1399,1.388155 18.1526,3.238216 12.02531,3.700086 18.03878,11.409629 18.03878,23.126592 h 12.02521 c 0,-10.48359 2.46686,-15.72631 7.4003,-15.72631 5.55016,0 8.32603,2.775899 8.32603,8.326028 0,5.550129 -4.47195,12.796078 -13.41385,21.737972 -8.94189,8.94192 -15.57159,17.11312 -19.88838,24.51332 v 68.45023 c -9.86691,-6.78349 -14.80056,-17.88324 -14.80056,-33.30032 h -24.9743 c -7.40019,0 -11.10136,-3.08306 -11.10136,-9.24988 0,-8.01685 3.70119,-12.33425 11.10136,-12.95097 0,-4.31675 -1.23431,-6.78356 -3.70108,-7.40028 h -13.87482 c 3.08343,-6.78349 0.30753,-11.4081 -8.32602,-13.87482 0,-3.70012 3.70115,-13.25833 11.10135,-28.675375 0,-10.483624 1.84875,-19.425611 5.5488,-26.825784 6.16684,-1.233374 12.2962,-1.696963 18.38594,-1.388619 z M 614.22824,494.88743 h 19.42551 l 0,447.312 H 301.57061 l 0,-319.65762 H 533.7509 c 38.2343,-0.61665 62.74797,-6.9392 73.53994,-18.96452 10.79194,-12.02534 13.10424,-48.25499 6.9374,-108.68986 z"
     id="path4"
     sodipodi:nodetypes="sccscccccscccccccccssscccccccssccccsscsssscccsccccccccscccsssccccsssccsssccccssssscccsscccssscscsssccssscccssccccccsccccccsc" />
  <path
     style="fill:#000000;stroke:none;stroke-width:55.6253"
     d="m 487.52616,85.542401 c -7.33519,-0.186763 -13.90697,2.562523 -17.60055,11.585111 l 0.92384,4.624938 4.62494,-0.92575 c 7.00159,5.25106 15.63752,2.81975 34.22606,-6.474531 l 7.40029,0.925746 v -4.624939 l -7.40029,0.92385 c -6.74168,-2.725352 -14.83909,-5.847664 -22.17429,-6.034425 z m -4.65149,5.110575 c -1.79044,2.738339 -0.88888,5.730372 1.84959,7.400277 -2.4667,0.616683 -5.85694,0.307594 -10.17373,-0.925741 3.08346,-3.700123 5.85743,-5.857867 8.32414,-6.474536 z m 7.40028,0 c 3.70012,0 7.70847,0.925301 12.02523,2.775344 -2.46671,1.233373 -6.78225,2.774918 -12.94907,4.624933 2.01408,-2.237849 2.33478,-4.691001 0.92384,-7.400277 z"
     id="path3" />
  <path
     style="fill:#000000;stroke:none;stroke-width:55.6253"
     d="m 487.26816,74.463794 c -6.62933,0 -12.10194,2.005119 -16.41871,6.013559 v 8.32413 c 9.25021,-8.633546 22.50962,-9.249768 39.77675,-1.849595 h 6.47454 v -6.474535 h -6.47454 c -8.94191,-4.00844 -16.7287,-6.013559 -23.35804,-6.013559 z"
     id="path1" />
  <path
     style="fill:#000000;stroke:none;stroke-width:34.3323"
     d="m 502.9254,238.13081 c -13.50941,5.55067 -64.79511,31.36734 -175.7068,105.30877 -17.32337,24.81637 -17.0891,39.09713 0.70371,42.843 52.78917,13.91626 87.95498,3.51794 140.71532,-5.87543 15.45156,-8.42823 24.34907,-14.51474 26.69005,-18.2606 l 26.68891,-25.28497 c 0.4835,-0.93645 0.58351,-2.22403 0.35012,-3.86287 -0.23405,-1.63883 -2.10639,-2.2246 -5.61811,-1.75639 -3.51165,0.46823 -7.14122,2.34161 -10.88729,5.61926 h -7.72457 c 7.4916,-4.2141 14.04567,-7.25792 19.66449,-9.13085 5.61882,-1.87296 13.57982,-4.68249 23.88102,-8.42833 1.87409,-0.93646 2.57456,-2.57438 2.10766,-4.91554 -0.46804,-2.34117 -1.75664,-5.61934 -3.86406,-9.83345 -2.10687,-4.21411 -3.9774,-6.55495 -5.6181,-7.0232 -1.63857,-0.46821 -3.39389,-0.46821 -5.26797,0 -6.08735,4.21411 -13.57828,7.60827 -22.47471,10.18354 -28.64219,8.65509 -40.14069,23.59555 -52.90387,48.21136 -36.62028,3.28414 -53.60011,4.17507 -89.91908,1.56207 36.29048,-7.69719 91.82924,-35.38986 122.84257,-60.76686 z"
     id="path12"
     sodipodi:nodetypes="cccccccsccscccccscccc" />
  <rect
     style="fill:none;fill-rule:evenodd;stroke:#613583;stroke-width:14;stroke-miterlimit:5;stroke-dasharray:none"
     id="rect1"
     width="656.16638"
     height="36.493774"
     x="7.960649"
     y="957" />
</svg>
