<?xml version="1.0" encoding="UTF-8" standalone="no"?>
<svg
   width="800"
   height="1000"
   version="1.1"
   id="svg1"
   sodipodi:docname="1370F.svg"
   inkscape:version="1.4.2 (f4327f4, 2025-05-13)"
   xmlns:inkscape="http://www.inkscape.org/namespaces/inkscape"
   xmlns:sodipodi="http://sodipodi.sourceforge.net/DTD/sodipodi-0.dtd"
   xmlns="http://www.w3.org/2000/svg"
   xmlns:svg="http://www.w3.org/2000/svg">
  <defs
     id="defs1" />
  <sodipodi:namedview
     id="namedview1"
     pagecolor="#ffffff"
     bordercolor="#000000"
     borderopacity="0.25"
     inkscape:showpageshadow="2"
     inkscape:pageopacity="0.0"
     inkscape:pagecheckerboard="0"
     inkscape:deskcolor="#d1d1d1"
     inkscape:zoom="0.35789423"
     inkscape:cx="641.25091"
     inkscape:cy="210.95618"
     inkscape:window-width="1680"
     inkscape:window-height="998"
     inkscape:window-x="-8"
     inkscape:window-y="-8"
     inkscape:window-maximized="1"
     inkscape:current-layer="path1-2"
     showguides="true" />
  <path
     style="fill:#000000;stroke:none;stroke-width:67.3319"
     d="m 608.09943,296.94326 1.09163,3.27509 h 79.69431 v -3.27509 z m 13.10039,17.46718 c -16.73945,97.52549 -25.83697,171.7613 -27.29256,222.7074 0,10.18931 4.91266,41.48481 14.73798,93.88649 9.82532,52.40177 7.82389,137.5546 -6.0043,255.45853 h 67.68555 c 12.37264,-100.43664 14.91997,-179.03925 7.64195,-235.80786 2.18336,-29.11209 3.63897,-59.31588 4.36681,-90.61131 0.72775,-31.29549 4.36673,-59.13392 10.91699,-83.51531 6.55022,-24.38139 5.09461,-48.94468 -4.36679,-73.68991 -9.46146,-24.74531 -13.10046,-54.22133 -10.91701,-88.42803 z m -10.917,647.38 c 14.55601,-3.63925 25.29108,-10.73533 32.20518,-21.28825 6.91414,-10.55312 8.55171,-23.47161 4.91271,-38.75545 h -24.01749 c -10.91698,26.92867 -15.2838,46.94324 -13.1004,60.0437 z M 582.99027,44.759852 c 24.74524,-2.183398 39.66518,0.909755 44.75983,9.279483 5.09461,8.369727 9.8253,11.826766 14.19211,10.371118 0,-8.005807 5.4585,-12.008704 16.3755,-12.008704 13.10049,0 19.65073,10.553126 19.65073,31.659376 0,9.461438 -4.36682,20.014585 -13.10047,31.659435 v 127.72926 h 72.05239 v -42.57645 c 0,-74.96359 -10.18922,-129.548757 -30.56766,-163.755497 -13.10043,-15.283807 -35.29841,-22.925704 -66.59392,-22.925704 -31.29548,0 -50.21833,10.189227 -56.76851,30.567683 z m 25.10916,38.209568 c -8.00585,-2.911194 -12.73658,-4.366796 -14.19217,-4.366796 1.45559,0 2.18339,1.455602 2.18339,4.366796 0,2.911193 -1.81949,4.366793 -5.4585,4.366793 -3.639,0 -5.45849,-1.4556 -5.45849,-4.366793 0,-1.455602 0.7278,-2.547308 2.1834,-3.275114 -2.91119,0.727737 -4.73069,2.001402 -5.45851,3.820984 -0.72773,1.819477 -1.81943,2.729221 -3.27509,2.729221 3.63898,1.455641 8.0058,2.183477 13.1004,2.183477 4.36681,-0.727867 9.82533,-2.547385 16.37557,-5.458568 z m -34.93454,7.641963 -1.0916,-5.458554 h 4.36686 c 2.91119,-6.550205 7.27801,-9.825307 13.10039,-9.825307 5.82242,-0.727737 13.10044,0.727853 21.83409,4.366784 h 14.19217 v 5.458523 h -14.19217 c -8.00585,3.639036 -14.55608,5.822452 -19.65067,6.550257 -3.639,0.727877 -6.73216,0.727877 -9.27948,0 -2.54728,-0.727734 -4.18483,-1.091611 -4.91269,-1.091611 z m 5.45857,103.711787 c 24.74524,20.37845 28.38423,48.03491 10.91698,82.96942 -0.72773,8.00581 4.36691,11.64481 15.28391,10.917 h 87.33619 l 12.00879,-30.56767 h -52.40176 v -63.31875 z m -7.64198,-72.0524 2.18341,-2.1834 c 13.82825,2.91119 17.10337,5.27657 9.82538,7.09609 -7.27807,1.81944 -10.18928,4.73066 -8.73368,8.7336 1.45565,4.00291 6.36835,5.09461 14.73806,3.27509 8.36967,-1.81953 15.82964,-2.0015 22.3799,-0.54591 6.55018,18.92286 13.46427,32.02331 20.74229,39.30138 h 19.65073 v -63.31875 c 8.73359,-11.64485 13.1004,-21.834101 13.1004,-30.567745 0,-13.100444 -2.18342,-19.650672 -6.55026,-19.650672 -5.09459,0 -7.64189,6.550228 -7.64189,19.650672 -15.28381,-5.822399 -24.92719,-12.554562 -28.93012,-20.196495 -4.00292,-7.641921 -18.377,-9.643381 -43.12224,-6.004382 l -2.18339,9.825377 c 7.278,-5.822456 23.65353,-4.366854 49.12663,4.366795 v 4.366806 c -24.74529,-8.733601 -41.84866,-8.005806 -51.31011,2.183398 l -12.00872,29.475966 c 4.36681,-1.4556 7.27801,-1.09174 8.73361,1.0916 1.45561,2.18339 1.09174,4.73072 -1.09162,7.64196 z M 718.38093,30.726858 c 24.31039,32.009004 32.73156,90.088282 32.73156,170.146512 v 55.67685 l -4.36681,1.09159 c 7.27805,40.02908 10.55316,81.14991 9.8253,123.36247 10.18925,29.83991 8.58679,75.27867 4.21999,137.14181 l -18.41206,-6.13735 c -2.91124,-28.38429 -7.09609,-54.40324 -12.55459,-78.05682 -5.45852,-23.65356 -6.73219,-44.57784 -3.82097,-62.77282 -8.73363,-37.84577 -13.46434,-68.04959 -14.19214,-90.61142 l -10.91707,22.92579 -4.3668,38.20958 c 1.45559,19.6507 8.73361,46.21547 21.83406,79.69431 3.639,18.92288 0.72781,45.48764 -8.73361,79.6943 -8.00583,76.41923 -10.55315,137.91853 -7.64193,184.49791 2.91123,46.57933 0.72783,113.90098 -6.55019,201.96495 -0.72775,11.64488 -2.18336,21.83412 -4.36684,30.56775 -2.18338,8.73361 -2.91117,22.19798 -2.18338,40.39308 11.64483,25.47304 5.45851,39.30124 -18.55896,41.48464 -21.83407,-8.73366 -39.48326,-10.73514 -52.94756,-6.0045 -13.46434,4.73071 -31.47746,6.36821 -54.03933,4.91247 -20.37846,-6.55021 -44.75983,-6.55021 -73.14413,0 h -44.75986 v -7.64183 c 0,-7.27805 17.64922,-15.46584 52.94765,-24.56335 35.29838,-9.09754 58.76998,-23.10773 70.41482,-42.03058 3.63902,-6.55023 6.91413,-18.92289 9.82538,-37.11794 2.9112,-21.10624 6.1863,-57.31438 9.8253,-108.62445 3.63901,-51.31004 5.09461,-82.42357 4.36681,-93.34057 -0.72776,-10.91684 -8.00578,-55.31265 -21.83409,-133.18742 -1.4556,-28.38434 6.55023,-108.80649 24.01749,-241.26646 0.72774,-5.0946 -2.18347,-9.27945 -8.73361,-12.5546 -6.5502,-3.27507 -11.64482,-9.64332 -15.28388,-19.10477 9.46144,-12.37265 12.37267,-29.36539 8.73367,-38.82679 l -19.59817,-37.6052 26.14838,-25.09638 h 29.47596 c -6.5502,-7.27807 -10.91698,-16.73948 -13.10038,-28.38429 -6.55026,0.72787 -13.64634,1.63761 -21.28826,2.7292 -7.64192,1.09169 -12.73652,-0.36388 -15.28381,-4.36672 -2.54732,-4.00292 -3.45709,-8.1878 -2.72927,-12.55465 -5.09462,0 -6.55022,-2.91119 -4.36681,-8.73359 -3.639,-2.91121 -4.54877,-5.27657 -2.7293,-7.09608 1.81953,-1.81948 1.63758,-3.45703 -0.54588,-4.91262 -5.82245,0.72773 -8.36975,-1.81959 -7.6419,-7.64197 C 555.3337,96.069897 561.51999,78.238739 566.6146,53.493442 571.85997,4.1868149 614.60611,0 642.50382,0 671.7135,0 700.63513,7.3613024 718.38093,30.726858 Z M 579.71515,240.6492 c -31.29548,41.48471 -112.89975,109.08818 -123.05882,105.31962 -11.16698,1.33477 -70.37491,-42.82645 -106.35621,-77.06297 -19.78059,7.53716 -46.54591,-2.74029 -52.56831,-8.23632 -9.59334,-6.68274 -6.23192,-35.77526 7.56207,-35.49325 -5.97006,-10.53965 -5.36224,-16.38713 1.82348,-17.54246 22.8774,10.76533 38.62083,20.30677 56.18106,39.36879 35.9201,20.23707 68.07353,40.59968 89.93702,56.47129 25.10928,-29.28207 53.39366,-60.37516 82.70884,-88.27569 9.76704,-19.95758 20.4812,-29.97261 50.32108,-37.25059 l -12.87832,17.19868 z"
     id="path1"
     sodipodi:nodetypes="cccccccscccssscccsccccscsscccscscccssscsccccccccccccsscccccccccccsssccccsscsccccccsccsscccccsccccccscsccscccssccssccsccccccssccscccsscccccccccccc" />
  <path
     d="m 760.79097,518.14609 c 0.6819,8.86509 2.04576,19.09404 4.09158,30.68682 0.68189,4.77349 0.68189,10.22891 0,16.36627 0,4.77351 -2.21629,11.59282 -6.64884,20.45789 -4.43254,8.86506 -6.98977,16.70723 -7.67171,23.52654 -0.68187,2.0458 -1.87522,3.40973 -3.58008,4.09178 -1.70483,0.682 -3.58013,0.341 -5.6259,-1.02302 0.6819,0.68201 0.34089,1.36389 -1.02301,2.04563 -1.36386,-0.68198 -2.38676,-1.36386 -3.0687,-2.04563 -0.68188,0.68201 -1.70476,1.02302 -3.06862,1.02302 -1.36387,0 -2.38678,-0.68189 -3.06873,-2.04563 0,1.36374 -0.68192,2.04563 -2.04577,2.04563 -2.0458,0 -3.0687,-1.70484 -3.0687,-5.1145 3.40964,-11.59278 6.8193,-20.28737 10.22896,-26.08376 3.40963,-5.7964 4.77349,-14.83197 4.09156,-27.10671 -0.68189,-2.72784 -1.36381,-4.09177 -2.0458,-4.09177 l -1.02284,3.0687 c -0.68185,4.09158 -1.02278,8.52412 -1.02278,13.2976 0,5.45544 -0.68193,9.88798 -2.04579,13.29763 -1.36389,3.40967 -3.40969,4.43256 -6.13741,3.0687 -2.04577,-1.36375 -2.04577,-4.77338 0,-10.22889 -0.6819,-5.45547 -1.5343,-12.78623 -2.55722,-21.99229 -1.02294,-9.20602 4.60296,-22.33314 16.87774,-39.38136"
     style="fill:#000000;stroke:none;stroke-width:49.7659"
     id="path1-6" />
  <g
     id="path1-2"
     style="opacity:1">
    <path
       id="path3"
       style="baseline-shift:baseline;display:inline;overflow:visible;vector-effect:none;enable-background:accumulate;stop-color:#000000;stop-opacity:1"
       d="m 485.58594,52.4375 c -0.8559,0.04754 -1.69832,0.298348 -2.41797,0.753906 -2.8786,1.822233 -4.3682,5.58845 -5.83399,11.308594 -2.60949,10.183327 -12.23892,17.951408 -29.93164,23.123047 -47.3293,13.834773 -52.86116,28.115423 -52.1914,48.931643 -0.66782,20.80908 4.85001,35.09331 52.1914,48.93164 17.695,5.17239 27.3247,12.91162 29.93164,23.02148 1.46637,5.68659 2.95748,9.43377 5.84375,11.23438 1.44314,0.9003 3.36883,0.97786 4.91211,0.25976 3.23337,-1.5045 11.58985,-11.14569 11.58985,-27.49023 0,-20.43652 -15.19051,-30.15078 -23.35547,-33.89649 16.82732,-5.2843 27.46371,-15.07719 34.35156,-22.05273 -6.75614,-6.91979 -17.40111,-16.89702 -34.30078,-22.0957 7.6972,-3.56013 23.30469,-13.33634 23.30469,-34.078128 0,-16.342065 -8.35773,-25.992887 -11.59571,-27.486328 -0.7739,-0.356943 -1.64214,-0.512384 -2.49804,-0.464844 z m 1.63086,18.144531 c 1.45187,4.843882 1.92452,9.172758 1.48242,12.984375 -4.07834,20.585054 -29.94744,27.756654 -47.48633,33.117184 17.4462,5.32242 36.48087,8.89536 51.45899,19.8711 -8.47801,6.88219 -25.68478,12.76175 -51.45899,19.87109 16.78636,5.76033 44.36733,12.23467 47.48633,33.11914 0.44131,3.80473 -0.0309,8.12377 -1.47656,12.95703 -6.26962,-13.8857 -20.97816,-23.88185 -43.51758,-30.01757 -30.98805,-8.4356 -35.96875,-24.33687 -35.96875,-35.92969 0,-11.56598 4.95147,-27.50432 35.97265,-36.03516 22.52941,-6.195511 37.23382,-16.159374 43.50782,-29.937499 z"
       sodipodi:nodetypes="sssccssssscccssscscccscsssc" />
  </g>
  <path
     style="fill:none;stroke:#613583;stroke-width:18;stroke-linecap:butt;stroke-linejoin:miter;stroke-dasharray:none;stroke-opacity:1"
     d="m 399.95707,134.74 c -52.57188,0 -95.9581,73.90316 -96.53466,280.99034 l -1.42958,513.47252"
     id="path2"
     sodipodi:nodetypes="csc" />
</svg>
