<?xml version="1.0" encoding="UTF-8" standalone="no"?>
<svg
   width="700"
   height="1000"
   version="1.1"
   id="svg1"
   sodipodi:docname="1370A.svg"
   inkscape:version="1.4.3 (0d15f75, 2025-12-25)"
   xmlns:inkscape="http://www.inkscape.org/namespaces/inkscape"
   xmlns:sodipodi="http://sodipodi.sourceforge.net/DTD/sodipodi-0.dtd"
   xmlns="http://www.w3.org/2000/svg"
   xmlns:svg="http://www.w3.org/2000/svg">
  <defs
     id="defs1" />
  <sodipodi:namedview
     id="namedview1"
     pagecolor="#ffffff"
     bordercolor="#666666"
     borderopacity="1.0"
     inkscape:showpageshadow="2"
     inkscape:pageopacity="0.0"
     inkscape:pagecheckerboard="0"
     inkscape:deskcolor="#d1d1d1"
     inkscape:zoom="0.53386562"
     inkscape:cx="424.26407"
     inkscape:cy="529.15938"
     inkscape:window-width="1680"
     inkscape:window-height="998"
     inkscape:window-x="-8"
     inkscape:window-y="-8"
     inkscape:window-maximized="1"
     inkscape:current-layer="svg1"
     showguides="true">
    <sodipodi:guide
       position="659.04764,511.42862"
       orientation="1,0"
       id="guide1"
       inkscape:locked="false" />
    <sodipodi:guide
       position="510.47615,780.95238"
       orientation="0.99473836,-0.10244802"
       id="guide2"
       inkscape:locked="false" />
    <sodipodi:guide
       position="619.14777,50"
       orientation="0,-1"
       id="guide3"
       inkscape:locked="false" />
    <sodipodi:guide
       position="6.4098162,28.72007"
       orientation="0.98969537,-0.14318891"
       id="guide4"
       inkscape:locked="false" />
    <sodipodi:guide
       position="-0.63817966,43"
       orientation="0,-1"
       id="guide5"
       inkscape:locked="false" />
    <sodipodi:guide
       position="180.53059,57.80061"
       orientation="0,-1"
       id="guide6"
       inkscape:locked="false" />
  </sodipodi:namedview>
  <path
     id="path5"
     style="fill:#000000;stroke:none;stroke-width:49.6079"
     inkscape:transform-center-x="14.861169"
     inkscape:transform-center-y="149.43497"
     d="m 529.05099,0 c -45.63467,0 -70.9192,17.884034 -75.85266,53.651747 -3.08344,11.717001 -4.62496,25.592679 -4.62496,41.626486 -6.78354,16.033807 -10.17566,26.824527 -10.17566,32.374677 0,3.08343 3.39212,4.93403 10.17566,5.55071 l -2.77535,6.47455 c 0.6167,2.46673 2.15823,3.70111 4.62496,3.70111 -1.23339,3.70013 -1.54243,6.78319 -0.92577,9.24991 h 3.70112 c -3.08344,16.03381 2.46649,24.05053 16.6502,24.05053 h 14.80062 c 0,12.95037 5.85893,24.97541 17.57596,36.07577 l 0.008,0.0114 c -13.87328,23.36026 -28.21406,46.54381 -37.9159,71.82528 -5.94834,14.1394 -4.8923,27.30057 3.16803,39.48095 -35.7193,-1.19991 -73.61948,1.19807 -114.1897,7.0873 -22.20062,-6.78352 -39.46844,-14.02945 -51.80215,-21.73804 -12.33367,-7.70854 -23.43347,-10.63898 -33.30043,-8.78894 L 192.33988,99.903191 C 187.40641,88.186192 180.31502,87.26088 171.06472,97.127835 L 61.911626,399.61085 138.69005,419.96216 191.41604,163.7306 252.46808,325.60969 c -12.95037,-1.23338 -16.65158,7.24506 -11.10139,25.43724 5.55015,18.19222 15.10841,25.74723 28.67547,22.6638 l 8.32605,21.27517 c -10.48365,-0.61669 -12.95048,8.01815 -7.40029,25.90202 5.55013,17.88385 14.1831,25.28245 25.90013,22.19901 l 3.70108,10.17567 21.27518,-8.32416 -1.84961,-4.62495 c 8.0169,-3.08343 19.11672,-7.40083 33.30043,-12.95102 41.63101,12.02843 84.565,14.50582 127.52203,13.69844 -1.319,16.74247 -3.66512,33.33526 -7.26753,50.12897 -56.11828,2.46689 -138.75474,20.96722 -247.90742,55.50136 -32.68428,13.56708 -47.79434,42.55088 -45.32757,86.95217 -7.40024,60.4351 -15.81821,118.61819 -29.38527,203.10398 -4.3168,24.05072 -14.02961,43.32174 -29.13836,57.81383 -15.10878,14.49211 -43.012758,24.20453 -83.713952,30.98798 -19.733905,0 -29.6012246,11.10011 -29.6012246,31.4508 H 179.60674 c 19.11719,-1.85008 31.1423,-7.39993 36.07577,-16.65022 4.93348,-9.25028 4.00818,-24.97656 -2.77535,-47.17718 -6.78352,-22.20063 1.47868,-56.01065 25.22103,-104.42039 23.74236,-48.40974 33.76546,-95.59868 33.76546,-167.13407 v 0.92575 l -0.10869,341.68198 374.74328,-0.7513 V 474.78438 c 0,-5.87659 2.61296,-8.81548 7.83662,-8.81548 5.87663,0 8.8155,2.93889 8.8155,8.81548 v 83.93211 h 22.19901 v -92.50288 c 0,-14.18377 -9.86538,-21.27517 -29.59932,-21.27517 -20.35058,0 -30.52698,7.0914 -30.52698,21.27517 v 8.32606 h -18.49982 c 3.70025,-40.08447 6.16704,-82.02062 7.40031,-125.8052 h 36.07578 V 222.0073 c 0,-77.70226 -9.09657,-134.130262 -27.28875,-169.281302 C 604.74839,17.574991 573.45228,0 529.05099,0 Z m 1.84961,15.263488 c 39.4678,0.308317 66.60107,17.421604 81.40145,51.33927 14.80047,33.917672 21.89376,85.719192 21.27707,155.404542 v 106.37774 h -20.35131 c 0,-85.7192 -10.48354,-128.73322 -31.45083,-129.04154 -20.96728,-0.30835 -31.45083,8.78821 -31.45083,27.28874 v 9.24992 c -6.78353,18.50052 -13.87497,48.1006 -21.27516,88.80177 V 133.20362 c 3.70009,-4.93348 9.71171,-12.64115 18.03694,-23.12478 8.3253,-10.483656 12.48814,-20.967199 12.48814,-31.450822 0,-10.483624 -7.09139,-15.726362 -21.27518,-15.726362 -7.40019,0 -12.02481,5.549921 -13.87487,16.650214 0,-11.717001 -5.55178,-19.117491 -16.6521,-22.200919 -11.10033,-3.083427 -24.97411,-4.315911 -41.6246,-3.699204 3.70014,-25.90076 25.28346,-38.696613 64.75128,-38.388259 z m -48.21678,51.800247 c 6.08977,0.308345 12.13995,1.38816 18.15267,3.238226 12.02535,3.700099 18.03883,11.409667 18.03883,23.12667 h 12.02528 c 0,-10.483624 2.46685,-15.726362 7.40029,-15.726362 5.55019,0 8.32607,2.775908 8.32607,8.326055 0,5.550149 -4.47196,12.796121 -13.41389,21.738036 -8.94193,8.94195 -15.57164,17.11318 -19.88845,24.51341 v 68.45047 c -9.86694,-6.78353 -14.80061,-17.88331 -14.80061,-33.30044 h -24.97438 c -7.40022,0 -11.1014,-3.08306 -11.1014,-9.24991 0,-8.01687 3.7012,-12.3343 11.1014,-12.95101 1e-5,-4.31678 -1.2343,-6.78359 -3.7011,-7.40031 h -13.87485 c 3.08343,-6.78352 0.30752,-11.40814 -8.32607,-13.87486 0,-3.70014 3.70117,-13.25837 11.10142,-28.675477 0,-10.48366 1.84873,-19.425677 5.5488,-26.825873 6.16685,-1.233379 12.29623,-1.69697 18.38599,-1.388625 z m -3.81681,7.400307 c -6.62936,0 -12.102,2.005126 -16.41878,6.013578 v 8.324159 c 9.25025,-8.633576 22.50971,-9.249799 39.77688,-1.849601 h 6.47457 V 80.47762 h -6.47457 c -8.94193,-4.008452 -16.72874,-6.013578 -23.3581,-6.013578 z m 0.25799,11.078644 c -7.33521,-0.186764 -13.90703,2.562532 -17.60062,11.585149 l 0.92385,4.624955 4.62495,-0.92575 c 7.00163,5.25108 15.63758,2.81976 34.22619,-6.474557 l 7.40031,0.92575 v -4.624954 l -7.40031,0.923852 C 494.55764,88.85177 486.46022,85.729447 479.125,85.542686 Z m -4.65151,5.110593 c -1.79045,2.738347 -0.8889,5.73038 1.8496,7.400301 -2.46672,0.616685 -5.85696,0.307594 -10.17377,-0.925745 3.08348,-3.700136 5.85746,-5.857886 8.32417,-6.474556 z m 7.40031,0 c 3.70014,0 7.70849,0.925303 12.02526,2.775352 -2.46672,1.233378 -6.78226,2.774918 -12.94911,4.624949 2.0141,-2.237867 2.33478,-4.691018 0.92385,-7.400301 z M 175.68969,138.75432 122.96368,394.9859 86.899281,383.8902 c 0.883772,-0.15309 30.479499,-81.86539 88.790409,-245.13588 z m 337.63493,89.72753 v 120.25262 h 10.17567 c -1.23334,8.63355 -4.0093,24.66889 -8.32607,48.10294 -3.5273,-0.82998 -7.24749,-1.52462 -11.14693,-2.09243 -0.1115,-20.95669 -1.51906,-42.2695 -4.40111,-66.11333 -23.45719,-17.66576 -20.48444,-48.26345 13.69844,-100.1498 z m 81.40337,86.02643 v 34.22619 c -1.23317,47.48472 -3.0838,82.94563 -5.5507,106.37964 -2.4669,23.434 -2.15776,55.03919 0.92574,94.81535 3.0834,39.77621 -18.809,57.19663 -65.67701,52.26312 H 280.21781 c -19.73388,0 -29.60122,6.47516 -29.60122,19.42556 0,70.30201 -9.09595,115.64199 -30.98822,161.58498 -21.8923,45.94305 -28.76749,82.68185 -21.05894,113.2077 7.70854,30.52589 1.69505,45.78857 -18.03884,45.78857 H 57.502626 c -19.733904,0.61674 -16.341772,-2.46637 10.175659,-9.24989 28.367479,-2.46673 51.183275,-11.71737 68.450465,-29.60124 17.26719,-17.88386 28.05982,-40.08342 32.37657,-66.60087 8.63358,-64.7519 17.97687,-123.24403 32.16063,-204.02974 -3.08344,-36.38438 11.40847,-58.89306 43.47609,-67.5266 98.05285,-31.45095 181.30505,-49.33496 249.75702,-53.65175 3.86608,-26.42426 6.72982,-49.39206 8.40952,-71.12717 12.64131,-0.5091 25.26641,-1.21262 37.84191,-1.95016 30.83427,-48.71808 49.0274,-90.03603 54.5775,-123.95369 z m -271.03407,43.47798 c 47.11251,13.65579 99.31513,18.08599 157.40968,13.72879 0.41818,7.15212 0.72003,14.20294 0.88971,21.17654 -27.84897,-0.90776 -61.82242,2.55879 -99.09695,8.57075 -22.20064,-7.40015 -39.46844,-14.95523 -51.80214,-22.66378 -12.33368,-7.70858 -24.66594,-10.02086 -36.99964,-6.93744 l -0.92576,-2.77535 c 8.01691,-3.08343 18.19142,-6.78273 30.5251,-11.09951 z M 605.8275,494.88909 h 19.42557 V 762.74434 H 510.54928 V 942.19939 H 293.16882 v -319.6555 h 232.18107 c 38.23444,-0.61666 62.74817,-6.93922 73.54019,-18.96459 10.79197,-12.02538 13.10428,-48.25515 6.93742,-108.69021 z m -73.0773,289.13043 92.50287,0.92575 V 942.19939 H 532.7502 Z"
     sodipodi:nodetypes="sccscccccsccccccscccccccsccsccccccccccscccsssccccsssccsssccccssssscccsscccssscscsssccssscccssccccccssccccccsscccccccscccccccccccccccccccccsscsssscccscccccccccccscccccccccccscccccc" />
  <rect
     style="fill:#f8e45c;fill-rule:evenodd;stroke:none;stroke-width:16;stroke-miterlimit:5;stroke-dasharray:none"
     id="rect2"
     width="656.16345"
     height="36"
     x="-0.63817966"
     y="957" />
  <rect
     style="fill:none;fill-rule:evenodd;stroke:#613583;stroke-width:14;stroke-miterlimit:5;stroke-dasharray:none"
     id="rect1"
     width="656.16345"
     height="36"
     x="-0.63817966"
     y="957" />
</svg>
