<?xml version="1.0" encoding="UTF-8" standalone="no"?>
<svg
   width="700"
   height="1000"
   version="1.1"
   id="svg1"
   sodipodi:docname="1370A.svg"
   inkscape:version="1.4.3 (0d15f75, 2025-12-25)"
   xmlns:inkscape="http://www.inkscape.org/namespaces/inkscape"
   xmlns:sodipodi="http://sodipodi.sourceforge.net/DTD/sodipodi-0.dtd"
   xmlns="http://www.w3.org/2000/svg"
   xmlns:svg="http://www.w3.org/2000/svg">
  <defs
     id="defs1" />
  <sodipodi:namedview
     id="namedview1"
     pagecolor="#ffffff"
     bordercolor="#666666"
     borderopacity="1.0"
     inkscape:showpageshadow="2"
     inkscape:pageopacity="0.0"
     inkscape:pagecheckerboard="0"
     inkscape:deskcolor="#d1d1d1"
     inkscape:zoom="0.755"
     inkscape:cx="391.39073"
     inkscape:cy="910.59603"
     inkscape:window-width="1680"
     inkscape:window-height="998"
     inkscape:window-x="-8"
     inkscape:window-y="-8"
     inkscape:window-maximized="1"
     inkscape:current-layer="svg1"
     showguides="true">
    <sodipodi:guide
       position="659.04764,511.42862"
       orientation="1,0"
       id="guide1"
       inkscape:locked="false" />
    <sodipodi:guide
       position="510.47615,780.95238"
       orientation="0.99473836,-0.10244802"
       id="guide2"
       inkscape:locked="false" />
    <sodipodi:guide
       position="619.14777,50"
       orientation="0,-1"
       id="guide3"
       inkscape:locked="false" />
    <sodipodi:guide
       position="6.4098162,28.72007"
       orientation="0.98969537,-0.14318891"
       id="guide4"
       inkscape:locked="false" />
  </sodipodi:namedview>
  <path
     id="path5"
     style="fill:#000000;stroke:none;stroke-width:49.6079"
     inkscape:transform-center-x="14.864485"
     inkscape:transform-center-y="149.46833"
     d="m 529.16721,-0.21526 c -45.64486,0 -70.93503,17.888027 -75.8696,53.663725 -3.08412,11.719617 -4.62599,25.598392 -4.62599,41.635779 -6.78505,16.037386 -10.17793,26.830516 -10.17793,32.381906 0,3.08412 3.39288,4.93513 10.17793,5.55195 l -2.77597,6.47599 c 0.61684,2.46728 2.15871,3.70194 4.62599,3.70194 -1.23366,3.70096 -1.54277,6.7847 -0.92597,9.25197 h 3.70194 c -3.08412,16.03739 2.46704,24.0559 16.65392,24.0559 h 14.80393 c 0,12.95326 5.86023,24.98099 17.57988,36.08383 l 0.008,0.0114 c -13.87638,23.36548 -28.22036,46.5542 -37.92436,71.84132 -5.94967,14.14255 -4.8934,27.30666 3.16873,39.48976 -35.72727,-1.20018 -73.63591,1.19834 -114.21519,7.08888 -22.20558,-6.78503 -39.47725,-14.03258 -51.81371,-21.74289 -12.33643,-7.71026 -23.43871,-10.64136 -33.30787,-8.7909 L 192.38093,99.710234 C 187.44636,87.99062 180.35338,87.065101 171.10102,96.934259 L 61.923556,399.4848 l 76.795564,20.35586 52.73776,-256.28877 61.06567,161.91523 c -12.95326,-1.23365 -16.6553,7.24668 -11.10387,25.44292 5.55139,18.19628 15.11179,25.75298 28.68187,22.66886 l 8.32791,21.27992 c -10.48599,-0.61683 -12.95337,8.01994 -7.40194,25.9078 5.55137,17.88785 14.18627,25.2881 25.90591,22.20397 l 3.70191,10.17794 21.27993,-8.32602 -1.85002,-4.62598 c 8.01869,-3.08412 19.12098,-7.40248 33.30786,-12.95391 41.6403,12.03111 84.58388,14.50906 127.5505,13.7015 -1.31929,16.7462 -3.66594,33.3427 -7.26915,50.14016 -56.13081,2.46744 -138.78572,20.9719 -247.96277,55.51375 -32.69157,13.57011 -47.80501,42.56038 -45.33769,86.97158 -7.40189,60.44859 -16.03801,120.1411 -29.6081,204.64575 -4.31776,24.05609 -14.03274,43.33142 -29.14486,57.82674 -15.11216,14.49535 -43.022363,25.13587 -83.732643,31.92084 -19.738311,0 -29.6078337,10.17665 -29.6078337,30.53188 H 179.42867 c 19.12146,-1.85049 31.14926,-7.40158 36.08383,-16.65394 4.93458,-9.25234 4.00907,-24.98213 -2.77597,-47.18771 -6.78504,-22.20559 1.69528,-57.51797 25.44293,-105.93852 23.74766,-48.42055 33.773,-95.62163 33.773,-167.17299 v 0.92595 l -0.10872,349.56378 374.82695,-0.75146 V 474.67512 c 0,-5.87791 2.61354,-8.81745 7.83836,-8.81745 5.87795,0 8.81747,2.93954 8.81747,8.81745 v 83.95084 h 22.20397 v -92.52353 c 0,-14.18693 -9.86758,-21.27992 -29.60593,-21.27992 -20.35512,0 -30.53379,7.09299 -30.53379,21.27992 v 8.32792 h -18.50395 c 3.70107,-40.09342 6.16841,-82.03893 7.40196,-125.83329 h 36.08383 V 221.8416 c 0,-77.7196 -9.0986,-134.160203 -27.29484,-169.319091 C 604.88151,17.363655 573.57841,-0.21526 529.16721,-0.21526 Z m 1.85002,15.266896 c 39.47661,0.308385 66.61594,17.425493 81.41962,51.350731 14.80378,33.925243 21.89865,85.738333 21.28182,155.439233 v 106.40149 h -20.35585 c 0,-85.73833 -10.48588,-128.76196 -31.45785,-129.07035 -20.97196,-0.30842 -31.45785,8.79018 -31.45785,27.29484 v 9.25198 c -6.78505,18.50465 -13.87807,48.11134 -21.27991,88.8216 V 133.0181 c 3.70091,-4.93458 9.71388,-12.64397 18.04097,-23.12994 8.32715,-10.486001 12.49092,-20.971885 12.49092,-31.457848 0,-10.485965 -7.09297,-15.729873 -21.27993,-15.729873 -7.40184,0 -12.02749,5.55116 -13.87796,16.653931 0,-11.719617 -5.55302,-19.121759 -16.65582,-22.205875 -11.10281,-3.084116 -24.97969,-4.316875 -41.63389,-3.70003 3.70096,-25.906543 25.2891,-38.705252 64.76573,-38.396829 z m -48.22754,51.811811 c 6.09113,0.308414 12.14266,1.38847 18.15672,3.238949 12.02803,3.700925 18.04286,11.412214 18.04286,23.131833 h 12.02796 c 0,-10.485965 2.4674,-15.729873 7.40194,-15.729873 5.55143,0 8.32793,2.776528 8.32793,8.327914 0,5.551388 -4.47296,12.798978 -13.41688,21.74289 -8.94393,8.94395 -15.57512,17.117 -19.89289,24.51888 v 68.46575 c -9.86915,-6.78504 -14.80392,-17.8873 -14.80392,-33.30787 h -24.97995 c -7.40187,0 -11.10388,-3.08375 -11.10388,-9.25198 0,-8.01866 3.70203,-12.33705 11.10388,-12.9539 1e-5,-4.31774 -1.23458,-6.7851 -3.70193,-7.40196 h -13.87795 c 3.08412,-6.78503 0.30759,-11.41069 -8.32792,-13.87796 0,-3.70096 3.70199,-13.26133 11.10389,-28.681876 0,-10.486001 1.84915,-19.430014 5.55004,-26.831862 6.16823,-1.233654 12.29898,-1.697349 18.3901,-1.388935 z m -3.81767,7.401959 c -6.63084,0 -12.1047,2.005574 -16.42244,6.014921 v 8.326017 c 9.25231,-8.635503 22.51473,-9.251864 39.78576,-1.850014 h 6.47601 v -6.476003 h -6.47601 c -8.94393,-4.009347 -16.73248,-6.014921 -23.36332,-6.014921 z m 0.25805,11.081117 c -7.33685,-0.186805 -13.91013,2.563104 -17.60455,11.587736 l 0.92406,4.625991 4.62598,-0.92596 c 7.00319,5.25225 15.64107,2.82039 34.23383,-6.476003 l 7.40196,0.925957 v -4.625987 l -7.40196,0.924059 c -6.74323,-2.72597 -14.84246,-5.84899 -22.17932,-6.035793 z m -4.65255,5.111734 c -1.79085,2.738959 -0.88909,5.73166 1.85002,7.401953 -2.46727,0.616823 -5.85827,0.307663 -10.17604,-0.925951 3.08416,-3.700962 5.85876,-5.859194 8.32602,-6.476002 z m 7.40197,0 c 3.70096,0 7.71021,0.92551 12.02794,2.775972 -2.46727,1.233653 -6.78377,2.775537 -12.952,4.625981 2.01455,-2.238366 2.3353,-4.692065 0.92406,-7.401953 z M 175.72702,138.57004 122.98924,394.85882 86.916789,383.76064 c 0.883969,-0.15312 30.486301,-81.88366 88.810231,-245.1906 z m 337.71031,89.74756 v 120.27946 h 10.17794 c -1.23362,8.63548 -4.0102,24.6744 -8.32793,48.11368 -3.52809,-0.83016 -7.24911,-1.52496 -11.14942,-2.09289 -0.11152,-20.96137 -1.5194,-42.27894 -4.40209,-66.12809 -23.46243,-17.66971 -20.48901,-48.27423 13.7015,-100.17216 z m 81.42154,86.04563 v 34.23383 c -1.23344,47.49533 -3.08449,82.96415 -5.55194,106.40339 -2.46745,23.43924 -2.15824,55.05148 0.92595,94.83652 3.08409,39.78509 -18.8132,57.2094 -65.69167,52.27479 H 280.27848 c -19.73829,0 -29.60783,6.4766 -29.60783,19.4299 0,70.3177 -9.09798,115.6678 -30.99514,161.62105 -21.89719,45.95331 -28.99018,84.19674 -21.27991,114.7294 7.71026,30.53271 1.69543,45.7988 -18.04287,45.7988 l -123.055429,0.92594 c -19.738309,0.61687 -16.34542,-2.46692 10.177931,-9.25196 28.373812,-2.46728 51.194698,-12.64592 68.465748,-30.53379 17.27104,-17.88785 28.06608,-40.09237 32.3838,-66.61574 8.6355,-64.76635 18.19715,-124.76797 32.38408,-205.57172 -3.08413,-36.3925 11.41101,-58.9062 43.48579,-67.54167 98.07474,-31.45797 181.34553,-49.34598 249.81278,-53.66373 3.86694,-26.43016 6.73132,-49.40309 8.4114,-71.14305 12.64413,-0.50921 25.27205,-1.21289 37.85036,-1.95059 30.84115,-48.72896 49.03834,-90.05613 54.58968,-123.98137 z m -271.09458,43.48769 c 47.12303,13.65884 99.3373,18.09003 157.44482,13.73186 0.41828,7.15371 0.72019,14.20611 0.88991,21.18126 -27.85518,-0.90796 -61.83622,2.55936 -99.11907,8.57267 -22.2056,-7.40181 -39.47725,-14.95857 -51.81371,-22.66884 -12.33643,-7.7103 -24.67144,-10.0231 -37.0079,-6.93899 l -0.92596,-2.77597 c 8.0187,-3.08412 18.19548,-6.78425 30.53191,-11.10199 z m 282.19657,136.93339 h 19.42991 V 770.50488 H 510.66137 V 950 H 293.23238 V 622.46761 h 232.2329 c 38.24298,-0.61679 62.76218,-6.94077 73.55661,-18.96882 10.79438,-12.02807 13.10721,-48.26592 6.93897,-108.71448 z m -73.09362,297.0005 92.52353,0.92596 V 950 h -92.52353 z"
     sodipodi:nodetypes="sccscccccsccccccscccccccsccsccccccccccscccsssccccsssccsssccccssssscccsscccssscscsssccssscccssccccccssccccccsscccccccscccccccccccccccccccccsscsssscccscccccccccccscccccccccccscccccc" />
  <rect
     style="fill:#f8e45c;fill-rule:evenodd;stroke:none;stroke-width:16;stroke-miterlimit:5;stroke-dasharray:none"
     id="rect2"
     width="656.16345"
     height="36"
     x="-0.63817966"
     y="957" />
  <rect
     style="fill:none;fill-rule:evenodd;stroke:#613583;stroke-width:14;stroke-miterlimit:5;stroke-dasharray:none"
     id="rect1"
     width="656.16345"
     height="36"
     x="-0.63817966"
     y="957" />
</svg>
