<?xml version="1.0" encoding="UTF-8" standalone="no"?>
<svg
   width="700"
   height="1000"
   version="1.1"
   id="svg1"
   sodipodi:docname="1371F.svg"
   inkscape:version="1.4.2 (f4327f4, 2025-05-13)"
   xmlns:inkscape="http://www.inkscape.org/namespaces/inkscape"
   xmlns:sodipodi="http://sodipodi.sourceforge.net/DTD/sodipodi-0.dtd"
   xmlns="http://www.w3.org/2000/svg"
   xmlns:svg="http://www.w3.org/2000/svg">
  <defs
     id="defs1" />
  <sodipodi:namedview
     id="namedview1"
     pagecolor="#ffffff"
     bordercolor="#666666"
     borderopacity="1.0"
     inkscape:showpageshadow="2"
     inkscape:pageopacity="0.0"
     inkscape:pagecheckerboard="0"
     inkscape:deskcolor="#d1d1d1"
     showguides="true"
     inkscape:zoom="0.755"
     inkscape:cx="559.60265"
     inkscape:cy="648.34437"
     inkscape:window-width="1680"
     inkscape:window-height="998"
     inkscape:window-x="-8"
     inkscape:window-y="-8"
     inkscape:window-maximized="1"
     inkscape:current-layer="svg1" />
  <path
     style="fill:#000000;stroke:none;stroke-width:0.999998"
     d="m 369.32584,305.91931 c -2.79379,41.9068 -10.65129,92.02032 -23.57253,150.34057 -12.92128,58.3202 -13.79435,112.44976 -2.61921,162.38868 11.17514,49.93885 16.76272,99.00472 16.76272,147.19747 0,47.4943 -5.23836,92.19485 -15.71502,134.10161 h 77.52746 c 10.47672,-49.58962 15.54045,-90.44869 15.1912,-122.57725 -0.34921,-32.1285 -3.66683,-60.41558 -9.95284,-84.86121 -6.28601,-24.44559 -2.09533,-61.81245 12.57205,-112.10054 14.66734,-50.28813 22.00102,-87.30578 22.00102,-111.05295 0,-28.63626 -8.03212,-57.971 -24.09635,-88.00419 3.4922,-34.22385 6.63519,-59.36792 9.42897,-75.43219 z m -8.38138,616.02946 c 0.69846,10.47667 0.34951,23.39795 -1.04764,38.76379 25.14406,-9.77831 38.41454,-16.76277 39.81142,-20.95343 V 921.94877 Z M 383.99322,63.907834 v 5.238303 h -6.28605 C 362.34136,62.860123 350.81701,63.558564 343.1341,71.24147 l -1.04769,-6.285998 c 7.6829,-6.984443 19.55649,-7.333652 35.62076,-1.047638 z m 0,9.429024 v 3.14297 h -6.28605 c -11.17514,4.190665 -18.85805,6.285998 -23.04871,6.285998 -2.79378,0.698462 -5.58755,1.6e-5 -8.38133,-2.095333 h -4.19072 v -2.095332 c 2.09533,-6.984443 7.68292,-10.476662 16.76271,-10.476662 2.7938,0 9.07983,1.746101 18.85805,5.238359 z m -13.61974,2.095332 c -2.79378,-1.396886 -6.286,-2.444564 -10.47666,-3.143026 0.6984,1.396869 1.04764,2.444563 1.04764,3.143026 0,1.39687 -0.69847,2.793795 -2.09534,4.190665 5.58755,-2.095332 9.42901,-3.492258 11.52436,-4.190665 z m -17.81035,-2.095332 c -2.09534,0 -4.5399,1.396869 -7.3337,4.190665 4.19067,1.396869 7.33368,2.095332 9.42903,2.095332 -2.09533,-1.39687 -3.14303,-2.444564 -3.14303,-3.143027 0,-2.095332 0.34896,-3.14297 1.0477,-3.14297 z M 477.23577,272.39394 V 172.8654 c 0,-59.36792 -5.58759,-101.100072 -16.76277,-125.196462 -11.17511,-24.096388 -30.03314,-36.144582 -56.57409,-36.144582 -35.62075,0 -54.828,10.4767 -57.62178,31.430098 14.66734,-0.698463 26.01709,0.174588 34.04925,2.619152 8.03211,2.444563 12.04817,8.206741 12.04817,17.286534 2.09535,-6.984477 6.63525,-10.476718 13.61969,-10.476718 9.77826,0 14.66738,5.587574 14.66738,16.762715 0,8.381369 -2.44456,15.71506 -7.33369,22.001074 -4.88913,6.286014 -8.73057,11.524359 -11.52435,15.715019 V 272.39394 Z M 389.23153,283.9183 V 105.81459 c 3.49224,-5.58759 8.20676,-12.048227 14.14356,-19.381919 5.93676,-7.333652 8.90515,-13.09583 8.90515,-17.286534 0,-4.889072 -2.09533,-7.333636 -6.286,-7.333636 -4.19066,0 -6.286,4.190665 -6.286,12.571995 h -11.52441 c 0,-9.778255 -4.53989,-16.064269 -13.61969,-18.858047 -9.07979,-2.793777 -19.20724,-3.14299 -30.38234,-1.047639 -3.49224,6.286014 -5.23836,13.619689 -5.23836,22.001018 -6.98448,12.572034 -10.47672,20.254934 -10.47672,23.048713 7.68291,2.095349 10.4767,5.587589 8.38138,10.476719 h 11.52431 c 2.09533,0.69841 3.14302,2.79374 3.14302,6.286 -5.58755,0.69846 -8.73056,4.53989 -9.42902,11.52435 0,4.19072 3.49226,6.28606 10.47672,6.28606 h 26.19173 c 6.28599,11.87357 8.0321,23.04869 5.23836,33.52537 -2.79381,10.47668 -12.57206,16.06425 -29.33476,16.76271 -14.66738,2.09535 -21.30263,13.96894 -19.90574,35.62077 1.39692,21.65178 -2.0953,39.81137 -10.47667,54.47875 5.58756,13.2705 15.01658,19.90574 28.28708,19.90574 H 453.13936 L 454.187,283.9183 Z m 79.62285,0 c -2.79379,27.93784 -6.286,60.06636 -10.47666,96.38557 16.7627,30.73161 25.14404,60.41556 25.14404,89.05182 0,23.74717 -7.15908,60.76482 -21.47725,111.05295 -14.31814,50.28809 -18.68341,87.65495 -13.09582,112.10054 5.58756,24.44563 8.55594,52.90735 8.90515,85.38509 0.34951,32.47773 -5.06371,80.4959 -16.23889,144.0545 v 31.43005 c 5.58759,25.14404 0.69846,40.50989 -14.66733,46.09748 l -199.05714,1.0474 c -13.27045,0 -19.55645,-8.73055 -18.85799,-26.19173 h 26.19169 c 14.66738,-2.79385 27.41403,-7.1591 38.23997,-13.09592 10.82589,-5.93671 20.95334,-9.95279 30.38234,-12.04818 9.42904,-2.09539 14.14357,-10.82589 14.14357,-26.19168 14.66734,-60.06635 22.00102,-112.79905 22.00102,-158.19807 0,-45.39896 -5.58756,-92.54408 -16.76266,-141.4353 -11.17515,-48.891 -10.4767,-103.71899 2.09533,-164.48379 12.57203,-60.76481 20.95338,-110.70371 25.14404,-149.81669 -7.6829,1.39689 -13.96892,0.69845 -18.85804,-2.09533 0,9.07983 -2.7938,23.04875 -8.38133,41.90676 -18.15963,22.35029 -61.11406,46.44667 -128.86331,72.28916 -11.87357,8.38137 -24.09637,12.92128 -36.6684,13.61975 L 96.770722,1000.5239 h -18.85804 l 60.925978,-565.74122 1.04764,-1.0477 c -8.38133,-8.38137 -12.22278,-21.65184 -11.52436,-39.81143 -6.28601,-2.09534 -8.38134,-7.68292 -6.286,-16.76271 h 22.00102 L 171.3164,127.81561 h 19.90568 L 163.9827,377.16084 c 8.38137,3.49224 16.41349,8.73058 24.09636,15.71502 47.49435,-34.22382 82.41665,-58.32019 104.7669,-72.28911 -2.09532,-25.14406 4e-5,-55.17725 6.28605,-90.09957 -2.79381,-38.41452 15.715,-57.62178 55.52645,-57.62178 12.57203,-2.79378 19.38188,-6.98446 20.42956,-12.57205 1.04768,-5.58755 -1.57151,-11.87357 -7.85757,-18.85805 H 349.4201 c -13.27046,0 -18.15959,-6.28601 -14.66738,-18.85805 h -4.19067 c -0.69841,-2.79379 -0.69841,-5.58755 0,-8.38133 -1.39687,0 -2.79379,-0.69846 -4.19066,-2.09533 l 3.14302,-5.23836 c -6.28601,-0.69842 -9.42902,-2.09531 -9.42902,-4.19066 0,-4.88913 3.14303,-13.619708 9.42902,-26.191742 0,-13.968919 1.39687,-25.144044 4.19067,-33.525374 C 338.59421,14.318151 361.64294,0 402.85127,0 c 34.92228,0 58.3202,13.96892 70.19378,41.90676 11.8736,27.93784 17.8104,71.59072 17.8104,130.95864 27.23938,0 40.85907,17.46114 40.85907,52.38342 3.49226,41.20834 4.19067,86.95655 2.09533,137.24464 10.47668,29.33476 9.42903,73.6861 -3.14297,133.05402 v 0 l -21.96634,-1.9805 c 1.39693,-25.84249 -2.30469,-52.84754 -6.8446,-76.59471 -4.53988,-23.74718 -4.36526,-46.79589 0.52387,-69.14614 -5.58759,-16.06427 -9.42904,-37.36688 -11.52436,-63.90783 v 0 z"
     id="path1"
     sodipodi:nodetypes="csssccssssccccccccccccccccccccccsccccscccccsccssscscssscccccsssccscccccccscscscscccccssssccccccsscssscccccccccccccccccccscscccccsccsscccsccscscc" />
  <path
     d="m 202.67874,740.05714 12.11779,0.8522 -0.80786,-109.90153 z m 24.23561,-108.19763 -0.80791,109.04951 h 12.11778 z m 326.37241,-97.12236 -324.75675,-0.85195 26.65911,246.21355 h -12.11777 l -2.42357,-24.70649 h -13.73345 l -1.61573,23.85454 h -10.5021 l 0.80791,-24.70655 h -14.54137 l -2.42356,24.70655 -11.30994,-0.85188 25.04344,-237.69414 c -0.53859,-18.74285 10.50206,-26.69439 33.12194,-23.8546 h 307.79184 z"
     style="fill:#000000;stroke:none;stroke-width:52.1757"
     id="path1-3"
     sodipodi:nodetypes="cccccccccccccccccccccccc" />
  <path
     d="m 530.66688,495.54748 c 6.63968,10.40444 8.66717,19.05507 11.79656,38.19641 0,13.86092 -13.14352,18.48126 -39.43055,13.86099 -1.87763,10.56072 -5.63292,15.51103 -11.26584,14.85093 -0.94983,-13.35577 1.49154,-40.2788 16.93349,-68.88883"
     style="fill:#000000;stroke:none;stroke-width:52.1757"
     id="path1-7"
     sodipodi:nodetypes="ccccc" />
</svg>
