<?xml version="1.0" encoding="UTF-8" standalone="no"?>
<svg
   width="700"
   height="1000"
   version="1.1"
   id="svg1"
   sodipodi:docname="13724.svg"
   inkscape:version="1.4.2 (f4327f4, 2025-05-13)"
   xmlns:inkscape="http://www.inkscape.org/namespaces/inkscape"
   xmlns:sodipodi="http://sodipodi.sourceforge.net/DTD/sodipodi-0.dtd"
   xmlns:xlink="http://www.w3.org/1999/xlink"
   xmlns="http://www.w3.org/2000/svg"
   xmlns:svg="http://www.w3.org/2000/svg">
  <defs
     id="defs1" />
  <sodipodi:namedview
     id="namedview1"
     pagecolor="#ffffff"
     bordercolor="#666666"
     borderopacity="1.0"
     inkscape:showpageshadow="2"
     inkscape:pageopacity="0.0"
     inkscape:pagecheckerboard="0"
     inkscape:deskcolor="#d1d1d1"
     inkscape:zoom="0.53386562"
     inkscape:cx="708.97991"
     inkscape:cy="630.30843"
     inkscape:window-width="1680"
     inkscape:window-height="998"
     inkscape:window-x="-8"
     inkscape:window-y="-8"
     inkscape:window-maximized="1"
     inkscape:current-layer="svg1"
     showguides="true">
    <sodipodi:guide
       position="577.77074,417.56741"
       orientation="1,0"
       id="guide3"
       inkscape:locked="false" />
  </sodipodi:namedview>
  <path
     style="fill:#000000;stroke:none;stroke-width:55.6253"
     d="m 384.9375,0 c -41.84099,0 -64.85302,14.295376 -69.03711,42.886719 -2.78942,9.065545 -4.18555,20.5725 -4.18555,34.519531 -6.97348,12.552284 -10.45898,20.919419 -10.45898,25.10352 0,2.78942 3.13793,4.18554 9.41406,4.18554 l -2.0918,5.22852 c 0.69735,2.09206 2.09153,3.13867 4.1836,3.13867 -1.39471,2.09203 -1.74423,4.53285 -1.04688,7.32227 h 4.18555 c -3.48677,12.55228 1.39486,18.82812 14.64453,18.82812 h 18.82813 c 5.57881,6.97352 7.84484,13.4241 6.79883,19.35156 -1.04605,5.92747 -7.49664,9.93723 -19.35157,12.0293 -40.44631,0 -59.27571,19.52652 -56.48633,58.57813 -5.57877,34.17015 -7.32054,63.80749 -5.22851,88.9121 -23.01253,13.94699 -57.88105,38.35321 -104.60352,73.22071 -7.67083,-6.97351 -16.03989,-12.55224 -25.10547,-16.73633 h -8.36718 l 30.33398,-27.19531 h -36.60937 v -15.69141 l 36.60937,-33.47266 H 130.75391 V 284.51953 L 167.36328,250 h -36.60937 v -15.68945 l 36.60937,-36.61133 h -36.60937 v -15.69141 l 36.60937,-33.47265 H 130.75391 C 130.75391,67.642538 87.16874,27.197266 0,27.197266 V 48.117188 C 66.945587,48.814506 100.41797,82.636409 100.41797,149.58203 V 1000 h 30.33594 V 878.66016 l 36.60937,-34.51758 h -36.60937 v -15.69141 l 36.60937,-35.56445 h -36.60937 v -15.68945 l 36.60937,-33.47266 h -36.60937 l 35.56445,-40.79492 h -35.56445 v -15.69141 l 36.60937,-33.47266 h -36.60937 v -14.64453 l 36.60937,-33.47265 h -36.60937 v -15.68946 l 36.60937,-34.51953 h -36.60937 v -15.6914 l 36.60937,-36.60938 h -36.60937 v -15.6914 l 36.60937,-33.47266 h -36.60937 v -15.68945 l 4.18359,-4.18555 c 15.34171,0 29.28755,-4.53211 41.83984,-13.59766 67.64297,-25.10464 110.18151,-49.16324 127.61524,-72.17578 5.57881,-18.82844 9.06623,-33.8209 10.46094,-44.97851 4.88145,2.09207 11.50681,4.18336 19.875,6.27539 -6.27617,39.0516 -15.51709,88.73778 -27.72071,149.05859 -12.20363,60.32077 -12.9007,114.88864 -2.09179,163.70313 10.80895,48.81454 16.21289,95.88514 16.21289,141.21289 0,46.02508 -7.3205,98.67642 -21.96485,157.95117 0,16.03909 -4.53407,24.93053 -13.59961,26.67383 -9.06555,1.74337 -19.00159,5.57836 -29.81054,11.50586 -10.80892,5.92751 -23.88487,10.28479 -39.22657,13.07421 h -25.10546 c -1.39468,17.43373 4.88307,26.15039 18.83007,26.15039 h 198.74414 c 14.64435,-5.57877 19.17647,-21.26835 13.59766,-47.07031 v -31.38086 c 11.85497,-63.45889 17.43368,-111.40135 16.73633,-143.82812 -0.69736,-32.42678 -3.66052,-60.66997 -8.89063,-84.72852 -5.23015,-24.05859 -0.87277,-61.36596 13.07422,-111.92383 13.94703,-50.5579 20.92188,-87.34292 20.92188,-110.35546 0,-29.2887 -8.01954,-59.27558 -24.0586,-89.95899 3.48674,-36.26222 8.71598,-68.34038 15.68946,-96.23437 h 15.6914 c 2.09207,27.19663 5.92706,48.46688 11.50586,63.80859 -4.18409,22.31522 -4.18409,45.32722 0,69.03711 4.1841,23.70989 5.92783,48.46562 5.23047,74.26758 -6.27612,16.73641 -10.81019,31.03179 -13.59961,42.88672 l -6.27539,25.10546 c -0.69736,4.88158 0.52403,6.79809 3.66211,5.75196 3.13808,-1.04613 5.05459,-2.26545 5.75195,-3.66016 2.69263,3.51212 8.81323,3.33314 11.50586,0.52344 2.78942,2.44047 5.40502,2.61336 7.84571,0.52148 2.44073,-2.09225 4.53198,-2.61449 6.27539,-1.56836 1.74337,1.04613 4.16942,0.15748 7.32226,-2.61523 9.57683,-8.42217 7.6294,-13.49995 6.80133,-25.10528 l -5.23047,-36.60937 c 11.85493,-59.27479 12.55202,-103.55701 2.0918,-132.84571 2.09207,-50.20921 1.39498,-96.23519 -2.0918,-138.07617 0,-34.86751 -13.59825,-52.30078 -40.79492,-52.30078 0,-58.5774 -5.75353,-101.987785 -17.25976,-130.230469 C 442.99174,14.120596 419.805,0 384.9375,0 Z m 1.04492,12.552734 c 26.49931,0 45.32876,11.854522 56.48633,35.564454 11.15761,23.709892 16.73633,65.551322 16.73633,125.523432 V 271.9668 H 382.8457 V 106.69531 c 2.78942,-4.18413 6.79915,-9.240502 12.0293,-15.167966 5.23011,-5.927465 7.84375,-13.424691 7.84375,-22.490235 0,-10.460255 -5.2292,-15.689453 -15.68945,-15.689453 -6.97351,0 -11.15807,3.485507 -12.55274,10.458985 0,-9.762899 -4.00976,-15.863963 -12.02929,-18.304688 -8.01953,-2.440725 -19.69931,-3.312589 -35.04102,-2.615234 2.78942,-20.223154 22.31399,-30.333985 58.57617,-30.333985 z m -44.7168,40.664063 c 5.0558,0.261503 9.85004,1.177054 14.38282,2.746094 9.06554,3.13808 13.59765,9.588662 13.59765,19.351562 h 11.50782 c 0,-9.065545 2.0913,-13.599609 6.27539,-13.599609 4.18409,0 6.27539,2.440815 6.27539,7.322265 0,4.184095 -2.96317,9.937591 -8.89063,17.259766 -5.92747,7.322175 -10.63432,13.772765 -14.12109,19.351565 v 177.82422 h 72.17578 l -2.0918,10.46093 H 334.72852 c -13.947,0 -23.36074,-6.27583 -28.24219,-18.82812 8.36819,-15.3417 11.67892,-33.82158 9.93555,-55.43945 -1.74338,-21.61783 4.70721,-33.47434 19.35156,-35.56641 17.43373,0 27.37174,-5.40398 29.8125,-16.21289 2.44069,-10.80891 0.87174,-22.14112 -4.70703,-33.9961 h -27.19727 c -6.27616,0 -9.41406,-2.0913 -9.41406,-6.27539 0,-6.97352 3.1379,-10.8085 9.41406,-11.50585 0,-3.48675 -1.04469,-5.23047 -3.13672,-5.23047 h -12.55273 c 2.09207,-5.5788 -0.34876,-9.41384 -7.32227,-11.505863 0,-2.789421 3.48548,-10.461389 10.45899,-23.013672 -0.69735,-8.368227 0.69881,-15.690674 4.18554,-21.966797 5.57881,-1.046032 10.89538,-1.437285 15.95117,-1.175781 z m -2.35351,6.144531 c -5.92748,0.174339 -10.8091,2.005448 -14.64453,5.492188 v 6.27539 c 8.36823,-6.973479 20.22274,-7.670602 35.56445,-2.091797 h 5.22266 v -5.230468 h -5.22266 c -8.01953,-3.138062 -14.99244,-4.619652 -20.91992,-4.445313 z m 1.04687,8.63086 c -9.06554,0 -14.64425,3.485469 -16.73632,10.458984 l 1.04492,3.138672 h 4.18359 c 5.4528,3.635193 19.3753,-0.728393 31.38086,-5.230469 h 5.22266 v -3.136719 h -5.22266 c -9.7629,-3.486739 -16.38627,-5.230468 -19.87305,-5.230468 z m 2.0918,4.183593 c 3.48674,0.697355 6.97222,1.743961 10.45899,3.138672 -2.09207,1.39471 -5.92706,2.78892 -11.50586,4.183594 3.12903,-3.12895 2.0324,-5.351193 1.04687,-7.322266 z m -7.32226,1.046875 c -1.85749,1.857478 -1.22493,4.005597 1.04492,6.275391 -2.09207,0 -4.88045,-0.349556 -8.36719,-1.046875 2.78942,-3.486776 5.23024,-5.228516 7.32227,-5.228516 z m 20.91992,232.216794 h 73.22265 c -2.78938,9.7629 -5.92732,35.21572 -9.41406,76.35938 16.03902,29.2887 24.05664,58.57849 24.05664,87.86719 0,23.01254 -7.32049,59.79756 -21.96484,110.35546 -14.64435,50.55787 -18.82891,88.04002 -12.55274,112.44727 6.27616,24.40725 9.58885,52.6504 9.9375,84.72852 0.3487,32.07808 -5.05723,72.87294 -16.21484,122.38476 h -77.4043 c 11.15761,-41.84098 16.73633,-86.82035 16.73633,-134.9375 0,-47.41979 -5.57872,-96.05941 -16.73633,-145.91992 -11.15761,-49.86055 -10.46052,-104.08077 2.0918,-162.6582 12.55232,-58.5774 21.96606,-108.78598 28.24219,-150.62696 z m -12.55274,615.0625 h 37.65821 v 18.82813 c -0.69735,3.48667 -13.94804,10.46158 -39.75,20.92187 1.39471,-16.03906 2.09179,-29.28978 2.09179,-39.75 z"
     id="path1"
     sodipodi:nodetypes="sccscccccscsccccccccccccccccccccccsccccccccccccccccccccccccccccccccccssscssccscccssssccccscccscccssccccccsssscccssscscsssccsssccccscscscsscsccccssccccccsscccccccscccccccccccssssccssscccccc" />
  <path
     id="path1-9"
     style="fill:#000000;stroke:none;stroke-width:83.5114"
     d="m 483.98509,534.48761 16.58381,15.45373 -12.37215,5.37595 c -8.61653,9.96872 -5.14334,22.27473 12.37215,55.34644 v 111.50083 h -14.13366 l 6.28162,-78.52032 c -18.84499,-1.04724 -38.21312,0.52342 -58.10503,4.71122 -4.18781,-12.5633 -3.6643,-25.12838 1.57039,-37.69173 18.84502,8.37555 37.16624,12.56522 54.96424,12.56522 -24.15029,-35.26845 -41.8053,-72.7849 -7.16137,-88.74134 z"
     sodipodi:nodetypes="ccccccccccc" />
  <use
     x="0"
     y="0"
     xlink:href="#path1-9"
     id="use3"
     transform="matrix(-1,0,0,1,1001.1378,0)" />
</svg>
