<?xml version="1.0" encoding="UTF-8" standalone="no"?>
<svg
   width="500"
   height="1000"
   version="1.1"
   id="svg1"
   sodipodi:docname="13736.svg"
   inkscape:version="1.4.2 (f4327f4, 2025-05-13)"
   xmlns:inkscape="http://www.inkscape.org/namespaces/inkscape"
   xmlns:sodipodi="http://sodipodi.sourceforge.net/DTD/sodipodi-0.dtd"
   xmlns="http://www.w3.org/2000/svg"
   xmlns:svg="http://www.w3.org/2000/svg">
  <defs
     id="defs1" />
  <sodipodi:namedview
     id="namedview1"
     pagecolor="#ffffff"
     bordercolor="#666666"
     borderopacity="1.0"
     inkscape:showpageshadow="2"
     inkscape:pageopacity="0.0"
     inkscape:pagecheckerboard="0"
     inkscape:deskcolor="#d1d1d1"
     showguides="true"
     inkscape:zoom="0.755"
     inkscape:cx="220.5298"
     inkscape:cy="176.82119"
     inkscape:window-width="1680"
     inkscape:window-height="998"
     inkscape:window-x="-8"
     inkscape:window-y="-8"
     inkscape:window-maximized="1"
     inkscape:current-layer="svg1">
    <sodipodi:guide
       position="486.00353,894.20528"
       orientation="1,0"
       id="guide1"
       inkscape:locked="false" />
    <sodipodi:guide
       position="321.59127,659.01045"
       orientation="-0.61256851,0.7904175"
       id="guide2"
       inkscape:locked="false" />
  </sodipodi:namedview>
  <path
     style="fill:#000000;stroke:none;stroke-width:1"
     d="m 338.50128,49.845592 c 16.2761,-3.390864 34.58671,1.695413 54.93184,15.258844 0,-10.850721 4.40814,-16.276082 13.22437,-16.276082 8.13805,0 12.20707,4.408103 12.20707,13.224313 0,10.850758 -6.78171,21.36242 -20.34514,31.53498 V 263.46957 h 73.2425 V 98.673947 c 0,-23.057833 -6.78171,-43.233436 -20.34514,-60.526811 -13.56343,-17.293374 -31.87406,-25.940061 -54.93189,-25.940061 -32.5522,0 -51.88007,12.546172 -57.98361,37.638517 z m 48.8283,25.431443 V 69.173498 C 363.59359,57.644581 345.96114,53.914636 334.43222,57.983661 l -7.12077,17.293374 -10.1726,23.396912 c 6.10353,0 9.1553,3.051773 9.1553,9.155303 l 16.27614,6.10354 c -7.45989,5.42538 -11.18984,10.51166 -11.18984,15.25884 -0.67816,5.42538 2.37361,8.13807 9.15531,8.13807 h 21.36238 c 2.03453,16.2761 10.51166,24.41415 25.43144,24.41415 V 87.48411 h 11.18984 c 9.4944,-9.494402 14.2416,-17.97155 14.2416,-25.431443 0,-5.425379 -2.03453,-8.138068 -6.10353,-8.138068 -5.42538,0 -8.13807,7.120814 -8.13807,21.362436 z M 364.94991,297.03908 c -4.06901,43.40296 -11.02023,95.1135 -20.85371,155.13164 -9.83352,60.01817 -7.62947,115.11962 6.61216,165.30429 14.24159,50.18467 22.71871,99.35211 25.43138,147.50225 2.71269,48.82835 4e-5,93.24856 -8.13801,133.26069 h 79.34599 c 8.13808,-50.86283 11.18987,-92.57041 9.15536,-125.12262 -2.03452,-32.55222 -7.12079,-61.03543 -15.25884,-85.44958 -8.13809,-24.41421 -5.7645,-62.56134 7.12077,-114.44141 12.88523,-51.88013 18.64969,-89.68818 17.29338,-113.42417 -1.35636,-29.16137 -11.52894,-58.32274 -30.51775,-87.48411 3.39087,-42.04661 6.10356,-67.13893 8.13807,-75.27698 z m 20.34514,623.57855 c 1.35637,12.88529 0.67821,27.12684 -2.03447,42.72476 27.80501,-12.20713 42.0466,-20.00607 42.72476,-23.39686 l -1.01724,-19.3279 z M 381.22604,68.156204 v 4.069062 h -6.10353 c -18.31062,-7.459893 -32.55222,-7.798989 -42.72482,-1.017293 l -1.01724,-6.103537 c 10.17256,-6.781696 24.75325,-5.764442 43.74206,3.051768 z m -1.01723,8.138069 v 4.069006 l -7.12083,-1.017238 c -13.56343,4.069007 -22.71874,5.764458 -27.46592,5.0863 -3.39085,0 -6.44264,-1.017238 -9.15531,-3.051769 h -5.0863 l -1.01724,-2.034531 c 3.39084,-6.781696 10.17255,-10.172543 20.34515,-10.172543 4.06902,0.678158 11.5289,3.051752 22.37962,7.120775 z m -15.2589,2.034531 c -4.06899,-2.034515 -8.47709,-3.390865 -13.22431,-4.069062 1.35631,1.356372 2.03447,2.37361 2.03447,3.051768 0,1.356373 -1.01724,2.37361 -3.05171,3.051769 6.78169,-0.678159 11.52887,-1.356317 14.24155,-2.034475 z m -21.36238,-4.069062 c -2.03453,0 -4.74722,1.695451 -8.13807,5.086299 4.069,0.678159 7.45989,1.017238 10.1726,1.017238 -2.03453,-0.678159 -3.05177,-2.034475 -3.05177,-4.069006 0,-0.678159 0.3393,-1.356317 1.01724,-2.034531 z m 142.416,31.534978 v 55.94913 c 16.27609,0 21.19284,25.98621 0,54.28573 v 59.64706 H 387.32958 V 173.95093 h -48.8283 c -11.52895,1.35635 -16.44572,13.05481 -14.75028,35.09536 1.35662,17.63599 -6.07949,26.10897 -14.8957,41.70691 5.42534,12.88523 19.47337,34.07875 33.71499,34.07875 h 109.86378 v -9.15531 h 16.27608 c -6.10353,25.09235 -9.83348,55.94915 -11.18983,92.57041 18.31065,30.51769 28.14413,60.35722 29.50045,89.51859 1.35637,24.41418 -3.89947,62.56132 -15.76747,114.4414 -11.86799,51.88018 -14.41114,89.85778 -7.62945,113.93279 6.78174,24.07513 11.52894,52.55834 14.24161,85.44964 2.71269,32.8913 0.3393,81.88919 -7.12078,146.99363 v 31.53492 c 7.45986,26.44868 3.3908,43.0639 -12.20713,49.84565 H 251.01717 c -14.24162,0.67813 -21.36243,-8.13813 -21.36243,-26.44868 h 27.46597 c 15.59791,-4.74722 27.80498,-9.15536 36.62122,-13.22437 8.81625,-4.06901 18.98883,-6.61216 30.51775,-7.62945 11.52887,-1.01718 18.98875,-9.66387 22.37962,-25.94001 7.45989,-61.71358 10.17258,-115.28916 8.13806,-160.72661 -2.71267,-46.79382 -11.02025,-94.60488 -24.92276,-143.43324 -13.90255,-48.82835 -16.27616,-104.26885 -7.12084,-166.32153 9.15533,-62.05268 16.10659,-112.746 20.85377,-152.07993 -9.49441,-2.03451 -17.29338,-6.10353 -23.39692,-12.20707 l -38.65575,-59.0009 c -0.6782,-47.47202 24.75323,-71.20803 76.29427,-71.20803 l -7.12077,-14.2416 h -15.2589 c -8.13805,0 -12.20708,-6.10354 -12.20708,-18.31062 -4.74716,-3.39084 -4.74716,-6.78171 0,-10.17254 -4.069,-0.67821 -6.10353,-2.71269 -6.10353,-6.10354 l 2.03453,-6.10354 c -8.13805,0 -12.20708,-2.71268 -12.20708,-8.138063 9.49437,-15.59794 15.25883,-29.500449 17.29338,-41.707524 C 329.68502,18.988808 353.76009,0 396.48489,0 c 27.12685,0 48.82835,9.155306 65.10449,27.465918 16.2761,18.310649 24.41415,44.420252 24.41415,78.328802 z"
     id="path1"
     sodipodi:nodetypes="ccsscccssscccccccccsccccsscccsscccsssccccccccccccccccccccccccccccscccccscsccccccscscccccsssccccccssccsscccccsccccccsss" />
  <path
     d="m 302.32069,253.39079 c -30.70117,43.50657 -75.04412,90.61639 -89.4778,92.13651 -31.9234,-25.31871 -80.43948,-123.5355 -85.95812,-136.82413 -13.30602,-19.00136 -21.53213,-37.74781 -24.67839,-56.23936 -0.61516,-6.68529 0.37364,-15.56484 2.96638,-26.63864 2.59281,-11.07381 4.18805,-21.21308 4.78573,-30.417799 2.51357,-4.083837 7.67847,-5.522219 15.4946,-4.3152 7.81609,1.207041 11.85598,3.243057 12.1196,6.108266 l -7.25974,31.006673 c -1.72876,7.38244 -0.63,19.32059 3.29549,35.81419 2.34953,4.59946 3.78207,4.46757 4.29775,-0.39548 0.51561,-4.86307 -0.1198,-10.46294 -1.90708,-16.79964 -1.78701,-6.33671 -2.13998,-11.48106 -1.05915,-15.43305 1.08104,-3.95205 3.35881,-5.36552 6.83328,-4.24055 3.82021,-0.35168 5.32154,2.88134 4.50416,9.69839 -0.81742,6.81716 0.97247,15.80222 5.36974,26.95518 4.39724,11.15292 5.38881,24.54548 2.97471,40.17772 l 63.33299,77.44658 78.70373,-98.34836"
     style="fill:#1c71d8;stroke:none;stroke-width:1"
     id="path1-9"
     sodipodi:nodetypes="ccccccscccccccssccc"
     inkscape:transform-center-x="77.366304"
     inkscape:transform-center-y="28.198049" />
  <path
     d="m 265.54653,174.13721 c -20.01013,-19.41267 -31.67392,-33.49206 -34.99139,-42.23812 -3.31743,-8.74606 -6.75316,-15.29126 -10.3072,-19.63559 -3.55401,-4.3443 -4.58442,-7.28605 -3.09114,-8.82532 1.17624,-2.44441 3.37138,-2.70513 6.5854,-0.78225 3.21392,1.92306 5.83992,5.06797 7.87766,9.43524 2.03779,4.36728 4.90725,8.5703 8.60834,12.60905 3.70109,4.03879 6.45678,5.74112 8.26707,5.10705 1.81037,-0.6341 2.39848,-1.85628 1.76437,-3.66664 -7.49404,-14.14256 -14.00253,-23.29524 -19.52545,-27.458038 -5.52286,-4.162819 -10.61614,-10.00041 -15.27986,-17.512762 -2.17331,-3.303618 -0.32969,-6.743949 5.53067,-10.321043 5.86056,-3.577035 10.01308,-4.777417 12.4575,-3.601165 3.44149,6.924228 10.23827,15.086747 20.39036,24.487523 10.15213,9.400775 21.28642,33.573655 33.40289,72.518565 21.00742,42.29646 34.19117,68.52409 58.58643,110.28359 l 41.5074,-38.7427 7.74111,33.31834 23.41766,6.5637 c -39.24149,36.71517 -66.29354,54.20814 -92.21425,62.03493 -38.03725,-53.52889 -60.72757,-163.57436 -60.72757,-163.57436 z"
     style="fill:#5e5c64;stroke:none;stroke-width:1"
     id="path1-1"
     sodipodi:nodetypes="cssccssscscscsccccccc"
     inkscape:transform-center-x="91.672093"
     inkscape:transform-center-y="-64.448785" />
</svg>
