<?xml version="1.0" encoding="UTF-8" standalone="no"?>
<svg
   width="800"
   height="1000"
   version="1.1"
   id="svg1"
   sodipodi:docname="1373A.svg"
   inkscape:version="1.4.2 (f4327f4, 2025-05-13)"
   xmlns:inkscape="http://www.inkscape.org/namespaces/inkscape"
   xmlns:sodipodi="http://sodipodi.sourceforge.net/DTD/sodipodi-0.dtd"
   xmlns="http://www.w3.org/2000/svg"
   xmlns:svg="http://www.w3.org/2000/svg">
  <defs
     id="defs1" />
  <sodipodi:namedview
     id="namedview1"
     pagecolor="#ffffff"
     bordercolor="#666666"
     borderopacity="1.0"
     inkscape:showpageshadow="2"
     inkscape:pageopacity="0.0"
     inkscape:pagecheckerboard="0"
     inkscape:deskcolor="#d1d1d1"
     showguides="true"
     inkscape:zoom="0.65620418"
     inkscape:cx="105.91216"
     inkscape:cy="477.74764"
     inkscape:window-width="1680"
     inkscape:window-height="998"
     inkscape:window-x="-8"
     inkscape:window-y="-8"
     inkscape:window-maximized="1"
     inkscape:current-layer="svg1" />
  <path
     style="fill:#000000;stroke:none;stroke-width:1"
     d="m 596.95885,380.77096 v -117.8272 c 0,-82.35236 -9.0272,-139.68193 -27.08105,-171.989745 -18.0543,-32.307345 -50.04502,-48.461207 -95.97243,-48.461207 -45.92704,0 -71.1081,15.520578 -75.5423,46.560769 20.27143,-3.166627 35.79157,-2.374935 46.56081,2.375006 10.76923,4.750836 16.47054,12.194227 17.10387,22.329717 2.53241,-12.66922 8.86881,-19.004304 19.00433,-19.004304 14.5701,-2.532403 22.01349,2.694318 22.33017,15.678894 0.315,12.98636 -3.00919,25.18063 -9.97718,36.58321 -6.96838,11.4026 -12.66967,20.27141 -17.10387,26.60648 V 380.77002 Z M 433.52128,209.73167 c 3.80088,20.27141 10.45213,32.94112 19.95429,38.00864 l 3.80088,0.94909 v -77.91814 l 26.60648,-41.80951 c 3.16662,-12.03638 1.90269,-18.05434 -3.80088,-18.05434 -5.70129,0 -9.50214,6.01796 -11.40258,18.05434 h -13.30346 c 0,-13.30301 -6.3346,-22.01348 -19.00433,-26.13101 -12.66922,-4.115718 -21.53803,-5.384637 -26.60603,-3.800877 -5.06796,1.583317 -11.40258,3.643407 -19.00431,6.176307 -1.90265,5.70124 -2.85174,14.5701 -2.85174,26.60598 -8.86841,16.47059 -13.61969,26.92316 -14.25304,31.35739 10.76929,2.53238 14.25304,7.60172 10.45219,15.20343 h 18.05428 c 2.5324,0 3.80087,2.5324 3.80087,7.60172 -8.23503,0.63425 -12.66969,5.70132 -13.30302,15.20346 0,5.70131 4.75089,8.55216 14.25303,8.55216 z m 16.15344,-95.02202 v 6.65177 h -7.60173 c -20.90476,-8.23553 -37.05818,-7.60173 -48.4612,1.90262 l -0.94909,-7.60215 c 10.76924,-9.50216 27.23978,-9.81884 49.41121,-0.94909 z m 0.94906,12.35301 v 4.75088 l -8.55213,-0.94909 c -15.83678,6.3346 -26.28935,9.50216 -31.35687,9.50216 -4.4351,0 -8.55218,-0.94908 -12.35305,-2.85178 h -5.70129 l -0.94909,-3.80085 c 3.80087,-8.86881 11.7197,-13.30304 23.75559,-13.30304 4.4351,0 13.30301,2.21756 26.60605,6.65172 z m -19.0043,2.85178 c -4.43505,-2.5324 -9.18549,-3.80087 -14.25342,-3.80087 0.63422,1.26847 0.94906,2.53245 0.94906,3.80087 0,1.89821 -0.94906,3.48599 -2.85176,4.75131 7.60173,-1.89816 12.98634,-3.48601 16.15391,-4.75131 z m -24.70604,-2.85178 c -2.53241,0 -5.70132,2.21754 -9.50217,6.65132 5.06801,1.26845 9.18554,1.58331 12.35306,0.94906 -2.5324,-1.26845 -3.80088,-2.85176 -3.80088,-4.7513 0,-1.90265 0.31501,-2.85174 0.94909,-2.85174 z M 457.2751,402.62611 V 281.94807 c -13.30301,0 -19.95433,23.43893 -19.95433,70.3164 -14.5701,19.00433 -26.92311,38.95907 -37.05861,59.86381 1.26845,15.83723 12.03594,31.99064 32.30735,48.46125 -11.4026,38.64237 -58.98311,48.28758 -81.70731,86.66639 -14.2535,24.07227 12.28038,71.00229 -11.79189,115.97934 -81.71898,31.04022 -153.87446,54.86383 -211.52116,81.46986 -29.773603,17.10389 -40.542854,31.83233 -32.307344,44.18539 8.235034,12.35254 16.787214,16.31175 25.656024,11.87755 67.78219,-38.64239 127.9627,-50.995 180.54146,-37.05863 52.57874,13.93682 103.89081,22.4885 153.93538,25.65607 45.61081,3.16663 71.58351,-21.22187 77.91815,-73.16685 2.53241,-127.32937 14.88678,-231.85353 37.05861,-313.57254 z m 138.7324,0 c -22.17183,81.08521 -33.2578,180.22521 -33.2578,297.41868 17.10389,1.89816 24.70562,8.55214 22.80518,19.95471 -1.89818,11.40261 -6.01792,22.17183 -12.35301,32.30735 -5.70129,13.93682 7.28505,30.40691 38.95904,49.41121 15.20346,-0.63422 23.43898,1.89818 24.70562,7.60218 12.03638,2.5324 17.42099,9.18504 16.15391,19.95429 h -14.25305 c -4.43507,3.80085 -26.60648,5.06798 -66.51553,3.80085 H 82.888766 c -47.5108,-39.27572 -39.27571,-75.70059 24.705604,-109.275 81.08565,-38.64244 153.24114,-61.83225 211.52118,-79.56942 9.70457,-37.71493 -7.29923,-79.62239 6.18551,-102.97861 30.95161,-53.61014 69.65608,-52.52434 79.17667,-77.34507 -26.60603,-31.674 -34.46414,-51.62066 -24.64529,-68.40788 9.81881,-16.78721 20.7464,-32.149 32.78278,-46.08538 0,-57.64667 10.13545,-86.47026 30.40684,-86.47026 -8.23546,-10.13552 -13.93675,-18.0539 -17.10387,-23.75521 -3.16663,-5.70129 -5.06796,-11.7197 -5.70124,-18.05428 H 402.1626 c -17.73724,0 -24.38894,-8.86883 -19.95478,-26.60605 h -5.70129 c -0.63418,-3.80085 -0.31501,-7.28505 0.94914,-10.45262 -2.53245,-0.63423 -4.4351,-1.89818 -5.70132,-3.80085 l 3.80088,-7.60173 c -8.86886,-0.63425 -13.30302,-2.5324 -13.30302,-5.70131 0,-6.33458 4.75084,-18.05428 14.25298,-35.15817 -1.26845,-8.23508 -0.94909,-17.42057 0.94909,-27.55651 6.96837,-52.578734 38.00863,-79.026428 93.12158,-79.343105 55.11253,-0.315006 93.43826,18.212684 114.97631,55.587965 21.53855,37.37528 32.30735,98.50577 32.30735,183.39228 v 138.73194 z"
     id="path1"
     sodipodi:nodetypes="cssscsccssccccccccsccssccccsccscccccccccccscccsccccscccccsccccccsccscsccccccscccccccccscsccscscccccsccssscccs" />
  <path
     style="fill:#ffbe6f;stroke:none;stroke-width:53.4255"
     d="m 441.16406,44.154297 c -0.009,0.0181 -0.0182,0.03645 -0.0273,0.05469 0.5936,0.715613 0.39464,0.432604 0.0273,-0.05469 z"
     id="path20" />
  <path
     style="fill:#000000;stroke:none;stroke-width:53.4255"
     d="m 383.35742,0.00585938 c -1.17692,0.03593491 -2.37692,0.2408768 -3.59961,0.61523437 -4.8908,1.49745055 -9.08914,3.64420145 -12.59375,6.44140625 -3.5046,2.7972059 -4.3188,5.518935 -2.44336,8.152344 1.87543,2.640008 5.49534,3.662888 10.86133,3.039062 5.36627,-0.61072 4.97259,1.195466 -1.18164,5.421875 -6.15354,4.226414 -7.86992,14.151245 -5.15039,29.775391 2.0051,11.519832 7.11084,21.645924 13.66031,26.79416 l 13.06416,3.51443 201.27162,10.367151 21.04883,60.019527 17.7207,-6.9375 -27.05664,-50.308589 c 9.91214,-8.786504 8.16453,-16.20908 -5.24414,-22.267579 C 620.61265,64.200921 627.90439,56.03148 625.5918,50.125 623.94672,43.140635 619.91394,39.712082 613.49219,39.839844 607.09351,39.969688 599.82901,51.973522 591.70117,75.849609 L 401.52309,67.338954 390.59863,63.354827 c -3.30557,-7.099055 -0.43965,-14.703228 4.57129,-20.79428 6.05801,-7.364614 6.69593,-15.911654 1.91211,-25.638672 1.65702,-4.53817 0.40816,-8.7633095 -3.75,-12.6757812 -3.11848,-2.9343472 -6.44385,-4.34803931 -9.97461,-4.24023442 z"
     id="path2"
     sodipodi:nodetypes="ssscccscccccccccccccccs" />
  <path
     id="path3"
     style="fill:#000000;stroke:none;stroke-width:53.914"
     d="m 134.95373,843.97921 c 12.67244,0.63369 18.69186,7.60347 18.05826,20.90952 -1.26727,13.30611 -8.2371,19.64238 -20.90958,19.00877 -12.67246,-1.26743 -18.69189,-8.55392 -18.05825,-21.85997 0.63358,-13.30611 7.60346,-19.32558 20.90957,-18.05832 z m 0,56.07563 c 12.67244,1.2674 18.69186,8.55395 18.05826,21.85995 -1.26727,13.30609 -8.2371,19.32552 -20.90958,18.05828 -12.67246,-0.63372 -18.69189,-7.60343 -18.05825,-20.90962 0.63358,-13.306 7.60346,-19.64228 20.90957,-19.00861 z m 0,57.02614 c 12.67244,1.26744 18.69186,8.5539 18.05826,21.85991 -1.26727,13.30609 -8.2371,19.32551 -20.90958,18.05818 -12.67246,-0.63393 -18.69189,-7.60343 -18.05825,-20.90943 0.63358,-13.3061 7.60346,-19.64238 20.90957,-19.00866 z M 282.27104,844.92966 c 12.67247,1.26746 18.69188,8.55395 18.05823,21.86 -0.63367,13.30605 -7.28666,19.32551 -19.95908,18.05824 -13.3061,-0.63368 -19.64232,-7.60346 -19.00874,-20.90957 1.26726,-13.30606 8.23711,-19.64231 20.90959,-19.00867 z m 0,57.02602 c 12.67247,1.26745 18.69188,8.55396 18.05823,21.85996 -0.63367,13.3061 -7.28666,19.32553 -19.95908,18.05829 -13.3061,-0.63373 -19.64232,-7.60352 -19.00874,-20.90952 1.26726,-13.3061 8.23711,-19.64233 20.90959,-19.00873 z m 0,57.02616 c 12.67247,0.63361 18.69188,7.60342 18.05823,20.90952 -0.63367,13.30598 -7.28666,19.64237 -19.95908,19.00876 -13.3061,-0.63402 -19.64232,-7.60363 -19.00874,-20.90973 1.26725,-13.30598 8.23711,-19.64227 20.90959,-19.00855 z M 432.43966,843.97921 c 12.67246,1.26744 18.6919,8.55393 18.05825,21.85997 -0.63367,13.30613 -7.28667,19.32558 -19.95912,18.05832 -13.3061,-0.63368 -19.64234,-7.6035 -19.00872,-20.90963 1.2673,-13.30605 8.23713,-19.64232 20.90959,-19.00866 z m 0,57.02607 c 12.67246,1.26742 18.6919,8.55389 18.05825,21.85998 -0.63367,13.306 -7.28667,19.32544 -19.95912,18.05818 -13.3061,-0.63361 -19.64234,-7.60342 -19.00872,-20.90951 1.2673,-13.3061 8.23713,-19.6423 20.90959,-19.00865 z m 0,57.02608 c 12.67246,1.26744 18.6919,8.5539 18.05825,21.86 -0.63367,13.30598 -7.28667,19.32542 -19.95912,18.05818 -13.3061,-0.63392 -19.64234,-7.60343 -19.00872,-20.90952 1.2673,-13.30599 8.23713,-19.64228 20.90959,-19.00866 z M 580.70742,843.97921 c 12.67247,1.26744 18.37506,8.55393 17.10778,21.85997 -0.63368,13.30613 -7.28667,19.32558 -19.95908,18.05832 -13.30606,-0.63368 -19.64233,-7.6035 -19.00867,-20.90963 1.26742,-13.30605 8.55391,-19.64232 21.85997,-19.00866 z m 0,57.02607 c 12.67247,1.26742 18.37506,8.55389 17.10778,21.85998 -0.63368,13.306 -7.28667,19.32544 -19.95908,18.05818 -13.30606,-0.63361 -19.64233,-7.60342 -19.00867,-20.90951 1.26742,-13.3061 8.55391,-19.6423 21.85997,-19.00865 z m 0,57.02608 c 12.67247,1.26744 18.37506,8.5539 17.10778,21.86 -0.63368,13.30598 -7.28667,19.32542 -19.95908,18.05818 -13.30606,-0.63392 -19.64233,-7.60343 -19.00867,-20.90952 1.26742,-13.30599 8.55391,-19.64228 21.85997,-19.00866 z" />
</svg>
