<?xml version="1.0" encoding="UTF-8" standalone="no"?>
<svg
   width="800"
   height="1000"
   version="1.1"
   id="svg1"
   sodipodi:docname="1373B.svg"
   inkscape:version="1.4.2 (f4327f4, 2025-05-13)"
   xmlns:inkscape="http://www.inkscape.org/namespaces/inkscape"
   xmlns:sodipodi="http://sodipodi.sourceforge.net/DTD/sodipodi-0.dtd"
   xmlns="http://www.w3.org/2000/svg"
   xmlns:svg="http://www.w3.org/2000/svg">
  <defs
     id="defs1" />
  <sodipodi:namedview
     id="namedview1"
     pagecolor="#ffffff"
     bordercolor="#666666"
     borderopacity="1.0"
     inkscape:showpageshadow="2"
     inkscape:pageopacity="0.0"
     inkscape:pagecheckerboard="0"
     inkscape:deskcolor="#d1d1d1"
     showguides="true"
     inkscape:zoom="0.32810209"
     inkscape:cx="537.94232"
     inkscape:cy="309.35493"
     inkscape:window-width="1680"
     inkscape:window-height="998"
     inkscape:window-x="-8"
     inkscape:window-y="-8"
     inkscape:window-maximized="1"
     inkscape:current-layer="svg1">
    <sodipodi:guide
       position="82.722656,166.44922"
       orientation="0,-1"
       id="guide22"
       inkscape:locked="false" />
    <sodipodi:guide
       position="470.64062,975.08984"
       orientation="0,-1"
       id="guide23"
       inkscape:locked="false" />
  </sodipodi:namedview>
  <path
     id="path2"
     style="fill:#000000;stroke:none;stroke-width:53.4255"
     d="m 383.35742,0.00585938 c -1.17692,0.03593496 -2.37692,0.2408768 -3.59961,0.61523437 -4.8908,1.49745055 -9.08914,3.64420145 -12.59375,6.44140625 -3.5046,2.7972059 -4.3188,5.518935 -2.44336,8.152344 1.87543,2.640008 5.49534,3.662888 10.86133,3.039062 5.36627,-0.61072 4.97259,1.195466 -1.18164,5.421875 -6.15354,4.226414 -7.86992,14.151245 -5.15039,29.775391 2.0051,11.519832 6.62045,21.228717 13.16992,26.376953 -2.6503,7.407972 -4.61852,15.56586 -5.90625,24.472655 -1.26773,10.14166 -1.26773,19.33217 0,27.57227 -9.5078,17.1141 -14.26172,28.84114 -14.26172,35.17968 0,3.16928 4.43661,5.06929 13.31055,5.70313 l -3.80273,7.60742 c 1.26774,2.5354 3.16969,3.80274 5.70507,3.80274 -1.26779,3.16928 -1.58502,6.65584 -0.95117,10.45898 h 5.70508 c -4.43699,17.74793 2.21887,26.62109 19.9668,26.62109 H 420.25 c 0.63384,6.33857 2.53579,12.35981 5.70508,18.06446 3.16925,5.70471 8.87317,12.67786 17.11328,20.91797 -24.72035,1.26772 -42.46865,7.92355 -53.24414,19.96679 l 28.9502,98.88928 c -6.06032,11.39204 -26.05646,27.70992 -42.63389,36.14473 -0.009,18.96029 9.62356,36.70016 28.89658,53.2199 -29.64017,19.0701 -51.61612,40.58011 -66.51172,63.08203 -14.8956,22.50182 -12.15947,76.89745 -4.21875,108.70508 C 262.0472,658.6181 188.57677,686.17961 107.44336,724.21094 43.424023,757.80521 35.183552,794.25178 82.722656,833.55078 H 572.375 c 39.93274,1.26787 62.11761,3.8e-4 66.55469,-3.80273 h 14.26172 c 1.26776,-10.77557 -4.12082,-17.43157 -16.16407,-19.9668 -1.26774,-5.70441 -9.50627,-8.24116 -24.71875,-7.60742 -31.69276,-19.01565 -44.68709,-35.49466 -38.98242,-49.43945 6.33863,-10.14164 10.45811,-20.91675 12.35938,-32.32618 1.90157,-11.40934 -5.70431,-18.06498 -22.81836,-19.96679 0,-117.26308 11.09241,-216.46228 33.27734,-297.59571 h 21.86719 l -0.94922,-68.45508 v -74.1621 c 0.56671,-73.10909 -7.80198,-128.4756 -24.9707,-166.367192 l 5.15429,0.265625 21.04883,60.019527 17.7207,-6.9375 -27.05664,-50.308589 c 9.91214,-8.786504 8.16453,-16.20908 -5.24414,-22.267579 C 620.61265,64.200921 627.90439,56.03148 625.5918,50.125 c -1.64508,-6.984365 -5.67786,-10.412918 -12.09961,-10.285156 -6.39868,0.129844 -13.66318,12.133678 -21.79102,36.009765 -2.85805,0.129773 -5.85311,0.215195 -8.97265,0.263672 -22.01791,-34.438827 -59.38135,-51.506042 -112.0879,-51.203125 -38.15035,0.21926 -64.92447,12.952144 -80.32226,38.199219 -3.30557,-7.099055 -0.15938,-14.457776 4.85156,-20.548828 6.05801,-7.364614 6.69593,-15.911654 1.91211,-25.638672 1.65702,-4.53817 0.40816,-8.7633095 -3.75,-12.6757812 -3.11848,-2.934347 -6.44385,-4.34803931 -9.97461,-4.24023442 z M 473.96875,42.5 c 38.13324,0 66.55474,11.129344 85.26563,33.388672 C 511.89963,74.50882 449.46434,68.328544 406.35352,67.5625 417.72429,50.853662 440.26269,42.5 473.96875,42.5 Z m -74.58984,41.447266 170.9707,8.794922 c 17.16595,32.575402 25.79492,88.317652 25.79492,167.486332 v 120.75 H 476.3457 V 173.70703 c 4.43695,-6.33857 10.14086,-15.21172 17.11328,-26.62109 6.97238,-11.4094 10.30132,-23.61145 9.98438,-36.60547 -0.31693,-12.994041 -7.76509,-18.222952 -22.34375,-15.687501 -10.1417,0 -16.48026,6.338541 -19.01563,19.015621 -0.63389,-10.14166 -6.33776,-17.589826 -17.11328,-22.343746 -10.77554,-4.7539 -26.30651,-5.546202 -46.58984,-2.376953 0.25323,-1.772627 0.60958,-3.469168 0.99805,-5.140625 z m 14.92773,14.470703 c 5.22932,-0.118838 12.59767,1.367013 22.10547,4.457031 12.67712,4.12005 19.01562,12.8355 19.01562,26.14648 h 13.3125 c 1.90161,-12.04324 5.7035,-18.0664 11.40821,-18.0664 5.70467,0 6.65669,6.02316 2.85351,18.0664 l -26.62304,41.83399 v 77.96289 l -2.85157,-0.94922 c -9.50782,-4.43699 -16.16366,-17.11407 -19.96679,-38.03125 h -26.6211 c -9.50782,0 -14.26172,-2.8539 -14.26172,-8.55859 0.63383,-8.87396 5.07043,-13.9432 13.31055,-15.21094 0,-5.07084 -1.26732,-7.60742 -3.80273,-7.60742 h -18.06641 c 3.80315,-7.60624 0.31851,-12.67749 -10.45703,-15.21289 0.63382,-4.437 5.38775,-14.89476 14.26172,-31.375 0,-12.04323 0.94998,-20.91642 2.85156,-26.6211 7.60625,-2.53542 13.94479,-4.59699 19.01563,-6.181638 1.26771,-0.396151 2.77252,-0.612731 4.51562,-0.652343 z m -1.1875,9.923831 c -8.2401,0.15845 -15.05365,2.61327 -20.44141,7.36718 l 0.94922,8.5586 c 11.40939,-10.1417 27.57305,-11.09364 48.49024,-2.85352 h 7.60742 v -6.65429 h -7.60742 c -11.09245,-4.437 -20.75794,-6.57643 -28.99805,-6.41797 z m 2.37695,12.12109 c -12.67711,0 -20.60024,4.75392 -23.76953,14.26172 l 0.95117,2.85351 h 5.70313 c 3.16927,2.53544 7.29049,3.48545 12.36133,2.85157 5.07082,0 15.52864,-3.16929 31.375,-9.50781 l 8.55664,0.95117 -0.94922,-4.75391 h -7.60742 c -13.31092,-4.43701 -22.18416,-6.65625 -26.6211,-6.65625 z m 0.95118,5.70508 c 5.7047,0 10.7739,1.26734 15.21093,3.80273 -3.16928,1.26773 -8.55589,2.85236 -16.16211,4.75391 1.90154,-1.26771 2.85157,-2.85235 2.85157,-4.75391 0,-1.26773 -0.63267,-2.535 -1.90039,-3.80273 z m -9.50782,0.95117 c -0.63382,0.63384 -0.95117,1.90118 -0.95117,3.80274 0,1.26772 1.26733,2.53502 3.80274,3.80273 -3.16923,0.63384 -7.28854,0.31848 -12.35938,-0.94922 3.80313,-4.43697 6.97242,-6.65625 9.50781,-6.65625 z m 49.43946,154.97852 V 402.8457 h 114.09375 c -22.81876,81.76728 -35.17855,186.35304 -37.08008,313.75782 -6.33852,51.97605 -32.32534,76.38011 -77.96289,73.21093 -50.07454,-3.1693 -101.41742,-11.72712 -154.02735,-25.67187 -52.60994,-13.94481 -112.82596,-1.58309 -180.64843,37.08203 -8.87395,4.43699 -17.43176,0.47541 -25.671879,-11.88477 -8.240108,-12.36011 2.535015,-27.09879 32.326169,-44.21289 57.68077,-26.62186 136.27976,-55.4626 235.79492,-86.52148 -11.25839,-43.06854 -16.38345,-95.67525 -0.5371,-119.76172 14.09851,-21.42971 42.21581,-43.20111 68.92968,-62.88281 l 1.01368,-15.11719 c -20.28337,-16.48022 -25.44794,-30.66537 -28.61716,-46.51173 22.1849,-19.64946 17.52433,-47.61476 -0.85745,-79.9414 l 8.41605,-38.13867 c 7.13074,-11.66296 24.54476,-14.15429 44.82809,-14.15429 z M 108.03516,846.625 c -10.26055,0.48533 -15.668076,6.55214 -16.22266,18.19922 -0.63387,13.31093 5.38735,20.59923 18.06445,21.86719 12.67711,0.6338 19.65025,-5.7047 20.91797,-19.01563 0.63383,-13.31094 -5.38738,-20.28423 -18.06445,-20.91797 -1.66387,-0.15846 -3.22952,-0.20214 -4.69531,-0.13281 z m 96.92187,0 c -10.26054,0.48533 -15.66807,6.55214 -16.22265,18.19922 -0.63387,13.31093 5.38735,20.59923 18.06445,21.86719 12.67711,0.6338 19.64829,-5.7047 20.91601,-19.01563 0.63383,-13.31094 -5.38738,-20.28423 -18.06445,-20.91797 -1.66387,-0.15846 -3.22757,-0.20214 -4.69336,-0.13281 z m 96.91992,0 c -10.26054,0.48533 -15.66807,6.55214 -16.22265,18.19922 -0.63387,13.31093 5.38735,20.59923 18.06445,21.86719 12.67711,0.6338 19.65025,-5.7047 20.91797,-19.01563 0.63383,-13.31094 -5.38738,-20.28423 -18.06445,-20.91797 -1.66388,-0.15846 -3.22952,-0.20214 -4.69532,-0.13281 z m 96.92188,0 c -10.26055,0.48533 -15.66807,6.55214 -16.22266,18.19922 -0.63387,13.31093 5.38736,20.59923 18.06445,21.86719 12.67711,0.6338 19.6483,-5.7047 20.91602,-19.01563 0.63383,-13.31094 -5.38738,-20.28423 -18.06445,-20.91797 -1.66387,-0.15846 -3.22757,-0.20214 -4.69336,-0.13281 z m 96.91992,0 c -10.26054,0.48533 -15.66807,6.55214 -16.22266,18.19922 -0.63387,13.31093 5.38736,20.59923 18.06446,21.86719 12.67711,0.6338 19.65025,-5.7047 20.91797,-19.01563 0.63383,-13.31094 -5.38739,-20.28423 -18.06446,-20.91797 -1.66387,-0.15846 -3.22952,-0.20214 -4.69531,-0.13281 z m 96.92187,0 c -10.26054,0.48533 -15.66807,6.55214 -16.22265,18.19922 -0.63387,13.31093 5.38735,20.59923 18.06445,21.86719 12.67711,0.6338 19.65025,-5.7047 20.91797,-19.01563 0.63383,-13.31094 -5.38934,-20.28423 -18.06641,-20.91797 -1.66387,-0.15846 -3.22756,-0.20214 -4.69336,-0.13281 z M 127.5625,903.26953 c -13.31097,-0.63391 -20.28221,5.70469 -20.91602,19.01563 -0.63387,13.31099 5.38736,20.28226 18.06446,20.91601 12.67711,1.26776 19.64829,-4.75353 20.91601,-18.06445 0.63383,-13.31093 -5.38738,-20.5993 -18.06445,-21.86719 z m 96.92188,0 c -13.31097,-0.63391 -20.28416,5.70469 -20.91797,19.01563 -0.63387,13.31099 5.38735,20.28226 18.06445,20.91601 12.67711,1.26776 19.65025,-4.75353 20.91797,-18.06445 0.63383,-13.31093 -5.38739,-20.5993 -18.06445,-21.86719 z m 96.91992,0 c -13.31097,-0.63391 -20.28221,5.70469 -20.91602,19.01563 -0.63387,13.31099 5.38735,20.28226 18.06445,20.91601 12.67711,1.26776 19.65025,-4.75353 20.91797,-18.06445 0.63383,-13.31093 -5.38933,-20.5993 -18.0664,-21.86719 z m 96.92187,0 c -13.31097,-0.63391 -20.28416,5.70469 -20.91797,19.01563 -0.63387,13.31099 5.38931,20.28226 18.06641,20.91601 12.67711,1.26776 19.6483,-4.75353 20.91601,-18.06445 0.63383,-13.31093 -5.38738,-20.5993 -18.06445,-21.86719 z m 96.92188,0 c -13.31097,-0.63391 -20.28416,5.70469 -20.91797,19.01563 -0.63387,13.31099 5.38735,20.28226 18.06445,20.91601 12.67711,1.26776 19.65025,-4.75353 20.91797,-18.06445 0.63383,-13.31093 -5.38738,-20.5993 -18.06445,-21.86719 z m 96.91992,0 c -13.31097,-0.63391 -20.28221,5.70469 -20.91602,19.01563 -0.63387,13.31099 5.38736,20.28226 18.06446,20.91601 12.67711,1.26776 19.64829,-4.75353 20.91601,-18.06445 0.63383,-13.31093 -5.38738,-20.5993 -18.06445,-21.86719 z m -469.77149,56.63281 c -13.31097,-0.63385 -20.28415,5.7047 -20.91796,19.01563 -0.63387,13.31093 5.3893,20.28228 18.0664,20.91601 12.67711,1.26782 19.6483,-4.75352 20.91602,-18.06445 0.63383,-13.31092 -5.38739,-20.59932 -18.06446,-21.86719 z m 96.92188,0 c -13.31097,-0.63385 -20.28416,5.7047 -20.91797,19.01563 -0.63387,13.31093 5.38735,20.28228 18.06445,20.91601 12.67711,1.26782 19.65025,-4.75352 20.91797,-18.06445 0.63383,-13.31092 -5.38738,-20.59932 -18.06445,-21.86719 z m 96.91992,0 c -13.31097,-0.63385 -20.2822,5.7047 -20.91601,19.01563 -0.63387,13.31093 5.38735,20.28228 18.06445,20.91601 12.67711,1.26782 19.64829,-4.75352 20.91601,-18.06445 0.63383,-13.31092 -5.38738,-20.59932 -18.06445,-21.86719 z m 96.92188,0 c -13.31097,-0.63385 -20.28416,5.7047 -20.91797,19.01563 -0.63387,13.31093 5.38735,20.28228 18.06445,20.91601 12.67711,1.26782 19.65025,-4.75352 20.91797,-18.06445 0.63383,-13.31092 -5.38738,-20.59932 -18.06445,-21.86719 z m 96.91992,0 c -13.31097,-0.63385 -20.28221,5.7047 -20.91602,19.01563 -0.63387,13.31093 5.38736,20.28228 18.06446,20.91601 12.67711,1.26782 19.64829,-4.75352 20.91601,-18.06445 0.63383,-13.31092 -5.38738,-20.59932 -18.06445,-21.86719 z m 96.92187,0 c -13.31097,-0.63385 -20.28416,5.7047 -20.91797,19.01563 -0.63387,13.31093 5.38736,20.28228 18.06446,20.91601 12.67711,1.26782 19.65025,-4.75352 20.91797,-18.06445 0.63383,-13.31092 -5.38739,-20.59932 -18.06446,-21.86719 z"
     sodipodi:nodetypes="ssscccscccscccccscscccccscccccccccccccccccccccccccsccccssccsccscccssccsccssccscccccsccsccccsssccccccssccccccccscccsccsccccccccscsccsccccccsscccssscccssscccssscccssscccssscccscsccccsccccsccccsccccsccccsccccsccccsccccsccccsccccsccccsccc" />
  <path
     style="fill:#000000;stroke:none;stroke-width:0.999998"
     d="m 389.82422,280.19531 c -51.01,40.93389 -90.6846,89.10916 -119.0234,144.52734 -27.6664,18.4941 -51.084,33.29527 -69.8145,49.74609 -18.7306,16.45083 -48.8076,32.5146 -88.22656,47.6836 -9.4769,-3.86247 -20.5067,-7.33711 -33.09375,-10.42383 -5.85966,-2.09631 -12.58834,-3.08624 -20.18359,-2.9707 -5.92095,0.71442 -13.70416,3.00591 -23.34961,6.87304 -9.64554,3.86713 -18.54937,5.99069 -26.71289,6.375 -2.84141,1.34405 -4.77162,2.78023 -5.78907,4.30469 -1.01753,1.52446 -0.2853,3.43642 2.19532,5.74023 -1.70483,0.80644 -2.2209,1.92115 -1.54883,3.3418 0.67199,1.42074 1.55813,2.56582 2.66406,3.4336 -1.43607,1.37468 -1.81652,2.77261 -1.14453,4.19335 0.67208,1.42072 1.71176,2.14517 3.11719,2.17579 -1.70484,0.80645 -2.1622,2.4147 -1.3711,4.82226 0.7911,2.40752 2.74139,3.22106 5.85157,2.44531 11.90334,-4.23969 21.33331,-7.82795 28.28711,-10.76953 6.95378,-2.94163 17.72502,-3.69124 32.3164,-2.24804 3.07963,0.62955 4.67972,1.43696 4.79883,2.42382 0.11903,0.98684 -1.09286,1.7353 -3.63477,2.24219 -3.37914,0.2075 -8.84956,-0.33517 -16.41406,-1.625 -5.62154,-0.12266 -10.28074,0.69022 -13.97461,2.4375 -3.69388,1.74729 -4.86945,4.04141 -3.52539,6.88281 1.34405,2.84144 5.41049,3.35359 12.19922,1.53321 5.8904,0.69093 14.22544,2.13619 25.00391,4.33984 10.7786,2.20355 22.1649,-0.92311 34.16015,-9.37891 l 40.7324,-10.92187 c 58.1419,-22.63446 98.9101,-38.72668 147.6856,-71.0918 44.0827,-42.82318 75.2567,-79.03446 93.5195,-108.63281 5.038,-3.14877 6.2963,1.57293 3.7773,14.16797 -2.519,12.59505 -8.96079,27.03348 -22.18559,43.40706 l 27.85169,-0.8973 c 22.6711,-20.78183 25.1917,-47.23226 7.5586,-79.34961 v -38.73046 z"
     id="path25"
     sodipodi:nodetypes="ccscccscscscscscscsccssccccccsccccc" />
  <path
     style="fill:#000000;stroke:none;stroke-width:0.999998"
     d="m 617.0625,334.85543 v -0.13085 c 18.9971,48.65214 48.4691,100.79716 73.2363,137.07812 29.5625,33.62693 81.0937,73.80002 137.5137,114.4707 9.1531,18.78632 24.164,30.68138 34.498,36.96094 10.3341,6.27969 18.3039,10.97129 23.9141,14.07422 5.4244,6.24086 9.3934,8.36556 11.9043,6.37305 2.9175,-2.47241 3.0028,-5.49129 0.2539,-9.05469 -2.7488,-3.56352 -6.929,-6.89505 -12.5391,-9.99805 -6.9758,-3.43575 -10.9217,-8.28493 -13.6367,-13.95508 -0.5683,-1.18683 -4.2551,-8.2491 2.791,-3.88086 14.0554,8.7138 23.7754,16.42975 29.0332,23.35352 5.258,6.92366 12.7821,16.2634 22.7227,27.88867 3.2519,3.80296 7.3269,2.29044 8.0293,0.002 0.5192,-1.69221 0.601,-2.73787 0.2519,-3.13868 1.5878,0.45581 2.8262,-0.0578 3.709,-1.53906 0.979,-1.64239 1.1901,-3.11006 0.6367,-4.40234 0.9597,0.81256 2.0488,0.49984 3.2676,-0.93946 1.2188,-1.43937 1.1093,-2.76954 -0.3301,-3.98828 3.0644,-0.70013 4.7252,-2.17575 4.9844,-4.42773 0.2594,-2.25177 -0.01,-5.56688 -3.3203,-7.75195 -8.463,-5.5796 -16.2734,-13.37065 -23.3574,-23.48829 -9.5672,-13.40035 -20.9499,-25.65791 -37.3106,-30.35937 -13.8046,-5.09963 -28.3148,-8.93707 -38.3418,-12.63477 -31.5591,-41.92258 -76.3192,-83.71073 -107.3652,-121.71289 -22.6518,-50.34613 -54.869,-107.47996 -84.7109,-154.1914 -12.486,-19.54428 -24.5181,-29.23438 -35.834,-29.23438 z"
     id="path27"
     sodipodi:nodetypes="ccccsccscssssscscscscccccscc" />
</svg>
