<?xml version="1.0" encoding="UTF-8" standalone="no"?>
<svg
   width="800"
   height="1000"
   version="1.1"
   id="svg1"
   sodipodi:docname="13753.svg"
   inkscape:version="1.4.2 (f4327f4, 2025-05-13)"
   xmlns:inkscape="http://www.inkscape.org/namespaces/inkscape"
   xmlns:sodipodi="http://sodipodi.sourceforge.net/DTD/sodipodi-0.dtd"
   xmlns="http://www.w3.org/2000/svg"
   xmlns:svg="http://www.w3.org/2000/svg">
  <defs
     id="defs1" />
  <sodipodi:namedview
     id="namedview1"
     pagecolor="#ffffff"
     bordercolor="#000000"
     borderopacity="0.25"
     inkscape:showpageshadow="2"
     inkscape:pageopacity="0.0"
     inkscape:pagecheckerboard="0"
     inkscape:deskcolor="#d1d1d1"
     inkscape:zoom="0.65376808"
     inkscape:cx="300.5653"
     inkscape:cy="477.99825"
     inkscape:window-width="1680"
     inkscape:window-height="998"
     inkscape:window-x="-8"
     inkscape:window-y="-8"
     inkscape:window-maximized="1"
     inkscape:current-layer="svg1"
     showguides="true" />
  <path
     style="fill:#000000;stroke:none;stroke-width:52.8338"
     d="m 206.74742,555.92127 c 9.52453,-17.46156 28.5735,-26.19232 57.14689,-26.19232 -20.63637,-23.01751 -41.6696,-30.95458 -63.09964,-23.8112 -21.43012,7.14335 -27.77977,12.30246 -19.04899,15.47732 8.73078,3.17484 17.06469,14.68358 25.00174,34.5262 z m 477.41444,-7.1434 h 25.00173 V 410.67298 c 0,-129.37412 -13.49298,-205.76838 -40.47898,-229.1827 -26.98599,-23.41438 -58.139,-37.1058 -93.459,-41.07431 -35.31989,-3.96854 -58.93261,7.14333 -70.83823,33.33563 27.77971,3.96856 51.98775,13.49304 72.62408,28.57346 18.25528,-7.93708 33.53413,-6.15123 45.83659,5.35753 12.30247,11.50874 15.27886,26.19232 8.92919,44.05075 -6.34965,17.85838 -17.46157,35.31987 -33.33568,52.38453 -15.87411,17.06468 -24.20802,54.96417 -25.00169,113.69848 v 58.33741 h 20.23947 v -58.33741 c 0,-30.16084 15.08042,-45.04284 45.24121,-44.64599 30.16088,0.39686 45.24131,15.27886 45.24131,44.64599 z M 481.76675,227.32681 c 7.14334,-19.84264 27.7797,-18.65209 61.90908,3.57167 -37.30421,16.66785 -57.94058,15.47728 -61.90908,-3.57167 z m -22.62069,65.48077 c 9.5245,-3.1748 19.84268,-1.38896 30.95461,5.35755 11.11188,6.74649 1.5874,10.51659 -28.57347,11.3103 6.34967,5.55594 8.33392,11.70714 5.95284,18.45372 -2.38114,6.74649 -0.39689,12.10397 5.95277,16.07246 38.8916,0 60.71853,2.38115 65.48079,7.14341 4.76223,4.76223 9.52448,13.49299 14.28669,26.19232 3.17485,-46.82871 15.08047,-80.75964 35.71686,-101.79284 20.63633,-21.03323 26.78753,-36.70895 18.45361,-47.02715 -8.3339,-10.31818 -18.8505,-8.73076 -31.54981,4.76226 -25.39862,-22.22382 -55.95635,-34.52625 -91.67312,-36.90734 -3.96854,15.87413 -17.06466,39.68533 -39.2884,71.43357 14.28667,2.38114 19.04891,10.71502 14.28663,25.00174 z M 563.9153,499.96501 c -25.3986,53.1783 -42.46325,161.91609 -51.19403,326.21328 H 472.24224 L 311.51666,598.78144 c -23.01747,-34.92312 -46.43179,-44.24915 -70.24297,-27.97819 -23.81117,16.27104 -17.85838,51.59098 17.8584,105.95985 35.7168,54.36888 65.48078,139.89076 89.29199,256.56563 l -80.95806,33.33561 h 394.07524 l -29.76402,-19.04893 c 23.01747,-78.57692 34.52618,-176.99654 34.52618,-295.25881 v -79.76748 h 42.86017 c 6.34968,112.70632 -3.17485,234.54027 -28.57341,365.50187 l 52.38463,61.90899 H 224.60585 l -5.95278,-46.43177 90.48255,-39.28847 C 286.11808,821.4161 260.52105,751.17308 232.34451,703.55068 204.16794,655.92829 188.88906,615.44926 186.50795,582.1136 174.60234,559.09612 158.7282,542.82515 138.88557,533.30067 c -19.84267,-9.5245 -7.14338,-25.39862 38.09791,-47.6224 h 1.19057 v -185.7273 c 0,-17.46154 -6.74654,-26.19231 -20.23955,-26.19231 -15.87414,7.93707 -26.78758,19.64422 -32.74036,35.12149 -5.95284,15.47728 -10.51663,28.37499 -13.69145,38.69317 -10.31819,18.25527 -15.874135,15.87415 -16.667844,-7.1434 11.905604,-41.27267 19.247384,-67.06813 22.025324,-77.38634 2.77801,-10.31815 12.89777,-23.41431 30.35929,-39.28848 11.9056,-13.49299 25.00176,-25.79544 39.28849,-36.90734 17.46153,-5.55593 25.00172,-2.38108 22.6206,9.52451 -5.55593,10.31818 -12.30242,17.46151 -20.23949,21.43005 -7.93705,7.93707 -15.08043,17.46154 -21.43011,28.57345 23.81124,1.58744 36.11369,19.44582 36.90742,53.5752 v 180.96505 c 34.92306,-5.55593 59.52796,3.17484 73.81466,26.19232 13.49304,7.93707 24.60491,18.6521 33.33563,32.14512 L 473.43281,766.6503 C 486.13211,619.81463 510.34018,503.53663 546.05695,417.81635 533.35765,383.687 513.91181,366.6223 487.71951,366.6223 l -44.05065,77.38638 c -24.60493,42.86012 -53.57522,50.79715 -86.91091,23.81111 3.17484,-11.90556 9.72293,-16.46935 19.64428,-13.69136 9.9213,2.77799 20.04105,-0.9921 30.35923,-11.31031 l 42.86014,-97.62589 c 2.38114,-15.08043 1.38901,-24.00967 -2.9764,-26.78765 -4.36537,-2.77794 -3.3732,-7.34175 2.9764,-13.69142 -8.73074,-2.38108 -9.52448,-8.73073 -2.38109,-19.04893 -7.14339,-1.58742 -13.49303,-3.9685 -19.04895,-7.14335 -5.55599,-3.17481 -1.19058,-15.87412 13.09614,-38.09794 14.28674,-22.22374 21.43006,-36.7089 21.43006,-43.45543 0,-6.74649 8.33391,-22.02534 25.00175,-45.83653 16.66783,-23.81116 44.44754,-35.91518 83.33915,-36.31203 38.89169,-0.39687 75.79904,12.30244 110.72213,38.09788 34.92303,25.79545 52.38457,98.61803 52.38457,218.4677 v 202.39515 h -76.19581 l 1.19034,-155.96333 c 0,-12.6993 -6.7465,-19.24739 -20.23954,-19.64423 -13.49284,-0.39688 -20.23926,6.15119 -20.23926,19.64423 v 83.33922 z"
     id="path1"
     sodipodi:nodetypes="ccsscccsssccssscccssscccccscscscssccccccccssccccscccccccscsccscsccsccccccccccccccsccsccssssssscccsscc" />
  <path
     d="M 385.89766,3.9999999 H 713.4909 V 116.35376 H 327.82717 V 102.65628 H 456.38174 V 84.246953 H 346.9736 V 71.328096 H 456.38174 V 51.361527 H 365.90963 V 37.664051 h 90.47211 V 16.140236 H 385.89766 Z M 472.41508,17.697481 V 102.65628 H 699.0148 V 17.697481 Z"
     style="fill:#5e5c64;stroke:#613583;stroke-width:8;stroke-dasharray:none"
     id="path1-4" />
</svg>
