<?xml version="1.0" encoding="UTF-8" standalone="no"?>
<svg
   width="544.43579"
   height="1000"
   version="1.1"
   id="svg1"
   sodipodi:docname="13758.svg"
   inkscape:version="1.4.3 (0d15f75, 2025-12-25)"
   xmlns:inkscape="http://www.inkscape.org/namespaces/inkscape"
   xmlns:sodipodi="http://sodipodi.sourceforge.net/DTD/sodipodi-0.dtd"
   xmlns="http://www.w3.org/2000/svg"
   xmlns:svg="http://www.w3.org/2000/svg">
  <defs
     id="defs1" />
  <sodipodi:namedview
     id="namedview1"
     pagecolor="#ffffff"
     bordercolor="#666666"
     borderopacity="1.0"
     inkscape:showpageshadow="2"
     inkscape:pageopacity="0.0"
     inkscape:pagecheckerboard="0"
     inkscape:deskcolor="#d1d1d1"
     inkscape:zoom="2.1354625"
     inkscape:cx="316.7932"
     inkscape:cy="212.83446"
     inkscape:window-width="1680"
     inkscape:window-height="998"
     inkscape:window-x="-8"
     inkscape:window-y="-8"
     inkscape:window-maximized="1"
     inkscape:current-layer="svg1"
     showguides="true">
    <sodipodi:guide
       position="332.66088,648.70236"
       orientation="0,-1"
       id="guide1"
       inkscape:locked="false" />
  </sodipodi:namedview>
  <path
     id="path5"
     style="fill:#000000;stroke:none;stroke-width:0.98086"
     d="m 387.22331,214.46033 h 1.04614 c -40.92622,0.69361 -69.71724,24.54994 -86.3652,71.71916 0.69369,6.24298 -6.1216,19.52105 -20.34173,39.63734 -14.22015,20.11627 -15.39569,31.86815 -3.6034,35.33649 11.79232,3.46831 16.96331,21.44867 15.57597,54.05089 l -37.42882,85.31906 c -9.01765,9.01766 -17.83159,12.30813 -26.50236,9.88027 -8.6708,-2.42778 -14.42863,1.5676 -17.2033,11.97255 29.13391,23.58465 54.51635,16.65119 76.01997,-20.80668 l 43.70568,-75.90375 c 19.42263,-2.08095 28.70713,7.3198 28.01347,28.12974 -35.37692,66.59183 -56.52956,180.34585 -63.46621,341.27625 L 151.02668,597.34994 C 131.60406,572.37796 106.69036,562.27237 76.169097,567.12791 V 409.04358 c -0.693647,-29.82761 -11.504355,-45.4568 -32.314303,-46.84411 5.549299,-9.71133 11.777755,-18.05463 18.714406,-24.99128 6.936639,-3.46832 12.812574,-9.69674 17.668251,-18.71441 2.080967,-10.40496 -4.499942,-13.22484 -19.760556,-8.36916 -12.485966,9.71126 -23.885371,20.52197 -34.290344,32.31429 -15.260601,13.8733 -24.0745147,25.2727 -26.50237483,34.29038 -2.42781907,9.0176 -8.89061657,31.5802 -19.29558717,67.65078 0.693654,20.11629 5.512155,22.23118 14.52981,6.27688 C -2.3069343,441.6393 1.6884798,430.358 6.8909645,416.83155 12.09345,403.3051 21.612336,393.08124 35.48563,386.14459 c 11.79228,0 17.784489,7.63836 17.784489,22.89899 v 162.2689 h -1.046143 c -39.538902,19.42273 -50.7020994,33.2894 -33.360438,41.61344 17.341611,8.32391 30.503463,21.83818 39.521083,40.5673 1.387329,12.4859 11.845523,40.57192 31.268155,84.27272 19.422584,43.70088 37.755414,103.04528 55.097044,177.96118 L 68.846083,959.43279 75.12296,1000 H 519.3865 l -47.8903,-62.41999 c 36.75614,-147.39367 30.02821,-299.17778 26.03743,-449.49426 -1.93174,-27.50684 -17.36655,-48.549 -41.38091,-61.25768 l -5.11446,-25.57248 c 0.78166,0.0152 1.51611,0 2.32474,0 50.76014,0 67.9995,-45.92569 67.9995,-77.41483 0,-30.71571 -1.28137,-54.21493 -25.92116,-77.18236 -26.35923,-20.11628 -53.03538,-30.81075 -80.08833,-32.19807 z m 4.3008,20.69046 c 3.57645,-0.005 7.37327,0.19101 11.27512,0.58206 31.21494,3.12154 58.00731,14.98966 80.20456,35.45275 15.58304,16.10376 15.69221,38.86415 15.69221,56.02696 0,25.76931 -18.89185,52.42353 -48.23897,52.42353 -1.33183,0 -4.53382,-0.23246 -4.53382,-0.23246 -28.82979,-3.77556 6.23757,-45.75123 6.27741,-45.79883 5.89619,-15.60746 3.54502,-28.53302 -7.20679,-38.59119 -10.75181,-10.05812 -24.14801,-11.58617 -40.10227,-4.64953 -18.03533,-13.17964 -39.54045,-21.87544 -64.51236,-26.03743 9.10435,-19.42263 26.10984,-29.14156 51.14491,-29.17586 z m -68.81315,49.98256 c 31.21488,2.081 57.89105,12.53922 80.0883,31.26814 11.79233,-11.79232 21.31121,-13.20222 28.59466,-4.18458 7.28351,9.01767 1.99437,22.7663 -16.04091,41.14843 -7.41783,13.62877 -10.50489,33.50507 9.06661,42.77577 l 4.99825,22.78275 c -17.5101,-1.97442 -35.77073,2.12168 -51.14494,14.29733 -2.33973,-7.4842 -4.72001,-13.4956 -7.20678,-18.01698 -3.81513,-6.9366 -19.20999,-9.99274 -46.26292,-9.29906 -11.09867,0.69365 -16.62209,-7.29719 -16.62209,-23.94514 18.91106,0.55636 31.9071,-0.93982 20.22538,-7.78792 -10.05768,-5.89611 -17.10956,-7.18801 -21.27154,-3.71969 v -13.48367 l -18.7144,-9.29908 c 6.93666,-13.8733 13.6357,-24.3315 20.2255,-31.26816 6.58985,-6.93664 11.29019,-17.39486 14.06488,-31.26814 z m -1.04614,27.08353 c 2.77468,16.64798 20.51877,17.35291 53.12098,2.09224 -9.40563,-6.04642 -24.71719,-14.66367 -35.60434,-14.66826 -11.25453,-0.004 -15.45775,6.85693 -17.51664,12.57602 z m 102.87106,136.46403 c 14.78769,0.74489 29.89882,9.1405 40.451,27.43228 6.70478,18.23944 8.83721,79.48515 6.50936,183.65677 -2.77461,124.16607 -16.28901,222.291 -40.56724,294.43218 l 26.03743,16.62211 H 119.75854 L 191.59393,939.6723 C 167.31561,836.31629 142.4019,762.39999 116.73634,718.00553 91.07072,673.61093 87.545897,646.93482 106.27487,637.91719 c 18.72892,-9.01764 34.71063,-3.84616 47.89026,15.57597 l 137.27765,194.58316 h 35.45275 c 5.54933,-166.47954 23.17715,-289.63454 53.00475,-369.40588 7.17835,-19.28218 25.62285,-30.94724 44.6356,-29.98953 z M 86.9793,586.77223 c 13.91667,0.25828 27.62198,7.92806 41.14843,23.0152 -24.97191,0 -41.658557,7.63842 -49.982554,22.89891 -6.936639,-17.34148 -14.222537,-27.33108 -21.852836,-30.10569 -9.230378,-3.39835 2.862706,-8.99735 16.738904,-13.6228 4.682176,-1.56056 9.309726,-2.29579 13.948616,-2.2081 z"
     sodipodi:nodetypes="cccssccscccccccccccccsccscsccscsccccccccsscccsscssccsccsccsccccsccscccscccscscsccccssccccsccccccc" />
  <path
     id="path1"
     style="fill:#000000;stroke:none;stroke-width:1.09499"
     d="m 317.67199,0 c -18.78525,0 -34.17779,15.392537 -34.17779,34.177783 0,16.208584 11.46051,29.89267 26.67112,33.341568 -3.98693,5.008143 -7.55285,10.865712 -10.73389,17.303826 -3.3573,-13.317761 -21.45369,-21.068774 -32.21022,-9.835656 -11.54588,12.057438 -5.13846,31.169059 12.2288,31.660589 -6.11296,17.65963 -10.71812,40.13076 -12.5881,72.18589 -9.65067,0 -20.02081,-4.25244 -29.8021,-8.22739 -4.66535,-1.55508 -6.48173,0.51927 -5.44501,6.22133 7.0231,19.15394 26.47475,24.14965 40.30716,24.14965 27.78228,0 41.67585,-10.17501 62.1321,-10.02172 27.90234,0.2091 43.90909,7.18814 58.51562,29.41501 h 5.8321 5.8321 c 14.60653,-22.22687 30.6133,-29.20591 58.51564,-29.41501 20.45624,-0.15329 34.3498,10.02172 62.13208,10.02172 13.83241,0 33.28406,-4.99571 40.30716,-24.14965 1.03673,-5.70206 -0.77751,-7.77641 -5.44286,-6.22133 -9.78112,3.97487 -20.1516,8.22723 -29.80211,8.22739 -1.86997,-32.05513 -6.47514,-54.52626 -12.58809,-72.18589 17.36726,-0.49153 23.77253,-19.603151 12.22666,-31.660589 C 518.82583,63.754403 500.72944,71.505416 497.37214,84.823177 494.1911,78.385063 490.62732,72.527494 486.64038,67.519351 501.851,64.070453 513.30936,50.386369 513.30936,34.177783 513.30936,15.392537 497.91682,0 479.13158,0 460.34634,0 444.9538,15.392537 444.9538,34.177783 c 0,16.208498 11.46022,29.892579 26.67111,33.341568 -18.25877,22.935503 -27.67809,63.714199 -31.82526,96.254269 -0.67124,0.14095 -1.34136,0.28771 -2.01034,0.4427 C 433.67132,131.60346 424.25094,90.5569 405.90845,67.517213 421.11936,64.068726 432.57956,50.386496 432.57956,34.177783 432.57956,15.392531 417.18704,0 398.40178,0 379.61653,0 364.224,15.392531 364.224,34.177783 c 0,16.20899 11.45982,29.891234 26.67112,33.33943 -18.34243,23.03975 -27.7629,64.086317 -31.88087,96.699107 -0.66894,-0.15499 -1.33913,-0.30175 -2.01034,-0.4427 C 352.85675,131.23353 343.43958,90.454881 325.18079,67.519351 340.39168,64.070362 351.8519,50.38628 351.8519,34.177783 351.8519,15.392537 336.45723,0 317.67199,0 Z m 0,15.329851 c 10.50038,0 18.84793,8.347539 18.84793,18.847932 0,10.500392 -8.34755,18.84793 -18.84793,18.84793 -10.50039,0 -18.84794,-8.347538 -18.84794,-18.84793 0,-10.500393 8.34755,-18.847932 18.84794,-18.847932 z m 80.72979,0 c 10.50039,0 18.84793,8.347546 18.84793,18.847932 0,10.500384 -8.34754,18.84793 -18.84793,18.84793 -10.50039,0 -18.84793,-8.347546 -18.84793,-18.84793 0,-10.500386 8.34754,-18.847932 18.84793,-18.847932 z m 80.7298,0 c 10.50039,0 18.84793,8.34754 18.84793,18.847932 0,10.500392 -8.34754,18.84793 -18.84793,18.84793 -10.50039,0 -18.84793,-8.347538 -18.84793,-18.84793 0,-10.500392 8.34754,-18.847932 18.84793,-18.847932 z M 317.67199,89.010655 c 12.86635,17.731635 18.61617,41.405235 20.89461,72.572985 -1.23051,-0.0403 -2.45806,-0.0599 -3.68062,-0.0599 -17.52894,0 -28.7916,4.43054 -38.64756,8.8091 1.82687,-35.53324 7.38934,-61.9673 21.43357,-81.322205 z m 80.72979,0 c 14.04705,19.358795 19.60997,45.799545 21.4357,81.343595 -7.78962,3.63791 -15.07531,8.5013 -21.4357,14.77808 -6.36025,-6.27665 -13.64625,-11.14019 -21.4357,-14.77808 1.82572,-35.54417 7.38862,-61.98476 21.4357,-81.343595 z m 80.7298,0 c 14.04425,19.354945 19.60884,45.788835 21.43571,81.322205 -9.85609,-4.37864 -21.12043,-8.8091 -38.64971,-8.8091 -1.22237,0 -2.44816,0.0196 -3.67849,0.0599 2.27845,-31.16774 8.02613,-54.84135 20.89249,-72.572985 z" />
</svg>
