<?xml version="1.0" encoding="UTF-8" standalone="no"?>
<svg
   width="544.43579"
   height="1000"
   version="1.1"
   id="svg1"
   sodipodi:docname="1375A.svg"
   inkscape:version="1.4.3 (0d15f75, 2025-12-25)"
   xmlns:inkscape="http://www.inkscape.org/namespaces/inkscape"
   xmlns:sodipodi="http://sodipodi.sourceforge.net/DTD/sodipodi-0.dtd"
   xmlns="http://www.w3.org/2000/svg"
   xmlns:svg="http://www.w3.org/2000/svg">
  <defs
     id="defs1" />
  <sodipodi:namedview
     id="namedview1"
     pagecolor="#ffffff"
     bordercolor="#666666"
     borderopacity="1.0"
     inkscape:showpageshadow="2"
     inkscape:pageopacity="0.0"
     inkscape:pagecheckerboard="0"
     inkscape:deskcolor="#d1d1d1"
     inkscape:zoom="1.0677312"
     inkscape:cx="264.57969"
     inkscape:cy="430.35174"
     inkscape:window-width="1680"
     inkscape:window-height="998"
     inkscape:window-x="-8"
     inkscape:window-y="-8"
     inkscape:window-maximized="1"
     inkscape:current-layer="svg1"
     showguides="true">
    <sodipodi:guide
       position="332.66088,648.70236"
       orientation="0,-1"
       id="guide1"
       inkscape:locked="false" />
  </sodipodi:namedview>
  <path
     style="fill:#000000;stroke:none;stroke-width:1"
     d="m 477.85762,241.41588 c -3.33591,-29.35596 -1.66795,-71.05474 5.00387,-125.09634 -6.67182,-16.01232 -10.00774,-35.694149 -10.00774,-59.045489 V 24.24865 c 7.33903,0.667166 11.00854,5.671016 11.00854,15.011546 v 13.010043 c 1.33436,17.346689 5.33742,26.020031 12.00924,26.020031 9.34049,0 14.01074,-11.675651 14.01074,-35.026958 0,-8.006195 -1.00075,-14.677999 -3.00231,-20.015413 -2.0015,-5.337451 -3.66946,-11.008485 -5.00387,-17.0131031 -0.66716,-6.00461824 1.3344,-7.6725739 6.00468,-5.0038671 12.00923,12.6764412 18.01385,26.6872352 18.01385,42.0323832 0,24.018473 -6.00462,52.040045 -18.01385,84.064708 4.67026,60.04622 7.33897,98.07551 8.00617,114.08786 0,21.34977 -13.67719,32.02465 -41.03157,32.02465 H 312.73051 c -27.35442,0 -41.03163,-10.67488 -41.03163,-32.02465 0.6672,-16.01235 3.33593,-54.04164 8.00617,-114.08786 C 267.69582,95.303357 261.6912,67.281785 261.6912,43.263312 c 0,-15.345148 6.00462,-29.355942 18.01385,-42.0323832 4.67028,-2.6687068 7.00543,-1.00075114 7.00543,5.0038671 -1.33437,6.0046181 -3.16913,11.6756521 -5.50427,17.0131031 -2.33515,5.337414 -3.50271,12.009218 -3.50271,20.015413 0,23.351307 4.67026,35.026958 14.01079,35.026958 6.67182,0 10.34132,-8.673342 11.00849,-26.020031 V 39.260196 c 0,-9.34053 4.00306,-14.344378 12.00923,-15.011546 v 33.025401 c 0,23.35134 -3.33591,43.033169 -10.00768,59.045489 6.67179,54.0416 8.33973,95.74038 5.00381,125.09634 23.35135,-4.00308 51.37293,-4.67027 84.06477,-2.00156 32.02463,-2.66871 60.0462,-2.00152 84.06471,2.00156 z"
     id="path1"
     sodipodi:nodetypes="ccscscsssccsccssccsccssscscscccc" />
  <path
     id="path5"
     style="fill:#000000;stroke:none;stroke-width:0.999995"
     d="m 377.16662,272.39982 h 0.96898 c -37.9076,0.64245 -64.57506,22.73919 -79.99511,66.42932 0.64253,5.78252 -5.67009,18.08122 -18.84137,36.71378 -13.17131,18.63255 -14.26014,29.51764 -3.33763,32.73016 10.92255,3.2125 15.71214,19.86667 14.42713,50.06423 l -34.66816,79.02613 c -8.35253,8.35254 -16.51638,11.40031 -24.54761,9.15153 -8.03127,-2.24873 -13.36441,1.45197 -15.93443,11.08948 26.98506,21.84511 50.49535,15.42304 70.41292,-19.27203 l 40.48205,-70.30526 c 17.99007,-1.92748 26.58977,6.77989 25.94728,26.05495 -32.76762,61.68017 -52.36009,167.04397 -58.78511,316.10454 L 158.39129,627.04841 C 140.40123,603.9183 117.3251,594.55808 89.055015,599.05548 V 452.63107 c -0.642485,-27.6276 -10.655822,-42.10402 -29.930878,-43.389 5.139996,-8.99504 10.909056,-16.72297 17.334076,-23.14798 6.42501,-3.21251 11.86755,-8.98154 16.365083,-17.33408 1.927482,-9.63752 -4.168036,-12.24941 -18.303064,-7.75187 -11.565032,8.99498 -22.123644,19.00832 -31.761172,29.93086 -14.135015,12.85004 -22.298836,23.40865 -24.547623,31.7612 -2.248749,8.35249 -8.2348665,29.25093 -17.87239163,62.66103 0.64249203,18.63256 5.10559183,20.59146 13.45812663,5.81391 2.570014,-8.35253 6.270736,-18.80175 11.089498,-31.33052 4.818763,-12.52877 13.635558,-21.99855 26.485593,-28.42356 10.922509,0 16.472747,7.07497 16.472747,21.21001 v 150.30034 h -0.968982 c -36.622608,17.99015 -46.962435,30.83406 -30.899853,38.54413 16.062536,7.70996 28.253602,20.22745 36.606104,37.57516 1.285003,11.56497 10.971826,37.57943 28.961891,78.05697 17.99002,40.4776 34.97066,95.44491 51.03322,164.83519 L 82.272129,962.4249 88.086038,1000 H 499.58177 l -44.35802,-57.81607 c 34.04509,-136.52227 27.8134,-277.11115 24.11697,-416.34065 -1.78926,-25.478 -16.08564,-44.96814 -38.32875,-56.73946 l -4.73724,-23.68631 c 0.72401,0.0141 1.40429,0 2.15328,0 47.01619,0 62.98402,-42.53833 62.98402,-71.70491 0,-28.45019 -1.18686,-50.21616 -24.00928,-71.48957 -24.41504,-18.63255 -49.12362,-28.53822 -74.1812,-29.82321 z m 3.98358,19.16437 c 3.31266,-0.005 6.82944,0.17693 10.4435,0.53913 28.9126,2.89131 53.72883,13.88405 74.28887,32.83784 14.43367,14.91599 14.53479,35.99763 14.53479,51.89454 0,23.86864 -17.49844,48.55691 -44.68099,48.55691 -1.2336,0 -4.19941,-0.21532 -4.19941,-0.21532 -26.70337,-3.49708 5.7775,-42.37673 5.8144,-42.42082 5.4613,-14.45629 3.28355,-26.42849 -6.67523,-35.74479 -9.95878,-9.31626 -22.36692,-10.73161 -37.14443,-4.3066 -16.70508,-12.20754 -36.62404,-20.26196 -59.75409,-24.11697 8.43284,-17.99006 24.18405,-26.99215 47.37259,-27.02392 z m -63.73765,46.29597 c 28.91255,1.92751 53.62114,11.61436 74.18117,28.96188 10.92256,-10.92255 19.73935,-12.22847 26.4856,-3.87594 6.74628,8.35255 1.84726,21.08712 -14.85777,38.11342 -6.87071,12.62354 -9.73008,31.03382 8.39787,39.62073 l 4.6296,21.10235 c -16.21861,-1.82878 -33.13238,1.96519 -47.37261,13.2428 -2.16717,-6.93218 -4.37188,-12.5002 -6.67524,-16.68809 -3.53373,-6.42498 -17.7931,-9.2557 -42.85068,-8.61319 -10.28005,0.64249 -15.39608,-6.75896 -15.39608,-22.179 17.51623,0.51533 29.55371,-0.8705 18.73361,-7.21351 -9.31585,-5.46122 -15.8476,-6.65783 -19.7026,-3.44533 v -12.48914 l -17.33408,-8.6132 c 6.42503,-12.85005 12.62997,-22.53687 18.73372,-28.9619 6.10379,-6.42501 10.45745,-16.11186 13.02749,-28.96188 z m -0.96898,25.08592 c 2.57002,15.42006 19.00535,16.073 49.20291,1.93792 -8.7119,-5.60045 -22.89411,-13.58212 -32.97826,-13.58636 -10.42442,-0.004 -14.31763,6.35117 -16.22465,11.64844 z m 95.28354,126.39876 c 13.69698,0.68996 27.69355,8.46632 37.46743,25.40895 6.21025,16.89414 8.1854,73.62252 6.02924,170.11069 -2.56995,115.00788 -15.08757,205.89535 -37.57509,272.71557 l 24.11696,15.39611 H 129.42941 l 66.53698,-28.85426 c -22.4876,-95.73272 -45.56374,-164.19713 -69.33628,-205.31717 -23.77258,-41.12015 -27.03742,-65.8287 -9.68985,-74.18122 17.34753,-8.35252 32.15045,-3.56247 44.35799,14.42713 l 127.15238,180.23118 h 32.83784 c 5.14003,-154.20041 21.46766,-268.2718 49.09525,-342.1594 6.64889,-17.85997 23.73297,-28.66464 41.34339,-27.77758 z M 99.067884,617.25088 c 12.890206,0.23924 25.584646,7.34331 38.113416,21.31766 -23.13004,0 -38.585917,7.07503 -46.295957,21.20995 -6.425009,-16.06243 -13.173517,-25.31522 -20.241023,-27.88517 -8.549568,-3.1477 2.65156,-8.33374 15.504283,-12.61802 4.336829,-1.44546 8.623062,-2.12646 12.919799,-2.04523 z"
     sodipodi:nodetypes="cccssccscccccccccccccsccscsccscsccccccccsscccsscssccsccsccsccccsccscccscccscscsccccssccccsccccccc" />
</svg>
