<?xml version="1.0" encoding="UTF-8" standalone="no"?>
<svg
   width="800"
   height="1000"
   version="1.1"
   id="svg1"
   sodipodi:docname="137A3.svg"
   inkscape:version="1.4.3 (0d15f75, 2025-12-25)"
   xmlns:inkscape="http://www.inkscape.org/namespaces/inkscape"
   xmlns:sodipodi="http://sodipodi.sourceforge.net/DTD/sodipodi-0.dtd"
   xmlns="http://www.w3.org/2000/svg"
   xmlns:svg="http://www.w3.org/2000/svg">
  <defs
     id="defs1" />
  <sodipodi:namedview
     id="namedview1"
     pagecolor="#ffffff"
     bordercolor="#000000"
     borderopacity="0.25"
     inkscape:showpageshadow="2"
     inkscape:pageopacity="0.0"
     inkscape:pagecheckerboard="0"
     inkscape:deskcolor="#d1d1d1"
     inkscape:zoom="0.65376808"
     inkscape:cx="268.44382"
     inkscape:cy="559.06676"
     inkscape:window-width="1680"
     inkscape:window-height="998"
     inkscape:window-x="-8"
     inkscape:window-y="-8"
     inkscape:window-maximized="1"
     inkscape:current-layer="svg1"
     showguides="true">
    <sodipodi:guide
       position="469.96349,891.60469"
       orientation="1,0"
       id="guide17"
       inkscape:locked="false" />
    <sodipodi:guide
       position="547.54055,968.11904"
       orientation="0,-1"
       id="guide18"
       inkscape:locked="false" />
    <sodipodi:guide
       position="626.18031,891.60469"
       orientation="1,0"
       id="guide19"
       inkscape:locked="false" />
    <sodipodi:guide
       position="547.54055,815.09035"
       orientation="0,-1"
       id="guide20"
       inkscape:locked="false" />
  </sodipodi:namedview>
  <path
     style="fill:#000000;stroke:none;stroke-width:55.6399"
     d="m 510.34604,434.644 c -28.33862,-4.95925 -42.50793,31.52676 -42.50793,109.45803 l -8.5016,292.2423 H 423.20473 L 277.61491,639.74497 c -21.96246,-34.71485 -41.26815,-46.40455 -57.91707,-35.06908 -16.64896,11.33547 -10.09566,41.97662 19.65989,91.92346 29.75559,49.94687 57.03156,127.70104 81.8279,233.26251 l -73.3263,31.88103 H 598.5501 L 575.17076,908.6079 C 593.59088,859.01525 607.05173,737.5133 615.5533,544.10203 622.63797,466.17076 608.11442,429.68475 571.98265,434.644 V 544.10203 H 510.34604 Z M 410.45236,241.23275 c -1.41697,4.95925 -4.9593,7.43888 -10.627,7.43888 -0.70849,9.91854 4.25077,20.1913 14.87777,30.81828 -12.04392,-4.25081 -19.83704,-3.54235 -23.37937,2.12538 -6.37621,-4.95925 -10.62701,-3.18808 -12.75242,5.3135 h 10.62698 c 21.96249,-0.70847 40.38261,19.83706 55.26037,61.63661 10.62703,24.08782 19.30576,39.14271 26.03617,45.16467 6.73041,6.02197 14.70064,7.61602 23.91071,4.78215 0,-12.04392 -3.18809,-23.73361 -9.56426,-35.06908 -6.37622,-11.33547 -14.52358,-19.12859 -24.44207,-23.37937 58.80269,-11.33545 86.25574,-34.00636 82.35913,-68.01273 -3.89653,-34.0064 -19.30567,-51.0096 -46.2274,-51.0096 -27.6302,0 -48.17571,3.54233 -61.63653,10.62698 -13.46087,7.0847 -21.60823,10.27281 -24.44208,9.56433 z M 464.65,325.18598 c 27.63019,-12.04392 42.6851,-23.02515 45.16475,-32.9437 2.4796,-9.9185 0.17707,-18.77432 -6.90758,-26.56746 -7.08466,-7.79314 -16.1176,-11.51259 -27.09882,-11.15834 -10.98123,0.35424 -19.65995,6.90755 -26.03617,19.65994 -2.12537,7.79311 -2.83383,22.31667 -2.12538,43.57068 -0.70845,2.12539 -2.47962,3.18809 -5.31349,3.18809 -4.95925,-20.54553 -9.56428,-33.29792 -13.81509,-38.25717 1.41692,-1.41695 2.3025,-4.25082 2.65674,-8.5016 0.35425,-4.25081 -2.65672,-8.85584 -9.03291,-13.81509 0,-14.8778 5.66772,-22.3167 17.00315,-22.3167 7.08465,0 12.04393,2.83387 14.87782,8.50161 4.25081,-5.66774 3.18811,-10.27277 -3.18811,-13.8151 45.34183,-4.25081 69.78391,7.616 73.32624,35.60043 3.54233,27.98439 -16.29472,47.64432 -59.51115,58.97979 z m -37.19446,-64.82465 c 4.25078,2.83386 8.14733,4.60502 11.68966,5.31349 7.79314,-2.12541 11.68971,-6.02198 11.68971,-11.68971 0,-7.08465 -3.89657,-10.62697 -11.68971,-10.62697 -6.37617,0 -10.27272,5.66773 -11.68966,17.00319 z m 11.68966,-13.81509 c 4.95928,0 7.79315,2.47962 8.5016,7.43887 -0.70845,4.25081 -3.54232,6.37622 -8.5016,6.37622 -4.25078,0 -6.37617,-2.12541 -6.37617,-6.37622 0,-4.95925 2.12539,-7.43887 6.37617,-7.43887 z M 650.62238,516.4719 h 32.94368 c 0,-94.22603 -14.8778,-165.95824 -44.63339,-215.19663 -29.75555,-49.23841 -56.32304,-79.17111 -79.70246,-89.7981 22.67093,68.01277 13.81512,117.25117 -26.56745,147.71521 V 516.4719 l 21.25396,1.06265 V 404.88844 c 64.47044,0 96.70566,37.19449 96.70566,111.58346 z m -214.66524,0 h 13.81504 c -2.12537,-51.71805 6.37623,-83.95329 25.5048,-96.70572 -12.75239,-8.50157 -22.67091,-6.55327 -29.75556,5.84491 -7.08465,12.39815 -10.27275,42.68508 -9.56428,90.86081 z m -210.4145,43.57061 c -21.25397,-19.12858 -41.44524,-24.44207 -60.57381,-15.94048 -19.12861,8.50163 -20.01419,12.39819 -2.65675,11.68969 17.35741,-0.70847 26.03611,7.43889 26.03611,24.4421 8.50158,-12.04391 20.89973,-18.77434 37.19445,-20.19131 z m -51.00955,-37.19447 27.63019,-1.06265 h -1.06272 c 22.67093,4.25078 41.79952,18.77433 57.38577,43.57066 14.87779,4.25078 71.20086,76.51432 168.96921,216.79062 4.25078,-119.73077 6.73041,-199.07899 7.4389,-238.04464 h -26.56753 v -69.07548 c 0,-29.75555 4.25081,-50.6553 12.75244,-62.69924 8.50157,-12.04392 15.232,-20.19129 20.19128,-24.4421 -24.08785,-56.67729 -43.21645,-85.01593 -57.3858,-85.01593 -4.25077,-1.41692 -11.68965,0.70849 -22.31664,6.37622 0,-36.84026 9.91852,-58.80271 29.75557,-65.88736 -0.70849,-6.37622 1.2398,-10.62701 5.84485,-12.75238 4.60501,-2.12541 8.32444,-1.77119 11.1583,1.06266 -0.70844,-8.50158 11.33549,-17.71164 36.13178,-27.63018 -16.29471,4.95929 -27.45306,0.53138 -33.47504,-13.28373 -6.02194,-13.81508 -10.80407,-28.16152 -14.3464,-43.03931 -4.95929,-16.29472 -5.31352,-31.17252 -1.06271,-44.63339 -6.37618,0 -10.62697,-2.12538 -12.75238,-6.376155 -1.41693,-5.667733 1.0627,-9.918543 7.43887,-12.752428 6.37622,-2.833849 16.29475,-2.479608 29.75559,1.062721 16.29471,9.210063 21.25399,26.567482 14.87782,52.072272 -2.83389,16.29471 -4.25084,27.9844 -4.25084,35.06906 0,6.37622 3.18811,10.27279 9.56433,11.68971 6.37617,1.41692 10.62695,-4.95928 12.75236,-19.12859 -10.62698,-13.46087 -15.94047,-31.88099 -15.94047,-55.26037 0,-27.630189 10.09564,-52.603631 30.28693,-74.920324 C 487.49804,12.221049 514.24264,0.7084806 547.54055,0 c 29.75555,0.7084806 55.79169,11.335467 78.1084,31.880958 22.31667,20.54553 33.47501,46.050314 33.47501,76.514352 0,22.67093 -5.66773,43.21646 -17.00318,61.63658 -17.71165,20.54553 -17.53453,40.02836 0.53137,58.44848 18.06588,18.4201 22.49379,32.58941 13.28373,42.50794 36.13181,57.38579 54.55193,148.4237 55.26036,273.11372 l -59.51113,1.06266 c -0.70849,149.48636 -11.33549,270.6341 -31.88102,363.44321 L 655.93588,1000 h -453.7726 l -5.31349,-49.94687 77.57706,-43.57064 C 256.00673,829.96815 233.1587,766.02908 205.88275,714.66528 178.6068,663.30147 164.26035,632.6603 162.84338,622.74177 c -4.95925,-20.54549 -2.4796,-36.48598 7.43894,-47.82145 -22.67093,-0.70848 -36.48603,-6.73043 -41.44528,-18.06585 -4.95929,-11.33552 5.31345,-22.671 30.81824,-34.00643 z"
     id="path1"
     sodipodi:nodetypes="cccccssccccccccccccccccscscsssccsssccccscsccsccccsscscsssccscccccccccsccsscccccccccssccccsccscccsccsscsscsscsccccccccsccscc" />
  <path
     id="path9"
     style="fill:#77767b;stroke:#613583;stroke-width:5;stroke-dasharray:none"
     d="m 124.08747,286.6854 c 0,3.04511 0.63849,5.94289 1.91547,8.69332 1.27699,2.65219 2.94689,4.96059 5.00971,6.92518 2.06282,2.06282 4.51856,3.63449 7.36722,4.71502 1.57167,0.58937 3.29069,1.08052 5.15705,1.47344 2.16105,0 4.37121,-0.0982 6.63049,-0.29469 1.96459,-0.19646 3.88007,-0.78584 5.74643,-1.76813 2.6522,-1.08053 5.00971,-2.70131 7.07253,-4.86236 1.96459,-2.06282 3.53627,-4.46944 4.71502,-7.21987 1.08053,-2.75043 1.57167,-5.69732 1.47344,-8.84066 -0.0982,-3.14335 -0.78583,-6.09023 -2.06282,-8.84066 -1.37521,-2.6522 -3.09423,-4.91148 -5.15705,-6.77784 l -2.35751,-2.35751 c -6.09023,-1.27699 -11.59109,-2.01371 -16.50257,-2.21017 -2.16105,0 -4.17475,0.19646 -6.04111,0.58938 -2.6522,1.08053 -4.9606,2.60308 -6.92519,4.56767 -1.86636,2.06282 -3.38892,4.46945 -4.56767,7.21988 -1.17875,2.75043 -1.6699,5.74643 -1.47344,8.988 z m 97.68929,7.51456 c -17.38663,-9.72473 -32.95602,-16.99371 -46.70816,-21.80696 0.19646,0.39292 0.39292,0.78584 0.58938,1.17875 1.76813,3.83095 2.6522,7.9566 2.6522,12.37693 0,4.3221 -0.88407,8.39863 -2.6522,12.22958 -1.17875,3.04511 -2.79954,5.74643 -4.86236,8.10394 15.42204,-2.35751 32.41575,-6.38493 50.98114,-12.08224 z m -107.11934,-8.25128 c 0,-4.42033 0.88407,-8.54598 2.6522,-12.37693 0.49115,-1.17875 1.03141,-2.40662 1.6208,-3.6836 -5.69733,2.65219 -10.265,6.09023 -13.70303,10.3141 -7.465447,9.33181 -12.91719,13.99771 -16.35523,13.99771 13.16276,6.09023 23.86979,10.01942 32.12108,11.78755 0.39291,0 0.78583,0.0982 1.17875,0.29469 -1.96459,-2.35751 -3.58539,-5.05883 -4.86237,-8.10394 -1.76813,-3.83095 -2.6522,-7.90748 -2.6522,-12.22958 z M 77.96868,302.15655 H 57.19313 V 288.45353 H 77.674 c 3.830947,-1.6699 10.412327,-8.15305 19.74414,-19.44945 9.23358,-11.2964 24.50828,-16.9446 45.82409,-16.9446 24.45916,0 55.69616,12.03312 93.71099,36.09936 l 65.86292,-0.29469 V 303.63 l -65.86292,-3.68361 c -40.07765,14.34151 -71.11819,21.51227 -93.12161,21.51227 58.8395,65.22443 104.86004,97.83664 138.06163,97.83664 7.26899,0 10.90348,-3.9783 10.90348,-11.9349 0,-3.83095 -1.71902,-5.74642 -5.15705,-5.74642 -4.02741,0 -6.04112,1.91547 -6.04112,5.74642 3.24158,0 4.81325,1.6699 4.71502,5.00971 -0.0982,3.33981 -1.6699,5.00971 -4.71502,5.00971 -6.28669,0 -9.43003,-3.33981 -9.43003,-10.01942 0,-10.51056 5.25528,-15.76584 15.76584,-15.76584 9.92119,0.68761 14.88178,5.94289 14.88178,15.76584 0,14.24329 -7.07253,21.95431 -21.21759,23.13306 -38.70244,0 -90.91145,-35.9029 -156.62702,-107.7087 l 0,106.30104 h -16.64992 l 0,-70.20168 c 0,-9.33181 -2.45573,-15.6185 -7.36721,-18.86007 v -13.70303 l 8.54597,0.29469 c 0,-8.25128 -3.43803,-13.60479 -10.3141,-16.06053 -6.876073,-2.55397 -13.948603,-5.35351 -21.21759,-8.39863 z m 224.84746,-51.42317 v 16.20788 c -23.67333,0 -51.47229,-6.87607 -83.39689,-20.62821 -31.82638,-13.75213 -58.10279,-20.6282 -78.82922,-20.6282 -20.72643,0 -46.167897,4.22387 -76.32437,12.67161 -4.027413,0 -6.48315,-2.996 -7.36721,-8.988 -0.9823,-5.99201 3.88006,-10.36322 14.58708,-13.11365 25.539687,-5.69731 48.62364,-8.54597 69.25185,-8.54597 20.6282,0 46.85549,7.17076 78.68187,21.51227 31.9246,14.34151 59.72356,21.51227 83.39689,21.51227 z"
     transform="translate(0,-1.0815866)"
     sodipodi:nodetypes="cccccccccsccccccsccccscccscccccccscccccscccccssscssscsccccsccccccccscccscc" />
  <path
     style="fill:#000000;stroke:none;stroke-width:15.5518"
     d="M 179.5719,525.04754 Q 132.60541,525.35858 105.54525,509.34021 78.485094,493.47736 65.577082,478.08106 52.669071,462.84028 45.981791,449.62124 39.45003,436.55771 39.45003,428.00421 h 280.86581 q 0,8.5535 -6.8428,21.61703 -6.68727,13.21904 -19.43977,28.45982 -12.90801,15.3963 -39.81265,31.25915 -27.06017,16.01837 -74.33768,15.70733 z M 298.23227,442.62292 H 60.756017 q 11.352827,19.90633 27.215681,34.36951 15.862852,14.61871 29.081892,20.83943 13.37456,6.22074 25.97154,9.48662 12.59697,3.11036 36.54677,2.79932 23.79428,0.31104 36.39124,-2.79932 12.59698,-3.26588 25.97155,-9.48662 13.21904,-6.22072 29.0819,-20.83943 15.86285,-14.46318 27.21568,-34.36951 z"
     id="path1-7" />
  <ellipse
     style="fill:#f9f06b;fill-rule:evenodd;stroke:none;stroke-width:5;stroke-miterlimit:5;stroke-dasharray:none"
     id="path20"
     cx="547.98553"
     cy="108.3953"
     rx="78.194794"
     ry="76.514343" />
  <ellipse
     style="fill:#1a5fb4;fill-rule:evenodd;stroke:none;stroke-width:5;stroke-miterlimit:5;stroke-dasharray:none"
     id="path16"
     cx="547.98553"
     cy="108.3953"
     rx="20.191275"
     ry="20.19128" />
</svg>
