<?xml version="1.0" encoding="UTF-8" standalone="no"?>
<svg
   width="800"
   height="1000"
   version="1.1"
   id="svg1"
   sodipodi:docname="137A9.svg"
   inkscape:version="1.4.3 (0d15f75, 2025-12-25)"
   xmlns:inkscape="http://www.inkscape.org/namespaces/inkscape"
   xmlns:sodipodi="http://sodipodi.sourceforge.net/DTD/sodipodi-0.dtd"
   xmlns="http://www.w3.org/2000/svg"
   xmlns:svg="http://www.w3.org/2000/svg">
  <defs
     id="defs1" />
  <sodipodi:namedview
     id="namedview1"
     pagecolor="#ffffff"
     bordercolor="#000000"
     borderopacity="0.25"
     inkscape:showpageshadow="2"
     inkscape:pageopacity="0.0"
     inkscape:pagecheckerboard="0"
     inkscape:deskcolor="#d1d1d1"
     inkscape:zoom="0.92456768"
     inkscape:cx="336.91422"
     inkscape:cy="569.45534"
     inkscape:window-width="1680"
     inkscape:window-height="998"
     inkscape:window-x="-8"
     inkscape:window-y="-8"
     inkscape:window-maximized="1"
     inkscape:current-layer="svg1" />
  <path
     style="fill:#000000;stroke:none;stroke-width:55.6399"
     d="m 449.77719,434.644 c -28.33862,-4.95925 -42.50793,31.52676 -42.50793,109.45803 l -8.5016,292.2423 H 362.63588 L 217.04606,639.74497 c -21.96246,-34.71485 -41.26815,-46.40455 -57.91707,-35.06908 -16.64896,11.33547 -10.09566,41.97662 19.65989,91.92346 29.75559,49.94687 57.03156,127.70104 81.8279,233.26251 l -73.3263,31.88103 H 537.98125 L 514.60191,908.6079 C 533.02203,859.01525 546.48288,737.5133 554.98445,544.10203 562.06912,466.17076 547.54557,429.68475 511.4138,434.644 V 544.10203 H 449.77719 Z M 349.88351,241.23275 c -1.41697,4.95925 -4.9593,7.43888 -10.627,7.43888 -0.70849,9.91854 4.25077,20.1913 14.87777,30.81828 -12.04392,-4.25081 -19.83704,-3.54235 -23.37937,2.12538 -6.37621,-4.95925 -10.62701,-3.18808 -12.75242,5.3135 h 10.62698 c 21.96249,-0.70847 40.38261,19.83706 55.26037,61.63661 10.62703,24.08782 19.30576,39.14271 26.03617,45.16467 6.73041,6.02197 14.70064,7.61602 23.91071,4.78215 0,-12.04392 -3.18809,-23.73361 -9.56426,-35.06908 -6.37622,-11.33547 -14.52358,-19.12859 -24.44207,-23.37937 58.80269,-11.33545 86.25574,-34.00636 82.35913,-68.01273 -3.89653,-34.0064 -19.30567,-51.0096 -46.2274,-51.0096 -27.6302,0 -48.17571,3.54233 -61.63653,10.62698 -13.46087,7.0847 -21.60823,10.27281 -24.44208,9.56433 z m 54.19764,83.95323 c 27.63019,-12.04392 42.6851,-23.02515 45.16475,-32.9437 2.4796,-9.9185 0.17707,-18.77432 -6.90758,-26.56746 -7.08466,-7.79314 -16.1176,-11.51259 -27.09882,-11.15834 -10.98123,0.35424 -19.65995,6.90755 -26.03617,19.65994 -2.12537,7.79311 -2.83383,22.31667 -2.12538,43.57068 -0.70845,2.12539 -2.47962,3.18809 -5.31349,3.18809 -4.95925,-20.54553 -9.56428,-33.29792 -13.81509,-38.25717 1.41692,-1.41695 2.3025,-4.25082 2.65674,-8.5016 0.35425,-4.25081 -2.65672,-8.85584 -9.03291,-13.81509 0,-14.8778 5.66772,-22.3167 17.00315,-22.3167 7.08465,0 12.04393,2.83387 14.87782,8.50161 4.25081,-5.66774 3.18811,-10.27277 -3.18811,-13.8151 45.34183,-4.25081 69.78391,7.616 73.32624,35.60043 3.54233,27.98439 -16.29472,47.64432 -59.51115,58.97979 z m -37.19446,-64.82465 c 4.25078,2.83386 8.14733,4.60502 11.68966,5.31349 7.79314,-2.12541 11.68971,-6.02198 11.68971,-11.68971 0,-7.08465 -3.89657,-10.62697 -11.68971,-10.62697 -6.37617,0 -10.27272,5.66773 -11.68966,17.00319 z m 11.68966,-13.81509 c 4.95928,0 7.79315,2.47962 8.5016,7.43887 -0.70845,4.25081 -3.54232,6.37622 -8.5016,6.37622 -4.25078,0 -6.37617,-2.12541 -6.37617,-6.37622 0,-4.95925 2.12539,-7.43887 6.37617,-7.43887 z m 88.20406,-137.08821 c 2.12541,-12.752393 8.85584,-19.837051 20.19129,-21.253975 11.33543,2.125405 18.06585,9.210063 20.19126,21.253975 -2.12541,12.04391 -8.85583,18.4201 -20.19126,19.12858 -12.75239,0 -19.48282,-6.37619 -20.19129,-19.12858 z m -57.38577,-1.06272 c 0,17.71168 7.26178,34.89198 21.78533,51.5409 14.52355,16.64896 33.1208,24.97344 55.79173,24.97344 24.08787,0 43.21646,-7.97024 57.38577,-23.91072 14.16933,-15.94047 21.25399,-33.47501 21.25399,-52.60362 0,-20.545495 -8.32449,-38.43426 -24.97346,-53.666296 -16.64896,-15.232037 -34.53773,-22.848056 -53.6663,-22.848056 -22.67093,0 -41.26818,7.970258 -55.79173,23.910775 -14.52355,15.940481 -21.78533,33.475006 -21.78533,52.603577 z M 590.05353,516.4719 h 32.94368 c 0,-94.22603 -14.8778,-165.95824 -44.63339,-215.19663 -29.75555,-49.23841 -56.32304,-79.17111 -79.70246,-89.7981 22.67093,68.01277 13.81512,117.25117 -26.56745,147.71521 V 516.4719 l 21.25396,1.06265 V 404.88844 c 64.47044,0 96.70566,37.19449 96.70566,111.58346 z m -214.66524,0 h 13.81504 c -2.12537,-51.71805 6.37623,-83.95329 25.5048,-96.70572 -12.75239,-8.50157 -22.67091,-6.55327 -29.75556,5.84491 -7.08465,12.39815 -10.27275,42.68508 -9.56428,90.86081 z m -210.4145,43.57061 c -21.25397,-19.12858 -41.44524,-24.44207 -60.57381,-15.94048 -19.128607,8.50163 -20.01419,12.39819 -2.65675,11.68969 17.35741,-0.70847 26.03611,7.43889 26.03611,24.4421 8.50158,-12.04391 20.89973,-18.77434 37.19445,-20.19131 z m -51.00955,-37.19447 27.63019,-1.06265 h -1.06272 c 22.67093,4.25078 41.79952,18.77433 57.38577,43.57066 14.87779,4.25078 71.20086,76.51432 168.96921,216.79062 4.25078,-119.73077 6.73041,-199.07899 7.4389,-238.04464 h -26.56753 v -69.07548 c 0,-29.75555 4.25081,-50.6553 12.75244,-62.69924 8.50157,-12.04392 15.232,-20.19129 20.19128,-24.4421 -24.08785,-56.67729 -43.21645,-85.01593 -57.3858,-85.01593 -4.25077,-1.41692 -11.68965,0.70849 -22.31664,6.37622 0,-36.84026 9.91852,-58.80271 29.75557,-65.88736 -0.70849,-6.37622 1.2398,-10.62701 5.84485,-12.75238 4.60501,-2.12541 8.32444,-1.77119 11.1583,1.06266 -0.70844,-8.50158 11.33549,-17.71164 36.13178,-27.63018 -16.29471,4.95929 -27.45306,0.53138 -33.47504,-13.28373 -6.02194,-13.81508 -10.80407,-28.16152 -14.3464,-43.03931 -4.95929,-16.29472 -5.31352,-31.17252 -1.06271,-44.63339 -6.37618,0 -10.62697,-2.12538 -12.75238,-6.376155 -1.41693,-5.667733 1.0627,-9.918543 7.43887,-12.752428 6.37622,-2.833849 16.29475,-2.479608 29.75559,1.062721 16.29471,9.210063 21.25399,26.567482 14.87782,52.072272 -2.83389,16.29471 -4.25084,27.9844 -4.25084,35.06906 0,6.37622 3.18811,10.27279 9.56433,11.68971 6.37617,1.41692 10.62695,-4.95928 12.75236,-19.12859 -10.62698,-13.46087 -15.94047,-31.88099 -15.94047,-55.26037 0,-27.630189 10.09564,-52.603631 30.28693,-74.920324 C 426.92919,12.221049 453.67379,0.7084806 486.9717,0 c 29.75555,0.7084806 55.79169,11.335467 78.1084,31.880958 22.31667,20.54553 33.47501,46.050314 33.47501,76.514352 0,22.67093 -5.66773,43.21646 -17.00318,61.63658 -17.71165,20.54553 -17.53453,40.02836 0.53137,58.44848 18.06588,18.4201 22.49379,32.58941 13.28373,42.50794 36.13181,57.38579 54.55193,148.4237 55.26036,273.11372 l -59.51113,1.06266 c -0.70849,149.48636 -11.33549,270.6341 -31.88102,363.44321 L 595.36703,1000 H 141.59443 L 136.28094,950.05313 213.858,906.48249 C 195.43788,829.96815 172.58985,766.02908 145.3139,714.66528 118.03795,663.30147 103.6915,632.6603 102.27453,622.74177 c -4.959249,-20.54549 -2.479602,-36.48598 7.43894,-47.82145 -22.670933,-0.70848 -36.486027,-6.73043 -41.44528,-18.06585 -4.95929,-11.33552 5.313456,-22.671 30.818239,-34.00643 z"
     id="path1"
     sodipodi:nodetypes="cccccssccccccccccccccccscscsssccsssccccscsccsccccsscscssscccccsssssssssccscccccccccsccsscccccccccssccccsccscccsccsscsscsscsccccccccsccscc" />
  <path
     style="fill:#000000;stroke:none;stroke-width:16.7205"
     d="m 63.954962,351.38787 q 17.304306,-7.13949 48.524618,10.86065 31.2203,18.00015 53.03082,56.97356 21.81051,38.97343 9.96019,66.98823 -11.85049,28.01477 -37.2915,39.13907 -25.44099,11.1243 -55.279322,0.69445 -29.838492,-10.42982 -42.55637,-54.99748 -12.71805,-44.56768 -3.557582,-78.31707 9.160471,-33.7494 27.169152,-41.34144 z m 8.37128,19.99553 q -7.947752,3.11722 -14.767944,28.89453 -6.820026,25.77736 2.1393,62.56045 8.959484,36.78315 31.01457,44.00503 22.055092,7.22187 39.485242,-0.49606 17.43014,-7.71794 27.41814,-28.56536 9.98818,-20.84741 -10.44051,-52.25051 -20.42872,-31.4031 -42.96039,-44.78673 -22.531862,-13.38364 -31.888408,-9.36135 z"
     id="path1-2" />
</svg>
