<?xml version="1.0" encoding="UTF-8" standalone="no"?>
<svg
   width="800"
   height="1000"
   version="1.1"
   id="svg1"
   sodipodi:docname="137BA.svg"
   inkscape:version="1.4.3 (0d15f75, 2025-12-25)"
   xmlns:inkscape="http://www.inkscape.org/namespaces/inkscape"
   xmlns:sodipodi="http://sodipodi.sourceforge.net/DTD/sodipodi-0.dtd"
   xmlns:xlink="http://www.w3.org/1999/xlink"
   xmlns="http://www.w3.org/2000/svg"
   xmlns:svg="http://www.w3.org/2000/svg">
  <defs
     id="defs1" />
  <sodipodi:namedview
     id="namedview1"
     pagecolor="#ffffff"
     bordercolor="#000000"
     borderopacity="0.25"
     inkscape:showpageshadow="2"
     inkscape:pageopacity="0.0"
     inkscape:pagecheckerboard="0"
     inkscape:deskcolor="#d1d1d1"
     inkscape:zoom="1.1519608"
     inkscape:cx="378.05106"
     inkscape:cy="333.77872"
     inkscape:window-width="1680"
     inkscape:window-height="998"
     inkscape:window-x="-8"
     inkscape:window-y="-8"
     inkscape:window-maximized="1"
     inkscape:current-layer="svg1"
     showguides="true">
    <sodipodi:guide
       position="348.61149,735.12418"
       orientation="-0.99546693,0.095108328"
       id="guide1"
       inkscape:locked="false" />
    <sodipodi:guide
       position="435.4975,739.67935"
       orientation="1,0"
       id="guide2"
       inkscape:locked="false" />
    <sodipodi:guide
       position="511.92346,746.25907"
       orientation="-0.99544268,-0.095361773"
       id="guide3"
       inkscape:locked="false" />
    <sodipodi:guide
       position="510.6345,865.56451"
       orientation="0.99522399,0.097617655"
       id="guide4"
       inkscape:locked="false" />
    <sodipodi:guide
       position="431.27974,876.31349"
       orientation="1,0"
       id="guide5"
       inkscape:locked="false" />
    <sodipodi:guide
       position="440.39014,889.32577"
       orientation="1,0"
       id="guide6"
       inkscape:locked="false" />
    <sodipodi:guide
       position="388.0898,775.44603"
       orientation="1,0"
       id="guide7"
       inkscape:locked="false" />
    <sodipodi:guide
       position="435.4975,822.85375"
       orientation="0,-1"
       id="guide8"
       inkscape:locked="false" />
    <sodipodi:guide
       position="483.07392,775.44604"
       orientation="1,0"
       id="guide9"
       inkscape:locked="false" />
    <sodipodi:guide
       position="372.58741,877.87858"
       orientation="0.9952983,-0.096857105"
       id="guide13"
       inkscape:locked="false" />
    <sodipodi:guide
       position="400.06836,775.10943"
       orientation="1,0"
       id="guide14"
       inkscape:locked="false" />
    <sodipodi:guide
       position="470.08398,775.10943"
       orientation="1,0"
       id="guide15"
       inkscape:locked="false" />
  </sodipodi:namedview>
  <path
     style="fill:#000000;stroke:none;stroke-width:16.7746"
     d="m 435.49805,260.32031 c -8.97841,0 -16.77354,-2.93398 -23.38477,-8.80469 -0.24558,0.0534 -0.49688,0.10699 -0.7539,0.16211 l -10.44727,5.09961 c -3.59915,0 -7.87342,1.18102 -12.82227,3.54297 -4.83637,2.24947 -11.07834,2.36242 -18.72656,0.33789 -7.76069,-2.02453 -16.25371,-3.03711 -25.47656,-3.03711 -8.88544,0 -15.91409,1.63082 -21.08789,4.89258 -5.17378,3.3742 -12.70972,5.0625 -22.60742,5.0625 -8.2106,0 -16.59069,-4.89448 -25.13868,-14.67969 -2.02454,-2.24943 -5.06031,-2.192 -9.10937,0.16993 -4.16156,2.47443 -5.56844,6.29884 -4.21875,11.47265 7.19833,18.67063 20.0211,28.00586 38.4668,28.00586 16.30871,0 28.17439,-1.51792 35.59765,-4.55469 9.56397,2.68986 19.92189,4.34574 31.07422,4.97071 -1.63924,0.39874 -2.57617,0.64258 -2.57617,0.64258 -13.92536,10.76051 -20.25423,17.40758 -18.98828,19.93945 -2.53191,-2.53187 -5.85447,-2.68999 -9.96875,-0.47461 -4.11432,2.2154 -5.85562,5.85419 -5.22266,10.91797 -18.35616,6.3297 -27.53515,25.95267 -27.53515,58.86719 10.12756,-5.06378 16.77458,-6.96322 19.93945,-5.69727 13.29239,0 30.6997,25.31935 52.2207,75.95703 -4.43079,3.79779 -10.60348,11.07737 -18.51562,21.83789 -7.91215,10.76051 -11.86719,29.4328 -11.86719,56.01758 v 61.71484 h 23.73633 c 0,35.44638 -2.21567,106.33864 -6.64649,212.67774 L 229.46484,624.96484 C 214.9065,604.07681 194.9673,597.58785 169.64844,605.5 c -25.31883,7.91214 -38.92726,27.06075 -40.82617,57.44336 8.22861,25.31883 22.31337,56.80892 42.25195,94.4707 19.93859,37.66175 37.81828,90.67229 53.64258,159.03321 L 155.4082,955.375 160.1543,1000 h 406.36718 l -33.23046,-81.65234 c 18.98912,-82.91918 28.8006,-191.15797 29.43359,-324.71485 l 52.21875,-0.94922 c 0,-111.40291 -50.82305,-270.34869 -99.12109,-287.77539 -2.92166,-1.05418 -12.05076,-7.0106 -26.57813,-11.69726 16.58838,0.30505 31.57098,-1.43442 44.94922,-5.22071 7.42329,3.03677 19.3464,4.55469 35.76758,4.55469 18.44569,0 31.26651,-9.33523 38.46484,-28.00586 1.23722,-5.17381 -0.16774,-8.99822 -4.2168,-11.47265 -4.16153,-2.36199 -7.25476,-2.41941 -9.27929,-0.16993 -8.43553,9.78521 -16.75817,14.67969 -24.96875,14.67969 -10.01017,0 -17.54609,-1.6883 -22.60742,-5.0625 -5.1738,-3.26176 -12.25992,-4.89258 -21.25782,-4.89258 -9.22285,0 -17.65843,1.01258 -25.30664,3.03711 -7.64822,2.02453 -13.4978,2.13746 -17.54687,0.33789 -3.93658,-1.79957 -8.32184,-2.92509 -13.15821,-3.375 z m -12.34375,43.72852 c 24.68586,0 38.61052,15.19161 41.77539,45.57422 3.16486,30.38264 -21.52004,50.63614 -74.05664,60.76367 8.86158,3.79783 16.14112,10.76116 21.83789,20.88867 5.69671,10.12755 8.86115,20.57154 9.49414,31.33203 -8.22864,2.53187 -15.35008,1.10875 -21.36328,-4.27148 -6.01324,-5.38029 -13.76717,-18.83257 -23.26172,-40.35352 -13.92535,-37.34534 -30.69819,-55.70135 -50.32031,-55.06836 h -8.54493 c 1.89891,-7.59568 5.69585,-9.17691 11.39258,-4.74609 3.16487,-5.06378 9.81192,-5.69823 19.93946,-1.90039 -8.86161,-9.49458 -13.29297,-18.6716 -13.29297,-27.5332 5.69677,0.63297 9.17744,-1.58271 10.44336,-6.64649 1.89891,0.633 9.02035,-2.21519 21.36328,-8.54492 12.34293,-6.3297 30.54084,-9.49414 54.59375,-9.49414 z m 54.11914,7.5957 c 22.78696,1.26592 47.47188,23.73517 74.05664,67.41016 26.58478,43.67499 39.87695,107.92207 39.87695,192.74023 H 561.77539 C 561.14243,504.69998 532.34241,471.15234 475.375,471.15234 v 101.5918 l -19.93945,-0.94922 V 430.32617 c 36.07934,-27.21774 43.35893,-66.77803 21.83789,-118.68164 z m -88.50782,169.05078 c 4.01543,-0.19038 8.51536,1.37612 13.5,4.69922 -16.45724,11.39347 -24.05306,40.19348 -22.7871,86.40039 h -11.39258 c -1.26595,-43.67503 1.26601,-70.89182 7.5957,-81.65234 3.56047,-6.05277 7.92134,-9.20249 13.08398,-9.44727 z m 43.08204,13.79688 c 1.48352,-0.0124 3.01718,0.11956 4.59961,0.39648 v 97.79492 h 58.86523 v -97.79492 c 22.78696,-3.79786 34.18164,28.80106 34.18164,97.79492 -6.96265,172.80108 -18.67361,281.35614 -35.13086,325.66407 l 20.88867,47.47265 H 201.93164 l 64.5625,-28.48437 c -21.52103,-94.31263 -46.36601,-164.7305 -74.5332,-211.25391 -28.16723,-46.52334 -34.81234,-74.84901 -19.9375,-84.97656 14.8748,-10.12752 33.07271,2.21588 54.59375,37.0293 L 358.5918,854.73242 h 32.28125 l 7.5957,-262.04883 c 0,-65.27514 11.126,-98.00598 33.37891,-98.1914 z"
     id="path22"
     sodipodi:nodetypes="ccccccscscccsccccsccccssccccscscccccccsccscccscsscccsscscscccccccsscscccccccscccssscccccccccssccccs" />
  <path
     style="fill:#000000;stroke:none;stroke-width:16.7746"
     d="m 391.63281,0.33789062 c -23.6195,1e-8 -35.42967,8.82793648 -35.42969,26.48632838 10e-6,8.772947 4.21877,17.489902 12.6543,26.15039 L 348.61133,264.875 l 9.99023,0.97266 20.71485,-212.873051 c -3.59916,-6.073579 -4.5543,-12.878305 -2.86719,-20.414062 1.68711,-7.648215 6.74806,-11.472656 15.18359,-11.472656 12.0347,0 18.05274,11.304874 18.05274,33.912109 l 0,133.09983 7.25483,-3.88082 0,-129.21901 c 0,-10.572538 -1.79926,-20.13363 -5.39843,-28.681641 -3.59916,-8.548011 -10.23546,-12.822265 -19.90821,-12.822265 -15.40892,0 -22.71895,9.224216 -21.93164,27.669922 h -0.84375 c -2.47442,-3.599163 -3.71289,-8.210296 -3.71289,-13.833985 0,-5.398737 2.25105,-10.067313 6.75,-14.003906 4.38648,-4.0490529 10.96532,-6.0742188 19.73828,-6.0742188 8.21059,2e-7 15.46514,2.9247948 21.76367,8.7734378 6.18605,5.736167 9.2793,18.727377 9.2793,38.972656 l 0,127.3635 8.60349,-1.6875 0,-136.136938 c 0,-29.468135 -13.21515,-44.20117138 -39.64649,-44.20117138 z"
     id="path17"
     sodipodi:nodetypes="sscccccssccsssccscscsccsss" />
  <path
     style="fill:#000000;stroke:none;stroke-width:16.7746"
     d="m 396.65039,313.95898 c -4.48519,-0.0396 -9.2585,0.1376 -14.32227,0.53321 6.32973,3.79783 7.59471,7.91296 3.79688,12.34375 -3.16487,-4.43079 -7.59624,-6.64649 -13.29297,-6.64649 -10.76049,0 -16.14062,6.64515 -16.14062,19.9375 6.32969,3.79785 9.33797,7.59674 9.02148,11.39453 -0.31646,3.79787 -1.42529,6.64602 -3.32422,8.54493 4.4308,3.79783 8.86218,14.87429 13.29297,33.23047 1.89891,0 3.16388,-0.94871 3.79688,-2.84766 -0.633,-18.98914 0.001,-31.96504 1.90039,-38.92774 5.69675,-11.39344 13.60878,-17.24796 23.73632,-17.56445 10.12752,-0.3165 18.1977,3.00606 24.21094,9.96875 6.01319,6.96269 8.0688,14.87476 6.16992,23.73633 -1.89895,8.8616 -15.50735,18.67311 -40.82617,29.43359 v 2.84766 c 39.24421,-10.76051 57.12588,-28.48405 53.64453,-53.16992 -3.04617,-21.60014 -20.26769,-32.53754 -51.66406,-32.81446 z m -23.81836,10.02735 c 6.32969,0 9.49609,3.16639 9.49609,9.49609 0,5.06377 -3.1664,8.54445 -9.49609,10.44336 -3.79783,-0.63296 -7.59475,-2.21615 -11.39258,-4.74805 1.89891,-10.12753 5.69585,-15.1914 11.39258,-15.1914 z"
     id="path10" />
  <path
     style="fill:#000000;stroke:none;stroke-width:16.7746"
     d="m 372.83203,326.83594 c -3.79783,0 -6.01158,2.21569 -6.64453,6.64648 0,3.79783 2.21375,6.01157 6.64453,6.64453 3.79783,-0.63296 6.01349,-2.8467 6.64649,-6.64453 -0.633,-4.43079 -2.84866,-6.64648 -6.64649,-6.64648 z"
     id="path1-2" />
  <path
     d="m 305.08413,137.16183 c 0,4.16153 1.57463,7.76069 4.7239,10.79748 3.03679,3.14926 6.57971,4.72389 10.62878,4.72389 4.38649,0 8.09812,-1.57463 11.13489,-4.72389 3.14928,-3.03679 4.72392,-6.63595 4.72392,-10.79748 0,-4.04907 -1.57464,-7.70448 -4.72392,-10.96621 -3.03677,-3.14926 -6.7484,-4.72389 -11.13489,-4.72389 -4.04907,0 -7.59199,1.57463 -10.62878,4.72389 -3.14927,3.26173 -4.7239,6.91714 -4.7239,10.96621 z m -7.592,0 c 0,-6.63596 2.19324,-12.20342 6.57973,-16.70238 4.49895,-4.49895 9.95394,-6.74842 16.36495,-6.74842 6.74842,0 12.31587,2.24947 16.70235,6.74842 4.49896,4.49896 6.74844,10.06642 6.74844,16.70238 0,6.41101 -2.137,11.92222 -6.41101,16.53363 -3.14927,3.14928 -6.12983,4.94886 -8.94168,5.39875 4.61143,0.56237 9.05416,1.91205 13.32817,4.04906 4.16153,2.24947 7.42326,7.98564 9.78519,17.20849 2.24948,9.22285 -0.28118,20.07657 -7.59198,32.56116 -7.19831,12.59709 -11.58478,21.20134 -13.15942,25.81275 -6.31214,18.48542 12.21024,19.01524 18.3963,19.01524 l -13.5037,8.65332 c -17.65839,0 -26.48758,-6.12983 -26.48758,-18.38948 0,-12.82201 -0.95602,-25.02541 -2.86807,-36.61021 -1.91205,-11.47233 -0.28119,-22.32606 4.8926,-32.56119 -3.14926,0.67484 -6.24229,-0.11247 -9.27908,-2.36193 -3.03681,-2.36195 -4.55521,-4.66767 -4.55521,-6.91715 0,-2.36194 1.5184,-4.94884 4.55521,-7.7607 1.79959,-1.23721 6.12983,-1.96828 12.99073,-2.19322 -3.82412,-0.56238 -7.36705,-2.53068 -10.62878,-5.90489 -4.61144,-4.61141 -6.91716,-10.12262 -6.91716,-16.53363 z"
     style="fill:#000000;stroke:none;stroke-width:16.7746"
     id="path1" />
  <use
     x="0"
     y="0"
     xlink:href="#path1"
     id="use1"
     transform="matrix(-1,0,0,1,872.015,-0.07354539)" />
  <use
     x="0"
     y="0"
     xlink:href="#path17"
     id="use22"
     transform="matrix(-1,0,0,1,871.67034,0)" />
  <circle
     style="fill:#1a5fb4;fill-rule:evenodd;stroke:none;stroke-width:60;stroke-miterlimit:5"
     id="path23"
     cx="435.58185"
     cy="224.63831"
     r="47.492062" />
  <circle
     style="fill:#f8e45c;fill-rule:evenodd;stroke:none;stroke-width:60;stroke-miterlimit:5"
     id="circle23"
     cx="435.58185"
     cy="224.63831"
     r="35.513489" />
</svg>
