<?xml version="1.0" encoding="UTF-8" standalone="no"?>
<svg
   width="1000"
   height="1000"
   version="1.1"
   id="svg1"
   sodipodi:docname="137C9.svg"
   inkscape:version="1.4.3 (0d15f75, 2025-12-25)"
   xmlns:inkscape="http://www.inkscape.org/namespaces/inkscape"
   xmlns:sodipodi="http://sodipodi.sourceforge.net/DTD/sodipodi-0.dtd"
   xmlns="http://www.w3.org/2000/svg"
   xmlns:svg="http://www.w3.org/2000/svg">
  <defs
     id="defs1" />
  <sodipodi:namedview
     id="namedview1"
     pagecolor="#ffffff"
     bordercolor="#666666"
     borderopacity="1.0"
     inkscape:showpageshadow="2"
     inkscape:pageopacity="0.0"
     inkscape:pagecheckerboard="0"
     inkscape:deskcolor="#d1d1d1"
     inkscape:zoom="0.5338656"
     inkscape:cx="152.66015"
     inkscape:cy="950.61379"
     inkscape:window-width="1680"
     inkscape:window-height="998"
     inkscape:window-x="-8"
     inkscape:window-y="-8"
     inkscape:window-maximized="1"
     inkscape:current-layer="svg1"
     showguides="true">
    <sodipodi:guide
       position="619.14777,50"
       orientation="0,-1"
       id="guide1"
       inkscape:locked="false" />
    <sodipodi:guide
       position="127.27444,30.59507"
       orientation="0.99227786,-0.12403485"
       id="guide2"
       inkscape:locked="false" />
  </sodipodi:namedview>
  <path
     style="fill:#000000;stroke:none;stroke-width:51.0447"
     d="m 316.26198,623.4902 c 5.62461,14.06158 13.78032,26.717 24.46714,37.96626 h 148.49023 c 38.80993,-1.12502 56.52752,-21.93615 53.15277,-62.4334 l -68.33927,-4.21848 c -48.37181,8.43693 -100.9621,17.9988 -157.77087,28.68562 z M 576.96355,950 V 819.22732 H 500.18738 V 950 Z m -95.33744,0 V 801.50973 h 95.33744 V 581.30549 h -12.65539 v 17.71757 c -2.24985,52.87154 -21.09236,79.30731 -56.52753,79.30731 h -177.1758 c -5.62465,0 -7.59329,2.8123 -5.90594,8.43691 V 950 Z M 423.41118,242.98397 c -0.56242,2.81235 -2.81226,3.93729 -6.74953,3.37482 0,6.18708 3.09355,12.37417 9.28064,18.56128 -6.74958,-2.81233 -11.24929,-2.53108 -13.49912,0.84377 -3.37477,-2.81233 -5.62462,-1.68741 -6.74955,3.37476 h 5.0621 c 12.93666,-0.56251 23.62347,10.96797 32.06044,34.59146 6.18709,14.62405 11.10864,23.62346 14.76467,26.99823 3.65598,3.37477 8.29627,4.21847 13.92088,2.5311 0,-6.74957 -1.82799,-13.49912 -5.48396,-20.24865 -3.65601,-6.74958 -8.57756,-11.24929 -14.76467,-13.49913 33.74777,-6.18709 49.63736,-19.12375 47.66876,-38.80998 -1.96865,-19.68619 -10.82745,-29.52928 -26.57638,-29.52928 -15.74896,0 -27.42008,1.96862 -35.01335,5.90587 -7.59321,3.9372 -12.23352,5.9058 -13.92093,5.9058 z m 31.21668,47.24695 c 15.74899,-6.74957 24.32656,-12.93666 25.73272,-18.56127 1.40615,-5.62465 -2e-5,-10.68682 -4.21852,-15.1865 -4.21847,-4.49973 -9.42125,-6.60897 -15.60832,-6.32773 -6.18711,0.28121 -11.24928,4.07783 -15.18652,11.38988 -1.12493,4.49969 -1.40613,12.93662 -0.84362,25.3108 -0.56252,1.12496 -1.40622,1.68744 -2.5311,1.68744 -2.81233,-11.81175 -5.62463,-19.12378 -8.43692,-21.93609 1.12491,-0.56243 1.82797,-2.10919 2.10918,-4.64029 0.28121,-2.53113 -1.54679,-5.20284 -5.48401,-8.01512 0,-8.43697 3.09357,-12.65545 9.2807,-12.65545 3.93721,0 7.03075,1.6874 9.28064,5.0622 2.24985,-3.3748 1.40615,-6.1871 -2.5311,-8.43691 25.87329,-2.24989 39.93485,4.64027 42.1847,20.67046 2.24987,16.03021 -8.9994,27.42009 -33.7478,34.16963 z m -21.93605,-37.1226 c 2.81233,2.24989 5.06219,3.37483 6.7496,3.37483 4.49969,-1.12493 6.74953,-3.37479 6.74953,-6.74959 0,-3.93725 -2.24984,-5.90587 -6.74953,-5.90587 -3.3748,0 -5.62467,3.09354 -6.7496,9.28063 z m 6.7496,-6.74953 c 2.81228,0 4.49966,1.12492 5.06214,3.37477 -0.56251,2.81232 -2.24989,4.21848 -5.06214,4.21848 -2.24989,0 -3.37483,-1.40616 -3.37483,-4.21848 0,-2.24985 1.12494,-3.37477 3.37483,-3.37477 z m 80.15094,95.33746 c 47.24689,-16.31143 69.46417,3.93724 66.65184,60.74601 h 21.09237 c 5.62466,-63.55831 -3.51535,-106.30549 -27.42004,-128.24156 -23.90468,-21.93607 -48.2312,-34.5915 -72.97957,-37.96627 14.06156,33.74778 10.12431,59.05863 -11.81175,75.93254 v 49.77792 z m -81.83839,64.96449 18.56133,-15.1865 v -23.62348 c 0.56243,-10.68676 1.40611,-17.4363 2.53106,-20.24863 -6.74955,-5.06217 -12.23357,-4.07788 -16.45204,2.95289 -4.21849,7.03083 -5.76527,25.73273 -4.64035,56.10572 z M 590.46268,11.811738 c -4.49973,-3.9372461 -10.96806,1.124922 -19.405,15.186505 -6.74953,13.499105 -13.21784,22.92036 -19.40494,28.263765 -6.18708,5.343373 -14.48341,11.389845 -24.88898,18.139416 -10.40557,6.749568 -23.20162,18.56129 -38.38814,35.435166 -15.18647,16.8739 -26.43572,32.62286 -33.74776,47.24688 h 80.99464 c 10.68683,-27.56067 17.43638,-47.5281 20.24867,-59.902288 2.81234,-12.374183 5.34345,-22.357901 7.59333,-29.951154 2.24984,-7.593252 8.43693,-17.295747 18.56126,-29.107485 10.12433,-12.936623 12.93664,-21.373558 8.43692,-25.310805 z M 527.18559,223.57904 625.89784,14.342787 624.21047,12.655403 549.96529,171.26998 H 423.41118 l 12.6554,52.30906 c 8.99942,-4.49973 22.63915,-6.89019 40.91919,-7.17139 18.28005,-0.28121 35.01333,2.10925 50.19982,7.17139 z m -325.66606,87.74421 c -26.43577,-14.06155 -43.30966,-17.1551 -50.62167,-9.28065 -7.31201,7.87449 -7.59325,15.32713 -0.84372,22.3579 6.74957,7.03081 23.9047,2.67172 51.46539,-13.07725 z m 279.26284,60.74603 v -17.71763 c -3.93721,-8.99937 -7.31196,-8.71812 -10.12427,0.84377 v 26.15452 z m -27.84188,69.18293 c 10.68679,23.62344 17.99882,68.05801 21.93607,133.3037 l 67.49556,4.21858 c 2.81229,-28.68565 8.15568,-57.51191 16.03016,-86.47876 7.87451,-28.96685 14.62406,-54.4183 20.24867,-76.35434 h -86.90049 c -5.62465,6.1871 -18.56131,14.62404 -38.80997,25.31082 z m -28.6856,16.87388 -15.1865,-12.65541 c -5.06217,12.37417 -13.21788,26.99822 -24.46714,43.87214 -32.06041,31.49788 -64.40205,56.52746 -97.0249,75.08873 v 0 l -19.40492,-21.09229 84.36937,-75.93253 c 12.93666,-32.06038 19.96747,-49.21549 21.09243,-51.46534 -14.62407,-12.37418 -30.37305,-27.27946 -47.24694,-44.71585 v 0 c -26.43573,-16.87387 -43.59084,-27.84189 -51.46532,-32.90406 -6.74959,-6.18709 -7.87452,-12.09296 -3.37479,-17.7176 l -43.02841,-3.37477 c -2.24988,20.24868 -0.28126,37.68504 5.90586,52.30907 -11.24925,4.49972 -21.93605,4.78095 -32.06038,0.84369 6.18709,-15.74895 8.99939,-32.62283 8.43692,-50.62165 -34.31022,25.87327 -58.3555,31.35727 -72.13585,16.45202 -13.78034,-14.90527 -13.3585,-29.95115 1.26553,-45.13765 14.62402,-15.18651 38.5287,-11.24927 71.71403,11.81172 0.56245,-16.31142 -1.12495,-33.1853 -5.0622,-50.62163 9.56189,-3.93726 19.68622,-4.49975 30.37301,-1.68747 -6.18709,17.99883 -8.9994,35.71643 -8.43692,53.1528 l 64.96444,-7.59327 c -3.93724,-2.24985 -5.62462,-6.18709 -5.06214,-11.81174 0.56243,-5.62461 3.09351,-7.03076 7.59325,-4.21843 l 21.93605,17.7176 c 8.43697,17.99879 14.0616,35.1539 16.87389,51.46532 v 0 l 55.68387,33.74781 6.74952,-12.65543 c 4.49969,-10.12433 13.78033,-16.31141 27.84192,-18.56125 3.93724,-10.12434 9.28065,-18.5613 16.03022,-25.31088 -14.06159,-32.06037 -25.02963,-48.09056 -32.90412,-48.09056 -2.24985,-1.12491 -6.46831,1e-5 -12.6554,3.37477 0,-20.81116 5.62463,-33.46658 16.8739,-37.96626 -1.6874,-3.93721 1.68738,-7.31199 10.12434,-10.12436 l -15.1865,-77.61986 h 28.68557 c 8.43696,-15.74897 14.62405,-26.15453 18.56128,-31.21667 -21.37357,-16.31143 -36.98192,-30.935469 -46.82505,-43.872126 -9.84309,-12.936659 -14.06156,-25.7327 -12.6554,-38.388121 1.40616,-12.65542 5.62463,-20.951735 12.6554,-24.888945 7.03081,-3.937247 15.18653,-5.202789 24.46714,-3.796628 9.28066,1.406127 16.17084,6.890137 20.67054,16.45203 0.56251,13.499103 -1.68734,21.654817 -6.74955,24.46714 -5.06217,2.812323 -10.6868,4.077866 -16.87389,3.796627 -6.18709,-0.281239 -8.43694,-2.671702 -6.74954,-7.171391 0.56243,-2.812323 3.37473,-3.093564 8.43692,-0.843721 6.74957,-1.687401 10.68682,-5.343407 11.81173,-10.968018 0.56243,-6.187091 -1.40619,-10.686798 -5.90586,-13.499121 -4.49973,-2.812324 -9.14005,-3.656024 -13.92098,-2.531101 -4.78093,1.124957 -8.71818,3.796661 -11.81174,8.01511 -3.09352,4.218486 -4.21844,10.264957 -3.37477,18.139414 0.84373,7.874491 5.62468,17.155144 14.34286,27.841959 8.71816,10.686779 22.63909,23.060962 41.7628,37.122552 20.24869,-24.185923 38.52875,-41.200433 54.84018,-51.043532 16.31143,-9.843097 27.13885,-17.998811 32.48225,-24.46714 5.34337,-6.46833 8.85875,-12.233579 10.54615,-17.295748 6.74957,-12.3741819 12.65544,-19.1237338 17.7176,-20.2486559 5.06216,-1.12492273 10.40556,-4e-7 16.03021,3.3747671 5.06213,3.3748019 7.87445,7.7338898 8.43694,13.0772628 0.56244,5.343407 -3.09357,13.358518 -10.96802,24.045334 -3.93726,3.374769 -8.15575,8.577538 -12.65546,15.608309 -4.49969,7.03081 -8.99938,22.357938 -13.49906,45.981383 L 619.99196,0 641.08441,10.968019 541.52839,228.64118 c 20.81117,7.8745 39.51306,20.67054 56.10569,38.38812 16.59266,17.71759 25.73269,49.35612 27.42009,94.91559 v 53.1528 h -28.68561 c -11.24927,32.06037 -19.40499,61.16783 -24.46715,87.32239 -5.06217,26.15451 -8.71817,46.54378 -10.96802,61.16781 h 16.03016 v -16.03015 c 0,-11.81174 8.43696,-17.71761 25.31088,-17.71761 15.74894,0 23.62341,5.90587 23.62341,17.71761 v 76.77616 h -17.71761 v -70.02662 c 0,-4.49969 -2.24985,-6.74954 -6.74954,-6.74954 -4.49969,0 -6.74954,2.24985 -6.74954,6.74954 V 967.71749 H 306.98135 V 678.33037 c -7.87449,10.68677 -7.87449,27.84188 0,51.46533 7.87445,23.62347 -2.57313,54.89506 -35.75843,129.14019 -8.99941,23.6234 -12.09296,50.34038 -9.28063,80.15095 -12.93667,12.37417 -28.12317,14.76465 -45.55952,7.17144 -17.43635,-7.59327 -32.62283,-8.57761 -45.55945,-2.95301 -12.93667,5.62464 -26.71702,8.43696 -41.34104,8.43696 -24.18592,-0.56243 -35.716412,-2.24982 -34.591479,-5.06215 0.562473,-16.87394 8.858799,-26.01398 24.888989,-27.42012 16.03019,-1.40618 32.76346,-5.3434 50.1998,-11.81165 17.43635,-6.46835 29.24807,-13.0773 35.43515,-19.82686 6.1871,-6.74953 12.3742,-17.71755 18.56129,-32.90406 9.56189,-34.31024 13.68176,-52.7858 16.77528,-90.75208 3.09356,-37.96621 5.34342,-70.44845 6.74959,-97.4467 1.40613,-26.9982 15.60831,-44.99701 42.60656,-53.99643 h -0.84379 c 17.43639,-7.87448 40.21616,-14.3428 68.33929,-19.40497 28.12317,-5.06219 61.30848,-10.96804 99.55593,-17.71757 -1.12491,-48.37184 -7.59323,-89.9941 -19.40498,-124.86678 z"
     id="path1"
     sodipodi:nodetypes="cccccccccccccccccsscccsccccccscscssssscsssccccscsccsccccsscscssscccsccccccccscscsssccsscsccccccsccsscccccccccscccccccccccssccccccsscccccsccsccccccccccccsssscsscccssssscsscscscsccccscccsccsssccssscccsccssccssscssccsccc" />
  <rect
     style="fill:#f8e45c;fill-rule:evenodd;stroke:none;stroke-width:16;stroke-miterlimit:5;stroke-dasharray:none"
     id="rect2"
     width="320.74603"
     height="23.21526"
     x="287.99384"
     y="952" />
  <rect
     style="fill:none;fill-rule:evenodd;stroke:#613583;stroke-width:14;stroke-miterlimit:5;stroke-dasharray:none"
     id="rect1"
     width="518.97351"
     height="36"
     x="85.227287"
     y="957" />
  <path
     d="m 287.57635,564.43155 v 0 c 0,0 -54.55889,16.03042 -67.49555,16.03042 v 225.2664 0 c 7.87449,3.37473 11.5305,11.81169 10.96803,25.31088 0.56247,4.49967 -0.84367,12.09292 -4.21844,22.77975 -2.24987,7.3119 -6.46836,10.96785 -12.65546,10.96785 3.93725,-17.99882 5.90587,-29.24808 5.90587,-33.74778 -0.56243,-10.12432 -3.65598,-15.18648 -9.28063,-15.18648 -6.18709,0 -9.28064,5.06216 -9.28064,15.18648 -0.56245,4.4997 1.40618,15.74896 5.90587,33.74778 -6.74956,0 -10.96803,-3.65601 -12.6554,-10.96803 -3.93725,-10.6868 -5.62466,-18.28005 -5.06221,-22.77975 0.56248,-13.49913 5.34343,-21.93608 14.34285,-25.31084 v -223.579 c -7.31202,-2.24987 -11.81173,-10.82746 -13.49913,-25.73278 -1.6874,-14.90523 2.81231,-21.51416 13.49913,-19.82681 -5.06217,-1.12491 -8.15572,-3.37475 -9.28064,-6.74951 -1.12493,-3.37481 1.96862,-5.34344 9.28064,-5.90589 v -45.5595 c 0.56244,-19.12372 -0.98434,-26.99819 -4.64035,-23.62341 -3.65601,3.37476 -9.14002,10.12431 -16.45203,20.24864 -14.62403,26.43578 -24.1859,36.27889 -28.68563,29.52934 12.93666,-30.37301 21.65484,-51.04353 26.15453,-62.01158 4.49972,-10.96803 11.81175,-21.65483 21.93609,-32.06039 10.12433,-10.40555 18.84251,-24.3265 26.15452,-41.76283 8.43693,7.31201 8.43693,16.73326 0,28.26375 -8.43697,11.53048 -13.78038,22.35787 -16.03022,32.48218 6.18709,4.49975 8.99941,19.40503 8.43696,44.71586 v 52.30905 c 19.12372,4.49971 34.87269,10.12434 47.24692,16.87391"
     style="fill:#000000;stroke:none;stroke-width:51.0447"
     id="path1-8"
     sodipodi:nodetypes="ccccsccccsccccccscsccsccsscscccc" />
</svg>
