<?xml version="1.0" encoding="UTF-8" standalone="no"?>
<svg
   width="800"
   height="1000"
   version="1.1"
   id="svg1"
   sodipodi:docname="137CE.svg"
   inkscape:version="1.4.3 (0d15f75, 2025-12-25)"
   xmlns:inkscape="http://www.inkscape.org/namespaces/inkscape"
   xmlns:sodipodi="http://sodipodi.sourceforge.net/DTD/sodipodi-0.dtd"
   xmlns:xlink="http://www.w3.org/1999/xlink"
   xmlns="http://www.w3.org/2000/svg"
   xmlns:svg="http://www.w3.org/2000/svg">
  <defs
     id="defs1" />
  <sodipodi:namedview
     id="namedview1"
     pagecolor="#ffffff"
     bordercolor="#000000"
     borderopacity="0.25"
     inkscape:showpageshadow="2"
     inkscape:pageopacity="0.0"
     inkscape:pagecheckerboard="0"
     inkscape:deskcolor="#d1d1d1"
     inkscape:zoom="0.92456768"
     inkscape:cx="204.96066"
     inkscape:cy="306.6298"
     inkscape:window-width="1680"
     inkscape:window-height="998"
     inkscape:window-x="-8"
     inkscape:window-y="-8"
     inkscape:window-maximized="1"
     inkscape:current-layer="svg1"
     showguides="true">
    <sodipodi:guide
       position="83.204859,728.29185"
       orientation="0,-1"
       id="guide8"
       inkscape:locked="false" />
    <sodipodi:guide
       position="159.71091,720.19953"
       orientation="1,0"
       id="guide10"
       inkscape:locked="false" />
    <sodipodi:guide
       position="142.64346,594.3221"
       orientation="1,0"
       id="guide11"
       inkscape:locked="false" />
    <sodipodi:guide
       position="151.32432,728.29185"
       orientation="1,0"
       id="guide1"
       inkscape:locked="false" />
  </sodipodi:namedview>
  <path
     id="path1-62"
     style="fill:#26a269;stroke:none;stroke-width:14.7448"
     d="m 151.32422,113.72614 c -16.23308,0 -26.68594,27.20618 -31.36109,81.61952 -1.29865,13.50594 0.38794,24.80468 5.06308,33.89521 -4.15569,-2.72716 -10.51761,-8.37652 -19.08869,-16.94761 -8.441205,-8.57107 -16.689711,-12.85681 -24.741333,-12.85681 -9.350257,0 -14.153753,7.33857 -14.413483,22.01328 v 50.25842 l 66.707086,0 -18.50687,60.97157 c -7.40229,22.85621 1.81766,34.28309 27.66075,34.28309 l 8.68065,-95.25466 -1e-4,-10.71573 H 77.886309 v -39.54269 c 0,-6.62309 2.012133,-9.99886 6.037946,-10.12874 4.025804,-0.12988 12.143583,5.97322 24.350865,18.31034 12.20729,12.33718 26.55628,18.50429 43.0491,18.50429 v -14.41348 c -10.64891,-3.24661 -15.97274,-10.64924 -15.97274,-22.20721 1.03891,-52.85495 6.36275,-79.28191 15.97274,-79.28191 z m -8.68055,168.69515 v 72.65957 c -14.93444,0 -20.84269,-5.51865 -17.72594,-16.55714 z"
     sodipodi:nodetypes="ccccsccccccccsssccccccccc" />
  <path
     d="m 666.57131,789.45211 4.95409,-98.42652 c -23.65959,-0.69962 -44.39974,2.94725 -62.21996,10.93777 -4.94949,-14.23128 -5.07258,-27.94574 -0.36922,-41.14337 19.50433,7.26633 39.7368,9.9986 60.69756,8.19573 -30.28581,-43.1057 -36.46527,-73.81294 -18.53833,-92.1221 17.92696,-18.30913 36.06519,-18.62588 54.41478,-0.95096 18.34959,17.67492 13.10178,48.74358 -15.74325,93.20566 18.70268,-0.61369 38.89845,-4.089 60.58721,-10.42484 5.11135,13.22347 5.60768,26.22272 1.489,38.99771 -21.76239,-6.07752 -42.87151,-8.17799 -63.32848,-6.29423 l 8.13522,98.97825 M 680.25214,655.99246 c 16.9893,-34.99643 20.8865,-56.8507 11.69155,-65.56245 -9.19501,-8.71139 -18.0224,-8.44936 -26.4821,0.78613 -8.45969,9.23546 -3.52961,30.82731 14.79055,64.77632 z"
     style="fill:#000000;stroke:none;stroke-width:36.5588"
     id="path1-9" />
  <use
     x="0"
     y="0"
     xlink:href="#path1-62"
     id="use1"
     transform="matrix(-1,0,0,1,302.64844,0)" />
  <path
     style="fill:#000000;stroke:none;stroke-width:1"
     d="m 455.83527,347.06981 2.7486,8.24176 h 123.62678 l 3.6611,-8.24176 z m 8.24138,19.23075 c 2.44073,14.04153 4.27314,30.83031 5.49721,50.36632 1.22037,19.53605 0.30417,38.15633 -2.7486,55.86086 l 103.48013,-55.86086 c 2.44073,-25.03053 4.88258,-41.8193 7.32555,-50.36632 z m 15.56803,108.9744 c 2.44074,4.88403 2.13472,10.98906 -0.91806,18.31509 l 95.2382,-35.71435 -1.83055,-31.13555 z m -14.65276,22.89381 c 7.32629,-2.44185 10.83679,-6.71536 10.53152,-12.82054 -0.29675,-6.10499 -3.1967,-7.93647 -8.69985,-5.49444 z m -33.88245,203.29678 -0.91806,4.57861 h 159.3409 l -0.91805,-4.57861 z M 561.14595,304.02948 c 15.26239,-9.15751 27.47237,-26.86205 36.62995,-53.1136 -13.43109,-3.05241 -25.64107,-4.27333 -36.62995,-3.66277 z m -96.15403,10.07327 c 6.71573,4.27351 14.34711,6.10498 22.89414,5.49442 8.54703,-0.61055 17.09405,-2.44203 25.64108,-5.49442 v -58.6081 c -4.88407,4.88399 -11.29434,7.17337 -19.23081,6.86814 -7.93647,-0.30417 -14.9573,-2.59355 -21.06248,-6.86814 z m 127.28956,-36.63007 -14.65221,23.80953 -0.9125,18.31501 h 6.41027 z m -34.79829,42.12454 h 12.82054 l 0.91805,-15.56774 z m -121.79512,-3.66276 h 21.06248 v -3.66278 h -21.06248 z m 213.36999,5.49444 v 5.49443 h 11.9047 V 321.4289 Z M 521.7685,315.93446 h 31.13553 v -3.66278 H 521.7685 Z M 443.01417,146.52047 c -0.61204,3.66295 -2.7488,5.18916 -6.41027,4.57861 0,6.10503 2.74713,12.82055 8.24138,20.14658 -6.10481,-3.05241 -10.37813,-2.74714 -12.81997,0.91583 -3.66482,-3.05241 -6.10686,-1.83148 -7.32611,3.66278 h 5.49165 c 12.82054,-1.22112 23.50432,11.59939 32.05135,38.46154 6.71536,15.26254 12.05716,24.87793 16.0254,28.84617 3.96823,3.96827 8.69966,5.03673 14.19428,3.2054 -0.61204,-7.93654 -2.59616,-15.41518 -5.95235,-22.43593 -3.35694,-7.02075 -8.39365,-12.05739 -15.11012,-15.10991 34.18811,-6.7155 50.36651,-20.90965 48.53522,-42.58246 -1.83241,-21.67277 -10.68472,-32.50915 -26.55692,-32.50915 -16.4835,0 -28.69348,2.28938 -36.62995,6.86813 -7.93684,4.57875 -12.51563,6.56289 -13.73637,5.95241 z m 32.05134,52.19782 c 16.4835,-6.71551 25.33562,-13.2784 26.55636,-19.68867 1.22037,-6.41027 -0.30601,-12.0574 -4.57916,-16.9414 -4.27351,-4.88399 -9.61531,-7.17337 -16.0254,-6.86812 -6.41045,0.30416 -11.44715,4.42503 -15.11011,12.36262 -1.22037,4.27351 -1.52639,13.43104 -0.91806,27.47258 -0.61203,1.2211 -1.52823,1.83165 -2.7486,1.83165 -3.05278,-12.82053 -6.10537,-20.75704 -9.15778,-23.80952 1.22037,-1.22111 1.98264,-3.05258 2.28681,-5.49443 0.29674,-2.44185 -1.68738,-5.18911 -5.95236,-8.24178 0,-9.76799 3.66296,-14.65198 10.98887,-14.65198 3.66111,0 6.40842,1.83148 8.24193,5.49445 2.44074,-3.66297 1.83056,-6.71548 -1.83055,-9.15754 26.25163,-2.44185 40.59837,5.03679 43.04022,22.43593 2.44074,17.39925 -9.15869,30.06715 -34.79828,38.00369 z m -21.97774,-41.20906 c 2.44073,2.44185 4.88277,3.96806 7.3261,4.57861 4.27352,-1.22111 6.41028,-3.66311 6.41028,-7.32599 0,-4.27351 -2.13676,-6.41027 -6.41028,-6.41027 -4.27351,0 -6.71554,3.05249 -7.3261,9.15748 z m 7.3261,-7.32599 c 2.44073,0 3.96712,1.5262 4.57916,4.57861 -0.61204,2.44185 -2.13843,3.96804 -4.57916,4.57859 -3.05277,-0.61055 -4.57916,-2.13674 -4.57916,-4.57859 0.61204,-3.05241 2.13843,-4.57861 4.57916,-4.57861 z m -24.72525,157.50923 h 21.06249 l 9.1572,-58.60809 c -3.05277,-6.71551 -5.49481,-12.21002 -7.3261,-16.48353 -14.65183,22.58853 -22.28303,47.61907 -22.89359,75.09162 z m 86.99628,-97.06964 v 97.06964 h 30.21968 v -69.59713 c 62.88157,-0.61055 94.62764,16.48348 95.2382,51.28211 l 0.91806,27.47257 h 11.90471 c -6.10481,-81.19663 -22.74094,-132.17347 -49.9084,-152.93051 -27.1671,-20.75705 -54.18174,-31.74608 -81.04392,-32.96708 17.09405,27.47256 14.65201,54.02936 -7.32611,79.6704 z m -71.42879,117.21616 2.74861,9.15755 H 589.5362 l 3.6611,-9.15755 z m 22.89413,175.82427 c 14.04128,69.59712 42.1242,133.39448 84.24877,191.39207 h 28.38858 l -2.7486,-170.32977 c 0,-14.04153 -1.06829,-26.25155 -3.20487,-36.63006 -2.13657,-10.37851 -4.73124,-16.48352 -7.78402,-18.31503 z M 432.02586,695.05533 H 544.66321 C 503.14919,634.61571 476.59228,573.87087 464.99247,512.8208 Z M 523.60073,65.934078 c 1.22037,-7.325991 5.1886,-11.599485 11.90471,-12.820482 7.93647,1.831663 12.20998,6.105157 12.82054,12.820482 -0.61203,7.326027 -4.88555,10.98904 -12.82054,10.98904 -7.32592,-1.22111 -11.29416,-4.884123 -11.90471,-10.98904 z m -38.46162,43.956092 c -0.61203,5.49452 -3.96971,10.68378 -10.07304,15.56777 -14.04164,7.32603 -23.80977,4.57877 -29.3044,-8.24177 -3.66481,-9.76803 -7.78569,-19.99391 -12.36262,-30.67765 -4.57879,-10.683781 -3.51051,-17.857169 3.20485,-21.520164 -4.88406,-1.831664 -8.24192,-3.96842 -10.07359,-6.410269 0,-3.662957 1.8324,-6.410213 5.49721,-8.241766 4.27315,-1.831664 10.37814,-1.526387 18.31499,0.915832 10.37831,4.273475 14.04127,14.957238 10.98886,32.051289 0.61204,9.157507 0.91806,15.567757 0.91806,19.230748 0,4.27352 1.83055,6.86816 5.49166,7.78391 3.6611,0.91583 6.40841,-2.8998 8.24193,-11.446899 -6.10517,-7.936509 -9.15776,-18.925532 -9.15776,-32.967068 0,-16.483496 6.41027,-31.593392 19.2308,-45.329688 C 498.87586,6.8681488 515.66426,7.4548308e-7 536.42126,7.4548308e-7 555.34661,7.4548308e-7 571.67747,6.8681302 585.41384,20.604389 c 13.73637,13.736296 20.60456,28.846192 20.60456,45.329689 0,7.326027 -1.22037,14.652055 -3.6611,21.978084 -2.44073,14.652008 0.30639,28.693518 8.24137,42.124548 7.93647,15.87302 15.26258,28.99878 21.97831,39.37728 6.10481,12.21003 6.71499,19.8413 1.83055,22.89381 -29.30403,-40.29306 -46.09281,-66.5446 -50.36633,-78.75462 -8.54703,9.76802 -24.41996,15.56777 -47.61881,17.39925 -20.75701,-0.61056 -37.85107,-7.63131 -51.28217,-21.06226 z m -2.7486,-44.871814 c 0,12.210021 4.88388,23.809543 14.65165,34.798568 9.76813,10.989026 22.89394,16.788776 39.37743,17.399246 16.4835,-0.61055 29.1514,-6.10506 38.00371,-16.48353 8.8523,-10.378501 13.58373,-21.672763 14.19428,-33.882786 0,-14.041537 -5.49462,-26.098937 -16.48385,-36.1722 -10.98888,-10.073265 -22.89359,-15.415137 -35.71414,-16.025617 -15.26238,0 -27.93028,5.341872 -38.00369,16.025617 -10.07341,10.683781 -15.4152,22.130682 -16.02539,34.340702 z M 192.64534,443.03989 c -10.69092,10.13649 -20.2589,14.26435 -32.93443,16.15713 V 1000 h -17.06745 l 0.003,-541.20857 c -10.98887,-1.22111 -15.26239,-15.26262 -12.82054,-42.12455 -8.54703,-6.71551 -8.85304,-10.37851 -0.91805,-10.98898 h 13.7358 V 271.70815 h 17.06745 v 133.56421 c 11.97266,0 18.57366,2.02061 31.10221,8.46335 52.50289,-21.97805 106.59468,-33.69899 139.56204,-46.51949 l 53.11326,-74.17584 c 4.88407,-20.75705 24.42015,-38.46158 58.60825,-53.11359 3.05278,-6.71555 7.32629,-12.51532 12.82054,-17.39932 -9.76813,-24.42003 -18.92572,-36.63005 -27.47275,-36.63005 -1.8324,-1.22112 -6.10591,-2e-4 -12.82054,3.66277 0,-23.19901 5.7999,-36.93527 17.39971,-41.20878 0,-4.27352 1.22037,-7.02078 3.66111,-8.24177 2.44073,-1.22111 4.57749,-0.91583 6.41026,0.91584 -0.61203,-2.44185 3.66148,-6.86799 12.82054,-13.2784 9.15758,-6.41023 34.1881,-10.22585 75.09156,-11.44684 27.47237,1.2211 57.08169,13.27848 88.82794,36.17214 31.74588,22.8938 50.36613,83.79128 55.86075,182.69244 h -23.80941 c 0,0 -30.1943,-11.21451 -39.61281,-13.22559 -1.78254,-3.91811 -5.10583,-3.97855 -6.171,-1.42655 -17.07579,40.91116 -26.25163,73.87058 -27.47274,98.90114 3.05277,-1.83167 4.73124,0.76297 5.0354,7.78391 0.29675,7.02075 0.14838,17.85714 -0.44513,32.50915 7.93648,18.92552 11.59944,38.7668 10.98889,59.52385 4.27351,112.94267 7.32591,178.87676 9.15721,197.80229 l -4.57917,-1.83166 c -0.61203,23.19905 3.81412,42.88771 13.27846,59.066 9.46286,16.17825 13.27846,63.0339 11.44679,131.40999 -3.05277,17.09401 -2.74675,32.66179 0.91806,46.70333 15.26239,37.24059 7.93647,52.19792 -21.97775,44.87183 C 571.538,989.92652 548.64405,990.84235 532.77074,1000 H 468.6686 c 0,-14.65205 4.27351,-22.1307 12.82053,-22.43594 8.54703,-0.30417 22.28322,-2.2883 41.20857,-5.95241 36.62995,-16.48349 55.86075,-36.32476 57.69241,-59.52381 -1.22036,-25.03056 -11.29358,-76.31237 -30.21967,-144.68849 -9.76813,-9.15751 -15.26276,-22.89379 -16.48387,-41.20884 -6.10481,-6.10499 -9.15721,-9.76799 -9.15721,-10.98899 h -40.29328 c -11.59943,27.47255 -15.56766,51.73996 -11.90471,72.80221 3.66111,21.06229 -11.29618,63.94998 -44.87188,128.66308 -7.93647,20.14657 -10.3785,43.65087 -7.32611,70.5129 -12.82053,10.98899 -27.77783,13.12579 -44.87188,6.41027 -17.09367,-6.71551 -31.74569,-7.32607 -43.95604,-1.83166 -12.20999,5.49445 -25.64089,8.24168 -40.29272,8.24168 -23.19923,0 -34.18829,-1.52619 -32.96719,-4.57858 0,-14.65205 7.78383,-22.7412 23.3515,-24.26744 15.56804,-1.52639 31.74644,-5.18938 48.53521,-10.98898 16.78878,-5.79979 28.23557,-11.75218 34.34038,-17.85717 6.10517,-6.10499 11.90507,-15.87302 17.39969,-29.30407 12.20999,-32.96703 21.0621,-66.23932 26.55635,-99.81687 5.49463,-33.57754 7.47874,-54.79245 5.95235,-63.64472 -1.52453,-8.85223 1.6807,-20.29912 9.61569,-34.34065 h -10.0736 l 32.05135,-150.18323 c 8.54703,-45.17705 13.27846,-76.9231 14.19429,-95.23814 0.9162,-18.31502 1.3743,-33.8828 1.3743,-46.70334 0,-25.64104 -7.93647,-60.13434 -23.80942,-103.47991 -5.49461,-2.44185 -12.97335,3.35792 -22.43621,17.39931 -9.46286,14.0415 -29.45667,36.93528 -59.98144,68.68134 -40.90383,19.53605 -102.62682,28.2045 -162.45563,37.36201 z"
     id="path1-7"
     sodipodi:nodetypes="ccccccccccccccccccccccccccccccsccccccccccccccccccccccccccccccccccccsccccscccccccccccccscccccccssscscccscccccccccccccccccccccccccsccccccccccccccccccccsscscssscccccccccccscccsccccccccccccccccccccccccccccscccccccccsccccccccccccssscssccccccccscsccc" />
  <path
     d="m 611.27357,321.93923 c 11.54964,45.28286 22.08058,78.81263 31.88155,101.84138 -3.45012,55.44995 9.60129,65.99624 16.06147,122.88373 l 25.05141,-7.75641 c -1.93585,-60.18199 -7.06673,-98.97495 -11.45345,-128.4858 -7.95589,-45.40648 -12.57837,-65.83392 -24.65673,-123.99132"
     style="fill:#1a5fb4;stroke:none;stroke-width:55.7598"
     id="path1-94"
     inkscape:transform-center-x="-11.373532"
     inkscape:transform-center-y="176.33786"
     sodipodi:nodetypes="cccccc" />
  <path
     d="m 688.52077,544.83233 c 15.48733,15.57269 16.2287,29.92332 15.75154,49.99888 -1.22111,10.98887 -15.26262,15.26239 -42.12455,12.82054 -6.71551,8.54703 -10.37851,8.85304 -10.98898,0.91805 V 594.834 c -1.63258,-17.18911 0.26583,-32.64225 8.05781,-48.16966 l 25.05141,-7.75641 z"
     style="fill:#000000;stroke:none;stroke-width:1"
     id="path1"
     sodipodi:nodetypes="cccccccc" />
</svg>
