<?xml version="1.0" encoding="UTF-8" standalone="no"?>
<svg
   width="800"
   height="1000"
   version="1.1"
   id="svg1"
   sodipodi:docname="137C4.svg"
   inkscape:version="1.4.3 (0d15f75, 2025-12-25)"
   xmlns:inkscape="http://www.inkscape.org/namespaces/inkscape"
   xmlns:sodipodi="http://sodipodi.sourceforge.net/DTD/sodipodi-0.dtd"
   xmlns="http://www.w3.org/2000/svg"
   xmlns:svg="http://www.w3.org/2000/svg">
  <defs
     id="defs1" />
  <sodipodi:namedview
     id="namedview1"
     pagecolor="#ffffff"
     bordercolor="#000000"
     borderopacity="0.25"
     inkscape:showpageshadow="2"
     inkscape:pageopacity="0.0"
     inkscape:pagecheckerboard="0"
     inkscape:deskcolor="#d1d1d1"
     showguides="true"
     inkscape:zoom="3.6982708"
     inkscape:cx="397.88866"
     inkscape:cy="279.45493"
     inkscape:window-width="1680"
     inkscape:window-height="998"
     inkscape:window-x="-8"
     inkscape:window-y="-8"
     inkscape:window-maximized="1"
     inkscape:current-layer="svg1">
    <sodipodi:guide
       position="574.30713,102.65074"
       orientation="0,-1"
       id="guide1"
       inkscape:locked="false" />
    <sodipodi:guide
       position="436.71583,753.6302"
       orientation="0,-1"
       id="guide2"
       inkscape:locked="false" />
    <sodipodi:guide
       position="321.36641,751.91108"
       orientation="0,-1"
       id="guide3"
       inkscape:locked="false" />
  </sodipodi:namedview>
  <path
     style="fill:#000000;stroke:none;stroke-width:29.492"
     d="m 601.23122,897.3491 69.12029,69.7085 v -69.7085 z m 94.12126,-24.41272 V 1000 h -25.00097 v 0 L 570.6418,897.3491 H 95.298552 v -24.41272 z"
     id="path1-0"
     sodipodi:nodetypes="cccccccccccc" />
  <path
     style="fill:#000000;stroke:none;stroke-width:1"
     d="m 456.51195,439.86296 c -22.93179,-4.01323 -34.39769,25.79804 -34.39769,89.43383 l -6.87964,236.48455 H 385.99703 L 266.46485,605.83159 c -16.62583,-27.51789 -31.67493,-36.69058 -45.14729,-27.51805 -13.47235,9.17285 -8.16929,33.82452 15.9092,73.955 24.07816,40.1308 45.86327,102.90665 65.35534,188.32756 l -58.4757,26.65829 h 283.78075 l -18.91838,-42.99688 c 14.90564,-40.70399 25.5116,-139.02423 31.81789,-294.96072 0,-63.06261 -10.31937,-92.87389 -30.95812,-89.43383 v 89.43383 H 456.51195 Z M 375.67733,283.3533 c -1.14503,4.58609 -4.29818,6.59255 -9.45944,6.01938 0,8.02615 4.01308,16.3389 12.03923,24.93825 -9.17251,-3.43973 -15.19205,-2.86722 -18.05861,1.71753 -5.15961,-4.01291 -8.59935,-2.57996 -10.31922,4.29884 h 7.73942 c 17.77219,-0.57251 32.96457,16.053 45.57716,49.87651 8.59935,20.06525 15.62213,32.53438 21.06832,37.40739 5.44619,4.87301 11.89577,6.16283 19.34876,3.86946 -0.57252,-9.74603 -3.43891,-19.20548 -8.59918,-28.37834 -5.15994,-9.17251 -11.75299,-15.76539 -19.77915,-19.77864 47.58379,-9.17252 69.94242,-27.51789 67.07587,-55.03612 -2.8659,-27.51823 -15.47849,-41.27734 -37.83777,-41.27734 -21.78511,0 -38.26733,2.86639 -49.44664,8.59918 -11.17931,5.73312 -17.62889,8.31309 -19.34875,7.73991 z m 42.99736,67.93513 c 22.9318,-9.74604 35.25763,-18.63197 36.9775,-26.6578 1.72087,-8.02616 -0.1423,-15.19239 -5.58949,-21.49868 -5.44652,-6.3063 -12.75604,-9.31615 -21.92856,-9.02955 -9.17286,0.29957 -16.33909,5.88922 -21.49868,16.76896 -1.72087,5.73279 -2.29506,17.19868 -1.72255,34.39769 -0.57251,1.72087 -2.00545,2.58131 -4.29884,2.58131 -3.43973,-16.62551 -7.16606,-26.65813 -11.17898,-30.09787 1.72087,-1.72087 2.72444,-4.30066 3.01069,-7.73939 0.29958,-3.44007 -2.42352,-6.87998 -8.16929,-10.31972 0,-12.03907 4.87302,-18.05861 14.61906,-18.05861 5.15959,0 9.17267,2.29321 12.03924,6.87963 3.43973,-4.58642 2.29304,-8.31291 -3.44007,-11.17948 36.69107,-3.43973 56.61319,6.16301 59.76634,28.80822 3.15214,22.64521 -13.04348,38.55407 -48.58686,47.7266 z m -30.09786,-52.45631 c 3.43973,2.29337 6.87947,3.72632 10.31921,4.29884 5.73279,-1.14503 8.59918,-4.29818 8.59918,-9.45945 0,-5.15961 -2.86639,-7.73941 -8.59918,-7.73941 -5.15961,0 -8.59934,4.29967 -10.31921,12.89901 z m 10.31921,-11.17948 c 3.43973,0.57251 5.44619,2.57913 6.01936,6.01986 -0.57251,3.43975 -2.57896,5.44621 -6.01936,6.01939 -4.01325,-0.57252 -6.01987,-2.57898 -6.01987,-6.01939 0.57251,-3.43973 2.57914,-5.44635 6.01987,-6.01986 z m 171.12872,221.8655 h 26.6583 c 0,-76.24838 -12.03925,-134.29452 -36.11775,-174.13841 -24.07848,-39.84423 -46.4371,-60.33952 -67.07585,-61.48588 19.49207,47.58347 12.89918,83.70104 -19.77865,108.35271 v 127.27158 l 17.19886,0.85877 v -91.15435 c 52.16988,0 78.54158,30.09802 79.11509,90.29407 z m -175.42856,0 h 10.3192 c -1.14502,-41.85068 5.73462,-67.93563 20.63893,-78.25484 -10.31954,-6.87947 -18.3457,-5.3034 -24.07848,4.72823 -5.73312,10.03262 -8.02634,34.54099 -6.87965,73.5251 z M 568.30472,214.55791 c 5.73279,-16.05233 2.86623,-31.38802 -8.59967,-46.00706 -11.4659,-14.61905 -30.24132,-30.95797 -56.32627,-49.01674 -26.08494,-18.05879 -50.44985,-32.104493 -73.09474,-42.137114 -22.6452,-10.032952 -38.98427,-11.179639 -49.01722,-3.440062 -10.03262,7.739567 -3.29628,28.951496 20.20903,63.635786 23.50497,34.68428 44.28685,52.16989 62.34562,52.45682 18.0588,0.29957 29.52471,6.89245 34.39772,19.77864 4.87301,12.89918 23.07525,15.33569 54.60673,7.30952 10.89238,0 16.05198,-0.86043 15.4788,-2.58129 z M 342.61788,246.3698 c -8.98165,2.91586 -14.63388,2.05864 -15.9573,-2.5743 -4.58643,-2.86589 -6.1625,-2.29338 -4.72823,1.71755 1.43461,4.01323 -1.28849,3.44072 -8.1693,-1.71755 -2.29337,-9.17252 -2.44315,-14.33213 -0.44934,-15.47882 2.00712,-1.14502 4.73022,-4.87135 8.16929,-11.17898 3.43974,-6.30629 21.49852,-7.02359 54.17634,-2.1519 32.67783,4.87301 54.89299,6.87947 66.64548,6.01937 11.75282,-0.85877 22.21549,-2.72194 31.38802,-5.5895 3.43973,-9.17284 -4.15638,-13.90256 -22.78834,-14.18916 -18.63197,-0.29957 -40.99042,-20.22151 -67.07536,-59.76583 -26.08495,-39.55764 -30.81467,-67.075865 -14.18916,-82.554678 16.6255,-15.478813 50.73661,-8.312584 102.33332,21.498685 51.59638,29.811273 82.41088,53.029653 92.4435,69.655163 10.03295,16.6255 19.63569,33.25117 28.80821,49.87702 8.02616,-12.03941 12.03924,-32.67816 12.03924,-61.91625 0,-29.81128 -9.45944,-53.029674 -28.37833,-69.655175 -18.91855,-16.625501 -32.3909,-26.371533 -40.41706,-29.238096 -21.78511,-0.572507 -41.27717,-8.598668 -58.47619,-24.078483 -3.43973,-4.01292 -3.72599,-7.7392461 -0.85878,-11.1789778 2.86589,-3.4397418 6.59222,-4.58643434 11.17898,-3.44007761 17.7722,0.57251671 36.40433,8.31209351 55.8964,23.21873041 10.89271,5.159598 25.65505,15.6221 44.28702,31.387507 18.63229,15.765738 30.38478,37.981065 35.25746,66.645982 4.87335,28.66457 1.00373,62.48893 -11.60886,101.47306 -4.58643,13.75895 -12.61259,21.49852 -24.07848,23.21871 H 478.85343 c 36.69108,0 69.08232,21.78511 97.17373,65.35533 28.09141,43.57055 42.13711,116.09243 42.13711,217.56566 l -47.29672,0.85877 c -0.57251,120.39211 -9.4586,218.4256 -26.65828,294.10047 l 30.09786,73.09523 H 206.25165 l -4.29884,-40.41708 62.77603,-35.25745 C 250.39638,759.7588 231.62096,707.30216 208.40258,664.30479 c -23.21839,-42.99705 -33.82436,-70.65857 -31.81789,-82.98457 2.00712,-12.32567 12.32649,-23.93486 30.95812,-34.82758 18.63197,-10.89272 39.12726,-7.16623 61.48587,11.17947 l 119.53217,163.38882 c 4.01291,-96.31362 6.01937,-160.52259 6.01937,-192.6269 l -21.49868,0.85876 v -56.75614 c 0,-24.07849 3.5832,-40.99076 10.74959,-50.73679 7.16606,-9.74602 12.75555,-16.05231 16.76846,-18.91888 -20.06523,-46.43678 -35.8308,-69.65517 -47.29669,-69.65517 -2.8659,-1.14502 -8.88544,0.86144 -18.05863,6.01939 0,-29.81127 8.31275,-47.5833 24.93826,-53.31609 -0.57251,-5.15961 1.00356,-8.7428 4.72822,-10.74959 3.72633,-2.00713 6.73618,-1.57775 9.02955,1.28815 -1.14502,-2.8659 4.58793,-8.59885 17.19886,-17.19885 12.61226,-8.59935 27.80448,-12.89902 45.57667,-12.89902 z"
     id="path1"
     sodipodi:nodetypes="cccccccccccccccccccccccscsccscccccccccccccscccccccsscccccccccccccccscccccsccsscccccccccccccccccccscccsccccccscccccccccccccccccccscccccccccc" />
</svg>
