<?xml version="1.0" encoding="UTF-8" standalone="no"?>
<svg
   width="1000"
   height="1000"
   version="1.1"
   id="svg1"
   sodipodi:docname="137C8.svg"
   inkscape:version="1.4.3 (0d15f75, 2025-12-25)"
   xmlns:inkscape="http://www.inkscape.org/namespaces/inkscape"
   xmlns:sodipodi="http://sodipodi.sourceforge.net/DTD/sodipodi-0.dtd"
   xmlns="http://www.w3.org/2000/svg"
   xmlns:svg="http://www.w3.org/2000/svg">
  <defs
     id="defs1" />
  <sodipodi:namedview
     id="namedview1"
     pagecolor="#ffffff"
     bordercolor="#666666"
     borderopacity="1.0"
     inkscape:showpageshadow="2"
     inkscape:pageopacity="0.0"
     inkscape:pagecheckerboard="0"
     inkscape:deskcolor="#d1d1d1"
     inkscape:zoom="0.75499997"
     inkscape:cx="850.99341"
     inkscape:cy="970.19871"
     inkscape:window-width="1680"
     inkscape:window-height="998"
     inkscape:window-x="-8"
     inkscape:window-y="-8"
     inkscape:window-maximized="1"
     inkscape:current-layer="svg1"
     showguides="true">
    <sodipodi:guide
       position="619.14777,50"
       orientation="0,-1"
       id="guide1"
       inkscape:locked="false" />
    <sodipodi:guide
       position="208.05576,46.643"
       orientation="0.98332175,-0.1818745"
       id="guide2"
       inkscape:locked="false" />
  </sodipodi:namedview>
  <path
     style="fill:#000000;stroke:none;stroke-width:1"
     d="m 321.52165,623.49022 c 5.62461,14.06156 13.78031,26.71697 24.46709,37.9663 h 148.49024 c 38.80994,-1.1249 56.52754,-21.93603 53.15276,-62.43346 l -68.33927,-4.21849 c -48.37182,8.43695 -100.96208,17.99883 -157.77082,28.68565 z M 582.22322,950 V 819.22738 H 505.44703 V 950 Z m -95.3375,0 V 801.50972 h 95.3375 V 581.30548 h -12.65543 v 17.71758 c -2.24976,52.87156 -21.09226,79.30733 -56.52749,79.30733 H 335.86441 c -5.62462,0 -7.59323,2.8123 -5.90584,8.43692 V 950 Z M 428.67087,242.98401 c -0.56249,2.81231 -2.81236,3.93723 -6.74961,3.37481 0,6.18708 3.09354,12.37417 9.28064,18.56126 -6.74954,-2.81231 -11.24924,-2.53108 -13.49909,0.84366 -3.37478,-2.81231 -5.62463,-1.68737 -6.74955,3.3748 h 5.06218 c 12.93662,-0.56248 23.6234,10.96803 32.06034,34.59148 6.18709,14.62404 11.24926,23.62344 15.18651,26.99823 3.93723,3.37475 8.43692,4.21845 13.4991,2.53109 0,-6.74957 -1.82799,-13.49914 -5.48398,-20.24869 -3.65602,-6.74956 -8.29634,-11.24925 -13.921,-13.49909 33.18533,-6.18713 48.79367,-19.12377 46.82507,-38.80994 -1.9686,-19.68621 -10.8274,-29.52932 -26.57638,-29.52932 -15.74897,0 -27.42005,1.96861 -35.01329,5.90583 -7.59328,3.93726 -12.23359,5.90588 -13.92094,5.90588 z m 31.21663,47.24688 c 15.74898,-6.74957 24.32655,-12.93665 25.73271,-18.56127 1.40615,-5.62462 0,-10.68677 -4.21845,-15.18653 -4.2185,-4.49968 -9.42129,-6.60891 -15.60837,-6.32767 -6.1871,0.28124 -10.96803,4.07787 -14.34281,11.38986 -1.68739,4.49968 -2.24987,12.93665 -1.68743,25.31086 -0.56244,1.1249 -1.40613,1.68736 -2.53109,1.68736 -2.8123,-11.81172 -5.6246,-19.12375 -8.4369,-21.93605 1.12491,-0.56249 1.82798,-2.10924 2.10922,-4.64032 0.28123,-2.53106 -1.54677,-5.20276 -5.48401,-8.01512 0,-8.43692 3.37477,-12.65536 10.12431,-12.65536 3.93727,0 6.74959,1.68739 8.43698,5.06217 2.24984,-3.37478 1.40613,-6.18712 -2.53108,-8.43697 25.87329,-2.24988 39.93487,4.64031 42.18474,20.67054 2.24983,16.03016 -8.99945,27.42001 -33.74782,34.16957 z m -21.93606,-37.12254 c 2.8123,2.24985 5.34339,3.37474 7.59324,3.37474 3.93727,-1.12489 5.9059,-3.37475 5.9059,-6.74954 0,-3.93721 -1.96863,-5.90582 -5.9059,-5.90582 -3.93724,0 -6.46833,3.09353 -7.59324,9.28062 z m 7.59324,-6.74953 c 2.24988,0 3.65603,1.12491 4.21847,3.37473 -0.56244,2.81231 -1.96859,4.21846 -4.21847,4.21846 -2.8123,0 -4.21845,-1.40615 -4.21845,-4.21846 0,-2.24982 1.40615,-3.37473 4.21845,-3.37473 z m 145.95917,156.08345 h 21.0924 c 5.62461,-63.55831 -3.51543,-106.30549 -27.4201,-128.24156 -23.90469,-21.93604 -48.23123,-34.59145 -72.97957,-37.96624 14.0616,33.74777 10.12437,59.05861 -11.81171,75.93252 v 90.27528 h 23.62344 v -64.12083 c 47.80934,-14.06154 70.30785,7.31206 67.49554,64.12083 z m -149.33395,0 h 19.40503 v -34.59145 c 0.56243,-10.68681 1.40613,-17.43638 2.53107,-20.24868 -6.74956,-5.06216 -12.23357,-4.07785 -16.45203,2.95294 -4.2185,7.03077 -6.04652,24.3265 -5.48407,51.88719 z M 595.72231,11.811717 c -4.49969,-3.9372225 -10.96802,1.124949 -19.40498,15.186513 -6.74957,13.499122 -13.21789,22.920373 -19.40497,28.263748 -6.18708,5.343407 -14.4834,11.389891 -24.88896,18.139454 -10.40557,6.749562 -23.20159,18.561278 -38.38808,35.435148 -15.18652,16.8739 -26.43579,32.62288 -33.74782,47.24693 h 80.99468 c 11.24927,-27.5607 18.13945,-47.52815 20.67056,-59.902358 2.53105,-12.374174 4.92151,-22.357882 7.17135,-29.951122 2.24975,-7.593272 8.43685,-17.29576 18.56129,-29.107457 10.12434,-12.936648 12.93665,-21.3736 8.43693,-25.310856 z M 532.44527,223.57904 631.1575,14.342801 629.47013,12.655428 555.22498,171.26997 H 428.67087 l 12.65536,52.30907 c 8.9994,-4.49972 22.63914,-6.89018 40.91923,-7.17139 18.28002,-0.28131 35.01329,2.10915 50.19981,7.17139 z m -59.05863,280.95025 32.06039,-26.15456 c 6.18709,-21.93601 12.37418,-42.74715 18.56128,-62.43339 h -37.96624 v -61.58965 c -3.93726,-8.99942 -7.31204,-8.7182 -10.12435,0.8437 v 60.74595 h -24.46714 c 7.312,11.81174 12.23356,26.15456 14.76466,43.02847 2.53108,16.87386 4.92154,32.06037 7.1714,45.55948 z m 5.06217,42.18474 1.68737,27.84194 67.49556,4.21857 c 2.81235,-28.68564 8.15575,-57.51187 16.03017,-86.47871 7.8745,-28.96684 14.62408,-54.69954 20.24869,-77.19804 h -7.59327 v -24.46725 l -16.87389,71.71407 -13.49908,37.96617 c -22.49852,20.2487 -44.99703,35.71646 -67.49555,46.40325 z M 81.91238,309.63589 C 56.039083,295.5743 39.305816,292.34013 31.712576,299.93337 c -7.593241,7.59327 -7.874478,14.9053 -0.843714,21.93605 7.030799,7.0308 24.045305,2.95297 51.043518,-12.23353 z m 179.70693,253.95204 c 33.74778,13.49909 48.65306,17.99881 44.71582,13.49914 -3.93726,-4.49974 -5.2028,-8.15574 -3.79664,-10.96805 1.40615,-2.81231 0.98432,-5.62462 -1.26552,-8.43698 -2.24987,-2.81231 -1.96863,-6.18709 0.84371,-10.12433 2.8123,-3.93722 -10.68683,1.40619 -40.49737,16.03022 z m 41.34102,-32.0604 c -2.24983,-1.12494 -3.65598,-4.49972 -4.21845,-10.12435 -0.56247,-5.62464 1.68739,-7.59327 6.74954,-5.90587 l 24.46715,13.49912 v 0 c 18.5613,7.31204 34.59149,15.18653 48.09058,23.62344 38.24747,-7.31201 65.2457,-18.28002 80.99469,-32.90405 -7.87452,-64.1208 -19.96748,-102.08705 -36.27888,-113.89875 -47.24689,24.18591 -90.55655,44.15332 -129.92897,59.90228 -35.99762,-35.43516 -65.24571,-67.77679 -87.74421,-97.02487 -24.74837,-16.31143 -41.05978,-26.99823 -48.93425,-32.0604 -7.31204,-6.18707 -8.71821,-12.09295 -4.2185,-17.7176 l -43.02843,-3.37474 c -1.68738,20.24866 0.28125,37.685 5.90589,52.30908 -11.24924,4.49966 -21.936052,4.7809 -32.060398,0.84366 6.749564,-16.31143 9.561871,-33.18532 8.43692,-50.62164 -34.310216,25.8733 -58.214887,31.3573 -71.714009,16.45201 -13.4991234,-14.90524 -12.9366655,-29.95111 1.687374,-45.13763 14.624038,-15.18653 38.528725,-11.24928 71.714061,11.81172 0,-16.31143 -1.968628,-33.18533 -5.905885,-50.62166 10.124342,-4.49969 20.248687,-5.06217 30.373027,-1.68738 -5.62464,17.99879 -8.15574,35.71637 -7.59325,53.15274 l 64.96446,-7.59325 c -3.93727,-2.81233 -5.62466,-6.89018 -5.06216,-12.23356 0.56246,-5.34342 3.09354,-6.60897 7.59323,-3.79666 l 21.09236,17.71759 c 8.99942,17.99882 14.9053,35.15394 17.71759,51.46538 l 93.65007,70.87029 c 28.12317,-20.24867 58.49617,-39.3724 91.11904,-57.3712 9.56186,-5.62461 20.52987,-5.62461 32.90406,0 1.6874,-16.31143 5.90587,-27.84193 12.65544,-34.59149 -14.06157,-32.06038 -25.0296,-48.09057 -32.90407,-48.09057 -2.24988,-1.12491 -6.46835,10e-6 -12.65543,3.3748 0,-20.81112 5.62462,-33.46656 16.87389,-37.96624 -1.6874,-3.93725 1.68737,-7.31203 10.12433,-10.12434 l -15.1865,-77.61988 h 28.68559 c 8.43696,-15.74899 14.62405,-26.15457 18.56127,-31.2167 -21.37357,-16.31143 -36.98191,-30.935469 -46.82501,-43.87212 -9.8431,-12.936649 -14.06158,-25.732696 -12.65542,-38.388141 1.40615,-12.655412 5.62462,-20.951728 12.65542,-24.888949 7.0308,-3.937256 15.18652,-5.202807 24.46714,-3.796655 9.28064,1.406154 16.17079,6.890164 20.6705,16.452033 0.56247,13.499123 -1.68737,21.654836 -6.74955,24.467144 -5.06217,2.812339 -10.68683,4.077891 -16.87395,3.796654 -6.18704,-0.28124 -8.43688,-2.671706 -6.74949,-7.171402 0.56249,-2.812307 3.37478,-3.093543 8.43692,-0.843711 6.74957,-1.687393 10.68681,-5.343394 11.81172,-10.968005 0.56246,-6.18712 -1.40615,-10.686833 -5.90588,-13.499141 -4.4997,-2.812306 -9.14001,-3.656001 -13.92094,-2.531086 -4.78092,1.124951 -8.71814,3.796654 -11.81172,8.015113 -3.09354,4.218461 -4.21847,10.264929 -3.37475,18.139406 0.8437,7.87451 5.62464,17.155157 14.3428,27.841941 8.71816,10.686783 22.6391,23.060969 41.76284,37.122569 20.24867,-24.185902 38.52874,-41.200409 54.84018,-51.043512 16.31142,-9.843108 27.13882,-17.998821 32.48225,-24.467145 5.34337,-6.468324 8.85876,-12.233574 10.54615,-17.295745 6.74956,-12.3741736 12.79604,-19.123735 18.13944,-20.2486844 5.34342,-1.12491576 10.54619,1.68e-5 15.60832,3.3747976 5.06219,3.3747806 8.01512,7.7338748 8.85878,13.0772838 0.84357,5.343375 -2.95305,13.358469 -11.38986,24.045288 -3.93722,3.374782 -8.15568,8.577555 -12.65538,15.60832 -4.49974,7.0308 -8.99945,22.357916 -13.49914,45.981347 L 625.25167,0 646.34398,10.968003 546.78801,228.64123 c 20.81117,7.87448 39.51307,20.6705 56.10569,38.38808 16.5927,17.71759 25.73276,49.35612 27.42015,94.91564 v 53.15273 h -28.68566 c -11.24927,32.06038 -19.40497,61.16785 -24.46713,87.32238 -5.06218,26.15456 -8.7182,46.54384 -10.96807,61.16787 h 16.03023 v -16.03022 c 0,-11.81172 8.43694,-17.71757 25.31086,-17.71757 15.74894,0 23.62342,5.90585 23.62342,17.71757 v 76.7762 h -17.7176 v -70.02662 c 0,-4.49972 -2.24983,-6.74958 -6.74954,-6.74958 -4.4997,0 -6.74953,2.24986 -6.74953,6.74958 V 967.71761 H 312.24097 V 678.33039 c -7.87449,10.68674 -8.85879,27.98247 -2.95288,51.88719 5.90584,23.90466 -7.20397,55.86752 -45.45144,128.98774 -8.99943,23.62338 -11.53052,50.34034 -7.59327,80.15094 -13.49911,12.37418 -28.96683,14.90529 -46.40319,7.59324 -17.43635,-7.312 -32.48225,-8.01507 -45.13769,-2.10922 -12.65542,5.90589 -26.29513,8.85882 -40.91915,8.85882 -24.185927,0 -35.716408,-1.40618 -34.591459,-4.21857 0,-16.87389 8.015098,-26.29517 24.045299,-28.26379 16.03019,-1.96845 32.62284,-6.18693 49.77794,-12.65543 17.15515,-6.46833 28.96686,-13.07726 35.43514,-19.82683 6.46833,-6.74953 12.51483,-17.99877 18.13947,-33.74772 12.37417,-37.12258 18.31258,-58.1174 23.93722,-96.08363 5.62462,-37.96629 9.42123,-69.60481 11.38986,-94.9156 1.96864,-25.31087 16.45205,-42.466 43.45027,-51.4654 h -0.84367 c 17.43636,-7.8745 40.21611,-14.34281 68.33926,-19.405 28.12313,-5.06215 61.58967,-10.96802 100.39961,-17.71755 l -0.8437,-21.09229 c -18.56131,8.43696 -44.71583,16.03023 -78.46357,22.77978 l -44.71582,8.43686 h -19.40497 c -12.93666,14.62406 -35.7164,10.12436 -68.33925,-13.49902 -0.56246,16.31138 1.12492,33.18525 5.06216,50.6216 -10.12434,3.93726 -20.52991,4.49969 -31.21669,1.68731 6.18708,-17.99884 9.28062,-35.71642 9.28062,-53.15274 l -64.96444,6.74964 -0.84374,-26.15451 65.80818,5.06218 c 2.24988,-19.68622 0.56249,-36.84137 -5.06215,-51.46543 11.24924,-4.49969 21.93605,-4.78091 32.06039,-0.84367 -6.74956,16.31143 -9.8431,33.18532 -9.28063,50.62168 24.1859,-17.43636 41.05979,-25.31083 50.62165,-23.62344 z"
     id="path1"
     sodipodi:nodetypes="cccccccccccccccccssccccccccccscscsssccsssccccscsccsccccsscscsssccsccccccccccscscsssccsscsccccccscccccccccsccccscccccccssccssssccsccscccccccccccsscccccsccccccccccccccsssscsscccssssscsscssscsccccscccsccsssccssscccsccssscssscssccscccccccccccccccc" />
  <rect
     style="fill:#f8e45c;fill-rule:evenodd;stroke:none;stroke-width:16;stroke-miterlimit:5;stroke-dasharray:none"
     id="rect2"
     width="320.74603"
     height="23.21526"
     x="287.99384"
     y="952" />
  <rect
     style="fill:none;fill-rule:evenodd;stroke:#613583;stroke-width:14;stroke-miterlimit:5;stroke-dasharray:none"
     id="rect1"
     width="530.66675"
     height="36"
     x="81.481026"
     y="957" />
</svg>
