<?xml version="1.0" encoding="UTF-8" standalone="no"?>
<svg
   width="800"
   height="1000"
   version="1.1"
   id="svg1"
   sodipodi:docname="137DE.svg"
   inkscape:version="1.4.3 (0d15f75, 2025-12-25)"
   xmlns:inkscape="http://www.inkscape.org/namespaces/inkscape"
   xmlns:sodipodi="http://sodipodi.sourceforge.net/DTD/sodipodi-0.dtd"
   xmlns="http://www.w3.org/2000/svg"
   xmlns:svg="http://www.w3.org/2000/svg">
  <defs
     id="defs1" />
  <sodipodi:namedview
     id="namedview1"
     pagecolor="#ffffff"
     bordercolor="#000000"
     borderopacity="0.25"
     inkscape:showpageshadow="2"
     inkscape:pageopacity="0.0"
     inkscape:pagecheckerboard="0"
     inkscape:deskcolor="#d1d1d1"
     inkscape:zoom="0.5"
     inkscape:cx="603"
     inkscape:cy="233"
     inkscape:window-width="1680"
     inkscape:window-height="998"
     inkscape:window-x="-8"
     inkscape:window-y="-8"
     inkscape:window-maximized="1"
     inkscape:current-layer="svg1"
     showguides="true">
    <sodipodi:guide
       position="739.73891,330.83244"
       orientation="0,-1"
       id="guide3"
       inkscape:locked="false" />
    <sodipodi:guide
       position="800,0"
       orientation="0,-1"
       id="guide1"
       inkscape:locked="false" />
    <sodipodi:guide
       position="0,1000"
       orientation="0,-1"
       id="guide2"
       inkscape:locked="false" />
    <sodipodi:guide
       position="357.79865,823.06746"
       orientation="0,-1"
       id="guide4"
       inkscape:locked="false" />
    <sodipodi:guide
       position="392.76833,757.39157"
       orientation="0,-1"
       id="guide5"
       inkscape:locked="false" />
    <sodipodi:guide
       position="461.00273,691.31147"
       orientation="0,-1"
       id="guide6"
       inkscape:locked="false" />
    <sodipodi:guide
       position="461.00273,791.50769"
       orientation="1,0"
       id="guide7"
       inkscape:locked="false" />
    <sodipodi:guide
       position="448.20809,743.74555"
       orientation="1,0"
       id="guide15"
       inkscape:locked="false" />
    <sodipodi:guide
       position="422.31786,734.66182"
       orientation="1,0"
       id="guide16"
       inkscape:locked="false" />
    <sodipodi:guide
       position="448.20809,682.33523"
       orientation="0,-1"
       id="guide17"
       inkscape:locked="false" />
    <sodipodi:guide
       position="408.97499,737.77502"
       orientation="1,0"
       id="guide18"
       inkscape:locked="false" />
  </sodipodi:namedview>
  <path
     d="m 565.91824,242.60843 c 31.82686,0 52.58875,17.11152 60.71222,53.59138 7.87361,35.3578 22.65737,71.8026 30.08199,112.46124 30.04447,52.63543 21.43159,58.6981 50.55071,114.34755 13.07358,4.26847 21.74256,13.22125 26.00849,26.85559 4.26587,13.6343 8.42333,23.22687 12.47211,28.77767 2.37817,5.89565 0.43836,7.74732 -5.82004,5.55559 -3.91592,-2.09465 -9.26861,-11.15096 -16.05831,-27.16732 -4.37573,-4.3221 -6.3235,-3.91848 -5.84583,1.20829 0.2835,9.81158 11.42943,27.2512 33.44102,52.31797 1.80339,3.11134 2.54354,5.28158 2.21666,6.51019 -0.32698,1.22875 -2.27695,1.63021 -5.84799,1.20615 0.13275,3.45617 -1.52973,5.25077 -4.98584,5.38357 0.0179,2.89926 -1.81579,3.85762 -5.50185,2.8767 -0.65395,2.45737 -2.37746,3.25066 -5.17072,2.37576 -2.79328,-0.87492 -7.5672,-6.42321 -14.32113,-16.64097 C 697.10258,593.32659 688.47435,568.40011 691.9638,537.48882 662.49087,490.503 647.43999,475.25927 620.69071,429.54387 606.78463,393.00343 590.9035,349.75104 581.26701,304.01872"
     style="fill:#000000;stroke:none;stroke-width:40.0715"
     id="path1-1" />
  <path
     id="path1"
     style="fill:#000000;stroke:none;stroke-width:40.0715"
     d="m 449.06165,108.7003 c -26.15593,1.13723 -42.93089,4.26508 -50.32278,9.38258 -9.09773,6.25468 -13.36113,10.51804 -12.79246,12.79248 -1.70588,-2.27444 -3.83971,-2.70077 -6.39838,-1.27925 -2.55874,1.42153 -3.83776,4.12308 -3.83776,8.10333 -11.94079,3.98022 -17.91162,17.05737 -17.91162,39.2331 6.25474,-3.41161 10.52023,-4.83202 12.79463,-4.26343 9.09775,0 21.03939,17.05764 35.82322,51.17417 -2.27445,5.68607 -6.82485,11.94185 -13.64817,18.76515 -31.82686,0 -52.58875,17.11152 -60.71222,53.59138 -7.87361,35.3578 -22.65737,71.8026 -30.08199,112.46124 -30.04447,52.63543 -21.43159,58.6981 -50.55071,114.34755 -13.07358,4.26847 -21.74256,13.22125 -26.00849,26.85559 -4.26587,13.6343 -8.42333,23.22687 -12.47211,28.77767 -2.37817,5.89565 -0.43836,7.74732 5.82004,5.55559 3.91592,-2.09465 9.26861,-11.15096 16.05831,-27.16732 4.37573,-4.3221 6.3235,-3.91848 5.84583,1.20829 -0.2835,9.81158 -11.42943,27.2512 -33.44102,52.31797 -1.80339,3.11134 -2.54354,5.28158 -2.21666,6.51019 0.32698,1.22875 2.27695,1.63021 5.84799,1.20615 -0.13275,3.45617 1.52973,5.25077 4.98584,5.38357 -0.0179,2.89926 1.81579,3.85762 5.50185,2.8767 0.65395,2.45737 2.37746,3.25066 5.17072,2.37576 2.79328,-0.87492 7.5672,-6.42321 14.32113,-16.64097 20.74715,-18.9412 29.37538,-43.86768 25.88593,-74.77897 29.47293,-46.98582 44.52381,-62.22955 71.27309,-107.94495 13.90608,-36.54044 29.78721,-79.79283 39.4237,-125.52515 1.70583,3.41163 8.95567,22.74452 21.74935,57.99827 12.79369,35.25371 19.19087,61.97786 19.19087,80.17331 0,18.19549 -0.56985,35.9644 -1.7071,53.30697 -1.13718,17.34256 -16.4895,95.38544 -46.05721,234.12585 h 8.52904 c -7.39191,13.07801 -10.37622,23.88204 -8.95474,32.41115 1.42154,8.52917 -0.71225,28.71686 -6.39838,60.55893 -5.68604,31.84207 -14.49986,63.39937 -26.44063,94.67286 -5.68604,12.50937 -11.65476,21.74955 -17.90946,27.71989 -6.25468,5.97043 -18.05493,11.65625 -35.39751,17.05807 -17.34254,5.40175 -33.83253,8.81462 -49.46924,10.23611 -15.63677,1.42154 -23.45429,9.23901 -23.45429,23.45433 -1.70582,2.84314 9.66594,4.26564 34.11612,4.26564 14.2152,0 27.7208,-2.56029 40.51449,-7.6777 12.7937,-5.11754 27.71969,-4.54764 44.77796,1.70709 17.05821,6.25471 32.12561,3.97955 45.20365,-6.82409 -2.84306,-25.0188 -8e-5,-47.19462 8.52902,-66.52729 34.11649,-61.40967 49.18604,-102.06575 45.20579,-121.96706 -3.98027,-19.90131 2.2e-4,-42.93188 11.94107,-69.08793 h 41.7916 c 0,0.56859 2.84296,3.6965 8.52902,9.38257 1.70583,18.19547 7.39387,31.5575 17.06023,40.08665 19.33262,64.82135 29.85174,113.4408 31.55763,137.32227 -2.27445,22.17575 -22.46004,40.93879 -60.55677,56.29117 -19.33267,3.98029 -33.12325,5.97054 -41.36805,5.97054 -8.24485,0 -12.36677,7.10836 -12.36677,21.32368 h 64.82234 c 15.92106,-8.52932 39.23449,-9.38182 69.93933,-2.55851 30.70486,6.82331 38.0961,-7.3936 22.17505,-42.64731 -3.41148,-13.07801 -3.97928,-27.86048 -1.70494,-44.35009 2.84302,-64.82132 -0.71121,-109.31661 -10.66182,-124.95334 -9.95064,-15.63671 -14.35749,-34.2605 -13.22031,-55.86761 l 11.08751,0.85353 c -6.25466,-18.19543 -10.23519,-80.74242 -11.94107,-187.64078 -0.56858,-23.31291 -4.54912,-42.0781 -11.94108,-56.29333 3.41167,-18.76406 1.70631,-34.40137 -5.11698,-46.91073 3.41163,-19.90131 8.95615,-39.80192 16.63236,-59.70321 7.60587,-19.71896 16.15993,-45.58451 25.16137,-75.9099 V 251.99104 C 578.42403,209.91403 565.48612,175.51158 542.45745,148.78698 519.4288,122.06241 488.2978,108.70033 449.06383,108.70033 Z m -10.23398,14.49956 c 16.48962,0 25.87112,10.37773 28.14558,31.13193 2.27442,20.75421 -14.21552,34.25766 -49.46923,40.51236 5.6861,2.84303 10.51931,7.67626 14.49957,14.49956 3.98034,6.82333 6.25549,13.93172 6.82408,21.32365 -6.25472,1.7058 -11.37282,0.7118 -15.35312,-2.98419 -3.9802,-3.69594 -9.09843,-12.93609 -15.35309,-27.71987 -9.09774,-25.01878 -20.46952,-37.24536 -34.11614,-36.67678 h -5.97054 c 1.13725,-5.11747 3.6952,-6.25508 7.67549,-3.41204 2.27444,-3.41167 6.82486,-3.97941 13.64817,-1.70494 -6.25471,-5.68608 -9.0998,-11.65695 -8.53118,-17.91161 3.41166,0.56862 5.68689,-1.13669 6.82407,-5.11699 1.13722,0.56862 5.82909,-1.28026 14.07387,-5.54483 8.24484,-4.26459 20.6128,-6.39625 37.10247,-6.39625 z m 36.67462,5.117 c 19.33271,1.13723 38.80696,14.07295 58.42394,38.80742 19.61715,24.73444 32.56076,47.62239 31.99201,75.48415 h -53.57579 l -0.49021,66.3252 -50.84951,-0.2451 V 208.49231 c 24.45016,-18.19544 29.28341,-44.92173 14.49956,-80.17545 z m -54.31963,2.15215 c -3.02075,-0.0134 -6.23755,0.12204 -9.64918,0.40635 3.98022,2.27442 4.54801,4.83458 1.70495,7.67762 -1.70577,-2.84304 -4.54883,-4.26559 -8.52903,-4.26559 -6.82337,0 -10.23398,4.26546 -10.23398,12.79462 3.9803,2.84302 5.827,5.54247 5.54269,8.10118 -0.28429,2.55878 -0.99339,4.69257 -2.13064,6.39838 2.84306,2.27444 5.68599,9.38072 8.52903,21.32151 1.70586,1e-5 2.55849,-0.28278 2.55849,-0.8514 0,-13.07796 0.56774,-21.89174 1.70495,-26.44064 3.9802,-7.3919 9.23979,-11.23107 15.7788,-11.51537 6.53893,-0.28426 12.08349,1.84951 16.63237,6.39838 4.54885,4.54886 5.97138,9.80841 4.26559,15.77882 -1.7058,5.97037 -11.08944,12.65036 -28.14774,20.04225 v 1.7071 c 26.72449,-6.8233 38.95109,-18.62355 36.67677,-35.39752 -1.99014,-14.67717 -13.55794,-22.06241 -34.70307,-22.15569 z m -16.47326,7.23043 c 4.54882,0 6.82408,1.99026 6.82408,5.97054 0,3.41164 -2.27526,5.68689 -6.82408,6.82407 -2.27444,0 -4.83242,-1.13762 -7.67549,-3.41204 1.13723,-6.2547 3.69518,-9.38257 7.67549,-9.38257 z m 0,0.85354 c -2.84306,0 -4.26343,1.70533 -4.26343,5.117 0,2.2744 1.42037,3.41203 4.26343,3.41203 2.84297,0 4.26559,-1.13763 4.26559,-3.41203 0,-3.41167 -1.42262,-5.117 -4.26559,-5.117 z m 9.49007,103.73511 c 3.05631,-0.35538 6.4327,0.88932 10.12863,3.73238 -10.80358,7.39193 -15.92173,12.79288 -15.35311,16.20451 v 55.43979 h 13.34287 v -52.32659 c 1.7835,-5.86739 4.56693,-10.58264 11.08109,-11.71747 4.121,-0.50882 9.19362,0.52787 14.80914,2.63374 v 61.41032 h 73.35138 l 0.55041,-63.30875 12.3818,2.75198 c -0.10046,23.88139 -0.13759,47.76273 -0.13759,71.64427 l -131.23543,0.85356 -19.12446,-59.41511 6.64779,-11.46808 c -0.56865,-2.27441 10.51347,-3.46174 15.34667,-10.56937 2.41654,-3.55379 5.15451,-5.50981 8.21081,-5.86518 z m 136.35913,61.73065 h 17.05806 v 8.52903 H 550.5586 Z m -141.58361,44.35225 h 145.8492 L 551.41216,356.9 H 411.53348 Z m 4.26344,17.90945 H 548.0001 l -4.26342,8.52903 H 415.79693 Z m 9.38258,18.76516 h 117.70361 c -5.11744,18.19546 -9.09804,38.09607 -11.94106,59.7032 l -96.37997,43.4987 c 2.84307,-34.11652 -0.28485,-68.51681 -9.38258,-103.2019 z m 109.1746,69.08579 1.70492,30.70622 -97.2335,32.41116 c 2.84299,-6.25465 2.84299,-11.65779 0,-16.20666 z m 0,41.79374 c 7.9606,10.23497 11.65624,27.57759 11.08751,52.02773 l 2.5585,161.20231 H 517.29604 C 474.08181,654.0002 445.08026,593.7263 430.2965,528.33635 Z m -103.73727,7.59594 c 3.19841,-0.15991 4.79879,2.00016 4.79879,6.47792 0,5.97037 -3.69781,10.37513 -11.08967,13.21818 l 2.56064,-18.76301 c 1.42152,-0.56861 2.66414,-0.87979 3.73024,-0.93309 z m -6.29088,33.34426 c 11.94076,57.99802 38.95193,115.42904 81.02901,172.28984 H 388.50489 Z M 386.7978,715.97711 h 160.34876 l 1.7071,4.2656 H 385.94641 Z"
     sodipodi:nodetypes="sccscccccsccscccccscccsccccsssccsscssscsssccsccccccsccsccscccccsccssssscscscccccccsscsccccccsccscsccscssscccsssccssssssscccccscccccccccsscccccccccccccccccccccccccccccccssccsccccccccc" />
  <path
     id="rect2"
     style="fill:#ffff00;stroke:#ffff00;stroke-width:0.999999"
     d="m 403.46754,567.37105 153.45334,-0.94444 4.6698,24.77886 -164.30945,-0.5 z"
     sodipodi:nodetypes="ccccc" />
  <path
     id="rect3"
     style="fill:#ffff00;stroke:#ffff00;stroke-width:0;stroke-dasharray:none"
     d="m 693.3017,573.14402 35.82077,0.60176 c 2.66189,5.15948 6.31316,13.29263 7.4966,15.59655 l -39.63192,-1.17363 z"
     sodipodi:nodetypes="ccccc" />
  <path
     id="rect3-1"
     style="fill:#ffff00;stroke:#ffff00;stroke-width:0;stroke-dasharray:none"
     d="m 270.04681,566.66177 -34.47026,1.7991 -9.9266,20.9946 38.86272,1 z"
     sodipodi:nodetypes="ccccc" />
  <path
     id="path1-3"
     style="fill:#000000;stroke:none;stroke-width:39.0477"
     d="m 94.508918,464.9026 c -5.869834,-0.29436 -12.577919,-0.19779 -20.127312,0.28703 -30.197578,1.93928 -45.57508,9.55705 -46.129169,22.85508 0,9.9735 10.943357,18.14658 32.829694,24.51857 21.886305,6.37196 36.986145,7.89591 45.297409,4.57142 8.31129,-3.32453 9.14208,1.80063 2.49311,15.3757 -6.64908,13.57507 -9.559138,25.76473 -8.72801,36.56939 0.83119,10.80465 5.40315,18.28463 13.71433,22.44025 8.3113,4.15566 39.06422,6.23284 92.25619,6.23284 h 131.31677 256.81951 c 0,0 123.5372,1.28811 183.13819,4.78093 53.55632,17.06843 49.74071,91.12975 45.12265,132.4341 -9.97353,91.978 -5.81915,108.29213 12.46566,150.95672 9.41946,34.90727 16.89933,52.35986 22.44022,52.35986 11.0817,2.21635 16.06909,-1.66242 14.9609,-11.6361 -14.7543,-123.19825 -7.69477,-189.16185 -3.86106,-232.63743 5.83158,-49.71843 -1.25414,-85.35083 -43.01927,-114.9125 -24.15297,-16.95015 -96.60556,-19.85318 -209.6388,-22.06951 -102.48842,0.81465 -190.22127,0.58327 -254.32426,0 H 177.02522 c -19.94702,-1.66226 -27.84244,-7.06502 -23.6868,-16.20743 4.15564,-9.14237 7.06366,-20.50117 8.72588,-34.07625 1.66221,-13.57507 -10.80514,-23.13224 -37.40114,-28.67308 -2.49331,-7.89571 -12.54471,-12.28653 -30.154242,-13.16959 z m -21.790796,14.41614 c 13.020978,-0.83112 24.517598,2.63226 34.491128,10.38946 23.82549,5.54082 35.73968,11.63462 35.73968,18.28363 0,6.64901 -2.49258,17.03915 -7.47933,31.16831 -4.98676,14.12912 -4.84903,22.85543 0.41481,26.17996 5.26382,3.32448 19.25515,5.81712 41.97255,7.47937 H 632.4822 c 48.54428,1.4491 116.42227,0.36496 148.4524,5.33411 37.45018,5.81001 74.01081,30.70796 74.41342,102.23449 0.0911,16.1803 -14.85092,81.5727 -7.9024,196.39366 -11.08168,-49.86763 -14.806,-71.03171 -6.64972,-146.38526 4.87604,-45.04829 3.11226,-80.4544 -22.41112,-116.8078 -6.87278,-9.78903 -20.28125,-18.25137 -34.68064,-21.46524 -19.15519,-4.27534 -94.85378,-6.30025 -141.24736,-7.66796 H 177.85696 c -38.78585,0.5541 -58.18001,-5.67957 -58.18001,-18.70056 0,-13.02096 3.60117,-28.94961 10.80428,-47.78846 2.77041,-11.63577 -16.34401,-18.00931 -57.34619,-19.11748 -13.852106,-1.10818 -20.778867,-4.43169 -20.778867,-9.97251 0.554058,-5.54086 7.340942,-8.72657 20.361949,-9.55772 z m 2.910049,4.57145 c -7.757183,0.5541 -11.635994,2.07594 -11.635994,4.56934 0,2.49335 3.878811,3.6019 11.635994,3.32487 7.757192,-0.27705 12.189223,-1.10796 13.297393,-2.49312 1.108179,-1.38522 -3.323865,-3.18474 -13.297393,-5.40109 z"
     sodipodi:nodetypes="sscssssssccsscccsscccsscsscsssccsscsssccscccscsssc" />
  <path
     d="M 589.9728,6.6170361e-5 588.52713,0.06974694 587.06418,0.12192449 c -11.35363,0.37964307 -26.30236,-1.98616869 -33.51126,9.07446611 -4.21428,9.6346184 -3.48358,20.6111984 -6.13087,30.7243334 -2.30772,9.371716 -1.20791,23.161614 -12.74955,26.439645 -13.25757,3.558823 -27.66733,3.342484 -41.00064,0.261263 -12.40598,-3.879265 -10.52362,-18.713149 -13.2198,-28.825831 -2.72998,-8.90019 -1.76788,-18.732215 -5.71292,-27.223425 -7.72859,-13.5409511 -30.95497,-14.0743865 -37.53456,0.888289 -3.74513,13.639133 -4.56334,28.09771 -8.01193,41.923726 -0.10678,10.481626 -11.2497,14.996085 -20.20425,15.013818 -11.2933,0.624384 -23.49893,1.43325 -34.03369,-3.32673 C 365.26329,59.28572 367.38849,46.525992 364.81781,37.046862 361.98689,27.34079 363.37135,16.053236 357.27602,7.5591648 348.42517,-1.985376 334.22709,0.66888861 322.59794,0.06966958 V 112.20302 h 68.58979 109.52076 89.26431 c -1.1e-4,-37.40101 0,-74.802021 0,-112.20301985303632 z M 456.1547,18.810876 c 5.4211,5.121669 3.77166,14.951383 5.8175,22.120115 2.26973,12.41312 2.14765,27.290397 13.21981,35.670878 13.61819,10.783224 32.29322,11.843369 48.94299,10.537548 15.36944,-1.576925 33.052,-7.995575 38.12667,-24.175393 3.3266,-13.804782 3.82526,-28.800788 8.23836,-42.028224 0.0352,24.112768 0.011,48.232979 0.0177,72.351966 H 342.03581 c 0.023,-24.396003 -0.0463,-48.792072 0.0341,-73.188011 4.74467,15.019875 4.54696,31.169475 9.47511,46.086501 7.4425,15.952591 26.53968,20.614248 42.60308,21.388603 16.1652,0.404015 34.58814,-1.708988 46.34763,-13.986203 9.60677,-10.483423 7.99873,-25.734385 11.04266,-38.718918 1.85296,-4.699843 -0.13453,-13.474068 4.61552,-16.058862 z"
     style="fill:#000000;stroke:none;stroke-width:0.999989"
     id="path1-8"
     sodipodi:nodetypes="ccccccccccccccccccccscccccccccccccccc" />
  <rect
     style="fill:#63452c;fill-rule:evenodd;stroke:none;stroke-width:65;stroke-miterlimit:5"
     id="rect18"
     width="19.260599"
     height="8.9762402"
     x="396.38583"
     y="308.68854" />
</svg>
