<?xml version="1.0" encoding="UTF-8" standalone="no"?>
<svg
   width="700"
   height="1000"
   id="svg2"
   sodipodi:version="0.32"
   inkscape:version="1.4.2 (f4327f4, 2025-05-13)"
   sodipodi:docname="137DA.svg"
   inkscape:output_extension="org.inkscape.output.svg.inkscape"
   version="1.0"
   xmlns:inkscape="http://www.inkscape.org/namespaces/inkscape"
   xmlns:sodipodi="http://sodipodi.sourceforge.net/DTD/sodipodi-0.dtd"
   xmlns="http://www.w3.org/2000/svg"
   xmlns:svg="http://www.w3.org/2000/svg"
   xmlns:rdf="http://www.w3.org/1999/02/22-rdf-syntax-ns#"
   xmlns:cc="http://creativecommons.org/ns#"
   xmlns:dc="http://purl.org/dc/elements/1.1/">
  <metadata
     id="metadata9">
    <rdf:RDF>
      <cc:Work
         rdf:about="">
        <dc:format>image/svg+xml</dc:format>
        <dc:type
           rdf:resource="http://purl.org/dc/dcmitype/StillImage" />
      </cc:Work>
    </rdf:RDF>
  </metadata>
  <defs
     id="defs7" />
  <sodipodi:namedview
     inkscape:window-height="998"
     inkscape:window-width="1680"
     inkscape:pageshadow="2"
     inkscape:pageopacity="0.0"
     guidetolerance="10.0"
     gridtolerance="10.0"
     objecttolerance="10.0"
     borderopacity="1.0"
     bordercolor="#666666"
     pagecolor="#ffffff"
     id="base"
     height="18px"
     width="13.338665px"
     inkscape:zoom="0.5338656"
     inkscape:cx="450.48791"
     inkscape:cy="746.44255"
     inkscape:window-x="-8"
     inkscape:window-y="-8"
     inkscape:current-layer="svg2"
     inkscape:showpageshadow="2"
     inkscape:pagecheckerboard="0"
     inkscape:deskcolor="#d1d1d1"
     inkscape:window-maximized="1"
     showguides="true">
    <sodipodi:guide
       position="173.06566,856.19668"
       orientation="0,-1"
       id="guide11"
       inkscape:locked="false" />
    <sodipodi:guide
       position="161.95128,858.691"
       orientation="0,-1"
       id="guide12"
       inkscape:locked="false" />
  </sodipodi:namedview>
  <path
     style="fill:#000000;stroke:none;stroke-width:1"
     d="m 171.50586,333.89648 c -12.96439,0.87397 -21.9502,4.22165 -27.01563,9.28711 -7.31675,5.62825 -5.34637,9.56706 5.91016,11.81836 -4.50262,3.93977 4.56741,31.00473 13.50781,36.30274 19.25373,5.51116 35.96286,-3.56829 52.34375,-11.82031 52.9056,18.5732 93.70997,28.42316 122.41407,29.54882 30.39258,-9.0052 61.62987,-19.13607 93.71093,-30.39258 v -0.84374 c 24.7643,-5.62826 41.36619,-7.31769 49.8086,-5.06641 14.07062,40.52345 21.10742,72.32454 21.10742,95.40039 0,12.38217 -0.42331,27.01565 -1.26758,43.90039 -0.84421,16.88478 -5.20638,46.1519 -13.08594,87.80078 l -28.70312,138.45508 h 8.4414 c -6.75393,12.94503 -9.56707,23.49732 -8.4414,31.6582 1.12566,8.161 -0.8447,27.71836 -5.91016,58.67383 -5.06543,30.95541 -12.94497,61.34799 -23.63867,91.17774 -5.62825,12.94497 -11.2565,22.23303 -16.88477,27.86132 -5.62825,5.62823 -16.18052,11.11395 -31.6582,16.46094 -15.47771,5.34682 -30.39209,8.58353 -44.74414,9.70898 -14.35205,1.12567 -21.5293,8.72423 -21.5293,22.79493 -1.12566,2.25145 9.0052,3.37695 30.39258,3.37695 13.50781,0 26.03045,-2.39152 37.56836,-7.17578 11.53791,-4.78371 25.04573,-4.22215 40.52344,1.6875 15.47771,5.90968 29.12597,3.80078 40.94531,-6.33008 -2.81413,-24.20145 -0.27995,-45.87171 7.59961,-65.00781 30.9554,-59.65948 44.60368,-99.05725 40.94531,-118.19336 -3.65834,-19.13604 -0.14094,-41.36619 10.55274,-66.69336 h 37.14648 c 0,1.12567 2.81312,4.2197 8.44141,9.28516 1.68849,17.4476 6.75489,30.39358 15.19726,38.83593 18.01042,63.03649 27.5775,109.46985 28.70313,132.54492 -2.25131,21.38738 -20.26173,39.67868 -54.03125,54.875 -17.44758,3.37689 -30.11067,5.06641 -37.99024,5.06641 -7.87952,0 -11.81835,7.03477 -11.81835,21.10547 h 59.0957 c 14.63343,-8.44196 35.7399,-9.42757 63.31836,-2.95508 27.57846,6.47248 34.33234,-7.4567 20.26172,-41.78906 -3.37695,-12.38214 -3.65787,-26.4538 -0.84375,-42.21289 1.68848,-63.03649 -1.82892,-105.52835 -10.55274,-120.72461 -8.72384,-15.19632 -12.52411,-33.20665 -11.39844,-54.03125 l 3.37696,1.6875 c -1.68848,-18.01043 -4.2207,-78.79555 -7.59766,-182.35547 0.56282,-19.13609 -3.09506,-37.4274 -10.97461,-54.875 0.56327,-14.07061 0.70325,-24.20147 0.42188,-30.39258 -0.28141,-6.19111 -1.83041,-8.72332 -4.64453,-7.59765 1.12568,-22.51303 9.56906,-52.90559 25.32812,-91.17774 9.56804,14.07063 30.95538,17.72849 64.16211,10.97461 -5.06546,-88.92645 -22.2311,-144.08335 -51.49805,-165.4707 -29.2669,-21.38738 -56.56539,-32.36296 -81.89257,-32.92578 -37.70929,0.56282 -60.78415,3.93977 -69.22657,10.13086 -8.44238,6.19107 -12.38313,10.13184 -11.82031,11.82031 -1.12567,-1.12561 -2.95363,-1.12561 -5.48633,0 -2.5327,1.12567 -3.79883,3.65787 -3.79883,7.59765 -10.6937,3.93977 -16.04101,16.60285 -16.04101,37.99024 6.19106,-3.37695 10.41274,-4.78351 12.66406,-4.2207 7.31672,0 15.47723,11.25649 24.48242,33.76953 -6.19106,6.75388 -11.81933,14.91437 -16.88476,24.48242 -21.38739,-0.56282 -44.46419,10.69367 -69.22852,33.76953 l -76.82422,26.17188 c -19.13606,-3.37695 -54.87597,-7.3177 -107.21875,-11.82032 -13.70576,-9.93289 -42.15918,-22.86345 -55.7207,-21.94922 z M 566.60938,199.66211 c 24.76434,0.56282 49.81152,10.41277 75.13867,29.54883 25.32715,19.13609 40.52246,66.41342 45.58789,141.83203 h -10.13086 l -0.84375,-25.32813 C 675.2357,313.63378 645.68784,297.87466 587.7168,298.4375 v 63.31836 h -27.86133 v -89.48828 c 20.82454,-23.63867 23.07586,-47.84113 6.75391,-72.60547 z m -33.76954,2.5332 c 15.19629,0 23.63963,9.84996 25.32813,29.54883 1.68845,19.69891 -13.22592,32.92382 -44.74414,39.67774 5.62825,2.81414 10.13086,7.45723 13.50781,13.92968 3.37695,6.47248 5.06445,13.36879 5.06445,20.68555 -5.06544,1.12567 -9.28711,1e-5 -12.66406,-3.37695 -3.37695,-3.37695 -8.16046,-12.10125 -14.35156,-26.17188 -8.44238,-24.76434 -18.29039,-36.86556 -29.54688,-36.30273 h -5.0664 c 0.56284,-4.50262 2.5332,-5.34733 5.91015,-2.53321 2.2513,-3.37695 6.19008,-3.93879 11.81836,-1.6875 -5.06544,-6.19106 -7.59765,-12.10023 -7.59765,-17.72851 3.37697,0 5.62823,-1.40854 6.7539,-4.22266 0.56281,0 4.64404,-1.96841 12.24219,-5.9082 7.59812,-3.93978 18.71222,-5.91016 33.3457,-5.91016 z m -15.91992,6.33789 c -2.68221,-0.004 -5.53731,0.1346 -8.5625,0.41602 3.93979,2.25129 4.78455,5.06445 2.5332,8.4414 -2.25128,-3.3769 -5.06646,-5.06445 -8.44335,-5.06445 -6.75395,0 -10.13086,4.22168 -10.13086,12.66406 3.93974,3.37697 5.76964,6.19013 5.48828,8.44141 -0.28142,2.25129 -0.7028,3.9408 -1.26563,5.06641 2.25127,2.2513 4.78354,9.56704 7.59766,21.94922 1.12566,0 1.97036,-0.8447 2.5332,-2.53321 -0.56278,-12.38218 -0.28187,-20.54264 0.84375,-24.48242 3.37695,-7.87957 8.16047,-11.81836 14.35156,-11.81836 6.19107,0 11.11702,2.10889 14.77539,6.33008 3.65839,4.22122 4.92449,9.28763 3.79883,15.19726 -1.12566,5.90968 -9.28811,12.24216 -24.48437,18.9961 v 2.53125 c 23.63867,-7.31676 34.33337,-18.99462 32.08203,-35.03516 -1.96989,-14.03544 -12.34168,-21.06885 -31.11719,-21.09961 z m -14.47265,7.16992 c 3.93979,0 5.91015,1.97037 5.91015,5.91016 0,3.37697 -1.97036,5.6283 -5.91015,6.75391 -1.68852,-0.56278 -3.9398,-1.97138 -6.75391,-4.22266 0.56281,-5.62831 2.81412,-8.44141 6.75391,-8.44141 z m 0,0.84376 c -2.25134,0.56284 -3.37696,2.25228 -3.37696,5.0664 0,2.25133 1.12562,3.37695 3.37696,3.37695 2.25128,0 3.65981,-1.12562 4.22265,-3.37695 -0.56278,-2.81412 -1.97137,-4.50357 -4.22265,-5.0664 z m -1.6875,76.82617 c 1.68849,3.37699 3.93979,8.4414 6.7539,15.19531 l -8.44336,53.1875 H 479.6543 c 0.56284,-24.76433 7.59766,-47.55824 21.10547,-68.38281 z m 94.55468,13.50781 c 10.13086,-0.56281 21.66829,0.56282 34.61328,3.37695 -9.00519,23.63865 -20.54266,39.95965 -34.61328,48.96485 z m -81.04687,6.75391 c 6.1911,4.50258 12.80451,6.7539 19.83984,6.7539 7.0353,0 12.80402,-2.25128 17.30664,-6.7539 v 54.875 c -7.87957,2.81417 -15.7591,4.36317 -23.63867,4.64453 -7.87953,0.28136 -14.91437,-1.26758 -21.10547,-4.64453 z m 109.75,20.26171 -8.44141,38.83399 h -5.91015 l 0.84375,-16.88477 z m -18.57227,24.48243 -1.68945,14.35156 H 591.9375 Z m -125.79101,8.44336 h 19.41601 v 3.37695 H 479.6543 Z m 79.35742,0 h 29.54883 v 3.37695 h -29.54883 z m 118.19336,8.4414 h 10.13086 v 4.22071 h -10.13086 z m -183.19922,5.91016 h 130.85742 l -3.37695,8.4414 H 496.53906 Z m 4.2207,17.72851 H 618.10938 L 614.73242,406.5 H 500.75977 Z m 7.59766,17.72852 h 104.68555 c -1.68849,7.87955 -3.93979,23.07681 -6.75391,45.58984 l -95.39844,51.49805 c 2.81406,-15.75911 3.65888,-32.64388 2.5332,-50.6543 -1.12567,-18.01041 -2.81512,-33.48861 -5.0664,-46.43359 z m 100.46484,55.7207 1.68946,28.70313 -87.80079,32.08203 c 2.25134,-6.75392 2.25134,-12.10124 0,-16.04102 z m 0,38.83399 c 2.81412,1.68849 5.20593,7.45719 7.17578,17.30664 1.96992,9.84945 2.95508,21.24835 2.95508,34.19336 l 2.5332,156.18359 H 592.78125 C 553.94628,665.40068 528.0563,606.86686 515.11133,543.26758 Z m -94.23828,8.36328 c 3.16589,-0.15829 4.75,1.97987 4.75,6.41211 0,5.90966 -3.37695,9.98895 -10.13086,12.24023 l 1.6875,-17.72851 c 1.40706,-0.56283 2.63806,-0.87107 3.69336,-0.92383 z m -5.38086,32.16015 c 11.25653,56.28253 35.73799,112.00325 73.44727,167.16016 H 476.27734 Z M 476.27734,724.7793 h 144.36328 l 0.84571,5.06445 H 474.58789 Z"
     id="path8"
     sodipodi:nodetypes="sccccccccsscccsscssccscsccsccccccsccsccsccccscccscscsccccccccscsccccccccsscscscccccccsscccscsccccsssccscssccscssccccccccccccsccsccccccccccccccccccccccccccccccccccccccccscccccccscccccssccsccccccccc" />
  <path
     d="m 310.80611,484.17063 c -6.19106,2.81417 -15.19626,10.41231 -27.0156,22.79448 22.51302,2.81412 37.14648,2.25127 43.90038,-1.68849 -5.62827,-3.9398 -6.75393,-8.16101 -3.37698,-12.66358 -10.13083,2.25131 -14.63343,-0.56281 -13.5078,-8.44241 z m 16.88478,-15.19625 c 6.19107,-5.06543 12.66355,-8.72382 19.41746,-10.97513 15.19629,4.50262 32.9253,6.47252 53.18702,5.90966 54.03125,-14.07061 91.17774,-23.07584 111.43946,-27.0156 l 68.38327,-54.03124 c 15.75915,-32.64388 30.39262,-52.34276 43.90042,-59.09668 15.75915,-11.81933 30.39263,-11.67862 43.90043,0.42214 13.5078,12.10073 12.66357,29.68903 -2.53276,52.76488 l -50.6543,35.45801 v 0.84426 c -28.14128,22.513 -55.71971,44.18176 -82.73533,65.0063 -29.26693,9.00518 -73.73014,13.7892 -133.38964,14.35206 l -16.04052,11.81931 -18.57327,12.66362 c -7.31673,5.06539 -15.4777,4.22116 -24.48293,-2.53271 -10.13086,9.00518 -31.23682,9.56804 -63.31787,1.68848 5.06545,12.38217 12.38219,25.32712 21.95021,38.83492 -8.44238,6.19112 -17.72901,9.28666 -27.85987,9.28666 -0.56281,-15.75914 -3.93977,-30.39261 -10.13086,-43.90041 l -70.07176,31.23685 -5.06543,-26.17142 70.91602,-16.04051 c -4.50261,-16.88479 -11.81935,-30.11122 -21.95021,-39.67922 9.0052,-6.75393 18.85466,-10.13086 29.54836,-10.13086 -0.56285,14.63347 2.25128,28.98554 8.44237,43.05615 23.63868,-29.82976 42.21192,-41.08625 55.71973,-33.76952 z"
     style="fill:#000000;stroke:none;stroke-width:1"
     id="path1" />
  <path
     d="M 651.87839,10.552986 C 646.81296,7.1760327 640.9033,11.115803 634.14942,22.372295 627.95832,33.066 622.33007,40.523449 617.2646,44.74464 c -5.06543,4.221194 -11.81931,9.145912 -20.26168,14.774156 -8.44237,5.628247 -21.38735,16.884753 -38.83495,33.769522 -7.31675,10.130862 -14.07067,21.387372 -20.26176,33.769522 h 70.07176 c 9.00522,-23.07583 14.7742,-39.397769 17.30691,-48.965809 2.53272,-9.568019 4.6433,-17.447571 6.33179,-23.638663 1.68849,-6.191092 7.03537,-14.070645 16.04055,-23.638661 7.31674,-10.693705 8.72378,-17.447612 4.22117,-20.261721 z M 525.24263,188.68727 c 26.45281,-3.37695 51.49853,-1.6885 75.13719,5.0654 L 683.1152,12.241435 678.89403,11.39721 620.64158,138.87719 H 517.64449 Z m -13.5078,3.37694 -10.97509,-66.69482 h 26.17138 c 6.75391,-12.38216 11.81934,-20.82454 15.19629,-25.32715 C 525.24264,87.097242 512.71978,75.559313 504.55882,65.428455 496.39783,55.297591 492.73946,45.307444 493.58369,35.458004 c 0.84427,-9.849438 4.08052,-16.321937 9.70877,-19.417496 5.62825,-3.09553 11.81933,-4.221178 18.57323,-3.376942 6.75391,0.844241 11.81934,5.48755 15.19629,13.929933 0.56284,9.568044 -1.26635,15.618424 -5.48755,18.151139 -4.22121,2.532717 -8.58309,3.658359 -13.08571,3.376942 -4.50257,-0.281418 -6.19105,-2.39202 -5.0654,-6.331788 0.56283,-2.251294 2.81412,-2.5327 6.75388,-0.844224 6.19109,-1.125658 9.56806,-3.939799 10.13091,-8.442412 0.56278,-5.065429 -0.98499,-8.723792 -4.64336,-10.975085 -3.65837,-2.251294 -7.59816,-2.954821 -11.81935,-2.11058 -4.22121,0.844241 -7.45744,2.954832 -9.70873,6.331788 -2.25128,3.376952 -3.09554,8.301672 -2.5327,14.774157 0.56283,6.472484 4.36194,13.929921 11.39722,22.372301 7.03533,8.442382 18.43255,18.291835 34.19165,29.548357 3.37693,-4.502611 9.2866,-10.834402 17.72901,-18.995361 8.44237,-8.160965 14.63347,-13.648514 18.57323,-16.462649 3.93976,-2.814137 9.84945,-6.753922 17.72901,-11.819353 7.87955,-5.065429 13.64852,-9.990149 17.30687,-14.774157 3.65839,-4.784008 6.33179,-9.145911 8.02028,-13.085709 5.62824,-10.1308604 10.55295,-15.7591066 14.77416,-16.88473952 4.2212,-1.12566052 8.86454,-1.382e-5 13.92993,3.37693952 6.1911,3.9397698 9.42736,8.160962 9.70877,12.663576 0.28136,4.502616 -3.23627,10.693691 -10.553,18.57323 -2.81412,3.376954 -5.9097,7.879566 -9.28663,13.507842 -3.37694,5.628247 -7.3167,18.291812 -11.81931,37.990683 L 677.20554,1.2663504 693.24604,8.8644953 612.19921,198.81813 Z"
     style="fill:#000000;stroke:none;stroke-width:1"
     id="path1-9" />
  <g
     id="g12"
     transform="translate(-3.7235201)">
    <path
       style="fill:#000000;stroke:none;stroke-width:1"
       d="m 180.57573,87.012275 -21.10547,0.845703 c -4.50258,0 -9.00519,2.532197 -13.50781,7.597657 -1.68847,1.12561 -3.23553,2.813173 -4.64258,5.064455 -1.40708,2.2513 -2.11133,4.50256 -2.11133,6.7539 0,2.25128 0.56379,3.94074 1.68945,5.06641 h 4.22071 v -1.68945 c 1.12564,0.56289 1.97035,0.8457 2.5332,0.8457 0.56281,4.50261 1.68847,10.41179 3.37695,17.72852 -1.98633,4.70145 -4.14604,19.05584 -4.14604,28.34164 l 21.35612,-16.25781 36.82117,0.0294 c 0,-16.32195 -2.81511,-34.20491 -8.44336,-41.24024 -5.62825,-7.035297 -10.97558,-11.397425 -16.04101,-13.085935 z m 6.80843,17.070395 c 4.78404,6.75391 7.22258,15.62223 7.78539,30.81852 -21.95019,0 -30.31155,-3.2062 -38.63054,11.20272 0,-4.50261 0.63824,-12.58226 2.65784,-16.62191 l -4.03465,-20.05355 -6.66655,-3.84196 1.6875,-1.68945 -1.10215,-3.19132 c 10.56777,-11.50438 29.02561,-9.720814 38.30316,3.37695 z"
       id="path4"
       sodipodi:nodetypes="sccssccccccccscsscccccccs" />
    <path
       style="fill:#000000;stroke:none;stroke-width:1"
       d="m 179.64699,278.41992 c -15.84008,-18.10297 -26.28332,-37.62417 -26.28332,-63.54957 0,-35.33663 18.6542,-61.61024 32.27604,-67.7755 4.21927,-1.90965 9.38089,-0.70653 8.68824,-3.29153 h -21.26229 c -24.78144,20.07611 -32.19546,46.17169 -32.19546,83.99516 0,18.45055 2.86139,31.20307 6.31665,43.18852 14.36095,2.8074 18.19577,5.21642 29.53337,13.31468 z m -10.89316,29.87556 c 1.83562,-0.75584 3.67122,-1.24173 5.50683,-1.4577 l 1.4577,-7.28844 c -6.69458,-8.31423 -20.13772,-14.46892 -40.32943,-18.46407 -6.69458,-21.27148 -9.34002,-41.46319 -7.93631,-60.57512 1.4037,-19.00395 5.07492,-34.98455 11.01366,-47.94179 5.83076,-12.95726 13.6591,-23.37704 23.485,-31.25936 h 42.97942 c 0,8.31422 -3.02791,12.79527 -8.96666,12.79527 -5.83075,0 -12.25539,5.23689 -19.27389,15.71066 -6.91053,10.3658 -10.3658,23.75495 -10.3658,40.16746 0,16.4125 3.07735,30.17958 9.23204,41.30121 6.15469,11.12164 11.76949,18.78801 16.84441,22.99911 l -1.78161,32.55507 c 2.05156,0.21597 4.48105,0.70186 7.28844,1.4577 6.04671,1.07976 9.50198,3.83317 10.3658,8.26024 0,1.4037 -0.43191,2.53746 -1.29572,3.40128 -3.99516,0 -6.85655,2.80739 -8.58419,8.4222 -1.72762,5.50683 -3.99514,8.26026 -6.80254,8.26026 0.53988,4.643 1.83559,13.06521 3.88716,25.26662 2.05157,12.09343 2.86139,26.56234 2.42949,43.40675 -1.4037,10.25783 -6.04671,15.38674 -13.92903,15.38674 -7.5584,0 -12.03944,-5.12891 -13.44315,-15.38674 -0.53988,-16.84441 0.26995,-31.31332 2.42948,-43.40675 2.05157,-12.20141 3.2933,-20.62362 3.72522,-25.26662 -2.69943,0 -4.91295,-2.75343 -6.6406,-8.26026 -1.8356,-5.61481 -4.69699,-8.4222 -8.58416,-8.4222 -0.9718,-0.86382 -1.4577,-1.99758 -1.4577,-3.40128 0.9718,-4.42707 3.88718,-7.18048 8.74614,-8.26024 z"
       id="path1-8"
       sodipodi:nodetypes="cssccsccccccccccscsscccccccccscccccccc" />
    <circle
       style="fill:none;fill-rule:evenodd;stroke:#613583;stroke-width:8;stroke-linecap:round;stroke-miterlimit:5;stroke-dasharray:none"
       id="path9"
       cx="167.47301"
       cy="68.15004"
       r="18.91095" />
    <circle
       style="fill:#1a5fb4;fill-rule:evenodd;stroke:none;stroke-width:8.00001;stroke-linecap:round;stroke-miterlimit:5;stroke-dasharray:none"
       id="path12"
       cx="163.35176"
       cy="100.93501"
       r="5.6879807" />
  </g>
</svg>
