<?xml version="1.0" encoding="UTF-8" standalone="no"?>
<svg
   width="900"
   height="1000"
   version="1.1"
   id="svg1"
   sodipodi:docname="137EE.svg"
   inkscape:version="1.4.3 (0d15f75, 2025-12-25)"
   xmlns:inkscape="http://www.inkscape.org/namespaces/inkscape"
   xmlns:sodipodi="http://sodipodi.sourceforge.net/DTD/sodipodi-0.dtd"
   xmlns:xlink="http://www.w3.org/1999/xlink"
   xmlns="http://www.w3.org/2000/svg"
   xmlns:svg="http://www.w3.org/2000/svg">
  <defs
     id="defs1" />
  <sodipodi:namedview
     id="namedview1"
     pagecolor="#ffffff"
     bordercolor="#666666"
     borderopacity="1.0"
     inkscape:showpageshadow="2"
     inkscape:pageopacity="0.0"
     inkscape:pagecheckerboard="0"
     inkscape:deskcolor="#d1d1d1"
     showguides="true"
     inkscape:zoom="0.18875"
     inkscape:cx="331.12583"
     inkscape:cy="686.09271"
     inkscape:window-width="1680"
     inkscape:window-height="998"
     inkscape:window-x="-8"
     inkscape:window-y="-8"
     inkscape:window-maximized="1"
     inkscape:current-layer="svg1">
    <sodipodi:guide
       position="0,0"
       orientation="0,-1"
       id="guide1"
       inkscape:locked="false" />
  </sodipodi:namedview>
  <path
     style="fill:#000000;stroke:none;stroke-width:1.08132"
     d="m 402.43209,308.57271 c -0.68267,0.0386 -1.05768,1.76177 -0.68003,4.02747 0.67392,4.04372 -3.46927,6.25161 -8.27033,0.55121 -4.72133,-5.60568 -8.09737,-5.76426 -8.28304,0.89546 2.20525,-2.20524 4.24033,-0.71019 7.1806,2.96516 6.50208,8.12769 13.46028,0.91355 12.12885,-4.41183 -0.73374,-2.93497 -1.51039,-4.05934 -2.07605,-4.02747 z"
     id="path6" />
  <path
     style="fill:#000000;stroke:none;stroke-width:1.08132"
     d="m 420.42156,264.46495 c -3.7184,0.11484 -7.18534,1.09157 -10.40129,2.92926 l -8.81944,8.82155 v 6.61457 l 3.30731,-1.10243 c 13.23126,6.61565 27.56463,6.61565 43.0011,0 l 15.43614,4.40972 v -8.81943 l -14.33371,-1.10243 c -10.61255,-8.08579 -20.00959,-12.00351 -28.19011,-11.75081 z m -1.57971,5.13411 c -2.9403,3.6754 -2.9403,6.98372 0,9.92399 -3.67535,-0.73506 -6.98369,-1.83717 -9.92399,-3.30729 0.7351,-2.94029 4.04343,-5.14652 9.92399,-6.6167 z m 9.92397,2.20486 13.23127,7.71913 c -5.14551,0.73505 -9.92539,1.10243 -14.3358,1.10243 3.67539,-2.20519 4.04488,-5.14623 1.10453,-8.82156 z"
     id="path5" />
  <path
     style="fill:#000000;stroke:none;stroke-width:1.08132"
     d="m 516.5104,257.19355 c -1.46582,0.0342 -3.14162,0.29789 -5.04965,0.82788 -14.05003,3.90289 -27.47134,26.43692 -23.15525,33.63045 -9.47895,5.41656 -14.21548,15.0657 -3.85851,19.84586 10.69518,4.93629 34.16974,-22.80973 38.5914,-34.17955 3.64607,-9.37579 3.73278,-20.36466 -6.52799,-20.12464 z m -4.22599,8.77085 c 3.60364,-0.18091 5.85613,2.20632 5.23972,5.2883 -2.31494,11.57495 -12.02059,24.00804 -19.84587,27.56498 -4.04287,1.83769 -4.04287,8.8e-4 0,-5.51216 4.04287,-5.51302 4.04287,-7.34981 0,-5.51214 -4.04287,1.8377 -4.96124,0.36612 -2.75606,-4.41183 5.8645,-12.70627 12.72896,-17.18451 17.36221,-17.41715 z m -23.97891,33.4045 c 3.67538,2.20518 4.04275,4.41147 1.10242,6.6167 -2.94025,2.20519 -4.77706,2.20519 -5.51213,0 -0.73509,-2.20523 0.73437,-4.41152 4.40971,-6.6167 z"
     id="path3" />
  <path
     style="fill:#000000;stroke:none;stroke-width:1.08132"
     d="m 815.41077,289.38503 c -11.76113,86.00321 -19.47867,135.31468 -19.47867,161.04216 -61.01077,-9.55591 -115.40543,-12.4969 -163.185,-8.82156 -30.13786,-23.52223 -63.21717,-37.85558 -99.23563,-43.00111 l -1.10243,-40.79627 c 18.37679,2.94027 35.28384,-4.0438 50.72024,-20.95038 15.43644,-16.90666 22.78789,-46.3081 22.05284,-88.20709 0,-32.34307 -14.33341,-54.57894 -43.00113,-66.70758 -28.66772,-12.12862 -59.72445,-15.06963 -93.17013,-8.82156 -33.44568,6.2481 -57.15308,33.26169 -71.11941,81.04128 -8.82085,10.29093 -18.74381,24.99168 -29.76985,44.10355 -5.14551,11.76112 -4.96183,18.56152 0.55121,20.39918 5.51303,1.83766 9.73979,4.22552 12.68006,7.16581 -7.90263,4.74152 -4.69597,10.7041 2.11827,12.11194 -0.48952,0.39911 -1.56312,1.3247 -3.22071,2.77509 -2.94026,2.57271 -2.38925,4.96058 1.65366,7.16579 4.04287,2.2052 5.87971,8.45243 5.51215,18.74342 -0.36751,10.29099 7.53492,15.43825 23.70647,15.43825 8.08573,0.73507 15.06982,0.3677 20.95039,-1.10242 l 4.40972,24.25556 c -37.48855,2.94028 -73.50678,16.17157 -108.05506,39.69382 l -1.10242,-1.10242 c -60.27575,-4.41046 -120.91978,-1.83681 -181.93054,7.71913 0.73505,-25.72747 -6.61514,-76.14138 -18.37625,-162.14459 l -32.711204,4.53144 -9.554664,130.04816 c -4.410425,52.92502 12.496586,79.75503 50.720238,80.49009 38.2236,0.73506 105.48224,3.30654 201.7764,7.717 5.14553,32.34305 25.3588,79.02108 60.64213,140.03187 5.88056,46.30943 5.24067,97.88173 -2.84514,146.39632 l 28.66741,6.61459 c 4.41044,-61.01082 3.21356,-115.15462 -2.66702,-154.11334 -33.07814,-67.62641 -49.61783,-130.10726 -49.61783,-187.4427 0,-19.84693 13.96602,-30.13932 41.8987,-30.87439 33.81321,0 50.35284,-9.18823 49.6178,-27.56498 -1.47015,-27.1976 -13.59938,-39.50838 -36.38653,-36.93563 -22.78719,2.5727 -32.34276,-4.22764 -28.66741,-20.39918 13.96634,-7.35067 18.92781,-12.67955 14.88491,-15.98737 -4.04284,-3.3078 -11.20851,-5.33039 -21.4995,-6.06545 0,-5.88061 -4.77776,-11.02572 -14.33368,-15.43614 9.55592,-22.78714 18.74417,-38.59 27.56497,-47.41085 9.55595,-5.14548 19.47886,-5.14548 29.76983,0 10.29098,5.14549 20.58127,8.45176 30.87228,9.92189 v -6.61459 c -6.61562,0 -15.06913,-2.94104 -25.36014,-8.82157 -10.29098,-5.88057 -20.94868,-6.61528 -31.97469,-2.20484 4.41041,-6.61565 8.08613,-11.76081 11.02643,-15.43615 27.19758,1.47013 49.24975,8.45211 66.15636,20.9483 -0.73507,10.29099 3.49163,10.66045 12.68005,1.10453 18.54384,-19.28557 43.94715,-8.72635 30.87227,18.1922 -6.24805,12.86377 -14.51789,23.7051 -24.8089,32.52594 -10.29098,8.82086 -12.86249,17.64171 -7.717,26.46255 5.14552,8.82082 9.18856,16.5396 12.12884,23.15525 -0.73505,28.66773 2.20379,46.67684 8.81943,54.02751 6.61561,7.35075 20.21412,11.94486 40.79626,13.78252 20.58197,1.83766 30.87438,10.84223 30.87438,27.01376 -7.35065,15.43648 -15.62048,46.86054 -24.8089,94.27256 -9.18837,47.41201 -14.70093,80.49131 -16.53857,99.23562 -1.83787,18.74424 2.18962,95.17452 19.31113,144.04218 l 25.34366,-13.93655 c -14.70143,-56.96785 -11.39308,-147.19706 9.92398,-270.68885 97.76432,-3.67556 165.75765,-5.69604 203.98128,-6.06335 38.22362,-0.36759 55.13069,-27.38122 50.72023,-81.04132 L 848.12196,293.91647 Z M 482.03516,190.24732 c 16.67686,-1.03368 36.04086,1.34332 58.09301,7.132 29.4028,7.71825 44.10354,25.17635 44.10354,52.37389 -3.67538,36.01847 -12.3125,60.82582 -25.91132,74.42458 -13.59877,13.59882 -25.17486,16.35617 -34.73078,8.27036 -11.02606,-6.6156 -8.63825,-17.82645 7.16579,-33.63047 30.09435,-30.0943 17.109,-79.94639 -40.24504,-51.26933 -8.82084,-10.29102 -30.13831,-18.00975 -63.95152,-23.15526 6.6156,-16.90659 19.84693,-27.56642 39.69384,-31.97683 4.96169,-1.1026 10.22353,-1.82438 15.78248,-2.16894 z m -93.75091,139.32015 c 0.71075,-0.0154 1.52306,0.0227 2.44139,0.12458 3.30779,0.36752 7.16722,0.91859 11.57763,1.65367 4.41043,0.73505 6.24718,1.46973 5.51215,2.20486 h -20.95039 c -3.55038,-1.18356 -3.55601,-3.87549 1.41922,-3.98311 z m 19.53117,6.18797 c -3.27115,2.18074 -10.52985,6.61668 -15.43613,6.61668 -4.2972,0 -7.05237,-0.66683 -3.30728,-4.41182 z"
     id="path1"
     sodipodi:nodetypes="cccccscssccsccssscccccccccscccccsccscscccsccscccsssscsscsccccccccsscscsccsssssccscscc" />
  <path
     style="fill:#1a5fb4;stroke:none;stroke-width:50.5799"
     d="m 225.15266,628.31197 c -49.20273,0.59283 -70.54234,20.74909 -64.02151,60.46693 l 25.78441,185.84399 c -36.75385,9.48486 -53.94394,37.64247 -51.57268,84.47401 -17.19132,2.37114 -32.75322,6.66969 -46.684114,12.89413 -13.930873,6.2243 -28.009702,8.89105 -42.237016,8.00172 C 32.194471,979.10353 23.007755,985.77265 18.85812,1000 h 740.70806 c -16.00571,-29.04741 -37.94087,-40.60669 -65.80269,-34.67869 -27.86179,5.92812 -46.6819,-6.52074 -56.46315,-37.34651 -9.78129,-30.82585 -26.52848,-37.05019 -50.24066,-18.67328 22.52633,-43.86745 23.416,-89.51291 2.66789,-136.93728 L 561.27129,774.14137 423.71372,805.2145 285.61764,659.43409 c -23.11935,-20.74816 -43.27367,-31.12212 -60.46498,-31.12212 z m -3.55848,55.13115 48.69693,-2.28766 127.77196,130.23151 C 353.61706,821.84486 239.37881,860.3948 239.37881,860.3948 243.52844,772.06701 237.5999,713.08336 221.59418,683.44312 Z m 345.01301,111.14901 c 13.0417,50.38835 5.04023,94.25874 -24.00711,131.60537 -43.27468,25.49058 -95.59116,29.34235 -156.94641,11.55824 -61.35513,-17.78412 -119.59639,-13.93041 -174.72716,11.56019 5.33522,-20.15537 50.9807,-52.46448 136.93727,-96.92478 z"
     id="path4"
     sodipodi:nodetypes="ccccssccsscccccccccccccsccc" />
  <path
     d="m 517.15632,13.036937 c -23.19393,0 -34.78712,16.812395 -34.78712,50.282235 v 38.686548 h -16.72644 c -6.45916,0 -9.74863,4.54663 -9.74863,13.64803 0,9.10148 3.28947,13.64805 9.74863,13.64805 h 16.72644 v 41.69679 c -3.05488,-0.0893 18.62872,12.71835 30.88772,-0.137 V 64.140107 c 0,-13.505373 2.85053,-20.318124 8.72241,-20.318124 5.8719,-1.1e-5 8.82505,6.812751 8.82505,20.318124 h 20.31815 c 0.58717,-34.057028 -10.77209,-51.10317 -33.96621,-51.10317 z"
     style="fill:#000000;stroke:none;stroke-width:1.08132"
     id="path1-2"
     sodipodi:nodetypes="sscssscccssccs" />
  <path
     d="m 840.17007,105.87627 c 18.78711,-39.139879 23.35374,-63.928581 13.69903,-74.366095 -9.6543,-10.437107 -19.309,-10.437107 -28.96329,0 -9.65471,10.437514 -4.56661,35.226216 15.26426,74.366095 z M 825.297,251.47678 831.55953,145.79894 c -25.57152,-1.56398 -48.27272,2.34805 -68.10358,11.74223 -5.21877,-16.17816 -5.21877,-31.83403 0,-46.96802 20.87463,8.3496 42.53206,11.48086 64.97231,9.39335 -31.83402,-48.533233 -37.96585,-83.237565 -18.39592,-104.112193 19.56993,-20.8746203 39.00961,-21.1355637 58.31862,-0.784039 19.30898,20.352754 13.56836,55.578959 -17.22151,105.677812 19.83087,-0.52268 41.48831,-4.43553 64.97232,-11.74179 5.21877,15.13399 5.4793,30.00705 0.78408,44.61956 -22.96217,-7.30625 -45.66335,-9.91561 -68.1036,-7.82813 l 8.61053,106.46063 -16.04789,9.53025 z"
     style="fill:#000000;stroke:none;stroke-width:40.8354"
     id="path1-3"
     sodipodi:nodetypes="cssccccccscccccccc" />
  <path
     d="m 910.57921,188.76403 c -13.29225,27.19042 -30.17379,46.59371 -50.71564,58.3763 -20.54773,11.78257 -34.20858,8.40214 -40.85188,-10.32912 -4.21887,-16.31402 -12.08035,-25.66866 -23.56035,-28.08532 6.04294,32.02372 12.71002,58.90691 19.95943,80.65914 l 32.71119,4.53144 c 19.93577,-15.10597 35.26644,-28.92966 45.83728,-41.31595 10.57703,-12.38688 18.09975,-25.44581 22.63339,-39.34319 4.51606,-13.89736 2.55522,-22.04574 -5.94188,-24.463 z"
     style="fill:#000000;stroke:none;stroke-width:59.4208"
     id="path1-24"
     sodipodi:nodetypes="cccccccccc" />
  <use
     x="0"
     y="0"
     xlink:href="#path1-3"
     id="use3"
     transform="matrix(-1,0,0,1,942.42934,0)" />
  <use
     x="0"
     y="0"
     xlink:href="#path1-24"
     id="use4"
     transform="matrix(-1,0,0,1,942.42934,0)" />
</svg>
