<?xml version="1.0" encoding="UTF-8" standalone="no"?>
<svg
   width="1000"
   height="1000"
   version="1.1"
   id="svg1"
   sodipodi:docname="137ED.svg"
   inkscape:version="1.4.3 (0d15f75, 2025-12-25)"
   xmlns:inkscape="http://www.inkscape.org/namespaces/inkscape"
   xmlns:sodipodi="http://sodipodi.sourceforge.net/DTD/sodipodi-0.dtd"
   xmlns="http://www.w3.org/2000/svg"
   xmlns:svg="http://www.w3.org/2000/svg">
  <defs
     id="defs1" />
  <sodipodi:namedview
     id="namedview1"
     pagecolor="#ffffff"
     bordercolor="#666666"
     borderopacity="1.0"
     inkscape:showpageshadow="2"
     inkscape:pageopacity="0.0"
     inkscape:pagecheckerboard="0"
     inkscape:deskcolor="#d1d1d1"
     inkscape:zoom="0.3775"
     inkscape:cx="258.27815"
     inkscape:cy="573.50993"
     inkscape:window-width="1680"
     inkscape:window-height="998"
     inkscape:window-x="-8"
     inkscape:window-y="-8"
     inkscape:window-maximized="1"
     inkscape:current-layer="svg1"
     showguides="true">
    <sodipodi:guide
       position="0,1000"
       orientation="0,-1"
       id="guide1"
       inkscape:locked="false" />
    <sodipodi:guide
       position="0,0"
       orientation="0,-1"
       id="guide2"
       inkscape:locked="false" />
    <sodipodi:guide
       position="1503.5334,841.18786"
       orientation="0,-1"
       id="guide3"
       inkscape:locked="false" />
  </sodipodi:namedview>
  <path
     id="path5"
     style="fill:#000000;stroke:none;stroke-width:50.2397"
     d="m 271.55766,105.07537 c -12.01975,19.84837 -24.95117,35.63458 -38.7929,47.35759 -13.84171,11.72306 -22.6801,41.95107 -26.51562,90.68627 -14.12588,75.53498 -13.22298,146.92722 -13.43087,264.83303 38.39664,12.07677 83.94595,11.42529 133.16724,7.33069 49.22126,-4.09469 102.19607,-0.46701 111.02833,7.77641 0.58882,24.14148 5.1517,43.42424 13.68953,57.85023 8.53783,14.42595 29.29346,79.04908 62.2672,193.86829 l -152.7979,-113.0524 c -22.96383,-20.60859 -42.98215,-30.91335 -60.05783,-30.91335 -48.87176,0.58882 -70.06905,20.60891 -63.59209,60.05957 l 25.61197,184.59395 c -36.50661,9.42106 -53.58098,37.38966 -51.22569,83.90617 -17.07566,2.3552 -32.53286,6.62429 -46.37003,12.80686 -13.83717,6.18244 -27.82147,8.83278 -41.95308,7.94945 C 108.45433,979.24489 99.328527,985.86838 95.206809,1000 H 830.93275 c -15.89804,-28.85198 -37.68483,-40.33399 -65.35922,-34.44586 -27.67438,5.88823 -46.3694,-6.47725 -56.08485,-37.09568 -9.7155,-30.61848 -26.34988,-36.80028 -49.90254,-18.54696 22.3748,-43.57236 23.25837,-88.91096 2.6498,-136.0163 0,-98.68849 11.97946,-179.06282 36.21299,-251.72028 8.83228,-7.65464 63.43713,-5.58009 112.61719,0.16081 49.18004,5.74082 92.92706,3.47634 131.23929,-6.79584 13.59601,-87.48011 5.7686,-189.9953 -0.21324,-267.17694 0.63332,-48.39712 -5.14411,-79.27143 -17.33044,-92.62297 -12.1863,-13.35149 -23.26311,-30.23927 -33.23281,-50.66461 -11.6454,1.42363 -9.44736,19.35337 6.59657,53.78811 16.04385,34.43474 16.52116,48.74908 1.43153,42.9424 -4.49413,-8.02489 -9.13489,-18.47364 -13.92376,-31.34509 -4.78889,-12.87143 -10.74465,-17.87464 -17.86702,-15.0092 6.83082,27.6268 9.90014,48.11362 9.20966,61.46138 -0.69046,13.34776 4.38592,23.8777 15.22772,31.58804 10.84164,7.7104 17.43973,19.7486 19.40517,30.90288 2.59827,14.74567 0.74048,43.86484 -9.67637,81.61468 -10.41682,37.74982 -16.7592,74.35791 -21.71415,103.59452 -38.71538,-7.22995 -86.19373,-18.16312 -149.0906,-20.16202 -7.7497,-10.11766 -16.87661,-18.38586 -27.38086,-24.80446 V 250.1423 c 0,-31.20728 -13.6887,-52.1107 -41.06864,-62.70939 -27.37995,-10.59868 -58.58821,-13.54265 -93.62276,-8.83214 -35.03459,4.71054 -59.9114,30.32466 -74.63181,76.84116 -8.24339,10.59869 -17.37094,25.02471 -27.38085,43.278 -5.88814,12.36515 -6.3281,19.28425 -1.32316,20.75631 5.00492,1.47206 9.27221,3.67872 12.80512,6.62279 -5.47359,4.56131 -9.32213,10.51607 6.18406,11.48195 -4.50438,1.36741 -13.85131,6.67488 -5.74184,11.04148 3.82731,2.06086 5.74184,8.39051 5.74184,18.98919 -23.78651,29.45446 -49.84218,41.08261 -88.83525,35.77251 -0.43043,-35.60476 -46.25919,-15.41524 -25.87592,12.42233 18.88722,25.79436 105.73433,7.23779 132.37545,-33.18038 12.36514,0 21.49096,-0.5895 27.3791,-1.76713 l 4.41694,28.26353 c -53.58229,0 -97.15587,13.24877 -130.71842,39.74549 -52.99347,-3.1266 -106.35719,4.67505 -145.33786,10.30213 -4.92863,-28.32829 -10.87481,-64.03875 -19.52928,-102.23116 -8.65448,-38.19243 -7.53727,-63.03328 -4.37326,-79.03128 2.32922,-11.77715 9.23798,-23.69371 21.12512,-30.24217 11.88718,-6.54842 18.20277,-16.34868 18.94549,-29.40142 0.7427,-13.0527 5.94296,-33.24874 15.60001,-60.58919 -7.32164,-2.96653 -13.9069,1.53959 -19.75476,13.51826 -5.8479,11.97867 -11.42864,21.7216 -16.74314,29.22838 -15.61741,4.18466 -13.63598,-9.99971 5.94635,-42.55261 19.5823,-32.55288 23.65891,-50.15103 12.22832,-52.79357 z m 324.63391,87.53481 c 13.46579,0.48669 28.56201,2.8834 45.28807,7.18912 29.73526,7.6546 44.60291,25.02457 44.60291,52.11013 V 489.36684 H 615.69113 V 329.10017 c 0,-7.89847 5.63033,-17.72925 17.3986,-29.49756 30.28415,-30.28417 17.64569,-78.40092 -39.7455,-50.343 -9.42105,-10.00985 -30.91226,-17.66456 -64.47478,-22.96391 6.47698,-16.48684 19.4301,-26.93945 38.86106,-31.35556 4.85774,-1.10404 10.03709,-1.83016 15.53883,-2.17964 4.12631,-0.2621 8.43363,-0.31255 12.92223,-0.15032 z m -76.15425,49.58268 c 27.67433,1.76647 50.0489,8.83336 67.12459,21.19853 -0.58883,10.00985 3.6802,10.30376 12.80687,0.88268 18.29753,-18.88771 45.97279,-8.34141 27.36192,16.18892 -21.81029,28.74737 -30.52563,22.44945 -30.52563,48.93084 v 177.70721 h 82.47116 c -32.59749,85.96465 -41.7648,177.30073 -45.30382,268.55953 l -83.02174,18.54872 C 507.96708,654.6598 482.20514,579.14417 473.6673,567.66226 c -8.53784,-11.48193 -11.04012,-45.78191 -7.50722,-102.89711 -1.17762,-19.43091 14.1317,-28.99844 45.9278,-28.70401 31.79606,0.2944 47.69492,-10.15645 47.69492,-31.35382 0,-25.90791 -10.89426,-37.68555 -32.68047,-35.33029 -21.78622,2.35528 -30.91199,-4.70991 -27.37909,-21.19678 12.95398,-7.06578 17.51686,-12.36426 13.68954,-15.89715 -3.8273,-3.53292 -10.74644,-5.59528 -20.75632,-6.18407 0,-5.88818 -5.00455,-10.89273 -15.01445,-15.01445 10.0099,-22.37501 19.72518,-37.97824 29.14624,-46.81051 9.42107,-4.71048 19.28418,-4.56269 29.58843,0.44222 10.30431,5.00495 20.46128,8.39056 30.47115,10.15705 v -7.06676 c -6.47693,-0.58882 -14.86722,-3.68059 -25.17151,-9.27436 -10.30427,-5.59375 -20.75689,-6.32933 -31.35558,-2.20759 4.12169,-6.477 7.36128,-11.18766 9.71658,-14.13177 z m 2.5432,23.57741 c -3.53706,0.0575 -7.08443,0.9159 -10.49264,2.92075 l -9.71483,7.94769 v 7.06677 h 4.4152 c 12.36513,6.47696 26.49725,6.47696 42.39529,0 l 15.01447,3.53249 v -7.94944 l -14.13177,-1.76538 c -6.35959,-4.89199 -16.87456,-11.92531 -27.48572,-11.75288 z m -3.42588,5.56882 c -1.76646,2.94407 -1.76646,6.47753 0,10.59926 l -8.8339,-4.4152 c 1.17765,-2.35525 4.1234,-4.4176 8.8339,-6.18406 z m 12.36463,1.76713 12.36465,7.065 c -5.29936,1.17763 -10.30396,1.76713 -15.01447,1.76713 4.12168,-1.76643 5.00508,-4.71043 2.64982,-8.83213 z m -26.5471,36.07664 c -0.12362,-0.002 -0.25353,0.0443 -0.39153,0.13634 -0.88319,0.58878 -1.32491,1.91211 -1.32491,3.97297 0,2.06085 -0.88339,3.38589 -2.64981,3.97472 -1.76647,0.58884 -3.67925,-0.44065 -5.74009,-3.09029 -2.06087,-2.64969 -3.68154,-3.97472 -4.85917,-3.97472 -1.17763,0 -2.05929,0.44169 -2.64806,1.32491 -0.58885,0.88323 -0.58885,2.20827 0,3.97472 1.76642,-1.76645 3.97308,-1.03087 6.62278,2.20759 2.64966,3.2385 5.44757,4.12185 8.39167,2.64983 2.94408,-1.47205 4.26916,-3.82828 3.97472,-7.06676 -0.24839,-2.73247 -0.70802,-4.10156 -1.3756,-4.10931 z m -15.66816,21.04297 c 0.38305,-0.0115 21.59522,2.36147 20.13404,3.82264 h -21.19678 c -3.14088,-1.04703 -2.54564,-3.71331 1.06274,-3.82264 z m 19.25137,5.58977 c -2.58862,2.58865 -10.76485,6.0026 -15.01447,7.06501 -6.10678,0 -5.21058,-1.8545 -2.64981,-4.41519 z M 296.58059,685.57208 h 37.98011 l 169.57773,119.23471 -189.89357,56.52709 c 4.12172,-87.73364 -1.76623,-146.32096 -17.66427,-175.7618 z m 342.69146,110.40258 c 12.95398,50.0494 5.00536,93.62302 -23.8466,130.71842 -42.98359,25.31915 -94.9474,29.14645 -155.88994,11.48197 -60.94242,-17.6645 -118.79252,-13.8372 -173.55244,11.48194 5.29932,-20.0198 50.63794,-52.11135 136.01631,-96.27256 z"
     sodipodi:nodetypes="csccscsccccccssccsscccsccscscscsssscccsssccsccsccscccccsssscscscsssccssccsssccsssccccscssscscccsccsccsccccccccsccccccccccssssscssscsccscccccccccccsccc" />
  <path
     d="m 598.76313,78.313521 c -14.09283,-28.9506 -17.5184,-47.286064 -10.27607,-55.006383 7.242,-7.720017 14.4843,-7.720017 21.72631,0 7.2423,7.720319 3.42556,26.055783 -11.45024,55.006383 z m 11.15679,107.696369 -4.69773,-78.16675 c 19.18204,-1.15685 36.21095,1.73678 51.08674,8.68536 3.91476,-11.9665 3.91476,-23.546683 0,-34.740831 -15.65875,6.175942 -31.9047,8.492045 -48.73786,6.947968 C 631.4508,52.83706 636.0505,27.1673 621.37044,11.726958 606.69039,-3.7133765 592.10806,-3.9063878 577.62373,11.147029 c -14.48431,15.054325 -10.17807,41.110101 12.91842,78.166732 -14.87579,-0.386619 -31.12174,-3.280832 -48.73788,-8.685064 -3.91476,11.194173 -4.11021,22.195323 -0.58816,33.003763 17.22468,-5.40421 34.25358,-7.33428 51.08675,-5.79023 l -6.45904,78.74575 z"
     style="fill:#000000;stroke:none;stroke-width:30.4176"
     id="use3"
     sodipodi:nodetypes="cssccccccsccccccc" />
</svg>
