<?xml version="1.0" encoding="UTF-8" standalone="no"?>
<svg
   width="900"
   height="1000"
   version="1.1"
   id="svg1"
   sodipodi:docname="137EC.svg"
   inkscape:version="1.4.3 (0d15f75, 2025-12-25)"
   xmlns:inkscape="http://www.inkscape.org/namespaces/inkscape"
   xmlns:sodipodi="http://sodipodi.sourceforge.net/DTD/sodipodi-0.dtd"
   xmlns="http://www.w3.org/2000/svg"
   xmlns:svg="http://www.w3.org/2000/svg">
  <defs
     id="defs1" />
  <sodipodi:namedview
     id="namedview1"
     pagecolor="#ffffff"
     bordercolor="#666666"
     borderopacity="1.0"
     inkscape:showpageshadow="2"
     inkscape:pageopacity="0.0"
     inkscape:pagecheckerboard="0"
     inkscape:deskcolor="#d1d1d1"
     showguides="true"
     inkscape:zoom="0.3775"
     inkscape:cx="788.07947"
     inkscape:cy="814.56954"
     inkscape:window-width="1680"
     inkscape:window-height="998"
     inkscape:window-x="-8"
     inkscape:window-y="-8"
     inkscape:window-maximized="1"
     inkscape:current-layer="svg1">
    <sodipodi:guide
       position="0,0"
       orientation="0,-1"
       id="guide1"
       inkscape:locked="false" />
  </sodipodi:namedview>
  <path
     style="fill:#000000;stroke:none;stroke-width:1"
     d="m 858.45312,107.51367 c -3.14404,0.16995 -6.49943,1.2751 -10.06835,3.31445 -7.13804,4.07878 -9.00854,7.81778 -5.60938,11.2168 8.1574,10.8767 13.59709,22.94317 16.31641,36.19922 2.71919,13.25598 -7.1e-4,29.74101 -8.15821,49.45508 -10.19694,-18.35446 -13.76608,-33.99009 -10.70703,-46.90625 3.05912,-12.91608 0.16938,-20.39416 -8.66797,-22.43359 -14.2757,29.23122 -14.2757,66.28 0,111.14648 -10.87672,79.53605 -16.31445,131.2013 -16.31445,154.99414 -56.42298,-8.83734 -106.72734,-11.55717 -150.91406,-8.1582 -27.8716,-21.75344 -58.46346,-35.00898 -91.77344,-39.76758 l -1.01953,-37.72852 c 16.99491,2.71917 32.6306,-3.73972 46.90625,-19.375 14.27567,-15.63533 21.07431,-42.82588 20.39453,-81.57422 0,-29.91098 -13.25557,-50.47478 -39.76758,-61.6914 -26.51202,-11.21659 -55.23337,-13.93644 -86.16406,-8.1582 -30.93068,5.77824 -52.85536,30.76053 -65.77148,74.94726 -8.15754,9.51709 -17.33434,23.1124 -27.53125,40.78711 -4.75859,10.87672 -4.58872,17.16576 0.50976,18.86523 5.09848,1.69949 9.00739,3.90777 11.72656,6.62696 -7.30838,4.38499 -4.34285,9.89919 1.95899,11.20117 -0.45271,0.36911 -1.44558,1.22508 -2.97852,2.56641 -2.71917,2.37925 -2.20959,4.58757 1.5293,6.62695 3.73887,2.03938 5.43758,7.81685 5.09766,17.33398 -0.33988,9.51714 6.96832,14.27735 21.92382,14.27735 7.47771,0.67978 13.93662,0.34005 19.375,-1.01953 l 4.07813,22.43164 c -34.66956,2.71917 -67.97933,14.95553 -99.92969,36.70898 l -1.01953,-1.01953 c -55.74322,-4.07881 -111.82703,-1.69869 -168.25,7.13867 0.6798,-23.79285 -4.41822,-75.45809 -15.29492,-154.99414 14.27569,-45.54626 14.27569,-82.59509 0,-111.14648 -8.83735,1.35957 -11.72707,8.66783 -8.66797,21.92382 3.05905,13.25603 -0.50818,29.06158 -10.70508,47.41602 -8.83734,-19.71408 -11.89691,-36.36894 -9.17773,-49.96484 2.71917,-13.59591 8.1569,-25.83229 16.31445,-36.70899 3.39898,-2.71922 1.53042,-6.28839 -5.60742,-10.70703 -7.13785,-4.41867 -13.08715,-4.92825 -17.84571,-1.5293 -22.43324,41.46751 -30.42095,71.03817 -23.96289,88.71289 6.45806,17.67464 15.12522,40.10703 26.00196,67.29883 l -7.13672,114.20703 c -4.07877,48.94523 11.55688,73.75772 46.90625,74.4375 35.34932,0.6798 97.55034,3.05791 186.60351,7.13672 4.7586,29.91097 23.45189,73.07897 56.08204,129.50196 5.43838,42.82713 3.73969,111.42363 -3.73808,156.2901 l 26.58742,-11.52817 c 4.07879,-56.42301 4.00308,-109.75231 -1.4353,-145.78147 -30.59077,-62.54113 -45.88672,-120.32364 -45.88672,-173.34765 0,-18.3545 12.91582,-27.87295 38.74805,-28.55274 31.27057,0 46.56646,-8.49731 45.88672,-25.49218 -1.35961,-25.15244 -12.57677,-36.5375 -33.6504,-34.15821 -21.07368,2.37925 -29.91067,-3.90974 -26.51171,-18.86523 12.91612,-6.79793 17.50449,-11.72608 13.76562,-14.78516 -3.73884,-3.05908 -10.36567,-4.92958 -19.88281,-5.60937 0,-5.4384 -4.41851,-10.19662 -13.25586,-14.27539 8.83735,-21.07362 17.33468,-35.68816 25.49219,-43.84571 8.83737,-4.75856 18.01412,-4.75856 27.53125,0 9.51713,4.75857 19.03363,7.81623 28.55078,9.17578 v -6.11718 c -6.11814,0 -13.93598,-2.71988 -23.45313,-8.15821 -9.51714,-5.43838 -19.37342,-6.11785 -29.57031,-2.03906 4.07876,-6.11817 7.47809,-10.87643 10.19727,-14.27539 25.15242,1.35957 45.54635,7.81653 61.18164,19.37305 -0.6798,9.51715 3.22908,9.85883 11.72656,1.02148 17.14941,-17.83537 40.64247,-8.07018 28.55078,16.82422 -5.77822,11.89644 -13.42622,21.92254 -22.94336,30.08008 -9.51714,8.15756 -11.89527,16.31511 -7.13672,24.47266 4.7586,8.15753 8.49763,15.29588 11.2168,21.41406 -0.67978,26.512 2.03808,43.16691 8.15625,49.96484 6.11813,6.79798 18.69408,11.04663 37.72851,12.7461 19.03428,1.69948 28.55274,10.02694 28.55274,24.98242 -6.79793,14.2757 -14.44589,43.33679 -22.94336,87.18359 -8.49744,43.84679 -13.59546,74.43864 -15.29492,91.77344 -1.69967,17.33474 -1.84329,60.12865 8.47424,96.48131 l 26.82827,-10.1352 c -5.57321,-52.00282 -0.61454,-124.90429 15.1721,-216.35783 90.41278,-3.39916 153.29324,-5.26772 188.64258,-5.60742 35.34933,-0.33993 50.98506,-25.32224 46.90624,-74.94727 l -6.11914,-113.1875 c 10.1969,-27.1918 18.52437,-49.79402 24.98243,-67.80859 6.45804,-18.01459 -1.18992,-47.41541 -22.94336,-88.20313 -2.71919,-1.69947 -5.65086,-2.46487 -8.79493,-2.29492 z m -321.46874,56.2461 c 12.49905,0.4659 26.39598,2.70565 41.6914,6.7207 27.19181,7.13785 40.78711,23.28317 40.78711,48.43555 -3.39899,33.31 -11.38664,56.25193 -23.96289,68.82812 -12.57617,12.57623 -23.28179,15.12622 -32.11914,7.64844 -10.19693,-6.11812 -7.98868,-16.48596 6.62695,-31.10156 27.83137,-27.83131 15.82247,-73.9347 -37.21875,-47.41407 -8.15755,-9.51716 -27.87201,-16.65547 -59.14258,-21.41406 6.11813,-15.63527 18.3545,-25.49351 36.70899,-29.57227 4.5886,-1.01965 9.45476,-1.6872 14.5957,-2.00585 3.85571,-0.23899 7.86684,-0.28031 12.03321,-0.125 z M 438.25,292.72852 c 0.6573,-0.0142 1.40855,0.0209 2.25781,0.11523 3.05907,0.33987 6.62827,0.8495 10.70703,1.5293 4.07877,0.67978 5.77741,1.35921 5.09766,2.03906 h -19.375 c -3.28339,-1.09456 -3.28861,-3.58406 1.3125,-3.68359 z m 18.0625,5.72265 c -3.02518,2.01676 -9.73805,6.11914 -14.27539,6.11914 -3.97406,0 -6.52206,-0.61669 -3.05859,-4.08008 z"
     id="path5"
     sodipodi:nodetypes="sscscsccccccscssccsccsssccccccccccscscsccscccccsccscscccsccscccsssscsscscccccccscsssscscsccssssssccscscc" />
  <path
     style="fill:#000000;stroke:none;stroke-width:1"
     d="m 451.33398,273.3125 c -0.63134,0.0356 -0.97814,1.6293 -0.6289,3.72461 0.62325,3.73965 -3.20839,5.78151 -7.64844,0.50977 -4.36629,-5.18416 -7.48847,-5.33082 -7.66016,0.82812 2.03941,-2.03941 3.92146,-0.65679 6.64063,2.74219 6.01314,7.51651 12.44813,0.84486 11.2168,-4.08008 -0.67856,-2.71426 -1.39681,-3.75409 -1.91993,-3.72461 z"
     id="path4" />
  <path
     style="fill:#000000;stroke:none;stroke-width:1"
     d="m 467.9707,232.52148 c -3.4388,0.10622 -6.64503,1.0095 -9.61914,2.70899 l -8.15625,8.1582 v 6.11719 l 3.0586,-1.01953 c 12.23632,6.11818 25.49187,6.11818 39.76757,0 l 14.2754,4.07812 v -8.15625 l -13.25586,-1.01953 c -9.81452,-7.47775 -18.50494,-11.10086 -26.07032,-10.86719 z m -1.46093,4.74805 c -2.71918,3.39903 -2.71918,6.45857 0,9.17774 -3.39898,-0.67979 -6.45853,-1.69903 -9.17774,-3.0586 0.67982,-2.71917 3.73939,-4.75951 9.17774,-6.11914 z m 9.17773,2.03906 12.23633,7.13868 c -4.75858,0.67978 -9.17904,1.01953 -13.25781,1.01953 3.39902,-2.03937 3.74071,-4.75924 1.02148,-8.15821 z"
     id="path3" />
  <path
     style="fill:#000000;stroke:none;stroke-width:1"
     d="m 556.83398,225.79688 c -1.35559,0.0317 -2.90537,0.27548 -4.66992,0.76562 -12.99352,3.6094 -25.40559,24.44895 -21.41406,31.10156 -8.76616,5.00924 -13.14652,13.93281 -3.56836,18.35352 9.89093,4.56509 31.60029,-21.09452 35.68945,-31.60938 3.3719,-8.67075 3.45208,-18.8333 -6.03711,-18.61132 z m -3.9082,8.11132 c 3.33266,-0.16732 5.41576,2.04041 4.8457,4.89063 -2.14086,10.70454 -11.11667,22.20271 -18.35351,25.49219 -3.73887,1.6995 -3.73887,8.1e-4 0,-5.09766 3.73885,-5.09848 3.73885,-6.79715 0,-5.09766 -3.73887,1.69951 -4.58818,0.33859 -2.54883,-4.08008 5.42352,-11.75079 11.77179,-15.89228 16.05664,-16.10742 z M 530.75,264.80078 c 3.39901,2.03937 3.73875,4.07975 1.01953,6.11914 -2.71916,2.03937 -4.41785,2.03937 -5.09765,0 -0.67982,-2.03939 0.67916,-4.07977 4.07812,-6.11914 z"
     id="path1" />
  <path
     d="M 557.43134,0 C 535.98152,0 525.2601,15.54816 525.2601,46.50119 v 35.77744 h -15.46868 c -5.97345,0 -9.01557,4.20475 -9.01557,12.62175 0,8.41708 3.04212,12.62176 9.01557,12.62176 h 15.46868 v 38.56134 c -2.82517,-0.0826 17.22789,11.76197 28.56505,-0.12669 v -98.6964 c 0,-12.48982 2.63619,-18.79027 8.06653,-18.79027 5.43035,-1e-5 8.16142,6.30045 8.16142,18.79027 h 18.79031 C 589.38642,15.76433 578.88134,0 557.43134,0 Z"
     style="fill:#000000;stroke:none;stroke-width:0.999999"
     id="path1-2"
     sodipodi:nodetypes="sscssscccssccs" />
  <path
     d="m 462.47213,738.81896 c -61.23591,26.48054 -134.26646,68.11356 -217.56937,136.52127 -43.03064,25.37709 -55.35211,59.08609 -37.14683,101.01337 12.13685,31.4455 82.07569,28.1815 210.06428,-9.88414 93.78473,-39.16894 144.76549,-58.76153 153.04063,-58.76148 13.79185,16.55025 13.79185,39.08959 0,67.77669 -22.6187,0 -30.51574,8.00563 -23.89564,24.00421 14.34356,1.10332 29.3531,0.42264 45.07585,-2.06375 15.72273,-2.48251 27.78557,-22.23381 36.06067,-59.19598 8.27522,-36.96228 12.74999,-62.92418 13.57705,-78.09526 0.8275,-15.17091 -6.17639,-23.1281 -21.07159,-23.67838 29.23877,-41.37561 29.23877,-94.88586 0,-160.53518 l -26.82827,10.1352 c 0,0 -85.88336,34.96869 -131.30678,52.76343 z m 140.75642,-32.26874 c 23.72204,40.27229 12.86961,87.98902 -32.36771,143.15654 -28.13543,17.10197 -72.52956,28.84754 -133.48967,35.19172 -60.96007,6.34423 -112.73399,28.3076 -155.21295,65.8216 24.27368,-57.37425 45.5526,-94.50581 63.75788,-111.33189 18.20526,-16.82613 52.49014,-37.26191 102.96842,-61.25967 50.47825,-23.99798 101.93493,-47.85621 154.34403,-71.5783 z"
     style="fill:#000000;stroke:none;stroke-width:0.999997"
     id="path1-23"
     sodipodi:nodetypes="ccccccccscccccccscscc" />
</svg>
