<?xml version="1.0" encoding="UTF-8" standalone="no"?>
<svg
   width="900"
   height="1000"
   version="1.1"
   id="svg1"
   sodipodi:docname="137EE.svg"
   inkscape:version="1.4.3 (0d15f75, 2025-12-25)"
   xmlns:inkscape="http://www.inkscape.org/namespaces/inkscape"
   xmlns:sodipodi="http://sodipodi.sourceforge.net/DTD/sodipodi-0.dtd"
   xmlns:xlink="http://www.w3.org/1999/xlink"
   xmlns="http://www.w3.org/2000/svg"
   xmlns:svg="http://www.w3.org/2000/svg">
  <defs
     id="defs1" />
  <sodipodi:namedview
     id="namedview1"
     pagecolor="#ffffff"
     bordercolor="#666666"
     borderopacity="1.0"
     inkscape:showpageshadow="2"
     inkscape:pageopacity="0.0"
     inkscape:pagecheckerboard="0"
     inkscape:deskcolor="#d1d1d1"
     showguides="true"
     inkscape:zoom="0.3775"
     inkscape:cx="258.27815"
     inkscape:cy="274.17219"
     inkscape:window-width="1680"
     inkscape:window-height="998"
     inkscape:window-x="-8"
     inkscape:window-y="-8"
     inkscape:window-maximized="1"
     inkscape:current-layer="svg1">
    <sodipodi:guide
       position="0,0"
       orientation="0,-1"
       id="guide1"
       inkscape:locked="false" />
  </sodipodi:namedview>
  <path
     style="fill:#000000;stroke:none;stroke-width:1.0144"
     d="m 443.65752,351.35916 c -0.64042,0.0362 -0.99222,1.65275 -0.63795,3.77824 0.63222,3.79349 -3.25458,5.86475 -7.75856,0.5171 -4.42915,-5.25879 -7.59628,-5.40756 -7.77046,0.84005 2.06878,-2.06878 3.97793,-0.66625 6.73625,2.78167 6.09972,7.62474 12.62735,0.85703 11.3783,-4.13882 -0.68833,-2.75335 -1.41692,-3.80814 -1.94758,-3.77824 z"
     id="path6" />
  <path
     style="fill:#000000;stroke:none;stroke-width:1.0144"
     d="m 460.53378,309.98084 c -3.4883,0.10774 -6.7407,1.02403 -9.75764,2.748 l -8.27368,8.27565 v 6.20526 l 3.10264,-1.03421 c 12.4125,6.20627 25.8589,6.20627 40.34014,0 l 14.48093,4.13684 v -8.27368 l -13.44672,-1.03421 c -9.95583,-7.58542 -18.77137,-11.2607 -26.44567,-11.02365 z m -1.48196,4.81641 c -2.75834,3.44796 -2.75834,6.55156 0,9.30988 -3.44792,-0.68958 -6.55152,-1.72349 -9.30988,-3.10264 0.68961,-2.75833 3.79322,-4.82804 9.30988,-6.20724 z m 9.30986,2.06842 12.41251,7.24146 c -4.8271,0.68957 -9.3112,1.03421 -13.44869,1.03421 3.44796,-2.06874 3.79457,-4.82777 1.03618,-8.27567 z"
     id="path5" />
  <path
     style="fill:#000000;stroke:none;stroke-width:1.0144"
     d="m 550.67651,303.15941 c -1.37511,0.0321 -2.9472,0.27945 -4.73716,0.77665 -13.1806,3.66137 -25.77138,24.80096 -21.72238,31.54935 -8.89238,5.08137 -13.33581,14.13342 -3.61974,18.61778 10.03334,4.63082 32.05527,-21.39824 36.20331,-32.06449 3.42045,-8.79559 3.50179,-19.10446 -6.12403,-18.87929 z m -3.96447,8.2281 c 3.38064,-0.16971 5.49373,2.06979 4.91547,4.96106 -2.17169,10.85866 -11.27673,22.52238 -18.61777,25.85922 -3.7927,1.72396 -3.7927,8.2e-4 0,-5.17106 3.79268,-5.17188 3.79268,-6.89501 0,-5.17105 -3.7927,1.72398 -4.65424,0.34347 -2.58552,-4.13882 5.50159,-11.91999 11.94127,-16.12111 16.28782,-16.33935 z m -22.49507,31.33738 c 3.44795,2.06873 3.79258,4.13849 1.03421,6.20724 -2.75831,2.06874 -4.48146,2.06874 -5.17104,0 -0.68961,-2.06875 0.68893,-4.13851 4.13683,-6.20724 z"
     id="path3" />
  <path
     style="fill:#000000;stroke:none;stroke-width:1.0144"
     d="m 856.63832,183.17318 c -3.18933,0.17238 -6.593,1.29343 -10.2133,3.36217 -7.24082,4.1375 -9.13825,7.93034 -5.69015,11.3783 8.27484,11.0333 13.79287,23.2735 16.55134,36.72041 2.75834,13.44683 -7.3e-4,30.16921 -8.27568,50.16712 -10.34376,-18.61873 -13.96428,-34.47947 -10.86119,-47.5816 3.10317,-13.10204 0.17181,-20.68779 -8.79277,-22.75659 -14.48125,29.6521 -14.48125,67.23431 0,112.74676 -11.03332,80.68121 -16.54934,133.09032 -16.54934,157.22574 -57.23535,-8.96458 -108.264,-11.72358 -153.08691,-8.27567 -28.27288,-22.06664 -59.3052,-35.51303 -93.09478,-40.34014 l -1.03421,-38.27175 c 17.2396,2.75833 33.10042,-3.79355 47.5816,-19.65394 14.48121,-15.86046 21.37774,-43.44249 20.68817,-82.74872 0,-30.34163 -13.44643,-51.20152 -40.34015,-62.57963 -26.89373,-11.37808 -56.02862,-14.13709 -87.40464,-8.27566 -31.37602,5.86146 -53.61637,31.20342 -66.71846,76.02634 -8.27499,9.65412 -17.58391,23.44517 -27.92764,41.37436 -4.8271,11.03332 -4.65478,17.41291 0.5171,19.13685 5.17188,1.72395 9.13708,3.96404 11.8954,6.72238 -7.4136,4.44812 -4.40537,10.04172 1.9872,11.36244 -0.45924,0.37442 -1.46639,1.24272 -3.02141,2.60336 -2.75832,2.41351 -2.24141,4.65362 1.55132,6.72236 3.7927,2.06874 5.51587,7.92939 5.17106,17.58355 -0.34477,9.65418 7.06865,14.48292 22.23947,14.48292 7.58538,0.68957 14.13728,0.34495 19.65397,-1.03421 l 4.13683,22.7546 c -35.16871,2.75833 -68.95808,15.17086 -101.36846,37.23752 l -1.03421,-1.03421 c -56.5458,-4.13754 -113.4371,-1.72314 -170.67244,7.24146 0.68958,-24.13542 -4.48184,-76.54453 -15.51515,-157.22574 14.48123,-46.20203 14.48123,-83.78428 0,-112.74675 -8.96458,1.37914 -11.8959,8.79263 -8.79276,22.23948 3.10309,13.44689 -0.51549,29.48 -10.8592,48.0987 -8.96458,-19.99792 -12.06821,-36.89257 -9.30988,-50.68422 2.75832,-13.79166 8.27435,-26.20422 16.54934,-37.23752 3.44792,-2.75837 1.55246,-6.37893 -5.68815,-10.8612 -7.24062,-4.48229 -13.27559,-4.9992 -18.10266,-1.55131 -22.75624,42.06456 -30.85894,72.06097 -24.3079,89.99016 6.55105,17.92912 15.34299,40.6845 26.37634,68.26779 l -7.23948,115.85138 c -4.1375,49.64994 11.72328,74.81969 47.5816,75.50925 35.85828,0.68958 98.95486,3.10193 189.29021,7.23947 4.82712,30.34162 23.78956,74.13115 56.8895,131.36651 5.51668,43.44375 4.91638,91.82467 -2.66906,137.33712 l 26.89343,6.20527 c 4.13752,-57.23538 3.01469,-108.0287 -2.50199,-144.5766 -31.03122,-63.4416 -46.54741,-122.05605 -46.54741,-175.84349 0,-18.61877 13.10179,-28.27427 39.30595,-28.96385 31.72081,0 47.23695,-8.61965 46.54739,-25.85922 -1.37917,-25.51458 -12.75784,-37.06355 -34.13489,-34.65001 -21.37709,2.4135 -30.34133,-3.96603 -26.89343,-19.13685 13.10209,-6.8958 17.75653,-11.89491 13.96382,-14.99804 -3.79267,-3.10312 -10.51491,-5.00054 -20.16908,-5.69012 0,-5.51671 -4.48212,-10.34343 -13.44671,-14.48093 8.96459,-21.37704 17.58426,-36.202 25.85922,-44.477 8.96461,-4.82707 18.27349,-4.82707 27.92764,0 9.65416,4.82708 19.30767,7.92875 28.96185,9.3079 v -6.20526 c -6.20622,0 -14.13662,-2.75904 -23.79081,-8.27567 -9.65416,-5.51669 -19.65235,-6.20593 -29.99605,-2.06841 4.13748,-6.20627 7.58575,-11.03304 10.34409,-14.48094 25.51456,1.37915 46.20212,7.92908 62.06253,19.65199 -0.6896,9.65417 3.27556,10.00077 11.89539,1.03618 17.39632,-18.09216 41.22764,-8.18636 28.96184,17.06645 -5.86141,12.06773 -13.61951,22.23819 -23.27369,30.51318 -9.65416,8.27502 -12.06653,16.55002 -7.23946,24.82501 4.82711,8.27498 8.61997,15.51611 11.37829,21.72238 -0.68957,26.89372 2.06742,43.78842 8.27368,50.68422 6.20622,6.89586 18.96324,11.20569 38.27172,12.92963 19.30834,1.72394 28.96384,10.1713 28.96384,25.34211 -6.89579,14.48125 -14.65387,43.96075 -23.27369,88.43886 -8.61979,44.47808 -13.79122,75.51039 -15.51514,93.09477 -1.72414,17.58433 2.05412,89.285 18.11612,135.12867 l 23.77536,-13.07414 c -13.79168,-53.4426 -10.68805,-138.08832 9.30988,-253.93826 91.71453,-3.44811 155.50034,-5.34356 191.35864,-5.68815 35.8583,-0.34483 51.71913,-25.68683 47.5816,-76.02637 l -6.20725,-114.81716 c 10.34372,-27.58329 18.79108,-50.51094 25.34213,-68.78489 6.55102,-18.27397 -1.20706,-48.09809 -23.27371,-89.47306 -2.75834,-1.72394 -5.73221,-2.50037 -8.92156,-2.32796 z M 518.33465,240.3559 c 15.64488,-0.96972 33.81061,1.26019 54.49813,6.69066 27.58332,7.24063 41.37436,23.61841 41.37436,49.13292 -3.44794,33.7896 -11.55058,57.06184 -24.3079,69.8191 -12.75725,12.7573 -23.617,15.34401 -32.58159,7.75857 -10.34375,-6.20621 -8.1037,-16.72332 6.72236,-31.54936 28.23208,-28.23203 16.05028,-74.99921 -37.75462,-48.09673 -8.275,-9.65419 -28.2733,-16.89528 -59.99411,-21.72238 6.20622,-15.86039 18.61877,-25.86057 37.23753,-29.99805 4.65466,-1.03437 9.59088,-1.71149 14.80584,-2.03473 z m -87.94948,130.69884 c 0.66677,-0.0144 1.42882,0.0212 2.29032,0.11687 3.1031,0.34477 6.7237,0.86174 10.86118,1.55133 4.1375,0.68957 5.8606,1.37878 5.17106,2.06842 h -19.65396 c -3.33067,-1.11032 -3.33596,-3.63567 1.3314,-3.73662 z m 18.32256,5.80504 c -3.06874,2.0458 -9.87826,6.20724 -14.48093,6.20724 -4.03128,0 -6.61596,-0.62557 -3.10263,-4.13882 z"
     id="path1"
     sodipodi:nodetypes="sscscsccccccscssccsccsssccccccccccscscsccscccccsccscscccsccscccsssscsscscccccccscsssscscsccsssssccscscc" />
  <path
     style="fill:#1a5fb4;stroke:none;stroke-width:47.4499"
     d="m 277.34838,651.31253 c -46.15799,0.55614 -66.17708,19.4651 -60.05978,56.72515 l 24.18884,174.34371 c -34.47948,8.89793 -50.60581,35.31311 -48.38129,79.24664 -16.1275,2.22442 -30.72641,6.25696 -43.79524,12.09623 -13.06881,5.83914 -26.27642,8.34086 -39.62333,7.50657 C 96.330704,980.39664 87.712474,986.65305 83.819624,1000 H 778.69168 c -15.01525,-27.24992 -35.59305,-38.0939 -61.73074,-32.53272 -26.13767,5.56127 -43.79316,-6.11723 -52.96913,-35.03547 -9.17602,-28.9183 -24.88687,-34.75748 -47.1317,-17.51774 21.13238,-41.15287 21.967,-83.97374 2.5028,-128.46342 l -26.69537,1.66716 -129.04532,29.15028 -129.55051,-136.75932 c -21.68869,-19.46423 -40.59583,-29.19624 -56.72333,-29.19624 z m -3.33827,51.71955 45.6835,-2.14609 119.86526,122.17261 c -41.69564,9.81074 -148.86467,45.97516 -148.86467,45.97516 3.89284,-82.86195 -1.66883,-138.19561 -16.68409,-166.00168 z m 323.66313,104.27097 c 12.23467,47.27024 4.72835,88.42588 -22.52151,123.46144 -40.59678,23.9132 -89.67585,27.52662 -147.23436,10.84301 -57.5584,-16.68362 -112.1956,-13.06838 -163.9148,10.84483 5.00506,-18.90813 47.82594,-49.21792 128.46341,-90.92694 z"
     id="path4"
     sodipodi:nodetypes="ccccssccsscccccccccccccsccc" />
  <path
     d="m 551.28247,74.111534 c -21.75866,0 -32.63445,15.772021 -32.63445,47.170706 v 36.29257 h -15.69138 c -6.05947,0 -9.14539,4.26528 -9.14539,12.80347 0,8.53827 3.08592,12.80349 9.14539,12.80349 h 15.69138 v 39.11654 c -2.86584,-0.0838 17.47594,11.93132 28.97634,-0.12852 V 122.05237 c 0,-12.66964 2.67414,-19.06081 8.18266,-19.06081 5.50854,-1e-5 8.27894,6.39117 8.27894,19.06081 H 583.1468 C 583.69763,90.102837 573.0413,74.111534 551.28247,74.111534 Z"
     style="fill:#000000;stroke:none;stroke-width:1.0144"
     id="path1-2"
     sodipodi:nodetypes="sscssscccssccs" />
  <path
     d="m 843.64897,99.3245 c 17.62454,-36.717847 21.90857,-59.972586 12.85131,-69.764216 -9.05687,-9.791246 -18.11413,-9.791246 -27.171,0 -9.05726,9.79163 -4.28402,33.046369 14.31969,69.764216 z m -13.9527,136.59056 5.87499,-99.13835 c -23.98912,-1.4672 -45.28553,2.20274 -63.88924,11.01559 -4.89582,-15.17703 -4.89582,-29.86409 0,-44.06157 19.58288,7.83292 39.90012,10.77041 60.95174,8.81208 C 802.76967,67.012886 797.01729,34.4561 815.37621,14.873222 833.73513,-4.7096503 851.97184,-4.954445 870.08598,14.1377 c 18.11413,19.093297 12.72874,52.139665 -16.15581,99.13833 18.60371,-0.49034 38.92096,-4.16106 60.95175,-11.01519 4.89582,14.19747 5.14022,28.15017 0.73555,41.85844 -21.54123,-6.85413 -42.83764,-9.30203 -63.88926,-7.34372 l 8.07771,99.87271"
     style="fill:#000000;stroke:none;stroke-width:38.3084"
     id="path1-3" />
  <use
     x="0"
     y="0"
     xlink:href="#path1-3"
     id="use2"
     transform="translate(-672.04512)" />
</svg>
