<?xml version="1.0" encoding="UTF-8" standalone="no"?>
<svg
   width="900"
   height="1000"
   version="1.1"
   id="svg1"
   sodipodi:docname="137EB.svg"
   inkscape:version="1.4.3 (0d15f75, 2025-12-25)"
   xmlns:inkscape="http://www.inkscape.org/namespaces/inkscape"
   xmlns:sodipodi="http://sodipodi.sourceforge.net/DTD/sodipodi-0.dtd"
   xmlns="http://www.w3.org/2000/svg"
   xmlns:svg="http://www.w3.org/2000/svg">
  <defs
     id="defs1" />
  <sodipodi:namedview
     id="namedview1"
     pagecolor="#ffffff"
     bordercolor="#666666"
     borderopacity="1.0"
     inkscape:showpageshadow="2"
     inkscape:pageopacity="0.0"
     inkscape:pagecheckerboard="0"
     inkscape:deskcolor="#d1d1d1"
     showguides="true"
     inkscape:zoom="0.53386562"
     inkscape:cx="145.16762"
     inkscape:cy="356.83137"
     inkscape:window-width="1680"
     inkscape:window-height="998"
     inkscape:window-x="-8"
     inkscape:window-y="-8"
     inkscape:window-maximized="1"
     inkscape:current-layer="svg1">
    <sodipodi:guide
       position="0,0"
       orientation="0,-1"
       id="guide1"
       inkscape:locked="false" />
  </sodipodi:namedview>
  <path
     style="fill:#000000;stroke:none;stroke-width:1"
     d="m 596.01043,696.1316 -167.22962,75.4573 c -70.01888,83.61479 -107.4076,143.09686 -112.16618,178.44618 56.423,-61.86136 116.92478,-88.03345 181.50533,-78.51629 42.82708,-15.63528 72.56813,-27.8716 89.22311,-36.70896 16.65501,-8.83735 24.98251,-26.51203 24.98251,-53.02404 0,-26.51202 -5.43839,-55.06341 -16.31515,-85.65419 z M 530.75009,257.6637 c -3.99153,-6.65261 8.42002,-27.4913 21.41354,-31.1007 14.11639,-3.92111 14.56044,7.93525 10.70684,17.84468 -4.08916,10.51486 -25.79833,36.17553 -35.68926,31.61044 -9.57816,-4.42071 -5.19728,-13.34518 3.56888,-18.35442 z m 6.11815,-7.6477 c -2.03935,4.41867 -1.18957,5.77826 2.5493,4.07875 3.73885,-1.69949 3.73885,-2e-5 0,5.09846 -3.73887,5.09847 -3.73887,6.79795 0,5.09845 7.23684,-3.28948 16.21357,-14.78777 18.35443,-25.49231 1.30298,-6.51479 -11.26191,-9.67365 -20.90373,11.21665 z m -4.0787,-33.14 c 53.04122,-26.52063 65.05014,19.58435 37.21877,47.41566 -14.61563,14.6156 -16.82495,24.98249 -6.62802,31.10061 8.83735,7.47778 19.54413,4.92854 32.1203,-7.64769 12.57625,-12.57619 20.56383,-35.51928 23.96282,-68.82928 0,-25.15238 -13.5959,-41.29749 -40.78771,-48.43534 -27.19185,-7.13786 -49.96499,-8.66739 -68.3194,-4.58863 -18.35449,4.07875 -30.59082,13.93579 -36.70895,29.57106 31.27057,4.75859 50.98464,11.89645 59.14219,21.41361 z m -2.03945,47.92553 c -3.39896,2.03937 -4.75856,4.07875 -4.07875,6.11814 0.6798,2.03937 2.37929,2.03937 5.09845,0 2.71922,-2.03939 2.37931,-4.07877 -1.0197,-6.11814 z m -80.55573,-15.2954 v -6.11814 l 8.15758,-8.15758 c 9.51714,-5.43835 21.41355,-2.71915 35.68921,8.15758 l 13.25603,1.01969 v 8.15752 l -14.27572,-4.07877 c -14.2757,6.11818 -27.53171,6.11818 -39.76803,0 z m 7.13784,-6.11814 c 2.71921,1.35957 5.77829,2.37927 9.17727,3.05906 -2.71918,-2.71917 -2.71918,-5.77824 0,-9.17727 -5.43835,1.35963 -8.49745,3.39904 -9.17727,6.11821 z m 17.33478,4.07875 c 4.07877,0 8.49745,-0.33991 13.25603,-1.01969 l -12.23635,-7.13782 c 2.71923,3.39897 2.37934,6.11814 -1.01968,8.15751 z m -39.27046,30.90808 c 0.17169,-6.15894 3.29373,-6.01129 7.66002,-0.82713 4.44005,5.27174 8.27095,3.22978 7.6477,-0.50987 -0.63861,-3.83143 1.05168,-5.9901 2.54919,0 1.23133,4.92494 -5.20345,11.59526 -11.21659,4.07875 -2.71917,-3.39898 -4.60091,-4.78116 -6.64032,-2.74175 z m 20.91605,20.07654 -17.33478,2.03943 c -3.46347,3.46339 -0.91501,4.07875 3.05905,4.07875 4.53734,0 11.25055,-4.10142 14.27573,-6.11818 z m 0,-2.03932 c 0.67975,-0.67985 -1.01975,-1.35966 -5.09852,-2.03944 -4.07876,-0.6798 -7.64769,-1.18964 -10.70676,-1.52951 -6.79406,-0.75494 -7.32135,2.31802 -3.5689,3.56895 z M 426.74144,748.13597 C 364.88005,674.03822 317.9742,629.85151 286.02384,615.57582 v 245.74599 c 50.30484,-45.54625 97.21072,-83.27487 140.7176,-113.18584 z m 159.07208,-69.33915 c -2.03938,-42.14733 -2.20924,-71.88837 -0.50957,-89.22311 1.69946,-17.3348 6.7979,-47.92559 15.29534,-91.77238 8.49747,-43.8468 16.14518,-72.90805 22.94311,-87.18375 0,-14.95548 -9.51715,-23.283 -28.55143,-24.98248 -19.03443,-1.69947 -31.61069,-5.94818 -37.72882,-12.74616 -6.11817,-6.79793 -8.83737,-23.45291 -8.15759,-49.96491 -2.71917,-6.11818 -6.45804,-13.25603 -11.21664,-21.41356 -4.75855,-8.15755 -2.37925,-16.31509 7.13789,-24.47265 9.51714,-8.15754 17.16482,-18.18451 22.94304,-30.08095 12.09169,-24.8944 -11.4019,-34.66028 -28.55131,-16.82491 -8.49748,8.83735 -12.40631,8.49745 -11.72651,-1.0197 -15.63529,-11.55652 -36.02914,-18.01458 -61.18156,-19.37415 -2.71918,3.39896 -6.11814,8.15754 -10.1969,14.27571 10.19689,-4.07879 20.05391,-3.399 29.57105,2.03938 9.51715,5.43833 17.33479,8.1575 23.45293,8.1575 v 6.11821 c -9.51715,-1.35958 -19.03429,-4.41868 -28.55142,-9.17725 -9.51713,-4.75856 -18.69433,-4.75856 -27.5317,0 -8.15751,8.15755 -16.65494,22.77314 -25.49229,43.84676 8.83735,4.07877 13.25602,8.83733 13.25602,14.27573 9.51714,0.67979 16.14514,2.54924 19.88398,5.60832 3.73887,3.05908 -0.84973,7.9876 -13.76585,14.78553 -3.39896,14.95549 5.43838,21.2436 26.51206,18.86435 21.07363,-2.37929 32.29024,9.00726 33.64983,34.1597 0.67977,16.99487 -14.6156,25.4923 -45.88617,25.4923 -25.83223,0.67979 -38.74833,10.19694 -38.74833,28.55144 0,53.02401 15.29539,110.80659 45.88616,173.34772 5.43838,36.02916 6.11818,82.25522 2.03939,138.67823 z M 635.7785,459.56287 c -19.71409,114.20562 -22.77315,197.65045 -9.17722,250.33451 13.59588,52.68416 12.57612,90.58276 -3.05924,113.69581 19.71404,0 29.57105,9.85702 29.57105,29.57105 -12.91607,51.66449 -23.11298,95.51117 -30.59074,127.46148 -0.67984,10.19692 -12.57626,16.65503 -35.68927,19.37428 h -30.59063 c -28.55138,-15.63532 -28.55138,-23.453 0,-23.453 42.1473,-21.07366 50.30484,-48.26535 24.47262,-77.49653 -32.6302,7.47776 -82.93504,26.68199 -150.91455,57.61268 C 361.82099,987.5938 316.27472,1000 293.16167,1000 c -21.07363,0 -38.23846,-6.96786 -51.49449,-27.02182 -13.25598,-20.05396 -15.46533,-38.23848 -6.62801,-54.55355 4.07879,-8.15755 14.27574,-19.71405 30.5908,-34.66951 l 1.01971,-145.81617 c 0,42.14733 -9.51714,82.25528 -28.55138,120.32381 -19.03428,38.06854 -25.83226,69.33909 -20.39392,93.81169 5.43839,24.47264 3.7389,40.44783 -5.09844,47.92555 H 27.021867 c -36.029156,-19.71399 -36.029156,-29.57102 0,-29.57102 44.86647,-11.55648 76.646893,-18.01456 95.341253,-19.37422 18.69438,-1.35968 31.10064,-18.69442 37.21882,-52.00429 16.99489,-129.8409 38.40842,-223.65262 64.24065,-281.43522 8.83731,-16.31511 27.87157,-26.85194 57.1028,-31.61049 27.19181,4.75855 81.57541,50.30483 163.15083,136.63884 7.47777,-44.86647 8.49745,-88.71326 3.05907,-131.54039 -32.63015,-56.42299 -51.32452,-99.58998 -56.08312,-129.50095 -89.05317,-4.07881 -151.25443,-6.4581 -186.60375,-7.1379 -35.34937,-0.67978 -50.98468,-25.49229 -46.90591,-74.43752 l 7.1379,-114.20563 c -10.87674,-27.1918 -19.54413,-49.62504 -26.00219,-67.29968 -6.45806,-17.67472 1.52954,-47.24582 23.96281,-88.71333 4.75855,-3.39895 10.70674,-2.8891 17.84459,1.52957 7.13784,4.41864 9.00729,7.98756 5.60831,10.70678 -8.15755,10.8767 -13.5959,23.11298 -16.31507,36.70889 -2.71918,13.5959 0.33991,30.25089 9.17725,49.96497 10.1969,-18.35444 13.76583,-34.15969 10.70678,-47.41572 -3.0591,-13.25599 -0.16996,-20.56379 8.66739,-21.92336 14.27569,28.55139 14.27569,65.60022 0,111.14648 10.8767,79.53605 15.97515,131.20048 15.29535,154.99333 56.42297,-8.83736 112.50612,-11.21664 168.24934,-7.13783 l 1.01968,1.01968 c 31.95036,-21.75345 65.26034,-33.98977 99.9299,-36.70894 l -4.07875,-22.43324 c -5.43838,1.35958 -11.89645,1.69946 -19.37416,1.01968 -14.9555,0 -22.2633,-4.75857 -21.92342,-14.27571 0.33992,-9.51713 -1.35958,-15.2954 -5.09845,-17.33478 -3.73889,-2.03938 -4.24875,-4.24871 -1.52958,-6.62796 2.71918,-2.37929 3.7389,-3.22905 3.05915,-2.54925 -6.35708,-1.27141 -9.37895,-6.81298 -2.03945,-11.21664 -2.71917,-2.71919 -6.62798,-4.92852 -11.72646,-6.62801 -5.09848,-1.69947 -5.26841,-7.98757 -0.50982,-18.86429 10.19691,-17.67471 19.37414,-31.27062 27.53168,-40.78771 12.91612,-44.18673 34.83952,-69.16921 65.7702,-74.94748 30.93069,-5.77823 59.65203,-3.05902 86.16405,8.15757 26.51201,11.21662 39.76801,31.78042 39.76801,61.6914 0.67978,38.74834 -6.11822,65.94013 -20.39389,81.57546 -14.27565,15.63528 -29.91094,22.09335 -46.90585,19.37418 l 1.01969,37.72857 c 33.30998,4.7586 63.90077,18.01459 91.77237,39.76803 44.18672,-3.39897 94.49158,-0.67977 150.91456,8.15757 0,-23.79284 5.43837,-75.45726 16.31509,-154.99331 -14.2757,-44.86648 -14.2757,-81.91533 0,-111.14655 8.83735,2.03943 11.72646,9.51715 8.66734,22.43323 -3.05905,12.91616 0.5099,28.55145 10.70684,46.90591 8.1575,-19.71407 10.87669,-36.19911 8.1575,-49.45509 -2.71932,-13.25605 -8.15769,-25.32238 -16.31509,-36.19908 -3.39916,-3.39902 -1.52972,-7.13789 5.60832,-11.21665 7.13785,-4.07877 13.42598,-4.41865 18.86435,-1.0197 21.75344,40.78772 29.4011,70.18886 22.94306,88.20345 -6.45806,18.01457 -14.78553,40.61776 -24.98243,67.80956 l 6.11807,113.18592 c 4.07881,49.62503 -11.55648,74.6075 -46.90583,74.94743 -35.34933,0.3397 -98.23037,2.20915 -188.64315,5.60831 z"
     id="path1"
     sodipodi:nodetypes="ccccssccssscsssssscscscsscccsscccccccccccccccccccsssscccsccssccccccccscsscsssscccsccscccscsccsccccscccccccssscccsscccsccccccsccscscscsccccccccsssccsccsscsccccccscscscscccc" />
  <path
     d="M 557.43134,0 C 535.98152,0 525.2601,15.54816 525.2601,46.50119 v 35.77744 h -15.46868 c -5.97345,0 -9.01557,4.20475 -9.01557,12.62175 0,8.41708 3.04212,12.62176 9.01557,12.62176 h 15.46868 v 38.56134 c -2.82517,-0.0826 17.22789,11.76197 28.56505,-0.12669 v -98.6964 c 0,-12.48982 2.63619,-18.79027 8.06653,-18.79027 5.43035,-1e-5 8.16142,6.30045 8.16142,18.79027 h 18.79031 C 589.38642,15.76433 578.88134,0 557.43134,0 Z"
     style="fill:#000000;stroke:none;stroke-width:0.999999"
     id="path1-2"
     sodipodi:nodetypes="sscssscccssccs" />
</svg>
