<?xml version="1.0" encoding="UTF-8" standalone="no"?>
<svg
   width="820.362"
   height="1000"
   version="1.1"
   id="svg1"
   sodipodi:docname="137F7.svg"
   inkscape:version="1.4.3 (0d15f75, 2025-12-25)"
   xmlns:inkscape="http://www.inkscape.org/namespaces/inkscape"
   xmlns:sodipodi="http://sodipodi.sourceforge.net/DTD/sodipodi-0.dtd"
   xmlns="http://www.w3.org/2000/svg"
   xmlns:svg="http://www.w3.org/2000/svg">
  <defs
     id="defs1" />
  <sodipodi:namedview
     id="namedview1"
     pagecolor="#ffffff"
     bordercolor="#666666"
     borderopacity="1.0"
     inkscape:showpageshadow="2"
     inkscape:pageopacity="0.0"
     inkscape:pagecheckerboard="0"
     inkscape:deskcolor="#d1d1d1"
     inkscape:zoom="0.755"
     inkscape:cx="141.0596"
     inkscape:cy="31.125828"
     inkscape:window-width="1680"
     inkscape:window-height="998"
     inkscape:window-x="-8"
     inkscape:window-y="-8"
     inkscape:window-maximized="1"
     inkscape:current-layer="svg1"
     showguides="true">
    <sodipodi:guide
       position="411.54382,814.05658"
       orientation="0,-1"
       id="guide1"
       inkscape:locked="false" />
    <sodipodi:guide
       position="820.362,0"
       orientation="0,-1"
       id="guide2"
       inkscape:locked="false" />
    <sodipodi:guide
       position="488.36063,806.05658"
       orientation="0,-1"
       id="guide3"
       inkscape:locked="false" />
  </sodipodi:namedview>
  <circle
     style="fill:none;stroke:#613583;stroke-width:18;stroke-dasharray:none"
     id="path3"
     cx="488.36063"
     cy="96.97171"
     r="87.97171" />
  <path
     style="fill:#000000;stroke:none;stroke-width:0.952055"
     d="m 538.17392,710.7006 -159.2116,71.83947 c -66.6619,79.60592 -102.2579,136.23604 -106.7885,169.8906 53.7178,-58.89544 111.3188,-83.81271 172.8031,-74.75182 40.7737,-14.88565 69.0889,-26.53529 84.9453,-34.94898 15.8564,-8.4136 23.7847,-25.24088 23.7847,-50.4818 0,-25.24089 -5.1776,-52.42338 -15.533,-81.54747 z m -62.1314,-417.44548 c -3.8001,-6.33365 8.0164,-26.17323 20.3868,-29.60958 13.4397,-3.73311 13.8626,7.5548 10.1935,16.98912 -3.893,10.01071 -24.5614,34.44109 -33.978,30.09487 -9.1189,-4.20876 -4.9481,-12.70535 3.3977,-17.47441 z m 5.8248,-7.28103 c -1.9415,4.20681 -1.1325,5.50122 2.427,3.88318 3.5598,-1.61801 3.5598,-2e-5 0,4.85403 -3.5595,4.85402 -3.5595,6.47201 0,4.854 6.8901,-3.13177 15.4364,-14.07878 17.4745,-24.27008 1.2406,-6.20244 -10.7219,-9.20984 -19.9015,10.67887 z m -3.8831,-31.5511 c 50.4982,-25.2491 61.9314,18.64538 35.4343,45.14231 -13.9148,13.91485 -16.0181,23.7847 -6.3102,29.60948 8.4135,7.11925 18.607,4.69225 30.5802,-7.28101 11.9734,-11.97323 19.5779,-33.81631 22.814,-65.52926 0,-23.94644 -12.9441,-39.31747 -38.8322,-46.11309 -25.888,-6.79564 -47.5695,-8.25184 -65.0437,-4.36863 -17.4746,3.8832 -29.1242,13.26763 -34.9489,28.15327 29.7712,4.53044 48.5401,11.32607 56.3065,20.38693 z m -1.9417,45.62773 c -3.236,1.94158 -4.5305,3.8832 -3.8831,5.82481 0.6471,1.94158 2.2651,1.94158 4.854,0 2.5887,-1.94161 2.2651,-3.88323 -0.9709,-5.82481 z m -76.6934,-14.56205 v -5.8248 l 7.7664,-7.76647 c 9.061,-5.17761 20.3869,-2.58878 33.9782,7.76647 l 12.6203,0.97079 v 7.76641 l -13.5912,-3.88322 c -13.5912,5.82484 -26.2116,5.82484 -37.8614,0 z m 6.7957,-5.8248 c 2.5887,1.29436 5.5012,2.26519 8.7372,2.91238 -2.5889,-2.5888 -2.5889,-5.5012 0,-8.73727 -5.1777,1.29445 -8.0901,3.23609 -8.7372,5.82489 z m 16.5036,3.88318 c 3.8832,0 8.09,-0.32361 12.6203,-0.9708 l -11.6496,-6.7956 c 2.589,3.23601 2.2653,5.8248 -0.9707,7.7664 z m -37.3876,29.4262 c 0.1633,-5.86365 3.1357,-5.72308 7.2927,-0.78749 4.2272,5.01899 7.8743,3.07493 7.281,-0.48542 -0.608,-3.64772 1.0012,-5.7029 2.4269,0 1.1724,4.6888 -4.9539,11.03933 -10.6788,3.88319 -2.5887,-3.236 -4.3803,-4.55193 -6.3218,-2.61028 z m 19.9132,19.11394 -16.5038,1.94167 c -3.2974,3.29733 -0.8711,3.88319 2.9124,3.88319 4.3199,0 10.7112,-3.90478 13.5914,-5.82486 z m 0,-1.94152 c 0.6472,-0.64727 -0.971,-1.29448 -4.854,-1.94167 -3.8834,-0.6472 -7.2812,-1.13259 -10.1935,-1.45617 -6.4684,-0.71875 -6.9704,2.20687 -3.3978,3.39784 z m -28.1534,430.06594 C 318.12532,689.66649 273.46832,647.59832 243.04972,634.00708 v 233.96367 c 47.8929,-43.36257 92.55,-79.28227 133.9709,-107.75914 z m 151.4454,-66.01468 c -1.9417,-40.12657 -2.1033,-68.44166 -0.4852,-84.94528 1.6181,-16.50369 6.4721,-45.6278 14.562,-87.37234 8.0901,-41.74457 15.3711,-69.41246 21.8431,-83.00372 0,-14.23843 -9.0607,-22.16669 -27.1825,-23.78469 -18.1219,-1.61798 -30.0951,-5.66298 -35.9199,-12.13504 -5.8249,-6.47201 -8.4137,-22.32847 -7.7664,-47.56933 -2.5889,-5.82485 -6.1485,-12.62048 -10.679,-20.38689 -4.5303,-7.76643 -2.2651,-15.53285 6.7956,-23.2993 9.061,-7.76642 16.342,-17.31265 21.8432,-28.63872 11.5119,-23.70083 -10.8553,-32.99849 -27.1826,-16.01824 -8.09,8.41366 -11.8114,8.09005 -11.1641,-0.9708 -14.8857,-11.00244 -34.3018,-17.15087 -58.2482,-18.44524 -2.5889,3.23598 -5.8248,7.76642 -9.708,13.59126 9.708,-3.88326 19.0924,-3.23604 28.1532,1.94159 9.0609,5.17759 16.5037,7.76639 22.3285,7.76639 v 5.82487 c -9.0608,-1.29439 -18.1216,-4.20683 -27.1826,-8.73725 -9.0607,-4.53041 -17.7979,-4.53041 -26.2117,0 -7.7663,7.76643 -15.8564,21.68128 -24.2701,41.74453 8.4137,3.88321 12.6207,8.41361 12.6207,13.59127 9.0607,0.6472 15.371,2.42701 18.9305,5.33943 3.5595,2.9124 -0.809,7.60462 -13.1059,14.07662 -3.236,14.23846 5.1777,20.22507 25.2411,17.9599 20.0633,-2.26521 30.742,8.57541 32.0363,32.52192 0.6473,16.18005 -13.9147,24.27006 -43.6861,24.27006 -24.5936,0.64719 -36.8905,9.70805 -36.8905,27.18255 0,50.48175 14.562,105.49394 43.6861,165.03653 5.1777,34.30173 5.8249,78.31147 1.9416,132.02927 z m 47.5693,-208.72273 c -18.7689,108.73001 -21.6811,188.17405 -8.7371,238.33218 12.9441,50.1582 11.9731,86.23974 -2.9126,108.24467 18.7687,0 28.1533,9.38442 28.1533,28.15322 -12.2968,49.18743 -22.0049,90.93189 -29.1241,121.35033 -0.6474,9.70801 -11.9733,15.85648 -33.9781,18.4454 h -29.124 c -27.1824,-14.88566 -27.1824,-22.32854 0,-22.32854 40.1264,-20.06332 47.8929,-45.95131 23.2992,-73.78101 -31.0656,7.11927 -78.9587,25.40272 -143.6788,54.85045 -64.7203,29.44772 -108.0829,41.2591 -130.0876,41.2591 -20.0634,0 -36.4054,-6.63382 -49.0258,-25.72633 -12.6203,-19.09241 -14.7238,-36.40505 -6.3101,-51.93793 3.8833,-7.76648 13.5912,-18.76879 29.124,-33.00726 l 0.9709,-138.82501 c 0,40.12659 -9.0609,78.31155 -27.1826,114.55485 -18.1216,36.24339 -24.5935,66.01463 -19.4159,89.31389 5.1776,23.29934 3.5595,38.50861 -4.854,45.62779 H -3.5342948 c -34.3017292,-18.76881 -34.3017292,-28.15321 0,-28.15321 42.7153398,-11.00243 72.9720498,-17.15088 90.7701028,-18.4454 17.798082,-1.29442 29.609512,-17.7981 35.434362,-49.51094 16.18006,-123.61562 36.56695,-212.92952 61.16055,-267.94172 8.4136,-15.53288 26.5354,-25.56453 54.3649,-30.09492 25.8881,4.53039 77.6644,47.89295 155.3287,130.08766 7.1193,-42.71534 8.09,-84.45989 2.9123,-125.23366 -31.0656,-53.71778 -48.8637,-94.81512 -53.394,-123.29201 -84.7836,-3.88325 -144.0026,-6.14845 -177.6572,-6.79567 -33.65444,-0.64718 -48.54012,-24.27006 -44.6569,-70.8686 l 6.79567,-108.73002 c -10.35525,-25.88808 -18.60708,-47.24576 -24.75552,-64.07299 -6.148425,-16.82729 1.45622,-44.98061 22.81392,-84.45995 4.53039,-3.23598 10.1934,-2.75058 16.98902,1.45624 6.79562,4.20679 8.57545,7.6046 5.33943,10.19344 -7.76644,10.35522 -12.94404,22.00482 -15.53285,34.94889 -2.58882,12.94403 0.32361,28.80049 8.73725,47.56938 9.708,-17.47444 13.1058,-32.5219 10.19343,-45.14237 -2.91241,-12.62043 -0.1618,-19.57786 8.25185,-20.87224 13.5913,27.18248 13.5913,62.455 0,105.81754 10.3553,75.72269 15.2093,124.91005 14.562,147.56216 53.7177,-8.41365 107.1121,-10.67886 160.1826,-6.79561 l 0.9708,0.97079 c 30.4184,-20.71049 62.1314,-32.36012 95.1388,-34.94892 l -3.8833,-21.35768 c -5.1776,1.29439 -11.326,1.61798 -18.4453,0.97078 -14.2385,0 -21.1958,-4.5304 -20.8723,-13.59125 0.3235,-9.06083 -1.2944,-14.56205 -4.854,-16.50367 -3.5594,-1.94159 -4.0451,-4.045 -1.4563,-6.31017 2.5889,-2.26522 3.5598,-3.07422 2.9125,-2.42702 -6.0522,-1.21046 -8.9292,-6.48634 -1.9416,-10.67886 -2.5888,-2.58882 -6.3102,-4.69223 -11.1643,-6.31024 -4.8539,-1.61798 -5.0158,-7.60459 -0.4853,-17.95983 9.7081,-16.82728 18.4452,-29.77134 26.2116,-38.83214 12.2969,-42.06818 33.1692,-65.85293 62.6169,-71.3541 10.0121,-1.8704 19.7812,-2.80559 29.3071,-2.80559 18.4916,0 36.0667,3.52402 52.7258,10.57204 25.2408,10.67881 37.8614,30.2567 37.8614,58.7336 0.647,36.89054 -5.825,62.77861 -19.4161,77.6643 -13.5913,14.88564 -28.4769,21.03409 -44.657,18.44529 l 0.9708,35.91966 c 31.7129,4.53045 60.8371,17.15087 87.3723,37.86134 42.0683,-3.23599 89.9611,-0.64717 143.6789,7.76646 0,-22.65209 5.1777,-71.83945 15.5329,-147.56212 -13.5912,-42.71536 -13.5912,-77.98789 0,-105.81761 8.4137,1.94164 11.1643,9.06083 8.2518,21.35765 -2.9123,12.2969 0.4856,27.18256 10.1934,44.657 7.7664,-18.76887 10.3553,-34.46353 7.7664,-47.08395 -2.5889,-12.62049 -7.7666,-24.10829 -15.5328,-34.46351 -3.2363,-3.23605 -1.4564,-6.79566 5.3394,-10.67887 6.7956,-3.8832 12.7823,-4.20679 17.9599,-0.97081 20.7104,38.83214 27.9915,66.82365 21.8431,83.97452 -6.1484,17.15086 -14.0767,38.67034 -23.7846,64.55842 l 5.8247,107.75921 c 3.8832,47.24574 -11.0024,71.03042 -44.6568,71.35405 -33.6546,0.32342 -93.5208,2.10323 -179.5988,5.33943 z"
     id="path1-9"
     sodipodi:nodetypes="ccccssccssscsssssscscscsscccsscccccccccccccccccccsssscccsccssccccccccscsscsssscccsccscccscsccsccccscccccccssscccsscccsccccccsccscscscsccccccccsssccsccssscsccccccscscscscccc" />
</svg>
