<?xml version="1.0" encoding="UTF-8" standalone="no"?>
<svg
   width="1143.9921"
   height="1000"
   version="1.1"
   id="svg1"
   sodipodi:docname="137F0.svg"
   inkscape:version="1.4.3 (0d15f75, 2025-12-25)"
   xmlns:inkscape="http://www.inkscape.org/namespaces/inkscape"
   xmlns:sodipodi="http://sodipodi.sourceforge.net/DTD/sodipodi-0.dtd"
   xmlns="http://www.w3.org/2000/svg"
   xmlns:svg="http://www.w3.org/2000/svg">
  <defs
     id="defs1" />
  <sodipodi:namedview
     id="namedview1"
     pagecolor="#ffffff"
     bordercolor="#666666"
     borderopacity="1.0"
     inkscape:showpageshadow="2"
     inkscape:pageopacity="0.0"
     inkscape:pagecheckerboard="0"
     inkscape:deskcolor="#d1d1d1"
     inkscape:zoom="0.3775"
     inkscape:cx="287.41722"
     inkscape:cy="501.98675"
     inkscape:window-width="1680"
     inkscape:window-height="998"
     inkscape:window-x="-8"
     inkscape:window-y="-8"
     inkscape:window-maximized="1"
     inkscape:current-layer="svg1"
     showguides="true">
    <sodipodi:guide
       position="0,1000"
       orientation="0,-1"
       id="guide1"
       inkscape:locked="false" />
    <sodipodi:guide
       position="0,-1.1368684e-13"
       orientation="0,-1"
       id="guide2"
       inkscape:locked="false" />
    <sodipodi:guide
       position="1105.9336,56"
       orientation="0,-1"
       id="guide15"
       inkscape:locked="false" />
    <sodipodi:guide
       position="1084.2198,297.90208"
       orientation="1,0"
       id="guide16"
       inkscape:locked="false" />
  </sodipodi:namedview>
  <path
     style="fill:#000000;stroke:none;stroke-width:53.4145"
     d="M 187.47307,8.8578114e-4 C 89.35409,8.8578114e-4 40.26065,45.308283 40.26065,135.92769 H -0.05479664 L 40.26065,173.47383 v 17.74794 H -0.05479664 L 40.26065,231.53907 v 17.84935 H -0.05479664 L 40.26065,287.75502 v 17.85119 H -0.97851559 L 40.26065,343.15234 v 16.82423 L -0.05479664,360.90029 40.26065,397.5227 v 17.74795 H 0.86892221 L 31.849461,450.66328 c 0.341775,13.5918 1.817537,22.6725 4.513502,27.39075 H -0.05479664 L 40.26065,515.60017 v 17.84935 H -0.05479664 L 40.26065,573.76681 v 17.74794 H -0.05479664 L 40.26065,629.98461 v 17.7461 H -0.97851559 L 40.26065,685.27868 V 702.1029 H -0.05479664 L 40.26065,739.64903 v 17.84935 H 0.86892221 L 40.26065,802.43241 V 944 H 74.936065 V 478.25869 c 8.915204,-3.16395 13.666913,-5.07872 14.259566,-5.64189 h 0.101404 c 43.722505,39.83478 102.936395,58.60945 177.783645,56.11455 73.12047,-40.62241 116.33843,-68.30612 129.46263,-82.99273 13.12419,-14.68662 22.88076,-11.69814 29.44284,8.92559 l 4.98182,-45.99964 -17.09486,-31.63017 C 371.37572,405.78258 311.80662,442.50515 264.30952,480.00288 224.31199,475.62812 192.44852,472.14085 168.7,469.641 144.95142,467.14115 124.63615,461.56624 107.76221,452.81678 98.966947,440.39997 88.014281,430.92484 74.936065,424.50415 V 137.77514 c 0,-76.24529 37.541615,-114.384436 112.537005,-114.384436 z"
     id="path1"
     sodipodi:nodetypes="cccccccccccccccccccccccccccccccccccccccccccsccccsccscc" />
  <path
     d="m 579.07774,-2.2926248e-4 c -20.24861,0 -30.36962,14.67746626248 -30.36962,43.89713426248 v 33.773911 h -14.60245 c -5.6389,0 -8.51064,3.969286 -8.51064,11.914935 0,7.945725 2.87174,11.914949 8.51064,11.914949 h 14.60245 v 36.40191 c -2.66699,-0.078 16.26315,11.1033 26.96546,-0.11959 V 44.61359 c 0,-11.790393 2.48848,-17.738019 7.61478,-17.738019 5.1262,-10e-6 7.70437,5.947626 7.70437,17.738019 h 17.73804 C 609.24336,14.881302 599.32655,-2.2926248e-4 579.07774,-2.2926248e-4 Z"
     style="fill:#000000;stroke:none;stroke-width:0.959999"
     id="path1-2"
     sodipodi:nodetypes="sscssscccssccs" />
  <path
     style="fill:#000000;stroke:none;stroke-width:0.96"
     d="m 615.05437,657.14816 -157.3393,71.23171 c -63.69236,78.93239 -97.70282,135.08351 -102.03145,168.45325 51.32492,-58.39717 105.99809,-83.10364 166.96219,-74.1194 40.4287,-14.75973 68.50431,-26.3108 84.22663,-34.6533 15.72232,-8.34242 23.58349,-25.02734 23.58349,-50.05467 0,-25.02734 -5.13385,-51.97987 -15.40156,-80.85759 z m -61.60574,-413.9138 c -3.76797,-6.28007 7.94848,-25.95179 20.21436,-29.35907 13.32588,-3.70152 13.74511,7.49088 10.10731,16.84539 -3.8602,9.92602 -24.3537,34.1497 -33.6907,29.84025 -9.04174,-4.17314 -4.90626,-12.59784 3.36903,-17.32657 z m 5.77549,-7.21942 c -1.9251,4.17122 -1.12288,5.45467 2.40655,3.85034 3.52951,-1.60432 3.52951,-2e-5 0,4.81294 -3.52943,4.81296 -3.52943,6.41726 0,4.81294 6.83163,-3.10527 15.30564,-13.95966 17.32665,-24.06475 1.23003,-6.14996 -10.63125,-9.13193 -19.7332,10.58853 z m -3.85029,-31.28418 c 50.071,-25.03548 61.4074,18.48764 35.13456,44.7604 -13.79714,13.79713 -15.88272,23.58348 -6.25684,29.35898 8.34242,7.05903 18.44964,4.65254 30.32157,-7.21942 11.87194,-11.87193 19.41223,-33.53021 22.62089,-64.97485 0,-23.74386 -12.83453,-38.98485 -38.50359,-45.72298 -25.66908,-6.73814 -47.16698,-8.18202 -64.49354,-4.33167 -17.32665,3.85035 -28.87772,13.15539 -34.65321,27.91509 29.51937,4.49211 48.12948,11.23026 55.83016,20.21445 z m -1.9252,45.24172 c -3.20865,1.92516 -4.49211,3.85034 -3.85039,5.77552 0.64174,1.92517 2.24607,1.92517 4.81299,0 2.56693,-1.92518 2.24606,-3.85036 -0.9626,-5.77552 z m -76.04459,-14.43887 v -5.77553 l 7.70068,-7.70075 c 8.98424,-5.1338 20.21444,-2.56688 33.6907,7.70075 l 12.51367,0.9626 v 7.7007 l -13.47626,-3.85036 c -13.47626,5.77556 -25.98994,5.77556 -37.54109,0 z m 6.73808,-5.77553 c 2.56693,1.28344 5.45472,2.24604 8.66338,2.88776 -2.56693,-2.56689 -2.56693,-5.45466 0,-8.66335 -5.13386,1.2835 -8.02165,3.2087 -8.66338,5.77559 z m 16.36406,3.85035 c 3.85039,0 8.02154,-0.32088 12.51366,-0.96259 l -11.55107,-6.73811 c 2.56693,3.20864 2.24607,5.77553 -0.96259,7.7007 z m -37.07137,29.17724 c 0.16209,-5.81405 3.10935,-5.67466 7.23105,-0.78082 4.19145,4.97652 7.80782,3.04891 7.21943,-0.48131 -0.60284,-3.61688 0.99281,-5.65466 2.40645,0 1.16243,4.64914 -4.91202,10.94593 -10.58848,3.85034 -2.56683,-3.20864 -4.34325,-4.51342 -6.26845,-2.58821 z m 19.74481,18.95225 -16.36406,1.92522 c -3.26954,3.26945 -0.86376,3.85034 2.8877,3.85034 4.28331,0 10.62057,-3.87173 13.47636,-5.77556 z m 0,-1.92512 c 0.64163,-0.64177 -0.96269,-1.28351 -4.81299,-1.92523 -3.85039,-0.64173 -7.21942,-1.12302 -10.10722,-1.44385 -6.41363,-0.71267 -6.91141,2.18821 -3.36904,3.36908 z M 455.85994,706.24032 C 399.5881,636.292 356.92038,594.57974 327.85685,581.10349 v 231.98426 c 45.7596,-42.99563 88.42733,-78.61153 128.00309,-106.84743 z m 149.56855,-65.4562 c -1.92519,-39.78708 -2.08548,-67.86264 -0.48096,-84.22663 1.60423,-16.36406 6.41722,-45.24177 14.43877,-86.63315 8.02164,-41.39139 15.24107,-68.82522 21.65828,-82.30148 0,-14.11798 -8.98413,-21.97916 -26.95252,-23.58347 -17.96858,-1.6043 -29.84051,-5.61508 -35.616,-12.03237 -5.77558,-6.41726 -8.3425,-22.13956 -7.70077,-47.16689 -2.56693,-5.77557 -6.09645,-12.51369 -10.58857,-20.21441 -4.49203,-7.70072 -2.24596,-15.40144 6.73818,-23.10218 8.98424,-7.70072 16.20358,-17.16619 21.6583,-28.39643 11.41446,-23.50032 -10.7634,-32.71931 -26.95253,-15.88272 -8.02156,8.34246 -11.71155,8.0216 -11.06982,-0.9626 -14.75973,-10.90935 -34.01149,-17.00576 -57.75535,-18.2892 -2.56693,3.20863 -5.77559,7.70072 -9.62588,13.47628 9.62588,-3.85038 18.93089,-3.20866 27.91503,1.92517 8.98424,5.13379 16.36406,7.70069 22.13964,7.70069 v 5.77559 c -8.98424,-1.28345 -17.96838,-4.17124 -26.95263,-8.66333 -8.98414,-4.49208 -17.64742,-4.49208 -25.98992,0 -7.70069,7.70073 -15.72224,21.49785 -24.06474,41.39135 8.3425,3.85036 12.51375,8.34244 12.51375,13.4763 8.98415,0.64171 15.24098,2.40648 18.77041,5.29425 3.52953,2.88777 -0.80211,7.54029 -12.99492,13.95755 -3.20865,14.11798 5.13386,20.05395 25.02743,17.80794 19.89349,-2.24604 30.48196,8.50286 31.76542,32.24677 0.64173,16.04316 -13.79712,24.06473 -43.31658,24.06473 -24.3856,0.64173 -36.57841,9.62592 -36.57841,26.95257 0,50.05468 14.43887,104.60144 43.31649,163.64029 5.13386,34.01154 5.77559,77.64894 1.9252,130.91224 z m 47.16698,-206.9569 c -18.61012,107.81014 -21.49782,186.58208 -8.66328,236.31586 12.83454,49.7338 11.87184,85.51009 -2.88798,107.32886 18.61012,0 27.91512,9.30501 27.91512,27.91503 -12.1928,48.7713 -21.81867,90.1626 -28.87763,120.32368 -0.64182,9.62588 -11.87203,15.72233 -33.6907,18.28935 h -28.87763 c -26.95243,-14.75973 -26.95243,-22.13964 0,-22.13964 39.78706,-19.89358 47.48784,-45.56246 23.10224,-73.15671 -30.80292,7.05895 -80.13575,25.18781 -141.97297,54.3863 -61.83724,29.19859 -103.26821,42.29148 -124.29284,42.29148 -19.16959,0 -34.78348,-7.95913 -46.84173,-26.89002 -12.05825,-18.93098 -14.06793,-36.09714 -6.02913,-51.4986 3.71026,-7.70068 12.98583,-18.61003 27.82678,-32.72802 l 0.92756,-137.65044 c 0,39.78707 -8.65727,77.64894 -25.97165,113.5857 -17.31445,35.93668 -18.67891,65.45613 -13.73189,88.55827 4.94701,23.10214 3.40107,38.18273 -4.63783,45.24168 H 97.076304 c -23.399085,-6.73188 -16.287241,-21.66337 0,-27.91503 40.812516,-10.90934 69.721486,-17.00579 86.726666,-18.28925 17.00528,-1.28356 28.29061,-17.64761 33.85591,-49.09207 15.45933,-122.56984 30.1188,-211.12815 53.61694,-265.67495 8.0388,-15.40146 25.35327,-25.34823 51.94329,-29.8403 24.7349,4.49207 74.20467,47.48777 148.40934,128.9871 6.80215,-42.35396 8.02165,-83.74535 2.88779,-124.17416 -30.80291,-53.26332 -48.45034,-94.01297 -52.94245,-122.24893 l -7.70068,-58.71801 c 30.16109,-20.53527 61.60573,-32.08635 94.33384,-34.65325 l -3.85038,-21.17698 c -5.13386,1.28343 -11.23021,1.60429 -18.28926,0.96257 -14.11799,0 -21.01655,-4.49209 -20.69569,-13.47627 0.32087,-8.98417 -1.28346,-14.43886 -4.81289,-16.36403 -3.52953,-1.92518 -4.01087,-4.01079 -1.44395,-6.2568 2.56693,-2.24606 3.52953,-3.04823 2.8878,-2.4065 -6.00101,-1.2002 -8.85369,-6.43145 -1.9252,-10.5885 -2.56692,-2.56692 -6.25683,-4.65253 -11.06982,-6.25684 -4.81288,-1.60431 -4.97336,-7.54027 -0.48125,-17.80791 9.62588,-16.68492 18.28925,-29.51947 25.98993,-38.5036 12.19281,-41.71228 32.8885,-65.29575 62.08709,-70.75044 29.19859,-5.45465 56.3115,-2.88772 81.33884,7.70075 25.02733,10.58849 37.54109,30.00072 37.54109,58.2367 0.64164,36.57844 -5.77568,62.24749 -19.25185,77.00725 -13.47626,14.7597 -28.23598,20.85613 -44.27918,18.28923 l 0.9626,35.61578 c 31.44465,4.49212 60.32237,17.00578 86.63317,37.54102 z"
     id="path1-9"
     sodipodi:nodetypes="ccccssccssscsssssscscscsscccsscccccccccccccccccccsssscccsccssccccccccscsscsssscccsccscccscsccsccccscccccccssscccsscccsccccccccccsssccsccsscscccc" />
  <path
     style="fill:#000000;stroke:none;stroke-width:53.4145"
     d="M 896.69191,-0.00409399 V 23.385724 c 74.99551,0 112.53709,38.139143 112.53709,114.384436 v 284.98482 h -1.8456 c -16.8739,6.87463 -30.31791,17.82894 -40.31733,32.82797 -32.498,11.24934 -60.38182,16.92563 -83.50536,16.92564 -23.12354,0 -50.60526,2.19085 -82.47834,6.5656 C 757.33574,450.95091 718.59289,412.37589 679.548,374.14658 l -33.59231,45.84435 3.70868,31.38459 c 2.81214,-10.31188 10.38262,-10.11061 22.56936,0.51441 12.18671,10.62439 50.4227,38.70377 114.79374,84.32577 61.8712,-1.25007 128.08961,-21.5634 198.7103,-60.93595 l 23.49123,8.10328 V 944 h 34.6754 V 802.42745 l 39.3936,-44.93405 h -39.3936 v -17.84934 l 40.3154,-37.54614 h -40.3154 v -16.82421 l 41.2391,-37.54614 h -41.2391 v -17.74794 l 40.3154,-38.46985 h -40.3154 v -17.74795 l 40.3154,-40.31729 h -40.3154 v -17.84935 l 40.3154,-37.54613 h -40.3154 v -17.74795 l 39.3936,-45.03544 h -39.3936 v -17.74794 l 40.3154,-36.62242 -40.3154,-0.92371 v -16.82424 l 41.2391,-37.54612 h -41.2391 v -17.8512 l 40.3154,-38.3666 h -40.3154 v -17.84935 l 40.3154,-40.3173 h -40.3154 v -17.74794 l 40.3154,-37.54613 h -40.3154 c 0,-90.619411 -49.09341,-135.92681399 -147.21249,-135.92681399 z"
     id="path13"
     sodipodi:nodetypes="ccscccsccccccccccccccccccccccccccccccccccccccccccccccc" />
  <rect
     style="fill:none;fill-rule:evenodd;stroke:#613583;stroke-width:18;stroke-miterlimit:5;stroke-dasharray:none"
     id="rect1"
     width="1066.2198"
     height="38"
     x="9"
     y="953" />
</svg>
