<?xml version="1.0" encoding="UTF-8" standalone="no"?>
<svg
   width="800"
   height="1000"
   id="svg1972"
   sodipodi:version="0.32"
   inkscape:version="1.4.3 (0d15f75, 2025-12-25)"
   sodipodi:docname="1380F.svg"
   version="1.1"
   xmlns:inkscape="http://www.inkscape.org/namespaces/inkscape"
   xmlns:sodipodi="http://sodipodi.sourceforge.net/DTD/sodipodi-0.dtd"
   xmlns:xlink="http://www.w3.org/1999/xlink"
   xmlns="http://www.w3.org/2000/svg"
   xmlns:svg="http://www.w3.org/2000/svg"
   xmlns:rdf="http://www.w3.org/1999/02/22-rdf-syntax-ns#"
   xmlns:cc="http://creativecommons.org/ns#"
   xmlns:dc="http://purl.org/dc/elements/1.1/">
  <metadata
     id="metadata1979">
    <rdf:RDF>
      <cc:Work
         rdf:about="">
        <dc:format>image/svg+xml</dc:format>
        <dc:type
           rdf:resource="http://purl.org/dc/dcmitype/StillImage" />
      </cc:Work>
    </rdf:RDF>
  </metadata>
  <defs
     id="defs1977" />
  <sodipodi:namedview
     inkscape:window-height="998"
     inkscape:window-width="1680"
     inkscape:pageshadow="2"
     inkscape:pageopacity="0.0"
     guidetolerance="10.0"
     gridtolerance="10.0"
     objecttolerance="10.0"
     borderopacity="1.0"
     bordercolor="#666666"
     pagecolor="#ffffff"
     id="base"
     inkscape:showpageshadow="2"
     inkscape:pagecheckerboard="0"
     inkscape:deskcolor="#d1d1d1"
     inkscape:zoom="0.6393287"
     inkscape:cx="563.8727"
     inkscape:cy="182.22238"
     inkscape:window-x="-8"
     inkscape:window-y="-8"
     inkscape:window-maximized="1"
     inkscape:current-layer="svg1972"
     showguides="true">
    <sodipodi:guide
       position="476.00373,716.21708"
       orientation="1,0"
       id="guide2"
       inkscape:locked="false" />
    <sodipodi:guide
       position="459.53315,810.86499"
       orientation="1,0"
       id="guide3"
       inkscape:locked="false" />
  </sodipodi:namedview>
  <path
     style="fill:#26a269;stroke:none;stroke-width:49.6613"
     d="m 348.50991,142.23191 c -2.82789,-0.02 -5.78293,0.13031 -8.86526,0.45017 -17.67982,2.4426 -26.12845,7.07962 -25.34331,13.91311 0.49437,5.49584 8.31667,7.64862 23.46662,6.45638 -9.68319,7.00798 -13.0268,23.84346 -10.03169,50.50857 2.84973,25.99629 6.23811,39.96914 10.16374,41.91741 l 18.70888,6.29632 19.35112,-1.72464 -3.42727,-4.74575 c -13.49248,-4.071 -11.47231,-31.82645 6.06223,-83.26661 2.87873,-12.5329 0.18947,-20.87901 -8.06896,-25.0372 -6.19376,-3.1187 -13.53241,-4.70778 -22.0161,-4.76776 z m -6.11825,8.25704 c 21.7508,0.17446 30.70827,5.93168 26.86988,17.27236 -10.70092,34.5454 -16.01228,57.19583 -15.27034,68.20696 0.7029,10.43206 3.11099,15.36748 7.17498,21.36651 l -9.57113,-1.68317 c -6.31007,-0.0291 -11.18009,-14.37828 -14.61137,-43.04983 -2.76249,-28.81695 1.01725,-43.6471 11.34016,-44.49035 l 17.49043,-1.70062 -0.74027,-8.24503 c -27.77002,1.13404 -41.94606,0.36439 -42.52763,-2.31086 0.0872,-2.82062 3.61901,-4.28931 10.59789,-4.40561 -0.0873,2.82063 1.28089,4.27432 4.10151,4.3616 3.48948,-0.0582 5.20397,-1.83252 5.14589,-5.32196 z"
     id="path8"
     sodipodi:nodetypes="sccccccccccsccscccccccccc"
     inkscape:transform-center-x="129.02254"
     inkscape:transform-center-y="78.773355" />
  <use
     x="0"
     y="0"
     xlink:href="#path8"
     inkscape:transform-center-x="-129.02254"
     inkscape:transform-center-y="78.773355"
     id="use8"
     transform="matrix(-1,0,0,1,952.00756,0)"
     style="stroke-width:0.976203" />
  <path
     style="fill:#000000;stroke:none;stroke-width:42.8064"
     d="m 188.90984,652.5111 c 9.75744,-12.75977 22.89245,-20.26549 39.40507,-22.51718 -21.76661,-20.26548 -42.78264,-25.70714 -63.04809,-16.32497 -20.26544,9.38215 -21.39131,13.69794 -3.37757,12.94735 18.01373,-0.75053 27.02059,7.88107 27.02059,25.8948 z m 57.41879,-424.44865 c -3.00229,15.76201 -0.75058,28.14646 6.75513,37.15332 7.50575,9.00687 18.38906,13.5103 32.64992,13.5103 h 28.14644 c 0,-3.00225 -14.26087,-6.00457 -42.78258,-9.00687 -15.76203,-7.50572 -23.64304,-15.38672 -23.64304,-23.64303 l 1.12586,-1.12584 h 2.25173 c 6.00456,15.01146 19.13955,22.51719 39.405,22.51719 15.76203,0 27.77118,5.62928 36.02748,16.88787 12.00915,7.50571 21.3913,11.25856 28.14645,11.25856 8.2563,0 21.20367,-3.0023 38.84211,-9.00688 17.63847,-6.00456 33.58813,-4.5034 47.84899,4.50347 l 7.88105,-3.37758 c -5.25403,-8.2563 -13.51033,-12.38445 -24.76892,-12.38445 l -42.78259,4.50341 c -6.75518,0 -18.76434,-3.75284 -36.02747,-11.25856 -17.26318,-7.50572 -35.27692,-11.25858 -54.04125,-11.25858 -18.01371,0 -29.45991,-4.50342 -34.33865,-13.5103 -4.87874,-9.00686 -7.69337,-14.26086 -8.44393,-15.76203 z m 478.48978,1.12584 c -0.75069,11.25859 -4.87867,21.57897 -12.3844,30.96113 -7.50572,9.38215 -22.14187,15.1991 -43.90847,17.45081 v 1.12584 c 24.01829,0 39.59269,-5.44163 46.72315,-16.32492 7.13041,-10.88332 10.32031,-21.95427 9.56972,-33.21286 z m -5.62925,0 c -5.25399,19.5149 -14.44851,29.45998 -27.58354,29.83528 -13.135,0.37536 -25.33181,-0.93826 -36.59038,-3.94051 -11.25857,-3.00228 -25.51945,0.37534 -42.78264,10.13271 -17.26314,9.75744 -38.65443,14.63615 -64.17392,14.63615 -16.5126,0 -34.15106,10.8833 -52.91536,32.64992 h 1.12586 c 16.5126,-16.5126 33.0252,-24.76888 49.53777,-24.76888 18.76434,0 33.58811,1.31348 44.47142,3.94047 10.88329,2.627 23.64302,-0.18769 38.27921,-8.44393 14.63614,-8.25627 33.58807,-14.07321 56.85582,-17.45078 23.26772,-3.37757 34.90161,-15.57439 34.90161,-36.59043 z M 455.73827,423.96181 c 0,-14.26087 8.63158,-28.52173 25.89476,-42.78259 9.00687,-0.75059 12.75974,-10.13276 11.25861,-28.14649 -9.0069,0.75056 -19.32727,3.75285 -30.96112,9.00688 -11.63385,5.25399 -21.57893,7.88099 -29.83524,7.88099 -18.76432,0 -28.14649,-4.50342 -28.14649,-13.51029 v 0 c 0,-8.25628 11.63389,-15.76201 34.90165,-22.51719 14.26087,-10.50799 31.52401,-16.13728 51.78946,-16.88787 l -4.50342,-5.62926 c 3.00229,-3.75288 9.94508,-11.07095 20.8284,-21.95424 10.88326,-10.88331 30.58577,-16.32498 59.10752,-16.32498 v -2.25168 c -15.76199,-6.75516 -28.89699,-10.13273 -39.40502,-10.13273 -13.51033,0 -29.27235,7.88101 -47.28609,23.64303 -15.76202,10.50802 -28.52173,16.13731 -38.27917,16.88787 -3.75286,3.00228 -7.13044,4.87872 -10.13272,5.62931 v 1.12584 l 13.51035,-1.12584 c 2.25168,0.75058 3.00226,2.25169 2.25168,4.50342 0,1.50115 -7.88101,2.62699 -23.64302,3.37757 -8.25631,0.75058 -15.76203,6.00458 -22.51719,15.76202 -1.50114,0 -3.18993,0 -5.06636,0 -1.87641,0 -2.43936,-1.12587 -1.68878,-3.3776 6.00458,-11.25859 15.01145,-17.26317 27.02059,-18.01372 h -4.50341 c -10.50803,0 -19.51489,5.25401 -27.0206,15.76202 -12.75973,2.25173 -30.77348,13.51031 -54.0412,33.77576 -3.00231,0.75056 -5.25403,2.62699 -6.75515,5.62931 h 12.38442 c 1.50114,0 2.06409,1.31347 1.68883,3.94047 -0.37539,2.62699 -1.6888,3.94051 -3.94052,3.94051 h -10.13273 c -3.00231,0 -4.50346,1.50117 -4.50346,4.50342 0,2.25174 1.12584,4.50344 3.37757,6.75516 l 19.13961,-12.38441 c 3.0023,0 4.12814,1.50115 3.37757,4.50341 l -18.01372,12.38446 v 1.12584 h 66.42562 c 17.26316,0 28.14647,6.5675 32.6499,19.70251 4.50344,13.135 12.75973,18.20136 24.76887,15.19909 z M 372.42479,269.7192 v 0 c 8.25627,2.25173 25.51943,1.87642 51.78946,-1.12584 13.51034,-1.50115 24.39363,3.37757 32.64991,14.63614 l 11.25856,-5.62927 c -10.50801,-9.75745 -25.14416,-14.63618 -43.90847,-14.63618 -9.75742,0 -27.02058,2.25172 -51.78946,6.75515 z m 142.98403,234.17855 c 0,-22.51716 13.13499,-33.5881 39.40502,-33.21281 26.27001,0.37539 39.405,11.07093 39.405,32.08697 l 7.88104,60.79635 h 50.66366 v -60.79635 c 0,-54.0412 -11.25861,-99.8261 -33.77578,-137.35472 -22.51719,-37.52863 -46.53548,-56.29293 -72.05493,-56.29293 -13.51029,0 -25.51944,4.12815 -36.02747,12.38445 v 42.78264 c 0,16.51257 -5.25401,24.76886 -15.76204,24.76886 -12.00914,9.75742 -18.389,19.13957 -19.13956,28.14644 l -16.88787,146.36161 h 43.90848 z M 421.96257,318.13113 c 4.5034,0 7.88098,2.62701 10.13271,7.88099 0,5.254 -6.37987,9.00688 -19.13959,11.25862 -4.50343,0 -6.75516,-1.50115 -6.75516,-4.50346 0,-7.50572 5.25401,-12.38443 15.76204,-14.63615 z m 73.18075,4.50342 v 22.51719 h 3.37763 v -23.64303 z m -5.6293,1.12584 v 21.39135 h 1.12588 v -22.51719 z m -76.55833,31.52406 c 4.50342,5.254 11.63386,7.31808 21.39129,6.19222 9.75745,-1.12585 25.51947,-6.19223 47.28605,-15.19909 h 1.12589 v -20.26546 c -14.2609,0 -27.7712,4.87872 -40.5309,14.63614 -19.51489,7.50575 -29.27233,12.38448 -29.27233,14.63619 z m 25.89475,208.28381 16.88783,-113.7117 c -3.75284,-8.2563 -9.38212,-8.2563 -16.88783,0 l -19.1396,113.7117 z m 175.6339,19.13956 c -6.75519,98.32499 -24.76892,217.29069 -54.04125,356.89717 l 57.41882,59.67044 H 199.04258 l -4.50343,-37.15333 72.05493,-31.52397 h 1.12587 C 217.4316,788.73995 182.90527,695.29369 164.14098,650.25937 144.6261,646.5065 131.67872,638.62547 125.29886,626.6163 c -6.37987,-12.00912 6.5675,-24.76883 38.84212,-38.27916 V 427.33938 c -2.25172,-21.76658 -6.75515,-30.02287 -13.5103,-24.76887 -6.75515,5.25399 -15.76202,16.1373 -27.0206,32.64991 -11.25858,42.03202 -27.771184,58.5446 -49.537786,49.53774 23.267734,-50.28833 38.466826,-84.43937 45.597276,-102.4531 7.13044,-18.01373 19.32724,-35.65219 36.59037,-52.91535 17.26317,-17.26317 31.89934,-40.53092 43.90852,-69.80324 15.01143,12.00918 16.32492,27.58356 3.94048,46.72315 -12.38446,19.1396 -22.70482,37.34096 -30.96112,54.60409 13.51033,21.01605 19.89019,41.28152 19.13961,60.7964 v 166.62703 c 21.7666,-2.25173 47.28605,11.25857 76.55837,40.53089 l 133.97715,181.26321 h 1.12584 c 11.2586,-96.82384 22.89247,-172.63162 34.90165,-227.42342 h -38.27922 l 18.01372,-111.45997 c 0,-15.76201 4.12816,-28.52174 12.38446,-38.27916 -10.50802,-6.00459 -16.5126,-13.51032 -18.01371,-22.51719 -1.50117,-9.00686 -20.26547,-12.38445 -56.29294,-10.13273 l 4.50343,15.76204 h -38.27917 l 4.50341,-19.13961 c -3.00228,-0.75056 -4.50341,-3.37755 -4.50341,-7.88099 -6.00459,-3.75287 -9.00689,-7.50572 -9.00689,-11.25857 0,-3.75288 1.50115,-7.13046 4.50347,-10.13277 0,-9.00687 5.25399,-15.76201 15.76198,-20.26545 16.5126,-15.76202 32.27464,-25.89474 47.28609,-30.39817 7.50571,-13.51031 22.89246,-19.13958 46.16021,-16.88784 l 4.50341,-1.12588 c -5.25402,-1.50115 -11.63387,-2.25173 -19.13959,-2.25173 -7.50574,0 -17.07554,2.06409 -28.70939,6.19225 -11.63388,4.12815 -21.95426,5.81692 -30.96112,5.06636 -9.75743,0 -21.7666,-5.62929 -36.02748,-16.88787 h -30.39817 c -19.51487,0 -33.02517,-5.44166 -40.5309,-16.32498 -7.50572,-10.88329 -11.25858,-21.95422 -11.25858,-33.21281 0,-18.01373 3.37758,-27.77117 10.13273,-29.27233 6.00459,-0.75056 11.07094,4.50346 15.19908,15.76203 4.12815,11.25859 16.13731,16.51261 36.02748,15.76203 19.89016,-0.75059 41.46911,3.75285 64.73684,13.5103 33.02518,-6.00459 54.04121,-9.00688 63.04807,-9.00688 21.01602,0 38.27918,6.00458 51.78951,18.01371 17.26314,-14.26084 32.27458,-21.39128 45.03432,-21.39128 12.75973,0 25.89475,3.00229 39.40501,9.00689 15.01145,7.50571 31.33643,6.00455 48.97489,-4.50348 17.63845,-10.50798 33.40043,-13.88556 47.28601,-10.13271 13.8856,3.75286 25.33185,6.5675 34.33872,8.44393 9.00684,1.87646 16.13726,-6.1922 21.3913,-24.20592 2.25172,-8.25631 6.37984,-12.38446 12.3844,-12.38446 9.0069,0 13.51035,7.50573 13.51035,22.51718 0,12.00915 -5.25398,25.89473 -15.76202,41.65675 -9.00688,11.25857 -28.89703,15.01144 -59.67052,11.25856 -16.51255,3.00231 -28.14643,7.13046 -34.90158,12.38446 -6.75515,5.25403 -18.38904,7.88104 -34.90164,7.88104 28.52175,18.76429 48.97484,47.09839 61.35929,85.00227 12.38445,37.90392 18.57667,74.8696 18.57667,110.89707 v 79.93591 z m -31.52407,0 -9.00684,-78.81007 c 0,-9.00686 -6.37988,-13.51029 -19.13959,-13.51029 -13.51031,0 -20.26546,4.50343 -20.26546,13.51029 l -13.5103,78.81007 H 466.99684 C 449.7337,645.00533 437.72455,733.57285 430.9694,848.41045 L 406.20053,861.92069 260.96476,667.14724 c -36.02743,-20.26547 -50.2883,-7.50577 -42.78259,38.27917 l 87.81695,238.68194 -64.17391,28.14652 H 550.31037 L 526.66738,957.61865 C 567.19824,768.4745 585.96254,643.50421 582.96027,582.70782 Z"
     id="path1974"
     sodipodi:nodetypes="ccssccsccccccscssccccssscccsccscccssssccsssscccccsscccccsccscccccsssssccccccsccsccccccscccsccsccsccccssccccccccsssccccccccccccsccccccccccccccccccsccsccsscsccccccccccscccccscccccsssccssssscscssssssssccscscccccsccccccccccccc" />
  <circle
     style="fill:none;fill-rule:evenodd;stroke:#613583;stroke-width:15;stroke-linecap:round;stroke-miterlimit:5;stroke-dasharray:none"
     id="path2"
     cx="476.00372"
     cy="201.7411"
     r="50.322861" />
  <path
     style="fill:none;stroke:#813d9c;stroke-width:15;stroke-linecap:butt;stroke-linejoin:miter;stroke-dasharray:none;stroke-opacity:1"
     d="m 459.13168,154.33093 8.2e-4,-101.019214 c 0,-33.541425 -17.31523,-45.6288918 -39.15919,-45.6288918 -31.54141,5.2e-6 -44.94327,43.8376048 -7.4977,57.2908338 L 385.46281,226.9198 c 21.91082,1.58719 43.62407,11.0242 65.13975,28.311"
     id="path3"
     sodipodi:nodetypes="cccccc"
     inkscape:transform-center-x="56.805211"
     inkscape:transform-center-y="0.47273357" />
  <use
     x="0"
     y="0"
     xlink:href="#path3"
     inkscape:transform-center-x="-56.80521"
     inkscape:transform-center-y="0.47273357"
     id="use9"
     transform="matrix(-1,0,0,1,952.00756,0)"
     style="stroke-width:0.976203" />
</svg>
