<?xml version="1.0" encoding="UTF-8" standalone="no"?>
<svg
   width="800"
   height="1000"
   id="svg2160"
   sodipodi:version="0.32"
   inkscape:version="1.4.3 (0d15f75, 2025-12-25)"
   sodipodi:docname="13818.svg"
   inkscape:output_extension="org.inkscape.output.svg.inkscape"
   sodipodi:modified="true"
   version="1.1"
   xmlns:inkscape="http://www.inkscape.org/namespaces/inkscape"
   xmlns:sodipodi="http://sodipodi.sourceforge.net/DTD/sodipodi-0.dtd"
   xmlns="http://www.w3.org/2000/svg"
   xmlns:svg="http://www.w3.org/2000/svg"
   xmlns:rdf="http://www.w3.org/1999/02/22-rdf-syntax-ns#"
   xmlns:cc="http://creativecommons.org/ns#"
   xmlns:dc="http://purl.org/dc/elements/1.1/">
  <metadata
     id="metadata2167">
    <rdf:RDF>
      <cc:Work
         rdf:about="">
        <dc:format>image/svg+xml</dc:format>
        <dc:type
           rdf:resource="http://purl.org/dc/dcmitype/StillImage" />
      </cc:Work>
    </rdf:RDF>
  </metadata>
  <defs
     id="defs2165" />
  <sodipodi:namedview
     inkscape:window-height="998"
     inkscape:window-width="1680"
     inkscape:pageshadow="2"
     inkscape:pageopacity="0.0"
     guidetolerance="10.0"
     gridtolerance="10.0"
     objecttolerance="10.0"
     borderopacity="1.0"
     bordercolor="#666666"
     pagecolor="#ffffff"
     id="base"
     inkscape:zoom="1.0677312"
     inkscape:cx="370.41157"
     inkscape:cy="312.34452"
     inkscape:window-x="-8"
     inkscape:window-y="-8"
     inkscape:current-layer="svg2160"
     inkscape:showpageshadow="2"
     inkscape:pagecheckerboard="0"
     inkscape:deskcolor="#d1d1d1"
     inkscape:window-maximized="1"
     showguides="true" />
  <path
     style="fill:#000000;stroke:none;stroke-width:48.8638"
     d="m 1.8269145,511.71946 v 13.13775 c 24.0855005,24.81532 49.0844995,42.51606 74.9946385,53.0991 25.910107,10.583 39.229257,24.9964 39.959127,43.24301 L 100.35903,1000 h 84.29826 L 169.33173,621.19932 c 0,-18.24661 12.95511,-32.66001 38.86523,-43.24301 25.91014,-10.58304 50.90692,-28.28378 74.99243,-53.0991 v -13.13775 z"
     id="path3"
     sodipodi:nodetypes="ccsccccsccc" />
  <path
     style="fill:#000000;stroke:none;stroke-width:48.8638"
     d="m 541.1387,152.43199 c -1.53015,0.065 -3.44784,0.52867 -5.81988,1.39539 l -0.32365,9.61067 c 2.18958,5.10904 1.82249,12.40759 -1.09692,21.8958 l -43.79164,19.70584 -168.98419,21.23883 c -46.49626,17.15719 -78.38541,36.68405 -117.06255,60.91795 -18.3922,8.01904 -34.03729,18.14299 -43.96216,30.9774 -3.19016,4.85046 -6.04738,12.03386 -8.57383,21.54116 -2.52627,9.50772 -6.67485,17.45435 -8.72305,25.16526 -1.06553,4.01126 3.61474,7.3386 10.07192,9.59709 6.4575,2.26093 18.80852,-26.35132 18.80852,-26.35132 1.68423,-6.33819 7.38078,-15.0041 17.08758,-25.99668 3.66464,-2.556 4.70455,-1.87152 3.12022,2.05237 -1.58457,3.92399 -4.34868,7.93741 -8.29087,12.04677 -3.94179,4.11174 -6.30464,7.89258 -7.08736,11.34908 -0.78328,3.45365 0.38061,5.46238 3.49038,6.01756 2.77325,1.82402 5.23389,-0.0373 7.38388,-5.57181 2.14986,-5.53588 7.53845,-11.35223 15.43249,-18.07597 7.89402,-6.72376 10.6787,-8.00268 15.19606,-20.91711 46.11073,-27.38252 57.15594,-18.17721 105.44797,-41.60553 49.93122,-3.09126 94.75301,-3.63148 141.46423,-8.7405 l 10.94791,16.42283 19.95779,-5.46329 c 0.23919,-0.21338 0.44885,-0.40307 0.63566,-0.57172 l -10.74053,-23.52375 c 19.70629,-25.54517 30.01178,-37.45622 53.3674,-37.45622 4.47041,-37.04055 12.75566,-56.115 2.04462,-55.6601 z"
     id="path8"
     sodipodi:nodetypes="sccccccccsccccccccsccccccccs" />
  <path
     style="fill:#f9f06b;stroke:#000000;stroke-width:1px;stroke-linecap:butt;stroke-linejoin:miter;stroke-opacity:1"
     d="m 103.70364,364.92734 2.31175,22.78733 70.34346,-2.31177 -0.99075,-21.13606 z"
     id="path9" />
  <path
     style="fill:#000000;stroke:none;stroke-width:48.8638"
     d="m 582.01167,133.87152 v 1.52329 l 3.34115,-0.42249 c -3.64933,35.76331 4.0163,64.59432 22.99273,86.4902 18.97647,21.89591 27.18686,52.36706 24.63231,91.41472 -2.55456,39.04772 -2.37296,73.1681 0.54652,102.36264 l -89.77128,24.08578 c -5.83888,-37.95285 -12.22756,-68.60562 -19.16126,-91.96125 -2.47691,-8.34323 -3.61094,-11.62229 -5.66872,-18.38217 13.43057,-11.75877 26.30808,-23.25379 37.96785,-34.16933 20.43643,-21.89589 26.09258,-38.68372 16.96935,-50.36153 -9.12328,-11.67786 -18.79607,-14.23176 -29.01417,-7.66295 -58.42805,47.99442 -70.41367,69.64604 -131.37488,128.09186 -46.62975,16.58403 -46.49666,31.79774 -102.91109,47.62504 -22.70506,-7.86239 -28.85908,-3.72961 -40.05898,3.78302 -11.19993,7.51266 -20.69261,11.79556 -28.47928,12.84717 -7.78672,1.0516 -11.06127,3.14431 -9.82386,6.27726 -0.0914,4.08385 2.18942,6.21744 6.84317,6.40324 4.65373,0.18581 10.04243,-1.40804 16.16508,-4.78498 6.12261,-3.37688 12.12787,-5.16347 18.01588,-5.35864 4.74823,-0.38413 5.12773,0.84895 1.1415,3.70163 -16.99347,7.13793 -29.6205,10.90178 -37.88259,11.28899 -8.26214,0.38725 -19.65949,0.25462 -34.19065,-0.39729 0,0 -4.38664,6.15407 -3.76169,14.74838 0.62495,8.5943 3.45576,13.60152 8.49048,15.02162 10.16082,-1.24365 21.36549,-1.72945 33.61698,-1.45545 12.25152,0.27404 21.74958,-0.49391 28.49092,-2.30431 18.98659,-8.56428 34.09636,-19.83338 48.9991,-28.48898 48.79858,-14.11705 67.44144,-21.03902 112.86285,-41.68499 25.22439,-20.0311 48.42229,-39.09569 69.68752,-57.24151 13.53294,41.24629 22.05545,74.76267 24.46369,98.84511 l -52.55149,248.52075 v -1.09692 c -17.51669,107.2899 -30.65332,174.07221 -39.41169,200.34727 -9.48824,27.0049 -20.25252,48.04481 -32.29526,52.05923 -12.04276,4.0143 -32.29825,12.22659 -60.76292,24.63425 -18.97641,3.64936 -30.47095,10.03412 -34.48522,19.15738 -4.01427,9.12299 3.83102,13.32124 23.53732,12.59137 25.54524,0 44.34026,-1.46082 56.38298,-4.37997 12.04271,-2.91954 27.73515,-2.37289 47.07658,1.64151 19.34136,4.01413 28.64517,-2.7375 27.91532,-20.2543 2.91948,-32.84384 15.69286,-78.1499 38.31864,-124.86116 22.62574,-46.71126 32.84325,-81.74547 30.65374,-105.10107 -2.18964,-23.3556 5.10894,-41.9671 21.89582,-55.83451 l 73.35232,1.09692 c 15.32714,105.83014 24.8162,174.07102 28.46572,204.72526 0.72988,25.54525 -3.46803,48.22545 -12.59134,56.98376 -9.12325,8.75836 -27.91641,14.2315 -56.38105,16.4209 -16.057,10.21807 -24.6326,17.70009 -25.72729,22.44427 -1.09479,4.74429 4.19456,7.11641 15.87243,7.11641 12.40764,0 27.18836,-0.36515 44.34009,-1.09497 17.1518,-0.72992 37.5889,-0.72992 61.30943,0 23.72073,0.72982 31.56579,-6.93389 23.53732,-22.9908 -8.02828,-50.36057 -8.94032,-104.42573 -2.73649,-151.13691 6.20386,-46.71127 2.37098,-90.86575 -11.49637,-132.46792 v -1.09692 L 666.37003,537.85875 c 13.8674,-38.68275 9.48787,-82.84104 -13.13787,-132.4718 -5.10914,-22.62571 -5.65595,-47.80554 -1.64151,-75.54035 4.01412,-27.73483 2.37022,-52.36787 -4.92839,-73.89884 -7.29865,-21.53095 -25.35689,-40.50675 -41.00281,-54.98567 -15.1063,-13.97948 -15.07419,-39.15032 -13.61462,-66.88513 z m 56.98763,305.45414 c 21.89586,27.00495 24.08661,59.48528 6.5699,97.4381 l 19.70391,132.46986 H 502.1495 l 40.50668,-205.82217 z"
     id="path2"
     sodipodi:nodetypes="cccssccsccscccsscssccscscsccccccccscsccccsscccscsssscscccccsscccccccc" />
  <path
     style="fill:#000000;stroke:none;stroke-width:48.8638"
     d="m 187.02641,383.37358 c 8.58983,4.87532 16.36712,12.82672 23.33183,23.8542 6.9647,11.02744 10.56312,23.27374 10.79527,36.73887 0,15.32229 -6.50038,30.93485 -19.50118,46.83764 -13.00081,15.90281 -33.08238,24.43456 -60.24477,25.59533 C 114.01302,515.2394 93.873392,506.70763 80.98868,490.80429 68.103957,474.9015 61.6616,459.17286 61.6616,443.61838 c 0.232181,-13.23294 3.830615,-25.30514 10.795313,-36.21659 6.964716,-10.91129 14.625906,-18.80461 22.98355,-23.67995 v -26.11765 h 91.585947 z m -16.01883,-3.13402 v -11.14355 h -58.8518 v 11.14355 z m -29.60002,10.79527 c -28.091,0 -45.967097,6.26821 -53.628278,18.80464 -7.66119,12.53656 -11.491775,23.91229 -11.491775,34.12718 0,15.32229 6.384319,28.78736 19.152956,40.39521 12.768637,11.60797 28.090987,17.41194 45.967097,17.41194 17.64394,0 32.85024,-5.80397 45.61885,-17.41194 12.76864,-11.60785 19.26905,-25.189 19.50122,-40.74348 0,-9.98272 -4.70121,-21.24235 -14.10356,-33.77891 -9.40236,-12.53643 -26.40786,-18.80464 -51.01651,-18.80464 z"
     id="path4"
     sodipodi:nodetypes="cscscccccccccccccssscsccss" />
  <path
     style="fill:#f9f06b;stroke:none;stroke-width:1px;stroke-linecap:butt;stroke-linejoin:miter;stroke-opacity:1"
     d="m 473.64627,282.95343 11.86409,-109.77211 28.92879,-35.18951 103.31498,-9.60072 29.80803,104.66097 -7.19069,69.38783 -21.61269,5.34533 -40.45497,-71.85294 -38.64534,-3.2247 -36.77466,33.25178 z"
     id="path6"
     sodipodi:nodetypes="ccccccccccc" />
  <path
     id="path1"
     style="fill:#000000;stroke:none;stroke-width:32.6186"
     d="m 446.116,90.021846 c -8.84417,1.895163 -13.26814,6.000638 -13.26814,12.317894 0,2.52692 1.89568,3.78995 5.68604,3.78995 10.73932,-1.89519 16.11005,-5.05389 16.11005,-9.475975 -1.89522,-4.422069 -4.73761,-6.631869 -8.52795,-6.631869 z M 701.01732,0 c -5.0538,0 -8.52885,3.4750102 -10.42403,10.424024 -4.42211,15.161415 -10.42324,21.952251 -18.00393,20.372924 -7.58073,-1.579315 -17.21612,-3.948357 -28.90306,-7.106988 -11.68696,-3.15862 -24.95223,-0.316198 -39.79783,8.527944 -14.84556,8.844165 -28.58643,10.107204 -41.22096,3.789952 -11.37105,-5.053827 -22.42439,-7.579904 -33.16372,-7.579904 -10.73936,0 -23.37425,6.001154 -37.90394,18.003928 -11.37111,-10.10761 -25.90165,-15.162015 -43.58997,-15.162015 -7.58071,0 -25.26778,2.528283 -53.06376,7.58211 C 375.36263,30.639516 357.19997,26.848174 340.45922,27.479912 323.71847,28.11163 313.60968,23.689858 310.1352,14.213976 306.66068,4.7380825 302.3982,0.31632246 297.34439,0.94803964 291.65885,2.2114966 288.81423,10.422395 288.81423,25.583822 c 0,9.475903 3.15873,18.795013 9.47599,27.955045 6.31727,9.160047 17.68911,13.738842 34.11399,13.738842 h 25.58382 c 12.00281,9.475905 22.11159,14.213987 30.32403,14.213987 7.58072,0.631704 16.26719,-0.788379 26.05896,-4.262869 9.79176,-3.474511 17.84558,-5.213116 24.16288,-5.213116 6.31724,0 11.68795,0.632624 16.11005,1.89608 l -3.78996,0.94804 c -19.58352,-1.895197 -32.53471,2.842885 -38.85197,14.213976 -12.63453,3.790348 -25.90203,12.317593 -39.80002,25.583833 -8.84414,3.79037 -13.26595,9.47735 -13.26595,17.05809 -2.5269,2.52693 -3.78994,5.36929 -3.78994,8.52795 0,3.15862 2.52609,6.31735 7.57992,9.47598 0,3.79035 1.26526,6.00015 3.79215,6.63186 l -3.79215,16.11005 h 32.22009 l -3.79216,-13.26592 c 30.32288,-1.89519 46.11645,0.94724 47.37994,8.52794 1.2634,7.58072 6.31782,13.89814 15.16201,18.95197 -6.94901,8.21242 -10.42402,18.95166 -10.42402,32.21791 l -15.16202,93.8118 h 101.39395 l 11.36986,-66.33191 c 0,-7.58071 5.68478,-11.37206 17.05586,-11.37206 10.73935,0 16.11008,3.79135 16.11008,11.37206 l 7.57988,66.33191 h 75.8079 v -67.27995 c 0,-30.32287 -5.21144,-61.43445 -15.63494,-93.33667 -10.42348,-31.90216 -27.63716,-55.749648 -51.64278,-71.542788 13.89798,0 23.68824,-2.211959 29.37379,-6.634071 5.68554,-4.422088 15.47802,-7.897122 29.37598,-10.424035 25.90081,3.158643 42.64108,-8.9e-5 50.22183,-9.475983 C 707.96546,40.74552 712.38721,29.059578 712.38721,18.951968 712.38721,6.3174319 708.5981,0 701.01736,0 Z m -402.7271,14.213976 h 1.89608 c 0.63172,1.263457 3.00075,5.685216 7.10699,13.265936 4.10624,7.580719 13.73945,11.372063 28.90087,11.372063 15.79317,0 30.95411,3.156505 45.48383,9.473766 14.52969,6.317263 24.63847,9.475984 30.32403,9.475984 l 36.00786,-3.789952 c 9.47589,0 16.42594,3.475032 20.84805,10.424035 l -6.63408,2.841901 c -12.00277,-7.58072 -25.42735,-8.843746 -40.27293,-3.789953 -14.84558,5.053817 -25.74182,7.582123 -32.69082,7.582123 -5.68553,0 -13.58235,-3.158734 -23.68995,-9.475984 -6.94901,-9.475893 -17.05776,-14.213975 -30.32403,-14.213975 -17.05661,0 -28.10995,-6.317433 -33.16374,-18.951968 h -1.89608 l -0.94806,0.948039 c 0,6.94899 6.63376,13.58054 19.90002,19.89779 24.00558,2.526924 36.00785,5.055242 36.00785,7.582121 h -23.68995 c -12.00279,0 -21.16264,-3.791344 -27.47991,-11.372061 -6.31727,-7.58072 -8.21295,-18.003623 -5.68603,-31.269865 z m 397.9891,0.948039 h 0.94583 c 0,17.688341 -9.79029,27.951969 -29.37379,30.794732 -19.58352,2.842771 -35.53415,7.740128 -47.85282,14.689108 -12.31868,6.948934 -23.05786,9.31801 -32.21791,7.106988 -9.16003,-2.211044 -21.63784,-3.317035 -37.431,-3.317035 -13.89798,0 -27.7959,6.950066 -41.69389,20.848047 h -0.94805 c 15.79316,-18.320093 30.64002,-27.48213 44.53801,-27.48213 21.47874,0 39.48209,-4.105449 54.01177,-12.317884 14.52972,-8.212393 26.53197,-11.054858 36.00786,-8.527945 9.47589,2.526879 19.74176,3.632962 30.79695,3.317036 11.05524,-0.315883 18.79497,-8.686009 23.21704,-25.110917 z m 4.738,0 c 0.63173,9.475894 -2.05365,18.792771 -8.05503,27.952829 -6.00143,9.160023 -19.10966,13.741058 -39.32489,13.741058 v -0.94804 c 18.32008,-1.895173 30.63864,-6.790323 36.95589,-14.686891 6.31728,-7.896588 9.79219,-16.583062 10.42403,-26.058956 z M 534.24177,41.693888 c 8.84419,0 19.89749,2.842388 33.16374,8.527944 v 1.896079 c -24.00562,0 -40.58672,4.578796 -49.74671,13.738841 -9.16005,9.160035 -15.00411,15.320421 -17.531,18.479064 l 3.78994,4.737991 c -17.05662,0.63174 -31.58718,5.369821 -43.58996,14.213973 -19.58357,5.68557 -29.37379,12.00299 -29.37379,18.95197 0,7.58071 7.89677,11.36985 23.68996,11.36985 6.94899,0 15.31917,-2.20978 25.1109,-6.63186 9.79176,-4.4221 18.47823,-6.95039 26.05897,-7.5821 1.26344,15.16142 -1.89526,23.05822 -9.47599,23.68996 -14.52969,12.00278 -21.79608,24.00504 -21.79608,36.00784 -10.10763,2.52689 -17.05549,-1.73561 -20.84584,-12.79081 -3.79036,-11.05521 -12.95021,-16.58297 -27.47991,-16.58297 h -55.90787 v -0.94803 l 15.16202,-10.42404 c 0.63171,-2.52687 -0.31719,-3.78995 -2.84412,-3.78995 l -16.10785,10.42403 c -1.89518,-1.89518 -2.84412,-3.79083 -2.84412,-5.68604 0,-2.52686 1.26303,-3.78995 3.78995,-3.78995 h 8.53016 c 1.89519,0 2.99889,-1.10599 3.31483,-3.31704 0.31583,-2.21105 -0.15752,-3.31703 -1.42096,-3.31703 h -10.42403 c 1.26344,-2.52692 3.15912,-4.10628 5.68603,-4.73799 19.58351,-17.05659 34.74449,-26.53276 45.48385,-28.427949 6.31724,-8.844175 13.89992,-13.265936 22.74413,-13.265936 h 3.78994 c -10.1076,0.631707 -17.68811,5.686111 -22.7419,15.162019 -0.63176,1.895185 -0.15836,2.841906 1.42095,2.841906 h 4.26286 c 5.68553,-8.212434 12.00297,-12.634203 18.95196,-13.265933 13.26627,-0.631729 19.90002,-1.578444 19.90002,-2.841911 0.63172,-1.895175 -9.3e-4,-3.158226 -1.89608,-3.789954 l -11.36986,0.945834 v -0.945834 c 2.52691,-0.631739 5.36931,-2.2111 8.52794,-4.73799 8.21245,-0.631719 18.95165,-5.36979 32.21791,-14.213977 15.16145,-13.266265 28.42891,-19.900007 39.80001,-19.900007 z m -86.23189,1.893862 c 15.79315,0 28.11172,4.107655 36.9559,12.320112 l -9.47599,4.737993 c -6.94895,-9.475882 -16.1088,-13.583571 -27.47991,-12.320114 -22.11042,2.526892 -36.6388,2.843249 -43.58775,0.94804 20.84696,-3.790336 35.37532,-5.686031 43.58775,-5.686031 z m 103.28778,38.851985 c 21.47871,0 41.69405,15.793608 60.64586,47.379915 18.95179,31.58633 28.42795,70.12139 28.42795,115.60567 v 51.16987 h -42.64193 l -6.63409,-51.16987 c 0,-17.68835 -11.05552,-26.69104 -33.16594,-27.007 -22.11041,-0.31584 -33.16372,9.00328 -33.16372,27.95504 l -10.42402,50.22183 h -36.95591 l 14.21399,-123.18556 c 0.6317,-7.58072 6.00024,-15.47755 16.10784,-23.68997 8.8442,0 13.26594,-6.95009 13.26594,-20.84805 V 92.86376 c 8.84417,-6.949003 18.95299,-10.424025 30.32403,-10.424025 z M 510.55181,92.86376 v 19.9 h -2.84412 V 93.811798 Z m -6.63407,0.948038 v 18.951962 h -0.94803 V 94.757633 Z m -6.63187,2.841917 V 113.7096 h -0.94804 c -18.32004,7.58072 -31.58756,11.84544 -39.8,12.79303 -8.21245,0.94759 -14.2136,-0.78884 -18.00393,-5.21093 0,-1.89518 8.21309,-6.00281 24.63798,-12.3201 10.73934,-8.21242 22.11117,-12.317885 34.11399,-12.317885 z m -28.66663,99.022705 c 2.36897,0 4.34319,1.73862 5.92251,5.21312 l -14.21397,95.70565 h -16.10785 l 16.10785,-95.70565 c 3.15861,-3.4745 5.92252,-5.21312 8.29146,-5.21312 z" />
</svg>
