<?xml version="1.0" encoding="UTF-8" standalone="no"?>
<svg
   width="800"
   height="1000"
   id="svg2462"
   sodipodi:version="0.32"
   inkscape:version="1.4.2 (f4327f4, 2025-05-13)"
   sodipodi:docname="13815.svg"
   version="1.1"
   xmlns:inkscape="http://www.inkscape.org/namespaces/inkscape"
   xmlns:sodipodi="http://sodipodi.sourceforge.net/DTD/sodipodi-0.dtd"
   xmlns="http://www.w3.org/2000/svg"
   xmlns:svg="http://www.w3.org/2000/svg"
   xmlns:rdf="http://www.w3.org/1999/02/22-rdf-syntax-ns#"
   xmlns:cc="http://creativecommons.org/ns#"
   xmlns:dc="http://purl.org/dc/elements/1.1/">
  <metadata
     id="metadata2469">
    <rdf:RDF>
      <cc:Work
         rdf:about="">
        <dc:format>image/svg+xml</dc:format>
        <dc:type
           rdf:resource="http://purl.org/dc/dcmitype/StillImage" />
      </cc:Work>
    </rdf:RDF>
  </metadata>
  <defs
     id="defs2467" />
  <sodipodi:namedview
     inkscape:window-height="998"
     inkscape:window-width="1680"
     inkscape:pageshadow="2"
     inkscape:pageopacity="0.0"
     guidetolerance="10.0"
     gridtolerance="10.0"
     objecttolerance="10.0"
     borderopacity="1.0"
     bordercolor="#666666"
     pagecolor="#ffffff"
     id="base"
     inkscape:showpageshadow="2"
     inkscape:pagecheckerboard="0"
     inkscape:deskcolor="#d1d1d1"
     inkscape:zoom="0.31966436"
     inkscape:cx="-386.34273"
     inkscape:cy="533.37194"
     inkscape:window-x="-8"
     inkscape:window-y="-8"
     inkscape:window-maximized="1"
     inkscape:current-layer="svg2462"
     showguides="true">
    <sodipodi:guide
       position="278.24281,427.6072"
       orientation="1,0"
       id="guide1"
       inkscape:locked="false" />
    <sodipodi:guide
       position="635.92187,889.22045"
       orientation="1,0"
       id="guide2"
       inkscape:locked="false" />
  </sodipodi:namedview>
  <path
     style="fill:#000000;stroke:none;stroke-width:44.0135"
     d="m 309.54114,640.78546 c 9.27357,-13.13758 22.79753,-20.47918 40.57189,-22.02476 -23.95674,-26.27515 -46.17467,-33.42351 -66.65382,-21.44513 -20.47915,11.97837 -21.25195,17.58118 -2.31841,16.80834 18.93355,-0.77279 28.40034,8.11439 28.40034,26.66155 z M 584.27091,362.57809 c 0,-15.45596 8.88719,-30.13913 26.66152,-44.04949 9.27363,-1.54562 13.1376,-11.59198 11.59202,-30.13914 -9.27361,1.54558 -19.89955,5.02317 -31.87795,10.43274 -11.97835,5.40963 -22.21795,8.11443 -30.71875,8.11443 -19.31996,0 -28.97993,-4.63679 -28.97993,-13.91039 v -1.15918 c 0,-7.72798 11.97837,-15.45596 35.93512,-23.18395 13.91038,-10.81917 31.68477,-16.22876 53.32312,-16.22876 -1.54565,-11.592 -7.92124,-18.35399 -19.12677,-20.28597 -11.20557,-1.93199 -20.28597,-0.966 -27.24116,2.89798 -6.95519,3.86401 -11.97837,6.18241 -15.06955,6.9552 v 0 l 13.9104,-1.15919 c 2.31817,0.77278 3.09107,2.3184 2.31817,4.63679 -0.77288,1.54561 -8.88723,3.0912 -24.34318,4.63677 -9.27339,0.77279 -17.00137,5.79599 -23.18373,15.06958 -1.54558,0.77279 -3.28437,0.966 -5.21639,0.57961 -1.932,-0.3864 -2.89801,-1.73882 -2.89801,-4.05721 6.9552,-10.81916 16.6152,-16.61514 28.97996,-17.38794 h -5.79599 c -10.04638,0 -19.31996,5.02319 -27.82075,15.06958 -13.13756,3.0912 -31.29832,14.68315 -54.48227,34.77587 -3.0912,1.54563 -5.40958,3.4776 -6.95519,5.79602 h 11.59201 c 1.54559,0 2.1252,1.35239 1.73881,4.05717 -0.38645,2.70479 -1.73885,4.0572 -4.05721,4.0572 h -10.4328 c -2.31842,0 -3.47759,1.54558 -3.47759,4.63679 0,2.31842 0.77279,4.63679 2.31841,6.9552 l 20.86557,-11.59199 c 2.31838,-0.77278 3.47756,0.7728 3.47756,4.63679 L 455.6,324.32457 v 1.15919 h 69.55188 c 17.00152,0 27.82072,6.76198 32.45751,20.28597 4.63676,13.52394 13.52396,19.12674 26.66152,16.80836 z m 60.27827,81.14379 c 0,-22.41113 13.52393,-33.61671 40.57191,-33.61671 27.04793,0 40.57193,11.20558 40.57193,33.61671 l 9.27355,61.43748 h 52.16393 v -61.43748 c 0,-55.64146 -11.20557,-102.00935 -33.61676,-139.10366 -22.41109,-37.09431 -47.9135,-58.73267 -76.50704,-64.91507 -18.54713,-5.40959 -30.52549,-5.02318 -35.93511,1.15922 v 59.11907 c 0,17.00154 -5.40957,25.50232 -16.22877,25.50232 -12.36477,10.04638 -19.31993,19.70635 -20.86554,28.97997 l -17.38797,150.69563 h 46.36794 z M 549.495,253.61354 c 3.86394,0 6.95519,2.31841 9.27358,6.95519 0,5.40958 -6.1824,9.27357 -18.5472,11.59197 -4.63676,0 -6.95515,-1.54558 -6.95515,-4.63678 0,-7.72799 5.40963,-12.36478 16.22877,-13.91038 z m 75.34782,4.63678 v 22.02475 h 2.3182 v -24.34312 z m -6.9552,1.15923 v 20.86552 h 2.31844 v -22.02475 z m -77.66624,32.45751 c 3.86401,4.63676 11.01241,6.56875 21.44516,5.79596 10.43279,-0.77279 26.85479,-6.18237 49.26589,-16.22875 v 0 -19.70636 c -14.68313,0 -28.20713,4.63681 -40.5719,13.91039 -20.09275,7.72798 -30.13915,13.13757 -30.13915,16.22876 z m 26.66156,213.2923 17.38797,-117.07894 c -4.63674,-7.72798 -10.81917,-7.72798 -18.54718,0 L 547.1766,505.15936 Z m 147.21807,20.86554 -8.11435,-82.30302 c -0.77287,-9.27355 -7.72801,-13.91034 -20.86557,-13.91034 -13.13757,0 -19.70637,4.63679 -19.70637,13.91034 L 651.50437,526.0249 H 595.8629 c -16.22873,61.82387 -28.59351,167.69724 -37.09432,317.62008 L 533.26623,856.39615 382.57055,657.01424 c -37.09431,-21.63838 -51.39106,-8.88721 -42.89025,38.25347 l 90.41738,245.74988 -67.23343,28.97993 H 681.64348 L 657.30033,954.92796 C 699.03146,760.18278 717.96501,617.21509 714.10101,526.0249 Z m -435.8582,46.3679 h 41.73108 c 17.00158,0 40.95834,14.68317 71.87027,44.04951 l 137.94447,187.78996 v 0 c 13.91039,-130.60288 26.27512,-223.3387 37.09431,-278.20737 h -40.5719 l 19.70637,-114.76052 c -0.77279,-17.00156 3.09118,-30.13912 11.59198,-39.41272 -10.0464,-6.95519 -15.8424,-14.87638 -17.38801,-23.76353 -1.54558,-8.88718 -21.25191,-12.17158 -59.11901,-9.85316 l 4.63675,15.06953 h -38.2535 l 3.47761,-18.54713 c -2.31841,-0.77282 -3.47761,-3.47762 -3.47761,-8.11438 -6.18237,-3.86402 -9.27354,-8.11441 -9.27354,-12.75121 -0.77284,-3.86398 0.38637,-7.34157 3.47758,-10.43275 0,-11.59199 5.79599,-19.70636 17.38795,-24.34313 17.00158,-16.22879 32.84393,-26.66156 47.5271,-31.29832 8.50076,-13.91041 19.31995,-20.8656 32.45754,-20.8656 30.91191,-14.68314 63.17623,-20.86552 96.79294,-18.54712 33.61672,2.31836 63.56265,11.97834 89.83783,28.97992 28.59351,21.63834 49.26582,52.16387 62.01703,91.57656 12.75115,39.41271 19.12674,77.66623 19.12674,114.76054 v 82.30302 h -60.27824 c -6.18237,130.6029 -24.34311,267.77463 -54.48228,411.51514 l 59.11907,61.43739 H 319.97389 l -5.79596,-39.41267 75.34782,-31.29839 h 1.15918 C 338.13466,782.2075 302.58595,685.99416 284.03882,639.62623 c -20.86556,-3.86397 -34.38953,-11.97835 -40.57192,-24.34312 -6.18238,-12.36473 5.4096,-26.66153 34.77591,-42.89031 z"
     id="path2464"
     sodipodi:nodetypes="ccssccccssccccsscccsssssccccccsccsccccccsccsccccscccccccccsssccccccccccccsccccccccccccscccccccccccccccccccccscccccsccccscsccccccccccsc" />
  <path
     d="m 278.24281,584.82732 0,-255.85504 c -3.11718,-22.59842 -7.98733,-31.17008 -14.61095,-25.71503 -6.62358,5.45677 -15.77977,16.7534 -27.46843,33.89734 -11.68876,43.63764 -28.83222,60.78101 -51.4304,51.43002 23.3774,-52.20935 38.9624,-87.66524 46.75488,-106.36719 7.79243,-18.70192 20.65006,-37.01449 38.57276,-54.93714 17.92269,-17.92264 33.11805,-42.07905 45.58602,-72.46983 14.80574,12.46756 15.97461,28.6372 3.50652,48.50781 -12.46795,19.87117 -22.9878,38.76806 -31.55951,56.69068 14.02642,21.81856 20.65003,42.85839 19.87079,63.1189 l 0,261.69948"
     style="fill:#000000;stroke:none;stroke-width:29.2105"
     id="path1-3"
     sodipodi:nodetypes="cccccssccccc" />
  <ellipse
     style="fill:none;fill-rule:evenodd;stroke:#613583;stroke-width:22;stroke-linecap:round;stroke-miterlimit:2;stroke-dasharray:none"
     id="path2"
     cx="635.92188"
     cy="110.45473"
     rx="97.954758"
     ry="97.954735" />
</svg>
