<?xml version="1.0" encoding="UTF-8" standalone="no"?>
<svg
   width="800"
   height="1000"
   version="1.1"
   id="svg1"
   sodipodi:docname="1381C.svg"
   inkscape:version="1.4.3 (0d15f75, 2025-12-25)"
   xmlns:inkscape="http://www.inkscape.org/namespaces/inkscape"
   xmlns:sodipodi="http://sodipodi.sourceforge.net/DTD/sodipodi-0.dtd"
   xmlns="http://www.w3.org/2000/svg"
   xmlns:svg="http://www.w3.org/2000/svg">
  <defs
     id="defs1" />
  <sodipodi:namedview
     id="namedview1"
     pagecolor="#ffffff"
     bordercolor="#000000"
     borderopacity="0.25"
     inkscape:showpageshadow="2"
     inkscape:pageopacity="0.0"
     inkscape:pagecheckerboard="0"
     inkscape:deskcolor="#d1d1d1"
     inkscape:zoom="1.8491354"
     inkscape:cx="519.43196"
     inkscape:cy="129.51999"
     inkscape:window-width="1680"
     inkscape:window-height="998"
     inkscape:window-x="-8"
     inkscape:window-y="-8"
     inkscape:window-maximized="1"
     inkscape:current-layer="svg1"
     showguides="true">
    <sodipodi:guide
       position="531.00884,970.23804"
       orientation="1,0"
       id="guide1"
       inkscape:locked="false" />
  </sodipodi:namedview>
  <path
     style="fill:#000000;stroke:none;stroke-width:46.2751"
     d="m 524.81367,260.59986 c -37.72286,19.18108 -40.91972,28.77162 -9.59061,28.77162 h 16.30395 c 1.9181,-15.34484 -0.31968,-24.93538 -6.71334,-28.77162 z m -44.11655,91.11024 h 19.18107 v -53.70707 h -19.18107 z m 89.19207,-6.71341 c 14.70551,-10.2299 24.29608,-23.65667 28.77169,-40.28031 -8.9512,-3.19685 -18.54177,-4.47559 -28.77169,-3.83624 z m -55.62515,-46.03462 -5.75438,3.83622 v 55.62514 c 4.4756,1.91815 8.95121,2.87721 13.42679,2.87721 4.4756,0 7.67245,-0.95906 9.59056,-2.87721 v -59.46136 z m -47.95278,2.87714 c 0.63938,8.95119 2.87718,18.22205 6.71341,27.81262 V 299.9211 Z m -15.34482,2.87717 22.05823,58.50234 v -20.14017 c -7.03305,-9.59055 -11.82831,-22.69763 -14.38581,-39.32123 z m 148.65347,18.22205 -13.42673,23.01731 -0.95906,17.26298 h 5.75435 z m -32.60787,40.28029 h 11.50865 l 1.9181,-15.34487 z m -86.31492,-2.87714 h 20.14015 v -3.83624 h -20.14015 z m -11.50862,14.38584 2.87715,8.63148 h 109.33224 l 2.87714,-8.63148 z m 5.7543,19.18106 c 6.3937,30.05038 8.63148,62.33859 6.71339,96.86451 l 93.02829,-48.91175 c -1.2787,-16.62363 2e-5,-32.60789 3.83621,-47.95276 z m 17.26296,101.6598 c 3.19688,4.4756 3.19688,10.22994 0,17.26299 l 84.39685,-31.64882 c 3.83622,-12.14802 2.55748,-21.41887 -3.8362,-27.81255 z m -14.38583,37.40317 c 7.03309,69.05192 30.68979,126.91489 70.9701,173.58888 h 43.15742 c -2.55744,-77.36374 -4.3157,-130.91097 -5.27476,-160.64167 -0.95908,-29.73068 -4.95515,-46.83381 -11.98821,-51.3094 -12.78738,7.03306 -45.07557,19.82045 -96.86455,38.36219 z m -2.87713,-13.42679 c 6.3937,-2.55747 9.59054,-6.71337 9.59054,-12.46773 0,-5.75432 -2.55747,-7.67242 -7.67238,-5.75428 z m -28.77162,187.01567 h 87.27395 C 498.27979,665.64065 477.50027,617.04853 471.10655,560.784 Z m -1.91815,5.75435 -0.95906,4.79548 h 155.36689 l -0.95907,-4.79548 z m 97.82365,-351.9731 h 20.14008 v -3.83624 H 542.07668 Z M 516.18215,162.77627 c 0.63936,3.19686 3.19684,5.43465 7.67243,6.71337 2.55745,-2.55744 7.99211,-4.47557 16.30394,-5.75432 -11.50866,-2.55748 -19.50079,-2.87715 -23.97637,-0.95905 z m -31.64881,23.97636 -13.42679,-4.79523 c -3.19686,3.83619 -3.19686,7.6724 0,11.50862 z m -1.91813,88.23304 c -8.88242,0 12.62759,-14.06614 24.45595,-19.1811 11.82833,-5.11496 22.05826,-15.02519 30.68974,-29.73067 8.63149,-14.70549 12.94722,-27.4929 12.94722,-38.36221 0,-8.3118 -2.55749,-13.58659 -7.67243,-15.82437 -5.11497,-2.23782 -11.6685,0.31967 -19.6606,7.67242 -7.99212,7.35275 -12.94727,14.7055 -14.86543,22.05827 -1.91807,7.35276 -1.75821,12.30786 0.47959,14.86532 2.23783,2.55751 5.59453,-3.5165 10.07009,-18.22201 4.4756,-14.70552 10.8693,-22.05827 19.1811,-22.05827 6.39373,0 9.59058,3.19684 9.59058,9.59052 0,5.11497 -3.83622,10.22994 -11.50867,15.34489 l -3.8362,-4.79525 c 7.03304,-7.03309 9.11097,-11.34886 6.23379,-12.94729 -2.87717,-1.59839 -8.79133,9.75042 -17.74248,34.04645 -3.19687,6.39373 -7.35279,9.59059 -12.46774,9.59059 -5.11494,0 -8.31178,-5.11495 -9.59052,-15.34486 0,-10.86932 5.75432,-22.37799 17.26296,-34.526 -7.03307,-5.75434 -12.14801,-8.63149 -15.34487,-8.63149 -3.8362,3.19686 -11.50864,6.07402 -23.01731,8.63149 8.95117,1.27873 13.42676,4.79525 13.42676,10.54959 0,5.75435 -3.83621,8.95122 -11.50862,9.59058 -21.09921,8.95115 -24.93546,21.41888 -11.50872,37.40315 -7.03306,-2.55751 -11.98817,-5.27483 -14.86534,-8.152 -2.87714,-2.87717 -4.63541,-6.87322 -5.27477,-11.98818 -0.63938,-3.83623 4.47556,-9.91024 15.34484,-18.22203 l -1.91807,-8.63152 c -23.6567,14.06613 -34.526,22.37796 -32.60791,24.93545 l 8.63148,5.7543 c -6.3937,4.47559 -9.59054,7.35276 -9.59054,8.63152 5.75435,7.03306 8.6315,12.46771 8.6315,16.30394 l 24.93547,-1.91815 0.95903,4.79528 c -14.70547,3.19686 -22.05823,5.11498 -22.05823,5.75437 0,4.47558 1.27873,7.03306 3.83617,7.67242 2.55751,0.63937 5.43467,-0.31969 8.6315,-2.87718 3.19685,-2.55748 7.03308,-3.83622 11.5087,-3.83622 4.47555,0 7.67239,3.03701 9.5905,9.11103 1.91815,6.074 13.24206,12.94722 8.63151,12.94722 z m 155.36689,66.17478 c -1.27871,-104.21729 -29.73068,-162.08023 -85.35588,-173.58887 8.3118,4.47558 12.46769,11.18895 12.46769,20.14011 0,15.34487 -3.03699,28.29211 -9.11097,38.84173 -6.07404,10.54958 -12.94726,19.98029 -20.61968,28.29212 4.47561,6.39368 6.71342,19.18108 6.71342,38.3622 v 58.50236 h 20.14008 v -62.33862 c 34.52598,0 51.4693,5.43466 50.82992,16.30396 l -10.5496,35.48501 z m 16.30394,11.50871 c 14.06615,35.1653 21.73859,66.17473 23.01731,93.0283 -3.19698,41.55904 -16.30407,84.07714 -39.32125,127.55429 15.98427,20.45983 18.86145,42.19839 8.6315,65.21569 -1.91826,10.22992 -3.83639,16.30395 -5.75434,18.22208 -1.91794,1.91793 -3.51627,1.91793 -4.79499,0 -3.197,2.55745 -5.4348,2.55745 -6.71339,0 -2.55748,1.27872 -4.79527,0.63936 -6.71341,-1.9181 -3.19687,1.91825 -5.11497,2.39774 -5.75427,1.43845 -0.63961,-0.95897 -0.95942,-3.03687 -0.95942,-6.23374 8.95119,-26.85356 11.18898,-44.43625 6.71341,-52.74806 -1.91811,-3.83622 -4.15591,-3.51651 -6.71341,0.95909 1.27874,15.34486 0.63937,24.61573 -1.91808,27.81259 -4.47561,3.83621 -7.03307,3.19684 -7.67242,-1.9181 1.27874,-5.75434 1.11892,-13.58662 -0.4795,-23.49687 -1.59842,-9.9102 -1.1189,-17.1031 1.43856,-21.57869 2.55746,-4.4756 6.074,-9.91026 10.54957,-16.30398 5.115,-16.62363 7.83233,-35.96456 8.15198,-58.02281 0.31975,-22.05825 5.91422,-43.63696 16.78345,-64.73615 -14.70551,-23.65669 -27.17323,-49.55118 -37.40314,-77.68346 h -2.87715 c -12.14805,24.29602 -17.90237,51.78892 -17.263,82.47873 3.83623,12.14803 4.7953,24.93541 2.87721,38.36214 8.31177,17.90238 12.46767,36.7638 12.46767,56.5843 l 4.79527,158.24401 5.75435,16.30392 c 27.49289,66.49447 48.59211,147.69443 63.29763,243.59987 l -15.34485,1.91808 C 645.65459,865.12404 626.15381,787.12095 600.57897,725.74147 h -3.83621 c 0,15.98423 5.11495,32.76767 15.34484,50.35031 10.22994,17.58267 13.10711,61.70354 8.63151,126.91926 -3.19685,12.78745 -2.39762,27.33311 2.39766,43.63698 4.79527,16.30394 6.87322,27.97246 6.23386,35.00555 0,10.22995 -6.55355,15.82443 -19.66062,16.78343 -13.1071,0.95898 -25.41496,-0.95911 -36.9236,-5.75429 -11.50866,-4.79528 -25.25513,-3.35669 -41.2394,4.31577 -23.65666,2.55744 -38.84169,3.19672 -45.55507,1.91809 -6.71341,-1.27872 -10.70947,-3.51651 -11.98821,-6.71335 v -14.38585 c 19.18112,-1.27874 39.64096,-6.55355 61.37953,-15.82443 21.7386,-9.27086 33.88661,-21.41889 36.44402,-36.44404 2.5575,-15.02524 -5.4346,-69.37603 -23.97631,-157.60904 -8.31182,-8.9512 -12.46771,-19.50081 -12.46771,-31.64881 -5.115,-5.75434 -7.67249,-9.27086 -7.67249,-10.54958 h -20.14013 c -17.90234,33.88658 -26.37399,61.53929 -25.41498,82.95818 0.95907,21.41893 -13.26687,57.70317 -42.67785,108.85275 -8.31184,19.18107 -11.5087,39.16139 -9.59059,59.94096 1.91812,20.77942 -7.99212,27.17304 -29.73072,19.18103 -21.73857,-7.99214 -39.00154,-9.43076 -51.78892,-4.31584 -12.78741,5.11495 -25.8945,7.03301 -39.32126,5.75429 -22.37794,-1.27873 -33.8866,-6.39369 -34.52599,-15.34487 v -11.50871 c 10.86927,0 29.09132,-2.87714 54.66614,-8.6314 25.57478,-5.75435 41.71888,-12.14806 48.43225,-19.18115 6.71342,-7.0331 13.90634,-23.17717 21.57877,-48.43224 7.67243,-25.25511 13.26692,-51.62912 16.78343,-79.12202 3.51654,-27.4929 6.55355,-43.47714 9.11103,-47.95274 2.55748,-4.47562 3.67637,-9.75041 3.35669,-15.8244 -0.31973,-6.07401 1.75823,-14.86533 6.23387,-26.37399 h -4.79529 l 25.8945,-142.89906 c 8.31178,-42.8378 12.9472,-73.04801 13.90627,-90.63064 0.95904,-17.58268 1.43856,-32.44804 1.43856,-44.59606 0,-24.29608 -6.074,-47.63309 -18.22202,-70.01101 -9.59057,29.41099 -30.05039,61.37948 -61.37946,95.90544 -57.5433,2.55753 -102.29921,1.27881 -134.26772,-3.83615 -14.06612,10.8693 -34.52594,17.26297 -34.52594,17.26297 v 0 l 0.95905,441.16521 c 12.78739,3.19668 19.18109,12.46753 19.18109,27.81255 0.63938,4.47561 -0.63935,9.27089 -3.8362,14.38584 -3.19688,5.11498 -2.39767,11.189 2.39764,18.2221 4.79526,7.03301 2.07792,7.99197 -8.15199,2.87689 -10.22993,-5.11496 -12.14804,-16.9433 -5.75436,-35.48506 -0.63936,-8.95118 -5.43463,-13.42678 -14.38579,-13.42678 -9.59055,0 -14.7055,4.4756 -15.34488,13.42678 8.3118,18.54176 6.23384,30.52996 -6.23389,35.96461 -12.4677,5.43462 -15.02518,4.31578 -7.67242,-3.35654 7.35276,-7.6725 8.79134,-13.90635 4.31571,-18.70159 -4.47554,-4.79529 -6.39363,-9.43074 -5.75429,-13.90635 0.63937,-15.3449 7.35275,-24.29608 20.14013,-26.85352 v -441.1652 0 c 0,0 -17.90231,-29.7306 -11.50862,-45.0755 -5.75433,0.6394 -9.43072,-1.43855 -11.02914,-6.23383 -1.59842,-4.79529 5.91417,-6.87324 22.53776,-6.23384 V 246.21403 c -1.91809,-15.34486 -5.11493,-21.25902 -9.59054,-17.74251 -4.47558,3.51653 -10.86927,11.02914 -19.18108,22.53781 -8.3118,29.41099 -20.14013,40.91964 -35.485,34.52596 15.98422,-34.52599 26.69367,-58.18267 32.12833,-70.97005 5.43463,-12.78743 14.22594,-25.09528 26.37396,-36.9236 12.14804,-11.82835 22.69768,-27.97244 31.64887,-48.43229 10.22992,8.31182 11.02911,19.02128 2.3976,32.12837 -8.63148,13.10708 -15.82441,26.0543 -21.57871,38.84169 9.59055,14.06615 14.06613,29.41103 13.42677,46.03462 v 184.13855 c 11.50864,1.27872 22.6976,5.11495 33.56688,11.50866 51.78896,-6.39371 89.51181,-9.59057 113.1685,-9.59057 14.70552,-26.85352 28.77165,-51.46926 42.1984,-73.84724 3.83621,-33.88658 24.61573,-58.50231 62.33854,-73.84718 -7.03307,-7.03305 -11.18896,-13.74645 -12.46767,-20.14019 -7.67245,5.11497 -13.4268,7.99216 -17.26303,8.63155 -8.95118,-1.91814 -13.42677,-9.91027 -13.42677,-23.97642 -8.31179,-15.98424 -13.90625,-24.13619 -16.78342,-24.45586 -2.87717,-0.3197 -4.31576,-3.67641 -4.31576,-10.07009 0,-5.75432 9.91024,-13.74645 29.73073,-23.97639 23.65665,-17.90236 40.91962,-27.4929 51.78889,-28.77166 3.19686,-8.95117 15.66458,-13.42676 37.40315,-13.42676 26.85355,-0.63935 54.02679,10.86932 81.51973,34.52602 27.49288,23.65666 42.19836,80.2409 44.11646,169.75271 z"
     id="path1"
     sodipodi:nodetypes="csccccccccccccccsccccccccccccccccccccccccccccccccccccccccccccscccsccccccccccccccccccccccccsssssssssssccscsccccsccscccccccccsssssssccsscsccccccccccscccccccccsscsccccccccccccscscsscsccssccccscssscccsssssscccsscccscccssscscssscccscsccsccsscsccccccccccsscccsc" />
  <path
     id="path2216"
     style="fill:#800080;stroke:#800080;stroke-width:4;stroke-dasharray:none"
     d="m 550.65823,2 c -12.51911,0 -22.41764,4.2219925 -26.7865,26.772071 l -0.17694,128.644559 h 9.40097 c -0.70948,-19.77913 1.20569,-23.42804 6.14968,-30.14598 4.94408,-6.7181 18.58679,-14.98468 32.80945,-17.22401 C 562.25454,64.343134 555.63358,40.139683 557.40074,38.288972 564.87742,33.397536 569.95557,27.81094 569.95557,19.614526 569.95557,8.3776764 561.70597,2 550.65823,2 Z m 0.20568,7.7337517 c 7.20469,0 11.95455,3.7339663 11.95455,9.2863913 0,5.552334 -4.87352,9.752253 -11.94235,14.511509 -1.63204,0.528716 -1.83593,5.947028 -0.61248,16.258509 l 9.88655,51.934499 c -9.75264,2.76625 -18.84686,7.77327 -29.14134,15.01818 V 29.761956 c 3.53451,-13.352103 9.38777,-20.0282043 19.85507,-20.0282043 z"
     sodipodi:nodetypes="scccsccsssscccccs" />
</svg>
