<?xml version="1.0" encoding="UTF-8" standalone="no"?>
<svg
   width="800"
   height="1000"
   version="1.1"
   id="svg1"
   sodipodi:docname="13836.svg"
   inkscape:version="1.4.2 (f4327f4, 2025-05-13)"
   xmlns:inkscape="http://www.inkscape.org/namespaces/inkscape"
   xmlns:sodipodi="http://sodipodi.sourceforge.net/DTD/sodipodi-0.dtd"
   xmlns:xlink="http://www.w3.org/1999/xlink"
   xmlns="http://www.w3.org/2000/svg"
   xmlns:svg="http://www.w3.org/2000/svg">
  <defs
     id="defs1" />
  <sodipodi:namedview
     id="namedview1"
     pagecolor="#ffffff"
     bordercolor="#000000"
     borderopacity="0.25"
     inkscape:showpageshadow="2"
     inkscape:pageopacity="0.0"
     inkscape:pagecheckerboard="0"
     inkscape:deskcolor="#d1d1d1"
     inkscape:zoom="1.306774"
     inkscape:cx="283.52263"
     inkscape:cy="315.66285"
     inkscape:window-width="1680"
     inkscape:window-height="998"
     inkscape:window-x="-8"
     inkscape:window-y="-8"
     inkscape:window-maximized="1"
     inkscape:current-layer="svg1"
     showguides="true">
    <sodipodi:guide
       position="436.07749,672.67423"
       orientation="0,-1"
       id="guide1"
       inkscape:locked="false" />
  </sodipodi:namedview>
  <path
     id="path2275"
     style="fill:#000000;stroke:none;stroke-width:37.0144"
     d="m 284.74587,229.52869 c -8.76541,-0.47812 -19.52398,3.10931 -32.27372,10.75914 -13.59971,8.49981 -22.10015,20.9655 -25.50005,37.39846 -0.56667,6.79988 1.98401,14.73221 7.6506,23.79867 9.06647,14.16638 28.0499,21.81654 56.94928,22.94986 l 17.13558,27.02345 c -6.86738,9.51148 -12.16483,24.97402 -15.8614,46.50119 -4.81657,28.0494 -13.59916,53.54876 -26.34889,76.49829 -12.74975,22.94949 -19.1255,54.54064 -19.1255,94.77312 0,10.19977 4.53329,15.29929 13.59977,15.29929 18.6996,0 56.94868,-16.43278 114.74746,-49.29875 -5.09989,37.39923 -7.36655,60.91412 -6.79989,70.54722 -39.66584,3.39993 -74.2318,7.79309 -103.69786,13.17632 -29.46606,5.38318 -56.38185,12.32329 -80.74799,20.82313 -26.06611,10.19974 -39.66606,32.86629 -40.79934,67.99891 -9.63315,50.43222 -16.99931,97.60777 -22.09917,141.52352 -5.09991,43.9157 -14.87472,72.6721 -29.324408,86.27184 C 77.800615,949.17208 55.276117,961.0716 24.67678,971.2713 7.6771601,975.80452 -0.53922829,985.15517 0.02741835,999.32157 H 150.47381 c 16.99965,-1.69991 26.35031,-6.65742 28.05025,-14.87397 1.69996,-8.21644 0.42555,-17.28307 -3.82436,-27.19954 -4.24983,-9.91645 -6.51648,-20.68354 -6.79989,-32.29995 -0.28331,-11.61641 6.94083,-38.10802 21.67383,-79.47384 16.99967,-32.86597 26.49046,-60.48996 28.47371,-82.87282 1.9833,-22.38288 7.50883,-36.12481 16.57535,-41.22469 h 0.85067 V 999.32157 H 566.96659 V 699.27759 h 27.19957 V 588.77983 c 0,-2.38028 -0.2303,-4.5849 -0.58087,-6.69495 5.45118,1.50632 10.30866,2.44528 14.18064,2.44528 9.06646,0 13.59792,-5.09952 13.59792,-15.29929 0,-40.23248 -6.23194,-71.82363 -18.69831,-94.77312 -12.4664,-22.94953 -21.25084,-48.44889 -26.35073,-76.49829 -4.56011,-25.08068 -11.17371,-41.94459 -19.81131,-50.71529 l 58.06232,-94.20725 27.19769,268.59473 15.30116,-3.40089 -3.40089,-26.34888 19.55086,-3.40088 5.94919,26.35074 14.4486,-3.40088 -5.9492,-26.34886 18.70017,-3.39901 9.35008,27.19767 15.29929,-3.399 -95.71759,-238.21655 C 624.52872,230.43256 614.8479,222.15352 601.81486,245.38633 l -57.53643,92.66178 c -16.26261,-10.70255 -82.3752,-9.4581 -82.3752,-9.4581 l -1.98642,14.07246 c 30.4676,0 62.19379,1.23585 76.09819,8.71393 l -63.39805,102.25633 c -5.66652,-2.83327 -16.99792,-7.08253 -33.99759,-12.74908 -2.83329,6.23322 -1.98493,13.03319 2.54832,20.39966 -5.09989,1.69997 -7.08251,13.88161 -5.94919,36.54777 0.56665,3.96659 2.54927,6.80129 5.94919,8.50127 l -7.6487,11.0496 -6.79989,-11.0496 c 3.39993,-1.13331 5.66661,-3.96805 6.79989,-8.50127 1.13334,-22.66616 -1.13335,-34.8478 -6.79989,-36.54777 5.09987,-7.36647 5.95011,-14.16644 2.55021,-20.39966 -19.83293,6.79987 -31.45023,11.33316 -34.85015,13.59978 L 331.53,354.32512 c 10.97786,-4.94681 27.54789,-8.43023 50.14007,-10.33945 l 43.31146,-1.3232 -4.94467,-14.07246 -44.31786,1.79589 c -24.09594,1.36393 -41.69475,4.67511 -53.02378,9.86911 l -20.07363,-31.97014 c -31.16604,1.1333 -50.14948,-3.40001 -56.94932,-13.5998 -9.06649,-14.73304 -4.81723,-29.46535 12.74909,-44.19835 11.89974,-7.36651 20.82622,-9.77519 26.77608,-7.22523 5.9499,2.54995 10.34119,6.37503 13.17443,11.47494 2.83329,5.09987 6.79853,14.16648 11.89842,27.19956 6.79987,13.59969 15.01625,16.43256 24.64936,8.49938 -11.89976,-15.29965 -19.40794,-27.90733 -22.52452,-37.82379 -3.11659,-9.91647 -9.6325,-17.00045 -19.54897,-21.25036 -2.47911,-1.06247 -5.17847,-1.67317 -8.10029,-1.83253 z m 368.91791,121.25689 46.75042,116.44692 -16.14998,2.55021 z m -13.59977,2.5483 28.89905,118.99902 -16.1481,3.39902 z m -91.82008,7.30958 c 1.55703,2.00629 2.67852,4.57379 3.42151,7.99158 11.3331,51.56557 22.95039,88.25619 34.85014,110.07242 11.89977,21.8162 18.69971,51.14064 20.39966,87.97322 -1.70002,2.2666 -3.96665,3.11686 -6.79988,2.55019 -3.37142,0.21072 -10.67568,-2.35936 -19.92373,-6.30148 -1.90836,-1.05553 -4.02064,-1.95277 -6.32395,-2.70384 -15.47382,-7.14227 -36.65758,-18.31934 -64.70109,-34.34424 l 6.79988,-21.25034 c 5.0999,0 27.4824,7.93417 67.14823,23.80056 l 1.70136,-11.04958 c -22.09957,-10.1998 -47.59893,-19.83446 -76.4983,-28.90095 -3.39992,-0.56665 -7.36702,-5.66615 -11.90027,-15.29928 -1.69996,-5.09987 -5.10089,-9.0651 -10.20076,-11.89841 z m -230.60412,4.898 62.33075,98.29017 c -3.96662,2.26662 -6.80134,5.38351 -8.50129,9.35009 -3.96659,9.63313 -7.64966,14.73263 -11.04956,15.29928 -28.8994,9.06649 -54.39877,18.70115 -76.49831,28.90095 l 1.69951,11.04958 c 39.66585,-15.86639 62.05017,-23.80056 67.15009,-23.80056 l 6.79989,21.25034 c -50.99895,29.46607 -81.31563,43.91623 -90.94875,43.34956 -2.83328,0.56667 -5.09992,-0.28359 -6.7999,-2.55019 1.69998,-36.83258 8.49991,-66.15702 20.39966,-87.97322 11.89976,-21.81623 23.23301,-58.50685 33.99946,-110.07242 0.28202,-1.08102 0.88303,-2.07881 1.41845,-3.09358 z m 98.02971,96.59067 c 5.0999,8.49983 6.79848,19.26691 5.09851,32.29994 -6.23321,5.66656 -16.71622,10.19986 -31.44926,13.59979 -5.09987,-2.26664 -8.21492,-9.35064 -9.34821,-21.25038 10.19975,-15.86632 22.09922,-24.08269 35.69896,-24.64935 z m 37.39844,0 c 13.59973,0.56666 25.49923,8.78303 35.69896,24.64935 l -9.35009,21.25038 c -15.29966,-3.39993 -26.06484,-7.93323 -32.29806,-13.59979 -1.1333,-13.03303 0.8493,-23.80011 5.94919,-32.29994 z m -84.14885,33.99945 7.65056,21.25037 -4.24968,2.55019 -6.79991,-22.10106 z m 130.04858,0 4.2497,1.6995 -7.65056,22.10106 -4.24972,-2.55019 z m -44.20021,17.84947 c 1.69987,1.13324 9.06741,3.96659 22.09916,8.4994 -0.56668,40.23251 1.27582,71.11537 5.52573,92.64827 4.25015,21.53286 5.38427,41.65057 3.40089,60.35018 -1.98328,18.69971 -16.29146,28.61467 -42.92418,29.74788 H 234.6227 c -17.56634,1.69997 -27.76533,11.61682 -30.59859,29.74977 -4.53323,32.29931 -12.18339,61.48175 -22.94986,87.54785 -10.76642,26.06617 -21.24948,56.09885 -31.44927,90.09809 l 0.84883,28.90094 c 13.5997,23.79952 10.48283,37.39941 -9.3501,40.79935 l -108.796347,0.8488 -0.850687,-0.8488 c 32.299339,-9.63316 56.806437,-20.82627 73.522754,-33.57599 16.7163,-12.74978 27.62538,-43.06461 32.72527,-90.9469 5.09989,-47.88229 13.03222,-97.60665 23.7987,-149.17223 0.56664,-29.46606 11.61775,-46.46683 33.15062,-51.00009 18.6996,-7.36649 42.64054,-13.88243 71.82325,-19.549 29.1827,-5.66651 69.27423,-10.19983 120.27318,-13.59978 0.56665,-30.03269 2.83142,-58.08272 6.79801,-84.14885 v -17.84949 c 10.19979,-3.39991 16.43355,-5.94874 18.70017,-7.64871 l 7.65058,12.74911 h 25.50005 z m 41.65001,17.84948 c 16.52716,10.45594 31.22031,19.16214 44.48505,26.50626 -18.7939,2.94108 -28.33506,13.01501 -28.33506,30.44304 0,77.63173 -3.40093,116.44695 -10.20077,116.44695 h -6.80927 c 4.80016,-5.81641 7.71273,-13.12306 8.51064,-22.09918 2.26661,-25.49947 1.41641,-48.30613 -2.5502,-68.42236 -3.96671,-20.11625 -5.66715,-47.74213 -5.10039,-82.87471 z m 56.52397,42.92418 c 15.01637,0.28333 22.80673,4.95868 23.37335,14.02512 v 95.19846 H 560.1667 v -59.4995 H 544.01672 V 822.5244 H 406.31944 V 976.37169 H 258.42136 V 721.37676 h 190.39691 65.44871 c 10.76642,1.13332 16.14997,-4.25023 16.14997,-16.14998 V 588.77983 c 0,-9.63311 7.50816,-14.30845 22.52451,-14.02512 z M 422.46939,837.82557 h 121.54733 v 7.6487 H 430.9688 v 130.89742 h -8.49941 z m 24.64938,23.79868 h 96.89795 v 114.74744 h -96.89795 z"
     sodipodi:nodetypes="scccccssssccsccsscccssscsccccccscssssccccccccccccccccccccccccccccccccccccccssccsssccccccccccsccccccccccccccccccccccscccccccccccccccccccccccccscccscccccssccscccccccccsscsscsccccccccccccssscccccccccccc" />
  <path
     d="m 513.72326,0.00571957 c -3.20034,-0.07256519 -6.10987,0.54542524 -8.72834,1.85367033 -5.23728,2.6184445 -9.02014,6.8378887 -11.34632,12.6565241 -1.16508,3.491259 -1.74615,6.690689 -1.74615,9.601385 -2.90951,-1.153294 -7.41873,-1.584768 -13.52844,-1.310174 -6.1089,0.291065 -9.16542,6.837559 -9.16542,19.638719 8.1464,-1.745632 12.51307,-6e-5 13.09362,5.23722 0,4.073011 -2.91043,9.454625 -8.72946,16.146469 -5.81943,6.691446 -9.01965,10.329835 -9.60023,10.9104 -5.81904,-20.366199 -18.03881,-29.095653 -36.6594,-26.184957 -15.12891,4.073002 -21.82031,12.220185 -20.07468,24.439984 0.58174,5.818635 4.94608,10.473131 13.09247,13.964385 -3.49124,7.564662 -15.71143,22.838985 -36.65941,45.823685 -20.94793,22.98425 -35.49519,44.95153 -43.64157,65.8995 l 36.65939,14.83745 c -1.16504,5.2369 -2.32602,9.60119 -3.49109,13.0925 -1.16387,3.49122 -4.51052,9.16534 -10.0385,17.02068 -5.5264,7.85572 -7.7113,12.65584 -6.54622,14.40147 0,3.49164 2.61912,5.23725 7.85641,5.23725 0,3.49124 -1.45346,5.23723 -4.36415,5.23723 -1.16508,4.07298 -0.29499,6.9815 2.61571,8.72716 -2.9107,5.819 -2.61936,9.30935 0.8719,10.47444 l 1.74497,12.21942 c -0.58215,8.14638 3.14361,30.52097 -7.33018,54.96019 -11.63768,0 -17.45665,3.49152 -17.45665,10.47445 0,6.39999 3.2006,9.0203 9.60139,7.85526 12.21938,2.3274 22.40269,-6.10956 30.54912,-25.31189 l 3.83907,-40.12161 c 9.89204,0.58056 17.74677,0.58056 23.56578,0 l 1.59026,26.82455 15.28439,8.05139 -2.26355,-31.57244 c -0.49626,-6.92195 -3.85116,-16.05261 -11.99075,-16.39829 -5.23728,0 -16.00127,1.45347 -32.29409,4.36416 -4.0738,-2.32737 -6.11029,-6.10946 -6.11029,-11.34635 7.56466,-2.90951 12.80098,-6.40103 15.71167,-10.47445 -5.81901,-4.65511 -10.76521,-7.85574 -14.83861,-9.60139 l 0.87076,-4.36415 c 5.81786,-0.58294 8.72832,-2.03799 8.72832,-4.36416 -1.16388,-3.48931 -2.91103,-5.52969 -5.23722,-6.11026 -2.3419,0.58251 -3.19744,2.03792 -2.61689,4.36414 2.32776,1.16504 1.16407,2.0398 -3.4911,2.62034 -4.07181,-0.58054 -6.40163,-1.16441 -6.98218,-1.74499 0,-1.74758 0.29019,-3.19906 0.87075,-4.36416 9.89203,-12.80151 16.00349,-24.7304 18.3297,-35.78632 5.81865,0.58174 14.25596,2.32653 25.3119,5.23723 11.05552,2.90949 16.58358,8.14698 16.58358,15.71166 4.65672,0 6.98333,1.45229 6.98333,4.363 -6.40076,4.65511 -9.89388,9.3108 -10.47443,13.96555 -0.58175,5.23925 2.03623,7.85525 7.85525,7.85525 3.49126,0 9.01933,-2.61798 16.58357,-7.85525 2.90954,19.20232 6.40107,32.44098 10.47446,39.71454 l 2.9311,45.78634 13.36397,-2.25431 -3.19449,-50.95249 c 3.49125,-1.74563 6.98203,-5.52731 10.47327,-11.34634 l 44.51466,-6.98221 c 7.56506,-20.36581 11.34636,-46.26008 11.34636,-77.68181 0,-31.42215 1.45463,-51.20685 4.36533,-59.35327 8.14637,3.49123 14.83777,2.91016 20.07469,-1.74497 9.30829,-7.56429 9.59926,-18.03887 0.87072,-31.42217 -11.05592,-16.292803 -25.60277,-18.620255 -43.64159,-6.982194 0,-17.4567 1.16489,-27.639597 3.49111,-30.550286 4.07338,-2.327374 8.43731,-0.872721 13.09247,4.364163 8.72619,-8.728149 9.5994,-16.582853 2.61686,-23.565772 -1.74563,-2.32816 -3.78407,-3.783592 -6.11027,-4.364159 2.3262,-2.327374 4.07217,-5.237061 5.23721,-8.72832 2.3262,-5.236896 2.3262,-10.619664 0,-16.147625 -2.32775,-5.5279533 -6.40038,-9.7446751 -12.2194,-12.6553689 -3.78214,-1.45338236 -7.27412,-2.21704943 -10.47445,-2.28961853 z m 0.43016,7.08973663 c 2.03655,0 4.21868,0.4373582 6.54624,1.3101721 4.65515,2.3273747 7.85576,5.2359007 9.60139,8.7271617 1.74955,3.491258 1.45546,7.274112 -0.87075,11.347511 h -9.7e-4 c -1.16388,4.65514 -3.78302,7.85575 -7.85642,9.601379 0.58214,-6.98252 -1.16381,-12.801492 -5.2372,-17.456637 -6.40077,0.582142 -11.92845,3.491434 -16.58358,8.728323 -1.74565,-3.491261 -1.74565,-7.565433 0,-12.220576 2.32776,-4.073004 5.23705,-6.981531 8.72831,-8.7271617 1.74562,-0.8728139 3.63662,-1.3101721 5.67318,-1.3101721 z m -0.43363,19.6387198 1.74495,8.728319 h -9.8e-4 c -1.16389,2.90951 -3.78224,5.237717 -7.85525,6.983349 -1.74171,-4.07301 -2.03696,-7.563755 -0.87192,-10.47445 z m -29.73272,2.946441 c 1.05467,-0.07264 2.23622,0.1094 3.54544,0.545812 8.1464,3.491254 13.38548,11.345965 15.71169,23.565767 9.89201,-6.98448 18.91046,-9.019818 27.05685,-6.109132 4.65632,2.327382 5.53103,5.818145 2.62035,10.473289 -9.31029,-6.400774 -16.2926,-5.818136 -20.94775,1.746127 -4.65551,8.728541 -6.82081,35.494806 -6.54623,80.29985 0.29108,44.80541 -5.2366,78.11894 -16.58358,99.93972 -11.3466,21.82078 -19.05642,33.45795 -23.12981,34.91328 -4.07379,1.45454 -6.69018,-10.32942 -7.85528,-35.35037 h -0.004 c 1.74561,-3.49126 2.62035,-7.85564 2.62035,-13.09248 0,-5.81865 -3.92699,-9.45506 -11.78232,-10.91042 -7.85573,-1.45454 -13.82074,0.14616 -17.89375,4.80127 -8.72855,-5.23685 -22.69316,-9.60122 -41.89548,-13.0925 4.65515,-28.5122 22.40301,-59.35264 53.24298,-92.5204 30.83999,-33.167369 47.42455,-54.405975 49.75074,-63.716265 1.1639,-8.146413 -3.49176,-12.800484 -13.96556,-13.965548 0.87263,-4.801456 2.89193,-7.310103 6.05595,-7.528 z m -48.86264,27.248826 c 11.51936,0.381947 18.80642,9.227751 21.86128,26.538807 -5.23728,5.236888 -13.52896,13.820287 -24.87594,25.74901 -11.34661,11.92875 -22.83853,26.76689 -34.47616,44.51466 -11.63768,17.74736 -18.6227,34.76692 -20.94891,51.05973 l -22.69268,-8.72832 c 6.40073,-15.71106 20.07442,-35.49463 41.0224,-59.35209 20.94794,-23.85707 34.04054,-42.186418 39.27743,-54.987955 -9.31029,0.581742 -15.41903,-2.910187 -18.32971,-10.474446 -0.58176,-7.564662 4.0731,-12.219913 13.96554,-13.965549 1.81835,-0.290916 3.55113,-0.408411 5.19675,-0.353847 z m 102.81563,40.285796 c 6.25535,-0.145183 11.85613,2.837171 16.80213,8.946881 5.2369,8.14636 5.2369,14.54765 0,19.20274 -6.40076,4.07306 -13.38346,2.61836 -20.94772,-4.36416 -4.65436,13.38332 -7.27469,35.78527 -7.85526,67.2074 -0.58215,31.42172 -3.78236,54.98896 -9.6014,70.6996 l -28.80298,5.23723 c 13.38329,-22.11184 21.82063,-43.7874 25.3119,-65.02644 3.49321,-21.23862 4.94473,-40.00416 4.36415,-56.29697 -0.58057,-16.29284 -0.58057,-28.22167 0,-35.78633 v -0.002 c 7.56447,-6.39979 14.47382,-9.672445 20.72918,-9.817618 z M 444.75818,222.24599 c 6.98174,0 10.31195,2.47307 10.03735,7.41928 -0.29027,4.94588 -1.45518,8.87166 -3.4911,11.78234 -2.0363,2.9095 -5.09127,6.9825 -9.16428,12.21942 -5.23728,4.07497 -8.72878,6.27283 -10.47445,6.54736 -1.74677,0.29426 -3.05342,-9.7e-4 -3.9282,-0.87187 -0.87084,-0.8728 -0.43545,-2.47392 1.31017,-4.80013 l 6.98338,-8.72831 6.98217,-4.36418 c 1.16504,-1.16384 0.87489,-3.0567 -0.87074,-5.67318 -1.74564,-2.61841 -1.89015,-4.8006 -0.43482,-6.54621 1.4546,-1.74566 3.347,-1.74566 5.67319,0 2.32621,1.74561 2.91001,4.36399 1.74499,7.85524 -1.16351,2.3274 -4.9456,6.983 -11.34638,13.96554 h 0.87424 c 6.40078,-5.81862 10.47378,-9.60075 12.21941,-11.34633 0.60018,-2.3278 0.87537,-5.23824 0.87537,-8.7295 0,-3.4893 -2.32705,-5.52852 -6.98218,-6.10912 -2.90875,0.5806 -4.94525,1.60096 -6.1103,3.0563 -1.16505,1.45416 -1.74497,3.05445 -1.74497,4.80012 0,2.32777 1.45231,4.94454 4.363,7.85526 l -5.23606,3.49107 -0.009,-0.002 c -2.3262,-5.81905 -2.9112,-10.91047 -1.74613,-15.27458 1.16388,-4.36523 4.65579,-6.54622 10.47445,-6.54622 z m -53.07297,1.31133 c -2.43662,0 -4.81893,0.43619 -7.1464,1.30902 -1.74563,2.32621 -2.03582,4.07216 -0.87076,5.23723 7.56426,-3.49128 18.03888,-0.58202 31.42217,8.72831 h 7.85527 v -3.4911 h -7.85527 -0.002 c -8.29193,-7.8553 -16.09287,-11.78347 -23.40272,-11.78346 z m 0.71001,8.29005 c -3.49008,0 -5.6754,0.58103 -6.54624,1.74611 -0.87085,1.1635 -1.01652,2.61856 -0.43595,4.36418 -0.58214,3.49131 1.45513,5.23723 6.11027,5.23723 4.07302,0.58449 10.47423,-0.29067 19.20277,-2.61687 l -9.8e-4,-0.002 c -8.72815,-5.23728 -14.83846,-8.14778 -18.32971,-8.72831 z m 40.15164,21.8231 c -1.74953,0 -2.62035,0.87124 -2.62035,2.61688 0,1.16114 0.87473,2.03517 2.62035,2.61573 1.16505,0 1.74499,-0.87013 1.74499,-2.61573 0,-1.74564 -0.57994,-2.61688 -1.74499,-2.61688 z m -66.33545,17.45665 13.09247,3.4911 h -9.60138 c -2.91068,-0.58061 -4.07166,-1.74548 -3.49109,-3.4911 z m 2.83659,7.63788 c 0.43634,-6e-5 0.94603,0.0722 1.52756,0.21739 l 4.36417,0.87074 6.98218,-0.87074 c 0,0.58057 -4.36431,1.74548 -13.09247,3.49109 -1.74563,0 -2.32553,-0.57993 -1.74495,-1.74496 0,-1.30926 0.65447,-1.96333 1.96351,-1.96352 z"
     style="fill:#000000;stroke:none;stroke-width:37.0144"
     id="path1"
     sodipodi:nodetypes="scccccccccccccccccccccccsccccccssccccccccccccccccscccccccscccccccccccscccccccccscccccccccccccccccccsccccccccscccccccccsccccccccscccccccccccccccsccccsccsccccccscccccccssccccccccsscssccccscccccs"
     inkscape:transform-center-x="-5.6076869"
     inkscape:transform-center-y="-153.35214" />
  <path
     id="path1-5"
     style="fill:#a51d2d;stroke:none;stroke-width:45.8428"
     d="m 365.90418,192.27789 c -9.64718,-0.0948 -20.12073,2.13481 -31.42193,6.68867 -15.06795,6.07053 -26.00127,7.84224 -32.80033,5.31314 -6.79907,-2.53009 -11.30225,-4.13323 -13.50734,-4.80678 -4.04324,-1.01199 -5.51105,0.50504 -4.41027,4.55291 4.77778,11.13165 13.96708,16.95185 27.56485,17.45703 31.46479,1.17116 30.34198,-6.14848 51.42166,-6.14848 14.25973,0.64217 23.56955,2.3833 37.45205,5.34838 5.75447,1.25748 25.8684,5.21175 29.55885,7.84555 l 0.0896,-0.10175 v -20.35277 h -2.20513 c -18.4209,-11.01658 -43.34642,-15.46659 -61.74206,-15.7959 z"
     sodipodi:nodetypes="scccccscccccs" />
  <use
     x="0"
     y="0"
     xlink:href="#path1-5"
     id="use1"
     transform="matrix(-1,0,0,1,857.49751,0)" />
</svg>
