<?xml version="1.0" encoding="UTF-8" standalone="no"?>
<svg
   width="800"
   height="1000"
   version="1.1"
   id="svg1"
   sodipodi:docname="13846.svg"
   inkscape:version="1.4.2 (f4327f4, 2025-05-13)"
   xmlns:inkscape="http://www.inkscape.org/namespaces/inkscape"
   xmlns:sodipodi="http://sodipodi.sourceforge.net/DTD/sodipodi-0.dtd"
   xmlns:xlink="http://www.w3.org/1999/xlink"
   xmlns="http://www.w3.org/2000/svg"
   xmlns:svg="http://www.w3.org/2000/svg">
  <defs
     id="defs1" />
  <sodipodi:namedview
     id="namedview1"
     pagecolor="#ffffff"
     bordercolor="#000000"
     borderopacity="0.25"
     inkscape:showpageshadow="2"
     inkscape:pageopacity="0.0"
     inkscape:pagecheckerboard="0"
     inkscape:deskcolor="#d1d1d1"
     inkscape:zoom="0.46228384"
     inkscape:cx="-44.34505"
     inkscape:cy="751.70268"
     inkscape:window-width="1680"
     inkscape:window-height="998"
     inkscape:window-x="-8"
     inkscape:window-y="-8"
     inkscape:window-maximized="1"
     inkscape:current-layer="svg1"
     showguides="true">
    <sodipodi:guide
       position="367.73944,780.43792"
       orientation="0,-1"
       id="guide1"
       inkscape:locked="false" />
    <sodipodi:guide
       position="292.09439,741.0371"
       orientation="1,0"
       id="guide2"
       inkscape:locked="false" />
    <sodipodi:guide
       position="293.68213,463.11236"
       orientation="0,-1"
       id="guide3"
       inkscape:locked="false" />
  </sodipodi:namedview>
  <path
     style="fill:#000000;stroke:none;stroke-width:55.6728"
     d="m 618.52104,426.396 c 4.23009,-44.83927 15.65141,-76.77666 34.26397,-95.8122 18.61252,-19.03553 24.32318,-33.20643 17.13196,-42.51268 -7.19122,-9.30624 -17.13201,-8.03721 -29.82236,3.8071 -22.84264,-19.45855 -50.33841,-30.45686 -82.48729,-32.99492 -3.38413,14.38237 -8.24876,25.38069 -14.59395,32.99492 -6.34517,7.61419 -13.32484,18.18949 -20.93904,31.72591 l 19.03551,10.15225 c 0.84602,28.7648 11.20979,42.30121 31.09137,40.60921 19.88154,-1.69209 31.72589,2.32652 35.53298,12.0558 3.80715,9.72925 7.40276,23.05412 10.78685,39.97461 z m 78.6802,541.87823 -27.9188,-15.22832 c 25.3807,-75.29618 39.34012,-177.24208 41.87823,-305.83767 2.53807,-128.59567 -1.26905,-193.73953 -11.42137,-195.43155 -10.15226,-1.69203 -16.92043,27.0728 -20.30452,86.29449 h -62.18282 v -77.4112 c -31.30287,82.9103 -49.91538,210.65989 -55.83752,383.24878 H 524.6124 L 379.94229,643.40114 c -16.07443,-26.22672 -35.956,-39.34009 -59.6447,-39.34009 -21.99661,0 -16.92046,28.7648 15.22846,86.2944 32.14888,57.52962 60.49068,140.01693 85.02536,247.46194 l -72.33502,30.45684 z m 43.14719,-390.86296 h 19.03552 c 2.5383,-102.36888 2.7497,-174.70392 0.63426,-217.00511 -2.1149,-42.3012 -12.05558,-75.29614 -29.82206,-98.9848 -17.76651,-23.68866 -46.10828,-39.55161 -85.02537,-47.58887 -38.91711,-8.03721 -63.45179,0.21153 -73.60409,24.74621 28.76482,4.23011 52.45348,13.11337 71.06597,26.64977 16.07446,-7.61421 29.82236,-6.34517 41.2437,3.80709 11.42132,10.1523 14.17086,23.47717 8.24866,39.97463 -5.92212,16.49746 -16.07437,32.57191 -30.45678,48.22337 -14.38243,15.65145 -21.99667,67.47041 -22.84267,155.45688 h 19.0355 c 3.38411,-63.45177 16.70901,-94.96616 39.97467,-94.54313 23.26565,0.42301 36.5905,17.55498 39.9746,51.39591 z M 556.33829,286.8021 c 5.92215,-17.76652 24.53468,-16.49748 55.83759,3.80708 -33.84097,15.22841 -52.4535,13.95937 -55.83759,-3.80708 z m 25.38068,-178.93408 c 0,17.7665 7.19121,34.89849 21.57363,51.39598 14.38238,16.49746 32.57187,24.7462 54.56847,24.7462 24.53473,0 43.7818,-6.97971 57.74123,-20.93912 13.95936,-13.95939 20.93902,-32.36041 20.93902,-55.20306 0,-21.150597 -8.2487,-39.12859 -24.74613,-53.933982 -16.49747,-14.805429 -34.05249,-22.208143 -52.66506,-22.208143 -22.84266,0 -41.45515,7.825727 -55.83753,23.477179 -14.38242,15.651414 -21.57363,33.206397 -21.57363,52.664946 z M 269.53619,555.83767 c 0,17.76649 7.61422,26.64975 22.84267,26.64975 h 57.10657 c -6.76819,-17.76649 -19.45853,-26.64975 -38.07106,-26.64975 z m 63.4518,-24.11171 c 18.61252,0 34.26396,17.34348 46.9543,52.03044 l 151.01527,203.04572 c 6.7682,-165.82063 28.76481,-283.41793 65.98987,-352.79192 0,-28.76479 -9.72927,-42.30116 -29.18784,-40.60912 l -46.9543,90.1015 c -21.99663,38.91715 -47.80037,46.10837 -77.41122,21.57365 2.53811,-10.99832 8.24877,-15.22842 17.13201,-12.69037 8.88324,2.53807 18.40102,-0.84603 28.55332,-10.15227 l 38.07108,-100.25382 c 0.846,-25.38074 -4.65316,-39.97466 -16.49751,-43.78176 -11.84432,-3.8071 -10.36378,-16.07445 4.44162,-36.80202 14.80543,-20.7276 21.78512,-34.05247 20.93911,-39.97463 7.61424,-40.60916 26.22677,-63.8748 55.8376,-69.79695 -28.76485,-22.84264 -43.14728,-50.33843 -43.14728,-82.48736 0,-27.918772 10.15231,-52.876467 30.45692,-74.873089 C 599.48548,12.267343 626.13521,0.84602325 659.13013,1.7530126e-7 688.74099,0.84602325 714.54472,11.421321 736.54132,31.725895 c 21.99662,20.304575 32.99494,45.685284 32.99494,76.142125 0,48.22335 -21.57359,80.37225 -64.72083,96.44672 29.61086,13.53638 49.91544,31.51441 60.91373,53.93404 10.99834,22.41963 18.18954,48.01184 21.57362,76.77663 v 269.03564 h -45.68534 c 4.23016,113.36721 -5.49908,223.77333 -29.18774,331.21833 L 773.34338,1000 H 299.99305 l -5.07612,-41.87795 82.48729,-35.53307 C 356.25362,838.8326 331.08443,769.88168 301.89661,715.73619 272.7088,661.59063 259.80694,630.71074 263.19103,623.09656 250.50066,598.56184 244.15547,576.56521 244.15547,557.10669 220.46682,540.1862 220.88981,531.72596 245.4245,531.72596 h 29.18784 31.72588 z"
     id="path1"
     sodipodi:nodetypes="cssccsccsscccssccccccssccccccssccsssccscccccssssssssscscscsccccccsccssccsscsscsccccccccsccsccs" />
  <path
     id="path1-5"
     style="fill:#000000;stroke:none;stroke-width:15.7703"
     d="m 231.45766,219.56208 -6.58992,12.30297 -10.10634,-3.07606 c 3.22218,10.54536 0.58643,14.49897 -7.90842,11.86264 3.51512,11.42414 1.61012,18.16219 -5.71305,20.21266 l 22.40931,70.74179 c 4.10098,6.73732 7.61614,9.22692 10.54541,7.46934 0,10.8383 1.61142,21.67608 4.83363,32.51437 -12.00998,2.92927 -22.04371,9.30068 -24.38713,19.11371 -2.34341,9.81303 -1.31909,25.41206 3.0748,46.79572 l 5.49381,0.43908 1.75757,4.83362 4.83277,-0.44033 c -1.1717,-10.25242 -1.68322,-19.62495 -1.53676,-28.11982 0.14646,-8.49488 2.56298,-18.16222 7.2498,-29.00051 h 4.83236 c 0,17.57561 1.17173,38.81276 3.51514,63.71151 l -7.90842,-7.46934 c -11.1312,5.85852 -18.84927,14.13367 -19.28868,24.82549 -0.43938,10.69181 0.95282,22.33597 4.17503,34.93181 3.22219,12.59586 9.07955,23.87336 17.5744,33.83288 5.27268,4.6868 7.05907,0.43965 1.49346,-12.74205 l 1.31849,-3.95548 c -4.68684,-11.71707 -6.35682,-22.45227 -7.82144,-32.55823 -1.46464,-10.10596 -0.82023,-19.28878 4.74539,-27.19782 v 0.43908 c 10.83823,22.55524 28.85401,35.88268 54.04552,39.98372 V 388.28732 c -15.17374,-6.03386 -26.0143,-8.31923 -39.19599,-10.36972 -5.50751,-18.16108 -6.21,-33.51111 -2.63572,-49.21189 13.00637,-8.37727 24.54584,-11.33758 41.83171,-11.33758 v -44.20086 h -2.63699 v 6.15085 h -3.07479 v -5.71177 c -4.10097,1.46463 -7.46999,3.66191 -10.10633,6.59119 -1.17171,-4.39391 -4.10103,-6.59119 -8.78784,-6.59119 l 0.43907,4.83362 c 4.68682,5.85853 7.76227,12.59532 9.22692,20.21139 l -10.54541,-14.93868 -1.31723,9.2269 c -6.15144,4.97976 -8.78847,11.27809 -7.90968,18.89418 -7.88611,1.23221 -15.14985,4.12265 -21.79184,8.67203 -1.25288,0.85815 1.20863,-0.9762 0,0 -7.90902,-15.81803 -10.68866,-24.8718 -11.56743,-35.85655 -0.87877,-10.98475 0.70172,-24.27071 12.12585,-45.36142 1.1717,-7.32317 -1.46884,-16.79649 -4.69103,-19.72574 z m 25.26555,172.75502 c 9.29817,-0.13674 18.33461,2.61626 28.28622,8.19871 v 83.73378 c -11.66705,-3.12735 -21.37709,-8.69132 -28.18231,-18.75499 -2.87118,-26.42219 -4.74465,-46.08953 -4.74465,-72.86913 1.53787,-0.18309 3.08457,-0.28548 4.64074,-0.30837 z"
     sodipodi:nodetypes="ccccccccsccccsccccsscccscccccccccccccccccccscsccsccccs" />
  <use
     x="0"
     y="0"
     xlink:href="#path1-5"
     id="use1"
     transform="matrix(-1,0,0,1,584.18878,1.135111e-7)"
     style="stroke-width:1.5391" />
</svg>
