<?xml version="1.0" encoding="UTF-8" standalone="no"?>
<svg
   width="1000"
   height="1000"
   version="1.1"
   id="svg1"
   sodipodi:docname="13841.svg"
   inkscape:version="1.4.3 (0d15f75, 2025-12-25)"
   xmlns:inkscape="http://www.inkscape.org/namespaces/inkscape"
   xmlns:sodipodi="http://sodipodi.sourceforge.net/DTD/sodipodi-0.dtd"
   xmlns="http://www.w3.org/2000/svg"
   xmlns:svg="http://www.w3.org/2000/svg">
  <defs
     id="defs1" />
  <sodipodi:namedview
     id="namedview1"
     pagecolor="#ffffff"
     bordercolor="#666666"
     borderopacity="1.0"
     inkscape:showpageshadow="2"
     inkscape:pageopacity="0.0"
     inkscape:pagecheckerboard="0"
     inkscape:deskcolor="#d1d1d1"
     inkscape:zoom="1.0677312"
     inkscape:cx="540.86645"
     inkscape:cy="1012.8953"
     inkscape:window-width="1680"
     inkscape:window-height="998"
     inkscape:window-x="-8"
     inkscape:window-y="-8"
     inkscape:window-maximized="1"
     inkscape:current-layer="svg1"
     showguides="true">
    <sodipodi:guide
       position="627.93127,33"
       orientation="0,-1"
       id="guide12"
       inkscape:locked="false" />
    <sodipodi:guide
       position="627.93127,28"
       orientation="0,1"
       id="guide13"
       inkscape:label=""
       inkscape:locked="false"
       inkscape:color="rgb(0,134,229)" />
    <sodipodi:guide
       position="260.86793,525.67197"
       orientation="1,0"
       id="guide14"
       inkscape:locked="false" />
    <sodipodi:guide
       position="286.60476,595.37465"
       orientation="1,0"
       id="guide15"
       inkscape:locked="false" />
  </sodipodi:namedview>
  <path
     style="fill:#000000;stroke:none;stroke-width:0.999995"
     d="m 260.86793,269.50751 v 19.30321 c -13.58319,-2.14471 -19.48147,-0.5371 -17.69423,4.82464 1.78729,5.36179 5.54137,8.75895 11.26059,10.18873 -12.86832,-2.14468 -17.87301,6.43443 -15.01334,25.73684 2.85961,19.30242 10.00851,28.95247 21.44698,28.95247 v 46.11195 c -17.15777,0.71491 -24.48394,3.75269 -21.98176,9.11449 2.48315,5.32098 6.90111,7.65074 13.25661,6.98716 -13.46488,1.48501 -17.34856,11.30886 -11.64995,29.47318 5.71923,18.23008 12.51114,26.27256 20.3751,24.12785 v 69.57205 h 25.73683 v -69.57205 c 15.013,-5.71922 32.52826,-14.29838 52.54557,-25.73685 47.18371,-2.8596 86.14564,-6.79103 116.88652,-11.79537 v 66.48707 c -40.03466,5.00436 -103.66074,16.08468 -190.87907,33.24233 -51.4731,5.71923 -81.1419,30.38338 -89.00589,73.99256 0,91.42926 9.29642,144.04952 6.43362,242.81135 -22.16202,30.74094 -44.67963,50.2231 -67.55657,58.44442 -22.876943,8.22147 -43.966646,13.40342 -63.26906,15.54812 -17.87261,2.14468 -27.881996,15.11684 -30.02671,37.27892 33.600504,2.1447 63.446639,1.32613 89.54067,-0.81857 26.09398,-2.14472 55.22851,-1.07144 87.39926,3.21799 32.17088,4.28941 48.07623,-3.39613 47.71857,-23.05598 -0.35741,-19.65984 -1.608,-41.64316 -3.75274,-65.94993 27.16636,-112.95489 32.45001,-145.76408 27.08819,-174.71767 -5.36176,-28.95371 1.15121,-51.29393 8.30027,-67.02182 V 972.00002 H 643.70025 V 476.47178 c 0,-5.00432 2.8605,-7.5055 8.57973,-7.5055 5.71924,0 8.57739,2.50118 8.57739,7.5055 v 90.08013 h 23.59309 l -1.07424,-97.58563 c 0,-15.01298 -10.36403,-22.51885 -31.09624,-22.51885 -20.73227,0 -31.09858,7.50587 -31.09858,22.51885 v 20.37511 h -35.38846 c 3.57457,-18.58751 12.69032,-66.30827 27.34583,-143.16046 14.65554,-76.85223 5.89669,-127.07408 -26.27395,-150.66597 l -19.02432,-3.28687 c -2.85957,7.86396 -12.07281,13.83208 -20.65165,15.61936 -8.5789,1.78723 -16.44404,2.32389 -23.59308,1.60899 -2.35246,-2.6465 -18.22899,3.21564 -18.22899,3.21564 -7.86396,7.86395 -17.33673,23.77162 -28.41772,47.72093 -11.08104,23.94932 -16.62235,44.50236 -16.62235,61.66007 l -116.88652,1.07188 c -21.44711,-10.00865 -40.39263,-20.37503 -56.83543,-31.09859 v -23.59074 z m 290.33402,-37.87466 c 3.84818,-0.12846 7.87208,-0.0149 12.07212,0.34244 -6.43411,4.28944 -12.51209,17.51625 -18.23134,39.67832 -12.15341,19.30243 -27.88144,52.18643 -47.1838,98.65517 l -18.229,5.36174 c 0,-42.17936 5.53898,-77.38716 16.61999,-105.62589 9.69587,-24.70886 28.01462,-37.51251 54.95203,-38.41178 z m 48.53246,58.24976 c -4.28943,38.60488 -10.54473,75.60225 -18.7661,110.98999 -8.22143,35.38778 -14.11975,70.95253 -17.69424,106.69778 v 26.80873 c 3.57447,50.75834 -18.94542,76.85268 -67.55892,78.28241 -138.69144,-4.28961 -217.3316,-2.50451 -235.91911,5.3594 -18.58751,7.86399 -24.7875,29.54954 -17.69423,64.87806 11.73753,58.4595 8.10728,97.91163 -20.90986,195.09278 -0.19045,23.60189 1.07188,41.6437 1.07188,54.15455 0,12.51079 -11.25995,16.79919 -33.77945,12.86725 -22.5195,-3.93106 -49.86447,-4.10951 -82.03517,-0.53477 -32.170698,3.57474 -43.967308,4.11122 -35.388457,1.60899 8.578853,-2.50217 27.881329,-9.29407 57.907327,-20.3751 30.026,-11.08106 54.33319,-29.84686 72.92066,-56.29832 7.14908,-60.05197 8.22235,-103.04778 3.21798,-205.27916 -2.85962,-64.3415 16.79979,-97.58481 58.9792,-99.7294 89.36303,-16.44279 161.21127,-27.88006 215.54401,-34.31422 v -96.51376 c 14.29808,-2.1447 31.09704,-5.36217 50.39946,-9.65159 40.74959,-70.77554 63.98585,-115.45607 69.70502,-134.04362 z m -252.00434,66.48704 c 47.18369,12.15342 83.28513,18.9453 108.30678,20.37509 l -116.88652,32.17048 c -20.73221,1.42985 -38.24747,-4.3e-4 -52.54557,-4.28987 v -47.18382 c 9.29376,2.14471 29.66952,1.78778 61.12531,-1.07188 z M 591.15468,510.78838 H 621.1814 V 760.74587 H 501.0769 v 188.7353 l -200.53065,1.07187 1.07188,-304.64684 c 0,-7.33094 1.5154,-10.72347 7.50551,-10.72347 h 210.18225 c 45.03903,0 68.98919,-33.95959 71.84879,-101.87551 z m -67.55891,272.47634 h 97.58563 v 166.21645 h -97.58563 z"
     id="path12"
     sodipodi:nodetypes="ccscsccscsccccccccccsccssscscccssscccssccsccsccscccccsccccsscscccsscscsssccccccccccccccccccccssccccccc" />
  <path
     id="path7"
     style="fill:#1a5fb4;stroke:none;stroke-width:100.203"
     d="M 542.99902,0.08174932 C 514.33427,0.8665849 495.01628,7.2598457 485.04598,19.261194 471.75218,35.262943 461.90453,51.3876 455.50384,67.635552 c -0.98473,7.385429 -2.09285,13.294267 -3.32377,17.725517 -1.23091,4.431261 -4.80034,10.954504 -10.7087,19.570851 -5.90835,8.61635 -8.36964,14.1558 -7.38491,16.61759 0.49235,3.44656 3.69239,5.16907 9.60074,5.16907 0,3.44655 -1.96998,5.66282 -5.90891,6.64752 0,4.43128 0.98503,7.38509 2.95448,8.86218 -2.46182,6.8931 -1.47683,11.07812 2.95443,12.55524 l 2.95447,14.03244 c -0.15936,1.51387 0.33945,2.72526 1.211,3.73479 l -33.04504,100.99513 28.75936,5.97149 23.96448,-102.57052 c 0.0619,-0.002 0.52759,-0.007 0.52759,-0.007 11.81668,-0.98472 20.68368,-1.78398 26.30321,-3.72492 2.46181,11.81671 7.06562,31.57958 11.00451,39.45736 l 18.22899,-3.21564 c -4.67743,-6.64691 -12.17141,-26.56984 -14.63323,-40.35599 -0.49236,-3.93889 -2.70739,-5.66264 -6.64631,-5.17032 -6.89305,0 -23.42467,2.17792 -41.6421,4.14738 -3.93887,-1.47708 -6.15517,-3.32396 -6.64753,-5.53959 -0.49236,-2.21562 -1.23112,-5.04631 -2.21585,-8.49286 9.35492,-3.44652 15.75625,-7.38531 19.20277,-11.8166 -7.38544,-5.41596 -13.29428,-8.86229 -17.72553,-10.33936 v -4.4317 c 7.38541,-1.4771 11.07799,-3.44588 11.07799,-5.90768 -1.47707,-3.93888 -3.4459,-5.90894 -5.9077,-5.90894 -2.95417,0.49236 -3.93917,1.47739 -2.95444,2.95448 1.96943,1.96944 0.37,3.07637 -4.79977,3.32251 -5.16983,0.2462 -7.75545,-0.12195 -7.75545,-1.10666 0,-1.47709 0.49248,-2.95464 1.47721,-4.43169 10.83198,-15.7556 17.23329,-29.542057 19.20277,-41.358758 6.40067,0 14.77083,1.231262 25.11046,3.693067 14.27847,2.954178 21.66362,8.863028 22.15596,17.725528 4.92363,0 7.38493,1.722544 7.38493,5.169083 -7.38545,5.41598 -11.07799,11.07857 -11.07799,16.98692 0,5.41596 3.2,8.12351 9.60076,8.12351 4.43122,0 10.09383,-3.4463 16.98689,-10.33935 4.92366,14.77086 13.78628,27.32606 26.5877,37.66564 l 7.46319,38.18304 19.02432,3.28687 c 4.43126,-9.84722 25.48475,-31.81822 39.46948,-31.81822 13.98474,0 15.42281,10.32124 15.31464,14.25865 l -3.69307,134.4144 h 32.49658 l -6.64751,-135.89098 c -0.30232,-6.1801 -8.0032,-28.67586 -34.59044,-28.67586 -26.58723,0 -45.01467,22.91167 -47.84779,29.35059 l -6.21834,-21.63085 c 5.416,-3.93893 12.55486,-9.35525 21.41739,-16.24831 32.49578,-15.26323 48.62042,-41.111161 48.37433,-77.545953 C 644.69392,25.293688 621.30729,5.1058859 574.77908,1.1669851 563.14703,0.18226304 552.55391,-0.17923809 542.99902,0.08237378 Z M 538.22009,13.721568 c 26.0952,0 47.75926,2.585665 64.99196,7.755468 17.23266,5.169803 25.84907,19.078151 25.84907,41.726822 0,22.648659 -7.63137,39.265812 -22.89461,49.851572 -15.26323,10.5858 -26.83344,19.0803 -34.71123,25.48101 -13.29374,-8.86254 -22.40263,-20.68019 -27.32629,-35.45106 3.44655,-4.92362 5.17034,-10.339928 5.17034,-16.248297 0,-9.847258 -5.90885,-15.01609 -17.72556,-15.508451 -8.37015,0 -13.78525,4.67755 -16.24707,14.032437 h -2.21584 c -0.98471,-9.354887 -5.41727,-15.263723 -13.29505,-17.725517 -7.87779,-2.461817 -16.00043,-4.676865 -24.37061,-6.646309 16.24795,-31.511195 37.17205,-47.267675 62.77489,-47.267675 z m -6.64632,63.514749 c 7.87781,0 11.81662,2.708779 11.81662,8.124752 0,4.923646 -0.98503,9.35372 -2.95446,13.29262 -1.96946,3.938881 -5.41577,8.616451 -10.33938,14.032441 -5.90835,4.92363 -9.72403,7.50929 -11.44729,7.75548 -1.72327,0.24618 -3.20079,-0.12317 -4.43169,-1.10793 -1.23093,-0.98475 -0.8603,-2.95475 1.10913,-5.90892 l 7.38494,-8.12353 8.86213,-6.647541 c 0.98473,-0.984723 0.24596,-2.707289 -2.21583,-5.16907 -2.46181,-2.461843 -2.70808,-4.924344 -0.7386,-7.386138 1.96946,-2.461818 4.18572,-2.706846 6.64752,-0.737412 2.46179,1.969456 2.95429,4.676973 1.47723,8.12355 -1.47712,3.446526 -5.4159,8.862871 -11.81662,16.248301 l 1.47601,0.73737 c 6.89309,-7.38541 10.95624,-12.308039 12.18714,-14.769844 1.23091,-2.461817 1.84531,-5.663112 1.84531,-9.601965 0,-3.9389 -2.95382,-5.907697 -8.86216,-5.907697 -2.95417,0 -5.04607,0.861872 -6.27697,2.585136 -1.23088,1.723252 -1.84656,4.061451 -1.84656,7.015618 0,1.969468 1.47751,4.678247 4.43168,8.124749 l -5.17028,3.691863 c -2.4618,-5.908352 -3.07744,-11.446584 -1.84653,-16.616388 1.23091,-5.169768 4.80029,-7.755445 10.70866,-7.755445 z m -85.67071,59.083053 14.77107,2.95444 h -9.60077 c -3.9389,0 -5.66269,-0.985 -5.1703,-2.95444 z m 17.72554,6.64752 c 0,0.98473 -4.9238,2.70728 -14.77107,5.1691 -0.98473,0.49235 -1.47726,0.24735 -1.47724,-0.73743 0,-1.96942 0.98501,-2.95444 2.95445,-2.95444 h 5.1691 z m 8.4462,-63.098807 c -2.67721,0.09224 -5.24702,0.692093 -7.70882,1.799917 -1.96945,2.461817 -1.96945,4.431838 0,5.90892 7.87781,-4.43126 19.44921,-1.231215 34.71244,9.600767 h 8.12354 v -4.431695 h -8.12354 C 489.10808,83.883469 480.10648,79.591136 472.0748,79.868083 Z m -0.78401,10.247357 c -2.40027,0.09223 -3.97041,0.599443 -4.70896,1.522633 -0.9847,1.230914 -1.47724,3.077797 -1.47724,5.539614 0,3.938873 2.58565,5.907693 7.75547,5.907693 5.16979,0 12.18551,-1.47754 21.04807,-4.431691 -9.35491,-5.416009 -16.00127,-8.246665 -19.94016,-8.492844 -0.9847,-0.06149 -1.87707,-0.07602 -2.67718,-0.0454 z"
     inkscape:transform-center-x="25.21048"
     inkscape:transform-center-y="-36.043098"
     sodipodi:nodetypes="cscsscccccccccccccccccscccccccsscccccsscccczsccszcccssccssssccscccscsssscsscccssssccsssssccssccscccssccsccccccscssscscc" />
  <rect
     style="fill:none;fill-rule:evenodd;stroke:#613583;stroke-width:14;stroke-miterlimit:5;stroke-dasharray:none"
     id="rect1"
     width="639.76727"
     height="26"
     x="12.794702"
     y="967" />
  <path
     d="m 286.60476,316.93762 5e-5,-216.22192 c -0.008,-17.159104 -3.72929,-25.36636 -11.18975,-24.620358 5.22233,-8.206455 12.68231,-19.209869 22.38082,-33.011688 C 307.49454,29.281769 308.242,14.920911 300.03542,8.8046483e-8 281.3843,26.857627 267.95539,44.203019 259.74887,52.036509 251.54235,59.869993 246.13231,68.820836 243.52116,78.892453 240.91,88.964074 225.80299,117.12954 198.19929,163.3844 c 17.90511,-2.23814 37.30296,-21.63602 58.19226,-58.19227 2.98419,-5.222321 4.47643,-6.341515 4.47643,-3.35732 l -5e-5,218.48172"
     style="fill:#1a5fb4;stroke:none;stroke-width:1"
     id="path1"
     sodipodi:nodetypes="cccccsscssc"
     inkscape:transform-center-x="0.59495603"
     inkscape:transform-center-y="-96.4819" />
  <path
     d="m 299.66962,303.83248 c -0.42972,-8.85691 0.22953,-18.37021 3.76909,-26.77279 0.40238,-0.86823 0.88873,-1.70639 1.51889,-2.43022 h 13.55159 c 1.55917,-1.15056 3.0917,-2.62369 3.49934,-4.59478 0.41106,-1.85036 -0.45226,-3.72293 -1.66617,-5.08529 -0.54002,-0.63774 -1.16769,-1.19253 -1.79898,-1.73718 h -15.04417 c -0.006,-2.01064 0.0585,-4.09867 0.86793,-5.97165 0.17162,-0.3127 0.32843,-0.7204 0.62333,-0.90606 h 14.47475 c 1.40455,-1.37262 2.71884,-3.067 2.86419,-5.09845 0.16901,-1.95983 -0.92743,-3.78163 -2.32106,-5.07084 -0.48687,-0.44556 -0.99898,-0.91272 -1.55309,-1.24666 h -14.95737 c -0.006,-2.20112 0.14252,-4.52043 1.24273,-6.48057 0.12763,-0.30945 0.34456,-0.4839 0.68908,-0.39714 h 13.11236 c 1.54416,-1.27661 3.03455,-2.88143 3.36258,-4.93407 0.31852,-1.89257 -0.60327,-3.75609 -1.88315,-5.09844 -0.45378,-0.50178 -0.96748,-0.943 -1.47943,-1.38343 h -15.04417 c -0.006,-2.20113 0.14252,-4.52045 1.24273,-6.48057 0.12763,-0.30946 0.34456,-0.4839 0.68908,-0.39715 h 13.11236 c 1.54427,-1.27629 3.03334,-2.8807 3.36258,-4.93275 0.31586,-1.87465 -0.5862,-3.7239 -1.84764,-5.06163 -0.46386,-0.51654 -0.98905,-0.97142 -1.51494,-1.42288 h -31.85839 -25.81569 -29.65569 c -1.54491,1.27656 -3.0366,2.88119 -3.36521,4.93407 -0.31827,1.89304 0.60541,3.75645 1.88446,5.09977 0.45397,0.5016 0.96931,0.94246 1.48075,1.38342 h 13.28726 c 1.30847,1.6059 1.63085,3.75506 1.73587,5.76255 0.0113,0.37164 0.0247,0.7433 0.0183,1.11517 h -15.04154 c -1.54498,1.27652 -3.03672,2.88109 -3.36521,4.93406 -0.31536,1.87399 0.58905,3.72127 1.84896,5.05899 0.46397,0.5165 0.99093,0.97089 1.51625,1.42289 h 13.28726 c 1.30848,1.6059 1.63087,3.75506 1.73587,5.76255 0.0113,0.37163 0.0247,0.7433 0.0184,1.11516 h -15.04285 c -1.54493,1.27655 -3.03529,2.88118 -3.3639,4.93406 -0.31827,1.89304 0.60542,3.75644 1.88447,5.09977 0.45396,0.5016 0.96798,0.94116 1.47943,1.38212 h 13.32145 c 1.4157,1.51098 1.75005,3.6849 1.78978,5.67706 0,0.40064 -2e-4,0.80054 -0.0249,1.20065 h -15.06653 c -1.53978,1.18835 -3.02332,2.72132 -3.36784,4.7105 -0.35952,1.93069 0.57936,3.83904 1.84765,5.24179 0.45251,0.52901 0.96992,0.99536 1.48206,1.46496 h 13.25701 c 1.29745,1.88577 1.87966,4.14842 2.38813,6.35037 0.5875,2.73509 0.92466,5.5106 1.17303,8.29535"
     style="fill:#26a269;stroke:none;stroke-width:1"
     id="path15"
     sodipodi:nodetypes="cccccccccccccccccccccccccccccccccccccccccccccccccccccccccc"
     inkscape:transform-center-x="0.59495596"
     inkscape:transform-center-y="-96.481899" />
</svg>
