<?xml version="1.0" encoding="UTF-8" standalone="no"?>
<svg
   width="800"
   height="1000"
   version="1.1"
   id="svg1"
   sodipodi:docname="1385D.svg"
   inkscape:version="1.4.2 (f4327f4, 2025-05-13)"
   xmlns:inkscape="http://www.inkscape.org/namespaces/inkscape"
   xmlns:sodipodi="http://sodipodi.sourceforge.net/DTD/sodipodi-0.dtd"
   xmlns="http://www.w3.org/2000/svg"
   xmlns:svg="http://www.w3.org/2000/svg">
  <defs
     id="defs1" />
  <sodipodi:namedview
     id="namedview1"
     pagecolor="#ffffff"
     bordercolor="#000000"
     borderopacity="0.25"
     inkscape:showpageshadow="2"
     inkscape:pageopacity="0.0"
     inkscape:pagecheckerboard="0"
     inkscape:deskcolor="#d1d1d1"
     inkscape:zoom="0.46228384"
     inkscape:cx="197.93034"
     inkscape:cy="723.58142"
     inkscape:window-width="1680"
     inkscape:window-height="998"
     inkscape:window-x="-8"
     inkscape:window-y="-8"
     inkscape:window-maximized="1"
     inkscape:current-layer="svg1" />
  <path
     style="fill:#000000;stroke:none;stroke-width:55.2296"
     d="m 648.55685,613.02117 h 21.6347 V 460.54769 c 0,-73.48942 -11.33247,-125.34411 -33.99741,-155.56406 -22.66498,-30.21996 -49.10745,-46.18845 -79.32741,-47.90549 -30.21995,-1.71707 -51.51129,8.75689 -63.874,31.42188 24.03858,3.43406 44.9865,11.67587 62.84376,24.72542 15.7968,-6.86818 29.01804,-5.32284 39.66371,4.636 10.64567,9.95885 13.22122,22.66498 7.72665,38.11838 -5.49449,15.45339 -15.10991,30.56337 -28.84625,45.32995 -13.73635,14.76654 -20.94794,47.56204 -21.6348,98.38651 v 50.4811 h 17.51388 v -50.4811 c 0,-26.09906 13.04953,-38.97687 39.14859,-38.63344 26.09906,0.34355 39.14858,13.22136 39.14858,38.63344 z M 473.41846,334.86015 c 6.18133,-17.17041 23.69516,-16.14017 52.54149,3.09071 -31.59359,14.42313 -49.10742,13.3929 -52.54149,-3.09071 z m -19.57432,56.66244 c 7.55501,-2.74726 16.31193,-1.20193 26.27078,4.63599 9.95884,5.83795 1.88873,9.10034 -24.21032,9.7872 5.49453,4.80768 7.21159,10.13051 5.15115,15.9685 -2.06047,5.83793 -0.68683,10.47393 4.1209,13.90801 34.34087,0 53.57175,2.06044 57.69265,6.18133 4.12087,4.1209 7.89836,11.6759 11.33246,22.66499 3.4341,-40.52221 14.07976,-69.88363 31.93697,-88.08428 17.85725,-18.20068 23.18011,-31.93703 15.96858,-41.20903 -7.21162,-9.27204 -16.31196,-7.7267 -27.30103,4.63601 -21.97815,-19.23088 -48.4206,-29.87655 -79.32736,-31.93703 -3.4341,13.73635 -15.11,34.34087 -35.02768,61.81355 13.0495,1.37363 17.51381,8.58521 13.3929,21.63476 z M 566.13873,239.04918 c -7.55497,-9.61544 -17.34211,-15.62509 -29.36142,-18.02897 -12.01931,-2.40387 -27.12928,-5.66625 -45.32994,-9.78715 -18.20065,-4.12091 -39.14856,-1.03022 -62.84374,9.27206 -23.69518,10.30223 -43.44118,13.0495 -59.238,8.24181 15.10999,11.67587 34.68428,13.2212 58.7229,4.63599 24.03858,-8.5852 45.15819,-10.98907 63.35884,-7.2116 18.20066,3.77754 33.48235,8.41356 45.84509,13.90806 8.9286,-0.6868 18.54403,-1.0302 28.84627,-1.0302 z m 14.42322,0 c 6.86816,2.06047 13.04952,4.12092 18.54404,6.18135 5.49451,-6.18137 21.46302,-11.84761 47.90551,-16.99871 26.44245,-5.15113 51.68298,-3.4341 75.72159,5.1511 24.03859,8.58521 43.61288,7.03988 58.72287,-4.63599 -15.79682,4.80769 -35.54283,2.23212 -59.23802,-7.72672 -23.69517,-9.95883 -44.64309,-13.0495 -62.84372,-9.272 -18.20066,3.77746 -33.31064,6.86813 -45.32994,9.272 -12.01932,2.40388 -23.18008,8.41353 -33.48233,18.02897 z M 567.169,197.84015 v -118.476 c 0,-42.582666 -10.98907,-64.045698 -32.96724,-64.389097 -21.97814,-0.3434 -32.96722,8.070106 -32.96722,25.240517 0,17.170448 11.67589,25.755673 35.02767,25.755673 L 508.44608,177.23563 c 9.61549,0 29.18979,6.86817 58.72292,20.60452 z m 16.4836,0 c 30.21994,-13.73635 49.79424,-20.60452 58.7229,-20.60452 L 614.55936,65.971243 c 22.665,0 33.99749,-8.241806 33.99749,-24.72542 0,-17.857246 -10.81737,-26.61417 -32.45214,-26.27077 C 594.46997,15.318452 583.6526,36.781484 583.6526,79.36415 Z M 465.17665,801.55246 c 11.67587,-127.0612 32.9672,-227.67993 63.87395,-301.85618 -11.67587,-29.53311 -28.50288,-44.29967 -50.48103,-44.29967 l -38.11833,66.96463 c -21.29135,37.08812 -46.36019,43.9563 -75.20651,20.60452 2.74727,-10.30225 8.41351,-14.25144 16.99871,-11.8476 8.58524,2.40386 17.34217,-0.85851 26.27077,-9.78713 l 37.08813,-84.4785 c 2.06047,-13.04954 1.20195,-20.77624 -2.57555,-23.18008 -3.77751,-2.40386 -2.91898,-6.35306 2.57555,-11.8476 -7.55497,-2.06048 -8.24178,-7.555 -2.06045,-16.4836 -6.86817,-1.37365 -12.7061,-3.4341 -17.51381,-6.18136 -4.80775,-2.74728 -0.85856,-13.73634 11.84755,-32.96722 12.70615,-19.23089 19.05923,-31.7653 19.05923,-37.60324 0,-5.83793 5.49453,-16.65531 16.4836,-32.45212 10.98908,-15.79678 24.0386,-26.09904 39.14859,-30.90678 -32.28043,-6.86817 -54.9454,-7.38328 -67.99491,-1.54535 -13.04954,5.83797 -30.04827,8.24185 -50.99619,7.21161 -20.94791,-1.03023 -35.54277,-12.19103 -43.78458,-33.48238 -0.68684,-7.55497 2.06043,-10.30224 8.24181,-8.24181 3.43406,0.68683 10.13053,3.4341 20.08942,8.24181 9.95884,4.80774 26.78585,1.54537 50.48103,-9.78711 23.69518,-11.33246 44.64309,-15.10997 62.84374,-11.33251 18.20066,3.77751 34.85598,7.72671 49.966,11.84762 l -5.15116,-7.21161 c -16.48361,-6.86813 -32.2804,-10.3022 -47.39038,-10.3022 L 516.68795,80.394404 C 495.3966,76.960299 485.09434,62.880537 485.78117,38.155118 486.46797,13.4297 499.68919,0.72359154 525.44485,0.03679237 551.2005,-0.65000578 567.85582,8.2786179 575.4108,26.822663 582.96576,8.2786179 599.62107,-0.65000578 625.37671,0.03679237 651.13238,0.72359154 664.35361,13.4297 665.04039,38.155118 c 0.68685,24.725419 -9.6154,38.805181 -30.90676,42.239286 L 661.94975,190.6286 c -16.48361,0 -33.65403,3.77748 -51.51128,11.33245 l -4.12091,6.18136 c 17.17045,-4.12091 34.856,-8.07011 53.05666,-11.84762 18.20063,-3.77746 39.14855,5e-5 62.84372,11.33251 23.69519,11.33248 40.52223,14.59485 50.4811,9.78711 9.95884,-4.80771 16.6553,-7.55498 20.08936,-8.24181 6.18138,-2.06043 8.58525,0.68684 7.2116,8.24181 -6.86816,21.29135 -20.7762,32.45215 -41.72412,33.48238 -20.94792,1.03024 -38.11836,-1.37364 -51.51134,-7.21161 -13.39291,-5.83793 -29.18969,-6.86815 -47.39032,-3.09064 -18.20066,3.77746 -33.13895,8.07006 -44.81486,12.8778 51.51126,33.65403 77.2669,102.33574 77.2669,206.04515 v 175.13833 h -65.93439 l 1.0302,-134.95954 c 0,-10.98909 -5.83793,-16.65533 -17.5138,-16.99872 -11.67591,-0.34339 -17.51387,5.32285 -17.51387,16.99872 v 72.11586 l -47.39038,-1.03024 c -21.97815,45.32992 -36.74471,139.42385 -44.29969,282.2818 H 465.17665 L 326.09616,656.29061 c -19.91768,-30.21997 -40.17878,-38.29009 -60.7833,-24.21035 -20.60452,14.07978 -15.4534,44.64316 15.45336,91.69014 30.9068,47.04697 56.66245,121.0515 77.26696,222.0136 l -70.05535,28.84635 h 341.00469 l -25.75567,-16.48363 c 19.91772,-67.99487 29.87658,-153.1602 29.87658,-255.496 v -69.02503 h 37.08812 c 5.49455,97.528 -2.74725,202.95444 -24.72541,316.2793 l 45.32992,53.57161 H 250.8897 l -6.18136,-40.17876 79.32736,-33.99744 c -19.91768,-80.35758 -42.06754,-141.1409 -66.44955,-182.34993 -24.38201,-41.20903 -37.77494,-72.2875 -40.17878,-93.23542 -2.40387,-20.94797 10.6457,-38.4617 39.14859,-52.54148 l 69.5402,3.60573 z"
     id="path1"
     sodipodi:nodetypes="ccsssccssscccssscccccscscscsscccccssscssccccsscsssccsssccccccsssccccccsccsccsssscssccsssccccsscssccccsssccssscscccsscccccssccccscccccccssccc" />
  <path
     id="path2"
     style="fill:#000000;stroke:none;stroke-width:0.401062"
     d="m 224.80205,565.75339 h 23.27507 z"
     sodipodi:nodetypes="ccc" />
  <path
     d="m 222.201,569.52395 c 0,24.31571 10.31584,29.51515 30.947,29.51515 h 45.31501 c -7.08558,-16.70208 -14.8667,-20.70991 -23.3432,-25.93951 -3.86374,-2.38375 -7.87196,-3.57564 -12.02464,-3.57564 z m 3.31743,-23.20974 h 32.05195 c 32.42061,0 55.26271,18.67639 68.52578,58.46509 l -64.18275,17.11915 -37.08164,3.73704 c -16.62641,-11.4092 -26.57833,-24.79588 -25.84152,-48.37479 -25.78883,-20.63116 -16.94713,-30.94649 26.52613,-30.94649 z"
     style="fill:#000000;stroke:none;stroke-width:50.7215"
     id="path1-2"
     sodipodi:nodetypes="sccscscccccccc" />
  <path
     style="fill:#000000;stroke:none;stroke-width:1"
     d="m 242.88604,302.43519 q -3.16604,-41.65805 -37.65888,-41.65805 -42.1579,0 -42.1579,47.65679 -0.33329,3.16602 1.99953,3.16602 2.83275,0 2.83275,-3.16602 0,-41.65805 37.32562,-41.65805 34.49284,0 27.82757,45.65724 -15.99668,119.97517 -16.66322,153.80149 -0.49991,34.1596 4.33243,52.15585 4.66569,18.16294 16.99648,18.16294 12.33077,0 17.99627,-18.16294 5.49887,-17.99625 5.16559,-52.15585 -0.83317,-33.82632 -17.99624,-163.79942 z m 12.83067,0 q 17.82968,129.9731 20.66236,163.79942 0,48.48997 -9.66467,67.15277 -9.49798,18.66281 -28.99399,18.66281 -19.32932,0 -28.16083,-18.66281 -8.66487,-18.6628 -8.66487,-67.15277 2.66611,-33.82632 20.99566,-163.79942 3.99914,-25.32809 -16.66322,-25.32809 -31.82675,0 -31.82675,33.65968 0,8.83151 -8.33162,8.83151 -8.3316,0 -8.3316,-8.83151 0,-58.32126 47.99006,-58.32126 46.49038,0 50.98947,49.98967 z"
     id="path1-2-7" />
</svg>
