<?xml version="1.0" encoding="UTF-8" standalone="no"?>
<svg
   width="1100"
   height="1000"
   version="1.1"
   id="svg1"
   sodipodi:docname="13862.svg"
   inkscape:version="1.4.2 (f4327f4, 2025-05-13)"
   xmlns:inkscape="http://www.inkscape.org/namespaces/inkscape"
   xmlns:sodipodi="http://sodipodi.sourceforge.net/DTD/sodipodi-0.dtd"
   xmlns:xlink="http://www.w3.org/1999/xlink"
   xmlns="http://www.w3.org/2000/svg"
   xmlns:svg="http://www.w3.org/2000/svg">
  <defs
     id="defs1" />
  <sodipodi:namedview
     id="namedview1"
     pagecolor="#ffffff"
     bordercolor="#000000"
     borderopacity="0.25"
     inkscape:showpageshadow="2"
     inkscape:pageopacity="0.0"
     inkscape:pagecheckerboard="0"
     inkscape:deskcolor="#d1d1d1"
     inkscape:zoom="0.53386562"
     inkscape:cx="253.80919"
     inkscape:cy="665.89791"
     inkscape:window-width="1680"
     inkscape:window-height="998"
     inkscape:window-x="-8"
     inkscape:window-y="-8"
     inkscape:window-maximized="1"
     inkscape:current-layer="svg1"
     showguides="true">
    <sodipodi:guide
       position="321.37426,514.21046"
       orientation="0,-1"
       id="guide3"
       inkscape:locked="false" />
    <sodipodi:guide
       position="451.23047,867.97967"
       orientation="-0.44754951,-0.89425916"
       id="guide4"
       inkscape:locked="false" />
    <sodipodi:guide
       position="451.23047,982.81055"
       orientation="1,0"
       id="guide6"
       inkscape:locked="false" />
    <sodipodi:guide
       position="405.91232,990.34072"
       orientation="1,0"
       id="guide7"
       inkscape:locked="false" />
    <sodipodi:guide
       position="396.90054,990.34072"
       orientation="1,0"
       id="guide8"
       inkscape:locked="false" />
    <sodipodi:guide
       position="407.90224,911.10059"
       orientation="-0.97521121,0.22127604"
       id="guide9"
       inkscape:locked="false" />
  </sodipodi:namedview>
  <path
     style="fill:#1a5fb4;stroke:none;stroke-width:1px;stroke-linecap:butt;stroke-linejoin:miter;stroke-opacity:1"
     d="m 327.09542,146.92368 23.22262,-0.36131 41.04917,-14.3896 61.34503,13.81434 55.25735,-13.11191 50.6916,15.33625 17.32645,-2.57555 -10.7705,14.04848 -31.492,-1.87313 -27.51161,-5.50232 -33.71635,13.81434 -42.70419,-5.59835 -39.24527,-7.63064 -43.55029,8.54616 -17.56059,-7.14131 z"
     id="path2"
     sodipodi:nodetypes="cccccccccccccccc" />
  <path
     id="path1"
     style="fill:#000000;stroke:none;stroke-width:55.588"
     d="M 421.36523,0.03515625 C 406.41324,0.57887993 396.90039,10.612698 396.90039,24.898438 c 0,15.931589 6.99464,23.826375 19.5,26.544921 l -16.64062,73.337891 c 9.24309,0 18.4425,2.48943 27.68554,7.38281 l 3.25586,4.88672 c -8.69942,-2.71855 -18.44023,-5.42404 -29.31445,-8.14258 -10.87416,-2.71854 -23.26623,-0.33851 -37.13086,7.27344 -13.86459,7.6119 -23.60354,9.93962 -29.3125,6.94922 -5.70894,-2.99041 -9.66114,-4.6692 -11.83594,-5.21289 -3.80601,-1.63112 -5.42847,-0.006 -4.88476,4.88672 4.89341,14.13648 13.3896,21.38796 25.62304,21.93164 12.2335,0.54366 22.13615,-1.08073 29.74805,-4.88672 7.61196,-3.806 16.9188,-4.39989 27.79297,-1.95313 8.77666,1.97471 14.22876,3.44126 19.10937,4.88477 l 30.73438,-0.41797 v -32.69531 h -5.00391 c -17.39868,-8.69934 -29.08755,-13.0293 -35.06836,-13.0293 l 16.28711,-73.392576 c -13.59273,0 -21.5332,-5.736392 -21.5332,-17.154297 0,-11.417906 7.48133,-17.044922 20.77148,-17.044922 13.42305,0 19.54297,14.938 19.54297,43.210937 v 25.936886 l 5.00391,0.39642 V 24.213623 C 447.22115,7.0173574 436.31728,-0.50856739 421.36523,0.03515625 Z M 392.91992,137.48633 c 2.90546,0.085 5.74826,0.51385 8.4668,1.19336 10.87422,2.71854 19.69583,4.88252 26.49219,6.51367 5.94685,1.42722 12.44599,5.7549 19.43359,12.59375 -4.34648,0.21346 -8.48386,0.64719 -12.37695,1.30469 -2.31371,-1.3234 -4.6398,-2.48442 -7.05664,-3.25782 -6.79636,-2.17482 -15.61796,-4.66624 -26.49219,-7.38476 -10.87416,-2.71855 -23.26623,-1.25778 -37.13086,4.45117 -13.86459,5.70896 -25.38976,4.79164 -34.63281,-2.82031 9.24305,3.26226 20.76822,1.4741 34.63281,-5.32227 10.39847,-5.0973 19.94771,-7.52633 28.66406,-7.27148 z"
     sodipodi:nodetypes="ssccccsssccsscccccccssscccsscsccssscss" />
  <path
     style="fill:#000000;stroke:none;stroke-width:47.722"
     d="M 380.98298,722.50695 H 523.528 L 503.65804,610.19843 c 14.97448,-33.40444 14.11076,-61.33757 -2.59126,-83.79939 l -84.66312,20.7338 z m 66.52096,-485.51851 c -3.51727,-5.8622 4.56636,-19.08693 13.39291,-22.0299 9.27129,-3.09344 11.42145,3.09601 8.20908,11.66518 -2.91525,7.77507 -16.6253,25.91853 -23.75753,23.32556 -6.54091,-2.37738 -4.74741,-9.50491 2.15794,-12.95893 z m 9.50302,-14.68644 c -2.30342,2.30339 -4.17523,5.1831 -5.61533,8.63911 -1.4414,3.45572 -0.86542,4.60742 1.72734,3.45509 2.59286,-1.1517 2.73603,0 0.42951,3.45507 -2.30332,3.4554 -2.30332,4.46392 0,3.02558 2.30332,-1.44121 4.75111,-3.88904 7.34347,-7.34348 2.59286,-3.4557 4.17723,-7.05537 4.75311,-10.799 0.57588,-3.74363 -2.30392,-3.8868 -8.6392,-0.42951 z m -9.50302,-13.82268 c 36.17983,-19.96118 46.31289,11.21756 27.64504,31.53232 -9.79106,10.65506 -12.67076,18.8623 -8.6392,24.6217 4.03206,5.18324 11.95121,1.29564 23.75795,-11.66279 11.80664,-12.95876 17.42217,-28.07724 16.84639,-45.35548 -1.15176,-17.27823 -11.08679,-28.07708 -29.80529,-32.39655 -18.7181,-4.3198 -34.26847,-4.75248 -46.65115,-1.29804 -12.38289,3.45571 -20.59014,10.94297 -24.62166,22.46179 21.3101,2.30339 35.13272,6.33494 41.46792,12.09467 z m -0.86375,32.82893 c -1.72745,1.72753 -2.30333,3.3119 -1.72745,4.75311 0.57583,1.44121 1.8722,1.44121 3.88923,0 2.01717,-1.44121 1.29662,-3.02558 -2.16178,-4.75311 z m -56.15377,-7.77534 v -4.31885 l 6.04726,-5.18309 c 6.33524,-4.03156 14.39825,-2.59194 24.18925,4.31884 l 9.50334,0.86377 v 4.31884 l -9.50334,-1.72754 c -9.791,5.18356 -18.71801,5.47149 -26.78103,0.86377 z m 6.04726,-4.31885 c 1.72749,1.15169 3.74325,2.01545 6.04737,2.5913 -1.72759,-2.30337 -2.01546,-4.60708 -0.8638,-6.9111 -2.87935,1.1517 -4.60714,2.59131 -5.18357,4.31884 z m 12.09463,2.5913 c 2.30332,0 5.18307,-0.28791 8.63914,-0.86377 l -8.63914,-5.18356 c 2.30332,2.30338 2.30332,4.31915 0,6.04733 z m -12.09463,35.42071 -11.23093,1.72754 c -2.53876,2.53861 -0.37929,3.50066 1.893,3.04619 4.255,-0.85103 8.86872,-4.3031 9.33933,-4.77373 z m 0,-1.72753 c 1.15166,-0.57585 0.20516,-1.23596 -2.674,-1.23596 -2.87935,0 -5.6779,-0.70144 -8.35429,-0.61565 -5.68208,0 -3.55359,2.82362 -1.92973,2.71538 z m 48.37906,-47.51491 c -11.51885,-8.06342 -26.20526,-12.09513 -44.05928,-12.09513 -1.15166,2.30338 -2.87955,5.47117 -5.18357,9.50335 6.91116,-2.30338 13.67838,-1.8707 20.30187,1.29803 6.62319,3.16876 11.95049,4.75313 15.98211,4.75313 l 0.86379,4.31885 c -6.91146,-0.57585 -13.67878,-2.30371 -20.30198,-5.18357 -6.62348,-2.87924 -13.10275,-2.87924 -19.43808,0 -5.75939,6.33557 -11.51878,16.70255 -17.27819,31.10091 6.91116,2.30337 10.07877,5.47117 9.50284,9.50334 6.91147,0 11.66294,1.00854 14.25451,3.0256 2.59298,2.01704 0.14534,5.61654 -7.34294,10.79853 -2.30333,10.94299 3.168,14.83057 16.41399,11.66277 13.24669,-3.16874 21.02184,3.59873 23.32556,20.30239 2.30342,16.70207 -7.19962,25.05311 -28.50912,25.05311 -21.3098,0 -29.51686,4.31963 -24.62116,12.95889 4.89531,8.63898 11.9505,23.90142 21.16558,45.78737 9.21507,21.88562 15.26263,66.23305 18.14258,133.04228 l 80.34377,-18.14201 c -4.03196,-31.6769 1.15156,-68.53723 15.55016,-110.58096 14.3987,-42.04371 10.079,-63.06557 -12.959,-63.06557 -23.0375,0 -36.28404,-16.70223 -39.73942,-50.10669 -0.57588,-4.60772 -2.8797,-9.79129 -6.91166,-15.55068 -4.03136,-5.75942 -3.02287,-11.51883 3.02567,-17.27824 6.04734,-5.7594 10.94272,-12.81464 14.68644,-21.16567 7.85159,-17.51486 -8.8503,-22.69591 -19.87146,-9.93476 -5.47161,6.33524 -7.91939,6.33524 -7.34351,0 z m -32.82885,77.75205 c -9.791,0.57585 -16.99013,0.57585 -21.59747,0 -4.60754,-0.57585 -7.05539,-3.74364 -7.34345,-9.50336 -0.28629,-5.7594 -1.72601,-9.21496 -4.31898,-10.36666 -2.59287,-1.15169 -3.02557,-2.73606 -1.29808,-4.75311 1.72759,-2.01705 2.30342,-2.73766 1.72749,-2.16182 -1.37317,-0.34328 -9.48936,-3.11814 -1.72749,-7.77866 -1.72749,-1.72753 -4.31927,-3.02399 -7.77535,-3.88935 -3.45568,-0.86537 -3.74365,-5.04089 -0.8638,-12.52654 6.33563,-12.67085 12.09503,-22.46181 17.27829,-29.3729 6.91137,-32.82894 21.45394,-51.11505 43.62794,-54.85836 22.17352,-3.74365 42.9073,-2.73513 62.20138,3.02557 19.29408,5.75941 29.22901,19.86985 29.80529,42.33132 1.15166,20.1581 -3.16794,36.28448 -12.9589,48.37914 -9.79106,12.09468 -19.87016,20.44588 -30.2368,25.05358 v 0 c 0.57578,8.63928 2.16015,16.41448 4.75321,23.32557 2.59276,6.91142 20.59101,11.80692 53.99455,14.68646 22.46152,4.60771 36.85992,19.00624 43.1952,43.19557 13.24654,50.10684 21.30996,88.40694 24.18966,114.90029 4.60744,21.88595 4.60744,62.48989 0,121.81185 2.30342,24.76549 3.45508,44.34742 3.45508,58.7458 0,13.82252 -5.47156,28.79706 -16.41448,44.92358 -5.7595,0.57585 -9.50302,-0.57584 -11.23086,-3.45506 -1.72754,-2.87923 -1.4397,-6.04702 0.86372,-9.50337 5.18362,-9.21481 8.35136,-18.14184 9.50342,-26.78112 1.15166,-8.63894 -1.15226,-18.71784 -6.91166,-30.23666 -4.03146,5.75909 -5.61593,13.24621 -4.75301,22.46132 0.86532,9.21512 -1.87031,13.53475 -8.20719,12.9589 -6.33518,-23.03763 -5.32659,-41.89976 3.02557,-56.58637 8.35136,-14.68627 9.21508,-36.71602 2.59116,-66.08926 -6.62302,-29.37288 -7.63161,-54.42629 -3.02547,-75.16023 -16.12654,-25.91752 -27.93338,-54.71457 -35.42072,-86.39115 v 0 c -21.88564,61.0498 -27.21313,105.97324 -15.98227,134.77028 11.23096,28.79706 12.23965,59.8978 3.02587,93.30226 l 19.86996,131.31475 v 0 c 12.67046,35.70814 16.27011,73.72015 10.79895,114.03603 -5.47146,40.31617 -4.75081,81.49615 2.16185,123.53986 6.91106,13.82254 -0.14427,20.44588 -21.16609,19.87003 -21.02202,-0.57585 -39.02027,-0.57585 -53.99475,0 -14.97428,0.57585 -27.64474,0.86377 -38.01194,0.86377 -10.36678,0.57587 -15.26218,-1.29595 -14.68635,-5.61546 0.57583,-4.3198 8.35098,-10.51127 23.32551,-18.57437 24.76544,-2.30337 41.17972,-7.19885 49.24284,-14.68644 8.06332,-7.48728 11.5191,-22.17371 10.36704,-44.05934 -2.8792,-25.9175 -10.94232,-84.37554 -24.18936,-175.37408 H 424.18 c -14.39874,12.09466 -20.73427,27.93295 -19.00638,47.51488 1.72769,19.58195 -7.34335,49.38687 -27.21293,89.41483 -19.87013,40.02793 -30.95706,74.15251 -33.26074,102.37372 0.57583,14.97458 -7.77536,20.73403 -25.05355,17.27822 -17.27831,-3.4557 -31.24482,-4.03154 -41.89952,-1.72752 -10.65505,2.30337 -26.92542,3.45506 -48.81111,3.45506 -17.27819,0.57587 -24.33357,-2.87983 -21.16612,-10.3671 3.16882,-7.48697 13.39188,-12.9583 30.66915,-16.41401 24.76546,-10.94298 42.33157,-17.99835 52.69836,-21.16615 10.36712,-3.16873 19.8702,-16.27128 28.50924,-39.30765 8.06309,-23.03764 19.86998,-80.0559 35.42067,-171.05476 l 42.3312,-214.25037 c 0,-61.62565 -8.35098,-107.98885 -25.05295,-139.08961 -10.36717,29.94873 -27.35751,62.48942 -50.97106,97.62206 -36.91684,3.8902 -76.31236,3.45538 -128.72288,0 -12.67083,5.7594 -23.03781,9.21495 -31.10092,10.36663 v 269.54061 c 33.98058,-19.58193 77.17614,-26.20526 129.5867,-19.87002 10.36712,3.45573 10.36712,7.19935 0,11.23089 -49.53103,5.18358 -82.7915,14.25474 -99.78143,27.21348 -16.99032,12.95876 -26.3494,23.75762 -28.07726,32.39656 -0.57585,3.45571 -1.15169,9.50306 -1.72754,18.14201 33.98062,-19.58193 77.17619,-26.49319 129.58673,-20.73378 10.36713,4.03156 10.36713,7.77518 0,11.2309 -49.53101,5.75941 -82.7915,14.97452 -99.78148,27.64536 -16.99029,12.67051 -26.34936,23.3254 -28.07722,31.96468 -0.57585,3.4557 -1.15169,40.21076 -1.72754,115.08314 h -25.05358 c 0,-74.87238 -0.28792,-111.62744 -0.86377,-115.08314 -1.72753,-8.63928 -11.08662,-19.43829 -28.07724,-32.39705 C 90.566828,839.56139 57.306338,830.4904 7.7753475,825.30682 c -10.36713,-3.45572 -10.36713,-7.19934 0,-11.2309 52.4105505,-5.75941 95.6061325,1.15185 129.5867425,20.73378 -0.57586,-8.63895 -1.1517,-14.97419 -1.72755,-19.00575 -1.72752,-8.06312 -11.0866,-18.57406 -28.07722,-31.53282 -16.990012,-12.95874 -50.250492,-22.0299 -99.781483,-27.21348 -10.3671399,-4.03154 -10.3671399,-8.06309 0,-12.09465 52.41051,-5.7594 95.606103,1.15185 129.586713,20.73378 V 503.93153 c -12.09498,2.30338 -18.14246,-10.65537 -18.14246,-38.87627 -9.2148,0 -14.11028,-3.16762 -14.68645,-9.50286 13.82284,-3.45572 24.76582,-4.89535 32.82891,-4.31885 V 239.57499 c 0,-27.0692 -5.90337,-47.22714 -17.71011,-60.47382 -11.80674,-13.24668 -25.917333,-15.69434 -42.331813,-7.343 -16.41445,8.35106 -24.62169,20.87778 -24.62169,37.58016 -5.18323,12.67051 -10.078719,12.67051 -14.68645,0 0,-28.79737 10.65489,-48.37946 31.964682,-58.74627 21.31011,-10.36682 41.900091,-8.20709 61.769951,6.47922 19.86985,14.68659 29.80478,42.18783 29.80478,82.50371 v 213.38609 c 19.58193,6.33525 40.17193,8.85466 61.76999,4.24695 21.59766,-4.60741 46.26224,-3.83113 73.00037,-1.65562 12.67082,-43.77159 33.69264,-87.25509 63.06548,-130.45051 20.73402,-13.24668 39.45213,-18.43008 56.1546,-15.55022 z"
     id="path1-9"
     sodipodi:nodetypes="ccccccccccccccccccscccscscccccccsscccccccccccccccccccccscccscsccccscccccccccssssccsscccsssccscssccscccccssscccccscscsccccccsssccsscsscscccccsccscccccccccccccccscccccccccsccccccccccccsscccscscccccc" />
  <use
     x="0"
     y="0"
     xlink:href="#path1"
     id="use9"
     transform="matrix(-1,0,0,1,902.46094,0)" />
  <circle
     style="fill:none;fill-rule:evenodd;stroke:#613583;stroke-width:9.14212;stroke-linecap:round;stroke-miterlimit:5;stroke-dasharray:none"
     id="path9"
     cx="451.23047"
     cy="101.77213"
     r="27.020641" />
</svg>
