<?xml version="1.0" encoding="UTF-8" standalone="no"?>
<svg
   width="857.42053"
   height="1000"
   id="svg2"
   sodipodi:version="0.32"
   inkscape:version="1.4.3 (0d15f75, 2025-12-25)"
   sodipodi:docname="1386A.svg"
   inkscape:output_extension="org.inkscape.output.svg.inkscape"
   version="1.0"
   xmlns:inkscape="http://www.inkscape.org/namespaces/inkscape"
   xmlns:sodipodi="http://sodipodi.sourceforge.net/DTD/sodipodi-0.dtd"
   xmlns="http://www.w3.org/2000/svg"
   xmlns:svg="http://www.w3.org/2000/svg"
   xmlns:rdf="http://www.w3.org/1999/02/22-rdf-syntax-ns#"
   xmlns:cc="http://creativecommons.org/ns#"
   xmlns:dc="http://purl.org/dc/elements/1.1/">
  <metadata
     id="metadata9">
    <rdf:RDF>
      <cc:Work
         rdf:about="">
        <dc:format>image/svg+xml</dc:format>
        <dc:type
           rdf:resource="http://purl.org/dc/dcmitype/StillImage" />
      </cc:Work>
    </rdf:RDF>
  </metadata>
  <defs
     id="defs7" />
  <sodipodi:namedview
     inkscape:window-height="998"
     inkscape:window-width="1680"
     inkscape:pageshadow="2"
     inkscape:pageopacity="0.0"
     guidetolerance="10.0"
     gridtolerance="10.0"
     objecttolerance="10.0"
     borderopacity="1.0"
     bordercolor="#666666"
     pagecolor="#ffffff"
     id="base"
     height="18px"
     width="15.43357px"
     inkscape:zoom="6.04"
     inkscape:cx="444.78477"
     inkscape:cy="248.42715"
     inkscape:window-x="-8"
     inkscape:window-y="-8"
     inkscape:current-layer="svg2"
     inkscape:showpageshadow="2"
     inkscape:pagecheckerboard="0"
     inkscape:deskcolor="#d1d1d1"
     inkscape:window-maximized="1"
     showguides="true" />
  <path
     id="path1-3"
     style="fill:#000000;stroke:none;stroke-width:16.6521"
     d="M 516.40911,-0.5037681 C 514.82299,-0.4371111 513.1542,-0.2697645 511.40205,0 497.3849,2.1580745 489.66196,8.285351 488.23117,18.378043 c -1.43025,10.092598 -1.27477,18.563018 0.46847,25.411928 -7.34857,-15.463974 -17.2666,-21.309678 -36.21937,-14.91524 -11.82367,3.989163 -21.04432,22.589245 -10.73444,35.40251 -53.52246,41.435019 -87.09077,104.595739 -74.27948,166.136429 l 15.75641,-1.80215 c -10.81314,-62.2573 16.74481,-119.10891 75.59597,-164.100775 -14.6228,-5.048881 -13.80508,-20.176737 -5.00371,-25.854955 11.30723,-7.424655 20.81286,1.96e-4 23.87238,6.313563 2.00171,4.054004 1.9079,9.405893 -0.28249,16.056945 C 424.45755,113.81845 403.24835,166.9856 404.13927,217.82646 l 19.00245,7.63775 C 420.33295,173.53699 440.982,121.68625 476.59279,85.654526 494.3435,68.227831 500.13922,50.981779 499.59416,36.257022 c -0.65727,-14.707486 2.99398,-22.6725 10.95573,-23.898286 7.8497,-1.208515 12.7979,0.726851 14.84227,5.807433 2.0449,5.080522 0.69989,12.002675 -4.03484,20.7674 -4.75199,8.652538 -9.91178,22.125798 -10.79841,39.481674 0.92171,66.998277 -4.03698,113.905167 -16.97647,156.777467 l 18.9166,-1.68777 c 16.65193,-55.8491 16.5368,-92.75087 12.61298,-163.464993 -0.56972,-3.700534 1.03058,-7.103607 4.7999,-10.209508 8.03905,-6.468601 18.88468,-2.218573 22.85073,7.502347 5.09374,12.481542 -10.93127,21.175496 -19.99939,18.74606 19.58972,62.577984 23.39563,118.144284 -1.20127,163.753974 l 15.70846,5.18654 c 24.53817,-43.48873 20.40601,-103.26865 0.93378,-160.850446 16.22322,-4.741584 18.47113,-24.019626 12.27028,-34.91286 -8.57427,-15.062828 -21.34019,-13.904508 -31.27586,-9.646875 9.06463,-13.449158 11.83757,-25.64429 8.31685,-36.581891 -2.96737,-9.4873452 -10.00353,-13.9974118 -21.10639,-13.5310561 z"
     sodipodi:nodetypes="ssccscccccccccccsccccccccccccsccs" />
  <path
     style="fill:#f8e45c;stroke:none;stroke-width:1px;stroke-linecap:butt;stroke-linejoin:miter;stroke-opacity:1"
     d="m 348.34437,218.54305 70.00498,10.19386 42.50929,23.29684 32.77526,-17.01172 76.23365,-18.13461 -0.33113,50 -219.20529,1.98675 z"
     id="path3"
     sodipodi:nodetypes="cccccccc" />
  <path
     style="fill:#000000;stroke:none;stroke-width:0.999997"
     d="m 471.01812,622.52517 v -83.63872 c 2.93469,-36.68364 15.95739,-53.92499 39.0681,-51.72399 23.11072,2.20105 35.39973,15.04035 36.86704,38.51785 v 134.26217 h 17.60812 V 527.88136 c 2.2011,-85.10609 -1.83414,-140.86524 -12.10556,-167.27747 -10.27144,-26.41222 -31.54795,-46.95508 -63.82955,-61.62857 7.33674,41.81939 1.46738,76.48547 -17.60815,103.99818 -19.07552,27.51273 -25.12832,49.88974 -18.15842,67.13105 6.96989,17.24136 9.35433,48.60592 7.15334,94.09365 v 58.32697 z m -127.65914,3.30159 h 19.8092 l 18.70866,-95.7444 c -16.8745,-15.4071 -26.41227,-33.38212 -28.61328,-53.92499 -13.2061,34.48265 -16.50762,84.37247 -9.90458,149.66939 z m 94.64386,-278.42902 c -0.73368,33.0153 -11.55537,59.0607 -32.46504,78.1362 -20.90969,19.07549 -29.16351,37.41733 -24.76148,55.02552 4.40204,17.60814 14.67346,24.21119 30.81428,19.80913 16.14081,-4.40204 21.64336,-15.95736 16.50767,-34.66604 -5.13574,-18.70867 1.28388,-39.98517 19.25887,-63.82952 17.97497,-23.84441 25.86198,-48.23905 23.66098,-73.18389 -2.20099,-24.9449 -13.93976,-38.51787 -35.21632,-40.71892 14.67345,22.01023 15.40715,41.81939 2.20104,59.42752 z m -59.42757,-31.91476 c -19.07545,3.66838 -47.13844,13.7564 -84.18894,30.26405 -37.0505,16.50762 -65.48034,39.06807 -85.28948,67.68134 -19.8092,28.61323 -28.42986,43.28669 -25.862,44.02037 2.56787,0.73365 12.8393,-10.63828 30.81428,-34.1158 17.97499,-23.47756 39.98518,-42.00279 66.03057,-55.57573 26.04541,-13.57298 61.07829,-24.02783 105.09867,-31.36456 34.48263,4.40206 49.88976,-2.56783 46.22137,-20.90967 -3.66833,-18.34184 -12.28899,-26.77907 -25.86194,-25.31171 -13.57295,1.46737 -22.56046,9.9046 -26.96253,25.31171 z m 12.10562,-2.201 c 2.9347,-11.00509 8.80408,-15.59057 17.60815,-13.75636 8.80409,1.83418 10.27144,5.68596 4.40204,11.55532 -5.86936,5.8694 -13.20609,6.60307 -22.01019,2.20104 z M 127.6591,632.42976 c 7.33675,-15.40709 24.21124,-23.11071 50.62346,-23.11071 -21.27653,-13.20611 -40.71886,-17.05789 -58.327,-11.55533 -17.60815,5.50246 -22.377038,9.3543 -14.30665,11.55533 8.0704,2.20088 15.40714,9.90459 22.01019,23.11071 z M 388.47989,838.22512 H 355.46461 L 213.49885,665.44505 c -19.0755,-28.61327 -38.51782,-36.1334 -58.327,-22.5604 -19.80917,13.57294 -14.85689,42.91982 14.85685,88.04074 29.71378,45.12086 54.47527,116.10371 74.28443,212.94861 l -67.13109,28.61322 h 327.95189 l -16.50766,-15.40711 c 17.60814,-66.7643 27.32932,-121.97321 29.16352,-165.62677 1.83416,-43.65354 2.3844,-80.88742 1.65075,-111.70163 V 530.08236 c -8.80407,-25.67856 -17.24134,-25.31171 -25.31169,1.10053 V 644.53538 H 435.8018 V 523.47931 l -27.51276,9.90457 c -10.2714,29.34693 -16.87445,68.96529 -19.80915,118.85505 z M 104.54843,580.70584 V 388.11661 c -0.73369,-19.0755 -7.703591,-28.61324 -20.909719,-28.61324 -5.869364,2.93469 -12.839254,8.07041 -20.909667,15.40713 C 48.789268,388.11663 38.51784,404.62429 31.914762,424.43346 25.311714,444.2426 20.54284,460.01658 17.608143,471.75536 6.6030629,490.09719 0.73368186,487.5293 0,464.0518 c 11.738761,-44.02038 20.726254,-73.00049 26.962475,-86.94029 6.236222,-13.93978 10.454842,-23.11068 12.655857,-27.51271 5.135715,-14.67346 16.507654,-28.98009 34.115808,-42.91987 21.276507,-24.94488 39.2515,-43.28672 53.92496,-55.02551 16.8745,-5.86936 24.21124,-2.56783 22.01022,9.90462 -5.1357,11.73875 -11.73878,19.80915 -19.80918,24.21119 -18.34184,18.34184 -30.447444,33.74898 -36.316808,46.22143 23.477518,1.46733 35.583118,20.17597 36.316808,56.12595 v 187.08667 -1.10072 0 c 33.01528,-0.73344 60.89484,13.57295 83.63871,42.91988 L 362.06766,800.80753 V 644.53538 h -41.81939 c -5.86936,-85.83976 -2.01756,-142.69941 11.55538,-170.57898 13.57296,-27.87961 30.9977,-47.6888 52.2742,-59.42756 21.27653,-11.73876 31.54796,-31.54793 30.81428,-59.42752 -18.34184,-7.33673 -51.54055,-2.56786 -99.59614,14.30662 -48.05559,16.8745 -86.39,46.22143 -115.00324,88.0408 -11.73879,11.00509 -19.62576,15.04031 -23.66094,12.10562 -4.03522,-2.93473 -3.8518,-10.6383 0.55023,-23.11071 15.40715,-34.48264 37.60074,-63.2793 66.58081,-86.39 28.98009,-23.11073 67.68136,-40.53547 116.10381,-52.27424 13.20609,-23.47751 30.81423,-35.21628 52.82442,-35.21628 5.13572,-5.13573 13.93981,-7.33674 26.41229,-6.60309 12.47241,0.73368 28.06294,3.85181 46.77162,9.35437 18.70866,5.50254 39.80177,17.79156 63.27928,36.86705 23.47755,19.0755 35.58318,57.96018 36.31684,116.65405 V 685.25423 H 550.2548 c 0.73366,31.54791 0.91713,61.44509 0.55036,89.69153 -0.36673,28.24643 -8.98754,86.02312 -25.862,173.3302 l 39.61828,51.72403 H 140.86523 l -4.40207,-38.51785 75.93519,-33.0153 C 192.58917,851.43118 171.12923,793.10415 148.01857,753.48584 124.90784,713.86744 112.25197,680.11849 110.05095,652.23893 104.18159,635.36445 94.276998,625.09298 80.337187,621.42462 66.397409,617.75626 64.012979,610.96985 73.1839,601.0652 c 9.170893,-9.90453 19.625733,-16.32422 31.36453,-19.25887 z m 359.8666,-303.74071 c 11.73878,-11.00508 24.02785,-18.34181 36.8671,-22.01019 12.83925,-3.66835 28.98008,-7.52013 48.42243,-11.55533 19.44233,-4.03521 42.00277,-1.46735 67.68135,7.70356 25.67853,9.17093 46.58823,7.52017 62.729,-4.95228 -16.87442,5.86937 -37.96754,3.3015 -63.27925,-7.70357 -18.5208,-8.0525 -35.47039,-12.07875 -50.84874,-12.07875 -39.10557,0 -77.44037,11.42069 -107.07441,37.39047 -23.9947,-24.6823 -67.94529,-37.44493 -104.91557,-37.39047 -15.16704,0.0224 -32.43525,3.27473 -50.80657,11.52852 -25.3117,11.37192 -46.40481,14.12317 -63.27927,8.2538 16.14078,12.47245 37.05047,14.12321 62.72903,4.95228 32.73476,-11.69097 52.67954,-14.26936 116.10377,3.85177 12.83929,3.66838 24.39463,11.00511 34.66604,22.01019 z m -37.41727,0 c 0,-2.93464 -4.5855,-5.68593 -13.75643,-8.25381 -9.17089,-2.56784 -23.47751,-5.86937 -42.91987,-9.90458 -19.4423,-4.0352 -36.31679,-2.93469 -50.62342,3.30153 -14.30664,6.23623 -32.46505,8.98751 -54.47523,8.25385 -22.01021,-0.73368 -37.41732,-12.83929 -46.22139,-36.31684 -0.73368,-8.07038 2.201,-11.00507 8.80406,-8.80405 3.66836,1.46732 10.82169,4.76885 21.45994,9.90457 10.63826,5.13571 28.61323,1.46733 53.92495,-11.0051 18.86968,-9.29808 36.10835,-14.00906 51.71605,-14.13292 35.81249,2.13138 75.83048,11.09755 104.00609,33.71964 26.50617,-21.52954 71.12244,-33.38801 105.57556,-33.72211 15.77386,0 33.22307,4.71189 52.34759,14.13539 25.3117,12.47245 43.28666,16.14081 53.92496,11.0051 10.63825,-5.13574 17.7915,-8.43725 21.45986,-9.90457 6.60312,-2.20104 9.17099,0.73366 7.70366,8.80405 -8.07043,23.47755 -23.11076,35.58316 -45.12091,36.31684 -22.01022,0.73366 -40.1686,-2.01762 -54.47526,-8.25385 -14.30662,-6.23622 -31.18108,-7.33673 -50.62341,-3.30153 -19.44235,4.03521 -33.74897,7.52017 -42.91986,10.45487 -9.17094,2.93467 -13.75637,5.50251 -13.75637,7.70352 z"
     id="path4"
     sodipodi:nodetypes="ccsccccscsscccccccccsssssscccssssscssccsscccscccccssccccscccccccccccccsccscccccccccsccccsscscscsccssscccscccccscsscccssscsscsscsscccssssccssscscsccsssscc" />
</svg>
