<?xml version="1.0" encoding="UTF-8" standalone="no"?>
<svg
   width="800"
   height="1000"
   version="1.1"
   id="svg1"
   sodipodi:docname="1386B.svg"
   inkscape:version="1.4.3 (0d15f75, 2025-12-25)"
   xmlns:inkscape="http://www.inkscape.org/namespaces/inkscape"
   xmlns:sodipodi="http://sodipodi.sourceforge.net/DTD/sodipodi-0.dtd"
   xmlns="http://www.w3.org/2000/svg"
   xmlns:svg="http://www.w3.org/2000/svg">
  <defs
     id="defs1" />
  <sodipodi:namedview
     id="namedview1"
     pagecolor="#ffffff"
     bordercolor="#000000"
     borderopacity="0.25"
     inkscape:showpageshadow="2"
     inkscape:pageopacity="0.0"
     inkscape:pagecheckerboard="0"
     inkscape:deskcolor="#d1d1d1"
     inkscape:zoom="0.5341148"
     inkscape:cx="-36.509005"
     inkscape:cy="107.65476"
     inkscape:window-width="1680"
     inkscape:window-height="998"
     inkscape:window-x="-8"
     inkscape:window-y="-8"
     inkscape:window-maximized="1"
     inkscape:current-layer="svg1"
     showguides="true" />
  <path
     id="path1-3"
     style="fill:#000000;stroke:none;stroke-width:16.6521"
     d="m 604.07638,0.03277669 c -1.58612,0.06665669 -3.25491,0.23400364 -5.00706,0.50376806 -14.01715,2.15807455 -21.74009,8.28535105 -23.17088,18.37804325 -1.43025,10.092598 -1.27477,18.563018 0.46847,25.411928 -7.34857,-15.463974 -17.2666,-21.309678 -36.21937,-14.91524 -11.82367,3.989163 -21.04432,22.589245 -10.73444,35.40251 C 475.89064,106.2488 442.32233,169.40952 455.13362,230.95021 l 15.75641,-1.80215 C 460.07689,166.89076 487.63484,110.03915 546.486,65.04729 531.8632,59.998409 532.68092,44.870553 541.48229,39.192335 c 11.30723,-7.424655 20.81286,1.96e-4 23.87238,6.313563 2.00171,4.054004 1.9079,9.405893 -0.28249,16.056945 C 512.12482,114.35499 490.91562,167.52214 491.80654,218.363 l 19.99583,-6.93179 c -2.80877,-51.92722 16.8469,-89.20842 52.45769,-125.240139 17.75071,-17.426695 23.54643,-34.672747 23.00137,-49.397504 -0.65727,-14.707486 2.99398,-22.6725 10.95573,-23.898286 7.8497,-1.208515 12.7979,0.726851 14.84227,5.807433 2.0449,5.080522 0.69989,12.002675 -4.03484,20.7674 -4.75199,8.652538 -9.91178,22.125798 -10.79841,39.481674 0.92171,66.998272 -2.38135,101.984632 -15.32084,144.856932 l 17.26097,10.23276 c 16.65193,-55.8491 16.5368,-92.75087 12.61298,-163.464988 -0.56972,-3.700534 1.03058,-7.103607 4.7999,-10.209508 8.03905,-6.468601 18.88468,-2.218573 22.85073,7.502347 5.09374,12.481542 -10.93127,21.175496 -19.99939,18.74606 19.58972,62.577979 23.39563,118.144279 -1.20127,163.753969 l 15.70846,5.18654 c 24.53817,-43.48873 20.40601,-103.26865 0.93378,-160.850441 16.22322,-4.741584 18.47113,-24.019626 12.27028,-34.91286 -8.57427,-15.062828 -21.34019,-13.904508 -31.27586,-9.646875 9.06463,-13.449158 11.83757,-25.64429 8.31685,-36.581891 C 622.2154,4.0764876 615.17924,-0.43357901 604.07638,0.03277669 Z"
     sodipodi:nodetypes="ssccscccccccccccsccccccccccccsccs" />
  <path
     style="fill:#000000;stroke:none;stroke-width:0.999998"
     d="m 493.88465,216.64893 c -23.70201,0 -43.06,12.64056 -58.07126,37.92268 -65.07363,17.95134 -144.40942,56.10219 -186.06107,149.32249 -5.53048,13.4311 -5.92451,21.72678 -1.1841,24.88709 4.7404,3.16025 13.0361,-1.1846 24.88708,-13.0356 82.55966,-109.43959 198.56728,-119.8162 221.61345,-110.21362 0.79008,30.02255 -10.27015,51.3528 -33.18208,63.99386 -22.91195,12.64107 -41.67677,33.97338 -56.29301,63.99595 -14.6162,30.02251 -18.76405,91.25299 -12.44355,183.69077 h 45.03358 V 785.49743 L 242.64144,587.58488 c -25.28217,-36.34306 -54.51407,-54.51476 -87.69685,-54.51476 v -31.99798 c 23.70199,-24.49208 39.89932,-48.98298 48.59007,-73.47506 23.27652,-14.96356 44.02843,-35.52243 43.25531,-61.03359 -0.39502,-13.03612 -3.55569,-23.50317 -9.48119,-31.40384 -5.92552,-7.90066 -17.18274,-9.08698 -33.77412,-3.55649 -17.38148,-30.02255 -43.84886,-46.6139 -79.40185,-49.77418 -35.553002,3.16028 -62.020394,19.75163 -79.40184,49.77418 -32.067282,-10.39271 -41.7453964,5.3513 -43.2553259,34.96033 -0.77313731,25.51427 19.9837959,46.07324 43.2553259,61.03359 7.900664,24.49208 24.095924,48.98298 48.587965,73.47506 v 31.99798 c -27.867487,20.90047 -10.703242,53.43616 10.667395,59.8474 11.85098,3.55532 20.54071,14.41854 26.07118,32.59003 3.16027,30.02249 17.18412,66.3659 42.07122,109.02952 24.8871,42.66357 47.9968,105.47438 69.3286,188.43136 l -81.77214,35.55238 4.74059,41.47917 h 493.00105 l -42.66118,-55.69887 c 17.38147,-94.0179 26.26535,-156.23551 26.66324,-186.6531 0.39374,-30.4176 0.1978,-62.61313 -0.59205,-96.58599 h 37.92268 V 384.93381 C 677.96944,321.72846 664.93278,279.85393 639.65064,259.31221 555.07834,190.59712 496.80105,213.73254 493.88465,216.64893 Z m 23.70087,16.59209 c 48.51909,4.85197 52.77831,70.99155 13.03561,122.65716 -19.75167,25.67715 -26.66406,48.58985 -20.73855,68.73656 5.92549,20.1467 0.1973,32.59022 -17.18413,37.33062 -17.38149,4.74041 -28.44164,-2.3711 -33.18207,-21.33268 -4.74039,-18.96164 4.14629,-38.71381 26.66323,-59.25536 22.51688,-20.54173 33.77622,-48.58943 33.77622,-84.14244 14.22123,-18.96157 13.43108,-40.29182 -2.37031,-63.99386 z m -5.92469,27.84943 c 3.16029,18.56658 -13.03702,26.66528 -48.59006,24.29504 -89.8233,17.27373 -138.75824,48.24382 -174.20958,93.62153 -19.75165,25.28211 -30.81189,37.5286 -33.18208,36.73857 -2.37023,-0.79008 7.10966,-16.59127 28.44149,-47.40387 56.05462,-80.96798 168.29819,-99.3797 171.83927,-99.54832 4.74036,-20.54173 14.4194,-31.60169 29.03564,-33.18208 16.38966,-1.77212 23.94123,9.47509 26.66532,25.47913 z m 62.80975,-16.00003 c 73.57858,32.70164 87.66831,75.51124 81.77216,246.50263 v 142.21159 h -17.7762 v -144.5819 c -1.58006,-25.28211 -14.81381,-39.10891 -39.70091,-41.47917 -24.88711,-2.37018 -38.91099,16.19553 -42.07123,55.69886 v 90.06923 h -11.85149 v -62.81184 c 1.58016,-48.98412 -1.18436,-82.75998 -8.29499,-101.32658 -7.11059,-18.56656 -0.59227,-42.66347 19.55442,-72.29096 20.14673,-29.62748 26.26892,-66.95802 18.36824,-111.99186 z m -89.20635,0.17635 c -7.38833,-0.21604 -12.81011,4.86201 -16.26666,15.23163 10.27086,4.7404 18.36745,3.95025 24.29293,-2.3703 7.88521,-7.48431 -0.34691,-12.48098 -8.02627,-12.86133 z m -323.20874,63.81959 c 10.27086,6.32056 20.93703,23.30804 31.99797,50.96038 v 33.18207 c -5.53047,31.60271 -16.39368,55.8966 -32.59002,72.883 -16.19637,16.98643 -28.63988,18.36977 -37.33063,4.14855 -9.48081,14.22122 -22.12134,12.83788 -37.922677,-4.14855 -15.801322,-16.9864 -26.863657,-41.28029 -33.184174,-72.883 v -33.18207 c 11.850986,-27.65234 35.553849,-39.50482 71.106851,-35.55448 11.85099,1e-5 24.49154,-5.13499 37.92268,-15.4059 z m -63.401814,33.18209 c -13.036108,0 -25.875759,3.95083 -38.516822,11.85149 v 2.3703 c 15.011259,-6.32055 27.651818,-9.87522 37.922678,-10.6653 10.270868,-0.79008 16.196048,3.9509 17.776178,14.2218 l -1.18409,35.55237 c -10.81315,2.16264 -29.26982,7.31409 -23.702982,16.59208 5.330484,7.87409 15.675222,5.76314 23.702982,4.87077 v 14.08952 c -8.69075,0 -20.147097,3.16064 -34.368278,9.4812 v 2.37029 c 31.260448,17.52037 56.692858,18.60024 87.696848,0 v -2.37029 c -12.64106,-7.11063 -24.0953,-10.27128 -34.36619,-9.4812 V 416.9297 c 13.43113,0.79007 21.3307,-0.7882 23.70088,-4.73851 5.69341,-9.48889 -13.27635,-14.48098 -24.88707,-16.59208 v -35.55237 c 1.58012,-10.2709 7.30829,-15.01188 17.18413,-14.2218 9.87582,0.79008 22.71547,4.34473 38.51683,10.6653 v -2.3703 c -12.64108,-7.90069 -25.48075,-11.85149 -38.51683,-11.85149 -13.03612,0 -19.94846,5.92727 -20.73852,17.77829 v 41.47706 c 10.27089,0.79009 17.18326,1.77933 20.73852,2.96446 3.5554,1.18507 4.54253,3.15945 2.96235,5.92469 -1.58011,2.76519 -5.72797,3.35842 -12.44355,1.77824 -6.71556,-1.58004 -11.06043,-1.18602 -13.03558,1.1841 -1.97512,2.3702 -4.14864,2.3702 -6.51884,0 -2.37019,-2.37018 -6.71505,-2.7642 -13.03559,-1.1841 -6.32059,1.58018 -10.271387,0.98701 -11.851496,-1.77824 -1.580173,-2.76524 -0.590884,-4.73962 2.964442,-5.92469 3.555304,-1.18513 10.467664,-2.17437 20.738534,-2.96446 v -41.47706 c -0.79007,-11.851 -7.70246,-17.77829 -20.738534,-17.77829 z m 132.138364,24.29504 c -0.79008,15.40627 -8.2956,27.45577 -22.51679,36.14652 l 1.1841,-52.14447 c 13.54367,-4.27693 22.19314,-0.78047 21.33269,15.99795 z M 38.80627,350.56554 37.620076,402.71001 C 28.929364,398.75969 23.201184,387.89652 20.435937,370.11997 17.969346,354.2633 22.330608,345.36268 38.80627,350.56554 Z m 24.887085,21.33058 h -5.926799 v 5.92681 h 5.926799 c 15.01126,7.90067 29.232132,9.08487 42.663265,3.55439 h 3.55441 l 2.37029,-3.55439 -8.29499,-8.2971 c -12.222289,-8.46158 -27.241553,-4.46617 -40.292975,2.37029 z m 80.585945,-2.37029 -9.48121,8.2971 3.55651,3.55439 h 3.5544 c 13.43113,5.53047 27.65201,4.34629 42.66327,-3.55439 h 5.92679 v -5.92681 h -5.92679 c -13.08219,-6.8526 -28.08629,-10.82105 -40.29297,-2.37029 z m -61.62566,0 c -3.160266,3.95036 -2.764149,7.50711 1.186195,10.66739 -4.740391,-1.58019 -9.877499,-3.55666 -15.407984,-5.9268 z m 11.85149,0 c 4.740391,2.37023 7.50492,4.74073 8.295,7.11089 -2.37021,1.58015 -5.53085,2.76643 -9.481195,3.5565 2.370227,-3.16028 2.766352,-6.71703 1.186195,-10.66739 z m 59.25536,0 c -1.58012,3.95036 -1.1861,7.50711 1.1841,10.66739 -3.95032,-0.79009 -7.50502,-1.97633 -10.66529,-3.5565 1.58011,-2.37017 4.74079,-4.74066 9.48119,-7.11089 z m 11.84939,0 13.03769,4.74059 c -4.7404,2.37016 -9.48138,4.34664 -14.22179,5.9268 3.95035,-3.16028 4.34439,-6.71702 1.1841,-10.66739 z m -35.55237,47.40387 v 13.03769 c -3.95033,-0.79003 -7.90112,-0.79003 -11.85149,0 v -11.8515 c 3.95035,0 7.90118,-0.3961 11.85149,-1.18619 z m 298.64498,18.96237 c 2.37024,22.1219 12.64239,41.4778 30.81389,58.06917 l -18.96239,103.10482 h -22.51678 c -6.32052,-70.31592 -2.76583,-124.04082 10.66528,-161.17399 z m -270.2014,5.9247 v 1.1862 c -27.11457,8.1345 -41.67565,8.11826 -68.736555,0 v -1.18409 c 17.588485,-4.79685 51.140025,-4.80111 68.736555,-0.002 z m 449.15158,52.14447 v 161.17399 c 1.57969,33.18277 1.18603,73.27997 -1.1841,120.28896 -2.37021,47.00898 -13.03638,106.45993 -31.99799,178.35602 l 18.9624,16.59209 H 203.53466 L 275.8256,939.56052 C 254.4938,835.2717 227.82941,758.83107 195.8317,710.24203 c -31.99768,-48.58909 -37.33183,-80.1915 -16.00003,-94.80774 21.3318,-14.61628 42.26804,-6.51758 62.80977,24.29505 L 431.07279,825.7904 h 35.55447 l 1.18411,-200.28285 c 3.16025,-53.72453 9.87561,-96.38717 20.14648,-127.98981 l 29.62767,-10.6653 v 130.36011 h 62.80976 V 495.14744 c 0,-26.91528 27.25739,-28.64747 27.25739,-1.1862 z m -471.66837,64.588 c 22.91193,-0.39504 45.82254,6.51945 68.73445,20.74064 -28.44239,0 -46.61409,8.29575 -54.51475,24.88708 -7.11059,-14.22112 -16.98663,-25.28357 -29.62768,-33.18419 -12.6411,-7.90049 -7.50398,-12.04563 15.40798,-12.44353 z"
     id="path5"
     sodipodi:nodetypes="cccsccsscccccccsscccscccscscccccccccsccsssscccscssscsscccccsccccsscscsscccscsccccsccsccsccccccccsccsccscccscsssssccssccsccscccccccccccccccccccccccccccccccccccccccccccccsccccscsccccssccccccccsscccscc" />
</svg>
