<?xml version="1.0" encoding="UTF-8" standalone="no"?>
<svg
   width="800"
   height="1000"
   version="1.1"
   id="svg1"
   sodipodi:docname="13875.svg"
   inkscape:version="1.4.3 (0d15f75, 2025-12-25)"
   xmlns:inkscape="http://www.inkscape.org/namespaces/inkscape"
   xmlns:sodipodi="http://sodipodi.sourceforge.net/DTD/sodipodi-0.dtd"
   xmlns="http://www.w3.org/2000/svg"
   xmlns:svg="http://www.w3.org/2000/svg">
  <defs
     id="defs1" />
  <sodipodi:namedview
     id="namedview1"
     pagecolor="#ffffff"
     bordercolor="#000000"
     borderopacity="0.25"
     inkscape:showpageshadow="2"
     inkscape:pageopacity="0.0"
     inkscape:pagecheckerboard="0"
     inkscape:deskcolor="#d1d1d1"
     inkscape:zoom="0.92387322"
     inkscape:cx="89.297967"
     inkscape:cy="349.07387"
     inkscape:window-width="1680"
     inkscape:window-height="998"
     inkscape:window-x="-8"
     inkscape:window-y="-8"
     inkscape:window-maximized="1"
     inkscape:current-layer="svg1" />
  <path
     style="fill:#000000;stroke:none;stroke-width:49.8104"
     d="m 436.36373,348.26925 c -11.6416,31.8612 -31.24848,66.47962 -58.82066,103.85527 l -30.32943,-36.76293 c 18.99417,-42.89008 43.80914,-87.31193 74.4449,-133.26556 22.67048,-14.09246 42.58375,-19.91326 59.73978,-17.46237 l -2.75723,-13.78613 c -11.02886,0 -18.99418,-0.15325 -23.89593,-0.45974 -4.90171,-0.30621 -7.50575,-3.52288 -7.81211,-9.65002 -0.30636,-6.12715 -1.83815,-9.80344 -4.59535,-11.02888 -2.75721,-1.22542 -3.21677,-2.91039 -1.37866,-5.0549 1.83814,-2.14451 2.52262,-1.6906 1.83819,-2.2977 -3.54746,-0.88685 -7.72266,-3.85827 -1.83816,-8.27162 -1.83813,-1.83817 -4.59535,-3.21678 -8.27164,-4.13587 -3.67628,-0.91906 -3.98264,-5.36124 -0.91911,-13.32652 6.73984,-13.47977 12.867,-23.89593 18.38144,-31.24851 7.96532,-34.92475 23.58957,-54.53164 46.87275,-58.82066 23.28317,-4.289 45.34091,-3.21675 66.17322,3.21676 20.83231,6.43352 31.55483,21.59822 32.16755,45.49412 1.22533,21.44503 -3.52321,38.60104 -14.24564,51.46807 -10.72251,12.86702 -21.59819,21.44504 -32.62704,25.73403 v 0.9191 c 1.22534,9.19072 3.06346,17.46236 5.51441,24.81495 2.45087,7.35257 21.44504,12.56065 56.98251,15.62423 23.89587,4.90171 39.21375,19.91323 45.95364,45.03458 14.70518,53.91893 23.2832,94.97084 25.73405,123.15573 5.51442,22.67048 5.51442,65.8669 0,129.58926 3.06366,26.34679 4.5955,47.1791 4.5955,62.49695 0,14.70521 -6.12715,30.63583 -18.38146,47.79185 -6.12715,0.6126 -10.10981,-0.6129 -11.94794,-3.67652 -1.83802,-3.06367 -1.22536,-6.43361 1.83798,-10.1098 4.90172,-9.80346 7.9653,-19.30055 9.19072,-28.49127 1.22533,-9.19071 -1.22551,-19.91323 -7.35255,-32.16756 -4.28901,6.12717 -5.97399,14.09248 -5.05492,23.89588 0.91922,9.80347 -1.99117,14.39884 -8.73121,13.78614 -6.73984,-24.50865 -5.05485,-43.80918 5.05498,-57.9016 10.10976,-14.09246 11.182,-37.52882 3.21674,-70.30909 -7.96532,-32.78013 -9.80348,-60.19907 -5.51446,-82.2568 -17.15602,-27.57217 -29.71669,-58.20794 -37.68197,-91.90729 v 0 c -23.28317,64.94784 -28.79762,112.58645 -16.54334,142.91584 12.25433,30.3294 13.17333,63.5692 2.75703,99.71939 l 22.05777,139.69904 c 12.86702,37.98836 16.39012,78.42757 10.5693,121.31765 -5.82079,42.89008 -5.05487,86.69918 2.29777,131.42732 7.35256,14.70521 -0.1532,21.75148 -22.51727,21.13878 -22.36413,-0.61277 -41.35833,-0.61277 -56.98259,0 -15.62423,0.6127 -29.25712,0.919 -40.8987,0.919 -11.02875,0.61275 -16.08362,-1.3785 -15.1646,-5.97386 0.91911,-4.59537 9.0376,-11.18206 24.35551,-19.76008 26.34674,-2.45081 43.9623,-7.65889 52.84664,-15.62423 8.88436,-7.96531 12.40747,-23.58952 10.56933,-46.87265 -2.45087,-27.57221 -11.02889,-89.76283 -25.73404,-186.57184 h -68.93045 c -15.31786,12.86705 -22.05772,29.71673 -20.21957,50.549 1.83813,20.8323 -7.81215,52.54032 -28.95083,95.12408 -21.13865,42.58368 -32.93343,78.88705 -35.38431,108.9101 0.61274,15.93063 -8.27162,21.90453 -26.65307,17.9219 -18.38147,-3.98264 -33.08664,-4.59532 -44.1155,-1.83803 -11.02889,2.75718 -28.49127,4.13571 -52.38716,4.13571 -18.38147,0.61275 -25.73405,-3.06346 -22.05779,-11.02876 3.67631,-7.96529 14.39883,-13.78611 32.16757,-17.46247 26.34674,-11.64155 45.18773,-19.30048 56.52298,-22.97676 11.33523,-3.67628 21.29187,-17.46239 29.8699,-41.35833 8.578,-24.50858 21.13865,-85.16739 37.68195,-181.97638 l 45.03459,-227.93003 c 0,-65.56056 -8.57802,-115.19051 -25.73406,-148.88983 z m 8.27164,356.60026 h 152.5661 L 576.06278,585.39006 c 15.31789,-36.15019 14.09246,-65.86688 -3.6763,-89.15006 l -90.06913,22.05772 z M 515.40401,158.0212 c 38.48912,-21.23545 49.27026,11.9338 29.41032,33.54618 -10.41619,11.33522 -13.17341,20.0664 -8.27168,26.19354 3.67627,5.51444 11.79476,1.37862 24.35545,-12.40747 12.56065,-13.78608 18.53462,-29.86987 17.92188,-48.25135 -1.22547,-18.99416 -11.79481,-30.63574 -31.70801,-34.92476 -19.91324,-4.289 -36.45655,-4.59535 -49.62995,-0.91905 -13.17335,3.67628 -21.90453,11.64158 -26.19352,23.89589 22.67046,1.83815 37.37564,6.12716 44.11551,12.86702 z m -54.2253,61.57788 -11.94796,2.7572 c -2.57319,0.88806 -1.25904,2.75744 1.83816,2.75744 3.94482,0 8.95156,-3.19811 10.10982,-5.51465 z m 0.91911,-0.91907 c 0.61272,-0.61273 -0.59856,-0.63354 -2.28908,-0.94302 -3.02321,-0.55344 -6.74092,-1.16197 -9.46756,-1.42134 -4.71339,-0.44836 -5.00791,2.36436 -2.9485,2.36436 z m 50.54897,-51.46809 c -12.25432,-7.9653 -27.57219,-11.94794 -45.95362,-11.94794 -1.83813,2.45084 -3.98263,5.82077 -6.43352,10.10978 7.35259,-3.06357 14.55199,-2.91038 21.5982,0.45955 7.04625,3.36994 12.71388,5.36125 17.0029,5.97395 l 0.91908,4.59537 c -7.35258,-0.6127 -14.55198,-2.45084 -21.5982,-5.51441 -7.04621,-3.06358 -13.93925,-3.06358 -20.67912,0 -6.1272,6.12714 -11.94801,17.15601 -17.46245,33.08661 6.73989,2.45087 10.10983,5.82081 10.10983,10.10982 6.73988,0 11.64161,1.07223 14.70517,3.21671 3.06358,2.14451 0.30636,5.97397 -8.27165,11.4884 -1.83814,11.64161 4.13584,15.62425 17.92192,11.94799 13.7861,-3.6763 21.90458,3.52309 24.35545,21.59818 2.45087,18.07511 -7.65894,27.11266 -30.32942,27.11266 -22.67047,0 -31.40166,4.44219 -26.19358,13.32657 5.20807,8.88439 12.71383,24.96815 22.51728,48.25131 9.80347,23.2832 16.23697,70.76863 19.30056,142.45628 l 85.47375,-19.30054 c -4.28901,-33.69932 1.37862,-72.91308 17.00288,-117.64126 15.62423,-44.72824 10.87567,-67.09236 -14.24567,-67.09236 -23.89589,0 -37.68197,-18.0751 -41.35822,-54.2253 -1.22554,-4.28901 -3.82964,-9.49708 -7.81228,-15.62421 -3.98264,-6.12716 -2.75721,-12.2543 3.67631,-18.38145 6.43351,-6.12717 11.48839,-13.63294 15.16467,-22.51729 7.69776,-18.60284 -9.86897,-24.15056 -21.59818,-10.56937 -5.82076,6.73988 -8.42481,6.43352 -7.81212,-0.91905 z"
     id="path5"
     sodipodi:nodetypes="cccccccsssccsccsscsccsccccscscscscsscsssccscsscscscccsscsscscscccsccccccccscscssccccssccssscsccsccscccscsssssccsscssssss" />
  <path
     style="fill:#000000;stroke:none;stroke-width:49.8104"
     d="m 446.47356,206.73204 c -0.8274,-1.65474 -0.0573,-7.05366 5.05473,-0.91904 3.48278,4.17924 6.01121,0.14863 5.51454,-1.83815 -0.53697,-2.14775 2.0631,-4.63413 2.75726,0.91904 0.60765,4.8609 -4.86199,7.73083 -8.73118,3.21675 -1.83818,-2.14451 -3.36997,-2.60404 -4.59535,-1.3786 z"
     id="path4"
     sodipodi:nodetypes="cssssc" />
  <path
     style="fill:#000000;stroke:none;stroke-width:49.8104"
     d="m 455.66426,184.67431 v -4.59537 l 5.51445,-6.4335 c 6.73985,-4.28902 15.62423,-2.45087 26.65312,5.51445 l 9.19072,0.91906 0.91908,4.59536 -11.02886,-1.83815 c -10.41615,4.90173 -19.91323,5.20811 -28.49125,0.9191 z m 5.51445,-4.59537 c 1.83814,0.61271 3.98264,1.53177 6.4335,2.75721 -1.83816,-2.45085 -2.14451,-4.9017 -0.91909,-7.35257 -3.06356,1.22544 -4.90169,2.75722 -5.51441,4.59536 z m 12.86698,2.75721 c 3.0636,0 6.12719,-0.61273 9.19078,-1.83816 l -8.27168,-4.59535 c 1.83814,2.45086 1.53178,4.59537 -0.91907,6.43351 z"
     id="path3" />
  <path
     style="fill:#000000;stroke:none;stroke-width:49.8104"
     d="m 515.40401,188.35061 c -2.43712,-6.09261 5.7569,-20.24058 14.70515,-23.4364 9.24857,-3.30301 11.56052,3.35362 8.73116,12.40752 -2.89102,9.25129 -18.45578,26.54243 -25.73406,23.89589 -7.30809,-2.65751 -3.42559,-10.5777 2.29775,-12.86701 z m 10.10979,-15.62423 c -2.45085,2.45085 -4.28901,5.36123 -5.51449,8.73116 -1.22546,3.36994 -0.61271,4.59539 1.8382,3.67631 2.45083,-0.91907 2.45083,0.30635 0,3.67626 -2.45087,3.36993 -2.45087,4.44219 0,3.21676 2.45083,-1.2254 5.05487,-3.67626 7.81207,-7.35256 2.75724,-3.67627 4.44221,-7.50576 5.0549,-11.48843 0.61275,-3.98264 -2.45083,-4.13582 -9.19071,-0.4595 z m -11.02888,20.21958 c -1.83813,1.83815 -2.29768,3.52312 -1.37866,5.05491 0.9191,1.53178 2.29772,1.53178 4.13585,0 1.83813,-1.53179 0.91907,-3.21676 -2.75719,-5.05491 z"
     id="path1"
     sodipodi:nodetypes="cssscssssssssscssc" />
  <path
     style="fill:#000000;stroke:#800080;stroke-width:8.01473;stroke-dasharray:none"
     d="M 600.07173,94.224417 V 16.550869 q -2.65035,-4.824349 -7.46923,-4.824349 -9.15579,0 -12.89034,14.955672 -3.73467,14.955797 -18.07074,29.187968 -14.33607,14.232148 -37.22556,14.232148 v 0 q -22.88947,0 -37.22555,-14.111586 -14.33606,-14.11147 -18.07073,-29.187843 -3.73456,-15.076359 -12.64937,-15.076359 -5.05986,0 -7.46924,4.824349 V 94.465681 Z M 524.41586,62.383161 q 26.26277,-1.205654 36.02093,-15.920699 9.75817,-14.714547 13.37218,-28.584877 3.61413,-13.8702194 18.79353,-13.8702194 9.63775,0 15.17942,7.7191544 v 90.21704 H 441.29078 V 11.72652 q 5.3007,-7.7191544 14.93844,-7.7191544 15.1793,0 18.79343,13.8702194 3.61424,13.87033 13.37229,28.584877 9.75829,14.714546 36.02092,15.920699 z"
     id="path1-7" />
  <path
     style="fill:#000000;stroke:#ff00ff;stroke-width:2.46924;stroke-dasharray:none"
     d="m 164.23481,183.33075 c 7.40525,5.00096 10.43467,12.40622 9.08826,22.21577 0.19234,2.59665 -0.24043,6.9244 -1.29832,12.98324 -0.67321,3.26986 -1.34641,6.53971 -2.01961,9.80956 -0.57703,3.26985 -1.63493,7.26099 -3.17369,11.97343 -1.53875,4.80861 -3.60645,10.72319 -6.20311,17.74376 -2.59664,7.11673 -6.20309,15.96456 -10.81936,26.54351 -6.44353,12.88706 -11.34831,26.15881 -14.71433,39.81526 -3.36603,13.65645 -5.81842,27.9861 -7.35717,42.98896 0,1.92344 -0.0481,3.89496 -0.14419,5.91457 -0.0961,1.92345 -0.14419,3.65455 -0.14419,5.1933 0,21.63873 5.8665,32.16958 17.5995,31.59254 14.04113,-0.67319 21.49448,-4.47199 22.36003,-11.39639 0.48086,-2.21195 0.72129,-4.71243 0.72129,-7.50143 0,-7.21291 -1.10598,-16.54161 -3.31795,-27.98609 -0.86555,-4.1354 -1.29832,-8.17463 -1.29832,-12.11768 0,-10.67511 3.60646,-19.04209 10.81938,-25.10094 6.05884,-5.00094 13.56026,-7.50141 22.50426,-7.50141 2.59665,0 5.33755,0.28852 8.22272,0.86555 2.98134,0.57702 5.8665,1.15405 8.65549,1.73108 12.79089,3.94307 19.18634,12.74282 19.18634,26.39925 0,2.40431 -0.19234,4.95288 -0.57702,7.6457 -0.48087,2.69281 -1.0579,5.48179 -1.73111,8.36696 -1.44257,5.86651 -2.59663,11.30023 -3.46219,16.30117 -0.86555,5.00097 -1.29832,9.13638 -1.29832,12.40623 0,4.71243 0.72129,8.2708 2.16387,10.67511 2.01961,2.59664 5.09712,4.71242 9.23253,6.34735 4.13539,1.63493 9.32869,2.69282 15.57988,3.17367 5.8665,0.57704 10.3385,2.50048 13.41601,5.77033 4.71245,5.00096 -0.0962,7.50144 -14.42581,7.50144 -18.46505,0 -30.91934,-4.32775 -37.36288,-12.98325 -3.07751,-4.61626 -4.61626,-10.81936 -4.61626,-18.60931 0,-7.98229 1.53875,-17.83993 4.61626,-29.57292 0.86555,-3.07751 1.44258,-5.8665 1.73109,-8.36699 0.28852,-2.50047 0.43278,-4.71243 0.43278,-6.63586 0,-11.0598 -5.72224,-16.39736 -17.16673,-16.01267 -12.88707,0.67321 -19.3306,6.53972 -19.3306,17.59951 0,1.34641 0.0962,2.83708 0.28852,4.472 0.0961,1.53875 0.33655,3.07751 0.7213,4.61627 0.86554,5.00095 1.63492,9.95381 2.30813,14.85859 0.67319,4.90477 1.00979,9.42486 1.00979,13.56027 0,3.46219 -0.19234,6.78013 -0.57703,9.95382 -0.28851,3.07751 -0.86554,5.81842 -1.73109,8.22271 -1.92345,6.34737 -6.01077,11.10789 -12.26195,14.28156 -6.15502,3.26985 -14.57008,4.80861 -25.24519,4.61627 -21.92725,0 -33.61216,-13.36793 -35.05474,-40.10379 v -5.48182 c 0,-16.5416 1.97153,-33.13129 5.91458,-49.76908 4.03923,-16.73395 9.6653,-32.50617 16.87821,-47.31668 3.17369,-7.40525 6.10694,-14.42582 8.79976,-21.06171 2.59665,-6.5397 4.95286,-12.7428 7.06865,-18.6093 2.21195,-5.86651 3.94306,-11.15597 5.19331,-15.8684 1.34641,-4.61627 2.35621,-8.55932 3.0294,-11.82917 0.86556,-7.88612 -0.76937,-12.88707 -4.90478,-15.00286 -25.67795,7.40526 -40.44037,5.09713 -44.28726,-6.92439 -1.15407,-6.05885 1.15407,-11.58874 6.9244,-16.58969 5.77033,-5.00095 13.31984,-7.64569 22.64853,-7.93421 9.3287,-0.28852 18.46506,4.42391 27.40907,14.1373 z m -21.16488,-0.28701 c -0.72846,-10.56293 -20.93948,-10.86119 -19.9913,2.88366 -4.80861,1.53876 -8.08397,3.60646 -11.93086,6.2031 6.62996,18.03338 38.6015,5.88974 40.39232,5.19331 7.40525,1.34641 10.53084,7.45334 9.37677,18.32079 l 6.49163,1.58683 c 4.58347,-18.78787 -3.67789,-37.63586 -24.33856,-34.18769 z"
     id="path1-5"
     sodipodi:nodetypes="cccccccsccsccscscsccsccsscsccscscsscsccsscccccsccccccccssccccccccc" />
  <circle
     style="fill:#1a5fb4;fill-rule:evenodd;stroke-width:50;stroke-linejoin:round;stroke-miterlimit:2.3"
     id="path2"
     cx="132.79686"
     cy="185.42859"
     r="5.2766981" />
  <path
     d="m 377.54307,452.12452 c -22.67048,5.51442 -69.1141,5.51442 -132.83646,0 -26.34679,3.06366 -47.1791,4.5955 -62.49695,4.5955 -14.70521,0 -30.63583,-6.12715 -47.79185,-18.38146 -0.6126,-6.12715 0.6129,-10.10981 3.67652,-11.94794 3.06367,-1.83802 6.43361,-1.22536 10.1098,1.83798 9.80346,4.90172 19.30055,7.9653 28.49127,9.19072 9.19071,1.22533 19.91323,-1.22551 32.16756,-7.35255 -6.12717,-4.28901 -14.09248,-5.97399 -23.89588,-5.05492 -9.80347,0.91922 -14.39884,-1.99117 -13.78614,-8.73121 24.50865,-6.73984 43.80913,-5.05479 57.9016,5.05498 28.30698,20.30708 60.63657,-4.25497 118.1311,-5.97403"
     style="fill:#000000;stroke:none;stroke-width:49.8104"
     id="path1-9"
     sodipodi:nodetypes="ccscccscccsc" />
</svg>
