<?xml version="1.0" encoding="UTF-8" standalone="no"?>
<svg
   width="800"
   height="1000"
   version="1.1"
   id="svg1"
   sodipodi:docname="13888.svg"
   inkscape:version="1.4.3 (0d15f75, 2025-12-25)"
   xmlns:inkscape="http://www.inkscape.org/namespaces/inkscape"
   xmlns:sodipodi="http://sodipodi.sourceforge.net/DTD/sodipodi-0.dtd"
   xmlns="http://www.w3.org/2000/svg"
   xmlns:svg="http://www.w3.org/2000/svg">
  <defs
     id="defs1" />
  <sodipodi:namedview
     id="namedview1"
     pagecolor="#ffffff"
     bordercolor="#000000"
     borderopacity="0.25"
     inkscape:showpageshadow="2"
     inkscape:pageopacity="0.0"
     inkscape:pagecheckerboard="0"
     inkscape:deskcolor="#d1d1d1"
     inkscape:zoom="2.5856345"
     inkscape:cx="158.37505"
     inkscape:cy="552.86237"
     inkscape:window-width="1680"
     inkscape:window-height="998"
     inkscape:window-x="-8"
     inkscape:window-y="-8"
     inkscape:window-maximized="1"
     inkscape:current-layer="svg1"
     showgrid="false" />
  <path
     style="fill:#000000;stroke:none;stroke-width:54.9018"
     d="m 486.80052,161.77159 c 17.55662,0 32.29164,-5.6432 44.20506,-16.92959 11.91337,-11.2864 17.87007,-26.0214 17.87007,-44.20499 0,-15.675573 -5.48643,-29.470054 -16.45927,-41.383443 -10.97288,-11.913423 -26.17817,-17.870133 -45.61586,-17.870133 -18.81065,0 -33.7024,5.95671 -44.67529,17.870133 -10.97287,11.913389 -16.45929,25.70787 -16.45929,41.383443 0,18.18359 5.9567,32.91859 17.87007,44.20499 11.91344,11.28639 26.33494,16.92959 43.26451,16.92959 z m 44.20506,44.20504 4.70269,-19.7512 h -96.87486 l 3.76208,19.7512 z m 19.75121,-30.09705 c 3.76212,3.76214 3.76212,7.21077 0,10.34585 h -5.64329 l -3.76209,19.7512 h -10.34583 10.34583 -109.10179 10.34587 -10.34587 l -3.76211,-19.7512 h -5.64317 c -5.01619,-3.13508 -5.01619,-6.58371 0,-10.34585 h 11.28638 c -8.15129,-3.13512 -17.08634,-9.40534 -26.80516,-18.81068 -9.71884,-9.40531 -17.71338,-28.05919 -23.98359,-55.96162 C 377.07175,73.204804 368.45021,51.259027 357.47733,35.269947 346.50445,19.280903 339.13695,7.5242545 335.37484,3.523601e-8 344.15311,2.5080969 356.0665,12.226936 371.11504,29.156517 c 15.04854,16.92958 29.15652,50.47523 42.32398,100.636953 -3.76214,-8.15129 -5.64321,-17.2431 -5.64321,-27.27545 0,-21.318713 6.89724,-39.659097 20.6917,-55.021153 13.79449,-15.362022 33.23216,-23.043033 58.31301,-23.043033 25.70788,0 45.30231,7.681011 58.78327,23.043033 13.48101,15.362056 20.22151,33.70244 20.22151,55.021153 0,10.03235 -1.56756,19.12416 -4.7027,27.27545 C 573.64303,79.631747 587.43749,46.086097 602.486,29.156517 617.53452,12.226936 629.44795,2.5080969 638.2263,3.5236005e-8 635.09116,7.5242545 628.03715,19.280903 617.0643,35.269947 c -10.97287,15.98908 -19.59442,37.934857 -25.86466,65.837333 -6.27021,27.90243 -14.42149,46.55631 -24.45386,55.96162 -10.03235,9.40534 -18.81065,15.67556 -26.33489,18.81068 z M 444.47656,289.68403 v 4.70264 c -7.52426,-0.627 -15.67554,-2.3513 -24.45385,-5.17289 -8.77829,-2.82161 -16.92957,-2.82161 -24.45382,0 -7.52425,2.82157 -11.5999,6.27018 -12.22692,10.34584 -0.62702,4.07562 -2.82159,8.93504 -6.58374,14.57825 -11.91339,15.04852 -17.55659,23.82681 -16.92962,26.33491 0.62702,2.50806 2.66484,4.70263 6.11349,6.58371 3.44864,1.88106 4.85945,3.1351 4.23244,3.76214 l -4.70269,6.58372 8.46479,-1.88105 c 15.04853,5.6432 22.57279,9.40533 22.57279,11.28639 l -18.81069,10.34584 c -1.25401,13.16748 4.3892,18.49717 16.92961,15.98907 h 37.62127 c 3.13513,15.67552 8.77833,28.21596 16.92962,37.62127 17.55659,4.38919 32.6051,-2.82155 45.14552,-21.63222 v -63.01571 c 0.62712,-12.54041 -3.13502,-15.98903 -11.28638,-10.34584 -8.15126,14.42149 -14.73499,21.63225 -19.75116,21.63225 -7.52424,0 -11.28635,-4.38917 -11.28635,-13.16747 v -10.34584 h 6.58369 v 9.40535 c 0,5.01616 1.56756,7.52424 4.70266,7.52424 5.01617,0 10.97287,-9.40532 17.8701,-28.21597 6.89726,-18.81065 5.0162,-28.21599 -5.64318,-28.21599 -7.52426,0 -13.16744,6.58373 -16.92958,19.7512 h -6.58369 c -1.8811,-31.97812 -21.31877,-46.08612 -58.31303,-42.32399 -3.76216,3.76213 -6.58376,7.83777 -8.46481,12.22693 10.03233,-6.27019 19.90794,-7.52425 29.62682,-3.76214 9.71881,3.76214 19.59439,6.89727 29.62671,9.40536 z m -77.12366,50.78875 c 13.16745,0 17.24308,2.82159 12.22693,8.46476 -8.15129,0 -12.22693,-2.82158 -12.22693,-8.46476 z m 17.87013,-31.03759 v -2.82161 c 3.13509,-1.25401 5.79993,-3.60533 7.99452,-7.05396 2.19458,-3.44863 6.27024,-5.64322 12.22691,-6.58378 5.95673,-0.94056 13.32425,1.09727 22.10254,6.11352 h 16.92956 v 5.6432 H 427.547 c -6.89726,4.38914 -13.32424,7.05398 -19.28094,7.99453 -5.95667,0.94055 -10.34583,0.94055 -13.16742,0 -2.82162,-0.94057 -6.1135,-2.03787 -9.87561,-3.2919 z M 591.19964,572.7843 V 385.61836 C 580.54027,280.90572 560.78909,228.54939 531.94612,228.54939 H 429.42808 c -11.28639,3.13509 -19.43768,11.28637 -24.45387,24.45385 37.62129,1.25405 58.31302,5.17293 62.07516,11.75664 3.76211,6.58376 13.32417,10.6594 28.68619,12.22693 15.36206,1.56757 23.04309,16.45933 23.04309,44.67532 V 572.7843 Z M 348.54223,806.97688 312.80201,761.83129 216.8677,617.92986 c -26.33491,-5.01615 -40.75641,1.88108 -43.26451,20.69166 l 70.53995,212.56042 c 16.30256,39.50232 23.35657,67.24803 21.16202,83.23714 -2.19459,15.98904 -6.42698,27.43217 -12.69719,34.3294 h 278.39761 c -23.82682,-23.82684 -30.72405,-54.5509 -20.6917,-92.17218 10.03231,-37.62129 18.34034,-83.86415 24.9241,-138.72857 6.58369,-54.86436 10.18904,-101.42071 10.8161,-139.66902 h -51.72932 v -161.7716 c -3.13507,10.65936 -14.73496,16.61606 -34.79968,17.87007 -58.31299,73.98856 -73.98851,118.50709 -47.02658,133.5556 5.01614,80.88586 -3.76216,147.35017 -26.3349,199.39292 -5.64323,25.70792 -18.18369,32.29165 -37.62137,19.75118 z M 155.73312,618.87036 c 6.27019,-13.16742 20.69168,-19.75112 43.26445,-19.75112 -18.18359,-10.65938 -34.79967,-13.63773 -49.84822,-8.93504 -15.04851,4.7026 -19.12414,7.99443 -12.22692,9.87551 6.89724,1.88108 13.16746,8.1513 18.81069,18.81065 z m 79.00471,-21.63226 124.15032,180.58225 c 23.8268,-53.29679 33.54562,-113.17735 29.15646,-179.64164 -16.92959,-24.45387 -15.83229,-53.14012 3.29188,-86.05875 19.12415,-32.91867 33.7024,-56.27523 43.73477,-70.06969 -6.27021,-5.64319 -12.22693,-16.61607 -17.87016,-32.91862 h -30.09704 c -15.67554,0 -23.51331,-9.71883 -23.51331,-29.15652 -7.52425,-0.62701 -9.71881,-5.01615 -6.58369,-13.16744 -5.64321,-4.38912 -5.64321,-7.83775 0,-10.34586 l 1.88109,-4.70266 c -3.76214,-0.62701 -7.52428,-3.13511 -11.2864,-7.52429 -2.50808,-3.13509 5.01619,-15.36201 22.57279,-36.68076 0,-14.42149 3.4486,-27.58893 10.34583,-39.50235 -1.88109,-5.01616 0.31348,-14.42151 6.58369,-28.21599 6.27026,-13.79446 19.43773,-25.08083 39.50242,-33.85915 h 121.32867 c 45.7726,16.92959 68.6589,100.95048 68.6589,252.06269 V 598.17871 H 569.5674 v 16.92954 c -8.7783,127.91243 -18.9674,210.20903 -30.56731,246.88981 -11.59992,36.68069 -1.09732,74.77224 31.50782,114.27463 12.54045,11.28641 12.54045,20.06472 0,26.33491 h -374.3319 c -7.52429,-9.40529 -2.97838,-18.96736 13.63772,-28.68617 16.61607,-9.71886 25.55113,-21.78903 26.80518,-36.21055 1.88103,-12.5404 -27.90252,-110.35576 -89.35063,-293.44608 -9.40532,-20.06469 -20.06468,-31.50784 -31.97806,-34.32945 -11.91343,-2.82146 -15.04855,-8.93491 -9.40537,-18.34037 0,-12.54045 18.49714,-18.81068 55.49143,-18.81068 25.97163,0.13592 60.92313,-3.86226 73.36155,24.4538 z"
     id="path1"
     sodipodi:nodetypes="sssssssssccccccccccccccccccssscscssssscscsssccccssscsscccccccccccssccssssccccsccccccssccccsscccsccssscccccccsccsscccccccccssccccsccscccccccsccscccscccsccccsc" />
  <path
     style="fill:#000000;stroke:none;stroke-width:17.6354"
     d="m 205.42958,199.54343 v 3.47205 h -74.75144 v -3.47205 z m -7.76108,11.0289 c -2.24664,2.6551 -4.08478,5.51444 -5.31021,7.96532 -0.61272,1.22542 -1.22544,2.45086 -1.63392,3.67629 h -44.31985 c -0.61271,-1.63391 -1.42966,-3.26782 -2.24662,-4.90172 l -0.40849,-0.20425 -0.20422,-0.40848 c -0.81696,-1.0212 -1.42969,-1.83816 -2.24664,-2.6551 -0.81696,-1.22544 -1.83815,-2.24663 -2.85935,-3.47206 z m -8.57804,19.4027 c -0.20425,1.22543 -0.20425,2.45086 0,3.67628 0,0.40848 0.20423,0.81696 0.20423,1.22545 h -41.4605 v -1.22545 c 0.20424,-1.22542 0.20424,-2.45085 0.20424,-3.67628 z m -68.82852,-13.68402 c 4.49326,0 9.19076,2.04239 13.684,7.55684 1.63392,3.06358 2.45088,5.92294 2.0424,8.37379 -0.20425,2.65512 -1.42967,5.31022 -5.10597,8.57805 -2.24664,1.83814 -4.90173,2.85935 -7.35261,2.85935 -0.81695,0 -1.63391,-0.20425 -2.45087,-0.40848 -3.06358,-0.81697 -5.92291,-3.0636 -7.55683,-9.395 l -11.64163,2.85935 c 2.45088,9.59922 8.57805,15.93063 15.93064,18.17725 1.83816,0.40849 3.6763,0.61274 5.71869,0.61274 4.49326,0 8.98652,-1.42968 12.86706,-4.0848 v 0 l -5.92293,83.32949 c -15.93065,-32.06551 -29.81888,-65.5607 -30.635846,-96.40077 -0.204233,-8.37379 5.310206,-16.54336 12.458576,-20.01542 2.45088,-1.22543 5.31021,-2.04239 7.96532,-2.04239 z m 96.60502,0 v 0 c 2.65509,0 5.3102,0.81696 7.96531,2.04239 7.14836,3.47206 12.66283,11.64163 12.45858,20.01542 -1.0212,30.84007 -14.90945,64.33526 -30.63585,96.40077 h -0.20422 l -6.53566,-83.73797 v 0 c 4.08478,2.85936 8.78227,4.49328 13.68401,4.49328 1.83816,0 3.88054,-0.20425 5.71869,-0.61274 7.14836,-2.24662 13.47977,-8.57803 15.7264,-18.17725 l -11.64161,-2.85935 c -1.42967,6.3314 -4.49327,8.57803 -7.35261,9.395 -0.81695,0.20423 -1.63391,0.40848 -2.45087,0.40848 -2.45086,0 -5.10598,-1.02121 -7.3526,-2.85935 -3.67631,-3.26783 -4.90174,-5.92293 -5.31021,-8.57805 -0.20424,-2.45085 0.40847,-5.31021 2.24663,-8.37379 4.49325,-5.51445 8.98651,-7.55684 13.68401,-7.55684 z m -38.19269,40.4393 5.10597,78.42775 h -31.24855 l 5.10597,-78.42775 z m 12.86706,-14.09248 7.76108,92.52023 h -9.395 l -5.51445,-86.59729 h -32.67822 l -5.51445,86.59729 h -8.98652 l 7.35261,-92.11174 c 0,-0.20425 0.20423,-0.20425 0.20423,-0.40849 z m -64.74375,132.75532 c -2.6551,1.42966 -4.08477,3.88052 -4.08477,7.14835 0,1.0212 0,2.04238 0.20423,3.06358 0,1.42968 0.20424,2.65512 0.61272,3.88054 l 5.51445,-4.90174 v -0.61271 -0.40847 c 0,-1.22545 -0.20423,-2.65511 -0.40848,-4.28903 -0.40848,-1.63391 -1.02118,-2.85933 -1.83815,-3.88052 z m 82.10405,0 c -1.02118,1.02119 -1.63391,2.24661 -2.04239,3.88052 -0.20424,1.63392 -0.40846,2.85935 -0.40846,3.67632 v 1.63389 l 5.3102,4.90174 c 0.40848,-1.22542 0.81696,-2.45086 1.0212,-3.88054 0.20424,-1.0212 0.20424,-2.04238 0.20424,-3.06358 0,-3.26783 -1.42969,-5.71869 -4.08479,-7.14835 z m -5.10596,-16.7476 c 3.06357,1.42966 5.71869,2.85934 8.16954,4.6975 v 0 l 0.20425,0.20423 c -0.20425,0 -0.20425,-0.20423 -0.20425,-0.20423 -3.47206,1.22542 -6.12716,3.47205 -7.96531,6.33141 -1.83816,2.65509 -2.65511,4.49325 -2.85935,5.10596 -10.0077,-6.94412 -21.03659,-10.41618 -33.49517,-10.41618 v 0 c -12.25434,0 -23.28324,3.47206 -33.29095,10.41618 -0.40849,-1.42968 -2.04239,-3.67629 -4.69751,-6.3314 -2.45085,-2.85934 -4.49324,-4.49326 -6.3314,-5.10597 -5.31021,8.9865 -8.16954,16.74758 -8.16954,23.69171 0,1.42967 0.20423,2.85933 0.40846,4.08477 v 0 l -1.0212,-5.10597 c 0,-6.73989 -0.81694,-3.26782 1.63392,-14.09249 1.42967,-6.12716 6.12718,-10.41618 12.25434,-13.27552 z m -49.01734,25.52986 c -2.45087,0 -4.49326,0.81695 -6.53566,2.24664 -2.24663,1.22543 -6.12717,2.04238 -12.0501,2.45085 v 2.85934 c 1.22545,-0.20423 2.65511,-0.40846 4.28902,-0.61271 1.63391,-0.20423 3.26782,-0.20423 4.90174,-0.20423 v 0 c 2.24663,1.22542 5.10598,2.04239 8.57803,2.04239 v 0 h 0.61272 1.63391 0.40849 v 0 c 1.83814,0 3.26781,0 4.28902,0.40848 l 0.20422,-1.63393 c -0.61271,-5.10595 -2.6551,-7.55683 -6.33139,-7.55683 z m 26.14257,0 c -3.6763,0 -5.71869,2.45088 -6.53564,7.55683 l 0.61272,1.63393 c 1.02119,-0.40848 2.24662,-0.40848 3.88054,-0.40848 h 0.81696 1.83815 0.6127 c 3.26784,0 5.92294,-0.81697 8.16956,-2.04239 3.47207,0 6.53564,0.40848 9.19075,0.81694 v -2.85934 c -5.92292,-0.40847 -9.80347,-1.22542 -11.84585,-2.45085 -2.24662,-1.42969 -4.49326,-2.24664 -6.73989,-2.24664 z m -1.02119,-8.78226 c -1.83816,0 -3.06359,0.20423 -4.08479,0.61271 -3.06357,1.02118 -5.10596,2.85934 -5.71869,5.10598 -1.02118,1.83815 -1.42966,5.31021 -1.42966,10.21194 0,5.10596 1.02118,8.78227 2.85933,10.82466 1.83816,1.83814 2.85936,3.26782 2.85936,4.28902 -0.61272,0 -1.22543,-0.20424 -1.63391,-0.20424 -0.40849,0 -1.0212,0.20424 -1.63391,0.61271 -0.81696,0.40848 -1.02121,0.81696 -1.02121,1.63391 0,0.61271 0,1.02119 0.20425,1.42967 -0.40848,0.20424 -0.81695,0.40848 -1.22543,0.40848 h -2.45088 c -0.40848,0 -0.61271,-0.20424 -1.02119,-0.40848 v -1.02119 c 0,-1.02118 -0.40848,-1.63391 -1.22543,-2.04239 -0.40848,-0.40847 -1.0212,-0.61271 -1.42968,-0.61271 -0.6127,0 -1.22542,0.20424 -1.83815,0.20424 0.20425,-1.0212 1.22545,-2.45088 3.26783,-4.28902 1.83814,-2.04239 2.85935,-5.7187 2.85935,-10.82466 0,-4.90173 -0.61273,-8.37379 -1.42968,-10.21194 -0.81696,-2.24664 -2.85935,-3.88055 -6.33141,-5.10598 -0.81695,-0.20423 -1.63391,-0.20423 -2.85933,-0.20423 -1.22544,0 -2.65512,0.20423 -4.08479,0.40847 -1.42967,0.40847 -3.06358,1.22542 -4.6975,2.24662 -4.08478,2.85935 -8.16954,4.08478 -11.64162,4.08478 v 0 4.49326 c 2.45087,0 6.12718,-1.42968 10.62044,-4.08477 3.6763,-1.83815 6.33139,-2.65511 7.96532,-2.65511 1.83815,0 3.47205,0.20424 4.49324,0.40848 3.26783,1.02119 5.10598,4.08477 5.10598,9.19073 0,5.51447 -1.22543,9.19077 -3.26783,11.02892 -2.45086,2.04238 -3.47206,4.28902 -3.47206,6.94413 0,1.83815 1.22544,3.06358 3.88055,3.6763 2.65511,0.61271 4.69748,0.81695 6.12717,0.81695 1.42967,0 3.47206,-0.20424 6.12716,-0.81695 2.85934,-0.61272 4.28901,-1.83815 4.28901,-3.6763 0,-2.65511 -1.22543,-4.90175 -3.47205,-6.94413 -2.04239,-1.83815 -3.0636,-5.51445 -3.0636,-11.02892 0,-5.10596 1.63393,-8.16954 4.90175,-9.19073 1.02119,-0.20424 2.45087,-0.40848 4.28901,-0.40848 1.83815,0 4.28903,0.81696 7.76108,2.65511 4.90174,2.65509 8.57804,4.08477 11.0289,4.08477 v -4.49326 c -3.47207,0 -7.55683,-1.22543 -11.84585,-4.08478 -3.06359,-2.04238 -5.51446,-3.06357 -7.76108,-3.06357 z m -8.78227,43.09441 c 0.61271,0.40846 1.83815,0.61271 3.26782,0.61271 -1.22543,0.40847 -2.45088,0.61272 -3.47207,0.81696 -1.02119,0 -2.24662,0.20424 -3.26781,0.20424 -0.61272,0 -1.42969,-0.20424 -2.65512,-0.20424 -1.02119,-0.20424 -2.45086,-0.40849 -3.88054,-0.81696 1.63393,0 3.0636,-0.20425 3.6763,-0.61271 1.0212,0.61271 1.83815,1.02118 2.85936,1.02118 1.02119,0 1.63391,-0.20424 2.04237,-0.40847 0.20425,-0.20425 0.81696,-0.40848 1.42969,-0.61271 z m -13.47978,1.63391 0.81696,0.20423 h -0.81696 z m 20.42389,0 v 0 l -0.20423,0.20423 v 0 h -0.40848 c 0.20423,-0.20423 0.40848,-0.20423 0.61271,-0.20423 z m -2.45086,0.81694 v 0 c -3.06358,1.63392 -5.71869,2.45089 -7.96531,2.45089 v 0 c -2.0424,0 -4.49326,-0.81697 -7.35262,-2.45089 v 0 c 1.63393,0.40848 3.06359,0.81696 4.28903,1.02121 1.42967,0.20423 2.45087,0.40847 3.06359,0.40847 v 0 0 c 1.02119,0 2.24662,-0.20424 3.6763,-0.40847 1.42967,-0.20425 2.85934,-0.61273 4.28901,-1.02121 z m -11.0289,-5.51444 h -0.20424 c -0.20423,0 -0.61271,0.20423 -0.81696,0.40848 -1.22542,0.81695 -3.26783,1.22543 -6.12717,1.22543 v 0 c -1.22543,0 -1.83813,0.81696 -1.83813,2.45086 0,2.24663 1.02119,3.47208 2.85933,3.47208 v 0 c 3.26783,3.06357 6.3314,4.69748 9.19076,4.69748 v 0 c 3.26781,0 6.53564,-1.63391 10.21194,-4.69748 1.63391,-0.40849 2.45086,-1.42969 2.45086,-3.47208 0,-1.6339 -0.6127,-2.45086 -1.83815,-2.45086 v 0 c -3.26782,0 -5.51444,-0.40848 -6.73988,-1.22543 -0.40847,-0.20425 -0.61271,-0.40848 -1.02119,-0.40848 -0.81696,0 -1.83815,0.61271 -3.06358,1.83816 -1.02121,-1.22545 -2.0424,-1.83816 -3.06359,-1.83816 z m 3.06359,-45.95376 c 14.29673,0 26.75529,4.90173 37.57995,14.7052 0,-7.3526 1.83815,-12.25434 5.92294,-14.50095 2.65509,5.71869 4.08478,11.23313 4.08478,15.93062 0,4.6975 -1.02121,7.14838 -3.47207,7.14838 v 0 c -2.04238,0 -3.88053,-1.42968 -5.3102,-4.28903 l -4.28904,1.63392 0.81697,6.73987 c 0,9.395 -8.57804,20.83239 -25.73411,34.51638 -1.42968,2.45087 -4.69749,3.47207 -9.59922,3.47207 v 0 0 c -4.49326,0 -7.55685,-1.0212 -9.19076,-3.47207 -17.36031,-13.68399 -26.14258,-25.12138 -26.14258,-34.51638 l 1.02119,-6.73987 -4.28902,-1.63392 c -1.42966,2.85935 -3.06357,4.28903 -5.10597,4.28903 v 0 c -2.45087,0 -3.6763,-2.45088 -3.6763,-7.35262 0,-4.69748 1.42966,-10.00769 4.28904,-15.72638 3.88052,2.45085 5.71867,7.35258 5.71867,14.50095 10.62042,-9.80347 23.079,-14.7052 37.37573,-14.7052 z m -52.08094,22.26203 c 1.0212,3.67632 3.0636,5.51446 6.53565,5.51446 v 0 c 2.24663,0 4.08478,-0.20424 5.71868,-0.40848 0,4.90174 1.42967,10.00771 4.49327,14.70522 1.6339,2.45085 4.08478,5.51444 7.55684,8.9865 3.47206,3.47206 8.78228,8.57804 15.72641,15.11369 l 2.85933,12.05009 h -31.04431 z m 96.60502,-28.18496 c 3.06359,2.45088 5.51446,5.10598 7.55684,8.37379 1.02119,2.45087 3.06359,7.14836 2.6551,12.45858 l -14.90944,63.31407 h -30.63584 l 3.06359,-11.64161 c 6.94413,-6.94413 12.25434,-12.05011 15.72641,-15.52217 3.47205,-3.47206 5.92291,-6.53565 7.35259,-8.9865 1.63392,-2.45089 2.85934,-4.90175 3.67629,-7.55686 0.61272,-2.45087 1.0212,-4.90172 1.0212,-7.14836 1.42968,0.20424 3.47207,0.40848 5.71868,0.40848 v 0 c 4.49328,0 6.73991,-3.47205 6.73991,-10.21194 0,-6.94413 -2.65512,-14.70521 -7.96533,-23.48748 z M 122.91704,191.16962 v 13.68402 c -0.6127,-0.20424 -1.42967,-0.20424 -2.24662,-0.20424 h -1.02119 c -4.49325,0 -8.78229,1.0212 -12.66283,2.85934 -11.233131,5.71869 -19.60693,17.56454 -19.198451,31.24855 v 0 c 1.021191,31.24857 14.500961,65.15222 29.410411,95.9923 h -9.19075 v 0 c -4.28903,0 -6.3314,13.88826 -0.20424,14.50096 h 9.59922 c 0,1.42967 0,3.0636 0.40848,4.49327 -8.3738,7.76107 -13.68401,18.99421 -13.68401,30.43159 l 14.50098,72.70907 h 40.23506 l -5.31022,117.74812 c 6.94413,4.08479 14.0925,6.33141 14.0925,6.33141 v 0 c 0,0 6.53564,-2.0424 13.27552,-6.33141 l -4.49325,-117.74812 h 39.21387 l 16.7476,-72.70907 c 0,-11.0289 -4.90174,-21.85356 -13.88825,-29.81888 0.40847,-1.42968 0.61271,-2.85934 0.40847,-4.49326 v 0 h 7.96532 0.40847 c 6.7399,0 4.49326,-15.11368 0,-15.11368 h -7.14834 c 14.7052,-30.84008 28.18497,-65.15222 29.20615,-95.9923 v 0 c 0.20425,-13.68401 -7.96531,-25.52986 -19.19845,-31.24855 -3.88055,-1.83814 -8.16955,-2.85934 -12.66282,-2.85934 h -1.22543 c -1.02119,0 -2.0424,0.20424 -3.06358,0.20424 v -13.68402 z"
     id="path1-4"
     sodipodi:nodetypes="ccccccscccccccccccccccscccsccccssccccssscccccssccccscccsccccccccccccccccsccccsccccscccsccscccccsscccsscccccscccssssccccsccssccsccsccccssccsccscscsscscsccsccsccscccscscssscscscscccsscccscccsccccccsccccssssssscscssssscssssssscssscscssccsssccccscsccccsssccscssccsccccccccccscccssscccsscssccscccccccsscccccsccsscsscssccc" />
</svg>
