<?xml version="1.0" encoding="UTF-8" standalone="no"?>
<svg
   width="800"
   height="1000"
   version="1.1"
   id="svg1"
   sodipodi:docname="1388B.svg"
   inkscape:version="1.4.3 (0d15f75, 2025-12-25)"
   xmlns:inkscape="http://www.inkscape.org/namespaces/inkscape"
   xmlns:sodipodi="http://sodipodi.sourceforge.net/DTD/sodipodi-0.dtd"
   xmlns="http://www.w3.org/2000/svg"
   xmlns:svg="http://www.w3.org/2000/svg">
  <defs
     id="defs1" />
  <sodipodi:namedview
     id="namedview1"
     pagecolor="#ffffff"
     bordercolor="#000000"
     borderopacity="0.25"
     inkscape:showpageshadow="2"
     inkscape:pageopacity="0.0"
     inkscape:pagecheckerboard="0"
     inkscape:deskcolor="#d1d1d1"
     inkscape:zoom="0.45707992"
     inkscape:cx="-252.69104"
     inkscape:cy="948.41182"
     inkscape:window-width="1680"
     inkscape:window-height="998"
     inkscape:window-x="-8"
     inkscape:window-y="-8"
     inkscape:window-maximized="1"
     inkscape:current-layer="svg1"
     showgrid="false" />
  <path
     d="m 458.55511,505.39386 -61.365,46.99182 c -26.76109,-6.10722 -83.1841,-20.56202 -137.69117,-30.4177 -8.49925,-9.33614 -21.47361,-16.32367 -38.63684,-21.87783 l -37.45109,-12.11927 c -5.9548,12.10473 -3.14909,20.12122 8.41572,24.04973 -2.19743,5.54302 -13.30887,40.69713 11.38641,50.39052 13.6524,5.35885 29.21938,-2.03191 52.13313,-10.32546 54.09741,20.50148 116.85622,40.18799 148.19648,48.8782 48.61125,-26.63855 74.74669,-48.03259 111.64912,-91.70112"
     style="fill:#000000;stroke:none;stroke-width:1"
     id="path1-9"
     sodipodi:nodetypes="ccccccsccc" />
  <path
     style="fill:#f9f06b;stroke:none;stroke-width:1px;stroke-linecap:butt;stroke-linejoin:miter;stroke-opacity:1"
     d="m 449.0462,580.31427 2.1878,-47.03773 38.28652,-67.27488 c 0,0 51.41333,4.3756 51.41333,7.11035 0,2.73475 -18.04936,103.92056 -18.04936,103.92056 z"
     id="path3" />
  <path
     style="fill:#000000;stroke:none;stroke-width:54.9018"
     d="m 546.21186,163.47598 c 17.47535,0 32.14216,-5.61708 44.00043,-16.85123 11.85823,-11.23415 17.78735,-25.90094 17.78735,-44.00036 0,-15.603012 -5.46103,-29.333639 -16.38308,-41.191881 -10.92209,-11.858275 -26.05699,-17.787412 -45.4047,-17.787412 -18.72357,0 -33.5464,5.929137 -44.46849,17.787412 -10.92207,11.858242 -16.3831,25.588869 -16.3831,41.191881 0,18.09942 5.92912,32.76621 17.78735,44.00036 11.85829,11.23415 26.21303,16.85123 43.06424,16.85123 z m 44.00043,44.00041 4.68092,-19.65977 h -96.42643 l 3.74468,19.65977 z m 19.65978,-29.95773 c 3.7447,3.74473 3.7447,7.17739 0,10.29796 h -5.61716 l -3.74468,19.65977 h -10.29794 10.29794 -108.59675 10.29798 -10.29798 l -3.7447,-19.65977 h -5.61705 c -4.99297,-3.12057 -4.99297,-6.55323 0,-10.29796 h 11.23413 c -8.11355,-3.1206 -17.00724,-9.3618 -26.68108,-18.7236 -9.67385,-9.36178 -17.63138,-27.92931 -23.87257,-55.70258 C 436.99102,75.319166 428.40939,53.474976 417.4873,37.559909 406.56521,21.644878 399.23182,9.9426508 395.48713,2.453226 c 8.73763,2.4964869 20.59588,12.170338 35.57476,29.021552 14.97887,16.851214 29.02155,50.241581 42.12805,100.171102 -3.74472,-8.11355 -5.61708,-17.16328 -5.61708,-27.14919 0,-21.220028 6.86531,-39.475514 20.59592,-54.766459 13.73063,-15.290911 33.07832,-22.936367 58.04308,-22.936367 25.58888,0 45.0926,7.645456 58.51116,22.936367 13.41861,15.290945 20.12791,33.546431 20.12791,54.766459 0,9.98591 -1.56031,19.03564 -4.68094,27.14919 12.48238,-49.929521 26.21299,-83.319888 41.19184,-100.171102 14.97886,-16.851214 26.83715,-26.5250651 35.57486,-29.021552 -3.12063,7.4894248 -10.14198,19.191652 -21.06405,35.106683 -10.92207,15.915067 -19.50371,37.759257 -25.74492,65.532571 -6.24119,27.77327 -14.35474,46.3408 -24.34067,55.70258 -9.98591,9.3618 -18.72357,15.603 -26.21298,18.7236 z M 504.08381,290.79632 v 4.68087 c -7.48943,-0.62411 -15.60298,-2.34042 -24.34065,-5.14895 -8.73766,-2.80855 -16.8512,-2.80855 -24.34062,0 -7.48943,2.80851 -11.5462,6.24116 -12.17033,10.29795 -0.62411,4.05676 -2.80853,8.89368 -6.55326,14.51076 -11.85824,14.97886 -17.47532,23.71653 -16.85125,26.21302 0.62411,2.49645 2.65251,4.68086 6.08519,6.55322 3.43267,1.87236 4.83695,3.1206 4.21284,3.74473 l -4.68092,6.55324 8.42562,-1.87233 c 14.97887,5.61707 22.4683,9.36178 22.4683,11.23414 l -18.72362,10.29795 c -1.2482,13.10652 4.36888,18.41154 16.85124,15.91505 h 37.44713 c 3.12061,15.60297 8.73769,28.08535 16.85124,37.44713 17.47533,4.36887 32.45418,-2.80849 44.93655,-21.53208 V 346.967 c 0.62421,-12.48236 -3.12051,-15.91501 -11.23414,-10.29795 -8.11353,14.35474 -14.66678,21.53211 -19.65973,21.53211 -7.48941,0 -11.23411,-4.36884 -11.23411,-13.10651 V 334.7967 h 6.55322 v 9.36181 c 0,4.99294 1.5603,7.48941 4.68089,7.48941 4.99295,0 10.92208,-9.36178 17.78738,-28.08535 6.86533,-18.72359 4.99298,-28.08538 -5.61706,-28.08538 -7.48942,0 -13.10649,6.55325 -16.85121,19.65976 h -6.55322 c -1.87238,-31.83009 -21.22008,-45.87278 -58.0431,-42.12806 -3.74474,3.74471 -6.55328,7.80148 -8.42562,12.17033 9.98589,-6.24117 19.81578,-7.48942 29.48967,-3.74473 9.67383,3.74473 19.50369,6.86534 29.48957,9.36183 z m -76.76665,50.55365 c 13.10649,0 17.16326,2.80852 12.17033,8.42557 -8.11355,0 -12.17033,-2.80852 -12.17033,-8.42557 z m 17.78741,-30.89392 v -2.80856 c 3.12057,-1.2482 5.77308,-3.58863 7.95751,-7.0213 2.18443,-3.43267 6.24121,-5.6171 12.17032,-6.5533 5.92915,-0.93621 13.26256,1.09219 22.00022,6.08522 h 16.85119 v 5.61708 h -16.85119 c -6.86533,4.36881 -13.26256,7.02132 -19.19168,7.95751 -5.92911,0.93621 -10.29794,0.93621 -13.10648,0 -2.80856,-0.93621 -6.08519,-2.02843 -9.82989,-3.27665 z M 650.12772,572.58612 V 386.28656 C 639.51769,282.05863 619.85794,229.94467 591.14848,229.94467 H 489.10499 c -11.23414,3.12057 -19.3477,11.23412 -24.34067,24.34064 37.44715,1.24825 58.04309,5.14899 61.78781,11.70223 3.7447,6.55328 13.2625,10.61006 28.55341,12.17033 15.29095,1.56031 22.93642,16.38314 22.93642,44.46851 V 572.58612 Z M 408.59357,805.69463 373.01879,760.75801 277.52855,617.52269 c -26.213,-4.99292 -40.56775,1.87238 -43.06424,20.59589 l 70.21343,211.57648 c 16.22709,39.31946 23.24844,66.93674 21.06406,82.85183 -2.18443,15.91503 -6.39723,27.30519 -12.63842,34.17049 h 277.10891 c -23.71652,-23.71654 -30.58183,-54.29838 -20.59592,-91.74551 9.98587,-37.44715 18.25545,-83.47595 24.80873,-138.0864 6.55321,-54.6104 10.14188,-100.95123 10.76603,-139.02249 H 553.70127 V 436.84021 c -3.12056,10.61003 -14.66676,16.53915 -34.6386,17.78735 -58.04306,73.64607 -73.64602,117.95853 -46.80889,132.93738 4.99292,80.51143 -3.74475,146.66808 -26.213,198.46993 -5.61711,25.58892 -18.09952,32.14217 -37.44721,19.65976 z M 291.83519,596.53997 c 3.22762,1.33014 9.41396,9.01684 9.41396,9.01684 l 117.64244,171.11625 c 23.71651,-53.05009 33.39034,-112.65345 29.02149,-178.81008 -16.85121,-24.34068 -15.75899,-52.89414 3.27665,-85.66039 19.03562,-32.76629 33.54639,-56.01473 43.53232,-69.74533 -6.24119,-5.61708 -12.17033,-16.53916 -17.78743,-32.76624 h -29.95773 c -15.60297,0 -23.40446,-9.67385 -23.40446,-29.02156 -7.48942,-0.62411 -9.67383,-4.99294 -6.55322,-13.10649 -5.61709,-4.36881 -5.61709,-7.80147 0,-10.29797 l 1.87238,-4.68089 c -3.74473,-0.62411 -7.48945,-3.1206 -11.23416,-7.48946 -2.49647,-3.12058 4.99297,-15.2909 22.4683,-36.51097 0,-14.35473 3.43265,-27.46122 10.29794,-39.31949 -1.87237,-4.99295 0.31203,-14.35475 6.55322,-28.08538 6.24123,-13.7306 19.34775,-24.96474 39.31956,-33.70242 H 607.0635 c 45.56072,16.85123 68.34108,100.48319 68.34108,250.8959 v 139.49069 h -46.80897 v 16.85117 c -8.73766,127.32032 -18.8796,209.23597 -30.42581,245.74696 -11.54623,36.5109 -1.09224,74.42612 31.36197,113.74565 12.4824,11.23417 12.4824,19.97185 0,26.21304 H 256.93264 c -7.48946,-9.36178 -2.96459,-18.87959 13.5746,-28.55342 16.53915,-9.67386 25.43285,-21.68817 26.6811,-36.04292 1.8461,-12.30755 -26.94925,-107.13473 -86.38605,-284.48153 -0.84415,-2.51875 -1.14034,-11.92711 -0.61722,-14.56773 8.17954,-41.28839 55.47711,-51.02044 81.65012,-40.23423 z"
     id="path1"
     sodipodi:nodetypes="sssssssssccccccccccccccccccssscscssssscscsssccccssscsscccccccccccssccssssccccsccccccssccccsscccsccssscccccccsccsscccccccscccsccscccccccsccscccscccscsss" />
  <path
     d="M 158.37331,298.76071 62.944458,519.8179 c -7.690942,12.96772 -13.211668,18.41655 -16.562282,16.34687 -9.105426,-5.5448 -11.564493,-15.32422 -7.377187,-29.33862 -2.73395,4.29694 -6.286747,7.94874 -10.657893,10.95498 -4.371161,3.00666 -8.232135,3.47515 -11.582791,1.40587 -4.373716,-2.22104 -6.177796,-5.89128 -5.412981,-11.00547 0.764879,-5.11459 2.22038,-9.60275 4.366505,-13.46448 -10.4535889,10.46283 -20.5269919,13.13905 -30.22041,8.02946 -3.862258,-2.14457 -1.730096,-9.40923 6.3956931,-21.78879 L 122.57079,309.91217 153.70225,269.86702 M 55.072267,499.03382 135.11758,320.4163 15.287949,476.61333 Z"
     style="fill:#000000;stroke:none;stroke-width:53.2498"
     id="path1-3"
     sodipodi:nodetypes="ccccccsccccccccc" />
  <path
     style="fill:none;stroke:#613583;stroke-width:20;stroke-dasharray:none"
     d="m 149.19939,286.04688 83.57159,294.35896"
     id="path2"
     sodipodi:nodetypes="cc" />
  <circle
     style="fill:none;fill-rule:evenodd;stroke:#c01c28;stroke-width:10;stroke-miterlimit:5;stroke-dasharray:none"
     id="path4"
     cx="156.24792"
     cy="287.74368"
     r="55.692326" />
</svg>
