<?xml version="1.0" encoding="UTF-8" standalone="no"?>
<svg
   width="800"
   height="1000"
   version="1.1"
   id="svg1"
   sodipodi:docname="1388A.svg"
   inkscape:version="1.4.3 (0d15f75, 2025-12-25)"
   xmlns:inkscape="http://www.inkscape.org/namespaces/inkscape"
   xmlns:sodipodi="http://sodipodi.sourceforge.net/DTD/sodipodi-0.dtd"
   xmlns="http://www.w3.org/2000/svg"
   xmlns:svg="http://www.w3.org/2000/svg">
  <defs
     id="defs1" />
  <sodipodi:namedview
     id="namedview1"
     pagecolor="#ffffff"
     bordercolor="#000000"
     borderopacity="0.25"
     inkscape:showpageshadow="2"
     inkscape:pageopacity="0.0"
     inkscape:pagecheckerboard="0"
     inkscape:deskcolor="#d1d1d1"
     inkscape:zoom="0.4570799"
     inkscape:cx="106.10836"
     inkscape:cy="841.20959"
     inkscape:window-width="1680"
     inkscape:window-height="998"
     inkscape:window-x="-8"
     inkscape:window-y="-8"
     inkscape:window-maximized="1"
     inkscape:current-layer="svg1"
     showgrid="false"
     showguides="true" />
  <path
     style="fill:#000000;stroke:none;stroke-width:54.9018"
     d="m 486.78022,161.77159 c 17.55662,0 32.29164,-5.6432 44.20506,-16.9296 11.91338,-11.28639 17.87007,-26.02139 17.87007,-44.20498 0,-15.675574 -5.48643,-29.470055 -16.45927,-41.383444 -10.97288,-11.913422 -26.17817,-17.870132 -45.61586,-17.870132 -18.81064,0 -33.7024,5.95671 -44.67529,17.870132 -10.97286,11.913389 -16.45929,25.70787 -16.45929,41.383444 0,18.18359 5.9567,32.91859 17.87007,44.20498 11.91344,11.2864 26.33494,16.9296 43.26451,16.9296 z m 44.20506,44.20503 4.70269,-19.75119 h -96.87486 l 3.76209,19.75119 z m 19.75121,-30.09705 c 3.76211,3.76215 3.76211,7.21077 0,10.34586 h -5.64329 l -3.76209,19.75119 h -10.34583 10.34583 -109.10178 10.34587 -10.34587 l -3.76211,-19.75119 h -5.64318 c -5.01619,-3.13509 -5.01619,-6.58371 0,-10.34586 h 11.28638 c -8.15128,-3.13511 -17.08633,-9.40533 -26.80516,-18.81067 -9.71884,-9.40532 -17.71338,-28.05919 -23.98359,-55.96162 C 377.05145,73.204803 368.42991,51.259027 357.45703,35.269947 346.48415,19.280903 339.11665,7.5242545 335.35455,9.69936e-8 344.13281,2.5080969 356.04621,12.226936 371.09475,29.156517 c 15.04853,16.92958 29.15651,50.475229 42.32397,100.636943 -3.76214,-8.15128 -5.64321,-17.24309 -5.64321,-27.27544 0,-21.318715 6.89724,-39.659098 20.69171,-55.021153 13.79448,-15.362022 33.23215,-23.043033 58.313,-23.043033 25.70789,0 45.30231,7.681011 58.78327,23.043033 13.48101,15.362055 20.22152,33.702438 20.22152,55.021153 0,10.03235 -1.56757,19.12416 -4.70271,27.27544 C 573.62273,79.631746 587.41719,46.086097 602.4657,29.156517 617.51422,12.226936 629.42766,2.5080969 638.206,9.69936e-8 635.07086,7.5242545 628.01685,19.280903 617.04399,35.269947 c -10.97286,15.98908 -19.59441,37.934856 -25.86464,65.837333 -6.27022,27.90243 -14.4215,46.5563 -24.45387,55.96162 -10.03235,9.40534 -18.81065,15.67556 -26.33488,18.81067 z M 444.45626,289.68403 v 4.70264 c -7.52426,-0.62701 -15.67554,-2.3513 -24.45385,-5.17289 -8.77829,-2.82162 -16.92956,-2.82162 -24.45381,0 -7.52426,2.82157 -11.5999,6.27018 -12.22693,10.34584 -0.62701,4.07562 -2.82159,8.93504 -6.58374,14.57824 -11.91339,15.04852 -17.55659,23.82682 -16.92962,26.33492 0.62702,2.50806 2.66485,4.70263 6.11349,6.5837 3.44864,1.88107 4.85945,3.13511 4.23244,3.76214 l -4.70269,6.58372 8.4648,-1.88104 c 15.04853,5.64319 22.57279,9.40532 22.57279,11.28639 l -18.81069,10.34584 c -1.25401,13.16747 4.38919,18.49716 16.9296,15.98906 h 37.62128 c 3.13512,15.67553 8.77832,28.21596 16.92961,37.62128 17.5566,4.38918 32.6051,-2.82155 45.14552,-21.63222 v -63.01572 c 0.62712,-12.54041 -3.13502,-15.98902 -11.28638,-10.34584 -8.15126,14.4215 -14.73499,21.63225 -19.75116,21.63225 -7.52424,0 -11.28635,-4.38916 -11.28635,-13.16746 v -10.34584 h 6.58369 v 9.40534 c 0,5.01616 1.56756,7.52424 4.70266,7.52424 5.01617,0 10.97288,-9.40531 17.8701,-28.21596 6.89726,-18.81066 5.0162,-28.21599 -5.64318,-28.21599 -7.52425,0 -13.16744,6.58373 -16.92958,19.75119 h -6.58369 c -1.88109,-31.97812 -21.31877,-46.08611 -58.31303,-42.32398 -3.76216,3.76213 -6.58376,7.83776 -8.46481,12.22693 10.03233,-6.27019 19.90794,-7.52425 29.62682,-3.76214 9.71881,3.76214 19.59439,6.89726 29.62671,9.40536 z m -77.12366,50.78875 c 13.16745,0 17.24308,2.82158 12.22693,8.46476 -8.15128,0 -12.22693,-2.82159 -12.22693,-8.46476 z m 17.87013,-31.03759 v -2.82162 c 3.13509,-1.25401 5.79993,-3.60532 7.99452,-7.05395 2.19459,-3.44864 6.27024,-5.64323 12.22692,-6.58378 5.95672,-0.94056 13.32424,1.09727 22.10253,6.11352 h 16.92956 v 5.6432 H 427.5267 c -6.89726,4.38913 -13.32424,7.05397 -19.28093,7.99452 -5.95668,0.94056 -10.34583,0.94056 -13.16743,0 -2.82162,-0.94057 -6.11349,-2.03787 -9.87561,-3.29189 z M 591.17935,572.7843 V 385.61835 C 580.51997,280.90571 560.7688,228.54939 531.92582,228.54939 H 429.40778 c -11.28639,3.13508 -19.43768,11.28637 -24.45387,24.45384 37.6213,1.25405 58.31302,5.17293 62.07516,11.75665 3.76211,6.58376 13.32417,10.6594 28.68619,12.22693 15.36207,1.56756 23.04309,16.45933 23.04309,44.67531 V 572.7843 Z M 348.52194,806.97688 312.78172,761.83128 216.8474,617.92984 c -26.3349,-5.01614 -40.75641,1.88109 -43.26451,20.69167 l 70.53996,212.56042 c 16.30255,39.50232 23.35656,67.24803 21.16202,83.23713 -2.19459,15.98905 -6.42698,27.43218 -12.6972,34.3294 h 278.39761 c -23.82682,-23.82683 -30.72405,-54.55089 -20.6917,-92.17217 10.03231,-37.6213 18.34034,-83.86415 24.9241,-138.72857 6.58369,-54.86437 10.18904,-101.4207 10.8161,-139.66901 H 494.30446 V 436.4071 c -3.13507,10.65937 -14.73496,16.61606 -34.79968,17.87007 -58.31299,73.98856 -73.98851,118.5071 -47.02658,133.5556 5.01614,80.88585 -3.76216,147.35016 -26.3349,199.39292 -5.64323,25.70792 -18.18369,32.29165 -37.62136,19.75119 z M 155.71282,618.87036 c 6.2702,-13.16742 20.69168,-19.75113 43.26445,-19.75113 -18.18359,-10.65938 -34.79966,-13.63773 -49.84821,-8.93504 -15.04851,4.7026 -19.12415,7.99444 -12.22692,9.8755 6.89724,1.88109 13.16746,8.15132 18.81068,18.81067 z m 27.27544,-46.08606 c 28.843,0 46.0861,8.15126 51.72927,24.45379 l 124.15032,180.58225 c 23.82681,-53.2968 33.54562,-113.17734 29.15646,-179.64163 -16.92958,-24.45388 -15.83228,-53.14013 3.29188,-86.05876 19.12415,-32.91867 33.7024,-56.27522 43.73477,-70.06968 -6.27021,-5.6432 -12.22693,-16.61607 -17.87015,-32.91862 h -30.09705 c -15.67553,0 -23.5133,-9.71884 -23.5133,-29.15652 -7.52425,-0.62701 -9.71882,-5.01616 -6.5837,-13.16744 -5.64321,-4.38913 -5.64321,-7.83775 0,-10.34586 l 1.88109,-4.70266 c -3.76214,-0.62702 -7.52428,-3.13512 -11.2864,-7.52429 -2.50808,-3.1351 5.01619,-15.36201 22.57279,-36.68077 0,-14.42148 3.44861,-27.58893 10.34583,-39.50234 -1.88108,-5.01617 0.31348,-14.42151 6.58369,-28.21599 6.27026,-13.79446 19.43773,-25.08084 39.50242,-33.85916 h 121.32867 c 45.77261,16.9296 68.65891,100.95049 68.65891,252.06269 v 140.1394 H 569.5471 v 16.92953 c -8.77829,127.91243 -18.9674,210.20902 -30.56731,246.88981 -11.59992,36.68069 -1.09731,74.77224 31.50782,114.27462 12.54045,11.28642 12.54045,20.06473 0,26.33493 h -374.3319 c -7.52429,-9.4053 -2.97838,-18.96737 13.63773,-28.68619 16.61607,-9.71885 25.55113,-21.78903 26.80518,-36.21054 1.88103,-12.5404 -27.90252,-110.35575 -89.35063,-293.44607 -9.40533,-20.0647 -20.06468,-31.50785 -31.97807,-34.32945 -11.91342,-2.82146 -15.04855,-8.93492 -9.40536,-18.34038 0,-12.54045 18.49714,-18.81067 55.49142,-18.81067 z"
     id="path1"
     sodipodi:nodetypes="sssssssssccccccccccccccccccssscscssssscscsssccccssscsscccccccccccssccssssccccsccccccssccccsscccsccssscccccccsccsscccccccccsscscccsccscccccccsccscccscccsccccssccc" />
  <path
     style="fill:#000000;stroke:none;stroke-width:0.999999"
     d="m 182.94217,214.8353 v 79.3572 c 15.99308,27.56254 23.4792,56.31605 22.45836,86.2605 -0.68079,30.96515 -8.16692,59.54847 -22.45836,85.74993 l 0,110.13655 h -21.43744 l 0,-110.13655 c -14.29159,-26.20146 -21.60759,-54.78478 -21.94798,-85.74993 -1.3616,-29.94445 5.95439,-58.69796 21.94798,-86.2605 v -79.3572 z m 0,105.89887 h -21.43744 c -7.48612,18.03465 -10.88894,37.94092 -10.20846,59.71883 0,18.71514 3.40283,38.45123 10.20846,59.20826 h 21.43744 c 7.14587,-20.75703 10.71881,-40.49312 10.71881,-59.20826 0.6808,-21.77791 -2.89213,-41.68418 -10.71881,-59.71883 z"
     id="path1-9"
     sodipodi:nodetypes="cccccccccccccccccc" />
</svg>
