<?xml version="1.0" encoding="UTF-8" standalone="no"?>
<svg
   width="800"
   height="1000"
   version="1.1"
   id="svg1"
   sodipodi:docname="1388F.svg"
   inkscape:version="1.4.4 (dcaf3e7, 2026-05-05)"
   xmlns:inkscape="http://www.inkscape.org/namespaces/inkscape"
   xmlns:sodipodi="http://sodipodi.sourceforge.net/DTD/sodipodi-0.dtd"
   xmlns="http://www.w3.org/2000/svg"
   xmlns:svg="http://www.w3.org/2000/svg">
  <defs
     id="defs1" />
  <sodipodi:namedview
     id="namedview1"
     pagecolor="#ffffff"
     bordercolor="#000000"
     borderopacity="0.25"
     inkscape:showpageshadow="2"
     inkscape:pageopacity="0.0"
     inkscape:pagecheckerboard="0"
     inkscape:deskcolor="#d1d1d1"
     inkscape:zoom="0.46228384"
     inkscape:cx="-200.09352"
     inkscape:cy="319.06804"
     inkscape:window-width="1920"
     inkscape:window-height="998"
     inkscape:window-x="-11"
     inkscape:window-y="-11"
     inkscape:window-maximized="1"
     inkscape:current-layer="svg1" />
  <path
     style="fill:#000000;stroke:none;stroke-width:46.0923"
     d="M 593.5656,564.4702 V 447.09185 c 0,-77.02952 -8.71167,-131.13358 -26.13503,-162.31219 -17.42333,-31.17862 -48.29626,-46.92075 -92.6188,-47.22641 -44.32253,-0.30566 -68.31784,14.51947 -71.98592,44.4754 19.56304,-3.05675 34.54098,-2.13975 44.93386,2.75101 10.39286,4.89078 15.89497,11.92126 16.50633,21.09142 1.83409,-12.22691 7.94754,-18.03468 18.34036,-17.42333 14.06094,-2.44539 21.24424,2.44537 21.54992,14.67227 0.30563,12.22691 -3.05675,23.84248 -10.08717,34.8467 -7.03047,11.00422 -12.37975,19.56305 -16.04784,25.6765 V 564.4702 Z M 435.83849,398.48992 c 4.27943,20.17438 11.00423,32.70696 20.17442,37.59775 h 2.75107 v -75.19551 l 25.67644,-40.34877 c 3.05675,-11.00423 2.13971,-16.50634 -2.75114,-16.50634 -6.11344,0 -10.08717,5.50211 -11.92121,16.50634 h -11.92113 c 0,-12.22691 -6.11346,-20.48007 -18.34037,-24.7595 -12.2269,-4.27941 -20.93858,-5.50209 -26.13503,-3.66805 -5.19642,1.83404 -11.15704,3.66807 -17.88186,5.50211 -1.83404,5.50208 -2.75106,14.06092 -2.75106,25.6765 -8.55883,15.89497 -13.14393,25.98217 -13.75529,30.26157 10.39288,2.44539 13.7553,7.33616 10.08725,14.67232 h 16.50634 c 3.05668,0.61132 4.58502,3.0567 4.58502,7.33614 -8.55879,1.22268 -12.83819,6.11343 -12.83819,14.67226 0,5.50212 4.58508,8.25318 13.75523,8.25318 z m 16.50633,-90.78478 v 5.50212 h -7.33618 c -20.17438,-7.33615 -36.06934,-6.41913 -47.68489,2.75105 v -8.25317 c 9.78152,-9.17019 25.67648,-9.47586 47.68489,-0.91703 z m 0,11.00418 0.91698,4.58513 -9.17014,-0.91703 c -15.28363,6.11343 -25.06516,9.17015 -29.3446,9.17015 -4.89075,0.61135 -8.86448,-0.30565 -11.92121,-2.75101 l -5.5021,0.91698 -0.91704,-3.66804 c 3.05672,-9.17019 10.39286,-13.75528 22.00845,-13.75528 4.27942,0 12.83826,2.13971 25.6765,6.4191 z m -17.42337,2.75106 c -4.89076,-1.83404 -9.78152,-3.05672 -14.67227,-3.66805 1.22271,1.22269 1.83407,2.44537 1.83407,3.66805 0,1.83403 -0.91704,3.66807 -2.7511,5.50212 7.33615,-1.83405 12.53258,-3.66809 15.5893,-5.50212 z m -23.84247,-2.75106 c -2.44537,0 -5.50207,2.13972 -9.17015,6.41916 4.27942,1.83403 8.25316,2.44538 11.9212,1.83402 -2.44538,-1.22268 -3.66809,-2.75104 -3.66809,-4.58508 0,-1.83404 0.30569,-3.05674 0.91704,-3.6681 z m 47.685,149.47394 h -17.42339 c -0.61131,40.96015 -3.56634,51.81412 -10.90251,63.124 -16.88231,32.30261 -16.68176,85.68499 4.48337,109.2754 -12.2269,37.29206 -25.98217,67.7065 -41.2658,91.2433 -15.28362,23.53678 -23.84245,57.00794 -25.67649,100.41346 -95.36988,29.34458 -171.17669,57.16081 -227.42047,83.44867 -28.12189,16.50632 -38.20909,30.72011 -30.26161,42.64134 7.9475,11.92125 16.20067,15.74215 24.75949,11.4627 64.80261,-37.29205 122.72759,-49.21327 173.77492,-35.76365 51.04733,13.44952 100.41347,21.70267 148.09842,24.75942 44.62822,3.05675 69.99905,-20.7857 76.1125,-71.52737 1.83409,-122.8804 13.75532,-223.7524 35.76368,-302.61596 H 458.76398 Z m 136.63564,-165.06324 14.67231,72.44446 z m 18.3404,88.03375 v 55.93808 c 11.0042,0 22.61974,9.47587 34.8466,28.42759 33.01269,42.79416 112.97073,128.83757 79.8211,171.06798 -17.67322,22.51451 -132.79776,63.29669 -216.24084,87.80875 l -0.82893,0.39191 c -6.19988,8.34109 -14.33418,17.59668 -24.40292,27.76681 -3.92901,4.5625 -9.35533,8.81856 -16.27895,12.7682 -5.2656,3.16566 -13.80215,5.84919 -25.60968,8.05057 -11.80758,2.20132 -21.87159,5.94506 -30.19204,11.2312 -3.57742,1.0152 -6.31078,0.95503 -8.20008,-0.1805 -1.88941,-1.13542 -2.52765,-3.20043 -1.9147,-6.19505 -1.65813,0.78392 -2.87914,0.34684 -3.66308,-1.31128 -0.78394,-1.65812 -0.62315,-2.74852 0.48234,-3.27118 -1.36675,-0.0299 -2.58026,-0.80864 -3.6405,-2.33613 -1.06019,-1.52752 -0.89189,-2.95955 0.50488,-4.29609 -0.29132,0.8139 -1.30887,0.44966 -3.05265,-1.09275 -1.74346,-1.54251 -0.66581,-3.91163 3.23298,-7.10739 14.30973,-4.06054 25.58719,-7.02557 33.8324,-8.89507 8.24518,-1.86944 19.03014,-7.30649 32.35486,-16.31113 1.42679,-2.70332 1.87141,-4.26595 1.33385,-4.68792 -0.53758,-0.42201 -1.78112,0.16593 -3.73057,1.76376 -5.98939,-1.22578 -11.90824,0.55819 -17.75657,5.35191 -5.00423,3.71851 -9.63678,6.0777 -13.89763,7.07757 -4.26071,1.00016 -6.89867,-0.28853 -7.91387,-3.86608 -0.75388,-3.02469 2.72298,-5.68287 10.43056,-7.97454 5.00422,-3.7185 12.36493,-8.88913 22.08213,-15.51185 9.71714,-6.62286 24.59461,-11.628 44.6324,-15.0154 53.41907,-41.48489 152.23565,-70.13352 182.63347,-84.50516 C 659.36043,576.77304 635.13696,565.38719 613.7399,519.5363 v 65.10827 h -21.09146 c -21.39706,78.2522 -32.09561,173.92773 -32.09561,287.02662 17.11765,1.8341 24.60661,8.25324 22.46691,19.25743 -2.13972,11.00421 -5.96063,21.39708 -11.4627,31.17858 -5.50213,13.44961 7.03045,29.34459 37.59773,47.68493 14.67228,0 22.61976,2.75107 23.84245,8.25321 11.00422,1.8341 16.20064,7.94753 15.58926,18.3403 h -14.67225 c -3.66804,4.27936 -25.06511,5.50206 -64.19122,3.66806 H 98.375743 C 52.524827,962.15031 60.16664,927.30362 121.30118,895.51367 c 78.25223,-37.29204 152.53069,-64.80259 222.83539,-82.53164 1.83403,-34.23534 9.93435,-62.35721 24.30095,-84.36564 14.36664,-22.00844 27.96909,-48.90762 40.80735,-80.69756 -34.03313,-27.97096 -16.12856,-111.61899 6.35888,-145.01757 -33.55824,-3.88283 -178.26998,23.94448 -196.55904,61.73939 -27.15459,56.11578 -69.68964,117.06849 -69.68964,117.06849 l -20.2137,31.51206 c 6.51476,12.69833 7.97984,24.08756 4.39523,34.16769 -3.58464,10.08016 -6.10933,17.90938 -7.57396,23.48774 0.8317,6.78429 -0.21171,10.63076 -3.13027,11.53944 -2.91852,0.90869 -4.96844,-0.53403 -6.14974,-4.32816 -1.18127,-3.79409 -1.33145,-8.38944 -0.45048,-13.78606 2.26854,-7.10923 3.53218,-12.30484 3.79095,-15.58686 -0.14324,-2.51655 -0.69806,-3.78446 -1.66453,-3.80373 -0.96646,-0.0192 -1.96174,1.41114 -2.98589,4.29123 -3.3698,13.85495 -4.1102,24.33013 -2.22119,31.42549 1.88895,7.09538 4.0671,16.66189 6.53443,28.69952 0.32496,3.10025 -0.72541,4.86796 -3.15109,5.30304 -2.42571,0.43511 -3.91118,-0.22291 -4.45639,-1.97404 -0.22023,1.34915 -1.05996,2.2509 -2.51923,2.70524 -1.45929,0.45434 -2.75339,-0.10319 -3.88228,-1.67257 -0.98568,0.94721 -2.20818,1.64795 -3.66747,2.1023 -1.45922,0.45433 -2.461442,-0.19408 -3.006654,-1.94521 -2.555063,2.07612 -4.497579,2.52081 -5.827493,1.33413 -1.329902,-1.18663 -2.449217,-3.2392 -3.357868,-6.15775 0.737729,-7.9132 -0.10087,-16.77626 -2.515836,-26.58919 -2.414939,-9.81291 -3.564651,-17.61865 -3.449151,-23.41722 0.919431,-7.32949 2.786035,-13.67328 5.599831,-19.03138 4.680448,-11.70188 0.823266,-21.5902 5.82866,-30.19186 11.342131,-37.30084 21.462401,-64.625 43.224711,-107.53195 10.966,-21.62078 37.3538,-48.74889 50.65797,-77.23001 47.6128,-47.45381 193.15578,-80.97355 244.20958,-72.30951 3.6502,0.61945 7.36821,-3.79565 12.55247,-5.6297 -7.94748,-7.33612 -13.44959,-13.75523 -16.50634,-19.25734 -3.05669,-5.50212 -4.89072,-11.61558 -5.50205,-18.34037 h -17.42334 c -17.1177,0 -23.8425,-8.25317 -20.17442,-24.75951 l -4.58509,-0.91698 c -1.22272,-3.05675 -0.91705,-6.41915 0.91699,-10.0872 -2.4454,0 -4.58511,-1.2227 -6.41914,-3.66809 l 3.66809,-6.41914 c -7.94749,-0.61133 -11.92122,-2.75103 -11.92122,-6.4191 0,-6.11347 4.27941,-17.11771 12.83825,-33.01269 -0.61136,-8.55882 -0.30569,-17.729 0.91703,-27.51052 7.33612,-50.74163 37.59771,-76.11246 90.78477,-76.11246 53.18703,0 91.70178,20.48007 115.54429,61.44023 32.22509,59.32354 25.28085,65.20691 25.67652,109.12512 z"
     id="path1"
     sodipodi:nodetypes="cssscsccssccccccccsccssccccccsscccccccccccccccsccccscccccscccscsccscscccccccccccsccccscscscscccscscccccsccccccscccccccccsccsccscssccscscscscscscscccscscscscccccsccscc" />
  <path
     style="opacity:0.99;fill:#f9f06b;stroke:#9141ac;stroke-width:0"
     d="m 329.17931,789.57879 54.31084,1.2192 -58.22683,-63.04147 z"
     id="path2" />
  <path
     style="opacity:0.99;fill:#f9f06b;stroke:#9141ac;stroke-width:0"
     d="m 214.24032,537.24688 3.94926,40.03109 37.51792,15.97652 -5.56486,37.15891 38.41549,-2.15414 -1.97464,-43.62132 18.18558,-2.48599 5.01664,-40.42708 -27.69,-19.73648 -19.02824,-15.97653 -28.90136,8.61656 z"
     id="path3" />
  <path
     style="fill:#000000;stroke:none;stroke-width:26.7629"
     d="m 289.71939,524.02102 q 0,-5.31181 -13.57427,-16.82041 -13.57429,-11.50858 -42.49342,1.47495 -28.91912,12.98404 -26.55838,44.26393 2.36066,31.2799 22.42709,36.59169 18.88595,2.35942 18.88595,7.96747 0,5.60681 -18.88595,6.19705 -9.44297,0 -26.2633,24.19737 -16.82028,24.19766 -29.21422,52.52664 -1.18047,40.72282 10.62337,69.05179 -7.08225,35.41125 2.95092,48.1003 10.03315,12.68878 22.42708,2.06543 l -7.67242,-28.32899 12.98409,12.98405 q 0,-17.11541 -14.75464,-25.37811 0.59024,-46.62459 -5.3117,-72.59268 l 31.27989,-41.31303 q 15.93503,36.00122 15.93503,54.29708 -15.34486,60.19886 -13.57429,79.37991 1.77044,19.18109 35.11608,19.18109 33.34551,0 56.36277,10.03314 l 2.95095,5.31181 q -15.93504,19.47606 -14.75468,49.5755 1.18046,30.09942 -12.0988,49.87072 -13.27919,19.7713 2.06568,22.7222 15.34483,2.95088 40.13266,17.11539 h 22.42707 q 6.49204,0 10.62334,-7.96748 4.13129,-7.96747 -10.62334,-7.96747 -24.19765,0 -33.05042,-21.24673 -1.18046,-18.88609 9.73805,-44.55918 10.91844,-25.67308 23.31237,-62.85476 5.90184,0 5.90184,25.67309 0,25.67307 15.63995,52.2314 15.63991,26.55855 7.96751,43.37869 -7.67243,16.82042 -0.29498,21.542 7.3773,4.72134 15.935,1.47494 8.55769,-3.24614 22.13199,1.47494 h 36.00135 q 4.72148,0.59049 10.62334,-6.49227 5.90186,-7.08199 -10.62334,-8.26244 -34.23079,-4.72159 -44.55904,-25.08287 -10.32826,-20.36153 -12.689,-53.41186 -2.36065,-33.05057 -14.16447,-79.08493 -29.50931,-26.55831 -83.80643,-35.41125 -5.31169,-29.50919 -5.31169,-49.28051 0,-19.77129 16.52521,-51.64141 8.26261,15.34496 25.6731,28.62423 17.4105,13.27904 28.03384,17.41039 10.62335,4.13136 13.57427,-4.42635 2.95095,-8.55769 1.47546,-28.62397 -1.47546,-20.06629 -21.54178,-56.06778 -14.16449,-33.64053 -24.49273,-38.65711 -10.32827,-5.01657 -31.57496,-3.24613 l -3.54112,-4.13136 q 8.85278,-8.26246 1.77044,-14.16426 z m -13.57427,-4.72158 q -12.98412,4.72158 -23.90255,16.52516 -10.91844,11.80382 -7.08222,29.80444 3.83617,18.00061 -4.13133,16.52517 -7.96753,-1.47495 -15.63992,-10.03315 -7.67241,-8.55768 -6.19696,-27.73877 1.47544,-19.18106 23.31237,-28.32875 21.83688,-9.14792 33.64061,3.2459 z m 8.2626,10.03315 20.6565,18.88606 q -7.08223,4.13111 -3.8362,7.37725 3.24601,3.24613 -6.19694,7.37723 v 5.31182 q 6.49203,2.95088 2.36065,10.62336 h -16.52514 v 31.2799 h 20.65652 q 8.26262,0 15.34484,28.32875 h -8.26261 q -14.16448,37.18193 -14.16448,57.83843 0,20.65652 2.06568,40.42756 2.06568,19.77131 10.91844,19.77131 41.31301,6.49202 66.69103,24.19764 -55.47751,6.49202 -55.47751,17.70561 -7.67243,-7.08223 -66.69103,-10.03313 -11.80373,-5.31181 -13.57426,-13.57427 0,-18.29585 12.39388,-77.31451 0,-21.83671 -14.75463,-59.01864 -6.49205,-8.8527 -0.59021,-18.29561 5.90185,-9.44315 15.34481,-8.85293 9.443,0.59049 9.443,-16.23018 0,-16.82015 -4.72149,-30.68966 -4.72151,-13.86925 6.78714,-24.49263 11.50865,-10.62336 22.13201,-10.62336 z m -20.65653,17.11538 q 21.24672,1.77144 23.01727,-3.83611 1.77045,-5.60681 -3.24602,-8.26271 -5.01657,-2.6559 -19.77125,12.09882 z m 59.60883,23.01718 q -4.72152,15.34496 0.88521,19.18107 5.60675,3.83635 20.36143,0.88447 8.85279,39.54234 23.01727,70.82224 -12.98413,-14.16452 -25.96822,-29.50922 -12.98408,-15.34494 -18.29575,-22.42719 -5.31169,-7.08225 -15.04977,-7.37725 -9.73805,-0.29648 -13.86937,-0.29648 -4.13128,0 -4.13128,-7.67223 0,-7.6725 5.60675,-7.6725 5.60678,0 8.85278,-3.24611 3.24605,-3.24589 0.88523,-11.50859 l 5.31165,-4.13136 z"
     id="path1-4" />
  <path
     d="m 478.13023,191.09212 c 14.09876,0 25.93166,-4.53176 35.49868,-13.59525 9.56699,-9.06349 14.35048,-20.89637 14.35048,-35.49863 0,-12.58819 -4.40585,-23.66579 -13.21753,-33.23279 -8.81174,-9.567023 -21.02227,-14.350534 -36.63163,-14.350534 -15.1058,0 -27.06457,4.783511 -35.87631,14.350534 -8.8117,9.567 -13.21756,20.6446 -13.21756,33.23279 0,14.60226 4.78351,26.43514 14.3505,35.49863 9.56703,9.06349 21.14814,13.59525 34.74337,13.59525 z m 35.49868,35.49866 3.77648,-15.86113 h -77.79495 l 3.02113,15.86113 z m 15.86113,-24.16931 c 3.02114,3.02118 3.02114,5.79058 0,8.30818 h -4.53181 l -3.02113,15.86113 h -8.30819 8.30819 -87.61373 8.3082 -8.3082 l -3.02115,-15.86113 h -4.53173 c -4.02823,-2.5176 -4.02823,-5.287 0,-8.30818 h 9.06347 c -6.54585,-2.51765 -13.72109,-7.55292 -21.52576,-15.10583 -7.80467,-7.55291 -14.22466,-22.53282 -19.25993,-44.93975 -5.03526,-22.40696 -11.95874,-40.03042 -20.77049,-52.870385 -8.81172,-12.839933 -14.72816,-22.28106 -17.7493,-28.323381 7.04935,2.014116 16.61635,9.81879 28.70102,23.414019 12.08465,13.595227 23.41402,40.533917 33.98808,80.816057 -3.02117,-6.54584 -4.53175,-13.84698 -4.53175,-21.90341 0,-17.11991 5.53879,-31.84807 16.61639,-44.184508 11.0776,-12.336406 26.68694,-18.50461 46.82801,-18.50461 20.64461,0 36.37982,6.168204 47.20566,18.50461 10.82587,12.336438 16.2388,27.064598 16.2388,44.184508 0,8.05643 -1.25883,15.35757 -3.77649,21.90341 10.07054,-40.28214 21.14812,-67.22083 33.23277,-80.816057 12.08464,-13.595229 21.65168,-21.399903 28.7011,-23.414019 -2.51767,6.042321 -8.18236,15.483448 -16.99406,28.323381 -8.81172,12.839965 -15.73522,30.463425 -20.77051,52.870385 -5.03527,22.40693 -11.58112,37.38684 -19.63757,44.93975 -8.05643,7.55291 -15.10581,12.58818 -21.14812,15.10583 z m -99.69838,24.16931 h 97.43249"
     style="fill:#000000;stroke:none;stroke-width:42.7817"
     id="path1-0" />
  <path
     style="opacity:0.99;fill:#f9f06b;stroke:#9141ac;stroke-width:10;stroke-dasharray:none"
     d="m 443.31373,84.644905 70.21837,0.06777"
     id="path4"
     sodipodi:nodetypes="cc" />
  <path
     style="opacity:0.99;fill:#f9f06b;stroke:#9141ac;stroke-width:10;stroke-dasharray:none"
     d="M 496.04262,84.70068 V -2.7764312e-7"
     id="path5" />
  <path
     style="opacity:0.99;fill:none;stroke:#9141ac;stroke-width:6;stroke-dasharray:none"
     d="M 496.04262,25.132905 H 461.17367 V 84.661482"
     id="path6"
     sodipodi:nodetypes="ccc" />
</svg>
