<?xml version="1.0" encoding="UTF-8" standalone="no"?>
<svg
   width="500"
   height="1000"
   id="svg2"
   sodipodi:version="0.32"
   inkscape:version="1.4.3 (0d15f75, 2025-12-25)"
   sodipodi:docname="13893.svg"
   inkscape:output_extension="org.inkscape.output.svg.inkscape"
   version="1.0"
   xmlns:inkscape="http://www.inkscape.org/namespaces/inkscape"
   xmlns:sodipodi="http://sodipodi.sourceforge.net/DTD/sodipodi-0.dtd"
   xmlns="http://www.w3.org/2000/svg"
   xmlns:svg="http://www.w3.org/2000/svg"
   xmlns:rdf="http://www.w3.org/1999/02/22-rdf-syntax-ns#"
   xmlns:cc="http://creativecommons.org/ns#"
   xmlns:dc="http://purl.org/dc/elements/1.1/">
  <metadata
     id="metadata9">
    <rdf:RDF>
      <cc:Work
         rdf:about="">
        <dc:format>image/svg+xml</dc:format>
        <dc:type
           rdf:resource="http://purl.org/dc/dcmitype/StillImage" />
      </cc:Work>
    </rdf:RDF>
  </metadata>
  <defs
     id="defs7" />
  <sodipodi:namedview
     inkscape:window-height="998"
     inkscape:window-width="1680"
     inkscape:pageshadow="2"
     inkscape:pageopacity="0.0"
     guidetolerance="10.0"
     gridtolerance="10.0"
     objecttolerance="10.0"
     borderopacity="1.0"
     bordercolor="#666666"
     pagecolor="#ffffff"
     id="base"
     height="18px"
     width="10.648681px"
     inkscape:zoom="0.5338656"
     inkscape:cx="426.13722"
     inkscape:cy="720.21872"
     inkscape:window-x="-8"
     inkscape:window-y="-8"
     inkscape:current-layer="svg2"
     inkscape:showpageshadow="2"
     inkscape:pagecheckerboard="0"
     inkscape:deskcolor="#d1d1d1"
     inkscape:window-maximized="1"
     showguides="true">
    <sodipodi:guide
       position="361.31016,1267.2462"
       orientation="1,0"
       id="guide2"
       inkscape:locked="false" />
    <sodipodi:guide
       position="105.13317,661.96676"
       orientation="1,0"
       id="guide5"
       inkscape:locked="false" />
  </sodipodi:namedview>
  <circle
     style="opacity:1;fill:none;fill-rule:evenodd;stroke:#e01b24;stroke-width:8;stroke-linecap:round;stroke-miterlimit:5;stroke-dasharray:none"
     id="path5"
     cx="256.48349"
     cy="374.7316"
     r="115.68034" />
  <path
     style="fill:#000000;stroke:none;stroke-width:48.9332"
     d="m 209.46842,66.384131 c 2.54862,5.734461 7.80497,14.495592 15.7695,26.283078 7.96449,11.787541 14.33707,27.875911 19.11577,48.265101 4.61508,23.46624 14.99447,44.68423 37.75148,54.47758 h -8.60219 c -3.82293,2.54867 -3.82293,5.09694 0,7.64558 h 3.82282 l 1.68129,8.40112 c -11.90881,7.21142 -19.47881,19.06486 -22.70669,35.56288 -3.82296,19.75204 -8.91955,34.08892 -15.29121,43.0092 -0.63714,4.46013 1.59175,6.37131 6.689,5.7342 1.91156,1.91143 2.07121,3.34537 0.47832,4.30108 -1.59294,0.95572 -0.79611,2.70726 2.38969,5.25591 -1.9115,4.46012 -0.95675,6.6908 2.8662,6.6908 -0.63718,3.82298 -7e-5,7.32778 1.91139,10.51358 1.91151,3.18581 6.0534,4.30024 12.42502,3.34451 6.3716,-0.95573 12.10709,-1.75254 17.20436,-2.3897 1.91149,9.55746 5.09689,17.20415 9.55703,22.93861 h -22.93862 c -17.06722,0 -33.2416,19.46087 -35.79025,37.30139 l 31.01267,17.17619 c 3.18583,7.64593 0.95516,16.56501 -6.69081,26.75957 2.54867,7.0088 6.53082,11.78776 11.9467,14.33642 5.41589,2.54865 7.80626,6.05345 7.1691,10.51358 -14.01754,105.13182 -20.39011,168.84829 -19.1158,191.14893 10.83175,62.44189 16.5654,97.96374 17.20261,106.56544 1.30303,17.59137 -7.19095,127.03099 -12.4232,161.04123 -1.91153,14.01769 -4.14216,23.89502 -6.6908,29.6295 -8.9203,14.65468 -27.55696,25.6448 -55.91067,32.972 -28.35375,7.32748 -42.53091,13.85973 -42.53091,19.59413 v 5.73439 l 35.36179,0.95487 c 22.93782,-5.09771 42.69074,-5.41543 59.25697,-0.95487 17.84054,1.27437 32.01775,0 42.53091,-3.82294 10.51318,-3.82303 24.37093,-2.23134 41.57427,4.77781 19.75203,-1.27458 24.84862,-12.10669 15.29121,-32.49574 -1.27431,-14.01756 -0.9549,-24.68996 0.95661,-32.01743 1.91148,-7.32735 3.18566,-15.45141 3.82279,-24.37172 6.3716,-70.08774 8.28284,-123.60932 5.73418,-160.56477 -2.54861,-36.95532 -0.6374,-86.01547 5.73423,-147.18307 7.6459,-27.39788 9.87658,-48.425 6.69079,-63.07978 -10.1946,-26.76081 -15.92829,-48.10551 -17.20259,-64.03458 l 2.86617,-30.5842 9.55701,-17.20258 c 7.22263,17.35563 18.11219,40.32604 30.59727,66.13741 0.3679,35.32155 5.21611,64.8279 12.11345,99.66004 l 0.0934,0.95658 c -9.29114,19.27825 -11.88889,40.31078 -15.07304,61.16662 -0.20307,4.4599 1.08256,6.21174 3.85676,5.25587 2.77425,-0.95533 4.4171,-2.07044 4.93023,-3.34453 3.65063,5.20813 7.1158,3.25886 10.55948,0.48016 2.76558,2.22892 5.01103,2.38816 6.73649,0.47646 1.72554,-1.91059 3.59061,-2.38894 5.59516,-1.43309 2.0045,0.95586 4.31752,0.159 6.9367,-2.38971 l 5.28116,-9.5569 c -2.11654,-15.87581 -6.49688,-31.30139 -10.29231,-46.83204 -2.22653,-49.0615 -3.50082,-81.22616 -6.22645,-109.61107 -10.78243,-34.66796 -15.67153,-48.70834 -28.34688,-80.08158 l 3.8228,-0.9548 v -43.00919 c 0,-64.35339 -8.28198,-110.22813 -24.84817,-137.62616 -4.00682,-6.3637 -9.42757,-11.49187 -16.22427,-15.41439 l 1.88785,-9.43561 h 3.82279 c 3.18582,-2.54864 3.18582,-5.09694 0,-7.64557 h -8.6022 c 24.43799,-9.78347 32.58049,-30.29692 38.2298,-54.47759 4.4601,-20.38922 10.67294,-36.47759 18.63747,-48.265131 7.96453,-11.787486 13.22082,-20.548617 15.76947,-26.283078 -6.37162,2.54865 -15.13274,9.875885 -26.28308,21.981982 -9.71465,10.547289 -18.58372,30.525287 -26.60557,59.934607 0.2145,-2.05735 0.32248,-4.19541 0.32248,-6.41363 0,-22.3981 -13.89613,-57.343771 -58.3004,-57.343771 -45.73647,0 -57.34376,36.989831 -57.34376,57.343771 0,2.70722 0.15878,5.2958 0.4783,7.76338 C 254.85327,119.50236 245.6139,99.073883 235.7515,88.366113 224.60117,76.260016 215.84004,68.932781 209.4684,66.384131 Z m 110.86654,30.584185 c 32.41394,0 44.92062,24.270274 44.92062,43.963994 0,26.23169 -19.85569,43.96398 -44.92062,43.96398 -23.93008,0 -44.92059,-16.03398 -44.92059,-43.96398 0,-19.6948 12.50757,-43.963994 44.92059,-43.963994 z M 296.20425,217.39189 h 39.77158 c 13.82249,2.75544 24.22037,8.4891 31.19114,17.20258 16.56619,26.7608 24.84818,70.40672 24.84818,130.93717 v 33.45037 H 334.67138 V 296.71765 c 7.0088,-9.55743 10.51361,-17.83938 10.51361,-24.84819 0,-17.20338 -5.41607,-25.80478 -16.24782,-25.80478 -8.28311,0 -12.42498,3.50296 -12.42498,10.51179 -3.82298,0.63714 -7.64541,-2.38849 -11.46839,-9.07869 -3.82296,-6.69012 -15.61157,-9.08061 -35.36361,-7.1691 3.68353,-11.97148 12.52578,-19.61643 26.52406,-22.93679 z m 3.58182,38.22978 c 3.50441,6.37162 11.31084,11.78766 23.41693,16.24779 0,-10.19455 1.91116,-15.29299 5.73417,-15.29299 3.82296,0 5.73421,5.09843 5.73421,15.29299 0,6.37163 -3.50481,14.33594 -10.5136,23.89341 v 49.69817 h -15.29119 c -6.37163,-5.09726 -12.10709,-15.29228 -17.20442,-30.58419 -5.09729,-0.63716 -10.99065,-0.31776 -17.68086,0.95662 -6.69022,1.27428 -10.67234,0.31778 -11.94672,-2.86803 -1.2743,-3.1858 1.11606,-5.57434 7.16911,-7.16728 6.05305,-1.59291 3.34501,-3.66381 -8.1239,-6.21249 l -0.95661,1.91139 c 2e-5,4e-5 -0.31764,-1.27416 -0.95478,-3.82281 1.27435,-2.5486 1.43222,-4.61955 0.47649,-6.21249 -0.95576,-1.59297 -3.34429,-1.75265 -7.16731,-0.4783 l 9.557,-23.89338 c 7.64597,-7.64598 21.34574,-8.28303 41.0978,-1.91141 v -2.86802 c -20.38922,-7.00881 -33.45195,-8.28294 -39.18641,-3.82279 l 1.9114,-7.64559 c 17.50135,-2.91692 30.15133,-2.08858 33.92869,4.7794 z m -23.59446,8.45182 c -0.59732,0.02 -1.17447,0.0691 -1.73202,0.14857 -4.46013,0.63717 -7.96494,3.18725 -10.51361,7.6474 l -2.86618,0.9548 v 3.8228 h 3.8228 c 0.63714,0 1.91132,0.31946 3.82278,0.95661 0.75439,0.25141 8.93797,2.66506 22.93679,-5.73421 h 11.47022 v -3.82278 h -11.47022 c -6.13266,-2.78757 -11.28916,-4.11255 -15.47056,-3.97319 z m 2.09077,3.01659 c 1.27433,0 4.77913,0.9565 10.51361,2.868 -2.93947,1.46971 -10.02146,4.82263 -13.35623,4.772 6.42296,-1.62181 2.9785,-7.5043 2.84262,-7.64016 z m -5.73418,0.9566 c -1.28249,1.28297 -2.02674,6.37911 2.40419,6.67448 -3.27542,-0.0697 -6.30739,-0.38278 -9.09501,-0.94029 1.27437,-0.63721 2.23088,-1.59364 2.868,-2.86802 0.63721,-1.27428 1.91131,-2.22902 3.82282,-2.86617 z m -6.69082,90.79416 h 58.3004 v 50.65479 h 41.0978 l -9.5588,24.84999 h -68.81219 c -8.9203,0 -13.06213,-2.86776 -12.425,-8.60219 14.01758,-28.03514 11.14983,-50.33634 -8.60221,-66.90259 z m 22.93861,82.19561 h 64.98938 l -0.95478,2.86618 h -63.0798 z m 11.46839,13.37979 h 43.96399 c -1.27429,27.39798 1.91106,50.97331 9.557,70.72536 7.64591,19.75205 8.76217,39.34344 3.3463,58.77689 -5.41587,19.43342 -8.44334,41.57486 -9.0805,66.42434 -0.63715,24.8492 -1.59183,48.74408 -2.86618,71.68197 5.09728,45.87562 2.86663,108.63563 -6.69083,188.28077 h -53.52099 c 10.83177,-93.66274 12.42353,-161.36138 4.77762,-203.09548 -7.64594,-41.7342 -11.46841,-66.74344 -11.46841,-75.0265 1.27433,-40.14123 8.60156,-99.39635 21.982,-177.76735 z m 0.95663,468.31457 h 19.11395 c 6.82269,25.92612 -7.11587,42.09065 -29.62756,46.82995 -1.91151,-10.19453 1.59333,-25.80379 10.51361,-46.82995 z"
     id="path4"
     sodipodi:nodetypes="sssccccccccsccssccscccsccsccssccccccscscccccccccccccsccccccsccccccsscscssscscscssscscscccsscsccssssccccssscccsccccccssccccssccccscccccccccccccccscccccccccssscccsccccccc" />
  <path
     style="fill:#000000;stroke:none;stroke-width:68.174"
     d="m 438.30158,655.8312 c 5.19482,0.94987 1.57945,17.54147 -13.84866,43.77284 -18.11515,-27.17921 -20.5986,-43.41754 -17.04798,-40.3108 l -2.64567,-15.06854 c -18.87788,9.76466 -4.27632,41.17579 11.7023,66.03124 -15.97862,0 -31.51238,-3.55012 -46.60321,-10.6519 -3.55076,9.76453 -3.10574,20.41567 1.33272,31.95571 13.31534,-5.32589 29.29187,-7.10178 47.93356,-5.32589 l -5.32597,66.57921 h 23.96929 l -6.65878,-65.24657 c 15.97864,-0.88749 32.40264,0.44491 49.26888,3.99579 2.66299,-10.6524 2.21789,-21.30583 -1.33288,-31.95825 -15.97859,7.10152 -31.51228,10.6519 -46.60311,10.6519 22.19234,-33.73247 27.83039,-60.41256 7.91396,-69.53985 z"
     id="path3"
     sodipodi:nodetypes="cccccccccccccccc" />
  <path
     style="fill:#000000;stroke:none;stroke-width:48.9332"
     d="M 105.13317,516.25245 H 91.752308 c -4.460131,3.18582 -2.547425,7.64639 5.735698,13.38087 -4.460133,2.54862 -5.41741,7.64618 -2.86876,15.29216 2.548625,7.64595 6.053764,11.78808 10.513924,12.42521 17.21141,0.59351 23.0796,-3.49677 36.48983,-14.3365 41.40289,-15.68769 68.96543,-31.39138 100.9879,-53.43706 13.04177,-34.84401 16.59764,-54.13515 24.2031,-88.68189 l -31.01267,-17.17619 c -8.68217,38.53082 -13.10241,62.47277 -17.41324,94.77178 -31.45891,18.56566 -56.95207,26.03697 -79.72319,43.29854 -9.63458,-5.78894 -20.45486,-5.53692 -33.53173,-5.53692 z"
     id="path2"
     sodipodi:nodetypes="sccscccccccs" />
  <path
     style="fill:#000000;stroke:none;stroke-width:16.997"
     d="m 158.59295,278.63344 c -11.59704,7.92001 -18.5977,17.32499 -21.00197,28.215 -2.4044,10.88988 -6.64727,17.18338 -12.72859,18.8806 -6.08135,1.69706 -12.09203,1.69706 -18.03203,0 -5.93999,-1.69722 -10.112108,-7.99072 -12.516385,-18.8806 -2.404269,-10.89001 -9.404944,-20.29499 -21.001983,-28.215 10.465568,-5.37426 24.60838,-8.06139 42.428388,-8.06139 17.81986,0 32.10407,2.68713 42.85257,8.06139 z m -33.94276,721.36142 -10e-6,-661.96162 c 11.59705,0 19.72921,-7.99065 24.39639,-23.97201 4.66708,-15.98132 12.37488,-23.972 23.12341,-23.972 2.82864,-2.54572 4.24299,-5.79859 4.24299,-9.75859 0,-9.05136 -7.84927,-15.20348 -23.54781,-18.45641 -15.69853,-3.25279 -28.00277,-4.8792 -36.91278,-4.8792 -8.90988,0 -21.214058,1.62641 -36.912585,4.8792 -15.698508,3.25293 -23.547834,9.40505 -23.547834,18.45641 0,3.96 1.272911,7.21287 3.818671,9.75859 11.0313,0 18.880549,7.99068 23.547747,23.972 4.667067,15.98136 12.092002,23.97201 22.274791,23.97201 v 661.96162 z"
     id="path1-4"
     sodipodi:nodetypes="ccccccscccccscscsccccc" />
  <path
     style="fill:none;stroke:#613583;stroke-width:7;stroke-linecap:butt;stroke-linejoin:miter;stroke-dasharray:none;stroke-opacity:1"
     d="m 298.35825,84.54743 h 42.2898 V 3.6242179 h -9.30848 V 35.794301 h -14.59434 v 39.784838 h -18.38698 z"
     id="path1"
     sodipodi:nodetypes="ccccccccc" />
</svg>
