<?xml version="1.0" encoding="UTF-8" standalone="no"?>
<svg
   width="1000"
   height="1000"
   version="1.1"
   id="svg1"
   sodipodi:docname="1389B.svg"
   inkscape:version="1.4.3 (0d15f75, 2025-12-25)"
   xmlns:inkscape="http://www.inkscape.org/namespaces/inkscape"
   xmlns:sodipodi="http://sodipodi.sourceforge.net/DTD/sodipodi-0.dtd"
   xmlns="http://www.w3.org/2000/svg"
   xmlns:svg="http://www.w3.org/2000/svg">
  <defs
     id="defs1" />
  <sodipodi:namedview
     id="namedview1"
     pagecolor="#ffffff"
     bordercolor="#666666"
     borderopacity="1.0"
     inkscape:showpageshadow="2"
     inkscape:pageopacity="0.0"
     inkscape:pagecheckerboard="0"
     inkscape:deskcolor="#d1d1d1"
     inkscape:zoom="0.53386562"
     inkscape:cx="-173.26458"
     inkscape:cy="907.53175"
     inkscape:window-width="1680"
     inkscape:window-height="998"
     inkscape:window-x="-8"
     inkscape:window-y="-8"
     inkscape:window-maximized="1"
     inkscape:current-layer="svg1"
     showguides="true">
    <sodipodi:guide
       position="74.481026,50"
       orientation="0,-1"
       id="guide1"
       inkscape:locked="false" />
    <sodipodi:guide
       position="296.50621,31.28601"
       orientation="1,0"
       id="guide2"
       inkscape:locked="false" />
    <sodipodi:guide
       position="97.772268,31.28601"
       orientation="-0.99822529,0.059550588"
       id="guide3"
       inkscape:locked="false" />
  </sodipodi:namedview>
  <path
     id="path1"
     style="fill:#000000;stroke:none;stroke-width:55.6398"
     d="m 411.46909,0 c 2.37645,5.9412247 7.72284,14.853715 16.04055,26.736127 8.3177,11.882415 14.85217,28.367995 19.60511,49.459283 4.75298,21.091287 10.84283,35.2026 18.26933,42.33205 7.42651,7.12944 14.40743,12.17879 20.94276,15.1494 h -8.91141 c -3.5647,2.37647 -3.5647,4.75264 0,7.12913 H 480.98 l 2.90613,12.3492 c -5.12692,1.50118 -9.66028,3.32668 -13.59982,5.47551 -5.34708,5.34711 -9.06079,11.43699 -11.14022,18.26934 -2.07943,6.83238 -3.41507,11.73415 -4.00919,14.70478 -4.15885,8.31767 -6.23988,17.52529 -6.23988,27.62538 -11.88241,14.25888 -16.93177,22.57739 -15.14939,24.95383 2.37648,2.37653 4.75264,4.15863 7.12912,5.34685 l -0.89114,2.67343 c -3.56474,1.78238 -3.56474,4.15854 0,7.12912 -2.37652,5.34708 -1.18844,8.3173 3.56456,8.91142 0,13.66483 5.64532,20.49814 16.93358,20.49814 h 19.60511 c 2.37647,5.94119 5.94074,12.17863 10.69368,18.71397 -29.11192,0 -50.79628,10.69463 -65.05519,32.08297 -15.44712,13.66479 -38.3215,32.37896 -68.62165,56.14378 -20.20012,0.59412 -54.65826,3.56624 -103.37616,8.9133 -12.47654,-14.85299 -24.35925,-25.84465 -35.64755,-32.97411 -8.91181,-4.75296 -13.21954,-5.19946 -12.92248,-1.33765 0.29708,3.86176 1.93162,6.38738 4.90221,7.57564 l -69.80984,7.12346 c -0.9496,-17.09593 0.47682,-34.66794 4.27596,-52.71356 -11.39722,-2.84918 -22.79722,-2.37245 -34.19447,1.42659 7.5981,17.09593 11.39754,33.71431 11.39754,49.86039 -53.702763,-35.33066 -81.262134,-25.5373 -81.710648,8.18866 -0.448505,33.72598 28.11578,43.36547 81.710648,8.91141 0,17.09595 -3.79922,33.71432 -11.39754,49.86039 10.4474,3.79906 21.84363,3.32416 34.19069,-1.42469 -5.69833,-14.24643 -7.59684,-31.33988 -5.69687,-51.28508 l 54.04175,4.32326 c 0.3876,3.82211 1.65672,8.20572 3.82378,13.15899 14.25889,5.94119 31.48984,10.39653 51.68997,13.36712 32.08249,4.15886 74.85909,5.34691 128.33001,3.56456 36.24135,-25.54723 62.97696,-51.09473 80.20649,-76.64192 l -19.607,32.08297 c 3.56471,13.07067 9.50701,23.17124 17.82471,30.3007 v 29.40955 c -5.94118,2.37648 -17.67633,8.46635 -35.20292,18.26934 -17.52657,9.80299 -36.09317,17.67497 -55.69915,23.6162 -21.98246,-15.44716 -40.10257,-22.87454 -54.36151,-22.28043 -6.64015,-0.44268 -8.82698,1.58758 -6.56152,6.0923 -13.60427,-0.46084 -32.58704,6.12691 -56.59031,21.55768 0,-17.09595 3.79921,-33.71622 11.39753,-49.8623 -10.44741,-3.79906 -21.84363,-3.32415 -34.19068,1.4247 5.69833,14.24642 7.59684,31.33987 5.69687,51.28508 l -71.23453,-5.69687 v 25.64443 l 69.80984,-7.12345 c 0.9496,17.09592 -0.47683,34.66793 -4.27597,52.71355 11.39722,2.84918 22.79722,2.37245 34.19447,-1.42658 -7.5981,-17.09594 -11.39753,-33.71432 -11.39753,-49.86039 45.25362,29.77202 71.94287,27.5025 79.48942,5.87093 11.74537,-0.63159 24.12314,-2.94834 37.13277,-6.95127 35.64725,-4.15885 66.84005,-11.28735 93.57551,-21.38738 0.59411,1.18822 0.29712,20.49645 -0.89114,57.92605 -40.40022,7.72361 -102.48693,24.06161 -186.25798,49.01467 -28.51778,11.88241 -41.58858,37.13295 -39.21209,75.75078 -6.53535,52.87676 -10.27382,104.43067 -12.6503,178.69574 -0.59411,17.22956 -4.75238,32.08432 -12.47598,44.56085 -7.72355,12.47652 -34.7562,23.76329 -81.09762,33.86337 -17.82361,5.94118 -26.439089,15.15074 -25.844977,27.62726 H 248.20838 c 17.22952,-1.78233 26.73414,-6.83169 28.51652,-15.1494 1.78236,-8.31766 0.44671,-17.08074 -4.0092,-26.28961 -4.4559,-9.20888 -3.71428,-30.74753 2.22691,-64.61247 l 21.5636,0 0,118.06752 H 601.28973 V 541.83844 c 0,-4.753 2.37621,-7.12912 7.12914,-7.12912 4.75296,0 7.12912,2.37612 7.12912,7.12912 v 73.9685 h 18.71586 v -81.09762 c 0,-12.47653 -8.31846,-18.71587 -24.95385,-18.71587 -17.82363,0 -26.73423,6.23934 -26.73424,18.71587 v 7.12912 h -10.69558 c 2.97064,-39.80614 5.34869,-81.39464 7.13103,-124.76544 H 609.31 v -59.71025 c 7.72357,-7.72355 10.84324,-17.37767 9.35793,-28.96303 -1.48527,-11.58535 -4.60496,-17.3782 -9.35793,-17.3782 0,-64.16508 -10.09867,-115.25823 -30.29879,-153.28196 -2.33674,-2.33675 -5.96556,-4.25617 -10.88479,-5.75742 l 1.97149,-11.17615 h 4.45571 c 2.97057,-2.37649 2.97057,-4.75266 0,-7.12913 h -8.91142 c 6.53529,-2.97061 13.51625,-8.01996 20.94276,-15.1494 7.4265,-7.12945 13.51637,-21.240763 18.26933,-42.33205 C 609.6073,55.104122 616.14364,38.618542 624.4613,26.736127 632.77901,14.853715 638.12539,5.9412247 640.50184,0 c -6.5353,1.7823711 -15.44784,9.0603247 -26.73613,21.833905 -10.13695,11.470808 -19.55386,33.121976 -28.25352,64.954923 0.41889,-2.928516 0.62814,-6.013078 0.62814,-9.255761 0,-23.6883 -14.05815,-58.819102 -59.71024,-58.819102 -50.73587,0 -59.70835,40.659762 -59.70835,58.819102 0,3.255861 0.21151,6.352575 0.63383,9.291708 C 458.62608,54.972323 449.05747,33.308998 438.64985,21.833905 427.06449,9.0603247 418.0044,1.7823711 411.46909,0 Z m 114.961,31.191833 c 32.35886,0 46.34123,24.331201 46.34123,45.450094 0,13.070636 -4.45533,24.062293 -13.36712,32.974113 -8.91182,8.91182 -19.90344,13.36712 -32.97411,13.36712 -13.66479,0 -24.95343,-4.4553 -33.86525,-13.36712 -8.91179,-8.91182 -13.36712,-19.903477 -13.36712,-32.974113 0,-19.635408 12.40157,-45.450094 47.23237,-45.450094 z M 489.00027,140.80599 h 73.07736 l -1.64984,9.35225 c -8.15072,-1.48201 -18.59281,-2.22124 -31.32428,-2.22124 -14.85577,0 -27.60121,1.15048 -38.23582,3.45294 z m 37.87634,22.28042 c 8.76328,0 17.67389,0.59404 26.73423,1.78228 18.1207,2.37649 30.74689,38.31972 37.87634,107.83186 V 400.14131 H 542.47253 V 229.03274 c 0,-16.63537 -5.94227,-24.95195 -17.82472,-24.95194 -11.88238,-2e-5 -17.82283,-2.67319 -17.82283,-8.02027 0,-5.34708 -11.58568,-10.1013 -34.7564,-14.26016 2.37645,-8.91181 12.03057,-14.55519 28.96304,-16.93168 8.46622,-1.18824 17.0817,-1.78228 25.84499,-1.78228 z M 474.129,194.15148 c 20.01444,0.97474 30.02256,10.81962 30.02256,29.53443 h 4.45571 c 2.97059,-8.91183 7.12886,-13.36713 12.47597,-13.36713 5.94119,0 6.98171,6.3869 3.11994,19.16047 -3.8618,12.77363 -7.87249,19.16049 -12.03135,19.16049 -2.37648,0 -3.56456,-1.78214 -3.56456,-5.34684 v -6.23799 h -4.45571 v 6.23799 c 0,6.5353 2.67319,9.80254 8.02027,9.80254 5.94122,0 10.39654,-5.04935 13.36712,-15.14939 v 62.38177 c -4.75297,4.75297 -12.17849,5.64406 -22.27853,2.67343 -6.53533,-6.5353 -10.69549,-15.14891 -12.47788,-25.84309 H 465.8306 c -8.91182,1.78236 -13.0701,-1.78377 -12.47598,-10.69559 l 13.36712,-7.12914 c 0,-1.18826 -5.04935,-3.86144 -15.1494,-8.02026 l -6.23989,1.78227 3.56457,-5.34683 -3.56457,-1.78229 c -2.37647,-1.18826 -3.71211,-2.67337 -4.00918,-4.4557 -0.29705,-1.78237 3.71368,-8.02171 12.03135,-18.71586 2.37653,-3.56475 3.86159,-6.6825 4.45571,-9.35604 0.59411,-2.67354 3.2673,-5.05159 8.02027,-7.13103 4.75297,-2.07942 10.24877,-2.07942 16.48705,0 6.23824,2.07944 12.03113,3.41698 17.3782,4.01109 v -3.56457 c -7.12945,-1.78236 -13.96284,-3.86149 -20.49813,-6.23798 -6.53534,-2.37649 -13.36679,-1.48544 -20.49626,2.67342 1.18823,-3.56475 3.26736,-6.53493 6.238,-8.91141 3.26766,-0.22279 6.33033,-0.26601 9.18954,-0.12676 z m 0.43137,14.61395 c -0.82077,0.0487 -7.37842,0.9086 -10.06743,4.67329 -1.48532,2.07942 -3.41499,3.71211 -5.79148,4.90033 v 1.78228 c 2.97061,0.59412 5.34677,1.3376 7.12914,2.2288 1.78236,0.89117 4.75256,1.03874 8.91141,0.44463 4.15882,-0.59416 8.61415,-2.67329 13.36712,-6.23799 h 11.58672 v -2.67342 h -11.58672 c -5.19854,-3.639 -9.71482,-5.34537 -13.54876,-5.11792 z m -27.44562,32.74519 c 0,3.5647 2.67505,5.34685 8.02215,5.34685 2.97061,-3.56472 0.29555,-5.34685 -8.02215,-5.34685 z m 78.4242,73.96661 v 65.05708 c -9.50593,16.63539 -19.60461,34.16151 -30.29879,52.57922 -10.10006,2.97065 -17.8245,5.04978 -23.17158,6.238 V 412.6173 c -10.69419,-7.72361 -16.04053,-15.44801 -16.04053,-23.17156 15.44716,-23.17073 22.27862,-41.14332 20.49624,-53.91689 -1.78238,-12.77362 14.55565,-19.45751 49.01466,-20.05162 z M 66.096075,375.9632 c 11.061107,-0.49158 27.388442,6.23484 44.237295,16.1446 -28.615463,19.07241 -58.257162,25.1738 -58.257162,0 0,-11.01352 5.416787,-15.76226 14.019867,-16.1446 z m 490.634715,40.21866 5.34684,0.89114 c -1.78233,43.96495 -3.71204,76.64097 -5.79147,98.02931 -2.07943,21.38835 -1.7824,48.27343 0.89115,80.65301 2.67352,32.37959 -13.21989,48.56814 -47.6789,48.56814 H 322.3493 c -17.22953,0 -25.84309,9.20955 -25.84309,27.62727 l 0,161.76406 -61.66685,0 c 1.18823,-42.18258 5.22562,-88.09303 13.54333,-161.76406 -2.9706,-32.08249 9.50615,-51.98479 37.42982,-59.70835 73.67097,-22.57661 136.05282,-38.32249 187.14722,-47.23427 1.18825,-48.1238 1.78228,-75.75043 1.78228,-82.87991 12.47652,-4.15886 27.32946,-11.58438 44.55895,-22.27853 12.47656,-11.28826 24.95329,-25.84417 37.42983,-43.66781 z m -256.20215,70.32826 c 2.58941,0.0325 4.93693,0.41878 6.98533,1.19575 0.0163,0.57616 -0.43284,1.13037 -0.75869,1.55336 -2.21292,2.8725 -2.22886,5.49431 -0.44652,7.57375 1.78237,2.07942 2.22882,4.15856 1.33765,6.23798 -0.8912,2.07943 0.0955,4.67856 2.67343,8.02216 0.86058,1.11617 1.92321,2.22129 3.0575,3.20319 -8.04096,10.74633 -31.11361,3.08334 -55.25832,-11.1175 15.44482,-10.29409 31.18881,-16.80996 42.40962,-16.66869 z m 270.4604,73.15115 h 10.69558 v 232.5992 H 481.87113 V 950.00003 H 315.22017 v -278.0493 c 0,-5.94118 2.37615,-8.9114 7.12913,-8.91141 h 186.25797 c 55.25325,0 76.04655,-34.46006 62.38177,-103.37805 z m -70.40205,251.31316 81.09763,0.89114 v 138.13446 l -81.09763,-0.002 z m -265.74763,39.67204 h 24.06272 c -4.75297,35.64728 -5.04997,60.00666 -0.89115,73.07737 4.15885,13.0706 -2.37751,19.30992 -19.607,18.71585 l -97.13817,0.89114 c -16.63538,0.59415 -13.66519,-2.08094 8.91141,-8.02217 32.67661,-6.53533 54.80749,-16.63404 66.39286,-30.29879 11.58535,-13.66481 17.67518,-31.7868 18.26933,-54.3634 z"
     sodipodi:nodetypes="csssccccccscccccccsccccccscccccsccccccccccccsccccccccccccccccccccscccssccccsssccssscccccscccccccssscscssscscssssssscccsccsscccssscsssccssssccssccccccccccsscsssccsccsssccssccccscccccccccscscssccsssssccccccccscssssccsccccccscsccccccccscccsc" />
  <rect
     style="fill:#f8e45c;fill-rule:evenodd;stroke:none;stroke-width:16.0001;stroke-miterlimit:5;stroke-dasharray:none"
     id="rect2"
     width="320.74603"
     height="31.28303"
     x="282.84274"
     y="955.29803" />
  <rect
     style="fill:none;fill-rule:evenodd;stroke:#613583;stroke-width:14;stroke-miterlimit:5;stroke-dasharray:none"
     id="rect1"
     width="525.0473"
     height="36"
     x="87.100418"
     y="957" />
</svg>
