<?xml version="1.0" encoding="UTF-8" standalone="no"?>
<svg
   width="800"
   height="1000"
   version="1.1"
   id="svg1"
   sodipodi:docname="13896.svg"
   inkscape:version="1.4.3 (0d15f75, 2025-12-25)"
   xmlns:inkscape="http://www.inkscape.org/namespaces/inkscape"
   xmlns:sodipodi="http://sodipodi.sourceforge.net/DTD/sodipodi-0.dtd"
   xmlns="http://www.w3.org/2000/svg"
   xmlns:svg="http://www.w3.org/2000/svg">
  <defs
     id="defs1" />
  <sodipodi:namedview
     id="namedview1"
     pagecolor="#ffffff"
     bordercolor="#000000"
     borderopacity="0.25"
     inkscape:showpageshadow="2"
     inkscape:pageopacity="0.0"
     inkscape:pagecheckerboard="0"
     inkscape:deskcolor="#d1d1d1"
     inkscape:zoom="0.46228384"
     inkscape:cx="249.8465"
     inkscape:cy="464.00065"
     inkscape:window-width="1680"
     inkscape:window-height="998"
     inkscape:window-x="-8"
     inkscape:window-y="-8"
     inkscape:window-maximized="1"
     inkscape:current-layer="svg1"
     showguides="true">
    <sodipodi:guide
       position="110.94998,38"
       orientation="0,1"
       id="guide8"
       inkscape:locked="false"
       inkscape:label=""
       inkscape:color="rgb(0,134,229)" />
    <sodipodi:guide
       position="122.09007,43.08065"
       orientation="1,0"
       id="guide9"
       inkscape:locked="false" />
    <sodipodi:guide
       position="110.94998,43"
       orientation="0,-1"
       id="guide10"
       inkscape:locked="false" />
    <sodipodi:guide
       position="503.54705,860.08759"
       orientation="1,0"
       id="guide1"
       inkscape:locked="false" />
    <sodipodi:guide
       position="585.34449,860.08759"
       orientation="1,0"
       id="guide2"
       inkscape:locked="false" />
  </sodipodi:namedview>
  <path
     id="path1"
     style="fill:#000000;stroke:none;stroke-width:55.4841"
     d="m 498.03179,198.4676 c -0.54648,0.009 -1.07975,0.0517 -1.5984,0.12571 -4.14915,0.59274 -6.96537,2.07556 -8.44721,4.44652 -1.4818,2.37097 -3.40721,4.14881 -5.77817,5.33428 v 1.77745 c 2.96367,0.59272 5.48293,1.33414 7.55755,2.22327 2.07453,0.88911 5.0383,1.03665 8.8911,0.44388 3.8528,-0.59272 8.14993,-2.66562 12.89181,-6.22206 h 11.55825 v -3.55682 h -11.55825 c -4.44551,-2.66732 -8.39112,-4.16833 -11.8364,-4.50176 -0.57419,-0.0557 -1.13384,-0.0797 -1.68028,-0.0705 z m 5.51526,-58.55519 c -8.89106,5.9274 -15.11546,13.63273 -18.67191,23.1165 -3.5564,9.48382 -5.63122,15.70824 -6.22397,18.6719 -4.14912,8.29828 -6.22396,17.48647 -6.22396,27.56299 -11.85471,14.22567 -16.89325,22.523 -15.11505,24.89395 2.37096,2.37094 5.03964,4.14881 8.00333,5.33428 l -1.77938,2.66714 c -3.55639,1.77825 -3.55639,4.14996 0,7.11365 -2.37089,5.33463 -0.88811,8.29835 4.44651,8.8911 0,13.04018 5.33359,19.55967 16.00284,19.55967 h 19.56159 c 4.14914,11.262 8.59378,18.96921 13.33569,23.1184 h 0.8897 c -39.12063,0 -61.3326,12.14999 -73.78006,36.45219 -20.59338,27.93163 -39.70071,55.26119 -57.59407,88.67496 -42.44604,-2.98396 -72.10266,-3.58203 -122.04579,-6.08035 -22.69633,-15.53959 -34.20597,-19.10368 -61.43389,-20.47695 -2.51458,4.75849 -1.28571,11.7156 5.36191,13.61494 -7.85388,-0.20934 -12.91872,5.41176 -11.14053,20.52652 1.77819,15.11483 6.78203,23.60934 12.70943,23.60934 22.03641,0.72929 30.57951,-0.51909 50.94615,-13.26768 65.20107,10.66922 125.02668,22.47801 148.14339,18.92164 24.05247,-35.22789 48.29876,-66.89022 60.14514,-90.10307 -9.86147,33.69762 -18.24555,50.68263 8.7551,66.27146 2.84696,30.25683 3.77313,59.04516 1.70157,97.46842 -40.30609,7.70558 -101.95072,24.00706 -184.93384,48.90203 -29.04409,11.85473 -42.38184,37.04559 -40.01095,75.57345 -6.52009,52.75355 -10.96475,116.17607 -13.3357,190.26811 0.74111,18.72722 -1.64741,32.10684 -14.52791,45.52702 -19.22896,20.27058 -48.7099,26.80918 -78.82809,33.60266 -17.78208,5.92733 -26.37826,14.81861 -25.78555,26.67331 h 149.36988 c 17.18939,-1.77825 26.67446,-6.66727 28.45266,-14.66928 1.77821,-8.00189 0.44481,-16.59617 -4.0007,-25.78363 -4.44556,-9.18741 -3.70602,-30.67505 2.22135,-64.46099 v -0.88968 h 22.22871 v 110.82718 h 304.0732 V 531.11913 h 0.88964 c 0,-4.74187 2.07475,-7.11175 6.22394,-7.11175 4.74194,0 7.11368,2.36988 7.11368,7.11175 v 73.79598 h 19.55962 v -80.90773 c 0,-12.44747 -8.59425,-18.67188 -25.78366,-18.67188 -17.78198,0 -26.67331,6.22441 -26.67331,18.67188 v 7.11175 h -10.67043 c 3.55645,-39.71336 6.22516,-81.20382 8.00331,-124.47356 h 29.34043 v -57.79315 c 7.70561,-7.11281 10.96446,-16.44854 9.77895,-28.00689 -1.18551,-11.55837 -4.44426,-17.33641 -9.77895,-17.33641 0,-97.80154 -15.70763,-152.3347 -47.12258,-163.59671 z m 10.66857,15.11507 h 60.45834 c 19.56035,0 33.19312,35.56487 40.89875,106.69325 V 389.75114 H 565.78283 V 218.15489 c 0,-16.0039 -5.92737,-24.00616 -17.78218,-24.00616 -11.26199,0 -16.89253,-2.6668 -16.89253,-8.00143 0,-5.33463 -11.558,-10.07813 -34.67473,-14.22729 2.37096,-11.26199 8.29843,-16.89253 17.78223,-16.89253 z m -16.40673,29.0204 c 20.42161,0.58346 30.63211,10.47063 30.63211,29.66052 h 3.55682 c 2.96368,-9.4838 7.11329,-14.2254 12.44793,-14.2254 5.92735,0 6.96387,6.51947 3.11105,19.55968 -3.85281,13.04021 -7.55794,19.56156 -11.1144,19.56156 -2.96364,0 -4.44458,-1.77976 -4.44458,-5.33618 v -6.22205 H 528.441 v 6.22205 c 0,6.52015 2.66678,9.7808 8.0014,9.7808 5.33465,0 9.7812,-5.03855 13.33764,-15.11508 v 62.23773 c -4.74193,4.7419 -12.44726,5.63086 -23.1165,2.66715 -5.92739,-6.5201 -9.78006,-15.11438 -11.55827,-25.78364 h -25.78553 c -8.89103,1.7782 -12.74368,-1.77752 -11.55823,-10.66857 l 12.44792,-7.11363 c 0,-1.77822 -5.03856,-4.44502 -15.11507,-8.00144 l -5.33428,1.77748 2.66713,-5.33429 -3.11103,-1.77747 c -2.07474,-1.18548 -3.26061,-2.66826 -3.55681,-4.44649 -0.29636,-1.77819 3.40877,-8.00265 11.11436,-18.6719 2.96387,-3.55643 4.59229,-6.66766 4.8885,-9.33499 0.29635,-2.66731 2.96507,-5.03719 8.00333,-7.11175 5.03829,-2.07458 10.52126,-2.07458 16.44863,0 5.92735,2.07456 11.55789,3.11103 16.89253,3.11103 v -2.66714 c -6.52012,-1.77823 -13.18899,-3.85303 -20.00547,-6.22395 -6.81651,-2.37096 -13.78044,-1.48202 -20.89324,2.66714 1.77821,-3.55644 3.853,-6.52016 6.22397,-8.89111 3.33414,-0.29637 6.45953,-0.4034 9.37691,-0.32006 z m 51.97115,121.23872 v 101.35897 h 36.45407 c -1.77825,43.86251 -3.85301,76.31423 -6.22391,97.35636 -2.37113,21.04218 -2.22346,47.86333 0.44385,80.46383 2.66729,32.60051 -13.18782,48.90013 -47.56655,48.90013 H 346.1743 c -17.18938,0 -25.78363,8.89119 -25.78365,26.6733 v 174.26528 h -62.23773 c 1.18548,-42.08427 5.92706,-100.1732 14.2254,-174.26528 -2.9637,-31.41505 9.78022,-50.97534 38.23155,-58.6809 72.90664,-22.52402 135.14511,-38.23163 186.71321,-47.12266 1.5004,-43.1893 1.84354,-85.38956 -2.89595,-127.36526 -36.39632,-12.63726 -6.70517,-27.52715 -2.42239,-98.91117 0.70514,-11.75309 7.09527,-16.74483 44.43766,-19.1158 z m 44.45548,243.61475 h 11.55824 V 780.95784 H 505.3245 V 943.35163 H 339.06066 V 660.03919 c 0,-5.33462 2.37173,-8.00141 7.11364,-8.00143 h 185.82352 c 55.12453,0 75.87069,-34.37896 62.2377,-103.13641 z m -69.35135,250.72838 80.90959,0.88968 v 142.83222 h -80.90959 z m -266.73125,52.45695 h 24.00618 c -4.7419,35.56422 -5.03882,59.71855 -0.88969,72.46242 4.14916,12.74378 -2.3703,19.11578 -19.55966,19.11578 l -96.91247,0.88967 c -16.59662,0.59266 -13.63291,-2.07594 8.8911,-8.00332 39.3994,-8.79921 85.77005,-26.54129 84.46454,-84.46455 z M 470.64977,231.49061 c 0,3.55643 2.6668,5.33428 8.0014,5.33428 3.55645,-3.55644 0.88967,-5.33428 -8.0014,-5.33428 z"
     sodipodi:nodetypes="scsccssccccssscscccccccsccccccccscccccccccccccsscccccccssccssscccccscccsscccssscssccssssccssccccccccccsscsssccsccscccsssssccccccsccccccccscsccccccccsccccccc"
     inkscape:transform-center-x="-268.08034"
     inkscape:transform-center-y="-406.032" />
  <path
     style="fill:#000000;stroke:none;stroke-width:20.8415"
     d="m 273.44863,143.20165 c -13.09412,8.94241 -20.99848,19.56147 -23.71311,31.85722 -2.71476,12.29565 -7.50535,19.40161 -14.3717,21.31788 -6.86637,1.91614 -13.65297,1.91614 -20.35975,0 -6.70677,-1.91627 -11.41747,-9.02223 -14.13212,-21.31788 -2.71463,-12.29575 -10.61901,-22.91481 -23.71309,-31.85722 11.81655,-6.06803 27.78505,-9.10204 47.9054,-9.10204 20.12022,0 36.24835,3.03401 48.38437,9.10204 z M 235.12422,897.29123 V 210.26928 c 13.09412,0 22.27603,-9.02214 27.54572,-27.06651 5.26951,-18.04433 13.97232,-27.06653 26.10835,-27.06653 3.19381,-2.87433 4.79071,-6.54712 4.79071,-11.01828 0,-10.2198 -8.86252,-17.16609 -26.58755,-20.83893 -17.72503,-3.67269 -31.61763,-5.50905 -41.67781,-5.50905 -10.06004,0 -23.95255,1.83636 -41.67758,5.50905 -17.72501,3.67284 -26.58761,10.61913 -26.58761,20.83893 0,4.47116 1.43723,8.14395 4.31161,11.01828 12.45533,0 21.31785,9.0222 26.58751,27.06653 5.26955,18.04437 13.65295,27.06651 25.15022,27.06651 v 708.72804 z"
     id="path1-4"
     sodipodi:nodetypes="ccccccscccccscscsccccc"
     inkscape:transform-center-x="-103.21365"
     inkscape:transform-center-y="-438.11635" />
  <path
     style="fill:none;stroke:#613583;stroke-width:9;stroke-linecap:butt;stroke-linejoin:miter;stroke-dasharray:none;stroke-opacity:1"
     d="m 508.04703,139.98861 h 72.79742 V 4.5212364 H 564.82091 V 58.374718 h -25.12263 v 66.600752 h -31.65125 z"
     id="path1-9"
     sodipodi:nodetypes="ccccccccc"
     inkscape:transform-center-x="-422.60607"
     inkscape:transform-center-y="-885.28109" />
  <path
     d="m 302.22238,525.36193 c -0.17353,7.88472 3.75563,10.98489 12.08165,13.21585 -7.57449,4.15355 -8.63214,11.15004 -3.16764,20.98821 5.46446,9.83811 12.23459,15.84144 20.15641,14.93845 17.90966,-2.04144 30.82683,-10.16521 43.61624,-22.4854 49.3961,-21.42976 81.00718,-35.74749 127.60104,-61.94984 29.28575,-32.48609 52.92533,-55.62848 71.81801,-83.42363 l -24.54805,-43.53399 c -26.84873,35.24711 -34.87076,49.08807 -62.67781,91.37438 -39.19711,23.42697 -79.07016,45.32721 -120.07728,69.54507 -22.10758,-7.50324 -44.29665,-3.13717 -64.80257,1.3309 z"
     style="fill:#000000;stroke:none;stroke-width:59.8464"
     id="path1-1"
     sodipodi:nodetypes="ccssccccccc"
     inkscape:transform-center-x="-316.18241"
     inkscape:transform-center-y="-488.14728" />
  <rect
     style="fill:none;fill-rule:evenodd;stroke:#613583;stroke-width:14;stroke-miterlimit:5;stroke-dasharray:none"
     id="rect1"
     width="521.64502"
     height="36"
     x="113.62677"
     y="957" />
</svg>
