<?xml version="1.0" encoding="UTF-8" standalone="no"?>
<svg
   width="800"
   height="1000"
   version="1.1"
   id="svg1"
   sodipodi:docname="138C5.svg"
   inkscape:version="1.4.3 (0d15f75, 2025-12-25)"
   xmlns:inkscape="http://www.inkscape.org/namespaces/inkscape"
   xmlns:sodipodi="http://sodipodi.sourceforge.net/DTD/sodipodi-0.dtd"
   xmlns="http://www.w3.org/2000/svg"
   xmlns:svg="http://www.w3.org/2000/svg">
  <defs
     id="defs1" />
  <sodipodi:namedview
     id="namedview1"
     pagecolor="#ffffff"
     bordercolor="#666666"
     borderopacity="1.0"
     inkscape:showpageshadow="2"
     inkscape:pageopacity="0.0"
     inkscape:pagecheckerboard="0"
     inkscape:deskcolor="#d1d1d1"
     showguides="true"
     inkscape:zoom="1.5099999"
     inkscape:cx="465.89406"
     inkscape:cy="160.59603"
     inkscape:window-width="1680"
     inkscape:window-height="998"
     inkscape:window-x="-8"
     inkscape:window-y="-8"
     inkscape:window-maximized="1"
     inkscape:current-layer="svg1">
    <sodipodi:guide
       position="558.19292,538.2733"
       orientation="0,-1"
       id="guide1"
       inkscape:locked="false" />
    <sodipodi:guide
       position="386.2207,680.97463"
       orientation="0.96152749,0.27470874"
       id="guide9"
       inkscape:locked="false" />
  </sodipodi:namedview>
  <path
     id="path1-5"
     style="fill:#204a87;stroke:none;stroke-width:0.885708"
     inkscape:transform-center-x="32.177921"
     inkscape:transform-center-y="-31.097383"
     d="m 386.62891,269.75586 c -18.99222,7.40213 -24.22564,14.48654 -30.35708,22.23287 -28.19431,35.62007 -41.82177,55.5272 -69.6708,97.45799 -13.81433,-28.79938 -27.12877,-53.05082 -56.17128,-91.00877 0.15064,-8.38593 -0.53298,-17.56268 -2.05107,-27.53021 0.12946,-4.50721 -0.94372,-9.54647 -3.21967,-15.1151 -1.86403,-4.20359 -5.45178,-9.6742 -10.76153,-16.41261 -5.30975,-6.73841 -9.36172,-13.26032 -12.15781,-19.56564 -1.56045,-2.21003 -2.96938,-3.42408 -4.22619,-3.64061 -1.25684,-0.21653 -2.36167,0.56436 -3.3149,2.3413 -0.52013,-0.73677 -1.14896,-0.84413 -1.88566,-0.32393 -1.36508,0.412 -2.10059,0.93175 -2.20881,1.55995 -0.52014,-0.73679 -1.14819,-0.84595 -1.88488,-0.32572 -1.36513,0.41198 -2.21049,1.56141 -2.53531,3.4466 -0.41191,-1.36497 -1.30198,-1.8417 -2.66702,-1.43002 -1.36514,0.41197 -1.31969,2.03665 0.1325,4.87484 5.50507,9.36037 10.1305,16.30547 13.87983,20.8338 3.74931,4.52839 7.27246,12.25333 10.56753,23.17411 0.19534,2.62191 -0.0212,3.8788 -0.64966,3.77054 -0.62841,-0.10828 -1.46304,-0.90096 -2.50338,-2.37424 -1.34389,-3.46687 -2.57987,-7.56147 -3.70724,-12.28521 -1.12737,-4.72371 -2.78473,-8.2441 -4.97361,-10.56239 -2.18883,-2.31829 -4.0192,-2.95797 -5.49256,-1.91781 -1.58171,1.66909 -0.75871,4.40086 2.47045,8.19252 1.01913,5.3521 2.23783,12.35508 3.65823,21.01171 1.42041,8.6566 7.54928,19.09508 18.38531,31.31506 20.60294,39.3221 22.28075,76.75599 57.79224,118.1993 4.68328,5.46557 10.89531,4.40534 14.76379,0.9658 43.55333,-38.7241 65.03543,-63.15572 98.38037,-107.6146 l 5.73828,-39.2168 z"
     sodipodi:nodetypes="csccccscscccccccscscssccscssccc" />
  <path
     style="fill:#000000;stroke:none;stroke-width:0.885708"
     d="m 423.88281,114.28906 c -1.03622,-0.0498 -2.11258,-0.0348 -3.22851,0.0449 -10.20275,1.27536 -15.30469,8.28951 -15.30469,21.04297 -21.04324,10.20278 -32.20123,18.01338 -33.47656,23.4336 -1.27535,5.4202 -5.74047,13.07308 -13.39258,22.95703 -7.65207,9.88393 -13.07143,18.33323 -16.25977,25.34765 -7.01444,8.28975 -5.10217,14.6652 5.73828,19.12891 3.18837,3.82604 7.97092,5.42088 14.34766,4.7832 -1.91303,7.65211 10e-4,12.59432 5.74024,14.82618 5.73907,2.23186 10.83901,2.23186 15.30273,0 4.46371,-2.23186 7.334,-5.57925 8.60937,-10.04297 1.27532,-4.46372 3.82632,-6.21823 7.65235,-5.26172 3.82607,0.9565 5.73828,5.89874 5.73828,14.82617 0,8.92747 5.42126,14.34676 16.26172,16.25977 -15.94185,1.27535 -25.41731,4.29505 -34.98242,8.12109 l -0.40821,49.26953 c -1.57043,19.15338 -8.29196,33.15566 -20.86703,46.92379 6.30221,14.66867 16.29037,21.46282 36.16977,23.85941 6.37675,8.28974 9.5664,26.46385 9.5664,54.52149 0,26.78228 -2.07386,49.89664 -6.21875,69.3457 -4.14486,19.44903 -6.21679,42.56539 -6.21679,69.34766 0.63766,34.43439 5.10083,62.81033 13.39062,85.1289 8.28975,22.31857 12.1162,61.53708 11.47852,117.65235 -0.63767,56.11528 -2.23253,97.56338 -4.78321,124.3457 0,27.41995 -28.05659,49.42047 -84.17187,66 h -17.2168 c 0,14.02874 4.14382,21.04297 12.4336,21.04297 7.01439,0 13.07244,0.6369 18.17382,1.91211 5.10141,1.27555 17.85618,0.63869 38.26172,-1.91211 9.56513,3.18856 23.7531,3.18856 42.56446,0 18.81138,-3.18864 34.43454,-3.03065 46.86914,0.47656 12.43465,3.5072 20.2452,2.0721 23.43359,-4.30469 3.18834,-6.37672 4.1445,-18.17343 2.86914,-35.39062 V 912.0625 h 3.82617 c 3.18839,-60.579 2.86902,-105.37453 -0.95703,-134.38867 -3.82601,-29.01413 -4.46279,-89.43476 -1.91211,-181.25977 10.84045,-28.6953 16.25977,-52.28876 16.25977,-70.78125 0,-17.85489 -3.02802,-33.63769 -9.08594,-47.34765 -6.05791,-13.71 -8.60885,-30.44891 -7.65234,-50.2168 0.95653,-19.76786 11.63744,-50.69477 32.04297,-92.78125 0,45.27485 3.18966,84.49137 9.5664,117.65039 -4.46371,15.94183 -5.26211,34.59493 -2.39258,55.95703 2.86954,21.36206 3.31865,44.56201 1.40562,69.43126 l 16.31963,5.56914 c 12.75347,-52.28923 16.23062,-92.05895 10.49155,-119.47891 4.46371,-36.98507 5.10241,-73.65067 1.91406,-109.99805 -3.82603,-56.11527 -18.81239,-84.81058 -44.95703,-86.08594 V 218.5918 c -14.02882,-68.86873 -43.04156,-100.11304 -87.04101,-93.73633 -3.34778,-6.69556 -8.64879,-10.21768 -15.90235,-10.56641 z m -1.89843,13.37891 c 0.1893,-0.002 0.38276,0.0168 0.58203,0.0566 7.01442,0 10.0444,3.18769 9.08789,9.56445 -0.95653,6.37671 -5.89876,7.97156 -14.82618,4.78321 0.59782,-9.56511 2.31664,-14.36694 5.15626,-14.4043 z m 38.84374,10.57812 c 31.24599,14.66647 48.78139,45.91275 52.60743,93.73829 v 33.47656 c -4.46371,-1.27533 -14.98496,-1.91211 -31.56446,-1.91211 -8.92744,0 -13.39062,5.73868 -13.39062,17.21679 v 82.25977 h -30.60938 v -83.2168 c 1.91304,-29.33298 5.57978,-51.8106 11,-67.43359 5.42024,-15.62302 9.40636,-40.33223 11.95703,-74.12891 z m -48.7832,7.65235 c 3.82604,7.01442 8.29119,10.84082 13.39258,11.47851 7.65206,1.27535 14.02753,-1.59495 19.12891,-8.60937 -1.27532,21.68089 -5.10177,42.72333 -11.47852,63.1289 -5.10139,15.30417 -9.88394,27.10088 -14.34766,35.39063 -2.55071,-3.18835 -3.6665,-7.81125 -3.34765,-13.86914 0.31884,-6.05792 -3.82503,-10.5211 -12.4336,-13.39063 -8.6086,-2.86954 -14.66661,-0.47827 -18.17382,7.17383 -3.50721,7.65207 -7.33366,10.52238 -11.47852,8.60938 -4.14489,-1.91304 -4.30455,-5.42011 -0.47852,-10.52149 5.73907,-4.46372 8.92874,-8.60951 9.56641,-12.43554 -1.27535,-3.18836 -2.55085,-3.50772 -3.82617,-0.95704 -1.27536,2.55067 -4.78241,6.05774 -10.52148,10.52149 -6.37676,1.27532 -10.8419,-1.3e-4 -13.39258,-3.82617 -4.46372,-1.91303 -4.46372,-6.05689 0,-12.4336 15.94186,-19.76789 24.39115,-32.20329 25.34765,-37.30468 0.9565,-5.10139 11.6374,-12.7523 32.04297,-22.95508 z m 74.60938,127.21484 c 16.57953,0 29.013,1.91421 37.30273,5.74024 -5.10139,15.30417 -10.5207,27.26054 -16.25976,35.86914 -5.73904,8.6086 -14.66739,12.59276 -26.78321,11.95507 0,-35.70973 1.91421,-53.56445 5.74024,-53.56445 z m -67.91407,0.95703 c 1.27533,8.28974 3.82628,12.75295 7.65235,13.39063 v 39.21679 c -8.28974,0 -19.76711,-15.62314 -34.4336,-46.86914 z m 107.13086,31.56446 -0.95703,24.86914 -4.59179,-9.14649 z M 403.4375,320.93945 c 7.01443,9.56507 14.66534,14.66698 22.95508,15.30469 v 38.25977 h 54.52148 v -37.30469 c 12.75348,-0.63764 20.08696,-2.86923 22,-6.69531 l -23.91211,56.43359 h -48.7832 z m 115.25391,5.03711 v 11.47852 l -18.64649,49.48242 h -2.86914 z m -124.82032,16.96289 9.56641,36.34766 c -13.39114,1.27536 -22.00012,-3.1898 -25.82617,-13.39258 z m 29.65235,56.4336 h 66 c -3.82602,8.92746 -5.74024,21.04352 -5.74024,36.34765 0.63767,18.49254 3.82738,33.63663 9.56641,45.4336 5.73908,11.79695 8.60742,26.30427 8.60742,43.52148 -0.63768,19.13017 -3.82539,36.34816 -9.56445,51.65234 -5.73904,15.30417 -8.76904,51.01364 -9.08789,107.12891 -0.31883,56.11527 1.43569,98.20214 5.26172,126.25977 3.82604,28.05763 3.50667,56.11423 -0.95703,84.17187 h -50.69532 c 3.18838,-29.333 4.78321,-70.46175 4.78321,-123.38867 0,-42.08643 -3.82642,-74.60817 -11.47852,-97.56445 -7.65207,-22.95624 -11.9556,-47.98484 -12.91211,-75.08594 -0.95653,-27.10113 0.95571,-55.00001 5.73828,-83.69531 4.78254,-28.69531 7.17383,-49.73776 7.17383,-63.12891 0,-16.57952 -2.23159,-33.79747 -6.69531,-51.65234 z m 3.82617,512.68945 h 18.17383 v 38.25977 c -11.47814,10.20274 -33.15931,18.81175 -65.04297,25.82617 h -17.2168 c 0.63768,7.01439 2.23253,11.47763 4.78321,13.39062 -8.28975,1.27523 -14.98649,1.27523 -20.0879,0 -5.10138,-1.27522 -10.20327,-1.91211 -15.30468,-1.91211 -4.46371,0 -6.69532,-1.27539 -6.69532,-3.82617 h 8.60938 l 36.34766,-13.39062 c 37.62274,-12.11585 56.43359,-31.56541 56.43359,-58.34766 z m 25.82617,0 h 7.65234 v 22 c 0,7.01439 -2.55093,11.47762 -7.65234,13.39062 z m 16.25977,0 h 24.86914 v 46.86914 c 1.91303,18.49259 0.32016,28.53675 -4.78125,30.13086 -5.10138,1.59422 -15.94199,-0.16033 -32.52149,-5.26172 -10.84046,1.27522 -22.79683,2.8702 -35.86914,4.7832 -13.07231,1.913 -22.00066,2.23031 -26.7832,0.95508 -4.78258,-1.27522 -10.04221,-1.91211 -15.78125,-1.91211 -4.46371,0 -6.69531,-1.27539 -6.69531,-3.82617 h 8.60742 l 44.95703,-13.39062 c 7.01439,-3.18842 13.70919,-6.69545 20.08594,-10.52149 15.94185,-6.37671 23.91211,-14.6664 23.91211,-24.86914 z"
     id="path9"
     sodipodi:nodetypes="sccsscccssssscccccsscsscccsccssscccscsssccscccccccsscscsscccsscccsccccccssssccscccscscscsccccccccccccccccccccccccccccccscsssccssssscccccccssccccccscccccscsssccccsc" />
  <path
     style="fill:#000000;stroke:none;stroke-width:0.885708"
     d="m 402.48047,161.20117 c -3.82603,0 -7.65248,1.11775 -11.47852,3.34961 -3.82603,2.23185 -6.05763,5.57925 -6.69531,10.04297 0,3.18839 1.27549,5.10061 3.82617,5.73828 9.5651,0 17.53536,-4.78255 23.91211,-14.34765 -3.18839,-2.55072 -6.37609,-4.14553 -9.56445,-4.78321 z m 0,5.74024 c -1.91303,3.82606 -5.73949,6.37702 -11.47852,7.65234 1.913,-3.82603 5.73945,-6.37699 11.47852,-7.65234 z"
     id="path1"
     sodipodi:nodetypes="csccccccc" />
  <path
     d="m 559.37759,583.89493 c 1.99936,8.26935 3.37108,17.50179 4.11513,27.69738 0.67756,3.81918 0.73074,8.92031 0.15961,15.30334 -0.59108,4.47013 -2.75962,10.55098 -6.50563,18.24257 -3.74602,7.69152 -6.2234,14.73214 -7.43214,21.12184 -1.24872,2.56394 -2.50737,4.17125 -3.77599,4.82197 -1.26863,0.65108 -2.55055,0.0268 -3.84575,-1.87279 0.0133,1.27513 -0.61768,1.91937 -1.89303,1.93266 -1.2819,-0.62445 -1.92619,-1.25536 -1.93282,-1.89278 -0.63104,0.64438 -1.58414,0.97327 -2.85943,0.98655 -0.63762,0.007 -1.2852,-0.94315 -1.94281,-2.8494 0.0133,1.27517 -0.61759,1.91942 -1.89297,1.93268 -1.91293,0.02 -2.5672,-1.5674 -1.96283,-4.7621 3.71942,-10.24214 6.82781,-17.92707 9.32516,-23.05478 2.49733,-5.12773 4.32047,-13.75581 5.46939,-25.88422 -0.65759,-1.90625 -1.30521,-2.85604 -1.94289,-2.84939 -0.63758,0.007 -0.94637,0.96644 -0.92643,2.87933 -1.24205,3.20137 -1.8365,7.35265 -1.78328,12.4539 -0.59106,4.47012 -1.5076,8.30592 -2.74964,11.5074 -1.24204,3.20135 -2.82614,4.17443 -4.75233,2.91923 -1.92625,-1.25519 -1.95616,-4.12457 -0.0898,-8.60813 -0.0532,-5.10113 -0.28413,-11.95407 -0.69278,-20.55885 -0.40856,-8.60486 3.45532,-20.28338 11.59163,-35.03555 z"
     style="fill:#000000;stroke:none;stroke-width:0.885708"
     id="path1-1"
     sodipodi:nodetypes="cccscccccscscscsccsscscc"
     inkscape:transform-center-x="4.500032"
     inkscape:transform-center-y="43.718197" />
  <path
     style="fill:#1a1a1a;stroke:none;stroke-width:10.4957"
     d="m 441.02252,65.303352 c 0.92048,-7.591436 4.83098,-11.847235 11.73223,-12.767407 6.90126,1.380263 10.81207,5.636061 11.73224,12.767407 -0.92048,7.131357 -4.83098,11.042087 -11.73224,11.732213 -7.36138,-1.380241 -11.2721,-5.290982 -11.73223,-11.732213 z m -35.8868,44.168318 c -0.92047,5.291 -4.25581,10.58201 -10.00684,15.87299 -10.35194,4.83092 -18.74853,1.38027 -25.18975,-10.35195 -2.53052,-8.97169 -6.3262,-17.943375 -11.38714,-26.915045 -5.291,-11.962271 -5.17597,-19.898766 0.34531,-23.809507 -4.37073,-1.840353 -7.13133,-4.025763 -8.28155,-6.556242 -0.69061,-3.680686 0.92047,-6.326188 4.83097,-7.936505 3.68065,-1.610298 9.43178,-1.26523 17.2532,1.035193 9.43178,4.370832 12.76743,15.067851 10.00695,32.091067 0.22986,8.971712 0.34531,15.470446 0.34531,19.496199 0,4.02575 1.84043,6.38368 5.52107,7.07379 3.68075,0.69009 6.44123,-2.99055 8.28155,-11.042085 -6.44112,-8.281544 -9.66174,-19.323623 -9.66174,-33.126234 0,-16.333079 6.03862,-31.170884 18.11584,-44.513405 12.0767,-13.3425095 27.8922,-20.01376456 47.44585,-20.01376456 17.71334,0 33.06869,6.72877136 46.06619,20.18631456 12.99749,13.457543 19.49624,28.237832 19.49624,44.340866 0,7.361392 -1.38029,14.722788 -4.14077,22.08417 -0.92048,12.882428 4.37084,22.544248 15.873,28.985458 14.95275,10.1219 27.95014,16.33308 38.99227,18.63353 11.50217,5.52106 16.56311,11.15713 15.18281,16.90819 -45.54853,-12.42233 -74.41893,-25.53482 -86.61129,-39.33744 -10.58202,9.4318 -25.53475,14.60777 -44.85845,15.52794 -19.09363,0.92016 -34.96663,-5.291 -47.61903,-18.63353 z m 1.03488,-44.168318 c 0,10.812052 4.37084,21.164014 13.11253,31.055893 8.74169,9.891835 19.78372,14.837755 33.12631,14.837755 14.49272,0 25.93737,-4.71589 34.33396,-14.147644 8.39658,-9.43178 12.59487,-19.783746 12.59487,-31.055878 0,-12.422338 -4.88849,-23.176874 -14.66526,-32.263595 -9.77688,-9.086712 -20.4164,-13.630062 -31.91858,-13.630062 -13.57255,0 -24.72961,4.71589 -33.4713,14.147668 -8.74169,9.431791 -13.11253,19.783741 -13.11253,31.055863 z m -9.66174,51.069628 c -46.04467,-115.59680856 -46.04467,-115.59680856 0,0 z"
     id="path1-9"
     sodipodi:nodetypes="ccccccccccccccsccscssscccccccssssssssscc" />
</svg>
