<?xml version="1.0" encoding="UTF-8" standalone="no"?>
<svg
   width="9.014784"
   height="17.972734"
   version="1.1"
   id="svg1"
   sodipodi:docname="138C3.svg"
   inkscape:version="1.4.3 (0d15f75, 2025-12-25)"
   xmlns:inkscape="http://www.inkscape.org/namespaces/inkscape"
   xmlns:sodipodi="http://sodipodi.sourceforge.net/DTD/sodipodi-0.dtd"
   xmlns="http://www.w3.org/2000/svg"
   xmlns:svg="http://www.w3.org/2000/svg">
  <defs
     id="defs1" />
  <sodipodi:namedview
     id="namedview1"
     pagecolor="#ffffff"
     bordercolor="#666666"
     borderopacity="1.0"
     inkscape:showpageshadow="2"
     inkscape:pageopacity="0.0"
     inkscape:pagecheckerboard="0"
     inkscape:deskcolor="#d1d1d1"
     inkscape:zoom="45.254834"
     inkscape:cx="9.3581163"
     inkscape:cy="4.9386989"
     inkscape:window-width="1680"
     inkscape:window-height="998"
     inkscape:window-x="-8"
     inkscape:window-y="-8"
     inkscape:window-maximized="1"
     inkscape:current-layer="svg1" />
  <path
     style="fill:#000000;stroke:none"
     d="m 7.9199219,2.5917969 -0.019531,0.019531 0.017578,0.00977 c 3.947e-4,-0.00987 0.0016,-0.019537 0.00195,-0.029297 z"
     id="path6" />
  <path
     style="fill:#000000;stroke:none"
     d="M 5.6171875,0 C 5.2249255,0 4.959047,0.14245305 4.8164062,0.42773438 c 0.011887,0.059434 0.059372,0.11074041 0.1425782,0.15234374 0.083207,0.0416033 0.1781755,0.0625 0.2851562,0.0625 0.095094,0 0.1425782,0.0474841 0.1425782,0.14257813 C 5.1489841,1.022891 5.0179139,1.5072472 4.9941406,2.2382812 c -0.023774,0.731034 0.018019,1.143188 0.125,1.2382813 0.1069807,0.095094 0.190566,0.1539611 0.25,0.1777344 -0.071321,0.047547 -0.1074218,0.172926 -0.1074218,0.375 C 4.596062,4.3502389 4.2484667,4.597174 4.21875,4.7695312 4.1890327,4.9418892 4.052271,5.1831328 3.8085938,5.4921875 3.5649158,5.8012422 3.3958753,6.0557378 3.3007812,6.2578125 3.08682,6.5312072 3.1456869,6.7344804 3.4785156,6.8652344 3.5736096,6.9841017 3.7217541,7.0315858 3.9238281,7.0078125 3.8525081,7.2455472 3.909506,7.4032054 4.09375,7.4804688 c 0.1842447,0.077264 0.3437721,0.077264 0.4804688,0 0.1366979,-0.077263 0.2241056,-0.1855677 0.2597656,-0.3222657 0.03566,-0.1366973 0.1154236,-0.1860513 0.2402344,-0.1503906 0.1248106,0.03566 0.1836776,0.1420118 0.1777343,0.3203125 -0.00594,0.1783013 0.081465,0.3454727 0.2597657,0.5 C 5.4998321,7.8400117 5.3858357,7.9843332 5.171875,8.2636719 4.9579137,8.5430092 4.7622851,8.8735302 4.5839844,9.2539062 4.4056831,9.6342815 4.430402,10.014156 4.65625,10.394531 4.739457,11.595091 4.560903,12.700565 4.1210938,13.710938 L 1.7675781,10.287109 C 1.3634294,9.8591874 0.92842642,9.758527 0.46484375,9.984375 0.00126108,10.210223 -0.116473,10.614817 0.109375,11.197266 c 1.1648993,3.459039 1.7290194,5.312879 1.6933594,5.5625 -0.03566,0.261508 -0.210392,0.485677 -0.5253906,0.669922 -0.31499805,0.184242 -0.39671488,0.364667 -0.2421876,0.542968 h 7.0800782 c 0.237734,-0.118867 0.237734,-0.286039 0,-0.5 -0.618111,-0.748863 -0.817561,-1.470641 -0.5976563,-2.166015 0.2199047,-0.695374 0.411711,-2.254795 0.578125,-4.679688 H 8.9335938 C 9.0049145,9.1292251 9.0296324,7.7977118 9.0058594,6.6328125 8.7324647,4.6952758 7.95938,3.7151802 6.6875,3.6914062 L 6.1894531,3.5839844 c -0.3684887,0 -0.619246,-0.062689 -0.75,-0.1875 C 5.3086991,3.2716737 5.2441406,2.9658716 5.2441406,2.4785156 c 0,-0.487356 0.062689,-0.8919493 0.1875,-1.2128906 C 5.5564513,0.944683 5.7198003,0.78515625 5.921875,0.78515625 6.1952697,0.76138292 6.3320312,0.85635117 6.3320312,1.0703125 6.2963705,1.3080465 6.1614782,1.6347452 5.9296875,2.0507812 5.6978962,2.4668166 5.5820312,2.7992068 5.5820312,3.0488281 c 0,0.1119312 0.1015242,0.3061994 0.3017957,0.4315943 C 6.1089191,3.6213581 6.4474412,3.6876299 6.6875,3.6914062 6.1493549,3.4165397 5.8539865,3.2378064 5.8539865,2.965078 c 0,-0.1500525 0.055051,-0.3754237 0.2358573,-0.6818749 C 6.4405024,1.6888668 6.6171875,1.3013476 6.6171875,1.1230469 6.6647348,0.93285888 6.6172501,0.74861317 6.4746094,0.5703125 6.4151754,0.41578517 6.3258985,0.28471504 6.2070312,0.17773438 6.0881639,0.0707537 5.8905822,0.01188667 5.6171875,0 Z m -0.089844,0.19335938 c 0.075778,-0.001486 0.1560085,0.008495 0.2421874,0.0292969 0.1723573,0.041604 0.3186328,0.15177745 0.4375,0.33007813 H 5.5644531 c -0.2139613,-1e-8 -0.3621055,-0.0417927 -0.4453125,-0.125 0,-0.0832067 0.064558,-0.14776518 0.1953125,-0.1953125 0.065377,-0.0237733 0.1371128,-0.0375767 0.2128904,-0.0390625 z M 5.7832031,3.7949219 c 0.010204,-6.965e-4 0.020106,-2.756e-4 0.03125,0.00195 0.202074,0 0.2913509,0.1026128 0.2675781,0.3046875 -0.023774,0.202074 -0.1795624,0.2438673 -0.4648437,0.125 0.010772,-0.2800808 0.067381,-0.4249078 0.1660156,-0.4316406 z M 6.9375,4.171875 c 1.010372,0.332828 1.5631091,1.2901584 1.6582031,2.8710938 0.011886,1.0341453 0.00619,2.1035183 -0.017578,3.2089842 H 8.1152344 c 0,-1.6641419 -0.2507567,-2.4960936 -0.75,-2.4960936 -0.4873553,0 -0.7190852,0.3457262 -0.6953125,1.0351562 V 10.216797 H 6.3671875 C 6.2958675,8.3386942 6.3490431,7.1192236 6.5273438,6.5605469 6.7056444,6.0018709 6.842406,5.2060203 6.9375,4.171875 Z M 5.4746094,4.3691406 c 0.1188673,0.225848 0.2499368,0.3378906 0.3925781,0.3378906 0.2496207,0.059433 0.4528939,-0.024152 0.6074219,-0.25 C 6.4508354,5.1345753 6.3311488,5.787972 6.1171875,6.4179688 5.9626602,6.8934381 5.8202071,7.2562387 5.6894531,7.5058594 5.6062464,7.4107661 5.5682754,7.268313 5.5742188,7.078125 5.580162,6.8879377 5.4509611,6.749307 5.1894531,6.6601562 4.9279451,6.5710056 4.7418303,6.6450778 4.6289062,6.8828125 4.5159823,7.1205472 4.3944259,7.2116938 4.2636719,7.1582031 4.1329179,7.1047131 4.1272265,6.994539 4.2460938,6.828125 4.4243944,6.697371 4.5307462,6.5739454 4.5664062,6.4550781 4.5188595,6.3599841 4.4713748,6.346648 4.4238281,6.4179688 4.3762808,6.4892888 4.2699296,6.6032845 4.1035156,6.7578125 3.9014416,6.7815858 3.7646804,6.7341017 3.6933594,6.6152344 c -0.1426407,-0.059434 -0.1426407,-0.1848127 0,-0.375 C 4.1926021,5.6340111 4.4527892,5.2484452 4.4765625,5.0820312 4.5003358,4.9156165 4.8327261,4.6781953 5.4746094,4.3691406 Z M 5.921875,8.0234375 V 10.644531 H 7.0449219 V 8.7539062 C 7.0568086,8.3854175 7.157469,8.2011719 7.3476562,8.2011719 c 0.190188,0 0.2794655,0.1975817 0.2675782,0.5898437 0.083207,1.20056 0.045236,2.4541784 -0.1152344,3.7617184 -0.1604707,1.307541 -0.3371557,2.318047 -0.5273438,3.03125 -0.1901872,0.713203 -0.059117,1.294398 0.3925782,1.746094 H 2.0878906 c 0.130754,-0.130754 0.2162095,-0.347279 0.2578125,-0.65039 0.041603,-0.303112 -0.091336,-0.82357 -0.4003906,-1.560547 L 0.58984375,11.072266 c 0.0118867,-0.641883 0.29110129,-0.767262 0.83789065,-0.375 l 1.8183594,2.710937 0.6777343,0.855469 c 0.356602,0.237735 0.5883318,0.112356 0.6953125,-0.375 0.427922,-0.986599 0.595094,-2.179397 0.5,-3.582031 C 4.7744259,9.8549446 5.042257,9.0932428 5.921875,8.0234375 Z"
     id="path4"
     sodipodi:nodetypes="ccsscssccsscccssssccsscccsccscccscccccsssccssscssccscsscscssccscccccccscccsccccccssssccscccscccccscssccscccccccc" />
  <path
     style="fill:#000000;stroke:none"
     d="m 5.1542969,4.8496094 c -0.1069807,0 -0.2228456,0.032279 -0.3476563,0.097656 -0.124811,0.065377 -0.1875,0.1698593 -0.1875,0.3125 -0.011887,0.095093 0.029907,0.1539604 0.125,0.1777344 0.285282,0 0.5283948,-0.1424524 0.7304688,-0.4277344 C 5.3676294,4.9146723 5.2612776,4.8614967 5.1542969,4.8496094 Z M 5.171875,5.0273438 C 5.1005543,5.146211 4.9885117,5.2241056 4.8339844,5.2597656 4.8815311,5.1408983 4.9935737,5.0630038 5.171875,5.0273438 Z"
     id="path3" />
  <path
     style="fill:#000000;stroke:none"
     d="m 5.4394531,0.2265625 c -0.032689,0 -0.064968,0.004757 -0.097656,0.0136719 -0.065377,0.01783 -0.1033477,0.0482397 -0.1152344,0.0898437 -0.011887,0.0416033 0.020392,0.0720138 0.097656,0.0898438 0.077263,0.01783 0.1513355,0.0196992 0.2226562,0.007813 C 5.618195,0.41584767 5.6542969,0.3797458 5.6542969,0.3203125 5.6424102,0.28465183 5.6024861,0.25806437 5.5371094,0.24023438 5.5044209,0.23131937 5.4721418,0.2265625 5.4394531,0.2265625 Z"
     id="path1" />
</svg>
