<?xml version="1.0" encoding="UTF-8" standalone="no"?>
<svg
   width="800"
   height="1000"
   id="svg2237"
   sodipodi:version="0.32"
   inkscape:version="1.4.3 (0d15f75, 2025-12-25)"
   sodipodi:docname="138EF.svg"
   inkscape:output_extension="org.inkscape.output.svg.inkscape"
   sodipodi:modified="true"
   version="1.1"
   xmlns:inkscape="http://www.inkscape.org/namespaces/inkscape"
   xmlns:sodipodi="http://sodipodi.sourceforge.net/DTD/sodipodi-0.dtd"
   xmlns="http://www.w3.org/2000/svg"
   xmlns:svg="http://www.w3.org/2000/svg"
   xmlns:rdf="http://www.w3.org/1999/02/22-rdf-syntax-ns#"
   xmlns:cc="http://creativecommons.org/ns#"
   xmlns:dc="http://purl.org/dc/elements/1.1/">
  <metadata
     id="metadata2244">
    <rdf:RDF>
      <cc:Work
         rdf:about="">
        <dc:format>image/svg+xml</dc:format>
        <dc:type
           rdf:resource="http://purl.org/dc/dcmitype/StillImage" />
      </cc:Work>
    </rdf:RDF>
  </metadata>
  <defs
     id="defs2242" />
  <sodipodi:namedview
     inkscape:window-height="998"
     inkscape:window-width="1680"
     inkscape:pageshadow="2"
     inkscape:pageopacity="0.0"
     guidetolerance="10.0"
     gridtolerance="10.0"
     objecttolerance="10.0"
     borderopacity="1.0"
     bordercolor="#666666"
     pagecolor="#ffffff"
     id="base"
     inkscape:showpageshadow="2"
     inkscape:pagecheckerboard="0"
     inkscape:deskcolor="#d1d1d1"
     inkscape:zoom="1.0677312"
     inkscape:cx="355.42653"
     inkscape:cy="465.00468"
     inkscape:window-x="-8"
     inkscape:window-y="-8"
     inkscape:window-maximized="1"
     inkscape:current-layer="svg2237"
     showguides="true">
    <sodipodi:guide
       position="800,1000"
       orientation="0,-1"
       id="guide1"
       inkscape:locked="false" />
    <sodipodi:guide
       position="800,0"
       orientation="0,-1"
       id="guide2"
       inkscape:locked="false" />
    <sodipodi:guide
       position="276.21765,562.99582"
       orientation="0,-1"
       id="guide3"
       inkscape:locked="false" />
  </sodipodi:namedview>
  <path
     style="fill:#000000;stroke:#ff00ff;stroke-width:0;stroke-dasharray:none"
     d="m 127.81879,169.69997 h 20.19028 c 1.79467,0.44847 2.692,1.23302 2.692,2.35364 0,1.12075 -0.44882,1.12075 -1.34647,0 h -8.41251 v 0.67272 c 14.1331,3.13819 21.19965,7.95753 21.19965,14.45804 -6.28136,28.01929 -2.24328,41.91682 12.11423,41.69259 10.09513,-4.25893 14.69397,-3.13814 13.79652,3.36237 l 24.90138,70.27235 c 10.54375,23.08787 17.66643,37.82597 21.36805,44.21431 3.70151,6.38846 4.76707,12.38459 3.1967,17.98838 -1.57037,5.6039 -0.56083,8.29379 3.02864,8.06967 v 54.46937 c -18.39559,1.79322 -17.83477,2.80195 1.68246,3.02618 19.51725,0.22369 20.30243,-0.78503 2.35556,-3.02618 v -53.4608 l 19.18073,5.04346 v -30.93325 l 32.97724,15.46664 45.09169,8.74203 -12.45068,-42.02893 H 329.72 c 5.38404,-1.56899 8.07606,-2.68973 8.07606,-3.36221 -6.50565,-22.4155 -18.50761,-44.83094 -36.00588,-67.24633 -5.38402,-8.74199 -17.04947,-21.7429 -34.99634,-39.00274 -33.42604,-29.81252 -54.06493,-45.50333 -61.91666,-47.07243 -1.79467,2.24159 -4.48674,9.80681 -8.0762,22.69568 -3.58935,12.88885 -8.86122,19.16512 -15.81562,18.82882 -6.9544,-0.33662 -10.4316,-3.13852 -10.4316,-8.40569 0,-5.2676 1.90683,-14.57001 5.72049,-27.90723 3.81377,-13.33721 -1.79462,-20.67825 -16.82517,-22.02311 -6.28137,2.24148 -9.75857,4.81925 -10.4316,7.73332 -10.09513,0 -17.16173,1.23285 -21.19981,3.69856 z m 26.24738,-7.06078 c 3.14074,-2.68993 5.88884,-3.02601 8.2443,-1.00823 2.35555,2.01735 2.63593,2.46581 0.84115,1.3454 1.12164,4.48307 -0.33653,6.7246 -4.3745,6.7246 -3.36503,-0.22371 -4.93539,-2.5773 -4.71109,-7.06079 z m -8.41265,-5.71601 c 4.03807,-7.62124 12.78719,-10.3671 26.24738,-8.23759 13.46017,2.12941 18.45166,10.8714 14.97446,26.22597 -3.47719,15.35455 -5.21579,24.15262 -5.21579,26.3942 0,2.24147 1.00949,2.18555 3.02847,-0.16776 2.01898,-2.35365 4.65492,-10.03093 7.90782,-23.03185 3.25289,-13.00103 10.15121,-18.04451 20.69495,-15.13044 10.54386,2.91396 38.58587,27.12262 84.12602,72.62599 16.82522,21.29455 28.82718,39.67519 36.00588,55.14192 6.28141,11.88017 12.56285,25.88977 18.84432,42.02878 h -0.33585 l -9.08562,2.68999 12.78716,47.07224 -4.7111,1.00824 c 7.62741,21.74301 11.44111,35.97684 11.44111,42.70148 0,4.93142 -1.23385,7.39713 -3.70154,7.39713 -21.31191,2.91395 -36.23024,0.33618 -44.755,-7.73331 -7.62743,-6.50052 -14.02101,-19.38943 -19.18074,-38.66674 -2.4677,-9.86272 -4.26237,-14.79408 -5.38402,-14.79408 -4.48669,-5.37977 -9.98293,-8.63003 -16.4887,-9.75076 v 36.64926 c -7.62743,-7.173 -14.24536,-11.43198 -19.8538,-12.77695 v 33.62325 c 7.62742,4.93131 14.3575,6.6685 20.19025,5.21157 5.83276,-1.45703 13.12368,-0.84063 21.87275,1.8492 6.9544,1.12073 10.65595,4.70723 11.10466,10.75949 -4.48679,-3.58655 -8.759,-4.87433 -12.11421,0 -5.18911,-4.37745 -9.12969,-3.47383 -11.8217,-1.00823 l -156.09371,0 -3.02848,-4.70746 c -4.48669,-1.34486 -7.96388,0.56048 -10.43159,5.71602 -2.4677,-6.05226 -1.00954,-10.75949 4.37448,-14.1217 5.38403,-2.01746 10.4316,-3.41846 15.14272,-4.20301 4.71099,-0.78401 9.70248,0.1126 14.97447,2.68983 5.27187,2.57777 11.385,2.85793 18.33939,0.84047 6.9544,-2.01735 10.88027,-5.71585 11.77761,-11.09552 10.31945,-26.67442 15.47917,-46.84828 15.47917,-60.52159 l 5.38402,-55.47824 -18.50764,-58.16811 c -11.88981,4.25893 -20.41457,1.90534 -25.5743,-7.06079 -5.15971,-8.96621 -6.50572,-23.3121 -4.03802,-43.03765 -0.67271,-4.93141 -4.26211,-7.84541 -10.76821,-8.74202 h -12.11408 l -7.40311,5.716 c -1.57037,-10.08696 -1.57037,-16.58742 0,-19.50138 4.48669,-5.37977 13.12361,-8.18172 25.91076,-8.40585 z m 59.56125,155.0026 c -2.91632,43.93427 -5.49618,65.90141 -7.73957,65.90141 -3.81377,20.39803 -8.86134,34.85599 -15.14271,43.37386 -4.93541,6.27627 -4.2063,8.91007 2.18733,7.90139 6.39351,-1.00878 8.69293,-5.09961 6.89826,-12.2725 l 16.15224,-51.44335 h 0.33582 l 12.45069,12.77679 c 4.48669,-6.72465 6.61788,-12.66474 6.39357,-17.82027 z m 99.60518,67.24632 c 2.91632,21.74291 9.30991,35.19213 19.18076,40.34767 9.19768,5.37967 17.94675,6.61252 26.2472,3.69856 0.89764,-6.27628 -3.25259,-19.38932 -12.45068,-39.33911 z m -74.70396,-1.34541 c -3.36505,6.94878 -6.84225,12.88887 -10.4316,17.82028 l -7.40313,-16.81171 h -0.67322 l -11.77762,39.00292 c 3.58935,4.93141 8.63693,6.55654 15.14272,4.87538 6.50566,-1.68116 12.56271,-2.18555 18.17116,-1.51317 v -42.36513 z"
     id="path1"
     sodipodi:nodetypes="ccsccccccccscccccccccccccccccscccccccccccccsscsccccccccsccccccccscccccccccccccccscccccccccccccccccccccccccccsccc" />
  <path
     d="m 265.19921,457.56578 c -7.63203,1.90805 -16.53607,4.13407 -26.7121,6.67804 -3.816,1.27203 -8.90403,1.59002 -15.26409,0.95399 -5.088,0 -11.60702,-1.11295 -19.55706,-3.33885 -7.95005,-2.22593 -15.10507,-4.61093 -21.46508,-7.15498 -3.81602,-1.27206 -6.04204,-2.70308 -6.67807,-4.29307 -0.636,-1.5899 2e-5,-3.0209 1.90807,-4.29301 -1.27205,-1.90807 -0.63603,-3.81606 1.90805,-5.72398 -0.63603,-1.90805 0.318,-2.86208 2.86208,-2.86208 0,-1.90805 1.59,-2.54406 4.77001,-1.90804 6.36003,3.81601 12.40204,6.36001 18.12605,7.632 5.72405,1.27206 14.6281,1.59008 26.71213,0.95405 1.90805,-0.63603 2.86208,-1.27205 2.86208,-1.90804 l -1.90805,-0.95405 c -3.81602,0 -8.26805,0.31802 -13.35608,0.95405 -5.08806,0 -9.22207,-0.47695 -12.40204,-1.43085 -3.18003,-0.95415 -4.13404,-2.70315 -2.86205,-5.24699 2.54406,-1.27206 5.40608,-1.59008 8.58605,-0.95405 5.72399,0 12.72001,-0.63601 20.98805,-1.90803 8.26803,-1.27203 20.03406,0.95397 35.29809,6.678"
     style="fill:#000000;stroke:none;stroke-width:41.6423"
     id="path1-6" />
  <path
     style="fill:#000000;stroke:none;stroke-width:55.638"
     d="m 473.00977,0.01757813 c -0.78423,-0.02879901 -1.55685,-0.023732 -2.3125,0.01562499 -2.90027,0.1510541 -26.31849,2.27598448 -29.40039,31.55468788 -1.85997,17.669541 7.35775,51.802993 42.26367,75.800779 14.70074,10.10675 30.93384,21.59191 48.69726,34.45508 0.6125,1.83761 -1.22599,2.75586 -5.51367,2.75586 h -90.04297 c 7.35037,15.31324 11.63821,34.60856 12.86328,57.88477 -1.83757,6.73786 -2.14301,13.16962 -0.91797,19.29492 -6.73783,11.63809 -10.10742,19.90638 -10.10742,24.80664 0,1.83757 3.06417,3.06325 9.18946,3.67578 -0.48351,2.99615 -2.20091,6.69662 1.83593,7.35156 -2.36823,4.13914 -0.16493,6.89007 2.75782,8.26758 -2.45011,12.25063 2.44859,18.06956 14.69921,17.45703 l 10.10743,0.91992 c -0.61254,6.12534 0.3057,11.63689 2.75586,16.53711 h -21.13086 c -25.7263,0.61254 -42.57225,13.17062 -50.53516,37.67188 l 36.75195,20.21289 c 3.06265,7.9629 0.6133,17.45687 -7.34961,28.48242 3.06265,7.96291 7.35048,13.3237 12.86329,16.08008 5.51276,2.75641 8.26953,6.27872 8.26953,10.5664 -15.31328,112.70573 -22.35789,181.00191 -21.13282,204.89063 11.6381,66.76586 17.76247,104.74366 18.375,113.93164 0.61254,9.18798 -0.61114,35.67866 -3.67382,79.47461 -3.06266,43.79599 -6.12681,74.57646 -9.18946,92.33984 -2.45011,15.31324 -4.89946,25.72549 -7.34961,31.23828 -9.80048,15.92586 -29.86136,27.71837 -60.18164,35.375 -30.32028,7.65664 -45.17306,14.54662 -44.56054,20.67188 v 6.43164 l 37.66992,0.91797 c 23.88872,-5.5126 44.71513,-5.81827 62.47851,-0.91797 18.98846,1.8377 34.30136,0.61387 45.93946,-3.67383 11.63808,-4.28775 26.64551,-2.45118 45.02148,5.51172 20.21349,-1.8376 25.41962,-13.47549 15.61914,-34.91406 -1.22507,-15.31332 -0.76493,-26.79845 1.37891,-34.45508 2.14388,-7.65664 3.52222,-16.38507 4.13476,-26.18555 6.1253,-75.34134 7.96187,-132.61249 5.51172,-171.81445 -2.45011,-39.20199 -0.30623,-91.57445 6.43164,-157.11524 7.96287,-28.78898 10.41226,-51.14645 7.34961,-67.07226 -11.02555,-28.78894 -17.14993,-51.75927 -18.375,-68.91016 L 547.87695,407.37695 557.06445,389 c 3.14469,18.98846 9.69453,44.40814 19.65235,76.25977 -0.84012,15.92577 2.19665,33.84269 9.10937,53.75 6.91274,19.90722 10.86758,51.70967 13.95703,76.21093 -4.64316,6.57932 -8.2523,13.85682 -10.83008,21.09375 l -0.006,13.57617 c -10.58205,12.71358 -7.08064,38.09681 16.60156,74.93555 -17.64808,0 -34.80318,-3.9219 -51.47071,-11.76562 -3.92175,10.78482 -3.43151,22.54715 1.47071,35.29297 14.70653,-5.88237 32.35204,-7.84219 52.9414,-5.88086 l -5.88281,73.53515 h 26.47461 l -7.35351,-72.0625 c 17.64806,-0.98027 35.78757,0.4922 54.41601,4.41407 2.9412,-11.76531 2.44908,-23.53349 -1.47265,-35.29883 -17.64807,7.84349 -34.80318,11.76562 -51.47071,11.76562 31.80645,-48.34596 28.18591,-76.16916 3.64844,-82.80273 v -5.70899 c -3.05979,-9.10333 -5.86626,-18.2477 -8.41992,-26.71679 1.53636,-51.45262 -3.9742,-90.34207 -15.15039,-116.06836 -3.04095,-36.13932 -10.3818,-82.38544 -15.89453,-138.73828 -5.51277,-21.43862 -21.43848,-32.77102 -47.77735,-33.9961 -4.90023,-7.9629 -7.04414,-16.53667 -6.43164,-25.72461 L 661.80664,9.5371094 C 656.29385,4.0243144 650.4749,1.574963 644.34961,2.1875 l -79.01563,140.57617 c -6.73783,3.06265 -36.75275,-16.54005 -90.04296,-58.804686 -14.08823,-14.700738 -21.43825,-29.400823 -22.05079,-44.101562 -0.61254,-14.700739 3.82802,-23.276415 13.32227,-25.726563 9.49425,-2.45011 15.77329,-1.071761 18.83594,4.134766 3.06264,5.20649 2.75529,10.107181 -0.91992,14.701172 -3.67518,4.59399 -6.73735,4.59399 -9.1875,0 -2.45013,-4.593991 -4.8995,-6.890625 -7.34961,-6.890625 -4.90026,1.837611 -5.97318,6.125449 -3.2168,12.863281 2.75641,6.737833 7.80979,9.800037 15.16016,9.1875 13.32936,-0.616761 19.01525,-10.728674 19.29492,-22.970703 0,-16.582028 -14.40674,-24.70669188 -26.16992,-25.13867187 z M 643.43164,21.482422 647.10742,22.400391 529.5,254.85547 518.47461,242.91211 c 11.19526,-13.11364 23.58428,-25.91112 16.08008,-44.10352 -3.98146,-8.57544 -14.24294,-9.49369 -30.78125,-2.75586 -12.86316,-7.35033 -27.25778,-9.49429 -43.1836,-6.43164 L 452.32227,155.625 H 572.68359 Z M 478.10547,200.81836 c 15.7344,-0.11485 23.37151,4.42336 22.91211,13.61133 h 7.35156 c 0,-7.35037 3.36764,-11.3328 10.10547,-11.94531 7.35037,1.22506 8.88147,6.43116 4.59375,15.61914 l -20.21289,26.64648 20.21289,20.21289 c -3.06265,11.02559 -2.14245,22.96891 2.75781,35.83203 -12.25063,3.67522 -22.66479,3.67522 -31.24023,0 -5.5128,-1.22507 -8.575,-9.49337 -9.1875,-24.80664 H 469.7793 c -6.73788,0 -10.10742,-2.14395 -10.10742,-6.43164 0.61254,-6.12533 3.98208,-9.49492 10.10742,-10.10742 0,-3.67519 -1.22562,-5.51172 -3.67578,-5.51172 l -11.94532,-0.91992 c 2.45012,-4.90026 7.3e-4,-8.26786 -7.34961,-10.10547 0,-3.06265 3.36962,-10.10726 10.10743,-21.13281 v -10.10742 l 1.83789,2.75781 c 4.90025,-3.06265 8.8807,-4.59375 11.94336,-4.59375 3.67518,0 8.57583,0.91824 14.70117,2.75586 h 11.02539 v -3.67578 h -11.02539 c -5.5128,-2.45012 -10.41347,-3.67579 -14.70117,-3.67579 -4.28774,0 -8.88103,1.83849 -13.78125,5.51368 0,-2.45012 0.91829,-5.20686 2.75586,-8.26953 7.0441,-1.07195 13.18879,-1.62774 18.43359,-1.66602 z m 28.6543,113.07031 c 18.22278,0.15313 36.21706,1.30147 53.98046,3.44531 -7.3504,12.86317 -14.39498,38.59023 -21.13281,77.17969 h -73.5039 c -9.18797,0.61254 -13.78125,-2.45158 -13.78125,-9.18945 15.31331,-29.40148 15.00589,-52.36989 -0.91993,-68.9082 18.6822,-1.83759 37.1346,-2.68047 55.35743,-2.52735 z m -37.90039,87.97461 h 69.82812 l -1.83594,3.67578 H 469.7793 Z m 11.94531,14.70117 h 46.85742 c -1.22507,29.40148 2.14451,54.51573 10.10742,75.3418 7.96287,20.82607 9.18854,41.65053 3.67578,62.47656 -5.5128,20.82607 -8.575,44.56197 -9.1875,71.20703 -0.61253,26.64514 -1.83817,52.21945 -3.67578,76.72071 5.5128,49.00244 3.36884,116.07497 -6.43164,201.21679 h -57.88477 c 11.63811,-100.45506 13.32188,-172.88835 5.05274,-217.29687 -8.26917,-44.40852 -12.40234,-71.20659 -12.40234,-80.39453 1.22506,-42.87718 9.18789,-105.96728 23.88867,-189.27149 z m 145.52929,219.83203 c 10.37535,8.62824 2.48283,32.10966 -11.95898,56.66407 -10.29228,-15.44211 -16.92459,-31.17525 -17.19922,-42.67383 1.30419,-1.05136 2.16845,-2.66196 2.59375,-4.83399 12.01094,0.63803 20.86596,-2.93419 26.56445,-9.15625 z M 481.72266,916.38867 h 21.13281 c 3.06264,12.86313 1.68426,23.7374 -4.13477,32.61914 -5.81906,8.88168 -15.1603,14.85334 -28.02343,17.91602 -1.83759,-10.41302 1.83744,-27.25894 11.02539,-50.53516 z"
     id="path4"
     sodipodi:nodetypes="sssscscccsccccccccccsccssccsccccsccscsccccccsccccccccccccccccccccccccssssscsccsccccccccccscccccccccsccccccccsccccsccsscccccscccccccssscccscccccccccscc" />
  <path
     style="fill:#000000;stroke:none;stroke-width:55.638"
     d="m 470.17969,213.01172 c -1.22768,-0.0466 -2.43488,-0.0305 -3.61719,0.0391 -5.20653,0.30633 -8.72883,4.74686 -10.56641,13.32227 5.12056,3.41374 18.56334,6.4701 23.88868,-5.51172 h 16.53906 v -5.51367 h -14.70117 c -3.98665,-1.49499 -7.85996,-2.19625 -11.54297,-2.33594 z m -1.32031,3.2539 c 3.67518,5e-5 7.04477,0.61282 10.10742,1.8379 -1.83762,3.06264 -4.28697,5.51395 -7.34961,7.35156 1.97245,-2.95868 2.03604,-8.01875 -2.75781,-9.18946 z m -5.51172,0.91993 c -1.93212,3.86429 -1.77325,7.37901 1.83789,9.1875 l -5.51367,-0.91797 c 0,-3.06268 1.22566,-5.81942 3.67578,-8.26953 z"
     id="path5" />
  <path
     d="m 408.21875,338.4668 c -12.2331,36.78178 -17.37162,65.66836 -27.58412,94.31343 -39.21713,1.10705 -82.50004,3.48333 -111.61938,6.65966 l -3.81604,18.12589 c 45.77454,2.46833 96.60191,1.48814 129.38337,-3.14762 22.17127,-27.59569 36.3101,-63.25039 50.38812,-95.73847"
     style="fill:#000000;stroke:none;stroke-width:53.6676"
     id="path1-8"
     sodipodi:nodetypes="cccccc" />
</svg>
