<?xml version="1.0" encoding="UTF-8" standalone="no"?>
<svg
   width="800"
   height="1000"
   version="1.1"
   id="svg1"
   sodipodi:docname="138F0.svg"
   inkscape:version="1.4.3 (0d15f75, 2025-12-25)"
   xmlns:inkscape="http://www.inkscape.org/namespaces/inkscape"
   xmlns:sodipodi="http://sodipodi.sourceforge.net/DTD/sodipodi-0.dtd"
   xmlns="http://www.w3.org/2000/svg"
   xmlns:svg="http://www.w3.org/2000/svg">
  <defs
     id="defs1" />
  <sodipodi:namedview
     id="namedview1"
     pagecolor="#ffffff"
     bordercolor="#000000"
     borderopacity="0.25"
     inkscape:showpageshadow="2"
     inkscape:pageopacity="0.0"
     inkscape:pagecheckerboard="0"
     inkscape:deskcolor="#d1d1d1"
     inkscape:zoom="1.2928172"
     inkscape:cx="282.71591"
     inkscape:cy="256.41675"
     inkscape:window-width="1680"
     inkscape:window-height="998"
     inkscape:window-x="-8"
     inkscape:window-y="-8"
     inkscape:window-maximized="1"
     inkscape:current-layer="svg1"
     showgrid="false"
     showguides="true" />
  <path
     style="fill:#000000;stroke:none;stroke-width:55.2761"
     d="m 565.7004,204.2584 h -88.60076 z m 10.36815,0 h -10.36815 10.36815 -109.33711 10.3682 -10.3682 z m -97.08379,83.88795 v 4.71279 c -7.5405,-0.62836 -15.70937,-2.35637 -24.50659,-5.18405 -8.79724,-2.8277 -16.9661,-2.8277 -24.50656,0 -7.5405,2.82765 -11.62492,6.2837 -12.2533,10.36815 -0.62838,4.08442 -2.82768,8.95431 -6.59794,14.60969 -11.93909,15.08097 -17.59446,23.87822 -16.96613,26.39173 0.62836,2.51346 2.67059,4.71276 6.12667,6.59789 3.45607,1.88512 4.86993,3.14187 4.24156,3.77026 l -4.71283,6.59791 8.48306,-1.88509 c 15.08099,5.65535 22.62148,9.4256 22.62148,11.31072 l -18.85127,10.36816 c -1.25671,13.19587 4.39866,18.53705 16.96612,16.02354 h 37.70241 c 3.1419,15.70935 8.79727,28.27683 16.96613,37.70243 17.59447,4.39866 32.67543,-2.82764 45.24291,-21.67888 v -63.15163 c 0.62846,-12.56745 -3.14179,-16.0235 -11.31074,-10.36815 -8.16884,14.4526 -14.76677,21.6789 -19.79375,21.6789 -7.54048,0 -11.3107,-4.39862 -11.3107,-13.19586 v -10.36815 h 6.59789 v 9.42564 c 0,5.02697 1.57094,7.54046 4.71281,7.54046 5.02698,0 10.99655,-9.42561 17.90864,-28.27682 6.91212,-18.85123 5.02702,-28.27685 -5.65536,-28.27685 -7.54047,0 -13.19584,6.59793 -16.96609,19.79379 h -6.59789 c -1.88514,-32.04709 -21.36474,-46.18551 -58.4388,-42.41527 -3.77028,3.77024 -6.59796,7.85466 -8.48307,12.2533 10.05397,-6.28371 19.95087,-7.54047 29.69072,-3.77026 9.73978,3.77026 19.63665,6.91214 29.69062,9.42565 z m -77.29001,50.89831 c 13.19585,0 17.28027,2.82767 12.2533,8.483 -8.16885,0 -12.2533,-2.82767 -12.2533,-8.483 z m 17.90867,-31.10454 v -2.82771 c 3.14185,-1.25671 5.81244,-3.6131 8.01176,-7.06917 2.19932,-3.45607 6.28376,-5.65539 12.2533,-6.59797 5.96957,-0.9426 13.35297,1.09962 22.15019,6.1267 h 16.96609 v 5.65537 h -16.96609 c -6.91213,4.39861 -13.35297,7.06918 -19.32251,8.01176 -5.96953,0.94259 -10.36814,0.94259 -13.19583,0 -2.8277,-0.94259 -6.12667,-2.04226 -9.89691,-3.29898 z m 206.42087,263.9171 V 384.28759 C 615.34192,279.34911 595.54816,226.87986 566.64296,226.87986 H 463.90381 c -11.31072,3.14185 -19.4796,11.31071 -24.5066,24.50657 37.70243,1.25677 58.43879,5.1841 62.20904,11.78202 3.77023,6.59794 13.3529,10.68239 28.74807,12.2533 15.39519,1.57095 23.09278,16.49482 23.09278,44.77167 v 251.6638 z M 382.84351,806.55491 347.02622,761.31194 250.88497,617.10014 c -26.39169,-5.02696 -40.8443,1.88514 -43.35781,20.7363 l 70.69209,213.01887 c 16.33771,39.58752 23.40695,67.39308 21.20767,83.41667 -2.19932,16.02352 -6.44085,27.49133 -12.72458,34.40343 H 565.7004 c -23.8782,-23.87822 -30.79031,-54.66855 -20.73633,-92.37096 10.05395,-37.70244 18.37991,-84.04504 24.97785,-139.02778 6.59789,-54.9827 10.21103,-101.63946 10.83944,-139.97026 H 528.94048 V 435.18588 c -3.14185,10.68236 -14.76676,16.6519 -34.87476,17.9086 -58.43875,74.14816 -74.14809,118.76271 -47.12799,133.84368 5.02696,81.06031 -3.77029,147.66798 -26.39171,199.82298 -5.6554,25.76335 -18.22291,32.36128 -37.70251,19.79377 z M 189.61854,618.04269 c 6.28372,-13.19583 20.73631,-19.79373 43.35777,-19.79373 -18.22282,-10.68237 -34.87472,-13.66714 -49.95573,-8.95432 -15.08097,4.71274 -19.16539,8.01168 -12.2533,9.89681 6.91212,1.88514 13.19587,8.16889 18.85126,18.85124 z m 27.33427,-46.18547 c 28.90521,0 46.1855,8.16884 51.84084,24.50655 L 393.21174,777.3355 c 23.87819,-53.41176 33.61797,-113.42146 29.21934,-180.02909 -16.96608,-24.50662 -15.86643,-53.25475 3.29899,-86.24437 19.16539,-32.98967 33.77509,-56.39661 43.8291,-70.22081 -6.28375,-5.65537 -12.25329,-16.65191 -17.90869,-32.98963 h -30.16197 c -15.70935,0 -23.56402,-9.7398 -23.56402,-29.21942 -7.54047,-0.62834 -9.73978,-5.02697 -6.5979,-13.19583 -5.65538,-4.39859 -5.65538,-7.85465 0,-10.36817 l 1.88515,-4.71281 c -3.77026,-0.62835 -7.54051,-3.14186 -11.31074,-7.54051 -2.51349,-3.14186 5.02701,-15.39515 22.62147,-36.75988 0,-14.45258 3.45605,-27.64843 10.36815,-39.58754 -1.88514,-5.02699 0.31415,-14.45261 6.59789,-28.27685 6.28377,-13.82421 19.47965,-25.13495 39.58761,-33.93219 l 6.1622,-1.72877 c 0,0 76.53758,-7.49385 113.36878,0.96902 1.15194,0.26468 2.05938,0.75975 2.05938,0.75975 45.87133,16.96611 68.807,101.16822 68.807,252.60636 V 597.30641 H 604.3454 v 16.96604 c -8.79724,128.18832 -19.00832,210.66242 -30.63324,247.42232 -11.62494,36.7598 -1.09968,74.9335 31.57578,114.52108 12.56749,11.31076 12.56749,20.10801 0,26.39175 H 230.14866 c -7.54053,-9.4256 -2.9848,-19.0083 13.66714,-28.74808 16.65191,-9.73981 25.60623,-21.83603 26.863,-36.28863 1.88509,-12.56746 -27.96271,-110.59378 -89.54335,-294.07899 -9.42561,-20.10798 -20.10795,-31.57582 -32.04703,-34.40349 -11.93913,-2.82756 -15.08102,-8.9542 -9.42567,-18.37995 0,-12.56749 18.53705,-18.85124 55.61112,-18.85124 z"
     id="path1"
     sodipodi:nodetypes="ccccccccccccssscsscccccccccccssccssssccccsccccccssccccsscccsccssscccccccsccsscccccccccsscscccsccscccccccsccscscccscccsccccss" />
  <path
     style="fill:#000000;stroke:none;stroke-width:21.0633"
     d="M 204.97219,595.81785 H 182.77226 Z"
     id="path1-0"
     sodipodi:nodetypes="ccc" />
  <path
     style="fill:#000000;stroke:none;stroke-width:16.4153"
     d="m 243.13389,251.29013 c -12.79426,8.73763 -20.51761,19.1135 -23.17008,31.1277 -2.65261,12.01408 -7.33351,18.95731 -14.04261,20.82974 -6.70915,1.87224 -13.34033,1.87224 -19.89354,0 -6.5532,-1.87243 -11.15601,-8.81566 -13.80849,-20.82974 -2.65248,-12.0142 -10.37586,-22.39007 -23.1701,-31.1277 11.54596,-5.92908 27.14878,-8.89359 46.80843,-8.89359 19.65946,0 35.41828,2.96451 47.27639,8.89359 z m -37.44679,325.69959 -3e-5,-260.16776 c 12.79427,0 21.76592,-8.81554 26.91493,-26.44672 5.14887,-17.63114 13.6524,-26.44671 25.51053,-26.44671 3.12063,-2.80852 4.681,-6.3972 4.681,-10.76598 0,-9.98578 -8.65958,-16.77302 -25.97874,-20.36175 -17.31914,-3.5886 -30.89359,-5.38292 -40.72341,-5.38292 -9.8297,0 -23.40406,1.79432 -40.7232,5.38292 -17.31913,3.58873 -25.97876,10.37597 -25.97876,20.36175 0,4.36878 1.40431,7.95746 4.21288,10.76598 12.17008,0 20.82964,8.81557 25.97867,26.44671 5.14886,17.63118 13.34028,26.44672 24.57428,26.44672 v 260.16776 z"
     id="path1-4"
     sodipodi:nodetypes="ccccccscccccscscsccccc" />
  <path
     style="fill:#000000;stroke:#800080;stroke-width:5.27671;stroke-dasharray:none"
     d="M 554.99037,206.40505 H 490.85172 L 522.72347,90.451283 Z m -7.24361,-5.76493 -25.02329,-91.83502 -25.02328,91.83502 h 12.11654 l 12.90674,-48.2158 12.77506,48.2158 z m -18.04305,0 -6.98024,-29.78156 -6.98018,29.78156 z"
     id="path4"
     sodipodi:nodetypes="ccccccccccccccc" />
  <path
     style="fill:#000000;stroke:#800080;stroke-width:4.60583;stroke-dasharray:none"
     d="m 580.80602,68.098845 v 5.202711 q 0,-19.586736 -15.15268,-35.041912 -14.08117,-12.088696 -27.09092,-12.088696 -13.1629,0 -16.53006,0 -3.36726,0 -16.53018,0 -13.00974,0 -26.93786,12.088696 -15.30561,15.455176 -15.30561,35.041912 V 68.098845 Z M 451.32027,74.2197 V 25.8649 h -7.65281 V 81.870776 H 600.5502 V 25.8649 h -7.80585 v 48.3548 z m 78.0587,-54.016593 4.28563,-12.2417241 h -23.11155 l 4.28563,12.2417241 z M 542.38882,2.2995902 536.72569,20.203107 q 18.51985,0 33.67243,13.312877 14.69341,13.465894 16.22397,34.582861 h 0.15333 V 20.203107 h 19.74426 V 87.379543 H 437.5452 V 20.203107 h 19.74428 v 47.895738 h 0.15333 Q 458.97336,46.981878 473.6668,33.515984 488.81938,20.203107 507.49225,20.203107 L 501.82884,2.2995902 Z"
     id="path1-9" />
</svg>
