<?xml version="1.0" encoding="UTF-8" standalone="no"?>
<svg
   width="850"
   height="1000"
   id="svg2456"
   sodipodi:version="0.32"
   inkscape:version="1.4.2 (f4327f4, 2025-05-13)"
   sodipodi:docname="13934.svg"
   inkscape:output_extension="org.inkscape.output.svg.inkscape"
   version="1.1"
   xmlns:inkscape="http://www.inkscape.org/namespaces/inkscape"
   xmlns:sodipodi="http://sodipodi.sourceforge.net/DTD/sodipodi-0.dtd"
   xmlns="http://www.w3.org/2000/svg"
   xmlns:svg="http://www.w3.org/2000/svg"
   xmlns:rdf="http://www.w3.org/1999/02/22-rdf-syntax-ns#"
   xmlns:cc="http://creativecommons.org/ns#"
   xmlns:dc="http://purl.org/dc/elements/1.1/">
  <metadata
     id="metadata2463">
    <rdf:RDF>
      <cc:Work
         rdf:about="">
        <dc:format>image/svg+xml</dc:format>
        <dc:type
           rdf:resource="http://purl.org/dc/dcmitype/StillImage" />
      </cc:Work>
    </rdf:RDF>
  </metadata>
  <defs
     id="defs2461">
    <inkscape:perspective
       sodipodi:type="inkscape:persp3d"
       inkscape:vp_x="0 : 991.01121 : 1"
       inkscape:vp_y="0 : 1000 : 0"
       inkscape:vp_z="17.555605 : 991.01121 : 1"
       inkscape:persp3d-origin="8.7778025 : 988.01494 : 1"
       id="perspective2465" />
  </defs>
  <sodipodi:namedview
     inkscape:window-height="998"
     inkscape:window-width="1680"
     inkscape:pageshadow="2"
     inkscape:pageopacity="0.0"
     guidetolerance="10.0"
     gridtolerance="10.0"
     objecttolerance="10.0"
     borderopacity="1.0"
     bordercolor="#666666"
     pagecolor="#ffffff"
     id="base"
     showgrid="false"
     inkscape:zoom="0.2359375"
     inkscape:cx="739.60265"
     inkscape:cy="599.7351"
     inkscape:window-x="-8"
     inkscape:window-y="-8"
     inkscape:current-layer="svg2456"
     showguides="true"
     inkscape:guide-bbox="true"
     inkscape:showpageshadow="2"
     inkscape:pagecheckerboard="0"
     inkscape:deskcolor="#d1d1d1"
     inkscape:window-maximized="1">
    <sodipodi:guide
       position="0,600"
       orientation="0,1"
       id="guide1"
       inkscape:locked="false"
       inkscape:label=""
       inkscape:color="rgb(0,134,229)" />
    <sodipodi:guide
       position="190.31006,954.29561"
       orientation="0,-1"
       id="guide2"
       inkscape:locked="false" />
    <sodipodi:guide
       position="191.47612,954.29561"
       orientation="0.5,-0.8660254"
       id="guide3"
       inkscape:locked="false" />
    <sodipodi:guide
       position="610.32917,954.29561"
       orientation="0.5,0.8660254"
       id="guide4"
       inkscape:locked="false" />
  </sodipodi:namedview>
  <path
     style="fill:#000000;stroke:none;stroke-width:0.999994"
     d="m 143.06991,801.98228 c -17.85212,-11.27505 -21.84536,-23.01987 -11.97972,-35.23449 4.22815,-7.0469 4.93284,-15.50317 2.11407,-25.36881 -11.3443,-10.82881 -32.36824,2.09227 -31.28798,-34.43589 0.39584,-13.38531 8.38557,-23.46611 16.13716,-34.97603 7.7516,-11.50993 26.19097,-32.06337 55.31812,-61.66032 l -4.93279,-26.07352 c 31.00632,-95.36797 68.58976,-150.921 112.75029,-166.65906 44.16053,-15.73806 101.00548,-20.90577 170.53486,-15.50316 69.52938,5.40261 130.36755,31.71102 182.51458,78.92521 52.14703,47.21419 78.22054,131.54203 78.22054,252.9835 0,121.44153 -59.19392,182.16227 -177.58177,182.16227 l 34.5298,64.83141 -215.635,19.0266 c -26.30839,-38.52301 -42.86859,-64.47906 -49.68061,-77.86819 -6.812,-13.38908 -16.7951,-17.26487 -29.94931,-11.62735 l -44.18339,4.67439 c -7.15386,22.67983 -4.77075,22.23186 -1.23668,40.91071 l -91.10491,0.65562 c 17.67988,-24.49864 18.87117,-17.50814 19.75858,-45.20688 -19.52067,-0.60977 -19.47356,-31.21806 -14.30584,-43.66755 5.16773,-12.4495 3.64093,-21.96282 -4.58044,-28.53995 -8.22141,-6.57711 -11.27507,-13.85888 -9.16099,-21.84538 2.11405,-7.98647 6.69454,-13.15418 13.74143,-15.50313 z m 81.74399,1.40925 c -3.28855,11.27505 -24.26536,12.21423 -39.81494,17.26489 -22.11844,7.18428 -30.41911,4.81537 -21.49305,13.74146 8.92607,8.92607 12.09718,18.20444 9.5133,27.83521 -2.58386,9.63076 8.80863,15.85553 34.17747,18.67426 25.3688,2.81887 58.48922,-0.70463 99.3612,-10.5703 7.98648,0 15.85552,8.22136 23.60709,24.66411 7.75159,16.44276 21.96284,40.40219 42.63374,71.87834 L 516.55536,955.60456 494.70998,915.43727 C 448.20045,857.65276 423.06654,805.27081 419.30821,758.29152 l -33.82513,-16.91254 c 1.40938,-24.89903 11.50995,-33.47277 30.30169,-25.72118 18.79169,7.75158 32.06333,5.98985 39.81492,-5.28517 7.75158,-11.27504 17.49982,-30.65399 29.24462,-58.13689 11.74484,-27.48289 12.09718,-46.03972 1.05705,-55.67047 -11.04016,-9.63074 -23.13731,-1.7617 -36.29151,23.60709 -13.15421,25.36883 -25.83864,39.93242 -38.05326,43.69077 -12.2146,3.75833 -25.95603,-10.80526 -41.2243,-43.69077 -15.26829,-32.88549 -36.29153,-51.79467 -63.06972,-56.72748 -26.77821,-4.93284 -59.42882,-5.75497 -97.95182,-2.46642 l -15.50318,33.82511 7.0469,23.95944 c -11.74482,14.56357 -23.25474,27.0131 -34.52978,37.34855 -11.27505,10.33542 -19.829,22.58922 -28.53992,34.8821 -12.56734,17.73504 -5.00318,23.93623 4.3927,25.34561 28.65738,0.93962 44.53644,-9.35012 45.71092,17.28814 0.58172,13.19369 -3.80548,16.23104 -11.08725,16.93571 -7.28181,0.70471 -11.88585,1.3862 -11.88585,-5.66071 0,-6.57709 -2.58386,-6.10731 -7.75157,1.40936 0,12.21462 -2.81877,22.29166 -8.45627,32.15729 l 24.80441,-1.36306 c 13.42643,-0.73787 34.8593,20.64807 51.30204,26.28553 z m 225.50065,-47.21419 c 9.86564,46.0397 22.19769,79.62992 36.99617,100.77059 14.79848,21.14069 51.20747,26.42583 109.22688,15.85549 58.01944,-10.57033 86.79424,-64.3616 86.32442,-161.37385 -0.46979,-97.01216 -23.13731,-166.07174 -68.00251,-207.1786 -44.86522,-41.1069 -96.77734,-65.06633 -155.73637,-71.87832 -58.95902,-6.81202 -106.643,-5.52009 -143.05194,3.87578 -36.40898,9.39585 -68.00255,43.22094 -94.78075,101.4753 52.61681,-2.81877 90.90495,0 114.8644,8.45627 23.95944,8.45627 42.63371,26.54329 56.02281,54.26105 13.3891,27.7178 24.31178,27.83526 32.76805,0.35235 8.45626,-27.48287 26.5433,-39.69748 54.26108,-36.64384 27.71778,3.05365 43.22094,15.38571 46.50951,36.99619 3.28863,21.61049 -0.3525,44.16057 -10.92269,67.65022 -10.57034,23.48963 -21.14069,43.92562 -31.71103,61.30797 -10.57034,17.38234 -21.49299,26.07351 -32.76803,26.07351 z M 190.2841,660.3397 l -5.6375,-14.79851 19.73131,-20.43598 c 21.61049,-18.32192 52.8517,-16.44276 93.72369,5.63749 l 26.07351,7.04692 38.05323,3.52343 -0.70467,23.95945 -16.20788,-4.9328 -45.10014,-10.57038 c -38.05321,21.61051 -71.6434,24.19435 -100.77058,7.7516 z m 14.79851,-13.38912 c 5.63751,3.75835 12.68441,6.34219 21.14069,7.75158 -5.63751,-7.98646 -6.57711,-16.67764 -2.81878,-26.07352 -10.33545,6.10732 -16.44274,12.21463 -18.32191,18.32194 z m 50.73763,7.04687 c 10.33544,-1.87914 20.67087,-5.87237 31.00632,-11.9797 l -29.59695,-14.09377 c 7.04691,9.86565 6.57712,18.5568 -1.40937,26.07347 z m -54.26111,-46.50948 c -3.28852,-8.92608 -3.64085,-14.91594 -1.05702,-17.96957 2.58386,-3.05365 9.86567,-5.75497 21.84535,-8.10396 11.97974,-2.34896 25.95608,-1.7617 41.92905,1.76173 15.97298,3.52346 30.77145,9.04352 44.39543,16.56022 13.62401,7.51667 30.06676,12.44949 49.32826,14.79848 v 14.09377 c -26.30839,-4.69792 -44.74778,-9.51328 -55.31813,-14.44612 -10.57033,-4.93285 -24.78156,-10.10057 -42.63369,-15.50318 -17.85215,-5.40262 -37.34856,-2.46641 -58.48925,8.80863 z"
     id="path2458"
     sodipodi:nodetypes="cccssccsssscccscccccsssccsssscscccccsssssssscccsscsssccsccsssssscssssssscccccccccccccccccccccssssccssc" />
  <path
     style="fill:#000000;stroke:none;stroke-width:1"
     d="m 433.23065,400.00172 c 0.52255,-19.33105 16.58819,-35.00483 48.19697,-47.0213 31.60898,-12.01663 58.90759,-31.47831 81.89582,-58.38504 22.98806,-26.90669 37.48629,-60.86651 43.49472,-101.87944 6.00822,-41.01314 14.23695,-87.38152 24.68618,-139.105144 -17.24127,56.425714 -28.60475,100.181794 -34.09045,131.268204 -5.48588,31.08625 -17.50253,58.90722 -36.04995,83.46285 -18.54726,24.55567 -43.3641,42.18867 -74.45053,52.89899 -31.08624,10.71051 -59.16845,28.08231 -84.24665,52.11542 -25.60055,-24.03311 -53.94393,-41.40491 -85.03018,-52.11542 -31.08646,-10.71032 -55.90329,-28.34332 -74.4505,-52.89899 -18.54744,-24.55563 -30.56401,-52.3766 -36.04968,-83.46285 -5.48591,-31.08641 -16.84948,-74.84249 -34.09076,-131.268204 10.44924,51.723624 18.67806,98.092004 24.6865,139.105144 6.00822,41.01293 20.50645,74.97275 43.49471,101.87944 22.98824,26.90673 50.28674,46.36841 81.89552,58.38504 31.60878,12.01647 47.67443,27.69025 48.19697,47.0213 z m -79.1525,24.29455 c -2.61231,-26.12306 -16.32693,-43.23371 -41.14387,-51.3319 -24.81673,-8.09802 -50.02536,-24.16357 -75.6259,-48.19668 C 211.70782,300.73435 195.11972,272.91331 187.54407,241.30455 179.96842,209.69577 174.35198,167.24594 170.69479,113.95509 168.34824,79.762235 157.72074,44.386386 138.81231,7.8275254 L 152.36999,9.727456e-7 C 158.98698,7.5510996 165.2258,14.710957 171.08641,21.479573 c 18.54743,21.420814 34.48244,65.960505 47.80507,133.619067 13.32281,67.65854 41.01322,111.54516 83.07124,131.65982 42.05801,20.11486 75.62603,36.96424 100.70404,50.54813 24.55566,-13.58389 57.86249,-30.43327 99.92051,-50.54813 C 544.64528,266.6438 572.3357,222.75718 585.65852,155.09864 598.98113,87.440078 614.91616,42.900387 633.46358,21.479573 639.32419,14.710956 645.56303,7.5510996 652.18005,-3.6358359e-8 L 665.73771,7.8275234 C 646.82932,44.386385 636.2019,79.762235 633.85545,113.95509 c -3.65735,53.29085 -9.27386,95.74068 -16.84951,127.34946 -7.57567,31.60876 -24.16368,59.4298 -49.76404,83.46314 -25.60054,24.03311 -50.80928,40.09866 -75.6262,48.19668 -24.81693,8.09819 -38.53155,25.20884 -41.14387,51.3319 z"
     id="path1820"
     sodipodi:nodetypes="csscccccccccccsccccccssccccccccccccscccc"
     inkscape:transform-center-y="-187.85187"
     inkscape:transform-center-x="-9.9999999e-06" />
</svg>
