<?xml version="1.0" encoding="UTF-8" standalone="no"?>
<svg
   width="1100"
   height="1000"
   version="1.1"
   id="svg1"
   sodipodi:docname="139A5.svg"
   inkscape:version="1.4.3 (0d15f75, 2025-12-25)"
   xmlns:inkscape="http://www.inkscape.org/namespaces/inkscape"
   xmlns:sodipodi="http://sodipodi.sourceforge.net/DTD/sodipodi-0.dtd"
   xmlns="http://www.w3.org/2000/svg"
   xmlns:svg="http://www.w3.org/2000/svg">
  <defs
     id="defs1" />
  <sodipodi:namedview
     id="namedview1"
     pagecolor="#ffffff"
     bordercolor="#666666"
     borderopacity="1.0"
     inkscape:showpageshadow="2"
     inkscape:pageopacity="0.0"
     inkscape:pagecheckerboard="0"
     inkscape:deskcolor="#d1d1d1"
     inkscape:zoom="0.26693281"
     inkscape:cx="132.99227"
     inkscape:cy="927.19962"
     inkscape:window-width="1680"
     inkscape:window-height="998"
     inkscape:window-x="-8"
     inkscape:window-y="-8"
     inkscape:window-maximized="1"
     inkscape:current-layer="svg1"
     showguides="true">
    <sodipodi:guide
       position="550,176.36177"
       orientation="1,0"
       id="guide1"
       inkscape:locked="false" />
    <sodipodi:guide
       position="415.23179,326.72146"
       orientation="0,-1"
       id="guide2"
       inkscape:locked="false" />
  </sodipodi:namedview>
  <path
     style="fill:#000000;stroke:none;stroke-width:0.999994"
     d="m 144.70709,699.28057 c 0,0 0,0 0,0 h 810.02056 c 0,0 0,0 0,0 31.65467,0 52.00415,13.00103 68.39675,35.61151 15.8273,22.61049 24.8715,55.39569 24.8715,88.74615 0,32.7852 -9.0442,65.5704 -24.8715,88.18088 -15.8274,23.17575 -36.74208,36.17678 -67.83148,36.17678 0,0 0,0 0,0 H 144.70709 c 0,0 0,0 0,0 -31.08941,0 -52.004109,-13.00103 -67.831448,-36.17678 -15.827337,-22.61048 -24.871531,-55.39568 -24.871531,-88.18088 0,-33.35046 9.044194,-66.13566 24.871531,-88.74615 15.827339,-22.61048 36.742038,-35.61151 67.831448,-35.61151 z m 0,-52.00411 c -47.482013,0 -86.485096,24.30627 -110.226103,58.22199 C 10.739979,738.84892 0,781.24357 0,823.63823 0,866.03288 10.739979,908.42754 34.480987,941.778 58.221994,975.69373 97.225077,1000 144.70709,1000 c 0,0 0,0 0,0 h 810.58583 c 0,0 0,0 0,0 47.48198,0 86.48508,-24.30627 110.22608,-58.222 23.741,-33.35046 34.481,-75.74512 34.481,-118.13977 0,-42.39466 -10.74,-84.78931 -34.481,-118.13978 -23.741,-33.91572 -62.7441,-58.22199 -110.79135,-58.22199 0,0 0,0 0,0 h -809.4553 z"
     id="path1" />
  <path
     style="fill:#000000;stroke:none;stroke-width:0.999997"
     d="m 549.39237,570.87646 q 120.30839,-3.6454 202.94416,-17.01282 0,-137.32153 10.93705,-274.64332 -30.3809,-97.2183 -25.51998,-150.68879 1.21294,-35.242063 4.86101,-64.407435 15.79787,-19.443443 27.95043,1.212857 -7.29155,40.102408 -7.29155,68.052918 0,78.99038 30.38056,76.5595 17.0134,0 22.48217,-26.12723 5.46868,-26.12766 7.89881,-67.44575 2.43187,-25.519965 -7.29155,-54.685338 -7.29089,-23.08951 -15.79705,-47.393961 6.07604,-24.305031 25.51948,-7.29155 31.59641,42.532953 34.02654,121.523319 -9.72152,61.9769 -43.74897,174.99382 12.15247,91.14244 18.229,250.3383 4.8615,53.47049 -30.38089,69.26845 -99.64944,26.735 -255.1993,26.735 v 0 q -154.33436,0 -255.19873,-26.735 -34.02654,-15.79796 -29.16604,-69.26845 6.07604,-159.19586 18.2285,-250.3383 -34.02596,-113.01692 -43.74847,-174.99382 2.43187,-78.990366 34.02655,-121.523319 19.44394,-17.013481 25.51998,7.29155 -8.50666,24.304451 -15.79806,47.393961 -9.72192,29.165373 -7.29106,54.685338 2.43198,41.31809 7.89891,67.44575 5.46818,26.12723 22.48158,26.12723 30.38106,2.43187 30.38106,-76.5595 0,-27.95051 -7.29155,-68.052918 12.15207,-20.658965 27.95052,-1.212857 3.64548,29.165372 4.86052,64.407435 4.86091,53.47049 -25.51949,150.68879 10.93704,137.32179 10.93704,274.64332 82.63579,13.36742 201.72882,17.01282 z"
     id="path3330" />
</svg>
