<?xml version="1.0" encoding="UTF-8" standalone="no"?>
<svg
   width="1100"
   height="1000"
   version="1.1"
   id="svg1"
   sodipodi:docname="13A44.svg"
   inkscape:version="1.4.3 (0d15f75, 2025-12-25)"
   xmlns:inkscape="http://www.inkscape.org/namespaces/inkscape"
   xmlns:sodipodi="http://sodipodi.sourceforge.net/DTD/sodipodi-0.dtd"
   xmlns="http://www.w3.org/2000/svg"
   xmlns:svg="http://www.w3.org/2000/svg">
  <defs
     id="defs1" />
  <sodipodi:namedview
     id="namedview1"
     pagecolor="#ffffff"
     bordercolor="#000000"
     borderopacity="0.25"
     inkscape:showpageshadow="2"
     inkscape:pageopacity="0.0"
     inkscape:pagecheckerboard="0"
     inkscape:deskcolor="#d1d1d1"
     showguides="true"
     inkscape:zoom="0.17888434"
     inkscape:cx="-1506.56"
     inkscape:cy="796.60411"
     inkscape:window-width="1680"
     inkscape:window-height="998"
     inkscape:window-x="-8"
     inkscape:window-y="-8"
     inkscape:window-maximized="1"
     inkscape:current-layer="svg1">
    <sodipodi:guide
       position="1030.5838,682.13047"
       orientation="1,0"
       id="guide1"
       inkscape:locked="false" />
  </sodipodi:namedview>
  <path
     style="fill:#000000;stroke:none;stroke-width:29.8049"
     d="m 449.30296,248.34487 26.44535,3.30562 c 26.99648,0.55106 60.87976,-27.82275 101.64982,-85.12137 -34.15858,18.7321 -58.95122,32.64355 -74.37792,41.73428 -15.42646,9.09054 -33.33223,22.45103 -53.71725,40.08147 z m -85.12168,55.37039 c 0.55104,17.63023 -11.01886,26.44535 -34.70975,26.44535 l -4.95842,5.785 -4.95846,-3.30563 c 6.06043,-6.06043 8.81513,-11.56992 8.26408,-16.52846 8.26438,-11.01898 20.38524,-15.15106 36.36255,-12.39626 z M 241.04453,387.1838 c 5.50939,-4.40749 10.46795,-6.0603 14.87566,-4.95843 4.40751,1.10209 6.19808,4.54549 5.37173,10.33016 -0.82657,5.7849 -6.74923,8.95288 -17.76799,9.50393 l -0.82657,-4.95878 c 7.71334,-0.55103 11.15673,-2.61703 10.33017,-6.19796 -0.82656,-3.58115 -3.99443,-3.4434 -9.5036,0.41328 z m 36.36256,22.31348 c 0,6.06042 -4.54537,11.5699 -13.63611,16.52844 -9.09054,4.95835 -13.36037,12.39607 -12.80956,22.31317 l 19.83441,-20.66034 v 11.5697 c 6.61126,-0.55104 9.64148,-7.43782 9.09064,-20.66033 v -9.09064 z m 85.12136,-157.02022 c -18.73209,-19.28315 -35.39822,-34.15879 -49.99834,-44.62694 -14.60012,-10.46793 -38.42863,-26.44545 -71.48558,-47.93257 35.81152,60.60447 67.21553,91.73306 94.21202,93.38576 z m 30.57754,-0.82657 c -19.83397,-24.2417 -42.69828,-43.66261 -68.59288,-58.26273 -25.89463,-14.60012 -55.92134,-30.16436 -90.08013,-46.69272 l -4.1319,1.65314 c 72.72511,37.46442 123.41227,73.00051 152.06148,106.60828 z m 147.10333,389.24493 c -3.30561,4.95854 -7.4377,9.09062 -12.39624,12.39625 -8.26439,2.20375 -25.48156,4.26984 -51.65147,6.19831 -26.16996,1.92866 -53.85516,3.30594 -83.05562,4.13187 -29.20003,0.82657 -58.40018,-1.3772 -87.60042,-6.61126 -29.20023,-5.23408 -43.80037,-4.8208 -43.80037,1.23984 0,5.50939 14.60014,6.1982 43.80037,2.06643 29.20024,-4.13221 58.40039,-5.09652 87.60042,-2.89298 29.20046,2.20375 47.79503,3.16807 55.78369,2.89298 7.98866,-0.27552 15.56413,-0.27552 22.72642,0 7.16252,0.27551 19.69666,0.96432 37.6024,2.06641 17.90576,1.10209 24.65489,10.60592 20.2474,28.51146 -4.40773,17.90596 -17.63047,26.30801 -39.6682,25.20613 -24.24192,-1.10209 -42.6987,-4.1323 -55.37039,-9.09064 -92.5593,7.1623 -152.61261,10.60569 -180.15994,10.33017 -27.54753,-0.27552 -44.076,-1.51517 -49.58538,-3.71892 -5.50959,-2.20374 -10.88132,-10.46793 -16.11516,-24.79254 -5.23407,-14.3248 -5.64736,-28.92492 -1.23986,-43.80035 4.40771,-14.87566 19.1456,-28.78719 44.21366,-41.73461 25.06805,-12.9472 57.84944,-21.62454 98.34418,-26.03205 40.49475,-4.40771 67.76667,-8.81532 81.81574,-13.22283 14.04931,-4.4075 5.37196,-33.05682 -26.03204,-85.94794 -6.61148,-27.54732 -14.46247,-43.52484 -23.553,-47.93256 -9.09075,-4.40751 -20.79842,-7.1622 -35.12304,-8.26407 l -27.27189,11.5697 c -7.16232,0.55104 -10.74345,3.58135 -10.74345,9.09095 0,8.26418 -7.71336,12.67167 -23.14007,13.22251 0,8.26437 -4.683,12.67199 -14.04907,13.22284 -11.01897,0 -17.07941,-9.64159 -18.18128,-28.92473 -11.57,0.55104 -17.355,-4.13198 -17.355,-14.04907 -2.20376,-7.16252 -2.20376,-14.32494 0,-21.48723 -0.55106,-25.89441 11.01885,-42.42276 34.70971,-49.58506 11.01898,-9.91711 19.42103,-18.18139 25.20615,-24.79287 5.78491,-6.61124 14.04908,-12.94709 24.79253,-19.00751 10.74345,-6.06042 18.59445,-15.01343 23.55301,-26.85896 4.95853,-11.84533 12.9473,-17.21705 23.96627,-16.11517 -11.57003,0.55104 -25.06827,-2.20363 -40.49474,-8.26406 -15.42647,-6.06043 -32.09259,-23.00217 -49.99836,-50.82524 -17.90595,-27.82286 -30.4401,-46.69273 -37.60239,-56.60961 0,-12.12106 5.50949,-17.07961 16.52845,-14.87565 34.70986,15.42649 66.38937,30.16427 95.03858,44.21334 28.6492,14.0493 54.54373,34.5722 77.68354,61.56869 20.38523,-30.85317 45.59115,-51.927 75.61776,-63.22151 30.0266,-11.29427 62.94578,-22.72642 98.7575,-34.29644 11.56979,-1.65313 16.52834,3.58094 14.87564,15.70221 -7.1623,8.81501 -21.07374,26.16982 -41.73428,52.06445 -20.66055,25.89462 -38.42864,42.97402 -53.3043,51.23818 -14.87564,8.26418 -33.60786,13.22273 -56.19663,14.87565 15.42647,15.97751 23.69066,34.57198 24.79253,55.78338 1.10209,21.21158 11.2946,47.7948 30.57753,79.74964 13.22274,23.13981 24.65499,39.11733 34.29678,47.93255 9.64135,8.81523 22.45079,15.70212 38.42832,20.66067 15.97751,4.95854 55.50804,3.44338 118.59158,-4.54549 63.08374,-7.98864 109.63891,-3.71881 139.6655,12.80954 30.0266,16.52858 51.37587,31.67964 64.04776,45.4532 18.18128,-5.50938 60.35946,-34.23359 64.76696,-105.8568 -18.18128,-11.01899 -27.54733,-26.17006 -28.09817,-45.45321 l -8.26437,-62.8082 c -1.1021,-8.81524 4.68292,-14.32472 17.35503,-16.52846 12.12085,-1.1021 19.00762,3.02998 20.66033,12.39626 l 7.43784,61.98164 c 4.95854,13.22295 10.19259,13.22295 15.70219,0 l 4.9584,-63.63446 c 1.10216,-8.26417 7.98904,-12.39626 20.66074,-12.39626 12.1208,1.65313 17.9057,7.16262 17.3547,16.52847 l -5.785,61.98165 c -1.1021,20.93606 -10.7438,36.91358 -28.92474,47.93257 -2.20373,62.25717 -15.12139,90.1352 -25.31403,108.59199 -10.19239,18.45658 -39.17755,36.65769 -38.62672,49.32956 24.24169,85.39701 9.36615,128.09551 -44.62663,128.09551 h -333.8745 c -15.42669,0 -23.14005,-4.40761 -23.14005,-13.22284 0,-23.69086 7.1623,-38.01559 21.48689,-42.97413 4.95855,-2.20375 25.34369,-1.37719 61.15541,2.4797 35.81172,3.85667 68.86864,6.61147 99.17076,8.2644 30.30212,1.65314 43.52488,-1.65259 39.6682,-9.91721 -10.46814,-14.3246 -19.5588,-27.27179 -27.27193,-38.8416 -12.12085,5.50937 -25.06817,10.8811 -38.84193,16.11517 -13.77376,5.23407 -38.01547,7.02465 -72.7251,5.37172 -34.70962,-1.65314 -58.95131,-3.03053 -72.72511,-4.13219 z m 3.30564,-24.79286 c 13.22273,3.30584 36.50032,6.1984 69.83276,8.67768 33.33222,2.47927 55.78334,0.68868 67.35338,-5.37174 11.5698,-6.06041 22.58876,-10.46802 33.05691,-13.22284 -23.13983,-63.91009 -12.53412,-95.58959 31.81707,-95.03855 44.35142,0.55105 87.46308,29.47577 129.33501,86.77417 l 0.82659,14.04942 C 826.70244,558.52873 788.41156,531.39449 760.864,530.5679 c -27.54732,-0.82656 -39.39265,11.98299 -35.53596,38.42866 3.85666,26.44545 26.72097,62.808 68.59289,109.08764 -1.10209,9.91711 -42.6987,11.29451 -124.78987,4.1322 l -103.30262,-9.91688 c -10.46793,0 -16.52836,10.74345 -18.18129,32.23035 h 7.43783 c 0,-17.63045 6.88688,-26.44567 20.66066,-26.44567 -6.06043,6.06044 -9.09063,14.87565 -9.09063,26.44567 h 5.78468 c 0,-11.57002 9.09075,-17.63045 27.27224,-18.18128 -9.91711,8.81522 -14.87566,14.87564 -14.87566,18.18128 h 257.84348 c -25.34357,-37.46442 -40.21912,-66.66468 -44.62662,-87.60075 12.67168,9.9171 23.69065,23.55311 33.05691,40.90804 9.36606,17.35471 20.93598,29.75097 34.70975,37.18878 13.77357,7.43783 29.47555,5.92278 47.106,-4.54515 17.63022,-10.46814 16.25284,-45.17788 -4.13219,-104.1292 7.71333,-16.52858 40.00423,-36.93352 48.54394,-55.94115 8.53969,-19.00763 21.18179,-43.57993 24.48741,-98.67479 20.93605,-13.22274 31.67955,-29.20026 32.23035,-47.93259 l 4.9584,-55.37039 c 0.5511,-7.16228 -1.9282,-11.01885 -7.4377,-11.56969 -4.9584,-0.55104 -7.9887,2.75458 -9.0906,9.91686 l -4.13192,55.37041 c -1.10216,8.26417 -4.40786,14.18685 -9.91728,17.768 -5.50937,3.58112 -11.15661,3.7189 -16.94175,0.41328 -5.7849,-3.30564 -9.22827,-9.09054 -10.33014,-17.35471 l -7.43784,-55.3704 c -0.55104,-7.1623 -3.58124,-10.46802 -9.09064,-9.91719 -4.95854,1.10209 -7.16229,5.23429 -6.61125,12.39658 l 6.61125,54.54383 c 0.55107,17.63023 11.01909,33.33223 31.40411,47.10601 -0.55104,79.88739 -44.65755,116.60035 -70.55197,129.82308 -7.71335,8.81524 -16.25305,5.78502 -25.61909,-9.09064 -9.36627,-14.87563 -29.20047,-28.92483 -59.50261,-42.14756 -30.30213,-13.22272 -74.51567,-15.702 -132.64065,-7.43781 -58.12496,8.26439 -98.75735,8.26439 -121.89718,0 -23.13984,-8.26419 -39.11737,-17.76799 -47.93258,-28.51145 -8.81523,-10.74346 -19.55868,-27.13414 -32.23036,-49.17212 -19.83419,-33.0569 -30.85316,-61.43069 -33.05691,-85.12133 -2.20375,-23.69087 -11.01898,-41.87215 -26.44567,-54.54383 -4.95857,0 -7.43783,-3.85667 -7.43783,-11.57002 12.6719,-4.95855 29.47588,-8.26429 50.41196,-9.91722 l -50.41196,-4.95843 c 38.01547,-38.01547 95.03869,-71.89876 171.06963,-101.64982 l -4.13219,-3.30564 c -35.26069,13.22272 -66.52703,25.89452 -93.79905,38.01538 -27.2718,12.12084 -53.57949,31.40398 -78.92307,57.84945 -8.81522,11.01896 -19.69643,19.42092 -32.64365,25.20582 -12.94741,5.7851 -22.86452,9.36625 -29.75129,10.74344 -6.88678,1.3776 -13.22272,7.43804 -19.00783,18.18127 -5.78491,10.74366 -13.22273,18.59466 -22.31348,23.55299 -9.09052,4.95857 -26.5831,19.83421 -52.4777,44.62695 -12.67169,3.30563 -18.73214,14.32459 -18.1813,33.05693 -3.30563,6.61126 -3.85667,13.49813 -1.65313,20.66063 0,3.85648 2.20386,4.68305 6.61157,2.47973 12.12085,-4.40751 19.8341,-12.39628 23.13973,-23.96628 l -21.48691,16.52845 -1.65315,-2.4797 c 8.81502,-8.81521 17.63014,-15.70211 26.44534,-20.66066 l 1.65316,3.30564 -4.95844,3.3056 c 9.36605,-0.55103 17.07929,3.85658 23.13971,13.22284 39.11733,-12.67168 68.04217,-19.55857 86.7745,-20.66066 18.7321,-1.10208 33.05669,-11.84554 42.9738,-32.23034 2.20375,13.77377 -0.41327,24.79273 -7.8511,33.05692 -7.43783,8.26417 -20.5228,13.49813 -39.2549,15.70188 6.06043,1.65315 10.33028,3.85701 12.80955,6.61159 2.47927,2.75479 7.851,18.18127 16.11519,46.27945 24.79274,50.68734 37.05134,83.05557 36.77582,97.10465 -0.27553,14.04929 -27.13425,23.82862 -80.57621,29.338 -53.44195,5.5096 -90.63096,13.77389 -111.56701,24.79287 -20.93609,11.01874 -33.60787,22.03761 -38.01538,33.05659 -4.40751,11.01896 -4.13198,22.31346 0.82656,33.88348 4.95835,11.56981 20.93576,16.66603 47.93225,15.28862 26.9965,-1.37761 86.7744,-5.09642 179.33369,-11.15642 9.36606,4.40751 22.8643,7.71314 40.49476,9.9169 24.2417,2.20375 36.63796,-6.06042 37.18878,-24.79254 h -2.4797 c -9.36605,13.22272 -19.83397,19.83409 -31.40377,19.83409 v -4.1322 c 6.06041,-1.10209 11.5699,-6.33605 16.52844,-15.70189 l -9.09062,-0.82658 c -1.10211,8.81502 -7.71347,14.32441 -19.83411,16.52815 l 0.82658,-4.13218 10.74344,-13.22252 c -98.61972,-0.55105 -163.08064,0.68846 -193.38276,3.71858 -30.30213,3.03032 -45.45321,-2.61682 -45.45321,-16.94142 -0.55103,-18.18127 14.60004,-24.37947 45.45321,-18.59456 30.85317,5.78489 73.96496,7.98865 129.33535,6.61126 55.37018,-1.37762 88.28924,-4.95877 98.75715,-10.74343 10.46814,-5.78491 15.97764,-30.71532 16.52847,-74.79123 l 11.57002,18.18128 z m -126.84241,-380.45787 -24.92454,1.73922 z"
     id="path1-8"
     sodipodi:nodetypes="cccsccccccccccccscccsccccccccccccsccccccccsscccsssccssscccsccccsccccccssscsccccccccssccccscscccccccccccccscssscccccsccccsscsccssccccccccccccssccsccccccsscccccccssccscsccccccsccccccccccccccccscscccsccssccccccccccccccscscccccc" />
  <path
     style="fill:#000000;stroke:none;stroke-width:8.80713"
     d="m 408.94632,230.12229 c 0.55535,-57.52096 9.86922,-115.62746 27.9416,-174.319488 13.46154,3.020573 22.88111,3.980612 28.2587,2.880117 -21.1836,66.655471 -39.91704,123.801921 -56.2003,171.439371 z M 427.38167,40.939695 c -5.94921,21.473813 -10.73062,40.230443 -14.34425,56.269893 -3.61354,16.039442 -7.86383,40.656492 -12.75078,73.851162 -3.82094,25.95376 -3.73573,51.49021 0.25558,76.60935 l 11.97153,0.66076 C 443.97055,165.27669 472.67862,83.74354 498.63798,3.7313944 495.72313,0.01800672 491.4792,-0.92377982 485.90618,0.9060337 L 469.68661,46.116971 c -7.69027,2.435665 -21.79189,0.709799 -42.30484,-5.177597 z"
     id="path1-5"
     sodipodi:nodetypes="ccccsssccccccs" />
  <path
     style="fill:#000000;stroke:none;stroke-width:12.4509"
     d="m 839.34607,470.15305 q 0.95664,-99.08186 32.08691,-200.18084 23.18797,5.20305 32.45104,3.3074 -36.48948,114.81628 -64.53795,196.87344 z m 21.17035,-217.24898 q -10.24773,36.98938 -16.47231,64.61787 -6.22444,27.62848 -14.6424,84.8074 -8.41797,57.17896 5.17718,112.00617 59.41762,-155.14274 107.76511,-304.1598 -5.0209,-6.39645 -14.6206,-3.24452 l -18.62585,51.91825 q -13.24676,4.19551 -48.58104,-5.94574 z"
     id="path1-5-0" />
  <path
     style="fill:#000000;stroke:none;stroke-width:0.999999"
     d="m 76.747551,585.9258 c -26.09715,0 -39.0009,16.81678 -38.71093,50.45312 0.28996,33.63634 14.20884,60.60455 41.75586,80.90235 27.546979,20.29779 55.819559,30.44726 84.816409,30.44726 l 209.02089,0 C 419.50125,813.42098 475.466,862.66097 541.52235,895.44924 V 1000 h 34.79493 v -90.12498 c 57.62394,18.67976 113.87793,10.59108 168.76171,-24.26758 64.37305,-40.88556 69.88354,-86.8445 16.5293,-137.87891 l 268.97551,0 V 713.8008 l -865.97487,0 c -28.41692,-28.41688 -43.93132,-56.83308 -46.54101,-85.25 -2.60973,-28.41691 -16.38304,-42.625 -41.320329,-42.625 z m 0,23.48633 c 9.27899,0 14.78947,10.29505 16.5293,30.88281 1.7398,20.58777 17.978169,47.9888 48.714849,82.20508 -28.99685,-9.27902 -49.584999,-22.03719 -61.763679,-38.27539 -12.17867,-16.23827 -17.97837,-32.76585 -17.39843,-49.58399 0.57993,-16.81816 5.21891,-25.22851 13.91796,-25.22851 z m 375.173239,138.3164 h 89.60156 v 86.66016 c -35.99902,-22.53151 -65.86709,-51.4181 -89.60156,-86.66016 z m 124.39649,0 h 86.99023 c 88.15041,55.094 119.61206,94.964 94.38477,119.61133 -25.22722,24.64729 -72.92529,25.08208 -143.09766,1.30469 -13.33449,-4.5183 -26.09462,-9.63375 -38.27734,-15.3457 z"
     id="path6"
     sodipodi:nodetypes="sssscccccsccccssssscsssccccccsscc" />
</svg>
