<?xml version="1.0" encoding="UTF-8" standalone="no"?>
<svg
   width="1100"
   height="1000"
   version="1.1"
   id="svg1"
   sodipodi:docname="13A44.svg"
   inkscape:version="1.4.3 (0d15f75, 2025-12-25)"
   xmlns:inkscape="http://www.inkscape.org/namespaces/inkscape"
   xmlns:sodipodi="http://sodipodi.sourceforge.net/DTD/sodipodi-0.dtd"
   xmlns="http://www.w3.org/2000/svg"
   xmlns:svg="http://www.w3.org/2000/svg">
  <defs
     id="defs1" />
  <sodipodi:namedview
     id="namedview1"
     pagecolor="#ffffff"
     bordercolor="#000000"
     borderopacity="0.25"
     inkscape:showpageshadow="2"
     inkscape:pageopacity="0.0"
     inkscape:pagecheckerboard="0"
     inkscape:deskcolor="#d1d1d1"
     showguides="true"
     inkscape:zoom="0.25298066"
     inkscape:cx="-57.316634"
     inkscape:cy="843.93803"
     inkscape:window-width="1680"
     inkscape:window-height="998"
     inkscape:window-x="-8"
     inkscape:window-y="-8"
     inkscape:window-maximized="1"
     inkscape:current-layer="svg1">
    <sodipodi:guide
       position="1045.7305,663.86236"
       orientation="1,0"
       id="guide1"
       inkscape:locked="false" />
  </sodipodi:namedview>
  <path
     id="path1-8"
     style="fill:#000000;stroke:none;stroke-width:29.8049"
     d="m 343.81011,316.5809 c -10.914,0.53497 -19.58199,5.08129 -26.00215,13.64137 0.57078,5.13604 -2.28211,10.84362 -8.55948,17.12099 l 5.13649,3.42298 5.13448,-5.99224 c 24.53895,0 36.52425,-9.13064 35.95349,-27.39198 -4.13732,-0.71335 -8.02483,-0.97944 -11.66283,-0.80112 z m -104.00454,81.80167 c -3.63808,0.21399 -7.59732,2.03219 -11.87728,5.45613 l 2.56725,4.28076 c 5.70638,-3.99473 8.98796,-4.13823 9.84411,-0.42889 0.85615,3.70912 -2.7104,5.85038 -10.69986,6.42113 l 0.85575,5.13448 c 11.4132,-0.57077 17.54744,-3.85213 18.4036,-9.84411 0.85593,-5.99174 -0.99808,-9.55832 -5.56337,-10.69987 -1.14137,-0.28533 -2.31751,-0.39097 -3.5302,-0.31963 z m 18.08194,16.58488 c -9.13076,5.13605 -18.2614,12.26896 -27.39197,21.39973 l 1.71149,2.56926 c 8.98863,-7.10993 17.05683,-15.91346 27.39191,-20.54594 z m -2.40135,6.16421 -0.002,0.002 0.006,-0.002 c -0.001,4.5e-4 -0.003,-4.9e-4 -0.004,0 z M 219.63585,144.81864 c -8.73839,-0.3746 -13.10728,4.92968 -13.10728,15.91527 7.41868,10.27188 20.40066,29.81698 38.94758,58.63582 18.54675,28.81905 35.80914,46.36823 51.78783,52.6456 13.50133,5.30412 25.57715,8.16284 36.22659,8.5777 -8.50252,0.99918 -14.87077,6.55742 -19.1056,16.6739 -5.13606,12.26956 -13.26781,21.5435 -24.39584,27.82086 -11.12804,6.27737 -19.68849,12.84033 -25.68049,19.68823 -5.99221,6.84815 -14.69594,15.40837 -26.10936,25.68049 -24.53892,7.41869 -36.52226,24.53758 -35.95147,51.35893 -2.28265,7.41868 -2.28265,14.83858 0,22.2575 0,10.27209 5.99257,15.1225 17.97674,14.55174 1.14132,19.97342 7.41706,29.95921 18.83047,29.95921 9.70135,-0.57057 14.55376,-5.13578 14.55376,-13.69599 15.97894,-0.57056 23.96696,-5.13597 23.96696,-13.69598 0,-5.70683 3.71004,-8.84447 11.12875,-9.41524 l 28.24773,-11.98449 c 14.8374,1.14131 26.96417,3.9942 36.38034,8.55948 9.41594,4.56551 17.5477,21.11605 24.39585,49.64948 32.52817,54.78447 41.51735,84.45864 26.96511,89.02392 -14.55198,4.56528 -42.80084,9.13049 -84.74518,13.69599 -41.94433,4.56528 -75.89875,13.55444 -101.86416,26.96511 -25.96542,13.4109 -41.23211,27.82018 -45.79761,43.22834 -4.56527,15.40793 -4.13679,30.52912 1.28464,45.36669 5.4212,14.83739 10.98529,23.39786 16.69211,25.68048 5.7066,2.28264 22.82732,3.56649 51.36096,3.85187 28.53345,0.28539 90.7367,-3.28116 186.60935,-10.69985 13.1253,5.13583 32.24149,8.27571 57.3512,9.41725 22.82661,1.14132 36.52447,-7.56243 41.08998,-26.10937 4.56527,-18.5465 -2.42614,-28.39081 -20.97287,-29.53235 -18.54671,-1.14154 -31.53069,-1.855 -38.94961,-2.14037 -1.72738,-0.0665 -3.47802,-0.11623 -5.25181,-0.15174 3.34321,-0.22606 6.66468,-0.46105 9.96145,-0.70402 27.10672,-1.9975 44.93909,-4.13848 53.49932,-6.42112 5.13559,-3.42366 9.41645,-7.70279 12.84024,-12.83823 14.26686,1.1411 39.37581,2.56845 75.32793,4.28076 35.95213,1.7121 61.06315,-0.14395 75.32996,-5.56539 14.26682,-5.42143 27.67747,-10.98349 40.23221,-16.69008 7.98924,11.98397 17.40486,25.39281 28.24773,40.23019 3.99474,8.56047 -9.70112,11.98532 -41.08796,10.273 -31.38685,-1.7121 -65.62827,-4.56476 -102.72194,-8.55948 -37.09367,-3.99496 -58.20738,-4.8519 -63.34343,-2.56927 -14.83737,5.13604 -22.25547,19.97405 -22.25547,44.51298 0,9.13078 7.98804,13.69599 23.96696,13.69599 h 345.82672 c 55.92556,0 71.33393,-44.22719 46.22446,-132.68116 -0.57054,-13.12548 29.45245,-31.97866 40.00969,-51.09594 10.55751,-19.11749 23.93801,-47.99326 26.22061,-112.47905 18.8317,-11.41344 28.8177,-27.96195 29.9592,-49.64745 l 5.9923,-64.20121 c 0.5707,-9.70112 -5.4221,-15.40869 -17.9768,-17.121 -13.1253,0 -20.2581,4.28024 -21.3997,12.84024 l -5.1365,65.9127 c -5.70681,13.6963 -11.12717,13.6963 -16.26321,0 l -7.70374,-64.19918 c -1.71188,-9.70157 -8.84499,-13.98179 -21.39973,-12.84024 -13.12573,2.28263 -19.11829,7.98817 -17.97674,17.11897 l 8.55949,65.05695 c 0.57055,19.97343 10.27135,35.66678 29.10347,47.08022 -4.56528,74.1871 -48.25193,103.94019 -67.08405,109.64679 -13.1255,-14.26661 -35.24012,-29.95996 -66.34158,-47.08021 -31.10146,-17.12001 -79.32369,-21.54373 -144.66564,-13.26912 -65.34174,8.27485 -106.28555,9.84567 -122.83501,4.70963 -16.54948,-5.13605 -29.81887,-12.27096 -39.80535,-21.40175 -9.98693,-9.13078 -21.82853,-25.6793 -35.5246,-49.64745 -19.9732,-33.09872 -30.52917,-60.63392 -31.67071,-82.60481 -1.14131,-21.9707 -9.70179,-41.23061 -25.68048,-57.78007 23.39738,-1.71209 42.80082,-6.84747 58.20896,-15.40748 15.40817,-8.55999 33.81067,-26.25089 55.21081,-53.07246 21.40013,-26.82158 35.80966,-44.79764 43.22835,-53.9282 1.71186,-12.55517 -3.42353,-17.97756 -15.40748,-16.26525 -37.09368,11.98419 -71.1916,23.82603 -102.29306,35.5246 -31.10147,11.69882 -57.20909,33.52619 -78.32405,65.48381 -23.96814,-27.96288 -50.78968,-49.2201 -80.46444,-63.77232 -29.67476,-14.55198 -62.4888,-29.81686 -98.44117,-45.79558 -1.42667,-0.28536 -2.76335,-0.45427 -4.01169,-0.50779 z m 1.44445,9.92302 c 35.38157,17.12003 66.48309,33.24208 93.30467,48.36484 26.82155,15.12276 50.50322,35.23784 71.04718,60.34732 l -11.12672,3.42501 C 344.63066,232.068 292.128,195.2587 216.79955,156.45316 Z m 363.80144,7.70374 4.28076,3.42501 c -78.75262,30.81606 -137.81781,65.91084 -177.19412,105.28715 l 52.21672,5.13651 c -21.68553,1.7121 -39.0912,5.13694 -52.21672,10.27299 0,7.98946 2.56767,11.98247 7.70374,11.98247 15.97892,13.12529 25.11136,31.95853 27.39401,56.49747 2.28263,24.5387 13.69577,53.92794 34.23996,88.16818 13.12529,22.82687 24.25343,39.80403 33.38422,50.93207 9.13077,11.12805 25.67927,20.97233 49.64745,29.53236 23.96817,8.56023 66.05638,8.56023 126.26204,0 60.20568,-8.56003 106.00191,-5.99232 137.38876,7.70374 31.38687,13.69606 51.93039,28.24909 61.63194,43.65722 9.70132,15.40817 18.54677,18.54603 26.53623,9.41523 26.82136,-13.69606 72.50552,-51.72239 73.07629,-134.4695 -21.11474,-14.26684 -31.95565,-30.53239 -32.52645,-48.79373 l -6.848,-56.49544 c -0.57076,-7.41868 1.71196,-11.69871 6.848,-12.84025 5.70662,-0.57055 8.84446,2.85229 9.41523,10.27098 l 7.70374,57.35321 c 1.14131,8.56 4.70788,14.55277 10.69986,17.97675 5.99223,3.42395 11.84128,3.28043 17.5479,-0.42889 5.7066,-3.70934 9.1314,-9.8436 10.273,-18.4036 l 4.2807,-57.35321 c 1.1413,-7.41867 4.2794,-10.84175 9.4153,-10.27099 5.7067,0.57056 8.2745,4.56583 7.7037,11.9845 l -5.1365,57.35119 c -0.5705,19.40289 -11.6987,35.9534 -33.38423,49.64948 -3.42395,57.06709 -16.51748,82.51801 -25.36287,102.20605 -8.8454,19.68805 -42.29324,40.82368 -50.28268,57.94394 21.11475,61.0616 22.54208,97.01354 4.28075,107.85641 -18.26157,10.84265 -34.52508,12.4117 -48.7917,4.70761 -14.26683,-7.70406 -26.25215,-20.54274 -35.95348,-38.5187 -9.70154,-17.97618 -21.11469,-32.10049 -34.23998,-42.37259 4.56528,21.68552 19.97368,51.92988 46.22447,90.73542 H 584.026 c 0,-3.42398 5.13739,-9.70171 15.4095,-18.83249 -18.83233,0.57055 -28.24975,6.84829 -28.24975,18.83249 h -5.99224 c 0,-11.9842 3.13988,-21.1146 9.41725,-27.39199 -14.26684,0 -21.39972,9.13042 -21.39972,27.39199 h -7.70577 c 1.7121,-22.25607 7.98984,-33.38423 18.83249,-33.38423 l 107.00067,10.273 c 85.02978,7.4187 128.11662,5.99136 129.25816,-4.28076 -43.37081,-47.93631 -67.05448,-85.60079 -71.04921,-112.99291 -3.99475,-27.39234 8.27378,-40.65947 36.80721,-39.80332 28.53368,0.85618 68.19564,28.96126 118.98516,84.3163 l -0.85574,-14.55173 c -43.37082,-59.34952 -88.02671,-89.31092 -133.96578,-89.8817 -45.93883,-0.57077 -56.92351,32.2433 -32.95534,98.44118 -10.84288,2.85344 -22.25601,7.41863 -34.23997,13.69599 -11.98421,6.27736 -35.23915,8.13139 -69.76457,5.56336 -34.52564,-2.56803 -58.63575,-5.56216 -72.33181,-8.98634 l -1.71351,-37.66499 -11.98449,-18.83249 c -0.57055,45.6537 -6.27612,71.47632 -17.11898,77.46832 -10.84263,5.99173 -44.94078,9.70181 -102.29305,11.12874 -57.35248,1.4267 -102.00815,-0.85602 -133.96578,-6.84799 -31.95762,-5.99199 -47.65096,0.42724 -47.0802,19.25935 0,14.83738 15.69335,20.68666 47.0802,17.54786 31.38685,-3.13859 98.15533,-4.42264 200.30534,-3.85187 l -11.12672,13.69598 -0.85574,4.28076 c 12.55452,-2.28262 19.40241,-7.99042 20.54397,-17.12099 l 9.41523,0.85776 c -5.13604,9.70112 -10.84363,15.12169 -17.12099,16.26323 v 4.28076 c 11.98397,0 22.82715,-6.84794 32.52847,-20.54399 h 2.56927 c -0.57054,19.40267 -13.41124,27.9611 -38.52072,25.67846 -18.26158,-2.28264 -32.24238,-5.70568 -41.94371,-10.27098 -95.87264,6.27694 -157.79072,10.12869 -185.75361,11.55562 -27.96289,1.42671 -44.51161,-3.8524 -49.64745,-15.83637 -5.13604,-11.98419 -5.42305,-23.68231 -0.85777,-35.09571 4.56529,-11.41343 17.69093,-22.8268 39.37647,-34.23997 21.6855,-11.41343 60.20716,-19.97366 115.56217,-25.68049 55.35502,-5.7066 83.17516,-15.83588 83.46056,-30.3881 0.28538,-14.55199 -12.41362,-48.07976 -38.09386,-100.58155 -8.56002,-29.10401 -14.12207,-45.08256 -16.69009,-47.93596 -2.56802,-2.85319 -6.99175,-5.13566 -13.26913,-6.84799 19.40266,-2.28263 32.95702,-7.70323 40.6611,-16.26323 7.70409,-8.56002 10.41324,-19.97314 8.13061,-34.23997 -10.27212,21.11452 -25.10829,32.24269 -44.51096,33.38422 -19.40289,1.14155 -49.36407,8.27445 -89.88168,21.39974 -6.27737,-9.70155 -14.26564,-14.26675 -23.96697,-13.696 -3.42396,11.98418 -11.41424,20.25946 -23.96898,24.82474 -4.5655,2.2822 -6.848,1.42527 -6.848,-2.56926 -2.28242,-7.4189 -1.71247,-14.55181 1.71149,-21.39973 -0.57056,-19.4029 5.70719,-30.81601 18.83249,-34.23997 26.82155,-25.68025 44.94116,-41.08839 54.35709,-46.22446 9.41617,-5.13582 17.11923,-13.2676 23.11122,-24.39585 5.9922,-11.1278 12.55493,-17.40557 19.68823,-18.83249 7.1333,-1.42648 17.40611,-5.13656 30.817,-11.12875 13.41069,-5.99199 24.68029,-14.69393 33.81107,-26.10734 26.25081,-27.39214 53.50102,-47.36572 81.74907,-59.92045 28.24827,-12.55475 60.63363,-25.68042 97.15654,-39.37648 z m -356.95345,5.99225 c 34.24029,22.2563 58.92055,38.8048 74.04331,49.64745 15.12276,10.84288 32.38721,26.25103 51.78985,46.22446 l -28.24975,0.85575 c -27.96288,-1.71186 -60.48994,-33.95373 -97.58341,-96.72766 z m 348.39397,6.848 c -42.22951,59.34974 -77.3263,88.73896 -105.28917,88.16817 l -27.39198,-3.42299 c 21.11474,-18.26156 39.66102,-32.10089 55.6397,-41.51685 15.97893,-9.41615 41.6601,-23.82568 77.04145,-43.22833 z m -310.73101,251.6663 h 2.56926 v 9.41523 c 0.57056,13.69584 -2.56933,20.82897 -9.41726,21.39973 v -11.9845 l -20.54397,21.40175 c -0.57053,-10.2721 3.85316,-17.9774 13.26912,-23.11324 9.41616,-5.13604 14.12285,-10.8416 14.12285,-17.11897 z m -4.92004,252.62724 c 7.56138,-0.21403 18.90277,1.03394 34.02553,3.74466 3.88994,0.69726 7.77897,1.34262 11.6689,1.93605 -3.88993,0.44192 -7.77896,0.93847 -11.6689,1.48896 -30.24551,4.27967 -45.36872,3.56622 -45.36872,-2.14038 0,-3.1388 3.78181,-4.81525 11.34319,-5.02929 z" />
  <path
     style="fill:#000000;stroke:none;stroke-width:8.80713"
     d="m 401.96909,240.95014 c 0.58149,-60.22747 10.3336,-121.06804 29.25632,-182.521671 14.09495,3.162698 23.95773,4.16791 29.58835,3.015633 C 438.63342,131.23589 419.01852,191.07122 401.96909,240.95014 Z M 421.27188,42.866013 c -6.22914,22.484212 -11.23552,42.12339 -15.01919,58.917537 -3.78357,16.79414 -8.23384,42.56948 -13.35074,77.32605 -4.00072,27.17495 -3.9115,53.91296 0.26761,80.21402 l 12.53482,0.69185 C 438.6413,173.05338 468.70016,87.683891 495.88098,3.9069662 492.82898,0.01885403 488.38536,-0.96724593 482.55011,0.948665 l -16.98274,47.338229 c -8.05212,2.55027 -22.81725,0.743197 -44.29539,-5.421216 z"
     id="path1-5"
     sodipodi:nodetypes="ccccsssccccccs" />
  <path
     style="fill:#000000;stroke:none;stroke-width:12.4509"
     d="m 847.64683,489.77822 q 0.99088,-102.62869 33.23552,-207.34671 24.01803,5.3893 33.61269,3.42579 -37.79569,118.92636 -66.84821,203.92092 z m 21.92818,-225.02584 q -10.61456,38.31349 -17.06196,66.93099 -6.44726,28.6175 -15.16656,87.84325 -8.71931,59.2258 5.36251,116.01566 61.54459,-160.69639 111.62278,-315.04781 -5.20064,-6.62542 -15.14398,-3.36066 l -19.2926,53.77676 q -13.72095,4.3457 -50.32009,-6.15858 z"
     id="path1-5-0" />
  <path
     style="fill:#000000;stroke:none;stroke-width:0.999999"
     d="m 76.747551,615.57234 c -26.09715,0 -39.0009,16.81678 -38.71093,50.45312 0.28996,33.63634 14.20884,60.60455 41.75586,80.90235 27.546979,20.29779 55.819559,30.44726 84.816409,30.44726 h 209.02089 c 45.87147,65.69245 101.83622,114.93244 167.89257,147.72071 l 0,74.90422 h 34.79493 l 0,-60.47844 c 57.62394,18.67976 113.87793,10.59108 168.76171,-24.26758 64.37305,-40.88556 69.88354,-86.8445 16.5293,-137.87891 H 1030.5838 V 743.44734 H 164.60893 c -28.41692,-28.41688 -43.93132,-56.83308 -46.54101,-85.25 -2.60973,-28.41691 -16.38304,-42.625 -41.320329,-42.625 z m 0,23.48633 c 9.27899,0 14.78947,10.29505 16.5293,30.88281 1.7398,20.58777 17.978169,47.9888 48.714849,82.20508 -28.99685,-9.27902 -49.584999,-22.03719 -61.763679,-38.27539 -12.17867,-16.23827 -17.97837,-32.76585 -17.39843,-49.58399 0.57993,-16.81816 5.21891,-25.22851 13.91796,-25.22851 z m 375.173239,138.3164 h 89.60156 v 86.66016 c -35.99902,-22.53151 -65.86709,-51.4181 -89.60156,-86.66016 z m 124.39649,0 h 86.99023 c 88.15041,55.094 119.61206,94.964 94.38477,119.61133 -25.22722,24.64729 -72.92529,25.08208 -143.09766,1.30469 -13.33449,-4.5183 -26.09462,-9.63375 -38.27734,-15.3457 z"
     id="path6"
     sodipodi:nodetypes="sssscccccsccccssssscsssccccccsscc" />
</svg>
