<?xml version="1.0" encoding="UTF-8" standalone="no"?>
<svg
   width="1400"
   height="1000"
   version="1.1"
   id="svg1"
   sodipodi:docname="13A9F.svg"
   inkscape:version="1.4.2 (f4327f4, 2025-05-13)"
   xmlns:inkscape="http://www.inkscape.org/namespaces/inkscape"
   xmlns:sodipodi="http://sodipodi.sourceforge.net/DTD/sodipodi-0.dtd"
   xmlns="http://www.w3.org/2000/svg"
   xmlns:svg="http://www.w3.org/2000/svg">
  <defs
     id="defs1" />
  <sodipodi:namedview
     id="namedview1"
     pagecolor="#ffffff"
     bordercolor="#000000"
     borderopacity="0.25"
     inkscape:showpageshadow="2"
     inkscape:pageopacity="0.0"
     inkscape:pagecheckerboard="0"
     inkscape:deskcolor="#d1d1d1"
     showguides="true"
     inkscape:zoom="0.25"
     inkscape:cx="606"
     inkscape:cy="842"
     inkscape:window-width="1680"
     inkscape:window-height="998"
     inkscape:window-x="-8"
     inkscape:window-y="-8"
     inkscape:window-maximized="1"
     inkscape:current-layer="svg1" />
  <path
     style="fill:#000000;stroke:none;stroke-width:34.5452"
     d="m 748.34273,46.764794 -14.23282,52.86459 c 25.07684,-1.355511 37.27636,-6.099746 36.59857,-14.232775 L 752.40919,46.764794 Z m 71.16378,13.216164 8.13303,11.182887 c -6.09977,8.132996 -8.47188,27.110028 -7.11636,56.931055 h -10.16622 c -3.38884,-36.598545 -0.33898,-59.303188 9.14955,-68.113942 z m -76.24693,93.529632 c -11.52174,10.844 -31.17653,18.29924 -58.96431,22.36574 -17.62154,3.38879 -18.63817,0.67773 -3.04991,-8.13301 -3.38872,-17.6215 1.86385,-27.95719 15.75774,-31.00712 13.89388,-3.04987 29.31273,2.54159 46.25648,16.77439 z M 1286.138,979.01108 c 37.9541,0 53.3729,-17.1132 46.2565,-51.33965 -7.1164,-34.22639 -17.791,-57.94765 -32.0237,-71.16376 -14.2328,-13.21618 -36.7681,-47.78151 -67.6057,-103.69598 -30.8377,-55.91438 -57.4394,-83.8716 -79.8051,-83.8716 -18.9771,0 -28.4656,34.56526 -28.4656,103.69585 0,69.13058 12.7079,119.7925 38.1234,151.98565 25.4157,32.19319 66.5892,50.32305 123.5202,54.38949 z m -117.9286,-336.5033 c 31.1766,-0.67762 59.8115,26.0934 85.9049,80.31352 26.0934,54.22002 51.0008,95.90169 74.722,125.04504 -7.4552,-103.01812 -48.4591,-182.65388 -123.0117,-238.90725 -15.5882,9.48854 -28.1267,20.67145 -37.6152,33.54869 z M 633.46392,216.54141 c 16.26603,2.03323 28.63499,1.18604 37.10687,-2.54156 8.47188,-3.72763 12.87726,-1.52497 13.21613,6.60806 0.33887,8.13301 -5.08308,9.99683 -16.26597,5.59146 -11.18293,-4.40541 -22.53527,-4.57486 -34.05703,-0.50831 -1.35547,12.19953 11.52181,15.92718 38.63181,11.18293 17.62154,23.72129 28.29612,43.54547 32.02372,59.4726 3.72764,15.92715 4.91371,32.3626 3.55821,49.3064 -36.59854,94.20734 -30.83763,185.02594 17.28268,272.45579 -10.84401,-15.58823 -16.9438,-44.39265 -18.29933,-86.41323 -1.3555,-42.02052 16.94377,-79.46624 54.89785,-112.33716 37.95405,-32.87094 70.14719,-49.30641 96.57948,-49.30641 26.4323,0 48.45917,11.18291 66.08073,33.54874 l -8.13303,7.11634 c -18.29927,-18.29927 -38.63175,-27.4489 -60.99754,-27.4489 -22.36581,0 -50.49249,18.29927 -84.38002,54.89781 -33.88752,36.59852 -46.4259,72.68876 -37.61511,108.27068 8.81074,35.58193 28.46549,66.75849 58.96425,93.52963 30.4988,26.77118 48.28974,18.97704 53.37289,-23.38237 5.08301,-42.35948 13.04671,-57.94773 23.8907,-46.76485 10.84399,11.18287 18.29927,20.84082 22.3658,28.97385 4.0663,8.13303 2.37195,36.2597 -5.08299,84.38003 65.74178,56.2533 119.62298,91.83523 161.64358,106.74573 -4.7445,-49.47582 3.8973,-94.03792 25.924,-133.68635 22.0269,-39.64841 48.2897,-69.63894 78.7885,-89.97146 -41.3429,-37.9541 -94.2075,-69.4695 -158.59384,-94.54627 -16.94379,-57.60882 -51.50908,-105.72911 -103.69592,-144.36092 2.03343,-6.09975 4.74446,-9.14963 8.13303,-9.14963 l 9.14968,2.03319 -19.3159,-19.31586 c 0,-6.09975 3.38868,-9.14963 10.16622,-9.14963 l -19.31582,-15.24937 c 0,-8.13302 2.71103,-12.19952 8.133,-12.19952 l -15.24943,-13.21618 c 0,-8.13303 2.37196,-12.19954 7.11643,-12.19954 l -17.28271,-13.21611 2.03327,-9.14961 h 11.18286 l -18.29924,-22.36579 11.18289,1.01661 -28.46556,-30.49875 19.31588,2.03326 c -14.23278,-12.19953 -22.7046,-18.29928 -25.4156,-18.29928 0,-9.48852 5.08301,-18.12985 15.24939,-25.92397 10.16626,-7.79414 -1.35524,-38.801256 -34.56532,-93.021318 h -2.0334 C 795.4464,89.124258 770.3696,119.28416 737.15982,119.9619 c -45.40928,-1.3555 -71.16382,4.40538 -77.2636,17.28267 -5.42201,6.77751 -18.97701,14.23278 -40.66502,22.36581 13.55503,-4.7443 20.33254,3.04983 20.33254,23.38239 -10.16629,1.35553 -15.24944,0 -15.24944,-4.06651 0,-4.7443 -1.35551,-5.76091 -4.06651,-3.04991 0.67776,21.01028 5.08317,34.56529 13.21613,40.66508 z M 296.96064,499.16354 c 6.77751,0 9.48853,-0.33908 8.13301,-1.01661 0.67775,-4.74425 2.9699,-7.77541 6.35861,-11.16417 3.38873,-3.38874 7.53527,-5.10188 12.9573,-3.06862 l 10.16627,-8.13302 -1.14146,-8.94491 61.12242,21.14443 c 22.36577,-18.29926 44.39268,-10.84402 66.08071,22.36574 31.85426,-6.77751 72.01098,-15.75769 120.47016,-26.94055 48.4592,-11.18289 74.38318,-15.7577 77.77191,-13.72448 -0.67776,-32.53202 7.45529,-74.55256 24.39905,-126.06163 0,-40.66507 -9.82738,-67.77511 -29.48216,-81.3301 -32.53202,4.74425 -47.10367,-10.50516 -43.71493,-45.74818 -8.81075,-4.06651 -13.21613,-21.34916 -13.21613,-51.84796 0,-10.844 12.87727,-20.6714 38.63178,-29.48215 8.81077,-23.72127 28.80443,-35.581915 59.98097,-35.581915 14.23279,0 21.3492,-3.049909 21.3492,-9.149655 6.77746,-25.076794 11.86058,-50.153573 15.24937,-75.230351 l 18.29923,-1.016598 29.48218,55.914452 C 785.28017,62.691962 794.09093,39.309524 806.29038,2.444473e-7 h 11.18294 C 835.7726,25.076778 851.86915,51.000759 865.76308,77.771894 c 13.8939,26.771146 11.35228,48.628626 -7.62474,65.572426 21.68801,13.55499 38.29291,28.46551 49.81471,44.73154 -10.16628,-0.67775 -16.60492,-0.33909 -19.3159,1.0166 l 18.29923,13.21614 5.083,8.13301 -18.29927,-4.06649 c 14.9105,7.45523 25.75455,15.58823 32.53203,24.39897 -12.1995,-2.71099 -22.02691,-3.04984 -29.48212,-1.01661 l 34.56523,26.4323 -11.18292,2.03327 -13.21612,-1.01663 c 3.38868,4.06652 14.91056,14.57165 34.56533,31.51541 -5.42209,0.67775 -10.50515,1.01664 -15.2494,1.01664 l 26.43226,26.43223 h -8.13301 l -21.34915,-3.04984 30.49881,27.44889 c -4.74446,0.67775 -7.45529,0.33908 -8.133,-1.01661 35.24304,25.07678 58.28655,59.64205 69.13055,103.69588 62.3531,28.46551 117.9286,63.36967 166.7266,104.71243 55.5756,-22.36572 114.2012,-37.27623 175.8764,-44.73152 28.4656,-3.38872 42.6984,5.08316 42.6984,25.41571 2.7111,20.33249 -10.1663,31.17647 -38.6318,32.53199 -55.5756,7.45524 -97.2572,17.28263 -125.045,29.48216 96.9184,67.77512 138.6,204.34189 125.045,409.70031 H 912.01938 c -8.13301,-60.31979 10.844,-88.44639 56.93106,-84.37995 37.95406,4.06628 79.63576,7.11639 125.04506,9.14968 -18.977,-19.65477 -32.532,-54.55891 -40.6651,-104.71252 -49.4758,-18.97701 -106.06797,-52.86454 -169.77659,-101.66263 -2.71103,27.78781 -7.45521,68.11402 -14.23275,120.97856 14.23275,54.89781 9.48852,77.60249 -14.23274,68.11394 l -56.93111,91.49636 c -26.4323,0.67766 -52.52567,1.01676 -78.28019,1.01676 H 669.0459 c -6.77755,-19.65488 -3.89714,-39.30963 8.64125,-58.96444 12.53841,-19.65476 35.4125,-27.78772 68.62235,-24.399 48.12031,-25.07678 48.79803,-108.10127 2.03323,-249.07341 -20.33254,-12.87726 -37.95405,-31.5154 -52.86458,-55.91445 -142.32766,-5.42203 -231.96022,-11.18288 -268.89766,-17.28264 -36.93739,-6.09977 -61.50585,-15.24943 -73.70539,-27.4489 -12.19952,-12.19951 -31.17653,-26.43229 -56.93105,-42.69833 -31.8543,8.81078 -56.08389,5.08316 -72.68879,-11.18287 -16.6049,-16.26602 -24.73154,-29.16879 -19.9873,-56.27881 4.45953,25.35318 122.76945,32.32698 119.10834,27.30495 -3.04316,-4.17437 -47.44256,13.72446 -75.23035,3.5582 -10.84402,-4.74422 -15.58827,-7.45522 -14.23277,-8.13301 -5.42198,7.45527 -5.42198,14.57166 0,21.34915 5.422,6.77751 19.3159,7.79414 41.68168,3.04991 -12.87726,-4.06651 -12.10477,-3.54251 -22.36574,-11.69123 -15.32812,-12.17278 -33.24111,-20.29962 -31.8151,-16.38771 -1.3555,7.45525 20.2933,22.31806 31.8151,31.12883 12.19952,-0.67776 19.14647,-1.52494 20.84084,-2.54159 1.69436,-1.01665 0.33886,-4.4054 -4.06651,-10.16629 -4.40538,-5.76086 -5.93031,-11.3523 -4.57481,-16.77431 l 9.78285,1.22531 c -2.03324,8.13302 5.8054,13.00746 22.74915,21.14042 z"
     id="path1"
     sodipodi:nodetypes="cccccccccccccsccssssssccsccccsssccsccsssccsssssssccscccccccccccccccccccsccccccsccccscccccsccccscsccccccscccccccccccccccccccccccccccccccccscscccsscscsccscsccssccccc" />
  <path
     style="fill:#000000;stroke:none;stroke-width:12.4007"
     d="m 172.97328,417.87991 q 23.25018,-42.00031 24.00018,-85.50059 -3.74998,-60.75049 -23.25017,-83.25066 -31.50024,34.50035 -31.50024,82.50064 0,57.0004 30.75023,86.25061 z m 193.50134,0 q 30.75022,-29.25021 30.75022,-86.25061 0,-48.00029 -31.50018,-82.50064 -19.50015,22.50017 -23.2502,83.25066 0.74963,43.50028 24.00016,85.50059 z m -96.75066,45.00024 q 51.00034,0 80.25056,-29.25016 -30.75022,-28.50019 -80.25056,-28.50019 -49.50035,0 -80.25056,28.50019 29.25021,29.25016 80.25056,29.25016 z m 0,-199.50129 q 49.50034,0 78.75055,-31.50029 -23.25017,-27.75011 -78.75055,-27.75011 -54.75037,0 -78.75055,27.75011 29.2502,31.50029 78.75055,31.50029 z m 0,123.75077 q 44.25032,-0.75062 71.2505,18.00017 -14.25012,-33.00015 -14.25012,-72.75048 0.74966,-37.50025 9.75008,-68.25053 -23.25015,14.25007 -66.75046,14.25007 -43.5003,0 -66.75046,-14.25007 9.00002,30.75028 9.75006,68.25053 0,39.75033 -14.25009,72.75048 27.0002,-18.7501 71.25049,-18.00017 z m 0,-209.25145 q 75.00051,0 116.25082,46.50034 41.25031,46.50039 41.25031,106.50076 0,69.00046 -46.50032,112.87579 -46.50036,43.87529 -111.00081,43.87529 -64.50045,0 -111.00078,-43.87529 -46.50033,-43.87533 -46.50033,-112.87579 0,-60.00037 41.2503,-106.50076 41.25029,-46.50034 116.25081,-46.50034 z"
     id="path2579" />
  <path
     style="fill:none;stroke:#000000;stroke-width:0.371652"
     id="path4"
     d="m 202.0869,468.08924 c 2.31162,2.24833 3.95693,5.05762 5.46425,7.8799 0.96276,1.79472 1.59912,3.72705 2.34678,5.61055 0.58037,1.19103 0.81512,2.49574 1.1839,3.75919 0.56587,1.66054 1.23972,3.27956 1.89602,4.90594 4.3545,8.44509 9.09413,6.9361 21.67877,14.05492 0.77811,0.0343 1.55624,0.003 2.33311,-0.0388 0.22626,-0.0129 0.46182,0.0302 0.67887,-0.0348 0.33521,-0.10041 0.63154,-0.30157 0.9473,-0.45237 0.3375,-0.19951 0.70824,-0.35127 1.01248,-0.59853 2.08743,-1.69645 3.11925,-4.35492 4.10342,-6.76613 0.57101,-1.63046 1.29758,-3.42629 0.83778,-5.16924 -2.36916,-7.72204 -16.2662,-10.1697 -20.38325,-12.45788 -0.15627,-0.0867 -0.36033,0.0626 -0.53564,0.0276 -0.13747,-0.0276 -0.23659,-0.15303 -0.36567,-0.20778 -0.1335,-0.0567 -0.27799,-0.0827 -0.41699,-0.12391 -4.9929,-6.0145 -0.47719,-0.50093 18.90228,10.90735 0.19939,0.11731 -0.47689,-0.0446 -0.75418,-0.63112 -0.23262,-0.49195 -0.28534,-1.29602 -0.34861,-1.81468 -0.0297,-1.5089 -0.094,-3.00535 -0.2096,-4.50926 -1.04966,-8.30682 -11.51297,-8.13681 -20.04549,-12.92682 -0.20267,-0.11377 -0.45514,0.12149 -0.65399,0.2418 -0.64514,0.39037 -0.86277,0.76419 -1.32661,1.33871 -1.72256,2.40777 -1.2054,4.67954 -0.42706,7.35075 1.44694,4.08565 3.62882,7.85415 5.88459,11.53699 1.41424,2.35289 2.99134,4.59634 4.51878,6.87422 5.31497,6.95042 13.65628,13.50339 22.50023,13.77881 1.40631,0.0756 2.863,-0.27278 4.12561,-0.90137 0.77143,-0.38407 1.46462,-0.90851 2.19786,-1.36123 0.23303,-0.16976 1.40625,-0.99322 1.63956,-1.27268 0.15789,-0.18912 1.20502,-1.87876 0.76395,-2.16831 -18.69097,-12.26989 -12.56351,-12.38523 -21.79526,-11.76807 -3.12519,0.26515 -5.89386,0.89324 -8.31155,2.96071 -0.17275,0.29576 -0.404,0.56439 -0.51826,0.88728 -2.64099,7.46329 12.73808,9.47802 19.64397,13.34897 0.3982,0.22321 0.90011,-0.15367 1.35223,-0.21659 3.7483,-0.52193 -0.30648,0.15126 4.31464,-0.66711 5.98736,-1.09615 11.90224,-2.73756 17.569,-4.96827 1.77811,-0.88117 4.16147,-1.82256 4.64137,-4.00356 0.0587,-0.26684 0.028,-0.54577 0.042,-0.81863 -0.0343,-0.24405 -0.0354,-0.4951 -0.10285,-0.7321 -0.0542,-0.19069 -0.51692,-1.13377 -0.6833,-1.23159 -14.83328,-8.72169 -13.11425,-10.925 -22.3021,-11.65511 -3.95731,0.49255 -5.81414,1.26189 -7.96626,4.67788 -0.28873,0.54244 -1.05331,3.44785 -0.32881,3.89548 19.48248,12.03698 12.58926,13.36197 21.28487,11.31708 1.70698,-0.41307 3.41932,-0.80991 5.12213,-1.2396 0.57235,-0.1445 2.36788,-0.69953 3.05021,-0.72629 0.34994,-0.0145 0.69029,0.11875 1.03544,0.17795 6.64693,4.55674 -1.24306,-0.88593 -17.67206,-9.76423 -0.3605,-0.19483 0.64088,0.51596 0.91714,0.81863 0.86719,0.95009 1.54476,2.14492 2.27746,3.19858 5.25948,6.85634 13.87666,9.04445 21.76358,13.24278 0.43811,0.23322 0.99033,0.10011 1.48645,0.0863 1.41071,-0.0394 1.93078,-0.24918 3.30574,-0.58964 3.05143,-1.06207 5.89594,-2.65498 8.71057,-4.22662 1.61534,-0.97747 3.29791,-1.80901 4.71883,-3.0641 1.06028,-1.11667 2.45675,-1.71386 3.74777,-2.4778 0.38486,-0.32242 0.89351,-0.26977 1.32947,-0.41924 0.44588,-0.15287 0.78833,-0.37465 1.25798,-0.47663 0.13484,-0.009 0.27312,0.006 0.40461,-0.0255 0.52749,-0.19135 0.57084,-0.22668 1.11489,-0.34732 0.54864,-0.12166 1.10215,-0.16917 1.66098,-0.21146 1.09904,-0.0595 2.19983,-0.023 3.29964,-0.0438 1.46772,-0.0439 2.93609,-0.0346 4.40411,-0.0144 1.37004,0.0821 2.73557,-0.20481 4.05004,-0.57918 1.5933,-0.62519 3.2975,-0.85699 4.87196,-1.53473 1.26579,-0.3109 2.03205,-1.4143 3.11802,-2.01944 0.79531,-0.66952 1.63938,-1.25762 2.49072,-1.85251 0.99974,-1.17239 2.26746,-2.00395 3.52937,-2.85693 1.28474,-0.58857 2.41128,-1.41213 3.59954,-2.15482 1.05759,-0.39498 1.94414,-1.05325 2.88145,-1.65767 0.65532,-0.64415 1.47889,-1.02278 2.21077,-1.56835 0.73672,-0.7073 1.51276,-1.33478 2.08148,-2.19205 0.39419,-0.58313 0.81325,-1.03363 1.42605,-1.37722 0.20658,-0.39421 0.54077,-0.39836 0.85882,-0.58506 0.37853,-0.22222 0.53097,-0.41556 0.96465,-0.52083 0.22203,-0.0824 0.47039,0.0164 0.69317,-0.047 0.22869,-0.0648 0.90375,-0.61666 1.15015,-0.24915 0.0742,0.11071 0.0499,0.2619 0.0747,0.39283 -6.44419,-3.95247 -12.82945,-8.00257 -19.3325,-11.85739 -0.11345,-0.0672 0.0409,0.27141 -0.003,0.39543 -0.0994,0.27605 -0.24962,0.53429 -0.4177,0.77478 -0.87174,1.24739 -2.11678,2.13687 -3.30334,3.05314 -3.71099,2.37057 -7.98377,3.49135 -12.14559,4.76629 -3.4753,0.98724 -7.09247,1.23192 -10.63392,1.87415 -2.57854,0.32735 -5.11249,0.88689 -7.64231,1.47373 -2.77203,0.87913 -5.52642,1.83474 -8.36953,2.46048 -2.18881,0.53595 -4.26431,1.45301 -6.22237,2.5557 -1.60215,1.11166 -3.367,1.95564 -5.03475,2.96364 -1.49688,0.89641 -2.91278,1.89603 -4.41631,2.77831 -1.33931,0.63222 -2.72849,1.1286 -4.13753,1.57732 -1.15284,0.30145 -2.26633,0.72541 -3.40026,1.09097 -1.31798,0.51729 -2.49139,1.26418 -3.68389,2.00821 -0.93568,0.63018 -1.88511,1.25287 -2.86704,1.80769 -0.76837,0.60958 -1.5057,1.2358 -2.35825,1.72393 -0.75462,0.22571 -1.56876,0.15722 -2.34885,0.15417 -0.16664,-0.001 -0.33327,-0.003 -0.4999,-0.003 0,0 18.46284,13.30847 18.46284,13.30847 v 0 c 0.18159,-0.0145 0.36319,-0.0285 0.54479,-0.0428 1.11336,-0.14145 2.18306,-0.40776 3.08012,-1.12435 0.74694,-0.57778 1.47118,-1.1899 2.26858,-1.69546 0.92318,-0.64927 1.90622,-1.20922 2.82072,-1.87206 1.02846,-0.70518 2.18705,-1.1916 3.38837,-1.52312 1.11928,-0.40278 2.26696,-0.72873 3.37152,-1.17456 1.44977,-0.604 2.90326,-1.20481 4.25513,-2.01495 1.47886,-0.91644 2.86669,-1.97552 4.41502,-2.77979 1.63034,-0.98279 3.1796,-2.09966 4.88571,-2.95497 1.8127,-0.97377 3.7523,-1.63115 5.7101,-2.25159 2.73553,-0.87174 5.47182,-1.77433 8.27594,-2.39656 2.53033,-0.51308 5.08085,-0.91173 7.60663,-1.44371 3.41915,-0.72631 6.84942,-1.42237 10.19873,-2.43403 4.41366,-1.30278 8.70735,-3.02056 12.75157,-5.22727 1.83997,-1.25218 3.69174,-2.49954 5.0762,-4.27532 5.43591,-6.97254 -7.47937,-6.25755 -18.60158,-13.52709 -0.16043,0.0907 -0.75259,0.43294 -0.94345,0.51614 -0.56117,0.24461 -1.22365,0.21599 -1.7306,0.61534 -0.72683,0.45499 -1.44184,0.91573 -2.08631,1.48412 -0.68715,0.60316 -1.3172,1.2357 -1.79494,2.02481 -0.43433,0.58109 -1.03596,1.05395 -1.61267,1.48401 -0.76513,0.47041 -1.46138,1.03197 -2.15801,1.5962 -0.90488,0.64135 -1.963,1.02146 -2.84799,1.69846 -1.09394,0.81798 -2.2878,1.47826 -3.41859,2.24252 -1.2865,0.85914 -2.46039,1.85117 -3.72592,2.73621 -0.88389,0.57596 -1.65881,1.2877 -2.53495,1.87343 -0.83885,0.68925 -1.64778,1.32015 -2.7067,1.65107 -1.49808,0.52269 -3.0414,0.94219 -4.60262,1.22293 -1.2755,0.13308 -2.53345,0.25762 -3.81825,0.19851 -1.49425,0.0177 -2.98838,0.0161 -4.48243,-0.0164 -1.17037,-0.002 -2.34323,0.0601 -3.49613,0.27493 -1.18387,0.24108 -2.35892,0.5484 -3.51861,0.87245 -0.93979,0.41835 -1.91638,0.75683 -2.74457,1.38966 -1.31924,0.83906 -2.5278,1.82161 -3.74285,2.80286 -1.43533,1.00937 -2.84659,2.05482 -4.3317,2.99304 -2.43825,1.644 -4.95619,3.26218 -7.92804,3.69926 -1.29397,0.0653 -1.71499,0.18679 -2.97473,-0.13453 -0.45326,-0.11553 -1.71511,-0.73245 -1.31474,-0.49056 5.90582,3.56811 11.90763,6.97491 17.85051,10.48094 0.31711,0.18707 -0.66727,-0.31775 -0.97247,-0.5237 -0.32359,-0.2183 -0.60341,-0.49538 -0.90511,-0.74308 -0.8448,-1.00132 -1.63214,-2.03952 -2.2828,-3.18204 -0.22223,-0.39021 -0.22575,-0.96505 -0.60669,-1.20281 -19.20464,-11.98581 -12.41423,-12.37311 -21.12158,-11.61804 -2.95308,0.82861 -5.86571,2.09844 -9.00963,1.55908 -7.67567,-3.52706 1.81737,0.7945 17.61306,10.53251 0.19276,0.11892 -0.45554,0.11233 -0.67648,0.0628 -0.3318,-0.0747 -0.56897,-0.53245 -0.6171,-0.81647 -0.0375,-0.22134 0.0125,-0.44884 0.0189,-0.67325 0.10285,-0.26278 0.16181,-0.5473 0.30861,-0.78828 1.22803,-2.01601 3.93801,-2.02148 5.96595,-1.62047 0.42705,0.12792 0.86221,0.23138 1.28116,0.38375 0.33629,0.12245 1.28828,0.62 0.97986,0.43854 -6.22275,-3.66105 -12.52164,-7.1922 -18.72825,-10.88054 -0.16499,-0.098 0.3856,0.0321 0.56883,0.0891 0.28174,0.0879 0.49819,0.33714 0.80857,0.36058 0.0919,0.0652 0.17526,0.1445 0.27573,0.19533 0.0827,0.0418 0.24404,-0.0113 0.26662,0.0797 0.17525,0.69822 -2.21594,2.35929 -2.59955,2.57814 -5.14808,2.84496 -10.85962,4.36555 -16.74543,4.58833 -1.36141,-0.0367 -3.52542,0.0168 -4.94463,-0.36902 -0.4556,-0.1239 -1.67857,-0.86006 -1.27887,-0.60878 6.13174,3.85498 12.43974,7.43189 18.48268,11.42463 0.20376,0.13469 -0.40086,0.29276 -0.63275,0.36935 -0.0562,0.0185 -0.0895,-0.0772 -0.13435,-0.11586 1.57013,-1.87564 4.40513,-1.95149 6.6346,-1.71832 8.6143,2.59733 -0.26291,0.0724 -16.51844,-10.69583 -0.21399,-0.14176 0.4186,-0.31095 0.66129,-0.39452 0.56106,-0.19317 -0.25294,0.57262 -0.27148,0.58905 -0.22374,0.19796 -0.47829,0.35813 -0.71743,0.53719 -1.85025,1.062 -3.50017,1.40274 -5.53013,0.55783 -6.72656,-4.31731 -0.57094,-0.35541 18.22887,10.67814 0.16714,0.0982 -0.34385,-0.18328 -0.49593,-0.30339 -0.18094,-0.14289 -0.31903,-0.33449 -0.49718,-0.48084 -1.4232,-1.1691 0.20225,0.38802 -1.25305,-1.07043 -2.02356,-2.17658 -3.65836,-4.69524 -5.47319,-7.04226 -2.28899,-3.40869 -4.39929,-6.95331 -5.80529,-10.82904 -0.43373,-1.43634 -1.21907,-3.41333 0.0336,-4.67082 0.34406,0.0811 0.12385,-0.0343 0.26455,0.3692 0.0461,0.13212 0.30037,0.44989 0.17923,0.37974 -6.40404,-3.70843 -12.7679,-7.48705 -19.09133,-11.33133 -0.12422,-0.0755 0.29317,-0.0371 0.43595,-0.0113 0.12777,0.0244 0.23697,0.10733 0.35546,0.16098 0.71366,1.12885 0.67459,2.97059 0.75581,4.25787 0.0226,0.69512 0.0563,1.3261 0.027,2.02134 -0.0137,0.32511 -0.0813,0.64781 -0.0769,0.97317 0.003,0.22246 -0.0893,0.54144 0.0989,0.66003 18.77443,11.82985 12.12796,11.17372 20.21127,11.89019 0.27607,0.098 0.58194,0.0999 0.85329,0.21028 0.13156,0.0536 0.46464,0.32568 0.34151,0.25489 -7.80241,-4.48605 -26.7948,-12.27535 -18.35648,-11.01337 0.20821,0.18535 0.49641,0.28154 0.67148,0.49845 0.61032,0.75619 0.16849,2.49675 0.0134,3.3057 -0.68292,2.28066 -1.63512,4.82683 -4.28799,5.23666 -1.14859,-0.10813 -2.38586,-0.0844 -3.38012,-0.74875 6.36259,3.64988 12.75678,7.2452 19.08776,10.94959 0.15489,0.0906 -0.35798,-0.0421 -0.53054,-0.0914 -0.84823,-0.24211 -1.29855,-0.93131 -1.73063,-1.64887 -1.0431,-1.3071 -1.55264,-2.99426 -2.11016,-4.55116 -0.57008,-1.32844 -0.55034,-2.5358 -0.99927,-3.87349 -0.22583,-0.46052 -0.50661,-0.89276 -0.73167,-1.35367 -0.76781,-1.57244 -1.4401,-3.19716 -2.29872,-4.72822 -1.41112,-2.70666 -2.93528,-5.34407 -4.46123,-7.98409 z" />
  <path
     style="fill:#000000;stroke:#000000;stroke-width:0.371652"
     id="path5"
     d="m 232.75423,489.11453 c 0.18877,-0.009 0.37996,-0.0603 0.5663,-0.0287 0.47609,0.081 0.90612,0.34137 1.37555,0.45468 0.88859,0.2145 1.68152,0.39064 2.53491,0.73639 0.77056,0.30618 1.6042,0.56738 2.33787,0.95967 0.20643,0.11038 0.77691,0.5212 0.57373,0.40494 -19.45651,-11.13184 -25.71414,-13.49565 -18.50409,-10.74314 1.2203,0.96245 1.69476,2.51451 2.26592,3.90284 0.90842,1.92741 1.47845,3.95292 1.7969,6.05252 0.16853,0.0161 0.16298,2.95188 -0.0388,1.58971 -0.91699,-7.83295 -0.26829,-0.68503 18.74787,9.84285 0.40115,0.22209 -0.7904,-0.4689 -1.15577,-0.74596 -1.45174,-1.10085 -2.71201,-2.45681 -3.99381,-3.74285 -1.40139,-1.53831 -2.97189,-2.93303 -4.30781,-4.53012 -0.67748,-0.87313 -1.31205,-1.78876 -1.72152,-2.82502 -4.28064,-7.6098 3.80374,-0.17518 -21.12873,-10.11152 -0.37955,-0.15126 0.43314,0.69304 0.65744,1.03455 0.31223,0.47538 0.63468,0.944 0.95202,1.416 2.58552,3.77587 4.81029,7.79398 6.72445,11.94794 1.12923,2.30522 1.70327,4.81292 2.45937,7.24989 2.99267,7.46895 19.89265,11.90738 21.06961,12.50978 0.36215,0.18535 0.81015,-0.0785 1.21646,-0.0993 2.61359,-0.13324 0.27542,0.12648 3.15372,-0.27319 2.85134,-0.55679 5.78833,-0.99606 8.47543,-2.14566 1.30971,-0.49578 2.28826,-1.29376 2.93331,-2.52715 0.4879,-1.13393 0.47802,-2.37109 0.53436,-3.58074 -3.5009,-9.74584 -17.07101,-10.4425 -25.59736,-14.83162 -0.63652,-0.32766 -1.24118,-0.71383 -1.86177,-1.07073 30.51264,16.83519 18.75605,11.73858 13.09616,6.97776 -1.66546,-1.40089 -3.12993,-2.94586 -4.57146,-4.5691 -1.56827,-1.92409 -3.14819,-3.8739 -4.29289,-6.08734 -3.83694,-7.73843 -10.97462,-7.47724 -21.03406,-12.90218 -0.20768,-0.112 -0.47002,0.0437 -0.70564,0.0563 -0.23751,0.0129 -0.47553,0.0145 -0.71329,0.0202 -1.11466,0.0808 -2.80631,-0.002 -3.79314,0.59379 -0.25809,0.15576 -0.4603,0.38936 -0.69045,0.58406 -0.18704,0.27144 -0.43074,0.51155 -0.56112,0.81431 -1.66842,3.87434 2.8422,6.6749 5.39396,8.52241 6.90279,3.96674 13.69859,8.12578 20.70837,11.90023 0.56411,0.30375 8.22773,2.81328 8.56574,2.92152 4.38315,1.40342 8.80301,2.54738 13.26734,3.656 4.25088,1.01952 8.56477,1.88403 12.94361,2.07967 2.18304,0.0975 2.65339,0.005 4.77124,-0.1474 2.76818,-0.32292 5.60519,-1.02868 7.68894,-2.9665 0.1449,-0.21539 0.3187,-0.41392 0.43472,-0.64614 0.0387,-0.0772 0.64394,-1.57047 0.40428,-1.72234 -6.53453,-4.14114 -13.30161,-14.21694 -21.08333,-11.32944 -1.58805,0.55426 -2.5987,1.08483 -3.51767,2.53632 -0.38474,0.67911 -0.87296,2.59027 0.004,3.12507 18.87163,11.50305 12.61418,9.94513 21.17389,11.92196 1.49539,0.16738 3.00742,0.50854 4.51444,0.55966 1.53054,0.0518 3.10708,-0.16373 4.6132,-0.40311 1.97009,-0.18283 3.81916,-0.77129 5.66597,-1.42862 1.2535,-0.25008 2.44916,-0.67319 3.72111,-0.83773 0.1832,-0.0145 0.36954,-0.006 0.54963,-0.0426 0.39805,-0.081 0.7749,-0.24834 1.17193,-0.33412 0.56019,-0.12101 1.12429,-0.15947 1.69435,-0.20018 1.469,-0.18903 2.92473,-0.44918 4.41181,-0.54119 1.3672,-0.0663 2.73567,-0.0423 4.10324,-0.0937 1.8133,-0.0222 3.62656,-0.0277 5.43986,-0.005 1.40893,0.0275 2.81779,0.057 4.2269,0.0724 1.10349,0.0113 2.20705,0.0113 3.31059,0.0113 1.0615,0.12857 2.01913,-0.33247 3.05443,-0.47121 0.91317,-0.42788 1.8588,-0.71473 2.74034,-1.21276 1.21076,-0.52781 2.3825,-1.11308 3.43558,-1.91801 1.25151,-0.9066 2.67317,-1.53527 3.96077,-2.37612 1.02157,-0.52658 1.87662,-1.3042 2.83983,-1.91923 0.93752,-0.25992 1.70688,-0.68791 2.40795,-1.36846 0.69021,-0.74488 1.25926,-1.56919 1.78563,-2.4357 0.53268,-0.55055 0.90685,-1.21452 1.37563,-1.81431 0.42017,-0.69931 0.77157,-1.44624 1.33275,-2.04913 0.53851,-0.4555 0.97737,-1.51364 1.53363,-1.82539 0.18744,-0.38576 0.47654,-0.34766 0.77522,-0.51434 0.36075,-0.20132 0.73814,-0.49779 1.04247,-0.77371 0.59223,-0.46905 1.16121,-0.92076 1.83062,-1.27789 0.10588,-0.0782 0.2262,-0.13999 0.3178,-0.23462 5.4126,-5.58938 -15.85927,-11.78984 -18.89208,-13.56021 -0.12761,-0.0745 -0.26818,0.12696 -0.41028,0.16727 -0.13276,0.0375 -0.27254,0.0432 -0.40882,0.0648 -1.17601,0.10394 -2.19701,0.8579 -3.21711,1.4006 -0.96638,0.46804 -1.98092,0.76657 -2.8993,1.33333 -1.05643,0.58031 -2.23014,0.82163 -3.3447,1.24518 -1.21735,0.61052 -2.55842,0.99531 -3.73523,1.67691 -1.07837,0.77204 -2.18141,1.51637 -3.15578,2.4187 -0.85238,0.73766 -1.85628,1.23187 -2.81067,1.81286 -1.10308,0.54967 -2.20243,1.09574 -3.39969,1.41668 -1.12383,0.30766 -2.21218,0.62066 -3.3838,0.70835 -1.25579,0.32212 -2.45049,0.79917 -3.73542,1.00693 -1.06165,-0.0129 -2.0096,0.44678 -3.05183,0.57594 -0.61077,0.12874 -1.26672,-0.0437 -1.87518,0.0597 -0.38715,0.066 -0.75431,0.22009 -1.13637,0.31091 -1.11193,0.12551 -2.13117,0.54734 -3.24271,0.69631 -1.4503,0.22395 -2.90937,0.66121 -4.27265,1.2136 -3.03775,1.21041 -6.01652,2.5624 -9.04161,3.80547 -3.73468,1.3903 -7.50514,2.63177 -11.38955,3.5325 -3.27108,0.66242 -6.58011,1.11851 -9.84954,1.78436 -2.07402,0.40815 -4.16125,0.87481 -6.15209,1.59586 -1.55421,0.63333 -2.73719,1.26494 -3.76069,2.62304 -0.27556,0.56904 -0.90081,2.40112 -0.0993,2.86392 20.03831,11.57041 12.58635,11.86383 21.56497,11.22398 4.04901,0.0495 8.09351,0.0819 12.14182,0.006 2.51457,-0.16963 5.08661,-0.53917 7.40595,-1.56956 1.06097,-0.67622 2.20899,-1.93009 1.81285,-3.32694 -0.0664,-0.23462 -0.23868,-0.42536 -0.35801,-0.63804 -6.21915,-6.53824 -14.60076,-11.69199 -23.52021,-12.19316 0,0 18.16573,13.52192 18.16573,13.52192 v 0 c 0.64595,0.11908 1.2842,0.24496 1.89332,0.50215 0.2158,0.0911 0.83263,0.42884 0.62994,0.31146 -18.78932,-10.88095 -25.76745,-12.82651 -18.25069,-10.6786 0.15523,0.0213 0.30974,0.0788 0.46572,0.0639 0.4138,-0.0398 0.48307,-0.26643 0.82234,-0.47225 0.15488,-0.094 -0.50371,0.86357 -0.44641,0.40093 -1.97027,0.82217 -4.06589,1.25181 -6.19308,1.41273 -4.07878,0.24189 -8.19721,0.14209 -12.22935,-0.56448 -8.36767,-2.83315 -0.66095,-0.32903 17.30346,10.33873 0.13452,0.08 -0.31559,-0.006 -0.46852,0.0274 -0.32219,0.0695 -0.60564,0.31344 -0.94856,0.30273 0.31238,-0.80225 1.99809,-1.18363 2.69744,-1.54941 1.86211,-0.61247 3.753,-1.12358 5.65303,-1.6053 3.1366,-0.70473 6.29641,-1.31752 9.39014,-2.19916 3.9579,-1.07999 7.95339,-2.08893 11.75317,-3.65684 3.07213,-1.25969 6.15186,-2.52938 9.40306,-3.26036 1.51017,-0.26472 3.01051,-0.58373 4.52492,-0.81123 1.07515,-0.27093 2.14104,-0.51744 3.23978,-0.67379 1.02068,-0.13437 2.07594,-0.0409 3.07569,-0.36844 0.99586,-0.2703 1.98916,-0.46896 2.99671,-0.68763 1.21056,-0.35604 2.41067,-0.76961 3.67993,-0.85977 1.20277,-0.28551 2.37576,-0.68662 3.54455,-1.08324 1.25468,-0.52953 2.51953,-1.05439 3.68614,-1.76312 1.08495,-0.61792 2.1102,-1.33776 3.03423,-2.18005 0.90197,-0.74601 1.84882,-1.45174 2.92503,-1.92845 1.13201,-0.51521 2.21595,-1.14925 3.43888,-1.44099 1.24311,-0.36626 2.43944,-0.87201 3.58442,-1.47876 1.01047,-0.38805 2.00988,-0.79735 2.95865,-1.32344 0.86112,-0.44105 1.6325,-0.56281 2.56897,-0.27852 0.4465,0.16593 0.2784,0.026 0.52324,0.39585 -6.46165,-3.93029 -12.92333,-7.86057 -19.385,-11.79083 -1.59936,-1.08857 0.80029,-0.67846 0.78246,-1.13332 -0.003,-0.0644 -0.10072,0.0806 -0.1511,0.12101 -0.65652,0.47358 -1.31288,0.93813 -1.94426,1.44714 -0.72197,0.39798 -1.38145,0.89314 -1.9417,1.50121 -0.57535,0.66566 -1.04578,1.41097 -1.63159,2.0705 -0.53221,0.68965 -1.04901,1.38443 -1.45331,2.15612 -0.46418,0.67748 -0.97994,1.31059 -1.44715,1.98697 -0.38423,0.63948 -0.76364,1.29364 -1.35993,1.76263 -0.75921,0.439 -1.61527,0.70822 -2.29071,1.29094 -0.86305,0.68314 -1.787,1.27429 -2.70056,1.88588 -1.26375,0.81764 -2.53086,1.63065 -3.8119,2.42073 -1.1427,0.54529 -2.31413,1.02301 -3.46998,1.53827 -0.80629,0.26398 -1.61585,0.6205 -2.45824,0.71257 -0.93403,0.20062 -1.8197,0.25072 -2.7762,0.18197 -1.09309,5e-4 -2.18619,9.5e-4 -3.27924,0.0113 -1.34397,0.0144 -2.68766,0.0428 -4.03146,0.0677 -1.82675,0.0202 -3.65334,0.006 -5.4801,-0.003 -1.44527,-0.031 -2.89515,0.003 -4.3292,0.20175 -1.48593,0.2175 -2.96314,0.47835 -4.4656,0.54551 -1.19275,0.19421 -2.35969,0.5021 -3.54797,0.71119 -1.29897,0.35464 -2.60003,0.71729 -3.86473,1.17873 -1.58393,0.63502 -3.24623,1.04007 -4.9301,1.31002 -2.97379,0.29591 -5.82352,0.059 -8.61546,-1.10293 -7.63896,-3.80652 1.29856,0.61476 17.31583,10.31327 0.16661,0.10092 -0.3863,-0.0568 -0.581,-0.0623 -0.0293,-8.4e-4 -0.53643,0.0719 -0.64571,0.009 -0.0451,-0.026 -0.0399,-0.0962 -0.0598,-0.14418 0.43621,-0.69746 1.51099,-0.75364 2.24069,-0.64569 6.70435,3.89647 1.7006,24.20904 -18.50867,-10.84114 -0.0617,-0.039 0.79365,-0.68474 0.89435,-0.71981 0.0417,-0.0145 0.0568,0.0675 0.0853,0.10153 -1.1684,1.62438 -3.97775,1.9527 -5.76186,2.28343 -1.88587,0.13325 -2.31512,0.2095 -4.25633,0.14933 -3.97184,-0.12309 -7.89341,-0.8884 -11.78546,-1.62778 -4.28569,-0.97407 -8.51215,-2.02089 -12.67379,-3.45397 -1.56871,-0.54019 -3.13431,-1.09467 -4.66746,-1.72877 -1.50016,-0.62047 -5.79233,-2.90892 -4.42594,-2.0323 4.61402,2.96017 9.46475,5.53405 14.19712,8.30109 -2.67742,-1.68044 -1.78151,-0.9444 -3.79554,-2.75432 -0.19184,-0.17239 -1.72803,-1.32827 -1.13162,-1.83173 1.1888,-0.13549 2.37355,-0.2188 3.56204,0.008 0.21018,0.0478 0.42733,0.0717 0.63053,0.14369 0.19207,0.0681 0.72344,0.37482 0.5468,0.27326 -6.35239,-3.65265 -12.7518,-7.22391 -19.07493,-10.92697 -0.31705,-0.1857 0.75468,0.10041 1.05871,0.30671 0.19058,0.12922 0.3408,0.30987 0.51119,0.46484 1.2721,1.7714 -0.31445,-0.48762 1.08121,1.69566 1.16334,1.81987 2.62069,3.44774 3.98245,5.11543 1.90478,2.21875 3.86413,4.45476 6.09666,6.35596 6.46039,5.50162 16.05824,7.27838 21.87427,13.02138 1.90893,0.95613 3.84472,1.81634 5.78597,2.70223 0.50964,0.23259 2.00088,1.00468 1.5194,0.71829 -18.00346,-10.70849 -24.61995,-8.54419 -17.09596,-10.74769 0.0949,0.0587 0.24108,0.0734 0.28463,0.17609 0.13936,0.32862 -0.0827,1.50989 -0.10366,1.93142 -0.27084,0.70577 -1.2259,0.98885 -1.79948,1.37753 -2.33804,1.11358 -4.87057,1.73369 -7.45964,1.86286 -1.17387,-0.0329 -2.09146,-0.006 -3.24316,-0.23103 -0.43137,-0.084 -1.6454,-0.58721 -1.26746,-0.36294 6.16549,3.6584 12.49975,7.02733 18.665,10.68615 0.20185,0.11973 -0.47378,0.021 -0.7036,-0.0269 -0.21586,-0.0448 -0.4092,-0.1642 -0.6138,-0.24628 -0.70513,-0.86229 -1.02405,-1.70025 -1.43546,-2.73693 -0.63772,-1.60698 -1.26678,-3.21707 -1.92273,-4.81685 -2.0177,-4.04307 -4.44825,-7.86627 -6.33724,-11.97231 -0.19808,-0.40518 -0.39888,-0.80905 -0.59424,-1.21555 -0.11866,-0.24689 -0.10262,-0.62232 -0.34774,-0.74459 -16.43136,-8.19536 -24.53403,-16.82856 -20.36047,-8.56017 0.36279,0.45599 0.57524,0.97311 0.80408,1.51017 0.0838,0.1967 0.11047,0.41789 0.21538,0.60421 0.0913,0.1621 0.26209,0.26753 0.36335,0.42359 0.1297,0.19987 0.21648,0.42454 0.32472,0.6368 0.19066,0.26482 0.79621,1.11635 0.98545,1.33126 1.21819,1.38335 2.79292,2.4439 4.04824,3.79351 0.35201,0.36249 2.12336,2.1824 2.48043,2.56666 0.35054,0.37722 0.69506,0.76026 1.02938,1.15193 0.25071,0.29372 0.39247,0.70736 0.72511,0.90351 20.0541,11.82539 13.10238,14.44457 21.22772,11.01376 0.24156,-0.2298 0.51205,-0.43262 0.72469,-0.68942 0.87868,-1.06118 0.70204,-2.43377 0.50107,-3.68673 -0.39128,-2.2248 -0.94943,-4.43932 -1.77231,-6.54395 -0.52778,-1.49167 -0.85564,-3.05202 -1.49326,-4.49376 -3.84005,-8.05859 -14.88082,-10.32206 -23.11082,-13.18682 -1.14989,-0.31586 -2.25631,-0.67801 -3.37857,-1.07763 -0.25481,-0.0908 -0.52553,-0.14225 -0.76775,-0.26266 -0.19801,-0.0985 -0.3593,-0.25782 -0.53895,-0.38673 z" />
  <path
     style="fill:#000000;stroke:#000000;stroke-width:0.371652"
     d="m 245.76316,486.15489 c 4.64663,1.76363 9.1047,5.9264 14.09604,7.59019 0.66235,0.22078 2.78656,-0.46639 3.25293,0 0.46904,0.46903 -2.16862,1.57343 -2.16862,3.25293"
     id="path6" />
  <path
     style="fill:#000000;stroke:#000000;stroke-width:0.371652"
     id="path7"
     d="m 251.52622,496.67969 c 4.64379,-0.78871 9.39153,-0.85791 14.09165,-0.73302 0.38286,0.0206 0.77446,-0.0221 1.14858,0.0618 0.18403,0.0412 0.31855,0.20208 0.47783,0.3031 -6.30668,-4.41205 -12.52643,-8.95105 -18.92004,-13.23616 -0.16075,-0.10782 -0.36209,0.13902 -0.54951,0.1874 -0.74407,0.1916 -1.50241,0.32275 -2.25269,0.48838 -0.30326,0.0805 -2.08253,0.43723 -2.26163,0.9214 -0.30155,0.81523 -0.88617,2.12578 -0.15951,2.60273 17.2984,11.35417 15.3742,10.85988 28.16227,11.58893 4.90301,0.39659 9.79261,0.93696 14.68388,1.45423 0,0 -16.957,-12.47362 -16.957,-12.47362 v 0 c -4.51354,-0.019 -9.03132,-0.15079 -13.51393,-0.73058 -1.52273,-0.25473 -3.05522,-0.45667 -4.56817,-0.7642 -1.23077,-0.2502 -4.68638,-1.62708 -3.65687,-0.90769 19.15164,13.38275 21.46737,5.5252 14.8831,11.49399 -0.39428,0.35742 2.9251,-2.01095 1.52274,-0.47974 1.91734,-0.24507 0.65311,-0.10042 2.58658,-0.27913 0.34053,-0.0313 1.29149,0.10958 1.02108,-0.0996 -6.0001,-4.6452 -12.28173,-8.91488 -18.42259,-13.37232 -0.0841,0.0806 -0.14336,0.20076 -0.25239,0.24203 -0.26222,0.0991 -0.54976,0.11038 -0.82465,0.16548 -4.59233,0.67335 -9.25183,0.99817 -13.89199,0.93222 z" />
</svg>
