<?xml version="1.0" encoding="UTF-8" standalone="no"?>
<svg
   width="1250"
   height="1000"
   version="1.1"
   id="svg1"
   sodipodi:docname="13B0C.svg"
   inkscape:version="1.4.3 (0d15f75, 2025-12-25)"
   xmlns:inkscape="http://www.inkscape.org/namespaces/inkscape"
   xmlns:sodipodi="http://sodipodi.sourceforge.net/DTD/sodipodi-0.dtd"
   xmlns:xlink="http://www.w3.org/1999/xlink"
   xmlns="http://www.w3.org/2000/svg"
   xmlns:svg="http://www.w3.org/2000/svg">
  <defs
     id="defs1" />
  <sodipodi:namedview
     id="namedview1"
     pagecolor="#ffffff"
     bordercolor="#666666"
     borderopacity="1.0"
     inkscape:showpageshadow="2"
     inkscape:pageopacity="0.0"
     inkscape:pagecheckerboard="0"
     inkscape:deskcolor="#d1d1d1"
     inkscape:zoom="0.3775"
     inkscape:cx="332.45033"
     inkscape:cy="181.45695"
     inkscape:window-width="1680"
     inkscape:window-height="998"
     inkscape:window-x="-8"
     inkscape:window-y="-8"
     inkscape:window-maximized="1"
     inkscape:current-layer="svg1"
     showguides="true">
    <sodipodi:guide
       position="598.70214,840.98242"
       orientation="1,0"
       id="guide34"
       inkscape:locked="false" />
    <sodipodi:guide
       position="598.70214,840.98242"
       orientation="0,-1"
       id="guide35"
       inkscape:locked="false" />
    <sodipodi:guide
       position="612.57617,801.49414"
       orientation="0,-1"
       id="guide36"
       inkscape:locked="false" />
    <sodipodi:guide
       position="584.82812,775.88086"
       orientation="0,-1"
       id="guide37"
       inkscape:locked="false" />
    <sodipodi:guide
       position="1250,0"
       orientation="0,-1"
       id="guide46"
       inkscape:locked="false" />
  </sodipodi:namedview>
  <path
     id="path20"
     style="fill:#000000;stroke:none;stroke-width:0.999997"
     d="m 599.08269,781.79138 c -17.77227,-0.11274 -35.62976,13.28311 -53.57338,40.18421 l -0.16912,26.65718 c 35.88725,-53.80215 71.43279,-53.57665 106.63462,0.67648 l 0.16909,-26.65721 C 634.543,795.52547 616.85495,781.90412 599.08269,781.79138 Z m -0.36528,57.58225 c -6.04257,-0.0384 -12.096,1.70035 -18.16111,5.21646 -13.55201,7.02324 -20.40231,22.26595 -20.55113,45.72534 l 10.24348,66.17982 6.42597,-4.22534 -4.02919,-37.34713 c -1.96132,-27.0274 1.88466,-44.77744 11.53582,-53.24725 9.65112,-8.46981 19.24722,-8.40894 28.79015,0.18264 9.54288,8.59156 12.8113,25.67553 9.8054,51.24958 l -3.44874,39.43274 7.45087,2.18031 8.93577,-63.92509 c -0.56209,-23.46389 -6.86187,-38.79004 -18.90189,-45.97562 -6.02002,-3.59278 -12.05285,-5.40812 -18.0954,-5.44646 z M 583.8404,158.92965 566.35129,730.39832 c -29.93856,12.6066 -46.57664,29.74165 -49.91318,51.40352 -3.33658,21.66187 -4.89678,43.68981 -4.68337,66.08511 0.2134,22.39531 2.55163,46.04768 7.01456,70.95821 4.46294,24.91042 15.35737,44.5311 32.68402,58.85941 17.32662,14.32829 32.74251,21.53431 46.2494,21.61997 13.50693,0.0859 29.19445,-7.27962 47.06143,-22.09554 17.86697,-14.81598 29.00837,-34.11751 33.42475,-57.90531 4.41647,-23.78775 6.87501,-47.05512 7.37473,-69.80136 0.49975,-22.74623 -0.78169,-44.96952 -3.84315,-66.67198 -3.06146,-21.70246 -19.83542,-39.04946 -50.32251,-52.03939 L 611.56505,159.01758 Z m 8.42167,17.11587 11.73034,0.0744 -2.43737,47.97135 11.5939,525.79939 c 28.377,9.42198 43.93712,22.13934 46.67923,38.15243 2.74208,16.01304 3.67035,37.70213 2.78584,65.06694 -0.8845,27.36477 -5.6742,53.81488 -14.36725,79.35282 -8.69301,25.53814 -25.49147,40.00657 -50.39521,43.40296 -24.85862,-3.71227 -41.29292,-18.3915 -49.30579,-44.03545 -8.01288,-25.64391 -12.46775,-51.97533 -13.36273,-78.99596 -0.89494,-27.02058 -0.0463,-48.69843 2.54562,-65.03311 2.59183,-16.33473 18.4905,-29.02981 47.69563,-38.0865 l 8.66636,-525.67087 z"
     inkscape:transform-center-x="-0.99944008"
     inkscape:transform-center-y="420.10988"
     sodipodi:nodetypes="sccccsscccccssccccssccsssscsssscccccccssscsssccc" />
  <path
     id="path2"
     style="fill:#1a5fb4;stroke:none;stroke-width:0.999998"
     d="m 872.77765,0 c -17.19268,0 -32.2366,2.8646723 -45.13113,8.5955638 -12.89453,5.7308922 -25.43114,15.7601752 -37.60928,30.0874232 -7.1636,-4.298178 -15.75955,-1.790857 -25.78865,7.521856 v 30.087423 l -51.57733,42.981754 c -5.01453,6.44728 -2.86652,11.10457 6.44619,13.97 2.14911,5.73089 6.8064,13.25286 13.97,22.56557 h 4.2968 c 2.14907,10.02907 9.67103,18.62501 22.56557,25.78866 l 64.47361,-9.67124 c 5.01454,10.02904 9.31255,16.47702 12.89433,19.34248 -26.50539,43.6981 -51.93598,75.93396 -76.29226,96.70844 -12.17815,-27.22174 -37.60871,-65.54822 -76.29227,-114.97721 v -38.68299 c 0,-13.6109 -11.46259,-32.59351 -34.3862,-56.94979 -6.44724,-1.43275 -11.64055,0.179245 -15.58056,4.835619 -3.93999,4.656338 -3.76133,7.699704 0.53686,9.132419 7.1636,5.730928 13.25226,13.074202 18.2668,22.028712 5.01453,8.95452 7.52186,21.31049 7.52186,37.07046 -8.59632,-11.46179 -12.89433,-22.20577 -12.89433,-32.23484 0,-10.02907 -3.94062,-14.68636 -11.82063,-13.97001 -0.71635,35.8181 6.44826,61.60795 21.49187,77.36795 27.22177,73.78531 51.21899,121.42244 71.99349,142.91329 9.54765,9.66552 29.01372,15.04371 29.01372,15.04371 27.93814,-12.17818 67.33861,-55.15995 118.20031,-128.94526 16.47632,-25.07267 35.81822,-35.81662 58.02546,-32.23483 v -13.97001 c -29.37086,0 -51.5794,9.31265 -66.62299,27.93805 -15.75997,-6.44725 -26.50588,-17.90984 -32.23681,-34.3862 -35.10174,3.58182 -58.74164,5.73176 -70.91979,6.44815 -7.16364,-0.71639 -11.10229,-5.01437 -11.81866,-12.89433 13.6109,-0.71639 27.57884,-2.86636 41.90609,-6.44815 6.44724,1.43272 10.20921,1.43272 11.28376,0 1.07451,-1.43271 1.07451,-3.75935 0,-6.98303 -1.07455,-3.22362 -5.9105,-3.40429 -14.50686,-0.53882 -27.93809,6.44725 -45.13003,5.91124 -51.57731,-1.61056 -6.44725,-7.5218 -7.52324,-13.07442 -3.22506,-16.65624 29.37085,-21.490852 44.77409,-34.922786 46.20681,-40.295518 1.43275,-5.372694 1.07347,-12.356683 -1.07568,-20.953039 h 13.97 c 20.05815,10.029069 39.40005,12.536393 58.02547,7.521856 -12.89453,17.192675 -19.69982,34.027247 -20.41618,50.503611 0,31.51992 17.19193,47.28051 51.57731,47.28051 46.56357,0 70.56079,-22.56589 71.9935,-67.696697 L 955.51807,77.36794 c 7.87996,35.8181 35.99665,87.9319 84.35093,156.34448 48.3545,68.41261 73.785,147.74955 76.2924,238.01117 2.5072,90.26163 -20.954,187.33048 -70.383,291.203 30.0872,30.80356 49.0717,86.67933 56.9517,167.62824 -7.1635,10.74547 -13.6116,10.74547 -19.3424,0 l -79.5154,-188.04442 c -0.7163,-99.57434 14.3276,-184.10658 45.1311,-253.59371 -7.8799,-19.3418 -15.7612,-26.14709 -23.6412,-20.4162 l 4.2988,19.34248 -4.2988,19.34052 c -6.4473,-14.32726 -19.6985,-28.29519 -39.75671,-41.90608 -57.30895,-74.50167 -87.3968,-132.16809 -90.26227,-173.00072 6.44728,-10.02906 17.55056,-16.11966 33.31052,-18.26877 l -3.2231,-15.04371 c -20.05813,0.7164 -46.38402,16.1196 -78.9785,46.20681 -32.59448,30.08721 -54.98171,47.63649 -67.15985,52.65102 l 22.56557,6.44815 71.9935,-52.65299 c 7.87996,49.42903 41.1918,108.88803 99.93352,178.37516 -27.93816,54.44353 -45.48939,105.30465 -52.653,152.58453 -7.16364,47.27992 -13.25233,73.60577 -18.2668,78.9785 -5.01457,5.3727 -6.08855,10.92535 -3.2231,16.65624 2.86547,5.73093 3.40149,12.53623 1.61057,20.41619 -1.79091,7.87999 2.3284,16.47594 12.35747,25.78865 l 16.00927,141.94774 c -20.72444,20.70579 -37.52346,32.13087 -50.39545,34.27607 -7.16361,-9.31282 -12.71425,-15.04217 -16.65428,-17.19113 -3.93998,-2.14895 -7.70194,-3.22505 -11.28376,-3.22505 -3.58182,0 -3.76052,1.61218 -0.53686,4.83561 3.22363,3.22352 5.73095,6.62613 7.52186,10.20809 1.79091,3.58198 3.76222,6.80597 5.91129,9.67124 -12.17818,2.14934 -22.20747,3.93984 -30.08742,5.37248 -19.34179,0.71632 -29.37107,10.38825 -30.08742,29.01372 47.99628,0 80.94875,-1.25442 98.85783,-3.76192 17.90902,-2.50749 31.69835,-1.96944 41.36923,1.61253 9.6709,3.58184 19.52148,2.86514 29.55057,-2.14938 10.74542,6.44762 29.01322,6.62592 54.80242,0.53685 25.789,-6.08882 48.3529,-4.8344 67.6947,3.76192 23.6399,-2.86547 32.5952,-20.77407 26.8644,-53.7267 -10.0292,-93.12713 -28.6543,-154.73413 -55.8761,-184.82134 42.2654,-94.5598 63.3979,-167.62943 63.3979,-219.20753 65.1888,21.49086 97.0673,138.25892 95.6348,350.30217 -0.7165,15.0436 4.2982,22.5636 15.0437,22.5636 9.3126,0 13.2513,-8.23663 11.8186,-24.71298 0,-138.97428 -9.8487,-232.99778 -29.5486,-282.06862 -19.7,-49.07079 -47.8185,-80.76867 -84.3529,-95.09591 0.7163,-136.10883 -31.1622,-239.62362 -95.6348,-310.54351 C 1006.3782,143.27273 982.73826,97.783596 972.7092,65.547319 956.23288,21.84922 922.92304,0 872.77765,0 Z m -5.37247,21.489893 c 24.35633,0 43.33894,5.552617 56.94979,16.65624 13.61089,11.103585 20.41619,30.266828 20.41619,57.48861 -0.71637,36.534457 -20.05826,54.800407 -58.02547,54.800407 -26.50539,0 -39.75669,-11.46066 -39.75669,-34.38422 0,-16.476364 10.02928,-35.818258 30.08742,-58.025467 V 47.280517 c -33.66903,5.730929 -54.44422,5.371612 -62.32423,-1.075674 10.02911,-16.476317 27.58035,-24.71495 52.65299,-24.71495 z M 680.43447,189.1201 759.94982,308.39413 c 30.08721,-21.4909 60.17505,-57.31002 90.26226,-107.45537 2.14912,2.14911 5.01379,4.29908 8.59557,6.44814 -25.78902,40.11628 -58.02489,78.44076 -96.70845,114.97526 -16.47632,-1.43275 -44.77155,-44.0552 -84.88783,-127.86959 z m 309.46782,312.69092 c 15.04361,10.02903 22.20831,20.05831 21.49191,30.08742 -19.3419,39.39993 -28.29714,99.93298 -26.86438,181.59825 -12.89457,20.77453 -19.34248,36.53509 -19.34248,47.28052 5.73093,25.07267 3.58289,80.23173 -6.44618,165.47886 -2.86546,17.90907 -5.73014,17.90907 -8.59556,0 -11.46179,-101.00693 -19.52173,-153.30131 -24.1781,-156.8833 -4.65638,-3.58181 -6.08968,-8.95381 -4.29876,-16.11742 1.79091,-7.16364 1.25486,-12.89495 -1.61057,-17.19309 -2.86546,-4.29822 -0.71746,-10.38684 6.44618,-18.26681 17.19267,-90.26165 38.32526,-162.25729 63.39794,-215.98443 z m -4.2968,244.99619 c -0.71632,7.16364 1.43165,14.32825 6.44618,21.49186 l 67.69673,150.43515 c -9.3127,14.32721 -21.4919,25.07316 -36.5355,32.2368 -5.0147,-11.4616 -9.4913,-18.26685 -13.4313,-20.41619 -3.9399,-2.14895 -7.7,-3.22309 -11.28182,-3.22309 -3.58175,0 -4.65772,1.43153 -3.22502,4.2968 1.43271,2.86547 4.12062,6.44878 8.06074,10.74692 3.9399,4.2984 4.1186,7.87966 0.5368,10.74494 -6.44735,9.3126 -13.25258,13.2513 -20.4162,11.81865 l -6.44814,-38.68298 c 11.46182,-80.2326 13.25248,-135.75093 5.37247,-166.55453 z M 793.84438,88.042092 c -7.59736,-0.04196 -11.73111,4.636581 -12.4027,14.038838 0.71636,6.44725 -1.43361,11.10453 -6.44815,13.97 v 3.22309 c 7.16364,-2.86543 12.89496,-5.7301 17.19309,-8.59557 4.29819,-2.86542 15.40145,-6.44677 33.31052,-10.744943 V 96.70845 c -14.32725,-0.716355 -24.35653,-3.581029 -30.08742,-8.595563 -0.53728,-0.04478 -1.05885,-0.06799 -1.56534,-0.07079 z" />
  <path
     style="fill:#26a269;stroke:none;stroke-width:0.999998"
     d="m 762.0992,322.36216 c -39.70889,-6.7543 -70.10916,-15.55371 -115.7274,-13.3702 -69.46656,-29.74207 -97.74167,-19.14523 -87.01363,13.45171 8.20869,30.55293 35.08991,37.53206 73.56337,28.55536 47.80104,9.80776 92.27034,19.12504 117.48639,23.26822 25.21607,4.1432 46.43544,-2.83344 51.44993,-9.99705 l -22.56557,-6.44815 c -32.23631,3.58183 -82.96589,-11.01315 -134.45996,-18.10033 -21.96152,-6.61022 -21.61224,-12.07739 1.04718,-16.40314 51.08231,0.30363 90.30714,9.88695 112.9966,16.23667 z"
     id="path30"
     sodipodi:nodetypes="ccccscccccc" />
  <rect
     style="fill:#26a269;fill-rule:evenodd;stroke:none;stroke-width:17;stroke-miterlimit:2.3"
     id="rect39"
     width="31.345407"
     height="25.822092"
     x="556.80743"
     y="198.82858" />
  <rect
     style="fill:#26a269;fill-rule:evenodd;stroke:none;stroke-width:17;stroke-miterlimit:2.3"
     id="rect40"
     width="31.345407"
     height="25.822092"
     x="607.2326"
     y="198.82858" />
  <rect
     style="fill:#e01b24;fill-rule:evenodd;stroke:none;stroke-width:17;stroke-miterlimit:2.3"
     id="rect41"
     width="114.97623"
     height="99.471481"
     x="597.69501"
     y="19.80254" />
  <use
     x="0"
     y="0"
     xlink:href="#rect41"
     id="use43"
     style="stroke-width:0.993199" />
  <use
     x="0"
     y="0"
     xlink:href="#path2"
     id="use46"
     transform="matrix(-1,0,0,1,1195.39,0)" />
  <path
     style="fill:#26a269;stroke:none;stroke-width:0.999998"
     d="m 433.2908,322.36216 c 38.0699,6.8259 82.85508,28.01171 121.80689,51.85594 75.21105,7.31387 94.91067,30.19836 69.83353,53.62461 -21.88537,22.845 -48.81183,16.04251 -78.23295,-10.32388 C 500.06798,403.14011 456.75416,389.71998 432.65113,381.23118 408.54809,372.7424 394.91421,364.4218 391.7491,356.27046 l 23.45185,-0.89127 c 30.45705,11.15245 77.91349,27.98547 126.47427,46.52511 22.43516,4.76099 24.75706,-0.20093 6.96707,-14.88689 -44.93874,-24.29002 -90.14137,-43.27552 -112.1284,-47.46216 z"
     id="use47"
     sodipodi:nodetypes="ccccscccccc" />
  <use
     x="0"
     y="0"
     xlink:href="#use43"
     id="use48"
     transform="matrix(-1,0,0,1,1195.39,0)" />
</svg>
