<?xml version="1.0" encoding="UTF-8" standalone="no"?>
<svg
   width="2500"
   height="800"
   id="svg2214"
   sodipodi:version="0.32"
   inkscape:version="1.4.3 (0d15f75, 2025-12-25)"
   sodipodi:docname="13B2D.svg"
   inkscape:output_extension="org.inkscape.output.svg.inkscape"
   sodipodi:modified="true"
   version="1.0"
   xmlns:inkscape="http://www.inkscape.org/namespaces/inkscape"
   xmlns:sodipodi="http://sodipodi.sourceforge.net/DTD/sodipodi-0.dtd"
   xmlns:xlink="http://www.w3.org/1999/xlink"
   xmlns="http://www.w3.org/2000/svg"
   xmlns:svg="http://www.w3.org/2000/svg"
   xmlns:rdf="http://www.w3.org/1999/02/22-rdf-syntax-ns#"
   xmlns:cc="http://creativecommons.org/ns#"
   xmlns:dc="http://purl.org/dc/elements/1.1/">
  <metadata
     id="metadata2221">
    <rdf:RDF>
      <cc:Work
         rdf:about="">
        <dc:format>image/svg+xml</dc:format>
        <dc:type
           rdf:resource="http://purl.org/dc/dcmitype/StillImage" />
      </cc:Work>
    </rdf:RDF>
  </metadata>
  <defs
     id="defs2219">
    <inkscape:perspective
       sodipodi:type="inkscape:persp3d"
       inkscape:vp_x="0 : 790.93233 : 1"
       inkscape:vp_y="0 : 1000 : 0"
       inkscape:vp_z="32.375343 : 790.93233 : 1"
       inkscape:persp3d-origin="16.187672 : 787.93337 : 1"
       id="perspective2446" />
  </defs>
  <sodipodi:namedview
     inkscape:window-height="998"
     inkscape:window-width="1680"
     inkscape:pageshadow="2"
     inkscape:pageopacity="0.0"
     guidetolerance="10.0"
     gridtolerance="10.0"
     objecttolerance="10.0"
     borderopacity="1.0"
     bordercolor="#666666"
     pagecolor="#ffffff"
     id="base"
     inkscape:zoom="0.38714096"
     inkscape:cx="1135.2454"
     inkscape:cy="370.66602"
     inkscape:window-x="-8"
     inkscape:window-y="-8"
     inkscape:current-layer="svg2214"
     showguides="true"
     inkscape:guide-bbox="true"
     showgrid="false"
     inkscape:showpageshadow="2"
     inkscape:pagecheckerboard="0"
     inkscape:deskcolor="#d1d1d1"
     inkscape:window-maximized="1">
    <sodipodi:guide
       position="0,-0.00071800975"
       orientation="0,-1"
       id="guide7"
       inkscape:locked="false" />
  </sodipodi:namedview>
  <path
     style="fill:#ffa348;stroke:none;stroke-width:1"
     d="m 582.63281,0 v 15.222656 c 0,68.011896 -40.36853,97.054224 -116.25,120.402344 -14.41728,-3.13418 -24.0478,-1.9337 -29.0625,2.76758 -5.01472,4.7013 -12.4266,4.07445 -22.14258,0 -9.716,-4.07446 -15.61397,-3.00312 -19.375,1.38476 -24.47105,-8.69633 -44.44723,-20.00371 -60.89257,-31.83203 12.89378,-20.81417 19.375,-40.74719 19.375,-58.123044 C 349.89731,19.10719 346.08686,4.1523433 340.44531,4.1523438 h -13.83789 c 0.57356,31.3368412 0.29166,54.5870002 -19.375,80.2675782 C 290.31177,64.066138 283.1075,41.030007 283.70508,13.839844 280.57089,5.6909591 276.2647,1.6450085 271.25,4.1523438 261.22057,12.301257 256.02734,26.864763 256.02734,45.669922 c 0,18.051028 6.39119,40.262995 19.37305,66.427738 -16.67602,9.72867 -38.3368,19.46241 -65.04297,27.67968 -14.41728,-3.13418 -24.04781,-1.93369 -29.0625,2.76758 -5.01473,4.7013 -12.4266,4.07445 -22.14258,0 -9.716,-4.07446 -15.61396,-3.00507 -19.375,1.38281 C 63.929903,116.97366 26.424057,75.032535 27.677734,17.990234 24.543551,9.8413532 20.237345,5.7953994 15.222656,8.3027344 5.1932257,16.451647 4.4285644e-6,31.017103 0,49.822266 0,60.873785 3.5411252,148.08326 113.48242,192.36523 c -1.88052,11.28309 -2.32504,20.78444 -1.38476,27.67969 0.94024,6.89522 -5.58458,30.46243 -19.375004,70.58008 -11.283096,8.77573 -16.607418,17.77942 -16.607422,29.0625 0,10.65628 1.149244,18.38154 5.53711,22.14258 0,10.65625 23.567176,16.60743 70.580076,16.60742 10.02943,-1.2537 18.64179,-8.22301 24.91016,-20.75977 8.14891,10.65624 18.66647,16.99872 31.83008,20.75977 13.16361,3.76105 21.90707,11.17289 26.29492,22.14258 4.38787,10.96965 14.77434,21.93172 30.44531,33.21484 0,43.87866 21.79308,88.481 65.04492,134.24024 V 561.875 c -13.16361,25.07356 -22.66304,40.02642 -27.67773,45.66797 -5.01471,5.64155 -7.67784,14.25584 -8.30469,24.91211 -0.62682,10.65624 -10.38645,30.04638 -30.44531,59.50781 -17.55147,8.77573 -29.71402,19.31803 -35.98242,38.75 -17.55146,15.04409 -32.24606,37.59323 -42.90235,66.42773 h 87.1875 L 290.625,763.92773 c 0,-8.14891 2.47886,-10.94118 9.6875,-9.6875 7.20864,1.25364 10.62777,-4.82858 9.6875,-17.99218 -0.94023,-13.16364 12.55192,-32.70957 40.13281,-67.8125 15.04413,-6.89528 24.5455,-17.28177 27.67969,-30.44532 3.13418,-13.16364 16.44402,-28.11846 41.51758,-45.66992 16.2978,-16.92469 32.63545,-27.31113 47.05273,-30.44531 l 30.44727,48.4375 c 3.13409,17.55146 10.98861,31.61729 23.52539,42.90039 l 2.76953,27.67969 c -1.67045,2.53446 -2.3198,4.22673 -4.15234,6.91797 -17.55146,8.77577 -29.71401,23.47033 -35.98243,42.90234 -17.55146,15.04409 -30.86129,37.59322 -41.51757,66.42773 l 142.54492,-1.38281 v -31.83008 c 25.70038,-3.76118 31.28491,-15.29677 19.375,-35.98242 -7.31962,-14.097 -12.27752,-25.57862 -16.60742,-35.98242 5.85147,-8.86612 10.70569,-16.64405 19.375,-27.67773 15.04415,-6.89523 23.16074,-17.28367 26.29492,-30.44727 6.35656,-26.69834 73.38391,-72.27191 88.39062,-74.68359 l 32.00977,47.00586 c 3.13409,17.55147 10.99056,31.61729 23.52734,42.90039 l 9.6875,83.03711 c -12.2351,11.78075 -30.504,33.92907 -34.71875,64.13476 l 87.3086,0.9082 v -37.36523 c -0.4079,-8.48793 2.74105,-16.80957 9.96875,-16.16797 4.63273,0.41124 9.78597,-7.52752 6.67382,-15.1289 -8.7354,-21.33612 -19.96922,-53.7294 -22.17968,-73.88086 -1.01154,-9.22159 -1.51155,-17.25648 0,-24.91211 2.64729,-13.40791 0.50779,-22.2371 -6.34375,-38.02539 -5.7483,-14.00189 -8.20652,-27.90116 -10.53711,-42.25586 44.95942,0.97041 101.53543,-3.85294 146.05469,-9.27735 l 9.21874,59.11328 h 13.83985 l 12.21289,-63.80468 c 5.47944,-1.03586 41.21824,-6.88608 73.17574,-15.75977 l 3.1836,79.56445 c -10.1508,38.0651 -31.7147,88.45498 -77.49997,134.24024 -19.43196,16.29778 -30.21168,38.58664 -34.59961,63.66015 l 89.21678,-0.95898 18.4297,-48.92773 c 4.036,-9.04064 14.1463,-13.86686 24.4785,-10.96094 l 30.5781,-89.11524 c 9.3006,-1.29806 24.9012,-13.73868 28.2793,-21.64257 13.4638,-31.50197 29.6689,-60.06947 56.7403,-81.65235 75.6781,36.71762 77.6957,114.14038 74.7324,188.21485 -21.3125,19.43201 -33.475,40.46713 -35.9824,63.66015 h 98.2597 v -35.98242 c 16.9246,0 23.892,-4.75066 20.7579,-13.83984 -0.2156,-0.62531 -25.3544,-73.79759 -12.4551,-181.29297 -18.8051,-29.46138 -31.8547,-56.839 -38.75,-84.41992 30.7342,-33.09836 39.2853,-114.18105 35.9824,-153.61524 2.0876,1.41577 3.2288,1.1787 5.5352,2.76758 8.778,45.48213 0.6936,96.38178 4.1523,157.76758 1.2537,22.25279 2.4537,58.99873 2.7676,110.71289 0.331,54.51772 2.1457,144.53349 33.2148,145.3125 58.2805,1.46129 28.3307,-150.17462 23.5274,-172.99024 -25.0735,-58.92281 -37.994,-94.78366 -37.3672,-107.94726 3.3803,-43.16383 3.2713,-79.343 1.3847,-112.09766 l 351.2286,264.23242 -60.3262,98.35743 c -14.017,21.93973 -67.1254,35.09347 -159.1504,38.75 -19.5019,-1.21874 -27.9592,3.80931 -24.9121,16.60742 1.8281,21.93973 39.9064,33.04891 114.8672,31.83008 h 327.9902 c 37.949,-21.68492 16.6605,-78.22629 -12.4551,-94.10743 l 95.4903,-232.5 c -4.266,-14.01707 -12.1121,-17.77609 -24.9102,-11.07226 l -93.9473,226.57812 -38.5898,-28.06445 91.0195,-220.65625 c -5.485,-12.18867 -14.1062,-15.78186 -26.2949,-9.6875 l -87.8437,213.5293 -454.9336,-331.16211 c -9.8669,-68.7841 -33.3017,-136.95481 -171.6075,-139.77735 -156.1271,-3.18633 -204.0276,29.50008 -292.67664,29.95587 -90.69847,0.46654 -205.00215,-47.42507 -338.39363,-67.3211 v -5.53516 l -11.07226,4.15039 C 597.00067,101.01779 610.3125,71.370325 610.3125,45.669922 605.92464,14.954847 600.72944,0 595.08789,0 Z M 561.875,150.84766 c -5.01473,31.96875 -14.20264,48.12407 -27.67969,48.4375 -13.47701,0.31354 -24.56823,-0.75596 -34.59765,-1.38282 -7.52209,0 -13.47324,3.28801 -16.60743,8.30274 l -5.53515,-11.07227 5.53515,-2.76758 c 1.88037,-12.53677 28.11083,-26.47344 78.88477,-41.51757 z m -109.33203,2.76757 c 8.77578,6.26836 13.21302,16.78595 13.83984,31.83008 l -5.53515,4.15235 11.07031,16.60742 c 6.89523,8.77573 13.86457,11.30779 20.75976,6.91992 6.89523,-4.38786 16.97026,-5.27491 30.44727,-2.76758 32.99092,6.13785 47.24073,-12.38635 55.35547,-53.97461 26.95406,0.62682 79.28363,12.16256 156.38476,35.98242 109.54873,36.41296 205.4994,43.09713 316.91797,15.22461 77.8415,-20.48462 236.407,-22.76285 261.5625,12.45508 -15.5473,-9.18437 -29.1594,-11.52292 -47.0527,-13.83984 v 13.83984 c 59.2279,15.71351 90.3616,159.71652 22.1425,256.02539 8.7757,36.35666 23.5995,66.26634 44.2852,91.33985 -4.3878,45.13239 -3.3696,101.76613 4.1523,168.83789 l -29.0625,-9.6875 c 1.8804,-15.67097 0.3679,-37.59313 -2.7675,-66.42774 -10.3845,-95.53402 -47.6302,-125.13363 -170.2227,-177.14258 -5.0147,-13.79046 -22.5015,-24.43911 -52.5898,-33.21484 L 1078.0781,465 c 10.0295,4.38782 17.7547,9.71024 22.1426,16.60547 -105.3089,37.61033 -203.8838,51.67807 -294.77539,42.90234 l -9.6875,-77.5 -22.14258,-29.0625 -29.0625,-38.75 -15.22265,6.91992 15.22265,31.83008 31.83008,33.21485 c 1.88036,51.4008 7.51824,88.14865 16.60742,110.71484 9.08914,22.56624 15.30055,37.57229 19.375,42.90039 4.07428,5.32813 4.38782,14.7763 0,30.44727 8.14887,47.6397 17.7794,80.57718 29.0625,96.875 -7.5221,-3.13409 -13.47324,-1.22908 -16.60742,6.91992 l -19.375,-4.15235 -8.30469,-89.95507 c -12.53678,-13.79042 -18.43276,-25.50847 -19.37304,-34.59766 -0.94018,-9.08914 -13.54731,-29.68173 -37.36719,-62.27734 -15.67096,-35.72979 -25.17036,-53.97266 -27.67773,-53.97266 -13.16359,9.40259 -30.96388,6.92374 -52.58985,-9.6875 -44.82587,-34.4315 -42.63814,-115.28263 -6.91992,-152.23242 18.17833,-18.80516 31.98586,-47.43644 40.13477,-84.41992 -0.62708,-4.38786 -6.83822,-5.53516 -19.375,-5.53516 -8.14891,36.98347 -20.756,63.34292 -37.36719,80.26758 -44.86019,45.70658 -41.12033,165.66179 33.21484,188.21289 27.89433,8.46232 41.51758,18.53735 41.51758,30.44726 -38.86398,9.4026 -78.01284,3.32224 -116.25,-17.99023 -36.35665,-40.74452 -53.97266,-82.68562 -53.97266,-125.9375 l -33.21484,-26.29492 c 0,-15.0441 -8.43,-25.30146 -26.29492,-29.0625 -17.86492,-3.76104 -34.01827,-17.95794 -48.43555,-44.28516 h -8.30469 c -1.88052,24.44671 -10.36376,38.12318 -23.52734,38.75 -6.2684,-4.38788 -15.00987,-5.14583 -26.29297,-1.38476 -16.2978,-4.38788 -24.28526,-12.24424 -24.91211,-23.52735 5.64155,-6.26839 9.50518,-8.80043 11.07227,-6.91992 1.5671,1.88052 0.49574,4.28341 -1.38477,5.53711 -1.8805,1.25368 -2.00963,4.35936 -1.38281,9.6875 0.62686,5.32813 4.80194,6.4754 11.07031,5.53516 8.96853,-1.34529 25.67128,-18.1331 -2.76758,-34.59766 13.79046,-40.11769 21.51576,-70.78332 22.14258,-92.72266 23.81986,-6.2684 46.76018,-6.13924 70.58008,1.38282 V 193.75 c -21.93938,-9.40258 -41.46061,-11.30779 -60.89258,-6.91992 5.01469,-6.89522 8.69405,-17.28366 12.45508,-30.44727 13.79046,4.38787 27.72715,3.50078 41.51758,-2.76758 z M 307.23242,155 c -5.01473,31.96875 -14.20265,48.12406 -27.67969,48.4375 -13.47701,0.31342 -25.95302,-0.75792 -35.98242,-1.38477 -7.52209,0 -12.08846,3.28996 -15.22265,8.30469 l -5.53516,-11.07226 5.53516,-2.76758 C 230.22818,183.98081 256.45848,170.04413 307.23242,155 Z m -110.71484,2.76758 c 8.77575,6.26836 13.21302,16.78596 13.83984,31.83008 l -5.53711,4.15234 11.07227,17.99023 c 6.89522,8.77573 13.86454,9.925 20.75976,5.53711 6.89524,-4.38787 16.96831,-5.27687 30.44532,-2.76953 38.49071,7.16107 48.56109,-18.45065 55.35742,-51.20508 13.25231,8.99345 28.97085,17.62912 47.05273,24.91211 -1.88051,11.28309 -2.32309,20.7825 -1.38281,27.67774 0.94024,6.89522 -5.58457,30.46243 -19.375,70.58008 -11.2831,8.77573 -17.99219,17.7794 -17.99219,29.0625 0,10.65628 2.53205,18.38153 6.91992,22.14257 0,6.16832 9.15788,11.24204 24.91016,13.83985 -12.89435,25.60654 -27.68325,139.36973 51.20703,163.30273 27.89431,8.46232 41.51758,18.53736 41.51758,30.44727 -38.86399,9.40255 -76.63005,3.32028 -114.86719,-17.99219 -36.35666,-40.74452 -55.35742,-82.68562 -55.35742,-125.9375 L 251.875,375.04492 c 0,-15.0441 -8.43003,-25.30147 -26.29492,-29.0625 -17.86492,-3.76103 -34.02022,-17.9599 -48.4375,-44.28711 h -8.30274 c -1.88052,24.44671 -8.98095,38.12318 -22.14453,38.75 -6.2684,-4.38789 -15.00987,-5.14388 -26.29297,-1.38281 -16.29779,-4.38788 -25.668068,-12.24424 -26.294918,-23.52734 5.641548,-6.26839 9.503228,-8.80044 11.070308,-6.91993 1.5671,1.8805 1.88051,4.28143 0,5.53516 -1.8805,1.25368 -3.39439,4.35936 -2.76757,9.6875 0.62687,5.32812 4.8039,6.47734 11.07226,5.53711 8.97308,-1.34599 25.66736,-18.13734 -2.76758,-34.59961 13.79046,-40.11769 21.51576,-70.78333 22.14258,-92.72266 23.81986,-6.2684 48.143,-6.1373 71.96289,1.38477 v -5.53516 c -21.93937,-9.40258 -42.84342,-11.3078 -62.27539,-6.91992 5.01469,-6.89522 8.69405,-17.28365 12.45508,-30.44726 13.79046,4.38785 27.72714,3.50079 41.51758,-2.76758 z m 19.375,53.97265 c -31.96877,-5.64155 -57.18093,-7.41567 -74.73242,-5.53515 1.73413,13.87301 6.32593,25.93423 24.91015,47.05273 6.89525,7.83548 9.6875,18.53736 9.6875,30.44727 h 5.53711 c 0.62684,-15.0441 -3.81041,-31.51286 -13.83984,-48.4375 16.2978,-3.76103 32.13968,-10.9906 48.4375,-23.52735 z m 195.64844,-10.36718 c -5.24571,-0.008 -10.03526,0.21701 -14.35352,0.67968 1.73978,13.91826 6.35175,25.96555 24.91016,47.05469 6.89525,7.83549 9.6875,18.5354 9.6875,30.44531 h 4.15234 c 0.62685,-15.0441 -3.8104,-31.51286 -13.83984,-48.4375 15.77544,-3.64048 32.66202,-11.66271 48.4375,-23.52539 -23.42738,-4.07595 -43.25702,-6.19386 -58.99414,-6.21679 z m -0.51563,11.75195 h 31.83008 l -24.91016,8.30273 z M 155,217.27734 h 31.83008 l -24.91016,8.30274 z m 278.16992,116.24805 c 8.14891,10.65624 18.66648,16.99873 31.83008,20.75977 13.1636,3.76105 21.90511,11.17289 26.29297,22.14257 4.38782,10.96965 14.7763,21.93173 30.44726,33.21485 0,5.4567 0.71606,11.12164 1.38477,16.60742 l -33.21484,-41.51758 -15.22266,5.53516 15.22266,31.83008 30.44531,33.21484 c 1.88037,51.40075 7.51824,88.14669 16.60742,110.71289 9.08914,22.56619 15.30055,37.57425 19.375,42.90234 -2.93835,5.17142 -5.06503,11.38282 -5.53516,19.375 -0.29672,5.08094 -3.58631,11.40168 -8.30273,20.75782 C 529.96322,635.27009 522.68051,623.55203 521.74023,614.46289 520.8,605.3737 508.19488,584.78311 484.375,552.1875 c -15.67096,-35.72979 -25.17232,-53.97461 -27.67969,-53.97461 -13.16359,9.40256 -29.57914,6.92369 -51.20508,-9.6875 -43.92715,-33.74118 -38.12286,-103.53937 -19.375,-135.625 6.99365,0.35207 13.59478,0 22.14258,0 10.02943,-1.25369 18.64373,-6.83823 24.91211,-19.375 z m 112.09766,156.38477 c 7.58857,13.16085 16.39078,26.81116 27.67773,40.13281 l -22.14258,-1.38281 z m 573.30082,19.37109 c 15.5857,1.0631 37.5113,6.97187 68.8398,23.53125 -21.9393,19.43197 -37.9104,45.40013 -49.8203,76.11523 -5.6415,11.2831 -13.2378,16.60743 -20.7598,16.60743 -6.2684,0 -19.3179,31.68378 -38.75,96.875 -10.0294,-0.62664 -17.1279,4.56637 -22.1426,15.22265 l -24.9101,-5.53515 c 36.9836,-50.14707 57.2627,-93.60215 62.2773,-128.70508 l -5.5371,-88.57227 c 5.971,-2.81958 15.217,-6.60216 30.8028,-5.53906 z m 260.1269,11.75195 c 51.552,115.02527 30.4006,198.60938 23.2227,198.60938 -7.522,0 -12.7172,-31.42353 -15.2246,-94.10742 -2.439,-60.9736 -4.4297,-95.72791 -7.9981,-104.50196 z m -769.76757,29.76953 c 21.93933,8.77577 41.06927,13.83985 56.74024,13.83985 l -53.97266,48.4375 c 2.50745,15.67097 -4.59108,27.0756 -22.14258,34.59765 -23.19302,48.89344 -38.6436,73.34766 -44.28515,73.34766 -6.26841,0 -10.83674,7.09848 -15.22461,22.14258 l -23.52539,-9.6875 c 3.76118,-10.02942 10.41499,-19.08628 20.75781,-26.29492 10.34287,-7.20864 24.72405,-27.93037 42.90234,-63.66016 -1.88037,-15.67096 2.68583,-30.36361 15.22266,-42.90039 15.04414,-21.31251 23.52734,-37.91236 23.52734,-49.82227 z m -52.58984,1.38477 c 10.93143,0.21257 18.9756,0.003 29.0625,0 v 5.53516 l -16.60742,29.0625 c -4.39092,-9.49998 -8.89128,-20.34246 -12.45508,-34.59766 z m -203.4375,2.76758 c 21.93934,8.77573 41.07121,13.83789 56.74219,13.83789 l -53.97266,48.4375 c 2.50736,15.67097 -4.59304,27.07756 -22.14453,34.59961 -23.19302,48.89344 -37.25884,69.19531 -42.90039,69.19531 -6.2684,0 -12.21954,7.09844 -16.60742,22.14258 l -23.52735,-9.6875 c 3.76104,-10.02946 10.41695,-19.08628 20.75977,-26.29492 10.34285,-7.20864 24.72208,-23.77803 42.90039,-59.50782 -1.8805,-15.67096 4.07064,-30.36561 16.60742,-42.90234 15.04413,-21.31256 22.14258,-37.9104 22.14258,-49.82031 z m 1413.71681,82.03711 128.2558,96.48828 v 27.67969 l -164.6855,2.76757 c -13.4076,-5.48487 -19.0451,-16.76007 -16.6074,-33.21484 z m -1192.28712,74.3457 c 3.64249,9.87246 7.02486,19.06672 11.07031,24.91016 -7.5221,-3.13409 -13.47324,-1.22908 -16.60742,6.91992 l -2.76758,-1.38281 c 0.13285,-2.04113 0.186,-2.93046 0,-5.53711 -0.42957,-5.9949 2.81769,-14.365 8.30469,-24.91016 z m 440.08792,31.83008 34.5976,9.6875 c -1.8804,3.76118 -6.0556,11.61738 -11.0703,23.52734 h -45.66991 z m -774.99808,5.53711 c 7.75714,-0.11957 17.77942,4.43534 29.0625,13.83789 l -6.91992,13.83984 H 217.27734 L 232.5,750.08789 c 2.19396,-1.09696 4.33422,-1.34384 6.91992,-1.38281 z m 256.02539,0 c 7.75712,-0.11957 17.77944,4.43534 29.0625,13.83789 l -6.91992,13.83984 h -44.28516 l 15.22266,-26.29492 c 2.19391,-1.09696 4.33408,-1.34384 6.91992,-1.38281 z m 298.92774,2.76758 26.29492,4.15039 v 20.75976 h -44.28516 c 6.89523,-12.53678 12.97551,-21.1491 17.99024,-24.91015 z m 496.83005,1.38281 40.1348,2.76758 v 20.75976 h -53.9746 c 5.0147,-10.02942 9.452,-17.88579 13.8398,-23.52734 z m -743.16794,4.15234 17.99023,2.76758 -1.38281,20.75977 h -27.67969 l 8.30469,-16.60743 c 0,-3.46314 1.46559,-5.15496 2.76758,-6.91992 z"
     id="path2223"
     sodipodi:nodetypes="cscsscccsccccsccsscccscscscccsscccsscccccsscscccccccccccccscccccccssssccccccccccccccscccccsccccsssccccccccccccccccccssccccsccscccccccccssccccccccccccccccccccccsscccccsccssccssccccscccccssssccccccccscccccccccssccscsccsccccscccccsssscccccccccsccccccsccccccccccccccssccccccscccsccscccccccsccscccccscsscccccsccsccccccccccccsccscccccccccccccccccccccccccccccccccccccccccccccccc" />
  <use
     x="0"
     y="0"
     xlink:href="#path2478"
     id="use2"
     transform="translate(-145.0183)" />
  <path
     style="fill:#f9f06b;stroke:none;stroke-width:1px;stroke-linecap:butt;stroke-linejoin:miter;stroke-opacity:1"
     d="m 266.59034,223.43456 68.24618,113.5039 9.32602,110.40074 45.74934,72.94911 66.43605,22.31735 34.33146,-2.60423 52.6364,13.88572 110.82248,-2.85035 -27.143,248.96392 H 1297.2937 L 1288.253,144.65015 413.89459,137.5468 259.4442,158.63927"
     id="path2"
     sodipodi:nodetypes="ccccccccccccc" />
  <path
     id="path2478"
     style="fill:#000000;stroke:none;stroke-width:1"
     d="m 444.14353,162.78125 c -8.19177,0.628 -17.74063,2.54768 -27.82226,6.95703 -10.08287,4.41213 -20.78694,11.41625 -33.39063,20.86914 0.62776,1.89217 5.53509,2.78125 15.30274,2.78125 h 23.65234 c 5.67164,0 9.68741,-1.46845 12.52344,-5.56445 2.83606,-4.09603 4.93444,-7.53266 5.56445,-9.73828 0.62775,-2.20382 -1.15232,-0.86803 -5.56445,4.17187 -4.4121,5.04163 -11.60125,7.58505 -19.47852,6.95508 -7.87724,-0.62778 -8.90053,-3.93555 -4.17187,-8.34766 4.72597,-4.41168 15.74295,-9.89287 33.38476,-18.08398 z M 471.97361,0 v 15.304688 c 0,23.316552 -5.08968,42.54887 -13.91211,57.042968 -11.34328,24.576966 -45.61064,45.724654 -102.95703,64.000004 -13.8641,-3.15215 -23.86235,-1.94499 -29.21875,2.7832 -5.35645,4.72646 -12.4921,4.41212 -22.25977,0 -9.76763,-4.4121 -15.69725,-3.65121 -19.47851,1.38867 C 208.52572,112.79131 170.18977,70.626571 171.45017,13.910156 167.67028,5.0877224 163.97036,1.0210562 158.92869,4.171875 148.84584,11.733901 143.624,26.374395 143.624,45.910156 c 0,18.905327 7.1372,43.046213 22.26172,72.349614 15.12453,29.30341 46.45306,51.91953 91.82617,69.56445 -1.89218,11.97325 -2.33697,22.28473 -1.38867,29.2168 0.94387,6.93204 -3.82986,29.86492 -13.91406,69.5664 -11.97328,9.45286 -18.08594,19.8961 -18.08594,30.60938 0,11.34328 2.54714,18.47851 6.95703,22.25976 0,10.08286 21.27792,15.30469 65.39063,15.30469 10.08286,-0.62776 18.74135,-6.87481 25.04296,-19.47852 8.19247,10.7133 18.4511,17.0879 32,20.86915 13.54889,3.77989 23.41496,11.23366 27.82618,22.26171 4.41213,11.02807 14.09423,22.67732 29.21875,33.39063 0,44.74315 21.27792,88.95346 65.39062,134.95703 v 13.91406 c -13.86411,25.20741 -23.09974,40.55567 -27.82617,45.91211 -4.72643,5.35643 -7.40248,14.01686 -8.34766,25.04492 -0.94388,11.02807 -11.83426,30.20758 -32,59.82618 -17.64489,8.19249 -26.43554,23.72533 -26.43554,44.52148 l -19.47657,5.56445 C 351.35018,751.01732 340.7748,770.38138 330.0615,800 h 87.6543 l 16.69531,-32 c 0,-8.19248 3.88271,-10.9987 11.13086,-9.73828 7.24729,1.25997 10.36825,-4.85423 9.73828,-18.08789 -0.62775,-13.23369 13.24987,-37.05741 40.34766,-72.34766 15.12452,-6.93204 23.28471,-17.37568 26.43554,-30.60937 3.15213,-13.23366 18.68411,-28.26721 44.52149,-45.91211 15.75449,-17.01494 30.78759,-27.45855 45.91211,-30.60938 l 27.82617,41.73828 c 10.7133,28.98819 19.5035,45.67667 26.43555,50.08789 L 683.45408,736 c -17.64534,16.38494 -30.63241,37.40199 -37.56445,62.60938 h 83.47851 v -34.78321 c 22.05614,-0.62774 29.82179,-13.61941 22.25977,-37.5664 -17.64492,-33.39983 -28.0866,-66.01183 -30.60743,-98.78125 l 2.78126,-23.65235 c -10.0829,-17.64535 -16.45792,-35.98637 -20.86915,-54.26172 92.38103,12.39876 190.66227,-12.76928 257.17551,-34.72511 l 0.21707,13.85597 5.56446,73.73828 c -6.9321,27.72779 -16.92828,53.78211 -29.2168,79.30469 -12.28849,25.5226 -27.63873,48.24744 -45.91406,64.00195 -10.71331,0 -22.43993,17.70912 -37.56446,54.25977 h 84.86914 l 5.56641,-26.43359 16.69531,1.38867 h 12.52149 c 8.8225,-34.02983 23.85747,-76.69481 45.91404,-125.21875 16.3849,-6.30208 25.3148,-13.44349 25.0429,-22.26172 l 19.3614,-89.91211 c 23.2851,20.71241 51.2994,50.45452 69.6816,70.43555 16.3849,15.12451 23.6523,45.19265 23.6523,91.82617 v 6.95508 l -2.7832,32.00195 c 0,6.30165 -14.2728,25.66612 -44.5214,58.43555 v 2.78125 h 97.3925 v -22.25977 c 14.4941,0 22.2598,-6.24482 22.2598,-19.47851 v -4.17188 l -27.8262,-107.13086 12.5235,-82.08789 9.7382,34.7832 c 0.7213,32.15722 10.1274,51.67993 4.9258,90.54883 4.3943,28.13161 23.4077,52.19141 34.7442,52.19141 6.9321,0 4.7693,-1.24552 17.373,-11.95703 l 1.3906,-76.52344 V 637.2168 c 0,-20.79614 -2.6776,-42.57386 -8.3496,-64 -19.536,-59.86722 -29.2168,-97.83363 -29.2168,-115.47852 V 325.56445 c 0,-46.00309 -4.1988,-77.85682 -11.1308,-97.39257 -15.1246,-35.29025 -41.7545,-52.86915 -82.086,-52.86915 l -26.4355,1.38868 -87.6524,-4.17188 c -39.07147,1.25994 -62.76443,3.80711 -70.95693,6.95703 -64.27841,14.49409 -110.01051,22.26172 -137.73828,22.26172 l -11.13086,1.38867 h -1.38867 l -2.7832,-1.38867 -51.47852,1.38867 -44.52148,-4.17187 c -44.7427,-20.16573 -84.23189,-30.60938 -118.26172,-30.60938 -40.33148,-21.42614 -68.48464,-32 -84.86914,-32 h -44.52344 v -5.56445 l -11.12891,4.17187 C 487.05162,101.55326 501.19431,71.745578 501.19431,45.908203 496.15041,15.033615 490.16673,0 484.49509,0 Z m -20.86914,150.26172 c -5.04163,32.13945 -13.20188,48.06531 -26.43555,48.69531 -13.23367,0.63219 -25.46053,1.25995 -36.17383,0 -6.93206,0 -12.15386,2.67557 -15.30468,8.34766 l -6.95703,-11.13086 6.95703,-2.78125 c 1.25999,-12.60367 26.86932,-27.37635 77.91406,-43.13086 z m -109.91602,4.16601 0.002,0.006 c 8.82244,6.30161 13.28409,16.87547 13.91406,32 l -5.56641,4.17188 11.13086,16.69531 v 0.002 c 6.30143,8.19156 13.93745,11.36611 20.86914,6.95508 6.93204,-4.41211 17.06048,-5.30402 30.60938,-2.7832 13.54889,2.51995 23.93776,-0.65495 33.39062,-6.95703 9.45289,-6.30161 16.1975,-17.89849 18.08789,-36.17383 1.25997,-8.82245 10.18126,-13.91211 27.82618,-13.91211 h 29.21679 c 42.85228,20.79614 67.306,32 72.34766,32 l 52.87109,8.34766 c 37.18064,18.90532 81.62885,27.82617 130.78321,27.82617 h 11.1289 c 44.74268,0 76.59641,-1.15431 97.39258,-5.56641 72.47085,-15.7545 122.271,-23.65234 147.4784,-23.65234 23.947,2.51995 63.5664,2.7832 119.6524,2.7832 27.7276,0 46.9601,11.20385 57.0429,32 l -13.9121,-15.30469 c -17.6448,-7.56202 -39.6855,-11.13087 -66.7832,-11.13085 -1.8922,0 -2.9118,5.22183 -4.1719,15.30468 0,3.15216 7.2676,4.30643 23.6524,5.56641 30.2486,0 45.914,16.55587 45.914,48.69531 v 75.13086 c 0,32.13945 -14.0125,79.78644 -41.7402,144.69531 v 5.56641 c 39.506,112.47025 -42.2522,35.77448 -83.4785,18.08594 l -41.7383,-29.2168 c -5.0416,-14.49407 -21.8599,-25.96075 -51.4784,-34.7832 l -5.56641,15.30468 c 10.0828,4.41211 17.85054,10.52389 22.26174,18.08594 -105.87079,37.81106 -204.21083,51.95331 -294.95705,43.13086 l -11.13086,-62.60742 v -16.69727 c 0,-10.71331 -7.76765,-19.63371 -22.26172,-27.82617 l -27.82617,-38.95508 h -2.7832 l -13.91406,6.95508 v 5.56641 l 16.69531,26.43359 30.60937,32 -2.7832,18.08789 c 3.20112,104.03915 -49.96645,36.03743 -114.08594,16.69531 -21.74136,-16.69968 -31.6848,-42.04623 -32,-75.13085 -0.31165,-33.08465 8.47346,-60.08416 26.4336,-79.30469 17.96012,-19.22053 30.76454,-46.92785 38.95703,-83.47852 -0.62778,-4.41213 -6.87483,-5.56445 -19.47852,-5.56445 -7.56204,37.18066 -20.54954,63.9956 -37.56445,80.69531 -17.01494,16.69969 -26.25052,36.50962 -27.82617,59.82617 -1.57607,23.31653 1.41559,48.03308 8.34765,75.13086 6.93205,27.09779 24.82615,45.75449 52.86914,54.26172 28.04299,8.50725 41.74024,17.87352 41.74024,29.2168 -39.0715,9.4529 -78.43004,4.10086 -116.8711,-16.69531 -36.55068,-40.96192 -54.25976,-83.12666 -54.25976,-126.60938 l -32.00195,-26.43555 c 0,-15.1245 -16.68609,-27.35136 -50.08594,-36.17382 -3.7799,0 -12.57145,-12.35707 -26.43555,-37.56446 h -8.34765 c -1.25996,27.72821 -10.81126,40.58505 -27.82618,36.17383 l -8.34765,-5.56445 -13.91211,2.78125 c -13.2337,0 -19.47852,-6.24486 -19.47852,-19.47852 l 12.52149,-11.1289 1.38867,5.56445 -6.95703,9.73828 v 8.34961 l 2.7832,2.78125 15.30469,-2.78125 h 2.7832 l 2.78125,-11.13086 v -9.74023 l -15.30469,-5.56446 c 11.34328,-45.37312 16.82748,-78.74768 18.08789,-100.17383 23.94697,-6.93207 47.64048,-6.80156 70.95703,1.38868 v -5.56446 c -22.05657,-9.45288 -42.31342,-11.36826 -61.21874,-6.95703 5.04165,-6.93205 9.37264,-17.37568 12.52343,-30.60937 13.86412,4.41212 27.87415,3.51663 41.73828,-2.78321 z m 19.48047,52.875 c -22.68658,-5.04167 -47.40263,-6.06448 -75.13086,-4.17187 1.25998,10.08286 3.80711,17.66547 6.95703,23.65234 3.15215,5.98684 8.81805,13.75403 16.69532,22.26172 7.87726,8.50723 11.13086,18.63414 11.13086,30.60742 h 4.17187 c 1.25996,-15.12453 -6.63743,-30.15761 -23.65234,-45.91211 17.01491,0 37.13959,-9.42061 59.82617,-26.43554 z m -59.82617,4.17383 23.65234,2.78321 v 2.78125 l -18.08789,5.56836 z m 901.56835,203.13086 h 2.7812 c 1.2598,51.67474 4.0704,100.08478 9.7402,146.08789 -18.2754,-11.34326 -30.8948,-31.60015 -40.3476,-61.21875 v -2.78125 z"
     sodipodi:nodetypes="cccsssccccccscccscccsscccsccccccccsccccccccccccccccccccccccccsccccccccccsccccccscccccsccscssccccccccccccsccccsccccccccccccccccccscccssccsccsccsscccccccccsccccccccccsccscsscccccccccccccccccccccccccccccccccccccccccccccccc" />
  <path
     style="fill:#000000;stroke:none;stroke-width:0.999997"
     d="m 1797.4006,762.00378 v -28.68675 l -134.1798,-92.53595 -49.9674,89.76026 c -2.4716,16.65644 3.0798,27.76068 16.6542,33.31271 z m -61.0752,-114.74543 94.3884,-232.26607 c 6.7871,-19.74109 22.055,-36.08922 45.8037,-49.04441 23.752,-12.95485 35.937,-13.88008 36.5549,-2.77569 1.8371,10.48747 -5.4127,19.27831 -21.7494,26.37251 -16.3469,7.09453 -27.605,19.58694 -33.7744,37.47724 l -96.2368,234.11682 39.7913,27.76135 85.1342,-206.35653 c 6.7839,-19.12414 22.0519,-35.16364 45.804,-48.1185 23.752,-12.95519 35.9353,-13.88042 36.5498,-2.77568 1.8371,9.87053 -5.4111,18.35306 -21.7445,25.44759 -16.3468,7.09453 -27.6049,19.58694 -33.7742,37.47724 l -87.9099,210.98248 c 13.5711,7.40315 24.3664,21.5922 32.3861,42.56716 3.7009,24.67619 -3.0846,41.94955 -20.3564,51.82009 h -331.2834 c -75.8787,1.23251 -114.7433,-9.25496 -116.5938,-31.46243 -3.073,-12.95485 5.2557,-18.81551 24.986,-17.58199 93.1541,-3.70125 146.8241,-16.65627 161.0098,-38.86506 l 52.7479,-89.7603 C 1366.4899,423.01253 1221.8254,316.28735 1194.0653,302.09863 l 14.8053,-32.38781 527.4548,377.54801 z"
     id="path1"
     sodipodi:nodetypes="cccccccccccccccsccccccccccccccc" />
</svg>
