<?xml version="1.0" encoding="UTF-8" standalone="no"?>
<svg
   width="1300"
   height="1000"
   version="1.1"
   id="svg1"
   sodipodi:docname="13B35.svg"
   inkscape:version="1.4.4 (dcaf3e7, 2026-05-05)"
   xmlns:inkscape="http://www.inkscape.org/namespaces/inkscape"
   xmlns:sodipodi="http://sodipodi.sourceforge.net/DTD/sodipodi-0.dtd"
   xmlns="http://www.w3.org/2000/svg"
   xmlns:svg="http://www.w3.org/2000/svg">
  <defs
     id="defs1" />
  <sodipodi:namedview
     id="namedview1"
     pagecolor="#ffffff"
     bordercolor="#000000"
     borderopacity="0.25"
     inkscape:showpageshadow="2"
     inkscape:pageopacity="0.0"
     inkscape:pagecheckerboard="0"
     inkscape:deskcolor="#d1d1d1"
     inkscape:zoom="0.18975"
     inkscape:cx="729.90777"
     inkscape:cy="482.21344"
     inkscape:window-width="1920"
     inkscape:window-height="998"
     inkscape:window-x="-11"
     inkscape:window-y="-11"
     inkscape:window-maximized="1"
     inkscape:current-layer="svg1" />
  <path
     style="fill:#000000;stroke:none;stroke-width:0.999996"
     d="m 1272.7417,310.07416 c 0,0 8.8971,-11.16774 13.7251,-16.46503 3.5366,-3.94505 7.1846,-7.84882 10.7367,-11.77885 -9.9967,-14.68204 -18.423,-28.74063 -25.2896,-42.22428 -18.5316,-36.39059 -34.3899,-68.36422 -47.4248,-95.94927 -13.0349,-27.58511 -36.4451,-60.94226 -70.2082,-100.104735 -33.7632,-39.1624846 -60.333,-51.9150111 -79.7066,-38.2511891 -14.4169,10.8021231 -13.7736,30.0641461 1.8354,57.8153261 15.6084,27.75157 33.59,54.930788 53.942,81.595838 20.3519,26.66525 40.0862,47.67181 59.2785,63.02751 19.1924,15.35572 40.9332,34.20803 56.7084,59.38492 9.1124,10.36407 16.4923,21.44239 30.1337,38.32309 z m -45.3425,-98.06254 c -37.337,-34.62074 -71.1058,-72.7453 -101.3302,-114.363952 -30.2246,-41.61859 -42.4386,-64.521775 -36.6004,-68.718674 6.1002,-5.174297 23.352,7.370847 51.6184,37.727885 28.2665,30.35707 56.9972,78.839931 86.3122,145.354741 z"
     id="path5"
     sodipodi:nodetypes="scccssccssccscscsc" />
  <path
     id="path1"
     style="fill:#000000;stroke:none;stroke-width:0.999996"
     d="m 341.22989,394.80582 c -9.30092,0.71545 -19.61843,3.57191 -31.06572,8.58006 -11.44726,5.0082 -24.35045,12.83868 -38.65959,23.5705 0.71546,2.14636 6.6623,3.2545 17.75185,3.2545 11.08957,0 19.79418,-0.13532 26.23329,-0.49333 6.43907,-0.3575 11.27777,-2.70941 14.49734,-7.00212 3.21955,-4.29275 5.20184,-7.75251 5.91728,-10.25662 0.0672,-0.23479 0.0818,-0.52791 0.0985,-0.69035 v -0.0985 -0.0985 -0.0985 h -0.0985 v -0.0985 h -0.0985 -0.0985 -0.0985 l -0.0985,0.0985 c -0.0447,0.0182 -0.24541,0.0722 -0.29591,0.0985 -1.00609,0.61623 -2.9029,2.50052 -5.72003,5.72004 -5.00878,5.72355 -11.96514,8.30919 -20.90832,7.59376 -8.94319,-0.71546 -10.79009,-3.57189 -5.42419,-8.58005 5.36591,-5.00818 18.0351,-12.19851 38.06785,-21.49946 z m -94.38064,51.48034 c -37.20367,-6.4391 -65.86646,-8.18739 -85.8992,-5.32554 1.4309,11.44728 4.52135,21.12469 9.17179,28.99468 4.65046,7.87001 10.86804,16.06985 18.73806,24.65534 7.87001,8.58544 11.83455,19.64172 11.83455,33.23539 h 5.32556 c 1.43091,-17.17094 -3.91252,-35.04818 -16.07527,-53.65002 18.60186,-5.00818 37.58724,-14.31619 56.90451,-27.90985 z m -69.7253,5.42418 36.39127,1.08481 -28.89604,10.65113 z M 781.87011,91.742388 c -5.86899,-0.167675 -12.1293,1.794238 -18.83669,5.818663 v 78.305359 c -13.59367,8.58548 -41.14828,13.92891 -82.64471,16.07528 0,42.92733 1.47747,78.54644 4.33948,106.80693 2.862,28.26046 8.70997,64.38435 17.65319,108.38487 6.11869,30.10379 12.98618,56.74349 20.61186,79.98191 C 678.95897,481.71002 632.37243,468.84765 583.24668,448.45584 488.44887,409.10579 418.1834,384.40756 372.39424,374.39119 l 3.2545,-17.16011 -19.32978,6.41039 c 32.91096,-37.91914 49.31068,-71.55596 49.31068,-100.88965 -5.72365,-35.0573 -11.80585,-52.56518 -18.24495,-52.56518 h -14.99045 v 17.16012 c 0,26.47185 -4.97407,47.94427 -14.99045,64.39974 -12.87819,27.90276 -51.85847,52.2316 -116.96492,72.97981 -15.74,-3.57728 -26.66092,-2.70314 -32.7423,2.66277 -6.08137,5.36591 -14.74923,5.59991 -25.83879,0.59173 -11.08956,-5.00818 -18.68604,-4.63878 -22.97877,1.08484 C 73.024364,337.58561 30.719626,289.66667 32.150562,225.27571 27.857819,215.25932 22.88376,211.66414 17.160116,214.52598 5.7128265,223.8269 0,239.5865 0,261.7656 c 0,21.46369 8.5692399,48.7843 25.740174,82.05298 17.170934,33.26866 51.546546,59.94918 103.059316,79.98192 -2.14637,13.59365 -2.74977,24.14518 -1.67656,31.65746 1.07318,7.51227 -6.25257,34.09417 -21.99256,79.88329 -12.878229,10.73185 -19.231168,22.25613 -19.231168,34.41885 0,12.87819 2.486987,21.44743 7.495223,25.74017 0,11.44731 26.815885,17.1601 80.475025,17.1601 11.44729,-0.71549 20.7553,-8.27518 27.90985,-22.58427 9.30091,12.16275 21.60071,20.46126 36.983,24.75397 15.3823,4.293 25.56445,12.4926 30.57263,24.65532 5.00815,12.16272 16.16307,24.69657 33.33402,37.57475 0,50.08185 21.47242,96.89264 64.39973,140.53544 l -9.66489,15.08905 c -67.2528,22.8946 -109.18811,38.92497 -125.64361,48.22583 -32.19545,11.44733 -45.73879,32.55034 -40.73062,63.3149 2.14635,29.33371 11.95912,44.95797 29.48779,46.74656 17.52864,1.78851 41.35274,1.92383 71.40186,0.49484 30.04913,-1.431 80.31967,-3.04378 150.79205,-4.83228 70.47234,-1.78851 138.98959,-0.17673 205.52694,4.83228 -9.30094,-24.32549 -28.28632,-55.10591 -56.90453,-92.30958 -16.45548,-0.71551 -30.73759,10.80883 -42.90032,34.41887 -8.58546,-28.61826 -21.11922,-34.33105 -37.5747,-17.16013 -47.93552,16.45372 -94.61093,25.52776 -140.04235,27.31637 -45.43144,1.78866 -67.50721,-0.56306 -66.07632,-7.00212 v -0.10104 h -0.0985 v -0.10104 l 0.0985,-0.10094 v -0.10104 h 0.0985 v -0.10104 c 2.15196,-1.48704 16.32856,-3.87188 42.30857,-7.00206 29.69135,-3.5775 69.41043,-10.90304 119.13459,-21.99257 49.72416,-11.08962 86.45142,-22.37991 110.06142,-33.82713 23.61004,-11.44732 36.78401,-28.95516 39.64582,-52.5652 85.85462,21.46369 141.70264,32.15058 167.45905,32.15058 0.7155,10.73186 4.58133,29.34789 11.73594,55.81969 l 8.67868,-1.08461 c 5.72367,-18.60179 12.68,-32.14517 20.90771,-40.73059 8.22776,-8.58552 23.24861,-13.79353 45.06995,-15.58218 21.82139,-1.78851 49.88074,-13.07894 84.22268,-33.82714 15.74005,25.7564 32.23827,44.237 49.40931,55.32657 17.1709,11.08957 19.2885,18.41532 6.4104,21.99258 -92.29379,7.15456 -152.74651,11.38985 -181.36472,12.82076 -33.62642,2.86201 -64.40684,12.16979 -92.30959,27.90988 l 76.23434,55.81964 c 22.89454,-3.57751 40.40242,-17.85932 52.56515,-42.90026 6.43916,27.1873 27.54221,30.04374 63.31493,8.58005 129.49739,-3.577 208.56609,-3.44168 237.18439,0.49485 28.6182,3.93501 45.2519,-3.02157 49.9023,-20.90775 4.6505,-17.88644 -5.7656,-36.6378 -31.1643,-56.31278 -25.3986,-19.67504 -27.0116,-50.22146 -4.8323,-91.71789 22.1792,-41.49639 37.0645,-80.84607 44.5768,-118.04974 23.7379,-117.55946 16.6909,-209.06293 -156.7094,-207.68674 -76.19588,-3.21956 -152.17414,3.3674 -228.01242,19.8229 -17.76611,3.85492 -36.12553,6.20976 -54.93211,7.00211 3.76939,-117.44752 6.36943,-249.27706 7.69247,-395.471635 -3.21955,-1.609772 -6.63664,-2.463552 -10.158,-2.564161 z M 761.9486,203.77625 c 0,109.23673 -0.83265,204.66361 -2.56409,286.19918 -3.19173,-0.0909 -6.44456,-0.21965 -9.66488,-0.39436 -26.40802,-85.65037 -40.56896,-176.34406 -42.50591,-271.89921 27.18731,-4.29275 45.43392,-8.89739 54.73488,-13.90561 z M 349.80995,380.80158 c -5.72364,36.48825 -16.04121,54.96888 -31.06573,55.32658 -15.0246,0.35751 -28.66652,0.12371 -40.82924,-0.59174 -7.87001,0 -13.58285,2.85641 -17.16011,8.58006 l -7.49522,-10.6511 7.49522,-4.33933 c 1.43089,-15.02456 31.1032,-31.15353 89.05508,-48.32447 z m -125.54499,3.25451 c 10.01639,7.87002 15.45847,20.40379 16.17391,37.57473 l -6.50902,3.2545 12.9194,21.40084 c 7.15455,9.30091 14.61566,11.51719 22.48568,6.50901 7.87001,-5.00822 19.52965,-6.11635 34.91196,-3.2545 15.38225,2.8618 28.42085,0.74413 39.15266,-6.41039 10.73186,-7.15455 18.93171,-19.31897 24.65535,-36.48991 22.89458,3.57727 79.85076,24.07695 170.71357,61.63835 90.86284,37.56141 161.26372,56.78078 211.34557,57.49625 50.0819,0.71545 97.36062,-5.09598 141.71886,-17.25873 44.35821,-12.16273 102.82866,-16.39804 175.4473,-12.82078 72.6188,3.57726 114.6895,16.48047 126.1368,38.65958 -21.4637,-13.59363 -42.5667,-20.04525 -63.3149,-19.32979 v 16.07528 c 35.0572,9.30091 54.5474,32.01688 58.4825,68.14735 3.9349,36.13052 1.3491,70.50611 -7.5938,103.05934 -8.9432,32.55321 -21.3784,64.20778 -37.4762,94.97233 -16.0977,30.76462 -14.2142,58.59002 5.8186,83.63091 20.0328,25.041 17.5458,37.2054 -7.4951,36.4899 -25.041,-0.71551 -44.5311,0.0233 -58.4825,2.16973 -13.9514,2.1465 -20.4029,-5.68408 -19.3298,-23.57051 1.073,-17.88633 -11.0911,-36.50236 -36.4899,-55.81965 -25.3987,-19.3174 -62.02734,-72.57977 -109.96283,-159.86529 l -12.91936,17.16012 c 17.8863,35.77279 23.46377,63.96755 16.66698,84.71573 -6.79686,20.74819 -35.09026,34.39015 -84.81437,40.82926 -49.72414,6.43911 -125.70241,-8.58173 -228.01257,-45.06996 -13.59362,-51.5128 -39.67077,-96.57533 -78.30534,-135.20991 l -17.16012,7.49526 c 42.21188,67.96823 65.93735,121.23061 71.30326,159.86518 5.36591,38.63458 -101.76221,73.01017 -321.40703,103.05933 l -22.48565,-3.25449 c 47.22006,-23.61 86.33573,-38.76628 117.45803,-45.56307 31.12233,-6.79682 55.95594,-15.96944 74.55774,-27.41676 v -17.16008 c -12.87815,2.14635 -28.4038,-6.42291 -46.6479,-25.74019 -18.24413,-19.31729 -27.55211,-47.7461 -27.90984,-85.30747 -0.3577,-37.56143 9.68904,-67.23369 30.07951,-89.05509 20.39048,-21.82139 35.17735,-53.47594 44.47823,-94.97236 -0.71543,-5.00818 -7.8072,-7.59384 -21.40084,-7.59384 -9.30091,42.21188 -23.6816,72.99232 -42.9989,92.30958 -19.3173,19.31729 -29.86882,41.02371 -31.65745,64.99146 -1.78864,23.96779 -0.81588,43.45793 2.76139,58.4825 -9.30092,-22.89458 -14.00423,-46.48464 -14.00423,-70.81014 l -36.4899,-30.07951 c 0,-16.45548 -10.18214,-27.00698 -30.57262,-31.65745 -20.39048,-4.65045 -39.14186,-21.6536 -56.31279,-50.98727 l -9.66491,1.08482 c -1.43094,27.90277 -9.63076,41.81546 -24.65533,41.81546 -7.15454,-5.00816 -17.57069,-5.00816 -31.16434,0 -18.60184,-5.00816 -27.90984,-13.94677 -27.90984,-26.82498 5.72363,-7.87 9.68818,-10.72644 11.83455,-8.58006 2.14635,2.14635 1.91237,4.12865 -0.59173,5.91728 -2.50406,1.78865 -3.37822,5.51919 -2.66276,11.24283 0.71545,5.72368 4.81537,8.07532 12.32767,7.00211 7.51228,-1.07315 12.35097,-6.04723 14.49733,-14.99044 2.14636,-8.94318 -3.56644,-17.37704 -17.16011,-25.24707 15.74003,-45.78912 24.30927,-80.9035 25.74017,-105.22898 27.18729,-7.87002 54.00318,-7.13126 80.47503,2.16968 v -6.4104 c -25.04097,-10.73183 -48.26166,-13.58827 -69.7253,-8.58006 5.72363,-8.58548 10.42695,-20.3805 14.00422,-35.40507 15.74003,5.72365 31.40101,4.61553 47.14101,-3.2545 z" />
  <path
     style="fill:none;stroke:#813d9c;stroke-width:33"
     d="m 1207.6723,533.95589 c 203.4697,28.60777 128.8011,-178.24736 50.9186,-278.58305"
     id="path6"
     sodipodi:nodetypes="cc" />
</svg>
