<?xml version="1.0" encoding="UTF-8" standalone="no"?>
<svg
   width="1814.0156"
   height="1807.166"
   version="1.1"
   id="svg2"
   sodipodi:docname="13B82.svg"
   inkscape:version="1.4.3 (0d15f75, 2025-12-25)"
   xmlns:inkscape="http://www.inkscape.org/namespaces/inkscape"
   xmlns:sodipodi="http://sodipodi.sourceforge.net/DTD/sodipodi-0.dtd"
   xmlns:xlink="http://www.w3.org/1999/xlink"
   xmlns="http://www.w3.org/2000/svg"
   xmlns:svg="http://www.w3.org/2000/svg"
   xmlns:rdf="http://www.w3.org/1999/02/22-rdf-syntax-ns#"
   xmlns:cc="http://creativecommons.org/ns#"
   xmlns:dc="http://purl.org/dc/elements/1.1/">
  <title
     id="title2">Q47</title>
  <defs
     id="defs2" />
  <sodipodi:namedview
     id="namedview2"
     pagecolor="#ffffff"
     bordercolor="#000000"
     borderopacity="0.25"
     inkscape:showpageshadow="2"
     inkscape:pageopacity="0.0"
     inkscape:pagecheckerboard="0"
     inkscape:deskcolor="#d1d1d1"
     inkscape:zoom="0.51068824"
     inkscape:cx="819.48235"
     inkscape:cy="1297.2689"
     inkscape:window-width="1680"
     inkscape:window-height="998"
     inkscape:window-x="-8"
     inkscape:window-y="-8"
     inkscape:window-maximized="1"
     inkscape:current-layer="svg2"
     showguides="true">
    <sodipodi:guide
       position="890.08194,1104.0467"
       orientation="-1,0"
       id="guide1"
       inkscape:locked="false"
       inkscape:label=""
       inkscape:color="rgb(0,134,229)" />
    <sodipodi:guide
       position="1075.0199,0"
       orientation="0,-1"
       id="guide3"
       inkscape:locked="false" />
    <sodipodi:guide
       position="968.08044,1207.9366"
       orientation="-1,0"
       id="guide5"
       inkscape:label=""
       inkscape:locked="false"
       inkscape:color="rgb(0,134,229)" />
    <sodipodi:guide
       position="693.9375,1137.4824"
       orientation="0,-1"
       id="guide6"
       inkscape:locked="false" />
    <sodipodi:guide
       position="890.08194,1142.7568"
       orientation="0,-1"
       id="guide7"
       inkscape:locked="false" />
    <sodipodi:guide
       position="911.97352,1142.7568"
       orientation="1,0"
       id="guide8"
       inkscape:locked="false" />
    <sodipodi:guide
       position="933.97352,1142.7568"
       orientation="-1,0"
       id="guide9"
       inkscape:label=""
       inkscape:locked="false"
       inkscape:color="rgb(0,134,229)" />
    <sodipodi:guide
       position="1024.2837,1158.7491"
       orientation="1,0"
       id="guide10"
       inkscape:locked="false" />
    <sodipodi:guide
       position="1002.2837,1158.7491"
       orientation="-1,0"
       id="guide11"
       inkscape:label=""
       inkscape:locked="false"
       inkscape:color="rgb(0,134,229)" />
    <sodipodi:guide
       position="1075.0199,22"
       orientation="0,1"
       id="guide12"
       inkscape:label=""
       inkscape:locked="false"
       inkscape:color="rgb(0,134,229)" />
    <sodipodi:guide
       position="588.98309,1122.7474"
       orientation="1,0"
       id="guide2"
       inkscape:locked="false" />
    <sodipodi:guide
       position="1814.0156,1807.166"
       orientation="0,-1"
       id="guide4"
       inkscape:locked="false" />
    <sodipodi:guide
       position="2072.5488,305.89062"
       orientation="1,0"
       id="guide13"
       inkscape:locked="false" />
    <sodipodi:guide
       position="891.44406,364.0155"
       orientation="0,-1"
       id="guide14"
       inkscape:locked="false" />
  </sodipodi:namedview>
  <path
     id="path1"
     style="fill:#000000;stroke:none;stroke-width:100"
     d="m 1123.3901,0 c -9.2987,0 -19.5622,0.53758468 -30.8962,1.5738923 -41.1855,3.7657631 -62.0768,36.3112717 -62.0768,96.5634247 0,178.604553 -40.65329,265.551563 -120.70428,265.551563 -81.21098,0 -120.70642,-86.94701 -120.70642,-265.551563 0,-60.252153 -20.88914,-92.7976616 -62.07465,-96.5634247 -10.10575,-0.92406255 -20.0559,-1.36218668 -29.29878,-1.36218667 -9.59105,0 -18.42255,0.47180377 -25.88154,1.36218667 -14.647,1.7484034 -25.78539,4.9661138 -34.48664,10.3457757 -17.40237,10.759325 -26.4299,23.948816 -27.59015,37.935936 5.16127,5.982828 11.99831,8.874529 20.0436,8.874529 6.42247,0 13.61615,-1.842858 21.34163,-5.425223 14.80456,-6.864843 28.86594,-10.705036 41.66325,-10.705034 2.2456,0 4.45389,0.11827 6.61847,0.359258 14.50215,1.613898 21.27173,20.969858 20.69155,58.627486 -0.58028,37.65759 0,81.33785 0,127.60289 0,47.34101 22.56917,107.68738 68.9754,186.23038 -22.04281,10.7594 -33.29516,30.6533 -37.93593,58.62749 l -106.91134,79.31904 c -32.48448,13.98711 -47.12157,35.40001 -48.28171,65.5261 -1.16057,30.12602 -4.57653,52.61488 -6.89647,65.52609 -2.32017,12.91113 7.83393,21.1345 31.03732,27.59016 16.15092,10.98413 30.44648,17.35773 42.15722,17.35773 0.90864,0 1.80022,-0.0378 2.67733,-0.11548 2.42176,-0.2135 4.80655,-0.31221 7.16164,-0.31221 9.49481,0 18.49433,1.60634 27.32499,3.76152 1.43977,0.35146 2.97085,0.52391 4.58482,0.52391 10.74068,0 25.11819,-7.65202 40.24759,-21.21547 9.37876,-8.40759 33.97942,-11.61815 69.31541,-11.61815 13.37409,0 28.28596,0.45806 44.4924,1.27024 l 32.10013,1.45842 0,789.76502 96.4565,-22 0,-773.22233 c 23.78226,-6.54328 43.42456,-17.49014 57.67376,-33.93491 26.1034,-30.12603 37.9359,-66.02594 37.9359,-106.91134 0,-40.88537 15.7974,-77.8591 48.2818,-106.9092 32.4846,-29.05017 47.7017,-57.92699 48.2816,-89.66696 0.5803,-31.74002 1.1596,-60.17383 0,-82.76834 l -137.9486,100.01273 c 39.4454,-51.64466 62.0768,-102.02945 62.0767,-148.29444 0,-47.34095 -2.2866,-90.48322 -3.4471,-127.60289 -1.1606,-37.119609 5.6097,-56.475621 20.6915,-58.627486 2.7405,-0.390982 5.5042,-0.583795 8.2972,-0.583795 12.5787,0 25.7441,3.885955 39.9846,10.929571 7.6369,3.777177 14.7528,5.647621 21.1192,5.647621 8.1417,0 15.0576,-3.05905 20.266,-9.096927 -1.1607,-13.987128 -13.057,-26.638646 -31.0395,-37.935936 C 1165.6776,3.731301 1147.8809,0 1123.3901,0 Z m 24.2842,342.99518 c 0,32.27794 -14.6704,60.39737 -44.8347,86.21979 -30.1643,25.82234 -65.1745,46.79222 -103.45982,58.62749 l 6.89652,27.59016 34.4866,-13.79507 v 44.8324 c 0,76.3911 -31.5947,115.10519 -96.56344,117.25711 -0.85401,0.0284 -1.68519,0.0385 -2.50197,0.0385 -1.99696,0 -3.91251,-0.062 -5.91494,-0.062 -0.63514,0 -1.27413,0.007 -1.92887,0.0235 -14.91634,0.36021 -29.47893,0.68216 -43.77174,0.68216 -10.8437,0 -21.53168,-0.18509 -32.10013,-0.68216 -32.29474,-1.51948 -63.83311,-2.27613 -93.11626,-6.89861 -20.33458,13.25178 -46.29658,41.65468 -62.85732,41.65468 -0.91981,0 -1.80825,-0.0876 -2.66664,-0.26944 -2.24232,0.5792 -4.46867,0.84041 -6.6869,0.84041 -5.81382,0 -11.57543,-1.78577 -17.45396,-4.28758 20.8829,-25.82241 36.71124,-39.23339 44.83241,-41.38523 8.12063,-2.15189 13.79509,-7.33945 13.79509,-13.79508 -0.21898,-1.58441 -1.30828,-2.37795 -3.2483,-2.37795 -8.59821,0 -33.8131,15.60675 -72.62358,47.21035 l -17.24439,-3.44717 c -6.96136,-12.9112 -9.79681,-26.32219 -6.89647,-41.38523 2.90034,-15.06305 10.24967,-23.82442 20.69155,-27.59016 2.549,-0.91862 4.50816,-1.40068 5.90424,-1.40068 4.32358,0 3.24502,4.62249 -2.45493,15.19576 -6.36017,11.79702 -4.9471,17.87522 4.35172,17.87522 1.72674,0 3.72338,-0.2093 5.99405,-0.63084 14.50204,-2.68979 21.82048,-10.91317 24.14086,-27.59016 2.32017,-16.6769 -1.06118,-30.40443 -10.34577,-37.93594 34.80475,-33.35388 69.81741,-53.69082 103.46203,-65.5261 4.6412,-30.12602 31.20585,-54.66974 75.87187,-72.42256 27.84153,-11.06582 47.30901,-16.95355 59.14927,-16.95355 7.15506,0 11.52532,2.14973 13.2733,6.60777 4.64011,11.83523 14.79509,17.24438 31.03733,17.24438 17.40249,0 39.45379,-4.11175 62.07679,-13.79508 22.6231,-9.68347 62.6962,-39.0982 120.7043,-89.66695 z m -320.73196,131.0522 c -16.24235,19.36679 -17.88633,32.77776 -10.34577,41.38524 5.13948,5.86615 10.68477,8.93869 18.46971,8.93869 3.6384,0 7.76629,-0.67165 12.56975,-2.04222 10.22302,-2.91719 25.98858,-4.94623 45.56375,-4.94621 9.30431,0 19.46666,0.45722 30.30599,1.4969 -17.40227,-26.89834 -35.48664,-39.76917 -51.72888,-41.38309 -16.24213,-1.61387 -32.07293,-2.37338 -44.83455,-3.44931 z"
     sodipodi:nodetypes="ssssssssscssscssccccccscssscsccccccsscccsssssscsscscccsssscsccscscscsccscscsccccsscssscccscscsc" />
  <metadata
     id="metadata2">
    <rdf:RDF>
      <cc:Work
         rdf:about="">
        <dc:title>Q47</dc:title>
        <dc:creator>
          <cc:Agent>
            <dc:title>Serge J. Paul THOMAS</dc:title>
          </cc:Agent>
        </dc:creator>
        <dc:description>Modified by S. Rosmorduc to match Hieroglyphica. Head of F11A instead of F1.
</dc:description>
      </cc:Work>
    </rdf:RDF>
  </metadata>
  <rect
     style="opacity:1;fill:#f9f06b;fill-rule:evenodd;stroke:none;stroke-width:40;stroke-miterlimit:5;stroke-dasharray:none"
     id="rect5"
     width="68.406494"
     height="874.59204"
     x="933.8772"
     y="599.22943" />
  <path
     style="fill:none;stroke:#613583;stroke-width:44;stroke-linecap:butt;stroke-linejoin:miter;stroke-dasharray:none;stroke-opacity:1"
     d="m 911.97352,664.40922 0,803.53778 m 112.31018,-2.9372 0,-816.59292"
     id="path2"
     sodipodi:nodetypes="cccc" />
  <path
     id="path1-4"
     style="fill:#000000;stroke:none;stroke-width:1"
     d="m 929.84414,1428.8281 c -72.4476,32.199 -108.6719,86.5354 -108.6719,163.0078 0,86.2317 15.5501,215.3301 108.6719,215.3301 -26.0974,-71.0237 -38.2363,-138.9388 -38.2363,-213.3183 0,-61.6972 25.491,-92.5723 76.4726,-92.5723 v -72.4473 z"
     sodipodi:nodetypes="cscsccc" />
  <use
     x="0"
     y="0"
     xlink:href="#path1-4"
     id="use13"
     transform="matrix(-1,0,0,1,1936.1609,0)" />
  <rect
     style="fill:#f6d32d;fill-rule:evenodd;stroke:#c01c28;stroke-width:1.5;stroke-linejoin:round;stroke-miterlimit:2.3"
     id="rect14"
     width="68.310173"
     height="76.367531"
     x="933.97351"
     y="1366.783" />
</svg>
