<?xml version="1.0" encoding="UTF-8" standalone="no"?>
<svg
   width="1400"
   height="1000"
   version="1.1"
   id="svg1"
   sodipodi:docname="13CC9.svg"
   inkscape:version="1.4.3 (0d15f75, 2025-12-25)"
   xmlns:inkscape="http://www.inkscape.org/namespaces/inkscape"
   xmlns:sodipodi="http://sodipodi.sourceforge.net/DTD/sodipodi-0.dtd"
   xmlns="http://www.w3.org/2000/svg"
   xmlns:svg="http://www.w3.org/2000/svg">
  <defs
     id="defs1" />
  <sodipodi:namedview
     id="namedview1"
     pagecolor="#ffffff"
     bordercolor="#666666"
     borderopacity="1.0"
     inkscape:showpageshadow="2"
     inkscape:pageopacity="0.0"
     inkscape:pagecheckerboard="0"
     inkscape:deskcolor="#d1d1d1"
     inkscape:zoom="0.75499998"
     inkscape:cx="780.79473"
     inkscape:cy="526.49008"
     inkscape:window-width="1680"
     inkscape:window-height="998"
     inkscape:window-x="-8"
     inkscape:window-y="-8"
     inkscape:window-maximized="1"
     inkscape:current-layer="svg1"
     showguides="true">
    <sodipodi:guide
       position="0.579431,983.96333"
       orientation="0,-1"
       id="guide1"
       inkscape:locked="false" />
    <sodipodi:guide
       position="189.95616,97.87591"
       orientation="1,0"
       id="guide2"
       inkscape:locked="false" />
    <sodipodi:guide
       position="1250,99.05393"
       orientation="1,0"
       id="guide3"
       inkscape:locked="false" />
    <sodipodi:guide
       position="3.5306135,97.87591"
       orientation="0,-1"
       id="guide4"
       inkscape:locked="false" />
    <sodipodi:guide
       position="160.75781,29.05713"
       orientation="1,0"
       id="guide5"
       inkscape:locked="false" />
    <sodipodi:guide
       position="525.20192,938.85689"
       orientation="0.99937616,-0.035317007"
       id="guide6"
       inkscape:locked="false" />
    <sodipodi:guide
       position="528.38852,657.6476"
       orientation="0.99937616,-0.035317071"
       id="guide7"
       inkscape:label=""
       inkscape:locked="false"
       inkscape:color="rgb(0,134,229)" />
    <sodipodi:guide
       position="533.36093,798.35315"
       orientation="0,-1"
       id="guide8"
       inkscape:locked="false" />
    <sodipodi:guide
       position="523.95368,663.0235"
       orientation="0,-1"
       id="guide9"
       inkscape:locked="false" />
    <sodipodi:guide
       position="984.50794,730.42169"
       orientation="0.85328219,-0.52144943"
       id="guide10"
       inkscape:locked="false" />
    <sodipodi:guide
       position="965.08567,617.28216"
       orientation="0.85976309,-0.51069309"
       id="guide11"
       inkscape:locked="false" />
  </sodipodi:namedview>
  <path
     style="fill:#000000;stroke:none;stroke-width:1"
     d="m 148.3092,545.30415 -2.2e-4,92.16858 z"
     id="path4"
     sodipodi:nodetypes="ccc" />
  <path
     style="fill:#ffa348;stroke:none;stroke-width:0.999999"
     d="m 414.11953,435.57753 c 0,19.96977 9.98504,30.37072 29.95512,31.20287 19.96977,-0.83281 30.37072,-11.23377 31.20287,-31.20287 -0.83281,-18.30577 -11.23377,-27.45866 -31.20287,-27.45866 -19.97008,0 -29.95512,9.15289 -29.95512,27.45866 z m 200.94678,-39.9395 c 33.28294,81.54333 -5.40866,131.46788 -116.07481,149.77365 65.73402,-27.45849 95.0647,-61.57357 87.99204,-102.34525 -7.07267,-40.77199 -32.65898,-61.15799 -76.75893,-61.15799 -54.08484,0 -90.28015,9.15289 -108.58593,27.45866 -3.32829,10.81704 -10.40095,14.97749 -21.218,12.48134 -2.49514,9.98489 1.66531,23.71414 12.48135,41.18775 h -26.21044 c 24.13022,0 41.81171,18.09757 53.04448,54.29272 11.23312,36.19547 33.07523,63.44593 65.52634,81.75137 -2.49515,61.57393 27.87556,121.48353 91.11213,179.72881 l -52.42085,44.93195 H 314.27075 c -24.1302,29.12281 -24.1302,43.68421 0,43.68421 H 1333.9795 c 18.3058,0.83281 17.8894,-13.72859 -1.2491,-43.68421 -34.9473,-4.99261 -74.887,-13.31334 -119.8192,-24.96221 C 1097.2525,748.02229 996.15534,701.42603 909.61983,658.99006 823.08381,616.55407 769.62286,585.3512 749.23698,565.38145 c -20.38573,-19.96975 -43.89197,-53.25284 -70.5187,-99.84927 -26.62635,-46.5961 -47.84419,-69.89415 -63.6535,-69.89415 z m -71.14286,-189.7132 c 32.45109,4.99229 50.34078,26.21011 53.66908,63.65348 -4.16045,44.93213 -28.70673,67.39819 -73.63885,67.39819 -38.27553,-4.99229 -57.82921,-29.1225 -58.66104,-72.39063 3.32829,-38.27552 21.6339,-58.24527 54.91684,-59.90926 l 4.99244,-143.533504 c 0.83283,-20.801583 -7.90398,-31.618452 -26.21042,-32.450605 -13.31317,0 -22.04999,9.984881 -26.21044,29.954643 -32.4511,136.460326 -35.77939,232.565076 -9.98487,288.314226 40.77167,-7.48875 84.45571,-6.24118 131.05214,3.74272 29.12242,-53.25268 32.03463,-148.94135 8.73664,-287.065998 -4.16045,-20.801915 -13.93729,-31.410908 -29.33052,-31.826978 -15.39356,-0.416415 -23.50642,9.776501 -24.33858,30.578748 z m 36.19531,63.65348 c -3.32829,-29.95463 -19.13777,-46.18001 -47.42842,-48.67615 -29.12248,0 -44.93179,14.97731 -47.42793,44.93194 -2.49515,30.78679 11.2341,49.09241 41.18774,54.91684 32.45078,-3.32829 50.34032,-20.38584 53.66861,-51.17263 z m 708.92884,268.34448 -235.8933,-174.73587 174.7359,234.64562 z m -483.01984,23.71444 178.48018,-292.05892 86.11966,67.39819 262.1042,195.95384 c 20.8019,19.9701 28.2905,32.86736 22.4658,38.69178 -14.1454,14.14532 -33.2832,13.72891 -57.4134,-1.24923 5.8247,6.65659 10.6094,14.76928 14.3539,24.33808 3.7443,9.5688 2.7049,17.26542 -3.1182,23.08985 -5.8247,5.82476 -13.5215,6.86578 -23.0904,3.12307 -9.5689,-3.74438 -17.6816,-8.9447 -24.3382,-15.60095 14.9775,24.96203 15.394,44.51571 1.2493,58.66103 -5.8243,5.82443 -18.7216,-1.66431 -38.6917,-22.46622 L 1028.195,380.66218 c -9.9851,-12.48134 -21.2183,-18.30593 -33.69936,-17.47378 -13.31323,1.66563 -23.71417,9.15437 -31.2028,22.46622 L 844.72202,585.3527 c 19.13793,13.31316 66.9822,37.85944 143.53282,73.63883 91.52866,42.43599 163.08736,73.8469 214.67616,94.23273 51.5886,20.38583 94.6485,31.61878 129.1796,33.69885 34.5311,2.07873 51.7967,28.91328 51.7967,80.50363 0,19.96977 -4.5765,29.12249 -13.7295,27.45817 H 278.07841 c -28.29065,-0.83282 -29.12347,-25.79502 -2.49846,-74.88659 0,-15.80964 12.89726,-23.71446 38.69178,-23.71446 h 179.72831 l 28.70639,-16.22504 c -51.5887,-67.39835 -76.96697,-122.73142 -76.13481,-165.99923 -30.78679,-27.45883 -49.92456,-55.54145 -57.41329,-84.24784 -7.48875,-28.70674 -17.47363,-43.06011 -29.95465,-43.06011 -10.81703,-1.66233 -22.04998,1.24989 -33.69884,8.73665 0,-46.59609 14.14516,-74.47051 42.43549,-83.62324 -2.49515,-19.13793 6.65774,-27.87474 27.45867,-26.21043 9.98487,-14.97748 24.13019,-24.96252 42.43598,-29.95512 C 413.70477,294.12592 417.44914,195.10897 449.06809,58.648636 455.72468,27.029687 469.24588,9.1399897 489.63171,4.9795431 510.01754,0.81941503 526.03506,7.0600853 537.68427,23.701554 550.99743,7.8919193 567.84693,2.6914437 588.23278,8.100127 c 20.3858,5.408351 32.65892,23.921994 36.81936,55.540931 23.29813,138.956802 20.80186,236.725692 -7.4888,293.306672 34.94725,11.64919 63.65382,36.61155 86.11972,74.88708 35.77933,59.07744 69.89454,102.34541 102.34565,129.80392 z"
     id="path1"
     inkscape:transform-center-x="-494.55726"
     inkscape:transform-center-y="-46.084026"
     sodipodi:nodetypes="sccssccsscccccccccscccssccccccccccccccccccccccccccccccccscccsccccccscscccscccscccccccccccccc" />
  <path
     d="M 1289.2746,537.54058 1053.3813,362.80471 1228.1172,597.45033 Z M 984.73497,269.1961 l 86.11963,67.39819 262.1042,195.95384 c 20.8019,19.9701 28.2905,32.86736 22.4658,38.69178 -14.1454,14.14532 -33.2832,13.72891 -57.4134,-1.24923 5.8247,6.65659 10.6094,14.76928 14.3539,24.33808 3.7443,9.5688 2.7049,17.26542 -3.1182,23.08985 -5.8247,5.82476 -13.5215,6.86578 -23.0904,3.12307 -9.5689,-3.74438 -17.6816,-8.9447 -24.3382,-15.60095 14.9775,24.96203 15.394,44.51571 1.2493,58.66103 -5.8243,5.82443 -18.7216,-1.66431 -38.6917,-22.46622 L 1028.422,380.27997 c -9.9851,-12.48134 -21.2183,-18.30593 -33.69933,-17.47378 -13.31323,1.66563 -23.71417,9.15437 -31.2028,22.46622 L 844.94905,584.97049 806.25574,561.25652 Z"
     style="fill:#000000;stroke:none;stroke-width:0.999999"
     id="path1-9"
     sodipodi:nodetypes="cccccccccscccsccccccc" />
  <path
     style="fill:#000000;stroke:none;stroke-width:1"
     d="m 403.54341,382.35019 c -17.68276,-0.84202 -25.73868,7.54263 -24.0546,25.22542 -25.26108,6.73628 -37.89131,31.1264 -37.89131,73.22814 10.10442,-6.73626 20.2299,-9.24105 30.33434,-7.55696 10.94648,0 19.76635,13.06543 26.50264,39.16855 6.73627,26.10307 21.43609,54.30352 44.17104,84.61685 0,64.83671 18.61667,124.61275 55.66618,179.34512 l -20.22287,45.44833 H 309.98591 c -26.94513,0 -40.33935,8.05594 -40.33935,24.05458 -12.63053,22.73498 -18.94566,40.42446 -18.94566,48.00275 l -89.94309,0 v 106.11699 l 1239.24209,0 V 892.60575 c 0,-26.10311 -20.5796,-41.89092 -61.8393,-47.36416 -41.2599,-5.47324 -84.5953,-15.38114 -130.0653,-29.69573 -44.6277,-27.78719 -112.2422,-70.14111 -202.7611,-126.97848 -90.51879,-56.83797 -153.88771,-98.21446 -190.09526,-124.31757 -36.20755,-26.1031 -75.73261,-69.10982 -118.67643,-128.89433 -31.7869,-47.68028 -81.91811,-90.8966 -159.22868,-90.8966 -81.37784,0 -116.40268,15.15349 -133.79042,37.89131 z m 103.56251,-2.55448 c 39.57571,0 62.44262,18.29258 68.75782,54.92113 6.31531,36.62853 -14.48209,62.10664 -62.47807,76.42126 15.99869,31.15529 15.56342,50.97101 -1.27721,59.39147 -16.84083,8.42035 -32.19339,5.04519 -46.08694,-10.11147 -13.89361,-15.15663 -26.52385,-36.82437 -37.89132,-65.03256 -11.36749,-28.2082 -28.02569,-42.36166 -49.91863,-42.36166 h 24.05461 c -10.10445,-15.99868 -14.35001,-28.1937 -12.66591,-36.61408 10.10442,0.84208 16.85474,-2.96831 20.22288,-11.38867 15.99869,-16.84071 48.44474,-25.22542 97.28277,-25.22542 z m 82.06238,3.83169 c 14.31458,0 44.58464,32.33962 90.8966,97.17633 46.31197,64.83675 119.80642,127.22406 220.42951,187.0086 100.62319,59.78453 203.18849,120.7598 307.60089,183.07041 45.47,11.78848 92.1807,20.27963 140.1766,25.33185 19.3669,12.63044 19.8018,18.51027 1.2775,17.66832 H 309.98591 c -25.26107,0 -25.26107,-14.80623 0,-44.2775 h 198.29081 l 30.33436,-73.22815 c -42.1018,-61.46861 -62.68156,-121.2447 -61.8395,-179.34511 47.15398,0 71.10895,-23.19096 71.95095,-69.50289 62.31056,-31.15534 75.81125,-79.06511 40.44577,-143.90186 z m -141.45382,20.11648 c -17.68279,0 -26.50265,8.05593 -26.50265,24.05462 0,18.52474 8.81986,27.77986 26.50265,27.77986 17.68273,-0.84202 26.93784,-10.09713 27.77986,-27.77986 -0.84202,-15.99869 -10.09713,-24.05462 -27.77986,-24.05462 z m -257.89956,520.47346 1181.12808,0 v 46.72553 l -1181.12808,0 z"
     id="path7"
     sodipodi:nodetypes="ccccscccscccccssccscscssccssccccscsscccsccccccssccsccccc" />
  <path
     style="fill:#33d17a;stroke:none;stroke-width:0.999991"
     d="m 434.35721,392.92869 c 0.0102,0.005 0.0455,0.0207 0.11857,0.0445 0.0169,0.005 0.0342,0.0115 0.0508,0.017 0.0102,-0.003 0.0177,-0.005 0.0275,-0.009 -0.10636,-0.0309 -0.17765,-0.0503 -0.19693,-0.0529 z"
     id="path6" />
  <path
     style="fill:#1a5fb4;stroke:none;stroke-width:0.999991"
     d="M 503.75869,0.07944061 C 499.12326,-0.18544018 494.2099,0.21210409 489.01823,1.2716374 468.25149,5.5097414 454.4789,23.733636 447.69795,55.943258 415.48834,194.95314 411.67354,295.81898 436.25456,358.54292 c -6.04403,1.64839 28.57076,-8.23321 25.8703,-7.7372 -26.27627,-56.79064 -23.32686,-155.85258 9.73036,-294.862462 4.23812,-20.342913 13.1365,-30.514298 26.69842,-30.514298 18.64767,0.847638 27.55025,11.864883 26.70264,33.055381 l -5.43819,155.006569 c -8.11263,0.0353 30.73212,1.21114 24.17612,0.77075 l 5.41916,-154.504708 c 0.84761,-21.190551 9.11157,-31.573388 24.79259,-31.149564 15.68098,0.423825 25.64091,11.229564 29.87901,32.420115 23.73337,140.705127 20.76443,238.183307 -8.90228,292.431077 l 6.39199,12.60381 16.30561,-3.21288 C 646.69943,305.21127 650.70336,202.58122 626.96999,61.02849 622.73188,28.818861 610.2302,9.9584609 589.46346,4.4489356 568.69673,-1.0605978 551.53013,4.2386717 537.9682,20.343471 529.06815,7.6291465 517.66503,0.87501596 503.75876,0.08037357 Z"
     id="path1-1"
     sodipodi:nodetypes="cscccccccccscccccsccc" />
  <circle
     style="fill:none;fill-rule:evenodd;stroke:#613583;stroke-width:20;stroke-miterlimit:5;stroke-dasharray:none"
     id="path8"
     cx="530.96973"
     cy="269.31168"
     r="57.664829" />
</svg>
