<?xml version="1.0" encoding="UTF-8" standalone="no"?>
<svg
   width="893.13831"
   height="1000"
   version="1.1"
   id="svg1"
   sodipodi:docname="13DAE.svg"
   inkscape:version="1.4.3 (0d15f75, 2025-12-25)"
   xmlns:inkscape="http://www.inkscape.org/namespaces/inkscape"
   xmlns:sodipodi="http://sodipodi.sourceforge.net/DTD/sodipodi-0.dtd"
   xmlns="http://www.w3.org/2000/svg"
   xmlns:svg="http://www.w3.org/2000/svg">
  <defs
     id="defs1" />
  <sodipodi:namedview
     id="namedview1"
     pagecolor="#ffffff"
     bordercolor="#666666"
     borderopacity="1.0"
     inkscape:showpageshadow="2"
     inkscape:pageopacity="0.0"
     inkscape:pagecheckerboard="0"
     inkscape:deskcolor="#d1d1d1"
     inkscape:zoom="0.26693281"
     inkscape:cx="-174.20114"
     inkscape:cy="867.25944"
     inkscape:window-width="1680"
     inkscape:window-height="998"
     inkscape:window-x="-8"
     inkscape:window-y="-8"
     inkscape:window-maximized="1"
     inkscape:current-layer="svg1"
     showguides="true" />
  <path
     style="fill:#000000;stroke:none;stroke-width:1"
     d="M 186.60305,347.65512 C 209.87831,268.38434 192.67486,229.59227 134.99273,231.27888 95.863324,233.30282 64.155013,228.41164 39.867798,216.60536 15.917905,204.46175 2.4250082,190.12555 -0.61089364,173.59675 -1.9601836,156.3933 9.3401179,140.20182 33.290011,125.02232 c 9.78235,-8.09574 20.57667,-14.16755 32.382953,-18.21541 11.468965,-3.71055 23.612573,-5.90315 36.430826,-6.57779 23.94989,0 45.03254,5.05984 63.24795,15.17951 17.87809,10.11967 32.2143,27.32312 43.00861,51.61033 55.6582,36.0935 70.33173,101.53406 44.02058,196.32165 -14.04404,47.26733 -27.8176,94.63771 -38.96074,142.68739 -22.16353,121.26525 -119.380971,413.89463 29.62112,413.89463 137.99383,0 124.55079,-147.84423 104.97053,-428.06217 -17.71353,-253.50276 17.53387,-367.8461 150.22357,-367.8461 161.4395,0 161.37193,246.56672 146.57636,369.59191 -23.45987,195.06974 -29.79236,220.4607 -26.60467,290.71274 3.41185,75.19392 53.80292,128.3512 153.31305,159.38484 20.91397,12.48095 31.37099,23.6126 31.37099,33.39492 0,15.17951 -20.91398,22.76927 -62.74198,22.76927 -131.89308,-34.74423 -197.83961,-106.9312 -197.83961,-216.561 0,-113.67767 18.59855,-207.72408 23.56877,-266.93151 9.2714,-110.44423 38.71779,-320.0055 -69.66684,-320.0055 -111.49034,0 -70.33807,209.85819 -68.76021,289.92461 4.97007,252.20041 57.43811,513.5734 -166.19455,513.5734 -224.252254,0 -209.882732,-233.26797 -126.26399,-492.32208 z M 107.6696,110.34879 c -7.42109,0 -14.504856,2.69858 -21.251307,8.09574 -6.746447,5.05983 -10.119672,12.98692 -10.119672,23.78122 0,5.73449 0.674627,10.28834 2.023934,13.66157 1.686595,3.37324 3.541885,6.24046 5.565821,8.60172 -14.842187,-2.36127 -35.081534,0 -60.718038,7.08377 4.385193,8.77038 11.468962,15.85416 21.251313,21.25132 9.782348,5.39716 20.74533,8.93905 32.888937,10.62565 12.143609,2.02394 24.287212,3.03591 36.430822,3.03591 h 35.92484 c 62.40464,13.49289 88.88446,40.98467 79.43943,82.47533 -9.44503,41.15333 -14.33621,66.62118 -14.67352,76.40352 -0.33733,9.78235 4.04786,-1.85526 13.15558,-34.91287 32.38294,-90.4024 -1.18063,-145.72328 -100.69075,-165.96263 7.42109,-2.36126 11.13164,-9.78235 11.13164,-22.26329 0,-10.7943 -3.37323,-18.72139 -10.11968,-23.78122 -6.74645,-5.39716 -13.4929,-8.09574 -20.23935,-8.09574 z"
     id="path1"
     sodipodi:nodetypes="ccccccccccsssssscscsssssscscscccscsccsccscs" />
  <circle
     style="fill:#1a5fb4;fill-rule:evenodd;stroke-width:60;stroke-linejoin:round;stroke-miterlimit:2.3"
     id="path4"
     cx="107.66983"
     cy="141.97276"
     r="15.938484" />
  <path
     id="path1-2"
     style="fill:#000000;stroke:none;stroke-width:1"
     d="M 194.50102,2.9706868e-7 C 164.1814,2.9706868e-7 140.67147,34.055418 123.97372,102.16468 l 32.29815,8.56703 C 160.2266,93.59453 170.11331,75.359976 185.93224,56.025741 202.1906,36.691515 210.10145,22.409514 209.65983,13.181813 209.22038,4.3937326 204.16817,2.9706868e-7 194.50102,2.9706868e-7 Z M 10.606022,12.522804 c -9.66714914,0 -15.3796886,3.295571 -17.1375722,9.886792 -1.7576767,6.591219 0.2201617,14.282077 5.93277764,23.070352 C 26.644917,66.132419 44.87948,88.323081 54.107197,112.05147 h 3.296768 l 33.614389,-8.56878 C 67.72939,42.843454 40.925633,12.522804 10.606022,12.522804 Z" />
</svg>
