<?xml version="1.0" encoding="UTF-8" standalone="no"?>
<svg
   width="2207.675"
   height="1000"
   id="svg2441"
   sodipodi:version="0.32"
   inkscape:version="1.4.3 (0d15f75, 2025-12-25)"
   sodipodi:docname="13DB4.svg"
   inkscape:output_extension="org.inkscape.output.svg.inkscape"
   version="1.1"
   xmlns:inkscape="http://www.inkscape.org/namespaces/inkscape"
   xmlns:sodipodi="http://sodipodi.sourceforge.net/DTD/sodipodi-0.dtd"
   xmlns="http://www.w3.org/2000/svg"
   xmlns:svg="http://www.w3.org/2000/svg"
   xmlns:rdf="http://www.w3.org/1999/02/22-rdf-syntax-ns#"
   xmlns:cc="http://creativecommons.org/ns#"
   xmlns:dc="http://purl.org/dc/elements/1.1/">
  <metadata
     id="metadata2448">
    <rdf:RDF>
      <cc:Work
         rdf:about="">
        <dc:format>image/svg+xml</dc:format>
        <dc:type
           rdf:resource="http://purl.org/dc/dcmitype/StillImage" />
      </cc:Work>
    </rdf:RDF>
  </metadata>
  <defs
     id="defs2446">
    <inkscape:perspective
       sodipodi:type="inkscape:persp3d"
       inkscape:vp_x="0 : 995.8 : 1"
       inkscape:vp_y="0 : 1000 : 0"
       inkscape:vp_z="18.54447 : 995.8 : 1"
       inkscape:persp3d-origin="9.2722349 : 994.4 : 1"
       id="perspective2450" />
  </defs>
  <sodipodi:namedview
     inkscape:window-height="998"
     inkscape:window-width="1680"
     inkscape:pageshadow="2"
     inkscape:pageopacity="0.0"
     guidetolerance="10.0"
     gridtolerance="10.0"
     objecttolerance="10.0"
     borderopacity="1.0"
     bordercolor="#666666"
     pagecolor="#ffffff"
     id="base"
     showgrid="false"
     inkscape:zoom="0.29691326"
     inkscape:cx="449.62627"
     inkscape:cy="1436.4465"
     inkscape:window-x="-8"
     inkscape:window-y="-8"
     inkscape:current-layer="svg2441"
     inkscape:showpageshadow="2"
     inkscape:pagecheckerboard="0"
     inkscape:deskcolor="#d1d1d1"
     inkscape:window-maximized="1"
     showguides="true">
    <sodipodi:guide
       position="336.54297,2.48438"
       orientation="0,-1"
       id="guide11"
       inkscape:locked="false" />
  </sodipodi:namedview>
  <path
     style="fill:#000000;stroke:none;stroke-width:1"
     d="m 121.92188,781.24219 c 0.43238,0.47106 0.93226,0.8862 1.46679,1.23047 0.0265,0.017 0.045,0.0257 0.0566,0.0273 8.8e-4,4e-5 0.005,6e-5 0.006,0 h 0.002 v -0.002 h 0.002 0.002 v -0.002 h 0.002 v -0.002 c 1.7e-4,-7e-4 0.002,-0.005 0.002,-0.006 v -0.002 c -0.008,-0.0988 -0.4467,-0.64604 -0.58594,-0.88086 -0.24284,-0.0997 -0.57748,-0.2259 -0.95312,-0.36328 z"
     id="path3" />
  <path
     style="fill:#000000;stroke:none;stroke-width:1"
     d="M 1069.6641,0.06445312 C 873.06734,2.9332128 761.01778,193.87265 813.90234,426.57617 878.95705,712.83099 823.68613,853.08789 638.63867,853.08789 519.787,857.60125 433.28129,842.55743 379.12109,807.95508 c -24.9804,-12.73043 -38.5743,-22.70112 -59.94145,-34.3018 l -74.05269,94.74125 c 80.70137,26.85938 171.96967,39.83819 262.59766,36.59766 62.28989,-2.22727 63.57668,40.34415 0,40.61914 l -284.48117,1.23047 c -39.3878,18.28288 -47.34205,33.80994 -43.92117,50.67382 l 459.3164,0 c 230.2552,1.50442 388.23823,-180.21617 336.2461,-433.28124 -60.07055,-292.38538 -33.0981,-435.53907 108.32033,-435.53907 141.4184,0 176.5642,144.25082 112.834,434.41016 -60.4583,275.26301 40.2369,428.77816 215.5117,436.66601 166.8375,7.50812 271.1267,-171.23313 226.7969,-432.15234 -49.4941,-291.31604 -27.0814,-453.45312 94.7793,-453.45312 129.3828,0 159.4723,163.84631 90.2675,453.45312 -69.2047,289.6068 -23.32,432.90536 137.6563,429.89648 h 245.9785 c -7.5223,-58.67363 -37.6119,-94.02884 -90.2676,-106.06445 -52.6559,-12.03561 -104.5596,-20.30894 -155.7109,-24.82226 -57.1691,0 -52.6549,-144.42864 13.541,-433.28321 C 2040.7875,144.49114 1940.2177,0.06445312 1733.127,0.06445312 c -192.3266,0 -293.648,172.36289688 -243.7208,431.02538688 55.4717,287.38751 32.3456,431.02539 -69.957,431.02539 -102.3027,0 -119.6354,-100.74391 -63.1875,-431.02539 C 1400.358,173.07909 1340.9598,-3.8943224 1069.6641,0.06445312 Z"
     id="path2443"
     sodipodi:nodetypes="ssccccsscccsssssssccscssssss" />
  <path
     style="fill:#000000;stroke:none;stroke-width:1"
     d="m 203.07227,795.5918 c -15.45829,0 -27.99024,12.52998 -27.99024,27.98828 0,15.45829 12.53195,27.99023 27.99024,27.99023 15.4583,0 27.99023,-12.53194 27.99023,-27.99023 0,-15.4583 -12.53193,-27.98828 -27.99023,-27.98828 z"
     id="path10"
     sodipodi:nodetypes="sssss" />
  <path
     style="fill:#000000;stroke:none;stroke-width:1"
     d="M 190.49805,747.66992 C 142.76078,749.53507 97.284422,763.60383 63.117188,788.5918 19.413576,820.55414 -1.7534816,852.99589 0.11328125,886.59766 1.6651135,899.01228 18.321313,984.63555 179.32227,997.51562 l 44.07574,-49.96896 C 188.51667,946.25465 60.027674,951.5173 47.714844,883.79688 94.538038,866.23819 137.12376,863.89466 161.12305,868.39453 c -7.88436,-13.22538 -17.59038,-25.79384 -16.80274,-42 0,-49.59166 42.49083,-63.00391 60.20313,-63.00391 17.71243,0 60.20312,13.41233 60.20312,63.00391 -0.35411,16.57267 -7.9984,30.3697 -19.59961,42 53.03958,6.13962 161.00977,-22.40039 161.00977,-22.40039 -50.23369,-70.64113 -136.07657,-101.4328 -215.63867,-98.32422 z"
     id="path1"
     sodipodi:nodetypes="ssccccccscccs" />
  <path
     style="fill:#f8e45c;stroke:none;stroke-width:1px;stroke-linecap:butt;stroke-linejoin:miter;stroke-opacity:1"
     d="m 175.42682,751.10743 30.73514,5.20239 80.32744,-8.82719 19.99742,-34.10087 -181.4503,0.842 z"
     id="path11"
     sodipodi:nodetypes="cccccc" />
  <path
     style="fill:#000000;stroke:none;stroke-width:1"
     d="m 211.73688,15.415407 c -7.12263,0.211563 -14.34941,2.011462 -21.68361,5.396484 C 165.98207,294.62196 153.19447,538.34205 151.68999,751.974 l 55.32053,6.85747 53.06563,-5.21145 c 25.57561,-49.64682 50.33312,-113.35201 69.89105,-187.82237 19.55785,-74.47028 33.0969,-136.52887 40.61914,-186.17578 7.52225,-49.64682 12.78799,-118.85067 15.79688,-207.61328 -76.72701,-16.54897 -125.62134,-32.34614 -146.6836,-47.39063 l 6.76967,-97.036538 C 235.18594,19.118868 223.60791,15.0628 211.73688,15.415407 Z m 25.70508,194.957033 c 15.04449,10.5312 42.87786,20.30922 83.49804,29.33594 -15.04449,182.03851 -53.40732,352.79385 -115.08984,512.26562 6.01785,-150.44504 16.5473,-330.9784 31.5918,-541.60156 z"
     id="path2"
     sodipodi:nodetypes="sccccsscccscccc" />
</svg>
