<?xml version="1.0" encoding="UTF-8" standalone="no"?>
<svg
   width="825.85547"
   height="1000"
   version="1.1"
   id="svg1"
   sodipodi:docname="13E09.svg"
   inkscape:version="1.4.2 (f4327f4, 2025-05-13)"
   xmlns:inkscape="http://www.inkscape.org/namespaces/inkscape"
   xmlns:sodipodi="http://sodipodi.sourceforge.net/DTD/sodipodi-0.dtd"
   xmlns:xlink="http://www.w3.org/1999/xlink"
   xmlns="http://www.w3.org/2000/svg"
   xmlns:svg="http://www.w3.org/2000/svg">
  <defs
     id="defs1" />
  <sodipodi:namedview
     id="namedview1"
     pagecolor="#ffffff"
     bordercolor="#666666"
     borderopacity="1.0"
     inkscape:showpageshadow="2"
     inkscape:pageopacity="0.0"
     inkscape:pagecheckerboard="0"
     inkscape:deskcolor="#d1d1d1"
     showguides="true"
     inkscape:zoom="0.755"
     inkscape:cx="84.10596"
     inkscape:cy="1126.4901"
     inkscape:window-width="1680"
     inkscape:window-height="998"
     inkscape:window-x="-8"
     inkscape:window-y="-8"
     inkscape:window-maximized="1"
     inkscape:current-layer="svg1">
    <sodipodi:guide
       position="413.30836,576.10125"
       orientation="1,0"
       id="guide2"
       inkscape:locked="false" />
  </sodipodi:namedview>
  <path
     style="fill:#000000;stroke:none;stroke-width:1"
     d="m 423.43018,346.29799 v 16.86978 q 0.84352,-74.22684 40.48734,-154.35806 39.64393,-80.13121 107.54452,-127.366455 67.90064,-47.235241 67.90064,-56.513596 0,-8.434832 -21.08711,-6.326138 -21.08716,2.108694 -80.97468,61.574506 -59.88757,59.465813 -86.87911,127.366453 -26.9916,67.90065 -26.9916,138.75351 z m 23.61767,32.89598 h 0.84347 q 103.74878,-124.83601 176.28863,-154.358 72.53985,-29.52206 121.46208,-30.36552 48.92223,-0.84353 48.92223,-18.55671 0.84347,-12.65228 -62.83973,-12.23057 -63.68332,0.42176 -153.09283,71.27462 -89.40957,70.85286 -131.58385,144.23618 z m 55.67008,98.68792 q -37.11342,60.73104 -37.11342,102.06185 0,41.33086 38.80041,41.33086 38.80035,0 38.80035,-41.75262 0,-41.75257 -40.48734,-101.64009 z m 91.09656,-96.15747 q -30.36552,53.98314 -30.36552,94.47048 1.68693,52.29621 37.95688,53.13968 32.89592,0 37.95683,-47.23525 0,-52.2962 -45.54819,-100.37491 z m -361.01226,0 q -45.54826,48.07871 -45.54826,100.37491 4.21745,47.23525 37.95689,47.23525 36.26995,-0.84347 37.11342,-53.13968 0,-40.48734 -29.52205,-94.47048 z m 91.09656,96.15747 q -40.48735,59.88752 -40.90911,101.64009 -0.42159,41.75262 38.37865,41.75262 38.80035,0 38.80035,-41.33086 0,-41.33081 -36.26989,-102.06185 z m 89.40957,-53.98314 -22.77416,11.80881 q 9.27836,78.44423 9.27836,155.20152 0,320.52481 -26.14808,392.22119 h 79.28775 q -26.14807,-71.69638 -26.14807,-392.22119 0,-76.75729 8.43483,-155.20152 z m -46.39172,576.10124 q -16.86978,-5.90437 -12.65233,-27.835 26.99159,-59.88763 26.99159,-381.25591 0,-74.22684 -10.12187,-149.29709 -15.18274,-2.53045 -30.36552,23.61757 35.42643,64.10502 35.42643,118.93157 0,54.82666 -54.82661,54.82666 -53.98314,0 -53.98314,-50.60916 0,-50.60922 23.19586,-90.2531 23.19591,-39.64382 76.33559,-84.3486 l -23.61768,-19.40018 q -40.48734,-28.67853 -93.62701,-25.30461 31.20904,68.32241 31.20904,104.59231 -5.90443,74.22678 -55.67013,74.22678 -55.67007,-11.80875 -55.67007,-69.16587 0,-28.67853 18.55671,-68.32241 18.55671,-39.64382 36.26989,-50.18746 17.71325,-10.54352 50.60917,-10.96528 32.89597,-0.42171 85.19212,30.78728 Q 204.96722,228.20989 102.48361,220.61852 0,213.02716 0,176.7572 q 0,-30.36546 88.566104,-30.36546 87.722586,0 181.771306,78.02246 94.04872,78.02253 115.9794,132.84913 0,-16.86972 -24.03938,-104.17059 Q 338.23805,165.79192 252.62422,107.59133 167.01033,49.390802 166.58857,19.868749 166.16681,-9.653249 216.77603,4.6860165 267.38519,19.025282 330.64669,98.312976 393.90818,177.60073 411.62137,278.81911 h 1.68699 1.68699 Q 431.86507,177.60073 495.54827,98.312976 559.23152,19.025282 609.84069,4.6860165 660.4499,-9.653249 660.02814,19.868749 q -0.42176,29.522053 -86.03565,87.722581 -85.61383,58.20059 -109.65321,145.50141 -24.03933,87.30087 -24.03933,104.17059 21.08711,-54.8266 115.5576,-132.84913 94.47053,-78.02246 182.19311,-78.02246 87.72259,0 87.72259,30.36546 0,36.26996 -102.48367,43.86132 -102.48355,7.59137 -256.84161,159.41897 52.29616,-31.20899 84.77043,-30.78728 32.47421,0.42159 50.18745,10.96528 17.71319,10.54364 36.2699,50.18746 18.55671,39.64388 18.55671,68.32241 0,57.35712 -54.82661,69.16587 -49.76575,0 -56.51359,-74.22678 0,-36.2699 31.20898,-104.59231 -53.13967,-3.37392 -92.78349,25.30461 l -23.61762,19.40018 q 53.13962,44.70478 76.33553,84.3486 23.19586,39.64388 23.19586,90.2531 0,50.60916 -54.8266,50.60916 -53.98314,0 -53.98314,-54.82666 0,-54.82655 35.42643,-118.93157 -15.18279,-26.14802 -31.20899,-23.61757 -9.27835,75.07025 -9.27835,149.29709 0,321.36828 26.99148,381.25591 4.2175,21.93063 -13.49574,27.835 z M 379.56886,379.19397 Q 336.55106,305.81065 247.56325,234.95779 158.57544,164.10493 94.892243,163.68317 q -63.683257,-0.42171 -62.839734,12.23057 0,17.71318 48.500468,18.55671 48.500473,0.84346 121.040263,30.36552 72.53985,29.52199 176.28869,154.358 z m 23.61768,-32.89598 q 0,-70.85286 -26.9916,-138.75351 Q 349.2034,139.64384 289.31582,80.178027 229.4283,20.712215 208.34114,18.603521 q -21.08717,-2.108694 -21.08717,6.326138 0,9.278355 67.9007,56.513596 67.90065,47.235245 107.12276,127.366455 39.22212,80.13122 40.90911,154.35806 z"
     id="path1" />
  <g
     id="g3"
     inkscape:transform-center-x="177.71672"
     inkscape:transform-center-y="-3.9735107"
     style="stroke-width:30;stroke-dasharray:none">
    <path
       style="fill:none;stroke:#613583;stroke-width:30;stroke-linecap:round;stroke-linejoin:miter;stroke-dasharray:none;stroke-opacity:1"
       d="M 384.76821,872.84768 C 295.65805,824.80283 180.32002,822.52798 84.6791,869.55592"
       id="path4" />
    <path
       style="fill:none;stroke:#613583;stroke-width:30;stroke-linecap:round;stroke-linejoin:miter;stroke-dasharray:none;stroke-opacity:1"
       d="M 386.50417,834.62695 C 349.44852,790.93338 293.19159,773.27698 239.80403,773.49614"
       id="path2" />
    <path
       style="fill:none;stroke:#613583;stroke-width:30;stroke-linecap:round;stroke-linejoin:miter;stroke-dasharray:none;stroke-opacity:1"
       d="m 379.86612,913.67455 c -50.66343,-25.81067 -120.43754,-19.723 -158.83672,31.7881"
       id="path3"
       sodipodi:nodetypes="cc" />
  </g>
  <use
     x="0"
     y="0"
     xlink:href="#g3"
     inkscape:transform-center-x="-177.71672"
     inkscape:transform-center-y="-3.9735107"
     id="use3"
     transform="matrix(-1,0,0,1,826.61671,0)" />
</svg>
