<?xml version="1.0" encoding="UTF-8" standalone="no"?>
<svg
   width="1000"
   height="1000"
   version="1.1"
   id="svg1"
   sodipodi:docname="13E4C.svg"
   inkscape:version="1.4.2 (f4327f4, 2025-05-13)"
   xmlns:inkscape="http://www.inkscape.org/namespaces/inkscape"
   xmlns:sodipodi="http://sodipodi.sourceforge.net/DTD/sodipodi-0.dtd"
   xmlns:xlink="http://www.w3.org/1999/xlink"
   xmlns="http://www.w3.org/2000/svg"
   xmlns:svg="http://www.w3.org/2000/svg">
  <defs
     id="defs1">
    <inkscape:path-effect
       effect="mirror_symmetry"
       start_point="500,20.529807"
       end_point="500,442.38411"
       center_point="500,231.45696"
       id="path-effect3"
       is_visible="true"
       lpeversion="1.2"
       lpesatellites=""
       mode="free"
       discard_orig_path="false"
       fuse_paths="true"
       oposite_fuse="false"
       split_items="false"
       split_open="false"
       link_styles="false" />
  </defs>
  <sodipodi:namedview
     id="namedview1"
     pagecolor="#ffffff"
     bordercolor="#666666"
     borderopacity="1.0"
     inkscape:showpageshadow="2"
     inkscape:pageopacity="0.0"
     inkscape:pagecheckerboard="0"
     inkscape:deskcolor="#d1d1d1"
     showguides="true"
     inkscape:zoom="0.53386562"
     inkscape:cx="338.10006"
     inkscape:cy="21.541001"
     inkscape:window-width="1680"
     inkscape:window-height="998"
     inkscape:window-x="-8"
     inkscape:window-y="-8"
     inkscape:window-maximized="1"
     inkscape:current-layer="svg1">
    <sodipodi:guide
       position="500,500"
       orientation="1,0"
       id="guide1"
       inkscape:locked="false" />
    <sodipodi:guide
       position="500,500"
       orientation="0,-1"
       id="guide2"
       inkscape:locked="false" />
    <sodipodi:guide
       position="846.35762,1000"
       orientation="-0.70710678,-0.70710678"
       id="guide6"
       inkscape:locked="false" />
    <sodipodi:guide
       position="878.88018,1000"
       orientation="0,-1"
       id="guide7"
       inkscape:locked="false" />
    <sodipodi:guide
       position="846.35762,1000"
       orientation="1,0"
       id="guide8"
       inkscape:locked="false" />
    <sodipodi:guide
       position="500,500"
       orientation="0.70710678,-0.70710678"
       id="guide9"
       inkscape:locked="false" />
    <sodipodi:guide
       position="846.35762,846.35762"
       orientation="0,-1"
       id="guide12"
       inkscape:locked="false" />
  </sodipodi:namedview>
  <path
     style="fill:#ffa348;stroke:none;stroke-width:1"
     d="m 427.87876,466.66668 q 8.48485,-19.39399 31.5152,-32.72731 -38.78786,-141.81818 -43.6364,-209.69693 0,-162.424286 78.7879,-224.24244 78.7879,61.818154 78.7879,224.24244 6.06054,67.87875 -41.21211,212.12117 18.18176,12.12126 30.30302,30.30307 146.66666,-44.84846 213.33329,-46.06058 162.42423,1.21212 224.24244,79.99996 -61.81821,78.78784 -224.24244,78.78784 -66.66663,0 -206.06057,-44.84841 -13.33338,25.45454 -35.1515,38.78787 44.84841,134.54539 39.99993,202.4242 0,162.42423 -78.78784,224.24244 -80.00002,-61.81821 -80.00002,-224.24244 4.84854,-67.87881 43.6364,-204.8485 Q 436.36361,556.36361 419.39397,538.1818 292.12119,579.3939 225.45456,579.3939 63.030275,579.3939 0,500.60606 63.030275,421.81822 225.45456,420.6061 q 66.66663,1.21212 202.4242,46.06058 z m 143.0303,46.06059 q 112.72733,33.93937 219.39395,33.93937 107.87885,0 161.21211,-46.06058 -53.33326,-46.06059 -161.21211,-46.06059 -106.66662,0 -219.39395,37.57574 2.42413,8.48485 0,20.60606 z m -82.42426,60.60609 q -33.93933,111.5151 -38.78781,218.18177 0,106.66673 46.06059,161.21211 44.84846,-54.54538 44.84846,-161.21211 4.84848,-106.66667 -30.30302,-218.18177 -9.69696,1.21206 -21.81822,0 z m -69.09083,-81.21215 q -103.03031,-37.57574 -209.69698,-37.57574 -107.8788,0 -161.212163,46.06059 53.333363,46.06058 161.212163,46.06058 106.66667,0 209.69698,-33.93937 -2.42429,-12.12121 0,-20.60606 z M 505.45454,430.303 q 39.99998,-115.15151 33.93944,-221.81813 0,-106.66668 -44.84852,-161.212164 -46.06059,54.545484 -46.06059,161.212164 6.0606,106.66662 35.1515,221.81813 12.12121,-2.42424 21.81817,0 z m 37.57574,70.30306 q -2.42424,-42.42428 -47.2727,-44.84852 -42.42428,1.21218 -47.27271,44.84852 1.21212,41.21216 43.63634,46.06058 48.48483,0 50.90907,-46.06058 z m 366.06067,0 q 0,86.06057 -32.12123,161.81819 -32.12122,75.75757 -87.87883,132.12121 -55.75761,56.36364 -131.51512,88.48481 -75.75763,32.12117 -159.39395,32.12117 -86.06063,0 -160.60607,-32.12117 Q 263.0303,850.9091 206.66666,794.54546 150.30302,738.18182 118.78788,663.03034 86.060623,589.09087 86.060623,501.81818 q 0,-87.27274 32.121227,-163.03031 32.12117,-75.75757 88.48481,-132.72724 56.36364,-56.96973 130.90909,-89.09096 74.54544,-32.121167 160.60607,-32.121167 56.96973,0 109.69695,14.545448 52.72733,14.545449 98.18183,41.818189 45.45455,27.27269 83.63638,65.45452 38.18183,38.18183 64.84843,84.24241 26.66671,46.06064 41.21215,99.39395 13.33339,49.69701 13.33339,110.30304 z m -790.30307,0 q 0,78.78784 30.30302,148.48487 30.30307,69.69696 82.42426,121.81815 52.12119,52.12124 120.60603,81.21209 68.48491,29.09095 146.06063,29.09095 77.57578,0 147.27274,-29.09095 69.69697,-29.09085 120.60604,-81.21209 50.90907,-52.12119 80.60605,-121.81815 29.69698,-69.69703 29.69698,-148.48487 0,-53.33337 -13.93941,-101.81819 -13.93936,-48.48483 -38.78786,-90.90911 -24.8485,-42.42422 -59.39397,-76.96969 -34.54541,-34.54547 -76.3636,-59.39391 -41.81819,-24.8485 -89.69699,-38.78786 -47.87879,-13.93942 -99.99998,-13.93942 -77.57572,0 -146.06063,29.69699 -68.48484,29.69692 -120.60603,81.81817 -52.12119,52.12119 -82.42426,121.21212 -30.30302,69.09094 -30.30302,149.0909 z M 961.21219,109.09092 q -3.63647,59.39391 -61.81821,61.81815 -60.60609,-2.42424 -63.03038,-61.81815 2.42413,-58.181852 63.03038,-61.818214 58.18174,3.636362 61.81821,61.818214 z m -99.394,0 q 1.21212,35.1515 37.57579,37.57574 35.1515,-2.42424 38.78781,-37.57574 -3.63631,-35.151503 -38.78781,-37.575745 -36.36367,2.424242 -37.57579,37.575745 z m -695.7576,-1.21212 q -2.42424,58.18179 -61.81816,61.81815 -59.393965,-3.63636 -61.818207,-61.81815 2.424242,-58.181853 61.818207,-61.818215 59.39392,3.636362 61.81816,61.818215 z m -98.181777,0 q 1.212121,35.15149 36.363617,37.57574 36.36362,-2.42425 38.78786,-37.57574 Q 140.60605,71.515175 104.24243,69.090934 69.090934,71.515175 67.878813,107.8788 Z M 961.21219,900.60605 q -2.42413,58.18185 -61.81821,61.81815 -59.39397,-3.63619 -63.03038,-61.81815 3.63619,-58.18179 63.03038,-61.81816 59.39392,3.6362 61.81821,61.81816 z m -99.394,0 q 2.42413,35.1515 37.57579,37.57574 35.1515,-2.42413 38.78781,-37.57574 -3.6362,-35.1515 -38.78781,-38.78786 -35.15155,3.63619 -37.57579,38.78786 z m -694.54548,-1.21207 q -3.63636,58.18174 -61.81816,60.60604 -60.606085,-2.42413 -63.030327,-60.60604 2.424242,-59.39397 63.030327,-63.03038 58.1818,3.63619 61.81816,63.03038 z m -99.393897,0 q 1.212121,35.1515 37.575737,37.57569 35.1515,-2.42413 38.78787,-37.57569 -3.63637,-36.36367 -38.78787,-38.78791 -36.363616,2.42413 -37.575737,38.78791 z"
     id="path1" />
  <circle
     style="fill:none;fill-rule:evenodd;stroke:#613583;stroke-width:25;stroke-linecap:round;stroke-miterlimit:5;stroke-dasharray:none"
     id="path2"
     cx="500.00006"
     cy="500.00006"
     r="66.783447" />
  <path
     style="fill:none;stroke:#613583;stroke-width:35.2742;stroke-linecap:butt;stroke-linejoin:miter;stroke-dasharray:none;stroke-opacity:1"
     d="M 493.37749,429.80133 C 439.07285,334.43709 387.41722,121.19205 500,20.529801 612.58278,121.19205 560.92715,334.43709 506.62251,429.80133"
     id="path3"
     inkscape:path-effect="#path-effect3"
     inkscape:original-d="M 493.37749,429.80133 C 439.07285,334.43709 387.41722,121.19205 500,20.529801"
     inkscape:transform-center-y="-266.60385"
     sodipodi:nodetypes="cc"
     transform="matrix(0.99167529,0,0,0.99277884,4.1623567,3.0451154)"
     inkscape:transform-center-x="-1.6999999e-06" />
  <use
     x="0"
     y="0"
     xlink:href="#path3"
     inkscape:transform-center-y="4.5e-06"
     id="use3"
     transform="rotate(-90,500,500)"
     inkscape:transform-center-x="268.54304" />
  <use
     x="0"
     y="0"
     xlink:href="#path3"
     inkscape:transform-center-y="268.54305"
     id="use4"
     transform="rotate(180,500,500)" />
  <use
     x="0"
     y="0"
     xlink:href="#path3"
     inkscape:transform-center-y="4.4999999e-06"
     id="use5"
     transform="rotate(90,500,500)"
     inkscape:transform-center-x="-268.54304" />
  <circle
     style="fill:none;fill-rule:evenodd;stroke:#613583;stroke-width:35;stroke-linecap:round;stroke-miterlimit:5;stroke-dasharray:none"
     id="path5"
     cx="500.00003"
     cy="500.00003"
     r="397.22681" />
  <g
     id="g10"
     inkscape:transform-center-x="-271.97253"
     inkscape:transform-center-y="-271.97253">
    <path
       style="fill:none;stroke:#813d9c;stroke-width:45;stroke-linecap:butt;stroke-linejoin:miter;stroke-dasharray:none;stroke-opacity:1"
       d="M 543.94505,456.05495 953.95685,46.043149"
       id="path6"
       sodipodi:nodetypes="cc" />
    <path
       style="fill:none;stroke:#813d9c;stroke-width:45;stroke-linecap:butt;stroke-linejoin:miter;stroke-dasharray:none;stroke-opacity:1"
       d="m 846.35762,0 v 153.64238 l 153.64238,0"
       id="path9"
       sodipodi:nodetypes="ccc" />
  </g>
  <use
     x="0"
     y="0"
     xlink:href="#g10"
     inkscape:transform-center-x="271.97252"
     inkscape:transform-center-y="-271.97253"
     id="use10"
     transform="rotate(-90,500,500)" />
  <use
     x="0"
     y="0"
     xlink:href="#use10"
     inkscape:transform-center-x="271.97252"
     inkscape:transform-center-y="271.97252"
     id="use11"
     transform="rotate(-90,500,500)" />
  <use
     x="0"
     y="0"
     xlink:href="#use11"
     inkscape:transform-center-x="-271.97251"
     inkscape:transform-center-y="271.97252"
     id="use12"
     transform="rotate(-90,499.99999,500.00001)" />
</svg>
