<?xml version="1.0" encoding="UTF-8" standalone="no"?>
<svg
   width="1799.998"
   height="600.75977"
   version="1.1"
   id="svg1"
   sodipodi:docname="14011.svg"
   inkscape:version="1.4.3 (0d15f75, 2025-12-25)"
   xmlns:inkscape="http://www.inkscape.org/namespaces/inkscape"
   xmlns:sodipodi="http://sodipodi.sourceforge.net/DTD/sodipodi-0.dtd"
   xmlns:xlink="http://www.w3.org/1999/xlink"
   xmlns="http://www.w3.org/2000/svg"
   xmlns:svg="http://www.w3.org/2000/svg">
  <sodipodi:namedview
     id="namedview1"
     pagecolor="#ffffff"
     bordercolor="#666666"
     borderopacity="1.0"
     inkscape:showpageshadow="2"
     inkscape:pageopacity="0.0"
     inkscape:pagecheckerboard="0"
     inkscape:deskcolor="#d1d1d1"
     inkscape:zoom="0.30994881"
     inkscape:cx="988.87297"
     inkscape:cy="495.24307"
     inkscape:window-width="1680"
     inkscape:window-height="998"
     inkscape:window-x="-8"
     inkscape:window-y="-8"
     inkscape:window-maximized="1"
     inkscape:current-layer="svg1"
     showguides="true">
    <sodipodi:guide
       position="942.44513,154.05104"
       orientation="1,0"
       id="guide4"
       inkscape:locked="false" />
  </sodipodi:namedview>
  <defs
     id="defs1" />
  <path
     style="display:inline;fill:#1a5fb4;stroke:none;stroke-width:108.834"
     d="M 548.67357,68.527344 723.27122,532.23242 h 89.13282 L 642.24193,68.527344 Z"
     id="path22"
     sodipodi:nodetypes="ccccc" />
  <use
     x="0"
     y="0"
     xlink:href="#path22"
     id="use23"
     transform="translate(219.17391)" />
  <use
     x="0"
     y="0"
     xlink:href="#path22"
     id="use24"
     transform="translate(438.34783)" />
  <use
     x="0"
     y="0"
     xlink:href="#path22"
     id="use25"
     transform="translate(657.52174)" />
  <path
     style="display:inline;fill:#63452c;stroke:none;stroke-width:108.834"
     d="M 299.23828,0 C 99.746925,0 0,101.2696 0,303.80664 0,501.77513 100.50929,600.75977 301.52344,600.75977 H 1500.7598 C 1700.2511,599.23697 1799.998,497.20501 1799.998,294.66797 1799.998,98.222262 1699.4907,0 1498.4766,0 Z m 0,68.527344 H 1500.7598 c 147.7149,0 221.5742,76.142356 221.5742,228.425776 0,153.80634 -73.8593,232.23365 -221.5742,235.2793 H 299.23828 c -147.715,0 -221.574216,-76.14234 -221.574218,-228.42578 0,-132.70531 56.036718,-231.866173 221.574218,-235.279296 z"
     id="path26"
     sodipodi:nodetypes="ssscsssccsccsc" />
  <use
     x="0"
     y="0"
     xlink:href="#path22"
     id="use1"
     transform="translate(-219.17394)" />
  <rect
     style="fill:#e01b24;fill-rule:evenodd;stroke-width:35;stroke-linecap:round;stroke-miterlimit:5"
     id="rect1"
     width="219.17393"
     height="171.04739"
     x="832.85815"
     y="361.18503" />
  <use
     x="0"
     y="0"
     xlink:href="#path22"
     id="use2"
     transform="translate(-438.34786)"
     style="fill:#f9f06b" />
  <use
     x="0"
     y="0"
     xlink:href="#path22"
     id="use3"
     transform="translate(876.69571)" />
</svg>
