<?xml version="1.0" encoding="UTF-8" standalone="no"?>
<svg
   width="1250"
   height="800"
   id="svg2445"
   sodipodi:version="0.32"
   inkscape:version="1.4.2 (f4327f4, 2025-05-13)"
   sodipodi:docname="14021.svg"
   inkscape:output_extension="org.inkscape.output.svg.inkscape"
   version="1.1"
   xml:space="preserve"
   xmlns:inkscape="http://www.inkscape.org/namespaces/inkscape"
   xmlns:sodipodi="http://sodipodi.sourceforge.net/DTD/sodipodi-0.dtd"
   xmlns:xlink="http://www.w3.org/1999/xlink"
   xmlns="http://www.w3.org/2000/svg"
   xmlns:svg="http://www.w3.org/2000/svg"
   xmlns:rdf="http://www.w3.org/1999/02/22-rdf-syntax-ns#"
   xmlns:cc="http://creativecommons.org/ns#"
   xmlns:dc="http://purl.org/dc/elements/1.1/"><metadata
     id="metadata2452"><rdf:RDF><cc:Work
         rdf:about=""><dc:format>image/svg+xml</dc:format><dc:type
           rdf:resource="http://purl.org/dc/dcmitype/StillImage" /></cc:Work></rdf:RDF></metadata><defs
     id="defs2450"><inkscape:perspective
       sodipodi:type="inkscape:persp3d"
       inkscape:vp_x="0 : 795.08 : 1"
       inkscape:vp_y="0 : 1000 : 0"
       inkscape:vp_z="24.098856 : 795.08 : 1"
       inkscape:persp3d-origin="12.049428 : 793.44 : 1"
       id="perspective2454" /></defs><sodipodi:namedview
     inkscape:window-height="998"
     inkscape:window-width="1680"
     inkscape:pageshadow="2"
     inkscape:pageopacity="0.0"
     guidetolerance="10.0"
     gridtolerance="10.0"
     objecttolerance="10.0"
     borderopacity="1.0"
     bordercolor="#666666"
     pagecolor="#ffffff"
     id="base"
     showgrid="false"
     inkscape:showpageshadow="2"
     inkscape:pagecheckerboard="0"
     inkscape:deskcolor="#d1d1d1"
     showguides="true"
     inkscape:zoom="0.59453538"
     inkscape:cx="555.89627"
     inkscape:cy="379.28777"
     inkscape:window-x="-8"
     inkscape:window-y="-8"
     inkscape:window-maximized="1"
     inkscape:current-layer="svg2445"><sodipodi:guide
       position="972.18773,571.22258"
       orientation="0,-1"
       id="guide1"
       inkscape:locked="false" /><sodipodi:guide
       position="44.737314,571.22258"
       orientation="1,0"
       id="guide2"
       inkscape:locked="false" /><sodipodi:guide
       position="625,800"
       orientation="-1,0"
       id="guide4"
       inkscape:locked="false"
       inkscape:label=""
       inkscape:color="rgb(0,134,229)" /><sodipodi:guide
       position="692.93184,773.63824"
       orientation="1,0"
       id="guide5"
       inkscape:locked="false" /><sodipodi:guide
       position="706.47003,845.19505"
       orientation="0,-1"
       id="guide6"
       inkscape:locked="false" /><sodipodi:guide
       position="0,800"
       orientation="1,0"
       id="guide7"
       inkscape:locked="false" /><sodipodi:guide
       position="1250,800"
       orientation="1,0"
       id="guide8"
       inkscape:locked="false" /><sodipodi:guide
       position="773.71341,-959.35703"
       orientation="1,0"
       id="guide16"
       inkscape:locked="false" /><sodipodi:guide
       position="983.65454,463.38758"
       orientation="0,-1"
       id="guide17"
       inkscape:locked="false" /><sodipodi:guide
       position="785.93945,97.4668"
       orientation="0.91742503,0.39790868"
       id="guide9"
       inkscape:locked="false" /><sodipodi:guide
       position="966.15454,480.88757"
       orientation="0,-1"
       id="guide3"
       inkscape:locked="false" /></sodipodi:namedview><path
     style="fill:#000000;stroke:none;stroke-width:51.8696"
     d="M 24.845703,0.01953125 C 16.947175,-0.31897729 10.291136,3.5750148 4.875,11.699219 -3.7908524,24.697946 -0.90203722,35.52946 13.541016,44.195312 148.7279,123.92088 263.98258,174.47196 359.30664,195.84766 454.6307,217.22339 542.96352,227.91016 625,227.91016 v -71.0586 C 405.58053,156.85156 182.51142,72.142249 40.404297,5.1992188 34.771519,1.9495372 29.58482,0.22263637 24.845703,0.01953125 Z"
     id="path3"
     sodipodi:nodetypes="sccscccs" /><use
     x="0"
     y="0"
     xlink:href="#path3"
     id="use4"
     transform="matrix(-1,0,0,1,1250,0)" /><path
     style="fill:none;stroke:#813d9c;stroke-width:30;stroke-linecap:butt;stroke-linejoin:miter;stroke-dasharray:none;stroke-opacity:1"
     d="m 444.97598,171.04082 c 0,-106.10063 21.53521,-121.89906 132.6857,-121.89906 111.15049,0 135.09999,-16.661692 135.09999,-77.861279 0,-62.265515 92.26228,-67.182515 92.26228,5.835825 V 170.50678"
     id="path4"
     sodipodi:nodetypes="czssc" /><path
     id="path14"
     style="fill:#000000;stroke:none;stroke-width:0.999999"
     inkscape:transform-center-x="47.36739"
     inkscape:transform-center-y="-22.935976"
     d="m 872.28781,-69.512794 c -6.15154,6.251531 -7.70049,10.806119 -7.06709,17.205781 L 1080.4874,163.08476 c 16.6756,45.922 30.8877,82.67935 64.2925,115.78015 20.3634,20.178 69.5306,42.21316 95.8875,19.99542 0.01,-0.008 0.013,-0.0169 0.019,-0.0247 0.01,-0.007 0.017,-0.0127 0.024,-0.0192 22.2141,-26.36003 0.172,-75.52414 -20.0086,-95.88479 -33.1055,-33.40021 -69.8663,-47.60589 -115.7904,-64.27521 L 889.49233,-76.581961 c -6.39982,-0.632456 -10.95412,0.91705 -17.20487,7.069522 z M 1110.595,168.76166 c 21.2142,4.49727 59.3121,23.05296 85.667,49.3852 15.8026,15.78629 33.6171,47.55661 25.4613,61.6975 -0.01,0.006 -0.013,0.007 -0.02,0.0113 -0.01,0.009 -0.01,0.0127 -0.011,0.0199 -14.1397,8.1577 -45.9111,-9.65402 -61.7009,-25.45303 -26.3362,-26.3509 -44.8969,-64.44657 -49.3971,-85.66007 z" /><rect
     style="fill:none;fill-rule:evenodd;stroke:#613583;stroke-width:35;stroke-linecap:round;stroke-miterlimit:2;stroke-dasharray:none"
     id="rect10"
     width="682.30908"
     height="72.834999"
     x="283.84546"
     y="246.27742" /><path
     style="fill:none;stroke:#9141ac;stroke-width:35;stroke-linecap:butt;stroke-linejoin:miter;stroke-opacity:1;stroke-dasharray:none"
     d="M 0,319.11243 H 1250"
     id="path5" /></svg>
