<?xml version="1.0" encoding="UTF-8" standalone="no"?>
<svg
   width="1250"
   height="1000"
   id="svg2666"
   sodipodi:version="0.32"
   inkscape:version="1.4.3 (0d15f75, 2025-12-25)"
   sodipodi:docname="14058.svg"
   inkscape:output_extension="org.inkscape.output.svg.inkscape"
   version="1.0"
   xmlns:inkscape="http://www.inkscape.org/namespaces/inkscape"
   xmlns:sodipodi="http://sodipodi.sourceforge.net/DTD/sodipodi-0.dtd"
   xmlns="http://www.w3.org/2000/svg"
   xmlns:svg="http://www.w3.org/2000/svg"
   xmlns:rdf="http://www.w3.org/1999/02/22-rdf-syntax-ns#"
   xmlns:cc="http://creativecommons.org/ns#"
   xmlns:dc="http://purl.org/dc/elements/1.1/">
  <metadata
     id="metadata2673">
    <rdf:RDF>
      <cc:Work
         rdf:about="">
        <dc:format>image/svg+xml</dc:format>
        <dc:type
           rdf:resource="http://purl.org/dc/dcmitype/StillImage" />
      </cc:Work>
    </rdf:RDF>
  </metadata>
  <defs
     id="defs2671">
    <inkscape:perspective
       sodipodi:type="inkscape:persp3d"
       inkscape:vp_x="0 : -793.28 : 1"
       inkscape:vp_y="0 : 1000 : 0"
       inkscape:vp_z="25.861565 : -793.28 : 1"
       inkscape:persp3d-origin="12.930782 : -795.52 : 1"
       id="perspective2675" />
  </defs>
  <sodipodi:namedview
     inkscape:window-height="998"
     inkscape:window-width="1680"
     inkscape:pageshadow="2"
     inkscape:pageopacity="0.0"
     guidetolerance="10.0"
     gridtolerance="10.0"
     objecttolerance="10.0"
     borderopacity="1.0"
     bordercolor="#666666"
     pagecolor="#ffffff"
     id="base"
     showgrid="false"
     inkscape:zoom="0.27666667"
     inkscape:cx="-670.48191"
     inkscape:cy="1339.1566"
     inkscape:window-x="-8"
     inkscape:window-y="-8"
     inkscape:current-layer="svg2666"
     inkscape:showpageshadow="2"
     inkscape:pagecheckerboard="0"
     inkscape:deskcolor="#d1d1d1"
     inkscape:window-maximized="1"
     showguides="true" />
  <path
     id="path2668"
     style="fill:#000000;stroke:none;stroke-width:1"
     d="M 113.08254,350.40884 C 75.503395,349.0925 44.314885,371.70336 19.51692,418.24201 -8.8236123,471.42905 -6.3007758,513.93976 27.086716,545.77429 65.132929,511.61037 95.415284,498.41112 117.9324,506.17561 l 81.52755,53.57587 C 200.2364,615.6561 142.39092,671.55968 25.922965,727.4643 159.47287,824.52093 291.4696,888.19072 421.91374,918.47244 H 0.29878251 V 1000 H 1250 v -81.52756 h -4.6577 c -2.3293,-19.41138 -12.4235,-42.89971 -30.2819,-70.46379 -17.8584,-27.56408 -51.2459,-39.01644 -100.1624,-34.35773 l -10.4819,-10.48188 c 34.164,-18.63485 72.5985,-43.87015 115.3034,-75.70474 -116.468,-55.90462 -174.3149,-111.8082 -173.5384,-167.71282 l 81.5276,-53.57587 c 22.5172,-7.76449 52.7995,5.43476 90.8457,39.59868 33.3875,-31.83453 35.9103,-74.34524 7.5698,-127.53228 -28.3406,-53.18703 -65.0268,-75.12081 -110.0612,-65.80337 6.9881,51.2459 1.5525,83.85613 -16.306,97.83225 l -151.40809,72.21078 c 7.7645,97.05663 41.15195,165.38354 100.16239,204.98263 l -10.4818,4.65906 L 927.38377,614.4911 v -59.39868 c 0,-6.21164 -5.43435,-9.31813 -16.3047,-9.31813 -10.87028,0 -16.30608,3.10649 -16.30608,9.31813 v 24.45772 l -24.45767,-26.78658 c -4.65871,-7.7645 -11.2591,-7.7645 -19.80006,0 -8.54096,9.31743 -9.70556,16.69369 -3.49392,22.12887 l 47.75165,51.24565 V 790.3583 C 883.42711,794.30465 738.66158,834.52557 623.40242,835.03071 529.84959,835.44072 359.5983,817.10215 197.12974,727.4643 256.14022,687.86521 289.5277,619.5383 297.29221,522.48167 L 145.88409,450.27089 c -17.85844,-13.97612 -23.2928,-46.58635 -16.30471,-97.83225 -5.62928,-1.16468 -11.12839,-1.84176 -16.49684,-2.0298 z m -12.6213,33.47544 c -7.764542,40.37556 4.65878,69.10463 37.26982,86.18662 l 130.44436,68.71546 c -8.541,97.8331 -53.18721,160.7256 -133.93832,188.67794 156.84351,91.62146 319.89855,137.43228 489.16532,137.43228 168.49028,0 331.15799,-45.81082 488.00158,-137.43228 C 1030.6528,699.51196 986.00667,636.61946 977.46571,538.78636 L 1107.91,470.0709 c 32.6111,-17.08199 45.0344,-45.81106 37.2698,-86.18662 18.635,0 36.6876,16.30579 54.1578,48.9168 17.4703,32.61106 20.769,56.29307 9.8987,71.04568 -29.5053,-27.95235 -60.175,-33.77533 -92.0095,-17.46981 l -107.1504,60.56244 c 5.4352,70.65729 54.7398,130.83193 147.9142,180.52491 C 984.06499,846.26164 805.86891,905.66036 623.40242,905.66036 440.15952,905.66036 261.576,846.26164 87.650509,727.4643 180.82489,677.77132 230.1295,617.59668 235.56467,546.93939 L 128.41428,486.37695 C 96.579716,470.07143 65.910066,475.89441 36.404847,503.84676 25.53451,489.09415 28.834659,465.41214 46.304853,432.80108 63.775046,400.19007 81.82636,383.88428 100.46124,383.88428 Z m 826.92253,277.19341 81.52753,86.18663 c -26.39931,13.19974 -53.57519,24.06979 -81.52753,32.61075 z m 147.91553,158.3974 16.3047,17.4698 c -3.8823,31.83453 1.5534,59.01039 16.306,81.52755 H 826.05752 c 84.63349,-19.41138 167.7142,-52.41015 249.24178,-98.99735 z m 68.6153,23.86908 c 13.9458,-0.11678 26.7913,6.0971 38.5351,18.64168 17.082,18.24665 27.952,37.07521 32.6107,56.48659 h -68.7168 c -24.07,-26.39941 -31.4463,-50.08142 -22.1289,-71.04566 6.794,-2.66908 13.3609,-4.02953 19.6999,-4.08261 z M 24.757861,942.93017 H 1225.5423 v 32.61211 H 24.757861 Z"
     sodipodi:nodetypes="ssccccccccccsccccccsccccccsssccccccsccccsccccsccccsccccsccccsccccccccccsscccsccccc" />
  <path
     id="path1295"
     d="m 334.42953,168.45741 c -8.5479,-0.52517 -17.39442,-0.48053 -26.41908,0.10291 -37.58353,2.43009 -64.88644,18.22334 -74.20697,39.62883 -1.55487,3.54766 -5.82812,12.51397 1.55485,10.58741 25.15361,-3.1509 22.58414,5.11008 26.32197,6.0217 3.11998,9.77738 10.01662,29.33456 10.48993,37.00652 -8.44597,29.82024 -5.31223,61.08889 -2.23444,76.14969 5.18386,25.36331 21.84068,54.87461 43.70817,82.46311 -0.48397,1.8981 -0.64873,3.82776 0,5.73067 10.43191,31.93761 22.5831,75.13815 31.27588,115.58422 8.6924,40.44573 13.60409,78.87942 10.97558,97.80948 -0.7551,5.20175 2.57084,10.10415 7.67303,11.36418 1.5274,0.38097 2.8969,1.07086 4.37108,1.55483 l -28.38965,101.33243 c -22.66983,-11.56796 -51.68098,-11.1757 -66.47293,-19.11902 -10.02127,-5.49597 -54.362,-6.39233 -56.83574,15.84275 12.28036,-5.75189 15.32426,-0.40492 28.20162,2.83054 12.8769,3.23716 41.55133,4.60814 49.93885,13.27454 42.02803,9.48112 61.37493,18.43173 104.80637,30.29658 26.44408,6.83692 73.8814,18.40709 100.24654,24.04666 15.91111,4.3699 23.72699,8.51103 31.70257,10.40642 7.09984,1.68918 15.02987,-0.71054 31.5858,8.96442 -6.62532,-17.12747 -33.00765,-39.63659 -49.09767,-35.17767 -11.73016,-4.45075 -25.55212,-7.6142 -39.65919,-10.73343 l -3.26352,-128.86204 c 16.87066,7.0202 29.67849,17.87119 44.38814,35.35522 3.01704,3.47627 7.99117,4.51353 12.14123,2.52621 4.15005,-1.98733 6.45246,-6.54446 5.63351,-11.07275 -6.66664,-35.97614 -7.39498,-69.91653 -6.99342,-105.96819 18.68948,12.25109 37.11602,24.67755 54.587,37.88041 50.32713,54.7267 100.70915,109.42216 151.03659,164.14884 2.32027,2.53649 5.7365,3.65099 9.13006,3.10971 32.88596,-5.51373 65.79769,-10.90078 98.68369,-16.41485 3.69115,-0.59722 6.7226,-3.17491 7.96478,-6.70201 1.2425,-3.52673 0.45991,-7.51612 -2.03883,-10.29565 -25.70278,-28.76204 -52.2633,-56.49709 -77.99525,-84.69691 48.95415,30.11299 112.38395,68.53673 107.13415,59.44342 -3.26764,-5.65855 -31.18764,-26.185 -61.48326,-47.59359 4.8142,2.01136 9.53881,4.15176 14.37536,6.11918 0.17169,0.10291 0.40158,0.27459 0.58348,0.38785 3.56998,1.19446 5.54461,2.00793 9.32431,2.13836 0.94391,0.0319 1.98733,-0.0688 3.78794,-0.5835 1.80196,-0.52858 4.82758,-2.0388 6.50773,-5.24496 1.67842,-3.2058 1.34891,-6.50019 0.77571,-8.25616 -0.56977,-1.75737 -1.31458,-2.67037 -1.8466,-3.40146 -2.1315,-2.92435 -3.56931,-3.75224 -5.63353,-5.34209 -2.06283,-1.5892 -4.43697,-3.32938 -7.09017,-5.14785 -5.30712,-3.6352 -11.66005,-7.73032 -17.09483,-11.36415 -5.4351,-3.63382 -10.37182,-7.1561 -11.36447,-8.06188 -0.30891,-0.30891 -0.63499,-0.61098 -0.97136,-0.87526 -44.94312,-31.62597 -89.88385,-63.18983 -134.81566,-94.7983 -0.27459,-0.20591 -0.66932,-0.0243 -0.97135,-0.20591 C 622.25712,485.90834 578.80911,418.11508 528.29977,355.70678 502.51323,323.84534 472.91028,268.11506 424.85674,249.544 c -2.31683,-13.71908 -7.5498,-39.04672 -26.12805,-57.11218 -15.80078,-15.36489 -38.65577,-22.41285 -64.29983,-23.99106 z m -22.72829,16.3177 c 27.89983,-1.78822 49.96327,5.60847 64.88266,16.31805 0.20593,1.85692 0.67273,3.71999 0.2746,5.53641 -1.70245,8.59592 -6.74767,16.55522 -13.69543,21.85408 -10.94367,7.16088 -24.15409,9.22579 -36.61763,12.3355 -3.12684,0.30892 -0.66243,1.06746 1.06748,1.3592 8.51906,1.4759 26.85122,3.71928 35.45201,3.39803 9.63013,-1.10177 18.71486,-5.10666 26.51658,-10.78135 2.73901,-2.30309 5.0953,-5.16669 7.09056,-8.15903 5.11211,11.97752 7.87891,24.69745 9.03288,31.76155 0.62813,3.80579 3.31221,6.90727 6.99339,8.06157 39.43766,12.0911 70.60337,66.16532 99.7522,102.18058 59.9116,74.02572 110.83459,156.80704 169.49095,234.17932 -32.45317,-15.78639 -64.79925,-31.73651 -97.32382,-47.59361 -66.55454,-35.00133 -135.85017,-62.91557 -194.16193,-107.03663 -0.1029,-0.0687 -0.20594,-0.20595 -0.27459,-0.27459 -33.59925,-27.97053 -67.98208,-57.50003 -81.00611,-96.74102 -5.14647,-31.88099 60.86303,-89.27942 53.42134,-91.69064 -13.39987,-4.34157 -62.503,36.83522 -72.16744,75.9554 -0.10281,-0.4977 -0.38786,-1.06746 -0.48739,-1.55485 -2.52278,-12.35129 -5.35723,-43.52558 2.33055,-68.5738 0.35696,-1.17045 0.46337,-2.37176 0.38786,-3.59366 -0.54573,-10.08183 -2.07658,-16.06443 -4.27395,-21.95124 -2.1967,-5.88682 -4.82315,-11.92707 -9.03291,-26.51657 -1.06745,-3.73301 -4.9007,-11.35526 -7.18768,-11.94663 6.43977,-4.77235 12.96808,-9.7331 22.33976,-13.01545 -2.73556,2.64288 -4.56502,6.4655 -4.56502,10.87846 0,7.9538 5.66717,14.37501 12.62693,14.37501 6.95976,0 12.62692,-6.42121 12.62692,-14.37501 v -0.1029 c -0.0342,-6.38003 -3.79411,-11.64491 -8.839,-13.50115 1.82944,-0.24023 3.30537,-0.64526 5.3421,-0.77569 z m 31.47014,268.66066 c 2.26191,2.25851 4.68654,4.30006 6.99342,6.50775 7.4166,27.01497 14.28574,56.83415 23.99105,79.84048 16.73681,39.67585 42.11111,74.18636 63.71705,109.27075 -5.28822,2.83856 -9.86458,6.06943 -13.30688,9.32433 -2.82482,2.67038 -4.68172,4.44285 -6.89626,6.70198 -10.71063,-14.09868 -24.46199,-25.03277 -41.08586,-31.08123 1.55484,-25.04583 -3.74642,-59.29377 -11.75269,-96.5471 -6.18647,-28.78605 -13.90513,-57.46157 -21.65983,-84.01696 z m 34.86953,31.46979 c 39.78398,32.75284 84.09182,60.22534 127.33695,87.99953 -0.62468,31.51855 -0.60408,61.60101 2.91406,92.66168 -14.29502,-11.96519 -29.76462,-20.65828 -49.43883,-25.44775 -0.82718,-0.20594 -1.5171,0.38786 -2.33053,0.38786 -22.45992,-36.84558 -47.91043,-71.35128 -63.61991,-108.59085 -5.39394,-12.78688 -10.15426,-29.45056 -14.8607,-47.01079 z m 54.19847,14.86105 c 46.91192,27.27547 96.44307,48.99982 143.2661,73.62416 0.0688,0.0343 0.13722,0.0688 0.20594,0.10291 44.87104,21.87674 89.61236,44.37338 134.91281,65.95116 34.08969,41.19774 71.08664,79.50684 106.64847,118.49795 -24.83405,4.16413 -49.66435,8.36563 -74.49839,12.52979 -49.25622,-53.56207 -98.57489,-106.99304 -147.83146,-160.55514 -0.38787,-0.46337 -0.79974,-0.87525 -1.26311,-1.26312 -51.94236,-39.3814 -109.2179,-72.12906 -161.4304,-108.88124 z m -40.11486,167.16004 c 5.67025,5.29679 10.83216,11.41289 15.24958,18.74609 1.47934,2.42668 4.01173,4.09651 6.79913,4.66216 2.78706,0.56634 5.65479,0.008 7.96442,-1.65095 7.4801,-5.41556 12.04237,-11.21692 16.51198,-15.44351 1.64753,-1.55827 3.36026,-2.80765 5.14816,-4.07968 l 3.9229,118.13549 c -16.16579,-5.47225 -33.4376,-12.66259 -43.73243,-6.79087 -5.58651,-7.54127 -21.07011,-11.86882 -38.90976,-16.1575 z"
     style="display:inline;fill:#000000;fill-opacity:1;fill-rule:nonzero;stroke:none;stroke-width:6;stroke-linecap:round;stroke-linejoin:round;stroke-miterlimit:4;stroke-opacity:1"
     sodipodi:nodetypes="ccccccccccccccccccccccccccsccccccccccccccccccccsccccsccccccccccccccccccccccccccccccssscccccccccccsccccccccccccccccccccccccccccc" />
</svg>
