<?xml version="1.0" encoding="UTF-8" standalone="no"?>
<svg
   width="1250"
   height="700"
   version="1.1"
   id="svg1"
   sodipodi:docname="14079.svg"
   inkscape:version="1.4.2 (f4327f4, 2025-05-13)"
   xmlns:inkscape="http://www.inkscape.org/namespaces/inkscape"
   xmlns:sodipodi="http://sodipodi.sourceforge.net/DTD/sodipodi-0.dtd"
   xmlns:xlink="http://www.w3.org/1999/xlink"
   xmlns="http://www.w3.org/2000/svg"
   xmlns:svg="http://www.w3.org/2000/svg">
  <defs
     id="defs1" />
  <sodipodi:namedview
     id="namedview1"
     pagecolor="#ffffff"
     bordercolor="#666666"
     borderopacity="1.0"
     inkscape:showpageshadow="2"
     inkscape:pageopacity="0.0"
     inkscape:pagecheckerboard="0"
     inkscape:deskcolor="#d1d1d1"
     showguides="true"
     inkscape:zoom="0.59453538"
     inkscape:cx="845.19781"
     inkscape:cy="269.9587"
     inkscape:window-width="1680"
     inkscape:window-height="998"
     inkscape:window-x="-8"
     inkscape:window-y="-8"
     inkscape:window-maximized="1"
     inkscape:current-layer="svg1">
    <sodipodi:guide
       position="910.95055,381.65861"
       orientation="0.77858062,0.62754459"
       id="guide4"
       inkscape:locked="false" />
    <sodipodi:guide
       position="593.92769,208.4043"
       orientation="1,0"
       id="guide5"
       inkscape:locked="false" />
  </sodipodi:namedview>
  <path
     style="fill:#000000;stroke:none;stroke-width:1"
     d="m 764.47656,93.550781 c -3.23044,0 -7.76521,2.66692 -12.16797,6.261719 -7.97699,6.51315 -7.66678,11.91848 -2.08398,18.75586 L 866.92773,262.36133 V 454.08594 C 779.79925,478.30747 689.31549,491.5957 593.92969,491.5957 h -0.002 c -216.56698,0 -450.13476,-68.80086 -450.13476,-152.1289 0,-47.67395 34.77044,-77.78846 106.28125,-91.69336 L 231.32031,137.32422 C 77.373293,165.13401 0,230.91457 0,333.21484 c 0,46.68069 10.996564,84.82287 33.34375,114.61914 22.347135,29.79615 58.208308,56.54085 108.36523,83.35743 50.15688,26.81653 102.66371,47.62147 156.29688,62.51953 H 133.37305 V 697.9082 H 1052.4004 V 593.71094 H 887.76758 c 65.63208,-17.04744 124.42282,-43.26875 181.30472,-79.19141 l 10.4199,12.50391 c -27.9195,22.79608 -30.4481,46.08378 -10.4199,72.93945 20.0284,26.85557 46.868,52.76928 83.3574,77.10547 22.8204,15.21975 42.5695,22.93164 58.623,22.93164 9.6157,0 17.9062,-2.76703 24.7364,-8.34375 18.233,-14.88731 18.9158,-42.97089 2.0839,-83.35742 -16.8318,-40.38655 -36.329,-72.71999 -58.3515,-97.94727 -12.1206,-13.88454 -24.9326,-18.78516 -36.9824,-18.78516 -12.279,0 -26.4614,5.54477 -40.125,16.70117 l -6.252,-8.33594 c 58.7311,-41.34854 91.6953,-89.21921 91.6953,-166.7168 0,-102.30027 -78.4641,-168.08083 -233.40428,-195.89062 l -18.75585,110.44922 c 71.51093,13.9049 106.28323,44.01941 106.28323,91.69336 0,23.09697 -10.5599,41.54833 -31.2598,54.18359 L 896.10352,251.94141 V 133.15625 c 0.17837,-9.02768 -7.42175,-12.56055 -15.01758,-12.56055 -0.55293,0 -1.10434,0.02 -1.6543,0.0566 -8.10379,0.54026 -15.55152,4.98021 -14.58789,14.58789 V 212.3457 L 773.14844,99.8125 c -1.93662,-4.116574 -5.08846,-6.054609 -8.33594,-6.251953 -0.11084,-0.0067 -0.22174,-0.0098 -0.33594,-0.0098 z m -560.24804,85.451169 8.33593,45.84766 c -68.53121,10.92527 -102.11523,49.06554 -102.11523,114.61719 0,51.64674 50.22766,95.53558 150.04492,131.29101 99.81715,35.75542 211.26931,54.18164 333.43359,54.18164 123.15765,0 234.113,-18.42617 333.4336,-54.18164 99.32067,-35.75543 147.96287,-79.64427 147.96287,-131.29101 0,-65.55165 -33.584,-103.69192 -102.11522,-114.61719 l 10.41993,-45.84766 c 112.23239,19.86411 168.80079,71.77672 168.80079,154.21289 0,38.73506 -9.7107,70.03982 -27.0918,95.86328 -17.3811,25.82333 -68.7971,59.90209 -154.2129,102.11329 -85.41575,42.21135 -210.33861,62.51953 -377.19727,62.51953 -166.85865,0 -294.36004,-20.30818 -379.27929,-62.51953 C 129.72935,488.98021 79.900614,454.90145 62.519531,429.07812 45.138349,403.25466 35.427734,371.9499 35.427734,333.21484 c 0,-82.43617 56.56845,-134.34878 168.800786,-154.21289 z m 691.875,120.8711 89.37129,110.92894 c -28.194,14.01052 -55.50468,25.0946 -89.37129,34.94793 z m 237.66798,220.82031 c 14.1339,0 25.3595,12.56423 29.0781,16.74998 17.6029,19.81426 33.8862,45.36694 47.9316,77.10742 14.0455,31.74047 16.3129,51.83641 8.336,58.34961 -2.0477,1.6722 -4.7044,2.48828 -7.9531,2.48828 -10.3099,0 -26.5865,-8.21179 -48.3145,-23.32617 -28.5749,-19.87713 -51.0789,-38.99289 -66.6875,-60.43555 -15.6086,-21.44296 -12.7461,-41.13808 8.3359,-58.35156 9.5528,-7.79971 20.1636,-12.58203 29.2735,-12.58203 z M 164.63281,627.05469 h 856.50779 v 37.50976 H 164.63281 Z"
     id="path1"
     sodipodi:nodetypes="sscccsssccsssccccccccssscsssccsccscccsccccsssccsssssccssssssscccccssssssssssccccc" />
  <path
     style="fill:none;stroke:#613583;stroke-width:33;stroke-linecap:butt;stroke-linejoin:miter;stroke-dasharray:none;stroke-opacity:1"
     d="M 879.6464,471.66143 827.49218,328.41079 C 807.70464,274.06087 779.0249,256.69662 742.59668,256.69662 H 593.92769"
     id="path5"
     sodipodi:nodetypes="cssc" />
  <use
     x="0"
     y="0"
     xlink:href="#path5"
     id="use5"
     transform="matrix(-1,0,0,1,1187.8554,0)" />
</svg>
