<?xml version="1.0" encoding="UTF-8" standalone="no"?>
<svg
   width="800"
   height="1000"
   version="1.1"
   id="svg1"
   sodipodi:docname="14088.svg"
   inkscape:version="1.4.2 (f4327f4, 2025-05-13)"
   xmlns:inkscape="http://www.inkscape.org/namespaces/inkscape"
   xmlns:sodipodi="http://sodipodi.sourceforge.net/DTD/sodipodi-0.dtd"
   xmlns:xlink="http://www.w3.org/1999/xlink"
   xmlns="http://www.w3.org/2000/svg"
   xmlns:svg="http://www.w3.org/2000/svg">
  <defs
     id="defs1" />
  <sodipodi:namedview
     id="namedview1"
     pagecolor="#ffffff"
     bordercolor="#666666"
     borderopacity="1.0"
     inkscape:showpageshadow="2"
     inkscape:pageopacity="0.0"
     inkscape:pagecheckerboard="0"
     inkscape:deskcolor="#d1d1d1"
     inkscape:zoom="0.53386562"
     inkscape:cx="836.35279"
     inkscape:cy="452.36103"
     inkscape:window-width="1680"
     inkscape:window-height="998"
     inkscape:window-x="-8"
     inkscape:window-y="-8"
     inkscape:window-maximized="1"
     inkscape:current-layer="svg1" />
  <path
     style="fill:#000000;stroke:none;stroke-width:1"
     d="M 367.82903,727.2216 H 210.34871 q -15.1856,0 -15.1856,-11.24859 0,-14.06074 6.18673,-14.06074 8.99887,-2.81215 24.7469,-0.56243 16.31046,1.68728 24.74691,1.68728 h 71.42857 q -7.87401,-24.18447 -24.74691,-26.43419 -17.43532,-2.81215 -38.80765,-10.12374 -17.99775,-26.99662 -48.36895,-26.99662 -31.49606,0 -47.24409,20.24747 -16.31047,20.24747 -16.31047,44.43194 0,25.30934 15.18561,43.86952 15.74803,18.56018 48.36895,18.56018 H 367.82903 V 1000 h 64.67941 V 766.59168 h 157.48032 q 34.30821,0 49.49381,-18.56018 15.1856,-18.56018 15.1856,-43.86952 0,-24.18447 -15.74803,-44.43194 -16.31046,-20.24747 -47.80652,-20.24747 -30.37121,0 -48.36896,26.99662 -21.37233,7.31159 -38.24522,10.12374 -17.43532,2.24972 -24.7469,26.4342 h 70.86614 q 7.31159,0 24.18448,-1.68729 16.31046,-2.24972 24.18447,0.56243 7.31159,0 7.31159,14.06074 0,11.24859 -16.31046,11.24859 H 432.50844 V 613.04837 H 773.90327 Q 638.35771,461.75478 638.35771,313.27334 639.48257,186.72666 768.8414,78.740158 V 30.371204 H 432.50844 Q 432.50844,0 401.01238,0 367.82903,0 367.82903,30.371204 H 0 v 53.430821 q 52.86839,0 52.86839,40.494935 0,25.30934 -23.05961,62.99213 -23.62205,37.12036 -23.62205,81.55231 0,345.33183 361.6423,344.20697 z M 40.49494,271.65355 q 0,-49.49382 23.62205,-84.36446 23.05962,-34.87064 23.05962,-61.86727 0,-25.30933 -16.31046,-41.619795 H 367.82903 V 579.86502 Q 40.49494,580.98988 40.49494,271.65355 Z m 392.0135,309.33633 V 83.802025 H 719.34759 Q 606.29922,173.79078 606.29922,313.27334 q 0,157.48032 107.9865,267.71654 z M 386.95164,727.2216 V 30.371204 q 0,-15.185602 14.06074,-15.185602 12.37345,0 12.37345,15.185602 V 727.2216 Z m 203.03712,20.24747 H 210.34871 q -26.4342,0 -35.43307,-14.06074 -8.99888,-14.06074 -8.99888,-29.24635 0,-17.43532 8.99888,-30.3712 8.99887,-16.31046 35.43307,-16.31046 28.12149,0 28.12149,16.31046 0,15.1856 -10.12374,15.1856 h -20.24747 q -28.12148,0 -28.12148,26.99663 0,26.43419 30.3712,25.30933 h 379.64005 q 30.3712,1.12486 30.3712,-25.30933 0,-26.99663 -26.43419,-26.99663 h -20.8099 q -10.12374,0 -10.12374,-15.1856 0,-16.31046 28.12149,-16.31046 25.30933,0 35.43307,16.31046 8.99887,12.93588 8.99887,30.3712 0,15.18561 -8.99887,29.24635 -8.99888,14.06074 -36.55793,14.06074 z M 386.95164,971.87852 V 766.59168 h 26.43419 V 971.87852 Z M 35.43307,63.554556 V 53.430821 h 332.39596 v 10.123735 z m 397.07537,0 V 53.430821 H 733.40833 V 63.554556 Z M 575.92802,673.79078 q 0,10.12374 12.93588,10.12374 11.24859,0 11.24859,-10.12374 0,-11.24859 -11.24859,-11.24859 -12.93588,0 -12.93588,11.24859 z m -351.51857,0 q 0,-11.24859 -11.24859,-11.24859 -11.81102,0 -11.81102,11.24859 0,10.12374 11.81102,10.12374 11.24859,0 11.24859,-10.12374 z m 26.4342,15.1856 5.06187,-6.18672 q 39.37008,2.24971 42.18222,6.18672 z m 252.53093,0 q 2.81215,-3.93701 42.18223,-6.18672 l 3.93701,6.18672 z"
     id="path1" />
  <path
     style="fill:none;stroke:#613583;stroke-width:25;stroke-linecap:butt;stroke-linejoin:miter;stroke-dasharray:none;stroke-opacity:1"
     d="M 432.50844,580.98988 660.553,73.031524"
     id="path2"
     sodipodi:nodetypes="cc" />
  <use
     x="0"
     y="0"
     xlink:href="#path2"
     id="use2"
     transform="matrix(-1,0,0,1,800.33747,-1.12486)" />
</svg>
