<?xml version="1.0" encoding="UTF-8" standalone="no"?>
<svg
   width="800"
   height="1000"
   version="1.1"
   id="svg1"
   sodipodi:docname="14088.svg"
   inkscape:version="1.4.2 (f4327f4, 2025-05-13)"
   xmlns:inkscape="http://www.inkscape.org/namespaces/inkscape"
   xmlns:sodipodi="http://sodipodi.sourceforge.net/DTD/sodipodi-0.dtd"
   xmlns:xlink="http://www.w3.org/1999/xlink"
   xmlns="http://www.w3.org/2000/svg"
   xmlns:svg="http://www.w3.org/2000/svg">
  <defs
     id="defs1" />
  <sodipodi:namedview
     id="namedview1"
     pagecolor="#ffffff"
     bordercolor="#666666"
     borderopacity="1.0"
     inkscape:showpageshadow="2"
     inkscape:pageopacity="0.0"
     inkscape:pagecheckerboard="0"
     inkscape:deskcolor="#d1d1d1"
     inkscape:zoom="0.53386562"
     inkscape:cx="379.30894"
     inkscape:cy="323.11502"
     inkscape:window-width="1680"
     inkscape:window-height="998"
     inkscape:window-x="-8"
     inkscape:window-y="-8"
     inkscape:window-maximized="1"
     inkscape:current-layer="svg1"
     showguides="true">
    <sodipodi:guide
       position="831.66996,916.64569"
       orientation="0,-1"
       id="guide9"
       inkscape:locked="false" />
    <sodipodi:guide
       position="768.8418,969.62891"
       orientation="1,0"
       id="guide10"
       inkscape:locked="false" />
    <sodipodi:guide
       position="747.37891,856.19727"
       orientation="1,0"
       id="guide12"
       inkscape:locked="false" />
    <sodipodi:guide
       position="465.47294,387.01803"
       orientation="0,1"
       id="guide13"
       inkscape:locked="false"
       inkscape:label=""
       inkscape:color="rgb(0,134,229)" />
    <sodipodi:guide
       position="432.50781,446.95117"
       orientation="0,-1"
       id="guide14"
       inkscape:locked="false" />
    <sodipodi:guide
       position="831.66996,866.64569"
       orientation="0,1"
       id="guide1"
       inkscape:label=""
       inkscape:locked="false"
       inkscape:color="rgb(0,134,229)" />
    <sodipodi:guide
       position="465.47294,437.01803"
       orientation="0,1"
       id="guide2"
       inkscape:label=""
       inkscape:locked="false"
       inkscape:color="rgb(0,134,229)" />
    <sodipodi:guide
       position="465.47294,402.01803"
       orientation="0,1"
       id="guide3"
       inkscape:label=""
       inkscape:locked="false"
       inkscape:color="rgb(0,134,229)" />
  </sodipodi:namedview>
  <path
     style="fill:#ffa348;stroke:none;stroke-width:1"
     d="m 513.80273,30.371094 c 0.24137,2.884125 0.39398,5.774078 0.36133,8.664062 -0.0579,5.119098 -0.2962,9.83426 -0.72851,14.396485 H 733.4082 V 63.554688 H 512.12891 c -0.94807,5.807055 -2.23945,11.677133 -3.90235,18.162109 -0.17839,0.69569 -0.36014,1.391473 -0.54687,2.085937 H 719.34766 C 643.98208,143.79524 606.29883,220.28506 606.29883,313.27344 c 0,104.98688 35.99533,194.22598 107.98633,267.71679 H 496.18359 c -4.79556,9.33887 -9.73222,18.60552 -14.35742,28.03125 -0.76537,1.55977 -1.40718,2.87583 -1.96484,4.02735 H 773.90234 C 683.53864,512.18643 638.35742,412.26106 638.35742,313.27344 639.10733,228.90898 682.60258,150.73124 768.8418,78.740234 v -48.36914 z"
     id="path6"
     sodipodi:nodetypes="csccccsccsccscccccc" />
  <path
     style="fill:#ffa348;stroke:none;stroke-width:1"
     d="m 0,30.371094 v 53.43164 c 35.245593,0 52.869141,13.497503 52.869141,40.494146 0,16.87288 -7.687474,37.87032 -23.060547,62.99218 C 14.06056,212.03597 6.1875,239.2205 6.1875,268.8418 c 0,212.947 103.13446,327.08928 309.40625,342.42578 0.0563,-0.15784 0.1207,-0.32856 0.19336,-0.51172 -0.52246,-11.19155 -1.99942,-22.39533 -4.79883,-33.25391 C 130.65822,561.0702 40.494141,459.12084 40.494141,271.6543 c 0,-32.99588 7.875013,-61.11814 23.623047,-84.36524 15.37308,-23.24709 23.058593,-43.86943 23.058593,-61.86718 0,-16.87289 -5.436907,-30.745502 -16.310547,-41.619146 H 313.36328 c 0.442,-6.737561 0.75394,-13.497284 0.74024,-20.248046 H 35.433594 V 53.431641 H 313.81445 c -0.30292,-5.244389 -0.8635,-10.473898 -1.77343,-15.673829 -0.43879,-2.507519 -1.2112,-4.941693 -1.9336,-7.386718 z M 315.78711,610.75586 c 0.008,0.17584 0.0159,0.35155 0.0234,0.52734 0.004,2.7e-4 0.006,-2.7e-4 0.01,0 0.15444,-1.04661 0.89953,-2.67107 0.42188,-1.60156 -0.17822,0.39905 -0.32886,0.75604 -0.45508,1.07422 z"
     id="path8"
     sodipodi:nodetypes="ccscscccscsccccccscccccscc" />
  <path
     style="fill:#000000;stroke:none;stroke-width:1"
     d="m 401.01172,0 c -22.12223,0 -33.18358,10.123624 -33.1836,30.371094 l 3e-5,696.849606 H 210.34961 c -10.12373,0 -15.18555,-3.74898 -15.18555,-11.24804 0,-9.37383 2.06106,-14.06055 6.18555,-14.06055 5.99925,-1.87477 14.24936,-2.06231 24.74805,-0.5625 10.87364,1.12485 19.12179,1.6875 24.74609,1.6875 h 71.42773 c -5.24934,-16.12298 -13.49749,-24.93378 -24.74609,-26.43359 -11.62355,-1.87477 -24.56037,-5.25061 -38.80859,-10.125 -11.9985,-17.99775 -28.11972,-26.9961 -48.36719,-26.9961 -20.99737,0 -36.74545,6.74974 -47.24414,20.24805 -10.87365,13.49831 -16.31055,28.30866 -16.31055,44.43164 0,16.87289 5.06181,31.49569 15.18555,43.86914 10.49869,12.37345 26.62186,18.56055 48.36914,18.56055 H 367.82812 V 1000 h 64.67969 V 766.5918 h 157.48047 c 22.87214,0 39.37041,-6.1871 49.49414,-18.56055 10.12374,-12.37345 15.18555,-26.99625 15.18555,-43.86914 0,-16.12298 -5.24936,-30.93333 -15.74805,-44.43164 -10.87364,-13.49831 -26.80927,-20.24805 -47.80664,-20.24805 -20.24747,0 -36.37064,8.99835 -48.36914,26.9961 -14.24822,4.87439 -26.99555,8.25023 -38.24414,10.125 -11.62355,1.49981 -19.87366,10.3106 -24.74805,26.43359 h 70.86719 c 4.87439,0 12.935,-0.56264 24.18359,-1.6875 10.87364,-1.49981 18.93621,-1.31227 24.18555,0.5625 4.87439,0 7.31055,4.68672 7.31055,14.06055 0,7.49906 -5.43691,11.24804 -16.31055,11.24804 H 432.50781 V 30.371094 C 432.50781,10.123624 422.00909,0 401.01172,0 Z m 0,15.185547 c 8.24897,0 12.375,5.061812 12.375,15.185547 V 727.2207 H 386.95117 V 30.371094 c 0,-10.123735 4.68672,-15.185547 14.06055,-15.185547 z M 210.34961,657.48047 c 18.74766,0 28.12109,5.43691 28.12109,16.31055 0,10.12373 -3.37584,15.18554 -10.125,15.18554 h -20.24609 c -18.74765,0 -28.12305,8.99834 -28.12305,26.9961 0,17.62279 10.12558,26.06045 30.37305,25.31054 h 379.63867 c 20.24747,0.74991 30.37107,-7.68775 30.3711,-25.31054 0,-17.99776 -8.81081,-26.9961 -26.4336,-26.9961 h -20.81055 c -6.74916,0 -10.12304,-5.06181 -10.12304,-15.18554 0,-10.87364 9.37343,-16.31055 28.12109,-16.31055 16.87289,0 28.68444,5.43691 35.4336,16.31055 5.99923,8.62392 8.99804,18.74754 8.99804,30.37109 0,10.12374 -2.9988,19.87227 -8.99804,29.24609 -5.99928,9.37383 -18.1859,14.06055 -36.5586,14.06055 H 210.34961 c -17.6228,0 -29.43435,-4.68672 -35.43359,-14.06055 -5.99926,-9.37382 -9,-19.12235 -9,-29.24609 0,-11.62355 3.00074,-21.74717 9,-30.37109 5.99924,-10.87364 17.81079,-16.31055 35.43359,-16.31055 z m 2.81055,5.0625 c -7.87402,0 -11.81055,3.74899 -11.81055,11.24805 0,6.74916 3.93653,10.12304 11.81055,10.12304 7.49906,0 11.25,-3.37388 11.25,-10.12304 0,-7.49906 -3.75094,-11.24805 -11.25,-11.24805 z m 375.70312,0 c -8.62392,0 -12.93555,3.74899 -12.93555,11.24805 0,6.74916 4.31163,10.12304 12.93555,10.12304 7.49906,0 11.25,-3.37388 11.25,-10.12304 0,-7.49906 -3.75094,-11.24805 -11.25,-11.24805 z m -332.95703,20.24609 c 26.24672,1.49981 40.30688,3.56283 42.18164,6.1875 h -47.24414 z m 289.65039,0 3.9375,6.1875 H 503.375 c 1.87477,-2.62467 15.93492,-4.68769 42.18164,-6.1875 z M 386.95117,766.5918 h 26.43555 v 205.28711 h -26.43555 z"
     id="path1"
     sodipodi:nodetypes="sccssccscccscscsccccssscscccsccssccsssccsssssssccssssscsssssscsssssssssssccccccccccccc" />
  <path
     style="baseline-shift:baseline;display:inline;overflow:visible;opacity:1;vector-effect:none;fill:#000000;stroke-width:0.999999;stroke-linecap:round;enable-background:accumulate;stop-color:#000000;stop-opacity:1"
     d="m 432.50781,83.802734 v 49.551576 h 314.8711 c 11.85363,0 21.46289,-11.0925 21.46289,-24.77579 0,-13.683289 -9.60926,-24.775786 -21.46289,-24.775786 z"
     id="path10"
     sodipodi:nodetypes="ccsssc" />
  <path
     style="baseline-shift:baseline;display:inline;overflow:visible;opacity:1;vector-effect:none;fill:#000000;stroke-width:0.999999;stroke-linecap:round;enable-background:accumulate;stop-color:#000000;stop-opacity:1"
     d="M 367.82812,83.802734 V 133.35431 H 21.46289 C 9.60926,133.35431 0,122.26181 0,108.57852 0,94.895231 9.60926,83.802734 21.46289,83.802734 Z"
     id="path11"
     sodipodi:nodetypes="ccsssc" />
  <path
     style="fill:none;stroke:#613583;stroke-width:30;stroke-linecap:butt;stroke-linejoin:miter;stroke-opacity:1;stroke-dasharray:none"
     d="m 747.37891,114.26615 c -95.1212,159.51411 -87.17258,318.68826 0,467.5975"
     id="path12"
     sodipodi:nodetypes="cc" />
  <path
     style="fill:none;stroke:#613583;stroke-width:30;stroke-linecap:butt;stroke-linejoin:miter;stroke-dasharray:none;stroke-opacity:1"
     d="m 367.82814,597.98197 h -11.03625 c -10.22366,0 -20.38892,-1.00788 -30.46597,-2.94258 C 168.45592,564.72978 32.233391,306.9476 32.233391,133.35431"
     id="path13"
     sodipodi:nodetypes="cssc" />
  <path
     style="fill:#000000;stroke:none;stroke-width:1px;stroke-linecap:butt;stroke-linejoin:miter;stroke-opacity:1"
     d="M 367.82814,562.98197 H 231.79991 l 99.51852,42.35099 36.50971,2.64901"
     id="path14"
     sodipodi:nodetypes="cccc" />
  <path
     style="fill:none;stroke:#613583;stroke-width:25;stroke-linecap:butt;stroke-linejoin:miter;stroke-dasharray:none;stroke-opacity:1"
     d="M 432.50781,563.43039 686.0758,113.85622"
     id="path15"
     sodipodi:nodetypes="cc" />
  <use
     x="0"
     y="0"
     xlink:href="#path15"
     id="use15"
     transform="matrix(-1,0,0,1,800.33595,0)" />
  <path
     style="baseline-shift:baseline;display:inline;overflow:visible;opacity:1;vector-effect:none;fill:#000000;stroke-width:0.999999;stroke-linecap:round;enable-background:accumulate;stop-color:#000000;stop-opacity:1"
     d="m 432.50781,563.43039 v 49.55158 h 314.8711 c 11.85363,0 21.46289,-11.0925 21.46289,-24.77579 0,-13.68329 -9.60926,-24.77579 -21.46289,-24.77579 z"
     id="path2"
     sodipodi:nodetypes="ccsssc" />
</svg>
