<?xml version="1.0" encoding="UTF-8" standalone="no"?>
<svg
   width="980.87738"
   height="1000"
   version="1.1"
   id="svg1"
   sodipodi:docname="140B4.svg"
   inkscape:version="1.4.3 (0d15f75, 2025-12-25)"
   xmlns:inkscape="http://www.inkscape.org/namespaces/inkscape"
   xmlns:sodipodi="http://sodipodi.sourceforge.net/DTD/sodipodi-0.dtd"
   xmlns:xlink="http://www.w3.org/1999/xlink"
   xmlns="http://www.w3.org/2000/svg"
   xmlns:svg="http://www.w3.org/2000/svg">
  <defs
     id="defs1" />
  <sodipodi:namedview
     id="namedview1"
     pagecolor="#ffffff"
     bordercolor="#666666"
     borderopacity="1.0"
     inkscape:showpageshadow="2"
     inkscape:pageopacity="0.0"
     inkscape:pagecheckerboard="0"
     inkscape:deskcolor="#d1d1d1"
     showguides="true"
     inkscape:zoom="0.755"
     inkscape:cx="335.76159"
     inkscape:cy="122.51656"
     inkscape:window-width="1680"
     inkscape:window-height="998"
     inkscape:window-x="-8"
     inkscape:window-y="-8"
     inkscape:window-maximized="1"
     inkscape:current-layer="svg1">
    <sodipodi:guide
       position="482.95083,40.69714"
       orientation="1,0"
       id="guide1"
       inkscape:locked="false" />
    <sodipodi:guide
       position="401.38086,684.16211"
       orientation="-0.26116777,0.96529342"
       id="guide6"
       inkscape:locked="false" />
  </sodipodi:namedview>
  <path
     style="fill:#000000;stroke:none;stroke-width:0.999997"
     d="m 293.73312,745.62461 78.72357,213.67825 h 220.98829 l 79.84818,-213.67825 z m 15.18241,-65.79041 19.11858,-8.99697 -118.08535,-231.1099 h -1.12462 z M 49.690076,125.9577 67.684034,163.63255 c -34.863293,16.11959 -40.486405,56.04368 -16.869336,119.77228 18.743706,39.73665 39.361783,64.29091 61.854232,73.66276 22.49245,9.37185 41.79846,10.1216 57.91805,2.24925 16.11959,-7.49749 27.92812,-22.86733 35.4256,-46.10952 7.49748,-23.24219 2.43668,-54.73162 -15.1824,-94.46827 C 157.09151,160.25868 122.79053,139.07829 87.927236,155.19788 L 69.933278,116.96072 Z M 745.8313,705.13821 630.55751,999.78926 H 337.03108 L 221.19498,705.13821 h 64.66579 L 175.64778,453.78511 C 162.90206,426.4193 147.15735,407.30072 128.41364,396.42937 86.052865,393.80526 50.06495,361.19121 20.449895,298.58723 -8.4154117,237.48275 -6.728478,187.99937 25.510696,150.13708 L 8.0790495,111.89992 85.11568,74.787386 103.10964,113.02455 c 50.98288,-0.74975 90.34466,29.80249 118.08534,91.65672 29.61506,62.60397 31.67687,111.33761 6.18543,146.2009 -3.37387,20.99295 1.31206,44.9849 14.05778,71.97583 l 142.26472,282.28021 z"
     id="path1"
     sodipodi:nodetypes="cccccccccccccscsccccccccccccccccccccc" />
  <path
     id="path2"
     style="fill:#000000;stroke:none;stroke-width:0.999997"
     inkscape:transform-center-x="-79.723451"
     inkscape:transform-center-y="350.49649"
     d="m 402.0293,0 c 16.25323,116.7498 16.03638,222.02865 -0.64844,315.83789 -29.74011,14.66893 -42.29737,27.14547 -37.67188,37.42383 4.49473,9.92702 10.78271,13.38445 18.86329,10.37695 29.62162,33.37481 53.69936,72.81339 72.23437,118.31445 5.26639,52.83949 4.96985,129.99805 2.85335,223.18509 l 25.29084,21.87462 V 460.66821 c -18.4733,0 -42.52158,-50.23698 -54.55044,-78.68582 15.58134,-2.19923 25.55017,3.09052 29.90625,15.86914 4.35606,12.77861 8.87057,23.29842 13.54492,31.5586 5.02567,8.12942 8.37222,12.28328 10.03906,12.46289 0.30951,-0.1152 0.66335,-0.3469 1.06055,-0.69336 l -3.4e-4,-19.5568 c -2.61522,-7.02659 -5.18473,-15.01309 -7.00747,-23.13461 -1.34067,-7.90096 0.82403,-13.90723 6.49414,-18.01758 0.17511,0.14813 0.34608,0.29741 0.51367,0.44922 v -34.2207 c -7.16062,4.32338 -12.79595,15.41407 -16.90234,33.26953 -9.18487,-11.78138 -24.39707,-16.11838 -45.64063,-13.01172 l -10.35742,-16.54492 c 6.02971,-3.14418 12.045,-5.88346 18.05078,-8.21875 18.01734,-7.00586 35.92853,-10.37191 53.73047,-10.09766 0.37282,-0.011 0.746,-0.0197 1.11914,-0.0273 v -31.5 c -0.0837,0.002 -0.16808,0.004 -0.25195,0.006 -20.22381,0 -36.58004,3.15922 -48.00444,6.25018 11.8132,-93.60839 13.04117,-147.62298 4.23032,-273.791442 h 44.02573 L 482.95117,0 Z"
     sodipodi:nodetypes="cccccccccscccccccccccsccccccccc" />
  <use
     x="0"
     y="0"
     xlink:href="#path2"
     inkscape:transform-center-x="79.723454"
     inkscape:transform-center-y="350.49649"
     id="use2"
     transform="matrix(-1,0,0,1,965.90234,0)" />
  <path
     style="fill:#000000;stroke:none;stroke-width:0.999997"
     d="m 881.91138,74.786641 77.03711,37.113279 -17.43164,38.23633 c 32.23917,37.86229 33.92585,87.34669 5.06054,148.45117 -29.61505,62.60398 -65.60407,95.21769 -107.96484,97.84181 -18.74372,10.87135 -34.48867,29.98966 -47.23439,57.35546 L 681.16527,705.13821 h 64.66603 l -88.73143,23.17881 -73.77639,-23.17881 142.26563,-282.28125 c 12.74572,-26.99093 17.43051,-50.98166 14.05664,-71.97461 -25.49144,-34.86329 -23.42952,-83.5972 6.18555,-146.20117 27.74067,-61.85423 67.10306,-92.406 118.08593,-91.65625 z m 15.18164,42.173829 -17.99414,38.23633 c -34.8633,-16.11958 -69.16368,5.06064 -102.90235,63.54101 -17.61908,39.73665 -22.67912,71.22656 -15.18164,94.46875 7.49748,23.24219 19.30424,38.6119 35.42383,46.10938 16.11959,7.87235 35.42747,7.1238 57.91992,-2.24805 22.49245,-9.37184 43.10981,-33.92741 61.85352,-73.66406 23.61707,-63.7286 17.99415,-103.6519 -16.86914,-119.77149 l 17.99414,-37.67577 z M 758.20239,439.72609 h -1.125 l -118.08398,231.11133 19.11718,8.99609 z"
     id="path3"
     sodipodi:nodetypes="ccccccccccccccccccscsccccccccc" />
</svg>
