<?xml version="1.0" encoding="UTF-8" standalone="no"?>
<svg
   width="400"
   height="1000"
   version="1.1"
   id="svg1"
   sodipodi:docname="14142.svg"
   inkscape:version="1.4.2 (f4327f4, 2025-05-13)"
   xmlns:inkscape="http://www.inkscape.org/namespaces/inkscape"
   xmlns:sodipodi="http://sodipodi.sourceforge.net/DTD/sodipodi-0.dtd"
   xmlns:xlink="http://www.w3.org/1999/xlink"
   xmlns="http://www.w3.org/2000/svg"
   xmlns:svg="http://www.w3.org/2000/svg">
  <defs
     id="defs1" />
  <sodipodi:namedview
     id="namedview1"
     pagecolor="#ffffff"
     bordercolor="#666666"
     borderopacity="1.0"
     inkscape:showpageshadow="2"
     inkscape:pageopacity="0.0"
     inkscape:pagecheckerboard="0"
     inkscape:deskcolor="#d1d1d1"
     showguides="true"
     inkscape:zoom="0.3775"
     inkscape:cx="581.45695"
     inkscape:cy="690.06622"
     inkscape:window-width="1680"
     inkscape:window-height="998"
     inkscape:window-x="-8"
     inkscape:window-y="-8"
     inkscape:window-maximized="1"
     inkscape:current-layer="svg1">
    <sodipodi:guide
       position="165.55786,116.21865"
       orientation="1,0"
       id="guide1"
       inkscape:locked="false" />
    <sodipodi:guide
       position="18.199274,143.46609"
       orientation="1,0"
       id="guide2"
       inkscape:locked="false" />
    <sodipodi:guide
       position="400,0"
       orientation="0,-1"
       id="guide3"
       inkscape:locked="false" />
    <sodipodi:guide
       position="400,1000"
       orientation="0,-1"
       id="guide4"
       inkscape:locked="false" />
    <sodipodi:guide
       position="30.69928,147.35858"
       orientation="0,-1"
       id="guide5"
       inkscape:locked="false" />
    <sodipodi:guide
       position="143.03702,421.20264"
       orientation="1,0"
       id="guide7"
       inkscape:locked="false" />
    <sodipodi:guide
       position="188.0787,421.20264"
       orientation="1,0"
       id="guide8"
       inkscape:locked="false" />
  </sodipodi:namedview>
  <path
     style="fill:#ffa348;stroke:none;stroke-width:0.999998"
     d="M 165.55786,883.78135 97.717304,952.17798 Q 79.923059,942.16871 72.694148,925.48661 L 140.5347,858.75819 69.913797,787.02514 q 6.116772,-17.23817 25.023156,-23.91101 l 70.620907,70.62091 71.73305,-71.73305 q 15.01389,7.78498 23.91102,26.13529 l -70.62091,70.62091 69.50876,69.50877 q -7.78498,17.23817 -25.02315,25.02316 z M 166.67,799.81476 115.51155,748.10023 q 48.93417,-22.79887 102.87297,0 z m 111.21403,6.11677 q 21.13066,52.82666 0,103.42905 L 224.5013,857.64605 Z M 166.67,915.47735 l 51.71452,52.82666 q -50.04631,22.79888 -102.87297,0 z M 53.787763,906.58022 q -22.798876,-52.82666 0,-102.87297 L 104.94622,854.8657 Z M 310.1361,332.71584 q 5.00463,12.78961 -7.22891,18.90638 -12.78962,6.11678 -21.68674,-6.11677 -25.02316,-76.73768 -91.75157,-141.24181 v -2.22428 q 88.41515,73.95733 120.66722,130.67648 z M 270.09905,760.88985 Q 232.28628,715.2921 189.46888,715.2921 V 243.18855 q 31.696,95.64406 38.92491,186.28349 5.00463,31.696 42.26133,25.57923 37.2567,-6.67284 32.25207,-37.81277 -6.11678,-26.69137 -11.67748,-44.48561 22.79888,3.89249 36.14456,-12.78961 13.34569,-17.23818 3.33642,-37.2567 -33.92028,-57.8313 -97.31227,-104.54119 -62.83593,-46.70989 -88.97122,-28.91565 12.23354,-8.89712 35.03241,-14.45782 22.79888,-5.5607 63.94807,27.24744 L 319.03322,83.596417 q 21.68674,5.004631 36.14456,-8.341052 Q 369.6356,61.909682 370.19167,45.783648 370.74774,29.101544 356.84599,16.31193 342.94424,2.9662469 324.59392,0.18589622 306.79968,-2.0383843 281.22045,21.872632 L 131.63758,166.45087 q 50.60239,-63.94807 50.60239,-99.536557 0,-35.032419 -18.90639,-58.9434348 H 144.4272 q 0,75.6255388 -38.36884,118.9990118 -38.368844,43.37347 -61.723789,105.65332 -23.354946,62.27986 -43.3734714,115.10652 -5.0046313,13.90176 16.1260344,13.90176 20.018525,0 31.695998,-33.36421 11.121402,-33.36421 23.911016,-38.36884 12.233543,-5.00463 25.023156,-37.2567 12.233546,-31.696 30.027786,-31.696 17.79425,0 16.68211,37.2567 V 715.2921 q -46.709896,0 -86.190876,43.37347 -40.03705,43.37347 -40.03705,97.86834 0,58.94344 46.153822,101.20477 Q 109.95085,1000 164.44572,1000 q 63.94807,0 105.09726,-43.92953 40.59312,-44.48561 40.59312,-99.53656 v 1.11214 q 0,-50.60238 -40.03705,-96.7562 z m 11.1214,-345.31956 q 2.78035,17.79425 -14.45782,20.5746 -16.68211,2.22428 -16.68211,-12.78962 -10.00926,-115.66259 -60.61164,-199.07311 v -6.11677 q 74.5134,100.6487 91.75157,197.4049 z M 237.29091,166.45087 q -26.1353,-18.90639 -58.94344,-17.23818 L 295.1222,37.998666 q 27.80351,-26.135297 45.04168,-10.009263 16.68211,16.682104 6.67285,29.471718 -10.00927,13.345683 -36.70063,6.116771 z"
     id="path1" />
  <circle
     style="fill:none;fill-rule:evenodd;stroke:#9141ac;stroke-width:25;stroke-miterlimit:2;stroke-dasharray:none"
     id="path1-9"
     cx="165.55786"
     cy="852.64142"
     r="134.85858" />
  <path
     style="fill:none;stroke:#613583;stroke-width:22;stroke-linecap:butt;stroke-linejoin:miter;stroke-dasharray:none;stroke-opacity:1"
     d="m 89.235,739.47171 76.32286,76.32544 76.41668,-76.26102"
     id="path3"
     sodipodi:nodetypes="ccc"
     inkscape:transform-center-x="-0.04691"
     inkscape:transform-center-y="-75.00699" />
  <use
     x="0"
     y="0"
     xlink:href="#path3"
     inkscape:transform-center-x="75.00699"
     inkscape:transform-center-y="-0.04691"
     id="use5"
     transform="rotate(-90,165.55786,852.64142)" />
  <use
     x="0"
     y="0"
     xlink:href="#path3"
     inkscape:transform-center-x="0.04691"
     inkscape:transform-center-y="75.00699"
     id="use6"
     transform="rotate(180,165.55786,852.64142)" />
  <use
     x="0"
     y="0"
     xlink:href="#path3"
     inkscape:transform-center-x="-75.00699"
     inkscape:transform-center-y="0.04691"
     id="use7"
     transform="rotate(90,165.55786,852.64142)" />
  <path
     id="path13"
     style="fill:#000000;stroke:none;stroke-width:67.4125"
     d="M 344.5285,-0.07815732 C 331.3419,-0.2905076 316.08431,8.0968481 298.75697,25.084443 L 132.95759,184.90391 c 15.58585,-16.31077 30.62773,-41.68402 45.12619,-76.11788 14.86099,-34.433853 8.69885,-60.71171 -18.48579,-78.834793 -9.78646,53.281866 -28.63424,90.977413 -56.54375,113.087563 -27.547105,22.11016 -45.488345,46.21348 -53.824955,72.31073 -8.33662,26.4597 -33.346485,78.1108 -75.029578,154.95267 23.92247,10.87384 42.95192,2.35744 57.087928,-25.55211 14.49847,-27.90955 26.64098,-44.94616 36.42744,-51.10801 9.78646,-6.16185 20.84076,-19.39257 33.164475,-39.69042 6.62685,-11.10975 12.99199,-16.66434 19.09486,-16.66433 13.19048,3e-5 23.06261,15.15239 23.06261,30.63465 V 720.16219 H 188.0787 V 270.79546 c 23.1932,71.02983 38.05316,140.79241 44.57632,209.28548 3.98644,22.83132 19.56898,31.71021 46.74909,26.63657 27.54255,-5.07361 39.31984,-18.8463 35.33342,-41.31523 -3.98643,-19.93211 -8.33498,-36.60129 -13.04621,-50.01016 16.67048,3.26161 29.89792,-1.63219 39.6828,-14.67867 10.14726,-13.40887 11.23582,-27.17966 3.26298,-41.31333 -23.91852,-42.03863 -59.61578,-80.45255 -107.09044,-115.24315 -47.11225,-34.42819 -72.33553,-45.30056 -91.54283,-32.61648 9.42245,-7.24805 22.65181,-12.86502 39.6847,-16.85145 16.67049,-3.98642 40.40681,5.97913 71.21097,29.89766 L 340.61444,93.034349 c 16.6705,3.986415 30.44128,1.088019 41.31334,-8.696839 10.50965,-9.78485 15.76504,-20.838972 15.76504,-33.160639 0,-12.684064 -4.89189,-23.918021 -14.67675,-33.702877 C 372.86883,7.6891453 360.9098,1.8904171 347.1385,0.07840464 c -0.8607,-0.09060017 -1.73088,-0.14240494 -2.61,-0.15656196 z M 348.37,23.614286 c 5.79278,-0.01699 10.99931,2.2853 15.61994,6.905921 12.32167,12.321666 14.8585,23.557532 7.61045,33.704788 -7.24804,9.784858 -20.83898,11.958179 -40.77108,6.522152 L 250.9196,186.53444 C 230.98749,171.31356 208.69939,164.42817 184.05607,165.87778 L 314.52202,43.024181 C 327.4326,30.113611 338.71541,23.642603 348.37,23.614286 Z M 188.0787,224.5867 c 66.31956,55.4475 111.25729,104.00872 134.81343,145.68495 3.98641,9.42245 1.26786,16.67135 -8.1546,21.74496 -9.42244,5.07363 -17.39452,2.89839 -23.91773,-6.52406 -18.12012,-57.2595 -52.36723,-110.1693 -102.74109,-158.73117 z m 0,19.02612 c 55.0851,74.65479 88.97063,147.86109 101.65468,219.61668 2.17442,13.40886 -2.89922,21.19917 -15.2209,23.3736 -12.32167,1.81201 -18.84547,-2.89815 -19.57026,-14.13261 -7.24805,-86.61406 -29.53612,-160.907 -66.86352,-222.87775 z"
     sodipodi:nodetypes="sccccccccscsscccccccccccccccsccssscccccsccsccccccccc" />
</svg>
