<?xml version="1.0" encoding="UTF-8" standalone="no"?>
<svg
   width="1098.0095"
   height="1797.7578"
   id="svg2034"
   version="1.1"
   xml:space="preserve"
   sodipodi:docname="1415A.svg"
   inkscape:version="1.4.2 (f4327f4, 2025-05-13)"
   xmlns:inkscape="http://www.inkscape.org/namespaces/inkscape"
   xmlns:sodipodi="http://sodipodi.sourceforge.net/DTD/sodipodi-0.dtd"
   xmlns="http://www.w3.org/2000/svg"
   xmlns:svg="http://www.w3.org/2000/svg"
   xmlns:rdf="http://www.w3.org/1999/02/22-rdf-syntax-ns#"
   xmlns:cc="http://creativecommons.org/ns#"
   xmlns:dc="http://purl.org/dc/elements/1.1/"><sodipodi:namedview
     id="namedview1"
     pagecolor="#ffffff"
     bordercolor="#666666"
     borderopacity="1.0"
     inkscape:showpageshadow="2"
     inkscape:pageopacity="0.0"
     inkscape:pagecheckerboard="0"
     inkscape:deskcolor="#d1d1d1"
     showguides="true"
     inkscape:zoom="0.59392385"
     inkscape:cx="366.20856"
     inkscape:cy="452.07816"
     inkscape:window-width="1680"
     inkscape:window-height="998"
     inkscape:window-x="-8"
     inkscape:window-y="-8"
     inkscape:window-maximized="1"
     inkscape:current-layer="svg2034"><sodipodi:guide
       position="503.35477,1326.7031"
       orientation="0,-1"
       id="guide1"
       inkscape:locked="false" /><sodipodi:guide
       position="168.95476,1213.9824"
       orientation="0,-1"
       id="guide2"
       inkscape:locked="false" /></sodipodi:namedview><metadata
     id="metadata2041"><rdf:RDF><cc:Work
         rdf:about=""><dc:format>image/svg+xml</dc:format><dc:type
           rdf:resource="http://purl.org/dc/dcmitype/StillImage" /></cc:Work></rdf:RDF></metadata><defs
     id="defs2039" /><path
     id="path2036"
     style="display:inline;fill:#000000;stroke:none;stroke-width:63.2475"
     d="m 1035.5485,0.04296766 c -3.6718,-0.1138729 -7.4454,-0.00168 -11.3164,0.3398438 L 711.36101,557.81641 c -17.20723,27.13182 -542.40625,25.95898 -542.40625,25.95898 42.43877,242.69657 51.75664,337.26417 53.28515,353.85938 71.95618,-5.46501 143.91109,13.20815 215.86719,56.01758 13.66256,-18.21682 28.46466,-27.32422 44.4043,-27.32422 15.93964,0 24.13848,8.65313 24.59375,25.95898 -27.80005,44.39039 -68.55648,87.48529 -82.66016,137.99219 l 168.625,88.0195 c 3.20536,1.4023 7.49347,-0.5208 12.09375,-4.2051 29.99874,-6.8956 161.555,-76.0995 165.2793,-50.7676 30.02265,204.2077 12.09474,408.063 8.07617,613.2129 l -0.41602,21.2188 236.47071,-0.07 c -85.73869,-321.9386 -74.44503,-406.6383 -203.03125,-675.1074 -15.52906,-32.4224 -142.9933,17.6234 -166.3418,24.3593 L 1098.0095,35.904296 C 1082.0699,12.791748 1061.2511,0.83987986 1035.5485,0.04296766 Z m -1.75,53.62500034 16.3946,6.832031 L 584.37468,1167.1758 c -8.33546,-5.412 -81.09379,-39.7893 -96.33984,-57.6036 0,-11.8411 8.37999,-19.9002 32.73242,-52.3886 25.6091,-34.1651 52.86461,-69.66907 21.85937,-115.45704 C 519.38973,907.41083 482.14201,888.22825 428.5446,925.33008 385.73527,899.8267 344.302,887.07422 276.90007,887.07422 265.05933,783.23875 251.85047,717.67849 237.27702,635.70313 h 487.7461 z M 812.34929,1205.5254 c 78.29735,165.1943 105.50133,367.8475 141.96289,547.3847 l -134.90039,3.2129 c 2.05112,-172.4229 17.90205,-375.5621 -7.0625,-550.5976 z"
     sodipodi:nodetypes="scccccsccccssccsccsccccssccccccccc" /><path
     d="m 209.34077,583.77539 c -22.66019,0 -98.87481,2e-5 -98.87481,-11.88131 0,-14.80483 30.86425,-36.85176 40.91569,-61.93477 10.05144,-25.08301 12.88917,-39.31932 12.88917,-60.65177 0,-46.55146 -22.63084,-107.54682 -92.931623,-107.54682 -35.63879,0 -73.4643501,32.29033 -71.24612011,60.5605 8.88233001,9.66755 15.11912011,10.42132 55.43750011,5.54297 -13.601087,29.04032 -31.221887,136.66543 -2.61931,199.60215 17.51098,36.31994 126.132333,24.85491 164.751803,24.46962 l 8.89826,-26.43243 z"
     style="display:inline;fill:#000000;stroke:none;stroke-width:63.2475"
     id="path1"
     sodipodi:nodetypes="csssscccccc" /></svg>
