<?xml version="1.0" encoding="UTF-8" standalone="no"?>
<svg
   width="959.35413"
   height="1000"
   version="1.1"
   id="svg1"
   sodipodi:docname="14151.svg"
   inkscape:version="1.4.3 (0d15f75, 2025-12-25)"
   xmlns:inkscape="http://www.inkscape.org/namespaces/inkscape"
   xmlns:sodipodi="http://sodipodi.sourceforge.net/DTD/sodipodi-0.dtd"
   xmlns="http://www.w3.org/2000/svg"
   xmlns:svg="http://www.w3.org/2000/svg">
  <defs
     id="defs1" />
  <sodipodi:namedview
     id="namedview1"
     pagecolor="#ffffff"
     bordercolor="#666666"
     borderopacity="1.0"
     inkscape:showpageshadow="2"
     inkscape:pageopacity="0.0"
     inkscape:pagecheckerboard="0"
     inkscape:deskcolor="#d1d1d1"
     inkscape:zoom="0.26693281"
     inkscape:cx="54.320786"
     inkscape:cy="874.75196"
     inkscape:window-width="1680"
     inkscape:window-height="998"
     inkscape:window-x="-8"
     inkscape:window-y="-8"
     inkscape:window-maximized="1"
     inkscape:current-layer="svg1" />
  <path
     style="fill:#000000;stroke:none;stroke-width:1"
     d="M 614.69933,673.16258 H 502.22717 v 138.08463 c 6.68151,3.71195 23.1997,10.02227 49.55456,18.93096 90.57164,30.80921 152.19005,30.06682 184.85524,-2.22717 32.29399,-32.29399 -8.35189,-83.89013 -121.93764,-154.78842 z m -273.3853,0 c 35.26355,52.33853 73.86785,90.38604 115.81292,114.14254 V 673.16258 Z m -99.66592,1.11359 H 0 v -43.98664 h 959.35412 v 42.87305 H 742.76169 c 67.92873,66.44395 60.31922,125.83519 -22.82851,178.17372 -77.951,49.74016 -150.51967,60.31922 -217.70601,31.73719 v 116.9265 H 457.12695 V 864.14253 C 373.97921,824.42464 302.15293,761.13586 241.64811,674.27617 Z"
     id="path1"
     sodipodi:nodetypes="cccccccccccccccccccccc" />
  <path
     style="fill:#000000;stroke:none;stroke-width:0.999997"
     d="M 696.46765,8.259627e-5 C 680.41509,-0.02752829 664.73368,6.9022105 660.15231,18.29292 c -6.32607,15.728085 -32.4351,68.685756 -93.07496,116.43662 -95.82791,54.74728 -200.73879,193.70915 -226.30627,264.18735 -2.91701,8.04087 -6.25696,17.0522 -9.28584,27.03518 -9.80402,-3.70156 -23.87904,-27.02646 -19.15078,-41.14605 3.26861,-9.76066 7.64046,-19.436 13.04067,-29.00538 5.39995,-9.5693 10.67227,-21.30483 15.7967,-35.2233 5.12441,-13.91879 6.67245,-28.07459 4.65499,-42.44948 -2.38293,-10.1629 -6.04457,-18.72026 -10.99048,-25.67803 -4.94588,-6.95752 -10.00697,-12.0278 -15.1581,-15.20854 -5.15087,-3.18077 -11.50247,-5.89661 -19.05688,-8.18403 -5.66558,-1.71557 -11.76379,-2.15772 -18.31746,-1.31079 -2.18456,0.28231 -4.42196,0.71018 -6.70518,1.27718 -9.13285,2.26824 -16.59998,5.58587 -22.36746,9.98217 -5.7675,4.39604 -9.35412,9.59735 -10.77201,15.59505 2.19857,4.76065 5.57799,7.93315 10.13341,9.51162 4.55567,1.57845 13.03087,3.5542 25.39237,5.93217 -10.80191,11.63079 -16.54816,25.73115 -17.20833,42.28138 -0.66021,16.54996 1.31206,44.48169 5.89855,83.80663 4.21671,30.18483 40.76279,47.63273 58.81752,52.34754 -2.94634,13.17877 -8.23018,36.68904 -8.42128,50.25877 2.39376,1.43604 64.33449,24.31558 82.31776,59.37288 8.35082,16.27926 22.73349,-18.04635 36.90107,-12.69462 29.13864,11.00744 -17.04442,55.09276 -17.27907,59.39543 -1.68832,30.95612 42.88721,37.3116 51.02621,42.57814 3.35143,0.95749 6.46543,1.44181 9.33793,1.44181 7.66027,0 11.93155,-8.32783 22.25778,-15.80347 72.6598,-52.60188 153.30278,-289.67412 165.75068,-331.80549 11.49042,-40.21648 13.48277,-92.26188 17.31287,-113.32774 C 702.50701,108.24219 733.8416,60.574052 735.66659,52.513144 744.17224,14.944719 719.92912,0.04042077 696.46765,8.259627e-5 Z M 702.23485,26.684647 c 18.42256,38.442221 -22.20062,53.096225 -51.66827,180.957173 -7.61916,124.42519 -82.67444,283.25801 -115.89593,335.62398 -16.27803,36.38627 -35.18117,61.2756 -56.72582,74.68074 -11.01159,1.43639 -21.80669,-1.64869 -27.55189,-16.49057 12.04483,-14.77883 21.49715,-45.51283 22.08883,-55.97113 2.51786,-44.50228 -41.16454,-23.14621 -46.12635,-27.29283 C 395.97357,492.80168 356.32148,475.6602 352.97005,464.1696 362.01186,384.92677 429.75532,294.85035 510.66691,209.15119 705.58102,72.043533 647.35147,52.204928 702.23485,26.684647 Z"
     id="path1335"
     sodipodi:nodetypes="sccscscccccsscccccscccscscssccsscccccssccc" />
</svg>
