<?xml version="1.0" encoding="UTF-8" standalone="no"?>
<svg
   width="1100"
   height="1000"
   version="1.1"
   id="svg1"
   sodipodi:docname="14168.svg"
   inkscape:version="1.4.2 (f4327f4, 2025-05-13)"
   xmlns:inkscape="http://www.inkscape.org/namespaces/inkscape"
   xmlns:sodipodi="http://sodipodi.sourceforge.net/DTD/sodipodi-0.dtd"
   xmlns="http://www.w3.org/2000/svg"
   xmlns:svg="http://www.w3.org/2000/svg">
  <defs
     id="defs1" />
  <sodipodi:namedview
     id="namedview1"
     pagecolor="#ffffff"
     bordercolor="#666666"
     borderopacity="1.0"
     inkscape:showpageshadow="2"
     inkscape:pageopacity="0.0"
     inkscape:pagecheckerboard="0"
     inkscape:deskcolor="#d1d1d1"
     inkscape:zoom="0.53386561"
     inkscape:cx="42.145438"
     inkscape:cy="858.83038"
     inkscape:window-width="1680"
     inkscape:window-height="998"
     inkscape:window-x="-8"
     inkscape:window-y="-8"
     inkscape:window-maximized="1"
     inkscape:current-layer="svg1"
     showguides="true">
    <sodipodi:guide
       position="575.89579,866.23319"
       orientation="0.9873097,-0.15880668"
       id="guide3"
       inkscape:locked="false" />
    <sodipodi:guide
       position="381.2583,296.29222"
       orientation="1,0"
       id="guide1"
       inkscape:locked="false" />
    <sodipodi:guide
       position="598.05748,296.29222"
       orientation="1,0"
       id="guide2"
       inkscape:locked="false" />
  </sodipodi:namedview>
  <circle
     style="fill:none;fill-rule:evenodd;stroke:#613583;stroke-width:20;stroke-linecap:round;stroke-miterlimit:2;stroke-dasharray:none"
     id="path2"
     cx="580.33307"
     cy="106.18008"
     r="96.180084" />
  <path
     style="fill:#f5c211;stroke:none;stroke-width:1px;stroke-linecap:butt;stroke-linejoin:miter;stroke-opacity:1"
     d="m 539.21333,203.77682 22.82149,-47.81754 34.71854,11.8868 -7.71867,47.77264 -27.67689,8.53157 z"
     id="path3"
     sodipodi:nodetypes="cccccc" />
  <path
     style="fill:#000000;stroke:none;stroke-width:0.999996"
     d="m 575.89648,133.76758 c -24.40998,15.41683 -38.22176,33.88497 -41.43359,55.4043 -10.59907,-11.24145 -24.89065,-18.30857 -42.87695,-21.19922 -17.9863,-2.56948 -38.2222,6.58397 -60.70508,27.46093 25.05235,3.21184 43.52049,9.7972 55.4043,19.75391 11.8838,9.63552 17.50564,16.86193 16.86328,21.67969 -9.95671,-6.74487 -21.19844,-10.92143 -33.72461,-12.52735 -11.56263,-1.9271 -24.57017,0.96346 -39.02344,8.67188 -14.1321,7.38723 -22.96503,20.87848 -26.49805,40.4707 -1.9271,17.34394 4.01332,31.95799 17.82422,43.8418 -120.12281,94.42809 -190.30057,225.79139 -210.53515,394.0918 16.0592,2.56946 31.95729,10.27764 47.69531,23.125 16.05919,12.84736 24.08984,32.11973 24.08984,57.81445 -38.86326,-15.09565 -79.01258,-14.6139 -120.44531,1.44531 -41.11155,16.38038 -70.178411,20.87553 -87.201172,13.48828 -17.022747,-7.7084 -29.066766,-12.6853 -36.132812,-14.93359 -10.27789,-2.56947 -14.452495,1.92566 -12.525391,13.48828 12.526173,35.00905 37.257195,53.31791 74.193355,54.92383 36.61497,1.60592 66.48413,-1.28464 89.60938,-8.67188 22.80407,-7.7084 50.26636,-6.90612 82.38477,2.40821 31.79721,9.31434 63.59341,9.15309 95.39062,-0.48243 31.47603,-9.63552 60.38361,1.44498 86.7207,33.24219 h 69.85742 c 16.05921,-19.27104 28.58498,-29.70853 37.57813,-31.31445 1.92711,17.9863 -6.10354,39.18376 -24.08984,63.59375 14.77446,38.22089 47.05437,65.04021 96.83789,80.45703 -1.92712,-20.87695 1.12469,-39.82686 9.15429,-56.84961 8.0296,-17.02275 14.13124,-44.32381 18.30664,-81.90234 10.27788,0.64237 28.26427,-2.72997 53.95899,-10.11719 25.69472,-7.06605 50.26451,-6.74356 73.71094,0.96484 23.12524,7.38724 52.99634,10.2778 89.61132,8.67188 36.29382,-1.60592 61.02483,-19.91478 74.19336,-54.92383 2.24827,-11.56262 -2.24876,-16.05775 -13.49023,-13.48828 -6.74481,2.24829 -18.62764,7.22519 -35.65039,14.93359 -17.02276,7.38725 -46.25085,2.8921 -87.6836,-13.48828 -41.43272,-16.05921 -74.51492,-19.27224 -99.24609,-9.63672 -24.40999,9.63552 -39.18332,14.13261 -44.32226,13.49024 2.24828,-16.0592 12.20402,-30.99378 29.86914,-44.80469 17.66512,-13.81092 34.20622,-19.75328 49.62304,-17.82617 26.33709,-132.64898 -2.57051,-260.8012 -86.7207,-384.45703 16.70156,-7.06605 26.49801,-19.2713 29.38867,-36.61524 3.53302,-19.27104 -0.48035,-34.5281 -12.04297,-45.76953 -11.56262,-11.24144 -23.12682,-17.82485 -34.68945,-19.75195 -12.52618,-1.28473 -24.40896,-0.32121 -35.65039,2.89062 0.64236,-4.81776 8.35053,-10.11711 23.125,-15.89843 14.45327,-5.78131 33.88494,-6.58555 58.29492,-2.41016 -14.13209,-26.0159 -30.51196,-40.30748 -49.14062,-42.87695 -17.98631,-2.89066 -33.56388,-0.48186 -46.73243,7.22656 3.53303,-21.51934 -4.17514,-42.7168 -23.125,-63.59375 z m -4.33593,26.01562 c 9.31433,13.16855 11.08013,36.77482 5.29883,70.82032 25.6947,-20.23459 45.60813,-29.22681 59.74023,-26.97852 13.16853,1.9271 22.48323,6.10171 27.94336,12.52539 -16.05921,-2.24829 -32.6003,0.64227 -49.62305,8.67188 -17.02274,8.0296 -28.26447,28.42478 -33.72461,61.18554 l -58.29492,-8.18945 c 5.46013,-32.76077 1.28552,-55.24423 -12.52539,-67.44922 -13.81091,-12.20499 -28.74743,-19.27017 -44.80664,-21.19726 7.70843,-4.81776 18.14787,-6.26304 31.31641,-4.33594 13.16854,1.28473 29.06663,15.25579 47.69531,41.91406 5.7813,-34.0455 14.77547,-56.36772 26.98047,-66.9668 z m -104.88477,83.11328 c 1.39013,-0.005 2.78818,0.0738 4.19336,0.23438 11.56262,1.28474 20.87731,6.10235 27.94336,14.45312 7.06604,8.35079 7.06604,19.59057 0,33.72266 -112.4144,136.82438 -182.5941,282.32192 -210.53711,436.49024 -17.34393,-20.87697 -33.24203,-32.27993 -47.69531,-34.20704 19.27104,-152.2412 91.37584,-280.5527 216.3164,-384.9375 -16.38038,-1.9271 -26.17682,-8.99423 -29.38867,-21.19922 -3.21183,-12.20499 0.48296,-22.96497 11.08203,-32.27929 8.99315,-8.15004 18.35507,-12.24221 28.08594,-12.27735 z m 167.51563,22.90625 c 2.81036,-0.10037 5.70092,0.0516 8.67187,0.45313 11.56263,1.9271 20.71608,8.83103 27.46094,20.71484 6.42367,11.8838 6.26244,23.12553 -0.48242,33.72461 -7.06605,10.92026 -19.2713,15.25611 -36.61524,13.00781 87.04086,133.61255 119.6413,259.03544 97.80078,376.26758 -14.45327,-1.9271 -33.56245,4.65826 -57.33007,19.75391 14.77446,-121.40755 -9.79728,-263.05101 -73.71289,-424.92773 -2.2483,-14.77446 1.4465,-25.21196 11.08203,-31.31446 6.98574,-4.81776 14.69392,-7.37858 23.125,-7.67969 z m -113.69922,27.43165 57.33008,8.1914 4.33593,15.89844 -69.85742,-10.59961 z m -16.38086,27.94335 81.41992,11.5625 c 57.49193,141.96332 75.4783,296.93485 53.95898,464.91407 -4.1754,0 -17.66468,-4.17656 -40.46875,-12.52735 -29.79382,-9.71536 -75.35233,12.68088 -108.40039,33.24414 -43.1308,-24.21379 -80.53381,-42.7467 -123.33398,-27.46093 -22.16169,8.0296 -39.82755,10.27716 -52.99609,6.74414 26.33709,-197.20696 89.61091,-356.03257 189.82031,-476.47657 z M 758.72852,802.4707 c 18.30768,0.6422 37.82075,4.65769 58.5371,12.04492 41.43276,14.4533 76.28077,17.82561 104.54493,10.11719 -26.97943,18.30748 -61.50693,21.52053 -103.58203,9.63672 -42.0751,-11.88379 -79.01138,-12.84732 -110.8086,-2.89062 -32.1184,10.27788 -63.9146,9.31436 -95.39062,-2.89063 -31.79722,-12.20499 -67.44945,-0.64274 -106.95508,34.6875 h -29.38867 c -40.148,-35.33024 -75.95952,-46.89249 -107.43555,-34.6875 -31.79721,12.20499 -63.59341,13.16851 -95.39062,2.89063 -32.11841,-9.9567 -69.05468,-8.99317 -110.8086,2.89062 -41.75391,11.88381 -76.122101,8.67076 -103.101561,-9.63672 27.943014,7.70842 62.470481,4.3361 103.582031,-10.11719 20.71637,-7.38723 40.26847,-11.4006 58.65625,-12.04296 18.38778,-0.64237 35.61267,2.08696 51.67188,8.18945 31.79721,12.20499 62.79112,13.16852 92.98242,2.89062 30.1913,-10.59906 71.78393,0.48143 124.77929,33.24219 52.0318,-32.11839 93.14464,-43.03764 123.33594,-32.75976 30.19129,9.9567 61.34449,8.83194 93.46289,-3.37305 15.89861,-6.1025 33.00091,-8.8336 51.3086,-8.19141 z m -169.34375,47.21485 c 14.77446,4.17538 27.94324,7.70895 39.50585,10.59961 -4.17538,38.86326 -12.04479,70.1777 -23.60742,93.94531 -14.77446,-5.13894 -26.01425,-16.7012 -33.72265,-34.6875 14.77446,-23.44643 20.71487,-46.73218 17.82422,-69.85742 z"
     id="path1"
     sodipodi:nodetypes="ccccccccccccccccccccccccccsccccccccccscccscccccccccccsccsccccscsccccscssccccccccscccccccccccccsccsccccccsccscccccsccccc" />
  <circle
     style="fill:none;fill-rule:evenodd;stroke:#613583;stroke-width:25;stroke-linecap:round;stroke-miterlimit:2;stroke-dasharray:none"
     id="path6"
     cx="489.6579"
     cy="698.85126"
     r="95.89959" />
</svg>
