<?xml version="1.0" encoding="UTF-8" standalone="no"?>
<svg
   width="1350"
   height="1000"
   version="1.1"
   id="svg1"
   sodipodi:docname="1416D.svg"
   inkscape:version="1.4.2 (f4327f4, 2025-05-13)"
   xmlns:inkscape="http://www.inkscape.org/namespaces/inkscape"
   xmlns:sodipodi="http://sodipodi.sourceforge.net/DTD/sodipodi-0.dtd"
   xmlns:xlink="http://www.w3.org/1999/xlink"
   xmlns="http://www.w3.org/2000/svg"
   xmlns:svg="http://www.w3.org/2000/svg">
  <defs
     id="defs1" />
  <sodipodi:namedview
     id="namedview1"
     pagecolor="#ffffff"
     bordercolor="#666666"
     borderopacity="1.0"
     inkscape:showpageshadow="2"
     inkscape:pageopacity="0.0"
     inkscape:pagecheckerboard="0"
     inkscape:deskcolor="#d1d1d1"
     inkscape:zoom="0.26693281"
     inkscape:cx="-466.40951"
     inkscape:cy="-54.320786"
     inkscape:window-width="1680"
     inkscape:window-height="998"
     inkscape:window-x="-8"
     inkscape:window-y="-8"
     inkscape:window-maximized="1"
     inkscape:current-layer="svg1"
     showguides="true">
    <sodipodi:guide
       position="670.2397,1000"
       orientation="1,0"
       id="guide1"
       inkscape:locked="false" />
  </sodipodi:namedview>
  <path
     id="path1"
     style="fill:#000000;stroke:none;stroke-width:1"
     d="M 419.45508,0 C 410.05069,0 401.17002,4.1795932 392.81055,12.539062 377.13658,5.2244928 363.02943,1.5683594 350.49023,1.5683594 c -20.89863,0 -37.0956,7.314308 -48.58984,21.9433596 -5.2247,9.404369 -3.1349,14.105469 6.26953,14.105469 40.75233,0 61.12891,15.673494 61.12891,47.021484 V 169.2793 c -5.22465,33.43783 -13.06046,64.26338 -23.50977,92.47656 0,-97.17869 -28.73576,-145.76758 -86.20703,-145.76758 -48.06688,0 -72.10156,19.3297 -72.10156,57.99219 0,39.70746 20.37658,59.5625 61.12891,59.5625 -17.76386,82.54959 -30.82613,167.71008 -39.18555,255.48437 -11.6772,-45.90975 -67.42645,-43.88672 -105.01563,-43.88672 -20.472006,0 -59.560544,3.44801 -59.560544,29.78126 0,17.74792 22.732443,30.21503 40.751953,28.21289 -15.673971,29.25805 -22.727539,73.9281 -21.160156,134.01171 1.567384,60.0836 1.567384,102.40501 0,126.96094 -1.567383,24.55592 3.396386,45.19324 14.890625,61.91211 L 40.146484,793.10352 C 31.78706,783.69936 22.120258,781.60914 11.148438,786.83398 0.17666202,792.05868 -2.697313,800.41787 2.5273438,811.91211 29.695598,886.1023 77.241525,923.19727 145.16211,923.19727 c 63.74086,0 109.71652,-5.22449 137.92969,-15.67383 75.23514,19.8535 158.83112,25.60165 250.78515,17.24218 14.629,0 21.94336,6.7909 21.94336,20.375 V 1000 H 670.24023 V 846.39453 c -21.9436,-29.25808 -60.08345,-41.79719 -114.41992,-37.61719 0,-95.08886 3.1347,-180.77268 9.4043,-257.05273 8.35947,-125.39186 26.64424,-228.3176 54.85742,-308.77734 h 50.1582 V 230.4082 h -48.58984 l 3.13477,-9.40429 h 45.45507 v -10.97266 h -42.32031 l 3.13477,-9.4043 h 39.18554 V 189.6543 h -37.61718 l 1.5664,-10.97071 h 36.05078 V 34.482422 h -3.13476 V 169.2793 h -9.4043 V 84.638672 c 0,-30.303063 -2.61326,-50.677637 -7.83789,-61.126953 5.22465,-8.359402 12.01748,-12.539063 20.37695,-12.539063 V 0 C 659.79091,0 650.9083,4.1795932 643.59375,12.539062 626.87485,5.2244928 612.76773,1.5683594 601.27344,1.5683594 c -20.89862,0 -37.09366,7.314308 -48.58789,21.9433596 -5.22466,9.404369 -3.13486,14.105469 6.26953,14.105469 40.75233,0 61.12695,15.673494 61.12695,47.021484 V 169.2793 c -5.22466,33.43783 -13.0604,64.26338 -23.50976,92.47656 0,-77.32498 -17.2419,-148.38024 -51.72461,-213.166016 C 511.40983,113.37562 494.69141,184.43088 494.69141,261.75586 483.19718,233.54268 474.83792,202.71713 469.61328,169.2793 V 84.638672 c 0,-31.34799 20.89801,-47.021484 62.69531,-47.021484 8.35941,0 9.92777,-4.70108 4.70313,-14.105469 C 526.56241,8.8826673 510.88696,1.5683594 489.98828,1.5683594 c -12.53915,0 -27.16782,3.6561539 -43.88672,10.9707026 C 438.78702,4.1795932 429.9044,0 419.45508,0 Z m 0,10.972656 c 8.35947,0 15.6757,4.179641 21.94531,12.539063 -6.26961,10.449316 -9.4043,30.82389 -9.4043,61.126953 V 169.2793 h -9.40625 V 34.482422 h -6.26953 V 169.2793 h -7.83593 V 84.638672 c 0,-30.303063 -3.13469,-50.677637 -9.4043,-61.126953 6.26958,-8.359402 13.06045,-12.539063 20.375,-12.539063 z m -68.96485,3.134766 c 32.39291,0 48.58985,23.509289 48.58985,70.53125 V 169.2793 h -6.26953 V 84.638672 c 0,-43.887146 -18.80826,-65.830078 -56.42578,-65.830078 v 4.703125 c 35.52768,0 53.29101,20.374574 53.29101,61.126953 V 169.2793 h -6.26953 V 84.638672 c 1.04492,-38.662492 -21.94484,-57.992188 -68.9668,-57.992188 8.35947,-8.35947 20.37681,-12.539062 36.05078,-12.539062 z m 139.49805,0 c 14.6291,0 26.64639,4.179592 36.05078,12.539062 -47.02196,0 -70.00976,19.329696 -68.96484,57.992188 V 169.2793 h -6.26953 V 84.638672 c 0,-40.752379 17.76328,-61.126953 53.29101,-61.126953 v -4.703125 c -38.66249,0 -57.99414,21.942932 -57.99414,65.830078 V 169.2793 h -4.70117 V 84.638672 c 0,-47.021961 16.19503,-70.53125 48.58789,-70.53125 z m 111.28516,0 c 32.39291,0 48.58984,23.509289 48.58984,70.53125 V 169.2793 h -6.26953 V 84.638672 c 0,-43.887146 -19.33165,-65.830078 -57.99414,-65.830078 v 4.703125 c 35.52773,0 53.29297,20.374574 53.29297,61.126953 V 169.2793 h -4.70313 V 84.638672 c 0,-38.662492 -22.9878,-57.992188 -68.96484,-57.992188 8.35947,-8.35947 20.37486,-12.539062 36.04883,-12.539062 z m -56.42578,86.207028 c 18.80874,30.30302 28.21289,77.847 28.21289,142.63282 v 89.34179 c -11.49424,37.61757 -20.89839,105.53811 -28.21289,203.76172 -7.3145,-98.22361 -16.71861,-166.14415 -28.21289,-203.76172 v -89.34179 c 0,-64.78582 9.4041,-112.3298 28.21289,-142.63282 z m -285.26563,34.48243 c 42.84222,0 64.26367,36.05007 64.26367,108.15039 -27.16825,169.279 -40.7539,330.72116 -40.7539,484.32617 v 86.20703 c -17.76385,1.04497 -38.14039,6.79089 -61.12891,17.24023 V 727.27344 c 6.26962,-212.12123 24.55636,-381.9226 54.85938,-509.4043 -48.06688,2.08989 -70.53328,-12.54068 -67.39844,-43.88867 1.04492,-26.12328 17.76529,-39.18359 50.1582,-39.18359 z m 123.82422,43.88671 h 73.66797 v 10.97071 h -75.23633 z m -3.13477,21.94336 h 78.36915 l 3.13476,9.4043 h -84.63867 z m -4.70312,20.37696 h 89.3418 l 3.13476,9.40429 h -97.17773 z m -6.26953,21.94336 h 100.31445 c 28.21318,80.45974 47.02139,183.38582 56.42578,308.77734 5.22464,76.28005 7.83789,162.48537 7.83789,258.61914 -16.71894,1.04489 -33.43931,5.74795 -50.1582,14.10742 -16.71894,8.35975 -39.96749,7.31458 -69.74805,-3.13476 -29.78056,-10.44661 -65.56988,-14.10589 -107.36718,-10.97071 0,-96.13377 2.61129,-182.34104 7.83593,-258.62109 10.44935,-125.39186 28.7361,-228.3176 54.85938,-308.77734 z M 85.697266,458.36523 c 7.249208,-0.19592 12.441367,1.66546 15.576174,5.58399 22.98852,-4.17978 43.10434,-3.13486 60.3457,3.13476 29.81815,10.84293 56.72868,71.07448 20.37695,130.87891 -50.31824,82.78151 -69.75,156.50232 -69.75,184.16797 0,21.94357 28.73577,32.91602 86.20704,32.91602 v 20.37695 c -74.19017,0 -111.545949,-17.24183 -112.068364,-51.72461 -0.522484,-34.48277 -0.785157,-79.93699 -0.785157,-136.36328 0,-56.42641 3.658155,-95.3504 10.972657,-116.77149 7.314554,-21.42109 15.673734,-34.22261 25.078124,-38.40234 9.40439,-4.17974 23.51157,-6.26953 42.32031,-6.26953 4.17974,0 4.70118,-2.08986 1.56641,-6.26953 -20.89867,-6.26962 -43.365,-3.13486 -67.398438,9.40429 -5.282983,2.1132 -39.183594,6.11572 -39.183594,-14.10546 0,-11.96093 17.530701,-16.30768 26.742188,-16.55665 z M 80.212891,461.5 c -4.62004,0.18478 -20.829884,3.59269 -13.421875,16.55664 4.179736,7.3145 17.241958,6.79106 39.185544,-1.56836 l 25.07813,-12.53906 -25.07813,9.4043 c -15.674011,5.22464 -25.862232,7.31443 -30.564451,6.26953 -4.702198,-1.04496 -7.315406,-3.13469 -7.83789,-6.26953 -0.50365,-3.02195 1.421903,-5.31552 5.773437,-6.88086 -2.280439,1.91355 -3.421875,4.20711 -3.421875,6.88086 1.044899,3.13484 3.134765,4.70312 6.269532,4.70312 3.134835,0 5.224631,-1.56828 6.269531,-4.70312 1.044968,-3.13483 0.523462,-5.22464 -1.566406,-6.26954 -1.582752,-0.79145 -3.165295,-1.28259 -4.748047,-1.4746 9.143079,-2.40536 10.908439,1.91284 10.234375,4.60937 -0.522484,2.08986 -1.830055,4.17966 -3.919922,6.26953 5.224634,-1.04492 7.314431,-4.17967 6.269531,-9.4043 -0.78369,-3.91848 -3.623359,-5.77989 -8.521484,-5.58398 z M 203.1543,601.88086 c -3.13484,10.44933 -4.70117,52.24736 -4.70117,125.39258 v 70.5332 c -28.21318,0 -47.0214,-3.39736 -56.42579,-10.18945 -20.91984,-15.10873 10.44981,-99.92515 36.04883,-141.06641 14.62905,-23.51095 22.98826,-38.40025 25.07813,-44.66992 z M 22.904297,804.07422 c 39.707412,45.97701 80.460513,68.9668 122.257813,68.9668 22.98852,0 43.36314,-3.65816 61.12695,-10.97266 17.76386,-7.3143 36.83477,-11.23072 57.21094,-11.75586 20.37617,-0.52248 63.47981,15.93524 129.31055,49.37305 h -23.51172 c -13.58412,0 -32.39234,-6.53018 -56.42578,-19.5918 -24.03344,-13.06203 -57.99371,-14.10659 -101.88086,-3.13477 -43.88714,10.97175 -86.73005,8.62124 -128.527346,-7.05273 41.797296,18.80867 78.631506,24.55473 110.501956,17.24023 31.8704,-7.3145 61.91183,-7.83607 90.125,-1.5664 -33.43783,9.40417 -79.41349,14.10547 -137.92969,14.10547 -57.471269,0 -99.269293,-30.82559 -125.392579,-92.47657 v -3.13281 z m 334.701173,28.17773 c 20.40068,0.7429 41.80044,7.28564 64.20117,19.62891 25.60087,14.10652 62.95851,21.16016 112.07031,21.16016 48.06683,0 72.09961,20.89803 72.09961,62.69531 v 47.02148 h -28.21289 v -47.02148 c 0,-24.03344 -13.58374,-36.04883 -40.75195,-36.04883 -25.07836,0 -87.77439,-22.46639 -188.08789,-67.39844 2.87356,-0.13061 5.76726,-0.14324 8.68164,-0.0371 z m 220.1582,0.0371 c 38.66249,0 65.82994,19.85314 81.50391,59.56055 v 90.9082 h -31.34766 v -47.02148 c 0,-54.33648 -31.34709,-81.50391 -94.04297,-81.50391 -44.93212,0 -67.39843,-2.08952 -67.39843,-6.26953 35.52772,-10.44913 72.6227,-15.67383 111.28515,-15.67383 z m -308.77734,6.26953 c 48.06688,0 89.60221,9.40408 124.60742,28.21289 35.00526,18.8088 59.82212,29.78153 74.45117,32.91602 -34.48276,0 -67.3981,-9.40611 -98.74609,-28.21484 -31.34794,-18.80881 -64.78478,-29.77889 -100.3125,-32.91407 z"
     sodipodi:nodetypes="scscssccssccsscssccscsccscccccccccccccccccccccccsccccscsscccccsscscsscsccccccscsssccsccsccccssccccsccsccssssccsccsccscscscccscscscccccsccccccccccccccccccccccccscsssccsssssccsssscccssccssscscsscscssccscccscscscscccssssccsscsscccsscscscscs" />
  <use
     x="0"
     y="0"
     xlink:href="#path1"
     id="use1"
     transform="matrix(-1,0,0,1,1340.4805,0)" />
</svg>
