<?xml version="1.0" encoding="UTF-8" standalone="no"?>
<svg
   width="1100"
   height="1000"
   version="1.1"
   id="svg1"
   sodipodi:docname="1418E.svg"
   inkscape:version="1.4.3 (0d15f75, 2025-12-25)"
   xmlns:inkscape="http://www.inkscape.org/namespaces/inkscape"
   xmlns:sodipodi="http://sodipodi.sourceforge.net/DTD/sodipodi-0.dtd"
   xmlns:xlink="http://www.w3.org/1999/xlink"
   xmlns="http://www.w3.org/2000/svg"
   xmlns:svg="http://www.w3.org/2000/svg">
  <defs
     id="defs1" />
  <sodipodi:namedview
     id="namedview1"
     pagecolor="#ffffff"
     bordercolor="#666666"
     borderopacity="1.0"
     inkscape:showpageshadow="2"
     inkscape:pageopacity="0.0"
     inkscape:pagecheckerboard="0"
     inkscape:deskcolor="#d1d1d1"
     inkscape:zoom="0.26693281"
     inkscape:cx="957.16971"
     inkscape:cy="125.49975"
     inkscape:window-width="1680"
     inkscape:window-height="998"
     inkscape:window-x="-8"
     inkscape:window-y="-8"
     inkscape:window-maximized="1"
     inkscape:current-layer="svg1"
     showguides="true">
    <sodipodi:guide
       position="0,1000"
       orientation="0,-1"
       id="guide1"
       inkscape:locked="false" />
    <sodipodi:guide
       position="0,0"
       orientation="0,-1"
       id="guide2"
       inkscape:locked="false" />
    <sodipodi:guide
       position="1907.2734,943.2832"
       orientation="1,0"
       id="guide12"
       inkscape:locked="false" />
    <sodipodi:guide
       position="540.75195,363.96719"
       orientation="1,0"
       id="guide13"
       inkscape:locked="false" />
    <sodipodi:guide
       position="1398.3728,268.25082"
       orientation="1,0"
       id="guide14"
       inkscape:locked="false" />
    <sodipodi:guide
       position="1453.4208,485.10658"
       orientation="1,0"
       id="guide15"
       inkscape:locked="false" />
    <sodipodi:guide
       position="57.887787,759.44144"
       orientation="1,0"
       id="guide18"
       inkscape:locked="false" />
    <sodipodi:guide
       position="0,1000"
       orientation="1,0"
       id="guide27"
       inkscape:locked="false" />
    <sodipodi:guide
       position="0,980"
       orientation="0,1"
       id="guide28"
       inkscape:locked="false"
       inkscape:label=""
       inkscape:color="rgb(0,134,229)" />
    <sodipodi:guide
       position="345.81021,261.65391"
       orientation="1,0"
       id="guide29"
       inkscape:locked="false" />
  </sodipodi:namedview>
  <path
     style="fill:#000000;stroke:none;stroke-width:1"
     d="m 937.6362,127.33325 q 11.6769,0 15.0131,16.68122 l -1.1121,3.33624 q -4.4483,-1.11208 -16.6812,-0.55604 -11.6768,0.55604 -19.4614,-6.11645 -11.6769,1.11208 -21.1295,3.33625 v -6.11645 q 21.1295,-1.11208 27.802,-5.5604 7.2285,-5.00437 15.5691,-5.00437 z m 92.3027,-82.850017 q -9.4527,-7.228526 -4.4484,-16.125172 H 912.6144 q 5.0044,8.896646 -5.5604,16.125172 62.2765,-16.125172 122.8849,0 z m 12.7889,-26.68994 v 3.336243 q -15.0131,16.125171 8.3406,36.142626 -12.7889,-20.017455 8.3406,-37.254707 V 9.452687 H 878.6959 v 10.564768 q 20.0175,17.237252 8.3406,37.254707 23.3537,-20.017455 8.3406,-36.142626 V 17.793293 Z M 883.7003,133.4497 q 0,26.68994 21.6856,59.49632 21.6855,32.80639 33.9184,42.25907 12.2329,9.45269 30.0262,9.45269 17.2373,0 29.4702,-9.45269 12.2328,-9.45268 33.9184,-42.25907 21.6855,-32.80638 21.6855,-59.49632 0,-41.146992 -85.0741,-41.146992 -85.6302,0 -85.6302,41.146992 z m 85.6302,-55.048002 q 45.5953,0 71.7292,12.788929 26.1339,12.788933 26.1339,44.483233 0,31.6943 -16.1252,53.37988 -16.6812,21.68558 -16.6812,42.81511 0,20.01746 17.2372,30.58222 16.6812,10.00873 33.3625,0.55604 16.1251,-10.00872 15.0131,-32.80638 -1.1121,-22.79766 -24.4658,-22.79766 -17.7933,10.56477 -18.3494,19.46142 -0.556,9.45268 10.0088,9.45268 10.5647,0 10.5647,-8.3406 0,-4.44833 5.0044,-4.44833 4.4483,0 4.4483,4.44833 0,15.56913 -9.4527,20.57349 -9.4527,5.56041 -21.6855,0 -12.2329,-5.00436 -12.2329,-25.57786 0,-20.57349 23.3537,-30.02618 20.0174,-40.59095 11.6768,-81.1819 -7.7845,-40.590948 -58.9402,-50.043634 -50.5997,-10.008728 -101.7554,0 -51.1557,9.452686 -58.9403,50.043634 -8.3406,40.59095 11.6769,81.1819 22.2416,9.45269 22.7976,30.02618 0.5561,20.5735 -11.1208,25.57786 -11.6768,5.56041 -22.2416,0 -10.5648,-5.00436 -10.5648,-20.57349 0,-4.44833 5.5604,-4.44833 5.0044,0 5.0044,4.44833 0,8.3406 10.5648,8.3406 10.5647,0 10.0087,-9.45268 -0.556,-8.89665 -18.3493,-19.46142 -23.3537,0 -24.4658,22.79766 -1.1121,22.79766 15.5691,32.80638 17.2373,9.45269 33.3624,-0.55604 16.6812,-10.56476 16.6812,-30.58222 0,-21.12953 -16.6812,-42.81511 -16.1251,-21.68558 -16.1251,-53.37988 0,-31.6943 25.5778,-44.483233 25.5779,-12.788929 72.8413,-12.788929 z m 0,123.997012 q 4.4483,0 6.6725,-6.67249 2.2242,5.56041 17.7933,5.56041 3.3362,0 3.3362,4.44832 0,8.34061 -5.5604,8.34061 -12.2329,11.67685 -22.2416,11.67685 -10.5648,0 -23.9097,-11.67685 -5.5604,0 -5.5604,-8.34061 0,-4.44832 4.4483,-4.44832 15.5691,0 17.7933,-5.56041 1.1121,6.67249 7.2285,6.67249 z m -7.2285,-12.78893 q 7.2285,1.11208 12.7889,0 -1.1121,-7.22853 2.2242,-8.89665 3.8923,-1.66812 8.3406,0.55604 0,-4.44832 -7.2285,-12.78893 -6.6725,-8.3406 -6.6725,-24.46577 0,-17.7933 2.7802,-25.02182 2.7802,-7.78457 14.457,-11.67685 11.6769,-4.44832 27.802,6.11644 15.5691,10.56477 27.246,10.56477 v 8.34061 q -8.3406,0 -25.0218,-9.45269 -17.2372,-9.45269 -28.9141,-5.5604 -11.6768,3.33624 -11.6768,22.24161 0,19.46142 7.2285,27.24598 7.2285,7.78457 7.2285,17.23726 0,5.5604 -9.4527,7.22852 -9.4527,1.66812 -13.901,1.66812 -5.0043,0 -14.457,-1.66812 -9.4527,-1.66812 -9.4527,-7.22852 0,-9.45269 7.2285,-17.23726 7.2285,-7.78456 7.2285,-27.24598 0,-18.90537 -11.6768,-22.24161 -11.6769,-3.89229 -28.9141,5.5604 -16.6812,9.45269 -25.0218,9.45269 v -8.34061 q 11.6768,0 27.2459,-10.56477 16.1252,-10.56476 27.8021,-6.11644 11.6768,3.89228 14.457,11.67685 2.7802,7.22852 2.7802,25.02182 0,16.12517 -6.6725,24.46577 -7.2285,8.34061 -7.2285,12.78893 3.3362,-2.22416 7.7846,-0.55604 3.8923,1.66812 1.6681,8.89665 z m 7.2285,18.90537 q 7.7846,0 23.3537,-3.89228 -3.8923,1.11208 -8.3406,1.11208 -6.1164,0 -8.3406,-3.33624 -3.3362,3.33624 -6.6725,3.33624 -5.0043,0 -7.2285,-3.33624 -3.3363,3.33624 -8.3406,3.33624 -4.4483,0 -8.3406,-1.11208 15.5691,3.89228 23.9097,3.89228 z m 0,9.45269 q 8.8967,0 20.5735,-8.34061 h 3.8923 q 0,0 0,-2.22416 -16.6812,7.78457 -24.4658,7.78457 -9.4527,0 -25.0218,-7.78457 0,2.22416 0,2.22416 h 3.8923 q 11.6768,8.34061 21.1295,8.34061 z m 31.1383,-90.63459 q 8.3406,0 15.5691,5.00437 6.6725,4.44832 27.802,5.5604 v 6.11645 q -9.4527,-2.22417 -21.1295,-3.33625 -9.4527,6.67249 -21.1295,6.11645 -11.6769,-0.55604 -15.0131,0.55604 l -1.1121,-3.33624 q 3.3362,-16.68122 15.0131,-16.68122 z m 1.1121,239.09738 q 0,-13.90101 -8.8967,-23.90974 -9.4527,-10.00872 -23.3537,-10.00872 -13.345,0 -23.3537,10.00872 -9.4527,10.00873 -9.4527,23.90974 0,13.90101 9.4527,23.3537 10.0087,9.45268 23.3537,9.45268 13.901,0 23.3537,-9.45268 8.8967,-9.45269 8.8967,-23.3537 z m 0,182.38125 q 0,-13.90101 -8.8967,-23.90973 -9.4527,-10.00873 -23.3537,-10.00873 -13.345,0 -23.3537,10.00873 -9.4527,10.00872 -9.4527,23.90973 0,12.78893 9.4527,22.79766 10.0087,10.00873 23.3537,10.00873 13.901,0 23.3537,-10.00873 8.8967,-10.00873 8.8967,-22.79766 z m 1.6681,181.82522 q 0,-13.34497 -10.0087,-22.79766 -10.0088,-10.00873 -23.9098,-10.00873 -13.345,0 -23.3537,10.00873 -9.4527,9.45269 -9.4527,22.79766 0,13.90101 8.8967,24.46578 7.2285,5.5604 13.901,7.22852 6.1164,2.22416 10.0087,2.22416 7.7846,0 13.901,-2.7802 5.5604,-3.33624 10.5648,-6.67248 9.4527,-10.56477 9.4527,-24.46578 z M 971.5547,311.38263 v -48.93156 h -5.0044 v 48.93156 z m 0,181.26917 v -70.06109 h -5.0044 v 70.06109 z m -5.0044,111.20809 v 71.72921 h 5.0044 v -71.72921 z m 259.1148,376.99539 q 107.3158,0 182.9373,-64.50068 75.6215,-63.94465 75.6215,-129.55742 h -6.1165 q 0,62.83257 -73.3973,125.66513 -73.9534,62.83257 -179.045,62.83257 -106.7598,0 -180.7131,-62.83257 -73.3973,-62.83256 -73.3973,-125.66513 h -5.0044 q 0,65.61277 75.0654,129.55742 75.0655,64.50068 184.0494,64.50068 z m 252.4423,-376.99539 v 71.72921 h 6.1165 v -71.72921 z m 6.1165,-111.20809 v -70.06109 h -6.1165 v 70.06109 z m 0,-181.26917 v -48.93156 h -6.1165 v 48.93156 z m -36.6987,419.25447 q 0,13.90101 9.4527,24.46578 5.0044,3.33624 10.5648,6.67248 6.1164,2.7802 12.7889,2.7802 5.0044,0 10.5648,-2.22416 6.1164,-1.66812 13.3449,-7.22852 8.8967,-10.56477 8.8967,-24.46578 0,-13.34497 -10.0088,-22.79766 -9.4526,-10.00873 -22.7976,-10.00873 -13.901,0 -23.3537,10.00873 -9.4527,9.45269 -9.4527,22.79766 z m 0,-181.82522 q 0,12.78893 10.0087,22.79766 10.0088,10.00873 22.7977,10.00873 14.457,0 24.4658,-10.00873 9.4527,-10.00873 9.4527,-22.79766 0,-13.90101 -9.4527,-23.90973 -10.0088,-10.00873 -24.4658,-10.00873 -12.7889,0 -22.7977,10.00873 -10.0087,10.00872 -10.0087,23.90973 z m 0,-182.38125 q 0,13.90101 10.0087,23.3537 10.0088,9.45268 22.7977,9.45268 14.457,0 24.4658,-9.45268 9.4527,-9.45269 9.4527,-23.3537 0,-13.90101 -9.4527,-23.90974 -10.0088,-10.00872 -24.4658,-10.00872 -12.7889,0 -22.7977,10.00872 -10.0087,10.00873 -10.0087,23.90974 z m 2.7802,-239.09738 q 11.6769,0 13.901,16.68122 v 3.33624 q -4.4483,-1.11208 -16.6812,-0.55604 -11.6768,0.55604 -19.4614,-6.11645 -12.7889,1.11208 -21.1295,3.33625 v -6.11645 q 20.0174,-1.11208 27.2459,-5.5604 7.7846,-5.00437 16.1252,-5.00437 z m 30.0262,90.63459 q 9.4527,0 22.2416,-8.34061 h 2.7802 q 1.1121,0 1.1121,-2.22416 -16.6812,7.78457 -26.1339,7.78457 -7.7846,0 -24.4658,-7.78457 0,2.22416 1.1121,2.22416 h 2.7802 q 12.7889,8.34061 20.5735,8.34061 z m 0,-9.45269 q 9.4527,0 25.0218,-3.89228 -5.0044,1.11208 -9.4527,1.11208 -5.0043,0 -7.2285,-3.33624 -3.3362,3.33624 -8.3406,3.33624 -3.3362,0 -6.6725,-3.33624 -2.2242,3.33624 -7.2285,3.33624 -4.4483,0 -8.3406,-1.11208 14.457,3.89228 22.2416,3.89228 z m 7.2285,-18.90537 q -1.1121,-7.22853 2.2242,-8.89665 3.8923,-1.66812 8.3406,0.55604 0,-4.44832 -7.2285,-12.78893 -6.6725,-8.3406 -6.6725,-24.46577 0,-17.7933 2.2241,-25.02182 2.2242,-7.78457 13.901,-11.67685 11.6769,-4.44832 28.3581,6.11644 16.1252,10.56477 27.802,10.56477 v 8.34061 q -7.7845,0 -25.5778,-9.45269 -17.7933,-9.45269 -28.9141,-5.5604 -11.1208,3.33624 -11.1208,22.24161 0,19.46142 7.2285,27.24598 7.2285,7.78457 7.2285,17.23726 0,5.5604 -9.4527,7.22852 -9.4527,1.66812 -13.901,1.66812 -5.0043,0 -14.457,-1.66812 -9.4527,-1.66812 -9.4527,-7.22852 0,-9.45269 6.6725,-17.23726 6.6724,-7.78456 6.6724,-27.24598 0,-18.90537 -11.6768,-22.24161 -12.2329,-3.89229 -28.9141,5.5604 -17.2373,9.45269 -23.9097,9.45269 v -8.34061 q 11.6768,0 27.2459,-10.56477 16.1252,-10.56476 27.246,-6.11644 11.1208,3.89228 13.901,11.67685 2.7802,7.22852 2.7802,25.02182 0,16.12517 -6.6725,24.46577 -7.2285,8.34061 -7.2285,12.78893 4.4483,-2.22416 8.8967,-0.55604 3.8923,1.66812 1.6681,8.89665 5.5604,1.11208 12.7889,0 z m -7.2285,12.78893 q 6.1164,0 8.3406,-6.67249 1.1121,5.56041 17.7933,5.56041 3.3362,0 3.3362,4.44832 0,8.34061 -5.5604,8.34061 -12.2329,11.67685 -23.9097,11.67685 -10.5648,0 -22.2416,-11.67685 -5.5604,0 -5.5604,-8.34061 0,-4.44832 3.3362,-4.44832 16.6812,0 17.7933,-5.56041 2.2242,6.67249 6.6725,6.67249 z m 0,-123.997012 q 47.2634,0 72.8413,12.788929 25.5778,12.788933 25.5778,44.483233 0,31.6943 -15.5691,53.37988 -16.1252,21.68558 -16.1252,42.81511 0,20.01746 16.1252,30.58222 15.5691,10.00873 33.3624,0.55604 17.2373,-10.00872 16.1252,-32.80638 -1.1121,-22.79766 -25.5778,-22.79766 -16.1252,10.56477 -17.2373,19.46142 -0.556,9.45268 8.8966,9.45268 11.6769,0 11.6769,-8.3406 0,-4.44833 5.0044,-4.44833 4.4483,0 4.4483,4.44833 0,15.56913 -10.5648,20.57349 -10.5648,5.56041 -22.2416,0 -11.6769,-5.00436 -11.1208,-25.57786 0.556,-20.57349 22.7976,-30.02618 21.1296,-40.59095 12.2329,-81.1819 -8.3406,-40.590948 -58.9402,-50.043634 -50.0437,-10.008728 -101.1994,0 -51.1557,9.452686 -58.9403,50.043634 -8.3406,40.59095 11.6769,81.1819 22.2416,9.45269 22.7976,30.02618 0.5561,20.5735 -11.6768,25.57786 -12.2329,5.56041 -22.2416,0 -10.0088,-5.00436 -10.0088,-20.57349 0,-4.44833 4.4483,-4.44833 6.1165,0 6.1165,4.44833 0,8.3406 9.4527,8.3406 10.5647,0 10.0087,-9.45268 -1.1121,-8.89665 -17.2372,-19.46142 -23.3537,0 -25.0219,22.79766 -1.6681,22.79766 15.0131,32.80638 17.2373,9.45269 33.3625,-0.55604 16.6812,-10.56476 16.6812,-30.58222 0,-21.12953 -16.6812,-42.81511 -16.1252,-21.68558 -16.1252,-53.37988 0,-31.6943 26.1339,-44.483233 26.1339,-12.788929 71.7292,-12.788929 z m 85.6302,55.048002 q 0,-41.146992 -85.6302,-41.146992 -83.9621,0 -83.9621,41.146992 0,26.68994 21.1295,59.49632 21.1296,32.80639 33.9185,42.25907 12.7889,9.45269 28.9141,9.45269 18.9054,0 31.1383,-9.45269 12.2328,-9.45268 33.3624,-42.25907 21.1295,-32.80638 21.1295,-59.49632 z M 1555.397,17.793293 v 3.336243 q -15.013,16.125171 7.2286,36.142626 -11.6769,-20.017455 9.4527,-37.254707 V 9.452687 H 1390.253 v 10.564768 q 21.1296,17.237252 9.4527,37.254707 22.2416,-20.017455 7.2286,-36.142626 v -3.336243 z m -135.6738,26.68994 q 60.6084,-16.125172 122.8849,0 -9.4527,-7.228526 -6.1164,-16.125172 h -111.2081 q 5.0044,8.896646 -5.5604,16.125172 z m 92.3027,82.850017 q 8.3406,0 16.1252,5.00437 7.2285,4.44832 27.2459,5.5604 v 6.11645 q -8.3406,-2.22417 -21.1295,-3.33625 -7.7846,6.67249 -20.0174,6.11645 -11.6769,-0.55604 -16.1252,0.55604 v -3.33624 q 2.2241,-16.68122 13.901,-16.68122 z m -52.2678,655.57165 q -7.2285,-1.11208 -18.9054,-12.78893 -15.5691,-15.01309 -15.5691,-26.68994 h -401.4611 q 0,11.67685 -15.0131,26.68994 -11.6769,11.67685 -17.2373,12.78893 0,58.94028 67.8369,116.21244 67.8369,57.27217 166.2561,57.27217 97.8631,0 165.7,-57.27217 68.393,-57.27216 68.393,-116.21244 z m 0,-468.18603 v -57.27216 q -8.3406,-2.22416 -28.3581,-18.90537 0,27.24598 -24.4657,40.03491 -24.4658,12.78892 -51.1558,0 -26.1339,-12.78893 -24.4657,-48.93156 1.6681,-36.69867 33.3624,-37.81075 -20.0175,-37.25471 -14.4571,-73.39733 5.0044,-36.69867 26.69,-58.940286 21.6856,-22.241617 -2.7802,-38.366788 V 0 h 214.0755 v 21.129536 q -24.4657,16.125171 -2.7802,38.366788 21.6856,22.241616 26.69,58.940286 5.5604,36.14262 -13.345,73.39733 30.5822,1.11208 32.2503,37.81075 1.6682,36.14263 -25.0218,48.93156 -27.246,12.78892 -51.1557,0 -23.9097,-12.78893 -23.9097,-40.03491 -18.9054,16.68121 -28.3581,18.90537 v 57.27216 q 5.0044,0 17.7933,12.78893 16.1252,16.68121 16.1252,38.92283 0,23.3537 -16.1252,39.47887 -11.6768,10.56477 -17.7933,12.23289 v 79.51378 q 6.1165,0 17.7933,11.67685 16.1252,16.12517 16.1252,39.47886 0,23.3537 -16.1252,40.03491 -11.6768,11.67685 -17.7933,11.67685 v 79.51378 q 5.0044,0 16.6812,11.67685 16.1252,16.68121 16.1252,40.03491 0,23.3537 -16.1252,38.36679 -10.5647,11.67685 -16.6812,12.78893 0,75.06545 -80.6259,145.68258 -80.6258,71.17318 -196.2822,71.17318 -117.3245,0 -197.9504,-71.17318 -80.6258,-70.61713 -80.6258,-145.68258 -5.0044,-1.11208 -16.6812,-12.78893 -16.1252,-15.01309 -16.1252,-38.36679 0,-23.3537 16.1252,-40.03491 12.7889,-11.67685 16.6812,-11.67685 v -79.51378 q -5.0044,0 -16.6812,-11.67685 -16.1252,-16.68121 -16.1252,-40.03491 0,-23.35369 16.1252,-39.47886 11.6768,-11.67685 16.6812,-11.67685 v -79.51378 q -6.1164,-1.66812 -16.6812,-12.23289 -16.1252,-16.12517 -16.1252,-39.47887 0,-22.24162 16.1252,-38.92283 11.6768,-12.78893 16.6812,-12.78893 v -57.27216 q -9.4527,-2.22416 -27.246,-18.90537 0,27.24598 -24.4658,40.03491 -24.4657,12.78892 -51.7117,0 -26.69,-12.78893 -25.0218,-48.93156 1.6681,-36.69867 33.3624,-37.81075 -20.0175,-37.25471 -14.4571,-73.39733 5.0044,-36.69867 26.69,-58.940286 21.6856,-22.241617 -1.6681,-38.366788 V 0 h 212.9634 v 21.129536 q -23.3537,16.125171 -1.6681,38.366788 21.6855,22.241616 26.6899,58.940286 5.5604,36.14262 -14.4571,73.39733 30.5823,1.11208 32.2504,37.81075 1.6681,36.14263 -24.4658,48.93156 -26.6899,12.78892 -51.1557,0 -24.4657,-12.78893 -24.4657,-40.03491 -20.0175,16.68121 -26.69,18.90537 v 57.27216 q 4.4484,0 17.2373,12.78893 13.901,14.45705 13.901,26.1339 h 404.2413 q 0,-9.45269 15.0131,-26.1339 11.6769,-12.78893 17.7933,-12.78893 z m 0,103.42352 q -6.1164,0 -17.7933,-12.23289 -15.0131,-16.12517 -15.0131,-26.68994 h -404.2413 q 1.1121,10.56477 -13.901,26.68994 -11.6769,12.23289 -17.2373,12.23289 v 79.51378 q 5.5604,0 17.2373,11.67685 13.901,16.12517 13.901,26.68994 h 404.2413 q 0,-10.56477 15.0131,-26.68994 11.6769,-11.67685 17.7933,-11.67685 z m 0,182.38125 q -6.1164,0 -17.7933,-11.67685 -15.0131,-16.68121 -15.0131,-27.24598 h -404.2413 q 1.1121,10.56477 -13.901,27.24598 -11.6769,11.67685 -17.2373,11.67685 v 79.51378 q 5.5604,0 17.2373,11.67685 15.0131,16.68121 15.0131,25.57786 h 401.4611 q 1.6681,-8.89665 15.5691,-25.57786 11.6769,-11.67685 18.9054,-11.67685 z"
     id="path1" />
  <path
     id="path2"
     style="fill:#000000;stroke:none;stroke-width:0.999998"
     d="m 448.49781,753.42854 v 18.28183 c 13.47129,9.30157 13.95228,20.36756 1.44324,33.19729 -12.50895,12.82975 -20.20641,29.83012 -23.09306,50.99919 -3.20749,20.84832 0.96216,42.01665 12.50895,63.50646 -18.28234,0.64149 -27.90542,11.54659 -28.86767,32.71566 -0.96224,20.84833 6.25586,34.96111 21.65155,42.33821 15.71644,7.37712 30.63036,7.37712 44.74306,0 14.11269,-7.3771 21.16822,-18.92408 21.16822,-34.6405 18.52548,17.3676 31.68242,20.68831 42.69985,20.68831 v -15.39541 c -10.21127,-0.0212 -18.83066,-2.74795 -25.85953,-8.17933 -7.05631,-5.45264 -16.84023,-17.64149 -29.34927,-36.56536 -12.50895,-18.92386 -18.76343,-36.08344 -18.76351,-51.47912 0,-23.71579 24.65787,-35.58288 73.97231,-35.60209 v -12.02734 c -27.20474,0.0108 -48.17395,3.69949 -62.90652,11.06576 -14.75419,7.37711 -22.12986,20.20614 -22.12986,38.48852 0,18.28237 4.65065,33.6789 13.95219,46.1879 9.6223,12.509 14.43215,24.85706 14.43215,37.0453 0,11.54676 -4.80985,20.36705 -14.43215,26.46117 -9.30154,5.77338 -18.92462,5.93428 -28.86758,0.48163 -9.62229,-5.77338 -14.112,-15.23553 -13.47059,-28.38601 0.6415,-13.15049 7.69702,-19.72674 21.16822,-19.72674 10.2638,6.09413 15.55628,11.70841 15.87712,16.84031 0.32066,5.45263 -2.56521,8.17765 -8.65936,8.17765 -6.09406,0 -9.1426,-2.40492 -9.1426,-7.21607 0,-2.56595 -1.44289,-3.8497 -4.32963,-3.8497 -3.20741,0 -4.81124,1.28375 -4.81124,3.8497 0,8.98081 3.04673,14.9152 9.14087,17.80189 6.09415,3.20743 12.50947,3.20743 19.24511,0 6.73564,-2.88669 9.94331,-10.26402 9.62256,-22.13153 -0.32075,-11.8675 -6.89528,-20.52858 -19.72507,-25.98123 -11.5467,-23.41427 -14.9153,-46.82831 -10.10415,-70.24259 4.4904,-23.41427 21.48914,-37.84715 50.99753,-43.29979 14.75419,-2.88669 29.46901,-4.32964 44.143,-4.32964 v -17.56191 c -17.79988,-0.0211 -35.72116,2.30432 -53.76392,6.97609 6.09415,-4.16966 7.69798,-8.82029 4.81133,-13.95219 h 48.95259 v -9.14091 h -63.86807 v 2.88642 c 8.66005,9.30157 6.25517,19.72568 -7.21612,31.27245 6.73564,-11.54677 4.32903,-22.29098 -7.21776,-32.23402 v -9.14092 h 78.30195 v -8.17934 z m 69.76269,91.74209 c -5.53286,-0.30071 -11.78742,1.8343 -18.76343,6.40489 -8.98097,6.09412 -16.8391,9.14091 -23.57475,9.14091 v 7.21776 c 4.81115,0 12.02753,-2.72669 21.64983,-8.17933 9.94313,-5.45265 18.28234,-7.05649 25.01798,-4.81128 6.73556,1.92446 10.10251,8.33983 10.10251,19.2451 0,11.22603 -2.08482,19.08433 -6.25447,23.57474 -4.16974,4.49041 -6.25448,9.46113 -6.25448,14.91377 0,3.20743 2.72667,5.29226 8.17932,6.25449 5.37754,0.94898 9.50713,1.43015 12.38894,1.44321 v -2.40648 c -1.91385,0.0146 -3.95862,-0.14521 -6.13447,-0.47994 1.28291,-4.16967 0.80201,-6.73548 -1.44324,-7.69771 -2.5659,-0.96223 -4.81166,-0.80133 -6.73607,0.48164 0,-2.56595 2.08482,-6.25461 6.25447,-11.06576 3.84891,-4.81115 5.77452,-11.86839 5.77452,-21.16996 0,-10.26379 -0.80278,-17.48023 -2.40643,-21.64989 -1.60375,-4.49041 -5.7734,-7.85729 -12.50904,-10.10249 -1.68387,-0.64149 -3.44691,-1.01344 -5.29119,-1.11367 z m -4.81124,18.43392 c -4.81132,0 -9.30267,1.44294 -13.47232,4.32964 -3.8489,2.56595 -11.86633,4.16979 -24.05462,4.81128 v 5.29121 c 5.45265,-1.28297 11.54619,-2.24494 18.28183,-2.88642 4.49031,3.84892 10.10295,5.61366 16.83859,5.29291 7.05639,-0.32074 11.86788,-0.15985 14.43379,0.48163 l 0.96164,-2.88812 c -1.92449,-9.6223 -6.25344,-14.43213 -12.98891,-14.43213 z m 21.16822,59.17682 c -1.28299,3.20744 -6.41463,4.81128 -15.39543,4.81128 -2.56599,0 -3.84968,1.28206 -3.84968,3.84801 0,4.81114 1.60383,7.21775 4.81132,7.21775 7.64728,6.69146 14.50362,10.05864 20.56826,10.1025 v -6.73443 c -5.42202,-0.035 -11.47558,-2.44186 -18.16182,-7.21776 h -3.36808 v -1.92485 c 8.91513,4.45756 16.09153,6.70351 21.5299,6.73613 v -5.77286 c -4.49248,-0.0172 -10.77637,-1.00014 -18.85298,-2.94726 1.744,0.36079 3.57799,0.54078 5.50248,0.54078 2.88649,0 5.29154,-0.96197 7.21603,-2.88643 1.26509,1.89769 3.30994,2.86004 6.13447,2.88643 v -2.88643 c -3.45556,-0.0433 -5.50032,-1.96776 -6.13447,-5.77286 z" />
  <path
     style="fill:#a51d2d;stroke:none;stroke-width:1"
     d="m 82.892578,226.9824 c -17.431618,0 -29.855728,15.02078 -37.273437,45.0625 -7.41771,30.04173 -20.21333,45.0625 -38.386719,45.0625 C 2.41091,321.18714 0,326.19472 0,332.12889 c 0,17.43162 13.536687,28.74314 40.611328,33.93554 27.445526,5.56328 48.214947,8.34375 62.308592,8.34375 14.83542,0 35.60484,-2.78047 62.3086,-8.34375 27.07464,-5.1924 40.61328,-16.50392 40.61328,-33.93554 0,-5.93417 -2.0394,-10.94175 -6.11914,-15.02149 -17.43162,0 -30.04344,-15.02077 -37.83204,-45.0625 -8.15947,-30.04172 -21.69616,-45.0625 -40.61132,-45.0625 z m 20.167972,21.41797 c 4.91423,0 9.8739,0.64917 14.88086,1.94727 9.64302,2.5962 16.31849,14.27924 20.02734,35.04882 3.70885,21.14048 15.57765,38.0149 35.60547,50.625 -18.17339,8.90126 -41.72523,13.35352 -70.6543,13.35352 -28.187293,0 -51.367625,-4.45226 -69.541014,-13.35352 18.91516,-12.6101 30.412448,-29.48452 34.492188,-50.625 4.450626,-20.76958 11.3138,-32.45262 20.585937,-35.04882 4.821511,-1.2981 9.689284,-1.94727 14.603519,-1.94727 z"
     id="path3"
     sodipodi:nodetypes="cscscscsccccscccscccs" />
  <path
     style="fill:none;stroke:#613583;stroke-width:40;stroke-linecap:butt;stroke-linejoin:miter;stroke-dasharray:none;stroke-opacity:1"
     d="m 435.20883,866.8874 c -56.01901,0 -89.39234,-80.8605 -89.39862,-136.48833 l -0.0682,-604.00633 C 345.73505,64.717102 291.37096,20 235.67615,20 148.19326,20 103.06055,87.823651 103.06055,194.23054 v 46.32802"
     id="path5"
     sodipodi:nodetypes="cssscc" />
  <g
     id="g16"
     transform="translate(45.172759)">
    <circle
       style="fill:#f9f06b;stroke:#613583;stroke-width:20;stroke-linecap:butt;stroke-linejoin:round;stroke-dasharray:none"
       id="path9-4"
       cx="300.63745"
       cy="679.90405"
       r="36.928585" />
    <path
       style="fill:none;stroke:#613583;stroke-width:30;stroke-linecap:butt;stroke-linejoin:miter;stroke-dasharray:none;stroke-opacity:1"
       d="M 337.56603,679.90403 H 495.57924"
       id="path15"
       sodipodi:nodetypes="cc" />
  </g>
  <rect
     style="fill:#f9f06b;fill-rule:evenodd;stroke:none;stroke-width:20;stroke-linecap:round;stroke-linejoin:round;stroke-miterlimit:2.3;stroke-dasharray:none"
     id="rect18"
     width="56.545143"
     height="209.32236"
     x="317.43027"
     y="129.12894" />
  <path
     id="path16"
     style="fill:#000000;stroke:none;stroke-width:0.999998"
     d="m 253.55607,126.39274 v 18.28183 c 13.47129,9.30157 13.95228,20.36756 1.44324,33.19729 -12.50895,12.82975 -20.20641,29.83012 -23.09306,50.9992 -3.20749,20.84831 0.96216,42.01665 12.50895,63.50645 -18.28234,0.64149 -27.90542,11.54659 -28.86767,32.71566 -0.96224,20.84833 6.25586,34.96111 21.65155,42.33821 15.71644,7.37712 30.63036,7.37712 44.74306,0 14.11269,-7.3771 21.16822,-18.92408 21.16822,-34.6405 18.52548,17.3676 31.68242,20.68831 42.69985,20.68831 v -15.39541 c -10.21127,-0.0212 -18.83066,-2.74794 -25.85953,-8.17933 -7.05631,-5.45264 -16.84023,-17.64149 -29.34927,-36.56536 -12.50895,-18.92386 -18.76343,-36.08344 -18.76351,-51.47912 0,-23.71579 24.65787,-35.58288 73.97231,-35.60209 v -12.02734 c -27.20474,0.0108 -48.17395,3.69949 -62.90652,11.06576 -14.75419,7.37711 -22.12986,20.20614 -22.12986,38.48852 0,18.28237 4.65065,33.6789 13.95219,46.1879 9.6223,12.509 14.43215,24.85706 14.43215,37.0453 0,11.54676 -4.80985,20.36705 -14.43215,26.46117 -9.30154,5.77338 -18.92462,5.93428 -28.86758,0.48163 -9.62229,-5.77338 -14.112,-15.23553 -13.47059,-28.38601 0.6415,-13.15049 7.69702,-19.72673 21.16822,-19.72673 10.2638,6.09412 15.55628,11.7084 15.87712,16.84031 0.32066,5.45263 -2.56521,8.17765 -8.65936,8.17765 -6.09406,0 -9.1426,-2.40492 -9.1426,-7.21607 0,-2.56595 -1.44289,-3.8497 -4.32963,-3.8497 -3.20741,0 -4.81124,1.28375 -4.81124,3.8497 0,8.98081 3.04673,14.9152 9.14087,17.80189 6.09415,3.20743 12.50947,3.20743 19.24511,0 6.73564,-2.88669 9.94331,-10.26402 9.62256,-22.13153 -0.32075,-11.8675 -6.89528,-20.52858 -19.72507,-25.98123 -11.5467,-23.41427 -14.9153,-46.82831 -10.10415,-70.24259 4.4904,-23.41428 21.48914,-37.84716 50.99753,-43.2998 14.75419,-2.88669 29.46901,-4.32964 44.143,-4.32964 v -17.56191 c -17.79988,-0.0211 -35.72116,2.30432 -53.76392,6.97609 6.09415,-4.16966 7.69798,-8.82029 4.81133,-13.95219 h 48.95259 v -9.14091 h -63.86807 v 2.88642 c 8.66005,9.30157 6.25517,19.72568 -7.21612,31.27245 6.73564,-11.54677 4.32903,-22.29098 -7.21776,-32.23402 v -9.14092 h 78.30195 v -8.17934 z m 69.76269,91.7421 c -5.53286,-0.30071 -11.78742,1.83429 -18.76343,6.40489 -8.98097,6.09411 -16.8391,9.1409 -23.57475,9.1409 v 7.21776 c 4.81115,0 12.02753,-2.72668 21.64983,-8.17933 9.94313,-5.45265 18.28234,-7.05649 25.01798,-4.81128 6.73556,1.92446 10.10251,8.33983 10.10251,19.2451 0,11.22603 -2.08482,19.08433 -6.25447,23.57474 -4.16974,4.49041 -6.25448,9.46113 -6.25448,14.91377 0,3.20743 2.72667,5.29226 8.17932,6.25449 5.37754,0.94898 9.50713,1.43015 12.38894,1.44321 v -2.40648 c -1.91385,0.0146 -3.95862,-0.14521 -6.13447,-0.47994 1.28291,-4.16967 0.80201,-6.73548 -1.44324,-7.69771 -2.5659,-0.96223 -4.81166,-0.80133 -6.73607,0.48164 0,-2.56595 2.08482,-6.25461 6.25447,-11.06576 3.84891,-4.81115 5.77452,-11.86839 5.77452,-21.16996 0,-10.26379 -0.80278,-17.48023 -2.40643,-21.64989 -1.60375,-4.49041 -5.7734,-7.85729 -12.50904,-10.10249 -1.68387,-0.64149 -3.44691,-1.01343 -5.29119,-1.11366 z m -4.81124,18.43392 c -4.81132,0 -9.30267,1.44294 -13.47232,4.32964 -3.8489,2.56595 -11.86633,4.16979 -24.05462,4.81128 v 5.29121 c 5.45265,-1.28297 11.54619,-2.24494 18.28183,-2.88642 4.49031,3.84892 10.10295,5.61366 16.83859,5.29291 7.05639,-0.32074 11.86788,-0.15985 14.43379,0.48163 l 0.96164,-2.88812 c -1.92449,-9.6223 -6.25344,-14.43213 -12.98891,-14.43213 z m 21.16822,59.17682 c -1.28299,3.20744 -6.41463,4.81128 -15.39543,4.81128 -2.56599,0 -3.84968,1.28206 -3.84968,3.84801 0,4.81114 1.60383,7.21775 4.81132,7.21775 7.64728,6.69146 14.50362,10.05864 20.56826,10.1025 v -6.73443 c -5.42202,-0.035 -11.47558,-2.44186 -18.16182,-7.21776 h -3.36808 v -1.92485 c 8.91513,4.45756 16.09153,6.70351 21.5299,6.73613 v -5.77286 c -4.49248,-0.0172 -10.77637,-1.00014 -18.85298,-2.94726 1.744,0.36079 3.57799,0.54078 5.50248,0.54078 2.88649,0 5.29154,-0.96197 7.21603,-2.88643 1.26509,1.89769 3.30994,2.86004 6.13447,2.88643 v -2.88643 c -3.45556,-0.0433 -5.50032,-1.96776 -6.13447,-5.77286 z" />
  <use
     x="0"
     y="0"
     xlink:href="#g16"
     id="use16"
     transform="translate(-1.7187536e-7,-123.1788)" />
  <use
     x="0"
     y="0"
     xlink:href="#use16"
     id="use17"
     transform="translate(0,-123.17881)" />
  <use
     x="0"
     y="0"
     xlink:href="#path16"
     id="use18"
     transform="matrix(-1,0,0,1,691.62042,0)" />
</svg>
