<?xml version="1.0" encoding="UTF-8" standalone="no"?>
<svg
   width="1150"
   height="1000"
   version="1.1"
   id="svg1"
   sodipodi:docname="14191.svg"
   inkscape:version="1.4.2 (f4327f4, 2025-05-13)"
   xmlns:inkscape="http://www.inkscape.org/namespaces/inkscape"
   xmlns:sodipodi="http://sodipodi.sourceforge.net/DTD/sodipodi-0.dtd"
   xmlns:xlink="http://www.w3.org/1999/xlink"
   xmlns="http://www.w3.org/2000/svg"
   xmlns:svg="http://www.w3.org/2000/svg">
  <defs
     id="defs1" />
  <sodipodi:namedview
     id="namedview1"
     pagecolor="#ffffff"
     bordercolor="#666666"
     borderopacity="1.0"
     inkscape:showpageshadow="2"
     inkscape:pageopacity="0.0"
     inkscape:pagecheckerboard="0"
     inkscape:deskcolor="#d1d1d1"
     showguides="true"
     inkscape:zoom="0.53386562"
     inkscape:cx="317.49563"
     inkscape:cy="482.33112"
     inkscape:window-width="1680"
     inkscape:window-height="998"
     inkscape:window-x="-8"
     inkscape:window-y="-8"
     inkscape:window-maximized="1"
     inkscape:current-layer="svg1">
    <sodipodi:guide
       position="562.84761,0"
       orientation="1,0"
       id="guide1"
       inkscape:locked="false" />
  </sodipodi:namedview>
  <path
     id="path1"
     style="fill:#000000;stroke:none;stroke-width:1"
     d="M 223.02539,0 C 202.26158,0 174.82292,11.124153 140.71094,33.371094 106.59897,55.988819 89.542969,93.066718 89.542969,144.60547 89.542969,205.04299 59.695957,268.0766 0,333.70508 v 36.15039 c 0,8.15721 20.393629,17.42669 61.179688,27.80859 40.415282,10.38191 79.717612,10.56776 117.908202,0.55664 38.19058,-9.64034 57.28516,-19.09567 57.28516,-28.36523 v -36.15039 c -56.35892,-68.22396 -84.53711,-130.51608 -84.53711,-186.875 0,-56.358916 24.8425,-84.90883 74.52734,-85.650392 65.62847,0 98.99899,41.898492 100.11133,125.695312 -34.24897,235.62022 -60.06836,331.50275 -60.06836,432.14648 0,46.34777 12.05149,109.00969 36.15234,187.98633 C 353.35577,935.66927 440.1187,1000 562.84766,1000 v -61.17969 c -90.47089,0 -154.06013,-41.15701 -190.76758,-123.4707 H 562.84766 V 783.0918 H 359.84375 C 339.82151,729.32834 329.81055,675.00861 329.81055,620.13281 H 562.84766 V 588.98828 H 329.81055 L 355.95117,412.125 H 562.84766 V 379.86719 H 362.06836 C 375.41652,269.37405 384.31624,214.12695 388.76562,214.12695 H 562.84766 V 182.98047 H 388.76562 C 388.76562,60.993078 333.51853,0 223.02539,0 Z M 111.79102,186.875 h 21.6914 c 0,48.94327 25.21227,101.22249 75.63867,156.83984 v 18.35352 c -58.21283,13.34816 -119.205898,13.34816 -182.980465,0 V 344.82812 C 83.241109,289.21077 111.79102,237.30132 111.79102,189.09961 Z"
     sodipodi:nodetypes="scscsccscsccscccccccccccccccscccsccccccsc" />
  <use
     x="0"
     y="0"
     xlink:href="#path1"
     id="use1"
     transform="matrix(-1,0,0,1,1125.6953,0)" />
  <g
     id="g2"
     transform="translate(-130.14563)">
    <path
       style="fill:none;stroke:#613583;stroke-width:20;stroke-linecap:butt;stroke-linejoin:miter;stroke-dasharray:none;stroke-opacity:1"
       d="m 562.84764,198.55371 c -43.99047,91.78152 -33.7445,157.34109 -3e-5,157.34109"
       id="path2"
       sodipodi:nodetypes="cc" />
    <use
       x="0"
       y="0"
       xlink:href="#path2"
       id="use2"
       transform="matrix(-1,0,0,1,1125.6952,0)" />
  </g>
  <use
     x="0"
     y="0"
     xlink:href="#g2"
     id="use5"
     transform="translate(86.763793)" />
  <use
     x="0"
     y="0"
     xlink:href="#g2"
     id="use6"
     transform="translate(173.52759)" />
  <use
     x="0"
     y="0"
     xlink:href="#g2"
     id="use7"
     transform="translate(260.29138)" />
  <g
     id="g37">
    <use
       x="0"
       y="0"
       xlink:href="#g2"
       id="use10"
       transform="translate(-34.6898,199.31551)" />
    <use
       x="0"
       y="0"
       xlink:href="#use10"
       id="use11"
       transform="translate(329.67098)" />
    <use
       x="0"
       y="0"
       xlink:href="#use10"
       id="use12"
       transform="translate(247.25323)" />
    <use
       x="0"
       y="0"
       xlink:href="#use10"
       id="use13"
       transform="translate(164.83549)" />
    <use
       x="0"
       y="0"
       xlink:href="#use10"
       id="use14"
       transform="translate(82.417745)" />
  </g>
  <g
     id="g22"
     transform="translate(0.49536)">
    <path
       style="fill:none;stroke:#613583;stroke-width:15;stroke-linecap:butt;stroke-linejoin:miter;stroke-dasharray:none;stroke-opacity:1"
       d="m 562.7702,794.38822 c -31.5346,68.30439 -24.18977,117.09425 -2e-5,117.09425"
       id="path22"
       sodipodi:nodetypes="cc" />
    <use
       x="0"
       y="0"
       xlink:href="#path22"
       id="use22"
       transform="matrix(-1,0,0,1,1124.7046,0)" />
  </g>
  <use
     x="0"
     y="0"
     xlink:href="#g22"
     id="use23"
     transform="translate(-71.647245)" />
  <use
     x="0"
     y="0"
     xlink:href="#use23"
     id="use24"
     transform="translate(143.29449)" />
  <use
     x="0"
     y="0"
     xlink:href="#g37"
     id="use37"
     transform="translate(0,204.49319)" />
</svg>
