<?xml version="1.0" encoding="UTF-8" standalone="no"?>
<!-- Created with Inkscape (http://www.inkscape.org/) -->

<svg
   width="1100"
   height="700"
   viewBox="0 0 1100 700"
   version="1.1"
   id="svg10448"
   sodipodi:docname="1419F.svg"
   inkscape:version="1.4.2 (f4327f4, 2025-05-13)"
   xmlns:inkscape="http://www.inkscape.org/namespaces/inkscape"
   xmlns:sodipodi="http://sodipodi.sourceforge.net/DTD/sodipodi-0.dtd"
   xmlns:xlink="http://www.w3.org/1999/xlink"
   xmlns="http://www.w3.org/2000/svg"
   xmlns:svg="http://www.w3.org/2000/svg">
  <sodipodi:namedview
     id="namedview1"
     pagecolor="#ffffff"
     bordercolor="#666666"
     borderopacity="1.0"
     inkscape:showpageshadow="2"
     inkscape:pageopacity="0.0"
     inkscape:pagecheckerboard="0"
     inkscape:deskcolor="#d1d1d1"
     showguides="true"
     inkscape:zoom="0.58573453"
     inkscape:cx="673.5133"
     inkscape:cy="487.42218"
     inkscape:window-width="1680"
     inkscape:window-height="998"
     inkscape:window-x="-8"
     inkscape:window-y="-8"
     inkscape:window-maximized="1"
     inkscape:current-layer="svg10448" />
  <defs
     id="defs10445" />
  <path
     style="color:#000000;fill:#e5a50a;stroke-width:0.979477;stroke-linecap:square;-inkscape-stroke:none"
     d="M 182.67578,110.83485 C 132.32831,122.12072 84.565319,144.15679 47.816406,180.66297 -0.13218495,236.58009 -8.7407002,317.90454 7.5488281,387.66102 21.465207,447.96285 66.606294,505.52286 123.47656,533.37977 c 108.66809,53.22916 253.10247,80.20956 374.98047,82.06836 107.50006,1.06713 215.61492,-9.50732 319.99024,-35.64844 42.52948,-11.42645 63.64053,-57.62846 59.88085,-98.93945 3.22393,-66.28606 -58.12682,-122.92504 -123.08398,-121.81641 -161.73089,-9.62385 -338.90048,4.36553 -500.1582,14.10157 -51.28698,-3.67954 -72.79393,-22.54859 -81.12696,-54.52539 -5.07907,-19.49039 7.6488,-33.81232 24.01758,-44.1543 -0.42481,-1.23356 -0.831,-2.47233 -1.18164,-3.72852 -2.06291,-7.39063 -2.34178,-10.75983 -3.52539,-18.23828 -1.17138,-7.40122 -2.32276,-14.78845 -2.63086,-22.29101 -0.0301,-0.55339 -0.0609,-1.15513 -0.0937,-1.78907 -18.35415,6.28293 -35.43489,15.14633 -48.82422,29.57227 -19.53577,30.95044 -24.51022,77.74399 0.50977,109.6582 39.30181,50.13133 73.2349,71.09977 163.51367,71.56446 128.30925,0.66043 225.23318,-12.91319 353.45117,-2.15821 82.78131,6.94369 120.79172,-6.49052 121.1211,42.2793 0.32945,48.76995 -95.9603,42.69039 -206.70313,50.63867 -100.88122,7.24046 -187.839,-4.49449 -290.16406,-14.13281 C 200.55492,508.03269 138.35671,464.15559 89.121094,427.6454 31.377673,368.76766 26.911113,297.3243 66.234375,226.28993 c 25.650486,-40.0839 71.154265,-59.91384 116.496095,-71.50586 -0.0226,-0.81309 -0.0411,-1.62614 -0.0547,-2.43945 -0.0725,-4.33868 0,-8.6783 0,-13.01758 z"
     id="path2" />
  <path
     style="color:#000000;fill:#000000;stroke-width:0.979477;stroke-linecap:square;-inkscape-stroke:none"
     d="m 260.94531,39.772345 -1.08984,61.708985 c -19.94713,0.54103 -40.15269,2.44914 -60.10547,5.94922 v 31.89649 c 0,3.82124 -0.0556,7.642 -0.0195,11.46289 3.8903,-0.84021 7.76023,-1.62967 11.59765,-2.37696 13.34484,-2.25262 26.81647,-3.76723 40.33008,-4.51171 -0.51642,23.24162 -1.03441,46.48293 -1.55078,69.72461 -13.86672,3.14796 -28.46201,5.96963 -42.74414,9.75 0.11489,1.94653 0.21128,3.90102 0.32227,5.89257 0.27636,6.90101 1.35006,13.69174 2.4375,20.4961 1.10641,6.92296 1.33046,10.05226 3.11914,16.46679 7.16733,-3.34726 14.23328,-6.07084 20.1875,-8.25586 2.80658,-2.31343 18.99519,-4.06495 22.83008,-4.63085 l -0.9043,61.73437 15.625,-0.25781 575.99805,-33.02344 c 25.96114,33.04841 66.24107,54.35547 111.38867,54.35547 C 1036.4111,336.15327 1100,272.5643 1100,194.5204 c 10e-5,-78.04381 -63.5889,-141.632845 -141.63281,-141.632821 -40.68453,6e-6 -77.41764,17.305638 -103.28516,44.90625 z m 29.26758,32.185547 544.13477,54.287118 c -11.21065,20.26667 -17.61524,43.54052 -17.61524,68.27539 6e-5,20.45815 4.40558,39.90362 12.25977,57.49023 l -542.88281,32.5332 z m 668.1543,10.953125 c 61.81821,-1.8e-5 111.60941,49.791173 111.60941,111.609383 0,61.81825 -49.7912,111.60937 -111.60941,111.60937 -61.81832,0 -111.61127,-49.79112 -111.61133,-111.60937 0,-61.81821 49.79301,-111.609371 111.61133,-111.609383 z"
     id="path489" />
  <circle
     style="fill:none;fill-rule:evenodd;stroke:#613583;stroke-width:30;stroke-linecap:round;stroke-miterlimit:5;stroke-dasharray:none"
     id="path3"
     cx="958.36719"
     cy="194.5204"
     r="126.63281" />
  <path
     style="fill:none;stroke:#613583;stroke-width:30;stroke-linecap:butt;stroke-linejoin:miter;stroke-dasharray:none;stroke-opacity:1"
     d="M 287.86475,193.60531 V 40.874049 l 574.89507,72.742571"
     id="path4"
     sodipodi:nodetypes="ccc" />
  <use
     x="0"
     y="0"
     xlink:href="#path4"
     id="use4"
     transform="matrix(1,0,0,-1,0,387.21062)" />
  <path
     style="fill:none;stroke:#c061cb;stroke-width:44;stroke-linecap:butt;stroke-linejoin:miter;stroke-dasharray:none;stroke-opacity:1"
     d="M 287.86475,129.58262 C 127.6302,135.37162 22,194.5204 22,334.27436 c 0,375.07135 1010.8911,438.40362 1010.8911,213.13946 0,-184.43519 -417.42457,-123.39169 -571.0778,-112.29452 -153.65322,11.09718 -309.03288,-32.27711 -309.03288,-105.40114 0,-57.71304 69.30777,-72.09016 133.84851,-72.09016"
     id="path5"
     sodipodi:nodetypes="cssssc" />
</svg>
