<?xml version="1.0" encoding="UTF-8" standalone="no"?>
<svg
   width="1011.7365"
   height="1000"
   version="1.1"
   id="svg1"
   sodipodi:docname="141E4.svg"
   inkscape:version="1.4.3 (0d15f75, 2025-12-25)"
   xmlns:inkscape="http://www.inkscape.org/namespaces/inkscape"
   xmlns:sodipodi="http://sodipodi.sourceforge.net/DTD/sodipodi-0.dtd"
   xmlns="http://www.w3.org/2000/svg"
   xmlns:svg="http://www.w3.org/2000/svg">
  <defs
     id="defs1" />
  <sodipodi:namedview
     id="namedview1"
     pagecolor="#ffffff"
     bordercolor="#666666"
     borderopacity="1.0"
     inkscape:showpageshadow="2"
     inkscape:pageopacity="0.0"
     inkscape:pagecheckerboard="0"
     inkscape:deskcolor="#d1d1d1"
     inkscape:zoom="0.3775"
     inkscape:cx="215.89404"
     inkscape:cy="435.76159"
     inkscape:window-width="1680"
     inkscape:window-height="998"
     inkscape:window-x="-8"
     inkscape:window-y="-8"
     inkscape:window-maximized="1"
     inkscape:current-layer="svg1" />
  <path
     style="fill:#ffa348;stroke:none;stroke-width:1"
     d="M 586.77148,0.04882812 C 565.7479,1.0246096 546.71929,16.415102 529.6875,46.220703 L 209.49023,601.45703 c -36.33444,7.94814 -66.42309,24.98033 -90.26757,51.0957 C 82.888214,688.88722 63.017709,724.36877 59.611328,759 c -3.406343,34.63131 1.135036,61.03007 13.625,79.19727 L 0,964.23242 54.501953,996.59375 85.158203,944.57031 V 945.49805 1000 H 425.79492 v -56.20508 h -85.16015 c 1.13548,0 9.08484,-5.10905 23.8457,-15.32812 52.23075,-39.74079 78.3457,-88.56463 78.3457,-146.47266 0,-53.13652 -21.23246,-98.50611 -63.69531,-136.10742 -26.7762,33.56542 -12.82105,15.21493 -10.09375,11.64453 -1.53811,2.0064 -7.52843,9.80488 -23.04102,29.90625 28.21907,25.81802 42.32813,56.20269 42.32813,91.15039 0,30.65721 -12.48882,59.04286 -37.46875,85.1582 -27.25086,27.25083 -59.61214,40.875 -97.08203,40.875 -23.84449,0 -48.2564,-7.37975 -73.23633,-22.14062 -26.11537,-18.16724 -39.7415,-28.95304 -40.87695,-32.35938 L 253.77344,652.55273 c 25.15903,0 48.86555,6.28937 71.12109,18.8711 50.96718,-66.00963 -5.06508,6.07705 34.18555,-42.93164 -20.44739,-15.49433 -45.33096,-25.07336 -74.65039,-28.73828 L 560.3457,122.86328 769.83594,776.88477 c 47.689,31.79265 74.9393,19.30191 81.75195,-37.47071 46.55355,32.9281 73.2381,21.00497 80.05078,-35.76758 46.55354,32.92807 73.23613,21.00697 80.04883,-35.76562 L 626.76953,13.859375 C 612.71833,4.0661088 599.38563,-0.53664075 586.77148,0.04882812 Z m 5.45508,39.65234388 c 4.1515,-0.05323 9.42167,2.687334 15.8086,8.222656 L 745.99219,289.77539 667.64648,325.54102 580.7832,63.251953 c 0.70966,-15.612455 4.5242,-23.462071 11.44336,-23.550781 z m 192.9375,273.917968 209.49219,357.66797 c -2.27093,36.33441 -19.87073,44.84953 -52.79883,25.54687 L 756.21094,327.24414 Z m -44.28125,20.43945 177.12891,372.99414 c -5.67728,35.19896 -24.97815,43.1484 -57.90625,23.84571 L 705.11523,349.38672 Z m -51.0957,22.14063 151.58203,384.91797 c -7.94817,36.33448 -26.68332,44.28188 -56.20508,23.84375 L 659.12891,369.82422 Z m -516.0625,308.27539 -63.01758,109.00195 c 6.81273,-23.84448 18.73387,-47.68875 35.76563,-71.5332 z m -63.01758,236.74023 c 10.21907,15.89631 28.95421,30.09008 56.20508,42.58008 H 85.615234 Z"
     id="path1" />
  <path
     style="fill:#000000;stroke:none;stroke-width:1"
     d="M 586.77148,0.04882812 C 565.7479,1.0246096 546.71929,16.415102 529.6875,46.220703 L 0,964.23242 54.501953,996.59375 560.3457,122.86328 769.83594,776.88477 c 47.689,31.79265 74.9393,19.30191 81.75195,-37.47071 46.55355,32.9281 73.2381,21.00497 80.05078,-35.76758 46.55354,32.92807 73.23613,21.00697 80.04883,-35.76562 L 626.76953,13.859375 C 612.71833,4.0661088 599.38563,-0.53664075 586.77148,0.04882812 Z m 5.45508,39.65234388 c 4.1515,-0.05323 9.42167,2.687334 15.8086,8.222656 L 745.99219,289.77539 667.64648,325.54102 580.7832,63.251953 c 0.70966,-15.612455 4.5242,-23.462071 11.44336,-23.550781 z m 192.9375,273.917968 209.49219,357.66797 c -2.27093,36.33441 -19.87073,44.84953 -52.79883,25.54687 L 756.21094,327.24414 Z m -44.28125,20.43945 177.12891,372.99414 c -5.67728,35.19896 -24.97815,43.1484 -57.90625,23.84571 L 705.11523,349.38672 Z m -51.0957,22.14063 151.58203,384.91797 c -7.94817,36.33448 -26.68332,44.28188 -56.20508,23.84375 L 659.12891,369.82422 Z"
     id="path2"
     sodipodi:nodetypes="scccccccccssccccsccccccccccccccc" />
  <circle
     style="fill:none;fill-rule:evenodd;stroke:#613583;stroke-width:60;stroke-linejoin:round;stroke-miterlimit:2.3;stroke-dasharray:none"
     id="path4"
     cx="270.14041"
     cy="780.19073"
     r="189.8093" />
</svg>
