<?xml version="1.0" encoding="UTF-8" standalone="no"?>
<svg
   width="1375.9607"
   height="1000"
   id="svg2"
   sodipodi:version="0.32"
   inkscape:version="1.4.3 (0d15f75, 2025-12-25)"
   sodipodi:docname="1429C.svg"
   inkscape:output_extension="org.inkscape.output.svg.inkscape"
   version="1.1"
   xmlns:inkscape="http://www.inkscape.org/namespaces/inkscape"
   xmlns:sodipodi="http://sodipodi.sourceforge.net/DTD/sodipodi-0.dtd"
   xmlns="http://www.w3.org/2000/svg"
   xmlns:svg="http://www.w3.org/2000/svg"
   xmlns:rdf="http://www.w3.org/1999/02/22-rdf-syntax-ns#"
   xmlns:cc="http://creativecommons.org/ns#"
   xmlns:dc="http://purl.org/dc/elements/1.1/">
  <metadata
     id="metadata9">
    <rdf:RDF>
      <cc:Work
         rdf:about="">
        <dc:format>image/svg+xml</dc:format>
        <dc:type
           rdf:resource="http://purl.org/dc/dcmitype/StillImage" />
      </cc:Work>
    </rdf:RDF>
  </metadata>
  <defs
     id="defs7">
    <inkscape:perspective
       sodipodi:type="inkscape:persp3d"
       inkscape:vp_x="0 : 993.16 : 1"
       inkscape:vp_y="0 : 1000 : 0"
       inkscape:vp_z="18.823143 : 993.16 : 1"
       inkscape:persp3d-origin="9.4115715 : 990.88 : 1"
       id="perspective11" />
  </defs>
  <sodipodi:namedview
     inkscape:window-height="998"
     inkscape:window-width="1680"
     inkscape:pageshadow="2"
     inkscape:pageopacity="0.0"
     guidetolerance="10.0"
     gridtolerance="10.0"
     objecttolerance="10.0"
     borderopacity="1.0"
     bordercolor="#666666"
     pagecolor="#ffffff"
     id="base"
     showgrid="false"
     inkscape:zoom="0.67371111"
     inkscape:cx="567.75077"
     inkscape:cy="254.56015"
     inkscape:window-x="-8"
     inkscape:window-y="-8"
     inkscape:current-layer="svg2"
     inkscape:showpageshadow="2"
     inkscape:pagecheckerboard="0"
     inkscape:deskcolor="#d1d1d1"
     inkscape:window-maximized="1"
     showguides="true" />
  <path
     style="fill:#000000;stroke:none;stroke-width:0.999999"
     d="m 1375.6322,462.7944 -158.3989,383.17396 c 22.1256,12.06841 39.7257,35.19961 52.8,69.39363 6.0344,40.22817 -5.0287,68.38795 -33.1884,84.47925 H 696.78096 C 573.07909,1001.8524 509.71963,984.75568 506.70255,948.55025 501.67398,927.43046 515.251,917.8762 547.43352,919.88746 699.2951,913.85315 786.79156,892.73358 809.92276,856.52815 L 895.91077,710.19784 C 469.49146,385.35496 156.92844,142.67014 111.6717,119.53889 L 145.57337,75.808682 C 188.8187,117.04262 376.96641,268.69313 576.09617,411.50335 743.04335,520.11967 908.48205,633.26159 1072.4121,750.92911 l 149.3476,-359.03702 c 20.1139,-10.05704 34.6966,-5.02857 43.7482,15.08549 l -152.3648,366.57986 64.8687,45.25667 155.381,-374.12242 c 21.1197,-11.06279 35.1995,-5.02857 42.2394,18.10271 z M 1171.9766,937.99025 V 891.22496 L 953.23585,740.36932 871.77368,886.69941 c -4.02312,27.15403 5.02871,45.25667 27.15403,54.30792 z"
     id="path4"
     sodipodi:nodetypes="ccccccccccccccccccccccccc" />
  <ellipse
     style="fill:#1a5fb4;fill-rule:evenodd;stroke:none;stroke-width:50;stroke-linejoin:round;stroke-miterlimit:2.3"
     id="path2"
     cx="93.753357"
     cy="13.168012"
     rx="79.840378"
     ry="50.878304"
     transform="rotate(31.462951)" />
</svg>
