<?xml version="1.0" encoding="UTF-8" standalone="no"?>
<svg
   width="513.34814"
   height="1000"
   version="1.1"
   id="svg1"
   sodipodi:docname="1432E.svg"
   inkscape:version="1.4.3 (0d15f75, 2025-12-25)"
   xmlns:inkscape="http://www.inkscape.org/namespaces/inkscape"
   xmlns:sodipodi="http://sodipodi.sourceforge.net/DTD/sodipodi-0.dtd"
   xmlns="http://www.w3.org/2000/svg"
   xmlns:svg="http://www.w3.org/2000/svg">
  <defs
     id="defs1" />
  <sodipodi:namedview
     id="namedview1"
     pagecolor="#ffffff"
     bordercolor="#666666"
     borderopacity="1.0"
     inkscape:showpageshadow="2"
     inkscape:pageopacity="0.0"
     inkscape:pagecheckerboard="0"
     inkscape:deskcolor="#d1d1d1"
     inkscape:zoom="0.53386562"
     inkscape:cx="-69.30583"
     inkscape:cy="467.34607"
     inkscape:window-width="1680"
     inkscape:window-height="998"
     inkscape:window-x="-8"
     inkscape:window-y="-8"
     inkscape:window-maximized="1"
     inkscape:current-layer="svg1"
     showguides="true">
    <sodipodi:guide
       position="255.9242,898.85284"
       orientation="1,0"
       id="guide1"
       inkscape:locked="false" />
  </sodipodi:namedview>
  <path
     id="path1"
     style="fill:#000000;stroke:none;stroke-width:0.999998"
     d="m 255.93944,119.41208 c -72.48444,0 -117.37868,31.34448 -134.68352,94.03372 H 30.649955 c 0,116.56281 17.958385,216.80001 53.874096,300.71217 h 73.463739 c 6.53012,25.141 11.26434,48.65023 14.20292,70.52616 -16.65183,0 -24.97809,10.61068 -24.97809,31.83358 0,21.22294 6.5311,31.83534 19.59137,31.83534 -13.06027,0 -19.4277,9.46846 -19.1012,28.40583 0.32652,18.93737 6.69394,28.40584 19.1012,28.40584 -13.06027,0 -19.59137,11.26362 -19.59137,33.79256 0,21.54943 9.63213,32.3255 28.89602,32.3255 -7.83618,62.36272 -30.36511,132.88695 -67.58685,211.575 0,10.77472 14.03904,16.48922 42.11859,17.14222 37.87475,-87.17723 61.54763,-163.41594 71.01632,-228.71722 h 70.03599 c 9.46867,65.30128 32.81251,141.53999 70.03426,228.71722 28.73255,-0.653 43.09892,-6.3675 43.09892,-17.14222 -37.22175,-78.68805 -60.23997,-149.21228 -69.05564,-211.575 19.5904,0 29.38619,-10.77607 29.38619,-32.3255 0,-22.52894 -6.04011,-33.79256 -18.12085,-33.79256 12.08074,0 18.12085,-9.46847 18.12085,-28.40584 0,-18.93737 -6.04011,-28.40583 -18.12085,-28.40583 12.08074,0 18.28279,-10.6124 18.6093,-31.83534 0.32651,-21.2229 -7.67242,-31.83358 -23.99775,-31.83358 2.61206,-21.87593 6.85702,-45.38516 12.73413,-70.52616 h 73.46373 C 464.41371,430.24581 482.6977,330.00861 482.6977,213.4458 H 391.11311 C 373.80827,150.75656 328.75037,119.41208 255.93944,119.41208 Z m 0,45.54807 c 39.83378,0 67.91357,16.32517 84.2389,48.97582 16.65183,32.65064 14.52934,93.38079 -6.36707,182.19055 -20.89642,88.80975 -34.60985,151.66238 -41.13997,188.55761 h -71.99494 c -7.18314,-36.89523 -21.05851,-99.74786 -41.62841,-188.55761 -20.56991,-88.80976 -22.53046,-149.53991 -5.87863,-182.19055 16.32533,-32.65065 43.91585,-48.97582 82.77012,-48.97582 z M 61.995101,245.76956 h 52.893749 c 0,54.52659 12.24388,134.35732 36.73187,239.49241 H 106.07266 C 76.687075,408.85944 61.995101,329.02871 61.995101,245.76956 Z m 336.463709,0 h 51.91513 c 0.653,83.25915 -13.71335,163.08988 -43.09893,239.49241 H 361.72695 C 386.21492,380.12688 398.45881,300.29615 398.45881,245.76956 Z M 182.96586,608.1917 h 146.43731 c 9.46869,0 14.20291,3.59201 14.20291,10.77516 0,7.18315 -4.40689,10.77516 -13.22257,10.77516 H 182.96586 c -9.46867,0 -14.20292,-3.59201 -14.20292,-10.77516 0,-7.18315 4.73425,-10.77516 14.20292,-10.77516 z m 0,59.26081 h 147.41765 c 8.81568,0 13.22257,3.59202 13.22257,10.77516 0,7.18314 -4.40689,10.77517 -13.22257,10.77517 H 182.96586 c -9.46867,0 -14.20292,-3.59203 -14.20292,-10.77517 0,-7.18314 4.73425,-10.77516 14.20292,-10.77516 z m 0,58.2822 h 146.43731 c 9.46869,0 14.36658,3.59201 14.69308,10.77516 0.32652,7.18314 -4.57139,10.77344 -14.69308,10.77344 H 182.96586 c -9.46867,0 -14.20292,-3.5903 -14.20292,-10.77344 0,-7.18315 4.73425,-10.77516 14.20292,-10.77516 z" />
  <path
     style="fill:none;stroke:#613583;stroke-width:40;stroke-linecap:butt;stroke-linejoin:miter;stroke-dasharray:none;stroke-opacity:1"
     d="M 256.67382,0 V 121.98763"
     id="path2" />
  <path
     style="fill:none;stroke:#613583;stroke-width:40;stroke-linecap:butt;stroke-linejoin:miter;stroke-dasharray:none;stroke-opacity:1"
     d="M 329.84299,60.993817 H 183.50466"
     id="use2" />
</svg>
