<?xml version="1.0" encoding="UTF-8" standalone="no"?>
<svg
   width="1100"
   height="1000"
   version="1.1"
   id="svg1"
   sodipodi:docname="14373.svg"
   inkscape:version="1.4.3 (0d15f75, 2025-12-25)"
   xmlns:inkscape="http://www.inkscape.org/namespaces/inkscape"
   xmlns:sodipodi="http://sodipodi.sourceforge.net/DTD/sodipodi-0.dtd"
   xmlns:xlink="http://www.w3.org/1999/xlink"
   xmlns="http://www.w3.org/2000/svg"
   xmlns:svg="http://www.w3.org/2000/svg">
  <defs
     id="defs1" />
  <sodipodi:namedview
     id="namedview1"
     pagecolor="#ffffff"
     bordercolor="#666666"
     borderopacity="1.0"
     inkscape:showpageshadow="2"
     inkscape:pageopacity="0.0"
     inkscape:pagecheckerboard="0"
     inkscape:deskcolor="#d1d1d1"
     inkscape:zoom="0.37749999"
     inkscape:cx="303.31127"
     inkscape:cy="626.49009"
     inkscape:window-width="1680"
     inkscape:window-height="998"
     inkscape:window-x="-8"
     inkscape:window-y="-8"
     inkscape:window-maximized="1"
     inkscape:current-layer="svg1"
     showguides="true">
    <sodipodi:guide
       position="197.35099,209.34507"
       orientation="0,-1"
       id="guide2"
       inkscape:locked="false" />
    <sodipodi:guide
       position="162.9139,40"
       orientation="0,-1"
       id="guide3"
       inkscape:locked="false" />
    <sodipodi:guide
       position="197.78884,134.67255"
       orientation="0,-1"
       id="guide4"
       inkscape:locked="false" />
  </sodipodi:namedview>
  <path
     style="fill:#000000;stroke:none;stroke-width:1"
     d="m 1043.123,965.65315 q -86.71168,-99.0991 -86.71168,-158.78379 0,-108.1081 47.86038,-285.47297 47.2973,-177.36486 47.2973,-254.5045 0,-88.4009 -109.79732,-88.4009 -111.48648,0 -111.48648,88.4009 0,77.13964 48.42342,254.5045 48.42342,177.36487 48.42342,285.47297 0,59.68469 -87.27477,158.78379 z M 927.13204,152.02703 q 13.51352,-2.81532 29.27928,0 0,-40.54054 15.76577,-81.081084 h -61.37388 q 16.32883,40.540544 16.32883,81.081084 z M 1059.4519,42.792793 q 14.6396,0 14.6396,-8.445946 0,-8.445946 -14.6396,-8.445946 H 824.0915 q -15.76576,0 -15.76576,8.445946 0,8.445946 15.76576,8.445946 z M 879.27168,70.945946 H 824.0915 Q 808.32574,62.5 793.6861,65.315315 q -14.63964,3.378378 -20.27027,24.211712 -5.63063,20.833333 -28.71622,20.270273 -23.08558,-1.12613 -38.85135,21.39639 -15.2027,21.95946 -7.31982,44.48198 7.88288,22.52253 -2.81532,41.66667 -11.26126,19.14415 -33.78378,21.95946 -22.52252,2.81532 -34.34685,28.15315 -11.26126,25.33784 0,46.17117 11.82433,20.27027 4.50451,40.54054 -7.31982,20.27027 -29.27928,27.59009 -21.95946,7.31982 -29.27928,33.78379 -7.88288,26.46396 7.88288,44.48198 15.20271,18.58108 11.26126,39.97748 -3.37837,21.39639 -24.21171,32.65765 -20.83333,10.6982 -23.08558,37.72523 -2.81532,27.02703 16.32883,42.79279 19.14414,15.76577 17.45495,39.97748 -1.12612,23.64865 -21.39639,37.16216 -20.27027,13.51352 -19.14415,39.97748 0.56306,25.9009 19.70721,39.97748 19.70721,14.07657 20.83333,38.85135 1.68919,24.21171 -17.45495,38.85135 -19.14415,15.2027 -16.32883,41.1036 2.25225,26.46397 23.08558,38.85135 20.83334,12.38739 24.21171,36.03604 3.94145,23.64865 -27.02702,36.03603 h -52.36487 q 29.27928,-2.25225 25.9009,-28.71621 -3.94144,-26.46397 -24.77477,-38.85135 -20.83333,-11.82433 -22.52252,-38.28829 -1.68919,-26.46396 16.32883,-41.66667 18.58108,-15.2027 17.45495,-41.66666 -1.12613,-26.46397 -20.83333,-40.54054 -19.70721,-14.07658 -19.70721,-39.97748 0,-26.46397 19.70721,-39.97748 19.7072,-13.51351 20.27027,-40.54054 0.56306,-27.02703 -18.01802,-42.22973 -18.01802,-15.2027 -15.76577,-41.66666 2.25226,-25.90091 23.08559,-37.72523 20.83333,-11.82432 25.9009,-37.72522 5.06757,-26.46397 -11.26126,-45.04505 -15.76577,-18.01802 -8.44595,-43.35586 7.31982,-24.77477 29.27928,-33.22072 21.95946,-7.88288 31.53153,-32.65765 9.00901,-25.33784 -2.81531,-46.17117 -11.26126,-20.83334 -0.56306,-44.48199 11.26126,-24.21171 34.9099,-27.59009 24.21172,-3.94144 36.5991,-27.02702 12.95045,-23.08559 4.50451,-45.60811 -8.44595,-23.08559 6.75675,-44.48198 15.20271,-21.396399 39.41442,-21.396399 23.64865,0 39.97748,-39.414414 Q 757.087,0 824.0915,0 h 235.3604 q 39.9775,0 40.5405,35.472973 0.5631,35.472973 -40.5405,35.472973 h -55.1802 q -21.95948,41.666664 -21.95948,83.333334 103.60358,0 103.60358,129.5045 0,52.92793 -48.9864,234.23424 -48.98655,180.74324 -48.98655,287.16216 0,48.98648 87.27475,148.08558 15.7658,1.68919 15.7658,20.83333 0,25.9009 -31.5315,25.9009 H 824.0915 q -31.53153,0 -31.53153,-25.9009 0,-19.14414 15.76577,-20.83333 85.58558,-99.0991 85.58558,-148.08558 0,-106.41892 -48.42342,-287.16216 -48.42342,-181.30631 -48.42342,-234.23424 0,-129.5045 104.16666,-129.5045 0,-41.66667 -21.95946,-83.333334 z"
     id="path1" />
  <rect
     style="fill:#f9f06b;fill-rule:evenodd;stroke:none;stroke-width:30;stroke-linecap:round;stroke-miterlimit:5;stroke-dasharray:none"
     id="rect7"
     width="186.3765"
     height="250.19106"
     x="427.07376"
     y="712.78473" />
  <path
     style="fill:none;stroke:#613583;stroke-width:60;stroke-linecap:butt;stroke-linejoin:miter;stroke-dasharray:none;stroke-opacity:1"
     d="M 746.83231,970 H 162.9139"
     id="path2"
     sodipodi:nodetypes="cc" />
  <use
     x="0"
     y="0"
     xlink:href="#path2"
     id="use2"
     transform="translate(0,-209.34507)" />
  <rect
     style="fill:#e01b24;fill-rule:evenodd;stroke:none;stroke-width:60;stroke-linecap:round;stroke-miterlimit:5;stroke-dasharray:none"
     id="rect4"
     width="69.749886"
     height="149.34506"
     x="162.91389"
     y="790.65491" />
  <path
     style="fill:none;stroke:#813d9c;stroke-width:35;stroke-linecap:butt;stroke-linejoin:miter;stroke-dasharray:none;stroke-opacity:1"
     d="m 291.40895,865.32745 c 0,-53.32535 -27.10035,-86.00107 -49.16967,-100.42807"
     id="path4"
     sodipodi:nodetypes="cc" />
  <use
     x="0"
     y="0"
     xlink:href="#path4"
     id="use4"
     transform="matrix(1,0,0,-1,0,1730.6549)" />
  <use
     x="0"
     y="0"
     xlink:href="#rect4"
     id="use5"
     transform="matrix(-1,0,0,1.0000002,909.74622,-1.3535754e-4)"
     style="stroke-width:1" />
  <use
     x="0"
     y="0"
     xlink:href="#path4"
     id="use6"
     transform="matrix(-1,0,0,1,909.74622,0)" />
  <use
     x="0"
     y="0"
     xlink:href="#use4"
     id="use7"
     transform="matrix(-1,0,0,1,909.74622,-1.9999999e-5)" />
</svg>
