<?xml version="1.0" encoding="UTF-8" standalone="no"?>
<svg
   width="800"
   height="800"
   version="1.1"
   id="svg1"
   sodipodi:docname="1439B.svg"
   inkscape:version="1.4.2 (f4327f4, 2025-05-13)"
   xmlns:inkscape="http://www.inkscape.org/namespaces/inkscape"
   xmlns:sodipodi="http://sodipodi.sourceforge.net/DTD/sodipodi-0.dtd"
   xmlns="http://www.w3.org/2000/svg"
   xmlns:svg="http://www.w3.org/2000/svg">
  <defs
     id="defs1" />
  <sodipodi:namedview
     id="namedview1"
     pagecolor="#ffffff"
     bordercolor="#666666"
     borderopacity="1.0"
     inkscape:showpageshadow="2"
     inkscape:pageopacity="0.0"
     inkscape:pagecheckerboard="0"
     inkscape:deskcolor="#d1d1d1"
     inkscape:zoom="0.94374999"
     inkscape:cx="620.39736"
     inkscape:cy="584.37087"
     inkscape:window-width="1680"
     inkscape:window-height="998"
     inkscape:window-x="-8"
     inkscape:window-y="-8"
     inkscape:window-maximized="1"
     inkscape:current-layer="svg1" />
  <path
     style="fill:#000000;stroke:none;stroke-width:1"
     d="m 360.8457,335.92969 c -87.208,0 -144.45651,24.02668 -171.74609,72.08008 -27.58621,48.35002 -47.01532,72.52343 -58.28711,72.52343 -11.56841,0 -42.417102,-39.59971 -92.546875,-118.79882 C 12.755805,347.19971 0,346.90429 0,360.8457 v 414.23828 c 0,13.94142 12.755805,13.94142 38.265625,0 50.12978,-79.1991 80.978475,-118.94751 92.546875,-119.24414 11.27179,-0.29662 30.7009,23.58138 58.28711,71.63477 C 216.38919,775.82463 273.6377,800 360.8457,800 421.65401,800 510.04858,778.49513 626.0293,735.48438 742.01002,692.77025 800,636.85601 800,567.74219 800,499.51823 742.01002,443.75269 626.0293,400.44531 539.45123,368.33836 468.24577,348.21571 412.41211,340.07617 c -0.12257,1.16428 -0.22604,2.20767 -0.2793,2.96485 -0.12586,1.78925 -0.14835,3.58482 -0.22265,5.37695 0.003,8.90815 0.34231,17.80753 0.32031,26.71484 52.61456,7.623 117.35486,25.99725 194.2207,55.12305 104.11569,39.45124 156.17383,85.28017 156.17383,137.48633 0,52.20615 -52.05814,98.18377 -156.17383,137.93164 -104.11568,39.45124 -185.98366,59.17578 -245.60547,59.17578 -75.6396,0 -126.36347,-24.17538 -152.16992,-72.52539 -25.80645,-48.05339 -48.94297,-71.93139 -69.41016,-71.63477 -20.46718,0.29662 -39.450245,11.12341 -56.951167,32.48047 -17.500925,21.65369 -33.815439,45.82907 -48.943359,72.52539 V 411.12305 c 15.12792,26.69633 31.442434,50.8717 48.943359,72.52539 17.500922,21.35706 36.483987,32.18384 56.951167,32.48047 20.46719,0.29662 43.60371,-23.87875 69.41016,-72.52539 25.80645,-48.35002 76.53032,-72.5254 152.16992,-72.5254 z"
     id="path1"
     sodipodi:nodetypes="ccscsscccscsccsccsscscsccccsccc" />
  <path
     style="fill:none;stroke:#613583;stroke-width:35.0001;stroke-linecap:butt;stroke-linejoin:miter;stroke-dasharray:none;stroke-opacity:1"
     d="m 335.89404,344.46768 1.4232,53.74719 c 3.77752,142.658 62.43144,155.78188 103.30576,155.78188 40.87432,0 84.74154,-25.40464 100.21325,-115.38197 l 10.15713,-59.06989"
     id="path3"
     sodipodi:nodetypes="cszsc" />
</svg>
