<?xml version="1.0" encoding="UTF-8" standalone="no"?>
<svg
   width="1000"
   height="800"
   version="1.1"
   id="svg1"
   sodipodi:docname="143AF.svg"
   inkscape:version="1.4.3 (0d15f75, 2025-12-25)"
   xmlns:inkscape="http://www.inkscape.org/namespaces/inkscape"
   xmlns:sodipodi="http://sodipodi.sourceforge.net/DTD/sodipodi-0.dtd"
   xmlns="http://www.w3.org/2000/svg"
   xmlns:svg="http://www.w3.org/2000/svg">
  <defs
     id="defs1" />
  <sodipodi:namedview
     id="namedview1"
     pagecolor="#ffffff"
     bordercolor="#666666"
     borderopacity="1.0"
     inkscape:showpageshadow="2"
     inkscape:pageopacity="0.0"
     inkscape:pagecheckerboard="0"
     inkscape:deskcolor="#d1d1d1"
     inkscape:zoom="0.33366601"
     inkscape:cx="789.71184"
     inkscape:cy="250.25024"
     inkscape:window-width="1680"
     inkscape:window-height="998"
     inkscape:window-x="-8"
     inkscape:window-y="-8"
     inkscape:window-maximized="1"
     inkscape:current-layer="svg1"
     showguides="true">
    <sodipodi:guide
       position="236.22343,1.1368684e-13"
       orientation="0,-1"
       id="guide1"
       inkscape:locked="false" />
  </sodipodi:namedview>
  <path
     style="fill:#000000;stroke:none;stroke-width:1"
     d="m 768.18687,762.62514 q 78.30924,0 137.4861,-156.17353 59.17686,-156.17352 59.17686,-245.60623 0,-113.4594 -72.52503,-152.16907 -72.96996,-38.70968 -72.52502,-69.41046 0.44494,-30.70078 32.48053,-56.952168 32.48053,-26.251391 72.52503,-48.94327 H 610.23359 q 40.0445,22.691879 72.52503,48.94327 32.0356,26.251388 32.48053,56.952168 0.44494,30.70078 -71.63515,69.41046 -72.52502,38.70967 -72.52502,152.16907 0,89.43271 59.17686,245.60623 59.6218,156.17353 137.93103,156.17353 z m 0,37.37486 Q 664.51613,800 600.44494,626.02892 535.92881,452.05784 535.92881,360.84538 q 0,-130.81201 72.52503,-171.74638 72.08009,-41.37931 71.63515,-58.28699 Q 679.64405,113.4594 560.84538,38.264739 539.93326,0 560.84538,0 h 414.23805 q 20.91212,0 -0.88988,38.264739 -118.79867,75.194661 -118.79867,92.547271 0,16.90768 72.52503,58.28699 Q 1000,230.03337 1000,360.84538 1000,452.05784 935.48387,626.02892 870.5228,800 768.18687,800 Z"
     id="path1" />
  <path
     style="fill:#000000;stroke:none;stroke-width:1"
     d="m 426.2191,123.57915 c -8.69423,-0.041 -17.96217,4.36829 -27.80469,13.22657 -10.87364,10.12373 -24.18556,15.18555 -39.93359,15.18555 -16.12299,0 -29.24541,6.37268 -39.36914,19.12109 -10.12374,12.74841 -12.3743,25.87278 -6.75,39.37109 5.62429,13.49832 3.93637,26.99583 -5.0625,40.49414 -8.62392,13.87327 -20.80861,21.93584 -36.55664,24.18555 -15.37308,1.87477 -26.99708,9.93537 -34.8711,24.18359 -7.49906,14.24822 -7.31151,27.74769 0.5625,40.4961 8.24897,12.7484 9.37425,26.43347 3.375,41.05664 -5.99925,14.62317 -16.68551,24.3717 -32.05859,29.24609 -14.99813,4.8744 -24.74666,14.81048 -29.2461,29.8086 -4.49943,15.37308 -1.68818,28.49745 8.43555,39.37109 10.49869,10.87364 14.24767,24.18361 11.24805,39.93164 -2.99963,15.37308 -11.43533,26.43444 -25.3086,33.18359 -13.87326,7.12412 -21.55878,18.37302 -23.05859,33.7461 -1.49981,15.37308 3.74955,27.74531 15.74805,37.11914 12.37345,9.37383 18.37104,22.12311 17.99609,38.24609 -0.37495,15.74804 -7.31028,27.55958 -20.80859,35.4336 -13.49832,7.49906 -20.24805,19.12111 -20.24805,34.86914 0,16.12298 6.74973,28.30962 20.24805,36.55859 12.20922,7.46119 19.04914,17.99045 20.52167,31.58686 h 52.94555 c -1.38796,-13.32761 -7.87992,-23.85678 -19.47504,-31.58686 -12.7484,-8.24897 -19.30864,-20.24806 -19.68359,-35.99609 -0.37495,-16.12298 5.81019,-27.93258 18.55859,-35.43164 13.12336,-7.87402 20.06065,-19.12292 20.81055,-33.7461 1.12486,-14.62317 -4.49959,-26.43472 -16.87305,-35.43359 -12.37345,-8.99887 -17.62281,-21.55866 -15.74804,-37.68164 1.49981,-16.49794 9.18728,-27.74685 23.06054,-33.7461 13.87327,-5.99925 21.93388,-15.56023 24.1836,-28.68359 2.62467,-13.12335 -1.12431,-25.12245 -11.24805,-35.99609 -10.12373,-11.2486 -12.93694,-24.74807 -8.4375,-40.4961 4.49944,-16.12298 14.24797,-26.05906 29.2461,-29.80859 14.99812,-4.12448 24.93615,-12.18509 29.81054,-24.18359 4.87439,-11.62355 3.37402,-23.81019 -4.5,-36.5586 -7.49906,-12.7484 -7.6866,-26.43347 -0.5625,-41.05664 7.49907,-14.62317 18.93552,-22.87328 34.3086,-24.74805 15.74803,-2.24972 26.99498,-8.80995 33.74414,-19.68359 6.74916,-10.87364 7.49934,-23.06028 2.25,-36.55859 -5.24934,-13.49831 -0.37508,-27.55847 14.62304,-42.18164 15.37308,-14.62318 26.99708,-20.62272 34.8711,-17.99805 8.24896,2.99962 16.49908,2.43698 24.74804,-1.6875 47.2441,0 73.1158,20.4348 77.61524,61.30469 4.49944,40.49494 23.80895,60.74218 57.92969,60.74218 l 17.03478,-59.6369 6.8073,-36.59202 c -22.22732,16.01293 -28.1537,-5.9446 -36.77763,-34.816 -8.62392,-29.24634 -49.49352,-43.8711 -122.60938,-43.8711 -1.21859,-0.18748 -2.44937,-0.28321 -3.6914,-0.28906 z m 25.625,22.78712 c 52.86839,0 81.36575,14.99788 85.49023,44.99414 4.12449,29.99625 14.05631,43.81417 25.30491,43.81417 l -2.24631,36.61356 c -17.6228,0 -29.61994,-18.74687 -35.99415,-56.24219 -5.99925,-37.49531 -30.18498,-56.24414 -72.55468,-56.24414 z"
     id="path3"
     sodipodi:nodetypes="scsssccccscccccscccssccccccscsccccccccsscccccccccscsccccc" />
</svg>
