<?xml version="1.0" encoding="UTF-8" standalone="no"?>
<svg
   width="635.15021"
   height="1000"
   version="1.1"
   id="svg1"
   sodipodi:docname="143C2.svg"
   inkscape:version="1.4.2 (f4327f4, 2025-05-13)"
   xmlns:inkscape="http://www.inkscape.org/namespaces/inkscape"
   xmlns:sodipodi="http://sodipodi.sourceforge.net/DTD/sodipodi-0.dtd"
   xmlns:xlink="http://www.w3.org/1999/xlink"
   xmlns="http://www.w3.org/2000/svg"
   xmlns:svg="http://www.w3.org/2000/svg">
  <defs
     id="defs1" />
  <sodipodi:namedview
     id="namedview1"
     pagecolor="#ffffff"
     bordercolor="#666666"
     borderopacity="1.0"
     inkscape:showpageshadow="2"
     inkscape:pageopacity="0.0"
     inkscape:pagecheckerboard="0"
     inkscape:deskcolor="#d1d1d1"
     inkscape:zoom="0.18875"
     inkscape:cx="-18.543046"
     inkscape:cy="1947.0199"
     inkscape:window-width="1680"
     inkscape:window-height="998"
     inkscape:window-x="-8"
     inkscape:window-y="-8"
     inkscape:window-maximized="1"
     inkscape:current-layer="g4"
     showguides="true">
    <sodipodi:guide
       position="318.78133,944.3517"
       orientation="1,0"
       id="guide1"
       inkscape:locked="false" />
  </sodipodi:namedview>
  <path
     style="fill:#e5a50a;stroke:none;stroke-width:1"
     d="m 480.1614,250.41736 85.69839,355.03616 c 22.25931,77.35114 21.14635,163.606 -13.91209,227.60155 -8.34724,14.46855 -19.4769,27.26766 -31.71952,40.06678 -5.56483,-6.6778 -11.68615,-12.24263 -17.25097,-19.47691 -60.10017,-80.69004 -97.38454,-194.21258 -97.38454,-319.97773 0,-107.95771 28.38064,-205.89872 74.56873,-283.24985 z m -324.98607,-3.3389 c 47.85754,77.90762 76.79465,176.9616 76.79465,286.58875 0,125.76515 -37.28437,239.28769 -97.38453,319.97773 -6.12131,7.79076 -13.35559,13.91209 -19.47691,21.14635 C 102.86592,861.99218 92.292742,848.08011 83.945499,833.05507 48.887067,769.05952 47.774102,682.80466 70.033422,605.45352 Z m 163.606,-191.430159 c 36.17139,0 65.10851,2.225933 86.81134,15.581525 22.81581,13.355592 42.8492,40.066784 57.31775,104.618804 l 5.56483,23.92877 c -61.76961,87.92431 -99.61045,205.34223 -99.61045,333.88981 0,134.11241 40.62326,255.98218 106.28825,344.46298 5.56483,7.23428 11.68614,13.91207 17.25097,21.14636 -39.51028,27.26767 -95.15859,45.63161 -173.62269,46.74457 -78.46411,-1.11296 -134.11241,-19.4769 -174.17919,-46.74457 6.12132,-7.23429 12.24263,-13.91208 17.80746,-21.14636 65.66499,-88.4808 105.73178,-210.35057 105.73178,-344.46298 0,-129.10406 -38.39733,-247.63494 -100.72343,-335.55926 l 5.00835,-22.25932 C 186.89485,111.29661 206.92824,84.585418 229.74405,71.229826 251.44688,57.874234 282.60993,55.648301 318.78133,55.648301 Z M 309.8776,0 C 274.26269,0.55648301 235.30888,2.7824151 201.9199,22.815803 162.96608,45.631607 134.58545,90.70673 118.44744,163.606 L 17.724019,590.98495 C -6.7612338,678.35279 -10.100132,777.96325 34.974992,859.20976 79.493633,939.8998 171.86981,997.21755 315.44243,999.99997 h 5.00834 C 464.57988,997.21755 555.84309,939.8998 600.36173,859.20976 644.88037,777.96325 644.32388,678.35279 619.28216,590.98495 L 516.88928,163.606 C 500.75128,90.70673 472.37064,45.631607 433.41683,22.815803 398.91488,2.225932 360.51756,0 323.78967,0 Z"
     id="path1-9" />
  <path
     style="fill:#000000;stroke:none;stroke-width:1"
     d="m 317.91232,55.06118 c 36.15128,0 65.62848,2.224695 87.31924,15.572859 22.80312,13.348165 43.38154,40.600671 57.84205,105.116801 0,0 0,0 0,0 l 101.77974,428.25362 c 0,0.55618 0.55617,1.11234 0.55617,1.11234 22.24694,77.30812 21.69076,162.95885 -13.34814,226.91881 C 517.02245,895.43939 448.6131,942.71414 317.91232,944.93883 187.21154,942.71414 118.80219,895.43939 83.76326,832.03561 48.724328,768.07565 48.168155,682.42492 70.415095,605.1168 c 0,0 0,-0.55616 0,-1.11234 L 172.75102,175.75084 c 0,0 0,0 0,0 C 187.21154,111.23471 207.78996,83.982204 230.59307,70.634039 252.28384,57.285875 281.76104,55.06118 317.91232,55.06118 Z M 317.35614,0 c -2.22468,0 -3.89321,0 -6.1179,0 0,0 0,0 -0.55617,0 0,0 -0.55618,0 -1.11236,0 0,0 -0.55616,0 -0.55616,0 -35.59511,0.55617354 -72.85874,3.3370412 -106.22915,23.359288 -38.93215,22.803116 -67.297,67.296999 -83.42603,140.155732 l -101.77976,426.5851 -0.556173,1.11235 C -7.4491987,678.53171 -9.1177193,777.53061 35.932337,858.73194 80.426219,939.3771 172.19486,997.21915 315.68762,1000 v 0 c 0.55618,0 1.66852,0 2.2247,0 0.55617,0 1.11235,0 1.66852,0 v 0 c 144.04895,-2.78085 235.81758,-60.6229 280.31144,-141.26806 44.49389,-81.20133 43.38153,-180.20023 18.35373,-267.51947 v -1.11235 L 516.46627,163.51502 C 500.33724,90.656287 471.97239,46.162404 433.04024,23.359288 398.55749,2.7808677 360.73769,0 324.03023,0 c -2.2247,0 -4.44939,0 -6.67409,0 z"
     id="path1" />
  <g
     id="g3">
    <g
       id="g4">
      <path
         style="fill:none;stroke:#613583;stroke-width:35;stroke-linecap:butt;stroke-linejoin:miter;stroke-dasharray:none;stroke-opacity:1"
         d="M 116.55629,909.27153 C 227.15232,750.33113 255.44346,727.15232 318.78133,727.15232"
         id="path2"
         sodipodi:nodetypes="cc" />
      <path
         style="fill:none;stroke:#613583;stroke-width:35;stroke-linecap:butt;stroke-linejoin:miter;stroke-dasharray:none;stroke-opacity:1"
         d="M 141.0596,190.06623 C 299.96136,419.92037 289.63735,675.08152 50.331126,813.24503"
         id="path3"
         sodipodi:nodetypes="cc" />
    </g>
  </g>
  <use
     x="0"
     y="0"
     xlink:href="#g3"
     id="use4"
     transform="matrix(-1,0,0,1,637.56266,0)" />
</svg>
