<?xml version="1.0" encoding="UTF-8" standalone="no"?>
<svg
   width="1100"
   height="891.64764"
   version="1.1"
   id="svg1"
   sodipodi:docname="13344.svg"
   inkscape:version="1.4.2 (f4327f4, 2025-05-13)"
   xmlns:inkscape="http://www.inkscape.org/namespaces/inkscape"
   xmlns:sodipodi="http://sodipodi.sourceforge.net/DTD/sodipodi-0.dtd"
   xmlns="http://www.w3.org/2000/svg"
   xmlns:svg="http://www.w3.org/2000/svg">
  <defs
     id="defs1" />
  <sodipodi:namedview
     id="namedview1"
     pagecolor="#ffffff"
     bordercolor="#666666"
     borderopacity="1.0"
     inkscape:showpageshadow="2"
     inkscape:pageopacity="0.0"
     inkscape:pagecheckerboard="0"
     inkscape:deskcolor="#d1d1d1"
     inkscape:zoom="0.84674704"
     inkscape:cx="162.38616"
     inkscape:cy="562.74186"
     inkscape:window-width="1680"
     inkscape:window-height="998"
     inkscape:window-x="-8"
     inkscape:window-y="-8"
     inkscape:window-maximized="1"
     inkscape:current-layer="svg1" />
  <path
     style="fill:#000000;stroke:none;stroke-width:1"
     d="M 724.41674,545.8008 V 673.33843 H 849.44379 V 545.8008 Z m 166.20062,0 v 127.53763 h 80.33866 V 545.8008 Z M 683.24318,673.33843 V 545.8008 H 599.3897 V 673.33843 Z M 430.17639,586.97436 c -50.88115,42.51255 -86.86618,83.51874 -107.95508,123.01858 -21.0889,39.83459 -31.63335,73.14166 -31.63335,99.92122 0,25.77532 11.88343,38.66298 35.65028,38.66298 23.43211,0 35.14817,-25.94269 35.14817,-77.82808 0,-52.88962 22.92999,-114.14785 68.78998,-183.7747 z m 59.24976,-41.17356 c -60.92349,92.38946 -91.38523,173.23024 -91.38523,242.52234 0,68.95735 -24.93846,103.43603 -74.81538,103.43603 -49.87692,0 -74.81538,-25.60795 -74.81538,-76.82385 0,-50.88115 20.25204,-102.76654 60.75612,-155.65616 C 350.0051,606.38954 396.3672,567.89393 448.25259,543.79233 355.86312,539.10591 288.57949,476.5087 246.40169,356.0007 h -5.52328 c 16.73722,211.55849 86.86618,317.33773 210.38688,317.33773 H 559.22037 V 545.8008 Z M 37.019051,182.77046 c -7.029633,1.33898 -6.0254,7.19701 3.0127,17.57408 26.110066,-1.67372 43.684149,-4.01693 52.722248,-7.02963 9.372851,-3.0127 14.394011,-2.00847 15.063501,3.0127 0.66949,5.35591 -2.51059,7.8665 -9.540218,7.53175 -6.694889,-0.33475 -17.574083,0.50211 -32.637582,2.51058 -15.063499,2.00847 -21.758388,5.02117 -20.084666,9.0381 1.673722,4.01693 20.252037,3.68219 55.734946,-1.00423 35.14817,-4.68642 66.61414,-3.0127 94.39793,5.02117 27.44905,8.36861 52.38751,7.36437 74.81538,-3.0127 22.09313,-10.04233 33.1397,-23.26474 33.1397,-39.66722 0,-17.40671 -2.00847,-29.12277 -6.0254,-35.14816 -4.01693,-6.0254 -7.53175,-9.0381 -10.54445,-9.0381 -2.00847,15.73299 -9.54022,29.29013 -22.59525,40.67144 l -9.0381,-7.02963 c 6.0254,-6.0254 10.37708,-17.40671 13.05504,-34.14393 2.34321,-16.73722 -8.20124,-46.362103 -31.63335,-88.874648 h -3.0127 c 15.0635,47.868452 22.59525,77.325958 22.59525,88.372528 0,10.04233 -4.01693,19.24781 -12.0508,27.61642 l -7.53175,-10.54445 c 5.69065,-2.67795 9.54021,-7.02963 11.54868,-13.05503 2.00847,-6.36015 -4.51905,-33.1397 -19.58255,-80.338668 v 56.739178 c 0,4.68643 -3.0127,7.02964 -9.0381,7.02964 -50.88115,0 -81.17552,6.36014 -90.88311,19.08043 -10.04233,12.72029 -21.0889,21.42364 -33.139701,26.11006 -11.716055,4.68643 -31.298605,10.8792 -58.747648,18.57832 z M 187.65405,155.15404 c -6.69489,4.01693 -16.40248,7.36438 -29.12277,10.04234 -12.72029,2.67795 -19.08043,-0.66949 -19.08043,-10.04234 0,-9.70759 6.36014,-13.72452 19.08043,-12.05079 12.72029,1.67372 22.42788,5.69065 29.12277,12.05079 z m 11.54868,-56.739177 c -2.67795,-8.703355 -7.197,-23.097366 -13.55715,-43.182031 v 43.182031 z m 0,153.145577 C 169.07573,234.48847 131.9191,229.29994 87.732833,235.99483 43.546568,242.68972 21.453435,234.48848 21.453435,211.39111 13.419569,206.0352 8.7331465,199.17294 7.3941688,190.80433 -4.9913751,175.07134 -1.811303,166.03324 16.934385,163.69003 c 18.745689,-2.34321 37.491377,-7.19701 56.237065,-14.56138 19.080433,-7.02963 35.31554,-17.40671 48.70531,-31.13124 9.70759,-13.05503 24.77109,-19.582547 45.1905,-19.582547 V 14.561383 C 167.06726,4.8537943 170.91682,0 178.61595,0 c 4.01693,0 8.70335,4.8537943 14.05926,14.561383 9.70759,12.720289 17.23934,25.273205 22.59525,37.658749 V 14.561383 C 215.27046,4.8537943 217.4463,0 221.79798,0 c 10.71182,0 18.91306,4.8537943 24.60371,14.561383 27.78379,49.876921 41.67569,80.338663 41.67569,91.385227 9.0381,0 18.24357,5.85803 27.61641,17.57409 9.0381,12.0508 13.55715,30.127 13.55715,54.22859 0,23.76686 -7.69912,41.67569 -23.09736,53.72649 -15.39825,12.0508 -29.95963,18.74569 -43.68415,20.08466 24.1016,169.71543 107.62034,254.57314 250.55621,254.57314 H 1100 v 39.66722 h -88.3725 V 673.33843 H 1100 v 39.66721 H 431.18062 c -153.31295,0 -230.63891,-153.81507 -231.97789,-461.4452 z M 536.62512,506.13358 V 357.00494 h 371.56632 v 149.12864 z m 39.1651,-107.95508 1.00423,107.95508 H 868.02211 V 398.1785 Z"
     id="path1"
     sodipodi:nodetypes="cccccccccccccccccsssccsssccccsccccccccsscccssccccccsccccssccccsssccccccsccscccssccsscccsscsccccccsccccccccccc" />
</svg>
