<?xml version="1.0" encoding="UTF-8" standalone="no"?>
<svg
   width="1100"
   height="1000"
   version="1.1"
   id="svg1"
   sodipodi:docname="A121.svg"
   inkscape:version="1.4.2 (f4327f4, 2025-05-13)"
   xmlns:inkscape="http://www.inkscape.org/namespaces/inkscape"
   xmlns:sodipodi="http://sodipodi.sourceforge.net/DTD/sodipodi-0.dtd"
   xmlns="http://www.w3.org/2000/svg"
   xmlns:svg="http://www.w3.org/2000/svg">
  <defs
     id="defs1" />
  <sodipodi:namedview
     id="namedview1"
     pagecolor="#ffffff"
     bordercolor="#666666"
     borderopacity="1.0"
     inkscape:showpageshadow="2"
     inkscape:pageopacity="0.0"
     inkscape:pagecheckerboard="0"
     inkscape:deskcolor="#d1d1d1"
     showguides="true"
     inkscape:zoom="1.51"
     inkscape:cx="327.48344"
     inkscape:cy="381.78808"
     inkscape:window-width="1680"
     inkscape:window-height="998"
     inkscape:window-x="-8"
     inkscape:window-y="-8"
     inkscape:window-maximized="1"
     inkscape:current-layer="svg1">
    <sodipodi:guide
       position="429.17727,841.391"
       orientation="1,0"
       id="guide2"
       inkscape:locked="false" />
    <sodipodi:guide
       position="535.19934,841.391"
       orientation="1,0"
       id="guide3"
       inkscape:locked="false" />
    <sodipodi:guide
       position="482.61242,893.12974"
       orientation="1,0"
       id="guide4"
       inkscape:locked="false" />
    <sodipodi:guide
       position="407.12471,840.54282"
       orientation="1,0"
       id="guide5"
       inkscape:locked="false" />
    <sodipodi:guide
       position="407.12471,840.54282"
       orientation="0,-1"
       id="guide6"
       inkscape:locked="false" />
  </sodipodi:namedview>
  <path
     id="path1"
     style="fill:#000000;stroke:none;stroke-width:0.999999"
     d="M 62.765625,0 V 174.72461 H 83.96875 L 146.73438,94.996094 H 443.32812 C 420.84417,108.6987 407.12474,133.12664 407.125,159.45703 c 1.3e-4,26.73584 14.14229,51.47719 37.17969,65.04492 -27.82343,6.14044 -47.56755,28.56532 -59.23242,67.27149 -7.91631,9.61263 -16.39811,22.61751 -25.44532,39.01562 -5.08908,10.74357 -5.37128,16.82272 -0.84765,18.23633 4.52363,1.41361 8.19816,3.53406 11.02539,6.36133 -8.09059,5.39372 -2.32463,9.3733 1.69726,10.17773 1.13091,-0.56549 0.42343,0.28311 -2.12109,2.54493 -2.54452,2.2618 -2.1212,4.38225 1.27148,6.36132 3.39272,1.97911 5.08985,7.77405 5.08985,17.38672 0,9.04721 5.93806,13.28811 17.8125,12.72266 9.61271,0.56545 16.96369,0.001 22.05273,-1.69531 l 1.69531,11.02539 c -26.01073,3.95817 -51.73827,13.85293 -77.18359,29.68554 -31.09981,-8.48176 -80.57756,-15.26639 -148.43164,-20.35547 -5.08907,-39.01612 -13.85307,-91.88616 -26.29297,-158.60937 7.35085,-20.35621 13.57111,-45.23522 18.66016,-74.63867 -10.74357,1.69636 -18.0946,10.46036 -22.05274,26.29297 -6.21998,17.52897 -18.94264,20.78018 -38.16797,9.7539 -19.22533,-11.02631 -35.058148,-27.84877 -47.498042,-50.46679 -7.916308,1.69636 -9.754552,8.48297 -5.513672,20.35742 7.96373,22.29845 24.90169,42.95706 64.037114,73.79101 -5.08908,67.85412 -1.97896,131.46749 9.33007,190.83985 28.83799,11.30903 67.85459,20.63743 117.04883,27.98828 49.1942,7.35085 76.61891,18.37834 82.27344,33.08008 l -0.84766,-0.84766 c 3.39272,37.31976 8.48023,62.90622 15.26563,76.75977 6.7854,13.85355 21.20521,75.91086 43.25781,186.17382 L 254.45312,675.14844 c -22.05256,-19.79079 -41.27768,-29.68555 -57.67578,-29.68555 -46.93243,0.56545 -67.28831,19.79057 -61.06836,57.67578 l 24.59571,176.41992 c -35.05795,9.04717 -51.45514,35.90553 -49.19336,80.57618 -15.832617,2.82726 -30.534633,7.21119 -44.105471,13.14843 -13.570801,5.93721 -27.142051,8.48099 -40.71289,7.63282 C 12.722168,980.06786 3.958172,986.4292 0,1000 h 706.53125 c -14.70175,-28.27254 -35.34178,-39.44115 -61.91797,-33.50391 -26.57619,5.93723 -44.67053,-5.79572 -54.2832,-35.19921 -9.61267,-29.40341 -25.72765,-35.62176 -48.3457,-18.65821 21.48713,-41.27797 22.6179,-84.53545 3.39257,-129.77148 1.13091,-98.38848 11.30983,-186.31643 30.53516,-263.78321 v -0.84765 c 5.08904,-13.57084 31.38298,-23.1834 78.88086,-28.83789 47.49792,-5.65453 85.66595,-15.26709 114.50391,-28.83789 11.30902,-56.54509 14.41911,-119.0277 9.33007,-187.44727 38.49147,-29.16024 55.92666,-50.61622 64.03711,-75.48828 4.2407,-13.00535 2.40268,-19.79092 -5.51367,-22.05273 -12.43989,25.44529 -28.27272,42.83309 -47.49805,53.85937 -19.22533,11.02631 -31.94801,7.77506 -38.16796,-9.75391 -3.95817,-15.26719 -11.30917,-24.03115 -22.05274,-26.29296 5.65453,29.96894 11.87476,55.13012 18.66016,75.48632 -12.43993,66.15776 -20.92169,118.7456 -25.44532,157.76172 -59.93777,3.39272 -107.15395,9.33074 -141.64648,17.8125 -12.4399,-11.30903 -36.47035,-22.0543 -72.09375,-32.23242 v -27.98828 c 14.13626,-5.08904 27.70754,-15.55016 40.71289,-31.38281 13.00539,-15.83261 19.50781,-37.60346 19.50781,-65.31055 0,-27.70709 -12.15828,-46.36585 -36.47265,-55.97852 -4.98687,-1.97155 -10.11069,-3.65222 -15.3711,-5.04101 25.07128,-12.96341 40.81651,-38.83024 40.81641,-67.05469 2.6e-4,-26.33039 -13.71918,-50.75833 -36.20313,-64.460936 h 249.09571 l 53.43554,79.728516 H 844.7832 V 0 Z M 83.96875,20.355469 H 824.42773 V 134.01172 L 782.01953,74.638672 H 135.70898 L 83.96875,134.01172 Z M 477.62891,235.6875 c 10.95561,0.63613 23.07714,2.65027 36.36523,6.04297 26.57622,6.78541 39.86524,22.33598 39.86524,46.65039 0,24.31441 -8.90509,44.95249 -26.7168,61.91602 -17.81172,16.96352 -29.26252,21.48666 -34.35156,13.57031 -5.08908,-7.35085 -0.56598,-18.09422 13.57031,-32.23047 26.85706,-26.85714 15.86445,-69.47102 -35.62305,-44.95313 -7.91634,-9.04721 -26.85921,-15.83183 -56.82812,-20.35547 5.65449,-14.7017 17.10529,-24.17318 34.35156,-28.41406 8.62313,-2.12044 18.41157,-2.86269 29.36719,-2.22656 z m -71.35157,44.21094 c 24.31437,1.69632 44.10394,7.91658 59.3711,18.66015 -0.56545,9.04721 3.11099,9.47054 11.02734,1.27149 15.86093,-16.42735 39.03922,-8.95337 27.14063,14.84375 -5.65446,11.30903 -12.86441,20.92158 -21.62891,28.83789 -8.76451,7.91631 -10.88496,15.69062 -6.36133,23.32422 4.52362,7.6336 7.91791,14.27715 10.17969,19.93164 v 41.56054 c 33.92704,10.17813 54.84736,18.09551 62.76367,23.75 7.91634,5.65454 6.22113,37.03789 -5.08789,94.14844 C 532.37261,603.3371 523.89082,682.7813 518.23633,784.5625 L 438.50781,802.375 C 406.27713,668.36312 386.90894,595.7016 380.40625,584.39258 c -6.50269,-11.30903 -11.87435,-37.60102 -16.11523,-78.87891 -4.24088,-41.27793 21.34557,-67.00743 76.75976,-77.18555 0,-25.44527 -9.61256,-37.0352 -28.83789,-34.77343 -19.22533,2.26181 -27.42297,-4.24261 -24.5957,-19.50977 11.87448,-6.21999 16.11537,-10.88421 12.72265,-13.99414 -3.39268,-3.11001 -9.6129,-4.94822 -18.66015,-5.51367 0,-5.08904 -4.5231,-9.32994 -13.57031,-12.72266 9.0472,-20.35624 17.81116,-34.20969 26.29296,-41.56054 8.48176,-4.52363 17.24576,-4.66471 26.29297,-0.42383 9.04721,4.24088 18.09537,7.20985 27.14258,8.90625 v -5.9375 c -6.21999,-0.56545 -13.85513,-3.25031 -22.90234,-8.05664 -9.04721,-4.80633 -18.37561,-5.51382 -27.98828,-2.1211 3.95817,-5.65453 7.06826,-9.89542 9.33007,-12.72265 z m 88.48047,15.27929 c -10.81295,-0.52735 -19.43439,9.96876 -22.32422,13.98243 -5.08908,7.06815 -6.50204,12.58093 -4.24023,16.53906 -9.02616,4.51311 -11.55373,13.46716 -3.39258,16.96484 8.58183,3.67789 29.58948,-18.04688 34.35156,-29.6875 4.64638,-11.35785 1.75108,-17.49906 -4.39453,-17.79883 z m -86.9707,5.93555 c -3.26902,0.0994 -6.31728,0.94288 -9.14453,2.5332 l -8.48047,7.63477 v 5.9375 h 4.24023 c 11.30899,5.65449 23.74948,5.65449 37.32032,0 l 13.57031,2.54297 v -6.78516 l -12.72266,-1.69531 c -9.32995,-6.99743 -17.59137,-10.38664 -24.7832,-10.16797 z m 83.54687,2.13086 c 2.29604,0.10933 3.20563,1.51714 2.72852,4.2207 -0.84816,4.80633 -3.10973,9.61164 -6.78516,14.41797 -3.67543,4.80633 -7.34996,7.91643 -11.02539,9.33008 -3.67543,1.41361 -3.67543,-0.14043 0,-4.66406 3.67543,-4.52359 3.67543,-6.07963 0,-4.66602 -3.67543,1.41361 -4.38287,6.5e-4 -2.12109,-4.24023 2.26181,-4.24088 5.37191,-8.3407 9.33008,-12.29883 3.46338,-1.48431 6.08724,-2.18464 7.87304,-2.09961 z m -85.90625,2.94727 c -1.69636,2.82727 -1.69636,5.65515 0,8.48242 -3.39272,-0.56545 -5.93645,-1.69622 -7.63281,-3.39258 1.13091,-2.26177 3.67464,-3.95889 7.63281,-5.08984 z m 10.17969,1.69726 11.02539,5.9375 c -3.95813,1.13091 -8.19902,1.69531 -12.72265,1.69531 3.39272,-1.69636 3.95907,-4.24013 1.69726,-7.63281 z m 51.73828,23.74805 c 3.95817,2.26177 4.66366,4.38222 2.11914,6.36133 -2.54456,1.97907 -4.38084,1.83794 -5.51172,-0.42383 -1.13091,-2.26181 -1e-4,-4.24114 3.39258,-5.9375 z m -76.33593,11.875 c 0,2.83038 -2.69033,4.94249 -7.20899,0.42383 -5.42662,-5.42662 -8.59944,-2.89405 -7.21094,1.27148 1.69636,-1.69636 3.81681,-0.98887 6.36133,2.12109 5.69781,6.96399 11.51625,0.15949 11.02735,-4.24023 -0.61564,-5.54022 -2.96875,-2.78801 -2.96875,0.42383 z M 378.29297,358.5 c 2.05271,-0.0673 3.3431,0.51442 13.56445,1.97461 3.95813,0.56545 5.6553,0.84766 5.08985,0.84766 h -19.50782 c -3.08897,0 -2.3486,-2.71727 0.85352,-2.82227 z m 17.80469,5.36719 c -3.89416,3.05571 -8.93126,4.36712 -13.57032,5.9375 -4.51261,0 -6.01661,-1.9258 -2.54492,-4.24024 z M 194.23242,698.04883 h 36.4707 l 162.85157,113.65625 -183.20703,55.13086 c 3.95817,-84.81764 -1.4135,-141.07998 -16.11524,-168.78711 z m 328.24414,106.02148 c 12.43997,48.06333 4.80674,89.90789 -22.90039,125.53125 -40.71248,23.74899 -90.47242,27.28237 -149.27929,10.60156 -58.80692,-16.68078 -114.5029,-13.1454 -167.08985,10.60352 5.08907,-18.65988 48.62877,-49.47688 130.61914,-92.45117 z"
     sodipodi:nodetypes="cccccccccsccsssccccccccscsccsccsccccccssccssccccsccscscccccccssscccccccccccccccsssscsccssccssssccssccsscscscccsccsccsscssssccccccccsssssssscscccccccccsscsscsssssssscccccccccccsccc" />
  <circle
     style="fill:#f9f06b;fill-rule:evenodd;stroke:none;stroke-width:40;stroke-linecap:round;stroke-miterlimit:2"
     id="path6"
     cx="482.61243"
     cy="159.45718"
     r="53.435158" />
</svg>
