<?xml version="1.0" encoding="UTF-8" standalone="no"?>
<svg
   width="800"
   height="1000"
   id="svg2214"
   sodipodi:version="0.32"
   inkscape:version="1.4.2 (f4327f4, 2025-05-13)"
   sodipodi:docname="A355.svg"
   inkscape:output_extension="org.inkscape.output.svg.inkscape"
   sodipodi:modified="true"
   version="1.0"
   xmlns:inkscape="http://www.inkscape.org/namespaces/inkscape"
   xmlns:sodipodi="http://sodipodi.sourceforge.net/DTD/sodipodi-0.dtd"
   xmlns="http://www.w3.org/2000/svg"
   xmlns:svg="http://www.w3.org/2000/svg"
   xmlns:rdf="http://www.w3.org/1999/02/22-rdf-syntax-ns#"
   xmlns:cc="http://creativecommons.org/ns#"
   xmlns:dc="http://purl.org/dc/elements/1.1/">
  <metadata
     id="metadata2221">
    <rdf:RDF>
      <cc:Work
         rdf:about="">
        <dc:format>image/svg+xml</dc:format>
        <dc:type
           rdf:resource="http://purl.org/dc/dcmitype/StillImage" />
      </cc:Work>
    </rdf:RDF>
  </metadata>
  <defs
     id="defs2219" />
  <sodipodi:namedview
     inkscape:window-height="998"
     inkscape:window-width="1680"
     inkscape:pageshadow="2"
     inkscape:pageopacity="0.0"
     guidetolerance="10.0"
     gridtolerance="10.0"
     objecttolerance="10.0"
     borderopacity="1.0"
     bordercolor="#666666"
     pagecolor="#ffffff"
     id="base"
     inkscape:showpageshadow="2"
     inkscape:pagecheckerboard="0"
     inkscape:deskcolor="#d1d1d1"
     inkscape:zoom="0.25"
     inkscape:cx="550"
     inkscape:cy="202"
     inkscape:window-x="-8"
     inkscape:window-y="-8"
     inkscape:window-maximized="1"
     inkscape:current-layer="svg2214"
     showguides="true">
    <sodipodi:guide
       position="440.74805,980.77344"
       orientation="1,0"
       id="guide18"
       inkscape:locked="false" />
  </sodipodi:namedview>
  <path
     id="path2216"
     style="fill:#000000;stroke:none;stroke-width:51.2683"
     d="M 440.74805 0 C 417.63552 0 403.66016 38.104743 403.66016 58.003906 C 403.66016 69.062825 410.47545 78.621457 413.51172 81.708984 L 320.75 81.708984 L 269.31836 81.708984 L 269.31836 129.77344 L 430.06641 129.77344 C 425.66515 130.06065 421.20991 130.57451 416.71484 131.375 C 394.74168 135.28806 379.07951 154.73849 371.85547 189.05273 C 367.03947 196.27678 361.85401 205.24853 355.83398 217.89062 C 352.82397 225.71669 354.12454 231.10657 357.43555 232.31055 C 360.74661 233.51459 362.03967 235.3092 363.8457 237.11523 C 360.83568 238.92126 359.73764 239.11627 360.64062 240.32031 C 361.53861 241.51762 364.60758 242.90622 367.00977 243.51367 C 366.55692 243.89604 365.15062 245.20609 363.8457 246.72852 C 362.03967 248.83555 362.73831 250.33117 365.44727 251.53516 C 368.15634 252.7392 369.95291 255.12841 370.25391 261.14844 C 370.55485 267.16851 373.74867 270.46071 378.26367 270.76172 C 382.77872 271.06267 388.85772 272.36328 399.0918 272.36328 L 402.29688 285.17969 C 393.26677 291.19976 382.29396 293.79343 370.25391 293.19141 C 358.21381 292.58942 346.74495 301.3661 335.00586 318.82422 C 323.26678 336.28231 310.70181 349.94537 296.55469 360.48047 C 282.4076 371.01553 268.34696 388.66939 253.29688 413.35156 C 211.75858 418.16761 167.27667 424.75013 120.32031 432.57617 L 120.32031 430.97461 C 116.10628 427.66359 110.90455 425.22041 105.90039 422.96289 L 105.90039 373.29688 C 105.90039 338.98264 103.06354 313.31921 93.083984 301.20117 C 77.656936 282.46832 54.68175 275.5664 30.601562 275.56641 C 23.979506 275.56641 18.996593 276.96545 12.976562 278.77148 C 8.7625477 287.19952 8.7625477 292.78251 12.976562 296.39453 C 18.996593 298.80255 24.979076 299.59961 32.203125 299.59961 C 50.865277 300.8036 69.047174 306.38034 77.0625 322.0293 C 82.070548 331.80691 78.664062 350.42068 78.664062 373.29688 L 78.664062 416.55469 C 69.817291 415.72557 60.252269 415.278 49.826172 416.55469 C 47.418165 422.57475 52.408496 427.56704 62.642578 429.37305 C 62.0695 452.86859 66.963144 464.58057 78.664062 464.61914 L 78.664062 650.4668 C 61.205929 633.61065 36.873029 628.0277 4.9667969 632.84375 C -1.655226 641.2718 -1.655226 647.45674 4.9667969 650.4668 C 35.067016 655.28295 53.913493 662.06041 62.642578 672.89648 C 71.371627 683.73261 77.460047 692.9088 78.664062 700.13281 C 78.664062 703.14278 78.062072 708.32824 78.664062 716.1543 C 61.205929 698.6962 36.873029 693.11321 4.9667969 698.53125 C -1.655226 701.54121 -1.655226 707.72624 4.9667969 716.1543 C 35.067016 720.97044 53.913493 729.05043 62.642578 740.1875 C 71.371627 751.32457 77.460048 759.19824 78.664062 765.82031 L 78.664062 858.74414 L 105.90039 858.74414 L 105.90039 765.82031 C 107.10442 759.19824 112.89181 751.32457 121.92188 740.1875 C 130.95193 729.05043 149.49939 720.36835 179.59961 716.1543 C 186.22167 707.12425 186.22167 701.54126 179.59961 698.53125 C 147.09138 693.7151 123.35852 699.29829 105.90039 716.1543 C 106.50238 708.32824 105.90039 704.14237 105.90039 701.73438 C 107.10442 693.90832 112.89179 683.73256 121.92188 672.89648 C 130.95191 662.06041 149.49939 654.68086 179.59961 650.4668 C 186.22167 647.45684 186.22167 641.87384 179.59961 632.84375 C 147.09138 628.0276 123.35852 633.6108 105.90039 650.4668 L 105.90039 461.41406 C 111.99981 460.48446 116.87102 459.44322 123.52539 458.21094 C 154.82959 466.03698 199.51598 466.43456 254.90039 459.8125 C 259.71644 463.42451 294.02262 430.31297 359.03906 360.48047 C 375.8952 397.80474 384.67186 448.87113 384.67188 512.68359 L 341.41406 733.77734 C 325.76194 827.69 314.99357 885.9335 307.76953 910.01367 C 298.73947 933.49185 289.16573 946.75539 278.93164 950.06641 C 268.6976 953.37731 250.74274 961.05802 226.06055 972.49609 C 209.20441 976.10795 198.9321 982.29308 195.62109 990.11914 C 192.31008 997.9452 200.59263 1000.9364 218.05078 999.73242 C 239.72293 999.73242 255.58017 998.93542 266.11523 996.52734 C 276.65032 994.11927 289.31186 994.519 306.16797 998.13086 C 323.02408 1001.7427 332.40473 995.55814 331.80273 980.50781 C 334.81275 951.0096 345.88215 916.00292 365.44727 874.76562 C 385.0124 833.52837 392.888 802.00897 391.08203 781.8418 C 389.276 761.67463 395.85851 746.41939 410.30664 733.77734 L 474.39258 733.77734 C 488.23866 827.69 496.01579 886.72861 498.42383 913.2168 C 499.62787 936.69498 496.93761 952.15468 488.81055 959.67969 C 480.68353 967.20475 463.82673 973.29315 439.14453 975.70117 C 424.69643 984.12922 417.31685 990.71173 416.71484 994.92578 C 416.11284 999.13952 420.90068 999.73242 431.13477 999.73242 C 441.9708 999.73242 455.13783 1000.3343 469.58594 999.73242 C 484.03404 999.13053 501.68788 999.13053 522.45703 999.73242 C 543.22619 1000.3343 549.90523 993.35239 543.2832 978.9043 C 536.66118 934.95796 536.2636 892.27263 541.68164 850.73438 C 547.09962 809.1961 543.10906 770.49961 530.4668 733.77734 L 511.24219 597.5957 C 523.28225 563.28144 522.58177 531.56895 509.63867 501.46875 C 496.69557 471.36853 509.7658 411.52347 546.48828 323.63086 C 594.04658 327.24287 643.71398 324.25166 695.48633 314.01758 C 705.72041 242.98106 699.13765 186.73122 676.26172 145.79492 C 668.43566 128.93882 659.95809 115.27576 650.62695 104.13867 C 641.2959 93.001591 627.03084 84.523936 608.9707 78.503906 L 610.57422 81.708984 L 533.75 81.708984 L 467.98438 81.708984 C 471.02064 78.621457 477.83594 69.062825 477.83594 58.003906 C 477.83594 38.104743 463.86058 0 440.74805 0 z M 440.74805 11.800781 C 458.83016 21.317287 464.73633 39.865474 464.73633 51.267578 L 440.74805 51.267578 L 416.75977 51.267578 C 416.75977 39.865474 422.66594 21.317287 440.74805 11.800781 z M 416.75977 60.880859 L 440.74805 60.880859 L 464.73633 60.880859 C 464.73633 67.057002 458.69957 81.708984 440.74805 81.708984 C 422.79653 81.708984 416.75977 67.057002 416.75977 60.880859 z M 612.17578 88.117188 L 616.98242 100.93359 C 627.81845 105.74964 634.80049 109.83891 637.81055 113.75195 C 640.82052 117.66501 643.80987 126.74463 647.42188 139.38672 C 640.7998 137.58069 635.21686 131.49231 629.79883 123.36523 C 624.38074 115.23817 619.59486 113.74255 615.38086 118.55859 C 625.61494 140.23074 635.58623 156.59146 645.82031 165.01953 C 656.05439 173.44759 662.63883 180.42962 665.04688 185.84766 C 661.43502 219.5599 659.63824 252.67147 660.24023 285.17969 C 636.16006 279.76165 604.64068 278.36454 567.31641 281.97656 C 539.02219 275.3545 517.88303 277.94623 501.62891 289.98633 C 483.56876 289.98633 472.29495 285.99553 469.58594 278.77148 C 466.87693 271.54743 465.38131 263.77029 464.7793 254.74023 L 464.7793 253.13672 C 475.01334 248.92271 485.28759 241.44655 495.2207 229.10547 C 505.15377 216.76436 509.24113 200.5096 508.03711 179.43945 C 507.43512 156.56331 496.85982 140.90113 477.5957 134.58008 C 467.96363 131.41956 459.06714 130.37545 448.75781 129.77344 L 612.17578 129.77344 L 612.17578 88.117188 z M 283.73828 94.525391 L 596.1543 94.525391 L 596.1543 116.95508 L 283.73828 116.95508 L 283.73828 94.525391 z M 437.54297 142.58984 C 445.29377 142.74057 453.99717 145.13898 463.17773 147.39648 C 481.53884 151.91153 490.8116 162.9809 492.01562 181.04102 C 493.21967 199.10115 488.0342 214.2598 475.99414 227.50391 C 463.95401 240.74799 457.17645 244.13678 453.56445 238.71875 C 449.3504 233.30071 451.94215 225.82265 461.57422 214.68555 C 478.69029 194.89506 468.92528 160.54472 434.33789 181.04102 C 427.71586 175.02095 413.75374 170.63261 392.68359 168.22461 C 396.29561 156.7865 404.07273 149.70793 416.71484 145.79492 C 423.03588 143.8384 429.79216 142.43934 437.54297 142.58984 z M 387.87695 179.43945 C 405.33505 179.43945 419.69667 182.82824 431.13477 190.6543 C 430.53277 197.87835 433.72649 197.27636 439.14453 190.6543 C 448.33102 179.42641 465.93655 183.58598 458.37109 201.86914 C 454.75909 210.59819 449.67022 218.2788 443.95117 224.29883 C 438.23212 230.31889 437.13604 236.20284 440.74805 241.92188 C 444.36007 247.64093 446.55424 252.12779 447.15625 256.3418 C 450.76831 291.86006 464.33283 309.21289 487.20898 309.21289 C 516.1052 309.21289 522.29018 331.5561 504.83203 374.90039 C 487.3739 418.24473 480.39384 455.54016 484.00586 488.65039 L 403.89844 507.87695 C 401.49044 438.04446 395.60647 391.3664 386.27539 368.49023 C 376.94432 345.6141 369.96231 330.45737 365.44727 322.0293 C 360.93223 313.60123 369.01036 309.21289 389.47852 309.21289 C 410.54865 309.21289 420.42536 301.33723 418.31836 283.57812 C 416.21134 265.81898 408.82978 257.53642 395.88672 261.14844 C 382.94362 264.76046 376.45766 261.37166 378.26367 249.93359 C 386.08971 244.51556 388.98442 240.52475 386.27539 238.71875 C 383.56638 236.91273 378.47752 236.11566 371.85547 235.51367 C 372.15648 233.70766 371.90947 232.21205 370.25391 230.70703 C 371.12081 230.85161 372.37342 229.26218 373.45703 230.70703 C 375.26306 233.11505 377.75821 233.51459 379.86523 232.31055 C 381.97221 231.10657 381.76974 229.61093 381.46875 227.50391 C 381.28828 226.23968 380.26256 226.29772 379.86523 225.90039 C 380.16618 227.10443 379.46745 228.50348 378.26367 229.10547 C 377.05968 229.70752 376.26458 229.31009 375.06055 227.50391 C 373.85651 225.69788 372.45746 224.29883 371.85547 224.29883 C 370.65148 224.29883 370.55491 225.2984 370.25391 225.90039 C 369.95296 226.50238 368.65039 227.90144 368.65039 229.10547 C 367.03237 228.00874 365.00433 226.82112 362.24219 225.90039 C 368.26222 210.24827 374.44721 199.87745 379.86523 193.85742 C 385.88526 190.84741 392.46971 190.84741 399.0918 193.85742 C 405.71382 196.86744 412.69586 199.66558 419.91992 200.26758 L 418.31836 195.46094 C 414.10431 194.85895 408.91888 192.36374 402.29688 189.05273 C 395.67482 185.74167 389.69237 186.04271 383.07031 189.05273 C 384.87634 184.83873 386.07092 181.84748 387.87695 179.43945 z M 451.01367 186.79297 C 440.04592 186.58911 432.55478 207.02474 434.33789 211.48242 L 434.33594 211.48242 L 434.33398 211.48242 L 434.33203 211.48438 C 434.33076 211.48507 434.32963 211.48558 434.32812 211.48633 C 429.48814 211.57653 423.72299 221.60359 431.13477 224.29883 C 437.23169 226.51594 451.04587 213.45216 455.16602 200.26758 C 457.68962 192.19194 455.83764 186.88262 451.01367 186.79297 z M 449.67773 191.63477 C 455.34074 191.63477 449.89169 204.63008 447.15625 208.27734 C 444.44723 211.88935 441.55255 213.48153 439.14453 214.68555 C 436.73651 215.88959 436.73651 215.09428 439.14453 211.48242 C 441.55255 207.87036 441.55255 207.07331 439.14453 208.27734 C 436.73649 209.48136 436.33896 208.38523 437.54297 205.07422 C 439.37679 198.64824 444.59258 191.63477 449.67773 191.63477 z M 389.75781 195.01562 C 387.35697 195.09703 385.13971 195.74562 383.07031 197.0625 L 378.26367 201.86914 L 378.26367 208.27734 L 381.46875 206.67578 C 389.29479 210.88979 397.46952 209.89027 407.10156 205.07422 L 416.71484 208.27734 L 416.71484 201.86914 L 407.10156 201.86914 C 401.98452 197.95614 398.4992 196.36394 394.28516 195.46094 C 392.70489 195.12231 391.19832 194.96683 389.75781 195.01562 z M 387.87695 198.66406 C 386.67293 201.07207 387.67255 203.26821 389.47852 205.07422 C 387.07052 204.47223 384.87632 204.07273 383.07031 203.4707 C 384.27433 201.06269 385.46891 199.26606 387.87695 198.66406 z M 395.88672 200.26758 L 403.89844 203.4707 C 400.88844 204.07269 397.89722 204.47223 394.28516 205.07422 C 396.69318 203.26819 397.69275 202.6756 395.88672 200.26758 z M 432.73633 214.68555 C 436.34834 217.09358 438.04841 218.28815 435.94141 219.49219 C 433.83433 220.69623 431.73671 220.99722 431.13477 219.49219 C 430.53277 217.98721 430.93015 216.49158 432.73633 214.68555 z M 370.39062 238.45117 L 370.39258 238.45117 L 370.39453 238.45117 L 370.39648 238.45117 C 370.3973 238.45105 370.40134 238.45122 370.40234 238.45117 L 370.4043 238.45117 C 370.4799 238.45917 370.67016 238.71874 371.85547 238.71875 C 374.26349 239.32074 378.45871 240.01931 381.46875 240.32031 L 370.25391 240.32031 C 369.04987 239.71827 369.95296 239.32074 370.25391 238.71875 C 370.33322 238.56002 370.36024 238.48159 370.38477 238.45703 L 370.38672 238.45508 L 370.38867 238.45312 L 370.39062 238.45117 z M 383.07031 241.92188 C 382.46832 242.52387 381.67126 243.92291 379.86523 245.12695 C 378.0592 246.33098 375.86505 246.72852 373.45703 246.72852 C 372.85499 247.33052 372.45746 247.02947 371.85547 246.72852 C 371.25347 246.42758 370.65148 245.33142 371.85547 243.52539 L 383.07031 241.92188 z M 487.20898 509.47852 C 505.8711 533.55869 506.26866 563.88343 488.81055 597.5957 L 509.63867 712.95117 L 368.65039 712.95117 L 403.89844 531.9082 L 487.20898 509.47852 z " />
</svg>
