<?xml version="1.0" encoding="UTF-8" standalone="no"?>
<svg
   width="1100"
   height="1000"
   version="1.1"
   id="svg1"
   sodipodi:docname="A380.svg"
   inkscape:version="1.4.2 (f4327f4, 2025-05-13)"
   xmlns:inkscape="http://www.inkscape.org/namespaces/inkscape"
   xmlns:sodipodi="http://sodipodi.sourceforge.net/DTD/sodipodi-0.dtd"
   xmlns="http://www.w3.org/2000/svg"
   xmlns:svg="http://www.w3.org/2000/svg">
  <defs
     id="defs1" />
  <sodipodi:namedview
     id="namedview1"
     pagecolor="#ffffff"
     bordercolor="#666666"
     borderopacity="1.0"
     inkscape:showpageshadow="2"
     inkscape:pageopacity="0.0"
     inkscape:pagecheckerboard="0"
     inkscape:deskcolor="#d1d1d1"
     inkscape:zoom="0.26693281"
     inkscape:cx="-395.23054"
     inkscape:cy="1219.408"
     inkscape:window-width="1680"
     inkscape:window-height="998"
     inkscape:window-x="-8"
     inkscape:window-y="-8"
     inkscape:window-maximized="1"
     inkscape:current-layer="svg1" />
  <path
     id="path1"
     style="fill:#000000;stroke:none;stroke-width:1"
     d="M 711.49805,0.09179687 C 701.83418,0.35961714 691.95901,1.2063878 681.87109,2.6347656 641.51944,8.3482772 612.41531,39.773091 594.56055,96.908203 c -9.99864,12.141177 -21.42584,29.638137 -34.28125,52.492187 -6.42648,14.28379 -6.60383,22.32 -0.53321,24.10547 6.07059,1.78547 11.24804,4.82035 15.53321,9.10547 -10.73717,6.1354 -7.26488,12.58187 2.14258,13.92578 1.42822,-0.71419 0.35788,0.53615 -3.2129,3.75 -3.57096,3.21385 -3.03677,6.07065 1.60547,8.57031 4.6422,2.49966 6.96485,10.17785 6.96485,23.0332 0,12.85543 6.78391,18.9251 20.35351,18.21094 15.71215,0 27.13936,-0.71419 34.28125,-2.14258 l 5.35547,25.71094 h -1.07031 c -60.70604,-4.28512 -104.62841,6.78405 -131.76758,33.20899 -59.99185,54.99256 -113.19881,105.70076 -159.62109,152.12304 -25.71078,-19.9973 -59.27826,-45.88656 -100.70117,-77.66797 -41.42297,-31.7814 -77.31105,-52.13517 -107.66407,-61.0625 -9.39358,-2.76283 -19.76241,-4.92835 -31.10547,-6.49414 l 0.57422,-7.21875 c 11.83305,-4.19036 16.24963,-9.36308 20.35352,-20.0332 -8.04273,-0.89362 -14.82668,0.30985 -20.35352,3.60938 v -11.8711 c 2.32542,-1.31962 5.18221,-2.67255 8.57032,-4.05859 7.85603,-3.21386 13.92577,-9.81973 18.21093,-19.81836 -11.49862,-0.63882 -20.42514,2.43732 -26.78125,9.22656 v -3.86914 l 0.28321,-0.85156 c 7.16153,-1.70082 12.42281,-3.55874 15.78515,-5.57617 5.71352,-2.14255 10.35681,-8.21423 13.92774,-18.21289 -8.79298,-0.48851 -16.08332,1.36144 -21.86914,5.55078 0.59245,-1.75583 1.09688,-3.60578 1.51367,-5.55078 -2.17492,0.11447 -4.22062,0.34819 -6.13867,0.70117 l 0.7832,-3.91407 c 1.42839,-2.85671 6.24777,-5.71357 14.46094,-8.57031 8.21317,-2.85677 14.1068,-9.64264 17.67773,-20.35547 -12.85537,-0.71419 -22.14003,3.57103 -27.85351,12.85547 l 5.35546,-19.2832 c 2.14258,-2.14258 7.142,-4.46323 14.99805,-6.96289 7.85609,-2.49965 13.56969,-8.74941 17.14063,-18.74805 -12.85538,-0.71419 -23.56839,2.8568 -32.13868,10.71289 l 2.14258,-18.21094 c 3.57094,-4.99932 9.28453,-9.2845 17.14063,-12.85546 7.85605,-3.57094 13.21354,-10.35684 16.07031,-20.35547 -12.85541,-0.7142 -22.14001,3.21491 -27.85352,11.78515 l 3.21289,-13.92773 c 2.14258,-2.14258 6.96396,-4.99938 14.46289,-8.57031 7.49904,-3.57093 13.03454,-10.35484 16.60547,-20.353519 -12.85541,-0.714193 -23.2123,4.999409 -31.06836,17.140629 11.42702,-17.854738 13.21352,-33.923275 5.35743,-48.207035 -10.71283,12.85541 -15.35612,27.137474 -13.92774,42.849605 l -2.14258,7.5 c -3.46001,-6.48751 -8.22942,-11.01153 -14.30859,-13.57031 1.68313,-3.82841 2.52539,-8.230918 2.52539,-13.210936 -12.14122,1.428388 -19.997391,7.140032 -23.568359,17.138676 l -1.072265,-11.783207 1.072265,-3.212891 c 1.428388,-2.856774 5.533578,-6.427766 12.318359,-10.71289 6.78482,-4.285125 11.25004,-11.785218 13.39258,-22.498047 C 102.84385,61.912762 94.273443,67.626365 89.988281,77.625 V 62.626953 c 2.142581,-2.856775 6.605834,-6.605845 13.390629,-11.248047 6.78482,-4.642239 10.89196,-11.962302 12.32031,-21.960937 C 103.94165,30.109558 95.196457,36.828734 89.466797,49.576172 97.434071,30.855213 96.180442,15.207562 85.703125,2.6347656 76.418646,16.918525 74.276036,31.560604 79.275391,46.558594 l -1.072266,7.498047 C 70.347033,44.772161 60.348247,40.486978 48.207031,41.201172 c 3.570968,9.284479 9.284571,15.712272 17.140625,19.283203 7.856092,3.570931 12.141275,5.713541 12.855469,6.427734 -1.428387,8.570286 -2.142578,13.927769 -2.142578,16.070313 -2.737778,-3.650361 -5.993256,-6.523593 -9.767578,-8.619141 1.432571,-3.137466 2.545439,-6.692064 3.339843,-10.664062 -7.058056,0.784212 -13.038144,2.967871 -17.943359,6.550781 -1.13293,-0.082 -2.294826,-0.123047 -3.482422,-0.123047 0.262157,0.786466 0.537014,1.552778 0.822266,2.298828 -2.847362,2.601345 -5.264829,5.762181 -7.25,9.484375 l -3.212891,-7.498047 c 1.428388,-15.712146 -3.214905,-29.640034 -13.927734,-41.78125 -8.570248,13.569603 -6.069566,29.281992 7.5,47.136719 C 22.85423,68.340556 12.141216,62.985025 0,63.699219 c 4.2851241,9.284442 10.354845,15.712272 18.210938,19.283203 7.856054,3.570967 12.499347,6.783888 13.927734,9.640625 l 4.285156,12.855473 C 29.281929,96.908222 19.639263,92.981121 7.4980469,93.695312 c 3.5709301,9.998638 9.4645271,16.782538 17.6777341,20.353518 8.21317,3.57092 13.032588,6.42773 14.460938,8.57031 l 3.214843,14.99805 c -6.427703,-4.99932 -14.283917,-7.14193 -23.568359,-6.42774 4.285124,9.99864 10.354846,16.78259 18.210938,20.35352 7.856054,3.57097 12.141274,6.78584 12.855468,9.64258 l 1.720703,7.74609 c -0.720534,-0.0743 -1.450276,-0.13099 -2.1875,-0.17187 -8.666325,-6.41182 -18.509677,-9.29471 -29.529296,-8.64649 3.57093,9.99864 9.284533,16.07031 17.140625,18.21289 7.856054,2.14258 13.569657,4.64131 17.140625,7.49805 l 4.84375,16.46875 c -0.341278,-0.0479 -0.684644,-0.0916 -1.03125,-0.13086 -6.966371,-7.88357 -16.094014,-10.82966 -27.38086,-8.83789 4.285162,9.28448 10.356836,15.53224 18.212891,18.74609 7.856092,3.21382 12.855503,5.89258 14.998047,8.03516 l 4.285156,16.07031 c -7.141899,-8.57025 -17.140684,-12.49929 -29.996094,-11.78516 4.285162,9.99869 10.176805,16.78455 17.675782,20.35547 7.498975,3.57097 11.606118,6.78389 12.320312,9.64063 v 5.7168 l 1.925781,10.26757 -0.74414,-0.16211 c -5.568881,-7.26901 -14.31273,-12.29553 -27.964844,-11.5371 4.285124,9.99865 10.178758,16.78453 17.677734,20.35546 3.289578,1.61022 6.704154,3.11328 9.105469,5.92774 l -0.07813,25.80469 c -14.870334,-0.22839 -30.914016,0.2641 -48.130859,1.47656 -1.428388,11.42702 6.785897,19.28323 24.640625,23.56836 -0.05092,21.89107 4.372914,44.40876 16.753906,57.58008 -2.447137,22.96733 -5.53263,49.12485 -9.255859,78.47265 l 13.927734,3.21289 c 3.553438,-27.38237 6.555556,-52.10211 9.007812,-74.16211 1.829721,0.4962 3.73429,0.85079 5.712891,1.06641 0.11411,24.4134 0.562953,52.70767 1.347656,84.88086 h 14.998047 c -1.076958,-32.30895 -1.695921,-60.81144 -1.859375,-85.50781 1.576331,-0.2226 3.220336,-0.45771 4.933602,-0.70313 2.50617,23.87719 6.12437,51.18638 10.85351,81.92578 l 14.99804,-1.07226 c -5.16633,-30.99795 -9.09171,-58.62958 -11.77343,-82.89844 16.12999,-2.37332 36.48199,-5.45035 61.05273,-9.23047 56.42092,65.70536 114.62729,117.84006 174.61914,156.40625 69.27633,-55.70673 126.05428,-105.3427 170.33398,-148.9082 0,44.99389 5.17745,76.24067 15.5332,93.73828 10.35575,17.49765 35.17274,96.23579 74.45313,236.2168 L 426.37109,588.62695 c -27.85336,-24.99658 -52.49231,-37.49414 -73.91797,-37.49414 -58.56349,0.7142 -83.91858,25.35314 -76.0625,73.91797 l 31.06836,222.82617 c -44.9939,11.42706 -65.70569,45.35252 -62.13476,101.77344 -20.7115,3.57093 -39.45877,8.92646 -56.24219,16.06836 -16.78342,7.14183 -33.74618,10.17674 -50.88672,9.10547 -17.14053,-1.07127 -28.20966,7.32105 -33.20898,25.17578 h 892.3789 c -19.28308,-35.70945 -45.70847,-49.99346 -79.27539,-42.85156 -33.56683,7.14186 -56.24125,-7.85638 -68.02539,-44.99414 -11.7841,-37.13784 -31.96174,-44.63598 -60.52929,-22.4961 27.1392,-52.13579 28.21151,-107.12921 3.21484,-164.97851 4.28516,-149.97964 17.49687,-263.8917 39.63672,-341.73828 17.14053,37.1378 51.42211,102.4862 102.84375,196.04492 -11.4271,64.99116 -23.21042,123.91172 -35.35156,176.76172 -32.85272,45.70808 -45.35216,94.98595 -37.4961,147.83593 10.71287,3.57094 18.56908,-2.85686 23.56836,-19.2832 h 33.21094 c 30.07359,0 45.17344,-9.81882 45.5293,-35.88672 0.35704,-26.06789 -6.24884,-51.60107 -19.81836,-76.59765 44.99392,-114.98442 62.13275,-186.4025 51.41992,-214.25586 -12.85541,-38.56619 -28.20973,-77.31107 -46.06445,-116.23438 -17.85473,-38.92327 -34.8175,-73.38296 -50.88672,-103.3789 -16.06927,-29.99595 -42.67275,-47.67291 -79.81055,-53.0293 -37.13795,-5.35643 -56.41942,-15.5333 -57.84766,-30.53125 l -1.07226,-32.13867 c 19.28248,-7.14211 37.85086,-21.60458 55.70508,-43.38672 17.85472,-21.78274 26.78125,-51.59914 26.78125,-89.451174 0,-37.851998 -16.7827,-63.207127 -50.34961,-76.0625 -25.17513,-9.6415563 -52.25841,-14.05931991 -81.25,-13.25585913 z m 6.52929,19.95117213 c 14.81943,0.892742 31.15701,3.660495 49.01172,8.302734 35.70946,9.284442 53.56446,30.354351 53.56446,63.207031 0,32.852676 -11.78528,60.884546 -35.35352,84.095706 -23.56824,23.21112 -38.92256,29.45892 -46.06445,18.74609 -7.85606,-9.99863 -1.96438,-24.81684 17.67578,-44.45703 C 794.19887,112.60002 779.27346,55.854338 708.11914,88.337891 697.40631,76.196675 671.6951,67.270152 630.98633,61.556641 646.00589,23.324851 687.7731,18.220413 718.02734,20.042969 Z m -97.7539,59.724609 c 33.56687,2.142544 60.70646,10.712939 81.41797,25.710942 -0.71423,12.14118 4.46326,12.49733 15.5332,1.07031 22.3399,-23.060582 52.10578,-11.219994 36.42383,20.89062 -7.49898,15.35507 -17.31969,28.38874 -29.46094,39.10157 -12.14118,10.71282 -14.99802,21.24776 -8.57031,31.60351 6.4277,10.35575 10.71289,19.46231 12.85547,27.31836 -2.14258,52.84999 11.24918,83.38058 40.17382,91.59375 28.92464,8.21317 36.60082,36.95926 23.03125,86.23828 -13.56956,49.27902 -25.35303,155.69306 -35.35156,319.24219 l -98.55859,26.7832 c -52.1358,-168.54856 -83.38062,-259.96624 -93.73633,-274.25 -10.35579,-14.28379 -13.39063,-56.06355 -9.10547,-125.33984 -1.42835,-23.56824 17.85312,-35.35156 57.84766,-35.35156 36.42353,0.71419 54.99272,-12.85563 55.70703,-40.70899 0,-29.28175 -13.21171,-42.31541 -39.63672,-39.10156 -26.42497,3.21385 -37.49606,-5.53459 -33.21094,-26.24609 15.71215,-8.57025 21.24767,-14.99808 16.60547,-19.28321 -4.64224,-4.28516 -13.0346,-6.78584 -25.17578,-7.5 0,-6.4277 -6.06968,-12.1413 -18.21094,-17.14062 12.14126,-27.85336 23.92459,-46.77867 35.35156,-56.77735 11.42706,-6.42759 23.39042,-6.60578 35.88868,-0.53515 12.49832,6.07058 24.8178,10.17578 36.95898,12.31836 v -7.49805 c -7.85605,-0.71419 -18.03296,-4.64131 -30.53125,-11.7832 -12.49833,-7.141909 -25.17584,-8.214202 -38.03125,-3.214847 4.28531,-7.856092 8.21438,-13.569694 11.78516,-17.140625 z M 57.451172,85.853516 c 4.142922,4.150226 9.799852,5.89321 15.048828,8.171875 -6.944275,0.922815 -12.462352,3.389948 -16.554688,7.402339 -0.430959,-0.0829 -0.868615,-0.16071 -1.310546,-0.23437 0.03566,0.49923 0.08007,0.99173 0.130859,1.47852 -1.784785,2.02446 -3.257577,4.38877 -4.416016,7.09179 -0.714194,-2.14258 -2.498732,-7.14199 -5.355468,-14.998045 0.714193,-0.714193 4.463262,-3.392917 11.248047,-8.035156 0.411158,-0.281319 0.814872,-0.573341 1.208984,-0.876953 z m 18.3125,9.660156 c 1.349608,0.652284 2.162651,1.117729 2.439453,1.394531 l 1.072266,22.496097 c -1.693018,-4.74042 -4.42905,-8.59771 -8.208985,-11.57227 2.256737,-3.45863 3.821655,-7.56492 4.697266,-12.318358 z M 710.79688,119.4043 c -6.7849,9.99863 -8.74943,17.49872 -5.89258,22.49804 -12.86409,5.71741 -16.03598,17.89219 -4.28516,23.03321 12.4106,5.4296 40.61238,-24.20249 46.60156,-40.17383 5.36104,-14.29622 3.23511,-23.92407 -5.96875,-24.54688 -5.13145,-0.347592 -18.04741,0.90442 -30.45507,19.18946 z m -87.94532,-11.05469 c -4.35208,0.13949 -8.42658,1.3248 -12.2207,3.55664 l -11.7832,10.71289 v 7.49805 h 5.35546 c 14.99798,7.85605 32.13873,7.85605 51.42188,0 l 18.21289,4.28515 v -9.64062 L 655.625,122.61914 c -12.27515,-9.82011 -23.19885,-14.57641 -32.77344,-14.26953 z m 112.62696,3.13867 c 4.2126,-0.1674 5.98399,1.75612 5.31445,5.77344 -1.07131,6.42771 -4.28619,12.8555 -9.64258,19.2832 -5.35643,6.4277 -10.35585,10.71292 -14.99805,12.85547 -4.64224,2.14258 -4.64224,0.17997 0,-5.89062 4.6422,-6.07063 4.6422,-8.21321 0,-6.42774 -4.64242,1.78551 -5.53458,-0.17906 -2.67773,-5.89258 2.85674,-5.71351 6.78389,-11.42712 11.7832,-17.14062 h 0.002 c 4.28513,-1.60694 7.69118,-2.46011 10.21875,-2.56055 z m -116.27735,3.63086 c -2.85684,4.28516 -2.85684,8.57034 0,12.85547 -4.28504,-1.42839 -7.85604,-3.21292 -10.71289,-5.35547 1.42843,-2.85677 4.99942,-5.35742 10.71289,-7.5 z m -516.58008,0.0703 c 2.31414,3.53866 5.24513,6.3713 8.79297,8.5 7.1419,4.28516 11.06905,7.14197 11.78321,8.57032 -2.14254,7.85609 -3.92709,12.85546 -5.35547,14.99804 -4.24572,-9.90671 -12.69835,-15.25468 -25.357425,-16.04687 l 0.716797,-4.30664 c 0,-2.74825 3.140695,-6.65316 9.419918,-11.71485 z m 530.50782,2.07227 14.99804,9.64258 c -5.71343,1.42837 -11.42718,2.14255 -17.14062,2.14258 4.99902,-2.85679 5.71336,-6.78584 2.14258,-11.78516 z m -573.083988,0.5039 c 1.599608,2.26055 3.546888,4.23429 5.839844,5.92383 3.043314,2.24246 5.546095,4.34181 7.511718,6.29688 -6.440397,2.31571 -10.89922,6.3307 -13.376953,12.04297 -1.305142,-0.31676 -2.656205,-0.57062 -4.052734,-0.76172 l -3.474609,-16.50586 c -10e-7,-1.19928 2.517934,-3.5311 7.552734,-6.9961 z m 32.283203,14.37696 c 0.998312,4.58206 2.471338,8.55323 4.417969,11.91601 -2.611843,0.60674 -4.863647,1.31712 -6.757813,2.12891 z m -15.117187,11.84375 -1.00586,7.54492 c -0.93224,-1.04215 -1.919928,-2.00853 -2.96289,-2.89844 1.503231,-1.42496 2.826879,-2.97309 3.96875,-4.64648 z m 626.621092,6.48633 c 5.71333,2.85677 6.78562,5.71357 3.21485,8.57031 -3.57115,2.85689 -6.07179,2.6787 -7.5,-0.53516 -1.42832,-3.21385 -10e-6,-5.89257 4.28515,-8.03515 z m -596.16211,4.1875 c 6.06681,3.69163 9.09961,5.86713 9.09961,6.52539 l -4.28515,33.20898 c -0.34163,-2.39128 -1.00869,-4.59746 -2.00391,-6.62109 1.33683,-3.74842 2.00391,-7.97004 2.00391,-12.66211 -3.9563,0.87918 -7.40405,2.09674 -10.34571,3.65234 -3.039956,-1.94177 -6.73419,-3.51546 -11.080076,-4.72265 -0.361842,5.06576 0.147604,9.58106 1.527344,13.54687 -1.165725,1.99163 -2.017913,4.19259 -2.554688,6.60352 -0.02322,0.009 -0.04519,0.0184 -0.06836,0.0273 l -3.189453,-22.32031 c 1.428348,-0.7142 5.535492,-3.39292 12.320312,-8.03516 3.463501,-2.36975 6.322391,-5.43753 8.576171,-9.20312 z m -46.443358,5.10156 c 0.969156,0.72019 1.986461,1.37361 3.050782,1.95898 4.031542,2.21735 7.152354,4.26464 9.363281,6.14063 -2.041659,1.92352 -3.667908,4.1433 -4.878906,6.66015 -1.525215,-0.95185 -3.108375,-1.78683 -4.75,-2.50586 z m 540.669918,1.1582 c -0.9876,-0.0544 -1.97851,2.42706 -1.97851,5.08594 0,4.14605 -4.48663,8.38738 -10.17578,1.07226 -7.4681,-9.6025 -10.71829,-3.22641 -9.10742,1.60547 2.14258,-2.14233 4.82141,-1.24821 8.03515,2.67969 6.95758,8.50334 15.67144,2.07563 14.99805,-5.35742 -0.33224,-3.65597 -1.0508,-5.04624 -1.77149,-5.08594 z m -18.04687,26.37696 c 3.476,-5e-5 14.98403,1.52599 16.60547,1.74218 5.35639,0.7142 7.67693,1.42843 6.96289,2.14258 h -25.71094 c -5.44574,-1.36131 -3.218,-3.88468 2.14258,-3.88476 z m -510.869141,6.70117 c 1.704951,0.89579 3.089703,1.74208 4.152343,2.53906 l 1.273438,5.73242 c -1.519222,1.97653 -2.617132,4.19388 -3.292969,6.65235 -0.151625,-0.12373 -0.303396,-0.24673 -0.457031,-0.36719 h -0.002 l -3.949219,-9.875 c 0.312975,-1.25196 1.070834,-2.81244 2.275391,-4.68164 z m 533.365231,0.39648 c -2.30137,2.30132 -11.66537,7.5 -18.21093,7.5 -2.69,0 -9.07572,-0.37794 -3.21485,-4.28515 z m -504.58789,5.83008 c 3.96023,4.07944 6.09425,7.29938 6.40235,9.66016 -2.74243,1.12951 -5.10882,2.57192 -7.10157,4.32617 -1.875286,-2.17289 -4.254001,-3.99781 -7.134762,-5.47461 1.713567,-2.28459 4.324636,-5.12202 7.833982,-8.51172 z m -23.857419,26.55469 4.408203,3.36523 -4.105469,8.17383 -1.070313,-9.64258 z m 21.845703,9.2832 c 1.408036,1.56623 2.571916,3.03513 3.492186,4.40625 -1.36099,0.97744 -2.58052,2.08567 -3.658202,3.32617 -0.981673,-1.36759 -2.098328,-2.60964 -3.351562,-3.72656 0.828498,-1.18791 2.000805,-2.52298 3.517578,-4.00586 z M 83.244141,259.5371 c 0.758596,1.78959 0.150417,6.14449 -1.826172,13.0625 l -2.142578,-8.57031 1.304687,-3.26563 z m 2.662109,7.04687 c 0.246256,-0.003 0.535192,0.21555 0.867188,0.65821 l 1.072265,16.06836 -2.724609,-4.12891 c -0.542854,-8.38552 -0.281954,-12.5839 0.785156,-12.59766 z m 263.33203,350.96875 h 46.06445 l 205.6875,144.62305 -230.32617,68.56055 c 4.99932,-106.41417 -2.1427,-177.47414 -21.42578,-213.1836 z m 415.6582,134.98047 c 15.71215,60.70605 6.06948,113.55685 -28.92578,158.55078 C 683.83494,941.07984 620.8092,945.3651 546.89062,923.93944 472.97209,902.51383 402.80237,907.15517 336.38281,937.86523 342.81052,914.297 397.80397,875.374 501.36133,821.0957 Z"
     sodipodi:nodetypes="ssccsccsssccccccsscccccsccccccccccscccscccsccccccccccccccscccsccccccscccccccccccccccccccccccccsccccscccscccccccccccccccccccccccccsccccccssccsscccccccscccsssccsssssssscsccsccsssscssccscccscscccsccscccccccccsccccccscsssssccccccccscssssssccsccccccccccccccccccccccccccccccccsccscccccccccsccsscccssscccsssccscccccccccsccccccccccccccccccccccccccccccscccscccccc" />
</svg>
