<?xml version="1.0" encoding="UTF-8" standalone="no"?>
<svg
   width="800"
   height="1000"
   id="svg2214"
   sodipodi:version="0.32"
   inkscape:version="1.4.2 (f4327f4, 2025-05-13)"
   sodipodi:docname="A412A.svg"
   inkscape:output_extension="org.inkscape.output.svg.inkscape"
   sodipodi:modified="true"
   version="1.1"
   xmlns:inkscape="http://www.inkscape.org/namespaces/inkscape"
   xmlns:sodipodi="http://sodipodi.sourceforge.net/DTD/sodipodi-0.dtd"
   xmlns="http://www.w3.org/2000/svg"
   xmlns:svg="http://www.w3.org/2000/svg"
   xmlns:rdf="http://www.w3.org/1999/02/22-rdf-syntax-ns#"
   xmlns:cc="http://creativecommons.org/ns#"
   xmlns:dc="http://purl.org/dc/elements/1.1/">
  <metadata
     id="metadata2221">
    <rdf:RDF>
      <cc:Work
         rdf:about="">
        <dc:format>image/svg+xml</dc:format>
        <dc:type
           rdf:resource="http://purl.org/dc/dcmitype/StillImage" />
      </cc:Work>
    </rdf:RDF>
  </metadata>
  <defs
     id="defs2219" />
  <sodipodi:namedview
     inkscape:window-height="998"
     inkscape:window-width="1680"
     inkscape:pageshadow="2"
     inkscape:pageopacity="0.0"
     guidetolerance="10.0"
     gridtolerance="10.0"
     objecttolerance="10.0"
     borderopacity="1.0"
     bordercolor="#666666"
     pagecolor="#ffffff"
     id="base"
     inkscape:showpageshadow="2"
     inkscape:pagecheckerboard="0"
     inkscape:deskcolor="#d1d1d1"
     inkscape:zoom="1.51"
     inkscape:cx="79.139073"
     inkscape:cy="56.622517"
     inkscape:window-x="-8"
     inkscape:window-y="-8"
     inkscape:window-maximized="1"
     inkscape:current-layer="svg2214" />
  <path
     id="path2216"
     style="fill:#000000;stroke:none;stroke-width:55.6245"
     d="m 474.84961,0.10546875 c -6.37967,0.22183971 -12.85966,0.79904887 -19.42383,1.93359375 -26.25669,4.5382169 -44.81033,27.1539385 -53.88672,66.0527345 -5.1865,7.779753 -11.34133,19.854408 -19.12109,34.765623 -3.88987,9.0764 -4.21405,12.60961 0,13.90625 4.21406,1.29661 6.74647,3.26994 8.69141,5.21485 -3.24152,2.59327 -4.449,5.65647 -3.47657,6.95312 0.97248,1.29666 4.35986,1.08998 6.95313,1.73828 1.29666,-0.6483 0.53064,1.20747 -1.73828,3.47656 -2.26909,2.26909 -1.50329,3.59406 1.73828,5.21485 3.24157,1.62079 4.89071,5.3607 5.21484,12.16797 0.32429,6.80728 1.76664,11.51965 6.95313,12.16797 5.18648,0.64831 15.49453,0.64831 27.8125,0 v 19.12109 c -26.58087,5.83483 -46.78361,11.10631 -59.10157,15.64453 -12.31793,4.53818 -24.18592,16.40618 -36.5039,36.50391 -12.31797,20.09772 -31.63546,49.75159 -55.62305,88.65039 -23.33929,-10.373 -69.2513,-19.8261 -137.32422,-29.55078 -11.02961,-1.54415 -19.72208,-1.84541 -29.55078,-1.73829 C 106.0395,245.28557 97.008704,197.27448 92.128906,146.31445 111.24946,140.98697 120.27242,128.11743 132.10742,83.736328 135.99732,69.149251 145.45038,60.257314 161.6582,57.664062 V 31.589844 C 107.84819,16.678625 53.810018,16.913614 0,35.066406 l 1.7382812,26.074219 c 15.5595048,2.593253 24.2248168,11.860857 29.5507808,26.072266 9.543209,25.464399 16.111216,52.078799 45.195313,59.101559 5.106328,50.85055 14.202205,99.21296 24.335935,146.01367 -12.906459,1.38955 -25.967513,4.04299 -36.503904,8.69141 1.94491,7.77975 9.18973,10.63638 20.859375,8.69141 5.591708,30.44373 16.216749,44.07066 29.548829,39.98047 0.89761,3.31961 0.81347,7.13196 1.73828,10.42968 -21.272784,6.32106 -40.27017,13.91832 -53.884765,26.07422 3.889893,6.48311 11.576331,8.66305 22.597656,3.47657 14.911219,28.5258 28.308869,37.53716 39.978519,27.8125 2.85259,-2.46362 4.48951,-4.64511 6.95312,-6.95313 17.09102,51.02094 36.76353,98.8815 60.83985,144.27539 l 15.64453,-8.69141 C 183.2853,499.15466 161.70787,449.14988 144.27539,396.625 c 3.24902,-3.8786 6.92151,-7.14274 8.69141,-10.42969 37.60219,7.13143 71.97037,13.16878 100.82031,17.38281 28.84998,4.21405 45.87197,0.38499 50.41016,-8.6914 38.25051,-59.64485 65.48943,-101.40171 81.69726,-128.63086 20.09773,42.14037 29.55077,99.91842 29.55078,173.82617 l -50.41015,253.78711 c -18.80112,108.26834 -32.64239,176.14776 -41.71875,203.37695 -10.37303,27.22913 -21.35573,43.15921 -33.02539,48.66993 -11.66964,5.51071 -33.19736,14.40459 -64.31641,26.07421 -19.4494,0 -30.55159,3.85713 -34.76563,13.90625 -4.21405,10.04884 3.58989,15.20282 24.33594,13.90625 h 100.82031 c 38.8988,0 52.50314,-14.93129 38.24024,-43.45703 2.59327,-19.44944 14.57874,-53.16731 38.24219,-100.81836 23.66343,-47.65111 35.29644,-82.6959 33.02734,-106.03515 -2.26909,-23.33932 4.00319,-42.00846 20.85938,-55.62305 h 78.22265 c 16.20782,107.62003 24.569,176.38281 27.81055,206.85352 1.29661,25.93258 -3.53323,42.51095 -13.90625,48.66992 -10.373,6.15902 -29.48384,14.1696 -57.36133,22.59765 -18.15276,0 -28.16495,4.18142 -33.02734,13.90625 -4.86235,9.72466 1.85161,13.90625 22.59765,13.90625 h 95.60352 c 39.54713,0.64857 50.09014,-14.28293 31.28906,-43.45703 -1.94463,-37.60221 0.79439,-79.24151 6.95313,-126.89258 6.15902,-47.65103 2.09471,-93.44359 -12.16797,-135.58398 L 568.41211,537.42383 c 14.26295,-38.8988 13.17298,-74.82502 -1.73828,-109.50977 -14.91118,-34.6848 -16.56032,-77.62273 -5.21485,-126.89453 11.3455,-49.27184 6.7223,-81.34061 -15.64453,-95.60351 -22.36683,-14.2629 -34.76368,-33.61066 -34.76367,-60.83985 v -1.73828 c 12.96629,-4.53818 26.24644,-13.22546 38.24024,-27.8125 11.99381,-14.58708 15.85116,-35.112026 13.90625,-59.099609 C 562.54897,29.344914 551.44868,12.322913 528.43359,5.515625 516.92601,2.1119809 505.98593,0.86805815 493.66797,0.30078125 487.50899,0.0171428 481.22928,-0.11637096 474.84961,0.10546875 Z m 4.91211,15.83984325 c 9.31951,0.16209 20.10567,1.045384 31.28906,3.476563 22.36683,4.862359 33.46705,17.496182 34.76367,38.242187 0.6483,20.746044 -4.85624,40.063503 -19.11914,55.623048 -14.26289,15.55951 -23.92262,20.38939 -27.8125,13.90625 -5.83483,-6.4831 -2.97824,-16.90867 8.69141,-29.550782 21.8822,-23.705612 9.62451,-61.424589 -31.28906,-38.240234 -7.77975,-7.131467 -25.1259,-10.664715 -50.41016,-13.90625 4.53821,-12.966291 14.63955,-21.860182 29.55078,-26.074219 7.45561,-2.107018 15.01644,-3.638642 24.33594,-3.476563 z M 81.699219,36.804688 c 21.556421,-0.486213 42.595941,1.442462 64.314451,6.953124 v 3.476563 c -14.91121,7.131432 -22.50851,17.996678 -26.07422,31.287109 -3.56572,13.290432 -9.60107,27.249206 -17.38086,43.457036 C 90.240635,136.88973 76.192703,137.9797 62.578125,123.7168 54.798375,107.50897 49.733493,93.226057 45.195312,80.259766 40.657097,67.293509 30.997389,56.545762 17.382812,50.710938 V 47.234375 C 38.777159,40.751248 60.142793,37.290919 81.699219,36.804688 Z M 420.66016,55.925781 c 21.39433,0 37.44386,4.827882 50.41015,13.904297 0,8.428072 4.27072,9.518072 10.42969,1.738281 15.32143,-19.331523 29.86654,-6.610039 22.59766,12.167969 -3.88989,10.048859 -8.18892,17.204502 -15.64454,24.335942 -7.45562,7.13146 -9.75302,14.37622 -5.21484,20.85937 4.53818,6.48311 9.36805,21.0902 13.90625,43.45703 4.53818,22.36683 15.40536,38.18139 31.28906,46.9336 15.88364,8.75226 18.20749,35.22535 10.42774,79.95898 -7.77975,44.73362 -8.66306,82.95919 -3.47656,114.72656 l -95.60352,20.85938 C 436.53968,354.4763 426.76242,297.58157 410.23047,264.51758 393.69846,231.45361 397.76252,212.3408 422.39844,207.1543 c 25.28426,0 37.35889,-10.86717 34.76562,-31.28907 -2.59328,-20.42186 -11.92882,-28.54997 -27.8125,-24.33593 -15.88369,4.21404 -21.71438,0.79832 -19.12109,-12.16797 9.07636,-6.48311 11.93297,-11.63714 8.69141,-13.90625 -3.24152,-2.26909 -9.60303,-3.47656 -17.38282,-3.47656 0,-3.53796 -1.02418,-7.00949 -10.42968,-10.42969 6.48311,-17.504479 12.63795,-29.372443 19.12109,-36.503908 7.77975,-3.88986 16.55615,-4.979853 24.33594,-1.738281 7.77975,3.241573 15.90783,5.656519 24.33593,6.953125 l -1.73828,-5.214844 c -5.18654,0 -11.34134,-1.324985 -19.12109,-5.214844 -7.77979,-3.889893 -15.90791,-4.979848 -24.33594,-1.738281 3.24153,-4.538179 5.65649,-8.924443 6.95313,-12.166016 z m 75.51757,11.433594 c -1.17524,-0.01331 -2.57738,0.210341 -4.24804,0.732422 -14.14077,4.418994 -18.35038,21.916975 -17.38281,24.335937 -3.48082,2.08854 -9.6121,12.363756 -1.73829,15.644536 8.17263,3.40527 25.6045,-18.567064 27.8125,-26.074223 0.82533,-2.806095 3.78336,-14.545534 -4.44336,-14.638672 z m -2.50976,5.947266 c 5.5746,0 4.27312,9.086666 -1.73828,15.644531 -3.56576,3.889876 -7.83646,7.07062 -10.42969,8.691406 -2.59327,1.620787 -2.59327,0.413258 0,-3.476562 2.59326,-3.889876 2.91739,-4.773225 0,-3.476563 -2.9174,1.296607 -2.98204,0.549696 -1.73828,-3.476562 1.98519,-6.426363 6.48974,-13.90625 13.90625,-13.90625 z m -69.50195,1.496093 c -3.76198,0.182186 -7.48079,1.733279 -10.45899,3.71875 l -5.21484,5.214844 v 5.214844 h 3.47656 c 9.72468,5.186539 19.61937,5.186539 31.28906,0 h 12.16797 v -5.214844 h -12.16797 c -5.83484,-4.53818 -10.78217,-7.71894 -15.64453,-8.691406 -0.60779,-0.121561 -1.22012,-0.197113 -1.83398,-0.234375 -0.53714,-0.0326 -1.07586,-0.03384 -1.61328,-0.0078 z m -3.50586,5.457032 c -1.29666,2.59327 -0.85499,4.359855 1.73828,6.953125 -2.59326,-1.296646 -6.09816,-2.828237 -8.69141,-3.476563 0.6483,-1.94491 3.71156,-2.179899 6.95313,-3.476562 z m 8.6914,0 10.42969,5.214843 c -3.88988,1.296663 -7.18811,2.82826 -10.42969,3.476563 2.59327,-2.593269 2.59327,-6.098158 0,-8.691406 z m 45.19532,19.121093 c 3.8899,1.944931 4.00737,3.594061 1.73828,5.214841 -2.26907,1.62079 -2.50409,1.94493 -3.47657,0 -0.97247,-1.94496 -0.85499,-3.91823 1.73829,-5.214841 z m -73.00782,26.074221 c 3.36601,-0.0351 8.67745,0.62081 11.58789,1.94531 l -13.32617,1.53125 c -2.78757,0 -2.45795,-3.43283 1.73828,-3.47656 z m 13.90625,3.47656 c -1.74945,2.36479 -7.30014,6.07032 -12.16797,6.95313 -4.38009,0.79436 -5.12342,-2.25623 -1.73828,-5.21485 z M 151.22852,327.09375 c 42.14037,10.37301 82.98753,21.79932 119.9414,34.76563 -19.4494,-0.64833 -65.12641,-3.06325 -133.84765,-6.95313 v -1.73828 c -1.98546,0.36468 -3.28257,1.33308 -5.21485,1.73828 -1.12679,-3.95801 -2.39209,-8.18005 -3.47656,-12.16797 9.9623,-5.25537 17.53543,-11.04253 22.59766,-15.64453 z m 387.63281,111.25 c 22.04265,27.87748 24.2226,60.18128 3.47656,99.08008 l 24.33594,133.84765 H 396.32422 l 41.71875,-208.59179 z"
     sodipodi:nodetypes="ssccscsccscsccssccccsccccsccccccccccccccscccccscscscsscccscsscccccsssscscssssscscsccsssccscccccscccssssssccscsscscccsccsccsscsssssssssscccccccccssscccccccccsscsccscccccccccccccccccc" />
</svg>
