<?xml version="1.0" encoding="UTF-8" standalone="no"?>
<svg
   width="900"
   height="1000"
   id="svg2214"
   sodipodi:version="0.32"
   inkscape:version="1.4.2 (f4327f4, 2025-05-13)"
   sodipodi:docname="A419.svg"
   inkscape:output_extension="org.inkscape.output.svg.inkscape"
   sodipodi:modified="true"
   version="1.1"
   xmlns:inkscape="http://www.inkscape.org/namespaces/inkscape"
   xmlns:sodipodi="http://sodipodi.sourceforge.net/DTD/sodipodi-0.dtd"
   xmlns="http://www.w3.org/2000/svg"
   xmlns:svg="http://www.w3.org/2000/svg"
   xmlns:rdf="http://www.w3.org/1999/02/22-rdf-syntax-ns#"
   xmlns:cc="http://creativecommons.org/ns#"
   xmlns:dc="http://purl.org/dc/elements/1.1/">
  <metadata
     id="metadata2221">
    <rdf:RDF>
      <cc:Work
         rdf:about="">
        <dc:format>image/svg+xml</dc:format>
        <dc:type
           rdf:resource="http://purl.org/dc/dcmitype/StillImage" />
      </cc:Work>
    </rdf:RDF>
  </metadata>
  <defs
     id="defs2219" />
  <sodipodi:namedview
     inkscape:window-height="998"
     inkscape:window-width="1680"
     inkscape:pageshadow="2"
     inkscape:pageopacity="0.0"
     guidetolerance="10.0"
     gridtolerance="10.0"
     objecttolerance="10.0"
     borderopacity="1.0"
     bordercolor="#666666"
     pagecolor="#ffffff"
     id="base"
     inkscape:showpageshadow="2"
     inkscape:pagecheckerboard="0"
     inkscape:deskcolor="#d1d1d1"
     showguides="true"
     inkscape:zoom="0.70710678"
     inkscape:cx="597.50523"
     inkscape:cy="176.06959"
     inkscape:window-x="-8"
     inkscape:window-y="-8"
     inkscape:window-maximized="1"
     inkscape:current-layer="svg2214">
    <sodipodi:guide
       position="771.94531,596.64062"
       orientation="0,-1"
       id="guide1"
       inkscape:locked="false" />
    <sodipodi:guide
       position="700.66211,539.26562"
       orientation="0,-1"
       id="guide2"
       inkscape:locked="false" />
    <sodipodi:guide
       position="773.68555,467.98242"
       orientation="1,0"
       id="guide3"
       inkscape:locked="false" />
  </sodipodi:namedview>
  <path
     style="fill:#000000;stroke:none;stroke-width:55.6358"
     d="m 478.11914,0 c -43.80341,6.6368634 -66.89017,29.723626 -69.54492,69.544922 -5.97321,7.964259 -11.8225,20.170325 -19.12305,34.771488 -3.98215,9.29162 -3.98216,14.32104 0,15.64843 3.98211,1.32736 6.70036,3.22377 8.69141,5.21485 -2.65472,1.99106 -2.73378,3.55758 -1.73828,5.21679 0.99554,1.65924 2.56203,1.73829 5.21679,1.73829 0.66368,0 0.25293,1.15365 -1.73828,3.47656 -1.99103,2.3229 -2.98658,4.22131 0,5.21679 2.98659,0.99557 4.88299,5.20116 5.21485,12.16993 0.33159,6.96871 3.38387,9.76798 8.69336,10.43164 5.30949,0.66367 14.13366,0.66367 26.08007,0 l 1.73829,6.95508 H 161.69141 c -0.83377,-12.4299 -3.62322,-24.3071 -8.69336,-38.25 -8.62792,-1.99105 -12.16992,2.37471 -12.16993,15.64843 l -33.0332,1.73828 c -9.291652,5.3095 -12.011806,12.89903 -8.693358,20.86329 H 45.203125 V 372.06445 H 31.294922 C 10.0569,372.06445 0,385.50521 0,412.05273 v 111.27149 c 0,24.55651 10.056899,36.50976 31.294922,36.50976 h 46.943359 c 21.901729,0 33.033199,-11.95322 33.033199,-36.50976 V 412.05273 c 0,-26.54753 -11.13148,-39.98829 -33.033199,-39.98828 H 64.328125 l 1.740234,-184.29297 h 36.509761 c 7.19773,20.92507 25.8094,47.18507 59.11329,79.97657 43.13974,42.47605 77.76887,68.6919 104.3164,79.97461 14.60112,-3.31845 57.89634,-29.5343 126.91992,-79.97461 19.91063,41.81235 29.55664,99.11731 29.55665,172.12304 l -48.68165,253.83789 c -18.58323,108.18112 -32.43491,176.20674 -41.72656,203.41797 -9.95531,27.21123 -22.49523,43.29115 -34.77344,46.94141 -12.27826,3.65026 -32.31297,11.068 -60.85156,24.3418 -19.91063,3.98185 -30.78934,10.16519 -34.77148,19.125 -3.98213,8.95974 3.76552,12.83354 24.33984,12.16992 25.88383,0 45.09673,-0.48892 57.375,-3.47656 12.27821,-2.98653 28.77101,-2.57572 48.68164,1.73828 19.91063,4.314 28.48201,-1.86902 27.81836,-19.125 2.65477,-33.84807 16.7592,-74.24945 39.98828,-121.70313 23.22908,-47.45368 33.28597,-82.82754 31.29492,-106.05664 -1.99106,-23.2291 6.00936,-42.77194 22.60157,-57.37305 h 74.75976 c 15.92852,108.18112 26.23817,178.10315 29.55664,208.63282 1.32747,25.88381 -4.28472,43.1984 -13.9082,52.1582 -9.62347,8.95981 -27.09812,14.73195 -55.63672,17.38672 -17.25591,9.95529 -26.82089,17.62389 -27.8164,22.60156 -0.99555,4.97774 4.77469,5.88042 17.38476,5.2168 11.94637,0 26.21091,0.66372 43.4668,0 17.25584,-0.66374 38.03333,-0.66374 62.58984,0 24.55645,0.66372 32.30411,-7.74765 24.33984,-24.33985 -7.96424,-49.77659 -8.04337,-98.25937 -1.73828,-146.04492 6.30504,-47.78555 1.7674,-93.13526 -12.16992,-135.61133 L 572.00586,538.9707 c 13.93748,-39.15763 10.14269,-83.27466 -10.43164,-130.39648 -7.30056,-19.91066 0.69982,-66.49308 22.60156,-140.82617 5.97316,37.83024 18.33935,77.89971 38.25,121.70312 -5.30932,23.89281 -3.41315,54.90091 5.21484,90.40821 8.62794,35.50729 7.14241,61.2332 -3.47656,76.49804 -10.61898,15.26484 -12.51732,36.04235 -5.21679,62.58985 6.6369,0.66373 9.68891,-5.02729 8.69335,-15.64649 -0.99531,-10.61903 1.64576,-19.44318 6.95508,-26.08008 5.97322,13.27374 7.95057,24.81814 6.95508,34.77344 -0.99532,9.95535 -4.46054,20.67594 -10.43359,31.29492 -3.31868,3.98185 -3.72948,7.11319 -1.73828,10.43164 1.9912,3.31812 5.53508,4.1403 12.17187,3.47657 13.27375,-18.58323 20.86328,-34.49141 20.86328,-50.41993 0,-16.59219 -2.56185,-39.26805 -5.21679,-67.80664 5.30932,-69.02357 5.30932,-116.27164 0,-140.82812 -3.31812,-30.52964 -12.96443,-82.3943 -29.55665,-154.73633 -7.30056,-32.5207 -34.34021,-50.32527 -83.45312,-55.63477 h 182.55469 c -3.57849,11.96617 -6.95508,25.89427 -6.95508,43.46485 0,45.71533 13.39515,99.26733 39.85156,158.21484 -13.66286,3.77422 -58.97656,20.14626 -58.97656,71.28321 0,21.79183 18.18087,71.2832 73.02344,71.2832 52.42518,0 73.02148,-48.78073 73.02148,-71.2832 0,-20.98404 -16.01228,-59.99459 -59.11328,-70.97657 25.22019,-59.06826 38.25,-112.72702 38.25,-158.52148 0,-17.57058 -3.37659,-31.49868 -6.95508,-43.46485 h 57.375 v -17.38671 h -64.33008 c -8.78661,-14.57438 -21.89515,-22.60157 -39.98828,-22.60157 -18.09314,0 -29.46143,8.02719 -38.24804,22.60157 H 523.32422 c -4.47989,-6.96873 -7.28692,-15.05016 -6.95508,-24.3418 11.94637,-5.3095 24.89718,-16.6938 36.51172,-31.29492 C 564.49538,100.14689 568.11642,81.267776 566.78906,57.375 566.12538,30.827471 556.89026,14.334676 538.9707,8.6933594 521.05113,3.0520049 500.68458,0.6636973 478.11914,0 Z m 6.95508,17.386719 c 9.04276,0.165906 18.77172,0.987713 29.55664,3.476562 21.56983,4.977659 34.52064,17.675676 36.51172,38.25 0.66368,21.238021 -6.92781,40.369946 -20.86524,55.634769 -13.93747,15.26482 -23.17057,18.80873 -27.8164,12.17187 -5.30949,-6.6369 -1.18288,-15.20829 10.43164,-27.818358 20.71628,-22.49191 11.75495,-61.747781 -31.29492,-36.511718 -7.30056,-7.300562 -23.46149,-12.991731 -48.68164,-15.646485 4.64581,-13.273764 13.21722,-21.766119 27.81836,-26.080078 7.30058,-2.156998 15.29707,-3.642486 24.33984,-3.476562 z M 425.96094,57.375 c 20.57429,0 38.22071,4.61653 52.1582,13.908203 -0.66368,7.964258 2.38614,9.368827 8.69336,1.738281 15.14457,-18.32206 30.69963,-6.517649 22.60171,12.169921 -4.314,9.955312 -10.41603,17.373075 -17.38476,24.341795 -6.96872,6.96871 -7.79252,14.22638 -3.47852,20.86328 4.31394,6.6369 7.36597,12.74092 8.69336,17.38672 1.42739,8.38588 2.56626,15.4868 5.2168,22.60157 h -41.72656 c -3.60675,-14.39476 -10.95221,-21.09021 -24.3418,-17.38672 -15.59667,4.31396 -23.51804,0.0292 -20.86328,-13.90821 8.62792,-5.9732 11.67993,-10.17887 8.69336,-12.16992 -2.9866,-1.99105 -7.68419,-2.81482 -15.64844,-3.47851 0.31247,-7.6379 -6.7414,-8.83876 -12.16992,-10.43164 6.63686,-17.255926 14.22642,-29.209214 20.86328,-36.509771 7.30059,-3.982146 14.97109,-5.390535 22.60351,-1.740234 7.63241,3.650318 15.71191,6.291421 24.33985,6.955078 L 462.47266,76.5 c -5.30947,0 -11.49255,-1.234646 -19.125,-5.216797 -7.63241,-3.982113 -14.6373,-5.056698 -22.60157,-1.738281 2.65476,-4.645808 3.88746,-8.851471 5.21485,-12.169922 z m 74.5957,9.552734 C 488.43045,66.702897 476.46,87.034463 481.59766,93.884767 c -6.75969,3.379798 -10.58121,13.065663 -3.47852,15.648433 7.30478,2.6563 24.44073,-15.947091 27.81836,-26.080074 1.77306,-5.31927 3.36463,-16.363255 -5.38086,-16.525392 z m -1.57422,7.832032 c 6.77412,0.356481 -2.77614,20.51403 -10.43164,24.341796 -2.65476,1.327388 -2.65472,0.503336 0,-3.478515 2.65476,-3.982146 1.24831,-4.803954 -1.73828,-3.476563 -2.9866,1.327358 -3.39751,-1.232736 -1.73828,-5.214843 2.91524,-6.996587 7.10467,-12.529918 13.9082,-12.171875 z m -66.1582,1.541015 c -4.31599,-0.203249 -8.88413,1.352857 -12.07813,3.675781 l -5.21679,5.214844 v 6.955078 l 1.73828,-1.738281 c 9.29165,4.645808 21.08877,4.234885 33.03515,-1.738281 l 10.43165,1.738281 V 85.191406 H 450.30273 C 444.32952,80.877426 439.46604,77.329612 434.6543,76.5 c -0.60147,-0.103698 -1.21351,-0.170183 -1.83008,-0.199219 z m -5.125,3.675781 c -1.32736,2.654771 -1.99104,6.03861 0,8.69336 -2.65477,-1.327414 -4.96209,-2.814837 -6.95313,-3.478516 0.66368,-1.991037 3.63468,-3.887485 6.95313,-5.214844 z m 8.69336,1.738282 10.43164,5.216797 c -3.98211,1.327397 -8.85148,1.738281 -12.16992,1.738281 2.65476,-1.991093 3.72934,-4.300323 1.73828,-6.955078 z m 43.4668,19.124996 c 3.98212,1.99104 4.06118,3.55563 1.73828,5.21485 -2.3229,1.65923 -2.81485,1.99109 -3.47852,0 -0.6637,-1.99105 -0.25079,-3.88749 1.74024,-5.21485 z M 405.51562,126.625 c 0.431,-0.0196 1.23344,0.29492 3.0586,0.29492 2.65477,0.66368 5.37491,1.40641 8.69336,1.73828 h -10.43164 c -1.32736,-0.66366 -2.07012,-1.07458 -1.73828,-1.73828 0.10362,-0.2074 0.22207,-0.28601 0.41796,-0.29492 z m 15.23047,3.77148 c -0.66369,1.32739 -1.15561,2.48106 -3.47851,3.47657 -2.32291,0.99555 -4.96203,1.07462 -6.95313,1.73828 -1.32736,0 -2.81483,0.33159 -3.47851,0 -0.66368,-0.33159 0.41081,-1.48552 1.73828,-3.47656 z m -259.05468,57.375 h 269.48632 c -6.37394,2.45738 -13.99786,3.47657 -20.86328,3.47657 -11.28267,0 -24.05977,7.33674 -39.98828,22.60156 -28.53863,17.91957 -61.93506,44.80108 -99.10156,79.97656 -9.29165,-13.93746 -47.71749,-42.71536 -114.75,-85.1914 2.35307,-6.66705 4.48592,-13.61689 5.2168,-20.86329 z m 300.78125,0 h 48.68164 c 6.88576,11.19974 14.96134,19.27532 26.07812,26.07813 22.23355,13.60561 27.18396,43.46007 13.91016,86.93164 -13.27373,43.47159 -17.48138,80.48908 -12.17188,113.00977 l -92.14648,22.60156 c -2.65475,-79.64259 -9.91246,-133.73745 -20.86328,-159.95313 -10.95085,-26.21568 -20.43676,-43.94118 -26.07813,-53.89648 -5.64135,-9.95531 5.00021,-13.9082 29.55664,-13.9082 19.95213,0 30.82565,-7.50007 33.03321,-20.86329 z m 285.13281,0 h 50.41992 c 5.19749,10.10493 8.69336,24.03501 8.69336,43.46485 0,43.80341 -12.20803,90.94724 -34.77344,139.39648 -22.56537,-48.44925 -33.0332,-95.59308 -33.0332,-139.39648 0,-19.42984 3.49587,-33.35992 8.69336,-43.46485 z M 35.816406,392.23242 h 39.638672 c 9.955351,0 13.910156,6.92581 13.910156,20.86328 v 107.44727 c 0,11.94644 -4.618484,17.38478 -13.910156,17.38476 H 34.076172 c -9.291654,0 -13.908203,-5.43826 -13.908203,-17.38476 V 413.0957 c 0,-13.93747 5.693087,-20.86328 15.648437,-20.86328 z M 544.1875,439.87109 c 21.90168,27.21119 21.64893,58.86737 1.73828,97.36133 L 570.26562,672.8457 H 403.35938 l 41.72656,-210.37304 z"
     id="path2216"
     sodipodi:nodetypes="cccscsscscscccccccccsssssssscccscccccscsccscsscccscscsscscccccsscccscscscccccscssscsccccscccscscsscscsccssccsssscccscscccsccsccscssssscssssccccccccsscccccccccsscscccsscscsccccsccccccssccssscccscscssssssssscccccc" />
  <path
     id="path1"
     style="fill:#f9f06b;stroke:none;stroke-width:55.6358"
     d="M 773.68555 403.35938 A 57.375 57.375 0 0 0 730.91992 422.48438 L 816.45117 422.48438 A 57.375 57.375 0 0 0 773.68555 403.35938 z M 722.58008 434.6543 A 57.375 57.375 0 0 0 716.73438 453.7793 L 830.63672 453.7793 A 57.375 57.375 0 0 0 824.79102 434.6543 L 722.58008 434.6543 z M 716.73438 467.6875 A 57.375 57.375 0 0 0 721.72852 485.07422 L 825.64258 485.07422 A 57.375 57.375 0 0 0 830.63672 467.6875 L 716.73438 467.6875 z M 730.91992 498.98242 A 57.375 57.375 0 0 0 773.68555 518.10938 A 57.375 57.375 0 0 0 816.45117 498.98242 L 730.91992 498.98242 z " />
</svg>
