<?xml version="1.0" encoding="UTF-8" standalone="no"?>
<svg
   width="741.82812"
   height="719.51556"
   version="1.1"
   id="svg1"
   sodipodi:docname="A437.svg"
   inkscape:version="1.4.2 (f4327f4, 2025-05-13)"
   xmlns:inkscape="http://www.inkscape.org/namespaces/inkscape"
   xmlns:sodipodi="http://sodipodi.sourceforge.net/DTD/sodipodi-0.dtd"
   xmlns="http://www.w3.org/2000/svg"
   xmlns:svg="http://www.w3.org/2000/svg">
  <defs
     id="defs1" />
  <sodipodi:namedview
     id="namedview1"
     pagecolor="#ffffff"
     bordercolor="#666666"
     borderopacity="1.0"
     inkscape:showpageshadow="2"
     inkscape:pageopacity="0.0"
     inkscape:pagecheckerboard="0"
     inkscape:deskcolor="#d1d1d1"
     showguides="true"
     inkscape:zoom="0.70710678"
     inkscape:cx="737.51237"
     inkscape:cy="408.00061"
     inkscape:window-width="1680"
     inkscape:window-height="998"
     inkscape:window-x="-8"
     inkscape:window-y="-8"
     inkscape:window-maximized="1"
     inkscape:current-layer="svg1">
    <sodipodi:guide
       position="581.78895,591.40951"
       orientation="0.96152874,0.27470437"
       id="guide2"
       inkscape:locked="false" />
  </sodipodi:namedview>
  <path
     id="path1"
     style="fill:#000000;stroke:none;stroke-width:40"
     d="M 237.99219 0.09765625 C 229.0818 -0.27361375 220.3575 0.40805502 211.81836 2.140625 C 194.74012 5.605775 184.9634 16.743838 182.48828 35.554688 C 180.01318 52.880447 182.48628 67.112 189.91211 78.25 C 197.33742 89.38797 205.25845 97.183478 213.67383 101.63867 C 212.18877 109.064 210.08592 115.62366 207.36328 121.31641 C 204.64066 127.00916 188.92222 129.85547 160.21094 129.85547 C 144.86529 128.86545 131.00641 137.28078 118.63086 155.10156 C 88.929532 201.1386 69.126982 234.30566 59.226562 254.60156 C 48.831092 270.9373 36.70437 303.85523 22.84375 353.35742 C 13.93336 372.66329 7.2501219 388.00904 2.7949219 399.39453 C -1.1652381 410.28501 -0.91809067 424.14582 3.5371094 440.97656 C 7.9923094 443.45166 11.332947 443.69883 13.560547 441.71875 C 15.788147 439.73867 16.408029 437.01788 15.417969 433.55273 C 13.932909 424.64233 14.056473 416.47416 15.789062 409.04883 C 17.521622 401.62349 22.347238 394.19682 30.267578 386.77148 C 31.752648 392.71175 30.887542 399.2714 27.669922 406.44922 C 24.452262 413.62703 25.317368 417.95827 30.267578 419.44336 C 42.148118 402.61261 46.232191 387.51404 42.519531 374.14844 C 38.806861 360.78284 44.499466 342.71437 59.597656 319.94336 C 74.695816 297.17237 83.483894 276.63027 85.958984 258.31445 C 111.20511 232.5733 132.98496 205.34602 151.30078 176.63477 C 166.64643 236.5324 169.122 278.85826 158.72656 303.60938 C 148.33109 328.36048 147.3405 355.33865 155.75586 384.54492 L 137.93555 497.41016 C 127.54009 528.10152 124.69376 560.77231 129.39648 595.42383 C 134.09917 630.07538 133.48129 665.46889 127.54102 701.60547 C 121.60078 713.48601 127.66412 719.17863 145.73242 718.68359 C 163.80071 718.1886 179.14646 718.1886 191.76953 718.68359 C 204.39259 719.17863 215.40708 719.42773 224.8125 719.42773 C 233.72287 719.92277 237.80698 718.31228 237.06445 714.59961 C 236.32191 710.88695 229.76227 705.56704 217.38672 698.63672 C 196.10078 696.65664 181.86922 692.44897 174.69141 686.01367 C 167.5136 679.57839 164.66727 666.95535 166.15234 648.14453 C 168.13245 625.86855 175.06286 575.62363 186.94336 497.41016 L 242.63281 497.41016 C 255.00835 507.80563 260.45382 521.41731 258.96875 538.24805 C 257.48369 555.0788 265.27915 580.69753 282.35742 615.10156 C 299.43566 649.50558 308.9652 678.83578 310.94531 703.0918 C 310.45027 715.96239 317.62786 720.78791 332.47852 717.57031 C 347.32919 714.35263 359.21072 713.85832 368.12109 716.08594 C 377.03149 718.31352 391.13944 719.42773 410.44531 719.42773 C 425.29598 719.92277 431.2358 716.95091 428.26562 710.51562 C 425.29552 704.08034 416.633 699.37833 402.27734 696.4082 C 380.9914 687.00278 365.76922 680.81583 356.61133 677.8457 C 347.45341 674.87554 339.40882 663.73748 332.47852 644.43164 C 325.54823 624.63076 315.40076 575.62363 302.03516 497.41016 L 265.65039 313.26172 C 268.62052 265.73961 281.24548 226.63277 303.52148 195.94141 C 327.28252 223.66264 364.161 249.89929 414.1582 274.65039 C 446.33463 239.99884 470.3429 204.60339 486.18359 168.4668 C 509.94466 165.00166 526.77535 158.8147 536.67578 149.9043 C 546.57623 140.9939 555.48591 133.56918 563.40625 127.62891 C 561.42617 122.18368 552.64006 123.91577 537.04688 132.82617 C 521.45367 141.73654 513.90537 142.2309 514.40039 134.31055 C 520.34065 130.84541 525.16624 127.99908 528.87891 125.77148 C 532.59158 123.54388 531.97366 121.44102 527.02344 119.46094 C 520.09315 122.43108 514.02782 124.28677 508.83008 125.0293 C 503.63232 125.77184 490.63925 136.78632 468.36328 158.07227 C 448.06739 180.84326 427.02901 206.33646 405.24805 234.55273 C 370.5965 203.86137 341.1428 178.61533 316.88672 158.81445 C 299.06594 144.95383 281.73895 136.29131 264.9082 132.82617 L 268.62109 121.6875 C 277.53149 122.67752 283.84397 123.17383 287.55664 123.17383 C 291.26931 123.17383 293.61935 120.69827 294.60938 115.74805 C 295.59944 110.79784 297.2099 107.95151 299.4375 107.20898 C 301.6651 106.46645 302.03585 105.22868 300.55078 103.49609 C 299.06571 101.76353 298.81854 101.14365 299.80859 101.63867 C 301.78867 101.63867 303.15004 101.02074 303.89258 99.783203 C 304.63511 98.545653 304.01524 96.937131 302.03516 94.957031 C 303.52023 93.967001 305.74864 93.099952 308.71875 92.357422 C 311.68891 91.614882 312.18324 88.027107 310.20312 81.591797 C 305.74795 70.206307 301.78745 61.294655 298.32227 54.859375 C 294.85713 26.148095 283.84263 9.3174075 265.2793 4.3671875 C 255.99764 1.8920875 246.90259 0.46892625 237.99219 0.09765625 z M 610.92969 1.3984375 C 577.76324 1.3984375 559.19846 13.030845 555.23828 36.296875 C 553.2582 43.227165 552.26953 52.384011 552.26953 63.769531 C 546.8243 73.669951 544.10156 80.600367 544.10156 84.560547 C 544.10156 86.540627 546.57713 87.53125 551.52734 87.53125 L 549.29883 91.986328 C 550.28886 93.471398 551.52666 94.214844 553.01172 94.214844 C 552.0217 96.194924 551.77451 98.174198 552.26953 100.1543 L 555.98242 100.89648 C 553.50732 110.79691 557.46587 115.74805 567.86133 115.74805 L 578.25781 115.74805 L 582.71484 131.34961 C 562.85194 131.73178 550.4757 147.56877 545.58594 178.86328 L 511.42969 257.57227 C 494.10393 277.37315 473.06554 307.07402 448.31445 346.67578 C 429.00861 360.53639 417.0035 369.69324 412.30078 374.14844 C 407.59809 378.60364 403.51595 382.06983 400.05078 384.54492 C 396.09062 387.02004 394.35655 388.99931 394.85156 390.48438 C 395.84161 392.46449 397.57569 393.20793 400.05078 392.71289 C 403.02094 391.72286 405.86726 389.86522 408.58984 387.14258 C 411.31248 384.41996 414.40595 382.93499 417.87109 382.6875 L 423.06836 382.31641 C 423.06836 382.81142 421.58339 385.53417 418.61328 390.48438 C 415.64312 395.4346 411.68263 399.14793 406.73242 401.62305 C 401.78221 404.09817 395.59525 408.05868 388.16992 413.50391 C 386.68485 415.48399 386.56125 416.84536 387.79883 417.58789 C 389.03637 418.33045 391.51002 420.06257 395.22266 422.78516 C 398.93533 425.5078 401.78161 426.37482 403.76172 425.38477 C 407.72188 421.42461 412.92016 417.58767 419.35547 413.875 C 425.79072 410.16233 430.49273 407.06884 433.46289 404.59375 C 436.92804 400.63354 440.02348 395.80603 442.74609 390.11328 C 445.46873 384.42053 451.53209 373.90232 460.9375 358.55664 C 496.57904 326.87525 518.85523 303.60848 527.76562 288.75781 C 546.77706 263.56769 556.20547 245.90642 556.05078 235.77539 C 556.69562 242.14848 561.8695 257.58136 571.57422 282.07422 C 537.41772 345.43704 520.33984 444.93825 520.33984 580.57422 L 520.33984 616.95703 C 520.33984 631.80767 518.97848 646.28835 516.25586 660.39648 C 513.53322 674.50461 504.25278 683.90864 488.41211 688.61133 C 472.57139 693.31405 459.69925 697.64531 449.79883 701.60547 C 431.97803 701.11049 430.49311 707.05221 445.34375 719.42773 L 540.38867 719.42773 C 550.28909 718.4377 553.25899 711.13463 549.29883 697.52148 C 545.33865 683.90841 545.95657 672.89391 551.1543 664.47852 C 556.35204 656.06316 561.17957 640.47024 565.63477 617.69922 L 637.66016 616.95703 C 637.66016 631.80767 636.29881 646.28835 633.57617 660.39648 C 630.85358 674.50461 621.57119 683.90864 605.73047 688.61133 C 589.88978 693.31405 577.01959 697.64531 567.11914 701.60547 C 549.29836 701.11049 547.81339 707.05221 562.66406 719.42773 L 657.70898 719.42773 C 667.60943 718.4377 670.5793 711.13463 666.61914 697.52148 C 662.65892 683.90841 663.27685 672.39955 668.47461 662.99414 C 673.67232 653.58872 678.49988 638.24297 682.95508 616.95703 L 682.95508 583.54297 C 682.95508 498.39921 684.44003 438.62668 687.41016 404.22266 C 690.38032 369.81866 687.78114 341.47717 679.61328 319.20117 C 671.44538 296.9252 671.81613 265.98653 680.72656 226.38477 L 688.89453 226.38477 C 691.86471 236.78024 694.83459 247.91829 697.80469 259.79883 C 695.82461 274.64947 697.4351 290.73869 702.63281 308.06445 C 707.83057 325.39024 710.924 344.44737 711.91406 365.23828 C 706.4688 380.58396 705.23106 391.59845 708.20117 398.28125 C 711.1713 404.96405 713.15059 410.53311 714.14062 414.98828 C 714.14062 419.44351 715.13125 421.91905 717.11133 422.41406 C 719.09147 422.41406 720.32921 421.05269 720.82422 418.33008 C 721.31926 415.60744 721.07208 412.26485 720.08203 408.30469 C 718.59696 404.83951 717.85352 401.3753 717.85352 397.91016 C 717.35845 395.93008 717.35845 394.93945 717.85352 394.93945 L 720.82422 397.91016 C 723.29934 406.82056 724.0408 413.99811 723.05078 419.44336 C 722.06072 424.88859 721.31926 432.06616 720.82422 440.97656 C 721.81425 443.45166 722.92847 444.44228 724.16602 443.94727 C 725.40362 443.45225 725.77437 442.95793 725.2793 442.46289 C 726.26936 442.95793 727.25997 443.20508 728.25 443.20508 C 729.24005 442.71004 729.73437 442.21376 729.73438 441.71875 C 730.72442 442.21376 731.71506 442.46289 732.70508 442.46289 C 733.69519 441.96788 734.18945 441.47158 734.18945 440.97656 C 735.67446 441.47158 736.91229 441.34797 737.90234 440.60547 C 738.89237 439.86291 739.6358 438.50156 740.13086 436.52148 C 739.14081 431.07623 739.2644 424.51853 740.50195 416.8457 C 741.73949 409.17288 742.11024 403.60384 741.61523 400.13867 C 740.6252 395.18846 739.14024 390.9808 737.16016 387.51562 C 733.69499 379.10026 729.98164 372.91133 726.02148 368.95117 C 733.44681 323.90416 732.20907 291.23339 722.30859 270.9375 C 725.77376 231.33576 724.2888 199.15932 717.85352 174.4082 C 715.87344 145.69694 706.22034 131.09267 688.89453 130.59766 C 688.89453 90.005846 684.06893 58.325678 674.41602 35.554688 C 664.76311 12.783677 643.60116 1.3984375 610.92969 1.3984375 z M 609.44336 11.050781 C 636.66955 11.050781 654.86161 22.188874 664.01953 44.464844 C 673.17745 66.740844 677.50871 100.40224 677.01367 145.44922 L 677.01367 213.76172 L 610.92969 213.76172 L 610.92969 88.273438 C 613.40481 84.313277 616.62184 78.991394 620.58203 72.308594 C 624.54219 65.625794 626.52148 58.820915 626.52148 51.890625 C 626.52148 45.455315 622.06666 42.236328 613.15625 42.236328 C 607.71103 42.236328 604.24679 45.702494 602.76172 52.632812 C 602.76172 45.207473 599.5427 40.503518 593.10742 38.523438 C 586.67211 36.543357 577.26813 35.801865 564.89258 36.296875 C 567.3677 19.466125 582.21715 11.050781 609.44336 11.050781 z M 235.02148 11.630859 C 246.15946 11.305999 255.62722 12.721173 263.42383 15.876953 C 273.81929 20.084633 280.25535 27.138632 282.73047 37.039062 C 263.91961 37.039062 251.79092 39.514634 246.3457 44.464844 C 216.16453 23.984785 206.37498 50.325558 220.35742 68.96875 C 227.78272 78.86918 229.26767 86.046753 224.8125 90.501953 C 221.34732 94.462133 215.03484 90.501624 205.87695 78.621094 C 196.71903 66.740584 193.13125 53.374108 195.11133 38.523438 C 197.58645 23.177757 206.99043 14.515236 223.32617 12.535156 C 227.41009 12.040126 231.30882 11.739149 235.02148 11.630859 z M 230.06641 44.578125 C 233.6742 44.655675 237.93277 47.06713 241.14844 51.890625 C 245.1086 57.830895 247.33507 57.830895 247.83008 51.890625 C 258.22555 46.445375 270.84855 44.464159 285.69922 45.949219 C 287.18428 47.929299 288.66923 50.899185 290.1543 54.859375 C 284.70904 51.889245 279.01644 51.39492 273.07617 53.375 C 267.1359 55.3551 262.18672 56.345703 258.22656 56.345703 L 256.74023 60.058594 C 263.17551 60.058594 269.36442 59.067971 275.30469 57.087891 C 281.24495 55.107811 286.69041 55.849303 291.64062 59.314453 C 296.09582 64.759673 300.05631 74.16565 303.52148 87.53125 C 297.58119 88.52131 294.60938 90.749694 294.60938 94.214844 C 288.66913 93.719834 284.46145 94.214159 281.98633 95.699219 C 279.51121 97.184289 281.49243 100.40134 287.92773 105.35156 C 288.91776 115.25198 283.84308 118.22188 272.70508 114.26172 C 261.5671 110.30154 254.38951 115.37624 251.17188 129.48438 C 247.95424 143.59249 255.50254 151.63709 273.81836 153.61719 C 291.63913 155.10223 298.19881 159.30991 293.49609 166.24023 C 288.7934 173.17055 281.49222 185.66998 271.5918 203.73828 C 261.69134 221.80657 253.77035 257.32368 247.83008 310.29102 L 178.77539 294.69727 C 184.22061 267.47108 182.48852 235.29461 173.57812 198.16797 C 164.66772 161.04133 170.11121 143.46914 189.91211 145.44922 C 209.71297 147.4293 222.58512 134.06281 228.52539 105.35156 C 229.51544 101.88641 231.86545 97.802329 235.57812 93.099609 C 239.29081 88.396889 238.79647 83.4477 234.09375 78.25 C 229.39104 73.05226 225.92682 66.616219 223.69922 58.943359 C 220.91007 49.336188 224.79348 44.464783 230.06641 44.578125 z M 576.21484 44.650391 C 580.29877 44.774141 584.19749 45.453856 587.91016 46.691406 C 595.33547 49.166526 599.04883 54.364806 599.04883 62.285156 L 607.95898 62.285156 C 607.95898 55.354866 609.69111 51.890625 613.15625 51.890625 C 616.62143 51.890625 618.35352 53.622741 618.35352 57.087891 C 618.35352 60.553031 615.87993 65.255043 610.92969 71.195312 C 605.97948 77.135572 602.26614 82.086715 599.79102 86.046875 L 599.79102 130.59766 L 594.59375 130.59766 C 590.13858 125.15241 587.16868 117.97485 585.68359 109.06445 L 570.08984 109.06445 C 564.64461 109.06445 561.92188 107.33234 561.92188 103.86719 C 561.92188 98.916979 564.39745 95.947081 569.34766 94.957031 C 569.34766 92.481931 568.6042 91.244141 567.11914 91.244141 L 556.72461 91.244141 C 559.19973 86.788941 557.2185 83.571907 550.7832 81.591797 C 550.7832 79.116707 553.50591 73.174941 558.95117 63.769531 C 558.95117 56.839211 560.43612 50.899439 563.40625 45.949219 C 567.86145 44.959179 572.13091 44.526631 576.21484 44.650391 z M 229.81445 47.222656 C 224.04407 47.294326 225.84007 56.259688 226.29688 58.201172 C 228.07369 65.752665 238.48228 81.547296 244.48828 79.363281 C 250.28867 77.254093 248.85599 71.06984 244.11719 68.226562 C 247.57034 63.622332 238.90704 47.109752 229.81445 47.222656 z M 573.98828 49.847656 C 569.16181 49.971416 565.13951 51.394568 561.92188 54.117188 L 561.92188 59.314453 C 568.8522 53.374183 578.50532 52.632691 590.88086 57.087891 L 595.33594 57.087891 L 595.33594 53.375 L 590.88086 53.375 C 584.44557 50.89989 578.81474 49.723896 573.98828 49.847656 z M 231.0625 52.166016 C 236.89001 51.971764 239.57559 58.220316 240.77734 63.027344 C 241.51987 65.997474 240.9 66.864493 238.91992 65.626953 C 236.93981 64.389403 236.81625 65.256422 238.54883 68.226562 C 240.28142 71.196692 240.28142 72.061799 238.54883 70.824219 C 236.81625 69.586679 234.83696 67.360238 232.60938 64.142578 C 230.38178 60.924958 229.26758 57.705931 229.26758 54.488281 C 229.26758 52.980011 229.86603 52.205896 231.0625 52.166016 z M 575.28711 57.087891 C 567.86178 57.087891 563.15977 59.810639 561.17969 65.255859 L 561.92188 67.482422 L 565.63477 66.740234 C 567.61485 68.225304 569.84324 68.96875 572.31836 68.96875 C 575.2885 68.96876 581.47545 66.987534 590.88086 63.027344 L 595.33594 63.769531 L 595.33594 60.800781 L 590.88086 60.800781 C 582.96052 58.325661 577.76223 57.087891 575.28711 57.087891 z M 280.89453 58.904297 C 277.01364 58.869497 272.42726 60.242844 267.13672 63.027344 L 259.71094 63.027344 L 258.22656 66.740234 L 267.13672 65.998047 C 275.05706 70.948267 282.72896 71.93889 290.1543 68.96875 L 292.38281 70.453125 L 293.125 65.998047 L 288.66992 61.542969 C 286.5042 59.810389 283.913 58.931377 280.89453 58.904297 z M 576.0293 60.058594 C 578.99944 60.058594 581.97128 60.800086 584.94141 62.285156 C 582.96133 63.275206 579.74231 64.265839 575.28711 65.255859 C 576.27717 64.265839 576.77344 63.275206 576.77344 62.285156 C 576.77344 61.790146 576.52434 61.048644 576.0293 60.058594 z M 570.58398 60.820312 C 569.76046 60.939462 569.34766 61.672944 569.34766 63.027344 C 569.34766 64.017394 570.08916 64.760849 571.57422 65.255859 C 569.59414 65.750899 567.3677 65.503722 564.89258 64.513672 C 566.78995 62.141992 568.68663 60.919414 570.58398 60.820312 z M 277.53125 62.285156 C 276.04618 64.265236 276.04618 65.997352 277.53125 67.482422 C 275.55117 66.987402 273.07755 66.245919 270.10742 65.255859 L 277.53125 62.285156 z M 284.21484 62.285156 C 286.68996 63.275206 287.92773 64.512987 287.92773 65.998047 C 286.44267 66.493067 284.71055 66.987402 282.73047 67.482422 C 284.71055 65.997352 285.2049 64.265236 284.21484 62.285156 z M 244.11719 72.681641 C 245.60226 73.671661 245.97495 74.783914 245.23242 76.021484 C 244.48988 77.259034 243.37571 77.259034 241.89062 76.021484 C 240.40555 74.783914 241.14706 73.671661 244.11719 72.681641 z M 288.66992 83.626953 C 288.17729 83.66516 287.61947 84.311264 287.18555 86.046875 C 286.2153 89.927925 290.55504 93.071887 294.23828 89.388672 C 295.97087 87.656112 297.33225 87.283417 298.32227 88.273438 C 299.15219 84.146666 296.08292 85.315327 293.86719 87.160156 C 290.34864 90.092312 289.43461 87.441187 289.7832 86.046875 C 290.04844 84.985989 289.43842 83.56735 288.66992 83.626953 z M 284.95703 96.441406 L 287.18555 96.441406 L 293.86719 96.441406 C 295.84729 96.441406 296.96149 96.812156 297.20898 97.554688 C 297.4565 98.297228 297.08575 98.669922 296.0957 98.669922 L 284.95703 96.441406 z M 284.95703 97.927734 L 294.60938 100.89648 C 295.10442 101.88651 295.10442 102.62996 294.60938 103.125 C 294.11437 103.62001 293.62001 103.62001 293.125 103.125 C 291.14492 102.62996 289.4128 101.88651 287.92773 100.89648 C 286.44267 99.906442 285.45207 98.917764 284.95703 97.927734 z M 581.22852 145.44922 C 587.16881 147.4293 593.35577 147.4293 599.79102 145.44922 L 599.79102 226.38477 L 665.13477 226.38477 C 655.72936 268.46163 655.35667 301.00884 664.01953 324.02734 C 672.68241 347.04588 675.40512 374.52031 672.1875 406.44922 C 668.96981 438.37815 667.11412 502.60747 666.61914 599.13672 L 535.19141 599.13672 C 536.18144 438.74963 554.00079 333.06147 588.65234 282.07422 C 576.77181 260.29326 569.09992 241.97761 565.63477 227.12695 C 553.75424 220.19665 550.78435 209.80202 556.72461 195.94141 C 566.13003 180.59573 574.29823 163.76504 581.22852 145.44922 z M 176.54688 312.51953 L 249.31641 330.33984 L 279.75977 481.07422 L 156.5 481.07422 L 173.57812 384.54492 C 161.20257 355.33865 162.19122 331.33038 176.54688 312.51953 z " />
</svg>
