<?xml version="1.0" encoding="UTF-8" standalone="no"?>
<svg
   width="1250"
   height="1000"
   id="svg2241"
   sodipodi:version="0.32"
   inkscape:version="1.4.2 (f4327f4, 2025-05-13)"
   sodipodi:docname="A438.svg"
   inkscape:output_extension="org.inkscape.output.svg.inkscape"
   sodipodi:modified="true"
   version="1.1"
   xmlns:inkscape="http://www.inkscape.org/namespaces/inkscape"
   xmlns:sodipodi="http://sodipodi.sourceforge.net/DTD/sodipodi-0.dtd"
   xmlns="http://www.w3.org/2000/svg"
   xmlns:svg="http://www.w3.org/2000/svg"
   xmlns:rdf="http://www.w3.org/1999/02/22-rdf-syntax-ns#"
   xmlns:cc="http://creativecommons.org/ns#"
   xmlns:dc="http://purl.org/dc/elements/1.1/">
  <metadata
     id="metadata2248">
    <rdf:RDF>
      <cc:Work
         rdf:about="">
        <dc:format>image/svg+xml</dc:format>
        <dc:type
           rdf:resource="http://purl.org/dc/dcmitype/StillImage" />
      </cc:Work>
    </rdf:RDF>
  </metadata>
  <defs
     id="defs2246" />
  <sodipodi:namedview
     inkscape:window-height="998"
     inkscape:window-width="1680"
     inkscape:pageshadow="2"
     inkscape:pageopacity="0.0"
     guidetolerance="10.0"
     gridtolerance="10.0"
     objecttolerance="10.0"
     borderopacity="1.0"
     bordercolor="#666666"
     pagecolor="#ffffff"
     id="base"
     inkscape:showpageshadow="2"
     inkscape:pagecheckerboard="0"
     inkscape:deskcolor="#d1d1d1"
     inkscape:zoom="0.53386562"
     inkscape:cx="789.52452"
     inkscape:cy="317.49563"
     inkscape:window-x="-8"
     inkscape:window-y="-8"
     inkscape:window-maximized="1"
     inkscape:current-layer="svg2241"
     showguides="true" />
  <path
     id="path2243"
     style="fill:#000000;stroke:none;stroke-width:55.6512"
     d="M 923.46289,0.01757813 C 912.77162,0.30652861 901.978,4.100742 890.41992,12.191406 868.07423,25.290585 852.7205,40.653515 846.94141,59.146484 c -5.77905,18.493006 -6.56066,35.596135 -3.47852,48.695316 -13.09918,9.24649 -30.99311,8.85016 -55.65039,-3.47852 -24.65731,-12.328626 -60.03961,-1.63134 -104.3457,33.04297 -44.30609,34.6743 -81.63698,48.28788 -111.30274,41.73828 -10.86216,-2.39813 -22.52451,-2.8008 -34.78125,-1.73828 -0.33214,-0.46498 -1.42813,-1.1779 -1.74023,-1.74023 -3.30815,-5.9607 -4.16065,-16.14422 -5.2168,-33.04297 -1.1558,-18.49296 -13.00892,-39.29204 -33.04297,-60.867191 -6.93488,3.082186 -6.54961,9.882422 0,19.128911 6.54955,9.24649 8.49808,18.57968 6.95703,27.82617 -12.32863,-10.01703 -20.49494,-19.93268 -24.34765,-29.564456 -3.85267,-9.631736 -5.21873,-20.714336 -5.21875,-33.042968 0.7705,-6.164332 -0.008,-11.600471 -3.47656,-13.91211 -3.46745,-2.311603 -8.52026,-1.146679 -13.91407,3.476563 -3.08219,23.886758 0.60462,44.105326 8.69531,59.130861 8.09069,15.02557 20.93375,37.77318 41.73829,67.82422 -12.80395,3.58203 -25.9077,8.87815 -39.99805,15.65234 l -153.04102,-8.69531 -1.74023,1.73828 c -45.46187,-10.78757 -81.43776,-11.7553 -109.5625,-1.73828 -28.12473,10.01703 -69.33958,14.87984 -121.736329,15.65039 -20.804572,-4.62325 -30.335001,8.40786 -29.564453,40 l -1.740234,257.38672 c 0.269685,1.48326 1.399749,2.13159 1.740234,3.47851 h -20.86914 v 119.99805 c 3.082144,30.82158 8.914685,64.85091 17.390624,102.60742 C 44.842616,745.65308 28.509997,776.1817 0,820.87305 c 16.181365,51.62623 24.347656,82.72818 24.347656,90.43359 -6.164336,14.64022 -9.665001,32.33696 -10.435547,53.91211 0.770546,5.39376 4.271213,8.69531 10.435547,8.69531 H 43.476562 V 1000 H 104.3457 v -24.34766 h 33.04297 c 2.31158,-27.7394 -11.49001,-53.4033 -39.999998,-76.51953 -9.246486,0 -12.171875,-13.03104 -12.171875,-40 0,-33.90376 23.925593,-79.59813 74.781253,-137.38867 8.47596,-93.23541 19.94381,-140.86719 33.04297,-140.86719 h 713.02929 c 20.03405,0 29.56641,41.79925 29.56641,123.47657 0,40.83864 -1.56331,76.03288 -6.95703,106.08398 0,18.49294 28.19487,30.35716 85.21481,36.52148 14.6403,9.2465 20.8692,29.27695 20.8692,60.86914 v 59.12891 c 10.017,2.31175 18.3714,6.19754 22.6093,10.43555 4.2378,4.23784 7.3514,11.04927 10.4336,22.60742 h 43.4786 v -20.86914 h 24.3476 c 0,-29.28061 -13.9988,-61.94577 -41.7383,-97.39063 v -52.17187 l -66.0859,-83.47656 38.2598,-224.34375 6.957,-6.95703 c -0.8192,-3.27763 -2.5096,-5.62194 -3.4785,-8.69532 -1.8761,-5.9494 -2.7795,-12.20651 -5.2168,-17.39062 l -20.8692,-135.65039 c 10.8035,-9.82948 19.4214,-21.41327 26.086,-31.30274 15.4108,-23.11624 14.2439,-52.67711 -3.4785,-90.43359 -17.7225,-39.29754 -45.9193,-55.43295 -85.21684,-46.95703 -8.5649,2.01526 -15.36024,4.1094 -22.60742,5.21875 7.23961,-13.53322 12.85514,-25.6924 15.65234,-34.7832 C 1003.177,123.20472 1013.2788,94.239335 1001.7207,69.582031 990.16254,44.924728 974.41435,25.476699 954.76562,10.451172 944.94124,2.9384083 934.15415,-0.27137236 923.46289,0.01757813 Z M 921.73047,19.900391 c 10.55377,0.638548 21.32804,6.013124 31.29687,14.898437 17.72246,15.796074 28.03452,30.191273 33.04297,45.216797 5.0086,15.025528 4.0277,29.409615 -5.21875,41.738285 C 963.1291,101.71986 949.13033,89.284262 939.11328,86.972656 934.15579,37.396837 894.61926,52.08496 886.94141,83.494141 c -4.23785,17.337129 -11.62262,26.085939 -20.86914,26.085939 -7.7054,0 -8.48707,-10.112874 -3.47852,-31.302736 5.00862,-21.189862 16.28829,-38.104962 34.78125,-50.433594 4.6235,-2.889533 9.33898,-5.77714 13.91406,-6.957031 3.43131,-0.884918 6.92348,-1.199178 10.44141,-0.986328 z m -7.62695,47.289062 c 0.29458,-0.01123 0.58685,-0.01044 0.87695,0.002 7.73601,0.330513 13.73186,8.97973 10.2207,21.519532 -2.69685,9.631736 0.0221,13.318555 6.95703,8.695312 16.18137,6.164333 29.40958,17.060793 41.73828,34.783203 -1.54098,3.08219 -3.87507,8.51837 -6.95703,13.91211 -1.54104,-9.24648 -5.82143,-16.63119 -13.91211,-20.86914 -8.09068,-4.23799 -14.30843,-8.32113 -17.39062,-12.17383 l -5.21875,1.74024 c 6.16432,6.1643 13.16379,12.76738 20.86914,17.39062 7.70547,4.62323 12.37297,10.65294 13.91406,19.12891 -3.08219,10.01704 -11.05122,23.81867 -22.60937,40 -6.93486,-5.39379 -11.79967,-6.56069 -15.65235,-3.47852 -4.62334,-6.16434 -8.32113,-11.01802 -12.17383,-12.17382 -3.85266,-1.15583 -6.95507,4.09422 -6.95507,15.65234 -10.017,10.01703 -16.83033,7.10077 -22.60938,-8.69531 -5.77903,-15.7961 -21.13088,-17.94184 -43.47656,-8.69532 -15.36268,6.35697 -21.16711,16.28768 -20.86914,29.56446 -3.391,-9.55606 -4.50211,-14.94769 -8.69531,-26.08594 -6.93905,-25.2779 -20.16205,-44.08372 -38.25977,-55.65234 4.76709,0.49808 9.78898,1.37807 13.91211,3.47851 20.41933,10.40229 41.22948,10.01703 64.3457,0 5.39372,-1.54103 12.39324,-1.353 20.86914,-1.73828 8.47596,-0.3851 13.72599,-6.98829 15.65235,-17.39062 1.92609,-10.402289 6.39483,-20.319928 12.17383,-29.566414 3.95363,-6.326071 8.83121,-9.179145 13.25,-9.347656 z m 1.89257,5.498047 c -3.60359,-0.157958 -8.02885,2.965988 -11.66406,7.328125 -6.76243,8.11483 -14.40519,34.207315 -6.95703,39.999995 6.81173,5.2978 12.39141,-0.44214 10.43555,-12.17382 10.80648,-2.16128 17.70468,-17.237748 13.91211,-29.564456 -1.18054,-3.836961 -3.26095,-5.481768 -5.72657,-5.589844 z m -2.59179,6.384766 c 4.30767,-0.174056 7.98,9.873829 -0.37696,21.812504 -2.69687,3.85268 -5.21679,3.08213 -5.21679,0 -0.77077,-3.08219 -1.55244,-2.497781 -3.47852,1.74023 -1.9261,4.23794 -2.70774,4.82041 -3.47851,1.73828 -0.5761,-9.592694 3.47067,-17.918281 10.43554,-24.347655 0.68898,-0.612394 1.41035,-0.914878 2.11524,-0.943359 z m -12.17578,32.218754 c 0.83045,0.0353 1.41817,0.75623 3.10351,1.76757 0,3.08213 -1.16676,4.83153 -3.47851,5.2168 -2.31175,0.38511 -2.12341,-0.39459 -1.73829,-3.47656 0.19477,-1.54109 0.67869,-3.28591 1.73829,-3.47852 0.13245,-0.0241 0.25636,-0.0343 0.375,-0.0293 z m 27.45117,8.7246 -3.47852,1.73829 6.95703,10.43554 c 2.31175,13.09922 9.11193,22.43244 19.12891,27.82617 l 1.74023,3.47657 3.47852,-3.47657 1.73828,-10.43554 c 0,-9.24648 -7.1966,-15.47535 -22.60742,-20.86914 z m -186.08399,8.69532 10.43555,79.99804 c 5.54008,17.59865 13.1234,34.48904 20.86914,50.4336 -3.30846,2.34836 -6.9584,2.21881 -10.43555,5.21875 -15.75953,13.59643 -57.63164,29.88882 -114.78125,46.95508 -12.94186,-17.56303 -25.06371,-35.6849 -39.99804,-53.91211 v -52.17383 c 26.96891,-6.16433 57.69474,-23.27662 93.91015,-52.17188 14.707,-11.7343 27.89804,-19.09411 40,-24.34765 z m 194.7793,5.21679 10.43359,5.21875 c -3.85267,-0.77054 -5.21679,1.36411 -5.21679,5.2168 -1.54108,-3.08214 -3.6757,-6.58285 -5.2168,-10.43555 z m 15.65234,12.17383 c 0.77077,3.85274 0.77077,6.38371 0,8.69532 -2.31158,-1.54109 -4.64538,-3.67574 -6.95703,-5.2168 3.85273,0 6.1865,-0.39655 6.95703,-3.47852 z m -19.90234,25.3711 c -0.59905,-0.007 -1.4964,0.19599 -2.70703,0.71484 -9.95189,4.26521 -3.26029,10.43555 1.74023,10.43555 3.46764,0 5.2168,1.16687 5.2168,3.47851 5.4729,-3.4784 0.7902,-5.33055 -3.47852,-5.21679 -2.01573,0 -9.36523,-3.14327 -1.73828,-6.95704 2.08521,-1.04258 2.49771,-2.43767 0.9668,-2.45507 z m -17.70508,8.46875 c 0.63044,0.006 1.65803,0.8155 2.82422,2.68164 1.92608,3.0822 4.64528,5.41599 6.95703,6.95703 0.384,0.77055 -0.0947,1.06408 0,1.73828 -1.05349,-0.12184 -2.48793,0.16533 -3.47851,0 l -6.95704,-10.43359 c 0,-0.57791 0.21934,-0.91301 0.59376,-0.94141 0.0195,-0.001 0.0402,-0.002 0.0605,-0.002 z m -1.58984,1.82031 6.1543,11.29492 c -1.54377,0.70121 -4.47691,0.66148 -5.21876,1.74024 -0.77075,-3.08214 -1.35318,-4.64539 -1.73828,-6.95704 -0.384,-2.31164 0.032,-4.53702 0.80274,-6.07812 z m -40.80274,4.33984 c 6.93487,10.78754 12.18494,18.75469 15.65235,22.60742 3.46762,3.85266 7.36446,3.46745 13.91406,0 2.71022,-1.4348 4.90433,-2.90131 6.95508,-3.47851 -0.6745,0.96315 -1.73828,2.52183 -1.73828,5.21875 -7.70542,0 -9.26868,3.30152 -6.95703,8.69531 -4.6235,0.77055 -9.47693,2.71706 -12.17383,6.95508 -2.69686,4.23794 -1.14444,8.71746 3.47851,15.65234 4.6235,6.93485 8.32115,13.73706 12.17383,19.13086 -10.78755,7.7054 -17.01641,16.83941 -20.86914,26.08594 l -17.39062,-29.56445 -24.34766,8.69531 c -0.52312,-2.24509 -1.07355,-4.42868 -1.74023,-6.95703 4.21891,-3.92752 5.85652,-9.40016 5.21874,-15.65039 -1.92664,-18.87823 -2.31174,-35.59611 0,-48.69531 z m 131.93556,11.74219 c 19.2483,0.70322 35.0574,13.46078 47.1933,40.42969 13.0991,30.0511 14.4632,55.51772 5.2168,74.78125 -18.0821,26.24816 -49.7508,51.59796 -95.65034,76.52148 -17.07512,-19.27766 -37.79825,-36.41902 -59.12891,-53.91211 l 60.86719,-27.82617 c 15.41083,3.08219 29.0133,3.08219 38.25976,0 20.034,-10.01699 27.0335,-21.68202 20.8691,-34.78125 -3.8528,-10.01699 -10.653,-14.28823 -19.1289,-10.43555 -3.082,-3.85267 -2.3002,-8.91464 3.4786,-17.39062 5.779,-8.47593 2.6636,-23.83886 -10.43559,-46.95508 2.88951,-0.38526 5.70919,-0.5321 8.45899,-0.43164 z m -22.3711,0.43164 c 13.86978,22.34568 17.5676,37.89665 12.17382,45.2168 -5.39377,7.32013 -7.72758,19.56764 -6.95703,36.51953 12.32861,-5.39378 20.29781,-6.36152 22.60941,-1.73828 2.3117,4.62324 -2.5532,10.25856 -15.65238,15.65234 -7.70542,3.85266 -19.37237,3.08211 -34.7832,0 l -60.86719,27.82617 -8.69531,-19.13086 c 3.85274,-10.01704 13.18394,-21.88125 27.82422,-36.52148 -0.7706,-6.93489 -5.03983,-15.28729 -10.43359,-22.60742 -5.39377,-7.32013 -6.56065,-10.8319 -3.47852,-13.91407 3.08252,-3.08216 7.16538,-2.68579 12.17383,3.47852 5.0086,6.16434 6.56068,2.46643 3.47852,-12.17383 l -3.47852,-1.73828 c 0,0 1.36406,-1.16688 5.2168,-3.47851 2.31175,2.31163 5.03095,2.6969 6.95703,0 1.92609,-2.69692 0.37254,-6.78005 -3.47852,-12.17383 h 5.2168 31.30469 c 13.09925,5.39377 20.29584,21.72637 22.60742,48.69531 l 5.21875,-1.74023 c -3.08225,-28.50996 -9.88443,-44.07013 -19.13086,-48.69336 z m -424.33985,1.73828 c 8.81575,0.71667 17.39773,2.50173 26.08594,5.2168 v 24.34765 c -8.34651,-9.72786 -17.19188,-19.65403 -26.08594,-29.56445 z m -38.26172,3.47852 c 21.48289,40.79422 42.8648,76.99771 64.34766,107.82422 v 17.39062 l -227.82227,59.12891 -15.65234,-168.69141 128.69336,5.2168 c 16.67643,-10.46364 34.17344,-16.92732 50.43359,-20.86914 z m 433.03711,1.73828 -5.21875,1.74023 1.74024,5.2168 c 0.77022,0.77053 1.73828,1.16693 1.73828,3.47852 0.77077,3.08218 1.93753,6.58087 3.47851,10.43359 3.08197,4.62321 7.94689,10.25856 15.65235,15.65234 l 6.95703,13.91407 3.47656,-3.47852 -5.21679,-13.91406 c 0,-9.24648 -2.13485,-15.47536 -5.2168,-20.86914 -3.08196,-5.39378 -6.97725,-8.69532 -13.91211,-8.69532 z m 1.73828,6.95703 c 1.54098,0.77053 3.29072,1.35494 5.2168,1.74023 1.9261,0.3851 3.67778,1.16498 5.21875,3.47657 -1.54097,-1.54105 -3.67777,-2.50878 -5.21875,-1.73828 -2.31175,1.54108 -1.54098,4.84262 0,8.69531 -0.2059,-0.28884 -1.54571,0.28883 -1.73828,0 -2.31175,-3.85269 -3.47851,-7.5506 -3.47852,-12.17383 z m 15.65235,10.43555 c 0,1.54103 0.19952,7.17446 1.73828,15.65039 -4.62351,-3.46746 -7.54406,-6.96616 -10.43359,-10.4336 0.96333,0.3851 2.32264,-0.96968 3.47851,-1.74023 3.08213,-1.5411 5.2168,-2.70606 5.2168,-3.47656 z m -806.94336,24.3457 c 32.36269,0 84.85926,4.46843 156.51953,12.17383 l 8.69531,76.52148 c -4.62324,15.41078 -17.85149,20.07642 -41.73828,13.91211 -23.43006,-6.04649 -86.03626,4.98687 -184.34375,33.04297 C 93.457269,369.6818 89.731842,350.239 92.171875,325.22852 c 3.082147,-28.50999 9.299945,-47.95607 17.390625,-59.12891 8.09068,-11.17283 25.40211,-17.58978 53.91211,-19.13086 z m 615.64258,24.34766 c 3.11759,5.82701 7.00521,11.79859 10.43359,17.39257 -7.00525,1.25442 -15.52061,-1.54387 -26.08594,-5.21875 5.43095,-3.95422 10.83547,-7.93066 15.65235,-12.17382 z m 79.99804,5.21875 15.65235,36.51953 c -9.96645,-7.2075 -18.80856,-15.73097 -29.56446,-22.60742 5.20116,-3.61188 10.44466,-8.90359 13.91211,-13.91211 z m -95.65039,8.69531 c -9.4276,10.60741 -15.89939,24.34024 -17.39062,39.99805 -20.07918,2.26457 -35.63732,4.39668 -53.91211,6.95703 -9.09975,-0.13917 -18.96082,-0.30052 -27.82617,0 40.05494,-12.21503 73.05559,-28.16045 99.1289,-46.95508 z m 34.78125,17.39062 c 4.17385,6.11811 9.34187,11.57147 13.91407,17.39063 6.64592,7.3683 13.76271,13.98846 20.86914,20.86914 -8.2464,1.45628 -11.99275,1.11925 -22.60938,3.47852 -13.78981,-2.67566 -26.64806,-3.36579 -39.99804,-5.2168 l -5.21876,-12.17383 c -0.77021,-12.32863 2.73009,-19.5272 10.43555,-22.60937 8.45944,0.46969 15.29452,-1.28463 22.60742,-1.73829 z m 59.13086,60.86914 c 20.35382,16.90492 42.45009,31.78504 66.08594,45.21485 l -50.43555,24.34765 -24.3457,-50.43359 z m 168.51955,4.14063 14.0859,88.03125 c -14.384,-12.5535 -31.7074,-24.67899 -53.91209,-36.52149 -4.32127,-5.82434 -9.23776,-11.71515 -13.91406,-17.39062 21.11828,-11.54808 38.77695,-22.72944 53.74025,-34.11914 z m -391.12502,2.81445 c 64.01635,14.05258 131.70422,24.55386 205.2129,31.30469 l -62.60743,3.47852 c -33.90376,13.09918 -60.34926,30.39949 -79.99804,50.43359 -19.64881,20.03404 -42.98076,32.28351 -69.56446,36.52148 -26.58363,4.23795 -59.64322,1.90413 -100.86718,-6.95703 -41.22393,-8.86123 -77.77316,-13.71494 -107.82422,-12.17383 -59.3316,13.09918 -142.554,19.70225 -250.42969,17.39063 l -5.21875,-48.69531 c 125.59812,0.77055 243.81955,-13.42547 354.77734,-43.47657 29.97248,-10.42521 70.62994,-19.60487 116.51953,-27.82617 z m 302.60352,46.95703 1.73828,1.73828 V 506.0957 H 662.59766 c 11.45863,-4.28562 21.97106,-10.12984 29.56445,-15.65234 26.19836,-26.1984 55.36291,-47.39384 86.95508,-64.3457 l 71.30273,-5.21875 15.65235,31.30468 z M 83.476562,445.22656 c 20.804598,6.16433 42.969728,8.89446 66.085938,10.43555 l 1.73828,12.17383 c -15.41082,6.16434 -29.7949,6.16434 -41.73828,0 -11.943378,-6.16429 -19.921599,-13.36285 -26.085938,-22.60938 z m 874.767578,1.74024 c 6.62739,13.87943 17.75698,33.01653 60.86916,55.65039 6.1643,-5.39377 3.8305,-11.42349 -6.9571,-19.12891 -10.7875,-7.70543 -18.55746,-16.84145 -20.86909,-26.08789 18.49299,5.39376 31.90929,13.36292 39.99999,22.60938 6.4725,7.39722 11.397,16.22301 15.6504,26.08593 h -88.69336 z m -532.16406,52.17187 c 31.11058,-0.62609 69.99164,0.74451 114.7793,6.95703 H 349.55859 c 11.23915,-1.3348 25.26295,-1.89178 34.78321,-3.47851 12.136,-2.02264 26.18299,-3.16549 41.73828,-3.47852 z M 64.347656,535.66016 H 1031.2871 l -36.52148,217.38672 c 49.31458,50.85568 73.04098,80.9899 73.04098,88.69531 v 31.30273 c 0,13.8698 9.1361,33.30672 26.0879,55.65235 3.8527,5.39376 5.2168,10.45576 5.2168,17.39062 v 1.73828 h -36.5215 v -29.56445 c 0,-70.11912 -24.8933,-104.3457 -76.51949,-104.3457 -13.09913,0.77076 -23.40014,-3.4989 -29.56445,-10.4336 4.6235,-31.59219 8.8925,-57.85152 10.43359,-81.73828 0,-53.16727 -7.96709,-104.69418 -22.60742,-154.7793 -3.08213,-7.70542 -11.44763,-12.17382 -26.08789,-12.17382 H 201.73633 c -26.96894,-0.77055 -44.65651,7.59298 -50.43555,26.08593 -5.77905,18.49294 -12.3932,59.52166 -20.86914,123.47657 -5.39379,13.09918 -19.78699,33.89829 -45.214843,60.86718 -19.263512,35.44486 -29.566408,70.64109 -29.566406,106.08594 0,26.96892 12.063321,52.63277 38.261718,76.51953 h -40 c 0,-24.65726 -8.166292,-64.51907 -24.347656,-119.99805 32.362692,-49.31457 48.695313,-83.14474 48.695313,-100.86718 L 64.347656,633.05078 Z M 302.6034,412.18421 c -44.67437,5.67873 -91.1169,9.83171 -139.128,12.1737 34.44427,-3.77082 76.27898,-7.05027 139.128,-12.1737 z m 205.21379,-41.73839 c -48.47497,13.74663 -99.47074,26.13044 -153.0408,34.78199 z"
     sodipodi:nodetypes="scscssscsscscscccsccccsccccccccccsccccccscsssccscscccccccccccccccccssssssccssscssscscccsccscccscsscccscccsssssscsssscsccsscscsssccccccccccccccccsccccccccccssccscsscccccsscccccccscccscccccccccsccccccccscscscscccccscscccscccccccccccccccccccccccccccscccscccccccccccccsccscccccccccccccccccccccccccccccccccccssscccccccccccccccccscccscscccsccsscccsscsccsccccscsccscccccccccccc" />
</svg>
