<?xml version="1.0" encoding="UTF-8" standalone="no"?>
<svg
   width="800"
   height="1000"
   version="1.1"
   id="svg1"
   sodipodi:docname="A466A.svg"
   inkscape:version="1.4.2 (f4327f4, 2025-05-13)"
   xmlns:inkscape="http://www.inkscape.org/namespaces/inkscape"
   xmlns:sodipodi="http://sodipodi.sourceforge.net/DTD/sodipodi-0.dtd"
   xmlns="http://www.w3.org/2000/svg"
   xmlns:svg="http://www.w3.org/2000/svg">
  <defs
     id="defs1" />
  <sodipodi:namedview
     id="namedview1"
     pagecolor="#ffffff"
     bordercolor="#666666"
     borderopacity="1.0"
     inkscape:showpageshadow="2"
     inkscape:pageopacity="0.0"
     inkscape:pagecheckerboard="0"
     inkscape:deskcolor="#d1d1d1"
     showguides="true"
     inkscape:zoom="34.1674"
     inkscape:cx="482.81403"
     inkscape:cy="181.91317"
     inkscape:window-width="1680"
     inkscape:window-height="998"
     inkscape:window-x="-8"
     inkscape:window-y="-8"
     inkscape:window-maximized="1"
     inkscape:current-layer="svg1" />
  <path
     id="path1"
     style="fill:#000000;stroke:none;stroke-width:0.999998"
     d="m 517.41406,0.01757813 c -12.05685,0.2940841 -18.08398,5.43916577 -18.08398,15.43749987 0,9.998372 4.41035,15.880139 13.23242,17.644531 l -13.23242,59.990235 c -7.05765,-1.764432 -16.02762,-0.293013 -26.9082,4.412109 -10.88058,4.705137 -18.67383,6.027247 -23.37891,3.968747 -4.70514,-2.058489 -7.93868,-3.087888 -9.70313,-3.087888 -2.94069,-1.176243 -4.11744,-0.294204 -3.52929,2.646488 3.52886,9.41022 10.14533,14.11523 19.84961,14.11523 9.70429,0 17.64484,-1.02746 23.82031,-3.08594 5.84969,-1.94987 12.62168,-2.18536 20.31836,-0.70507 -9.76514,6.74681 -15.50769,18.30378 -17.23047,34.66992 -3.52882,5.29321 -8.23384,12.93913 -14.11524,22.9375 -2.94068,6.46953 -2.94069,10.14514 0,11.02734 2.94073,0.88221 4.99761,2.499 6.17383,4.85156 -1.76439,0.58813 -2.49916,1.61754 -2.20507,3.08789 0.29408,1.47034 1.32349,2.49976 3.08789,3.08789 1.17625,-0.58812 0.88161,-0.14807 -0.88282,1.32227 -1.76439,1.47035 -1.61707,2.7944 0.44141,3.9707 2.05851,1.17626 3.08789,4.11715 3.08789,8.82227 0,5.29325 2.05883,8.38149 6.17578,9.26367 4.11695,0.88222 9.70404,0.73486 16.76172,-0.44141 l 0.88281,21.17188 c -45.2867,1.17626 -70.87057,16.17532 -76.75195,44.99414 -11.76277,25.28996 -20.58542,57.04832 -26.4668,95.27734 -16.46789,-2.94073 -47.3442,-2.64604 -92.63086,0.88282 -12.35093,-9.41024 -21.46823,-13.52786 -27.34961,-12.35157 l 19.40821,-183.49804 h 0.88281 l -18.52539,-1.76563 -20.29102,185.26367 h -14.11523 c -0.58813,6.46952 1.46875,10.58714 6.17383,12.35157 -1.76439,14.70345 -0.58766,23.23142 3.52929,25.58398 l -43.32031,408.46289 h -89.89258 c -28.230647,0 -53.227143,-15.88112 -74.988278,-47.64062 H 0 c 38.22902,56.46133 79.104721,84.69336 122.62695,84.69336 h 159.67969 c 37.05272,53.52058 68.81308,82.92746 95.2793,88.2207 V 1000 h 35.28711 v -54.69727 c 47.0511,12.35085 81.31029,7.94051 102.77734,-13.23242 21.46705,-21.17299 19.55555,-49.40306 -5.73437,-84.6914 h 239.07812 v -37.05274 h -519.5957 l 44.96875,-409.3457 c 12.3509,0 21.76092,-1.76412 28.23047,-5.29297 58.22572,8.82211 96.16054,9.99884 113.80468,3.5293 20.58484,-39.99342 32.93579,-72.93047 37.05274,-98.8086 11.17467,8.82211 21.46674,42.34655 30.87695,100.57227 l -46.75781,187.0293 c -8.23392,20.58489 -11.17286,40.28697 -8.82031,59.10742 -12.93907,39.40528 -21.17429,68.37014 -24.70313,86.89648 -3.52882,18.52634 -9.85064,30.1428 -18.9668,34.84766 -9.11616,4.70514 -22.79112,11.17423 -41.02343,19.4082 -18.82041,4.11694 -29.25986,8.23446 -31.31836,12.35156 -2.05851,4.11727 1.02973,7.05788 9.26367,8.82227 h 96.16016 c 8.23392,-7.64583 11.1748,-17.64518 8.82226,-29.99609 -2.35253,-12.35092 5.29336,-32.78779 22.9375,-61.3125 17.64415,-28.52472 24.11334,-56.02011 19.4082,-82.48633 -0.58813,-7.64583 2.79472,-16.46843 10.14649,-26.4668 7.35169,-9.99832 13.08613,-17.34983 17.20312,-22.05469 h 45.875 c 1.76444,7.64583 6.76216,19.11464 14.9961,34.40625 3.52884,44.11042 7.0591,78.51692 10.58789,103.21875 3.52884,24.70183 1.17532,40.4337 -7.0586,47.19727 -8.23398,6.76358 -21.46693,12.20321 -39.69921,16.32031 -18.82045,4.11694 -29.25987,8.23446 -31.31836,12.35156 -2.05848,4.11727 1.02973,7.05788 9.26367,8.82227 h 96.16015 c 8.23387,-7.64583 10.73268,-17.64518 7.49805,-29.99609 -3.23463,-12.35092 -3.67497,-24.70183 -1.32226,-37.05274 1.7645,-10.58652 4.11617,-28.52448 7.05664,-53.81445 2.94069,-25.28992 -0.58762,-47.63829 -10.58594,-67.04688 L 585.78516,490.08398 c 9.41022,-31.75947 5.29453,-64.1072 -12.34961,-97.04296 3.52884,-21.76114 11.76205,-53.22678 24.70117,-94.39649 7.64578,24.70182 19.11503,50.28569 34.40625,76.75195 -2.94047,19.99671 -2.50068,41.46495 1.32226,64.40235 3.82294,22.93743 2.05872,39.11128 -5.29296,48.52148 -7.352,9.41021 -9.26317,22.64321 -5.73438,39.69922 4.11688,0.58813 6.17578,-2.50007 6.17578,-9.26367 0,-6.76356 1.76418,-12.20332 5.29297,-16.32031 3.52711,8.82207 4.55813,16.46795 3.08789,22.9375 -1.47029,6.46952 -4.26376,12.64401 -8.38086,18.52539 -1.76439,2.35255 -2.05694,4.70605 -0.88086,7.05859 1.17624,2.35255 3.82236,3.52735 7.93946,3.52735 9.41022,-11.76281 14.40972,-22.6423 14.99804,-32.64063 0.58831,-10.5865 0.58831,-24.99621 0,-43.22852 9.41044,-43.52223 12.93865,-77.04669 10.58594,-100.57226 -8.23392,-24.11369 -16.76185,-56.75416 -25.58398,-97.92383 -4.70514,-28.81882 -16.17396,-43.52318 -34.40625,-44.11133 v -53.81445 c -0.96214,-34.63638 -9.20382,-58.05944 -24.72461,-70.26758 0.5799,-0.0954 1.17569,-0.19742 1.78711,-0.30859 8.82207,-1.76439 16.32061,-1.4717 22.49609,0.88086 6.17548,2.35252 14.11604,3.38194 23.82031,3.08789 9.70427,-0.29408 16.32083,-5.14643 19.84961,-14.55664 0.58832,-2.940803 -0.58883,-3.82273 -3.5293,-2.646488 -1.76445,0 -4.85241,1.029399 -9.26367,3.087888 -4.41104,2.05851 -12.20429,0.73639 -23.3789,-3.968747 -11.17467,-4.705194 -20.5847,-6.176557 -28.23047,-4.412109 L 569.02344,33.099609 C 577.84568,31.335217 582.11113,25.45345 581.81641,15.455078 581.52231,5.4567439 575.34593,0.31166224 563.28906,0.01757813 551.23225,-0.27650599 543.44093,3.1044293 539.91211,10.162109 536.97138,3.1044293 529.47087,-0.27650599 517.41406,0.01757813 Z M 521.38477,9.28125 c 8.23392,0 12.35156,7.645914 12.35156,22.9375 v 69.69336 c -5.88138,-5.293235 -12.64521,-7.939454 -20.29102,-7.939454 l 12.35157,-68.8125 c -9.99831,0 -14.99805,-2.940845 -14.99805,-8.822265 0,-4.705083 3.5283,-7.056641 10.58594,-7.056641 z m 38.8164,0 c 7.05768,0 10.58789,2.351558 10.58789,7.056641 0,5.881421 -4.99972,8.822265 -14.99804,8.822265 l 12.35156,68.8125 c -7.64583,0 -14.11692,2.646219 -19.41016,7.939454 V 32.21875 c 0,-15.291586 3.82294,-22.9375 11.46875,-22.9375 z m -27.34765,104.09961 h 13.23242 c 30.58316,0 44.9929,22.9377 43.22851,68.8125 v 54.69726 h -25.58398 v 47.63868 h -21.17188 v -92.63086 c 9.99838,-4.11699 14.70356,-12.93961 14.11524,-26.4668 -0.58815,-13.52727 -8.52872,-17.93951 -23.82031,-13.23437 -4.70512,-7.64582 -17.05604,-13.23288 -37.05274,-16.76172 5.29321,-14.11532 17.64413,-21.46655 37.05274,-22.05469 z m -33.8418,31.60742 c 6.38683,-0.0459 14.72711,3.24086 25.01953,9.85742 l -2.64648,11.46875 7.93945,2.64649 1.76562,-6.17578 c 11.1746,-5.88138 16.90905,-4.852 17.20313,3.08789 0.29405,7.93986 -5.4404,15.73113 -17.20313,23.37695 v 107.63086 h 45.875 v -49.4043 c 12.93907,0 18.08436,6.0291 15.4375,18.08594 -2.64659,12.05685 -7.64626,30.28953 -14.99804,54.69727 -7.35167,24.40774 -13.96823,48.08014 -19.84961,71.01757 l -57.34375,7.93946 c -11.17463,-58.81386 -20.14266,-93.36774 -26.90625,-103.66016 -6.7636,-10.29241 -8.52771,-19.70245 -5.29297,-28.23047 3.23481,-8.52799 11.61542,-13.38035 25.14258,-14.55664 13.5272,-1.17626 20.29101,-9.70422 20.29101,-25.58398 -0.58813,-15.2916 -5.88249,-21.90811 -15.88086,-19.84961 -9.99837,2.05848 -13.82135,-1.91179 -11.46875,-11.91016 6.46975,-3.52884 8.67569,-6.175 6.61719,-7.93945 -2.05851,-1.76439 -5.7341,-2.64649 -11.02734,-2.64649 0.63632,-4.45426 -2.58284,-7.2153 -7.93946,-8.82226 5.29322,-11.76277 10.58566,-20.87811 15.87891,-27.34766 2.42608,-2.42607 5.55462,-3.65407 9.38672,-3.68164 z m -2.22852,5.83203 c -1.94131,0 -3.73843,0.45799 -5.39258,1.37696 l -4.4121,5.29492 v 3.52734 l 1.76562,-0.88086 c 7.05764,2.9407 14.40888,2.9407 22.05469,0 l 7.93945,1.76367 v -4.41015 h -7.05859 c -5.66081,-4.44779 -10.6256,-6.67188 -14.89649,-6.67188 z m -0.98242,3.14258 c -1.17625,1.76445 -1.17625,3.52852 0,5.29297 -1.76445,-0.58804 -3.52853,-0.88281 -5.29297,-0.88281 1.1763,-2.35254 2.94042,-3.82201 5.29297,-4.41016 z m 6.17578,0.88281 7.05664,3.52735 c -2.35255,1.17625 -5.29342,1.76562 -8.82226,1.76562 2.94069,-1.17624 3.53001,-2.94043 1.76562,-5.29297 z m -22.38672,31.31836 c 0.51462,0 1.21351,0.14538 2.09571,0.43946 1.76445,0.58804 3.82324,0.88281 6.17578,0.88281 h 2.64648 l -10.58593,0.88281 c -1.17653,-0.58815 -1.61838,-1.17747 -1.32422,-1.76562 0.14705,-0.29408 0.47757,-0.43946 0.99218,-0.43946 z m 10.91797,3.08594 c -0.58815,1.17624 -1.76489,2.06029 -3.52929,2.64844 -1.76444,0.58815 -3.23386,1.17552 -4.41016,1.76367 -1.76439,0 -2.79373,-0.29466 -3.08789,-0.88281 -0.29421,-0.58815 -0.14674,-1.17552 0.44141,-1.76368 z m 67.04688,216.14258 c 17.056,17.05601 21.17369,45.58081 12.35156,85.57422 l 5.29297,77.63281 H 462.27734 L 497.56445,414.21484 Z M 322.00586,847.37891 h 55.58008 v 53.81445 c -14.11533,-3.52884 -32.64268,-21.46685 -55.58008,-53.81445 z m 90.86719,0 h 54.69726 c 44.1104,61.75456 51.16887,90.13183 21.17383,85.13281 -29.99511,-4.99919 -55.28625,-11.61569 -75.87109,-19.84961 z"
     sodipodi:nodetypes="ssccssccsscccscscssssccccccccccccccsccscccccscccccccccccsccsccsscscccsscsccscccccccsccscscscccccccccssccsscccscssscccsssscccsscsccccccccccsccccscccccsccssscscscccssccccccccsccccccccscsccsscscsccccccccccccccscc" />
</svg>
