<?xml version="1.0" encoding="UTF-8" standalone="no"?>
<svg
   width="1800"
   height="1800"
   id="svg2277"
   sodipodi:version="0.32"
   inkscape:version="1.4.2 (f4327f4, 2025-05-13)"
   sodipodi:docname="A5B.svg"
   inkscape:output_extension="org.inkscape.output.svg.inkscape"
   version="1.0"
   sodipodi:modified="true"
   xmlns:inkscape="http://www.inkscape.org/namespaces/inkscape"
   xmlns:sodipodi="http://sodipodi.sourceforge.net/DTD/sodipodi-0.dtd"
   xmlns="http://www.w3.org/2000/svg"
   xmlns:svg="http://www.w3.org/2000/svg"
   xmlns:rdf="http://www.w3.org/1999/02/22-rdf-syntax-ns#"
   xmlns:cc="http://creativecommons.org/ns#"
   xmlns:dc="http://purl.org/dc/elements/1.1/">
  <metadata
     id="metadata2284">
    <rdf:RDF>
      <cc:Work
         rdf:about="">
        <dc:format>image/svg+xml</dc:format>
        <dc:type
           rdf:resource="http://purl.org/dc/dcmitype/StillImage" />
      </cc:Work>
    </rdf:RDF>
  </metadata>
  <defs
     id="defs2282">
    <inkscape:perspective
       sodipodi:type="inkscape:persp3d"
       inkscape:vp_x="0 : 10.224381 : 1"
       inkscape:vp_y="0 : 1000 : 0"
       inkscape:vp_z="11.321417 : 10.224381 : 1"
       inkscape:persp3d-origin="5.6607084 : 6.8162543 : 1"
       id="perspective7" />
  </defs>
  <sodipodi:namedview
     inkscape:window-height="998"
     inkscape:window-width="1680"
     inkscape:pageshadow="2"
     inkscape:pageopacity="0.0"
     guidetolerance="10.0"
     gridtolerance="10.0"
     objecttolerance="10.0"
     borderopacity="1.0"
     bordercolor="#666666"
     pagecolor="#ffffff"
     id="base"
     showgrid="false"
     inkscape:zoom="1.1066667"
     inkscape:cx="570.63252"
     inkscape:cy="626.65662"
     inkscape:window-x="-8"
     inkscape:window-y="-8"
     inkscape:current-layer="svg2277"
     inkscape:showpageshadow="2"
     inkscape:pagecheckerboard="0"
     inkscape:deskcolor="#d1d1d1"
     inkscape:window-maximized="1" />
  <path
     style="fill:#000000;stroke:none"
     d="M -0.14790904,-1.2661182e-5 V 619.74284 H 96.256534 V 936.50023 H 195.41538 V 192.80888 h 696.8664 V 90.89561 H 619.59492 V -1.2661182e-5 Z M 49.431509,49.57942 H 564.50668 v 96.40444 H 145.83595 V 567.40899 H 49.431509 Z M 390.97867,217.59859 c -10.10297,-2.24513 -19.7382,1.47595 -24.7897,11.01765 -5.05149,9.54175 -4.4902,15.40396 0,16.52647 11.22554,7.85791 20.24754,19.58233 27.54412,33.05296 7.29663,13.47062 10.50837,33.65578 8.26325,60.59708 -13.47063,-17.9609 -20.91275,-36.61815 -22.03532,-52.33386 -1.12255,-15.71574 -5.9142,-23.15786 -13.77205,-22.03529 -4.4902,41.53442 9.3754,86.69646 38.56177,134.96622 0,34.79914 7.95146,76.80131 24.78972,123.94857 -32.55402,-46.0247 -61.81319,-83.74455 -85.3868,-112.93091 -13.47062,-37.04428 -22.44063,-67.88332 -30.29854,-90.89562 -7.85784,-23.01233 -32.83465,-45.28672 -74.36914,-68.86033 -11.22555,1.12251 -19.79023,8.05535 -22.0353,19.2809 -2.24514,11.22555 -0.10394,16.52646 5.50882,16.52646 14.59319,3.36766 27.33623,8.61663 38.56179,19.2809 11.22554,10.66427 22.44069,29.77886 30.29853,57.84266 -19.08339,-12.34804 -31.82644,-25.03915 -38.56178,-41.31618 -6.73528,-16.27705 -14.17739,-23.7711 -22.03529,-19.28089 8.98041,42.65706 36.60768,84.65921 82.63237,123.94857 33.67659,96.53954 73.43367,154.95388 123.94858,176.28241 124.60339,48.26977 199.02453,71.61471 220.35301,71.61473 13.47068,39.28935 29.93476,83.43273 49.57942,129.45733 19.64467,46.02475 28.66667,85.37651 27.54413,115.68535 L 625.10374,1308.346 c -16.83831,46.0246 -21.01667,87.9228 -16.52646,129.4574 -26.94125,85.3141 -46.10784,151.7837 -55.08826,195.5632 -5.61277,39.2895 -16.72395,64.2663 -35.80736,74.3693 -19.08345,10.1028 -55.78468,26.0058 -107.4221,49.5794 -26.9413,6.7353 -40.70295,14.1774 -44.07059,22.0353 -3.36765,7.8578 3.0039,14.2295 19.28088,19.2808 16.27704,5.0515 38.55139,2.3491 68.86032,-5.5088 30.30894,-7.858 61.6573,-4.5941 93.65002,5.5088 31.9928,10.1031 44.68386,-0.6029 41.31619,-27.5441 0,-28.0638 22.32637,-81.1251 66.10591,-162.5103 43.77957,-81.3851 57.64519,-147.2935 38.56178,-195.5634 -1.12258,-17.9608 4.12641,-35.9529 19.28089,-57.8426 15.15446,-21.8898 29.58137,-37.8446 38.56177,-46.825 h 93.65004 c 3.3677,15.7158 13.46027,39.5702 30.29853,74.3692 13.47071,129.0935 23.05395,215.135 27.54413,258.9147 3.3676,41.5343 -2.49457,70.7936 -16.52648,85.3868 -14.03197,14.5933 -39.46609,23.054 -79.87797,27.5441 -24.69621,14.5934 -37.43926,27.3883 -38.56176,35.8074 -1.12257,8.4192 5.19696,11.0177 22.03529,11.0177 17.96082,0 38.6553,1.6838 63.35149,0 24.69617,-1.684 56.65771,-2.7545 90.89562,-2.7545 34.23783,0 44.27845,-12.2338 33.05295,-35.8073 -10.10301,-39.2894 -6.38186,-101.4248 11.01765,-187.3001 17.39948,-85.8753 10.00941,-150.1519 -24.78972,-192.8088 v -77.1236 l -16.52646,-209.3354 c 11.22557,-17.9608 17.08775,-45.64 16.52646,-79.878 -0.56128,-34.23772 -6.93274,-61.30378 -19.28088,-82.63227 -12.34814,-21.32849 -19.2809,-40.49502 -19.2809,-55.08824 0,-25.8188 2.08913,-78.37082 8.26325,-159.75601 6.17402,-81.38506 -2.28665,-130.26813 -27.54412,-145.98386 -25.25747,-15.71576 -34.78875,-42.83375 -30.29855,-79.87796 23.57363,-11.22556 43.19748,-26.61907 60.59709,-46.82502 17.39958,-20.20596 27.54411,-46.71065 27.54411,-82.63239 0,-37.04422 -17.02534,-62.5823 -49.57943,-74.36914 -32.55397,-11.78677 -68.69394,-13.31472 -107.42209,-8.26323 -38.72806,5.05149 -65.79411,33.13615 -82.63237,88.1412 -10.10299,11.22555 -20.70482,28.2509 -33.05296,49.57942 -6.73528,13.47062 -8.92837,22.54459 -2.7544,24.78972 6.17404,2.24508 12.03628,4.89553 16.52646,8.26325 -5.08334,2.0333 -13.01713,11.01764 2.75442,11.01764 1.12257,0 -2.14112,2.70247 -5.50881,5.50882 -3.36766,2.80642 -1.73579,6.01816 2.75439,8.26325 4.49021,2.24512 7.70197,8.61667 8.26325,19.28087 0.56129,10.66428 3.15974,15.40393 11.01765,16.52649 7.85785,1.12256 22.23279,1.12257 41.31619,0 6.73533,16.83832 1.94371,29.58136 -13.77207,38.56177 -24.69617,1.12257 -54.97391,12.33775 -90.89562,30.29854 -30.30893,-6.73534 -74.34839,-18.45976 -134.96621,-33.05295 -35.9217,-48.26975 -65.69012,-99.242 -88.1412,-154.24711 0,-37.04422 0.56127,-67.88324 0,-90.89561 -0.56129,-23.01233 -16.51615,-51.71022 -46.82503,-85.38679 z m 451.72368,79.87795 c 14.17225,0.84191 29.70605,4.0537 46.82501,8.26325 34.23783,8.41919 52.33393,26.41122 52.33385,57.84266 0,31.43151 -13.35631,57.98823 -35.80736,79.87797 -22.45108,21.88981 -37.33531,29.38388 -44.07061,19.28089 -7.85785,-10.10298 0.19754,-25.54849 19.28089,-44.07061 35.28662,-34.24861 13.43588,-88.18337 -49.57943,-57.84265 -11.22554,-10.10299 -35.07978,-19.68623 -74.36915,-27.54414 8.98043,-17.96081 24.37395,-28.00146 46.82503,-33.05295 11.2255,-2.52575 24.38953,-3.59631 38.56177,-2.75442 z m -93.65003,55.08826 c 31.43151,2.24508 56.9176,11.31903 77.12356,24.78971 -1.12258,12.34807 3.10778,13.41868 13.77206,2.75442 23.30267,-23.30269 53.55472,-13.67848 35.80736,19.28089 -7.85785,14.59318 -15.75732,25.70438 -27.54413,35.80737 -11.78682,10.10298 -14.99858,20.19561 -8.26323,30.29852 6.73533,10.10304 7.11992,19.6863 9.365,27.54415 -3.36764,52.75996 4.02248,83.54706 24.78972,93.65001 20.76721,10.10299 28.71869,55.26495 24.7897,134.96623 -3.92889,79.70125 -5.50882,128.53236 -5.50882,148.7383 L 772.6301,895.18415 c 1.12255,-21.32863 -6.64592,-54.25682 -28.53573,-99.15888 -21.88974,-44.90221 -36.82595,-89.55485 -41.31619,-132.21184 -4.4902,-42.65706 2.49458,-68.70442 16.52649,-77.12356 14.03189,-8.41912 29.12401,-11.01765 62.8006,-11.01764 l 13.77206,-38.56177 c -3.36763,-30.30895 -17.18123,-43.052 -41.31618,-38.56179 -24.13489,4.49021 -34.7888,-2.95191 -30.29854,-22.03529 14.59319,-7.85785 20.45543,-15.35195 16.52648,-19.2809 -3.92892,-3.92898 -11.31911,-4.38631 -24.78973,-5.50881 0,-8.41956 -11.30586,-17.19267 -16.52646,-19.2809 11.22554,-25.81873 21.82738,-42.23085 33.05295,-52.33384 11.22547,-5.61278 21.26611,-5.61278 33.05295,0 11.78682,5.61277 23.45932,9.89509 35.80736,11.01765 v -8.26324 c -7.85785,0 -15.7573,-4.28231 -27.54412,-11.01765 -11.78685,-6.73534 -23.45934,-7.24461 -35.80736,-2.75441 4.49019,-6.73528 7.65002,-12.03626 11.01764,-16.52648 z m 107.4221,19.28089 c -15.17328,4.66876 -32.8719,30.66057 -27.54414,41.31619 -1.5891,0.79455 -23.11554,11.87681 -2.7544,19.28089 13.36747,4.86084 38.58282,-22.08784 44.07061,-35.80736 6.58842,-16.47117 -2.3191,-28.31378 -13.77207,-24.78972 z m -99.15887,8.26324 c -7.57723,-1.96446 -13.10686,-0.61326 -19.28087,2.75441 l -11.01767,11.01765 v 8.26325 h 5.50884 c 15.71568,6.73533 31.61853,6.73534 49.57942,0 l 16.52648,2.75441 v -8.26324 l -16.52648,-2.75442 c -8.98044,-7.29658 -17.21247,-11.80759 -24.78972,-13.77206 z m 104.66769,2.75441 c 2.38542,0.42097 3.03507,2.4218 2.75442,5.50883 -0.56129,6.17406 -3.21178,13.10689 -8.26324,19.28089 -5.05149,6.17405 -9.28188,11.52692 -13.77207,13.77206 -4.49021,2.24506 -4.49021,-2.08924 0,-8.26324 4.49021,-6.17405 4.49019,-7.19261 0,-5.50882 -4.49021,1.68385 -7.7539,0.10395 -5.50883,-5.50882 2.24514,-5.61277 8.15928,-12.03627 13.77207,-16.52648 5.05148,-2.2451 8.63223,-3.17538 11.01765,-2.75442 z m -115.68534,2.75442 c -2.24512,3.3677 -2.24514,9.28185 0,13.77206 -4.4902,-1.12256 -6.01811,-3.26369 -8.26322,-5.50883 1.12256,-2.24506 2.65043,-6.0181 8.26322,-8.26323 z m 13.77207,2.75441 16.52648,8.26324 c -6.73534,2.24507 -12.03626,2.75442 -16.52648,2.75441 4.49021,-2.24506 3.36765,-5.40488 0,-11.01765 z m 68.86031,33.05295 c 4.49027,3.36764 6.12212,6.01811 2.75442,8.26323 -3.36763,2.24508 -7.14067,0.0519 -8.26324,-2.7544 -1.12257,-2.80642 1.01862,-3.26377 5.50882,-5.50883 z m -112.93092,33.05294 c 3.92892,0.56129 8.72059,1.63187 13.77207,2.75442 5.05149,1.12251 6.63137,2.75442 5.50883,2.75441 h -22.64364 c -3.29039,0 -3.45909,-6.48334 3.36274,-5.50883 z m 0,8.26325 h 19.2809 c -4.59014,3.31057 -11.7014,4.61296 -17.81253,6.07358 -9.7667,2.17074 -5.9665,-3.07085 -1.46837,-6.07358 z m 180.1386,443.46044 c 4.49018,16.83817 13.51222,37.02339 27.54412,60.5971 14.03199,23.57358 10.82022,67.71685 -8.26324,129.45735 l 11.01765,168.0192 H 677.98847 L 775.3845,933.74593 Z"
     id="path2279"
     sodipodi:nodetypes="cccccccccccccccccccssscsccccscssscsccccsccccscsssscscscccsscsssscscccssssscsssscsssssssscccccsccsssssccscccsssscssccsssccscsscssccssccsssccccccccccccsssssssccsscccsccssccscccccsccsccccc" />
</svg>
