<?xml version="1.0" encoding="UTF-8" standalone="no"?>
<svg
   width="524.9986"
   height="719.47266"
   version="1.1"
   id="svg1"
   sodipodi:docname="A72A.svg"
   inkscape:version="1.4.2 (f4327f4, 2025-05-13)"
   xmlns:inkscape="http://www.inkscape.org/namespaces/inkscape"
   xmlns:sodipodi="http://sodipodi.sourceforge.net/DTD/sodipodi-0.dtd"
   xmlns="http://www.w3.org/2000/svg"
   xmlns:svg="http://www.w3.org/2000/svg">
  <defs
     id="defs1" />
  <sodipodi:namedview
     id="namedview1"
     pagecolor="#ffffff"
     bordercolor="#666666"
     borderopacity="1.0"
     inkscape:showpageshadow="2"
     inkscape:pageopacity="0.0"
     inkscape:pagecheckerboard="0"
     inkscape:deskcolor="#d1d1d1"
     inkscape:zoom="1.0493797"
     inkscape:cx="87.194368"
     inkscape:cy="126.26507"
     inkscape:window-width="1680"
     inkscape:window-height="998"
     inkscape:window-x="-8"
     inkscape:window-y="-8"
     inkscape:window-maximized="1"
     inkscape:current-layer="svg1" />
  <path
     id="path1"
     style="fill:#000000;stroke:none;stroke-width:40"
     d="M 82.837891,0 C 45.349301,17.974 23.909788,35.176015 18.517578,51.609375 13.125388,68.042735 8.373975,95.517523 4.265625,134.0332 c -6.1625,50.32717 -5.6485844,110.92603 1.5410156,181.79492 H 6.578125 c 13.86566,7.70315 36.589025,6.54732 68.171875,-3.46679 31.58288,-10.01408 58.41573,-18.87305 80.49805,-26.57617 22.08232,-7.70315 31.83919,-6.16136 29.27148,4.62304 -1.54061,29.78546 1.54102,50.96899 9.24414,63.55078 7.70315,12.58178 25.67703,68.94319 53.92188,169.08399 L 48.945312,610.85742 c -30.299009,13.35211 -45.4492182,34.7936 -45.4492182,64.32227 0,29.52872 10.7847152,44.03506 32.3535152,43.52148 l 489.148441,0.77149 c -13.35211,-25.16357 -32.09592,-35.17836 -56.23243,-30.04297 -24.1365,5.13544 -40.44062,-5.64933 -48.91406,-32.35352 -8.47344,-26.70424 -22.98169,-32.09562 -43.52344,-16.17578 19.51464,-37.48861 20.28455,-77.03198 2.31055,-118.62891 0.51355,-33.3803 2.56731,-65.73251 6.16211,-97.05859 39.54277,9.24379 71.76896,13.73727 96.67578,13.48047 24.90683,-0.25677 35.04768,-11.16951 30.42578,-32.73828 -4.62189,-21.5688 -25.93341,-76.77433 -63.93554,-165.61719 -13.86568,-25.16357 -44.67806,-37.74609 -92.4375,-37.74609 v -41.59766 c 13.86563,-5.13544 27.21805,-15.53422 40.05664,-31.19726 12.83856,-15.66304 19.25781,-37.102568 19.25781,-64.320318 0,-27.217759 -12.06857,-45.449599 -36.20508,-54.693359 -24.13648,-9.2437599 -51.35333,-11.8114449 -81.65234,-7.7031249 -30.29902,4.10835 -51.86847,26.4477079 -64.70703,67.0175779 -7.1896,9.24376 -15.40663,21.826284 -24.65039,37.746094 -4.62189,10.7844 -4.74987,16.8177 -0.38477,18.10156 4.36512,1.28385 8.08867,3.20962 11.16992,5.77735 -8.39973,5.9998 -4.05446,9.9812 0.76953,10.78515 1.54064,-0.51351 1.02672,0.38438 -1.54101,2.69531 -2.56771,2.31094 -2.18178,4.36469 1.15625,6.16211 3.33802,1.79738 5.00781,7.31874 5.00781,16.5625 0,9.24378 4.87747,13.60926 14.63477,13.09571 11.29795,0 19.51498,-0.51392 24.65039,-1.54102 v 21.56836 c -35.94797,-1.54064 -60.34113,5.64855 -73.17969,21.56836 -49.81363,8.73024 -97.060072,26.44812 -141.738282,53.15234 C 47.146758,230.06617 41.241431,181.2799 30.457031,129.41211 63.837301,97.058939 83.608984,66.760475 89.771484,38.515625 83.608984,35.947915 77.831643,40.055444 72.439453,50.839844 67.047243,61.624244 55.876587,70.867193 38.929688,78.570312 44.065128,60.082792 51.25624,46.732315 60.5,38.515625 c 9.24376,-8.21667 19.770541,-14.12395 31.582031,-17.71875 4.10832,-0.51355 4.878247,-4.107143 2.310547,-10.783203 C 91.824868,3.3376219 87.973331,0 82.837891,0 Z M 324.91016,15.597656 c 10.65601,0.64193 22.40167,2.632683 35.24023,5.970703 25.67715,6.67606 38.51758,21.824306 38.51758,45.447266 0,23.62296 -8.60294,43.780575 -25.80664,60.470705 -17.20368,16.69013 -28.11641,21.18362 -32.73828,13.48047 -5.64896,-7.70315 -1.54143,-18.48786 12.32422,-32.35352 26.41478,-26.414756 15.38757,-68.377897 -34.66407,-43.908202 -8.21667,-8.73021 -26.70255,-15.149472 -55.46093,-19.257812 5.64896,-14.3792 16.94566,-23.622119 33.89257,-27.730469 8.47345,-2.05416 18.03932,-2.761071 28.69532,-2.119141 z m -70.29102,42.945313 c 23.62296,1.54064 43.1367,7.703881 58.54297,18.488281 -1.02707,8.73022 2.43855,8.986231 10.39844,0.769531 15.95607,-16.470715 38.4543,-9.119586 26.57617,14.636719 -5.64899,11.29795 -12.71017,20.66885 -21.1836,28.11523 -8.47345,7.44637 -10.39923,15.02149 -5.77734,22.72461 4.62187,7.70314 7.70353,14.37836 9.24414,20.02735 -1.54061,42.62403 1.54102,63.9375 9.24414,63.9375 7.70315,0 23.87925,0.25598 48.5293,0.76953 24.65003,0.51352 27.21774,27.47438 7.70312,80.88281 -9.24373,25.67712 -19.51455,52.12401 -30.8125,79.3418 h -30.04296 c -31.83962,-28.7584 -60.34034,-45.19051 -85.50391,-49.29883 -2.56771,6.16248 1.28387,11.4259 11.55469,15.79102 10.27086,4.36512 19.51378,14.50792 27.73047,30.42773 -16.9469,-4.10834 -29.39946,-10.14363 -37.35938,-18.10352 -7.95989,-7.95992 -13.99322,-17.33085 -18.10156,-28.11523 -1.0271,-4.62189 -4.36667,-5.39181 -10.01563,-2.31055 -5.15741,2.81312 -7.95941,6.48248 -8.4082,11.00782 -1.06382,-2.15932 -1.98342,-3.77489 -2.75977,-4.84571 -7.44637,-10.27082 -9.6301,-32.09629 -6.54882,-65.47656 -1.02709,-32.86672 12.19736,-49.42875 39.67187,-49.68555 27.47453,-0.25675 41.46887,-9.3717 41.98242,-27.3457 0,-22.59586 -9.50089,-32.86666 -28.50195,-30.8125 -19.00107,2.05416 -26.96212,-4.10911 -23.88086,-18.48828 11.29792,-6.16251 15.27944,-10.78396 11.94141,-13.86524 -3.33802,-3.08123 -9.62929,-4.87902 -18.87305,-5.39257 0.51354,-5.13544 -3.59593,-9.50091 -12.32617,-13.09571 8.21669,-19.514617 16.69166,-33.123019 25.42187,-40.826169 8.21669,-4.10832 16.68969,-3.980324 25.41993,0.384766 8.73021,4.36512 17.71717,7.318765 26.96093,8.859375 v -6.16211 c -5.64896,-0.51354 -12.96806,-3.211173 -21.95508,-8.089843 -8.98699,-4.87864 -18.10194,-5.520582 -27.3457,-1.925781 3.08125,-5.648961 5.9069,-9.756489 8.47461,-12.324219 z m 85.19141,14.683593 c -14.75704,0.547907 -28.60826,22.521037 -24.33789,29.994138 -8.85468,3.93543 -12.74105,12.74372 -3.4668,16.5625 9.75854,4.01817 29.07406,-18.24108 33.50976,-28.886716 4.95355,-11.888534 1.01793,-17.275111 -4.47265,-17.652343 -0.41018,-0.03741 -0.82158,-0.02025 -1.23242,-0.01758 z m -84.03321,5.867188 c -3.17955,0.10031 -6.13313,0.953764 -8.86132,2.558594 l -7.70313,6.933594 v 6.162109 h 3.85156 c 10.7844,5.648963 22.85102,5.648963 36.20313,0 l 13.86719,3.080078 V 90.896484 L 280.03906,89.355469 C 270.85949,82.294259 262.77235,78.87308 255.77734,79.09375 Z m 82.08399,1.814453 c 2.31094,0.0632 3.3201,1.466688 3.03125,4.210938 -0.51355,4.87864 -2.69531,9.62811 -6.54688,14.25 -3.85157,4.621899 -7.44712,7.703529 -10.78515,9.244139 -3.338,1.54064 -3.338,8e-4 0,-4.62109 3.33803,-4.621873 3.33803,-6.163659 0,-4.623049 -3.338,1.540639 -3.97994,0.128791 -1.92578,-4.236329 2.79776,-5.945277 8.21068,-14.443804 16.22656,-14.224609 z m -84.01367,3.054688 c -2.05416,3.08126 -2.05416,6.16289 0,9.24414 -3.08125,-1.54061 -5.64897,-2.824472 -7.70313,-3.851562 1.02709,-2.05416 3.59481,-3.851938 7.70313,-5.392578 z m 10.01367,1.541015 10.78515,6.16211 c -4.10832,1.54061 -8.21586,2.310546 -12.32421,2.310546 3.59478,-2.054169 4.10676,-4.877856 1.53906,-8.472656 z m 50.84179,23.878904 c 3.59481,2.05419 4.23673,3.97996 1.92579,5.77735 -2.31096,1.79739 -3.98075,1.66939 -5.00782,-0.38477 -1.02709,-2.05416 7.9e-4,-3.85193 3.08203,-5.39258 z m -75.10546,11.16992 c 0.4499,3.14918 -2.91082,5.94358 -6.9336,0.77149 -5.64759,-7.26128 -8.27156,-1.70525 -7.31836,1.1543 2.05416,-1.54062 4.23787,-0.8987 6.54883,1.92578 5.00217,6.11379 11.26923,1.49452 10.7832,-3.85157 -0.56188,-6.18076 -3.57566,-3.4692 -3.08007,0 z m -11.98828,14.76954 c 2.08259,-0.0652 2.87489,0.4753 12.75781,1.79296 3.85157,0.51357 5.52135,1.0275 5.00781,1.54102 h -18.48828 c -3.93189,-0.98292 -2.14589,-3.24434 0.72266,-3.33398 z m 16.99414,4.87304 c -1.71347,2.57018 -6.79799,4.59007 -13.09375,6.16407 -4.55893,0 -4.88468,-1.14752 -3.08204,-3.85157 z m 178.71289,166.38867 c 9.24373,37.48858 22.34017,66.76116 39.28711,87.81641 l -71.64063,-6.16406 c 11.29795,-19.00109 22.08264,-46.21793 32.35352,-81.65235 z m -203.16407,48.18555 c 17.69175,30.75095 33.67431,47.94158 47.94727,51.57031 15.14952,3.85157 38.12888,8.08712 68.94141,12.70899 l 23.10937,3.08203 c -3.08125,22.08232 -5.13502,55.97636 -6.16211,101.68164 H 276.1875 C 249.00152,435.25214 230.32329,378.90407 220.15234,354.76953 Z m 54.49414,193.69336 h 79.3418 c 14.3792,39.02923 8.98779,74.721 -16.17578,107.07422 -37.48862,22.08232 -82.80929,25.41997 -135.96094,10.01367 C 148.69991,650.14449 97.987864,653.48207 49.714844,675.56445 64.607594,628.3185 139.5848,585.95151 274.64648,548.46289 Z"
     sodipodi:nodetypes="cccccsscsccsccsscccsscccssssccsccssscccccccccccscsssscsccssccsssscssccccscscscscscscscccsccsccscssssscccccccssccsssscccccccsccsscsscsssscccsccccccccccccccccccscccc" />
</svg>
