<?xml version="1.0" encoding="UTF-8" standalone="no"?>
<svg
   width="549.70001"
   height="1797.7"
   version="1.1"
   id="svg1"
   sodipodi:docname="B28.svg"
   inkscape:version="1.4.3 (0d15f75, 2025-12-25)"
   xmlns:inkscape="http://www.inkscape.org/namespaces/inkscape"
   xmlns:sodipodi="http://sodipodi.sourceforge.net/DTD/sodipodi-0.dtd"
   xmlns="http://www.w3.org/2000/svg"
   xmlns:svg="http://www.w3.org/2000/svg"
   xmlns:rdf="http://www.w3.org/1999/02/22-rdf-syntax-ns#"
   xmlns:cc="http://creativecommons.org/ns#"
   xmlns:dc="http://purl.org/dc/elements/1.1/">
  <title
     id="title1">B28</title>
  <defs
     id="defs1" />
  <sodipodi:namedview
     id="namedview1"
     pagecolor="#ffffff"
     bordercolor="#000000"
     borderopacity="0.25"
     inkscape:showpageshadow="2"
     inkscape:pageopacity="0.0"
     inkscape:pagecheckerboard="0"
     inkscape:deskcolor="#d1d1d1"
     inkscape:zoom="0.38215498"
     inkscape:cx="281.29949"
     inkscape:cy="631.94257"
     inkscape:window-width="1680"
     inkscape:window-height="998"
     inkscape:window-x="-8"
     inkscape:window-y="-8"
     inkscape:window-maximized="1"
     inkscape:current-layer="svg1" />
  <path
     id="path1"
     style="fill:#000000;stroke:none;stroke-width:100.706"
     d="m 369.18004,0 c -75.21613,0 -117.21098,25.698137 -125.9862,77.09586 -3.76084,16.29682 -5.6415,36.98242 -5.6415,62.05447 -12.53598,22.56485 -18.80367,37.60839 -18.80367,45.12999 0,5.01438 5.64205,7.52069 16.92447,7.52069 l -5.64149,9.40185 c 2.5072,3.76082 5.0135,5.64149 7.52069,5.64149 -1.25356,3.76076 -1.25356,8.14779 0,13.16219 h 7.52264 c -6.26796,22.56485 2.50596,33.84701 26.32438,33.84701 h 31.9678 c 11.28242,12.53605 15.9822,24.13291 14.10179,34.78854 -1.88041,10.65557 -13.47539,18.49118 -34.78661,23.50558 -26.32567,0 -47.00928,28.20443 -62.05253,84.61655 l -11.28299,-48.89034 -0.66837,-3.59374 c 14.24173,-20.29268 19.10624,-39.77961 14.54156,-58.45685 -4.78273,-19.56964 -6.09116,-34.9003 -3.92308,-45.99017 2.16815,-11.08985 0.67995,-16.88753 -4.4636,-17.39718 -4.26864,-3.17267 -8.16321,-1.65204 -11.68207,4.56822 -3.51886,6.22027 -4.72049,15.26842 -3.60537,27.14192 1.11514,11.87345 1.51071,21.00224 1.18371,27.38603 -0.87488,2.6631 -2.2429,4.13151 -4.10325,4.40548 -1.86034,0.27399 -3.15566,-2.06774 -3.88627,-7.02862 -0.11501,-26.5927 1.79543,-45.88202 5.73254,-57.86597 3.93716,-11.98397 10.11609,-28.10067 18.53827,-48.34788 0.50964,-5.14353 -1.23223,-8.37036 -5.2269,-9.68275 -3.99463,-1.3124 -6.34621,-2.23387 -7.05769,-2.76263 -0.71142,-0.52878 -2.40107,-1.22898 -5.06416,-2.10393 -2.66311,-0.87495 -5.94601,-1.65969 -9.84937,-2.35192 -3.90328,-0.6923 -7.18627,-1.47702 -9.84935,-2.35191 -1.33158,-0.43746 -2.69444,-0.55226 -4.0897,-0.34678 -1.39525,0.20549 -2.82255,0.73242 -4.28149,1.58085 -2.91789,1.69682 -5.34411,4.58934 -7.27659,8.67534 -0.28868,15.24804 -4.20647,31.66269 -11.75375,49.24681 -7.5473,17.58414 -11.92158,30.90077 -13.12345,39.94765 l 25.1368,93.23185 2.51271,0.0852 0.88923,9.53357 c 2.5072,53.90492 6.26859,94.0191 11.28298,120.34471 -11.28242,23.81848 -22.56458,52.02487 -33.847,84.61851 -7.5216,-33.84725 -17.55068,-62.36644 -30.08666,-85.55807 -12.53606,-23.19164 -25.071376,-66.1268 -37.607367,-128.80695 l -0.03874,-0.0407 c 2.235056,-2.30471 3.665943,-5.33094 3.785533,-9.14611 18.33674,-19.26001 26.317574,-38.89312 23.945334,-58.89857 -2.37221,-20.00538 -1.80877,-35.37908 1.68935,-46.12384 3.49807,-10.74474 2.72467,-16.68359 -2.31897,-17.8137 -3.85196,-3.66737 -7.901158,-2.62621 -12.14897,3.12103 -4.247805,5.74719 -6.539312,14.57969 -6.873631,26.50067 -0.334243,11.92102 -1.051113,21.02906 -2.150431,27.32598 -1.191709,2.53723 -2.72712,3.83046 -4.60696,3.87658 -1.879857,0.0461 -2.881697,-2.43805 -3.004791,-7.45095 3.11345,-26.41005 7.359933,-45.00994 12.737914,-55.80078 5.377898,-10.79094 13.458979,-26.34936 24.245619,-46.67791 1.13018,-5.04366 -0.20634,-8.46092 -4.0122,-10.24845 -3.80587,-1.78747 -6.03016,-2.98634 -6.67214,-3.59762 -0.64198,-0.61121 -2.23248,-1.51281 -4.769697,-2.70451 -2.53728,-1.19164 -5.700546,-2.36694 -9.490957,-3.52787 -3.790468,-1.16088 -6.953745,-2.33809 -9.490956,-3.5298 -1.268612,-0.59579 -2.608141,-0.87735 -4.018013,-0.84274 -1.409862,0.0346 -2.891156,0.3869 -4.442287,1.05197 -3.102332,1.33018 -5.858249,3.90487 -8.272379,7.72606 -2.137161,15.10025 -8.021383,30.92056 -17.647096,47.45865 -9.625785,16.53812 -15.567021,29.85058 -17.827268,39.93796 l 12.846404,88.61133 -2.834307,28.31401 c 10.028857,179.26507 48.264249,283.9404 114.705156,314.02685 23.81848,-26.32562 42.62141,-50.77068 56.41103,-73.33552 8.77517,27.57924 26.32696,50.1455 52.65263,67.69596 -8.77522,47.63689 -21.93805,113.76396 -39.4885,198.38211 -17.55039,84.61815 -16.2973,170.80334 3.76035,258.55544 20.05758,87.7522 30.08666,172.3695 30.08666,253.8536 0,82.7378 -13.16289,177.386 -39.48851,283.9422 0,28.8329 -8.46304,44.8148 -25.38671,47.9487 -16.9236,3.1341 -35.10095,10.0293 -54.53183,20.6848 -19.4308,10.6556 -42.30794,18.4911 -68.633616,23.5056 h -47.01114 c -1.253633,31.3401 10.030535,47.0111 33.848948,47.0111 H 410.54968 c 27.57925,-10.0288 36.35511,-38.2352 26.32632,-84.6185 v -56.4129 c 20.05745,-114.0779 29.77177,-200.263 29.14512,-258.5555 -0.62678,-58.2925 -5.95407,-109.0631 -15.98293,-152.3125 -10.02881,-43.2493 -2.19333,-110.3166 23.50557,-201.2028 25.69883,-90.88622 38.54696,-157.01331 38.54696,-198.38217 0,-52.6513 -15.04162,-106.55781 -45.12806,-161.7163 7.52159,-65.18735 18.80383,-122.85131 33.84701,-172.9954 h 22.56403 v -82.73929 c 17.55037,-12.53599 26.32631,-35.10031 26.32631,-67.69401 0,-31.34008 -8.77594,-47.0092 -26.32631,-47.0092 0,-106.55614 -10.34183,-185.22046 -31.02626,-235.991412 C 471.66301,25.385385 430.60656,0 369.18004,0 Z m 0,22.564028 c 47.63689,0 81.48532,21.311241 101.54297,63.933673 20.05757,42.622499 30.08666,117.840189 30.08666,225.649969 V 488.90536 H 365.41969 V 191.80101 c 5.0144,-7.52158 12.22242,-16.92308 21.62443,-28.20551 9.402,-11.28243 14.10373,-24.44525 14.10373,-39.4885 0,-20.05765 -9.40151,-30.086666 -28.20553,-30.086666 -12.53598,0 -20.68433,6.895126 -24.44517,20.684816 0,-17.550447 -7.20794,-28.519788 -21.62442,-32.9074 -14.4164,-4.387614 -34.78925,-5.955522 -61.11486,-4.70189 5.01439,-36.354469 39.48846,-54.531832 103.42217,-54.531832 z m -78.50623,72.866679 c 9.08862,0.313392 17.70713,1.72392 25.85553,4.23112 16.29689,5.014393 24.44518,16.296553 24.44518,33.847013 h 20.68482 c 0,-15.04319 3.7614,-22.56403 11.28298,-22.56403 7.5216,0 11.28105,4.38703 11.28105,13.16219 0,7.52166 -5.32735,17.86349 -15.98293,31.02626 -10.65564,13.16285 -19.11676,24.75775 -25.38478,34.78662 v 310.26651 l -24.44517,28.20746 h -54.53183 l -7.52264,-26.32631 c 15.04319,-26.32567 24.44663,-50.77066 28.20746,-73.33551 -2.5072,-33.84721 -3.44752,-59.23259 -2.82075,-76.15626 0.62686,-16.9236 17.86389,-25.38477 51.71109,-25.38477 5.01446,-36.35446 1.88058,-65.18842 -9.40184,-86.49964 h -47.01113 c -12.53598,0 -18.80368,-3.76132 -18.80368,-11.28298 1.25357,-12.53599 7.52126,-19.42927 18.80368,-20.68289 0,-6.26803 -2.5063,-9.40184 -7.5207,-9.40184 h -20.68482 c 3.76076,-10.02878 -1.25371,-16.92398 -15.04333,-20.68482 0,-5.0144 6.26763,-18.8048 18.80368,-41.36965 0,-15.04318 3.13388,-28.20607 9.40183,-39.488497 10.02884,-1.880415 19.58768,-2.663368 28.6763,-2.349976 z m -6.11033,11.282983 c -10.6556,0.31339 -19.43154,3.60267 -26.32631,9.87068 l 1.88114,11.28298 c 15.04326,-13.78962 35.72692,-15.04277 62.05253,-3.76035 h 13.16219 v -9.40185 h -13.16219 c -14.41643,-5.6412 -26.95175,-8.30485 -37.60736,-7.99146 z m 3.76035,15.51217 c -16.29682,0 -26.3259,6.26768 -30.08666,18.80368 v 5.64149 h 7.5207 c 5.01439,2.5072 10.65644,3.13477 16.92447,1.88114 6.26796,0 19.43085,-3.7614 39.4885,-11.28299 h 13.16219 v -5.64149 h -13.16219 c -17.55043,-6.26803 -28.83261,-9.40183 -33.84701,-9.40183 z m 1.87921,7.52263 c 7.52159,1.25362 13.79121,3.13429 18.80561,5.64149 -3.76076,2.5072 -10.03039,5.0135 -18.80561,7.52069 1.25356,-2.50719 1.88114,-5.01349 1.88114,-7.52069 0,-1.25363 -0.62758,-3.13429 -1.88114,-5.64149 z m -13.16219,1.8792 v 5.64149 c 0,1.25363 1.25314,3.1343 3.76034,5.64149 -3.76082,0 -9.40093,-0.62751 -16.92253,-1.88113 5.0144,-6.26797 9.40137,-9.40185 13.16219,-9.40185 z m 169.23699,377.96248 h 24.44517 l -5.64149,18.80368 h -37.60737 z m -178.63883,39.48851 h 35.72815 l -26.32631,31.96586 z m 141.02953,0 h 50.77149 c -5.0144,17.55052 -15.04341,63.30667 -30.08666,137.26918 30.0865,52.65129 45.12998,105.30271 45.12998,157.95401 0,41.36886 -13.16282,107.49595 -39.48849,198.38213 -26.32561,90.8862 -34.16114,158.2664 -23.50557,202.1424 10.65578,43.8761 16.29782,94.6468 16.92447,152.3126 0.62678,57.6657 -8.4619,130.3753 -27.26591,218.1273 H 261.99751 c 18.8041,-75.216 28.20553,-155.4464 28.20553,-240.6913 0,-85.2449 -10.02708,-172.998 -30.08473,-263.2574 -20.05765,-90.2594 -20.68522,-177.38487 -1.88114,-261.37617 18.80402,-83.99137 32.59442,-151.6844 41.36965,-203.08207 20.05758,-10.02886 56.41037,-42.62213 109.06172,-97.78068 z M 292.08418,1654.7548 h 69.57516 v 33.847 c -2.5072,6.268 -26.3266,18.8054 -71.4563,37.6093 2.5072,-28.8327 3.13477,-52.6523 1.88114,-71.4563 z" />
  <metadata
     id="metadata1">
    <rdf:RDF>
      <cc:Work
         rdf:about="">
        <dc:title>B28</dc:title>
        <dc:creator>
          <cc:Agent>
            <dc:title>S. J. P. Thomas</dc:title>
          </cc:Agent>
        </dc:creator>
        <dc:description>Modified by S. Rosmorduc to match the Hieroglyphica sign, which is a female mourner.
</dc:description>
      </cc:Work>
    </rdf:RDF>
  </metadata>
</svg>
