<?xml version="1.0" encoding="UTF-8" standalone="no"?>
<svg
   width="1173.031"
   height="1801.7188"
   id="svg2"
   version="1.1"
   inkscape:version="1.4.2 (f4327f4, 2025-05-13)"
   sodipodi:docname="B7J.svg"
   xmlns:inkscape="http://www.inkscape.org/namespaces/inkscape"
   xmlns:sodipodi="http://sodipodi.sourceforge.net/DTD/sodipodi-0.dtd"
   xmlns="http://www.w3.org/2000/svg"
   xmlns:svg="http://www.w3.org/2000/svg"
   xmlns:rdf="http://www.w3.org/1999/02/22-rdf-syntax-ns#"
   xmlns:cc="http://creativecommons.org/ns#"
   xmlns:dc="http://purl.org/dc/elements/1.1/">
  <metadata
     id="metadata12">
    <rdf:RDF>
      <cc:Work
         rdf:about="">
        <dc:format>image/svg+xml</dc:format>
        <dc:type
           rdf:resource="http://purl.org/dc/dcmitype/StillImage" />
      </cc:Work>
    </rdf:RDF>
  </metadata>
  <defs
     id="defs10" />
  <sodipodi:namedview
     pagecolor="#ffffff"
     bordercolor="#666666"
     borderopacity="1"
     objecttolerance="10"
     gridtolerance="10"
     guidetolerance="10"
     inkscape:pageopacity="0"
     inkscape:pageshadow="2"
     inkscape:window-width="1664"
     inkscape:window-height="1012"
     id="namedview8"
     showgrid="false"
     fit-margin-top="0"
     fit-margin-left="0"
     fit-margin-right="0"
     fit-margin-bottom="0"
     inkscape:zoom="1.7072587"
     inkscape:cx="783.41965"
     inkscape:cy="321.27527"
     inkscape:window-x="0"
     inkscape:window-y="0"
     inkscape:window-maximized="0"
     inkscape:current-layer="svg2"
     inkscape:showpageshadow="2"
     inkscape:pagecheckerboard="0"
     inkscape:deskcolor="#d1d1d1"
     showguides="true">
    <sodipodi:guide
       position="233.50005,1383.5625"
       orientation="1,0"
       id="guide1"
       inkscape:locked="false" />
    <sodipodi:guide
       position="307.65625,1456.4062"
       orientation="1,0"
       id="guide2"
       inkscape:locked="false" />
  </sodipodi:namedview>
  <path
     id="path4"
     style="fill:#000000;stroke:none"
     d="m 743.6875,0 c 15.3736,49.666284 28.62535,109.50144 39.71875,179.5 -56.8236,17.99677 -89.67865,54.88428 -98.53125,110.65625 -6.535,24.82981 -9.78125,56.82138 -9.78125,96.03125 -18.2978,35.29289 -27.46875,59.49699 -27.46875,72.5625 -2e-4,6.53943 8.5092,10.44211 25.5,11.75 l -7.84375,13.71875 c 2.6138,5.20485 7.18365,8.47792 13.71875,9.8125 -3.9212,6.53943 -5.21345,13.75311 -3.90625,21.59375 h 11.75 c -7.8418,36.5941 6.5294,54.875 43.125,54.875 H 765.25 c 9.1488,35.28622 26.13605,73.83061 50.96875,115.65625 C 814.91225,687.49083 802.526,703.50557 779,734.1875 755.4741,764.90279 731.93195,801.52041 708.40625,844 684.88055,886.47959 689.4503,927.95766 722.125,968.46875 731.2737,1100.4785 711.00925,1222.0348 661.34375,1333.125 L 412.375,970.4375 C 391.0993,909.96818 355.79745,875.41299 307.65625,866.75 V 345.3125 C 304.6307,298.57029 288.13683,245.10954 230.4375,234.96875 c 22.377,-31.67675 48.85545,-60.24187 77.09375,-86.8125 22.7518,-13.84306 40.97009,-36.83786 46.1875,-63.125 1.18833,-5.987247 -0.95197,-28.977267 -28.59375,-28.0625 -17.2879,0.806388 -35.345,5.556855 -47.5625,18.5625 -40.6313,33.07479 -75.73205,72.16131 -112.21875,109.65625 -35.3638,26.71294 -67.09533,61.15589 -81.5625,103.78125 C 66.57954,326.51937 47.51383,363.42242 36,403.21875 22.85151,443.18493 10.53138,483.43787 0,524.125 c 1.37648,16.20318 0.43876,35.58159 13.15625,47.59375 9.65027,6.23572 21.58564,-0.821 27.21875,-9.21875 16.64592,-18.31923 20.19342,-43.81644 28.78125,-66.25 14.38974,-44.20467 27.80624,-90.52671 57.5625,-127.125 19.205,-24.10496 43.38725,-45.32886 72.09375,-57.375 17.0898,-2.54728 31.4121,13.59983 32.8125,29.625 4.236,25.31351 1.875,51.14068 1.875,76.78125 V 866.5 c -66.14652,-0.21856 -96.53647,13.46714 -48.53125,53 -1.3072,43.12685 9.7866,73.19162 33.3125,90.1875 v 39.2187 c 130.6986,385.5592 193.44665,592.0545 188.21875,619.5 -2.6139,28.7536 -21.2398,53.5873 -55.875,74.5 -34.6352,20.9129 -43.45945,40.5154 -26.46875,58.8126 h 778.31255 c 26.1396,-13.0723 26.1396,-31.3844 0,-54.9063 -67.9633,-82.3436 -89.8668,-161.4148 -65.6876,-237.2187 24.1793,-75.8041 45.4209,-259.4167 63.7188,-550.87505 h 72.5312 V 674.4375 c 0,-185.59295 -20.2335,-316.60459 -60.75,-393.0625 -22.9055,-43.22695 -57.5143,-74.24041 -103.8124,-93.03125 C 1019.9094,114.54828 1034.2536,51.7728 1051.5,0.03125 Z M 784.875,31.34375 1010.3125,31.375 C 1001.227,65.11978 991.4998,114.31306 981.125,179 c -29.4522,-8.24768 -62.8391,-12.375 -100.1875,-12.375 -25.8049,0 -49.1019,1.96925 -69.875,5.90625 -9.9363,-61.524 -18.6597,-108.570437 -26.1875,-141.1875 z m 99.96875,170.59375 v 0.0312 c 101.9448,0 168.94755,36.90785 200.96875,110.75 32.0212,73.84882 48.0313,193.76199 48.0313,359.75 V 919.5 H 880.9375 V 470.5625 c 9.1491,-11.7643 20.90445,-29.40891 35.28125,-52.9375 14.3769,-23.52191 21.5625,-47.37996 21.5625,-71.5625 0,-24.17586 -15.03305,-36.28125 -45.09375,-36.28125 -22.2186,0 -35.29785,12.42019 -39.21875,37.25 0,-26.13769 -11.40895,-42.46057 -34.28125,-49 -22.8722,-6.53943 -55.90085,-9.8125 -99.03125,-9.8125 7.8419,-57.50693 62.7426,-86.28125 164.6875,-86.28125 z m -131.125,117.28125 v 0.0312 c 16.4447,0 32.06915,2.41427 46.84375,7.21875 26.1398,8.49458 39.1875,26.46067 39.1875,53.90625 h 31.375 c 0,-24.83648 5.89345,-37.25 17.65625,-37.25 11.7629,0 15.6709,12.41352 11.75,37.25 l -58.8125,86.25 v 186.25 h -5.875 C 814.93195,624.12154 800.56055,588.82565 792.71875,547 H 737.8125 c -19.6046,0 -29.40625,-5.86738 -29.40625,-17.625 1.3072,-19.60494 10.4469,-30.72798 27.4375,-33.34375 0,-9.14853 -2.61555,-13.71875 -7.84375,-13.71875 h -35.28125 c 6.5347,-15.68795 -0.6509,-26.811 -21.5625,-33.34375 0,-9.14853 9.80145,-30.04163 29.40625,-62.71875 -1.307,-24.82981 3.26265,-45.76084 13.71875,-62.75 13.6381,-2.86934 26.7876,-4.28125 39.4375,-4.28125 z m -0.875,18.4375 c -18.1362,0 -32.945,5.07597 -44.4375,15.21875 l 1.96875,15.6875 c 12.6029,-10.50312 28.208,-15.75 46.8125,-15.75 16.124,0 34.4934,3.92515 55.125,11.8125 h 13.71875 V 350.90625 H 812.3125 c -22.7143,-8.8349 -42.54165,-13.25 -59.46875,-13.25 z m 2.625,23.09375 c -24.8327,0 -40.5276,9.80131 -47.0625,29.40625 v 7.8125 H 722.125 c 6.5346,3.93701 14.38225,5.90625 23.53125,5.90625 10.4559,0 32.0129,-6.52824 64.6875,-19.59375 l 17.65625,2 v -11.75 l -17.65625,2 c -27.4464,-10.45641 -45.7261,-15.6875 -54.875,-15.6875 z m 3.9375,11.71875 c 10.4456,1.33574 20.89795,3.94599 31.34375,7.8125 -6.5349,3.93701 -17.65985,7.84637 -33.34375,11.75 6.82201,-6.84985 7.87235,-10.69901 2,-19.5625 z m -19.625,1.5 v 0.5 c -3.78367,1.93198 -8.35031,11.52408 3.90625,17.625 h -5.25 c -5.6365,0 -12.37705,-1.47018 -20.21875,-4.40625 7.842,-7.84064 15.0276,-12.41087 21.5625,-13.71875 z m 101.9375,361.25 v 223.5 H 1051.5 C 1049.3755,1090.4101 1025.1416,1358.467 977,1539 c -20.9119,78.4199 -6.54045,143.1196 43.125,194.0938 H 439.8125 c 59.99367,-67.6323 5.81713,-173.479 -17.625,-245.0626 L 277.09375,1044.9688 c -7.842,-23.5219 7.19135,-35.2813 45.09375,-35.2813 37.9027,0 62.07535,9.1405 72.53125,27.4375 l 245.0625,356.8125 c 36.72623,24.878 65.66239,18.4276 78.4375,-41.1875 47.0515,-108.4809 64.7004,-239.8076 52.9375,-394.03125 -45.7445,-48.35839 -22.2334,-122.85955 70.5625,-223.5 z M 226.125,905.78125 h 72.53125 c 24.8327,0 46.42095,21.56065 64.71875,64.6875 h -80.40625 c -37.9025,0 -56.84375,-21.56065 -56.84375,-64.6875 z"
     sodipodi:nodetypes="ccccccccccscccscccccccsccccccccccccscccccscccsccscccccccscccccsccccsscscccccccscccccsccscccccsccsccccsccccscccccccccccccscccccsccscsccccccscsc" />
</svg>
