<?xml version="1.0" encoding="UTF-8" standalone="no"?>
<svg
   width="900"
   height="1000"
   version="1.1"
   id="svg1"
   sodipodi:docname="B82.svg"
   inkscape:version="1.4.2 (f4327f4, 2025-05-13)"
   xmlns:inkscape="http://www.inkscape.org/namespaces/inkscape"
   xmlns:sodipodi="http://sodipodi.sourceforge.net/DTD/sodipodi-0.dtd"
   xmlns="http://www.w3.org/2000/svg"
   xmlns:svg="http://www.w3.org/2000/svg">
  <defs
     id="defs1" />
  <sodipodi:namedview
     id="namedview1"
     pagecolor="#ffffff"
     bordercolor="#666666"
     borderopacity="1.0"
     inkscape:showpageshadow="2"
     inkscape:pageopacity="0.0"
     inkscape:pagecheckerboard="0"
     inkscape:deskcolor="#d1d1d1"
     showguides="true"
     inkscape:zoom="0.755"
     inkscape:cx="219.2053"
     inkscape:cy="550.33113"
     inkscape:window-width="1680"
     inkscape:window-height="998"
     inkscape:window-x="-8"
     inkscape:window-y="-8"
     inkscape:window-maximized="1"
     inkscape:current-layer="svg1">
    <sodipodi:guide
       position="606.24553,680.61286"
       orientation="0,-1"
       id="guide2"
       inkscape:locked="false" />
  </sodipodi:namedview>
  <path
     id="path1"
     style="fill:#000000;stroke:none;stroke-width:55.6253"
     d="M 630.99609,0 C 560.2831,0 520.99762,24.748913 513.14062,74.248047 c -3.92853,14.928299 -5.89257,34.179023 -5.89257,57.750003 -11.78551,21.21391 -17.67969,35.74847 -17.67969,43.60547 0,3.92851 5.50018,6.28657 16.5,7.07226 l -4.71289,8.25 c 1.57142,3.14279 4.32152,5.10689 8.25,5.89258 -2.3571,3.92852 -3.14311,8.24869 -2.35742,12.96289 h 7.07031 c -5.49989,21.9996 2.7504,33 24.75,33 h 22.39258 c 5.49994,21.21392 13.75005,38.89255 24.75,53.03516 -53.18062,9.33032 -80.57187,34.34484 -97.82032,84.85547 -22.78528,32.99942 -50.6783,81.31923 -83.67773,144.96093 -37.71362,3.92852 -71.6939,8.83966 -101.94336,14.73242 -30.24946,5.89275 -75.62414,-0.5885 -136.12305,-19.44531 -29.8566,-8.64268 -59.31971,-9.42869 -88.390621,-2.35742 -9.428408,3.14279 -33.393264,17.67703 -71.8925778,43.60547 -3.1427895,1.57142 -5.106853,3.7323 -5.89257808,6.48242 -0.78568835,2.75022 -0.58870686,5.49989 0.58984378,8.25 1.1785506,2.74994 3.142614,6.87533 5.8925781,12.375 2.749929,5.50011 4.321963,8.05509 4.714844,7.66016 0.392864,-0.39272 1.570917,1.17929 3.535156,4.71484 1.964239,3.53554 5.303376,4.12442 10.017578,1.76758 31.428007,-25.9281 55.195887,-40.65977 71.302735,-44.19531 16.106852,-3.53565 24.552192,-3.53565 25.337892,0 0.78569,3.53576 -1.57042,5.89161 -7.07031,7.07031 -5.49989,1.17869 -13.35813,2.35841 -23.57227,3.53711 -10.214093,1.17853 -17.481375,4.12365 -21.802734,8.83789 -4.321359,4.71418 -4.910405,8.64232 -1.767578,11.78515 3.142787,4.71425 9.035015,4.91137 17.677734,0.58985 8.642679,-4.32136 21.999178,-6.87474 40.070308,-7.66016 2.71606,-0.11809 5.37872,-0.38682 7.98829,-0.80664 -52.678519,17.60512 -69.271489,68.43452 -69.271489,102.16211 0,64.26458 51.761539,106.06836 110.783199,106.06836 79.72542,0 106.07032,-72.35981 106.07032,-108.42578 0,-34.55741 -26.15083,-106.07031 -106.07032,-106.07031 -10.41071,0 -19.92586,0.98709 -28.60937,2.79492 9.5798,-3.6895 18.3303,-9.72764 26.25195,-18.11524 102.14102,35.35647 196.81853,42.03473 284.03125,20.03516 35.35653,-47.14203 66.78371,-106.4622 94.28321,-177.96094 -3.92848,25.92811 -11.39275,49.89102 -22.39258,71.89063 -10.99982,21.99964 4.71475,49.5005 47.14258,82.5 -41.64211,32.9994 -75.8194,62.65949 -102.53321,88.98047 -26.7138,26.32092 -70.32139,53.23096 -130.82031,80.73047 -24.35674,-2.35706 -43.21342,2.16007 -56.57031,13.55273 -13.35689,11.39267 -24.44965,20.01591 -34.27089,23.55152 -8.1071,2.91852 -13.35976,9.22135 -12.87169,12.39379 0.71687,4.65964 3.14411,7.07227 9.42969,7.07227 6.28561,0 13.55288,-3.14214 21.80273,-9.42774 8.24986,-6.2856 14.92809,-11.394 20.03516,-15.32226 5.10702,-3.92825 9.23217,-3.92825 12.375,0 3.14279,3.92854 -2.35739,10.21471 -16.5,18.85742 -14.14261,8.64272 -43.24407,14.60063 -87.21289,18.85547 -4.757,0.46033 -5.69527,6.28593 -2.94532,16.5 2.74995,10.21413 4.32011,16.69716 4.7129,19.44726 0.28826,2.0182 1.25201,7.66016 13.55468,7.66016 65.99881,-3.92847 112.74657,-27.89339 140.2461,-71.89258 92.71261,-35.35658 162.64117,-72.2839 209.7832,-110.7832 -6.2856,50.28479 -16.89201,75.42773 -31.82031,75.42773 -54.99899,10.99984 -160.67685,54.60542 -317.03125,130.81836 -70.71301,37.71353 -80.92741,82.89125 -30.64258,135.53321 h 606.95312 c 44.78489,1.57134 69.53576,10e-4 74.25,-4.71289 h 18.85547 c 0.78571,-13.35696 -5.89259,-21.60717 -20.03515,-24.75 -1.57141,-7.07136 -11.78578,-10.60743 -30.64258,-10.60743 -34.57104,-22.78533 -47.92732,-42.82008 -40.07031,-60.10546 12.57137,-14.14267 18.46511,-28.48209 17.67968,-43.01758 -0.78571,-14.5351 -12.96412,-19.05241 -36.53515,-13.55274 10.99973,-196.42506 12.96389,-318.60157 5.89258,-366.52929 h 25.92773 V 304.06641 c 0,-106.06954 -10.21437,-183.26536 -30.64258,-231.585941 C 755.52882,24.159923 707.20903,0 630.99609,0 Z m 2.35547,21.214844 c 61.28462,0 101.55312,23.373877 120.80274,70.123047 19.24962,46.749129 28.08894,117.658769 26.51758,212.728519 V 450.20703 H 630.99609 V 182.67578 c 5.49995,-7.0713 12.57023,-17.67969 21.21289,-31.82226 8.64255,-14.14261 12.96485,-28.28513 12.96485,-42.42774 0,-14.928302 -9.82235,-22.390624 -29.46485,-22.390624 -11.78549,0 -19.24975,7.462322 -22.39257,22.390624 0,-15.714025 -6.87333,-25.534411 -20.62305,-29.462889 -13.74973,-3.928533 -33.19739,-5.892579 -58.33984,-5.892579 4.7142,-34.570798 37.71341,-51.855468 98.99804,-51.855468 z m -75.57422,70.564453 c 8.54449,0.294638 16.64803,1.719905 24.3086,4.273437 15.32114,5.107066 22.98047,15.910486 22.98047,32.410156 h 20.03711 c 0,-14.9283 3.5341,-22.39258 10.60546,-22.39258 7.07141,0 10.60743,3.92816 10.60743,11.78516 0,7.85702 -5.10619,17.8744 -15.32032,30.05273 -10.21408,12.17837 -18.07231,22.98175 -23.57226,32.41016 v 115.49805 h -3.53516 c -12.5712,-19.64254 -21.21349,-42.03534 -25.92773,-67.17774 h -33 c -11.7855,0 -17.67774,-3.53612 -17.67774,-10.60742 0.78569,-11.78551 6.2859,-18.06976 16.5,-18.85547 0,-6.2856 -1.57207,-9.42969 -4.71484,-9.42969 h -21.21289 c 3.92847,-9.42841 -0.39365,-16.10667 -12.96485,-20.03515 0,-5.49993 5.50019,-18.07039 16.5,-37.71289 10e-6,-14.9283 3.14213,-27.50075 9.42774,-37.714847 9.42839,-1.964258 18.4145,-2.798544 26.95898,-2.503906 z m -5.15625,11.048823 c -10.21409,0.19643 -18.65944,3.24202 -25.33789,9.13477 l 1.17774,9.42773 c 14.14261,-11.7855 34.17932,-12.57151 60.10742,-2.35742 h 10.60547 v -8.25 h -10.60547 c -13.74976,-5.49991 -25.73317,-8.1515 -35.94727,-7.95508 z m 2.94727,13.84766 c -14.9283,0 -24.75066,5.89418 -29.46484,17.67969 l 1.17968,4.71289 h 7.07032 c 4.7142,2.35712 9.82231,3.53711 15.32226,3.53711 6.28558,0 19.25008,-3.93011 38.89258,-11.78711 l 10.60547,1.17969 v -7.07227 l -10.60547,1.17969 c -16.49968,-6.2856 -27.50011,-9.42969 -33,-9.42969 z m -9.42774,8.25 c -1.57141,0.7857 -2.35742,2.35773 -2.35742,4.71484 0,2.35712 1.57012,4.32117 4.71289,5.89258 -3.92848,0.78571 -9.03472,-3e-4 -15.32031,-2.35742 4.71417,-4.71418 9.03631,-7.4643 12.96484,-8.25 z m 11.78516,0 c 6.2856,0 12.17807,1.18005 17.67774,3.53711 -3.14283,2.35712 -9.82108,4.71319 -20.03516,7.07031 2.3569,-1.57141 3.53516,-3.53545 3.53516,-5.89258 0,-1.57141 -0.39231,-3.14349 -1.17774,-4.71484 z m 49.49805,194.46094 v 156.74805 h 4.71484 l -23.57226,54.21289 c -11.78549,-7.07127 -22.78397,-20.03573 -32.99805,-38.89258 13.35691,-27.49949 21.99948,-53.03449 25.92773,-76.60547 -1.57364,-29.85663 -1.9651,-52.44447 -1.17968,-67.76563 0.6868,-14.29311 11.90699,-27.69726 27.10742,-27.69726 z m 96.64258,156.74805 h 47.14062 c 6.2856,95.85544 3.92947,221.96009 -7.07031,378.31445 -7.85702,64.42739 -40.46417,94.67631 -97.82031,90.74805 -61.28463,-3.92848 -124.72999,-14.53488 -190.33594,-31.82032 -65.60598,-17.28538 -140.05173,-1.96483 -223.33594,45.96289 -15.71402,6.2856 -27.69545,1.5714 -35.94531,-14.14257 -8.24985,-15.71396 6.08968,-34.17861 43.01758,-55.39258 144.56885,-73.07006 252.99487,-117.85379 325.27929,-134.35352 12.5712,0 23.96361,-41.2495 34.17774,-123.74805 l 10.60742,-11.78515 c 34.57076,-47.92772 65.99994,-95.85548 94.28516,-143.7832 z M 174.89648,598.70312 c 66.38263,0 81.61033,58.5323 82.49805,82.5 0,41.37506 -29.28861,85.4963 -82.49805,87.2129 -51.61682,0 -87.212886,-37.96082 -87.212886,-86.03516 0,-35.0739 22.192326,-83.67774 87.212886,-83.67774 z"
     sodipodi:nodetypes="sccscccccsccccscccssccscssscsccscssssccccscscsssssscssssccccccccccccccccsssssccccssscscsssccsssccccsccsccccssccccccsscccsccccscsccccccscccccccccccccscscccccsccss" />
</svg>
