<?xml version="1.0" encoding="UTF-8" standalone="no"?>
<svg
   width="600"
   height="1000"
   id="svg2"
   sodipodi:version="0.32"
   inkscape:version="1.4.2 (f4327f4, 2025-05-13)"
   sodipodi:docname="C12B.svg"
   inkscape:output_extension="org.inkscape.output.svg.inkscape"
   version="1.0"
   xmlns:inkscape="http://www.inkscape.org/namespaces/inkscape"
   xmlns:sodipodi="http://sodipodi.sourceforge.net/DTD/sodipodi-0.dtd"
   xmlns="http://www.w3.org/2000/svg"
   xmlns:svg="http://www.w3.org/2000/svg"
   xmlns:rdf="http://www.w3.org/1999/02/22-rdf-syntax-ns#"
   xmlns:cc="http://creativecommons.org/ns#"
   xmlns:dc="http://purl.org/dc/elements/1.1/">
  <metadata
     id="metadata9">
    <rdf:RDF>
      <cc:Work
         rdf:about="">
        <dc:format>image/svg+xml</dc:format>
        <dc:type
           rdf:resource="http://purl.org/dc/dcmitype/StillImage" />
      </cc:Work>
    </rdf:RDF>
  </metadata>
  <defs
     id="defs7" />
  <sodipodi:namedview
     inkscape:window-height="998"
     inkscape:window-width="1680"
     inkscape:pageshadow="2"
     inkscape:pageopacity="0.0"
     guidetolerance="10.0"
     gridtolerance="10.0"
     objecttolerance="10.0"
     borderopacity="1.0"
     bordercolor="#666666"
     pagecolor="#ffffff"
     id="base"
     height="18px"
     width="11.40203px"
     inkscape:zoom="1.51"
     inkscape:cx="467.88079"
     inkscape:cy="499.66887"
     inkscape:window-x="-8"
     inkscape:window-y="-8"
     inkscape:current-layer="svg2"
     inkscape:showpageshadow="2"
     inkscape:pagecheckerboard="0"
     inkscape:deskcolor="#d1d1d1"
     showguides="true"
     inkscape:window-maximized="1">
    <sodipodi:guide
       position="492.28119,0"
       orientation="-1,0"
       id="guide1"
       inkscape:locked="false"
       inkscape:label=""
       inkscape:color="rgb(0,134,229)" />
  </sodipodi:namedview>
  <path
     style="fill:#000000;stroke:none;stroke-width:54.9888"
     d="m 284.80613,266.97611 c 3.21503,10.93106 5.4655,23.79112 6.75153,38.5802 16.71809,-1.28602 36.32969,4.82252 58.83481,18.3256 21.86211,-9.64502 35.36518,-8.19826 40.50921,4.34032 5.14404,12.53855 3.21504,23.30886 -5.78703,32.31094 -9.00205,9.00203 -14.14607,15.75356 -15.43208,20.25458 l 21.21911,13.50302 c 5.14404,4.501 10.93106,2.25053 17.36109,-6.75148 l 65.58634,-120.56318 z m -12.53856,99.34406 0.9645,-4.82252 8.68054,-4.82257 c 6.43004,-12.86004 23.14813,-12.86004 50.15426,0 h 22.18362 v 6.75158 h -21.21911 c -23.14812,10.28802 -40.50921,11.89553 -52.08327,4.82252 z m 12.53856,-3.85807 c 2.57199,1.28603 6.43003,2.57205 11.57406,3.85807 -3.21502,-4.50105 -3.85802,-8.68057 -1.92901,-12.53856 -5.78703,2.57201 -9.00205,5.46551 -9.64505,8.68049 z m 24.11262,2.89357 c 5.14404,-1.28602 10.93106,-3.21503 17.36109,-5.78708 l -17.36109,-5.78698 c 3.85802,4.501 3.85802,8.35904 0,11.57406 z m -27.97064,-20.25461 v -9.64504 c 14.14607,-3.85802 25.39863,-4.17954 33.75767,-0.96456 8.35905,3.21503 19.61161,7.39453 33.75768,12.53856 l 4.82252,4.82252 c -15.43208,-1.28599 -27.8099,-3.85801 -37.13346,-7.71603 -9.32353,-3.85798 -21.05834,-3.53647 -35.20441,0.96455 z M 62.969974,641.20404 C 70.686013,627.058 86.118094,619.66348 109.26621,619.0205 92.548125,600.3734 74.222531,594.42559 54.289429,601.17712 c -19.933104,6.75153 -25.077131,11.09185 -15.432081,13.02086 9.64505,1.92901 17.682595,10.93101 24.112626,27.00606 z M 346.53445,536.07306 c -16.07508,70.73041 -31.18567,178.11193 -45.33173,322.14462 l -23.14812,1.92901 -130.20818,-185.1849 c -18.6471,-27.64915 -37.6157,-35.04372 -56.9058,-22.18365 -19.290103,12.86013 -14.467577,41.313 14.46757,85.35872 28.93515,44.04573 53.04778,113.32935 72.33788,207.85086 l -66.55085,27.00606 h 320.21567 l -11.57401,-17.36102 c 10.28805,-62.3713 19.29009,-141.13928 27.00609,-236.30373 6.43004,-82.94751 5.14404,-144.03279 -3.85802,-183.25597 -6.43003,-28.29217 -22.18361,-42.43822 -47.26075,-42.43822 -25.07712,0 -41.47371,14.14605 -49.18975,42.43822 z m 11.57406,-142.74674 c -0.643,14.78904 -9.32355,28.29211 -26.04164,40.50921 9.00205,12.21703 17.03959,28.61362 24.11263,49.18976 7.07304,-6.43002 14.46758,-10.12733 22.18361,-11.09184 7.71605,-0.9645 16.39661,-0.80374 26.04169,0.48223 -10.28805,-11.57403 -16.3966,-32.15013 -18.32564,-61.72832 z m -8.68055,-4.82252 c -0.643,-6.43007 4.34029,-14.30687 14.94986,-23.63041 10.60954,-9.32353 15.75355,-16.87883 15.43203,-22.66589 -0.32148,-5.78703 -3.37574,-8.68054 -9.16277,-8.68054 -5.78703,0 -11.57406,3.21503 -17.36109,9.64509 -27.64915,-14.7891 -49.83276,-21.86214 -66.55085,-21.21911 -7.71604,18.00407 -18.6471,38.90166 -32.79317,62.69279 12.86007,0.643 18.00409,5.78703 15.43208,15.43207 3.85801,-3.21503 10.44881,-1.44675 19.77238,5.30483 9.32353,6.75152 2.73272,9.80577 -19.77238,9.16277 3.21503,3.85802 4.17953,8.5198 2.89351,13.98535 -1.28602,5.4655 4.17954,7.87676 16.39659,7.23376 18.6471,-0.64299 33.43617,-4.98325 44.36723,-13.02081 10.93106,-8.03756 17.36109,-19.12938 19.2901,-33.27545 z m -21.2191,-139.85324 h 37.61569 l 77.1604,-199.652585 c 4.50103,-14.789077 1.44677,-23.630365 -9.16277,-26.523864 -10.60957,-2.893531 -18.48637,2.089737 -23.6304,14.949804 z m 69.44436,0 h 37.61574 L 505.67778,66.359068 c 7.71609,-14.789081 5.46556,-23.951869 -6.75153,-27.488372 -12.21705,-3.536534 -21.21912,1.768236 -27.00615,15.914309 z M 61.040966,510.03142 c 11.57406,-13.50307 25.077128,-21.2191 40.509214,-23.14816 L 79.36656,388.50379 c -5.14404,-18.6471 0,-32.15017 15.432077,-40.50921 15.432083,-6.43003 20.254603,-15.11058 14.467573,-26.04164 -7.07303,-12.86009 -17.682589,-14.4676 -31.828663,-4.82252 -10.931054,6.43 -16.396581,29.89962 -16.396581,70.40887 z M 38.857348,583.33379 V 402.00686 c 0,-55.94133 8.680545,-89.69901 26.041635,-101.27307 26.363141,-17.36109 46.617747,-13.18157 60.763817,12.53856 10.93106,18.00413 7.39454,33.11472 -10.60956,45.33179 -13.50306,9.00201 -18.96859,18.00404 -16.396581,27.00609 L 125.6628,500.38638 c -25.720134,7.07304 -43.724231,17.6826 -54.012283,31.82866 -5.78703,8.35903 -8.680543,14.78909 -8.680543,19.29012 v 31.82863 c 27.649143,-3.85801 46.939246,1.92901 57.870296,17.36113 10.93106,7.07305 19.93311,16.07505 27.00615,27.00612 L 278.0546,810.95698 c 14.78907,-144.03274 33.75767,-253.34333 56.90579,-327.93169 -4.50102,-14.7891 -10.93106,-26.04168 -19.2901,-33.75768 h -27.00614 c -15.43208,48.22525 -32.63243,76.99964 -51.60104,86.32318 -18.96859,9.32357 -33.11465,11.41334 -42.43818,6.2693 -9.32356,-5.14404 -12.69933,-10.12728 -10.12732,-14.9498 2.57199,-4.82252 9.00205,-5.30483 19.2901,-1.44676 10.28805,3.85802 22.02286,-3.0543 35.20441,-20.73688 13.18158,-17.68259 20.73688,-40.66998 22.66589,-68.96216 0.643,-9.64505 -0.9645,-15.91432 -4.82253,-18.80782 -3.85802,-2.8935 -3.21501,-5.62626 1.92901,-8.19828 -5.78703,-1.286 -6.43003,-5.14402 -1.92901,-11.57406 -18.64709,0.64301 -21.70137,-8.03754 -9.16282,-26.04163 12.53858,-18.00412 21.05839,-36.00822 25.55941,-54.01228 0,-19.9331 -3.85802,-42.75972 -11.57406,-68.47986 h 41.47371 L 386.07916,32.60139 C 393.1522,8.8102659 407.45902,-1.9600323 428.99966,0.29049502 450.54025,2.540991 463.56106,10.739276 468.06208,24.88535 c 13.50308,-7.716041 29.41743,-8.037542 47.74303,-0.964505 18.32559,7.073036 22.66584,22.826618 13.02079,47.260748 L 460.34609,248.65056 h 44.36719 l -62.69283,112.84709 c 45.65325,31.50716 71.47986,75.23138 71.47986,131.17264 V 1000 H 492.28119 V 492.67029 c 0,-46.93922 -21.96858,-84.2334 -59.90579,-111.88254 l -24.11263,43.40273 c -3.21503,18.00406 2.89352,34.72214 18.3256,50.15426 21.86211,5.78703 35.84744,36.49043 41.95599,92.11018 6.1085,55.61982 -1.12529,183.41678 -21.70139,383.39087 L 489.28119,1000 H 77.437547 L 72.615026,962.38423 145.91741,930.55554 C 127.27031,855.96715 106.53345,799.38287 83.706807,760.80271 60.880206,722.22255 47.537893,686.21432 43.679873,652.77814 l 2.893513,9.6451 C 36.928338,643.77609 23.907512,630.91607 7.5109116,623.84302 -8.8856585,616.76997 1.5631542,603.26691 38.857348,583.33379 h -0.964504 z"
     id="path4"
     sodipodi:nodetypes="cccssccccccccccccccccccccccccsccscccsscccccssccccccsccccsccccsssccccscscscccccscccccsccccccccsccsccccccscccccccssssscsccsccccscsccccsccscccscccccsccsccc" />
</svg>
