<?xml version="1.0" encoding="UTF-8" standalone="no"?>
<svg
   width="600"
   height="1000"
   version="1.1"
   id="svg1"
   sodipodi:docname="C12D.svg"
   inkscape:version="1.4.2 (f4327f4, 2025-05-13)"
   xmlns:inkscape="http://www.inkscape.org/namespaces/inkscape"
   xmlns:sodipodi="http://sodipodi.sourceforge.net/DTD/sodipodi-0.dtd"
   xmlns="http://www.w3.org/2000/svg"
   xmlns:svg="http://www.w3.org/2000/svg">
  <defs
     id="defs1" />
  <sodipodi:namedview
     id="namedview1"
     pagecolor="#ffffff"
     bordercolor="#666666"
     borderopacity="1.0"
     inkscape:showpageshadow="2"
     inkscape:pageopacity="0.0"
     inkscape:pagecheckerboard="0"
     inkscape:deskcolor="#d1d1d1"
     showguides="true"
     inkscape:zoom="8.5418499"
     inkscape:cx="494.09672"
     inkscape:cy="456.75118"
     inkscape:window-width="1680"
     inkscape:window-height="998"
     inkscape:window-x="-8"
     inkscape:window-y="-8"
     inkscape:window-maximized="1"
     inkscape:current-layer="svg1">
    <sodipodi:guide
       position="512.37721,0"
       orientation="-1,0"
       id="guide1"
       inkscape:locked="false"
       inkscape:label=""
       inkscape:color="rgb(0,134,229)" />
  </sodipodi:namedview>
  <path
     style="fill:#000000;stroke:none;stroke-width:46.8138"
     d="m 304.9022,266.9761 c 3.21501,10.93106 5.46552,23.79113 6.75153,38.5802 16.71809,-1.28601 36.32969,4.82253 58.83481,18.3256 21.86211,-9.64502 35.36518,-8.19825 40.50921,4.3403 5.14403,12.53855 3.21502,23.30886 -5.78703,32.31094 -9.00208,9.00205 -14.14611,15.75358 -15.43208,20.2546 l 21.21911,13.50302 c 5.14403,4.50103 10.93104,2.25053 17.36104,-6.75148 L 493.94513,266.9761 Z m -12.53861,99.34407 0.96455,-4.82253 8.68054,-4.82257 c 6.43003,-12.86003 23.14812,-12.86003 50.15426,0 h 22.18362 v 6.75158 h -21.21911 c -23.14815,10.28802 -40.50924,11.89553 -52.08327,4.82253 z m 12.53861,-3.85807 c 2.57201,1.28601 6.43003,2.57203 11.57406,3.85807 -3.21502,-4.50106 -3.85802,-8.68058 -1.92901,-12.53857 -5.78703,2.57201 -9.00205,5.46551 -9.64505,8.6805 z m 24.11262,2.89356 c 5.14403,-1.28601 10.93104,-3.21503 17.36105,-5.78708 l -17.36105,-5.78698 c 3.85802,4.50103 3.85802,8.35905 0,11.57406 z m -27.97064,-20.2546 v -9.64505 c 14.14607,-3.85802 25.39863,-4.17954 33.75767,-0.96456 8.35905,3.21502 19.61161,7.39454 33.75768,12.53857 l 4.82252,4.82252 c -15.43208,-1.28601 -27.8099,-3.85802 -37.13346,-7.71604 -9.32353,-3.85799 -21.05834,-3.53647 -35.20441,0.96456 z M 83.066,641.20405 c 7.71604,-14.14607 23.14812,-21.5406 46.29624,-22.18357 -16.71805,-18.6471 -35.043648,-24.59489 -54.976785,-17.84337 -19.933103,6.75155 -25.07713,11.09183 -15.43208,13.02084 9.64505,1.92904 17.682592,10.93107 24.112625,27.0061 z m 283.56452,-105.131 c -16.07509,70.73037 -31.18567,178.11191 -45.33174,322.14462 l -23.14812,1.92901 -130.20817,-185.18491 c -18.6471,-27.64915 -37.61572,-35.04369 -56.90585,-22.18362 -19.290065,12.86007 -14.467539,41.31296 14.46758,85.35867 28.93515,44.04575 53.04777,113.32936 72.33788,207.85085 l -66.5508,27.0061 H 451.50696 L 439.9329,955.63272 C 450.22095,893.2614 459.223,814.49349 466.93904,719.329 c 6.43003,-82.94746 5.14401,-144.03278 -3.85807,-183.25595 -6.43003,-28.29215 -22.1836,-42.43822 -47.2607,-42.43822 -25.07713,0 -41.47371,14.14607 -49.18975,42.43822 z m 11.57406,-142.74674 c -0.64303,14.78905 -9.32358,28.29212 -26.04164,40.50921 9.00205,12.21703 17.03957,28.61362 24.11258,49.18975 7.07304,-6.43003 14.46759,-10.12731 22.18366,-11.09183 7.71604,-0.96437 16.39659,-0.80364 26.04164,0.48218 -10.28805,-11.57399 -16.39659,-32.15008 -18.3256,-61.72827 z m -8.68059,-4.82253 c -0.64297,-6.43007 4.34031,-14.30686 14.94985,-23.63039 10.60957,-9.32353 15.75359,-16.87883 15.43208,-22.6659 -0.32149,-5.78703 -3.37575,-8.68054 -9.16278,-8.68054 -5.78706,0 -11.57409,3.21503 -17.36109,9.6451 -27.64914,-14.78911 -49.83275,-21.86215 -66.55084,-21.21911 -7.71607,18.00406 -18.64713,38.90165 -32.79317,62.69277 12.86007,0.64301 18.00409,5.78704 15.43208,15.43209 3.85799,-3.21502 10.44876,-1.44675 19.77233,5.3048 9.32353,6.75152 2.73276,9.80578 -19.77233,9.16277 3.21501,3.85802 4.1795,8.5198 2.89347,13.98535 -1.28598,5.46551 4.17956,7.87677 16.39663,7.23376 18.64709,-0.64297 33.43617,-4.98324 44.36723,-13.02079 10.93103,-8.03756 17.36106,-19.12938 19.2901,-33.27545 z M 348.30492,248.65056 h 37.6157 L 463.08097,48.997974 c 4.50105,-14.789077 1.4468,-23.630365 -9.16277,-26.523864 -10.60957,-2.893531 -18.48636,2.089737 -23.63035,14.949804 z m 69.44432,0 h 37.61574 L 525.77384,66.359064 c 7.71604,-14.789077 5.46553,-23.951866 -6.75153,-27.488369 -12.21707,-3.536534 -21.21911,1.768236 -27.00614,15.914309 z M 71.49194,437.69354 c 7.073068,0 17.682621,-16.71809 31.82866,-50.15426 -9.645047,-1.28604 -15.753577,1.92898 -18.32559,9.64505 -2.572013,7.71604 -5.30477,13.82456 -8.198269,18.32555 -2.893531,4.50105 -4.661798,6.75158 -5.304801,6.75158 -0.643003,0 -2.411255,-2.25053 -5.304754,-6.75158 -2.893531,-4.50099 -5.787046,-10.60951 -8.680545,-18.32555 -2.893531,-7.71607 -8.841319,-10.93109 -17.843366,-9.64505 14.146073,33.43617 24.755628,50.15426 31.828665,50.15426 z m 0,-71.37337 c 3.85802,2.57198 6.751535,9.32351 8.680545,20.2546 5.78703,-7.71607 15.110595,-10.2881 27.970695,-7.71609 l 5.78698,-10.6095 c -14.146073,-7.07304 -28.292147,-10.60956 -42.43822,-10.60956 -14.146073,0 -28.613648,3.53652 -43.402725,10.60956 l 5.78703,10.6095 c 12.860067,-2.57201 22.183615,2e-5 27.970645,7.71609 2.572013,-10.93109 5.78703,-17.68262 9.64505,-20.2546 z m 0,44.36718 c 1.286007,-3.85802 2.41127,-8.19828 3.375791,-13.02079 0.964489,-4.82255 -0.160774,-8.51981 -3.375791,-11.09179 -3.215017,2.57198 -4.340265,6.26924 -3.375744,11.09179 0.964489,4.82251 2.089737,9.16277 3.375744,13.02079 z M 53.166345,589.12078 c 5.78703,-49.51123 6.430033,-96.77196 1.92901,-141.78219 -10.931057,-27.64917 -25.398632,-51.4403 -43.402725,-71.37337 -4.5010236,1.92897 -8.1982851,-5e-5 -11.09178454,-5.78708 -2.89353066,-5.787 4.66175084,-13.18152 22.66584454,-22.18357 10.288053,-55.94129 10.288053,-118.95563 0,-189.04303 h 96.45055 c -10.28805,70.0874 -10.28805,133.10174 0,189.04303 18.00409,9.00205 25.55937,16.39657 22.66584,22.18357 -2.89353,5.78703 -6.59079,7.71605 -11.09178,5.78708 -18.00409,19.93307 -32.793187,43.7242 -44.36728,71.37337 -4.501023,45.01023 -3.85802,89.37746 1.92901,133.10169 20.57614,-3.85805 37.13348,0.32147 49.67203,12.53856 12.53855,12.21707 22.34436,23.79113 29.41743,34.72218 l 130.20817,183.25595 c 14.78908,-144.03277 33.75768,-253.34334 56.9058,-327.9317 -4.50103,-14.78911 -10.93106,-26.04166 -19.2901,-33.75767 h -27.00614 c -15.43208,48.22525 -32.63243,76.99964 -51.60104,86.32317 -18.96861,9.32357 -33.11469,11.41334 -42.43822,6.26931 -9.32357,-5.14403 -12.69933,-10.1273 -10.12728,-14.94981 2.57198,-4.82254 9.002,-5.3048 19.29005,-1.44678 10.28809,3.85802 22.02291,-3.05427 35.20446,-20.73688 13.18158,-17.68257 20.73688,-40.66995 22.66589,-68.96213 0.64297,-9.64505 -0.96454,-15.91432 -4.82253,-18.80782 -3.85802,-2.8935 -3.21502,-5.62626 1.92901,-8.19827 -5.78703,-1.28601 -6.43003,-5.14403 -1.92901,-11.57406 -18.64713,0.643 -21.7014,-8.03755 -9.16282,-26.04164 12.53858,-18.00413 21.05838,-36.00822 25.55941,-54.01228 0,-19.9331 -3.85802,-42.75972 -11.57406,-68.47985 h 41.47367 L 406.17522,32.601389 C 413.24826,8.8102657 427.55508,-1.9600323 449.09567,0.29049501 470.6363,2.5409911 483.65712,10.739276 488.15815,24.885349 c 13.50307,-7.71604 29.41739,-8.037542 47.74297,-0.964505 18.32561,7.073037 22.66589,22.826618 13.02084,47.260745 L 480.44211,248.65056 h 44.36718 l -62.69278,112.84708 c 45.65321,31.50717 71.8106,75.23236 71.47981,131.17264 l 0,507.32972 h -21.21911 l 0,-507.32972 c 0,-46.93921 -21.96858,-84.23339 -59.90575,-111.88254 l -24.11267,43.40273 c -3.21499,18.00406 2.89356,34.72215 18.32564,50.15426 21.86209,5.78703 35.8474,36.49043 41.95595,92.1102 6.10855,55.61981 -1.12523,183.41674 -21.70134,383.39081 L 509.37721,1000 H 97.533622 L 92.71105,962.38421 166.01343,930.55555 C 147.36633,855.96716 126.62948,799.38288 103.80288,760.80271 80.976247,722.22251 68.598425,689.42934 66.669415,662.4232 57.024365,643.77611 46.41481,628.98703 34.84075,618.05597 23.26669,607.12492 29.375222,597.47985 53.166345,589.12078 Z M 101.39164,173.41912 H 41.592285 c 1.92901,23.79112 3.054274,50.47577 3.375791,80.05396 0.321486,29.57812 -1.446781,59.47778 -5.304801,89.69897 7.073037,-3.21502 17.682592,-4.82253 31.828665,-4.82253 14.146073,0 24.434127,1.60751 30.86416,4.82253 -3.214985,-30.22119 -4.822478,-60.12085 -4.822478,-89.69897 0,-29.57819 1.286006,-56.26284 3.858018,-80.05396 z"
     id="path1"
     sodipodi:nodetypes="cccssccccccccccccccccccccccccsccscccsscccccssccccccscccccccccsssccccscscscccccscccccsccscssssscsccccscccccscsccccsccccscccscccccssssscsccsccccscsccccsccscccscccccscscccscscsc" />
</svg>
