<?xml version="1.0" encoding="UTF-8" standalone="no"?>
<svg
   width="600"
   height="1000"
   version="1.1"
   id="svg1"
   sodipodi:docname="C52.svg"
   inkscape:version="1.4.2 (f4327f4, 2025-05-13)"
   xmlns:inkscape="http://www.inkscape.org/namespaces/inkscape"
   xmlns:sodipodi="http://sodipodi.sourceforge.net/DTD/sodipodi-0.dtd"
   xmlns="http://www.w3.org/2000/svg"
   xmlns:svg="http://www.w3.org/2000/svg">
  <defs
     id="defs1" />
  <sodipodi:namedview
     id="namedview1"
     pagecolor="#ffffff"
     bordercolor="#666666"
     borderopacity="1.0"
     inkscape:showpageshadow="2"
     inkscape:pageopacity="0.0"
     inkscape:pagecheckerboard="0"
     inkscape:deskcolor="#d1d1d1"
     inkscape:zoom="8.54185"
     inkscape:cx="200.83471"
     inkscape:cy="277.16478"
     inkscape:window-width="1680"
     inkscape:window-height="998"
     inkscape:window-x="-8"
     inkscape:window-y="-8"
     inkscape:window-maximized="1"
     inkscape:current-layer="svg1"
     showguides="true">
    <sodipodi:guide
       position="290.15514,725.44317"
       orientation="0,-1"
       id="guide1"
       inkscape:locked="false" />
    <sodipodi:guide
       position="176.11755,723.17881"
       orientation="0,-1"
       id="guide2"
       inkscape:locked="false" />
  </sodipodi:namedview>
  <path
     style="fill:#000000;stroke:none;stroke-width:55.6399"
     d="m 312.19631,490.17739 c -25.55501,-4.47215 -38.33251,28.74939 -38.33251,99.6646 l -7.66651,263.53626 H 233.61465 L 100.40901,675.13193 C 81.881607,644.46592 65.111126,634.24389 50.097565,644.46586 35.083967,654.6879 40.993568,682.15958 67.826369,726.88089 94.65913,771.60216 118.93641,841.55906 140.65821,936.75157 L 75.492872,966.45924 H 391.73637 l -21.08288,-47.91565 c 16.61076,-45.36017 28.42996,-154.92737 35.45761,-328.7016 0,-70.27632 -11.49978,-103.49785 -34.49933,-99.6646 v 99.6646 H 312.19631 Z M 222.11484,315.76432 c -1.27775,5.111 -4.79156,7.34707 -10.54141,6.70822 0,8.94425 4.47213,18.20795 13.41638,27.7911 -10.22201,-3.83325 -16.93021,-3.1944 -20.1246,1.91657 -5.74986,-4.47211 -9.58311,-2.87491 -11.49976,4.79159 h 8.62485 c 19.80511,-0.63885 36.73532,17.88855 50.79061,55.58221 9.58311,22.36065 17.40934,36.25619 23.47868,41.6866 6.06931,5.43049 13.25666,6.86796 21.56206,4.31242 -0.63889,-10.86086 -3.83327,-21.40231 -9.58313,-31.62435 -5.7499,-10.22201 -13.09698,-17.56906 -22.04123,-22.04117 53.02671,-10.22201 77.94286,-30.66604 74.74847,-61.33209 -3.19439,-30.66605 -17.24967,-45.99908 -42.16583,-45.99908 -24.27726,0 -42.64494,3.19438 -55.10303,9.58313 -12.45806,6.38875 -19.64541,9.2637 -21.56206,8.62485 z m 47.9157,75.70681 c 25.55501,-10.8609 39.29084,-20.76348 41.20749,-29.70773 1.91661,-8.94429 -0.15974,-16.93025 -6.22905,-23.95786 -6.06931,-7.02765 -14.21496,-10.38175 -24.43697,-10.0623 -10.222,0.31945 -18.20795,6.54848 -23.95785,18.68709 -1.91664,6.38879 -2.55551,19.16632 -1.91662,38.33258 -0.63889,1.91661 -2.23609,2.87491 -4.7916,2.87491 -3.83325,-18.52737 -7.98594,-29.70768 -12.45809,-33.54093 1.91664,-1.91664 3.03468,-4.79159 3.35413,-8.62484 0.31945,-3.83325 -2.71522,-7.66651 -9.10401,-11.49976 0,-13.4164 5.43045,-20.1246 16.29135,-20.1246 5.74989,0 10.22202,2.5555 13.41638,7.66651 3.83325,-5.11101 2.5555,-9.26369 -3.83325,-12.45804 40.88805,-3.83329 63.08898,6.86786 66.60279,32.10347 3.51384,25.2356 -14.53439,42.9644 -54.1447,53.18641 z m -33.54098,-58.45718 c 3.83325,2.5555 7.66651,4.1527 11.49976,4.79159 6.38875,-1.27775 9.58313,-4.79157 9.58313,-10.54147 0,-5.74986 -3.19438,-8.62479 -9.58313,-8.62479 -5.74986,0 -9.58311,4.79156 -11.49976,14.37467 z m 11.49976,-12.45804 c 3.83325,0.63886 6.06933,2.87491 6.70822,6.70816 -0.63889,3.83325 -2.87497,6.06933 -6.70822,6.70822 -4.47211,-0.63889 -6.70817,-2.87497 -6.70817,-6.70822 0.63886,-3.83325 2.87492,-6.0693 6.70817,-6.70816 z m 190.70442,247.24486 h 29.70773 c 0,-84.97043 -13.4164,-149.65658 -40.2492,-194.05845 -26.83277,-44.4019 -51.74892,-67.24171 -74.74847,-68.51942 21.7218,53.02667 14.37474,93.27584 -22.04117,120.74749 v 141.83038 l 19.16626,0.95867 V 467.17782 c 58.13771,0 87.52599,33.54098 88.16485,100.62295 z m -195.49596,0 h 11.49976 c -1.27775,-46.63788 6.38875,-75.70672 22.99951,-87.20651 -11.49976,-7.66651 -20.44402,-5.90959 -26.83277,5.27076 -6.38875,11.18027 -8.94425,38.49219 -7.6665,81.93575 z M 436.77711,239.09922 c 6.38875,-17.88851 3.19438,-34.97843 -9.58313,-51.26978 C 399.59607,152.64212 329.75653,106.97738 282.96781,86.248209 257.73221,75.0679 239.52424,73.79015 228.34389,82.414957 c -11.18031,8.624807 -3.67351,32.263213 22.52039,70.915213 26.19391,38.65197 49.35314,58.13767 69.47771,58.45712 20.1246,0.31937 32.90212,7.66645 38.33257,22.04123 5.43045,14.3747 25.71476,17.08992 60.85292,8.14567 12.13865,0 17.88852,-0.95832 17.24963,-2.87497 z m -252.0365,35.45761 c -9.84949,3.48946 -15.50254,3.18983 -17.24964,-2.87496 -5.111,-3.19436 -6.8679,-2.55547 -5.2707,1.91668 1.59719,4.47211 -1.43746,3.83321 -9.10396,-1.91668 -2.55554,-10.22201 -2.71526,-15.97189 -0.47917,-17.24964 2.23605,-1.27775 5.27071,-5.43043 9.10396,-12.45804 3.83325,-7.02765 23.95783,-7.82624 60.37374,-2.39579 36.41591,5.43045 61.17235,7.66652 74.2693,6.70821 13.09699,-0.95834 24.75648,-3.03469 34.97849,-6.22904 3.83325,-10.22201 -4.63185,-15.49273 -25.39531,-15.81218 -20.76345,-0.31945 -45.67961,-22.52038 -74.74847,-66.6028 C 202.15,113.56014 196.87927,82.894109 215.40668,65.644494 c 18.5274,-17.249652 56.54051,-9.26372 114.03932,23.957797 57.49882,33.221549 91.83838,59.096029 103.01869,77.623429 11.18035,18.52741 21.88152,37.05481 32.10353,55.58221 8.94425,-13.4164 13.41638,-36.41593 13.41638,-68.99859 0,-33.22155 -10.54145,-59.09603 -31.62436,-77.623431 C 425.27734,57.658506 410.26376,46.797626 401.3195,43.603268 377.04224,42.964374 355.32046,34.020101 336.15417,16.770449 332.32092,12.29834 332.00149,8.1456602 335.19588,4.3124086 c 3.19436,-3.83325187 7.34704,-5.11100249 12.45804,-3.83325187 19.80515,0.63885677 40.56863,9.26368287 62.29043,25.87447827 12.13861,5.749859 28.58965,17.409338 49.3531,34.978437 20.76349,17.569062 33.86045,42.325498 39.29086,74.269298 5.43045,31.94377 1.11805,69.63743 -12.93721,113.08098 -5.111,15.33301 -14.05527,23.95784 -26.83282,25.87448 H 337.11251 c 40.88802,0 76.9845,24.27728 108.28945,72.83184 31.30491,48.55457 46.95736,129.37234 46.95736,242.45332 l -52.7073,0.95812 C 439.01317,724.964 429.11061,834.21176 409.94435,918.54337 L 443.48527,1000 H 33.327102 L 28.535509,954.95949 98.492383,915.66868 C 82.520519,846.67007 61.597339,788.21292 35.722842,740.29721 9.8483828,692.38154 -1.9708196,661.55581 0.26523469,647.82 2.5013261,634.08415 14.0011,621.1469 34.764557,609.00825 c 20.763457,-12.13861 43.603265,-7.98591 68.519423,12.4581 l 133.20558,182.07963 c 4.47215,-107.33113 6.70822,-178.88522 6.70822,-214.66227 l -23.95785,0.95812 v -63.24855 c 0,-26.83276 3.99297,-45.67957 11.97892,-56.54043 7.98595,-10.8609 14.21498,-17.88855 18.68709,-21.08295 -22.36065,-51.74891 -39.92973,-77.62337 -52.70724,-77.62337 -3.19439,-1.27775 -9.90259,0.9583 -20.1246,6.70816 0,-33.22152 9.2637,-53.02666 27.79111,-59.41541 -0.63886,-5.74989 1.11804,-9.74287 5.2707,-11.97892 4.1527,-2.23609 7.5068,-1.75694 10.0623,1.43745 -1.27775,-3.19439 5.11103,-9.58315 19.16632,-19.16626 14.05525,-9.58315 31.00616,-14.10568 50.79061,-14.37472 z"
     id="path1"
     sodipodi:nodetypes="cccccssccccccccccccccccscscsssccsssccccscsccsccccssccccccccscccccccccsccssssssccccscsssscssssscssccsccsscccscccccccsssccccssccccscscc" />
</svg>
