<?xml version="1.0" encoding="UTF-8" standalone="no"?>
<svg
   width="800"
   height="1000"
   version="1.1"
   id="svg1"
   sodipodi:docname="C92B.svg"
   inkscape:version="1.4.2 (f4327f4, 2025-05-13)"
   xmlns:inkscape="http://www.inkscape.org/namespaces/inkscape"
   xmlns:sodipodi="http://sodipodi.sourceforge.net/DTD/sodipodi-0.dtd"
   xmlns="http://www.w3.org/2000/svg"
   xmlns:svg="http://www.w3.org/2000/svg">
  <defs
     id="defs1" />
  <sodipodi:namedview
     id="namedview1"
     pagecolor="#ffffff"
     bordercolor="#666666"
     borderopacity="1.0"
     inkscape:showpageshadow="2"
     inkscape:pageopacity="0.0"
     inkscape:pagecheckerboard="0"
     inkscape:deskcolor="#d1d1d1"
     showguides="true"
     inkscape:zoom="0.755"
     inkscape:cx="396.68874"
     inkscape:cy="505.29801"
     inkscape:window-width="1680"
     inkscape:window-height="998"
     inkscape:window-x="-8"
     inkscape:window-y="-8"
     inkscape:window-maximized="1"
     inkscape:current-layer="svg1" />
  <path
     id="path1"
     style="fill:#000000;stroke:none;stroke-width:55.6701"
     d="M 653.34375 0 C 637.93683 0 622.43974 2.3556635 606.85156 7.0683594 L 606.85156 17.945312 C 620.62716 21.570475 628.96512 27.550814 631.86523 35.888672 C 634.76539 44.22653 638.75271 52.384003 643.82812 60.359375 L 643.82812 199.56445 L 642.74023 199.56445 L 581.83789 99.509766 C 583.28903 91.534394 583.83246 83.741717 583.46875 76.128906 C 583.10622 68.516058 587.99991 61.447151 598.15039 54.921875 L 593.80078 46.220703 C 566.97459 46.945749 542.68652 56.009393 520.93555 73.410156 L 525.28516 82.109375 C 536.88569 81.384364 545.04312 83.741945 549.75586 89.179688 C 554.46852 94.617431 560.08602 99.511159 566.61133 103.86133 L 625.33984 198.47656 L 605.76367 198.47656 L 605.76367 229.60352 C 583.96646 237.03514 572.36692 261.46267 570.96289 302.88281 C 559.36239 315.20832 552.47393 324.27004 550.29883 330.07031 C 552.47393 336.59558 556.09864 339.49653 561.17383 338.77148 C 561.89887 340.94658 561.71839 342.93936 560.63086 344.75195 C 559.54329 346.56453 560.44946 348.55926 563.34961 350.73438 C 561.17451 354.35954 562.26112 356.89761 566.61133 358.34766 C 562.98613 364.87294 563.71185 369.94711 568.78711 373.57227 L 569.875 377.92188 L 537.24805 445.35156 C 523.47245 446.0766 517.67254 450.60746 519.84766 458.94531 C 522.02272 467.2832 528.91118 469.27602 540.51172 464.92578 C 562.26265 430.12429 577.85 402.57432 587.27539 382.27344 C 598.87592 384.44855 609.38902 384.81142 618.81445 383.36133 C 620.2645 389.8866 622.43972 394.5979 625.33984 397.49805 C 597.06358 397.49805 580.38772 406.56172 575.3125 424.6875 L 568.78711 448.61328 C 544.86104 468.18915 529.27372 484.1393 522.02344 496.46484 C 511.14795 513.14057 505.70898 525.10514 505.70898 532.35547 C 498.45865 538.1557 494.83398 542.50418 494.83398 545.4043 C 494.83398 548.30448 496.28348 550.11875 499.18359 550.84375 C 502.08374 552.29381 507.15984 550.11863 514.41016 544.31836 C 521.66045 547.94356 527.0975 550.47963 530.72266 551.92969 C 505.34656 559.90503 460.03214 578.03241 394.7793 606.30859 C 377.23179 602.79902 364.10065 602.00694 355.38672 603.93359 C 352.46236 593.1373 348.73715 577.79677 344.20898 557.91211 C 335.87109 521.29801 325.17751 488.85242 312.12695 460.57617 C 298.35134 428.6748 279.13742 411.27511 254.48633 408.375 L 246.87305 389.88672 L 277.32422 375.74805 C 281.67443 374.29799 282.40016 370.67331 279.5 364.87305 C 276.59989 359.07282 273.3361 356.89761 269.71094 358.34766 L 181.62109 397.49805 C 177.27092 399.67315 176.5452 403.66071 179.44531 409.46094 C 182.34543 415.98621 185.97009 418.16139 190.32031 415.98633 L 220.77148 401.84961 L 229.47266 420.33789 C 215.69709 442.08883 214.2476 465.65124 225.12305 491.02734 C 209.17238 488.12723 192.49646 493.56617 175.0957 507.3418 L 163.13281 531.26758 L 132.68164 525.83008 L 128.33008 557.36719 L 95.705078 557.36719 L 98.966797 589.99414 L 66.339844 594.3457 L 72.865234 624.79688 L 41.326172 631.32227 L 51.115234 661.77344 L 20.664062 674.82422 L 35.888672 703.09961 L 9.7871094 721.58789 L 28.275391 744.42578 L 1.0878906 762.91406 L 21.75 787.92773 L 0 809.67969 L 25.013672 831.42969 L 1.0878906 854.26953 L 26.101562 874.93164 L 3.2617188 896.68359 L 27.189453 918.43359 L 5.4375 939.09766 L 30.451172 960.84766 L 7.6132812 983.6875 L 25.845703 1000 L 52.806641 1000 L 31.539062 982.59961 L 54.376953 959.76172 L 29.363281 938.00977 L 53.289062 917.3457 L 26.101562 895.5957 L 48.939453 873.84375 L 25.013672 852.09375 L 47.851562 830.34375 L 22.837891 808.5918 L 43.501953 789.01562 L 25.013672 766.17773 L 48.939453 750.95117 L 33.714844 724.85156 L 56.552734 709.625 L 43.501953 682.43555 L 69.603516 672.64844 L 61.990234 643.28516 L 90.265625 637.84766 L 87.003906 607.39453 L 115.2793 603.04492 L 114.19336 573.68164 L 141.38086 574.76953 L 145.73047 545.4043 L 174.00781 550.84375 L 182.70898 519.30469 C 200.10974 511.32939 212.07239 509.69746 218.59766 514.41016 C 225.12293 519.12286 231.28567 520.02907 237.08594 517.12891 C 247.96139 535.97974 263.18585 559.18119 282.76172 586.73242 L 311.03906 625.88281 C 301.61367 632.40801 297.26327 637.48414 297.98828 641.10938 C 301.61344 649.08482 309.95136 650.17132 323.00195 644.37109 C 309.95136 651.62138 306.68762 661.95408 313.21289 675.36719 C 319.7382 688.78027 326.98951 695.48633 334.96484 695.48633 L 345.83984 693.3125 C 350.91506 707.81315 353.09027 724.12618 352.36523 742.25195 L 338.22656 748.77734 C 334.6014 750.2274 334.24052 753.85211 337.14062 759.65234 C 338.85426 764.79327 341.24294 767.23403 344.30664 766.97461 C 340.33033 768.20121 336.12736 769.38509 331.70117 770.52734 C 330.97616 780.67774 335.68939 791.55377 345.83984 803.1543 C 381.36638 798.80409 405.65449 789.74063 418.70508 775.96484 L 428.49414 766.17773 C 436.46947 756.02733 446.25689 739.35142 457.85742 716.15039 L 456.76953 715.0625 C 489.39596 703.46198 517.67352 691.86221 541.59961 680.26172 C 540.14959 690.41216 539.24151 703.28095 538.87891 718.86914 C 538.51643 734.45732 543.77299 753.12597 554.64844 774.87695 C 510.42152 795.17782 463.65764 825.63066 414.35547 866.23242 L 427.40625 877.10742 C 396.22988 907.55876 380.2797 927.85937 379.55469 938.00977 C 379.55469 947.4352 383.17936 959.39783 390.42969 973.89844 C 397.67998 988.39912 407.83027 996.01327 420.88086 996.73828 C 442.63184 998.18838 485.40796 987.31236 549.21094 964.11133 C 649.99036 915.53416 704.00554 890.52033 711.25586 889.07031 C 714.8811 897.04561 716.33261 915.53386 715.60742 944.53516 C 715.60742 953.9607 709.08184 960.1234 696.03125 963.02344 C 677.18042 963.02344 667.75391 969.54905 667.75391 982.59961 L 667.75391 1000 L 756.93359 1000 C 762.00888 1000 765.99644 990.57543 768.89648 971.72461 L 763.45898 933.66016 C 763.45898 909.00907 768.89603 878.19534 779.77148 841.21875 C 779.77148 832.51836 776.50965 823.81757 769.98438 815.11719 C 790.28518 764.36496 791.73474 716.14964 774.33398 670.47266 C 756.93304 624.79565 747.86935 579.11839 747.14453 533.44141 L 776.50977 533.44141 C 777.95986 452.96287 771.79708 377.56048 758.02148 307.23242 C 750.2745 267.682 731.05771 242.12285 700.38086 230.54688 L 700.38086 199.56445 L 680.80469 199.56445 L 739.5332 104.94922 C 746.05847 99.874004 751.67597 94.61743 756.38867 89.179688 C 761.1014 83.741944 769.25881 81.384364 780.85938 82.109375 L 785.20898 73.410156 C 764.18302 56.009393 739.89492 46.58287 712.34375 45.132812 L 707.99414 54.921875 C 718.14581 61.447151 723.03949 68.516058 722.67578 76.128906 C 722.31318 83.741717 722.85662 91.534394 724.30664 99.509766 L 664.49219 199.56445 L 662.31641 199.56445 L 662.31641 60.359375 C 667.39173 52.384003 671.37926 44.22653 674.2793 35.888672 C 677.17942 27.550814 685.51741 21.570474 699.29297 17.945312 L 699.29297 7.0683594 C 684.06731 2.3556635 668.75067 0 653.34375 0 z M 653.61523 7.0683594 C 666.30329 7.0683594 678.99164 8.8806973 691.67969 12.505859 L 691.67969 14.681641 C 677.90416 18.306803 670.11146 23.926215 668.29883 31.539062 C 666.48622 39.151874 662.3163 47.307431 655.79102 56.007812 L 650.35352 56.007812 C 644.55336 47.307431 640.56583 39.151874 638.39062 31.539062 C 636.21551 23.926215 628.60333 18.306803 615.55273 14.681641 L 615.55273 12.505859 C 628.2408 8.8806973 640.92718 7.0683594 653.61523 7.0683594 z M 589.45117 51.658203 L 589.45117 53.833984 C 580.75102 61.084308 576.76346 68.153215 577.48828 75.041016 C 578.21348 81.928816 577.48771 89.723447 575.3125 98.423828 L 570.96289 100.59766 C 562.98752 95.52244 557.18763 90.085386 553.5625 84.285156 C 549.93734 78.484889 541.96031 76.309708 529.63477 77.759766 L 528.54883 75.583984 C 546.67464 61.808382 566.97527 53.833308 589.45117 51.658203 z M 716.69336 51.658203 C 739.16934 53.833308 759.10904 61.808382 776.50977 75.583984 L 776.50977 77.759766 C 764.18426 77.034718 756.02675 79.390381 752.03906 84.828125 C 748.05138 90.265868 742.43193 95.52244 735.18164 100.59766 L 730.83203 99.509766 C 728.65682 90.084337 727.93106 81.928816 728.65625 75.041016 C 729.38126 68.153215 725.0309 61.084308 715.60547 53.833984 L 716.69336 51.658203 z M 617.72656 210.44141 L 688.41797 210.44141 L 688.41797 224.57812 L 675.74023 224.57812 C 663.49282 222.98561 649.94012 222.98561 635.08203 224.57812 L 617.72656 224.57812 L 617.72656 210.44141 z M 664.33008 236.9668 C 696.88288 238.63209 720.13688 253.8964 734.09375 282.76172 C 750.04447 315.75067 759.10813 394.23639 761.2832 518.2168 L 736.26953 518.2168 C 729.74425 446.43868 706.54276 384.44838 666.66602 332.24609 C 678.99156 324.99576 685.1543 314.11979 685.1543 299.61914 C 685.1543 284.39353 678.62873 276.78125 665.57812 276.78125 C 656.1527 276.78125 650.71564 279.31935 649.26562 284.39453 L 647.08984 284.39453 C 634.03924 270.61896 614.8273 263.73047 589.45117 263.73047 C 589.45117 248.50478 609.57128 239.62353 649.81055 237.08594 C 654.84046 236.76873 659.67968 236.7289 664.33008 236.9668 z M 587.27539 274.60547 C 611.92652 274.60547 628.23962 279.68156 636.21484 289.83203 L 628.60156 289.83203 C 612.65086 282.5817 601.41395 278.95508 594.88867 278.95508 C 588.36317 278.95508 584.73849 279.31796 584.01367 280.04297 L 587.27539 274.60547 z M 592.06836 285.71875 C 593.49577 285.65078 594.97884 285.7535 596.51953 286.02539 C 602.68232 287.11292 611.56356 290.1943 623.16406 295.26953 L 638.39062 295.26953 L 638.39062 292.00586 L 653.61523 307.23242 C 654.34028 294.18182 658.32784 287.2934 665.57812 286.56836 C 669.92834 287.2934 672.82921 290.1943 674.2793 295.26953 C 675.72936 300.34479 674.0975 306.68797 669.38477 314.30078 C 664.67207 321.91359 657.24028 325.7207 647.08984 325.7207 L 653.61523 335.50781 C 648.54005 355.80868 636.75981 367.04756 618.27148 369.22266 C 599.78318 371.39777 585.46298 370.67208 575.3125 367.04688 C 572.41239 364.14675 572.77524 360.1592 576.40039 355.08398 C 579.30051 352.90887 585.10074 350.73366 593.80078 348.55859 L 593.80078 347.4707 C 582.20032 344.57058 574.58618 343.84681 570.96094 345.29688 L 572.04883 337.68359 C 574.22256 336.95855 575.49175 335.50905 575.85547 333.33398 C 576.21807 331.15888 574.94888 329.70746 572.04883 328.98242 C 571.32379 332.60758 568.78767 334.05899 564.4375 333.33398 C 560.08744 332.60894 558.63592 330.79662 560.08594 327.89648 L 577.48828 307.23242 C 584.01356 311.58267 589.63102 313.57549 594.34375 313.21289 C 599.05645 312.85036 607.21392 310.13182 618.81445 305.05664 L 638.39062 305.05664 L 638.39062 298.53125 L 618.81445 298.53125 C 608.66396 292.73102 600.32602 289.83203 593.80078 289.83203 C 588.7256 289.83203 584.37523 292.36818 580.75 297.44336 L 580.75 290.91992 C 584.01263 287.65726 587.78614 285.92266 592.06836 285.71875 z M 598.71875 296.86133 C 602.75959 297.77853 606.55695 299.42403 610.11328 301.79492 C 596.33779 306.1451 588.36271 306.1451 586.1875 301.79492 C 587.81386 299.76194 589.55379 298.29914 591.4082 297.40625 C 590.41767 299.06643 590.26874 301.5266 591.625 302.88281 C 593.8001 305.05781 596.16899 304.93408 599.43164 302.39648 C 601.54317 300.75425 600.37286 298.35178 598.71875 296.86133 z M 660.14062 347.4707 C 676.81634 369.22164 689.5047 390.97364 698.20508 412.72461 C 690.95475 425.77528 680.8045 432.11846 667.75391 431.75586 C 654.70339 431.39334 642.01503 413.44846 629.68945 377.92188 C 647.81514 365.59637 657.96539 355.44607 660.14062 347.4707 z M 235.99805 395.32422 L 247.96094 422.51172 C 269.71187 423.23676 287.11351 437.73745 300.16406 466.01367 C 312.48961 495.01497 322.63986 527.64099 330.61523 563.89258 C 338.59057 600.14415 343.30189 620.80758 344.75195 625.88281 L 333.87695 633.49609 C 330.25179 626.97078 317.38299 608.84541 295.26953 579.11914 C 273.15607 549.39282 255.57404 520.39148 242.52344 492.11523 C 229.47289 463.11397 230.19663 440.27532 244.69727 423.59961 L 231.64844 396.41016 L 235.99805 395.32422 z M 612.01758 414.08398 C 615.09897 413.90273 617.72721 414.53625 619.90234 415.98633 L 586.1875 435.5625 C 588.36257 426.86212 593.43869 420.69938 601.41406 417.07422 C 605.40173 415.26164 608.93618 414.26524 612.01758 414.08398 z M 632.95312 421.42383 C 646.72872 437.37451 659.41708 445.35156 671.01758 445.35156 C 655.06691 456.22704 639.11477 473.62666 623.16406 497.55273 C 616.63874 504.07801 603.40709 514.41073 583.46875 528.54883 C 563.53039 542.68699 546.67407 545.9488 532.89844 538.33594 C 519.12287 530.7231 520.57234 516.22244 537.24805 494.83398 C 553.92377 473.44553 585.82605 448.975 632.95312 421.42383 z M 705.81836 441 C 718.14382 470.00126 716.33157 484.50195 700.38086 484.50195 C 652.52878 546.12966 618.45126 592.53265 598.15039 623.70898 C 595.97527 628.05919 584.37553 637.48374 563.34961 651.98438 C 542.32368 666.48499 505.71007 682.79801 453.50781 700.92383 C 447.70755 707.4491 441.72529 717.7818 435.5625 731.91992 C 429.39975 746.05804 420.69895 758.56397 409.46094 769.43945 C 398.22297 780.31491 378.46569 787.92913 350.18945 792.2793 L 342.57812 775.96484 C 361.42894 771.61466 376.11008 765.45193 386.62305 757.47656 C 397.13601 749.50123 404.5678 742.61468 408.91797 736.81445 L 435.01953 727.02539 C 438.64469 724.85028 439.00754 720.86273 436.10742 715.0625 C 433.93232 709.26228 430.66853 707.08709 426.31836 708.53711 C 401.66727 717.96254 387.16662 726.48094 382.81641 734.09375 C 378.46623 741.70661 373.7549 745.51367 368.67969 745.51367 L 374.11719 732.46289 C 377.74235 724.48756 386.6236 716.51249 400.76172 708.53711 C 414.89981 700.56178 430.3067 693.67332 446.98242 687.87305 C 502.80986 647.27125 539.24298 622.62027 556.28125 613.91992 C 573.3195 605.21943 581.83789 599.41958 581.83789 596.51953 C 597.06354 568.96833 615.18892 538.69792 636.21484 505.70898 C 657.24073 472.72003 680.44222 451.15045 705.81836 441 z M 715.77734 500.61133 C 717.20475 500.56602 718.41519 500.99801 719.41211 501.9043 C 723.39975 505.52945 727.93256 527.82284 733.00781 568.78711 C 738.08303 609.75139 746.42098 647.63402 758.02148 682.43555 L 701.46875 697.66211 L 700.38086 676.99805 L 692.76758 671.56055 C 693.49241 696.93665 693.12971 718.3258 691.67969 735.72656 C 676.45403 767.62811 650.53399 783.21542 613.91992 782.49023 C 577.30578 781.76523 557.73096 766.90168 555.19336 737.90039 C 552.65581 708.89916 552.83618 686.42336 555.73633 670.47266 C 588.36279 650.17179 605.40154 637.48343 606.85156 632.4082 L 697.11914 513.86719 C 705.27575 505.16682 711.49511 500.74727 715.77734 500.61133 z M 607.93945 522.56641 C 595.61387 540.69222 582.56268 563.53087 568.78711 591.08203 C 549.21125 583.83174 544.13707 571.14339 553.5625 553.01758 C 573.86338 548.66737 591.98874 538.51708 607.93945 522.56641 z M 538.33594 562.80664 C 535.4358 573.68212 537.97385 583.1067 545.94922 591.08203 C 537.2488 593.98215 516.40297 599.78201 483.41406 608.48242 C 450.42511 617.18276 423.78135 624.79696 403.48047 631.32227 C 399.85531 639.29761 393.32972 647.99649 383.9043 657.42188 C 381.72918 634.22103 374.11697 622.2584 361.06641 621.5332 C 360.30766 620.01573 359.3614 617.44298 358.23047 613.81641 C 366.92855 611.79274 379.83744 613.27884 396.95508 618.27148 C 470.18326 586.37006 517.30998 567.88185 538.33594 562.80664 z M 553.5625 603.04492 C 517.31089 620.44568 477.79639 646.54613 435.01953 681.34766 C 424.14409 683.52277 412.54235 688.96173 400.2168 697.66211 C 392.24143 691.13683 385.71781 683.5246 380.64258 674.82422 C 392.24311 667.5739 402.03052 656.33502 410.00586 641.10938 C 460.75809 628.05877 508.61054 615.37046 553.5625 603.04492 z M 316.47656 633.49609 L 317.56445 636.75977 C 313.93929 639.65981 310.67554 640.02093 307.77539 637.8457 L 316.47656 633.49609 z M 358.27539 635.42188 C 368.11111 635.40701 373.0293 644.91519 373.0293 663.94727 C 367.22907 671.9226 354.90356 679.53674 336.05273 686.78711 C 315.0268 673.01151 315.93301 658.51086 338.77148 643.28516 C 346.62222 638.05134 353.12334 635.42966 358.27539 635.42188 z M 367.5918 682.43555 C 372.66705 694.03605 378.46691 703.09973 384.99219 709.625 C 377.74186 715.4253 372.30289 721.95089 368.67773 729.20117 C 369.40273 714.70052 366.86664 700.92361 361.06641 687.87305 L 367.5918 682.43555 z M 761.2832 690.04883 L 762.37109 693.3125 L 702.55469 709.625 L 702.55469 706.36133 L 761.2832 690.04883 z M 764.54492 700.92383 L 766.7207 727.02539 L 703.64258 732.46289 L 702.55469 718.32617 L 764.54492 700.92383 z M 595.97656 735.72656 C 590.17618 735.72656 585.82582 739.35119 582.92578 746.60156 C 586.55094 751.67682 595.97551 753.48908 611.20117 752.03906 C 608.30106 742.6136 603.22685 737.17657 595.97656 735.72656 z M 766.7207 737.90039 C 767.44571 774.87702 759.10779 800.61654 741.70703 815.11719 C 707.63054 825.26763 648.17832 837.95594 563.34961 853.18164 C 524.92292 860.43192 486.85789 881.45824 449.15625 916.25977 L 454.5957 924.95898 L 456.76953 924.95898 C 491.57106 893.05761 532.1722 872.0313 578.57422 861.88086 C 669.92821 848.10526 727.5681 836.14263 751.49414 825.99219 C 759.46951 828.1673 763.45898 832.51769 763.45898 839.04297 C 751.85845 877.46962 746.05664 907.55766 746.05664 929.30859 C 754.0322 958.30989 753.67108 977.5238 744.9707 986.94922 L 681.89258 986.94922 L 681.89258 980.42383 C 681.89258 976.79859 688.05531 974.98633 700.38086 974.98633 C 719.95673 974.98633 729.74414 964.11032 729.74414 942.35938 C 729.74414 899.58245 724.66998 878.19531 714.51953 878.19531 L 699.29297 879.2832 C 547.03631 949.61122 455.68178 984.77344 425.23047 984.77344 C 405.6546 973.17298 395.86719 957.22279 395.86719 936.92188 C 395.86719 930.39659 419.43152 906.47133 466.55859 865.14453 C 506.43533 832.51807 544.49841 808.59089 580.75 793.36523 L 623.16406 799.89062 C 661.59074 799.89062 688.77976 781.03953 704.73047 743.33789 L 766.7207 737.90039 z M 381.72852 749.86328 C 373.50778 755.8918 361.97401 761.30018 347.125 766.08594 L 381.72852 749.86328 z M 567.69922 786.83984 L 570.96289 790.10352 C 531.08615 807.50429 490.12216 833.96757 448.07031 869.49414 L 442.63281 866.23242 C 482.50951 830.70588 524.19757 804.24064 567.69922 786.83984 z " />
</svg>
