<?xml version="1.0" encoding="UTF-8" standalone="no"?>
<svg
   width="1100"
   height="1000"
   version="1.1"
   id="svg1"
   sodipodi:docname="D104.svg"
   inkscape:version="1.4.2 (f4327f4, 2025-05-13)"
   xmlns:inkscape="http://www.inkscape.org/namespaces/inkscape"
   xmlns:sodipodi="http://sodipodi.sourceforge.net/DTD/sodipodi-0.dtd"
   xmlns="http://www.w3.org/2000/svg"
   xmlns:svg="http://www.w3.org/2000/svg">
  <defs
     id="defs1" />
  <sodipodi:namedview
     id="namedview1"
     pagecolor="#ffffff"
     bordercolor="#666666"
     borderopacity="1.0"
     inkscape:showpageshadow="2"
     inkscape:pageopacity="0.0"
     inkscape:pagecheckerboard="0"
     inkscape:deskcolor="#d1d1d1"
     inkscape:zoom="1.51"
     inkscape:cx="693.04636"
     inkscape:cy="189.7351"
     inkscape:window-width="1680"
     inkscape:window-height="998"
     inkscape:window-x="-8"
     inkscape:window-y="-8"
     inkscape:window-maximized="1"
     inkscape:current-layer="svg1" />
  <path
     id="path1"
     style="fill:#000000;stroke:none;stroke-width:55.6185"
     d="M 888.17969,0.11328125 C 856.55561,1.3558017 829.84128,12.719595 808.03711,34.203125 c -34.88679,34.373684 -50.79119,58.742347 -47.71289,73.107425 -37.96497,54.38222 -48.73764,87.72999 -32.32031,100.04297 14.36507,0 21.80338,7.18176 22.3164,21.54687 0.51306,14.36511 2.82147,28.7306 6.92578,43.0957 4.10432,14.36512 12.827,20.52288 26.16602,18.47071 13.33906,-2.05214 29.75644,-1.53917 49.25195,1.53906 v 21.54687 c -86.1907,0 -136.98188,30.78291 -152.37304,92.34766 -19.49552,53.35613 -33.86096,111.84205 -43.09571,175.45899 -17.44333,-14.36512 -94.91162,-47.19996 -232.40625,-98.50391 -10.2608,-1.02609 -21.03541,-5.38644 -32.32226,-13.08203 -7.06249,-4.81533 -22.96397,-7.92369 -47.70313,-9.32422 L 293.97266,221.20508 C 271.39892,114.49281 198.54553,48.825129 75.416016,24.199219 44.633618,37.538243 43.094693,51.388795 70.798828,65.753906 159.04167,111.9275 197.52126,160.66674 186.23438,211.9707 l -24.62696,189.3125 c -11.49355,88.35327 -21.03366,172.89282 -26.16406,253.95313 0,133.69412 22.76065,230.86914 103.11914,230.86914 68.48242,0 95.1702,-65.96215 101.59961,-175.17969 133.01379,4.65287 243.31297,-0.57159 330.89453,-15.67187 40.01711,-69.77338 72.33698,-151.34551 96.96289,-244.71875 3.07823,-25.652 22.06251,-38.47852 56.94922,-38.47852 h 138.51953 c 45.14752,0 67.72072,-16.41742 67.72072,-49.25195 0,-31.80845 -14.62,-47.45638 -43.8633,-46.94336 -29.2432,0.51306 -43.86523,-17.18681 -43.86523,-53.09961 C 1013.2538,241.21407 1046.8581,197.86308 1044.293,132.70703 1041.7278,67.550988 1010.4319,26.250014 950.40625,8.8066406 927.89663,2.2653896 907.15414,-0.63223103 888.17969,0.11328125 Z m 8.45312,26.29687475 c 12.76187,0.320653 26.32629,2.662594 40.69141,7.023438 57.46053,17.443336 84.65058,50.534643 81.57228,99.273436 -3.0783,48.73876 -25.65146,81.82815 -67.72072,99.27149 -16.41725,8.20866 -24.62695,3.59181 -24.62695,-13.85157 20.52156,-25.652 30.7832,-44.63433 30.7832,-56.94726 0,-23.59983 -7.43827,-36.68285 -22.31641,-39.24805 -14.8781,-2.5652 -26.42215,0.77115 -34.63085,10.00586 -7.18254,-16.41729 -39.5044,-34.373667 -96.96485,-53.869141 23.85634,-35.399762 54.92729,-52.62016 93.21289,-51.658203 z m -93.98242,82.439454 c 20.77813,0.76954 50.79153,17.69995 90.03906,50.79101 9.23476,-1.02608 18.46849,-4.10401 27.70313,-9.23437 9.23475,-5.1304 13.85351,-2.30898 13.85351,8.46484 0,10.77382 -12.3135,28.98668 -36.93945,54.63868 2.05217,27.70413 8.72093,50.27736 20.00781,67.7207 5.13044,19.49555 -0.25589,31.29608 -16.16015,35.40039 -15.90422,4.10431 -27.44832,4.7e-4 -34.63086,-12.3125 -8.20866,-36.93885 -32.8338,-50.79135 -73.87696,-41.55664 -10.26094,3.07827 -15.9037,-6.15544 -16.92968,-27.70313 -1.02605,-28.73022 -8.72278,-43.0957 -23.08789,-43.0957 -15.3912,-1.02609 -4.61658,-27.19213 32.32226,-78.49609 4.87389,-3.33477 10.77318,-4.87371 17.69922,-4.61719 z m 1.1543,16.54492 c -12.56948,-0.25652 -20.90544,6.54246 -25.00977,20.39453 7.18254,19.49551 32.32064,20.00848 75.41602,1.53906 -21.03463,-14.36511 -37.83678,-21.67707 -50.40625,-21.93359 z m -565.24219,65.0293 c 10.2608,0 15.72214,5.14982 16.93164,15.39062 l 30.53711,253.78125 c -4.85383,0.02 -9.90288,0.0785 -15.14648,0.17383 l -43.09571,-1.53906 c -2.05214,5.1304 -2.56515,11.02971 -1.53906,17.69922 1.02605,6.66951 12.31364,12.56882 33.86133,17.69922 -1.0261,21.54764 3.59076,41.0449 13.85156,58.48828 5.24686,8.91964 12.64006,14.75314 22.17969,17.50195 1.50904,22.47407 2.64743,44.68819 3.41406,66.64258 -15.60838,-4.44254 -33.88664,-6.32611 -54.83594,-5.65039 h -65.68554 c 2.03883,-73.53929 12.25816,-149.56328 21.05078,-229.32813 l 21.54687,-195.46875 c 1.14652,-10.40101 7.69498,-15.39062 16.92969,-15.39062 z m 163.14844,358.61328 c 76.95595,38.99098 130.82506,65.67 161.60742,80.03516 -41.04315,0 -86.70451,5.38637 -136.98242,16.16015 -36.30047,7.77869 -64.5778,9.94196 -84.83203,6.48828 -1.4224,-27.33818 -3.31038,-55.08328 -5.66407,-83.23632 17.51513,-2.04026 39.47269,-8.52382 65.8711,-19.44727 z M 178.44727,661.37109 c 4.57319,3.09268 10.76019,4.64063 18.56054,4.64063 -1.02609,20.52159 3.59077,39.76043 13.85157,57.7168 10.2608,17.95639 28.73015,23.85566 55.4082,17.69921 9.64939,-0.50786 20.05333,-3.40363 31.21094,-8.6875 -10.06889,100.26686 -41.98568,107.19141 -58.91602,107.19141 -53.26551,0 -60.92848,-107.11205 -60.11523,-178.56055 z M 0,784.52344 C 0,915.15263 109.41664,1000 238.5625,1000 422.84449,1000 477.12695,848.95695 477.12695,784.52344 H 415.5625 c 0,69.2028 -57.96071,154.19153 -175.45898,155.45117 C 142.73623,941.01843 60.025391,878.73456 60.025391,784.52344 Z"
     sodipodi:nodetypes="ssccssscccccscccccscscccsssscssssssccssccsscssccscccccssccssccccscsccccsssccscccccsccsccsccscc" />
</svg>
