<?xml version="1.0" encoding="UTF-8" standalone="no"?>
<svg
   width="1500"
   height="1000"
   version="1.1"
   id="svg1"
   sodipodi:docname="D392.svg"
   inkscape:version="1.4.2 (f4327f4, 2025-05-13)"
   xmlns:inkscape="http://www.inkscape.org/namespaces/inkscape"
   xmlns:sodipodi="http://sodipodi.sourceforge.net/DTD/sodipodi-0.dtd"
   xmlns="http://www.w3.org/2000/svg"
   xmlns:svg="http://www.w3.org/2000/svg">
  <defs
     id="defs1" />
  <sodipodi:namedview
     id="namedview1"
     pagecolor="#ffffff"
     bordercolor="#666666"
     borderopacity="1.0"
     inkscape:showpageshadow="2"
     inkscape:pageopacity="0.0"
     inkscape:pagecheckerboard="0"
     inkscape:deskcolor="#d1d1d1"
     inkscape:zoom="0.755"
     inkscape:cx="741.0596"
     inkscape:cy="290.72848"
     inkscape:window-width="1680"
     inkscape:window-height="998"
     inkscape:window-x="-8"
     inkscape:window-y="-8"
     inkscape:window-maximized="1"
     inkscape:current-layer="svg1"
     showguides="true">
    <sodipodi:guide
       position="726.74845,0"
       orientation="1,0"
       id="guide1"
       inkscape:locked="false" />
    <sodipodi:guide
       position="698.79688,357.38482"
       orientation="0,-1"
       id="guide2"
       inkscape:locked="false" />
  </sodipodi:namedview>
  <path
     id="path1"
     style="fill:#000000;stroke:none;stroke-width:62.1891"
     d="M 726.74805 0.03125 C 653.68672 0.03125 468.61821 11.38159 301.48047 135.48828 L 0 145.4707 L 0 167.43359 C 4.428607 336.75846 114.40473 442.62873 265.54297 480.89453 C 322.19664 727.03246 458.96838 957.47239 726.74805 1000 C 994.52772 957.47239 1131.2995 727.03246 1187.9531 480.89453 C 1339.0914 442.62873 1449.0675 336.75846 1453.4961 167.43359 L 1453.4961 145.4707 L 1152.0156 135.48828 C 984.87792 11.38159 799.80938 0.03125 726.74805 0.03125 z M 726.74805 105.53906 C 913.98586 105.53906 1025.7882 194.8435 1161.998 213.35547 C 1198.3879 206.50118 1228.1817 202.08059 1265.8184 199.37891 C 1204.034 228.30223 1174.8504 257.42737 1148.0215 333.14844 C 1145.5887 340.01455 1152.66 348.29384 1160.002 351.11719 C 1193.312 363.9265 1232.2603 370.94336 1261.5703 370.94336 C 1277.1739 370.94336 1290.0195 369.02042 1297.7637 365.09375 C 1259.5045 400.63765 1222.8586 413.34234 1154.0117 424.99023 L 1148.0215 424.99023 C 1082.2455 645.98544 993.5677 905.80025 726.74805 932.83594 C 459.9284 905.80025 371.25061 645.98544 305.47461 424.99023 L 299.48438 424.99023 C 230.63754 413.34234 193.99162 400.63765 155.73242 365.09375 C 163.47658 369.02042 176.32217 370.94336 191.92578 370.94336 C 221.23579 370.94336 260.1841 363.9265 293.49414 351.11719 C 300.83614 348.29384 307.90736 340.01455 305.47461 333.14844 C 278.64567 257.42737 249.46212 228.30223 187.67773 199.37891 C 225.31436 202.08059 255.10812 206.50118 291.49805 213.35547 C 427.70779 194.8435 539.51024 105.53906 726.74805 105.53906 z M 71.876953 197.38281 L 137.76367 197.38281 C 136.87623 206.76043 236.69513 227.25209 291.49805 319.17188 C 250.89314 281.32249 133.00562 209.82293 71.876953 197.38281 z M 1315.7324 197.38281 L 1381.6191 197.38281 C 1320.4905 209.82293 1202.6029 281.32249 1161.998 319.17188 C 1216.8009 227.25209 1316.6199 206.76043 1315.7324 197.38281 z M 655.72852 213.34375 C 655.44245 213.34375 655.15787 213.34777 654.87305 213.35547 C 647.49799 213.55137 635.10542 215.37546 624.92383 217.34766 C 504.02472 230.23995 419.04998 277.24414 325.43945 277.24414 C 322.99617 278.55701 325.17017 307.57498 325.43945 325.16211 C 428.71327 323.66167 527.89684 281.67375 624.92383 255.2832 C 629.92383 254.66193 634.44703 254.35938 638.60742 254.35938 C 653.55126 254.35938 663.82819 258.25761 674.83789 265.26562 C 691.12925 313.11039 689.48722 350.64729 684.82031 401.03125 C 672.16521 498.68038 651.04314 510.62677 608.95117 568.74219 C 593.76796 593.75021 614.88744 625.23952 630.91406 630.63672 C 640.25609 636.65351 660.8669 642.09174 678.83008 644.61133 C 682.0664 657.25972 681.45045 676.00131 674.83789 686.53906 C 672.50891 688.68894 671.17664 690.37943 668.84766 692.5293 C 657.82932 696.8589 646.31409 698.74609 634.37305 698.74609 C 623.56851 698.74609 612.41589 697.20076 600.96484 694.52539 C 599.7616 694.24554 598.61862 694.11523 597.53125 694.11523 C 583.44139 694.11523 578.82452 716.18082 577.00586 720.48438 C 574.17327 737.24532 580.07341 754.73464 586.98828 760.41406 C 593.36054 764.23309 599.66421 765.14258 604.53125 765.14258 C 608.61608 765.14258 611.68857 764.50272 612.94336 764.4082 C 643.59921 795.48778 687.48997 816.31836 726.74805 816.31836 C 766.00613 816.31836 809.89688 795.48778 840.55273 764.4082 C 841.80752 764.50272 844.88001 765.14258 848.96484 765.14258 C 853.83188 765.14258 860.13555 764.23309 866.50781 760.41406 C 873.42268 754.73464 879.32282 737.24532 876.49023 720.48438 C 874.67157 716.18082 870.0547 694.11523 855.96484 694.11523 C 854.87747 694.11523 853.73449 694.24554 852.53125 694.52539 C 841.0802 697.20076 829.92759 698.74609 819.12305 698.74609 C 807.18201 698.74609 795.66678 696.8589 784.64844 692.5293 C 782.31946 690.37943 780.98718 688.68894 778.6582 686.53906 C 772.04564 676.00131 771.4297 657.25972 774.66602 644.61133 C 792.6292 642.09174 813.24 636.65351 822.58203 630.63672 C 838.60865 625.23952 859.72813 593.75021 844.54492 568.74219 C 802.45295 510.62677 781.33088 498.68038 768.67578 401.03125 C 764.00887 350.64729 762.36684 313.11039 778.6582 265.26562 C 789.6679 258.25761 799.94483 254.35938 814.88867 254.35938 C 819.04906 254.35938 823.57227 254.66193 828.57227 255.2832 C 925.59926 281.67375 1024.7828 323.66167 1128.0566 325.16211 C 1128.3259 307.57498 1130.4999 278.55701 1128.0566 277.24414 C 1034.4461 277.24414 949.47138 230.23995 828.57227 217.34766 C 818.39068 215.37546 805.99811 213.55137 798.62305 213.35547 C 798.33823 213.34777 798.05365 213.34375 797.76758 213.34375 C 776.18536 213.34375 764.25312 235.2 752.70312 251.28906 C 731.55119 295.5426 738.81554 351.76048 742.7207 401.03125 C 747.05975 455.77714 754.81689 478.72253 774.66602 524.81836 C 787.77964 546.27651 819.75034 571.81769 814.59375 588.70898 C 813.80333 590.29617 812.72162 590.93164 811.43555 590.93164 C 806.48555 590.93164 798.52203 581.51619 792.63086 580.72266 C 789.03434 578.56973 784.94895 577.50391 780.83203 577.50391 C 763.82532 577.50391 746.30398 595.69959 760.6875 630.63672 L 726.74805 630.63672 L 692.80859 630.63672 C 707.19211 595.69959 689.67077 577.50391 672.66406 577.50391 C 668.54714 577.50391 664.46175 578.56973 660.86523 580.72266 C 654.97406 581.51619 647.01055 590.93164 642.06055 590.93164 C 640.77448 590.93164 639.69276 590.29617 638.90234 588.70898 C 633.74575 571.81769 665.71646 546.27651 678.83008 524.81836 C 698.67921 478.72253 706.43634 455.77714 710.77539 401.03125 C 714.68055 351.76048 721.9449 295.5426 700.79297 251.28906 C 689.24297 235.2 677.31074 213.34375 655.72852 213.34375 z M 59.896484 223.33789 C 138.16073 250.92583 211.60371 289.85733 285.50781 327.1582 C 209.51098 303.83942 135.74361 283.20802 63.890625 251.28906 C 62.59958 246.82233 61.232367 228.01189 59.896484 223.33789 z M 1393.5996 223.33789 C 1392.2637 228.01189 1390.8965 246.82233 1389.6055 251.28906 C 1317.7525 283.20802 1243.9851 303.83942 1167.9883 327.1582 C 1241.8924 289.85733 1315.3354 250.92583 1393.5996 223.33789 z M 75.869141 283.23438 C 128.85366 316.29656 231.84295 335.69219 285.50781 337.14062 C 279.3029 341.30816 264.91354 352.55859 232.58008 352.55859 C 204.87766 352.55859 164.00264 345.76652 103.82031 323.16602 C 92.738162 311.07174 85.021691 296.3095 75.869141 283.23438 z M 1377.627 283.23438 C 1368.4744 296.3095 1360.7579 311.07174 1349.6758 323.16602 C 1289.4935 345.76652 1248.6184 352.55859 1220.916 352.55859 C 1188.5826 352.55859 1174.1932 341.30816 1167.9883 337.14062 C 1221.6532 335.69219 1324.6424 316.29656 1377.627 283.23438 z M 589.75391 299.19141 C 589.58103 299.19141 589.35828 299.19643 588.98633 299.20703 C 551.0288 300.35902 506.08536 319.55672 473.18555 341.13477 C 435.56614 355.18956 396.41082 355.45986 357.38477 359.10352 C 357.67021 368.61104 357.09932 377.54723 357.38477 387.05469 C 395.32612 379.1481 434.62734 375.74872 473.18555 371.08398 C 501.32709 393.50706 528.83232 402.73154 557.04102 405.02539 C 559.1034 405.1933 561.08065 405.24805 563.03711 405.24805 C 566.94999 405.24805 570.77588 405.02539 575.00977 405.02539 C 597.27986 405.02539 620.85886 402.17235 646.88672 401.03125 L 664.85547 405.02539 L 672.8418 387.05469 L 666.85156 375.07617 C 660.88141 319.42965 628.868 299.20703 590.98242 299.20703 C 590.24654 299.20703 590.10018 299.19141 589.75391 299.19141 z M 863.74219 299.19141 C 863.39592 299.19141 863.24955 299.20703 862.51367 299.20703 C 824.62809 299.20703 792.61468 319.42965 786.64453 375.07617 L 780.6543 387.05469 L 788.64062 405.02539 L 806.60938 401.03125 C 832.63723 402.17235 856.21624 405.02539 878.48633 405.02539 C 882.72022 405.02539 886.5461 405.24805 890.45898 405.24805 C 892.41544 405.24805 894.3927 405.1933 896.45508 405.02539 C 924.66378 402.73154 952.16901 393.50706 980.31055 371.08398 C 1018.8688 375.74872 1058.17 379.1481 1096.1113 387.05469 C 1096.3968 377.54723 1095.8259 368.61104 1096.1113 359.10352 C 1057.0853 355.45986 1017.93 355.18956 980.31055 341.13477 C 947.41074 319.55672 902.4673 300.35902 864.50977 299.20703 C 864.13782 299.19643 863.91507 299.19141 863.74219 299.19141 z M 584.99219 327.1582 C 608.33603 327.1582 628.38037 339.27063 638.90039 373.08008 C 621.17601 375.67138 600.34514 377.8125 579.99023 377.8125 C 549.11112 377.8125 519.32485 372.88286 503.13281 357.10742 C 530.86017 340.37981 560.37248 327.52748 584.99219 327.1582 z M 868.50391 327.1582 C 893.12362 327.52748 922.63592 340.37981 950.36328 357.10742 C 934.17124 372.88286 904.38497 377.8125 873.50586 377.8125 C 853.15095 377.8125 832.32008 375.67138 814.5957 373.08008 C 825.11572 339.27063 845.16007 327.1582 868.50391 327.1582 z M 698.79688 642.61523 L 726.74805 642.61523 L 754.69922 642.61523 C 749.45122 668.25322 755.95937 692.33473 726.74805 702.51172 C 697.53673 692.33473 704.04487 668.25322 698.79688 642.61523 z M 688.81445 704.50977 C 699.30935 716.10337 716.28878 723.58538 726.74805 726.4707 C 737.20732 723.58538 754.18674 716.10337 764.68164 704.50977 C 769.93469 712.09479 781.45814 719.5918 806.49023 719.5918 C 817.62219 719.5918 831.4253 718.10973 848.53711 714.49219 C 849.75794 714.95674 850.97379 717.02666 852.53125 718.48438 C 814.88131 728.71777 765.78307 741.98316 726.74805 742.44336 C 687.71303 741.98316 638.61478 728.71777 600.96484 718.48438 C 602.5223 717.02666 603.73815 714.95674 604.95898 714.49219 C 622.07079 718.10973 635.8739 719.5918 647.00586 719.5918 C 672.03795 719.5918 683.5614 712.09479 688.81445 704.50977 z M 592.97852 726.4707 C 639.3633 746.95308 704.18066 758.41602 726.74805 758.41602 C 749.31544 758.41602 814.1328 746.95308 860.51758 726.4707 C 861.72131 731.23842 859.1209 746.04492 851.4375 746.04492 C 848.54963 746.04492 844.94489 743.95365 840.55273 738.45117 L 836.55859 742.44336 C 802.74197 762.69504 768.11305 786.36719 726.74805 786.36719 C 685.38305 786.36719 650.75412 762.69504 616.9375 742.44336 L 612.94336 738.45117 C 608.5512 743.95365 604.94646 746.04492 602.05859 746.04492 C 594.37519 746.04492 591.77479 731.23842 592.97852 726.4707 z " />
</svg>
