<?xml version="1.0" encoding="UTF-8" standalone="no"?>
<svg
   width="820"
   height="1000"
   id="svg2"
   sodipodi:version="0.32"
   inkscape:version="1.4.2 (f4327f4, 2025-05-13)"
   sodipodi:docname="E13.svg"
   inkscape:output_extension="org.inkscape.output.svg.inkscape"
   version="1.1"
   xmlns:inkscape="http://www.inkscape.org/namespaces/inkscape"
   xmlns:sodipodi="http://sodipodi.sourceforge.net/DTD/sodipodi-0.dtd"
   xmlns="http://www.w3.org/2000/svg"
   xmlns:svg="http://www.w3.org/2000/svg"
   xmlns:rdf="http://www.w3.org/1999/02/22-rdf-syntax-ns#"
   xmlns:cc="http://creativecommons.org/ns#"
   xmlns:dc="http://purl.org/dc/elements/1.1/">
  <metadata
     id="metadata9">
    <rdf:RDF>
      <cc:Work
         rdf:about="">
        <dc:format>image/svg+xml</dc:format>
        <dc:type
           rdf:resource="http://purl.org/dc/dcmitype/StillImage" />
      </cc:Work>
    </rdf:RDF>
  </metadata>
  <defs
     id="defs7">
    <inkscape:perspective
       sodipodi:type="inkscape:persp3d"
       inkscape:vp_x="0 : 991.01121 : 1"
       inkscape:vp_y="0 : 1000 : 0"
       inkscape:vp_z="15.417194 : 991.01121 : 1"
       inkscape:persp3d-origin="7.7085972 : 988.01494 : 1"
       id="perspective11" />
  </defs>
  <sodipodi:namedview
     inkscape:window-height="998"
     inkscape:window-width="1680"
     inkscape:pageshadow="2"
     inkscape:pageopacity="0.0"
     guidetolerance="10.0"
     gridtolerance="10.0"
     objecttolerance="10.0"
     borderopacity="1.0"
     bordercolor="#666666"
     pagecolor="#ffffff"
     id="base"
     showgrid="false"
     inkscape:zoom="0.755"
     inkscape:cx="225.82781"
     inkscape:cy="583.44371"
     inkscape:window-x="-8"
     inkscape:window-y="-8"
     inkscape:current-layer="svg2"
     inkscape:showpageshadow="2"
     inkscape:pagecheckerboard="0"
     inkscape:deskcolor="#d1d1d1"
     inkscape:window-maximized="1" />
  <path
     id="path4"
     style="fill:#000000;stroke:none;stroke-width:1"
     d="M 208.54492,0 C 196.33738,38.65718 187.52128,61.71564 182.0957,69.175781 L 152.59375,13.224609 134.2832,14.242188 c -3.39096,25.09325 -8.4778,50.186045 -15.25976,75.279296 0,6.781946 -7.12117,10.173828 -21.363284,10.173828 C 66.46312,99.695313 46.457161,111.22455 37.640625,134.2832 12.547374,143.09977 0,152.93405 0,163.78516 c 0,30.51882 4.4080742,47.81168 13.224609,51.88086 -4.0691781,35.26621 10.512532,50.52669 43.744141,45.77929 18.989499,13.56394 28.484375,40.69108 28.484375,81.38281 -28.484251,86.80913 -31.876115,158.18947 -10.173828,214.14063 21.702289,55.95119 47.134443,92.74382 76.296873,110.37695 46.11732,141.06474 45.44052,224.14314 -2.0332,249.23633 C 69.424056,908.40673 62.111844,973.61246 71.210938,1000 H 199.93797 L 257.375,907.42578 c 23.73685,9.49477 28.4843,-12.88494 14.24219,-67.14062 6.78196,-53.5775 11.52942,-94.27016 14.24219,-122.07618 63.75042,48.83009 120.38039,82.74099 169.88867,101.73047 8.13836,50.1865 21.7019,85.11353 40.6914,104.78125 -44.76097,-2.03459 -86.46981,-5.08729 -125.12695,-9.15625 -45.43915,-4.06923 -64.42893,24.0761 -56.96875,84.43555 h 450.66211 c 13.56395,-205.49337 -28.4843,-341.81168 -126.14453,-408.95312 27.80602,-12.88573 69.85426,-23.05746 126.14453,-30.51758 27.80602,-1.35641 40.69101,-12.20685 38.65625,-32.55274 -0.67823,-20.34589 -15.25995,-28.82459 -43.74414,-25.43359 -61.71581,7.46014 -120.37815,22.72065 -175.99024,45.7793 -48.83015,-42.04815 -104.44389,-77.31462 -166.83789,-105.79883 -10.6067,-42.42678 -32.87639,-76.43059 -66.81054,-102.00977 1.36948,0.21663 3.29386,-0.0298 5.77343,-0.73828 l -29.50195,-27.4668 28.48438,3.05274 -26.44922,-26.44922 c 4.74739,0 9.83418,-0.33941 15.25976,-1.01758 -19.66768,-16.27672 -31.19689,-26.78975 -34.58789,-31.53711 l 25.43164,-1.01758 -35.60547,-26.44922 29.50196,1.01758 c -6.78193,-8.81654 -17.63242,-16.61647 -32.55274,-23.39843 l 18.31055,3.05273 c -4.66636,-9.82317 -12.99388,-15.93847 -22.38086,-21.36328 l 18.3125,-1.01758 c -11.52936,-16.27671 -28.14541,-31.19584 -49.84766,-44.75976 18.98946,-16.9549 21.70258,-38.82651 8.13868,-65.615239 C 255.00248,50.017908 238.72583,24.415073 219.73633,0 Z m 6.10352,28.484375 h 2.03515 c 33.90979,54.25568 45.60968,85.282805 35.09766,93.082035 -10.51204,7.79927 -15.76953,16.44665 -15.76953,25.9414 3.39101,0 11.8697,6.10305 25.43359,18.31055 l -19.33008,-2.0332 28.48438,30.51757 -11.18945,-1.01757 18.31054,22.38086 h -11.18945 l -2.03516,9.15625 17.29493,13.22461 c -4.74741,0 -7.1211,4.06867 -7.1211,12.20703 l 15.25977,13.22461 c -5.42559,0 -8.13867,4.07062 -8.13867,12.20898 l 19.32812,15.25781 c -6.10377,0 -9.15625,3.05247 -9.15625,9.15625 8.81653,9.49476 14.9215,16.27657 18.3125,20.34571 l -9.15625,-3.05079 c -3.39096,0 -5.76469,3.38992 -7.12109,10.17188 51.5429,37.97897 86.1306,85.7928 103.76367,143.43945 63.75044,25.09325 116.31167,56.62841 157.68164,94.60742 -15.34784,10.23186 -116.26717,83.16272 -104.78125,224.82227 -42.04815,-15.59854 -95.96496,-51.54371 -161.75,-107.83398 8.13836,-48.15191 10.00202,-76.29725 5.59375,-84.43555 -4.40827,-8.13842 -11.86685,-17.80197 -22.37891,-28.99219 -10.51203,-11.19021 -13.73519,-4.40841 -9.66601,20.3457 4.06918,24.75416 5.1e-4,60.0206 -12.20703,105.79883 -12.20754,45.77818 -31.19732,43.91257 -56.96875,-5.5957 -25.77147,-49.50827 -44.08246,-94.77771 -54.9336,-135.80859 -10.85114,-41.03087 0.67806,-79.8579 34.58789,-116.48047 33.90978,-36.62257 62.05508,-54.9336 84.43555,-54.9336 23.05867,0 43.404,9.15551 61.03711,27.4668 l 8.13867,-7.12109 c -17.63311,-22.38046 -39.67341,-33.57032 -66.12305,-33.57032 -26.44965,0 -58.66357,16.44737 -96.64257,49.33985 -37.97897,32.89252 -56.29194,70.362 -54.93555,112.41015 1.02965,31.91922 4.79587,56.21692 11.29687,72.89454 C 79.240018,520.6185 76.152559,434.2666 110.88477,344.86328 113.06638,292.5065 94.796486,263.33579 75.279297,236.01172 c -27.127821,4.74736 -40.352006,1.01805 -39.673828,-11.18945 12.207536,-4.06918 23.905473,-3.90045 35.095703,0.50781 11.190231,4.40827 16.447748,2.54461 15.769531,-5.59375 -0.678178,-8.13836 -5.256929,-10.34337 -13.734375,-6.61328 -8.477447,3.73009 -20.854144,4.57758 -37.130859,2.54297 -8.138358,-6.10375 -12.207031,-19.66734 -12.207031,-40.69141 2.034605,-2.71277 3.050781,-1.8653 3.050781,2.54297 0,4.40827 5.426237,5.93452 16.277343,4.57812 0,-20.34585 -7.121174,-28.14578 -21.363281,-23.39843 21.702287,-8.13836 35.265833,-15.5989 40.691407,-22.38086 6.103751,-12.88572 31.875309,-18.64937 77.314452,-17.29297 33.23161,-0.67822 58.32441,-30.85785 75.2793,-90.539065 z m -63.07227,17.292969 h 3.05274 l 18.31054,38.658203 c 0.67818,8.138358 -11.19043,13.22516 -35.60547,15.259765 z m 70.19336,13.226562 c -9.49475,8.816575 -12.5453,31.535637 -9.1543,68.158204 h 11.18946 c -2.03457,-29.840643 -2.5e-4,-48.830433 6.10351,-56.968751 z m -117.2832,76.066404 c -11.560908,0.71618 -25.937253,6.44753 -21.068361,31.76563 -14.92032,8.81654 -13.902159,11.52963 3.052734,8.13867 27.806037,-4.06918 47.811987,-11.52971 60.019527,-22.38086 -15.42897,-12.46184 -29.43081,-18.3023 -42.0039,-17.52344 z M 608.3418,608.3418 c 75.2797,56.29027 116.30979,135.97868 123.09179,239.06445 -23.05866,-29.16243 -47.81205,-70.87127 -74.26171,-125.12695 -26.44966,-54.25568 -55.27369,-81.04526 -86.47071,-80.36719 9.49477,-12.88572 22.04215,-24.07559 37.64063,-33.57031 z m -52.89844,61.03711 c 23.05866,-0.67823 49.84639,27.1277 80.36523,83.41797 30.51879,56.29027 52.89851,90.87985 67.14063,103.76562 14.24213,12.88566 24.92388,36.45224 32.04492,70.70117 7.12103,34.24893 -8.30619,51.37305 -46.28516,51.37305 -56.96845,-4.06924 -98.16922,-22.21149 -123.60156,-54.42578 -25.43238,-32.21434 -38.14844,-82.90801 -38.14844,-152.08399 0,-68.49775 9.49488,-102.74804 28.48438,-102.74804 z"
     sodipodi:nodetypes="cccccscscccscccccccccccccccccccccccccccccccccsccccscccccccccccccccccccccssssssssccsssccccsssccscccccccccccccccscccsccscccssscssc" />
</svg>
