<?xml version="1.0" encoding="UTF-8" standalone="no"?>
<svg
   width="800"
   height="1000"
   version="1.1"
   id="svg1"
   sodipodi:docname="E134A.svg"
   inkscape:version="1.4.2 (f4327f4, 2025-05-13)"
   xmlns:inkscape="http://www.inkscape.org/namespaces/inkscape"
   xmlns:sodipodi="http://sodipodi.sourceforge.net/DTD/sodipodi-0.dtd"
   xmlns="http://www.w3.org/2000/svg"
   xmlns:svg="http://www.w3.org/2000/svg">
  <defs
     id="defs1" />
  <sodipodi:namedview
     id="namedview1"
     pagecolor="#ffffff"
     bordercolor="#666666"
     borderopacity="1.0"
     inkscape:showpageshadow="2"
     inkscape:pageopacity="0.0"
     inkscape:pagecheckerboard="0"
     inkscape:deskcolor="#d1d1d1"
     inkscape:zoom="2.1354625"
     inkscape:cx="466.64364"
     inkscape:cy="21.775142"
     inkscape:window-width="1680"
     inkscape:window-height="998"
     inkscape:window-x="-8"
     inkscape:window-y="-8"
     inkscape:window-maximized="1"
     inkscape:current-layer="svg1" />
  <path
     id="path1"
     style="fill:#000000;stroke:none;stroke-width:0.999998"
     d="M 596.22656,0.0078125 C 549.7772,0.38853521 520.46072,11.999794 508.27734,34.84375 493.80947,28.752001 478.9617,25.707031 463.73242,25.707031 c -13.70635,0 -24.36778,5.900424 -31.98242,17.703125 -7.61464,11.802701 -18.27412,18.08422 -31.98047,18.845703 -13.70639,0.761445 -31.03047,-2.473114 -51.9707,-9.707031 -20.94027,-7.23388 -34.64667,-4.378463 -41.11914,8.566406 -6.47244,12.944906 -13.32469,22.271433 -20.5586,27.982422 -7.23392,5.710989 -11.99488,13.898094 -14.27929,24.558594 -2.28437,10.66049 0.38145,19.03524 7.99609,25.12695 -23.6054,-3.8073 -41.50016,-2.28284 -53.68359,4.57032 -12.18343,6.85319 -18.27539,22.0821 -18.27539,45.6875 0,24.36685 8.94738,30.45882 26.84179,18.27539 17.89441,-12.18342 32.55263,-22.46373 43.97461,-30.83985 -3.80734,36.55027 18.6569,53.8724 67.39063,51.96875 48.73369,-1.90365 76.33612,1.71399 82.80859,10.85157 6.47243,9.13756 13.89732,10.28088 22.27344,3.42773 -22.08247,27.4127 -47.59171,59.77419 -76.52735,97.08594 -32.743,42.64202 -48.35303,86.42521 -46.83007,131.35156 l -9.13672,12.56445 c -5.33027,15.99076 0.3806,17.13409 17.13281,3.42774 -3.8073,9.89905 -6.85426,20.55853 -9.13867,31.98047 -23.6054,-8.37612 -39.40502,-17.70266 -47.40039,-27.98243 -7.9954,-10.27977 -26.46086,-9.32799 -55.39649,2.85547 -11.42194,-22.08247 -37.69341,-34.64754 -78.8125,-37.69336 -50.256655,3.8073 -78.810902,21.32098 -85.664059,52.54102 H 11.421875 v 51.39844 h 43.404297 c 2.284373,31.98149 11.80248,64.34492 28.554687,97.08789 h -22.84375 l 13.705079,95.94336 H 91.375 C 83.76036,814.20231 53.302515,895.67859 0,997.71484 H 55.966797 C 94.04003,895.67859 119.17009,814.20231 131.35352,753.28516 h 27.4121 c 11.42198,60.91715 34.64649,142.39343 69.67383,244.42968 h 55.9668 C 234.14963,895.67859 205.21429,814.20231 197.59961,753.28516 h 17.13281 L 228.43945,657.3418 H 205.5957 c 14.46783,-28.17419 23.9859,-53.68344 28.55469,-76.52735 29.69711,16.75221 59.39473,20.55945 89.0918,11.42188 -0.76144,38.0732 12.18273,74.62301 38.83398,109.65039 24.36685,79.19229 36.55078,128.68827 36.55078,148.48633 0,19.03662 -6.28155,35.97762 -18.8457,50.82617 -12.56418,14.84852 -25.3188,22.27344 -38.26367,22.27344 -20.55954,0 -32.74344,12.18389 -36.55078,36.55078 C 304.20535,986.67469 309.53509,1000 320.95703,1000 h 148.48633 c 14.46779,-12.94487 21.70117,-38.45407 21.70117,-76.52734 0,-38.0732 12.94418,-72.71946 38.83399,-103.93946 20.55955,3.04585 38.83541,17.13343 54.82617,42.26172 -3.80734,40.35761 -11.80291,60.91629 -23.98633,61.67774 -22.08247,0 -33.88527,12.18389 -35.4082,36.55078 0,26.65125 5.71087,39.97656 17.13281,39.97656 H 657.9043 c 15.22931,0 22.8457,-25.5092 22.8457,-76.52734 l -6.85352,-101.65625 c -26.65126,-18.27513 -33.88659,-48.73298 -21.70312,-91.375 7.61463,35.78887 19.0383,76.33742 34.26758,121.64453 15.22928,45.30715 36.92932,94.61159 65.10351,147.91406 h 36.55078 c -42.64202,-173.61385 -66.8183,-305.53797 -72.52929,-395.77148 -5.71095,-90.23354 -6.6628,-166.3801 -2.85547,-228.43946 3.80738,-62.05936 6.85434,-125.07019 9.13867,-189.0332 C 724.15351,122.79289 715.39572,75.581642 695.59766,45.123047 675.79959,14.664488 642.67588,-0.37291021 596.22656,0.0078125 Z m 6.14453,18.8691405 c -18.60134,8.349907 -32.79286,20.372375 -41.55273,34.242188 -5.33027,2.284373 -16.37084,-0.760634 -33.12305,-9.136719 8.32433,-22.891976 50.38089,-25.5498 74.67578,-25.105469 z m 3.31055,0.09961 c 38.54879,1.607229 64.52371,18.888674 77.92383,51.845704 14.08704,34.646624 20.17705,78.242174 18.27344,130.783204 -1.90369,52.54107 -4.94869,110.2202 -9.13672,173.04101 -4.18806,62.82081 -3.23624,139.15894 2.85547,229.01172 6.09171,89.85279 30.0784,215.87445 71.95898,378.06641 -26.65125,-41.11909 -49.30505,-91.94599 -67.96094,-152.48242 -18.6559,-60.53643 -28.17396,-118.21756 -28.55468,-173.04297 -0.38073,-54.82544 -1.90331,-98.03983 -4.56836,-129.64063 -2.66513,-31.60077 0.76096,-82.80883 10.27929,-153.625 9.51829,-70.81621 6.85246,-117.07368 -7.99609,-138.77539 -14.84856,-21.70175 -37.50239,-32.55273 -67.96094,-32.55273 -30.4586,0 -57.4903,10.65948 -81.0957,31.98047 -23.60537,21.32103 -48.73352,50.63747 -75.38477,87.94922 h -29.69726 c 12.9449,-20.55955 33.1244,-46.44988 60.53711,-77.66993 13.70635,-51.0181 33.12358,-90.42332 58.25195,-118.21679 25.12829,-27.793426 42.64197,-41.310276 52.54102,-40.548831 l 18.27539,13.707032 c 20.26181,-26.26535 21.11772,-53.535623 1.45898,-79.830079 z m -6.0293,18.152344 c 7.6146,14.467797 7.6146,28.174235 0,41.119141 -11.42202,-5.330267 -20.17786,-11.80333 -26.26953,-19.417969 5.33023,-9.899013 14.08607,-17.132389 26.26953,-21.701172 z m -126.92578,7.066406 c 17.60887,-0.23796 43.54662,8.447776 77.8125,26.056641 l 11.42188,-4.568359 10.27929,7.99414 c -44.92639,22.843917 -79.5726,67.391256 -103.93945,133.638676 -6.85319,12.94487 -13.89694,16.371 -21.13086,10.27929 -7.23391,-6.09171 -33.12425,-8.18685 -77.66992,-6.2832 -44.54567,1.90369 -68.91158,-3.04496 -73.09961,-14.84766 -4.18806,-11.8027 -2.8551,-17.89466 3.99805,-18.27539 6.8532,-0.38076 18.27486,1.14174 34.26562,4.56836 15.99073,3.42658 29.69717,3.237 41.11914,-0.57031 11.42198,-3.80733 23.98506,-6.09203 37.69141,-6.85352 13.70635,-0.76145 32.74252,-0.38035 57.10937,1.14258 l 3.42774,-17.13281 c -13.70635,-6.09171 -28.36457,-13.1355 -43.97461,-21.13086 -15.61,-7.99537 -30.07867,-9.89897 -43.4043,-5.71094 -13.32563,4.18806 -24.74733,2.66555 -34.26562,-4.56836 -9.51833,-7.23392 -29.88738,-7.04432 -61.10742,0.57032 -4.56879,-9.13757 -2.47365,-17.70385 6.2832,-25.69922 8.75685,-7.995361 15.99018,-16.180521 21.70117,-24.556643 5.71099,-8.376122 13.89614,-10.471264 24.55664,-6.283203 10.66049,4.188061 33.885,7.043478 69.67383,8.566406 12.18342,0 24.36735,-8.755841 36.55078,-26.269531 4.5688,-6.567634 12.13585,-9.92363 22.70117,-10.066407 z m 0.14258,11.208985 c -6.85319,0 -12.18293,3.234596 -15.99023,9.707031 -3.80734,6.472434 -9.13705,13.897315 -15.99024,22.273438 25.88977,2.28441 51.01788,-1.90392 75.38477,-12.564454 C 494.19097,61.875443 479.7223,55.404297 472.86914,55.404297 Z m -146.20117,76.525393 -2.2832,28.55664 -6.85352,-1.14258 -3.42773,-26.27148 z m 6.85351,2.28515 15.99024,4.56836 -5.71094,21.70313 h -9.13672 z m 65.10547,1.14258 -10.27929,21.70117 h -9.13868 L 375.7832,144.49414 Z M 307.25,136.5 l 1.14258,19.41602 -4.56836,-1.14063 -4.56836,-14.84961 z m 107.36719,1.50586 19.41797,5.71094 -17.13282,11.42187 z m -60.53711,1.91992 10.28125,3.42774 -4.57031,15.99023 h -4.56836 z m -97.40625,13.59961 c 3.26001,-0.11897 6.79229,-0.0829 10.59961,0.10742 15.22932,0.76144 29.88754,2.66508 43.97461,5.71094 14.08711,3.04585 32.36298,3.2354 54.82617,0.57031 22.4632,-2.66513 50.82786,-3.23582 85.09375,-1.71289 l -7.99609,4.56836 c -31.22004,2.28437 -56.91887,3.61732 -77.09766,3.99805 -20.17882,0.38076 -39.59609,-0.57106 -58.25195,-2.85547 -18.65589,-2.28437 -32.1727,-0.95146 -40.54883,3.99805 -8.37608,4.94951 -17.51306,10.84993 -27.41211,17.70312 -9.89901,6.85319 -14.84766,5.33069 -14.84766,-4.56836 0,-10.66049 3.2346,-18.08537 9.70703,-22.27344 4.85433,-3.14104 12.17308,-4.88916 21.95313,-5.24609 z m 195.63672,6.96094 -1.14258,12.5625 -14.84961,-1.14063 c 4.56878,-1.52293 9.90044,-5.33016 15.99219,-11.42187 z m -27.73633,5.5625 2.66601,6.73633 -8.05468,0.26367 2.28515,-6.85156 z m -91.05274,2.43164 3.42579,10.2793 -13.70508,-3.42579 3.42578,-5.71093 z m 41.11914,0 h 6.85352 l 3.42578,6.85351 -13.70508,1.14258 z m -26.27148,2.28515 3.42774,10.2793 -11.66211,-1.06054 c 1.31282,-0.92496 4.0572,-3.99727 8.23437,-9.21876 z m 241.57617,54.82422 c 30.07783,0.76145 49.30356,8.56747 57.67969,23.41602 8.37612,14.84856 10.27976,30.45856 5.71094,46.83008 -4.56879,16.37145 -16.18005,55.39558 -34.83594,117.07422 -18.65586,61.6786 -33.50567,105.27411 -44.54688,130.7832 -11.04126,25.50905 -48.16175,35.02712 -111.36328,28.55469 -63.20153,-6.47251 -110.60232,-5.7122 -142.20312,2.2832 -31.60077,7.99537 -56.92042,3.61744 -75.95703,-13.13477 4.56878,-9.89905 9.51934,-14.84765 14.84961,-14.84765 9.13757,3.04586 12.9448,0.37999 11.42187,-7.9961 -3.04585,-6.09171 -11.04142,-5.71058 -23.98633,1.14258 l -3.42773,-5.71093 c 4.56878,-9.13758 9.90048,-11.42227 15.99219,-6.85352 9.89905,1.52297 13.32518,-1.1429 10.27929,-7.99609 -3.80731,-6.85316 -14.46873,-5.70984 -31.98242,3.42773 l -6.85156,-12.56445 c 25.88978,-9.89905 41.30827,-9.89905 46.25781,0 4.94951,9.89905 21.13026,17.89461 48.54297,23.98633 27.41274,6.0917 57.681,5.13993 90.80469,-2.85547 33.12369,-7.99536 57.68111,-12.18373 73.67187,-12.56446 15.99077,-0.38072 27.22289,-10.09033 33.69532,-29.12695 6.47247,-19.03661 17.32345,-56.34866 32.55273,-111.93555 0,-12.9449 -6.85416,-14.8485 -20.56055,-5.71093 -14.46779,51.77959 -23.60481,85.47589 -27.41211,101.08593 -3.80734,15.61 -11.80289,24.17629 -23.98632,25.69922 -12.18346,1.52293 -31.79029,5.51976 -58.82227,11.99219 -15.85677,3.7967 -31.12502,6.34868 -45.80273,7.65625 2.45325,-4.86203 7.25162,-14.07666 14.39257,-27.64453 28.93567,-24.36685 54.06378,-53.49178 75.38477,-87.37696 21.32099,-33.88513 52.15997,-75.95624 92.51758,-126.21289 l -6.85352,-6.85351 c -47.97225,51.01811 -85.28429,95.94462 -111.93554,134.7793 -26.65125,38.83468 -47.97213,63.96278 -63.9629,75.38476 -8.37608,-28.93567 8.37729,-75.76578 50.25782,-140.49023 h 25.12695 C 514.74946,262.90267 559.86748,224.82839 589.94531,225.58984 Z M 396.3418,339.81055 h 14.84961 l -66.24805,118.78906 h -2.28516 c 6.09175,-40.35761 23.98653,-79.95438 53.6836,-118.78906 z m 256.99414,37.69336 c -10.66044,67.00867 -14.08659,116.50294 -10.2793,148.48437 3.80723,31.98153 4.18836,65.29479 1.14258,99.94141 -3.04582,34.64662 -7.99642,73.48312 -14.84961,116.50586 -6.85319,43.02275 3.4271,72.9099 30.83984,89.66211 l 4.56836,91.375 c 0,6.85323 -0.95186,18.27486 -2.85547,34.26562 -1.90369,15.99077 -8.56634,23.98633 -19.98828,23.98633 h -43.40234 c -9.13749,-4.56893 -10.28089,-8.37609 -3.42774,-11.42188 9.13761,-8.37615 8.37729,-13.70589 -2.2832,-15.99023 -9.13757,0 -13.70703,9.1369 -13.70703,27.41211 h -10.2793 c -6.85319,-25.12837 3.04605,-37.69141 29.69727,-37.69141 v -20.56054 h -9.13867 c 9.13753,-17.51365 13.70703,-40.7382 13.70703,-69.67383 -22.08243,-28.93567 -49.11417,-47.97181 -81.0957,-57.10938 C 400.15011,726.63477 341.13606,657.72152 344.94336,589.95117 c 15.22932,-7.61464 55.39677,-7.4231 120.50195,0.57227 65.10521,7.99536 105.6538,-2.85563 121.64453,-32.55274 15.99074,-29.69702 38.07197,-89.85276 66.2461,-180.46679 z m -292.40235,100.51171 5.71094,38.83594 c 1.48597,0.84912 2.88298,1.51963 4.19141,2.01367 -7.2571,0.40426 -14.36495,0.49403 -21.32422,0.26954 1.52297,-10.6605 5.3302,-24.36694 11.42187,-41.11915 z m -215.875,17.13282 c 22.84392,0 38.83509,11.99435 47.97266,35.98047 9.13761,23.98613 6.3e-4,66.05718 -27.41211,126.21289 H 123.35742 C 96.706163,597.18609 87.188094,555.11504 94.802734,531.12891 102.41737,507.14279 119.16878,495.14844 145.05859,495.14844 Z M 28.554688,521.41992 h 27.412109 c -1.522928,8.37612 -1.902107,17.132 -1.140625,26.26953 H 28.554688 Z M 81.095703,667.62109 H 207.87891 l -1.14063,6.85352 H 83.380859 Z m 2.285156,15.99024 H 206.73828 l -2.28516,7.99609 H 85.664062 Z m 2.283203,18.27539 H 203.31055 l -1.14258,7.99609 H 86.806641 Z m 2.285157,17.13281 H 201.02734 l -1.14257,7.99609 H 90.234375 Z m 301.539061,5.71094 c 31.22005,30.45856 71.95823,59.3939 122.21484,86.80664 -27.4127,36.55027 -41.11914,73.86235 -41.11914,111.93555 0.76148,9.89905 -0.56951,22.08295 -3.99609,36.55078 -3.42658,14.46787 -13.13619,21.70117 -29.12695,21.70117 H 375.7832 c -9.13757,-4.56893 -10.28092,-8.37609 -3.42773,-11.42188 9.13757,-8.37615 8.37729,-13.70589 -2.2832,-15.99023 -9.13761,0 -13.70704,9.1369 -13.70704,27.41211 h -9.13671 c -7.61464,-28.17426 4.94843,-42.26172 37.6914,-42.26172 v -15.99023 c 24.36689,-16.75221 36.16969,-39.97676 35.4082,-69.67383 0.7615,-22.84392 -9.51881,-65.86679 -30.83984,-129.06836 z M 91.375,736.15234 h 107.36719 l -1.14258,6.85352 H 91.375 Z m 258.13672,198.74219 c -15.22928,10.66053 -20.55903,25.88943 -15.99024,45.6875 h -12.56445 c -4.56875,-30.4586 4.94932,-45.6875 28.55469,-45.6875 z m 221.58594,1.14258 c -15.22924,9.89905 -20.55899,25.12795 -15.99024,45.6875 h -12.56445 c -4.56879,-30.4586 4.94929,-45.6875 28.55469,-45.6875 z"
     sodipodi:nodetypes="scssssssscssscssccccccscccccccccccccccccccccccssscscsccccsscccsccssssscccccsssscssssssscccscccccccsccccsssssssccssscssscssssccscccccccccccccccccccccccccccccssssccssssssscccccccccccccccccccccccssssssscccccccccsssssccsssccsccscccsccccccsssccsscccccccccccssccccccssccssccccccccccccccccccccccccccccsscccccccccccccccccccccc" />
</svg>
