<?xml version="1.0" encoding="UTF-8" standalone="no"?>
<svg
   width="700"
   height="1000"
   version="1.1"
   id="svg1"
   sodipodi:docname="E137.svg"
   inkscape:version="1.4.2 (f4327f4, 2025-05-13)"
   xmlns:inkscape="http://www.inkscape.org/namespaces/inkscape"
   xmlns:sodipodi="http://sodipodi.sourceforge.net/DTD/sodipodi-0.dtd"
   xmlns="http://www.w3.org/2000/svg"
   xmlns:svg="http://www.w3.org/2000/svg">
  <defs
     id="defs1" />
  <sodipodi:namedview
     id="namedview1"
     pagecolor="#ffffff"
     bordercolor="#666666"
     borderopacity="1.0"
     inkscape:showpageshadow="2"
     inkscape:pageopacity="0.0"
     inkscape:pagecheckerboard="0"
     inkscape:deskcolor="#d1d1d1"
     inkscape:zoom="1.0677312"
     inkscape:cx="416.30326"
     inkscape:cy="349.80713"
     inkscape:window-width="1680"
     inkscape:window-height="998"
     inkscape:window-x="-8"
     inkscape:window-y="-8"
     inkscape:window-maximized="1"
     inkscape:current-layer="svg1" />
  <path
     id="path1"
     style="fill:#000000;stroke:none;stroke-width:1"
     d="M 479.54688 0.0078125 C 465.70261 -0.42369322 455.90381 13.168621 450.15039 40.785156 L 426.31641 169.66211 L 408.72461 169.66211 C 403.20128 173.95802 403.20128 178.5611 408.72461 183.4707 L 415.16797 183.4707 L 421.61328 208.32617 L 421.77344 208.32617 C 416.55464 212.15762 412.51056 216.76095 409.64453 222.13477 C 397.98418 217.22517 386.01815 214.76953 373.74414 214.76953 C 362.69753 214.76953 354.10577 219.52671 347.96875 229.03906 C 341.83177 238.55141 333.23998 243.61283 322.19336 244.22656 C 311.14674 244.84025 297.18538 242.23251 280.30859 236.40234 C 263.43184 230.57221 252.38445 232.87375 247.16797 243.30664 C 241.95152 253.73957 236.42783 261.25662 230.59766 265.85938 C 224.76752 270.46213 220.93291 277.06052 219.0918 285.65234 C 217.25069 294.24416 219.39815 300.9947 225.53516 305.9043 C 206.51041 302.83581 192.08873 304.06265 182.26953 309.58594 C 172.45033 315.10927 167.54102 327.38349 167.54102 346.4082 C 167.54102 366.04664 174.75187 370.95592 189.17383 361.13672 C 203.59582 351.31748 215.40972 343.03391 224.61523 336.2832 C 221.5467 365.74083 239.65086 379.7022 278.92773 378.16797 C 318.20456 376.63371 340.45148 379.54771 345.66797 386.91211 C 350.88442 394.27654 356.86648 395.19716 363.61719 389.67383 C 345.81986 411.76707 325.26203 437.8505 301.94141 467.92188 C 275.55226 502.28907 262.96989 537.57681 264.19727 573.78516 L 256.83398 583.91016 C 252.53807 596.79793 257.14116 597.71849 270.64258 586.67188 C 267.57409 594.64997 265.11845 603.24176 263.27734 612.44727 C 244.25263 605.69656 231.51808 598.1795 225.07422 589.89453 C 218.63035 581.60952 203.74835 582.37608 180.42773 592.19531 C 171.22222 574.39817 150.05002 564.27335 116.91016 561.81836 C 76.405901 564.88685 53.392469 579.00038 47.869141 604.16211 L 9.2050781 604.16211 L 9.2050781 645.58789 L 44.185547 645.58789 C 46.026656 671.36334 53.699753 697.44487 67.201172 723.83398 L 48.789062 723.83398 L 59.835938 801.16016 L 73.644531 801.16016 C 67.507512 850.25623 42.959057 915.92235 0 998.1582 L 45.107422 998.1582 C 75.792478 915.92235 96.044079 850.25623 105.86328 801.16016 L 127.95703 801.16016 C 137.16254 850.25623 155.87913 915.92235 184.10938 998.1582 L 229.2168 998.1582 C 188.71255 915.92235 165.39288 850.25623 159.25586 801.16016 L 173.06445 801.16016 L 184.10938 723.83398 L 165.69922 723.83398 C 177.35953 701.12705 185.03067 680.56925 188.71289 662.1582 C 212.64724 675.65965 236.58131 678.72768 260.51562 671.36328 C 259.90194 702.0483 270.3349 731.50607 291.81445 759.73633 C 311.45288 823.56124 321.27148 863.45202 321.27148 879.4082 C 321.27148 894.75073 316.21006 908.40586 306.08398 920.37305 C 295.95789 932.3402 285.67703 938.32227 275.24414 938.32227 C 258.67419 938.32227 248.8556 948.14281 245.78711 967.78125 C 245.17342 989.26076 249.47027 1000 258.67578 1000 L 378.3457 1000 C 390.00601 989.56711 395.83789 969.00732 395.83789 938.32227 C 395.83789 907.63722 406.27087 879.71446 427.13672 854.55273 C 443.70663 857.00753 458.43454 868.36115 471.32227 888.61328 C 468.25378 921.13929 461.80947 937.70843 451.99023 938.32227 C 434.1929 938.32227 424.6805 948.14281 423.45312 967.78125 C 423.45313 989.26076 428.05621 1000 437.26172 1000 L 530.23828 1000 C 542.51232 1000 548.64844 979.44022 548.64844 938.32227 L 543.125 856.39453 C 521.64549 841.66573 515.81557 817.11728 525.63477 782.75 C 531.77178 811.59395 540.97795 844.27383 553.25195 880.78906 C 565.52599 917.30425 583.01573 957.04095 605.72266 1000 L 635.17969 1000 C 600.81242 860.07621 581.32737 753.75284 576.72461 681.0293 C 572.12193 608.30573 571.35538 546.93458 574.42383 496.91797 C 577.49228 446.90132 579.94791 396.11924 581.78906 344.56836 C 583.63013 293.01753 576.57145 254.96796 560.61523 230.41992 C 556.49242 224.0771 551.65253 218.56236 546.0957 213.87891 L 553.25195 183.4707 L 559.69531 183.4707 C 563.99118 178.5611 563.99118 173.95802 559.69531 169.66211 L 543.75586 169.66211 L 554.17188 48.150391 C 556.62667 18.079025 549.87618 2.1223593 533.91992 0.28125 C 518.57743 -2.1735501 509.065 11.635665 505.38281 41.707031 L 496.17773 103.38281 C 496.06369 103.95306 495.93798 104.47127 495.80273 104.93555 C 494.65792 104.744 493.4818 104.58322 492.27539 104.45508 C 492.32626 104.11965 492.39929 103.76222 492.49414 103.38281 L 500.7793 48.150391 C 504.46148 18.692716 498.32532 2.7360501 482.36914 0.28125 C 481.41023 0.12782499 480.46983 0.036579548 479.54688 0.0078125 z M 479.78516 10.382812 C 480.03148 10.379816 480.27803 10.389025 480.52734 10.408203 C 489.73281 12.249312 492.49468 24.215357 488.8125 46.308594 L 481.44922 102.46289 C 481.3033 103.48432 481.22589 104.45375 481.21875 105.37109 C 464.52817 108.92267 455.39941 121.14812 453.83203 142.04688 C 454.14648 153.68165 457.44083 162.65687 463.7168 168.97461 L 441.86523 168.74219 C 439.41043 168.74219 438.48983 167.20716 439.10352 164.13867 L 461.19531 42.626953 C 465.95149 21.224129 472.14924 10.475716 479.78516 10.382812 z M 531.30859 11.251953 C 531.85997 11.225584 532.42466 11.251411 533 11.328125 C 540.97809 12.555507 544.35238 25.750381 543.125 50.912109 L 532.07812 167.82227 L 528.39648 169.66211 L 517.43555 169.54492 C 523.24674 163.26553 526.59459 154.10051 527.47656 142.04688 C 526.10539 124.67878 518.94651 113.26684 506.00195 107.8125 C 506.14159 107.00115 506.24179 106.13886 506.30273 105.22461 L 514.58789 47.228516 C 517.4646 23.639396 523.03802 11.647488 531.30859 11.251953 z M 490.6543 117.19141 C 505.38317 119.03252 513.3605 127.31807 514.58789 142.04688 C 513.97416 158.0031 505.6886 166.90108 489.73242 168.74219 C 473.7762 165.6737 465.79883 156.77571 465.79883 142.04688 C 467.6399 126.09065 475.9255 117.8051 490.6543 117.19141 z M 427.13672 183.4707 L 536.68164 183.4707 C 538.02016 183.91676 539.15683 183.91676 540.08984 183.4707 L 540.36328 183.4707 L 534.54688 205.9082 C 520.10697 197.83128 502.10014 193.87977 480.52734 194.05664 C 460.36014 194.22195 444.20523 197.01812 432.05273 202.4375 L 427.13672 183.4707 z M 483.28906 209.24609 C 483.85847 209.24609 484.42525 209.24987 484.98828 209.25781 C 470.28189 216.00266 458.95529 225.83529 451.99023 236.86328 C 447.69432 238.70435 438.79634 236.24872 425.29492 229.49805 C 430.20452 215.99659 449.53551 209.24609 483.28906 209.24609 z M 488.48242 209.36133 C 519.36699 210.74229 540.18812 224.66443 550.94922 251.13086 C 562.30265 279.05423 567.21392 314.18979 565.67969 356.53516 C 564.14546 398.88052 561.68982 445.36774 558.31445 495.99805 C 554.93908 546.62839 555.70563 608.15163 560.61523 680.56836 C 565.52483 752.98505 584.85778 854.5532 618.61133 985.27148 C 597.13182 952.13163 578.87354 911.16614 563.83789 862.37695 C 548.80224 813.58772 541.13114 767.10053 540.82422 722.91406 C 540.51741 678.72759 539.29057 643.90021 537.14258 618.43164 C 534.99463 592.96307 537.75449 551.6914 545.42578 494.61719 C 553.09702 437.54302 550.94957 400.26001 538.98242 382.76953 C 527.01527 365.27905 508.75898 356.53516 484.21094 356.53516 C 459.66291 356.53516 437.87631 365.12692 418.85156 382.31055 C 399.82685 399.49415 379.57326 423.12203 358.09375 453.19336 L 334.16016 453.19336 C 344.59309 436.62345 360.85599 415.75743 382.94922 390.5957 C 393.99584 349.47775 409.64631 317.71845 429.89844 295.31836 C 450.15053 272.91828 464.26406 262.02498 472.24219 262.63867 L 486.9707 273.68555 C 503.22427 252.61612 504.09401 230.47181 488.48242 209.36133 z M 483.28906 223.97461 C 489.42608 235.63492 489.42608 246.68234 483.28906 257.11523 C 474.08359 252.81936 467.02679 247.60186 462.11719 241.46484 C 466.41306 233.48675 473.46986 227.65683 483.28906 223.97461 z M 380.99414 229.67188 C 395.18597 229.4801 416.08853 236.48004 443.70508 250.67188 L 452.91211 246.98828 L 461.19531 253.43359 C 424.98696 271.84464 397.06422 307.74473 377.42578 361.13672 C 371.90249 371.56961 366.22665 374.33148 360.39648 369.42188 C 354.56631 364.51228 333.7003 362.82515 297.79883 364.35938 C 261.89733 365.89365 242.25818 361.90493 238.88281 352.39258 C 235.50748 342.88023 236.58218 337.97091 242.10547 337.66406 C 247.62876 337.35717 256.83297 338.58401 269.7207 341.3457 C 282.60843 344.10735 293.65582 343.9533 302.86133 340.88477 C 312.06684 337.81628 322.19361 335.97502 333.24023 335.36133 C 344.28685 334.7476 359.62915 335.05578 379.26758 336.2832 L 382.0293 322.47461 C 370.98272 317.56501 359.16878 311.88722 346.58789 305.44336 C 334.00701 298.99949 322.34715 297.46643 311.60742 300.8418 C 300.86765 304.21714 291.66152 302.98834 283.99023 297.1582 C 276.31898 291.32803 259.90196 291.48216 234.74023 297.61914 C 231.05801 290.25474 232.74517 283.35011 239.80273 276.90625 C 246.86028 270.46242 252.69213 263.86598 257.29492 257.11523 C 261.89763 250.36456 268.49412 248.6774 277.08594 252.05273 C 285.67776 255.42807 304.39628 257.72961 333.24023 258.95703 C 343.05943 258.95703 352.87804 251.89831 362.69727 237.7832 C 366.37947 232.49004 372.47904 229.78694 380.99414 229.67188 z M 381.10742 238.70312 C 375.58413 238.70313 371.28923 241.31282 368.2207 246.5293 C 365.15221 251.74575 360.85536 257.72976 355.33203 264.48047 C 376.19788 266.32158 396.4514 262.94534 416.08984 254.35352 C 398.29251 243.92059 386.63075 238.70312 381.10742 238.70312 z M 263.27734 300.38086 L 261.4375 323.39453 L 255.91406 322.47461 L 253.15234 301.30078 L 263.27734 300.38086 z M 268.80078 302.22266 L 281.68945 305.9043 L 277.08594 323.39453 L 269.7207 323.39453 L 268.80078 302.22266 z M 321.27148 303.14258 L 312.98828 320.63281 L 305.62305 320.63281 L 302.86133 310.50781 L 321.27148 303.14258 z M 247.62891 304.0625 L 248.54883 319.71289 L 244.86719 318.79297 L 241.18359 306.82422 L 247.62891 304.0625 z M 334.16016 304.99414 L 349.80859 309.59766 L 336.00195 318.80273 L 334.16016 304.99414 z M 285.37109 306.82422 L 293.65625 309.58594 L 289.97461 322.47461 L 286.29102 322.47461 L 285.37109 306.82422 z M 206.86523 317.78516 C 209.49264 317.68927 212.33969 317.71766 215.4082 317.87109 C 227.68224 318.48478 239.49618 320.01981 250.84961 322.47461 C 262.20307 324.92941 276.9329 325.08154 295.03711 322.93359 C 313.14128 320.78564 336.00066 320.32531 363.61719 321.55273 L 357.17383 325.23633 C 332.0121 327.07744 311.30017 328.15018 295.03711 328.45703 C 278.77401 328.76388 263.12358 327.99736 248.08789 326.15625 C 233.05224 324.31514 222.15891 325.38984 215.4082 329.37891 C 208.65749 333.36797 201.29454 338.12319 193.31641 343.64648 C 185.33832 349.16981 181.34766 347.94297 181.34766 339.96484 C 181.34766 331.37302 183.95738 325.389 189.17383 322.01367 C 193.08616 319.48214 198.983 318.07282 206.86523 317.78516 z M 364.53906 323.39453 L 363.61719 333.52148 L 351.65039 332.59961 C 355.33261 331.37219 359.62946 328.30413 364.53906 323.39453 z M 339.68359 327.99805 L 342.40234 328.01367 L 344.28711 332.59961 L 337.8418 333.52148 L 339.68359 327.99805 z M 268.80078 329.83789 L 271.5625 338.12305 L 260.51562 335.36133 L 263.27734 330.75977 L 268.80078 329.83789 z M 301.94141 329.83789 L 307.46484 329.83789 L 310.22656 335.36133 L 299.17969 336.2832 L 301.94141 329.83789 z M 280.76758 331.67969 L 283.5293 339.96484 L 274.12891 339.11133 C 275.18573 338.36859 277.39759 335.89212 280.76758 331.67969 z M 475.46484 375.86719 C 499.70603 376.48088 515.20241 382.77112 521.95312 394.73828 C 528.70383 406.70547 530.23691 419.2859 526.55469 432.48047 C 522.87251 445.67504 513.5142 477.12621 498.47852 526.83594 C 483.44283 576.54574 471.4748 611.68133 462.57617 632.24023 C 453.67747 652.7992 423.76137 660.47036 372.82422 655.25391 C 321.88703 650.03732 283.68341 650.64985 258.21484 657.09375 C 232.74623 663.53758 212.34058 660.00922 196.99805 646.50781 C 200.68027 638.52972 204.66893 634.54102 208.96484 634.54102 C 216.32924 636.99582 219.39731 634.84837 218.16992 628.09766 C 215.71512 623.18817 209.27277 623.49425 198.83984 629.01758 L 196.07812 624.41602 C 199.76034 617.05144 204.05524 615.21029 208.96484 618.89258 C 216.94297 620.11996 219.70484 617.97056 217.25 612.44727 C 214.18151 606.92398 205.58972 607.84454 191.47461 615.20898 L 185.95117 605.08398 C 206.81699 597.10585 219.24531 597.10585 223.23438 605.08398 C 227.22343 613.06207 240.26418 619.50442 262.35742 624.41406 C 284.45066 629.32369 308.84507 628.55714 335.54102 622.11328 C 362.23705 615.67023 382.02833 612.29595 394.91602 611.98828 C 407.80375 611.6814 416.85578 603.85616 422.07227 588.51367 C 427.28871 573.17114 436.03459 543.09896 448.30859 498.29883 C 448.30859 487.8659 442.78489 486.33287 431.73828 493.69727 C 420.07797 535.42894 412.71302 562.58517 409.64453 575.16602 C 406.576 587.74701 400.13365 594.6516 390.31445 595.87891 C 380.49525 597.10629 364.69264 600.32652 342.90625 605.54297 C 330.1265 608.60299 317.82167 610.66103 305.99219 611.71484 C 307.96933 607.79632 311.83451 600.36868 317.58984 589.43359 C 340.91046 569.79519 361.1621 546.32144 378.3457 519.01172 C 395.52934 491.70204 420.38598 457.79528 452.91211 417.29102 L 447.38867 411.76758 C 408.72552 452.88553 378.65338 489.09383 357.17383 520.39258 C 335.69432 551.69133 318.51078 571.94293 305.62305 581.14844 C 298.87234 557.82779 312.3734 520.08641 346.12695 467.92188 L 366.37891 467.92188 C 414.86126 405.93806 451.22365 375.2535 475.46484 375.86719 z M 319.43164 467.92188 L 331.39844 467.92188 L 278.00586 563.6582 L 276.16602 563.6582 C 281.07562 531.13203 295.49729 499.22059 319.43164 467.92188 z M 526.55469 498.29883 C 517.96287 552.30447 515.201 592.19525 518.26953 617.9707 C 521.33802 643.74612 521.64621 670.59612 519.19141 698.51953 C 516.73661 726.44291 512.7479 757.7419 507.22461 792.41602 C 501.70128 827.0901 509.98489 851.17827 532.07812 864.67969 L 535.76172 938.32227 C 535.76172 943.84556 534.99325 953.04973 533.45898 965.9375 C 531.92475 978.82519 526.55512 985.26953 517.34961 985.26953 L 482.36914 985.26953 C 475.00471 981.58746 474.08413 978.51944 479.60742 976.06445 C 486.97182 969.31386 486.35741 965.01888 477.76562 963.17773 C 470.40123 963.17773 466.71875 970.54073 466.71875 985.26953 L 458.43359 985.26953 C 452.9103 965.01736 460.88959 954.89258 482.36914 954.89258 L 482.36914 938.32227 L 475.00391 938.32227 C 482.36834 924.20716 486.05078 905.48859 486.05078 882.16797 C 468.25341 858.84732 446.46682 843.50503 420.69141 836.14062 C 322.49926 779.68011 274.93733 724.14085 278.00586 669.52148 C 290.27986 663.38528 322.65359 663.53856 375.125 669.98242 C 427.59645 676.42629 460.27633 667.68044 473.16406 643.74609 C 486.05175 619.81174 503.84776 571.32918 526.55469 498.29883 z M 290.89453 579.30859 L 295.49609 610.60742 C 296.69375 611.2918 297.82044 611.83229 298.875 612.23047 C 293.02612 612.55627 287.2983 612.62824 281.68945 612.44727 C 282.91683 603.85549 285.98493 592.81004 290.89453 579.30859 z M 116.91016 593.11719 C 135.32118 593.11719 148.20787 602.78169 155.57227 622.11328 C 162.93671 641.44483 155.57371 675.35159 133.48047 723.83398 L 99.419922 723.83398 C 77.940413 675.35159 70.269232 641.44483 76.40625 622.11328 C 82.543232 602.78169 96.044302 593.11719 116.91016 593.11719 z M 23.013672 614.28906 L 45.107422 614.28906 C 43.88004 621.03977 43.571856 628.09654 44.185547 635.46094 L 23.013672 635.46094 L 23.013672 614.28906 z M 65.359375 732.11914 L 167.54102 732.11914 L 166.61914 737.64258 L 67.201172 737.64258 L 65.359375 732.11914 z M 67.201172 745.00781 L 166.61914 745.00781 L 164.7793 751.45117 L 69.041016 751.45117 L 67.201172 745.00781 z M 69.041016 759.73633 L 163.85742 759.73633 L 162.9375 766.17969 L 69.960938 766.17969 L 69.041016 759.73633 z M 70.882812 773.54492 L 162.01758 773.54492 L 161.0957 779.98828 L 72.722656 779.98828 L 70.882812 773.54492 z M 313.9082 778.14648 C 339.06993 802.69451 371.90196 826.01613 412.40625 848.10938 C 390.31301 877.56701 379.26758 907.63722 379.26758 938.32227 C 379.88127 946.30036 378.8066 956.1209 376.04492 967.78125 C 373.28331 979.44156 365.45804 985.27148 352.57031 985.27148 L 302.86133 985.27148 C 295.49693 981.58941 294.57632 978.5214 300.09961 976.06641 C 307.46401 969.31581 306.84959 965.01888 298.25781 963.17773 C 290.89337 963.17773 287.21289 970.54268 287.21289 985.27148 L 279.84766 985.27148 C 273.71065 962.56451 283.83741 951.21094 310.22656 951.21094 L 310.22656 938.32227 C 329.86499 924.82082 339.37736 906.10419 338.76367 882.16992 C 339.37736 863.75886 331.09183 829.08366 313.9082 778.14648 z M 73.644531 787.35352 L 160.17578 787.35352 L 159.25586 792.87695 L 73.644531 792.87695 L 73.644531 787.35352 z M 281.68945 947.52734 C 269.41542 956.11916 265.11857 968.39336 268.80078 984.34961 L 258.67578 984.34961 C 254.99356 959.80154 262.6647 947.52734 281.68945 947.52734 z M 460.27539 948.44922 C 448.00139 956.42727 443.70645 968.70153 447.38867 985.27148 L 437.26172 985.27148 C 433.57951 960.72348 441.25068 948.44922 460.27539 948.44922 z " />
</svg>
