<?xml version="1.0" encoding="UTF-8" standalone="no"?>
<svg
   width="1492.8988"
   height="1800"
   version="1.1"
   id="svg2"
   sodipodi:docname="E148N.svg"
   inkscape:version="1.4.3 (0d15f75, 2025-12-25)"
   xmlns:inkscape="http://www.inkscape.org/namespaces/inkscape"
   xmlns:sodipodi="http://sodipodi.sourceforge.net/DTD/sodipodi-0.dtd"
   xmlns="http://www.w3.org/2000/svg"
   xmlns:svg="http://www.w3.org/2000/svg"
   xmlns:rdf="http://www.w3.org/1999/02/22-rdf-syntax-ns#"
   xmlns:cc="http://creativecommons.org/ns#"
   xmlns:dc="http://purl.org/dc/elements/1.1/">
  <title
     id="title2">E148N</title>
  <defs
     id="defs2" />
  <sodipodi:namedview
     id="namedview2"
     pagecolor="#ffffff"
     bordercolor="#000000"
     borderopacity="0.25"
     inkscape:showpageshadow="2"
     inkscape:pageopacity="0.0"
     inkscape:pagecheckerboard="0"
     inkscape:deskcolor="#d1d1d1"
     inkscape:zoom="0.25534412"
     inkscape:cx="1122.0153"
     inkscape:cy="992.7779"
     inkscape:window-width="1680"
     inkscape:window-height="998"
     inkscape:window-x="-8"
     inkscape:window-y="-8"
     inkscape:window-maximized="1"
     inkscape:current-layer="svg2" />
  <path
     id="path1"
     style="fill:#000000;stroke:none;stroke-width:65.9962"
     d="m 649.33398,10.041016 c -42.93624,22.028125 -31.01337,89.422421 -49.69921,130.556644 -1.22027,29.54865 -13.28324,42.39254 -35.66211,16.85546 -18.34146,-13.35651 -44.19911,-40.3919 -34.94141,1.2793 -0.34607,86.59624 -0.6929,173.19282 -1.03906,259.78906 -10.44863,-41.08986 -15.5942,-84.22373 -31.375,-123.52343 -33.07103,-41.59728 -101.46969,11.3971 -90.28907,55.20507 20.67631,46.99408 44.46878,92.53106 67.0879,138.60352 -33.89671,29.19921 -50.83249,71.2004 -79.82227,106.43555 -21.51788,37.66037 -35.99229,79.75602 -41.32813,122.77148 11.22341,12.82518 33.40818,3.44649 49.4336,6.3125 30.55213,4.66708 36.68246,-38.99845 62.13672,-51.20117 36.42159,-51.88455 84.24275,6.62168 92.31836,48.00391 5.28701,32.41911 41.86079,74.98143 10.41406,101.54882 -43.67738,43.95453 -79.13547,95.68809 -126.60156,135.84766 -28.69104,20.93352 -11.82128,76.44031 -22.68946,89.35741 H 274.52344 C 230.05697,998.54284 196.04934,935.41611 197.33594,867.44727 197.27429,812.66934 138.80657,787.85032 91.435547,792.78125 41.68067,789.51854 -1.6937481,831.25059 0.64257812,881.34375 -5.9582842,958.42645 38.882282,1032.5139 105.40234,1069.7012 c 62.72788,41.5036 139.32957,49.4674 212.66797,46.6855 h 211.03125 c 76.0914,100.8636 174.63641,186.0403 289.66602,239.3906 v 448.67 h 93.01953 v -419.3106 c 101.40289,33.1286 207.50349,-13.7389 292.18359,-68.0996 41.4068,-25.5664 77.3841,-77.6518 53.9727,-126.8984 -3.3066,-27.8998 -57.5111,-63.8772 -50.4375,-73.752 h 277.0859 v -68.5039 h -315.3301 c 25.1688,-49.14763 27.3093,-106.07746 48.2735,-156.64842 24.5614,24.35086 36.1515,85.52671 81.9843,70.61328 58.5373,-35.62434 63.3216,-111.25806 85.2637,-169.80274 17.9805,-47.2749 49.9216,-90.72546 56.3398,-141.70508 -18.6854,-25.16209 -14.6119,-83.568 -61.8261,-71.43164 -18.7615,13.65181 -56.2717,10.31371 -54.0762,48.15235 -17.6985,70.3368 -19.8849,143.29085 -32.918,214.27148 -19.2646,-19.42527 -63.3042,-86.92494 -110.5351,-46.52539 -25.3363,11.70959 -36.3306,64.21232 -48.9395,67.75586 -13.6223,-35.76515 -56.205,-65.71151 -34.1894,-106.18164 31.87,-135.46662 67.0391,-270.3544 97.1601,-406.09961 -5.7276,-48.52569 -59.9453,-16.37604 -51.8652,20.12109 -13.0642,35.4086 -14.168,95.95136 -34.7207,115.625 -19.2567,-4.60049 -62.8506,-63.72617 -56.2188,-19.63867 -0.3761,94.1788 -0.7528,188.35636 -1.1289,282.53516 -55.67818,-26.84574 -116.77962,3.42846 -174.18161,7.21289 -51.58713,10.77747 -118.05395,9.54172 -149.18554,-40.62891 -33.96832,-53.87613 -41.22033,-119.72702 -73.98438,-174.49609 -36.90141,-36.4723 2.50695,-77.13478 21.0293,-111.57813 17.38501,-34.04831 54.29915,-70.65693 31.9707,-111.09375 -15.81391,-44.58534 -90.96664,-61.155 -91.52929,1.50586 -7.84182,18.88209 -29.21695,78.98974 -29.92579,75.46875 C 614.20986,275.54296 645.47645,156.32561 671.85742,36.267578 671.77292,23.671535 662.7341,10.722674 649.33398,10.041016 Z M 564.66602,205.92969 c 31.57371,4.06384 26.8097,22.7183 18.82617,46.21875 -6.44264,26.66288 -12.88548,53.32539 -19.32813,79.98828 0.16766,-42.06928 0.33429,-84.13776 0.50196,-126.20703 z m 89.61132,115.13867 c 55.74267,26.03472 -11.08309,74.06 -22.84179,108.68359 -30.30929,40.22369 -59.3627,90.74098 -18.14844,134.67578 39.19528,69.26741 43.51213,158.85586 107.50195,212.67188 53.06575,42.48555 127.26591,27.86446 188.98633,18.41211 45.09665,-3.98103 105.13781,-23.83515 140.58791,13.83203 12.0327,15.00797 37.086,57.43605 35.041,63.96094 -25.8497,-33.11033 -80.7053,-87.01688 -120.47657,-45 -13.56668,27.19988 -8.66864,56.85848 -47.48046,56.55078 -37.55107,15.62528 -66.49877,48.00371 -107.99805,55.58789 -27.5916,10.78088 -87.22833,17.00913 -91.65625,-12.91211 23.78241,-11.26245 9.23662,-66.2294 2.43359,-71.32617 -20.77415,42.28215 -54.49612,92.33657 -108.44922,87.37304 -44.86056,1.08071 -104.50365,14.6565 -113.25976,66.71678 11.56092,43.777 68.10825,5.8961 100.83203,15.8203 14.97729,0.35 62.14626,1.4949 21.27148,3.0703 -52.17623,-4.3385 -115.92175,25.3082 -160.51562,-3.0878 -8.42624,-51.33352 56.23281,-68.9017 76.84765,-108.98832 28.72376,-32.60344 58.50944,-64.2496 88.39649,-95.78321 C 608.77586,763.41859 599.18045,701.74548 569.14453,648.91602 548.74051,617.84126 501.2128,605.43672 479.875,605.5957 c -1.54296,-10.30996 -14.63012,-4.3858 -14.83789,-4.48828 -0.0275,-0.082 2.86851,-1.54779 11.29101,-6.76758 27.15754,-3.38968 71.04226,-52.61879 58.51954,-65.75781 -20.2826,-6.96938 -77.7188,12.57533 -32.98243,-9.51172 36.80186,-19.89629 95.38822,-4.82006 98.79883,-59.16601 18.18116,-46.09845 33.81765,-93.6146 53.61328,-138.83594 z m -183.38476,1.38086 c 8.684,46.62838 24.18816,97.54551 30.68164,141.125 -13.91017,-42.6519 -58.67758,-86.84594 -54.87695,-128.79492 5.96273,-7.131 14.65022,-12.4325 24.19531,-12.33008 z m 617.72072,197.51953 c 31.5691,4.06587 26.8105,22.71726 18.8242,46.21875 -6.4426,26.66227 -12.8836,53.32603 -19.3262,79.98828 0.1678,-42.06863 0.3343,-84.1384 0.502,-126.20703 z m 253.1035,223.09961 c 31.3344,10.00005 -0.5401,35.59431 -1.1856,63.13476 -4.2642,13.97955 -16.0891,55.99846 -8.2519,18.3086 4.4091,-26.99426 6.3243,-54.29723 9.4375,-81.44336 z m -126.5313,90.38867 c 23.3371,3.89355 45.1071,37.89248 12.045,8.49609 -11.8347,-5.36013 -27.8254,0.21031 -31.7598,1.78126 2.1072,-0.9544 8.0795,-3.82842 19.7148,-10.27735 z M 99.091797,839.35547 c 63.790233,6.0768 30.556383,86.10022 59.488283,123.66992 12.75194,35.39655 57.24957,82.41101 62.80469,101.17381 C 157.52631,1043.6337 79.209055,1016.1952 60.041016,943.99609 51.925629,908.41099 46.583725,840.70886 99.091797,839.35547 Z m 899.021483,10.32812 c 39.06882,6.91746 74.50912,69.10929 94.44332,74.04883 -0.6141,-20.77957 -5.7426,-62.28982 8.0684,-21.4414 4.0698,27.28455 40.3275,75.71824 52.3516,49.20898 -4.1507,16.36922 -9.8034,37.4262 -12.4493,46.07422 0.1078,35.35438 -43.6769,56.83988 -52.7246,12.35158 -16.4076,-44.0937 -36.3478,-87.84825 -71.6504,-120.23635 5.2666,54.196 24.8304,105.55426 48.836,154.02735 H 859.87109 c 27.93329,-46.51548 91.21854,1.9288 134.98243,-17.209 55.12678,-9.1122 21.68358,-61.65398 8.55858,-92.78124 -5.00313,-23.64695 -27.07416,-65.55361 -5.29882,-84.04297 z m 268.48832,38.95508 c 15.5847,20.17662 60.8537,0.46583 24.9336,26.38477 -13.1716,-0.0847 -19.2424,-15.32544 -24.9336,-26.38477 z M 955.39062,918.8125 c 8.96583,29.4045 55.12548,84.2278 -7.48242,71.21875 -29.99108,-2.3294 -87.0392,-7.72559 -99.99609,-14.0957 39.26487,-13.30937 65.55927,-48.78601 107.47851,-57.12305 z m -267.97265,50.7793 c 16.3874,6.94906 74.24448,39.5206 28.25195,22.74218 -25.86715,10.01022 -69.59636,-5.02568 -103.56836,-3.63671 -22.50328,-0.81872 -41.41613,-0.96525 -7.28711,-2.10938 27.50299,-1.64557 61.02835,4.09408 82.60352,-16.99609 z m 104.4707,21.02343 c 2.28263,42.31667 -81.3799,-8.5892 -29.8789,3.16016 10.02779,-0.22218 20.00176,-1.47368 29.8789,-3.16016 z m 56.69922,25.96487 c 6.35054,0.4801 -13.10669,7.9924 -4.45898,0.289 2.11777,-0.2833 3.55176,-0.3576 4.45898,-0.289 z m -184.66016,12.7676 c 28.36159,-0.2756 28.73132,19.2405 0,0 z m 113.58789,9.0761 c 9.07233,15.3579 -15.62645,10.1411 0,0 z m 86.42579,77.0801 c 11.37891,0.2722 18.44216,4.8599 13.57617,21.377 v 149.6386 c -13.62884,-8.4708 -32.41575,-14.0335 -26.11133,-33.7383 v -136.3945 c 4.47001,-0.5863 8.74219,-0.9735 12.53516,-0.8828 z m -199.39063,0.8828 h 154.2168 v 140.7735 c -63.96736,-30.3061 -113.14921,-84.5025 -154.2168,-140.7735 z m 247.23633,0 h 116.68169 c 61.9383,38.1894 130.9575,74.0027 171.8632,136.4453 26.3511,43.3633 -26.2624,76.6728 -64.0918,79.3653 -76.2811,9.6337 -152.00758,-12.1465 -224.45309,-33.6328 z m -60.38086,249.9297 c 16.6009,5.0151 32.36513,10.5945 26.11133,31.0313 v 363.4375 c -17.88005,2.3453 -32.59933,1.5306 -26.11133,-20.4922 z"
     sodipodi:nodetypes="ccccccccccccccccccccccccccccccccccccccccccccccccccccccccccccccccccccccccccccccccccccccccccccccccccccccccccccccccccccccccccccccccccccccccscsccccsccccsccccccccccccccc" />
  <metadata
     id="metadata2">
    <rdf:RDF>
      <cc:Work
         rdf:about="">
        <dc:title>E148N</dc:title>
        <dc:creator>
          <cc:Agent>
            <dc:title>S. J. P. Thomas </dc:title>
          </cc:Agent>
        </dc:creator>
        <dc:description>Group of E148M and R12A made by S. Rosmorduc
</dc:description>
      </cc:Work>
    </rdf:RDF>
  </metadata>
</svg>
