<?xml version="1.0" encoding="UTF-8" standalone="no"?>
<svg
   width="1500"
   height="1000"
   id="svg2277"
   sodipodi:version="0.32"
   inkscape:version="1.4.2 (f4327f4, 2025-05-13)"
   sodipodi:docname="E215A.svg"
   inkscape:output_extension="org.inkscape.output.svg.inkscape"
   sodipodi:modified="true"
   version="1.1"
   xmlns:inkscape="http://www.inkscape.org/namespaces/inkscape"
   xmlns:sodipodi="http://sodipodi.sourceforge.net/DTD/sodipodi-0.dtd"
   xmlns="http://www.w3.org/2000/svg"
   xmlns:svg="http://www.w3.org/2000/svg"
   xmlns:rdf="http://www.w3.org/1999/02/22-rdf-syntax-ns#"
   xmlns:cc="http://creativecommons.org/ns#"
   xmlns:dc="http://purl.org/dc/elements/1.1/">
  <metadata
     id="metadata2284">
    <rdf:RDF>
      <cc:Work
         rdf:about="">
        <dc:format>image/svg+xml</dc:format>
        <dc:type
           rdf:resource="http://purl.org/dc/dcmitype/StillImage" />
      </cc:Work>
    </rdf:RDF>
  </metadata>
  <defs
     id="defs2282" />
  <sodipodi:namedview
     inkscape:window-height="998"
     inkscape:window-width="1680"
     inkscape:pageshadow="2"
     inkscape:pageopacity="0.0"
     guidetolerance="10.0"
     gridtolerance="10.0"
     objecttolerance="10.0"
     borderopacity="1.0"
     bordercolor="#666666"
     pagecolor="#ffffff"
     id="base"
     inkscape:showpageshadow="2"
     inkscape:pagecheckerboard="0"
     inkscape:deskcolor="#d1d1d1"
     inkscape:zoom="2.8026667"
     inkscape:cx="719.85014"
     inkscape:cy="464.73597"
     inkscape:window-x="-8"
     inkscape:window-y="-8"
     inkscape:window-maximized="1"
     inkscape:current-layer="svg2277" />
  <path
     id="path2279"
     style="fill:#000000;stroke:none;stroke-width:1"
     d="m 642.89648,0.01757813 c -0.64615,-0.02637825 -1.31273,-0.0239382 -1.99804,0.0097656 -3.65502,0.17975389 -9.2568,2.02989437 -13.81055,3.94726567 C 574.36008,42.322082 526.68079,77.975545 483.06055,112.48828 439.44028,147.001 402.29351,190.9893 372.57422,244.67578 313.13567,217.83253 256.52965,204.25813 200.92578,205.2168 145.32193,206.1755 84.602828,210.28859 19.412109,215.08203 -0.72029172,219.87545 -4.9439809,230.40798 5.6015625,248.62305 23.816592,259.16859 56.370915,279.5312 106.22266,307.8125 c 49.8517,28.28125 91.11159,43.99424 120.35156,47.34961 29.23995,3.35543 63.28954,0.73755 102.5957,-7.89063 -14.38029,32.59532 -15.93086,66.10834 -3.94726,100.6211 11.98354,34.51273 15.61734,75.88318 9.86523,124.29687 -5.75212,48.4137 12.10318,130.14261 55.24414,246.62305 43.14091,116.48045 136.35908,169.28485 280.16211,155.86328 143.80306,-13.42158 269.94235,-10.74654 376.83596,9.86524 106.8936,20.61178 188.6224,20.61178 246.623,0 58.0005,-20.61178 103.0601,-49.90107 136.1348,-86.81055 33.0747,-36.90949 45.0452,-85.60267 33.541,-146 22.0499,-33.55398 39.848,-67.12235 53.2695,-102.59375 13.4216,-35.47142 14.5482,-106.72308 5.92,-215.05469 26.8433,-16.29771 41.4869,-42.37729 43.4043,-74.97265 l 9.8652,-94.70313 c 0.9584,-14.38029 -7.4334,-22.77238 -25.6484,-25.64844 -18.215,0 -29.651,6.30889 -31.5684,19.73047 l -5.918,96.67383 c -7.6695,20.13241 -17.0202,20.13241 -25.6484,0 l -9.8652,-96.67383 c -1.9173,-13.42159 -12.3947,-17.70253 -31.5684,-15.78516 -17.2563,2.87606 -24.6345,10.2542 -23.6758,23.67579 l 9.8652,96.67578 c 1.9174,30.67799 17.5218,54.72963 43.4063,71.02734 0,124.62927 -16.7289,191.65532 -49.3242,201.24219 -22.0498,-23.0085 -42.947,-41.76528 -61.1621,-53.26953 -46.0169,-28.76065 -62.2664,-63.82418 -49.3243,-104.56836 12.9423,-40.74421 -0.1549,-65.44109 -39.4609,-76.94531 -38.3407,-11.22166 -144.5829,-43.03015 -309.75585,-90.75586 h -1.97265 l -3.94727,-3.94727 c 29.43447,-27.78537 33.30902,-51.4213 11.83789,-71.02539 -39.30615,-42.18222 -63.46843,-73.61203 -74.97265,-94.70312 -5.75211,-10.54556 -13.31462,-16.91896 -21.70313,-17.75782 -8.38851,-0.83886 -18.56885,2.97004 -29.59375,11.83789 -22.04983,17.73572 -25.20423,49.58956 -9.86523,92.73047 8.59307,9.00231 14.63047,17.69408 19.73046,25.64844 -3.29565,4.86255 -6.28893,10.34957 -7.89257,15.7832 l -25.64844,-3.94531 c -26.84329,-7.66948 -41.54414,-5.47375 -45.37891,9.86523 -8.62818,31.63668 -6.00851,53.60315 7.89258,65.10743 13.90097,11.50423 35.33285,20.96753 63.13477,29.5957 -3.83483,23.96718 -20.02902,67.8449 -47.35157,128.24219 -27.32254,60.39725 -51.37426,102.83892 -71.02734,128.24414 -19.65308,25.40526 -45.41916,35.34587 -80.89062,29.59375 -35.47141,-5.75218 -62.6775,-25.58017 -80.89258,-57.2168 -18.21503,-31.63667 -21.84882,-55.20704 -9.86524,-71.02539 11.98355,-15.81835 29.3043,-25.81624 53.27149,-31.56836 l 53.26953,1.97266 c 12.46295,-4.79346 18.82707,-3.66696 21.70312,5.91992 5.75225,13.4216 21.46706,15.50483 47.35157,5.91797 4.79323,13.4216 16.22742,17.58999 31.5664,11.83789 18.21506,-6.71085 21.36953,-25.58011 9.86524,-57.2168 19.17376,-5.75211 25.48258,-18.25727 19.73047,-35.51367 -0.95871,-12.46292 -5.18238,-22.9935 -13.81055,-33.53906 -15.33899,-42.18226 -45.64424,-61.05154 -88.78516,-57.2168 -23.96717,-8.62817 -41.82061,-16.48561 -55.24219,-23.67578 -13.42164,-7.19012 -31.70104,-12.90716 -53.27148,-15.7832 -21.57045,-2.8761 -38.35461,-11.21287 -51.29687,-23.67579 -9.68912,-9.33024 -21.1999,-13.44314 -34.01758,-12.50781 16.70595,-4.21924 34.92287,-12.1774 53.74804,-24.97851 23.96714,-16.29764 46.46827,-52.85454 67.08008,-106.54102 C 639.8071,76.557695 652.95944,40.904227 660.62891,21.730469 657.93254,7.5748734 652.58883,0.41325185 642.89648,0.01757813 Z m -7.91601,17.76757787 7.89062,1.972656 c -110.24903,90.116598 -182.56991,168.689088 -219,236.755858 l -19.72851,-1.97265 C 429.06846,205.64796 460.01695,164.75687 498.84375,130.24414 537.67059,95.731408 583.21137,58.05 634.98047,17.785156 Z m -5.91992,23.675782 C 589.75439,157.46204 547.84929,223.36357 502.79102,236.78516 l -45.37891,7.89062 c 24.92587,-40.26489 47.9636,-71.6927 69.05469,-94.70117 21.09112,-23.0085 54.65941,-59.620654 102.59375,-108.513672 z m 236.75781,120.351562 1.97266,1.97266 c -3.83483,20.13245 0.33468,36.80602 11.83789,47.35156 l 3.94531,-3.94727 c -4.79321,-7.66948 -5.80749,-16.11682 -1.97266,-27.62109 l 9.86524,7.89258 c -6.71082,5.75216 -5.64156,17.24141 3.94531,33.53906 l 3.94531,-5.91797 1.97461,-19.73047 c 45.05834,37.3888 56.66009,61.4405 37.48633,71.02735 l -3.94727,19.73047 -41.43164,-29.59571 c -0.10731,-0.69032 0.11361,-1.2935 0,-1.97265 -2.5835,-15.37399 -6.92819,-27.92365 -15.7832,-35.51368 -23.96723,-18.21503 -27.17695,-37.0824 -11.83789,-57.21484 z M 21.384766,226.91992 c 65.190721,0 123.826574,2.02795 175.595704,3.94531 51.76907,1.91734 107.24859,15.54902 165.72851,41.4336 23.96719,6.7108 48.01884,12.42779 71.02735,15.7832 23.00846,3.35537 40.80656,3.88996 53.26953,1.97266 12.46292,-1.91734 27.10856,2.36155 43.40625,15.7832 16.29766,13.4216 32.06786,21.27904 49.32422,23.67578 17.25638,2.39667 55.95367,15.49376 114.43359,39.46094 31.63416,-3.95435 47.87076,31.1162 51.29688,43.4043 9.58688,7.66948 14.82456,18.14671 15.7832,31.56836 1.91741,5.75211 -1.23719,7.89062 -9.86523,7.89062 -22.04982,0 -38.83395,-7.3781 -51.29688,-23.67578 -15.7487,4.91352 -32.79322,22.78105 -31.56836,37.48828 -70.94285,3.83474 -120.76064,9.18292 -151.91797,19.72852 -31.15736,10.54554 -61.03852,3.16745 -90.75781,-23.67579 6.71081,23.00851 16.76399,40.21669 33.54102,49.32422 16.77707,9.10749 45.47646,7.55893 82.86523,-3.94531 -8.62818,7.66948 -16.48563,18.14673 -23.67578,31.56836 -7.19011,13.42159 -2.91123,37.04924 15.7832,73 18.6944,35.95077 46.37984,61.01444 80.89258,72.99805 34.51276,11.98361 65.46316,14.06877 94.70312,5.91992 29.23996,-8.14885 64.78093,-56.78685 104.56641,-144.02734 30.22923,-66.2857 51.20704,-122.79649 65.10938,-171.64844 l 31.5664,23.67578 -53.26953,266.35156 C 815.74357,689.8458 788.5375,726.45789 777.0332,773.43359 l 17.75782,15.78321 c 6.71082,-33.55398 38.14056,-67.06706 94.70312,-100.6211 l 3.94531,-41.43359 c 74.7776,-11.50429 124.00545,-9.36377 147.97265,7.89258 23.9672,17.25641 52.1872,33.98515 82.8652,49.32422 7.6694,23.00845 16.1169,48.07412 27.6211,73 l 25.6485,-15.78321 c -44.0995,-97.78607 -38.9173,-169.57231 13.8105,-217.02734 52.7278,-47.455 62.6151,-78.29293 27.6231,-90.75586 -34.4485,-12.26934 -124.3596,-41.20886 -262.40628,-88.78516 7.98672,-5.71465 14.17388,-13.41197 17.75781,-21.70312 148.85777,42.83495 250.27337,69.91538 278.18747,78.91992 29.7193,9.58685 37.6322,34.65249 25.6485,73 -11.9835,38.34744 3.6763,72.93166 45.3789,104.56836 41.7029,31.63669 69.4989,84.97573 84.8379,157.83594 15.339,72.86026 -15.0749,127.86233 -92.7286,165.73047 -77.6537,37.86813 -169.2125,45.24627 -272.2714,23.67578 C 940.32596,925.48426 820.43827,920.24658 684.30469,931.27148 548.17109,942.2964 461.68391,894.6724 421.89844,789.2168 382.11292,683.7612 364.31479,609.41236 368.62891,566.27148 c 4.31407,-43.14091 -0.33364,-83.01806 -11.83789,-122.32421 -11.50422,-39.3062 -8.40705,-75.86307 7.89062,-106.54102 7.66948,-2.87611 8.74071,-9.24022 3.94727,-21.70313 -23.00851,-0.95868 -51.33913,3.265 -86.81055,13.81055 l 76.94531,-39.45898 C 273.44051,253.62455 159.32512,235.82649 17.439453,236.78516 Z M 743.49414,440 l 1.97266,-5.91797 c -19.17369,-7.66953 -37.02904,-12.90716 -55.24414,-15.7832 L 688.25,424.2168 c 18.64836,4.38901 38.46539,9.00254 55.24414,15.7832 z m -16.94477,-56.85804 c -11.50422,-2.87605 -18.25731,-2.2189 -24.48882,1.61585 -6.23143,3.83477 -6.76608,10.14168 -1.97266,19.72852 4.79321,9.58687 16.33992,10.65806 35.51367,3.94726 l -3.94531,-7.89257 c -12.46295,3.83477 -19.25114,2.28611 -19.73047,-3.94532 -0.47982,-6.23151 5.23774,-7.83734 15.7832,-5.91992 z M 43.087891,242.70312 c 68.066779,8.62818 117.294679,15.41642 147.972659,19.73047 30.67799,4.31411 68.35939,14.25478 112.45898,29.59375 l -41.43164,23.67578 c -43.14091,18.21503 -115.46181,-6.85063 -218.999999,-73 z M 1544.457,262.27344 c 0.6386,-0.0147 1.3162,0.0403 2.0352,0.16015 6.7108,0.95872 8.8512,6.19633 7.8926,15.78321 l -3.9453,78.91992 c 0,27.80193 -16.6736,45.65534 -47.3516,55.24219 3.8348,109.2903 0.6802,179.41543 -9.8652,209.13476 -10.5456,29.71928 -25.1893,59.00862 -43.4043,86.81055 l -7.8926,-25.64844 c 43.1409,-27.80187 61.953,-117.86562 55.2422,-270.29687 -29.7194,-10.54559 -45.377,-28.3437 -45.377,-53.26953 l -7.8926,-74.97266 c -0.9587,-10.54554 1.1816,-14.82646 7.8926,-15.78516 5.7522,-1.91734 8.9046,1.29237 9.8633,11.83789 l 7.8926,78.91993 c 0.9585,11.50423 6.1961,19.89631 15.7832,25.64843 9.5869,5.75216 20.0088,4.25884 29.5957,-1.97265 9.587,-6.23148 14.8245,-15.16014 15.7832,-27.62305 l 5.9199,-80.89063 c 0.8389,-8.38849 3.3579,-11.89486 7.8281,-11.99804 z m -665.42966,7.03906 c 0.87091,3.7e-4 1.73563,0.27834 2.57422,1.01172 l 69.05469,53.27148 c 10.28199,6.88911 1.78067,29.93689 -9.86523,19.72852 l -71.02735,-53.26953 c -5.98647,-4.59566 0.0748,-16.78317 5.91797,-19.73047 1.09524,-0.55262 2.22597,-1.01219 3.3457,-1.01172 z m -68.45312,14.82422 7.89258,1.97266 c -2.52225,10.08935 1.20745,18.32969 5.91797,25.64843 -0.17047,0.59916 0.15783,1.36164 0,1.97266 -1.45275,5.56857 -2.31801,11.98439 -1.97266,17.75781 l 3.94531,3.94531 -5.91797,-1.97265 c -12.46294,-3.83475 -15.61734,-20.56361 -9.86523,-49.32422 z m 23.67578,5.91797 h 3.94531 c -1.4963,1.2016 -2.62958,2.47389 -3.94531,3.94531 0.2336,-1.33152 -0.39775,-2.58715 0,-3.94531 z m 22.75391,18.89843 c 1.00384,-0.0315 1.98538,0.21521 2.89453,0.83204 l 71.02734,53.26953 c 11.37544,8.20757 0.4984,26.99527 -9.86523,17.75781 L 850.0332,327.54102 c -6.56587,-5.40235 -2.01837,-14.81167 3.94727,-17.75586 0.99438,-0.49069 2.01959,-0.8005 3.02344,-0.83204 z m -346.32227,6.75 c -11.02491,0.47934 -21.55547,4.64776 -33.53906,11.8379 9.5869,28.76061 32.67988,35.06943 71.02734,19.73046 l 13.81055,5.91797 5.91797,-7.89062 C 553.51815,339.54671 544.16737,332.22386 542.25,323.5957 c -10.06622,-6.23145 -20.54346,-8.37193 -31.56836,-7.89258 z m 438,76.94727 c 135.70486,46.4468 218.64036,72.32002 242.67576,78.91797 24.4466,6.71081 16.1097,27.07342 -23.6758,59.18945 -39.7855,32.116 -58.063,77.65482 -53.2695,136.13477 -17.2563,-12.46294 -37.2502,-27.58787 -63.1348,-43.40625 C 1025.3927,607.668 973.12096,602.965 897.38477,609.67578 l 45.3789,-209.13476 c 2.44964,-2.23062 4.41094,-5.41585 5.91797,-7.89063 z m -268.32422,51.29688 h 3.94727 c 4.79321,8.62817 15.8034,13.38651 33.53906,15.7832 17.73574,2.39673 28.74761,11.32338 33.54102,27.62109 l -45.37891,-19.72851 7.89258,17.75586 c -10.54552,2.87601 -19.95157,-5.57133 -27.6211,-27.6211 z"
     sodipodi:nodetypes="sscscsccsscssssssscsccccccccccccccssccccssscccccscssssscccccccccssscsscsccccsccccscccccccccccccccccscsssscccsccscscssssscccccccscccssccssssssssssccccccccccccscccccccscccsccccsccccccccssccssccccssccccccccccccsccccssscccccscsscscccccsccccc" />
</svg>
