<?xml version="1.0" encoding="UTF-8" standalone="no"?>
<svg
   width="800"
   height="1000"
   id="svg2445"
   sodipodi:version="0.32"
   inkscape:version="1.4.2 (f4327f4, 2025-05-13)"
   sodipodi:docname="E283.svg"
   inkscape:output_extension="org.inkscape.output.svg.inkscape"
   version="1.0"
   xmlns:inkscape="http://www.inkscape.org/namespaces/inkscape"
   xmlns:sodipodi="http://sodipodi.sourceforge.net/DTD/sodipodi-0.dtd"
   xmlns="http://www.w3.org/2000/svg"
   xmlns:svg="http://www.w3.org/2000/svg"
   xmlns:rdf="http://www.w3.org/1999/02/22-rdf-syntax-ns#"
   xmlns:cc="http://creativecommons.org/ns#"
   xmlns:dc="http://purl.org/dc/elements/1.1/">
  <metadata
     id="metadata2452">
    <rdf:RDF>
      <cc:Work
         rdf:about="">
        <dc:format>image/svg+xml</dc:format>
        <dc:type
           rdf:resource="http://purl.org/dc/dcmitype/StillImage" />
      </cc:Work>
    </rdf:RDF>
  </metadata>
  <defs
     id="defs2450">
    <inkscape:perspective
       sodipodi:type="inkscape:persp3d"
       inkscape:vp_x="0 : 991.02286 : 1"
       inkscape:vp_y="0 : 1000 : 0"
       inkscape:vp_z="12.557948 : 991.02286 : 1"
       inkscape:persp3d-origin="6.2789741 : 988.02566 : 1"
       id="perspective2454" />
  </defs>
  <sodipodi:namedview
     inkscape:window-height="998"
     inkscape:window-width="1680"
     inkscape:pageshadow="2"
     inkscape:pageopacity="0.0"
     guidetolerance="10.0"
     gridtolerance="10.0"
     objecttolerance="10.0"
     borderopacity="1.0"
     bordercolor="#666666"
     pagecolor="#ffffff"
     id="base"
     showgrid="false"
     inkscape:zoom="2.7024336"
     inkscape:cx="150.79001"
     inkscape:cy="1031.4777"
     inkscape:window-x="-8"
     inkscape:window-y="-8"
     inkscape:current-layer="svg2445"
     inkscape:showpageshadow="2"
     inkscape:pagecheckerboard="0"
     inkscape:deskcolor="#d1d1d1"
     inkscape:window-maximized="1" />
  <path
     id="path2569"
     style="fill:#000000;stroke:none;stroke-width:0.999999"
     d="m 450.70312,0 c -27.52044,5.3698411 -41.74023,10.953705 -41.74023,15.652344 -26.84924,-6.7123203 -44.85051,-3.722469 -53.91211,8.695312 -9.06162,12.417745 -15.7747,17.390623 -19.13086,17.390625 h -97.39258 c -17.45201,2.013719 -29.4114,7.201782 -34.78125,13.914063 -6.71233,11.410921 -10.43554,27.887145 -10.43554,48.695316 0,20.13692 7.0487,34.87486 19.13086,46.95703 8.05475,4.02739 11.8382,8.08429 12.17382,10.43359 0.33558,2.3493 -2.25844,4.60773 -6.95703,6.95703 -4.69866,2.34929 -6.16342,5.40131 -3.47851,10.43555 2.68494,5.03425 4.48536,11.34952 3.47851,17.39062 -1.00686,6.04108 12.87731,9.76435 41.74024,10.43555 h 102.60742 c -13.42464,10.73972 -28.04024,24.95753 -43.47852,41.73828 -15.43831,16.78077 -38.41241,48.66617 -71.30273,95.65235 l 36.52148,27.82617 c -26.178,44.9725 -39.60417,76.06429 -38.26171,92.17383 -2.68495,4.69865 -1.28029,8.08626 1.74023,10.43554 3.02053,2.3493 6.40618,2.2872 10.43359,-1.74023 4.02737,-1.3425 7.47518,-2.80731 12.17383,-3.47852 -4.69867,4.69859 -11.53211,9.27567 -22.60742,15.65235 -11.0753,6.3767 -30.14558,12.02273 -55.65234,17.39258 -15.00976,-4.41465 -28.76291,-6.60541 -41.74024,-8.69727 L 22.876953,180.86914 c -2.231179,-7.43366 -8.229933,-8.9849 -13.9140624,-6.95703 -5.6841295,2.02786 -10.1157842,8.44802 -8.69531248,13.91406 l 38.25976588,328.69531 62.609376,1.74024 c -0.95794,1.37037 -2.612847,2.06005 -3.478517,3.47656 -1.342441,21.47939 10.223077,38.62879 33.044917,48.69727 l 8.69532,-1.74024 h 1.73828 l 20.86914,43.47852 c 9.46538,11.19121 26.23124,5.31237 29.56641,-15.65235 L 177.6582,563.47852 c 14.5208,-2.13371 27.65784,-4.74568 40,-8.69532 4.02738,60.41077 15.31749,108.3746 34.78321,142.60742 v 109.56641 c 0,42.95874 -12.47952,82.01329 -40,118.25977 L 179.39844,920 c -28.86293,7.38355 -43.47852,29.96181 -43.47852,69.56445 0,7.38354 18.3369,10.43555 53.91211,10.43555 h 123.47852 l 27.82617,-102.60938 c 21.47937,-4.69871 31.3047,-15.65113 31.30469,-34.78124 0,-19.13009 6.77331,-45.37145 20.86914,-78.26172 l 36.52148,10.43554 c 22.82184,33.56154 33.04492,61.3279 33.04492,83.47852 0,8.72598 -2.25843,26.26925 -6.95703,50.43359 L 419.39844,920 C 399.93276,917.98651 388.6426,940.44415 384.61523,986.08789 382.60152,996.15631 387.51417,1000 400.26758,1000 h 180.86914 c 7.38349,-7.38353 7.44563,-24.71351 1.74023,-53.91211 -5.70546,-29.19851 -6.95709,-52.11439 -6.95703,-69.56641 16.10952,-10.73971 16.50531,-30.93917 1.73828,-59.13086 -44.97249,-67.7943 -58.39669,-130.77157 -38.25976,-187.82617 4.6986,21.4794 13.66812,54.03604 26.08594,95.65235 12.41777,41.6163 28.16256,81.00843 46.95703,118.26172 18.79446,37.25334 58.12444,89.3984 116.52148,156.52148 h 41.74023 C 768.68963,993.2877 750.2904,942.60743 715.05078,846.95703 679.81114,751.30664 654.36338,645.55162 640.26758,530.43555 626.17166,415.31943 617.47559,314.75054 612.44141,227.82617 607.40711,140.90177 595.04996,80.914399 575.91992,48.695312 556.78981,16.476228 515.14124,0 450.70312,0 Z m 43.47657,15.652344 c -33.56153,22.150605 -50.4336,36.766232 -50.4336,43.478515 h -1.74023 V 46.957031 c 4.69866,-7.383523 21.96845,-17.880083 52.17383,-31.304687 z m 6.95703,1.738281 c -11.41096,23.493084 -23.49268,37.835226 -38.25977,45.21875 0,-3.35616 -4.3945,-4.547528 -10.43554,-5.21875 -2.01372,-6.041081 14.46251,-19.191836 48.69531,-40 z m -50.19336,2.158203 c 4.29829,0.02098 8.80545,0.481281 13.67187,1.320313 v 3.478515 c -4.69866,0 -11.86969,4.119066 -22.60937,12.173828 -10.73968,0 -20.04485,-1.189437 -26.08594,-5.216796 6.37669,-5.369839 14.55265,-8.589658 22.60742,-10.435547 4.02739,-0.922945 8.11773,-1.341291 12.41602,-1.320313 z m 55.41016,8.277344 c 22.15061,9.397204 33.44066,18.42893 34.7832,27.826172 8.72596,0 19.22255,27.766344 31.30469,83.478516 14.09581,198.68431 26.85078,332.47917 38.26171,398.25976 17.45201,112.09556 37.64951,199.23824 59.12891,264.34766 19.46568,58.3971 46.43846,119.11783 80,180.8711 H 735.91992 C 664.09829,894.00689 616.40783,810.31206 591.57227,730.43555 c -24.83556,-79.8764 -37.98628,-135.68458 -40,-165.21875 -3.35616,-155.72554 -6.7438,-256.62809 -10.43555,-302.60742 -3.69181,-45.97931 -32.46503,-67.82617 -83.47852,-67.82618 -28.86296,0 -60.07711,22.5181 -95.65234,67.82618 -35.57524,45.3081 -58.82476,76.46009 -69.56445,93.9121 l -27.82618,-17.39062 c 54.36969,-74.50665 101.66429,-121.06783 142.60938,-140.86914 40.94508,-19.80131 62.60742,-41.13002 62.60742,-62.60938 0,-22.15064 -2.25642,-39.818214 -6.95508,-53.914059 20.13692,-12.082158 34.07934,-30.419061 43.47657,-53.912109 z m -125.2168,3.478516 c 10.06848,0 19.10018,0.793598 27.82617,3.478515 8.72601,2.684923 18.42898,4.941398 27.82617,6.955078 v 6.957031 l -6.95703,-1.738281 c -1.34245,9.397242 2.10541,18.03117 12.17383,26.085938 10.06845,8.054801 15.25651,25.782606 13.91406,55.652341 -1.34244,29.86978 -28.98642,53.05908 -80,67.82617 -3.35615,-2.68493 -7.59758,-4.54555 -15.65234,-5.21679 -87.93125,4.69861 -130.70902,3.23374 -128.69531,-3.47852 v -1.73828 c 4.10512,1.20738 13.4636,1.05214 22.60742,1.73828 16.27289,1.22111 37.33504,2.16802 69.5664,1.73828 5.0467,-0.0673 9.1285,-1.3607 13.91211,-1.73828 42.93442,-3.38895 75.65066,-18.57174 97.39258,-46.95703 l -1.74023,-10.43359 c -18.79444,3.35615 -48.81729,-6.07333 -90.4336,-29.56641 -26.84925,24.16428 -50.89433,36.52148 -73.04492,36.52148 h -36.52148 c -8.05476,0 -14.03446,-9.30517 -17.39063,-26.08593 0,-10.73968 1.86063,-20.169165 5.2168,-29.566409 5.36981,6.041083 11.34953,8.697273 17.39062,8.697266 7.38352,0 12.96742,-1.92279 15.65235,-6.957031 2.68494,-5.034239 1.22209,-12.81434 -3.47657,-20.869141 h 95.6504 c 12.7534,-21.479365 24.71474,-31.304688 34.7832,-31.304687 z m 0,3.478515 c -8.726,0 -18.15354,9.702927 -29.56445,27.826172 h 5.21679 C 366.18625,47.842293 376.22487,39.999998 384.61523,40 c 8.3904,0 17.48229,2.65423 29.56446,8.695312 V 43.478516 C 401.42632,37.437435 390.53397,34.783205 381.13672,34.783203 Z M 391.0625,46.875 c -0.97146,-0.02998 -1.96191,-0.0019 -2.96875,0.08203 -16.7808,0 -25.41668,9.031693 -26.08789,27.826172 -16.10956,0 -29.26031,1.464853 -40,3.478516 -1.87943,0.352278 -2.64746,1.46809 -3.47852,1.738281 3.18832,0.335583 10.86284,0.335583 22.60938,0 h 19.13086 c 0.67123,12.753402 6.31531,19.526657 17.39062,20.869141 11.07529,1.34244 20.0468,5.73695 26.08789,10.43555 l 1.73829,-3.47852 c -8.0548,-6.04108 -15.89515,-9.764341 -22.60743,-10.435546 -6.71232,-0.671237 -9.7643,-3.325467 -10.43554,-8.695313 -0.67123,-5.369877 -0.94669,-12.538979 1.73828,-22.607421 0,8.054763 5.58387,12.173828 15.65234,12.173828 7.38354,0 10.43555,-5.981657 10.43555,-17.392578 8.05477,8.054761 18.82477,11.106751 29.56445,10.435547 V 66.08789 c -10.73968,0 -18.58004,-4.058854 -22.60742,-10.435547 -3.52395,-5.579613 -9.3619,-8.567499 -16.16211,-8.777344 z m -2.96875,12.255859 c 3.3561,0 5.2168,0.793576 5.2168,3.478516 0,2.684938 -1.8607,5.216797 -5.2168,5.216797 -3.35616,0 -3.47852,-2.531859 -3.47852,-5.216797 0,-2.68494 0.12211,-3.478516 3.47852,-3.478516 z m 48.69531,1.738282 17.39063,1.740234 c 0,2.684938 -2.25648,5.612597 -6.95508,6.955078 z m -206.26758,3.359375 c 5.45745,0.02129 9.42875,2.105613 11.48438,5.335937 2.3493,3.691797 2.3493,5.614588 0,6.957031 -2.34929,1.342497 -5.33915,1.342497 -8.69531,0 -3.35616,-1.342443 -5.2168,-5.461508 -5.2168,-12.173828 0.83904,-0.0839 1.6481,-0.122182 2.42773,-0.11914 z m 131.48438,50.554684 6.95703,3.47852 v 15.65039 l -6.95703,-3.47656 z m -33.04297,3.47852 v 15.65039 h -6.95703 V 121.73828 Z M 372.44141,120 h 5.21679 v 17.39062 l -5.21679,-1.73828 z m -52.17383,3.47852 v 15.65234 h -5.2168 v 1.73828 l -6.95703,3.47852 v -13.91211 l 6.95703,-1.74024 z m 60.86914,0 6.95703,1.73828 v 12.17382 h -6.95703 z m -78.25977,12.17382 v 15.65235 h -6.95703 v -12.17383 z m -10.43554,3.47852 v 15.65234 h -6.95703 v -13.91406 z m -45.2168,1.73828 h 6.95508 v 15.65234 h -6.95508 z m 10.43359,0 h 6.95703 v 15.65234 h -6.95703 z m 8.69532,0 h 6.95703 v 15.65234 h -6.95703 z m 10.43554,0 h 6.95703 v 15.65234 h -6.95703 z m 122.16797,1.16211 c 8.39253,0.246 16.9322,0.97394 25.6582,2.31641 l -12.17382,12.17382 c -26.17801,-2.68494 -53.60875,0.9762 -83.47852,8.69532 -29.86979,7.71914 -52.7837,9.30633 -69.56445,6.95703 -16.78076,-2.3493 -24.95867,-5.33916 -22.60938,-8.69531 2.34932,-3.35617 10.58741,-2.68494 24.34766,0 13.76023,2.68494 35.88253,-2.1054 66.08789,-12.17383 15.10271,-5.03425 30.67772,-7.52067 46.95508,-8.69531 8.13867,-0.58733 16.38481,-0.82413 24.77734,-0.57813 z m -7.38476,19.70703 v 10.43555 l -12.17383,3.47851 v -8.69531 z m -15.65235,5.21875 v 8.69531 l -10.43554,5.2168 v -12.17383 z m -121.74023,8.69531 h 6.95703 v 12.17383 l -6.95703,-2.08398 z m 10.43554,0 h 6.95704 v 12.17383 h -6.95704 z m 8.69532,0 h 6.95703 v 12.17383 h -6.95703 z m 10.43554,0 h 6.95703 v 12.17383 h -6.95703 z m 10.4336,0 h 6.95703 v 12.17383 h -6.95703 z m 10.43554,0 h 5.2168 v 12.17383 h -5.2168 z m 8.69532,0 h 12.17383 v 12.17383 h -12.17383 z m 13.91406,0 h 10.43359 v 10.02539 l -10.43359,2.14844 z m 135.65234,33.04297 c 21.4794,0 36.15517,7.1089 45.2168,20.86914 9.06162,13.76022 13.91211,37.74314 13.91211,71.30469 l 10.43555,293.91406 c -14.09587,32.89027 -22.6094,65.17153 -22.60938,97.39063 0,32.21905 16.0804,75.39459 46.95703,130.43555 15.43831,22.82183 13.97344,37.83324 -3.47851,45.21679 -0.67128,22.82183 2.98984,46.07139 8.69531,69.56445 5.70545,23.49313 5.76756,38.10869 1.74023,43.47852 H 421.13672 L 405.48438,960 c 4.02739,-5.36987 12.93672,-9.2135 24.34765,-13.91211 l 38.26172,10.43359 c -1.3425,7.38354 -9.58063,8.11693 -24.34766,1.74024 -14.76708,-6.37668 -21.60251,-7.4457 -22.60937,-1.74024 -1.00687,5.70547 1.64409,11.66268 10.37014,21.7311 l 10.499,-4.34047 h 19.13086 v -3.47656 h -19.13086 l -10.43359,3.47656 c -8.72605,-12.08214 -9.85521,-17.72627 -3.47852,-17.39063 6.37671,0.33392 16.47548,3.99661 29.56445,8.69532 13.08903,4.69872 21.66273,-12.44889 24.34766,-48.69532 5.36982,-14.09586 6.56118,-26.17761 5.21875,-38.25976 0,-18.79446 -12.08371,-56.66154 -38.26172,-113.04492 -60.41077,-47.65736 -87.77934,-121.12921 -81.73828,-219.12891 l -10.43555,5.2168 c -15.43833,95.31475 7.0196,167.04834 66.08789,217.39062 -62.42446,-24.16428 -107.79627,-48.20742 -135.65234,-73.04297 -27.8561,-24.83551 -42.53384,-68.0111 -45.21875,-130.43554 11.41091,0 71.46047,-28.03982 180.87109,-81.73828 6.71232,-9.39727 21.3881,-39.08644 45.2168,-90.43555 23.8287,-51.34919 27.88756,-90.34347 10.43555,-116.52149 -9.39723,18.79448 -22.548,37.5291 -40,55.65235 l 12.17382,1.73828 19.12891,-20.86914 c 0,21.47937 -7.50473,45.52443 -22.60742,73.04492 -15.10271,27.52048 -27.52203,53.3019 -38.26172,74.78125 h -1.73828 c -113.43801,62.42446 -170.49576,91.71584 -172.17383,88.69531 -1.67808,-3.02058 3.17242,-6.80398 13.91211,-12.17383 l -3.47851,-10.43359 -48.69532,15.65235 c -31.54784,10.06847 -53.73033,14.18753 -67.82617,12.17382 0.67124,-2.68492 -3.78345,-9.0624 -12.17383,-19.13086 -8.39038,-10.06848 -7.32334,-18.70435 1.73828,-26.08789 9.06162,-7.38354 14.37204,-11.10482 17.39258,-10.43359 3.02053,0.67128 20.22821,4.79023 50.4336,12.17383 0,6.71225 -10.15896,7.44373 -31.30274,1.73828 -21.14375,-5.70545 -33.1051,-4.24066 -34.7832,3.47851 -1.67808,7.71915 4.24142,19.0695 15.65234,36.52149 l 13.91211,-12.17383 h 24.34766 v -5.2168 h -24.34766 l -12.17383,8.69532 c -12.08212,-18.79448 -13.60717,-28.16178 -5.21679,-27.82618 8.39039,0.33559 21.14533,1.18936 38.26171,5.2168 17.11638,4.02737 23.94991,2.44218 22.60743,-6.95508 36.91772,-5.36983 67.67393,-16.9353 92.17383,-33.04492 24.49993,-16.10953 53.39552,-31.91455 86.95703,-48.69531 2.68494,-40.27384 13.85267,-83.84521 31.30468,-132.17383 l 6.95703,13.91406 8.69532,-3.47851 -10.43555,-27.82617 c 16.78077,-49.67109 35.11963,-74.78322 53.91406,-74.78321 z m -48.69726,13.91407 c -18.79445,44.97244 -31.94525,75.78886 -40,93.9121 -3.35617,9.39724 -17.29855,32.25097 -43.47657,67.82618 -26.17799,35.57525 -47.17105,59.49599 -62.60937,69.56445 l -6.95703,-6.95508 C 260.46549,436.21736 276.14817,406.98618 306.35352,360 336.55893,313.01384 371.89215,267.58182 414.17969,222.60938 Z M 26.353516,248.69531 120.26758,490.43555 h -5.2168 l -59.130858,-1.74024 z m 326.957034,139.13086 -5.2168,33.04297 c -18.79448,12.7534 -34.99727,22.18288 -50.43555,29.56641 12.75336,-13.42461 31.48804,-34.41764 55.65235,-62.60938 z m -95.65235,62.60938 6.95703,6.95507 c -2.01365,2.68494 -6.80398,4.94331 -12.17382,6.95704 z m -151.30468,80 19.13086,26.08593 c -10.73969,-6.71228 -17.11718,-14.675 -19.13086,-26.08593 z m 170.43554,186.08593 c 28.86293,24.83556 61.41959,43.57022 95.65235,55.65235 l -20.86914,60.86914 c 1.34244,29.53422 -5.035,46.40817 -19.13086,50.43555 -8.05476,0 -19.34493,32.28124 -34.78321,97.39062 H 186.35352 l 6.95703,-3.47852 h 17.39257 v -5.21679 h -19.13085 l -8.69532,6.95703 c -9.39723,-13.42453 -11.93107,-21.20472 -5.21875,-20.86914 6.71232,0.33392 17.14866,2.53158 29.56641,5.2168 12.41778,2.68521 18.85546,-5.55336 20.86914,-24.34766 6.71232,-7.38355 16.01749,-20.53426 26.08594,-40 15.43831,-18.12324 22.60937,-64.2284 22.60937,-137.39258 z M 175.10938,933.67773 c 0.81916,0.0314 1.66783,0.10852 2.54882,0.23438 l 41.74024,10.43555 -3.47852,3.47851 -38.26172,-6.95703 c -7.38356,0.67116 -13.48562,7.84224 -20.86914,22.60938 0.62928,-20.1369 6.0328,-30.27177 18.32032,-29.80079 z m 254.72265,3.71289 41.74024,6.95704 v 6.95703 l -43.47852,-10.43555 c -11.41092,3.35638 -18.97782,8.26881 -24.34766,15.65234 l -3.47851,5.2168 13.91211,19.13086 C 402.09752,980.19798 397.18683,973.42465 398.5293,960 c 1.34249,-14.76713 12.50829,-22.60937 31.30273,-22.60938 z m -252.17383,8.69727 41.74024,6.95508 c 0,6.71232 -6.83548,7.84148 -22.60938,3.47851 -15.77394,-4.36312 -24.74349,-3.96522 -26.08594,1.74024 -1.1841,5.03208 2.04649,13.13647 8.69532,22.60742 h -26.08789 l 3.47851,-13.91211 6.30289,11.62262 6.95703,-1.73828 -8.04312,-13.36285 c 4.69861,-10.7397 9.61126,-16.04823 15.65234,-17.39063 z"
     sodipodi:nodetypes="ccssccscssssccscccsccscccsccccccccccccsccssccsccscccscscccssccssssccccccccccsccccsscccccccscsssccssccsscccssccccssscccssccssccssccsccssccccccsccsscscccssscssscsccsccccsccccccccccccccccccccccccccccccccccccccccccccccccccccccscccsccsssssssccccccccccccccccccccccccccccccccccccccccccccccscccscccsccscccccsscccccccsccccccsccsccccsccsccccssscssccccccsscscccccsccsccsccccccccccccccccccsccccccccccsccscscccccscccccccccccsscccccccc" />
</svg>
