<?xml version="1.0" encoding="UTF-8" standalone="no"?>
<svg
   width="1100"
   height="1000"
   id="svg2445"
   sodipodi:version="0.32"
   inkscape:version="1.4.2 (f4327f4, 2025-05-13)"
   sodipodi:docname="F177.svg"
   inkscape:output_extension="org.inkscape.output.svg.inkscape"
   version="1.0"
   xmlns:inkscape="http://www.inkscape.org/namespaces/inkscape"
   xmlns:sodipodi="http://sodipodi.sourceforge.net/DTD/sodipodi-0.dtd"
   xmlns="http://www.w3.org/2000/svg"
   xmlns:svg="http://www.w3.org/2000/svg"
   xmlns:rdf="http://www.w3.org/1999/02/22-rdf-syntax-ns#"
   xmlns:cc="http://creativecommons.org/ns#"
   xmlns:dc="http://purl.org/dc/elements/1.1/">
  <metadata
     id="metadata2452">
    <rdf:RDF>
      <cc:Work
         rdf:about="">
        <dc:format>image/svg+xml</dc:format>
        <dc:type
           rdf:resource="http://purl.org/dc/dcmitype/StillImage" />
      </cc:Work>
    </rdf:RDF>
  </metadata>
  <defs
     id="defs2450">
    <inkscape:perspective
       sodipodi:type="inkscape:persp3d"
       inkscape:vp_x="0 : 985.79601 : 1"
       inkscape:vp_y="0 : 1000 : 0"
       inkscape:vp_z="17.5872 : 985.79601 : 1"
       inkscape:persp3d-origin="8.7936001 : 984.91601 : 1"
       id="perspective2454" />
  </defs>
  <sodipodi:namedview
     inkscape:window-height="998"
     inkscape:window-width="1680"
     inkscape:pageshadow="2"
     inkscape:pageopacity="0.0"
     guidetolerance="10.0"
     gridtolerance="10.0"
     objecttolerance="10.0"
     borderopacity="1.0"
     bordercolor="#666666"
     pagecolor="#ffffff"
     id="base"
     showgrid="true"
     showguides="true"
     inkscape:guide-bbox="true"
     showborder="true"
     inkscape:zoom="0.3775"
     inkscape:cx="25.165563"
     inkscape:cy="647.68212"
     inkscape:window-x="-8"
     inkscape:window-y="-8"
     inkscape:current-layer="svg2445"
     inkscape:showpageshadow="2"
     inkscape:pagecheckerboard="0"
     inkscape:deskcolor="#d1d1d1"
     inkscape:window-maximized="1" />
  <path
     style="fill:#000000;stroke:none;stroke-width:1"
     d="m 592.8698,786.14206 c 56.751,-37.438 115.51929,-78.54168 172.02324,-120.2313 56.85288,42.00557 116.72585,82.53198 173.87296,120.2313 l 68.4394,-94.33532 C 958.94082,657.27613 908.80096,625.146 859.22837,591.92227 c 66.66955,-53.89576 114.5365,-123.43369 135.02899,-197.91923 18.62534,-58.37342 17.30954,-119.61806 0,-173.87296 C 967.72545,152.92084 955.93796,80.02335 960.96255,5.5634469 959.29372,1.2132721 957.84645,-0.15884679 955.41341,0.01430973 948.11435,0.53378613 939.47156,17.572767 936.91628,24.06057 c -11.96683,23.551047 -18.99823,47.515211 -22.19655,72.138783 -13.89474,71.340637 15.95885,137.089937 12.94799,207.167777 -4.77847,58.24213 -44.28276,111.68071 -88.78618,157.22555 -22.52926,23.06654 -46.71285,44.66113 -72.13879,64.73993 C 740.89271,504.9827 715.62825,484.0122 692.75425,460.59268 648.25083,415.04784 608.74678,361.60927 603.96807,303.36713 600.95703,233.28929 630.8108,167.53999 616.91606,96.199353 613.71774,71.575781 606.68634,47.611617 594.71951,24.06057 592.16423,17.572767 583.52142,0.53378613 576.22238,0.01430973 573.78937,-0.15884679 572.3421,1.2132727 570.67324,5.5634469 575.69787,80.02335 563.91034,152.92085 537.37843,220.13008 c -17.30956,54.25489 -18.62533,115.49954 0,173.87296 20.49254,74.48553 68.35944,144.02349 135.02899,197.91923 -49.57258,33.22373 -99.71242,65.35386 -147.97698,99.88447 z m -1.84972,-676.99472 c 17.46223,72.83341 -32.74422,145.54239 -16.64741,218.26606 12.35775,61.13207 55.63538,115.20481 103.58389,162.77468 83.0303,81.83054 186.1602,144.10432 284.8557,209.0175 l -29.5954,40.69367 C 817.07061,665.36112 713.93982,604.31723 631.71375,514.23434 576.86519,439.9415 548.27552,351.60616 557.72526,270.07231 c 9.40471,-54.36705 32.19092,-104.44925 33.29482,-160.92497 z m 349.59563,0 c 1.10391,56.47572 23.89011,106.55793 33.29482,160.92497 9.44975,81.53384 -19.13994,169.86917 -73.98849,244.16203 -20.55649,22.52076 -41.75603,43.35216 -64.73994,62.89022 -14.53175,-9.99032 -28.44016,-21.01116 -42.54338,-31.44512 21.71953,-17.65348 41.24202,-35.97894 61.04051,-55.49136 C 901.62774,442.61823 944.90539,388.54547 957.26312,327.4134 973.35994,254.68973 923.15348,181.98075 940.61571,109.14734 Z M 698.3034,614.11882 c 13.91267,11.34409 27.94172,22.1702 42.54338,33.29481 -44.66401,30.65842 -92.0904,60.18101 -142.42785,92.48562 l -29.5954,-40.69367 c 43.07279,-28.32948 86.83663,-55.75885 129.47987,-85.08676 z"
     id="path1"
     sodipodi:nodetypes="ccccccccscccccccccsccccccccccccccccccccccccccc" />
  <path
     style="fill:#000000;stroke:none;stroke-width:1"
     d="M 53.641657,0.01430973 C 51.20864,-0.15884679 49.761377,1.2132727 48.092521,5.5634469 53.117139,80.02335 41.32961,152.92085 14.797698,220.13008 c -17.3095676,54.2549 -18.625327,115.49954 0,173.87296 C 35.178795,468.08352 81.886315,538.13908 147.97698,591.92227 98.404382,625.146 48.264563,657.27613 0,691.80674 l 68.439356,94.33532 c 57.147124,-37.69932 117.020104,-78.22573 173.872964,-120.2313 56.85285,42.00557 116.72582,82.53198 173.87295,120.2313 l 68.43936,-94.33532 C 436.36006,657.27613 386.22024,625.146 336.64764,591.92227 c 66.09068,-53.78318 112.7982,-123.83875 133.17929,-197.91923 18.62533,-58.37342 17.30957,-119.61806 0,-173.87296 C 443.29502,152.92085 431.50749,80.02335 436.5321,5.5634469 434.86325,1.2132727 433.41599,-0.15884679 430.98297,0.01430973 423.68392,0.53378613 415.04113,17.572767 412.48585,24.06057 400.51899,47.611616 393.4876,71.575781 390.2893,96.199353 c -13.89475,71.340637 15.95884,137.089937 12.94799,207.167777 -4.77872,58.24214 -44.28275,111.68071 -88.7862,157.22555 -22.52923,23.06654 -46.71281,44.66113 -72.13877,64.73993 -25.42596,-20.0788 -49.60955,-41.67339 -72.13879,-64.73993 C 125.67009,415.04784 86.16607,361.60927 81.387342,303.36713 78.376496,233.28929 108.23008,167.53999 94.335328,96.199353 91.137019,71.575781 84.105632,47.611616 72.13878,24.06057 69.583502,17.572767 60.940705,0.53378613 53.641657,0.01430973 Z M 68.439356,109.14734 c 17.462249,72.83341 -32.744222,145.54239 -16.647411,218.26606 12.357741,61.13207 55.635375,115.20481 103.583895,162.77468 83.03031,81.83052 186.16021,144.10432 284.8557,209.0175 l -29.59541,40.69367 C 294.48989,665.36112 191.35909,604.31729 109.13302,514.23434 54.284452,439.94152 25.694795,351.60616 35.144534,270.07231 44.549232,215.70527 67.335448,165.62306 68.439356,109.14734 Z m 347.745914,0 c 1.10391,56.47572 23.89013,106.55793 33.29482,160.92497 9.44975,81.53385 -19.13991,169.86917 -73.98849,244.16203 -19.954,21.86065 -40.64621,42.00874 -62.89022,61.04051 -14.93694,-10.28093 -29.91665,-20.68755 -44.39309,-31.44512 21.37308,-17.41421 41.53636,-34.41934 61.0405,-53.64165 C 377.19731,442.61821 420.47495,388.54547 432.83268,327.4134 448.9295,254.68973 398.72302,181.98075 416.18527,109.14734 Z M 173.87296,612.26911 c 14.1678,11.59459 27.64822,23.77782 42.54339,35.14452 -44.66404,30.65842 -92.09038,60.18101 -142.427857,92.48562 L 44.393096,699.20558 C 87.749874,670.68929 130.96463,641.80851 173.87296,612.26911 Z"
     id="path2982" />
  <path
     d="M 416.18527,789.13284 H 68.439356 0 V 1000 H 1007.2054 V 789.13284 H 938.766 592.8698 Z M 46.242808,839.07508 H 962.81226 V 955.60694 L 46.242808,953.75723 Z"
     style="fill:#000000;stroke:none;stroke-width:1"
     id="path1-4" />
</svg>
