<?xml version="1.0" encoding="UTF-8" standalone="no"?>
<svg
   width="1500"
   height="1000"
   id="svg2716"
   sodipodi:version="0.32"
   inkscape:version="1.4.2 (f4327f4, 2025-05-13)"
   sodipodi:docname="F97.svg"
   inkscape:output_extension="org.inkscape.output.svg.inkscape"
   version="1.1"
   xmlns:inkscape="http://www.inkscape.org/namespaces/inkscape"
   xmlns:sodipodi="http://sodipodi.sourceforge.net/DTD/sodipodi-0.dtd"
   xmlns="http://www.w3.org/2000/svg"
   xmlns:svg="http://www.w3.org/2000/svg"
   xmlns:rdf="http://www.w3.org/1999/02/22-rdf-syntax-ns#"
   xmlns:cc="http://creativecommons.org/ns#"
   xmlns:dc="http://purl.org/dc/elements/1.1/">
  <metadata
     id="metadata2723">
    <rdf:RDF>
      <cc:Work
         rdf:about="">
        <dc:format>image/svg+xml</dc:format>
        <dc:type
           rdf:resource="http://purl.org/dc/dcmitype/StillImage" />
      </cc:Work>
    </rdf:RDF>
  </metadata>
  <defs
     id="defs2721">
    <inkscape:perspective
       sodipodi:type="inkscape:persp3d"
       inkscape:vp_x="0 : 991.84 : 1"
       inkscape:vp_y="0 : 1000 : 0"
       inkscape:vp_z="23.789682 : 991.84 : 1"
       inkscape:persp3d-origin="11.894841 : 989.12 : 1"
       id="perspective2725" />
  </defs>
  <sodipodi:namedview
     inkscape:window-height="998"
     inkscape:window-width="1680"
     inkscape:pageshadow="2"
     inkscape:pageopacity="0.0"
     guidetolerance="10.0"
     gridtolerance="10.0"
     objecttolerance="10.0"
     borderopacity="1.0"
     bordercolor="#666666"
     pagecolor="#ffffff"
     id="base"
     showgrid="false"
     inkscape:zoom="4.2466813"
     inkscape:cx="159.30086"
     inkscape:cy="326.25476"
     inkscape:window-x="-8"
     inkscape:window-y="-8"
     inkscape:current-layer="svg2716"
     inkscape:showpageshadow="2"
     inkscape:pagecheckerboard="0"
     inkscape:deskcolor="#d1d1d1"
     inkscape:window-maximized="1" />
  <path
     style="fill:#000000;stroke:none;stroke-width:1"
     d="m 599.53113,24.664154 v 0 C 551.49418,89.3644 511.75766,121.71446 480.32169,121.71446 c -0.66887,0 -1.33394,-0.0146 -1.99534,-0.0439 l -31.3834,-3.16324 C 471.47249,98.121937 492.75546,82.832843 510.79191,72.640196 528.82843,62.447427 558.40815,46.455454 599.53113,24.664154 Z M 181.80735,12.011152 c 41.84449,16.870711 78.63879,32.862684 110.38297,47.975981 31.74412,15.113357 60.60239,36.025919 86.57488,62.737807 l -12.98622,5.27212 C 329.70613,90.740993 266.93928,53.133456 177.47855,15.174449 Z m 9.73959,15.816299 c 40.40165,22.49424 69.62071,39.189155 87.65711,50.084804 18.03645,10.89565 38.9587,26.536155 62.76685,46.921565 l -32.46563,4.21765 C 277.76115,128.34853 238.44167,94.607169 191.54694,27.827451 Z M 335.82347,181.03885 c -14.2519,0 -25.54969,5.51654 -33.89351,16.54975 0.72151,5.62353 -2.52506,11.59859 -9.73964,17.92506 l 5.41091,4.21765 7.57536,-7.38088 c 0.9076,0.0227 1.79982,0.034 2.67666,0.034 26.30582,0 38.76054,-10.20405 37.36421,-30.61207 -3.26225,-0.48904 -6.39362,-0.73352 -9.39399,-0.73352 z m -121.7603,91.66146 c -4.61329,0 -9.59362,2.02616 -14.94087,6.07837 l 3.24651,4.21771 c 3.09197,-1.67366 5.57047,-2.51054 7.43542,-2.51054 2.05153,0 3.36066,1.01262 3.92757,3.03774 1.08217,3.86618 -3.06624,6.15074 -12.4451,6.85368 l 1.08211,5.27206 c 12.98622,0 20.02047,-3.51471 21.10264,-10.54412 1.08223,-7.02941 -1.08217,-11.07139 -6.49308,-12.1258 -0.9549,-0.18603 -1.92659,-0.2791 -2.9152,-0.2791 z m 30.51091,32.43878 1.08223,9.48977 c 0.72145,16.16777 -2.8859,24.25159 -10.82187,24.25159 l -1.08223,-12.653 -22.72586,23.19718 c -0.72145,-11.95006 4.32874,-20.73688 15.15061,-26.36041 10.82182,-5.62353 16.23272,-11.59859 16.23272,-17.92513 z m 959.68822,143.84841 136.2983,0.27512 v 0 l 0.8137,189.97936 v 0 l -137.1118,0.25735 v 0 z m -206.99686,-0.41789 v 0 l 146.81596,0.29657 v 0 190.7443 0 l -146.81596,0.27574 v 0 0 0 0 0 -191.31477 z m -210.83419,-0.42586 150.65325,0.30454 v 0 191.54871 0 l -148.1796,0.27573 v 0 z m -197.57543,-0.39945 137.38805,0.27752 v 0 l 2.47672,192.36329 v 0 l -138.82353,0.25736 v 0 0 0 0 0 z M 608.18873,9.9023285 613.5997,14.119976 C 523.41746,47.861336 455.60049,86.874816 410.14859,131.16029 l 60.60245,5.27212 c -25.25098,2.10883 -45.45177,5.975 -60.60245,11.59853 0,9.1383 2.88585,13.70748 8.65748,13.70748 18.75796,14.76183 29.39938,35.67439 31.92457,62.73781 6.06336,62.03229 41.98027,106.88751 77.54853,153.8003 v 0 c 29.18402,37.8312 22.02004,205.37387 -31.00276,262.54038 h -10e-4 c -29.95603,28.43413 -64.09613,40.13205 -152.62905,30.90962 v 0 c -76.53051,-12.65067 -127.20288,-23.42971 -152.01703,-32.33719 -27.41532,-9.84124 -17.31489,-15.81624 30.30122,-17.92506 51.8744,-3.40631 103.35941,3.83309 154.75264,9.4897 4.3288,-58.34442 27.05472,-107.90202 68.17775,-148.67279 l -6.49307,-31.63254 -48.69841,47.44878 c -8.65754,-49.90907 -11.90404,-90.85564 -9.73964,-122.83959 2.16434,-31.98394 -7.21459,-52.89656 -28.13689,-62.7378 23.80809,-4.92059 40.22126,-12.1258 49.23952,-21.6155 9.0182,-9.48983 12.08438,-22.31857 9.19859,-38.48628 v 0 c -11.54332,23.90012 -28.49761,36.55313 -50.8628,37.95901 -22.3652,1.40588 -56.63444,9.48977 -102.80773,24.25159 -6.79019,-10.58548 -15.49754,-15.87825 -26.12218,-15.87825 -0.66403,0 -1.3356,0.0206 -2.01458,0.0619 l 6.49308,-4.21758 -2.1644,-3.16318 c -10.82182,5.62353 -21.28297,13.35588 -31.3834,23.19712 l 2.1644,3.1633 c 10.19862,-9.57422 16.85544,-13.67523 24.38993,-18.67048 l 0.26491,0.36794 c -4.3288,13.35595 -13.11152,22.16871 -26.81924,27.79224 -1.68339,0.70301 -3.12628,1.05448 -4.32874,1.05448 -2.4049,0 -3.84779,-1.40589 -4.32873,-4.21771 -2.88585,-8.4353 -2.1644,-16.51918 2.1644,-24.25159 -0.72151,-21.08836 6.85379,-33.74137 22.72592,-37.95901 30.30122,-28.82071 50.86274,-46.04283 61.68462,-51.66642 10.82187,-5.62353 19.65974,-14.76183 26.51354,-27.41483 6.8538,-12.653 14.42916,-19.68248 22.72598,-21.08836 8.29669,-1.40588 19.84001,-5.44786 34.6299,-12.12586 14.78989,-6.67794 27.95649,-16.34344 39.49982,-28.99644 30.30094,-30.226669 61.504,-52.369377 93.60884,-66.428262 C 529.36943,40.128983 566.34412,25.367096 608.18873,9.9023285 Z M 611.24712,0 c -1.59981,0 -3.34068,0.13756127 -5.22279,0.41262255 C 564.17984,13.768505 525.40147,26.772978 489.68928,39.425981 453.97715,52.078983 423.13487,75.979106 397.16238,111.12635 367.58266,82.305638 335.29743,60.690074 300.30668,46.27978 265.31599,31.869363 226.89841,17.283272 185.05386,2.5213848 183.74835,2.3875 182.50833,2.3205882 181.33376,2.3205882 c -11.15894,0 -16.41201,6.0419731 -15.75931,18.1259188 9.37898,10.544179 25.61183,31.281067 48.69841,62.210601 23.08664,30.929592 44.00888,49.381922 62.76679,55.356922 13.86464,4.4163 26.54675,6.62445 38.04644,6.62445 1.51655,0 3.01244,-0.0384 4.48781,-0.1152 v 0 c -9.35821,1.93971 -16.50209,7.8538 -21.43156,17.74235 -6.13241,12.30153 -15.5114,21.96703 -28.13689,28.99644 -12.62549,7.02947 -22.36513,14.41042 -29.21899,22.14277 -6.85386,7.73235 -16.7739,17.22212 -29.76011,28.46924 -28.13689,7.73242 -41.84455,26.71195 -41.1231,56.93854 -2.88585,8.43536 -3.24657,16.87071 -1.08217,25.30601 0.67898,10.58548 7.10968,15.87825 19.29209,15.87825 0.7614,0 1.54529,-0.0207 2.35166,-0.0619 0.69951,21.81262 7.50466,32.71887 20.41538,32.71887 0.40319,0 0.81287,-0.0106 1.22831,-0.0319 10.82181,0 16.23278,-4.92059 16.23278,-14.76189 18.7579,-0.703 28.13689,-5.62365 28.13689,-14.76189 -0.72151,-6.32653 3.60723,-9.8413 12.98615,-10.54424 l 32.46562,-13.70735 c 36.79437,3.51471 54.10938,23.72439 51.94498,60.62892 -2.1644,36.9046 -0.36078,67.65846 5.41091,92.26152 5.77169,24.60307 6.85386,44.46128 3.24657,59.57451 -3.6073,15.11336 -9.0182,36.72892 -16.23285,64.84669 -50.1413,-2.10882 -91.80545,-3.16323 -124.99246,-3.16323 -29.94603,0.64277 -59.91661,1.36785 -89.72071,2.26973 -23.96704,0 -40.59412,7.15153 -49.881375,21.45459 -11.182537,17.22218 -18.39712,36.72893 -21.643689,58.52029 -3.246569,21.79129 -9.920037,66.25251 -20.020404,133.3837 C 29.940503,875.75466 16.593505,939.54688 0,1000 c 26.693934,-4.21758 60.241728,-16.87059 100.64332,-37.95888 4.32874,-15.46483 -4.328736,-30.57825 -25.972486,-45.34014 30.301226,-3.5147 37.876536,-14.41029 22.72598,-32.68682 -7.214645,-47.80031 -7.214645,-94.19461 0,-139.18309 7.214526,-44.98842 22.184746,-69.06434 44.910666,-72.22758 4.01047,-0.55759 8.81292,-0.83762 14.40741,-0.83762 115.62817,13.69479 255.21249,65.97261 338.49246,29.23579 h -0.003 l 962.49665,-1.78554 -0.092,-60.18089 -56.0537,0.0919 v 0 0 0 0 0 l -0.8125,-189.74553 v 0 l 56.8662,0.10049 0.092,-60.18088 -869.1828,-1.73873 v 0 c -64.95857,-41.2742 -89.855,-96.02318 -111.27402,-165.19508 -2.88585,-26.36048 -14.06844,-47.97598 -33.54773,-64.84669 27.41532,-4.21765 49.96084,-10.89565 67.63658,-20.03388 17.67573,-9.1383 38.77837,-28.64504 63.3079,-58.520163 24.52948,-29.875184 41.1231,-50.084804 49.78052,-60.628983 C 626.30349,6.1125613 621.91207,0 611.24712,0 Z"
     id="path2718"
     sodipodi:nodetypes="ccsccsccscccccsccccccccscccccssccssccccccscccccccccccccccccccccccccccccccccccccccccccccccccccccccccscccccscsccscsccccccccssccssssssccsscssscsssccsssccssssscsccssscccsssccccsscccccccccccccccccccssccs" />
</svg>
