<?xml version="1.0" encoding="UTF-8" standalone="no"?>
<svg
   width="1150"
   height="1000"
   id="svg2"
   sodipodi:version="0.32"
   inkscape:version="1.4.2 (f4327f4, 2025-05-13)"
   sodipodi:docname="H16.svg"
   inkscape:output_extension="org.inkscape.output.svg.inkscape"
   version="1.1"
   xmlns:inkscape="http://www.inkscape.org/namespaces/inkscape"
   xmlns:sodipodi="http://sodipodi.sourceforge.net/DTD/sodipodi-0.dtd"
   xmlns="http://www.w3.org/2000/svg"
   xmlns:svg="http://www.w3.org/2000/svg"
   xmlns:rdf="http://www.w3.org/1999/02/22-rdf-syntax-ns#"
   xmlns:cc="http://creativecommons.org/ns#"
   xmlns:dc="http://purl.org/dc/elements/1.1/">
  <metadata
     id="metadata9">
    <rdf:RDF>
      <cc:Work
         rdf:about="">
        <dc:format>image/svg+xml</dc:format>
        <dc:type
           rdf:resource="http://purl.org/dc/dcmitype/StillImage" />
        <dc:title>H16</dc:title>
        <dc:creator>
          <cc:Agent>
            <dc:title>S. Thomas</dc:title>
          </cc:Agent>
        </dc:creator>
        <dc:description>Tombe d'Horemheb KV 57, simplifié. Not actually from a glyph, but part of a figure.

</dc:description>
      </cc:Work>
    </rdf:RDF>
  </metadata>
  <defs
     id="defs7" />
  <sodipodi:namedview
     inkscape:window-height="998"
     inkscape:window-width="1680"
     inkscape:pageshadow="2"
     inkscape:pageopacity="0.0"
     guidetolerance="10.0"
     gridtolerance="10.0"
     objecttolerance="10.0"
     borderopacity="1.0"
     bordercolor="#666666"
     pagecolor="#ffffff"
     id="base"
     inkscape:zoom="0.70710678"
     inkscape:cx="976.51446"
     inkscape:cy="-3.5355339"
     inkscape:window-x="-8"
     inkscape:window-y="-8"
     inkscape:current-layer="svg2"
     inkscape:showpageshadow="2"
     inkscape:pagecheckerboard="0"
     inkscape:deskcolor="#d1d1d1"
     inkscape:window-maximized="1" />
  <path
     id="path4"
     style="fill:#000000;stroke:none;stroke-width:1"
     d="M 568.69336,1.5625 C 519.62545,3.9933876 467.4501,9.2603351 412.16992,17.363281 301.60961,33.56921 183.66753,89.568335 58.341797,185.36328 v 63.74414 C 172.86359,156.91378 256.41301,109.91588 308.99219,108.11523 c 52.57918,-1.80065 97.59709,11.52422 135.05078,39.97461 37.45364,28.45035 56.17969,71.12657 56.17969,128.02735 0.72026,129.64729 -60.86284,194.4707 -184.74805,194.4707 -74.18706,0 -161.33853,-29.53024 -261.455079,-88.5918 C 18.006408,392.07977 0,403.96342 0,417.64844 c 0,10.08368 15.48573,22.68895 46.457031,37.81445 52.579185,17.28632 86.790959,33.31276 102.636719,48.07813 15.8458,14.76541 17.6468,39.25432 5.40234,73.46679 -12.24447,34.21247 -10.0836,65.72269 6.48243,94.53321 16.56606,28.81048 25.92906,56.90144 28.08984,84.27148 -2.16078,164.21989 27.37141,245.6085 88.59375,244.16797 48.25759,0 72.02495,-27.72923 71.30469,-83.18945 2.88107,-171.42257 12.24407,-277.12116 28.08984,-317.09571 15.84579,-39.97463 56.54203,-80.30909 122.08594,-121.0039 65.5439,-40.69485 123.52495,-61.04297 173.94336,-61.04297 47.53732,0 106.05904,17.28677 175.56445,51.85937 69.50533,34.57264 104.25781,87.87219 104.25781,159.89844 0,69.14524 -40.69622,133.42792 -122.08593,192.84961 -81.3897,59.42165 -224.00159,86.61217 -427.83594,81.57031 -23.04841,11.52424 -26.28869,25.56871 -9.72266,42.13477 28.09026,10.8039 115.06089,15.30651 260.91406,13.50586 145.85325,-1.80061 263.61634,-54.19964 353.28907,-157.19727 89.6727,-102.99758 134.5098,-202.3945 134.5098,-298.18945 0,-218.23963 -51.1388,-354.72879 -153.41605,-409.468752 C 886.28322,39.871365 792.28942,9.2597227 706.57812,2.7773438 663.72249,-0.4638273 617.76126,-0.86838755 568.69336,1.5625 Z m 63.80818,39.141965 C 690.76659,105.36169 709.32029,187.72546 684.9707,285.83984 634.55233,147.5494 589.49834,66.133453 548.44336,41.644531 c 30.7589,-0.888991 58.18324,-1.242762 84.05818,-0.940066 z m 1.64062,0.04096 c 31.88734,0.383331 59.46407,1.671423 84.02776,3.910826 C 760.98698,109.33883 775.49404,192.3565 757.35547,285.83984 740.91626,171.48024 699.53795,89.157141 634.14216,40.745425 Z m -87.15193,0.973326 C 603.89098,105.10187 626.26896,186.08379 612.58398,284.75977 563.60613,147.90985 510.45263,69.720538 452.11133,50.273438 Z m 173.24219,3.128906 c 35.05919,3.299012 62.59913,8.544564 82.80664,15.806641 C 839.05215,135.56162 851.71123,213.45512 839.4668,293.4043 830.10338,255.95062 814.43676,211.83322 792.46875,161.05469 772.11097,113.99817 746.76682,72.965279 720.23242,44.847657 Z M 450.88304,50.434542 C 528.67141,117.419 560.72511,197.60803 545.59961,291.24219 539.11723,157.99357 471.05159,84.886596 341.4043,71.921875 Z M 804.89453,61.119141 C 871.879,81.286502 925.89814,105.77542 966.95312,134.58594 979.19754,190.04617 980.277,248.38703 970.19336,309.60938 948.58548,205.17128 920.49647,132.42413 885.92383,91.369141 907.53171,144.66859 916.17505,213.81369 911.85352,298.80469 878.00114,177.80056 842.34821,98.572819 804.89453,61.119141 Z m 164.48392,75.033019 c 61.22245,54.73997 78.60375,116.19674 52.67425,185.34198 -8.6432,-72.02628 -26.02454,-133.48305 -52.67425,-185.34198 z m -633.76322,32.90448 c -8.02417,-0.29261 -16.53968,0.10125 -25.54296,1.18164 -71.30602,7.9229 -141.17073,46.45636 -209.59571,115.60156 -12.244461,10.80394 -17.285779,21.24835 -15.124998,31.33204 0,9.36341 7.202145,18.00678 21.607418,25.92968 82.10997,51.13867 159.1788,72.74712 231.20508,64.82422 72.02629,-8.64316 103.35756,-52.5797 93.99414,-131.80859 -8.19299,-69.32531 -40.37371,-105.01231 -96.54297,-107.06055 z"
     sodipodi:nodetypes="ssccsscscscssscccssssssccsssssscccccccccccccccsccccccccccccccscccccss" />
</svg>
