<?xml version="1.0" encoding="UTF-8" standalone="no"?>
<svg
   width="550"
   height="1000"
   version="1.1"
   id="svg1"
   sodipodi:docname="I79.svg"
   inkscape:version="1.4.2 (f4327f4, 2025-05-13)"
   xmlns:inkscape="http://www.inkscape.org/namespaces/inkscape"
   xmlns:sodipodi="http://sodipodi.sourceforge.net/DTD/sodipodi-0.dtd"
   xmlns="http://www.w3.org/2000/svg"
   xmlns:svg="http://www.w3.org/2000/svg">
  <defs
     id="defs1" />
  <sodipodi:namedview
     id="namedview1"
     pagecolor="#ffffff"
     bordercolor="#666666"
     borderopacity="1.0"
     inkscape:showpageshadow="2"
     inkscape:pageopacity="0.0"
     inkscape:pagecheckerboard="0"
     inkscape:deskcolor="#d1d1d1"
     inkscape:zoom="1.51"
     inkscape:cx="120.86093"
     inkscape:cy="863.24503"
     inkscape:window-width="1680"
     inkscape:window-height="998"
     inkscape:window-x="-8"
     inkscape:window-y="-8"
     inkscape:window-maximized="1"
     inkscape:current-layer="svg1" />
  <path
     id="path1"
     style="fill:#000000;stroke:none;stroke-width:0.999999"
     d="M 139.83203 -0.001953125 C 127.97952 -0.079666915 120.49949 13.248233 117.39062 39.984375 C 111.42163 58.554638 105.45338 80.939419 99.484375 107.13672 C 93.515364 133.33401 90.862159 153.72745 91.525391 168.31836 C 92.087577 180.68628 94.555265 193.29224 98.929688 206.13672 C 93.392702 206.44105 91.58683 211.41086 93.513672 221.04492 L 94.003906 221.09961 C 87.668921 221.01561 81.536745 219.17415 75.607422 215.57422 C 66.322291 209.93681 55.04765 209.10658 41.783203 213.08594 C 28.518756 217.06529 19.399963 217.39815 14.425781 214.08203 C 9.4516001 210.76589 5.9681734 208.77456 3.9785156 208.11133 C 1.3256262 206.7849 2.9605947e-16 208.11248 0 212.0918 C 1.9896577 224.02982 8.6216962 230.82826 19.896484 232.48633 C 31.171274 234.14439 40.45648 234.14439 47.751953 232.48633 C 55.04739 230.82826 63.337916 232.32034 72.623047 236.96289 C 79.549512 240.42613 86.752331 242.04387 94.232422 241.81641 C 79.119952 245.18522 68.600157 251.5251 62.673828 260.83789 C 53.388697 275.42876 48.415148 286.70344 47.751953 294.66211 C 19.896596 327.82324 13.595505 346.39369 28.849609 350.37305 C 26.19672 360.98461 25.534865 369.60604 26.861328 376.23828 C 27.524522 391.49238 35.813095 398.45728 51.730469 397.13086 C 74.28001 401.11017 85.88755 412.38482 86.550781 430.95508 C 65.327667 465.44264 50.736012 510.2103 42.777344 565.25781 C 46.093464 743.00151 46.923685 848.45409 45.265625 881.61523 C 43.607564 914.77633 50.570511 942.79648 66.15625 965.67773 C 81.741989 988.55887 132.31341 1000 217.86914 1000 C 300.10875 1000 341.22852 928.70419 341.22852 786.11133 C 341.89175 725.09483 353.16639 694.58594 375.05273 694.58594 C 396.93912 694.58594 407.88281 725.09483 407.88281 786.11133 C 409.20924 821.92535 413.35453 866.52656 420.31836 919.91602 C 427.2822 973.3054 468.23551 1000 543.17969 1000 C 538.5371 989.38849 527.75982 976.95264 510.84766 962.69336 C 493.93549 948.43405 483.15823 924.39276 478.51562 890.56836 C 473.87309 856.74403 471.21983 821.92535 470.55664 786.11133 C 470.55664 691.9337 438.72215 644.84375 375.05273 644.84375 C 311.38335 644.84375 279.54883 691.9337 279.54883 786.11133 C 278.2224 879.62573 257.66252 926.38281 217.86914 926.38281 C 190.67701 927.04608 170.11713 922.73435 156.18945 913.44922 C 142.26177 904.16409 146.24061 867.687 168.12695 804.01758 C 190.0133 740.34823 217.20525 660.76191 249.70312 565.25781 L 248.70898 480.69727 C 246.05609 444.22001 243.07194 415.86696 239.75586 395.63867 C 236.43974 375.41035 230.96692 353.35843 223.33984 329.48242 C 215.71277 305.60642 205.26835 284.54917 192.00391 266.31055 C 186.6663 258.97134 179.82506 253.10857 171.48047 248.72266 C 172.96756 249.101 174.50239 249.65735 176.08594 250.39258 C 185.37103 254.70349 195.15363 256.02916 205.43359 254.37109 C 215.71355 252.71307 224.16854 253.54328 230.80078 256.85938 C 237.43299 260.1755 246.38732 262.33135 257.66211 263.32617 C 268.9369 264.321 277.22743 259.181 282.5332 247.90625 C 283.85967 244.59012 282.5322 243.26258 278.55273 243.92578 C 277.22627 243.92578 273.74484 244.92046 268.10742 246.91016 C 262.47005 248.89981 253.68216 246.24661 241.74414 238.95117 C 229.80615 231.6557 218.69793 229.5018 208.41797 232.48633 C 201.42424 234.51675 194.66024 234.62699 188.12695 232.82031 C 193.97129 223.65814 193.62443 218.08112 187.08594 216.08789 C 195.05997 204.4757 200.84329 192.86412 204.4375 181.25195 C 208.74849 167.32427 211.07074 147.0953 211.40234 120.56641 C 211.73394 94.037508 211.23658 70.824423 209.91016 50.927734 C 213.22632 23.072357 208.25277 8.4827132 194.98828 7.15625 C 181.0606 5.1665922 171.77536 8.1507069 167.13281 16.109375 C 164.47993 6.8242437 156.1894 1.5178324 142.26172 0.19140625 C 141.43269 0.06705264 140.6222 0.003227805 139.83203 -0.001953125 z M 143.52148 13.875 C 148.17311 13.727335 153.05848 17.787082 158.17773 26.056641 L 144.25 139.46875 C 130.98555 139.46875 121.70226 147.09547 116.39648 162.34961 C 113.08036 178.26694 117.0592 190.20539 128.33398 198.16406 C 130.32368 200.81695 125.01726 202.14258 112.41602 202.14258 C 102.46769 185.56204 101.47297 158.03921 109.43164 119.57227 C 117.39031 81.105341 124.68612 55.239056 131.31836 41.974609 L 134.30273 20.087891 C 137.26651 16.046383 140.33879 13.976034 143.52148 13.875 z M 188.76953 19.09375 C 192.58307 19.09375 195.65137 22.077865 197.97266 28.046875 L 194.98828 48.939453 C 198.3044 64.193594 199.46358 91.385487 198.46875 130.51562 C 197.47392 169.64575 190.01361 196.17385 176.08594 210.10156 C 163.48468 207.44868 158.51118 204.7955 161.16406 202.14258 C 173.76532 197.50003 180.39731 187.22007 181.06055 171.30273 C 179.73408 155.38536 172.76918 145.4383 160.16797 141.45898 L 175.08984 28.046875 C 180.39562 22.077865 184.956 19.09375 188.76953 19.09375 z M 148.90625 150.25586 C 149.65756 150.27656 150.42727 150.32916 151.21484 150.41211 C 163.81606 152.40176 170.11719 160.35943 170.11719 174.28711 C 167.46429 188.21479 159.17377 195.17969 145.24609 195.17969 C 131.98165 191.86357 126.01143 183.57304 127.33789 170.30859 C 130.44672 156.62961 137.63663 149.94496 148.90625 150.25586 z M 54.871094 217.94336 C 62.228721 218.02106 68.810074 219.71902 74.613281 223.03516 C 83.898413 228.34094 93.514567 229.83301 103.46289 227.51172 C 112.06156 225.50536 119.2983 226.34748 125.17188 230.03906 C 126.93904 232.9862 127.88269 235.97023 128.00391 238.99219 C 127.2359 238.97479 126.46291 238.96333 125.68359 238.95703 C 118.87425 232.82301 111.3004 230.83131 102.96484 232.98242 C 92.684888 235.63531 82.902319 234.64059 73.617188 229.99805 C 64.332093 225.3555 53.057452 224.19438 39.792969 226.51562 C 26.528521 228.83693 16.248561 226.35012 8.953125 219.05469 C 16.911793 222.37077 27.524618 222.53722 40.789062 219.55273 C 45.76323 218.43354 50.456517 217.89673 54.871094 217.94336 z M 164.58594 233.08984 C 168.82141 233.29195 173.31826 234.58394 178.07617 236.96289 C 187.3613 241.60544 197.14387 242.60012 207.42383 239.94727 C 217.70379 237.29434 228.81201 239.28378 240.75 245.91602 C 252.68802 252.54822 262.96794 255.20143 271.58984 253.875 C 262.96794 258.51758 252.52157 258.02022 240.25195 252.38281 C 227.98234 246.7454 216.70769 245.08692 206.42773 247.4082 C 196.14777 249.7295 186.36518 248.23742 177.08008 242.93164 C 169.92884 238.84523 162.58176 238.69282 155.03711 242.47461 C 154.09543 242.22978 153.13954 241.99665 152.17188 241.77734 C 152.99975 238.79929 154.69148 236.17481 157.24414 233.90234 C 159.59735 233.23994 162.04465 232.96858 164.58594 233.08984 z M 126.8418 255.36719 C 157.01844 255.69879 178.07569 268.63192 190.01367 294.16602 C 201.95169 319.70008 210.57313 346.892 215.87891 375.74219 C 221.18472 404.59241 224.16884 439.57746 224.83203 480.69727 L 224.83203 547.34961 L 199.96094 547.34961 L 199.96094 480.69727 C 199.96094 452.17867 189.68097 437.91797 169.12109 437.91797 C 148.56117 437.91797 138.28125 452.17867 138.28125 480.69727 L 138.28125 547.34961 L 122.36523 547.34961 L 122.36523 422.00195 C 128.33424 395.47302 135.29719 375.90785 143.25586 363.30664 C 151.21453 350.70539 154.19864 338.60053 152.20898 326.99414 C 150.21929 315.38775 144.74842 309.75043 135.79492 310.08203 C 126.84143 310.41362 118.88181 305.93744 111.91797 296.65234 C 104.95413 287.36721 91.525594 281.06608 71.628906 277.75 C 78.261111 262.49586 96.665142 255.03559 126.8418 255.36719 z M 63.669922 294.66211 C 85.556269 295.98857 99.64861 301.95875 105.94922 312.57031 C 112.24983 323.18187 118.88186 327.82447 125.8457 326.49805 C 132.80954 325.17159 136.29297 328.81951 136.29297 337.44141 C 136.29297 346.06331 132.97596 355.01565 126.34375 364.30078 C 119.71151 373.58587 114.40509 392.82013 110.42578 422.00195 L 103.46289 423.99023 C 98.157115 394.80845 79.255717 379.88589 46.757812 379.22266 C 42.778461 369.93753 42.445598 359.65761 45.761719 348.38281 C 40.45594 345.06673 36.808017 341.75167 34.818359 338.43555 C 40.787369 326.49753 50.405475 311.90591 63.669922 294.66211 z M 71.550781 306.44336 C 65.675041 306.17522 61.05874 309.21262 57.701172 315.55469 C 59.690829 326.16629 68.643174 330.80889 84.560547 329.48242 C 100.47788 328.15596 101.4726 322.68314 87.544922 313.06641 C 81.451562 308.85909 76.120802 306.65191 71.550781 306.44336 z M 99.320312 455.29297 C 101.41878 455.31627 102.46875 462.79037 102.46875 477.71289 L 102.46875 566.25195 L 156.18945 566.25195 L 156.18945 480.69727 C 156.18945 464.77993 160.49919 456.82031 169.12109 456.82031 C 177.74295 456.82031 182.05469 464.77993 182.05469 480.69727 L 182.05469 566.25195 L 221.84766 566.25195 C 190.67618 659.10315 165.80655 731.22914 147.23633 782.62891 C 128.66607 834.02867 119.38086 874.98199 119.38086 905.49023 C 119.38086 935.99848 152.21007 951.25391 217.86914 951.25391 C 272.91663 951.25391 300.43945 896.20629 300.43945 786.11133 C 300.43945 704.53491 325.31103 663.74609 375.05273 663.74609 C 424.79447 663.74609 449.66602 704.53491 449.66602 786.11133 C 450.99241 821.92535 454.14105 859.3972 459.11523 898.52734 C 464.08941 937.65745 482.82631 966.50787 515.32422 985.07812 C 468.23544 974.46656 442.70201 947.60559 438.72266 904.49609 C 434.7433 861.38663 431.42632 821.92535 428.77344 786.11133 C 428.77344 713.82005 410.86676 677.67383 375.05273 677.67383 C 338.57548 677.67383 320.33594 713.82005 320.33594 786.11133 C 320.33594 913.45005 286.18107 977.11914 217.86914 977.11914 C 124.35471 977.78237 77.264757 954.40287 76.601562 906.98242 C 75.938333 859.56205 75.276513 745.65441 74.613281 565.25781 C 75.276513 531.43345 81.244743 499.26606 92.519531 468.75781 C 95.42112 459.76285 97.688169 455.27483 99.320312 455.29297 z " />
</svg>
