<?xml version="1.0" encoding="UTF-8" standalone="no"?>
<svg
   width="700"
   height="1000"
   version="1.1"
   id="svg1"
   sodipodi:docname="I79A.svg"
   inkscape:version="1.4.2 (f4327f4, 2025-05-13)"
   xmlns:inkscape="http://www.inkscape.org/namespaces/inkscape"
   xmlns:sodipodi="http://sodipodi.sourceforge.net/DTD/sodipodi-0.dtd"
   xmlns="http://www.w3.org/2000/svg"
   xmlns:svg="http://www.w3.org/2000/svg">
  <defs
     id="defs1" />
  <sodipodi:namedview
     id="namedview1"
     pagecolor="#ffffff"
     bordercolor="#666666"
     borderopacity="1.0"
     inkscape:showpageshadow="2"
     inkscape:pageopacity="0.0"
     inkscape:pagecheckerboard="0"
     inkscape:deskcolor="#d1d1d1"
     showguides="true"
     inkscape:zoom="0.5"
     inkscape:cx="191"
     inkscape:cy="203"
     inkscape:window-width="1680"
     inkscape:window-height="998"
     inkscape:window-x="-8"
     inkscape:window-y="-8"
     inkscape:window-maximized="1"
     inkscape:current-layer="svg1" />
  <path
     id="path1"
     style="fill:#000000;stroke:none;stroke-width:0.999999"
     d="M 186.11523 -0.001953125 C 174.50151 -0.077858945 166.87399 12.938913 163.23047 39.050781 C 157.40085 57.187401 151.56986 78.886696 145.74023 104.14844 C 139.91061 129.41018 137.48154 149.32826 138.45312 163.90234 C 139.25583 175.9426 141.49561 188.09414 145.17188 200.35547 C 139.79188 200.68824 138.04747 205.89891 139.91602 215.89648 C 133.89789 215.73045 128.06388 213.96458 122.42188 210.53906 C 113.35358 205.03331 102.34146 204.06246 89.386719 207.625 C 76.431975 211.18747 67.688461 211.35003 63.154297 208.11133 C 58.62017 204.87266 55.380708 203.25195 53.4375 203.25195 C 50.198795 201.30875 48.580078 202.28156 48.580078 206.16797 C 51.171035 217.82722 57.972839 224.62711 68.984375 226.57031 C 79.995874 228.51352 88.901879 228.67597 95.703125 227.05664 C 102.50434 225.43731 110.60194 226.73307 119.99414 230.94336 C 129.38631 235.15365 138.94018 236.44944 148.65625 234.83008 C 153.47369 234.02717 157.65374 234.53677 161.19727 236.36133 C 137.2831 238.31233 121.44306 245.25048 113.67773 257.17578 C 104.60941 271.10211 99.751225 281.95178 99.103516 289.72461 C 71.898567 322.11147 65.744625 340.24835 80.642578 344.13477 C 78.051621 354.49855 77.403759 362.91911 78.699219 369.39648 C 79.346967 384.29444 87.119622 391.09627 102.01758 389.80078 C 124.68836 393.68719 136.34834 404.69932 136.99609 422.83594 C 116.26848 456.51822 100.88562 502.66888 90.845703 561.28906 C 80.80579 619.90925 86.472329 703.30456 107.84766 811.47656 C 79.994994 807.59015 55.058229 811.15256 33.035156 822.16406 C 11.012121 833.17527 0 857.14347 0 894.06445 C 0 936.81507 23.965913 966.93495 71.898438 984.42383 C 119.83093 1001.9128 189.13913 997.70247 279.82227 971.79297 C 351.07329 991.22507 404.67365 1000.6165 440.62305 999.96875 C 476.57241 999.32104 504.74864 994.94827 525.15234 986.85156 C 545.55604 978.75486 562.55965 957.86591 576.16211 924.18359 C 593.65102 926.12691 609.68178 926.12691 624.25586 924.18359 C 638.8299 922.24039 652.91899 918.67797 666.52148 913.49609 C 634.78241 888.23435 604.33765 875.60352 575.18945 875.60352 C 555.75737 827.67099 522.40001 803.70508 475.11523 803.70508 C 442.0807 803.70508 404.83601 813.09649 363.38086 831.88086 C 307.02776 859.73474 267.51454 873.82383 244.84375 874.14648 C 222.17297 874.47039 221.36457 831.0718 242.41602 743.95117 C 263.46747 656.83061 277.23162 593.83877 283.70898 554.97461 L 283.70898 488.9043 C 283.70898 466.88126 282.09026 442.91535 278.85156 417.00586 C 276.90836 399.51699 273.02103 373.76987 267.19141 339.76367 C 261.36178 305.75751 252.13087 279.8479 239.5 262.03516 C 233.33912 253.34674 224.98257 246.81488 214.42969 242.44141 C 216.69961 242.70154 219.06469 243.40245 221.52539 244.54492 C 230.59372 248.75521 240.14759 250.05097 250.1875 248.43164 C 260.22741 246.81231 268.48747 247.62266 274.96484 250.86133 C 281.44218 254.10003 290.02328 256.20419 300.71094 257.17578 C 311.3986 258.1474 319.65866 253.12873 325.48828 242.11719 C 326.13603 238.87852 324.84027 237.25977 321.60156 237.25977 C 319.65839 237.90748 315.93352 239.20128 310.42773 241.14453 C 304.92199 243.0877 296.50143 240.49813 285.16602 233.37305 C 273.83064 226.24793 263.14346 224.14181 253.10352 227.05664 C 245.97974 229.12485 239.09946 229.15467 232.46484 227.14648 C 238.0318 218.31354 237.49394 212.90111 231.11133 210.98633 C 239.5558 199.89771 245.42866 188.57588 248.73047 177.01953 C 252.61688 163.41708 254.8835 143.49895 255.53125 117.26562 C 256.17896 91.032307 255.85601 68.522649 254.56055 49.738281 C 257.79925 22.533373 252.61812 7.9607861 239.01562 6.0175781 C 225.41316 4.0743702 216.34471 7.3118418 211.81055 15.732422 C 209.86734 6.6640934 202.09465 1.4829596 188.49219 0.1875 C 187.68252 0.06604951 186.88948 0.003107265 186.11523 -0.001953125 z M 189.5625 13.550781 C 193.94928 13.406568 198.45129 17.372739 203.06641 25.449219 L 189.46289 135.24023 C 177.1559 135.88798 168.41235 143.66068 163.23047 158.55859 C 159.34406 174.10429 163.22947 185.76428 174.88867 193.53711 C 176.18417 196.12806 170.67813 197.09892 158.37109 196.45117 C 148.65505 180.25776 147.84665 153.53978 155.94336 116.29492 C 164.04006 79.050063 171.32536 53.625892 177.80273 40.023438 L 180.71875 19.619141 C 183.61333 15.671999 186.56102 13.649454 189.5625 13.550781 z M 232.94141 18.404297 C 236.66588 18.566234 239.66262 21.562954 241.92969 27.392578 L 239.01562 46.824219 C 242.90204 62.369882 244.19585 89.250345 242.90039 127.4668 C 241.60493 165.68328 234.15718 191.59285 220.55469 205.19531 C 208.24769 201.95665 203.38952 199.04213 205.98047 196.45117 C 218.28747 192.56476 224.76436 182.84843 225.41211 167.30273 C 224.76436 151.75707 218.28747 142.04071 205.98047 138.1543 L 219.58203 26.419922 C 224.76392 20.914172 229.21693 18.24236 232.94141 18.404297 z M 197.23633 145.92773 C 208.89557 147.87098 214.72461 155.96858 214.72461 170.21875 C 212.13366 183.17349 204.03605 189.65039 190.43359 189.65039 C 178.1266 187.05944 172.62251 178.96182 173.91797 165.35938 C 176.50892 151.7569 184.28158 145.28002 197.23633 145.92773 z M 102.88477 212.85547 C 110.1212 212.93137 116.47028 214.5875 121.93555 217.82617 C 130.68 223.00809 140.07337 224.46631 150.11328 222.19922 C 158.20876 220.37121 165.04072 220.96542 170.60938 223.98047 C 172.84781 227.41643 173.83217 231.02307 173.56445 234.80078 C 166.03914 227.66127 157.89793 225.07918 149.14062 227.05664 C 139.10072 229.32373 129.54681 228.19042 120.47852 223.65625 C 111.41019 219.12208 100.40002 217.98877 87.445312 220.25586 C 74.49057 222.52294 64.449339 220.41683 57.324219 213.93945 C 65.097087 217.17816 75.623762 217.34061 88.902344 214.42578 C 93.881825 213.33273 98.542902 212.80992 102.88477 212.85547 z M 209.56641 227.49219 C 213.85489 227.7029 218.32673 229.01561 222.98242 231.42969 C 231.72688 235.96381 241.12024 236.9347 251.16016 234.34375 C 261.20007 231.75283 272.0497 233.69649 283.70898 240.17383 C 295.36824 246.6512 305.73245 248.91778 314.80078 246.97461 C 306.3802 252.15648 296.01598 251.99403 283.70898 246.48828 C 271.40199 240.98249 260.3899 239.20128 250.67383 241.14453 C 240.95779 243.0877 231.56634 241.63144 222.49805 236.77344 C 214.66101 232.57502 206.33975 232.852 197.53516 237.60352 C 197.45936 237.58992 197.38257 237.576 197.30664 237.5625 C 197.93751 234.09657 199.51871 231.00975 202.04688 228.30273 C 204.48776 227.63595 206.99332 227.36576 209.56641 227.49219 z M 176.3457 251.34766 C 205.8177 251.67153 225.25037 263.16906 234.64258 285.83984 C 244.03474 308.51062 250.67413 331.50377 254.56055 354.82227 C 258.44696 378.1408 261.03852 398.86925 262.33398 417.00586 C 264.92494 448.74497 266.54366 488.58119 267.19141 536.51367 L 247.75977 536.51367 L 247.75977 472.38672 C 247.75977 443.88631 237.7185 429.63672 217.63867 429.63672 C 197.55885 429.63672 187.51953 443.88631 187.51953 472.38672 L 187.51953 536.51367 L 171.97461 536.51367 L 171.97461 414.0918 C 177.80423 388.18235 184.60412 369.07263 192.37695 356.76562 C 200.14982 344.45864 203.06629 332.63815 201.12305 321.30273 C 199.17984 309.96736 193.83426 304.46128 185.08984 304.78516 C 176.34539 305.109 168.57273 300.73626 161.77148 291.66797 C 154.97028 282.59964 141.85399 276.44765 122.42188 273.20898 C 128.89925 258.31103 146.87368 251.02378 176.3457 251.34766 z M 114.64844 290.69727 C 136.02372 291.34501 149.78986 296.85106 155.94336 307.21484 C 162.09685 317.57864 168.57375 322.11187 175.375 320.81641 C 182.17625 319.52091 185.57617 323.08333 185.57617 331.50391 C 185.57617 340.5722 182.3387 349.4782 175.86133 358.22266 C 169.38395 366.96711 164.20087 385.59139 160.31445 414.0918 L 153.51367 416.0332 C 148.3318 387.53276 129.87192 372.96021 98.132812 372.3125 C 94.246397 363.24417 93.921488 353.20291 97.160156 342.19141 C 91.97828 338.95271 88.415864 335.71524 86.472656 332.47656 C 92.30228 320.81728 101.69369 306.89068 114.64844 290.69727 z M 122.3457 301.41797 C 116.60717 301.31549 112.09948 304.54321 108.82031 311.10156 C 110.76353 320.8176 119.50707 325.02792 135.05273 323.73242 C 150.5984 322.43696 151.57121 317.09138 137.96875 307.69922 C 132.01768 303.59013 126.80901 301.49767 122.3457 301.41797 z M 149.4668 446.60547 C 151.51627 446.62827 152.54102 453.92593 152.54102 468.5 L 152.54102 554.97461 L 204.03711 554.97461 L 204.03711 472.38672 C 204.03711 456.19331 208.57038 448.09766 217.63867 448.09766 C 226.05925 448.09766 230.26953 456.19331 230.26953 472.38672 L 230.26953 554.97461 L 258.44727 554.97461 C 250.67444 598.37294 239.1769 653.26714 223.95508 719.66016 C 208.73325 786.05314 201.446 829.28931 202.09375 849.36914 C 202.7415 869.449 211.80992 883.2151 229.29883 890.66406 C 246.7877 898.11302 278.52632 891.14872 324.51562 869.77344 C 390.58473 837.38657 438.19364 821.19336 467.3418 821.19336 C 499.72862 821.19336 523.53404 830.09932 538.75586 847.91211 C 553.97765 865.72489 561.58789 883.69935 561.58789 901.83594 C 561.58789 921.26809 552.68189 939.40497 534.86914 956.24609 C 517.05639 973.08722 488.06981 981.99319 447.91016 982.96484 C 407.75046 983.9364 360.14159 976.32623 305.08398 960.13281 L 340.0625 949.44531 C 382.1654 959.80929 425.23908 964.66743 469.28516 964.01953 C 512.68352 954.30346 534.38281 933.57501 534.38281 901.83594 C 534.38281 870.74464 517.70415 853.58054 484.3457 850.3418 C 450.9873 847.10313 415.19891 855.84665 376.98242 876.57422 C 338.76598 897.30176 309.94189 910.41808 290.50977 915.92383 C 271.07769 921.42843 252.13237 924.01991 233.67188 923.69727 C 215.21138 923.37335 195.7787 913.00917 175.375 892.60547 C 154.9713 872.20177 135.86353 819.89713 118.05078 735.69141 C 100.238 651.48564 108.4961 559.50732 142.82617 459.75586 C 145.66001 450.97093 147.87277 446.58776 149.4668 446.60547 z M 76.513672 828.48047 C 89.630339 827.50887 104.93299 828.64217 122.42188 831.88086 C 123.06961 839.00595 125.01329 845.80779 128.25195 852.28516 C 122.42233 847.75103 109.79145 845.48438 90.359375 845.48438 C 70.927258 845.48437 57.000658 850.1801 48.580078 859.57227 C 40.159498 868.96443 35.626227 880.46196 34.978516 894.06445 C 35.626227 912.84882 43.074015 928.39418 57.324219 940.70117 C 71.574423 953.00817 102.99004 959.16211 151.57031 959.16211 C 200.15055 959.16211 258.60909 946.69173 326.94531 921.75391 C 395.2815 896.816 457.95036 886.93918 514.95117 892.12109 L 515.92188 905.72266 C 453.73913 901.18849 382.32677 914.30474 301.68359 945.07227 C 221.04037 975.83975 153.51337 985.23315 99.103516 973.25 C 44.693619 961.26687 17.488281 934.87185 17.488281 894.06445 C 17.488281 853.25703 37.16367 831.39528 76.513672 828.48047 z M 85.986328 864.42969 C 107.03778 864.10581 124.04135 869.4494 136.99609 880.46094 C 160.96233 912.20002 184.28039 931.30775 206.95117 937.78516 C 148.65486 944.26253 108.65815 943.12922 86.958984 934.38477 C 65.259786 925.64035 54.410156 912.20107 54.410156 894.06445 C 54.410156 874.63111 64.934878 864.75234 85.986328 864.42969 z M 461.51172 865.88672 C 484.18247 865.23901 499.40487 868.15349 507.17773 874.63086 C 454.71105 873.33537 412.93117 879.16631 381.83984 892.12109 C 412.28346 875.27993 438.84093 866.53447 461.51172 865.88672 z M 578.10547 892.12109 C 594.9466 892.76885 610.81494 897.95002 625.71289 907.66602 C 615.99685 910.9048 600.12851 910.25686 578.10547 905.72266 L 578.10547 904.75195 L 578.10547 892.12109 z M 474.99414 923.39453 C 486.8963 923.11115 499.24236 923.37393 512.03516 924.18359 C 497.13724 939.72907 478.19193 947.82476 455.19727 948.47266 C 432.20261 949.1204 407.10338 946.53076 379.89844 940.70117 C 407.58918 930.01347 439.28766 924.24467 474.99414 923.39453 z " />
</svg>
