<?xml version="1.0" encoding="UTF-8" standalone="no"?>
<svg
   width="950"
   height="1000"
   version="1.1"
   id="svg1"
   sodipodi:docname="N4B.svg"
   inkscape:version="1.4.2 (f4327f4, 2025-05-13)"
   xmlns:inkscape="http://www.inkscape.org/namespaces/inkscape"
   xmlns:sodipodi="http://sodipodi.sourceforge.net/DTD/sodipodi-0.dtd"
   xmlns="http://www.w3.org/2000/svg"
   xmlns:svg="http://www.w3.org/2000/svg">
  <defs
     id="defs1" />
  <sodipodi:namedview
     id="namedview1"
     pagecolor="#ffffff"
     bordercolor="#666666"
     borderopacity="1.0"
     inkscape:showpageshadow="2"
     inkscape:pageopacity="0.0"
     inkscape:pagecheckerboard="0"
     inkscape:deskcolor="#d1d1d1"
     inkscape:zoom="0.26693281"
     inkscape:cx="196.67871"
     inkscape:cy="1189.4379"
     inkscape:window-width="1680"
     inkscape:window-height="998"
     inkscape:window-x="-8"
     inkscape:window-y="-8"
     inkscape:window-maximized="1"
     inkscape:current-layer="svg1"
     showguides="true">
    <sodipodi:guide
       position="455.83746,1000"
       orientation="1,0"
       id="guide2"
       inkscape:locked="false" />
    <sodipodi:guide
       position="331.00977,0"
       orientation="-1,0"
       id="guide3"
       inkscape:locked="false"
       inkscape:label=""
       inkscape:color="rgb(0,134,229)" />
    <sodipodi:guide
       position="580.66601,0"
       orientation="-1,0"
       id="guide4"
       inkscape:locked="false"
       inkscape:label=""
       inkscape:color="rgb(0,134,229)" />
  </sodipodi:namedview>
  <path
     id="path2"
     style="fill:#000000;stroke:none;stroke-width:0.999999"
     d="M 0 0 L 0 279.1875 L 138.07031 190.86328 L 157.70898 190.86328 C 148.7073 211.9656 144.20703 234.97699 144.20703 259.89844 C 144.20703 299.15393 155.71277 332.99549 178.72461 361.42188 L 177.70898 360.40625 C 155.37395 390.18627 144.20703 424.70349 144.20703 463.95898 C 144.20703 503.89131 155.71277 537.73289 178.72461 565.48242 L 177.70898 565.48242 C 155.37395 595.26248 144.20703 629.77971 144.20703 669.03516 C 144.20703 708.29069 155.71277 741.79343 178.72461 769.54297 C 186.84644 778.34164 179.56992 798.98539 156.89648 831.47266 C 134.22305 863.95997 111.04216 920.13537 87.353516 1000 L 133.03906 1000 C 147.92911 947.20818 160.95752 909.4762 172.125 886.80273 C 183.29252 864.1293 195.64524 845.347 209.18164 830.45703 C 222.71804 845.347 235.07076 864.1293 246.23828 886.80273 C 257.40576 909.4762 270.43417 947.20818 285.32422 1000 L 331.00977 1000 C 307.32113 920.13537 284.14023 863.95997 261.4668 831.47266 C 238.79336 798.98539 231.51684 778.34164 239.63867 769.54297 C 262.65051 741.79343 274.15625 708.29069 274.15625 669.03516 C 274.15625 629.77971 262.98933 595.26248 240.6543 565.48242 L 239.63867 565.48242 C 262.65051 537.73289 274.15625 503.89131 274.15625 463.95898 C 274.15625 424.70349 262.98933 390.18627 240.6543 360.40625 L 239.63867 361.42188 C 262.65051 332.99549 274.15625 299.15393 274.15625 259.89844 C 274.15625 234.97699 269.65598 211.9656 260.6543 190.86328 L 404.36523 190.86328 C 395.36355 211.9656 390.86328 234.97699 390.86328 259.89844 C 390.86328 299.15393 402.36902 332.99549 425.38086 361.42188 L 424.36523 360.40625 C 402.0302 390.18627 390.86328 424.70349 390.86328 463.95898 C 390.86328 503.89131 402.36902 537.73289 425.38086 565.48242 L 424.36523 565.48242 C 402.0302 595.26248 390.86328 629.77971 390.86328 669.03516 C 390.86328 708.29069 402.36902 741.79343 425.38086 769.54297 C 433.50269 778.34164 426.22617 798.98539 403.55273 831.47266 C 380.8793 863.95997 357.69841 920.13537 334.00977 1000 L 379.69531 1000 C 394.58536 947.20818 407.61377 909.4762 418.78125 886.80273 C 429.94877 864.1293 442.30149 845.347 455.83789 830.45703 C 469.37429 845.347 481.72701 864.1293 492.89453 886.80273 C 504.06201 909.4762 517.09042 947.20818 531.98047 1000 L 577.66602 1000 C 553.97738 920.13537 530.79648 863.95997 508.12305 831.47266 C 485.44961 798.98539 478.17309 778.34164 486.29492 769.54297 C 509.30676 741.79343 520.8125 708.29069 520.8125 669.03516 C 520.8125 629.77971 509.64558 595.26248 487.31055 565.48242 L 486.29492 565.48242 C 509.30676 537.73289 520.8125 503.89131 520.8125 463.95898 C 520.8125 424.70349 509.64558 390.18627 487.31055 360.40625 L 486.29492 361.42188 C 509.30676 332.99549 520.8125 299.15393 520.8125 259.89844 C 520.8125 234.97699 516.31223 211.9656 507.31055 190.86328 L 651.02148 190.86328 C 642.0198 211.9656 637.51953 234.97699 637.51953 259.89844 C 637.51953 299.15393 649.02527 332.99549 672.03711 361.42188 L 671.02148 360.40625 C 648.68645 390.18627 637.51953 424.70349 637.51953 463.95898 C 637.51953 503.89131 649.02527 537.73289 672.03711 565.48242 L 671.02148 565.48242 C 648.68645 595.26248 637.51953 629.77971 637.51953 669.03516 C 637.51953 708.29069 649.02527 741.79343 672.03711 769.54297 C 680.15894 778.34164 672.88242 798.98539 650.20898 831.47266 C 627.53555 863.95997 604.35466 920.13537 580.66602 1000 L 626.35156 1000 C 641.24161 947.20818 654.27002 909.4762 665.4375 886.80273 C 676.60502 864.1293 688.95774 845.347 702.49414 830.45703 C 716.03054 845.347 728.38326 864.1293 739.55078 886.80273 C 750.71826 909.4762 763.74667 947.20818 778.63672 1000 L 824.32227 1000 C 800.63363 920.13537 777.45273 863.95997 754.7793 831.47266 C 732.10586 798.98539 724.82934 778.34164 732.95117 769.54297 C 755.96301 741.79343 767.46875 708.29069 767.46875 669.03516 C 767.46875 629.77971 756.30183 595.26248 733.9668 565.48242 L 732.95117 565.48242 C 755.96301 537.73289 767.46875 503.89131 767.46875 463.95898 C 767.46875 424.70349 756.30183 390.18627 733.9668 360.40625 L 732.95117 361.42188 C 755.96301 332.99549 767.46875 299.15393 767.46875 259.89844 C 767.46875 234.97699 762.96848 211.9656 753.9668 190.86328 L 774.61914 190.86328 L 911.67578 279.1875 L 911.67578 0 L 0 0 z M 37.5625 45.685547 L 875.12695 45.685547 L 875.12695 206.0918 L 774.61914 145.17773 L 138.07031 145.17773 L 37.5625 206.0918 L 37.5625 45.685547 z M 209.18164 191.87891 C 230.83987 191.87891 241.66992 214.55157 241.66992 259.89844 C 241.66992 305.92212 230.83987 328.93359 209.18164 328.93359 C 187.52341 328.93359 176.69336 305.92212 176.69336 259.89844 C 176.69336 214.55157 187.52341 191.87891 209.18164 191.87891 z M 455.83789 191.87891 C 477.49612 191.87891 488.32617 214.55157 488.32617 259.89844 C 488.32617 305.92212 477.49612 328.93359 455.83789 328.93359 C 434.17966 328.93359 423.34961 305.92212 423.34961 259.89844 C 423.34961 214.55157 434.17966 191.87891 455.83789 191.87891 z M 702.49414 191.87891 C 724.15237 191.87891 734.98242 214.55157 734.98242 259.89844 C 734.98242 305.92212 724.15237 328.93359 702.49414 328.93359 C 680.83591 328.93359 670.00586 305.92212 670.00586 259.89844 C 670.00586 214.55157 680.83591 191.87891 702.49414 191.87891 z M 209.18164 395.93945 C 230.83987 395.93945 241.66992 418.61211 241.66992 463.95898 C 241.66992 509.98265 230.83987 532.99414 209.18164 532.99414 C 187.52341 532.99414 176.69336 509.98265 176.69336 463.95898 C 176.69336 418.61211 187.52341 395.93945 209.18164 395.93945 z M 455.83789 395.93945 C 477.49612 395.93945 488.32617 418.61211 488.32617 463.95898 C 488.32617 509.98265 477.49612 532.99414 455.83789 532.99414 C 434.17966 532.99414 423.34961 509.98265 423.34961 463.95898 C 423.34961 418.61211 434.17966 395.93945 455.83789 395.93945 z M 702.49414 395.93945 C 724.15237 395.93945 734.98242 418.61211 734.98242 463.95898 C 734.98242 509.98265 724.15237 532.99414 702.49414 532.99414 C 680.83591 532.99414 670.00586 509.98265 670.00586 463.95898 C 670.00586 418.61211 680.83591 395.93945 702.49414 395.93945 z M 209.18164 601.01562 C 230.83987 601.01563 241.66992 623.68833 241.66992 669.03516 C 241.66992 715.05883 230.83987 738.07031 209.18164 738.07031 C 187.52341 738.07031 176.69336 715.05883 176.69336 669.03516 C 176.69336 623.68833 187.52341 601.01563 209.18164 601.01562 z M 455.83789 601.01562 C 477.49612 601.01563 488.32617 623.68833 488.32617 669.03516 C 488.32617 715.05883 477.49612 738.07031 455.83789 738.07031 C 434.17966 738.07031 423.34961 715.05883 423.34961 669.03516 C 423.34961 623.68833 434.17966 601.01563 455.83789 601.01562 z M 702.49414 601.01562 C 724.15237 601.01563 734.98242 623.68833 734.98242 669.03516 C 734.98242 715.05883 724.15237 738.07031 702.49414 738.07031 C 680.83591 738.07031 670.00586 715.05883 670.00586 669.03516 C 670.00586 623.68833 680.83591 601.01563 702.49414 601.01562 z " />
</svg>
