<?xml version="1.0" encoding="UTF-8" standalone="no"?>
<svg
   width="1250"
   height="1000"
   id="svg2440"
   sodipodi:version="0.32"
   inkscape:version="1.4.2 (f4327f4, 2025-05-13)"
   sodipodi:docname="N4D.svg"
   inkscape:output_extension="org.inkscape.output.svg.inkscape"
   version="1.1"
   xmlns:inkscape="http://www.inkscape.org/namespaces/inkscape"
   xmlns:sodipodi="http://sodipodi.sourceforge.net/DTD/sodipodi-0.dtd"
   xmlns="http://www.w3.org/2000/svg"
   xmlns:svg="http://www.w3.org/2000/svg"
   xmlns:rdf="http://www.w3.org/1999/02/22-rdf-syntax-ns#"
   xmlns:cc="http://creativecommons.org/ns#"
   xmlns:dc="http://purl.org/dc/elements/1.1/">
  <metadata
     id="metadata2447">
    <rdf:RDF>
      <cc:Work
         rdf:about="">
        <dc:format>image/svg+xml</dc:format>
        <dc:type
           rdf:resource="http://purl.org/dc/dcmitype/StillImage" />
      </cc:Work>
    </rdf:RDF>
  </metadata>
  <defs
     id="defs2445">
    <inkscape:perspective
       sodipodi:type="inkscape:persp3d"
       inkscape:vp_x="0 : 992.92 : 1"
       inkscape:vp_y="0 : 1000 : 0"
       inkscape:vp_z="17.366388 : 992.92 : 1"
       inkscape:persp3d-origin="8.6831942 : 990.56 : 1"
       id="perspective2449" />
  </defs>
  <sodipodi:namedview
     inkscape:window-height="998"
     inkscape:window-width="1680"
     inkscape:pageshadow="2"
     inkscape:pageopacity="0.0"
     guidetolerance="10.0"
     gridtolerance="10.0"
     objecttolerance="10.0"
     borderopacity="1.0"
     bordercolor="#666666"
     pagecolor="#ffffff"
     id="base"
     showgrid="false"
     inkscape:zoom="0.53386562"
     inkscape:cx="931.88245"
     inkscape:cy="628.4353"
     inkscape:window-x="-8"
     inkscape:window-y="-8"
     inkscape:current-layer="svg2440"
     inkscape:showpageshadow="2"
     inkscape:pagecheckerboard="0"
     inkscape:deskcolor="#d1d1d1"
     showguides="true"
     inkscape:window-maximized="1">
    <sodipodi:guide
       position="2.2061969,444.03838"
       orientation="1,0"
       id="guide1"
       inkscape:locked="false" />
    <sodipodi:guide
       position="205.17631,444.03838"
       orientation="1,0"
       id="guide2"
       inkscape:locked="false" />
    <sodipodi:guide
       position="2.2061969,640.3899"
       orientation="1,0"
       id="guide3"
       inkscape:locked="false" />
    <sodipodi:guide
       position="2.2070312,640.39066"
       orientation="0,-1"
       id="guide8"
       inkscape:locked="false" />
    <sodipodi:guide
       position="1241.6426,640.39066"
       orientation="-1,0"
       id="guide9"
       inkscape:locked="false"
       inkscape:label=""
       inkscape:color="rgb(0,134,229)" />
  </sodipodi:namedview>
  <path
     id="path2442"
     style="fill:#000000;stroke:none;stroke-width:0.999997"
     d="M 2.2070312 0 L 2.2070312 359.60938 L 94.867188 359.60938 L 2.2070312 555.96094 C 31.769251 569.98404 61.055585 576.18584 90.453125 578.02344 L 2.2070312 765.55078 C 30.314831 778.88397 58.082076 785.29415 86.041016 787.61133 L 2.2070312 975.13867 C 70.247511 1008.2866 137.13526 1008.2866 205.17578 975.13867 L 116.92773 787.61133 C 146.2756 785.77365 175.99257 779.57386 205.17578 765.55078 L 116.92773 578.02344 C 146.2756 576.18584 175.99259 569.98403 205.17578 555.96094 L 112.51562 359.60938 L 205.16602 359.60938 L 211.83789 359.60938 L 302.16016 359.60938 L 209.5 555.96094 C 239.06222 569.98404 268.34855 576.18584 297.74609 578.02344 L 209.5 765.55078 C 237.6078 778.88397 265.37504 785.29415 293.33398 787.61133 L 209.5 975.13867 C 277.54048 1008.2866 344.42823 1008.2866 412.46875 975.13867 L 324.2207 787.61133 C 353.56857 785.77365 383.28554 779.57386 412.46875 765.55078 L 324.2207 578.02344 C 353.56857 576.18584 383.28556 569.98403 412.46875 555.96094 L 319.80859 359.60938 L 509.45312 359.60938 L 416.79297 555.96094 C 446.35519 569.98404 475.64152 576.18584 505.03906 578.02344 L 416.79297 765.55078 C 444.90077 778.88397 472.66801 785.29415 500.62695 787.61133 L 416.79297 975.13867 C 484.83345 1008.2866 551.7212 1008.2866 619.76172 975.13867 L 531.51367 787.61133 C 560.86154 785.77365 590.57851 779.57386 619.76172 765.55078 L 531.51367 578.02344 C 560.86154 576.18584 590.57853 569.98403 619.76172 555.96094 L 527.10156 359.60938 L 716.74609 359.60938 L 624.08594 555.96094 C 653.64816 569.98404 682.93449 576.18584 712.33203 578.02344 L 624.08594 765.55078 C 652.19374 778.88397 679.96098 785.29415 707.91992 787.61133 L 624.08594 975.13867 C 692.12642 1008.2866 759.01417 1008.2866 827.05469 975.13867 L 738.80664 787.61133 C 768.15451 785.77365 797.87148 779.57386 827.05469 765.55078 L 738.80664 578.02344 C 768.15451 576.18584 797.8715 569.98403 827.05469 555.96094 L 734.39453 359.60938 L 924.04102 359.60938 L 831.38086 555.96094 C 860.94308 569.98404 890.22941 576.18584 919.62695 578.02344 L 831.38086 765.55078 C 859.48866 778.88397 887.2559 785.29415 915.21484 787.61133 L 831.38086 975.13867 C 899.42134 1008.2866 966.30912 1008.2866 1034.3496 975.13867 L 946.10156 787.61133 C 975.44943 785.77365 1005.1664 779.57386 1034.3496 765.55078 L 946.10156 578.02344 C 975.44943 576.18584 1005.1664 569.98403 1034.3496 555.96094 L 941.68945 359.60938 L 1131.334 359.60938 L 1038.6738 555.96094 C 1068.236 569.98404 1097.5223 576.18584 1126.9199 578.02344 L 1038.6738 765.55078 C 1066.7816 778.88397 1094.5488 785.29415 1122.5078 787.61133 L 1038.6738 975.13867 C 1106.7143 1008.2866 1173.602 1008.2866 1241.6426 975.13867 L 1153.3945 787.61133 C 1182.7424 785.77365 1212.4593 779.57386 1241.6426 765.55078 L 1153.3945 578.02344 C 1182.7424 576.18584 1212.4594 569.98403 1241.6426 555.96094 L 1148.9824 359.60938 L 1241.6426 359.60938 L 1241.6426 0 L 2.2070312 0 z M 59.566406 57.361328 L 1184.2852 57.361328 L 1184.2852 302.24805 L 59.566406 302.24805 L 59.566406 57.361328 z M 103.69141 414.76562 L 163.25781 536.10547 C 124.87601 549.19016 84.249527 549.19015 44.123047 536.10547 L 103.69141 414.76562 z M 310.98438 414.76562 L 370.55078 536.10547 C 332.16898 549.19016 291.5425 549.19015 251.41602 536.10547 L 310.98438 414.76562 z M 518.27734 414.76562 L 577.84375 536.10547 C 539.46195 549.19016 498.83546 549.19015 458.70898 536.10547 L 518.27734 414.76562 z M 725.57031 414.76562 L 785.13672 536.10547 C 746.75492 549.19016 706.12843 549.19015 666.00195 536.10547 L 725.57031 414.76562 z M 932.86523 414.76562 L 992.43164 536.10547 C 954.04984 549.19016 913.42336 549.19015 873.29688 536.10547 L 932.86523 414.76562 z M 1140.1582 414.76562 L 1199.7246 536.10547 C 1161.3428 549.19016 1120.7163 549.19015 1080.5898 536.10547 L 1140.1582 414.76562 z M 103.69141 624.35352 L 161.05273 743.48828 C 122.67089 756.57297 84.249477 756.57297 44.123047 743.48828 L 103.69141 624.35352 z M 310.98438 624.35352 L 368.3457 743.48828 C 329.96386 756.57297 291.54245 756.57297 251.41602 743.48828 L 310.98438 624.35352 z M 518.27734 624.35352 L 575.63867 743.48828 C 537.25683 756.57297 498.83541 756.57297 458.70898 743.48828 L 518.27734 624.35352 z M 725.57031 624.35352 L 782.93164 743.48828 C 744.5498 756.57297 706.12838 756.57297 666.00195 743.48828 L 725.57031 624.35352 z M 932.86523 624.35352 L 990.22656 743.48828 C 951.84472 756.57297 913.4233 756.57297 873.29688 743.48828 L 932.86523 624.35352 z M 1140.1582 624.35352 L 1197.5195 743.48828 C 1159.1377 756.57297 1120.7162 756.57297 1080.5898 743.48828 L 1140.1582 624.35352 z M 101.48438 833.94336 L 161.05273 955.2832 C 121.79858 967.49558 83.377167 967.49558 44.123047 955.2832 L 101.48438 833.94336 z M 308.77734 833.94336 L 368.3457 955.2832 C 329.09155 967.49558 290.67014 967.49558 251.41602 955.2832 L 308.77734 833.94336 z M 516.07031 833.94336 L 575.63867 955.2832 C 536.38452 967.49558 497.9631 967.49558 458.70898 955.2832 L 516.07031 833.94336 z M 723.36328 833.94336 L 782.93164 955.2832 C 743.67749 967.49558 705.25607 967.49558 666.00195 955.2832 L 723.36328 833.94336 z M 930.6582 833.94336 L 990.22656 955.2832 C 950.97241 967.49558 912.55099 967.49558 873.29688 955.2832 L 930.6582 833.94336 z M 1137.9512 833.94336 L 1197.5195 955.2832 C 1158.2653 967.49558 1119.8439 967.49558 1080.5898 955.2832 L 1137.9512 833.94336 z " />
</svg>
