<?xml version="1.0" encoding="UTF-8" standalone="no"?>
<svg
   width="850"
   height="1000"
   version="1.1"
   id="svg1"
   sodipodi:docname="N52.svg"
   inkscape:version="1.4.2 (f4327f4, 2025-05-13)"
   xmlns:inkscape="http://www.inkscape.org/namespaces/inkscape"
   xmlns:sodipodi="http://sodipodi.sourceforge.net/DTD/sodipodi-0.dtd"
   xmlns="http://www.w3.org/2000/svg"
   xmlns:svg="http://www.w3.org/2000/svg">
  <defs
     id="defs1" />
  <sodipodi:namedview
     id="namedview1"
     pagecolor="#ffffff"
     bordercolor="#666666"
     borderopacity="1.0"
     inkscape:showpageshadow="2"
     inkscape:pageopacity="0.0"
     inkscape:pagecheckerboard="0"
     inkscape:deskcolor="#d1d1d1"
     showguides="true"
     inkscape:zoom="0.53386562"
     inkscape:cx="276.28676"
     inkscape:cy="538.52503"
     inkscape:window-width="1680"
     inkscape:window-height="998"
     inkscape:window-x="-8"
     inkscape:window-y="-8"
     inkscape:window-maximized="1"
     inkscape:current-layer="svg1">
    <sodipodi:guide
       position="95.364238,790.72848"
       orientation="1,0"
       id="guide1"
       inkscape:locked="false" />
    <sodipodi:guide
       position="185.92027,783.73218"
       orientation="1,0"
       id="guide2"
       inkscape:locked="false" />
    <sodipodi:guide
       position="624.94038,783.73218"
       orientation="1,0"
       id="guide3"
       inkscape:locked="false" />
    <sodipodi:guide
       position="220.06628,784.54517"
       orientation="1,0"
       id="guide4"
       inkscape:locked="false" />
    <sodipodi:guide
       position="230.63525,783.73218"
       orientation="1,0"
       id="guide6"
       inkscape:locked="false" />
    <sodipodi:guide
       position="405.43033,1000"
       orientation="1,0"
       id="guide7"
       inkscape:locked="false" />
    <sodipodi:guide
       position="624.94038,783.73218"
       orientation="0,-1"
       id="guide8"
       inkscape:locked="false" />
    <sodipodi:guide
       position="405.43033,823.56922"
       orientation="0,-1"
       id="guide9"
       inkscape:locked="false" />
  </sodipodi:namedview>
  <path
     id="path5"
     style="fill:#000000;stroke-width:25;stroke-linecap:round;stroke-miterlimit:5"
     d="M 405.42969 0 A 219.51006 219.51006 0 0 0 185.94336 216.26758 A 219.51006 219.51006 0 0 0 185.91992 219.50977 A 219.51006 219.51006 0 0 0 185.94336 222.70312 A 219.51006 219.51006 0 0 0 185.94336 222.73633 L 185.91992 854.47266 C 185.91992 882.65665 173.45447 905.42072 146.89648 917.88672 C 120.33844 930.35275 105.02593 933.73985 100.96094 928.04883 C 96.895949 922.35781 97.168402 912.06128 101.77539 897.15625 C 106.38237 882.2513 115.05402 863.2811 127.79102 840.24609 C 140.52807 817.21105 146.89648 788.89109 146.89648 755.28711 C 146.89648 718.97306 137.14093 694.85369 117.62891 682.92969 L 180.22852 449.59961 C 174.80849 442.55364 169.11823 441.46968 163.15625 446.34766 L 120.88086 585.36914 C 105.70486 585.36914 76.165693 565.58751 32.263672 526.02148 C 21.965665 514.09747 16.681155 502.17205 16.410156 490.24805 C 16.139157 478.32405 19.120534 471.41458 25.353516 469.51758 C 31.586535 467.62059 35.922335 468.56929 38.361328 472.36328 C 40.800321 476.15727 40.935572 480.08732 38.767578 484.15234 C 36.599585 488.21733 34.566917 488.21733 32.669922 484.15234 C 30.772928 480.08732 29.010761 478.05469 27.384766 478.05469 C 23.048741 480.22272 21.694317 484.69376 23.320312 491.46875 C 24.946345 498.24372 29.417396 501.49561 36.734375 501.22461 C 44.051391 500.95365 48.930148 498.37802 51.369141 493.5 C 53.808134 488.62202 55.027344 483.47472 55.027344 478.05469 C 55.027344 472.0927 52.994674 466.53574 48.929688 461.38672 C 44.864663 456.2377 39.580153 453.25831 33.076172 452.44531 C 26.572153 451.63235 19.660728 454.07073 12.34375 459.76172 C 5.0267341 465.45274 0.96338821 473.31092 0.15039062 483.33789 C -0.66260699 493.3649 1.7758136 504.06916 7.4667969 515.45117 C 13.157817 526.83317 23.18388 538.35086 37.546875 550.00391 C 51.90987 561.65688 66.408938 573.4451 81.042969 585.36914 L 6.2480469 585.36914 L 27.384766 665.85742 C 17.628757 669.65141 11.938495 677.78006 10.3125 690.24609 C 10.3125 701.0861 20.3386 707.86228 40.392578 710.57227 C 21.422597 730.08426 11.9375 750.40886 11.9375 771.54688 C 11.9375 820.86891 14.105419 869.37821 18.441406 917.07422 C 25.487423 970.19021 51.504217 996.74805 96.490234 996.74805 C 178.87425 996.74805 220.06641 949.86563 220.06641 856.09961 L 220.06641 337.08984 A 219.51006 219.51006 0 0 0 319.69922 421.58594 L 218.43945 994.30859 L 254.21289 1000.8125 L 353.05273 432.67969 A 219.51006 219.51006 0 0 0 386.73047 438.22266 L 386.73047 1000 L 422.50391 1000 L 422.50391 438.35547 A 219.51006 219.51006 0 0 0 462.61914 431.43945 L 562.33984 1000 L 598.11133 993.49609 L 496.57422 419.20312 A 219.51006 219.51006 0 0 0 590.79492 337.08984 L 590.79492 859.35156 C 590.79492 953.11751 630.63254 1000 713.55859 1000 C 758.54461 1000 784.82996 973.7126 792.41797 921.13867 C 796.21196 873.44262 798.10938 824.93337 798.10938 775.61133 C 798.10938 753.93136 788.62432 733.33624 769.6543 713.82422 C 789.70831 711.11423 799.73633 704.61051 799.73633 694.3125 C 798.11034 681.30449 791.60466 673.17391 780.22266 669.92188 C 784.55864 652.03589 782.93371 629.81385 775.3457 603.25586 C 767.75773 576.69783 758.27264 556.23799 746.89062 541.875 C 735.50861 527.51201 726.02352 515.72378 718.43555 506.50977 C 710.8475 497.29576 706.10402 488.75745 704.20703 480.89844 C 702.31004 473.03946 701.09079 464.36781 700.54883 454.88281 C 700.00679 445.3978 697.02741 438.35308 691.60742 433.74609 C 686.18741 429.13907 679.81698 426.83398 672.5 426.83398 C 665.18298 426.83398 658.54405 428.7314 652.58203 432.52539 C 646.62005 436.31941 642.55471 441.60393 640.38672 448.37891 C 638.21858 455.15393 639.43966 462.74157 644.04688 471.14258 C 648.65386 479.54355 652.1762 487.67419 654.61523 495.5332 C 657.0543 503.39222 657.4599 513.01253 655.83398 524.39453 C 654.20806 535.7765 652.448 550.68132 650.55078 569.10938 C 648.65393 587.53736 651.49807 610.03181 659.08594 636.58984 C 666.67396 663.14784 676.15905 681.30454 687.54102 691.06055 C 671.82303 699.73252 663.96484 722.22501 663.96484 758.53906 C 663.96484 792.68503 670.19805 821.2755 682.66406 844.31055 C 695.13006 867.34555 703.80171 886.18041 708.67969 900.81445 C 713.55772 915.4484 713.96332 925.74699 709.89844 931.70898 C 705.83349 937.67099 690.38762 934.28192 663.55859 921.54492 C 636.7296 908.80793 624.93945 888.34809 624.93945 860.16406 L 624.93945 219.55078 A 219.51006 219.51006 0 0 0 624.93945 219.50977 A 219.51006 219.51006 0 0 0 624.93945 219.46875 L 624.93945 216.26758 L 624.91602 216.26758 A 219.51006 219.51006 0 0 0 405.42969 0 z M 671.20508 447.33789 C 672.40764 447.28708 673.6522 447.36316 674.93945 447.56641 C 680.08844 448.37944 683.06981 455.56134 683.88281 469.11133 C 684.69596 482.6613 687.2696 492.82261 691.60547 499.59766 C 695.94146 506.37264 706.10476 519.51728 722.09375 539.0293 C 738.08277 558.54128 749.871 581.71203 757.45898 608.54102 C 765.047 635.37005 766.40147 654.74592 761.52344 666.66992 C 740.92749 667.75399 721.95918 672.36034 704.61523 680.49023 L 704.61328 680.49023 C 693.77395 674.5275 684.5603 658.13239 676.97266 631.30469 C 669.38464 604.47569 667.21672 578.59415 670.46875 553.66211 C 673.72059 528.73011 675.3457 512.20028 675.3457 504.07031 C 675.3457 495.9403 672.09386 485.91229 665.58984 473.98828 C 659.08587 462.06428 657.7314 454.4766 661.52539 451.22461 C 664.37088 448.78559 667.59738 447.49033 671.20508 447.33789 z M 33.076172 604.06836 L 118.44141 604.06836 L 98.929688 673.98633 C 83.753694 666.94035 66.951458 663.96092 48.523438 665.04492 L 33.076172 604.06836 z M 50.148438 677.23828 C 44.728417 678.8642 41.88428 682.38854 41.613281 687.80859 C 41.342282 693.22862 44.999876 696.48045 52.587891 697.56445 C 73.183905 697.56445 90.256644 702.44126 103.80664 712.19727 L 106.24609 710.57227 C 93.780095 698.64834 79.145738 692.68555 62.34375 692.68555 C 65.053742 686.18153 64.78324 681.57522 61.53125 678.86523 C 103.80724 690.78923 124.94531 716.26308 124.94531 755.28711 C 124.94531 781.8451 116.54418 811.38432 99.742188 843.9043 C 82.940162 876.42431 74.539062 903.52311 74.539062 925.20312 C 74.539062 945.25715 82.126705 955.28516 97.302734 955.28516 C 114.10473 955.28516 142.83044 944.7161 183.48047 923.57812 C 149.33446 956.6401 120.60875 973.17188 97.302734 973.17188 C 77.790717 973.17188 62.344895 963.95724 50.962891 945.5293 C 39.580887 927.10124 33.888672 871.8178 33.888672 779.67773 C 33.888672 748.78378 47.439067 725.20534 74.539062 708.94531 L 67.222656 701.62891 L 54.214844 701.62891 C 40.122848 701.62891 31.721711 696.47965 29.011719 686.18164 C 31.721711 680.21966 38.766434 677.23828 50.148438 677.23828 z M 52.587891 679.67773 C 56.38188 684.01372 56.38188 688.62002 52.587891 693.49805 C 49.877898 688.62002 49.877898 684.01372 52.587891 679.67773 z M 759.89844 681.30469 C 771.28041 681.30469 778.32708 684.28411 781.03711 690.24609 C 778.32712 700.0021 769.92597 704.88086 755.83398 704.88086 L 743.63867 704.88086 L 735.50781 713.01172 C 762.60784 728.72971 776.1582 752.03567 776.1582 782.92969 C 776.1582 875.06976 770.46798 930.48851 759.08594 949.1875 C 747.70397 967.88652 732.25616 977.23633 712.74414 977.23633 C 689.43814 977.23633 660.71242 960.7046 626.56641 927.64258 C 667.2164 948.78059 695.94212 959.34961 712.74414 959.34961 C 727.92014 959.34961 735.50781 949.05113 735.50781 928.45508 C 735.50781 907.31711 727.10668 880.48877 710.30469 847.96875 C 693.50267 815.44874 685.10156 785.63905 685.10156 758.53906 C 685.10156 719.51503 706.51205 694.0412 749.33008 682.11719 C 746.07823 685.36903 745.53535 689.97533 747.70312 695.9375 C 730.90113 695.9375 716.53923 701.90022 704.61523 713.82422 L 706.24023 716.26367 C 719.79022 705.96566 736.863 700.81641 757.45898 700.81641 C 765.04699 699.73234 768.70655 696.48046 768.43555 691.06055 C 768.16463 685.64053 765.31851 682.38865 759.89844 681.30469 z M 757.45898 683.74219 C 760.16897 688.07821 760.16897 692.41596 757.45898 696.75195 C 754.20714 691.87396 754.20714 687.53621 757.45898 683.74219 z " />
  <circle
     style="fill:#f9f06b;stroke-width:25;stroke-linecap:round;stroke-miterlimit:5"
     id="path8"
     cx="405.43033"
     cy="219.51006"
     r="174.79507" />
  <circle
     style="fill:#1a5fb4;stroke-width:25;stroke-linecap:round;stroke-miterlimit:5"
     id="path9"
     cx="405.4303"
     cy="216.26781"
     r="39.83704" />
</svg>
