<?xml version="1.0" encoding="UTF-8" standalone="no"?>
<svg
   width="1590.4"
   height="1800"
   version="1.1"
   id="svg2"
   sodipodi:docname="N97A.svg"
   inkscape:version="1.4.3 (0d15f75, 2025-12-25)"
   xmlns:inkscape="http://www.inkscape.org/namespaces/inkscape"
   xmlns:sodipodi="http://sodipodi.sourceforge.net/DTD/sodipodi-0.dtd"
   xmlns="http://www.w3.org/2000/svg"
   xmlns:svg="http://www.w3.org/2000/svg">
  <defs
     id="defs2" />
  <sodipodi:namedview
     id="namedview2"
     pagecolor="#ffffff"
     bordercolor="#000000"
     borderopacity="0.25"
     inkscape:showpageshadow="2"
     inkscape:pageopacity="0.0"
     inkscape:pagecheckerboard="0"
     inkscape:deskcolor="#d1d1d1"
     inkscape:zoom="0.30966612"
     inkscape:cx="498.92445"
     inkscape:cy="731.43294"
     inkscape:window-width="1680"
     inkscape:window-height="998"
     inkscape:window-x="-8"
     inkscape:window-y="-8"
     inkscape:window-maximized="1"
     inkscape:current-layer="svg2"
     showguides="true" />
  <path
     id="path3"
     style="stroke-linecap:round"
     d="m 1418.8144,0 c 56.5804,0 99.6301,18.449411 129.1504,55.349609 28.2902,35.670249 42.4355,75.031581 42.4355,118.082031 -1.23,43.05017 -14.7597,81.18022 -40.5898,114.39063 -30.7503,35.67029 -75.0314,53.50585 -132.8418,53.50585 H 807.89639 L 1097.7226,1800.0391 H 492.6777 L 780.10928,341.32812 H 173.4296 c -57.8096,0 -101.474,-17.83556 -130.9941,-53.50585 C 15.3757,254.61186 1.23,216.48181 0,173.43164 1.23,130.38119 15.3757,91.019858 42.4355,55.349609 71.9556,18.449411 115.0045,0 171.5839,0 Z m 5.5351,53.505859 H 960.96084 L 1095.8046,277.18164 a 40,40 0 0 1 4.3398,10.64063 h 324.2051 c 29.5203,0 57.1953,-13.52947 83.0254,-40.58985 17.2202,-22.14028 25.8301,-46.74086 25.8301,-73.80078 -1.23,-25.83024 -12.2989,-52.27568 -33.209,-79.335937 -20.9102,-27.060201 -46.1262,-40.589844 -75.6465,-40.589844 z m -555.31053,0 H 586.9608 L 721.80459,277.18164 a 40,40 0 0 1 4.33985,10.64063 H 1008.8046 L 873.04873,62.632812 a 40,40 0 0 1 -4.00976,-9.126953 z m -373.99997,0 H 166.0507 c -29.5204,0 -54.7346,13.529643 -75.6445,40.589844 C 69.4963,121.15596 59.041,147.6014 59.041,173.43164 c 0,27.05992 7.9943,51.6605 23.9843,73.80078 25.8299,27.06038 54.1208,40.58985 84.8711,40.58985 H 634.80459 L 499.0488,62.632812 A 40,40 0 0 1 495.039,53.505859 Z M 792.78116,563.32812 589.4862,1722.5938 h 130.68949 l 62.92383,-508.2383 h 21.78125 l 62.92578,508.2383 h 135.52925 z" />
</svg>
