<?xml version="1.0" encoding="UTF-8" standalone="no"?>
<svg
   width="600"
   height="1000"
   version="1.1"
   id="svg1"
   sodipodi:docname="O22A.svg"
   inkscape:version="1.4.2 (f4327f4, 2025-05-13)"
   xmlns:inkscape="http://www.inkscape.org/namespaces/inkscape"
   xmlns:sodipodi="http://sodipodi.sourceforge.net/DTD/sodipodi-0.dtd"
   xmlns="http://www.w3.org/2000/svg"
   xmlns:svg="http://www.w3.org/2000/svg">
  <defs
     id="defs1" />
  <sodipodi:namedview
     id="namedview1"
     pagecolor="#ffffff"
     bordercolor="#666666"
     borderopacity="1.0"
     inkscape:showpageshadow="2"
     inkscape:pageopacity="0.0"
     inkscape:pagecheckerboard="0"
     inkscape:deskcolor="#d1d1d1"
     showguides="true"
     inkscape:zoom="0.26693281"
     inkscape:cx="-455.17072"
     inkscape:cy="200.42497"
     inkscape:window-width="1680"
     inkscape:window-height="998"
     inkscape:window-x="-8"
     inkscape:window-y="-8"
     inkscape:window-maximized="1"
     inkscape:current-layer="svg1">
    <sodipodi:guide
       position="255.40039,1000"
       orientation="1,0"
       id="guide3"
       inkscape:locked="false" />
  </sodipodi:namedview>
  <path
     id="path1"
     style="fill:#000000;stroke:none;stroke-width:1"
     d="m 255.40039,0 c -50.95656,0 -92.75781,39.087593 -92.75781,88.945312 0,22.024538 9.74134,42.354058 29.22461,60.990238 C 141.04126,170.26591 96.568657,203.51474 58.449219,249.68164 20.329782,295.84851 0.847092,346.46396 0,401.52539 V 1000 H 68.615234 V 402.79492 c 0,-41.5078 17.364672,-81.31998 52.095706,-119.43945 L 222.36328,451.08008 V 1000 H 288.4375 V 451.08008 L 390.08984,283.35547 c 34.73103,38.11947 52.09571,77.93165 52.09571,119.43945 V 1000 h 68.61523 V 401.52539 C 509.95369,346.46396 490.471,295.84851 452.35156,249.68164 414.23212,203.51474 369.75952,170.26591 318.93359,149.93555 338.41686,131.29937 348.1582,110.96985 348.1582,88.945312 348.1582,39.087593 306.35695,0 255.40039,0 Z m 0,21.601562 c 43.6913,0 71.15625,34.129425 71.15625,67.34375 0,24.928298 -16.94169,43.201708 -38.11914,55.908208 v 19.06054 c 55.06139,15.24781 102.0745,46.37863 141.04102,93.39258 38.96657,47.01396 58.45117,95.087 58.45117,144.21875 V 978.39844 H 463.78711 V 402.79492 c 0,-72.33425 -44.96725,-127.2901 -73.69727,-155.01953 l -123.2539,203.30469 v 528.58984 h -22.8711 V 451.08008 L 120.71094,247.77539 C 91.980913,275.50482 47.013672,330.46067 47.013672,402.79492 V 978.39844 H 22.871094 V 401.52539 c 0,-49.13175 19.484606,-97.20479 58.451172,-144.21875 38.966524,-47.01395 85.979624,-78.14477 141.041014,-93.39258 v -19.06054 c -21.17745,-12.7065 -38.11914,-30.97991 -38.11914,-55.908208 0,-33.214325 27.46495,-67.34375 71.15625,-67.34375 z m 0,161.371098 c -41.67582,0 -82.2478,17.5141 -121.71484,52.53906 L 255.40039,435.83203 377.11523,235.51172 C 337.64819,200.48676 297.07621,182.97266 255.40039,182.97266 Z m 0,21.60156 c 36.42525,0 68.1917,13.55299 95.29883,40.66016 L 255.40039,405.33594 160.10156,245.23438 c 27.10713,-27.10717 58.87358,-40.66016 95.29883,-40.66016 z"
     sodipodi:nodetypes="sscscccsccccccscccscssssccssccsccccccsccssccssscccsscccs" />
</svg>
