<?xml version="1.0" encoding="UTF-8" standalone="no"?>
<svg
   width="1100"
   height="1000"
   version="1.1"
   id="svg1"
   sodipodi:docname="O23P.svg"
   inkscape:version="1.4.2 (f4327f4, 2025-05-13)"
   xmlns:inkscape="http://www.inkscape.org/namespaces/inkscape"
   xmlns:sodipodi="http://sodipodi.sourceforge.net/DTD/sodipodi-0.dtd"
   xmlns="http://www.w3.org/2000/svg"
   xmlns:svg="http://www.w3.org/2000/svg">
  <defs
     id="defs1" />
  <sodipodi:namedview
     id="namedview1"
     pagecolor="#ffffff"
     bordercolor="#666666"
     borderopacity="1.0"
     inkscape:showpageshadow="2"
     inkscape:pageopacity="0.0"
     inkscape:pagecheckerboard="0"
     inkscape:deskcolor="#d1d1d1"
     showguides="true"
     inkscape:zoom="0.755"
     inkscape:cx="530.46358"
     inkscape:cy="580.7947"
     inkscape:window-width="1680"
     inkscape:window-height="998"
     inkscape:window-x="-8"
     inkscape:window-y="-8"
     inkscape:window-maximized="1"
     inkscape:current-layer="svg1">
    <sodipodi:guide
       position="534.17939,225.48053"
       orientation="1,0"
       id="guide1"
       inkscape:locked="false" />
  </sodipodi:namedview>
  <path
     id="path1"
     style="fill:#000000;stroke:none;stroke-width:1"
     d="M 5.46875,0 C 3.9340535,0.0333615 2.7326712,0.4841257 1.8652344,1.3515625 -3.6863982,6.903195 3.1461888,19.502372 22.363281,39.146484 41.580374,58.790634 70.407605,75.016742 108.8418,87.828125 V 773.23828 c 86.45716,170.03246 247.65087,226.69922 425.33789,226.69922 177.68702,0 338.88073,-56.66676 425.33789,-226.69922 V 87.828125 C 997.95177,75.016742 1026.779,58.790634 1045.9961,39.146484 1065.2132,19.502372 1072.0457,6.903195 1066.4941,1.3515625 1065.6266,0.4841257 1064.4252,0.0333615 1062.8906,0 1054.6032,-0.18015211 1036.5865,11.801876 1008.8418,35.943359 975.95923,64.555451 917.88146,64.341884 834.60742,35.302734 751.33337,6.263586 682.57867,-0.56896513 628.34375,14.804688 574.10889,30.178376 546.99219,79.287738 546.99219,162.13477 v 612.38476 h -25.625 V 162.13477 c 0,-82.847032 -27.1167,-131.956394 -81.35157,-147.330082 C 385.7807,-0.56896513 317.026,6.263586 233.75195,35.302734 150.47791,64.341884 92.400171,64.555451 59.517578,35.943359 31.772924,11.801876 13.756111,-0.18015211 5.46875,0 Z m 372.29102,38.666016 c 15.5605,-0.10676 28.19875,1.760093 37.91406,5.603515 38.86124,15.373689 58.29297,54.662357 58.29297,117.865239 v 612.38476 h -66.6211 v -87.11719 c 0,-11.9573 7.26165,-17.93554 21.78125,-17.93554 17.08185,0 25.6211,-5.12588 25.6211,-15.375 v -79.42969 c 0,-15.37365 -18.78904,-23.06055 -56.36914,-23.06055 -40.14234,0 -64.9116,19.64338 -74.30664,58.93164 -9.395,39.28827 -36.51167,58.9336 -81.35157,58.9336 -44.83986,0 -67.25976,35.01713 -67.25976,105.05273 H 158.80469 V 92.953125 C 258.09299,57.081209 331.07824,38.986294 377.75977,38.666016 Z m 312.83984,0 c 46.68153,0.320278 119.66678,18.415193 218.95508,54.287109 V 774.51953 h -16.65625 c 0,-70.0356 -22.41991,-105.05273 -67.25977,-105.05273 -44.8399,0 -71.95656,-19.64533 -81.35156,-58.9336 -9.39504,-39.28826 -34.1643,-58.93164 -74.30664,-58.93164 -37.5801,0 -56.36914,7.6869 -56.36914,23.06055 v 79.42969 c 0,10.24912 8.53924,15.375 25.62109,15.375 14.5196,0 21.78125,5.97824 21.78125,17.93554 v 87.11719 H 594.39258 V 162.13477 c 0,-63.202882 19.43173,-102.49155 58.29297,-117.865239 9.71531,-3.843422 22.35356,-5.710275 37.91406,-5.603515 z M 407.3457,575.94336 c 11.10323,0 16.65625,4.69676 16.65625,14.0918 v 40.99609 c 0,8.54092 -7.25972,12.8125 -21.77929,12.8125 -17.08189,0 -25.62305,14.51945 -25.62305,43.55859 v 87.11719 H 211.33203 c 0,-53.80784 11.95843,-80.71094 35.87305,-80.71094 24.76868,0 46.12068,-4.91228 64.05664,-14.73437 17.93596,-9.82205 32.02823,-29.46544 42.27734,-58.93164 10.24912,-29.46621 28.18388,-44.19922 53.80664,-44.19922 z m 253.66797,0 c 25.62276,0 43.55752,14.73301 53.80664,44.19922 10.24911,29.4662 24.34139,49.10959 42.27735,58.93164 17.93596,9.82209 39.28796,14.73437 64.05664,14.73437 23.91462,0 35.87304,26.9031 35.87304,80.71094 H 691.75977 v -87.11719 c 0,-29.03914 -8.54116,-43.55859 -25.62305,-43.55859 -14.51957,0 -21.7793,-4.27158 -21.7793,-12.8125 v -40.99609 c 0,-9.39504 5.55302,-14.0918 16.65625,-14.0918 z M 169.05469,809.10938 h 730.25 c -118.64796,152.57704 -294.2996,153.6875 -365.125,153.6875 -70.8254,0 -246.47704,-1.11046 -365.125,-153.6875 z"
     sodipodi:nodetypes="sscccsccsssssssccssscssssccssssssscccsscccsssssssccssssssssccssssssssccsssssccsc" />
  <path
     d="m 534.17942,810.10365 84.55516,75.58718 -84.55516,76.86841 -84.55522,-76.86841 z m 0,26.90388 -55.08899,48.6833 55.08899,49.96447 53.80782,-49.96447 z"
     style="fill:#000000;stroke:none;stroke-width:1"
     id="path1-2" />
</svg>
