<?xml version="1.0" encoding="UTF-8" standalone="no"?>
<svg
   width="1600"
   height="500"
   version="1.1"
   id="svg1"
   sodipodi:docname="R42C.svg"
   inkscape:version="1.4.2 (f4327f4, 2025-05-13)"
   xmlns:inkscape="http://www.inkscape.org/namespaces/inkscape"
   xmlns:sodipodi="http://sodipodi.sourceforge.net/DTD/sodipodi-0.dtd"
   xmlns:xlink="http://www.w3.org/1999/xlink"
   xmlns="http://www.w3.org/2000/svg"
   xmlns:svg="http://www.w3.org/2000/svg">
  <defs
     id="defs1" />
  <sodipodi:namedview
     id="namedview1"
     pagecolor="#ffffff"
     bordercolor="#666666"
     borderopacity="1.0"
     inkscape:showpageshadow="2"
     inkscape:pageopacity="0.0"
     inkscape:pagecheckerboard="0"
     inkscape:deskcolor="#d1d1d1"
     inkscape:zoom="0.656875"
     inkscape:cx="618.8392"
     inkscape:cy="233.68221"
     inkscape:window-width="1680"
     inkscape:window-height="998"
     inkscape:window-x="-8"
     inkscape:window-y="-8"
     inkscape:window-maximized="1"
     inkscape:current-layer="svg1" />
  <path
     id="path1"
     style="fill:#000000;stroke:none;stroke-width:1"
     d="M 1363.8711 0 C 1336.1575 4.7369516e-15 1314.9861 8.2749786 1300.3594 24.826172 C 1285.3479 41.377365 1277.8418 60.431285 1277.8418 81.986328 C 1277.8418 107.00557 1288.6208 129.52366 1310.1758 149.53906 C 1299.7832 151.84853 1291.5062 155.69718 1285.3477 161.08594 C 1274.5702 172.24837 1269.7594 179.36798 1270.9141 182.44727 C 1264.3706 178.98306 1260.5219 181.29381 1259.3672 189.37695 C 1240.5065 195.53554 1231.0762 213.04766 1231.0762 241.91602 C 1238.7745 237.29708 1245.7027 235.37275 1251.8613 236.14258 C 1259.9444 236.14258 1267.6418 249.23032 1274.9551 275.4043 C 1282.2684 301.19337 1292.0851 316.5899 1304.4023 321.59375 C 1268.2206 338.14494 1234.9257 336.6051 1204.5176 316.97461 C 1173.7247 297.34412 1129.4594 266.93553 1071.7227 225.75 L 1071.1445 324.48047 L 968.95117 324.48047 C 977.80413 321.01627 983.5771 311.58591 986.27148 296.18945 C 989.35077 280.79299 993.77711 270.59369 999.55078 265.58984 C 1006.4792 246.72917 1000.8995 237.29883 982.80859 237.29883 C 978.18965 237.29883 973.18564 239.60762 967.79688 244.22656 L 926.22656 250 C 882.69568 251.68725 853.80732 260.47384 839.56445 276.36133 C 848.03777 265.24473 856.91005 256.65134 866.17969 250.57812 C 877.34212 243.2648 887.73463 230.75476 897.35742 213.04883 C 915.06335 199.57693 923.91602 187.64456 923.91602 177.25195 C 925.45567 155.312 916.60299 140.49315 897.35742 132.79492 C 878.11185 125.4816 856.94235 125.4816 833.84766 132.79492 C 810.36806 140.10824 792.85399 138.75965 781.30664 128.75195 C 769.7593 119.12916 750.32091 112.39403 722.99219 108.54492 C 695.27856 104.6958 678.91987 104.50259 673.91602 107.9668 C 668.52726 111.431 659.29012 110.08436 646.20312 103.92578 C 664.29396 86.219852 666.21828 67.167886 651.97656 46.767578 C 637.73483 26.36727 619.06735 25.018681 595.97266 42.724609 C 572.49306 60.430536 564.79381 79.67572 572.87695 100.46094 C 574.80151 105.46479 575.76367 112.97082 575.76367 122.97852 C 575.76367 133.37113 579.22784 136.25957 586.15625 131.64062 C 590.00536 137.02939 595.2026 142.80235 601.74609 148.96094 L 620.79883 137.41406 L 650.24414 143.76367 C 638.31188 154.9261 631.76801 166.85847 630.61328 179.56055 C 629.84346 192.26263 627.15019 204.00373 622.53125 214.78125 C 618.29722 225.55877 614.44858 236.14255 610.98438 246.53516 C 587.50477 256.15795 564.60221 271.55448 542.27734 292.72461 C 534.96402 295.8039 523.22292 297.34375 507.05664 297.34375 C 492.04509 297.72866 477.99715 304.46574 464.91016 317.55273 C 463.64517 321.03143 463.54956 323.34023 464.62305 324.48047 L 392.73828 324.48047 L 316.52539 261.54688 L 293.43164 261.54688 L 293.43164 336.02734 C 262.70423 325.89743 238.3456 317.39693 220.35547 310.52539 L 248.97461 221.70898 L 181.42188 221.70898 C 181.42188 179.75363 175.45569 151.65578 163.52344 137.41406 C 151.59118 123.17233 155.63304 103.15626 175.64844 77.367188 C 181.0372 71.593516 182.38383 68.129344 179.68945 66.974609 C 177.37998 65.819875 172.37596 67.359724 164.67773 71.59375 C 130.42061 96.228087 112.1376 118.55297 109.82812 138.56836 C 107.90356 158.19885 104.05492 173.97986 98.28125 185.91211 C 92.507578 197.84437 89.812355 209.77673 90.197266 221.70898 L 27.841797 221.70898 L 62.005859 332.84375 C 53.363035 329.10976 46.208813 324.78241 40.544922 319.86133 C 17.065322 299.07611 3.9775834 297.72947 1.2832031 315.82031 C -1.4111772 333.91115 0.12867162 344.88136 5.9023438 348.73047 C 31.691413 365.28166 59.982473 376.44313 90.775391 382.2168 C 121.1834 388.37539 188.35124 391.45508 292.27734 391.45508 L 293.43164 456.69727 L 318.83594 456.69727 L 392.73828 401.26953 L 1071.7227 401.26953 L 1071.1445 500 C 1273.223 500 1396.0109 480.94607 1439.5059 442.83984 C 1483.0009 404.73361 1504.748 358.54596 1504.748 304.27344 C 1504.748 250.38583 1492.238 210.35367 1467.2188 184.17969 C 1450.2827 167.24358 1431.9996 156.27338 1412.3691 151.26953 C 1417.373 148.19024 1424.4945 140.87742 1433.7324 129.33008 C 1443.3552 118.16765 1448.166 102.38663 1448.166 81.986328 C 1447.3962 62.355843 1439.697 43.87961 1425.0703 26.558594 C 1410.4437 9.2375772 1390.0451 0.38491147 1363.8711 0 z M 131.76953 141.45508 C 146.01126 158.77609 154.28623 173.40173 156.5957 185.33398 C 158.90517 197.65115 159.28964 209.77673 157.75 221.70898 L 111.56055 221.70898 C 111.56055 209.77673 114.64025 199.38422 120.79883 190.53125 C 127.34233 181.67828 130.99971 165.31959 131.76953 141.45508 z M 1332.6934 168.01367 C 1351.9389 168.01367 1363.1004 181.29267 1366.1797 207.85156 C 1369.6439 234.41045 1350.0143 251.73131 1307.2891 259.81445 C 1313.8326 263.66357 1318.0657 269.62975 1319.9902 277.71289 C 1322.2997 286.18094 1323.6463 294.45788 1324.0312 302.54102 C 1317.1028 305.2354 1311.1366 304.27324 1306.1328 299.6543 C 1301.5139 295.03537 1298.0497 283.87195 1295.7402 266.16602 C 1285.3476 236.14293 1272.2619 221.32407 1256.4805 221.70898 L 1249.5508 221.70898 C 1251.0905 215.16549 1254.3634 214.5878 1259.3672 219.97656 C 1260.9069 214.5878 1266.4885 213.43438 1276.1113 216.51367 C 1268.0282 208.43053 1263.7931 201.30897 1263.4082 195.15039 C 1269.9517 195.92021 1273.4159 193.4182 1273.8008 187.64453 C 1278.8047 186.87471 1285.1553 183.41054 1292.8535 177.25195 C 1300.5518 171.09337 1313.8327 168.01367 1332.6934 168.01367 z M 1379.459 170.90039 C 1402.9386 170.90039 1424.6858 182.0638 1444.7012 204.38867 C 1465.1015 226.71354 1475.494 260.39309 1475.8789 305.42773 C 1475.8789 350.07746 1458.1735 388.76105 1422.7617 421.47852 C 1386.9649 454.196 1279.3824 470.36147 1100.0137 469.97656 L 1100.0137 284.06445 C 1132.7312 309.0837 1160.4445 327.94441 1183.1543 340.64648 C 1205.4792 353.34856 1233.0013 359.69922 1265.7188 359.69922 C 1298.0512 359.69922 1321.3384 352.57961 1335.5801 338.33789 C 1349.8218 324.09616 1353.0928 302.54023 1345.3945 273.67188 C 1388.1197 251.34701 1399.4744 217.08977 1379.459 170.90039 z M 1322.9492 179.59766 C 1312.4123 179.66983 1302.9578 181.5811 1294.5859 185.33398 C 1285.733 188.02836 1281.3066 193.61007 1281.3066 202.07812 C 1279.3821 204.3876 1278.4199 206.69834 1278.4199 209.00781 C 1278.8048 210.16254 1280.1514 210.3538 1282.4609 209.58398 C 1284.3855 211.89345 1286.503 213.4333 1288.8125 214.20312 C 1292.6616 217.28242 1292.6616 220.55337 1288.8125 224.01758 C 1294.5862 229.79125 1298.8194 238.06818 1301.5137 248.8457 L 1304.9785 246.53516 C 1304.5936 230.75379 1305.9402 219.20784 1309.0195 211.89453 C 1312.0988 204.58121 1318.4514 199.96167 1328.0742 198.03711 C 1338.0819 196.11256 1344.0482 202.27195 1345.9727 216.51367 C 1347.5124 230.37048 1336.9266 241.33874 1314.2168 249.42188 L 1314.2168 251.73242 C 1346.5494 242.10963 1361.7527 228.05973 1359.8281 209.58398 C 1357.9036 191.49314 1349.2442 181.67832 1333.8477 180.13867 C 1330.0948 179.75376 1326.4615 179.5736 1322.9492 179.59766 z M 683.60156 184.78711 C 685.61333 184.71945 687.77256 184.90096 690.08203 185.33398 C 696.62553 189.56801 712.40849 195.92062 737.42773 204.38867 C 762.06207 212.47181 796.89505 206.8901 841.92969 187.64453 C 820.75956 217.28272 804.78729 241.3387 794.00977 259.81445 C 783.61716 278.2902 778.61314 292.72458 778.99805 303.11719 C 778.99805 317.35891 787.0798 324.48047 803.24609 324.48047 L 516.87305 324.48047 C 539.96774 324.09556 551.51367 319.28474 551.51367 310.04688 C 590.00482 290.8013 616.75798 275.40477 631.76953 263.85742 C 639.85268 258.08375 651.20735 236.72104 665.83398 199.76953 C 668.96139 190.07458 674.88392 185.0803 683.60156 184.78711 z M 1295.7402 189.37695 C 1303.8233 189.37695 1307.8652 193.2256 1307.8652 200.92383 C 1307.8652 208.23715 1303.8233 211.89453 1295.7402 211.89453 C 1288.4269 211.89453 1284.7715 208.23715 1284.7715 200.92383 C 1284.7715 193.2256 1288.4269 189.37695 1295.7402 189.37695 z M 1295.7402 193.99609 C 1291.1213 193.99609 1288.8125 196.30489 1288.8125 200.92383 C 1288.8125 205.92768 1291.1213 208.42969 1295.7402 208.42969 C 1300.744 208.42969 1303.2461 205.92768 1303.2461 200.92383 C 1303.2461 196.30489 1300.744 193.99609 1295.7402 193.99609 z M 68.257812 251.1543 L 206.25 251.1543 L 191.68555 300.96484 C 179.09217 297.69218 165.66209 295.3314 151.39844 293.88086 C 128.68866 291.57139 107.71237 290.2228 88.466797 289.83789 C 86.927151 302.92488 88.080573 311.77754 91.929688 316.39648 C 95.39389 321.01542 112.13902 324.86602 142.16211 327.94531 C 160.56163 330.04146 173.39397 333.61624 180.66016 338.67188 L 177.38086 349.88477 L 158.53125 349.88477 C 134.27882 348.883 113.30965 346.57212 95.634766 342.94922 L 68.257812 251.1543 z M 956.57422 271.48047 C 960.25493 271.35417 961.87834 272.6618 961.44531 275.4043 C 960.29058 282.71762 960.86826 289.26149 963.17773 295.03516 C 965.4872 300.42393 962.79198 307.15905 955.09375 315.24219 C 947.01061 316.39692 944.12412 319.47662 946.43359 324.48047 L 813.0625 324.48047 C 857.32732 311.00857 893.31567 297.53635 921.0293 284.06445 C 938.59088 275.88508 950.43969 271.69097 956.57422 271.48047 z M 318.83594 295.03516 L 392.73828 350.46094 L 1071.1445 350.46094 L 1071.7227 376.44336 L 392.73828 376.44336 L 318.83594 423.21094 L 318.83594 295.03516 z M 518.38867 309.2168 C 522.9594 309.00031 527.26514 309.27707 531.30664 310.04688 C 523.99332 315.82054 516.87177 318.89829 509.94336 319.2832 C 502.63005 319.66811 501.28341 321.40118 505.90234 324.48047 L 470.10742 324.48047 C 488.58272 314.9543 504.67648 309.86627 518.38867 309.2168 z " />
  <circle
     style="fill:#1a5fb4;fill-rule:evenodd;stroke:none;stroke-width:20;stroke-linecap:round;stroke-miterlimit:5"
     id="path6"
     cx="61.321587"
     cy="193.07062"
     r="25.638367" />
  <use
     x="0"
     y="0"
     xlink:href="#path6"
     id="use6"
     transform="translate(150.009)" />
  <ellipse
     style="fill:#f9f06b;fill-rule:evenodd;stroke:none;stroke-width:20;stroke-linecap:round;stroke-miterlimit:5"
     id="path10"
     cx="1363.0042"
     cy="83.140877"
     rx="62.644299"
     ry="61.200924" />
</svg>
