<?xml version="1.0" encoding="UTF-8" standalone="no"?>
<svg
   width="1100"
   height="1000"
   version="1.1"
   id="svg1"
   sodipodi:docname="S61.svg"
   inkscape:version="1.4.2 (f4327f4, 2025-05-13)"
   xmlns:inkscape="http://www.inkscape.org/namespaces/inkscape"
   xmlns:sodipodi="http://sodipodi.sourceforge.net/DTD/sodipodi-0.dtd"
   xmlns:xlink="http://www.w3.org/1999/xlink"
   xmlns="http://www.w3.org/2000/svg"
   xmlns:svg="http://www.w3.org/2000/svg">
  <defs
     id="defs1" />
  <sodipodi:namedview
     id="namedview1"
     pagecolor="#ffffff"
     bordercolor="#666666"
     borderopacity="1.0"
     inkscape:showpageshadow="2"
     inkscape:pageopacity="0.0"
     inkscape:pagecheckerboard="0"
     inkscape:deskcolor="#d1d1d1"
     showguides="true"
     inkscape:zoom="0.37749999"
     inkscape:cx="782.78149"
     inkscape:cy="613.24506"
     inkscape:window-width="1680"
     inkscape:window-height="998"
     inkscape:window-x="-8"
     inkscape:window-y="-8"
     inkscape:window-maximized="1"
     inkscape:current-layer="svg1">
    <sodipodi:guide
       position="298.67426,888.39283"
       orientation="1,0"
       id="guide5"
       inkscape:locked="false" />
    <sodipodi:guide
       position="299.2323,466.51592"
       orientation="0,-1"
       id="guide6"
       inkscape:locked="false" />
    <sodipodi:guide
       position="299.2323,445.31006"
       orientation="0,-1"
       id="guide7"
       inkscape:locked="false" />
    <sodipodi:guide
       position="299.2323,348.21667"
       orientation="0,-1"
       id="guide8"
       inkscape:locked="false" />
    <sodipodi:guide
       position="299.2323,327.01071"
       orientation="0,-1"
       id="guide9"
       inkscape:locked="false" />
    <sodipodi:guide
       position="477.2457,293.52679"
       orientation="1,0"
       id="guide10"
       inkscape:locked="false" />
    <sodipodi:guide
       position="655.81698,894.20533"
       orientation="1,0"
       id="guide11"
       inkscape:locked="false" />
    <sodipodi:guide
       position="125.68322,228.79451"
       orientation="0,-1"
       id="guide13"
       inkscape:locked="false" />
    <sodipodi:guide
       position="125.68322,237.72343"
       orientation="1,0"
       id="guide15"
       inkscape:locked="false" />
    <sodipodi:guide
       position="829.92433,237.72348"
       orientation="1,0"
       id="guide16"
       inkscape:locked="false" />
    <sodipodi:guide
       position="158.04925,206.47337"
       orientation="0,-1"
       id="guide19"
       inkscape:locked="false" />
  </sodipodi:namedview>
  <path
     id="path1"
     style="fill:#000000;stroke:none;stroke-width:0.999998"
     d="M 298.67383 0 A 52.897335 52.897335 0 0 0 245.77734 52.896484 A 52.897335 52.897335 0 0 0 290.8457 105.21289 C 286.99593 106.63962 283.28174 109.14212 279.70117 112.72266 C 268.54045 107.51433 258.49501 104.91016 249.56641 104.91016 C 234.68546 104.91016 223.15326 110.11849 214.96875 120.53516 C 211.24852 127.2316 212.73719 130.58008 219.43359 130.58008 C 248.45148 130.58008 262.96094 141.74106 262.96094 164.0625 L 262.96094 224.33008 C 259.24071 248.13959 253.65924 270.08844 246.21875 290.17773 C 246.21875 220.98132 225.75855 186.38477 184.83594 186.38477 C 150.60972 186.38477 133.49609 200.14795 133.49609 227.67773 C 133.49609 255.95152 148.00555 270.08984 177.02344 270.08984 C 164.37461 328.86959 155.07348 389.50973 149.12109 452.00977 C 146.88896 441.59307 140.93628 433.9652 131.26367 429.12891 C 121.80611 424.4001 111.28102 421.62893 99.689453 420.8125 C 108.74092 420.94328 133.49609 406.87265 133.49609 376.11523 C 133.49609 354.05402 118.20869 329.24023 86.621094 329.24023 C 58.270679 329.24023 39.746094 352.00737 39.746094 376.11523 C 39.746094 407.68608 65.682318 420.75977 74.34375 420.75977 C 69.879469 420.75977 63.742188 421.31753 55.929688 422.43359 C 48.117187 423.54965 42.349134 425.59609 38.628906 428.57227 C 34.164625 432.29253 31.933594 436.75651 31.933594 441.96484 C 31.933594 447.91723 35.095527 452.93902 41.419922 457.03125 C 47.744317 461.12352 54.254733 462.79678 60.951172 462.05273 C 49.790451 482.88606 44.768705 514.69556 45.884766 557.47852 C 47.000864 600.26125 47.000864 630.39379 45.884766 647.87891 C 44.768705 665.36402 48.301782 680.0601 56.486328 691.96484 L 28.585938 668.52734 C 22.63355 661.83072 15.750001 660.34224 7.9375 664.0625 C 0.12499907 667.78277 -1.9214369 673.73545 1.7988281 681.91992 C 21.144058 734.74735 54.998219 761.16016 103.36133 761.16016 C 148.74823 761.16016 181.48688 757.44049 201.57617 750 C 185.20712 770.83334 177.02344 800.22351 177.02344 838.16992 L 177.02344 939.73242 C 177.02344 957.58951 167.7223 966.51758 149.12109 966.51758 C 138.70442 966.51758 134.98473 962.61129 137.96094 954.79883 C 140.93711 946.98636 148.56305 932.85 160.83984 912.38867 C 173.11665 891.92734 177.0229 874.0694 172.55859 858.81641 C 168.09431 843.56326 162.51282 834.26209 155.81641 830.91406 C 149.49804 827.75492 143.51143 825.75682 137.85547 824.91602 C 140.22107 824.8608 143.97668 822.58146 149.12109 818.08008 C 155.07348 812.12769 158.04883 803.94397 158.04883 793.52734 C 158.04883 785.3428 154.8869 778.08807 148.5625 771.76367 C 142.23811 765.43924 134.61215 762.27734 125.68359 762.27734 C 115.26692 762.27734 107.0813 765.62387 101.12891 772.32031 C 95.176516 779.01672 92.201172 786.08681 92.201172 793.52734 C 92.201172 803.94397 95.176516 812.12769 101.12891 818.08008 C 105.28502 822.23624 108.53455 824.57872 110.87695 825.10742 C 100.44153 826.5373 93.845485 828.28766 91.085938 830.35742 C 88.109762 833.33363 86.621094 836.68211 86.621094 840.40234 C 86.621094 844.12242 88.852125 847.46895 93.316406 850.44531 C 97.780689 853.42167 102.24666 854.53901 106.71094 853.79492 C 98.526427 872.39613 95.922263 891.18306 98.898438 910.15625 C 101.87465 929.12947 103.36133 949.0319 103.36133 969.86523 C 103.36133 989.95451 118.61517 1000 149.12109 1000 C 178.88302 1000 193.76367 983.25946 193.76367 949.77734 L 193.76367 838.16992 C 193.76367 800.22351 203.06485 772.69319 221.66602 755.58008 C 261.84459 765.99675 314.67207 768.22973 380.14844 762.27734 C 390.56515 762.27734 395.77344 767.11255 395.77344 776.78516 L 395.77344 803.57227 C 380.89245 808.03655 361.17465 820.31305 336.62109 840.40234 L 336.62109 852.67773 C 370.84726 819.19564 417.72226 802.45508 477.24609 802.45508 C 536.76992 802.45508 584.0161 819.19564 618.98633 852.67773 L 618.98633 840.40234 C 593.68871 820.31305 573.97287 808.03655 559.83594 803.57227 L 559.83594 776.78516 C 559.83594 767.11255 564.6711 762.27734 574.34375 762.27734 C 639.81994 768.22973 692.64757 765.99675 732.82617 755.58008 C 751.42735 772.69319 760.72852 800.22351 760.72852 838.16992 L 760.72852 949.77734 C 760.72852 983.25947 775.6092 1000 805.37109 1000 C 835.87704 1000 851.13086 989.95451 851.13086 969.86523 C 851.13086 949.03189 852.80431 929.12947 856.15234 910.15625 C 859.50056 891.18306 856.70981 872.39613 847.78125 853.79492 C 852.24549 854.53901 856.89609 853.42167 861.73242 850.44531 C 866.56871 847.46914 868.98633 844.12261 868.98633 840.40234 C 868.98633 836.68226 867.12648 833.33378 863.40625 830.35742 C 860.64672 828.28785 854.04886 826.53748 843.61328 825.10742 C 845.95573 824.57881 849.20506 822.23635 853.36133 818.08008 C 859.31372 812.12769 862.29102 803.94397 862.29102 793.52734 C 862.29102 786.08681 859.31372 779.01671 853.36133 772.32031 C 847.40894 765.62387 839.59644 762.27734 829.92383 762.27734 C 820.25121 762.27734 812.25408 765.43924 805.92969 771.76367 C 799.60526 778.08806 796.44141 785.34279 796.44141 793.52734 C 796.44141 803.94397 799.4187 812.12769 805.37109 818.08008 C 810.51524 822.58134 814.26908 824.85872 816.63477 824.91406 C 810.97892 825.75471 804.99212 827.75475 798.67383 830.91406 C 791.97742 834.26228 786.39787 843.56346 781.93359 858.81641 C 777.46931 874.0694 781.56211 891.92734 794.21094 912.38867 C 806.85958 932.85 814.48553 946.98637 817.08984 954.79883 C 819.69401 962.6113 815.78776 966.51758 805.37109 966.51758 C 786.76992 966.51758 777.46875 957.58951 777.46875 939.73242 L 777.46875 838.16992 C 777.46875 800.22351 769.28507 770.83333 752.91602 750 C 773.0053 757.44049 806.11514 761.16016 852.24609 761.16016 C 899.86511 761.16016 933.71927 734.74735 953.80859 681.91992 C 956.78473 673.73545 954.36716 667.78276 946.55469 664.0625 C 938.74223 660.34242 932.23181 661.8309 927.02344 668.52734 L 893.54102 697.54492 C 903.95769 681.91995 908.60636 665.36402 907.49023 647.87891 C 906.3741 630.3938 906.3741 600.26125 907.49023 557.47852 C 908.60633 514.69575 903.58455 482.88606 892.42383 462.05273 C 899.1203 462.79678 905.81726 461.12352 912.51367 457.03125 C 919.21011 452.93902 922.55859 447.91723 922.55859 441.96484 C 922.55859 436.75651 920.32561 432.29253 915.86133 428.57227 C 911.39701 425.59609 905.25974 423.54965 897.44727 422.43359 C 889.63477 421.31753 883.12439 420.75977 877.91602 420.75977 C 883.85327 420.75977 912.51367 412.10648 912.51367 376.11523 C 912.51367 357.41283 900.05121 329.24023 866.98828 329.24023 C 838.49422 329.24023 818.76367 353.5275 818.76367 376.11523 C 818.76367 405.20968 840.18397 419.33031 854.47852 420.75977 C 843.31784 421.50378 833.08577 424.10798 823.78516 428.57227 C 814.48459 433.03658 808.3476 440.47591 805.37109 450.89258 C 799.4187 388.39257 790.11754 328.12557 777.46875 270.08984 C 806.4866 270.08984 820.99609 255.95152 820.99609 227.67773 C 820.99609 200.14795 803.88246 186.38477 769.65625 186.38477 C 728.73363 186.38477 708.27148 220.98132 708.27148 290.17773 C 700.83102 270.08844 695.25148 248.13959 691.53125 224.33008 L 691.53125 164.0625 C 691.53125 141.74106 706.04074 130.58008 735.05859 130.58008 C 741.75522 130.58008 743.24175 127.2316 739.52148 120.53516 C 732.08103 110.11849 720.54884 104.91016 704.92383 104.91016 C 696.73929 104.91016 686.6958 107.51433 674.79102 112.72266 C 671.21047 109.14211 667.49432 106.63962 663.64453 105.21289 A 52.897335 52.897335 0 0 0 708.71484 52.896484 A 52.897335 52.897335 0 0 0 655.81641 0 A 52.897335 52.897335 0 0 0 602.91992 52.896484 A 52.897335 52.897335 0 0 0 647.61523 105.1543 C 643.61005 106.57077 640.01922 109.09359 636.84375 112.72266 C 624.93901 107.51433 614.89349 104.91016 606.70898 104.91016 C 591.08394 104.91016 579.55178 110.11849 572.11133 120.53516 C 568.39121 127.2316 569.50855 130.58008 575.46094 130.58008 C 605.22284 130.58008 620.10352 141.74106 620.10352 164.0625 L 620.10352 224.33008 C 616.38329 248.13959 610.80182 270.08844 603.36133 290.17773 L 603.36133 247.76758 C 603.36133 220.98186 591.08482 184.52353 566.53125 138.39258 C 541.97769 184.52353 529.70117 220.98186 529.70117 247.76758 L 529.70117 290.17773 C 522.26068 270.08844 516.67943 248.13959 512.95898 224.33008 L 512.95898 164.0625 C 512.95898 141.74106 527.46841 130.58008 556.48633 130.58008 C 563.18292 130.58008 564.6714 127.2316 560.95117 120.53516 C 552.76662 110.11849 541.23447 104.91016 526.35352 104.91016 C 518.16901 104.91016 508.49667 107.51433 497.33594 112.72266 C 493.69115 109.0779 489.76718 106.54971 485.56445 105.13672 A 52.897335 52.897335 0 0 0 530.14258 52.896484 A 52.897335 52.897335 0 0 0 477.24609 0 A 52.897335 52.897335 0 0 0 424.34766 52.896484 A 52.897335 52.897335 0 0 0 469.04297 105.1543 C 465.0378 106.57077 461.44889 109.09359 458.27344 112.72266 C 446.36867 107.51433 436.32322 104.91016 428.13867 104.91016 C 413.25772 104.91016 401.72553 110.11849 393.54102 120.53516 C 389.82076 127.2316 391.30747 130.58008 398.00391 130.58008 C 427.02179 130.58008 441.53125 141.74106 441.53125 164.0625 L 441.53125 224.33008 C 437.81102 248.13959 432.23151 270.08844 424.79102 290.17773 L 424.79102 246.65234 C 424.79102 220.61067 412.51258 184.52353 387.95898 138.39258 C 364.14947 184.52353 352.24609 220.98186 352.24609 247.76758 L 352.24609 290.17773 C 344.06158 270.08844 338.10894 248.13959 334.38867 224.33008 L 334.38867 164.0625 C 334.38867 141.74106 349.26932 130.58008 379.03125 130.58008 C 384.9836 130.58008 386.09914 127.2316 382.37891 120.53516 C 374.93842 110.11849 363.77935 104.91016 348.89844 104.91016 C 339.96984 104.91016 329.55318 107.51433 317.64844 112.72266 C 314.47298 109.09358 310.88215 106.57077 306.87695 105.1543 A 52.897335 52.897335 0 0 0 351.57227 52.896484 A 52.897335 52.897335 0 0 0 298.67383 0 z M 298.67383 111.60742 C 304.62622 111.60742 309.83455 114.58281 314.29883 120.53516 C 309.83455 127.97565 307.60352 142.48511 307.60352 164.0625 L 307.60352 224.33008 L 300.90625 224.33008 L 300.90625 128.34766 L 296.44141 128.34766 L 296.44141 224.33008 L 290.86133 224.33008 L 290.86133 164.0625 C 290.86133 142.48511 288.6303 127.97565 284.16602 120.53516 C 288.6303 114.58281 293.4655 111.60742 298.67383 111.60742 z M 477.24609 111.60742 C 483.19848 111.60742 488.4068 114.58281 492.87109 120.53516 C 488.4068 127.97565 486.17383 142.48511 486.17383 164.0625 L 486.17383 224.33008 L 479.47852 224.33008 L 479.47852 128.34766 L 475.01367 128.34766 L 475.01367 224.33008 L 468.31641 224.33008 L 468.31641 164.0625 C 468.31641 142.48511 466.4566 127.97565 462.73633 120.53516 C 466.4566 114.58281 471.29374 111.60742 477.24609 111.60742 z M 655.81641 111.60742 C 661.7688 111.60742 666.60591 114.58281 670.32617 120.53516 C 666.60591 127.97565 664.74609 142.48511 664.74609 164.0625 L 664.74609 224.33008 L 658.04883 224.33008 L 658.04883 128.34766 L 653.58594 128.34766 L 653.58594 224.33008 L 646.88867 224.33008 L 646.88867 164.0625 C 646.88867 142.48511 644.65573 127.97565 640.19141 120.53516 C 644.65573 114.58281 649.86406 111.60742 655.81641 111.60742 z M 249.56641 113.83984 C 272.6319 113.83984 284.16602 130.58034 284.16602 164.0625 L 284.16602 224.33008 L 279.70117 224.33008 L 279.70117 164.0625 C 279.70117 132.81249 266.30917 117.1875 239.52344 117.1875 L 239.52344 120.53516 C 264.82106 120.53516 277.46875 135.04462 277.46875 164.0625 L 277.46875 224.33008 L 273.00391 224.33008 L 273.00391 164.0625 C 273.74796 136.53273 257.38057 122.76758 223.89844 122.76758 C 229.85079 116.81519 238.40569 113.83984 249.56641 113.83984 z M 348.89844 113.83984 C 359.31511 113.83984 367.87001 116.81519 374.56641 122.76758 C 341.08428 122.76758 324.71689 136.53273 325.46094 164.0625 L 325.46094 224.33008 L 320.99609 224.33008 L 320.99609 164.0625 C 320.99609 135.04462 333.6438 120.53516 358.94141 120.53516 L 358.94141 117.1875 C 331.41167 117.1875 317.64844 132.81249 317.64844 164.0625 L 317.64844 224.33008 L 314.29883 224.33008 L 314.29883 164.0625 C 314.29883 130.58034 325.83294 113.83984 348.89844 113.83984 z M 428.13867 113.83984 C 451.20416 113.83984 462.73633 130.58034 462.73633 164.0625 L 462.73633 224.33008 L 458.27344 224.33008 L 458.27344 164.0625 C 458.27344 132.81249 444.50829 117.1875 416.97852 117.1875 L 416.97852 120.53516 C 442.27613 120.53516 454.92383 135.04462 454.92383 164.0625 L 454.92383 224.33008 L 451.57617 224.33008 L 451.57617 164.0625 C 451.57617 136.53273 435.20686 122.76758 402.46875 122.76758 C 408.4211 116.81519 416.97795 113.83984 428.13867 113.83984 z M 526.35352 113.83984 C 537.51424 113.83984 546.07105 116.81519 552.02344 122.76758 C 519.28533 122.76758 502.91602 136.53273 502.91602 164.0625 L 502.91602 224.33008 L 499.56641 224.33008 L 499.56641 164.0625 C 499.56641 135.04462 512.21605 120.53516 537.51367 120.53516 L 537.51367 117.1875 C 510.72794 117.1875 496.9628 132.81249 496.21875 164.0625 L 496.21875 224.33008 L 492.87109 224.33008 L 492.87109 164.0625 C 492.87109 130.58034 504.03208 113.83984 526.35352 113.83984 z M 606.71094 113.83984 C 629.03234 113.83984 640.19336 130.58034 640.19336 164.0625 L 640.19336 224.33008 L 636.84375 224.33008 L 636.84375 164.0625 C 636.84375 132.81249 623.07857 117.1875 595.54883 117.1875 L 595.54883 120.53516 C 620.84645 120.53516 633.49609 135.04462 633.49609 164.0625 L 633.49609 224.33008 L 630.14844 224.33008 L 630.14844 164.0625 C 630.14844 136.53273 613.40596 122.76758 579.92383 122.76758 C 586.62024 116.81519 595.55022 113.83984 606.71094 113.83984 z M 704.92383 113.83984 C 716.08452 113.83984 724.64136 116.81519 730.59375 122.76758 C 697.85568 122.76758 681.48633 136.53273 681.48633 164.0625 L 681.48633 224.33008 L 677.02148 224.33008 L 677.02148 164.0625 C 677.02148 135.04462 690.04235 120.53516 716.08398 120.53516 L 716.08398 117.1875 C 688.55421 117.1875 674.79102 132.81249 674.79102 164.0625 L 674.79102 224.33008 L 670.32617 224.33008 L 670.32617 164.0625 C 670.32617 130.58034 681.85837 113.83984 704.92383 113.83984 z M 387.95898 175.22266 C 401.35186 196.80005 408.04883 230.65421 408.04883 276.78516 L 408.04883 340.40234 C 399.86432 367.18807 393.16735 415.54977 387.95898 485.49023 C 382.75064 415.54977 376.0556 367.18807 367.87109 340.40234 L 367.87109 276.78516 C 367.87109 230.65421 374.56613 196.80005 387.95898 175.22266 z M 566.53125 175.22266 L 567.64844 175.22266 C 581.04129 196.80005 587.73633 230.65421 587.73633 276.78516 L 587.73633 340.40234 C 578.06371 367.18807 570.99553 415.54977 566.53125 485.49023 C 561.32292 415.54977 554.62592 367.18807 546.44141 340.40234 L 546.44141 276.78516 C 546.44141 230.65421 553.13841 196.80005 566.53125 175.22266 z M 184.83594 199.77734 C 215.34189 199.77734 230.59375 225.44587 230.59375 276.78516 C 211.24852 397.32089 201.57617 512.27733 201.57617 621.65234 L 201.57617 683.03516 C 188.92734 683.77925 174.41788 687.87204 158.04883 695.3125 L 158.04883 621.65234 C 162.51311 470.61065 175.53394 349.70153 197.11133 258.92773 C 162.88515 260.4158 146.88896 249.99913 149.12109 227.67773 C 149.86514 209.07652 161.77044 199.77734 184.83594 199.77734 z M 769.65625 199.77734 C 793.4658 199.77734 805.37109 209.07652 805.37109 227.67773 C 807.60325 248.51106 791.60512 258.92773 757.37891 258.92773 C 778.9563 349.70153 792.35026 470.23757 797.55859 620.53516 L 797.55859 696.42773 L 752.91602 683.03516 L 752.91602 621.65234 C 752.91602 512.27733 743.24367 397.32089 723.89844 276.78516 C 723.89844 225.44587 739.15034 199.77734 769.65625 199.77734 z M 273.00391 231.02734 L 325.46094 231.02734 L 325.46094 238.83984 L 271.88867 238.83984 L 273.00391 231.02734 z M 451.57617 231.02734 L 502.91602 231.02734 L 504.03125 238.83984 L 450.46094 238.83984 L 451.57617 231.02734 z M 630.14844 231.02734 L 681.48633 231.02734 L 682.60352 238.83984 L 629.03125 238.83984 L 630.14844 231.02734 z M 270.77344 246.65234 L 326.57617 246.65234 L 328.80859 253.34766 L 268.54102 253.34766 L 270.77344 246.65234 z M 449.34375 246.65234 L 505.14844 246.65234 L 507.37891 253.34766 L 447.11133 253.34766 L 449.34375 246.65234 z M 627.91602 246.65234 L 683.71875 246.65234 L 685.95117 253.34766 L 625.68359 253.34766 L 627.91602 246.65234 z M 267.42383 261.16016 L 331.04102 261.16016 L 333.27148 267.85742 L 264.07617 267.85742 L 267.42383 261.16016 z M 444.87891 261.16016 L 509.61133 261.16016 L 511.84375 267.85742 L 442.64648 267.85742 L 444.87891 261.16016 z M 623.45117 261.16016 L 688.18359 261.16016 L 690.41602 267.85742 L 621.21875 267.85742 L 623.45117 261.16016 z M 262.96094 276.78516 L 334.38867 276.78516 C 354.47799 334.07683 367.87001 407.36654 374.56641 496.65234 C 378.28664 550.96784 380.14648 612.3523 380.14648 680.80469 C 368.24175 681.54871 356.33836 684.89527 344.43359 690.84766 C 332.52885 696.79993 315.97296 696.05568 294.76758 688.61523 C 273.56224 681.17462 248.07835 678.57046 218.31641 680.80273 C 218.31641 612.35033 220.17817 550.96783 223.89844 496.65234 C 231.3389 407.36665 244.35973 334.07683 262.96094 276.78516 z M 441.53125 276.78516 L 514.07617 276.78516 C 532.67734 334.07683 545.327 407.36657 552.02344 496.65234 C 556.48772 550.96783 558.71875 610.86365 558.71875 676.33984 C 520.77231 675.59582 493.61515 685.63936 477.24609 706.47266 C 461.62109 685.63917 434.4639 676.71113 395.77344 679.6875 C 395.77344 611.97915 398.00447 550.96783 402.46875 496.65234 C 408.4211 407.36665 421.44193 334.07683 441.53125 276.78516 z M 618.98633 276.78516 L 692.64844 276.78516 C 711.24965 334.07683 723.8975 407.36665 730.59375 496.65234 C 734.31402 550.96783 736.17383 612.35033 736.17383 680.80273 C 706.41194 678.57057 680.92805 681.17474 659.72266 688.61523 C 638.51732 696.05568 610.42921 691.96484 575.45898 676.33984 C 574.71507 610.86365 576.20356 550.96783 579.92383 496.65234 C 587.36429 407.36665 600.38516 334.07683 618.98633 276.78516 z M 61.021484 430.17578 C 66.18331 430.03627 69.879169 431.36215 72.111328 434.15234 C 88.480346 431.17613 102.8033 431.92049 115.08008 436.38477 C 127.35686 440.84908 135.72709 452.75243 140.19141 472.09766 C 144.65569 491.44289 141.12257 510.60294 129.58984 529.57617 C 118.05707 548.54939 108.19818 567.7075 100.01367 587.05273 C 86.620827 620.5349 79.923828 645.08984 79.923828 660.71484 C 79.923828 676.33984 100.38597 684.15234 141.30859 684.15234 L 141.30859 698.66016 C 88.481201 698.66016 61.881811 686.38369 61.509766 661.83008 C 61.137758 637.27652 60.951172 604.91099 60.951172 564.73242 C 60.951172 524.55385 63.555338 496.83697 68.763672 481.58398 C 73.972006 466.33099 79.924654 457.2164 86.621094 454.24023 C 93.317497 451.26402 103.36103 449.77734 116.75391 449.77734 C 119.73008 449.77734 120.10321 448.28864 117.87109 445.3125 C 102.99014 440.84819 86.992014 443.08118 69.878906 452.00977 C 66.158678 453.49784 60.579165 453.68247 53.138672 452.56641 C 45.698179 451.45035 41.978516 447.91723 41.978516 441.96484 C 41.978516 436.75651 46.442495 433.03488 55.371094 430.80273 C 57.417221 430.43071 59.300876 430.22229 61.021484 430.17578 z M 893.40039 430.17578 C 895.16751 430.22229 897.07496 430.43071 899.12109 430.80273 C 907.30564 433.03488 911.39844 436.75651 911.39844 441.96484 C 911.39844 447.91723 907.67686 451.45035 900.23633 452.56641 C 892.79606 453.68247 887.58769 453.49784 884.61133 452.00977 C 867.49822 443.08118 851.12891 440.84819 835.50391 445.3125 C 833.27201 448.28864 833.6451 449.77734 836.62109 449.77734 C 850.01401 449.77734 860.05751 451.26402 866.75391 454.24023 C 873.45035 457.2164 879.403 466.33099 884.61133 481.58398 C 889.81963 496.83697 892.42383 524.55385 892.42383 564.73242 C 892.42383 604.91099 892.23924 637.27652 891.86719 661.83008 C 891.49511 686.38369 865.2669 698.66016 813.18359 698.66016 L 813.18359 684.15234 C 853.36216 684.15234 873.45117 676.33984 873.45117 660.71484 C 873.45117 645.08984 866.75417 620.5349 853.36133 587.05273 C 845.17678 567.7075 835.31789 548.54939 823.78516 529.57617 C 812.25243 510.60294 808.71931 491.44289 813.18359 472.09766 C 817.64788 452.75243 826.01814 440.84908 838.29492 436.38477 C 850.57174 431.92049 864.89466 431.17613 881.26367 434.15234 C 884.05384 431.36215 888.09904 430.03627 893.40039 430.17578 z M 57.115234 432.4082 C 55.952658 432.45471 54.626769 432.66313 53.138672 433.03516 C 46.442232 435.26729 44.582382 438.9889 47.558594 444.19727 C 50.534769 449.4056 59.835935 449.03247 75.460938 443.08008 L 93.316406 434.15234 L 75.460938 440.84766 C 64.300216 444.56789 57.045486 446.05652 53.697266 445.3125 C 50.349083 444.56845 48.489232 443.07981 48.117188 440.84766 C 47.758577 438.69589 49.128085 437.06383 52.226562 435.94922 C 50.602754 437.31176 49.791016 438.94382 49.791016 440.84766 C 50.535069 443.07981 52.021747 444.19727 54.253906 444.19727 C 56.486028 444.19727 57.974697 443.07981 58.71875 440.84766 C 59.462803 438.6155 59.091622 437.12882 57.603516 436.38477 C 56.476504 435.82127 55.349689 435.47071 54.222656 435.33398 C 56.732015 434.67379 58.603145 434.65118 59.835938 435.26758 C 61.324043 436.0116 61.881811 437.12712 61.509766 438.61523 C 61.137758 440.10334 60.206856 441.59198 58.71875 443.08008 C 62.439015 442.33603 63.927647 440.10503 63.183594 436.38477 C 62.625554 433.59459 60.602962 432.26869 57.115234 432.4082 z M 896.26172 432.4082 C 892.77403 432.26869 890.74947 433.59459 890.19141 436.38477 C 889.44717 440.10503 890.93602 442.33603 894.65625 443.08008 C 893.16807 441.59198 892.23728 440.10334 891.86523 438.61523 C 891.49318 437.12712 892.05284 436.0116 893.54102 435.26758 C 894.77763 434.64926 896.78437 434.67358 899.5625 435.33984 C 898.79589 435.48077 897.7181 435.82961 896.33008 436.38477 C 894.46985 437.12882 893.91216 438.6155 894.65625 440.84766 C 895.40034 443.07981 897.07342 444.19727 899.67773 444.19727 C 902.28204 444.19727 903.58594 443.07981 903.58594 440.84766 C 903.58594 438.80835 902.65422 437.08035 900.79102 435.66211 C 900.97549 435.71434 901.16319 435.76908 901.35352 435.82617 C 905.07397 436.94223 906.5605 438.6155 905.81641 440.84766 C 905.07254 443.07981 903.21269 444.56845 900.23633 445.3125 C 897.26016 446.05652 890.19198 444.56789 879.03125 440.84766 L 861.17383 434.15234 L 860.05859 434.15234 L 877.91602 443.08008 C 893.54102 449.03247 903.02667 449.4056 906.375 444.19727 C 909.72322 438.9889 907.67686 435.26729 900.23633 433.03516 C 898.74825 432.66313 897.42428 432.45471 896.26172 432.4082 z M 144.65625 532.36523 C 142.42413 539.80568 141.30859 569.56896 141.30859 621.65234 L 141.30859 671.875 C 121.21931 671.875 107.82535 669.45741 101.12891 664.62109 C 94.432463 659.7848 94.432463 646.01966 101.12891 623.32617 C 107.82535 600.63276 116.3822 580.91493 126.79883 564.17383 C 137.2155 547.43277 143.16814 536.82951 144.65625 532.36523 z M 810.95117 534.59766 C 831.78454 571.05603 845.73628 600.63276 852.80469 623.32617 C 859.87314 646.01966 859.87314 659.7848 852.80469 664.62109 C 845.73628 669.45742 832.52886 671.875 813.18359 671.875 L 813.18359 620.53516 C 813.18359 591.51732 812.43935 562.87149 810.95117 534.59766 z M 14.076172 676.33984 L 16.308594 676.33984 C 44.582385 709.07795 73.599396 725.44727 103.36133 725.44727 C 119.73035 725.44727 134.23984 722.8431 146.88867 717.63477 C 159.53746 712.42644 173.11606 709.63572 187.625 709.26367 C 202.13394 708.89166 232.82616 720.61037 279.70117 744.41992 L 262.96094 744.41992 C 253.28832 744.41992 239.89436 739.76932 222.78125 730.46875 C 205.66814 721.16807 181.48634 720.42383 150.23633 728.23633 C 118.98636 736.04902 88.480682 734.37556 58.71875 723.21484 C 88.480682 736.60772 114.70893 740.70056 137.40234 735.49219 C 160.09583 730.28382 181.48688 729.91072 201.57617 734.375 C 177.76662 741.07141 145.02797 744.41992 103.36133 744.41992 C 62.438675 744.41992 32.677349 722.47106 14.076172 678.57227 L 14.076172 676.33984 z M 939.29883 676.33984 L 940.41602 676.33984 L 940.41602 678.57227 C 921.81481 722.47106 892.05153 744.41992 851.12891 744.41992 C 809.46224 744.41992 776.72553 741.0714 752.91602 734.375 C 773.0053 729.91079 794.58298 730.2839 817.64844 735.49219 C 840.71393 740.70056 866.75559 736.60772 895.77344 723.21484 C 866.75559 734.37537 836.43455 736.04883 804.8125 728.23633 C 773.19049 720.4239 748.82405 721.16814 731.71094 730.46875 C 714.59787 739.76932 701.20386 744.41992 691.53125 744.41992 L 674.79102 744.41992 C 721.66607 720.61041 755.89136 708.70508 777.46875 708.70508 C 784.9092 709.44913 794.95473 712.42644 807.60352 717.63477 C 820.25235 722.8431 835.13298 725.44727 852.24609 725.44727 C 881.26394 725.44727 910.28095 709.07795 939.29883 676.33984 z M 728.36133 695.3125 C 713.48038 696.05655 688.18304 704.42682 652.46875 720.42383 C 616.75447 736.42084 589.96849 744.41992 572.11133 744.41992 C 553.51015 744.41992 544.21094 752.97669 544.21094 770.08984 L 544.21094 800.22266 L 524.12109 795.75977 L 524.12109 770.08984 C 524.12109 740.32791 540.86163 725.44727 574.34375 725.44727 C 609.31398 725.44727 635.91341 720.42353 654.14258 710.37891 C 672.37175 700.33425 697.11133 695.3125 728.36133 695.3125 z M 254.63281 696.40234 C 269.15916 696.93129 284.3971 701.58999 300.34766 710.37891 C 318.57679 720.42353 345.17625 725.44531 380.14648 725.44531 C 414.3727 725.44531 431.48633 740.3279 431.48633 770.08984 L 431.48633 795.75781 L 411.39648 800.22266 L 411.39648 770.08984 C 411.39648 752.9767 401.72414 744.41992 382.37891 744.41992 C 364.52179 744.41992 319.87974 728.42175 248.45117 696.42773 C 250.4973 696.33473 252.55762 696.32678 254.63281 696.40234 z M 411.39648 696.42773 C 438.92629 696.42773 458.27291 710.56605 469.43359 738.83984 L 469.43359 793.52734 C 458.27291 793.52734 450.83156 793.89849 447.11133 794.64258 L 447.11133 770.08984 C 447.11133 731.39935 424.78941 712.05469 380.14648 712.05469 C 348.15247 712.05469 332.15625 710.5662 332.15625 707.58984 C 357.45386 700.14935 383.86674 696.42773 411.39648 696.42773 z M 544.21094 696.42773 C 570.99663 696.42773 597.03833 700.14935 622.33594 707.58984 C 622.33594 710.5662 606.33777 712.05273 574.34375 712.05273 C 530.44496 712.05273 508.49609 731.39935 508.49609 770.08984 L 508.49609 794.64258 C 504.03178 793.89849 496.21928 793.52734 485.05859 793.52734 L 485.05859 738.83984 C 496.21928 710.56605 515.93711 696.42773 544.21094 696.42773 z M 191.53125 700.89258 C 225.75746 700.89258 255.3342 707.58958 280.25977 720.98242 C 305.18538 734.3753 322.85485 742.18779 333.27148 744.41992 C 308.71791 744.41992 285.28234 737.72293 262.96094 724.33008 C 240.63949 710.93735 216.82886 703.12485 191.53125 700.89258 z M 762.96094 700.89258 C 737.66333 703.12474 713.85266 710.93724 691.53125 724.33008 C 669.20981 737.72293 645.77232 744.41992 621.21875 744.41992 C 631.63538 742.18779 649.49341 734.3753 674.79102 720.98242 C 700.08867 707.58958 729.47881 700.89258 762.96094 700.89258 z M 108.59375 831.85742 C 111.15141 831.97369 113.12836 832.96204 114.52344 834.82227 C 126.42821 832.59 136.28516 832.96114 144.09766 835.9375 C 151.91016 838.91367 157.49165 847.28394 160.83984 861.04883 C 164.18806 874.81372 161.77045 888.39228 153.58594 901.78516 C 145.40143 915.17801 138.51788 927.08337 132.9375 937.5 C 127.35716 947.91667 124.56641 955.35796 124.56641 959.82227 C 124.56641 972.47106 132.75207 978.79492 149.12109 978.79492 C 173.67469 978.79492 185.95117 965.40096 185.95117 938.61523 C 185.95117 972.84141 173.67469 989.95508 149.12109 989.95508 C 126.05563 989.95508 114.52344 981.39823 114.52344 964.28516 C 114.52344 947.17205 113.22136 929.12948 110.61719 910.15625 C 108.01302 891.18307 109.31511 876.48698 114.52344 866.07031 C 119.73177 855.65383 130.14844 848.95878 145.77344 845.98242 C 148.00557 845.23833 148.37674 844.121 146.88867 842.63281 C 135.72795 839.65679 124.56697 841.14527 113.40625 847.09766 C 110.43008 847.84175 106.33724 848.0283 101.12891 847.65625 C 95.920569 847.28421 93.316406 844.86663 93.316406 840.40234 C 93.316406 835.9381 96.664891 833.33393 103.36133 832.58984 C 105.31446 832.03178 107.05915 831.78766 108.59375 831.85742 z M 846.33398 831.85742 C 848.04297 831.78766 850.01395 832.03178 852.24609 832.58984 C 858.19848 833.33389 861.17383 835.93806 861.17383 840.40234 C 861.17383 844.86662 858.56966 847.2842 853.36133 847.65625 C 848.15314 848.02829 844.0623 847.84175 841.08594 847.09766 C 829.92525 841.14494 818.76427 839.65841 807.60352 842.63477 C 806.11534 844.12295 806.48648 845.23833 808.71875 845.98242 C 824.34375 848.9586 834.76045 855.6556 839.96875 866.07227 C 845.17738 876.48894 846.47932 891.18306 843.875 910.15625 C 841.27069 929.12947 840.15529 947.17205 840.52734 964.28516 C 840.89935 981.39823 829.1806 989.95508 805.37109 989.95508 C 780.81753 989.95508 768.54102 972.84337 768.54102 938.61719 C 768.54102 965.40291 780.81753 978.79492 805.37109 978.79492 C 821.74015 978.79492 829.92383 972.47106 829.92383 959.82227 C 829.92383 955.35795 827.3197 947.91667 822.11133 937.5 C 816.90303 927.08337 810.20799 915.178 802.02344 901.78516 C 793.83879 888.39228 791.23458 874.81372 794.21094 861.04883 C 797.18708 847.28412 802.58008 838.91386 810.39258 835.9375 C 818.20508 832.96114 828.06398 832.59 839.96875 834.82227 C 841.36385 832.96204 843.48567 831.97369 846.33398 831.85742 z M 104.75781 833.46094 C 104.01377 833.43768 103.17615 833.51906 102.24609 833.70508 C 97.037757 835.93739 95.549128 838.72814 97.78125 842.07617 C 100.01341 845.42432 106.33724 844.86662 116.75391 840.40234 L 130.14844 834.82227 L 129.03125 833.70508 L 116.75391 839.28516 C 109.31342 842.26152 104.47821 843.37886 102.24609 842.63477 C 100.01393 841.89068 98.711852 840.77334 98.339844 839.28516 C 97.967799 837.79698 98.896744 836.49505 101.12891 835.37891 C 103.36103 834.26278 105.03624 834.07818 106.15234 834.82227 C 107.2684 835.56636 107.63963 836.4952 107.26758 837.61133 C 106.89557 838.72747 106.3378 839.65825 105.59375 840.40234 C 108.56996 840.40234 109.68546 839.1004 108.94141 836.49609 C 108.38337 834.54286 106.98995 833.5307 104.75781 833.46094 z M 850.39648 833.46094 C 847.81557 833.5307 846.38646 834.54286 846.10742 836.49609 C 845.73537 839.1004 846.66421 840.40234 848.89648 840.40234 C 848.15239 839.65825 847.5947 838.72747 847.22266 837.61133 C 846.85061 836.4952 847.22371 835.5644 848.33984 834.82031 C 849.45597 834.07622 851.12906 834.26278 853.36133 835.37891 C 855.5936 836.49505 856.71094 837.79698 856.71094 839.28516 C 856.71094 840.77334 855.409 841.89068 852.80469 842.63477 C 850.20052 843.37886 845.17678 842.26152 837.73633 839.28516 L 825.46094 833.70508 L 825.45898 834.82031 L 837.73633 840.40039 C 848.15318 844.86493 854.66363 845.42458 857.26758 842.07617 C 859.87197 838.7281 858.56966 835.93735 853.36133 833.70508 C 852.24526 833.51906 851.25679 833.43768 850.39648 833.46094 z M 103.50195 835.37891 C 103.03693 835.37891 102.61812 835.56545 102.24609 835.9375 C 100.01393 836.68159 98.898438 837.79698 98.898438 839.28516 C 98.898437 840.77334 99.827385 841.51758 101.6875 841.51758 C 103.54761 841.51758 104.8497 840.77334 105.59375 839.28516 C 106.3378 837.79698 106.15122 836.68159 105.03516 835.9375 C 104.47712 835.56545 103.96698 835.37891 103.50195 835.37891 z M 852.10547 835.37891 C 851.64041 835.37891 851.13033 835.56545 850.57227 835.9375 C 849.45614 836.68159 849.08303 837.79698 849.45508 839.28516 C 849.82712 840.77334 850.94446 841.51758 852.80469 841.51758 C 854.66492 841.51758 855.59375 840.77334 855.59375 839.28516 C 855.59375 837.79698 854.84951 836.68159 853.36133 835.9375 C 852.98928 835.56545 852.57053 835.37891 852.10547 835.37891 z " />
  <ellipse
     style="fill:#f9f06b;fill-rule:evenodd;stroke-width:20;stroke-linecap:round;stroke-miterlimit:5"
     id="path4"
     cx="86.062645"
     cy="375.55804"
     rx="32.924095"
     ry="32.924091" />
  <use
     x="0"
     y="0"
     xlink:href="#path4"
     id="use6"
     transform="translate(780.13401)" />
  <circle
     style="fill:#f9f06b;fill-rule:evenodd;stroke-width:20;stroke-linecap:round;stroke-miterlimit:5"
     id="path13"
     cx="298.67426"
     cy="52.897335"
     r="36.97126" />
  <use
     x="0"
     y="0"
     xlink:href="#path13"
     id="use16"
     transform="translate(178.57144)" />
  <use
     x="0"
     y="0"
     xlink:href="#path13"
     id="use18"
     transform="translate(357.14272)" />
  <circle
     style="fill:#1a5fb4;fill-rule:evenodd;stroke-width:20;stroke-linecap:round;stroke-miterlimit:5"
     id="path9"
     cx="298.67426"
     cy="603.23669"
     r="69.752602" />
  <circle
     style="fill:#f9f06b;fill-rule:evenodd;stroke-width:20;stroke-linecap:round;stroke-miterlimit:5"
     id="path10"
     cx="298.67426"
     cy="603.23663"
     r="48.546696" />
  <use
     x="0"
     y="0"
     xlink:href="#path9"
     id="use10"
     transform="translate(178.57144)" />
  <use
     x="0"
     y="0"
     xlink:href="#path10"
     id="use11"
     transform="translate(178.57144)" />
  <use
     x="0"
     y="0"
     xlink:href="#path9"
     id="use12"
     transform="translate(357.14272)" />
  <use
     x="0"
     y="0"
     xlink:href="#path10"
     id="use13"
     transform="translate(357.14272)" />
  <circle
     style="fill:#f9f06b;fill-rule:evenodd;stroke-width:20;stroke-linecap:round;stroke-miterlimit:5"
     id="path15"
     cx="125.68322"
     cy="794.08496"
     r="22.87949" />
  <use
     x="0"
     y="0"
     xlink:href="#path15"
     id="use19"
     transform="translate(704.24111,1.8961262e-5)" />
</svg>
