<?xml version="1.0" encoding="UTF-8" standalone="no"?>
<svg
   width="1200"
   height="1000"
   version="1.1"
   id="svg1"
   sodipodi:docname="S61A.svg"
   inkscape:version="1.4.2 (f4327f4, 2025-05-13)"
   xmlns:inkscape="http://www.inkscape.org/namespaces/inkscape"
   xmlns:sodipodi="http://sodipodi.sourceforge.net/DTD/sodipodi-0.dtd"
   xmlns:xlink="http://www.w3.org/1999/xlink"
   xmlns="http://www.w3.org/2000/svg"
   xmlns:svg="http://www.w3.org/2000/svg">
  <defs
     id="defs1" />
  <sodipodi:namedview
     id="namedview1"
     pagecolor="#ffffff"
     bordercolor="#666666"
     borderopacity="1.0"
     inkscape:showpageshadow="2"
     inkscape:pageopacity="0.0"
     inkscape:pagecheckerboard="0"
     inkscape:deskcolor="#d1d1d1"
     showguides="true"
     inkscape:zoom="0.755"
     inkscape:cx="541.0596"
     inkscape:cy="680.13245"
     inkscape:window-width="1680"
     inkscape:window-height="998"
     inkscape:window-x="-8"
     inkscape:window-y="-8"
     inkscape:window-maximized="1"
     inkscape:current-layer="svg1">
    <sodipodi:guide
       position="584.96882,134.06287"
       orientation="1,0"
       id="guide1"
       inkscape:locked="false" />
    <sodipodi:guide
       position="366.09082,842.68164"
       orientation="1,0"
       id="guide2"
       inkscape:locked="false" />
    <sodipodi:guide
       position="803.84678,842.68164"
       orientation="1,0"
       id="guide3"
       inkscape:locked="false" />
    <sodipodi:guide
       position="584.96885,870.77734"
       orientation="0,1"
       id="guide4"
       inkscape:locked="false"
       inkscape:label=""
       inkscape:color="rgb(0,134,229)" />
    <sodipodi:guide
       position="0,1000"
       orientation="0,-1"
       id="guide5"
       inkscape:locked="false" />
    <sodipodi:guide
       position="106.17188,580.02734"
       orientation="0,-1"
       id="guide11"
       inkscape:locked="false" />
    <sodipodi:guide
       position="105.48828,539.67188"
       orientation="1,0"
       id="guide12"
       inkscape:locked="false" />
    <sodipodi:guide
       position="106.17188,499.31641"
       orientation="0,-1"
       id="guide13"
       inkscape:locked="false" />
    <sodipodi:guide
       position="1064.4493,655.62915"
       orientation="1,0"
       id="guide14"
       inkscape:locked="false" />
    <sodipodi:guide
       position="366.09082,346.09215"
       orientation="0,-1"
       id="guide15"
       inkscape:locked="false" />
    <sodipodi:guide
       position="366.09082,175.11242"
       orientation="0,-1"
       id="guide16"
       inkscape:locked="false" />
    <sodipodi:guide
       position="366.09082,320.09743"
       orientation="0,-1"
       id="guide17"
       inkscape:locked="false" />
    <sodipodi:guide
       position="366.09082,201.1057"
       orientation="0,-1"
       id="guide18"
       inkscape:locked="false" />
  </sodipodi:namedview>
  <path
     id="path1"
     style="fill:#000000;stroke:none;stroke-width:1"
     d="M 366.08984 0 A 64.611328 64.611328 0 0 0 301.48047 64.611328 A 64.611328 64.611328 0 0 0 357.41406 128.63672 C 352.36729 130.31662 347.50668 133.49332 342.83398 138.16602 C 329.1541 131.78205 316.84237 128.5918 305.89844 128.5918 C 287.6586 128.5918 273.52409 134.97429 263.49219 147.74219 C 258.93219 155.95012 260.75491 160.05469 268.96289 160.05469 C 304.53059 160.05469 322.31445 173.73394 322.31445 201.09375 L 322.31445 274.96484 C 317.75449 304.14862 310.91485 331.05393 301.79492 355.67773 C 301.79492 270.86241 276.71624 228.45508 226.55664 228.45508 C 184.60497 228.45508 163.62891 245.32658 163.62891 279.07031 C 163.62891 313.72607 181.41277 331.05273 216.98047 331.05273 C 201.47658 403.10012 190.07521 477.42777 182.7793 554.03516 C 180.0433 541.2673 172.74849 531.92016 160.89258 525.99219 C 149.46216 520.27699 136.76062 516.89269 122.78711 515.83984 C 129.77809 515.94106 138.14746 511.11624 147.89648 501.36719 C 158.38442 490.87929 163.62891 477.42759 163.62891 461.01172 C 163.62891 445.50783 158.38442 432.05617 147.89648 420.65625 C 137.40858 409.25637 123.49974 403.55664 106.17188 403.55664 C 89.755998 403.55664 76.076743 409.25637 65.132812 420.65625 C 54.188923 432.05617 48.716797 445.50783 48.716797 461.01172 C 48.716797 477.42759 54.188923 491.10885 65.132812 502.05273 C 75.164757 511.17266 83.829087 515.73242 91.125 515.73242 C 85.653055 515.73242 78.128648 516.41519 68.552734 517.7832 C 58.976821 519.15118 51.909609 521.66061 47.349609 525.30859 C 41.877665 529.86859 39.140625 535.34068 39.140625 541.72461 C 39.140625 549.02056 43.017587 555.17545 50.769531 560.19141 C 58.521476 565.20736 66.501047 567.25964 74.708984 566.34766 C 61.029102 591.88342 54.872258 630.87094 56.240234 683.31055 C 57.608211 735.75011 57.608211 772.68536 56.240234 794.11719 C 54.872258 815.54905 59.204423 833.56048 69.236328 848.15234 L 35.037109 819.42578 C 27.741197 811.21781 19.304469 809.39318 9.7285156 813.95312 C 0.15260238 818.51312 -2.3548825 825.80989 2.2050781 835.8418 C 25.916905 900.59327 67.413828 932.96875 126.69336 932.96875 C 182.32491 932.96875 222.45236 928.40899 247.07617 919.28906 C 312.73967 936.61696 385.69778 941.63189 465.95312 934.33594 C 478.721 934.33594 485.10547 940.26518 485.10547 952.12109 L 485.10547 1000 L 584.96875 1000 L 684.83203 1000 L 684.83203 952.12109 C 684.83203 940.26518 691.2165 934.33594 703.98438 934.33594 C 784.23972 941.63189 857.19783 936.61696 922.86133 919.28906 C 947.48514 928.40899 987.61263 932.96875 1043.2441 932.96875 C 1102.5237 932.96875 1144.0206 900.59327 1167.7324 835.8418 C 1172.2924 825.80989 1169.7849 818.51312 1160.209 813.95312 C 1150.633 809.39317 1142.1963 811.21781 1134.9004 819.42578 L 1100.7012 848.15234 C 1110.7331 833.56048 1115.0652 815.54905 1113.6973 794.11719 C 1112.3293 772.68536 1112.3293 735.75011 1113.6973 683.31055 C 1115.0652 630.87094 1108.9084 591.88342 1095.2285 566.34766 C 1103.4365 567.25964 1111.416 565.20736 1119.168 560.19141 C 1126.9199 555.17545 1130.7969 549.02056 1130.7969 541.72461 C 1130.7969 535.34068 1128.0598 529.86859 1122.5879 525.30859 C 1118.0279 521.66061 1110.9607 519.15118 1101.3848 517.7832 C 1091.8089 516.41519 1084.2844 515.73242 1078.8125 515.73242 C 1086.1084 515.73242 1094.7727 511.17266 1104.8047 502.05273 C 1115.7486 491.10885 1121.2207 477.42759 1121.2207 461.01172 C 1121.2207 445.50783 1115.7486 432.05617 1104.8047 420.65625 C 1093.8608 409.25637 1080.1815 403.55664 1063.7656 403.55664 C 1046.4378 403.55664 1032.5289 409.25637 1022.041 420.65625 C 1011.5531 432.05617 1006.3086 445.50783 1006.3086 461.01172 C 1006.3086 477.42759 1011.5531 490.87929 1022.041 501.36719 C 1031.79 511.11624 1040.1594 515.94106 1047.1504 515.83984 C 1033.1769 516.89269 1020.4753 520.27699 1009.0449 525.99219 C 997.18903 531.92016 989.8942 541.2673 987.1582 554.03516 C 979.86229 477.42777 968.46092 403.10012 952.95703 331.05273 C 988.52473 331.05273 1006.3086 313.72607 1006.3086 279.07031 C 1006.3086 245.32658 985.33253 228.45508 943.38086 228.45508 C 893.22126 228.45508 868.14258 270.86241 868.14258 355.67773 C 859.02265 331.05393 852.18301 304.14862 847.62305 274.96484 L 847.62305 201.09375 C 847.62305 173.73394 865.40691 160.05469 900.97461 160.05469 C 909.18259 160.05469 911.00531 155.95012 906.44531 147.74219 C 896.41341 134.97429 882.2789 128.5918 864.03906 128.5918 C 853.09513 128.5918 840.7834 131.78205 827.10352 138.16602 C 822.43082 133.49332 817.57021 130.31662 812.52344 128.63672 A 64.611328 64.611328 0 0 0 868.45898 64.611328 A 64.611328 64.611328 0 0 0 803.84766 0 A 64.611328 64.611328 0 0 0 739.23633 64.611328 A 64.611328 64.611328 0 0 0 794.73242 128.57617 C 789.44419 130.23962 784.73026 133.43634 780.5918 138.16602 C 765.99993 131.78205 753.231 128.5918 742.28711 128.5918 C 724.04722 128.5918 710.36797 134.97429 701.24805 147.74219 C 696.68809 155.95012 698.05565 160.05469 705.35156 160.05469 C 741.83129 160.05469 760.07031 173.73394 760.07031 201.09375 L 760.07031 274.96484 C 755.51035 304.14862 748.2155 331.05393 738.18359 355.67773 C 738.18359 288.19027 723.59198 226.1744 694.4082 169.63086 C 664.31249 226.1744 649.26367 288.19027 649.26367 355.67773 C 640.14371 331.05393 633.3041 304.14862 628.74414 274.96484 L 628.74414 201.09375 C 628.74414 173.73394 646.528 160.05469 682.0957 160.05469 C 690.30364 160.05469 692.12832 155.95012 687.56836 147.74219 C 677.53645 134.97429 663.4 128.5918 645.16016 128.5918 C 635.12821 128.5918 622.81648 131.78205 608.22461 138.16602 C 604.08606 133.43625 599.37234 130.23959 594.08398 128.57617 A 64.611328 64.611328 0 0 0 649.58008 64.611328 A 64.611328 64.611328 0 0 0 584.96875 0 A 64.611328 64.611328 0 0 0 520.35742 64.611328 A 64.611328 64.611328 0 0 0 575.85352 128.57617 C 570.56516 130.23959 565.85144 133.43625 561.71289 138.16602 C 547.12102 131.78205 534.80929 128.5918 524.77734 128.5918 C 506.5375 128.5918 492.40105 134.97429 482.36914 147.74219 C 477.80918 155.95012 479.63386 160.05469 487.8418 160.05469 C 523.4095 160.05469 541.19336 173.73394 541.19336 201.09375 L 541.19336 274.96484 C 536.6334 304.14862 529.79379 331.05393 520.67383 355.67773 C 520.67383 288.19027 505.62501 226.1744 475.5293 169.63086 C 446.34552 226.1744 431.75391 288.19027 431.75391 355.67773 C 421.722 331.05393 414.42715 304.14862 409.86719 274.96484 L 409.86719 201.09375 C 409.86719 173.73394 428.10621 160.05469 464.58594 160.05469 C 471.88185 160.05469 473.24941 155.95012 468.68945 147.74219 C 459.56953 134.97429 445.89028 128.5918 427.65039 128.5918 C 416.7065 128.5918 403.93757 131.78205 389.3457 138.16602 C 385.20725 133.43635 380.49331 130.23962 375.20508 128.57617 A 64.611328 64.611328 0 0 0 430.70312 64.611328 A 64.611328 64.611328 0 0 0 366.08984 0 z M 366.08984 136.79883 C 373.3858 136.79883 379.77024 140.44627 385.24219 147.74219 C 379.77024 156.86211 377.03516 174.64593 377.03516 201.09375 L 377.03516 274.96484 L 368.82617 274.96484 L 368.82617 157.31836 L 363.35547 157.31836 L 363.35547 274.96484 L 356.51367 274.96484 L 356.51367 201.09375 C 356.51367 174.64593 353.77859 156.86211 348.30664 147.74219 C 353.77859 140.44627 359.70588 136.79883 366.08984 136.79883 z M 584.96875 136.79883 C 592.2647 136.79883 598.19199 140.44627 602.75195 147.74219 C 598.19199 156.86211 595.91211 174.64593 595.91211 201.09375 L 595.91211 274.96484 L 587.70508 274.96484 L 587.70508 157.31836 L 584.96875 157.31836 L 582.23242 157.31836 L 582.23242 274.96484 L 574.02539 274.96484 L 574.02539 201.09375 C 574.02539 174.64593 571.74551 156.86211 567.18555 147.74219 C 571.74551 140.44627 577.6728 136.79883 584.96875 136.79883 z M 803.84766 136.79883 C 810.23162 136.79883 816.15891 140.44627 821.63086 147.74219 C 816.15891 156.86211 813.42383 174.64593 813.42383 201.09375 L 813.42383 274.96484 L 806.58203 274.96484 L 806.58203 157.31836 L 801.11133 157.31836 L 801.11133 274.96484 L 792.90234 274.96484 L 792.90234 201.09375 C 792.90234 174.64593 790.16726 156.86211 784.69531 147.74219 C 790.16726 140.44627 796.5517 136.79883 803.84766 136.79883 z M 305.89844 139.53516 C 334.17022 139.53516 348.30664 160.05406 348.30664 201.09375 L 348.30664 274.96484 L 342.83398 274.96484 L 342.83398 201.09375 C 342.83398 162.79006 326.4196 143.63867 293.58789 143.63867 L 293.58789 147.74219 C 324.59563 147.74219 340.09961 165.52601 340.09961 201.09375 L 340.09961 274.96484 L 334.62695 274.96484 L 334.62695 201.09375 C 335.53894 167.35002 315.47523 150.47852 274.43555 150.47852 C 281.7315 143.18256 292.21856 139.53516 305.89844 139.53516 z M 427.65039 139.53516 C 440.41833 139.53516 450.90535 143.18256 459.11328 150.47852 C 418.0736 150.47852 398.00988 167.35002 398.92188 201.09375 L 398.92188 274.96484 L 393.45117 274.96484 L 393.45117 201.09375 C 393.45117 165.52601 408.95511 147.74219 439.96289 147.74219 L 439.96289 143.63867 C 406.21916 143.63867 389.3457 162.79006 389.3457 201.09375 L 389.3457 274.96484 L 385.24219 274.96484 L 385.24219 201.09375 C 385.24219 160.05406 399.37864 139.53516 427.65039 139.53516 z M 524.77734 139.53516 C 553.04913 139.53516 567.18555 160.05406 567.18555 201.09375 L 567.18555 274.96484 L 561.71289 274.96484 L 561.71289 201.09375 C 561.71289 162.79006 544.84139 143.63867 511.09766 143.63867 L 511.09766 147.74219 C 542.10544 147.74219 557.60937 165.52601 557.60938 201.09375 L 557.60938 274.96484 L 553.50586 274.96484 L 553.50586 201.09375 C 553.50586 167.35002 533.44215 150.47852 493.31445 150.47852 C 500.61041 143.18256 511.09746 139.53516 524.77734 139.53516 z M 645.16016 139.53516 C 658.84004 139.53516 669.32709 143.18256 676.62305 150.47852 C 636.49535 150.47852 616.43164 167.35002 616.43164 201.09375 L 616.43164 274.96484 L 612.32812 274.96484 L 612.32812 201.09375 C 612.32813 165.52601 627.83206 147.74219 658.83984 147.74219 L 658.83984 143.63867 C 625.09611 143.63867 608.22461 162.79006 608.22461 201.09375 L 608.22461 274.96484 L 602.75195 274.96484 L 602.75195 201.09375 C 602.75195 160.05406 616.88837 139.53516 645.16016 139.53516 z M 742.28711 139.53516 C 770.55886 139.53516 784.69531 160.05406 784.69531 201.09375 L 784.69531 274.96484 L 780.5918 274.96484 L 780.5918 201.09375 C 780.5918 162.79006 763.71834 143.63867 729.97461 143.63867 L 729.97461 147.74219 C 760.98239 147.74219 776.48633 165.52601 776.48633 201.09375 L 776.48633 274.96484 L 771.01562 274.96484 L 771.01562 201.09375 C 771.92762 167.35002 751.8639 150.47852 710.82422 150.47852 C 719.03215 143.18256 729.51917 139.53516 742.28711 139.53516 z M 864.03906 139.53516 C 877.71894 139.53516 888.206 143.18256 895.50195 150.47852 C 854.46227 150.47852 834.39856 167.35002 835.31055 201.09375 L 835.31055 274.96484 L 829.83789 274.96484 L 829.83789 201.09375 C 829.83789 165.52601 845.34187 147.74219 876.34961 147.74219 L 876.34961 143.63867 C 843.5179 143.63867 827.10352 162.79006 827.10352 201.09375 L 827.10352 274.96484 L 821.63086 274.96484 L 821.63086 201.09375 C 821.63086 160.05406 835.76728 139.53516 864.03906 139.53516 z M 475.5293 214.77344 C 491.94513 241.22122 500.1543 282.71815 500.1543 339.26172 L 500.1543 417.23633 C 490.12239 450.06807 481.91322 509.34887 475.5293 595.07617 C 469.14536 509.34887 460.93819 450.06807 450.90625 417.23633 L 450.90625 339.26172 C 450.90625 282.71815 459.11342 241.22122 475.5293 214.77344 z M 694.4082 214.77344 C 710.82408 241.22122 719.03125 282.71815 719.03125 339.26172 L 719.03125 417.23633 C 708.99931 450.06807 700.79214 509.34887 694.4082 595.07617 C 688.02428 509.34887 679.81511 450.06807 669.7832 417.23633 L 669.7832 339.26172 C 669.7832 282.71815 677.99237 241.22122 694.4082 214.77344 z M 226.55664 244.86914 C 263.94835 244.86914 282.64258 276.33421 282.64258 339.26172 C 258.93075 487.00455 247.07617 627.9078 247.07617 761.9707 L 247.07617 837.20898 C 231.57228 838.12101 213.78846 843.13789 193.72461 852.25781 L 193.72461 761.9707 C 199.19659 576.83616 215.15574 428.63615 241.60352 317.37305 C 199.65185 319.19705 180.0433 306.43011 182.7793 279.07031 C 183.69128 256.27051 198.28485 244.86914 226.55664 244.86914 z M 943.38086 244.86914 C 971.65265 244.86914 986.24622 256.27051 987.1582 279.07031 C 989.8942 306.43011 970.28565 319.19705 928.33398 317.37305 C 954.78176 428.63615 970.74091 576.83616 976.21289 761.9707 L 976.21289 852.25781 C 956.14904 843.13789 938.36522 838.12101 922.86133 837.20898 L 922.86133 761.9707 C 922.86133 627.9078 911.00675 487.00455 887.29492 339.26172 C 887.29492 276.33421 905.98915 244.86914 943.38086 244.86914 z M 334.62695 283.17383 L 398.92188 283.17383 L 398.92188 292.75 L 333.25977 292.75 L 334.62695 283.17383 z M 553.50586 283.17383 L 584.96875 283.17383 L 616.43164 283.17383 L 617.80078 292.75 L 584.96875 292.75 L 552.13672 292.75 L 553.50586 283.17383 z M 771.01562 283.17383 L 835.31055 283.17383 L 836.67773 292.75 L 771.01562 292.75 L 771.01562 283.17383 z M 331.89062 302.32617 L 400.29102 302.32617 L 403.02539 310.5332 L 329.1543 310.5332 L 331.89062 302.32617 z M 550.76953 302.32617 L 584.96875 302.32617 L 619.16797 302.32617 L 621.9043 310.5332 L 584.96875 310.5332 L 548.0332 310.5332 L 550.76953 302.32617 z M 769.64648 302.32617 L 838.04688 302.32617 L 840.7832 310.5332 L 766.91211 310.5332 L 769.64648 302.32617 z M 327.78711 320.10938 L 405.76172 320.10938 L 408.49805 328.31836 L 323.68359 328.31836 L 327.78711 320.10938 z M 545.29688 320.10938 L 584.96875 320.10938 L 624.64062 320.10938 L 627.37695 328.31836 L 584.96875 328.31836 L 542.56055 328.31836 L 545.29688 320.10938 z M 764.17578 320.10938 L 842.15039 320.10938 L 846.25391 328.31836 L 761.43945 328.31836 L 764.17578 320.10938 z M 322.31445 339.26172 L 409.86719 339.26172 C 434.491 409.48513 450.90535 499.31497 459.11328 608.75391 C 463.67324 675.32939 465.95312 750.56932 465.95312 834.47266 C 451.36124 835.38464 436.7696 839.4892 422.17773 846.78516 C 407.58583 854.08127 387.29452 853.16875 361.30273 844.04883 C 335.31095 834.92879 304.07543 831.73655 267.5957 834.47266 C 267.5957 750.56932 269.87559 675.33134 274.43555 608.75586 C 283.55551 499.31673 299.51465 409.48513 322.31445 339.26172 z M 541.19336 339.26172 L 584.96875 339.26172 L 628.74414 339.26172 C 653.36795 409.48513 669.32709 499.31673 676.62305 608.75586 C 682.09499 675.33134 684.83203 750.11411 684.83203 833.10547 C 637.40842 829.45745 604.12062 840.40167 584.96875 865.9375 C 565.81688 840.40167 532.52908 829.45745 485.10547 833.10547 C 485.10547 750.11411 487.84251 675.33134 493.31445 608.75586 C 500.61041 499.31673 516.56955 409.48513 541.19336 339.26172 z M 760.07031 339.26172 L 847.62305 339.26172 C 870.42285 409.48513 886.38199 499.31673 895.50195 608.75586 C 900.06191 675.33134 902.3418 750.56932 902.3418 834.47266 C 865.86207 831.73655 834.62655 834.92879 808.63477 844.04883 C 782.64298 853.16875 762.35167 854.08127 747.75977 846.78516 C 733.1679 839.4892 718.57627 835.38464 703.98438 834.47266 C 703.98437 750.56932 706.26426 675.32939 710.82422 608.75391 C 719.03215 499.31497 735.4465 409.48513 760.07031 339.26172 z M 74.794922 527.27344 C 81.121864 527.10243 85.65269 528.72844 88.388672 532.14844 C 108.45252 528.50042 126.00878 529.41083 141.05664 534.88281 C 156.10453 540.35476 166.36399 554.94833 171.83594 578.66016 C 177.30788 602.37198 172.97572 625.85553 158.83984 649.11133 C 144.70396 672.36712 132.61983 695.85067 122.58789 719.5625 C 106.17201 760.60219 97.964844 790.69778 97.964844 809.84961 C 97.964844 829.00148 123.04352 838.57812 173.20312 838.57812 L 173.20312 856.36133 C 108.45166 856.36133 75.84857 841.31259 75.392578 811.2168 C 74.936586 781.12104 74.708984 741.45071 74.708984 692.20312 C 74.708984 642.95547 77.901228 608.98294 84.285156 590.28711 C 90.669125 571.59127 97.963935 560.41946 106.17188 556.77148 C 114.37982 553.12351 126.69159 551.29883 143.10742 551.29883 C 146.7554 551.29883 147.21251 549.47607 144.47656 545.82812 C 126.23668 540.35614 106.62818 543.09126 85.652344 554.03516 C 81.092384 555.85916 74.252735 556.08676 65.132812 554.71875 C 56.012892 553.35081 51.453125 549.02056 51.453125 541.72461 C 51.453125 535.34068 56.925211 530.77896 67.869141 528.04297 C 70.377117 527.58697 72.685941 527.33044 74.794922 527.27344 z M 1095.1426 527.27344 C 1097.2516 527.33044 1099.5604 527.58697 1102.0684 528.04297 C 1113.0123 530.77896 1118.4844 535.34068 1118.4844 541.72461 C 1118.4844 549.02056 1113.9246 553.35081 1104.8047 554.71875 C 1095.6848 556.08676 1088.8451 555.85916 1084.2852 554.03516 C 1063.3093 543.09126 1043.7008 540.35614 1025.4609 545.82812 C 1022.725 549.47607 1023.1821 551.29883 1026.8301 551.29883 C 1043.2459 551.29883 1055.5577 553.12351 1063.7656 556.77148 C 1071.9736 560.41946 1079.2684 571.59127 1085.6523 590.28711 C 1092.0363 608.98294 1095.2285 642.95547 1095.2285 692.20312 C 1095.2285 741.45071 1095.0009 781.12104 1094.5449 811.2168 C 1094.0889 841.31259 1061.4859 856.36133 996.73438 856.36133 L 996.73438 838.57812 C 1046.894 838.57813 1071.9727 829.00148 1071.9727 809.84961 C 1071.9727 790.69778 1063.7655 760.60219 1047.3496 719.5625 C 1037.3177 695.85067 1025.2335 672.36712 1011.0977 649.11133 C 996.96174 625.85553 992.62962 602.37198 998.10156 578.66016 C 1003.5735 554.94833 1013.833 540.35476 1028.8809 534.88281 C 1043.9287 529.41083 1061.485 528.50042 1081.5488 532.14844 C 1084.2848 528.72844 1088.8156 527.10243 1095.1426 527.27344 z M 70.005859 530.00977 C 68.580869 530.06677 66.956802 530.32331 65.132812 530.7793 C 56.924875 533.51529 54.644992 538.07506 58.292969 544.45898 C 61.940945 550.84292 73.340321 550.38771 92.492188 543.0918 L 114.38086 532.14844 L 92.492188 540.35547 C 78.812265 544.91543 69.920375 546.74008 65.816406 545.82812 C 61.712438 544.91611 59.432555 543.09146 58.976562 540.35547 C 58.536991 537.71799 60.215766 535.71582 64.013672 534.34961 C 62.023354 536.01972 61.029297 538.02189 61.029297 540.35547 C 61.941281 543.09146 63.764047 544.45898 66.5 544.45898 C 69.235992 544.45898 71.060672 543.09146 71.972656 540.35547 C 72.88468 537.61948 72.429477 535.79476 70.605469 534.88281 C 69.224075 534.19209 67.842354 533.7633 66.460938 533.5957 C 69.536702 532.78653 71.830743 532.76017 73.341797 533.51562 C 75.165766 534.42764 75.84857 535.79517 75.392578 537.61914 C 74.936586 539.44311 73.796664 541.26779 71.972656 543.0918 C 76.532617 542.17981 78.357298 539.44277 77.445312 534.88281 C 76.761325 531.46284 74.28083 529.83878 70.005859 530.00977 z M 1099.9316 530.00977 C 1095.6567 529.83878 1093.1762 531.46284 1092.4922 534.88281 C 1091.5802 539.44277 1093.4049 542.17981 1097.9648 543.0918 C 1096.1408 541.26779 1095.0009 539.44311 1094.5449 537.61914 C 1094.0889 535.79517 1094.7717 534.42764 1096.5957 533.51562 C 1098.1068 532.76018 1100.4008 532.78653 1103.4766 533.5957 C 1102.0951 533.7633 1100.7134 534.19209 1099.332 534.88281 C 1097.508 535.79476 1097.0528 537.61948 1097.9648 540.35547 C 1098.8768 543.09146 1100.7015 544.45898 1103.4375 544.45898 C 1106.1735 544.45898 1107.9962 543.09146 1108.9082 540.35547 C 1108.9082 538.02189 1107.9141 536.01972 1105.9238 534.34961 C 1109.7217 535.71582 1111.4005 537.71799 1110.9609 540.35547 C 1110.5049 543.09146 1108.2251 544.91611 1104.1211 545.82812 C 1100.0171 546.74008 1091.1252 544.91543 1077.4453 540.35547 L 1055.5566 532.14844 L 1077.4453 543.0918 C 1096.5972 550.38771 1107.9966 550.84292 1111.6445 544.45898 C 1115.2925 538.07506 1113.0126 533.51529 1104.8047 530.7793 C 1102.9807 530.32331 1101.3566 530.06677 1099.9316 530.00977 z M 177.30859 652.53125 C 174.57261 661.65117 173.20312 698.13121 173.20312 761.9707 L 173.20312 823.5293 C 148.57932 823.5293 132.16497 820.56469 123.95703 814.63672 C 115.74914 808.70882 115.74914 791.83732 123.95703 764.02148 C 132.16497 736.20573 142.65203 712.03742 155.41992 691.51758 C 168.18782 670.99774 175.48459 658.0032 177.30859 652.53125 z M 992.62891 652.53125 C 994.45291 658.0032 1001.7497 670.99774 1014.5176 691.51758 C 1027.2855 712.03742 1037.7725 736.20573 1045.9805 764.02148 C 1054.1884 791.83732 1054.1884 808.70882 1045.9805 814.63672 C 1037.7725 820.56469 1021.3582 823.5293 996.73438 823.5293 L 996.73438 761.9707 C 996.73437 698.13121 995.36489 661.65117 992.62891 652.53125 z M 17.253906 829.00195 L 19.990234 829.00195 C 54.645951 869.12961 90.213631 889.19336 126.69336 889.19336 C 146.75721 889.19336 164.54107 886.00111 180.04492 879.61719 C 195.54881 873.23325 212.19271 869.81346 229.97656 869.35742 C 247.76041 868.90144 285.37842 883.26553 342.83398 912.44922 L 322.31445 912.44922 C 310.45854 912.44922 294.04224 906.74949 273.06641 895.34961 C 252.09057 883.94945 222.45213 883.03733 184.14844 892.61328 C 145.84475 902.18919 108.45238 900.13691 71.972656 886.45703 C 108.45238 902.8729 140.60022 907.88783 168.41602 901.50391 C 196.23177 895.12005 222.45236 894.66477 247.07617 900.13672 C 217.8924 908.34466 177.76495 912.44922 126.69336 912.44922 C 76.533749 912.44922 40.053709 885.54391 17.253906 831.73633 L 17.253906 829.00195 z M 1149.9473 829.00195 L 1152.6836 829.00195 L 1152.6836 831.73633 C 1129.8838 885.54391 1093.4038 912.44922 1043.2441 912.44922 C 992.17259 912.44922 952.0451 908.34466 922.86133 900.13672 C 947.48514 894.66477 973.70571 895.12005 1001.5215 901.50391 C 1029.3373 907.88783 1061.4851 902.8729 1097.9648 886.45703 C 1061.4851 900.13691 1024.0928 902.18919 985.78906 892.61328 C 947.48537 883.03733 917.84693 883.94945 896.87109 895.34961 C 875.89526 906.74949 859.47896 912.44922 847.62305 912.44922 L 827.10352 912.44922 C 884.55908 883.26553 922.17709 868.90144 939.96094 869.35742 C 957.74479 869.81346 974.38869 873.23325 989.89258 879.61719 C 1005.3964 886.00111 1023.1803 889.19336 1043.2441 889.19336 C 1079.7239 889.19336 1115.2915 869.12961 1149.9473 829.00195 z M 312.10938 853.59375 C 329.9146 854.24212 348.59174 859.95169 368.14258 870.72461 C 390.48642 883.03648 423.08948 889.19336 465.95312 889.19336 C 507.90476 889.19336 528.88086 907.43238 528.88086 943.91211 L 528.88086 984.95117 L 504.25781 984.95117 L 504.25781 943.91211 C 504.25781 922.93627 492.40124 912.44922 468.68945 912.44922 C 446.80163 912.44922 392.08256 892.84067 304.53125 853.625 C 307.03923 853.511 309.56576 853.50108 312.10938 853.59375 z M 857.82812 853.59375 C 860.37173 853.50108 862.89827 853.511 865.40625 853.625 C 777.85494 892.84067 723.13587 912.44922 701.24805 912.44922 C 677.53626 912.44922 665.67969 922.93627 665.67969 943.91211 L 665.67969 984.95117 L 641.05664 984.95117 L 641.05664 943.91211 C 641.05664 907.43238 662.03274 889.19336 703.98438 889.19336 C 746.84803 889.19336 779.45108 883.03648 801.79492 870.72461 C 821.34576 859.95169 840.02289 854.24212 857.82812 853.59375 z M 504.25781 853.625 C 538.00155 853.625 561.7127 870.95366 575.39258 905.60938 L 575.39258 984.95117 L 548.0332 984.95117 L 548.0332 943.91211 C 548.0332 896.48849 520.67267 872.77734 465.95312 872.77734 C 426.73741 872.77734 407.13086 870.9527 407.13086 867.30469 C 438.13864 858.18477 470.51412 853.625 504.25781 853.625 z M 665.67969 853.625 C 699.42338 853.625 731.79886 858.18477 762.80664 867.30469 C 762.80664 870.9527 743.20008 872.77734 703.98438 872.77734 C 649.26484 872.77734 621.9043 896.48849 621.9043 943.91211 L 621.9043 984.95117 L 594.54492 984.95117 L 594.54492 905.60938 C 608.2248 870.95366 631.93595 853.625 665.67969 853.625 z M 234.76367 859.09766 C 276.71535 859.09766 312.96778 867.30483 343.51953 883.7207 C 374.07132 900.13642 395.73015 909.71311 408.49805 912.44922 C 378.40229 912.44922 349.67425 904.24005 322.31445 887.82422 C 294.95469 871.40847 265.77145 861.83377 234.76367 859.09766 z M 935.17383 859.09766 C 904.16605 861.83377 874.98281 871.40847 847.62305 887.82422 C 820.26325 904.24005 791.53521 912.44922 761.43945 912.44922 C 774.20735 909.71311 795.86618 900.13642 826.41797 883.7207 C 856.96972 867.30483 893.22215 859.09766 935.17383 859.09766 z " />
  <circle
     style="fill:#f9f06b;fill-rule:evenodd;stroke-width:20;stroke-linecap:round;stroke-miterlimit:5"
     id="path8"
     cx="366.09082"
     cy="64.611328"
     r="44.460079" />
  <use
     x="0"
     y="0"
     xlink:href="#path8"
     id="use9"
     transform="translate(218.878)" />
  <use
     x="0"
     y="0"
     xlink:href="#path8"
     id="use11"
     transform="translate(437.75596)" />
  <circle
     style="fill:#f9f06b;fill-rule:evenodd;stroke-width:20;stroke-linecap:round;stroke-miterlimit:5"
     id="path13"
     cx="105.48828"
     cy="460.32812"
     r="40.355465" />
  <use
     x="0"
     y="0"
     xlink:href="#path13"
     id="use14"
     transform="translate(958.96102)" />
  <circle
     style="fill:#1a5fb4;fill-rule:evenodd;stroke-width:20;stroke-linecap:round;stroke-miterlimit:5"
     id="path18"
     cx="366.09082"
     cy="739.51117"
     r="85.603348" />
  <circle
     style="fill:#f9f06b;fill-rule:evenodd;stroke-width:20;stroke-linecap:round;stroke-miterlimit:5"
     id="path19"
     cx="366.09082"
     cy="739.39844"
     r="59.495872" />
  <use
     x="0"
     y="0"
     xlink:href="#path18"
     id="use19"
     transform="translate(218.87803)" />
  <use
     x="0"
     y="0"
     xlink:href="#path19"
     id="use20"
     transform="translate(218.87803)" />
  <use
     x="0"
     y="0"
     xlink:href="#path18"
     id="use21"
     transform="translate(437.75596)" />
  <use
     x="0"
     y="0"
     xlink:href="#path19"
     id="use22"
     transform="translate(437.75596)" />
</svg>
