<?xml version="1.0" encoding="UTF-8" standalone="no"?>
<svg
   width="850"
   height="1000"
   version="1.1"
   id="svg1"
   sodipodi:docname="T116A.svg"
   inkscape:version="1.4.2 (f4327f4, 2025-05-13)"
   xmlns:inkscape="http://www.inkscape.org/namespaces/inkscape"
   xmlns:sodipodi="http://sodipodi.sourceforge.net/DTD/sodipodi-0.dtd"
   xmlns="http://www.w3.org/2000/svg"
   xmlns:svg="http://www.w3.org/2000/svg">
  <defs
     id="defs1" />
  <sodipodi:namedview
     id="namedview1"
     pagecolor="#ffffff"
     bordercolor="#666666"
     borderopacity="1.0"
     inkscape:showpageshadow="2"
     inkscape:pageopacity="0.0"
     inkscape:pagecheckerboard="0"
     inkscape:deskcolor="#d1d1d1"
     showguides="true"
     inkscape:zoom="0.755"
     inkscape:cx="121.19205"
     inkscape:cy="647.01987"
     inkscape:window-width="1680"
     inkscape:window-height="998"
     inkscape:window-x="-8"
     inkscape:window-y="-8"
     inkscape:window-maximized="1"
     inkscape:current-layer="svg1">
    <sodipodi:guide
       position="106.78532,390.98998"
       orientation="0,-1"
       id="guide1"
       inkscape:locked="false" />
    <sodipodi:guide
       position="106.78532,393.98998"
       orientation="0,1"
       id="guide2"
       inkscape:label=""
       inkscape:locked="false"
       inkscape:color="rgb(0,134,229)" />
    <sodipodi:guide
       position="122.91435,390.98998"
       orientation="-0.90523015,0.42492161"
       id="guide3"
       inkscape:locked="false" />
    <sodipodi:guide
       position="41.991101,973.58176"
       orientation="0.90429957,0.42689845"
       id="guide4"
       inkscape:locked="false" />
  </sodipodi:namedview>
  <path
     id="path1"
     style="fill:#000000;stroke:none;stroke-width:1"
     d="M 567.85352 0 C 538.56172 0 518.16808 12.421254 506.67383 37.263672 C 495.17958 62.106089 494.80981 86.948598 505.5625 111.79102 C 508.52876 121.43136 511.49468 128.10467 514.46094 131.8125 C 517.42719 135.14954 520.94873 135.70711 525.02734 133.48242 C 529.10595 131.25773 531.33039 127.54837 531.70117 122.35742 C 532.07196 117.16647 528.92018 111.04878 522.24609 104.00391 C 517.05514 92.138871 518.16833 76.196075 525.58398 56.173828 C 532.99963 36.151581 550.61125 26.326484 578.41992 26.697266 C 606.2286 26.697266 619.94892 49.870955 619.57812 96.21875 C 619.20734 142.56654 618.83562 189.84126 618.46484 238.04297 L 618.46484 382.64648 C 595.47633 364.84893 570.07821 357.98975 542.26953 362.06836 C 514.46086 366.14697 494.43894 377.08526 482.20312 394.88281 C 469.59653 413.05114 463.29297 431.5901 463.29297 450.5 C 494.80947 413.05098 522.80376 393.21492 547.27539 390.99023 C 571.74703 389.13632 589.72841 394.32668 601.22266 406.5625 C 612.71691 419.1691 618.46484 427.51123 618.46484 431.58984 L 618.46484 450.5 C 610.67841 439.74731 599.18449 432.14666 583.98242 427.69727 C 569.15113 423.24788 551.90928 423.43374 532.25781 428.25391 C 512.60634 433.07408 495.92208 443.45479 482.20312 459.39844 C 468.85496 475.71286 462.17969 491.65761 462.17969 507.23047 C 495.5501 479.05101 520.57846 463.10626 537.26367 459.39844 C 553.5781 455.31983 566.55497 455.31983 576.19531 459.39844 C 585.83565 463.10626 594.73537 469.96739 602.89258 479.97852 C 611.42057 489.61886 615.68359 501.6684 615.68359 516.12891 L 615.68359 608.45312 L 354.83789 608.45312 L 354.83789 225.80664 C 354.83789 206.85798 349.55114 189.12902 338.97461 172.62109 L 349.27734 150.72266 L 393.21484 141.82422 L 394.88281 127.36328 L 357.61914 135.15039 L 363.73828 120.68945 L 406.5625 111.79102 L 408.78711 97.886719 L 370.9668 105.67383 L 378.19727 90.65625 L 421.02344 82.314453 L 422.69141 67.853516 L 385.42773 76.195312 L 391.54688 61.734375 L 435.48438 51.724609 L 436.5957 38.375 L 398.77734 46.71875 L 406.00586 32.257812 L 385.98438 22.246094 L 378.75391 37.820312 L 360.95703 1.6679688 L 350.94531 12.791016 L 372.08008 51.724609 L 364.84961 66.185547 L 346.49609 32.257812 L 337.59766 42.269531 L 357.61914 81.757812 L 350.94531 95.662109 L 333.14844 61.734375 L 323.69336 72.302734 L 344.27148 111.79102 L 337.04102 126.25195 L 318.6875 91.212891 L 309.23242 102.33594 L 329.81055 141.82422 L 324.09766 153.87891 C 304.11726 134.34765 269.31551 124.58203 219.68945 124.58203 C 169.07286 124.58203 134.1918 134.59758 115.04688 154.625 L 108.45312 140.71094 L 129.0332 101.22266 L 119.02148 91.212891 L 101.22266 125.69531 L 93.994141 111.23438 L 114.57227 71.746094 L 104.56055 61.734375 L 86.763672 95.662109 L 79.533203 80.644531 L 100.11133 41.15625 L 91.212891 31.146484 L 72.302734 66.185547 L 66.185547 51.724609 L 86.207031 11.679688 L 76.195312 1.6679688 L 58.955078 36.707031 L 51.724609 21.691406 L 32.257812 31.146484 L 39.488281 45.605469 L 1.1132812 37.820312 L 2.78125 51.167969 L 46.71875 61.179688 L 52.835938 76.195312 L 15.017578 67.296875 L 17.242188 81.757812 L 60.066406 89.542969 L 66.185547 105.67383 L 29.476562 96.773438 L 31.146484 111.23438 L 74.527344 120.68945 L 80.644531 135.15039 L 42.826172 127.36328 L 45.050781 140.71094 L 87.875 149.61133 L 99.701172 174.63281 C 89.963466 190.56738 85.09375 207.62491 85.09375 225.80664 L 85.09375 608.45312 L 1.1132812 609.00977 L 1.1132812 634.59375 L 313.68164 634.59375 C 338.52406 675.75059 368.92864 705.78346 404.89453 724.69336 L 404.89453 759.73242 L 0 759.73242 L 0 785.87305 L 60.066406 785.87305 L 60.066406 865.40625 L 0 865.40625 L 0 892.10156 L 60.066406 892.10156 L 60.066406 972.74805 L 0 972.74805 L 0 1000 L 837.59766 1000 L 837.59766 972.74805 L 778.64258 972.74805 L 778.64258 892.10156 L 837.59766 892.10156 L 837.59766 865.40625 L 778.64258 865.40625 L 778.64258 785.87305 L 837.59766 785.87305 L 837.59766 759.73242 L 432.70312 759.73242 L 432.70312 737.48633 C 457.17475 747.12667 484.42757 741.19482 514.46094 719.68945 C 549.68526 694.47625 552.83704 666.11025 523.91602 634.59375 L 837.04102 634.59375 L 837.04102 609.00977 L 651.2793 608.45312 L 651.2793 516.12891 C 651.2793 501.6684 655.17255 489.61886 662.95898 479.97852 C 670.74541 469.96739 679.45927 463.10626 689.09961 459.39844 C 698.73996 455.31983 711.53097 455.31983 727.47461 459.39844 C 743.78903 463.10626 768.8174 479.05101 802.55859 507.23047 C 802.55859 491.65761 795.88527 475.71286 782.53711 459.39844 C 769.18894 443.45479 752.50272 433.07408 732.48047 428.25391 C 712.45822 423.43374 695.21637 423.24788 680.75586 427.69727 C 666.66613 432.14666 655.9137 439.74731 648.49805 450.5 L 648.49805 431.58984 C 648.49805 427.51123 654.24598 419.1691 665.74023 406.5625 C 677.23448 394.32668 695.21781 389.13632 719.68945 390.99023 C 744.16108 393.21492 772.15342 413.05098 803.66992 450.5 C 803.66992 431.5901 797.36832 413.05114 784.76172 394.88281 C 772.15512 377.08526 751.94734 366.14697 724.13867 362.06836 C 695.95921 357.98975 670.74499 364.84893 648.49805 382.64648 L 648.49805 383.20312 C 648.12726 334.25985 647.7575 285.68804 647.38672 237.48633 C 647.01594 188.91384 646.83008 144.04942 646.83008 102.89258 C 646.83008 61.735739 641.08214 34.297072 629.58789 20.578125 C 617.72285 6.8591777 597.14533 0 567.85352 0 z M 219.68945 146.27344 C 265.66646 146.27344 295.88519 154.80143 310.3457 171.85742 C 311.48061 173.19094 312.57107 174.56792 313.61914 175.98828 L 219.39453 374.80469 L 125.2168 176.08203 C 126.25919 174.62854 127.34574 173.22021 128.47656 171.85742 C 143.30785 154.80143 173.71244 146.27344 219.68945 146.27344 z M 325.98047 200.23828 C 330.38862 213.41653 332.5918 228.79837 332.5918 246.38477 L 332.5918 609.00977 L 106.78516 609.00977 L 106.78516 246.38477 C 106.78516 229.59853 108.74246 214.82087 112.6582 202.05078 L 206.83203 401.3125 L 139.33984 543.71875 L 128.77148 497 L 124.32227 494.21875 L 124.32227 606.00977 L 208.30469 535.37695 L 202.74219 532.03906 L 159.91797 553.17383 L 219.12891 427.33203 L 278.33984 552.61719 L 234.95703 532.03906 L 228.83984 534.82031 L 315.60352 606.00977 L 315.60352 493.10742 L 309.48438 495.88672 L 298.91797 542.60547 L 231.66211 400.69141 L 325.98047 200.23828 z M 354.83789 634.59375 L 404.89453 634.59375 L 404.89453 689.09961 C 387.46776 680.20084 370.78153 662.03164 354.83789 634.59375 z M 432.70312 634.59375 L 469.41016 634.59375 C 517.98265 668.33494 535.41036 692.8077 521.69141 708.00977 C 507.60168 722.84106 477.93858 722.09958 432.70312 705.78516 L 432.70312 634.59375 z M 86.763672 785.87305 L 146.83008 785.87305 L 146.83008 865.40625 L 86.763672 865.40625 L 86.763672 785.87305 z M 172.9707 785.87305 L 233.03711 785.87305 L 233.03711 865.40625 L 172.9707 865.40625 L 172.9707 785.87305 z M 259.73242 785.87305 L 319.79883 785.87305 L 319.79883 865.40625 L 259.73242 865.40625 L 259.73242 785.87305 z M 345.93945 785.87305 L 406.00586 785.87305 L 406.00586 865.40625 L 345.93945 865.40625 L 345.93945 785.87305 z M 432.70312 785.87305 L 492.76953 785.87305 L 492.76953 865.40625 L 432.70312 865.40625 L 432.70312 785.87305 z M 519.4668 785.87305 L 579.5332 785.87305 L 579.5332 865.40625 L 519.4668 865.40625 L 519.4668 785.87305 z M 605.67383 785.87305 L 665.74023 785.87305 L 665.74023 865.40625 L 605.67383 865.40625 L 605.67383 785.87305 z M 692.43555 785.87305 L 751.94727 785.87305 L 751.94727 865.40625 L 692.43555 865.40625 L 692.43555 785.87305 z M 86.763672 892.10156 L 146.83008 892.10156 L 146.83008 972.74805 L 86.763672 972.74805 L 86.763672 892.10156 z M 172.9707 892.10156 L 233.03711 892.10156 L 233.03711 972.74805 L 172.9707 972.74805 L 172.9707 892.10156 z M 259.73242 892.10156 L 319.79883 892.10156 L 319.79883 972.74805 L 259.73242 972.74805 L 259.73242 892.10156 z M 345.93945 892.10156 L 406.00586 892.10156 L 406.00586 972.74805 L 345.93945 972.74805 L 345.93945 892.10156 z M 432.70312 892.10156 L 492.76953 892.10156 L 492.76953 972.74805 L 432.70312 972.74805 L 432.70312 892.10156 z M 519.4668 892.10156 L 579.5332 892.10156 L 579.5332 972.74805 L 519.4668 972.74805 L 519.4668 892.10156 z M 605.67383 892.10156 L 665.74023 892.10156 L 665.74023 972.74805 L 605.67383 972.74805 L 605.67383 892.10156 z M 692.43555 892.10156 L 751.94727 892.10156 L 751.94727 972.74805 L 692.43555 972.74805 L 692.43555 892.10156 z " />
</svg>
