<?xml version="1.0" encoding="UTF-8" standalone="no"?>
<svg
   width="850"
   height="1000"
   version="1.1"
   id="svg1"
   sodipodi:docname="T116.svg"
   inkscape:version="1.4.2 (f4327f4, 2025-05-13)"
   xmlns:inkscape="http://www.inkscape.org/namespaces/inkscape"
   xmlns:sodipodi="http://sodipodi.sourceforge.net/DTD/sodipodi-0.dtd"
   xmlns="http://www.w3.org/2000/svg"
   xmlns:svg="http://www.w3.org/2000/svg">
  <defs
     id="defs1" />
  <sodipodi:namedview
     id="namedview1"
     pagecolor="#ffffff"
     bordercolor="#666666"
     borderopacity="1.0"
     inkscape:showpageshadow="2"
     inkscape:pageopacity="0.0"
     inkscape:pagecheckerboard="0"
     inkscape:deskcolor="#d1d1d1"
     inkscape:zoom="1.0677312"
     inkscape:cx="112.85612"
     inkscape:cy="332.94895"
     inkscape:window-width="1680"
     inkscape:window-height="998"
     inkscape:window-x="-8"
     inkscape:window-y="-8"
     inkscape:window-maximized="1"
     inkscape:current-layer="svg1"
     showguides="true">
    <sodipodi:guide
       position="42.547275,973.85984"
       orientation="0.90488724,0.42565136"
       id="guide1"
       inkscape:locked="false" />
    <sodipodi:guide
       position="396.55172,972.19132"
       orientation="0.9049169,-0.42558831"
       id="guide2"
       inkscape:locked="false" />
    <sodipodi:guide
       position="106.22914,394.54616"
       orientation="0,1"
       id="guide3"
       inkscape:locked="false"
       inkscape:label=""
       inkscape:color="rgb(0,134,229)" />
    <sodipodi:guide
       position="106.22914,391.54616"
       orientation="0,-1"
       id="guide4"
       inkscape:locked="false" />
  </sodipodi:namedview>
  <path
     id="path1"
     style="fill:#000000;stroke:none;stroke-width:1"
     d="M 560.06641 0 C 530.58922 0 508.89839 11.679222 497.21875 36.707031 C 486.09528 61.178666 486.65145 86.206562 497.21875 111.23438 C 500.55579 120.68932 502.78015 128.47593 506.11719 132.36914 C 507.78571 134.03766 510.01117 135.15039 511.67969 135.15039 C 513.34821 135.15039 515.01703 134.59328 516.68555 134.03711 C 520.57876 131.81242 522.80321 126.80829 523.35938 121.80273 C 523.91556 116.79717 519.46511 111.23464 512.79102 104.56055 C 507.78546 92.324733 508.89912 75.639434 516.68555 55.617188 C 523.91581 36.151114 541.71234 26.140625 568.96484 26.140625 L 570.63477 26.140625 C 598.44345 26.140625 610.67923 49.499706 610.12305 95.662109 C 610.12305 110.67879 610.67923 127.36418 610.12305 142.38086 C 549.50014 145.16173 482.20265 165.73879 404.89453 203.55859 C 482.20265 240.82222 550.05631 258.621 610.12305 260.8457 L 610.12305 382.64648 C 591.76933 368.18597 571.19031 360.40039 548.94336 360.40039 C 543.9378 360.40039 538.93134 360.9575 533.92578 361.51367 C 506.1171 365.96306 484.98387 377.08525 472.74805 394.88281 C 460.51223 412.68036 453.83789 431.5901 453.83789 450.5 C 485.53978 412.6802 514.46001 393.21493 538.93164 390.99023 L 548.38672 390.99023 C 567.85279 390.99023 582.86974 395.99567 592.88086 407.11914 C 604.56051 419.35496 610.12305 427.14194 610.12305 431.03516 L 610.12305 450.5 C 602.33662 439.37653 590.65536 432.14666 575.63867 427.69727 C 567.85224 425.47258 559.51011 424.36133 550.61133 424.36133 C 542.26873 424.36133 532.81433 425.47258 523.35938 427.69727 C 503.8933 432.70284 486.65239 443.27089 472.74805 458.84375 C 459.39989 475.52896 453.83789 492.21425 453.83789 507.78711 C 487.2083 479.42226 511.68003 462.73697 528.36523 458.84375 C 536.70784 457.17523 543.93678 456.0625 550.05469 456.0625 C 556.72877 456.0625 562.29084 457.17523 566.74023 458.84375 C 576.75135 462.73697 586.7624 469.96739 594.54883 479.97852 C 603.44761 489.43347 606.78516 502.22504 606.78516 516.68555 L 606.78516 608.45312 L 354.83789 608.45312 L 354.83789 225.80664 C 354.83789 206.89674 349.83292 189.09927 339.26562 172.41406 L 349.27734 151.2793 L 393.21484 142.38086 L 394.88281 126.80664 L 358.17578 135.70703 L 363.18164 120.13281 L 407.11914 111.23438 L 408.78711 97.330078 L 370.41211 106.22852 L 379.31055 90.65625 L 421.02344 81.757812 L 422.69141 67.853516 L 385.98438 76.751953 L 390.99023 62.847656 L 436.5957 52.28125 L 436.5957 38.375 L 398.2207 46.71875 L 407.11914 32.814453 L 385.98438 22.802734 L 379.31055 38.375 L 361.51367 1.6679688 L 351.50195 12.236328 L 372.08008 52.28125 L 365.40625 66.185547 L 345.93945 32.814453 L 337.59766 41.712891 L 358.17578 81.757812 L 351.50195 95.662109 L 333.70508 62.847656 L 323.69336 72.859375 L 344.27148 111.23438 L 337.59766 126.80664 L 318.13086 90.65625 L 309.78906 102.33594 L 330.36719 142.38086 L 325.36133 154.61719 C 305.33908 135.15112 269.18843 125.13867 219.13281 125.13867 C 167.40867 125.13867 133.48217 135.70674 114.57227 156.28516 L 107.89844 140.71094 L 128.47656 100.66797 L 118.46484 90.65625 L 100.66797 125.13867 L 93.994141 111.23438 L 114.57227 71.189453 L 104.56055 62.847656 L 86.763672 95.662109 L 80.089844 80.089844 L 100.66797 41.712891 L 90.65625 31.146484 L 72.859375 66.185547 L 66.185547 52.28125 L 86.763672 12.236328 L 76.751953 1.6679688 L 58.955078 36.707031 L 52.28125 21.134766 L 32.814453 31.146484 L 40.044922 45.050781 L 1.6679688 38.375 L 3.3378906 50.611328 L 46.71875 60.623047 L 52.28125 76.751953 L 15.572266 67.853516 L 17.242188 81.757812 L 60.623047 90.65625 L 66.185547 106.22852 L 29.476562 97.330078 L 31.146484 111.23438 L 74.527344 120.13281 L 80.089844 135.70703 L 43.380859 126.80664 L 45.050781 140.71094 L 88.431641 149.61133 L 100.66797 174.08203 C 90.656844 190.21107 85.09375 207.45292 85.09375 225.80664 L 85.09375 608.45312 L 1.6679688 608.45312 L 1.6679688 634.59375 L 313.125 634.59375 C 337.59663 675.75059 369.29942 706.3401 404.89453 725.25 L 404.89453 759.73242 L 0 759.73242 L 0 785.87305 L 60.623047 785.87305 L 60.623047 865.96289 L 0 865.96289 L 0 892.10156 L 60.623047 892.10156 L 60.623047 973.85938 L 0 973.85938 L 0 1000 L 838.1543 1000 L 838.1543 973.85938 L 779.19922 973.85938 L 779.19922 892.10156 L 838.1543 892.10156 L 838.1543 865.96289 L 779.19922 865.96289 L 779.19922 785.87305 L 838.1543 785.87305 L 838.1543 759.73242 L 433.25977 759.73242 L 433.25977 737.48633 C 440.49003 740.2672 448.83123 741.93555 457.17383 741.93555 C 474.97138 741.93555 493.88251 734.70613 514.46094 719.68945 C 550.05604 694.66164 552.2804 666.29564 523.35938 634.59375 L 838.1543 634.59375 L 838.1543 608.45312 L 643.49219 608.45312 L 643.49219 516.68555 C 643.49219 502.22504 646.27412 489.43347 654.06055 479.97852 C 661.84698 469.96739 670.18958 462.73697 679.64453 458.84375 C 684.6501 457.17523 690.21069 456.0625 696.88477 456.0625 C 703.00268 456.0625 710.2331 457.17523 718.01953 458.84375 C 734.70473 462.73697 760.8449 479.42226 794.77148 507.78711 C 794.77148 492.21425 786.98488 475.52896 773.63672 458.84375 C 760.28856 443.27089 743.60428 432.70284 723.58203 427.69727 C 713.57091 425.47258 704.67268 424.36133 696.33008 424.36133 C 687.98748 424.36133 680.20096 425.47258 672.9707 427.69727 C 659.06636 432.14666 647.38651 439.37653 640.15625 450.5 L 640.15625 431.03516 C 640.15625 427.14194 645.71684 419.35496 657.39648 407.11914 C 667.40761 395.99567 682.42456 390.99023 701.89062 390.99023 L 711.3457 390.99023 C 735.81734 393.21493 763.06959 412.6802 794.77148 450.5 C 794.77148 431.5901 788.09863 412.68036 775.30664 394.88281 C 763.07082 377.08525 744.16023 365.96306 716.35156 361.51367 C 711.34599 360.9575 706.33954 360.40039 701.33398 360.40039 C 679.08704 360.40039 657.95381 368.18597 640.15625 382.64648 C 639.60008 341.48964 638.48781 301.44636 637.93164 260.8457 C 697.99838 258.06483 765.85063 240.26604 841.49023 203.55859 C 765.85063 166.29497 698.55455 147.38634 637.93164 144.60547 L 637.93164 102.33594 C 637.93164 61.179096 632.36909 34.482931 620.68945 21.134766 C 609.00981 7.2304275 588.98744 0 560.06641 0 z M 219.13281 146.27344 C 265.29521 146.27344 296.99652 155.17268 311.45703 172.41406 C 312.56937 174.08258 313.68257 175.7514 314.79492 177.41992 L 219.13281 375.41797 L 125.13867 177.41992 C 126.25102 175.7514 127.36421 173.52641 128.47656 172.41406 C 143.49324 155.17268 172.97041 146.27344 219.13281 146.27344 z M 610.12305 166.85156 C 610.12305 190.76702 610.67923 214.12751 610.12305 238.04297 L 610.12305 239.71094 C 562.8483 238.04242 512.23641 225.80553 458.84375 203.55859 C 512.23641 180.75548 562.8483 168.52008 610.12305 166.85156 z M 637.93164 166.85156 C 685.20639 169.07625 734.14891 181.31165 785.87305 203.55859 C 734.14891 225.24936 685.20639 238.04242 637.93164 239.71094 L 637.93164 238.04297 C 637.93164 212.45899 638.48781 190.21085 637.93164 166.85156 z M 325.36133 201.89062 C 329.25454 214.68261 332.03516 229.70003 332.03516 246.94141 L 332.03516 608.45312 L 106.22852 608.45312 L 106.22852 246.94141 C 106.22852 230.81237 109.5653 215.79441 112.90234 203.55859 L 206.89648 401.55664 L 138.78516 544.83008 L 128.21875 497.55664 L 124.88086 494.21875 L 124.88086 605.45312 L 208.30664 535.93164 L 203.30273 532.5957 L 159.91992 553.17383 L 219.13281 427.69727 L 278.34375 553.17383 L 234.96289 532.5957 L 228.28906 534.26367 L 315.05078 605.45312 L 315.05078 492.55078 L 310.04688 495.88672 L 299.47852 543.16211 L 231.36914 401.55664 L 325.36133 201.89062 z M 354.83789 634.59375 L 404.89453 634.59375 L 404.89453 688.54297 C 387.65315 679.64419 370.41075 662.40242 354.83789 634.59375 z M 433.25977 634.59375 L 469.41016 634.59375 C 518.35343 668.52033 535.59575 692.43691 521.69141 708.00977 C 515.01733 714.68386 504.44926 718.57617 490.54492 718.57617 C 475.52824 718.57617 456.06288 714.68394 433.25977 705.78516 L 433.25977 634.59375 z M 86.763672 785.87305 L 146.27344 785.87305 L 146.27344 865.96289 L 86.763672 865.96289 L 86.763672 785.87305 z M 174.08203 785.87305 L 233.03711 785.87305 L 233.03711 865.96289 L 174.08203 865.96289 L 174.08203 785.87305 z M 259.17773 785.87305 L 319.79883 785.87305 L 319.79883 865.96289 L 259.17773 865.96289 L 259.17773 785.87305 z M 345.93945 785.87305 L 407.11914 785.87305 L 407.11914 865.96289 L 345.93945 865.96289 L 345.93945 785.87305 z M 433.25977 785.87305 L 493.88281 785.87305 L 493.88281 865.96289 L 433.25977 865.96289 L 433.25977 785.87305 z M 520.02148 785.87305 L 578.97656 785.87305 L 578.97656 865.96289 L 520.02148 865.96289 L 520.02148 785.87305 z M 605.11719 785.87305 L 665.74023 785.87305 L 665.74023 865.96289 L 605.11719 865.96289 L 605.11719 785.87305 z M 691.87891 785.87305 L 753.05859 785.87305 L 753.05859 865.96289 L 691.87891 865.96289 L 691.87891 785.87305 z M 86.763672 892.10156 L 146.27344 892.10156 L 146.27344 973.85938 L 86.763672 973.85938 L 86.763672 892.10156 z M 174.08203 892.10156 L 233.03711 892.10156 L 233.03711 973.85938 L 174.08203 973.85938 L 174.08203 892.10156 z M 259.17773 892.10156 L 319.79883 892.10156 L 319.79883 973.85938 L 259.17773 973.85938 L 259.17773 892.10156 z M 345.93945 892.10156 L 407.11914 892.10156 L 407.11914 973.85938 L 345.93945 973.85938 L 345.93945 892.10156 z M 433.25977 892.10156 L 493.88281 892.10156 L 493.88281 973.85938 L 433.25977 973.85938 L 433.25977 892.10156 z M 520.02148 892.10156 L 578.97656 892.10156 L 578.97656 973.85938 L 520.02148 973.85938 L 520.02148 892.10156 z M 605.11719 892.10156 L 665.74023 892.10156 L 665.74023 973.85938 L 605.11719 973.85938 L 605.11719 892.10156 z M 691.87891 892.10156 L 753.05859 892.10156 L 753.05859 973.85938 L 691.87891 973.85938 L 691.87891 892.10156 z " />
</svg>
