<?xml version="1.0" encoding="UTF-8" standalone="no"?>
<svg
   width="600"
   height="1047.3785"
   version="1.1"
   id="svg1"
   sodipodi:docname="T25C.svg"
   inkscape:version="1.4.2 (f4327f4, 2025-05-13)"
   xmlns:inkscape="http://www.inkscape.org/namespaces/inkscape"
   xmlns:sodipodi="http://sodipodi.sourceforge.net/DTD/sodipodi-0.dtd"
   xmlns="http://www.w3.org/2000/svg"
   xmlns:svg="http://www.w3.org/2000/svg">
  <defs
     id="defs1" />
  <sodipodi:namedview
     id="namedview1"
     pagecolor="#ffffff"
     bordercolor="#666666"
     borderopacity="1.0"
     inkscape:showpageshadow="2"
     inkscape:pageopacity="0.0"
     inkscape:pagecheckerboard="0"
     inkscape:deskcolor="#d1d1d1"
     showguides="true"
     inkscape:zoom="0.36042365"
     inkscape:cx="-475.82893"
     inkscape:cy="864.2607"
     inkscape:window-width="1680"
     inkscape:window-height="998"
     inkscape:window-x="-8"
     inkscape:window-y="-8"
     inkscape:window-maximized="1"
     inkscape:current-layer="svg1">
    <sodipodi:guide
       position="251.85593,820.10672"
       orientation="0,1"
       id="guide1"
       inkscape:locked="false"
       inkscape:label=""
       inkscape:color="rgb(0,134,229)" />
  </sodipodi:namedview>
  <path
     id="path1"
     style="fill:#000000;stroke:none;stroke-width:1"
     d="m 185.82617,0 c 20.58252,76.504847 44.07661,132.03845 70.48438,166.60156 h -24.4668 c -20.97087,0 -31.45508,9.70949 -31.45508,29.12696 0,17.60122 5.64865,27.06206 16.94531,28.38281 -26.4247,37.66179 -51.686,86.45392 -75.78125,146.375 C 112.03817,443.88438 91.650807,516.11564 80.388672,587.18359 69.126537,658.25155 69.320218,737.2812 80.970703,824.27148 H 61.166016 c -23.300969,0 -34.953125,10.48617 -34.953125,31.45704 0,19.80582 11.652156,29.70898 34.953125,29.70898 h 4.660156 C 42.525203,916.89381 20.582523,970.8741 0,1047.3789 H 228.93164 C 208.34911,970.8741 186.40839,916.89381 163.10742,885.4375 h 272.6211 c -22.52427,31.45631 -44.07764,85.4366 -64.66016,161.9414 H 600 C 579.41747,970.8741 557.4748,916.89381 534.17383,885.4375 h 6.4082 c 21.35922,0 32.03906,-10.48616 32.03906,-31.45703 0,-19.80583 -10.67984,-29.70899 -32.03906,-29.70899 H 519.0293 c 11.65049,-87.76698 11.84417,-167.184 0.58203,-238.25195 C 508.73755,514.95157 488.54386,442.71836 459.0293,369.32031 434.9829,309.52073 409.90551,261.06413 383.79688,223.94922 c 10.54338,-1.80939 15.81445,-11.21644 15.81445,-28.2207 0,-19.41747 -9.90317,-29.12696 -29.70899,-29.12696 H 343.68945 C 370.09722,132.03845 393.78694,76.504847 414.75781,0 Z m 53.00781,36.117188 H 361.16406 C 351.06697,86.60262 332.81597,128.54336 306.4082,161.94141 H 293.5918 C 267.18403,128.54336 248.93107,86.60262 238.83398,36.117188 Z m -3.49414,150.873042 h 130.48633 c 5.82524,0 8.73633,2.33004 8.73633,6.99024 0,4.27184 -2.91109,6.4082 -8.73633,6.4082 H 235.33984 c -7.37864,0 -11.06836,-2.13636 -11.06836,-6.4082 0,-4.6602 3.68972,-6.99024 11.06836,-6.99024 z m 24.9668,37.28125 h 80.89258 c 30.1214,35.48734 58.5253,85.58309 85.20898,150.29102 31.06796,75.72815 51.45534,146.21432 61.16407,211.45703 9.32039,65.24271 9.12669,144.65972 -0.58204,238.25195 h -8.73828 C 446.79564,778.83459 416.6988,716.50454 387.96094,637.28125 359.22308,558.4463 335.33968,457.6696 316.31055,334.95117 L 300.44141,227.27148 h -0.88282 l -15.86914,107.67969 c -19.02913,123.88348 -42.52515,225.43687 -70.48633,304.66016 -28.3495,79.22329 -58.25072,140.77666 -89.70703,184.66015 h -11.65234 c -8.93204,-92.81553 -8.7364,-171.84518 0.58398,-237.08789 9.70874,-65.24271 30.28979,-135.53325 61.7461,-210.87304 27.66356,-65.7853 56.41779,-115.85346 86.13281,-152.03907 z M 300,432.23242 c 11.65049,67.96116 32.03785,143.49477 61.16406,226.60156 29.12621,83.10679 56.50565,138.25304 82.13672,165.4375 H 157.86328 C 183.8827,795.92197 211.84514,739.22236 241.74805,654.17383 271.65096,569.12529 291.06797,495.14503 300,432.23242 Z M 61.166016,844.07812 H 540.58203 c 8.93203,0 13.39844,3.88341 13.39844,11.6504 0,6.60194 -4.46641,9.90234 -13.39844,9.90234 H 61.166016 c -10.097087,0 -15.146485,-3.3004 -15.146485,-9.90234 0,-7.76699 5.049398,-11.6504 15.146485,-11.6504 z m 47.183594,41.35938 h 12.23242 c 26.79611,33.00971 45.04907,75.33974 54.75781,126.9902 H 53.591797 C 63.688884,960.77724 81.941848,918.44721 108.34961,885.4375 Z m 371.06836,0 h 12.23242 c 26.79611,33.00971 45.04907,74.95047 54.75781,125.8242 H 424.66016 c 10.09709,-50.87373 28.35005,-92.81449 54.75781,-125.8242 z"
     sodipodi:nodetypes="ccsscsscsssccccccccsssccscssccccccccsssssssccccccccccccccccccsccscssssssscccccccccc" />
</svg>
