<?xml version="1.0" encoding="UTF-8" standalone="no"?>
<svg
   width="1100"
   height="891.64764"
   version="1.1"
   id="svg1"
   sodipodi:docname="U16A.svg"
   inkscape:version="1.4.2 (f4327f4, 2025-05-13)"
   xmlns:inkscape="http://www.inkscape.org/namespaces/inkscape"
   xmlns:sodipodi="http://sodipodi.sourceforge.net/DTD/sodipodi-0.dtd"
   xmlns="http://www.w3.org/2000/svg"
   xmlns:svg="http://www.w3.org/2000/svg">
  <defs
     id="defs1" />
  <sodipodi:namedview
     id="namedview1"
     pagecolor="#ffffff"
     bordercolor="#666666"
     borderopacity="1.0"
     inkscape:showpageshadow="2"
     inkscape:pageopacity="0.0"
     inkscape:pagecheckerboard="0"
     inkscape:deskcolor="#d1d1d1"
     inkscape:zoom="0.59874057"
     inkscape:cx="650.53216"
     inkscape:cy="403.34664"
     inkscape:window-width="1680"
     inkscape:window-height="998"
     inkscape:window-x="-8"
     inkscape:window-y="-8"
     inkscape:window-maximized="1"
     inkscape:current-layer="svg1" />
  <path
     id="path1"
     style="fill:#000000;stroke:none;stroke-width:1"
     d="M 178.59375 0 C 170.89559 0 167.04687 4.8522191 167.04688 14.558594 L 167.04688 98.402344 C 146.63001 98.402344 131.5677 104.92902 121.86133 117.98242 C 108.47323 131.70523 92.240155 142.08062 73.162109 149.10938 C 54.418767 156.47283 35.674985 161.327 16.931641 163.66992 C -1.8117025 166.01283 -4.991417 175.05023 7.3925781 190.78125 C 8.7313886 199.14882 13.418311 206.00999 21.451172 211.36523 C 21.451172 234.45971 43.541918 242.65889 87.722656 235.96484 C 131.9034 229.27079 169.05449 234.45947 199.17773 251.5293 C 200.0805 458.93886 235.52939 596.4197 305.52344 663.97266 C 267.42748 715.20405 248.37891 765.49165 248.37891 814.83398 C 248.37891 866.04347 273.31487 891.64844 323.18555 891.64844 C 373.05623 891.64844 397.99023 857.17333 397.99023 788.22461 C 397.99023 764.14381 401.67039 738.6676 409.0293 711.79688 C 416.21072 712.54302 423.57692 712.91602 431.12695 712.91602 L 1099.8633 712.91602 L 1099.8633 673.25391 L 1011.5 673.25391 L 1011.5 545.73242 L 1099.8633 545.73242 L 1099.8633 506.07031 L 512.96094 506.07031 C 370.04294 506.07031 286.53608 421.2235 262.4375 251.5293 C 276.1603 250.19049 290.71891 243.49657 306.11523 231.44727 C 321.51154 219.39798 329.20898 201.49044 329.20898 177.72656 C 329.20898 153.62798 324.69127 135.55515 315.6543 123.50586 C 306.28262 111.79127 297.07799 105.93359 288.04102 105.93359 C 288.04102 94.888412 274.1514 64.429274 246.37109 14.558594 C 240.68114 4.8522191 232.48001 0 221.76953 0 C 217.41839 0 215.24414 4.8522191 215.24414 14.558594 L 215.24414 52.212891 C 209.8889 39.828896 202.35677 27.277291 192.65039 14.558594 C 187.29515 4.8522191 182.61018 0 178.59375 0 z M 233.82031 43.175781 L 236.83203 43.175781 C 260.26122 85.683009 270.80386 115.3059 268.46094 132.04102 C 265.78332 148.77615 261.43284 160.15505 255.4082 166.17969 L 264.44531 173.20898 C 277.49871 161.82909 285.02889 148.27399 287.03711 132.54297 C 290.04943 132.54297 293.56365 135.55543 297.58008 141.58008 C 301.59651 147.60472 303.60547 159.31812 303.60547 176.72266 C 303.60547 193.12308 292.55912 206.34369 270.46875 216.38477 C 248.04368 226.76055 223.10967 227.76601 195.66406 219.39844 C 167.88375 211.36558 136.42111 209.69112 101.27734 214.37695 C 65.798875 219.06279 47.222341 219.39729 45.548828 215.38086 C 43.875315 211.36443 50.569243 208.35197 65.630859 206.34375 C 80.692474 204.33554 91.571576 203.49928 98.265625 203.83398 C 105.29438 204.16869 108.4741 201.65797 107.80469 196.30273 C 107.13529 191.28219 102.11386 190.2787 92.742188 193.29102 C 83.705218 196.30335 66.134144 198.64679 40.027344 200.32031 C 30.990374 189.94452 29.984919 184.08686 37.013672 182.74805 C 64.459285 175.04989 84.039318 168.85771 95.753906 164.17188 C 107.80319 159.48604 118.84955 150.78314 128.89062 138.06445 C 138.59699 125.34575 168.88693 118.98633 219.76172 118.98633 C 225.78637 118.98633 228.79883 116.64481 228.79883 111.95898 L 228.79883 55.226562 C 243.86045 102.41963 250.38713 129.19534 248.37891 135.55469 C 246.3707 141.57934 242.52198 145.9298 236.83203 148.60742 L 244.36328 159.15039 C 252.39614 150.78282 256.41211 141.58014 256.41211 131.53906 C 256.41211 120.49387 248.88193 91.038246 233.82031 43.175781 z M 185.62305 55.226562 C 191.9824 75.308716 196.50011 89.700079 199.17773 98.402344 L 185.62305 98.402344 L 185.62305 55.226562 z M 154.03906 142.72461 C 144.30131 142.50496 139.43359 146.64169 139.43359 155.13477 C 139.43359 164.50644 145.79303 167.8534 158.51172 165.17578 C 171.23042 162.49816 180.93681 159.1512 187.63086 155.13477 C 180.93681 148.77542 171.23042 144.75945 158.51172 143.08594 C 156.92188 142.87675 155.43017 142.75599 154.03906 142.72461 z M 240.84766 355.95703 L 246.37109 355.95703 C 288.54361 476.44995 355.81937 539.03879 448.19727 543.72461 C 406.89693 562.90928 369.09525 591.21546 334.79492 628.64258 C 282.62341 579.06651 251.30767 488.17154 240.84766 355.95703 z M 489.36523 545.73242 L 559.15039 545.73242 L 559.15039 673.25391 L 451.20898 673.25391 C 441.30541 673.25391 431.74439 672.575 422.52734 671.21484 C 437.73613 632.06816 460.01601 590.24004 489.36523 545.73242 z M 599.31445 545.73242 L 683.1582 545.73242 L 683.1582 673.25391 L 599.31445 673.25391 L 599.31445 545.73242 z M 724.32617 545.73242 L 849.33789 545.73242 L 849.33789 673.25391 L 724.32617 673.25391 L 724.32617 545.73242 z M 890.50586 545.73242 L 970.83398 545.73242 L 970.83398 673.25391 L 890.50586 673.25391 L 890.50586 545.73242 z M 430.12305 586.90039 C 412.77765 613.23501 398.71185 638.37251 387.92773 662.3125 C 379.5746 659.14776 371.56827 655.29759 363.9082 650.75977 C 382.1059 629.86546 404.17803 608.57814 430.12305 586.90039 z M 335.66602 687.45117 C 347.07861 694.46441 359.20695 700.02844 372.05078 704.14453 C 364.91158 727.61665 361.3418 749.78577 361.3418 770.65234 C 361.3418 822.53122 349.62645 848.4707 326.19727 848.4707 C 302.43339 848.4707 290.55078 835.58458 290.55078 809.8125 C 290.55078 783.03631 301.09538 749.73389 322.18164 709.9043 C 326.14914 702.47311 330.64393 694.989 335.66602 687.45117 z " />
</svg>
