<?xml version="1.0" encoding="UTF-8" standalone="no"?>
<svg
   width="1100"
   height="377.94272"
   version="1.1"
   id="svg1"
   sodipodi:docname="W3A.svg"
   inkscape:version="1.4.2 (f4327f4, 2025-05-13)"
   xmlns:inkscape="http://www.inkscape.org/namespaces/inkscape"
   xmlns:sodipodi="http://sodipodi.sourceforge.net/DTD/sodipodi-0.dtd"
   xmlns="http://www.w3.org/2000/svg"
   xmlns:svg="http://www.w3.org/2000/svg">
  <defs
     id="defs1" />
  <sodipodi:namedview
     id="namedview1"
     pagecolor="#ffffff"
     bordercolor="#666666"
     borderopacity="1.0"
     inkscape:showpageshadow="2"
     inkscape:pageopacity="0.0"
     inkscape:pagecheckerboard="0"
     inkscape:deskcolor="#d1d1d1"
     inkscape:zoom="0.67560839"
     inkscape:cx="486.22842"
     inkscape:cy="70.307002"
     inkscape:window-width="1680"
     inkscape:window-height="998"
     inkscape:window-x="-8"
     inkscape:window-y="-8"
     inkscape:window-maximized="1"
     inkscape:current-layer="svg1"
     showguides="true">
    <sodipodi:guide
       position="549.41675,337.11557"
       orientation="1,0"
       id="guide1"
       inkscape:locked="false" />
    <sodipodi:guide
       position="549.41675,334.11557"
       orientation="0.82242616,-0.56887188"
       id="guide2"
       inkscape:locked="false"
       inkscape:label=""
       inkscape:color="rgb(0,134,229)" />
    <sodipodi:guide
       position="549.41675,334.11557"
       orientation="0.81938402,0.57324499"
       id="guide3"
       inkscape:locked="false"
       inkscape:label=""
       inkscape:color="rgb(0,134,229)" />
    <sodipodi:guide
       position="549.41675,46.743359"
       orientation="-0.81923191,-0.57346235"
       id="guide4"
       inkscape:locked="false"
       inkscape:label=""
       inkscape:color="rgb(0,134,229)" />
    <sodipodi:guide
       position="549.41675,46.743359"
       orientation="-0.81615277,0.57783618"
       id="guide5"
       inkscape:locked="false"
       inkscape:label=""
       inkscape:color="rgb(0,134,229)" />
    <sodipodi:guide
       position="549.41675,79.405079"
       orientation="-0.82280247,-0.56832746"
       id="guide6"
       inkscape:locked="false"
       inkscape:label=""
       inkscape:color="rgb(0,134,229)" />
    <sodipodi:guide
       position="549.41675,301.45385"
       orientation="0.82684843,-0.56242482"
       id="guide7"
       inkscape:locked="false"
       inkscape:label=""
       inkscape:color="rgb(0,134,229)" />
  </sodipodi:namedview>
  <path
     id="path1"
     style="fill:#000000;stroke:none;stroke-width:1"
     d="m 0,0 c 0,87.875573 43.355369,173.02899 130.06445,255.46094 87.09791,82.43195 226.87917,122.48242 419.35157,122.48242 192.4724,0 332.25365,-40.05047 419.35156,-122.48242 C 1055.4766,173.02899 1098.832,87.875573 1098.832,0 Z M 82.238281,40.826172 H 186.63867 L 117.23242,90.402344 151.64453,216.38477 C 92.153546,160.00442 59.490653,105.37306 53.658203,52.492188 Z m 137.062499,0 h 86.32031 L 209.38477,132.98047 277.625,291.62305 c -11.27607,-3.8883 -27.80169,-11.66518 -49.57617,-23.33008 -21.77448,-11.6649 -38.3001,-21.77387 -49.57617,-30.32813 L 139.97852,97.402344 Z m 114.89844,0 h 76.4043 l -107.89844,125.982418 88.06836,154.5586 c -7.7766,0 -20.80116,-2.13693 -39.07617,-6.41407 -18.27501,-4.27712 -34.60548,-9.13841 -48.99219,-14.58203 L 233.29883,137.0625 Z m 102.06836,0 h 66.49023 L 400.68945,188.38867 502.75781,334.19922 c -13.22022,0 -28.38562,-0.77671 -45.49414,-2.33203 -17.10852,-1.55532 -30.71659,-3.1107 -40.82617,-4.66602 L 327.20117,168.55859 Z m 91.56836,0 h 43.16015 L 675.39648,188.38867 573.91211,332.44922 c -3.8883,1.16649 -11.6647,1.75 -24.49609,1.75 -12.83139,0 -20.6078,-0.58351 -24.4961,-1.75 L 423.43555,188.38867 Z m 68.23828,0 h 66.49023 L 771.63086,168.55859 682.39453,327.20117 c -10.10958,1.55532 -23.71765,3.1107 -40.82617,4.66602 -17.10852,1.55532 -32.27392,2.33203 -45.49414,2.33203 L 698.14258,188.38867 Z m 92.1543,0 h 76.40429 L 865.5332,137.0625 796.12695,300.37109 c -14.38671,5.44362 -30.71717,10.30491 -48.99218,14.58203 -18.27501,4.27714 -31.29958,6.41407 -39.07618,6.41407 l 88.06836,-154.5586 z m 104.98242,0 h 86.32031 l 79.32227,56.576172 -38.49414,140.562496 c -11.27608,8.55426 -27.8017,18.66323 -49.57618,30.32813 -21.77448,11.6649 -38.3001,19.44178 -49.57617,23.33008 l 68.24024,-158.64258 z m 118.98242,0 h 104.40044 l 28.58,11.666016 c -5.8325,52.880872 -38.4953,107.512232 -97.9863,163.892582 L 981.59961,90.402344 Z m -362.77734,3.001953 -99.98047,144.542965 99.98047,142.82813 99.98046,-142.82813 z m 0,32.660156 76.09765,111.876949 -76.09765,110.17188 -76.09766,-110.17188 z"
     sodipodi:nodetypes="cczcccccccccccccscccccccscccccccscccccccscccccccscccccccscccccccsccccccccccccccccccc" />
</svg>
