<?xml version="1.0" encoding="UTF-8" standalone="no"?>
<svg
   width="1100.1113"
   height="1000"
   version="1.1"
   id="svg1"
   sodipodi:docname="W93.svg"
   inkscape:version="1.4.2 (f4327f4, 2025-05-13)"
   xmlns:inkscape="http://www.inkscape.org/namespaces/inkscape"
   xmlns:sodipodi="http://sodipodi.sourceforge.net/DTD/sodipodi-0.dtd"
   xmlns="http://www.w3.org/2000/svg"
   xmlns:svg="http://www.w3.org/2000/svg">
  <defs
     id="defs1" />
  <sodipodi:namedview
     id="namedview1"
     pagecolor="#ffffff"
     bordercolor="#666666"
     borderopacity="1.0"
     inkscape:showpageshadow="2"
     inkscape:pageopacity="0.0"
     inkscape:pagecheckerboard="0"
     inkscape:deskcolor="#d1d1d1"
     showguides="true"
     inkscape:zoom="1.0677312"
     inkscape:cx="501.5307"
     inkscape:cy="296.42291"
     inkscape:window-width="1680"
     inkscape:window-height="998"
     inkscape:window-x="-8"
     inkscape:window-y="-8"
     inkscape:window-maximized="1"
     inkscape:current-layer="svg1">
    <sodipodi:guide
       position="547.62324,1000"
       orientation="-1,0"
       id="guide1"
       inkscape:locked="false"
       inkscape:label=""
       inkscape:color="rgb(0,134,229)" />
  </sodipodi:namedview>
  <path
     id="path1"
     style="fill:#000000;stroke:none;stroke-width:1"
     d="M 547.62305,0 C 512.03897,0 491.83821,13.15917 487.01953,39.476562 L 429.59766,307.81055 208.12695,147.33984 c -21.12804,-16.30936 -44.85057,-12.78759 -71.16797,10.56446 -26.31739,23.35205 -32.43499,46.51861 -18.3496,69.5 L 255.33398,465.56836 87.474609,379.74805 c -23.352052,-12.6027 -46.334595,-5.37318 -68.945312,21.68554 -22.2400503,27.4294 -24.4639153,51.52192 -6.671875,72.2793 L 183.88477,688.33203 c -34.28805,0.22275 -53.63684,13.37993 -58.04688,39.47266 L 67.458984,999.68945 H 303.20312 L 245.37891,728.91797 c -4.77762,-26.8282 -24.67817,-40.35738 -59.69922,-40.58594 L 334.33789,505.96094 257.51562,466.68359 432.19531,309.69336 h 230.85547 l 174.67969,156.99023 -76.82227,39.27735 148.65821,182.37109 c -35.02105,0.22856 -54.9216,13.75774 -59.69922,40.58594 L 792.04297,999.68945 H 1027.7871 L 969.4082,727.80469 c -4.41004,-26.09273 -23.75882,-39.24991 -58.04687,-39.47266 L 1083.3887,473.71289 c 17.792,-20.75738 15.5682,-44.8499 -6.6719,-72.2793 -22.6107,-27.05872 -45.5933,-34.28824 -68.9453,-21.68554 L 839.91211,465.56836 976.63672,227.4043 c 14.08538,-22.98139 7.96778,-46.14795 -18.34961,-69.5 -26.3174,-23.35205 -50.03993,-26.87382 -71.16797,-10.56446 L 665.64844,307.81055 608.22656,39.476562 C 603.40788,13.15917 583.20713,0 547.62305,0 Z m 0,30.023438 c 17.79204,-2e-6 27.9854,5.561615 30.58007,16.68164 L 628.79883,279.66797 H 466.44727 l 50.5957,-232.962892 c 2.59467,-11.120025 12.78804,-16.681642 30.58008,-16.68164 z M 181.10352,168.53516 c 3.35607,0.11211 6.43309,1.20189 9.23046,3.26953 L 383.26758,312.47266 263.72656,420.33789 145.29883,212.39258 c -5.56002,-9.26669 -1.66825,-20.01602 11.67578,-32.24805 8.57169,-7.41335 16.12923,-11.27911 22.67383,-11.59765 0.49084,-0.0239 0.97564,-0.0277 1.45508,-0.0117 z m 733.03906,0 c 0.47944,-0.016 0.96424,-0.0122 1.45508,0.0117 6.5446,0.31853 14.10213,4.1843 22.67382,11.59765 13.34403,12.23203 17.23581,22.98136 11.67579,32.24805 L 831.51953,420.33789 711.97852,312.47266 904.91211,171.80469 c 2.79737,-2.06764 5.8744,-3.15742 9.23047,-3.26953 z M 66.798828,405.70703 c 2.664173,0.0232 5.292046,0.63713 7.886719,1.8418 L 287.07812,515.41406 184.77539,641.07031 35.210938,454.80859 c -6.301349,-8.15468 -4.077482,-19.27401 6.671874,-33.35937 8.618021,-10.56403 16.923498,-15.81169 24.916016,-15.74219 z m 961.648472,0 c 7.9925,-0.0695 16.298,5.17816 24.916,15.74219 10.7493,14.08536 12.9732,25.20469 6.6719,33.35937 L 910.4707,641.07031 808.16797,515.41406 1020.5605,407.54883 c 2.5946,-1.20467 5.2226,-1.8186 7.8868,-1.8418 z M 184.77539,720.02148 c 18.53337,0 28.91076,5.0037 31.13477,15.01172 l 50.04101,232.96485 H 104.71094 L 154.75,735.0332 c 2.22401,-10.00802 12.23335,-15.01172 30.02539,-15.01172 z m 725.69531,0 c 17.79204,0 27.80138,5.0037 30.02539,15.01172 l 50.03907,232.96485 H 829.29492 L 879.33594,735.0332 c 2.22401,-10.00802 12.60139,-15.01172 31.13476,-15.01172 z"
     sodipodi:nodetypes="scccsccccccccccccccccccccccccccccscccssccccsscccccsssscccccsscccccsscccccssccccssccccs" />
</svg>
