<?xml version="1.0" encoding="UTF-8" standalone="no"?>
<svg
   width="738.71051"
   height="1000"
   version="1.1"
   id="svg1"
   sodipodi:docname="13057.svg"
   inkscape:version="1.4.3 (0d15f75, 2025-12-25)"
   xmlns:inkscape="http://www.inkscape.org/namespaces/inkscape"
   xmlns:sodipodi="http://sodipodi.sourceforge.net/DTD/sodipodi-0.dtd"
   xmlns="http://www.w3.org/2000/svg"
   xmlns:svg="http://www.w3.org/2000/svg">
  <defs
     id="defs1" />
  <sodipodi:namedview
     id="namedview1"
     pagecolor="#ffffff"
     bordercolor="#666666"
     borderopacity="1.0"
     inkscape:showpageshadow="2"
     inkscape:pageopacity="0.0"
     inkscape:pagecheckerboard="0"
     inkscape:deskcolor="#d1d1d1"
     inkscape:zoom="0.3775"
     inkscape:cx="1161.5894"
     inkscape:cy="11.92053"
     inkscape:window-width="1680"
     inkscape:window-height="998"
     inkscape:window-x="-8"
     inkscape:window-y="-8"
     inkscape:window-maximized="1"
     inkscape:current-layer="svg1"
     showguides="true">
    <sodipodi:guide
       position="576.60711,907.52488"
       orientation="0,-1"
       id="guide2"
       inkscape:locked="false" />
  </sodipodi:namedview>
  <path
     id="path1"
     style="fill:#000000;stroke:none;stroke-width:1"
     d="M 500.45117 0 C 508.98247 27.562644 516.32625 60.76684 522.48242 99.611328 C 490.94885 109.59764 472.72522 130.0654 467.8125 161.01562 C 456.22632 153.59404 454.07986 139.65382 463.34961 130.78711 C 472.61934 121.92036 474.43347 111.44252 468.79102 99.351562 C 472.1493 85.918346 459.12796 78.012115 450.88086 78.154297 C 446.07182 78.237177 424.6582 84.495829 424.6582 92.474609 C 424.6582 100.04927 434.7532 99.816277 439.16797 99.351562 C 446.82555 98.545468 446.42264 100.56007 437.95898 105.39648 C 429.49527 110.23287 426.47241 122.32432 428.89062 141.66992 C 431.30883 161.01546 447.10745 173.45788 464.47461 178.38086 C 463.07403 188.82178 462.37305 200.80201 462.37305 214.32422 C 452.2189 233.90718 447.14258 247.32515 447.14258 254.57812 C 447.14258 258.20461 451.85631 260.38021 461.28516 261.10547 L 456.93359 268.72266 C 458.38418 271.62385 460.92239 273.43682 464.54883 274.16211 C 462.37298 277.7886 461.64776 281.77714 462.37305 286.12891 L 468.90039 286.12891 C 464.54865 306.43718 472.52768 316.5918 492.83594 316.5918 L 512.41797 316.5918 C 517.49504 336.17476 526.92449 357.56985 540.70508 380.7793 C 539.97982 381.5046 533.08853 390.38916 520.0332 407.43359 C 506.97787 424.47802 493.92249 444.78728 480.86719 468.35938 C 467.8119 491.93147 470.35201 514.95925 488.48438 537.44336 C 493.56142 610.69818 482.319 678.1507 454.75781 739.80078 L 316.58789 538.53125 C 302.80729 499.36532 278.87401 479.7832 244.78516 479.7832 L 244.78516 480.87109 C 227.37809 386.58275 185.31113 339.4375 118.58398 339.4375 C 60.560385 339.4375 31.548828 381.50448 31.548828 465.63867 C 31.548828 549.7729 23.932395 596.91812 8.7011719 607.07227 C 5.0747272 609.24816 3.2617188 613.23669 3.2617188 619.03906 C 3.2617188 624.84139 6.7073779 631.73264 13.597656 639.71094 C 20.487971 647.68916 21.21316 662.19496 15.773438 683.22852 C 10.333752 704.26208 5.8003099 730.19058 2.1738281 761.01562 C -1.4526537 791.84062 -0.54714454 817.22623 4.8925781 837.17188 C 10.332264 857.11748 23.932552 867.08984 45.691406 867.08984 C 66.724963 867.08984 79.960668 857.11748 85.400391 837.17188 C 90.840114 817.22622 91.927897 791.84061 88.664062 761.01562 C 85.40023 730.19058 80.868777 704.26208 75.066406 683.22852 C 69.264072 662.19496 69.806988 647.68916 76.697266 639.71094 C 83.587582 631.73264 87.033203 624.84139 87.033203 619.03906 C 87.033203 613.23684 85.220232 609.24831 81.59375 607.07227 C 67.08786 596.91812 59.833984 548.68508 59.833984 462.375 C 59.108687 397.09843 79.055354 364.46094 119.67188 364.46094 C 168.26662 364.46094 201.9919 403.26452 220.84961 480.87109 C 175.88131 480.14579 165.72668 489.93584 190.38672 510.24414 C 189.66142 534.17888 195.82751 550.86224 208.88281 560.29102 L 208.88281 582.04883 C 281.41234 796.01085 316.22541 910.60865 313.32422 925.83984 C 311.87363 941.79632 301.53871 955.5769 282.31836 967.18164 C 263.09804 978.78639 258.20201 989.66425 267.63086 999.81836 L 699.54492 999.81836 C 714.05081 992.5654 714.05081 982.41275 699.54492 969.35742 C 661.82958 923.66389 649.67971 879.78199 663.09766 837.71484 C 676.51564 795.64772 688.30292 693.7447 698.45703 532.00391 L 738.71094 532.00391 L 738.71094 374.25195 C 738.71094 271.26005 727.46848 198.54891 704.98438 156.11914 C 692.27319 132.13192 673.07149 114.9263 647.37891 104.5 C 653.72789 63.545667 661.68718 28.711984 671.25781 0 L 500.45117 0 z M 523.29883 17.40625 L 648.41211 17.40625 C 643.37006 36.133864 637.97026 63.446483 632.21289 99.341797 C 615.86882 94.764242 597.33342 92.474609 576.60742 92.474609 C 562.2872 92.474609 549.36368 93.574362 537.83594 95.773438 C 532.32187 61.631147 527.47628 35.508409 523.29883 17.40625 z M 578.7832 112.05859 C 635.35621 112.05859 672.52715 132.54817 690.29688 173.52734 C 708.0666 214.50651 716.95117 281.05157 716.95117 373.16406 L 716.95117 510.24414 L 576.60742 510.24414 L 576.60742 261.10547 C 581.68449 254.57784 588.21123 244.78775 596.18945 231.73242 C 604.16771 218.67713 608.1582 205.43943 608.1582 192.02148 C 608.1582 178.60353 599.81655 171.89453 583.13477 171.89453 C 570.80492 171.89453 563.55103 178.78582 561.375 192.56641 C 561.375 178.06052 555.02863 168.99368 542.33594 165.36719 C 529.64325 161.74071 511.33119 159.92773 487.39648 159.92773 C 491.74826 128.01473 522.2102 112.05859 578.7832 112.05859 z M 509.1543 177.19922 C 517.13254 177.4712 524.74901 178.78536 532.00195 181.14258 C 546.50788 185.85701 553.75977 195.82936 553.75977 211.06055 L 571.16797 211.06055 C 571.16797 197.27996 574.43135 190.39062 580.95898 190.39062 C 587.48643 190.39062 589.662 197.27996 587.48633 211.06055 L 554.84766 258.92969 L 554.84766 362.28516 L 551.58398 362.28516 C 539.97923 346.32867 532.00216 326.74461 527.65039 303.53516 L 497.1875 303.53516 C 486.30809 303.53516 480.86719 300.27177 480.86719 293.74414 C 481.59252 282.86469 486.67083 276.70059 496.09961 275.25 C 496.09961 270.17293 494.64924 267.63477 491.74805 267.63477 L 472.16406 267.63477 C 475.79054 258.93125 471.80204 252.76515 460.19727 249.13867 C 460.19727 244.06159 465.63614 232.45659 476.51562 214.32422 C 475.7903 200.54362 478.33044 188.93862 484.13281 179.50977 C 492.83635 177.69652 501.17605 176.92723 509.1543 177.19922 z M 504.53125 187.39844 C 494.92109 187.57976 487.03221 190.39036 480.86719 195.83008 L 481.95703 204.5332 C 495.01229 193.65379 513.86926 192.9286 538.5293 202.35742 L 546.14453 202.35742 L 546.14453 194.74219 L 538.5293 194.74219 C 525.474 189.66511 514.14141 187.21711 504.53125 187.39844 z M 506.97852 200.18164 C 493.19793 200.18164 484.49368 205.62056 480.86719 216.5 L 480.86719 220.85156 L 488.48438 220.85156 C 492.11086 223.02745 496.46203 224.11523 501.53906 224.11523 C 507.34143 224.11523 519.30904 220.4893 537.44141 213.23633 L 547.23242 214.32422 L 547.23242 207.79688 L 537.44141 208.88477 C 522.21022 203.0824 512.05559 200.18164 506.97852 200.18164 z M 509.1543 206.70898 C 514.95663 207.43428 520.76013 208.88466 526.5625 211.06055 C 522.93602 213.23644 516.76993 215.412 508.06641 217.58789 C 510.24226 215.412 511.33008 213.59903 511.33008 212.14844 C 511.33008 210.69785 510.60485 208.88487 509.1543 206.70898 z M 498.27539 207.79688 C 496.82476 208.52217 496.09961 209.97255 496.09961 212.14844 C 496.09961 214.32433 497.54998 216.1373 500.45117 217.58789 C 496.82472 218.31318 492.11096 217.588 486.30859 215.41211 C 490.66036 211.06033 494.6489 208.52217 498.27539 207.79688 z M 554.84766 407.97852 L 554.84766 532.00391 L 671.25781 532.00391 C 670.53252 576.97221 666.3617 631.00675 658.74609 694.10742 C 651.13052 757.20809 641.52073 810.51749 629.91602 854.03516 C 618.31128 897.55287 626.29037 933.45374 653.85156 961.74023 L 331.82031 961.74023 C 339.79857 953.762 345.0572 940.34591 347.5957 921.48828 C 350.13427 902.63058 341.6123 870.71635 322.0293 825.74805 L 241.52148 579.87305 C 237.1697 566.81772 245.50941 560.29102 266.54297 560.29102 C 287.57652 560.29102 300.99451 565.36733 306.79688 575.52148 L 442.79102 773.52734 C 465.27521 788.75853 479.78096 781.14206 486.30859 750.67969 C 512.41922 690.48016 522.20931 617.58869 515.68164 532.00391 C 490.29634 505.16798 503.35177 463.82623 554.84766 407.97852 z M 213.23438 502.62891 L 253.48828 502.62891 C 267.26891 502.62891 279.23651 514.59654 289.39062 538.53125 L 244.78516 538.53125 C 223.75161 538.53125 213.23438 526.56362 213.23438 502.62891 z M 39.164062 660.38086 L 51.130859 660.38086 C 63.460897 726.38272 68.174622 779.69203 65.273438 820.30859 C 62.372252 834.81452 55.845555 842.43103 45.691406 843.15625 C 34.811997 842.43099 27.920716 834.81448 25.019531 820.30859 C 22.118346 779.69203 26.834024 726.38272 39.164062 660.38086 z " />
</svg>
