<?xml version="1.0" encoding="UTF-8" standalone="no"?>
<svg
   width="1814.0156"
   height="1807.166"
   version="1.1"
   id="svg2"
   sodipodi:docname="13108.svg"
   inkscape:version="1.4.3 (0d15f75, 2025-12-25)"
   xmlns:inkscape="http://www.inkscape.org/namespaces/inkscape"
   xmlns:sodipodi="http://sodipodi.sourceforge.net/DTD/sodipodi-0.dtd"
   xmlns="http://www.w3.org/2000/svg"
   xmlns:svg="http://www.w3.org/2000/svg"
   xmlns:rdf="http://www.w3.org/1999/02/22-rdf-syntax-ns#"
   xmlns:cc="http://creativecommons.org/ns#"
   xmlns:dc="http://purl.org/dc/elements/1.1/">
  <title
     id="title2">Q47</title>
  <defs
     id="defs2" />
  <sodipodi:namedview
     id="namedview2"
     pagecolor="#ffffff"
     bordercolor="#000000"
     borderopacity="0.25"
     inkscape:showpageshadow="2"
     inkscape:pageopacity="0.0"
     inkscape:pagecheckerboard="0"
     inkscape:deskcolor="#d1d1d1"
     inkscape:zoom="0.25534412"
     inkscape:cx="1172.927"
     inkscape:cy="702.97291"
     inkscape:window-width="1680"
     inkscape:window-height="998"
     inkscape:window-x="-8"
     inkscape:window-y="-8"
     inkscape:window-maximized="1"
     inkscape:current-layer="svg2"
     showguides="true">
    <sodipodi:guide
       position="890.08194,1104.0467"
       orientation="-1,0"
       id="guide1"
       inkscape:locked="false"
       inkscape:label=""
       inkscape:color="rgb(0,134,229)" />
    <sodipodi:guide
       position="1075.0199,0"
       orientation="0,-1"
       id="guide3"
       inkscape:locked="false" />
    <sodipodi:guide
       position="968.08044,1207.9366"
       orientation="-1,0"
       id="guide5"
       inkscape:label=""
       inkscape:locked="false"
       inkscape:color="rgb(0,134,229)" />
    <sodipodi:guide
       position="693.9375,1137.4824"
       orientation="0,-1"
       id="guide6"
       inkscape:locked="false" />
    <sodipodi:guide
       position="890.08194,1142.7568"
       orientation="0,-1"
       id="guide7"
       inkscape:locked="false" />
    <sodipodi:guide
       position="911.97352,1142.7568"
       orientation="1,0"
       id="guide8"
       inkscape:locked="false" />
    <sodipodi:guide
       position="933.97352,1142.7568"
       orientation="-1,0"
       id="guide9"
       inkscape:label=""
       inkscape:locked="false"
       inkscape:color="rgb(0,134,229)" />
    <sodipodi:guide
       position="1024.2837,1158.7491"
       orientation="1,0"
       id="guide10"
       inkscape:locked="false" />
    <sodipodi:guide
       position="1002.2837,1158.7491"
       orientation="-1,0"
       id="guide11"
       inkscape:label=""
       inkscape:locked="false"
       inkscape:color="rgb(0,134,229)" />
    <sodipodi:guide
       position="1075.0199,22"
       orientation="0,1"
       id="guide12"
       inkscape:label=""
       inkscape:locked="false"
       inkscape:color="rgb(0,134,229)" />
    <sodipodi:guide
       position="588.98309,1122.7474"
       orientation="1,0"
       id="guide2"
       inkscape:locked="false" />
  </sodipodi:namedview>
  <path
     id="path1"
     style="fill:#000000;stroke:none;stroke-width:100"
     d="M 1123.3906 0 C 1114.0919 0 1103.8281 0.53791108 1092.4941 1.5742188 C 1051.3086 5.3399818 1030.418 37.884566 1030.418 98.136719 C 1030.418 276.74127 989.76388 363.68945 909.71289 363.68945 C 828.50191 363.68945 789.00586 276.74127 789.00586 98.136719 C 789.00586 37.884566 768.11715 5.3399818 726.93164 1.5742188 C 716.82589 0.65015615 706.87569 0.21093749 697.63281 0.2109375 C 688.04176 0.2109375 679.21094 0.6838358 671.75195 1.5742188 C 657.10495 3.322622 645.96688 6.5402599 637.26562 11.919922 C 619.86325 22.679247 610.83408 35.868349 609.67383 49.855469 C 614.8351 55.838297 621.67346 58.730469 629.71875 58.730469 C 636.14122 58.730469 643.33507 56.887053 651.06055 53.304688 C 665.86511 46.439844 679.92535 42.599607 692.72266 42.599609 C 694.96826 42.599609 697.17722 42.717996 699.3418 42.958984 C 713.84395 44.572882 720.61338 63.928307 720.0332 101.58594 C 719.45292 139.24353 720.0332 182.92441 720.0332 229.18945 C 720.0332 276.53046 742.60158 336.87692 789.00781 415.41992 C 766.965 426.17932 755.71304 446.07267 751.07227 474.04688 L 644.16211 553.36719 C 611.67763 567.3543 597.03905 588.76649 595.87891 618.89258 C 594.71834 649.0186 591.30236 671.50676 588.98242 684.41797 C 586.66225 697.3291 596.81614 705.55215 620.01953 712.00781 C 636.17045 722.99194 650.46699 729.36719 662.17773 729.36719 C 663.08637 729.36719 663.97836 729.32963 664.85547 729.25195 C 667.27723 729.03845 669.66055 728.93945 672.01562 728.93945 C 681.51045 728.93945 690.51114 730.54599 699.3418 732.70117 C 700.78157 733.05263 702.31181 733.22461 703.92578 733.22461 C 714.66646 733.22461 729.04443 725.57126 744.17383 712.00781 C 753.55259 703.60022 778.15424 700.39063 813.49023 700.39062 C 826.86432 700.39062 841.77598 700.84798 857.98242 701.66016 L 889.97266 703.11328 L 889.97266 1585.6348 L 631.90625 1585.6348 L 631.90625 1629.6348 L 889.97266 1629.6348 L 889.97266 1807.166 L 890.08203 1807.166 L 1046.2832 1807.166 L 1046.2832 1629.6348 L 1304.2539 1629.6348 L 1304.2539 1585.6348 L 1046.2832 1585.6348 L 1046.2832 661.28906 C 1070.9427 631.67042 1082.1484 596.60485 1082.1484 556.81641 C 1082.1484 515.93104 1097.9453 478.95635 1130.4297 449.90625 C 1162.9143 420.85608 1178.131 391.9802 1178.7109 360.24023 C 1179.2912 328.50021 1179.8705 300.06521 1178.7109 277.4707 L 1040.7637 377.48438 C 1080.2091 325.83972 1102.8399 275.45444 1102.8398 229.18945 C 1102.8398 181.8485 1100.5531 138.70561 1099.3926 101.58594 C 1098.232 64.466327 1105.0022 45.110849 1120.084 42.958984 C 1122.8245 42.568002 1125.5879 42.375 1128.3809 42.375 C 1140.9596 42.375 1154.1247 46.261072 1168.3652 53.304688 C 1176.0021 57.081865 1183.118 58.953125 1189.4844 58.953125 C 1197.6261 58.953125 1204.5436 55.893346 1209.752 49.855469 C 1208.5913 35.868341 1196.6934 23.217212 1178.7109 11.919922 C 1165.677 3.7315548 1147.8814 0 1123.3906 0 z M 1147.6738 342.99609 C 1147.6738 375.27403 1133.0041 403.39242 1102.8398 429.21484 C 1072.6755 455.03718 1037.6642 476.00653 999.37891 487.8418 L 1006.2754 515.43359 L 1040.7637 501.63672 L 1040.7637 546.4707 C 1040.7637 594.85688 1028.0867 628.12674 1002.2832 646.56445 L 1002.2832 648.41602 L 1002.2832 692.43164 L 1002.2832 1585.6348 L 933.97266 1585.6348 L 933.97266 664.41016 L 933.87695 664.41016 L 933.87695 663.72656 C 933.86912 663.72676 933.86136 663.72636 933.85352 663.72656 C 918.93718 664.08677 904.37484 664.41016 890.08203 664.41016 C 879.23833 664.41016 868.55087 664.22363 857.98242 663.72656 C 825.68768 662.20708 794.14838 661.4506 764.86523 656.82812 C 744.53065 670.07992 718.56855 698.48242 702.00781 698.48242 C 701.088 698.48242 700.20019 698.39473 699.3418 698.21289 C 697.09948 698.79209 694.87253 699.05469 692.6543 699.05469 C 686.84048 699.05469 681.0797 697.26745 675.20117 694.76562 C 696.08407 668.94322 711.91203 655.5327 720.0332 653.38086 C 728.15383 651.22897 733.82812 646.04157 733.82812 639.58594 C 733.60915 638.00153 732.5201 637.20898 730.58008 637.20898 C 721.98187 637.20898 696.76751 652.81437 657.95703 684.41797 L 640.71289 680.9707 C 633.75153 668.0595 630.91607 654.64898 633.81641 639.58594 C 636.71675 624.52289 644.06593 615.76183 654.50781 611.99609 C 657.05681 611.07747 659.01603 610.5957 660.41211 610.5957 C 664.73569 610.5957 663.65698 615.21775 657.95703 625.79102 C 651.59686 637.58804 653.00977 643.66602 662.30859 643.66602 C 664.03533 643.66602 666.03206 643.4567 668.30273 643.03516 C 682.80477 640.34537 690.12298 632.1223 692.44336 615.44531 C 694.76353 598.76841 691.38225 585.04128 682.09766 577.50977 C 716.90241 544.15589 751.91397 523.8177 785.55859 511.98242 C 790.19979 481.8564 816.76562 457.31337 861.43164 439.56055 C 889.27317 428.49473 908.73982 422.60742 920.58008 422.60742 C 927.73514 422.60742 932.10554 424.7568 933.85352 429.21484 C 938.49363 441.05007 948.64838 446.45898 964.89062 446.45898 C 982.29313 446.45898 1004.3457 442.34739 1026.9688 432.66406 C 1049.5918 422.98059 1089.6638 393.5668 1147.6719 342.99805 L 1147.6738 342.99609 z M 826.94141 474.04688 C 810.69906 493.41366 809.05514 506.82611 816.5957 515.43359 C 821.73518 521.29974 827.28147 524.37109 835.06641 524.37109 C 838.70481 524.37109 842.83326 523.6987 847.63672 522.32812 C 857.85974 519.41093 873.62405 517.38279 893.19922 517.38281 C 902.50353 517.38281 912.66653 517.83923 923.50586 518.87891 C 906.10359 491.98057 888.01958 479.11001 871.77734 477.49609 C 855.53521 475.88222 839.70303 475.12279 826.94141 474.04688 z M 933.97266 1629.6348 L 1002.2832 1629.6348 L 1002.2832 1763.166 L 933.97266 1763.166 L 933.97266 1629.6348 z " />
  <metadata
     id="metadata2">
    <rdf:RDF>
      <cc:Work
         rdf:about="">
        <dc:title>Q47</dc:title>
        <dc:creator>
          <cc:Agent>
            <dc:title>Serge J. Paul THOMAS</dc:title>
          </cc:Agent>
        </dc:creator>
        <dc:description>Modified by S. Rosmorduc to match Hieroglyphica. Head of F11A instead of F1.
</dc:description>
      </cc:Work>
    </rdf:RDF>
  </metadata>
</svg>
