<?xml version="1.0" encoding="UTF-8" standalone="no"?>
<svg
   width="1100"
   height="833.8855"
   version="1.1"
   id="svg1"
   sodipodi:docname="13101.svg"
   inkscape:version="1.4.2 (f4327f4, 2025-05-13)"
   xml:space="preserve"
   xmlns:inkscape="http://www.inkscape.org/namespaces/inkscape"
   xmlns:sodipodi="http://sodipodi.sourceforge.net/DTD/sodipodi-0.dtd"
   xmlns="http://www.w3.org/2000/svg"
   xmlns:svg="http://www.w3.org/2000/svg"><defs
     id="defs1" /><sodipodi:namedview
     id="namedview1"
     pagecolor="#ffffff"
     bordercolor="#666666"
     borderopacity="1.0"
     inkscape:showpageshadow="2"
     inkscape:pageopacity="0.0"
     inkscape:pagecheckerboard="0"
     inkscape:deskcolor="#d1d1d1"
     showguides="true"
     inkscape:zoom="0.26693281"
     inkscape:cx="305.32028"
     inkscape:cy="616.25995"
     inkscape:window-width="1680"
     inkscape:window-height="998"
     inkscape:window-x="-8"
     inkscape:window-y="-8"
     inkscape:window-maximized="1"
     inkscape:current-layer="svg1" /><path
     id="path2"
     style="baseline-shift:baseline;display:inline;overflow:visible;opacity:1;vector-effect:none;fill:#000000;stroke-width:0.999999;enable-background:accumulate;stop-color:#000000;stop-opacity:1"
     d="M 734.13086,0.05664062 C 726.49437,0.46196842 715.91454,3.0028216 703.48828,6.7890625 656.99519,20.955359 620.30212,48.548362 597.45508,88.425781 558.78022,95.246483 524.17279,108.01496 487.67188,134.6582 403.29642,113.57447 324.2739,159.16809 325.4082,249.07422 280.20666,270.06597 186.95852,325.05972 113.2207,385.15039 34.5024,380.12539 0.19888729,428.10097 0,494.50195 -0.07877689,520.80259 5.4096359,547.61671 18.285156,571.31445 114.6564,748.6883 263.92866,840.35149 395.19141,749.44727 454.17048,708.60215 539.07312,645.21023 585.3457,644.59961 683.09249,643.30986 805.14987,811.92128 820.63086,833.88477 877.97793,660.2735 953.55418,466.61752 1100,348.95117 997.68559,219.39604 872.21024,98.537107 751.47266,82.253906 758.43456,49.583415 755.99094,9.5172817 744.46094,1.8242188 742.2346,0.33875728 738.71275,-0.18655605 734.13086,0.05664062 Z M 725.42773,22.90625 c 1.58441,0.0133 2.83627,0.269575 3.70899,0.773438 11.06862,6.390467 7.50933,65.799585 -39.50781,116.953122 -21.51006,23.40243 -45.77901,22.48541 -59.70508,12.26758 C 611.67762,139.51279 612.21538,110.18872 629.625,87.748047 662.96823,44.769252 710.11183,22.777726 725.42773,22.90625 Z M 602.22852,133.76562 c 4.06925,24.17448 23.98146,41.10117 49.33789,40.44727 -11.32315,8.5619 -29.62445,24.29155 -24.55664,32.23242 5.67781,8.89672 30.44592,-4.18445 41.88476,-12.60351 23.49446,-17.2921 41.97834,-34.38776 55.71875,-52.80078 C 850.69041,171.13197 946.0766,273.938 1025.1211,370.36133 925.96318,470.9379 865.07641,586.99759 819.23828,724.87109 756.68644,644.46949 650.52458,584.51758 591.19727,584.51758 c -54.13067,0 -79.46223,8.75811 -211.00391,99.85547 -51.51521,35.67614 -103.92757,35.81176 -151.59375,17.48437 18.86962,-55.16429 50.97711,-90.81868 93.93555,-98.46875 41.91766,-7.46472 110.06452,-23.38957 136.26562,-90.51367 3.65579,-9.36569 7.94256,-31.56262 -3.77734,-34.99023 -10.33085,-3.02136 -21.70327,10.73811 -24.83008,18.73828 -13.80187,35.31315 -48.50898,66.75249 -117.72266,79.07812 -55.7957,9.93615 -95.00283,50.32158 -116.78125,110.30274 C 116.67269,640.28937 56.308002,550.29881 44.923828,507.8125 26.855653,440.38115 101.35439,392.81481 158.36719,439.52539 c 57.87242,-50.62547 93.16488,-83.47898 210.8164,-138.375 -20.67513,-119.69926 75.12784,-160.35046 155.58008,-108.25 16.27501,-13.86601 32.65477,-24.65696 48.83399,-32.93945 -1.48463,8.74219 -3.39267,22.91411 4.28906,23.80078 9.12498,1.05326 14.46701,-15.53708 15.74219,-21.71875 2.04625,-9.91958 4.97636,-19.34975 8.59961,-28.27735 z m -141.28516,65.59571 c -38.5893,-1.38408 -70.29256,27.23016 -56.85938,84.01562 1.94777,8.23374 16.79655,13.42476 21.9375,5.21094 18.63818,-29.77866 43.85581,-49.73754 73.91016,-61.98047 5.18143,-2.11069 4.79915,-13.40036 0.48047,-15.79492 -12.97639,-7.19496 -26.60565,-10.98981 -39.46875,-11.45117 z M 758.5,334.64258 c -9.05892,0.17468 -9.31047,16.91952 -9.07031,25.12304 2.04574,69.87541 4.0668,143.69923 -25.39453,205.42188 -3.92762,8.22853 -13.1891,25.17168 -4.28125,30.23438 8.90785,5.06268 19.83237,-10.6597 24.10156,-19.4043 33.23141,-68.06794 27.00099,-148.36478 24.71875,-218.10352 -0.27799,-8.49479 -1.0153,-23.44616 -10.07422,-23.27148 z m -78.9043,38.02734 c -0.21024,-0.009 -0.42314,-0.008 -0.64062,0.004 -6.95943,0.39625 -8.58752,9.10403 -7.94531,19.69726 3.82917,63.1626 -1.45777,99.31266 -17.90821,154.71485 -2.38559,8.03421 -6.35862,26.09513 2.91211,28.99414 9.42098,2.946 16.75734,-14.15994 19.21875,-22.5293 16.88436,-57.41038 18.29735,-95.78619 14.52539,-160.09375 -0.58838,-10.03121 -3.64455,-20.50267 -10.16211,-20.78711 z m -567.32031,64.5332 c -9.77247,-0.48267 -22.478513,4.9129 -33.332031,14.1543 -16.778839,14.28659 -24.091919,33.25355 -16.333984,42.36328 7.756836,9.10967 27.645699,4.91416 44.423825,-9.37109 16.77888,-14.28603 24.09278,-33.25285 16.33594,-42.36328 -2.46542,-2.89623 -6.29156,-4.54591 -11.09375,-4.78321 z"
     sodipodi:nodetypes="ssccccsssscccssssssssccsscccsscssssscsccccsscssssssssssssscssssssscsccccs" /></svg>
