<?xml version="1.0" encoding="UTF-8" standalone="no"?>
<svg
   width="1100"
   height="833.8855"
   version="1.1"
   id="svg1"
   sodipodi:docname="13101.svg"
   inkscape:version="1.4.2 (f4327f4, 2025-05-13)"
   xml:space="preserve"
   xmlns:inkscape="http://www.inkscape.org/namespaces/inkscape"
   xmlns:sodipodi="http://sodipodi.sourceforge.net/DTD/sodipodi-0.dtd"
   xmlns="http://www.w3.org/2000/svg"
   xmlns:svg="http://www.w3.org/2000/svg"><defs
     id="defs1" /><sodipodi:namedview
     id="namedview1"
     pagecolor="#ffffff"
     bordercolor="#666666"
     borderopacity="1.0"
     inkscape:showpageshadow="2"
     inkscape:pageopacity="0.0"
     inkscape:pagecheckerboard="0"
     inkscape:deskcolor="#d1d1d1"
     showguides="true"
     inkscape:zoom="0.755"
     inkscape:cx="752.98013"
     inkscape:cy="244.37086"
     inkscape:window-width="1680"
     inkscape:window-height="998"
     inkscape:window-x="-8"
     inkscape:window-y="-8"
     inkscape:window-maximized="1"
     inkscape:current-layer="svg1" /><path
     id="path2"
     style="baseline-shift:baseline;display:inline;overflow:visible;opacity:1;vector-effect:none;fill:#000000;stroke-width:0.999999;enable-background:accumulate;stop-color:#000000;stop-opacity:1"
     d="m 766.11719,0.00195313 c -3.31561,0 -87.65736,7.64099817 -137.66602,79.42578087 C 578.00148,87.014935 531.2256,103.80121 500.34961,127.30273 409.10763,100.64759 317.24884,149.36332 317.47461,241.02344 267.18372,264.3787 186.95852,325.05972 113.2207,385.15039 34.5024,380.12539 0.19888729,428.10097 0,494.50195 -0.07877689,520.80259 5.4096359,547.61671 18.285156,571.31445 114.6564,748.6883 263.92866,840.35149 395.19141,749.44727 454.17048,708.60215 539.07312,645.21023 585.3457,644.59961 683.09249,643.30986 805.14987,811.92128 820.63086,833.88477 877.97793,660.2735 953.55418,466.61752 1100,348.95117 1012.7146,238.42645 939.01816,158.04406 808.98242,98.007812 800.29066,93.994908 791.08328,90.535187 781.47852,87.605469 784.90109,72.10354 786.26101,55.332057 785.63867,36.828125 785.13156,21.750238 781.68532,0.00195313 766.11719,0.00195313 Z M 758.27148,24.878906 c 10.08636,5.823358 8.53095,53.357598 -24.44336,100.951174 -21.52323,31.06562 -52.75323,39.42332 -71.41601,24.92383 -19.28405,-14.98215 -18.2249,-49.47094 7.10937,-76.121098 39.14879,-41.182222 82.11513,-53.584563 88.75,-49.753906 z m -124.1582,96.419924 c -0.0681,32.52505 25.65706,55.28031 57.10547,50.79687 -3.36661,2.73019 -6.87244,5.4127 -10.52148,8.03711 -10.83332,7.79139 -35.6858,27.41096 -29.72071,36.75781 5.96509,9.34686 31.98631,-4.39715 44.00391,-13.24218 26.48767,-19.49512 46.91441,-38.75102 61.625,-59.73633 9.4788,2.93062 18.57297,6.39055 27.15234,10.35156 110.24057,50.897 178.98395,127.60237 246.04689,210.47852 C 930.64681,465.31876 859.45727,593.55423 813.61914,731.42773 751.0673,651.02613 649.86247,586.16406 590.53516,586.16406 c -54.13067,0 -87.22981,15.54131 -218.77149,106.63867 -50.14809,34.72937 -100.25147,34.88459 -145.6875,16.80274 18.45775,-59.56759 51.52133,-98.21427 96.45899,-106.2168 41.91766,-7.46472 110.06452,-23.38957 136.26562,-90.51367 3.65579,-9.36569 7.94256,-31.56262 -3.77734,-34.99023 -10.33085,-3.02136 -21.70327,10.73811 -24.83008,18.73828 -13.80187,35.31315 -48.50898,66.75249 -117.72266,79.07812 -57.95591,10.32084 -98.01395,53.49488 -119.23242,117.35742 C 115.19991,645.48599 56.448406,550.82281 44.923828,507.8125 26.855653,440.38115 97.608297,388.13317 154.62109,434.84375 212.49351,384.21828 279.4944,333.39341 355.60352,291.98438 332.60053,158.80788 441.80586,122.4299 531.31641,180.39648 c 19.66645,-16.75546 43.15836,-28.85547 68.40039,-36.73437 -1.62349,6.45263 -2.98967,13.1037 -4.0918,19.95117 -1.21362,7.54014 -5.84252,28.33877 3.74414,29.44531 9.58667,1.10655 15.19741,-16.32196 16.53711,-22.8164 3.68122,-17.8454 10.0844,-34.18333 18.20703,-48.94336 z m -176.48047,73.42773 c -38.58929,-1.38408 -70.29256,27.22821 -56.85937,84.01367 1.94777,8.23374 16.79459,13.42671 21.93554,5.21289 18.63818,-29.77866 43.85776,-49.73949 73.91211,-61.98242 5.18143,-2.11069 4.7972,-13.40036 0.47852,-15.79492 -12.97639,-7.19496 -26.6037,-10.98786 -39.4668,-11.44922 z M 758.5,334.64258 c -9.05892,0.17468 -9.31047,16.91952 -9.07031,25.12304 2.04574,69.87541 4.0668,143.69923 -25.39453,205.42188 -3.92762,8.22853 -13.1891,25.17168 -4.28125,30.23438 8.90785,5.06268 19.83237,-10.6597 24.10156,-19.4043 33.23141,-68.06794 27.00099,-148.36478 24.71875,-218.10352 -0.27799,-8.49479 -1.0153,-23.44616 -10.07422,-23.27148 z m -78.9043,38.02734 c -0.21024,-0.009 -0.42314,-0.008 -0.64062,0.004 -6.95943,0.39625 -8.58752,9.10403 -7.94531,19.69726 3.82917,63.1626 -1.45777,99.31266 -17.90821,154.71485 -2.38559,8.03421 -6.35862,26.09513 2.91211,28.99414 9.42098,2.946 16.75734,-14.15994 19.21875,-22.5293 16.88436,-57.41038 18.29735,-95.78619 14.52539,-160.09375 -0.58838,-10.03121 -3.64455,-20.50267 -10.16211,-20.78711 z m -567.32031,64.5332 c -9.77247,-0.48267 -22.478513,4.9129 -33.332031,14.1543 -16.778839,14.28659 -24.091919,33.25355 -16.333984,42.36328 7.756836,9.10967 27.645699,4.91416 44.423825,-9.37109 16.77888,-14.28603 24.09278,-33.25285 16.33594,-42.36328 -2.46542,-2.89623 -6.29156,-4.54591 -11.09375,-4.78321 z"
     sodipodi:nodetypes="sccccssssccscsssssssccssscsccsscssssscsccccssscssssssssssssscssssssscsccccs" /></svg>
