<?xml version="1.0" encoding="UTF-8" standalone="no"?>
<svg
   width="998.30408"
   height="1000"
   version="1.1"
   id="svg1"
   sodipodi:docname="13233.svg"
   inkscape:version="1.4.3 (0d15f75, 2025-12-25)"
   xmlns:inkscape="http://www.inkscape.org/namespaces/inkscape"
   xmlns:sodipodi="http://sodipodi.sourceforge.net/DTD/sodipodi-0.dtd"
   xmlns="http://www.w3.org/2000/svg"
   xmlns:svg="http://www.w3.org/2000/svg">
  <defs
     id="defs1" />
  <sodipodi:namedview
     id="namedview1"
     pagecolor="#ffffff"
     bordercolor="#666666"
     borderopacity="1.0"
     inkscape:showpageshadow="2"
     inkscape:pageopacity="0.0"
     inkscape:pagecheckerboard="0"
     inkscape:deskcolor="#d1d1d1"
     inkscape:zoom="0.2669328"
     inkscape:cx="331.54412"
     inkscape:cy="912.21461"
     inkscape:window-width="1680"
     inkscape:window-height="998"
     inkscape:window-x="-8"
     inkscape:window-y="-8"
     inkscape:window-maximized="1"
     inkscape:current-layer="svg1"
     showguides="true">
    <sodipodi:guide
       position="361.52442,899.60134"
       orientation="0,-1"
       id="guide3"
       inkscape:locked="false" />
    <sodipodi:guide
       position="188.9043,494.95581"
       orientation="1,0"
       id="guide1"
       inkscape:locked="false" />
  </sodipodi:namedview>
  <path
     style="fill:#000000;stroke:none;stroke-width:1"
     d="m 79.028866,417.29397 c 21.195614,0 40.268924,29.2581 57.225434,87.75023 H 74.495164 C 52.693958,446.55202 54.199777,417.29397 79.028866,417.29397 Z m 91.747594,128.39813 -15.4355,31.02669 H 79.946008 L 64.493264,545.6921 Z m 382.42571,0 63.59337,77.03889 c 16.95645,22.11298 5.44678,38.8733 -34.52211,50.2864 L 537.76667,545.6921 Z m -73.57802,0 V 693.34999 L 327.01726,545.6921 Z m 38.15602,22.47838 44.50676,129.47096 c 7.26694,23.53943 -7.5657,35.30086 -44.50643,35.30086 h -3.3e-4 z M 302.497,815.32818 v 52.76093 H 161.6917 v -52.76093 z m 177.12715,0 v 52.76093 H 338.81879 v -52.76093 z m 179.86116,0 v 52.76093 H 517.78017 v -52.76093 z m 177.12721,0 v 52.76093 H 695.8244 V 815.32818 Z M 302.497,907.66406 v 52.76099 H 161.6917 v -52.76099 z m 177.12715,0 v 52.76099 H 338.81879 v -52.76099 z m 179.86116,0 v 52.76099 H 517.78017 v -52.76099 z m 177.12721,0 v 52.76099 H 695.8244 V 907.66406 Z M 79.028866,383.06601 c -48.447002,0 -60.856846,40.65992 -37.238932,121.97819 H 0 v 40.6479 H 31.788033 L 64.493264,610.964 H 170.77646 l 32.70518,-65.2719 h 71.76103 l 204.38148,202.23575 v 28.88091 H 0 v 38.51942 h 124.45277 v 52.76093 H 0 v 39.57495 h 124.45277 v 52.76099 H 0 V 1000 H 998.30405 V 960.42505 H 873.86869 V 907.66406 H 998.30405 V 868.08911 H 873.86869 V 815.32818 H 998.30405 V 776.80876 H 517.78017 v -18.18687 c 59.95322,0 83.87284,-19.61943 71.76109,-58.85202 68.43145,-19.97287 83.87018,-52.43235 46.32364,-97.37148 L 589.54126,545.6921 H 997.45622 V 505.0442 H 168.95948 C 143.5248,423.72587 113.54741,383.06601 79.028866,383.06601 Z"
     id="path1"
     sodipodi:nodetypes="sccsccccccccccccccccsccccccccccccccccccccccccccccccccccccccccccsccccccccccccccccccccccccccccccccccccccs" />
  <path
     id="path1-2"
     style="fill:#000000;stroke:none;stroke-width:0.999998"
     d="M 468.9668 0.009765625 C 467.4408 0.070243822 465.99029 0.4375205 464.61523 1.1152344 C 459.11492 3.8262748 453.7181 9.9142242 448.42578 19.371094 C 437.18846 31.462232 426.63316 39.170435 416.75586 42.498047 C 400.27327 48.050941 374.09298 68.166926 367.94727 88.916016 L 348.73047 105.86914 C 344.20663 109.63903 344.77292 114.16554 350.42773 119.44336 L 347.03516 123.40234 C 343.4863 123.10661 340.1754 122.95898 337.10352 122.95898 C 328.42794 122.95898 321.65338 124.13938 316.78125 126.50586 C 310.18395 129.71027 302.36413 142.05654 293.31641 163.54492 C 280.4988 186.54123 273.60658 204.45973 272.66406 217.27734 C 271.72158 230.09495 272.20095 239.2348 274.08594 244.70117 C 275.35648 248.38576 277.74213 250.22656 281.24023 250.22656 C 282.9318 250.22656 284.8839 249.79555 287.0957 248.93555 C 293.88154 246.29664 302.83199 240.74003 313.95312 232.25781 C 325.0743 223.77555 333.27295 214.63567 338.55078 204.83398 C 349.10646 225.19137 354.38672 241.68729 354.38672 254.31641 C 354.38672 266.94556 352.68973 282.68765 349.29688 301.53711 C 314.6139 307.19193 287.84549 318.49447 268.99609 335.45898 C 261.45635 364.86407 256.92988 390.12299 255.42188 411.23438 C 253.91396 432.34571 249.8649 449.40795 243.26758 462.41406 C 236.6703 475.42015 222.43764 483.4294 200.57227 486.44531 C 190.01663 487.1993 186.62268 489.83943 190.39258 494.36328 C 193.87266 498.53931 197.03326 500.62891 199.87109 500.62891 C 200.10744 500.62891 200.3402 500.61494 200.57227 500.58594 L 235.05859 500.58594 C 240.20339 498.7965 244.78848 497.89844 248.80859 497.89844 C 251.5638 497.89844 254.05437 498.32097 256.27734 499.16406 C 258.50815 500.01023 260.67444 500.43359 262.77734 500.43359 C 265.82731 500.43359 268.74401 499.54293 271.5332 497.75781 C 276.24559 494.74194 276.15869 487.86529 271.25781 477.12109 C 266.357 466.37691 268.89647 452.52108 278.88672 435.55664 C 288.87691 418.59219 293.88281 401.9068 293.88281 385.50781 C 293.88281 369.1088 295.75356 360.91016 299.52344 360.91016 C 307.44028 384.66046 314.89874 404.72598 321.87305 421.125 C 328.84734 437.52403 331.95126 451.75669 331.19727 463.82031 C 325.54241 477.39195 314.97997 484.18164 299.52344 484.18164 C 290.09876 484.18164 286.71845 486.72117 289.35742 491.81055 C 291.99632 496.89988 295.37657 499.45314 299.52344 499.45312 L 321.01562 499.45312 C 336.84911 490.40535 349.67686 484.93572 359.47852 483.05078 C 369.28025 481.16587 369.93144 473.91226 361.44922 461.2832 C 352.96699 448.65404 349.10731 432.72451 349.86133 413.49805 C 350.61528 394.27161 345.9013 378.44261 335.72266 366.00195 L 338.55078 360.91016 C 353.25335 354.50136 371.25876 351.29492 392.55859 351.29492 C 413.85851 351.29492 425.07218 345.17398 426.20312 332.92188 C 427.33409 320.66976 422.99702 295.30835 413.19531 256.85547 C 413.19531 245.16886 418.28811 227.83028 428.4668 204.83398 L 458.42773 244.41211 C 454.65785 260.99961 452.96094 284.18269 453.33789 313.96484 C 443.91318 319.24267 439.19727 327.35443 439.19727 338.28711 L 451.64062 325.84375 L 444.28711 352.99219 C 447.89259 356.08266 451.34288 357.62695 454.63672 357.62695 C 458.57521 357.62695 462.2912 355.41971 465.78125 351.00586 C 472.19 342.90059 473.13321 327.53538 468.60938 304.91602 C 476.14913 286.8206 479.54305 264.76805 478.78906 238.75586 C 470.87233 220.66037 461.54498 203.8882 450.80078 188.43164 C 440.05659 172.97511 431.67048 165.24219 425.63867 165.24219 C 413.5751 164.86521 407.53911 162.89191 407.53906 159.31055 L 407.49805 147.93359 L 407.5 147.98633 C 432.13533 134.19378 447.38041 113.36162 453.25781 81.509766 C 456.80464 62.288138 463.08011 49.349048 470.97656 42.476562 C 481.19824 36.310218 487.28156 30.649966 489.23047 25.496094 C 491.1876 20.343809 489.69102 14.444868 484.73828 7.7949219 C 478.80216 2.4240566 473.54479 -0.17166897 468.9668 0.009765625 z M 470.80664 13.941406 C 471.03625 13.954675 471.26625 13.984774 471.49414 14.03125 C 472.70959 14.27919 473.90158 14.996816 475.06836 16.189453 C 479.24524 20.265505 475.98048 25.040967 465.27539 30.513672 C 452.446 44.770226 444.08788 63.155703 440.20312 85.666016 C 437.11306 103.57147 428.19624 119.91354 411.49609 132.26562 C 416.64656 109.87964 408.77028 94.094644 382.50977 86.642578 C 394.80106 65.01064 407.89348 56.84247 418.59961 53.113281 C 432.06789 48.421971 445.83323 38.900869 459.89844 24.552734 C 463.72744 17.278455 467.36256 13.742377 470.80664 13.941406 z M 373.03711 93.990234 C 379.82291 93.990234 386.90267 97.386066 394.25391 104.17188 C 401.60519 110.95766 403.76783 118.77751 400.75195 127.63672 C 397.73603 136.49598 396.22656 146.30466 396.22656 157.04883 C 396.22656 167.42853 393.67963 172.61328 398.94531 172.61328 C 399.13006 172.61328 399.3246 172.609 399.5293 172.5957 C 399.88408 172.5735 400.23324 172.5625 400.58008 172.5625 C 406.13244 172.5625 410.68615 175.40095 414.23438 181.07812 C 418.00426 187.10996 417.81489 192.95848 413.66797 198.61328 C 404.2433 222.36358 399.5293 241.20965 399.5293 255.1582 C 407.44608 292.85706 411.40625 317.54965 411.40625 329.23633 C 410.27532 334.5142 411.68437 332.69306 404.14453 336.08594 C 366.44565 337.97088 350.11571 339.93906 345.21484 344.46289 C 345.21484 338.49044 334.62107 332.23047 310.55664 332.23047 C 305.76052 332.23047 300.42801 332.47822 294.53906 333.02734 C 310.74955 321.71766 330.7651 315.85002 357.1543 311.70312 C 362.80911 311.70312 366.28989 305.39277 367.60938 292.76367 C 368.9289 280.13456 369.59766 267.22194 369.59766 254.02734 C 369.59766 240.83273 365.07115 222.36358 356.02344 198.61328 L 348.10352 198.61328 C 352.62738 180.51781 355.66744 175.14844 360.94531 175.14844 L 376.42969 174.56641 L 376.42969 141.50195 L 360.60938 141.50195 C 357.97048 136.60106 358.72415 133.20524 362.87109 131.32031 L 362.87109 126.23047 C 356.83927 123.59157 354.85042 121.24138 356.92383 119.16797 C 358.99729 117.09454 357.77975 114.72875 353.25586 112.08984 L 373.03711 93.990234 z M 375.57422 98.408203 C 375.46072 98.408254 375.34687 98.414748 375.23828 98.423828 C 374.74035 98.462228 374.29316 98.594609 373.89258 98.806641 C 370.68817 100.50311 369.6444 103.14321 370.77539 106.72461 C 371.63435 109.44454 376.08314 110.80078 384.11914 110.80078 C 386.6642 110.80078 389.56958 110.66461 392.83398 110.39258 C 384.84683 102.40543 379.09773 98.408203 375.57812 98.408203 L 375.57617 98.408203 L 375.57422 98.408203 z M 347.59961 129.625 L 352.68945 133.58398 C 351.18152 138.86185 351.45779 142.53205 353.53125 144.60547 C 355.60462 146.67888 358.43425 147.72266 362.01562 147.72266 C 365.59702 147.72266 367.38086 150.17528 367.38086 155.07617 C 367.38086 159.97706 366.07647 162.41406 363.4375 162.41406 C 360.79859 162.41406 356.35703 162.51686 350.13672 162.70508 C 343.91643 162.89363 339.11549 165.24375 335.72266 169.76758 C 332.32975 174.29145 326.48128 181.45806 318.1875 191.25977 C 309.89379 201.06147 301.61014 210.49325 293.31641 219.54102 C 302.36413 199.56063 309.7065 176.9418 315.36133 151.68359 C 319.45066 152.50145 322.98803 152.9082 325.97656 152.9082 C 329.87574 152.9082 332.83781 152.21338 334.86523 150.82617 C 338.44662 148.37575 338.73856 142.25482 335.72266 132.45312 L 347.59961 129.625 z " />
  <path
     id="path3"
     style="fill:#000000;stroke:none;stroke-width:1"
     d="m 769.3284,222.85596 -1.11941,7.81374 q -25.67215,-4.46336 -30.13764,10.6037 -4.46337,15.06846 -21.76567,12.83607 -17.30087,-2.2317 -13.95263,-17.85914 3.35107,-15.62676 16.18503,-19.53327 12.83607,-3.9072 50.78749,6.1389 z m -82.59925,103.80735 q 2.23167,11.16196 -4.46335,12.83607 -6.69506,1.67555 -8.92959,-4.46335 -2.23168,-6.13889 -4.46337,-9.48787 -2.23166,-3.35105 -7.81373,1.11944 -7.81372,11.16194 -14.5109,-2.2317 3.35109,-13.39436 19.53398,-12.83609 16.18502,0.57042 20.64982,15.06921 z M 975.82654,110.11906 q -5.58276,47.99679 -25.67286,68.08833 -20.09155,20.09226 -58.04293,27.90527 1.11224,53.57816 -6.69505,112.73691 0,35.71829 -46.88026,43.53204 -37.95138,10.04611 -106.59802,28.46353 -68.64662,18.41743 -85.38993,-2.78781 -22.32392,-20.09154 -31.25348,-34.60245 -31.25353,-13.39437 -3.3511,-53.57815 2.23168,-14.51018 29.02183,-59.71703 26.78872,-45.20615 59.71703,-82.04099 32.92763,-36.83486 83.71511,-29.57939 50.78748,7.25546 74.22795,11.72024 13.39437,-26.78872 45.20614,-36.27655 31.81179,-9.487856 71.99557,6.13889 z m -102.69078,69.20487 q 39.06652,2.23169 59.15877,-18.97568 22.32392,-34.60245 -20.09225,-30.13767 -26.78872,5.58278 -39.06652,49.11335 z m -13.39508,35.7183 q -31.25349,-10.04541 -20.09154,-44.64785 -84.83164,-27.90528 -116.64343,6.13891 -31.81178,34.04417 -54.69398,74.22794 -22.8822,40.18308 -31.81179,62.50701 -8.92958,33.48663 32.37007,47.99683 36.83484,-10.04543 60.27461,-20.09155 v 10.04612 q -20.09154,7.81302 -50.2292,18.9757 4.46335,15.62674 58.60119,-5.58276 54.13571,-21.2081 85.38923,-29.02113 31.25421,-7.81372 36.83484,-51.34576 5.58275,-43.53201 0,-69.20488 z" />
</svg>
