<?xml version="1.0" encoding="UTF-8" standalone="no"?>
<!-- Created with Inkscape (http://www.inkscape.org/) -->

<svg
   width="1000"
   height="1000"
   id="svg2451"
   sodipodi:version="0.32"
   inkscape:version="1.4.3 (0d15f75, 2025-12-25)"
   version="1.0"
   sodipodi:docname="1324F.svg"
   inkscape:output_extension="org.inkscape.output.svg.inkscape"
   xmlns:inkscape="http://www.inkscape.org/namespaces/inkscape"
   xmlns:sodipodi="http://sodipodi.sourceforge.net/DTD/sodipodi-0.dtd"
   xmlns="http://www.w3.org/2000/svg"
   xmlns:svg="http://www.w3.org/2000/svg"
   xmlns:rdf="http://www.w3.org/1999/02/22-rdf-syntax-ns#"
   xmlns:cc="http://creativecommons.org/ns#"
   xmlns:dc="http://purl.org/dc/elements/1.1/">
  <defs
     id="defs2453">
    <inkscape:perspective
       sodipodi:type="inkscape:persp3d"
       inkscape:vp_x="0 : -273.81891 : 1"
       inkscape:vp_y="0 : 1000 : 0"
       inkscape:vp_z="744.09448 : -273.81891 : 1"
       inkscape:persp3d-origin="372.04724 : -449.21261 : 1"
       id="perspective2459" />
  </defs>
  <sodipodi:namedview
     id="base"
     pagecolor="#ffffff"
     bordercolor="#666666"
     borderopacity="1.0"
     inkscape:pageopacity="0.0"
     inkscape:pageshadow="2"
     inkscape:zoom="0.59203285"
     inkscape:cx="597.09525"
     inkscape:cy="-32.937361"
     inkscape:document-units="px"
     inkscape:current-layer="layer1"
     showgrid="false"
     inkscape:window-width="1680"
     inkscape:window-height="998"
     inkscape:window-x="-8"
     inkscape:window-y="-8"
     showguides="true"
     inkscape:guide-bbox="true"
     inkscape:showpageshadow="2"
     inkscape:pagecheckerboard="0"
     inkscape:deskcolor="#d1d1d1"
     inkscape:window-maximized="1">
    <inkscape:grid
       type="xygrid"
       id="grid2576"
       visible="false"
       enabled="true"
       originx="0"
       originy="0"
       spacingy="1"
       spacingx="1"
       units="px" />
    <sodipodi:guide
       position="1000,1000"
       orientation="1,0"
       id="guide1"
       inkscape:locked="false" />
    <sodipodi:guide
       position="978.70607,677.994"
       orientation="1,0"
       id="guide2"
       inkscape:locked="false" />
    <sodipodi:guide
       position="585.02272,670.86205"
       orientation="1,0"
       id="guide3"
       inkscape:locked="false" />
    <sodipodi:guide
       position="706.88646,800.68673"
       orientation="0,-1"
       id="guide4"
       inkscape:locked="false" />
  </sodipodi:namedview>
  <metadata
     id="metadata2456">
    <rdf:RDF>
      <cc:Work
         rdf:about="">
        <dc:format>image/svg+xml</dc:format>
        <dc:type
           rdf:resource="http://purl.org/dc/dcmitype/StillImage" />
      </cc:Work>
    </rdf:RDF>
  </metadata>
  <g
     inkscape:label="Calque 1"
     inkscape:groupmode="layer"
     id="layer1">
    <path
       id="path2442"
       style="fill:#000000;stroke:none;stroke-width:0.999998"
       d="M 33.441406 0 C 38.822746 85.428767 70.888476 175.45428 129.63477 270.07617 C 177.9428 347.58946 241.07097 426.60818 319.02148 507.13086 L 169.24609 507.13086 C 143.76818 425.67437 113.74121 384.94531 79.164062 384.94531 C 30.634726 384.94531 18.203276 425.67439 41.861328 507.13086 L 0 507.13086 L 0 547.84766 L 31.841797 547.84766 L 64.603516 613.23047 L 171.06641 613.23047 L 203.82812 547.84766 L 275.71094 547.84766 L 480.43945 750.42578 L 480.43945 779.35547 L 0 779.35547 L 0 817.94141 L 124.66406 817.94141 L 124.66406 870.79102 L 0 870.79102 L 0 910.43359 L 124.66406 910.43359 L 124.66406 963.28516 L 0 963.28516 L 0 1002.9258 L 1000 1002.9258 L 1000 963.28516 L 875.35352 963.28516 L 875.35352 910.43359 L 1000 910.43359 L 1000 870.79102 L 875.35352 870.79102 L 875.35352 817.94141 L 1000 817.94141 L 1000 779.35547 L 518.66016 779.35547 L 518.66016 761.13867 C 578.71517 761.13867 602.67525 741.48474 590.54297 702.18555 C 659.09067 682.17872 674.55556 649.66583 636.94531 604.65039 L 590.54297 547.84766 L 999.15039 547.84766 L 999.15039 507.13086 L 367.34766 507.13086 C 262.77678 394.68879 192.61909 303.11354 156.87695 232.40625 C 115.62001 150.78927 92.636401 97.311749 87.927734 71.974609 L 501.95508 304.04492 L 519.44531 273.10352 L 33.441406 0 z M 79.164062 419.23047 C 100.39565 419.23047 119.50104 448.53937 136.48633 507.13086 L 74.621094 507.13086 C 52.782891 448.53935 54.292776 419.23047 79.164062 419.23047 z M 64.603516 547.84766 L 171.06641 547.84766 L 155.60547 578.92578 L 80.082031 578.92578 L 64.603516 547.84766 z M 327.57227 547.84766 L 480.43945 547.84766 L 480.43945 695.75586 L 327.57227 547.84766 z M 538.67969 547.84766 L 554.14258 547.84766 L 617.84375 625.01562 C 634.82897 647.16612 623.29841 663.95618 583.26172 675.38867 L 538.67969 547.84766 z M 518.66016 570.36328 L 563.24219 700.05469 C 570.52152 723.63421 555.66381 735.41607 518.66016 735.41602 L 518.66016 570.36328 z M 161.9668 817.94141 L 303.01172 817.94141 L 303.01172 870.79102 L 161.9668 870.79102 L 161.9668 817.94141 z M 339.39453 817.94141 L 480.43945 817.94141 L 480.43945 870.79102 L 339.39453 870.79102 L 339.39453 817.94141 z M 518.66016 817.94141 L 660.60547 817.94141 L 660.60547 870.79102 L 518.66016 870.79102 L 518.66016 817.94141 z M 697.00586 817.94141 L 838.0332 817.94141 L 838.0332 870.79102 L 697.00586 870.79102 L 697.00586 817.94141 z M 161.9668 910.43359 L 303.01172 910.43359 L 303.01172 963.28516 L 161.9668 963.28516 L 161.9668 910.43359 z M 339.39453 910.43359 L 480.43945 910.43359 L 480.43945 963.28516 L 339.39453 963.28516 L 339.39453 910.43359 z M 518.66016 910.43359 L 660.60547 910.43359 L 660.60547 963.28516 L 518.66016 963.28516 L 518.66016 910.43359 z M 697.00586 910.43359 L 838.0332 910.43359 L 838.0332 963.28516 L 697.00586 963.28516 L 697.00586 910.43359 z " />
    <path
       style="baseline-shift:baseline;display:inline;overflow:visible;opacity:1;vector-effect:none;fill:#613583;fill-rule:evenodd;stroke-miterlimit:5;enable-background:accumulate;stop-color:#000000;stop-opacity:1"
       d="m 781.86523,123.81445 c -110.81397,0 -196.84181,68.93605 -196.84179,195.06641 v 16 h 393.68359 v -16 c 2e-5,-126.11852 -86.01997,-195.06641 -196.8418,-195.06641 z m 0,32 c 81.39675,0 157.16531,42.89017 164.17188,147.06641 H 617.69336 c 7.00783,-104.19485 82.79231,-147.06641 164.17187,-147.06641 z"
       id="path3"
       sodipodi:nodetypes="ssccsssccs" />
  </g>
</svg>
