<?xml version="1.0" encoding="UTF-8" standalone="no"?>
<!-- Created with Inkscape (http://www.inkscape.org/) -->

<svg
   width="1800"
   height="1800"
   id="svg2451"
   sodipodi:version="0.32"
   inkscape:version="1.4.3 (0d15f75, 2025-12-25)"
   version="1.0"
   sodipodi:docname="13247.svg"
   inkscape:output_extension="org.inkscape.output.svg.inkscape"
   xmlns:inkscape="http://www.inkscape.org/namespaces/inkscape"
   xmlns:sodipodi="http://sodipodi.sourceforge.net/DTD/sodipodi-0.dtd"
   xmlns="http://www.w3.org/2000/svg"
   xmlns:svg="http://www.w3.org/2000/svg"
   xmlns:rdf="http://www.w3.org/1999/02/22-rdf-syntax-ns#"
   xmlns:cc="http://creativecommons.org/ns#"
   xmlns:dc="http://purl.org/dc/elements/1.1/">
  <defs
     id="defs2453">
    <inkscape:perspective
       sodipodi:type="inkscape:persp3d"
       inkscape:vp_x="0 : 526.18109 : 1"
       inkscape:vp_y="0 : 1000 : 0"
       inkscape:vp_z="744.09448 : 526.18109 : 1"
       inkscape:persp3d-origin="372.04724 : 350.78739 : 1"
       id="perspective2459" />
  </defs>
  <sodipodi:namedview
     id="base"
     pagecolor="#ffffff"
     bordercolor="#666666"
     borderopacity="1.0"
     inkscape:pageopacity="0.0"
     inkscape:pageshadow="2"
     inkscape:zoom="0.09879853"
     inkscape:cx="3324.9483"
     inkscape:cy="2079.9905"
     inkscape:document-units="px"
     inkscape:current-layer="layer1"
     showgrid="true"
     inkscape:window-width="1680"
     inkscape:window-height="998"
     inkscape:window-x="-8"
     inkscape:window-y="-8"
     inkscape:showpageshadow="2"
     inkscape:pagecheckerboard="0"
     inkscape:deskcolor="#d1d1d1"
     inkscape:window-maximized="1"
     showguides="true">
    <inkscape:grid
       type="xygrid"
       id="grid2576"
       visible="true"
       enabled="true"
       originx="0"
       originy="0"
       spacingy="1"
       spacingx="1"
       units="px" />
    <sodipodi:guide
       position="1802.8438,1796.375"
       orientation="0,-1"
       id="guide1"
       inkscape:locked="false" />
    <sodipodi:guide
       position="1800,887.78125"
       orientation="0,-1"
       id="guide2"
       inkscape:locked="false" />
  </sodipodi:namedview>
  <metadata
     id="metadata2456">
    <rdf:RDF>
      <cc:Work
         rdf:about="">
        <dc:format>image/svg+xml</dc:format>
        <dc:type
           rdf:resource="http://purl.org/dc/dcmitype/StillImage" />
      </cc:Work>
    </rdf:RDF>
  </metadata>
  <g
     inkscape:label="Calque 1"
     inkscape:groupmode="layer"
     id="layer1">
    <path
       id="path2442"
       style="fill:#000000;stroke:none"
       d="M 1049.0625 3.625 C 927.35842 37.03409 843.89186 106.9176 798.6875 213.28125 C 775.73759 250.09942 748.97488 287.94884 718.375 326.8125 C 675.257 382.03974 647.76017 429.77272 635.9375 470 C 646.36926 482.27275 657.33753 491.64776 668.8125 498.125 C 680.28745 504.60229 703.41493 497.96024 738.1875 478.1875 C 754.87834 465.23297 770.85632 462.5 786.15625 470 C 804.23799 504.09092 825.28816 536.82383 849.28125 568.1875 C 873.27431 599.55113 885.28127 628.53412 885.28125 655.125 L 886.3125 655.125 C 880.74888 687.85227 867.00048 719.72723 845.09375 750.75 C 823.18705 781.77271 787.56457 820.44886 738.1875 866.8125 C 719.49097 875.97749 707.51427 891.11123 702.28125 912.21875 L 611.375 912.21875 C 621.99861 890.92721 629.0347 862.21833 632.44727 826.04492 C 638.65347 773.53169 648.78612 737.0143 662.85352 716.52148 C 666.57712 710.97127 667.73306 704.36077 666.28516 696.67578 C 664.83706 688.99099 659.75706 683.8761 651.06836 681.31445 L 425.70312 681.31445 C 406.91203 681.31445 411.2221 704.88406 425.0918 720.61328 C 439.1591 741.1061 443.16675 773.53169 449.37305 826.04492 C 451.85469 862.21474 457.343 890.92771 465.87109 912.21875 L 305.125 912.21875 C 259.19232 765.36543 205.05595 691.93751 142.71875 691.9375 C 55.227936 691.9375 32.816976 765.36546 75.46875 912.21875 L 0 912.21875 L 0 985.625 L 57.40625 985.625 L 116.46875 1103.5 L 308.40625 1103.5 L 367.46875 985.625 L 497.0625 985.625 L 866.15625 1350.8438 L 866.15625 1403 L 0 1403 L 0 1472.5625 L 224.75 1472.5625 L 224.75 1567.8438 L 0 1567.8438 L 0 1639.3125 L 224.75 1639.3125 L 224.75 1734.5938 L 0 1734.5938 L 0 1806.0625 L 1802.8438 1806.0625 L 1802.8438 1734.5938 L 1578.125 1734.5938 L 1578.125 1639.3125 L 1802.8438 1639.3125 L 1802.8438 1567.8438 L 1578.125 1567.8438 L 1578.125 1472.5625 L 1802.8438 1472.5625 L 1802.8438 1403 L 935.0625 1403 L 935.0625 1370.1562 C 1043.3323 1370.1562 1086.5289 1334.7253 1064.6562 1263.875 C 1188.237 1227.8058 1216.1179 1169.187 1148.3125 1088.0312 L 1064.6562 985.625 L 1801.3125 985.625 L 1801.3125 912.21875 L 1440 912.21875 C 1439.1159 901.18064 1442.3067 890.13188 1449.625 879.09375 C 1469.0975 885.23013 1473.9551 875.69603 1464.2188 850.46875 C 1464.2188 800.01421 1470.1461 753.64774 1481.9688 711.375 C 1481.9688 699.78412 1463.8823 686.15055 1427.7188 670.46875 L 1427.7188 669.4375 C 1454.8412 620.34662 1465.2903 583.86365 1459.0312 560 C 1474.3311 572.95453 1485.4516 593.92892 1492.4062 622.90625 C 1499.3606 651.88349 1501.4381 688.52557 1498.6562 732.84375 C 1502.829 745.79831 1511.5364 750.56534 1524.75 747.15625 C 1533.0953 710.33808 1532.9117 666.19603 1524.2188 614.71875 C 1515.5257 563.24148 1498.9971 521.13352 1474.6562 488.40625 C 1460.0518 463.17895 1443.8903 447.51133 1426.1562 441.375 C 1408.4224 435.23862 1381.4762 429.77275 1345.3125 425 C 1309.149 420.2273 1274.5651 420.22731 1241.5312 425 C 1208.4972 429.77274 1156.8344 431.13921 1086.5938 429.09375 C 1016.3532 427.0483 951.3401 406.26421 891.53125 366.71875 C 888.74942 351.71875 899.01485 340.78695 922.3125 333.96875 C 945.61015 327.15057 963.1461 306.01704 974.96875 270.5625 C 942.978 258.28979 919.88179 255.23862 905.625 261.375 C 891.36822 267.51132 885.25741 265.446 887.34375 255.21875 C 894.99376 231.35512 917.60186 201.70455 955.15625 166.25 C 992.71062 130.79547 1045.5645 94.661952 1113.7188 57.84375 C 1126.9324 52.389226 1130.0795 47.272742 1123.125 42.5 C 1020.1981 58.181821 927.35251 121.58241 844.59375 232.71875 C 851.54826 202.71877 865.26545 172.71876 885.78125 142.71875 C 906.29708 112.71877 962.45035 70.102284 1054.25 14.875 C 1067.4636 8.0568119 1065.7533 4.3068155 1049.0625 3.625 z M 929.09375 278.5 C 943.47006 278.4627 947.4832 282.44603 941.09375 290.5 C 933.79149 299.70453 923.86187 306.69602 911.34375 311.46875 C 898.82564 316.24147 885.26072 326.125 870.65625 341.125 L 862.3125 310.46875 C 882.48058 290.69601 902.49212 280.11362 922.3125 278.75 C 924.79005 278.57954 927.03999 278.50533 929.09375 278.5 z M 794.0625 292.34375 C 800.36775 292.12403 807.80006 294.23441 816.40625 298.6875 C 828.92439 305.16478 833.81307 315.55683 831.03125 329.875 C 828.94491 359.87502 840.58479 381.19888 865.96875 393.8125 C 891.35274 406.42616 929.0837 422.2841 979.15625 441.375 C 1029.2288 460.46589 1095.8309 466.75854 1178.9375 460.28125 C 1262.0439 453.80398 1330.3566 454.66188 1383.9062 462.84375 C 1406.8564 468.98008 1420.0854 486.36361 1423.5625 515 C 1433.299 564.77269 1421.4755 614.19029 1388.0938 663.28125 C 1344.2805 645.55394 1317.67 620.51137 1308.2812 588.125 C 1298.8927 555.73864 1282.3641 536.82954 1258.7188 531.375 C 1276.8005 574.32957 1268.2766 601.40629 1233.1562 612.65625 C 1198.0359 623.90628 1167.9737 627.65626 1142.9375 623.90625 C 1117.9012 620.15626 1092.1771 621.01422 1065.75 626.46875 C 1039.3228 631.92331 1022.275 627.85517 1014.625 614.21875 C 1006.9751 600.5824 996.89317 591.71587 984.375 587.625 C 988.54774 606.03408 988.73126 618.11081 984.90625 623.90625 C 981.08129 629.70172 970.4488 623.56817 953.0625 605.5 C 935.67623 587.4318 936.74612 543.28974 956.21875 473.0625 C 939.52792 483.28977 927.00167 497.43186 918.65625 515.5 C 910.31083 533.56821 903.00907 553.17612 896.75 574.3125 C 883.53644 564.0852 871.37728 549.43465 860.25 530.34375 C 849.12279 511.25285 837.29933 490.11933 824.78125 466.9375 C 812.2631 443.75569 797.10899 431.13921 779.375 429.09375 C 761.64098 427.0483 743.73799 434.38921 725.65625 451.09375 C 707.57451 467.79829 694.19315 472.2159 685.5 464.375 C 676.80685 456.5341 676.47102 443.75853 684.46875 426.03125 C 692.46644 408.30398 709.48308 382.72157 735.5625 349.3125 C 761.64194 315.90339 778.50629 297.50286 786.15625 294.09375 C 788.54686 293.02841 791.19648 292.44362 794.0625 292.34375 z M 774.25 325.65625 C 768.50437 325.75215 763.0855 328.86364 758 335 C 749.65462 345.90911 751.06031 355.44319 762.1875 363.625 C 772.61927 372.48864 782.70119 371.12218 792.4375 359.53125 C 800.78294 349.304 799.37721 339.7699 788.25 330.90625 C 783.38183 327.3267 778.71882 325.58168 774.25 325.65625 z M 455 600 A 35 35 0 0 0 420 635 A 35 35 0 0 0 455 670 A 35 35 0 0 0 490 635 A 35 35 0 0 0 455 600 z M 540 600 A 35 35 0 0 0 505 635 A 35 35 0 0 0 540 670 A 35 35 0 0 0 575 635 A 35 35 0 0 0 540 600 z M 625 600 A 35 35 0 0 0 590 635 A 35 35 0 0 0 625 670 A 35 35 0 0 0 660 635 A 35 35 0 0 0 625 600 z M 1221.0938 650.84375 C 1235.4914 650.80175 1245.7763 656.49645 1251.9375 667.90625 C 1261.3261 685.29262 1271.5914 702.4858 1282.7188 719.53125 C 1293.8459 736.57671 1288.805 760.125 1267.5938 790.125 C 1246.3825 820.12501 1223.622 846.02554 1199.2812 867.84375 C 1185.9002 875.05903 1176.701 889.85872 1171.6875 912.21875 L 1037.875 912.21875 C 1031.3249 893.84298 1031.5697 878.35762 1038.625 865.78125 C 1057.4022 856.23576 1059.4794 841.58518 1044.875 821.8125 C 998.97516 726.35789 984.37169 670.80681 1001.0625 655.125 C 1033.0533 663.30682 1061.2216 664.32389 1085.5625 658.1875 C 1109.9033 652.05115 1127.1034 652.40056 1137.1875 659.21875 C 1147.2715 666.03694 1166.5803 664.82957 1195.0938 655.625 C 1204.8953 652.46094 1213.5521 650.86572 1221.0938 650.84375 z M 1321.3125 681.71875 C 1355.3898 701.49146 1382.8553 712.5511 1403.7188 714.9375 C 1424.5823 717.32384 1435.5506 735.05684 1436.5938 768.125 C 1437.637 801.19318 1428.7771 834.43465 1410 867.84375 C 1385.2831 880.84646 1370.4838 895.62972 1365.625 912.21875 L 1247.625 912.21875 C 1243.1578 893.69823 1247.5351 878.90844 1260.8125 867.84375 C 1277.5033 875.34375 1286.2109 869.21024 1286.9062 849.4375 C 1298.7289 818.07389 1314.0041 791.98299 1332.7812 771.1875 C 1351.5584 750.39203 1355.2249 735.392 1343.75 726.1875 C 1332.275 716.98293 1324.7901 702.17327 1321.3125 681.71875 z M 939.53125 702.15625 C 970.82654 748.51986 989.40117 783.63637 995.3125 807.5 C 1001.2238 831.36361 999.66588 853.51416 990.625 873.96875 C 972.57648 886.17199 962.61557 898.92345 960.71875 912.21875 L 782.4375 912.21875 C 777.77494 891.29257 781.09373 878.20231 792.4375 872.96875 C 817.47378 870.9233 831.03867 858.62502 833.125 836.125 C 870.67941 776.125 906.14956 731.47446 939.53125 702.15625 z M 467.35547 716.52148 L 614.46289 716.52148 L 592.73047 877.27734 C 590.24787 891.36632 583.61677 898.39648 572.85938 898.39648 L 508.32227 898.39648 C 497.56487 898.39648 491.15854 891.36632 489.08984 877.27734 L 467.35547 716.52148 z M 142.71875 753.75 C 180.99599 753.75 215.44069 806.58744 246.0625 912.21875 L 134.53125 912.21875 C 95.160381 806.58741 97.879706 753.75 142.71875 753.75 z M 116.46875 985.625 L 308.40625 985.625 L 280.53125 1041.6562 L 144.375 1041.6562 L 116.46875 985.625 z M 590.5625 985.625 L 866.15625 985.625 L 866.15625 1252.2812 L 590.5625 985.625 z M 971.15625 985.625 L 999.03125 985.625 L 1113.875 1124.75 C 1144.4967 1164.6839 1123.7112 1194.9515 1051.5312 1215.5625 L 971.15625 985.625 z M 935.0625 1026.2188 L 1015.4375 1260.0312 C 1028.561 1302.5414 1001.7743 1323.7814 935.0625 1323.7812 L 935.0625 1026.2188 z M 292 1472.5625 L 546.28125 1472.5625 L 546.28125 1567.8438 L 292 1567.8438 L 292 1472.5625 z M 611.875 1472.5625 L 866.15625 1472.5625 L 866.15625 1567.8438 L 611.875 1567.8438 L 611.875 1472.5625 z M 935.0625 1472.5625 L 1190.9688 1472.5625 L 1190.9688 1567.8438 L 935.0625 1567.8438 L 935.0625 1472.5625 z M 1256.5938 1472.5625 L 1510.8438 1472.5625 L 1510.8438 1567.8438 L 1256.5938 1567.8438 L 1256.5938 1472.5625 z M 292 1639.3125 L 546.28125 1639.3125 L 546.28125 1734.5938 L 292 1734.5938 L 292 1639.3125 z M 611.875 1639.3125 L 866.15625 1639.3125 L 866.15625 1734.5938 L 611.875 1734.5938 L 611.875 1639.3125 z M 935.0625 1639.3125 L 1190.9688 1639.3125 L 1190.9688 1734.5938 L 935.0625 1734.5938 L 935.0625 1639.3125 z M 1256.5938 1639.3125 L 1510.8438 1639.3125 L 1510.8438 1734.5938 L 1256.5938 1734.5938 L 1256.5938 1639.3125 z " />
  </g>
</svg>
