<?xml version="1.0" encoding="UTF-8" standalone="no"?>
<svg
   width="1100"
   height="1000"
   version="1.1"
   id="svg1"
   sodipodi:docname="13272.svg"
   inkscape:version="1.4.2 (f4327f4, 2025-05-13)"
   xmlns:inkscape="http://www.inkscape.org/namespaces/inkscape"
   xmlns:sodipodi="http://sodipodi.sourceforge.net/DTD/sodipodi-0.dtd"
   xmlns="http://www.w3.org/2000/svg"
   xmlns:svg="http://www.w3.org/2000/svg">
  <defs
     id="defs1" />
  <sodipodi:namedview
     id="namedview1"
     pagecolor="#ffffff"
     bordercolor="#666666"
     borderopacity="1.0"
     inkscape:showpageshadow="2"
     inkscape:pageopacity="0.0"
     inkscape:pagecheckerboard="0"
     inkscape:deskcolor="#d1d1d1"
     inkscape:zoom="0.3775"
     inkscape:cx="104.63576"
     inkscape:cy="406.62252"
     inkscape:window-width="1680"
     inkscape:window-height="998"
     inkscape:window-x="-8"
     inkscape:window-y="-8"
     inkscape:window-maximized="1"
     inkscape:current-layer="svg1"
     showguides="true">
    <sodipodi:guide
       position="550,1000"
       orientation="-1,0"
       id="guide3"
       inkscape:locked="false"
       inkscape:label=""
       inkscape:color="rgb(0,134,229)" />
  </sodipodi:namedview>
  <path
     id="path2"
     style="baseline-shift:baseline;display:inline;overflow:visible;opacity:1;vector-effect:none;fill:#000000;enable-background:accumulate;stop-color:#000000;stop-opacity:1"
     d="m 550,30.652344 c -222.64274,0 -434.44156,82.645706 -549.16796875,136.626956 V 1000 H 60.832031 V 205.63672 C 160.94079,160.51888 281.50186,122.97353 397.7168,103.99414 v 38.89063 c 66.64777,27.05001 78.26938,122.6844 118.17773,133.96093 -10e-6,36.53653 -7.31029,135.85048 -21.92773,236.97852 C 463.12885,727.20723 474.49787,1000 550,1000 625.50213,1000 636.87115,727.20723 606.0332,513.82422 591.41576,412.69618 584.10548,313.38223 584.10547,276.8457 624.01382,265.56917 635.63543,169.93478 702.2832,142.88477 v -38.89063 c 116.21494,18.97939 236.77597,56.52474 336.8848,101.64258 V 1000 h 60 V 167.2793 C 983.25131,112.73811 771.88785,30.652344 550,30.652344 Z m 0,60 c 37.87114,0 77.67846,2.932416 118.33008,8.314453 V 126.49023 C 610.61874,139.16969 595.64062,255.31641 550,255.31641 c -45.64062,0 -60.61874,-116.14672 -118.33008,-128.82618 V 98.966797 C 472.32154,93.58476 512.12887,90.652344 550,90.652344 Z m 0,236.105466 c 20.78912,187.90251 32.15897,340.71035 32.1582,397.47657 C 582.1569,819.49267 570.78912,917.7922 550,949.10938 529.21088,917.7922 517.8431,819.49267 517.8418,724.23438 517.84103,667.46816 529.21088,514.66032 550,326.75781 Z"
     sodipodi:nodetypes="sccccccccsccccccccssccsccscscsc" />
</svg>
