<?xml version="1.0" encoding="UTF-8" standalone="no"?>
<svg
   width="584.18079"
   height="1000"
   version="1.1"
   id="svg1"
   sodipodi:docname="13271.svg"
   inkscape:version="1.4.3 (0d15f75, 2025-12-25)"
   xml:space="preserve"
   xmlns:inkscape="http://www.inkscape.org/namespaces/inkscape"
   xmlns:sodipodi="http://sodipodi.sourceforge.net/DTD/sodipodi-0.dtd"
   xmlns="http://www.w3.org/2000/svg"
   xmlns:svg="http://www.w3.org/2000/svg"><defs
     id="defs1" /><sodipodi:namedview
     id="namedview1"
     pagecolor="#ffffff"
     bordercolor="#666666"
     borderopacity="1.0"
     inkscape:showpageshadow="2"
     inkscape:pageopacity="0.0"
     inkscape:pagecheckerboard="0"
     inkscape:deskcolor="#d1d1d1"
     inkscape:zoom="0.3775"
     inkscape:cx="271.52318"
     inkscape:cy="589.40397"
     inkscape:window-width="1680"
     inkscape:window-height="998"
     inkscape:window-x="-8"
     inkscape:window-y="-8"
     inkscape:window-maximized="1"
     inkscape:current-layer="svg1"
     showguides="true"><sodipodi:guide
       position="292.09039,500.00002"
       orientation="1,0"
       id="guide1"
       inkscape:locked="false" /></sodipodi:namedview><path
     id="path1"
     style="fill:#000000;stroke:none;stroke-width:55.6253"
     d="m -45.382812,0 c -16.572496,0 -24.859376,6.0254117 -24.859376,18.078125 0,12.806029 8.28688,19.210937 24.859376,19.210937 h 22.597656 C -3.1994728,69.680775 9.2308458,107.34533 14.503906,150.2832 L -9.2246094,870.05664 C -11.484482,892.65547 -20.336739,914.68927 -35.779297,936.1582 -51.221857,957.62714 -58.565778,978.90772 -57.8125,1000 h 699.80469 c 0.75328,-21.09228 -6.59065,-42.37286 -22.03321,-63.8418 -15.44256,-21.46893 -24.29481,-43.50273 -26.55468,-66.10156 L 569.67578,150.2832 c 5.27306,-42.93787 17.70338,-80.602424 37.28906,-112.994138 h 22.59766 c 16.5725,0 24.85938,-6.404908 24.85938,-19.210937 C 654.42187,6.0254117 646.135,0 629.5625,0 Z M 31.453125,37.289062 H 552.72656 L 530.12891,105.08398 H 54.050781 Z M 55.181641,151.41211 H 528.99805 l 24.85937,743.50391 H 392.08984 L 378.5293,472.31641 H 205.65039 L 192.08984,894.91602 H 30.322266 Z m 179.845699,350.2832 h 114.125 l 10.16797,393.22071 H 224.85938 Z M 24.673828,931.07422 H 559.50586 c 15.81922,9.79281 25.61244,23.35196 29.37891,40.67773 H -4.7050781 C -0.93861112,954.42618 8.8546126,940.86703 24.673828,931.07422 Z"
     sodipodi:nodetypes="csscccsccscccsscccccccccccccccccccccccccc" /></svg>
