<?xml version="1.0" encoding="UTF-8" standalone="no"?>
<svg
   width="1000"
   height="1000"
   version="1.1"
   id="svg1"
   sodipodi:docname="132BF.svg"
   inkscape:version="1.4.3 (0d15f75, 2025-12-25)"
   xmlns:inkscape="http://www.inkscape.org/namespaces/inkscape"
   xmlns:sodipodi="http://sodipodi.sourceforge.net/DTD/sodipodi-0.dtd"
   xmlns="http://www.w3.org/2000/svg"
   xmlns:svg="http://www.w3.org/2000/svg">
  <defs
     id="defs1" />
  <sodipodi:namedview
     id="namedview1"
     pagecolor="#ffffff"
     bordercolor="#666666"
     borderopacity="1.0"
     inkscape:showpageshadow="2"
     inkscape:pageopacity="0.0"
     inkscape:pagecheckerboard="0"
     inkscape:deskcolor="#d1d1d1"
     inkscape:zoom="0.18875"
     inkscape:cx="712.58278"
     inkscape:cy="7.9470199"
     inkscape:window-width="1680"
     inkscape:window-height="998"
     inkscape:window-x="-8"
     inkscape:window-y="-8"
     inkscape:window-maximized="1"
     inkscape:current-layer="svg1"
     showguides="true">
    <sodipodi:guide
       position="502.3311,358.12068"
       orientation="1,0"
       id="guide6"
       inkscape:locked="false" />
    <sodipodi:guide
       position="373.45128,412.69022"
       orientation="0,-1"
       id="guide7"
       inkscape:locked="false" />
    <sodipodi:guide
       position="321.65529,372.69017"
       orientation="1,0"
       id="guide8"
       inkscape:locked="false" />
  </sodipodi:namedview>
  <path
     id="path3"
     style="fill:#000000;stroke:none;stroke-width:0.999997"
     d="M 456.09375 0.3359375 L 456.0957 0.34765625 C 447.97589 -0.15119142 439.57264 -0.109077 431 0.4453125 C 395.29887 2.7536825 369.36346 17.756452 360.50977 38.089844 C 359.03279 41.459814 354.97313 49.976578 361.98633 48.146484 C 385.88012 45.150158 383.4396 53.001214 386.99023 53.867188 C 389.95398 63.154844 396.50545 81.731811 396.95508 89.019531 C 388.93213 117.34618 391.90839 147.04901 394.83203 161.35547 C 399.75625 185.44847 415.57932 213.48272 436.35156 239.68945 C 435.89186 241.49249 435.73534 243.32523 436.35156 245.13281 C 446.26102 275.47084 457.80314 316.50742 466.06055 354.92773 C 474.31761 393.34774 478.98318 429.85595 476.48633 447.83789 C 475.76902 452.77908 478.92874 457.43593 483.77539 458.63281 C 485.22627 458.99473 486.52737 459.64968 487.92773 460.10938 L 457.38672 561.41602 C 433.74205 556.37537 417.4842 563.86846 401.95898 560.2168 C 391.65259 557.6964 352.35282 567.26499 353.55469 587.31055 L 344.31641 587.31055 L 295.75781 537.13281 C 296.29737 507.99777 306.81787 479.94172 327.32031 452.96484 C 308.43648 435.16013 284.157 414.6572 254.48242 391.45703 C 226.73282 373.00323 203.94623 349.36551 180.83594 325.9043 C 190.00809 304.32279 186.7716 285.97815 171.125 270.87109 C 162.3238 262.37337 153.35747 258.21911 144.21484 258.42773 C 126.22884 258.83796 97.938004 282.09944 94.240234 308.9082 C 92.082084 324.55483 96.938762 341.81932 108.80859 360.70312 L 151.70117 414.11719 L 321.65625 604.30469 L 321.65625 627.31055 L 433.29688 627.31055 L 433.29688 1000 L 473.29688 1000 L 473.29688 627.31055 L 535.38281 627.31055 L 535.38281 846.61523 L 575.38281 846.61523 L 575.38281 627.31055 L 683.00781 627.31055 L 683.00781 587.31055 L 680.01758 587.31055 C 673.91433 570.82123 640.06112 557.91518 626.75781 565.74805 C 614.9006 564.5482 604.41976 565.04416 590.70898 565.65039 L 585.54297 472.55664 C 601.56866 479.2252 613.73413 489.5323 627.70703 506.14062 C 634.12844 513.53952 646.33839 507.6786 644.5918 498.02148 C 638.25908 463.84722 637.56775 431.60732 637.94922 397.36133 C 655.70262 408.99882 673.20678 420.80217 689.80273 433.34375 C 737.60919 485.32943 785.46666 537.28578 833.27344 589.27148 C 835.4775 591.68095 838.72368 592.73877 841.94727 592.22461 C 873.18614 586.98671 904.44862 581.8707 935.6875 576.63281 C 939.19378 576.06552 942.07397 573.61767 943.25391 570.26758 C 944.43416 566.91716 943.69325 563.12664 941.31641 560.48633 C 916.90098 533.16486 891.6717 506.81866 867.22852 480.03125 C 913.73083 508.63603 973.98295 545.13561 968.99609 536.49805 C 965.89217 531.12289 939.37002 511.62342 910.5918 491.28711 C 915.16488 493.19771 919.65376 495.23266 924.24805 497.10156 C 924.41116 497.19946 924.62993 497.36102 924.80273 497.46875 C 928.19392 498.60337 930.06977 499.37609 933.66016 499.5 C 934.5568 499.5318 935.54737 499.43442 937.25781 498.94531 C 938.96952 498.44322 941.84344 497.00847 943.43945 493.96289 C 945.03372 490.91767 944.72022 487.78913 944.17578 486.12109 C 943.63448 484.45175 942.92728 483.58706 942.42188 482.89258 C 940.39714 480.11468 939.03114 479.3286 937.07031 477.81836 C 935.11077 476.30877 932.85625 474.65513 930.33594 472.92773 C 925.29466 469.47462 919.26025 465.58465 914.09766 462.13281 C 908.93477 458.681 904.24564 455.33696 903.30273 454.47656 C 903.00928 454.1831 902.69843 453.89558 902.37891 453.64453 C 859.68675 423.60253 816.99778 393.61909 774.31641 363.59375 C 774.05571 363.39821 773.67949 363.57168 773.39258 363.39844 C 729.50612 301.9025 688.23545 237.50521 640.25586 178.22266 C 615.76087 147.95702 587.64088 95.017841 541.99414 77.376953 C 539.79334 64.344984 534.82158 40.285672 517.17383 23.125 C 502.1644 8.5296592 480.45345 1.8350867 456.09375 0.3359375 z M 444.18164 15.609375 C 466.14153 15.95534 483.73804 22.448075 496.13867 31.349609 C 496.3342 33.113507 496.77679 34.881994 496.39844 36.607422 C 494.78127 44.772846 489.98845 52.333725 483.38867 57.367188 C 472.9931 64.169414 460.44475 66.131991 448.60547 69.085938 C 445.63522 69.379396 447.97587 70.099837 449.61914 70.376953 C 457.71153 71.778941 475.12687 73.908673 483.29688 73.603516 C 492.44466 72.556891 501.07343 68.753758 508.48438 63.363281 C 511.08621 61.175537 513.3254 58.455757 515.2207 55.613281 C 520.07678 66.990913 522.70465 79.072898 523.80078 85.783203 C 524.39746 89.398369 526.94653 92.344931 530.44336 93.441406 C 567.90575 104.92696 597.51034 156.29249 625.19922 190.50391 C 682.11015 260.82204 730.48261 339.458 786.20117 412.95508 C 755.37341 397.95936 724.64717 382.80702 693.75195 367.74414 C 630.53077 334.49586 564.70569 307.97962 509.31445 266.06836 C 509.21655 266.00316 509.11986 265.87375 509.05469 265.80859 C 477.13828 239.23895 444.47718 211.1877 432.10547 173.91211 C 427.21677 143.62789 489.92051 89.104922 482.85156 86.814453 C 470.1228 82.690324 423.47924 121.80404 414.29883 158.96484 C 414.20093 158.4921 413.93243 157.95127 413.83789 157.48828 C 411.43821 145.75561 408.75001 116.14329 416.05273 92.349609 C 416.39182 91.237804 416.49165 90.096249 416.41992 88.935547 C 415.90153 79.358661 414.44866 73.67594 412.36133 68.083984 C 410.27466 62.491996 407.78019 56.753365 403.78125 42.894531 C 402.764 39.348485 399.12554 32.108643 396.95312 31.546875 C 403.07034 27.013562 409.27155 22.301532 418.17383 19.183594 C 415.57528 21.694109 413.83789 25.325637 413.83789 29.517578 C 413.83789 37.07297 419.22085 43.171875 425.83203 43.171875 C 432.4432 43.171875 437.82617 37.07297 437.82617 29.517578 C 437.79337 23.457074 434.22187 18.35698 429.42969 16.59375 C 431.16752 16.365469 432.56918 15.98129 434.50391 15.857422 L 434.50586 15.847656 C 437.81866 15.63532 441.04451 15.559951 444.18164 15.609375 z M 464.39844 271.05273 C 466.54708 273.20137 468.85163 275.13727 471.04297 277.23438 C 478.08814 302.89628 484.61282 331.22214 493.83203 353.07617 C 509.73058 390.76484 533.83365 423.54783 554.35742 456.875 C 549.33408 459.57138 544.98669 462.64057 541.7168 465.73242 C 539.03345 468.26905 537.26967 469.95164 535.16602 472.09766 C 524.99186 458.70508 511.92992 448.31974 496.13867 442.57422 C 497.61564 418.78281 492.57988 386.24878 484.97461 350.86133 C 479.098 323.51704 471.76476 296.27808 464.39844 271.05273 z M 140.67383 285.64062 C 158.85355 284.95972 167.07813 298.88597 167.07812 310.12305 C 167.07812 316.86724 164.65076 325.09496 159.79492 334.80664 C 177.98248 360.2692 225.2574 399.17408 236.67773 408.45312 C 265.27323 430.57414 285.50712 447.30053 297.37695 458.63086 C 283.34897 480.21237 274.9848 499.36419 272.28711 516.08984 C 162.09116 394.61397 118.77336 343.58832 116.0918 323.47656 C 114.01517 307.9019 124.9785 286.2285 140.67383 285.64062 z M 497.52344 300.94727 C 535.31444 332.05909 577.40379 358.1563 618.48242 384.53906 C 617.8923 414.47901 617.90807 443.05362 621.25 472.55859 C 607.67095 461.19273 592.97593 452.93663 574.28711 448.38672 C 573.50137 448.19118 572.84502 448.75391 572.07227 448.75391 C 550.73731 413.75378 526.56137 380.97599 511.63867 345.60156 C 506.51512 333.4556 501.99397 317.62727 497.52344 300.94727 z M 549.00586 315.0625 C 593.56816 340.97187 640.61975 361.60863 685.09766 385 C 685.16286 385.0325 685.22779 385.06496 685.29297 385.09766 C 727.91665 405.87871 770.41571 427.24906 813.44727 447.74609 C 845.82959 486.88048 880.97318 523.27039 914.75391 560.30859 C 891.1637 564.26417 867.57851 568.25538 843.98828 572.21094 C 797.19908 521.33152 750.35011 470.57668 703.56055 419.69727 C 703.19213 419.25711 702.80149 418.86647 702.36133 418.49805 C 653.02052 381.08911 598.61303 349.98175 549.01562 315.07031 L 549.00586 315.0625 z M 510.90039 473.85156 C 516.28661 478.88306 521.19056 484.69227 525.38672 491.6582 C 528.15715 496.20267 534.74243 497.86886 539.41016 494.51953 C 546.51563 489.3752 550.84995 483.86288 555.0957 479.84766 C 556.66071 478.36742 558.28797 477.18064 559.98633 475.97266 L 564.875 565.5625 C 548.6967 564.51587 531.08249 562.16535 523.08008 570.08398 C 516.10013 564.53797 500.8294 564.37328 483.40625 564.82422 L 510.90039 473.85156 z M 380.91797 576.97656 C 390.25745 576.70124 399.67947 579.87087 407.11914 587.31055 L 355.21289 587.31055 C 362.3218 580.97139 371.57849 577.25189 380.91797 576.97656 z M 651.86133 578.34766 C 659.13691 578.53065 667.63451 581.70118 677.99219 587.31055 L 633.0625 587.31055 C 638.53148 580.96997 644.58575 578.16466 651.86133 578.34766 z " />
</svg>
