<?xml version="1.0" encoding="UTF-8" standalone="no"?>
<svg
   width="1100"
   height="1000"
   id="svg2673"
   sodipodi:version="0.32"
   inkscape:version="1.4.2 (f4327f4, 2025-05-13)"
   sodipodi:docname="132E1.svg"
   inkscape:output_extension="org.inkscape.output.svg.inkscape"
   sodipodi:modified="true"
   version="1.1"
   xmlns:inkscape="http://www.inkscape.org/namespaces/inkscape"
   xmlns:sodipodi="http://sodipodi.sourceforge.net/DTD/sodipodi-0.dtd"
   xmlns="http://www.w3.org/2000/svg"
   xmlns:svg="http://www.w3.org/2000/svg"
   xmlns:rdf="http://www.w3.org/1999/02/22-rdf-syntax-ns#"
   xmlns:cc="http://creativecommons.org/ns#"
   xmlns:dc="http://purl.org/dc/elements/1.1/">
  <metadata
     id="metadata2680">
    <rdf:RDF>
      <cc:Work
         rdf:about="">
        <dc:format>image/svg+xml</dc:format>
        <dc:type
           rdf:resource="http://purl.org/dc/dcmitype/StillImage" />
        <cc:license
           rdf:resource="http://creativecommons.org/licenses/GPL/2.0/" />
        <dc:creator>
          <cc:Agent>
            <dc:title>Serge THOMAS</dc:title>
          </cc:Agent>
        </dc:creator>
        <dc:publisher>
          <cc:Agent>
            <dc:title>Serge ROSMORDUC</dc:title>
          </cc:Agent>
        </dc:publisher>
        <dc:description>création du signe S14A à partir d'éléments de signes VERK
phon : Dam.</dc:description>
      </cc:Work>
      <cc:License
         rdf:about="http://creativecommons.org/licenses/GPL/2.0/">
        <cc:permits
           rdf:resource="http://web.resource.org/cc/Reproduction" />
        <cc:permits
           rdf:resource="http://web.resource.org/cc/Distribution" />
        <cc:requires
           rdf:resource="http://web.resource.org/cc/Notice" />
        <cc:permits
           rdf:resource="http://web.resource.org/cc/DerivativeWorks" />
        <cc:requires
           rdf:resource="http://web.resource.org/cc/ShareAlike" />
        <cc:requires
           rdf:resource="http://web.resource.org/cc/SourceCode" />
      </cc:License>
    </rdf:RDF>
  </metadata>
  <defs
     id="defs2678" />
  <sodipodi:namedview
     inkscape:window-height="998"
     inkscape:window-width="1680"
     inkscape:pageshadow="2"
     inkscape:pageopacity="0.0"
     guidetolerance="10.0"
     gridtolerance="10.0"
     objecttolerance="10.0"
     borderopacity="1.0"
     bordercolor="#666666"
     pagecolor="#ffffff"
     id="base"
     inkscape:showpageshadow="2"
     inkscape:pagecheckerboard="0"
     inkscape:deskcolor="#d1d1d1"
     inkscape:zoom="0.3775"
     inkscape:cx="-54.304636"
     inkscape:cy="260.92715"
     inkscape:window-x="-8"
     inkscape:window-y="-8"
     inkscape:window-maximized="1"
     inkscape:current-layer="svg2673"
     showguides="true">
    <sodipodi:guide
       position="924.60742,47.12109"
       orientation="1,0"
       id="guide1"
       inkscape:locked="false" />
    <sodipodi:guide
       position="827.22461,47.12109"
       orientation="0,-1"
       id="guide2"
       inkscape:locked="false" />
    <sodipodi:guide
       position="462.82812,131.93555"
       orientation="1,0"
       id="guide3"
       inkscape:locked="false" />
  </sodipodi:namedview>
  <path
     id="path13"
     style="fill:#000000;stroke:none;stroke-width:67.4125"
     d="M 456.73242 0 C 446.7213 54.505006 427.44085 93.065892 398.89062 115.68359 C 370.71116 138.30132 352.35807 162.95797 343.83008 189.6543 C 335.30209 216.72142 309.71811 269.5582 267.07812 348.16406 C 291.54976 359.28753 311.01604 350.57563 325.47656 322.02539 C 340.30785 293.47515 352.72911 276.04744 362.74023 269.74414 C 372.75135 263.44084 384.05942 249.90639 396.66602 229.14258 C 403.44501 217.7778 409.95626 212.0957 416.19922 212.0957 C 425.38124 212.09571 437.0293 227.59593 437.0293 243.43359 L 437.0293 457.30469 C 379.69419 456.14963 307.5659 451.74253 285.86328 449.21289 C 262.08602 446.44143 239.7095 445.74411 218.86523 445.875 C 72.955339 446.79122 0 508.63899 0 631.41406 L 0 952.87891 L 98.429688 952.87891 L 76.439453 647.11914 C 74.345233 599.64953 90.052648 572.94733 123.56055 567.01367 C 157.06842 561.07997 195.11233 574.5202 237.69531 607.33008 C 195.81042 635.95137 169.6333 662.82611 159.16211 687.95703 C 150.7851 712.38985 156.72048 730.8896 176.96484 743.45508 C 212.57913 766.34994 238.35693 731.5165 243.35352 723.99023 C 242.28091 727.40628 241.44164 730.7518 240.83789 734.0293 C 237.34748 759.16021 246.42198 776.26278 268.0625 785.33789 C 305.41026 798.17611 323.34974 767.65792 327.13086 760.11523 C 326.09625 769.8722 325.11332 804.67518 362.30469 812.56445 C 400.35194 820.63507 413.40753 787.53715 416.52734 777.14648 C 416.87962 784.57041 419.41124 807.48309 437.0293 819.16797 L 437.0293 828.77344 C 398.3795 839.11 372.83203 864.72419 372.83203 905.62109 C 372.83203 920.45182 376.65095 940.00302 384.29102 964.27148 C 391.9311 988.09054 407.36782 1000 437.0293 1000 C 423.54682 951.91248 420.02148 921.35335 420.02148 908.32031 C 420.02148 886.27966 434.2914 875.047 462.82812 874.625 C 491.36485 875.047 505.63477 886.27966 505.63477 908.32031 C 505.63477 921.35335 502.11139 951.91248 488.62891 1000 C 518.29039 1000 533.72515 988.09054 541.36523 964.27148 C 549.0053 940.00302 552.82422 920.45182 552.82422 905.62109 C 552.82422 864.72419 527.27871 839.11 488.62891 828.77344 L 488.62891 819.16602 C 506.24511 807.48072 508.77664 784.57012 509.12891 777.14648 C 512.24873 787.53715 525.30432 820.63507 563.35156 812.56445 C 600.54293 804.67518 599.56001 769.8722 598.52539 760.11523 C 602.30651 767.65792 620.24599 798.17611 657.59375 785.33789 C 679.23427 776.26278 688.30876 759.16021 684.81836 734.0293 C 684.21461 730.7518 683.37535 727.40628 682.30273 723.99023 C 687.29932 731.5165 713.07712 766.34994 748.69141 743.45508 C 768.93577 730.8896 774.87114 712.38985 766.49414 687.95703 C 756.02294 662.82611 729.84582 635.95137 687.96094 607.33008 C 730.54391 574.5202 768.58783 561.07997 802.0957 567.01367 C 835.6036 572.94733 851.31105 599.64953 849.2168 647.11914 L 827.22656 952.87891 L 925.65625 952.87891 L 925.65625 631.41406 C 925.65625 508.63899 852.70094 446.79122 706.79102 445.875 C 685.94676 445.74411 663.57023 446.44143 639.79297 449.21289 C 618.09061 451.7425 545.96368 456.14957 488.62891 457.30469 L 488.62891 235.60352 C 488.62895 212.09543 477.5514 170.35475 429.48047 158.50977 C 445.42411 141.82457 460.81129 115.86885 475.64258 80.644531 C 490.8447 45.420208 484.5411 18.539117 456.73242 0 z M 206.21875 474.2793 C 223.19085 473.97388 241.36263 474.69231 260.73438 476.4375 L 224.08594 569.63281 C 186.38955 550.78456 157.06744 541.36133 136.125 541.36133 C 54.684824 541.36133 50.261719 629.10402 50.261719 648.16602 C 60.034864 788.4804 65.968261 880.62635 68.0625 924.60547 L 28.273438 924.60547 L 26.179688 631.41406 C 27.401319 528.79612 87.414045 476.41721 206.21875 474.2793 z M 719.4375 474.2793 C 838.24221 476.41721 898.25494 528.79612 899.47656 631.41406 L 897.38281 924.60547 L 857.59375 924.60547 C 859.688 880.62635 865.62138 788.4804 875.39453 648.16602 C 875.39453 629.10402 870.97139 541.36133 789.53125 541.36133 C 768.5888 541.36133 739.26671 550.78456 701.57031 569.63281 L 664.92188 476.4375 C 684.29363 474.69231 702.46541 473.97388 719.4375 474.2793 z M 283.76953 477.48633 C 343.54303 487.27379 403.22967 492.16083 462.82812 492.14648 C 522.42659 492.16078 582.11323 487.27379 641.88672 477.48633 L 679.58398 580.10352 C 616.75665 619.19607 544.50369 642.23208 462.82812 649.21289 C 381.15258 642.23208 308.8996 619.19607 246.07227 580.10352 L 283.76953 477.48633 z M 273.29883 627.22266 C 283.07193 632.8073 292.49522 637.34551 301.57031 640.83594 C 282.80893 659.59735 268.31172 677.09861 258.08008 693.33984 C 264.43073 675.47652 269.50465 653.43704 273.29883 627.22266 z M 652.35742 627.22266 C 656.15159 653.43704 661.22552 675.47652 667.57617 693.33984 C 657.34453 677.09861 642.84536 659.59735 624.08398 640.83594 C 633.15908 637.34551 642.58432 632.8073 652.35742 627.22266 z M 246.07227 634.55273 C 238.39338 671.55099 230.36719 696.33491 221.99023 708.90039 C 212.21709 724.25826 201.74547 728.44559 190.57617 721.46484 C 180.10496 713.78593 179.40736 702.96555 188.48242 689.00391 C 196.8594 675.04229 216.0548 656.89132 246.07227 634.55273 z M 679.58398 634.55273 C 709.60147 656.89132 728.79684 675.04229 737.17383 689.00391 C 746.24888 702.96555 745.55129 713.78593 735.08008 721.46484 C 723.91078 728.44559 713.43917 724.25826 703.66602 708.90039 C 695.28906 696.33491 687.26288 671.55099 679.58398 634.55273 z M 341.36133 655.49805 L 371.72852 663.87305 C 357.23316 684.58072 346.23588 703.4114 338.73633 720.36523 C 341.50357 702.19704 342.37799 680.57601 341.36133 655.49805 z M 584.29492 655.49805 C 583.27824 680.57601 584.15073 702.19704 586.91797 720.36523 C 579.41843 703.4114 568.42308 684.58072 553.92773 663.87305 L 584.29492 655.49805 z M 315.18555 664.91992 C 315.18555 701.9183 312.04253 728.09731 305.75977 743.45508 C 299.47706 759.51116 290.40256 765.44445 278.53516 761.25586 C 265.96973 755.67123 263.17741 744.84884 270.1582 728.79297 C 275.74283 714.1333 290.75268 692.84323 315.18555 664.91992 z M 610.4707 664.91992 C 634.90358 692.84323 649.91342 714.1333 655.49805 728.79297 C 662.47886 744.84884 659.68652 755.67123 647.12109 761.25586 C 635.25369 765.44445 626.17918 759.51116 619.89648 743.45508 C 613.61371 728.09731 610.4707 701.9183 610.4707 664.91992 z M 413.61328 673.29883 L 441.88477 678.5332 C 432.45102 699.60189 425.63993 718.61732 421.44727 735.57812 C 421.192 717.56643 418.57977 696.80695 413.61328 673.29883 z M 512.04297 673.29883 C 507.07646 696.80695 504.46424 717.56643 504.20898 735.57812 C 500.01631 718.61731 493.20523 699.60189 483.77148 678.5332 L 512.04297 673.29883 z M 388.48047 685.86133 C 394.06516 722.85967 395.11348 749.03872 391.62305 764.39648 C 388.83073 781.84877 380.80459 789.17912 367.54102 786.38672 C 354.97556 783.59438 350.78608 773.4735 354.97461 756.02148 C 357.76695 741.36178 368.93422 717.97311 388.48047 685.86133 z M 537.17383 685.86133 C 556.72008 717.97311 567.88931 741.36178 570.68164 756.02148 C 574.87017 773.4735 570.68109 783.59438 558.11523 786.38672 C 544.85165 789.17912 536.82552 781.84877 534.0332 764.39648 C 530.54277 749.03872 531.58916 722.85967 537.17383 685.86133 z M 462.82812 696.33398 C 476.0917 731.23805 482.72266 756.71757 482.72266 772.77344 C 482.72266 790.2255 476.09171 798.95313 462.82812 798.95312 C 449.56455 798.95312 442.93359 790.2255 442.93359 772.77344 C 442.93359 756.71757 449.56456 731.23805 462.82812 696.33398 z " />
</svg>
