<?xml version="1.0" encoding="UTF-8" standalone="no"?>
<!-- Created with Inkscape (http://www.inkscape.org/) -->

<svg
   width="1000"
   height="1000"
   id="svg1290"
   sodipodi:version="0.32"
   inkscape:version="1.4.3 (0d15f75, 2025-12-25)"
   sodipodi:docname="1330C.svg"
   version="1.1"
   xmlns:inkscape="http://www.inkscape.org/namespaces/inkscape"
   xmlns:sodipodi="http://sodipodi.sourceforge.net/DTD/sodipodi-0.dtd"
   xmlns="http://www.w3.org/2000/svg"
   xmlns:svg="http://www.w3.org/2000/svg"
   xmlns:rdf="http://www.w3.org/1999/02/22-rdf-syntax-ns#"
   xmlns:cc="http://creativecommons.org/ns#"
   xmlns:dc="http://purl.org/dc/elements/1.1/">
  <defs
     id="defs3" />
  <sodipodi:namedview
     id="base"
     pagecolor="#ffffff"
     bordercolor="#666666"
     borderopacity="1.0"
     inkscape:pageopacity="0.0"
     inkscape:pageshadow="2"
     inkscape:zoom="0.72690577"
     inkscape:cx="330.85444"
     inkscape:cy="-11.6934"
     inkscape:document-units="px"
     inkscape:current-layer="layer1"
     inkscape:window-width="1680"
     inkscape:window-height="998"
     inkscape:window-x="-8"
     inkscape:window-y="-8"
     inkscape:showpageshadow="2"
     inkscape:pagecheckerboard="0"
     inkscape:deskcolor="#d1d1d1"
     inkscape:window-maximized="1"
     showguides="true">
    <sodipodi:guide
       position="583.3918,652.327"
       orientation="1,0"
       id="guide2"
       inkscape:locked="false" />
    <sodipodi:guide
       position="546.5645,632.8984"
       orientation="0.99969365,-0.02475092"
       id="guide3"
       inkscape:locked="false" />
    <sodipodi:guide
       position="304.0712,795.5059"
       orientation="0,-1"
       id="guide4"
       inkscape:locked="false" />
    <sodipodi:guide
       position="227.11361,759.98575"
       orientation="1,0"
       id="guide5"
       inkscape:locked="false" />
  </sodipodi:namedview>
  <metadata
     id="metadata4">
    <rdf:RDF>
      <cc:Work
         rdf:about="">
        <dc:format>image/svg+xml</dc:format>
        <dc:type
           rdf:resource="http://purl.org/dc/dcmitype/StillImage" />
        <cc:license
           rdf:resource="http://creativecommons.org/licenses/by/2.0/" />
        <dc:subject>
          <rdf:Bag>
            <rdf:li>JSesh hieroglyph</rdf:li>
          </rdf:Bag>
        </dc:subject>
      </cc:Work>
      <cc:License
         rdf:about="http://creativecommons.org/licenses/by/2.0/">
        <cc:permits
           rdf:resource="http://web.resource.org/cc/Reproduction" />
        <cc:permits
           rdf:resource="http://web.resource.org/cc/Distribution" />
        <cc:requires
           rdf:resource="http://web.resource.org/cc/Notice" />
        <cc:requires
           rdf:resource="http://web.resource.org/cc/Attribution" />
        <cc:permits
           rdf:resource="http://web.resource.org/cc/DerivativeWorks" />
        <cc:requires
           rdf:resource="http://web.resource.org/cc/ShareAlike" />
      </cc:License>
    </rdf:RDF>
  </metadata>
  <g
     transform="translate(-832.831,-887.3468)"
     id="layer1"
     inkscape:groupmode="layer"
     inkscape:label="Layer 1"
     style="display:inline">
    <path
       id="path1"
       style="fill:#000000;stroke:none;stroke-width:1"
       d="m 1371.1748,887.3468 v 45.58008 c -41.3136,9.94156 -74.8226,42.00867 -72.2657,148.91212 1.5253,63.7741 39.5446,127.9499 81.1602,145.4062 l -0.3653,14.7793 c -53.5132,1.9035 -106.93,3.156 -160.457,-0.4199 8.388,-29.8719 24.5007,-55.9036 20.7656,-87.0547 -2.9521,-24.6174 -29.9435,-33.8433 -50.4179,-39.4355 -19.1056,-5.2184 -31.986,-23.2617 -52.2129,-23.2617 -0.5512,0 -1.1349,-0.027 -1.6973,0 -23.3421,1.1379 -46.7778,8.3178 -66.9883,20.0664 -21.1064,12.2695 -4.2004,36.127 10.0821,46.623 13.1511,9.665 27.8769,18.6699 44.4277,18.6699 10.8789,0 27.4836,-6.3906 43.3281,-6.3906 5.9908,0 10.4265,1.2161 10.8809,4.6934 3.7411,28.628 -27.7001,63.7145 -14.4746,96.4394 23.0907,57.1352 57.659,53.8635 104.5254,55.3086 37.0276,0 73.9719,-4.312 110.9394,-7.6074 l -8.6172,567.6914 h 92.8711 l -8.6738,-571.4375 c 20.1243,-0.142 40.249,-0.2835 60.373,-0.4258 118.831,-0.838 179.1115,73.2891 193.6797,114.5098 15.1424,42.8443 26.0975,87.6613 22.2637,133.2793 -4.6134,54.8889 -12.6831,110.3112 -8.1875,165.2265 3.9655,48.4414 20.7529,95.3798 32.2461,142.3653 2.6845,10.9763 10.4902,16.4726 17.7715,16.4726 7.9572,0 15.301,-6.5572 14.7754,-19.6679 -2.3871,-60.5362 -16.3744,-112.282 -14.7754,-168.1211 1.3744,-47.9908 13.7421,-94.1314 16.5722,-142.2657 7.5338,-128.1275 0.3064,-320.3856 -264.4628,-318.1738 0,0 -42.2189,0.1048 -71.5567,0.502 l -0.3066,-12.3653 c 41.6156,-17.4563 79.6348,-81.6321 81.1601,-145.4062 2.5569,-106.90345 -30.952,-138.97056 -72.2656,-148.91212 V 887.3468 Z m 31.1718,31.27734 h 27.7539 v 43.76563 c 10.1815,0.13966 20.724,-0.96237 30.4239,2.77539 30.0341,13.24825 41.4179,43.43794 41.4179,116.77934 0,45.1586 -32.565,103.6374 -58.498,115.2871 -7.8505,3.2529 -16.8189,4.6972 -25.7246,4.6972 -0.4982,0 -0.9981,0 -1.4961,-0.014 -0.498,0.01 -0.9979,0.014 -1.4961,0.014 -8.9057,0 -17.8741,-1.4443 -25.7246,-4.6972 -25.933,-11.6497 -58.4981,-70.1285 -58.4981,-115.2871 0,-73.3414 11.3839,-103.53109 41.418,-116.77934 9.6999,-3.73776 20.2423,-2.63573 30.4238,-2.77539 z m -267.4609,199.08596 c 0.368,0 0.6637,0.068 0.7988,0.1 16.0791,3.7018 28.7171,17.211 45.4238,21.8652 14.0588,3.9169 37.1709,9.1732 32.3477,29.75 -6.4363,27.4582 -24.8562,54.0252 -19.0684,82.7637 3.6216,17.9823 23.6353,19.5664 39.834,19.5664 60.0914,0 151.2704,-3.5834 210.0528,-4.6914 22.8923,-0.4314 45.7897,-0.7521 68.6855,-0.5996 102.2802,0.6815 164.4493,14.3854 206.6582,71.4824 73.0973,98.8811 48.1341,197.8146 29.9512,322.666 5.089,-73.6687 29.5085,-189.6945 -46.2246,-289.9199 -48.8238,-64.6143 -130.4395,-79.6847 -189.6856,-79.7695 l -69.7851,-0.1 c -69.5285,-0.1 -144.9285,10.0839 -191.7813,10.0839 -41.1956,0 -69.8473,-13.8575 -66.3906,-54.0117 2.4769,-28.7716 25.1863,-55.5046 16.6719,-84.5586 -3.7873,-12.9236 -15.0941,-15.875 -27.3555,-15.875 -9.5797,0 -38.4046,3.4942 -49.0176,3.4942 -10.1463,0 -19.912,-1.9758 -29.3515,-10.2832 -17.9762,-15.821 31.0321,-21.9629 38.2363,-21.9629 z m -3.4863,7.0957 v 0 c -9.044,10e-4 -31.2683,10.713 -10.4258,10.8066 3.4039,0.016 10.9151,1.0332 16.4804,1.0332 6.6377,0 10.5064,-1.447 1.3301,-7.7754 -2.2211,-1.5321 -4.2263,-3.9738 -7.0625,-4.0585 -0.1726,-0.01 -0.2503,-0.01 -0.3222,-0.01 z m 287.0039,191.9316 7.748,290.7207 h -19.8555 l 7.7442,-290.4863 c 1.4542,-0.082 2.9089,-0.1609 4.3633,-0.2344 z m -11.5743,308.2266 h 18.7891 l 0.6406,27.7598 h -20.0703 z m 20.0704,59.0332 0.4257,19.5351 h -22.2031 l 0.4258,-19.5351 z m -22.5254,50.8086 h 23.6992 l 0.6406,30.2109 h -24.9805 z m 24.9804,61.5937 1.3868,59.67 h -29.0352 l 1.3867,-59.67 z"
       sodipodi:nodetypes="ccsccccsscccsscsccccccccscscsccccscccccccscscscscccscccsssccccccssssscscccsccccccccccccccccccccccccccccc" />
  </g>
</svg>
