<?xml version="1.0" encoding="UTF-8" standalone="no"?>
<svg
   width="652.2702"
   height="1000"
   id="svg3023"
   sodipodi:version="0.32"
   inkscape:version="1.4.3 (0d15f75, 2025-12-25)"
   sodipodi:docname="1330B.svg"
   version="1.1"
   xmlns:inkscape="http://www.inkscape.org/namespaces/inkscape"
   xmlns:sodipodi="http://sodipodi.sourceforge.net/DTD/sodipodi-0.dtd"
   xmlns="http://www.w3.org/2000/svg"
   xmlns:svg="http://www.w3.org/2000/svg"
   xmlns:rdf="http://www.w3.org/1999/02/22-rdf-syntax-ns#"
   xmlns:cc="http://creativecommons.org/ns#"
   xmlns:dc="http://purl.org/dc/elements/1.1/">
  <metadata
     id="metadata3030">
    <rdf:RDF>
      <cc:Work
         rdf:about="">
        <dc:format>image/svg+xml</dc:format>
        <dc:type
           rdf:resource="http://purl.org/dc/dcmitype/StillImage" />
        <dc:creator>
          <cc:Agent>
            <dc:title>Serge Rosmorduc optimisé par ST</dc:title>
          </cc:Agent>
        </dc:creator>
        <dc:publisher>
          <cc:Agent>
            <dc:title>Serge Rosmorduc</dc:title>
          </cc:Agent>
        </dc:publisher>
        <dc:date>25/12/06</dc:date>
        <cc:license
           rdf:resource="http://creativecommons.org/licenses/GPL/2.0/" />
        <dc:description>FCD p. 251 in (skw) controllers of gangs ; Lesestücke 86,2
la massue est de Serge Rosmorduc.
</dc:description>
      </cc:Work>
      <cc:License
         rdf:about="http://creativecommons.org/licenses/GPL/2.0/">
        <cc:permits
           rdf:resource="http://web.resource.org/cc/Reproduction" />
        <cc:permits
           rdf:resource="http://web.resource.org/cc/Distribution" />
        <cc:requires
           rdf:resource="http://web.resource.org/cc/Notice" />
        <cc:permits
           rdf:resource="http://web.resource.org/cc/DerivativeWorks" />
        <cc:requires
           rdf:resource="http://web.resource.org/cc/ShareAlike" />
        <cc:requires
           rdf:resource="http://web.resource.org/cc/SourceCode" />
      </cc:License>
    </rdf:RDF>
  </metadata>
  <defs
     id="defs3028" />
  <sodipodi:namedview
     inkscape:window-height="998"
     inkscape:window-width="1680"
     inkscape:pageshadow="2"
     inkscape:pageopacity="0.0"
     guidetolerance="10.0"
     gridtolerance="10.0"
     objecttolerance="10.0"
     borderopacity="1.0"
     bordercolor="#666666"
     pagecolor="#ffffff"
     id="base"
     inkscape:showpageshadow="2"
     inkscape:pagecheckerboard="0"
     inkscape:deskcolor="#d1d1d1"
     inkscape:zoom="0.53386562"
     inkscape:cx="-139.54823"
     inkscape:cy="295.01806"
     inkscape:window-x="-8"
     inkscape:window-y="-8"
     inkscape:window-maximized="1"
     inkscape:current-layer="svg3023"
     showguides="true">
    <sodipodi:guide
       position="322.25913,0"
       orientation="1,0"
       id="guide4"
       inkscape:locked="false" />
  </sodipodi:namedview>
  <path
     id="path7"
     style="fill:#000000;stroke:none;stroke-width:0.999997"
     d="M 278.74414,0.03515625 V 45.271484 C 241.3038,55.303604 196.114,88.381068 199.58008,198.30273 c 1.61375,50.77414 27.57749,133.9737 84.80078,149.30665 l -1.9707,66.96679 C 236.23304,384.75746 188.23881,368.56576 138.42773,366.00195 5.5194787,359.16108 0,454.72892 0,470.6543 c 0,21.37862 23.902356,109.56424 150.60938,73.08789 48.09946,-13.84678 91.52231,-39.56144 130.26953,-77.14844 L 265.18359,1000 H 379.33594 L 365.25391,521.4375 c 57.36345,59.10699 96.44494,154.49077 119.79687,283.65625 l 35.43555,6.64453 C 500.59245,646.69298 447.82248,533.45575 363.73828,469.92578 l -0.5,-16.99023 c 144.69961,-3.00167 231.44563,50.57144 260.23828,160.57422 l 28.79297,-18.82618 C 628.68831,460.56523 531.92066,398.90041 361.96484,409.68555 l -1.82617,-62.07617 C 417.36196,332.27642 443.3257,249.07687 444.93945,198.30273 448.40553,88.381068 403.21573,55.303604 365.77539,45.271484 V 0.03515625 Z M 310.5,31.791016 h 23.51953 V 76.34375 c 16.17434,-0.46513 26.13554,-0.616276 34.0332,2.746094 42.7999,15.23926 45.80968,81.305386 44.22266,118.124996 -2.22809,50.82644 -27.52417,109.68891 -65.80273,119.22071 -7.49024,2.1825 -15.84661,3.44229 -24.21289,3.46289 -8.36628,-0.0206 -16.72266,-1.28039 -24.21289,-3.46289 -38.27856,-9.53172 -63.57465,-68.39427 -65.80274,-119.22071 -1.58702,-36.81961 1.42276,-102.885736 44.22266,-118.124996 7.89766,-3.36237 17.85886,-3.211224 34.0332,-2.746094 z m 11.75977,330.519534 2.44726,50.02929 -4.91211,0.35157 z m -189.71485,44.70117 c 26.65232,0.86737 74.01882,7.01768 108.87305,37.06445 -18.45702,22.14838 -44.4825,39.68167 -78.07422,52.60156 -68.103964,26.19383 -114.997634,13.6743 -117.939453,-30.45312 -3.009996,-45.15009 42.06235,-60.67991 87.140623,-59.21289 z m 183.86524,74.8789 c 3.82469,2.36716 7.87299,5.02775 12.09179,8.00782 l 10.32813,211.12304 h -33.14063 z m 23.35351,251.50782 0.76172,27.95898 h -36.53125 l 0.76172,-27.95898 z m -36.70312,59.71484 h 38.39843 l 0.5879,19.89063 h -39.57422 z m 39.91992,52.20117 0.86523,29.95899 h -43.17187 l 0.86523,-29.95899 z m -43.24024,61.74805 h 45.03907 l 1.86718,61.18359 h -48.77343 z"
     sodipodi:nodetypes="cccccsssccccccccccccccccccccccccccccccccscsssccccccccccccccccccccccccc" />
</svg>
