<?xml version="1.0" encoding="UTF-8" standalone="no"?>
<svg
   width="759.45044"
   height="1000"
   id="svg2891"
   sodipodi:version="0.32"
   inkscape:version="1.4.3 (0d15f75, 2025-12-25)"
   sodipodi:docname="1330D.svg"
   version="1.1"
   xmlns:inkscape="http://www.inkscape.org/namespaces/inkscape"
   xmlns:sodipodi="http://sodipodi.sourceforge.net/DTD/sodipodi-0.dtd"
   xmlns="http://www.w3.org/2000/svg"
   xmlns:svg="http://www.w3.org/2000/svg"
   xmlns:rdf="http://www.w3.org/1999/02/22-rdf-syntax-ns#"
   xmlns:cc="http://creativecommons.org/ns#"
   xmlns:dc="http://purl.org/dc/elements/1.1/">
  <metadata
     id="metadata2898">
    <rdf:RDF>
      <cc:Work
         rdf:about="">
        <dc:format>image/svg+xml</dc:format>
        <dc:type
           rdf:resource="http://purl.org/dc/dcmitype/StillImage" />
        <cc:license
           rdf:resource="http://creativecommons.org/licenses/GPL/2.0/" />
        <dc:date>2/12/2006
</dc:date>
        <dc:publisher>
          <cc:Agent>
            <dc:title>Serge Rosmorduc</dc:title>
          </cc:Agent>
        </dc:publisher>
        <dc:creator>
          <cc:Agent>
            <dc:title>Serge Thomas</dc:title>
          </cc:Agent>
        </dc:creator>
        <dc:description>réfection-optimisation du signe  qui avait une discrète asymétrie au niveau de la tête de la massue ! j'ai donc déconstruit et reconstruit  après avoir bien harmonisé l'ovale de la tête de l'engin</dc:description>
      </cc:Work>
      <cc:License
         rdf:about="http://creativecommons.org/licenses/GPL/2.0/">
        <cc:permits
           rdf:resource="http://web.resource.org/cc/Reproduction" />
        <cc:permits
           rdf:resource="http://web.resource.org/cc/Distribution" />
        <cc:requires
           rdf:resource="http://web.resource.org/cc/Notice" />
        <cc:permits
           rdf:resource="http://web.resource.org/cc/DerivativeWorks" />
        <cc:requires
           rdf:resource="http://web.resource.org/cc/ShareAlike" />
        <cc:requires
           rdf:resource="http://web.resource.org/cc/SourceCode" />
      </cc:License>
    </rdf:RDF>
  </metadata>
  <defs
     id="defs2896" />
  <sodipodi:namedview
     inkscape:window-height="998"
     inkscape:window-width="1680"
     inkscape:pageshadow="2"
     inkscape:pageopacity="0.0"
     guidetolerance="10.0"
     gridtolerance="10.0"
     objecttolerance="10.0"
     borderopacity="1.0"
     bordercolor="#666666"
     pagecolor="#ffffff"
     id="base"
     inkscape:zoom="0.26693281"
     inkscape:cx="-9.3656527"
     inkscape:cy="777.34918"
     inkscape:window-x="-8"
     inkscape:window-y="-8"
     inkscape:current-layer="svg2891"
     inkscape:showpageshadow="2"
     inkscape:pagecheckerboard="0"
     inkscape:deskcolor="#d1d1d1"
     inkscape:window-maximized="1"
     showguides="true">
    <sodipodi:guide
       position="0,788.76499"
       orientation="1,0"
       id="guide17"
       inkscape:locked="false" />
    <sodipodi:guide
       position="390.8639,29.15676"
       orientation="0,-1"
       id="guide1"
       inkscape:locked="false" />
  </sodipodi:namedview>
  <path
     id="use1"
     style="display:inline;fill:#000000;stroke:none;stroke-width:1"
     d="M 392.2793 0 L 392.2793 44.292969 C 352.13258 53.953738 319.57001 85.11402 322.05469 188.99805 C 323.47911 248.55438 357.65617 308.47186 396.21094 328.10938 C 319.51676 330.68095 243.16656 335.08573 166.59961 329.9707 C 175.3068 298.96197 192.0336 271.93808 188.15625 239.60156 C 185.09178 214.04749 157.07395 204.47112 135.82031 198.66602 C 115.98773 193.24917 102.61576 174.51953 81.619141 174.51953 C 81.046936 174.51953 80.4411 174.49113 79.857422 174.51953 C 55.626984 175.70071 31.299891 183.15395 10.320312 195.34961 C -11.589208 208.08602 5.9611812 232.85274 20.787109 243.74805 C 34.438595 253.78091 49.723701 263.12695 66.904297 263.12695 C 78.197155 263.12695 95.433547 256.49414 111.88086 256.49414 C 118.09967 256.49414 122.70602 257.75557 123.17773 261.36523 C 127.06113 291.08266 94.421609 327.50449 108.15039 361.47461 C 132.11986 420.78401 168.00454 417.3887 216.6543 418.88867 C 277.66144 418.88867 338.44884 407.60802 399.46484 407.17773 C 399.47687 407.17765 399.48993 407.17782 399.50195 407.17773 L 397.87891 514.13086 L 397.80664 514.12891 C 325.62739 511.45564 249.87067 523.29983 178.31055 516.20117 C 185.23003 493.81045 198.49145 474.26451 195.41016 450.91211 C 192.97516 432.45774 170.74334 425.56722 153.85352 421.375 C 138.09287 417.46305 127.42583 403.96485 110.74023 403.96484 C 110.28551 403.96484 109.75481 403.94434 109.29102 403.96484 C 90.035414 404.8179 70.724853 410.18487 54.052734 418.99219 C 36.641537 428.19004 50.665328 446.04782 62.447266 453.91602 C 73.295883 461.16144 85.481582 467.9082 99.134766 467.9082 C 109.15795 467.9082 121.64084 463.14062 134.78516 463.14062 C 137.50712 463.14062 143.24499 463.51725 143.69727 466.66406 C 146.78201 488.1253 121.62509 514.09794 131.7793 538.89648 C 140.10546 559.23143 159.15258 577.74837 184.63281 579.41797 C 259.2296 584.30751 319.96971 570.8125 396.97852 570.8125 C 396.9919 570.8125 397.00419 570.8125 397.01758 570.8125 L 390.93164 971.75586 L 436.05664 971.75586 L 481.17969 971.75586 L 475.23438 580.13672 C 476.131 580.37485 477.02493 580.61662 477.91602 580.86523 C 539.06517 597.92543 571.99887 633.05323 581.44727 657.34766 C 593.93853 689.46615 602.95179 723.15792 599.78906 757.35547 C 595.98355 798.50281 589.34406 840.02998 593.05273 881.19727 C 596.32392 917.51109 610.20669 952.71687 619.6875 987.93945 C 621.90225 996.16782 628.29426 1000.2735 634.30078 1000.2734 C 640.86501 1000.2734 646.96286 995.38522 646.5293 985.55664 C 644.56022 940.17555 633.08532 901.39694 634.4043 859.53711 C 635.53821 823.56085 645.64586 788.87879 647.98047 752.79492 C 650.68762 710.95595 663.5149 570.07133 537.91992 529.04883 C 517.98535 521.96343 497.09038 517.8047 476.1543 517.0293 L 474.27539 516.95898 L 472.60156 406.66211 C 472.71503 406.66131 472.82794 406.66096 472.94141 406.66016 C 596.2944 405.79023 658.86965 482.73822 673.99219 525.52734 C 689.71081 570.00222 701.08142 616.52498 697.10156 663.87891 C 692.31284 720.85651 683.93684 778.3875 688.60352 835.39258 C 692.71996 885.67726 710.14772 934.40242 722.07812 983.17578 C 724.86487 994.56985 732.96696 1000.2754 740.52539 1000.2754 C 748.78549 1000.2754 756.40885 993.46895 755.86328 979.85938 C 753.38535 917.01944 738.8656 863.30383 740.52539 805.33984 C 741.95219 755.52273 754.79066 707.62627 757.72852 657.66016 C 765.54886 524.65699 758.04598 325.08309 483.20117 327.37891 C 483.20117 327.37891 481.00994 327.3855 477.26562 327.39844 C 515.2592 307.05874 548.64903 247.85152 550.05664 188.99805 C 552.54132 85.11402 519.97875 53.953738 479.83203 44.292969 L 479.83203 0 L 436.05664 0 L 392.2793 0 z M 422.57031 30.394531 L 436.05664 30.394531 L 449.54102 30.394531 L 449.54102 72.923828 C 459.43495 73.059543 469.67954 71.988904 479.10547 75.621094 C 508.29128 88.495157 519.35352 117.83163 519.35352 189.10156 C 519.35352 232.98469 487.70835 289.81215 462.50781 301.13281 C 454.87904 304.29384 446.16393 305.69727 437.50977 305.69727 C 437.02564 305.69727 436.54057 305.69359 436.05664 305.68359 C 435.57271 305.69359 435.08569 305.69727 434.60156 305.69727 C 425.9474 305.69727 417.23229 304.29384 409.60352 301.13281 C 384.40298 289.81215 352.75781 232.98469 352.75781 189.10156 C 352.75781 117.83163 363.82005 88.495157 393.00586 75.621094 C 402.43179 71.988904 412.67638 73.059543 422.57031 72.923828 L 422.57031 30.394531 z M 79.029297 201.36133 C 79.411334 201.36133 79.717183 201.43247 79.857422 201.46484 C 96.548383 205.30738 109.66923 219.32889 127.01172 224.16016 C 141.60546 228.2262 165.59664 233.68316 160.58984 255.04297 C 153.90861 283.54606 134.78686 311.12298 140.79492 340.95508 C 144.55442 359.6217 165.32947 361.26758 182.14453 361.26758 C 244.52268 361.26758 339.1721 357.54657 400.19141 356.39648 C 423.95483 355.94865 447.72312 355.61701 471.49023 355.77539 C 577.66245 356.48285 642.1985 370.70667 686.01367 429.97656 C 761.89266 532.62048 735.97845 635.31923 717.10352 764.92188 C 722.38623 688.44966 747.73627 568.00822 669.12109 463.96875 C 618.43946 396.89559 533.71741 381.254 472.2168 381.16602 L 399.77734 381.0625 C 327.60287 380.95924 249.33097 391.52931 200.69531 391.5293 C 157.93212 391.5293 128.19104 377.14518 131.7793 335.46289 C 134.35045 305.59646 157.92451 277.84525 149.08594 247.68555 C 145.15457 234.27008 133.41731 231.20703 120.68945 231.20703 C 110.74512 231.20703 80.823441 234.83398 69.806641 234.83398 C 59.274271 234.83398 49.136593 232.78377 39.337891 224.16016 C 20.67775 207.73719 71.550994 201.36133 79.029297 201.36133 z M 75.410156 208.73047 C 66.022042 208.73147 42.952273 219.85196 64.587891 219.94922 C 68.121295 219.96542 75.918224 221.02148 81.695312 221.02148 C 88.585679 221.02148 92.601557 219.51852 83.076172 212.94922 C 80.770544 211.35875 78.688195 208.82418 75.744141 208.73633 C 75.564967 208.73133 75.484727 208.73047 75.410156 208.73047 z M 437.89648 406.90625 L 440.79688 515.7207 L 431.32422 515.36914 L 434.21484 406.93359 C 435.44253 406.92494 436.6688 406.91491 437.89648 406.90625 z M 108.66797 423.3457 L 109.29102 423.3457 C 122.555 426.12066 133.02484 436.33333 146.80664 439.82227 C 158.40404 442.75865 177.52178 446.67817 173.54297 462.10352 C 168.23352 482.68753 152.913 502.53245 157.6875 524.07617 C 160.67513 537.55679 177.27974 538.79297 190.64258 538.79297 C 192.8664 538.79297 194.99461 538.70342 196.96484 538.6875 C 278.23651 538.10755 343.9679 533.17023 397.49609 534.85156 L 476.67383 537.33984 C 529.1923 538.9895 564.77128 556.08574 591.08398 588.43164 C 651.38375 662.55778 630.74965 736.71752 615.75 830.3125 C 619.94816 775.08671 640.08753 688.12617 577.61328 612.99219 C 553.7843 584.33745 515.52071 568.21256 477.39844 561.28125 C 451.60378 556.59133 424.07975 552.71763 397.18555 552.57617 C 317.53006 552.15715 213.14748 565.04698 179.03516 559.10547 C 161.51851 556.05862 149.09985 536.40374 150.64062 520.13867 C 152.68389 498.57006 171.3442 478.59878 164.32031 456.81836 C 161.19615 447.13013 151.94666 444.90039 141.83203 444.90039 C 134.59329 444.90039 126.90767 446.06853 120.79297 446.35156 C 114.19409 446.65665 107.74654 447.49219 101.41406 447.49219 C 93.044137 447.49219 84.950919 445.94644 77.164062 439.71875 C 62.335268 427.85855 102.72492 423.3457 108.66797 423.3457 z M 105.78906 428.50781 C 98.329381 428.50781 79.993006 436.53916 97.1875 436.60938 C 99.99546 436.62117 106.19215 437.38477 110.7832 437.38477 C 116.25884 437.38477 119.45053 436.29879 111.88086 431.55469 C 110.04855 430.40609 108.39236 428.57541 106.05273 428.51172 L 105.78906 428.50781 z M 429.80664 572.30469 C 433.9793 572.69208 438.16496 573.1607 442.34375 573.7168 L 445.70312 699.77148 L 436.05664 699.77148 L 426.4082 699.77148 L 429.80664 572.30469 z M 426.92773 716.7832 L 436.05664 716.82422 L 445.18555 716.7832 L 445.80859 743.75977 L 436.05664 743.71875 L 426.30469 743.75977 L 426.92773 716.7832 z M 436.05664 774.10938 L 446.42969 774.15039 L 446.84375 793.13281 L 436.05664 793.09375 L 425.26758 793.13281 L 425.68164 774.15039 L 436.05664 774.10938 z M 424.54102 823.52344 L 436.05664 823.68164 L 447.57031 823.52344 L 448.19336 852.88086 L 436.05664 852.75977 L 423.91797 852.88086 L 424.54102 823.52344 z M 436.05664 883.2168 L 448.81641 883.37695 L 450.16406 941.36133 L 436.05664 941.36133 L 421.94922 941.36133 L 423.29688 883.37695 L 436.05664 883.2168 z " />
</svg>
