<?xml version="1.0" encoding="UTF-8" standalone="no"?>
<!-- Created with Inkscape (http://www.inkscape.org/) -->

<svg
   width="1000"
   height="1000"
   id="svg1290"
   sodipodi:version="0.32"
   inkscape:version="1.4.3 (0d15f75, 2025-12-25)"
   sodipodi:docname="1330C.svg"
   version="1.1"
   xmlns:inkscape="http://www.inkscape.org/namespaces/inkscape"
   xmlns:sodipodi="http://sodipodi.sourceforge.net/DTD/sodipodi-0.dtd"
   xmlns="http://www.w3.org/2000/svg"
   xmlns:svg="http://www.w3.org/2000/svg"
   xmlns:rdf="http://www.w3.org/1999/02/22-rdf-syntax-ns#"
   xmlns:cc="http://creativecommons.org/ns#"
   xmlns:dc="http://purl.org/dc/elements/1.1/">
  <defs
     id="defs3" />
  <sodipodi:namedview
     id="base"
     pagecolor="#ffffff"
     bordercolor="#666666"
     borderopacity="1.0"
     inkscape:pageopacity="0.0"
     inkscape:pageshadow="2"
     inkscape:zoom="0.257"
     inkscape:cx="647.85992"
     inkscape:cy="239.29961"
     inkscape:document-units="px"
     inkscape:current-layer="layer1"
     inkscape:window-width="1680"
     inkscape:window-height="998"
     inkscape:window-x="-8"
     inkscape:window-y="-8"
     inkscape:showpageshadow="2"
     inkscape:pagecheckerboard="0"
     inkscape:deskcolor="#d1d1d1"
     inkscape:window-maximized="1"
     showguides="true">
    <sodipodi:guide
       position="583.3918,652.327"
       orientation="1,0"
       id="guide2"
       inkscape:locked="false" />
    <sodipodi:guide
       position="546.5645,632.8984"
       orientation="0.99969365,-0.02475092"
       id="guide3"
       inkscape:locked="false" />
    <sodipodi:guide
       position="304.0712,795.5059"
       orientation="0,-1"
       id="guide4"
       inkscape:locked="false" />
    <sodipodi:guide
       position="227.11361,759.98575"
       orientation="1,0"
       id="guide5"
       inkscape:locked="false" />
  </sodipodi:namedview>
  <metadata
     id="metadata4">
    <rdf:RDF>
      <cc:Work
         rdf:about="">
        <dc:format>image/svg+xml</dc:format>
        <dc:type
           rdf:resource="http://purl.org/dc/dcmitype/StillImage" />
        <cc:license
           rdf:resource="http://creativecommons.org/licenses/by/2.0/" />
        <dc:subject>
          <rdf:Bag>
            <rdf:li>JSesh hieroglyph</rdf:li>
          </rdf:Bag>
        </dc:subject>
      </cc:Work>
      <cc:License
         rdf:about="http://creativecommons.org/licenses/by/2.0/">
        <cc:permits
           rdf:resource="http://web.resource.org/cc/Reproduction" />
        <cc:permits
           rdf:resource="http://web.resource.org/cc/Distribution" />
        <cc:requires
           rdf:resource="http://web.resource.org/cc/Notice" />
        <cc:requires
           rdf:resource="http://web.resource.org/cc/Attribution" />
        <cc:permits
           rdf:resource="http://web.resource.org/cc/DerivativeWorks" />
        <cc:requires
           rdf:resource="http://web.resource.org/cc/ShareAlike" />
      </cc:License>
    </rdf:RDF>
  </metadata>
  <g
     transform="translate(-832.831,-887.3468)"
     id="layer1"
     inkscape:groupmode="layer"
     inkscape:label="Layer 1"
     style="display:inline">
    <path
       id="path1352"
       style="color:#000000;display:inline;overflow:visible;visibility:visible;fill:#000000;fill-opacity:1;fill-rule:nonzero;stroke:none;stroke-width:28.6894;stroke-linecap:butt;stroke-linejoin:miter;stroke-miterlimit:4;stroke-dashoffset:0;stroke-opacity:1;marker:none;marker-start:none;marker-mid:none;marker-end:none"
       d="M 1412.1708 887.37219 L 1412.1708 932.60852 C 1374.7304 942.64064 1329.5407 975.71804 1333.0068 1085.6398 C 1334.6206 1136.4139 1360.5843 1219.6135 1417.8076 1234.9464 L 1417.6396 1240.6222 C 1351.4163 1243.0666 1285.4166 1246.0251 1219.247 1241.6046 C 1227.635 1211.7327 1243.7477 1185.701 1240.0126 1154.5499 C 1237.0605 1129.9325 1210.0691 1120.7066 1189.5947 1115.1144 C 1170.4891 1109.896 1157.6087 1091.8527 1137.3818 1091.8527 C 1136.8306 1091.8527 1136.2469 1091.8257 1135.6845 1091.8527 C 1112.3424 1092.9906 1088.9067 1100.1705 1068.6962 1111.9191 C 1047.5898 1124.1886 1064.4958 1148.0461 1078.7783 1158.5421 C 1091.9294 1168.2071 1106.6552 1177.212 1123.206 1177.212 C 1134.0849 1177.212 1150.6896 1170.8214 1166.5341 1170.8214 C 1172.5249 1170.8214 1176.9606 1172.0375 1177.415 1175.5148 C 1181.1561 1204.1428 1149.7149 1239.2293 1162.9404 1271.9542 C 1186.0311 1329.0894 1220.5994 1325.8177 1267.4658 1327.2628 C 1316.8396 1327.2628 1366.0644 1319.594 1415.3955 1316.8956 L 1398.6103 1887.337 L 1512.7626 1887.337 L 1495.9404 1315.6124 C 1502.0799 1315.5691 1508.2189 1315.5269 1514.3583 1315.4835 C 1633.1893 1314.6455 1693.4698 1388.7726 1708.038 1429.9933 C 1723.1804 1472.8376 1734.1355 1517.6546 1730.3017 1563.2726 C 1725.6883 1618.1615 1717.6186 1673.5838 1722.1142 1728.4991 C 1726.0797 1776.9405 1742.8671 1823.8789 1754.3603 1870.8644 C 1757.0448 1881.8407 1764.8505 1887.337 1772.1318 1887.337 C 1780.089 1887.337 1787.4328 1880.7798 1786.9072 1867.6691 C 1784.5201 1807.1329 1770.5328 1755.3871 1772.1318 1699.548 C 1773.5062 1651.5572 1785.8739 1605.4166 1788.704 1557.2823 C 1796.2378 1429.1548 1789.0104 1236.8967 1524.2412 1239.1085 C 1524.2412 1239.1085 1510.7354 1239.1427 1493.6923 1239.2433 L 1493.5654 1234.9464 C 1550.7887 1219.6135 1576.7524 1136.4139 1578.3662 1085.6398 C 1581.8323 975.71804 1536.6425 942.64064 1499.2021 932.60852 L 1499.2021 887.37219 L 1412.1708 887.37219 z M 1443.9267 919.12805 L 1467.4462 919.12805 L 1467.4462 963.68078 C 1483.6205 963.21565 1493.5817 963.06451 1501.4794 966.42688 C 1544.2793 981.6661 1547.2892 1047.7323 1545.7021 1084.5519 C 1543.474 1135.3783 1518.178 1194.2408 1479.8994 1203.7726 C 1472.4092 1205.9551 1464.0528 1207.2149 1455.6865 1207.2355 C 1447.3202 1207.2145 1438.9639 1205.9551 1431.4736 1203.7726 C 1393.1951 1194.2409 1367.8989 1135.3783 1365.6708 1084.5519 C 1364.0838 1047.7323 1367.0936 981.6661 1409.8935 966.42688 C 1417.7912 963.06451 1427.7524 963.21565 1443.9267 963.68078 L 1443.9267 919.12805 z M 1134.8857 1117.7101 C 1135.2537 1117.7101 1135.5494 1117.7777 1135.6845 1117.8097 C 1151.7636 1121.5115 1164.4016 1135.0207 1181.1083 1139.6749 C 1195.1671 1143.5918 1218.2792 1148.8481 1213.456 1169.4249 C 1207.0197 1196.8831 1188.5998 1223.4501 1194.3876 1252.1886 C 1198.0092 1270.1709 1218.0229 1271.755 1234.2216 1271.755 C 1294.313 1271.755 1385.492 1268.1716 1444.2744 1267.0636 C 1467.1667 1266.6322 1490.0641 1266.3115 1512.9599 1266.464 C 1615.2401 1267.1455 1677.4092 1280.8494 1719.6181 1337.9464 C 1792.7154 1436.8275 1767.7522 1535.761 1749.5693 1660.6124 C 1754.6583 1586.9437 1779.0778 1470.9179 1703.3447 1370.6925 C 1654.5209 1306.0782 1572.9052 1291.0078 1513.6591 1290.923 L 1443.874 1290.8234 C 1374.3455 1290.7234 1298.9455 1300.9073 1252.0927 1300.9073 C 1210.8971 1300.9073 1182.2454 1287.0498 1185.7021 1246.8956 C 1188.179 1218.124 1210.8884 1191.391 1202.374 1162.337 C 1198.5867 1149.4134 1187.2799 1146.462 1175.0185 1146.462 C 1165.4388 1146.462 1136.6139 1149.9562 1126.0009 1149.9562 C 1115.8546 1149.9562 1106.0889 1147.9804 1096.6494 1139.673 C 1078.6732 1123.852 1127.6815 1117.7101 1134.8857 1117.7101 z M 1131.3994 1124.8058 L 1131.3994 1124.8097 C 1122.3554 1124.8107 1100.1311 1135.5227 1120.9736 1135.6163 C 1124.3775 1135.6323 1131.8887 1136.6495 1137.454 1136.6495 C 1144.0917 1136.6495 1147.9604 1135.2025 1138.7841 1128.8741 C 1136.563 1127.342 1134.5578 1124.9003 1131.7216 1124.8156 C 1131.549 1124.8056 1131.4713 1124.8058 1131.3994 1124.8058 z M 1458.9267 1315.8741 L 1472.2568 1588.3585 L 1439.1162 1588.3585 L 1452.4443 1315.9191 C 1454.6045 1315.9038 1456.7665 1315.8894 1458.9267 1315.8741 z M 1438.1826 1620.7355 L 1473.1904 1620.7355 L 1473.9521 1648.6945 L 1437.4208 1648.6945 L 1438.1826 1620.7355 z M 1436.4873 1680.4503 L 1474.8857 1680.4503 L 1475.4736 1700.3409 L 1435.8994 1700.3409 L 1436.4873 1680.4503 z M 1434.9658 1732.6515 L 1476.4072 1732.6515 L 1477.2724 1762.6105 L 1434.1005 1762.6105 L 1434.9658 1732.6515 z M 1433.1669 1794.3995 L 1478.206 1794.3995 L 1480.0732 1855.5831 L 1431.2998 1855.5831 L 1433.1669 1794.3995 z " />
  </g>
</svg>
