<?xml version="1.0" encoding="UTF-8" standalone="no"?>
<svg
   width="300"
   height="1000"
   version="1.1"
   id="svg1"
   sodipodi:docname="13301.svg"
   inkscape:version="1.4.2 (f4327f4, 2025-05-13)"
   xmlns:inkscape="http://www.inkscape.org/namespaces/inkscape"
   xmlns:sodipodi="http://sodipodi.sourceforge.net/DTD/sodipodi-0.dtd"
   xmlns="http://www.w3.org/2000/svg"
   xmlns:svg="http://www.w3.org/2000/svg">
  <defs
     id="defs1" />
  <sodipodi:namedview
     id="namedview1"
     pagecolor="#ffffff"
     bordercolor="#666666"
     borderopacity="1.0"
     inkscape:showpageshadow="2"
     inkscape:pageopacity="0.0"
     inkscape:pagecheckerboard="0"
     inkscape:deskcolor="#d1d1d1"
     inkscape:zoom="0.53386562"
     inkscape:cx="574.11451"
     inkscape:cy="879.43479"
     inkscape:window-width="1680"
     inkscape:window-height="998"
     inkscape:window-x="-8"
     inkscape:window-y="-8"
     inkscape:window-maximized="1"
     inkscape:current-layer="svg1"
     showguides="true">
    <sodipodi:guide
       position="0,1000"
       orientation="0,-1"
       id="guide1"
       inkscape:locked="false" />
    <sodipodi:guide
       position="0,0"
       orientation="0,-1"
       id="guide2"
       inkscape:locked="false" />
    <sodipodi:guide
       position="-48.701394,323.79987"
       orientation="0,-1"
       id="guide7"
       inkscape:locked="false" />
    <sodipodi:guide
       position="145.16211,261.95703"
       orientation="0,-1"
       id="guide8"
       inkscape:locked="false" />
    <sodipodi:guide
       position="174.63867,176.02832"
       orientation="1,0"
       id="guide9"
       inkscape:locked="false" />
    <sodipodi:guide
       position="152.62101,186.75479"
       orientation="0,-1"
       id="guide10"
       inkscape:locked="false" />
    <sodipodi:guide
       position="145.16016,171.22656"
       orientation="0,-1"
       id="guide3"
       inkscape:locked="false" />
  </sodipodi:namedview>
  <path
     id="path1"
     style="fill:#000000;stroke:none;stroke-width:55.6174"
     d="M 189.6543 0 C 179.64318 54.505006 160.36273 93.065876 131.8125 115.68359 C 103.63304 138.30132 85.279945 162.95797 76.751953 189.6543 C 68.22396 216.72142 42.639971 269.5582 0 348.16406 C 24.471635 359.28753 43.937925 350.57563 58.398438 322.02539 C 73.229732 293.47515 85.650986 276.04744 95.662109 269.74414 C 105.67323 263.44084 116.98129 249.90639 129.58789 229.14258 C 142.19449 208.00799 153.87427 206.52503 164.62695 224.69336 C 175.75042 242.49092 169.44688 265.85046 145.7168 294.77148 C 122.35752 323.6925 121.80189 352.79999 144.04883 382.0918 C 166.29577 411.75439 166.48162 441.04578 144.60547 469.9668 C 122.72931 498.88782 122.72931 528.17921 144.60547 557.8418 C 156.52449 574.00318 161.89395 589.88891 160.71484 605.5 C 159.72981 618.54148 154.17473 631.39146 144.04883 644.04883 C 121.80189 671.48671 122.17361 702.81866 145.16211 738.04297 L 145.92188 738.04297 C 164.80892 763.81008 167.04221 788.87845 152.62109 813.24609 C 150.49609 816.83675 145.16025 823.88853 145.16016 828.77344 C 106.51036 839.11 84.642578 864.72419 84.642578 905.62109 C 84.642578 920.45182 88.461493 940.00302 96.101562 964.27148 C 103.74164 988.09054 119.17836 1000 148.83984 1000 C 135.35736 951.91248 131.83203 921.35335 131.83203 908.32031 C 131.83203 886.27966 146.10194 875.047 174.63867 874.625 C 203.1754 875.047 217.44531 886.27966 217.44531 908.32031 C 217.44531 921.35335 213.91998 951.91248 200.4375 1000 C 230.09898 1000 245.5357 988.09054 253.17578 964.27148 C 260.81585 940.00302 264.63477 920.45182 264.63477 905.62109 C 264.63477 864.72419 242.76503 839.11 204.11523 828.77344 C 204.11532 823.22328 209.44679 816.83373 211.55469 813.24609 C 225.89718 788.83511 223.04673 763.86072 203.00391 738.32227 L 174.25977 738.04297 L 203.55859 738.04297 C 180.94087 702.81866 180.75697 671.48671 203.00391 644.04883 C 225.25085 616.24016 224.87913 587.69026 201.89062 558.39844 C 178.90214 529.10663 178.90214 499.81525 201.89062 470.52344 C 224.87912 441.23164 225.25085 411.75439 203.00391 382.0918 C 180.75697 352.79999 180.01549 323.6925 200.7793 294.77148 C 221.17233 265.85046 226.54853 236.74492 216.9082 207.45312 C 207.26786 178.16132 189.09867 161.84682 162.40234 158.50977 C 178.34598 141.82457 193.73316 115.86885 208.56445 80.644531 C 223.76653 45.420208 217.46298 18.539117 189.6543 0 z " />
</svg>
