<?xml version="1.0" encoding="UTF-8" standalone="no"?>
<!-- Created with Inkscape (http://www.inkscape.org/) -->

<svg
   width="1000"
   height="1000"
   id="svg2"
   sodipodi:version="0.32"
   inkscape:version="1.4.2 (f4327f4, 2025-05-13)"
   version="1.0"
   sodipodi:docname="13332.svg"
   xmlns:inkscape="http://www.inkscape.org/namespaces/inkscape"
   xmlns:sodipodi="http://sodipodi.sourceforge.net/DTD/sodipodi-0.dtd"
   xmlns="http://www.w3.org/2000/svg"
   xmlns:svg="http://www.w3.org/2000/svg"
   xmlns:rdf="http://www.w3.org/1999/02/22-rdf-syntax-ns#"
   xmlns:cc="http://creativecommons.org/ns#"
   xmlns:dc="http://purl.org/dc/elements/1.1/">
  <defs
     id="defs4" />
  <sodipodi:namedview
     id="base"
     pagecolor="#ffffff"
     bordercolor="#666666"
     borderopacity="1.0"
     inkscape:pageopacity="0.0"
     inkscape:pageshadow="2"
     inkscape:zoom="1.6777778"
     inkscape:cx="210.69537"
     inkscape:cy="136.19205"
     inkscape:document-units="px"
     inkscape:current-layer="layer1"
     width="1800px"
     height="1800px"
     inkscape:window-width="1680"
     inkscape:window-height="998"
     inkscape:window-x="-8"
     inkscape:window-y="-8"
     inkscape:showpageshadow="2"
     inkscape:pagecheckerboard="0"
     inkscape:deskcolor="#d1d1d1"
     inkscape:window-maximized="1"
     showguides="true">
    <sodipodi:guide
       position="547.79264,0"
       orientation="1,0"
       id="guide2"
       inkscape:locked="false" />
    <sodipodi:guide
       position="273.89632,0"
       orientation="1,0"
       id="guide3"
       inkscape:locked="false" />
    <sodipodi:guide
       position="25,25"
       orientation="0,1"
       id="guide4"
       inkscape:locked="false"
       inkscape:label=""
       inkscape:color="rgb(0,134,229)" />
    <sodipodi:guide
       position="25,25"
       orientation="1,0"
       id="guide5"
       inkscape:locked="false" />
    <sodipodi:guide
       position="522.79266,25"
       orientation="1,0"
       id="guide6"
       inkscape:locked="false" />
    <sodipodi:guide
       position="211.66015,737.68671"
       orientation="0,-1"
       id="guide7"
       inkscape:locked="false" />
    <sodipodi:guide
       position="0,873"
       orientation="0,1"
       id="guide1"
       inkscape:locked="false"
       inkscape:label=""
       inkscape:color="rgb(0,134,229)" />
    <sodipodi:guide
       position="0,987.5"
       orientation="0,1"
       id="guide8"
       inkscape:locked="false"
       inkscape:label=""
       inkscape:color="rgb(0,134,229)" />
  </sodipodi:namedview>
  <metadata
     id="metadata7">
    <rdf:RDF>
      <cc:Work
         rdf:about="">
        <dc:format>image/svg+xml</dc:format>
        <dc:type
           rdf:resource="http://purl.org/dc/dcmitype/StillImage" />
        <dc:creator>
          <cc:Agent>
            <dc:title>S. Rosmorduc</dc:title>
          </cc:Agent>
        </dc:creator>
        <dc:description>T36 shield, loosely inpired by a Karnak version and the Manuel de codage.</dc:description>
      </cc:Work>
    </rdf:RDF>
  </metadata>
  <g
     inkscape:label="Calque 1"
     inkscape:groupmode="layer"
     id="layer1">
    <path
       id="path8"
       style="baseline-shift:baseline;display:inline;overflow:visible;opacity:1;vector-effect:none;fill:#000000;enable-background:accumulate;stop-color:#000000;stop-opacity:1"
       d="M 364.55859,0 C 274.23236,0 261.5378,81.988588 261.39844,127.16602 101.11899,131.43291 0.078125,217.01259 0.078125,340.94922 V 1000 H 547.79297 V 340.94922 c 0,-121.27694 -96.78505,-206.103 -251.92188,-213.4375 10.2818,-7.19861 37.67969,-11.75 37.67969,-11.75 v 0 c 0,0 45.47404,-2.75592 65.17383,-18.119142 19.10696,-14.900896 26.96005,-38.64799 21.39844,-59.652344 C 414.56143,16.985881 393.8549,0 364.55859,0 Z m 0,25 c 20.73334,0 28.57341,8.719465 31.39844,19.388672 2.82503,10.669207 -1.09679,24.564253 -12.60742,33.541016 -10.91781,8.514441 -30.47006,10.014487 -53.125,13.054687 C 316.51958,92.823534 301.39575,95.919594 287.73242,103.5 296.23416,29.422619 342.23993,25 364.55859,25 Z m -90.62304,152 c 98.12845,0 223.85742,37.65209 223.85742,163.94922 V 950 H 50.078125 V 340.94922 C 50.078125,214.63992 175.82293,177 273.93555,177 Z m 0,112.91211 c -54.42632,0 -98.91211,44.32826 -98.91211,98.66601 0,54.33777 44.48579,98.66602 98.91211,98.66602 54.42632,0 98.91211,-44.32824 98.91211,-98.66602 0,-54.33776 -44.48579,-98.66601 -98.91211,-98.66601 z m 0,30 c 38.26085,0 68.91211,30.58923 68.91211,68.66601 0,38.0768 -30.65126,68.66602 -68.91211,68.66602 -0.0131,0 -0.0261,0 -0.0392,-1e-5 -38.24258,-0.0209 -68.87288,-30.60221 -68.87288,-68.66601 0,-38.07679 30.65125,-68.66601 68.91211,-68.66601 z"
       sodipodi:nodetypes="scsccscssssssssscsssccssssssssssssss" />
  </g>
</svg>
