<?xml version="1.0" encoding="UTF-8" standalone="no"?>
<svg
   width="550"
   height="800"
   version="1.1"
   id="svg1"
   sodipodi:docname="133CA.svg"
   inkscape:version="1.4.2 (f4327f4, 2025-05-13)"
   xmlns:inkscape="http://www.inkscape.org/namespaces/inkscape"
   xmlns:sodipodi="http://sodipodi.sourceforge.net/DTD/sodipodi-0.dtd"
   xmlns="http://www.w3.org/2000/svg"
   xmlns:svg="http://www.w3.org/2000/svg">
  <defs
     id="defs1" />
  <sodipodi:namedview
     id="namedview1"
     pagecolor="#ffffff"
     bordercolor="#666666"
     borderopacity="1.0"
     inkscape:showpageshadow="2"
     inkscape:pageopacity="0.0"
     inkscape:pagecheckerboard="0"
     inkscape:deskcolor="#d1d1d1"
     inkscape:zoom="0.66733202"
     inkscape:cx="-18.731305"
     inkscape:cy="270.48005"
     inkscape:window-width="1680"
     inkscape:window-height="998"
     inkscape:window-x="-8"
     inkscape:window-y="-8"
     inkscape:window-maximized="1"
     inkscape:current-layer="svg1"
     showguides="true">
    <sodipodi:guide
       position="251.94803,400"
       orientation="1,0"
       id="guide1"
       inkscape:locked="false" />
    <sodipodi:guide
       position="0,800"
       orientation="0,-1"
       id="guide2"
       inkscape:locked="false" />
    <sodipodi:guide
       position="0,50"
       orientation="0,1"
       id="guide3"
       inkscape:locked="false"
       inkscape:label=""
       inkscape:color="rgb(0,134,229)" />
    <sodipodi:guide
       position="0,424.82812"
       orientation="1,0"
       id="guide4"
       inkscape:locked="false" />
    <sodipodi:guide
       position="50,424.82812"
       orientation="-1,0"
       id="guide5"
       inkscape:label=""
       inkscape:locked="false"
       inkscape:color="rgb(0,134,229)" />
    <sodipodi:guide
       position="0,0"
       orientation="0,-1"
       id="guide6"
       inkscape:locked="false" />
    <sodipodi:guide
       position="251.94727,422.06836"
       orientation="0,-1"
       id="guide7"
       inkscape:locked="false" />
    <sodipodi:guide
       position="173.79297,0"
       orientation="1,0"
       id="guide8"
       inkscape:locked="false" />
    <sodipodi:guide
       position="135.17188,722.75781"
       orientation="1,0"
       id="guide9"
       inkscape:locked="false" />
    <sodipodi:guide
       position="0,740"
       orientation="0,1"
       id="guide10"
       inkscape:label=""
       inkscape:locked="false"
       inkscape:color="rgb(0,134,229)" />
    <sodipodi:guide
       position="185.17188,722.75781"
       orientation="-1,0"
       id="guide11"
       inkscape:label=""
       inkscape:locked="false"
       inkscape:color="rgb(0,134,229)" />
    <sodipodi:guide
       position="251.94727,462.06836"
       orientation="0,1"
       id="guide12"
       inkscape:label=""
       inkscape:locked="false"
       inkscape:color="rgb(0,134,229)" />
  </sodipodi:namedview>
  <path
     id="path1"
     style="fill:#000000;stroke:none;stroke-width:1"
     d="m 60.689453,0 c -27.586243,20.229894 -27.586243,40.459559 0,60.689453 40.459737,0 65.287027,5.518289 74.482427,16.552735 C 137.01098,137.93187 114.94183,192.18397 68.964844,240 22.987807,287.81603 0,332.87293 0,375.17188 12.873545,483.67764 39.540211,603.21837 80,733.79297 102.06894,777.93102 133.33318,800 173.79297,800 h 156.30859 c 40.45979,0 71.72403,-22.06898 93.79297,-66.20703 40.45979,-130.5746 67.12646,-250.11533 80,-358.62109 0,-42.29895 -22.98781,-87.35585 -68.96484,-135.17188 C 388.9527,192.18397 366.88356,137.93187 368.72266,77.242188 377.91806,66.207742 402.74534,60.689453 443.20508,60.689453 470.79132,40.459559 470.79132,20.229894 443.20508,0 Z M 185.17188,60 h 133.55078 v 26.164062 c 0,74.949678 57.70793,163.662888 109.12109,221.003908 11.73073,13.08327 16.31055,22.81224 16.31055,30.76367 H 59.740234 c 0,-7.95143 4.579809,-17.6804 16.310547,-30.76367 C 127.46394,249.82695 185.17188,161.11374 185.17188,86.164062 Z M 50,377.93164 H 453.89453 C 407.10759,630.0074 371.18248,750 330.10156,750 H 173.79297 C 132.71205,750 96.786938,630.0074 50,377.93164 Z"
     sodipodi:nodetypes="cccsccccccsccccccssccsscccccc" />
</svg>
