<?xml version="1.0" encoding="UTF-8" standalone="no"?>
<svg
   width="1100"
   height="1000"
   version="1.1"
   id="svg1"
   sodipodi:docname="1340E.svg"
   inkscape:version="1.4.3 (0d15f75, 2025-12-25)"
   xmlns:inkscape="http://www.inkscape.org/namespaces/inkscape"
   xmlns:sodipodi="http://sodipodi.sourceforge.net/DTD/sodipodi-0.dtd"
   xmlns="http://www.w3.org/2000/svg"
   xmlns:svg="http://www.w3.org/2000/svg">
  <defs
     id="defs1" />
  <sodipodi:namedview
     id="namedview1"
     pagecolor="#ffffff"
     bordercolor="#666666"
     borderopacity="1.0"
     inkscape:showpageshadow="2"
     inkscape:pageopacity="0.0"
     inkscape:pagecheckerboard="0"
     inkscape:deskcolor="#d1d1d1"
     inkscape:zoom="0.26693281"
     inkscape:cx="-151.72357"
     inkscape:cy="1298.0795"
     inkscape:window-width="1680"
     inkscape:window-height="998"
     inkscape:window-x="-8"
     inkscape:window-y="-8"
     inkscape:window-maximized="1"
     inkscape:current-layer="svg1"
     showguides="true">
    <sodipodi:guide
       position="0,650"
       orientation="0,1"
       id="guide2"
       inkscape:locked="false"
       inkscape:label=""
       inkscape:color="rgb(0,134,229)" />
    <sodipodi:guide
       position="0,0"
       orientation="0,-1"
       id="guide1"
       inkscape:locked="false" />
    <sodipodi:guide
       position="-236.01443,325"
       orientation="0,-1"
       id="guide3"
       inkscape:locked="false" />
    <sodipodi:guide
       position="0,700"
       orientation="0,1"
       id="guide5"
       inkscape:label=""
       inkscape:locked="false"
       inkscape:color="rgb(0,134,229)" />
  </sodipodi:namedview>
  <path
     id="path6"
     style="baseline-shift:baseline;display:inline;overflow:visible;opacity:1;vector-effect:none;fill:#000000;fill-rule:evenodd;stroke-miterlimit:5;enable-background:accumulate;stop-color:#000000;stop-opacity:1"
     d="M 642.5625 300.07812 C 579.69152 301.563 519.87459 324.35977 472.11719 372.11719 C 408.44064 435.79373 389.13776 520.9104 405.5625 606.11914 C 413.59342 647.78216 429.77253 689.72066 452.96875 730.46094 C 424.65154 763.47402 409.86389 800.24923 408.77148 836.29688 C 407.53318 877.159 424.06198 916.24556 453.9082 946.0918 C 483.75444 975.93802 522.84102 992.46682 563.70312 991.22852 C 599.75077 990.13611 636.52597 975.34845 669.53906 947.03125 C 710.27934 970.22747 752.21784 986.40659 793.88086 994.4375 C 879.08961 1010.8622 964.20623 991.5593 1027.8828 927.88281 C 1091.5594 864.20627 1110.8623 779.0896 1094.4375 693.88086 C 1086.4067 652.21883 1070.2267 610.28234 1047.0312 569.54297 C 1075.3665 536.52158 1090.1651 499.73317 1091.2578 463.67383 C 1092.4961 422.81173 1075.9672 383.7271 1046.1211 353.88086 C 1016.2748 324.03465 977.18831 307.50389 936.32617 308.74219 C 900.26707 309.83493 863.47858 324.63198 830.45703 352.9668 C 789.71802 329.77181 747.78078 313.59315 706.11914 305.5625 C 684.81696 301.45631 663.51949 299.58318 642.5625 300.07812 z M 643.67188 344.75977 C 661.14428 344.48797 679.15753 346.19279 697.60156 349.74805 C 771.37769 363.96905 850.99931 409.44853 920.77539 479.22461 C 990.5515 549.00069 1036.0309 628.62231 1050.252 702.39844 C 1064.473 776.17457 1049.0782 843.0468 996.0625 896.0625 C 943.04673 949.07817 876.17458 964.47295 802.39844 950.25195 C 728.62229 936.03096 649.0007 890.55146 579.22461 820.77539 C 509.44853 750.9993 463.96905 671.37769 449.74805 597.60156 C 435.52704 523.82544 450.92179 456.95321 503.9375 403.9375 C 543.69928 364.17572 591.25463 345.57516 643.67188 344.75977 z M 937.68945 353.7207 C 965.82507 352.86808 992.2635 363.66206 1014.3008 385.69922 C 1036.3378 407.73636 1047.1319 434.17494 1046.2793 462.31055 C 1045.6308 483.70956 1038.1459 506.57769 1021.582 529.31836 C 1001.8195 500.9794 978.68805 473.49664 952.5957 447.4043 C 926.50336 421.31195 899.02059 398.18046 870.68164 378.41797 C 893.4223 361.85414 916.29043 354.36919 937.68945 353.7207 z M 478.42188 770.6875 C 498.18351 799.02448 521.31367 826.50507 547.4043 852.5957 C 573.49493 878.68633 600.97552 901.8165 629.3125 921.57812 C 606.58333 938.1242 583.72791 945.60185 562.33984 946.25 C 534.20425 947.10263 507.76566 936.30862 485.72852 914.27148 C 463.69138 892.23434 452.89737 865.79576 453.75 837.66016 C 454.39815 816.27209 461.87579 793.41667 478.42188 770.6875 z " />
</svg>
