<?xml version="1.0" encoding="UTF-8" standalone="no"?>
<svg
   width="1100"
   height="1000"
   version="1.1"
   id="svg1"
   sodipodi:docname="1348C.svg"
   inkscape:version="1.4.3 (0d15f75, 2025-12-25)"
   xmlns:inkscape="http://www.inkscape.org/namespaces/inkscape"
   xmlns:sodipodi="http://sodipodi.sourceforge.net/DTD/sodipodi-0.dtd"
   xmlns="http://www.w3.org/2000/svg"
   xmlns:svg="http://www.w3.org/2000/svg">
  <defs
     id="defs1" />
  <sodipodi:namedview
     id="namedview1"
     pagecolor="#ffffff"
     bordercolor="#666666"
     borderopacity="1.0"
     inkscape:showpageshadow="2"
     inkscape:pageopacity="0.0"
     inkscape:pagecheckerboard="0"
     inkscape:deskcolor="#d1d1d1"
     inkscape:zoom="0.35818182"
     inkscape:cx="-92.13198"
     inkscape:cy="470.43147"
     inkscape:window-width="1680"
     inkscape:window-height="998"
     inkscape:window-x="-8"
     inkscape:window-y="-8"
     inkscape:window-maximized="1"
     inkscape:current-layer="svg1"
     showguides="true">
    <sodipodi:guide
       position="17.228435,982.01461"
       orientation="1,0"
       id="guide1"
       inkscape:locked="false" />
    <sodipodi:guide
       position="0,982.01678"
       orientation="1,0"
       id="guide2"
       inkscape:locked="false" />
    <sodipodi:guide
       position="479.68752,519.99443"
       orientation="1,0"
       id="guide3"
       inkscape:locked="false" />
  </sodipodi:namedview>
  <path
     id="path1"
     style="fill:#000000;stroke:none;stroke-width:1"
     d="M 186.47852 0.18359375 C 174.61167 0.76052918 163.07477 2.697369 151.86719 5.9941406 C 129.45205 12.587649 117.91515 28.74233 117.25586 54.457031 C 115.93734 77.534377 121.0448 95.995412 132.58203 109.8418 C 144.11922 123.68818 155.82258 133.24863 167.68945 138.52344 C 166.37088 148.41373 164.39292 157.31632 161.75586 165.22852 C 159.11877 173.14077 138.68099 178.74427 100.44336 182.04102 C 74.731883 187.31583 58.250008 203.79937 50.998047 231.49219 C 35.17559 288.85576 25.616651 332.70289 22.320312 363.0332 C 17.046124 388.08856 17.046125 434.57309 22.320312 502.48633 C 19.683219 530.83847 18.365234 553.25643 18.365234 569.74023 C 18.365234 585.56467 24.957181 602.70814 38.142578 621.16992 C 44.735258 621.82956 49.020233 620.50991 50.998047 617.21289 C 52.975862 613.91622 52.317827 610.29025 49.021484 606.33398 C 43.088033 595.78436 39.625626 585.7286 38.636719 576.16797 C 37.647832 566.60739 40.450289 554.905 47.042969 541.05859 C 51.657874 547.65213 53.471341 556.22381 52.482422 566.77344 C 51.493535 577.32305 54.29404 582.59766 60.886719 582.59766 C 68.13868 555.56422 67.149697 533.63962 57.919922 516.82617 C 48.690147 500.01268 47.701165 474.793 54.953125 441.16602 C 62.205091 407.53908 63.194073 378.85777 57.919922 355.12109 C 77.038753 325.45027 90.88459 292.81203 99.455078 257.20703 L 99.455078 256.21875 C 124.5073 326.11005 130.44126 377.53828 117.25586 410.50586 C 104.07051 443.47344 102.75052 479.07985 113.29883 517.32227 L 90.554688 667.6543 L 90.554688 668.64258 C 76.710043 708.863 72.918603 752.05041 79.181641 798.20508 C 85.444733 844.3597 84.620228 891.504 76.708984 939.63672 C 71.152074 949.89686 72.570417 956.66944 80.871094 960 L 42.900391 960 L 42.900391 1000 L 916.47461 1000 L 916.47461 960 L 878.9375 960 C 887.20001 956.66123 888.77388 949.87331 883.65625 939.63672 C 875.7447 891.50401 874.92055 844.3597 881.18359 798.20508 C 887.44669 752.05041 883.32615 708.86305 868.82227 668.64258 L 868.82227 667.6543 L 846.07617 517.32227 C 856.62457 479.07985 855.47099 443.47345 842.61523 410.50586 C 829.75946 377.53828 835.52894 326.11005 859.92188 256.21875 L 859.92188 257.20703 C 869.15166 292.81203 882.99631 325.4502 901.45703 355.12109 C 896.18304 378.85776 897.17206 407.53917 904.42188 441.16602 C 911.67348 474.793 910.68286 500.01268 901.45312 516.82617 C 892.22345 533.63962 891.23636 555.56422 898.48828 582.59766 C 905.08095 582.59766 907.88145 577.32305 906.89258 566.77344 C 905.90369 556.22381 908.04615 547.65213 913.32031 541.05859 C 919.25375 554.905 921.72714 566.60739 920.73828 576.16797 C 919.74933 585.7286 916.28693 595.78434 910.35352 606.33398 C 907.05729 610.28989 906.56373 613.91587 908.87109 617.21289 C 911.17856 620.50991 915.62805 621.82956 922.2207 621.16992 C 934.74679 602.70805 941.00977 585.56468 941.00977 569.74023 C 941.00977 553.25644 939.69167 530.83846 937.05469 502.48633 C 942.32889 434.57308 942.32889 388.08856 937.05469 363.0332 C 933.75834 332.70297 924.19942 288.85576 908.37695 231.49219 C 901.78426 203.79937 885.63143 187.31583 859.91992 182.04102 C 821.68261 178.74427 801.08028 173.14077 798.11328 165.22852 C 795.14657 157.31632 793.00404 148.41373 791.68555 138.52344 C 804.21165 133.24863 816.07957 123.68818 827.28711 109.8418 C 838.49464 95.995414 843.43763 77.534378 842.11914 54.457031 C 841.45989 28.74233 830.08748 12.587649 808.00195 5.9941406 C 785.9164 -0.59940261 762.18458 -1.7525984 736.80273 2.5332031 C 711.42085 6.8189692 694.77255 27.752842 686.86133 65.335938 C 680.92789 73.248137 674.33589 84.457147 667.08398 98.962891 C 663.78856 107.53449 663.95423 112.31372 667.58008 113.30273 C 671.20619 114.29176 674.33763 116.10674 676.97461 118.74414 C 673.67837 120.72219 672.5248 122.36881 673.51367 123.6875 C 674.50252 125.00618 676.31615 125.99689 678.95312 126.65625 C 679.08704 126.52232 679.1663 126.44901 679.19141 126.4375 L 679.19336 126.43555 L 679.19531 126.43555 L 679.19727 126.43555 L 679.19922 126.43555 L 679.19922 126.4375 L 679.19922 126.43945 L 679.19922 126.44141 C 679.16896 126.53598 678.427 127.43415 676.97461 129.12891 C 674.99647 131.43663 675.49003 133.24963 678.45703 134.56836 C 681.42324 135.88704 683.07192 139.84204 683.40234 146.43555 C 683.73192 153.02909 686.53443 156.65512 691.80859 157.31445 C 697.08274 157.97382 705.32368 157.97382 716.53125 157.31445 L 720.48633 173.14062 C 709.93797 179.73417 693.45614 182.70038 671.04102 182.04102 C 645.32943 187.31583 631.15456 204.78816 628.51758 234.45898 C 614.67292 279.29495 603.13603 322.15339 593.90625 363.0332 C 576.76523 377.53892 553.36241 415.78067 523.69531 477.75977 C 504.24423 497.21326 489.57383 513.15918 479.6875 525.59766 C 469.8119 513.15918 455.47263 497.21327 436.66992 477.75977 C 407.00282 415.78067 383.6 377.53892 366.45898 363.0332 C 356.56996 322.15339 344.70206 279.29495 330.85742 234.45898 C 328.22033 204.78816 314.37646 187.31583 289.32422 182.04102 C 266.24979 182.70038 249.76793 179.73416 239.87891 173.14062 L 242.8457 157.31445 C 254.71253 157.97381 263.11798 157.97381 268.0625 157.31445 C 273.00701 156.65512 275.80947 153.02909 276.46875 146.43555 C 277.12804 139.84202 278.77505 135.88703 281.41211 134.56836 C 284.04921 133.24963 284.38015 131.43663 282.40234 129.12891 C 280.42453 126.82115 280.09358 125.99689 281.41211 126.65625 C 284.04921 125.99689 285.69818 125.00618 286.35742 123.6875 C 287.01672 122.36881 286.02772 120.72219 283.39062 118.74414 C 285.36844 116.10673 288.3354 114.29176 292.29102 113.30273 C 296.24666 112.3137 296.24666 107.53447 292.29102 98.962891 C 285.69835 84.457146 279.43537 73.248138 273.50195 65.335938 C 264.93144 27.752843 248.12058 6.8189694 223.06836 2.5332031 C 210.54224 0.39030242 198.34537 -0.39334168 186.47852 0.18359375 z M 198.5918 15.390625 C 207.49193 15.225784 215.48513 16.214521 222.57227 18.357422 C 236.74656 22.643223 246.14289 31.050438 250.75781 43.578125 C 225.70554 46.215513 209.5527 50.83032 202.30078 57.423828 C 162.57346 36.138724 150.02055 69.988546 171.64453 93.523438 C 182.85211 105.72145 185.81906 115.1174 180.54492 121.71094 C 176.58928 127.64508 167.6884 123.35926 153.84375 108.85352 C 139.99907 94.347776 133.73611 76.873482 135.05469 56.433594 C 136.37321 36.653036 147.74563 24.290834 169.17188 19.345703 C 179.88501 16.87312 189.69166 15.555466 198.5918 15.390625 z M 761.64844 15.390625 C 770.63098 15.555466 780.48023 16.87312 791.19336 19.345703 C 812.61966 24.290834 823.99205 36.653036 825.31055 56.433594 C 825.96983 76.873483 819.54237 94.347776 806.02734 108.85352 C 792.5123 123.35926 783.44691 127.64508 778.83203 121.71094 C 773.55791 115.1174 776.52491 105.72145 787.73242 93.523438 C 809.08221 70.287099 798.45745 36.017041 757.07617 57.423828 C 749.82421 50.830321 734.00039 46.215514 709.60742 43.578125 C 713.56304 31.050438 722.79294 22.643223 737.29688 18.357422 C 744.54882 16.21452 752.6659 15.225784 761.64844 15.390625 z M 255.70117 54.457031 C 257.67899 57.094455 259.986 61.049405 262.62305 66.324219 C 254.71184 63.027397 246.96638 63.193869 239.38477 66.820312 C 231.80316 70.446757 225.37571 72.259766 220.10156 72.259766 L 220.10156 77.205078 C 228.01277 76.545713 235.75824 74.566285 243.33984 71.269531 C 250.92144 67.972789 258.33787 67.972789 265.58984 71.269531 C 272.18252 78.522403 278.44548 90.720114 284.37891 107.86328 C 276.46766 110.50067 272.84265 113.79779 273.50195 117.75391 C 265.5907 118.41327 260.15227 119.73287 257.18555 121.71094 C 254.21886 123.68896 257.35033 127.64396 266.58008 133.57812 C 268.5579 146.76517 261.96395 151.38189 246.80078 147.42578 C 231.63761 143.46965 222.90316 151.05069 220.5957 170.17188 C 218.28827 189.29311 229.33167 198.85547 253.72461 198.85547 C 277.45831 198.85547 286.68626 203.79919 281.41211 213.68945 C 276.13797 223.57975 268.06351 241.05401 257.18555 266.10938 C 246.30761 291.16475 239.5492 342.26402 236.91211 419.4082 L 144.94336 398.63867 C 148.89897 361.71495 142.63605 319.18541 126.1543 271.05273 C 109.67256 222.92005 114.61752 198.85547 140.98828 198.85547 C 167.35907 198.85547 182.52289 179.73266 186.47852 141.49023 C 187.79705 136.21542 190.59956 130.44741 194.88477 124.18359 C 199.17005 117.91973 197.85006 111.32554 190.92773 104.40234 C 184.00541 97.479165 178.56696 89.402804 174.61133 80.171875 C 166.34679 60.885602 185.31797 53.588318 197.35547 68.302734 C 203.2889 75.555606 206.25586 75.555606 206.25586 68.302734 C 219.44126 59.071804 235.92308 54.457031 255.70117 54.457031 z M 703.67383 54.457031 C 724.11113 54.457031 740.92401 59.071837 754.10938 68.302734 C 753.45012 75.55547 756.25064 75.555564 762.51367 68.302734 C 775.24902 53.554591 792.99198 60.969338 784.76367 80.171875 C 780.80808 89.402808 775.36957 97.479164 768.44727 104.40234 C 761.52499 111.32554 760.20689 117.91972 764.49219 124.18359 C 768.77744 130.4474 771.57996 136.21542 772.89844 141.49023 C 776.85407 179.73265 792.01595 198.85352 818.38672 198.85352 C 844.75748 198.85352 849.70239 222.92004 833.2207 271.05273 C 816.73895 319.18541 810.80505 361.71494 815.41992 398.63867 L 722.46484 419.4082 C 719.82776 342.26402 713.23386 291.16474 702.68555 266.10938 C 692.13724 241.05401 684.06082 223.57975 678.45703 213.68945 C 672.85325 203.79918 682.24769 198.85547 706.64062 198.85547 C 730.37425 198.85547 741.0886 189.2931 738.78125 170.17188 C 736.47381 151.0507 727.73745 143.46967 712.57422 147.42578 C 697.41115 151.38189 691.14819 146.76516 693.78516 133.57812 C 702.35558 127.64395 705.15801 123.68897 702.19141 121.71094 C 699.22469 119.73289 693.78626 118.41327 685.875 117.75391 C 686.53429 113.79777 682.90731 110.50066 674.99609 107.86328 C 681.58878 90.720117 687.85175 78.522403 693.78516 71.269531 C 701.03713 67.972789 708.62005 67.972789 716.53125 71.269531 C 724.44252 74.566273 732.35244 76.543761 740.26367 77.203125 L 739.27539 72.259766 C 734.66048 72.259766 728.3975 70.444803 720.48633 66.818359 C 712.57506 63.191995 704.99415 63.027477 697.74219 66.324219 C 699.71991 61.049407 701.6961 57.094457 703.67383 54.457031 z M 182.69922 63.914062 C 176.86567 64.015935 175.54498 70.093684 178.07227 78.6875 C 181.20123 89.326958 196.97386 107.73301 204.77344 104.89648 C 212.67165 102.02406 209.35015 93.697661 203.28906 90.060547 C 205.91132 83.504131 197.09498 68.280901 187.4668 64.841797 C 185.63175 64.186351 184.04542 63.890553 182.69922 63.914062 z M 777.26562 63.923828 C 775.94965 63.912229 774.34573 64.194562 772.4043 64.841797 C 761.88538 68.348416 753.53435 83.680544 756.08594 90.060547 L 756.08984 90.060547 C 750.02843 93.698002 746.70943 102.02406 754.60742 104.89648 C 762.40714 107.73306 778.17994 89.326574 781.30859 78.6875 C 783.08879 72.622151 784.37188 63.986466 777.26562 63.923828 z M 184.37695 70.404297 C 186.10753 70.321891 188.78613 71.270013 192.41211 73.248047 C 195.04921 75.885472 197.0272 79.182527 198.3457 83.138672 C 199.66424 87.094818 199.00424 88.412598 196.36719 87.09375 C 193.73008 85.775061 193.73008 87.094675 196.36719 91.050781 C 199.00424 95.006924 199.00424 96.160108 196.36719 94.511719 C 189.34067 89.870154 183.01011 82.288106 182.02734 73.742188 C 181.86252 71.599343 182.64638 70.486702 184.37695 70.404297 z M 775.00195 70.404297 C 776.73255 70.486702 777.51482 71.599305 777.34961 73.742188 C 776.38452 82.363026 770.07126 89.314396 763.50586 94.511719 C 761.1985 96.160068 761.1985 95.006886 763.50586 91.050781 C 765.81242 87.094674 765.64675 85.77506 763.00977 87.09375 C 760.37279 88.412479 759.71276 87.094779 761.03125 83.138672 C 762.34973 79.182546 764.32786 75.885463 766.96484 73.248047 C 770.59126 71.269976 773.27136 70.321892 775.00195 70.404297 z M 252.50391 72.675781 C 246.88982 72.727288 240.37383 75.226724 232.95703 80.171875 L 223.06836 81.160156 L 222.07812 86.105469 L 233.94531 84.126953 C 245.15289 90.061095 255.37183 90.392008 264.60156 85.117188 L 267.56836 87.09375 L 267.56836 81.160156 L 261.63477 75.226562 C 258.91529 73.495755 255.87236 72.644877 252.50391 72.675781 z M 706.87305 72.675781 C 703.50459 72.644879 700.46167 73.495755 697.74219 75.226562 L 691.80859 81.160156 L 691.80859 87.09375 L 695.76367 85.117188 C 704.99341 90.392007 715.21233 90.061095 726.41992 84.126953 L 737.29688 86.105469 L 737.29688 81.160156 L 726.41992 80.171875 C 719.00314 75.226733 712.48714 72.727285 706.87305 72.675781 z M 246.80078 77.205078 C 244.82297 79.842503 245.15393 82.148895 247.79102 84.126953 C 244.49469 84.126941 240.86778 83.798036 236.91211 83.138672 L 246.80078 77.205078 z M 255.70117 77.205078 C 258.99752 77.864442 260.97552 79.182103 261.63477 81.160156 C 259.65699 82.478857 257.35 83.467588 254.71289 84.126953 C 256.69071 81.489523 257.0197 79.183131 255.70117 77.205078 z M 704.66406 77.205078 C 702.68593 79.183143 702.68593 81.489535 704.66406 84.126953 C 702.02732 83.467588 699.72031 82.478845 697.74219 81.160156 C 699.06084 79.182091 701.36782 77.864442 704.66406 77.205078 z M 712.57422 77.205078 L 722.46484 83.138672 C 718.5095 83.798037 714.88257 84.126953 711.58594 84.126953 C 714.22331 82.148887 714.55235 79.842494 712.57422 77.205078 z M 204.2793 95.005859 C 206.25707 96.983908 206.75063 98.79692 205.76172 100.44531 C 204.77287 102.09374 203.2903 102.09374 201.3125 100.44531 C 199.33467 98.796919 200.32368 96.983908 204.2793 95.005859 z M 756.08594 95.005859 C 760.04181 96.983908 760.8679 98.79692 758.56055 100.44531 C 756.25279 102.09374 754.76861 102.09374 754.10938 100.44531 C 753.45013 98.796919 754.10821 96.983908 756.08594 95.005859 z M 265.11133 104.76953 C 264.38329 104.76531 263.48566 105.79335 263.11914 108.35938 C 262.48609 112.79149 268.25591 116.29417 272.51367 111.32617 C 274.49146 109.01847 276.13848 108.52315 277.45703 109.8418 C 278.34726 108.06084 277.51794 102.2522 272.01758 108.85352 C 268.34652 113.25942 265.50158 110.29143 266.08594 107.36914 C 266.39786 105.80904 265.83936 104.77375 265.11133 104.76953 z M 694.75977 104.83398 C 694.17647 104.82691 693.78516 105.91505 693.78516 107.36914 C 693.78516 109.4536 692.36677 113.67728 688.34766 108.85352 C 682.92687 102.34757 680.75115 107.5074 681.91797 109.8418 C 683.23644 108.52324 685.05013 109.01852 687.35742 111.32617 C 692.33252 116.30187 698.01822 112.79196 696.75195 108.35938 C 696.0251 105.81495 695.30771 104.84063 694.75977 104.83398 z M 273.50195 120.7207 C 275.47975 120.7207 276.79774 121.05156 277.45703 121.71094 C 278.11628 122.37026 277.45828 123.02814 275.48047 123.6875 L 260.64648 122.69922 C 259.9872 122.03989 261.30522 121.71094 264.60156 121.71094 C 267.8979 121.71094 270.86485 121.38007 273.50195 120.7207 z M 686.86328 120.7207 C 689.50009 121.38007 692.46704 121.71094 695.76367 121.71094 C 699.0599 121.71094 700.04896 122.03989 698.73047 122.69922 L 683.89648 123.6875 C 682.57719 123.02814 682.08169 122.37026 682.41211 121.71094 C 682.74213 121.05156 684.2263 120.7207 686.86328 120.7207 z M 261.63477 124.67773 L 274.49023 126.65625 C 275.14949 127.97495 275.31399 128.96369 274.98438 129.62305 C 274.6547 130.28239 273.83219 130.28239 272.51367 129.62305 C 269.8766 129.62305 267.56765 128.96325 265.58984 127.64453 C 263.61202 126.32584 262.29405 125.3371 261.63477 124.67773 z M 698.73047 124.67773 C 698.07121 125.3371 696.58661 126.32586 694.2793 127.64453 C 691.97174 128.96325 689.50024 129.62305 686.86328 129.62305 C 686.20403 130.28239 685.54401 130.28239 684.88477 129.62305 C 684.22553 128.96369 684.55652 127.97495 685.875 126.65625 L 698.73047 124.67773 z M 289.32422 256.21875 C 298.554 292.48308 312.06889 329.7361 329.86914 367.97852 C 338.43963 391.05583 354.42797 415.28681 377.83203 440.67188 C 401.23609 466.05692 413.2665 488.31044 413.92578 507.43164 C 414.58503 526.55283 424.80394 545.6737 444.58203 564.79492 C 450.51546 562.1575 450.35097 556.55204 444.08789 547.98047 C 437.82486 539.40887 436.67133 530.17933 440.62695 520.28906 C 453.81232 527.54193 463.04227 535.45377 468.31641 544.02539 C 468.74243 544.71776 469.15448 545.42089 469.55469 546.13477 C 466.46285 555.83494 464.73081 567.00064 464.35938 579.63086 C 468.97424 584.24631 473.0947 585.89486 476.7207 584.57617 C 477.98503 584.11636 479.03004 583.41541 479.85352 582.47461 C 480.6717 583.41541 481.76916 584.11636 483.14844 584.57617 C 487.10401 585.89486 491.39096 584.24631 496.00586 579.63086 C 495.6329 566.9487 493.78186 555.74359 490.45508 546.01562 C 490.81106 545.34278 491.17761 544.67906 491.55469 544.02539 C 496.49923 535.45377 505.56464 527.54193 518.75 520.28906 C 522.70563 530.17933 521.55214 539.40887 515.28906 547.98047 C 509.02603 556.55204 509.19052 562.1575 515.7832 564.79492 C 534.902 545.6737 544.79189 526.55283 545.45117 507.43164 C 546.11043 488.31044 558.30534 466.05692 582.03906 440.67188 C 605.77274 415.28681 621.92559 391.05583 630.49609 367.97852 C 648.29635 329.7361 661.48214 292.48258 670.05273 256.21875 C 689.83075 296.43919 699.71875 352.15524 699.71875 423.36523 L 651.26367 668.64258 L 651.26367 667.6543 C 633.46333 772.49124 619.9485 837.7676 610.71875 863.48242 C 600.82973 889.85622 589.95082 904.85577 578.08398 908.48242 C 566.21712 912.10891 546.1103 920.18525 517.76172 932.71289 C 497.98366 936.66899 486.11579 942.93428 482.16016 951.50586 C 480.45971 955.19058 481.01298 958.02111 483.82031 960 L 475.73828 960 C 478.42406 958.02108 478.91731 955.1888 477.2168 951.50391 C 473.26116 942.93249 461.72231 936.66916 442.60352 932.71289 C 414.25496 920.18541 393.98359 912.10906 381.78711 908.48242 C 369.59063 904.85602 358.54726 889.85451 348.6582 863.48047 C 340.08771 837.7657 326.90183 772.49123 309.10156 667.6543 L 309.10156 668.64258 L 260.64648 423.36328 C 260.64648 352.15328 270.20542 296.4392 289.32422 256.21875 z M 140.98828 421.38672 L 237.90039 445.12305 L 278.44531 645.89453 L 115.27734 645.89453 L 138.02148 517.32227 C 121.53978 479.07985 122.52877 447.10142 140.98828 421.38672 z M 818.38672 424.35352 C 836.84638 449.40886 837.8372 481.38727 821.35547 520.28906 L 844.09961 648.86133 L 680.92969 648.86133 L 721.47461 447.09961 L 818.38672 424.35352 z M 229.99023 667.6543 C 246.47196 681.50069 253.55938 699.63278 251.25195 722.05078 C 248.94453 744.46873 259.32792 778.58909 282.40234 824.41406 C 305.47676 870.23902 318.3317 909.6359 320.96875 942.60352 C 320.62698 951.14923 323.03236 956.94808 328.18359 960 L 222.1875 960 C 222.68058 959.14041 222.80767 958.12249 222.57227 956.94531 C 221.58339 952.00021 212.84893 944.91259 196.36719 935.68164 C 168.01861 933.04423 149.06528 927.43873 139.50586 918.86719 C 129.94644 910.29558 125.82601 893.48309 127.14453 868.42773 C 130.44091 838.75689 139.99982 772.16084 155.82227 668.64258 L 229.99023 667.6543 z M 730.375 667.6543 L 804.54297 668.64258 C 819.70588 772.16083 828.93579 838.75498 832.23242 868.42578 C 833.55095 893.48115 829.4305 910.29558 819.87109 918.86719 C 810.31168 927.43877 791.35835 933.04231 763.00977 935.67969 C 746.52797 944.91067 737.79161 952.00023 736.80273 956.94531 C 736.56732 958.12257 736.71552 959.14037 737.24609 960 L 631.32617 960 C 636.3888 956.94797 638.74998 951.14922 638.4082 942.60352 C 641.70459 909.63586 654.724 870.23898 677.46875 824.41406 C 700.21346 778.58905 710.43235 744.46873 708.125 722.05078 C 705.81756 699.63279 713.23399 681.50066 730.375 667.6543 z M 380.86914 957.83398 C 386.92437 957.8278 392.34067 958.35488 397.11523 959.41602 C 398.02509 959.61823 398.97556 959.81329 399.9668 960 L 358.37305 960 C 366.55391 958.70956 374.22853 957.84077 380.86914 957.83398 z M 580.68359 957.8457 C 587.34212 957.94284 594.6828 958.6612 602.70703 960 L 559.83984 960 C 560.84953 959.81345 561.82161 959.61999 562.75586 959.41797 C 568.04869 958.27345 574.02507 957.74856 580.68359 957.8457 z M 56.900391 974 L 902.47461 974 L 902.47461 986 L 56.900391 986 L 56.900391 974 z " />
</svg>
