<?xml version="1.0" encoding="UTF-8" standalone="no"?>
<svg
   width="800"
   height="1000"
   version="1.1"
   id="svg1"
   sodipodi:docname="1348F.svg"
   inkscape:version="1.4.2 (f4327f4, 2025-05-13)"
   xmlns:inkscape="http://www.inkscape.org/namespaces/inkscape"
   xmlns:sodipodi="http://sodipodi.sourceforge.net/DTD/sodipodi-0.dtd"
   xmlns="http://www.w3.org/2000/svg"
   xmlns:svg="http://www.w3.org/2000/svg">
  <defs
     id="defs1" />
  <sodipodi:namedview
     id="namedview1"
     pagecolor="#ffffff"
     bordercolor="#666666"
     borderopacity="1.0"
     inkscape:showpageshadow="2"
     inkscape:pageopacity="0.0"
     inkscape:pagecheckerboard="0"
     inkscape:deskcolor="#d1d1d1"
     inkscape:zoom="0.3775"
     inkscape:cx="568.21192"
     inkscape:cy="536.42384"
     inkscape:window-width="1680"
     inkscape:window-height="998"
     inkscape:window-x="-8"
     inkscape:window-y="-8"
     inkscape:window-maximized="1"
     inkscape:current-layer="svg1"
     showguides="true">
    <sodipodi:guide
       position="0,1000"
       orientation="0,-1"
       id="guide1"
       inkscape:locked="false" />
    <sodipodi:guide
       position="0,-1.5106575e-05"
       orientation="0,-1"
       id="guide2"
       inkscape:locked="false" />
    <sodipodi:guide
       position="362.48286,362.97594"
       orientation="0,-1"
       id="guide3"
       inkscape:locked="false" />
    <sodipodi:guide
       position="362.48286,409.07153"
       orientation="1,0"
       id="guide4"
       inkscape:locked="false" />
  </sodipodi:namedview>
  <path
     style="fill:#000000;stroke:none;stroke-width:0.999995"
     d="m 355.99806,713.51952 q -18.1528,-36.30286 -12.9639,-53.80609 5.1722,-17.50322 19.4487,-22.68937 19.4486,5.18892 22.0403,25.93063 2.6139,20.74449 -15.5611,50.56483 z"
     id="path11" />
  <path
     style="fill:#000000;stroke:none;stroke-width:0.999995"
     d="m 355.99806,821.99826 q -28.525,-45.37816 1.2792,-84.27436 h 11.6681 q 23.3417,41.48898 0,84.27436 z"
     id="path10" />
  <path
     style="fill:#000000;stroke:none;stroke-width:0.999995"
     d="m 368.96206,847.49903 q 28.525,45.37871 -3.8931,97.23994 h -9.0764 q -32.4126,-51.86123 0,-98.53634 z"
     id="path1-9" />
  <path
     style="fill:#000000;stroke:none;stroke-width:1"
     d="m 350.95884,95.395099 c -2.70339,-6.758483 6.14315,-23.000523 17.286,-26.714757 13.1806,-4.393534 11.65988,7.081106 9.42875,14.666903 -3.31463,11.269705 -20.02328,30.767115 -28.28625,27.762425 -8.36735,-3.04269 -4.84959,-11.861907 1.5715,-15.714571 z m 11.52402,-17.809838 c -2.79373,3.492101 -4.88901,7.158832 -6.28582,11.000191 -1.39688,3.841323 -0.69847,5.06356 2.09522,3.666712 2.79373,-1.396848 2.79373,1.8e-5 0,4.190599 -2.79369,4.190547 -2.79369,5.412777 0,3.666707 2.79373,-1.746066 5.93665,-4.714371 9.42875,-8.904914 3.49214,-4.190544 5.41282,-8.381106 5.76204,-12.571687 0.34922,-4.190543 -3.31751,-4.539746 -11.00019,-1.047608 z m -12.57169,24.095649 c -2.09525,1.39685 -2.61907,2.96831 -1.57144,4.71438 1.04763,1.74607 2.7937,1.92068 5.23821,0.52383 2.44447,-1.39685 1.22222,-3.14292 -3.66677,-5.23821 z m 78.57289,355.14938 c 0,20.25435 11.1748,42.08014 33.5244,65.47737 22.34961,23.39727 44.87384,51.3343 67.5727,83.8111 22.69883,32.47676 39.46104,54.82638 50.28664,67.04886 10.82559,12.22241 16.413,36.8419 16.76223,73.85846 0.3484,37.01656 5.06276,83.11265 14.14307,138.28827 2.09525,37.71501 19.55589,60.76305 52.3819,69.14414 37.01656,6.98424 56.22327,17.11141 57.62012,30.38152 -0.69829,8.38109 -8.20637,13.27006 -22.52422,14.66691 -14.3177,1.39698 -29.50845,-0.17436 -45.57226,-4.71404 -16.06377,-4.53981 -31.42913,-4.53981 -46.09609,0 -14.66692,4.53975 -27.7624,4.1906 -39.28644,-1.04745 -11.52401,-5.23821 -14.49229,-19.73055 -8.90486,-43.47704 5.58739,-23.74645 1.92064,-53.25492 -11.00025,-88.52541 -12.92085,-35.27046 -19.38128,-68.96948 -19.38128,-101.09705 0,-32.82602 -18.15906,-61.46148 -54.47718,-85.90637 -36.31815,-24.44489 -73.33471,-52.38192 -111.04968,-83.81109 -46.7945,35.61971 -86.95396,64.42978 -120.47838,86.4302 -33.52446,22.00038 -50.28669,49.06436 -50.28669,81.19193 0,32.82602 -6.28582,66.87428 -18.85745,102.14477 -12.57167,35.27049 -16.0638,65.59773 -10.47641,88.99496 5.58739,23.39723 2.44447,37.88958 -9.42875,43.47704 -11.87323,5.58734 -25.1433,5.93649 -39.81022,1.04745 -14.666961,-4.88895 -29.857715,-4.88895 -45.572263,0 -15.714585,4.88897 -30.730746,6.63508 -45.048483,5.23831 C 8.2065138,998.05599 0.69844247,993.16684 0,984.78567 1.3968479,971.51564 20.603553,961.3885 57.620114,954.40426 c 32.127577,-8.38113 49.588216,-32.42257 52.381906,-70.13757 9.07953,-55.17562 13.79391,-101.27169 14.14313,-138.28822 0.34922,-37.01656 5.76202,-61.63606 16.2384,-73.85851 10.47637,-12.22245 27.93701,-34.04824 52.3819,-65.47737 24.44489,-31.42913 46.96913,-59.36615 67.5727,-83.81104 20.60353,-24.44489 30.9053,-47.14374 30.9053,-68.09653 0,-78.92207 -10.47638,-140.03431 -31.42913,-183.3367 v 0 c -14.66696,38.41341 -33.52446,72.28705 -56.57251,101.62093 2.79369,25.84175 -1.74607,54.12798 -13.61929,84.85871 -11.87323,30.73073 -13.79389,55.35021 -5.76199,73.85845 8.03187,18.50832 6.46041,41.38176 -4.71437,68.62031 -6.98428,0 -9.42877,-5.58739 -7.33348,-16.76218 2.09529,-11.17482 1.04764,-20.25435 -3.14294,-27.23858 -8.38109,13.27007 -12.57163,25.1433 -12.57163,35.61967 0,10.47638 2.44449,21.30198 7.33348,32.4768 2.79369,4.88899 2.96827,10.30179 0.52372,16.2384 -2.44447,5.93661 -7.15883,5.41271 -14.14307,-1.57172 -11.17478,-20.95261 -16.06375,-39.81002 -14.6669,-56.57223 2.09529,-17.46061 6.63505,-40.85786 13.61929,-70.19174 2.09529,-64.95356 7.33348,-110.00201 15.71457,-135.14534 6.98427,-31.42913 22.00042,-76.8268 45.04843,-136.193 6.98427,-26.54015 24.0957,-42.60394 51.33429,-48.19137 23.74649,0.69845 41.20713,-2.44447 52.38191,-9.42875 l -4.19054,-16.76217 c -11.87323,0.69841 -20.60354,0.87302 -26.19093,0.52383 -5.58743,-0.34922 -8.55573,-4.19056 -8.90492,-11.52402 -0.34922,-7.3335 -2.09529,-11.69867 -5.2382,-13.09552 -3.14292,-1.39685 -3.66675,-3.1429 -1.5715,-5.23815 2.09529,-2.09529 2.79374,-3.14294 2.09533,-3.14294 -4.94015,0 -9.34635,-3.72857 -3.14294,-8.38109 -2.09529,-2.09529 -5.06359,-3.84135 -8.90492,-5.2382 -3.84136,-1.39685 -4.01597,-6.63504 -0.52383,-15.71457 7.68268,-15.365363 14.31772,-27.238607 19.90511,-35.619732 9.07953,-39.810257 27.064,-61.9852679 53.9534,-66.5250328 26.88937,-4.5397649 52.03269,-3.31750907 75.42996,3.6667674 23.39727,6.9842394 35.4451,24.0956534 36.1435,51.3342424 1.39685,24.444894 -3.84133,44.000815 -15.71456,58.667775 -11.87323,14.66692 -24.4449,24.7941 -37.71501,30.38153 v 0 c 1.39685,10.47637 3.66674,19.90511 6.80965,28.2862 3.14292,8.38112 24.61951,14.31773 64.42976,17.80983 27.23863,5.58743 45.04847,21.65122 53.42952,48.19137 21.65123,60.06461 35.27055,105.81148 40.85794,137.24061 8.38112,25.84177 12.57168,68.09654 12.57168,126.7643 5.58739,29.33385 9.07951,52.7311 10.47636,70.19175 1.39696,16.76217 -4.19045,35.27043 -16.76223,55.52478 -6.98424,1.39696 -11.524,0.52391 -13.61929,-2.61916 -2.09525,-3.14306 -1.74603,-6.80981 1.04766,-11.00024 4.88899,-11.87323 7.50807,-23.04803 7.85726,-33.52441 0.34915,-10.47637 -3.31758,-22.3496 -11.00019,-35.61967 -4.88895,7.68268 -6.28578,16.9368 -4.19049,27.76236 2.09525,10.8256 -0.34926,16.2384 -7.33354,16.2384 -9.77793,-27.23851 -10.47634,-50.2865 -2.09521,-69.14397 8.38109,-18.8575 7.15881,-42.25477 -3.66683,-70.1918 -10.82556,-27.93703 -14.49229,-54.4772 -11.00019,-79.6205 -22.3496,-29.33388 -40.85786,-62.8583 -55.52478,-100.57327 v -1.04766 c -23.04805,71.23939 -33.87365,133.05005 -32.4768,185.43197 z m -23.04805,11.52403 c 0.69845,-69.14414 9.77798,-129.20873 27.23859,-180.19377 17.46062,-50.98507 12.22243,-76.47761 -15.71456,-76.47761 -27.93703,0 -44.00082,-20.60355 -48.19137,-61.81066 -1.39685,-5.58739 -4.36515,-11.69862 -8.90492,-18.33367 -4.53976,-6.63502 -3.14291,-13.44467 4.19055,-20.42894 7.33346,-6.98424 13.09546,-15.539958 17.286,-25.667153 8.76637,-21.185205 -10.18689,-28.59386 -23.57182,-13.095463 -6.63505,7.682682 -9.60336,7.682682 -8.90492,0 -13.96851,-9.777973 -31.77837,-14.666959 -53.42957,-14.666959 -2.09525,2.793733 -4.53975,6.984296 -7.33348,12.571687 8.38113,-3.492138 16.58762,-3.317527 24.61949,0.523832 8.0319,3.841322 14.84157,5.761983 20.429,5.761983 l 1.04761,6.285816 c -9.07953,-1.396848 -17.63525,-3.841323 -25.66715,-7.333424 -8.03187,-3.492138 -15.88916,-3.492138 -23.57188,0 -6.2858,7.682682 -12.92084,20.603552 -19.90511,38.762611 8.38112,2.79369 12.22246,6.28581 11.52402,10.47636 8.38113,0.69844 14.14315,2.09529 17.28606,4.19054 3.14288,2.09529 -0.17465,6.28586 -9.95258,12.57169 -2.09529,13.96851 4.88896,18.85748 20.95277,14.6669 16.06381,-4.19054 25.31795,4.01597 27.76243,24.61954 2.44447,20.60354 -8.90496,30.90531 -34.0483,30.90531 -25.8417,0 -35.96886,5.06358 -30.38147,15.19073 5.58739,10.12719 14.14311,28.46086 25.66715,55.00101 11.52401,26.54019 19.03208,89.04927 22.52422,187.52724 -9.07953,44.69925 -5.93662,74.03313 9.42875,88.00164 15.36536,13.96855 27.93701,19.55596 37.71495,16.76223 9.77797,2.79392 20.95279,-2.79349 33.52446,-16.76223 12.57163,-13.96851 15.36532,-43.65159 8.38108,-89.04924 z M 352.00644,60.823031 c 43.76831,-22.638753 55.1365,13.437072 32.4768,38.762612 -11.87323,13.270067 -15.01614,23.048027 -9.42875,29.333857 4.88899,6.28583 14.49235,1.74607 28.81008,-13.61929 C 418.18227,99.934846 424.6427,81.426565 423.24585,59.775367 422.54744,38.822612 410.84883,25.727149 388.15001,20.488979 365.45115,15.250772 346.41904,14.90155 331.05367,19.441315 315.6883,23.98108 305.91035,32.886 301.71981,46.156073 c 25.84174,2.793733 42.60395,7.682719 50.28663,14.666958 z m -69.14408,31.429133 v -6.285816 l 6.28582,-6.285815 c 7.68268,-4.888986 17.80985,-2.793714 30.38152,6.285815 h 11.52397 v 5.238208 L 319.5297,90.156892 c -11.87326,5.587429 -22.69886,5.587429 -32.47679,0 z m 6.28582,-5.238152 c 2.09529,0.698405 4.53978,1.396829 7.33348,2.095272 -2.09529,-2.793696 -2.44452,-5.238189 -1.04767,-7.333479 -2.79369,0.698405 -4.88896,2.444474 -6.28581,5.238207 z m 14.6669,3.14288 c 3.49214,-0.698405 7.33348,-1.396829 11.52402,-2.095272 l -10.47636,-5.238207 c 2.09525,2.793733 1.74603,5.238226 -1.04766,7.333479 z m -31.42913,26.190978 c -1.44593,-2.89175 1.84798,-7.70425 6.28587,-1.04766 3.12781,4.69188 6.37176,1.3917 5.76198,-1.04761 -0.64625,-2.58493 2.36434,-4.92632 3.14294,0.52383 0.64631,4.52458 -5.3612,9.78862 -9.95259,3.66671 -2.09529,-2.79369 -3.84135,-3.49212 -5.2382,-2.09527 z m 17.80984,15.71457 -13.6193,2.09527 c -1.68793,2.29945 -1.89138,4.55089 1.04766,4.19054 5.26804,-0.64591 9.57386,-3.28805 12.57164,-6.28581 z m 0,-2.09527 c -3.50205,-1.71448 -9.24601,-2.23551 -13.6193,-2.09527 -2.5293,0.0811 -5.75358,2.8293 -2.09527,3.14288 z"
     id="path1" />
</svg>
