<?xml version="1.0" encoding="UTF-8" standalone="no"?>
<svg
   width="1250"
   height="1000"
   id="svg2241"
   sodipodi:version="0.32"
   inkscape:version="1.4.2 (f4327f4, 2025-05-13)"
   sodipodi:docname="13539.svg"
   inkscape:output_extension="org.inkscape.output.svg.inkscape"
   sodipodi:modified="true"
   version="1.1"
   xmlns:inkscape="http://www.inkscape.org/namespaces/inkscape"
   xmlns:sodipodi="http://sodipodi.sourceforge.net/DTD/sodipodi-0.dtd"
   xmlns="http://www.w3.org/2000/svg"
   xmlns:svg="http://www.w3.org/2000/svg"
   xmlns:rdf="http://www.w3.org/1999/02/22-rdf-syntax-ns#"
   xmlns:cc="http://creativecommons.org/ns#"
   xmlns:dc="http://purl.org/dc/elements/1.1/">
  <metadata
     id="metadata2248">
    <rdf:RDF>
      <cc:Work
         rdf:about="">
        <dc:format>image/svg+xml</dc:format>
        <dc:type
           rdf:resource="http://purl.org/dc/dcmitype/StillImage" />
      </cc:Work>
    </rdf:RDF>
  </metadata>
  <defs
     id="defs2246" />
  <sodipodi:namedview
     inkscape:window-height="998"
     inkscape:window-width="1680"
     inkscape:pageshadow="2"
     inkscape:pageopacity="0.0"
     guidetolerance="10.0"
     gridtolerance="10.0"
     objecttolerance="10.0"
     borderopacity="1.0"
     bordercolor="#666666"
     pagecolor="#ffffff"
     id="base"
     inkscape:showpageshadow="2"
     inkscape:pagecheckerboard="0"
     inkscape:deskcolor="#d1d1d1"
     inkscape:zoom="0.53386562"
     inkscape:cx="368.07015"
     inkscape:cy="484.20425"
     inkscape:window-x="-8"
     inkscape:window-y="-8"
     inkscape:window-maximized="1"
     inkscape:current-layer="svg2241"
     showguides="true">
    <sodipodi:guide
       position="0,1000"
       orientation="0,-1"
       id="guide1"
       inkscape:locked="false" />
    <sodipodi:guide
       position="0,0"
       orientation="0,-1"
       id="guide2"
       inkscape:locked="false" />
    <sodipodi:guide
       position="336.62471,961.30609"
       orientation="1,0"
       id="guide4"
       inkscape:locked="false" />
    <sodipodi:guide
       position="73.74295,856.29883"
       orientation="0,-1"
       id="guide5"
       inkscape:locked="false" />
    <sodipodi:guide
       position="844.76454,500.99116"
       orientation="1,0"
       id="guide8"
       inkscape:locked="false" />
    <sodipodi:guide
       position="336.62471,912.21128"
       orientation="0,-1"
       id="guide9"
       inkscape:locked="false" />
    <sodipodi:guide
       position="374.218,856.29883"
       orientation="1,0"
       id="guide10"
       inkscape:locked="false" />
    <sodipodi:guide
       position="446.86029,0"
       orientation="1,0"
       id="guide12"
       inkscape:locked="false" />
    <sodipodi:guide
       position="0,0"
       orientation="1,0"
       id="guide14"
       inkscape:locked="false" />
    <sodipodi:guide
       position="230.38497,889.76441"
       orientation="0,-1"
       id="guide3"
       inkscape:locked="false" />
    <sodipodi:guide
       position="446.86029,112.90118"
       orientation="0,-1"
       id="guide6"
       inkscape:locked="false" />
    <sodipodi:guide
       position="187.06819,889.76441"
       orientation="1,0"
       id="guide13"
       inkscape:locked="false" />
  </sodipodi:namedview>
  <path
     id="path1"
     style="fill:#000000;stroke:none;stroke-width:0.999998"
     d="M 28.673828 0 L 28.673828 71.541016 L -0.08203125 71.541016 L -72.724609 71.541016 L -72.724609 184.44336 L 0.0625 184.44336 L 0.17773438 275.43164 L -72.724609 275.43164 L -72.724609 388.33203 L 0.32226562 388.33203 L 0.4375 479.32031 L -72.724609 479.32031 L -72.724609 592.2207 L 0.58203125 592.2207 L 0.69726562 683.20898 L -72.724609 683.20898 L -72.724609 796.11133 L 0.84179688 796.11133 L 0.95703125 887.09961 L -72.724609 887.09961 L -72.724609 1000 L 1.1015625 1000 L 37.511719 1000 L 336.625 1000 L 374.21875 1000 L 446.85938 1000 L 446.85938 887.09961 C 470.33972 880.49612 488.68489 878.66038 501.89258 881.5957 C 515.10026 884.53057 527.75816 883.06344 539.86523 877.19336 C 551.97231 871.32329 554.53913 856.46443 547.56836 832.61719 C 540.59766 808.76995 542.79858 777.76884 554.17188 739.61328 C 565.54516 701.45772 566.46269 670.2727 556.92383 646.05859 C 547.38495 621.84448 570.58046 608.71219 609.39258 606.02734 C 645.07076 603.55928 678.51484 600.5307 709.72266 596.94141 C 709.15132 621.09317 709.03077 646.29857 709.36328 672.55859 C 709.73008 701.54216 713.94803 725.02289 722.01953 743 C 730.09093 760.97716 737.06154 796.19823 742.93164 848.66211 C 748.80177 901.12599 744.21595 931.20956 729.17383 938.91406 C 714.13176 946.6185 697.43973 952.30588 679.0957 955.97461 C 660.75167 959.64339 648.27771 964.77894 641.67383 971.38281 C 635.07034 977.98669 633.9684 983.30804 638.37109 987.34375 C 642.77368 991.37963 647.17739 994.49787 651.58008 996.69922 L 739.63086 996.69922 C 752.8385 992.29653 761.82602 991.56078 766.5957 994.49609 C 771.36516 997.43085 779.06944 998.5328 789.70898 997.79883 C 800.34868 997.06508 805.66992 988.62705 805.66992 972.48438 C 796.86469 944.6014 794.66175 919.65346 799.06445 897.64062 C 803.46704 875.62782 807.31935 849.02861 810.62109 817.84375 C 813.92301 786.65894 808.97137 749.05297 795.76367 705.02734 L 824.38086 567.44727 C 843.45864 549.83704 849.14394 519.38763 841.43945 476.0957 C 833.73512 432.80381 829.69901 392.2633 829.33203 354.47461 C 828.96505 316.68597 830.43458 282.3824 833.73633 251.56445 C 837.03824 220.7465 829.51588 199.83455 811.17188 188.82812 C 792.82784 177.8217 779.6202 162.77893 771.54883 143.70117 C 790.6266 139.29858 806.03518 130.12698 817.77539 116.18555 C 829.51555 102.24408 835.38672 82.799435 835.38672 57.851562 C 835.38672 32.903726 824.1961 16.393654 801.81641 8.3222656 C 785.03164 2.2687519 766.80288 -0.48196386 747.12891 0.068359375 C 740.57091 0.25180046 733.85167 0.80154932 726.97266 1.71875 C 699.45669 5.3875526 679.46223 25.565878 666.98828 62.253906 C 660.3844 70.32526 653.96351 80.598327 647.72656 93.072266 C 641.4895 105.5462 640.57191 112.33291 644.97461 113.43359 C 649.37725 114.5342 652.67951 116.18543 654.88086 118.38672 C 651.94554 120.58802 650.66232 122.60503 651.0293 124.43945 C 651.39617 126.27387 654.5147 127.55923 660.38477 128.29297 C 661.85215 127.55923 660.56892 128.29284 656.5332 130.49414 C 652.49749 132.69543 651.94554 134.52854 654.88086 135.99609 C 657.81618 137.46362 659.2832 141.86748 659.2832 149.20508 C 659.2832 156.54269 662.40166 161.67824 668.63867 164.61328 C 674.87562 167.54832 682.58193 168.282 691.75391 166.81445 C 700.92568 165.34696 704.95975 169.01521 703.85938 177.82031 C 702.75869 186.62545 695.972 191.76292 683.49805 193.23047 C 671.02409 194.698 654.88189 203.50179 635.07031 219.64453 L 531.60938 253.76562 C 517.66791 218.5451 502.62516 173.41881 486.48242 118.38672 C 474.10347 103.0604 460.89554 90.338047 446.85938 80.220703 L 446.85938 71.541016 L 374.21875 71.541016 L 345.46289 71.541016 L 345.46289 0 L 232.5625 0 L 232.5625 71.541016 L 141.57422 71.541016 L 141.57422 0 L 28.673828 0 z M 752.83789 13 C 762.56022 13.550328 773.38302 15.293459 785.30664 18.228516 C 809.15387 24.098594 821.07814 37.672101 821.07812 58.951172 C 821.07812 80.963989 813.18993 99.493069 797.41406 114.53516 C 781.63825 129.57723 771.54918 133.42941 767.14648 126.0918 C 762.01015 120.22172 765.8623 110.8662 778.70312 98.025391 C 791.54386 85.184579 794.66247 72.710582 788.05859 60.603516 C 781.45471 48.496489 767.88121 47.578936 747.33594 57.851562 C 739.99831 49.78021 722.75461 43.909035 695.60547 40.240234 C 701.4756 27.032551 711.93059 18.594621 726.97266 14.925781 C 734.49372 13.09138 743.11556 12.449672 752.83789 13 z M 689.00195 51.248047 C 710.28107 53.449321 727.89058 58.95268 741.83203 67.757812 C 741.09829 76.562945 744.40066 77.112684 751.73828 69.408203 C 759.07591 61.703689 766.23042 59.502758 773.20117 62.804688 C 780.17187 66.106616 781.08745 72.709483 775.95117 82.615234 C 770.81484 92.521024 764.21201 100.95896 756.14062 107.92969 C 748.06925 114.90039 746.96781 127.55829 752.83789 145.90234 C 758.70797 164.24636 770.81641 180.94029 789.16016 195.98242 C 807.50409 211.02451 815.02441 228.08431 811.72266 247.16211 C 808.42092 266.23987 806.76953 298.34047 806.76953 343.4668 C 806.76953 388.59305 810.98948 432.6199 819.42773 475.54492 C 827.86597 518.46993 818.74836 540.75892 787.98633 553.54492 C 752.26342 568.39287 706.91394 576.0442 636.44141 582.92773 C 565.96888 589.81126 527.94036 606.43593 536.01172 637.25391 C 544.0831 668.07185 543.71724 703.84268 534.91211 744.56641 C 526.10699 785.29013 524.08802 816.10928 528.85742 837.02148 C 533.62688 857.93396 527.38988 866.5535 510.14648 862.88477 C 492.90312 859.21604 475.10966 859.95176 456.76562 865.08789 C 438.42161 870.22399 422.27936 872.05723 408.33789 870.58984 C 467.77252 851.51207 499.32341 832.4352 502.99219 813.35742 C 504.45974 710.63085 505.56118 639.45508 506.29492 599.83203 C 506.62726 581.88504 526.08546 567.1064 558.11914 549.42383 C 596.80892 528.06709 661.76701 507.80365 749.24805 486.75586 L 747.32227 467.03906 C 740.68261 468.42389 734.06349 469.83977 727.4668 471.29492 C 727.00154 433.27183 723.71749 395.07701 717.61719 386.94336 C 750.63642 345.119 777.23566 305.86189 797.41406 269.17383 C 817.59251 232.4858 814.47399 211.75774 788.05859 206.98828 C 761.64324 202.21886 730.82599 240.55842 695.60547 322.00586 C 694.13809 298.52552 693.76994 272.84387 694.50391 244.96094 C 619.66028 275.04514 556.19076 293.38837 504.09375 299.99219 C 487.21723 260.36914 477.67785 227.53289 475.47656 201.48438 C 473.27527 175.43588 470.70848 153.2405 467.77344 134.89648 L 473.27539 127.19141 C 487.9506 180.02217 502.99335 228.08311 518.40234 271.375 C 530.87628 275.0438 576.36846 261.10252 654.88086 229.55078 C 666.62102 214.14183 688.63438 206.07164 720.91992 205.33789 L 720.91992 176.7207 C 718.71863 156.17543 709.36314 147.55356 692.85352 150.85547 C 676.34385 154.1574 669.55688 149.20378 672.49219 135.99609 C 683.49849 130.12601 687.35057 125.90801 684.04883 123.33984 C 680.74692 120.77167 675.05965 119.12053 666.98828 118.38672 C 666.98828 114.71796 662.95223 110.68188 654.88086 106.2793 C 662.95223 88.669018 670.65652 76.562807 677.99414 69.958984 C 686.06551 66.2902 693.95371 66.2902 701.6582 69.958984 C 709.3627 73.627769 717.2509 76.194561 725.32227 77.662109 L 725.32227 72.160156 C 720.18594 72.160156 713.58309 69.775317 705.51172 65.005859 C 697.44035 60.2364 689.36825 59.684732 681.29688 63.353516 C 684.23217 58.217185 686.8006 54.183069 689.00195 51.248047 z M 767.45508 64.888672 C 767.07994 64.872577 766.69125 64.876542 766.28711 64.902344 C 765.20941 64.971144 764.02817 65.189754 762.74414 65.556641 C 757.60781 67.024171 752.65445 71.242156 747.88477 78.212891 C 743.11564 85.183626 741.83186 89.769411 744.0332 91.970703 C 739.63089 94.17198 737.24589 96.924658 736.87891 100.22656 C 736.51192 103.52848 738.16331 105.91331 741.83203 107.38086 C 745.50082 108.84835 750.82027 106.27961 757.79102 99.675781 C 764.76177 93.071919 769.53128 87.01883 772.09961 81.515625 C 774.66739 76.012421 775.03553 71.608552 773.20117 68.306641 C 771.99734 66.139651 770.08103 65.001335 767.45508 64.888672 z M 692.25195 70.578125 C 688.70927 70.440545 685.4252 71.333641 682.39844 73.259766 L 674.69336 79.863281 L 674.69336 85.367188 L 677.99414 85.367188 C 688.26675 89.769773 699.64127 89.769773 712.11523 85.367188 L 724.22266 87.568359 L 724.22266 80.964844 L 712.11523 79.863281 C 704.77763 73.901493 698.15642 70.807424 692.25195 70.578125 z M 765.00781 72.509766 C 767.00706 72.574266 767.9037 73.741662 767.69727 76.011719 C 767.33035 80.047393 765.31131 84.267336 761.64258 88.669922 C 757.9738 93.072452 754.6736 96.007062 751.73828 97.474609 C 748.80296 98.942156 748.80296 97.656807 751.73828 93.621094 C 754.6736 89.585548 754.6736 88.118076 751.73828 89.21875 C 748.80352 90.319369 748.25352 89.035972 750.08789 85.367188 C 751.92231 81.698386 754.67307 78.030112 758.3418 74.361328 C 761.23087 73.077249 763.45284 72.459598 765.00781 72.509766 z M 689.00195 74.361328 C 686.8006 77.296366 686.8006 79.86316 689.00195 82.064453 C 685.33322 81.330707 682.76425 80.597082 681.29688 79.863281 C 682.03066 78.395789 684.59925 76.56262 689.00195 74.361328 z M 697.80664 76.5625 L 706.61133 82.064453 C 702.94255 82.798143 699.27419 83.166016 695.60547 83.166016 C 699.2742 81.698469 700.00799 79.497539 697.80664 76.5625 z M 744.0332 97.474609 C 746.96796 100.40965 747.33612 102.61058 745.13477 104.07812 C 742.93343 105.54551 741.46639 105.36176 740.73242 103.52734 C 739.99845 101.69292 741.09844 99.675902 744.0332 97.474609 z M 676.63867 104.56836 C 676.54517 104.57336 676.44696 104.59441 676.34375 104.62891 C 675.24335 104.99584 674.69336 106.09527 674.69336 107.92969 C 674.69336 109.76411 674.14336 111.04946 673.04297 111.7832 C 671.94201 112.517 670.47303 111.59942 668.63867 109.03125 C 666.8043 106.46308 665.52108 105.17969 664.78711 105.17969 C 663.31917 105.17969 662.40215 105.54555 662.03516 106.2793 C 661.66818 107.0131 661.85197 108.11454 662.58594 109.58203 C 664.05332 108.84828 665.88849 109.58191 668.08984 111.7832 C 670.29096 113.98448 672.49201 114.71812 674.69336 113.98438 C 676.89415 113.25064 677.99414 111.41551 677.99414 108.48047 C 677.99414 105.82059 677.54278 104.51636 676.63867 104.56836 z M 37.511719 110.23633 L 141.57422 110.23633 L 232.5625 110.23633 L 336.625 110.23633 L 336.625 184.44336 L 336.625 275.43164 L 336.625 388.33203 L 336.625 479.32031 L 336.625 592.2207 L 336.625 683.20898 L 336.625 796.11133 L 336.625 887.09961 L 336.625 962.40625 L 37.511719 962.40625 L 37.511719 887.09961 L 37.511719 796.11133 L 37.511719 683.20898 L 37.511719 592.2207 L 37.511719 479.32031 L 37.511719 388.33203 L 37.511719 275.43164 L 37.511719 184.44336 L 37.511719 110.23633 z M 446.85938 123.63672 C 448.48272 130.0793 450.28701 136.35427 455.66602 139.29883 C 457.86733 180.38945 459.33461 210.10715 460.06836 228.45117 C 460.80214 246.79518 471.07518 277.98019 490.88672 322.00586 C 553.25637 314.66822 614.52498 298.52401 674.69336 273.57617 C 676.89465 302.19285 679.49282 325.06957 680.22656 340.47852 C 641.07175 350.56314 589.96098 366.2063 534.76953 379.33984 C 510.59336 381.33711 489.19638 387.19772 470.58008 396.91992 C 451.96377 406.64214 435.92452 423.96191 422.46094 448.88086 C 422.78005 456.24819 425.53419 459.92983 430.72266 459.92383 C 435.91114 459.91883 440.68108 457.00907 445.0332 451.19336 C 453.63296 438.83562 463.37696 429.27802 474.26562 422.52148 C 485.15425 415.76491 496.82416 411.86147 509.27539 410.81055 C 504.09792 421.19298 494.87028 429.19287 481.59375 434.81055 C 468.31722 440.42816 464.01853 446.60561 468.69531 453.3457 C 500.95957 445.73627 525.06937 430.40531 541.02539 407.35156 C 589.38879 413.73393 625.89018 414.96644 650.53125 411.04883 C 675.17234 407.13132 688.26765 401.61806 700.00781 397.94922 C 703.42816 418.47174 705.25477 455.56335 705.48633 476.32031 C 651.99043 489.01881 600.13734 504.97579 550.97852 528.79297 C 503.86837 552.19448 477.6776 574.33387 479.87891 609.1875 C 482.08018 644.04115 483.54767 678.52848 484.28125 712.64844 C 485.01505 746.76834 485.01505 774.83484 484.28125 796.84766 C 484.28125 813.72414 467.95508 828.21519 435.30273 840.32227 C 402.65038 852.42935 385.04083 863.25216 382.47266 872.79102 C 379.90588 882.32462 382.28686 887.09453 389.61523 887.09961 L 374.21875 887.09961 L 374.21875 864.62109 L 374.21875 796.11133 L 446.85938 796.11133 L 446.85938 683.20898 L 374.21875 683.20898 L 374.21875 592.2207 L 446.85938 592.2207 L 446.85938 479.32031 L 374.21875 479.32031 L 374.21875 388.33203 L 446.85938 388.33203 L 446.85938 275.43164 L 374.21875 275.43164 L 374.21875 184.44336 L 446.85938 184.44336 L 446.85938 123.63672 z M 783.65625 225.69922 C 797.59781 226.0661 795.76263 239.45764 778.15234 265.87305 C 760.54211 292.28845 737.06333 327.50757 707.71289 371.5332 C 685.70007 381.80586 657.54162 391.50663 617.59375 394.66211 C 577.64584 397.81761 551.07948 397.37872 537.89648 393.3457 C 594.64498 380.72935 648.08262 367.58315 693.4043 356.125 C 702.20942 348.78739 715.96682 325.12277 734.67773 285.13281 C 753.38863 245.14285 769.7148 225.33224 783.65625 225.69922 z M 802.36719 571.84961 C 787.69199 643.02439 779.07028 685.7659 776.50195 700.07422 C 773.93378 714.38254 777.23621 729.60926 786.4082 745.75195 C 795.58019 761.89474 792.09581 823.52915 775.95312 930.6582 C 789.16054 965.14492 790.07647 981.28924 778.70312 979.08789 C 767.32984 976.88654 750.27 976.88654 727.52344 979.08789 C 704.77682 981.28924 685.33213 981.65488 669.18945 980.1875 L 669.18945 976.88672 C 697.80609 971.75038 721.28683 965.32949 739.63086 957.625 C 757.97468 949.92055 764.94566 916.71846 760.54297 858.01758 C 756.14047 799.31675 748.98578 758.04254 739.08008 734.19531 C 729.42814 710.95968 726.91588 664.21165 731.54492 593.95508 L 739.69336 592.74609 C 767.01619 585.65374 783.28941 578.45344 802.36719 571.84961 z " />
</svg>
