<?xml version="1.0" encoding="UTF-8" standalone="no"?>
<svg
   width="1500"
   height="1000"
   version="1.1"
   id="svg1"
   sodipodi:docname="1354D.svg"
   inkscape:version="1.4.2 (f4327f4, 2025-05-13)"
   xmlns:inkscape="http://www.inkscape.org/namespaces/inkscape"
   xmlns:sodipodi="http://sodipodi.sourceforge.net/DTD/sodipodi-0.dtd"
   xmlns="http://www.w3.org/2000/svg"
   xmlns:svg="http://www.w3.org/2000/svg">
  <defs
     id="defs1" />
  <sodipodi:namedview
     id="namedview1"
     pagecolor="#ffffff"
     bordercolor="#666666"
     borderopacity="1.0"
     inkscape:showpageshadow="2"
     inkscape:pageopacity="0.0"
     inkscape:pagecheckerboard="0"
     inkscape:deskcolor="#d1d1d1"
     showguides="true"
     inkscape:zoom="0.18875"
     inkscape:cx="1528.4769"
     inkscape:cy="537.74836"
     inkscape:window-width="1680"
     inkscape:window-height="998"
     inkscape:window-x="-8"
     inkscape:window-y="-8"
     inkscape:window-maximized="1"
     inkscape:current-layer="svg1">
    <sodipodi:guide
       position="0,0"
       orientation="0,-1"
       id="guide3"
       inkscape:locked="false" />
    <sodipodi:guide
       position="298.20278,620.86302"
       orientation="0.36491297,0.93104164"
       id="guide1"
       inkscape:locked="false" />
    <sodipodi:guide
       position="391.0035,175.72609"
       orientation="1,0"
       id="guide2"
       inkscape:locked="false" />
  </sodipodi:namedview>
  <path
     id="path1"
     style="fill:#000000;stroke:none;stroke-width:1"
     d="M 850.25586 0.07421875 C 837.28116 0.49007511 824.22503 2.6116211 811.08398 6.4375 C 784.80198 14.089258 768.99868 38.209365 763.67578 78.796875 C 758.35288 87.446689 753.03003 99.09041 747.70703 113.72852 C 744.38023 123.70908 744.71288 128.86459 748.70508 129.19727 C 752.69728 129.52995 756.68944 131.02801 760.68164 133.68945 C 753.57934 137.95095 756.29043 142.67188 762.67773 142.67188 C 767.33533 141.34114 767.50078 141.83918 763.17578 144.16797 C 758.85098 146.49677 758.35289 148.16015 761.67969 149.1582 C 765.00649 150.15626 767.50066 154.81373 769.16406 163.13086 C 770.82746 171.44796 775.31967 175.60742 782.63867 175.60742 C 789.95777 175.60742 799.60543 174.27673 811.58203 171.61523 C 818.90103 187.58407 814.41088 197.73175 798.10938 202.05664 C 781.80778 206.38154 767.00261 215.69653 753.69531 230.00195 C 740.38791 244.30738 723.91942 257.94716 704.29102 270.92188 C 684.66262 283.8966 655.55234 301.03046 616.96094 322.32227 C 571.71584 313.67245 520.81615 306.35161 464.25977 300.36328 C 455.60995 277.74073 444.79695 258.44541 431.82227 242.47656 C 418.84759 226.50768 397.05816 219.1888 366.45117 220.51953 C 365.12045 226.50786 365.12045 230.33461 366.45117 231.99805 C 367.78191 233.66148 371.4414 235.49022 377.42969 237.48633 C 391.40247 242.80929 403.21155 249.79554 412.85938 258.44531 C 422.50724 267.09513 428.33006 278.07346 430.32617 291.38086 C 423.67247 292.7116 418.18229 287.05609 413.85742 274.41406 C 409.53252 261.77206 403.71165 258.77798 396.39258 265.43164 C 403.04629 294.70789 420.3455 314.00513 448.29102 323.32031 C 509.50496 349.26971 567.39097 364.57288 621.95117 369.23047 C 651.22747 361.9114 690.48536 343.94682 739.72266 315.33594 C 732.40356 343.94682 728.07875 375.88389 726.74805 411.14844 C 682.16835 420.46362 637.58751 434.43604 593.00781 453.06641 C 569.12751 449.72314 548.60429 456.35843 531.26758 469.69922 C 452.6968 438.41046 363.97892 404.00979 310.96289 384.13867 C 328.62945 422.94061 350.22552 440.78281 388.55078 467.04883 C 410.86349 482.34073 429.72186 494.03124 445.125 502.11914 C 460.5274 510.20666 480.09735 519.24273 503.83594 529.22461 C 511.07421 514.54035 517.58571 503.5281 523.37305 496.18945 C 526.02297 496.65382 528.92361 496.44096 532.07227 495.54883 C 543.85787 516.92631 556.98734 524.79539 571.46094 519.15625 C 576.65543 515.3212 580.54042 512.05724 583.67383 509.0918 L 595.53516 513.96094 C 601.22606 509.36963 604.11989 504.4075 604.21289 499.07422 C 601.37861 497.91668 598.49989 496.74305 595.57812 495.55469 C 597.2089 493.49611 598.93318 491.34927 600.99219 488.99609 C 648.89879 481.01169 702.46179 469.03526 761.67969 453.06641 C 778.31389 428.44771 788.29429 382.87089 791.62109 316.33398 C 794.94789 328.3106 817.23723 362.24363 858.49023 418.13477 L 796.61133 679.625 C 784.63463 709.56661 780.30992 738.17687 783.63672 765.45703 C 765.67172 822.01341 754.36073 863.76545 749.70312 890.71289 C 745.04552 917.66038 736.22851 934.62695 723.25391 941.61328 C 710.27911 948.59967 691.15129 958.08187 665.86719 970.05859 C 639.25249 974.71609 624.61463 980.2044 621.95312 986.52539 C 619.29162 992.84662 623.61643 996.67324 634.92773 998.00391 C 646.23893 999.33457 690.81782 1000 768.66602 1000 C 779.97722 989.35412 784.13668 974.88165 781.14258 956.58398 C 778.14838 938.28632 788.95943 907.18196 813.57812 863.26758 C 838.19663 819.3532 847.17909 781.09328 840.52539 748.49023 C 840.52539 737.17896 845.35015 724.36989 854.99805 710.06445 C 864.64595 695.759 872.46287 685.61333 878.45117 679.625 L 942.32812 679.625 C 944.98963 690.27094 951.97581 706.57214 963.28711 728.5293 C 966.61391 813.69656 971.10407 868.75571 976.75977 893.70703 C 982.41547 918.65847 979.42124 936.12498 967.77734 946.10547 C 956.13334 956.08603 937.67072 964.0702 912.38672 970.05859 C 886.43732 974.71609 872.13015 980.20439 869.46875 986.52539 C 866.80725 992.84661 870.96671 996.67324 881.94531 998.00391 C 892.92391 999.33458 937.33731 1000 1015.1855 1000 C 1026.4987 989.35411 1030.1561 974.88164 1026.1641 956.58398 C 1022.1721 938.28632 1021.5067 920.48901 1024.168 903.18945 C 1020.8412 887.22051 1022.5045 860.93707 1029.1582 824.3418 C 1035.8119 787.74647 1029.491 753.48069 1010.1953 721.54297 L 1009.1973 539.89648 C 1024.5008 497.97823 1019.5106 451.07067 994.22656 399.17188 C 984.91136 361.91118 974.76376 320.49184 963.78516 274.91406 C 952.80656 229.33627 935.67277 199.56067 912.38477 185.58789 C 889.09687 171.61516 878.11852 157.64269 879.44922 143.66992 C 898.07952 133.02403 911.55399 121.71299 919.87109 109.73633 C 928.18839 97.759703 931.68226 79.129736 930.35156 53.845703 C 928.35546 26.565561 914.54844 9.9297382 888.93164 3.9414062 C 876.12329 0.9472402 863.23056 -0.34163761 850.25586 0.07421875 z M 856.05859 18.007812 C 861.50631 18.194943 867.30626 18.663578 873.46094 19.412109 C 898.07954 22.406275 910.72142 34.217273 911.38672 54.84375 C 912.71742 76.800929 907.39457 95.263582 895.41797 110.23438 C 883.44137 125.2052 874.79135 129.69731 869.46875 123.70898 C 864.14575 117.72064 866.64188 107.74032 876.95508 93.767578 C 896.65628 67.075989 880.81469 34.49086 840.52539 61.830078 C 831.21029 55.841785 815.90703 52.514981 794.61523 51.849609 C 795.94593 39.207575 803.26487 29.890676 816.57227 23.902344 C 826.55282 19.411124 839.71545 17.446421 856.05859 18.007812 z M 863.18945 60.988281 C 870.89465 60.734322 876.57259 67.551917 872.46289 80.292969 C 869.13599 90.606205 864.14599 99.921186 857.49219 108.23828 C 850.83839 116.5554 850.00775 123.37628 854.99805 128.69922 C 859.99115 134.02217 861.81703 137.34897 860.48633 138.67969 C 865.80933 175.27501 878.11836 197.56439 897.41406 205.54883 C 916.70976 213.53327 931.84767 239.64944 942.82617 283.89648 C 953.80487 328.14353 961.62365 364.24004 966.28125 392.18555 L 878.45117 410.15039 C 843.06587 364.81596 818.68841 326.23103 803.09961 289.38477 C 792.12101 263.4354 789.12699 246.63613 794.11719 238.98438 C 799.10749 231.33262 811.91452 223.51374 832.54102 215.5293 L 833.53906 179.59961 C 828.21616 158.97317 817.73776 151.65425 802.10156 157.64258 C 786.46536 163.63091 779.31188 159.97146 780.64258 146.66406 C 789.95808 140.0104 792.9518 135.68562 789.625 133.68945 C 786.2982 131.69338 780.30996 131.02797 771.66016 131.69336 C 770.99476 127.70114 767.00259 124.37439 759.68359 121.71289 C 764.34119 104.4133 769.66404 91.771552 775.65234 83.787109 C 782.30604 79.129516 789.95772 77.798811 798.60742 79.794922 C 807.25732 81.791033 815.24145 82.789062 822.56055 82.789062 L 822.56055 78.796875 C 817.23755 79.462263 810.25136 78.2969 801.60156 75.302734 C 792.95176 72.308568 784.96744 72.80856 777.64844 76.800781 C 779.64454 72.143188 781.64062 68.151068 783.63672 64.824219 C 804.26312 62.828108 821.8951 65.156843 836.5332 71.810547 C 837.864 80.460362 841.35807 80.460362 847.01367 71.810547 C 851.69745 64.647019 857.91748 61.162043 863.18945 60.988281 z M 862.23047 64.837891 C 860.63429 64.880719 858.73122 65.341548 856.49414 66.320312 C 844.32344 71.645044 840.39058 90.503745 842.52148 94.765625 L 842.51953 94.765625 C 834.32103 100.23095 834.48613 108.39751 842.51953 109.73633 C 851.74993 111.27474 865.44225 87.878888 867.96875 79.794922 C 870.30656 72.32462 869.14724 64.652299 862.23047 64.837891 z M 859.91016 71.703125 C 861.62488 71.60978 862.47852 73.182828 862.47852 75.802734 C 862.47852 79.794955 861.31327 83.952456 858.98438 88.277344 C 856.65537 92.602232 854.15935 95.763711 851.49805 97.759766 C 848.83895 99.755877 848.67305 98.425132 851.00195 93.767578 C 853.33365 89.109968 853.16716 87.779281 850.50586 89.775391 C 847.84336 91.771502 847.01342 90.938852 848.01172 87.279297 C 849.01002 83.619759 850.0196 79.559291 854.3418 75.234375 C 856.72114 72.855033 858.57648 71.775727 859.91016 71.703125 z M 790.9707 81.744141 C 786.6224 81.816913 782.84659 83.163308 779.64453 85.783203 L 773.65625 93.767578 L 774.6543 98.757812 L 777.64844 97.759766 C 788.29434 100.42125 799.27268 98.757824 810.58398 92.769531 L 822.56055 92.769531 L 821.5625 86.78125 L 810.58398 87.779297 C 803.09857 83.662329 796.56138 81.650576 790.9707 81.744141 z M 785.63281 86.78125 C 784.96741 89.442733 785.63281 91.771467 787.62891 93.767578 C 784.30201 93.767578 781.64063 93.434903 779.64453 92.769531 C 780.30983 90.773421 782.30591 88.777361 785.63281 86.78125 z M 795.61328 86.78125 L 805.59375 90.773438 C 801.60171 92.104105 797.94173 93.102189 794.61523 93.767578 C 797.27643 91.771485 797.60925 89.442714 795.61328 86.78125 z M 843.51953 99.755859 C 846.84623 101.08658 847.67922 102.58264 846.01562 104.24609 C 844.35263 105.90953 843.02174 105.90953 842.02344 104.24609 C 841.02524 102.58264 841.52353 101.08658 843.51953 99.755859 z M 779.33984 117.02344 C 778.54303 117.04854 777.9548 118.33353 778.64648 119.7168 C 779.77308 121.96979 777.1643 126.21904 772.6582 121.71289 C 767.754 116.80866 764.90082 120.17041 766.66992 123.70898 C 768.66612 122.37824 770.82745 122.71092 773.15625 124.70703 C 778.32655 129.13874 781.73063 124.3407 781.14062 120.21484 C 780.80228 117.84592 780.00006 117.00264 779.33984 117.02344 z M 786.63086 134.6875 L 768.40625 138.29688 C 765.89865 138.90677 763.62113 134.7293 770.49023 134.7168 L 786.63086 134.6875 z M 785.63281 136.68359 C 785.63281 138.0143 784.30202 139.34504 781.64062 140.67578 C 778.97912 142.00652 776.09376 143.8522 774.09766 144.51758 C 772.80026 145.81493 767.80085 143.13775 773.65625 141.67383 L 785.63281 136.68359 z M 96.248047 156.08398 C 96.185033 156.0825 96.12479 156.08469 96.066406 156.08984 C 91.198023 156.51337 103.25934 180.11662 133.48242 226.35938 C 168.85211 280.47654 193.02303 338.96587 205.01367 402.25 C 179.18995 333.12598 127.68717 258.24491 52.050781 178.10547 C 38.020631 169.55042 36.917745 172.27362 46.150391 184.80859 C 116.89055 273.93847 164.58037 355.79264 191.84961 432.0918 C 190.2066 434.93779 185.55641 429.03364 177.6875 412.99023 C 169.8186 396.94682 159.15378 384.09691 145.55078 375.05664 C 132.34227 365.07858 118.94023 356.57661 104.1543 350.34961 L 112.7793 363.5625 C 103.18486 358.786 93.650198 354.97614 85.271484 354.20703 C 108.73042 397.11677 129.61351 426.42437 147.81641 441.50586 C 90.410703 497.89567 78.123618 564.4805 83.115234 633.26562 C 87.876978 698.88302 133.81613 757.80952 174.06641 783.60547 C 186.83995 793.33703 206.3932 800.58732 230.25781 805.89453 L 167.76172 1000 L 391.00391 1000 L 614.24609 1000 L 553.69727 811.94922 C 567.63578 810.85874 579.32997 809.81846 588.05273 808.98828 C 627.39741 805.2437 662.97575 780.3278 693.28906 740.07812 C 717.01303 735.66275 741.5054 748.45081 766.2793 777.62109 C 765.91848 759.90689 760.84863 746.54111 751.8457 737.17383 C 742.84287 727.8066 727.19843 720.61217 705.54492 715.32812 C 714.1876 694.24476 711.37425 671.73015 695.65234 649.42188 C 679.93072 627.11358 675.89488 605.36763 684.48828 583.60547 C 693.08154 561.8434 695.73589 548.27641 693.02539 542.7832 C 690.3148 537.29001 680.89165 536.69124 664.79102 541.01953 C 652.07672 544.43757 631.878 551.50961 606.23438 561.51953 C 616.65927 542.59127 623.67664 526.46324 625.75391 513.63086 C 603.443 518.40063 584.32776 524.72662 569.73828 533.95117 C 559.80628 535.18511 542.75354 538.27793 530.96094 540.12109 C 530.21558 533.43034 516.01898 523.30015 508.26953 539.54297 C 504.11307 531.52537 485.67481 533.43602 486.39648 547.41406 C 481.99845 548.22733 479.62825 548.60665 475.05078 549.47852 C 436.9678 556.73389 396.16879 564.82641 352.94336 574.49414 C 309.71792 584.16186 280.40071 593.73644 265.51562 602.07227 C 254.96693 607.97964 247.94802 617.80087 244.54297 631.45508 C 242.33871 631.03037 240.20538 630.5064 238.14258 629.88281 C 206.46767 620.30752 189.04473 609.5455 187.12305 595.80859 C 185.20138 582.07169 188.03861 563.18744 193.29688 540.07031 C 215.24577 549.42715 227.19383 553.99934 231.33398 553.70508 C 235.47413 553.41083 239.32305 556.47537 240.86719 561.82422 C 242.41132 567.17287 245.84059 572.35201 252.21484 577.35742 C 258.58918 582.36274 266.50549 579.95615 276.00195 570.63867 C 293.64705 565.29082 297.35909 556.61352 288.25781 545.88867 C 279.05849 521.06992 268.68307 504.15674 256.39453 494.11328 C 262.40843 475.03626 253.78976 453.16163 231.25 429.29102 C 222.2506 337.13765 178.22127 247.41192 99.167969 158.41797 C 97.58667 157.33632 97.276296 156.19851 96.445312 156.09766 C 96.377169 156.08946 96.31106 156.08547 96.248047 156.08398 z M 117.67969 378.29492 C 137.88706 389.14015 155.73404 407.25837 171.60352 434.78711 L 170.42383 436.12695 C 150.90666 422.04861 133.38489 403.56103 117.67969 378.29492 z M 340.2207 410.46289 C 389.64457 429.63405 448.13962 453.42347 515.70508 481.83398 C 510.66217 486.16065 504.02572 494.92119 495.79102 508.11328 C 437.28312 482.4371 385.4264 449.88631 340.2207 410.46289 z M 975.26367 415.14062 C 995.22477 458.38962 998.88419 500.30699 986.24219 540.89453 L 986.24219 651.67969 L 834.53711 651.67969 L 882.44336 435.10156 L 975.26367 415.14062 z M 178.5957 443.08789 L 209.1875 459.76367 L 220.90039 445.10938 C 237.73368 459.04523 244.74653 474.3948 243.41211 491.26562 C 242.76848 487.77195 239.45659 484.39113 232.51953 481.98438 C 223.27008 478.77539 212.57669 476.77274 201.4707 476.65234 C 214.64592 498.91418 229.39255 509.85671 245.95312 508.67969 C 255.71177 515.71889 267.17497 530.01812 278.54297 552.86328 L 270.00977 558.49609 C 266.26394 557.85261 263.03905 555.31832 261.83984 551.53711 C 260.64074 547.75593 258.70229 546.85169 256.48438 548.14648 C 254.26639 549.44144 254.40753 551.39429 256.9375 554.39844 C 259.46749 557.40257 262.27307 560.54286 265.19727 562.60938 L 262.83789 565.29102 C 256.66066 563.00083 252.75923 559.35175 250.49219 553.59961 C 248.22523 547.84738 244.99175 543.69887 240.6875 541.73047 C 236.38314 539.76207 229.58958 536.66566 219.53516 531.92188 C 209.48075 527.17808 195.24113 518.38831 176.77539 506.05469 C 169.24929 542.52416 166.15663 571.00062 167.60156 590.91211 C 169.80181 621.23187 190.33942 640.88031 229.42383 650.61133 C 233.62086 651.65628 237.93906 652.43888 242.37891 652.95703 L 244.08594 676.49023 C 245.07035 709.1708 255.7701 735.40724 276.76562 757.11328 L 284.21094 754.07031 C 273.56587 728.44457 267.10021 710.45083 264.96484 700.14062 C 262.82957 689.83041 261.08501 673.81059 260.24805 652.71875 C 259.41097 631.62688 268.00452 617.63614 285.30469 610.7207 C 302.60484 603.80522 320.99724 597.07774 341.32031 590.40234 C 361.64345 583.72694 371.74774 582.31583 372.91406 585.64453 C 374.08037 588.97313 367.39885 593.94712 351.03516 601.02344 C 334.67145 608.09974 327.07412 618.09311 328.88086 630.24609 C 335.84543 662.50157 340.37818 684.55798 342.67773 697.13086 L 358.92773 709.80078 C 350.28778 667.2024 345.61498 643.20415 344.85938 639.16406 C 389.05408 630.10972 430.55979 631.76857 469.05273 642.90625 C 507.54565 654.0439 533.94097 660.70081 548.39844 662.40234 C 545.53905 680.34545 545.12816 694.10037 546.31055 704.02344 L 560.10938 718.125 C 565.40198 657.25145 580.12267 619.40557 604.14258 603.14258 C 628.16269 586.87964 633.31044 578.67546 619.0332 579.46094 C 604.75632 580.24818 605.04355 577.69154 621.0293 571.7793 C 637.01504 565.86699 650.31391 561.68963 660.97656 558.88477 C 671.63911 556.08004 672.45217 564.10146 662.79102 583.89258 C 653.12996 603.68366 653.03839 620.18091 662.51758 632.92578 C 671.99658 645.67067 680.2456 660.77348 687.57227 678.90234 C 694.89892 697.03117 682.27794 723.4175 649.89453 758.24219 C 633.3646 776.01846 612.75557 787.81574 587.73828 789.48438 C 514.79813 794.34935 255.85938 824.49334 172.16211 757.34961 C 146.43509 734.16037 108.26523 680.55597 103.99609 621.72656 C 99.694091 562.44465 111.61139 505.34159 166.88086 457.74609 L 178.5957 443.08789 z M 216.08594 484.41016 C 220.81751 485.89332 224.58648 487.69715 227.88867 488.59961 C 231.19086 489.50213 234.00318 489.53977 235.69531 490.55664 C 236.54138 491.0651 236.74593 492.19941 237.14844 492.9668 C 236.53238 492.44203 235.66568 491.81669 234.51562 491.89844 C 232.21561 492.0619 232.08188 493.56544 232.24609 495.82812 C 232.32809 496.95945 231.81164 497.80527 232.42773 498.33008 C 231.47892 497.9995 230.65731 497.99449 229.79492 497.25977 C 228.06985 495.79035 226.24561 493.27479 224.25781 491.36914 C 222.26999 489.46353 219.07592 487.38172 216.08594 484.41016 z M 610.22852 528.56055 L 600.51367 553.12891 C 598.22782 555.08253 595.84593 556.0944 593.88281 556.1875 C 593.60227 556.2008 593.33223 556.19597 593.07031 556.17188 C 590.97536 555.97961 589.19998 554.14828 587.62305 551.53125 L 590.16602 533.75586 L 610.22852 528.56055 z M 519.27148 541.93359 C 521.52429 541.9104 524.06537 543.69296 524.70898 547.20508 L 537.41602 599.08789 C 538.26002 602.0498 536.48658 605.11506 534.05859 605.60938 C 533.90694 605.64017 533.7497 605.66263 533.58984 605.67383 C 531.1921 605.84501 527.99427 603.86319 527.33984 601.05859 L 515.90234 549.08984 C 514.53495 544.30705 516.71831 541.95988 519.27148 541.93359 z M 500.23242 545.77148 C 502.57664 545.75821 505.05305 547.37895 505.82617 551.06055 L 517.26172 603.0332 C 517.76041 605.68942 516.20162 608.89822 513.90234 609.55469 C 513.61497 609.63664 513.32895 609.67964 513.04492 609.68164 C 511.05627 609.70016 509.21444 607.83276 508.45508 604.91602 L 495.74805 553.0332 C 494.4232 548.50817 497.21843 545.78855 500.23242 545.77148 z M 575.18555 556.18555 C 581.25715 562.0976 586.80693 565.24123 592.52344 566.26367 C 590.13565 567.21961 588.83343 568.21275 586.35156 569.2168 C 570.84618 575.48864 555.88162 580.01426 542.5918 582.38086 C 541.75965 578.7332 539.2756 571.44643 538.44336 567.79883 C 543.47652 567.72021 549.19517 570.20241 554.48438 570.22461 C 566.05009 576.68052 573.57495 572.2204 575.18555 556.18555 z M 492.11719 573.40039 C 492.67906 575.86328 493.36988 578.34975 493.93164 580.8125 C 469.75513 573.71722 456.72164 578.11006 453.94531 592.18555 C 454.82371 587.44948 454.15932 583.17345 452.98828 579.95312 C 464.34477 577.18582 477.63769 574.91489 492.11719 573.40039 z M 439.2793 584.69727 C 441.87498 588.60663 443.47994 591.26836 445.08984 594.33789 L 429.20117 604.26367 L 414.3125 592.75586 C 420.60026 590.57938 424.63815 589.05342 433.01562 586.39844 L 439.2793 584.69727 z M 578.43164 597.17578 C 583.63848 597.16964 583.2754 599.65015 577.45312 605.03906 C 568.13738 613.66134 560.28119 628.27993 552.39453 647.03516 C 538.00265 646.23854 511.60754 639.58375 473.04883 627.54102 C 434.49021 615.4983 392.49839 613.52722 348.76367 622.54883 C 364.70033 612.7737 378.53841 606.47582 388.16602 602.15234 C 390.62487 601.04818 398.28885 598.77063 401.875 597.4082 C 412.19893 604.96826 421.77845 611.56363 431.28906 615.42773 C 436.22193 621.4004 460.9944 620.27355 501.375 612.95898 C 500.55434 619.89462 518.90517 628.83307 525.6543 613.05078 C 530.89518 622.38086 549.50578 618.93285 547.94922 603.36523 C 553.3394 602.15125 557.25252 601.13662 563.01953 599.78125 C 570.17862 598.07841 575.30754 597.17947 578.43164 597.17578 z M 249.6543 827.22656 L 391.00391 827.22656 L 532.35156 827.22656 L 579.93164 975 L 391.00391 975 L 202.07422 975 L 249.6543 827.22656 z " />
</svg>
