<?xml version="1.0" encoding="UTF-8" standalone="no"?>
<svg
   width="900"
   height="1000"
   id="svg2214"
   sodipodi:version="0.32"
   inkscape:version="1.4.2 (f4327f4, 2025-05-13)"
   sodipodi:docname="13564.svg"
   inkscape:output_extension="org.inkscape.output.svg.inkscape"
   sodipodi:modified="true"
   version="1.1"
   xmlns:inkscape="http://www.inkscape.org/namespaces/inkscape"
   xmlns:sodipodi="http://sodipodi.sourceforge.net/DTD/sodipodi-0.dtd"
   xmlns="http://www.w3.org/2000/svg"
   xmlns:svg="http://www.w3.org/2000/svg"
   xmlns:rdf="http://www.w3.org/1999/02/22-rdf-syntax-ns#"
   xmlns:cc="http://creativecommons.org/ns#"
   xmlns:dc="http://purl.org/dc/elements/1.1/">
  <metadata
     id="metadata2221">
    <rdf:RDF>
      <cc:Work
         rdf:about="">
        <dc:format>image/svg+xml</dc:format>
        <dc:type
           rdf:resource="http://purl.org/dc/dcmitype/StillImage" />
      </cc:Work>
    </rdf:RDF>
  </metadata>
  <defs
     id="defs2219" />
  <sodipodi:namedview
     inkscape:window-height="998"
     inkscape:window-width="1680"
     inkscape:pageshadow="2"
     inkscape:pageopacity="0.0"
     guidetolerance="10.0"
     gridtolerance="10.0"
     objecttolerance="10.0"
     borderopacity="1.0"
     bordercolor="#666666"
     pagecolor="#ffffff"
     id="base"
     inkscape:showpageshadow="2"
     inkscape:pagecheckerboard="0"
     inkscape:deskcolor="#d1d1d1"
     showguides="true"
     inkscape:zoom="0.70710678"
     inkscape:cx="451.84123"
     inkscape:cy="242.53763"
     inkscape:window-x="-8"
     inkscape:window-y="-8"
     inkscape:window-maximized="1"
     inkscape:current-layer="svg2214">
    <sodipodi:guide
       position="771.94531,596.64062"
       orientation="0,-1"
       id="guide1"
       inkscape:locked="false" />
    <sodipodi:guide
       position="700.66211,539.26562"
       orientation="0,-1"
       id="guide2"
       inkscape:locked="false" />
    <sodipodi:guide
       position="773.68555,467.98242"
       orientation="1,0"
       id="guide3"
       inkscape:locked="false" />
    <sodipodi:guide
       position="539.52248,829.61523"
       orientation="0,-1"
       id="guide4"
       inkscape:locked="false" />
    <sodipodi:guide
       position="781.81717,807.61524"
       orientation="0,-1"
       id="guide5"
       inkscape:locked="false" />
    <sodipodi:guide
       position="84.323239,812.22852"
       orientation="1,0"
       id="guide6"
       inkscape:locked="false" />
    <sodipodi:guide
       position="900,1000"
       orientation="0,-1"
       id="guide7"
       inkscape:locked="false" />
    <sodipodi:guide
       position="900,0"
       orientation="0,-1"
       id="guide8"
       inkscape:locked="false" />
  </sodipodi:namedview>
  <path
     id="path2216"
     style="fill:#000000;stroke:none;stroke-width:55.6358"
     d="M 478.11914 0 C 434.31573 6.6368634 411.22897 29.723626 408.57422 69.544922 C 402.60101 77.509181 396.75172 89.715243 389.45117 104.31641 C 385.46902 113.60803 385.46901 118.63745 389.45117 119.96484 C 393.43328 121.2922 396.15153 123.18861 398.14258 125.17969 C 395.30308 127.30934 393.51527 132.13477 401.62109 132.13477 C 402.28477 132.13477 401.87402 133.28842 399.88281 135.61133 C 397.89178 137.93423 396.89623 139.83264 399.88281 140.82812 C 402.8694 141.82369 404.7658 146.02928 405.09766 152.99805 C 405.42925 159.96676 408.48153 162.76603 413.79102 163.42969 C 419.10051 164.09336 427.92468 164.09336 439.87109 163.42969 L 441.60938 170.38477 L 161.69141 170.38477 C 160.85764 157.95487 158.06819 146.07767 152.99805 132.13477 C 144.37013 130.14372 140.82813 134.50948 140.82812 147.7832 L 107.79492 149.52148 C 98.50327 154.83098 95.783115 162.42051 99.101562 170.38477 L 84.322266 170.38477 L 58.441406 170.38477 L 58.441406 192.38477 L 104.31641 192.38477 C 112.53891 212.52011 130.79054 237.3226 161.69141 267.74805 C 204.83115 310.2241 239.46028 336.43995 266.00781 347.72266 C 280.60893 344.40421 323.90415 318.18836 392.92773 267.74805 C 412.83836 309.5604 422.48437 366.86536 422.48438 439.87109 L 373.80273 693.70898 C 355.2195 801.8901 341.36782 869.91572 332.07617 897.12695 C 322.12086 924.33818 309.58094 940.4181 297.30273 944.06836 C 285.02447 947.71862 264.98976 955.13636 236.45117 968.41016 C 216.54054 972.39201 205.66183 978.57535 201.67969 987.53516 C 197.69756 996.4949 205.44521 1000.3687 226.01953 999.70508 C 251.90336 999.70508 271.11626 999.21616 283.39453 996.22852 C 295.67274 993.24199 312.16554 993.6528 332.07617 997.9668 C 351.9868 1002.2808 360.55818 996.09778 359.89453 978.8418 C 362.5493 944.99373 376.65373 904.59235 399.88281 857.13867 C 423.11189 809.68499 433.16878 774.31113 431.17773 751.08203 C 429.18667 727.85293 437.18709 708.31009 453.7793 693.70898 L 528.53906 693.70898 C 544.46758 801.8901 554.77723 871.81213 558.0957 902.3418 C 559.42317 928.22561 553.81098 945.5402 544.1875 954.5 C 534.56403 963.45981 517.08938 969.23195 488.55078 971.88672 C 471.29487 981.84201 461.72989 989.51061 460.73438 994.48828 C 459.73883 999.46602 465.50907 1000.3687 478.11914 999.70508 C 490.06551 999.70508 504.33005 1000.3688 521.58594 999.70508 C 538.84178 999.04134 559.61927 999.04134 584.17578 999.70508 C 608.73223 1000.3688 616.4799 991.95743 608.51562 975.36523 C 600.55138 925.58864 600.47225 877.10586 606.77734 829.32031 C 613.08238 781.53476 608.54474 736.18505 594.60742 693.70898 L 572.00586 538.9707 C 585.94334 499.81307 582.14855 455.69604 561.57422 408.57422 C 554.27366 388.66356 562.27404 342.08114 584.17578 267.74805 C 590.14894 305.57829 602.51513 345.64776 622.42578 389.45117 C 617.11646 413.34398 619.01263 444.35207 627.64062 479.85938 C 636.26856 515.36667 634.78303 541.09258 624.16406 556.35742 C 613.54508 571.62226 611.64674 592.39977 618.94727 618.94727 C 625.58417 619.611 628.63618 613.91998 627.64062 603.30078 C 626.64531 592.68175 629.28638 583.8576 634.5957 577.2207 C 640.56892 590.49444 642.54627 602.03884 641.55078 611.99414 C 640.55546 621.94949 637.09024 632.67008 631.11719 643.28906 C 627.79851 647.27091 627.38771 650.40225 629.37891 653.7207 C 631.37011 657.03882 634.91399 657.861 641.55078 657.19727 C 654.82453 638.61404 662.41406 622.70586 662.41406 606.77734 C 662.41406 590.18515 659.85221 567.50929 657.19727 538.9707 C 662.50659 469.94713 662.50659 422.69906 657.19727 398.14258 C 653.87915 367.61294 644.23284 315.74828 627.64062 243.40625 C 621.77913 217.29593 603.19381 200.67195 570.67578 192.38477 L 712.02734 192.38477 C 682.99364 225.77233 668.47852 263.87794 668.47852 306.70117 C 668.47852 353.87943 690.25018 377.46875 733.80078 377.46875 C 777.35128 377.46875 799.12305 353.87943 799.12305 306.70117 C 799.12305 263.15183 784.60597 225.04677 755.57227 192.38477 L 781.81641 192.38477 L 781.81641 170.38477 L 773.68555 170.38477 L 755.57227 170.38477 L 771.9043 148.60938 C 776.2589 135.54203 772.62983 131.91593 761.01953 137.72266 L 733.80078 168.20703 L 706.58008 137.72266 C 695.15848 131.91593 690.99987 135.54424 694.60547 148.60938 L 712.02734 170.38477 L 523.32422 170.38477 C 518.84433 163.41604 516.0373 155.33461 516.36914 146.04297 C 528.31551 140.73347 541.26632 129.34917 552.88086 114.74805 C 564.49538 100.14689 568.11642 81.267776 566.78906 57.375 C 566.12538 30.827471 556.89026 14.334676 538.9707 8.6933594 C 521.05113 3.0520049 500.68458 0.6636973 478.11914 0 z M 485.07422 17.386719 C 494.11698 17.552625 503.84594 18.374432 514.63086 20.863281 C 536.20069 25.84094 549.1515 38.538957 551.14258 59.113281 C 551.80626 80.351302 544.21477 99.483224 530.27734 114.74805 C 516.33987 130.01287 507.10677 133.55678 502.46094 126.91992 C 497.15145 120.28302 501.27806 111.71163 512.89258 99.101562 C 533.60886 76.609652 524.64753 37.353781 481.59766 62.589844 C 474.2971 55.289282 458.13617 49.598113 432.91602 46.943359 C 437.56183 33.669595 446.13324 25.17724 460.73438 20.863281 C 468.03496 18.706283 476.03145 17.220795 485.07422 17.386719 z M 425.96094 57.375 C 446.53523 57.375 464.18165 61.99153 478.11914 71.283203 C 477.45546 79.247461 480.50528 80.65203 486.8125 73.021484 C 501.95707 54.699424 517.51198 66.503836 509.41406 85.191406 C 505.10006 95.146718 498.99803 102.56448 492.0293 109.5332 C 485.06058 116.50191 484.23678 123.75958 488.55078 130.39648 C 492.86472 137.03338 495.91675 143.1374 497.24414 147.7832 C 498.67153 156.16908 499.8104 163.27 502.46094 170.38477 L 460.73438 170.38477 C 457.12763 155.99001 449.78217 149.29456 436.39258 152.99805 C 420.79591 157.31201 412.87454 153.02725 415.5293 139.08984 C 424.15722 133.11664 427.20923 128.91097 424.22266 126.91992 C 421.23606 124.92887 416.53847 124.1051 408.57422 123.44141 C 408.88669 115.80351 401.83282 114.60265 396.4043 113.00977 C 403.04116 95.75384 410.63072 83.800557 417.26758 76.5 C 424.56817 72.517854 432.23867 71.109465 439.87109 74.759766 C 447.5035 78.410084 455.583 81.051187 464.21094 81.714844 L 462.47266 76.5 C 457.16319 76.5 450.98011 75.265354 443.34766 71.283203 C 435.71525 67.30109 428.71036 66.226505 420.74609 69.544922 C 423.40085 64.899114 424.63355 60.693451 425.96094 57.375 z M 500.55664 66.927734 C 488.43045 66.702897 476.46 87.034462 481.59766 93.884766 C 474.83797 97.264564 471.01645 106.95043 478.11914 109.5332 C 485.42392 112.1895 502.55987 93.586108 505.9375 83.453125 C 507.71056 78.133855 509.30213 67.089871 500.55664 66.927734 z M 497.73633 74.759766 C 498.14145 74.737198 498.5572 74.737388 498.98242 74.759766 C 505.75654 75.116247 496.20628 95.273796 488.55078 99.101562 C 485.89602 100.42895 485.89606 99.604898 488.55078 95.623047 C 491.20554 91.640901 489.79909 90.819093 486.8125 92.146484 C 483.8259 93.473842 483.41499 90.913748 485.07422 86.931641 C 487.80726 80.37234 491.65945 75.098279 497.73633 74.759766 z M 432.82422 76.300781 C 428.50823 76.097532 423.94009 77.653638 420.74609 79.976562 L 415.5293 85.191406 L 415.5293 92.146484 L 417.26758 90.408203 C 426.55923 95.054011 438.35635 94.643088 450.30273 88.669922 L 460.73438 90.408203 L 460.73438 85.191406 L 450.30273 85.191406 C 443.20639 80.066277 438.31335 76.559279 432.82422 76.300781 z M 427.69922 79.976562 C 426.37186 82.631333 425.70818 86.015172 427.69922 88.669922 C 425.04445 87.342508 422.73713 85.855085 420.74609 85.191406 C 421.40977 83.200369 424.38077 81.303922 427.69922 79.976562 z M 436.39258 81.714844 L 446.82422 86.931641 C 442.84211 88.259038 437.97274 88.669922 434.6543 88.669922 C 437.30906 86.678829 438.38364 84.369599 436.39258 81.714844 z M 479.85938 100.83984 C 483.8415 102.83088 483.92056 104.39547 481.59766 106.05469 C 479.27476 107.71392 478.78281 108.04578 478.11914 106.05469 C 477.45544 104.06364 477.86835 102.1672 479.85938 100.83984 z M 406.65234 126.25781 C 410.612 126.25781 414.2143 126.91212 417.26758 128.6582 L 406.83594 128.6582 C 402.89857 127.72555 404.50749 126.25781 406.65234 126.25781 z M 420.74609 130.39648 C 418.83648 134.21572 413.25596 135.71723 410.09375 136.27344 C 406.09108 136.97749 404.11368 134.19717 408.57422 132.13477 L 420.74609 130.39648 z M 161.04102 192.38477 L 402.39648 192.38477 C 393.08055 194.97954 382.64582 202.04328 370.32617 213.84961 C 341.78754 231.76918 308.39111 258.65069 271.22461 293.82617 C 261.93296 279.88871 223.50712 251.11081 156.47461 208.63477 C 158.32393 203.395 160.03741 197.98056 161.04102 192.38477 z M 461.28125 192.38477 L 514.18359 192.38477 C 520.40956 201.25219 527.70349 208.01847 537.23242 213.84961 C 559.46597 227.45522 564.41638 257.30968 551.14258 300.78125 C 537.86885 344.25284 533.6612 381.27033 538.9707 413.79102 L 446.82422 436.39258 C 444.16947 356.74999 436.91176 302.65513 425.96094 276.43945 C 415.01009 250.22377 405.52418 232.49827 399.88281 222.54297 C 394.24146 212.58766 404.88302 208.63477 429.43945 208.63477 C 446.96462 208.63477 457.48505 202.84834 461.28125 192.38477 z M 733.83984 210.88867 C 762.87344 237.01783 777.37889 267.14079 777.93359 301.25391 C 778.29419 335.36761 763.60004 352.42383 733.83984 352.42383 C 703.35274 352.42383 688.1034 335.36761 688.6582 301.25391 C 689.0187 267.14079 704.07954 237.01783 733.83984 210.88867 z M 544.1875 439.87109 C 566.08918 467.08228 565.83643 498.73846 545.92578 537.23242 L 570.26562 672.8457 L 403.35938 672.8457 L 445.08594 462.47266 L 544.1875 439.87109 z " />
</svg>
