<?xml version="1.0" encoding="UTF-8" standalone="no"?>
<svg
   width="1100"
   height="1000"
   version="1.1"
   id="svg1"
   sodipodi:docname="1358D.svg"
   inkscape:version="1.4.2 (f4327f4, 2025-05-13)"
   xmlns:inkscape="http://www.inkscape.org/namespaces/inkscape"
   xmlns:sodipodi="http://sodipodi.sourceforge.net/DTD/sodipodi-0.dtd"
   xmlns="http://www.w3.org/2000/svg"
   xmlns:svg="http://www.w3.org/2000/svg">
  <defs
     id="defs1" />
  <sodipodi:namedview
     id="namedview1"
     pagecolor="#ffffff"
     bordercolor="#666666"
     borderopacity="1.0"
     inkscape:showpageshadow="2"
     inkscape:pageopacity="0.0"
     inkscape:pagecheckerboard="0"
     inkscape:deskcolor="#d1d1d1"
     inkscape:zoom="0.3775"
     inkscape:cx="875.49669"
     inkscape:cy="200"
     inkscape:window-width="1680"
     inkscape:window-height="998"
     inkscape:window-x="-8"
     inkscape:window-y="-8"
     inkscape:window-maximized="1"
     inkscape:current-layer="svg1"
     showguides="true">
    <sodipodi:guide
       position="0,1000"
       orientation="0,-1"
       id="guide1"
       inkscape:locked="false" />
    <sodipodi:guide
       position="0,0"
       orientation="0,-1"
       id="guide2"
       inkscape:locked="false" />
    <sodipodi:guide
       position="242.19694,912.37532"
       orientation="0,-1"
       id="guide3"
       inkscape:locked="false" />
    <sodipodi:guide
       position="241.48073,384.52006"
       orientation="1,0"
       id="guide4"
       inkscape:locked="false" />
    <sodipodi:guide
       position="116.85817,790.61755"
       orientation="0,-1"
       id="guide5"
       inkscape:locked="false" />
    <sodipodi:guide
       position="241.48081,818.55037"
       orientation="0,-1"
       id="guide6"
       inkscape:locked="false" />
  </sodipodi:namedview>
  <path
     id="path1"
     style="fill:#000000;stroke:none;stroke-width:0.999999"
     d="M 721.25 0.1796875 C 708.94127 -0.41865401 696.20451 0.4777277 683.04102 2.8710938 C 656.71399 7.6578255 639.44801 29.539918 631.24219 68.517578 C 625.08782 76.723399 618.25054 88.348543 610.72852 103.39258 C 607.30943 112.28221 607.65102 117.2399 611.75391 118.26562 C 615.85684 119.29136 618.93292 120.83133 620.98438 122.88281 C 617.56529 124.93426 616.36881 126.81391 617.39453 128.52344 C 618.42029 130.233 620.30186 131.42947 623.03711 132.11328 C 623.18136 131.96904 623.26457 131.89404 623.28711 131.88672 L 623.28906 131.88477 L 623.29102 131.88477 L 623.29102 131.88672 L 623.29297 131.88672 L 623.29297 131.88867 L 623.29297 131.89062 C 623.27712 131.97191 622.50696 132.90141 620.98438 134.67773 C 618.93292 137.0711 619.44623 138.95266 622.52344 140.32031 C 625.60061 141.68795 627.31042 145.79073 627.65234 152.62891 C 627.99423 159.46709 630.90052 163.22636 636.37109 163.91016 C 641.84162 164.594 650.38876 164.594 662.01367 163.91016 L 666.11719 179.29688 C 647.6541 180.66452 630.21637 183.74257 613.80469 188.5293 C 597.64716 193.61153 580.03956 204.37522 570.80859 218.16406 C 536.60683 263.89475 511.84935 300.70362 496.55469 328.59766 C 473.1035 309.00197 440.48453 291.145 394.66602 265.29492 C 387.88958 249.67976 375.08422 235.45282 362.3418 224.18164 C 362.93299 219.32972 363.23828 214.39105 363.23828 209.38281 C 363.23828 142.27407 308.58921 87.625 241.48047 87.625 C 174.37172 87.625 119.72266 142.27407 119.72266 209.38281 C 119.72266 241.79854 132.47399 271.30758 153.2207 293.1543 L 0.11328125 588.98047 L 28.046875 603.30469 L 177.61914 312.99805 C 191.96067 321.87313 208.27003 327.85716 225.72461 330.125 L 225.72461 615.48047 L 257.23828 615.48047 L 257.23828 330.125 C 275.13375 327.79979 291.82448 321.56893 306.42578 312.32031 L 456.34766 603.30469 L 484.2793 588.98047 L 330.66211 292.17188 C 333.90307 288.68333 336.94248 285.00522 339.76172 281.15625 C 346.79955 283.66121 354.36325 284.836 361.77148 283.71484 C 396.69167 307.90591 421.87225 327.86691 437.32227 343.60352 C 450.52041 357.04733 472.22313 373.56315 491.70117 383.66602 C 498.02066 386.92067 504.09515 386.03369 508.94727 380.37695 C 554.40387 332.6021 590.10691 286.12464 609.66211 255.3125 C 629.49284 300.44449 644.57617 365.63801 644.57617 438.80664 L 594.31641 693.1875 C 575.85332 801.23086 561.83519 868.92854 552.26172 896.28125 C 542.00445 923.63404 530.72086 939.19016 518.41211 942.95117 C 506.1034 946.71214 485.24798 955.08952 455.84375 968.08203 C 435.32922 972.18504 423.1907 978.68069 419.42969 987.57031 C 415.66868 996.45984 424.04598 1000.5626 444.56055 999.87891 C 470.54566 999.87891 489.86304 998.3408 502.51367 995.26367 C 515.1643 992.18639 531.5754 992.86964 551.74805 997.31445 C 571.9207 1001.7594 582.00781 995.09181 582.00781 977.3125 C 584.7431 943.80538 597.90631 903.28904 621.49805 855.76367 C 645.08979 808.23823 655.86004 772.85138 653.80859 749.60156 C 651.75711 726.35178 659.27952 707.54773 676.375 693.1875 L 753.30469 693.1875 C 769.03252 801.23085 778.60435 870.63828 782.02344 901.41016 C 783.39105 927.39519 779.11847 944.83103 769.20312 953.7207 C 759.28773 962.61055 739.97039 968.42314 711.25 971.1582 C 693.47075 980.73167 684.23853 988.08424 683.55469 993.21289 C 682.87088 998.34148 688.68348 1000.5627 700.99219 999.87891 C 713.30094 999.87891 728.34376 999.53729 746.12305 998.85352 C 763.90234 998.16976 785.27304 998.16976 810.23242 998.85352 C 835.19181 999.53733 843.56716 991.6734 835.36133 975.26172 C 827.15551 925.34303 826.30257 876.44935 832.79883 828.58203 C 839.29512 780.71471 835.02059 735.58425 819.97656 693.1875 L 796.38477 537.27539 C 807.32588 496.93009 806.12939 459.83339 792.79492 425.98438 C 779.46049 392.13537 788.52092 328.36871 819.97656 234.68555 C 872.63061 244.94282 926.31012 253.83345 981.01562 261.35547 C 998.7949 233.31888 1016.2326 184.76683 1033.3281 115.70117 C 1053.8427 97.238049 1069.5706 81.853635 1080.5117 69.544922 C 1091.4528 56.552369 1097.9486 38.773048 1100 16.207031 C 1095.2133 10.052656 1090.9387 7.6577475 1087.1777 9.0253906 C 1083.4167 10.393034 1081.5371 13.812668 1081.5371 19.283203 C 1078.8018 31.591954 1074.699 41.848866 1069.2285 50.054688 C 1063.7579 58.260509 1053.8426 65.782916 1039.4824 72.621094 C 1040.1662 63.731433 1044.4389 55.525887 1052.3027 48.003906 C 1060.1667 40.481888 1061.3651 34.669299 1055.8945 30.566406 C 1031.9607 46.294209 1018.9673 64.415116 1016.916 84.929688 C 1014.8646 105.44426 1005.9758 127.4981 990.24805 151.08984 C 974.52025 174.68159 964.26134 197.07702 959.47461 218.27539 C 930.07042 205.96664 891.77727 197.76109 844.59375 193.6582 C 814.68407 182.32322 794.53289 181.95566 776.89648 183.40039 C 759.84445 184.79725 749.71389 180.32301 746.63672 172.11719 C 743.55951 163.91137 741.3364 154.67915 739.96875 144.42188 C 752.96134 138.95131 765.27157 129.03598 776.89648 114.67578 C 788.52135 100.31559 793.64885 81.169951 792.28125 57.236328 C 791.5974 30.567381 779.80243 13.641036 756.89453 6.4609375 C 745.44057 2.8708884 733.55873 0.77802901 721.25 0.1796875 z M 708.8125 16.591797 C 718.12953 16.848228 728.34497 18.257939 739.45703 20.822266 C 761.68113 25.950918 773.47611 38.772574 774.84375 59.287109 C 775.52755 79.80168 768.86007 97.750799 754.8418 113.13672 C 740.82353 128.52264 731.4215 133.13875 726.63477 126.98438 C 721.1642 120.14619 724.41208 110.40259 736.37891 97.751953 C 759.33829 73.480564 746.9127 36.674211 704.06836 60.3125 C 696.54634 53.474321 680.13528 48.688411 654.83398 45.953125 C 658.93691 32.276732 668.51069 23.386095 683.55469 19.283203 C 691.07669 17.231739 699.49547 16.335366 708.8125 16.591797 z M 648.67969 57.236328 C 669.87806 57.236328 687.31584 62.022276 700.99219 71.595703 C 700.30839 79.117722 703.21468 79.117722 709.71094 71.595703 C 722.79616 56.444471 742.62563 62.593295 733.30273 83.390625 C 728.85792 93.305972 723.04533 101.68326 715.86523 108.52148 C 708.68513 115.35965 707.31691 122.19893 711.76172 129.03711 C 716.20653 135.87529 719.11283 141.68788 720.48047 146.47461 C 724.5834 186.81991 740.31131 206.99219 767.66406 206.99219 C 795.01681 206.99219 800.14627 231.95037 783.05078 281.86914 C 765.95533 331.78791 759.80116 375.55209 764.58789 413.16211 L 668.16797 434.70312 C 665.43268 355.38017 658.59541 302.55555 647.6543 276.22852 C 636.71323 249.90153 628.33589 231.78061 622.52344 221.86523 C 616.71095 211.94984 626.4565 206.99219 651.75781 206.99219 C 677.05911 206.99219 688.34076 196.90507 685.60547 176.73242 C 682.87018 156.55977 673.63995 148.52598 657.91211 152.62891 C 642.18431 156.7318 635.68659 152.28552 638.42188 139.29297 C 647.31151 133.13859 650.21784 128.86602 647.14062 126.47266 C 644.06345 124.07933 638.42262 122.88281 630.2168 122.88281 C 630.90064 118.09608 627.13941 114.3349 618.93359 111.59961 C 625.77177 94.50413 632.6091 82.193856 639.44727 74.671875 C 646.96926 71.252786 654.66341 71.252786 662.52734 74.671875 C 670.39125 78.090964 678.42501 80.144322 686.63086 80.828125 L 685.60547 75.699219 C 680.81874 75.015416 674.32301 72.964011 666.11719 69.544922 C 657.91137 66.125833 650.04741 65.782329 642.52539 68.517578 C 645.26068 63.730846 647.31204 59.971577 648.67969 57.236328 z M 725.28516 67.048828 C 723.80147 67.01631 722.03453 67.317276 719.96875 68.005859 C 709.48594 71.500182 699.89167 87.20109 704.06836 94.162109 C 695.6412 96.971161 693.82014 106.93961 701.50391 109.03516 C 709.79589 111.29659 726.02687 91.682915 729.71289 81.853516 C 732.81055 73.593047 731.71445 67.18974 725.28516 67.048828 z M 722.29297 73.058594 C 724.14567 73.165001 725.30066 74.571964 725.0957 77.236328 C 724.75378 81.681174 723.04596 85.955702 719.96875 90.058594 C 716.89158 94.161523 713.98352 96.896066 711.24805 98.263672 C 708.5128 99.631317 708.5128 98.434839 711.24805 94.673828 C 713.98352 90.912856 713.8135 89.716378 710.73633 91.083984 C 707.65912 92.451627 706.97599 91.085314 708.68555 86.982422 C 712.68015 77.395245 718.756 72.855452 722.29297 73.058594 z M 652.39844 76.130859 C 649.06483 76.098801 646.1151 76.980366 643.55078 78.775391 L 636.37109 84.929688 L 636.37109 90.058594 L 640.47461 89.033203 C 650.04808 93.819935 660.64657 93.478385 672.27148 88.007812 L 683.55469 90.058594 L 683.55469 84.929688 L 672.27148 83.904297 C 664.57854 78.775635 657.95446 76.18429 652.39844 76.130859 z M 649.70508 79.800781 C 647.65363 82.536067 647.99522 85.272564 650.73047 88.007812 C 647.99522 86.640169 645.60223 85.61349 643.55078 84.929688 C 644.23459 82.878241 646.28599 81.168424 649.70508 79.800781 z M 657.91211 80.828125 L 668.16797 85.955078 C 664.06504 87.322721 660.6474 88.007812 657.91211 88.007812 C 659.9636 85.956366 659.9636 83.563411 657.91211 80.828125 z M 703.04297 99.291016 C 707.1459 101.34246 708.00079 103.22207 705.60742 104.93164 C 703.21405 106.64117 701.67603 106.64117 700.99219 104.93164 C 700.30839 103.22207 700.99152 101.34246 703.04297 99.291016 z M 639.61719 108.86914 C 638.96036 108.83885 638.60058 110.43635 638.93555 112.11133 C 639.54169 115.1419 636.5891 118.21984 632.78125 113.65039 C 627.15815 106.90265 625.48305 111.92515 626.69336 114.3457 C 628.74481 112.97806 630.21613 113.82147 632.26758 116.21484 C 636.55818 121.22057 642.87613 118.12969 641.5 112.625 C 640.81913 109.90165 640.12805 108.8927 639.61719 108.86914 z M 241.48047 110.625 C 295.3726 110.625 338.96795 153.44453 340.21094 207.0293 C 336.35679 204.41296 333.03455 202.34259 330.56055 200.89844 C 320.88358 209.80474 319.10322 217.55399 325.21875 224.14648 L 325.22461 224.15625 C 310.5817 244.83007 305.44089 255.75925 315.58789 265.90625 C 316.86214 267.1805 318.26137 268.45309 319.76953 269.70117 C 301.73586 293.10382 273.41604 308.14063 241.48047 308.14062 C 186.80185 308.14062 142.72266 264.06143 142.72266 209.38281 C 142.72266 154.70419 186.80185 110.625 241.48047 110.625 z M 630.33203 125.48242 C 632.51855 125.45393 646.90774 126.3312 643.55078 128.00977 L 628.16602 129.03711 C 625.05114 127.16818 626.9918 125.52592 630.33203 125.48242 z M 643.55078 129.03711 C 641.15332 132.87297 636.53337 134.46808 632.37109 135.58398 C 629.55909 136.37145 627.26398 135.0661 630.2168 132.11328 L 643.55078 129.03711 z M 241.48047 181.44922 A 27.932819 27.932819 0 0 0 213.54883 209.38281 A 27.932819 27.932819 0 0 0 241.48047 237.31445 A 27.932819 27.932819 0 0 0 269.41406 209.38281 A 27.932819 27.932819 0 0 0 241.48047 181.44922 z M 767.66406 437.78125 C 787.49479 463.76636 788.52148 496.93009 770.74219 537.27539 L 794.33398 670.62109 L 625.08789 670.62109 L 667.14258 462.39844 L 767.66406 437.78125 z " />
</svg>
