<?xml version="1.0" encoding="UTF-8" standalone="no"?>
<svg
   width="600"
   height="1000"
   id="svg2214"
   sodipodi:version="0.32"
   inkscape:version="1.4.2 (f4327f4, 2025-05-13)"
   sodipodi:docname="13599.svg"
   inkscape:output_extension="org.inkscape.output.svg.inkscape"
   sodipodi:modified="true"
   version="1.1"
   xmlns:inkscape="http://www.inkscape.org/namespaces/inkscape"
   xmlns:sodipodi="http://sodipodi.sourceforge.net/DTD/sodipodi-0.dtd"
   xmlns="http://www.w3.org/2000/svg"
   xmlns:svg="http://www.w3.org/2000/svg"
   xmlns:rdf="http://www.w3.org/1999/02/22-rdf-syntax-ns#"
   xmlns:cc="http://creativecommons.org/ns#"
   xmlns:dc="http://purl.org/dc/elements/1.1/">
  <metadata
     id="metadata2221">
    <rdf:RDF>
      <cc:Work
         rdf:about="">
        <dc:format>image/svg+xml</dc:format>
        <dc:type
           rdf:resource="http://purl.org/dc/dcmitype/StillImage" />
      </cc:Work>
    </rdf:RDF>
  </metadata>
  <defs
     id="defs2219" />
  <sodipodi:namedview
     inkscape:window-height="998"
     inkscape:window-width="1680"
     inkscape:pageshadow="2"
     inkscape:pageopacity="0.0"
     guidetolerance="10.0"
     gridtolerance="10.0"
     objecttolerance="10.0"
     borderopacity="1.0"
     bordercolor="#666666"
     pagecolor="#ffffff"
     id="base"
     inkscape:showpageshadow="2"
     inkscape:pagecheckerboard="0"
     inkscape:deskcolor="#d1d1d1"
     inkscape:zoom="0.755"
     inkscape:cx="-32.450331"
     inkscape:cy="476.15894"
     inkscape:window-x="-8"
     inkscape:window-y="-8"
     inkscape:window-maximized="1"
     inkscape:current-layer="svg2214"
     showguides="true">
    <sodipodi:guide
       position="2.8096958,925.07478"
       orientation="1,0"
       id="guide4"
       inkscape:locked="false" />
    <sodipodi:guide
       position="56.876656,713.2793"
       orientation="1,0"
       id="guide1"
       inkscape:locked="false" />
  </sodipodi:namedview>
  <path
     id="path2216"
     style="fill:#000000;stroke:none;stroke-width:1"
     d="M 467.15039 0.10546875 C 443.61198 0.92396778 408.75163 4.18416 393.83984 68.091797 C 388.65334 75.871549 382.49851 87.946207 374.71875 102.85742 C 370.82888 111.93382 370.5047 115.46703 374.71875 116.76367 C 378.93281 118.06028 381.46522 120.03361 383.41016 121.97852 C 375.68341 128.88915 380.57139 129.31607 386.88672 130.66992 C 388.06631 130.92892 387.41737 131.87739 385.14844 134.14648 C 382.87935 136.41557 383.64515 137.74054 386.88672 139.36133 C 390.12829 140.98212 391.77744 144.72203 392.10156 151.5293 C 392.42586 158.33658 393.8682 163.04895 399.05469 163.69727 C 404.24117 164.34558 414.54922 164.34558 426.86719 163.69727 L 426.86719 182.81836 C 400.28632 188.65319 380.08358 193.92467 367.76562 198.46289 C 355.4477 203.00107 343.5797 214.86907 331.26172 234.9668 C 318.94375 255.06452 299.62625 284.71839 275.63867 323.61719 C 252.29938 313.24418 204.23237 304.14163 138.54297 294.02734 C 135.2062 292.94653 127.33666 290.54273 117.12695 288.37695 C 118.88542 283.77853 121.57393 281.47852 125.18945 281.47852 C 126.05326 280.6147 126.48438 279.48183 126.48438 278.07812 C 125.62055 273.65105 122.16585 270.89812 116.11914 269.81836 C 113.31175 269.06252 110.88164 268.57535 108.83008 268.35938 L 110.61133 235.80469 C 105.53641 231.59359 99.922268 223.92828 93.767578 212.80664 C 87.612888 201.68501 84.535156 187.91641 84.535156 171.50391 C 84.535156 155.0914 87.989861 141.70369 94.900391 131.33789 C 101.91889 120.86412 108.34503 115.62695 114.17578 115.62695 C 120.10755 115.62695 123.13547 111.15678 123.14258 102.86133 L 123.27148 102.86133 C 123.27148 86.539375 120.45638 68.656424 114.82812 61.621094 C 109.19988 54.585797 103.85254 50.223666 98.787109 48.535156 L 98.646484 48.541016 C 104.64654 44.399405 108.5957 37.475865 108.5957 29.671875 C 108.5957 17.065885 98.289583 6.7617188 85.683594 6.7617188 C 73.077604 6.7617188 62.773438 17.065885 62.773438 29.671875 C 62.773438 38.297968 67.597881 45.84694 74.683594 49.753906 C 71.180062 50.628327 67.677381 53.037009 64.173828 56.978516 C 62.485358 58.104126 60.9383 59.791687 59.53125 62.042969 C 58.12417 64.294269 57.419922 66.545535 57.419922 68.796875 C 57.419922 71.048155 57.983715 72.737611 59.109375 73.863281 L 63.330078 73.863281 L 63.330078 72.173828 C 64.455718 72.736718 65.300431 73.019531 65.863281 73.019531 C 66.426091 77.522141 67.551754 83.431317 69.240234 90.748047 C 67.253904 95.449497 65.09375 109.80404 65.09375 119.08984 C 61.934925 123.64155 59.129928 128.64052 56.677734 134.08984 C 50.738994 147.04708 47.067763 163.02925 45.664062 182.0332 C 44.260353 201.14513 46.905029 221.33594 53.599609 242.60742 C 73.791319 246.60257 87.235107 252.75804 93.929688 261.07227 L 92.470703 268.35938 C 90.635093 268.57534 88.800464 269.06252 86.964844 269.81836 C 82.105884 270.89812 79.19055 273.65105 78.21875 278.07812 C 78.21875 279.48183 78.703981 280.6147 79.675781 281.47852 C 81.902077 281.47852 83.79236 282.40043 85.345703 284.24219 C 75.745776 283.892 65.937482 284.49052 56.876953 286.7207 C 57.44445 294.71977 64.085877 298.78808 75.916016 298.89453 C 76.095565 322.83355 80.99591 337.49433 89.599609 342.03125 C 89.422908 345.61156 89.269275 349.45965 89.138672 353.42773 C 78.385242 352.79145 67.603643 353.31788 56.876953 355.68164 C 57.37329 363.22589 63.213439 368.67671 75.386719 369.10156 C 75.589194 398.28968 82.032374 412.69766 94.273438 412.60156 C 96.365595 414.42308 99.004381 415.33398 102.18945 415.33398 C 108.18758 415.33398 112.31002 412.36371 114.55664 406.42383 C 124.67761 402.56816 135.7593 398.03402 137.26953 396.99609 C 179.57613 403.55354 216.93477 403.99472 246.08789 403.57812 C 275.60012 403.15641 291.95987 403.96311 296.49805 394.88672 C 334.74857 335.24187 361.98748 293.485 378.19531 266.25586 C 398.29304 308.39623 407.74608 366.17429 407.74609 440.08203 L 357.33594 693.86914 C 338.53482 802.13748 324.69355 870.0169 315.61719 897.24609 C 305.24415 924.47523 294.26146 940.4053 282.5918 945.91602 C 270.92216 951.42674 249.39444 960.3206 218.27539 971.99023 C 198.82599 971.99023 187.72381 975.84736 183.50977 985.89648 C 179.29572 995.94532 187.09966 1001.0993 207.8457 999.80273 L 308.66602 999.80273 C 347.56482 999.80273 361.16915 984.87144 346.90625 956.3457 C 349.49952 936.89627 361.485 903.17839 385.14844 855.52734 C 408.81188 807.87623 420.44488 772.83145 418.17578 749.49219 C 415.90669 726.15288 422.17898 707.48374 439.03516 693.86914 L 517.25781 693.86914 C 533.46564 801.48918 541.82681 870.25196 545.06836 900.72266 C 546.36497 926.65524 541.53513 943.23361 531.16211 949.39258 C 520.7891 955.5516 501.67827 963.56217 473.80078 971.99023 C 455.64803 971.99023 445.63583 976.17165 440.77344 985.89648 C 435.91108 995.62114 442.62505 999.80273 463.37109 999.80273 L 558.97461 999.80273 C 598.52173 1000.4513 609.06474 985.5198 590.26367 956.3457 C 588.31903 918.74349 591.05805 877.1042 597.2168 829.45312 C 603.37582 781.80206 599.31151 736.00953 585.04883 693.86914 L 560.71289 537.42383 C 574.97584 498.52503 573.88587 462.59881 558.97461 427.91406 C 544.06343 393.22926 542.41429 350.29133 553.75977 301.01953 C 565.10527 251.74769 560.48206 219.67892 538.11523 205.41602 C 515.7484 191.15312 503.35156 171.80535 503.35156 144.57617 L 503.35156 142.83789 C 516.31785 138.29971 529.598 129.61243 541.5918 115.02539 C 553.58561 100.43831 556.7588 79.959036 555.49805 55.925781 C 554.2163 31.492249 548.77618 -2.7328983 467.15039 0.10546875 z M 85.683594 14.761719 C 93.966062 14.761719 100.5957 21.389406 100.5957 29.671875 C 100.5957 37.954344 93.966062 44.583984 85.683594 44.583984 C 77.401125 44.583984 70.773438 37.954344 70.773438 29.671875 C 70.773438 21.389406 77.401125 14.761719 85.683594 14.761719 z M 472.0625 15.945312 C 529.06881 16.936799 536.93899 38.844349 538.11523 57.664062 C 538.76353 78.410107 533.25899 97.727564 518.99609 113.28711 C 504.73319 128.84661 495.07347 133.6765 491.18359 127.19336 C 485.34876 120.71026 488.20535 110.28469 499.875 97.642578 C 521.75803 73.936057 509.49814 36.218754 468.58594 59.402344 C 460.80618 52.270876 443.46005 48.73763 418.17578 45.496094 C 428.20621 16.837841 463.97871 15.804724 472.0625 15.945312 z M 84.263672 54.59375 C 92.253539 54.450192 100.37708 58.237977 105.5957 65.605469 C 110.37974 72.359379 112.81805 81.227538 113.38086 96.423828 C 91.430665 96.423828 83.06899 93.21803 74.75 107.62695 C 74.75 103.12434 75.388603 95.043556 77.408203 91.003906 L 73.373047 70.951172 L 66.707031 67.109375 L 68.394531 65.419922 L 67.291016 62.228516 C 71.914415 57.195349 78.049331 54.705407 84.263672 54.59375 z M 412.96094 55.925781 C 434.35527 55.925781 450.40479 60.753664 463.37109 69.830078 C 463.37109 78.258151 467.43102 79.176521 473.80078 71.568359 C 489.57057 52.732604 504.32936 63.248038 496.39844 83.736328 C 492.50855 93.785186 488.20951 100.94083 480.75391 108.07227 C 473.29831 115.20373 471.00087 122.4485 475.53906 128.93164 C 480.07724 135.41474 484.90711 150.02183 489.44531 172.38867 C 493.98349 194.7555 504.85068 210.57005 520.73438 219.32227 C 536.61802 228.07452 538.94186 254.54761 531.16211 299.28125 C 523.38235 344.01486 522.49905 382.24045 527.68555 414.00781 L 432.08203 434.86719 C 428.84033 354.4763 419.0632 297.58157 402.53125 264.51758 C 385.99924 231.4536 390.06331 212.3408 414.69922 207.1543 C 439.98349 207.1543 452.05811 196.28713 449.46484 175.86523 C 446.87155 155.44337 437.53602 147.31526 421.65234 151.5293 C 405.76866 155.74334 399.93795 152.32762 402.53125 139.36133 C 411.60761 132.87822 414.46422 127.72419 411.22266 125.45508 C 407.98114 123.18599 401.61963 121.97852 393.83984 121.97852 C 393.83984 118.44056 392.81578 114.96909 383.41016 111.54883 C 389.89325 94.044349 396.04811 82.176388 402.53125 75.044922 C 410.311 71.155063 419.0874 70.065068 426.86719 73.306641 C 434.64694 76.548214 442.77502 78.963159 451.20312 80.259766 L 449.46484 75.044922 C 444.2783 75.044922 438.1235 73.719938 430.34375 69.830078 C 422.56396 65.940186 414.43583 64.85023 406.00781 68.091797 C 409.24934 63.553618 411.6643 59.167354 412.96094 55.925781 z M 81.5625 56.769531 A 5.6879807 5.6879807 0 0 0 75.875 62.457031 A 5.6879807 5.6879807 0 0 0 81.5625 68.144531 A 5.6879807 5.6879807 0 0 0 87.25 62.457031 A 5.6879807 5.6879807 0 0 0 81.5625 56.769531 z M 488.83203 67.246094 C 479.74864 67.246094 464.30723 81.282079 467.92383 92.923828 C 461.99329 95.902753 457.6276 104.95486 465.10938 108.07227 C 473.28204 111.47758 490.71383 89.505296 492.92188 81.998047 C 494.40774 77.351012 495.74293 67.246094 488.83203 67.246094 z M 486.58984 72.478516 C 490.06705 72.367342 490.68267 80.249309 484.23047 88.951172 C 481.08751 93.18998 476.39401 96.021792 473.80078 97.642578 C 471.20751 99.263364 471.20751 98.055837 473.80078 94.166016 C 476.39405 90.27614 476.71818 89.39279 473.80078 90.689453 C 470.88339 91.98606 470.42876 91.097299 472.0625 87.212891 C 474.67189 81.008769 480.13251 72.684972 486.58984 72.478516 z M 417.31836 74.84375 C 416.89272 74.832098 416.46479 74.836409 416.0332 74.859375 C 412.8944 75.026402 409.59001 76.133336 406.00781 78.521484 L 400.79297 83.736328 L 400.79297 88.951172 L 404.26953 88.951172 C 413.99421 94.137711 423.8889 94.137711 435.55859 88.951172 L 447.72656 88.951172 L 447.72656 83.736328 L 435.55859 83.736328 C 429.45165 78.986522 423.70288 75.01853 417.31836 74.84375 z M 412.96094 80.259766 C 411.66428 82.853035 412.10595 84.619622 414.69922 87.212891 C 412.10597 85.916245 408.60106 84.384653 406.00781 83.736328 C 406.65611 81.791417 409.71937 81.556429 412.96094 80.259766 z M 421.65234 80.259766 L 432.08203 85.474609 C 428.19215 86.771271 424.89393 88.302869 421.65234 88.951172 C 424.24561 86.357903 424.24561 82.853013 421.65234 80.259766 z M 466.84766 99.380859 C 470.73754 101.32579 470.85503 102.97492 468.58594 104.5957 C 466.31686 106.21649 466.08184 106.54063 465.10938 104.5957 C 464.13691 102.65074 464.25438 100.67746 466.84766 99.380859 z M 91.277344 105.32617 L 112.53906 105.32617 C 113.23171 107.91117 108.07083 106.70754 103.85156 108.61719 C 90.229718 114.78245 71.574219 141.05595 71.574219 176.39258 C 71.574219 202.31798 82.017342 221.83844 97.857422 239.94141 L 94.931641 245.82422 C 83.594041 237.72596 79.759388 235.31717 65.398438 232.50977 C 61.943177 220.52432 59.082031 207.77086 59.082031 189.32031 C 59.082031 151.49684 66.495904 125.40228 91.277344 105.32617 z M 393.83984 125.45508 C 397.08141 126.10338 401.02795 127.19336 404.26953 127.19336 L 392.10156 128.93164 C 389.27839 128.93164 389.69899 125.45508 393.83984 125.45508 z M 407.74609 128.93164 C 405.086 130.26169 400.37769 134.68491 395.57812 135.88477 C 391.44153 135.07496 391.86196 133.54578 393.83984 130.66992 L 407.74609 128.93164 z M 137.95703 327.45898 C 179.98056 340.34097 225.85459 352.20432 263.4707 361.85938 C 244.02131 361.21105 199.86552 360.01773 137.6582 362.01758 C 130.42403 360.21139 123.11359 358.47103 115.75586 357.01953 C 115.57099 350.59787 115.3318 344.36855 115.03906 338.93164 C 122.96404 335.95317 130.75049 331.89395 137.95703 327.45898 z M 531.16211 438.34375 C 553.20476 466.22122 555.38471 498.52503 534.63867 537.42383 L 558.97461 671.27148 L 388.625 671.27148 L 430.34375 462.67969 L 531.16211 438.34375 z " />
</svg>
