<?xml version="1.0" encoding="UTF-8" standalone="no"?>
<svg
   width="1100"
   height="1000"
   version="1.1"
   id="svg1"
   sodipodi:docname="13598.svg"
   inkscape:version="1.4.2 (f4327f4, 2025-05-13)"
   xmlns:inkscape="http://www.inkscape.org/namespaces/inkscape"
   xmlns:sodipodi="http://sodipodi.sourceforge.net/DTD/sodipodi-0.dtd"
   xmlns="http://www.w3.org/2000/svg"
   xmlns:svg="http://www.w3.org/2000/svg">
  <defs
     id="defs1" />
  <sodipodi:namedview
     id="namedview1"
     pagecolor="#ffffff"
     bordercolor="#666666"
     borderopacity="1.0"
     inkscape:showpageshadow="2"
     inkscape:pageopacity="0.0"
     inkscape:pagecheckerboard="0"
     inkscape:deskcolor="#d1d1d1"
     inkscape:zoom="0.37749998"
     inkscape:cx="729.80137"
     inkscape:cy="600.00004"
     inkscape:window-width="1680"
     inkscape:window-height="998"
     inkscape:window-x="-8"
     inkscape:window-y="-8"
     inkscape:window-maximized="1"
     inkscape:current-layer="svg1"
     showguides="true">
    <sodipodi:guide
       position="1100,1000"
       orientation="0,-1"
       id="guide14"
       inkscape:locked="false" />
    <sodipodi:guide
       position="1100,0"
       orientation="0,-1"
       id="guide15"
       inkscape:locked="false" />
    <sodipodi:guide
       position="184.36407,826.20201"
       orientation="1,0"
       id="guide19"
       inkscape:locked="false" />
    <sodipodi:guide
       position="96.420008,556.27"
       orientation="-0.80947463,0.58715485"
       id="guide20"
       inkscape:locked="false" />
  </sodipodi:namedview>
  <path
     id="path1"
     style="fill:#000000;stroke:none;stroke-width:1"
     d="M 747.29492 0.0078125 C 744.61494 -0.06926002 741.4789 0.3954394 737.88867 1.4003906 C 737.71115 5.5939124 737.11921 12.543787 737.2168 20.773438 L 490.26562 0.8046875 L 488.08789 27.716797 L 740.77344 48.150391 C 744.20253 60.315357 750.71958 72.110015 762.79102 80.232422 C 760.25437 127.98717 757.1447 181.25893 756.65039 211.08203 C 705.10849 231.9092 671.86328 241.37157 642.19141 264.09766 C 606.21813 260.99653 593.00899 257.78212 585.37695 255.72461 L 588.16797 240.83984 C 599.33197 241.46006 607.23892 241.6148 611.89062 241.30469 C 616.54232 240.9946 619.17863 237.58272 619.79883 231.07031 C 620.41903 224.55789 621.97017 220.68188 624.45117 219.44141 C 626.93207 218.20095 627.24156 216.64974 625.38086 214.78906 C 623.52026 212.92837 623.21067 212 624.45117 212 C 628.98657 212 631.74045 208.62903 626.31055 204.55664 C 628.17125 202.69596 630.96425 201.14476 634.68555 199.9043 C 638.40695 198.66383 638.40695 194.01218 634.68555 185.94922 C 628.48325 172.30417 622.58991 161.7592 617.00781 154.31641 C 608.94481 118.96333 593.12915 99.271718 569.56055 95.240234 C 557.77595 93.224492 546.30277 92.488549 535.13867 93.03125 C 523.97447 93.573951 513.12007 95.394951 502.57617 98.496094 C 481.48837 104.69838 470.63387 119.89306 470.01367 144.08203 C 468.77317 165.79004 473.57949 183.15875 484.43359 196.18359 C 495.28759 209.20841 506.29681 218.20026 517.46094 223.16211 C 516.22054 232.46554 513.49262 248.28186 511.01172 255.72461 C 493.47976 258.33538 474.09857 261.79487 451.6875 274.44531 C 435.91184 281.82875 425.60638 295.43455 420.76953 315.26562 C 405.88402 364.88398 396.26934 403.95968 391.92773 432.49023 C 345.25477 436.71163 300.36197 443.27297 257.25977 452.16406 C 228.71954 435.75397 209.99948 428.19192 201.10352 429.44141 C 192.19827 430.71805 177.71487 430.65033 157.62305 429.37695 C 157.66925 434.24429 161.24507 437.56245 168.35742 439.19727 C 175.50523 440.6097 185.21126 442.47918 197.5625 444.13477 C 205.00819 456.33162 193.67913 458.78664 163.55273 451.625 C 133.42932 444.44106 118.47743 445.05773 118.76758 453.48438 C 135.55415 458.52852 154.3387 464.34351 175.10156 470.98828 C 195.8706 477.58845 216.96192 479.19558 238.375 475.7793 C 306.22011 485.57196 368.30928 477.84671 420.33789 470.14648 C 445.70777 413.36624 458.50768 375.08349 464.82422 337.5 C 486.57605 386.1192 490.77277 438.31525 491.47461 491.10156 L 445.88672 721.82812 C 429.14053 819.82439 416.73874 881.22598 408.67578 906.03516 C 399.37232 930.22412 388.98204 944.02405 377.50781 947.43555 C 366.03356 950.84685 346.96091 958.75556 320.29102 971.16016 C 302.30436 974.2613 291.45182 979.84328 287.73047 987.90625 C 284.00908 995.96901 291.44975 999.69053 310.05664 999.07031 C 334.24561 999.07031 351.92377 997.83084 363.08789 995.34961 C 374.25203 992.86879 389.13728 993.48739 407.74414 997.20898 C 426.35105 1000.9303 435.34288 995.0389 434.72266 979.5332 C 437.20355 948.52169 449.29976 911.61613 471.00781 868.82031 C 492.71584 826.02445 502.48522 793.92912 500.31445 772.53125 C 498.14365 751.13331 504.8087 733.92134 520.31445 720.89648 L 590.0918 721.82812 C 604.9773 819.20417 613.96901 881.84735 617.07031 909.75781 C 618.31077 933.32657 614.43671 949.14212 605.44336 957.20508 C 596.45004 965.26794 578.61906 970.5383 551.94922 973.01953 C 536.44351 981.70274 528.22526 988.37156 527.29492 993.02344 C 526.3646 997.67501 531.48042 1000 542.64453 1000 C 554.42891 1000 568.22908 999.53385 584.04492 998.60352 C 599.86078 997.67318 619.24291 997.67318 642.19141 998.60352 C 665.13988 999.53379 672.58255 992.55735 664.51953 977.67188 C 657.07675 931.77486 656.30119 887.11917 662.19336 843.70312 C 668.08554 800.2871 664.51892 759.66218 651.49414 721.82812 L 651.49414 720.89648 L 630.09766 579.48438 C 640.02115 543.51108 638.7796 510.17403 626.375 479.47266 C 613.50028 433.56171 632.44288 361.72523 651.62695 312.81445 C 703.38991 292.61727 751.17611 267.30215 801.16602 231.31641 C 805.63956 207.57534 806.39346 170.61966 801.92578 150.59375 C 798.47231 135.11391 792.72366 108.04011 790.92773 77.486328 C 794.57951 69.791813 796.80722 61.248354 797.85352 52.765625 L 824.66406 54.933594 L 826.83984 28.021484 L 797.23242 25.626953 C 797.16449 25.254745 797.09426 24.885798 797.02148 24.519531 C 795.58603 17.295929 780.50373 8.6084075 758.37305 8.3730469 C 756.88251 2.9662165 753.1909 0.17737204 747.29492 0.0078125 z M 546.53516 107.33398 C 561.84346 107.05051 586.96973 110.39389 595.61133 133.84961 C 572.04263 136.33054 556.84604 140.67271 550.02344 146.875 C 512.71391 126.88779 500.79941 158.51683 521.18164 181.29688 C 531.72554 193.08122 534.51854 201.76362 529.55664 207.3457 C 525.83524 212.92773 517.46018 208.89699 504.43555 195.25195 C 491.41065 181.6069 485.51927 165.17242 486.75977 145.94531 C 488.00017 127.33841 498.69794 115.70642 518.85547 111.05469 C 528.93417 108.72884 538.16206 107.48904 546.53516 107.33398 z M 600.26172 144.08203 C 602.12242 146.56292 604.29254 150.28619 606.77344 155.24805 C 599.33074 152.1469 592.04276 152.30162 584.91016 155.71289 C 577.77746 159.12412 571.73133 160.82812 566.76953 160.82812 L 566.76953 166.41211 C 574.21233 165.17165 581.50011 162.99958 588.63281 159.89844 C 595.76541 156.79728 602.74195 156.79728 609.56445 159.89844 C 615.76675 166.72098 621.66009 178.19633 627.24219 194.32227 C 619.79939 196.8032 616.38761 199.9036 617.00781 203.625 C 609.56501 204.24523 604.4492 205.48501 601.6582 207.3457 C 598.8671 209.20641 601.81004 212.9277 610.49414 218.50977 C 612.35484 230.91435 606.15377 235.2585 591.88867 231.53711 C 577.62337 227.81577 569.40517 234.94697 567.23438 252.93359 C 563.98943 269.60026 584.78875 279.91406 604.04688 279.91406 C 628.85601 279.91406 633.5076 302.70609 618.00195 348.29297 C 602.4962 393.87983 596.60479 433.72915 600.32617 467.8418 L 513.80273 487.37891 C 511.32182 414.81208 504.96427 366.74449 494.73047 343.17578 C 484.49671 319.60704 476.89931 303.17257 471.9375 293.86914 C 466.97564 284.56566 475.66002 279.91406 497.98828 279.91406 C 514.31423 279.91406 526.00602 270.87833 529.29883 252.56055 C 530.7287 245.64052 532.75198 236.94413 535.13867 225.95312 C 536.22399 220.95512 539.01537 215.56603 543.04688 209.67383 C 547.07837 203.78164 545.83662 197.73158 539.32422 191.5293 C 532.81192 185.32701 527.69406 177.73158 523.97266 168.73828 C 516.15676 149.85004 534.13405 143.37276 545.37305 157.10938 C 550.95525 163.93186 553.74414 163.93186 553.74414 157.10938 C 566.14874 148.42614 581.65482 144.08203 600.26172 144.08203 z M 531.77148 152.95703 C 523.52598 152.85997 526.53297 164.50554 527.23047 166.87695 C 530.17577 176.89108 545.01071 194.19802 552.34961 191.5293 C 559.78561 188.82533 556.65223 180.99558 550.95312 177.57617 C 553.74082 170.6069 542.87508 153.08733 531.77148 152.95703 z M 533.16211 159.08594 C 540.86431 158.71921 544.97213 167.86999 546.30273 171.5293 C 547.54323 174.94055 546.92231 176.02557 544.44141 174.78516 C 541.96051 173.54469 541.96051 174.7845 544.44141 178.50586 C 546.92231 182.22725 546.92231 183.31233 544.44141 181.76172 C 541.96051 180.21117 539.16946 177.57686 536.06836 173.85547 C 532.96716 170.13411 531.26127 166.25613 530.95117 162.22461 C 530.79607 160.20887 531.53401 159.16344 533.16211 159.08594 z M 597.25195 161.35352 C 591.97035 161.54734 585.84088 164.16377 578.86328 169.20312 L 569.56055 169.20312 L 568.63086 173.85547 L 579.79492 172.92383 C 590.33882 177.88564 599.95167 177.88564 608.63477 172.92383 L 611.42578 174.78516 L 611.42578 169.20312 L 605.84375 163.61914 C 603.28535 161.99104 600.42095 161.23723 597.25195 161.35352 z M 600.26172 165.48242 C 603.36292 166.10266 605.22355 167.34242 605.84375 169.20312 C 603.98315 170.4436 601.81293 171.37196 599.33203 171.99219 C 601.19273 169.51131 601.50222 167.34312 600.26172 165.48242 z M 591.88867 166.41211 C 590.02797 168.27282 590.33941 170.44291 592.82031 172.92383 C 589.71921 172.30359 586.30734 171.68272 582.58594 171.0625 L 591.88867 166.41211 z M 551.88281 182.22656 C 553.74351 184.08727 554.2096 185.79314 553.2793 187.34375 C 552.349 188.8943 550.95445 189.04882 549.09375 187.80859 C 547.23305 186.56793 548.16151 184.70748 551.88281 182.22656 z M 608.91406 191.8457 C 608.27326 191.8216 607.55353 192.59393 607.24023 194.78711 C 606.66633 198.80444 611.99982 203.48072 616.07812 198.04297 C 617.93872 195.56211 619.49007 194.94328 620.73047 196.18359 C 621.56747 194.50876 620.78453 189.0438 615.61133 195.25195 C 612.08063 199.48887 609.52255 196.35722 610.03125 194.32227 C 610.34575 193.06441 609.68756 191.8748 608.91406 191.8457 z M 617.53516 206.47461 C 620.66306 206.36519 622.71094 207.92643 618.86914 209.20703 L 604.91406 208.27734 C 606.13246 207.76699 612.15786 206.66272 617.53516 206.47461 z M 605.84375 210.13672 L 617.9375 212 C 619.7215 213.74883 619.12934 216.23505 615.90234 215.66797 C 613.18574 215.19058 607.15675 212.76223 605.84375 210.13672 z M 604.04688 489.24219 C 621.41327 513.43115 622.34359 543.51107 606.83789 579.48438 L 628.23438 700.42969 L 474.72852 700.42969 L 512.87305 511.57031 L 604.04688 489.24219 z " />
  <path
     style="fill:#000000;stroke:none;stroke-width:1"
     d="m 184.36411,351.71929 q -10.6753,3.55841 -16.26701,12.2003 l -50.83493,70.15182 q -13.2168,15.25039 -20.842162,9.65859 -7.625097,-5.08344 3.050189,-22.36727 l 50.834663,-70.1518 q 6.60853,-8.13356 6.60853,-19.31716 -6.10012,-9.15024 -15.75885,-12.20033 L 58.294009,293.25942 q -18.808792,-7.62519 -15.758603,-16.77544 2.542042,-8.64188 22.367129,-4.06676 l 82.352125,26.94238 q 9.65873,4.06679 20.33403,0 6.10012,-8.64192 5.59171,-18.80884 V 193.6235 q 1.52498,-19.82551 11.18371,-19.82551 9.15006,0 10.67527,19.82551 v 86.92726 q -0.50891,10.16692 6.10013,18.80884 10.16688,3.55842 19.82537,0 l 82.86052,-26.94238 q 19.3172,-4.57512 22.36739,4.57511 3.04995,8.6419 -15.75886,16.26709 l -82.35212,26.43402 q -10.16688,3.05009 -16.26701,12.20033 -0.50892,10.67524 6.10013,18.80882 l 51.34308,70.15179 q 10.16688,17.28377 2.54204,22.87562 -7.11669,5.5918 -20.33377,-9.65859 l -50.83465,-70.15182 q -6.10014,-9.15024 -16.26701,-12.2003 z"
     id="path20" />
  <circle
     style="fill:#f9f06b;fill-rule:evenodd;stroke:none;stroke-width:26.9999;stroke-linecap:round;stroke-miterlimit:5;stroke-dasharray:none"
     id="path21"
     cx="184.36407"
     cy="322.48688"
     r="13.274724" />
</svg>
