<?xml version="1.0" encoding="UTF-8" standalone="no"?>
<svg
   width="1100"
   height="1000"
   version="1.1"
   id="svg1"
   sodipodi:docname="13590.svg"
   inkscape:version="1.4.2 (f4327f4, 2025-05-13)"
   xmlns:inkscape="http://www.inkscape.org/namespaces/inkscape"
   xmlns:sodipodi="http://sodipodi.sourceforge.net/DTD/sodipodi-0.dtd"
   xmlns="http://www.w3.org/2000/svg"
   xmlns:svg="http://www.w3.org/2000/svg">
  <defs
     id="defs1" />
  <sodipodi:namedview
     id="namedview1"
     pagecolor="#ffffff"
     bordercolor="#666666"
     borderopacity="1.0"
     inkscape:showpageshadow="2"
     inkscape:pageopacity="0.0"
     inkscape:pagecheckerboard="0"
     inkscape:deskcolor="#d1d1d1"
     inkscape:zoom="0.53386562"
     inkscape:cx="707.10678"
     inkscape:cy="793.27079"
     inkscape:window-width="1680"
     inkscape:window-height="998"
     inkscape:window-x="-8"
     inkscape:window-y="-8"
     inkscape:window-maximized="1"
     inkscape:current-layer="svg1" />
  <path
     id="path1"
     style="fill:#000000;stroke:none;stroke-width:1"
     d="M 497.63477 0.1875 C 485.32779 -0.4107556 472.67819 0.40095981 459.6875 2.6230469 C 433.70613 7.0672208 416.27116 28.77403 407.38281 67.746094 C 401.22932 75.950774 394.73368 87.575342 387.89648 102.61719 C 383.79414 111.50554 383.79414 116.63255 387.89648 118 C 391.99879 119.36745 395.07577 121.07776 397.12695 123.12891 C 391.14078 127.61859 394.17878 131.33398 399.17969 131.33398 C 400.5471 131.33398 400.2035 132.359 398.15234 134.41016 C 396.10119 136.46131 396.44479 138.16966 399.17969 139.53711 C 401.91455 140.90456 403.6229 145.17836 404.30664 152.35742 C 404.99035 159.53649 407.89552 163.29684 413.02344 163.63867 C 418.15132 163.98055 426.8688 163.81066 439.17578 163.12695 L 442.25391 179.53516 C 422.11639 182.40795 403.01194 186.18151 376.61523 199.02148 C 359.34856 207.42039 348.10349 223.31074 342.77148 245.17188 C 326.3622 299.86951 315.76456 342.94536 310.97852 374.39648 C 279.52739 378.49882 237.82017 384.65083 185.85742 392.85547 C 176.96904 383.96712 165.34641 377.47148 150.98828 373.36914 C 131.16039 312.51804 80.907537 209.27699 0.22851562 63.644531 C -2.5063407 158.68165 19.372269 261.23937 65.865234 371.31836 C 92.530353 360.37886 110.30697 356.27686 119.19531 359.01172 L 123.29688 368.24219 C 119.19454 367.55845 109.96552 368.24178 95.607422 370.29297 C 93.556233 383.28366 96.974898 390.46263 105.86328 391.83008 C 107.23073 417.12771 115.43472 431.14401 130.47656 433.87891 C 130.47656 457.12543 135.94719 467.72301 146.88672 465.67188 C 159.87741 464.98813 164.66277 453.36551 161.24414 430.80273 L 171.5 427.72656 C 213.89067 424.9917 246.02523 424.9917 267.9043 427.72656 C 289.78334 430.46146 316.33149 425.40779 340.26172 417.20312 C 368.22869 354.61035 382.82414 306.98076 391.33594 269.67969 C 415.31676 323.27654 419.94309 380.81687 420.7168 439.00781 L 393.08203 578.87695 C 359.39098 584.18037 322.22194 590.39877 281.20312 597.57031 C 313.39844 609.79114 347.58507 619.2841 383.76172 626.05078 L 370.46289 693.35156 C 352.00245 801.37941 338.3278 869.0672 329.43945 896.41602 C 319.18362 923.0811 307.73085 938.29425 295.08203 942.05469 C 282.43322 945.81519 261.40978 954.53264 232.00977 968.20703 C 212.18189 971.62563 200.21559 977.77962 196.11328 986.66797 C 192.01094 995.55629 200.21689 999.65825 220.72852 998.97461 C 247.39364 998.97461 266.8786 997.60809 279.18555 994.87305 C 291.49253 992.13808 307.90247 992.82153 328.41406 996.92383 C 348.92568 1001.0261 358.83995 994.53043 358.15625 977.4375 C 360.8911 943.25144 374.22212 902.56928 398.15234 855.39258 C 422.08257 808.21583 432.85201 772.83441 430.45898 749.24609 C 428.06596 725.65774 435.41678 706.68435 452.50977 692.32617 L 529.42773 693.35156 C 545.83701 800.69567 555.75114 869.752 559.16992 900.51953 C 560.53737 926.50094 556.26357 943.93587 546.34961 952.82422 C 536.43565 961.71245 516.77885 967.52277 487.37891 970.25781 C 470.28592 979.82991 461.22679 987.18071 460.20117 992.30859 C 459.17559 997.43643 464.8161 1000 477.12305 1000 C 490.11377 1000 505.32686 999.48662 522.76172 998.46094 C 540.19659 997.43525 561.56172 997.43525 586.85938 998.46094 C 612.15702 999.48644 620.36299 991.79597 611.47461 975.38672 C 603.26993 924.79137 602.41484 875.56354 608.91016 827.70312 C 615.40548 779.84271 611.47333 735.05852 597.11523 693.35156 L 597.11523 692.32617 L 588.70312 636.72656 C 590.26319 636.63086 591.82533 636.5306 593.39062 636.42773 C 591.15158 607.42576 593.10445 589.28617 599.24805 582.00977 L 604.11719 582.20898 C 601.99988 587.43441 601.10281 598.70234 601.42578 616.00977 C 614.00318 619.85344 621.58926 617.4698 624.18359 608.85938 C 656.5765 609.28124 671.88573 601.08092 670.11328 584.25977 C 691.79302 591.71284 704.70445 590.09367 704.87695 579.07031 C 706.01265 566.11133 693.87951 557.32938 669.4707 552.0625 C 672.28699 507.57844 676.57669 474.69354 682.33789 453.41016 C 688.09894 432.12699 687.00254 400.14183 684.70898 372.26953 C 677.03872 341.39482 664.81218 293.89441 640.18945 241.07031 C 630.53567 201.48998 599.08092 189.84932 586.85938 188.76562 C 547.21209 185.25003 526.00833 179.53472 523.27344 171.33008 C 520.53854 163.12544 518.48854 153.89644 517.12109 143.64062 C 529.42804 138.17084 541.56418 128.25657 553.5293 113.89844 C 565.49438 99.540293 570.79312 80.395031 569.42578 56.464844 C 568.74204 29.799726 556.77578 13.050087 533.5293 6.2128906 C 521.90604 2.7942924 509.94174 0.7857556 497.63477 0.1875 z M 485.07031 15.955078 C 494.30054 16.126004 504.47158 17.492701 515.58203 20.056641 C 537.80294 25.184556 549.5974 38.005951 550.96484 58.517578 C 552.33229 79.712909 545.83669 97.831197 531.47852 112.87305 C 517.12042 127.91489 507.88945 132.35853 503.78711 126.20508 C 498.31736 120.05158 501.39434 110.47897 513.01758 97.488281 C 535.48825 72.374075 522.35244 37.510239 481.22461 59.542969 C 473.70368 52.705772 456.95404 47.918487 430.97266 45.183594 C 435.7587 32.192906 445.50117 23.475424 460.20117 19.03125 C 467.55118 16.809163 475.84008 15.784152 485.07031 15.955078 z M 425.84375 56.464844 C 446.35537 56.464844 463.44865 61.252129 477.12305 70.824219 C 477.12305 78.345119 480.20002 78.345119 486.35352 70.824219 C 498.73909 55.686286 518.55888 62.819037 509.94141 83.644531 C 505.83907 93.558455 500.19856 101.93233 493.01953 108.76953 C 485.84046 115.60672 484.4738 122.27416 488.91797 128.76953 C 493.36214 135.26489 496.26732 141.24705 497.63477 146.7168 C 501.73707 186.37257 517.46169 206.20117 544.81055 206.20117 C 572.15933 206.20117 577.2883 231.32661 560.19531 281.58008 C 545.70082 324.19395 538.82597 362.26078 539.57227 395.7793 C 539.70606 401.78831 540.08534 407.6505 540.70898 413.36719 L 445.33008 434.9043 C 442.59522 354.90902 435.58609 301.92083 424.30469 275.93945 C 413.02332 249.95808 404.64944 231.83978 399.17969 221.58398 C 393.7099 211.32815 403.2806 206.20117 427.89453 206.20117 C 453.19216 206.20117 464.64498 196.28687 462.25195 176.45898 C 459.85897 156.6311 450.7998 148.76879 435.07422 152.87109 C 419.34868 156.97343 412.51135 152.18611 414.5625 138.51172 C 424.13459 132.35823 427.38145 128.25622 424.30469 126.20508 C 421.22796 124.15388 415.58745 122.78722 407.38281 122.10352 C 408.06651 118.00118 404.3062 114.58256 396.10156 111.84766 C 402.25506 94.070952 408.7507 81.421329 415.58789 73.900391 C 423.10883 70.481792 430.80129 70.481792 438.66406 73.900391 C 446.52687 77.318989 454.56103 79.712631 462.76562 81.080078 L 462.76562 74.925781 C 457.29591 74.925781 450.62845 73.045588 442.76562 69.285156 C 434.90281 65.524687 426.86867 65.354838 418.66406 68.773438 C 421.39892 63.303651 423.7926 59.1997 425.84375 56.464844 z M 501.34375 66.248047 C 489.11128 66.392007 477.12504 85.701339 480.19922 93.386719 C 473.91959 97.154481 470.46712 105.78955 478.66211 108.76953 C 486.75206 111.71137 503.10611 92.626207 506.35156 81.591797 C 507.12289 78.96931 510.43321 66.141095 501.34375 66.248047 z M 499.81445 73.003906 C 501.60922 73.089366 502.42094 74.242757 502.25 76.464844 C 501.90817 80.909054 500.02796 85.182853 496.60938 89.285156 C 493.19074 93.387496 490.11377 96.292672 487.37891 98.001953 C 484.64401 99.711268 484.64401 98.514447 487.37891 94.412109 C 490.11377 90.309806 490.11377 88.9431 487.37891 90.310547 C 484.64401 91.677956 483.96069 90.481135 485.32812 86.720703 C 486.81162 82.641152 491.33545 72.600176 499.81445 73.003906 z M 429.16016 75.503906 C 425.66678 75.375712 422.50979 76.207186 419.68945 78.001953 L 413.53711 84.15625 L 413.53711 90.310547 L 416.61328 88.257812 C 426.18533 93.727564 436.78301 93.727565 448.40625 88.257812 L 460.71289 89.285156 L 459.6875 84.15625 L 449.43164 84.15625 C 441.73977 78.601033 434.98246 75.717564 429.16016 75.503906 z M 425.84375 80.054688 C 424.47634 82.105839 424.81799 84.497565 426.86914 87.232422 C 424.13425 86.548717 421.74061 85.523697 419.68945 84.15625 C 420.37316 82.105099 422.42515 80.738392 425.84375 80.054688 z M 435.07422 81.080078 L 445.33008 86.207031 C 441.22777 86.890737 437.46742 87.574071 434.04883 88.257812 C 436.78368 85.52292 437.12537 83.131229 435.07422 81.080078 z M 479.17383 98.513672 C 483.27613 101.24856 484.30115 103.30052 482.25 104.66797 C 480.19885 106.03538 478.66038 105.86358 477.63477 104.1543 C 476.60919 102.44498 477.12264 100.56482 479.17383 98.513672 z M 416.30664 109.11719 C 415.454 109.14845 414.72919 110.4598 415.07617 111.84766 C 415.6385 114.09714 412.80922 117.53783 408.92188 112.87305 C 403.21278 106.02213 402.36054 112.05696 403.28125 113.89844 C 404.6487 112.53098 406.35706 113.21432 408.4082 115.94922 C 412.90167 121.94042 418.78553 116.79154 418.15234 112.35938 C 417.80733 109.94437 417.01311 109.09128 416.30664 109.11719 z M 15.611328 120.05078 C 53.89965 197.99491 87.061183 270.81167 115.09375 338.5 C 106.20536 337.81629 93.214086 340.55162 76.121094 346.70508 C 51.507128 290.64002 31.336873 215.08793 15.611328 120.05078 z M 407.38281 125.17969 C 411.56278 125.07602 417.11662 125.75841 420.7168 127.23047 L 405.33203 128.25586 C 401.00257 126.81272 403.39508 125.2786 407.38281 125.17969 z M 419.68945 129.28125 C 417.36196 133.35289 412.59243 133.82136 408.4082 134.41016 C 403.72517 135.10542 403.78522 132.91689 406.35742 131.33398 L 419.68945 129.28125 z M 589.99805 262.86719 C 601.25289 301.38308 604.8512 318.3256 637.11328 379.57227 C 633.54361 423.9469 635.82643 477.23699 637.37695 529.93164 C 626.75361 536.72033 619.37166 545.00153 615.23242 554.77539 C 603.6212 554.82865 590.76587 555.30475 576.52148 556.2207 L 573.52734 536.4375 C 584.4667 496.78173 583.10017 460.03169 569.42578 426.1875 C 546.61326 369.72661 586.41715 269.49173 589.99805 262.86719 z M 544.81055 436.95703 C 563.95469 463.62215 564.98167 496.78173 547.88867 536.4375 L 551.72656 558.13477 C 516.2505 561.28254 473.38624 566.67922 421.49805 574.49609 L 444.30469 461.57031 L 544.81055 436.95703 z M 578.52539 579.16211 C 574.31961 587.11097 572.3216 600.16627 572.53125 618.33203 C 511.71947 622.55953 434.05562 616.9594 339.53711 601.5293 C 425.72594 590.90992 505.38779 583.4547 578.52539 579.16211 z M 410.19531 630.45703 C 458.68149 637.58045 510.56152 640.05482 565.83594 637.87891 L 571.47656 669.76367 L 402.25586 669.76367 L 410.19531 630.45703 z " />
</svg>
