<?xml version="1.0" encoding="UTF-8" standalone="no"?>
<svg
   width="1100"
   height="1000"
   version="1.1"
   id="svg1"
   sodipodi:docname="1359B.svg"
   inkscape:version="1.4.2 (f4327f4, 2025-05-13)"
   xmlns:inkscape="http://www.inkscape.org/namespaces/inkscape"
   xmlns:sodipodi="http://sodipodi.sourceforge.net/DTD/sodipodi-0.dtd"
   xmlns="http://www.w3.org/2000/svg"
   xmlns:svg="http://www.w3.org/2000/svg">
  <defs
     id="defs1" />
  <sodipodi:namedview
     id="namedview1"
     pagecolor="#ffffff"
     bordercolor="#666666"
     borderopacity="1.0"
     inkscape:showpageshadow="2"
     inkscape:pageopacity="0.0"
     inkscape:pagecheckerboard="0"
     inkscape:deskcolor="#d1d1d1"
     inkscape:zoom="6.04"
     inkscape:cx="654.71854"
     inkscape:cy="256.20861"
     inkscape:window-width="1680"
     inkscape:window-height="998"
     inkscape:window-x="-8"
     inkscape:window-y="-8"
     inkscape:window-maximized="1"
     inkscape:current-layer="svg1" />
  <path
     id="path1"
     style="fill:#000000;stroke:none;stroke-width:1"
     d="M 771.81055,0.24609375 C 763.10986,0.69612831 754.26048,1.7612741 745.25977,3.4414062 709.25697,10.161936 683.57412,39.444968 668.21289,91.289062 659.57223,101.8499 649.49162,117.2115 637.9707,137.37305 c -5.76045,13.44106 -5.76045,20.88016 0,22.32031 5.76033,1.44011 10.08057,4.08156 12.96094,7.92187 -8.67319,6.50456 -5.13253,11.31794 1.43945,12.96094 1.42356,-0.29783 1.20028,-0.001 -2.16015,2.87891 -3.36021,2.88026 -2.88088,5.7604 1.43945,8.64062 4.32033,2.88022 6.48047,8.88123 6.48047,18.00196 0,6.96837 3.63755,10.50741 6.75391,12.30664 10.59827,6.11891 25.55601,6.75656 42.21093,4.25586 l 2.88086,27.36132 c -59.52467,5.76048 -98.40894,19.68196 -116.65039,41.76368 -55.68437,32.64256 -116.64933,76.32451 -182.89453,131.04882 -21.12167,-8.64067 -53.04421,-14.63972 -95.76758,-18 -42.72337,-3.36029 -68.88558,-6.96051 -78.48633,-10.80078 V 203.61719 C 235.21764,152.73322 195.61529,127.5317 117.36914,128.01172 39.122994,128.49175 0,154.17263 0,205.05664 V 688.93555 H 236.17773 V 444.11719 c 111.36877,38.40304 179.53416,51.84322 204.4961,40.32226 1.92017,-3.84031 26.88293,-22.56145 74.88672,-56.16406 56.64445,-45.12357 88.8077,-58.56567 96.48828,-40.32422 0,22.08172 19.20048,66.24501 57.60351,132.49024 7.68061,23.04181 5.27984,78.24645 -7.20117,165.61328 -93.12728,-108.48851 -155.53038,-166.09197 -187.21289,-172.8125 -34.56273,6.72053 -57.12471,19.20191 -67.68555,37.44336 -29.76233,67.20529 -54.72512,176.65379 -74.88671,328.3457 -6.72053,39.36305 -21.1214,59.76293 -43.20313,61.20313 -22.08175,1.44011 -59.04461,8.8812 -110.88867,22.32226 -41.28326,0 -41.28326,12.00202 0,36.00391 h 217.45703 c 9.60079,-9.60075 11.28153,-28.56251 5.04102,-56.88477 -6.2405,-28.32223 1.67995,-64.80572 23.76171,-109.44922 21.24259,-42.94704 32.26698,-88.33816 33.07422,-136.17187 L 456.51562,861.75 c -18.2414,17.28137 -29.76211,30.72152 -34.5625,40.32227 -10.56084,19.20154 -8.16009,40.32342 7.20118,63.36523 15.36119,23.04177 35.52239,34.5625 60.48437,34.5625 26.88208,0 79.92654,-18.00111 159.13281,-54.00391 79.2062,-36.00288 138.01104,-58.32418 176.41407,-66.96484 29.76234,34.56277 20.1611,68.64548 -28.80274,93.60742 -32.64255,0 -32.64255,9.11992 0,27.36133 h 36.00196 c 26.88212,-3.84031 40.32421,-11.52013 40.32421,-23.04102 9.60075,-37.44295 22.08217,-90.24876 37.44336,-149.77343 0,-24.00193 -12.00201,-36.00196 -36.0039,-36.00196 19.20161,-26.88208 20.64156,-71.04539 4.32031,-132.49023 -16.32127,-61.44485 -20.64151,-111.36845 -12.96094,-149.77148 74.88587,24.00193 125.29082,36.00195 151.21289,36.00195 20.1616,-2.88025 30.2422,-12.00014 30.2422,-27.36133 C 1023.9211,455.15761 982.63798,378.35171 923.11328,287.14453 901.03152,260.26241 865.02744,246.82031 815.10352,246.82031 v -44.64258 c 19.2015,3.84031 37.20452,-3.60079 54.00586,-22.32226 16.80137,-18.72148 24.72183,-50.64402 23.76171,-95.767579 0,-34.56273 -15.60219,-58.324162 -46.80468,-71.285157 C 822.66457,3.0819596 797.9126,-1.1040099 771.81055,0.24609375 Z M 759.92969,21.21875 c 17.82141,-1.170081 38.61312,1.305302 62.375,7.425781 31.68247,8.160639 47.52343,27.120477 47.52343,56.882813 -3.84031,39.363086 -12.96018,66.245336 -27.36132,80.646486 -14.40111,14.40115 -26.88252,17.28133 -37.44336,8.64062 -11.52092,-6.72053 -8.88142,-18.72058 7.91992,-36.00195 31.81201,-32.72096 18.58447,-85.334615 -43.92383,-56.164062 -9.60075,-10.560836 -32.16081,-18.721979 -67.68359,-24.482422 6.72049,-18.241413 20.64005,-29.762107 41.76172,-34.5625 5.28041,-1.20009 10.89156,-1.994739 16.83203,-2.384766 z m -68.67578,54.228516 c 29.76229,1.920135 53.76441,9.599958 72.00586,23.041015 -0.96009,11.520919 3.60083,12.002239 13.68164,1.441407 20.40649,-21.378291 46.41425,-11.024813 32.40234,18.000002 -6.72057,13.92108 -15.36108,25.68245 -25.92187,35.2832 -10.56087,9.60079 -13.20039,19.20198 -7.91993,28.80273 5.28041,9.60076 9.36005,17.7619 12.24024,24.48243 v 40.32226 c 0,9.60075 4.7996,18.00254 14.40039,25.20313 9.60075,7.20055 27.36312,10.80078 53.28515,10.80078 24.96198,0 33.6025,10.08064 25.92188,30.24219 -6.72053,16.32131 -17.28245,61.92464 -31.68359,136.81054 l -28.80079,-10.08007 c -21.12167,-31.68248 -55.68566,-59.04609 -103.68945,-82.0879 -9.60071,6.72053 -7.67933,15.8424 5.76172,27.36329 l -24.48242,38.88281 c -1.92013,15.36119 6.24097,27.36129 24.48242,36.00195 24.96195,8.6407 50.88351,14.40103 77.76562,17.28125 l 41.76368,20.16211 c -4.28513,40.709 -6.00306,81.46553 -2.88086,122.41016 l -158.41211,76.32617 c 9.60064,-67.20529 15.361,-121.45112 17.28125,-162.73438 -45.1236,-83.52657 -67.20622,-156.01219 -66.2461,-217.45703 0,-22.08173 17.76234,-33.12109 53.28516,-33.12109 36.4829,0 54.24333,-9.60121 53.2832,-28.80274 -0.96009,-29.76234 -13.68023,-43.20444 -38.16211,-40.32421 -24.48195,2.88025 -34.8032,-4.32021 -30.96289,-21.60157 14.40115,-8.6407 19.44147,-14.63975 15.1211,-18 -4.32029,-3.36029 -12.24076,-5.52042 -23.76172,-6.48047 0,-6.72057 -4.79968,-12.00152 -14.40039,-15.84179 9.60071,-24.96197 19.68132,-42.243 30.24219,-51.843752 9.60075,-5.760444 19.92203,-5.760443 30.96289,0 11.04086,5.760442 22.32087,9.599362 33.84179,11.519532 V 104.25 c -6.72053,-0.96009 -15.8404,-4.560316 -27.36132,-10.800781 -11.52089,-6.240504 -23.04157,-6.960549 -34.5625,-2.160157 4.80024,-6.720529 8.63916,-12.001489 11.51953,-15.841796 z m 106.75,18.193359 c -1.8466,-0.01023 -4.05255,0.378205 -6.66211,1.248047 -15.04096,5.013681 -29.52331,29.040908 -23.76172,36.722658 -14.00013,6.00011 -15.40394,16.1724 -5.04102,20.88281 11.72135,5.32791 35.96288,-23.17314 41.04492,-36.72461 3.89495,-10.38601 4.39157,-22.073688 -5.58007,-22.128905 z m -102.85743,8.539065 c -4.99539,-0.18002 -9.65232,0.98957 -13.97265,3.50976 l -8.64063,8.64063 v 7.20117 h 4.32032 c 13.44106,6.72053 28.32129,6.72053 44.64257,0 l 17.28125,2.88086 v -8.64258 l -15.83984,-1.43945 c -10.20082,-7.80061 -19.46536,-11.85037 -27.79102,-12.15039 z m 98.17188,1.31054 c 2.81919,-0.0929 4.97936,1.02838 4.50391,5.08008 -0.96009,5.76048 -3.84024,11.76149 -8.64063,18.00196 -4.80036,6.24051 -9.12063,10.3201 -12.96094,12.24023 -3.84031,1.92017 -3.84031,7.1e-4 0,-5.75977 3.84031,-5.76044 3.84031,-7.92057 0,-6.48046 -3.84049,1.44011 -4.56046,-0.24067 -2.16015,-5.04102 2.40019,-4.80039 6.00042,-10.08135 10.80078,-15.8418 2.15985,-0.79991 5.63784,-2.10632 8.45703,-2.19922 z m -102.06445,3.63868 c -2.88037,3.84027 -2.88037,7.68117 0,11.52148 -3.84016,-1.92014 -7.19971,-3.36023 -10.08008,-4.32031 0.96005,-2.88023 4.3196,-5.28104 10.08008,-7.20117 z m 11.52148,2.88086 14.40039,7.20117 c -5.76045,1.92014 -11.03949,2.8789 -15.83984,2.8789 3.84049,-2.88023 4.31982,-6.23976 1.43945,-10.08007 z m 63.36523,28.80273 c 3.84039,2.8802 4.3198,5.51976 1.43946,7.91992 -2.88019,2.4002 -4.79965,2.16148 -5.75977,-0.71875 -0.95992,-2.88018 0.48013,-5.28101 4.32031,-7.20117 z m -91.9121,10.62695 c -0.89182,0.0392 -1.69532,1.80944 -1.69532,3.77344 0,2.54677 -2.06619,6.57407 -7.91992,0.7207 -2.1275,-2.1276 -9.36133,-8.06861 -9.36133,2.16016 1.91999,-1.92017 4.5595,-1.20012 7.91993,2.16016 7.55922,7.5595 13.7799,-0.12756 12.96093,-5.04102 -0.46453,-2.78709 -1.21066,-3.80389 -1.90429,-3.77344 z m -556.13868,9.53516 c 57.6045,0 85.92685,16.3203 84.9668,48.96289 l 1.43945,449.31641 H 31.681641 V 207.9375 c 0,-32.64259 28.803668,-48.96289 86.408199,-48.96289 z m 541.125,13.45703 c 0.73914,0.0186 1.57754,0.0884 2.51758,0.22266 3.36029,0.48002 7.43989,0.96133 12.24024,1.4414 4.80043,0.48002 6.72185,1.20007 5.76172,2.16016 h -23.04297 c -3.00625,-1.50307 -2.65054,-3.95446 2.52343,-3.82422 z m 20.51954,6.70313 c -1.74809,0.87412 -9.89139,4.73797 -17.28126,7.20117 -6.32392,0 -6.39428,-2.56373 -2.88085,-4.32032 z m 210.25585,187.21484 c 18.24141,26.88211 49.44392,68.64656 93.60743,125.29101 -20.16159,-15.36119 -57.12445,-27.3632 -110.88868,-36.0039 z M 480.99805,549.24414 c 36.48286,17.28137 92.64619,69.60579 168.49218,156.97266 -52.80414,32.64256 -108.96747,75.84514 -168.49218,129.60937 z m 361.46875,93.60742 c 13.44109,35.52282 20.16015,68.6448 20.16015,99.36719 0,30.72242 -9.83992,51.36495 -29.52148,61.92578 -19.68153,10.56084 -54.96365,24.96172 -105.84766,43.20313 C 652.3719,836.78686 582.28515,867.02867 517,938.07422 c 5.76048,-40.32313 48.96499,-109.44729 129.61133,-207.375 z"
     sodipodi:nodetypes="ssccscccsssccccsccsscccccccccccscccsscccssscccccccsccccccscsssscscsccssccsssscssscccccccccccccscscscccsccsccsscssssccccccccsscssssscscccccccccsccsscccssscccsssssccscccccccccccccsscccc" />
</svg>
