<?xml version="1.0" encoding="UTF-8" standalone="no"?>
<svg
   width="900"
   height="1000"
   id="svg1333"
   sodipodi:version="0.32"
   inkscape:version="1.4.2 (f4327f4, 2025-05-13)"
   sodipodi:docname="135A7.svg"
   version="1.1"
   xmlns:inkscape="http://www.inkscape.org/namespaces/inkscape"
   xmlns:sodipodi="http://sodipodi.sourceforge.net/DTD/sodipodi-0.dtd"
   xmlns="http://www.w3.org/2000/svg"
   xmlns:svg="http://www.w3.org/2000/svg"
   xmlns:rdf="http://www.w3.org/1999/02/22-rdf-syntax-ns#"
   xmlns:cc="http://creativecommons.org/ns#"
   xmlns:dc="http://purl.org/dc/elements/1.1/">
  <metadata
     id="metadata1340">
    <rdf:RDF>
      <cc:Work
         rdf:about="">
        <dc:format>image/svg+xml</dc:format>
        <dc:type
           rdf:resource="http://purl.org/dc/dcmitype/StillImage" />
        <dc:creator>
          <cc:Agent>
            <dc:title>Serge Thomas</dc:title>
          </cc:Agent>
        </dc:creator>
        <dc:publisher>
          <cc:Agent>
            <dc:title>Serge Rosmorduc</dc:title>
          </cc:Agent>
        </dc:publisher>
        <dc:date>03/04/06</dc:date>
        <dc:description>variante optimisée du signe de Jsesh</dc:description>
        <cc:license
           rdf:resource="http://creativecommons.org/licenses/GPL/2.0/" />
      </cc:Work>
      <cc:License
         rdf:about="http://creativecommons.org/licenses/GPL/2.0/">
        <cc:permits
           rdf:resource="http://web.resource.org/cc/Reproduction" />
        <cc:permits
           rdf:resource="http://web.resource.org/cc/Distribution" />
        <cc:requires
           rdf:resource="http://web.resource.org/cc/Notice" />
        <cc:permits
           rdf:resource="http://web.resource.org/cc/DerivativeWorks" />
        <cc:requires
           rdf:resource="http://web.resource.org/cc/ShareAlike" />
        <cc:requires
           rdf:resource="http://web.resource.org/cc/SourceCode" />
      </cc:License>
    </rdf:RDF>
  </metadata>
  <defs
     id="defs1338">
    <marker
       style="overflow:visible"
       id="Triangle"
       refX="0"
       refY="0"
       orient="auto-start-reverse"
       inkscape:stockid="Triangle arrow"
       markerWidth="1"
       markerHeight="1"
       viewBox="0 0 1 1"
       inkscape:isstock="true">
      <path
         transform="scale(0.5)"
         style="fill:context-stroke;fill-rule:evenodd;stroke:context-stroke;stroke-width:1pt"
         d="M 5.77,0 -2.88,5 V -5 Z"
         id="path135" />
    </marker>
  </defs>
  <sodipodi:namedview
     inkscape:window-height="998"
     inkscape:window-width="1680"
     inkscape:pageshadow="2"
     inkscape:pageopacity="0.0"
     borderopacity="1.0"
     bordercolor="#666666"
     pagecolor="#ffffff"
     id="base"
     inkscape:zoom="0.18875"
     inkscape:cx="1210.596"
     inkscape:cy="1109.9338"
     inkscape:window-x="-8"
     inkscape:window-y="-8"
     inkscape:current-layer="svg1333"
     inkscape:showpageshadow="2"
     inkscape:pagecheckerboard="0"
     inkscape:deskcolor="#d1d1d1"
     showguides="true"
     inkscape:window-maximized="1"
     inkscape:lockguides="false" />
  <path
     id="path13"
     style="fill:#000000;stroke:none;stroke-width:1"
     d="M 552.29102 0.021484375 C 548.44375 -0.074714556 544.88339 0.1650992 541.61328 0.7421875 C 528.53572 3.0505403 521.99414 14.20719 521.99414 34.212891 L 521.99414 42.714844 A 28.476851 28.476851 0 0 0 498.66602 54.859375 A 28.476851 28.476851 0 0 0 498.66602 87.525391 A 28.476851 28.476851 0 0 0 521.99414 99.667969 L 521.99414 118.44141 C 516.8981 118.7681 511.73346 119.27796 506.5 119.97266 C 472.93014 124.42885 448.71727 150.42252 433.86328 197.95508 C 425.54513 208.64994 416.03861 223.20808 405.34375 241.62695 C 399.40203 254.10428 399.10383 261.08495 404.45117 262.57031 C 409.7986 264.05571 414.25547 266.28507 417.82031 269.25586 C 408.48945 274.58805 412.53937 279.81119 418.71094 280.83984 C 420.49309 280.24567 419.90033 281.43547 416.92969 284.40625 C 413.95861 287.37702 414.40365 289.90093 418.26562 291.98047 C 422.1277 294.05999 424.05859 300.44772 424.05859 311.14258 C 424.05859 321.24323 429.70322 326.29297 440.99219 326.29297 C 454.06367 326.29297 463.57018 325.70002 469.51172 324.51172 L 473.07617 352.14062 C 416.03702 352.73476 376.22833 366.69609 353.65039 394.02734 C 314.37563 438.48861 272.79447 477.54433 243.84375 522.79883 C 213.47692 494.71997 162.92718 460.35748 113.0293 427.05469 L 113.0293 98.822266 C 118.90162 95.559873 121.83789 88.057139 121.83789 76.3125 C 121.18542 58.043034 116.61894 45.481893 108.13672 38.630859 C 99.65447 31.779822 91.007699 30.47566 82.199219 34.716797 C 73.390749 38.95791 68.986328 48.254826 68.986328 62.609375 L 92.476562 70.439453 C 25.923603 105.02087 -7.3535156 152.32535 -7.3535156 212.35352 C -7.3535156 256.72214 6.0217678 296.84991 32.773438 332.73633 L 32.773438 384.72461 C 22.272644 397.94342 17.687971 414.31416 29.378906 423.38672 C 30.50452 424.19069 31.635774 424.98785 32.773438 425.77539 L 32.773438 478.56641 C 6.0217678 509.88544 -7.3535156 550.01133 -7.3535156 598.94727 C -7.3535156 658.32296 25.923603 706.28145 92.476562 742.82031 L 68.986328 750.65039 C 68.986328 765.65744 73.390749 775.11842 82.199219 779.0332 C 91.007699 782.9478 99.65447 781.47997 108.13672 774.62891 C 116.61893 767.77793 121.18544 755.21669 121.83789 736.94727 C 121.83789 722.59271 118.90162 715.41602 113.0293 715.41602 L 113.0293 480.29688 C 160.84 528.8026 209.00411 568.5458 258.47266 597.17578 C 313.10196 549.70958 343.55072 505.13616 375.04102 468.89258 C 373.2586 494.44135 376.67572 522.21771 385.29102 552.22266 C 392.38146 576.91668 407.61907 630.6883 431.00781 713.53516 L 328.94727 635.08008 C 305.25599 614.00547 284.40908 603.46875 266.48047 603.46875 C 216.21634 604.09768 194.02808 624.48801 199.79102 664.75 L 225.39648 882.22852 C 199.15703 904.71279 187.5526 926.39683 190.50586 947.28711 L 196.60156 957.79297 L 190.69336 957.60938 C 173.40507 961.06925 157.54362 965.87905 143.13672 972.16992 C 129.04989 978.14643 114.86979 980.52384 100.46289 979.26562 C 86.055936 978.32192 75.928796 985.21632 70.166016 1000 L 305.9668 1000 L 305.6875 990.87891 C 332.67118 984.80111 365.59332 975.70438 404.45117 963.50586 C 496.07907 924.20011 546.04115 904.52932 554.42969 904.5293 C 567.98027 921.01245 567.98027 946.77643 554.42969 975.30469 C 532.49049 982.91238 524.80897 991.12451 531.26172 1000 C 545.46726 1000 560.23628 999.82207 575.72266 997.60547 C 591.20912 995.38649 602.87018 972.48708 610.61328 935.40039 C 618.35656 898.31326 622.68249 872.19371 623.65039 856.97852 C 624.61846 841.76337 618.0553 833.83907 603.85938 833.20508 C 616.76468 811.65025 617.35332 777.08059 605.73828 729.5332 C 603.74035 714.08492 602.83777 698.93952 602.83789 683.98438 C 605.03239 656.45602 608.08317 629.39294 612.04297 602.33594 C 645.67995 617.56666 681.19893 631.59546 708.24805 637.15039 C 740.23862 643.72017 763.81255 631.90131 755.6543 607.01758 C 743.10113 568.72957 718.21906 493.53969 671.51562 393.1875 L 738.53516 340.83984 L 748.18164 353.18945 L 778.14648 300.38086 L 719.6543 316.66797 L 729.30078 329.01758 L 664.22852 379.84375 C 658.82216 373.84741 652.77664 368.90106 646.36328 364.83008 L 704.23047 301.25781 L 715.82031 311.80859 L 736.46094 254.70898 L 681.54883 280.61328 L 693.13867 291.16211 L 632.66211 357.60156 C 625.94754 354.68841 619.05665 352.51287 612.25195 350.9082 L 665.10352 269.43555 L 678.25 277.96484 L 689.35352 218.27148 L 639.37109 252.74414 L 652.51953 261.27344 L 596.21875 348.06445 C 587.37916 346.97592 579.08645 346.69265 572.00391 346.79102 L 572.00391 303.12109 C 588.0462 296.58535 603.49562 284.40479 618.34961 266.58008 C 633.20351 248.75536 640.62891 224.09774 640.62891 192.60742 C 640.62891 161.11706 626.66766 140.0249 598.74219 129.33008 C 582.56975 123.13637 565.45032 119.4833 547.38477 118.37109 L 547.38477 31.904297 C 551.23251 19.592842 567.00679 14.207432 594.70703 15.746094 L 594.70703 9.9746094 C 577.97165 3.6268719 563.8328 0.31008117 552.29102 0.021484375 z M 92.476562 103.71484 L 101.28516 104.69531 L 101.28516 401.5 C 98.721874 395.99431 95.797646 390.62378 92.476562 385.58984 L 92.476562 329.80078 L 67.029297 328.82227 C 35.057767 282.49617 19.072266 242.69443 19.072266 209.41797 C 19.072266 176.14147 35.057767 147.10477 67.029297 122.31055 L 92.476562 103.71484 z M 536.57617 134.00977 C 548.90491 134.75246 562.49766 137.05595 577.35156 140.91797 C 607.05953 148.64202 621.91211 166.46522 621.91211 194.39062 C 621.91211 221.72185 611.96091 244.89322 592.05664 263.90625 C 572.15236 282.9193 559.52508 287.97097 554.17773 279.05859 C 547.64199 270.74037 552.5455 258.55982 568.88477 242.51758 C 585.22385 226.47534 589.23418 210.72933 580.91602 195.28125 C 572.59777 179.83313 555.07105 178.64532 528.33398 191.7168 C 519.42162 181.61611 498.03106 173.89234 464.16406 168.54492 C 470.6998 151.90852 483.77169 141.21421 503.37891 136.46094 C 513.18252 134.08433 524.24739 133.26707 536.57617 134.00977 z M 455.25195 183.69531 C 482.58313 185.47779 505.16153 192.60865 522.98633 205.08594 C 521.79802 215.78079 525.95828 216.22549 535.46484 206.42188 C 554.77315 186.51012 579.37108 196.76302 565.76562 223.35547 C 559.22988 236.12984 551.06142 246.97435 541.25781 255.88672 C 531.4542 264.79906 529.22484 273.71069 534.57227 282.62305 C 539.9197 291.53542 543.48507 299.26113 545.26758 305.79688 C 544.67338 353.32946 548.53332 377.39021 556.85156 377.98438 C 563.38162 378.37278 569.94262 378.42024 576.50195 378.45703 L 506.23047 486.78516 C 502.3083 484.32336 498.21519 482.18143 493.94727 480.44531 C 470.64242 471.12412 443.83359 521.65611 457.2207 541.53906 L 432.14648 561.125 L 441.38086 572.94531 L 442.01367 572.45117 L 447.44922 577.40039 L 447.31641 577.60547 L 448.5625 578.41406 L 450.41406 580.09961 L 450.69141 579.79492 L 459.90039 585.76758 L 480.81641 553.52539 C 496.68091 557.53838 515.52514 558.44405 532.34961 558.48242 C 545.33143 567.58005 558.14992 576.77827 586.55078 590.42773 C 580.45291 621.9119 575.44062 654.68306 571.51562 688.74219 C 545.45983 697.50009 507.0205 711.34281 466.88281 729.41602 C 433.12869 607.15672 414.5449 538.28754 411.13477 522.81055 C 407.27085 505.28291 405.93652 467.11063 407.125 408.28906 C 405.93669 389.27603 420.19837 379.76758 449.90625 379.76758 C 479.61413 379.76758 494.76322 369.36972 495.35742 348.57422 C 495.35742 322.43127 484.36664 310.54913 462.38281 312.92578 C 440.39897 315.30242 431.18908 308.17351 434.75391 291.53711 C 447.82548 283.81304 452.43034 278.31477 448.56836 275.04688 C 444.70629 271.77898 437.72373 269.85 427.62305 269.25586 C 427.62305 263.3143 422.57332 258.26264 412.47266 254.10352 C 422.57332 231.52553 432.37635 215.78152 441.88281 206.86914 C 451.38928 202.11589 461.34242 202.11589 471.74023 206.86914 C 482.13795 211.62241 492.38752 214.8894 502.48828 216.67188 L 502.48828 210.43164 C 495.95254 209.83748 487.48561 206.71872 477.08789 201.07422 C 466.69008 195.42973 456.144 194.39018 445.44922 197.95508 C 449.01415 192.01353 452.28131 187.26026 455.25195 183.69531 z M 555.47656 200.93164 C 553.61309 200.82457 551.39907 201.14807 548.83203 201.96484 C 535.18823 206.30605 520.90111 228.25094 525.66016 235.38867 C 514.81915 240.20707 512.38099 251.35382 522.09375 254.99609 C 532.344 258.83994 554.81442 235.58382 560.41797 221.57422 C 565.06555 209.9547 563.55164 201.39562 555.47656 200.93164 z M 456.97461 208.36523 C 453.22631 208.48127 449.68197 209.46748 446.33984 211.32422 L 437.42578 219.3457 L 437.42578 226.47461 L 441.88281 226.47461 C 454.36009 232.41616 468.32339 232.41616 483.77148 226.47461 L 499.81445 229.14844 L 499.81445 221.12891 L 484.66406 220.23633 C 474.452 212.06666 465.22088 208.10993 456.97461 208.36523 z M 551.5625 210.46289 C 554.23617 210.53599 555.40459 212.16091 555.07031 215.33594 C 554.47622 220.98045 551.95032 226.3286 547.49414 231.37891 C 543.03796 236.42926 538.87956 239.99273 535.01758 242.07227 C 531.1556 244.15182 531.1556 242.51735 535.01758 237.16992 C 538.87956 231.8223 538.87956 229.8935 535.01758 231.37891 C 531.1556 232.86431 530.41414 231.22786 532.79102 226.47461 C 535.16764 221.72134 538.43471 217.26654 542.59375 213.10742 C 546.49295 211.28781 549.48294 210.40603 551.5625 210.46289 z M 454.35938 213.99805 C 451.9825 216.96884 451.98249 220.23778 454.35938 223.80273 C 450.79437 222.61443 447.82557 221.42463 445.44922 220.23633 C 446.63753 217.85969 449.60606 215.78052 454.35938 213.99805 z M 465.94727 215.78125 L 478.42383 222.91211 C 473.67051 224.10041 468.91738 224.69336 464.16406 224.69336 C 468.32362 222.31672 468.9179 219.3462 465.94727 215.78125 z M 524.76758 242.51758 C 528.92662 245.48835 529.67163 248.01421 526.99805 250.09375 C 524.32446 252.17348 522.39152 252.02508 521.20312 249.64844 C 520.01464 247.27179 521.20275 244.89423 524.76758 242.51758 z M 439.61719 252.07617 C 438.56806 252.04797 437.54433 253.92414 437.87305 255.88672 C 438.3831 258.94628 434.53776 262.13251 429.85156 256.77734 C 424.13475 250.24341 421.38486 253.54308 421.38477 257.66992 C 423.7613 256.48192 426.28557 257.52135 428.95898 260.78906 C 434.84813 267.98689 441.98107 261.29443 441.4375 255.88672 C 441.16196 253.13129 440.38285 252.09674 439.61719 252.07617 z M 424.74023 273.43945 C 426.76301 273.49885 429.03869 274.19719 438.76562 275.49414 C 443.22197 276.08827 445.15093 276.38477 444.55664 276.38477 L 423.16797 277.27539 C 419.26039 276.29781 419.70749 273.29203 424.74023 273.43945 z M 443.66602 279.05859 C 441.75545 280.9688 433.92752 284.6276 428.51562 285.29688 C 423.05962 285.97159 422.88066 283.80067 424.94922 281.73242 L 443.66602 279.05859 z M 45.498047 352.31055 L 81.710938 352.31055 L 81.710938 364.05469 L 45.498047 364.05469 L 45.498047 352.31055 z M 594.17773 378.77148 C 598.93581 378.97932 603.67763 379.34036 608.39062 379.98047 C 609.52073 380.13396 610.59183 380.3856 611.60547 380.73438 L 546.52539 452.23047 L 594.17773 378.77148 z M 621.89258 391.71484 C 623.75404 396.54866 624.73739 402.84787 624.8418 410.60938 L 555.12109 465.06836 L 621.89258 391.71484 z M 623.58398 430.62695 C 621.39787 448.506 616.38259 471.07723 608.54492 498.30273 C 604.65295 511.82232 600.99932 525.62441 597.58398 539.70898 C 576.50798 532.43583 569.90393 532.64668 543.25977 523.5957 C 538.71075 517.31078 533.67411 511.02802 528.14453 505.17383 L 623.58398 430.62695 z M 45.498047 449.20312 L 74.662109 449.20312 C 76.993108 450.2021 79.343207 451.16004 81.710938 452.07227 L 81.710938 460.94922 L 45.498047 460.94922 L 45.498047 449.20312 z M 92.476562 458.89062 C 95.411831 462.02523 98.348035 465.12888 101.28516 468.19922 L 101.28516 709.54297 L 92.476562 709.54297 L 67.029297 688.01172 C 35.057767 662.56504 19.072266 632.06203 19.072266 596.50195 C 19.072266 560.94179 35.057767 523.91235 67.029297 485.41602 L 92.476562 485.41602 L 92.476562 458.89062 z M 636.78711 476.53125 C 656.46471 523.46969 661.59779 536.17982 691.74023 580.8418 C 666.36364 568.30457 644.24463 557.69911 621.11914 548.4707 C 625.62012 524.81823 630.83075 500.93776 636.78711 476.53125 z M 303.90039 644.60547 L 435.76953 744.74805 C 383.97603 772.05414 329.035 810.08278 281.20508 843.0625 C 283.68807 762.20209 278.22896 686.45313 263.10352 659.58984 L 303.90039 644.60547 z M 579.81055 710.18555 L 581.53516 732.38867 C 594.44048 775.49831 593.18 810.06791 577.69336 836.06055 C 535.10566 860.1512 483.78332 875.33808 423.77344 881.67773 C 363.76356 888.0174 312.82908 909.88304 270.88672 947.28711 C 294.76164 890.23012 315.51488 853.17759 333.25977 836.06055 C 361.11618 809.18957 470.90919 738.03322 579.81055 710.18555 z " />
</svg>
