<?xml version="1.0" encoding="UTF-8" standalone="no"?>
<svg
   width="1100"
   height="1000"
   id="svg2241"
   sodipodi:version="0.32"
   inkscape:version="1.4.2 (f4327f4, 2025-05-13)"
   sodipodi:docname="135AA.svg"
   inkscape:output_extension="org.inkscape.output.svg.inkscape"
   sodipodi:modified="true"
   version="1.1"
   xmlns:inkscape="http://www.inkscape.org/namespaces/inkscape"
   xmlns:sodipodi="http://sodipodi.sourceforge.net/DTD/sodipodi-0.dtd"
   xmlns="http://www.w3.org/2000/svg"
   xmlns:svg="http://www.w3.org/2000/svg"
   xmlns:rdf="http://www.w3.org/1999/02/22-rdf-syntax-ns#"
   xmlns:cc="http://creativecommons.org/ns#"
   xmlns:dc="http://purl.org/dc/elements/1.1/">
  <metadata
     id="metadata2248">
    <rdf:RDF>
      <cc:Work
         rdf:about="">
        <dc:format>image/svg+xml</dc:format>
        <dc:type
           rdf:resource="http://purl.org/dc/dcmitype/StillImage" />
      </cc:Work>
    </rdf:RDF>
  </metadata>
  <defs
     id="defs2246" />
  <sodipodi:namedview
     inkscape:window-height="998"
     inkscape:window-width="1680"
     inkscape:pageshadow="2"
     inkscape:pageopacity="0.0"
     guidetolerance="10.0"
     gridtolerance="10.0"
     objecttolerance="10.0"
     borderopacity="1.0"
     bordercolor="#666666"
     pagecolor="#ffffff"
     id="base"
     inkscape:showpageshadow="2"
     inkscape:pagecheckerboard="0"
     inkscape:deskcolor="#d1d1d1"
     showguides="true"
     inkscape:zoom="0.53386562"
     inkscape:cx="169.51831"
     inkscape:cy="283.77928"
     inkscape:window-x="-8"
     inkscape:window-y="-8"
     inkscape:window-maximized="1"
     inkscape:current-layer="svg2241" />
  <path
     id="path2243"
     style="fill:#000000;stroke:none;stroke-width:1"
     d="m 775.22461,0.046875 c -8.6584,0 -17.08223,0.53570426 -26.13086,1.7421875 -36.19467,4.8259747 -61.20926,33.2410365 -76.65234,85.3613285 -8.68668,11.582264 -19.7752,28.510279 -31.35743,48.779299 -5.79118,12.54749 -5.79118,18.97395 0,20.90429 5.79109,1.93038 11.04191,4.07316 13.9375,6.96875 -9.16087,6.86947 -4.98234,13.93555 0,13.93555 1.93043,0 1.63595,0.58883 -1.74218,3.48438 -3.37813,2.89554 -2.6014,6.29796 1.74218,8.71093 4.3431,2.41296 6.96875,7.76997 6.96875,17.42188 0,9.65191 1.66489,13.68381 5.22657,15.67773 8.26129,4.62487 19.86506,4.79717 43.55078,1.74219 l 3.48437,26.13086 c -59.8417,5.79114 -100.12226,19.61114 -118.46093,41.81055 -55.98104,33.78167 -116.31977,78.34779 -182.91797,132.39843 -21.23417,-7.72151 -52.86347,-13.56114 -95.81446,-17.42187 -42.95096,-3.86078 -71.26179,-8.33458 -81.8789,-12.19531 l 1.74219,-193.36914 C 235.95666,150.00862 197.124,123.25179 118.46094,123.73438 39.797914,124.21698 0,150.97381 0,202.12891 V 688.16797 H 236.92188 V 442.53516 c 111.96212,39.57286 180.47144,52.61585 205.5664,40.06836 1.93038,-3.86075 28.39087,-21.96638 76.65039,-55.74805 56.94625,-44.39873 88.09293,-58.40504 95.81445,-40.06641 0,21.23418 18.88061,65.79833 57.48829,132.39649 7.72151,24.12976 5.58068,78.63094 -6.9668,165.49804 C 571.85111,575.61711 509.18138,518.9751 477.33008,512.21875 c -34.7469,6.75635 -57.32431,19.02043 -67.94141,38.32422 -29.92089,67.56336 -54.64114,178.49597 -74.91015,330.99609 -6.75633,38.60763 -21.35142,57.78277 -43.55079,59.23047 -22.19941,1.44818 -59.37385,9.13384 -111.49414,22.64649 -41.50319,0 -41.50319,12.45417 0,36.58398 h 219.50196 c 9.65191,-8.68668 9.75808,-28.53255 3.48437,-57.48828 -6.27375,-28.95568 2.18929,-64.87056 24.38867,-109.75195 21.17734,-42.81508 32.07298,-87.55887 33.03125,-134.32227 L 458.16602,862.375 C 420.8802,897.69837 405.03113,925.55054 432.03516,966.90039 447.4782,990.54762 467.91283,1000 493.00781,1000 c 27.02531,0 78.90104,-15.58442 158.5293,-52.26172 79.62821,-36.6772 139.08378,-58.47765 177.69141,-66.19922 29.92094,33.78166 21.35168,65.49296 -27.87305,90.58789 -32.81644,0 -32.81649,9.53443 0,27.87305 h 34.8418 c 27.02536,-2.8954 41.81054,-10.099 41.81054,-22.64648 9.65194,-37.64242 21.14101,-89.97647 36.58399,-149.81836 0,-24.12971 -12.45428,-36.58399 -36.58399,-36.58399 19.30379,-26.06014 21.63477,-70.62627 5.22657,-132.39844 -16.40825,-61.77227 -21.65906,-111.98775 -13.9375,-151.56054 75.28486,24.12976 127.24251,36.58398 153.30272,36.58398 20.269,-2.8954 29.6152,-12.42996 29.6152,-27.87305 -23.1647,-62.73738 -63.84562,-140.00412 -123.68746,-231.69726 -5.54982,-6.51502 -11.86279,-12.47333 -19.16211,-17.41992 l 13.93555,-19.16406 24.38867,-31.35743 c 33.78166,0.96517 63.75275,-16.54966 88.84765,-52.26172 25.095,-34.74686 30.1555,-62.97371 15.6777,-87.103511 l 13.9375,-20.90625 -41.8105,-26.13086 -15.6777,20.90625 c -29.92088,-3.860742 -56.00695,13.065286 -80.13676,48.777344 -25.09493,34.746857 -30.15559,66.858757 -15.67773,95.814457 l -24.39063,29.61523 -19.1621,26.13086 c -14.88503,-3.89092 -31.69833,-6.6068 -50.51954,-6.96875 v -15.67773 c 18.33862,0.96516 36.63041,-7.01524 54.00391,-24.38868 17.37341,-17.37344 24.76511,-59.0197 20.9043,-123.687496 0,-33.78167 -15.37212,-56.359107 -45.29297,-67.941406 C 825.95188,3.5554902 801.70256,0.046875 775.22461,0.046875 Z m -2.58203,17.236328 c 6.76277,-0.176175 31.44514,0.770908 54.84375,7.152344 31.85132,8.686716 47.03711,29.309538 47.03711,59.230469 3.86119,58.876614 -4.11991,95.568484 -24.38867,111.494144 -20.269,15.92562 -36.23182,9.79358 -48.7793,-19.16211 -5.79114,-9.6519 -1.21123,-22.69493 15.67969,-40.06836 30.78038,-31.65984 20.52301,-87.784029 -43.55274,-55.746096 -9.6519,-11.582264 -32.22932,-19.564649 -67.9414,-24.390625 11.92383,-32.36441 47.33194,-37.994759 67.10156,-38.509766 z m 256.92582,36.767578 12.1933,6.96875 -17.4199,22.646485 c 19.3038,10.617104 18.7152,33.971544 -3.4844,69.683594 -17.3732,23.16457 -33.03985,35.725 -47.03513,40.06836 -13.99533,4.34335 -25.18995,4.04893 -34.8418,-1.74219 -7.72156,-4.826 -13.74936,-15.13737 -15.67969,-29.61523 -1.93057,-14.47785 5.46337,-31.80451 20.90625,-54.00391 27.99048,-32.816474 51.34286,-42.939685 69.68167,-31.357421 z M 695.08984,71.472656 c 29.92095,1.930379 53.08521,9.133828 71.42383,22.646485 -0.96449,11.582299 3.80283,12.359299 13.9375,1.742187 18.62466,-19.511433 47.90725,-12.567546 33.09961,19.162112 -6.7563,14.47788 -15.5138,25.6725 -26.13086,34.84179 -10.61711,9.16933 -12.2773,19.96337 -6.96875,29.61524 5.3086,9.65191 9.29777,18.41125 12.19336,26.13281 v 38.32422 c 0,9.65191 4.28556,18.40934 13.9375,26.13086 7.61573,6.09259 22.23707,9.16783 40.06836,10.45312 l -74.91016,104.5254 c -14.89029,-10.70682 -31.37732,-20.42699 -50.51953,-29.61524 -9.65194,7.72152 -8.28618,18.03294 5.22657,29.61524 l -24.39063,38.32617 c -1.6498,12.37465 4.26418,22.50842 17.42188,31.35742 l -29.61524,41.80859 40.06836,26.13086 38.32422,-54.0039 c 11.9676,2.33701 24.21181,5.64317 36.58398,6.96875 l 41.81055,20.90429 c 0,0 0.1868,9.05179 -1.74219,27.87305 -1.93043,18.8212 -1.93043,49.67345 0,94.07227 l -160.27148,76.65234 c 9.65195,-67.56332 15.48959,-122.25264 17.41992,-163.75586 -45.36398,-83.0064 -67.16443,-155.02239 -66.19922,-217.75977 0,-21.23418 18.29377,-31.35742 54.00586,-31.35742 36.67724,0 53.22688,-11.08839 52.26172,-31.35742 -0.96498,-29.92088 -13.71382,-43.44652 -38.32617,-40.06836 -24.61234,3.37818 -35.21817,-4.30785 -31.35742,-22.64648 14.47782,-7.72153 20.02302,-13.55915 15.67968,-17.41993 -4.3431,-3.86071 -12.80635,-6.00356 -24.38867,-6.96875 -0.20793,-8.25856 -7.42885,-12.43169 -13.9375,-15.67968 9.6519,-25.09496 20.74031,-42.60981 31.35742,-52.261722 9.6519,-4.825996 18.51555,-3.566366 29.61524,1.742188 11.09973,5.308584 23.25947,8.522734 34.8418,10.453124 v -6.96875 c -6.75635,0 -16.29069,-3.696774 -27.87305,-10.453124 -11.58213,-6.756327 -23.25947,-8.310365 -34.8418,-3.484375 4.82598,-6.756364 9.29967,-11.816997 12.19531,-15.677735 z M 803.95703,90.53125 c -19.44722,0 -39.71275,26.69191 -32.2168,36.6875 -14.11482,6.04915 -16.65617,18.49013 -5.22656,22.64648 11.22529,4.08188 36.72408,-24.75996 41.81055,-38.32421 4.4523,-11.873068 0.90266,-21.00977 -4.36719,-21.00977 z m -106.93945,8.537109 c -1.24828,0.0045 -2.47097,0.09637 -3.66992,0.277344 -3.1971,0.482631 -5.8154,1.795307 -8.71094,3.484377 l -8.71094,8.71094 v 6.96679 h 5.22656 c 13.51265,6.75632 27.14459,6.75632 43.55274,0 L 742.125,120.25 v -8.70898 h -15.67773 c -10.76786,-8.2343 -20.69173,-12.503925 -29.42969,-12.472661 z m 99.60742,1.775391 c 1.1799,-0.0199 2.17391,0.10841 2.98828,0.24414 2.17179,0.36205 2.22492,2.08974 1.74219,5.22656 -0.96497,6.27371 -3.88341,11.62874 -8.70899,17.41993 -4.82598,5.79113 -8.33451,10.26492 -12.19531,12.19531 -3.86134,1.93038 -3.86134,-1.17761 0,-6.96875 3.86133,-5.79113 3.86133,-7.15694 0,-5.22656 -3.86134,1.93037 -4.15487,0.0821 -1.74219,-5.22657 2.41267,-5.30858 5.62711,-10.85175 10.45313,-15.67773 3.0162,-1.5081 5.49639,-1.95313 7.46289,-1.98633 z m -101.53516,3.72852 c -2.8954,2.89554 -2.8954,6.59044 0,10.45117 -3.86037,-0.96516 -7.55758,-1.55209 -10.45312,-3.48242 0.96497,-2.89555 4.66222,-6.00356 10.45312,-6.96875 z m 12.19336,1.74218 13.9375,8.70899 c -5.79114,0.96521 -10.85371,1.74219 -15.67968,1.74218 3.86127,-2.89545 4.63743,-6.59046 1.74218,-10.45117 z m 62.71485,29.61524 c 3.86119,2.89552 4.63754,6.78061 1.74218,8.71093 -2.89541,1.93039 -4.26197,0.67083 -5.22656,-1.74218 -0.96448,-2.41292 -0.3782,-5.03837 3.48438,-6.96875 z m -92.23438,10.07617 c -0.94221,0.0616 -1.83789,2.56763 -1.83789,3.85937 0,3.90809 -0.94928,8.96597 -6.96875,1.74219 -5.24757,-6.29781 -10.27734,-8.09929 -10.27734,0.33789 1.93043,-1.93037 5.15865,-0.71422 8.53711,3.14649 9.23346,10.55277 12.79689,-0.99883 12.19336,-5.22657 -0.42016,-2.9345 -1.0425,-3.89886 -1.64649,-3.85937 z m -559.30273,10.82812 c 57.91143,0.48263 86.32653,16.92797 85.36133,48.7793 l 1.74218,451.19727 H 31.357422 V 205.61328 c 0,-33.78171 29.192091,-49.2619 87.103518,-48.7793 z m 547.01367,12.19532 c 3.41789,0.13563 18.04591,1.35398 17.41992,3.48437 h -22.64648 c -2.72142,0 -0.6683,-3.48437 5.22656,-3.48437 z m 17.41992,6.96875 c -5.39405,3.32944 -11.44014,5.05894 -17.41992,6.96679 -3.67788,1.17343 -6.97745,-1.81953 -2.09375,-4.12695 z m 221.24414,62.71484 h 3.48438 l -13.9375,20.9043 c -1.44004,-0.67898 -1.99262,-2.85147 -3.48438,-3.48438 z m -29.42773,45.11133 c 0.56447,0.002 1.0911,0.0493 1.55468,0.18164 l -59.23046,90.58789 -12.19532,-6.96875 64.45704,-83.61914 c 1.68702,0.22269 3.72065,-0.18649 5.41406,-0.18164 z m 13.74804,14.11914 c 0.12452,3.61949 0.18681,7.36742 -1.74218,12.19336 -6.7563,16.40827 -18.62164,63.11715 -33.09961,139.36719 l -27.87305,-10.45313 c -5.71691,-8.83521 -13.22842,-16.25308 -20.9043,-24.38867 z m 6.96875,66.19726 c 18.33863,27.02531 49.67355,68.48345 94.07227,125.42969 -20.26906,-14.47781 -57.44149,-26.1531 -111.49219,-34.83984 z m -102.7832,20.90626 12.19531,5.22656 -8.71093,12.19336 -12.19336,-8.70899 z m -59.23047,76.65039 15.67969,8.71093 -17.42187,31.35742 -20.9043,-12.19531 z m -249.11718,87.10546 c 36.6773,17.37346 92.73238,68.9528 168.98242,156.78516 -53.08549,32.81644 -109.14059,76.60559 -168.98242,130.65625 z m 362.35351,94.07032 c 13.5127,35.71203 20.9043,69.18968 20.9043,101.04101 0,30.88611 -9.82887,50.83814 -29.61524,60.97266 -19.78647,10.13453 -55.11252,24.24889 -106.26757,43.55273 -75.28489,-11.58233 -146.90032,19.9408 -212.53321,92.33008 5.79114,-41.50317 49.58029,-112.34154 130.65625,-210.79101 z"
     sodipodi:nodetypes="ssccscsscssccccsccsscccccccccccccccssccssscccccccsccccccccccccccccccscsssscccsccsccccscccccccscsscssccccccccccccccccscscscccsccsccsccssssccccccccssscccssscscccccccccsscssccccsscccssccsccscccccccsccccscccccccccccccccccccccccccsscccc" />
</svg>
