<?xml version="1.0" encoding="UTF-8" standalone="no"?>
<svg
   width="900"
   height="1000"
   id="svg1333"
   sodipodi:version="0.32"
   inkscape:version="1.4.2 (f4327f4, 2025-05-13)"
   sodipodi:docname="135A8.svg"
   version="1.1"
   xmlns:inkscape="http://www.inkscape.org/namespaces/inkscape"
   xmlns:sodipodi="http://sodipodi.sourceforge.net/DTD/sodipodi-0.dtd"
   xmlns="http://www.w3.org/2000/svg"
   xmlns:svg="http://www.w3.org/2000/svg"
   xmlns:rdf="http://www.w3.org/1999/02/22-rdf-syntax-ns#"
   xmlns:cc="http://creativecommons.org/ns#"
   xmlns:dc="http://purl.org/dc/elements/1.1/">
  <metadata
     id="metadata1340">
    <rdf:RDF>
      <cc:Work
         rdf:about="">
        <dc:format>image/svg+xml</dc:format>
        <dc:type
           rdf:resource="http://purl.org/dc/dcmitype/StillImage" />
        <dc:creator>
          <cc:Agent>
            <dc:title>Serge Thomas</dc:title>
          </cc:Agent>
        </dc:creator>
        <dc:publisher>
          <cc:Agent>
            <dc:title>Serge Rosmorduc</dc:title>
          </cc:Agent>
        </dc:publisher>
        <dc:date>03/04/06</dc:date>
        <dc:description>variante optimisée du signe de Jsesh</dc:description>
        <cc:license
           rdf:resource="http://creativecommons.org/licenses/GPL/2.0/" />
      </cc:Work>
      <cc:License
         rdf:about="http://creativecommons.org/licenses/GPL/2.0/">
        <cc:permits
           rdf:resource="http://web.resource.org/cc/Reproduction" />
        <cc:permits
           rdf:resource="http://web.resource.org/cc/Distribution" />
        <cc:requires
           rdf:resource="http://web.resource.org/cc/Notice" />
        <cc:permits
           rdf:resource="http://web.resource.org/cc/DerivativeWorks" />
        <cc:requires
           rdf:resource="http://web.resource.org/cc/ShareAlike" />
        <cc:requires
           rdf:resource="http://web.resource.org/cc/SourceCode" />
      </cc:License>
    </rdf:RDF>
  </metadata>
  <defs
     id="defs1338">
    <marker
       style="overflow:visible"
       id="Triangle"
       refX="0"
       refY="0"
       orient="auto-start-reverse"
       inkscape:stockid="Triangle arrow"
       markerWidth="1"
       markerHeight="1"
       viewBox="0 0 1 1"
       inkscape:isstock="true">
      <path
         transform="scale(0.5)"
         style="fill:context-stroke;fill-rule:evenodd;stroke:context-stroke;stroke-width:1pt"
         d="M 5.77,0 -2.88,5 V -5 Z"
         id="path135" />
    </marker>
  </defs>
  <sodipodi:namedview
     inkscape:window-height="998"
     inkscape:window-width="1680"
     inkscape:pageshadow="2"
     inkscape:pageopacity="0.0"
     borderopacity="1.0"
     bordercolor="#666666"
     pagecolor="#ffffff"
     id="base"
     inkscape:zoom="0.3775"
     inkscape:cx="252.98013"
     inkscape:cy="867.54967"
     inkscape:window-x="-8"
     inkscape:window-y="-8"
     inkscape:current-layer="svg1333"
     inkscape:showpageshadow="2"
     inkscape:pagecheckerboard="0"
     inkscape:deskcolor="#d1d1d1"
     showguides="true"
     inkscape:window-maximized="1">
    <sodipodi:guide
       position="800,1000"
       orientation="0,-1"
       id="guide1"
       inkscape:locked="false" />
    <sodipodi:guide
       position="800,0"
       orientation="0,-1"
       id="guide2"
       inkscape:locked="false" />
    <sodipodi:guide
       position="1428.9261,881.99354"
       orientation="0,-1"
       id="guide6"
       inkscape:locked="false" />
    <sodipodi:guide
       position="1102.4141,937.39052"
       orientation="0,-1"
       id="guide7"
       inkscape:locked="false" />
    <sodipodi:guide
       position="1102.453,364.72076"
       orientation="0,-1"
       id="guide8"
       inkscape:locked="false" />
    <sodipodi:guide
       position="684.53505,934.4718"
       orientation="0.8601064,-0.51011467"
       id="guide4"
       inkscape:locked="false" />
    <sodipodi:guide
       position="677.66192,954.17561"
       orientation="0.84731785,-0.53108611"
       id="guide5"
       inkscape:locked="false" />
    <sodipodi:guide
       position="654.97762,983.73308"
       orientation="0.72886004,-0.68466273"
       id="guide9"
       inkscape:locked="false" />
    <sodipodi:guide
       position="266.48032,396.53137"
       orientation="0,-1"
       id="guide11"
       inkscape:locked="false" />
    <sodipodi:guide
       position="422.69644,219.63203"
       orientation="-0.41380513,0.91036548"
       id="guide18"
       inkscape:locked="false" />
  </sodipodi:namedview>
  <path
     id="path16"
     style="fill:#000000;stroke:none;stroke-width:1"
     d="M 385.97266 0 C 377.88925 0.031807446 369.97419 3.2492792 361.4707 9.3710938 C 340.51864 24.454974 341.92787 39.255155 352.10938 53.705078 C 362.2908 68.155009 374.93499 72.095937 390.04102 65.527344 L 435.51172 142.19727 C 446.02048 113.29744 466.23148 114.78906 476.74023 114.78906 L 486.59375 125.62695 C 463.17597 136.29246 445.59871 160.40188 433.86328 197.95508 C 425.54513 208.64994 416.03861 223.20808 405.34375 241.62695 C 399.40203 254.10428 399.10383 261.08495 404.45117 262.57031 C 409.7986 264.05571 414.25547 266.28507 417.82031 269.25586 C 408.48945 274.58805 412.53937 279.81119 418.71094 280.83984 C 420.49309 280.24567 419.90033 281.43547 416.92969 284.40625 C 413.95861 287.37702 414.40366 289.90093 418.26562 291.98047 C 422.1277 294.05999 424.05859 300.44772 424.05859 311.14258 C 424.05859 321.24323 429.70322 326.29297 440.99219 326.29297 C 454.06367 326.29297 463.57018 325.70002 469.51172 324.51172 L 473.07617 352.14062 C 416.03702 352.73476 376.22833 366.69609 353.65039 394.02734 C 314.37563 438.48861 272.79447 477.54433 243.84375 522.79883 C 213.47698 494.72002 162.92714 460.35549 113.0293 427.05273 L 113.0293 98.822266 C 118.90162 95.559873 121.83789 88.057139 121.83789 76.3125 C 121.18542 58.043034 116.61894 45.481893 108.13672 38.630859 C 99.65447 31.779822 91.007699 30.47566 82.199219 34.716797 C 73.390749 38.95791 68.986328 48.254826 68.986328 62.609375 L 92.476562 70.439453 C 25.923603 105.02087 -7.3535156 152.32535 -7.3535156 212.35352 C -7.3535156 256.72214 6.0217678 296.84991 32.773438 332.73633 L 32.773438 384.72266 C 22.272273 397.94144 17.687756 414.31399 29.378906 423.38672 C 30.504681 424.19081 31.6356 424.98774 32.773438 425.77539 L 32.773438 478.56641 C 6.0217678 509.88544 -7.3535156 550.01133 -7.3535156 598.94727 C -7.3535156 658.32296 25.923603 706.28145 92.476562 742.82031 L 68.986328 750.65039 C 68.986328 765.65744 73.390749 775.11842 82.199219 779.0332 C 91.007699 782.9478 99.65447 781.47997 108.13672 774.62891 C 116.61893 767.77793 121.18544 755.21669 121.83789 736.94727 C 121.83789 722.59271 118.90162 715.41602 113.0293 715.41602 L 113.0293 480.29492 C 160.84029 528.80111 209.00381 568.54562 258.47266 597.17578 C 313.10196 549.70958 343.55072 505.13616 375.04102 468.89258 C 373.2586 494.44135 376.67572 522.21771 385.29102 552.22266 C 392.38146 576.91668 411.93939 660.59064 435.32812 743.4375 C 359.52934 654.67753 308.34641 607.70652 281.7832 602.52344 C 253.92419 607.70652 235.78184 618.0719 227.35938 633.62109 C 202.73983 688.69118 182.33185 778.09993 166.13477 901.8457 C 160.3038 932.94412 148.47885 949.30232 130.66211 950.92188 C 112.84529 952.54161 82.559108 958.53613 39.798828 968.90234 C 6.1088983 968.90234 6.1088983 978.94294 39.798828 999.02734 L 217.64258 999.02734 C 225.41721 991.25281 226.71245 975.70466 221.5293 952.38086 C 216.34625 929.05706 222.82607 899.25413 240.9668 862.97266 C 258.53732 827.83169 267.59807 790.56353 268.15039 751.16797 L 267.20508 886.29688 C 251.65592 900.5503 241.93613 911.56334 238.04883 919.33789 C 229.62636 935.53497 231.73342 953.02777 244.36719 971.81641 C 257.00088 990.60507 273.36101 1000 293.44531 1000 C 315.47336 1000 359.04205 985.25992 424.1543 955.78125 C 489.26654 926.30257 537.04949 908.3245 567.5 901.8457 C 592.11962 929.70464 584.34449 957.56405 544.17578 977.64844 C 517.6125 977.64844 517.6125 985.09872 544.17578 1000 L 573.33008 1000 C 595.35797 997.40849 606.69574 991.25335 607.34375 981.53516 C 614.47046 950.43674 624.18828 906.70452 636.49805 858.11328 C 636.49805 838.67671 627.10311 828.95898 608.31445 828.95898 C 623.21579 807.57885 625.48526 779.71867 615.11914 745.38086 C 608.91221 724.98586 605.01118 704.24613 602.88477 683.4082 C 605.07927 655.87984 608.08317 629.39294 612.04297 602.33594 C 645.67995 617.56666 681.19893 631.59546 708.24805 637.15039 C 740.23862 643.72017 763.81255 631.90131 755.6543 607.01758 C 742.65699 567.37489 716.44354 488.17254 666.47656 382.44141 C 665.45339 381.20758 664.40326 380.01589 663.33008 378.86328 L 762.61133 286.96094 L 773.25781 298.46094 L 798.70117 243.33203 L 741.77539 264.45117 L 752.42188 275.95312 L 652.11914 368.80078 C 647.28024 365.17326 642.16313 362.11802 636.90039 359.55078 L 725.84766 249.95312 L 738.01562 259.82812 L 755.38867 201.64844 L 702.03125 230.62305 L 714.19922 240.5 L 622.32227 353.70898 C 616.80072 351.92451 611.25124 350.56616 605.8125 349.54688 L 683.95508 218.96875 L 697.40234 227.01562 L 706.33789 166.96094 L 657.63672 203.21875 L 671.08398 211.26562 L 589.62695 347.38672 C 583.26178 346.85758 577.29509 346.71753 572.00391 346.79102 L 572.00391 303.12109 C 588.0462 296.58535 603.49562 284.40479 618.34961 266.58008 C 633.20351 248.75536 640.62891 224.09774 640.62891 192.60742 C 640.62891 161.11706 626.66766 140.0249 598.74219 129.33008 C 595.20115 127.97393 591.61427 126.73946 587.98242 125.62695 L 597.83594 114.78906 C 608.34469 114.78906 628.55569 113.29744 639.06445 142.19727 L 684.53516 65.527344 C 699.64119 72.095937 712.28538 68.155009 722.4668 53.705078 C 732.64831 39.255155 734.05753 24.454975 713.10547 9.3710938 C 693.66893 -4.6216253 677.31033 -3.4367192 654.97852 16.267578 L 558.14648 119.34766 C 549.37881 118.2908 540.37922 117.85887 531.14648 118.05078 C 526.16933 118.15423 521.12557 118.43983 516.01367 118.90625 L 419.59766 16.267578 C 407.03601 5.1839111 396.36561 -0.040895288 385.97266 0 z M 386.29883 18.914062 C 390.95661 19.039586 395.35831 21.85129 405.33398 27.5625 L 468.21875 97.056641 C 448.51551 99.025459 441.62001 101.38208 437.18164 110.07031 L 396.91406 45.824219 C 379.83426 53.706038 374.40567 51.050168 368.49414 45.138672 C 362.58259 39.227693 358.58492 29.613759 372.2207 23.392578 C 378.89789 20.343683 382.67611 18.816433 386.29883 18.914062 z M 688.27734 18.914062 C 691.90006 18.816433 695.67829 20.343683 702.35547 23.392578 C 715.99125 29.613759 711.99358 39.227693 706.08203 45.138672 C 700.1705 51.050168 694.74191 53.706038 677.66211 45.824219 L 637.39453 110.07031 C 632.95616 101.38208 626.06066 99.025459 606.35742 97.056641 L 669.24219 27.5625 C 679.21786 21.85129 683.61956 19.039586 688.27734 18.914062 z M 92.476562 103.71484 L 101.28516 104.69531 L 101.28516 401.5 C 98.721869 395.99442 95.797635 390.62565 92.476562 385.5918 L 92.476562 329.80078 L 67.029297 328.82227 C 35.057767 282.49617 19.072266 242.69443 19.072266 209.41797 C 19.072266 176.14147 35.057767 147.10477 67.029297 122.31055 L 92.476562 103.71484 z M 536.57617 134.00977 C 548.90491 134.75246 562.49766 137.05595 577.35156 140.91797 C 607.05953 148.64202 621.91211 166.46523 621.91211 194.39062 C 621.91211 221.72186 611.96091 244.89322 592.05664 263.90625 C 572.15236 282.9193 559.52508 287.97097 554.17773 279.05859 C 547.64199 270.74037 552.5455 258.55982 568.88477 242.51758 C 585.22385 226.47534 589.23418 210.72933 580.91602 195.28125 C 572.59777 179.83313 555.07105 178.64532 528.33398 191.7168 C 519.42162 181.61611 498.03106 173.89234 464.16406 168.54492 C 470.6998 151.90852 483.77169 141.21421 503.37891 136.46094 C 513.18252 134.08433 524.24739 133.26707 536.57617 134.00977 z M 455.25195 183.69531 C 482.58313 185.47779 505.16153 192.60865 522.98633 205.08594 C 521.79802 215.78079 525.95828 216.22548 535.46484 206.42188 C 554.77315 186.51011 579.37108 196.76302 565.76562 223.35547 C 559.22988 236.12984 551.06142 246.97435 541.25781 255.88672 C 531.4542 264.79906 529.22484 273.71069 534.57227 282.62305 C 539.9197 291.53542 543.48507 299.26112 545.26758 305.79688 C 544.67338 353.32945 548.53332 377.3902 556.85156 377.98438 C 561.57438 378.26528 566.3137 378.36868 571.05664 378.41797 L 506.21289 486.77344 C 502.29633 484.31652 498.20849 482.1787 493.94727 480.44531 C 468.81869 470.39468 439.61858 529.93036 461.125 545.59961 L 436.875 568.04688 L 447.06445 579.05469 L 447.97461 578.21289 L 450.3418 580.13477 L 450.2832 580.23438 L 450.97656 580.64844 L 454.88867 583.82422 L 455.34375 583.26172 L 463.1543 587.93555 L 483.37695 554.14258 C 498.68331 557.63438 516.42144 558.44609 532.34961 558.48242 C 545.33143 567.58005 558.14992 576.77827 586.55078 590.42773 C 581.01431 619.01331 578.37793 651.70953 577.23242 683.22656 L 455.69531 736.41016 C 423.49098 619.66314 409.24477 565.70488 406.32227 550.48242 C 398.47656 509.61639 394.62269 472.90663 402.91016 415.78125 C 405.64522 396.92849 420.19837 379.76758 449.90625 379.76758 C 479.61413 379.76758 494.76322 369.36972 495.35742 348.57422 C 495.35742 322.43127 484.36664 310.54913 462.38281 312.92578 C 440.39897 315.30242 431.18908 308.17351 434.75391 291.53711 C 447.82548 283.81304 452.43034 278.31477 448.56836 275.04688 C 444.70629 271.77898 437.72373 269.85 427.62305 269.25586 C 427.62305 263.3143 422.57332 258.26264 412.47266 254.10352 C 422.57332 231.52553 432.37635 215.78152 441.88281 206.86914 C 451.38928 202.11589 461.34242 202.11589 471.74023 206.86914 C 482.13795 211.62241 492.38752 214.8894 502.48828 216.67188 L 502.48828 210.43164 C 495.95254 209.83748 487.48561 206.71872 477.08789 201.07422 C 466.69008 195.42973 456.144 194.39018 445.44922 197.95508 C 449.01415 192.01353 452.28131 187.26026 455.25195 183.69531 z M 555.47656 200.93164 C 553.61309 200.82457 551.39907 201.14807 548.83203 201.96484 C 535.18823 206.30605 520.90111 228.25094 525.66016 235.38867 C 514.81915 240.20707 512.38099 251.35382 522.09375 254.99609 C 532.344 258.83994 554.81442 235.58382 560.41797 221.57422 C 565.06555 209.9547 563.55164 201.39562 555.47656 200.93164 z M 456.97461 208.36523 C 453.22631 208.48127 449.68197 209.46748 446.33984 211.32422 L 437.42578 219.3457 L 437.42578 226.47461 L 441.88281 226.47461 C 454.36009 232.41616 468.32339 232.41616 483.77148 226.47461 L 499.81445 229.14844 L 499.81445 221.12891 L 484.66406 220.23633 C 474.452 212.06666 465.22088 208.10993 456.97461 208.36523 z M 551.5625 210.46289 C 554.23617 210.53599 555.40459 212.16091 555.07031 215.33594 C 554.47622 220.98045 551.95032 226.3286 547.49414 231.37891 C 543.03796 236.42926 538.87956 239.99273 535.01758 242.07227 C 531.1556 244.15182 531.1556 242.51735 535.01758 237.16992 C 538.87956 231.8223 538.87956 229.8935 535.01758 231.37891 C 531.1556 232.86431 530.41414 231.22786 532.79102 226.47461 C 535.16764 221.72134 538.43471 217.26654 542.59375 213.10742 C 546.49295 211.28781 549.48294 210.40603 551.5625 210.46289 z M 454.35938 213.99805 C 451.98249 216.96884 451.98248 220.23778 454.35938 223.80273 C 450.79437 222.61443 447.82557 221.42463 445.44922 220.23633 C 446.63753 217.85969 449.60605 215.78052 454.35938 213.99805 z M 465.94727 215.78125 L 478.42383 222.91211 C 473.67051 224.10041 468.91738 224.69336 464.16406 224.69336 C 468.32362 222.31672 468.9179 219.3462 465.94727 215.78125 z M 524.76758 242.51758 C 528.92662 245.48835 529.67163 248.01421 526.99805 250.09375 C 524.32446 252.17348 522.39153 252.02508 521.20312 249.64844 C 520.01464 247.27179 521.20275 244.89423 524.76758 242.51758 z M 439.61719 252.07617 C 438.56806 252.04797 437.54433 253.92414 437.87305 255.88672 C 438.3831 258.94628 434.53776 262.13251 429.85156 256.77734 C 424.13475 250.24341 421.38486 253.54308 421.38477 257.66992 C 423.7613 256.48192 426.28557 257.52135 428.95898 260.78906 C 434.84813 267.98689 441.98107 261.29443 441.4375 255.88672 C 441.16196 253.13129 440.38285 252.09674 439.61719 252.07617 z M 424.74023 273.43945 C 426.76301 273.49885 429.0387 274.19719 438.76562 275.49414 C 443.22197 276.08827 445.15093 276.38477 444.55664 276.38477 L 423.16797 277.27539 C 419.26039 276.29781 419.70749 273.29203 424.74023 273.43945 z M 443.66602 279.05859 C 441.75545 280.9688 433.92753 284.62759 428.51562 285.29688 C 423.05962 285.97159 422.88066 283.80067 424.94922 281.73242 L 443.66602 279.05859 z M 45.498047 352.31055 L 81.710938 352.31055 L 81.710938 364.05469 L 45.498047 364.05469 L 45.498047 352.31055 z M 588.43555 378.58594 C 592.83709 378.68405 597.22909 378.8699 601.60156 379.24023 L 549.97461 442.85352 L 588.43555 378.58594 z M 617.0293 384.03516 C 619.79775 386.67318 621.83071 390.54295 623.12891 395.63672 L 560.76562 453.36523 L 617.0293 384.03516 z M 624.82227 414.50977 C 624.39024 434.16153 618.96033 462.12301 608.54492 498.30273 C 604.65295 511.82232 600.99932 525.62441 597.58398 539.70898 C 576.50798 532.43583 569.90393 532.64668 543.25977 523.5957 C 538.54862 517.08678 533.31596 510.57938 527.55273 504.54883 L 624.82227 414.50977 z M 45.498047 449.20312 L 74.664062 449.20312 C 76.994573 450.20186 79.343735 451.15829 81.710938 452.07031 L 81.710938 460.94922 L 45.498047 460.94922 L 45.498047 449.20312 z M 92.476562 458.89062 C 95.411831 462.02524 98.348035 465.12692 101.28516 468.19727 L 101.28516 709.54297 L 92.476562 709.54297 L 67.029297 688.01172 C 35.057767 662.56504 19.072266 632.06203 19.072266 596.50195 C 19.072266 560.94179 35.057767 523.91235 67.029297 485.41602 L 92.476562 485.41602 L 92.476562 458.89062 z M 636.78711 476.53125 C 656.46471 523.46969 661.59779 536.17982 691.74023 580.8418 C 666.36364 568.30457 644.24463 557.69911 621.11914 548.4707 C 625.62012 524.81823 630.83075 500.93776 636.78711 476.53125 z M 286.64062 630.70703 C 317.09123 644.96049 363.09171 688.04394 424.64062 759.95898 C 381.23244 786.52217 335.23186 821.83263 286.64062 865.88867 L 286.64062 630.70703 z M 581.42383 708.21875 C 591.14211 738.02143 597.625 764.8185 597.625 790.08594 C 597.625 814.70549 589.84995 831.22599 574.30078 839.64844 C 558.75151 848.07098 530.2457 860.05621 488.78125 875.60547 C 427.23224 866.53509 369.56922 891.15539 315.79492 949.46484 C 320.33014 916.42284 355.96529 860.05687 422.69727 780.36719 L 581.42383 708.21875 z " />
</svg>
