<?xml version="1.0" encoding="UTF-8" standalone="no"?>
<svg
   width="900"
   height="1000"
   id="svg1333"
   sodipodi:version="0.32"
   inkscape:version="1.4.2 (f4327f4, 2025-05-13)"
   sodipodi:docname="135AD.svg"
   version="1.1"
   xmlns:inkscape="http://www.inkscape.org/namespaces/inkscape"
   xmlns:sodipodi="http://sodipodi.sourceforge.net/DTD/sodipodi-0.dtd"
   xmlns="http://www.w3.org/2000/svg"
   xmlns:svg="http://www.w3.org/2000/svg"
   xmlns:rdf="http://www.w3.org/1999/02/22-rdf-syntax-ns#"
   xmlns:cc="http://creativecommons.org/ns#"
   xmlns:dc="http://purl.org/dc/elements/1.1/">
  <metadata
     id="metadata1340">
    <rdf:RDF>
      <cc:Work
         rdf:about="">
        <dc:format>image/svg+xml</dc:format>
        <dc:type
           rdf:resource="http://purl.org/dc/dcmitype/StillImage" />
        <dc:creator>
          <cc:Agent>
            <dc:title>Serge Thomas</dc:title>
          </cc:Agent>
        </dc:creator>
        <dc:publisher>
          <cc:Agent>
            <dc:title>Serge Rosmorduc</dc:title>
          </cc:Agent>
        </dc:publisher>
        <dc:date>03/04/06</dc:date>
        <dc:description>variante optimisée du signe de Jsesh</dc:description>
        <cc:license
           rdf:resource="http://creativecommons.org/licenses/GPL/2.0/" />
      </cc:Work>
      <cc:License
         rdf:about="http://creativecommons.org/licenses/GPL/2.0/">
        <cc:permits
           rdf:resource="http://web.resource.org/cc/Reproduction" />
        <cc:permits
           rdf:resource="http://web.resource.org/cc/Distribution" />
        <cc:requires
           rdf:resource="http://web.resource.org/cc/Notice" />
        <cc:permits
           rdf:resource="http://web.resource.org/cc/DerivativeWorks" />
        <cc:requires
           rdf:resource="http://web.resource.org/cc/ShareAlike" />
        <cc:requires
           rdf:resource="http://web.resource.org/cc/SourceCode" />
      </cc:License>
    </rdf:RDF>
  </metadata>
  <defs
     id="defs1338">
    <marker
       style="overflow:visible"
       id="Triangle"
       refX="0"
       refY="0"
       orient="auto-start-reverse"
       inkscape:stockid="Triangle arrow"
       markerWidth="1"
       markerHeight="1"
       viewBox="0 0 1 1"
       inkscape:isstock="true">
      <path
         transform="scale(0.5)"
         style="fill:context-stroke;fill-rule:evenodd;stroke:context-stroke;stroke-width:1pt"
         d="M 5.77,0 -2.88,5 V -5 Z"
         id="path135" />
    </marker>
  </defs>
  <sodipodi:namedview
     inkscape:window-height="998"
     inkscape:window-width="1680"
     inkscape:pageshadow="2"
     inkscape:pageopacity="0.0"
     borderopacity="1.0"
     bordercolor="#666666"
     pagecolor="#ffffff"
     id="base"
     inkscape:zoom="0.26693281"
     inkscape:cx="-526.34968"
     inkscape:cy="413.96185"
     inkscape:window-x="-8"
     inkscape:window-y="-8"
     inkscape:current-layer="svg1333"
     inkscape:showpageshadow="2"
     inkscape:pagecheckerboard="0"
     inkscape:deskcolor="#d1d1d1"
     showguides="true"
     inkscape:window-maximized="1" />
  <path
     id="path16"
     style="fill:#000000;stroke:none;stroke-width:1"
     d="M 102.70898 0 C 99.343019 0.031604075 95.95439 0.87018791 92.541016 2.5136719 C 83.43869 6.896271 78.886719 16.504465 78.886719 31.337891 L 103.16016 39.427734 C 34.386949 75.162809 0 124.04738 0 186.07812 C 0 231.92691 13.822675 273.39294 41.466797 310.47656 L 41.466797 364.19727 C 30.615307 377.85704 25.875857 394.77499 37.957031 404.15039 C 39.120362 404.9813 40.291 405.80326 41.466797 406.61719 L 41.466797 461.16992 C 13.822675 493.53377 0 534.99989 0 585.56836 C 9.4739031e-15 646.92486 34.386949 696.48241 103.16016 734.24023 L 78.886719 742.33203 C 78.886719 757.83972 83.43869 767.61673 92.541016 771.66211 C 101.64335 775.7073 110.57658 774.18899 119.3418 767.10938 C 128.10698 760.02985 132.82578 747.05078 133.5 728.17188 C 133.5 713.33844 130.46667 705.92188 124.39844 705.92188 L 124.39844 462.95703 C 173.80443 513.08142 223.5742 554.153 274.69336 583.73828 C 331.14512 534.68858 362.60955 488.62652 395.15039 451.17383 C 393.30851 477.57493 396.83948 506.27922 405.74219 537.28516 C 413.06918 562.80298 456.26667 642.73471 470.51562 730.03906 C 385.95161 772.66091 260.18106 854.93978 224.55469 916.64648 C 215.12214 932.98412 218.02874 951.46151 231.08398 970.87695 C 244.13914 990.29242 261.0445 1000 281.79883 1000 C 304.56174 1000 378.6179 984.76874 445.90234 954.30664 C 513.18676 923.84454 562.56489 905.26525 594.03125 898.57031 C 619.47219 927.35864 611.43649 956.14793 569.92773 976.90234 C 542.47828 976.90234 542.47828 984.60164 569.92773 1000 L 600.05469 1000 C 622.81744 997.32207 634.53349 990.96231 635.20312 980.91992 C 642.56759 948.78404 652.60965 903.59313 665.33008 853.38086 C 665.33008 833.29587 655.62249 823.25391 636.20703 823.25391 C 651.60549 801.16053 653.95022 772.37006 643.23828 736.88672 C 636.82428 715.81133 632.79305 694.3788 630.5957 672.8457 C 632.86341 644.39898 635.96668 617.02995 640.05859 589.07031 C 674.81772 604.80914 711.52312 619.30468 739.47461 625.04492 C 772.53241 631.83388 796.89135 619.62206 788.46094 593.9082 C 775.03003 552.943 747.9425 471.09822 696.30859 361.83984 C 691.18023 355.65566 685.42033 350.47313 679.26758 346.14062 L 796.96094 221.33984 L 786.04883 211.04883 L 666.02344 338.32227 C 662.0636 336.37624 658.02335 334.6983 653.95312 333.25586 L 761.21484 189.49609 L 749.19141 180.52539 L 638.52148 328.85156 C 634.75961 328.01426 631.03081 327.34228 627.375 326.80859 L 723 163.63867 L 710.05859 156.05469 L 610.92188 325.2168 C 606.57294 324.99901 602.46281 324.94754 598.68555 325 L 598.68555 279.87305 C 615.26302 273.11927 631.22664 260.53263 646.57617 242.11328 C 661.9256 223.69391 669.59961 198.21273 669.59961 165.67188 C 669.59961 133.13099 655.17153 111.33481 626.31445 100.2832 C 604.6717 91.994475 581.38853 88.110852 556.46484 88.628906 C 548.15701 88.80158 539.66858 89.464029 530.99609 90.615234 C 496.30632 95.220085 471.28508 122.08094 455.93555 171.19922 C 447.33991 182.25086 437.51648 197.29479 426.46484 216.32812 C 420.3249 229.22171 420.01724 236.43384 425.54297 237.96875 C 431.06879 239.5037 435.67366 241.80706 439.35742 244.87695 C 429.71528 250.38703 433.89989 255.7847 440.27734 256.84766 C 442.11895 256.23367 441.50724 257.46331 438.4375 260.5332 C 435.3673 263.60308 435.82755 266.21241 439.81836 268.36133 C 443.80928 270.51022 445.80469 277.11046 445.80469 288.16211 C 445.80469 298.59972 451.63715 303.81836 463.30273 303.81836 C 476.81028 303.81836 486.63368 303.2045 492.77344 301.97656 L 496.45703 330.52734 C 437.51502 331.1413 396.37804 345.56947 373.04688 373.8125 C 332.46188 419.75703 289.4927 460.11469 259.57617 506.87891 C 228.19634 477.86337 175.9609 442.3532 124.39844 407.93945 L 124.39844 68.757812 C 130.46667 65.386584 133.5 57.632542 133.5 45.496094 C 132.82576 26.617148 128.10699 13.638182 119.3418 6.5585938 C 113.86353 2.1338489 108.31893 -0.052673459 102.70898 0 z M 103.16016 73.814453 L 112.26172 74.826172 L 112.26172 381.5332 C 109.61292 375.84395 106.59202 370.29554 103.16016 365.09375 L 103.16016 307.44141 L 76.863281 306.42969 C 43.825162 258.55813 27.306641 217.42955 27.306641 183.04297 C 27.306641 148.65635 43.825162 118.65262 76.863281 93.03125 L 103.16016 73.814453 z M 562.07422 105.11914 C 574.81425 105.88661 588.8615 108.26695 604.21094 112.25781 C 634.90999 120.23954 650.25781 138.65863 650.25781 167.51562 C 650.25781 195.75865 639.97454 219.70229 619.40625 239.34961 C 598.83795 258.99694 585.78941 264.21751 580.26367 255.00781 C 573.50989 246.41209 578.57658 233.82547 595.46094 217.24805 C 612.3451 200.67063 616.49019 184.39898 607.89453 168.43555 C 599.29878 152.47207 581.18763 151.2444 553.55859 164.75195 C 544.34891 154.3143 522.24487 146.33245 487.24805 140.80664 C 494.00182 123.61524 507.5082 112.56419 527.76953 107.65234 C 537.90019 105.19645 549.33414 104.35167 562.07422 105.11914 z M 478.03711 156.46289 C 506.28008 158.30483 529.61181 165.67287 548.03125 178.56641 C 546.8033 189.61805 551.10208 190.07794 560.92578 179.94727 C 580.87823 159.37124 606.29762 169.96572 592.23828 197.44531 C 585.4845 210.64584 577.04277 221.85281 566.91211 231.0625 C 556.78145 240.27216 554.47808 249.48173 560.00391 258.69141 C 565.52973 267.9011 569.21466 275.88489 571.05664 282.63867 C 570.44262 331.75697 574.4316 356.62038 583.02734 357.23438 C 585.99658 357.41098 588.9724 357.5186 591.95117 357.58789 L 527.42383 467.69336 C 524.38644 465.96514 521.25263 464.42686 518.02344 463.11328 C 491.88633 452.65927 461.48726 515.05907 484.55078 530.75391 L 460.72266 556.01953 L 470.34375 565.0918 L 470.30859 565.15039 L 470.56641 565.30273 L 471.63672 566.31055 L 471.86914 566.06445 L 477.12305 569.14453 L 477.6543 569.54102 L 477.69922 569.48242 L 483.25 572.73633 L 503.39648 538.35938 C 520.00622 542.73921 539.94531 543.7134 557.70703 543.75391 C 571.12193 553.15505 584.36847 562.65885 613.7168 576.76367 C 607.99567 606.30267 605.27163 640.08996 604.08789 672.6582 L 491.86523 721.76562 C 467.03295 607.70378 432.96194 547.39627 428.44336 532.09766 C 418.4003 498.09469 415.38722 455.32213 423.95117 396.29102 C 426.77747 376.80932 441.81471 359.07617 472.51367 359.07617 C 503.21262 359.07617 518.86644 348.33105 519.48047 326.8418 C 519.48047 299.8267 508.12348 287.54797 485.40625 290.00391 C 462.68902 292.45983 453.17171 285.09374 456.85547 267.90234 C 470.36311 259.92059 475.12168 254.23824 471.13086 250.86133 C 467.13995 247.48441 459.92397 245.49091 449.48633 244.87695 C 449.48633 238.73718 444.26965 233.51857 433.83203 229.2207 C 444.26965 205.88949 454.39906 189.61987 464.22266 180.41016 C 474.04627 175.49834 484.33148 175.49834 495.07617 180.41016 C 505.82077 185.322 516.41188 188.69711 526.84961 190.53906 L 526.84961 184.0918 C 520.09583 183.47782 511.34616 180.25467 500.60156 174.42188 C 489.85688 168.58909 478.95976 167.5154 467.9082 171.19922 C 471.59206 165.05946 474.96737 160.14677 478.03711 156.46289 z M 581.60547 174.27344 C 579.67983 174.16279 577.39291 174.49779 574.74023 175.3418 C 560.64127 179.82784 545.87711 202.50501 550.79492 209.88086 C 539.59225 214.86001 537.07258 226.3788 547.10938 230.14258 C 557.70158 234.11466 580.92241 210.08244 586.71289 195.60547 C 591.51552 183.59832 589.94994 174.75289 581.60547 174.27344 z M 479.81836 181.95508 C 475.94502 182.07499 472.28176 183.09499 468.82812 185.01367 L 459.61719 193.30273 L 459.61719 200.66992 L 464.22266 200.66992 C 477.11619 206.80969 491.54632 206.80969 507.50977 200.66992 L 524.08789 203.43164 L 524.08789 195.14453 L 508.43164 194.22266 C 497.8789 185.78045 488.33973 181.69126 479.81836 181.95508 z M 577.56055 184.12305 C 580.32342 184.19855 581.53099 185.87725 581.18555 189.1582 C 580.57164 194.99102 577.96226 200.51753 573.35742 205.73633 C 568.75258 210.95516 564.45566 214.6382 560.46484 216.78711 C 556.47402 218.93604 556.47402 217.24652 560.46484 211.7207 C 564.45566 206.19468 564.45566 204.20136 560.46484 205.73633 C 556.47402 207.27128 555.70789 205.58175 558.16406 200.66992 C 560.61997 195.75808 563.99518 191.15334 568.29297 186.85547 C 572.32225 184.97515 575.41162 184.0643 577.56055 184.12305 z M 477.11523 187.77734 C 474.65905 190.84724 474.65904 194.22432 477.11523 197.9082 C 473.43129 196.68026 470.36382 195.4506 467.9082 194.22266 C 469.13615 191.76674 472.20333 189.61927 477.11523 187.77734 z M 489.08984 189.61914 L 501.98242 196.98828 C 497.07053 198.21622 492.15994 198.82812 487.24805 198.82812 C 491.54637 196.3722 492.15957 193.30302 489.08984 189.61914 z M 549.87305 217.24805 C 554.17083 220.31792 554.9405 222.92726 552.17773 225.07617 C 549.41494 227.22528 547.4175 227.07311 546.18945 224.61719 C 544.96133 222.16125 546.18929 219.70398 549.87305 217.24805 z M 461.88086 227.125 C 460.79673 227.0959 459.7404 229.03445 460.08008 231.0625 C 460.60715 234.22413 456.63356 237.51624 451.79102 231.98242 C 445.88349 225.23052 443.04112 228.64174 443.04102 232.90625 C 445.49684 231.67862 448.1046 232.75218 450.86719 236.12891 C 456.95281 243.56686 464.32343 236.65061 463.76172 231.0625 C 463.47699 228.21515 462.67206 227.14625 461.88086 227.125 z M 446.50781 249.20117 C 448.59808 249.26257 450.95052 249.984 461.00195 251.32422 C 465.60697 251.93817 467.60045 252.24414 466.98633 252.24414 L 444.88281 253.16406 C 440.84487 252.15387 441.30718 249.04883 446.50781 249.20117 z M 466.06641 255.00781 C 464.0921 256.98174 456.00261 260.76152 450.41016 261.45312 C 444.77215 262.15035 444.58704 259.90873 446.72461 257.77148 L 466.06641 255.00781 z M 54.613281 330.70312 L 92.035156 330.70312 L 92.035156 342.83984 L 54.613281 342.83984 L 54.613281 330.70312 z M 609.23438 357.76172 C 611.77817 357.78452 614.32055 357.81901 616.85938 357.88477 L 580.97852 405.97461 L 609.23438 357.76172 z M 634.67773 359.08789 C 635.21386 359.15379 635.74973 359.22415 636.28516 359.29688 C 639.05356 359.67287 641.48404 360.61585 643.57617 362.125 L 590.11719 418.8125 L 634.67773 359.08789 z M 651.53516 375.54883 C 656.34065 394.548 651.29922 429.96878 636.44531 481.56641 C 632.4235 495.53702 628.64841 509.79908 625.11914 524.35352 C 603.34003 516.83773 596.51544 517.05606 568.98242 507.70312 C 563.11625 499.59842 556.46724 491.49447 549.01953 484.25391 L 651.53516 375.54883 z M 54.613281 430.82812 L 84.753906 430.82812 C 87.162161 431.86018 89.588987 432.84857 92.035156 433.79102 L 92.035156 442.96484 L 54.613281 442.96484 L 54.613281 430.82812 z M 103.16016 440.83789 C 106.19335 444.07708 109.22661 447.28425 112.26172 450.45703 L 112.26172 699.85352 L 103.16016 699.85352 L 76.863281 677.60352 C 43.825162 651.30793 27.306641 619.7874 27.306641 583.04102 C 27.306641 546.29455 43.825162 508.03059 76.863281 468.25 L 103.16016 468.25 L 103.16016 440.83789 z M 665.62891 459.06836 C 685.96296 507.5727 691.26801 520.70745 722.41602 566.85938 C 696.19286 553.9039 673.33642 542.94447 649.43945 533.4082 C 654.09059 508.96667 659.47384 484.28909 665.62891 459.06836 z M 385.33203 655.23242 C 385.29703 655.35859 385.26155 655.48276 385.22852 655.60547 C 385.29462 655.51387 385.3625 655.42306 385.42969 655.33203 C 385.39709 655.29883 385.36453 655.26562 385.33203 655.23242 z M 608.41797 698.48438 C 618.46046 729.28129 625.16016 756.9736 625.16016 783.08398 C 625.16016 808.52485 617.12649 825.5954 601.05859 834.29883 C 584.99059 843.00235 555.53328 855.38709 512.68555 871.45508 C 449.08323 862.08211 360.46277 887.52461 304.89453 947.7793 C 309.58105 913.635 375.43828 855.3892 444.39648 773.04102 L 608.41797 698.48438 z " />
</svg>
