<?xml version="1.0" encoding="UTF-8" standalone="no"?>
<svg
   width="900"
   height="1000"
   id="svg1333"
   sodipodi:version="0.32"
   inkscape:version="1.4.2 (f4327f4, 2025-05-13)"
   sodipodi:docname="135A8.svg"
   version="1.1"
   xmlns:inkscape="http://www.inkscape.org/namespaces/inkscape"
   xmlns:sodipodi="http://sodipodi.sourceforge.net/DTD/sodipodi-0.dtd"
   xmlns="http://www.w3.org/2000/svg"
   xmlns:svg="http://www.w3.org/2000/svg"
   xmlns:rdf="http://www.w3.org/1999/02/22-rdf-syntax-ns#"
   xmlns:cc="http://creativecommons.org/ns#"
   xmlns:dc="http://purl.org/dc/elements/1.1/">
  <metadata
     id="metadata1340">
    <rdf:RDF>
      <cc:Work
         rdf:about="">
        <dc:format>image/svg+xml</dc:format>
        <dc:type
           rdf:resource="http://purl.org/dc/dcmitype/StillImage" />
        <dc:creator>
          <cc:Agent>
            <dc:title>Serge Thomas</dc:title>
          </cc:Agent>
        </dc:creator>
        <dc:publisher>
          <cc:Agent>
            <dc:title>Serge Rosmorduc</dc:title>
          </cc:Agent>
        </dc:publisher>
        <dc:date>03/04/06</dc:date>
        <dc:description>variante optimisée du signe de Jsesh</dc:description>
        <cc:license
           rdf:resource="http://creativecommons.org/licenses/GPL/2.0/" />
      </cc:Work>
      <cc:License
         rdf:about="http://creativecommons.org/licenses/GPL/2.0/">
        <cc:permits
           rdf:resource="http://web.resource.org/cc/Reproduction" />
        <cc:permits
           rdf:resource="http://web.resource.org/cc/Distribution" />
        <cc:requires
           rdf:resource="http://web.resource.org/cc/Notice" />
        <cc:permits
           rdf:resource="http://web.resource.org/cc/DerivativeWorks" />
        <cc:requires
           rdf:resource="http://web.resource.org/cc/ShareAlike" />
        <cc:requires
           rdf:resource="http://web.resource.org/cc/SourceCode" />
      </cc:License>
    </rdf:RDF>
  </metadata>
  <defs
     id="defs1338">
    <marker
       style="overflow:visible"
       id="Triangle"
       refX="0"
       refY="0"
       orient="auto-start-reverse"
       inkscape:stockid="Triangle arrow"
       markerWidth="1"
       markerHeight="1"
       viewBox="0 0 1 1"
       inkscape:isstock="true">
      <path
         transform="scale(0.5)"
         style="fill:context-stroke;fill-rule:evenodd;stroke:context-stroke;stroke-width:1pt"
         d="M 5.77,0 -2.88,5 V -5 Z"
         id="path135" />
    </marker>
  </defs>
  <sodipodi:namedview
     inkscape:window-height="998"
     inkscape:window-width="1680"
     inkscape:pageshadow="2"
     inkscape:pageopacity="0.0"
     borderopacity="1.0"
     bordercolor="#666666"
     pagecolor="#ffffff"
     id="base"
     inkscape:zoom="0.18875"
     inkscape:cx="-309.93377"
     inkscape:cy="1284.7682"
     inkscape:window-x="-8"
     inkscape:window-y="-8"
     inkscape:current-layer="svg1333"
     inkscape:showpageshadow="2"
     inkscape:pagecheckerboard="0"
     inkscape:deskcolor="#d1d1d1"
     showguides="true"
     inkscape:window-maximized="1">
    <sodipodi:guide
       position="800,1000"
       orientation="0,-1"
       id="guide1"
       inkscape:locked="false" />
    <sodipodi:guide
       position="800,0"
       orientation="0,-1"
       id="guide2"
       inkscape:locked="false" />
    <sodipodi:guide
       position="1428.9261,881.99354"
       orientation="0,-1"
       id="guide6"
       inkscape:locked="false" />
    <sodipodi:guide
       position="1102.4141,937.39052"
       orientation="0,-1"
       id="guide7"
       inkscape:locked="false" />
    <sodipodi:guide
       position="1102.453,364.72076"
       orientation="0,-1"
       id="guide8"
       inkscape:locked="false" />
    <sodipodi:guide
       position="684.53505,934.4718"
       orientation="0.8601064,-0.51011467"
       id="guide4"
       inkscape:locked="false" />
    <sodipodi:guide
       position="677.66192,954.17561"
       orientation="0.84731785,-0.53108611"
       id="guide5"
       inkscape:locked="false" />
    <sodipodi:guide
       position="654.97762,983.73308"
       orientation="0.72886004,-0.68466273"
       id="guide9"
       inkscape:locked="false" />
    <sodipodi:guide
       position="266.48032,396.53137"
       orientation="0,-1"
       id="guide11"
       inkscape:locked="false" />
    <sodipodi:guide
       position="422.69644,219.63203"
       orientation="-0.41380513,0.91036548"
       id="guide18"
       inkscape:locked="false" />
  </sodipodi:namedview>
  <path
     id="path16"
     style="fill:#000000;stroke:none;stroke-width:1"
     d="m 385.97266,0 c -8.08341,0.03180745 -15.99847,3.2492792 -24.50196,9.3710938 -20.95206,15.0838802 -19.54283,29.8840612 -9.36132,44.3339842 10.18142,14.449931 22.82561,18.390859 37.93164,11.822266 l 45.4707,76.669926 c 10.50876,-28.89983 30.71976,-27.40821 41.22851,-27.40821 l 9.85352,10.83789 c -23.41778,10.66551 -40.99504,34.77493 -52.73047,72.32813 -8.31815,10.69486 -17.82467,25.253 -28.51953,43.67187 -5.94172,12.47733 -6.23992,19.458 -0.89258,20.94336 5.34743,1.4854 9.8043,3.71476 13.36914,6.68555 -9.33086,5.33219 -5.28094,10.55533 0.89063,11.58398 1.78215,-0.59417 1.18939,0.59563 -1.78125,3.56641 -2.97108,2.97077 -2.52603,5.49468 1.33593,7.57422 3.86208,2.07952 5.79297,8.46725 5.79297,19.16211 0,10.10065 5.64463,15.15039 16.9336,15.15039 13.07148,0 22.57799,-0.59295 28.51953,-1.78125 l 3.56445,27.6289 c -57.03915,0.59414 -96.84784,14.55547 -119.42578,41.88672 -39.27476,44.46127 -80.85592,83.51699 -109.80664,128.77149 -30.36677,-28.07881 -80.91661,-62.44334 -130.81445,-95.7461 V 98.822266 C 118.90162,95.559873 121.83789,88.057139 121.83789,76.3125 121.18542,58.043034 116.61894,45.481893 108.13672,38.630859 99.65447,31.779822 91.007699,30.47566 82.199219,34.716797 73.390749,38.95791 68.986328,48.254826 68.986328,62.609375 l 23.490234,7.830078 C 25.923603,105.02087 -7.3535156,152.32535 -7.3535156,212.35352 c 0,44.36862 13.3752834,84.49639 40.1269536,120.38281 v 51.98633 c -10.501165,13.21878 -15.085682,29.59133 -3.394532,38.66406 1.125775,0.80409 2.256694,1.60102 3.394532,2.38867 v 52.79102 c -26.7516702,31.31903 -40.1269536,71.44492 -40.1269536,120.38086 0,59.37569 33.2771186,107.33418 99.8300776,143.87304 l -23.490234,7.83008 c 0,15.00705 4.404421,24.46803 13.212891,28.38281 8.80848,3.9146 17.455251,2.44677 25.937501,-4.40429 8.48221,-6.85098 13.04872,-19.41222 13.70117,-37.68164 0,-14.35456 -2.93627,-21.53125 -8.80859,-21.53125 v -235.1211 c 47.81099,48.50619 95.97451,88.2507 145.44336,116.88086 54.6293,-47.4662 85.07806,-92.03962 116.56836,-128.2832 -1.78242,25.54877 1.6347,53.32513 10.25,83.33008 7.09044,24.69402 26.64837,108.36798 50.0371,191.21484 C 359.52934,654.67753 308.34641,607.70652 281.7832,602.52344 c -27.85901,5.18308 -46.00136,15.54846 -54.42382,31.09765 -24.61955,55.07009 -45.02753,144.47884 -61.22461,268.22461 -5.83097,31.09842 -17.65592,47.45662 -35.47266,49.07618 -17.81682,1.61973 -48.103002,7.61425 -90.863282,17.98046 -33.6899297,0 -33.6899297,10.0406 0,30.125 H 217.64258 c 7.77463,-7.77453 9.06987,-23.32268 3.88672,-46.64648 -5.18305,-23.3238 1.29677,-53.12673 19.4375,-89.4082 17.57052,-35.14097 26.63127,-72.40913 27.18359,-111.80469 l -0.94531,135.12891 c -15.54916,14.25342 -25.26895,25.26646 -29.15625,33.04101 -8.42247,16.19708 -6.31541,33.68988 6.31836,52.47852 12.63369,18.78866 28.99382,28.18359 49.07812,28.18359 22.02805,0 65.59674,-14.74008 130.70899,-44.21875 65.11224,-29.47868 112.89519,-47.45675 143.3457,-53.93555 24.61962,27.85894 16.84449,55.71835 -23.32422,75.80274 -26.56328,0 -26.56328,7.45028 0,22.35156 h 29.1543 c 22.02789,-2.59151 33.36566,-8.74665 34.01367,-18.46484 7.12671,-31.09842 16.84453,-74.83064 29.1543,-123.42188 0,-19.43657 -9.39494,-29.1543 -28.1836,-29.1543 14.90134,-21.38013 17.17081,-49.24031 6.80469,-83.57812 -6.20693,-20.395 -10.10796,-41.13473 -12.23437,-61.97266 2.1945,-27.52836 5.1984,-54.01526 9.1582,-81.07226 33.63698,15.23072 69.15596,29.25952 96.20508,34.81445 31.99057,6.56978 55.5645,-5.24908 47.40625,-30.13281 C 743.10113,568.72955 718.2191,493.53979 671.51562,393.1875 l 67.01954,-52.34766 9.64648,12.34961 29.96484,-52.80859 -58.49218,16.28711 9.64648,12.34961 -65.07031,50.82617 c -5.40637,-5.99633 -11.45179,-10.94268 -17.86524,-15.01367 l 57.86524,-63.57031 11.58984,10.54882 20.64063,-57.09961 -54.91211,25.9043 11.58984,10.54883 -60.47656,66.4375 c -6.71458,-2.91315 -13.60543,-5.08671 -20.41016,-6.69141 l 52.85157,-81.47265 13.14648,8.52929 11.10352,-59.69336 -49.98243,34.47266 13.14844,8.5293 -56.30078,86.79101 c -8.84,-1.08864 -17.1321,-1.3718 -24.21484,-1.27343 v -43.66993 c 16.04229,-6.53574 31.49171,-18.7163 46.3457,-36.54101 14.8539,-17.82472 22.2793,-42.48234 22.2793,-73.97266 0,-31.49036 -13.96125,-52.58252 -41.88672,-63.27734 -3.54104,-1.35615 -7.12792,-2.59062 -10.75977,-3.70313 l 9.85352,-10.83789 c 10.50875,0 30.71975,-1.49162 41.22851,27.40821 l 45.47071,-76.669926 c 15.10603,6.568593 27.75022,2.627665 37.93164,-11.822266 C 732.64831,39.255155 734.05753,24.454975 713.10547,9.3710938 693.66893,-4.6216253 677.31033,-3.4367192 654.97852,16.267578 L 558.14648,119.34766 c -8.76767,-1.05686 -17.76726,-1.48879 -27,-1.29688 -4.97715,0.10345 -10.02091,0.38905 -15.13281,0.85547 L 419.59766,16.267578 C 407.03601,5.1839111 396.36561,-0.04089529 385.97266,0 Z m 0.32617,18.914062 c 4.65778,0.125524 9.05948,2.937228 19.03515,8.648438 l 62.88477,69.494141 c -19.70324,1.968818 -26.59874,4.325439 -31.03711,13.013669 L 396.91406,45.824219 c -17.0798,7.881819 -22.50839,5.225949 -28.41992,-0.685547 -5.91155,-5.910979 -9.90922,-15.524913 3.72656,-21.746094 6.67719,-3.048895 10.45541,-4.576145 14.07813,-4.478516 z m 301.97851,0 c 3.62272,-0.09763 7.40095,1.429621 14.07813,4.478516 13.63578,6.221181 9.63811,15.835115 3.72656,21.746094 -5.91153,5.911496 -11.34012,8.567366 -28.41992,0.685547 L 637.39453,110.07031 C 632.95616,101.38208 626.06066,99.025459 606.35742,97.056641 L 669.24219,27.5625 c 9.97567,-5.71121 14.37737,-8.522914 19.03515,-8.648438 z m -595.800778,84.800778 8.808598,0.98047 V 401.5 c -2.563291,-5.50558 -5.487525,-10.87435 -8.808598,-15.9082 v -55.79102 l -25.447265,-0.97851 c -31.97153,-46.3261 -47.957031,-86.12784 -47.957031,-119.4043 0,-33.2765 15.985501,-62.3132 47.957031,-87.10742 z m 444.099608,30.29493 c 12.32874,0.74269 25.92149,3.04618 40.77539,6.9082 29.70797,7.72405 44.56055,25.54726 44.56055,53.47265 0,27.33124 -9.9512,50.5026 -29.85547,69.51563 -19.90428,19.01305 -32.53156,24.06472 -37.87891,15.15234 -6.53574,-8.31822 -1.63223,-20.49877 14.70704,-36.54101 16.33908,-16.04224 20.34941,-31.78825 12.03125,-47.23633 -8.31825,-15.44812 -25.84497,-16.63593 -52.58204,-3.56445 -8.91236,-10.10069 -30.30292,-17.82446 -64.16992,-23.17188 6.53574,-16.6364 19.60763,-27.33071 39.21485,-32.08398 9.80361,-2.37661 20.86848,-3.19387 33.19726,-2.45117 z m -81.32422,49.68554 c 27.33118,1.78248 49.90958,8.91334 67.73438,21.39063 -1.18831,10.69485 2.97195,11.13954 12.47851,1.33594 19.30831,-19.91177 43.90624,-9.65886 30.30078,16.93359 -6.53574,12.77437 -14.7042,23.61888 -24.50781,32.53125 -9.80361,8.91234 -12.03297,17.82397 -6.68554,26.73633 5.34743,8.91237 8.9128,16.63807 10.69531,23.17383 -0.5942,47.53257 3.26574,71.59332 11.58398,72.1875 6.53025,0.38841 13.09067,0.43563 19.65039,0.47265 l -70.27148,108.32813 c -3.92214,-2.46176 -8.01532,-4.60375 -12.2832,-6.33985 -23.30481,-9.32118 -50.11153,41.21062 -36.72461,61.09375 l -25.07618,19.58594 9.23438,11.82031 0.63281,-0.49414 5.43555,4.94922 -0.13281,0.20508 1.24414,0.80664 1.85351,1.6875 0.27735,-0.30469 9.20898,5.97266 20.91602,-32.24219 c 15.86452,4.01326 34.70861,4.91866 51.5332,4.95703 12.98182,9.09763 25.80031,18.29585 54.20117,31.94531 -5.53647,28.58558 -8.17285,61.2818 -9.31836,92.79883 l -121.53711,53.1836 C 423.49098,619.66314 409.24477,565.70488 406.32227,550.48242 c -7.84571,-40.86603 -11.69958,-77.57579 -3.41211,-134.70117 2.73506,-18.85276 17.28821,-36.01367 46.99609,-36.01367 29.70788,0 44.85697,-10.39786 45.45117,-31.19336 0,-26.14295 -10.99078,-38.02509 -32.97461,-35.64844 -21.98384,2.37664 -31.19373,-4.75227 -27.6289,-21.38867 13.07157,-7.72407 17.67643,-13.22234 13.81445,-16.49023 -3.86207,-3.2679 -10.84463,-5.19688 -20.94531,-5.79102 0,-5.94156 -5.04973,-10.99322 -15.15039,-15.15234 10.10066,-22.57799 19.90369,-38.322 29.41015,-47.23438 9.50647,-4.75325 19.45961,-4.75325 29.85742,0 10.39772,4.75327 20.64729,8.02026 30.74805,9.80274 v -6.24024 c -6.53574,-0.59416 -15.00267,-3.71292 -25.40039,-9.35742 -10.39781,-5.64449 -20.94389,-6.68404 -31.63867,-3.11914 3.56493,-5.94155 6.83209,-10.69482 9.80273,-14.25977 z m 100.22461,17.23633 c -1.86347,-0.10707 -4.07749,0.21643 -6.64453,1.0332 -13.6438,4.34121 -27.93092,26.2861 -23.17187,33.42383 -10.84101,4.8184 -13.27917,15.96515 -3.56641,19.60742 10.25025,3.84385 32.72067,-19.41227 38.32422,-33.42187 4.64758,-11.61952 3.13367,-20.1786 -4.94141,-20.64258 z m -98.50195,7.43359 c -3.7483,0.11604 -7.29264,1.10225 -10.63477,2.95899 l -8.91406,8.02148 v 7.12891 h 4.45703 c 12.47728,5.94155 26.44058,5.94155 41.88867,0 l 16.04297,2.67383 v -8.01953 l -15.15039,-0.89258 c -10.21206,-8.16967 -19.44318,-12.1264 -27.68945,-11.8711 z m 94.58789,2.09766 c 2.67367,0.0731 3.84209,1.69802 3.50781,4.87305 -0.59409,5.64451 -3.11999,10.99266 -7.57617,16.04297 -4.45618,5.05035 -8.61458,8.61382 -12.47656,10.69336 -3.86198,2.07955 -3.86198,0.44508 0,-4.90235 3.86198,-5.34762 3.86198,-7.27642 0,-5.79101 -3.86198,1.4854 -4.60344,-0.15105 -2.22656,-4.9043 2.37662,-4.75327 5.64369,-9.20807 9.80273,-13.36719 3.8992,-1.81961 6.88919,-2.70139 8.96875,-2.64453 z m -97.20312,3.53516 c -2.37689,2.97079 -2.3769,6.23973 0,9.80468 -3.56501,-1.1883 -6.53381,-2.3781 -8.91016,-3.5664 1.18831,-2.37664 4.15683,-4.45581 8.91016,-6.23828 z m 11.58789,1.7832 12.47656,7.13086 c -4.75332,1.1883 -9.50645,1.78125 -14.25977,1.78125 4.15956,-2.37664 4.75384,-5.34716 1.78321,-8.91211 z m 58.82031,26.73633 c 4.15904,2.97077 4.90405,5.49663 2.23047,7.57617 -2.67359,2.07973 -4.60652,1.93133 -5.79493,-0.44531 -1.18848,-2.37665 -3.7e-4,-4.75421 3.56446,-7.13086 z m -85.15039,9.55859 c -1.04913,-0.0282 -2.07286,1.84797 -1.74414,3.81055 0.51005,3.05956 -3.33529,6.24579 -8.02149,0.89062 -5.71681,-6.53393 -8.4667,-3.23426 -8.46679,0.89258 2.37653,-1.188 4.9008,-0.14857 7.57421,3.11914 5.88915,7.19783 13.02209,0.50537 12.47852,-4.90234 -0.27554,-2.75543 -1.05465,-3.78998 -1.82031,-3.81055 z m -14.87696,21.36328 c 2.02278,0.0594 4.29847,0.75774 14.02539,2.05469 4.45635,0.59413 6.38531,0.89063 5.79102,0.89063 l -21.38867,0.89062 c -3.90758,-0.97758 -3.46048,-3.98336 1.57226,-3.83594 z m 18.92579,5.61914 c -1.91057,1.91021 -9.73849,5.569 -15.1504,6.23829 -5.456,0.67471 -5.63496,-1.49621 -3.5664,-3.56446 z M 45.498047,352.31055 h 36.212891 v 11.74414 H 45.498047 Z m 548.679683,26.46093 c 4.75831,0.20798 9.49979,0.56886 14.21289,1.20899 1.12989,0.15346 2.20139,0.40524 3.21485,0.75391 l -65.08008,71.49609 z m 27.71485,12.94336 c 1.86108,4.83357 2.84489,11.13382 2.94922,18.89454 l -69.71875,54.45898 z m 1.6914,38.91211 c -2.18625,17.87887 -7.20143,40.45042 -15.03906,67.67578 -3.89197,13.51959 -7.5456,27.32168 -10.96094,41.40625 -21.076,-7.27315 -27.68005,-7.0623 -54.32421,-16.11328 -4.54898,-6.28486 -9.58374,-12.56773 -15.11329,-18.42187 z M 45.498047,449.20312 h 29.166015 c 2.330511,0.99874 4.679673,1.95517 7.046876,2.86719 v 8.87891 H 45.498047 Z m 46.978515,9.6875 c 2.935269,3.13462 5.871473,6.2363 8.808598,9.30665 v 241.3457 H 92.476562 L 67.029297,688.01172 c -31.97153,-25.44668 -47.957031,-55.94969 -47.957031,-91.50977 0,-35.56016 15.985501,-72.5896 47.957031,-111.08593 h 25.447265 z m 544.310548,17.64063 c 19.6776,46.93844 24.81068,59.64857 54.95312,104.31055 -25.37659,-12.53723 -47.4956,-23.14269 -70.62109,-32.3711 4.50098,-23.65247 9.71161,-47.53294 15.66797,-71.93945 z M 286.64062,630.70703 c 30.45061,14.25346 76.45109,57.33691 138,129.25195 -43.40818,26.56319 -89.40876,61.87365 -138,105.92969 z m 294.78321,77.51172 c 9.71828,29.80268 16.20117,56.59975 16.20117,81.86719 0,24.61955 -7.77505,41.14005 -23.32422,49.5625 -15.54927,8.42254 -44.05508,20.40777 -85.51953,35.95703 -61.54901,-9.07038 -119.21203,15.54992 -172.98633,73.85937 4.53522,-33.042 40.17037,-89.40797 106.90235,-169.09765 z"
     sodipodi:nodetypes="sccccccccscccssscccccccssccscccccscccscccccsccccscccsscccsssccccccccccsccccccccccccccccccccccccsssccccssccsccssccccccssccccccsccccccsccssssccsccssccssssccccccccccccccccccccssscscscccsccsccsscssssccccccccsscssssccsccccccccccscscccccscsccccsccccccccsccccccccscccccccccccccccsccccccccccccsscccc" />
</svg>
