<?xml version="1.0" encoding="UTF-8" standalone="no"?>
<svg
   width="900"
   height="1000"
   id="svg1333"
   sodipodi:version="0.32"
   inkscape:version="1.4.2 (f4327f4, 2025-05-13)"
   sodipodi:docname="135AE.svg"
   version="1.1"
   xmlns:inkscape="http://www.inkscape.org/namespaces/inkscape"
   xmlns:sodipodi="http://sodipodi.sourceforge.net/DTD/sodipodi-0.dtd"
   xmlns="http://www.w3.org/2000/svg"
   xmlns:svg="http://www.w3.org/2000/svg"
   xmlns:rdf="http://www.w3.org/1999/02/22-rdf-syntax-ns#"
   xmlns:cc="http://creativecommons.org/ns#"
   xmlns:dc="http://purl.org/dc/elements/1.1/">
  <metadata
     id="metadata1340">
    <rdf:RDF>
      <cc:Work
         rdf:about="">
        <dc:format>image/svg+xml</dc:format>
        <dc:type
           rdf:resource="http://purl.org/dc/dcmitype/StillImage" />
        <dc:creator>
          <cc:Agent>
            <dc:title>Serge Thomas</dc:title>
          </cc:Agent>
        </dc:creator>
        <dc:publisher>
          <cc:Agent>
            <dc:title>Serge Rosmorduc</dc:title>
          </cc:Agent>
        </dc:publisher>
        <dc:date>03/04/06</dc:date>
        <dc:description>variante optimisée du signe de Jsesh</dc:description>
        <cc:license
           rdf:resource="http://creativecommons.org/licenses/GPL/2.0/" />
      </cc:Work>
      <cc:License
         rdf:about="http://creativecommons.org/licenses/GPL/2.0/">
        <cc:permits
           rdf:resource="http://web.resource.org/cc/Reproduction" />
        <cc:permits
           rdf:resource="http://web.resource.org/cc/Distribution" />
        <cc:requires
           rdf:resource="http://web.resource.org/cc/Notice" />
        <cc:permits
           rdf:resource="http://web.resource.org/cc/DerivativeWorks" />
        <cc:requires
           rdf:resource="http://web.resource.org/cc/ShareAlike" />
        <cc:requires
           rdf:resource="http://web.resource.org/cc/SourceCode" />
      </cc:License>
    </rdf:RDF>
  </metadata>
  <defs
     id="defs1338">
    <marker
       style="overflow:visible"
       id="Triangle"
       refX="0"
       refY="0"
       orient="auto-start-reverse"
       inkscape:stockid="Triangle arrow"
       markerWidth="1"
       markerHeight="1"
       viewBox="0 0 1 1"
       inkscape:isstock="true">
      <path
         transform="scale(0.5)"
         style="fill:context-stroke;fill-rule:evenodd;stroke:context-stroke;stroke-width:1pt"
         d="M 5.77,0 -2.88,5 V -5 Z"
         id="path135" />
    </marker>
  </defs>
  <sodipodi:namedview
     inkscape:window-height="998"
     inkscape:window-width="1680"
     inkscape:pageshadow="2"
     inkscape:pageopacity="0.0"
     borderopacity="1.0"
     bordercolor="#666666"
     pagecolor="#ffffff"
     id="base"
     inkscape:zoom="0.13346641"
     inkscape:cx="-265.98454"
     inkscape:cy="1644.6086"
     inkscape:window-x="-8"
     inkscape:window-y="-8"
     inkscape:current-layer="svg1333"
     inkscape:showpageshadow="2"
     inkscape:pagecheckerboard="0"
     inkscape:deskcolor="#d1d1d1"
     showguides="true"
     inkscape:window-maximized="1">
    <sodipodi:guide
       position="0,1000"
       orientation="0,-1"
       id="guide4"
       inkscape:locked="false" />
    <sodipodi:guide
       position="900,0"
       orientation="0,-1"
       id="guide5"
       inkscape:locked="false" />
  </sodipodi:namedview>
  <path
     id="path1-7"
     style="fill:#000000;stroke:none;stroke-width:1"
     d="M 674.10156 0.24023394 C 665.40037 0.68645072 656.53721 1.7537147 647.51367 3.4394527 C 611.41932 10.182348 585.83612 38.936934 570.76367 89.707031 C 561.24433 101.60626 550.93203 117.47458 539.82617 137.30664 C 533.47975 150.79244 533.28077 158.32551 539.23047 159.91211 C 545.17995 161.49867 549.74091 164.27775 552.91406 168.24414 C 548.94748 170.62399 547.36087 173.20203 548.1543 175.97852 C 548.9475 178.75501 551.32845 180.14258 555.29492 180.14258 C 556.08824 180.14258 554.89776 181.53019 551.72461 184.30664 C 548.55169 187.08314 549.14853 189.66114 553.51172 192.04102 C 557.87467 194.42086 560.05469 200.37123 560.05469 209.89062 C 560.05469 219.40997 562.31759 223.24656 564.81445 225.35937 C 573.89843 233.04609 590.71771 232.8909 610.03125 231.31055 L 612.41016 252.72656 C 552.12072 259.07279 513.25099 273.35451 495.79883 295.56641 C 444.15564 333.56429 393.5822 383.17602 336.375 446.55664 C 303.62993 443.53481 269.07446 442.0598 226.79297 450.4707 C 184.5115 458.88163 150.75874 460.56758 140.375 459.54492 C 124.62083 453.30485 110.79784 449.16334 97.082031 446.8418 L 153.28711 86.732421 L 168.77148 89.148437 L 154.53125 30.125 L 122.98242 82.001953 L 138.4668 84.417968 L 90.421875 392.25391 L 90.421875 80.693359 L 106.09375 80.693359 L 82.921875 24.572265 L 59.75 80.693359 L 75.421875 80.693359 L 75.421875 392.23633 L 27.378906 84.417968 L 42.863281 82.001953 L 11.314453 30.125 L -2.9257813 89.148437 L 12.558594 86.732421 L 68.404297 444.54297 C 52.533671 444.59176 35.277405 446.61072 14.207031 450.22656 C 11.16294 461.61993 18.4658 468.18402 36.119141 469.91797 C 24.619705 510.39215 42.09454 529.97919 68.728516 531.24609 L 62.914063 568.49609 L 75.421875 570.44727 L 75.421875 570.63086 L 76.595703 570.63086 L 77.734375 570.80859 L 77.761719 570.63086 L 88.083984 570.63086 L 88.111328 570.80859 L 89.25 570.63086 L 90.421875 570.63086 L 90.421875 570.44727 L 102.93164 568.49609 L 96.548828 527.60352 C 110.25241 523.84114 121.21613 517.524 139.67773 507.32617 C 239.51424 510.79583 303.25086 509.11409 362.66016 501.39062 C 375.08779 490.52601 417.79553 452.58199 490.7832 387.55859 C 502.58617 378.35413 505.71366 378.06623 513.64648 388.37891 C 513.64648 407.20228 522.53277 435.06519 540.30078 471.96289 L 458.94141 571.28906 C 422.25703 536.17046 394.87828 516.84649 376.80664 513.32031 C 342.69551 519.6666 320.4827 532.35964 310.16992 551.39844 C 280.02526 618.82743 255.03904 728.29944 235.20703 879.81641 C 228.06741 917.89405 213.58683 937.92516 191.77148 939.9082 C 169.95635 941.89145 132.87236 949.22927 80.515625 961.92187 C 39.264986 961.92187 39.264986 974.21878 80.515625 998.81055 L 298.27148 998.81055 C 307.79093 989.29123 309.37744 970.25152 303.03125 941.69336 C 296.68494 913.13517 304.61836 876.64452 326.83008 832.2207 C 348.34396 789.19331 359.43903 743.56097 360.11523 695.32422 L 358.95898 860.7793 C 339.92018 878.23153 328.01943 891.71699 323.25977 901.23633 C 312.9471 921.06836 315.52521 942.48695 330.99414 965.49219 C 346.46319 988.49743 366.49415 1000 391.08594 1000 C 418.05756 1000 471.40406 981.95176 551.12891 945.85742 C 630.85373 909.76304 689.36036 887.74921 726.64453 879.81641 C 756.78931 913.92751 747.2694 948.03908 698.08594 972.63086 C 665.56133 972.63086 665.56133 981.75447 698.08594 1000 L 733.7832 1000 C 760.75482 996.82683 774.63626 989.28979 775.42969 977.39062 C 784.15583 939.31302 796.05657 885.76769 811.12891 826.27148 C 811.12891 802.47298 799.62625 790.57422 776.62109 790.57422 C 794.86669 764.39592 797.64366 730.28225 784.95117 688.23828 C 765.21033 623.37282 764.51574 555.64961 771.48828 490.4082 C 813.64034 508.86782 852.91579 522.5703 892.70313 533.49609 C 910.61601 538.41506 930.55095 528.93945 926.7168 512.84766 C 913.80331 458.6505 889.9451 405.414 839.3457 310.88672 C 855.05439 299.29418 869.90646 284.95437 883.90234 267.86719 C 926.56007 215.78755 931.82719 149.8162 899.70313 69.953125 L 925.93164 79.958984 C 936.71331 66.795997 939.64787 55.334376 934.73438 45.572265 C 929.82063 35.810379 921.18234 30.887544 908.82031 30.802734 C 896.4584 30.71795 883.42814 38.452086 869.73047 54.007812 C 859.41762 66.598481 856.83753 75.003759 861.98828 79.222656 L 724.6582 246.88281 C 722.18147 246.81277 719.66981 246.77734 717.12305 246.77734 L 717.12305 202.75195 C 736.95506 205.92507 755.20225 198.38804 771.86133 180.14258 C 788.52007 161.89707 796.05711 129.76817 794.4707 83.757812 C 794.4707 49.646636 779.00059 26.048115 748.0625 12.958984 C 724.85904 3.1420975 700.20561 -1.0984266 674.10156 0.24023394 z M 680.68164 20.990234 C 693.87005 21.783517 708.4001 24.261034 724.26563 28.425781 C 755.99705 36.75523 771.86133 55.993928 771.86133 86.138671 C 767.89475 125.00953 758.57222 151.78329 743.89648 166.45898 C 729.22076 181.13471 716.72857 184.10888 706.41602 175.38281 C 694.51673 168.24326 697.09287 155.94831 714.14844 138.49609 C 746.97645 104.90468 731.70568 53.523851 671.9082 82.568359 C 661.59553 72.255732 638.59034 63.926348 602.89258 57.580078 C 610.0322 40.127843 624.11078 28.82431 645.13281 23.667968 C 655.64388 21.089797 667.49333 20.196929 680.68164 20.990234 z M 593.37305 74.240234 C 622.7244 76.62007 646.52198 84.55132 664.76758 98.037109 C 663.97427 109.14311 668.73411 109.5412 679.04688 99.228515 C 699.73705 78.538218 725.89979 88.342741 711.76953 118.26562 C 705.02673 132.54469 696.10392 144.4435 684.99805 153.96289 C 673.89196 163.48228 671.11315 173.00209 676.66602 182.52148 C 682.21901 192.04087 686.58454 199.97604 689.75781 206.32227 L 689.75781 246.77734 C 689.75781 256.24697 694.46653 264.73704 703.88672 272.24414 L 628.92383 363.76367 C 621.13589 361.46805 612.60887 359.39729 603.13086 357.56445 C 596.693 366.54311 600.24939 374.76355 613.80078 382.22656 L 558.63086 449.58203 C 542.12907 411.35245 533.87695 366.35917 533.87695 314.60352 C 533.87695 293.97821 551.72629 283.66602 587.42383 283.66602 C 624.70799 283.66602 642.55516 273.3519 640.96875 252.72656 C 639.38212 223.3751 626.29295 210.2878 601.70117 213.46094 C 577.1095 216.63404 566.79731 209.4932 570.76367 192.04102 C 585.83612 184.10818 591.18923 178.35883 586.82617 174.78906 C 582.46309 171.2193 574.73098 169.03744 563.625 168.24414 C 563.625 161.1046 558.46685 155.55038 548.1543 151.58398 C 558.46685 126.99224 568.78109 109.93736 579.09375 100.41797 C 588.61321 94.864961 598.92527 94.667893 610.03125 99.824218 C 621.13722 104.98057 632.24352 108.74712 643.34961 111.12695 L 643.34961 103.98828 C 636.21 103.19501 627.08644 99.623618 615.98047 93.277343 C 604.87449 86.931098 593.37184 86.138765 581.47266 90.898437 C 586.23232 83.758884 590.1999 78.206635 593.37305 74.240234 z M 868.07031 92.810546 L 875.79688 99.140625 L 882.64648 136.30664 C 892.40751 181.59597 884.51448 219.83689 858.9668 251.02734 C 849.06666 263.11415 836.90265 273.66912 822.47461 282.69336 C 803.43232 262.99314 776.28428 251.39784 741.0332 247.90625 L 868.07031 92.810546 z M 700.26953 94.085937 C 681.17949 93.177063 663.24998 122.87737 668.33789 131.35742 C 657.84314 137.35443 653.15595 147.94213 664.17383 152.17969 C 675.39149 156.49422 700.65826 129.30214 705.82031 115.29102 C 710.60777 102.29683 708.10395 94.458984 700.26953 94.085937 z M 597.51953 101.49609 C 592.5739 101.27298 588.01633 102.50039 583.85156 105.17773 L 574.33398 113.50781 L 574.33398 120.64648 L 579.09375 120.64648 C 592.57956 127.78603 607.65159 127.78603 624.31055 120.64648 L 640.96875 124.21484 L 640.96875 115.88672 L 625.50195 114.69727 C 615.09009 106.26863 605.76221 101.86794 597.51953 101.49609 z M 695.82617 103.99609 C 699.26928 103.99609 700.61486 105.62329 699.87109 109.3418 C 697.46268 121.38346 687.26825 135.28992 678.45117 138.49609 C 674.08799 140.08266 674.08799 138.09984 678.45117 132.54687 C 682.81424 126.99388 682.81424 125.00913 678.45117 126.5957 C 674.08822 128.18226 673.09673 126.39651 675.47656 121.24023 C 676.36127 119.32337 683.65816 103.99609 695.82617 103.99609 z M 593.37305 107.55859 C 590.1999 110.73174 590.1999 114.29922 593.37305 118.26562 C 589.4067 117.47234 585.83537 115.88769 582.66211 113.50781 C 584.24874 111.12796 587.82007 109.14515 593.37305 107.55859 z M 604.08203 109.9375 L 618.35938 118.26562 C 612.8065 119.0589 607.65237 119.45703 602.89258 119.45703 C 606.85916 117.07721 607.2553 113.90393 604.08203 109.9375 z M 668.33789 139.68555 C 672.30435 142.06535 672.89949 144.44439 670.12305 146.82422 C 667.34661 149.20406 665.36387 149.00697 664.17383 146.23047 C 662.98391 143.45402 664.37165 141.2721 668.33789 139.68555 z M 575.66406 148.42578 C 574.92669 148.4644 574.51913 150.32192 574.92773 152.77344 C 575.67513 157.2567 570.91529 159.41131 566.59961 153.36914 C 561.11272 145.68775 555.23767 150.27811 557.67578 155.1543 C 559.2623 153.56824 561.64152 154.55939 564.81445 158.12891 C 571.77913 165.96434 579.36743 158.63289 577.90234 152.77344 C 577.11189 149.61043 576.27503 148.39379 575.66406 148.42578 z M 559.59961 171.42187 C 562.53591 171.30688 564.62754 172.68961 575.52344 173.59766 C 580.28344 173.99428 582.26597 174.58951 581.47266 175.38281 L 558.86523 176.57227 C 554.33991 175.06383 556.05401 171.56091 559.59961 171.42187 z M 581.47266 178.95312 C 576.40674 182.21309 571.01461 185.59979 564.81445 186.0918 C 557.45601 186.0918 558.75572 182.57736 561.24609 181.33203 L 581.47266 178.95312 z M 715.96094 278.51758 C 726.04095 281.95005 739.91424 283.66602 757.58203 283.66602 C 776.93339 283.66602 786.60406 289.19776 786.59375 300.26172 C 771.68408 305.91933 755.18391 310.50139 737.09375 314.00781 L 714.77539 295.72656 L 652.19336 372.13086 C 649.07975 370.78302 645.84592 369.48645 642.46875 368.24023 L 715.96094 278.51758 z M 706.63867 324.92187 L 738.40234 350.9375 L 729.96484 361.24023 L 698.20117 335.22266 L 706.63867 324.92187 z M 807.84961 329.9043 L 792.0918 365.77148 C 814.21724 412.43697 824.24729 433.8464 853.62891 470.875 C 827.37648 457.10231 805.44796 445.32234 779.2793 433.99609 C 783.14869 410.61424 787.60933 387.7829 792.08984 365.77148 L 807.84961 329.9043 z M 772.45313 342.48242 C 763.46891 368.95124 756.66639 395.78301 751.68359 422.87695 C 739.24297 418.2192 725.57985 413.55256 710.07617 408.76562 C 709.99542 408.70429 709.91464 408.64329 709.83398 408.58203 L 762.21875 344.62695 C 765.66052 344.00912 769.07195 343.29464 772.45313 342.48242 z M 683.43555 353.25 L 715.19727 379.26758 L 706.75977 389.56836 L 674.99805 363.55273 L 683.43555 353.25 z M 599.49609 420.70508 C 598.69005 430.91676 602.69261 439.18545 611.48242 445.5918 C 615.6629 448.63868 619.94607 451.24086 624.42188 453.37891 C 620.21801 502.27007 610.43423 540.87532 595.07227 569.19531 C 591.67136 528.34719 583.3711 496.23577 570.16992 472.86328 C 568.33829 469.62039 566.57578 466.32139 564.88281 462.96484 L 599.49609 420.70508 z M 697.33984 454.55664 C 713.41429 463.00661 728.91756 470.75274 743.98828 477.87891 C 739.38409 524.60478 739.35958 571.8889 742.11328 619.22266 L 593.37305 689.43164 C 595.59862 663.53412 596.75387 639.54582 596.83789 617.4668 C 600.04256 614.13417 603.14876 610.62922 606.1582 606.95508 C 638.03429 568.03849 655.13152 523.2332 657.44922 472.53711 L 667.61523 460.125 C 676.52836 459.33954 686.34784 457.50194 697.33984 454.55664 z M 546.78711 485.05859 C 547.23871 485.94703 547.69346 486.8385 548.1543 487.73633 C 563.02479 516.70834 570.60401 554.5468 570.89063 601.25195 C 555.78445 615.46067 537.18954 624.83472 515.10352 629.37305 C 498.28798 610.93171 482.76047 594.67731 468.52148 580.60937 L 546.78711 485.05859 z M 382.75586 547.82812 C 399.09028 555.47403 419.07792 569.89669 442.7207 591.09375 L 419.00391 620.04883 C 411.50937 618.69147 403.54326 623.16337 395.10547 633.46484 C 389.4706 640.86832 385.35401 647.83069 382.75586 654.34961 L 382.75586 547.82812 z M 452.55273 600.10352 C 462.84814 609.73102 473.78165 620.5409 485.35352 632.53516 C 482.3608 632.59105 479.3191 632.57655 476.22656 632.49414 L 440.54688 630.52344 L 433.52344 623.33594 L 452.55273 600.10352 z M 569.58789 640.17773 C 568.57897 654.69734 566.98738 669.9245 564.81445 685.85937 C 555.81726 675.3242 547.10449 665.26885 538.67383 655.69531 C 549.63623 651.67267 559.94059 646.50086 569.58789 640.17773 z M 745.68164 641.83203 C 757.58082 678.32304 763.53125 712.03852 763.53125 742.97656 C 763.53125 773.12126 754.01145 793.34948 734.97266 803.66211 C 715.93385 813.97483 681.02986 828.65066 630.25977 847.68945 C 554.8979 836.58349 484.29556 866.72769 418.45313 938.12305 C 424.006 897.66567 467.63567 828.65188 549.34375 731.07812 L 745.68164 641.83203 z M 416.64063 659.71094 C 452.70047 667.28609 484.99528 668.27662 513.52734 662.68359 C 525.66412 676.04784 538.39691 690.51553 551.72461 706.08789 C 498.57469 738.61246 442.25198 781.8478 382.75586 835.79102 L 382.75586 684.63477 C 386.19685 691.88174 391.94055 696.47923 399.98828 698.42773 C 410.76134 701.03609 421.30432 696.04379 431.61719 683.45312 L 416.64063 659.71094 z " />
</svg>
