<?xml version="1.0" encoding="UTF-8" standalone="no"?>
<svg
   width="2500"
   height="1000"
   version="1.1"
   id="svg1"
   sodipodi:docname="135DC.svg"
   inkscape:version="1.4.2 (f4327f4, 2025-05-13)"
   xmlns:inkscape="http://www.inkscape.org/namespaces/inkscape"
   xmlns:sodipodi="http://sodipodi.sourceforge.net/DTD/sodipodi-0.dtd"
   xmlns="http://www.w3.org/2000/svg"
   xmlns:svg="http://www.w3.org/2000/svg">
  <defs
     id="defs1" />
  <sodipodi:namedview
     id="namedview1"
     pagecolor="#ffffff"
     bordercolor="#666666"
     borderopacity="1.0"
     inkscape:showpageshadow="2"
     inkscape:pageopacity="0.0"
     inkscape:pagecheckerboard="0"
     inkscape:deskcolor="#d1d1d1"
     inkscape:zoom="0.125"
     inkscape:cx="2540"
     inkscape:cy="2460"
     inkscape:window-width="1680"
     inkscape:window-height="998"
     inkscape:window-x="-8"
     inkscape:window-y="-8"
     inkscape:window-maximized="1"
     inkscape:current-layer="svg1"
     showguides="true">
    <sodipodi:guide
       position="0,1000"
       orientation="0,-1"
       id="guide2"
       inkscape:locked="false" />
    <sodipodi:guide
       position="700,0"
       orientation="0,-1"
       id="guide1"
       inkscape:locked="false" />
    <sodipodi:guide
       position="710.46289,95.92969"
       orientation="0,-1"
       id="guide21"
       inkscape:locked="false" />
    <sodipodi:guide
       position="2500,1000"
       orientation="1,0"
       id="guide23"
       inkscape:locked="false" />
  </sodipodi:namedview>
  <path
     id="path18"
     style="fill:#000000;stroke:none;stroke-width:1"
     d="M 241.55078 0 C 233.198 0.09906 228.3739 3.0099356 227.07617 8.7285156 C 225.77845 14.447104 227.73041 19.681537 232.92773 24.439453 C 264.67071 59.135339 264.78222 89.27725 262.19531 114.94531 C 252.31117 107.83314 246.15049 96.579377 243.71875 81.185547 C 241.28712 65.791697 235.75093 59.430516 227.10742 62.103516 C 228.06383 102.09479 239.02099 132.0088 259.98047 151.8418 C 263.34825 213.17683 241.02545 285.05133 268.48242 380.49219 C 357.02607 389.96866 425.87321 392.32807 507.52148 395.15039 C 505.38098 480.66935 540.06486 594.75211 563.53516 675.9043 C 485.09296 748.80942 432.49122 815.25696 405.72852 875.24219 C 359.39692 979.08893 448.93879 1000.2045 469.80469 999.99219 C 486.55029 999.82184 506.12318 996.70473 527.73828 992.62305 L 768.375 948.86914 C 783.37059 962.35341 798.92623 975.13022 815.07031 987.07812 C 829.98268 998.11446 836.35648 1000 856.30078 1000 C 870.54234 1000 888.18035 995.04478 911.21875 986.42969 C 928.30331 996.82122 947.30358 1000.0758 955.55859 999.99219 C 976.50189 999.99219 1055.7415 989.2845 1097.748 971.9707 C 1139.7452 954.6363 1166.7165 932.59751 1232.7891 914.03711 C 1277.4762 901.48402 1307.5338 910.19737 1329.8027 944.32617 C 1352.3448 984.67637 1371.6136 1003.0881 1387.6074 999.55859 C 1397.0907 995.48299 1399.8568 984.83986 1395.9062 967.63086 C 1391.9555 950.42176 1384.075 933.62313 1372.2637 917.23633 C 1360.4521 900.84954 1354.534 883.16993 1354.5117 864.19531 C 1354.4917 845.22 1348.9161 837.58307 1337.7871 825.9375 C 1326.6598 814.29625 1308.5709 808.60978 1283.5156 824.22852 C 1258.459 839.84311 1221.9233 851.60735 1176.0449 854.29688 C 1130.1664 856.9864 1066.103 873.84534 1010.5098 904.07031 C 1039.9276 868.96885 1179.1097 823.89097 1222.9395 759.6582 C 1251.718 717.48309 1232.7568 660.87613 1195 628.36328 C 1179.3445 562.24893 1187.0773 468.30595 1233.4023 415.66406 C 1256.7103 466.15863 1278.0417 492.84098 1306.4434 536.54688 C 1297.6604 580.75112 1314.9348 615.37854 1297.4395 667.69922 C 1276.4306 684.13186 1263.9757 711.22643 1260.0703 748.98047 C 1268.01 752.16092 1273.6479 746.75054 1276.9844 732.74609 C 1280.3209 718.74164 1287.0185 708.37668 1297.082 701.65039 C 1297.5495 724.17557 1296.6333 752.83023 1263.834 785.37695 C 1254.6663 794.47407 1253.2759 807.34036 1270.1191 809.14258 C 1295.6385 789.91573 1328.7213 760.40434 1327.6035 680.35352 C 1341.9492 634.57398 1353.236 590.47082 1363.2246 528.93164 C 1358.8142 503.62566 1316.669 439.96828 1285.9512 365.14258 C 1280.2621 351.28449 1275.1444 340.02547 1264.1973 332.64648 L 1378.1387 332.64648 C 1378.0703 391.91847 1367.5404 470.05473 1397.6484 544.26562 C 1479.1731 499.30973 1509.2119 469.34889 1598.082 411.15039 C 1596.8905 458.7559 1606.4886 510.25438 1619.2832 560.55859 C 1618.1448 560.90185 1617.001 561.25862 1615.8496 561.62695 C 1615.9969 566.006 1617.9839 568.90742 1621.8125 570.33398 C 1623.3656 576.24216 1624.9565 582.13079 1626.5723 587.98828 C 1614.5981 587.9118 1600.8067 585.5308 1584.5977 579.38086 C 1571.7814 573.43569 1560.4832 577.78511 1565.707 594.42969 C 1582.3963 603.85406 1603.6279 614.30937 1633.8457 613.68555 C 1640.0503 635.15126 1646.3494 656.03547 1652.0957 675.9043 C 1573.6535 748.80942 1521.0518 815.25696 1494.2891 875.24219 C 1447.9575 979.08893 1537.4974 1000.2045 1558.3633 999.99219 C 1575.1089 999.82184 1594.6837 996.70473 1616.2988 992.62305 L 1856.9336 948.86914 C 1871.9292 962.35342 1887.4868 975.13021 1903.6309 987.07812 C 1918.5433 998.11446 1924.917 1000 1944.8613 1000 C 1965.8046 1000 1994.0931 989.28449 2036.0996 971.9707 C 2078.0968 954.63627 2105.068 932.59756 2171.1406 914.03711 C 2215.8277 901.48404 2245.8854 910.19738 2268.1543 944.32617 C 2290.6964 984.67634 2309.9652 1003.0881 2325.959 999.55859 C 2335.4423 995.48303 2338.2083 984.83981 2334.2578 967.63086 C 2330.3071 950.4217 2322.4265 933.62314 2310.6152 917.23633 C 2298.8036 900.84955 2292.8856 883.16993 2292.8633 864.19531 C 2292.8433 845.22 2287.2677 837.58307 2276.1387 825.9375 C 2265.0114 814.29625 2246.9225 808.60978 2221.8672 824.22852 C 2196.8106 839.84311 2160.2749 851.60735 2114.3965 854.29688 C 2068.518 856.9864 2004.4545 873.84533 1948.8613 904.07031 C 1904.3343 857.41378 1839.8655 779.15266 1845.2129 726.01172 C 1852.832 687.76791 1834.9393 638.121 1800.3047 625.36328 C 1797.6731 614.24976 1795.6306 602.43555 1794.2754 590.21875 C 1837.4269 586.04219 1867.9537 578.79659 1907.9824 561.87695 C 1909.5459 536.23714 1909.4737 466.96828 1892.2559 386.14258 C 1887.682 364.67094 1873.3097 330.10612 1847.2812 324.99414 C 1832.5157 319.9184 1812.9029 317.37891 1788.4473 317.37891 C 1763.9918 317.37891 1752.2256 299.84363 1753.1484 264.77539 C 1768.8368 258.31542 1784.2944 246.3193 1799.5215 228.78516 C 1814.7485 211.25101 1822.3633 186.79682 1822.3633 155.41992 C 1822.3633 124.04305 1808.2896 103.27831 1780.1426 93.126953 C 1751.9957 82.975587 1721.3104 80.208013 1688.0879 84.822266 C 1654.8652 89.436517 1630.8691 114.81261 1616.1035 160.95508 C 1607.7978 172.0293 1598.1094 186.335 1587.0352 203.86914 C 1581.4982 216.78904 1581.4982 223.93799 1587.0352 225.32227 C 1592.5723 226.70652 1597.1875 228.78612 1600.8789 231.55469 C 1589.58 238.33399 1595.8619 242.75747 1600.8789 244.01172 C 1601.1848 244.82604 1601.021 245.25638 1599.4961 246.78125 C 1596.7275 249.5498 1597.1875 251.8555 1600.8789 253.70117 C 1604.5703 255.54688 1606.418 262.70167 1606.418 275.16016 C 1606.418 287.61862 1610.1074 294.30762 1617.4902 295.23047 C 1624.873 296.15332 1635.9472 296.15332 1650.7129 295.23047 C 1656.2922 298.02011 1659.0027 302.15865 1658.8477 307.64648 L 1412.7656 307.64648 C 1410.6751 299.06044 1408.468 289.94117 1406.0762 279.76367 C 1407.454 196.47702 1368.3399 163.62974 1341.3848 144.4707 C 1333.0887 145.44711 1328.5977 148.84858 1327.9082 154.67188 C 1327.2187 160.49518 1329.7084 165.49828 1335.377 169.68359 C 1370.5908 200.85104 1373.8709 230.81354 1373.9961 256.61133 C 1363.4192 250.57741 1356.1104 240.0315 1352.0742 224.97852 C 1348.0381 209.9255 1341.8635 204.1814 1333.5488 207.74805 C 1338.7031 247.4173 1352.744 276.01491 1375.6719 293.53516 C 1376.3993 298.03839 1376.9346 302.74833 1377.3164 307.64648 L 1161.127 307.64648 C 1153.4112 299.05031 1149.8179 284.7598 1150.3438 264.77539 C 1166.0322 258.31542 1181.4897 246.3193 1196.7168 228.78516 C 1211.9438 211.25101 1219.5586 186.79682 1219.5586 155.41992 C 1219.5586 124.04305 1205.4849 103.27831 1177.3379 93.126953 C 1156.2277 85.513429 1133.6899 82.053681 1109.7246 82.746094 C 1101.7362 82.976898 1093.5888 83.668702 1085.2832 84.822266 C 1052.0605 89.436517 1028.0644 114.81261 1013.2988 160.95508 C 1004.9931 172.0293 995.30467 186.335 984.23047 203.86914 C 978.69347 216.78904 978.69347 223.93799 984.23047 225.32227 C 989.76757 226.70652 994.38282 228.78612 998.07422 231.55469 C 986.77532 238.33399 993.05722 242.75747 998.07422 244.01172 C 998.38012 244.82604 998.21631 245.25638 996.69141 246.78125 C 993.92281 249.5498 994.38282 251.8555 998.07422 253.70117 C 1001.7656 255.54688 1003.6133 262.70167 1003.6133 275.16016 C 1003.6133 287.61862 1007.3027 294.30762 1014.6855 295.23047 C 1022.0683 296.15332 1033.1425 296.15332 1047.9082 295.23047 C 1052.3195 297.4361 1055.0523 302.0844 1055.998 307.64648 L 675 307.64648 C 667.43231 299.09096 664.06787 284.53733 664.58789 264.77539 C 680.27629 258.31542 695.73384 246.3193 710.96094 228.78516 C 726.18794 211.25101 733.80273 186.79682 733.80273 155.41992 C 733.80273 124.04305 719.72903 103.27831 691.58203 93.126953 C 663.43513 82.975587 632.74984 80.208013 599.52734 84.822266 C 566.30464 89.436517 542.30857 114.81261 527.54297 160.95508 C 519.23727 172.0293 509.54881 186.335 498.47461 203.86914 C 492.93761 216.78904 492.93761 223.93799 498.47461 225.32227 C 504.01171 226.70652 508.62696 228.78612 512.31836 231.55469 C 501.01946 238.33399 507.30136 242.75747 512.31836 244.01172 C 512.62426 244.82604 512.46045 245.25638 510.93555 246.78125 C 508.16695 249.5498 508.62696 251.8555 512.31836 253.70117 C 516.00976 255.54688 517.85742 262.70167 517.85742 275.16016 C 517.85742 287.61862 521.54689 294.30762 528.92969 295.23047 C 536.31249 296.15332 547.38664 296.15332 562.15234 295.23047 C 571.38084 299.84471 572.76469 308.14945 566.30469 320.14648 C 528.46789 319.22367 499.95769 325.1685 480.55664 329.2207 C 448.23084 327.05342 400.9864 322.06324 357.09766 320.27344 C 371.30218 245.16257 376.74701 205.78255 383.78711 150.18359 C 414.16658 72.622964 388.98811 28.185154 370.42188 0.81835938 C 362.30719 -1.1641894 356.91038 0.45414492 354.23047 5.6699219 C 351.55057 10.885709 352.13645 16.442201 355.98633 22.34375 C 378.09717 63.847151 370.70524 93.068215 361.8125 117.28516 C 354.00905 107.93715 350.84303 95.504962 352.31836 79.990234 C 353.79379 64.475514 350.0153 56.936917 340.97852 57.375 C 331.95348 96.346339 335.12134 128.04602 350.48633 152.4707 C 341.74 196.37755 318.38414 242.31099 307.46094 302.42578 C 302.78489 232.77173 298.35792 194.38695 291.66406 141.3418 C 301.78788 58.661254 266.34292 21.885981 241.55078 0 z M 618.58789 98.796875 C 622.26379 98.720965 625.95501 98.801775 629.63281 99.009766 C 641.86061 99.701898 655.35745 101.89454 670.12305 105.58594 C 699.65425 112.96871 714.42188 130.50198 714.42188 158.1875 C 714.42188 184.95014 704.73136 207.79056 685.35156 226.70898 C 665.97166 245.6274 653.05365 250.47266 646.59375 241.24414 C 641.05665 233.86137 646.36192 222.09518 662.51172 205.94531 C 693.34672 175.11036 679.57538 127.46837 621.67578 155.41992 C 612.44728 145.2686 590.76073 137.88377 556.61523 133.26953 C 568.05693 107.52593 592.85679 99.328227 618.58789 98.796875 z M 1104.3438 98.796875 C 1108.0196 98.720965 1111.7109 98.801775 1115.3887 99.009766 C 1127.6165 99.701898 1141.1133 101.89454 1155.8789 105.58594 C 1185.4101 112.96871 1200.1777 130.50198 1200.1777 158.1875 C 1200.1777 184.95014 1190.4872 207.79056 1171.1074 226.70898 C 1151.7275 245.6274 1138.8095 250.47266 1132.3496 241.24414 C 1126.8125 233.86137 1132.1178 222.09518 1148.2676 205.94531 C 1179.1026 175.11036 1165.3312 127.46837 1107.4316 155.41992 C 1098.2031 145.2686 1076.5166 137.88377 1042.3711 133.26953 C 1053.8128 107.52593 1078.6127 99.328227 1104.3438 98.796875 z M 1707.1484 98.796875 C 1710.8243 98.720965 1714.5156 98.801775 1718.1934 99.009766 C 1730.4212 99.701898 1743.918 101.89454 1758.6836 105.58594 C 1788.2148 112.96871 1802.9824 130.50198 1802.9824 158.1875 C 1802.9824 184.95014 1793.2919 207.79056 1773.9121 226.70898 C 1754.5322 245.6274 1741.6142 250.47266 1735.1543 241.24414 C 1729.6172 233.86137 1734.9225 222.09518 1751.0723 205.94531 C 1781.9073 175.11036 1768.1359 127.46837 1710.2363 155.41992 C 1701.0078 145.2686 1679.3213 137.88377 1645.1758 133.26953 C 1656.6175 107.52593 1681.4173 99.328227 1707.1484 98.796875 z M 549.69336 147.11133 C 576.45606 149.87987 598.14065 156.80083 614.75195 167.875 C 614.75195 178.94922 619.3672 179.64111 628.5957 169.95117 C 647.225 150.39039 672.56913 160.2154 659.04883 187.25586 C 652.58893 200.17576 644.28411 210.79005 634.13281 219.0957 C 623.98151 227.40134 621.67579 235.93799 627.21289 244.70508 C 632.74999 253.47216 636.44141 261.54494 638.28711 268.92773 C 639.20279 284.18876 641.69641 297.10053 645.71484 307.64648 L 589.66016 307.64648 C 586.71052 285.25341 576.6176 274.88557 559.38086 276.54297 C 535.38676 278.85008 525.23829 271.23531 528.92969 253.70117 C 541.84959 246.31839 546.46484 241.01316 542.77344 237.7832 C 539.08204 234.55326 531.69725 232.47755 520.62305 231.55469 C 521.54585 226.94044 516.93255 221.86327 506.78125 216.32617 C 516.00975 194.17778 525.70016 178.95213 535.85156 170.64648 C 545.07996 166.03223 554.76862 166.03223 564.91992 170.64648 C 575.07132 175.26073 585.2237 178.49023 595.375 180.33594 L 595.375 173.41406 C 588.915 173.41406 580.61038 170.41455 570.45898 164.41602 C 560.30768 158.41747 550.15531 157.72559 540.00391 162.33984 C 542.77251 155.87992 546.00196 150.80272 549.69336 147.11133 z M 1035.4492 147.11133 C 1062.2119 149.87987 1083.8965 156.80083 1100.5078 167.875 C 1100.5078 178.94922 1105.1231 179.64111 1114.3516 169.95117 C 1132.9809 150.39039 1158.325 160.2154 1144.8047 187.25586 C 1138.3448 200.17576 1130.04 210.79005 1119.8887 219.0957 C 1109.7374 227.40134 1107.4316 235.93799 1112.9688 244.70508 C 1118.5059 253.47216 1122.1973 261.54494 1124.043 268.92773 C 1124.9527 284.08887 1127.3518 297.05429 1131.2773 307.64648 L 1075.416 307.64648 C 1072.4664 285.25341 1062.3735 274.88557 1045.1367 276.54297 C 1021.1426 278.85008 1010.9941 271.23531 1014.6855 253.70117 C 1027.6054 246.31839 1032.2207 241.01316 1028.5293 237.7832 C 1024.8379 234.55326 1017.4531 232.47755 1006.3789 231.55469 C 1007.3017 226.94044 1002.6884 221.86327 992.53711 216.32617 C 1001.7656 194.17778 1011.456 178.95213 1021.6074 170.64648 C 1030.8358 166.03223 1040.5245 166.03223 1050.6758 170.64648 C 1060.8272 175.26073 1070.9796 178.49023 1081.1309 180.33594 L 1081.1309 173.41406 C 1074.6709 173.41406 1066.3662 170.41455 1056.2148 164.41602 C 1046.0635 158.41747 1035.9112 157.72559 1025.7598 162.33984 C 1028.5284 155.87992 1031.7578 150.80272 1035.4492 147.11133 z M 1638.2539 147.11133 C 1665.0166 149.87987 1686.7012 156.80083 1703.3125 167.875 C 1703.3125 178.94922 1707.9277 179.64111 1717.1562 169.95117 C 1735.7856 150.39039 1761.1297 160.2154 1747.6094 187.25586 C 1741.1495 200.17576 1732.8447 210.79005 1722.6934 219.0957 C 1712.5421 227.40134 1710.2363 235.93799 1715.7734 244.70508 C 1721.3105 253.47216 1725.002 261.54494 1726.8477 268.92773 C 1727.7573 284.08887 1730.1565 297.05429 1734.082 307.64648 L 1678.2207 307.64648 C 1675.2711 285.25341 1665.1781 274.88557 1647.9414 276.54297 C 1623.9473 278.85008 1613.7988 271.23531 1617.4902 253.70117 C 1630.4101 246.31839 1635.0254 241.01316 1631.334 237.7832 C 1627.6426 234.55326 1620.2578 232.47755 1609.1836 231.55469 C 1610.1064 226.94044 1605.4931 221.86327 1595.3418 216.32617 C 1604.5703 194.17778 1614.2607 178.95213 1624.4121 170.64648 C 1633.6405 166.03223 1643.3292 166.03223 1653.4805 170.64648 C 1663.6319 175.26073 1673.7842 178.49023 1683.9355 180.33594 L 1683.9355 173.41406 C 1677.4755 173.41406 1669.1709 170.41455 1659.0195 164.41602 C 1648.8682 158.41747 1638.7159 157.72559 1628.5645 162.33984 C 1631.3331 155.87992 1634.5625 150.80272 1638.2539 147.11133 z M 646.46289 165.24023 C 626.46129 165.64881 613.96836 193.38835 618.91016 198.33008 C 608.18266 203.69379 604.78197 213.55442 615.44727 218.40234 C 626.93007 223.62167 648.91632 196.66797 653.51172 185.17969 C 655.28632 180.74318 660.62089 164.95126 646.46289 165.24023 z M 1132.2168 165.24023 C 1112.2152 165.64881 1099.7223 193.38835 1104.6641 198.33008 C 1093.9366 203.69379 1090.5378 213.55442 1101.2031 218.40234 C 1112.6859 223.62167 1134.6722 196.66797 1139.2676 185.17969 C 1141.0422 180.74318 1146.3748 164.95126 1132.2168 165.24023 z M 1735.0215 165.24023 C 1715.0199 165.64881 1702.5269 193.38835 1707.4688 198.33008 C 1696.7413 203.69379 1693.3406 213.55442 1704.0059 218.40234 C 1715.4887 223.62167 1737.4769 196.66797 1742.0723 185.17969 C 1743.8469 180.74318 1749.1795 164.95126 1735.0215 165.24023 z M 553.60156 171.45703 C 549.15296 171.22882 544.55731 172.14272 540.00391 174.79883 L 530.3125 183.10352 L 530.3125 190.02734 L 535.85156 190.02734 C 548.77146 195.56443 562.61526 195.56443 577.38086 190.02734 L 592.60742 192.79492 L 592.60742 184.48828 L 578.76172 183.10352 C 572.45682 177.98075 563.38846 171.95908 553.60156 171.45703 z M 1039.3574 171.45703 C 1034.9088 171.22882 1030.3132 172.14272 1025.7598 174.79883 L 1016.0684 183.10352 L 1016.0684 190.02734 L 1021.6074 190.02734 C 1034.5273 195.56443 1048.3692 195.56443 1063.1348 190.02734 L 1078.3613 192.79492 L 1078.3613 184.48828 L 1064.5176 183.10352 C 1058.2127 177.98075 1049.1443 171.95908 1039.3574 171.45703 z M 1642.1602 171.45703 C 1637.7116 171.22882 1633.1159 172.14272 1628.5625 174.79883 L 1618.873 183.10352 L 1618.873 190.02734 L 1624.4121 190.02734 C 1637.332 195.56443 1651.1739 195.56443 1665.9395 190.02734 L 1681.166 192.79492 L 1681.166 184.48828 L 1667.3223 183.10352 C 1661.0174 177.98075 1651.9471 171.95908 1642.1602 171.45703 z M 644.84375 173.9707 C 651.49885 174.092 646.87658 186.91239 640.36328 194.87305 C 636.21048 199.94873 632.2871 203.40622 628.5957 205.25195 C 624.9043 207.09763 624.9043 205.48193 628.5957 200.40625 C 632.2871 195.3306 632.2871 193.48878 628.5957 194.87305 C 624.9043 196.25733 623.98448 194.64157 625.83008 190.02734 C 627.83778 185.00816 635.45015 173.79952 644.84375 173.9707 z M 1130.5996 173.9707 C 1137.2547 174.092 1132.6324 186.91239 1126.1191 194.87305 C 1121.9663 199.94873 1118.041 203.40622 1114.3496 205.25195 C 1110.6582 207.09763 1110.6582 205.48193 1114.3496 200.40625 C 1118.041 195.3306 1118.041 193.48878 1114.3496 194.87305 C 1110.6582 196.25733 1109.7384 194.64157 1111.584 190.02734 C 1113.5917 185.00816 1121.206 173.79952 1130.5996 173.9707 z M 1733.4043 173.9707 C 1740.0594 174.092 1735.4371 186.91239 1728.9238 194.87305 C 1724.771 199.94873 1720.8457 203.40622 1717.1543 205.25195 C 1713.4629 207.09763 1713.4629 205.48193 1717.1543 200.40625 C 1720.8457 195.3306 1720.8457 193.48878 1717.1543 194.87305 C 1713.4629 196.25733 1712.5431 194.64157 1714.3887 190.02734 C 1716.3964 185.00816 1724.0107 173.79952 1733.4043 173.9707 z M 548.30859 177.56641 C 545.53999 180.33495 545.53999 183.56442 548.30859 187.25586 C 543.69429 185.41015 540.92681 184.02637 540.00391 183.10352 C 540.92681 181.25783 543.69429 179.41212 548.30859 177.56641 z M 1034.0625 177.56641 C 1031.2939 180.33495 1031.2939 183.56442 1034.0625 187.25586 C 1029.4482 185.41015 1026.6827 184.02637 1025.7598 183.10352 C 1026.6827 181.25783 1029.4482 179.41212 1034.0625 177.56641 z M 1636.8672 177.56641 C 1634.0986 180.33495 1634.0986 183.56442 1636.8672 187.25586 C 1632.2529 185.41015 1629.4854 184.02637 1628.5625 183.10352 C 1629.4854 181.25783 1632.2529 179.41212 1636.8672 177.56641 z M 560.76758 178.95312 L 571.8418 185.875 C 567.2275 186.79786 562.6142 187.25586 558 187.25586 C 561.6914 185.41015 562.61318 182.6445 560.76758 178.95312 z M 1046.5234 178.95312 L 1057.5977 185.875 C 1052.9834 186.79786 1048.3701 187.25586 1043.7559 187.25586 C 1047.4473 185.41015 1048.369 182.6445 1046.5234 178.95312 z M 1649.3281 178.95312 L 1660.4023 185.875 C 1655.788 186.79786 1651.1747 187.25586 1646.5605 187.25586 C 1650.2519 185.41015 1651.1737 182.6445 1649.3281 178.95312 z M 618.91016 206.63867 C 622.60156 209.4072 623.05952 211.71286 620.29102 213.55859 C 617.52242 215.40426 615.67681 215.17434 614.75391 212.86719 C 613.83111 210.56008 615.21876 208.48435 618.91016 206.63867 z M 1104.6641 206.63867 C 1108.3555 209.4072 1108.8154 211.71286 1106.0469 213.55859 C 1103.2783 215.40426 1101.4307 215.17434 1100.5078 212.86719 C 1099.585 210.56008 1100.9727 208.48435 1104.6641 206.63867 z M 1707.4688 206.63867 C 1711.1601 209.4072 1711.6201 211.71286 1708.8516 213.55859 C 1706.083 215.40426 1704.2354 215.17434 1703.3125 212.86719 C 1702.3897 210.56008 1703.7774 208.48435 1707.4688 206.63867 z M 518.86719 236.24805 C 520.23699 236.20425 528.85813 237.21003 533.11133 238.06055 C 534.94013 238.42628 538.59339 238.93532 538.61719 239.85938 L 516.4707 239.85938 C 513.6503 239.85938 513.85679 236.40899 518.86719 236.24805 z M 1004.623 236.24805 C 1005.9928 236.20425 1014.614 237.21003 1018.8672 238.06055 C 1020.696 238.42628 1024.3492 238.93531 1024.373 239.85938 L 1002.2266 239.85938 C 999.40616 239.85938 999.61265 236.40899 1004.623 236.24805 z M 1607.4277 236.24805 C 1608.7975 236.20425 1617.4187 237.21003 1621.6719 238.06055 C 1623.5007 238.42628 1627.1539 238.93532 1627.1777 239.85938 L 1605.0312 239.85938 C 1602.2108 239.85938 1602.4173 236.40899 1607.4277 236.24805 z M 537.23633 241.24414 C 534.01473 246.5542 527.46317 246.9416 522.00977 248.16406 C 518.21487 249.2268 515.25328 247.99674 519.23828 244.01172 L 537.23633 241.24414 z M 1022.9922 241.24414 C 1019.7706 246.5542 1013.219 246.9416 1007.7656 248.16406 C 1003.9707 249.2268 1001.0091 247.99674 1004.9941 244.01172 L 1022.9922 241.24414 z M 1625.7969 241.24414 C 1622.5753 246.5542 1616.0237 246.9416 1610.5703 248.16406 C 1606.7754 249.2268 1603.8138 247.99674 1607.7988 244.01172 L 1625.7969 241.24414 z M 590.30859 332.64648 L 662.875 332.64648 C 664.6004 334.02471 666.41225 335.26144 668.31055 336.35742 C 686.31877 346.75447 696.223 380.75704 687.71875 403.39453 C 667.23502 457.92021 653.61755 555.68048 687.56055 640.57227 C 710.67305 650.84652 737.90924 674.34192 732.80664 706.30469 C 727.10434 734.11271 732.62229 764.94094 747.55859 792.26562 C 770.08779 828.47357 792.97919 868.63932 828.41016 904.07031 C 851.97366 927.63385 863.72863 950.80847 851.36133 963.17578 C 840.58033 973.95681 813.00146 952.64213 800.03516 942.49219 C 701.38396 865.45333 644.10693 766.87065 589.42383 655.03125 L 589.39453 655.05469 C 550.6941 517.24437 545.90214 489.8326 543.01758 417.45703 C 541.48088 378.90195 546.08394 345.78361 589.83594 339.52734 C 590.03258 337.1676 590.19052 334.87397 590.30859 332.64648 z M 706.7207 332.64648 L 1037.9023 332.64648 C 999.57712 351.90354 997.88681 398.41085 1003.7617 442.19141 C 1015.1391 526.97719 1027.942 592.63079 1049.291 675.9043 C 970.84882 748.80942 918.24707 815.25696 891.48438 875.24219 C 888.91978 880.99041 886.77057 886.48466 885.00391 891.73633 C 876.64506 895.56337 868.38349 899.67591 860.30078 904.07031 C 815.77381 857.41378 751.30494 779.15266 756.65234 726.01172 C 764.27144 687.76791 746.37874 638.121 711.74414 625.36328 C 696.08864 559.24893 685.77631 493.70467 716.0332 419.33594 C 726.48752 393.64017 722.63816 355.8192 706.7207 332.64648 z M 1076.0625 332.64648 L 1148.3242 332.64648 C 1155.522 338.22453 1164.3221 341.18242 1174.7598 341.33594 C 1179.79 341.40994 1184.5973 341.52331 1189.1758 341.73633 C 1207.9374 342.6092 1223.4842 375.5399 1201.7578 403.74805 C 1169.8645 445.15615 1139.3734 555.68048 1173.3164 640.57227 C 1219.9538 679.86114 1215.6853 727.22023 1204.7598 742.75 C 1160.5119 805.64497 1040.0732 838.77429 1008.4062 868.81836 C 974.05136 901.41264 944.00186 973.42279 917.03516 950.21094 C 900.88536 934.06107 907.86677 908.23379 932.32227 860.70703 C 956.77787 813.18023 1010.4718 752.51161 1083.377 684.2207 C 1051.9492 550.40739 1042.6991 523.79865 1033.9648 440.92773 C 1028.5704 389.74537 1034.5627 357.36137 1075.5918 339.52734 C 1075.7884 337.1676 1075.9444 334.87397 1076.0625 332.64648 z M 1418.8359 332.64648 L 1568.3809 332.64648 C 1546.6821 344.95631 1478.6439 402.44852 1440.4688 440.07422 C 1431.8146 389.14041 1425.6082 360.91306 1418.8359 332.64648 z M 1678.8672 332.64648 L 1751.1289 332.64648 C 1758.3267 338.22453 1767.1268 341.18242 1777.5645 341.33594 C 1782.5947 341.40994 1787.402 341.52331 1791.9805 341.73633 C 1810.7421 342.6092 1826.2889 375.5399 1804.5625 403.74805 C 1783.7249 430.80216 1763.4849 487.35979 1761.4238 546.99609 C 1746.8884 553.4849 1729.4743 559.78748 1703.7715 563.33594 C 1688.7366 555.2005 1671.074 552.11985 1650.7852 554.08984 C 1636.4659 495.92779 1633.5685 467.39592 1631.5781 417.45703 C 1630.0414 378.90195 1634.6445 345.78361 1678.3965 339.52734 C 1678.5931 337.1676 1678.7491 334.87397 1678.8672 332.64648 z M 1836.207 415.66406 L 1847.1348 525.37109 C 1823.2325 523.59977 1807.4274 527.0107 1793.209 532.51367 C 1796.5079 488.90091 1809.5591 445.9457 1836.207 415.66406 z M 1654.7539 569.83594 C 1661.4536 570.66976 1667.5643 572.85816 1673.0879 576.40234 C 1668.442 578.55541 1663.486 580.73605 1658.084 582.61523 C 1656.9206 578.20429 1655.8115 573.94893 1654.7539 569.83594 z M 1763.6602 592.60352 C 1765.9578 609.05739 1769.9879 625.23318 1776.1211 640.57227 C 1799.2336 650.84652 1826.4698 674.34192 1821.3672 706.30469 C 1815.6649 734.11271 1821.1828 764.94093 1836.1191 792.26562 C 1858.6483 828.47357 1881.5377 868.63932 1916.9688 904.07031 C 1940.5322 927.63385 1952.2892 950.80847 1939.9219 963.17578 C 1929.1409 973.95681 1901.562 952.64213 1888.5957 942.49219 C 1789.9445 865.45333 1732.6655 766.87065 1677.9824 655.03125 L 1677.9551 655.05273 C 1673.2499 638.29767 1669.0454 623.17282 1665.2852 609.40234 C 1677.1434 606.52243 1690.108 602.05543 1704.334 595.58008 C 1726.8554 594.59717 1746.3192 593.69862 1763.6602 592.60352 z M 578.35938 702.51953 C 594.67211 731.14453 612.10761 759.56105 630.78516 787.23242 C 587.69095 806.67706 559.70758 835.28284 526.27539 868.04688 C 500.02279 893.77477 458.246 973.42279 431.2793 950.21094 C 415.1295 934.06107 422.11091 908.23379 446.56641 860.70703 C 468.81494 817.46943 515.26265 763.35491 578.35938 702.51953 z M 1666.9199 702.51953 C 1683.2327 731.14454 1700.6662 759.56104 1719.3438 787.23242 C 1676.2495 806.67706 1648.2682 835.28282 1614.8359 868.04688 C 1588.5833 893.77477 1546.8046 973.42279 1519.8379 950.21094 C 1503.6881 934.06107 1510.6715 908.23379 1535.127 860.70703 C 1557.3755 817.46941 1603.8232 763.35495 1666.9199 702.51953 z M 643.35547 805.46875 C 662.34895 832.44442 682.58121 858.57834 704.16602 883.35156 C 646.29466 874.70212 578.91935 884.15612 524.75391 904.07031 C 555.81268 867.0108 591.77349 826.48466 643.35547 805.46875 z M 1731.916 805.46875 C 1750.9095 832.44444 1771.1398 858.57833 1792.7246 883.35156 C 1734.8532 874.70207 1667.478 884.1561 1613.3125 904.07031 C 1644.3713 867.01078 1680.334 826.48465 1731.916 805.46875 z " />
</svg>
