<?xml version="1.0" encoding="UTF-8" standalone="no"?>
<svg
   width="1100"
   height="1000"
   version="1.1"
   id="svg1"
   sodipodi:docname="135D9.svg"
   inkscape:version="1.4.2 (f4327f4, 2025-05-13)"
   xmlns:inkscape="http://www.inkscape.org/namespaces/inkscape"
   xmlns:sodipodi="http://sodipodi.sourceforge.net/DTD/sodipodi-0.dtd"
   xmlns="http://www.w3.org/2000/svg"
   xmlns:svg="http://www.w3.org/2000/svg">
  <defs
     id="defs1" />
  <sodipodi:namedview
     id="namedview1"
     pagecolor="#ffffff"
     bordercolor="#666666"
     borderopacity="1.0"
     inkscape:showpageshadow="2"
     inkscape:pageopacity="0.0"
     inkscape:pagecheckerboard="0"
     inkscape:deskcolor="#d1d1d1"
     inkscape:zoom="0.53386565"
     inkscape:cx="553.51005"
     inkscape:cy="383.05518"
     inkscape:window-width="1680"
     inkscape:window-height="998"
     inkscape:window-x="-8"
     inkscape:window-y="-8"
     inkscape:window-maximized="1"
     inkscape:current-layer="svg1"
     showguides="true">
    <sodipodi:guide
       position="0,1000"
       orientation="0,-1"
       id="guide1"
       inkscape:locked="false" />
    <sodipodi:guide
       position="0,0"
       orientation="0,-1"
       id="guide17"
       inkscape:locked="false" />
    <sodipodi:guide
       position="857.64395,580.42508"
       orientation="0.39941097,-0.91677199"
       id="guide2"
       inkscape:locked="false" />
  </sodipodi:namedview>
  <path
     id="path9"
     style="fill:#000000;stroke:none;stroke-width:0.999997"
     inkscape:transform-center-x="143.54584"
     inkscape:transform-center-y="198.46689"
     d="M 733.60547 0 C 729.78282 0 716.96875 4.7580123 716.96875 9.2011719 C 716.96875 12.821867 722.67821 13.817185 726.17383 13.449219 C 731.03238 12.937782 730.77626 14.216561 725.40625 17.285156 C 720.03623 20.35373 718.11803 28.024488 719.65234 40.298828 C 721.18662 52.573148 725.78951 60.500062 733.46094 64.080078 C 731.59078 68.56433 729.85722 73.362753 728.25977 78.474609 C 721.65614 86.965015 714.10954 98.522213 705.61914 113.14453 C 700.90207 123.05 700.66501 128.59228 704.91016 129.77148 C 709.1553 130.95071 712.6954 132.71969 715.52539 135.07812 C 708.11793 139.31125 711.33293 143.45682 716.23242 144.27344 C 717.64725 143.80174 717.17664 144.74704 714.81836 147.10547 C 712.45967 149.46389 712.81306 151.46824 715.87891 153.11914 C 718.94496 154.77004 720.47656 159.84164 720.47656 168.33203 C 720.47656 176.35072 724.95781 180.35742 733.91992 180.35742 C 744.29708 180.35742 751.84379 179.88868 756.56055 178.94531 L 758.94727 197.43555 L 758.60352 197.375 C 748.50922 204.58681 725.30129 208.12146 701.51758 207.10938 C 689.35045 206.59161 674.69005 208.94457 654.33594 214.39844 C 598.79734 227.43194 549.67724 240.74864 519.54492 251.89062 C 504.53907 273.31433 485.89311 316.98599 463.60742 382.90625 C 449.49259 409.10461 439.26155 429.63881 432.91406 444.50586 C 426.56657 459.37291 425.88541 478.12336 430.86914 500.75781 C 436.7993 504.02202 441.3544 504.50125 444.53516 502.19727 C 447.71596 499.89346 448.55144 496.22282 447.04102 491.18359 C 445.43302 479.51138 446.14764 468.83123 449.18555 459.14258 C 452.22357 449.45398 459.30632 439.29438 470.43555 428.66602 C 472.48191 437.5959 470.92449 446.81934 465.76367 456.33398 C 460.60285 465.84862 461.25187 471.61722 467.71094 473.64258 C 485.10417 451.77339 492.90347 430.93561 491.10742 411.12695 C 489.31149 391.3183 498.56471 367.07192 518.86719 338.38867 C 539.16966 309.70546 546.08682 304.85005 550.65234 280.43359 C 611.9065 281.19882 645.84807 270.22999 695.13281 256.78516 C 716.2953 294.85837 725.85167 334.39319 730.87695 374.89453 C 718.84119 374.2091 705.44292 376.13761 690.68359 380.67969 C 690.21362 387.43256 695.35029 390.14168 706.0918 388.80664 C 716.54587 387.50725 725.49683 389.28567 732.94531 394.14062 C 732.9657 394.36119 732.98567 394.58212 733.00586 394.80273 C 719.28392 401.1101 707.42559 403.91637 697.42969 403.2207 C 687.30044 402.51564 677.09417 399.28566 666.8125 393.53125 C 662.67128 390.28696 658.94783 389.72423 655.64258 391.8457 C 652.33721 393.96701 651.12353 398.3835 652 405.0957 C 663.55378 412.83273 674.55018 418.16251 684.98828 421.08203 C 651.22709 518.20079 555.23454 579.36966 438.96875 590.16406 C 434.35824 573.69213 430.31462 560.07098 426.8418 549.30078 C 420.75958 530.45069 412.0349 517.11982 405.69922 505.91406 L 364.02734 432.21094 C 343.37339 395.6808 328.93675 378.26953 296.79297 378.26953 C 280.63636 378.26953 274.12107 367.06377 277.24805 344.65234 C 286.62941 341.00363 295.8806 333.83676 305.00195 323.15234 C 314.12286 312.46751 318.68164 297.2233 318.68164 277.41797 C 318.68164 258.65482 310.21223 246.14502 293.27344 239.89062 C 276.33422 233.6354 258.09373 231.94291 238.54883 234.80859 C 219.00351 237.67513 204.79992 253.18167 195.93945 281.32617 C 190.72767 287.58056 184.99462 296.43968 178.74023 307.90625 C 175.61326 315.20283 175.61326 319.37513 178.74023 320.41602 C 181.86592 321.45693 184.21385 322.75877 185.77734 324.32227 C 181.67264 327.39952 181.90146 331.36133 187.33984 331.36133 C 188.38073 331.36133 187.99081 332.27288 186.16602 334.09766 C 184.33696 335.92202 184.46469 337.35753 186.55078 338.39844 C 188.63685 339.44061 189.67773 342.69729 189.67773 348.16992 C 189.67773 353.64042 191.89376 356.76885 196.32422 357.55273 C 200.75424 358.32377 207.39971 358.4601 216.25977 357.9375 L 219.38672 369.66406 L 218.60156 378.26367 C 195.46606 378.26367 180.35698 421.71402 181.73828 438.55469 C 185.44157 483.70512 185.67527 489.10522 202.20898 532.27734 C 211.59076 556.774 206.25458 605.20288 181.88281 676.12891 C 168.13375 716.14102 121.36121 763.10826 116.19922 807.29297 L 94.996094 918.72656 C 90.987134 939.79723 85.959981 953.14565 76.681641 956.75391 C 62.608857 962.22671 48.530177 966.39604 34.445312 969.26172 C 20.360363 972.12825 10.606674 976.03694 5.1835938 980.98828 C -0.23995625 985.93961 -1.4086794 989.98045 1.6816406 993.10742 C 4.7716606 996.23311 7.3061429 1000.1426 10.783203 1000.1426 L 77.236328 1000.1426 C 87.835218 1000.1426 94.3241 994.91626 97.75 997.26367 C 101.17422 999.61527 106.82178 1000.5225 114.68945 1000 C 122.55527 999.4788 127.06094 993.2238 128.20312 981.23633 C 125.32472 967.68496 130.06937 953.67463 138.66602 937.06445 C 159.58998 896.63582 163.4048 868.51549 169.53125 818.71484 L 245.98438 712.87695 C 254.84042 700.61719 273.41496 764.49206 282.24805 780.11914 C 291.08211 795.74632 301.42595 808.31388 313.27734 817.82422 C 325.12859 827.33415 347.59077 847.83618 374.5625 879.66016 C 401.52941 911.48697 411.57551 931.95705 404.69531 941.07422 C 397.81528 950.19178 395.47161 961.01936 383.46875 968.36914 C 372.37551 975.16193 360.74963 977.21666 356.77344 982.98047 C 350.60338 992.65 357.18623 1000 367.27539 1000 L 391.21094 1000 C 406.04178 1000 432.19141 977.27734 432.19141 977.27734 C 441.61161 973.73365 444.62802 966.48373 448.93555 967.00781 C 453.24381 967.53636 458.68391 965.91543 465.25977 962.1543 C 471.83696 958.39399 472.39986 950.88418 466.95312 939.62305 C 449.94427 921.21778 437.81785 903.92458 430.57227 887.74414 C 423.32283 871.56554 413.77979 852.73324 401.94141 831.24805 C 390.10207 809.76286 371.52798 791.28768 346.45312 765.55078 C 334.20172 723.40277 321.28991 697.24121 321.8125 681.60547 C 337.56946 641.53946 326.89454 604.85854 318.29492 587.39844 C 300.37479 551.02539 304.95773 480.836 323.37695 447.06641 C 329.11003 468.43566 362.62746 497.10215 385.5957 530.92773 C 395.53602 564.95114 409.17108 595.92445 426.50391 623.85156 C 425.7097 651.36549 432.17697 675.00689 445.9043 694.77344 C 451.38515 693.08435 451.87019 688.02591 447.36328 679.59766 C 442.8569 671.16967 441.92556 663.2765 444.56641 655.91797 C 452.92437 665.34052 458.3172 674.4501 460.75781 683.24219 C 463.19517 692.03528 463.49068 704.5589 462.11719 714.25391 C 461.85105 718.69903 470.7309 720.30499 471.78125 717.7832 C 476.46078 711.16393 477.07576 689.7136 476.58984 682.62891 C 475.12256 661.23596 467.6264 650.17353 450.30273 632.06055 C 448.23781 624.20962 446.25309 616.76684 444.34961 609.73242 C 566.6062 597.27455 670.08543 530.54741 705.21289 423.70703 C 713.43235 423.45636 723.37856 422.8042 735.05078 421.75391 C 736.28034 441.25978 737.09879 460.94089 738.26172 480.74219 C 738.26172 516.79407 706.56719 591.25627 656.0957 679.22266 C 633.88414 766.59448 615.26239 851.89359 604.22656 882.53711 C 593.19721 913.18126 581.6605 933.84377 568.80664 937.81055 C 555.95317 941.77669 534.58894 951.33119 504.71289 966.47266 C 484.33089 970.79869 472.37099 977.82874 468.89844 987.5625 C 465.39939 997.29429 475.24516 1000 497.99609 1000 C 526.11831 1000 546.64791 998.37718 559.58984 995.13281 C 572.53845 991.88844 590.1083 992.60373 612.30859 997.29297 C 634.51555 1001.9796 644.06829 994.59057 640.96484 975.12305 C 639.43925 939.07119 651.74247 893.71203 678.68359 845.76367 C 705.62425 797.81469 718.12547 761.22279 716.08984 735.98633 C 714.08704 710.74989 725.46268 691.28191 740.96875 677.58203 C 756.46814 663.88212 770.70544 657.0332 783.68945 657.0332 L 795.58398 705.70312 L 853.98828 705.70312 L 865.88281 650.54492 C 872.37157 650.54492 877.77696 658.29486 882.11133 673.79688 C 886.4329 689.29891 893.46784 699.75705 903.20117 705.16211 C 912.93401 710.56985 923.02689 720.12303 933.48242 733.82227 C 943.93794 747.52218 967.0105 771.31656 1002.7051 805.20508 C 1038.393 839.09363 1056.2363 869.37859 1056.2363 896.05664 C 1057.6813 916.96703 1054.9749 933.90991 1048.125 946.88867 C 1041.2749 959.86681 1029.3817 969.06365 1012.4375 974.46875 C 995.47998 979.87647 988.45406 985.64592 991.34375 991.77344 C 994.23348 997.90159 1003.9659 1000.6092 1020.5488 999.88672 L 1070.2969 999.88672 C 1095.5362 953.01941 1115.0029 920.21124 1128.7031 901.46484 C 1142.4031 881.99666 1131.9487 867.2154 1097.3379 857.12109 C 1087.2434 846.30565 1072.4652 818.0044 1052.9922 772.21875 C 1033.5259 726.43312 1015.1367 698.49276 997.83789 688.39844 C 980.53246 678.30413 969.72344 662.43944 965.38867 640.80859 C 936.55054 578.07864 918.89639 536.26129 912.39453 515.35156 C 913.06457 475.5411 902.69206 442.3586 881.26562 415.80859 C 906.47925 413.82161 926.79532 410.9872 938.20703 408.22266 C 944.35074 334.47537 944.49054 287.28013 940.55273 248.80664 C 938.53231 229.0666 934.30966 215.44283 919.25391 209.71484 C 903.26951 203.63364 896.0361 199.91555 861.43164 198.4707 C 848.63438 198.05791 840.79968 192.80275 837.92773 182.70312 L 837.92773 161.96289 C 850.66333 156.77432 862.92833 147.10572 874.7207 132.95508 C 886.51277 118.80444 892.40625 99.227964 892.40625 74.228516 C 892.40625 49.229036 881.32369 32.484515 859.1543 23.994141 C 842.52729 17.62634 824.63971 14.641068 805.49219 15.039062 C 799.10979 15.17172 792.58842 15.681995 785.92578 16.566406 C 766.36111 19.163491 750.79955 30.974967 739.24219 52.001953 C 735.03428 45.072706 735.79299 38.870212 741.51758 33.394531 C 747.39901 27.768777 748.54877 21.120666 744.96875 13.449219 C 747.09952 4.9261442 738.79606 -2.3684758e-15 733.60547 0 z M 809.80273 27.708984 C 819.59033 28.298588 830.37961 30.12739 842.17188 33.193359 C 865.75621 39.325306 877.54688 53.475191 877.54688 75.644531 C 877.54688 97.342172 869.64915 115.73803 853.84766 130.83203 C 838.04607 145.92607 828.02062 149.93471 823.77539 142.85938 C 818.58692 136.25573 822.47977 126.58713 835.45117 113.85156 C 848.42237 101.11599 851.60761 88.615443 845.00391 76.351562 C 838.4003 64.087653 824.48376 63.146285 803.25781 73.523438 C 796.18263 65.504728 779.20274 59.372148 752.31641 55.126953 C 757.50498 41.919693 767.88153 33.427809 783.44727 29.654297 C 791.23008 27.767559 800.0151 27.119371 809.80273 27.708984 z M 745.24023 67.152344 C 766.93776 68.567414 784.86305 74.229329 799.01367 84.134766 C 798.07036 92.625164 801.371 92.978176 808.91797 85.195312 C 824.24657 69.387818 843.77558 77.527532 832.97461 98.638672 C 827.78596 108.77995 821.30247 117.38951 813.51953 124.46484 C 805.73679 131.54015 803.96756 138.61413 808.21289 145.68945 C 812.45802 152.76476 815.28613 158.89931 816.70117 164.08789 C 816.61499 171.00543 816.81082 181.13758 816.83008 186.42773 L 816.82422 186.42969 C 816.82422 186.68839 816.82626 186.94529 816.83203 187.20117 L 816.83203 187.20312 C 817.31393 208.55299 837.74891 220.07227 857.20898 220.07227 C 884.6085 220.07227 889.83657 244.94741 872.89258 294.69922 C 863.0249 323.70602 857.76131 352.76043 856.08984 376.94727 C 850.33786 378.47877 843.61651 380.31555 835.2793 382.37891 C 801.16704 390.82129 775.21684 390.59423 757.42773 381.69727 C 755.03402 380.50007 752.55908 379.4576 750.00391 378.57031 C 744.42732 331.32831 734.05722 285.40691 711.19727 237.91992 C 707.57174 230.3886 712.6423 225.48047 737.15234 225.48047 C 760.09125 225.48047 776.85861 223.01213 777.06055 201.0332 L 777.07812 201.0332 C 777.07812 200.92961 777.07661 200.82583 777.07617 200.72266 C 777.07622 200.69721 777.08008 200.67588 777.08008 200.65039 L 777.07617 200.65039 C 776.96949 180.12596 768.24735 167.87289 750.90234 169.74805 C 733.44993 171.63478 726.13877 165.97484 728.96875 152.76758 C 739.34602 146.63562 743.00141 142.27009 739.93555 139.67578 C 736.8695 137.08146 731.32533 135.54981 723.30664 135.07812 C 723.30664 130.36127 719.29796 126.35067 711.2793 123.04883 C 719.29796 105.12468 727.07999 92.626117 734.62695 85.550781 C 742.1739 81.777283 750.07555 81.777283 758.33008 85.550781 C 766.58472 89.324294 774.72146 91.918914 782.74023 93.333984 L 782.74023 88.380859 C 777.55166 87.909168 770.83071 85.432212 762.57617 80.951172 C 754.32153 76.470141 745.94937 75.644517 737.45898 78.474609 C 740.28919 73.757749 742.88184 69.982476 745.24023 67.152344 z M 823.64453 80.837891 C 822.43071 80.90454 821.05979 81.169939 819.53125 81.65625 C 808.69985 85.102639 797.35659 102.52493 801.13477 108.19141 C 792.52833 112.01663 790.59404 120.86629 798.30469 123.75781 C 806.44214 126.80934 824.28194 108.34652 828.73047 97.224609 C 832.41987 88.000137 831.21719 81.206232 824.80664 80.837891 C 824.43678 80.816641 824.04914 80.815674 823.64453 80.837891 z M 746.60742 86.738281 C 743.63173 86.830401 740.81928 87.611914 738.16602 89.085938 L 731.08984 95.457031 L 731.08984 101.11523 L 734.62695 101.11523 C 744.53239 105.8321 755.61889 105.8321 767.88281 101.11523 L 780.61719 103.23828 L 780.61719 96.873047 L 768.58984 96.164062 C 760.48258 89.678347 753.15393 86.535603 746.60742 86.738281 z M 821.69922 88.404297 C 823.82179 88.462327 824.74982 89.750902 824.48438 92.271484 C 824.01285 96.752534 822.00656 100.99849 818.46875 105.00781 C 814.93124 109.01717 811.63054 111.84715 808.56445 113.49805 C 805.49875 115.14895 805.49875 113.85262 808.56445 109.60742 C 811.63054 105.36207 811.63054 103.82858 808.56445 105.00781 C 805.49875 106.18704 804.90982 104.88873 806.79688 101.11523 C 808.68344 97.341726 811.27808 93.803783 814.58008 90.501953 C 817.67543 89.057407 820.04827 88.359157 821.69922 88.404297 z M 744.5332 91.210938 C 742.64623 93.569382 742.64623 96.16401 744.5332 98.994141 C 741.703 98.050779 739.34554 97.107428 737.45898 96.164062 C 738.40243 94.277303 740.75968 92.626001 744.5332 91.210938 z M 753.73242 92.626953 L 763.63477 98.287109 C 759.86124 99.230475 756.08994 99.701172 752.31641 99.701172 C 755.61853 97.814412 756.09069 95.457086 753.73242 92.626953 z M 800.42578 113.85156 C 803.72761 116.20998 804.31974 118.21433 802.19727 119.86523 C 800.07477 121.51628 798.54115 121.40042 797.59766 119.51367 C 796.65415 117.6269 797.59566 115.73832 800.42578 113.85156 z M 732.83008 121.43945 C 731.9972 121.41705 731.18431 122.9068 731.44531 124.46484 C 731.85023 126.89376 728.79452 129.42323 725.07422 125.17188 C 720.53578 119.98475 718.35363 122.60466 718.35352 125.88086 C 720.24018 124.93774 722.24293 125.76133 724.36523 128.35547 C 729.04054 134.06967 734.70498 128.75789 734.27344 124.46484 C 734.05475 122.27736 733.43783 121.45579 732.83008 121.43945 z M 721.01758 138.40039 C 722.62346 138.44749 724.43241 139.00164 732.1543 140.03125 C 735.69219 140.50292 737.22181 140.73828 736.75 140.73828 L 719.76953 141.44531 C 716.66729 140.66923 717.02219 138.28336 721.01758 138.40039 z M 736.04297 142.85938 C 734.52619 144.37584 728.3121 147.28117 724.01562 147.8125 C 719.68432 148.34813 719.54152 146.62437 721.18359 144.98242 L 736.04297 142.85938 z M 256.80859 243.40625 C 264.04021 243.79739 272.02169 245.1014 280.75195 247.31641 C 298.21205 251.74687 306.94141 262.30016 306.94141 278.97852 C 306.94141 295.65686 301.20834 309.86087 289.74219 321.58789 C 278.27559 333.31578 270.71987 336.31164 267.07031 330.57812 C 263.42203 325.36635 266.28856 317.9391 275.66992 308.29688 C 285.05342 298.65466 287.39597 289.1435 282.70508 279.76172 C 278.01461 270.3778 267.59107 269.59576 251.43359 277.41406 C 246.22182 271.68057 233.45164 267.25002 213.125 264.12305 C 217.81589 254.22038 225.89474 247.83443 237.36133 244.96875 C 243.09462 243.53655 249.57698 243.01511 256.80859 243.40625 z M 208.44141 272.7207 C 224.59888 274.28418 237.89047 278.45283 248.31445 285.22852 C 247.79314 292.00507 250.26802 292.39585 255.74023 286.40234 C 261.21287 280.40796 266.55539 278.71592 271.76758 281.32031 C 276.97636 283.9264 277.63156 289.13916 273.7207 296.95703 C 269.81198 304.77491 264.86113 311.29017 258.86719 316.50195 C 252.87024 321.71415 252.39657 326.55996 254.95703 332.5293 C 257.49382 338.44347 256.25599 342.82431 257.29688 346.99219 C 257.81091 355.33138 257.9406 364.84292 257.68359 375.52734 C 257.42315 386.21217 270.82817 392.23157 295.8457 391.70898 C 315.65146 392.23027 323.26284 395.96012 319.61328 406.64453 C 315.965 417.32937 306.5158 445.78432 298.4375 459.5957 C 288.16331 477.16094 282.98001 548.14198 297.41211 589.89453 C 317.73859 648.69971 304.46975 709.64381 257.7793 685.93359 C 251.05879 682.52081 243.89765 686.65224 237.42383 688.94531 C 210.5943 698.44852 201.79069 686.75069 209.62891 657.49805 C 225.24152 599.23101 229.32227 590.22009 229.32227 562.46875 C 229.32227 523.88923 204.01758 502.87488 204.01758 441.55078 C 204.01758 422.71064 210.80822 393.875 236.20117 393.875 L 234.54492 368.01172 C 233.50274 351.85252 224.07907 346.73546 211.57031 349.33984 C 199.06324 351.94595 194.11045 348.03725 196.71484 337.61328 C 204.53828 333.44327 207.27121 330.44784 204.92383 328.62305 C 202.57859 326.79912 198.01788 325.36316 191.24219 324.32227 C 191.7635 321.1953 189.15691 318.06839 183.42383 314.94141 C 188.63602 301.91133 194.37061 292.52995 200.625 286.79688 C 206.35807 284.18392 212.22133 284.31596 218.21484 287.18164 C 224.20879 290.04647 230.07118 292.00402 235.80469 293.04492 L 235.80469 289.13867 C 232.15598 289.13867 227.20555 287.18625 220.95117 283.27539 C 214.69679 279.36453 208.70227 278.97459 202.96875 282.10156 C 204.53054 278.45328 206.35532 275.32509 208.44141 272.7207 z M 266.36328 283.24805 C 265.51899 283.25958 264.58187 283.39406 263.55273 283.66797 C 255.34177 285.857 246.75722 299.83378 249.86914 303.99219 C 243.71263 307.07279 241.94566 313.39727 247.91406 316.10938 C 254.41018 319.06234 267.57328 303.05488 270.58594 296.17383 C 273.65827 289.15362 272.27335 283.16734 266.36328 283.24805 z M 895.83594 285.39844 C 893.84339 332.69674 897.93385 340.14323 900.83594 373.92383 C 889.64307 371.78875 882.10255 371.61421 873.92578 372.86719 C 876.43996 353.62342 883.0232 325.97582 895.83594 285.39844 z M 265.17773 287.70117 C 266.71958 287.70291 267.68136 288.97116 267.46094 291.87695 C 267.2005 295.26479 265.76454 298.52146 263.16016 301.64844 C 260.55406 304.7767 258.0798 306.99273 255.73242 308.29492 C 253.38504 309.59711 253.38504 308.68362 255.73242 305.55664 C 258.0798 302.42538 258.0798 301.25518 255.73242 302.03906 C 253.38933 302.82294 252.8675 301.7777 254.16992 298.91211 C 257.17341 292.30387 262.23421 287.69786 265.17773 287.70117 z M 209.20703 288.10352 C 206.99803 288.17485 204.91543 288.77943 202.96094 289.91992 L 197.49023 294.61133 L 197.49023 298.52148 L 200.61719 298.51758 C 207.91375 302.16714 216.25297 302.16714 225.63477 298.51758 L 235.01562 300.86523 L 235.01562 295.39258 L 225.63477 295.39258 C 219.54319 290.3756 214.06683 287.94659 209.20703 288.10352 z M 208.43359 290.70312 C 206.34751 292.78963 206.34751 294.8729 208.43359 296.95898 C 205.82793 295.91431 204.00404 295.13391 202.96289 294.61133 C 203.48624 293.56667 205.30969 292.26509 208.43359 290.70312 z M 215.4707 292.26367 L 221.72461 296.17383 C 219.11894 297.21474 216.51063 297.73828 213.90625 297.73828 L 213.90625 297.73633 C 215.99232 296.17455 216.5116 294.34976 215.4707 292.26367 z M 198.99414 313.9375 C 198.27795 313.93167 197.60203 315.35103 197.88477 316.49609 C 198.31318 318.20975 196.15955 320.84028 193.19531 317.28125 C 189.13755 312.4093 187.71859 315.71833 188.88867 318.05859 C 189.93386 317.0177 191.23534 317.40765 192.79883 319.23242 C 196.09985 323.07295 200.73777 320.62951 200.22852 316.49609 C 199.99305 314.61235 199.48416 313.94149 198.99414 313.9375 z M 191.17188 326.99023 C 191.43308 326.99854 191.71545 327.01942 192.01758 327.05664 C 194.10281 327.31794 196.44835 327.70789 199.05273 328.23047 C 201.65712 328.75306 202.70228 329.27038 202.17969 329.79297 L 188.88477 329.79297 C 187.80693 329.79297 187.25374 326.86565 191.17188 326.99023 z M 202.17969 330.57422 C 198.92945 332.20141 195.59877 334.00995 192.18359 335.1875 C 190.18342 335.87716 187.75861 334.45071 191.23438 332.13672 L 202.17969 330.57422 z M 857.23047 417.34961 C 857.36113 418.11083 857.49996 418.85272 857.64453 419.57422 L 756.42578 463.67383 C 755.65024 448.83498 754.84888 434.26296 753.82031 419.88281 C 760.0629 419.20735 766.68141 418.44481 773.67383 417.5957 C 802.57025 418.96448 831.48214 418.63896 857.23047 417.34961 z M 865.87695 432.07812 C 888.97519 452.98789 898.694 483.27089 895.08203 522.92773 C 898.6875 538.06985 914.18808 575.92498 941.58789 636.49219 C 892.56113 642.9816 853.6211 635.41017 824.7832 613.7793 C 843.52677 583.49571 852.89844 524.72965 852.89844 437.48438 L 865.87695 432.07812 z M 833.43359 446.13867 C 833.43359 532.66283 822.79942 588.72201 801.52734 614.31836 C 780.25489 639.91537 743.66195 652.35524 691.75195 651.63281 C 735.01256 574.48253 756.64453 517.15951 756.64453 479.66602 L 833.43359 446.13867 z M 819.37305 627.83789 L 847.49414 640.81641 L 838.83789 693.81445 L 808.55469 693.81445 L 797.73828 648.38867 L 819.37305 627.83789 z " />
</svg>
