<?xml version="1.0" encoding="UTF-8" standalone="no"?>
<svg
   width="900"
   height="1000"
   version="1.1"
   id="svg1"
   sodipodi:docname="135E7.svg"
   inkscape:version="1.4.2 (f4327f4, 2025-05-13)"
   xmlns:inkscape="http://www.inkscape.org/namespaces/inkscape"
   xmlns:sodipodi="http://sodipodi.sourceforge.net/DTD/sodipodi-0.dtd"
   xmlns="http://www.w3.org/2000/svg"
   xmlns:svg="http://www.w3.org/2000/svg">
  <defs
     id="defs1" />
  <sodipodi:namedview
     id="namedview1"
     pagecolor="#ffffff"
     bordercolor="#666666"
     borderopacity="1.0"
     inkscape:showpageshadow="2"
     inkscape:pageopacity="0.0"
     inkscape:pagecheckerboard="0"
     inkscape:deskcolor="#d1d1d1"
     inkscape:zoom="0.37750003"
     inkscape:cx="-427.81454"
     inkscape:cy="674.17214"
     inkscape:window-width="1680"
     inkscape:window-height="998"
     inkscape:window-x="-8"
     inkscape:window-y="-8"
     inkscape:window-maximized="1"
     inkscape:current-layer="svg1"
     showguides="true">
    <sodipodi:guide
       position="0,1000"
       orientation="0,-1"
       id="guide1"
       inkscape:locked="false" />
    <sodipodi:guide
       position="0,0"
       orientation="0,-1"
       id="guide17"
       inkscape:locked="false" />
  </sodipodi:namedview>
  <path
     id="path20"
     style="fill:#000000;stroke:none;stroke-width:0.999997"
     d="m 675.96289,0 c -1.59011,0.02079719 -2.93985,0.49751989 -4.04883,1.4296875 -2.95747,2.4857919 -3.53056,6.2095073 -1.71875,11.1699215 1.59657,12.066912 1.2739,22.726003 -0.96875,31.978516 -2.24254,9.252526 -8.74187,19.357728 -19.49804,30.314453 -2.32434,-8.28718 -1.16658,-17.143238 3.47265,-26.568359 4.63932,-9.425204 3.7999,-15.091607 -2.51953,-17 -16.49278,22.188252 -22.27253,42.922121 -17.33789,62.203125 4.93435,19.281046 4.17785,42.221296 -2.26953,68.822266 -6.44749,26.601 -4.64254,49.62194 -3.07227,68.87305 -30.14757,-6.1669 -67.94809,-6.78636 -113.40234,-1.86133 -13.06076,-6.15261 -43.71438,-12.91211 -64.33399,-12.91211 -20.28102,0 -28.45138,-14.06197 -24.52734,-42.18555 11.77183,-4.57868 23.38411,-13.57089 34.82813,-26.97851 11.44403,-13.40815 17.16601,-32.53934 17.16601,-57.392582 0,-23.545424 -10.62542,-39.243314 -31.88476,-47.091797 -15.94047,-5.887161 -32.80333,-8.551984 -50.58594,-8 h -0.002 c -25.96324,0.805925 -54.29887,5.171329 -71.55469,59.996094 -6.54177,7.848485 -13.73805,18.966325 -21.58594,33.355465 -3.92405,9.1563 -3.92405,14.39106 0,15.69727 3.94005,1.31157 6.89499,2.94622 8.83008,4.9082 -5.72582,4.26642 -4.36469,8.82617 1.95703,8.82617 1.34376,0 0.86028,1.14566 -1.45117,3.43555 -2.25768,2.28934 -2.0948,4.09029 0.53906,5.39649 2.63395,1.30781 3.92383,5.39619 3.92383,12.26367 0,6.8648 2.78373,10.79319 8.3418,11.77148 5.55805,0.96756 13.89419,1.14018 25.01562,0.48438 l 3.92578,14.71679 -0.96875,10.79102 c -38.58393,-0.65417 -66.05642,12.10012 -82.4082,38.26172 -29.14008,30.64317 -58.49694,69.88634 -77.66406,107.03125 -49.7517,-1.59781 -54.6328,14.78926 -109.496098,15.82812 -25.145182,-11.91481 -52.583314,-14.98211 -82.29882762,-8.85351 -0.77269605,7.27413 4.38811362,10.65974 15.50195362,10.16797 11.128205,-0.28269 19.216825,2.67673 24.3125,9.51757 -10.194801,4.04058 -20.791312,4.82117 -31.7949224,2.34571 -11.0041311,-2.47542 -22.8949116,-5.84806 -35.6738276,-10.1543 -5.457433,-2.88492 -9.920019,-3.36321 -13.388672,-1.49023 -3.467569,1.87309 -4.635698,6.08267 -3.5,12.55859 20.071497,14.25646 39.4901208,21.83889 58.248046,22.75 18.759527,0.93249 38.033296,-2.26661 57.816407,-9.67773 50.737811,-0.56907 78.541161,-2.14086 138.158201,-9.70313 31.39175,-32.04755 75.00682,-81.77854 90.04688,-104.01562 9.15951,48.39922 19.62129,87.96925 31.39843,118.70898 8.79878,22.97648 6.30095,62.40068 -7.58593,118.25391 -4.79277,19.27661 -9.76639,41.08601 -17.69922,64.17187 -17.3129,50.38346 -76.21096,109.52451 -82.71094,165.16211 l -26.69531,140.31641 c -5.0481,26.5323 -11.37723,43.33926 -23.06055,47.88281 -17.72052,6.89137 -35.44981,12.14152 -53.18555,15.75 -17.73584,3.60954 -30.018883,8.53283 -36.847652,14.76758 -6.829358,6.23473 -8.301504,11.32031 -4.410156,15.25781 3.89097,3.93589 7.084561,8.86135 11.46289,8.86135 h 83.677738 c 13.34615,0 21.5142,-6.58088 25.82812,-3.62502 4.31179,2.96114 11.42306,4.10322 21.33008,3.44531 9.9047,-0.6563 15.58126,-8.53227 17.01953,-23.62695 -3.62452,-17.06396 2.34893,-34.70548 13.17383,-55.6211 26.3476,-50.90794 31.14889,-86.31616 38.86328,-149.02539 l 96.27344,-133.27539 c 11.15155,-15.43756 34.53952,64.99613 45.66211,84.67383 11.12394,19.67782 24.14889,35.50305 39.07226,47.47852 14.92317,11.97495 43.20696,37.79037 77.16992,77.86328 33.95687,40.07648 46.6069,65.85359 37.94336,77.33398 -8.66336,11.48088 -11.6145,25.11426 -26.72851,34.36914 -13.9687,8.55352 -28.60649,11.14062 -33.61328,18.39844 -7.76942,12.17591 0.52022,21.43164 13.22461,21.43164 h 30.13672 c 18.675,0 51.60546,-28.61328 51.60546,-28.61328 11.86199,-4.46224 15.65796,-13.59156 21.08204,-12.93164 5.42494,0.66555 12.2763,-1.3753 20.55664,-6.11133 8.28207,-4.735 8.99129,-14.19102 2.13281,-28.37109 -21.41764,-23.17601 -36.68881,-44.95169 -45.8125,-65.32617 -9.12852,-20.3722 -21.14383,-44.08637 -36.05078,-71.14063 -14.90821,-27.05426 -38.29672,-50.31658 -69.8711,-82.72461 -15.42705,-53.07299 -31.68537,-86.01451 -31.02734,-105.70312 19.84125,-50.45132 6.05032,-97.20067 -5.16602,-120.15235 -10.72094,-21.93795 -15.34705,-51.34329 -13.73437,-88.29687 1.63412,-36.95304 19.71244,-96.14313 31.48437,-117.72657 51.30076,7.06456 108.24017,-1.76997 161.45704,-4.86132 6.42598,-30.86656 9.34241,-83.72232 1.96875,-152.00977 12.48657,-23.536044 21.65203,-42.695756 27.49609,-57.480468 5.61803,-15.404763 5.61984,-33.679134 0.006,-54.8203126 C 681.93128,1.1964293 678.61307,-0.03466198 675.96289,0 Z M 392.38086,47.087891 c 2.64225,-0.0605 5.27173,-0.0091 7.85937,0.130859 30.36464,2.425411 60.90221,7.757815 62.90625,44.638672 0,20.929278 -7.1904,38.752798 -21.58007,53.468748 -14.38966,14.71704 -23.88204,18.47608 -28.45118,11.28125 -4.57965,-6.54013 -0.97886,-15.86113 10.79297,-27.96094 22.22075,-22.81906 13.66564,-60.083146 -30.41406,-38.753902 -6.54167,-7.194843 -22.56648,-12.753766 -48.07226,-16.677734 9.36604,-19.773874 28.46329,-25.703451 46.95898,-26.126953 z M 339.44141,84 c 20.27553,1.961985 36.9478,7.19461 50.03125,15.697266 -0.65581,8.503714 2.45073,8.993774 9.32031,1.472654 13.88214,-15.212728 32.82246,-7.294447 22.58203,13.24414 -4.90766,9.81047 -11.12064,17.98723 -18.64062,24.52735 -7.52558,6.54067 -9.13912,13.24188 -4.89258,20.10937 4.25716,6.86748 7.0517,12.92023 8.34179,18.15039 0.53746,10.46465 1.07673,22.401 0.53907,35.8086 -0.3279,13.40816 13.21937,21.11085 44.61132,20.45507 24.85538,0.65417 29.13523,17.31833 23.41211,30.27539 -20.54883,46.52228 -27.94747,62.59422 -32.21289,115.56055 -2.89519,35.95133 -2.02274,73.27396 11.48047,104.81836 45.13645,105.44178 -12.7279,126.62305 -59.89062,126.62305 -54.21725,0 -56.81281,-52.28979 -51.57813,-71.96094 18.99258,-71.37128 19.67392,-89.70259 1.75781,-156.56641 -11.06291,-41.28734 -23.37409,-83.86915 -30.29296,-125.16406 -2.3954,-14.29684 7.03501,-22.38688 21.3164,-23.35742 9.31859,-0.63327 20.50474,-0.77339 33.54492,-0.5625 v -27.46875 c -1.30621,-20.27779 -9.81193,-28.77601 -25.50781,-25.50781 -15.68506,3.27032 -21.91957,-1.63352 -18.64062,-14.71485 9.76145,-5.23233 13.25517,-8.99333 10.29882,-11.2832 -2.94033,-2.2888 -8.66622,-4.09028 -17.16992,-5.39648 0.65571,-3.92397 -2.61111,-7.84752 -9.80859,-11.77149 6.54167,-16.35112 13.73264,-28.12601 21.58594,-35.32031 7.19208,-3.278938 14.55218,-3.111701 22.07226,0.48437 7.52008,3.595 14.87869,6.05319 22.07617,7.35938 v -4.9082 c -4.57975,0 -10.79274,-2.44977 -18.64062,-7.357426 -7.84799,-4.90765 -15.36892,-5.396625 -22.56641,-1.472656 1.97814,-4.578141 4.23724,-8.505251 6.8711,-11.773438 z m 72.63086,13.191406 c -12.85543,0 -24.48758,20.719994 -20.54102,26.058594 l 0.0332,0.002 c -3.91323,1.96199 -6.22414,4.57947 -6.86914,7.84766 -0.6451,3.27248 0.80481,5.72528 4.40625,7.35937 3.59604,1.63517 8.66535,-0.8187 15.20703,-7.35937 6.53637,-6.54067 10.92879,-12.42803 13.24024,-17.6582 2.25759,-5.23233 2.57939,-9.48574 0.96679,-12.75391 -1.22561,-2.45114 -3.37708,-3.496094 -6.44335,-3.496094 z m -71.59375,6.115234 c -2.77237,0.0895 -5.38542,0.85008 -7.8379,2.28125 l -6.86523,5.88672 v 4.90625 l 3.92383,-0.004 c 9.1542,4.57976 19.62075,4.57976 31.39258,0 l 11.77148,2.94532 v -6.86719 H 361.0918 c -7.64228,-6.29569 -14.51418,-9.34537 -20.61328,-9.14844 z m 70.16992,0.78906 c 5.54808,0 2.88142,9.87822 -2.41016,16.21094 -3.27363,3.92558 -6.36386,6.70381 -9.32031,8.33789 -2.95644,1.63411 -2.95644,0.49038 0,-3.43359 2.95644,-3.92935 2.95646,-5.39236 0,-4.41406 -2.95644,0.98368 -3.60088,-0.32776 -1.98828,-3.92383 1.87779,-4.13418 6.57592,-12.77735 13.71875,-12.77735 z m -71.13867,2.47657 c -2.63386,2.61831 -2.63386,5.22987 0,7.84765 -3.2665,-1.31093 -5.57671,-2.28758 -6.86719,-2.94336 0.65832,-1.31091 2.9471,-2.94422 6.86719,-4.90429 z m 8.82617,1.95703 7.84765,4.90625 c -3.26823,1.30619 -6.52964,1.96289 -9.80859,1.96289 l 0.0254,-0.004 c 2.58008,-1.95983 3.22565,-4.24746 1.93555,-6.86523 z m 43.16992,20.60547 c 3.22518,2.61777 3.76262,4.5805 1.45117,5.88671 -2.25768,1.31157 -3.763,0.98348 -4.4082,-0.97851 -0.64499,-1.96198 0.32318,-3.60199 2.95703,-4.9082 z m -63.92969,6.60156 c -0.96202,-0.0218 -1.8778,1.9471 -1.35937,3.20703 0.6138,2.13958 -2.19091,5.44743 -5.85938,0.98437 -5.28451,-6.22242 -6.73257,-1.81482 -5.4043,0.91797 1.2815,-1.22984 2.9255,-0.72249 4.83008,1.53125 4.35209,5.03965 10.30848,1.30242 9.33594,-3.43359 -0.29031,-2.36093 -0.92628,-3.19304 -1.54297,-3.20703 z m -12.62305,5.10937 c -0.0203,0.0197 -0.0422,0.0401 -0.0625,0.0606 h 0.0918 c -0.0106,-0.0206 -0.0197,-0.0402 -0.0293,-0.0606 z m 2.19922,11.24805 c 1.43909,-0.0576 16.1958,1.81113 14.50977,3.52539 h -16.62695 c -1.45151,0 -1.56858,-3.37772 2.11718,-3.52539 z m 14.50977,4.50781 h 0.0371 c -3.53106,2.64347 -8.09513,4.65146 -12.58594,5.78516 -1.16689,0.20574 -6.24166,-0.41336 -1.1914,-3.82227 z"
     sodipodi:nodetypes="sscscsccsccsccscssccscsccscccccccccccccccccccssccscccsscccscsccccscssccccccccsccccccsscccccccscccccccccsssssssscccccccccccsccscccccccssccccccccsscscccscccccccccccccscccccsccccscssccccc" />
</svg>
