<?xml version="1.0" encoding="UTF-8" standalone="no"?>
<svg
   width="1100"
   height="1000"
   version="1.1"
   id="svg1"
   sodipodi:docname="135ED.svg"
   inkscape:version="1.4.2 (f4327f4, 2025-05-13)"
   xmlns:inkscape="http://www.inkscape.org/namespaces/inkscape"
   xmlns:sodipodi="http://sodipodi.sourceforge.net/DTD/sodipodi-0.dtd"
   xmlns="http://www.w3.org/2000/svg"
   xmlns:svg="http://www.w3.org/2000/svg">
  <defs
     id="defs1" />
  <sodipodi:namedview
     id="namedview1"
     pagecolor="#ffffff"
     bordercolor="#666666"
     borderopacity="1.0"
     inkscape:showpageshadow="2"
     inkscape:pageopacity="0.0"
     inkscape:pagecheckerboard="0"
     inkscape:deskcolor="#d1d1d1"
     inkscape:zoom="0.3775"
     inkscape:cx="192.05298"
     inkscape:cy="393.37748"
     inkscape:window-width="1680"
     inkscape:window-height="998"
     inkscape:window-x="-8"
     inkscape:window-y="-8"
     inkscape:window-maximized="1"
     inkscape:current-layer="svg1"
     showguides="true" />
  <path
     id="path1-9"
     style="fill:#000000;stroke:none;stroke-width:1"
     d="M 553.79102 0 C 546.84103 0.26224795 539.56501 2.491648 531.95898 6.6875 C 516.71776 15.079181 509.24335 31.731849 509.53711 56.644531 C 509.80163 81.557494 521.33683 104.16015 546.50977 127.76172 C 533.3988 141.92261 523.11635 161.63304 516.90039 180.28516 L 482.13672 180.28516 C 487.80495 202.32835 491.62068 218.29604 493.58398 228.1875 C 495.57892 238.07862 496.0052 246.41673 494.86523 253.19922 C 494.49158 255.35028 494.55047 257.16705 495.04492 258.65039 L 472.36719 295.58984 C 466.69002 303.79026 470.77283 310.78767 484.65039 316.46484 C 484.33107 328.50717 484.22685 330.11775 492.29688 330.89648 C 488.51772 338.07219 492.39482 355.83977 504.06445 355.20898 C 515.73424 354.57816 522.84793 358.03391 525.37109 365.60352 C 525.37109 368.1267 523.16716 369.3247 518.75391 369.46875 C 499.09661 370.11039 489.23847 371.95071 471.85156 378.04883 L 359.6582 409.04883 C 322.19659 408.00873 264.72639 409.12202 234.73633 400.54297 C 230.37047 396.70953 225.78928 392.65678 220.86328 389.71289 L 220.50977 360.70508 C 237.85959 349.13859 247.11298 336.22434 248.26953 321.95898 C 265.61935 321.95898 274.29492 315.40358 274.29492 302.29492 C 274.29492 286.1018 264.07672 281.47614 243.64258 288.41602 L 237.28125 282.63281 L 240.17383 267.01758 L 246.53516 267.01758 C 248.8484 274.34306 252.89636 278.00586 258.67969 278.00586 C 262.53508 278.00586 265.23504 272.41541 266.77734 261.23438 C 257.52409 252.75234 249.4262 248.51172 242.48633 248.51172 L 246.53516 226.53516 L 255.21094 226.53516 L 266.19922 237.52344 C 274.68139 237.52344 278.92188 232.89582 278.92188 223.64258 C 270.82532 213.23277 260.99436 208.02734 249.42773 208.02734 L 252.31836 187.78711 L 260.41406 187.78711 L 270.82422 202.82227 C 276.99301 203.20787 281.62076 200.31723 284.70508 194.14844 C 283.5484 191.8352 279.69294 185.2798 273.13867 174.48438 C 270.43983 169.85775 264.46419 167.54492 255.21094 167.54492 C 255.21094 141.32746 240.55961 128.21875 211.25781 128.21875 C 181.95589 128.21875 167.30469 141.32746 167.30469 167.54492 L 161.52148 167.54492 L 152.26758 151.92969 C 145.32754 151.54422 140.70189 154.43668 138.38867 160.60547 C 139.54535 162.91872 143.20815 170.0518 149.37695 182.00391 C 151.30473 185.85946 158.24335 187.78711 170.19531 187.78711 L 173.66602 208.02734 L 164.41211 208.02734 L 153.42578 197.61719 C 144.55813 197.61719 140.12305 202.4373 140.12305 212.07617 C 148.21963 221.71489 159.97849 226.53516 175.40039 226.53516 L 179.44922 248.51172 L 171.93164 248.51172 C 170.00387 240.80063 166.53359 236.94336 161.52148 236.94336 C 157.28035 236.94336 154.19522 242.14863 152.26758 252.55859 C 161.52068 262.19731 171.54638 267.01758 182.3418 267.01758 L 184.07617 282.63281 L 178.87109 286.67969 C 158.05135 280.89651 147.64062 286.1018 147.64062 302.29492 C 147.64063 315.40358 156.70137 321.95898 174.82227 321.95898 C 175.97895 336.22434 184.84719 349.13859 201.42578 360.70508 L 201.2168 386.32812 C 184.37744 391.93182 174.74842 423.0169 200.83984 432.56445 L 200.26758 502.97461 L 222.24414 502.97461 L 221.41406 434.85742 C 227.57665 434.81829 233.90287 434.87734 242.07812 435.67383 C 243.80984 668.70597 290.14402 796.68058 360.82227 866.66992 C 385.70118 891.30634 413.33126 908.41845 442.54492 920.26562 C 440.42836 925.89192 438.08547 931.17033 435.51367 936.09961 C 424.15928 957.86223 400.51221 971.48687 364.55664 977.16406 C 346.89427 977.79479 341.15099 981.87766 347.45898 989.44727 C 353.76696 997.01685 359.51026 1000.5604 364.55664 999.92969 L 422.2832 999.92969 C 436.79157 995.5141 448.61512 994.88258 457.76172 998.03711 C 466.90828 1001.1913 475.4783 1000.1639 483.36328 995.11719 C 491.24828 990.07079 491.0461 978.64764 482.8457 960.66992 C 479.05786 952.36565 477.93414 942.94377 479.46875 932.41016 C 515.86968 941.87401 553.85527 945.09367 591.40234 945.97656 C 578.55499 962.04284 557.05154 972.40058 526.88281 977.16406 C 509.22043 977.79479 503.4791 981.87766 509.78711 989.44727 C 516.09508 997.01685 521.83642 1000.5604 526.88281 999.92969 L 584.61133 999.92969 C 599.1197 995.5141 610.94324 994.88258 620.08984 998.03711 C 629.23643 1001.1913 637.80447 1000.1639 645.68945 995.11719 C 653.57443 990.07079 653.37621 978.64764 645.17578 960.66992 C 631.29819 939.53824 627.96692 901.46763 629.22852 869.29688 C 630.49011 837.12608 625.95148 811.05075 608.91992 790.23438 C 618.85681 767.87638 629.05167 652.38959 619.00586 606.82617 C 614.43877 586.1119 609.76593 559.77479 601.99805 528.39258 C 604.28625 498.52647 620.04173 463.30289 629.49414 433.70312 L 658.4043 511.30078 C 654.33061 539.61874 657.36502 584.51147 663.76367 634.58398 C 648.28421 644.4133 641.44206 658.40751 643.30664 676.60547 L 662.0293 654.78516 L 655.30859 701.05078 C 669.57939 710.36828 681.32394 707.67487 690.60938 693.08984 C 699.89477 678.50533 698.60103 652.89901 686.58594 616.08398 C 698.6161 578.56738 697.4219 536.73431 693.11719 504.08398 C 683.46137 460.3647 675.50486 423.9842 656.34375 390.94531 C 649.93168 379.88917 634.54138 376.60112 622.87305 374.19336 L 599.16211 368.52344 C 609.88572 365.36946 615.31247 359.6301 615.3125 351.42969 C 615.31247 343.22933 613.65595 338.20099 610.50195 336.30859 C 616.25447 331.70659 621.04788 326.6564 624.87891 321.15625 L 624.90625 321.1582 L 624.87891 321.1543 C 689.72596 228.04824 716.7242 125.74361 760.19727 21.744141 L 741.54492 21.744141 C 704.80626 104.26524 681.63472 149.19884 672.02734 156.54688 C 673.15781 119.8079 679.93989 93.807596 692.375 78.546875 C 709.3448 63.851099 718.81015 51.416095 720.77344 41.242188 C 722.75253 31.068585 718.09175 20.614128 706.78711 9.875 C 689.82999 -0.8641467 676.68686 -2.8449837 667.36133 3.9375 C 658.03569 10.720321 649.98208 23.722411 643.19922 42.939453 C 626.24212 68.939291 609.14515 86.601502 591.90625 95.927734 C 574.66108 105.2552 563.66395 112.63484 561.04883 115.25586 C 539.57524 95.3255 528.69232 76.050621 528.39844 57.431641 C 528.13696 38.812661 533.38131 26.879447 544.13281 21.634766 C 554.88435 16.389176 563.67036 17.045467 570.49023 23.601562 C 577.30726 30.15764 578.88091 36.711772 575.21094 43.267578 C 571.53798 49.823671 567.07901 49.823671 561.83398 43.267578 C 556.58905 36.711772 552.13095 33.435547 548.46094 33.435547 C 543.75954 36.582251 542.84896 42.220008 545.72852 50.349609 C 548.61403 58.478884 555.30099 62.544922 565.79102 62.544922 C 584.17925 62.544922 593.22739 54.807902 592.93359 39.335938 C 592.67207 23.864061 586.24814 12.457918 573.66016 5.1152344 C 567.3662 1.4438923 560.74789 1.1842379e-15 553.79297 0 L 553.79102 0 z M 684.24023 25.667969 C 686.57187 25.738609 689.00919 26.690419 691.55273 28.527344 C 700.59643 34.744925 696.07568 44.638123 677.98828 58.203125 C 658.77345 88.724837 649.16602 125.46367 649.16602 168.41992 C 644.07728 174.07194 636.72855 178.02812 627.12109 180.28906 L 543.18555 180.28906 C 556.75117 149.76735 575.26198 128.00758 598.7168 115.00781 C 622.17489 102.00773 644.64151 79.96359 666.11719 48.876953 C 671.20435 33.192159 677.24547 25.456061 684.24023 25.667969 z M 211.25586 147.30469 C 225.52135 147.30469 233.23407 154.05065 234.39062 167.54492 L 188.70117 167.54492 C 189.08664 154.05065 196.60489 147.30469 211.25586 147.30469 z M 188.70117 187.78711 L 234.39062 187.78711 L 230.91992 208.02734 L 191.59375 208.02734 L 188.70117 187.78711 z M 506.72461 197.24414 L 666.11328 197.24414 C 652.25108 242.03769 638.99698 276.72865 610.96094 312.31055 L 610.83203 312.08398 C 607.55918 316.79345 603.66727 321.40892 599.16211 325.91406 C 596.00817 322.76007 591.29628 320.8769 584.98828 320.24609 C 591.92708 298.16814 595.26852 278.51792 594.95312 261.48633 C 594.63774 244.45477 586.58446 235.97266 570.81445 235.97266 C 568.17499 235.97266 565.72535 236.14198 563.4668 236.47852 C 551.23019 231.47873 532.87167 229.6108 513.12695 230.43359 L 506.72461 197.24414 z M 193.32812 226.53516 L 228.60742 226.53516 L 225.13672 248.51172 L 197.95508 248.51172 L 193.32812 226.53516 z M 516.16016 244.54688 C 528.82102 244.35451 538.75027 245.4144 545.94531 247.72461 C 545.22807 249.19572 544.66877 250.80414 544.26953 252.55078 C 541.74637 263.58977 546.14369 273.84271 557.49805 283.30469 C 557.49805 341.33821 564.49545 370.41406 578.37305 370.41406 C 577.74223 381.76844 593.24681 385.27534 600.81641 384.64453 C 618.36562 385.69225 619.96842 410.06871 608.18164 438.88086 C 594.93975 474.76142 586.36328 505.45665 586.36328 527.01953 C 594.82564 567.31645 601.58986 597.79677 605.34766 619.625 C 580.44438 635.97403 538.84756 637.92587 513 611.97852 C 523.67971 531.31226 519.93154 483.74281 488.42969 409.92969 C 494.07065 393.66803 500.40502 385.53319 507.41602 385.5332 L 539.54297 385.5332 L 532.92969 339.14453 L 508.35938 346.70312 C 499.38342 341.13592 500.79351 334.74172 506.4707 329.69531 L 504.49414 321.18945 C 493.13976 319.92777 488.74248 317.01519 491.26562 312.59961 C 493.78882 308.18401 490.96201 305.0428 482.76172 303.15039 L 505.52539 264.40625 C 508.6703 256.70122 512.2147 250.08058 516.16016 244.54688 z M 199.68945 267.01758 L 222.24414 267.01758 L 220.50977 275.69141 L 201.42383 275.69141 L 199.68945 267.01758 z M 515.23438 270.07617 C 514.81651 270.06387 514.41371 270.14001 514.0293 270.16211 C 511.97919 270.28043 510.40853 270.86095 509.30469 271.96484 C 504.88909 276.38054 504.37627 281.20851 507.8457 286.57031 C 511.31511 291.93209 523.76571 290.56172 545.21289 282.36133 C 531.46343 274.37779 521.50036 270.26154 515.23438 270.07617 z M 193.32812 286.10156 L 228.02734 286.10156 C 229.18404 287.64374 233.81164 291.88436 241.9082 298.82422 C 246.53482 296.89646 251.06422 295.64469 255.49805 295.06641 C 259.93187 294.48813 262.14844 297.28238 262.14844 303.45117 C 262.14844 309.23436 253.47481 312.12695 236.125 312.12695 C 234.96846 332.94671 226.87252 346.24794 211.83594 352.03125 L 210.09961 352.03125 C 195.44824 346.24794 187.92998 332.94671 187.54492 312.12695 C 169.03841 312.12695 159.78516 309.23436 159.78516 303.45117 C 159.78516 297.28238 162.58137 294.48813 168.17188 295.06641 C 173.76239 295.64469 177.90662 296.89646 180.60547 298.82422 C 187.93096 291.88436 192.17158 287.64374 193.32812 286.10156 z M 198.80078 297.48438 C 197.70737 297.43922 196.65465 297.59578 195.64258 297.95703 C 192.94384 298.92087 189.47318 301.33045 185.23242 305.18555 C 194.87084 310.19751 201.32827 310.96986 204.60547 307.5 C 207.88259 304.03005 207.88259 301.33011 204.60547 299.40234 C 202.55718 298.19818 200.62313 297.55963 198.80078 297.48438 z M 224.17969 297.48438 C 222.43266 297.55946 220.53462 298.19943 218.48633 299.4043 C 215.20919 301.33206 215.20919 304.03006 218.48633 307.5 C 221.76352 310.96986 228.22101 310.19945 237.85938 305.1875 C 233.23306 301.33184 229.66609 298.92228 227.16016 297.95898 C 226.22039 297.59732 225.22791 297.43932 224.17969 297.48438 z M 208.36523 309.23438 L 204.89453 330.63281 L 211.25586 333.52539 L 216.46094 330.63281 L 213.57031 309.23438 L 208.36523 309.23438 z M 211.25586 335.54883 C 206.62924 335.74162 202.77391 337.18786 199.68945 339.88672 C 203.15953 344.51363 206.62968 346.44142 210.09961 345.66992 C 215.4973 346.05554 219.54527 344.12775 222.24414 339.88672 C 219.54527 336.80183 215.88248 335.35559 211.25586 335.54883 z M 473.01758 424.7832 C 501.54209 485.93942 503.07232 559.16014 490.83594 622.89062 C 477.59291 691.9457 458.46953 820.11753 456.30273 850.45312 C 455.01664 868.45829 452.59102 884.70573 449.01758 899.19141 C 422.87073 888.33168 398.3765 872.89767 376.30273 851.03906 C 312.09928 787.46139 266.25631 666.82239 264.10547 438.94531 C 266.45962 439.39213 268.93696 439.88598 271.54883 440.43359 C 303.66155 445.38855 330.65966 448.3249 360.66602 448.71094 C 399.1083 443.61864 436.58127 436.37201 473.01758 424.7832 z M 552.94727 711.54297 C 555.61311 758.97868 570.62604 839.50754 581.98047 866.94727 C 591.11966 889.03369 596.22967 907.28884 597.54688 924.09766 C 559.10901 923.43404 521.19334 920.52236 485.48242 911.30273 C 488.10096 904.8842 491.48978 898.1445 495.64648 891.08594 C 512.36263 862.70009 520.73047 834.96819 520.73047 807.84375 C 520.73047 780.08865 541.28044 734.61454 552.94727 711.54297 z " />
</svg>
