<?xml version="1.0" encoding="UTF-8" standalone="no"?>
<svg
   width="1100"
   height="1000"
   version="1.1"
   id="svg1"
   sodipodi:docname="135EB.svg"
   inkscape:version="1.4.2 (f4327f4, 2025-05-13)"
   xmlns:inkscape="http://www.inkscape.org/namespaces/inkscape"
   xmlns:sodipodi="http://sodipodi.sourceforge.net/DTD/sodipodi-0.dtd"
   xmlns="http://www.w3.org/2000/svg"
   xmlns:svg="http://www.w3.org/2000/svg">
  <defs
     id="defs1" />
  <sodipodi:namedview
     id="namedview1"
     pagecolor="#ffffff"
     bordercolor="#666666"
     borderopacity="1.0"
     inkscape:showpageshadow="2"
     inkscape:pageopacity="0.0"
     inkscape:pagecheckerboard="0"
     inkscape:deskcolor="#d1d1d1"
     inkscape:zoom="0.26693281"
     inkscape:cx="267.85767"
     inkscape:cy="837.28935"
     inkscape:window-width="1680"
     inkscape:window-height="998"
     inkscape:window-x="-8"
     inkscape:window-y="-8"
     inkscape:window-maximized="1"
     inkscape:current-layer="svg1"
     showguides="true">
    <sodipodi:guide
       position="219.91796,740.35765"
       orientation="1,0"
       id="guide14"
       inkscape:locked="false" />
  </sodipodi:namedview>
  <path
     id="path3"
     style="fill:#000000;stroke:none;stroke-width:1"
     d="M 224.95117 0 C 194.1632 0 178.76758 13.773234 178.76758 41.320312 L 172.69141 41.320312 L 162.96875 24.914062 C 155.67676 24.509043 150.81726 27.54766 148.38672 34.029297 C 149.60206 36.459861 153.44999 43.953462 159.93164 56.511719 C 161.95718 60.562804 169.24853 62.587891 181.80664 62.587891 L 185.45312 83.857422 L 175.73047 83.857422 L 164.18555 72.917969 C 154.86817 72.917969 150.20898 77.981669 150.20898 88.109375 C 158.71617 98.236921 171.07136 103.30078 187.27539 103.30078 L 191.5293 126.39258 L 183.62891 126.39258 C 181.60337 118.29042 177.95769 114.23828 172.69141 114.23828 C 168.23517 114.23828 164.99415 119.70858 162.96875 130.64648 C 172.69113 140.77402 183.22545 145.83789 194.56836 145.83789 L 196.39062 162.24414 L 190.92188 166.49805 C 169.04626 160.42158 158.10742 165.88994 158.10742 182.9043 C 158.10742 196.67776 167.62806 203.56445 186.66797 203.56445 C 187.88332 218.55327 197.19977 232.12426 214.61914 244.27734 L 214.56055 251.41406 C 192.48533 256.54513 178.92745 297.82531 214.09375 308.95508 L 213.4043 393.75977 L 236.49414 393.75977 L 235.48633 311.12109 C 235.86207 311.11892 236.24596 311.11607 236.63477 311.11328 C 251.42647 311.00708 266.76189 311.27172 298.39648 317.9043 C 337.54099 323.94427 370.45042 327.52163 407.02734 327.99219 C 453.88741 321.78483 499.56366 312.95261 543.97852 298.82617 C 578.74909 373.37391 580.61504 462.62681 565.69922 540.3125 C 549.55635 624.48874 526.24675 780.72879 523.60547 817.70703 C 520.52975 860.76697 512.10435 895.57948 498.26367 922.10742 C 484.42299 948.63545 455.59641 965.24373 411.76758 972.16406 C 390.23763 972.9329 383.23845 977.90957 390.92773 987.13672 C 398.61698 996.36382 405.61617 1000.6828 411.76758 999.91406 L 482.13672 999.91406 C 499.82202 994.53158 514.23532 993.76214 525.38477 997.60742 C 536.53419 1001.4522 546.97826 1000.2006 556.58984 994.04883 C 566.20141 987.8974 565.95701 973.97097 555.96094 952.05664 C 545.96491 930.14183 551.18791 901.83801 571.56445 867.23633 C 591.94098 832.63477 602.14062 798.83152 602.14062 765.76758 C 602.14062 731.93489 627.18862 676.50253 641.41016 648.37891 C 644.65974 706.20173 662.96201 804.36422 676.80273 837.8125 C 690.64339 871.2608 696.90369 897.50178 696.13477 922.10742 C 682.29409 948.63545 653.46946 965.24373 609.64062 972.16406 C 588.11068 972.9329 581.1115 977.90957 588.80078 987.13672 C 596.49003 996.36382 603.48923 1000.6828 609.64062 999.91406 L 680.00781 999.91406 C 697.69309 994.53158 712.1064 993.76214 723.25586 997.60742 C 734.4053 1001.4522 744.85131 1000.2006 754.46289 994.04883 C 764.07446 987.8974 763.83203 973.97097 753.83594 952.05664 C 736.91955 926.2977 732.86058 879.89301 734.39844 840.67773 C 735.93629 801.46245 730.4036 769.6773 709.64258 744.30273 C 721.75538 717.04896 734.18112 576.27101 721.93555 520.73047 C 716.3684 495.48035 710.67195 463.37904 701.20312 425.125 C 703.99238 388.71895 723.19828 345.78094 734.7207 309.69922 L 769.96094 404.28906 C 764.99523 438.80785 768.69436 493.53136 776.49414 554.56836 C 757.62512 566.55004 749.28377 583.60822 751.55664 605.79102 L 774.37891 579.19336 L 766.1875 635.58984 C 783.58319 646.94761 797.90005 643.66351 809.21875 625.88477 C 820.53737 608.10664 818.95855 576.89213 804.3125 532.01562 C 818.97693 486.28393 817.5227 435.29008 812.27539 395.49023 C 800.5052 342.19765 790.80608 297.85163 767.44922 257.57812 C 759.63308 244.101 740.87376 240.09318 726.65039 237.1582 L 697.74805 230.24805 C 710.81983 226.40345 717.43357 219.40624 717.43359 209.41016 C 717.43357 199.41414 715.41493 193.2853 711.57031 190.97852 C 738.48274 169.4486 748.16001 139.85715 740.4707 102.17969 C 732.78144 64.502315 708.55195 42.952811 667.79883 37.570312 C 657.61056 36.224688 648.29609 35.620862 639.83789 35.789062 C 614.4633 36.293666 596.86633 43.544798 587.0625 57.673828 C 573.99074 76.512541 568.52524 89.396077 570.83203 96.316406 L 543.1875 141.34375 C 536.26719 151.33983 541.2438 159.86874 558.16016 166.78906 C 557.77092 181.46833 557.64333 183.4316 567.48047 184.38086 C 562.87378 193.12784 567.60122 214.78651 581.82617 214.01758 C 596.05132 213.24864 604.72121 217.46034 607.79688 226.6875 C 607.79688 229.76317 605.11205 231.22285 599.73242 231.39844 C 575.77072 232.18058 563.75276 234.42594 542.55859 241.85938 L 405.79688 279.64648 C 360.1322 278.37863 290.07853 279.735 253.52148 269.27734 C 247.66932 264.13884 241.49926 258.67901 234.80273 255.04688 L 234.67188 244.27734 C 252.90159 232.12426 262.62463 218.55327 263.83984 203.56445 C 282.06956 203.56445 291.18359 196.67776 291.18359 182.9043 C 291.18359 165.88994 280.44898 161.02849 258.97852 168.32031 L 252.29492 162.24414 L 255.33203 145.83789 L 262.01758 145.83789 C 264.44814 153.53489 268.70072 157.38281 274.77734 157.38281 C 278.82827 157.38281 281.66463 151.50785 283.28516 139.75977 C 273.56262 130.84757 265.05551 126.39258 257.76367 126.39258 L 262.01758 103.30078 L 271.13281 103.30078 L 282.67773 114.84766 C 291.59008 114.84766 296.04688 109.98621 296.04688 100.26367 C 287.5397 89.325936 277.20793 83.857422 265.05469 83.857422 L 268.09375 62.587891 L 276.60156 62.587891 L 287.53906 78.386719 C 294.02071 78.791879 298.88231 75.755078 302.12305 69.273438 C 300.9077 66.842882 296.85541 59.956188 289.96875 48.613281 C 287.13303 43.752017 280.85535 41.320312 271.13281 41.320312 C 271.13281 13.773235 255.739 0 224.95117 0 z M 224.94922 20.052734 C 239.93819 20.052734 248.04065 27.14168 249.25586 41.320312 L 201.25195 41.320312 C 201.65697 27.14168 209.55523 20.052734 224.94922 20.052734 z M 642.03906 53.382812 C 645.68439 53.338223 649.45497 53.59593 653.34766 54.220703 C 684.4892 59.21874 704.75141 73.248619 713.97852 96.316406 C 723.20565 119.38422 725.25973 136.33856 720.26172 147.10352 C 715.26369 157.86848 707.74414 168.31254 697.74805 178.30859 C 693.90349 174.46396 688.15998 172.16737 680.4707 171.39844 C 688.92891 144.48602 693.00165 120.53253 692.61719 99.771484 C 692.23273 79.010492 682.41461 68.671875 663.19141 68.671875 C 644.73719 68.671875 633.9097 75.424645 630.83398 88.880859 C 627.75832 102.33707 633.11833 114.83524 646.95898 126.36914 C 646.95898 197.11037 655.48984 232.55273 672.40625 232.55273 C 671.63729 246.39341 690.53655 250.66737 699.76367 249.89844 C 721.15568 251.17557 723.10996 280.89051 708.74219 316.01172 C 692.6007 359.74912 682.14453 397.1666 682.14453 423.45117 C 692.4599 472.57198 700.7045 509.72598 705.28516 536.33398 C 674.92876 556.263 624.22425 558.64277 592.7168 527.01367 C 605.73508 428.68373 601.16746 370.69685 562.76758 280.7207 C 569.64375 260.8982 577.36395 250.98241 585.91016 250.98242 L 625.07422 250.98242 L 617.01172 194.43359 L 587.0625 203.64844 C 576.12106 196.86218 577.83748 189.06745 584.75781 182.91602 L 582.34961 172.54883 C 568.50894 171.01087 563.14699 167.4606 566.22266 162.07812 C 569.29837 156.69563 565.85335 152.86735 555.85742 150.56055 L 583.60547 103.33008 C 597.06167 70.362357 616.52176 53.694955 642.03906 53.382812 z M 201.25195 62.587891 L 249.25586 62.587891 L 245.60938 83.857422 L 204.28906 83.857422 L 201.25195 62.587891 z M 206.11328 103.30078 L 243.17969 103.30078 L 239.5332 126.39258 L 210.97461 126.39258 L 206.11328 103.30078 z M 595.43945 110.24219 C 594.93011 110.22709 594.44124 110.3209 593.97266 110.34766 C 591.47362 110.49189 589.5604 111.19931 588.21484 112.54492 C 582.83236 117.92753 582.20446 123.81177 586.43359 130.34766 C 590.66271 136.88351 605.84087 135.21479 631.98438 125.21875 C 615.22416 115.48703 603.07751 110.46815 595.43945 110.24219 z M 212.79688 145.83789 L 236.49414 145.83789 L 234.67188 154.95117 L 214.61914 154.95117 L 212.79688 145.83789 z M 206.11328 165.89062 L 242.57227 165.89062 C 243.78763 167.51101 248.64907 171.96599 257.15625 179.25781 C 262.01751 177.23229 266.77686 175.91621 271.43555 175.30859 C 276.09423 174.70099 278.42383 177.63749 278.42383 184.11914 C 278.42383 190.19561 269.30783 193.23438 251.07812 193.23438 C 249.86292 215.11 241.3558 229.08549 225.55664 235.16211 L 223.73438 235.16211 C 208.33996 229.08549 200.43974 215.11 200.03516 193.23438 C 180.59009 193.23438 170.86914 190.19561 170.86914 184.11914 C 170.86914 177.63749 173.80565 174.70099 179.67969 175.30859 C 185.55372 175.91621 189.90841 177.23229 192.74414 179.25781 C 200.44115 171.96599 204.89808 167.511 206.11328 165.89062 z M 211.86133 177.84961 C 210.71246 177.80216 209.60637 177.96808 208.54297 178.34766 C 205.70737 179.36038 202.0613 181.8908 197.60547 185.94141 C 207.7327 191.20755 214.51753 192.01888 217.96094 188.37305 C 221.40426 184.72713 221.40426 181.89077 217.96094 179.86523 C 215.80877 178.6 213.7761 177.92868 211.86133 177.84961 z M 238.52734 177.84961 C 236.69171 177.9285 234.69709 178.59927 232.54492 179.86523 C 229.10159 181.89077 229.10159 184.72713 232.54492 188.37305 C 235.98832 192.01888 242.77321 191.20949 252.90039 185.94336 C 248.03945 181.89216 244.29318 179.3598 241.66016 178.34766 C 240.67273 177.96765 239.62872 177.80227 238.52734 177.84961 z M 221.91211 190.19531 L 218.26562 212.67969 L 224.94922 215.7168 L 230.41797 212.67969 L 227.38086 190.19531 L 221.91211 190.19531 z M 224.94922 217.84375 C 220.08796 218.04633 216.03581 219.56662 212.79492 222.40234 C 216.44098 227.2639 220.08846 229.28914 223.73438 228.47852 C 229.40582 228.8837 233.65841 226.85846 236.49414 222.40234 C 233.65841 219.16101 229.81049 217.64072 224.94922 217.84375 z " />
</svg>
