<?xml version="1.0" encoding="UTF-8" standalone="no"?>
<svg
   width="1100"
   height="1000"
   version="1.1"
   id="svg1"
   sodipodi:docname="135EC.svg"
   inkscape:version="1.4.2 (f4327f4, 2025-05-13)"
   xmlns:inkscape="http://www.inkscape.org/namespaces/inkscape"
   xmlns:sodipodi="http://sodipodi.sourceforge.net/DTD/sodipodi-0.dtd"
   xmlns="http://www.w3.org/2000/svg"
   xmlns:svg="http://www.w3.org/2000/svg">
  <defs
     id="defs1" />
  <sodipodi:namedview
     id="namedview1"
     pagecolor="#ffffff"
     bordercolor="#666666"
     borderopacity="1.0"
     inkscape:showpageshadow="2"
     inkscape:pageopacity="0.0"
     inkscape:pagecheckerboard="0"
     inkscape:deskcolor="#d1d1d1"
     inkscape:zoom="0.26693281"
     inkscape:cx="762.36413"
     inkscape:cy="402.72307"
     inkscape:window-width="1680"
     inkscape:window-height="998"
     inkscape:window-x="-8"
     inkscape:window-y="-8"
     inkscape:window-maximized="1"
     inkscape:current-layer="svg1"
     showguides="true" />
  <path
     id="path3"
     style="fill:#000000;stroke:none;stroke-width:1"
     d="M 539.95898 0.02734375 C 513.64328 0.55066226 495.39204 8.0715451 485.22461 22.724609 C 471.66804 42.262031 466.00024 55.621834 468.39258 62.798828 L 439.72266 109.49609 C 432.54568 119.86291 437.70818 128.70973 455.25195 135.88672 C 454.84827 151.11043 454.71598 153.14639 464.91797 154.13086 C 460.14042 163.20224 465.04237 185.66267 479.79492 184.86523 C 494.54766 184.06777 503.53877 188.43648 506.72852 198.00586 C 506.72852 201.1956 503.94734 202.89258 498.36523 202.89258 C 492.78311 202.89258 483.39613 203.03687 470.23828 203.43555 C 457.0804 203.83346 446.64606 208.85447 439.07031 218.42383 C 392.16567 258.401 354.50886 306.49593 305.81836 344.72461 C 260.32746 336.4844 174.34909 342.52742 136.40234 331.80078 C 129.47394 325.89748 123.17143 321.37234 117.50586 318.22656 C 117.49686 316.67628 117.50586 315.25677 117.50586 313.77344 C 117.50586 282.20119 118.89872 259.92898 121.74023 246.98438 C 123.95028 237.82842 125.92795 229.47578 127.82227 221.89844 C 136.66251 216.53117 148.84211 207.36648 164.3125 194.42188 C 175.3628 181.47735 186.49269 174.75527 197.54297 174.43945 C 206.06746 169.38789 210.25 164.39531 210.25 159.34375 C 205.8299 153.02929 201.30226 149.89648 196.56641 149.89648 C 193.09343 149.58066 189.08968 149.69899 184.51172 150.33008 C 179.93373 150.96157 176.16769 151.30859 173.32617 151.30859 C 165.74885 151.30859 159.0163 146.55367 153.01758 137.08203 C 154.59618 125.71617 165.50079 109.24648 185.70703 87.777344 C 204.96609 66.939658 214.59375 48.957413 214.59375 33.802734 C 214.59375 20.858112 208.68173 11.11064 197 4.4804688 C 185.31827 -2.1497223 172.67568 -1.3396495 159.09961 6.8691406 L 55.929688 6.8691406 C 42.353631 -1.339629 29.65014 -2.1497018 17.810547 4.4804688 C 5.9709541 11.11064 -2.3684758e-15 20.858112 0 33.802734 C 0 48.957413 9.6276487 66.939658 28.886719 87.777344 C 49.408663 109.24648 60.65838 125.83394 62.552734 137.51562 C 56.554013 147.30301 49.714066 152.17773 42.136719 152.17773 C 39.295225 152.17773 35.638514 151.88086 31.060547 151.0918 C 26.482619 150.3024 22.478839 150.01425 19.005859 150.33008 C 13.954302 150.64591 9.1994177 153.78055 4.7792969 159.7793 C 4.7792969 164.83086 8.9598544 170.05069 17.484375 175.41797 C 28.534668 175.7338 39.784376 181.88146 51.150391 193.87891 C 64.410724 207.13926 76.3631 216.53116 87.097656 221.89844 C 89.307719 229.47578 91.620019 237.82854 93.830078 246.98438 C 96.336863 259.83182 97.736556 281.81718 98.066406 313.01367 C 73.804663 316.05667 57.972094 361.36153 96.328125 373.28711 C 95.76542 387.55148 95.095298 403.243 94.265625 420.31055 L 121.19727 420.31055 C 120.29279 404.02991 119.60598 388.97216 119.02539 375.24219 C 134.36382 374.9781 150.27031 375.30827 183.09961 382.08398 C 254.94669 396.45344 276.84997 392.10004 323.08594 388.38281 C 336.73605 380.47853 370.00691 368.423 393.13281 350.48047 C 416.25875 332.53794 433.73363 313.22188 445.69531 292.48828 C 468.02376 335.55036 479.14453 370.46527 479.14453 397.17969 C 444.86918 408.72485 401.242 432.44065 348.38867 468.20312 C 328.47386 456.33938 308.78187 456.59511 289.31055 469.07227 L 324.60547 477.75977 L 268.56836 496.54883 C 266.18934 517.96282 275.92357 529.68002 297.67383 531.84375 C 319.42356 534.00767 347.58106 517.95108 382.27344 483.4082 C 411.78112 478.72283 442.37746 467.71766 474.03906 450.50195 C 470.7121 474.18938 466.31254 500.06288 462.52734 521.0918 L 463.07031 523.26367 C 446.32871 610.56193 422.15331 772.59557 419.41406 810.94531 C 416.22427 855.6023 407.48683 891.70692 393.13281 919.21875 C 378.7788 946.73069 348.88408 963.95386 303.42969 971.13086 C 281.10121 971.92821 273.84194 977.09078 281.81641 986.66016 C 289.79084 996.22949 297.05012 1000.7075 303.42969 999.91016 L 376.4082 999.91016 C 394.74942 994.32804 409.69679 993.53161 421.25977 997.51953 C 432.82272 1001.5069 443.65499 1000.208 453.62305 993.82812 C 463.59111 987.44853 463.33752 973.00642 452.9707 950.2793 C 442.60393 927.55169 448.02006 898.19752 469.15234 862.3125 C 490.28462 826.4276 500.86328 791.37034 500.86328 757.08008 C 500.86328 721.99258 526.84083 664.50459 541.58984 635.33789 C 544.95995 695.3053 563.94087 797.10805 578.29492 831.79688 C 592.64893 866.48576 599.1412 893.70052 598.34375 919.21875 C 583.98973 946.73069 554.09501 963.95386 508.64062 971.13086 C 486.31214 971.92821 479.05483 977.09078 487.0293 986.66016 C 495.00374 996.22949 502.26105 1000.7075 508.64062 999.91016 L 581.61914 999.91016 C 599.96035 994.32804 614.90772 993.53161 626.4707 997.51953 C 638.03365 1001.5069 648.86591 1000.208 658.83398 993.82812 C 668.80203 987.44853 668.55043 973.00642 658.18359 950.2793 C 640.63978 923.56499 636.43049 875.43732 638.02539 834.76758 C 639.62028 794.09785 633.8826 761.13405 612.35156 734.81836 C 624.91362 706.55377 637.80131 560.55557 625.10156 502.95508 C 619.32794 476.76846 613.41962 443.47557 603.59961 403.80273 C 609.21858 330.46236 679.07747 231.56265 629.99023 208.86523 L 600.01562 201.69922 C 613.57221 197.71202 620.43162 190.45471 620.43164 180.08789 C 620.43162 169.72112 618.33876 163.365 614.35156 160.97266 C 642.26214 138.64422 652.29872 107.95573 644.32422 68.880859 C 636.34977 29.806062 611.22164 7.4571301 568.95703 1.875 C 558.39088 0.47946807 548.73089 -0.14709538 539.95898 0.02734375 z M 38.335938 14.363281 C 53.490609 14.363281 61.142578 20.858112 61.142578 33.802734 C 61.142578 44.221583 56.970502 49.441405 48.761719 49.441406 C 39.605663 49.441405 35.195893 46.653722 35.511719 40.970703 C 36.064416 39.727558 36.686019 38.918708 37.359375 38.582031 C 37.408085 38.562611 37.634107 38.48745 37.683594 38.472656 C 37.733544 38.462486 37.959167 38.368842 38.009766 38.363281 L 38.119141 38.363281 C 38.170941 38.366981 38.393045 38.354981 38.445312 38.363281 C 38.975769 38.492781 39.699063 38.966614 40.291016 39.558594 C 45.658288 39.558594 48.326172 37.591425 48.326172 33.802734 C 48.326178 29.066904 45.431023 26.744141 39.748047 26.744141 C 29.013496 26.744141 23.210857 31.616911 22.263672 41.404297 C 23.526589 50.875945 27.292608 57.025654 33.449219 59.867188 C 39.605807 62.708793 50.104415 62.826726 64.943359 60.300781 L 77.214844 113.40625 C 78.162029 120.35204 77.351934 123.9498 74.826172 124.26562 L 27.041016 68.011719 L 26.933594 68.011719 L 26.824219 68.011719 L 26.824219 67.904297 C 26.006517 67.118679 23.366768 63.456055 19.005859 57.042969 C 13.638587 49.149904 10.861328 41.607322 10.861328 34.345703 C 10.861328 21.085362 20.024034 14.363281 38.335938 14.363281 z M 176.69141 14.363281 L 176.69336 14.363281 C 195.00527 14.363281 204.16797 21.085361 204.16797 34.345703 C 204.16797 41.607321 201.39073 49.149907 196.02344 57.042969 C 191.66252 63.456044 189.13017 67.009287 188.3125 67.794922 L 188.20508 67.902344 L 188.0957 68.011719 L 187.98633 68.011719 L 140.20312 124.26758 C 139.72956 124.20868 139.25188 124.01513 138.90039 123.72266 C 137.52064 122.34292 137.07447 118.83274 137.81445 113.40625 L 150.08594 60.300781 C 164.92489 62.826688 175.36259 62.708698 181.36133 59.867188 C 187.36004 57.025694 191.06717 50.875979 192.33008 41.404297 C 191.69862 31.616914 186.0158 26.744141 175.28125 26.744141 C 169.59824 26.744141 166.70117 29.066902 166.70117 33.802734 C 166.70117 37.59143 169.37099 39.558594 174.73828 39.558594 C 175.33028 38.966603 175.94426 38.602162 176.47461 38.472656 C 176.52701 38.464356 176.74907 38.366951 176.80078 38.363281 L 176.91016 38.363281 C 176.96076 38.368781 177.18433 38.353111 177.23438 38.363281 C 177.28367 38.378081 177.51162 38.453253 177.56055 38.472656 C 178.23391 38.809334 178.96315 39.727541 179.51562 40.970703 C 179.83145 46.653719 175.19629 49.441406 165.72461 49.441406 C 157.51583 49.441406 153.45117 44.22158 153.45117 33.802734 C 153.45117 20.858112 161.22101 14.363281 176.69141 14.363281 z M 542.24023 18.273438 C 546.02075 18.227187 549.93169 18.494633 553.96875 19.142578 C 586.2653 24.325987 607.28029 38.875482 616.84961 62.798828 C 626.41898 86.722213 628.5486 104.30647 623.36523 115.4707 C 618.18182 126.63492 610.38245 137.46522 600.01562 147.83203 C 596.02845 143.84479 590.07213 141.46347 582.09766 140.66602 C 590.86957 112.75544 595.09404 87.91386 594.69531 66.382812 C 594.29659 44.85181 584.11391 34.128906 564.17773 34.128906 C 545.03906 34.128906 533.81088 41.132599 530.62109 55.087891 C 527.43135 69.043178 532.98976 82.005111 547.34375 93.966797 C 547.34375 167.33175 556.19057 204.08789 573.73438 204.08789 C 572.93691 218.44191 577.30567 225.19393 586.875 224.39648 L 498.47461 366.11914 C 489.80443 333.29506 473.32943 289.04288 460.0293 254.04297 C 467.1605 233.48528 475.16807 223.20116 484.03125 223.20117 L 524.64648 223.20117 L 516.28516 164.55664 L 485.22461 174.11328 C 473.87736 167.07532 475.65895 158.99091 482.83594 152.61133 L 480.33789 141.85938 C 465.98388 140.2645 460.42354 136.5821 463.61328 131 C 466.80307 125.41787 463.22996 121.44704 452.86328 119.05469 L 481.64062 70.074219 C 495.59589 35.883759 515.77652 18.597157 542.24023 18.273438 z M 78.191406 23.919922 L 136.40234 23.919922 L 123.58789 128.50195 L 91.441406 128.50195 C 86.074097 72.934791 81.664331 38.127431 78.191406 23.919922 z M 493.91406 77.242188 C 493.38583 77.226568 492.87855 77.323766 492.39258 77.351562 C 489.80086 77.501136 487.81539 78.235329 486.41992 79.630859 C 480.83781 85.2131 480.18824 91.31545 484.57422 98.09375 C 488.9602 104.87202 504.70131 103.14021 531.81445 92.773438 C 514.43262 82.680777 501.83541 77.476534 493.91406 77.242188 z M 107.51367 137.08203 C 116.3539 137.08203 123.77861 138.35704 129.77734 140.88281 C 135.77606 143.40859 142.44966 147.8773 149.86914 154.34961 C 157.28862 160.82192 161.51767 166.32794 162.46484 170.74805 C 161.20194 179.27258 154.58926 189.02002 142.5918 200.07031 C 133.43586 209.22626 121.72118 213.75391 107.51367 213.75391 C 93.621877 213.75391 81.907211 209.22626 72.435547 200.07031 C 60.753788 189.02002 54.141077 179.39043 52.5625 171.18164 C 53.825361 166.4458 58.174271 160.82192 65.59375 154.34961 C 73.013229 147.87732 79.855132 143.40861 86.011719 140.88281 C 92.168306 138.35703 99.304881 137.08205 107.51367 137.08203 z M 96.654297 151.74219 C 86.23547 153.32083 79.393567 157.73058 76.236328 164.99219 C 76.236328 170.04375 79.371096 172.59375 85.685547 172.59375 C 91.684292 172.59374 95.629111 170.97166 97.523438 167.81445 C 99.73349 165.28867 101.23573 162.03797 101.86719 157.93359 C 101.86719 154.46061 100.12727 152.37366 96.654297 151.74219 z M 118.91797 151.74219 C 115.44501 152.37362 113.70508 154.46065 113.70508 157.93359 C 114.33653 162.03794 115.7294 165.28866 117.93945 167.81445 C 119.83379 170.97166 123.77861 172.59375 129.77734 172.59375 C 135.77607 172.59376 138.79102 170.04373 138.79102 164.99219 C 135.63378 157.73063 129.02108 153.32085 118.91797 151.74219 z M 90.898438 185.84375 L 90.898438 197.67969 L 124.56445 197.67969 L 124.56445 185.84375 L 90.898438 185.84375 z M 611.41797 290.64258 C 594.67779 336.00215 583.83398 374.80698 583.83398 402.06641 C 594.53193 453.00906 603.08343 491.54185 607.83398 519.13672 C 576.35169 539.80488 523.76587 542.27288 491.08984 509.4707 C 495.49822 483.82778 499.03674 457.69502 501.51562 434.10352 C 505.1245 431.77835 508.7394 429.41672 512.375 426.93555 C 556.20275 391.11925 591.28404 331.87545 611.41797 290.64258 z " />
</svg>
