<?xml version="1.0" encoding="UTF-8" standalone="no"?>
<svg
   width="900"
   height="1000"
   version="1.1"
   id="svg1"
   sodipodi:docname="135FD.svg"
   inkscape:version="1.4.2 (f4327f4, 2025-05-13)"
   xmlns:inkscape="http://www.inkscape.org/namespaces/inkscape"
   xmlns:sodipodi="http://sodipodi.sourceforge.net/DTD/sodipodi-0.dtd"
   xmlns="http://www.w3.org/2000/svg"
   xmlns:svg="http://www.w3.org/2000/svg">
  <defs
     id="defs1" />
  <sodipodi:namedview
     id="namedview1"
     pagecolor="#ffffff"
     bordercolor="#666666"
     borderopacity="1.0"
     inkscape:showpageshadow="2"
     inkscape:pageopacity="0.0"
     inkscape:pagecheckerboard="0"
     inkscape:deskcolor="#d1d1d1"
     inkscape:zoom="0.53386562"
     inkscape:cx="137.6751"
     inkscape:cy="516.04747"
     inkscape:window-width="1680"
     inkscape:window-height="998"
     inkscape:window-x="-8"
     inkscape:window-y="-8"
     inkscape:window-maximized="1"
     inkscape:current-layer="svg1"
     showguides="true">
    <sodipodi:guide
       position="900,1000"
       orientation="0,-1"
       id="guide1"
       inkscape:locked="false" />
    <sodipodi:guide
       position="900,0"
       orientation="0,-1"
       id="guide2"
       inkscape:locked="false" />
    <sodipodi:guide
       position="706.59639,704.99755"
       orientation="-0.8671177,0.4981033"
       id="guide3"
       inkscape:locked="false" />
  </sodipodi:namedview>
  <path
     id="path2"
     style="baseline-shift:baseline;display:inline;overflow:visible;vector-effect:none;fill:#000000;enable-background:accumulate;stop-color:#000000;stop-opacity:1;opacity:1"
     d="M 610.37109 0.0546875 C 600.48583 0.26015471 590.38339 1.0481874 580.06445 2.4179688 C 538.78836 7.8970946 509.01758 39.856893 490.75391 98.300781 C 480.52616 111.4507 468.83937 129.35103 455.68945 151.99805 C 448.38378 167.33961 448.01684 175.92172 454.5918 177.74805 C 461.16676 179.57444 466.64809 182.31602 471.03125 185.96875 C 459.55845 192.52498 464.5366 198.94811 472.125 200.21289 C 474.31624 199.48233 473.58615 200.94493 469.93359 204.59766 C 466.28038 208.25039 466.82766 211.35325 471.57617 213.91016 C 476.3248 216.46704 478.69922 224.32274 478.69922 237.47266 C 478.69922 249.89197 485.64106 256.10156 499.52148 256.10156 C 515.59356 256.10156 527.28244 255.36926 534.58789 253.9082 L 538.77148 286.3418 C 457.42525 287.62838 400.25926 312.36341 367.27344 360.54492 C 343.27744 378.91684 311.03415 414.16112 270.54102 466.27734 C 250.66935 444.15607 192.80984 385.93541 130.57031 338.69336 C 128.72004 315.87351 124.22943 300.69143 115.24023 284.98047 C 120.02044 281.06004 124.20289 277.95209 127.78711 275.6582 C 135.52087 270.93199 142.60968 266.63642 149.05469 262.76953 C 158.72195 265.13264 173.22388 267.17194 192.55859 268.89062 C 208.88535 267.60198 220.91425 270.61033 228.64844 277.91406 C 237.88618 280.27728 244.22486 279.74 247.66211 276.30273 C 248.95108 268.99847 247.98417 263.73611 244.76172 260.51367 C 242.61277 257.93639 239.76514 255.30479 236.2207 252.61914 C 232.67625 249.9335 229.9374 247.62295 228.00391 245.68945 C 222.84806 240.53362 221.45134 232.69272 223.81445 222.16602 C 232.62247 215.50631 251.20507 211.74606 279.5625 210.88672 C 306.84588 209.81256 325.64513 204.12049 335.95703 193.80859 C 344.76504 185.00059 347.44897 174.36634 344.01172 161.90625 C 340.57445 149.44616 331.44429 141.39036 316.62109 137.73828 L 246.37305 67.488281 C 242.72098 52.66509 234.61056 43.482279 222.04297 39.9375 C 209.47548 36.39283 198.78848 39.024008 189.98047 47.832031 C 179.66858 58.143921 173.97454 76.941218 172.90039 104.22461 C 172.25596 132.79696 168.60504 151.70183 161.94531 160.93945 C 151.20382 163.51737 143.25362 162.22821 138.09766 157.07227 C 136.16428 155.13888 133.90953 152.34595 131.33203 148.69336 C 128.75454 145.04075 126.176 142.14007 123.59766 139.99219 C 119.94547 136.76985 114.57566 135.6955 107.48633 136.76953 C 104.04907 140.20679 103.40454 146.6529 105.55273 156.10547 C 112.85698 163.83932 116.2929 175.65538 115.86328 191.55273 C 115.86317 209.59849 117.68962 224.10032 121.3418 235.05664 C 117.68962 241.71635 113.49956 248.91263 108.77344 256.64648 C 107.02674 259.23977 104.85138 262.17198 102.24414 265.44336 C 96.633648 257.84417 90.026082 249.52666 82.269531 239.8125 L 82.269531 239.81055 C 72.065748 248.35343 70.683048 258.23418 78.121094 269.44727 C 68.937893 264.35463 62.312515 264.067 57.671875 267.93164 C 39.612649 282.97104 21.485872 308.06164 33.058594 323.63477 C 34.942549 326.16996 36.910142 328.61445 38.957031 330.9668 C 25.379337 343.66828 9.4441832 358.31598 -8.8457031 374.91016 L 9.5234375 393.27734 C 26.095949 374.75507 40.766197 358.68699 53.537109 345.07227 C 67.17191 356.13622 83.222314 363.99538 101.1543 368.19531 L 200.80273 487.64844 C 238.2964 535.64036 272.60286 546.13803 303.72266 519.14258 C 334.46752 492.52205 374.39884 458.77828 423.51562 417.91016 C 419.3913 456.9036 424.63919 491.77276 439.26172 522.51758 C 453.50925 553.2624 477.31803 621.68778 510.6875 727.79492 L 326.21875 591.13086 C 298.84828 566.01009 274.852 553.44922 254.23047 553.44922 C 195.36547 554.19909 169.68291 578.75814 177.18164 627.125 L 208.11328 848.15039 C 163.49575 859.77344 143.24871 893.32965 147.37305 948.82031 C 126.75151 952.94462 108.19264 958.56956 91.695312 965.69336 C 74.823313 972.81717 57.762825 976.00378 40.515625 975.25391 C 22.893625 974.12909 11.645618 982.37797 6.7714844 1000 L 894.81055 1000 C 875.68881 964.38099 849.63125 950.13401 816.63672 957.25781 C 783.26745 964.00668 760.58198 949.00947 748.58398 912.26562 C 736.58605 875.5218 716.52847 867.83562 688.4082 889.20703 C 715.02867 837.84067 716.15205 783.66227 691.78125 726.67188 C 692.90592 664.43232 696.65536 609.69126 703.0293 562.44922 C 736.3987 590.56948 770.70522 608.37821 805.94922 615.87695 C 841.19329 623.3757 857.69087 609.31627 855.44141 573.69727 C 853.56661 537.70332 834.25741 475.83874 797.51367 388.10352 C 792.70385 339.49846 770.60535 308.69553 730.67578 293.23633 L 855.85352 75.322266 L 821.16797 55.398438 L 690.17773 283.43359 C 680.9238 282.24046 671.06767 281.53611 660.60742 281.30469 L 660.60742 227.60742 C 680.3323 219.57136 699.32617 204.59615 717.58984 182.67969 C 735.85352 160.76323 744.98437 130.44563 744.98438 91.726562 C 744.98438 53.007447 727.8183 27.07369 693.48242 13.923828 C 667.73057 4.0614008 640.02679 -0.56171422 610.37109 0.0546875 z M 617.04688 19.675781 C 632.20577 20.588971 648.91797 23.421367 667.18164 28.169922 C 703.70911 37.667073 721.97266 59.584106 721.97266 93.919922 C 721.97266 127.52516 709.73511 156.01502 685.26172 179.39258 C 660.78821 202.77015 645.26441 208.98169 638.68945 198.02344 C 630.6535 187.79572 636.68135 172.81856 656.77148 153.09375 C 676.86126 133.36893 681.79219 114.00794 671.56445 95.013672 C 661.33671 76.019372 639.7868 74.560709 606.91211 90.632812 C 595.954 78.213461 569.65294 68.713622 528.01172 62.138672 C 536.04765 41.683311 552.12038 28.533853 576.22852 22.689453 C 588.2826 19.767274 601.888 18.762595 617.04688 19.675781 z M 209.89844 49.890625 C 215.81973 50.102086 222.28411 53.711849 229.29297 60.720703 C 239.60475 71.032492 240.35685 80.592375 231.54883 89.400391 C 224.45939 96.489835 218.12266 97.24182 212.53711 91.65625 C 206.30669 85.425841 205.23223 80.485734 209.31445 76.833984 C 212.10729 75.75962 213.5038 76.511816 213.50391 79.089844 C 217.15597 82.741913 220.27159 83.277246 222.84961 80.699219 C 226.07207 77.476761 225.74979 73.933388 221.88281 70.066406 C 214.57877 62.762367 207.27506 62.117736 199.9707 68.132812 C 194.38514 75.437064 192.7189 82.15075 194.97461 88.273438 C 197.22989 94.396554 204.26636 101.6471 216.08203 110.02539 L 188.36914 154.49414 C 184.28767 159.86447 181.27952 161.79826 179.3457 160.29492 L 185.14648 89.400391 C 185.11795 89.428927 185.09328 89.436976 185.07422 89.423828 C 184.81515 89.205433 185.48223 84.900126 187.08008 76.511719 C 188.79864 67.488783 192.12733 60.505477 197.06836 55.564453 C 201.0159 51.616919 205.29299 49.726155 209.89844 49.890625 z M 517.05469 80.767578 C 550.66 82.959231 578.42143 91.726845 600.33789 107.06836 C 598.87678 120.21826 603.98891 120.76696 615.67773 108.71289 C 639.41837 84.230304 669.66407 96.836353 652.93555 129.5332 C 644.8995 145.24 634.85476 158.573 622.80078 169.53125 C 610.7466 180.48946 608.00707 191.448 614.58203 202.40625 C 621.15699 213.36447 625.54084 222.86239 627.73242 230.89844 C 627.00192 289.34238 631.74936 318.9217 641.97656 319.6582 C 652.99645 320.45179 658.41258 318.73879 695.15625 321.73828 C 731.90018 324.73777 734.52403 360.91987 703.0293 430.2832 C 675.86004 502.28309 661.28138 601.52932 658.59961 728.91992 L 557.92969 751.41602 C 508.81302 615.31392 478.25588 531.89131 466.25781 501.14648 C 454.25995 470.7766 450.69813 426.53319 455.57227 368.41797 C 463.071 333.54883 484.44148 316.49035 519.68555 317.24023 C 554.92961 317.99011 568.11827 307.04003 566.36523 283.49609 C 563.97843 251.44064 552.85064 236.74183 525.82031 239.66406 C 498.78998 242.58626 487.46635 233.82059 491.84961 213.36523 C 507.92182 203.86807 513.58444 197.10788 508.83594 193.08984 C 504.08741 189.0718 495.50135 186.6993 483.08203 185.96875 C 483.08203 178.66328 476.87244 172.45176 464.45312 167.33789 C 476.87246 139.57702 488.9265 120.21802 500.61523 109.25977 C 512.30405 103.41539 524.54149 103.41539 537.32617 109.25977 C 550.11084 115.10417 562.71349 119.12278 575.13281 121.31445 L 575.13281 113.64258 C 567.09675 112.91203 556.68508 109.07695 543.90039 102.13672 C 531.11583 95.196505 518.14992 93.91754 505 98.300781 C 509.38326 90.995321 513.40214 85.150878 517.05469 80.767578 z M 249.91797 94.234375 L 289.55273 133.87109 L 209.63672 196.38672 L 187.72461 174.47461 C 221.88252 133.01236 242.61373 106.26485 249.91797 94.234375 z M 640.2832 101.96094 C 637.99186 101.82928 635.27154 102.22815 632.11523 103.23242 C 615.33953 108.57016 597.77338 135.55188 603.625 144.32812 C 590.29538 150.2526 587.29785 163.95718 599.24023 168.43555 C 611.84347 173.16177 639.47145 144.56737 646.36133 127.3418 C 652.07567 113.05496 650.21185 102.53143 640.2832 101.96094 z M 519.17188 111.10156 C 514.56313 111.24424 510.20505 112.45728 506.0957 114.74023 L 495.13672 124.60156 L 495.13672 133.36914 L 500.61523 133.36914 C 515.95683 140.67461 533.12486 140.67461 552.11914 133.36914 L 571.84375 136.65625 L 571.84375 126.79492 L 553.2168 125.69727 C 540.66051 115.65222 529.31101 110.78766 519.17188 111.10156 z M 635.47266 113.68164 C 638.76009 113.77164 640.19802 115.768 639.78711 119.67188 C 639.05652 126.61209 635.94981 133.18685 630.4707 139.39648 C 624.99158 145.60615 619.87741 149.98802 615.12891 152.54492 C 610.3805 155.10185 610.3805 153.09253 615.12891 146.51758 C 619.87741 139.94238 619.87741 137.57008 615.12891 139.39648 C 610.3805 141.22284 609.46812 139.21353 612.39062 133.36914 C 615.31282 127.52475 619.33145 122.04552 624.44531 116.93164 C 629.23959 114.69433 632.91573 113.61173 635.47266 113.68164 z M 515.95703 118.02734 C 513.03452 121.6801 513.03452 125.69873 515.95703 130.08203 C 511.57375 128.62096 507.92195 127.15836 505 125.69727 C 506.4611 122.77506 510.11255 120.21899 515.95703 118.02734 z M 530.20312 120.21875 L 545.54492 128.98633 C 539.70046 130.44742 533.85607 131.17578 528.01172 131.17578 C 533.12612 128.25357 533.8557 124.60206 530.20312 120.21875 z M 306.44141 146.22852 C 311.81887 146.03216 317.46935 148.89514 323.39062 154.81641 C 335.85071 167.27649 337.56786 178.01807 328.54492 187.04102 C 323.6039 191.98204 316.62246 195.31062 307.59961 197.0293 C 299.24666 198.62004 294.94332 199.29098 294.69141 199.04102 C 294.68773 199.03667 294.68301 199.02831 294.68164 199.02344 C 294.67907 199.00717 294.68718 198.9847 294.70898 198.96289 L 223.81641 204.76367 C 222.31253 202.82997 224.24633 199.82377 229.61719 195.74219 L 274.08594 168.0293 C 282.46465 179.84455 289.66243 186.82632 295.67773 188.97461 C 301.69237 191.12226 308.35146 189.40339 315.65625 183.81836 C 321.88634 176.72903 321.34917 169.53082 314.04492 162.22656 C 310.17804 158.35968 306.6326 158.03731 303.41016 161.25977 C 300.83213 163.83779 301.36942 166.9534 305.02148 170.60547 C 307.59866 170.60514 308.35086 172.00166 307.27734 174.79492 C 303.62517 178.87673 298.57773 177.69491 292.13281 171.25 C 286.54725 165.66444 287.29728 159.32772 294.38672 152.23828 C 298.24022 148.38477 302.25893 146.38124 306.44141 146.22852 z M 602.52734 153.0918 C 607.64121 156.74452 608.55479 159.8513 605.26758 162.4082 C 601.98027 164.96536 599.60583 164.78356 598.14453 161.86133 C 596.68333 158.93911 598.14417 156.01596 602.52734 153.09375 L 602.52734 153.0918 z M 497.83008 164.8457 C 496.54001 164.811 495.28126 167.11815 495.68555 169.53125 C 496.31259 173.29314 491.58432 177.20946 485.82227 170.625 C 478.79313 162.59118 475.41222 166.64851 475.41211 171.72266 C 478.33418 170.26196 481.43946 171.54076 484.72656 175.55859 C 491.96771 184.4087 500.73466 176.18032 500.06641 169.53125 C 499.72751 166.14329 498.77139 164.87099 497.83008 164.8457 z M 146.01367 174.27148 C 148.04113 174.24463 150.23647 174.31347 152.59961 174.47461 C 162.05216 175.11914 169.73286 176.67608 175.64062 179.14648 C 181.54841 181.61711 187.29334 185.6449 192.87891 191.23047 C 198.89419 197.24576 203.08417 203.15286 205.44727 208.95312 C 207.81037 214.75359 209.31444 222.38141 209.95898 231.83398 C 210.6033 241.28632 209.74387 247.83795 207.38086 251.49023 C 200.72116 256.43125 189.54974 258.57995 173.86719 257.93555 C 161.40699 257.93555 150.34314 253.10095 140.67578 243.43359 C 131.22334 233.98114 126.39059 222.91717 126.17578 210.24219 C 125.74617 194.77444 127.78741 183.71244 132.29883 177.05273 C 135.36009 175.28031 139.93129 174.35204 146.01367 174.27148 z M 160.80273 187.68945 C 157.99314 187.49812 155.25815 187.92729 152.59961 188.97461 C 149.16235 192.41187 149.59207 196.27762 153.88867 200.57422 C 157.97047 204.65602 161.7307 206.26754 165.16797 205.4082 C 168.39075 205.19361 171.61371 203.90444 174.83594 201.54102 C 177.19926 199.17769 177.41222 196.6011 175.47852 193.80859 C 170.37627 190.04903 165.48539 188.00834 160.80273 187.68945 z M 479.53711 191.11328 C 480.42117 191.13918 481.42012 191.24452 482.53516 191.44727 C 486.55319 192.17785 491.30214 192.9081 496.78125 193.63867 C 502.26047 194.36918 504.63293 194.73633 503.90234 194.73633 L 477.60547 195.83008 C 472.80089 194.62808 473.3492 190.93203 479.53711 191.11328 z M 502.80859 198.02344 C 500.45944 200.37215 490.83382 204.87045 484.17969 205.69336 C 477.47112 206.52296 477.25165 203.85358 479.79492 201.31055 L 502.80859 198.02344 z M 187.08203 207.64844 C 185.61685 207.61822 184.21987 208.26841 182.89062 209.59766 C 180.52742 212.82011 179.23826 216.04306 179.02344 219.26562 C 178.1641 222.70289 179.77574 226.46129 183.85742 230.54297 C 187.93922 234.62476 191.69947 234.94703 195.13672 231.50977 C 197.92956 224.42034 196.42538 216.90181 190.625 208.95312 C 189.40318 208.10722 188.22162 207.67194 187.08203 207.64844 z M 148.41016 213.14258 L 140.35547 221.19922 L 163.23438 244.07812 L 171.29102 236.02148 L 148.41016 213.14258 z M 734.52539 433.0957 C 748.39812 476.96332 764.89399 512.20764 784.01562 538.82812 C 779.14157 534.70381 755.52216 524.76687 713.1543 509.01953 C 718.02843 485.77344 725.15199 460.4661 734.52539 433.0957 z M 250.85547 619.25195 L 295.28711 619.25195 L 500.56445 762.66406 L 271.66602 831.83984 C 276.54015 724.98283 269.60234 654.12108 250.85547 619.25195 z M 663.66211 752.54102 C 679.40938 814.03067 669.84758 867.08563 634.97852 911.70312 C 583.61212 941.69808 520.9973 946.00812 447.13477 924.63672 C 373.2723 903.64025 303.16087 907.95225 236.79688 937.57227 C 243.54581 914.32617 298.28491 875.89527 401.01758 822.2793 L 663.66211 752.54102 z " />
</svg>
