<?xml version="1.0" encoding="UTF-8" standalone="no"?>
<svg
   width="1100"
   height="1000"
   version="1.1"
   id="svg1"
   sodipodi:docname="135F5.svg"
   inkscape:version="1.4.2 (f4327f4, 2025-05-13)"
   xmlns:inkscape="http://www.inkscape.org/namespaces/inkscape"
   xmlns:sodipodi="http://sodipodi.sourceforge.net/DTD/sodipodi-0.dtd"
   xmlns="http://www.w3.org/2000/svg"
   xmlns:svg="http://www.w3.org/2000/svg">
  <defs
     id="defs1" />
  <sodipodi:namedview
     id="namedview1"
     pagecolor="#ffffff"
     bordercolor="#666666"
     borderopacity="1.0"
     inkscape:showpageshadow="2"
     inkscape:pageopacity="0.0"
     inkscape:pagecheckerboard="0"
     inkscape:deskcolor="#d1d1d1"
     inkscape:zoom="0.53386562"
     inkscape:cx="546.01755"
     inkscape:cy="703.36052"
     inkscape:window-width="1680"
     inkscape:window-height="998"
     inkscape:window-x="-8"
     inkscape:window-y="-8"
     inkscape:window-maximized="1"
     inkscape:current-layer="svg1"
     showguides="true">
    <sodipodi:guide
       position="219.91796,740.35765"
       orientation="1,0"
       id="guide14"
       inkscape:locked="false" />
  </sodipodi:namedview>
  <path
     id="path3"
     style="fill:#000000;stroke:none;stroke-width:1"
     d="M 151.76172 0.0625 C 145.37968 -0.3339004 139.21557 1.1331431 133.26953 4.4628906 C 121.3776 11.122386 115.43164 20.953177 115.43164 33.955078 C 115.43164 49.176915 125.10295 67.253685 144.44727 88.183594 C 165.06009 109.74768 176.31802 126.39551 178.2207 138.12891 C 172.19539 147.9596 165.37654 152.875 157.76562 152.875 C 154.91167 152.875 151.18616 152.47905 146.58789 151.68555 C 141.98963 150.89204 137.94727 150.65299 134.45898 150.9707 C 129.38509 151.28795 124.62722 154.45922 120.1875 160.48438 C 120.1875 165.55827 124.46906 170.7905 133.03125 176.18164 C 144.13046 176.49873 155.38839 182.6839 166.80469 194.73438 C 180.12368 208.05353 192.17491 217.40979 202.95703 222.80078 C 205.17682 230.41169 207.3953 238.81535 209.61523 248.01172 C 209.90452 249.49472 210.17903 251.09781 210.43945 252.82422 C 191.00397 261.67598 181.23106 298.33118 213.81836 308.86719 C 213.84938 310.89722 213.87531 312.96892 213.89648 315.08203 C 213.57939 340.76874 212.31157 376.44418 210.0918 422.10938 L 237.20508 422.10938 C 234.66805 376.44418 233.40039 340.76874 233.40039 315.08203 C 233.40039 313.74755 233.4012 312.43025 233.40625 311.12891 C 234.43057 311.12762 235.5053 311.12139 236.63477 311.11328 C 244.57959 311.05624 252.68096 311.10528 263.38086 312.19141 C 265.50346 596.0683 321.96463 751.77642 407.85547 836.83008 C 438.08029 866.7603 471.64903 887.55581 507.15234 901.95703 C 504.48979 909.13433 501.52777 915.85125 498.26367 922.10742 C 484.42299 948.63545 455.59641 965.24373 411.76758 972.16406 C 390.23763 972.9329 383.23845 977.90957 390.92773 987.13672 C 398.61698 996.36382 405.61617 1000.6828 411.76758 999.91406 L 482.13672 999.91406 C 499.82202 994.53158 514.23532 993.76214 525.38477 997.60742 C 536.53419 1001.4522 546.97826 1000.2006 556.58984 994.04883 C 566.20141 987.8974 565.95701 973.97097 555.96094 952.05664 C 551.23596 941.69782 549.91167 929.91137 551.98047 916.70703 C 596.50624 928.29361 643.00512 932.19946 688.99219 933.25195 C 673.41881 953.34679 646.97254 966.26956 609.64062 972.16406 C 588.11068 972.9329 581.1115 977.90957 588.80078 987.13672 C 596.49003 996.36382 603.48923 1000.6828 609.64062 999.91406 L 680.00781 999.91406 C 697.69309 994.53158 712.1064 993.76214 723.25586 997.60742 C 734.4053 1001.4522 744.85131 1000.2006 754.46289 994.04883 C 764.07446 987.8974 763.83203 973.97097 753.83594 952.05664 C 736.91955 926.2977 732.86058 879.89301 734.39844 840.67773 C 735.93629 801.46245 730.4036 769.6773 709.64258 744.30273 C 721.75538 717.04896 734.18112 576.27101 721.93555 520.73047 C 716.3684 495.48035 710.67195 463.37904 701.20312 425.125 C 703.99238 388.71895 723.19828 345.78094 734.7207 309.69922 L 769.96094 404.28906 C 764.99523 438.80785 768.69436 493.53136 776.49414 554.56836 C 757.62512 566.55004 749.28377 583.60822 751.55664 605.79102 L 774.37891 579.19336 L 766.1875 635.58984 C 783.58319 646.94761 797.90005 643.66351 809.21875 625.88477 C 820.53737 608.10664 818.95855 576.89213 804.3125 532.01562 C 818.97693 486.28393 817.5227 435.29008 812.27539 395.49023 C 800.5052 342.19765 790.80608 297.85163 767.44922 257.57812 C 759.63308 244.101 740.87376 240.09318 726.65039 237.1582 L 697.74805 230.24805 C 710.81983 226.40345 717.43357 219.40624 717.43359 209.41016 C 717.43357 199.41414 715.41493 193.2853 711.57031 190.97852 C 738.48274 169.4486 748.16001 139.85715 740.4707 102.17969 C 732.78144 64.502315 708.55195 42.952811 667.79883 37.570312 C 657.61056 36.224688 648.29609 35.620862 639.83789 35.789062 C 614.4633 36.293666 596.86633 43.544798 587.0625 57.673828 C 573.99074 76.512541 568.52524 89.396077 570.83203 96.316406 L 543.1875 141.34375 C 536.26719 151.33983 541.2438 159.86874 558.16016 166.78906 C 557.77092 181.46833 557.64333 183.4316 567.48047 184.38086 C 562.87378 193.12784 567.60122 214.78651 581.82617 214.01758 C 596.05132 213.24864 604.72121 217.46034 607.79688 226.6875 C 607.79688 229.76317 605.11205 231.22285 599.73242 231.39844 C 575.77072 232.18058 563.75276 234.42594 542.55859 241.85938 L 405.79688 279.64648 C 360.1322 278.37863 290.07853 279.735 253.52148 269.27734 C 248.10377 264.5203 242.41501 259.48756 236.28711 255.88477 C 236.70628 252.96079 237.17117 250.33718 237.68164 248.01172 C 239.90141 238.81535 241.96239 230.41169 243.86523 222.80078 C 252.74451 217.40979 264.95326 208.21284 280.49219 195.21094 C 291.59141 182.2095 302.69002 175.55014 313.78906 175.23242 C 322.3514 170.15852 326.63281 165.08366 326.63281 160.00977 C 322.19311 153.66737 317.5947 150.49609 312.83789 150.49609 C 309.34959 150.17994 305.30724 150.33879 300.70898 150.97266 C 296.11074 151.60652 292.38342 151.92383 289.5293 151.92383 C 281.91854 151.92383 275.1015 147.16791 269.07617 137.6543 C 270.66178 126.238 281.60092 109.74768 301.89648 88.183594 C 321.2408 67.253685 330.91406 49.176915 330.91406 33.955078 C 330.91406 20.953177 325.04785 11.122386 313.31445 4.4628906 C 301.58108 -2.1966045 288.89585 -1.4032999 275.25977 6.8417969 L 171.56055 6.8417969 C 164.7425 2.7192485 158.14376 0.4589004 151.76172 0.0625 z M 153.96094 14.451172 C 169.18262 14.451172 176.79297 20.953177 176.79297 33.955078 C 176.79297 44.420111 172.67088 49.652344 164.42578 49.652344 C 155.2288 49.652344 150.78972 46.798072 151.10742 41.089844 C 152.37578 38.235573 153.96043 37.759419 155.86328 39.662109 C 161.25427 39.662109 163.95117 37.760615 163.95117 33.955078 C 163.95117 29.198273 161.09691 26.818359 155.38867 26.818359 C 144.60687 26.818359 138.7387 31.733755 137.78711 41.564453 C 139.05562 51.078062 142.78293 57.263074 148.9668 60.117188 C 155.15065 62.971927 165.69501 63.130775 180.59961 60.59375 L 192.9668 113.86914 C 193.91806 120.84525 193.12476 124.49283 190.58789 124.81055 L 142.54492 68.203125 C 142.54492 68.235337 142.53734 68.257446 142.52344 68.267578 C 142.24474 68.424577 139.55515 64.758116 134.45898 57.263672 C 129.06784 49.335663 126.37109 41.725314 126.37109 34.431641 C 126.37109 21.112495 135.56789 14.451172 153.96094 14.451172 z M 292.85938 14.451172 C 311.25226 14.451172 320.44922 21.11054 320.44922 34.429688 C 320.44922 41.72336 317.75426 49.333711 312.36328 57.261719 C 307.28802 64.724753 304.60011 68.394005 304.30273 68.269531 C 304.30043 68.268237 304.29494 68.265489 304.29297 68.263672 C 304.28302 68.252243 304.27539 68.230361 304.27539 68.203125 L 256.23242 124.80859 C 253.69524 124.49135 252.90193 120.84573 253.85352 113.86914 L 266.2207 60.591797 C 281.12529 63.128195 291.59187 62.969348 297.61719 60.115234 C 303.64157 57.261121 307.28735 51.078063 308.55664 41.564453 C 307.92245 31.733755 302.21375 26.818359 291.43164 26.818359 C 285.72357 26.818359 282.87109 29.19632 282.87109 33.953125 C 282.87109 37.758664 285.56605 39.662109 290.95703 39.662109 C 292.85894 37.759731 294.44358 38.235885 295.71289 41.089844 C 296.02997 46.798071 291.43158 49.652344 281.91797 49.652344 C 273.67287 49.652344 269.55078 44.42011 269.55078 33.955078 C 269.55078 20.953176 277.32045 14.451172 292.85938 14.451172 z M 193.91797 23.966797 L 252.42578 23.966797 L 239.58398 129.0918 L 207.23828 129.0918 C 201.84714 73.278651 197.40626 38.237211 193.91797 23.966797 z M 642.03906 53.382812 C 645.68439 53.338223 649.45497 53.59593 653.34766 54.220703 C 684.4892 59.21874 704.75141 73.248619 713.97852 96.316406 C 723.20565 119.38422 725.25973 136.33856 720.26172 147.10352 C 715.26369 157.86848 707.74414 168.31254 697.74805 178.30859 C 693.90349 174.46396 688.15998 172.16737 680.4707 171.39844 C 688.92891 144.48602 693.00165 120.53253 692.61719 99.771484 C 692.23273 79.010492 682.41461 68.671875 663.19141 68.671875 C 644.73719 68.671875 633.9097 75.424645 630.83398 88.880859 C 627.75832 102.33707 633.11833 114.83524 646.95898 126.36914 C 646.95898 197.11037 655.48984 232.55273 672.40625 232.55273 C 671.63729 246.39341 690.53655 250.66737 699.76367 249.89844 C 721.15568 251.17557 723.10996 280.89051 708.74219 316.01172 C 692.6007 359.74912 682.14453 397.1666 682.14453 423.45117 C 692.4599 472.57198 700.7045 509.72598 705.28516 536.33398 C 674.92876 556.263 624.22425 558.64277 592.7168 527.01367 C 605.73508 428.68373 601.16746 370.69685 562.76758 280.7207 C 569.64375 260.8982 577.36395 250.98241 585.91016 250.98242 L 625.07422 250.98242 L 617.01172 194.43359 L 587.0625 203.64844 C 576.12106 196.86218 577.83748 189.06745 584.75781 182.91602 L 582.34961 172.54883 C 568.50894 171.01087 563.14699 167.4606 566.22266 162.07812 C 569.29837 156.69563 565.85335 152.86735 555.85742 150.56055 L 583.60547 103.33008 C 597.06167 70.362357 616.52176 53.694955 642.03906 53.382812 z M 595.43945 110.24219 C 594.93011 110.22709 594.44124 110.3209 593.97266 110.34766 C 591.47362 110.49189 589.5604 111.19931 588.21484 112.54492 C 582.83236 117.92753 582.20446 123.81177 586.43359 130.34766 C 590.66271 136.88351 605.84087 135.21479 631.98438 125.21875 C 615.22416 115.48703 603.07751 110.46815 595.43945 110.24219 z M 223.41016 137.6543 C 232.28959 137.6543 239.74226 138.92212 245.76758 141.45898 C 251.79274 143.99601 258.53201 148.51467 265.98438 155.01562 C 273.43645 161.51657 277.63828 166.98801 278.58984 171.42773 C 277.32133 179.98992 270.66179 189.81876 258.61133 200.91797 C 249.41481 210.11449 237.68058 214.71289 223.41016 214.71289 C 209.457 214.71289 197.72455 210.11449 188.21094 200.91797 C 176.47754 189.81876 169.81802 180.14744 168.23242 171.90234 C 169.50078 167.14554 173.86013 161.51657 181.3125 155.01562 C 188.76488 148.51467 195.58387 143.99601 201.76758 141.45898 C 207.95143 138.92212 215.16506 137.6543 223.41016 137.6543 z M 212.4707 152.39844 C 202.00568 153.98404 195.18683 158.42297 192.01562 165.7168 C 192.01562 170.79069 195.1869 173.32812 201.5293 173.32812 C 207.55462 173.32813 211.51918 171.74347 213.42188 168.57227 C 215.64213 166.03524 217.06926 162.70466 217.70312 158.58203 C 217.70313 155.09342 215.95901 153.0323 212.4707 152.39844 z M 234.82617 152.39844 C 231.33789 153.03261 229.59375 155.09374 229.59375 158.58203 C 230.22792 162.70466 231.65507 166.03524 233.875 168.57227 C 235.77769 171.74347 239.74226 173.32812 245.76758 173.32812 C 251.79274 173.32812 254.80469 170.79069 254.80469 165.7168 C 251.63348 158.42297 244.97396 153.98404 234.82617 152.39844 z M 206.76172 186.64648 L 206.76172 198.53906 L 240.53516 198.53906 L 240.53516 186.64648 L 206.76172 186.64648 z M 543.97852 298.82617 C 578.74909 373.37391 580.61504 462.62681 565.69922 540.3125 C 549.55635 624.48874 526.24675 780.72879 523.60547 817.70703 C 522.01139 840.02402 518.97902 860.12451 514.50195 878.00586 C 482.48496 864.72626 452.48313 845.83876 425.44727 819.06641 C 346.91511 741.29971 291.01192 593.93071 288.41211 315.91602 C 291.5521 316.5049 294.8741 317.16579 298.39648 317.9043 C 337.54099 323.94427 370.45042 327.52163 407.02734 327.99219 C 453.88741 321.78483 499.56366 312.95261 543.97852 298.82617 z M 641.41016 648.37891 C 644.65974 706.20173 662.96201 804.36422 676.80273 837.8125 C 688.10786 865.13325 694.35703 887.64643 695.84766 908.38672 C 648.89023 907.57915 602.52182 904.02057 558.83203 892.72656 C 562.06899 884.64902 566.31439 876.15153 571.56445 867.23633 C 591.94098 832.63477 602.14062 798.83152 602.14062 765.76758 C 602.14062 731.93489 627.18862 676.50253 641.41016 648.37891 z " />
</svg>
