<?xml version="1.0" encoding="UTF-8" standalone="no"?>
<svg
   width="1100"
   height="1000"
   version="1.1"
   id="svg1"
   sodipodi:docname="135F7.svg"
   inkscape:version="1.4.2 (f4327f4, 2025-05-13)"
   xmlns:inkscape="http://www.inkscape.org/namespaces/inkscape"
   xmlns:sodipodi="http://sodipodi.sourceforge.net/DTD/sodipodi-0.dtd"
   xmlns="http://www.w3.org/2000/svg"
   xmlns:svg="http://www.w3.org/2000/svg">
  <defs
     id="defs1" />
  <sodipodi:namedview
     id="namedview1"
     pagecolor="#ffffff"
     bordercolor="#666666"
     borderopacity="1.0"
     inkscape:showpageshadow="2"
     inkscape:pageopacity="0.0"
     inkscape:pagecheckerboard="0"
     inkscape:deskcolor="#d1d1d1"
     inkscape:zoom="0.3775"
     inkscape:cx="128.47682"
     inkscape:cy="369.53642"
     inkscape:window-width="1680"
     inkscape:window-height="998"
     inkscape:window-x="-8"
     inkscape:window-y="-8"
     inkscape:window-maximized="1"
     inkscape:current-layer="svg1"
     showguides="true" />
  <path
     id="path3"
     style="fill:#000000;stroke:none;stroke-width:1"
     d="M 553.79102 0 C 546.84103 0.26224795 539.56501 2.491648 531.95898 6.6875 C 516.71776 15.079181 509.24335 31.731849 509.53711 56.644531 C 509.80163 81.557494 521.33683 104.16015 546.50977 127.76172 C 533.3988 141.92261 523.11635 161.63304 516.90039 180.28516 L 482.13672 180.28516 C 487.80495 202.32835 491.62068 218.29604 493.58398 228.1875 C 495.57892 238.07862 496.0052 246.41673 494.86523 253.19922 C 494.49158 255.35028 494.55047 257.16705 495.04492 258.65039 L 472.36719 295.58984 C 466.69002 303.79026 470.77283 310.78767 484.65039 316.46484 C 484.33107 328.50717 484.22685 330.11775 492.29688 330.89648 C 488.51772 338.07219 492.39482 355.83977 504.06445 355.20898 C 515.73424 354.57816 522.84793 358.03391 525.37109 365.60352 C 525.37109 368.1267 523.16716 369.3247 518.75391 369.46875 C 499.09661 370.11039 489.23847 371.95071 471.85156 378.04883 L 359.6582 409.04883 C 322.19659 408.00873 264.72639 409.12202 234.73633 400.54297 C 229.75074 396.16536 224.48431 391.50329 218.74414 388.53125 C 219.37519 377.64663 220.36819 369.12454 221.7207 362.9668 C 223.69161 354.80152 225.52168 347.33971 227.21094 340.58203 C 235.09457 335.79558 245.93412 327.63168 259.73047 316.08789 C 269.585 304.55997 279.44006 298.64713 289.29492 298.34961 C 296.8969 293.84449 300.69727 289.33878 300.69727 284.83398 C 296.75546 279.20258 292.67269 276.38672 288.44922 276.38672 C 285.35203 276.12227 281.76233 276.272 277.67969 276.83398 C 273.5954 277.39597 270.28614 277.67578 267.75391 277.67578 C 260.99657 277.67578 254.9435 273.4528 249.59375 265.00586 C 251.00168 254.86967 260.7165 240.22812 278.73633 221.08203 C 295.91119 202.49923 304.49805 186.45057 304.49805 172.93555 C 304.49805 161.39175 299.28861 152.66467 288.87109 146.75195 C 278.45325 140.83989 267.19108 141.54296 255.08398 148.86328 L 163.01562 148.86328 C 150.90852 141.5423 139.57428 140.83923 129.01562 146.75195 C 118.45729 152.66467 113.17773 161.39175 113.17773 172.93555 C 113.17773 186.45057 121.76654 202.50116 138.94141 221.08594 C 157.24287 240.23204 167.23847 255.0138 168.92773 265.43164 C 163.57799 274.1599 157.52298 278.52344 150.76562 278.52344 C 148.23141 278.52344 144.92444 278.17289 140.8418 277.46875 C 136.75948 276.7481 133.16978 276.53646 130.07227 276.83398 C 125.56748 277.11564 121.34416 279.92955 117.40234 285.2793 C 117.40234 289.78408 121.2027 294.43036 128.80469 299.2168 C 138.65921 299.49846 148.65482 304.98834 158.79102 315.6875 L 158.7832 315.66406 C 170.60898 327.48983 181.30798 335.79754 190.88086 340.58398 C 192.85243 347.34134 194.82272 354.80152 196.79297 362.9668 C 197.93087 368.83614 198.81882 376.85378 199.45508 387.01758 C 183.82517 394.06965 175.76027 423.0383 200.43359 432.41211 C 199.99109 454.18817 198.92044 482.56499 197.2207 517.54297 L 221.29297 517.54297 C 219.4232 483.86832 218.3305 456.31325 218.01367 434.875 C 218.92064 434.87457 219.87433 434.86857 220.88281 434.86133 C 233.01738 434.77423 245.59697 434.99246 271.54883 440.43359 C 303.66155 445.38855 330.65966 448.3249 360.66602 448.71094 C 399.1083 443.61864 436.58127 436.37201 473.01758 424.7832 C 501.54209 485.93942 503.07232 559.16014 490.83594 622.89062 C 477.59291 691.9457 458.46953 820.11753 456.30273 850.45312 C 453.77951 885.77792 446.86805 914.33706 435.51367 936.09961 C 424.15928 957.86223 400.51221 971.48687 364.55664 977.16406 C 346.89427 977.79479 341.15099 981.87766 347.45898 989.44727 C 353.76696 997.01685 359.51026 1000.5604 364.55664 999.92969 L 422.2832 999.92969 C 436.79157 995.5141 448.61512 994.88258 457.76172 998.03711 C 466.90828 1001.1913 475.4783 1000.1639 483.36328 995.11719 C 491.24828 990.07079 491.0461 978.64764 482.8457 960.66992 C 474.64532 942.69182 478.93033 919.47188 495.64648 891.08594 C 512.36263 862.70009 520.73047 834.96819 520.73047 807.84375 C 520.73047 780.08865 541.28044 734.61454 552.94727 711.54297 C 555.61311 758.97868 570.62604 839.50754 581.98047 866.94727 C 593.33484 894.38704 598.47062 915.91406 597.83984 936.09961 C 586.48544 957.86223 562.83837 971.48687 526.88281 977.16406 C 509.22043 977.79479 503.4791 981.87766 509.78711 989.44727 C 516.09508 997.01685 521.83642 1000.5604 526.88281 999.92969 L 584.61133 999.92969 C 599.1197 995.5141 610.94324 994.88258 620.08984 998.03711 C 629.23643 1001.1913 637.80447 1000.1639 645.68945 995.11719 C 653.57443 990.07079 653.37621 978.64764 645.17578 960.66992 C 631.29819 939.53824 627.96692 901.46763 629.22852 869.29688 C 630.49011 837.12608 625.95148 811.05075 608.91992 790.23438 C 618.85681 767.87638 629.05167 652.38959 619.00586 606.82617 C 614.43877 586.1119 609.76593 559.77479 601.99805 528.39258 C 604.28625 498.52647 620.04173 463.30289 629.49414 433.70312 L 658.4043 511.30078 C 654.33061 539.61874 657.36502 584.51147 663.76367 634.58398 C 648.28421 644.4133 641.44206 658.40751 643.30664 676.60547 L 662.0293 654.78516 L 655.30859 701.05078 C 669.57939 710.36828 681.32394 707.67487 690.60938 693.08984 C 699.89477 678.50533 698.60103 652.89901 686.58594 616.08398 C 698.6161 578.56738 697.4219 536.73431 693.11719 504.08398 C 683.46137 460.3647 675.50486 423.9842 656.34375 390.94531 C 649.93168 379.88917 634.54138 376.60112 622.87305 374.19336 L 599.16211 368.52344 C 609.88572 365.36946 615.31247 359.6301 615.3125 351.42969 C 615.31247 343.22933 613.65595 338.20099 610.50195 336.30859 C 616.25447 331.70659 621.04788 326.6564 624.87891 321.15625 L 624.90625 321.1582 L 624.87891 321.1543 C 624.9167 321.10003 624.95442 321.04646 624.99219 320.99219 C 689.75737 227.92968 716.74953 125.683 760.19727 21.744141 L 741.54492 21.744141 C 704.80626 104.26524 681.63472 149.19884 672.02734 156.54688 C 673.15781 119.8079 679.93989 93.807596 692.375 78.546875 C 709.3448 63.851099 718.81015 51.416095 720.77344 41.242188 C 722.75253 31.068585 718.09175 20.614128 706.78711 9.875 C 689.82999 -0.8641467 676.68686 -2.8449837 667.36133 3.9375 C 658.03569 10.720321 649.98208 23.722411 643.19922 42.939453 C 626.24212 68.939291 609.14515 86.601502 591.90625 95.927734 C 574.66108 105.2552 563.66395 112.63484 561.04883 115.25586 C 539.57524 95.3255 528.69232 76.050621 528.39844 57.431641 C 528.13696 38.812661 533.38131 26.879447 544.13281 21.634766 C 554.88435 16.389176 563.67036 17.045467 570.49023 23.601562 C 577.30726 30.15764 578.88091 36.711772 575.21094 43.267578 C 571.53798 49.823671 567.07901 49.823671 561.83398 43.267578 C 556.58905 36.711772 552.13095 33.435547 548.46094 33.435547 C 543.75954 36.582251 542.84896 42.220008 545.72852 50.349609 C 548.61403 58.478884 555.30099 62.544922 565.79102 62.544922 C 584.17925 62.544922 593.22739 54.807902 592.93359 39.335938 C 592.67207 23.864061 586.24814 12.457918 573.66016 5.1152344 C 567.3662 1.4438923 560.74789 1.1842379e-15 553.79297 0 L 553.79102 0 z M 684.24023 25.667969 C 686.57187 25.738609 689.00919 26.690419 691.55273 28.527344 C 700.59643 34.744925 696.07568 44.638123 677.98828 58.203125 C 658.77345 88.724837 649.16602 125.46367 649.16602 168.41992 C 644.07728 174.07194 636.72855 178.02812 627.12109 180.28906 L 543.18555 180.28906 C 556.75117 149.76735 575.26198 128.00758 598.7168 115.00781 C 622.17489 102.00773 644.64151 79.96359 666.11719 48.876953 C 671.20435 33.192159 677.24547 25.456061 684.24023 25.667969 z M 147.38672 155.59961 C 160.90141 155.59961 167.6582 161.37027 167.6582 172.91406 C 167.6582 182.20563 163.99806 186.85156 156.67773 186.85156 C 148.49659 186.85156 144.55599 184.31811 144.85352 179.25 C 145.98079 176.71447 147.38887 176.29122 149.07812 177.98047 C 153.86456 177.98047 156.25781 176.29095 156.25781 172.91211 C 156.25781 168.68865 153.72434 166.57617 148.65625 166.57617 C 139.08469 166.57617 133.87558 170.94167 133.0293 179.66992 C 134.15558 188.11553 137.46255 193.60509 142.95312 196.14062 C 148.44336 198.68938 157.80569 198.83913 171.03906 196.58789 L 182.01953 243.88867 C 182.8625 250.06718 182.15944 253.30599 179.9082 253.60352 L 137.25195 203.32422 C 137.25195 203.34401 137.2481 203.35874 137.24219 203.36914 C 137.24073 203.37122 137.23613 203.37534 137.23438 203.37695 L 137.23242 203.37891 C 136.98496 203.5181 134.59531 200.26343 130.07031 193.60938 C 125.28387 186.57037 122.89062 179.81359 122.89062 173.33789 C 122.89062 161.51244 131.05615 155.59961 147.38672 155.59961 z M 270.71094 155.62109 C 287.0415 155.62109 295.20703 161.53394 295.20703 173.35938 C 295.20703 179.8354 292.81412 186.5938 288.02734 193.63281 C 283.52136 200.25812 281.13512 203.5161 280.87109 203.40625 C 280.87007 203.40568 280.86618 203.40303 280.86523 203.40234 C 280.85472 203.3927 280.84766 203.37205 280.84766 203.3457 L 238.18945 253.62695 C 235.93491 253.34529 235.23184 250.10648 236.07812 243.91211 L 247.05859 196.60938 C 260.29164 198.84408 269.58189 198.6963 274.93164 196.16406 C 280.2804 193.62986 283.51921 188.13997 284.64648 179.69336 C 284.08317 170.96477 279.01429 166.59961 269.44141 166.59961 C 264.37331 166.59961 261.83984 168.71208 261.83984 172.93555 C 261.83984 176.31439 264.23308 178.00391 269.01953 178.00391 C 270.70878 176.31465 272.11687 176.7379 273.24414 179.27344 C 273.52579 184.34154 269.44302 186.875 260.99609 186.875 C 253.67577 186.875 250.01563 182.22906 250.01562 172.9375 C 250.01563 161.39371 256.91458 155.62109 270.71094 155.62109 z M 182.86523 164.06641 L 234.8125 164.06641 L 223.4082 257.4043 L 194.68945 257.4043 C 189.90335 207.84996 185.96275 176.73681 182.86523 164.06641 z M 506.72461 197.24414 L 666.11328 197.24414 C 652.25108 242.03769 638.99698 276.72865 610.96094 312.31055 L 610.83203 312.08398 C 607.55918 316.79345 603.66727 321.40892 599.16211 325.91406 C 596.00817 322.76007 591.29628 320.8769 584.98828 320.24609 C 591.92708 298.16814 595.26852 278.51792 594.95312 261.48633 C 594.63774 244.45477 586.58446 235.97266 570.81445 235.97266 C 568.17499 235.97266 565.72535 236.14198 563.4668 236.47852 C 551.23019 231.47873 532.87167 229.6108 513.12695 230.43359 L 506.72461 197.24414 z M 516.16016 244.54688 C 528.82102 244.35451 538.75027 245.4144 545.94531 247.72461 C 545.22807 249.19572 544.66877 250.80414 544.26953 252.55078 C 541.74637 263.58977 546.14369 273.84271 557.49805 283.30469 C 557.49805 341.33821 564.49545 370.41406 578.37305 370.41406 C 577.74223 381.76844 593.24681 385.27534 600.81641 384.64453 C 618.36562 385.69225 619.96842 410.06871 608.18164 438.88086 C 594.93975 474.76142 586.36328 505.45665 586.36328 527.01953 C 594.82564 567.31645 601.58986 597.79677 605.34766 619.625 C 580.44438 635.97403 538.84756 637.92587 513 611.97852 C 523.67971 531.31226 519.93154 483.74281 488.42969 409.92969 C 494.07065 393.66803 500.40502 385.53319 507.41602 385.5332 L 539.54297 385.5332 L 532.92969 339.14453 L 508.35938 346.70312 C 499.38342 341.13592 500.79351 334.74172 506.4707 329.69531 L 504.49414 321.18945 C 493.13976 319.92777 488.74248 317.01519 491.26562 312.59961 C 493.78882 308.18401 490.96201 305.0428 482.76172 303.15039 L 505.52539 264.40625 C 508.6703 256.70122 512.2147 250.08058 516.16016 244.54688 z M 209.04883 265.00781 C 216.93245 265.00781 223.55064 266.13353 228.90039 268.38477 C 234.24981 270.63733 240.23276 274.64998 246.84961 280.42188 C 253.46778 286.19377 257.19803 291.05038 258.04102 294.99219 C 256.91474 302.5945 251.0019 311.3232 240.30273 321.17773 C 232.13745 329.34301 221.7189 333.42578 209.04883 333.42578 C 196.66007 333.42578 186.24347 329.34301 177.79688 321.17773 C 167.3797 311.3232 161.46686 302.73472 160.05859 295.41406 C 161.18455 291.1906 165.05502 286.19377 171.67188 280.42188 C 178.2884 274.64866 184.34342 270.63601 189.83398 268.38477 C 195.32423 266.13353 201.72817 265.00781 209.04883 265.00781 z M 515.23438 270.07617 C 514.81651 270.06387 514.41371 270.14001 514.0293 270.16211 C 511.97919 270.28043 510.40853 270.86095 509.30469 271.96484 C 504.88909 276.38054 504.37627 281.20851 507.8457 286.57031 C 511.31511 291.93209 523.76571 290.56172 545.21289 282.36133 C 531.46343 274.37779 521.50036 270.26154 515.23438 270.07617 z M 219.18359 278.09766 C 216.08607 278.66063 214.53711 280.49233 214.53711 283.58984 C 215.1024 287.25133 216.37155 290.20774 218.3418 292.45898 C 220.03104 295.2755 223.55064 296.68359 228.90039 296.68359 L 228.89844 296.68164 C 234.24786 296.68164 236.92188 294.42861 236.92188 289.92383 C 234.10633 283.44813 228.19349 279.50592 219.18359 278.09766 z M 199.33594 278.09961 C 190.04537 279.50755 183.99036 283.45009 181.17383 289.92578 C 181.17383 294.4309 183.98969 296.68359 189.62109 296.68359 L 189.625 296.68555 C 194.97475 296.68555 198.49434 295.2755 200.18359 292.45898 C 202.15384 290.20642 203.41848 287.25001 203.98047 283.58984 C 203.98047 280.49134 202.43346 278.6616 199.33594 278.09961 z M 194.26758 308.50781 L 194.26758 319.06641 L 224.25391 319.06641 L 224.25391 308.50781 L 194.26758 308.50781 z " />
</svg>
