<?xml version="1.0" encoding="UTF-8" standalone="no"?>
<svg
   width="900"
   height="1000"
   version="1.1"
   id="svg1"
   sodipodi:docname="135FD.svg"
   inkscape:version="1.4.2 (f4327f4, 2025-05-13)"
   xmlns:inkscape="http://www.inkscape.org/namespaces/inkscape"
   xmlns:sodipodi="http://sodipodi.sourceforge.net/DTD/sodipodi-0.dtd"
   xmlns="http://www.w3.org/2000/svg"
   xmlns:svg="http://www.w3.org/2000/svg">
  <defs
     id="defs1" />
  <sodipodi:namedview
     id="namedview1"
     pagecolor="#ffffff"
     bordercolor="#666666"
     borderopacity="1.0"
     inkscape:showpageshadow="2"
     inkscape:pageopacity="0.0"
     inkscape:pagecheckerboard="0"
     inkscape:deskcolor="#d1d1d1"
     inkscape:zoom="0.3775"
     inkscape:cx="1.3245033"
     inkscape:cy="711.25828"
     inkscape:window-width="1680"
     inkscape:window-height="998"
     inkscape:window-x="-8"
     inkscape:window-y="-8"
     inkscape:window-maximized="1"
     inkscape:current-layer="svg1"
     showguides="true">
    <sodipodi:guide
       position="900,1000"
       orientation="0,-1"
       id="guide1"
       inkscape:locked="false" />
    <sodipodi:guide
       position="900,0"
       orientation="0,-1"
       id="guide2"
       inkscape:locked="false" />
    <sodipodi:guide
       position="706.59639,704.99755"
       orientation="-0.8671177,0.4981033"
       id="guide3"
       inkscape:locked="false" />
  </sodipodi:namedview>
  <path
     id="path2"
     style="baseline-shift:baseline;display:inline;overflow:visible;vector-effect:none;fill:#000000;enable-background:accumulate;stop-color:#000000;stop-opacity:1;opacity:1"
     d="M 610.37109 0.0546875 C 600.48583 0.26015471 590.38339 1.0481874 580.06445 2.4179688 C 538.78836 7.8970946 509.01758 39.856893 490.75391 98.300781 C 480.52616 111.4507 468.83937 129.35103 455.68945 151.99805 C 448.38378 167.33961 448.01684 175.92172 454.5918 177.74805 C 461.16676 179.57444 466.64809 182.31602 471.03125 185.96875 C 459.55845 192.52498 464.5366 198.94811 472.125 200.21289 C 474.31624 199.48233 473.58615 200.94493 469.93359 204.59766 C 466.28038 208.25039 466.82766 211.35325 471.57617 213.91016 C 476.3248 216.46704 478.69922 224.32274 478.69922 237.47266 C 478.69922 249.89197 485.64106 256.10156 499.52148 256.10156 C 515.59356 256.10156 527.28244 255.36926 534.58789 253.9082 L 538.77148 286.3418 C 457.42525 287.62838 400.25926 312.36341 367.27344 360.54492 C 343.27744 378.91684 311.03415 414.16112 270.54102 466.27734 C 250.66935 444.15607 192.80984 385.93541 130.57031 338.69336 C 128.73488 316.05651 124.30073 300.93449 115.45508 285.35742 C 121.41873 280.3619 126.56418 276.47985 130.89062 273.71094 C 139.1222 268.6805 146.66748 264.10799 153.52734 259.99219 C 163.81687 262.50741 179.25082 264.6785 199.83008 266.50781 C 217.20776 265.13622 230.01407 268.33746 238.24609 276.11133 C 248.07845 278.62665 254.82392 278.055 258.48242 274.39648 C 259.85436 266.62206 258.8244 261.0197 255.39453 257.58984 C 253.10725 254.84666 250.07728 252.04602 246.30469 249.1875 C 242.53209 246.32899 239.61655 243.8724 237.55859 241.81445 C 232.07087 236.32675 230.58438 227.97968 233.09961 216.77539 C 242.47459 209.68701 262.25475 205.68614 292.4375 204.77148 C 321.47707 203.62818 341.48332 197.56745 352.45898 186.5918 C 361.83396 177.21683 364.69366 165.89884 361.03516 152.63672 C 357.37664 139.37459 347.65821 130.79927 331.88086 126.91211 L 257.10938 52.142578 C 253.22223 36.36524 244.5914 26.589357 231.21484 22.816406 C 217.8384 19.043571 206.46091 21.843767 197.08594 31.21875 C 186.11029 42.1944 180.0515 62.202605 178.9082 91.242188 C 178.2223 121.6537 174.3345 141.77519 167.24609 151.60742 C 155.81319 154.35128 147.35307 152.98001 141.86523 147.49219 C 139.80741 145.43435 137.40748 142.46192 134.66406 138.57422 C 131.92066 134.6865 129.17595 131.59864 126.43164 129.3125 C 122.54437 125.88275 116.82886 124.73965 109.2832 125.88281 C 105.62469 129.54133 104.93814 136.40188 107.22461 146.46289 C 114.99902 154.69456 118.65845 167.27076 118.20117 184.19141 L 118.19922 184.19141 C 118.1991 203.39874 120.14399 218.83257 124.03125 230.49414 C 120.14399 237.58253 115.68463 245.24294 110.6543 253.47461 C 108.41357 256.80137 105.5068 260.65214 101.93555 265.02734 C 96.391438 257.54041 89.885085 249.35008 82.269531 239.8125 L 82.269531 239.81055 C 72.065748 248.35343 70.683048 258.23418 78.121094 269.44727 C 68.937893 264.35463 62.312515 264.067 57.671875 267.93164 C 39.612649 282.97104 21.485872 308.06164 33.058594 323.63477 C 34.819749 326.00471 36.652938 328.29557 38.556641 330.50586 C 23.631914 344.49718 5.9354468 360.77885 -14.535156 379.35156 L 5.0136719 398.90234 C 23.554913 378.17972 39.861097 360.34195 53.931641 345.39062 C 67.48127 356.28712 83.394743 364.03576 101.1543 368.19531 L 200.80273 487.64844 C 238.2964 535.64036 272.60286 546.13803 303.72266 519.14258 C 334.46752 492.52205 374.39884 458.77828 423.51562 417.91016 C 419.3913 456.9036 424.63919 491.77276 439.26172 522.51758 C 453.50925 553.2624 477.31803 621.68778 510.6875 727.79492 L 326.21875 591.13086 C 298.84828 566.01009 274.852 553.44922 254.23047 553.44922 C 195.36547 554.19909 169.68291 578.75814 177.18164 627.125 L 208.11328 848.15039 C 163.49575 859.77344 143.24871 893.32965 147.37305 948.82031 C 126.75151 952.94462 108.19264 958.56956 91.695312 965.69336 C 74.823313 972.81717 57.762825 976.00378 40.515625 975.25391 C 22.893625 974.12909 11.645618 982.37797 6.7714844 1000 L 894.81055 1000 C 875.68881 964.38099 849.63125 950.13401 816.63672 957.25781 C 783.26745 964.00668 760.58198 949.00947 748.58398 912.26562 C 736.58605 875.5218 716.52847 867.83562 688.4082 889.20703 C 715.02867 837.84067 716.15205 783.66227 691.78125 726.67188 C 692.90592 664.43232 696.65536 609.69126 703.0293 562.44922 C 736.3987 590.56948 770.70522 608.37821 805.94922 615.87695 C 841.19329 623.3757 857.69087 609.31627 855.44141 573.69727 C 853.56661 537.70332 834.25741 475.83874 797.51367 388.10352 C 792.70385 339.49846 770.60535 308.69553 730.67578 293.23633 L 855.85352 75.322266 L 821.16797 55.398438 L 690.17773 283.43359 C 680.9238 282.24046 671.06767 281.53611 660.60742 281.30469 L 660.60742 227.60742 C 680.3323 219.57136 699.32617 204.59615 717.58984 182.67969 C 735.85352 160.76323 744.98437 130.44563 744.98438 91.726562 C 744.98438 53.007447 727.8183 27.07369 693.48242 13.923828 C 667.73057 4.0614008 640.02679 -0.56171422 610.37109 0.0546875 z M 617.04688 19.675781 C 632.20577 20.588971 648.91797 23.421367 667.18164 28.169922 C 703.70911 37.667073 721.97266 59.584106 721.97266 93.919922 C 721.97266 127.52516 709.73511 156.01502 685.26172 179.39258 C 660.78821 202.77015 645.26441 208.98169 638.68945 198.02344 C 630.6535 187.79572 636.68135 172.81856 656.77148 153.09375 C 676.86126 133.36893 681.79219 114.00794 671.56445 95.013672 C 661.33671 76.019372 639.7868 74.560709 606.91211 90.632812 C 595.954 78.213461 569.65294 68.713622 528.01172 62.138672 C 536.04765 41.683311 552.12038 28.533853 576.22852 22.689453 C 588.2826 19.767274 601.888 18.762595 617.04688 19.675781 z M 218.28711 33.410156 C 224.58955 33.635228 231.47163 37.47945 238.93164 44.939453 C 249.90717 55.914996 250.70701 66.08987 241.33203 75.464844 C 233.78625 83.010625 227.04079 83.810339 221.0957 77.865234 C 214.46424 71.233784 213.32102 65.974699 217.66602 62.087891 C 220.63862 60.944372 222.12489 61.74431 222.125 64.488281 C 226.01215 68.375429 229.3283 68.947096 232.07227 66.203125 C 235.50215 62.773242 235.15886 59.00066 231.04297 54.884766 C 223.26878 47.110576 215.49522 46.423915 207.7207 52.826172 C 201.7756 60.600587 200.00339 67.746877 202.4043 74.263672 C 204.80474 80.780925 212.29291 88.498427 224.86914 97.416016 L 195.37109 144.74805 C 191.02691 150.46405 187.82586 152.52199 185.76758 150.92188 L 191.94336 75.464844 C 191.48598 75.922224 192.17067 71.349704 194 61.746094 C 195.82919 52.142366 199.37374 44.710243 204.63281 39.451172 C 208.83445 35.249541 213.38521 33.2351 218.28711 33.410156 z M 260.88281 80.609375 L 303.07031 122.79688 L 218.00977 189.33594 L 194.68555 166.01367 C 231.04215 121.88256 253.10841 93.414232 260.88281 80.609375 z M 517.05469 80.767578 C 550.66 82.959231 578.42143 91.726845 600.33789 107.06836 C 598.87678 120.21826 603.98891 120.76696 615.67773 108.71289 C 639.41837 84.230304 669.66407 96.836353 652.93555 129.5332 C 644.8995 145.24 634.85476 158.573 622.80078 169.53125 C 610.7466 180.48946 608.00707 191.448 614.58203 202.40625 C 621.15699 213.36447 625.54084 222.86239 627.73242 230.89844 C 627.00192 289.34238 631.74936 318.9217 641.97656 319.6582 C 652.99645 320.45179 658.41258 318.73879 695.15625 321.73828 C 731.90018 324.73777 734.52403 360.91987 703.0293 430.2832 C 675.86004 502.28309 661.28138 601.52932 658.59961 728.91992 L 557.92969 751.41602 C 508.81302 615.31392 478.25588 531.89131 466.25781 501.14648 C 454.25995 470.7766 450.69813 426.53319 455.57227 368.41797 C 463.071 333.54883 484.44148 316.49035 519.68555 317.24023 C 554.92961 317.99011 568.11827 307.04003 566.36523 283.49609 C 563.97843 251.44064 552.85064 236.74183 525.82031 239.66406 C 498.78998 242.58626 487.46635 233.82059 491.84961 213.36523 C 507.92182 203.86807 513.58444 197.10788 508.83594 193.08984 C 504.08741 189.0718 495.50135 186.6993 483.08203 185.96875 C 483.08203 178.66328 476.87244 172.45176 464.45312 167.33789 C 476.87246 139.57702 488.9265 120.21802 500.61523 109.25977 C 512.30405 103.41539 524.54149 103.41539 537.32617 109.25977 C 550.11084 115.10417 562.71349 119.12278 575.13281 121.31445 L 575.13281 113.64258 C 567.09675 112.91203 556.68508 109.07695 543.90039 102.13672 C 531.11583 95.196505 518.14992 93.91754 505 98.300781 C 509.38326 90.995321 513.40214 85.150878 517.05469 80.767578 z M 640.2832 101.96094 C 637.99186 101.82928 635.27154 102.22815 632.11523 103.23242 C 615.33953 108.57016 597.77338 135.55188 603.625 144.32812 C 590.29538 150.2526 587.29785 163.95718 599.24023 168.43555 C 611.84347 173.16177 639.47145 144.56737 646.36133 127.3418 C 652.07567 113.05496 650.21185 102.53143 640.2832 101.96094 z M 519.17188 111.10156 C 514.56313 111.24424 510.20505 112.45728 506.0957 114.74023 L 495.13672 124.60156 L 495.13672 133.36914 L 500.61523 133.36914 C 515.95683 140.67461 533.12486 140.67461 552.11914 133.36914 L 571.84375 136.65625 L 571.84375 126.79492 L 553.2168 125.69727 C 540.66051 115.65222 529.31101 110.78766 519.17188 111.10156 z M 635.47266 113.68164 C 638.76009 113.77164 640.19802 115.768 639.78711 119.67188 C 639.05652 126.61209 635.94981 133.18685 630.4707 139.39648 C 624.99158 145.60615 619.87741 149.98802 615.12891 152.54492 C 610.3805 155.10185 610.3805 153.09253 615.12891 146.51758 C 619.87741 139.94238 619.87741 137.57008 615.12891 139.39648 C 610.3805 141.22284 609.46812 139.21353 612.39062 133.36914 C 615.31282 127.52475 619.33145 122.04552 624.44531 116.93164 C 629.23959 114.69433 632.91573 113.61173 635.47266 113.68164 z M 515.95703 118.02734 C 513.03452 121.6801 513.03452 125.69873 515.95703 130.08203 C 511.57375 128.62096 507.92195 127.15836 505 125.69727 C 506.4611 122.77506 510.11255 120.21899 515.95703 118.02734 z M 530.20312 120.21875 L 545.54492 128.98633 C 539.70046 130.44742 533.85607 131.17578 528.01172 131.17578 C 533.12612 128.25357 533.8557 124.60206 530.20312 120.21875 z M 321.04492 135.95117 C 326.76853 135.74217 332.78156 138.78743 339.08398 145.08984 C 352.3461 158.35197 354.17599 169.78493 344.57227 179.38867 C 339.31319 184.64775 331.88098 188.19218 322.27734 190.02148 C 312.67398 191.85036 308.10155 192.53712 308.55859 192.08008 L 233.10156 198.25391 C 231.50088 196.19574 233.55882 192.9947 239.27539 188.65039 L 286.60742 159.15234 C 295.52546 171.72813 303.18539 179.16069 309.58789 181.44727 C 315.98968 183.73316 323.07853 181.90351 330.85352 175.95898 C 337.48462 168.41333 336.91309 160.75294 329.13867 152.97852 C 325.02289 148.86274 321.25018 148.51934 317.82031 151.94922 C 315.07634 154.69319 315.64801 158.00934 319.53516 161.89648 C 322.27822 161.89613 323.07817 163.38241 321.93555 166.35547 C 318.04829 170.70002 312.67422 169.44179 305.81445 162.58203 C 299.86936 156.63694 300.66907 149.89148 308.21484 142.3457 C 312.31639 138.24415 316.59323 136.11373 321.04492 135.95117 z M 602.52734 153.0918 C 607.64121 156.74452 608.55479 159.8513 605.26758 162.4082 C 601.98027 164.96536 599.60583 164.78356 598.14453 161.86133 C 596.68333 158.93911 598.14417 156.01596 602.52734 153.09375 L 602.52734 153.0918 z M 497.83008 164.8457 C 496.54001 164.811 495.28126 167.11815 495.68555 169.53125 C 496.31259 173.29314 491.58432 177.20946 485.82227 170.625 C 478.79313 162.59118 475.41222 166.64851 475.41211 171.72266 C 478.33418 170.26196 481.43946 171.54076 484.72656 175.55859 C 491.96771 184.4087 500.73466 176.18032 500.06641 169.53125 C 499.72751 166.14329 498.77139 164.87099 497.83008 164.8457 z M 150.29102 165.79883 C 152.44898 165.77025 154.78553 165.84217 157.30078 166.01367 C 167.36177 166.69969 175.53618 168.3569 181.82422 170.98633 C 188.11228 173.61598 194.22873 177.9045 200.17383 183.84961 C 206.57631 190.25209 211.03557 196.53928 213.55078 202.71289 C 216.066 208.88672 217.66554 217.00343 218.35156 227.06445 C 219.03736 237.12522 218.12254 244.10091 215.60742 247.98828 C 208.51905 253.24734 196.62951 255.53354 179.9375 254.84766 C 166.67526 254.84766 154.89901 249.70174 144.60938 239.41211 C 134.54849 229.35122 129.40441 217.5768 129.17578 204.08594 C 128.71851 187.62256 130.8896 175.84619 135.69141 168.75781 C 138.94972 166.8713 143.81712 165.88457 150.29102 165.79883 z M 166.03125 180.08008 C 163.04081 179.87643 160.13045 180.33254 157.30078 181.44727 C 153.64227 185.10578 154.10066 189.22176 158.67383 193.79492 C 163.01836 198.13946 167.01921 199.85411 170.67773 198.93945 C 174.10796 198.71105 177.53716 197.33977 180.9668 194.82422 C 183.48224 192.30877 183.71052 189.56405 181.65234 186.5918 C 176.22167 182.59023 171.01532 180.41949 166.03125 180.08008 z M 479.53711 191.11328 C 480.42117 191.13918 481.42012 191.24452 482.53516 191.44727 C 486.55319 192.17785 491.30214 192.9081 496.78125 193.63867 C 502.26047 194.36918 504.63293 194.73633 503.90234 194.73633 L 477.60547 195.83008 C 472.80089 194.62808 473.3492 190.93203 479.53711 191.11328 z M 502.80859 198.02344 C 500.45944 200.37215 490.83382 204.87045 484.17969 205.69336 C 477.47112 206.52296 477.25165 203.85358 479.79492 201.31055 L 502.80859 198.02344 z M 194.00391 201.32422 C 192.44441 201.29205 190.95778 201.98363 189.54297 203.39844 C 187.02765 206.82832 185.65443 210.25751 185.42578 213.6875 C 184.51113 217.34601 186.22591 221.34699 190.57031 225.69141 C 194.91485 230.03594 198.91767 230.37922 202.57617 226.7207 C 205.54878 219.17494 203.94718 211.17322 197.77344 202.71289 C 196.47297 201.81254 195.21684 201.34924 194.00391 201.32422 z M 152.8418 207.17188 L 144.26758 215.74609 L 168.61914 240.09766 L 177.19531 231.52344 L 152.8418 207.17188 z M 734.52539 433.0957 C 748.39812 476.96332 764.89399 512.20764 784.01562 538.82812 C 779.14157 534.70381 755.52216 524.76687 713.1543 509.01953 C 718.02843 485.77344 725.15199 460.4661 734.52539 433.0957 z M 250.85547 619.25195 L 295.28711 619.25195 L 500.56445 762.66406 L 271.66602 831.83984 C 276.54015 724.98283 269.60234 654.12108 250.85547 619.25195 z M 663.66211 752.54102 C 679.40938 814.03067 669.84758 867.08563 634.97852 911.70312 C 583.61212 941.69808 520.9973 946.00812 447.13477 924.63672 C 373.2723 903.64025 303.16087 907.95225 236.79688 937.57227 C 243.54581 914.32617 298.28491 875.89527 401.01758 822.2793 L 663.66211 752.54102 z " />
</svg>
