<?xml version="1.0" encoding="UTF-8" standalone="no"?>
<svg
   width="1400"
   height="1000"
   version="1.1"
   id="svg1"
   sodipodi:docname="13605.svg"
   inkscape:version="1.4.2 (f4327f4, 2025-05-13)"
   xmlns:inkscape="http://www.inkscape.org/namespaces/inkscape"
   xmlns:sodipodi="http://sodipodi.sourceforge.net/DTD/sodipodi-0.dtd"
   xmlns="http://www.w3.org/2000/svg"
   xmlns:svg="http://www.w3.org/2000/svg">
  <defs
     id="defs1" />
  <sodipodi:namedview
     id="namedview1"
     pagecolor="#ffffff"
     bordercolor="#666666"
     borderopacity="1.0"
     inkscape:showpageshadow="2"
     inkscape:pageopacity="0.0"
     inkscape:pagecheckerboard="0"
     inkscape:deskcolor="#d1d1d1"
     showguides="true"
     inkscape:zoom="0.17516667"
     inkscape:cx="585.15699"
     inkscape:cy="1549.9524"
     inkscape:window-width="1680"
     inkscape:window-height="998"
     inkscape:window-x="-8"
     inkscape:window-y="-8"
     inkscape:window-maximized="1"
     inkscape:current-layer="svg1">
    <sodipodi:guide
       position="826.52218,594.49425"
       orientation="0,-1"
       id="guide1"
       inkscape:locked="false" />
    <sodipodi:guide
       position="1258.9826,427.7007"
       orientation="0,-1"
       id="guide2"
       inkscape:locked="false" />
  </sodipodi:namedview>
  <path
     id="path1"
     style="fill:#000000;stroke:none;stroke-width:1"
     d="M 409.95898 0.09375 C 366.09465 6.739839 342.83227 29.668799 340.17383 68.880859 C 334.19232 76.856188 327.54704 88.153971 320.23633 102.77539 C 316.91327 112.07996 317.07899 117.39736 320.73438 118.72656 C 324.38975 120.05577 327.54664 121.71708 330.20508 123.71094 C 326.88202 125.70476 325.71991 127.53185 326.7168 129.19336 C 327.71373 130.85491 329.54077 131.68555 332.19922 131.68555 C 332.86384 131.68555 332.19891 132.84965 330.20508 135.17578 C 328.21122 137.50191 328.71042 139.32896 331.70117 140.6582 C 334.69192 141.98741 336.35324 146.14071 336.68555 153.11914 C 337.01786 160.09754 339.84131 163.75378 345.1582 164.08594 C 350.47509 164.41836 359.11516 164.58398 371.07812 164.58398 L 375.06641 180.53516 C 364.43267 187.18125 352.80146 190.50391 340.17383 190.50391 C 328.87547 190.50391 309.9614 197.17592 298.43945 212.05859 C 275.9302 259.95642 255.61664 308.81244 237.5 358.62695 C 215.46347 371.33495 189.96072 371.38654 156.54688 386.43359 C 123.13299 401.48064 100.51787 408.01899 88.699219 406.05078 C 80.669333 399.32124 71.18651 394.27975 60.25 390.92773 L 60.25 60.904297 L 34.330078 60.904297 L 34.330078 386.3125 C 23.969926 385.5834 12.691065 385.92084 0.49414062 387.32617 C -1.6988174 395.10844 3.4078013 400.34931 15.814453 403.05078 L 17.173828 436.29688 C 20.589733 443.72742 26.308596 448.26883 34.330078 449.91992 L 34.330078 1000 L 60.25 1000 L 60.25 447.45508 C 75.217115 444.47323 91.867935 441.48969 110.20312 438.50391 C 194.77862 423.11513 234.47378 411.25546 266.125 395.48047 C 288.2664 369.04718 305.45018 339.34964 325.36719 273.97266 C 345.3055 315.17854 353.13477 366.62526 353.13477 439.73242 L 304.28516 694.94336 L 304.28516 693.94727 C 285.67606 802.27881 272.05206 870.40082 263.41211 898.31445 C 252.77838 924.89888 241.48059 940.18421 229.51758 944.17188 C 217.55461 948.15955 196.9499 956.79955 167.70703 970.0918 C 147.76869 973.41483 135.806 979.72863 131.81836 989.0332 C 127.83067 998.33771 136.13926 1002.3253 156.74219 1000.9961 C 182.66204 1000.9961 201.76917 999.50241 214.06445 996.51172 C 226.35974 993.52105 242.47572 994.18392 262.41406 998.50391 C 282.35236 1002.8239 291.99075 996.34433 291.32617 979.06445 C 293.98458 945.16935 306.94368 904.46306 330.20508 856.94336 C 353.46645 809.4237 364.10124 774.03289 362.10742 750.77148 C 360.11359 727.51015 367.7553 708.56872 385.03516 693.94727 L 459.80469 694.94336 C 475.75534 802.61028 485.39159 871.7308 488.71484 902.30273 C 490.04404 928.88716 485.89075 946.49868 476.25391 955.13867 C 466.61703 963.77877 447.50989 969.42769 418.93164 972.08594 C 401.65178 982.05509 392.51257 989.533 391.51562 994.51758 C 390.51873 999.50216 396.33335 1001.9941 408.96094 1001.9941 C 421.58853 1001.9941 436.54237 1001.4949 453.82227 1000.498 C 471.10213 999.50124 492.0383 999.50124 516.62891 1000.498 C 541.21948 1001.4949 549.1946 993.6856 540.55469 977.07031 C 532.57914 926.55994 531.74868 877.37931 538.0625 829.52734 C 544.37631 781.67537 540.55449 736.81383 526.59766 694.94336 L 526.59766 693.94727 L 502.67188 538.42773 C 513.01572 510.6874 515.95969 484.11135 511.50195 458.69922 C 509.65851 448.19032 506.54863 437.88018 502.17383 427.76953 C 487.2201 393.20978 492.0383 341.03801 516.62891 271.25391 C 533.24418 305.81366 553.84693 336.05484 578.4375 361.97461 C 573.12061 405.83894 573.78551 458.67373 580.43164 520.48242 C 571.12718 536.43308 565.80978 552.05185 564.48047 567.33789 C 541.21906 576.64242 529.58789 612.199 529.58789 674.00781 L 546.53516 673.01172 C 547.19978 633.13507 553.18208 604.22378 564.48047 586.2793 C 563.816 594.25463 564.81244 606.21731 567.4707 622.16797 C 575.44621 623.49721 579.76717 617.84829 580.43164 605.2207 C 580.43164 605.2207 610.32377 602.71737 620.70117 596.64648 C 650.78201 623.25403 688.37251 635.04391 726.56055 630.33008 C 764.41234 625.65775 802.6115 605.01021 835.4043 568.22461 C 852.48495 611.06274 855.46695 679.88311 852.72266 721.5 L 851.06055 746.67969 C 838.19109 854.67284 819.72679 926.01673 795.66406 960.70898 C 764.31662 968.54266 749.2085 981.97118 750.3418 1000.9961 L 784.75195 1000.9961 C 809.37341 1000.9961 821.68359 997.35816 821.68359 990.08398 C 828.95777 990.08398 835.39297 984.48998 840.98828 973.29883 C 855.53661 902.79558 879.59612 818.02307 913.16797 718.98242 C 942.26464 757.59136 958.77233 787.94643 962.69141 810.04883 C 966.60786 832.15096 972.06378 847.53976 979.05859 856.21289 C 986.05075 864.88602 999.05984 901.67603 1018.0859 966.58398 C 992.34708 972.17929 982.83408 983.64978 989.54688 1000.9961 L 1043.2656 1000.9961 C 1048.8477 1000.9961 1052.2046 999.31644 1053.3379 995.95898 L 1053.3379 977.49414 C 1024.2412 886.84698 1002.4194 802.3548 987.87109 724.01758 C 1014.1686 727.37503 1051.3792 717.02351 1099.502 692.96289 C 1147.6221 668.90199 1180.6349 656.87109 1198.541 656.87109 L 1200.2402 656.87109 C 1180.0965 682.61058 1174.2217 745.84131 1182.6133 846.56055 C 1165.8274 890.76507 1152.3975 921.40045 1142.3242 938.4668 C 1132.2537 955.53315 1124.9797 964.06641 1120.502 964.06641 C 1091.9667 968.54264 1077.6992 975.53655 1077.6992 985.04883 C 1077.6992 994.56035 1079.3786 999.87591 1082.7363 1000.9961 L 1143.166 1000.9961 L 1143.166 992.60156 L 1154.916 989.24609 C 1168.9055 947.83921 1192.6859 907.27098 1226.2578 867.54297 C 1227.3779 841.80349 1239.1286 810.18912 1261.5098 772.69922 C 1271.0216 812.98703 1291.0254 841.52409 1321.5215 858.31055 C 1352.0176 875.09701 1365.8673 913.70696 1363.0684 974.13867 C 1341.8099 976.37653 1330.7576 981.41212 1329.9141 989.24609 C 1329.076 997.0798 1332.5733 1000.9961 1340.4062 1000.9961 L 1383.2148 1000.9961 C 1388.2487 998.7579 1393.8433 988.9654 1400 971.61914 C 1391.047 927.97417 1386.5703 893.00188 1386.5703 866.70312 C 1365.3066 840.96363 1354.6738 823.05814 1354.6738 812.98633 C 1364.7496 712.82661 1365.8706 645.12091 1358.0352 609.86914 C 1371.4687 584.68946 1377.0646 559.79032 1374.8242 535.16992 C 1368.109 513.34821 1351.0428 502.71664 1323.625 503.27539 C 1301.2568 506.07329 1289.5061 516.70486 1288.373 535.16992 C 1284.4566 555.87335 1289.772 567.90427 1304.3203 571.26172 C 1317.1897 566.78521 1319.7078 558.11193 1311.875 545.24219 C 1315.23 535.73042 1321.9446 532.09248 1332.0176 534.33008 C 1339.2839 534.33008 1343.7605 539.92605 1345.4473 551.11719 C 1345.4473 566.78458 1339.012 577.97482 1326.1426 584.68945 C 1250.0432 560.06905 1191.9902 550.6968 1151.9824 556.57227 C 1111.9744 562.44748 1073.9254 565.38477 1037.834 565.38477 C 953.03622 565.38477 919.71195 525.56653 840.44922 440.91211 C 831.49619 430.84029 825.62054 414.6125 822.82422 392.23047 C 814.98867 356.9787 803.79639 331.79928 789.24805 316.69141 L 789.20898 316.69141 C 787.51957 325.64418 786.12062 334.59775 785.01367 343.55078 C 781.09723 336.27636 775.22226 329.00074 767.38672 321.72656 C 767.94808 348.02557 765.98953 378.52262 761.51172 413.21484 C 751.44122 415.45296 743.88813 418.24997 738.85156 421.60742 C 734.37372 428.32258 729.05836 432.79953 722.9043 435.03711 C 688.77108 441.19223 663.59047 446.7865 647.36328 451.82227 C 646.2458 471.96618 652.12077 490.4323 664.99023 507.21875 C 704.71877 506.09969 730.17852 507.91768 741.36914 512.67383 C 752.55976 517.43048 766.13031 519.94914 782.07812 520.22852 C 798.02331 520.50841 812.15022 529.60035 824.46094 547.50586 C 825.41476 548.83493 826.34168 550.22869 827.24023 551.68164 C 795.65982 589.30229 759.31989 609.15802 724.47656 613.45898 C 689.377 617.79159 655.52336 606.60653 628.1543 580.41406 C 629.40531 566.30487 624.33511 545.95671 611.33594 524.4707 C 622.63441 445.38207 624.29568 390.21912 616.32031 358.98242 C 606.35116 331.73337 587.7412 290.19644 560.49219 234.36914 C 545.87073 201.13862 522.61029 184.52344 490.70898 184.52344 C 469.44144 184.52344 457.31106 180.36819 454.32031 172.06055 C 451.32959 163.75292 449.17104 154.61563 447.8418 144.64648 L 447.8418 143.64844 C 459.80481 138.99613 471.60175 129.52544 483.23242 115.23633 C 494.86308 100.94719 500.01275 81.508538 498.68359 56.917969 C 498.01897 30.998123 488.21684 14.880185 469.27539 8.5664062 C 450.33402 2.2525905 430.5619 -0.57087001 409.95898 0.09375 z M 416.6875 16.542969 C 425.8259 16.709124 435.87768 18.037009 446.84375 20.529297 C 468.77592 25.513873 480.40713 38.309186 481.73633 58.912109 C 482.40095 80.179652 475.75566 98.456146 461.79883 113.74219 C 447.84203 129.02822 438.86854 133.34726 434.88086 126.70117 C 429.56401 120.05508 432.55517 110.41864 443.85352 97.791016 C 465.41889 73.688572 453.68421 36.441249 411.95312 60.904297 C 404.64243 53.593551 388.35875 48.609615 363.10352 45.951172 C 367.75583 32.658957 377.39226 23.853159 392.01367 19.533203 C 399.3244 17.373226 407.5491 16.376814 416.6875 16.542969 z M 358.11914 56.917969 C 378.72207 56.917969 395.66873 61.570468 408.96094 70.875 C 408.29632 78.850329 411.12174 79.016066 417.43555 71.373047 C 430.17703 55.949198 449.20934 62.96879 440.86328 83.833984 C 436.8756 93.803135 431.39246 102.27746 424.41406 109.25586 C 417.43566 116.23429 416.10582 123.04532 420.42578 129.69141 C 424.74577 136.33753 427.23776 142.31983 427.90234 147.63672 C 432.55461 187.51337 448.17334 207.45117 474.75781 207.45117 C 508.65291 208.11579 515.46592 233.37101 495.19531 283.2168 C 474.9247 333.06259 466.78188 376.5943 470.76953 413.8125 L 377.06055 435.74609 C 374.4021 355.9928 367.58913 302.9904 356.62305 276.73828 C 345.65697 250.48616 337.35037 232.3754 331.70117 222.40625 C 326.05201 212.4371 335.52271 207.45117 360.11328 207.45117 C 384.70389 207.45117 395.8359 197.48326 393.50977 177.54492 C 391.18364 157.60661 382.37787 149.63149 367.0918 153.61914 C 351.80576 157.60683 345.15848 152.95433 347.15234 139.66211 C 356.45687 133.01599 359.44807 128.695 356.125 126.70117 C 352.80194 124.70735 347.48454 123.37946 340.17383 122.71484 C 340.17383 118.06257 336.18627 114.73797 328.21094 112.74414 C 334.85703 94.799627 341.50427 82.172037 348.15039 74.861328 C 355.46114 71.538265 362.93706 71.538265 370.58008 74.861328 C 378.22306 78.184391 386.36396 80.17913 395.00391 80.84375 L 394.00781 75.859375 C 388.69096 75.859375 382.21141 73.864636 374.56836 69.876953 C 366.92534 65.889307 359.11596 65.557796 351.14062 68.880859 C 353.79908 64.228556 356.12528 60.240995 358.11914 56.917969 z M 432.50586 67.423828 C 420.1447 67.569283 409.0555 87.556597 411.95312 94.800781 C 403.82486 97.510235 401.96589 107.02849 409.46094 109.75391 C 417.30997 112.60813 434.20427 93.111588 437.37305 82.337891 C 438.125 79.781238 441.33878 67.319877 432.50586 67.423828 z M 430.89453 73.990234 C 432.55605 74.073304 433.21903 75.193538 432.88672 77.353516 C 432.22217 81.673509 430.39509 85.994498 427.4043 90.314453 C 424.41355 94.634446 421.58997 97.457906 418.93164 98.787109 C 416.27323 100.11635 416.27323 98.788509 418.93164 94.800781 C 421.58997 90.813135 421.42239 89.483297 418.43164 90.8125 C 415.44092 92.14174 414.77599 90.811902 416.4375 86.824219 C 421.69311 74.210678 429.33745 73.912388 430.89453 73.990234 z M 361.34375 75.953125 C 357.948 75.890815 354.87824 76.855778 352.13672 78.849609 L 346.15625 84.832031 L 346.15625 90.8125 L 349.14648 89.816406 C 358.45101 94.468709 369.08582 93.803772 381.04883 87.822266 L 392.01367 90.8125 L 392.01367 84.832031 L 381.04883 84.832031 C 373.57195 79.016676 367.00333 76.056975 361.34375 75.953125 z M 358.11914 80.84375 C 356.7899 82.837573 357.12137 85.163823 359.11523 87.822266 C 356.45675 87.157646 354.13054 86.161234 352.13672 84.832031 C 352.80134 82.838171 354.79608 81.508333 358.11914 80.84375 z M 367.0918 80.84375 L 377.06055 86.824219 C 373.07286 87.488839 369.41678 87.822266 366.09375 87.822266 C 368.7522 85.828443 369.08566 83.502193 367.0918 80.84375 z M 410.95508 99.785156 C 414.94277 101.77899 415.7734 103.60607 413.44727 105.26758 C 411.12114 106.92913 409.62556 106.76335 408.96094 104.76953 C 408.29632 102.77567 408.96126 101.11437 410.95508 99.785156 z M 348.8457 109.07812 C 348.01498 109.08253 347.30905 110.53941 347.65039 112.24609 C 348.24006 115.19471 345.37018 118.18261 341.66992 113.74219 C 336.12128 107.08392 335.29195 112.94712 336.1875 114.73828 C 337.51671 113.40907 339.17802 114.07397 341.17188 116.73242 C 345.46816 122.46079 351.27907 117.83598 350.64258 112.74414 C 350.30807 110.06779 349.53402 109.07447 348.8457 109.07812 z M 338.21094 126.30469 C 338.7717 126.32029 339.42614 126.45194 340.17383 126.70117 C 342.83227 126.70117 345.82342 126.86702 349.14648 127.19922 C 352.46955 127.53164 353.79939 127.69922 353.13477 127.69922 L 337.18359 128.69531 C 335.85439 128.69531 335.52292 128.19615 336.1875 127.19922 C 336.60289 126.57614 337.27633 126.27873 338.21094 126.30469 z M 352.13672 129.69141 C 351.4721 131.02065 349.97648 132.35049 347.65039 133.67969 C 345.32422 135.00893 343.16569 135.67383 341.17188 135.67383 C 339.84263 136.33841 338.84431 136.33841 338.17969 135.67383 C 337.5151 135.00921 337.84852 134.01279 339.17773 132.68359 L 352.13672 129.69141 z M 794.28516 344.38867 L 813.61328 437.54883 C 833.39105 464.31934 853.04322 487.20451 872.3125 506.42383 L 841.11719 534.3418 C 839.77132 532.40391 838.37365 530.54158 836.92383 528.76172 C 821.73495 510.1152 808.9253 499.5752 798.49219 497.14062 C 771.07438 498.82027 752.74675 497.56186 743.51172 493.36523 C 734.27933 489.16941 713.15766 487.91098 680.14453 489.58984 L 675.10742 483.71484 L 675.10742 482.87695 C 710.91951 477.84039 708.96095 474.20243 669.23242 471.96484 L 665.87305 465.25 C 687.1368 461.89255 706.16133 457.6962 722.94727 452.66016 C 731.34154 453.77948 739.73336 448.1852 748.125 435.875 C 764.91883 430.27941 773.59301 425.52219 774.14648 421.60547 L 777.50781 366.20898 L 778.33789 366.20898 C 781.6877 380.75731 784.20581 394.46815 785.89258 407.33789 C 787.57144 420.20869 790.36871 420.76827 794.28516 409.01758 C 792.59839 390.55254 792.59839 369.00909 794.28516 344.38867 z M 755.67773 435.875 C 751.7613 436.43453 747.56379 440.63113 743.08594 448.46484 C 743.08594 452.3818 746.58332 455.73945 753.57812 458.53711 C 760.57292 461.33476 776.65963 457.69877 801.83984 447.62695 C 778.89724 440.352 763.51065 436.43374 755.67773 435.875 z M 474.75781 438.73633 C 496.68994 465.98534 497.68639 499.21571 477.74805 538.42773 L 500.67773 672.01562 L 334.19336 672.01562 L 376.0625 462.66211 L 474.75781 438.73633 z M 888.3125 521.62891 C 938.51969 566.98232 985.56092 587.2646 1024.6992 586.52734 C 1063.3372 585.79952 1111.8575 582.44612 1188.5156 576.29102 C 1211.4582 576.29102 1245.3111 583.28464 1290.0762 597.27344 C 1316.9326 601.19043 1332.8795 616.85954 1337.916 644.27734 C 1344.0701 680.64817 1342.3926 740.79963 1332.8809 824.73242 C 1306.0218 814.10081 1289.5134 792.55736 1283.3594 760.10352 C 1277.2053 727.64941 1270.6315 699.11234 1263.6367 674.49219 C 1256.642 649.87204 1234.3991 637.5625 1196.9082 637.5625 C 1178.4433 637.5625 1148.3684 647.91402 1106.6816 668.61719 C 1064.9949 689.32063 1024.008 699.67188 983.7207 699.67188 C 971.40995 699.67187 967.21373 705.26784 971.13281 716.45898 C 972.23975 728.2094 972.79297 738.56067 972.79297 747.51367 C 968.31777 748.07321 958.38515 737.58192 942.99609 716.03906 C 927.60964 694.4954 914.87978 684.28418 904.80664 685.4043 C 892.49854 715.06049 881.86904 737.44097 872.91602 752.54883 C 876.11578 703.49192 877.57543 611.20856 852.06641 554.06836 L 888.3125 521.62891 z M 1220.3848 662.75195 C 1243.877 684.01387 1255.3464 709.47313 1254.793 739.12695 C 1222.8974 796.20121 1206.9492 830.05223 1206.9492 840.68359 L 1206.1191 840.68359 C 1199.9626 758.99294 1204.7181 699.68266 1220.3848 662.75195 z " />
</svg>
