<?xml version="1.0" encoding="UTF-8" standalone="no"?>
<svg
   width="600"
   height="1000"
   version="1.1"
   id="svg1"
   sodipodi:docname="13603.svg"
   inkscape:version="1.4.2 (f4327f4, 2025-05-13)"
   xmlns:inkscape="http://www.inkscape.org/namespaces/inkscape"
   xmlns:sodipodi="http://sodipodi.sourceforge.net/DTD/sodipodi-0.dtd"
   xmlns="http://www.w3.org/2000/svg"
   xmlns:svg="http://www.w3.org/2000/svg">
  <defs
     id="defs1" />
  <sodipodi:namedview
     id="namedview1"
     pagecolor="#ffffff"
     bordercolor="#666666"
     borderopacity="1.0"
     inkscape:showpageshadow="2"
     inkscape:pageopacity="0.0"
     inkscape:pagecheckerboard="0"
     inkscape:deskcolor="#d1d1d1"
     inkscape:zoom="0.13346641"
     inkscape:cx="-1090.162"
     inkscape:cy="348.40228"
     inkscape:window-width="1680"
     inkscape:window-height="998"
     inkscape:window-x="-8"
     inkscape:window-y="-8"
     inkscape:window-maximized="1"
     inkscape:current-layer="svg1"
     showguides="true">
    <sodipodi:guide
       position="0,0"
       orientation="0,-1"
       id="guide2"
       inkscape:locked="false" />
    <sodipodi:guide
       position="-321.8543,390.72848"
       orientation="1,0"
       id="guide3"
       inkscape:locked="false" />
    <sodipodi:guide
       position="0,1000"
       orientation="0,-1"
       id="guide10"
       inkscape:locked="false" />
  </sodipodi:namedview>
  <path
     id="path1"
     style="fill:#000000;stroke:none;stroke-width:0.999997"
     d="M 613.47266 -2.3125 L 581.82422 23.347656 L 561.7793 -1.5664062 L 542.30078 14.103516 L 562.4043 39.091797 L 548.24805 50.568359 C 547.84203 49.246137 547.40979 47.89651 546.95312 46.515625 C 540.69587 43.099601 536.23925 42.650225 533.58398 45.167969 C 530.92865 47.685727 530.59971 51.2388 532.59375 55.826172 C 533.03385 58.097746 533.39571 60.278939 533.68359 62.376953 L 517.50781 75.492188 C 516.84128 75.127441 516.07274 74.841553 515.20312 74.634766 C 513.99841 76.476052 512.86363 78.305818 511.80078 80.119141 L 312.18359 241.95898 C 309.57157 234.72353 307.67047 226.63491 306.47852 217.69531 C 318.35837 212.69327 329.61288 203.62643 340.24219 190.49609 C 357.91876 168.66025 367.90274 105.95292 321.95312 91.550781 C 301.00712 84.985615 278.49802 83.890801 254.42578 88.267578 C 230.35351 92.644355 214.5636 112.65156 207.06055 148.29102 C 201.43327 155.79405 195.18248 166.42409 188.30469 180.17969 C 185.17842 188.30798 185.49069 192.84143 189.24219 193.7793 C 192.99372 194.7172 195.80783 196.1242 197.68359 198 C 189.29257 203.0346 198.0038 206.05273 199.55859 206.44141 C 200.0933 206.49591 199.07434 207.16264 197.68359 208.78516 C 195.80781 210.97353 196.27617 212.69479 199.08984 213.94531 C 201.90346 215.19584 203.46667 218.94669 203.7793 225.19922 C 204.09192 231.45175 206.74988 234.89039 211.75195 235.51562 C 216.75395 236.1409 224.56992 236.1409 235.19922 235.51562 L 238.94922 249.58398 C 234.40451 249.92062 229.93026 250.37037 225.52148 250.93359 C 209.48805 248.21202 191.26983 249.77516 168.08008 258.36719 C 120.25285 255.9705 78.770027 258.24186 28.349609 260.9082 C 17.442719 288.56222 23.852718 338.09253 34.302734 400.37695 C -24.602663 424.27541 -65.328318 482.89524 -56.162109 551.51367 L -55.15625 559.03711 L -48.017578 561.61719 C 47.645659 596.16633 144.87342 519.87064 145.51367 415.70898 C 145.51368 415.70834 145.51367 415.70768 145.51367 415.70703 L 206.88477 365.95117 C 214.25197 400.92857 219.25586 440.70764 219.25586 486.86719 L 173.29883 719.46289 C 156.417 818.25297 143.59926 880.15201 134.8457 905.16211 C 125.4669 930.17229 115.1491 944.39704 103.89453 947.83594 C 92.639987 951.27482 73.571479 958.93467 46.685547 970.81445 C 27.927961 974.56607 16.827573 980.50454 13.388672 988.63281 C 9.9497718 996.761 17.609567 1000.5119 36.367188 999.88672 C 60.126822 999.88672 77.790241 998.48157 89.357422 995.66797 C 100.92459 992.85425 115.93002 993.47884 134.375 997.54297 C 152.81998 1001.6072 162.04297 995.51053 162.04297 979.25391 C 164.54401 948.61647 176.58109 911.57033 198.15234 868.11523 C 219.72359 824.66007 229.57106 792.30353 227.69531 771.04492 C 225.81953 749.78635 232.69677 732.59326 248.32812 719.46289 L 318.66992 719.46289 C 333.05075 818.25296 341.80539 881.71511 344.93164 909.85156 C 346.18213 933.61113 342.27319 949.55332 333.20703 957.68164 C 324.14082 965.81012 306.47744 971.12612 280.2168 973.62695 C 263.96023 982.38051 255.51981 989.10355 254.89453 993.79297 C 254.26928 998.48232 259.58335 1000.512 270.83789 999.88672 C 282.09247 999.88672 295.84888 999.57443 312.10547 998.94922 C 328.36207 998.32402 347.90091 998.32402 370.72266 998.94922 C 393.54442 999.57447 401.20421 992.38503 393.70117 977.37891 C 386.19811 931.73547 385.41557 887.02948 391.35547 843.26172 C 397.29538 799.49396 393.3884 758.22861 379.63281 719.46289 L 358.06055 576.90234 C 368.06462 540.01238 366.96979 506.09458 354.77734 475.14453 C 342.58493 444.19448 350.87116 385.88827 379.63281 300.22852 C 427.77735 309.60731 483.51116 300.35383 533.93164 297.6875 C 545.06898 269.44902 538.14981 218.39902 527.31055 154.25195 C 542.24921 121.50103 550.03801 102.25766 552.17578 86.003906 L 581.20898 62.464844 L 601.25391 87.380859 L 620.73242 71.708984 L 600.62891 46.720703 L 632.36523 20.990234 L 613.47266 -2.3125 z M 277.99023 100.8125 C 286.50932 101.04697 295.84743 102.33693 306.00781 104.68164 C 351.94156 115.28176 342.49385 164.48719 320.07812 189.08984 C 307.26043 203.15806 298.66194 207.37923 294.28516 201.75195 C 289.28312 195.4994 292.25338 186.58867 303.19531 175.02148 C 324.18835 152.8288 312.8273 119.17526 273.65234 140.78906 C 266.77453 134.53653 251.76721 130.16119 228.63281 127.66016 C 232.38434 115.15507 241.13896 107.02494 254.89453 103.27344 C 261.77233 101.39767 269.47115 100.57803 277.99023 100.8125 z M 519.9082 112.16602 C 518.90302 113.39861 517.85594 114.63494 516.76953 115.88281 C 516.66313 115.57545 516.56087 115.26673 516.46484 114.95703 L 519.9082 112.16602 z M 500.67188 127.76172 C 501.07533 130.01421 501.62854 132.23638 502.33203 134.42969 C 508.08944 152.38016 508.67338 174.11293 504.08398 199.62891 C 499.49457 225.14486 502.06362 241.63963 503.23242 262.10547 C 474.70796 256.11611 442.84456 255.94737 399.76758 260.38867 C 378.83962 252.63468 361.96189 250.6048 347.08398 252.2832 L 500.67188 127.76172 z M 223.00586 137.97656 C 242.3887 137.97656 258.33284 142.35195 270.83789 151.10547 C 270.21265 157.98327 272.87065 157.98327 278.81055 151.10547 C 290.77509 137.25186 308.9053 142.87446 300.38086 161.89062 C 296.31671 170.95677 291.00267 178.61657 284.4375 184.86914 C 277.87234 191.12166 276.62141 197.37638 280.68555 203.62891 C 284.74969 209.88144 287.40574 215.1955 288.65625 219.57227 C 290.08936 233.66445 293.07402 245.06461 297.60938 253.77344 L 215.7832 320.11523 C 210.02296 295.14524 213.07932 280.07615 224.95117 274.9082 C 225.23862 274.9062 225.52835 274.90625 225.82031 274.90625 C 248.95471 274.90625 259.27251 265.68325 256.77148 247.23828 C 254.27044 228.79329 245.82812 221.44767 231.44727 225.19922 C 217.06646 228.95072 211.12789 224.88568 213.62891 213.00586 C 221.7572 207.37857 224.41328 203.47158 221.59961 201.2832 C 218.78598 199.09484 213.6261 198 206.12305 198 C 206.74833 193.62323 203.30968 190.18462 195.80664 187.68359 C 202.05917 172.05224 208.31389 160.79574 214.56641 153.91797 C 221.44419 150.79169 228.47755 150.79169 235.66797 153.91797 C 242.85839 157.04422 250.2059 158.92164 257.70898 159.54688 L 256.77148 154.85742 C 252.3947 154.23218 246.45227 152.35672 238.94922 149.23047 C 231.44618 146.10419 224.25671 145.79003 217.37891 148.29102 C 219.87994 143.91424 221.75533 140.47757 223.00586 137.97656 z M 292.80469 146.92188 C 280.90184 147.05421 269.35547 164.57889 273.65234 171.74023 C 265.94606 174.309 264.27875 183.42317 271.30664 185.33984 C 278.88846 187.4076 293.72927 169.47388 297.09961 160.48633 C 300.65339 151.00951 297.53035 146.86936 292.80469 146.92188 z M 290.88477 153.09961 C 292.36975 153.17771 293.03522 154.2316 292.87891 156.26367 C 292.12535 166.06052 283.60432 173.79663 280.2168 175.49023 C 277.71579 176.74074 277.71579 175.64592 280.2168 172.20703 C 282.71798 168.76816 282.56167 167.67531 279.74805 168.92578 C 276.93438 170.1763 276.30989 168.92702 277.87305 165.17578 C 282.94814 152.99532 290.17051 153.06202 290.88477 153.09961 z M 226.40625 155.25391 C 223.35815 155.22461 220.66111 156.03058 218.31641 157.67188 L 211.75195 163.29883 L 211.75195 167.98828 L 215.50391 167.05078 C 224.25747 171.42756 233.94687 171.11534 244.57617 166.11328 L 254.89453 167.98828 L 254.89453 163.29883 L 244.57617 162.36133 C 237.54208 157.6719 231.48642 155.30275 226.40625 155.25391 z M 223.94336 158.60938 C 222.06759 161.11041 222.38182 163.61229 224.88281 166.11328 C 222.38182 164.86277 220.19217 163.92407 218.31641 163.29883 C 218.94165 161.42308 220.81709 159.85988 223.94336 158.60938 z M 231.44727 159.54883 L 240.82617 164.23633 C 237.07463 165.48685 233.94831 166.11328 231.44727 166.11328 C 233.32306 164.23753 233.32306 162.04985 231.44727 159.54883 z M 272.71289 176.42969 C 276.46442 178.30545 277.24698 180.02474 275.05859 181.58789 C 272.8702 183.15101 271.46316 183.15101 270.83789 181.58789 C 270.21265 180.02474 270.83713 178.30545 272.71289 176.42969 z M 214.75977 185.19922 C 214.15876 185.16982 213.82779 186.62902 214.13477 188.16406 C 214.68888 190.93432 211.98979 193.75072 208.50781 189.57227 C 203.36835 183.40504 201.30474 188.29509 202.41211 190.50977 C 204.28811 189.25909 206.16286 189.72734 208.03906 191.91602 C 211.9625 196.49332 217.73854 193.667 216.48047 188.63477 C 215.85839 186.14649 215.22721 185.22209 214.75977 185.19922 z M 204.70898 200.43945 C 206.85915 200.48955 209.65462 200.75858 215.50391 201.47266 C 218.60712 201.8515 219.56689 202.06418 218.31641 202.68945 L 204.24805 203.62891 C 202.01274 202.51127 202.23721 200.38195 204.70898 200.43945 z M 218.31641 203.62891 C 217.13399 205.99372 211.95039 208.51932 208 209.25586 C 205.37363 209.74555 203.42367 209.14082 206.12305 206.44141 L 218.31641 203.62891 z M 320.84766 273.55469 C 324.23828 274.45644 327.88854 274.90625 331.79883 274.90625 C 356.80898 274.90625 361.5005 297.72758 345.86914 343.37109 C 330.23782 389.01462 324.60956 429.03098 328.98633 463.41992 L 240.82617 483.11523 C 238.68978 421.16013 233.8164 376.88448 226.20508 350.28711 L 320.84766 273.55469 z M 59.048828 296.48828 C 87.573257 302.47764 145.1378 302.64833 188.21484 298.20703 C 190.90972 306.2331 193.42447 314.01867 195.75977 321.56445 C 196.9024 325.51539 198.02618 329.53172 199.125 333.61914 L 126.66016 392.37109 C 116.69771 390.28563 106.80201 389.16676 97.068359 388.94141 C 82.643793 388.60745 68.574601 390.23307 55.171875 393.57812 C 54.950331 382.9388 55.958401 371.40146 58.195312 358.96484 C 62.784738 333.44887 60.217475 316.95422 59.048828 296.48828 z M 96.349609 413.78516 C 104.26959 414.0241 112.34382 414.96766 120.5 416.63281 C 119.54926 502.39047 44.663702 562.90037 -32.158203 540.49609 C -35.357627 495.33291 -13.062565 456.32911 21.96875 433.92383 C 7.027911 470.15546 6.3997958 485.08601 15.326172 512.07812 C 18.845801 513.99964 21.795805 514.98334 24.175781 515.02734 C 26.026895 515.06158 27.533624 514.52924 28.695312 513.42773 C 31.350602 510.90997 31.681619 507.35689 29.6875 502.76953 C 23.932086 473.0628 31.449303 458.86516 45.511719 442.71289 C 48.178712 450.41666 47.58497 458.85523 43.732422 468.0293 C 39.879876 477.20341 40.99519 482.51447 47.078125 483.96094 C 61.415226 462.04822 65.706736 442.11446 59.949219 424.16406 C 59.313431 422.18181 58.740118 420.15459 58.230469 418.08008 C 70.30845 414.9021 83.11783 413.38596 96.349609 413.78516 z M 331.79883 485.92969 C 349.93119 509.68933 350.86988 540.01238 334.61328 576.90234 L 356.18555 698.82812 L 201.43359 698.82812 L 239.88672 508.43945 L 331.79883 485.92969 z " />
</svg>
