<?xml version="1.0" encoding="UTF-8" standalone="no"?>
<svg
   width="600"
   height="1000"
   version="1.1"
   id="svg1"
   sodipodi:docname="13603.svg"
   inkscape:version="1.4.3 (0d15f75, 2025-12-25)"
   xmlns:inkscape="http://www.inkscape.org/namespaces/inkscape"
   xmlns:sodipodi="http://sodipodi.sourceforge.net/DTD/sodipodi-0.dtd"
   xmlns="http://www.w3.org/2000/svg"
   xmlns:svg="http://www.w3.org/2000/svg">
  <defs
     id="defs1" />
  <sodipodi:namedview
     id="namedview1"
     pagecolor="#ffffff"
     bordercolor="#666666"
     borderopacity="1.0"
     inkscape:showpageshadow="2"
     inkscape:pageopacity="0.0"
     inkscape:pagecheckerboard="0"
     inkscape:deskcolor="#d1d1d1"
     inkscape:zoom="0.3775"
     inkscape:cx="451.65563"
     inkscape:cy="425.16556"
     inkscape:window-width="1680"
     inkscape:window-height="998"
     inkscape:window-x="-8"
     inkscape:window-y="-8"
     inkscape:window-maximized="1"
     inkscape:current-layer="svg1"
     showguides="true">
    <sodipodi:guide
       position="0,1000"
       orientation="0,-1"
       id="guide1"
       inkscape:locked="false" />
  </sodipodi:namedview>
  <path
     id="path1"
     style="fill:#000000;stroke:none;stroke-width:0.999996"
     d="M 633.97461 1.7203817e-07 L 595.27148 30.654297 L 573.77148 3.7050783 L 558.13867 16.179688 L 579.59375 43.072266 L 573.30469 48.052735 C 572.54628 45.302845 571.66928 42.453326 570.67969 39.460938 C 564.15503 35.898922 559.50897 35.429342 556.74023 38.054688 C 553.97143 40.68005 553.62778 44.384544 555.70703 49.167969 C 556.50189 53.270619 557.05332 57.090376 557.37891 60.667969 L 542.61719 72.359375 C 541.71628 70.559298 540.03465 69.366788 537.57227 68.78125 C 534.50081 73.475666 531.87069 78.083429 529.68359 82.603516 L 354.38281 221.44922 C 338.53937 221.96194 329.17167 218.36669 326.2832 210.66406 C 323.3493 202.84036 321.23168 194.03939 319.92773 184.25977 C 332.31525 179.04395 344.05122 169.58994 355.13477 155.89844 C 373.56673 133.12938 383.97571 67.740311 336.0625 52.722656 C 314.22139 45.876911 290.75134 44.734998 265.65039 49.298828 C 240.54941 53.862659 224.08735 74.726073 216.26367 111.88867 C 210.39591 119.71237 203.8768 130.79714 196.70508 145.14063 C 193.44522 153.61631 193.76982 158.34235 197.68164 159.32031 C 201.59349 160.29827 204.52844 161.76672 206.48437 163.72266 C 197.73476 168.97244 206.81822 172.11813 208.43945 172.52344 C 208.99702 172.58024 207.93454 173.2769 206.48437 174.96875 C 204.52842 177.25065 205.01727 179.04564 207.95117 180.34961 C 210.88503 181.65357 212.51384 185.56422 212.83984 192.08398 C 213.16581 198.60373 215.93653 202.18788 221.15234 202.83984 C 226.3681 203.49183 234.51998 203.49183 245.60352 202.83984 L 249.51367 217.50977 C 244.77474 217.86079 240.10694 218.33069 235.50977 218.91797 C 220.34652 216.3441 203.31134 217.44428 182.23242 224.35547 C 133.43446 231.89218 82.021137 243.85521 29.914062 260.67578 C 18.300713 290.12109 25.51397 343.35166 36.816406 410.24023 C 35.131406 413.93437 33.533967 417.46539 32.021484 420.84375 C 22.421275 424.8106 13.6524 429.90206 5.7265625 436.17969 C -23.378088 459.23193 -39.526143 497.0078 -45.474609 548.26758 L -46.626953 558.20117 L -36.693359 559.35547 C 14.566255 565.30396 55.035899 558.23574 84.140625 535.18359 C 111.06147 513.86117 126.89949 479.94011 133.83203 434.4043 L 221.03711 365.33398 C 225.91889 395.12658 228.97852 428.08114 228.97852 464.93555 L 181.05664 707.4707 C 163.45338 810.48285 150.08857 875.02843 140.96094 901.10742 C 131.18135 927.18648 120.42304 942.01765 108.6875 945.60352 C 96.952009 949.18936 77.068079 957.17697 49.033203 969.56445 C 29.47403 973.47641 17.900311 979.66887 14.314453 988.14453 C 10.728594 996.62011 18.716184 1000.5327 38.275391 999.88086 C 63.05037 999.88086 81.467804 998.41431 93.529297 995.48047 C 105.59079 992.5465 121.23749 993.19772 140.4707 997.43555 C 159.7039 1001.6735 169.32031 995.31662 169.32031 978.36523 C 171.92823 946.41843 184.4796 907.78884 206.97266 862.47656 C 229.46574 817.16423 239.73326 783.42497 237.77734 761.25781 C 235.82141 739.0907 242.99363 721.16222 259.29297 707.4707 L 332.64062 707.4707 C 347.636 810.48284 356.76357 876.65715 360.02344 905.99609 C 361.32736 930.7711 357.25242 947.39538 347.79883 955.87109 C 338.3452 964.34697 319.9278 969.89036 292.54492 972.49805 C 275.59366 981.62572 266.79067 988.63555 266.13867 993.52539 C 265.4867 998.41515 271.02818 1000.5328 282.76367 999.88086 C 294.4992 999.88086 308.84362 999.55427 325.79492 998.90234 C 342.74622 998.25042 363.12096 998.25042 386.91797 998.90234 C 410.71501 999.55431 418.70062 992.05761 410.87695 976.41016 C 403.05327 928.81602 402.23986 882.19886 408.43359 836.56055 C 414.62735 790.92225 410.55047 747.89318 396.20703 707.4707 L 373.71484 558.81836 C 384.14642 520.3518 383.0045 484.98371 370.29102 452.71094 C 357.57758 420.43815 366.21628 359.64097 396.20703 270.32031 C 444.75432 285.06392 504.52641 304.14748 557.10156 301.36719 C 568.71484 271.92187 561.49973 218.68934 550.19727 151.80078 C 564.58496 120.25768 572.61144 100.72904 575.50977 84.576172 L 598.30469 66.523438 L 619.80469 93.470703 L 635.4375 80.998047 L 613.98242 54.105469 L 652.60156 23.517578 L 633.97461 1.7203817e-07 z M 290.22266 62.38086 C 299.10579 62.625349 308.84293 63.969147 319.4375 66.414063 C 367.33417 77.467212 357.48104 128.77753 334.10742 154.43164 C 320.74198 169.1011 311.7767 173.5006 307.21289 167.63281 C 301.99707 161.11306 305.09634 151.82326 316.50586 139.76172 C 338.39602 116.62056 326.5483 81.528871 285.69922 104.06641 C 278.5275 97.546657 262.87888 92.982913 238.75586 90.375 C 242.66772 77.335469 251.79527 68.859099 266.13867 64.947266 C 273.31037 62.991331 281.33952 62.13637 290.22266 62.38086 z M 232.88867 101.13281 C 253.09983 101.13281 269.72422 105.69659 282.76367 114.82422 C 282.11171 121.99597 284.8844 121.99597 291.07812 114.82422 C 303.55397 100.37853 322.45904 106.24144 313.57031 126.07031 C 309.33249 135.52392 303.79103 143.51147 296.94531 150.03125 C 290.09959 156.55099 288.79539 163.0701 293.0332 169.58984 C 297.27102 176.10959 300.04175 181.65298 301.3457 186.2168 C 304.34872 215.74644 313.88275 233.94026 329.94922 240.80078 L 234.36328 316.50977 C 233.57122 314.15081 232.75331 311.95659 231.91016 309.92773 C 230.39547 306.283 228.93307 302.80309 227.52148 299.48828 C 218.78811 268.38821 221.25322 249.86555 234.91602 243.91797 C 235.21574 243.91597 235.51782 243.91602 235.82227 243.91602 C 259.94529 243.91602 270.70361 234.29773 268.0957 215.06445 C 265.48778 195.83118 256.6868 188.17211 241.69141 192.08398 C 226.69605 195.99581 220.50146 191.75668 223.10937 179.36914 C 231.58501 173.50135 234.35577 169.42839 231.42187 167.14648 C 228.48801 164.86459 223.10884 163.72266 215.28516 163.72266 C 215.93716 159.15884 212.35102 155.57276 204.52734 152.96484 C 211.04707 136.66544 217.56818 124.92952 224.08789 117.75781 C 231.25959 114.49793 238.59409 114.49793 246.0918 117.75781 C 253.58949 121.01768 261.25052 122.97499 269.07422 123.62695 L 268.0957 118.73633 C 263.53189 118.08437 257.33734 116.12901 249.51367 112.86914 C 241.68999 109.60927 234.19125 109.2808 227.01953 111.88867 C 229.62743 107.32485 231.58472 103.7407 232.88867 101.13281 z M 305.67187 110.46094 C 293.26038 110.59894 281.21872 128.87244 285.69922 136.33984 C 277.66362 139.01838 275.92569 148.52095 283.25391 150.51953 C 291.15972 152.67565 306.63408 133.97519 310.14844 124.60352 C 313.85409 114.7217 310.59949 110.40619 305.67187 110.46094 z M 303.66992 116.90234 C 305.21836 116.98384 305.91105 118.08226 305.74805 120.20117 C 304.96229 130.41671 296.07722 138.48401 292.54492 140.25 C 289.93705 141.55395 289.93705 140.41401 292.54492 136.82813 C 295.153 133.24229 294.98855 132.10038 292.05469 133.4043 C 289.12079 134.70826 288.46966 133.4057 290.09961 129.49414 C 295.39159 116.79311 302.92514 116.86315 303.66992 116.90234 z M 236.43359 119.14844 C 233.25523 119.11784 230.44294 119.95848 227.99805 121.66992 L 221.15234 127.53711 L 221.15234 132.42773 L 225.06445 131.44922 C 234.19208 136.01306 244.29732 135.6885 255.38086 130.47266 L 266.13867 132.42773 L 266.13867 127.53711 L 255.38086 126.55859 C 248.04618 121.66875 241.73087 119.19938 236.43359 119.14844 z M 233.86523 122.64648 C 231.90932 125.2544 232.23783 127.86479 234.8457 130.47266 C 232.23783 129.16871 229.95396 128.18907 227.99805 127.53711 C 228.65001 125.5812 230.60537 123.95043 233.86523 122.64648 z M 241.69141 123.62695 L 251.4707 128.51563 C 247.55885 129.81959 244.29931 130.47266 241.69141 130.47266 C 243.64736 128.51675 243.64736 126.23487 241.69141 123.62695 z M 522.84375 126.29102 C 523.2036 127.91948 523.63969 129.53254 524.15234 131.13086 C 530.15579 149.84849 530.76406 172.51072 525.97852 199.11719 C 521.193 225.72364 523.87111 242.92317 525.08984 264.26367 C 496.00828 255.37087 459.47349 240.02904 417.20312 228.77539 C 411.23083 226.56259 405.57487 224.79718 400.19141 223.43555 L 522.84375 126.29102 z M 284.71875 141.23047 C 288.6306 143.18639 289.44597 144.97746 287.16406 146.60742 C 284.88215 148.23736 283.41567 148.23736 282.76367 146.60742 C 282.11171 144.97746 282.76284 143.18639 284.71875 141.23047 z M 224.23828 150.375 C 223.64453 150.42792 223.32747 151.91061 223.63867 153.4668 C 224.21646 156.35545 221.40225 159.29063 217.77148 154.93359 C 212.41239 148.50279 210.25938 153.60279 211.41406 155.91211 C 213.37023 154.60799 215.32681 155.0967 217.2832 157.37891 C 221.37429 162.15184 227.39581 159.2024 226.08398 153.95508 C 225.41216 151.2678 224.73025 150.33115 224.23828 150.375 z M 213.81055 166.26758 C 216.05261 166.31978 218.96519 166.59916 225.06445 167.34375 C 228.30029 167.73879 229.30196 167.95934 227.99805 168.61133 L 213.33008 169.58984 C 210.99925 168.42444 211.23316 166.20762 213.81055 166.26758 z M 227.99805 169.58984 C 226.76509 172.05571 221.36139 174.69096 217.24219 175.45898 C 214.50357 175.96959 212.47042 175.33821 215.28516 172.52344 L 227.99805 169.58984 z M 364.95508 251.3457 C 373.36039 261.74605 372.04318 283.0662 361.00195 315.30664 C 344.70264 362.90086 338.83463 404.62573 343.39844 440.48438 L 251.4707 461.02344 C 249.83917 413.70922 246.67631 376.28229 241.98242 348.74414 L 364.95508 251.3457 z M 196.61133 268.21094 C 199.42137 276.58003 202.04343 284.69813 204.47852 292.56641 C 208.09896 305.08503 211.5358 318.24576 214.62695 332.14258 L 115.20508 410.88867 L 115.20312 410.88867 C 106.51965 410.1927 98.168019 409.90281 90.150391 410.0332 C 79.101571 410.2129 68.6879 411.19304 58.917969 413.01367 C 56.978339 398.2511 57.684169 381.55447 61.035156 362.92383 C 65.820706 336.31736 63.14437 319.11793 61.925781 297.77734 C 92.605187 290.91841 154.03347 278.45815 196.61133 268.21094 z M 90.623047 430.00391 C 97.943296 429.89752 105.83235 430.31699 113.99414 430.98242 C 107.58302 473.48569 93.586538 502.18836 71.724609 519.50391 C 49.86245 536.81964 18.715286 543.87197 -24.126953 540.37891 C -17.715884 497.87579 -3.7173593 469.17306 18.144531 451.85742 C 18.546559 451.539 18.951158 451.22368 19.359375 450.91211 C 7.6445352 481.81539 7.8767219 497.0064 16.333984 522.58008 C 20.004022 524.58372 23.080817 525.6084 25.5625 525.6543 C 27.492719 525.69 29.064058 525.13492 30.275391 523.98633 C 33.044151 521.36096 33.38793 517.65648 31.308594 512.87305 C 25.30723 481.89673 33.145234 467.09257 47.808594 450.25 C 50.589558 458.28301 49.972259 467.0823 45.955078 476.64844 C 41.937896 486.21464 43.100477 491.75148 49.443359 493.25977 C 63.972432 471.05357 68.607178 450.79802 63.345703 432.49414 C 71.728734 430.97968 80.805682 430.14658 90.623047 430.00391 z M 346.33203 463.95703 C 365.23925 488.73209 366.21694 520.3518 349.26562 558.81836 L 371.75977 685.95508 L 210.39453 685.95508 L 250.49023 487.42773 L 346.33203 463.95703 z " />
</svg>
