<?xml version="1.0" encoding="UTF-8" standalone="no"?>
<svg
   width="2500"
   height="800"
   id="svg2214"
   sodipodi:version="0.32"
   inkscape:version="1.4.3 (0d15f75, 2025-12-25)"
   sodipodi:docname="13610.svg"
   inkscape:output_extension="org.inkscape.output.svg.inkscape"
   sodipodi:modified="true"
   version="1.0"
   xmlns:inkscape="http://www.inkscape.org/namespaces/inkscape"
   xmlns:sodipodi="http://sodipodi.sourceforge.net/DTD/sodipodi-0.dtd"
   xmlns="http://www.w3.org/2000/svg"
   xmlns:svg="http://www.w3.org/2000/svg"
   xmlns:rdf="http://www.w3.org/1999/02/22-rdf-syntax-ns#"
   xmlns:cc="http://creativecommons.org/ns#"
   xmlns:dc="http://purl.org/dc/elements/1.1/">
  <metadata
     id="metadata2221">
    <rdf:RDF>
      <cc:Work
         rdf:about="">
        <dc:format>image/svg+xml</dc:format>
        <dc:type
           rdf:resource="http://purl.org/dc/dcmitype/StillImage" />
      </cc:Work>
    </rdf:RDF>
  </metadata>
  <defs
     id="defs2219">
    <inkscape:perspective
       sodipodi:type="inkscape:persp3d"
       inkscape:vp_x="0 : 790.93233 : 1"
       inkscape:vp_y="0 : 1000 : 0"
       inkscape:vp_z="32.375343 : 790.93233 : 1"
       inkscape:persp3d-origin="16.187672 : 787.93337 : 1"
       id="perspective2446" />
  </defs>
  <sodipodi:namedview
     inkscape:window-height="998"
     inkscape:window-width="1680"
     inkscape:pageshadow="2"
     inkscape:pageopacity="0.0"
     guidetolerance="10.0"
     gridtolerance="10.0"
     objecttolerance="10.0"
     borderopacity="1.0"
     bordercolor="#666666"
     pagecolor="#ffffff"
     id="base"
     inkscape:zoom="0.27375"
     inkscape:cx="1996.347"
     inkscape:cy="725.11415"
     inkscape:window-x="-8"
     inkscape:window-y="-8"
     inkscape:current-layer="svg2214"
     showguides="true"
     inkscape:guide-bbox="true"
     showgrid="false"
     inkscape:showpageshadow="2"
     inkscape:pagecheckerboard="0"
     inkscape:deskcolor="#d1d1d1"
     inkscape:window-maximized="1">
    <sodipodi:guide
       position="0,-0.00071800975"
       orientation="0,-1"
       id="guide7"
       inkscape:locked="false" />
    <sodipodi:guide
       position="1968.8704,-0.040582898"
       orientation="1,0"
       id="guide8"
       inkscape:locked="false" />
    <sodipodi:guide
       position="900.9886,503.51418"
       orientation="0,-1"
       id="guide9"
       inkscape:locked="false" />
    <sodipodi:guide
       position="1499.4011,92.49694"
       orientation="-0.92442215,0.3813708"
       id="guide10"
       inkscape:locked="false" />
  </sodipodi:namedview>
  <path
     id="path1-94"
     style="baseline-shift:baseline;display:inline;overflow:visible;vector-effect:none;fill:#000000;enable-background:accumulate;stop-color:#000000;stop-opacity:1;opacity:1"
     d="M 991.70508 0 C 953.13074 9.0528367 924.91398 43.731668 919.97266 84.621094 L 901.02734 216.96875 C 893.16617 214.47125 885.06414 212.81353 876.6582 212.4668 C 875.49996 218.41134 878.9086 223.82634 888.25 226.64453 C 882.38294 249.50894 884.52245 262.00609 894.25781 264.26367 L 892.1582 278.93945 L 863.0625 277.55469 C 830.53077 278.60374 810.80365 280.72301 803.98242 283.3457 C 750.46293 295.41377 712.38552 301.88281 689.29883 301.88281 L 680.03125 303.03906 L 678.875 303.03906 L 676.55859 301.88281 L 633.69531 303.03906 L 596.62695 299.56445 C 559.3733 282.77406 526.49408 274.07812 498.16016 274.07812 C 464.57938 256.23829 441.13815 247.43555 427.49609 247.43555 L 390.42383 247.43555 L 390.42383 242.80273 L 381.1582 246.27539 C 405.29432 218.466 417.07031 193.64749 417.07031 172.13477 C 412.87066 146.42798 407.88833 133.91016 403.16602 133.91016 L 392.74023 133.91016 L 392.74023 146.6543 C 392.74023 166.06812 388.50198 182.08038 381.15625 194.14844 C 371.71194 214.61099 343.18411 232.21951 295.43945 247.43555 L 295.42578 247.43555 C 286.65726 245.44285 279.74629 245.54485 274.97656 247.43555 L 269.67969 247.43555 L 269.67969 242.80273 L 260.41406 246.27539 C 284.55016 218.466 296.32617 193.64749 296.32617 172.13477 C 292.12652 146.42798 287.14419 133.91016 282.42188 133.91016 L 271.99609 133.91016 L 271.99609 146.6543 C 271.99609 166.06812 267.75784 182.08038 260.41211 194.14844 C 253.11454 209.95978 234.42114 224.0657 204.27344 236.68164 C 162.59494 214.25561 141.66651 183.87677 142.51953 145.49219 C 139.37232 138.14645 136.29155 134.76133 132.09375 137.38477 C 123.69857 143.68106 119.34961 155.87085 119.34961 172.13672 C 119.34961 187.87767 125.29178 207.97835 137.88477 232.37695 C 141.09379 238.59435 145.17986 244.44889 150.11133 249.9668 C 145.67983 253.67789 139.80894 253.35977 131.82617 249.75391 C 123.69345 246.08031 118.75576 246.71386 115.60742 250.91016 C 52.643265 227.8231 20.724003 192.7154 21.773438 145.49219 C 18.626226 138.14645 15.545451 134.76133 11.347656 137.38477 C 2.9524757 143.68106 -1.3945313 155.87085 -1.3945312 172.13672 C -1.3945312 187.87767 4.5476487 207.97835 17.140625 232.37695 C 29.733609 256.77555 55.819102 275.60536 93.597656 290.29688 C 92.022189 300.26603 91.651832 308.85128 92.441406 314.62305 C 93.227291 320.3948 89.25177 339.49065 80.855469 372.54688 C 70.886279 380.41751 65.796875 389.11116 65.796875 398.03125 C 65.796875 407.47588 67.918082 413.41807 71.589844 416.56641 C 71.589844 424.9616 89.306039 429.30859 126.03516 429.30859 C 134.43035 428.78591 141.63987 423.58394 146.88672 413.08984 C 153.70792 422.00995 162.25017 427.31844 173.53125 430.4668 C 184.81232 433.61401 193.02635 439.81977 196.69922 449.00195 C 200.37285 458.18414 208.43436 467.88458 221.02734 476.80469 C 221.02734 514.05873 238.74354 550.86839 275.47266 589.17188 L 275.47266 600.75781 C 263.92912 621.746 256.24002 634.5245 252.30469 638.98438 C 248.36938 643.44424 246.1405 650.65572 245.35352 659.83789 C 244.56762 669.02009 235.49937 684.98935 218.70898 709.65039 C 204.01748 716.47162 196.69922 729.40347 196.69922 746.71875 L 180.48242 751.35156 C 171.56234 759.22221 162.758 775.3448 153.83789 800.00586 L 226.82031 800.00586 L 240.7207 773.36328 C 240.7207 766.54206 243.95332 764.20445 249.98828 765.25391 C 256.02251 766.30298 258.62023 761.21391 258.0957 750.19531 C 257.57302 739.17668 269.12923 719.3404 291.69141 689.95703 C 304.28438 684.18528 311.07773 675.48933 313.70117 664.4707 C 316.3257 653.45209 329.25876 640.93369 350.77148 626.24219 C 363.88897 612.07521 376.40507 603.38124 388.99805 600.75781 L 392.94336 606.67383 C 383.20672 624.16227 376.59956 634.96036 373.04883 638.98438 C 369.11351 643.44424 366.88464 650.65572 366.09766 659.83789 C 365.31177 669.02009 356.24548 684.98935 339.45508 709.65039 C 324.7636 716.47162 317.44336 729.40347 317.44336 746.71875 L 301.22656 751.35156 C 292.30647 759.22221 283.50213 775.3448 274.58203 800.00586 L 347.56445 800.00586 L 361.46484 773.36328 C 361.46484 766.54206 364.69747 764.20445 370.73242 765.25391 C 376.76666 766.30298 379.36633 761.21391 378.8418 750.19531 C 378.31913 739.17668 389.87338 719.3404 412.43555 689.95703 C 421.11797 685.97761 427.04506 680.6072 430.74805 674.04492 C 431.94672 675.46444 433.08945 676.52037 434.17773 677.21289 L 448.07812 746.71875 C 433.38626 760.36119 422.57448 777.86143 416.80273 798.84961 L 486.30859 798.84961 L 486.30859 769.88867 C 504.67297 769.366 511.13808 758.54812 504.8418 738.60938 C 490.15029 710.8 481.45631 683.6458 479.35742 656.36133 L 481.67383 636.66797 C 479.07537 632.12059 476.77079 627.5185 474.7207 622.87891 C 486.6799 610.6951 498.17863 603.1668 509.74219 600.75781 L 532.91211 635.50977 C 541.83221 659.64592 549.15012 673.54003 554.92188 677.21289 L 568.82227 746.71875 C 554.13041 760.36119 543.31864 777.86143 537.54688 798.84961 L 607.05273 798.84961 L 607.05273 769.88867 C 625.41712 769.366 631.88224 758.54811 625.58594 738.60938 C 610.89443 710.80001 602.20046 683.6458 600.10156 656.36133 L 602.41797 636.66797 C 594.02274 621.97611 588.7139 606.70469 585.04102 591.48828 C 661.95931 601.81173 743.79164 580.85703 799.17188 562.57617 L 799.35156 574.11328 L 803.98438 635.50977 C 798.21257 658.59648 789.88986 680.28846 779.6582 701.53906 C 769.42656 722.78969 756.6461 741.71061 741.42969 754.82812 C 732.50958 754.82812 722.74533 769.57306 710.15234 800.00586 L 780.81641 800.00586 L 785.45117 777.99805 L 799.35156 779.1543 L 809.77734 779.1543 C 817.12314 750.82038 829.64109 715.29652 848.00586 674.89453 C 861.64825 669.6473 869.0838 663.7016 868.85742 656.35938 L 884.97852 581.49609 C 904.36615 598.74165 927.69071 623.50598 942.99609 640.14258 C 956.63849 652.73554 962.68945 677.76967 962.68945 716.59766 L 962.68945 722.38867 L 960.37305 749.03516 C 960.37305 754.28204 948.48832 770.40497 923.30273 797.68945 L 923.30273 800.00586 L 1004.3945 800.00586 L 1004.3945 781.4707 C 1016.4626 781.4707 1022.9277 776.27255 1022.9277 765.25391 L 1022.9277 761.7793 L 999.75977 672.58008 L 1010.1855 604.23242 L 1018.2949 633.19336 C 1018.8954 659.9681 1026.7273 676.22293 1022.3965 708.58594 C 1026.0552 732.00888 1041.8852 752.04102 1051.3242 752.04102 C 1057.096 752.04102 1055.295 751.00455 1065.7891 742.08594 L 1066.9473 678.37109 L 1066.9473 664.4707 C 1066.9473 647.15541 1064.7188 629.02147 1059.9961 611.18164 C 1043.73 561.335 1035.6699 529.72469 1035.6699 515.0332 L 1035.6699 413.06055 C 1070.9014 437.98625 1126.4513 478.99553 1202.3301 536.0957 L 1199.3145 551.35742 C 1184.2834 639.31755 1172.8703 694.43275 1165.0762 716.70117 C 1156.7256 738.41284 1147.5403 750.79943 1137.5195 753.86133 C 1127.4986 756.92326 1110.5186 764.02211 1086.5801 775.15625 C 1069.8789 777.93981 1059.8577 783.08793 1056.5176 790.60352 C 1053.1773 798.11904 1060.1365 801.32041 1077.3945 800.20703 C 1098.5495 800.20703 1114.2771 799.09416 1124.5762 796.86719 C 1134.8754 794.64029 1148.2374 795.19685 1164.6602 798.53711 C 1174.6855 800.5761 1181.5483 799.39949 1185.2461 795.00781 C 1201.309 798.78822 1224.0979 800.43844 1253.6152 799.95898 L 1275.9258 799.95898 C 1278.3512 800.68117 1281.7634 801.04297 1286.1621 801.04297 C 1295.4757 801.04297 1306.7122 800.68052 1319.873 799.95898 L 1529.4492 799.95898 C 1543.8301 791.74057 1549.4799 777.35838 1546.3984 756.8125 C 1539.7211 739.34833 1530.7331 727.5351 1519.4336 721.37109 L 1601.4824 524.24414 C 1606.619 509.34832 1615.9909 498.94612 1629.6016 493.03906 C 1633.2264 491.46459 1636.3151 489.80914 1638.8652 488.07031 C 1638.9954 488.31585 1639.1422 488.56339 1639.3066 488.8125 C 1662.1646 484.46492 1686.0811 467.87194 1711.0566 439.03516 C 1743.1252 419.12787 1771.2886 389.20104 1795.5469 349.25586 C 1802.8299 337.9371 1809.5987 323.79363 1815.8535 307.96484 C 1819.1239 318.42971 1821.4422 330.48819 1822.3789 344.66602 L 1775.8555 551.51562 C 1760.9034 639.01815 1749.8293 693.84557 1742.6309 715.99805 C 1734.3216 737.59698 1725.182 750.05809 1715.2129 753.38086 C 1705.2469 756.70361 1688.0781 763.6277 1663.709 774.15039 C 1647.6492 777.47314 1637.9579 782.73394 1634.6348 789.93359 C 1631.3118 797.13443 1637.9587 800.45765 1654.5742 799.90234 C 1676.1724 799.90234 1692.0944 798.65563 1702.3398 796.16406 C 1712.5851 793.67193 1725.8748 794.22636 1742.2109 797.82617 C 1758.5349 801.42601 1766.4269 796.02595 1765.8867 781.62695 C 1768.6575 754.48989 1779.5964 721.67562 1798.7031 683.18555 C 1817.8219 644.69547 1826.4045 616.03644 1824.4531 597.20703 C 1822.514 578.37731 1828.4679 563.14767 1842.3125 551.51758 L 1904.6172 551.51758 C 1917.9153 639.02013 1925.9455 695.23262 1928.707 720.1543 C 1929.8148 741.1991 1926.3542 755.31988 1918.3242 762.51953 C 1910.2942 769.71887 1894.3722 774.42722 1870.5586 776.64258 C 1856.7232 784.39608 1849.3854 790.35024 1848.5449 794.50391 C 1847.7135 798.65607 1852.5597 800.45469 1863.084 799.90234 C 1873.0533 799.90234 1885.2359 799.62563 1899.6328 799.07031 C 1914.0327 798.51497 1931.3402 798.51497 1951.5547 799.07031 C 1971.7691 799.62414 1978.2764 793.2545 1971.0781 779.96289 C 1964.9813 739.53451 1964.426 699.93706 1969.4121 661.16992 C 1974.3952 622.40309 1971.0724 585.85204 1959.4434 551.51562 L 1940.334 425.24609 C 1949.1985 392.57122 1948.507 361.14202 1938.2617 330.95898 C 1928.0133 300.77624 1912.0727 262.43933 1913.3164 224.7832 C 1914.5599 187.1274 1892.2094 149.73352 1846.2637 112.60156 C 1855.0778 106.173 1862.998 96.254678 1870.0273 82.845703 C 1877.0567 69.436739 1877.9898 53.374329 1872.8262 34.658203 C 1867.7424 13.659114 1855.5188 2.2676628 1836.1562 0.48632812 C 1816.7966 -1.2959656 1797.0739 1.8154415 1776.9863 9.8203125 C 1756.8985 17.825237 1746.7154 38.286555 1746.4355 71.203125 C 1743.5021 78.632325 1740.2812 88.673097 1736.7734 101.32422 C 1735.1556 109.60243 1736.0586 113.7983 1739.4824 113.91211 C 1742.9147 114.02406 1745.6128 114.71667 1747.5762 115.99219 C 1745.7543 118.08443 1745.2667 119.74755 1746.1152 120.98047 C 1746.9346 122.21966 1748.43 122.60598 1750.6016 122.13867 C 1751.6581 121.91133 1751.5832 122.91894 1750.377 125.16211 C 1749.1708 127.40432 1749.7711 128.83363 1752.1758 129.44922 C 1754.5803 130.06482 1756.6288 133.02177 1758.3223 138.32227 C 1760.0317 143.62637 1762.9461 145.97318 1767.0645 145.36328 C 1771.1799 144.75403 1778.1094 143.40197 1787.8555 141.30469 L 1792.8984 152.96484 C 1775.072 159.63355 1761.6645 165.77608 1752.6758 171.39258 C 1743.6869 177.00916 1736.0122 190.69844 1729.6504 212.46094 C 1723.2859 234.22433 1715.3834 267.93141 1705.9453 313.58203 C 1689.7492 326.36881 1675.3845 342.39209 1657.2539 365.8125 C 1639.1204 389.2313 1621.9595 402.3182 1605.7715 405.07227 C 1589.5806 407.8247 1575.0424 412.408 1562.1543 418.82422 C 1550.3683 425.16643 1538.8974 436.20727 1527.7422 451.94336 C 1529.2187 457.39626 1531.4952 460.29568 1534.5723 460.64258 C 1529.8785 466.43383 1526.3725 472.69973 1524.0547 479.44141 L 1445.4668 672.83008 L 1445.4668 672.83203 L 1395.6133 637.14844 C 1396.9665 606.96689 1392.7712 578.3688 1383.0293 551.35742 L 1363.8203 424.42773 C 1372.7278 391.58184 1371.7563 361.37939 1360.9004 333.82227 C 1359.4811 303.8386 1344.3474 260.93533 1343.1895 198.13086 L 1343.7734 197.91016 C 1354.4086 227.28863 1373.0093 252.77129 1395.3242 286.12891 C 1394.4399 306.64031 1397.2274 330.07263 1407.8145 359.19531 C 1418.402 388.31804 1419.7771 409.58453 1411.9375 422.99414 C 1404.098 436.40377 1404.4035 454.14051 1412.8574 476.20898 C 1419.006 476.12878 1421.2038 471.70271 1419.4512 462.92969 C 1417.6985 454.15661 1418.4435 446.52364 1421.6855 440.0293 C 1430.6365 454.69051 1435.8857 468.03606 1425.7305 495.02148 C 1421.2712 501.66708 1424.2223 508.99034 1436.1641 506.52734 C 1451.7178 479.14247 1451.7971 467.05896 1438.248 405.5625 C 1437.2951 348.0108 1432.0682 309.53342 1426.0918 287.45703 C 1418.8775 262.72834 1403.6696 217.99186 1378.2422 163.06445 C 1368.145 141.25283 1350.4877 132.36886 1328.3477 133.39258 C 1296.3658 138.637 1278.3369 138.32977 1274.2656 132.4707 C 1270.1941 126.61167 1266.5923 119.77136 1263.459 111.95117 C 1272.6159 105.03251 1280.3449 94.743633 1286.6426 81.083984 C 1292.94 67.424356 1293.1513 51.288111 1287.2793 32.675781 C 1281.3992 11.768123 1268.7352 0.91019007 1249.2891 0.1015625 C 1239.566 -0.30275502 1229.7897 0.49163905 1219.957 2.484375 C 1210.1244 4.4771015 1200.2352 7.6688129 1190.293 12.058594 C 1170.4083 20.83813 1161.1327 41.429301 1162.4629 73.830078 C 1159.2496 81.537773 1156.1809 92.079398 1153.2578 105.45703 C 1152.3401 113.15658 1153.5003 117.16809 1156.7422 117.49414 C 1159.9839 117.8202 1162.8915 118.52073 1165.4609 119.5918 C 1160.2486 124.8411 1165.1865 126.55367 1168.7227 125.65625 C 1169.4999 126.81502 1163.2799 131.0877 1169.9609 132.23242 C 1172.6629 132.69539 1174.8666 135.72681 1176.5742 141.32422 C 1178.2819 146.92161 1181.3295 149.30619 1185.7148 148.48047 C 1190.1001 147.65478 1196.8115 145.80898 1205.8477 142.94141 L 1212.3711 155.07031 C 1198.906 156.1199 1184.6788 163.78847 1169.291 177.63672 C 1163.4886 182.85852 1158.344 186.09069 1147.7402 193.0293 C 1116.0838 213.74379 1080.7568 242.18226 1053.5508 262.4375 C 1016.7367 251.60306 957.88609 236.87495 937.92773 233.89062 C 932.70526 231.01861 927.41143 228.18052 922.02148 225.55664 L 941.78516 87.484375 L 941.80078 87.359375 C 945.68668 54.881495 968.10008 28.137563 996.73242 21.417969 L 991.70508 0 z M 1824.2832 14.505859 C 1842.9798 14.447878 1854.3992 22.75543 1858.5391 39.425781 C 1863.1173 55.435272 1861.0299 70.753526 1852.2793 85.382812 C 1843.5319 100.0111 1837.0102 105.24004 1832.7129 101.06641 C 1827.2162 96.584329 1827.9914 88.344421 1835.0391 76.347656 C 1842.0899 64.35024 1841.9187 54.331842 1834.5234 46.292969 C 1827.1281 38.252633 1816.7808 40.194178 1803.4844 52.119141 L 1803.4863 52.125 C 1796.2504 47.45101 1782.1113 46.244121 1761.0703 48.505859 C 1762.6482 37.402726 1768.9077 28.973697 1779.8477 23.220703 C 1790.79 17.465356 1805.6014 14.560389 1824.2832 14.505859 z M 1238.3027 14.519531 C 1256.867 14.116071 1268.7443 21.872849 1273.9316 37.787109 C 1278.7164 54.377947 1277.0824 70.01286 1269.0332 84.691406 C 1260.9839 99.369927 1254.455 104.7592 1249.4453 100.86133 C 1243.896 97.100393 1244.4072 88.930038 1250.9785 76.349609 C 1263.5187 52.342763 1247.6661 26.695347 1218.2871 52.769531 C 1210.9821 48.879794 1197.0718 48.388573 1176.5586 51.296875 C 1177.8502 28.80132 1200.7265 20.366515 1213.3008 17.419922 C 1220.6872 15.689048 1229.0206 14.721242 1238.3027 14.519531 z M 1821.4375 50.478516 C 1822.1422 50.503832 1822.8671 50.595077 1823.6094 50.753906 C 1829.554 52.023856 1831.7467 56.934436 1830.1875 65.484375 C 1828.6282 74.033986 1825.5878 81.628187 1821.0684 88.265625 C 1816.5432 94.904288 1816.623 100.55195 1821.3066 105.20898 C 1825.9873 109.86662 1829.2782 113.97315 1831.1797 117.5293 C 1876.9321 156.40211 1899.2153 192.81931 1898.0273 226.78125 C 1896.8393 260.74315 1910.431 294.25114 1913.7539 324.71094 L 1841.4785 347.9707 C 1839.2871 320.79788 1833.1321 299.42039 1825.2402 281.93164 C 1833.3564 257.40518 1840.4362 230.68534 1846.4805 205.03711 C 1848.0413 190.74449 1842.1532 182.31651 1828.8184 179.75391 C 1815.4835 177.19107 1806.5314 184.14802 1801.9609 200.62305 C 1799.4899 211.28239 1796.9365 222.49959 1794.2988 233.85742 C 1791.0075 229.78661 1787.8313 225.94609 1784.8828 222.23828 C 1764.6914 196.84233 1765.1527 181.87185 1786.2676 177.32812 C 1806.3116 173.01486 1813.6611 163.0768 1808.3164 147.51562 C 1802.9836 131.95162 1794.4401 127.13462 1782.6875 133.0625 C 1770.9435 138.9888 1764.7143 136.36318 1763.998 125.1875 C 1770.6464 119.22559 1772.5489 115.55912 1769.7051 114.1875 C 1766.8614 112.81589 1762.1907 112.83037 1755.6934 114.22852 C 1755.4179 110.32248 1751.7975 107.98441 1744.834 107.2168 C 1747.2193 91.974592 1750.2671 81.123273 1753.9766 74.660156 C 1759.3488 70.673039 1765.4405 69.360853 1772.25 70.726562 C 1779.0575 72.095818 1786.0389 72.293398 1793.1953 71.318359 L 1791.4863 67.439453 C 1787.0383 67.8301 1781.3809 67.206719 1774.5156 65.568359 C 1767.6492 63.938512 1761.259 65.175322 1755.3438 69.279297 C 1756.7058 65.020858 1757.9594 61.636194 1759.1074 59.123047 C 1775.3478 55.628281 1789.9122 56.176188 1802.7988 60.767578 L 1802.8203 60.761719 C 1803.6739 67.368899 1805.8676 67.034905 1809.4023 59.759766 C 1812.4926 53.394815 1816.5045 50.301303 1821.4375 50.478516 z M 1237.3281 50.875 C 1242.8022 50.7796 1247.2506 55.86562 1245.7773 66.039062 C 1244.5253 74.684962 1241.7496 82.42391 1237.4531 89.257812 C 1233.1566 96.091708 1233.4143 101.62712 1238.2227 105.86328 C 1243.0311 110.09942 1246.5226 114.24023 1248.6973 118.2832 C 1260.0144 149.29828 1276.4646 162.06737 1298.0488 156.58984 C 1319.6329 151.11233 1323.6116 169.2359 1323.8926 212.85938 C 1324.1693 255.8154 1335.7616 292.0858 1338.3105 323.51367 L 1259.4375 340.91992 C 1257.2106 275.78486 1230.9465 253.16555 1217.1094 234.85156 C 1203.2721 216.53757 1193.0683 204.05093 1186.4961 197.39062 C 1179.9239 190.73031 1186.6207 184.86749 1206.5859 179.80078 C 1226.0118 174.87102 1232.7583 164.68518 1226.8301 149.24609 C 1220.9016 133.80703 1212.144 129.28271 1200.5547 135.66992 C 1188.9652 142.05713 1182.8811 139.58009 1182.3008 128.24023 C 1188.0831 121.6036 1189.5559 117.78383 1186.7168 116.78125 C 1183.8779 115.77866 1179.1513 115.82995 1172.5391 116.93359 C 1172.2571 113.55902 1168.6051 111.61279 1161.582 111.09766 C 1163.4177 95.698496 1166.0111 84.414175 1169.3613 77.246094 C 1174.6122 73.041736 1180.8165 71.468643 1187.9766 72.523438 C 1195.1364 73.578198 1202.0906 73.823808 1208.8398 73.259766 L 1206.7988 68.607422 C 1203.0215 69.565996 1197.5175 69.383185 1190.2891 68.058594 C 1183.0607 66.734015 1176.8213 68.174568 1171.5703 72.378906 C 1172.0935 67.651255 1172.8919 64.000883 1173.9629 61.431641 C 1190.6907 57.186564 1205.4098 57.473349 1218.1191 62.289062 C 1219.0858 68.361651 1221.378 67.779517 1224.998 60.542969 C 1228.1926 54.15663 1233.0706 50.949198 1237.3281 50.875 z M 1237.5234 53.671875 C 1236.0674 53.696365 1234.3263 54.403625 1232.373 55.65625 C 1224.4941 60.709566 1220.8422 74.994112 1224.2559 79.685547 C 1221.9687 81.98905 1220.8977 84.557585 1221.043 87.392578 C 1221.1879 90.227518 1222.8815 91.808735 1226.123 92.134766 C 1229.3648 92.46084 1232.8642 89.2751 1236.6211 82.578125 C 1240.4143 75.239993 1246.3307 62.819704 1240.3711 54.919922 C 1239.6172 54.046757 1238.6562 53.652827 1237.5234 53.671875 z M 1822.0625 53.849609 C 1820.6263 53.790031 1818.9243 54.370272 1816.957 55.589844 C 1813.4565 57.759272 1810.7425 61.599577 1808.8125 67.113281 C 1806.8972 72.625303 1806.7733 76.617719 1808.4414 79.089844 L 1808.4199 79.095703 C 1805.9328 80.76518 1804.7155 83.010597 1804.7695 85.830078 C 1804.8094 88.654098 1806.4349 90.286556 1809.6465 90.728516 C 1812.8583 91.170395 1816.4532 88.132215 1820.4297 81.611328 C 1824.412 75.089476 1826.6113 69.516347 1827.0293 64.894531 C 1827.4471 60.272756 1826.7476 57.023747 1824.9316 55.148438 C 1824.1358 54.328292 1823.1796 53.895948 1822.0625 53.849609 z M 1821.0293 59.564453 C 1822.1536 59.576796 1822.8166 60.366281 1823.0195 61.933594 C 1823.501 65.512189 1822.7432 69.215524 1820.7422 73.044922 C 1818.7386 76.875229 1816.7669 79.566951 1814.8281 81.117188 C 1812.8895 82.667087 1812.6563 81.582879 1814.1289 77.867188 C 1815.6015 74.151141 1815.3685 73.068878 1813.4297 74.619141 C 1811.4911 76.168456 1810.7445 75.338414 1811.1895 72.126953 C 1811.626 68.917618 1812.6968 65.996384 1814.4023 63.363281 L 1814.4082 63.373047 C 1817.3767 60.818456 1819.5838 59.548584 1821.0293 59.564453 z M 1236.0117 60.164062 C 1239.73 59.983019 1239.1354 67.412621 1236.3848 73.162109 C 1234.5085 77.084416 1232.7964 79.958811 1231.25 81.787109 C 1229.7038 83.615428 1229.4641 82.670034 1230.5312 78.953125 C 1231.5983 75.236203 1231.1892 74.193363 1229.3047 75.820312 C 1227.4202 77.447271 1226.6408 76.638159 1226.9668 73.396484 C 1227.8594 64.522865 1231.0504 61.500732 1235.2109 60.304688 C 1235.4977 60.222167 1235.7638 60.176137 1236.0117 60.164062 z M 1767.7344 72.556641 C 1763.6345 72.589198 1760.298 73.874417 1757.7285 76.410156 L 1754.0801 83.142578 L 1754.9531 87.201172 L 1757.1934 85.865234 C 1765.5895 88.025352 1774.1957 85.891458 1783.0098 79.462891 L 1792.291 79.164062 L 1790.625 75.275391 L 1782.3281 76.214844 C 1776.6978 73.74422 1771.8343 72.524083 1767.7344 72.556641 z M 1184.1113 75.40625 C 1182.7929 75.41585 1181.554 75.545548 1180.3945 75.794922 C 1177.6117 76.393406 1175.2862 77.680783 1173.4199 79.662109 L 1169.7949 85.751953 L 1171.0273 90.609375 L 1173.8555 88.167969 C 1182.5056 90.567659 1190.8695 88.443594 1198.9473 81.798828 L 1208.0566 80.351562 L 1207.0293 76.302734 L 1198.125 78.5625 C 1192.7377 76.429697 1188.0671 75.378127 1184.1113 75.40625 z M 1770.4336 76.224609 L 1779.4297 78.539062 C 1776.4148 80.318436 1773.5601 81.497728 1770.8652 82.080078 C 1772.6581 79.994723 1772.5135 78.0431 1770.4336 76.224609 z M 1762.9707 76.982422 C 1762.351 79.381854 1763.0801 81.492081 1765.1602 83.310547 C 1762.7527 82.695598 1760.6841 82.28931 1758.9531 82.09375 L 1758.9707 82.089844 C 1759.0534 79.805943 1760.387 78.10341 1762.9707 76.982422 z M 1186.1758 79.011719 L 1195.2969 81.003906 C 1192.1963 82.365146 1189.3657 83.656556 1186.8047 84.880859 C 1188.5521 82.714285 1188.3425 80.759293 1186.1758 79.011719 z M 1179.4961 79.84375 C 1178.2879 81.873377 1178.767 83.76215 1180.9336 85.509766 C 1178.6383 85.518266 1176.6131 85.456983 1174.8574 85.328125 C 1175.3888 82.895842 1176.9349 81.068054 1179.4961 79.84375 z M 1808.5 83.326172 C 1812.0777 84.256464 1813.2058 85.571263 1811.8828 87.271484 C 1810.56 88.971679 1809.3415 89.234645 1808.2285 88.058594 C 1807.1446 86.874175 1807.235 85.29641 1808.5 83.326172 z M 1225.4883 84.542969 C 1229.1366 85.340147 1230.1536 86.51765 1228.5391 88.076172 C 1226.9243 89.634642 1225.6769 89.80583 1224.7949 88.59375 C 1223.913 87.381692 1224.1435 86.033013 1225.4883 84.542969 z M 1760.5488 101.6875 C 1760.4302 101.69429 1760.3109 101.73383 1760.1914 101.80273 C 1759.4279 102.24954 1759.3094 102.98224 1759.8359 104.00195 C 1760.333 105.02805 1760.1256 106.06477 1759.2148 107.11133 C 1758.3039 108.15787 1756.9689 107.87882 1755.2109 106.27344 L 1752.5742 103.86523 C 1751.6052 104.6418 1750.9142 105.35609 1750.502 106.00977 C 1750.09 106.6634 1750.2661 107.47605 1751.0273 108.44531 C 1751.8805 107.13016 1753.3186 107.24695 1755.3398 108.79492 C 1757.362 110.34335 1759.238 110.5066 1760.9707 109.2832 C 1762.7034 108.06071 1763.1911 106.39755 1762.4316 104.29492 C 1761.8167 102.52042 1761.1895 101.65083 1760.5488 101.6875 z M 1178.3125 104.75195 C 1178.2565 104.75248 1178.2032 104.75894 1178.1523 104.77344 C 1177.4987 104.95521 1177.2356 106.20691 1177.7617 107.1543 C 1178.6513 108.75693 1177.4009 112.82775 1173.4219 110.02148 C 1169.6723 105.87738 1167.3472 109.82508 1169.2637 111.98633 C 1170.0391 110.64305 1171.4708 110.68509 1173.5566 112.11328 C 1177.9473 115.11952 1182.0109 111.37215 1180.3594 107.31055 C 1179.5847 105.40512 1178.8473 104.74676 1178.3125 104.75195 z M 1766.5762 115.50781 C 1767.1483 115.52671 1767.324 115.70175 1767.1035 116.0332 L 1754.9062 118.64453 C 1753.2922 118.99187 1752.6621 118.70198 1753.0156 117.77539 C 1753.3996 116.84836 1754.4568 116.48211 1756.1875 116.67773 C 1758.4762 116.7533 1760.9719 116.50093 1763.6719 115.91992 C 1765.0365 115.62628 1766.0041 115.48891 1766.5762 115.50781 z M 1767.207 116.875 C 1766.3572 118.18106 1765.2482 119.5431 1763.8789 120.96094 C 1762.4921 122.39241 1760.7126 123.3413 1758.541 123.80859 C 1757.4845 124.03595 1756.782 124.05057 1756.4316 123.84961 C 1756.1352 123.63014 1756.1364 122.92119 1756.4316 121.72461 L 1767.207 116.875 z M 1183.7891 118.07031 C 1184.1255 118.09331 1184.1423 118.19031 1184.0879 118.30859 L 1172.1543 122.19922 C 1170.3637 122.65362 1169.0213 120.41077 1173.9648 119.15625 C 1176.2603 119.14825 1178.8097 118.69819 1181.5762 118.2832 C 1182.7975 118.09999 1183.4526 118.04731 1183.7891 118.07031 z M 1184.5 119.92773 C 1183.9429 122.47703 1179.728 125.25521 1176.0195 127.25 C 1173.5438 127.79935 1173.7776 126.15806 1174.3887 124.21875 L 1184.5 119.92773 z M 1180.0859 229.21875 C 1212.7457 262.85852 1240.2324 284.69376 1240.2324 344.26172 L 1208.7871 503.41797 L 1035.0664 379.07031 C 1033.8331 354.3686 1030.7683 336.19488 1026.4023 323.89062 C 1013.8093 294.50725 991.6355 279.87109 958.05469 279.87109 L 936.04492 281.02734 L 914.23047 279.99023 L 916.67383 262.91992 C 923.36871 262.13231 929.39631 261.28865 930.47461 260.90234 C 970.9179 277.80135 1020.3977 290.72233 1057.7852 298.18359 C 1111.4523 273.58385 1147.0566 250.90892 1180.0859 229.21875 z M 1770.0566 240.30664 L 1770.0859 240.31055 C 1775.7972 246.67897 1782.0076 252.98167 1788.0977 259.98047 C 1781.6202 286.51175 1774.687 312.0486 1767.2949 331.20117 C 1752.532 343.75084 1737.4209 361.83224 1721.9648 385.44336 C 1706.5084 409.05453 1690.7208 423.87768 1674.5996 429.91602 C 1658.4781 435.95468 1644.5421 442.47401 1632.791 449.47266 C 1621.7494 456.61709 1611.8873 467.84573 1603.2051 483.15625 C 1591.3313 492.11282 1583.3074 502.46906 1579.1367 514.22656 L 1499.4004 707.50391 L 1466.2695 684.38867 L 1546.3984 489.45703 C 1551.5352 474.56121 1560.9087 464.16096 1574.5195 458.25391 C 1576.3311 457.46722 1578.0076 456.65517 1579.5508 455.81836 C 1598.437 450.19251 1618.9223 436.65264 1641.0039 415.19727 C 1674.1003 395.24412 1701.2325 367.33654 1736.1934 331.71875 C 1750.551 295.77248 1761.8387 265.30117 1770.0566 240.30664 z M 375.36523 259.02148 C 371.16748 285.78142 364.37214 299.04185 353.35352 299.56641 C 342.33491 300.09278 332.15448 300.61547 323.23438 299.56641 C 317.4626 299.56641 313.11563 301.79488 310.49219 306.51758 L 304.69922 297.25 L 310.49219 294.93359 C 311.54129 284.43953 332.86437 272.139 375.36523 259.02148 z M 163.10156 262.49023 L 163.10352 262.49609 C 170.44926 267.74293 174.16493 276.54569 174.68945 289.13867 L 170.05469 292.61328 L 179.32227 306.51367 L 179.32227 306.51562 C 184.56896 313.33609 190.9258 315.97936 196.69727 312.30664 C 200.72331 309.74415 206.09148 308.65401 212.79492 308.9375 C 212.82782 311.04611 212.9569 312.95357 213.18555 314.625 C 213.97144 320.39675 209.99787 339.49063 201.60156 372.54688 C 191.63237 380.41751 186.54297 389.11311 186.54297 398.0332 C 186.54297 407.47784 188.66222 413.41807 192.33398 416.56641 C 192.33398 424.96159 210.05018 429.30859 246.7793 429.30859 C 255.17448 428.78591 262.38402 423.58589 267.63086 413.0918 C 274.45208 422.0119 282.9943 427.31845 294.27539 430.4668 C 305.55646 433.61401 313.77049 439.81978 317.44336 449.00195 C 321.11698 458.18415 329.17851 467.88457 341.77148 476.80469 C 341.77148 512.62616 358.1538 548.03686 392.06641 584.75977 L 379.73047 585.69531 C 347.19845 593.56572 314.42865 589.11023 282.42188 571.79492 C 251.98901 537.68906 237.24414 502.58152 237.24414 466.37695 L 210.59766 444.36523 C 210.59766 431.77227 196.70586 421.59185 168.89648 414.24609 C 165.74926 414.24609 158.42829 403.95887 146.88477 382.9707 L 139.93555 382.9707 C 138.88648 406.05776 130.93259 416.76272 116.76562 413.08984 L 109.81641 408.45508 L 98.232422 410.77148 C 87.213781 410.77148 82.013672 405.57133 82.013672 394.55273 L 92.439453 385.28711 L 93.595703 389.91992 L 87.802734 398.0293 L 87.802734 404.98047 L 90.121094 407.29688 L 102.86328 404.98047 L 105.18164 404.98047 L 107.49609 395.71289 L 107.49609 387.60352 L 94.753906 382.9707 C 104.19854 345.19213 108.76501 317.40235 109.81445 299.5625 C 129.75318 293.79073 149.48071 293.89939 168.89453 300.71875 L 168.89453 296.08594 C 150.5298 288.21529 133.66282 286.62009 117.92188 290.29297 C 122.11965 284.52121 125.7262 275.82721 128.34961 264.80859 C 139.89315 268.4822 151.558 267.73559 163.10156 262.49023 z M 179.32227 306.51562 C 160.43298 302.31784 139.8527 301.46519 116.76562 303.04102 C 117.81472 311.4362 119.93591 317.74959 122.55859 322.73438 C 125.18314 327.71913 129.90021 334.1878 136.45898 341.27148 C 143.01775 348.35477 145.72656 356.78667 145.72656 366.75586 L 149.20117 366.75586 C 150.25025 354.16288 143.67476 341.64485 129.50781 328.52734 C 143.67476 328.52734 160.43102 320.68455 179.32031 306.51758 L 179.32227 306.51562 z M 283.8457 262.49023 L 283.84961 262.49609 C 291.19535 267.74293 294.90906 276.54569 295.43359 289.13867 L 290.79883 292.61328 L 300.06641 306.51367 L 300.06641 306.51562 C 305.31311 313.33609 311.6719 315.97936 317.44336 312.30664 C 323.21512 308.63303 331.64861 307.89134 342.92969 309.99023 C 354.21077 312.08838 362.85983 309.44451 370.73047 304.19727 C 378.60113 298.95042 384.21703 289.29455 385.79102 274.07812 C 386.84008 266.73239 394.26747 262.49414 408.95898 262.49414 L 433.28711 262.49414 C 468.96677 279.80942 489.32761 289.13867 493.52539 289.13867 L 537.54688 296.08789 C 568.50422 311.82884 605.51255 319.25781 646.43945 319.25781 L 655.70508 319.25781 C 692.95872 319.25781 719.47962 318.29665 736.79492 314.62305 C 797.13559 301.50554 838.59971 294.92969 859.58789 294.92969 C 869.57525 295.98066 892.87164 295.77315 909.49023 296.08984 L 911.87695 296.43164 L 911.91797 296.14648 C 927.978 296.42286 937.04382 297.24609 959.21289 297.24609 C 982.29944 297.24609 998.31186 306.57533 1006.707 323.89062 L 995.125 311.14648 C 980.43363 304.85019 962.08161 301.87888 939.51953 301.87891 C 937.94404 301.87891 937.09411 306.22787 936.04492 314.62305 C 936.04492 317.24761 942.09597 318.20872 955.73828 319.25781 C 980.92387 319.25781 993.96875 333.0428 993.96875 359.80273 L 993.96875 385.44336 L 993.96875 422.35742 C 993.96875 449.11736 982.30147 488.78957 959.21484 542.83398 L 959.21484 547.46875 C 992.10823 641.11372 924.03482 577.25517 889.70898 562.52734 L 854.95703 538.19922 C 850.7593 526.13116 836.75669 516.58403 812.0957 509.23828 L 807.46094 521.98242 C 815.85608 525.65603 822.3252 530.7447 825.99805 537.04102 C 737.84793 568.52325 655.96727 580.29887 580.41016 572.95312 L 571.14258 520.82422 L 571.14258 506.92188 C 571.14258 498.00176 564.67546 490.57512 552.60742 483.75391 L 529.4375 451.31836 L 527.12109 451.31836 L 515.53516 457.10938 L 515.53516 461.74414 L 529.43555 483.75195 L 554.92188 510.39648 L 552.60547 525.45703 C 555.27078 612.08208 511.00238 555.46206 457.61523 539.35742 C 439.51294 525.45294 431.23314 504.34964 430.9707 476.80273 C 430.71122 449.25579 438.02651 426.77488 452.98047 410.77148 C 467.93442 394.76809 478.5948 371.69844 485.41602 341.26562 C 484.89332 337.592 479.69329 336.63281 469.19922 336.63281 C 462.90291 367.59016 452.08882 389.91776 437.92188 403.82227 C 423.75489 417.72676 416.06387 434.22095 414.75195 453.63477 C 413.43969 473.04857 415.93135 493.6273 421.70312 516.18945 C 427.47488 538.75161 442.37351 554.28586 465.72266 561.36914 C 489.07181 568.45245 500.47656 576.25068 500.47656 585.69531 C 467.94486 593.56599 435.17477 589.11023 403.16797 571.79492 C 372.73515 537.68921 357.99023 502.58152 357.99023 466.37695 L 331.34375 444.36523 C 331.34375 431.77227 317.45195 421.59184 289.64258 414.24609 C 286.49536 414.24609 279.17438 403.95887 267.63086 382.9707 L 260.68164 382.9707 C 259.63258 406.05776 251.67868 416.76272 237.51172 413.08984 L 230.5625 408.45703 L 218.97852 410.77148 C 207.95987 410.77148 202.75977 405.57133 202.75977 394.55273 L 213.18555 385.28711 L 214.3418 389.91992 L 208.54883 398.0293 L 208.54883 404.98047 L 210.86719 407.29688 L 223.60938 404.98047 L 225.92773 404.98047 L 228.24219 395.71289 L 228.24219 387.60352 L 215.5 382.9707 C 224.94464 345.19213 229.51111 317.40234 230.56055 299.5625 C 250.49928 293.79073 270.22681 293.89939 289.64062 300.71875 L 289.64062 296.08594 C 271.27589 288.21529 254.40892 286.62204 238.66797 290.29492 C 242.86575 284.52316 246.47228 275.82722 249.0957 264.80859 C 260.63877 268.48206 272.3026 267.73503 283.8457 262.49023 z M 300.06641 306.51562 C 290.62176 304.41674 280.75509 303.15393 270.36328 302.61328 C 259.97146 302.07262 249.0533 302.2531 237.50977 303.04102 C 238.55885 311.4362 240.68004 317.74959 243.30273 322.73438 C 245.92727 327.71913 250.64435 334.1878 257.20312 341.27148 C 263.76189 348.35477 266.4707 356.78667 266.4707 366.75586 L 269.94531 366.75586 C 270.99438 354.16288 264.4189 341.64485 250.25195 328.52734 C 264.4189 328.52734 281.17515 320.68455 300.06445 306.51758 L 300.06641 306.51562 z M 369.56836 269.44531 C 362.74773 269.96819 354.7965 271.56697 346.40234 275.23828 C 338.00714 278.91191 329.09564 284.74457 318.60156 292.61523 C 319.12425 294.19069 323.21101 294.92969 331.34375 294.92969 L 351.03711 294.92969 C 355.75943 294.92969 359.10155 293.70728 361.46289 290.29688 C 363.82425 286.88642 365.57114 284.02589 366.0957 282.18945 C 366.61838 280.35451 365.13651 281.46579 361.46289 285.66211 C 357.78929 289.85987 351.80486 291.97764 345.24609 291.45312 C 338.68734 290.93041 337.8343 288.17556 341.77148 284.50195 C 345.70642 280.82869 354.87944 276.2654 369.56836 269.44531 z M 198.39844 283.52148 C 200.84161 284.65743 203.34622 285.77293 205.91016 286.86523 C 203.33587 288.60726 200.66388 290.51037 197.85742 292.61523 C 198.38011 294.19069 202.46493 294.92969 210.59766 294.92969 L 213.68359 294.92969 C 213.45795 296.72337 213.27519 298.45982 213.13477 300.12891 C 209.41703 300.11111 205.84319 299.96073 202.49023 299.56641 C 196.71846 299.56641 192.36952 301.79488 189.74609 306.51758 L 183.95508 297.25 L 189.74609 294.93359 C 190.10569 291.33646 193.05274 287.51372 198.39844 283.52148 z M 129.50977 309.99023 L 149.20312 312.30859 L 149.20312 314.62305 L 134.14258 319.25977 L 129.50977 309.99023 z M 250.25391 309.99023 L 269.94727 312.30859 L 269.94727 314.62305 L 254.88672 319.25977 L 250.25391 309.99023 z M 1342.8789 342.05273 C 1351.4566 367.2694 1356.864 391.30264 1342.9453 423.5918 L 1362.1504 532.15234 L 1248.9297 532.15234 L 1227.4688 516.78906 L 1258.6035 362.63281 L 1342.8789 342.05273 z M 1917.0684 344.65625 C 1932.5642 365.70135 1933.3895 392.56145 1919.5449 425.23633 L 1938.6484 533.23047 L 1801.5801 533.23047 L 1840.6367 369.57812 L 1917.0684 344.65625 z M 1000.918 479.12109 L 1003.2324 479.12109 C 1004.2813 522.14651 1006.6228 562.4547 1011.3438 600.75781 C 996.12725 591.31318 985.61864 574.4462 977.74805 549.78516 L 977.74805 547.46875 L 1000.918 479.12109 z M 1274.7559 550.63867 L 1328.748 551.35742 C 1330.9508 566.39319 1333.0059 580.50667 1334.9121 593.69727 L 1274.7559 550.63867 z M 1250.082 572.12305 C 1278.3421 593.49567 1308.9045 616.69128 1341.7695 641.70898 C 1343.1438 651.47053 1344.3951 660.46749 1345.5234 668.69922 L 1311.4023 726.76562 C 1300.3908 744.00494 1260.8053 754.54668 1192.6465 758.39258 C 1197.9443 736.13082 1207.5424 711.09886 1221.4434 683.29688 C 1240.6499 644.88391 1249.2787 616.07564 1247.3301 596.86914 C 1246.408 587.77881 1247.3254 579.52974 1250.082 572.12305 z M 1392.0488 672.57617 L 1496.3184 744.48438 L 1496.3184 768.37109 L 1393.8418 769.50195 C 1389.358 736.47083 1388.7598 704.1612 1392.0488 672.57617 z M 1352.3184 725.42383 C 1352.5592 740.86378 1350.046 752.13128 1344.7793 759.22656 C 1342.5812 754.65153 1341.9861 748.96773 1342.9941 742.17383 L 1352.3184 725.42383 z " />
</svg>
