<?xml version="1.0" encoding="UTF-8" standalone="no"?>
<svg
   width="1100"
   height="1000"
   version="1.1"
   id="svg1"
   sodipodi:docname="13622.svg"
   inkscape:version="1.4.3 (0d15f75, 2025-12-25)"
   xmlns:inkscape="http://www.inkscape.org/namespaces/inkscape"
   xmlns:sodipodi="http://sodipodi.sourceforge.net/DTD/sodipodi-0.dtd"
   xmlns="http://www.w3.org/2000/svg"
   xmlns:svg="http://www.w3.org/2000/svg">
  <defs
     id="defs1" />
  <sodipodi:namedview
     id="namedview1"
     pagecolor="#ffffff"
     bordercolor="#666666"
     borderopacity="1.0"
     inkscape:showpageshadow="2"
     inkscape:pageopacity="0.0"
     inkscape:pagecheckerboard="0"
     inkscape:deskcolor="#d1d1d1"
     inkscape:zoom="0.70710678"
     inkscape:cx="98.287842"
     inkscape:cy="-31.819805"
     inkscape:window-width="1680"
     inkscape:window-height="998"
     inkscape:window-x="-8"
     inkscape:window-y="-8"
     inkscape:window-maximized="1"
     inkscape:current-layer="svg1"
     showguides="true">
    <sodipodi:guide
       position="1100,1000"
       orientation="0,-1"
       id="guide1"
       inkscape:locked="false" />
    <sodipodi:guide
       position="1100,2.8398304e-06"
       orientation="0,-1"
       id="guide2"
       inkscape:locked="false" />
    <sodipodi:guide
       position="366.31259,229.54762"
       orientation="1,0"
       id="guide3"
       inkscape:locked="false" />
    <sodipodi:guide
       position="315.13488,451.49508"
       orientation="1,0"
       id="guide6"
       inkscape:locked="false" />
  </sodipodi:namedview>
  <path
     id="path1"
     style="fill:#000000;stroke:none;stroke-width:0.999998"
     d="m 894.51758,0 c -45.31131,0 -74.50361,9.5856934 -87.57422,28.755859 -13.07057,19.170203 -19.17022,33.112443 -18.29883,41.826172 l -26.14062,52.281249 c -6.97095,12.19922 -2.61436,21.34963 13.07031,27.44922 l 1.30664,11.76172 c 0.87139,9.58508 6.10046,15.24944 15.68555,16.99219 -0.87135,13.07057 2.17749,20.91324 9.14843,23.52734 6.97099,2.61414 14.37834,3.04939 22.22071,1.30664 7.8423,-1.74275 12.85277,0.21892 15.03125,5.88281 2.1784,5.66393 0.21873,8.4961 -5.88086,8.4961 h -35.29102 c -17.211,1.72113 -29.04696,7.9615 -35.50586,18.7207 -6.4542,10.75922 -26.00837,13.60765 -51.63867,22.59375 -26.7106,9.36485 -73.61809,25.45919 -103.74219,39.23047 -30.1249,-6.88565 -91.41229,-9.66435 -174.90429,-18.27149 -11.53241,-10.19191 -23.44192,-18.50453 -35.72657,-24.93554 0.0504,-10.26762 0.47105,-20.64608 1.36524,-31.37891 15.50443,0 28.17607,-16.84635 38.01562,-50.53906 9.83955,-33.69271 26.08957,-50.53906 48.75,-50.53906 5.3671,-5.36709 8.05078,-11.92747 8.05078,-19.67969 0,-19.678786 -16.39918,-32.797613 -49.19726,-39.357423 -32.30135,-6.461315 -57.95113,-9.741947 -76.94922,-9.839844 -18.99809,0.0979 -44.64787,3.378529 -76.94922,9.839844 -32.79808,6.55981 -49.19726,19.678637 -49.19726,39.357423 0,7.75222 2.68368,14.3126 8.05078,19.67969 22.66043,0 38.91045,16.84635 48.75,50.53906 9.83955,33.69271 22.51119,50.53906 38.01562,50.53906 0.42264,5.07284 0.73898,10.06752 0.96094,15.00781 -8.70575,-0.35904 -17.56745,0.067 -26.58789,1.28125 0.858,12.90979 6.88136,20.65687 18.07226,23.24024 0.8257,16.50579 3.13501,29.49956 6.92774,38.98242 -4.67624,58.4556 -15.94336,124.97644 -15.94336,241.54102 0,76.24995 3.09921,158.0972 18.40625,204.03515 -6.0628,9.78395 -12.14806,6.41136 -19.14258,-3.61523 0,0 -39.72361,-112.13464 -44.17383,-125.17578 -7.23177,-16.86275 -20.78128,-49.45084 -33.39843,-51.12891 -22.93193,-0.25859 -48.51247,118.97926 -59.92969,137.35547 -26.60119,34.98205 -20.90712,55.24089 -20.55469,73.91406 -2.24397,24.34432 2.79176,62.47354 23.70898,66.33399 21.28219,2.9617 34.77614,-35.09396 42.89844,-55.83008 4.53074,-12.21253 19.73527,-36.469 -1.26758,-76.44141 -3.97132,-15.74367 11.30565,-57.07738 15.28516,-68.63672 3.06989,-23.08005 10.73047,1.3089 13.69727,14.37891 2.01245,7.05697 11.96255,36.15287 20.40625,60.61133 -1.46041,9.54834 -2.99971,20.52942 -4.61914,32.94531 L 254.33398,1000 h 223.95899 l -0.75586,-12.12891 c 7.90666,8.82223 15.07417,12.83261 21.5,12.0293 h 79.73047 c 20.04156,-6.97098 36.37876,-8.06203 49.01367,-3.26953 12.63488,4.79244 24.39889,3.70334 35.29102,-3.26758 10.89217,-6.97102 10.67353,-22.87297 -0.6543,-47.70703 -11.32783,-24.83413 2.56992,-80.47063 14.34765,-124.42578 21.00155,-78.37885 -19.37992,-144.17383 8.6211,-144.17383 18.29881,54.89644 43.46943,104.60705 59.58984,142.51172 16.12037,37.90467 33.22908,70.79969 31.48633,98.68359 -13.07057,31.36939 -37.46904,47.05469 -73.19531,47.05469 -21.78427,0 -29.62498,5.88101 -23.52539,17.64453 6.09959,11.76356 13.9403,17.64453 23.52539,17.64453 h 49.66797 c 36.59763,-20.91294 66.22517,-33.54744 88.88086,-37.90429 22.65566,-4.35688 24.18008,-24.44184 4.57421,-53.63282 -19.60585,-29.19091 -38.45755,-62.6948 -36.71484,-107.13476 1.74279,-44.43996 -17.10967,-81.03765 -40.63672,-109.79297 l 6.53516,-15.07422 c 33.98353,-14.81328 75.37311,-22.2207 124.16992,-22.2207 49.66827,0 75.8098,-14.15889 78.42383,-42.47852 2.61414,-28.31959 -7.40681,-86.92086 -30.0625,-175.80078 0,-27.0125 11.76392,-67.09432 35.29101,-120.24805 l 69.27342,91.49414 c -8.7137,38.34037 -10.892,84.95713 -6.5351,139.85352 -25.2699,26.14115 -37.4692,53.59038 -36.5977,82.3457 8.7135,5.2282 14.5966,0.87162 17.6465,-13.07031 3.0499,-13.94197 10.6738,-22.65513 22.873,-26.14062 6.0996,24.39841 0,49.23216 -18.2988,74.50195 15.6847,6.97098 28.7544,-0.001 39.211,-20.91406 10.4564,-20.91295 13.5072,-57.07344 9.1503,-108.48438 14.8131,-33.98353 21.348,-81.03748 19.6055,-141.16211 -18.2988,-41.82586 -39.8651,-80.60385 -64.6992,-116.33008 -24.8341,-35.72627 -44.2221,-53.58789 -58.16407,-53.58789 -27.88389,-0.87135 -42.6967,-8.71402 -44.43945,-23.52734 -1.74275,-13.07057 2.17858,-22.22098 11.76367,-27.44922 C 983.3973,145.954 996.25041,110.01016 982.74414,66.005859 969.23787,22.001594 939.82893,0 894.51758,0 Z m -13.07227,18.298828 c 33.98352,0 57.9467,12.199253 71.88867,36.597656 13.94193,24.398403 16.99272,45.094177 9.1504,62.085936 -7.84237,16.99176 -16.99278,28.75377 -27.44922,35.28906 -10.45647,6.53529 -17.64522,-3.70229 -21.56641,-30.71484 -3.92115,-27.012536 -16.33709,-45.746687 -37.25,-56.203124 -20.91295,-10.456475 -40.95483,-13.942524 -60.125,-10.457032 9.58509,-24.398403 31.36807,-36.597656 65.35156,-36.597656 z m -59.07226,55.171875 c 10.79002,-0.238265 22.85636,2.502336 36.19922,8.220703 21.34865,9.149425 32.45872,24.397484 33.33007,45.746094 0.87139,21.34861 5.66518,43.35216 14.37891,66.00781 1.74271,33.11213 9.58342,49.23268 23.52539,48.36133 13.94193,-0.87139 25.27054,5.6635 33.98438,19.60547 8.71361,13.94193 8.27843,27.44701 -1.30664,40.51758 -21.78431,54.89644 -32.67774,98.46626 -32.67774,130.70703 18.29881,87.13717 27.44922,144.21207 27.44922,171.22461 -2.6141,12.19919 -12.63504,22.22013 -30.0625,30.0625 -87.13721,4.35685 -136.36948,11.76228 -147.69727,22.21875 0,-16.55607 -40.95431,-29.62586 -122.86328,-39.21094 37.46897,-26.14115 86.7012,-44.00472 147.69727,-53.58984 13.07057,0 21.1299,-14.59617 24.17969,-43.78711 3.0498,-29.19095 4.57617,-59.03518 4.57617,-89.53321 0,-30.49803 -14.37948,-80.60078 -43.13477,-150.31054 6.09963,-27.01254 15.25003,-40.51953 27.44922,-40.51953 h 45.74609 v -54.89649 l -47.05273,3.92188 c -9.58512,-7.84234 -10.89287,-14.81448 -3.92187,-20.91407 L 808.25,155.53906 c -14.81332,3.48549 -20.91293,1.09053 -18.29883,-7.1875 2.61413,-8.27803 -1.74245,-13.2885 -13.07031,-15.03125 l 27.44922,-56.203122 c 5.55499,-2.287347 11.56895,-3.503526 18.04297,-3.646485 z M 366.3125,82.90625 c 37.16313,0.08255 66.98588,5.44893 89.4707,16.099609 -24.44936,16.697461 -39.20837,36.525851 -44.27734,59.484371 -7.13477,32.31738 -19.8683,42.16366 -45.19336,42.48438 C 340.9904,200.65393 328.25463,190.8109 321.11914,158.49023 316.05017,135.53171 301.29116,115.70332 276.8418,99.005859 299.32662,88.35518 329.14937,82.988798 366.3125,82.90625 Z m 452.46289,0.757812 c -3.93989,0.127643 -6.79447,1.213583 -8.56445,3.25586 -5.66393,6.535287 -5.88059,13.288788 -0.65235,20.259768 5.22824,6.97098 22.21936,3.48493 50.97461,-10.457034 C 841.36305,87.736637 827.44316,83.38325 818.77539,83.664062 Z M 366.3125,230.49805 c 0.5016,4.55059 0.99629,9.14037 1.48242,13.76367 -0.95861,-0.26776 -1.92001,-0.52465 -2.88281,-0.77149 0.45989,-4.36238 0.92672,-8.69498 1.40039,-12.99218 z m 51.48828,78.45703 c 76.40972,22.50841 135.10261,36.35969 188.81055,37.45703 49.19656,-5.53823 107.69484,-19.25275 170.52734,-33.88477 21.78431,47.0541 31.11133,88.95746 31.11133,118.14844 0,29.19095 -2.61356,65.57006 -7.8418,109.13867 -80.16623,13.07053 -142.03299,39.21207 -185.60156,78.42383 -11.4672,70.61602 -9.97599,124.91401 -8.85352,173.82227 1.15031,50.12135 7.01464,89.55095 -8.23437,119.61328 -15.24902,30.0623 -48.14209,48.57781 -98.68164,55.54883 -10.65424,0.761 -18.15005,2.35279 -22.49023,4.77539 l -13.6504,-218.96094 c -1.36969,-10.50112 -2.68153,-19.97598 -3.9375,-28.42578 8.9623,-25.87233 22.32128,-64.69366 24.68946,-72.99805 2.96679,-13.07001 10.62933,-37.46091 13.69922,-14.38086 3.9795,11.55934 19.25648,52.89305 15.28515,68.63672 -21.00285,39.97241 -5.80027,64.22888 -1.26953,76.44141 8.1223,20.73612 21.61625,58.79178 42.89844,55.83007 20.91722,-3.86044 25.9549,-41.98966 23.71094,-66.33398 0.35242,-18.67317 6.04454,-38.93005 -20.55664,-73.91211 -11.41722,-18.37621 -36.99776,-137.61406 -59.92969,-137.35547 -12.61715,1.67807 -26.16471,34.26616 -33.39649,51.12891 -4.45021,13.04114 -44.17382,125.17383 -44.17382,125.17383 -9.16839,15.65643 -16.6564,23.51175 -24.10938,11.48437 15.30704,-45.93795 18.40625,-127.7852 18.40625,-204.03515 0,-107.98847 -9.66952,-173.02564 -14.81055,-228.49024 5.77268,-1.88979 11.90542,-4.17195 18.39844,-6.8457 z m -42.76953,12.82617 c 7.70561,92.90237 12.13281,183.99699 12.13281,222.5 0,110.2144 -1.76772,189.33008 -20.85156,189.33008 -19.08384,0 -20.85156,-79.11568 -20.85156,-189.33008 0,-38.43509 4.41328,-129.27586 12.09375,-222.00781 5.11353,0.61101 10.93894,0.4466 17.47656,-0.49219 z m 142.26367,314.9375 c 5.47858,0.25016 13.09659,25.07705 17.87696,37.97656 6.48296,32.09646 9.2496,44.35759 20.75195,63.87305 3.94985,27.04584 4.20969,76.42209 -4.89063,76.6543 -8.54571,1.88774 -23.7282,-34.77087 -29.4414,-69.40039 5.05785,-21.96419 7.55359,-36.7143 1.625,-68.12696 -3.86724,-17.21897 -10.4652,-39.91916 -6.44532,-40.92187 0.17211,-0.0443 0.34671,-0.0628 0.52344,-0.0547 z m -297,7.86914 c 0.17673,-0.008 0.35133,0.008 0.52344,0.0527 4.01988,1.00272 -2.57807,23.7029 -6.44531,40.92188 -5.9286,31.41266 -3.43285,46.16276 1.625,68.12695 -5.7132,34.62953 -20.8957,71.29009 -29.44141,69.40235 -9.10032,-0.23221 -8.84047,-49.61042 -4.89062,-76.65625 11.50234,-19.51546 14.27093,-31.77659 20.7539,-63.87305 4.78036,-12.89951 12.39643,-37.72445 17.875,-37.97461 z m 78.2461,119.00391 c 19.25243,36.64176 52.53374,33.25387 67.77148,6.86132 15.23774,26.39255 48.51905,29.78044 67.77148,-6.86132 l 11.49219,203.6914 H 287.05078 Z"
     sodipodi:nodetypes="sscccccssssccsccccscscccscscccccsccccccccccccccccccsssscscssscsssccsscccccsccsccscccsssssssscsssscsscccccccsscscccccsccscccccccssscscccccccsccsscccccccccccccccscccsssccsccccccssccccccscccccc" />
  <g
     id="g1494"
     transform="matrix(52.774426,0,0,52.774426,73.511548,39.313057)"
     style="stroke-width:0.0189486" />
</svg>
