<?xml version="1.0" encoding="UTF-8" standalone="no"?>
<!-- Generator: Adobe Illustrator 19.0.0, SVG Export Plug-In . SVG Version: 6.00 Build 0)  -->

<svg
   version="1.1"
   id="Ebene_1"
   x="0px"
   y="0px"
   viewBox="0 0 1343.6616 1798.1271"
   xml:space="preserve"
   width="1343.6616"
   height="1798.1271"
   sodipodi:docname="1363F.svg"
   inkscape:version="1.4.2 (f4327f4, 2025-05-13)"
   xmlns:inkscape="http://www.inkscape.org/namespaces/inkscape"
   xmlns:sodipodi="http://sodipodi.sourceforge.net/DTD/sodipodi-0.dtd"
   xmlns="http://www.w3.org/2000/svg"
   xmlns:svg="http://www.w3.org/2000/svg"><sodipodi:namedview
   id="namedview1"
   pagecolor="#ffffff"
   bordercolor="#666666"
   borderopacity="1.0"
   inkscape:showpageshadow="2"
   inkscape:pageopacity="0.0"
   inkscape:pagecheckerboard="0"
   inkscape:deskcolor="#d1d1d1"
   inkscape:zoom="0.29690094"
   inkscape:cx="776.35322"
   inkscape:cy="1301.781"
   inkscape:window-width="1680"
   inkscape:window-height="998"
   inkscape:window-x="-8"
   inkscape:window-y="-8"
   inkscape:window-maximized="1"
   inkscape:current-layer="Ebene_1" /><defs
   id="defs1501">
	
	
	
	
</defs>
<style
   type="text/css"
   id="style1491">
	.st0{fill:#010101;}
</style>
<path
   id="XMLID_24_"
   style="stroke-width:1.11095"
   class="st0"
   d="M 951.16602,0.19140625 C 939.28197,0.61010254 927.35573,1.7057986 915.2793,3.390625 861.50953,11.056156 824.18247,51.940638 803.18555,125.92969 c -13.99794,18.10843 -28.66502,41.88195 -43.9961,71.21093 -9.77634,19.55267 -10.43953,30.77537 -2.10742,33.55274 8.33211,2.77737 14.66317,6.32895 18.88477,10.43945 -5.55474,4.22159 -8.00056,7.99965 -7.33399,11.55469 0.66657,3.11065 5.55625,5.44444 14.66602,6.88867 -2.33299,0.33329 -5.11028,1.88865 -8.33203,4.66602 -4.88817,4.2216 -4.22107,7.99965 2.11132,11.55469 6.33241,3.44393 9.44336,14.32907 9.44336,32.4375 0,6.69854 1.35416,11.24745 4.0254,14.41406 l -14.82813,38.98633 37.1543,3.08398 4.6914,-33.9082 c 17.43122,1.55473 29.24907,0.55317 38.05664,-1.68946 l 6.33203,43.99414 h -77.54296 c -40.5496,0 -85.87533,29.99544 -136.20118,90.09766 -64.21272,55.88063 -139.64888,151.53284 -226.30273,287.06836 23.77426,30.77322 59.76905,41.88287 107.87305,33.55078 48.21509,-8.3321 94.31901,-18.88575 138.3125,-31.43945 43.99352,-12.5537 72.99034,-20.99496 86.98828,-25.10547 14.22014,34.77264 25.32953,68.32207 33.43945,100.76172 -36.328,17.77514 -59.43436,29.66253 -69.09961,35.43945 -51.65903,4.2216 -92.5435,8.77394 -122.53906,13.66211 -29.99556,4.88816 -63.21306,32.43973 -99.54102,82.76563 1.44423,15.33106 8.77778,25.4419 21.99805,30.33007 13.22027,4.88817 19.88477,3.88764 19.88477,-3.11132 8.3321,-16.7753 20.21995,-31.77192 35.66211,-44.99219 15.33107,-13.22027 40.54791,-21.33005 75.43164,-24.10742 -18.10843,23.77426 -37.65936,38.10401 -58.65625,42.99218 -20.99689,4.88816 -28.66389,13.66701 -22.99805,26.22071 53.10325,-2.77737 113.09606,-26.55283 180.19727,-71.21289 18.33064,-6.11022 35.88265,-11.998 52.54687,-17.55274 3.11065,27.77367 3.77923,54.65963 1.89063,80.4336 -160.64293,50.32588 -260.51968,80.32138 -299.625,90.09768 -46.10429,13.998 -88.43014,63.6559 -147.19922,150.8652 -58.76909,87.2093 -57.09482,132.8619 -89.20118,244.6231 l -13.00781,55 -22.99414,87.9863 c -33.55059,68.4343 -94.98676,111.0955 -184.417968,127.7597 -54.436391,6.999 -61.436506,27.8843 -20.998046,62.879 h 148.755864 167.64257 100.54102 48.2168 10.4414 c 0,-19.5527 13.21986,-19.5527 39.77149,0 h 180.19531 c 6.99897,-25.1074 10.44336,-60.7687 10.44336,-106.8731 0.058,-66.3495 0,-132.574 0,-199.0801 l -31.43945,-203.1933 h 393.94332 c 4.2216,30.7733 35.6603,87.9868 94.3184,171.8633 v 266.0722 h -27.2168 c -18.1085,-23.7743 -41.8858,-35.6621 -71.2148,-35.6621 -50.3258,0 -75.4317,35.6615 -75.4317,106.8731 h 58.6582 c 0,-19.5527 13.2198,-19.5527 39.7715,0 h 171.8633 c 8.3321,0 12.5547,-36.3267 12.5547,-108.9825 -1.1986,-108.3252 17.3654,-216.9401 29.33,-324.6191 l -62.8828,-73.3223 48.2168,27.2188 h 31.3301 v -144.6485 h -31.4414 l -87.9863,20.9981 c -5.5547,-19.5527 -7.6672,-41.8831 -6.334,-67.1016 V 987.24805 h -123.6465 v 222.07615 h -71.2129 c 15.3311,-9.7763 31.1059,-30.7725 47.1035,-62.8789 16.1088,-32.1064 12.8867,-104.761 -9.4433,-217.85546 -2.7774,-41.88269 -2.1103,-83.10084 2.1113,-123.65039 27.8848,-1.44424 59.3255,-47.87961 94.3203,-139.31054 34.8838,-91.54202 49.2135,-152.64451 42.9922,-183.30664 -6.3324,-30.77323 -22.6612,-56.54804 -49.2129,-77.54493 -26.5516,-20.9969 -70.5452,-31.4414 -131.9805,-31.4414 v -79.6543 c 25.1074,-9.77633 48.8809,-28.99578 71.211,-57.6582 22.33,-28.66243 33.5508,-68.09989 33.5508,-118.42578 0,-50.325885 -21.3297,-83.765727 -63.8789,-100.541019 C 1022.0813,3.7708698 986.81816,-1.0646826 951.16602,0.19140625 Z m -7.4668,24.72656275 c 29.46318,-1.375644 58.46188,3.981796 84.67378,11.134765 45.4378,12.553701 68.1036,40.549796 68.1036,83.765626 0,44.66006 -15.3323,82.43357 -46.1055,113.0957 -30.7733,30.77323 -50.3262,38.43826 -58.65821,22.9961 -9.77635,-12.5537 -2.11134,-31.77315 22.99611,-57.65821 25.1074,-25.88507 31.4385,-50.99276 18.8848,-75.43359 -12.5538,-24.44083 -39.77185,-26.217593 -81.76568,-5.2207 -13.99793,-16.77529 -46.76865,-29.330015 -98.42773,-37.662113 9.77634,-26.440538 29.99433,-43.549314 60.76758,-51.214844 9.83802,-2.137628 19.71019,-3.344186 29.53125,-3.802734 z M 841.06836,103.59961 c 41.88274,4.2216 76.10068,16.1075 102.65234,35.66016 -1.44424,16.77529 5.22025,17.44239 19.88477,2.11132 14.66451,-15.33107 28.66258,-19.88537 41.88283,-13.66406 13.2203,6.33239 14.997,19.88591 5.2207,40.88281 -9.7763,20.99689 -22.33105,38.43762 -37.66212,52.43555 -15.33109,13.99793 -19.21633,27.88683 -11.55079,41.88477 7.66554,13.99793 13.66488,26.54873 17.77539,37.6582 -1.44423,75.43328 8.32924,113.0957 29.32622,113.0957 h 64.9902 c 32.1064,37.6611 39.1064,78.21214 20.998,121.53906 -18.1085,43.32693 -39.1047,103.3178 -62.8789,180.19532 -67.4019,29.43672 -165.61617,75.37226 -208.63669,96.54101 -7.88773,-30.99541 -17.88574,-61.76849 -30.43945,-92.875 11.22057,2.77737 26.55278,4.8878 46.10547,6.33203 29.32902,0 48.54647,-15.66566 57.65625,-47.10546 9.10977,-31.43979 2.44528,-47.10157 -19.88477,-47.10157 22.33005,0 33.55078,-7.66697 33.55078,-22.99804 H 861.8418 c -40.5496,9.77633 -71.99027,25.10662 -94.32032,46.10351 -15.33108,-51.65902 -22.99414,-99.87313 -22.99414,-144.5332 0,-64.21272 25.88585,-95.98688 77.54493,-95.32031 51.65897,0.66657 78.21005,-14.99521 79.65429,-47.10157 0,-41.88269 -16.7775,-60.77042 -50.32812,-56.54882 -33.55063,4.2216 -47.4356,-6.99917 -41.88086,-33.55079 19.55268,-12.5537 26.55083,-21.66402 20.99609,-27.21875 -5.55474,-5.55474 -16.10836,-9.10826 -31.43945,-10.4414 0,-8.3321 -8.33211,-16.11019 -25.10742,-22.99805 16.77531,-36.32796 32.10557,-61.43566 46.10351,-75.43359 15.33109,-8.3321 30.77439,-8.3321 46.10547,0 15.33108,8.3321 30.77244,13.99997 46.10352,16.77734 v -10.44336 c -9.77634,-1.44424 -22.33103,-6.66539 -37.66211,-15.66406 -15.33108,-8.99866 -32.10468,-10.7774 -50.32422,-5.22266 6.99897,-9.77633 12.55379,-17.44135 16.77539,-22.99609 z m 153.70508,28.25391 c -2.88074,-0.2127 -6.36612,0.28636 -10.50391,1.63086 -21.65273,7.1408 -42.97287,41.98018 -34.66211,53.43554 -20.86747,9.01094 -22.05449,26.06489 -7.2207,31.43946 16.94086,6.13799 51.98087,-34.23372 59.65818,-54.4375 6.341,-16.85359 5.2117,-31.14669 -7.27146,-32.06836 z m -151.06641,11.28515 c -5.48531,0.0347 -10.62309,1.37127 -15.41406,4.00977 l -14.66602,14.66601 v 10.43946 h 6.33399 c 19.55269,9.77633 41.21594,9.77633 64.99023,0 l 22.9961,4.22265 v -12.55468 l -22.9961,-2.10743 C 869.52288,149.28852 855.7747,143.06229 843.70703,143.13867 Z m 144.45703,3.57227 c 4.52278,0.0308 6.41005,2.59644 5.66016,7.6582 -1.33314,8.99866 -5.55572,17.77556 -12.55469,26.21875 -6.99897,8.3321 -13.22089,13.99802 -18.88672,16.77539 -5.55474,2.77737 -5.55474,7e-5 0,-8.33203 5.55474,-8.3321 5.55474,-11.55416 0,-9.44336 -5.66584,2.1108 -6.66659,-0.33502 -3.22265,-7.33398 3.44394,-6.99896 8.00018,-13.99518 13.66601,-20.99414 6.70735,-3.06205 11.82019,-4.57275 15.33789,-4.54883 z m -149.42773,6.6582 c -2.77737,4.22159 -2.77737,9.11129 0,14.66602 -4.2216,-1.44423 -8.33309,-3.44553 -12.55469,-6.33399 1.44423,-2.77737 5.55572,-5.55466 12.55469,-8.33203 z m 18.88476,2.11133 18.88672,10.44336 c -7.11007,2.77737 -14.77531,4.22265 -23.10742,4.22265 6.99897,-4.2216 8.33121,-9.11128 4.2207,-14.66601 z m 90.09766,43.99219 c 5.55474,4.22159 6.33293,7.99965 2.11133,11.55468 -4.2216,3.44394 -7.33256,3.11051 -9.44336,-1 -2.1108,-4.2216 0.33306,-7.77731 7.33203,-10.55468 z m -131.24219,13.39648 c -0.10925,-0.003 -0.21818,0.0336 -0.32422,0.10938 -4.64116,3.31535 -1.13356,8.25095 -5.74609,11.71484 -2.1108,1.44424 -4.88809,-0.001 -8.33203,-4.22266 -4.5263,-7.57225 -13.13928,-8.2529 -13.55469,2 4.2216,-1.44423 8.33309,0.33254 12.55469,5.22071 9.12569,10.56657 19.03813,0.81686 17.77539,-8.44336 -0.51946,-3.80934 -1.48339,-6.35649 -2.37305,-6.37891 z m -23.78125,33.92969 c 4.15595,-0.099 6.78161,2.46385 22.93164,4.00195 6.99897,0.66657 9.77626,1.77625 8.33203,3.10938 h -33.54882 c -4.83454,-2.41726 -2.41076,-6.64686 1.42968,-7.05469 0.29513,-0.0313 0.57841,-0.05 0.85547,-0.0566 z m 31.375,9.22265 c -5.64024,5.64024 -21.30007,11.7606 -22.88281,12.1543 -4.06697,1.01164 -13.95305,-0.12564 -6.44727,-7.93164 z m -117.3164,289.17969 c 0,43.32692 7.66501,83.76688 22.99609,121.53906 -80.988,4.2216 -133.42277,10.44158 -157.08594,18.88477 z M 1023.041,821.7168 c -2.7774,22.33003 -4.8878,58.65848 -6.332,108.98437 l -175.97462,41.88086 c 0.99985,-28.44025 -0.33364,-57.21327 -3.88868,-86.20898 89.87558,-30.10665 151.86703,-51.65817 186.1953,-64.65625 z m 2.1113,142.5332 c 23.7743,83.7654 23.439,144.8678 -1.0019,183.3066 -24.44079,38.4388 -49.21509,57.6582 -74.4336,57.6582 H 555.77539 l -63,279.7364 -188.06641,2 c 27.98905,-182.8567 124.75421,-347.3946 228.07227,-386.5 z m 96.5411,54.4355 h 64.9902 v 108.9844 c -1.4443,30.7732 3.4435,66.3254 14.6641,106.875 l 111.0937,-27.2187 v 73.3222 l -85.875,-27.2168 v 31.4375 l 66.7676,83.7657 c -8.0209,99.2671 -29.3281,197.8859 -29.3281,297.5136 0,69.8785 -3.4445,104.7598 -10.4434,104.7598 h -115.2051 c -11.2205,-16.7753 -25.8838,-25.1055 -43.9922,-25.1055 -18.1085,0 -34.2189,8.3302 -48.2168,25.1055 0,-32.1064 17.4409,-48.2129 52.4356,-48.2129 26.5517,0 39.7734,10.4426 39.7734,31.4395 h 81.7656 v -305.9571 c -65.6569,-101.9849 -98.4296,-165.5293 -98.4296,-190.6367 H 664.75977 v 31.4395 l 35.66211,203.1933 v 175.9727 c 0,68.4344 -4.22063,102.6523 -12.55274,102.6523 H 566.33008 c -11.22056,-16.7753 -25.88377,-25.1074 -43.99219,-25.1074 -17.33077,0 -32.77261,7.665 -46.32617,22.9961 -0.44437,-2.4441 -0.89133,-5.1113 -1.22461,-7.8887 3.44394,-25.4407 20.66498,-38.2168 51.77148,-38.2168 26.55164,0 39.77149,10.4445 39.77149,31.4414 h 81.76562 v -163.3086 l -56.54492,-274.5156 c -5.55473,-50.3259 4.21877,-75.4336 29.32617,-75.4336 h 500.81645 z m -559.2559,318.7051 29,131.7852 25.10938,119.4277 v 138.3125 h -27.21876 c -18.10842,-23.7743 -41.8839,-35.6621 -71.21289,-35.6621 -18.44172,0 -33.54989,4.7782 -45.21484,14.4434 0,-1.6664 0.10938,-3.3336 0.10938,-5 2.11081,-57.9914 17.77647,-118.4268 47.10546,-181.1953 z m -190.85547,182.002 h 31.43945 l -25.21875,88.0957 c -12.77589,27.1071 -29.99498,50.2157 -51.76953,69.2129 4.99926,-50.5481 20.21924,-102.9834 45.54883,-157.3086 z"
   sodipodi:nodetypes="scccscccccsccccccscccscccscscccscccccscccccccccccccccccccscccsccccccccccccccccccsccsscsscsccsscccsccscssscscsccccsccccsscscscccsccsccsccscssccccccccsssccscscsccccccccccccsscccsssssccsscsccccccccccccssccccccccccccccsscscscccccccsscsccsccccscccccccsccccccccc" />
</svg>
