<?xml version="1.0" encoding="UTF-8" standalone="no"?>
<svg
   width="733.45148"
   height="1000"
   version="1.1"
   id="svg1"
   sodipodi:docname="13632.svg"
   inkscape:version="1.4.3 (0d15f75, 2025-12-25)"
   xmlns:inkscape="http://www.inkscape.org/namespaces/inkscape"
   xmlns:sodipodi="http://sodipodi.sourceforge.net/DTD/sodipodi-0.dtd"
   xmlns="http://www.w3.org/2000/svg"
   xmlns:svg="http://www.w3.org/2000/svg">
  <defs
     id="defs1" />
  <sodipodi:namedview
     id="namedview1"
     pagecolor="#ffffff"
     bordercolor="#666666"
     borderopacity="1.0"
     inkscape:showpageshadow="2"
     inkscape:pageopacity="0.0"
     inkscape:pagecheckerboard="0"
     inkscape:deskcolor="#d1d1d1"
     inkscape:zoom="0.18875"
     inkscape:cx="452.98013"
     inkscape:cy="792.05298"
     inkscape:window-width="1680"
     inkscape:window-height="998"
     inkscape:window-x="-8"
     inkscape:window-y="-8"
     inkscape:window-maximized="1"
     inkscape:current-layer="svg1"
     showguides="true">
    <sodipodi:guide
       position="733.45148,1000"
       orientation="0,-1"
       id="guide18"
       inkscape:locked="false" />
    <sodipodi:guide
       position="733.45148,0"
       orientation="0,-1"
       id="guide19"
       inkscape:locked="false" />
    <sodipodi:guide
       position="1819.3521,664.1413"
       orientation="0,-1"
       id="guide21"
       inkscape:locked="false" />
    <sodipodi:guide
       position="290.13767,342.66401"
       orientation="0,-1"
       id="guide28"
       inkscape:locked="false" />
  </sodipodi:namedview>
  <path
     id="path15"
     style="fill:#000000;stroke:none;stroke-width:1"
     d="M 551.30664 0.14648438 C 510.77732 0.036655882 487.8093 22.288004 474.79492 57.564453 C 473.43573 62.132466 471.98047 69.001701 471.98047 70.814453 C 464.97304 80.624878 456.91437 94.288057 447.80469 111.80664 C 443.60023 122.31779 443.60023 128.45128 447.80469 130.20312 C 452.00918 131.95498 455.51346 133.88216 458.31641 135.98438 C 449.24614 143.24069 456.84517 145.8636 459.36719 146.49414 C 464.97312 145.79336 465.49821 146.8435 460.94336 149.64648 C 456.38856 152.44947 455.86348 154.90166 459.36719 157.00391 C 462.87088 159.10612 464.62109 164.53953 464.62109 173.29883 C 464.62109 173.43799 464.62297 173.57541 464.625 173.71289 C 433.36084 208.2321 404.18362 214.25442 387.54102 207.5293 C 385.61588 172.27545 335.29813 203.84194 371.22461 223.42969 C 388.25514 232.71502 406.98811 231.15325 424.25781 224.86328 C 419.22144 228.09698 414.80751 231.75628 411.01562 235.83984 C 380.18289 268.77477 341.64163 309.06817 295.39258 356.71875 L 296.44336 356.71875 C 267.01211 357.41949 237.05462 361.79692 206.57227 369.85547 C 176.08995 377.91403 133.05486 377.27537 104.72852 368.01172 C 88.268917 354.98035 77.639944 347.77862 72.839844 346.4082 L 72.839844 168.82812 C 72.154644 148.25399 64.955334 128.02454 51.240234 108.13672 C 59.470034 92.36304 69.927934 75.902612 82.615234 58.757812 C 95.288834 41.612626 94.421778 27.211113 80.017578 15.552734 C 66.987778 42.98479 51.729588 64.415383 34.242188 79.845703 C 16.754787 95.276033 4.2381594 111.22239 -3.3066406 127.68164 C -10.851241 144.14084 -26.280503 176.02934 -49.595703 223.34961 C -27.650903 230.20751 -10.848953 214.77751 0.81054688 177.05859 C 12.466547 161.28528 21.895756 150.9981 29.097656 146.19727 C 36.318156 141.3968 41.291578 149.28366 44.017578 169.85742 L 44.017578 345.37891 L 15.210938 345.37891 C 15.210938 353.6076 21.383916 359.43748 33.728516 362.86719 C 28.228416 370.41104 27.362259 378.98464 31.130859 388.58594 C 34.903159 398.18652 39.190341 404.70115 43.994141 408.13086 L 43.984375 765.34766 C 34.159743 768.46914 13.929687 780.47964 13.929688 805.88477 C 13.929688 815.8975 15.961478 830.64063 22.216797 850.66406 C 27.016657 866.02853 35.478216 873.88281 48.746094 873.88281 C 39.879131 838.50319 36.745882 815.89176 37.138672 805.88477 C 37.562728 795.08122 46.165325 787.01616 57.945312 786.6875 C 69.7253 787.01616 78.325944 795.08122 78.75 805.88477 C 79.14279 815.89176 76.009541 838.50319 67.142578 873.88281 C 80.410456 873.88281 88.872015 866.02853 93.671875 850.66406 C 99.927194 830.64063 101.95898 815.8975 101.95898 805.88477 C 101.95898 780.47964 81.728929 768.46914 71.904297 765.34766 L 72.773438 765.34766 L 72.761719 410.18945 L 130.36914 404.01758 C 225.67025 417.33172 285.93334 418.73186 311.16016 408.2207 L 310.10742 407.16992 C 342.34163 386.84835 381.58488 352.16339 427.83398 303.11133 C 440.44734 347.2582 454.11056 416.98209 468.82617 512.2832 L 467.77539 512.2832 C 411.01516 517.88913 364.41519 524.01869 327.97656 530.67578 C 291.53787 537.33283 258.25308 545.9185 228.12109 556.42969 C 185.67802 567.80228 169.36523 592.55517 169.36523 638.99219 L 171.3418 664.35742 C 162.40077 704.3408 154.10792 735.88413 146.48242 802.22656 C 141.11282 848.9426 130.27396 886.66493 114.00586 915.44531 C 94.385757 950.15543 53.322205 964.34798 17.753906 969.92578 C -1.011045 969.14235 -11.583272 986.77564 -5.4140625 999.96484 L 92.865234 999.86719 C 112.30623 994.02769 127.74078 993.19939 139.23828 997.37109 C 143.87048 999.05159 147.01247 1000 150.77148 1000 C 170.20557 1000 177.38573 988.79835 180.00391 975.88281 C 181.07567 970.59579 177.90263 954.5921 175.17773 947.98828 C 165.36733 924.2132 172.28334 893.51813 196.02344 855.97852 C 219.76344 818.43884 232.41967 781.7481 233.98047 745.87695 C 235.17359 718.45583 238.28566 701.31154 243.26172 694.39258 C 250.80762 728.02522 257.84645 759.44179 276.73047 814.54102 C 284.45646 844.30854 314.04593 901.68799 298.39453 923.45312 C 277.50081 952.50833 239.99346 964.79801 207.29492 969.92578 C 188.52996 969.14235 177.95774 986.77564 184.12695 999.96484 L 282.40625 999.86719 C 301.84725 994.02769 317.2818 993.19939 328.7793 997.37109 C 333.4115 999.05159 336.55544 1000 340.31445 1000 C 359.74854 1000 366.92869 988.79835 369.54688 975.88281 C 370.61863 970.59579 367.44365 954.5921 364.71875 947.98828 C 354.90835 924.2132 339.28865 885.86054 344.57422 841.75977 C 349.85968 797.65899 345.50405 759.09197 331.48438 726.03711 C 317.13909 692.21457 313.81763 660.92578 321.34766 657.33594 L 543.45703 657.33594 C 592.915 657.33594 629.93379 639.06076 624.39062 578.50391 C 618.08408 525.2474 617.73392 484.25393 623.33984 455.52344 C 628.94581 426.79292 634.55224 401.21284 640.1582 378.78906 C 645.06338 359.16822 651.01986 333.94406 658.02734 303.11133 C 678.74725 349.86837 699.0549 386.31997 720.55078 443.21484 C 695.55697 498.73125 684.05196 534.20078 683.66992 559.57227 C 683.2879 584.94419 674.49582 605.09167 657.29297 620.01562 C 640.09012 634.93962 630.79521 656.58385 629.41016 684.94531 C 635.83074 687.8386 640.2156 684.13354 642.5625 673.83398 C 644.9094 663.53442 652.29993 651.97076 664.73438 639.14258 C 666.22034 663.92304 657.00543 675.76519 652.44922 685.7793 C 647.89297 695.79339 641.05222 704.49721 631.92578 711.89258 C 627.45893 714.81275 625.61678 718.21735 626.39844 722.10352 C 627.1801 725.98973 630.97185 728.51132 637.77539 729.66992 C 656.80711 716.23876 669.57125 702.4252 676.06641 688.23047 C 682.56156 674.03564 690.18418 652.56298 690.34961 628.88867 C 733.28165 544.98817 755.16028 489.14469 761.66992 438.20703 C 762.99874 427.80906 761.3314 418.18914 759.33203 408.32227 C 752.80404 376.10678 721.26523 305.61256 698.27539 265.79297 C 688.53241 248.91763 684.17998 241.10753 674.31641 233.3457 C 669.04187 229.19507 664.06609 225.52353 659.38867 222.33203 C 661.69304 183.55533 662.96523 146.92997 663.20508 112.45508 C 663.57112 56.472664 648.019 22.809868 616.54883 11.466797 C 592.94985 2.9600686 571.20351 -0.81376996 551.30859 0.14648438 L 551.30664 0.14648438 z M 553.99023 18.148438 C 570.24862 17.736753 587.43338 20.821888 605.54492 27.408203 C 629.69382 36.189555 641.76953 63.267193 641.76953 108.63867 C 641.76953 154.01014 639.93809 209.99262 636.27734 276.58594 L 580.32227 276.58594 C 575.18187 199.01564 574.44103 154.01081 578.10156 141.57031 C 589.05646 127.66594 594.72966 112.66212 595.11914 96.5625 C 595.48525 80.464823 591.46066 70.586463 583.04492 66.925781 C 574.62929 63.265087 565.29695 63.265087 555.05078 66.925781 C 552.12622 54.486062 533.46527 47.532637 499.07031 46.068359 C 507.84058 22.259512 538.98421 18.528395 553.99023 18.148438 z M 504.35938 61.265625 C 534.85198 62.385992 548.81937 74.151358 546.26367 96.5625 L 557.24219 96.5625 C 557.24219 84.854148 560.16817 79 566.02148 79 C 574.80322 79 579.19336 85.219665 579.19336 97.660156 C 579.19336 110.10065 572.97379 124.00558 560.53516 139.37305 L 560.51367 139.35352 C 556.94203 211.77242 559.74294 256.83601 566.00195 297.41797 L 636.79492 297.41797 C 627.07963 335.62412 617.51408 377.28752 608.09961 422.41211 C 597.93885 471.11382 595.66162 518.76383 601.26758 565.36328 C 606.26645 606.91651 589.79372 630.20679 551.88867 635.26367 L 324.82422 635.26367 L 263.85938 567.99023 C 275.77204 564.48646 297.49585 559.93406 329.0293 554.32812 C 365.46795 547.3207 420.47466 541.71226 494.05273 537.50781 L 494.05273 512.2832 C 475.83341 407.17166 460.7681 320.62836 448.85547 252.65625 C 448.1547 236.53913 461.11781 228.65743 487.74609 229.00781 C 514.37432 229.35816 527.51441 219.37235 527.16406 199.05078 C 526.81367 178.72921 517.70292 170.32047 499.83398 173.82422 C 481.965 177.32794 474.78339 171.3695 478.28711 155.95312 C 488.79826 148.94568 492.65259 144.04127 489.84961 141.23828 C 487.04662 138.43534 481.09011 136.68513 471.98047 135.98438 C 471.98047 130.37846 467.77611 125.82208 459.36719 122.31836 C 467.77611 101.29606 475.8348 86.930826 483.54297 79.222656 C 491.95192 75.018204 500.53562 75.193245 509.29492 79.748047 C 518.05417 84.302892 525.93784 87.280131 532.94531 88.681641 L 532.94531 82.376953 C 528.74081 81.67622 522.43431 78.696984 514.02539 73.441406 C 505.61645 68.185827 496.85572 67.660782 487.74609 71.865234 C 488.4523 68.969155 490.26721 64.501585 491.71289 61.794922 C 496.74333 61.520474 500.00335 61.105574 504.35938 61.265625 z M 504.08594 61.794922 L 504.08594 61.796875 L 504.08398 61.798828 C 504.07998 61.817358 504.08098 61.874428 504.08398 61.9375 C 504.10398 61.9408 504.12073 61.943936 504.14062 61.947266 C 504.12613 61.902606 504.11256 61.858994 504.09766 61.814453 C 504.09666 61.811153 504.09488 61.805301 504.09375 61.802734 L 504.0918 61.800781 L 504.0918 61.798828 L 504.08984 61.796875 L 504.08984 61.794922 L 504.08789 61.794922 L 504.08594 61.794922 z M 499.14453 80.519531 C 495.39993 80.355301 491.95216 81.325502 488.79883 83.427734 L 480.38867 90.785156 L 480.38867 97.09375 L 483.54297 97.09375 C 494.75486 102.69971 507.01785 102.69971 520.33203 97.09375 L 532.94531 99.195312 L 532.94531 91.835938 L 520.33203 90.785156 C 512.44862 84.215691 505.38553 80.793252 499.14453 80.519531 z M 494.05273 85.529297 C 492.65126 88.332283 492.65126 91.484562 494.05273 94.988281 C 491.95052 93.586761 489.84833 92.186622 487.74609 90.785156 C 488.44682 89.38368 490.54901 87.631539 494.05273 85.529297 z M 505.61719 87.630859 L 516.12695 93.9375 C 511.22172 95.33902 506.66738 96.041016 502.46289 96.041016 C 506.66738 93.23803 507.71945 90.433845 505.61719 87.630859 z M 482.73633 119.97852 C 482.06298 120.03122 481.44141 122.14502 481.44141 124.41992 C 481.44141 126.61213 477.29351 130.56203 474.08398 124.94531 C 470.48392 118.64532 465.49828 120.9165 467.77539 125.4707 C 469.1769 124.06924 470.931 124.94819 473.0332 128.10156 C 477.52175 134.8343 484.75226 130.04921 484.06836 123.89453 C 483.74665 120.99924 483.2277 119.94008 482.73633 119.97852 z M 469.64844 140.60938 C 470.43377 140.58918 471.22412 140.61838 471.98047 140.71289 C 474.78346 141.06324 478.11274 141.41328 481.9668 141.76367 C 485.82091 142.11406 487.39604 142.64107 486.69531 143.3418 L 467.77539 143.3418 C 458.92785 143.3418 464.15114 140.75038 469.64844 140.60938 z M 485.64453 145.44336 C 482.34205 147.98651 477.72037 150.31736 473.12305 151.10938 C 467.92177 151.97625 467.48595 149.93788 469.87891 147.54492 L 485.64453 145.44336 z M 508.76953 188.53711 L 508.76953 206.4082 C 482.88931 206.4082 461.37495 209.38954 444.22461 215.35156 C 458.22807 207.16148 470.01518 197.14178 477.28906 189.73633 C 485.278 191.67467 495.77186 191.27347 508.76953 188.53711 z " />
</svg>
