<?xml version="1.0" encoding="UTF-8" standalone="no"?>
<svg
   width="1000"
   height="1000"
   version="1.1"
   id="svg1"
   sodipodi:docname="13646.svg"
   inkscape:version="1.4.3 (0d15f75, 2025-12-25)"
   xmlns:inkscape="http://www.inkscape.org/namespaces/inkscape"
   xmlns:sodipodi="http://sodipodi.sourceforge.net/DTD/sodipodi-0.dtd"
   xmlns="http://www.w3.org/2000/svg"
   xmlns:svg="http://www.w3.org/2000/svg">
  <defs
     id="defs1" />
  <sodipodi:namedview
     id="namedview1"
     pagecolor="#ffffff"
     bordercolor="#666666"
     borderopacity="1.0"
     inkscape:showpageshadow="2"
     inkscape:pageopacity="0.0"
     inkscape:pagecheckerboard="0"
     inkscape:deskcolor="#d1d1d1"
     inkscape:zoom="0.5"
     inkscape:cx="519"
     inkscape:cy="541"
     inkscape:window-width="1680"
     inkscape:window-height="998"
     inkscape:window-x="-8"
     inkscape:window-y="-8"
     inkscape:window-maximized="1"
     inkscape:current-layer="svg1"
     showguides="true" />
  <path
     id="path4"
     style="fill:#000000;stroke:none;stroke-width:1"
     d="M 539.41211 2.2753906 C 533.16353 2.5693221 527.1101 3.3616269 521.25 4.6542969 C 497.80974 9.8249408 482.97045 18.609964 476.76562 31.019531 C 470.56088 43.429098 465.78308 55.535704 462.33594 67.255859 C 455.44176 76.218323 447.10585 87.695804 439.72852 103.31836 C 435.35215 112.58596 436.3908 118.60751 440.52734 119.98633 C 444.66389 121.3652 449.15449 123.41224 453.98047 126.16992 C 452.03114 126.90094 446.68239 129.03251 446.71289 131.26953 C 446.74489 133.61575 450.86222 134.85654 455.82617 135.5 C 452.14645 137.67343 449.09961 139.98718 449.09961 141.68555 C 449.09961 142.91255 450.03211 143.65184 450.94336 144.28906 C 453.70103 146.01261 455.06641 150.0179 455.06641 156.22266 C 454.37703 163.80629 457.10774 168.58606 463.3125 170.6543 L 431.41406 238.13867 C 417.56586 231.35983 399.08203 238.65076 399.08203 248.66211 C 399.08203 264.10563 441.68032 266.79539 452.13672 244.64844 L 486.0957 172.71484 L 495.42773 172.71484 C 500.94304 180.29848 500.54656 190.35804 494.3418 202.76758 C 480.55337 221.38195 467.07941 256.80715 453.98047 309.20312 C 441.57085 309.89256 417.46507 312.5344 381.61523 317.01562 C 345.76537 321.49691 318.92687 321.01144 301.00195 315.49609 C 284.9353 299.25077 271.54979 294.31738 252.87109 293.07617 C 242.5513 284.15806 228.19119 284.15431 220.87695 284.14844 C 185.71513 284.12024 153.18706 299.32768 122.13086 314.20703 C 124.74734 296.17037 127.36772 278.13261 129.98242 260.0957 C 120.37645 259.73927 110.77004 259.37204 101.16406 259.01562 C 102.83206 278.99669 104.49994 298.97792 106.16797 318.95898 C 64.502203 314.96883 22.83791 310.97366 -18.828125 306.98633 C -18.828137 313.1397 -18.828125 319.29194 -18.828125 325.44531 C -18.828125 331.59867 -18.828137 337.75288 -18.828125 343.90625 C 22.83791 339.91892 64.502203 335.92374 106.16797 331.93359 C 104.49994 351.91465 102.83207 371.8959 101.16406 391.87695 C 110.77004 391.52053 120.37645 391.15331 129.98242 390.79688 C 127.36771 372.75997 124.74735 354.72221 122.13086 336.68555 C 153.18707 351.5649 185.71514 366.77236 220.87695 366.74414 C 227.87043 366.7384 241.30641 366.73341 251.49219 358.9375 C 271.13108 361.32708 305.00408 356.59868 326.82422 351.625 C 390.25089 356.45092 430.56135 357.52916 447.79688 354.77148 C 446.84177 367.70919 446.16837 380.65966 445.69531 393.61719 C 428.52765 395.09463 404.11716 398.77854 375.39062 404.45703 C 345.74556 410.31711 323.29029 411.88072 308.12305 409.12305 C 265.46974 395.75411 230.77306 395.75411 204.03516 409.12305 C 205.30837 417.39908 212.15239 420.10503 224.56641 417.24023 C 236.98046 414.37548 251.78207 417.71639 268.9707 427.26562 C 250.50879 435.54165 234.91202 438.40584 222.17969 435.85938 C 209.44735 433.31293 197.98858 428.22144 187.80273 420.58203 C 185.25623 417.39894 181.91337 419.14756 177.77539 425.83203 C 173.63738 432.51651 173.16069 438.08861 176.34375 442.54492 C 215.17739 463.55327 242.8698 471.03419 259.42188 464.98633 C 275.97388 458.93846 296.98064 450.82066 322.44531 440.63477 C 378.28837 443.39244 418.77338 443.24481 444.71875 441.25195 C 444.51788 467.90446 444.75977 494.56824 444.75977 521.20508 C 347.202 528.59593 278.62151 542.47558 224.40234 562.65039 C 192.68902 575.0599 176.19917 602.29493 174.82031 644.34961 C 163.10015 706.39745 154.11882 763.88143 147.91406 816.9668 C 141.70927 870.05218 129.79896 905.10145 112.21875 921.99219 C 94.638533 938.88298 67.207213 953.12751 29.978516 964.84766 C 9.2959042 971.05239 -0.65621125 982.47733 0.033203125 999.02344 L 183.06641 999.02344 C 203.74901 996.95531 215.17396 990.9008 217.24219 980.9043 C 219.31048 970.9077 217.74698 959.87738 212.57617 947.8125 C 207.40551 935.74772 204.56763 922.86846 204.22266 909.08008 C 203.87771 895.29165 212.77038 863.17144 230.69531 812.84375 C 251.37792 772.16793 262.89365 738.19887 265.30664 710.9668 C 266.04164 702.67167 270.56653 661.92578 288.52539 661.92578 L 288.52539 1000 L 692.89062 1000 L 692.89062 633.93359 L 725.00586 633.93359 L 725.00586 475.74609 C 725.00586 450.92696 708.40667 438.53125 675.31445 438.53125 C 642.22233 438.53125 625.73047 451.21412 625.73047 476.72266 C 625.73047 583.77124 621.68689 638.58485 613.79688 641.09375 C 613.66921 641.11975 613.38506 641.20508 613.25195 641.20508 L 586.88867 641.20508 C 602.66031 621.50152 613.1863 587.72884 618.45898 539.86914 L 618.45898 301.17773 L 637.01367 301.17773 C 642.52924 237.75106 645.36719 160.90278 645.36719 108.16211 C 645.36719 55.421442 630.52985 23.697713 600.88477 13.011719 C 578.65242 4.9952784 558.15791 1.3935959 539.41211 2.2753906 z M 541.97266 18.541016 C 557.82956 18.541016 573.692 20.974188 591.01367 27.4375 C 614.10924 36.055252 625.73047 61.726622 625.73047 104.4707 C 625.73047 147.21475 623.97034 218.79986 620.52344 281.53711 L 566.70898 281.53711 C 561.88277 208.45857 561.59557 147.22016 565.73242 135.5 C 575.38454 122.40103 580.3607 108.24538 580.70508 93.078125 C 581.0496 77.910866 577.43942 68.642416 569.85547 65.195312 C 562.27202 61.748204 553.28855 61.748203 542.94727 65.195312 C 540.18963 53.475158 522.62144 46.935467 490.21875 45.556641 C 498.69558 22.548018 528.84402 18.541016 541.97266 18.541016 z M 495.21094 59.878906 C 523.94039 60.934586 537.11608 71.964619 534.70312 93.078125 L 545.00977 93.078125 C 545.00977 82.047369 547.74034 76.587891 553.25586 76.587891 C 561.52856 76.587891 565.73242 82.443913 565.73242 94.164062 C 565.73242 105.88422 559.87645 118.96163 548.15625 133.43945 C 547.46709 161.70569 547.07227 183.47922 547.07227 198.64648 C 536.04153 202.78302 526.08937 200.62656 517.12695 192.35352 C 517.81631 189.59584 517.81631 183.05613 517.12695 172.71484 C 516.43749 162.37352 507.25793 158.47568 489.67773 160.88867 C 472.0975 163.30162 465.07244 157.53447 468.51953 143.74609 C 478.86069 137.54128 482.47157 133.24888 479.36914 130.83594 C 476.26677 128.42296 470.60901 126.85936 462.33594 126.16992 C 462.33594 119.88697 455.25688 115.06965 450.94336 112.7168 C 458.52695 94.791887 466.03551 82.396166 473.61914 75.501953 C 481.20278 71.36541 489.01697 71.276376 496.94531 75.068359 C 504.87361 78.860157 513.26409 81.789181 522.22656 83.857422 L 522.22656 77.564453 C 516.71119 77.564453 509.88439 75.031984 501.61133 69.861328 C 493.33832 64.690662 484.64215 63.80875 475.67969 67.255859 L 481.97461 59.986328 C 486.71436 59.728006 491.10673 59.727793 495.21094 59.878906 z M 488.54297 76.666016 C 487.71478 76.618766 486.89924 76.628633 486.0957 76.695312 C 483.17376 76.937533 480.43689 77.901443 477.85156 79.625 L 470.58203 85.917969 L 470.58203 91.017578 L 473.61914 91.017578 C 483.96046 95.843554 495.38533 95.843554 507.79492 91.017578 L 519.1875 94.164062 L 519.1875 85.917969 L 507.79492 85.917969 C 500.74455 80.111741 494.34028 76.99665 488.54297 76.666016 z M 484.03516 80.710938 C 481.96693 83.468614 481.96693 86.197383 484.03516 88.955078 C 481.27749 87.57627 478.8339 86.607348 476.76562 85.917969 C 478.1445 83.849668 480.58809 82.08977 484.03516 80.710938 z M 493.36523 81.6875 L 503.67383 88.955078 C 499.53732 89.644237 495.72829 90.041016 492.28125 90.041016 C 495.03892 87.972774 495.43352 85.134573 493.36523 81.6875 z M 471.77539 112.17383 C 471.2767 112.17383 470.50568 113.05746 470.58398 115.32031 C 470.63878 116.90445 470.09779 117.9782 469.06445 118.4668 C 466.604 119.6302 463.02809 112.7168 460.27734 112.7168 C 458.03907 112.7168 457.03988 114.77821 457.12891 116.75 C 461.73663 113.67809 463.96431 121.76172 468.70508 121.76172 C 470.5796 121.76172 473.63867 120.02954 473.63867 116.7832 C 473.63867 115.2102 473.17287 112.17383 471.77539 112.17383 z M 460.45508 128.86523 C 461.10528 128.89443 461.8647 129.05812 462.76953 129.31641 C 465.18252 130.00584 468.11148 130.49097 471.55859 130.83594 C 475.00571 131.1809 476.36911 131.37891 475.67969 131.37891 L 459.18945 132.35547 C 456.53681 131.03117 458.16726 129.06928 459.83984 128.88281 L 459.8418 128.88281 C 460.03542 128.86141 460.23869 128.85553 460.45508 128.86523 z M 475.67969 134.52344 C 474.30082 135.21288 472.25378 135.98541 469.49609 137.01953 C 466.73842 138.05365 464.69132 138.93556 463.3125 139.625 C 458.13565 139.625 459.19278 137.61655 461.25 136.58789 L 475.67969 134.52344 z M 509.85742 207.86914 C 521.57757 220.27871 534.36792 224.48225 548.15625 220.3457 C 548.15625 224.48225 549.12519 240.68492 551.19336 268.95117 C 520.85893 266.88293 501.92547 260.63234 494.3418 250.29102 L 509.85742 207.86914 z M 487.07227 275.13672 C 501.55013 283.40977 517.07303 287.90043 533.61914 288.58984 C 530.8615 291.34753 528.32712 297.0053 525.91406 305.62305 C 511.53068 335.24628 488.13886 360.22109 468.51953 386.7793 C 469.20892 350.24003 475.35213 313.05484 487.07227 275.13672 z M 218.49414 305.55469 C 221.37763 307.45358 225.0845 309.03161 229.61133 310.28906 C 224.09597 317.87269 223.216 326.45749 227.00781 336.10938 C 228.16156 339.04617 229.33258 341.74088 230.54883 344.15039 C 227.90449 344.95778 224.79529 345.41678 221.14844 345.38672 C 191.32797 345.14087 164.32785 334.91475 136.4043 325.44531 C 163.49661 316.25775 189.72105 306.36042 218.49414 305.55469 z M 596.76367 309.20312 L 596.76367 431.26172 C 600.21071 569.83524 577.75356 639.82436 529.49414 641.20312 L 288.52539 641.20312 C 265.08507 643.96082 251.72056 656.35654 248.27344 678.41797 C 242.7581 717.02547 233.38023 752.35989 220.28125 784.41797 C 207.18223 816.4761 194.49941 852.88873 182.08984 893.56445 L 183.06641 928.71875 C 199.61251 957.67447 195.80355 974.55911 171.67383 979.38477 L 39.308594 979.38477 L 38.332031 978.30078 C 77.629007 967.26999 107.39646 953.90539 127.73438 938.04883 C 148.07227 922.19223 161.34601 885.09591 167.55078 826.83984 C 173.75559 768.58387 183.42055 708.458 196.51953 646.41016 C 197.20895 610.56025 210.6829 589.47041 236.88086 583.26562 C 297.52432 559.37581 389.37867 549.1847 467.43555 542.9043 L 467.43555 439.50781 C 485.36047 436.0607 528.511 392.62297 596.76367 309.20312 z M 675.31445 459.6875 C 693.92883 460.03245 703.19727 465.69193 703.19727 476.72266 L 703.19727 616.35742 L 683.56055 616.35742 L 683.56055 542.9043 L 663.92188 542.9043 L 663.92188 784.95898 L 497.48828 784.95898 L 497.48828 972.11719 L 316.51758 972.11719 L 316.51758 661.92578 L 615.51758 661.92578 C 628.93141 661.92578 647.42969 651.46022 647.42969 636.29297 L 647.42969 476.72266 C 647.42969 465.00254 656.70011 459.34253 675.31445 459.6875 z M 518.21094 805.68164 L 663.92188 805.68164 L 663.92188 972.11719 L 518.21094 972.11719 L 518.21094 805.68164 z " />
</svg>
