<?xml version="1.0" encoding="UTF-8" standalone="no"?>
<svg
   width="2000"
   height="2000"
   version="1.1"
   id="svg1"
   sodipodi:docname="13645.svg"
   inkscape:version="1.4.3 (0d15f75, 2025-12-25)"
   xmlns:inkscape="http://www.inkscape.org/namespaces/inkscape"
   xmlns:sodipodi="http://sodipodi.sourceforge.net/DTD/sodipodi-0.dtd"
   xmlns="http://www.w3.org/2000/svg"
   xmlns:svg="http://www.w3.org/2000/svg">
  <defs
     id="defs1" />
  <sodipodi:namedview
     id="namedview1"
     pagecolor="#ffffff"
     bordercolor="#666666"
     borderopacity="1.0"
     inkscape:showpageshadow="2"
     inkscape:pageopacity="0.0"
     inkscape:pagecheckerboard="0"
     inkscape:deskcolor="#d1d1d1"
     inkscape:zoom="0.5"
     inkscape:cx="1451"
     inkscape:cy="2009"
     inkscape:window-width="1680"
     inkscape:window-height="998"
     inkscape:window-x="-8"
     inkscape:window-y="-8"
     inkscape:window-maximized="1"
     inkscape:current-layer="svg1" />
  <path
     style="fill:#000000;stroke:none;stroke-width:1"
     d="m 552.90625,0 c -26.22621,55.212952 -56.90528,98.409585 -92.10352,129.4668 -35.19822,31.0573 -60.41017,63.10271 -75.59375,96.23047 -15.18355,33.12777 -46.26046,97.22053 -93.1914,192.46289 44.17032,13.80317 77.97979,-17.27167 101.44531,-93.18946 23.4655,-31.74743 42.41878,-52.4647 56.91211,-62.12695 14.49341,-9.66224 24.45721,6.37935 29.97852,47.78906 V 583.9043 h -58 c 0,16.56388 12.51745,28.28784 37.36328,35.18945 -11.04258,15.18358 -12.80467,32.37469 -5.21289,51.69922 7.59177,19.32449 16.18736,32.41672 25.84961,39.31836 v 56.04492 h -55.82813 c 0,16.56388 12.51746,27.49628 37.36328,33.01758 -11.04255,16.56388 -13.20041,33.57806 -6.29883,50.83203 6.90164,17.2541 15.10143,29.94853 24.76368,38.23047 v 62.12695 c -13.80324,8.28199 -21.42826,28.2077 -22.8086,59.95512 -1.38033,12.4229 2.14381,31.1991 10.42578,56.0449 5.52128,19.3245 16.67245,28.8906 33.23633,28.8906 -11.04255,-44.1704 -15.93503,-72.5126 -14.55469,-84.9355 0,-23.46555 7.62498,-35.19145 22.8086,-35.19145 13.80325,0 21.42829,11.7259 22.80859,35.19145 0,12.4229 -4.89048,40.7651 -14.55273,84.9355 15.1835,0 25.54117,-9.5661 31.0625,-28.8906 8.28197,-24.8458 11.58929,-43.622 10.20898,-56.0449 0,-31.74742 -6.83152,-51.67315 -20.63476,-59.95512 v -64.29883 l 117.95312,-12.38086 c 111.80619,5.52127 189.99967,4.15494 234.16992,-4.12695 v 171.82426 c -195.32533,14.7976 -332.63257,42.5874 -441.1875,82.9804 -63.49482,24.8457 -96.51079,79.3725 -99.27148,163.5723 -23.46552,124.2291 -41.44824,239.3206 -53.8711,345.6055 -12.42294,106.2849 -36.27052,176.4576 -71.46875,210.2754 -35.19823,33.8179 -90.1188,62.3391 -164.656246,85.8046 -41.409696,12.4228 -61.3353889,35.298 -59.95507775,68.4258 H 366.52734 c 41.40968,-4.1407 64.28487,-16.2628 68.42578,-36.2773 4.14104,-20.0147 1.01096,-42.0982 -9.34179,-66.2539 -10.35244,-24.1555 -16.03393,-49.9425 -16.72461,-77.5489 -0.69065,-27.6065 17.11355,-91.916 53.00195,-192.6796 41.40969,-81.4391 64.46376,-149.452 69.29492,-203.9747 1.47158,-16.6081 10.53,-98.1875 46.48633,-98.1875 V 2000 h 809.60158 v -732.9199 h 64.2988 V 950.36328 c 0,-49.69163 -33.2327,-74.50781 -99.4883,-74.50781 -66.2554,0 -99.2734,25.39096 -99.2734,76.46289 0,214.32734 -8.0975,324.07444 -23.8945,329.09764 -0.2556,0.052 -0.8234,0.2227 -1.0899,0.2227 h -52.7851 c 31.5772,-39.4495 52.6542,-107.0664 63.2109,-202.8887 V 600.85156 h 37.1465 c 11.043,-126.98972 16.7265,-280.85056 16.7265,-386.44531 0,-105.59474 -29.7086,-169.110894 -89.0625,-190.505859 C 1143.7104,2.5002336 1090.5522,-3.1845092 1043.6211,7.1679688 996.69019,17.520375 966.97961,35.10926 954.55664,59.955078 942.13378,84.800896 932.56771,109.0423 925.66602,132.50781 c -13.80319,17.9442 -30.49316,40.92052 -45.26368,72.19922 -8.76216,18.55514 -6.6804,30.61244 1.60157,33.37305 8.28199,2.7607 17.27321,6.85957 26.93554,12.38086 -3.90285,1.4636 -14.61379,5.73208 -14.55273,10.21094 0.064,4.69749 8.30752,7.18239 18.24609,8.4707 -7.36735,4.35152 -13.46875,8.98243 -13.46875,12.38281 0,2.45664 1.86891,3.93707 3.69336,5.21289 5.52128,3.4508 8.25391,11.47167 8.25391,23.89453 -1.38025,15.18358 4.0869,24.74971 16.50976,28.89063 l -63.86328,135.11523 c -27.72617,-13.57226 -64.73437,1.02608 -64.73437,21.07031 0,30.92025 85.28934,36.30443 106.22461,-8.0371 l 67.99023,-144.01954 h 18.68164 c 11.04248,15.18358 10.25098,35.32418 -2.17187,60.16993 -27.60651,37.26877 -54.58255,108.19502 -80.8086,213.09961 -24.84591,1.38034 -73.11191,6.66854 -144.88867,15.64062 -71.77682,8.97219 -125.51006,8.00153 -161.39844,-3.04102 -33.12777,-26.22613 -54.63845,-40.90142 -64.30078,-43.6621 V 308.46094 C 536.97128,267.05123 522.51464,226.41026 494.9082,186.38086 511.47206,154.63342 532.58317,121.39869 558.11914,86.890625 583.6551,52.382556 581.893,23.465507 552.90625,0 Z m 532.20505,34.972656 c 31.7479,0 63.505,4.871978 98.1856,17.8125 46.2408,17.254034 69.5117,68.650384 69.5117,154.230464 0,85.58 -3.5246,228.90427 -10.4258,354.51368 h -107.7441 c -9.6628,-146.31422 -10.2377,-268.9212 -1.9551,-292.38672 19.325,-26.22612 29.2871,-54.56842 29.9766,-84.93555 0.6898,-30.36713 -6.5385,-48.92455 -21.7227,-55.82617 -15.1832,-6.90163 -33.1682,-6.90163 -53.873,0 -5.5212,-23.46551 -40.6953,-36.557744 -105.57036,-39.31836 16.97188,-46.066721 77.33166,-54.089844 103.61716,-54.089844 z m -93.62497,82.763674 c 57.52067,2.11363 83.90137,24.19829 79.07027,66.4707 h 20.6368 c 0,-22.08523 5.4649,-33.01758 16.5078,-33.01758 16.5632,0 24.9824,11.72591 24.9824,35.19141 0,23.46552 -11.7258,49.64799 -35.1914,78.63476 -1.3798,56.59326 -2.1719,100.18561 -2.1719,130.55274 -22.0852,8.28197 -42.011,3.96425 -59.9551,-12.59961 1.3802,-5.5213 1.3802,-18.6116 0,-39.31641 -1.3804,-20.70488 -19.7588,-28.5089 -54.957,-23.67773 -35.19827,4.83108 -49.26098,-6.71586 -42.35937,-34.32227 20.70455,-12.42296 27.93417,-21.01855 21.72265,-25.84961 -6.21142,-4.83115 -17.54152,-7.96144 -34.10546,-9.34179 0,-12.57942 -14.17227,-22.22479 -22.8086,-26.93555 15.1835,-35.88837 30.21682,-60.70456 45.40039,-74.50781 15.18358,-8.28198 30.82941,-8.46126 46.70313,-0.86914 15.87366,7.59175 32.67106,13.45477 50.61526,17.5957 v -12.59961 c -11.0426,0 -24.7096,-5.0714 -41.2735,-15.42383 -16.56384,-10.35245 -33.97374,-12.11452 -51.91793,-5.21289 l 12.59961,-14.55469 c 9.4897,-0.5172 18.28471,-0.51934 26.50195,-0.21679 z m -69.58399,138.12109 c 1.30179,0.0585 2.82122,0.38717 4.63282,0.9043 4.83116,1.38035 10.69407,2.35033 17.5957,3.04101 6.90164,0.69066 9.63424,1.08594 8.25391,1.08594 l -33.01758,1.95508 c -5.31097,-2.65145 -2.04603,-6.57782 1.30273,-6.95117 h 0.002 c 0.38766,-0.0429 0.79722,-0.0546 1.23046,-0.0352 z m 30.48243,11.33008 c -2.76069,1.38036 -6.85956,2.92562 -12.38086,4.99609 -5.52128,2.07045 -9.62223,3.83449 -12.38282,5.21485 -10.36484,0 -8.24582,-4.02056 -4.12695,-6.08008 z m 68.42573,146.8457 c 23.4655,24.84583 49.0754,33.26246 76.6817,24.98047 0,8.28199 1.9412,40.72314 6.082,97.31641 -60.7341,-4.14092 -98.6425,-16.65645 -113.82615,-37.36133 z m -45.61714,134.67969 c 28.98684,16.56388 60.06364,25.55525 93.19144,26.93555 -5.5212,5.52131 -10.5926,16.85144 -15.4239,34.10547 -28.7977,59.31015 -75.63124,109.31084 -114.91207,162.48437 1.38026,-73.15712 13.67904,-147.60761 37.14453,-223.52539 z m 219.61714,68.20899 v 244.3789 c 6.9015,277.44502 -38.059,417.57152 -134.6816,420.33202 H 577.66992 c -46.93104,5.5213 -73.6882,30.3395 -80.58984,74.5098 -11.04255,77.298 -29.81879,148.0434 -56.04492,212.2285 -26.22621,64.1852 -51.61706,137.0904 -76.46289,218.5293 l 1.95507,70.3828 c 33.12777,57.9737 25.50273,91.7817 -22.80859,101.4434 H 78.703125 l -1.955078,-2.1719 c 78.678453,-22.0853 138.274593,-48.8427 178.994143,-80.5899 40.71954,-31.7473 67.29783,-106.0208 79.7207,-222.6582 12.42296,-116.6372 31.77387,-237.017 58,-361.2461 1.38031,-71.7769 28.35633,-114.0028 80.80859,-126.4257 121.41731,-47.831 305.32386,-68.2343 461.60547,-80.8086 V 877.81055 c 35.88838,-6.90163 122.28145,-93.86958 258.93355,-260.88867 z m -540.45894,84.93554 c 126.98972,9.66222 207.69891,11.82011 242.20703,6.29883 l -4.12695,66.25391 c -34.50807,2.76069 -81.40972,9.98992 -140.76367,21.72265 -59.35387,11.73277 -104.31261,14.86307 -134.67969,9.3418 -20.70488,-22.08522 -46.88925,-35.17744 -78.63672,-39.31836 V 714.23828 Z M 1352.082,918.21484 c 37.2688,0.69065 55.8262,12.01834 55.8262,34.10352 v 279.57034 h -39.3184 v -147.0625 h -39.3164 V 1569.457 H 996.04688 v 374.7168 H 633.71484 V 1323.123 h 598.64456 c 26.8565,0 63.8945,-20.9532 63.8945,-51.3203 V 952.31836 c 0,-23.46544 18.5594,-34.7942 55.8281,-34.10352 z m -314.5449,692.73236 291.7363,0 v 333.2266 l -291.7359,0 z"
     id="path4"
     sodipodi:nodetypes="cssccsccccsccccsccccccscccccccccccsscccssscscccccssscsccccscsscsscscsccccscccccsccccscssscccccccscccsscccsscsccccccscccscsccccsscsccccccccccccccccccscccccssccccccccsccccsscccccccccssssccccc" />
  <path
     style="fill:#000000;stroke:none;stroke-width:1"
     d="m 944.56641,222.43945 c -0.99846,0 -2.54349,1.76827 -2.38672,6.29883 0.10975,3.17168 -0.97211,5.32057 -3.04102,6.29883 -4.92619,2.32929 -12.08634,-11.51172 -17.59375,-11.51172 -4.48136,0 -6.48294,4.12641 -6.30469,8.07422 9.22534,-6.15042 13.68795,10.03516 23.17969,10.03516 3.75308,0 9.875,-3.46715 9.875,-9.9668 0,-3.14938 -0.93056,-9.22852 -3.72851,-9.22852 z"
     id="path3"
     sodipodi:nodetypes="sssscsss" />
  <path
     style="fill:#000000;stroke:none;stroke-width:1"
     d="m 978.13867,151.34766 c -1.65815,-0.0946 -3.29159,-0.0749 -4.90039,0.0586 -5.85016,0.48496 -11.33159,2.41441 -16.50781,5.86523 l -14.55469,12.59961 v 10.20899 h 6.08203 c 20.70488,9.66233 43.57991,9.66233 68.42579,0 l 22.8086,6.30078 V 169.8711 h -22.8086 c -14.1159,-11.62494 -26.93784,-17.86145 -38.54493,-18.52343 z m -9.02734,8.0957 c -4.14092,5.52128 -4.14092,10.98844 0,16.50976 -5.52128,-2.76058 -10.41372,-4.70179 -14.55469,-6.08203 2.76069,-4.14105 7.65313,-7.6671 14.55469,-10.42773 z m 18.68164,1.95508 20.63673,14.55468 c -8.2819,1.3798 -15.90711,2.17188 -22.80861,2.17188 5.52127,-4.14093 6.31291,-9.825 2.17188,-16.72656 z"
     id="path1"
     sodipodi:nodetypes="scccccccccsscccccccc" />
</svg>
