<?xml version="1.0" encoding="UTF-8" standalone="no"?>
<svg
   width="800"
   height="1000"
   version="1.1"
   id="svg1"
   sodipodi:docname="136B9.svg"
   inkscape:version="1.4.2 (f4327f4, 2025-05-13)"
   xmlns:inkscape="http://www.inkscape.org/namespaces/inkscape"
   xmlns:sodipodi="http://sodipodi.sourceforge.net/DTD/sodipodi-0.dtd"
   xmlns="http://www.w3.org/2000/svg"
   xmlns:svg="http://www.w3.org/2000/svg">
  <defs
     id="defs1" />
  <sodipodi:namedview
     id="namedview1"
     pagecolor="#ffffff"
     bordercolor="#000000"
     borderopacity="0.25"
     inkscape:showpageshadow="2"
     inkscape:pageopacity="0.0"
     inkscape:pagecheckerboard="0"
     inkscape:deskcolor="#d1d1d1"
     inkscape:zoom="0.32669349"
     inkscape:cx="543.32273"
     inkscape:cy="806.56641"
     inkscape:window-width="1680"
     inkscape:window-height="998"
     inkscape:window-x="-8"
     inkscape:window-y="-8"
     inkscape:window-maximized="1"
     inkscape:current-layer="svg1"
     showguides="true">
    <sodipodi:guide
       position="0,1000"
       orientation="0,-1"
       id="guide2"
       inkscape:locked="false" />
    <sodipodi:guide
       position="800,0"
       orientation="0,-1"
       id="guide3"
       inkscape:locked="false" />
    <sodipodi:guide
       position="904.12239,32.86614"
       orientation="0,-1"
       id="guide4"
       inkscape:locked="false" />
  </sodipodi:namedview>
  <path
     id="path1"
     style="fill:#000000;stroke:none;stroke-width:52.9132"
     d="M 501.96484 0.0078125 C 499.47759 -0.075100149 496.74055 0.54651604 493.75586 1.8730469 C 487.78644 4.5261446 485.1336 7.0125381 485.79688 9.3339844 C 486.46013 11.655432 489.27941 12.650009 494.25391 12.318359 C 499.22846 11.986708 499.39487 13.480512 494.75195 16.796875 C 490.10908 20.113239 488.61526 28.402591 490.27344 41.667969 C 491.9316 54.933348 496.74191 62.230111 504.70117 63.556641 L 502.71094 68.53125 C 496.74154 76.490471 489.77762 87.434594 481.81836 101.36328 C 477.1755 109.98576 476.84267 115.12698 480.82227 116.78516 C 484.80189 118.44336 487.45474 120.26604 488.78125 122.25586 C 486.1282 123.58239 485.30004 125.40708 486.29492 127.72852 C 487.28983 130.04997 488.78166 131.21094 490.77148 131.21094 C 492.09801 131.21094 491.60074 132.2055 489.2793 134.19531 C 486.95788 136.18511 487.12429 137.84338 489.77734 139.16992 C 492.43044 140.49645 493.75586 144.80754 493.75586 152.10352 C 493.75586 153.56477 493.88503 154.88856 494.14258 156.07617 L 472.22656 206.36523 L 473.16211 206.36523 C 466.54232 211.21258 461.13629 217.66695 456.94531 225.72656 C 448.32278 242.30831 436.21768 259.05541 420.63086 275.96875 C 405.04402 292.88215 383.46273 328.25233 373.51367 348.15039 C 354.83783 336.32726 305.88169 316.47495 237.75 291.87891 C 233.99562 287.03124 226.4426 280.48632 219.41406 277.59961 L 225.0957 164.77148 L 201.27734 163.57227 L 195.83594 271.64062 L 168.80859 270.2793 C 167.68264 279.70891 170.93489 286.07073 178.56641 289.36133 C 177.71973 323.41084 182.31088 340.6366 192.33984 341.04102 L 160.80664 967.13477 L 132.69727 967.13477 L 132.69727 1000 L 765.09375 1000 L 765.09375 967.13477 L 644.48438 967.13477 C 664.71408 966.47142 671.51352 958.84384 664.88086 944.25195 C 658.91141 921.7008 658.24772 896.6226 662.89062 873.4082 C 678.80908 794.47913 676.48715 742.74409 655.92578 718.20312 L 655.92578 667.46289 L 649.95703 548.07422 C 655.26321 537.46189 657.58319 522.20669 656.91992 502.30859 C 656.25663 482.41052 652.27838 466.1607 644.98242 453.55859 C 637.68647 440.95647 634.03711 430.34518 634.03711 421.72266 C 634.70037 405.80422 639.01345 384.08232 646.97266 356.55664 C 654.93189 329.03093 662.89035 306.97628 670.84961 290.39453 L 670.84961 289.40039 C 684.77826 324.55368 703.01721 355.39504 725.56836 381.92578 C 716.94589 424.37503 714.79032 456.21285 719.10156 477.4375 C 723.41281 498.66212 721.92095 520.21762 714.625 542.10547 C 704.01268 544.75858 694.06308 552.38614 684.77734 564.98828 L 665.875 564.98828 L 665.875 586.87695 L 676.81836 586.87695 L 675.82422 596.82617 C 674.49765 612.74466 679.80333 615.39749 691.74219 604.78516 C 693.06872 621.36692 701.02915 626.67255 715.62109 620.70312 C 730.21311 614.73376 738.17159 605.11697 739.49805 591.85156 C 760.72269 597.82099 763.70637 623.52109 748.45117 668.95508 C 733.19596 714.38914 737.83986 738.10212 762.38086 740.0918 C 786.92181 742.0816 796.53857 713.39583 791.23242 654.0332 C 785.92626 594.67065 769.3456 564.98828 741.48828 564.98828 L 742.48242 541.11133 C 759.72742 501.97842 766.36044 450.24338 762.38086 385.90625 C 755.08487 356.05909 739.82961 313.27711 716.61523 257.5625 C 704.67634 215.77655 685.44096 194.88477 658.91016 194.88477 L 658.91016 120.26562 C 658.91016 47.30598 632.37991 10.826172 579.31836 10.826172 C 539.52223 10.826172 515.64482 24.092254 507.68555 50.623047 C 505.03249 45.316888 505.69616 39.513967 509.67578 33.212891 C 513.65539 26.911854 515.4781 20.942499 515.14648 15.304688 C 514.81484 9.6669154 512.65931 5.3558055 508.67969 2.3710938 C 506.68987 0.87873761 504.4521 0.090725149 501.96484 0.0078125 z M 578.32422 26.746094 C 622.76326 26.746094 644.98242 57.918298 644.98242 120.26562 L 644.98242 192.89453 L 604.19141 192.89453 L 604.19141 249.60352 L 581.30859 249.60352 L 581.30859 133.19922 C 593.91085 124.5767 600.04469 111.14617 599.71289 92.90625 C 599.38124 74.66636 589.59808 69.857984 570.36328 78.480469 C 563.73059 68.531418 546.48621 60.57294 518.62891 54.603516 C 527.25141 36.031978 547.15054 26.746094 578.32422 26.746094 z M 520.61914 73.257812 C 524.26712 73.423629 527.91453 74.50042 531.5625 76.490234 C 538.85846 80.469861 546.48605 83.122689 554.44531 84.449219 L 554.44531 80.470703 C 559.75144 83.123799 564.06256 87.102048 567.37891 92.408203 C 581.97087 85.112252 589.26758 86.770528 589.26758 97.382812 C 589.26758 107.99514 581.97087 115.95556 567.37891 121.26172 L 567.37891 264.52734 L 617.125 264.52734 L 617.125 207.81836 C 640.33943 207.81836 654.76456 214.1186 660.40234 226.7207 C 666.04015 239.32283 668.19571 251.5943 666.86914 263.5332 C 651.61395 294.04359 639.67525 324.22125 631.05273 354.06836 C 622.43024 383.91547 618.11914 404.80919 618.11914 416.74805 L 539.52148 430.67578 C 540.18474 417.41036 534.2154 398.01048 521.61328 372.47461 C 509.01114 346.93877 499.39441 306.97601 492.76172 252.58789 C 484.13923 230.69999 491.10313 217.76671 513.6543 213.78711 C 536.20547 209.80749 546.81873 201.18532 545.49219 187.91992 C 544.82889 162.05241 537.03486 150.77737 522.11133 154.09375 C 507.18774 157.41006 501.05198 152.10247 503.70508 138.17383 C 513.6541 133.53095 517.137 129.88354 514.15234 127.23047 C 511.16761 124.57738 506.02646 123.25195 498.73047 123.25195 C 499.39374 117.94578 496.07721 113.96557 488.78125 111.3125 C 496.07721 94.067503 503.04308 82.128782 509.67578 75.496094 C 513.32377 73.837912 516.97116 73.091996 520.61914 73.257812 z M 520.98047 76.693359 C 518.37662 76.641542 515.93428 77.236835 513.6543 78.480469 L 505.69531 85.445312 L 506.68945 90.419922 L 509.67578 89.423828 C 518.96154 94.729987 529.242 95.062776 540.51758 90.419922 L 551.46094 93.404297 L 551.46094 86.439453 L 540.51758 86.439453 C 533.22161 80.055475 526.70894 76.807357 520.98047 76.693359 z M 519.625 81.464844 C 517.63517 84.117906 517.63517 86.439892 519.625 88.429688 C 516.9719 87.766422 514.64997 86.771844 512.66016 85.445312 C 513.9867 83.455516 516.30863 82.128109 519.625 81.464844 z M 527.58398 82.460938 L 536.53711 88.429688 C 533.22077 89.092953 529.57338 89.423828 525.59375 89.423828 C 528.9101 87.434033 529.57376 85.113998 527.58398 82.460938 z M 508.15234 109.76562 C 508.00725 109.76046 507.85137 109.77884 507.68555 109.82031 C 506.35902 110.15195 505.86169 110.98013 506.19336 112.30664 C 506.52498 113.63319 506.0277 114.62775 504.70117 115.29102 C 503.37461 115.95431 502.04724 115.29259 500.7207 113.30273 C 499.39418 111.31295 498.39958 110.31641 497.73633 110.31641 C 496.40979 110.31641 495.57971 110.64926 495.24805 111.3125 C 494.91641 111.97577 495.08279 112.97034 495.74609 114.29688 C 496.40935 112.30707 497.73677 112.80436 499.72656 115.78906 C 501.71635 118.77378 503.87187 119.76834 506.19336 118.77344 C 508.51479 117.77855 509.67578 115.95585 509.67578 113.30273 C 509.67578 110.98117 509.168 109.80178 508.15234 109.76562 z M 496.00195 125.09961 C 496.7015 125.11127 497.61121 125.49013 498.73047 126.23633 C 501.38353 126.89958 504.36919 127.23047 507.68555 127.23047 C 511.00193 127.23047 512.32733 127.56329 511.66406 128.22656 L 495.74609 128.22656 C 494.41955 127.56329 494.0887 126.7332 494.75195 125.73828 C 495.04215 125.303 495.45786 125.09054 496.00195 125.09961 z M 510.66992 130.21484 C 510.00668 130.8781 508.51479 131.70821 506.19336 132.70312 C 503.87187 133.69804 501.38353 134.52619 498.73047 135.18945 C 497.40394 135.18945 496.57576 134.85858 496.24414 134.19531 C 495.91248 133.53208 496.07892 132.86839 496.74219 132.20508 L 510.66992 130.21484 z M 525.59375 164.04297 L 527.58398 186.92578 C 526.95109 190.09002 518.01547 193.10249 500.77734 195.96484 L 509.89258 164.36328 C 514.24549 164.53158 519.47947 164.42511 525.59375 164.04297 z M 478.83203 283.43164 C 482.81166 320.57471 491.26941 352.08037 504.20312 377.94922 C 517.1369 403.81671 523.60352 426.03588 523.60352 444.60742 L 409.18945 667.46484 L 445.00586 666.4707 C 433.73028 698.30766 428.75551 726.49618 430.08203 751.03711 C 414.82685 806.75175 404.21552 847.54266 398.24609 873.41016 C 390.9501 896.62455 381.99511 910.88521 371.38281 916.19141 C 360.77051 921.49752 340.54048 929.78886 310.69336 941.06445 C 294.11162 945.04402 284.6613 949.18873 282.33984 953.5 C 280.01841 957.81115 283.66581 961.6249 293.2832 964.94141 C 295.90068 965.84393 298.78937 966.57613 301.94727 967.13477 L 184.68359 967.13477 L 216.32227 338.96289 C 223.46502 336.96991 230.15662 332.21406 236.81055 324.9375 C 263.87918 345.25326 292.26029 359.43008 318.48438 375.43164 C 344.70847 391.43314 374.70061 396.81096 387.30273 398.80078 C 437.71121 348.39229 468.21971 302.66644 478.83203 283.43164 z M 619.11523 437.64062 C 621.10506 446.92637 625.91344 457.87051 633.54102 470.47266 C 641.16862 483.07479 640.67135 509.27415 632.04883 549.07031 L 637.02344 646.57031 L 442.02148 646.57031 L 540.51758 453.55859 L 619.11523 437.64062 z M 521.61328 667.46289 L 587.27734 667.46289 C 589.26718 681.39153 595.23649 698.30501 605.18555 718.20312 C 613.14475 794.47911 618.45045 845.88326 621.10352 872.41406 C 623.09332 896.955 619.94318 915.56456 611.65234 923.85547 C 603.36144 932.14652 587.27805 937.61857 563.40039 940.27148 C 548.80844 949.5572 541.18085 956.52119 540.51758 961.16406 C 540.10499 964.05221 541.74565 966.04319 545.43945 967.13477 L 404.70898 967.13477 C 413.22215 964.32438 417.03692 957.62254 416.1543 947.03125 C 416.81762 929.78631 422.45604 913.53649 433.06836 898.28125 C 470.21142 830.62778 487.45581 777.23447 484.80273 738.10156 C 484.80273 727.48927 489.44472 715.88146 498.73047 703.2793 C 508.01625 690.6772 515.64387 678.73847 521.61328 667.46289 z " />
</svg>
