<?xml version="1.0" encoding="UTF-8" standalone="no"?>
<svg
   width="900"
   height="1000"
   id="svg3902"
   version="1.1"
   inkscape:version="1.4.2 (f4327f4, 2025-05-13)"
   sodipodi:docname="136CB.svg"
   xmlns:inkscape="http://www.inkscape.org/namespaces/inkscape"
   xmlns:sodipodi="http://sodipodi.sourceforge.net/DTD/sodipodi-0.dtd"
   xmlns="http://www.w3.org/2000/svg"
   xmlns:svg="http://www.w3.org/2000/svg"
   xmlns:rdf="http://www.w3.org/1999/02/22-rdf-syntax-ns#"
   xmlns:cc="http://creativecommons.org/ns#"
   xmlns:dc="http://purl.org/dc/elements/1.1/">
  <metadata
     id="metadata3912">
    <rdf:RDF>
      <cc:Work
         rdf:about="">
        <dc:format>image/svg+xml</dc:format>
        <dc:type
           rdf:resource="http://purl.org/dc/dcmitype/StillImage" />
      </cc:Work>
    </rdf:RDF>
  </metadata>
  <defs
     id="defs3910" />
  <sodipodi:namedview
     pagecolor="#ffffff"
     bordercolor="#666666"
     borderopacity="1"
     objecttolerance="10"
     gridtolerance="10"
     guidetolerance="10"
     inkscape:pageopacity="0"
     inkscape:pageshadow="2"
     inkscape:window-width="1680"
     inkscape:window-height="998"
     id="namedview3908"
     showgrid="false"
     fit-margin-top="0"
     fit-margin-left="0"
     fit-margin-right="0"
     fit-margin-bottom="0"
     inkscape:zoom="0.3775"
     inkscape:cx="798.6755"
     inkscape:cy="698.01324"
     inkscape:window-x="-8"
     inkscape:window-y="-8"
     inkscape:window-maximized="1"
     inkscape:current-layer="svg3902"
     inkscape:showpageshadow="2"
     inkscape:pagecheckerboard="0"
     inkscape:deskcolor="#d1d1d1"
     showguides="true">
    <sodipodi:guide
       position="737.68359,983.57227"
       orientation="0,-1"
       id="guide3"
       inkscape:locked="false" />
    <sodipodi:guide
       position="0,0"
       orientation="0,-1"
       id="guide4"
       inkscape:locked="false" />
    <sodipodi:guide
       position="469.30532,656.98225"
       orientation="0.8202838,0.57195672"
       id="guide11"
       inkscape:locked="false" />
    <sodipodi:guide
       position="417.27539,570.94336"
       orientation="-0.69543847,0.71858565"
       id="guide12"
       inkscape:locked="false" />
  </sodipodi:namedview>
  <path
     id="path5"
     style="fill:#000000;stroke:none;stroke-width:0.999996"
     d="m 623.91079,1.7e-4 c -3.46931,0 -7.23312,0.91504744 -11.29883,2.6933594 -8.87061,3.9008016 -12.95383,7.6267326 -12.24414,11.1718746 0.59138,2.982968 3.52159,4.423828 8.79492,4.423828 1.0544,0 2.20727,-0.05735 3.44922,0 h 2.59765 c 4.81757,0 4.31389,2.005338 -1.52929,5.992188 -6.74171,4.589188 -8.88038,16.133629 -6.39649,34.587891 2.42709,18.029752 9.42379,27.934336 20.99805,29.701171 -0.0861,0.573653 -0.15793,0.798385 -0.23828,1.142579 l -3.19141,7.449218 c -8.51581,10.646911 -18.45817,25.547201 -29.8125,44.707031 -6.38695,12.06382 -6.74533,19.1667 -1.06836,21.29492 5.6774,2.12251 9.9387,4.98965 12.77735,8.51758 -12.44603,3.59333 -1.73026,11.72656 2.65429,11.72656 -2.35884,1.78322 -9.98076,8.21134 -2.65429,11.87305 4.25817,2.12249 6.39648,7.8109 6.39648,17.03516 l -69.66406,48.33007 17.97265,26.36914 77.07813,-57.90234 c 7.15331,-0.004 14.31392,0.14373 21.44141,-0.57226 v 0.33203 l 3.1914,30.86133 c -52.20575,10.15253 -104.9105,27.10122 -127.19336,55.27539 -5.5742,7.04439 -8.294,10.67373 -17.51562,20.24218 l -21.26172,-19.24023 c -6.77522,-24.27907 -14.76577,-47.36686 -23.96875,-69.26563 -9.2348,-21.53136 -39.57079,-43.04789 -91.00781,-64.54297 -7.10816,0.86332 -12.01056,6.1774 -14.70899,15.9375 -2.2991,9.42466 -1.03134,13.97622 3.8086,13.65626 15.94188,3.97574 30.51191,10.97779 43.70703,21.00781 12.82781,9.99809 23.86792,27.79966 33.11914,53.40429 -23.67366,-8.71911 -39.49834,-20.45612 -47.4707,-35.21484 -8.3717,-14.42326 -16.8034,-19.59951 -25.30079,-15.52539 10.80194,37.58462 42.11182,73.43471 93.9336,107.54883 l 15.93164,23.45117 -67.96094,62.58789 c -31.93436,-39.74233 -75.85357,-81.37944 -132.4375,-122.91797 -6.77522,-24.27907 -14.76577,-47.36685 -23.96875,-69.26562 -9.2348,-21.53136 -39.57079,-43.04594 -91.00781,-64.54102 -7.10816,0.86331 -12.01056,6.17544 -14.70899,15.93555 -2.2991,9.42466 -1.03134,13.97622 3.8086,13.65625 15.94188,3.97574 30.51191,10.97779 43.70703,21.00781 12.82781,9.99809 23.86792,27.80162 33.11914,53.40625 -23.67366,-8.71911 -39.49833,-20.45808 -47.4707,-35.2168 -8.3717,-14.42326 -16.80535,-19.59951 -25.30274,-15.52539 10.80194,37.58462 42.11377,73.43471 93.93555,107.54883 35.3191,48.47241 83.05487,125.08134 156.06836,188.90625 39.13545,-21.64373 83.09726,-55.63586 117.75195,-90.42187 23.80672,32.58319 44.81591,68.29934 77.14063,95.58203 9.79226,43.90699 17.46421,80.8429 6.19726,152.0039 L 475.1979,572.43181 c -27.75848,-24.6925 -52.18496,-37.03516 -73.19141,-37.03516 -58.89304,0.7369 -84.88888,24.62701 -78.13672,71.80079 l 30,254.81445 c -30.74391,26.34416 -44.33918,51.75003 -40.87891,76.22656 l 7.14063,12.31055 -6.92188,-0.2168 c -20.25622,4.05382 -38.8386,9.68779 -55.71875,17.05859 -16.50509,7.00257 -33.12176,9.79059 -50.00195,8.31641 -16.88019,-1.10566 -28.74401,6.9713 -35.49609,24.293 h 276.27929 l -0.32812,-10.68753 c 31.61601,-7.12122 70.19217,-17.77959 115.7207,-32.07227 107.3577,-46.05337 165.89596,-69.09961 175.72461,-69.09961 15.87682,19.31279 15.87682,45.71877 0,79.14454 -25.70545,8.91367 -34.70499,18.53439 -27.14453,28.93359 16.6329,0.74295 33.94679,-0.2075 52.0918,-2.80469 18.14499,-2.59994 31.8085,-25.65014 40.88086,-69.10351 9.07263,-43.45389 14.14129,-74.05758 15.27539,-91.88477 1.13428,-17.82714 -6.55459,-27.11263 -23.1875,-27.85547 15.12072,-25.25515 15.80824,-65.75887 2.19922,-121.46875 -2.77539,-21.45999 -3.74445,-42.4191 -3.28907,-63.10156 4.71539,-53.51948 12.1126,-94.76189 18.64454,-124.03711 9.58028,-42.9318 18.27982,-73.96323 26.08593,-93.12305 23.41869,-47.54967 28.02305,-86.93455 13.83008,-118.1582 V 168.64079 c 0,-101.484022 -39.0301,-152.212886 -117.0918,-152.212886 -56.29257,0 -91.44476,19.438702 -105.45703,58.332032 l 1.14258,-5.085938 c -4.25824,-5.67911 -3.3776,-13.140974 2.6543,-22.365234 6.03203,-9.229996 8.8744,-17.565887 8.51953,-25.017578 -0.35563,-7.451685 -3.55565,-13.4757572 -9.58789,-18.087891 -3.26748,-2.4666856 -6.94463,-3.74023437 -11.04492,-3.74023438 z m 113.77343,37.279297 c 64.57835,0 96.86524,43.631714 96.86524,130.917973 v 101.125 h -59.60547 v 78.77929 H 740.87368 V 185.23455 c 18.45101,-11.35823 27.51296,-29.61789 27.1582,-54.8125 -0.24094,-17.03164 -6.89242,-25.55469 -19.94922,-25.55469 -6.25256,0 -13.98228,1.93916 -23.17383,5.8457 C 715.68335,96.520998 690.4963,84.814278 649.33657,75.590014 661.40064,50.03974 690.84715,37.279467 737.68422,37.279467 Z m -86.87304,64.638673 c 5.56377,0 11.28002,1.49481 17.14648,4.53515 10.99963,5.67911 22.18072,9.21602 33.53516,10.63868 v -4.24024 c 7.80614,3.55663 14.54934,8.87078 20.22656,15.9668 8.23191,-3.95817 14.82256,-5.95508 19.76172,-5.95508 7.40874,0 11.09961,4.4649 11.09961,13.40234 0,14.90337 -10.28147,25.90594 -30.86133,33.00196 v 200.1289 h 1.06641 c -25.54771,19.87116 -55.71138,46.11349 -90.48438,78.75977 -7.48454,-10.7731 -16.09145,-21.43963 -25.83008,-32.02344 -1.53163,-20.26125 -1.44537,-41.16264 0.27735,-62.70312 -23.41852,-39.74232 3.90693,-65.64712 81.96875,-77.71094 h 1.06836 c -1.29588,-40.82077 -11.17471,-61.22656 -29.62696,-61.22656 -1.75764,0 -3.6011,-0.004 -5.51367,0.57031 -19.0065,3.70081 -31.64752,-0.59753 -27.67187,-21.27539 14.1929,-7.09602 19.33471,-12.5992 15.43164,-16.5 -3.90306,-3.90081 -11.16755,-5.86328 -21.8125,-5.86328 0.70969,-6.3847 -4.25183,-11.71033 -14.89649,-15.9668 10.64477,-23.41631 20.928,-40.08199 30.86328,-50.01758 4.63622,-2.35195 9.3837,-3.50196 14.25196,-3.50195 z m 1.56836,6.01172 c -4.06938,0 -7.9271,0.98536 -11.56055,2.76367 l -9.58789,8.51562 v 7.44922 l 5.32812,-1.08593 c 16.56074,8.32958 33.36593,3.97221 43.64063,0 l 17.0332,5.32812 v -9.58789 l -15.96484,-1.08789 c -14.83267,-11.46105 -22.67365,-12.04589 -28.88867,-12.29492 z m -1.97266,4.90234 v 0.0176 c -2.12884,4.24499 -2.12884,7.79911 0,10.63867 l -9.58789,-3.20898 c 1.41924,-3.55663 4.62029,-6.03037 9.58789,-7.44727 z m 11.70508,2.13867 13.82812,8.51953 c -4.96778,0.68838 -10.28945,1.08594 -15.96679,1.08594 4.25823,-2.1225 4.97761,-5.32336 2.13867,-9.56836 z m -28.36328,37.5625 c -1.24906,0.0112 -2.51758,2.04581 -2.51758,3.95703 0,3.97687 -4.12889,6.93727 -7.98242,0.86524 -4.31064,-6.96941 -11.303,-2.59262 -9.05274,1.95508 2.21772,-2.97977 4.75319,-2.09049 7.4668,1.60351 6.1885,8.52641 15.03005,2.96326 14.36133,-3.72461 -0.34503,-3.44979 -1.30391,-4.66496 -2.27539,-4.65625 z m -18.07813,22.11719 c 5.49056,1.27369 11.00552,2.21251 16.63086,2.63672 4.96783,0.57364 7.08662,0.85777 6.37695,1.60351 l -23.41211,1.0879 c -2.22856,-2.25194 -2.53564,-5.32813 0.4043,-5.32813 z m 20.88867,7.39258 c -1.07714,2.17667 -4.37105,3.48185 -18.17773,6.93164 -1.20934,0 -4.15877,-1.48809 -0.97656,-4.70117 z M 833.4811,348.10173 c 0.70967,0.68838 -7.09403,18.97672 -23.41602,54.8125 -15.76149,34.61072 -36.43351,113.92661 -44.2539,230.25782 -30.77113,10.1911 -79.69361,27.483 -130.77149,50.59374 8.81177,-63.09257 9.31878,-105.94811 -2.6289,-148.36718 C 692.6512,503.97991 759.6719,441.54897 833.4811,348.10173 Z M 578.00454,374.7072 c -0.16062,4.41709 -0.20349,8.93901 -0.12891,13.47656 -2.02612,-1.77831 -4.08243,-3.60448 -6.17578,-5.38281 2.11343,-2.63876 4.21026,-5.34598 6.30469,-8.09375 z M 398.04946,601.15251 h 45.60742 l 148.4707,105.8125 c -60.68486,31.99374 -116.82626,70.51487 -172.86718,109.15625 2.90922,-94.74177 -3.48888,-183.49383 -21.21094,-214.96875 z m 371.07617,59.28125 2.02344,26.01563 c 15.12081,50.51031 13.6413,91.01198 -4.50391,121.4668 -49.89873,28.2263 -110.03,46.01927 -180.3418,53.44726 -70.31181,7.42798 -129.99008,33.04978 -179.13281,76.875 27.97355,-66.85198 52.29095,-110.26672 73.08203,-130.32226 32.63855,-31.48393 161.27653,-114.85413 288.87305,-147.48243 z" />
</svg>
