<?xml version="1.0" encoding="UTF-8" standalone="no"?>
<svg
   width="1500"
   height="1000"
   version="1.1"
   id="svg1"
   sodipodi:docname="136C0.svg"
   inkscape:version="1.4.2 (f4327f4, 2025-05-13)"
   xmlns:inkscape="http://www.inkscape.org/namespaces/inkscape"
   xmlns:sodipodi="http://sodipodi.sourceforge.net/DTD/sodipodi-0.dtd"
   xmlns="http://www.w3.org/2000/svg"
   xmlns:svg="http://www.w3.org/2000/svg">
  <defs
     id="defs1" />
  <sodipodi:namedview
     id="namedview1"
     pagecolor="#ffffff"
     bordercolor="#000000"
     borderopacity="0.25"
     inkscape:showpageshadow="2"
     inkscape:pageopacity="0.0"
     inkscape:pagecheckerboard="0"
     inkscape:deskcolor="#d1d1d1"
     inkscape:zoom="0.24772308"
     inkscape:cx="1047.5407"
     inkscape:cy="115.04782"
     inkscape:window-width="1680"
     inkscape:window-height="998"
     inkscape:window-x="-8"
     inkscape:window-y="-8"
     inkscape:window-maximized="1"
     inkscape:current-layer="svg1" />
  <path
     id="path1"
     style="fill:#000000;stroke:none;stroke-width:35.1334"
     d="M 763.51562 0.025390625 C 755.93894 -0.16545829 748.18739 0.71265563 740.36523 2.8417969 C 719.50616 8.5195068 698.6586 22.518715 677.47656 45.960938 L 696.02539 62.722656 C 715.05057 41.667432 732.0905 31.00451 746.93164 26.964844 C 761.77278 22.925178 774.92464 24.937577 788.52734 31.542969 C 811.23863 42.571434 833.81731 67.835453 854.30664 96.474609 C 852.53577 96.899314 850.81579 97.356613 849.14844 97.845703 C 819.78684 106.45843 800.60382 119.37805 791.59961 136.60352 C 782.59539 153.82895 776.91913 166.74859 774.57031 175.36133 L 771.04688 185.93164 C 761.65117 198.45923 751.08055 214.90045 739.33594 235.25781 C 733.85536 248.56838 734.24793 256.00634 740.51172 257.57227 C 746.77554 259.13821 752.25548 261.48722 756.95312 264.61914 C 751.47214 267.75106 749.31949 270.49287 750.49414 272.8418 C 751.66208 275.17766 754.57259 276.73807 759.22461 277.52539 C 758.67029 277.98617 757.32545 279.16561 755.19141 281.0625 C 751.66802 284.1944 752.25527 286.93428 756.95312 289.2832 C 761.65095 291.63212 764.39082 296.72104 765.17383 304.55078 C 765.17383 305.92965 765.26968 307.2238 765.42773 308.45898 L 765.25391 308.37305 C 769.00704 343.99143 759.00787 364.89815 725.44336 398.35352 C 703.77032 395.45968 691.86088 400.01266 689.7168 412.01172 C 687.57144 424.01069 693.10236 431.12957 706.31055 433.36719 C 758.19178 440.99733 788.32135 370.21148 800.4082 325.69141 C 809.80394 325.69141 818.02555 324.51689 825.07227 322.16797 C 834.46816 344.87421 832.90259 364.45009 820.375 380.89258 C 793.75386 412.21158 772.80906 449.79404 757.54102 493.64062 C 742.27296 537.48723 659.08095 559.41016 507.9668 559.41016 C 366.24828 559.41016 279.53472 567.43535 247.82422 583.48633 C 216.11374 599.53733 195.55975 633.40179 186.16406 685.07812 C 158.75993 680.38029 145.05859 648.66842 145.05859 589.94531 L 145.05859 476.02344 C 145.05859 447.0534 126.26639 432.56836 88.683594 432.56836 C 51.100794 432.56836 32.310547 447.0534 32.310547 476.02344 L 32.310547 633.40039 L -1.75 728.5332 L 69.892578 728.5332 L 69.892578 904.70117 L 35.833984 904.70117 L 35.833984 936.41211 L 169.72266 936.41211 L 194.38672 999.83398 L 273.07422 999.83398 L 300.08789 936.41211 L 868.52734 936.41211 L 894.36523 999.83398 L 973.05469 999.83398 L 1000.0664 936.41211 L 1135.1309 936.41211 L 1135.1309 903.52734 L 1063.4883 903.52734 L 1063.4883 716.78711 L 1135.1309 716.78711 L 1135.1309 693.29883 L 1016.5098 693.29883 C 1033.7352 669.8096 1042.3477 635.35788 1042.3477 589.94531 L 1074.0586 589.94531 C 1076.4075 275.97231 1046.8503 113.31019 985.38672 101.95703 C 976.86453 100.38287 968.65112 99.000863 960.74609 97.810547 C 979.5193 65.706547 1001.1871 43.714188 1024.6309 34.296875 C 1051.3469 23.565068 1081.8784 27.077323 1120.7285 53.699219 L 1134.8613 33.076172 C 1105.0799 12.668541 1076.3126 3.2771918 1049.8496 3.9765625 C 1037.821 4.2944583 1026.2679 6.6988411 1015.3125 11.099609 C 981.91649 24.514768 955.44145 54.604501 933.99023 94.392578 C 914.4112 92.383388 897.13001 91.803359 882.14648 92.652344 C 859.14254 58.645937 832.78159 25.238734 799.44922 9.0527344 C 788.28527 3.6315865 776.14347 0.34347214 763.51562 0.025390625 z M 908.75195 118.25195 C 927.54335 118.74131 949.17463 120.94447 973.64258 124.85938 C 1022.5785 132.6891 1046.654 277.92997 1045.8711 560.58398 L 991.8457 560.58398 C 991.8457 495.59702 990.86777 455.66556 988.91016 440.78906 C 986.95272 425.91256 972.27131 400.6625 944.86719 365.03711 C 917.46315 329.41175 908.85064 299.26721 919.0293 274.60352 C 929.208 249.9398 934.88393 229.38583 936.05859 212.94336 C 937.233 196.50088 931.36049 185.73581 918.44141 180.64648 C 905.52233 175.55718 894.36646 174.57707 884.9707 177.70898 C 879.48987 162.04946 854.04144 154.2207 808.62891 154.2207 C 817.24162 138.56121 834.66294 127.79416 860.89258 121.92188 C 874.00741 118.9857 889.96055 117.7626 908.75195 118.25195 z M 816.72266 173.92969 C 857.22936 172.73075 876.45565 186.51861 874.40039 215.29297 L 881.44727 214.11719 C 880.66427 200.02363 884.57872 192.58573 893.19141 191.80273 C 911.98284 191.01976 919.42071 199.04495 915.50586 215.87891 C 911.591 232.71289 905.71849 247.78514 897.88867 261.0957 C 882.2292 300.24446 888.10155 336.26149 915.50586 369.14648 C 894.36549 375.41027 873.61708 374.62861 853.25977 366.79883 C 856.39254 366.79883 857.36997 356.03179 856.19531 334.5 C 855.0209 312.96819 841.71041 304.35574 816.26367 308.66211 C 790.81701 312.96848 779.65925 305.72694 782.79102 286.93555 C 798.45054 278.32284 803.932 272.45026 799.23438 269.31836 C 794.53654 266.18644 785.92408 264.2283 773.39648 263.44531 C 773.39648 257.96449 767.13308 252.87558 754.60547 248.17773 C 765.56709 223.12251 776.13577 205.50483 786.31445 195.32617 C 797.27608 189.06239 808.8248 188.47512 820.96094 193.56445 C 833.09703 198.65375 845.82227 201.59007 859.13281 202.37305 L 857.95703 195.32617 C 850.12727 195.32617 840.14389 192.38989 828.00781 186.51758 C 815.87161 180.64528 803.14843 180.45082 789.83789 185.93164 L 798.06055 175.36133 C 804.71583 174.57835 810.93598 174.10096 816.72266 173.92969 z M 807.89648 196.06055 C 802.61141 196.06054 797.76556 197.38091 793.36133 200.02344 L 781.61719 209.41992 L 782.79102 216.4668 L 787.49023 215.29297 C 803.14975 221.55677 819.98379 220.77312 837.99219 212.94336 L 855.60742 216.4668 L 855.60742 207.07031 L 837.99023 207.07031 C 826.73498 199.72994 816.70495 196.06055 807.89648 196.06055 z M 802.75781 202.37305 C 799.62605 205.50496 799.62605 209.02846 802.75781 212.94336 C 798.84297 211.37738 794.92837 210.20292 791.01367 209.41992 C 792.57964 206.288 796.49404 203.93899 802.75781 202.37305 z M 814.50195 202.37305 L 830.94531 210.59375 C 825.46448 212.15974 819.98268 212.94336 814.50195 212.94336 C 818.41666 210.59442 818.41666 207.0709 814.50195 202.37305 z M 786.05273 245.17773 C 785.94609 245.18348 785.83859 245.20546 785.72852 245.24219 C 784.55386 245.63367 784.15948 246.80622 784.55273 248.76367 C 784.94445 250.72113 784.16269 252.28842 782.20508 253.46289 C 780.24763 254.63736 777.89874 253.6573 775.1582 250.52539 C 772.41775 247.39372 770.26315 246.21895 768.69727 247.00195 C 767.13139 247.00195 766.15496 247.39474 765.76172 248.17773 C 765.37102 248.96074 765.17383 250.13524 765.17383 251.70117 C 767.5228 250.13524 770.45894 251.11332 773.98242 254.63672 C 777.50586 258.16009 781.02926 258.94378 784.55273 256.98633 C 788.07621 255.0289 789.44701 252.48348 788.66406 249.35156 C 787.95452 246.51326 787.08366 245.12215 786.05273 245.17773 z M 770.57031 268.62109 C 771.47562 268.59662 772.41781 268.63266 773.39648 268.73047 C 777.31132 269.12198 781.81301 269.51257 786.90234 269.9043 C 791.99161 270.29593 794.14428 270.49219 793.36133 270.49219 L 767.52344 272.8418 C 762.04234 272.8418 760.67157 272.05812 763.41211 270.49219 C 765.46741 269.31759 767.85439 268.6945 770.57031 268.62109 z M 793.36133 274.01562 C 791.01241 275.58156 788.07621 277.14694 784.55273 278.71289 C 781.0294 280.27882 778.09296 281.45335 775.74414 282.23633 C 771.8295 282.23633 769.67839 281.84549 769.28516 281.0625 C 768.89342 280.27952 769.481 279.10498 771.04688 277.53906 L 793.36133 274.01562 z M 922.55273 392.63672 C 949.17387 413.77705 962.48438 438.04897 962.48438 465.45312 L 962.48438 589.94531 L 1008.2891 589.94531 C 1008.2891 635.35788 998.50011 669.8096 978.92578 693.29883 L 219.04883 692.125 C 224.52964 649.84434 238.62383 622.24329 261.33008 609.32422 C 284.03638 596.40515 371.33721 589.94531 523.23438 589.94531 C 679.8294 589.94531 766.74134 565.08612 783.9668 515.36719 C 800.42723 467.85643 823.19877 427.9497 849.73633 394.98438 C 873.2256 401.24815 897.49747 400.46645 922.55273 392.63672 z M 89.271484 456.64453 C 110.02029 456.25305 120.39453 462.71287 120.39453 476.02344 L 120.39453 589.94531 C 120.39453 674.50656 152.88807 717.17989 217.875 717.96289 L 1030.6035 717.96289 L 1030.6035 904.70117 L 101.60352 904.70117 L 101.60352 551.18945 L 79.289062 551.18945 L 79.289062 702.69531 L 34.658203 702.69531 L 56.974609 633.40039 L 56.974609 476.02344 C 57.757585 463.49585 68.522634 457.03624 89.271484 456.64453 z M 209.6543 936.41211 L 260.15625 936.41211 L 244.88867 973.99609 L 224.92188 973.99609 L 209.6543 936.41211 z M 909.63281 936.41211 L 960.13477 936.41211 L 944.86719 973.99609 L 924.90234 973.99609 L 909.63281 936.41211 z " />
</svg>
