<?xml version="1.0" encoding="UTF-8" standalone="no"?>
<svg
   width="1500"
   height="1000"
   version="1.1"
   id="svg1"
   sodipodi:docname="136C6.svg"
   inkscape:version="1.4.2 (f4327f4, 2025-05-13)"
   xmlns:inkscape="http://www.inkscape.org/namespaces/inkscape"
   xmlns:sodipodi="http://sodipodi.sourceforge.net/DTD/sodipodi-0.dtd"
   xmlns="http://www.w3.org/2000/svg"
   xmlns:svg="http://www.w3.org/2000/svg">
  <defs
     id="defs1" />
  <sodipodi:namedview
     id="namedview1"
     pagecolor="#ffffff"
     bordercolor="#000000"
     borderopacity="0.25"
     inkscape:showpageshadow="2"
     inkscape:pageopacity="0.0"
     inkscape:pagecheckerboard="0"
     inkscape:deskcolor="#d1d1d1"
     showguides="true"
     inkscape:zoom="0.35033333"
     inkscape:cx="144.14843"
     inkscape:cy="381.06565"
     inkscape:window-width="1680"
     inkscape:window-height="998"
     inkscape:window-x="-8"
     inkscape:window-y="-8"
     inkscape:window-maximized="1"
     inkscape:current-layer="svg1" />
  <path
     id="path1"
     style="fill:#000000;stroke:none;stroke-width:33.6639"
     d="M 1100.9453 0 C 1044.8534 0 991.97938 20.689067 942.32422 62.068359 C 842.09431 125.51667 808.99259 175.17313 843.01562 211.03516 C 882.55581 241.38002 929.9115 201.37998 985.08398 91.035156 C 1025.5437 58.851228 1064.1638 42.757812 1100.9453 42.757812 C 1186.4626 42.757812 1229.2227 93.792334 1229.2227 195.86133 C 1210.8319 362.29816 1188.4079 462.06836 1156.1191 462.06836 L 1138.4023 462.06836 C 1143.6498 455.36025 1145.7094 445.0541 1144.582 431.14844 C 1120.5422 432.52213 1099.0779 428.05861 1080.1895 417.75586 C 1061.3011 407.45309 1052.7165 393.54402 1054.4336 376.0293 C 1056.1508 358.51457 1048.4232 349.92788 1031.252 350.27148 C 1014.0807 350.61492 1002.7467 360.05854 997.25195 378.60352 C 901.09276 360.05854 838.9324 360.05854 810.77148 378.60352 C 782.61058 379.97723 754.27775 376.37276 725.77344 367.78711 C 697.26912 359.20145 676.836 351.47399 664.47266 344.60547 C 617.07993 318.50511 576.21172 314.03965 541.86914 331.21094 C 451.89159 305.79744 392.13618 293.77865 362.60156 295.15234 C 333.06699 296.52606 314.52219 300.98956 306.9668 308.54492 C 295.29034 305.7975 288.42188 298.5866 286.36133 286.91016 C 311.08798 253.25441 311.77481 217.88098 288.42188 180.79102 C 270.56372 152.6301 248.92719 140.43908 223.51367 144.2168 C 198.10016 147.99447 175.26211 159.67084 155 179.24609 C 134.73788 198.82136 130.44657 228.52785 142.12305 268.36523 C 140.74936 280.04171 141.0918 294.12103 143.15234 310.60547 C 144.52604 322.28196 147.27343 327.60646 151.39453 326.57617 C 155.51564 325.54588 159.63672 325.37368 163.75781 326.06055 C 161.69725 330.18165 161.52505 332.75682 163.24219 333.78711 C 164.95933 334.81737 167.19205 334.98961 169.93945 334.30273 C 169.25258 338.42387 170.4541 340.65656 173.54492 341 C 176.63577 341.3434 180.41439 344.77761 184.87891 351.30273 C 189.34344 357.8278 194.15134 360.05858 199.30273 357.99805 C 204.45413 355.93749 214.24216 350.44275 228.66602 341.51367 C 246.7967 358.92273 253.97152 373.60345 267.75391 388.91602 C 249.81961 408.76739 232.05817 428.50072 225.91406 435.46094 C 195.97665 433.67861 153.91137 434.52049 124.27148 437.98242 C 104.50498 429.58497 88.081213 422.74536 75.001953 417.46289 C 61.608851 412.1742 39.557397 416.13015 8.8457031 429.33203 C 5.9530351 432.72759 5.8658494 437.11931 8.5839844 442.50977 C 11.308274 447.5865 14.029791 448.81929 16.75 446.20508 C 25.482008 441.19904 34.806394 438.08672 44.71875 436.87109 C 54.31726 435.64924 66.427436 438.32385 81.050781 444.89258 C 67.273239 451.05398 55.543186 452.94053 45.859375 450.55078 C 36.181921 447.84714 30.421298 449.37956 28.580078 455.15039 C 34.188317 458.1588 40.343737 460.46456 47.046875 462.06836 L 0 462.06836 L 12.669922 515.86133 C 62.3251 674.94179 87.152344 795.40314 87.152344 877.24219 L 55.427734 871.72461 C 26.921959 869.8857 12.669922 882.29818 12.669922 908.96484 C 12.669922 933.79246 24.163809 946.20703 47.152344 946.20703 L 38.876953 1000 L 132.66992 1000 L 125.77344 946.20703 C 141.40564 936.09211 151.52145 922.75877 156.11914 906.20703 C 163.47545 895.17255 163.70514 870.34525 156.80859 831.72461 C 149.91203 793.10393 152.67017 770.57551 165.08398 764.13867 C 177.49779 757.70194 179.10752 738.39094 169.91211 706.20703 C 160.7167 674.0231 162.3245 645.97641 174.73828 622.06836 C 187.15209 598.16031 191.51995 572.41433 187.8418 544.82812 L 1040.2559 544.82812 C 1040.2559 604.59825 1068.7618 664.36852 1125.7734 724.13867 C 1125.7734 789.42601 1109.2226 848.27559 1076.1191 900.68945 C 1076.1191 931.03426 1082.5541 946.20703 1095.4277 946.20703 L 1085.7734 1000 L 1179.5664 1000 L 1172.6699 946.20703 C 1188.3021 936.09211 1196.1191 919.07991 1196.1191 895.17188 C 1197.0388 824.36726 1213.5895 753.56245 1245.7734 682.75781 L 1193.3594 628.96484 C 1192.4397 584.82689 1199.7955 556.78216 1215.4277 544.82812 C 1254.9679 353.56374 1274.7383 237.24065 1274.7383 195.86133 C 1274.7383 65.286594 1216.8074 7.5791225e-14 1100.9453 0 z M 231.33789 163.4375 C 247.2428 164.01704 261.1186 173.58 272.9668 192.125 C 285.33011 212.73054 288.42192 232.47683 282.24023 251.36523 C 276.05858 270.25365 269.19013 277.98113 261.63477 274.54688 C 254.0794 271.11262 252.01887 260.12309 255.45312 241.57812 C 258.88738 223.03312 254.42192 210.15333 242.05859 202.94141 C 229.69527 195.72947 217.67648 201.74083 206 220.97266 C 195.6972 218.91209 177.83927 222.68877 152.42578 232.30469 C 149.67835 217.19397 153.62722 204.1439 164.27344 193.1543 C 174.91961 182.16464 191.74829 173.06351 214.75781 165.85156 C 220.5102 164.04859 226.03625 163.24432 231.33789 163.4375 z M 232.10938 212.67383 C 238.85043 212.75433 243.02493 218.26814 244.63477 229.21484 C 246.35186 240.8913 245.83724 252.0511 243.08984 262.69727 C 240.34245 273.34349 242.57518 280.5563 249.78711 284.33398 C 256.99904 288.11165 263.00847 292.06053 267.81641 296.18164 C 278.80604 311.29235 291.16921 321.25259 304.90625 326.06055 C 284.95388 377.51917 265.56122 362.89088 247.21094 338.42383 C 236.90817 324.68681 225.74645 323.65557 213.72656 335.33203 C 201.70666 347.00851 191.91867 345.29235 184.36328 330.18164 L 197.75781 321.93945 L 193.63672 315.75781 L 178.18164 326.06055 L 174.06055 319.87891 C 171.31315 315.75781 165.47593 314.03971 156.54688 314.72656 C 153.79948 294.80787 153.4551 279.69732 155.51562 269.39453 C 158.94988 261.83917 165.30367 257.54591 174.57617 256.51562 C 183.84868 255.48534 192.26298 253.59701 199.81836 250.84961 L 196.72656 246.72852 C 191.91864 248.78905 184.70773 249.82031 175.0918 249.82031 C 165.47586 249.82031 158.26301 253.59699 153.45508 261.15234 L 153.45508 246.72852 C 172.68692 237.1126 190.88926 232.64908 208.06055 233.33594 C 212.18168 241.57816 215.10125 240.3747 216.81836 229.72852 C 218.53551 219.08228 223.17118 213.41732 230.72656 212.73047 C 231.19877 212.68754 231.65997 212.66846 232.10938 212.67383 z M 230.59766 216.85547 C 228.23661 216.76694 225.87473 218.13941 223.51367 220.97266 C 220.07943 225.09377 218.36328 231.27536 218.36328 239.51758 C 218.36328 247.75979 220.07943 252.5677 223.51367 253.94141 C 220.07943 258.06253 219.22234 261.83919 220.93945 265.27344 C 222.65659 268.70768 225.57419 270.25358 229.69531 269.91016 C 233.81641 269.56671 236.90817 264.41445 238.96875 254.45508 C 241.02927 244.49576 241.54394 236.42581 240.51367 230.24414 C 239.48341 224.06246 237.25069 219.94142 233.81641 217.88086 C 232.7432 217.23694 231.67086 216.89571 230.59766 216.85547 z M 230.79492 225.0332 C 231.97209 224.97653 232.97932 225.85425 233.81641 227.66797 C 235.87697 232.1325 236.5638 237.11259 235.87695 242.60742 C 235.1901 248.10222 233.98859 252.3955 232.27148 255.48633 C 230.55434 258.57718 229.8675 257.37567 230.21094 251.88086 C 230.55437 246.38603 229.69535 245.01236 227.63477 247.75977 C 225.57423 250.50719 224.37272 249.82034 224.0293 245.69922 C 223.68586 241.57813 223.85806 236.7702 224.54492 231.27539 C 226.99184 227.19721 229.07444 225.11603 230.79492 225.0332 z M 199.81836 256.00195 L 190.54492 260.12305 C 174.74734 258.06249 164.44464 261.49671 159.63672 270.42578 L 158.60742 280.72852 L 160.66797 284.84961 L 163.75781 282.78906 C 175.4343 282.10219 184.70765 276.26307 191.57617 265.27344 L 202.9082 261.15234 L 199.81836 256.00195 z M 175.0918 264.24414 L 186.42383 264.24414 C 183.67643 267.67839 180.92904 270.08135 178.18164 271.45508 C 180.24217 269.3945 179.21289 266.99154 175.0918 264.24414 z M 166.84961 268.36523 C 166.16278 271.11266 167.53645 273.51562 170.9707 275.57617 C 168.22327 276.26285 165.81835 276.60742 163.75781 276.60742 C 163.07097 274.54685 164.10222 271.79948 166.84961 268.36523 z M 174.68359 301.39062 C 173.62257 301.44751 173.50658 303.6135 174.72461 305.11523 C 176.25636 307.00376 174.18809 310.72102 169.92969 308.94531 C 166.41071 307.47793 162.13079 308.1772 165.29297 314.0957 C 165.97984 311.34827 167.86816 310.66145 170.95898 312.03516 C 177.80021 315.07575 179.52749 307.1204 177.07227 303.4375 C 176.05416 301.91038 175.23937 301.36083 174.68359 301.39062 z M 378.17578 316.77148 C 407.28649 318.49936 461.50848 332.5855 540.83984 359.0293 C 575.86924 337.05003 610.21145 337.3925 643.86719 360.05859 C 676.83604 373.10878 704.82444 382.89677 727.83398 389.42188 C 750.8435 395.94696 778.48945 400.58465 810.77148 403.33203 C 841.67978 379.29223 907.27444 377.22975 1007.5547 397.14844 C 1015.797 375.85604 1023.3523 365.89777 1030.2207 367.27148 C 1037.0893 368.64518 1038.6351 375.34145 1034.8574 387.36133 C 1031.0797 399.38123 1039.6664 411.9166 1060.6152 424.9668 C 1081.5641 438.01697 1104.4003 444.54297 1129.127 444.54297 L 1130.1582 450.72461 C 1103.3711 457.59311 1067.1405 452.61303 1021.4648 435.78516 C 975.78928 418.9573 928.91166 415.69529 880.83203 425.99805 C 832.75239 436.30083 751.01605 445.22981 635.625 452.78516 C 529.46206 459.73631 421.91165 438.69256 329.96875 402.11914 C 337.72168 394.36069 345.32974 386.52204 352.89648 378.66016 C 374.4737 356.24132 335.84291 317.29901 313.41602 338.68359 C 320.58247 324.35166 345.94896 318.53692 367.23828 316.78711 C 370.37204 316.52954 374.01711 316.52465 378.17578 316.77148 z M 309.8418 421.67578 C 314.02017 424.08993 318.54154 426.55737 323.45117 429.08789 C 351.27265 443.4276 388.56648 454.48485 428.50781 462.06836 L 262 462.06836 C 279.17561 449.28618 294.90565 435.70211 309.8418 421.67578 z M 938.78516 436.04297 C 955.26959 435.1844 968.74817 436.2998 979.22266 439.39062 C 1000.1716 445.57229 1023.8687 452.78511 1050.3125 461.02734 C 1051.8845 461.51733 1053.1605 461.61236 1054.707 462.06836 L 767.49219 462.06836 C 800.58398 459.3875 838.19194 453.54666 880.31641 444.54297 C 902.8108 439.735 922.30072 436.90154 938.78516 436.04297 z M 114.42969 459.44531 L 148.32812 462.06836 L 101.53516 462.06836 C 105.71976 461.33915 110.01875 460.46489 114.42969 459.44531 z M 1160.2559 486.89648 L 1160.2559 520 L 154.73828 521.37891 C 163.01414 561.8387 160.48568 595.4017 147.15234 622.06836 C 133.81907 648.73506 130.6015 675.40167 137.49805 702.06836 C 144.3946 728.73503 142.78484 747.5866 132.66992 758.62109 C 122.55498 769.65559 120.94525 796.55196 127.8418 839.31055 C 134.73835 882.06918 134.27901 906.43708 126.46289 912.41406 C 118.64681 918.39108 109.22199 923.21838 98.1875 926.89648 C 58.647265 926.89648 38.876953 920.91884 38.876953 908.96484 C 38.876953 900.68891 45.313932 896.09137 58.1875 895.17188 C 79.336913 900.68912 97.267828 902.98794 111.98047 902.06836 C 112.90005 795.40169 95.091881 644.21475 48.195312 493.41016 L 174.44336 490.35156 L 1160.2559 486.89648 z M 1066.4629 544.82812 L 1179.5664 544.82812 C 1169.4515 560.46032 1164.3945 589.42578 1164.3945 631.72461 C 1164.3945 638.16142 1182.7847 657.47038 1219.5664 689.6543 C 1185.5433 755.86119 1168.5312 823.90794 1168.5312 893.79297 C 1168.5312 906.66652 1163.015 917.2417 1151.9805 925.51758 L 1116.1191 925.51758 C 1108.7628 921.83921 1104.1633 916.78249 1102.3242 910.3457 C 1136.3472 864.36871 1153.3594 802.29958 1153.3594 724.13867 C 1095.4284 655.17314 1066.4629 595.40282 1066.4629 544.82812 z " />
</svg>
