<?xml version="1.0" encoding="UTF-8" standalone="no"?>
<svg
   width="700"
   height="1000"
   version="1.1"
   id="svg1"
   sodipodi:docname="1370A.svg"
   inkscape:version="1.4.3 (0d15f75, 2025-12-25)"
   xmlns:inkscape="http://www.inkscape.org/namespaces/inkscape"
   xmlns:sodipodi="http://sodipodi.sourceforge.net/DTD/sodipodi-0.dtd"
   xmlns="http://www.w3.org/2000/svg"
   xmlns:svg="http://www.w3.org/2000/svg">
  <defs
     id="defs1" />
  <sodipodi:namedview
     id="namedview1"
     pagecolor="#ffffff"
     bordercolor="#666666"
     borderopacity="1.0"
     inkscape:showpageshadow="2"
     inkscape:pageopacity="0.0"
     inkscape:pagecheckerboard="0"
     inkscape:deskcolor="#d1d1d1"
     inkscape:zoom="0.755"
     inkscape:cx="356.95364"
     inkscape:cy="741.0596"
     inkscape:window-width="1680"
     inkscape:window-height="998"
     inkscape:window-x="-8"
     inkscape:window-y="-8"
     inkscape:window-maximized="1"
     inkscape:current-layer="svg1"
     showguides="true">
    <sodipodi:guide
       position="659.04764,511.42862"
       orientation="1,0"
       id="guide1"
       inkscape:locked="false" />
    <sodipodi:guide
       position="510.47615,780.95238"
       orientation="0.99473836,-0.10244802"
       id="guide2"
       inkscape:locked="false" />
    <sodipodi:guide
       position="619.14777,50"
       orientation="0,-1"
       id="guide3"
       inkscape:locked="false" />
    <sodipodi:guide
       position="6.4098162,28.72007"
       orientation="0.98969537,-0.14318891"
       id="guide4"
       inkscape:locked="false" />
    <sodipodi:guide
       position="-0.63817966,43"
       orientation="0,-1"
       id="guide5"
       inkscape:locked="false" />
    <sodipodi:guide
       position="180.53059,57.80061"
       orientation="0,-1"
       id="guide6"
       inkscape:locked="false" />
  </sodipodi:namedview>
  <path
     id="path5"
     style="fill:#000000;stroke:none;stroke-width:49.6079"
     inkscape:transform-center-x="14.861169"
     inkscape:transform-center-y="149.43497"
     d="M 529.05078 0 C 483.41611 0 458.13268 17.884631 453.19922 53.652344 C 450.11578 65.369345 448.57422 79.243537 448.57422 95.277344 C 441.79068 111.31115 438.39844 122.10219 438.39844 127.65234 C 438.39844 130.73577 441.79068 132.58644 448.57422 133.20312 L 445.79883 139.67773 C 446.41553 142.14446 447.9571 143.37891 450.42383 143.37891 C 449.19044 147.07904 448.88139 150.16219 449.49805 152.62891 L 453.19922 152.62891 C 450.11578 168.66272 455.66395 176.67969 469.84766 176.67969 L 484.64844 176.67969 C 484.64844 189.63006 490.50758 201.6555 502.22461 212.75586 L 502.23242 212.76758 C 488.35914 236.12784 474.01825 259.31033 464.31641 284.5918 C 458.36807 298.7312 459.42405 311.89189 467.48438 324.07227 C 431.76508 322.87236 393.86514 325.27093 353.29492 331.16016 C 331.0943 324.37664 313.82785 317.13046 301.49414 309.42188 C 289.16047 301.71332 278.06032 298.78277 268.19336 300.63281 L 192.33984 99.902344 C 187.40637 88.185345 180.31475 87.259998 171.06445 97.126953 L 61.912109 399.61133 L 138.68945 419.96289 L 191.41602 163.73047 L 252.46875 325.60938 C 239.51838 324.37599 235.817 332.85469 241.36719 351.04688 C 246.91734 369.2391 256.47591 376.79437 270.04297 373.71094 L 278.36914 394.98633 C 267.88549 394.36964 265.41856 403.0048 270.96875 420.88867 C 276.51888 438.77252 285.15016 446.17133 296.86719 443.08789 L 300.56836 453.26172 L 321.84375 444.9375 L 319.99414 440.31445 C 328.01104 437.23102 339.11121 432.91347 353.29492 427.36328 C 394.92593 439.39171 437.85938 441.86793 480.81641 441.06055 C 479.49741 457.80302 477.15124 474.39574 473.54883 491.18945 C 417.43055 493.65634 334.79526 512.15727 225.64258 546.69141 C 192.9583 560.25849 177.84768 589.24129 180.31445 633.64258 C 172.91421 694.07768 164.49675 752.26226 150.92969 836.74805 C 146.61289 860.79877 136.89977 880.06846 121.79102 894.56055 C 106.68224 909.05266 78.777366 918.76538 38.076172 925.54883 C 20.738173 925.54883 11.016893 934.1175 8.9121094 950 L -7.6386719 950 L -7.6386719 1000 L 662.52539 1000 L 662.52539 950 L 646.52734 950 L 646.52734 474.78516 C 646.52734 468.90857 649.14157 465.96875 654.36523 465.96875 C 660.24186 465.96875 663.17969 468.90857 663.17969 474.78516 L 663.17969 558.7168 L 685.37891 558.7168 L 685.37891 466.21289 C 685.37891 452.02912 675.51324 444.9375 655.7793 444.9375 C 635.42872 444.9375 625.25391 452.02912 625.25391 466.21289 L 625.25391 474.53906 L 606.75391 474.53906 C 610.45416 434.45459 612.92103 392.51894 614.1543 348.73438 L 650.22852 348.73438 L 650.22852 222.00781 C 650.22852 144.30555 641.13359 87.877604 622.94141 52.726562 C 604.74921 17.575556 573.45207 0 529.05078 0 z M 530.90039 15.263672 C 570.36819 15.571989 597.50235 32.68585 612.30273 66.603516 C 627.1032 100.52119 634.19677 152.32246 633.58008 222.00781 L 633.58008 328.38477 L 613.22852 328.38477 C 613.22852 242.66557 602.74463 199.65207 581.77734 199.34375 C 560.81006 199.0354 550.32617 208.13228 550.32617 226.63281 L 550.32617 235.88281 C 543.54264 254.38333 536.45097 283.98242 529.05078 324.68359 L 529.05078 133.20312 C 532.75087 128.26964 538.76266 120.56176 547.08789 110.07812 C 555.41319 99.594474 559.57617 89.112529 559.57617 78.628906 C 559.57617 68.145282 552.48457 62.902344 538.30078 62.902344 C 530.90059 62.902344 526.27584 68.452441 524.42578 79.552734 C 524.42578 67.835733 518.87376 60.434991 507.77344 57.351562 C 496.67311 54.268135 482.79893 53.035637 466.14844 53.652344 C 469.84858 27.751584 491.43257 14.955318 530.90039 15.263672 z M 482.68359 67.064453 C 488.77336 67.372798 494.82322 68.452668 500.83594 70.302734 C 512.86129 74.002833 518.875 81.710731 518.875 93.427734 L 530.90039 93.427734 C 530.90039 82.94411 533.36734 77.703125 538.30078 77.703125 C 543.85097 77.703125 546.62695 80.47915 546.62695 86.029297 C 546.62695 91.579446 542.15482 98.823715 533.21289 107.76562 C 524.27096 116.70758 517.64103 124.87907 513.32422 132.2793 L 513.32422 200.73047 C 503.45728 193.94694 498.52344 182.84682 498.52344 167.42969 L 473.54883 167.42969 C 466.14861 167.42969 462.44727 164.34654 462.44727 158.17969 C 462.44727 150.16282 466.14863 145.84523 473.54883 145.22852 C 473.54884 140.91174 472.31446 138.44484 469.84766 137.82812 L 455.97461 137.82812 C 459.05804 131.0446 456.28203 126.41985 447.64844 123.95312 C 447.64844 120.25298 451.34975 110.69445 458.75 95.277344 C 458.75 84.793684 460.59681 75.853321 464.29688 68.453125 C 470.46373 67.219746 476.59383 66.756108 482.68359 67.064453 z M 478.86719 74.464844 C 472.23783 74.464844 466.76405 76.470064 462.44727 80.478516 L 462.44727 88.802734 C 471.69752 80.169158 484.95744 79.552927 502.22461 86.953125 L 508.69922 86.953125 L 508.69922 80.478516 L 502.22461 80.478516 C 493.28268 76.470064 485.49655 74.464844 478.86719 74.464844 z M 479.125 85.542969 C 471.78979 85.356205 465.21703 88.104336 461.52344 97.126953 L 462.44727 101.75195 L 467.07227 100.82617 C 474.0739 106.07725 482.71022 103.64588 501.29883 94.351562 L 508.69922 95.277344 L 508.69922 90.652344 L 501.29883 91.576172 C 494.5571 88.850811 486.46022 85.72973 479.125 85.542969 z M 474.47266 90.652344 C 472.68221 93.390691 473.58377 96.382813 476.32227 98.052734 C 473.85555 98.669419 470.46525 98.360292 466.14844 97.126953 C 469.23192 93.426817 472.00595 91.269014 474.47266 90.652344 z M 481.87305 90.652344 C 485.57319 90.652344 489.58167 91.577685 493.89844 93.427734 C 491.43172 94.661112 487.11607 96.202703 480.94922 98.052734 C 482.96332 95.814867 483.28398 93.361627 481.87305 90.652344 z M 175.68945 138.75391 L 122.96289 394.98633 L 86.898438 383.89062 C 87.782208 383.73753 117.37854 302.0244 175.68945 138.75391 z M 513.32422 228.48242 L 513.32422 348.73438 L 523.5 348.73438 C 522.26666 357.36793 519.4906 373.40384 515.17383 396.83789 C 511.64653 396.00791 507.92678 395.31195 504.02734 394.74414 C 503.91584 373.78745 502.509 352.47469 499.62695 328.63086 C 476.16976 310.9651 479.14134 280.36877 513.32422 228.48242 z M 594.72852 314.50781 L 594.72852 348.73438 C 593.49535 396.21909 591.64463 431.67927 589.17773 455.11328 C 586.71083 478.54728 587.02002 510.15353 590.10352 549.92969 C 593.18692 589.7059 571.29379 607.12687 524.42578 602.19336 L 280.21875 602.19336 C 260.48487 602.19336 250.61719 608.66679 250.61719 621.61719 C 250.61719 691.9192 241.52118 737.26014 219.62891 783.20312 C 197.73661 829.14617 190.86176 865.88431 198.57031 896.41016 C 206.27885 926.93605 200.26514 942.19922 180.53125 942.19922 L 57.501953 942.19922 C 37.768049 942.81596 41.160303 939.73274 67.677734 932.94922 C 96.045213 930.48249 118.86172 921.23153 136.12891 903.34766 C 153.3961 885.4638 164.18911 863.2655 168.50586 836.74805 C 177.13944 771.99615 186.48226 713.50251 200.66602 632.7168 C 197.58258 596.33242 212.07496 573.82495 244.14258 565.19141 C 342.19543 533.74046 425.44647 515.85585 493.89844 511.53906 C 497.76452 485.1148 500.62889 462.14722 502.30859 440.41211 C 514.9499 439.90301 527.57489 439.20043 540.15039 438.46289 C 570.98466 389.74481 589.17842 348.42547 594.72852 314.50781 z M 323.69336 357.98633 C 370.80587 371.64212 423.00897 376.07204 481.10352 371.71484 C 481.5217 378.86696 481.82446 385.91702 481.99414 392.89062 C 454.14517 391.98287 420.17101 395.45093 382.89648 401.46289 C 360.69584 394.06274 343.42745 386.50738 331.09375 378.79883 C 318.76007 371.09025 306.42745 368.77791 294.09375 371.86133 L 293.16797 369.08594 C 301.18488 366.00251 311.35968 362.30311 323.69336 357.98633 z M 605.82812 494.88867 L 625.25391 494.88867 L 625.25391 762.74414 L 510.54883 762.74414 L 510.54883 942.19922 L 293.16797 942.19922 L 293.16797 622.54297 L 525.34961 622.54297 C 563.58405 621.92631 588.09861 615.60545 598.89062 603.58008 C 609.68259 591.5547 611.99499 555.32373 605.82812 494.88867 z M 271.89453 621.61719 L 271.89453 622.54297 L 271.78906 950 L 205.79492 950 C 210.32598 947.42805 213.6221 944.21126 215.68164 940.34961 C 220.61512 931.09933 219.68978 915.37248 212.90625 893.17188 C 206.12273 870.97123 214.38656 837.16169 238.12891 788.75195 C 261.87127 740.34221 271.89453 693.15258 271.89453 621.61719 z M 532.75 784.01953 L 625.25391 784.94531 L 625.25391 942.19922 L 532.75 942.19922 L 532.75 784.01953 z M 6.3613281 964 L 648.52539 964 L 648.52539 986 L 6.3613281 986 L 6.3613281 964 z " />
</svg>
