<?xml version="1.0" encoding="UTF-8" standalone="no"?>
<svg
   width="800"
   height="1000"
   version="1.1"
   id="svg1"
   sodipodi:docname="1370F.svg"
   inkscape:version="1.4.2 (f4327f4, 2025-05-13)"
   xmlns:inkscape="http://www.inkscape.org/namespaces/inkscape"
   xmlns:sodipodi="http://sodipodi.sourceforge.net/DTD/sodipodi-0.dtd"
   xmlns="http://www.w3.org/2000/svg"
   xmlns:svg="http://www.w3.org/2000/svg">
  <defs
     id="defs1" />
  <sodipodi:namedview
     id="namedview1"
     pagecolor="#ffffff"
     bordercolor="#000000"
     borderopacity="0.25"
     inkscape:showpageshadow="2"
     inkscape:pageopacity="0.0"
     inkscape:pagecheckerboard="0"
     inkscape:deskcolor="#d1d1d1"
     inkscape:zoom="0.17894712"
     inkscape:cx="1796.6202"
     inkscape:cy="1075.7368"
     inkscape:window-width="1680"
     inkscape:window-height="998"
     inkscape:window-x="-8"
     inkscape:window-y="-8"
     inkscape:window-maximized="1"
     inkscape:current-layer="svg1"
     showguides="true" />
  <path
     id="path1"
     style="fill:#000000;stroke:none;stroke-width:67.3319"
     d="M 642.50391 0 C 614.6062 -9.4739031e-15 571.8606 4.1875135 566.61523 53.494141 C 561.52062 78.239438 555.33463 96.069325 548.05664 106.98633 C 547.32879 112.80871 549.87482 115.35664 555.69727 114.62891 C 557.88073 116.0845 558.06367 117.72154 556.24414 119.54102 C 554.42467 121.36053 555.33366 123.72551 558.97266 126.63672 C 556.78925 132.45912 558.24522 135.37109 563.33984 135.37109 C 562.61202 139.73794 563.52104 143.92286 566.06836 147.92578 C 568.61565 151.92862 573.7116 153.38466 581.35352 152.29297 C 588.99544 151.20138 596.09037 150.29037 602.64062 149.5625 C 604.82402 161.20731 609.19199 170.6692 615.74219 177.94727 L 586.26562 177.94727 C 556.42574 185.22525 545.7104 195.23969 535.94336 215.19727 C 506.62818 243.0978 478.34561 274.19254 453.23633 303.47461 C 431.37284 287.603 399.21893 267.23902 363.29883 247.00195 C 353.31156 236.16055 343.91172 228.39908 333.45312 221.74023 C 335.68561 214.17328 338.06162 207.22707 340.56445 200.87891 C 348.95089 179.60765 358.70445 165.15497 368.74414 156.25781 C 377.35955 148.62284 386.04782 144.87299 395.3125 143.96289 C 396.53866 160.87772 405.89634 173.35373 447.40234 185.48633 C 465.09734 190.65872 474.72704 198.39795 477.33398 208.50781 C 478.80035 214.1944 480.29146 217.94158 483.17773 219.74219 C 484.62087 220.64249 486.54656 220.72005 488.08984 220.00195 C 491.32321 218.49745 499.67969 208.85626 499.67969 192.51172 C 499.67969 172.0752 484.48918 162.36094 476.32422 158.61523 C 493.15154 153.33093 503.78793 143.53804 510.67578 136.5625 C 503.91964 129.64271 493.27467 119.66548 476.375 114.4668 C 484.0722 110.90667 499.67969 101.13046 499.67969 80.388672 C 499.67969 64.046607 491.32196 54.395785 488.08398 52.902344 C 487.31008 52.545401 486.44184 52.38996 485.58594 52.4375 C 484.73004 52.48504 483.88762 52.735848 483.16797 53.191406 C 480.28937 55.013639 478.79977 58.779856 477.33398 64.5 C 474.72449 74.683327 465.09506 82.451408 447.40234 87.623047 C 408.6129 98.961544 397.8991 110.59887 395.66406 125.88867 C 381.9042 126.847 368.49291 132.43075 356.80664 142.78711 C 343.90755 154.21827 332.92203 171.18691 323.81836 194.27734 C 321.55775 200.01112 319.40983 206.12943 317.38086 212.64648 C 314.11191 210.97834 310.70204 209.32167 307.11719 207.63477 C 299.93147 208.7901 299.32291 214.63613 305.29297 225.17578 C 291.49898 224.89377 288.13908 253.98718 297.73242 260.66992 C 299.16571 261.97793 301.77236 263.5565 305.18164 265.10156 C 298.39864 305.05231 294.59171 354.70489 294.42188 415.70508 L 292.99219 929.17773 L 310.99219 929.22852 L 312.42188 415.75586 C 312.58626 356.71311 316.30448 308.6973 322.61133 270.45508 C 331.62726 272.09167 341.63446 272.20845 350.30078 268.90625 C 386.28208 303.14277 445.48927 347.30352 456.65625 345.96875 C 466.81532 349.73731 548.41936 282.13315 579.71484 240.64844 C 583.35384 250.10984 580.44386 267.10391 570.98242 279.47656 C 574.62148 288.93801 579.71542 295.30501 586.26562 298.58008 C 592.81577 301.85523 595.72579 306.04017 594.99805 311.13477 C 577.53079 443.59474 569.52682 524.018 570.98242 552.40234 C 584.81073 630.27711 592.08865 674.673 592.81641 685.58984 C 593.54421 696.50684 592.08823 727.61965 588.44922 778.92969 C 584.81022 830.23976 581.53425 866.44845 578.62305 887.55469 C 575.7118 905.74974 572.43785 918.12164 568.79883 924.67188 C 557.15399 943.59473 533.68119 957.60559 498.38281 966.70312 C 463.08438 975.80063 445.43555 983.98757 445.43555 991.26562 L 445.43555 998.9082 L 490.19531 998.9082 C 518.57961 992.35799 542.96138 992.35799 563.33984 998.9082 C 585.90171 1000.3639 603.91457 998.7268 617.37891 993.99609 C 630.84321 989.26545 648.4921 991.26634 670.32617 1000 C 694.34364 997.8166 700.5296 983.98866 688.88477 958.51562 C 688.15698 940.32052 688.88498 926.85666 691.06836 918.12305 C 693.25184 909.38942 694.7078 899.19957 695.43555 887.55469 C 702.71357 799.49072 704.89756 732.16917 701.98633 685.58984 C 699.07511 639.01046 701.62112 577.51103 709.62695 501.0918 C 719.08837 466.88514 722.00033 440.31936 718.36133 421.39648 C 705.26088 387.91764 697.98293 361.35383 696.52734 341.70312 L 700.89453 303.49414 L 711.81055 280.56836 C 712.53835 303.13019 717.27028 333.33392 726.00391 371.17969 C 723.09269 389.37467 724.3657 410.29761 729.82422 433.95117 C 735.28272 457.60475 739.46767 483.62352 742.37891 512.00781 C 730.10413 529.05603 724.47901 542.18461 725.50195 551.39062 C 726.52487 560.59669 727.37669 567.92734 728.05859 573.38281 C 726.01282 578.83832 726.01282 582.24758 728.05859 583.61133 C 730.78631 584.97519 732.83142 583.95264 734.19531 580.54297 C 735.55917 577.13332 736.24219 572.69958 736.24219 567.24414 C 736.24219 562.47066 736.58182 558.03885 737.26367 553.94727 L 738.28711 550.87891 C 738.9691 550.87891 739.65209 552.24286 740.33398 554.9707 C 741.01591 567.24544 739.65182 576.27977 736.24219 582.07617 C 732.83253 587.87256 729.42136 596.56738 726.01172 608.16016 C 726.01172 611.56982 727.03623 613.27539 729.08203 613.27539 C 730.44588 613.27539 731.12695 612.59421 731.12695 611.23047 C 731.8089 612.59421 732.83144 613.27539 734.19531 613.27539 C 735.55917 613.27539 736.58179 612.93396 737.26367 612.25195 C 737.94561 612.93372 738.97012 613.61685 740.33398 614.29883 C 741.69788 613.61709 742.03737 612.93396 741.35547 612.25195 C 743.40124 613.61597 745.27759 613.95739 746.98242 613.27539 C 748.68728 612.59334 749.88063 611.22939 750.5625 609.18359 C 751.24444 602.36428 753.80183 594.52131 758.23438 585.65625 C 762.66692 576.79118 764.88281 569.97273 764.88281 565.19922 C 765.5647 559.06186 765.5647 553.60552 764.88281 548.83203 C 762.83699 537.23925 761.47292 527.01157 760.79102 518.14648 C 765.15782 456.28334 766.75956 410.84382 756.57031 381.00391 C 757.29817 338.79135 754.02414 297.67166 746.74609 257.64258 L 751.11328 256.55078 L 751.11328 200.87305 C 751.11328 120.81482 742.69125 62.735566 718.38086 30.726562 C 700.63506 7.3610069 671.71359 0 642.50391 0 z M 639.75781 14.191406 C 671.05332 14.191406 693.25309 21.83338 706.35352 37.117188 C 726.73196 71.323927 736.91992 125.90946 736.91992 200.87305 L 736.91992 243.44922 L 664.86719 243.44922 L 664.86719 115.7207 C 673.60084 104.07585 677.96875 93.521985 677.96875 84.060547 C 677.96875 62.954297 671.41885 52.402344 658.31836 52.402344 C 647.40136 52.402344 641.94141 56.404349 641.94141 64.410156 C 637.5746 65.865804 632.84461 62.408789 627.75 54.039062 C 622.65535 45.669334 607.73547 42.576368 582.99023 44.759766 C 589.54041 24.38131 608.46233 14.191406 639.75781 14.191406 z M 602.08594 56.146484 C 612.69023 56.516075 619.24427 59.089034 621.74609 63.865234 C 625.74902 71.507167 635.39197 78.238148 650.67578 84.060547 C 650.67578 70.960103 653.22377 64.410156 658.31836 64.410156 C 662.6852 64.410156 664.86719 70.960103 664.86719 84.060547 C 664.86719 92.794191 660.50117 102.98406 651.76758 114.62891 L 651.76758 177.94727 L 632.11719 177.94727 C 624.83917 170.6692 617.92518 157.56934 611.375 138.64648 C 604.82474 137.19089 597.36381 137.37188 588.99414 139.19141 C 580.62443 141.01093 575.71151 139.92088 574.25586 135.91797 C 572.80026 131.91503 575.71216 129.00303 582.99023 127.18359 C 590.26822 125.36407 586.99231 122.99908 573.16406 120.08789 L 570.98242 122.27148 L 569.89062 116.8125 C 572.07398 113.90126 572.43803 111.35331 570.98242 109.16992 C 569.52682 106.98658 566.61486 106.62252 562.24805 108.07812 L 574.25586 78.603516 C 583.71731 68.414312 600.82112 67.686321 625.56641 76.419922 L 625.56641 72.052734 C 600.09331 63.319085 583.71745 61.863091 576.43945 67.685547 L 578.62305 57.859375 C 587.90251 56.49475 595.72336 55.92473 602.08594 56.146484 z M 487.2168 70.582031 C 488.66867 75.425913 489.14132 79.754789 488.69922 83.566406 C 484.62088 104.15146 458.75178 111.32306 441.21289 116.68359 C 458.65909 122.00601 477.69375 125.57895 492.67188 136.55469 C 484.19387 143.43688 466.9871 149.31644 441.21289 156.42578 C 457.99925 162.18611 485.58022 168.66045 488.69922 189.54492 C 489.14053 193.34965 488.66832 197.66869 487.22266 202.50195 C 480.95304 188.61625 466.2445 178.62009 443.70508 172.48438 C 412.71703 164.04878 407.73633 148.14751 407.73633 136.55469 C 407.73633 124.98871 412.6878 109.05037 443.70898 100.51953 C 466.23839 94.32402 480.9428 84.360156 487.2168 70.582031 z M 591.79297 75.15625 C 591.01968 75.178988 590.26882 75.237158 589.54102 75.328125 C 583.71864 75.328125 579.35064 78.602139 576.43945 85.152344 L 572.07422 85.152344 L 573.16406 90.611328 L 577.53125 90.611328 C 578.25911 90.611328 579.89803 90.975391 582.44531 91.703125 C 584.99263 92.431002 588.08561 92.431002 591.72461 91.703125 C 596.8192 90.97532 603.36915 88.79138 611.375 85.152344 L 625.56641 85.152344 L 625.56641 79.693359 L 611.375 79.693359 C 603.73306 76.509295 597.206 74.997083 591.79297 75.15625 z M 594.25781 78.636719 C 596.00623 78.807297 600.59412 80.239506 608.09961 82.96875 C 601.54937 85.879933 596.09142 87.699867 591.72461 88.427734 C 586.63001 88.427734 582.26203 87.699782 578.62305 86.244141 C 580.07871 86.244141 581.17071 85.335102 581.89844 83.515625 C 582.62626 81.696043 584.44623 80.421096 587.35742 79.693359 C 585.90182 80.421165 585.17383 81.513148 585.17383 82.96875 C 585.17383 85.879943 586.99381 87.335938 590.63281 87.335938 C 594.27182 87.335937 596.08984 85.879943 596.08984 82.96875 C 596.08984 80.302541 595.47873 78.861088 594.25781 78.636719 z M 578.62305 194.32227 L 651.76758 194.32227 L 651.76758 257.64258 L 704.16992 257.64258 L 692.16016 288.20898 L 604.82422 288.20898 C 593.90722 288.93679 588.81329 285.29878 589.54102 277.29297 C 607.00827 242.35846 603.36829 214.70072 578.62305 194.32227 z M 608.09961 296.94336 L 688.88477 296.94336 L 688.88477 300.21875 L 609.19141 300.21875 L 608.09961 296.94336 z M 621.19922 314.41016 L 677.96875 314.41016 C 675.7853 348.61686 679.42331 378.09258 688.88477 402.83789 C 698.34617 427.58312 699.80217 452.14791 693.25195 476.5293 C 686.70169 500.91069 683.06369 528.74748 682.33594 560.04297 C 681.6081 591.3384 680.15211 621.54221 677.96875 650.6543 C 685.24677 707.42291 682.69881 786.02625 670.32617 886.46289 L 602.64062 886.46289 C 616.46882 768.55896 618.46985 683.40568 608.64453 631.00391 C 598.81921 578.60223 593.9082 547.3065 593.9082 537.11719 C 595.36379 486.17109 604.45977 411.93565 621.19922 314.41016 z M 623.38281 901.74609 L 647.40039 901.74609 C 651.03939 917.02993 649.40242 929.94883 642.48828 940.50195 C 635.57418 951.05487 624.83921 958.15177 610.2832 961.79102 C 608.0998 948.69056 612.46583 928.67476 623.38281 901.74609 z " />
</svg>
