<?xml version="1.0" encoding="UTF-8" standalone="no"?>
<svg
   width="700"
   height="1000"
   version="1.1"
   id="svg1"
   sodipodi:docname="1370A.svg"
   inkscape:version="1.4.3 (0d15f75, 2025-12-25)"
   xmlns:inkscape="http://www.inkscape.org/namespaces/inkscape"
   xmlns:sodipodi="http://sodipodi.sourceforge.net/DTD/sodipodi-0.dtd"
   xmlns="http://www.w3.org/2000/svg"
   xmlns:svg="http://www.w3.org/2000/svg">
  <defs
     id="defs1" />
  <sodipodi:namedview
     id="namedview1"
     pagecolor="#ffffff"
     bordercolor="#666666"
     borderopacity="1.0"
     inkscape:showpageshadow="2"
     inkscape:pageopacity="0.0"
     inkscape:pagecheckerboard="0"
     inkscape:deskcolor="#d1d1d1"
     inkscape:zoom="0.53386562"
     inkscape:cx="654.65913"
     inkscape:cy="738.95"
     inkscape:window-width="1680"
     inkscape:window-height="998"
     inkscape:window-x="-8"
     inkscape:window-y="-8"
     inkscape:window-maximized="1"
     inkscape:current-layer="svg1"
     showguides="true">
    <sodipodi:guide
       position="659.04764,511.42862"
       orientation="1,0"
       id="guide1"
       inkscape:locked="false" />
    <sodipodi:guide
       position="510.47615,780.95238"
       orientation="0.99473836,-0.10244802"
       id="guide2"
       inkscape:locked="false" />
    <sodipodi:guide
       position="619.14777,50"
       orientation="0,-1"
       id="guide3"
       inkscape:locked="false" />
    <sodipodi:guide
       position="6.4098162,28.72007"
       orientation="0.98969537,-0.14318891"
       id="guide4"
       inkscape:locked="false" />
  </sodipodi:namedview>
  <path
     id="path5"
     style="fill:#000000;stroke:none;stroke-width:49.6079"
     inkscape:transform-center-x="14.864485"
     inkscape:transform-center-y="149.46833"
     d="M 529.16797 -0.21484375 C 483.52311 -0.21484375 458.23144 17.673521 453.29688 53.449219 C 450.21276 65.168836 448.67188 79.046597 448.67188 95.083984 C 441.88682 111.12137 438.49414 121.91541 438.49414 127.4668 C 438.49414 130.55092 441.88681 132.40076 448.67188 133.01758 L 445.89648 139.49414 C 446.51332 141.96142 448.0542 143.19531 450.52148 143.19531 C 449.28782 146.89627 448.9789 149.98 449.5957 152.44727 L 453.29688 152.44727 C 450.21276 168.48466 455.76429 176.50391 469.95117 176.50391 L 484.75586 176.50391 C 484.75586 189.45717 490.61629 201.48505 502.33594 212.58789 L 502.34375 212.59961 C 488.46737 235.96509 474.12392 259.15429 464.41992 284.44141 C 458.47025 298.58396 459.52576 311.74659 467.58789 323.92969 C 431.86062 322.72951 393.95233 325.12899 353.37305 331.01953 C 331.16747 324.2345 313.89505 316.9857 301.55859 309.27539 C 289.22216 301.56513 278.11916 298.63392 268.25 300.48438 L 192.38086 99.710938 C 187.44629 87.991324 180.35392 87.064436 171.10156 96.933594 L 61.923828 399.48438 L 138.71875 419.83984 L 191.45703 163.55273 L 252.52344 325.4668 C 239.57018 324.23315 235.86654 332.71392 241.41797 350.91016 C 246.96936 369.10644 256.52953 376.66225 270.09961 373.57812 L 278.42773 394.85938 C 267.94174 394.24255 265.47591 402.87972 271.02734 420.76758 C 276.57871 438.65543 285.212 446.05483 296.93164 442.9707 L 300.63477 453.14844 L 321.91406 444.82227 L 320.06445 440.19727 C 328.08314 437.11315 339.18617 432.79362 353.37305 427.24219 C 395.01335 439.2733 437.95525 441.75092 480.92188 440.94336 C 479.60258 457.68956 477.25751 474.28652 473.6543 491.08398 C 417.52349 493.55142 334.86846 512.05581 225.69141 546.59766 C 192.99984 560.16777 177.8862 589.15911 180.35352 633.57031 C 172.95163 694.0189 164.31423 753.71019 150.74414 838.21484 C 146.42638 862.27093 136.71173 881.54765 121.59961 896.04297 C 106.48745 910.53832 78.577468 921.17792 37.867188 927.96289 C 21.097995 927.96289 11.452298 935.30822 8.9296875 950 L -7.6386719 950 L -7.6386719 1000 L 662.52539 1000 L 662.52539 950 L 646.66992 950 L 646.66992 474.67578 C 646.66992 468.79787 649.28495 465.85742 654.50977 465.85742 C 660.38772 465.85742 663.32617 468.79787 663.32617 474.67578 L 663.32617 558.625 L 685.53125 558.625 L 685.53125 466.10156 C 685.53125 451.91463 675.66218 444.82227 655.92383 444.82227 C 635.56871 444.82227 625.39063 451.91463 625.39062 466.10156 L 625.39062 474.42969 L 606.88672 474.42969 C 610.58779 434.33627 613.05551 392.39202 614.28906 348.59766 L 650.37305 348.59766 L 650.37305 221.8418 C 650.37305 144.1222 641.27436 87.682325 623.07812 52.523438 C 604.88188 17.364582 573.57917 -0.21484375 529.16797 -0.21484375 z M 531.01758 15.050781 C 570.49419 15.359166 597.63382 32.477106 612.4375 66.402344 C 627.24128 100.32759 634.33558 152.1409 633.71875 221.8418 L 633.71875 328.24219 L 613.36328 328.24219 C 613.36328 242.50386 602.87627 199.48026 581.9043 199.17188 C 560.93234 198.86345 550.44727 207.96214 550.44727 226.4668 L 550.44727 235.71875 C 543.66222 254.2234 536.56981 283.83076 529.16797 324.54102 L 529.16797 133.01758 C 532.86888 128.083 538.88189 120.37464 547.20898 109.88867 C 555.53613 99.402673 559.69922 88.91565 559.69922 78.429688 C 559.69922 67.943721 552.60688 62.701172 538.41992 62.701172 C 531.01808 62.701172 526.39149 68.250745 524.54102 79.353516 C 524.54102 67.633899 518.98757 60.232552 507.88477 57.148438 C 496.78196 54.064321 482.90615 52.832374 466.25195 53.449219 C 469.95291 27.542676 491.54095 14.742358 531.01758 15.050781 z M 482.78906 66.863281 C 488.88019 67.171695 494.93321 68.251083 500.94727 70.101562 C 512.9753 73.802487 518.99023 81.514756 518.99023 93.234375 L 531.01758 93.234375 C 531.01758 82.74841 533.48538 77.503906 538.41992 77.503906 C 543.97135 77.503906 546.74805 80.280645 546.74805 85.832031 C 546.74805 91.383419 542.274 98.630306 533.33008 107.57422 C 524.38615 116.51817 517.75527 124.69187 513.4375 132.09375 L 513.4375 200.56055 C 503.56835 193.77551 498.63281 182.67252 498.63281 167.25195 L 473.6543 167.25195 C 466.25243 167.25195 462.54883 164.16823 462.54883 158 C 462.54883 149.98134 466.25245 145.66372 473.6543 145.04688 C 473.65431 140.72914 472.41852 138.26139 469.95117 137.64453 L 456.07422 137.64453 C 459.15834 130.8595 456.3816 126.23289 447.74609 123.76562 C 447.74609 120.06468 451.44771 110.50453 458.84961 95.083984 C 458.84961 84.597983 460.6995 75.653801 464.40039 68.251953 C 470.56862 67.018299 476.69794 66.554867 482.78906 66.863281 z M 478.97266 74.265625 C 472.34182 74.265625 466.86657 76.271903 462.54883 80.28125 L 462.54883 88.605469 C 471.80114 79.969966 485.06491 79.354009 502.33594 86.755859 L 508.81055 86.755859 L 508.81055 80.28125 L 502.33594 80.28125 C 493.39201 76.271903 485.6035 74.265625 478.97266 74.265625 z M 479.23047 85.345703 C 471.89362 85.158898 465.31942 87.908962 461.625 96.933594 L 462.54883 101.56055 L 467.17578 100.63477 C 474.17897 105.88702 482.8174 103.4546 501.41016 94.158203 L 508.81055 95.083984 L 508.81055 90.458984 L 501.41016 91.382812 C 494.66693 88.656842 486.56733 85.532506 479.23047 85.345703 z M 474.57812 90.458984 C 472.78728 93.197943 473.68862 96.189082 476.42773 97.859375 C 473.96046 98.476198 470.56972 98.167208 466.25195 96.933594 C 469.33611 93.232632 472.11087 91.075792 474.57812 90.458984 z M 481.97852 90.458984 C 485.67948 90.458984 489.69008 91.383913 494.00781 93.234375 C 491.54054 94.468028 487.22292 96.008931 481.05469 97.859375 C 483.06924 95.621009 483.38976 93.168872 481.97852 90.458984 z M 175.72656 138.57031 L 122.98828 394.85938 L 86.916016 383.75977 C 87.799985 383.60665 117.40263 301.87725 175.72656 138.57031 z M 513.4375 228.31836 L 513.4375 348.59766 L 523.61523 348.59766 C 522.38161 357.23314 519.60484 373.27166 515.28711 396.71094 C 511.75902 395.88078 508.03898 395.18512 504.13867 394.61719 C 504.02715 373.65582 502.61902 352.33938 499.73633 328.49023 C 476.2739 310.82052 479.24699 280.21629 513.4375 228.31836 z M 594.85938 314.36328 L 594.85938 348.59766 C 593.62594 396.09299 591.77409 431.56076 589.30664 455 C 586.83919 478.43924 587.14823 510.05285 590.23242 549.83789 C 593.31651 589.62298 571.41949 607.04594 524.54102 602.11133 L 280.2793 602.11133 C 260.54101 602.11133 250.66992 608.58772 250.66992 621.54102 C 250.66992 691.85872 241.57294 737.20886 219.67578 783.16211 C 197.77859 829.11542 190.68621 867.35992 198.39648 897.89258 C 206.10674 928.42529 200.09182 943.69141 180.35352 943.69141 L 57.296875 944.61719 C 37.558566 945.23406 40.951258 942.15027 67.474609 935.36523 C 95.848421 932.89795 118.67036 922.7199 135.94141 904.83203 C 153.21245 886.94418 164.0065 864.73821 168.32422 838.21484 C 176.95972 773.44849 186.52205 713.44828 200.70898 632.64453 C 197.62485 596.25203 212.12053 573.73703 244.19531 565.10156 C 342.27005 533.64359 425.54056 515.75525 494.00781 511.4375 C 497.87475 485.00734 500.73789 462.03488 502.41797 440.29492 C 515.0621 439.78571 527.69122 439.08145 540.26953 438.34375 C 571.11068 389.61479 589.30802 348.28852 594.85938 314.36328 z M 323.76367 357.85156 C 370.8867 371.5104 423.10146 375.9402 481.20898 371.58203 C 481.62726 378.73574 481.92989 385.78852 482.09961 392.76367 C 454.24443 391.85571 420.26332 395.32263 382.98047 401.33594 C 360.77487 393.93413 343.50248 386.37824 331.16602 378.66797 C 318.82959 370.95767 306.49466 368.64441 294.1582 371.72852 L 293.23242 368.95312 C 301.25112 365.86901 311.42724 362.1693 323.76367 357.85156 z M 605.96094 494.78516 L 625.39062 494.78516 L 625.39062 770.50391 L 510.66211 770.50391 L 510.66211 950 L 293.23242 950 L 293.23242 622.4668 L 525.46484 622.4668 C 563.70782 621.85001 588.22705 615.5261 599.02148 603.49805 C 609.81586 591.46998 612.12918 555.23372 605.96094 494.78516 z M 271.95312 621.54102 L 271.95312 622.4668 L 271.84961 950 L 208.01172 950 C 211.33281 947.70911 213.83281 944.98976 215.51172 941.8418 C 220.4463 932.58946 219.52137 916.85792 212.73633 894.65234 C 205.95129 872.44675 214.43204 837.13539 238.17969 788.71484 C 261.92735 740.29429 271.95313 693.09238 271.95312 621.54102 z M 532.86719 791.78516 L 625.39062 792.71094 L 625.39062 950 L 532.86719 950 L 532.86719 791.78516 z M 6.3613281 964 L 648.52539 964 L 648.52539 986 L 6.3613281 986 L 6.3613281 964 z " />
</svg>
