<?xml version="1.0" encoding="UTF-8" standalone="no"?>
<svg
   width="700"
   height="1000"
   version="1.1"
   id="svg1"
   sodipodi:docname="13708.svg"
   inkscape:version="1.4.3 (0d15f75, 2025-12-25)"
   xmlns:inkscape="http://www.inkscape.org/namespaces/inkscape"
   xmlns:sodipodi="http://sodipodi.sourceforge.net/DTD/sodipodi-0.dtd"
   xmlns="http://www.w3.org/2000/svg"
   xmlns:svg="http://www.w3.org/2000/svg">
  <defs
     id="defs1" />
  <sodipodi:namedview
     id="namedview1"
     pagecolor="#ffffff"
     bordercolor="#666666"
     borderopacity="1.0"
     inkscape:showpageshadow="2"
     inkscape:pageopacity="0.0"
     inkscape:pagecheckerboard="0"
     inkscape:deskcolor="#d1d1d1"
     inkscape:zoom="0.2669328"
     inkscape:cx="207.9175"
     inkscape:cy="267.85768"
     inkscape:window-width="1680"
     inkscape:window-height="998"
     inkscape:window-x="-8"
     inkscape:window-y="-8"
     inkscape:window-maximized="1"
     inkscape:current-layer="svg1"
     showguides="true">
    <sodipodi:guide
       position="659.04764,511.42862"
       orientation="1,0"
       id="guide1"
       inkscape:locked="false" />
    <sodipodi:guide
       position="510.47615,780.95238"
       orientation="0.99473836,-0.10244802"
       id="guide2"
       inkscape:locked="false" />
    <sodipodi:guide
       position="700,1000"
       orientation="0,-1"
       id="guide3"
       inkscape:locked="false" />
    <sodipodi:guide
       position="700,0"
       orientation="0,-1"
       id="guide4"
       inkscape:locked="false" />
    <sodipodi:guide
       position="619.14777,50"
       orientation="0,-1"
       id="guide5"
       inkscape:locked="false" />
    <sodipodi:guide
       position="14.813015,28.72493"
       orientation="0.98991855,-0.14163776"
       id="guide6"
       inkscape:locked="false" />
  </sodipodi:namedview>
  <path
     id="path5"
     style="fill:#000000;stroke:none;stroke-width:49.6079"
     inkscape:transform-center-x="14.861119"
     inkscape:transform-center-y="149.43447"
     d="M 537.45117 0 C 491.81666 0 466.53308 17.884751 461.59961 53.652344 C 458.5162 65.369307 456.97461 79.243591 456.97461 95.277344 C 450.19112 111.3111 446.79883 122.10221 446.79883 127.65234 C 446.79883 130.73577 450.19112 132.58646 456.97461 133.20312 L 454.19922 139.67773 C 454.81592 142.14444 456.35751 143.37891 458.82422 143.37891 C 457.59085 147.07902 457.28177 150.16219 457.89844 152.62891 L 461.59961 152.62891 C 458.5162 168.66267 464.06632 176.67969 478.25 176.67969 L 493.05078 176.67969 C 493.05078 189.63002 498.90995 201.65354 510.62695 212.75391 L 510.63477 212.76562 C 504.73451 222.70066 498.75084 232.6042 493.07422 242.65039 C 470.8978 253.49616 419.85583 281.68115 327.21875 343.43945 C 309.89538 368.25582 310.12906 382.53733 327.92188 386.2832 C 380.71105 400.19946 415.87638 389.79962 468.63672 380.40625 C 477.83782 375.3874 484.71509 371.20014 489.26758 367.8418 C 490.1524 381.67658 490.61515 395.12244 490.54883 408.34375 C 451.94147 421.61739 400.59801 439.59753 364.92383 459.75977 C 335.23714 452.2115 305.00126 457.12224 280.3457 475.46289 C 270.89326 482.83235 261.53766 488.06518 252.2793 491.16211 C 248.42859 494.45741 248.01305 499.25104 251.03516 505.54492 C 254.05728 511.83876 256.43574 516.29562 258.16797 518.91992 C 259.90025 521.54429 262.343 521.81568 265.49023 519.73828 C 277.0366 512.1168 286.13492 505.92155 292.78516 501.15625 C 299.4349 496.39019 310.88009 492.04082 327.11914 488.10352 C 330.08942 486.89635 331.78953 486.90471 332.2207 488.12695 C 332.65133 489.34849 331.64427 490.39018 329.19727 491.25195 C 325.70214 492.80551 320.28944 494.30691 312.95703 495.75586 C 305.62501 497.20457 300.29462 499.40344 296.9668 502.35352 C 293.63971 505.3031 293.10386 507.91843 295.35938 510.19727 C 297.43797 513.34633 301.53838 513.27819 307.6582 509.99219 C 313.77802 506.70614 323.24983 504.78617 336.07227 504.23438 C 348.89474 503.68252 362.21675 498.46642 376.04102 488.58789 C 415.85927 480.79173 451.85539 470.90493 487.43359 458.70312 C 486.09169 469.51026 484.28316 480.30701 481.94922 491.1875 C 425.83113 493.65442 343.1971 512.15548 234.04492 546.68945 C 201.36074 560.25651 186.25005 589.23947 188.7168 633.64062 C 181.31661 694.07551 172.8756 752.26254 159.30859 836.74805 C 154.99181 860.79868 145.27861 880.06851 130.16992 894.56055 C 115.06118 909.05261 87.158089 919.69118 46.457031 926.47461 C 29.132944 926.47461 19.412518 934.31617 17.296875 950 L 0.9609375 950 L 0.9609375 1000.4941 L 671.12695 1000.4941 L 671.12695 950 L 654.92969 950 L 654.92969 474.7832 C 654.92969 468.90663 657.54198 465.9668 662.76562 465.9668 C 668.64225 465.9668 671.58008 468.90663 671.58008 474.7832 L 671.58008 558.71484 L 693.7793 558.71484 L 693.7793 466.21289 C 693.7793 452.02917 683.91357 444.9375 664.17969 444.9375 C 643.82917 444.9375 633.6543 452.02917 633.6543 466.21289 L 633.6543 474.53906 L 615.1543 474.53906 C 618.85453 434.45471 621.32144 392.51683 622.55469 348.73242 L 658.63086 348.73242 L 658.63086 222.00586 C 658.63086 144.30387 649.53391 87.877487 631.3418 52.726562 C 613.14965 17.575674 581.85231 0 537.45117 0 z M 539.30078 15.263672 C 578.76846 15.571989 605.9028 32.68401 620.70312 66.601562 C 635.50356 100.51912 642.59715 152.32074 641.98047 222.00586 L 641.98047 328.38477 L 621.62891 328.38477 C 621.62891 242.66587 611.14494 199.65207 590.17773 199.34375 C 569.21051 199.03541 558.72656 208.13038 558.72656 226.63086 L 558.72656 235.88086 C 552.99719 251.50641 547.04814 275.05116 540.87891 306.51367 C 540.58245 305.88459 540.26457 305.23019 539.92578 304.55273 C 539.06124 302.82351 538.23657 301.41093 537.45117 300.3125 L 537.45117 133.20312 C 541.15125 128.26968 547.16308 120.56171 555.48828 110.07812 C 563.81354 99.594502 567.97656 89.110543 567.97656 78.626953 C 567.97656 68.143363 560.88491 62.902344 546.70117 62.902344 C 539.30099 62.902344 534.67624 68.450523 532.82617 79.550781 C 532.82617 67.833818 527.27608 60.434981 516.17578 57.351562 C 505.0755 54.268147 491.20121 53.035639 474.55078 53.652344 C 478.25091 27.75167 499.83311 14.95532 539.30078 15.263672 z M 491.08594 67.064453 C 497.17569 67.372797 503.22558 68.45072 509.23828 70.300781 C 521.26359 74.000867 527.27539 81.710771 527.27539 93.427734 L 539.30078 93.427734 C 539.30078 82.944144 541.76773 77.701172 546.70117 77.701172 C 552.25133 77.701172 555.02734 80.477215 555.02734 86.027344 C 555.02734 91.577473 550.55518 98.823736 541.61328 107.76562 C 532.67139 116.70754 526.04335 124.8791 521.72656 132.2793 L 521.72656 200.73047 C 511.85965 193.94698 506.92578 182.84677 506.92578 167.42969 L 481.95117 167.42969 C 474.55098 167.42969 470.84961 164.34651 470.84961 158.17969 C 470.84961 150.16284 474.551 145.84524 481.95117 145.22852 C 481.95117 140.91177 480.71677 138.44485 478.25 137.82812 L 464.375 137.82812 C 467.45843 131.04463 464.68238 126.41985 456.04883 123.95312 C 456.04883 120.25302 459.75019 110.69439 467.15039 95.277344 C 467.15039 84.79372 468.99917 75.851345 472.69922 68.451172 C 478.86606 67.217798 484.9962 66.756109 491.08594 67.064453 z M 487.26758 74.462891 C 480.63825 74.462891 475.16638 76.468122 470.84961 80.476562 L 470.84961 88.800781 C 480.09982 80.167235 493.35982 79.550999 510.62695 86.951172 L 517.10156 86.951172 L 517.10156 80.476562 L 510.62695 80.476562 C 501.68504 76.468122 493.89692 74.462891 487.26758 74.462891 z M 487.52539 85.542969 C 480.1902 85.356206 473.61936 88.104365 469.92578 97.126953 L 470.84961 101.75195 L 475.47461 100.82617 C 482.4762 106.07723 491.11263 103.64584 509.70117 94.351562 L 517.10156 95.277344 L 517.10156 90.652344 L 509.70117 91.576172 C 502.95949 88.85082 494.86059 85.72973 487.52539 85.542969 z M 482.875 90.652344 C 481.08456 93.390683 481.98614 96.382829 484.72461 98.052734 C 482.25791 98.669417 478.86757 98.360288 474.55078 97.126953 C 477.63424 93.42683 480.40829 91.269013 482.875 90.652344 z M 490.27539 90.652344 C 493.97551 90.652344 497.98402 91.577691 502.30078 93.427734 C 499.83407 94.661107 495.51838 96.202719 489.35156 98.052734 C 491.36564 95.814885 491.68633 93.36162 490.27539 90.652344 z M 521.72656 228.48047 L 521.72656 301.86133 C 517.23194 304.13845 512.17765 306.08803 506.56445 307.71289 C 502.40156 308.97083 498.60059 310.36259 495.10547 311.89648 C 488.28044 293.43628 496.51583 266.74798 521.72656 228.48047 z M 469.625 309.23828 C 470.6331 314.36284 472.73805 319.33252 475.93945 324.15039 C 466.98525 332.30845 460.50568 342.72687 453.66211 355.92578 C 417.04183 359.20992 400.06116 360.09933 363.74219 357.48633 C 394.10799 351.04576 437.95049 330.60739 469.625 309.23828 z M 603.12891 314.50781 L 603.12891 348.73242 C 601.89574 396.21698 600.04503 431.67936 597.57812 455.11328 C 595.11126 478.54722 595.42043 510.15169 598.50391 549.92773 C 601.58731 589.70376 579.69403 607.12491 532.82617 602.19141 L 288.61914 602.19141 C 268.8853 602.19141 259.01758 608.66485 259.01758 621.61523 C 259.01758 691.917 250.11486 735.76418 228.22266 781.70703 C 206.33043 827.64991 199.24071 865.88441 206.94922 896.41016 C 214.65775 926.93595 208.64399 942.19922 188.91016 942.19922 L 65.882812 943.125 C 46.148975 943.7417 49.54125 940.65852 76.058594 933.875 C 104.42598 931.40829 127.2407 921.23148 144.50781 903.34766 C 161.77494 885.46386 172.56801 863.2654 176.88477 836.74805 C 185.51833 771.99641 194.88465 713.50028 209.06836 632.71484 C 205.98496 596.33057 220.47742 573.82296 252.54492 565.18945 C 350.59696 533.73877 433.84727 515.85398 502.29883 511.53711 L 502.30078 511.53711 C 505.56236 489.24451 508.11019 469.41089 509.83594 450.70312 C 524.71737 445.18434 539.65112 439.25204 554.88672 432.88867 C 576.47747 389.31136 597.57883 348.42537 603.12891 314.50781 z M 538.20703 320.5625 C 537.95567 321.92317 537.70325 323.29716 537.45117 324.68359 L 537.45117 320.83594 C 537.70132 320.7456 537.95374 320.65409 538.20703 320.5625 z M 521.72656 326.40039 L 521.72656 331.81836 C 520.87843 331.10471 519.21868 330.91278 516.74805 331.24219 C 514.13884 331.59009 511.46539 332.71426 508.72656 334.61328 C 508.6125 333.59874 508.49455 332.58016 508.375 331.55664 C 511.76505 329.9711 514.90713 328.69501 517.80078 327.73047 C 519.00216 327.33001 520.31106 326.88648 521.72656 326.40039 z M 521.72656 337.13477 L 521.72656 348.73242 L 531.90039 348.73242 C 530.66705 357.36595 527.89293 373.40198 523.57617 396.83594 C 520.18628 398.07295 516.45118 399.39557 512.42578 400.80078 C 512.53755 383.73905 511.79775 366.58085 510.10938 348.14258 L 521.72656 337.13477 z M 614.22852 494.88672 L 633.6543 494.88672 L 633.6543 950 L 301.57031 950 L 301.57031 622.54102 L 533.75 622.54102 C 571.9843 621.92437 596.49905 615.60344 607.29102 603.57812 C 618.08296 591.55278 620.39536 555.32159 614.22852 494.88672 z M 280.29492 621.61523 L 280.29492 622.54102 L 280.29492 950 L 214.17383 950 C 218.7049 947.42805 222.00101 944.21126 224.06055 940.34961 C 228.99402 931.09936 228.0706 915.37243 221.28711 893.17188 C 214.5036 870.97132 222.98038 835.66739 246.72266 787.25781 C 270.46494 738.84822 280.29492 693.15037 280.29492 621.61523 z M 14.960938 964 L 657.12695 964 L 657.12695 986.49414 L 14.960938 986.49414 L 14.960938 964 z " />
</svg>
