<?xml version="1.0" encoding="UTF-8" standalone="no"?>
<svg
   width="8.95578"
   height="17.977446"
   version="1.1"
   id="svg1"
   sodipodi:docname="1371E.svg"
   inkscape:version="1.4.2 (f4327f4, 2025-05-13)"
   xmlns:inkscape="http://www.inkscape.org/namespaces/inkscape"
   xmlns:sodipodi="http://sodipodi.sourceforge.net/DTD/sodipodi-0.dtd"
   xmlns="http://www.w3.org/2000/svg"
   xmlns:svg="http://www.w3.org/2000/svg">
  <defs
     id="defs1" />
  <sodipodi:namedview
     id="namedview1"
     pagecolor="#ffffff"
     bordercolor="#666666"
     borderopacity="1.0"
     inkscape:showpageshadow="2"
     inkscape:pageopacity="0.0"
     inkscape:pagecheckerboard="0"
     inkscape:deskcolor="#d1d1d1"
     showguides="true"
     inkscape:zoom="32"
     inkscape:cx="6.046875"
     inkscape:cy="12.484375"
     inkscape:window-width="1680"
     inkscape:window-height="998"
     inkscape:window-x="-8"
     inkscape:window-y="-8"
     inkscape:window-maximized="1"
     inkscape:current-layer="svg1">
    <sodipodi:guide
       position="1.519923,8.1972794"
       orientation="0.99425114,-0.10707321"
       id="guide1"
       inkscape:locked="false" />
    <sodipodi:guide
       position="1.4189617,4.1133919"
       orientation="0.99425114,-0.10707322"
       id="guide2"
       inkscape:locked="false" />
  </sodipodi:namedview>
  <path
     style="fill:#000000;stroke:none"
     d="m 5.87326,5.496768 c -0.050199,0.7529827 -0.1913827,1.653424 -0.423552,2.701324 -0.23217,1.0478993 -0.2478573,2.020501 -0.047062,2.917805 0.2007953,0.897303 0.301193,1.77892 0.301193,2.644849 0,0.853379 -0.094123,1.65656 -0.282368,2.409542 H 6.814487 C 7.002733,15.27926 7.0937183,14.545103 7.087443,13.967816 7.0811683,13.39053 7.0215573,12.882267 6.90861,12.443027 6.7956627,12.003788 6.870961,11.332379 7.134505,10.428801 7.3980483,9.5252223 7.52982,8.860088 7.52982,8.433398 7.52982,7.9188607 7.3854987,7.3917733 7.096856,6.852136 7.159604,6.2372007 7.2160773,5.7854113 7.266276,5.496768 Z M 5.722663,16.565605 c 0.01255,0.188245 0.00628,0.420415 -0.018824,0.696509 0.4517893,-0.175697 0.6902337,-0.301194 0.715333,-0.376492 V 16.565605 Z M 6.136804,1.148298 V 1.24242 H 6.023856 C 5.7477627,1.1294727 5.5406927,1.1420223 5.402646,1.280069 L 5.383821,1.167122 C 5.5218677,1.0416253 5.7352127,1.0353507 6.023856,1.148298 Z m 0,0.169421 V 1.374192 H 6.023856 C 5.8230607,1.44949 5.685014,1.487139 5.609716,1.487139 5.5595173,1.499689 5.5093187,1.4871393 5.45912,1.44949 H 5.383821 V 1.411841 c 0.037649,-0.1254967 0.138047,-0.188245 0.301193,-0.188245 0.050199,0 0.1631467,0.031374 0.338842,0.094123 z M 5.892084,1.355368 C 5.8418853,1.3302687 5.779137,1.311444 5.703839,1.298894 c 0.012549,0.025099 0.018824,0.043924 0.018824,0.056474 0,0.025099 -0.01255,0.050199 -0.037649,0.075298 0.1003973,-0.037649 0.1694207,-0.062749 0.20707,-0.075298 z M 5.572067,1.317719 c -0.037649,0 -0.081573,0.025099 -0.131772,0.075298 0.075298,0.025099 0.1317717,0.037649 0.169421,0.037649 -0.037649,-0.025099 -0.056474,-0.043924 -0.056474,-0.056474 0,-0.037649 0.00627,-0.056473 0.018825,-0.056473 z M 7.812189,4.894383 V 3.106051 C 7.812189,2.0393263 7.711791,1.2894817 7.510995,0.856517 7.3102003,0.42355233 6.9713587,0.20707 6.49447,0.20707 5.8544353,0.20707 5.5093187,0.39531567 5.45912,0.771807 5.7226633,0.759257 5.926596,0.774944 6.070918,0.818868 6.2152393,0.862792 6.2874,0.966327 6.2874,1.129473 6.3250493,1.0039757 6.4066223,0.941227 6.532119,0.941227 c 0.175696,0 0.263544,0.1003977 0.263544,0.301193 0,0.1505967 -0.043924,0.2823687 -0.131772,0.395316 -0.087848,0.1129473 -0.1568713,0.20707 -0.20707,0.282368 V 4.894383 Z M 6.230926,5.101453 V 1.90128 C 6.2936747,1.800882 6.3783853,1.684797 6.485058,1.553025 6.59173,1.4212537 6.645066,1.3177187 6.645066,1.24242 c 0,-0.087847 -0.037649,-0.131771 -0.112947,-0.131771 -0.075298,0 -0.112947,0.075298 -0.112947,0.225894 H 6.212101 C 6.212101,1.160847 6.130528,1.0478997 5.967382,0.997701 5.804236,0.94750233 5.6222657,0.94122767 5.421471,0.978877 5.3587223,1.0918243 5.327348,1.223596 5.327348,1.374192 5.2018507,1.6000867 5.139102,1.7381333 5.139102,1.788332 5.2771487,1.8259813 5.3273477,1.88873 5.289699,1.976578 h 0.207069 c 0.037649,0.012549 0.056474,0.050198 0.056474,0.112947 -0.1003973,0.01255 -0.156871,0.081573 -0.169421,0.20707 0,0.075299 0.062749,0.112948 0.188246,0.112948 H 6.042681 C 6.1556277,2.6228877 6.187002,2.8236827 6.136804,3.011928 6.0866047,3.2001733 5.9109087,3.300571 5.609716,3.313121 5.346172,3.3507703 5.2269497,3.5641153 5.252049,3.953156 5.277149,4.342196 5.2144007,4.668488 5.063804,4.932032 5.1642013,5.1704767 5.3336223,5.289699 5.572067,5.289699 H 7.379224 L 7.398048,5.101453 Z m 1.430666,0 c -0.050199,0.501988 -0.112947,1.0792743 -0.188245,1.731859 0.3011927,0.5521867 0.451789,1.0855487 0.451789,1.600086 0,0.42669 -0.1286347,1.0918243 -0.385904,1.995403 -0.2572687,0.903578 -0.335704,1.574987 -0.235306,2.014226 0.1003973,0.43924 0.1537333,0.950641 0.160008,1.534202 0.00628,0.583561 -0.090985,1.446353 -0.291781,2.588376 v 0.564736 c 0.100398,0.451789 0.01255,0.727883 -0.263543,0.828281 l -3.576665,0.01882 c -0.238444,0 -0.351391,-0.156871 -0.338841,-0.470614 h 0.470613 c 0.263544,-0.0502 0.4925763,-0.128635 0.687097,-0.235308 0.19452,-0.106671 0.3764903,-0.178832 0.545911,-0.216482 0.1694213,-0.03765 0.254132,-0.19452 0.254132,-0.470613 0.2635433,-1.079274 0.395315,-2.026777 0.395315,-2.842508 0,-0.81573 -0.1003973,-1.662835 -0.301192,-2.541314 C 4.8441847,10.322128 4.8567343,9.336977 5.082629,8.245153 5.3085237,7.153329 5.45912,6.2560253 5.534418,5.553242 5.3963713,5.5783413 5.283424,5.5657917 5.195576,5.515593 c 0,0.1631467 -0.050199,0.4141407 -0.150596,0.752982 C 4.7186873,6.6701657 3.9468807,7.1031303 2.72956,7.567469 2.5162153,7.7180657 2.2965957,7.799639 2.070701,7.812189 L 0.97598095,17.977446 H 0.63713898 L 1.731859,7.812189 1.750683,7.793364 C 1.600087,7.6427673 1.5310637,7.404323 1.543613,7.078031 1.4306657,7.0403817 1.3930167,6.939984 1.430666,6.776838 H 1.825981 L 2.31542,2.296595 H 2.673086 L 2.183648,6.776838 C 2.3342447,6.8395867 2.478566,6.9337093 2.616612,7.059206 3.469992,6.4442713 4.097477,6.011307 4.499067,5.760313 4.4614183,5.3085237 4.4990677,4.7688863 4.612015,4.141401 4.5618157,3.4511677 4.8943827,3.106051 5.609716,3.106051 5.8356107,3.0558523 5.9579703,2.980554 5.976795,2.880156 5.9956197,2.7797587 5.948558,2.6668113 5.83561,2.541314 H 5.515593 c -0.238444,0 -0.326292,-0.1129473 -0.263544,-0.338842 H 5.176751 c -0.012549,-0.050199 -0.012549,-0.1003973 0,-0.150596 -0.025099,0 -0.050199,-0.01255 -0.075298,-0.037649 L 5.157927,1.920104 C 5.0449797,1.9075547 4.988506,1.8824553 4.988506,1.844806 c 0,-0.087848 0.056474,-0.2447193 0.169421,-0.470614 0,-0.250994 0.025099,-0.451789 0.075298,-0.602385 C 5.321073,0.257269 5.7352133,0 6.475646,0 7.1031307,0 7.5235453,0.250994 7.73689,0.752982 7.9502353,1.25497 8.056908,2.0393263 8.056908,3.106051 c 0.489438,0 0.734157,0.3137423 0.734157,0.941227 0.062749,0.7404327 0.075298,1.562438 0.037649,2.466016 0.1882453,0.527088 0.169421,1.3239943 -0.056473,2.390719 v 0 c 0.1003973,0.3639407 0.1380463,0.6902327 0.112947,0.978876 -0.012549,0.087848 -0.062748,0.213345 -0.150597,0.376491 -0.087848,0.163146 -0.1380467,0.313742 -0.150596,0.451789 -0.01255,0.03765 -0.037649,0.06275 -0.075298,0.0753 -0.037649,0.01255 -0.116085,0.01569 -0.235307,0.0094 C 8.154168,10.789605 8.094557,10.755094 8.094557,10.692345 8.1573057,10.479 8.2231913,10.312716 8.292214,10.193494 8.3612373,10.074272 8.3926117,9.9456373 8.386337,9.80759 8.3800623,9.669544 8.361238,9.600521 8.329864,9.600521 c -0.031374,0 -0.043924,0.031374 -0.03765,0.094122 0.00628,0.062749 0.00941,0.144322 0.00941,0.24472 0,0.087848 -0.015687,0.163146 -0.047062,0.225894 -0.031374,0.06275 -0.07216,0.08157 -0.122359,0.05647 -0.037649,-0.01255 -0.043924,-0.0753 -0.018825,-0.188246 0,-0.1003973 -0.00941,-0.2384437 -0.028237,-0.414139 C 8.06632,9.44365 8.1510303,9.180106 8.339275,8.828714 8.364375,8.3643753 8.3361383,7.918861 8.254565,7.492171 8.1729923,7.065481 8.17613,6.651341 8.263978,6.249751 8.16358,5.9611077 8.0945567,5.5783417 8.056908,5.101453 v 0 z"
     id="path1"
     sodipodi:nodetypes="csssccssssccccccccccccccccccccccsccccscccccsccssscscssscccccsssccscccccccscscscscccccssssccccccsscssscccccccccccccccccccscscccccsccsscccsscscsscssssssccscscscc" />
</svg>
