<?xml version="1.0" encoding="UTF-8" standalone="no"?>
<svg
   width="700"
   height="1000"
   version="1.1"
   id="svg1"
   sodipodi:docname="1371E.svg"
   inkscape:version="1.4.2 (f4327f4, 2025-05-13)"
   xmlns:inkscape="http://www.inkscape.org/namespaces/inkscape"
   xmlns:sodipodi="http://sodipodi.sourceforge.net/DTD/sodipodi-0.dtd"
   xmlns="http://www.w3.org/2000/svg"
   xmlns:svg="http://www.w3.org/2000/svg">
  <defs
     id="defs1" />
  <sodipodi:namedview
     id="namedview1"
     pagecolor="#ffffff"
     bordercolor="#666666"
     borderopacity="1.0"
     inkscape:showpageshadow="2"
     inkscape:pageopacity="0.0"
     inkscape:pagecheckerboard="0"
     inkscape:deskcolor="#d1d1d1"
     showguides="true"
     inkscape:zoom="1.0677312"
     inkscape:cx="120.34864"
     inkscape:cy="386.33318"
     inkscape:window-width="1680"
     inkscape:window-height="998"
     inkscape:window-x="-8"
     inkscape:window-y="-8"
     inkscape:window-maximized="1"
     inkscape:current-layer="svg1">
    <sodipodi:guide
       position="0.63713962,0"
       orientation="-0.99423056,0.10726418"
       id="guide1"
       inkscape:locked="false" />
    <sodipodi:guide
       position="19.48531,0"
       orientation="-0.99423056,0.10726416"
       id="guide2"
       inkscape:label=""
       inkscape:locked="false"
       inkscape:color="rgb(0,134,229)" />
  </sodipodi:namedview>
  <path
     style="fill:#000000;stroke:none;stroke-width:1"
     d="m 291.8977,305.75911 c -2.79233,41.88486 -10.64571,91.97214 -23.56018,150.26184 -12.91453,58.28966 -13.78713,112.39088 -2.61784,162.30364 11.16928,49.91271 16.75393,98.95288 16.75393,147.1204 0,47.46943 -5.23561,92.14656 -15.70679,134.03138 h 77.48687 c 10.47124,-49.56366 15.53231,-90.40132 15.18325,-122.51306 -0.34904,-32.11168 -3.66491,-60.38394 -9.94764,-84.81678 -6.28272,-24.43278 -2.09423,-61.78007 12.56547,-112.04182 14.65967,-50.2618 21.9895,-87.26007 21.9895,-110.99481 0,-28.62127 -8.02791,-57.94064 -24.08373,-87.95809 3.49037,-34.20594 6.63172,-59.33684 9.42403,-75.3927 z m -8.377,615.70687 c 0.6981,10.47118 0.34933,23.38569 -1.04709,38.74349 25.1309,-9.77319 38.39442,-16.75399 39.79058,-20.94246 V 921.46598 Z M 306.55741,63.874368 v 5.23556 h -6.28277 c -15.35776,-6.282722 -26.87608,-5.584648 -34.55496,2.094235 l -1.04715,-6.282706 c 7.67888,-6.980785 19.54625,-7.329811 35.60211,-1.047089 z m 0,9.424086 v 3.141325 h -6.28277 c -11.16929,4.18847 -18.84817,6.282705 -23.03664,6.282705 -2.79232,0.698097 -5.58463,1.6e-5 -8.37694,-2.094235 h -4.18853 v -2.094235 c 2.09423,-6.980786 7.6789,-10.471176 16.75394,-10.471176 2.79233,0 9.07507,1.745186 18.84817,5.235616 z m -13.61262,2.094235 c -2.79232,-1.396155 -6.28271,-2.443283 -10.47118,-3.141381 0.69805,1.396139 1.04709,2.443284 1.04709,3.141381 0,1.396138 -0.6981,2.792332 -2.09423,4.18847 5.58462,-2.094235 9.42407,-3.490429 11.51832,-4.18847 z m -17.80103,-2.094235 c -2.09423,0 -4.53751,1.396138 -7.32984,4.18847 4.18847,1.396138 7.32982,2.094235 9.42408,2.094235 -2.09424,-1.396138 -3.14138,-2.443284 -3.14138,-3.14138 0,-2.094236 0.34876,-3.141325 1.04714,-3.141325 z M 399.75112,272.2513 v -99.47642 c 0,-59.33684 -5.58467,-101.047133 -16.754,-125.130904 -11.16925,-24.08377 -30.0174,-36.125654 -56.54446,-36.125654 -35.60209,0 -54.79929,10.471213 -57.5916,31.413638 14.65966,-0.698096 26.00347,0.174497 34.03142,2.61778 8.0279,2.443284 12.04186,8.202444 12.04186,17.277483 2.09426,-6.98082 6.63177,-10.471232 13.61256,-10.471232 9.77313,0 14.6597,5.584647 14.6597,16.753937 0,8.376979 -2.44328,15.70683 -7.32985,21.989553 -4.88657,6.282722 -8.72601,11.518329 -11.51832,15.706799 V 272.2513 Z m -87.95816,11.51831 V 105.75918 c 3.49042,-5.58466 8.20246,-12.041919 14.13616,-19.37177 5.93366,-7.329812 8.90048,-13.088973 8.90048,-17.277482 0,-4.886512 -2.09423,-7.329796 -6.2827,-7.329796 -4.18847,0 -6.28271,4.188471 -6.28271,12.565411 h -11.51838 c 0,-9.773134 -4.53751,-16.055856 -13.61255,-18.848172 -9.07503,-2.792313 -19.19718,-3.141343 -30.36644,-1.04709 -3.49041,6.282723 -5.23562,13.612557 -5.23562,21.989498 -6.98081,12.56545 -10.47122,20.244327 -10.47122,23.036642 7.67888,2.094249 10.47121,5.584669 8.37699,10.471229 h 11.51826 c 2.09424,0.69804 3.14139,2.79228 3.14139,6.28271 -5.58463,0.6981 -8.72599,4.53752 -9.42409,11.51832 0,4.18852 3.49043,6.28276 10.47123,6.28276 h 26.17802 c 6.2827,11.86735 8.0279,23.03663 5.23563,33.50782 -2.79236,10.47119 -12.56549,16.05584 -29.31941,16.75393 -14.65971,2.09426 -21.29147,13.96163 -19.89532,35.60212 1.3962,21.64044 -2.09419,39.79052 -10.47117,54.45022 5.58462,13.26355 15.00871,19.89532 28.27225,19.89532 h 100.52357 l 1.04709,-10.47124 z m 79.58116,0 c -2.79233,27.92321 -6.2827,60.03491 -10.47117,96.33511 16.75391,30.71552 25.13087,60.38391 25.13087,89.00518 0,23.73474 -7.15534,60.73301 -21.46601,110.99481 -14.31063,50.26175 -18.67361,87.60904 -13.08896,112.04182 5.58463,24.43284 8.55146,52.87966 8.9005,85.34038 0.34932,32.46072 -5.06107,80.45375 -16.2304,143.97907 v 31.41358 c 5.58466,25.13088 0.6981,40.48868 -14.65965,46.07334 l -198.95289,1.0469 c -13.26351,0 -19.54622,-8.72602 -18.84812,-26.17805 h 26.17797 c 14.6597,-2.79239 27.39968,-7.15536 38.21994,-13.08907 10.82023,-5.9336 20.94237,-9.94757 30.36644,-12.04187 9.4241,-2.09428 14.13616,-10.82021 14.13616,-26.17797 14.65966,-60.03488 21.98949,-112.73997 21.98949,-158.11522 0,-45.37519 -5.58462,-92.49562 -16.75387,-141.36124 -11.1693,-48.86539 -10.47122,-103.66466 2.09423,-164.39765 12.56545,-60.73299 20.94241,-110.64574 25.13088,-149.73824 -7.67888,1.39616 -13.96161,0.69809 -18.84818,-2.09423 0,9.07507 -2.79233,23.03668 -8.37693,41.88481 -18.15012,22.33859 -61.08206,46.42235 -128.79583,72.25131 -11.86735,8.37698 -23.958844,12.7732 -36.524294,13.47129 L 19.48531,1000 H 0.63713962 L 61.754066,433.50785 c -8.376941,-8.37698 -11.392137,-21.64051 -10.694079,-39.79058 -6.282723,-2.09425 -8.376957,-7.67889 -6.282706,-16.75393 h 23.077181 l 26.886929,-249.21466 18.847949,0 -26.888104,249.22562 c 8.37698,3.49041 16.365744,8.71504 24.044584,15.69582 47.46949,-34.20589 82.3735,-58.28965 104.71205,-72.25125 -2.09422,-25.13089 4e-5,-55.14836 6.28276,-90.05239 -2.79235,-38.3944 15.70678,-57.5916 55.49737,-57.5916 12.56545,-2.79233 19.37173,-6.9808 20.41886,-12.56547 1.04713,-5.58463 -1.57069,-11.86735 -7.85345,-18.84817 h -17.80102 c -13.26351,0 -18.15008,-6.28273 -14.65971,-18.84818 h -4.18847 c -0.69805,-2.79233 -0.69805,-5.58462 0,-8.37694 -1.39613,0 -2.79233,-0.6981 -4.18847,-2.09423 l 3.14138,-5.23561 c -6.28272,-0.69806 -9.42408,-2.09423 -9.42408,-4.18847 0,-4.886576 3.14138,-13.612581 9.42408,-26.178031 0,-13.961605 1.39614,-25.130878 4.18847,-33.507819 C 261.18216,14.310654 284.21882,0 325.40558,0 c 34.90399,0 58.28966,13.961604 70.15701,41.884814 11.86739,27.92321 17.80108,71.553226 17.80108,130.890066 27.22511,0 40.83768,17.45199 40.83768,52.35599 3.49043,41.18676 4.18846,86.91101 2.09423,137.17276 10.47119,29.3194 9.42408,73.64752 -3.14133,132.98435 v 0 c 5.58463,20.2443 7.67886,38.39438 6.28271,54.45023 -0.69804,4.88656 -3.49037,11.86737 -8.37699,20.9424 -4.88657,9.07504 -7.67889,17.45198 -8.37695,25.13088 -0.6981,2.0943 -2.09424,3.49049 -4.18847,4.18858 -2.09424,0.6981 -6.45725,0.87277 -13.08901,0.52288 -6.63175,-0.34843 -9.94763,-2.26812 -9.94763,-5.75855 3.49041,-11.86736 7.15532,-21.11696 10.99472,-27.74871 3.83944,-6.63175 5.58465,-13.78709 5.23561,-21.466 -0.34903,-7.67885 -1.39613,-11.51827 -3.14132,-11.51827 -1.74518,0 -2.44328,1.74518 -2.09429,5.23556 0.34933,3.49042 0.52343,8.02795 0.52343,13.61261 0,4.88657 -0.87259,9.07504 -2.61783,12.56541 -1.74518,3.49048 -4.01392,4.53736 -6.80625,3.14116 -2.09423,-0.6981 -2.44329,-4.18858 -1.04715,-10.47123 0,-5.58463 -0.52343,-13.26349 -1.57069,-23.03659 -1.04692,-9.77291 3.66511,-24.43262 14.13627,-43.97888 1.39619,-25.82897 -0.17448,-50.61081 -4.71201,-74.34555 -4.53751,-23.73473 -4.36297,-46.77137 0.5236,-69.10993 -5.58467,-16.05585 -9.4241,-37.34731 -11.51833,-63.87437 v 0 z"
     id="path1"
     sodipodi:nodetypes="csssccssssccccccccccccccccccccccsccccscccccsccssscscssscccccsssccscccccccscscscscccccssssccccccsscsssccccccccccccccccccscscccccsccsscccsscscsscssssssccscscscc" />
</svg>
