<?xml version="1.0" encoding="UTF-8" standalone="no"?>
<svg
   width="700"
   height="1000"
   version="1.1"
   id="svg1"
   sodipodi:docname="13729.svg"
   inkscape:version="1.4.2 (f4327f4, 2025-05-13)"
   xmlns:inkscape="http://www.inkscape.org/namespaces/inkscape"
   xmlns:sodipodi="http://sodipodi.sourceforge.net/DTD/sodipodi-0.dtd"
   xmlns="http://www.w3.org/2000/svg"
   xmlns:svg="http://www.w3.org/2000/svg">
  <defs
     id="defs1" />
  <sodipodi:namedview
     id="namedview1"
     pagecolor="#ffffff"
     bordercolor="#666666"
     borderopacity="1.0"
     inkscape:showpageshadow="2"
     inkscape:pageopacity="0.0"
     inkscape:pagecheckerboard="0"
     inkscape:deskcolor="#d1d1d1"
     inkscape:zoom="0.3775"
     inkscape:cx="-17.218543"
     inkscape:cy="271.52318"
     inkscape:window-width="1680"
     inkscape:window-height="998"
     inkscape:window-x="-8"
     inkscape:window-y="-8"
     inkscape:window-maximized="1"
     inkscape:current-layer="svg1"
     showguides="true">
    <sodipodi:guide
       position="700,1000"
       orientation="0,-1"
       id="guide1"
       inkscape:locked="false" />
    <sodipodi:guide
       position="700,0"
       orientation="0,-1"
       id="guide2"
       inkscape:locked="false" />
    <sodipodi:guide
       position="369.53643,642.56266"
       orientation="1,0"
       id="guide3"
       inkscape:locked="false" />
    <sodipodi:guide
       position="555.13238,675.70156"
       orientation="-0.78634754,0.61778439"
       id="guide4"
       inkscape:locked="false" />
  </sodipodi:namedview>
  <path
     id="path1-2"
     style="fill:#000000;stroke:none;stroke-width:0.999999"
     inkscape:transform-center-x="134.63586"
     inkscape:transform-center-y="34.110248"
     d="M 594.85938 0 C 552.35563 9.4739031e-15 528.12169 19.015238 522.15625 57.044922 C 520.66489 69.721483 515.0708 83.516087 505.37695 98.429688 C 505.37695 104.39513 509.10569 107.37891 516.5625 107.37891 L 515.44336 112.9707 C 515.44336 116.6991 517.30871 118.5625 521.03711 118.5625 C 516.56303 122.2909 516.56303 125.64619 521.03711 128.62891 C 521.03711 140.55979 525.13736 146.52539 533.33984 146.52539 L 549 146.52539 L 555.71094 162.18555 C 532.2299 162.18555 514.67673 169.90467 503.56641 185.29883 L 503.56445 185.21875 L 411.46094 271.52344 L 294.48047 280.37305 C 277.3217 266.71473 262.78217 261.42009 250.86133 264.48828 C 238.94045 267.55644 229.46925 268.36207 222.44727 266.9043 C 215.42525 265.44649 211.97154 266.25377 212.08594 269.32617 C 210.76805 272.81384 212.08357 275.34385 216.0332 276.91602 C 219.98278 278.48826 225.10516 278.75003 231.40039 277.70117 C 237.69559 276.65231 243.40745 276.93586 248.53516 278.55469 C 252.73904 279.66497 252.69163 280.8439 248.39453 282.08984 C 231.60021 283.07725 219.589 282.48455 212.35938 280.31055 C 205.12973 278.13661 195.35958 274.56269 183.04883 269.5918 C 179.97644 269.70623 177.40412 273.55875 175.33398 281.14648 C 173.26382 288.73422 174.18098 293.90203 178.08398 296.65234 C 187.2079 298.66527 197.00175 301.64969 207.46484 305.60352 C 212.32532 307.4402 216.63986 308.8176 220.61328 309.90625 L 220.61328 890.06641 L 245.61328 890.06641 L 245.61328 311.03516 C 259.53124 309.56394 272.42207 307.70477 284.28516 305.45703 C 344.56914 322.1364 385.24942 315.29738 420.99219 310.875 C 434.08966 307.91071 463.17403 286.56746 494.43359 259.80859 C 499.40386 271.96111 507.83169 282.40388 517.68164 291.93359 C 524.13491 298.17706 532.22176 301.62778 541.16992 303.11914 C 540.69395 308.16438 540.16889 313.39466 539.5957 318.81055 L 447.65234 329.30469 C 422.71877 317.85074 404.7118 314.82547 393.63281 320.22852 C 382.55377 325.63159 373.58695 328.34148 366.73242 328.35938 C 359.87784 328.37725 356.82074 330.25088 357.56055 333.98047 C 357.04016 336.61821 358.75823 338.32878 362.71484 339.10938 C 366.67144 339.88998 371.8203 339.16648 378.16211 336.93945 C 384.5039 334.71238 390.17037 333.77492 395.16016 334.12695 C 399.17543 334.07592 399.403 335.59568 395.8418 338.6875 C 379.14291 343.19263 367.15224 344.93716 359.86914 343.92188 C 352.58599 342.9066 342.29044 341.93092 328.98438 340.99219 C 325.94358 341.44628 324.23088 345.58699 323.8457 353.41602 C 323.4605 361.24509 325.21728 365.96589 329.11523 367.57812 C 337.79457 367.5918 347.23302 368.38379 357.03711 369.54883 L 357.03711 900.66211 L 382.03711 900.66211 L 382.03711 371.65234 C 383.63424 371.68298 385.12185 371.67437 386.49805 371.62695 C 404.97754 365.57591 421.3059 359.20636 435.48438 352.51758 C 477.54554 358.20417 507.73685 360.28744 534.82422 359.48633 C 531.21906 387.81377 526.62315 419.91732 521.03711 455.79688 C 511.34327 518.06117 513.58012 573.61496 527.74805 622.45703 C 541.91597 671.29906 550.11843 718.83619 552.35547 765.06836 C 554.59251 811.30049 551.98219 864.989 544.52539 926.13477 C 541.54267 942.53984 534.27287 951.30153 522.71484 952.41992 C 511.15678 953.5385 500.90324 956.14875 491.95508 960.25 C 483.00692 964.35123 470.7042 968.63924 455.04492 973.11328 L 428.19922 973.11328 C 428.19922 991.75539 435.28325 1000.7028 449.45117 999.95703 L 656.37695 999.95703 C 672.03623 992.50023 676.13844 975.72189 668.68164 949.62305 L 668.68164 918.30469 C 676.13844 853.43052 678.56107 804.58922 675.95117 771.7793 C 673.34132 738.96937 668.68182 710.44751 661.9707 686.21289 C 655.25958 661.9783 657.8699 623.94783 669.80078 572.12305 C 681.73166 520.2983 686.95034 482.45551 685.45898 458.59375 C 683.96761 428.76654 673.90177 398.93853 655.25977 369.11133 C 656.75112 331.82738 660.47989 300.50935 666.44531 275.15625 L 683.22266 275.15625 L 683.22266 246.07422 C 705.59307 189.40254 705.59307 161.06641 683.22266 161.06641 L 683.22266 106.25977 C 683.22266 71.958483 675.20593 45.673477 659.17383 27.404297 C 643.14169 9.1351536 621.70386 0 594.85938 0 z M 594.85938 13.421875 C 617.97546 13.421875 636.24378 21.812023 649.66602 38.589844 C 663.08826 55.367627 669.80078 75.687065 669.80078 99.548828 L 669.80078 263.9707 L 597.0957 263.9707 L 597.0957 93.955078 C 609.77227 83.515557 616.11133 73.07624 616.11133 62.636719 C 616.11133 53.688558 612.38258 49.214844 604.92578 49.214844 C 595.97762 49.214844 591.50391 54.806987 591.50391 65.992188 C 571.37055 51.824265 553.10027 46.605583 536.69531 50.333984 C 542.66074 25.726541 562.04945 13.421875 594.85938 13.421875 z M 604.92578 53.689453 C 608.65419 53.689453 610.51758 56.671278 610.51758 62.636719 C 610.51758 69.34784 605.67237 77.5503 595.97852 87.244141 L 584.79297 87.244141 L 584.79297 162.18555 C 569.87937 162.18555 561.67691 153.98309 560.18555 137.57812 L 538.93359 137.57812 C 532.22247 137.57813 528.86719 134.96781 528.86719 129.74805 C 528.86719 124.52829 532.59398 119.3096 540.05078 114.08984 L 524.39258 108.49609 C 524.39258 101.78497 521.4088 98.429688 515.44336 98.429688 L 525.51172 76.058594 L 532.22266 58.162109 C 544.15354 54.433708 561.67689 58.162455 584.79297 69.347656 L 584.79297 76.058594 L 595.97852 76.058594 C 595.97852 61.144992 598.96034 53.689453 604.92578 53.689453 z M 542.77734 61.152344 C 537.88382 61.39702 533.61956 62.63796 529.98438 64.875 L 529.98438 71.585938 C 540.4239 64.874817 554.59196 65.246324 572.48828 72.703125 L 579.19922 72.703125 L 579.19922 68.230469 L 572.48828 68.230469 C 560.83703 63.103918 550.93322 60.74455 542.77734 61.152344 z M 549 69.347656 C 538.56047 69.347656 531.8499 72.702941 528.86719 79.414062 L 528.86719 81.652344 L 534.45898 81.652344 C 536.69602 83.889385 540.0513 85.007812 544.52539 85.007812 C 548.99946 85.007812 557.94885 83.142464 571.37109 79.414062 L 579.19922 80.533203 L 579.19922 76.058594 L 571.37109 76.058594 C 560.18589 72.330193 552.7284 70.093336 549 69.347656 z M 550.11914 73.822266 C 554.59322 74.567946 559.06694 76.059834 563.54102 78.296875 C 560.5583 79.042555 555.71112 79.787523 549 80.533203 C 551.23704 79.787523 552.35547 78.669094 552.35547 77.177734 C 552.35547 76.432054 551.6105 75.313627 550.11914 73.822266 z M 542.14648 74.951172 C 541.49529 75.042457 541.16992 75.784057 541.16992 77.177734 C 541.16992 78.669094 542.28835 79.787523 544.52539 80.533203 C 541.54267 80.533203 537.81393 80.159742 533.33984 79.414062 C 536.27506 76.478858 539.21128 74.997931 542.14648 74.951172 z M 536.69531 174.48828 L 584.79297 174.48828 L 584.79297 275.15625 L 593.74023 275.15625 L 585.83203 285.22266 L 540.05078 285.22266 C 525.88286 285.22266 509.09161 268.47883 504.86523 250.75195 C 513.81339 235.83834 523.64761 231.72024 522.15625 209.72266 C 520.66489 187.72512 525.51011 175.97964 536.69531 174.48828 z M 651.86914 280.33984 L 650.78516 285.22266 L 647.5918 285.22266 C 648.99209 283.63031 650.41783 282.00253 651.86914 280.33984 z M 563.54102 296.4082 L 577.04297 296.4082 L 561.39844 316.32227 C 562.16859 309.51122 562.88357 302.87307 563.54102 296.4082 z M 637.6582 296.4082 L 640.71875 296.4082 C 639.22739 305.35636 636.99053 330.70871 634.00781 372.4668 C 652.64981 401.54832 662.34221 430.62941 663.08789 459.71094 C 664.57925 483.5727 658.98711 521.41744 646.31055 573.24219 C 633.63399 625.06698 631.2114 663.28319 639.04102 687.89062 C 646.87068 712.49806 651.90359 740.83223 654.14062 772.89648 C 656.37766 804.96072 653.39584 846.71998 645.19336 898.17188 L 565.77734 898.17188 C 573.97982 857.90518 576.9636 813.53756 574.72656 765.06836 C 571.74384 716.59915 563.16792 667.3844 549 617.42383 C 534.83208 567.46326 532.59522 512.46867 542.28906 452.44141 C 547.77558 418.46722 552.42578 387.06123 556.24023 358.22266 C 562.02951 357.71027 567.78122 357.06532 573.59375 356.29492 C 584.99653 350.22993 602.18892 335.92899 637.6582 296.4082 z M 583.67383 920.54297 L 622.82227 920.54297 L 623.94141 939.55664 C 623.19573 943.28504 609.02767 951.11407 581.4375 963.04492 C 584.42022 947.38567 585.16519 933.21953 583.67383 920.54297 z " />
</svg>
