<?xml version="1.0" encoding="UTF-8" standalone="no"?>
<svg
   width="800"
   height="1000"
   version="1.1"
   id="svg1"
   sodipodi:docname="13726.svg"
   inkscape:version="1.4.2 (f4327f4, 2025-05-13)"
   xmlns:inkscape="http://www.inkscape.org/namespaces/inkscape"
   xmlns:sodipodi="http://sodipodi.sourceforge.net/DTD/sodipodi-0.dtd"
   xmlns="http://www.w3.org/2000/svg"
   xmlns:svg="http://www.w3.org/2000/svg">
  <defs
     id="defs1" />
  <sodipodi:namedview
     id="namedview1"
     pagecolor="#ffffff"
     bordercolor="#000000"
     borderopacity="0.25"
     inkscape:showpageshadow="2"
     inkscape:pageopacity="0.0"
     inkscape:pagecheckerboard="0"
     inkscape:deskcolor="#d1d1d1"
     inkscape:zoom="0.43087044"
     inkscape:cx="-17.406625"
     inkscape:cy="692.78366"
     inkscape:window-width="1680"
     inkscape:window-height="998"
     inkscape:window-x="-8"
     inkscape:window-y="-8"
     inkscape:window-maximized="1"
     inkscape:current-layer="svg1"
     showguides="true" />
  <path
     id="path1"
     style="fill:#000000;stroke:none;stroke-width:50.4696"
     d="M 456.78906 0.03125 C 444.1627 0.28241094 432.51838 2.415186 422.2793 6.1386719 C 393.28747 16.681666 378.67296 38.936279 381.30273 62.765625 C 378.14045 64.841098 375.18041 66.936419 372.42383 69.052734 C 360.94032 63.144101 347.71769 60.571946 334.04492 61.382812 C 287.95734 64.116047 236.75097 105.28607 229.76367 186.67383 C 228.32067 203.482 231.28866 210.68136 236.36133 210.86914 C 241.434 211.05692 244.06537 195.47668 244.70898 187.95703 C 252.73607 94.171522 320.16965 65.117703 360.13086 80.015625 C 344.23882 96.817701 340.33378 114.82687 348.41797 134.04297 C 350.54091 142.51343 355.31275 152.57258 362.73242 164.2168 C 364.17021 178.03544 366.18824 186.98115 368.78516 191.05664 C 369.8981 192.80328 373.26024 192.29767 378.87109 189.54102 L 379.0332 195.57617 C 380.9396 195.9986 382.4762 195.8416 383.64062 195.09961 C 384.5423 197.79947 386.02559 200.12811 388.0918 202.08594 L 391.58398 199.85742 C 395.35065 212.19215 402.76614 214.83579 413.82812 207.78711 L 428.67383 198.32617 C 445.60827 201.56815 446.09362 215.38293 439.8125 231.23438 C 432.16618 240.05456 427.46421 248.96857 426.06641 251.81055 C 416.35852 271.54811 403.34535 297.21288 394.48242 333.18945 C 375.42748 350.52701 363.33844 366.03231 358.23633 379.63086 C 330.02915 388.1383 308.17322 399.88241 292.59766 414.88477 C 262.66826 427.35994 241.89193 436.63541 230.31836 442.74805 C 218.74478 448.86074 208.06512 461.09395 198.21484 479.45117 C 199.79638 485.50449 202.48833 488.2692 206.28711 487.70508 C 210.08558 487.14052 213.06042 484.95767 215.29688 481.14062 C 221.25244 472.26391 228.08573 465.19351 235.78516 459.90234 C 243.48458 454.61116 252.59724 452.33791 262.98242 453.14453 C 262.65317 458.07924 257.95999 462.45536 249.01562 466.26367 C 240.07344 470.07256 236.93078 474.36365 239.47852 479.02344 C 261.75734 475.48779 286.81728 459.55856 314.64062 431.37305 L 330.06641 435.89258 C 302.34761 448.45554 281.60034 465.91787 267.81836 488.1543 C 271.03139 492.45064 275.91364 490.80885 282.5918 483.2793 C 289.27428 475.73323 296.97817 471.51993 305.60547 470.69336 C 298.74493 482.65905 291.54419 491.60072 283.95117 497.48242 C 276.35876 503.3638 267.40105 507.56649 257.14062 510.15039 C 252.41843 511.00521 249.44393 513.18662 248.13086 516.71484 C 246.81386 520.24473 248.36573 523.84186 252.91211 527.41016 C 273.49562 523.93717 289.63702 516.98458 301.3125 506.70898 C 312.98757 496.43323 324.77579 481.65231 336.62305 462.20312 C 361.28912 454.33574 378.29357 441.97875 387.69141 425.16602 C 412.96091 415.23903 430.80003 393.60266 441.11914 360.28906 C 452.72198 361.11411 469.33177 345.60366 476.05273 330.39258 C 479.02637 331.30251 482.2478 331.82826 485.75781 331.95898 C 491.0118 332.15466 499.49201 334.42351 505.48438 345.84961 C 523.62234 380.43474 533.75655 404.56357 521.33008 464.625 C 508.90357 524.68642 508.21398 578.87976 519.25977 627.20508 C 530.30553 675.53032 535.82617 722.13041 535.82617 767.00391 C 535.82617 811.8774 528.57764 864.00006 514.08008 923.37109 C 514.08008 938.559 509.42142 947.18866 500.10156 949.25977 C 490.78168 951.33086 480.7709 955.29992 470.07031 961.16797 C 459.36969 967.03623 446.77102 971.35009 432.27344 974.11133 L 406.38477 974.11133 C 405.69443 991.37043 411.9066 1000 425.02344 1000 L 621.77734 1000 C 636.96525 993.78685 641.79825 978.25338 636.27539 953.40039 L 636.27539 922.33594 C 647.32113 859.5131 652.67134 812.04906 652.32617 779.94727 C 651.981 747.84549 649.04631 719.71346 643.52344 695.55078 C 638.00053 671.38812 642.31637 634.45407 656.46875 584.74805 C 670.62116 535.04206 677.69727 498.45274 677.69727 474.98047 C 677.69727 432.17016 672.75613 390.78048 647.10156 368.55469 C 637.4578 334.00243 613.15899 289.67126 593.71289 259.76172 L 606.21484 251.72461 C 606.21484 251.72461 567.53384 191.03927 548.13281 160.57031 C 518.49448 113.21782 471.37072 38.074194 410.27344 50.492188 C 405.61427 51.439159 400.87493 52.893736 396.05469 54.910156 C 397.17786 37.982504 411.1104 26.162383 427.40625 20.236328 C 450.09964 11.983783 483.61478 12.618604 519.85938 29.398438 C 526.9905 32.006557 542.33403 37.602122 544.53711 34.054688 C 546.74019 30.507254 543.04158 23.601661 526.16211 15.787109 C 501.60745 4.4192641 477.833 -0.38735156 456.78906 0.03125 z M 420.70703 60.332031 C 465.73467 58.576732 504.62527 115.18216 537.06836 166.09766 L 589.93359 249.0625 L 527.05273 289.12891 L 439.13086 151.14453 C 439.23383 146.16733 439.654 139.7606 440.39062 131.92383 C 441.12725 124.08701 439.26819 116.67403 434.81641 109.6875 C 428.88066 100.37215 421.83654 98.312086 413.68555 103.50586 C 407.86343 107.21573 405.93522 112.53761 407.89844 119.47266 C 403.07565 111.90392 396.66769 109.23433 388.67383 111.46289 C 380.67996 113.69148 370.75584 118.99232 358.90039 127.36523 C 350.09973 108.41494 360.54553 89.480728 390.23828 70.560547 C 397.50715 65.928842 404.63329 62.97704 411.61914 61.480469 C 414.67545 60.825719 417.70519 60.449051 420.70703 60.332031 z M 422.4375 110.19141 C 424.41054 110.27731 426.207 111.59345 427.83008 114.14062 C 430.05596 117.63389 430.64137 124.01462 429.58789 133.28125 C 428.53442 142.5478 428.03695 150.43658 428.09375 156.94922 L 463.98242 213.27148 C 461.35197 214.27012 458.84607 215.50661 456.4668 216.91797 C 456.46374 205.16693 449.26305 194.22609 434.38672 186.09375 L 412.55273 200.00391 C 406.7306 203.71375 402.70637 203.82334 400.48047 200.33008 C 397.35283 194.13695 397.93205 189.2649 402.21875 185.71484 C 400.36383 182.80378 398.37934 181.61377 396.26172 182.14453 L 386.6543 188.26758 C 385.80401 183.07912 381.6188 181.65214 374.10156 183.98633 C 372.61761 181.65745 371.44739 173.39664 370.5918 159.20703 C 366.14 152.22047 363.70318 145.17876 363.27539 138.08398 C 371.47781 130.4016 380.10552 125.31428 389.1582 122.82031 C 398.21088 120.32637 405.33356 123.15373 410.52734 131.30469 L 420.13281 125.18555 C 415.681 118.19899 415.20204 113.59115 418.69531 111.36523 C 420.00529 110.53053 421.25368 110.13986 422.4375 110.19141 z M 401.46875 124.79883 L 396.22852 128.13672 C 379.49879 131.42949 369.78825 138.02872 367.09375 147.93164 L 371.30469 152.61523 C 373.6282 142.13008 382.86419 135.42566 399.01172 132.50391 L 404.25 129.16406 L 401.46875 124.79883 z M 406.47656 132.6582 L 401.23633 135.99609 C 391.23043 138.27882 385.0632 140.16255 382.73438 141.64648 C 375.16564 146.46927 372.36295 152.34811 374.32617 159.2832 L 375.43945 161.03125 L 378.93359 158.80469 C 382.37541 159.06738 385.07339 158.16579 387.03125 156.09961 C 390.5245 153.87374 395.81675 148.04619 402.90625 138.61719 L 408.14648 135.27734 L 406.47656 132.6582 z M 392.83789 141.19141 C 393.3832 141.16124 393.75588 141.38568 393.85938 142.00195 C 393.99736 142.82367 395.46866 141.71859 396.23633 141.63867 C 394.86069 143.33386 392.4002 146.53943 388.85547 151.25391 C 389.27792 149.34752 389.11892 147.8109 388.37695 146.64648 C 388.00598 146.06427 387.15816 145.37746 385.83398 144.58398 C 388.00763 143.65942 391.20197 141.2819 392.83789 141.19141 z M 380.11914 150.06445 C 380.10594 150.61733 380.33084 151.36219 381.07422 152.5293 C 381.44518 153.1115 382.8727 153.42707 385.36133 153.47852 C 383.61468 154.59148 380.62393 155.6807 376.38867 156.74219 C 376.95228 154.19884 379.15613 151.4053 380.11914 150.06445 z M 470.90234 224.13086 L 522.69531 305.41406 L 577.42188 270.23242 C 598.71492 303.52617 621.04608 347.9565 631.22461 380.41016 C 652.44469 398.65329 657.5918 447.08584 657.5918 475.39062 C 657.5918 498.86289 648.70267 535.04206 634.20508 584.74805 C 619.70749 634.45407 615.56405 671.38812 621.77734 695.55078 C 627.99055 719.71346 631.27004 747.67504 631.61523 779.43164 C 631.96043 811.18827 626.95501 851.57226 616.59961 900.58789 L 539.96875 900.58789 C 550.32422 859.16626 555.50195 814.98365 555.50195 768.03906 C 555.50195 720.40416 549.97939 671.90575 538.93359 622.54492 C 527.88782 573.1841 528.75177 519.68034 541.52344 462.03516 C 547.88905 433.30396 546.1548 405.14985 537.25195 376.34375 C 529.13589 350.08355 522.95841 337.58564 500.30078 320.53125 C 496.21178 317.45344 489.57031 316.4168 485.24219 316.00977 C 477.16977 315.25064 470.28211 310.08516 464.12891 298.00391 C 470.93478 286.8521 480.11885 268.26986 472.58789 272.14062 C 459.37272 281.88167 454.75576 292.82218 443.38086 306.5918 C 431.43588 321.05154 418.67692 326.93336 411.98438 324.97266 C 419.46193 297.53515 428.95283 276.16672 437.45703 257.72461 C 445.71453 239.81756 456.81559 228.75175 470.90234 224.13086 z M 454.54297 311.51172 C 456.68378 315.21838 459.00063 318.4469 461.55859 321.17578 C 455.66694 342.29 420.89257 358.88898 382.17383 372.37891 C 387.42559 358.2649 399.2666 347.89879 417.69727 341.2793 C 433.14988 335.72936 444.09383 324.95456 454.54297 311.51172 z M 420.57422 376.07227 C 404.94606 398.886 387.08241 410.18461 367.03906 409.90234 C 346.99679 409.62054 327.49703 414.23909 308.49414 423.76562 C 317.77772 413.06874 331.35194 403.83657 349.23633 396.21875 C 367.12129 388.60053 390.91038 381.91663 420.57422 376.07227 z M 365.89258 421.00977 C 368.35306 420.8659 370.98682 420.89213 373.79492 421.08594 L 339.71289 448.83398 C 339.95947 431.29693 348.66919 422.01683 365.89258 421.00977 z M 556.53711 922.33594 L 594.85352 922.33594 L 594.85352 939.93945 C 593.47278 944.08167 580.35491 950.9853 555.50195 960.65039 C 556.88262 945.46242 557.22743 932.6914 556.53711 922.33594 z " />
</svg>
