<?xml version="1.0" encoding="UTF-8" standalone="no"?>
<svg
   width="500"
   height="1000"
   version="1.1"
   id="svg1"
   sodipodi:docname="13736.svg"
   inkscape:version="1.4.2 (f4327f4, 2025-05-13)"
   xmlns:inkscape="http://www.inkscape.org/namespaces/inkscape"
   xmlns:sodipodi="http://sodipodi.sourceforge.net/DTD/sodipodi-0.dtd"
   xmlns="http://www.w3.org/2000/svg"
   xmlns:svg="http://www.w3.org/2000/svg">
  <defs
     id="defs1" />
  <sodipodi:namedview
     id="namedview1"
     pagecolor="#ffffff"
     bordercolor="#666666"
     borderopacity="1.0"
     inkscape:showpageshadow="2"
     inkscape:pageopacity="0.0"
     inkscape:pagecheckerboard="0"
     inkscape:deskcolor="#d1d1d1"
     showguides="true"
     inkscape:zoom="0.53386562"
     inkscape:cx="208.85406"
     inkscape:cy="484.20425"
     inkscape:window-width="1680"
     inkscape:window-height="998"
     inkscape:window-x="-8"
     inkscape:window-y="-8"
     inkscape:window-maximized="1"
     inkscape:current-layer="svg1">
    <sodipodi:guide
       position="486.00353,894.20528"
       orientation="1,0"
       id="guide1"
       inkscape:locked="false" />
    <sodipodi:guide
       position="321.59127,659.01045"
       orientation="-0.61256851,0.7904175"
       id="guide2"
       inkscape:locked="false" />
  </sodipodi:namedview>
  <path
     id="path1"
     style="fill:#000000;stroke:none;stroke-width:1"
     d="M 396.48438 0 C 353.75958 -4.7369516e-15 329.68511 18.989182 324.25977 56.966797 C 322.22522 69.173872 316.46117 83.075888 306.9668 98.673828 C 306.9668 104.09921 311.03578 106.8125 319.17383 106.8125 L 317.13867 112.91602 C 317.13867 116.30687 319.17319 118.34132 323.24219 119.01953 C 318.49503 122.41036 318.49503 125.80057 323.24219 129.19141 C 323.24219 141.39849 327.31117 147.50195 335.44922 147.50195 L 350.70898 147.50195 L 357.83008 161.74414 C 329.61398 161.74414 309.22417 168.85855 296.6582 183.08594 L 296.6582 183.08203 L 296.63867 183.10547 C 296.63563 183.10892 296.63195 183.11179 296.62891 183.11523 C 293.64176 177.14257 290.5357 170.89688 287.23633 164.25391 C 275.11986 125.309 263.98416 101.13515 253.83203 91.734375 C 243.67994 82.333599 236.88485 74.172275 233.44336 67.248047 C 230.99894 66.071795 226.84493 67.272574 220.98438 70.849609 C 215.12401 74.426703 213.28177 77.866304 215.45508 81.169922 C 220.1188 88.682274 225.21151 94.518822 230.73438 98.681641 C 236.2573 102.84444 242.76573 111.99806 250.25977 126.14062 C 250.89388 127.95099 250.30646 129.17254 248.49609 129.80664 C 246.6858 130.44071 243.92961 128.73996 240.22852 124.70117 C 236.52743 120.66242 233.65693 116.45908 231.61914 112.0918 C 229.5814 107.72453 226.95611 104.57931 223.74219 102.65625 C 220.52817 100.73337 218.33249 100.99309 217.15625 103.4375 C 215.66297 104.97677 216.69404 107.91937 220.24805 112.26367 C 223.80209 116.608 227.23726 123.15238 230.55469 131.89844 C 233.87216 140.6445 245.53674 154.72405 265.54688 174.13672 C 265.54688 174.13672 268.64519 189.16179 274.4707 210.80859 L 217.95508 281.42969 L 154.62109 203.98438 C 157.03519 188.35213 156.04372 174.95956 151.64648 163.80664 C 147.24921 152.65368 145.45992 143.66872 146.27734 136.85156 C 147.09472 130.03451 145.59365 126.80066 141.77344 127.15234 C 138.29897 126.02737 136.02049 127.44053 134.93945 131.39258 C 133.85862 135.34457 134.21299 140.48946 136 146.82617 C 137.78728 153.16287 138.42186 158.76193 137.90625 163.625 C 137.39057 168.48805 135.9589 168.62094 133.60938 164.02148 C 129.68389 147.52788 128.58374 135.58947 130.3125 128.20703 L 137.57227 97.201172 C 137.30865 94.335963 133.26922 92.298838 125.45312 91.091797 C 117.63699 89.884778 112.47255 91.324366 109.95898 95.408203 C 109.3613 104.61292 107.76469 114.75041 105.17188 125.82422 C 102.57914 136.89802 101.59187 145.7776 102.20703 152.46289 C 105.35329 170.95444 113.57875 189.70176 126.88477 208.70312 C 132.40341 221.99176 180.92035 320.20863 212.84375 345.52734 C 225.74024 344.16912 262.51323 306.41385 292.09961 267.35352 C 301.37083 292.96498 312.86909 318.84733 326.27344 337.71094 C 330.80041 336.34401 335.36268 334.68328 340.01758 332.67578 C 335.57403 367.07282 329.81329 408.26101 322.73438 456.24023 C 313.57905 518.29291 315.95292 573.7322 329.85547 622.56055 C 343.75798 671.38891 352.06467 719.20032 354.77734 765.99414 C 356.81186 811.43159 354.09856 865.00712 346.63867 926.7207 C 343.2478 942.99684 335.78864 951.64493 324.25977 952.66211 C 312.73085 953.6794 302.55844 956.22201 293.74219 960.29102 C 284.92595 964.36003 272.719 968.76841 257.12109 973.51562 L 229.6543 973.51562 C 229.6543 991.82617 236.77596 1000.641 251.01758 999.96289 L 458.53711 999.96289 C 474.13504 993.18114 478.204 976.56587 470.74414 950.11719 L 470.74414 918.58398 C 478.20422 853.47954 480.57792 804.48114 477.86523 771.58984 C 475.15256 738.69854 470.40479 710.21576 463.62305 686.14062 C 456.84136 662.06561 459.38592 624.08721 471.25391 572.20703 C 483.12191 520.32695 488.37785 482.1798 487.02148 457.76562 C 485.66516 428.60426 475.83018 398.76378 457.51953 368.24609 C 458.87588 331.62483 462.60741 300.76813 468.71094 275.67578 L 486.00391 275.67578 L 486.00391 216.0293 C 507.19675 187.72978 502.28 161.74414 486.00391 161.74414 L 486.00391 105.79492 C 486.00391 71.886372 477.86594 45.777446 461.58984 27.466797 C 445.3137 9.1561849 423.61122 0 396.48438 0 z M 396.48438 12.207031 C 419.5422 12.207031 437.85259 20.85311 451.41602 38.146484 C 464.97945 55.439859 471.76172 75.615995 471.76172 98.673828 L 471.76172 263.46875 L 398.51953 263.46875 L 398.51953 93.587891 C 412.08296 83.415331 418.86523 72.903492 418.86523 62.052734 C 418.86523 53.236524 414.79625 48.828125 406.6582 48.828125 C 397.84197 48.828125 393.43359 54.252795 393.43359 65.103516 C 373.08846 51.540085 354.77805 46.454839 338.50195 49.845703 C 344.60549 24.753358 363.93217 12.207031 396.48438 12.207031 z M 406.6582 53.914062 C 410.7272 53.914063 412.76172 56.627355 412.76172 62.052734 C 412.76172 69.512627 408.01393 77.989973 398.51953 87.484375 L 387.33008 87.484375 L 387.33008 161.74414 C 372.4103 161.74414 363.93297 153.60618 361.89844 137.33008 L 340.53516 137.33008 C 333.75346 137.33008 330.7027 134.61679 331.38086 129.19141 C 331.38086 124.44423 335.11042 119.35897 342.57031 113.93359 L 326.29492 107.83008 C 326.29492 101.72655 323.2422 98.673828 317.13867 98.673828 L 327.31055 75.277344 L 331.41602 65.308594 L 332.39844 71.207031 C 342.57104 64.425335 356.81243 64.764716 375.12305 72.224609 L 381.22656 72.224609 L 381.22656 68.15625 L 375.12305 68.15625 C 356.2371 59.387796 341.71183 58.333215 331.54688 64.994141 L 334.43164 57.984375 C 345.96056 53.91535 363.59409 57.644911 387.33008 69.173828 L 387.33008 75.277344 L 398.51953 75.277344 C 398.51953 61.035722 401.23282 53.914062 406.6582 53.914062 z M 350.70898 69.173828 C 340.53638 69.173828 333.75412 72.564007 330.36328 79.345703 L 331.38086 81.380859 L 336.4668 81.380859 C 339.17947 83.41539 342.23024 84.431641 345.62109 84.431641 C 350.36827 85.109799 359.52446 83.41471 373.08789 79.345703 L 380.20898 80.363281 L 380.20898 76.294922 L 373.08789 76.294922 C 362.23717 72.225899 354.778 69.851986 350.70898 69.173828 z M 343.58789 74.259766 C 342.90995 74.93798 342.57031 75.616763 342.57031 76.294922 C 342.57031 78.329453 343.58656 79.685122 345.62109 80.363281 C 342.90838 80.363281 339.51822 80.023862 335.44922 79.345703 C 338.84007 75.954855 341.55336 74.259766 343.58789 74.259766 z M 351.72656 74.259766 C 356.47378 74.937963 360.88023 76.29361 364.94922 78.328125 C 362.23654 79.006283 357.49067 79.685122 350.70898 80.363281 C 352.74345 79.685122 353.75977 78.66692 353.75977 77.310547 C 353.75977 76.632389 353.08287 75.616138 351.72656 74.259766 z M 338.50195 173.95117 L 387.33008 173.95117 L 387.33008 235.79492 L 345.82227 274.53711 C 336.00438 257.73098 328.00306 243.44016 320.57617 229.60547 C 323.07374 223.65172 324.39222 217.37037 323.75195 209.04688 C 322.05651 187.00633 326.973 175.30752 338.50195 173.95117 z M 418.48828 275.67578 L 452.43359 275.67578 L 452.43359 284.83203 L 408.51172 284.83203 C 411.74948 281.92165 415.07316 278.87104 418.48828 275.67578 z M 394.45703 297.03906 L 443.2793 297.03906 C 441.24479 305.17711 438.5315 330.2698 435.14062 372.31641 C 454.12944 401.47778 464.30184 430.63941 465.6582 459.80078 C 467.01451 483.53677 461.25046 521.34448 448.36523 573.22461 C 435.47996 625.10468 433.10605 663.25181 441.24414 687.66602 C 449.38219 712.08017 454.46939 740.56301 456.50391 773.11523 C 458.53842 805.66744 455.48574 847.37545 447.34766 898.23828 L 368.00195 898.23828 C 376.14 858.22615 378.85332 813.80491 376.14062 764.97656 C 373.42795 716.82642 364.95057 667.65928 350.70898 617.47461 C 336.46735 567.28994 334.26218 512.18809 344.0957 452.16992 C 352.20268 402.6894 358.35203 358.85551 362.54102 320.66797 C 372.35179 314.49338 382.84894 306.73932 394.45703 297.03906 z M 385.29492 920.61719 L 424.96875 920.61719 L 425.98438 939.94531 C 425.30622 943.3361 411.06478 951.13467 383.25977 963.3418 C 385.97245 947.74388 386.65129 933.50248 385.29492 920.61719 z " />
</svg>
