<?xml version="1.0" encoding="UTF-8" standalone="no"?>
<svg
   width="800"
   height="1000"
   version="1.1"
   id="svg1"
   sodipodi:docname="1373B.svg"
   inkscape:version="1.4.2 (f4327f4, 2025-05-13)"
   xmlns:inkscape="http://www.inkscape.org/namespaces/inkscape"
   xmlns:sodipodi="http://sodipodi.sourceforge.net/DTD/sodipodi-0.dtd"
   xmlns="http://www.w3.org/2000/svg"
   xmlns:svg="http://www.w3.org/2000/svg">
  <defs
     id="defs1" />
  <sodipodi:namedview
     id="namedview1"
     pagecolor="#ffffff"
     bordercolor="#666666"
     borderopacity="1.0"
     inkscape:showpageshadow="2"
     inkscape:pageopacity="0.0"
     inkscape:pagecheckerboard="0"
     inkscape:deskcolor="#d1d1d1"
     showguides="true"
     inkscape:zoom="0.32810209"
     inkscape:cx="-187.44166"
     inkscape:cy="836.62984"
     inkscape:window-width="1680"
     inkscape:window-height="998"
     inkscape:window-x="-8"
     inkscape:window-y="-8"
     inkscape:window-maximized="1"
     inkscape:current-layer="svg1">
    <sodipodi:guide
       position="82.722656,166.44922"
       orientation="0,-1"
       id="guide22"
       inkscape:locked="false" />
    <sodipodi:guide
       position="470.64062,975.08984"
       orientation="0,-1"
       id="guide23"
       inkscape:locked="false" />
  </sodipodi:namedview>
  <path
     id="path2"
     style="fill:#000000;stroke:none;stroke-width:53.4255"
     d="M 383.35742 0.005859375 C 382.1805 0.041794335 380.9805 0.24673618 379.75781 0.62109375 C 374.86701 2.1185443 370.66867 4.2652952 367.16406 7.0625 C 363.65946 9.8597059 362.84526 12.581435 364.7207 15.214844 C 366.59613 17.854852 370.21604 18.877732 375.58203 18.253906 C 380.9483 17.643186 380.55462 19.449372 374.40039 23.675781 C 368.24685 27.902195 366.53047 37.827026 369.25 53.451172 C 371.2551 64.971004 375.87045 74.679889 382.41992 79.828125 C 379.76962 87.236097 377.8014 95.393986 376.51367 104.30078 C 375.24594 114.44244 375.24594 123.63295 376.51367 131.87305 C 367.00587 148.98715 362.25195 160.71419 362.25195 167.05273 C 362.25195 170.22201 366.68856 172.12202 375.5625 172.75586 L 371.75977 180.36328 C 373.02751 182.89868 374.92946 184.16602 377.46484 184.16602 C 376.19705 187.3353 375.87982 190.82186 376.51367 194.625 L 382.21875 194.625 C 377.78176 212.37293 384.43762 221.24609 402.18555 221.24609 L 420.25 221.24609 C 420.88384 227.58466 422.78579 233.6059 425.95508 239.31055 C 429.12433 245.01526 434.82825 251.98841 443.06836 260.22852 C 418.34801 261.49624 400.59971 268.15207 389.82422 280.19531 C 338.81422 321.1292 299.13958 369.30448 270.80078 424.72266 C 243.13438 443.21676 219.71683 458.01793 200.98633 474.46875 C 182.25573 490.91958 152.17873 506.98334 112.75977 522.15234 C 103.28287 518.28987 92.253066 514.81524 79.666016 511.72852 C 73.806356 509.63221 67.077672 508.64227 59.482422 508.75781 C 53.561472 509.47223 45.778263 511.76373 36.132812 515.63086 C 26.487272 519.49799 17.583442 521.62155 9.4199219 522.00586 C 6.5785119 523.34991 4.6483094 524.78609 3.6308594 526.31055 C 2.6133294 527.83501 3.3455519 529.74697 5.8261719 532.05078 C 4.1213419 532.85722 3.6052738 533.97193 4.2773438 535.39258 C 4.9493338 536.81332 5.8354763 537.95839 6.9414062 538.82617 C 5.5053363 540.20085 5.124885 541.59879 5.796875 543.01953 C 6.468955 544.44025 7.5086325 545.16469 8.9140625 545.19531 C 7.2092225 546.00176 6.7518688 547.61002 7.5429688 550.01758 C 8.3340688 552.4251 10.284351 553.23864 13.394531 552.46289 C 25.297871 548.2232 34.727841 544.63494 41.681641 541.69336 C 48.635421 538.75173 59.406667 538.00211 73.998047 539.44531 C 77.077677 540.07486 78.677765 540.88228 78.796875 541.86914 C 78.915905 542.85598 77.704019 543.60444 75.162109 544.11133 C 71.782969 544.31883 66.312547 543.77616 58.748047 542.48633 C 53.126507 542.36367 48.467308 543.17655 44.773438 544.92383 C 41.079557 546.67112 39.903987 548.96524 41.248047 551.80664 C 42.592097 554.64808 46.658536 555.16022 53.447266 553.33984 C 59.337666 554.03077 67.672702 555.47604 78.451172 557.67969 C 89.229772 559.88324 100.61608 556.75658 112.61133 548.30078 L 153.34375 537.37891 C 211.48565 514.74445 252.2538 498.65223 301.0293 466.28711 C 345.112 423.46393 376.28603 387.25265 394.54883 357.6543 C 399.58683 354.50553 400.84517 359.22723 398.32617 371.82227 C 395.80717 384.41732 389.36543 398.85494 376.14062 415.22852 C 376.13162 434.18881 385.76409 451.92948 405.03711 468.44922 C 375.39694 487.51932 353.42099 509.02933 338.52539 531.53125 C 323.62979 554.03307 326.36592 608.4287 334.30664 640.23633 C 262.0472 658.6181 188.57677 686.17961 107.44336 724.21094 C 43.424022 757.80521 35.183552 794.25178 82.722656 833.55078 L 572.375 833.55078 C 612.30774 834.81865 634.49261 833.55116 638.92969 829.74805 L 653.19141 829.74805 C 654.45917 818.97248 649.07059 812.31648 637.02734 809.78125 C 635.7596 804.07684 627.52107 801.54009 612.30859 802.17383 C 580.61583 783.15818 567.6215 766.67917 573.32617 752.73438 C 579.6648 742.59273 583.78428 731.81763 585.68555 720.4082 C 587.58712 708.99886 579.98124 702.34322 562.86719 700.44141 C 562.86719 583.17833 573.9596 483.97913 596.14453 402.8457 L 618.01172 402.8457 L 617.06641 334.73828 C 636.06369 383.38646 665.53399 435.52523 690.29883 471.80273 C 719.86133 505.42966 771.3925 545.60276 827.8125 586.27344 C 836.9656 605.05976 851.97655 616.95482 862.31055 623.23438 C 872.64465 629.51406 880.61441 634.20566 886.22461 637.30859 C 891.64901 643.54945 895.61801 645.67415 898.12891 643.68164 C 901.04641 641.20923 901.13171 638.19035 898.38281 634.62695 C 895.63401 631.06343 891.45385 627.73191 885.84375 624.62891 C 878.86795 621.19316 874.92203 616.34398 872.20703 610.67383 C 871.63873 609.487 867.95195 602.42473 874.99805 606.79297 C 889.05345 615.50677 898.77345 623.22271 904.03125 630.14648 C 909.28925 637.07014 916.81331 646.40989 926.75391 658.03516 C 930.00581 661.83812 934.0808 660.32555 934.7832 658.03711 C 935.3024 656.3449 935.38426 655.29925 935.03516 654.89844 C 936.62296 655.35425 937.86134 654.84063 938.74414 653.35938 C 939.72314 651.71699 939.93426 650.24931 939.38086 648.95703 C 940.34056 649.76959 941.42964 649.45688 942.64844 648.01758 C 943.86724 646.57821 943.75776 645.24804 942.31836 644.0293 C 945.38276 643.32917 947.04353 641.85354 947.30273 639.60156 C 947.56213 637.34979 947.29272 634.03468 943.98242 631.84961 C 935.51942 626.27001 927.709 618.47897 920.625 608.36133 C 911.0578 594.96098 899.67515 582.70341 883.31445 578.00195 C 869.50985 572.90232 854.99966 569.06489 844.97266 565.36719 C 813.41356 523.44461 768.65342 481.65646 737.60742 443.6543 C 714.95562 393.30817 682.73838 336.17433 652.89648 289.46289 C 640.41048 269.91861 628.3784 260.22852 617.0625 260.22852 C 617.62921 187.11943 609.26052 131.75292 592.0918 93.861328 L 597.24609 94.126953 L 618.29492 154.14648 L 636.01562 147.20898 L 608.95898 96.900391 C 618.87112 88.113887 617.12351 80.691311 603.71484 74.632812 C 620.61265 64.200921 627.90439 56.03148 625.5918 50.125 C 623.94672 43.140635 619.91394 39.712082 613.49219 39.839844 C 607.09351 39.969688 599.82901 51.973522 591.70117 75.849609 C 588.84312 75.979382 585.84806 76.064804 582.72852 76.113281 C 560.71061 41.674454 523.34717 24.607239 470.64062 24.910156 C 432.49027 25.129416 405.71615 37.8623 390.31836 63.109375 C 387.01279 56.01032 390.15898 48.651599 395.16992 42.560547 C 401.22793 35.195933 401.86585 26.648893 397.08203 16.921875 C 398.73905 12.383705 397.49019 8.1585655 393.33203 4.2460938 C 390.21355 1.3117467 386.88818 -0.10194551 383.35742 0.005859375 z M 473.96875 42.5 C 512.10199 42.5 540.52349 53.629344 559.23438 75.888672 C 511.89963 74.50882 449.46434 68.328544 406.35352 67.5625 C 417.72429 50.853662 440.26269 42.5 473.96875 42.5 z M 399.37891 83.947266 L 570.34961 92.742188 C 587.51556 125.31759 596.14453 181.05984 596.14453 260.22852 L 596.14453 380.97852 L 476.3457 380.97852 L 476.3457 173.70703 C 480.78265 167.36846 486.48656 158.49531 493.45898 147.08594 C 500.43136 135.67654 503.7603 123.47449 503.44336 110.48047 C 503.12643 97.486428 495.67827 92.257518 481.09961 94.792969 C 470.95791 94.792969 464.61935 101.13151 462.08398 113.80859 C 461.45009 103.66693 455.74622 96.218764 444.9707 91.464844 C 434.19516 86.710944 418.66419 85.918642 398.38086 89.087891 C 398.63409 87.315264 398.99044 85.618723 399.37891 83.947266 z M 414.30664 98.417969 C 419.53596 98.299131 426.90431 99.784982 436.41211 102.875 C 449.08923 106.99505 455.42773 115.7105 455.42773 129.02148 L 468.74023 129.02148 C 470.64184 116.97824 474.44373 110.95508 480.14844 110.95508 C 485.85311 110.95508 486.80513 116.97824 483.00195 129.02148 L 456.37891 170.85547 L 456.37891 248.81836 L 453.52734 247.86914 C 444.01952 243.43215 437.36368 230.75507 433.56055 209.83789 L 406.93945 209.83789 C 397.43163 209.83789 392.67773 206.98399 392.67773 201.2793 C 393.31156 192.40534 397.74816 187.3361 405.98828 186.06836 C 405.98828 180.99752 404.72096 178.46094 402.18555 178.46094 L 384.11914 178.46094 C 387.92229 170.8547 384.43765 165.78345 373.66211 163.24805 C 374.29593 158.81105 379.04986 148.35329 387.92383 131.87305 C 387.92383 119.82982 388.87381 110.95663 390.77539 105.25195 C 398.38164 102.71653 404.72018 100.65496 409.79102 99.070312 C 411.05873 98.674161 412.56354 98.457581 414.30664 98.417969 z M 413.11914 108.3418 C 404.87904 108.50025 398.06549 110.95507 392.67773 115.70898 L 393.62695 124.26758 C 405.03634 114.12588 421.2 113.17394 442.11719 121.41406 L 449.72461 121.41406 L 449.72461 114.75977 L 442.11719 114.75977 C 431.02474 110.32277 421.35925 108.18334 413.11914 108.3418 z M 415.49609 120.46289 C 402.81898 120.46289 394.89585 125.21681 391.72656 134.72461 L 392.67773 137.57812 L 398.38086 137.57812 C 401.55013 140.11356 405.67135 141.06357 410.74219 140.42969 C 415.81301 140.42969 426.27083 137.26039 442.11719 130.92188 L 450.67383 131.87305 L 449.72461 127.11914 L 442.11719 127.11914 C 428.80627 122.68213 419.93303 120.46289 415.49609 120.46289 z M 416.44727 126.16797 C 422.15197 126.16797 427.22117 127.43531 431.6582 129.9707 C 428.48892 131.23843 423.10231 132.82306 415.49609 134.72461 C 417.39763 133.4569 418.34766 131.87226 418.34766 129.9707 C 418.34766 128.70297 417.71499 127.4357 416.44727 126.16797 z M 406.93945 127.11914 C 406.30563 127.75298 405.98828 129.02031 405.98828 130.92188 C 405.98828 132.18959 407.25561 133.4569 409.79102 134.72461 C 406.62179 135.35845 402.50248 135.04309 397.43164 133.77539 C 401.23477 129.33842 404.40406 127.11914 406.93945 127.11914 z M 456.37891 282.09766 L 456.37891 402.8457 L 570.47266 402.8457 C 547.6539 484.61298 535.29411 589.19874 533.39258 716.60352 C 527.05406 768.57957 501.06724 792.98363 455.42969 789.81445 C 405.35515 786.64515 354.01227 778.08733 301.40234 764.14258 C 248.7924 750.19777 188.57638 762.55949 120.75391 801.22461 C 111.87996 805.6616 103.32215 801.70002 95.082031 789.33984 C 86.841923 776.97973 97.617049 762.24105 127.4082 745.12695 C 185.08897 718.50509 263.68797 689.66435 363.20312 658.60547 C 351.94473 615.53693 346.81967 562.93022 362.66602 538.84375 C 376.76453 517.41404 404.88183 495.64264 431.5957 475.96094 L 432.60938 460.84375 C 412.32601 444.36353 407.16141 430.17839 403.99219 414.33203 C 405.40056 413.04103 406.73153 411.72734 407.98438 410.39258 C 409.09879 409.16128 410.09384 407.89483 411.02734 406.60742 C 426.77045 387.1112 427.0839 363.27481 411.55078 334.98242 L 411.55078 296.25195 C 418.68152 284.58899 436.09558 282.09766 456.37891 282.09766 z M 108.03516 846.625 C 97.774606 847.11033 92.367084 853.17714 91.8125 864.82422 C 91.17863 878.13515 97.199853 885.42345 109.87695 886.69141 C 122.55406 887.32521 129.5272 880.98671 130.79492 867.67578 C 131.42875 854.36484 125.40754 847.39155 112.73047 846.75781 C 111.0666 846.59935 109.50095 846.55567 108.03516 846.625 z M 204.95703 846.625 C 194.69649 847.11033 189.28896 853.17714 188.73438 864.82422 C 188.1005 878.13515 194.12173 885.42345 206.79883 886.69141 C 219.47594 887.32521 226.44712 880.98671 227.71484 867.67578 C 228.34867 854.36484 222.32746 847.39155 209.65039 846.75781 C 207.98652 846.59935 206.42282 846.55567 204.95703 846.625 z M 301.87695 846.625 C 291.61641 847.11033 286.20888 853.17714 285.6543 864.82422 C 285.02043 878.13515 291.04165 885.42345 303.71875 886.69141 C 316.39586 887.32521 323.369 880.98671 324.63672 867.67578 C 325.27055 854.36484 319.24934 847.39155 306.57227 846.75781 C 304.90839 846.59935 303.34275 846.55567 301.87695 846.625 z M 398.79883 846.625 C 388.53828 847.11033 383.13076 853.17714 382.57617 864.82422 C 381.9423 878.13515 387.96353 885.42345 400.64062 886.69141 C 413.31774 887.32521 420.28892 880.98671 421.55664 867.67578 C 422.19047 854.36484 416.16926 847.39155 403.49219 846.75781 C 401.82832 846.59935 400.26462 846.55567 398.79883 846.625 z M 495.71875 846.625 C 485.45821 847.11033 480.05068 853.17714 479.49609 864.82422 C 478.86222 878.13515 484.88345 885.42345 497.56055 886.69141 C 510.23766 887.32521 517.2108 880.98671 518.47852 867.67578 C 519.11235 854.36484 513.09113 847.39155 500.41406 846.75781 C 498.75019 846.59935 497.18454 846.55567 495.71875 846.625 z M 592.64062 846.625 C 582.38009 847.11033 576.97255 853.17714 576.41797 864.82422 C 575.7841 878.13515 581.80532 885.42345 594.48242 886.69141 C 607.15953 887.32521 614.13267 880.98671 615.40039 867.67578 C 616.03422 854.36484 610.01105 847.39155 597.33398 846.75781 C 595.67011 846.59935 594.10643 846.55567 592.64062 846.625 z M 127.5625 903.26953 C 114.25153 902.63562 107.28029 908.97422 106.64648 922.28516 C 106.01261 935.59615 112.03384 942.56742 124.71094 943.20117 C 137.38805 944.46893 144.35923 938.44764 145.62695 925.13672 C 146.26078 911.82579 140.23957 904.53742 127.5625 903.26953 z M 224.48438 903.26953 C 211.17341 902.63562 204.20022 908.97422 203.56641 922.28516 C 202.93254 935.59615 208.95376 942.56742 221.63086 943.20117 C 234.30797 944.46893 241.28111 938.44764 242.54883 925.13672 C 243.18266 911.82579 237.16144 904.53742 224.48438 903.26953 z M 321.4043 903.26953 C 308.09333 902.63562 301.12209 908.97422 300.48828 922.28516 C 299.85441 935.59615 305.87563 942.56742 318.55273 943.20117 C 331.22984 944.46893 338.20298 938.44764 339.4707 925.13672 C 340.10453 911.82579 334.08137 904.53742 321.4043 903.26953 z M 418.32617 903.26953 C 405.0152 902.63562 398.04201 908.97422 397.4082 922.28516 C 396.77433 935.59615 402.79751 942.56742 415.47461 943.20117 C 428.15172 944.46893 435.12292 938.44764 436.39062 925.13672 C 437.02445 911.82579 431.00324 904.53742 418.32617 903.26953 z M 515.24805 903.26953 C 501.93708 902.63562 494.96389 908.97422 494.33008 922.28516 C 493.69621 935.59615 499.71743 942.56742 512.39453 943.20117 C 525.07164 944.46893 532.04478 938.44764 533.3125 925.13672 C 533.94633 911.82579 527.92512 904.53742 515.24805 903.26953 z M 612.16797 903.26953 C 598.857 902.63562 591.88576 908.97422 591.25195 922.28516 C 590.61808 935.59615 596.63931 942.56742 609.31641 943.20117 C 621.99352 944.46893 628.9647 938.44764 630.23242 925.13672 C 630.86625 911.82579 624.84504 904.53742 612.16797 903.26953 z M 142.39648 959.90234 C 129.08551 959.26849 122.11233 965.60704 121.47852 978.91797 C 120.84465 992.2289 126.86782 999.20025 139.54492 999.83398 C 152.22203 1001.1018 159.19322 995.08046 160.46094 981.76953 C 161.09477 968.45861 155.07355 961.17021 142.39648 959.90234 z M 239.31836 959.90234 C 226.00739 959.26849 219.0342 965.60704 218.40039 978.91797 C 217.76652 992.2289 223.78774 999.20025 236.46484 999.83398 C 249.14195 1001.1018 256.11509 995.08046 257.38281 981.76953 C 258.01664 968.45861 251.99543 961.17021 239.31836 959.90234 z M 336.23828 959.90234 C 322.92731 959.26849 315.95608 965.60704 315.32227 978.91797 C 314.6884 992.2289 320.70962 999.20025 333.38672 999.83398 C 346.06383 1001.1018 353.03501 995.08046 354.30273 981.76953 C 354.93656 968.45861 348.91535 961.17021 336.23828 959.90234 z M 433.16016 959.90234 C 419.84919 959.26849 412.876 965.60704 412.24219 978.91797 C 411.60832 992.2289 417.62954 999.20025 430.30664 999.83398 C 442.98375 1001.1018 449.95689 995.08046 451.22461 981.76953 C 451.85844 968.45861 445.83723 961.17021 433.16016 959.90234 z M 530.08008 959.90234 C 516.76911 959.26849 509.79787 965.60704 509.16406 978.91797 C 508.53019 992.2289 514.55142 999.20025 527.22852 999.83398 C 539.90563 1001.1018 546.87681 995.08046 548.14453 981.76953 C 548.77836 968.45861 542.75715 961.17021 530.08008 959.90234 z M 627.00195 959.90234 C 613.69098 959.26849 606.71779 965.60704 606.08398 978.91797 C 605.45011 992.2289 611.47134 999.20025 624.14844 999.83398 C 636.82555 1001.1018 643.79869 995.08046 645.06641 981.76953 C 645.70024 968.45861 639.67902 961.17021 627.00195 959.90234 z " />
</svg>
