<?xml version="1.0" encoding="UTF-8" standalone="no"?>
<svg
   width="800"
   height="1000"
   version="1.1"
   id="svg1"
   sodipodi:docname="1373C.svg"
   inkscape:version="1.4.2 (f4327f4, 2025-05-13)"
   xmlns:inkscape="http://www.inkscape.org/namespaces/inkscape"
   xmlns:sodipodi="http://sodipodi.sourceforge.net/DTD/sodipodi-0.dtd"
   xmlns="http://www.w3.org/2000/svg"
   xmlns:svg="http://www.w3.org/2000/svg">
  <defs
     id="defs1" />
  <sodipodi:namedview
     id="namedview1"
     pagecolor="#ffffff"
     bordercolor="#000000"
     borderopacity="0.25"
     inkscape:showpageshadow="2"
     inkscape:pageopacity="0.0"
     inkscape:pagecheckerboard="0"
     inkscape:deskcolor="#d1d1d1"
     inkscape:zoom="0.33548982"
     inkscape:cx="278.69698"
     inkscape:cy="-338.3113"
     inkscape:window-width="1680"
     inkscape:window-height="998"
     inkscape:window-x="-8"
     inkscape:window-y="-8"
     inkscape:window-maximized="1"
     inkscape:current-layer="svg1"
     showguides="true">
    <sodipodi:guide
       position="512.31793,939.23186"
       orientation="0,-1"
       id="guide3"
       inkscape:locked="false" />
    <sodipodi:guide
       position="459.34902,990.07209"
       orientation="0,-1"
       id="guide4"
       inkscape:locked="false" />
  </sodipodi:namedview>
  <path
     id="path1"
     style="fill:#000000;stroke:none;stroke-width:0.999998"
     d="m 385.08594,0 c -42.2646,3.0600889e-6 -81.46477,37.079295 -115.36328,77.998047 -4.25908,5.141109 -10.33819,17.108596 -4.61329,21.731447 5.72491,4.622846 15.90171,-4.005792 20.01563,-8.971682 C 317.75026,51.375996 355.53043,20.000002 385.08594,20 c 16.80382,-1e-6 37.11233,13.751014 54.5957,44.539062 -33.98976,8.743015 -53.61657,32.973864 -58.88086,72.695318 -1.82983,9.14913 -2.13591,17.99398 -0.91601,26.5332 -8.53921,16.46845 -12.8086,27.75407 -12.8086,33.85351 0,3.0497 3.96333,4.87636 11.89258,5.48633 l -3.6582,6.40625 c 1.82983,2.43979 3.96454,3.96428 6.40429,4.57422 -1.82982,3.04969 -2.13397,6.40476 -0.91406,10.06445 h 4.57422 c -3.65966,17.07838 3.04853,25.61719 20.12695,25.61719 h 17.38477 c 0,6.09944 1.52453,11.89332 4.57422,17.38281 3.04977,5.48948 8.84363,12.19966 17.38281,20.12891 -24.39771,1.2199 -44.22016,7.31987 -59.46875,18.29883 -49.40542,39.64631 -87.83382,86.30547 -115.28125,139.98047 -26.79611,17.91236 -49.47778,32.24829 -67.61914,48.18164 -18.14145,15.93337 -47.27013,31.49368 -85.44922,46.18554 -9.17886,-3.74098 -19.863566,-7.10607 -32.054687,-10.0957 -5.675351,-2.03037 -12.190536,-2.99081 -19.546875,-2.87891 -5.734705,0.69196 -13.273187,2.91076 -22.615234,6.65626 -9.342137,3.74549 -17.966307,5.80356 -25.873047,6.17578 -2.752027,1.30178 -4.621982,2.69146 -5.607422,4.16796 -0.985532,1.47651 -0.275648,3.32921 2.126953,5.56055 -1.651214,0.78108 -2.152882,1.86037 -1.501953,3.23633 0.650852,1.37605 1.510893,2.4857 2.582031,3.32617 -1.390898,1.33146 -1.760226,2.6845 -1.109375,4.06055 0.650942,1.37603 1.658312,2.07776 3.019531,2.10742 -1.651213,0.78108 -2.094343,2.34005 -1.328124,4.67188 0.766213,2.33179 2.653665,3.12049 5.666015,2.36914 11.52892,-4.10633 20.663368,-7.58454 27.398438,-10.4336 6.735051,-2.8491 17.168369,-3.57358 31.300781,-2.17578 2.982759,0.60975 4.531113,1.39184 4.646484,2.34766 0.115276,0.9558 -1.057582,1.68092 -3.519531,2.17187 -3.272846,0.20097 -8.571881,-0.32496 -15.898437,-1.57422 -5.444717,-0.1188 -9.955527,0.66706 -13.533204,2.35938 -3.577686,1.69233 -4.717806,3.91594 -3.416015,6.66797 1.301775,2.75206 5.241223,3.24749 11.816406,1.48437 5.705125,0.6692 13.777357,2.0688 24.216797,4.20313 10.439549,2.13424 21.467998,-0.89221 33.085938,-9.08203 l 39.45312,-10.58008 c 56.31297,-21.92249 95.79584,-37.5084 143.03711,-68.85547 42.69604,-41.47617 72.88978,-76.54751 90.57813,-105.21484 4.87951,-3.04973 6.09992,1.52379 3.66016,13.72265 -2.43974,12.19887 -10.06616,26.2274 -22.875,42.08594 9.75911,28.66733 22.26311,45.74685 37.51171,51.23633 1.8298,31.71703 1.06757,58.39969 -2.28711,80.05273 -3.35472,21.65296 -12.95986,49.55998 -28.81836,83.7168 -70.14344,17.68836 -144.25147,45.13525 -222.32421,82.3418 -60.994364,32.327 -68.618801,67.39833 -22.87305,105.21484 h 204.02539 c -33.54685,10.97897 -55.50596,18.90954 -65.875,23.78906 1.2199,39.64631 6.10145,68.31163 14.64063,86 7.92925,21.34807 16.31402,34.6142 25.1582,39.79883 8.84417,5.18444 16.92673,8.99769 24.24609,11.4375 8.53916,-7.92927 5.94639,-15.24957 -7.77734,-21.95898 -13.7237,-6.70932 -18.45126,-10.97878 -14.18164,-12.8086 3.0497,1.82982 7.16899,4.57473 12.35351,8.23438 5.18451,3.65964 8.69166,3.96578 10.52149,0.91601 -7.92928,-8.53915 -13.41905,-14.94323 -16.46875,-19.21289 -3.04971,-4.26969 -7.31909,-7.16862 -12.8086,-8.69336 -5.48947,-1.52485 -8.84455,-4.11573 -10.06445,-7.77539 1.82984,-28.66732 1.52374,-48.49173 -0.91601,-59.4707 18.9082,-1.2199 36.5979,-5.79342 53.0664,-13.72266 0,5.48946 2.43884,10.36904 7.31836,14.63867 l -0.91406,4.57422 c -5.48949,2.43976 -7.93025,6.70915 -7.32031,12.8086 6.09946,4.26959 15.24839,12.50426 27.44726,24.70312 4.87952,15.2486 12.81005,27.75263 23.78906,37.51172 10.97897,9.75909 26.38,12.19791 46.20313,7.31836 19.82318,-4.87958 37.35893,-15.55306 52.60742,-32.02148 15.24855,-16.46846 16.77309,-41.78064 4.57422,-75.9375 14.0287,11.58881 31.41229,17.99289 52.15039,19.21289 -2.43966,11.58893 -2.74387,31.41134 -0.91406,59.46875 -1.2199,4.26948 -4.57497,7.01437 -10.06446,8.23437 -5.48937,1.21987 -9.75876,4.11684 -12.80859,8.69141 -3.04972,4.5746 -8.5395,11.13272 -16.46875,19.67187 1.82983,2.43961 5.337,1.98158 10.52149,-1.37304 5.18443,-3.35471 9.30172,-5.94752 12.35156,-7.77735 4.26958,1.82983 -0.45789,5.94717 -14.18164,12.35156 -13.72372,6.40438 -16.31657,13.87687 -7.77735,22.41602 7.31931,-3.04977 15.39995,-7.01503 24.24414,-11.89453 8.84417,-4.8795 17.23284,-17.99373 25.16211,-39.3418 8.53908,-17.68837 13.41672,-46.65978 14.63672,-86.91601 -10.369,-4.87955 -32.32615,-12.50403 -65.87304,-22.87305 h 28.36328 c 46.35568,17.68847 85.39231,26.83743 117.10937,27.44727 l 13.72266,5.49023 c 4.87952,-9.14918 2.44071,-16.77363 -7.31836,-22.87305 -0.60997,-12.19897 -12.50383,-17.68876 -35.68164,-16.46875 -21.95798,-16.46846 -26.83757,-29.88682 -14.63867,-40.25586 14.6371,-14.63867 22.10952,-26.53444 22.41601,-35.68359 0.30497,-9.14913 -8.998,-14.63696 -27.90625,-16.4668 C 575.67632,607.80638 569.88241,502.28621 591.23047,423.60352 h 21.04297 v -64.95899 -0.12695 c 18.39943,47.12178 46.9435,97.62588 70.93164,132.76562 28.63259,32.56919 78.54409,71.47972 133.18945,110.8711 8.86521,18.1954 23.40304,29.71679 33.41211,35.79882 10.00895,6.08217 17.72842,10.62553 23.16211,13.63086 5.25377,6.04455 9.09734,8.10172 11.5293,6.17188 2.82568,-2.39464 2.90854,-5.31822 0.24609,-8.76953 -2.66233,-3.45143 -6.7109,-6.67821 -12.14453,-9.6836 -6.75641,-3.32768 -10.57938,-8.02382 -13.20899,-13.51562 -0.55042,-1.14949 -4.12138,-7.98868 2.70313,-3.75781 13.61331,8.43969 23.02864,15.91119 28.12109,22.61718 5.09258,6.70587 12.37985,15.75213 22.00782,27.01172 3.14961,3.68334 7.09509,2.21847 7.77539,0.002 0.50279,-1.63898 0.58416,-2.65281 0.24609,-3.04102 1.53779,0.44148 2.73671,-0.0536 3.5918,-1.48828 0.94815,-1.59073 1.15321,-3.01204 0.61718,-4.26367 0.92948,0.787 1.9836,0.48192 3.16407,-0.91211 1.18052,-1.39409 1.07375,-2.68092 -0.32031,-3.86133 2.96792,-0.6781 4.57905,-2.10792 4.83007,-4.28906 0.25114,-2.18094 -0.006,-5.39343 -3.21679,-7.50977 -8.19677,-5.40409 -15.76182,-12.94867 -22.62305,-22.74804 -9.26626,-12.97884 -20.29252,-24.84877 -36.13867,-29.40235 -13.37038,-4.93922 -27.4231,-8.65689 -37.13477,-12.23828 -30.5664,-40.6039 -73.9188,-81.07798 -103.98828,-117.88477 -21.93933,-48.76249 -53.14178,-104.09966 -82.04492,-149.34179 -12.09324,-18.92951 -23.74718,-28.31446 -34.70703,-28.31446 0,-78.68267 -10.21733,-136.01531 -30.65039,-172.00195 -16.03164,-28.234773 -42.201,-45.300846 -78.50782,-51.195311 17.38802,-30.603937 39.19845,-43.185547 64.8418,-43.185547 27.97841,0 63.13393,21.927442 99.88477,63.964844 5.49904,6.290086 16.6859,18.816204 23.67968,13.00293 6.99379,-5.813273 -2.85945,-19.574305 -8.62304,-26.166993 C 644.1179,26.424132 605.32752,0 568.82422,0 c -18.44003,0 -58.91276,5.2479793 -87.23828,61.029297 -3.4793,-0.147311 -7.03419,-0.210207 -10.66602,-0.189453 -3.52732,0.02016 -6.95383,0.150664 -10.27734,0.390625 C 440.49849,22.440294 413.79986,-2.0078653e-6 385.08594,0 Z m 88.57812,77.765625 c 44.22086,0 75.02287,15.553069 92.40625,46.660155 17.38338,31.10715 26.07422,85.3927 26.07422,162.85547 V 403.47461 H 476.86719 V 203.10742 c 3.65967,-5.48948 8.84335,-13.72216 15.55273,-24.70117 6.70938,-10.97897 10.06446,-22.72078 10.06446,-35.22461 0,-12.50385 -7.01423,-17.5355 -21.04297,-15.0957 -10.369,0 -16.46899,5.79391 -18.29883,17.38281 -1.21989,-9.14915 -6.86174,-16.0094 -16.92578,-20.58398 -10.0641,-4.57457 -24.8549,-5.33683 -44.37305,-2.28711 3.65965,-29.88723 27.59939,-44.832035 71.82031,-44.832035 z m -56.7539,53.808595 c 5.20358,-0.11438 12.38014,1.31557 21.52929,4.28906 12.19883,3.96463 18.29883,12.3494 18.29883,25.1582 h 11.89453 c 1.82982,-11.58893 5.79315,-17.38086 11.89258,-17.38086 4.87955,0 5.79388,5.79193 2.74414,17.38086 l -25.61719,40.25782 v 75.02343 l -2.74414,-0.91601 c -9.14917,-4.87956 -15.8593,-17.07751 -20.1289,-36.5957 h -24.70118 c -9.14915,0 -13.7246,-2.7449 -13.7246,-8.23438 0,-9.14914 4.26939,-14.33285 12.80859,-15.55273 0,-4.26959 -1.5245,-6.40625 -4.57422,-6.40625 h -16.46875 c 3.65965,-7.31932 0.30459,-12.50302 -10.06445,-15.55274 0,-4.26958 4.57547,-14.02875 13.72461,-29.27734 -0.60992,-11.58894 0.3044,-20.1277 2.74414,-25.61719 6.70939,-2.43975 12.65729,-4.42241 17.84179,-5.94727 1.29614,-0.38122 2.8104,-0.59077 4.54493,-0.6289 z m -1.34375,9.54883 c -7.92926,0.15248 -14.33336,2.51721 -19.21289,7.09179 v 7.31836 c 10.97896,-9.14914 26.83813,-9.75933 47.57617,-1.83008 h 7.31836 v -6.40429 h -7.31836 c -10.97896,-4.2696 -20.43402,-6.32826 -28.36328,-6.17578 z m 1.83007,10.75195 c -11.58891,0 -18.90924,4.57351 -21.95898,13.72266 l 0.91602,3.66015 h 5.49023 c 3.04972,1.82984 6.70893,2.74414 10.97852,2.74414 4.87955,0 14.94284,-3.04901 30.1914,-9.14843 l 8.23438,0.91406 v -5.49024 l -8.23438,0.91602 C 430.20487,154.31384 421.6661,151.875 417.39648,151.875 Z m 1.83008,5.48828 c 4.8795,0.60992 9.75911,1.82838 14.63867,3.6582 -3.04973,1.82984 -8.23342,3.66042 -15.55273,5.49024 1.82983,-1.82982 2.74414,-3.35431 2.74414,-4.57422 10e-6,-1.21988 -0.61023,-2.74442 -1.83008,-4.57422 z m -9.14844,0.91406 c -0.60995,0.60993 -0.91601,1.83033 -0.91601,3.66016 0,1.82982 1.22038,3.35432 3.66016,4.57422 -3.65966,0.60992 -7.93098,0.002 -12.81055,-1.82813 4.26962,-3.65966 7.62664,-5.79632 10.0664,-6.40625 z m 47.57422,150.04688 v 115.2793 h 107.95899 c -20.73808,78.68268 -17.07686,183.28851 10.98047,313.8164 -8.53921,43.9159 -37.5106,63.73838 -86.91602,59.46875 -47.57558,-3.04969 -96.82949,-11.28244 -147.75976,-24.70117 -50.93027,-13.41877 -108.72297,-1.52686 -173.37696,35.67969 -8.53921,4.26958 -16.77192,0.45833 -24.70117,-11.43555 -7.92927,-11.89388 2.13206,-26.07643 30.18945,-42.54492 56.11478,-26.22754 131.74924,-53.97859 226.90039,-83.25586 16.4685,-43.306 26.68575,-76.70076 30.65039,-100.18359 3.9647,-23.48282 4.11666,-55.35315 0.45704,-95.60938 -18.29832,-12.8088 -29.27785,-25.92107 -32.9375,-39.33984 21.95798,-20.12813 24.39874,-45.74642 7.32031,-76.85352 v -37.51172 c 14.02866,-8.53922 31.10622,-12.80859 51.23437,-12.80859 z m -93.32031,530.65039 h 58.55469 c -0.60991,4.87952 0.76057,10.06521 4.11523,15.55469 3.35472,5.48953 9.60671,9.14867 18.75586,10.97851 3.65961,-5.48963 8.84336,-9.45488 15.55274,-11.89453 6.70938,-2.4398 14.18369,4.42241 22.41797,20.58594 8.23419,16.16346 6.55569,32.02065 -5.03321,47.57422 -11.58894,15.55365 -25.61749,24.55058 -42.08593,26.99023 -16.46846,2.43974 -33.85212,-8.84392 -52.1504,-33.85156 L 358.8418,892.95508 c 10.36905,-5.48953 12.19961,-11.89555 5.49023,-19.21485 -4.26959,-4.87953 -5.79408,-9.75715 -4.57422,-14.63671 0.60993,-1.82993 2.13441,-3.96662 4.57422,-6.40625 -3.65966,-7.31934 -3.65966,-11.89284 0,-13.72266 z m 28.81836,46.43359 c -4.87954,0.15245 -8.99492,2.05715 -12.34961,5.7168 -3.65965,6.09953 -1.82906,10.36894 5.49024,12.80859 7.31932,1.2199 15.24788,-3.3556 23.7871,-13.72461 -6.4044,-3.35474 -12.04819,-4.95325 -16.92773,-4.80078 z"
     sodipodi:nodetypes="sszsscccscccccscscccscccscscscscscscsccsscsccccsccsccccccscscscsscccccccssscccsscscscscccccccccccccccccsccscssssccscscscccccscscsszsscscsssscccssccscsssccscccccsscsccccsssccccccsscccsccccscccsccsccccccccscsccscccccccscssssccccccscccs" />
</svg>
