<?xml version="1.0" encoding="UTF-8" standalone="no"?>
<svg
   width="800"
   height="1000"
   version="1.1"
   id="svg1"
   sodipodi:docname="1374B.svg"
   inkscape:version="1.4.2 (f4327f4, 2025-05-13)"
   xmlns:inkscape="http://www.inkscape.org/namespaces/inkscape"
   xmlns:sodipodi="http://sodipodi.sourceforge.net/DTD/sodipodi-0.dtd"
   xmlns="http://www.w3.org/2000/svg"
   xmlns:svg="http://www.w3.org/2000/svg">
  <defs
     id="defs1" />
  <sodipodi:namedview
     id="namedview1"
     pagecolor="#ffffff"
     bordercolor="#000000"
     borderopacity="0.25"
     inkscape:showpageshadow="2"
     inkscape:pageopacity="0.0"
     inkscape:pagecheckerboard="0"
     inkscape:deskcolor="#d1d1d1"
     inkscape:zoom="0.47457863"
     inkscape:cx="74.8032"
     inkscape:cy="559.44365"
     inkscape:window-width="1680"
     inkscape:window-height="998"
     inkscape:window-x="-8"
     inkscape:window-y="-8"
     inkscape:window-maximized="1"
     inkscape:current-layer="svg1" />
  <path
     id="path1"
     style="fill:#000000;stroke:none;stroke-width:55.6217"
     d="M 557.01953 1.4902344 C 524.3913 1.4902344 499.22601 11.729563 481.52344 32.208984 C 463.82088 52.688403 454.9707 76.117759 454.9707 102.49805 C 454.9707 114.29975 456.70469 125.40704 460.17578 135.82031 C 452.53937 129.57236 440.73846 116.73108 424.77148 97.292969 C 419.21773 86.879699 412.62274 83.582186 404.98633 87.400391 C 397.34996 91.218598 395.61398 99.375201 399.7793 111.87109 C 429.48362 174.86479 465.80038 215.00021 508.72852 232.27734 C 494.30801 237.59349 482.98418 246.22709 474.75586 258.17773 C 460.17731 279.35139 452.88672 292.71383 452.88672 298.26758 C 452.88672 303.82129 446.46609 316.31775 433.62305 335.75586 C 420.78004 355.19397 416.78697 366.30127 421.64648 369.07812 C 426.50601 371.85497 432.40744 374.2845 439.34961 376.36719 C 433.10167 384.6978 433.79527 390.25243 441.43164 393.0293 C 435.87792 397.88881 435.01191 401.53311 438.83008 403.96289 C 442.64828 406.39267 443.51429 414.54926 441.43164 428.43359 L 403.94531 513.82227 C 394.92047 522.15287 386.06835 525.27796 377.39062 523.19531 C 368.7129 521.11267 362.98584 525.27815 360.20898 535.69141 C 389.36613 558.60058 414.70583 551.6568 436.22656 514.86328 L 474.75586 447.17773 C 496.97087 447.17773 513.97759 461.75694 525.7793 490.91406 C 494.53948 566.58385 473.0185 668.28544 461.2168 796.02148 L 320.63867 597.12891 C 312.30806 585.32718 302.24118 575.95584 290.43945 569.01367 C 280.49754 552.05395 263.81986 544.07362 240.57617 544.84961 L 241.06836 544.72461 L 194.83398 423.45703 C 219.82427 413.64727 247.08309 408.59917 276.60938 408.30664 C 277.12928 390.77352 271.77497 374.63905 260.54688 359.90234 C 235.63091 375.74827 211.54757 387.46188 188.29688 395.03906 C 208.31859 328.73565 203.59656 287.8299 174.13281 272.32422 C 144.66905 256.81855 122.02032 263.81756 106.18359 293.32227 C 90.346887 322.827 109.27775 359.11916 162.97852 402.19922 C 137.32647 412.0908 110.93734 416.0253 83.8125 414.00391 C 82.71256 432.28029 87.860213 449.44924 99.251953 465.50977 C 118.71023 448.99498 143.41308 436.86963 173.36328 429.13672 L 202.08984 550.75781 C 163.38119 569.92469 152.26992 583.84382 169.125 592.44336 C 186.13333 601.12107 200.19133 615.1791 211.29883 634.61719 C 213.38149 664.46856 226.74588 700.21997 251.39062 741.87305 C 276.03534 783.52611 298.4243 844.61718 318.55664 925.14648 L 238.37305 959.50977 L 244.62109 1001.1641 L 689.26758 1001.1641 L 643.44922 945.97266 C 665.58657 832.5189 673.93761 726.30507 668.5 627.32812 L 690.31055 627.32812 L 690.31055 451.34375 C 690.31055 345.82264 675.03776 281.78083 644.49219 259.21875 C 629.83465 248.39216 614.77711 240.20183 599.32031 234.65039 C 645.32509 218.87608 683.63749 177.95057 714.25977 111.87109 C 719.1192 99.375201 717.55773 91.218598 709.57422 87.400391 C 701.59068 83.582186 694.82131 86.879699 689.26758 97.292969 C 673.30055 116.73108 660.45735 130.96149 650.73828 139.98633 C 655.59781 128.1846 658.0293 115.34139 658.0293 101.45703 C 658.0293 77.853637 649.17714 55.292215 631.47461 33.771484 C 613.77208 12.250714 588.95357 1.4902344 557.01953 1.4902344 z M 557.01953 18.150391 C 583.39976 18.844586 603.70601 27.522342 617.9375 44.183594 C 632.16896 60.844809 639.97877 79.9363 641.36719 101.45703 C 640.67297 122.9778 632.68877 142.76285 617.41602 160.8125 C 602.14319 178.86217 582.01134 187.88672 557.01953 187.88672 C 533.41608 187.88672 513.28425 179.73011 496.62305 163.41602 C 479.96183 147.10188 471.63086 126.44889 471.63086 101.45703 C 471.63086 79.242067 479.26823 59.803793 494.54102 43.142578 C 509.81381 26.481364 530.63924 18.150391 557.01953 18.150391 z M 413.31641 105.62305 C 462.6059 172.96218 510.50694 206.28407 557.01953 205.58984 C 604.22632 206.28407 652.47418 172.96218 701.76367 105.62305 C 662.88745 184.06964 614.63958 223.29297 557.01953 223.29297 C 500.09366 223.29297 452.19262 184.06964 413.31641 105.62305 z M 540.1875 247.60156 C 543.72909 247.62326 547.43138 247.85127 551.29297 248.28516 C 582.18568 251.75625 609.43372 263.73151 633.03711 284.21094 C 656.64053 304.69035 668.44141 371.85526 668.44141 485.70703 L 668.44141 605.45898 L 646.57422 605.45898 L 646.57422 490.91406 C 646.57422 465.22805 633.38417 452.21039 607.00391 451.86328 C 580.62363 451.51612 567.43359 464.88055 567.43359 491.95508 L 567.43359 542.98047 L 549.73047 542.98047 L 549.73047 490.91406 C 550.42464 440.23619 557.71329 407.4335 571.59766 392.50781 C 585.48201 377.58213 595.20215 362.13694 600.75586 346.16992 C 606.30964 330.20294 603.70568 317.35969 592.94531 307.64062 C 582.18494 297.92155 568.82054 296.5324 552.85352 303.47461 C 534.80388 290.28445 513.63162 281.60669 489.33398 277.44141 C 498.4456 257.39585 515.39635 247.4497 540.1875 247.60156 z M 149.67969 291.5918 C 153.54899 291.7892 157.7816 293.0743 162.37891 295.44531 C 177.09034 303.03303 180.15287 331.88031 171.56641 381.98828 C 136.21657 346.04599 122.16917 320.74085 129.42578 306.07031 C 134.41471 295.9843 141.16722 291.15752 149.67969 291.5918 z M 471.63086 298.26758 C 502.87067 300.35021 529.59753 310.7639 551.8125 329.50781 C 562.91996 317.70608 572.11886 316.31696 579.4082 325.3418 C 586.69744 334.36664 581.31722 348.07785 563.26758 366.47461 C 545.21791 384.8714 534.45742 414.54898 530.98633 455.50781 C 527.51524 444.40032 523.69659 436.7649 519.53125 432.59961 C 515.36597 428.4343 495.9277 426.69836 461.2168 427.39258 C 456.35729 423.92149 454.97011 419.06243 457.05273 412.81445 C 459.1354 406.5665 457.39941 401.01185 451.8457 396.15234 C 478.22595 396.15234 486.38256 393.20165 476.31641 387.30078 C 466.25026 381.39994 457.40008 379.83838 449.76367 382.61523 C 453.929 369.4251 449.41673 361.78969 436.22656 359.70703 C 456.3589 332.63251 468.15977 312.1519 471.63086 298.26758 z M 487.51172 312.8457 C 478.66044 312.4986 472.67282 316.66407 469.54883 325.3418 C 473.01992 342.00305 490.7222 342.69861 522.65625 327.42578 C 508.07767 318.05385 496.363 313.19281 487.51172 312.8457 z M 607.00391 473.73242 C 618.80562 474.07953 624.70703 479.8066 624.70703 490.91406 L 623.66406 627.32812 L 630.95312 627.32812 L 630.95312 697.0957 C 630.95313 799.83993 620.88822 885.57712 600.75586 954.30469 L 626.78906 970.96484 L 282.10938 970.96484 L 352.91992 941.80859 C 332.09341 839.75856 306.06015 764.95624 274.82031 717.40234 C 243.58054 669.84844 238.37464 639.12854 259.20117 625.24414 C 280.02768 611.35983 300.50634 619.34393 320.63867 649.19531 L 461.2168 849.13086 L 496.62305 849.13086 C 504.25946 704.73353 519.18542 609.27822 541.40039 562.76562 L 589.30078 564.84766 L 589.30078 490.91406 C 589.30078 479.11238 595.20218 473.38531 607.00391 473.73242 z M 237.49609 565.75977 C 251.61909 566.02011 265.44906 573.69958 278.98633 588.79883 C 253.99446 589.49303 237.33256 597.12843 229.00195 611.70703 C 221.36558 595.04589 213.72821 585.15338 206.0918 582.0293 C 198.45539 578.90532 204.1844 574.22064 223.27539 567.97266 C 228.04814 566.41067 232.78843 565.67299 237.49609 565.75977 z " />
</svg>
