<?xml version="1.0" encoding="UTF-8" standalone="no"?>
<svg
   width="800"
   height="1000"
   version="1.1"
   id="svg1"
   sodipodi:docname="1376C.svg"
   inkscape:version="1.4.3 (0d15f75, 2025-12-25)"
   xmlns:inkscape="http://www.inkscape.org/namespaces/inkscape"
   xmlns:sodipodi="http://sodipodi.sourceforge.net/DTD/sodipodi-0.dtd"
   xmlns="http://www.w3.org/2000/svg"
   xmlns:svg="http://www.w3.org/2000/svg">
  <defs
     id="defs1" />
  <sodipodi:namedview
     id="namedview1"
     pagecolor="#ffffff"
     bordercolor="#000000"
     borderopacity="0.25"
     inkscape:showpageshadow="2"
     inkscape:pageopacity="0.0"
     inkscape:pagecheckerboard="0"
     inkscape:deskcolor="#d1d1d1"
     inkscape:zoom="0.32688404"
     inkscape:cx="-123.89715"
     inkscape:cy="1011.0619"
     inkscape:window-width="1680"
     inkscape:window-height="998"
     inkscape:window-x="-8"
     inkscape:window-y="-8"
     inkscape:window-maximized="1"
     inkscape:current-layer="svg1"
     showguides="true">
    <sodipodi:guide
       position="638.79211,28"
       orientation="0,1"
       id="guide1"
       inkscape:locked="false"
       inkscape:label=""
       inkscape:color="rgb(0,134,229)" />
    <sodipodi:guide
       position="166.94348,29.953818"
       orientation="0.99894075,-0.046015053"
       id="guide2"
       inkscape:locked="false" />
    <sodipodi:guide
       position="149.25894,40"
       orientation="0,-1"
       id="guide3"
       inkscape:locked="false" />
  </sodipodi:namedview>
  <path
     id="path1"
     style="fill:#000000;stroke:none;stroke-width:52.9903"
     d="M 597.28711 0.0859375 C 584.25729 1.003958 575.37485 9.2822146 570.63672 24.917969 L 508.0918 188.17969 L 475.60352 188.17969 C 481.55998 208.21516 484.53711 225.54162 484.53711 240.16211 C 481.28814 253.69953 474.92741 267.37338 465.45117 281.18164 C 455.97492 294.98984 458.27647 301.35057 472.35547 300.26758 C 469.10647 305.68256 469.64652 308.66161 473.97852 309.20312 C 470.188 311.36912 469.78349 313.53517 472.76172 315.70117 C 475.73998 317.86717 476.6865 322.4703 475.60352 329.50977 C 482.64301 334.92474 481.42353 344.67102 471.94727 358.75 C 462.47104 372.82896 453.67328 378.51606 445.55078 375.80859 C 437.42831 373.10109 432.55421 373.64118 430.92969 377.43164 C 429.30522 381.22217 431.87774 385.01226 438.64648 388.80273 C 445.41521 392.59325 455.7035 389.75164 469.51172 380.27539 C 483.31995 370.79919 492.1197 357.66734 495.91016 340.88086 L 517.02734 340.88086 C 523.52531 346.29586 528.12847 354.68905 530.83594 366.06055 L 512.1543 366.06055 C 498.61684 363.89456 486.43349 368.7687 475.60352 380.68164 L 405.75 409.10938 C 400.87649 406.94335 392.47015 405.89354 384.34766 402.64453 C 382.83491 399.72811 380.05896 393.15222 382.99805 392.34375 C 384.77834 391.85404 394.99287 391.69441 398.66797 391.77148 C 404.1886 391.88725 406.13963 386.75037 404.52344 376.49219 C 411.56899 373.35142 411.87908 370.25633 405.45312 367.20898 C 412.55768 364.67507 412.77846 360.67159 406.11523 355.19727 L 407.66992 352.29102 C 411.8592 351.268 413.74418 348.63023 413.32812 344.38281 C 409.93723 341.0386 404.36872 334.23285 396.62305 323.96289 C 393.85088 314.4306 388.69581 305.58919 381.1582 297.44336 C 373.62012 289.29712 363.47921 285.84726 350.73438 287.0957 C 337.98953 288.34414 324.84366 293.31028 311.29492 301.99023 C 297.74661 310.67015 293.61469 326.39136 298.91016 349.15625 C 304.20386 371.92132 312.50313 383.39086 333.94336 380.5918 C 333.99046 387.32685 332.96006 390.23685 332.35742 394.52148 C 332.35742 403.18546 324.52384 408.56786 313.15234 409.10938 C 296.36589 417.23185 281.06993 435.77981 267.26172 464.75 C 253.45347 493.72023 243.84076 511.99521 238.42578 519.57617 C 237.88429 528.24015 240.18585 536.90435 245.33008 545.56836 C 250.47434 554.23231 257.92097 562.08354 267.66797 569.12305 C 253.58897 589.15847 246.54883 608.65301 246.54883 627.60547 C 246.54883 636.81099 248.44385 651.70235 252.23438 672.2793 C 253.31736 674.44525 254.53688 675.93581 255.89062 676.74805 C 257.24437 677.56031 259.00197 677.15184 261.16797 675.52734 C 261.70947 677.15146 262.65991 677.82896 264.01367 677.55859 C 265.36741 677.28784 266.31395 676.61034 266.85547 675.52734 C 267.39696 676.60996 268.47904 677.01843 270.10352 676.74805 C 271.72802 676.47732 272.54102 675.79978 272.54102 674.7168 C 272.54102 675.7994 273.75857 676.20398 276.19531 675.93359 C 278.63209 675.66285 279.58058 674.17425 279.03906 671.4668 C 276.33157 660.63686 274.16553 652.24359 272.54102 646.28711 C 270.9165 640.3306 270.9165 633.42594 272.54102 625.57422 C 274.16553 617.72287 275.51859 613.93277 276.60156 614.20312 C 277.68452 614.47388 278.09102 615.96248 277.82031 618.66992 C 277.54954 621.37741 276.601 625.71146 274.97656 631.66797 C 274.43503 636.54152 274.70799 640.60069 275.79102 643.84961 C 276.874 647.09859 278.76711 648.18261 281.47461 647.09961 C 284.1821 646.55817 284.9951 643.03904 283.91211 636.54102 C 284.9951 631.66754 286.89017 624.76285 289.59766 615.82812 C 292.30513 606.89336 290.68108 596.73869 284.72461 585.36719 C 286.34911 585.36719 288.10868 588.75271 290.00391 595.52148 C 291.89915 602.29025 293.65869 609.1949 295.2832 616.23438 C 295.2832 621.64936 299.07332 624.89747 306.6543 625.98047 C 314.23528 627.06344 319.92242 626.11691 323.71289 623.13867 C 327.50336 620.16041 328.58541 615.96185 326.96094 610.54688 C 330.75141 616.50333 342.93673 620.29537 363.51367 621.91992 L 323.71289 633.29102 C 293.93046 644.12099 279.03906 667.13459 279.03906 702.33203 C 282.82953 830.12576 280.03849 888.65514 269.75 901.92188 C 259.46151 915.18858 233.19783 926.42533 190.96094 935.63086 C 174.71596 941.04583 166.86475 949.17009 167.40625 960 L 149.25977 960 L 149.25977 1000 L 645.79297 1000 L 645.79297 960 L 620.99609 960 L 620.99609 583.74414 L 621.80859 583.74414 C 621.80859 579.41212 623.70362 577.24609 627.49414 577.24609 C 631.82613 577.24609 633.99219 579.41212 633.99219 583.74414 L 633.99219 651.16016 L 648.61133 651.16016 L 648.61133 758.37891 L 664.85742 758.37891 L 664.85742 373.37305 C 664.85742 330.59463 648.07099 296.74879 614.49805 271.83984 L 659.98242 188.17969 L 626.68164 188.17969 L 678.66602 53.34375 C 685.70554 34.93279 682.3199 23.022407 668.51172 17.607422 C 654.70346 12.192398 642.65567 12.461455 632.36719 18.417969 C 629.11819 7.5879967 619.36999 1.4963421 603.125 0.14257812 C 601.09439 -0.026637975 599.14851 -0.04520832 597.28711 0.0859375 z M 602.03516 16.205078 C 603.4055 16.191999 604.85204 16.386852 606.375 16.792969 C 614.49746 18.95897 616.93452 25.728108 613.68555 37.099609 L 554.39258 188.17969 L 526.77539 188.17969 L 588.50586 28.166016 C 591.34871 20.855802 595.40981 16.896306 600.68945 16.287109 C 601.12943 16.236343 601.57838 16.209438 602.03516 16.205078 z M 651.00195 28.4375 C 652.55686 28.510369 654.1978 28.826339 655.92383 29.384766 C 665.12929 32.363005 666.75333 39.265732 660.79688 50.095703 L 607.1875 188.17969 L 578.75977 188.17969 L 635.61719 41.162109 C 638.86617 33.039605 643.48427 28.800657 649.47461 28.445312 C 649.97381 28.4157 650.48365 28.41321 651.00195 28.4375 z M 493.47266 201.98633 L 636.42773 201.98633 L 586.88086 293.76953 C 582.00737 300.26753 577.67524 301.89356 573.88477 298.64453 L 557.64062 288.89648 C 558.72361 285.106 562.64923 279.82735 569.41797 273.05859 C 576.18668 266.28984 577.67524 258.16766 573.88477 248.69141 C 570.09426 239.21521 559.80599 237.99762 543.01953 245.03711 C 525.69162 234.74863 510.80019 230.14553 498.3457 231.22852 C 497.80421 220.39854 496.18016 210.6503 493.47266 201.98633 z M 495.09766 243.41016 C 507.55216 243.41016 524.33859 248.82624 545.45703 259.65625 C 549.78901 254.78276 554.12113 252.3457 558.45312 252.3457 C 562.78517 252.3457 565.0867 254.51179 565.35742 258.84375 C 565.62817 263.17577 561.70064 268.86286 553.57812 275.90234 C 545.45565 282.9418 541.66551 288.89604 542.20703 293.76953 L 544.64453 295.39453 C 543.02005 305.68298 538.14592 313.94071 530.02344 320.16797 C 521.90093 326.39522 510.79966 329.78076 496.7207 330.32227 C 487.51523 330.86376 483.32057 328.96873 484.13281 324.63672 C 484.94503 320.30471 484.26756 316.78366 482.10156 314.07617 C 498.88806 314.61767 503.7602 312.31609 496.7207 307.17188 C 489.68123 302.02763 484.53808 300.81009 481.28906 303.51758 C 483.45506 295.93658 479.66491 291.8755 469.91797 291.33398 C 478.0661 277.88958 484.83509 265.51798 490.22461 254.21875 L 490.22461 261.28125 C 501.05457 257.49074 509.98783 257.08426 517.02734 260.0625 C 524.06679 263.04077 533.54404 265.07132 545.45703 266.1543 L 541.39453 262.90625 C 530.56455 259.11578 522.03777 255.86766 515.81055 253.16016 C 512.69694 251.80643 509.00648 251.19665 504.74219 251.33203 C 500.51411 251.46626 495.72062 252.33157 490.36133 253.92969 C 492.0816 250.31315 493.66094 246.80604 495.09766 243.41016 z M 504.64062 262.5 C 498.27801 262.5 493.74459 265.07059 491.03711 270.21484 L 484.53906 274.27734 L 483.72656 277.52539 L 490.22461 278.33984 C 498.88857 284.29632 512.15398 283.21037 530.02344 275.08789 L 546.26953 275.08789 L 546.26953 270.21484 L 529.21289 270.21484 C 519.19516 265.07059 511.00324 262.5 504.64062 262.5 z M 500.7832 267.7793 C 499.15869 271.0283 499.7007 274.27641 502.4082 277.52539 C 498.61768 276.4424 495.63863 275.6294 493.47266 275.08789 C 494.01415 272.38041 496.4512 269.94529 500.7832 267.7793 z M 511.3418 267.7793 L 524.33984 272.65234 C 520.00783 274.27681 515.67379 275.63183 511.3418 276.71484 C 514.59079 274.00735 514.59079 271.0283 511.3418 267.7793 z M 605.5625 288.08594 C 634.26195 309.74588 648.61133 338.17559 648.61133 373.37305 L 648.61133 381.57617 C 645.81273 372.33524 636.09814 367.68555 619.37305 367.68555 L 599.87695 367.68555 C 589.04698 350.35756 584.7149 334.92616 586.88086 321.38867 L 605.5625 288.08594 z M 548.70508 297.83203 L 569.82422 311.64062 C 569.28271 331.13457 574.15682 349.81607 584.44531 367.68555 L 547.89453 367.68555 C 542.47956 350.8991 536.25235 337.90278 529.21289 328.69727 C 541.66732 319.49178 548.16356 309.20351 548.70508 297.83203 z M 355.66602 299.93945 C 367.95265 300.26776 376.69793 305.07689 381.89648 314.37109 L 381.89258 314.37109 C 375.94269 316.17922 368.10535 320.62525 358.38281 327.70508 C 349.66094 319.98266 341.30571 319.11249 333.31445 325.10352 C 325.32367 331.09452 325.03452 339.08944 332.44727 349.08594 C 339.86099 359.08277 339.39276 365.25498 331.04492 367.60547 C 322.69699 369.95507 316.21919 363.23833 311.60742 347.45312 C 306.99737 331.6673 310.1173 319.71817 320.96484 311.60938 C 329.77821 305.02245 339.06838 301.21794 348.83203 300.19922 C 351.08521 299.96414 353.36226 299.87777 355.66602 299.93945 z M 386.42773 323.12109 L 404.40039 347.09375 C 396.63002 349.08064 394.58929 351.73208 398.28516 355.04688 C 401.97835 358.36149 401.51977 361.47101 396.90234 364.37305 C 400.29542 367.71706 400.26043 370.47661 396.79688 372.6543 C 397.93739 378.05649 397.02391 381.2123 394.04688 382.11523 L 371.53516 380.45508 L 372.18359 399.7168 C 372.42385 403.94215 372.53848 407.51143 373.26172 407.87305 L 397.62891 425.35547 C 385.71592 449.18138 377.99826 471.79048 374.47852 493.17969 C 370.9588 514.56888 369.74124 529.45831 370.82422 537.85156 C 371.9072 546.24481 377.05038 553.42046 386.25586 559.37695 L 368.38672 559.37695 C 360.80572 549.62998 347.81137 544.48486 329.40039 543.94336 C 333.19091 515.78538 331.70039 494.39778 324.93164 479.77734 C 318.1629 465.15684 314.50831 453.24261 313.9668 444.03711 C 313.42532 434.83165 318.83944 427.38689 330.21094 421.70117 C 339.40411 417.10459 346.87248 411.93125 346.78516 403.99023 C 349.27106 389.91475 349.32191 380.24476 343.14062 350.33789 C 334.11739 339.57997 332.0563 332.58658 336.94727 329.34766 C 341.83851 326.11135 349.03777 329.23589 358.54492 338.7207 C 371.00491 328.30987 380.29963 323.11003 386.42773 323.12109 z M 384.63281 334.59766 C 384.29098 334.60249 383.94461 334.62188 383.59375 334.65625 C 379.38342 335.06865 374.51992 337.61099 369.00391 342.28711 C 376.9407 348.24931 383.76407 349.1153 389.47656 344.87891 C 392.76351 340.88053 392.13424 337.56905 387.58984 334.95312 L 387.58594 334.95312 C 386.64216 334.70087 385.65832 334.58316 384.63281 334.59766 z M 599.06641 385.55469 C 571.99148 419.66909 543.83077 459.47114 514.58984 504.95703 L 507.28125 500.89453 C 504.57376 465.6971 505.65581 428.06312 510.5293 387.99219 C 535.97972 390.69969 565.49348 389.88665 599.06641 385.55469 z M 648.61133 395.09766 L 648.61133 566.95312 C 644.94814 562.44935 638.18738 560.18945 628.30469 560.18945 C 612.05971 560.18945 603.93945 565.87462 603.93945 577.24609 L 603.93945 583.74414 L 596.62891 583.74414 C 605.83441 509.55879 618.55777 456.76243 634.80273 425.35547 C 642.20422 413.41214 646.80123 403.33079 648.61133 395.09766 z M 488.59961 425.35547 C 486.97514 448.09845 486.97514 470.03002 488.59961 491.14844 C 466.93966 479.23546 448.80016 462.98906 434.17969 442.41211 L 444.73633 438.35156 L 488.59961 425.35547 z M 401.6875 450.53516 C 413.05898 461.90661 424.83774 474.08994 437.02148 487.08594 C 449.20521 500.0819 466.66919 509.55719 489.41211 515.51367 C 476.95765 520.38714 463.69032 527.42922 449.61133 536.63477 C 434.4494 545.84019 419.01596 552.06547 403.3125 555.31445 C 391.3995 547.73348 385.17238 537.71624 384.63086 525.26172 C 387.3384 487.35685 393.02355 462.44813 401.6875 450.53516 z M 607.1875 451.34766 C 595.81602 485.46208 587.96476 516.73339 583.63281 545.16211 C 579.30077 573.59075 578.35426 602.69608 580.79102 632.47852 C 583.22778 662.26097 568.74092 677.42337 537.33398 677.96484 L 520.27734 677.96484 C 520.81882 677.42335 519.59933 672.14276 516.62109 662.125 C 513.64286 652.10728 510.53023 637.35335 507.28125 617.85938 C 506.73976 612.9859 505.11569 609.19572 502.4082 606.48828 L 513.7793 604.04883 L 513.7793 550.44141 C 519.73578 547.73392 530.29506 541.77776 545.45703 532.57227 C 563.86801 509.28781 584.44457 482.21306 607.1875 451.34766 z M 303.40625 465.15625 C 307.73825 474.90325 310.44631 481.94147 311.5293 486.27344 C 299.07481 504.14295 290.4106 519.84737 285.53711 533.38477 C 283.91262 531.76031 281.88207 532.70877 279.44531 536.22852 C 277.00855 539.74829 276.06006 542.31889 276.60156 543.94336 C 266.31309 532.03039 265.63555 520.11807 274.57031 508.20508 C 283.50502 496.2921 289.46315 486.67935 292.44141 479.36914 C 295.41963 472.05892 299.07425 467.32227 303.40625 465.15625 z M 317.21484 532.57227 L 318.02539 540.69531 C 315.30252 539.52836 313.30819 539.23456 311.98242 539.74414 C 313.90257 537.29545 315.66455 534.89769 317.21484 532.57227 z M 309.54688 542.66992 C 308.84879 544.53969 309.50617 546.18337 311.5293 547.59961 C 314.23678 549.49482 316.13185 550.44141 317.21484 550.44141 L 317.21484 553.68945 C 312.34138 552.06491 308.28027 550.17182 305.03125 548.00586 C 306.67335 546.18134 308.08922 544.43298 309.54688 542.66992 z M 327.77539 552.87891 C 330.48286 553.4204 333.45999 554.23149 336.70898 555.31445 C 338.33346 555.31445 339.01094 555.99197 338.74023 557.3457 C 338.46948 558.69947 336.98093 559.10404 334.27344 558.5625 C 331.56594 558.02101 329.39989 557.20991 327.77539 556.12695 L 327.77539 552.87891 z M 495.91016 558.56445 L 496.7207 588.61719 L 483.72656 591.05469 C 477.77009 585.6397 465.58675 579.41056 447.17578 572.37109 C 463.96225 570.20512 480.20671 565.60395 495.91016 558.56445 z M 293.66016 565.875 C 300.69965 571.83156 307.19585 576.1617 313.15234 578.86914 C 312.61085 584.82562 312.88381 589.9707 313.9668 594.30273 C 309.09335 587.80472 302.32416 578.32949 293.66016 565.875 z M 426.05664 578.05859 C 441.76011 582.93204 445.00819 587.66868 435.80273 592.27148 C 426.59721 596.87425 415.49793 600.39535 402.50195 602.83203 C 389.50601 605.26876 375.02108 604.7267 359.04688 601.20703 C 343.07265 597.68726 333.19091 591.59563 329.40039 582.93164 C 342.93789 583.47314 354.03721 582.9311 362.70117 581.30664 C 396.27412 580.76514 417.39269 579.68307 426.05664 578.05859 z M 596.62891 599.99023 L 603.93945 599.99023 L 603.93945 811.98633 L 512.1543 811.98633 L 512.1543 954.94141 L 360.26367 954.94141 L 360.26367 701.52148 C 360.26367 696.648 362.42971 694.20898 366.76172 694.20898 L 450.42383 694.20898 C 460.17079 715.86895 462.61602 733.95017 465.04297 747.81836 C 466.50405 756.16731 460.05254 765.9537 463.57227 771.91016 C 467.09201 777.86667 475.74611 775.8418 477.91211 775.8418 C 478.99514 775.8418 488.12116 773.86746 495.91016 772.99805 C 504.98338 771.98529 512.69633 774.35149 520.27734 765.6875 C 522.44333 766.22902 530.97205 768.66604 545.86328 772.99805 C 560.75448 777.33002 573.88437 777.33002 585.25586 772.99805 C 585.25586 770.83203 581.46577 767.31099 573.88477 762.4375 C 553.3078 755.39801 540.04242 742.13266 534.08594 722.63867 C 530.29542 709.10124 527.31638 699.62398 525.15039 694.20898 L 536.52148 694.20898 C 586.88084 694.20898 606.91737 662.80411 596.62891 599.99023 z M 433.36523 620.29492 L 438.24023 631.66797 C 437.15724 648.99593 439.05228 664.42737 443.92578 677.96484 L 366.76172 677.96484 L 334.27344 647.09766 C 368.92936 636.80921 401.95828 627.8759 433.36523 620.29492 z M 481.28906 627.60547 C 478.04009 647.09945 479.93511 663.88588 486.97461 677.96484 L 479.66406 677.96484 C 478.58105 664.96888 476.686 649.80651 473.97852 632.47852 L 481.28906 627.60547 z M 481.28906 694.20898 L 495.91016 694.20898 C 506.74013 712.07851 514.32034 728.05196 518.65234 742.13086 C 515.40335 750.25336 513.23731 756.48249 512.1543 760.81445 C 506.19782 760.81444 498.61761 755.40028 489.41211 744.57031 C 483.99712 731.57434 481.28906 720.47303 481.28906 711.26758 L 481.28906 694.20898 z M 334.27344 703.14453 L 343.20703 703.14453 L 343.20703 960 L 299.80273 960 C 315.5062 958.37549 324.03493 953.90784 325.38867 946.59766 C 326.74242 939.28745 324.71187 927.23769 319.29688 910.45117 C 313.88191 893.66473 317.61951 878.18543 331.42773 840.00977 C 341.33112 812.62981 343.32643 743.47158 334.27344 703.14453 z M 530.02344 829.04297 L 603.93945 829.85547 L 603.93945 954.94141 L 530.02344 954.94141 L 530.02344 829.04297 z M 163.25977 974 L 631.79297 974 L 631.79297 986 L 163.25977 986 L 163.25977 974 z " />
</svg>
