<?xml version="1.0" encoding="UTF-8" standalone="no"?>
<svg
   width="800"
   height="1000"
   version="1.1"
   id="svg1"
   sodipodi:docname="1377B.svg"
   inkscape:version="1.4.3 (0d15f75, 2025-12-25)"
   xmlns:inkscape="http://www.inkscape.org/namespaces/inkscape"
   xmlns:sodipodi="http://sodipodi.sourceforge.net/DTD/sodipodi-0.dtd"
   xmlns="http://www.w3.org/2000/svg"
   xmlns:svg="http://www.w3.org/2000/svg">
  <defs
     id="defs1" />
  <sodipodi:namedview
     id="namedview1"
     pagecolor="#ffffff"
     bordercolor="#000000"
     borderopacity="0.25"
     inkscape:showpageshadow="2"
     inkscape:pageopacity="0.0"
     inkscape:pagecheckerboard="0"
     inkscape:deskcolor="#d1d1d1"
     inkscape:zoom="0.60934283"
     inkscape:cx="621.16099"
     inkscape:cy="489.87201"
     inkscape:window-width="1680"
     inkscape:window-height="998"
     inkscape:window-x="-8"
     inkscape:window-y="-8"
     inkscape:window-maximized="1"
     inkscape:current-layer="svg1"
     showguides="true" />
  <path
     id="path6"
     style="fill:#000000;stroke:none;stroke-width:50.4696"
     d="M 572.93164 0 C 571.19123 0 569.52947 1.265358 567.94727 3.796875 C 564.78289 31.010553 561.46128 50.78779 557.98047 63.128906 C 554.49964 75.469986 550.54537 84.487724 546.11523 90.183594 C 539.78647 91.449375 535.35575 92.558515 532.82422 93.507812 C 530.29274 94.457121 526.96916 95.406133 522.85547 96.355469 C 518.74177 97.304777 513.83653 100.31201 508.14062 105.375 L 439.79102 118.66406 L 439.79102 124.36133 C 440.42389 133.22159 444.21998 139.5504 451.18164 143.34766 C 463.83914 146.51205 489.78704 153.7879 529.02539 165.17969 C 515.73499 185.43175 508.45718 206.31813 507.19141 227.83594 L 507.19141 231.42969 C 487.27283 238.30019 478.28036 255.0213 480.21289 281.59375 C 474.34835 314.17454 472.39475 342.19223 474.34961 365.65039 C 453.49787 378.68269 420.91534 401.16458 376.60547 433.09375 C 371.32439 428.23127 365.58634 424.92875 359.40625 422.70312 L 359.40625 257.30273 C 359.40626 241.70861 353.98282 225.43648 343.13477 208.48633 C 349.91478 194.24825 358.21969 179.33239 368.05078 163.73828 C 377.88187 148.14417 377.03586 135.60145 365.50977 126.10938 C 355.33968 149.83958 343.13459 168.65365 328.89648 182.55273 C 314.65839 196.45185 304.65758 210.85928 298.89453 225.77539 C 293.1315 240.69146 281.09716 268.48961 262.79102 309.16992 C 280.41917 315.94995 293.98061 302.39046 303.47266 268.49023 C 312.28671 254.93011 319.23529 245.94609 324.32031 241.53906 C 329.40538 237.13203 333.30359 244.08252 336.01562 262.38867 L 336.01562 418.54102 C 329.37897 418.19545 322.37973 418.28596 315.02734 418.43164 C 313.07247 426.90264 315.02803 432.11545 320.89258 434.07031 C 320.24097 451.01231 325.82562 462.66308 333.28125 470.83008 C 333.70195 471.47119 334.65306 471.93388 336.01562 472.23047 L 336.01562 899.03516 C 322.45551 902.42519 315.33621 912.25519 314.6582 928.52734 C 313.98021 932.59537 316.01569 937.34165 320.76172 942.76562 C 325.50774 948.18972 323.98064 954.96944 316.18359 963.10547 C 308.38654 971.2417 311.268 972.42913 324.82812 966.66602 C 338.38821 960.90304 340.76132 948.18947 331.94727 928.52734 C 331.94727 918.35725 337.03308 913.27344 347.20312 913.27344 C 356.69522 913.95139 361.78098 919.03521 362.45898 928.52734 C 356.35691 948.18947 358.55927 960.56327 369.06836 965.64844 C 379.57745 970.73336 382.29013 969.71669 377.20508 962.59766 C 372.12002 955.47856 371.27208 949.20724 374.66211 943.7832 C 378.05213 938.35913 379.40846 933.27332 378.73047 928.52734 C 378.73047 912.25515 372.28837 902.42515 359.40625 899.03516 L 359.40625 469.9668 C 368.48662 467.6855 377.59328 464.05017 382.4707 459.48438 C 445.67742 435.37459 485.75329 412.89467 502.69531 392.04297 C 507.90827 374.44934 510.8406 360.43759 511.49219 350.01172 C 516.05348 351.96658 522.24309 353.59716 530.0625 354.90039 C 524.84955 391.39089 516.3775 437.98131 504.64844 494.67188 C 492.91935 551.36244 492.26945 602.51578 502.69531 648.12891 C 513.12115 693.74197 518.33398 737.72504 518.33398 780.08008 C 518.33398 822.43511 511.49055 871.63294 497.80664 927.67188 C 497.80664 942.00738 493.40813 950.15254 484.61133 952.10742 C 475.81452 954.06227 466.36761 957.807 456.26758 963.3457 C 446.16751 968.88462 434.27378 972.95818 420.58984 975.56445 L 396.1543 975.56445 C 395.50271 991.85491 401.36736 1000 413.74805 1000 L 599.45898 1000 C 613.7945 994.13542 618.35552 979.47376 613.14258 956.01562 L 613.14258 926.69336 C 623.56842 867.39634 628.61876 822.597 628.29297 792.29688 C 627.96717 761.99676 625.19923 735.4433 619.98633 712.63672 C 614.77337 689.83015 618.84501 654.97102 632.20312 608.05469 C 645.56124 561.13838 652.24023 526.60022 652.24023 504.44531 C 652.24023 477.72907 644.42 450.03634 628.78125 421.36523 C 632.69093 387.48119 637.5788 357.50603 643.44336 331.44141 L 659.08203 331.44141 C 661.03687 356.2028 664.62103 376.07925 669.83398 391.06641 C 666.5759 409.31165 667.22581 429.51109 671.78711 451.66602 C 676.34838 473.82091 678.30393 498.25645 677.65234 524.97266 C 667.77262 535.70311 664.33561 548.3176 663.2793 562.70117 C 658.6123 568.81376 657.36124 577.37922 657.52539 587.19727 C 658.01404 616.4234 672.06941 643.46315 683.16016 665.25391 L 639.90039 659.69922 L 639.45703 680.11328 L 686.4707 675.40234 L 678.69336 773.64062 L 705.37109 773.19531 L 694.31641 675.27148 L 741.46094 678.4082 L 740.33398 658.01953 L 697.28516 665.01953 C 707.64126 642.87018 720.78552 615.37455 720.29688 586.14844 C 720.13509 576.47188 718.63986 568.05717 713.93555 562.11719 C 713.3027 551.68765 707.31243 533.20529 699.43945 524.79492 C 711.16845 468.75622 708.93046 432.11583 699.15625 404.74805 C 701.11108 357.83172 700.45922 315.15239 697.20117 276.70703 C 697.20117 248.94561 687.97621 233.01074 669.52539 228.9043 L 669.52539 183.21875 C 669.52539 145.24613 651.48608 114.86754 615.41211 92.083984 C 616.04499 71.199047 614.46524 53.319863 610.66797 38.447266 C 606.87071 23.574668 604.02359 12.024262 602.125 3.796875 C 597.69484 -0.63328889 593.8968 -0.00059168678 590.73242 5.6953125 C 592.63107 12.656958 592.63107 24.207364 590.73242 40.345703 C 588.8338 56.484076 587.25014 65.501779 585.98438 67.400391 C 586.61729 54.110005 586.14275 41.610589 584.56055 29.902344 C 582.97837 18.194135 580.92214 9.4927456 578.39062 3.796875 C 576.49199 1.265358 574.67205 2.0428104e-14 572.93164 0 z M 530.27148 98.699219 C 531.81412 98.639849 533.29673 98.807589 534.7207 99.203125 C 540.41656 100.78533 546.11464 103.15788 551.81055 106.32227 L 562.25195 106.32227 L 562.25195 109.16992 L 551.81055 109.16992 C 544.84891 106.00552 538.99462 103.95125 534.24805 103.00195 C 529.50149 102.05263 523.33085 103.79253 515.73633 108.22266 L 514.78516 105.375 C 520.48104 101.1031 525.64356 98.877217 530.27148 98.699219 z M 615.41211 103.47461 C 644.52444 127.5239 659.08203 153.79008 659.08203 182.26953 L 659.08203 227.83594 L 639.14648 222.14062 C 639.14648 217.07758 632.81768 214.54492 620.16016 214.54492 C 609.40122 214.54492 604.02148 218.97564 604.02148 227.83594 L 604.02148 236.37891 L 604.02148 296.1875 L 579.33984 296.1875 L 579.33984 244.92383 C 579.33984 212.64711 574.59277 184.79924 565.09961 161.38281 C 585.98456 156.95263 593.26234 143.66435 586.93359 121.51367 C 598.32534 120.24793 607.81756 114.23351 615.41211 103.47461 z M 528.19531 106.79883 C 529.38197 106.79884 530.60729 106.95698 531.87305 107.27344 C 536.93604 108.53917 541.6851 110.43723 546.11523 112.96875 L 563.20312 113.91797 L 563.20312 121.51367 L 546.11523 118.66406 C 535.98924 122.46132 528.71141 123.88685 524.28125 122.9375 C 519.85113 121.98823 516.36942 121.51367 513.83789 121.51367 L 512.88867 118.66406 L 518.58398 111.07031 C 521.43192 108.22236 524.63537 106.79882 528.19531 106.79883 z M 532.82422 110.12109 C 534.72288 112.6526 534.72288 115.81602 532.82422 119.61328 L 543.26562 115.81641 L 532.82422 110.12109 z M 524.2793 111.07031 L 516.68555 118.66406 L 524.2793 119.61328 C 521.74783 117.08178 521.74783 114.2347 524.2793 111.07031 z M 539.46875 174.67383 C 552.12627 184.79987 554.02432 193.50317 545.16406 200.78125 C 536.30381 208.05932 531.87305 222.45681 531.87305 243.97461 L 531.87305 296.1875 L 519.61328 296.1875 C 519.58638 296.1402 519.56 296.09232 519.5332 296.04492 L 519.5332 243.97461 C 519.5332 214.22941 526.17833 191.12863 539.46875 174.67383 z M 545.58789 236.37891 L 566.99805 236.37891 L 566.99805 308.52734 L 613.51562 308.52734 L 613.51562 236.37891 L 639.14648 236.37891 L 644.96289 237.80859 L 631.71289 331.44141 L 628.78125 341.2168 L 530.0625 341.2168 C 517.68181 341.2168 508.88482 335.02718 503.67188 322.64648 C 506.17098 318.27306 508.20434 313.56666 509.77148 308.52734 L 527.14258 308.52734 L 544.21484 308.52734 L 544.21484 236.80078 C 544.68322 236.66717 545.14014 236.52695 545.58789 236.37891 z M 550.58789 351.96875 L 618.0293 351.96875 C 615.42284 361.0914 612.49048 384.55005 609.23242 422.34375 C 624.21957 450.36323 631.71289 477.72908 631.71289 504.44531 C 631.71289 526.60023 624.87337 561.13838 611.18945 608.05469 C 597.50552 654.97102 593.59442 689.83015 599.45898 712.63672 C 605.32348 735.4433 608.41834 761.83428 608.74414 791.80859 C 609.06996 821.78294 604.34455 859.90327 594.57031 906.16797 L 522.24219 906.16797 C 532.01647 867.07106 536.9043 825.36653 536.9043 781.05664 C 536.9043 736.09516 531.6915 690.31907 521.26562 643.72852 C 510.83976 597.13801 511.6541 546.63844 523.70898 492.22852 C 535.76388 437.81862 544.72334 391.06571 550.58789 351.96875 z M 703.87891 575.71875 C 704.76457 577.78767 705.34706 580.32143 705.48047 583.41992 C 706.12206 598.3216 698.096 629.79078 690.32031 656.21289 C 681.54743 631.08192 672.72885 610.69284 672.27539 586.86133 C 675.41604 586.03012 677.53562 583.97125 678.63086 580.68555 C 689.98104 581.12208 697.61759 579.24657 703.87891 575.71875 z M 537.88086 926.69336 L 574.04688 926.69336 L 574.04688 943.31055 C 572.74361 947.22029 560.36243 953.73479 536.9043 962.85742 C 538.20748 948.52187 538.53244 936.46763 537.88086 926.69336 z " />
</svg>
