<?xml version="1.0" encoding="UTF-8" standalone="no"?>
<svg
   width="800"
   height="1000"
   version="1.1"
   id="svg1"
   sodipodi:docname="13788.svg"
   inkscape:version="1.4.3 (0d15f75, 2025-12-25)"
   xmlns:inkscape="http://www.inkscape.org/namespaces/inkscape"
   xmlns:sodipodi="http://sodipodi.sourceforge.net/DTD/sodipodi-0.dtd"
   xmlns="http://www.w3.org/2000/svg"
   xmlns:svg="http://www.w3.org/2000/svg">
  <defs
     id="defs1" />
  <sodipodi:namedview
     id="namedview1"
     pagecolor="#ffffff"
     bordercolor="#000000"
     borderopacity="0.25"
     inkscape:showpageshadow="2"
     inkscape:pageopacity="0.0"
     inkscape:pagecheckerboard="0"
     inkscape:deskcolor="#d1d1d1"
     inkscape:zoom="0.46204857"
     inkscape:cx="304.08059"
     inkscape:cy="695.8143"
     inkscape:window-width="1680"
     inkscape:window-height="998"
     inkscape:window-x="-8"
     inkscape:window-y="-8"
     inkscape:window-maximized="1"
     inkscape:current-layer="svg1"
     showguides="true">
    <sodipodi:guide
       position="654.23457,813.9954"
       orientation="1,0"
       id="guide5"
       inkscape:locked="false" />
    <sodipodi:guide
       position="729.46745,809.90902"
       orientation="0.14928743,-0.98879384"
       id="guide6"
       inkscape:locked="false" />
  </sodipodi:namedview>
  <path
     id="path1"
     style="fill:#000000;stroke:none;stroke-width:55.1716"
     d="M 470.45508 0 C 468.58909 0 466.80766 1.5266356 465.11133 4.5800781 C 461.71861 33.757322 458.1558 54.961788 454.42383 68.193359 C 450.69185 81.424893 446.45095 91.094283 441.70117 97.201172 C 434.91576 97.879709 430.1673 98.896854 427.45312 100.25391 C 424.73901 101.61099 421.17618 102.79857 416.76562 103.81641 C 412.35511 104.83421 407.09708 107.71898 400.99023 112.46875 L 328.72461 127.73438 L 328.72461 133.8418 C 328.72461 143.34135 332.45792 150.12797 339.92188 154.19922 C 353.49269 157.59193 381.31127 165.39369 423.38086 177.60742 C 412.41959 194.31031 405.2738 211.41596 401.94141 228.92188 L 143.24023 267.98047 L 142.78516 265.92773 L 137.33398 245.92188 C 132.3059 246.02797 129.65292 252.79142 129.37695 266.21094 C 127.97672 252.8268 120.23698 250.19636 106.15625 258.31836 C 95.137036 264.67402 88.47584 270.76603 86.173828 276.5957 L 66.136719 279.62109 L 69.271484 300.38672 L 89.802734 297.28711 C 98.246772 305.73446 109.03371 313.87115 122.16406 321.69727 C 182.62411 352.83774 241.73967 392.6621 294.88281 394.89453 L 388.77539 315.01172 L 388.77539 316.03125 C 409.81014 338.42311 420.32812 362.51039 420.32812 388.29492 C 420.32812 420.86491 419.81859 446.48075 418.80078 465.14062 C 417.78294 483.80047 412.86398 515.86 404.04297 561.32227 L 372.49023 712.97656 L 381.65039 712.97656 C 374.18644 727.2259 371.13312 738.76099 372.49023 747.58203 C 373.8473 756.40308 371.81309 777.77789 366.38477 811.70508 C 360.95646 845.63212 352.13565 879.22028 339.92188 912.46875 C 334.49356 926.03965 328.72407 935.87753 322.61719 941.98438 C 316.51034 948.09127 304.80671 954.02936 287.50391 959.79688 C 270.20112 965.56437 253.74707 969.29567 238.14062 970.99219 C 222.53418 972.68851 214.73047 980.99986 214.73047 995.92773 C 213.37336 998.64193 224.56939 1000 248.31836 1000 C 263.24624 1000 276.81748 997.28576 289.03125 991.85742 C 301.24498 986.42896 316.00191 987.10719 333.30469 993.89258 C 350.60751 1000.678 365.70539 998.30278 378.59766 986.76758 C 375.20495 960.30446 377.9192 936.55626 386.74023 915.52148 C 420.66729 850.38155 435.59468 807.12402 431.52344 785.75 C 427.45219 764.37596 431.18549 740.11818 442.7207 712.97656 L 484.44922 712.97656 C 484.44922 714.33363 487.50447 717.72596 493.61133 723.1543 C 494.96843 742.15343 500.39493 756.40274 509.89453 765.90234 C 528.89365 835.11351 539.41167 886.34517 541.44727 911.45117 C 539.41167 935.20014 519.39479 955.21712 481.39648 971.50195 C 462.39732 974.89285 448.65753 976.75848 440.17578 977.09961 C 431.69401 977.43887 427.45312 985.07213 427.45312 1000 L 492.5918 1000 C 508.19825 991.17916 531.27033 990.33039 561.80469 997.45508 C 592.33903 1004.5798 599.80174 989.14285 584.19531 951.14453 C 580.12406 937.57373 579.44603 921.96825 582.16016 904.32617 C 584.87435 835.79354 581.31153 789.14376 571.47266 772.51953 C 561.63383 755.89525 556.3758 736.38596 555.69727 713.99414 L 562.82227 715.01172 C 560.78662 695.33403 558.75044 628.83782 556.71484 515.52148 C 556.75941 513.69406 556.78353 511.89484 556.78711 510.12305 C 588.82622 530.32396 609.7979 557.5295 619.70117 591.74023 C 637.53288 655.801 631.29856 709.12247 635.12695 774.45898 C 638.01994 815.27738 643.32305 840.82869 651.03711 851.11328 C 676.74923 858.82738 683.17803 849.50562 670.32227 823.15039 C 664.53687 673.37623 651.19828 583.38386 630.30664 553.17188 C 609.41555 522.95996 584.8288 500.46216 556.54492 485.67773 L 555.5293 488.72461 C 553.80218 473.63778 550.21798 461.07173 544.50195 451.39844 C 549.93028 434.43492 548.57221 420.18558 540.42969 408.65039 C 541.10822 370.65208 539.2992 353.01008 557.24414 325.08594 C 570.63367 304.25048 573.5663 271.80381 575.03516 246.81836 C 575.3972 240.65998 575.35043 232.20781 575.14844 224.00977 L 631.48633 215.50391 C 598.52842 260.64949 583.45223 309.02331 584.48828 348.9668 C 585.08367 371.92125 591.02981 392.29325 602.84766 407.35547 C 614.6655 422.41769 632.68616 431.58398 654.23438 431.58398 C 675.7826 431.58398 693.80325 422.41769 705.62109 407.35547 C 717.43894 392.29325 723.38508 371.92125 723.98047 348.9668 C 725.06388 307.19734 708.52931 256.20918 672.35156 209.33398 L 689.33398 206.76953 L 686.19922 186.00391 L 574.33789 202.89258 C 574.15364 199.2273 574.01758 196.94727 574.01758 196.94727 C 574.01758 155.55625 555.01783 122.64622 517.01953 98.21875 C 517.01953 76.505421 514.98528 57.505679 510.91406 41.220703 C 506.84277 24.935725 503.78951 12.722567 501.75391 4.5800781 C 497.00412 -0.16970068 492.93177 0.16934275 489.53906 5.5976562 C 491.57467 13.740143 491.57467 26.462845 489.53906 43.765625 C 487.50342 61.06844 485.8063 70.737835 484.44922 72.773438 C 485.12775 58.524102 484.62022 44.952851 482.92383 32.060547 C 481.22751 19.16828 479.02274 10.008391 476.30859 4.5800781 C 474.27295 1.5266356 472.32106 0 470.45508 0 z M 424.7168 106.26562 C 426.37074 106.24442 427.96157 106.44701 429.48828 106.87109 C 435.59515 108.56747 441.70173 111.11119 447.80859 114.50391 L 459.00391 114.50391 L 459.00391 117.55664 L 447.80859 117.55664 C 440.34465 114.16394 434.06759 111.95921 428.97852 110.94141 C 423.88948 109.9236 417.2753 111.78928 409.13281 116.53906 L 408.11523 112.46875 C 414.22209 108.39751 419.75498 106.32924 424.7168 106.26562 z M 516.00195 111.45117 C 547.21481 136.55718 562.82227 164.71484 562.82227 195.92773 L 562.82227 204.63086 L 474.08984 218.02734 C 471.56124 201.91301 467.55033 187.08339 462.05859 173.53711 C 484.45044 168.7873 492.25416 154.53799 485.46875 130.78906 C 497.68248 129.43199 507.85944 122.98636 516.00195 111.45117 z M 422.49023 114.72656 C 423.7625 114.66295 425.07847 114.75921 426.43555 115.01367 C 431.86389 116.03147 436.95138 118.2362 441.70117 121.62891 L 460.02344 122.64648 L 460.02344 130.78906 L 441.70117 127.73438 C 430.84451 131.80563 423.04274 133.33425 418.29297 132.31641 C 413.54315 131.29861 409.80983 130.78906 407.0957 130.78906 L 406.07812 127.73438 L 412.18555 119.59375 C 415.23898 116.54031 418.67344 114.91739 422.49023 114.72656 z M 427.45312 118.57422 C 430.1673 121.2884 430.1673 124.34166 427.45312 127.73438 L 438.64844 124.68164 L 427.45312 118.57422 z M 418.29297 119.59375 L 410.15039 126.7168 L 418.29297 128.75391 C 415.57878 126.03974 415.57878 122.98646 418.29297 119.59375 z M 434.57812 187.78711 C 448.14896 198.64378 450.1832 207.97217 440.68359 215.77539 C 438.02905 217.95591 435.74674 220.7328 433.83398 224.10547 L 416.74414 226.68555 C 420.18333 211.21419 426.12873 198.24825 434.57812 187.78711 z M 654.23438 215.44141 C 690.84175 260.78627 706.96979 310.58388 705.98633 348.5 C 705.46522 368.59053 700.16981 385.14192 691.45898 396.24414 C 682.74816 407.34637 670.95225 413.58398 654.23438 413.58398 C 637.51651 413.58398 625.72059 407.34637 617.00977 396.24414 C 608.29894 385.14192 603.00353 368.59053 602.48242 348.5 C 601.49896 310.58388 617.62681 260.78627 654.23438 215.44141 z M 562.82227 225.87109 L 562.82227 244.7832 L 541.44727 238.67773 C 541.44727 234.46879 537.36767 231.89079 529.20898 230.94531 L 562.82227 225.87109 z M 508.0625 234.13867 C 505.21312 236.51348 503.78906 240.06184 503.78906 244.7832 L 503.78906 253.94336 L 503.78906 318.06641 L 477.32617 318.06641 L 477.32617 262.08594 C 477.32617 254.11544 477.04418 246.38989 476.48242 238.90625 L 508.0625 234.13867 z M 427.31055 246.33008 C 426.7262 251.11284 426.43555 256.36404 426.43555 262.08594 L 426.43555 318.06641 L 413.20312 318.06641 L 413.20312 262.08594 C 413.20312 257.36315 413.36133 252.79896 413.67383 248.38867 L 427.31055 246.33008 z M 382.74414 253.05859 C 347.98492 276.74224 318.50029 318.87344 293.00195 345.4707 C 244.34904 319.83556 187.5895 323.01905 145.11523 296.89844 C 146.3127 294.04383 146.98257 291.28844 147.12305 288.63281 L 382.74414 253.05859 z M 439.66602 253.94336 L 464.09375 253.94336 L 464.09375 331.29688 L 513.9668 331.29688 L 513.9668 253.94336 L 541.44727 253.94336 L 562.82227 259.0332 C 562.82227 278.71089 556.88421 299.23726 545.00977 320.61133 C 533.13528 341.98534 527.19922 373.70584 527.19922 415.77539 L 437.63086 461.57812 C 437.63086 389.65278 432.20236 346.22478 421.3457 331.29688 L 439.66602 331.29688 L 439.66602 253.94336 z M 530.25195 424.93555 C 536.3588 431.04241 536.69784 440.54329 531.26953 453.43555 L 440.68359 488.04102 C 448.82608 479.89853 448.48704 473.45292 439.66602 468.70312 L 530.25195 424.93555 z M 533.30469 464.63086 C 540.76862 475.48752 544.16096 494.14821 543.48242 520.61133 L 544.50195 691.60352 L 525.16211 691.60352 C 468.16466 629.85628 439.66602 565.73334 439.66602 499.23633 L 533.30469 464.63086 z M 431.80273 473.55664 C 435.00989 473.58579 436.61328 475.69994 436.61328 479.89844 C 436.61328 486.00529 432.88189 490.41475 425.41797 493.12891 L 426.43555 474.80859 C 428.55598 473.96041 430.34494 473.54339 431.80273 473.55664 z M 428.4707 508.39648 C 429.14924 569.4652 454.59461 630.53482 504.80664 691.60352 L 394.88281 691.60352 L 428.4707 508.39648 z M 394.88281 698.72852 L 545.51953 698.72852 L 546.53711 703.81641 L 392.84766 703.81641 L 394.88281 698.72852 z " />
</svg>
