<?xml version="1.0" encoding="UTF-8" standalone="no"?>
<svg
   width="800"
   height="1000"
   version="1.1"
   id="svg1"
   sodipodi:docname="13789.svg"
   inkscape:version="1.4.3 (0d15f75, 2025-12-25)"
   xmlns:inkscape="http://www.inkscape.org/namespaces/inkscape"
   xmlns:sodipodi="http://sodipodi.sourceforge.net/DTD/sodipodi-0.dtd"
   xmlns="http://www.w3.org/2000/svg"
   xmlns:svg="http://www.w3.org/2000/svg">
  <defs
     id="defs1" />
  <sodipodi:namedview
     id="namedview1"
     pagecolor="#ffffff"
     bordercolor="#000000"
     borderopacity="0.25"
     inkscape:showpageshadow="2"
     inkscape:pageopacity="0.0"
     inkscape:pagecheckerboard="0"
     inkscape:deskcolor="#d1d1d1"
     inkscape:zoom="0.32671768"
     inkscape:cx="442.27788"
     inkscape:cy="840.17493"
     inkscape:window-width="1680"
     inkscape:window-height="998"
     inkscape:window-x="-8"
     inkscape:window-y="-8"
     inkscape:window-maximized="1"
     inkscape:current-layer="svg1"
     showguides="true">
    <sodipodi:guide
       position="729.46745,809.90902"
       orientation="0.14928743,-0.98879384"
       id="guide1"
       inkscape:locked="false" />
    <sodipodi:guide
       position="706.8039,737.12627"
       orientation="1,0"
       id="guide2"
       inkscape:locked="false" />
  </sodipodi:namedview>
  <path
     id="path1"
     style="fill:#000000;stroke:none;stroke-width:55.1716"
     d="M 470.45508 0 C 468.58909 0 466.80766 1.5266356 465.11133 4.5800781 C 461.71861 33.757322 458.1558 54.961788 454.42383 68.193359 C 450.69185 81.424893 446.45095 91.094283 441.70117 97.201172 C 434.91576 97.879709 430.1673 98.896854 427.45312 100.25391 C 424.73901 101.61099 421.17618 102.79857 416.76562 103.81641 C 412.35511 104.83421 407.09708 107.71898 400.99023 112.46875 L 328.72461 127.73438 L 328.72461 133.8418 C 328.72461 143.34135 332.45792 150.12797 339.92188 154.19922 C 353.49269 157.59193 381.31127 165.39369 423.38086 177.60742 C 412.41941 194.31058 405.27373 211.41567 401.94141 228.92188 L 143.24023 267.98047 L 142.78516 265.92773 L 137.33398 245.92188 C 132.3059 246.02797 129.65292 252.79142 129.37695 266.21094 C 127.97672 252.8268 120.23698 250.19636 106.15625 258.31836 C 95.137003 264.67404 88.475821 270.76601 86.173828 276.5957 L 66.136719 279.62109 L 69.271484 300.38672 L 89.802734 297.28711 C 98.246773 305.73446 109.03371 313.87115 122.16406 321.69727 C 182.62411 352.83774 241.73967 392.6621 294.88281 394.89453 L 388.77539 315.01172 L 388.77539 316.03125 C 409.81014 338.42311 420.32812 362.51039 420.32812 388.29492 C 420.32812 420.86491 419.81859 446.48075 418.80078 465.14062 C 417.78294 483.80047 412.86398 515.86 404.04297 561.32227 L 372.49023 712.97656 L 381.65039 712.97656 C 374.18644 727.2259 371.13312 738.76099 372.49023 747.58203 C 373.8473 756.40308 371.81309 777.77789 366.38477 811.70508 C 360.95646 845.63212 352.13565 879.22028 339.92188 912.46875 C 334.49356 926.03965 328.72407 935.87753 322.61719 941.98438 C 316.51034 948.09127 304.80671 954.02936 287.50391 959.79688 C 270.20112 965.56437 253.74707 969.29567 238.14062 970.99219 C 222.53418 972.68851 214.73047 980.99986 214.73047 995.92773 C 213.37336 998.64193 224.56939 1000 248.31836 1000 C 263.24624 1000 276.81748 997.28576 289.03125 991.85742 C 301.24498 986.42896 316.00191 987.10719 333.30469 993.89258 C 350.60751 1000.678 365.70539 998.30278 378.59766 986.76758 C 375.20495 960.30446 377.9192 936.55626 386.74023 915.52148 C 420.66729 850.38155 435.59468 807.12402 431.52344 785.75 C 427.45219 764.37596 431.18549 740.11818 442.7207 712.97656 L 484.44922 712.97656 C 484.44922 714.33363 487.50447 717.72596 493.61133 723.1543 C 494.96843 742.15343 500.39493 756.40274 509.89453 765.90234 C 528.89365 835.11351 539.41167 886.34517 541.44727 911.45117 C 539.41167 935.20014 519.39479 955.21712 481.39648 971.50195 C 462.39732 974.89285 448.65753 976.75848 440.17578 977.09961 C 431.69401 977.43887 427.45312 985.07213 427.45312 1000 L 492.5918 1000 C 508.19825 991.17916 531.27033 990.33039 561.80469 997.45508 C 592.33903 1004.5798 599.80174 989.14285 584.19531 951.14453 C 580.12406 937.57373 579.44603 921.96825 582.16016 904.32617 C 584.87435 835.79354 581.31153 789.14376 571.47266 772.51953 C 561.63383 755.89525 556.3758 736.38596 555.69727 713.99414 L 562.82227 715.01172 C 560.78662 695.33403 558.75044 628.83782 556.71484 515.52148 C 557.39337 487.70131 553.32296 466.32634 544.50195 451.39844 C 549.93028 434.43492 548.57221 420.18558 540.42969 408.65039 C 541.10822 370.65208 552.30426 339.10012 574.01758 313.99414 C 580.12443 377.09843 586.231 413.06181 592.33789 421.88281 C 585.55247 453.0957 582.4992 486.6838 583.17773 522.64648 L 588.26758 553.17969 L 587.25 554.19922 C 579.78609 566.41296 576.22327 577.77751 576.5625 588.29492 C 576.9018 598.81232 575.88277 606.78488 573.50781 612.21289 C 571.133 617.64135 570.9644 621.03368 573 622.39062 C 575.71415 624.42634 577.91888 623.91867 579.61523 620.86523 C 581.31156 617.81179 582.4992 613.23185 583.17773 607.125 C 583.85631 601.01815 584.87341 596.60679 586.23047 593.89258 C 587.58755 591.85685 588.94561 590.83984 590.30273 590.83984 C 591.65978 590.83984 592.33789 592.53507 592.33789 595.92773 C 590.98082 609.49857 588.60561 619.33842 585.21289 625.44531 C 581.82017 631.55219 577.41071 639.69495 571.98242 649.87305 C 571.30387 652.58737 571.64293 654.6216 573 655.97852 C 574.35712 657.3358 575.71326 656.99668 577.07031 654.96094 C 576.3918 659.7109 578.08898 660.72984 582.16016 658.01562 C 582.16016 662.76558 583.85729 663.78257 587.25 661.06836 C 587.92855 663.78257 589.28466 664.8015 591.32031 664.12305 C 592.67739 664.12305 594.03549 663.10412 595.39258 661.06836 C 598.10673 652.9259 602.00667 644.61458 607.0957 636.13281 C 612.18477 627.65104 614.73047 621.03493 614.73047 616.28516 C 616.0875 608.14267 616.59509 599.49037 616.25586 590.33008 C 615.91661 581.16975 615.06995 569.12714 613.71289 554.19922 C 623.21241 489.05932 626.26575 441.5609 622.87305 411.70508 C 623.55161 379.13512 620.49828 334.69 613.71289 278.37109 C 610.9987 260.0505 598.1055 249.53254 575.03516 246.81836 L 574.57227 224.0957 L 697.80469 205.49023 L 697.80469 251.25 C 689.92641 243.09098 681.38089 235.00739 672.15039 227.05664 L 660.4043 240.69531 C 673.20431 251.72069 684.56431 262.98867 694.55859 274.30469 C 661.99995 314.73587 645.0613 355.72573 641.6543 390.6543 C 639.27782 415.0179 643.50516 436.68103 654.6582 452.74414 C 665.81124 468.80725 684.21142 478.48242 706.36914 478.48242 C 728.52686 478.48242 746.92899 468.80725 758.08203 452.74414 C 769.23507 436.68103 773.46241 415.0179 771.08594 390.6543 C 767.67896 355.726 750.74036 314.73557 718.18164 274.30469 C 728.17612 262.98835 739.53557 251.72099 752.33594 240.69531 L 740.58789 227.05664 C 731.6965 234.7153 723.44072 242.49579 715.80469 250.34961 L 715.80469 202.77344 L 740.44336 199.05273 L 737.30859 178.28906 L 574.13867 202.92383 L 574.01758 196.94727 C 574.01758 155.55625 555.01783 122.64622 517.01953 98.21875 C 517.01953 76.505421 514.98528 57.505679 510.91406 41.220703 C 506.84277 24.935725 503.78951 12.722567 501.75391 4.5800781 C 497.00412 -0.16970068 492.93177 0.16934275 489.53906 5.5976562 C 491.57467 13.740143 491.57467 26.462845 489.53906 43.765625 C 487.50342 61.06844 485.8063 70.737835 484.44922 72.773438 C 485.12775 58.524102 484.62022 44.952851 482.92383 32.060547 C 481.22751 19.16828 479.02274 10.008391 476.30859 4.5800781 C 474.27295 1.5266356 472.32106 0 470.45508 0 z M 424.7168 106.26562 C 426.37074 106.24442 427.96157 106.44701 429.48828 106.87109 C 435.59515 108.56747 441.70173 111.11119 447.80859 114.50391 L 459.00391 114.50391 L 459.00391 117.55664 L 447.80859 117.55664 C 440.34465 114.16394 434.06759 111.95921 428.97852 110.94141 C 423.88948 109.9236 417.2753 111.78928 409.13281 116.53906 L 408.11523 112.46875 C 414.22209 108.39751 419.75498 106.32924 424.7168 106.26562 z M 516.00195 111.45117 C 547.21481 136.55718 562.82227 164.71484 562.82227 195.92773 L 562.82227 204.63281 L 474.08984 218.0293 C 471.56126 201.9142 467.55056 187.08394 462.05859 173.53711 C 484.45044 168.7873 492.25416 154.53799 485.46875 130.78906 C 497.68248 129.43199 507.85944 122.98636 516.00195 111.45117 z M 422.49023 114.72656 C 423.7625 114.66295 425.07847 114.75921 426.43555 115.01367 C 431.86389 116.03147 436.95138 118.2362 441.70117 121.62891 L 460.02344 122.64648 L 460.02344 130.78906 L 441.70117 127.73438 C 430.84451 131.80563 423.04274 133.33425 418.29297 132.31641 C 413.54315 131.29861 409.80983 130.78906 407.0957 130.78906 L 406.07812 127.73438 L 412.18555 119.59375 C 415.23898 116.54031 418.67344 114.91739 422.49023 114.72656 z M 427.45312 118.57422 C 430.1673 121.2884 430.1673 124.34166 427.45312 127.73438 L 438.64844 124.68164 L 427.45312 118.57422 z M 418.29297 119.59375 L 410.15039 126.7168 L 418.29297 128.75391 C 415.57878 126.03974 415.57878 122.98646 418.29297 119.59375 z M 434.57812 187.78711 C 448.14895 198.64378 450.1832 207.97217 440.68359 215.77539 C 438.02884 217.95608 435.74488 220.73439 433.83203 224.10742 L 416.74414 226.6875 C 420.18323 211.21482 426.12819 198.24892 434.57812 187.78711 z M 562.82227 225.86914 L 562.82227 244.7832 L 541.44727 238.67773 C 541.44727 234.46866 537.36818 231.89071 529.20898 230.94531 L 562.82227 225.86914 z M 508.06445 234.13672 C 505.21359 236.51154 503.78906 240.06061 503.78906 244.7832 L 503.78906 253.94336 L 503.78906 318.06641 L 477.32617 318.06641 L 477.32617 262.08594 C 477.32617 254.11551 477.04417 246.38983 476.48242 238.90625 L 508.06445 234.13672 z M 427.31055 246.33008 C 426.7262 251.11282 426.43555 256.36407 426.43555 262.08594 L 426.43555 318.06641 L 413.20312 318.06641 L 413.20312 262.08594 C 413.20312 257.36376 413.36141 252.79844 413.67383 248.38867 L 427.31055 246.33008 z M 382.74609 253.05859 C 347.98676 276.7422 318.50035 318.87338 293.00195 345.4707 C 244.34904 319.83556 187.5895 323.01905 145.11523 296.89844 C 146.3127 294.04382 146.98257 291.28846 147.12305 288.63281 L 382.74609 253.05859 z M 439.66602 253.94336 L 464.09375 253.94336 L 464.09375 331.29688 L 513.9668 331.29688 L 513.9668 253.94336 L 541.44727 253.94336 L 562.82227 259.0332 C 562.82227 278.71089 556.88421 299.23726 545.00977 320.61133 C 533.13528 341.98534 527.19922 373.70584 527.19922 415.77539 L 437.63086 461.57812 C 437.63086 389.65278 432.20236 346.22478 421.3457 331.29688 L 439.66602 331.29688 L 439.66602 253.94336 z M 706.36914 288.49219 C 735.55165 325.76101 750.27363 362.68763 753.17188 392.40039 C 755.24514 413.65545 751.2882 430.96906 743.29688 442.47852 C 735.30557 453.98797 723.60137 460.48242 706.36914 460.48242 C 689.13691 460.48242 677.43468 453.98797 669.44336 442.47852 C 661.45204 430.96906 657.4951 413.65545 659.56836 392.40039 C 662.4666 362.68764 677.18663 325.761 706.36914 288.49219 z M 530.25195 424.93555 C 536.3588 431.04241 536.69784 440.54329 531.26953 453.43555 L 440.68359 488.04102 C 448.82608 479.89853 448.48704 473.45292 439.66602 468.70312 L 530.25195 424.93555 z M 533.30469 464.63086 C 540.76862 475.48752 544.16096 494.14821 543.48242 520.61133 L 544.50195 691.60352 L 525.16211 691.60352 C 468.16466 629.85628 439.66602 565.73334 439.66602 499.23633 L 533.30469 464.63086 z M 431.80273 473.55664 C 435.00989 473.58579 436.61328 475.69994 436.61328 479.89844 C 436.61328 486.00529 432.88189 490.41475 425.41797 493.12891 L 426.43555 474.80859 C 428.55598 473.96041 430.34494 473.54339 431.80273 473.55664 z M 428.4707 508.39648 C 429.14924 569.4652 454.59461 630.53482 504.80664 691.60352 L 394.88281 691.60352 L 428.4707 508.39648 z M 588.26758 522.64648 L 612.69531 523.66406 L 611.67578 545.03711 L 590.30273 546.05664 L 588.26758 522.64648 z M 394.88281 698.72852 L 545.51953 698.72852 L 546.53711 703.81641 L 392.84766 703.81641 L 394.88281 698.72852 z " />
</svg>
