<?xml version="1.0" encoding="UTF-8" standalone="no"?>
<svg
   width="550"
   height="1000"
   version="1.1"
   id="svg1"
   sodipodi:docname="13795.svg"
   inkscape:version="1.4.2 (f4327f4, 2025-05-13)"
   xmlns:inkscape="http://www.inkscape.org/namespaces/inkscape"
   xmlns:sodipodi="http://sodipodi.sourceforge.net/DTD/sodipodi-0.dtd"
   xmlns="http://www.w3.org/2000/svg"
   xmlns:svg="http://www.w3.org/2000/svg">
  <defs
     id="defs1" />
  <sodipodi:namedview
     id="namedview1"
     pagecolor="#ffffff"
     bordercolor="#666666"
     borderopacity="1.0"
     inkscape:showpageshadow="2"
     inkscape:pageopacity="0.0"
     inkscape:pagecheckerboard="0"
     inkscape:deskcolor="#d1d1d1"
     inkscape:zoom="0.53386562"
     inkscape:cx="214.47345"
     inkscape:cy="360.57763"
     inkscape:window-width="1680"
     inkscape:window-height="998"
     inkscape:window-x="-8"
     inkscape:window-y="-8"
     inkscape:window-maximized="1"
     inkscape:current-layer="svg1" />
  <path
     style="fill:#000000;stroke:none;stroke-width:55.639"
     d="M 401.33669,0.015625 C 394.42066,0.21136299 387.30825,2.266909 380.00075,6.1816406 370.9534,13.141151 364.68951,26.015944 361.20974,44.806641 V 247.32812 c -45.19678,7.11762 -78.47203,18.6752 -98.12891,62.63477 -5.56764,22.96641 -15.13597,44.19302 -28.70703,63.67969 -13.57105,19.48663 -9.91763,28.88343 10.96094,28.1875 -6.26357,4.87164 -5.91654,9.04756 1.04297,12.52734 -4.87164,3.47977 -5.21867,6.6105 -1.04297,9.39453 4.17571,2.7838 5.5677,9.04771 4.17578,18.79102 -8.35145,49.41259 -19.48722,83.86294 -33.40625,103.34961 -13.91902,19.48672 -26.6203,27.14055 -38.10352,22.96484 -11.48318,-4.17598 -18.44308,-3.65308 -20.8789,1.56641 -2.43584,5.21961 1.21958,10.43854 10.96289,15.6582 9.74335,5.2196 25.05311,2.95818 45.93164,-6.78515 20.87857,-9.74333 43.49717,-51.84761 67.85547,-126.31446 l 18.79101,-6.26367 c 13.91906,11.83118 22.61793,29.57785 26.09766,53.24023 -13.91902,29.22998 -24.70585,78.64314 -32.36133,148.23829 -7.65548,69.59519 -12.52739,125.96619 -14.61523,169.11523 L 153.4695,655.50391 C 131.895,629.05775 104.05554,615.48707 69.953876,614.79102 61.602464,574.42583 57.775466,550.76224 58.471454,543.80273 71.694544,523.62013 91.182185,505.52642 116.93239,489.51953 89.094315,399.74175 75.87055,352.41661 77.262469,347.54492 87.00558,337.8016 90.262729,324.20518 86.657001,306.83203 82.607125,287.31888 69.197351,279.37069 46.989032,283.86523 10.733708,291.20262 -4.3078043,311.32049 1.0554378,343.36914 24.226343,481.82946 40.376539,573.72991 50.119891,618.9668 c -16.006893,4.17571 -26.967201,11.13557 -32.882812,20.8789 -5.915575,9.74334 -2.435633,16.35427 10.439453,19.83399 12.875122,3.47971 24.531419,16.35455 34.970703,38.625 39.669225,73.07497 69.943695,149.97864 90.822265,230.70898 L 48.032001,963.46289 54.295673,1000 H 485.43825 l -41.75781,-50.10938 c 16.70283,-55.67615 24.70771,-143.01764 24.01172,-262.02539 v -50.10742 h 41.75586 l -1.04297,-203.5664 c 10.43928,0 19.48515,-2.43696 27.14063,-7.3086 l -7.30664,-31.3164 16.70312,-6.26368 c -9.74331,-30.62188 -25.75101,-58.80838 -48.02148,-84.55859 8.35142,-8.35145 12.87633,-16.35433 13.57226,-24.00976 0.69597,-7.65549 -4.17595,-13.57234 -14.61523,-17.74805 -12.52712,0 -22.96691,8.70082 -31.31836,26.09961 -20.18256,-27.83808 -46.97713,-41.75782 -80.38281,-41.75782 0,-7.65548 2.78395,-13.2234 8.35156,-16.70312 14.61499,-4.87168 32.71065,-5.91466 54.28515,-3.13086 L 428.02224,74.037109 C 449.59675,53.15854 451.68471,33.3239 434.28591,14.533203 423.84662,4.5288952 412.8634,-0.31060498 401.33669,0.015625 Z m 4.76367,22.867187 c 11.13521,10e-7 16.70118,5.567872 16.70118,16.703126 -10e-6,11.831186 -6.6109,17.748046 -19.83399,17.748046 l 14.61523,140.929686 c -9.74332,-1.39191 -21.22612,-0.34888 -34.44921,3.13086 -2.78381,-96.04132 -1.39183,-149.977406 4.17578,-161.808592 1.39191,-11.135255 7.65575,-16.703126 18.79101,-16.703126 z M 361.20974,266.11914 v 22.9668 h -62.52539 c 17.18099,-15.31113 38.0217,-22.9668 62.52539,-22.9668 z m 22.9668,0 c 13.91902,0.69597 25.40182,3.82692 34.44921,9.39453 9.04738,5.56761 15.31129,10.0925 18.79102,13.57227 h -53.24023 z m 108.2539,5.24805 c 1.47143,0.0238 2.96784,0.36317 4.49024,1.01562 9.74332,7.65548 5.56738,17.74628 -12.52735,30.27344 26.44615,29.92591 43.49687,56.72043 51.15235,80.38281 l -10.4375,4.17578 c -4.87164,-22.96644 -17.3994,-47.32596 -37.58204,-73.07617 16.70286,27.14215 29.23063,62.2885 37.58204,105.4375 l -9.39649,3.13281 c -6.95951,-42.45304 -15.31134,-72.0315 -25.05469,-88.73437 -9.74328,-16.70282 -16.3542,-28.53463 -19.83398,-35.49414 6.45928,-18.20352 13.66173,-27.24172 21.60742,-27.11328 z m -0.71289,5.87695 c -4.79554,0.15226 -9.32517,7.2303 -13.58789,21.23633 15.31096,-7.65548 20.53183,-14.61533 15.66016,-20.87891 -0.69596,-0.26098 -1.38719,-0.37917 -2.07227,-0.35742 z m -1.06055,4.5332 c 1.3919,2.7838 -1.39206,6.61268 -8.35156,11.48438 2.78384,-7.65548 5.56777,-11.48438 8.35156,-11.48438 z M 55.405048,300.63281 c 7.437981,0.1305 12.074113,3.5599 13.505859,10.375 2.918373,13.89143 -1.739126,24.70585 -13.570312,32.36133 0,8.35141 12.178803,52.54566 36.537109,132.58008 -17.398797,10.43929 -31.318564,23.31404 -41.757813,38.625 L 19.846454,342.32617 c -3.856941,-21.945 3.480205,-35.14528 27.142578,-40.71289 3.13178,-0.69595 5.936689,-1.02397 8.416016,-0.98047 z m 248.388672,9.33008 h 57.41602 v 8.35156 h 22.9668 v -8.35156 h 66.8125 c 25.75024,33.40569 38.27604,91.51767 37.58007,174.33594 v 130.49219 h -20.87695 v -84.5586 c 0,-35.49356 -16.70369,-61.5921 -50.10938,-78.29492 -18.7907,-15.31096 -28.18554,-30.9697 -28.18554,-46.97656 22.33598,-21.21916 35.03474,-44.82214 25.57617,-68.89844 -3.82774,-9.74332 -11.13658,-15.48472 -21.92383,-17.22461 -10.78725,-1.7399 -21.74759,1.56461 -32.88281,9.91602 -11.83119,-6.26354 -30.62284,-12.52744 -56.37305,-18.79102 z m -27.14062,10.43945 c 27.14211,4.87164 54.97962,14.26845 83.51367,28.1875 -8.35141,43.149 -21.2262,69.24559 -38.625,78.29297 -17.3988,9.04735 -32.01452,14.26826 -43.8457,15.66016 -11.83119,2.08787 -17.05011,-9e-5 -15.65821,-6.26367 1.39192,-6.26354 0.69589,-10.78648 -2.08789,-13.57032 21.57452,-3.47974 27.14241,-8.00461 16.70313,-13.57226 -10.43925,-5.56762 -16.70316,-6.95962 -18.79102,-4.17578 2.78381,-10.43928 -2.7841,-16.00714 -16.70312,-16.70313 15.31092,-25.05427 27.14273,-47.67291 35.49414,-67.85547 z m 10.33203,10.32618 c -6.27989,0.1631 -11.81103,2.63722 -16.5957,7.42187 v 9.39453 c 7.65548,-10.43928 26.44518,-9.04731 56.37109,4.17578 l 21.92383,1.04492 v -6.26367 l -21.92383,-1.04492 c -0.18721,-0.11233 -26.24623,-15.07992 -39.77539,-14.72851 z m 96.16406,8.70117 c 2.77293,-0.11418 5.20316,0.67667 7.29102,2.37304 19.44531,15.79941 -13.39539,44.88762 -22.9668,52.71875 2.78384,39.66927 18.09555,66.11675 45.93359,79.33985 -11.83118,28.53401 -33.75382,36.53688 -65.76757,24.00976 -2.78384,-25.75021 -11.83165,-45.93379 -27.14258,-60.54882 23.66238,-12.52712 38.97408,-42.45264 45.93359,-89.77735 6.52455,-5.21963 12.0972,-7.92493 16.71875,-8.11523 z m -92.66406,8.37695 c -9.22137,-0.17399 -15.57296,3.21822 -19.05274,10.17774 l -9.39453,5.2207 v 6.26172 h 8.35157 c 12.52712,8.35142 31.31682,6.96138 56.37109,-4.17383 l 21.92383,2.08594 v -9.39453 l -21.92383,1.04492 c -14.96296,-7.3075 -27.05403,-11.04867 -36.27539,-11.22266 z m -5.48047,7.04688 c -2.08787,4.87164 -1.39185,9.3946 2.08789,13.57031 -4.87164,-1.39192 -9.04757,-2.78386 -12.52734,-4.17578 0.69597,-3.47973 4.17587,-6.61073 10.43945,-9.39453 z m 15.6582,0 18.79102,7.30664 c -6.26358,2.7838 -12.52744,4.52278 -18.79102,5.21875 4.17576,-3.47977 4.17576,-7.65375 0,-12.52539 z m 127.35938,130.49023 c 13.91903,10.43928 17.77705,25.29054 17.74609,44.88867 -0.0829,52.50429 1.04487,105.11739 1.04487,157.63281 -1.3919,119.00775 -11.83169,209.48222 -31.31836,271.42188 l 30.27344,18.79101 H 79.35036 v -1.04492 l 99.17383,-33.40625 C 153.46995,842.71395 120.75853,757.46043 80.393329,687.86523 92.920448,668.37862 111.36316,661.07161 135.72146,665.94336 L 278.74099,851.76172 H 297.532 L 319.22698,652.879 c 5.09168,-46.67658 12.38989,-90.15923 23.19384,-135.17392 11.83119,5.56761 27.14094,6.61258 45.93164,3.13281 18.79069,-3.47974 32.01444,-15.31155 39.66992,-35.49414 z M 78.63161,635.27734 c 13.179598,-0.78294 27.33962,3.52459 42.47657,12.91993 -25.750213,0 -42.106867,7.3069 -49.066414,21.92187 -6.263543,-12.52712 -13.047954,-19.66056 -20.355468,-21.40039 -7.307477,-1.73984 -2.609076,-5.39331 14.09375,-10.96094 4.175716,-1.39191 8.458363,-2.21948 12.851562,-2.48047 z"
     id="path1"
     sodipodi:nodetypes="sccccsccccscssscccsccccccssscssccccccccccccccscccccccsssccccscccccscccscccccccscssccscccsscccscscccccccccsccssccccscscscccsccccccssccccccssccccccccscccccccccsccccccccccscsccsccsss" />
</svg>
