<?xml version="1.0" encoding="UTF-8" standalone="no"?>
<svg
   width="550"
   height="1000"
   version="1.1"
   id="svg1"
   sodipodi:docname="13794.svg"
   inkscape:version="1.4.2 (f4327f4, 2025-05-13)"
   xmlns:inkscape="http://www.inkscape.org/namespaces/inkscape"
   xmlns:sodipodi="http://sodipodi.sourceforge.net/DTD/sodipodi-0.dtd"
   xmlns="http://www.w3.org/2000/svg"
   xmlns:svg="http://www.w3.org/2000/svg">
  <defs
     id="defs1" />
  <sodipodi:namedview
     id="namedview1"
     pagecolor="#ffffff"
     bordercolor="#666666"
     borderopacity="1.0"
     inkscape:showpageshadow="2"
     inkscape:pageopacity="0.0"
     inkscape:pagecheckerboard="0"
     inkscape:deskcolor="#d1d1d1"
     inkscape:zoom="3.02"
     inkscape:cx="120.03311"
     inkscape:cy="621.35762"
     inkscape:window-width="1680"
     inkscape:window-height="998"
     inkscape:window-x="-8"
     inkscape:window-y="-8"
     inkscape:window-maximized="1"
     inkscape:current-layer="svg1"
     showguides="true">
    <sodipodi:guide
       position="550,1000"
       orientation="0,-1"
       id="guide3"
       inkscape:locked="false" />
    <sodipodi:guide
       position="550,0"
       orientation="0,-1"
       id="guide4"
       inkscape:locked="false" />
  </sodipodi:namedview>
  <path
     id="path1"
     style="fill:#000000;stroke:none;stroke-width:55.639"
     d="M 401.33594,0.015625 C 394.41991,0.21136299 387.3075,2.266909 380,6.1816406 370.95265,13.141151 364.68875,26.015944 361.20898,44.806641 V 247.32812 c -45.19678,7.11762 -78.47202,18.6752 -98.1289,62.63477 -5.56764,22.96641 -15.13597,44.19302 -28.70703,63.67969 -13.57105,19.48663 -9.91764,28.88343 10.96093,28.1875 -6.26357,4.87164 -5.91654,9.04756 1.04297,12.52734 -4.87164,3.47977 -5.21867,6.6105 -1.04297,9.39453 4.17571,2.7838 5.56771,9.04771 4.17579,18.79102 -8.35145,49.41259 -19.48722,83.86294 -33.40625,103.34961 -13.91902,19.48672 -26.6203,27.14055 -38.10352,22.96484 -11.48318,-4.17598 -18.44309,-3.65308 -20.87891,1.56641 -2.43584,5.21961 1.21958,10.43854 10.96289,15.6582 9.74335,5.2196 25.05311,2.95816 45.93164,-6.78515 20.87857,-9.74334 43.49717,-51.84761 67.85547,-126.31446 l 18.79102,-6.26367 c 13.91906,11.83118 22.61793,29.57785 26.09766,53.24023 -13.91902,29.22998 -24.70585,78.64314 -32.36133,148.23829 -7.65548,69.59519 -12.5274,125.96619 -14.61524,169.11523 l -126.31445,-161.80859 0.002,0.006 C 131.89607,629.0648 105.44855,615.49422 74.130859,614.79688 V 438.37305 c -0.69623,-34.1026 -12.178798,-51.84926 -34.449218,-53.24024 5.56762,-11.1352 17.39924,-25.75079 35.49414,-43.8457 7.65556,-4.17553 13.570574,-11.82963 17.746094,-22.96484 1.91386,-8.13386 -0.777609,-12.15614 -8.074219,-12.06641 -3.31664,0.0408 -7.585057,0.93005 -12.804687,2.66992 -13.91901,11.13522 -30.969864,28.53514 -51.152344,52.19727 -16.00696,13.22316 -26.7937281,26.79387 -32.361328,40.71289 -1.39172,4.17588 -5.220535,12.87487 -11.484375,26.09765 -6.26346,13.22316 -14.962456,40.71366 -26.097656,82.47071 1.39171,22.96664 6.959635,25.40154 16.703125,7.30664 2.78381,-11.13522 7.306852,-26.09791 13.570312,-44.88867 6.26383,-18.79077 16.3563807,-34.44964 30.275391,-46.97657 7.65519,-6.95895 14.266384,-11.482 19.833984,-13.57031 12.5273,0 18.791016,8.69898 18.791016,26.09766 v 180.59961 c -16.00695,4.1759 -26.969236,11.13579 -32.884766,20.8789 -5.91553,9.74388 -2.433834,16.3547 10.441406,19.83399 12.87484,3.47966 24.531354,16.3542 34.970704,38.625 39.669112,73.07474 69.941602,149.97284 90.820312,230.70312 L 48.03125,963.46289 54.294922,1000 H 485.4375 l -41.75781,-50.10938 c 16.70283,-55.67615 24.70771,-143.01764 24.01172,-262.02539 v -50.10742 h 41.75586 l -1.04297,-203.5664 c 10.43928,0 19.48514,-2.43696 27.14062,-7.3086 l -7.30664,-31.3164 16.70313,-6.26368 c -9.74331,-30.62188 -25.75102,-58.80838 -48.02149,-84.55859 8.35142,-8.35145 12.87634,-16.35435 13.57227,-24.00976 0.69597,-7.65549 -4.17596,-13.57234 -14.61524,-17.74805 -12.52712,0 -22.96691,8.70082 -31.31836,26.09961 -20.18256,-27.83808 -46.97713,-41.7578 -80.38281,-41.75782 0,-7.65548 2.78395,-13.2234 8.35156,-16.70312 14.61499,-4.87168 32.71066,-5.91466 54.28516,-3.13086 L 428.02148,74.037109 C 449.59599,53.15854 451.68396,33.3239 434.28516,14.533203 423.84587,4.5288954 412.86265,-0.31060498 401.33594,0.015625 Z m 4.76367,22.867187 c 11.13521,2e-6 16.70117,5.567872 16.70117,16.703126 -10e-6,11.831186 -6.61089,17.748046 -19.83398,17.748046 l 14.61523,140.929686 c -9.74332,-1.39191 -21.22613,-0.34888 -34.44922,3.13086 -2.78381,-96.04132 -1.39183,-149.977406 4.17578,-161.808592 1.39191,-11.135256 7.65576,-16.703126 18.79102,-16.703126 z M 361.20898,266.11914 v 22.9668 h -62.52539 c 17.18099,-15.31113 38.0217,-22.9668 62.52539,-22.9668 z m 22.9668,0 c 13.91902,0.69597 25.40183,3.82692 34.44922,9.39453 9.04738,5.56761 15.31129,10.0925 18.79102,13.57227 h -53.24024 z m 108.25391,5.24805 c 1.47143,0.0238 2.96783,0.36317 4.49023,1.01562 9.74332,7.65548 5.56739,17.74628 -12.52734,30.27344 26.44615,29.92591 43.49686,56.72043 51.15234,80.38281 l -10.4375,4.17578 c -4.87164,-22.96644 -17.39939,-47.32596 -37.58203,-73.07617 16.70286,27.14215 29.23062,62.2885 37.58203,105.4375 l -9.39648,3.13281 c -6.95951,-42.45304 -15.31134,-72.0315 -25.05469,-88.73437 -9.74328,-16.70282 -16.3542,-28.53463 -19.83398,-35.49414 6.45928,-18.20352 13.66173,-27.24172 21.60742,-27.11328 z m -0.71289,5.87695 c -4.79554,0.15226 -9.32517,7.2303 -13.58789,21.23633 15.31096,-7.65548 20.53182,-14.61533 15.66015,-20.87891 -0.69596,-0.26098 -1.38718,-0.37917 -2.07226,-0.35742 z m -1.06055,4.5332 c 1.3919,2.7838 -1.39206,6.61268 -8.35156,11.48438 2.78384,-7.65548 5.56777,-11.48438 8.35156,-11.48438 z m -186.86328,28.18555 h 57.41601 v 8.35156 h 22.9668 v -8.35156 h 66.8125 c 25.75024,33.40569 38.27605,91.51767 37.58008,174.33594 v 130.49219 h -20.87695 v -84.5586 c 0,-35.49356 -16.70369,-61.5921 -50.10938,-78.29492 -18.7907,-15.31096 -28.18555,-30.9697 -28.18555,-46.97656 22.33598,-21.21916 35.03475,-44.82214 25.57618,-68.89844 -3.82774,-9.74332 -11.13658,-15.48472 -21.92383,-17.22461 -10.78725,-1.7399 -21.74759,1.56461 -32.88281,9.91602 -11.83119,-6.26354 -30.62284,-12.52744 -56.37305,-18.79102 z m -27.14063,10.43945 c 27.14211,4.87164 54.97963,14.26845 83.51368,28.1875 -8.35141,43.149 -21.2262,69.24559 -38.625,78.29297 -17.3988,9.04735 -32.01453,14.26826 -43.84571,15.66016 -11.83119,2.08787 -17.0501,-9e-5 -15.6582,-6.26367 1.39192,-6.26354 0.69589,-10.78648 -2.08789,-13.57032 21.57452,-3.47974 27.1424,-8.00461 16.70312,-13.57226 -10.43925,-5.56762 -16.70315,-6.95962 -18.79101,-4.17578 2.78381,-10.43928 -2.78411,-16.00714 -16.70313,-16.70313 15.31092,-25.05427 27.14273,-47.67291 35.49414,-67.85547 z m 10.33204,10.32618 c -6.2799,0.1631 -11.81104,2.63722 -16.59571,7.42187 v 9.39453 c 7.65548,-10.43928 26.44519,-9.04731 56.3711,4.17578 l 21.92382,1.04492 v -6.26367 l -21.92382,-1.04492 c -0.18721,-0.11233 -26.24625,-15.07992 -39.77539,-14.72851 z m 96.16406,8.70117 c 2.77293,-0.11418 5.20315,0.67667 7.29101,2.37304 19.44531,15.79941 -13.39538,44.88762 -22.96679,52.71875 2.78384,39.66927 18.09555,66.11675 45.93359,79.33985 -11.83118,28.53401 -33.75383,36.53688 -65.76758,24.00976 -2.78384,-25.75021 -11.83165,-45.93379 -27.14258,-60.54882 23.66238,-12.52712 38.97409,-42.45264 45.9336,-89.77735 6.52455,-5.21963 12.0972,-7.92493 16.71875,-8.11523 z m -92.66406,8.37695 c -9.22137,-0.17399 -15.57296,3.21822 -19.05274,10.17774 l -9.39453,5.2207 v 6.26172 h 8.35156 c 12.52712,8.35142 31.31683,6.96138 56.3711,-4.17383 l 21.92382,2.08594 v -9.39453 l -21.92382,1.04492 c -14.96296,-7.3075 -27.05403,-11.04867 -36.27539,-11.22266 z m -5.48047,7.04688 c -2.08787,4.87164 -1.39185,9.3946 2.08789,13.57031 -4.87164,-1.39192 -9.04758,-2.78386 -12.52735,-4.17578 0.69597,-3.47973 4.17588,-6.61073 10.43946,-9.39453 z m 15.6582,0 18.79101,7.30664 c -6.26357,2.7838 -12.52743,4.52278 -18.79101,5.21875 4.17576,-3.47977 4.17576,-7.65375 0,-12.52539 z m 127.35937,130.49023 c 13.91894,10.43928 17.77706,25.29059 17.7461,44.88867 -0.0829,52.50429 1.04492,105.11739 1.04492,157.63281 -1.3919,119.00775 -11.83169,209.48222 -31.31836,271.42188 l 30.27344,18.79101 H 79.349609 V 977.0332 L 178.52344,943.62695 C 153.4692,842.71382 120.75985,757.46226 80.394531,687.86719 92.921831,668.38056 111.3643,661.07356 135.72266,665.94531 l 143.05664,184.52149 -0.0391,1.29492 h 1.04297 17.74805 l 21.69531,-198.88281 c 5.09168,-46.67658 12.38941,-90.15914 23.19336,-135.17383 11.83119,5.56761 27.14094,6.61258 45.93164,3.13281 18.79067,-3.47973 32.01444,-15.3116 39.66992,-35.49414 z M 83.621094,635.22266 c 11.746185,0.42808 24.241576,4.75185 37.486326,12.97265 -25.750088,0 -42.104761,7.30859 -49.064451,21.92383 -6.26345,-12.52729 -13.049802,-19.66074 -20.357422,-21.40039 -7.30726,-1.74003 -2.60907,-5.39334 14.09375,-10.96094 6.631651,-2.21055 12.740411,-2.72106 17.841797,-2.53515 z"
     sodipodi:nodetypes="sccccsccccscssscccsccccccccscccccccccscccccccccccccccccscccccccsssccccscccccscccscccccccscssccsccccccccccccsccssccccscscscccsccccccssccccccssccccccccsccccccccssccccccccccccccscssccsss" />
</svg>
