<?xml version="1.0" encoding="UTF-8" standalone="no"?>
<svg
   width="800"
   height="1000"
   version="1.1"
   id="svg1"
   sodipodi:docname="137A9.svg"
   inkscape:version="1.4.3 (0d15f75, 2025-12-25)"
   xmlns:inkscape="http://www.inkscape.org/namespaces/inkscape"
   xmlns:sodipodi="http://sodipodi.sourceforge.net/DTD/sodipodi-0.dtd"
   xmlns="http://www.w3.org/2000/svg"
   xmlns:svg="http://www.w3.org/2000/svg">
  <defs
     id="defs1" />
  <sodipodi:namedview
     id="namedview1"
     pagecolor="#ffffff"
     bordercolor="#000000"
     borderopacity="0.25"
     inkscape:showpageshadow="2"
     inkscape:pageopacity="0.0"
     inkscape:pagecheckerboard="0"
     inkscape:deskcolor="#d1d1d1"
     inkscape:zoom="0.32688404"
     inkscape:cx="-16.825539"
     inkscape:cy="677.61033"
     inkscape:window-width="1680"
     inkscape:window-height="998"
     inkscape:window-x="-8"
     inkscape:window-y="-8"
     inkscape:window-maximized="1"
     inkscape:current-layer="svg1" />
  <path
     id="path1"
     style="fill:#000000;stroke:none;stroke-width:55.6399"
     d="M 486.97266 -1.1368684e-13 C 453.67475 0.7084806 426.92957 12.220452 406.73828 34.537109 C 386.54699 56.853802 376.45117 81.828795 376.45117 109.45898 C 376.45117 109.58091 376.45088 109.70256 376.45117 109.82422 C 374.72853 98.719419 369.06038 90.449132 359.44727 85.015625 C 345.98643 81.473296 336.06763 81.119276 329.69141 83.953125 C 323.31524 86.78701 320.83698 91.037345 322.25391 96.705078 C 324.37932 100.95585 328.62968 103.08203 335.00586 103.08203 C 330.75505 116.5429 331.10907 131.42012 336.06836 147.71484 C 339.61069 162.59263 344.39212 176.93883 350.41406 190.75391 C 356.43604 204.56902 367.59591 208.99835 383.89062 204.03906 C 359.09433 213.9576 347.04937 223.16639 347.75781 231.66797 C 344.92395 228.83412 341.20462 228.48006 336.59961 230.60547 C 331.99456 232.73084 330.04737 236.9812 330.75586 243.35742 C 310.91881 250.44207 301 272.40583 301 309.24609 C 311.62699 303.57836 319.06564 301.45222 323.31641 302.86914 C 337.48576 302.86914 356.61332 331.20748 380.70117 387.88477 C 375.74189 392.13558 369.01134 400.2842 360.50977 412.32812 C 352.00814 424.37206 347.75781 445.27179 347.75781 475.02734 L 347.75781 544.10156 L 374.32617 544.10156 C 373.61768 583.06721 371.1375 662.41571 366.88672 782.14648 C 269.11837 641.87018 212.79576 569.60625 197.91797 565.35547 C 183.12206 541.81651 165.13343 527.53594 143.95312 522.51172 C 157.9899 514.79972 168.49586 502.69959 175.4707 486.21094 C 183.37092 467.5344 180.05011 445.20494 165.50977 419.22266 C 150.96942 393.24038 133.294 374.24815 112.48047 362.24805 C 91.666927 350.24795 75.491282 346.62901 63.955078 351.38867 C 51.949291 356.45003 42.892137 370.22892 36.785156 392.72852 C 30.678178 415.22811 31.86505 441.33509 40.34375 471.04687 C 48.822335 500.75865 63.008063 519.08976 82.900391 526.04297 C 84.862528 526.72882 86.810526 527.34653 88.744141 527.89258 C 70.87025 537.54681 64.043825 547.19922 68.267578 556.85352 C 73.226831 568.18894 87.041958 574.21144 109.71289 574.91992 C 99.794349 586.25539 97.316142 602.1967 102.27539 622.74219 C 103.69236 632.66072 118.0385 663.30221 145.31445 714.66602 C 172.5904 766.02982 195.4373 829.96808 213.85742 906.48242 L 136.28125 950.05273 L 141.59375 1000 L 595.36719 1000 L 559.23438 908.60742 C 579.7799 815.79831 590.4087 694.65042 591.11719 545.16406 L 650.62695 544.10156 C 649.91852 419.41154 631.499 328.37407 595.36719 270.98828 C 604.57725 261.06975 600.14986 246.90057 582.08398 228.48047 C 564.01808 210.06035 563.84108 190.57678 581.55273 170.03125 C 592.88818 151.61113 598.55469 131.06546 598.55469 108.39453 C 598.55469 77.930493 587.39675 52.426389 565.08008 31.880859 C 542.76337 11.335368 516.72821 0.7084806 486.97266 -1.1368684e-13 z M 486.97266 31.880859 C 506.10123 31.880859 523.98971 39.496479 540.63867 54.728516 C 557.28764 69.960552 565.61133 87.849036 565.61133 108.39453 C 565.61133 127.52314 558.52675 145.05758 544.35742 160.99805 C 530.18811 176.93853 511.06053 184.91016 486.97266 184.91016 C 464.30173 184.91016 445.70324 176.58451 431.17969 159.93555 C 416.65614 143.28663 409.39453 126.10621 409.39453 108.39453 C 409.39453 89.26596 416.65614 71.731497 431.17969 55.791016 C 445.70324 39.850499 464.30173 31.880859 486.97266 31.880859 z M 486.97266 88.203125 C 475.63721 89.620049 468.90666 96.706591 466.78125 109.45898 C 467.48972 122.21137 474.22027 128.58594 486.97266 128.58594 C 498.30809 127.87746 505.0367 121.50289 507.16211 109.45898 C 505.0367 97.415072 498.30809 90.32853 486.97266 88.203125 z M 376.91406 120.99023 C 378.41764 138.97805 383.57647 153.55413 392.39062 164.71875 C 390.26521 178.88806 386.01484 185.26458 379.63867 183.84766 C 373.26245 182.43074 370.07422 178.53442 370.07422 172.1582 C 370.07422 165.07354 371.49228 153.3826 374.32617 137.08789 C 375.77251 131.30252 376.63423 125.93717 376.91406 120.99023 z M 498.66211 211.47656 C 522.04153 222.10355 548.60773 252.03698 578.36328 301.27539 C 608.11887 350.51378 622.99805 422.24663 622.99805 516.47266 L 590.05273 516.47266 C 590.05273 442.08369 557.8181 404.88867 493.34766 404.88867 L 493.34766 517.53516 L 472.09375 516.47266 L 472.09375 359.19141 C 512.47632 328.72737 521.33304 279.48933 498.66211 211.47656 z M 435.96289 221.04102 C 462.88462 221.04102 478.29292 238.04438 482.18945 272.05078 C 486.08606 306.05715 458.63277 328.729 399.83008 340.06445 C 409.74857 344.31523 417.89526 352.10789 424.27148 363.44336 C 430.64765 374.77883 433.83594 386.4678 433.83594 398.51172 C 424.62587 401.34559 416.65619 399.75244 409.92578 393.73047 C 403.19537 387.70851 394.51765 372.65227 383.89062 348.56445 C 369.01286 306.7649 350.5914 286.22122 328.62891 286.92969 L 318.00195 286.92969 C 320.12736 278.42811 324.37965 276.65598 330.75586 281.61523 C 334.29819 275.9475 342.09085 275.23942 354.13477 279.49023 C 343.50777 268.86325 338.54737 258.59041 339.25586 248.67187 C 344.92356 248.67187 348.46584 246.19167 349.88281 241.23242 C 352.71666 241.9409 360.8653 238.75267 374.32617 231.66797 C 387.78699 224.58332 408.33269 221.04102 435.96289 221.04102 z M 406.28906 231.89258 C 401.27445 231.92025 395.93335 232.19912 390.26562 232.73047 C 396.64184 236.2728 397.70589 240.87913 393.45508 246.54687 C 390.62119 240.87913 385.66082 238.04492 378.57617 238.04492 C 367.24074 238.04492 361.57227 245.48353 361.57227 260.36133 C 367.94846 265.32058 370.95972 269.92497 370.60547 274.17578 C 370.25123 278.42656 369.36614 281.26078 367.94922 282.67773 C 372.20003 287.63698 376.80442 300.39002 381.76367 320.93555 C 384.59754 320.93555 386.36967 319.87344 387.07812 317.74805 C 386.36967 296.49404 387.07776 281.96889 389.20312 274.17578 C 395.57935 261.42339 404.259 254.86986 415.24023 254.51562 C 426.22145 254.16137 435.25323 257.88264 442.33789 265.67578 C 449.42254 273.46892 451.72569 282.32369 449.24609 292.24219 C 446.76644 302.16074 431.71222 313.14163 404.08203 325.18555 L 404.08203 327.31055 C 447.29846 315.97508 467.13413 296.31642 463.5918 268.33203 C 460.49226 243.84565 441.39134 231.69885 406.28906 231.89258 z M 378.57617 243.35742 C 386.36931 243.35742 390.26562 246.89972 390.26562 253.98437 C 390.26563 259.6521 386.36931 263.55037 378.57617 265.67578 C 375.03384 264.96731 371.1375 263.19519 366.88672 260.36133 C 368.30366 249.02587 372.2 243.35742 378.57617 243.35742 z M 378.57617 246.54687 C 374.32539 246.54687 372.19922 249.02512 372.19922 253.98437 C 372.19922 258.23518 374.32539 260.36133 378.57617 260.36133 C 383.53545 260.36133 386.36967 258.23518 387.07812 253.98437 C 386.36968 249.02512 383.53545 246.54687 378.57617 246.54687 z M 77.828125 370.46094 C 84.153312 370.62553 92.948913 374.05232 104.21484 380.74414 C 119.23596 389.66656 133.55663 404.59585 147.17578 425.53125 C 160.79491 446.46665 164.27402 463.88298 157.61523 477.78125 C 150.95657 491.67953 141.81736 501.20236 130.19727 506.34766 C 118.57717 511.49294 105.41629 511.65833 90.712891 506.84375 C 76.0095 502.02916 65.670255 487.35999 59.697266 462.83789 C 53.724382 438.31583 53.01191 417.46225 57.558594 400.27734 C 62.105388 383.09247 67.027671 373.46096 72.326172 371.38281 C 73.885596 370.71243 75.719729 370.40607 77.828125 370.46094 z M 399.59766 414.60742 C 404.09199 414.32652 409.12981 416.04619 414.70898 419.76562 C 395.58041 432.51805 387.07776 464.75461 389.20312 516.47266 L 375.38867 516.47266 C 374.6802 468.29693 377.86847 438.00948 384.95312 425.61133 C 388.93824 418.63735 393.81923 414.96859 399.59766 414.60742 z M 444.62891 434.19922 C 446.28937 434.18538 448.00618 434.33458 449.77734 434.64453 L 449.77734 544.10156 L 511.41406 544.10156 L 511.41406 434.64453 C 547.54583 429.68528 562.06904 466.17029 554.98438 544.10156 C 546.4828 737.51283 533.02168 859.01477 514.60156 908.60742 L 537.98047 961.74219 L 187.29102 961.74219 L 260.61719 929.86133 C 235.82085 824.29986 208.54465 746.54648 178.78906 696.59961 C 149.03351 646.65277 142.47995 616.01125 159.12891 604.67578 C 175.77783 593.34031 195.08441 605.02929 217.04688 639.74414 L 362.63672 836.34375 L 398.76758 836.34375 L 407.26953 544.10156 C 407.26953 471.041 419.72192 434.40679 444.62891 434.19922 z M 122.64453 540.17969 C 136.25205 540.27101 150.3625 546.89207 164.97461 560.04297 C 148.67989 561.45994 136.28088 568.19046 127.7793 580.23437 C 127.7793 563.23116 119.10155 555.08255 101.74414 555.79102 C 84.386701 556.49952 85.271784 552.60319 104.40039 544.10156 C 110.37807 541.44482 116.45929 540.13818 122.64453 540.17969 z " />
</svg>
