<?xml version="1.0" encoding="UTF-8" standalone="no"?>
<svg
   width="800"
   height="1000"
   version="1.1"
   id="svg1"
   sodipodi:docname="137C4.svg"
   inkscape:version="1.4.3 (0d15f75, 2025-12-25)"
   xmlns:inkscape="http://www.inkscape.org/namespaces/inkscape"
   xmlns:sodipodi="http://sodipodi.sourceforge.net/DTD/sodipodi-0.dtd"
   xmlns="http://www.w3.org/2000/svg"
   xmlns:svg="http://www.w3.org/2000/svg">
  <defs
     id="defs1" />
  <sodipodi:namedview
     id="namedview1"
     pagecolor="#ffffff"
     bordercolor="#000000"
     borderopacity="0.25"
     inkscape:showpageshadow="2"
     inkscape:pageopacity="0.0"
     inkscape:pagecheckerboard="0"
     inkscape:deskcolor="#d1d1d1"
     showguides="true"
     inkscape:zoom="0.65376808"
     inkscape:cx="308.21328"
     inkscape:cy="476.46866"
     inkscape:window-width="1680"
     inkscape:window-height="998"
     inkscape:window-x="-8"
     inkscape:window-y="-8"
     inkscape:window-maximized="1"
     inkscape:current-layer="svg1">
    <sodipodi:guide
       position="671.89834,100.23712"
       orientation="0,-1"
       id="guide1"
       inkscape:locked="false" />
    <sodipodi:guide
       position="696.96656,124.71551"
       orientation="0,-1"
       id="guide2"
       inkscape:locked="false" />
  </sodipodi:namedview>
  <path
     id="path1"
     style="fill:#000000;stroke:none;stroke-width:49.2734"
     d="M 509.08008 0 C 502.0835 3.1096027 498.58594 9.1998492 498.58594 18.269531 C 499.36329 25.266133 500.65868 32.131661 502.47266 38.869141 C 504.28656 45.606621 509.79297 58.757676 518.99219 78.322266 C 528.19142 97.886863 534.99311 112.20572 539.39844 121.27539 C 543.80376 130.34506 546.00586 141.22823 546.00586 153.92578 C 545.48755 160.40417 542.11962 163.1902 535.90039 162.2832 C 529.68117 161.37622 524.62723 150.55687 520.74023 129.82617 C 516.85323 109.09549 502.08392 89.401761 476.42969 70.744141 C 450.77554 52.086511 431.47044 36.601821 418.51367 24.292969 C 405.557 11.984118 392.98783 8.7456592 380.80859 14.576172 C 368.62899 20.406676 362.92737 29.217227 363.70508 41.007812 C 364.48252 52.798396 366.75046 62.904332 370.50781 71.326172 C 374.26526 79.748019 378.60575 88.624305 383.5293 97.953125 C 388.45286 107.28192 391.62751 117.5812 393.05273 128.85352 C 394.47796 140.12583 402.31602 154.3132 416.56836 171.41602 C 385.47234 169.60208 366.42626 166.55889 359.42969 162.2832 C 352.43303 158.00749 339.99546 157.16451 322.11523 159.75586 C 309.93599 163.38373 302.42077 169.47399 299.57031 178.02539 C 296.71978 186.57676 299.95824 190.46289 309.28711 189.68555 C 363.14941 189.68555 402.42311 189.58472 427.10742 189.38281 C 417.62796 190.88574 405.37676 194.96756 392.87109 203.30469 C 379.12311 212.6783 372.87518 218.92624 374.125 222.05078 C 371.00045 219.55113 367.56194 219.23857 363.8125 221.11328 C 360.06306 222.98801 358.50205 226.73716 359.12695 232.36133 C 341.00467 238.61042 331.94336 257.98336 331.94336 290.47852 C 341.94186 285.47925 348.5024 283.60369 351.62695 284.85352 C 364.12506 284.85352 380.99923 309.85118 402.24609 359.84375 C 397.87176 363.5932 391.93446 370.77891 384.43555 381.40234 C 376.93666 392.02576 373.1875 410.46094 373.1875 436.70703 L 373.1875 497.63477 L 396.62109 497.63477 C 395.99621 532.00466 393.80804 601.99423 390.05859 707.60352 L 267.73242 540.39258 C 244.75995 512.07572 219.04292 503.34721 192.95312 518.41016 C 166.86333 533.47311 155.86143 567.14335 170.63672 597.40039 C 176.94002 610.30837 183.78774 626.47874 193.68164 644.80078 C 218.99039 691.66882 239.45742 749.16054 255.08008 817.27539 L 186.65234 855.70703 L 188.73633 875.28516 L 95.298828 875.28516 L 95.298828 899.76367 L 191.33984 899.76367 L 571.91992 899.76367 L 671.89844 1002.6895 L 696.9668 1002.6895 L 696.9668 875.28516 L 582.56836 875.28516 L 559.72266 819.15039 C 578.46986 736.66263 588.15439 629.80275 588.7793 498.57227 L 640.33398 497.63477 C 640.33398 387.02619 625.02478 307.81909 594.4043 260.01367 C 563.78388 212.20828 540.31733 201.78372 526.91406 196.74219 C 517.96683 192.82922 504.26943 189.91627 489.0957 188.28125 C 505.03308 187.06527 524.00295 184.68362 546.00586 181.13477 C 551.70667 180.09824 556.50157 176.92357 560.38867 171.61133 C 564.27604 166.2991 566.47823 157.55233 566.99609 145.37305 C 567.51443 133.19375 564.8579 122.95828 559.02734 114.66602 C 553.19688 106.37374 545.74741 94.324742 536.67773 78.517578 C 527.60807 62.710425 522.16556 46.450451 520.35156 29.736328 C 518.53756 13.022211 514.78096 3.1096027 509.08008 0 z M 395.81641 30.888672 C 401.27794 31.155905 406.7702 34.854289 412.29297 41.980469 C 420.3261 52.345819 431.72933 61.804055 446.5 70.355469 C 461.27057 78.906869 475.91032 91.862665 490.42188 109.22461 C 504.93333 126.58658 508.951 142.39414 502.47266 156.64648 C 491.8482 168.04836 478.43807 172.907 462.24219 171.22266 C 446.04639 169.53826 433.99545 163.64331 426.0918 153.53711 C 418.18824 143.4309 412.81139 132.93637 409.96094 122.05273 C 407.11048 111.16912 400.82693 94.584319 391.10938 72.298828 C 381.39183 50.013338 380.48502 36.796531 388.38867 32.650391 C 390.85853 31.354722 393.33389 30.767202 395.81641 30.888672 z M 450.98828 212.67773 C 475.35964 212.67773 489.10787 227.67438 492.23242 257.66992 C 495.35694 287.6655 470.9845 307.66361 419.11719 317.66211 C 427.86592 321.41156 435.05356 328.28468 440.67773 338.2832 C 446.30186 348.28173 449.42579 358.59337 450.05078 369.2168 C 441.92697 371.71642 434.74128 370.30978 428.49219 364.99805 C 422.24313 359.68635 414.74281 346.40699 405.99414 325.16016 C 392.24616 287.6657 375.68657 269.54314 356.31445 270.79297 L 347.87891 270.79297 C 349.12872 263.29409 352.8779 261.7331 359.12695 266.10742 C 361.62661 261.10819 368.18712 260.48298 378.81055 264.23242 C 370.06184 254.8588 365.6875 245.48494 365.6875 236.11133 C 370.68673 236.73623 374.12524 234.55005 376 229.55078 C 377.87471 230.8006 384.90415 228.29984 397.08984 222.05078 C 409.27553 215.80169 427.24178 212.67773 450.98828 212.67773 z M 504.41797 220.17578 C 526.28974 220.80067 550.34761 242.82871 576.59375 286.25977 C 602.8398 329.69082 615.96289 393.27613 615.96289 477.01367 L 587.8418 477.01367 C 587.2169 410.77349 558.47199 377.65234 501.60547 377.65234 L 501.60547 477.01367 L 482.85742 477.01367 L 482.85742 337.3457 C 518.47711 310.47468 525.66486 271.41815 504.41797 220.17578 z M 424.82227 222.24805 C 420.39421 222.27246 415.6809 222.5196 410.68164 222.98828 C 416.30579 226.11278 417.55618 230.17456 414.43164 235.17383 C 411.30715 230.17456 406.93276 227.67578 401.30859 227.67578 C 390.68516 227.67578 385.37305 234.2363 385.37305 247.35938 C 391.6221 251.7337 394.4335 255.79546 393.80859 259.54492 C 393.18371 263.29436 392.24593 265.79512 390.99609 267.04492 C 395.37044 271.41929 399.4322 282.66674 403.18164 300.78906 C 405.6813 300.78906 407.24422 299.85128 407.86914 297.97656 C 407.24425 278.60442 407.86942 265.79397 409.74414 259.54492 C 415.36829 248.2966 423.17921 242.51754 433.17773 242.20508 C 443.17621 241.89265 451.1434 245.17292 457.08008 252.04688 C 463.01656 258.92086 465.04858 266.73175 463.17383 275.48047 C 461.29914 284.22916 447.8635 293.91565 422.86719 304.53906 L 422.86719 306.41406 C 461.61145 296.41552 479.26511 279.07443 475.82812 254.39062 C 472.82078 232.79226 455.81865 222.07717 424.82227 222.24805 z M 401.30859 232.36133 C 407.55764 232.36133 410.68164 235.48724 410.68164 241.73633 C 410.68164 246.73556 407.55764 250.17216 401.30859 252.04688 C 397.55916 251.42197 393.80804 249.54639 390.05859 246.42188 C 391.93332 237.04825 395.68444 232.36133 401.30859 232.36133 z M 401.30859 235.17383 C 397.55916 235.17383 395.37101 237.36196 394.74609 241.73633 C 394.74609 245.48577 396.93422 247.35938 401.30859 247.35938 C 405.05804 247.35937 407.24422 245.48577 407.86914 241.73633 C 407.24425 237.36196 405.05804 235.17383 401.30859 235.17383 z M 417.03711 387.07422 C 421.00136 386.88626 425.44409 388.43213 430.36523 391.71289 C 414.11768 402.96125 406.61934 431.39549 407.86914 477.01367 L 395.68359 477.01367 C 395.05865 433.89505 397.87004 407.02381 404.11914 396.40039 C 407.63424 390.42472 411.94022 387.31588 417.03711 387.07422 z M 459.57031 400.58594 C 461.03494 400.60791 462.54906 400.77544 464.11133 401.08789 L 464.11133 497.63477 L 522.22656 497.63477 L 522.22656 401.08789 C 544.7232 396.71353 555.97266 428.89495 555.97266 497.63477 C 549.09868 668.23439 537.22598 775.40692 520.35352 819.15039 L 541.91211 866.01758 L 231.64648 866.01758 L 296.32422 837.89648 C 275.07736 744.78527 251.33007 676.20241 225.08398 632.14648 C 198.83788 588.09052 192.90056 561.06294 207.27344 551.06445 C 221.64631 541.06595 238.20787 551.06499 256.95508 581.06055 L 386.31055 755.41016 L 419.11719 755.41016 L 426.61719 497.63477 C 426.61719 432.60535 437.60086 400.25641 459.57031 400.58594 z M 602.5918 899.76367 L 671.89844 899.76367 L 671.89844 969.6582 L 602.5918 899.76367 z " />
</svg>
