<?xml version="1.0" encoding="UTF-8" standalone="no"?>
<svg
   width="800"
   height="1000"
   version="1.1"
   id="svg1"
   sodipodi:docname="137CE.svg"
   inkscape:version="1.4.3 (0d15f75, 2025-12-25)"
   xmlns:inkscape="http://www.inkscape.org/namespaces/inkscape"
   xmlns:sodipodi="http://sodipodi.sourceforge.net/DTD/sodipodi-0.dtd"
   xmlns="http://www.w3.org/2000/svg"
   xmlns:svg="http://www.w3.org/2000/svg">
  <defs
     id="defs1" />
  <sodipodi:namedview
     id="namedview1"
     pagecolor="#ffffff"
     bordercolor="#000000"
     borderopacity="0.25"
     inkscape:showpageshadow="2"
     inkscape:pageopacity="0.0"
     inkscape:pagecheckerboard="0"
     inkscape:deskcolor="#d1d1d1"
     inkscape:zoom="0.46228384"
     inkscape:cx="104.9139"
     inkscape:cy="370.9842"
     inkscape:window-width="1680"
     inkscape:window-height="998"
     inkscape:window-x="-8"
     inkscape:window-y="-8"
     inkscape:window-maximized="1"
     inkscape:current-layer="svg1"
     showguides="true">
    <sodipodi:guide
       position="83.204859,728.29185"
       orientation="0,-1"
       id="guide8"
       inkscape:locked="false" />
    <sodipodi:guide
       position="159.71091,720.19953"
       orientation="1,0"
       id="guide10"
       inkscape:locked="false" />
    <sodipodi:guide
       position="142.64346,594.3221"
       orientation="1,0"
       id="guide11"
       inkscape:locked="false" />
    <sodipodi:guide
       position="151.32432,728.29185"
       orientation="1,0"
       id="guide1"
       inkscape:locked="false" />
  </sodipodi:namedview>
  <path
     id="path1-62"
     style="fill:#000000;stroke:none;stroke-width:14.7448"
     d="M 536.42188 0 C 515.66488 7.1054274e-15 498.87644 6.8672194 486.05664 20.603516 C 473.23611 34.339812 466.82617 49.450098 466.82617 65.933594 C 466.82617 79.97513 469.87725 90.963882 475.98242 98.900391 C 474.1489 107.44749 471.40133 111.26349 467.74023 110.34766 C 464.07912 109.43191 462.25 106.83797 462.25 102.56445 C 462.25 98.901462 461.94407 92.491491 461.33203 83.333984 C 464.38444 66.239933 460.72011 55.554725 450.3418 51.28125 C 442.40495 48.839031 436.30049 48.535523 432.02734 50.367188 C 428.36253 52.19874 426.53125 54.944465 426.53125 58.607422 C 428.36292 61.049271 431.71946 63.185914 436.60352 65.017578 C 429.88816 68.680573 428.81965 75.855282 433.39844 86.539062 C 437.97537 97.222803 442.09691 107.44877 445.76172 117.2168 C 448.01625 122.47726 450.9901 126.04154 454.68359 127.91016 C 445.68442 134.23281 441.48887 138.60426 442.0957 141.02539 C 440.26293 139.19372 438.12628 138.88826 435.68555 140.10938 C 433.24481 141.33037 432.02344 144.07804 432.02344 148.35156 C 420.42363 152.62507 414.625 166.36154 414.625 189.56055 C 421.33963 185.89758 425.61291 184.67536 427.44531 185.89648 C 435.99234 185.89648 445.14984 198.10731 454.91797 222.52734 C 449.42372 227.41134 445.15044 233.21218 442.09766 239.92773 C 407.90956 254.57974 388.37235 272.28397 383.48828 293.04102 L 330.375 367.2168 C 297.40764 380.0373 243.31539 391.75828 190.8125 413.73633 C 178.28395 407.29359 171.6836 405.27148 159.71094 405.27148 L 159.71094 363.74805 L 160.00391 366.96289 C 185.847 366.96289 195.06831 355.5359 187.66602 332.67969 L 169.1582 271.70898 L 235.86523 271.70898 L 235.86523 221.44922 C 235.6055 206.77451 230.80338 199.43555 221.45312 199.43555 C 213.40151 199.43555 205.15214 203.7219 196.71094 212.29297 C 188.13986 220.86406 181.77874 226.51307 177.62305 229.24023 C 182.29819 220.1497 183.9842 208.85164 182.68555 195.3457 C 178.0104 140.93236 167.5573 113.72656 151.32422 113.72656 C 135.09114 113.72656 124.63804 140.93236 119.96289 195.3457 C 118.66424 208.85164 120.35025 220.1497 125.02539 229.24023 C 120.8697 226.51307 114.50858 220.86406 105.9375 212.29297 C 97.496295 203.7219 89.246935 199.43555 81.195312 199.43555 C 71.845056 199.43555 67.042933 206.77451 66.783203 221.44922 L 66.783203 271.70898 L 133.49023 271.70898 L 114.98242 332.67969 C 107.58013 355.5359 116.80144 366.96289 142.64453 366.96289 L 142.64453 405.67773 L 128.9082 405.67773 C 120.97321 406.2882 121.27914 409.95051 129.82617 416.66602 C 127.38432 443.52795 131.65761 457.56991 142.64648 458.79102 L 142.64258 1000 L 159.71094 1000 L 159.71094 459.19727 C 172.38647 457.30449 181.95361 453.17555 192.64453 443.03906 L 192.66016 443.03906 C 252.48897 433.88155 314.2114 425.21378 355.11523 405.67773 C 385.64 373.93167 405.6348 351.03759 415.09766 336.99609 C 424.56052 322.9547 432.03859 317.15581 437.5332 319.59766 C 453.40615 362.94323 461.34375 397.43513 461.34375 423.07617 C 461.34375 435.89671 460.88495 451.46428 459.96875 469.7793 C 459.05292 488.09434 454.32242 519.84053 445.77539 565.01758 L 413.72266 715.20117 L 423.79688 715.20117 C 415.86188 729.2427 412.65711 740.69074 414.18164 749.54297 C 415.70803 758.39524 413.72315 779.60996 408.22852 813.1875 C 402.73427 846.76505 393.88187 880.03688 381.67188 913.00391 C 376.17725 926.43496 370.37861 936.2036 364.27344 942.30859 C 358.16863 948.41358 346.72042 954.36427 329.93164 960.16406 C 313.14287 965.96366 296.96452 969.62791 281.39648 971.1543 C 265.82881 972.68054 258.04492 980.76982 258.04492 995.42188 C 256.82382 998.47426 267.81444 1000 291.01367 1000 C 305.6655 1000 319.0947 997.25226 331.30469 991.75781 C 343.51504 986.2634 358.16805 986.87433 375.26172 993.58984 C 392.35577 1000.3054 407.31228 998.16868 420.13281 987.17969 C 417.08042 960.31766 419.52251 936.81259 427.45898 916.66602 C 461.03468 851.95292 475.99314 809.0662 472.33203 788.00391 C 468.66908 766.94166 472.6369 742.67372 484.23633 715.20117 L 524.5293 715.20117 C 524.5293 716.42217 527.58269 720.08642 533.6875 726.19141 C 534.90861 744.50646 540.40179 758.24093 550.16992 767.39844 C 569.09601 835.77456 579.17026 887.05733 580.39062 912.08789 C 578.55896 935.28694 559.32722 955.12784 522.69727 971.61133 C 503.77192 975.27544 490.03531 977.26028 481.48828 977.56445 C 472.94126 977.86969 468.66797 985.34795 468.66797 1000 L 532.77148 1000 C 548.64479 990.84235 571.53833 989.92596 601.45312 997.25195 C 631.36735 1004.578 638.69208 989.62145 623.42969 952.38086 C 619.76488 938.33932 619.45895 922.77174 622.51172 905.67773 C 624.34339 837.30164 620.52927 790.44583 611.06641 774.26758 C 601.60207 758.08929 597.17508 738.40022 597.78711 715.20117 L 602.36719 717.0332 C 600.53589 698.10767 597.48249 632.17314 593.20898 519.23047 C 593.81953 498.47342 590.15718 478.63255 582.2207 459.70703 C 582.81421 445.05502 582.96277 434.21802 582.66602 427.19727 C 582.36186 420.17633 580.68363 417.58239 577.63086 419.41406 C 578.85197 394.3835 588.02773 361.42288 605.10352 320.51172 C 606.16869 317.95972 609.4909 318.02134 611.27344 321.93945 C 622.82308 367.22231 633.35333 400.7525 643.1543 423.78125 C 639.70418 479.2312 652.75662 489.77657 659.2168 546.66406 C 654.18533 556.69048 651.61023 566.6868 650.85742 577.13867 C 633.22303 595.47613 639.4814 626.10121 669.63281 669.01562 C 648.67205 670.81849 628.43988 668.08664 608.93555 660.82031 C 604.23219 674.01794 604.3552 687.73161 609.30469 701.96289 C 627.12491 693.97237 647.8658 690.32577 671.52539 691.02539 L 666.57227 789.45117 L 696.65039 790.4043 L 688.51562 691.42773 C 708.97259 689.54397 730.08136 691.64318 751.84375 697.7207 C 755.96243 684.94571 755.46487 671.94613 750.35352 658.72266 C 728.66476 665.0585 708.47026 668.53475 689.76758 669.14844 C 718.61261 624.68636 723.85936 593.61828 705.50977 575.94336 C 704.85889 575.31641 704.20894 574.71058 703.55859 574.12891 C 702.07856 563.72253 698.1501 554.51372 688.52148 544.83203 L 684.26758 538.9082 C 682.33173 478.72621 677.20117 439.93273 672.81445 410.42188 C 667.5658 380.46635 663.76724 361.38194 658.32227 335.16406 L 674.69531 335.16406 C 669.61081 243.64494 653.2878 184.66915 625.72461 158.23438 C 620.9565 150.06775 615.91536 140.66866 610.59961 130.03711 C 602.66463 116.60608 599.91669 102.56412 602.35742 87.912109 C 604.79815 80.58608 606.01758 73.259621 606.01758 65.933594 C 606.01758 49.450097 599.15043 34.339812 585.41406 20.603516 C 571.67769 6.8672568 555.34723 0 536.42188 0 z M 536.41992 14.652344 C 549.24047 15.262824 561.14393 20.604469 572.13281 30.677734 C 583.12204 40.750997 588.61719 52.808072 588.61719 66.849609 C 588.00664 79.059632 583.27613 90.353921 574.42383 100.73242 C 566.04038 110.5612 554.23354 116.00996 539.00586 117.07812 C 535.98104 116.6918 532.98252 116.433 530.00781 116.30078 C 529.25705 116.32319 528.51156 116.34498 527.77148 116.36914 C 515.27968 114.32699 505.03709 108.8097 497.04297 99.816406 C 487.2752 88.827381 482.39062 77.227599 482.39062 65.017578 C 483.00081 52.807558 488.34261 41.361515 498.41602 30.677734 C 508.48943 19.993989 521.15754 14.652344 536.41992 14.652344 z M 535.50586 53.113281 C 528.78975 54.334278 524.82193 58.607603 523.60156 65.933594 C 524.21211 72.038511 528.17994 75.702718 535.50586 76.923828 C 543.44085 76.923828 547.71414 73.259621 548.32617 65.933594 C 547.71561 59.218269 543.44233 54.944944 535.50586 53.113281 z M 485.13867 109.89062 L 485.14062 109.89062 C 488.30079 113.05076 491.66279 115.85625 495.22852 118.30664 C 489.85779 118.81604 484.97554 119.40509 480.58203 120.07422 C 483.22756 116.80496 484.7466 113.41042 485.13867 109.89062 z M 584.04102 113.55273 C 585.9562 119.02466 590.38585 127.3176 597.32812 138.42969 C 587.31081 132.59414 577.5193 127.9071 567.95508 124.36914 C 574.81474 121.57511 580.17659 117.96921 584.04102 113.55273 z M 530.01367 130.95312 C 556.87585 132.17413 583.88954 143.16287 611.05664 163.91992 C 614.26008 166.36748 617.31793 169.23553 620.22852 172.52344 C 623.46197 177.11253 626.90448 181.93699 630.55859 186.99805 C 646.35382 214.04092 656.48941 257.32442 660.96484 316.84961 L 654.50195 316.84961 C 652.62083 307.85171 650.53425 297.87234 648.1582 286.43164 L 647.93555 286.64648 C 645.70451 253.71887 614.08695 237.50165 552.9043 238.0957 L 552.9043 307.69336 L 522.68555 307.69336 L 522.68555 210.62305 L 522.6875 210.62305 C 544.66562 184.98201 547.10772 158.42569 530.01367 130.95312 z M 151.32422 132.23242 C 160.93421 132.23242 166.25797 158.66067 167.29688 211.51562 C 167.29688 223.0736 161.97313 230.47605 151.32422 233.72266 C 140.67531 230.47605 135.35156 223.0736 135.35156 211.51562 C 136.39047 158.66067 141.71423 132.23242 151.32422 132.23242 z M 493.37695 133.69922 C 509.24915 133.69922 518.10314 144.53621 519.93555 166.20898 C 521.76684 187.88179 505.58655 202.07552 471.39844 208.79102 C 478.11491 211.84354 483.15283 216.88159 486.50977 223.90234 C 489.86596 230.92309 491.8489 238.40135 492.46094 246.33789 C 486.96632 248.16922 482.23581 247.10108 478.26758 243.13281 C 474.29934 239.16457 468.95755 229.5477 462.24219 214.28516 C 453.69516 187.42301 443.01195 174.6031 430.19141 175.82422 L 424.69922 175.82422 C 425.91847 170.32996 428.36057 169.1097 432.02539 172.16211 C 434.46723 168.49914 438.74089 168.19368 444.8457 171.24609 C 439.35145 163.92006 436.60352 157.20464 436.60352 151.09961 C 440.26456 151.71009 442.40135 150.18351 443.01367 146.52148 C 444.23825 147.12791 448.81676 145.14391 456.74805 140.56836 C 464.68452 135.98961 476.89345 133.69922 493.37695 133.69922 z M 476.10352 140.57617 C 473.19409 140.57139 470.09981 140.72016 466.81836 141.02539 C 470.47947 143.46745 471.08918 146.52062 468.64844 150.18359 C 466.81493 146.52062 464.06736 144.68945 460.40625 144.68945 C 453.08034 144.68945 449.41797 149.57381 449.41797 159.3418 C 453.68295 162.39447 455.66588 165.14018 455.36914 167.58203 C 455.06497 170.02388 454.3024 171.85701 453.08203 173.07812 C 456.13444 176.1306 459.18745 184.06619 462.24023 196.88672 C 463.4606 196.88672 464.37625 196.27579 464.98828 195.05469 C 464.37995 181.01315 464.68588 171.85554 465.90625 167.58203 C 469.56921 159.64444 474.60713 155.52486 481.01758 155.2207 C 487.42767 154.91545 492.76946 157.2039 497.04297 162.08789 C 501.31612 166.97189 502.84146 172.61903 501.62109 179.0293 C 500.40035 185.43957 491.54991 192.00324 475.06641 198.71875 L 475.05859 201.46484 C 500.69818 193.5283 512.29816 180.86214 509.85742 163.46289 C 507.7208 148.23864 496.4695 140.60966 476.10352 140.57617 z M 460.41406 148.35156 C 464.68758 148.35156 466.82422 150.48821 466.82422 154.76172 C 466.82422 158.4246 464.68758 160.86678 460.41406 162.08789 C 457.97073 161.47734 455.52862 159.95162 453.08789 157.50977 C 453.69845 151.40478 456.14055 148.35156 460.41406 148.35156 z M 460.41406 150.18359 C 457.97333 150.18359 456.44602 151.70931 455.83398 154.76172 C 455.83398 157.20357 457.36129 158.72929 460.41406 159.33984 C 462.85479 158.72929 464.38015 157.20357 464.99219 154.76172 C 464.38015 151.70931 462.85479 150.18359 460.41406 150.18359 z M 83.923828 211.32031 C 87.949632 211.19043 96.068109 217.29374 108.27539 229.63086 C 120.48268 241.96804 134.8314 248.13477 151.32422 248.13477 C 167.81704 248.13477 182.16576 241.96804 194.37305 229.63086 C 206.58033 217.29374 214.69881 211.19043 218.72461 211.32031 C 222.75043 211.45019 224.76172 214.82613 224.76172 221.44922 L 224.76172 260.99219 L 151.32422 260.99219 L 77.886719 260.99219 L 77.886719 221.44922 C 77.886719 214.82613 79.898015 211.45019 83.923828 211.32031 z M 458.58203 232.60156 C 460.41332 236.87507 462.85543 242.36847 465.9082 249.08398 L 456.75195 307.69336 L 435.68945 307.69336 C 436.30001 280.22081 443.9302 255.19009 458.58203 232.60156 z M 561.14648 247.25391 C 572.13536 246.64335 584.3443 247.86361 597.77539 250.91602 C 588.61781 277.16757 576.40887 294.87179 561.14648 304.0293 L 561.14648 247.25391 z M 473.23438 255.49414 C 479.33955 259.76873 486.36041 262.05911 494.29688 262.36328 C 502.23335 262.66851 508.64327 260.37813 513.52734 255.49414 L 513.52734 314.10352 C 504.98031 317.15591 496.43375 318.98711 487.88672 319.59766 C 479.33969 320.20822 471.70792 318.37703 464.99219 314.10352 L 473.23438 255.49414 z M 592.28125 277.47266 L 583.12695 319.59766 L 576.7168 319.59766 L 577.62891 301.28125 L 592.28125 277.47266 z M 142.64453 282.42188 L 142.64453 355.08008 C 127.71009 355.08008 121.80122 349.56193 124.91797 338.52344 L 142.64453 282.42188 z M 160.00391 282.42188 L 177.73047 338.52344 C 180.84722 349.56193 174.93835 355.08008 160.00391 355.08008 L 160.00391 282.42188 z M 571.22266 304.0293 L 570.30469 319.59766 L 557.48242 319.59766 L 571.22266 304.0293 z M 435.6875 312.27148 L 456.75 312.27148 L 456.75 315.93359 L 435.6875 315.93359 L 435.6875 312.27148 z M 521.76758 312.27148 L 552.9043 312.27148 L 552.9043 315.93359 L 521.76758 315.93359 L 521.76758 312.27148 z M 655.45898 321.42969 L 660.96289 321.42969 L 660.96289 326.92383 L 656.60742 326.92383 C 656.23336 325.13109 655.85013 323.3015 655.45898 321.42969 z M 451.25586 327.83984 L 593.19727 327.83984 L 589.53711 336.99609 L 454.00391 336.99609 L 451.25586 327.83984 z M 455.83594 347.07031 L 585.87109 347.07031 L 582.21094 355.3125 L 458.58398 355.3125 L 455.83594 347.07031 z M 464.07617 366.30078 L 577.63086 366.30078 C 575.18789 374.8478 572.74542 391.63549 570.30469 416.66602 L 466.82617 472.52734 C 469.87894 454.82281 470.79459 436.20207 469.57422 416.66602 C 468.35015 397.13001 466.5169 380.34231 464.07617 366.30078 z M 572.13477 426.74023 L 573.96484 457.875 L 478.72656 493.58984 C 481.77934 486.26381 482.08527 480.15942 479.64453 475.27539 L 572.13477 426.74023 z M 573.05078 469.78125 C 576.10356 471.61276 578.69741 477.71719 580.83398 488.0957 C 582.97056 498.47421 584.03906 510.68308 584.03906 524.72461 L 586.78711 695.05469 L 558.39844 695.05469 C 516.27387 637.0571 488.19167 573.26118 474.15039 503.66406 L 573.05078 469.78125 z M 471.19141 478.81445 C 473.87449 478.95799 475.3187 481.13557 475.52344 485.34766 C 475.82871 491.45284 472.31848 495.72612 464.99219 498.16797 L 466.82422 479.85352 C 468.53052 479.09634 469.98563 478.74995 471.19141 478.81445 z M 464.99219 512.82031 C 476.592 573.87038 503.15004 634.61507 544.66406 695.05469 L 432.02539 695.05469 L 464.99219 512.82031 z M 696.78711 604.72852 C 696.70623 616.36511 691.19376 633.45306 680.25195 655.99219 C 669.24287 635.59131 663.06894 619.65216 661.73047 608.17578 C 661.86811 608.0044 662.00813 607.83092 662.14844 607.65234 C 678.3698 609.12693 689.91619 608.15172 696.78711 604.72852 z M 431.10938 701.46484 L 588.61523 701.46484 L 589.5332 706.04492 L 430.19141 706.04492 L 431.10938 701.46484 z " />
</svg>
