<?xml version="1.0" encoding="UTF-8" standalone="no"?>
<svg
   width="1000"
   height="1000"
   version="1.1"
   id="svg1"
   sodipodi:docname="137C8.svg"
   inkscape:version="1.4.3 (0d15f75, 2025-12-25)"
   xmlns:inkscape="http://www.inkscape.org/namespaces/inkscape"
   xmlns:sodipodi="http://sodipodi.sourceforge.net/DTD/sodipodi-0.dtd"
   xmlns="http://www.w3.org/2000/svg"
   xmlns:svg="http://www.w3.org/2000/svg">
  <defs
     id="defs1" />
  <sodipodi:namedview
     id="namedview1"
     pagecolor="#ffffff"
     bordercolor="#666666"
     borderopacity="1.0"
     inkscape:showpageshadow="2"
     inkscape:pageopacity="0.0"
     inkscape:pagecheckerboard="0"
     inkscape:deskcolor="#d1d1d1"
     inkscape:zoom="0.75499997"
     inkscape:cx="172.84769"
     inkscape:cy="578.14572"
     inkscape:window-width="1680"
     inkscape:window-height="998"
     inkscape:window-x="-8"
     inkscape:window-y="-8"
     inkscape:window-maximized="1"
     inkscape:current-layer="svg1"
     showguides="true">
    <sodipodi:guide
       position="619.14777,50"
       orientation="0,-1"
       id="guide1"
       inkscape:locked="false" />
    <sodipodi:guide
       position="208.05576,46.643"
       orientation="0.98332175,-0.1818745"
       id="guide2"
       inkscape:locked="false" />
    <sodipodi:guide
       position="619.14777,38"
       orientation="0,1"
       id="guide3"
       inkscape:label=""
       inkscape:locked="false"
       inkscape:color="rgb(0,134,229)" />
  </sodipodi:namedview>
  <path
     id="path1"
     style="fill:#000000;stroke:none;stroke-width:1"
     d="M 625.25195 0 L 572.09961 103.77344 C 576.5993 80.150007 581.09792 64.823769 585.59766 57.792969 C 590.09736 50.762204 594.31669 45.560329 598.25391 42.185547 C 606.69072 31.498728 610.48615 23.482047 609.64258 18.138672 C 608.79892 12.795263 605.84735 8.4372806 600.78516 5.0625 C 595.72303 1.6877192 590.5192 0.56258424 585.17578 1.6875 C 579.83238 2.8124494 573.78667 9.5613733 567.03711 21.935547 C 565.34972 26.997718 561.8336 32.764098 556.49023 39.232422 C 551.1468 45.700746 540.31923 53.856111 524.00781 63.699219 C 507.69637 73.542322 489.41664 90.556286 469.16797 114.74219 C 450.04423 100.68059 436.12441 88.305924 427.40625 77.619141 C 418.68809 66.932357 413.9062 57.651854 413.0625 49.777344 C 412.21878 41.902867 413.34396 35.857133 416.4375 31.638672 C 419.53108 27.420213 423.46713 24.747998 428.24805 23.623047 C 433.02898 22.498132 437.67022 23.341991 442.16992 26.154297 C 446.66965 28.966605 448.63863 33.467177 448.07617 39.654297 C 446.95126 45.278908 443.01324 48.933701 436.26367 50.621094 C 431.20153 48.371262 428.38866 48.652537 427.82617 51.464844 C 426.13878 55.96454 428.38913 58.355479 434.57617 58.636719 C 440.76329 58.917956 446.389 57.652183 451.45117 54.839844 C 456.51335 52.027536 458.76169 43.87217 458.19922 30.373047 C 453.69951 20.811178 446.80994 15.328029 437.5293 13.921875 C 428.24868 12.515723 420.0933 13.779541 413.0625 17.716797 C 406.0317 21.654018 401.8124 29.95201 400.40625 42.607422 C 399.00009 55.262867 403.2194 68.057492 413.0625 80.994141 C 422.9056 93.930792 438.51315 108.55576 459.88672 124.86719 C 455.9495 129.92932 449.76313 140.33499 441.32617 156.08398 L 412.64062 156.08398 L 427.82617 233.70312 C 419.38921 236.51543 416.01572 239.89087 417.70312 243.82812 C 406.45386 248.32781 400.82812 260.9838 400.82812 281.79492 C 407.01521 278.42013 411.23449 277.29501 413.48438 278.41992 C 421.35885 278.41992 432.3271 294.44939 446.38867 326.50977 C 439.6391 333.25933 435.41982 344.79013 433.73242 361.10156 C 421.35823 355.47695 410.38999 355.47695 400.82812 361.10156 C 368.20526 379.10036 337.83215 398.22399 309.70898 418.47266 L 216.06055 347.60156 C 213.24826 331.29012 207.34122 314.13554 198.3418 296.13672 L 177.25 278.41992 C 172.75031 275.60761 170.21871 276.87338 169.65625 282.2168 C 169.09375 287.56018 170.78148 291.63689 174.71875 294.44922 L 109.75391 302.04297 C 109.19142 284.6066 111.72302 266.88941 117.34766 248.89062 C 107.22332 245.51583 97.098951 246.07844 86.974609 250.57812 C 90.911866 268.01445 92.880859 284.88779 92.880859 301.19922 C 59.695523 278.13822 35.790054 274.20019 21.166016 289.38672 C 6.5419761 304.57324 5.9793922 319.62015 19.478516 334.52539 C 32.977638 349.43068 56.883143 343.94557 91.193359 318.07227 C 92.31831 335.50859 89.505423 352.38388 82.755859 368.69531 C 92.880205 372.63255 103.56717 372.35122 114.81641 367.85156 C 109.19177 353.22748 107.22278 335.78968 108.91016 315.54102 L 151.93945 318.91602 C 147.43974 324.54067 148.84616 330.4477 156.1582 336.63477 C 164.03267 341.69694 180.34343 352.38388 205.0918 368.69531 C 227.5903 397.94339 256.83832 430.28359 292.83594 465.71875 C 332.20836 449.96979 375.51873 430.00232 422.76562 405.81641 C 439.07702 417.62811 451.16845 455.59404 459.04297 519.71484 C 443.29398 534.33887 416.2963 545.30713 378.04883 552.61914 C 364.54974 544.18223 348.52028 536.30813 329.95898 528.99609 L 305.49219 515.49805 C 300.43004 513.81065 298.17972 515.7777 298.74219 521.40234 C 299.30466 527.02697 300.71111 530.4024 302.96094 531.52734 C 293.39908 529.83995 276.52379 537.71403 252.33789 555.15039 C 251.77542 537.71403 254.86958 520.84073 261.61914 504.5293 C 251.4948 500.59206 240.80783 500.87336 229.55859 505.37305 C 235.18323 519.99711 236.87097 537.15167 234.62109 556.83789 L 168.8125 551.77539 L 169.65625 577.93164 L 234.62109 571.18164 C 234.62109 588.61796 231.52692 606.33514 225.33984 624.33398 C 236.02662 627.14636 246.4323 626.58374 256.55664 622.64648 C 252.6194 605.21013 250.93168 588.33677 251.49414 572.02539 C 284.11699 595.64877 306.89732 600.1475 319.83398 585.52344 L 339.23828 585.52344 L 383.95508 577.08789 C 417.70282 570.33834 443.85666 562.7436 462.41797 554.30664 L 463.26172 575.40039 C 424.45178 582.14992 390.98641 588.05504 362.86328 593.11719 C 334.74013 598.17938 311.9598 604.64698 294.52344 612.52148 L 295.36719 612.52148 C 268.36897 621.52088 253.88466 638.67741 251.91602 663.98828 C 249.94739 689.29907 246.15196 720.93605 240.52734 758.90234 C 234.9027 796.86857 228.96401 817.86375 216.58984 854.98633 C 210.9652 870.73528 204.9195 881.98484 198.45117 888.73438 C 191.98289 895.48395 180.17077 902.09222 163.01562 908.56055 C 145.86053 915.02905 129.26652 919.24835 113.23633 921.2168 C 97.206127 923.18542 89.191406 932.60658 89.191406 949.48047 C 89.119869 949.65931 89.100043 949.83253 89.130859 950 L 74.480469 950 L 74.480469 1000 L 619.14844 1000 L 619.14844 950 L 599.94141 950 L 599.94141 554.30664 C 599.94141 549.80692 602.18975 547.55859 606.68945 547.55859 C 611.18916 547.55859 613.43945 549.80692 613.43945 554.30664 L 613.43945 624.33398 L 631.1582 624.33398 L 631.1582 547.55859 C 631.1582 535.74687 623.28214 529.83984 607.5332 529.83984 C 590.65928 529.83984 582.22266 535.74687 582.22266 547.55859 L 582.22266 563.58789 L 566.19336 563.58789 C 568.44323 548.96386 572.09798 528.57448 577.16016 502.41992 C 582.22232 476.26539 590.37964 447.15804 601.62891 415.09766 L 630.31445 415.09766 L 630.31445 361.94531 C 628.62706 316.38579 619.48723 284.74689 602.89453 267.0293 C 586.30191 249.31172 567.59828 236.51511 546.78711 228.64062 L 646.34375 10.96875 L 625.25195 0 z M 592.48633 10.519531 C 593.65904 10.519529 594.73835 10.951233 595.72266 11.8125 C 600.22238 15.749756 597.4095 24.186399 587.28516 37.123047 C 577.16072 48.934744 570.97436 58.637197 568.72461 66.230469 C 566.47477 73.823709 564.08378 83.807467 561.55273 96.181641 C 559.02162 108.55585 552.13208 128.52328 540.88281 156.08398 L 459.88672 156.08398 C 467.19875 141.45993 478.44825 125.70984 493.63477 108.83594 C 508.82126 91.962068 521.61787 80.151906 532.02344 73.402344 C 542.429 66.652781 550.72503 60.605126 556.91211 55.261719 C 563.09919 49.918344 569.56684 40.497169 576.31641 26.998047 C 582.90778 16.01245 588.29807 10.519541 592.48633 10.519531 z M 629.4707 12.65625 L 631.1582 14.34375 L 532.44531 223.57812 C 517.25879 218.51589 500.52611 216.12689 482.24609 216.4082 C 463.966 216.68941 450.32557 219.07841 441.32617 223.57812 L 428.66992 171.26953 L 555.22461 171.26953 L 629.4707 12.65625 z M 477.60547 231.17188 C 493.35445 231.17187 502.21304 241.01496 504.18164 260.70117 C 506.15024 280.38734 490.5408 293.32459 457.35547 299.51172 C 462.98013 301.76156 467.62132 306.26021 471.27734 313.00977 C 474.93333 319.75932 476.76172 326.5102 476.76172 333.25977 C 471.69954 334.94713 467.19895 334.10327 463.26172 330.72852 C 459.32447 327.35373 454.26326 318.35451 448.07617 303.73047 C 439.63923 280.10702 428.95225 268.57619 416.01562 269.13867 L 410.95312 269.13867 C 412.07804 264.0765 414.32835 262.95136 417.70312 265.76367 C 419.95298 262.38893 424.45163 262.10761 431.20117 264.91992 C 425.01407 258.73283 421.92188 252.54646 421.92188 246.35938 C 425.85913 246.9218 428.10743 245.79668 428.66992 242.98438 C 430.35727 242.98437 434.99852 241.01539 442.5918 237.07812 C 450.18504 233.1409 461.8565 231.17188 477.60547 231.17188 z M 512.19727 236.23438 C 536.94561 239.60916 561.27109 252.26513 585.17578 274.20117 C 609.08045 296.13724 618.22031 338.8831 612.5957 402.44141 L 591.50391 402.44141 C 594.31622 345.63264 571.81715 324.26073 524.00781 338.32227 L 524.00781 402.44141 L 500.38477 402.44141 L 500.38477 312.16602 C 522.32085 295.29211 526.25887 269.98215 512.19727 236.23438 z M 460.59961 237.50586 C 457.73456 237.50147 454.68533 237.64064 451.45117 237.92188 C 455.38838 240.17172 456.23226 242.9846 453.98242 246.35938 C 452.29503 242.9846 449.48219 241.29688 445.54492 241.29688 C 438.79538 241.29687 435.41992 245.51425 435.41992 253.95117 C 439.35716 256.76353 441.18553 259.43574 440.9043 261.9668 C 440.62306 264.49788 439.91983 266.04493 438.79492 266.60742 C 441.60722 269.41972 444.42012 276.73125 447.23242 288.54297 C 448.35738 288.54297 449.20123 287.98037 449.76367 286.85547 C 449.20123 274.48126 449.76378 266.0446 451.45117 261.54492 C 454.82595 254.23293 459.60587 250.43749 465.79297 250.15625 C 471.98005 249.87501 477.18384 251.98274 481.40234 256.48242 C 485.62079 260.98218 487.02724 266.0453 485.62109 271.66992 C 484.21493 277.29454 475.6357 283.4809 459.88672 290.23047 L 459.88672 292.76172 C 484.63509 286.01216 495.8846 274.62196 493.63477 258.5918 C 491.66613 244.56535 480.65493 237.5366 460.59961 237.50586 z M 445.54492 243.82812 C 449.48219 243.82813 451.45117 245.79717 451.45117 249.73438 C 451.45117 253.10916 449.48219 255.35753 445.54492 256.48242 C 443.29507 256.48242 440.76347 255.35727 437.95117 253.10742 C 439.07608 246.92033 441.60768 243.82812 445.54492 243.82812 z M 445.54492 246.35938 C 442.73262 246.35938 441.32617 247.48456 441.32617 249.73438 C 441.32617 252.54668 442.73262 253.95117 445.54492 253.95117 C 447.7948 253.95117 449.20123 252.54668 449.76367 249.73438 C 449.20123 247.48456 447.7948 246.35938 445.54492 246.35938 z M 44.111328 295.95898 C 53.141491 296.28856 65.741299 300.84822 81.912109 309.63672 C 54.913896 324.82322 37.89994 328.89994 30.869141 321.86914 C 23.838377 314.83839 24.11965 307.52686 31.712891 299.93359 C 34.560356 297.08613 38.69323 295.76124 44.111328 295.95898 z M 455.97461 344.42969 C 458.44307 344.32972 461.15254 345.38687 464.10547 347.60156 C 462.98053 350.41386 462.13665 357.16475 461.57422 367.85156 L 461.57422 402.44141 L 442.16992 402.44141 C 441.60747 374.88072 443.4358 357.58546 447.6543 350.55469 C 450.02718 346.59987 452.80087 344.55822 455.97461 344.42969 z M 480.7168 347.80664 C 482.35997 347.8109 484.13586 349.99247 486.04297 354.35156 L 486.04297 415.94141 L 524.00781 415.94141 C 517.82071 435.62765 511.63436 456.43899 505.44727 478.375 L 473.38672 504.5293 C 471.13686 491.03019 468.74592 475.84456 466.21484 458.9707 C 463.68374 442.09679 458.76317 427.75315 451.45117 415.94141 L 475.91797 415.94141 L 475.91797 355.19531 C 477.36807 350.26496 478.96761 347.80211 480.7168 347.80664 z M 576.31641 390.63086 L 576.31641 415.09766 L 583.91016 415.09766 C 578.28555 437.59616 571.53661 463.32808 563.66211 492.29492 C 555.78769 521.26176 550.44321 550.08975 547.63086 578.77539 L 480.13672 574.55664 L 478.44922 546.71484 C 500.94774 536.02805 523.44679 520.55925 545.94531 500.31055 L 559.44336 462.34375 L 576.31641 390.63086 z M 301.62109 546.30664 C 302.56696 546.27972 302.73238 546.69733 302.11719 547.55859 C 299.30485 551.49583 299.02357 554.86933 301.27344 557.68164 C 303.52328 560.494 303.94521 563.30683 302.53906 566.11914 C 301.1329 568.93145 302.39868 572.58815 306.33594 577.08789 C 310.27318 581.58756 295.36692 577.08698 261.61914 563.58789 C 284.90862 552.16287 298.24301 546.40278 301.62109 546.30664 z M 569.56836 581.30469 L 582.22266 581.30469 L 582.22266 795.79297 L 486.88477 795.79297 L 486.88477 944.2832 L 329.95898 944.2832 L 329.95898 686.76758 C 328.27159 681.14296 330.24061 678.33008 335.86523 678.33008 L 513.04102 678.33008 C 548.47625 678.33008 567.3186 651.895 569.56836 599.02344 L 569.56836 581.30469 z M 479.29297 594.80469 L 547.63086 599.02344 C 551.00564 639.52087 533.28846 660.33213 494.47852 661.45703 L 345.98828 661.45703 C 335.3015 650.2077 327.14609 637.55179 321.52148 623.49023 C 378.33022 612.80341 430.92115 603.24164 479.29297 594.80469 z M 312.24023 678.33008 L 312.24023 950 L 237.17188 950 C 243.91461 948.37864 250.27202 944.82991 256.24414 939.35547 C 252.30689 909.54487 254.83651 882.82846 263.83594 859.20508 C 302.08341 786.08486 315.1949 754.12146 309.28906 730.2168 C 303.38315 706.31208 304.36574 689.01682 312.24023 678.33008 z M 505.44727 813.50977 L 582.22266 813.50977 L 582.22266 944.2832 L 505.44727 944.2832 L 505.44727 813.50977 z M 185.47852 940.9375 C 193.00146 941.28904 201.12167 943.29322 209.83984 946.94922 C 213.0702 948.30389 216.23291 949.32103 219.32812 950 L 150.90039 950 C 155.62443 948.64975 160.22552 946.9294 164.70312 944.83984 C 171.03084 941.88692 177.95557 940.58596 185.47852 940.9375 z M 88.480469 964 L 605.14844 964 L 605.14844 986 L 88.480469 986 L 88.480469 964 z " />
</svg>
