<?xml version="1.0" encoding="UTF-8" standalone="no"?>
<svg
   width="1000"
   height="1000"
   version="1.1"
   id="svg1"
   sodipodi:docname="137C9.svg"
   inkscape:version="1.4.3 (0d15f75, 2025-12-25)"
   xmlns:inkscape="http://www.inkscape.org/namespaces/inkscape"
   xmlns:sodipodi="http://sodipodi.sourceforge.net/DTD/sodipodi-0.dtd"
   xmlns="http://www.w3.org/2000/svg"
   xmlns:svg="http://www.w3.org/2000/svg">
  <defs
     id="defs1" />
  <sodipodi:namedview
     id="namedview1"
     pagecolor="#ffffff"
     bordercolor="#666666"
     borderopacity="1.0"
     inkscape:showpageshadow="2"
     inkscape:pageopacity="0.0"
     inkscape:pagecheckerboard="0"
     inkscape:deskcolor="#d1d1d1"
     inkscape:zoom="0.37749999"
     inkscape:cx="544.37088"
     inkscape:cy="1015.8941"
     inkscape:window-width="1680"
     inkscape:window-height="998"
     inkscape:window-x="-8"
     inkscape:window-y="-8"
     inkscape:window-maximized="1"
     inkscape:current-layer="svg1"
     showguides="true">
    <sodipodi:guide
       position="619.14777,50"
       orientation="0,-1"
       id="guide1"
       inkscape:locked="false" />
    <sodipodi:guide
       position="127.27444,30.59507"
       orientation="0.99227786,-0.12403485"
       id="guide2"
       inkscape:locked="false" />
    <sodipodi:guide
       position="619.14777,38"
       orientation="0,1"
       id="guide3"
       inkscape:label=""
       inkscape:locked="false"
       inkscape:color="rgb(0,134,229)" />
  </sodipodi:namedview>
  <path
     id="path1"
     style="fill:#000000;stroke:none;stroke-width:51.0447"
     d="M 619.99219 0 L 566.83984 103.77539 C 571.33952 80.151946 575.8382 64.823779 580.33789 57.792969 C 584.8376 50.762198 589.05688 45.560316 592.99414 42.185547 C 600.86859 31.498731 604.52338 23.482079 603.96094 18.138672 C 603.39845 12.795299 600.58752 8.4373019 595.52539 5.0625 C 589.90074 1.6877325 584.5563 0.56257727 579.49414 1.6875 C 574.43198 2.8124221 568.52691 9.561365 561.77734 21.935547 C 560.08994 26.997716 556.57384 32.764092 551.23047 39.232422 C 545.88707 45.700751 535.05948 53.856122 518.74805 63.699219 C 502.43662 73.542318 484.15689 90.556264 463.9082 114.74219 C 444.78449 100.6806 430.86464 88.30592 422.14648 77.619141 C 413.4283 66.932326 408.64646 57.651835 407.80273 49.777344 C 406.95906 41.902887 408.08421 35.857158 411.17773 31.638672 C 414.27129 27.420223 418.2093 24.748004 422.99023 23.623047 C 427.77116 22.498124 432.41043 23.341973 436.91016 26.154297 C 441.40983 28.96662 443.37884 33.467206 442.81641 39.654297 C 441.6915 45.278908 437.75348 48.933693 431.00391 50.621094 C 425.94172 48.371251 423.13079 48.652521 422.56836 51.464844 C 420.88096 55.964533 423.12932 58.35548 429.31641 58.636719 C 435.5035 58.917958 441.12924 57.652167 446.19141 54.839844 C 451.25362 52.027521 453.50392 43.87215 452.94141 30.373047 C 448.44171 20.811154 441.55019 15.328002 432.26953 13.921875 C 422.98892 12.515714 414.83354 13.77955 407.80273 17.716797 C 400.77196 21.654007 396.55264 29.952002 395.14648 42.607422 C 393.74032 55.262843 397.95964 68.057482 407.80273 80.994141 C 417.64586 93.930798 433.25338 108.55576 454.62695 124.86719 C 450.68972 129.92933 444.50337 140.33501 436.06641 156.08398 L 407.38086 156.08398 L 422.56836 233.70312 C 414.1314 236.5155 410.75596 239.89092 412.44336 243.82812 C 401.19409 248.3278 395.56836 260.98376 395.56836 281.79492 C 401.75545 278.42016 405.97476 277.29501 408.22461 278.41992 C 416.0991 278.41992 427.06732 294.4494 441.12891 326.50977 C 434.37934 333.25935 429.0349 341.69597 425.09766 351.82031 C 411.03607 354.07015 401.75555 360.25848 397.25586 370.38281 L 390.50781 383.03711 L 334.82422 349.28906 C 332.01193 332.97764 326.38619 315.82301 317.94922 297.82422 L 296.01367 280.10742 C 291.51393 277.29509 288.98235 278.69961 288.41992 284.32422 C 287.85744 289.94887 289.54518 293.88687 293.48242 296.13672 L 228.51758 303.73047 C 227.9551 286.2941 230.76799 268.57695 236.95508 250.57812 C 226.26829 247.76585 216.14392 248.32836 206.58203 252.26562 C 210.51928 269.70195 212.20698 286.5753 211.64453 302.88672 C 178.4592 279.82573 154.55371 275.88771 139.92969 291.07422 C 125.30566 306.26072 124.88372 321.30762 138.66406 336.21289 C 152.44441 351.11814 176.49056 345.63304 210.80078 319.75977 C 211.36325 337.75859 208.55037 354.63386 202.36328 370.38281 C 210.28135 373.46208 218.54426 373.96015 227.15039 371.87891 C 220.12644 387.83374 211.86352 400.69291 202.36328 410.45703 C 192.23894 420.86259 184.92745 431.54955 180.42773 442.51758 C 175.92804 453.48563 167.2101 474.15629 154.27344 504.5293 C 158.77317 511.27885 168.33495 501.43578 182.95898 475 C 190.27099 464.87567 195.75415 458.12671 199.41016 454.75195 C 203.06617 451.37717 204.61322 459.25128 204.05078 478.375 L 204.05078 523.93359 C 196.73876 524.49604 193.6446 526.46503 194.76953 529.83984 C 195.89445 533.2146 198.98861 535.46493 204.05078 536.58984 C 193.36396 534.90249 188.86338 541.51079 190.55078 556.41602 C 192.23818 571.32134 196.73876 579.89857 204.05078 582.14844 L 204.05078 805.72852 C 195.05136 809.10328 190.26951 817.53993 189.70703 831.03906 C 189.14458 835.53876 190.83228 843.13156 194.76953 853.81836 C 196.4569 861.13038 200.67622 864.78711 207.42578 864.78711 C 202.92609 846.78829 200.95708 835.53876 201.51953 831.03906 C 201.51953 820.91474 204.61369 815.85352 210.80078 815.85352 C 216.42543 815.85352 219.51765 820.91474 220.08008 831.03906 C 220.08008 835.53876 218.11303 846.78829 214.17578 864.78711 C 216.49288 864.78711 218.53394 864.27357 220.29883 863.24805 C 215.33778 874.0846 210.37512 882.20906 205.41406 887.62109 C 199.22698 894.37065 187.41682 900.98087 169.98047 907.44922 C 152.54413 913.91747 135.80949 917.85359 119.7793 919.25977 C 103.74911 920.66591 95.453098 929.80575 94.890625 946.67969 C 94.340265 948.05559 96.818272 949.16262 102.32617 950 L 78.226562 950 L 78.226562 1000 L 611.20117 1000 L 611.20117 950 L 594.68164 950 L 594.68164 554.30664 C 594.68164 549.80695 596.93195 547.55859 601.43164 547.55859 C 605.93133 547.55859 608.17969 549.80695 608.17969 554.30664 L 608.17969 624.33398 L 625.89844 624.33398 L 625.89844 547.55859 C 625.89844 535.74685 618.02433 529.83984 602.27539 529.83984 C 585.40147 529.83984 576.96289 535.74685 576.96289 547.55859 L 576.96289 563.58789 L 560.93359 563.58789 C 563.18344 548.96386 566.84017 528.57443 571.90234 502.41992 C 576.9645 476.26536 585.11987 447.15803 596.36914 415.09766 L 625.05469 415.09766 L 625.05469 361.94531 C 623.36729 316.38584 614.22743 284.74689 597.63477 267.0293 C 581.04214 249.31172 562.34047 236.51513 541.5293 228.64062 L 641.08398 10.96875 L 619.99219 0 z M 587.22656 10.519531 C 588.39928 10.519532 589.47857 10.951227 590.46289 11.8125 C 594.96261 15.749747 592.14972 24.186424 582.02539 37.123047 C 571.90106 48.934785 565.71468 58.637217 563.46484 66.230469 C 561.21496 73.823722 558.68343 83.807458 555.87109 96.181641 C 553.0588 108.55583 546.30988 128.52331 535.62305 156.08398 L 454.62695 156.08398 C 461.93899 141.45996 473.18853 125.70984 488.375 108.83594 C 503.56152 91.962061 516.3581 80.151912 526.76367 73.402344 C 537.16924 66.652773 545.46526 60.605092 551.65234 55.261719 C 557.83944 49.918314 564.30906 40.497152 571.05859 26.998047 C 577.64995 16.012435 583.03829 10.519529 587.22656 10.519531 z M 624.21094 12.65625 L 625.89844 14.34375 L 527.18555 223.57812 C 511.99906 218.51598 495.26638 216.12699 476.98633 216.4082 C 458.70629 216.6894 445.06583 219.0784 436.06641 223.57812 L 423.41211 171.26953 L 549.96484 171.26953 L 624.21094 12.65625 z M 472.3457 231.17188 C 488.09463 231.17187 496.95322 241.01498 498.92188 260.70117 C 500.89048 280.3874 485.00168 293.32463 451.25391 299.51172 C 457.44102 301.76156 462.36157 306.26019 466.01758 313.00977 C 469.67355 319.7593 471.50195 326.5102 471.50195 333.25977 C 465.87734 334.94714 461.23606 334.10329 457.58008 330.72852 C 453.92405 327.35375 449.0035 318.35452 442.81641 303.73047 C 434.37944 280.10698 423.69252 268.57616 410.75586 269.13867 L 405.69336 269.13867 C 406.81829 264.0765 409.06859 262.95134 412.44336 265.76367 C 414.69319 262.38882 419.19183 262.10759 425.94141 264.91992 C 419.75432 258.73281 416.66211 252.54646 416.66211 246.35938 C 420.59938 246.92184 422.84969 245.79673 423.41211 242.98438 C 425.09952 242.98438 429.73882 241.01532 437.33203 237.07812 C 444.9253 233.14088 456.59674 231.17188 472.3457 231.17188 z M 506.9375 236.23438 C 531.68587 239.60915 556.01134 252.2651 579.91602 274.20117 C 603.82071 296.13724 612.9606 338.8831 607.33594 402.44141 L 586.24414 402.44141 C 589.05647 345.63264 566.83869 325.38388 519.5918 341.69531 L 495.125 361.94531 L 495.125 312.16602 C 517.06106 295.29211 520.99906 269.98215 506.9375 236.23438 z M 455.33984 237.50586 C 452.4748 237.50147 449.42557 237.64064 446.19141 237.92188 C 450.12866 240.17169 450.97251 242.98458 448.72266 246.35938 C 446.47277 242.98458 443.37862 241.29688 439.44141 241.29688 C 433.25428 241.29687 430.16016 245.5142 430.16016 253.95117 C 434.09738 256.76345 435.92574 259.43567 435.64453 261.9668 C 435.36332 264.4979 434.66007 266.04499 433.53516 266.60742 C 436.34745 269.41973 439.16033 276.73122 441.97266 288.54297 C 443.09754 288.54297 443.94139 287.98043 444.50391 286.85547 C 443.9414 274.48129 444.22273 266.04461 445.34766 261.54492 C 449.2849 254.23287 454.34609 250.43746 460.5332 250.15625 C 466.72027 249.87501 471.92411 251.98269 476.14258 256.48242 C 480.36108 260.9821 481.76748 266.04527 480.36133 271.66992 C 478.95517 277.29453 470.37594 283.4809 454.62695 290.23047 L 454.62695 292.76172 C 479.37535 286.01218 490.62487 274.62201 488.375 258.5918 C 486.40638 244.56538 475.39516 237.53659 455.33984 237.50586 z M 439.44141 243.82812 C 443.9411 243.82813 446.19141 245.79712 446.19141 249.73438 C 446.19141 253.10917 443.9411 255.35749 439.44141 256.48242 C 437.754 256.48242 435.50374 255.35731 432.69141 253.10742 C 433.81634 246.92033 436.06661 243.82812 439.44141 243.82812 z M 439.44141 246.35938 C 437.19152 246.35937 436.06641 247.48452 436.06641 249.73438 C 436.06641 252.54669 437.19152 253.95117 439.44141 253.95117 C 442.25366 253.95117 443.9414 252.54669 444.50391 249.73438 C 443.94143 247.48452 442.25369 246.35938 439.44141 246.35938 z M 163.1582 297.81055 C 172.21034 298.03027 184.99717 302.53575 201.51953 311.32422 C 173.95884 327.07319 156.80426 331.4312 150.05469 324.40039 C 143.30516 317.36962 143.58643 309.91746 150.89844 302.04297 C 153.64044 299.09005 157.72692 297.67872 163.1582 297.81055 z M 228.51758 317.22852 L 271.54688 320.60352 C 267.04714 326.22816 268.17228 332.13518 274.92188 338.32227 C 282.79636 343.38444 299.95099 354.35074 326.38672 371.22461 C 343.26061 388.661 359.00874 403.56723 373.63281 415.94141 C 372.50785 418.19126 365.47768 435.34587 352.54102 467.40625 L 268.17188 543.33984 C 255.79764 536.59027 240.04755 530.96455 220.92383 526.46484 L 220.92383 474.15625 C 221.48628 448.84542 218.67537 433.94116 212.48828 429.44141 C 214.73812 419.3171 220.08061 408.48946 228.51758 396.95898 C 236.13977 386.54197 236.87664 377.84503 230.72656 370.87109 C 231.9523 370.47775 233.18444 370.03482 234.42383 369.53906 C 228.23671 354.91503 226.2677 337.4772 228.51758 317.22852 z M 450.71484 344.42969 C 453.18331 344.32972 455.89278 345.38686 458.8457 347.60156 C 457.72075 350.41389 456.87688 357.1648 456.31445 367.85156 L 456.31445 391.47461 L 437.75391 406.66016 C 436.62899 376.28717 438.17604 357.58552 442.39453 350.55469 C 444.76742 346.59988 447.5411 344.55821 450.71484 344.42969 z M 475.45703 347.80664 C 477.10019 347.81089 478.87612 349.99249 480.7832 354.35156 L 480.7832 372.06836 L 470.6582 381.34961 L 470.6582 355.19531 C 472.1083 350.26496 473.70786 347.80212 475.45703 347.80664 z M 491.75 415.94141 L 578.65039 415.94141 C 573.02578 437.87745 566.27685 463.32807 558.40234 492.29492 C 550.52786 521.26177 545.18534 550.08974 542.37305 578.77539 L 474.87695 574.55664 C 470.9397 509.31095 463.6282 464.87539 452.94141 441.25195 C 473.19007 430.56517 486.12535 422.12851 491.75 415.94141 z M 409.06836 445.4707 L 424.25586 458.12695 L 437.75391 450.5332 C 449.56566 485.40588 456.03329 527.02855 457.1582 575.40039 C 418.91075 582.14992 385.72669 588.055 357.60352 593.11719 C 329.48039 598.17936 306.70006 604.647 289.26367 612.52148 L 290.10742 612.52148 C 263.10917 621.5209 248.90613 639.52133 247.5 666.51953 C 246.09383 693.51778 243.84551 725.99863 240.75195 763.96484 C 238.56642 790.78754 235.86872 807.88234 231.10156 827.70508 C 230.95973 816.14163 227.28492 808.81626 220.08008 805.72852 L 220.08008 580.46289 C 233.01674 580.46289 287.57617 564.43164 287.57617 564.43164 C 320.19902 545.87037 352.54115 520.84163 384.60156 489.34375 C 395.85082 472.46983 404.00619 457.84487 409.06836 445.4707 z M 564.30859 581.30469 L 576.96289 581.30469 L 576.96289 795.79297 L 481.62695 795.79297 L 481.62695 944.2832 L 324.69922 944.2832 L 324.69922 686.76758 C 323.01187 681.14297 324.98082 678.33008 330.60547 678.33008 L 507.78125 678.33008 C 543.21642 678.33008 562.05874 651.89498 564.30859 599.02344 L 564.30859 581.30469 z M 474.0332 594.80469 L 542.37305 599.02344 C 545.7478 639.52069 528.02868 660.33201 489.21875 661.45703 L 340.72852 661.45703 C 330.0417 650.20777 321.88633 637.55181 316.26172 623.49023 C 373.07049 612.80341 425.66139 603.24162 474.0332 594.80469 z M 306.98047 678.33008 L 306.98047 729.79492 C 299.10598 706.17147 299.10598 689.01685 306.98047 678.33008 z M 306.98047 765.7793 L 306.98047 950 L 241.65039 950 C 248.93585 948.67638 255.70248 945.05358 261.94141 939.08594 C 259.12908 909.27537 262.22325 882.55895 271.22266 858.93555 C 290.60667 815.5679 302.23219 786.86283 306.98047 765.7793 z M 500.1875 813.50977 L 576.96289 813.50977 L 576.96289 944.2832 L 500.1875 944.2832 L 500.1875 813.50977 z M 186.32617 939.76562 C 195.46618 939.34819 205.48509 941.51202 216.38281 946.25781 C 220.61808 948.10219 224.71576 949.33369 228.68555 950 L 148.89648 950 C 156.45669 948.60552 163.76626 946.37336 170.82422 943.30469 C 175.67545 941.19546 180.84217 940.01609 186.32617 939.76562 z M 92.226562 964 L 597.20117 964 L 597.20117 986 L 92.226562 986 L 92.226562 964 z " />
</svg>
