<?xml version="1.0" encoding="UTF-8" standalone="no"?>
<svg
   width="800"
   height="1000"
   version="1.1"
   id="svg1"
   sodipodi:docname="137C6.svg"
   inkscape:version="1.4.3 (0d15f75, 2025-12-25)"
   xmlns:inkscape="http://www.inkscape.org/namespaces/inkscape"
   xmlns:sodipodi="http://sodipodi.sourceforge.net/DTD/sodipodi-0.dtd"
   xmlns="http://www.w3.org/2000/svg"
   xmlns:svg="http://www.w3.org/2000/svg">
  <defs
     id="defs1" />
  <sodipodi:namedview
     id="namedview1"
     pagecolor="#ffffff"
     bordercolor="#000000"
     borderopacity="0.25"
     inkscape:showpageshadow="2"
     inkscape:pageopacity="0.0"
     inkscape:pagecheckerboard="0"
     inkscape:deskcolor="#d1d1d1"
     inkscape:zoom="0.44383039"
     inkscape:cx="751.41317"
     inkscape:cy="481.03961"
     inkscape:window-width="1680"
     inkscape:window-height="998"
     inkscape:window-x="-8"
     inkscape:window-y="-8"
     inkscape:window-maximized="1"
     inkscape:current-layer="svg1"
     showguides="true">
    <sodipodi:guide
       position="647.64022,50"
       orientation="0,-1"
       id="guide17"
       inkscape:locked="false" />
    <sodipodi:guide
       position="139.65542,42.37189"
       orientation="0.98682656,-0.16178178"
       id="guide18"
       inkscape:locked="false" />
    <sodipodi:guide
       position="108.97773,43"
       orientation="0,-1"
       id="guide19"
       inkscape:locked="false" />
    <sodipodi:guide
       position="526.79025,808.60983"
       orientation="1,0"
       id="guide1"
       inkscape:locked="false" />
    <sodipodi:guide
       position="420.23244,830.88139"
       orientation="0,-1"
       id="guide7"
       inkscape:locked="false" />
    <sodipodi:guide
       position="482.96026,820.92116"
       orientation="1,0"
       id="guide8"
       inkscape:locked="false" />
  </sodipodi:namedview>
  <path
     id="path1-6-1"
     style="fill:#000000;stroke:none;stroke-width:55.9918"
     inkscape:transform-center-x="198.06106"
     inkscape:transform-center-y="-108.4029"
     d="M 526.79102 0.625 C 509.08365 0.625 492.75895 6.4344959 477.81836 18.054688 C 462.87776 30.228524 454.85632 44.339806 453.74805 60.386719 C 449.32133 54.852219 442.12821 52.085938 432.16797 52.085938 C 423.31454 52.085938 416.39833 55.405097 411.41797 62.044922 L 411.41797 179.07812 L 482.96094 179.07812 C 474.84079 182.37134 469.52171 186.72687 465.22656 191.38867 C 456.28871 194.36793 452.7163 197.94421 454.50391 202.11523 C 442.58674 206.88209 436.62695 220.28728 436.62695 242.33398 C 443.18139 238.75885 447.65175 237.5681 450.03516 238.75977 C 458.37719 238.75977 469.9942 255.74127 484.89062 289.70508 C 477.74032 296.85537 472.07721 305.79413 467.90625 316.51953 C 453.00983 318.90296 443.18093 325.45622 438.41406 336.18164 C 420.53836 370.7413 399.08844 409.17466 374.0625 451.48047 L 265.91211 491.70117 C 252.86248 483.75791 238.46371 476.08647 222.71289 468.68359 L 222.71289 267.71875 C 222.71289 252.78086 216.8544 242.12489 206.51367 225.46484 C 212.83297 212.25167 220.73193 198.46365 230.21094 184.10156 C 239.68994 169.73943 238.68498 157.96324 227.19531 148.77148 C 218.00355 171.1764 206.80105 188.84165 193.58789 201.76758 C 180.37473 214.69348 171.03963 228.19466 165.58203 242.26953 C 160.12441 256.3444 148.49068 282.33791 130.68164 320.25391 C 147.34173 327.14771 159.98037 314.79586 168.59766 283.19922 C 177.78944 269.98605 184.82585 261.36905 189.70898 257.34766 C 194.55352 253.35805 200.38661 259.75676 200.47852 275.91992 L 200.47852 464.26172 L 198.87891 463.99414 C 190.53693 465.18588 187.11188 467.57133 188.60156 471.14648 C 190.0912 474.7216 193.51623 477.10322 198.87891 478.29492 C 187.55762 476.50738 182.64316 483.50867 184.13281 499.29883 C 185.62243 515.08901 190.24019 522.98242 197.98633 522.98242 L 200.47852 522.7832 L 200.47852 798.98242 C 185.15691 803.45161 176.8006 815.26169 176.16211 834.41406 C 174.88522 841.43678 177.43992 852.60944 183.82422 867.93164 C 187.65481 878.78506 194.99633 884.21289 205.84961 884.21289 C 198.82691 858.03722 195.31641 841.43678 195.31641 834.41406 C 195.95486 820.36863 201.38089 813.3457 211.5957 813.3457 C 221.81051 813.3457 227.23655 820.36863 227.875 834.41406 C 227.875 841.43678 224.3645 858.03722 217.3418 884.21289 C 220.97607 884.21289 224.21567 883.60368 227.0625 882.38672 C 225.34676 884.46024 222.61303 887.28446 218.85938 890.85938 C 212.6029 896.81795 202.62266 902.47709 188.91797 907.83984 L 167.46484 914.09766 C 157.33531 918.26874 144.52742 921.24771 129.03516 923.03516 C 112.58909 924.73652 103.96751 933.72541 103.17383 950 L 89.585938 950 L 89.585938 1000.0957 L 662.28906 1000.0957 L 662.28906 950 L 647.55859 950 L 647.55859 531.02734 C 647.55859 526.26045 649.94211 523.87891 654.70898 523.87891 C 659.47582 523.87891 661.85938 526.26045 661.85938 531.02734 L 661.85938 605.21289 L 680.63086 605.21289 L 680.63086 523.87891 C 680.63086 511.36595 672.28746 505.10938 655.60352 505.10938 C 637.72784 505.10938 628.79102 511.36595 628.79102 523.87891 L 628.79102 540.85938 L 611.80664 540.85938 C 614.19005 525.36711 618.06504 503.76782 623.42773 476.06055 C 628.79043 448.35316 637.43051 417.51656 649.34766 383.55273 L 679.73633 383.55273 L 679.73633 327.24609 C 677.94879 278.98172 668.26525 245.4609 650.6875 226.69141 C 624.9484 199.20729 595.80088 185.66154 570.61914 179.07812 L 642.16211 179.07812 L 642.16211 62.044922 C 637.18218 55.404609 630.26603 52.085938 621.41211 52.085938 C 612.00553 52.085938 605.0903 54.853194 600.66211 60.386719 C 600.66211 45.446613 592.36227 31.335332 575.76172 18.054688 C 560.26797 6.4344959 543.94473 0.625 526.79102 0.625 z M 526.79102 11.414062 C 543.39107 11.414062 558.19173 17.22551 571.19531 28.845703 C 584.19887 40.465895 590.70117 54.02188 590.70117 69.515625 C 590.70117 86.669339 584.47581 100.78112 572.02539 111.84766 C 559.57546 122.9147 544.49788 128.44727 526.79102 128.44727 C 509.63682 128.44727 494.83517 122.77526 482.38477 111.43164 C 469.93435 100.08803 463.98492 86.115701 464.53906 69.515625 C 464.53906 53.468232 470.76443 39.7733 483.21484 28.429688 C 495.66525 17.086072 510.19046 11.414062 526.79102 11.414062 z M 432.16797 62.044922 C 440.46825 62.044922 446.41913 68.547213 450.01367 81.550781 C 453.61064 94.554348 462.04798 107.282 475.32812 119.73242 C 488.60876 132.18283 505.76375 138.4082 526.79102 138.4082 C 548.37144 138.4082 565.66245 132.18283 578.66602 119.73242 C 591.66959 107.282 599.96698 94.554348 603.56641 81.550781 C 607.16291 68.547213 613.11232 62.044922 621.41211 62.044922 C 625.83932 62.044922 629.43731 64.257367 632.20312 68.685547 L 632.20312 169.11914 L 422.20703 169.11914 L 422.20703 68.685547 C 424.42014 64.256869 427.73979 62.044922 432.16797 62.044922 z M 517.96094 188.70703 C 534.64488 188.70703 544.02972 199.13527 546.11523 219.99023 C 548.20074 240.84524 531.36659 254.55105 495.61523 261.10547 C 502.16969 263.48891 507.3828 268.25599 511.25586 275.40625 C 515.1289 282.55652 517.06641 289.70324 517.06641 296.85352 C 511.10781 298.64109 506.19338 297.75089 502.32031 294.17578 C 498.44721 290.60065 493.23211 281.06646 486.67773 265.57422 C 477.73986 240.5482 466.41758 228.32989 452.71289 228.92578 L 447.35156 228.92578 C 448.54327 223.56308 450.92874 222.37427 454.50391 225.35352 C 456.88731 221.77838 461.65244 221.47966 468.80273 224.45898 C 462.24831 217.90458 458.9707 211.34934 458.9707 204.79492 C 463.1417 205.39079 465.52524 204.19996 466.12109 201.2207 C 467.90871 201.22065 472.82507 199.13586 480.86914 194.96484 C 488.91317 190.79384 501.27696 188.70701 517.96094 188.70703 z M 554.60547 194.07031 C 580.82315 197.64545 606.59217 211.05065 631.91602 234.28906 C 657.2399 257.52741 666.92537 302.81276 660.9668 370.14453 L 638.62305 370.14453 C 641.60234 309.96307 617.7669 287.32041 567.11914 302.2168 L 567.11914 370.14453 L 542.09375 370.14453 L 542.09375 274.50977 C 565.33216 256.63407 569.50183 229.82169 554.60547 194.07031 z M 499.94531 194.32227 C 496.91067 194.31827 493.68138 194.46584 490.25586 194.76367 C 490.77661 195.06132 491.24556 195.36937 491.66406 195.68555 L 491.66602 195.68555 C 491.875 195.84348 492.07043 196.00346 492.25391 196.16602 L 492.25586 196.16602 C 492.99066 196.81726 493.5202 197.50688 493.8457 198.23242 L 493.8457 198.23438 C 493.86768 198.28339 493.88223 198.33346 493.90234 198.38281 C 494.25424 199.24672 494.32764 200.16089 494.10742 201.12891 L 494.10742 201.13086 C 493.92093 201.94939 493.52897 202.80611 492.93359 203.69922 C 492.63568 203.25242 492.3239 202.8343 491.99805 202.44336 C 490.04327 200.09792 487.58487 198.75719 484.625 198.42188 L 484.62305 198.42188 C 484.12959 198.36605 483.62294 198.33789 483.10156 198.33789 C 482.69258 198.33789 482.29361 198.35583 481.91016 198.39062 C 481.52678 198.42547 481.15473 198.47724 480.79688 198.54688 C 480.43909 198.61657 480.09203 198.70411 479.75977 198.80859 C 475.43321 200.17009 473.27148 204.48215 473.27148 211.74414 C 475.87837 213.60618 477.61175 215.40883 478.47266 217.1543 L 478.47266 217.15625 C 478.9886 218.20297 479.19175 219.22939 479.08008 220.23438 C 478.93112 221.575 478.67071 222.65478 478.29883 223.47461 C 478.06634 223.98687 477.79058 224.3985 477.4707 224.70703 C 477.27881 224.8922 477.07109 225.0406 476.84766 225.15234 C 477.59248 225.89716 478.33724 226.93881 479.08203 228.2793 L 479.08203 228.28125 C 481.31615 232.30285 483.55093 239.00499 485.78516 248.38867 C 486.33413 248.38867 486.82004 248.2606 487.24219 248.00781 L 487.24414 248.00781 C 487.34237 247.9488 487.43792 247.88326 487.5293 247.81055 C 487.62072 247.7378 487.71035 247.65679 487.79492 247.57031 C 487.9647 247.39655 488.11953 247.19398 488.26172 246.96484 C 488.33281 246.85029 488.40065 246.72995 488.46484 246.60156 C 487.86897 233.49268 488.16761 224.55586 489.35938 219.78906 C 490.40211 217.85252 491.51912 216.14884 492.71094 214.67773 C 496.28655 210.26457 500.53339 207.94607 505.44922 207.72266 C 512.00364 207.42474 517.5135 209.65889 521.98242 214.42578 C 522.54103 215.02164 523.05406 215.62573 523.51953 216.24023 L 523.51953 216.24219 C 523.98461 216.85627 524.40331 217.47863 524.77539 218.11133 C 526.26554 220.64407 527.0098 223.32547 527.00977 226.15625 C 527.00964 227.57152 526.82359 229.02402 526.45117 230.51367 C 526.26497 231.25849 525.96071 232.01198 525.53711 232.77539 L 525.53711 232.77734 C 522.57118 238.1208 513.78864 243.9198 499.19141 250.17578 L 499.19141 252.85938 C 502.46862 251.96559 505.5232 250.99468 508.35352 249.94727 C 516.84452 246.80498 523.32394 242.97028 527.79297 238.44531 C 528.53744 237.69152 529.22652 236.91911 529.85938 236.12695 L 529.85938 236.125 C 530.49247 235.33245 531.07042 234.52236 531.5918 233.69141 C 533.67736 230.36753 534.86806 226.73517 535.16602 222.79688 C 535.2405 221.81231 535.2599 220.81008 535.22266 219.78711 C 535.18542 218.76414 535.09232 217.72153 534.94336 216.66016 C 534.42198 212.94536 533.30101 209.69245 531.58203 206.9043 C 531.15258 206.20771 530.68584 205.54109 530.18164 204.90234 L 530.18164 204.90039 C 529.67707 204.26126 529.13411 203.65152 528.55469 203.07031 C 526.23729 200.74586 523.32118 198.88442 519.80664 197.48633 L 519.80469 197.48633 C 514.53174 195.38908 507.91256 194.33449 499.94531 194.32227 z M 483.10156 201.01953 C 484.88914 201.01953 486.34139 201.312 487.45898 201.89844 L 487.46094 201.89844 C 487.83286 202.09374 488.16719 202.32369 488.46484 202.58398 L 488.4668 202.58398 C 488.9134 202.97476 489.27543 203.43937 489.55469 203.97656 C 489.64784 204.15575 489.73212 204.34163 489.80664 204.53711 L 489.80664 204.53906 C 490.10476 205.32106 490.25391 206.23265 490.25391 207.27539 C 490.25391 209.16913 489.57827 210.72614 488.24023 211.95117 C 488.06802 212.10877 487.88381 212.25972 487.68945 212.40625 C 487.61251 212.46429 487.5394 212.52573 487.45898 212.58203 C 487.08645 212.84273 486.67746 213.08514 486.23047 213.30859 C 485.33653 213.75545 484.29328 214.12786 483.10156 214.42578 C 482.96544 214.42578 482.82661 214.41813 482.68359 214.4043 C 481.6824 214.30757 480.51159 213.87156 479.17188 213.09766 C 478.18994 212.53004 477.11739 211.78103 475.95312 210.84961 C 476.62347 207.16275 477.66979 204.51296 479.09375 202.90039 C 479.7268 202.1837 480.43477 201.67235 481.2168 201.36523 C 481.41228 201.28845 481.61356 201.22501 481.81836 201.17383 C 482.2274 201.07176 482.65535 201.01953 483.10156 201.01953 z M 483.10156 203.69922 C 480.71817 203.69922 479.52734 204.89197 479.52734 207.27539 C 479.52734 210.25469 480.71817 211.74414 483.10156 211.74414 C 486.08084 211.74414 487.86897 210.25469 488.46484 207.27539 C 487.86897 204.89197 486.08084 203.69922 483.10156 203.69922 z M 495.04492 308.69141 C 497.65971 308.58525 500.52998 309.70459 503.6582 312.05078 C 502.46649 315.03003 501.57437 322.18065 500.97852 333.50195 L 500.97852 370.14453 L 480.42188 370.14453 C 479.82599 340.94758 481.76349 322.62786 486.23242 315.17969 C 488.46688 311.45559 491.03467 309.33385 493.93945 308.8125 C 494.30255 308.7474 494.67135 308.70653 495.04492 308.69141 z M 521.25586 312.26953 C 522.99662 312.27353 524.87812 314.58329 526.89844 319.20117 L 526.89844 384.44727 L 566.77539 384.44727 C 560.1927 405.50791 549.6561 442.40515 543.21484 465.24219 C 535.13732 470.45757 525.88233 475.81494 515.78906 481.35742 C 514.12827 467.45807 511.91425 453.23568 508.89258 437.74023 C 505.43292 419.9987 498.00199 396.96022 490.25586 384.44727 L 516.17383 384.44727 L 516.17383 320.09375 C 517.66348 315.02898 519.30031 312.42434 521.08789 312.27539 C 521.14379 312.27139 521.19969 312.26953 521.25586 312.26953 z M 622.5332 357.63281 L 622.5332 383.55273 L 630.57812 383.55273 C 624.61959 407.38698 617.46702 434.64936 609.125 465.33594 C 600.78305 496.02255 595.12385 526.55861 592.14453 556.94727 L 520.64258 552.47852 C 520.2981 542.15158 519.89473 532.38628 519.35547 522.89844 C 541.46937 514.01956 563.20184 503.16939 586.11523 488.47852 C 601.00927 447.72242 612.30168 400.02007 622.24219 357.77344 L 622.5332 357.63281 z M 464.33398 384.44727 C 480.28229 390.42786 492.20477 440.60147 497.98633 490.91211 C 473.82742 503.64899 446.49895 517.40098 419.64453 532.61523 C 411.89838 529.04003 402.6629 525.76245 391.9375 522.7832 C 387.17062 520.99533 381.2108 519.80271 374.06055 519.20703 C 369.2937 519.20703 362.44172 520.84788 353.50391 524.125 C 344.56604 527.40211 336.52139 529.03906 329.37109 529.03906 C 326.98768 529.63476 325.35082 530.52893 324.45703 531.7207 C 323.56326 532.91248 324.00931 534.40196 325.79688 536.18945 C 324.60525 536.78516 324.1592 537.82679 324.45703 539.31641 C 324.75496 540.80605 325.49774 541.55273 326.68945 541.55273 C 325.49778 542.74449 325.05175 543.93518 325.34961 545.12695 C 325.64757 546.31873 326.39229 546.91406 327.58398 546.91406 C 326.39236 547.51015 325.94628 548.85218 326.24414 550.9375 C 326.54206 553.02286 328.47954 553.76758 332.05469 553.17188 C 342.18425 550.19254 350.37437 547.80895 356.63086 546.02148 C 362.88735 544.23399 372.57086 543.93518 385.67969 545.12695 C 388.06311 545.72265 389.25586 546.61682 389.25586 547.80859 C 389.25586 549.00002 388.36174 549.29687 386.57422 548.70117 C 382.99905 548.70117 377.93523 548.4043 371.38086 547.80859 C 366.61398 547.21252 362.74103 547.5094 359.76172 548.70117 C 356.78241 549.89257 355.58966 551.6809 356.18555 554.06445 C 356.78141 556.44765 360.35573 556.74647 366.91016 554.95898 C 372.27286 556.15076 379.42544 557.93709 388.36328 560.32031 C 397.30116 562.70373 407.43066 560.61887 418.75195 554.06445 C 448.85086 545.99947 475.56433 538.82135 501.22852 529.73047 C 501.6525 538.0424 501.87109 546.003 501.87109 553.37305 C 461.35286 560.52333 426.19905 566.77985 396.40625 572.14258 C 366.61345 577.50527 341.88591 584.65589 322.22266 593.59375 C 294.21743 603.12746 279.02214 621.44912 276.63867 648.56055 C 274.25526 675.67206 270.0855 709.18703 264.12695 749.10938 C 262.13043 762.48597 257.03347 794.03306 246.68945 829.59766 C 244.88925 813.26851 236.70608 803.06412 222.71289 798.98242 L 222.71289 521.50781 C 229.14137 521.72357 245.62678 519.53344 272.16992 514.93945 C 311.49646 509.57673 353.80282 501.23532 399.08789 489.91406 C 428.28482 453.56681 450.03341 418.41108 464.33398 384.44727 z M 615.38281 559.63086 L 628.79102 559.63086 L 628.79102 792.90625 L 527.79297 792.90625 L 527.79297 950 L 361.54883 950 L 361.54883 671.35156 C 359.76122 665.39302 361.84616 662.41406 367.80469 662.41406 L 555.5 662.41406 C 593.03896 662.41406 612.9994 634.409 615.38281 578.39844 L 615.38281 559.63086 z M 519.74805 573.92969 L 592.14453 578.39844 C 595.71969 621.30014 576.94809 643.34731 535.83398 644.53906 L 378.53125 644.53906 C 367.20998 632.62189 358.56993 619.21477 352.61133 604.31836 C 412.79283 592.99707 468.50439 582.86751 519.74805 573.92969 z M 342.7793 664.20117 L 342.7793 950 L 268.71094 950 C 272.67731 947.99348 276.46787 945.26172 280.08203 941.80469 C 276.50692 910.22431 279.48782 881.92248 289.02148 856.89648 C 331.92316 778.83932 347.09663 742.85611 339.64844 717.83008 C 332.20023 692.80416 333.24557 674.9266 342.7793 664.20117 z M 547.45508 811.67773 L 628.79102 811.67773 L 628.79102 950 L 547.45508 950 L 547.45508 811.67773 z M 205.22852 943.48047 C 213.27241 943.85238 221.98636 945.97459 231.37109 949.84766 C 231.49524 949.89889 231.62021 949.94968 231.74414 950 L 177.56445 950 C 179.43132 949.26323 181.27936 948.46831 183.10742 947.61523 C 189.8108 944.48695 197.18463 943.10856 205.22852 943.48047 z M 103.58594 964 L 648.28906 964 L 648.28906 986.0957 L 103.58594 986.0957 L 103.58594 964 z " />
</svg>
