<?xml version="1.0" encoding="UTF-8" standalone="no"?>
<svg
   width="700"
   height="1000"
   version="1.1"
   id="svg1"
   sodipodi:docname="137DB.svg"
   inkscape:version="1.4.2 (f4327f4, 2025-05-13)"
   xmlns:inkscape="http://www.inkscape.org/namespaces/inkscape"
   xmlns:sodipodi="http://sodipodi.sourceforge.net/DTD/sodipodi-0.dtd"
   xmlns="http://www.w3.org/2000/svg"
   xmlns:svg="http://www.w3.org/2000/svg">
  <defs
     id="defs1" />
  <sodipodi:namedview
     id="namedview1"
     pagecolor="#ffffff"
     bordercolor="#666666"
     borderopacity="1.0"
     inkscape:showpageshadow="2"
     inkscape:pageopacity="0.0"
     inkscape:pagecheckerboard="0"
     inkscape:deskcolor="#d1d1d1"
     inkscape:zoom="0.53386562"
     inkscape:cx="368.07015"
     inkscape:cy="669.64417"
     inkscape:window-width="1680"
     inkscape:window-height="998"
     inkscape:window-x="-8"
     inkscape:window-y="-8"
     inkscape:window-maximized="1"
     inkscape:current-layer="svg1" />
  <path
     id="path1"
     style="fill:#000000;stroke:none;stroke-width:0.999998"
     d="M 647.03125 1.1368684e-13 C 645.82547 1.8981251e-06 644.64836 0.15274996 643.5 0.45898438 C 638.9065 1.6838914 633.54845 7.8096377 627.42383 18.833984 C 625.58642 23.12125 622.67649 27.866335 618.69531 33.072266 C 614.71427 38.278197 608.43582 43.638217 599.86133 49.150391 C 591.28686 54.662564 584.85754 58.949392 580.57031 62.011719 C 576.28304 65.074046 569.54437 70.892324 560.35742 79.466797 C 551.17046 88.041297 545.0467 95.085483 541.98438 100.59766 C 524.22292 88.348371 511.51515 77.630313 503.85938 68.443359 C 496.20358 59.256406 492.06949 51.140977 491.45703 44.097656 C 490.84458 37.054334 491.76305 31.694313 494.21289 28.019531 C 496.66274 24.344749 500.18387 22.049554 504.77734 21.130859 C 509.37085 20.212163 513.65767 20.975937 517.63867 23.425781 C 521.61966 25.875626 523.30386 29.551453 522.69141 34.451172 C 522.07895 39.963346 518.40505 43.331704 511.66797 44.556641 C 507.3807 42.71925 504.93081 43.024764 504.31836 45.474609 C 503.09342 49.761843 504.93036 52.058994 509.83008 52.365234 C 514.72977 52.671475 519.4768 51.447493 524.07031 48.691406 C 528.66375 45.93532 530.65347 39.351346 530.04102 28.939453 C 526.97869 19.752498 521.77339 14.699946 514.42383 13.78125 C 507.07426 12.862555 500.18282 13.933766 493.75195 16.996094 C 487.32108 20.058392 483.64722 27.100654 482.72852 38.125 C 481.80983 49.149347 485.79113 60.174873 494.67188 71.199219 C 503.5526 82.223565 517.17882 94.778561 535.55273 108.86523 C 531.87795 113.76495 526.36715 122.95158 519.01758 136.42578 L 490.53711 136.42578 L 502.48047 208.08398 L 506.29102 208.37109 C 500.77369 209.69608 496.74856 211.28373 494.21289 213.13672 C 486.25087 218.9551 482.57504 222.78367 483.1875 224.62109 C 481.35009 223.39613 479.36043 223.39613 477.2168 224.62109 C 475.07321 225.84599 474 228.29593 474 231.9707 C 463.5881 235.64548 458.38281 248.20048 458.38281 269.63672 C 464.50743 265.96194 468.48878 264.43051 470.32617 265.04297 C 477.67574 265.04297 485.63839 276.06849 494.21289 298.11719 C 488.70072 304.8543 483.18796 313.12248 477.67578 322.92188 C 456.85203 321.69695 434.18997 332.415 409.69141 355.07617 L 334.35938 380.79883 C 315.98547 377.12405 281.07583 373.14274 229.62891 368.85547 L 229.57812 368.96289 C 219.92817 361.97571 202.9954 353.51141 189.08398 349.42578 C 188.96612 348.53936 188.86574 347.74103 188.7832 347.03125 C 191.5906 347.03125 193.85832 344.27636 195.58594 338.76953 C 197.31358 333.15472 200.17476 330.34766 204.16992 330.34766 C 205.03373 329.48384 205.46484 328.35097 205.46484 326.94727 C 204.60102 322.5202 201.14632 319.76726 195.09961 318.6875 C 192.29222 317.93166 189.86211 317.44449 187.81055 317.22852 L 189.59375 284.67383 C 184.51883 280.46273 178.90274 272.79742 172.74805 261.67578 C 166.59336 250.55415 163.51562 236.78555 163.51562 220.37305 C 163.51562 203.96054 166.97228 190.57283 173.88281 180.20703 C 180.90131 169.73326 187.3255 164.49609 193.15625 164.49609 C 199.08802 164.49609 202.11594 160.02592 202.12305 151.73047 L 202.25195 151.73047 C 202.25195 135.40852 199.43684 117.52556 193.80859 110.49023 C 188.18034 103.45493 182.83301 99.092807 177.76758 97.404297 L 177.62305 97.410156 C 183.62446 93.268817 187.57617 86.346502 187.57617 78.541016 C 187.57617 65.935026 177.27201 55.630859 164.66602 55.630859 C 152.06003 55.630859 141.75391 65.935026 141.75391 78.541016 C 141.75391 87.166987 146.57989 94.716031 153.66602 98.623047 C 150.16235 99.497383 146.65799 101.90599 143.1543 105.84766 C 141.46583 106.97326 139.91877 108.66083 138.51172 110.91211 C 137.10464 113.16341 136.40039 115.41468 136.40039 117.66602 C 136.40039 119.9173 136.96418 121.60675 138.08984 122.73242 L 142.31055 122.73242 L 142.31055 121.04297 C 143.43619 121.60586 144.2809 121.88867 144.84375 121.88867 C 145.40656 126.39128 146.53222 132.30046 148.2207 139.61719 C 146.23437 144.31864 144.07422 158.67318 144.07422 167.95898 C 140.91539 172.51069 138.1104 177.50966 135.6582 182.95898 C 129.71946 195.91622 126.04823 211.89644 124.64453 230.90039 C 123.24082 250.01232 125.88745 270.20508 132.58203 291.47656 C 152.77374 295.47171 166.21558 301.62718 172.91016 309.94141 L 171.45312 317.22852 C 169.61751 317.44449 167.78093 317.93166 165.94531 318.6875 C 161.08635 319.76726 158.17102 322.5202 157.19922 326.94727 C 157.19922 328.35097 157.6864 329.48384 158.6582 330.34766 C 162.54537 330.34766 165.40659 333.15472 167.24219 338.76953 C 168.96984 344.27636 171.18338 347.03125 173.88281 347.03125 C 160.91842 347.90522 151.93262 351.2529 146.86719 356.31836 C 139.55044 361.94661 141.52081 365.88542 152.77734 368.13672 C 148.27472 372.07649 157.34476 399.14144 166.28516 404.43945 C 166.71413 404.56224 167.14189 404.67668 167.56836 404.78516 C 167.55446 408.30639 167.60808 411.94546 167.72852 415.70313 C 169.13223 425.96096 173.61152 431.08984 181.16992 431.08984 C 189.05224 431.08984 193.69591 425.96096 195.09961 415.70313 C 195.21079 411.36695 195.24089 407.1893 195.1875 403.16797 C 203.22483 400.52397 210.96256 396.48113 218.62891 392.61914 C 270.68832 410.99308 310.77981 420.61024 338.95312 421.22266 C 368.96385 412.03571 399.58662 402.23608 430.82227 391.82422 C 455.32081 385.69959 471.24419 383.8607 478.59375 386.31055 C 492.68043 425.50821 499.72461 456.43843 499.72461 479.09961 C 499.72461 491.34886 499.4191 505.74278 498.80664 522.2793 C 498.19416 538.81582 493.90538 567.5997 485.94336 608.63477 L 457.46484 743.68359 L 465.73242 743.68359 C 458.99529 756.5453 456.23988 766.95789 457.46484 774.91992 C 458.68974 782.88195 456.85282 802.0209 451.95312 832.33789 C 447.0534 862.65485 439.39628 892.51189 428.98438 921.91016 C 423.4722 934.15936 417.96136 943.04056 412.44922 948.55273 C 406.93705 954.0649 396.52451 959.42492 381.21289 964.63086 C 365.90131 969.83681 351.35465 973.20497 337.57422 974.73633 C 323.79379 976.26746 316.9043 983.46442 316.9043 996.32617 C 315.67936 998.77598 325.47895 1000 346.30273 1000 C 359.77693 1000 372.02643 997.70288 383.05078 993.10938 C 394.07513 988.51588 407.24311 989.12887 422.55469 994.94727 C 437.8663 1000.7656 451.33976 998.776 462.97656 988.97656 C 459.91423 965.09046 462.36415 943.95982 470.32617 925.58594 C 500.33688 866.78944 513.65756 828.05125 510.28906 809.37109 C 506.92049 790.69094 510.44162 768.7946 520.85352 743.68359 L 557.60156 743.68359 C 557.60156 744.9085 560.05145 747.97137 564.95117 752.87109 C 566.78853 770.02006 571.99578 782.57507 580.57031 790.53711 C 597.71925 852.39596 606.90591 898.33104 608.13086 920.99219 C 606.29345 941.81593 588.53119 959.57818 554.8457 974.27734 C 537.69672 977.95202 525.44723 979.94205 518.09766 980.24805 C 510.74808 980.55428 507.07422 987.13825 507.07422 1000 L 564.0332 1000 C 578.73233 992.03783 599.5555 991.27218 626.50391 997.70313 C 653.45228 1004.134 660.191 990.50585 646.7168 956.82031 C 643.04208 944.57106 642.42909 930.79208 644.87891 915.48047 C 647.32877 853.62161 644.11313 811.66787 635.23242 796.96875 C 626.35152 782.26959 622.52314 764.50733 623.74805 743.68359 L 627.42383 745.52148 C 626.19893 728.37255 623.44147 668.96389 619.1543 567.29492 C 619.76671 548.30854 616.39837 530.24078 609.04883 513.0918 C 609.66357 499.6176 609.81577 489.81803 609.50977 483.69336 C 609.20331 477.56869 607.82482 475.11885 605.375 476.34375 C 606.59995 454.29506 614.86812 424.89623 630.17969 388.14844 C 628.95474 438.37045 630.48626 467.4618 634.77344 475.42383 C 631.09867 499.92238 629.87275 526.56574 631.09766 555.35156 L 635.69141 581.07422 C 632.01669 592.09857 631.09819 601.74541 632.93555 610.01367 C 634.77291 618.28198 635.23095 624.71319 634.3125 629.30664 C 633.39359 633.90031 633.85405 636.50277 635.69141 637.11523 C 638.14136 638.34014 639.97821 637.57463 641.20312 634.81836 C 642.42758 632.06228 642.73354 628.38841 642.12109 623.79492 C 641.50863 619.20142 641.50863 615.37282 642.12109 612.31055 C 643.34645 610.47319 644.26645 609.55469 644.87891 609.55469 C 646.10381 609.55469 647.02231 610.7787 647.63477 613.22852 C 648.85967 624.25286 648.5522 632.36828 646.71484 637.57422 C 644.87743 642.78017 642.73498 649.97712 640.28516 659.16406 C 640.28516 661.61387 640.89815 662.99088 642.12305 663.29688 C 643.34842 663.60288 644.26646 663.45034 644.87891 662.83789 C 646.10368 665.90061 647.6353 666.20762 649.47266 663.75781 C 650.69765 666.82053 652.53457 667.12559 654.98438 664.67578 C 656.20928 667.12559 657.43329 667.73857 658.6582 666.51367 C 659.88356 666.51367 660.80357 665.28771 661.41602 662.83789 C 662.02852 656.71327 663.86547 649.82377 666.92773 642.16797 C 669.99 634.51221 671.21402 628.8466 670.60156 625.17188 C 670.60156 619.04721 669.68306 612.31048 667.8457 604.96094 C 666.00829 597.61136 662.94537 588.11722 658.6582 576.48047 C 664.17028 526.25846 665.39625 490.1249 662.33398 468.07617 C 665.90205 444.28959 668.31383 421.36888 669.57227 399.31445 C 671.21712 400.97719 678.91039 400.62288 692.65039 398.25391 C 687.75067 310.67163 670.90887 256.46828 642.12305 235.64453 C 631.07406 227.65164 620.34314 221.15775 609.92578 216.14258 L 612.72461 216.35352 L 700 9.6464844 L 682.54492 1.3789063 L 634.77344 94.166016 C 639.67316 72.729809 643.96005 58.948846 647.63477 52.824219 C 651.30953 46.69956 654.67796 41.799781 657.74023 38.125 C 666.31458 29.550529 670.29604 22.813783 669.68359 17.914063 C 669.07109 13.014344 665.39532 8.422001 658.6582 4.1347656 C 654.52408 1.3786792 650.6486 -5.6943749e-06 647.03125 1.1368684e-13 z M 651.23438 10.214844 C 652.52808 10.256712 653.77859 10.680516 654.98438 11.484375 C 659.8841 14.546673 658.35266 21.896373 650.39062 33.533203 C 640.59124 43.945065 634.77291 52.518747 632.93555 59.255859 C 631.09814 65.992972 628.80119 74.566655 626.04492 84.978516 C 623.28884 95.390408 617.01033 112.84716 607.21094 137.3457 L 531.87891 137.3457 C 538.61602 124.48396 545.65824 112.53998 553.00781 101.51563 C 571.9942 83.141714 586.08258 70.892205 595.26953 64.767578 C 604.45647 58.642952 611.80618 53.284885 617.31836 48.691406 C 622.83053 44.097928 628.95433 35.982533 635.69141 24.345703 C 641.43326 14.775973 646.61399 10.065313 651.23438 10.214844 z M 684.38281 12.402344 L 689.89453 13.320313 L 598.94336 210.83984 C 597.02301 210.27779 595.08996 209.74953 593.14453 209.25195 C 582.47369 205.66094 572.15726 203.73928 562.19531 203.49023 C 559.50927 203.53427 556.89931 203.59312 554.36523 203.66406 C 542.37642 203.17379 529.98147 203.72789 517.17969 205.32813 L 508.91211 150.20703 L 620.99219 150.20703 L 684.38281 12.402344 z M 164.66602 63.630859 C 172.94848 63.630859 179.57617 70.258547 179.57617 78.541016 C 179.57617 86.823484 172.94848 93.453125 164.66602 93.453125 C 156.38355 93.453125 149.75391 86.823484 149.75391 78.541016 C 149.75391 70.258547 156.38355 63.630859 164.66602 63.630859 z M 163.24414 103.46289 C 171.23401 103.31933 179.35755 107.10712 184.57617 114.47461 C 189.36021 121.22852 191.79852 130.09668 192.36133 145.29297 C 170.41114 145.29297 162.04946 142.08717 153.73047 156.49609 C 153.73047 151.99348 154.36907 143.9127 156.38867 139.87305 L 152.35352 119.82031 L 145.6875 115.97852 L 147.375 114.28906 L 146.27344 111.09766 C 150.89684 106.06449 157.0298 103.57455 163.24414 103.46289 z M 160.54492 105.63867 A 5.6879807 5.6879807 0 0 0 154.85547 111.32617 A 5.6879807 5.6879807 0 0 0 160.54492 117.01367 A 5.6879807 5.6879807 0 0 0 166.23242 111.32617 A 5.6879807 5.6879807 0 0 0 160.54492 105.63867 z M 170.25781 154.19531 L 191.51953 154.19531 C 192.21218 156.78031 187.0513 155.57668 182.83203 157.48633 C 169.21019 163.65159 150.55664 189.92509 150.55664 225.26172 C 150.55664 251.18712 160.99976 270.70758 176.83984 288.81055 L 173.91211 294.69336 C 162.57451 286.5951 158.73986 284.18631 144.37891 281.37891 C 140.92365 269.39346 138.0625 256.64 138.0625 238.18945 C 138.0625 200.36598 145.47637 174.27142 170.25781 154.19531 z M 562.19531 216.35352 C 586.69387 217.57842 611.19285 227.37804 635.69141 245.75195 C 660.18996 264.12586 674.88911 310.36651 679.78906 384.47461 L 670.60156 384.47461 L 669.68359 359.66992 C 668.45864 327.82182 639.67285 312.20396 583.32617 312.81641 L 583.32617 375.28711 L 554.8457 375.28711 L 554.8457 288.01172 C 575.66945 264.73808 578.11937 240.85205 562.19531 216.35352 z M 529.12305 218.18945 C 543.82217 218.18945 551.9376 227.98904 553.46875 247.58789 C 554.9999 267.18673 540.45325 280.0492 509.83008 286.17383 C 515.34225 289.23613 519.78185 293.98319 523.15039 300.41406 C 526.51898 306.84493 528.20312 313.42891 528.20312 320.16602 C 523.3034 322.00341 519.16932 321.08493 515.80078 317.41016 C 512.4322 313.73538 507.68713 305.15974 501.5625 291.68555 C 493.60045 267.18701 483.80086 255.55048 472.16406 256.77539 L 467.57031 256.77539 C 468.18279 251.87567 470.32521 250.65169 474 253.10156 C 475.83739 250.03923 479.81874 249.7318 485.94336 252.18164 C 480.43119 246.05702 477.67578 239.93321 477.67578 233.80859 C 481.35055 234.42104 483.49496 233.19513 484.10742 230.13281 C 485.33235 230.7453 489.46645 228.90832 496.50977 224.62109 C 503.5531 220.33382 514.42389 218.18945 529.12305 218.18945 z M 513.47656 225.05078 C 510.89273 225.06992 508.14553 225.23283 505.23633 225.53906 C 508.91111 227.37645 509.52409 230.1338 507.07422 233.80859 C 505.23686 230.13382 502.78693 228.29492 499.72461 228.29492 C 492.98749 228.29492 489.61914 232.58373 489.61914 241.1582 C 493.29395 244.22053 494.97812 246.97593 494.67188 249.42578 C 494.36564 251.87565 493.90542 253.40708 493.29297 254.01953 C 495.74282 256.4694 498.19274 263.81911 500.64258 276.06836 C 502.47999 276.06836 503.39844 275.1499 503.39844 273.3125 C 503.39844 261.06324 503.70587 253.10059 504.31836 249.42578 C 507.99314 242.07624 512.73825 238.24766 518.55664 237.94141 C 524.37505 237.63517 529.12209 239.62679 532.79688 243.91406 C 536.47166 248.2013 537.69756 253.25389 536.47266 259.07227 C 535.24772 264.89068 527.28506 271.16914 512.58594 277.90625 L 512.58594 279.74219 C 535.85954 273.00511 546.27212 261.67602 543.82227 245.75195 C 541.67865 231.8184 531.56339 224.91679 513.47656 225.05078 z M 499.72461 231.9707 C 503.39938 231.9707 505.23633 233.80766 505.23633 237.48242 C 505.23633 241.15719 503.39938 243.30156 499.72461 243.91406 C 497.88722 243.30156 495.74283 242.07568 493.29297 240.23828 C 493.29297 234.72611 495.43739 231.9707 499.72461 231.9707 z M 499.72461 232.88867 C 497.27475 233.50117 496.04883 235.03256 496.04883 237.48242 C 496.04883 239.93228 497.27475 241.1582 499.72461 241.1582 C 502.17447 241.1582 503.39844 239.93228 503.39844 237.48242 C 503.39844 235.03256 502.17447 233.50117 499.72461 232.88867 z M 497.88672 308.22266 C 499.11166 311.89744 501.25603 316.79726 504.31836 322.92188 L 496.04883 375.28711 L 476.75781 375.28711 C 477.37027 350.78857 484.41253 328.43396 497.88672 308.22266 z M 589.75586 321.08398 C 600.16776 320.47153 611.49875 321.38999 623.74805 323.83984 C 615.17356 347.72592 603.84257 363.95675 589.75586 372.53125 L 589.75586 321.08398 z M 510.74805 328.43359 C 516.26022 332.10837 522.53871 334.09809 529.58203 334.4043 C 536.62539 334.71054 542.5964 332.72082 547.49609 328.43359 L 547.49609 381.71875 C 539.53407 384.16856 531.72608 385.69806 524.07031 386.31055 C 516.4145 386.923 509.5231 385.3935 503.39844 381.71875 L 510.74805 328.43359 z M 619.1543 347.72656 L 609.9668 386.31055 L 604.45508 386.31055 L 605.375 369.77539 L 619.1543 347.72656 z M 599.86133 372.53125 L 598.02539 386.31055 L 587 386.31055 L 599.86133 372.53125 z M 476.75781 379.88086 L 496.04883 379.88086 L 496.04883 383.55469 L 476.75781 383.55469 L 476.75781 379.88086 z M 554.8457 379.88086 L 583.32617 379.88086 L 583.32617 383.55469 L 554.8457 383.55469 L 554.8457 379.88086 z M 670.60156 388.14844 L 679.78906 388.14844 L 679.78906 392.74219 L 670.60156 392.74219 L 670.60156 388.14844 z M 490.53711 394.58008 L 619.1543 394.58008 L 615.48047 401.92969 L 493.29297 401.92969 L 490.53711 394.58008 z M 495.13086 411.11523 L 612.72461 411.11523 L 609.04883 419.38477 L 497.88672 419.38477 L 495.13086 411.11523 z M 503.39844 428.57227 L 605.375 428.57227 C 603.5376 436.53432 601.08771 451.53923 598.02539 473.58789 L 505.23633 524.11523 C 507.68605 508.80367 508.45188 492.26733 507.5332 474.50586 C 506.61452 456.74443 505.23585 441.43401 503.39844 428.57227 z M 600.78125 482.77539 L 602.61914 511.25391 L 516.26172 543.4082 C 518.71158 536.67112 518.71158 531.15827 516.26172 526.87109 L 600.78125 482.77539 z M 600.78125 521.35938 C 603.84361 523.19678 606.2935 528.86231 608.13086 538.35547 C 609.96822 547.84869 610.88672 559.02692 610.88672 571.88867 L 612.72461 725.31055 L 587.91992 725.31055 C 549.94717 672.63868 524.52967 615.06696 511.66797 552.5957 L 600.78125 521.35938 z M 508.48047 529.85742 C 511.29403 529.85742 512.81543 531.92447 513.04492 536.05859 C 513.35116 541.57076 510.13555 545.55214 503.39844 548.00195 L 505.23633 530.54688 C 506.46126 530.08752 507.54262 529.85742 508.48047 529.85742 z M 503.39844 560.86328 C 513.81033 615.98501 538.00384 670.80132 575.97656 725.31055 L 474 725.31055 L 503.39844 560.86328 z M 473.08203 730.82227 L 615.48047 730.82227 L 615.48047 735.41602 L 471.24414 735.41602 L 473.08203 730.82227 z " />
</svg>
