<?xml version="1.0" encoding="UTF-8" standalone="no"?>
<svg
   width="1000"
   height="1000"
   version="1.1"
   id="svg1"
   sodipodi:docname="137ED.svg"
   inkscape:version="1.4.3 (0d15f75, 2025-12-25)"
   xmlns:inkscape="http://www.inkscape.org/namespaces/inkscape"
   xmlns:sodipodi="http://sodipodi.sourceforge.net/DTD/sodipodi-0.dtd"
   xmlns="http://www.w3.org/2000/svg"
   xmlns:svg="http://www.w3.org/2000/svg">
  <defs
     id="defs1" />
  <sodipodi:namedview
     id="namedview1"
     pagecolor="#ffffff"
     bordercolor="#666666"
     borderopacity="1.0"
     inkscape:showpageshadow="2"
     inkscape:pageopacity="0.0"
     inkscape:pagecheckerboard="0"
     inkscape:deskcolor="#d1d1d1"
     inkscape:zoom="0.3775"
     inkscape:cx="258.27815"
     inkscape:cy="573.50993"
     inkscape:window-width="1680"
     inkscape:window-height="998"
     inkscape:window-x="-8"
     inkscape:window-y="-8"
     inkscape:window-maximized="1"
     inkscape:current-layer="svg1"
     showguides="true">
    <sodipodi:guide
       position="0,1000"
       orientation="0,-1"
       id="guide1"
       inkscape:locked="false" />
    <sodipodi:guide
       position="0,0"
       orientation="0,-1"
       id="guide2"
       inkscape:locked="false" />
    <sodipodi:guide
       position="1503.5334,841.18786"
       orientation="0,-1"
       id="guide3"
       inkscape:locked="false" />
  </sodipodi:namedview>
  <path
     id="path5"
     style="fill:#000000;stroke:none;stroke-width:50.2397"
     d="M 599.42383 0.001953125 C 592.1327 -0.094664413 584.86521 3.619776 577.62305 11.146484 C 563.13874 26.200809 567.44648 52.257822 590.54297 89.314453 C 575.66718 88.927834 559.42083 86.033138 541.80469 80.628906 C 537.88993 91.823079 537.69475 102.82437 541.2168 113.63281 C 558.44148 108.2286 575.46956 106.29775 592.30273 107.8418 L 586.64258 176.85938 C 580.89167 177.21748 575.02806 177.79842 569.05469 178.60156 C 534.0201 183.3121 509.14424 208.92491 494.42383 255.44141 C 486.18044 266.0401 477.05288 280.46741 467.04297 298.7207 C 461.15483 311.08585 460.71381 318.0045 465.71875 319.47656 C 470.72367 320.94862 474.99248 323.15554 478.52539 326.09961 C 473.0518 330.66092 469.20279 336.6142 484.70898 337.58008 C 480.2046 338.94749 470.85733 344.25645 478.9668 348.62305 C 482.79411 350.68391 484.70898 357.01265 484.70898 367.61133 C 460.92247 397.06579 434.86612 408.69487 395.87305 403.38477 C 395.44262 367.78001 349.61478 387.96907 369.99805 415.80664 C 388.88527 441.601 475.73193 423.04512 502.37305 382.62695 C 514.73819 382.62695 523.86381 382.037 529.75195 380.85938 L 534.16992 409.12305 C 480.58763 409.12305 437.01372 422.37047 403.45117 448.86719 C 350.4577 445.74059 297.09395 453.54284 258.11328 459.16992 C 253.18465 430.84163 247.23845 395.13186 238.58398 356.93945 C 229.9295 318.74702 231.04693 293.9062 234.21094 277.9082 C 236.54016 266.13105 243.4488 254.21448 255.33594 247.66602 C 267.22312 241.1176 273.53853 231.31641 274.28125 218.26367 C 275.02395 205.21097 280.22381 185.01623 289.88086 157.67578 C 282.55922 154.70925 275.97481 159.21469 270.12695 171.19336 C 264.27905 183.17203 258.69731 192.91509 253.38281 200.42188 C 237.7654 204.60654 239.74775 190.42204 259.33008 157.86914 C 278.91238 125.31626 282.98918 107.71871 271.55859 105.07617 C 259.53884 124.92454 246.60736 140.71058 232.76562 152.43359 C 218.92391 164.15665 210.08552 194.38394 206.25 243.11914 C 192.12412 318.65412 193.02625 390.04732 192.81836 507.95312 C 231.215 520.0299 276.76504 519.3778 325.98633 515.2832 C 375.20759 511.18851 428.18141 514.81517 437.01367 523.05859 C 437.60249 547.20007 442.1653 566.48417 450.70312 580.91016 C 459.24095 595.33611 479.99696 659.95813 512.9707 774.77734 L 360.17188 661.72461 C 337.20804 641.11602 317.19091 630.8125 300.11523 630.8125 C 251.24347 631.40132 230.04648 651.42043 236.52344 690.87109 L 262.13477 875.46484 C 225.62816 884.8859 208.55291 912.85458 210.9082 959.37109 C 193.83254 961.72629 178.37623 965.99516 164.53906 972.17773 C 150.70189 978.36017 136.71755 981.01224 122.58594 980.12891 C 108.45435 979.24567 99.328749 985.86838 95.207031 1000 L 830.93359 1000 C 815.03555 971.14802 793.24861 959.66656 765.57422 965.55469 C 737.89984 971.44292 719.20373 959.07741 709.48828 928.45898 C 699.77278 897.8405 683.1386 891.65879 659.58594 909.91211 C 681.96074 866.33975 682.8449 820.99987 662.23633 773.89453 C 662.23633 675.20604 674.21569 594.83324 698.44922 522.17578 C 707.2815 514.52114 761.88635 516.59504 811.06641 522.33594 C 860.24645 528.07676 903.99246 525.81124 942.30469 515.53906 C 955.9007 428.05895 948.07364 325.54492 942.0918 248.36328 C 942.72512 199.96616 936.94805 169.09177 924.76172 155.74023 C 912.57542 142.38874 901.499 125.50151 891.5293 105.07617 C 879.8839 106.4998 882.08107 124.42854 898.125 158.86328 C 914.16885 193.29802 914.64627 207.61332 899.55664 201.80664 C 895.06251 193.78175 890.42168 183.33239 885.63281 170.46094 C 880.84392 157.58951 874.88799 152.58573 867.76562 155.45117 C 874.59645 183.07797 877.66704 203.56435 876.97656 216.91211 C 876.2861 230.25987 881.36133 240.79161 892.20312 248.50195 C 903.04476 256.21235 909.64394 268.25002 911.60938 279.4043 C 914.20764 294.14997 912.34849 323.26969 901.93164 361.01953 C 891.51482 398.76935 885.1737 435.37667 880.21875 464.61328 C 841.50337 457.38333 794.02382 446.45007 731.12695 444.45117 C 723.37725 434.33351 714.25034 426.06508 703.74609 419.64648 L 703.74609 250.14258 C 703.74609 218.9353 690.05767 198.03228 662.67773 187.43359 C 646.27713 181.08498 628.50284 177.48257 609.35547 176.62695 L 605.22266 107.84375 C 624.4047 106.6869 641.4328 109.58072 656.30859 116.5293 C 660.22335 104.5628 660.22335 92.981257 656.30859 81.787109 C 640.64984 87.963051 624.40347 90.280405 607.57031 88.736328 C 631.45004 52.837751 636.05115 27.166904 621.37109 11.726562 C 614.03107 4.0063953 606.71496 0.098570663 599.42383 0.001953125 z M 599.34961 17.517578 C 602.97069 17.517578 606.59189 19.446632 610.21289 23.306641 C 617.45519 31.02696 613.63947 49.363853 598.76367 78.314453 C 584.67084 49.363853 581.244 31.02696 588.48633 23.306641 C 592.10733 19.446632 595.72853 17.517578 599.34961 17.517578 z M 596.19141 192.60938 C 609.6572 193.09607 624.75441 195.49311 641.48047 199.79883 C 671.21573 207.45343 686.08203 224.8246 686.08203 251.91016 L 686.08203 489.36719 L 615.69141 489.36719 L 615.69141 329.09961 C 615.69141 321.20114 621.32157 311.37183 633.08984 299.60352 C 663.37399 269.31935 650.73494 221.20185 593.34375 249.25977 C 583.9227 239.24992 562.43166 231.59427 528.86914 226.29492 C 535.34612 209.80808 548.29951 199.35556 567.73047 194.93945 C 572.58821 193.83541 577.76779 193.10925 583.26953 192.75977 C 587.39584 192.49767 591.70281 192.44714 596.19141 192.60938 z M 520.03711 242.19336 C 547.71144 243.95983 570.08642 251.02545 587.16211 263.39062 C 586.57328 273.40048 590.84208 273.69452 599.96875 264.27344 C 618.26628 245.38573 645.94095 255.93256 627.33008 280.46289 C 605.51979 309.21026 596.80469 302.91314 596.80469 329.39453 L 596.80469 507.10156 L 679.27539 507.10156 C 646.6779 593.06621 637.51168 684.40136 633.97266 775.66016 L 550.95117 794.20898 C 507.96758 654.65949 482.20581 579.14402 473.66797 567.66211 C 465.13013 556.18018 462.62726 521.88082 466.16016 464.76562 C 464.98254 445.33472 480.29179 435.76612 512.08789 436.06055 C 543.88395 436.35495 559.7832 425.9044 559.7832 404.70703 C 559.7832 378.79912 548.88777 367.02169 527.10156 369.37695 C 505.31534 371.73223 496.18976 364.66656 499.72266 348.17969 C 512.67664 341.11391 517.23943 335.81609 513.41211 332.2832 C 509.58481 328.75028 502.66613 326.6884 492.65625 326.09961 C 492.65625 320.21143 487.65248 315.2057 477.64258 311.08398 C 487.65248 288.70897 497.368 273.10571 506.78906 264.27344 C 516.21013 259.56296 526.0727 259.71189 536.37695 264.7168 C 546.68126 269.72175 556.83779 273.10656 566.84766 274.87305 L 566.84766 267.80664 C 560.37073 267.21782 551.98007 264.12502 541.67578 258.53125 C 531.37151 252.9375 520.919 252.20248 510.32031 256.32422 C 514.442 249.84722 517.68181 245.13747 520.03711 242.19336 z M 522.58008 265.76953 C 519.04302 265.82703 515.4961 266.68656 512.08789 268.69141 L 502.37305 276.63867 L 502.37305 283.70508 L 506.78906 283.70508 C 519.15419 290.18204 533.28555 290.18204 549.18359 283.70508 L 564.19727 287.23828 L 564.19727 279.28906 L 550.06641 277.52344 C 543.70682 272.63145 533.19124 265.5971 522.58008 265.76953 z M 519.1543 271.33984 C 517.38784 274.28391 517.38784 277.81577 519.1543 281.9375 L 510.32031 277.52344 C 511.49796 275.16819 514.4438 273.1063 519.1543 271.33984 z M 531.51953 273.10547 L 543.88477 280.17188 C 538.58541 281.34951 533.57965 281.9375 528.86914 281.9375 C 532.99082 280.17107 533.87479 277.22717 531.51953 273.10547 z M 504.92578 309.18359 C 504.81621 309.19237 504.70083 309.23782 504.58008 309.31836 C 503.69689 309.90714 503.25586 311.23211 503.25586 313.29297 C 503.25586 315.35382 502.37189 316.67875 500.60547 317.26758 C 498.839 317.85642 496.92607 316.82542 494.86523 314.17578 C 492.80436 311.52609 491.18349 310.20117 490.00586 310.20117 C 488.82823 310.20117 487.94815 310.64412 487.35938 311.52734 C 486.77053 312.41057 486.77052 313.7355 487.35938 315.50195 C 489.12579 313.7355 491.33077 314.47052 493.98047 317.70898 C 496.63013 320.94748 499.42895 321.83139 502.37305 320.35938 C 505.31713 318.88732 506.6421 316.53145 506.34766 313.29297 C 506.09927 310.5605 505.64024 309.19134 504.97266 309.18359 C 504.9572 309.18334 504.94143 309.18234 504.92578 309.18359 z M 489.30469 330.22656 C 489.68774 330.21506 510.89868 332.58766 509.4375 334.04883 L 488.24219 334.04883 C 485.10131 333.0018 485.69631 330.33589 489.30469 330.22656 z M 508.55469 335.81641 C 505.96607 338.40506 497.79064 341.81845 493.54102 342.88086 C 487.43424 342.88086 488.32985 341.02553 490.89062 338.46484 L 508.55469 335.81641 z M 296.58008 685.57227 L 334.56055 685.57227 L 504.13867 804.80664 L 314.24414 861.33398 C 318.36586 773.60034 312.47812 715.01311 296.58008 685.57227 z M 639.27148 795.97461 C 652.22546 846.02401 644.27774 889.59796 615.42578 926.69336 C 572.44219 952.01251 520.4777 955.84026 459.53516 938.17578 C 398.59274 920.51128 340.74234 924.33711 285.98242 949.65625 C 291.28174 929.63645 336.62163 897.54598 422 853.38477 L 639.27148 795.97461 z " />
</svg>
