<?xml version="1.0" encoding="UTF-8" standalone="no"?>
<svg
   width="900"
   height="1000"
   version="1.1"
   id="svg1"
   sodipodi:docname="137EB.svg"
   inkscape:version="1.4.3 (0d15f75, 2025-12-25)"
   xmlns:inkscape="http://www.inkscape.org/namespaces/inkscape"
   xmlns:sodipodi="http://sodipodi.sourceforge.net/DTD/sodipodi-0.dtd"
   xmlns="http://www.w3.org/2000/svg"
   xmlns:svg="http://www.w3.org/2000/svg">
  <defs
     id="defs1" />
  <sodipodi:namedview
     id="namedview1"
     pagecolor="#ffffff"
     bordercolor="#666666"
     borderopacity="1.0"
     inkscape:showpageshadow="2"
     inkscape:pageopacity="0.0"
     inkscape:pagecheckerboard="0"
     inkscape:deskcolor="#d1d1d1"
     showguides="false"
     inkscape:zoom="0.53386562"
     inkscape:cx="145.16762"
     inkscape:cy="356.83137"
     inkscape:window-width="1680"
     inkscape:window-height="998"
     inkscape:window-x="-8"
     inkscape:window-y="-8"
     inkscape:window-maximized="1"
     inkscape:current-layer="svg1">
    <sodipodi:guide
       position="0,0"
       orientation="0,-1"
       id="guide1"
       inkscape:locked="false" />
  </sodipodi:namedview>
  <path
     id="path1"
     style="fill:#000000;stroke:none;stroke-width:1"
     d="M 557.43164 0 C 535.98182 0 525.25977 15.548923 525.25977 46.501953 L 525.25977 82.279297 L 509.79102 82.279297 C 503.81757 82.279297 500.77539 86.483391 500.77539 94.900391 C 500.77539 103.31747 503.81757 107.52148 509.79102 107.52148 L 525.25977 107.52148 L 525.25977 146.08398 C 525.07648 146.07863 524.98957 146.12368 524.99023 146.20898 C 521.00009 146.67491 516.97277 147.2872 512.90625 148.04688 C 481.97557 153.82514 460.05089 178.80741 447.13477 222.99414 C 438.97723 232.51123 429.80043 246.10654 419.60352 263.78125 C 414.84493 274.65797 415.0148 280.94701 420.11328 282.64648 C 425.21176 284.34597 429.12067 286.55425 431.83984 289.27344 C 424.53146 293.65843 427.49699 299.17263 433.79883 300.47461 C 433.34612 300.84372 432.35325 301.69969 430.82031 303.04102 C 428.10114 305.42027 428.61072 307.62859 432.34961 309.66797 C 436.08848 311.70735 437.78719 317.48482 437.44727 327.00195 C 437.10739 336.51909 444.41559 341.2793 459.37109 341.2793 C 466.8488 341.95908 473.30771 341.61935 478.74609 340.25977 L 482.82422 362.69141 C 448.15466 365.41058 414.84489 377.64694 382.89453 399.40039 L 381.875 398.38086 C 326.13178 394.30205 270.04797 396.68217 213.625 405.51953 C 214.3048 381.72668 209.20678 330.06144 198.33008 250.52539 C 212.60577 204.97913 212.60577 167.9303 198.33008 139.37891 C 189.49273 140.73848 186.60301 148.04674 189.66211 161.30273 C 192.72116 174.55876 189.15393 190.36431 178.95703 208.71875 C 170.11969 189.00467 167.06012 172.34981 169.7793 158.75391 C 172.49847 145.158 177.9362 132.92162 186.09375 122.04492 C 189.49273 119.3257 187.62417 115.75653 180.48633 111.33789 C 173.34848 106.91922 167.39918 106.40964 162.64062 109.80859 C 140.20736 151.2761 132.21967 180.84676 138.67773 198.52148 C 145.13579 216.19612 153.80295 238.62851 164.67969 265.82031 L 157.54297 380.02734 C 153.4642 428.97257 169.09985 453.78506 204.44922 454.46484 C 239.79854 455.14464 301.99956 457.52275 391.05273 461.60156 C 395.81133 491.51253 414.50462 534.68053 447.13477 591.10352 C 452.57315 633.93065 451.55394 677.77806 444.07617 722.64453 C 362.50075 636.31052 308.11759 590.76246 280.92578 586.00391 C 251.69455 590.76246 232.65958 601.30012 223.82227 617.61523 C 197.99004 675.39783 176.57692 769.20988 159.58203 899.05078 C 153.46385 932.36065 141.05766 949.69501 122.36328 951.05469 C 103.66892 952.41435 71.887954 958.87321 27.021484 970.42969 C -9.0076716 970.42969 -9.0076716 980.28601 27.021484 1000 L 212.60547 1000 C 221.44281 992.52228 223.14347 976.54686 217.70508 952.07422 C 212.26674 927.60162 219.06338 896.33221 238.09766 858.26367 C 256.54354 821.37186 266.05287 782.56415 266.62305 741.8418 L 265.63086 883.75586 C 249.3158 898.71132 239.11785 910.26628 235.03906 918.42383 C 226.20174 934.7389 228.41199 952.92456 241.66797 972.97852 C 254.924 993.03248 272.08848 1000 293.16211 1000 C 316.27516 1000 361.82125 987.59471 429.80078 956.66406 C 497.78029 925.73337 548.08464 906.52854 580.71484 899.05078 C 606.54706 928.28196 598.38949 955.47321 556.24219 976.54688 C 527.69081 976.54688 527.69081 984.36468 556.24219 1000 L 586.83398 1000 C 609.94699 997.28075 621.84164 990.82192 622.52148 980.625 C 629.99924 948.67469 640.19721 904.82855 653.11328 853.16406 C 653.11328 833.45003 643.25701 823.59375 623.54297 823.59375 C 639.17833 800.4807 640.19744 762.58064 626.60156 709.89648 C 613.00563 657.21242 616.06521 573.76812 635.7793 459.5625 C 726.19208 456.16334 789.07254 454.29478 824.42188 453.95508 C 859.77123 453.61515 875.40693 428.63284 871.32812 379.00781 L 865.20898 265.82031 C 875.40588 238.62851 883.73335 216.02629 890.19141 198.01172 C 896.64945 179.99713 889.00149 150.59631 867.24805 109.80859 C 861.80968 106.40964 855.52262 106.74935 848.38477 110.82812 C 841.24673 114.90689 839.37623 118.6459 842.77539 122.04492 C 850.93279 132.92162 856.37248 144.98809 859.0918 158.24414 C 861.81099 171.50012 859.09109 187.98515 850.93359 207.69922 C 840.73665 189.34476 837.16751 173.70913 840.22656 160.79297 C 843.28568 147.87689 840.39594 140.39881 831.55859 138.35938 C 817.28289 167.5906 817.28289 204.63938 831.55859 249.50586 C 820.68187 329.04191 815.24414 380.70716 815.24414 404.5 C 758.82116 395.66266 708.5168 392.94283 664.33008 396.3418 C 636.45848 374.58836 605.86662 361.33282 572.55664 356.57422 L 571.53711 318.8457 C 588.53202 321.56487 604.16771 315.10598 618.44336 299.4707 C 632.71903 283.83537 639.51767 256.64482 638.83789 217.89648 C 638.83789 187.9855 625.58232 167.4217 599.07031 156.20508 C 584.64309 150.10127 569.55993 146.51258 553.82422 145.44141 L 553.82422 47.259766 C 553.82422 34.769946 556.46224 28.470703 561.89258 28.470703 C 567.32293 28.470693 570.05273 34.769946 570.05273 47.259766 L 588.84375 47.259766 C 589.38676 15.763706 578.88164 -9.4739031e-15 557.43164 0 z M 524.95117 163.88477 C 540.374 162.92881 558.28189 165.12707 578.67578 170.48047 C 605.86759 177.61832 619.46289 193.76364 619.46289 218.91602 C 616.0639 252.22602 608.07625 275.16795 595.5 287.74414 C 582.92383 300.32037 572.21821 302.87036 563.38086 295.39258 C 553.18393 289.27446 555.39218 278.90662 570.00781 264.29102 C 597.83918 236.45971 585.83028 190.35632 532.78906 216.87695 C 524.63151 207.35979 504.91705 200.22148 473.64648 195.46289 C 479.76461 179.82762 492.00098 169.96938 510.35547 165.89062 C 514.94407 164.87094 519.81023 164.20342 524.95117 163.88477 z M 466.50977 209.73828 C 491.66219 211.09785 512.05612 217.55481 527.69141 229.11133 C 527.01161 238.62848 530.92049 238.97016 539.41797 230.13281 C 556.56738 212.29744 580.06044 222.06263 567.96875 246.95703 C 562.19053 258.85347 554.54253 268.87957 545.02539 277.03711 C 535.50825 285.19467 533.13012 293.35222 537.88867 301.50977 C 542.64727 309.6673 546.3863 316.80565 549.10547 322.92383 C 548.42569 349.43583 551.14355 366.09074 557.26172 372.88867 C 563.37985 379.68665 575.9558 383.9353 594.99023 385.63477 C 614.02451 387.33425 623.54297 395.66171 623.54297 410.61719 C 616.74504 424.89289 609.09708 453.95398 600.59961 497.80078 C 592.10217 541.64757 587.00415 572.23942 585.30469 589.57422 C 583.60502 606.90896 583.77507 636.64954 585.81445 678.79688 L 470.58789 728.76172 C 474.66668 672.33871 473.98721 626.11314 468.54883 590.08398 C 437.95806 527.54285 422.66211 469.76034 422.66211 416.73633 C 422.66211 398.38183 435.57793 388.86338 461.41016 388.18359 C 492.68073 388.18359 507.97665 379.68628 507.29688 362.69141 C 505.93729 337.53897 494.72011 326.15391 473.64648 328.5332 C 452.5728 330.91245 443.73581 324.62346 447.13477 309.66797 C 460.05089 302.87004 464.63926 297.94189 460.90039 294.88281 C 457.16155 291.82373 450.53472 289.95323 441.01758 289.27344 C 441.01758 283.83504 436.59907 279.07682 427.76172 274.99805 C 436.59907 253.92443 445.0964 239.30989 453.25391 231.15234 C 462.09128 226.39378 471.26803 226.39378 480.78516 231.15234 C 490.30229 235.91091 499.81879 238.96855 509.33594 240.32812 L 509.33594 234.21094 C 503.2178 234.21094 495.39996 231.49106 485.88281 226.05273 C 476.36567 220.61435 466.50939 219.93488 456.3125 224.01367 C 460.39126 217.8955 463.79059 213.13724 466.50977 209.73828 z M 556.83398 225.79688 C 555.47839 225.82859 553.92861 226.07236 552.16406 226.5625 C 539.17054 230.1719 526.75847 251.01145 530.75 257.66406 C 521.98384 262.6733 517.60348 271.59687 527.18164 276.01758 C 537.07257 280.58267 558.78193 254.92306 562.87109 244.4082 C 566.24299 235.73745 566.32317 225.5749 556.83398 225.79688 z M 467.9707 232.52148 C 464.5319 232.6277 461.32567 233.53098 458.35156 235.23047 L 450.19531 243.38867 L 450.19531 249.50586 L 453.25391 248.48633 C 465.49023 254.60451 478.74578 254.60451 493.02148 248.48633 L 507.29688 252.56445 L 507.29688 244.4082 L 494.04102 243.38867 C 484.2265 235.91092 475.53608 232.28781 467.9707 232.52148 z M 552.92578 233.9082 C 556.25844 233.74088 558.34154 235.94861 557.77148 238.79883 C 555.63062 249.50337 546.65481 261.00154 539.41797 264.29102 C 535.6791 265.99052 535.6791 264.29183 539.41797 259.19336 C 543.15682 254.09488 543.15682 252.39621 539.41797 254.0957 C 535.6791 255.79521 534.82979 254.43429 536.86914 250.01562 C 542.29266 238.26483 548.64093 234.12334 552.92578 233.9082 z M 466.50977 237.26953 C 463.79059 240.66856 463.79059 243.7281 466.50977 246.44727 C 463.11079 245.76748 460.05124 244.74824 457.33203 243.38867 C 458.01185 240.6695 461.07142 238.62916 466.50977 237.26953 z M 475.6875 239.30859 L 487.92383 246.44727 C 483.16525 247.12705 478.74479 247.4668 474.66602 247.4668 C 478.06504 245.42743 478.40673 242.70756 475.6875 239.30859 z M 530.75 264.80078 C 534.14901 266.84015 534.48875 268.88053 531.76953 270.91992 C 529.05037 272.95929 527.35168 272.95929 526.67188 270.91992 C 525.99206 268.88053 527.35104 266.84015 530.75 264.80078 z M 451.33398 273.3125 C 450.70264 273.34808 450.35584 274.9418 450.70508 277.03711 C 451.32833 280.77676 447.49669 282.81862 443.05664 277.54688 C 438.69035 272.36272 435.56817 272.21606 435.39648 278.375 C 437.43589 276.33559 439.31794 277.71821 442.03711 281.11719 C 448.05025 288.6337 454.48524 281.96205 453.25391 277.03711 C 452.57535 274.32285 451.8571 273.28302 451.33398 273.3125 z M 438.25 292.72852 C 438.9073 292.7143 439.65855 292.74938 440.50781 292.84375 C 443.56688 293.18362 447.13608 293.69325 451.21484 294.37305 C 455.29361 295.05283 456.99225 295.73226 456.3125 296.41211 L 436.9375 296.41211 C 433.65411 295.31755 433.64889 292.82805 438.25 292.72852 z M 456.3125 298.45117 C 453.28732 300.46793 446.57445 304.57031 442.03711 304.57031 C 438.06305 304.57031 435.51505 303.95362 438.97852 300.49023 L 456.3125 298.45117 z M 286.02344 615.57617 C 317.9738 629.85186 364.8808 674.03897 426.74219 748.13672 C 383.23531 778.04769 336.32828 815.77602 286.02344 861.32227 L 286.02344 615.57617 z M 596.00977 696.13086 C 606.88653 726.72164 612.32617 755.27314 612.32617 781.78516 C 612.32617 808.29717 603.99876 825.9732 587.34375 834.81055 C 570.68877 843.64791 540.94622 855.88425 498.11914 871.51953 C 433.53859 862.00237 373.03823 888.1738 316.61523 950.03516 C 321.37381 914.68584 358.76237 855.20463 428.78125 771.58984 L 596.00977 696.13086 z " />
</svg>
