<?xml version="1.0" encoding="UTF-8" standalone="no"?>
<svg
   width="900"
   height="1000"
   version="1.1"
   id="svg1"
   sodipodi:docname="137EA.svg"
   inkscape:version="1.4.3 (0d15f75, 2025-12-25)"
   xmlns:inkscape="http://www.inkscape.org/namespaces/inkscape"
   xmlns:sodipodi="http://sodipodi.sourceforge.net/DTD/sodipodi-0.dtd"
   xmlns="http://www.w3.org/2000/svg"
   xmlns:svg="http://www.w3.org/2000/svg">
  <defs
     id="defs1" />
  <sodipodi:namedview
     id="namedview1"
     pagecolor="#ffffff"
     bordercolor="#666666"
     borderopacity="1.0"
     inkscape:showpageshadow="2"
     inkscape:pageopacity="0.0"
     inkscape:pagecheckerboard="0"
     inkscape:deskcolor="#d1d1d1"
     showguides="true"
     inkscape:zoom="0.3775"
     inkscape:cx="798.6755"
     inkscape:cy="170.86093"
     inkscape:window-width="1680"
     inkscape:window-height="998"
     inkscape:window-x="-8"
     inkscape:window-y="-8"
     inkscape:window-maximized="1"
     inkscape:current-layer="svg1">
    <sodipodi:guide
       position="0,0"
       orientation="0,-1"
       id="guide1"
       inkscape:locked="false" />
  </sodipodi:namedview>
  <path
     id="path6"
     style="fill:#000000;stroke:none;stroke-width:1.09559"
     d="M 597.66797 0 C 574.16767 0 562.42188 17.035311 562.42188 50.947266 L 562.42188 90.144531 L 545.47461 90.144531 C 538.93013 90.144531 535.59766 94.751043 535.59766 103.97266 C 535.59766 113.19437 538.93013 117.80078 545.47461 117.80078 L 562.42188 117.80078 L 562.42188 160.04883 C 562.22081 160.04295 562.12596 160.09185 562.12695 160.18555 C 557.75565 160.69597 553.34169 161.36697 548.88672 162.19922 C 514.99925 168.52985 490.97895 195.89984 476.82812 244.31055 C 467.89078 254.73742 457.83769 269.63374 446.66602 288.99805 C 441.45254 300.91452 441.63875 307.80409 447.22461 309.66602 C 452.81047 311.52797 457.09316 313.94665 460.07227 316.92578 C 452.06525 321.72995 455.31254 327.77083 462.2168 329.19727 C 461.72081 329.60166 460.63456 330.54022 458.95508 332.00977 C 455.97597 334.61646 456.53455 337.0352 460.63086 339.26953 C 464.72714 341.50386 466.58725 347.83481 466.21484 358.26172 C 465.84247 368.68865 473.84922 373.9043 490.23438 373.9043 C 498.42692 374.64907 505.50268 374.27666 511.46094 372.78711 L 515.92969 397.36328 C 477.94593 400.34239 441.45189 413.74713 406.44727 437.58008 L 405.33008 436.46289 C 344.25814 431.99417 282.81276 434.603 220.99609 444.28516 C 221.74087 418.21785 216.15668 378.36969 204.24023 291.23047 C 216.15673 261.4393 225.65114 236.86228 232.72656 217.49805 C 239.80197 198.13374 231.0504 165.73625 206.47266 120.30469 C 201.25921 116.58082 194.74206 117.1394 186.92188 121.98047 C 179.10171 126.82151 177.05539 130.73178 180.7793 133.71094 C 189.71666 145.62739 195.67323 159.03409 198.65234 173.92969 C 201.63146 188.82528 198.2798 207.07324 188.59766 228.67188 C 177.426 208.56286 173.51767 191.24589 176.86914 176.72266 C 180.22067 162.19948 177.05519 154.19266 167.37305 152.70312 C 151.73269 183.98386 151.73269 224.5744 167.37305 274.47461 L 159.55273 416.35547 C 155.08405 469.97957 172.2148 497.16344 210.94336 497.9082 C 249.67186 498.65298 317.81865 501.2598 415.38477 505.72852 C 420.59827 538.4988 441.07874 585.79269 476.82812 647.60938 C 481.95261 687.96455 482.1913 732.26398 476.94531 775.14453 L 363.07227 654.93555 C 339.64754 633.91333 319.227 623.40234 301.80859 623.40234 C 251.95594 624.00299 230.33445 644.4255 236.94141 684.66797 L 263.06641 872.9668 C 225.82707 882.57695 208.40992 911.10651 210.8125 958.55664 C 193.3941 960.95911 177.62663 965.31443 163.51172 971.62109 C 149.39684 977.92762 135.13204 980.62958 120.7168 979.72852 C 106.30158 978.82756 96.993505 985.58471 92.789062 1000 L 843.28125 1000 C 827.06413 970.5689 804.83922 958.85697 776.60938 964.86328 C 748.37955 970.86969 729.31084 958.2564 719.40039 927.02344 C 709.48989 895.79042 692.52148 889.48384 668.49609 908.10352 C 691.1245 864.0373 692.20418 818.20042 671.73438 770.5918 C 658.85694 712.59021 662.7805 623.55814 683.50586 503.49414 C 782.56156 499.77004 851.45311 497.72178 890.18164 497.34961 C 928.91018 496.97718 946.04099 469.60717 941.57227 415.23828 L 934.86719 273.35742 C 950.50757 224.20197 950.50757 183.6115 934.86719 151.58594 C 925.18505 153.82033 922.01953 162.01328 925.37109 176.16406 C 928.72256 190.31493 924.81233 207.44565 913.64062 227.55469 C 904.70332 205.95607 901.72399 187.89426 904.70312 173.37109 C 907.68239 158.84784 913.64094 145.62739 922.57812 133.71094 C 926.30222 129.98699 924.25399 125.89056 916.43359 121.42188 C 912.5235 119.18755 908.84695 117.97721 905.40234 117.79102 C 901.95771 117.60482 898.74671 118.44276 895.76758 120.30469 C 871.93464 164.99147 863.55547 197.20277 870.63086 216.93945 C 877.70628 236.67611 886.82833 261.4393 898 291.23047 C 886.08353 378.36969 880.12695 417.10067 880.12695 443.16797 C 818.31027 433.48583 763.19782 430.50658 714.78711 434.23047 C 684.25116 410.39753 650.73445 395.87365 614.24023 390.66016 L 613.12305 349.32617 C 631.74257 352.30528 648.87335 345.22758 664.51367 328.09766 C 680.15401 310.96768 687.60219 281.17901 686.85742 238.72656 C 686.85742 205.95627 672.33546 183.42558 643.28906 171.13672 C 627.48242 164.44931 610.95706 160.51938 593.7168 159.3457 L 593.7168 51.777344 C 593.7168 38.093572 596.60524 31.191406 602.55469 31.191406 C 608.50415 31.191395 611.49609 38.093572 611.49609 51.777344 L 632.08398 51.777344 C 632.6789 17.270448 621.16846 4.7369516e-15 597.66797 0 z M 575.26758 179.41406 C 588.96148 179.92451 604.18579 182.37848 620.94336 186.77734 C 650.73455 194.59753 665.63086 212.28695 665.63086 239.84375 C 661.90694 276.33799 653.15541 301.4716 639.37695 315.25 C 625.59857 329.02844 613.86965 331.82347 604.1875 323.63086 C 593.0158 316.92788 595.43447 305.56941 611.44727 289.55664 C 641.93915 259.06482 628.78157 208.55353 570.66992 237.60938 C 561.73256 227.18242 540.13485 219.36192 505.875 214.14844 C 512.57798 197.01853 525.98273 186.21671 546.0918 181.74805 C 551.11904 180.63089 556.4516 179.89989 562.08398 179.55078 C 566.30827 179.28895 570.70294 179.24391 575.26758 179.41406 z M 498.05469 229.78711 C 525.61153 231.27665 547.95601 238.35242 565.08594 251.01367 C 564.34115 261.4406 568.6238 261.81496 577.93359 252.13281 C 596.72238 232.59248 622.46048 243.2903 609.21289 270.56445 C 602.88231 283.59812 594.5031 294.58218 584.07617 303.51953 C 573.64925 312.45691 571.04437 321.39467 576.25781 330.33203 C 581.4713 339.26937 585.56777 347.08993 588.54688 353.79297 C 587.8021 382.83936 590.77939 401.08739 597.48242 408.53516 C 604.18541 415.98299 617.96435 420.63807 638.81836 422.5 C 659.6722 424.36194 670.09961 433.48401 670.09961 449.86914 C 662.65184 465.50952 654.27267 497.34842 644.96289 545.38672 C 635.65314 593.425 630.06894 626.94169 628.20703 645.93359 C 626.58724 662.45369 629.46428 723.19874 641.6582 771.31836 L 502.99219 802.64062 C 507.46089 740.82391 506.24732 685.96553 500.28906 646.49219 C 466.77399 577.9725 450.01562 514.66701 450.01562 456.57422 C 450.01562 436.46514 464.16712 426.0358 492.46875 425.29102 C 526.72861 425.29102 543.48694 415.98276 542.74219 397.36328 C 541.25263 369.80642 528.96315 357.33272 505.875 359.93945 C 482.78681 362.54614 473.10425 355.65467 476.82812 339.26953 C 490.97895 331.82176 496.00645 326.42378 491.91016 323.07227 C 487.81391 319.72076 480.55387 317.67056 470.12695 316.92578 C 470.12695 310.9675 465.28567 305.75579 455.60352 301.28711 C 465.28567 278.19898 474.59588 262.18736 483.5332 253.25 C 493.21537 248.03655 503.2684 248.03655 513.69531 253.25 C 524.12222 258.46346 534.54963 261.81319 544.97656 263.30273 L 544.97656 256.59961 C 538.27357 256.59961 529.70819 253.62031 519.28125 247.66211 C 508.85433 241.70385 498.05446 240.95903 486.88281 245.42773 C 491.35147 238.72469 495.07557 233.51099 498.05469 229.78711 z M 597.01367 247.38086 C 595.52849 247.41556 593.83167 247.6837 591.89844 248.2207 C 577.66282 252.17514 564.06441 275.00636 568.4375 282.29492 C 558.83335 287.78302 554.03356 297.55904 564.52734 302.40234 C 575.36378 307.40383 599.14885 279.2915 603.62891 267.77148 C 607.32314 258.27186 607.40997 247.13766 597.01367 247.38086 z M 499.65625 254.75 C 495.88873 254.86638 492.37561 255.85484 489.11719 257.7168 L 480.18164 266.6543 L 480.18164 273.35742 L 483.5332 272.24023 C 496.93924 278.94327 511.46119 278.94327 527.10156 272.24023 L 542.74219 276.70898 L 542.74219 267.77148 L 528.21875 266.6543 C 517.46602 258.46172 507.94484 254.49399 499.65625 254.75 z M 593.40039 256.26367 C 596.65737 256.3898 598.62653 258.69943 598.04102 261.62695 C 595.6955 273.35478 585.86223 285.95271 577.93359 289.55664 C 573.83731 291.4186 573.83731 289.55656 577.93359 283.9707 C 582.02985 278.38484 582.02985 276.52282 577.93359 278.38477 C 573.83731 280.24674 572.90633 278.75709 575.14062 273.91602 C 581.08259 261.04192 588.03796 256.50329 592.73242 256.26758 C 592.96062 256.25612 593.18326 256.25526 593.40039 256.26367 z M 498.05469 259.95117 C 495.07557 263.67512 495.07557 267.02676 498.05469 270.00586 C 494.33079 269.26109 490.97915 268.14384 488 266.6543 C 488.74481 263.67519 492.09646 261.44077 498.05469 259.95117 z M 508.11133 262.18555 L 521.51758 270.00586 C 516.3041 270.75063 511.46086 271.12305 506.99219 271.12305 C 510.71613 268.88872 511.09051 265.90944 508.11133 262.18555 z M 568.4375 290.11328 C 572.16144 292.3476 572.53385 294.58402 569.55469 296.81836 C 566.5756 299.05269 564.71353 299.05269 563.96875 296.81836 C 563.22394 294.58402 564.71362 292.3476 568.4375 290.11328 z M 481.42969 299.43945 C 480.738 299.47845 480.35761 301.22392 480.74023 303.51953 C 481.42306 307.61667 477.22582 309.85381 472.36133 304.07812 C 467.57765 298.39839 464.15686 298.23863 463.96875 304.98633 C 466.20312 302.75196 468.26503 304.26633 471.24414 307.99023 C 477.8321 316.22528 484.88223 308.91527 483.5332 303.51953 C 482.78977 300.5458 482.00282 299.40715 481.42969 299.43945 z M 467.09375 320.71094 C 467.81389 320.69534 468.63791 320.73455 469.56836 320.83789 C 472.91985 321.21025 476.83017 321.76889 481.29883 322.51367 C 485.76751 323.25844 487.62754 324.00321 486.88281 324.74805 L 465.65625 324.74805 C 462.05898 323.54885 462.0528 320.81998 467.09375 320.71094 z M 486.88281 326.98047 C 483.56844 329.19002 476.21522 333.68555 471.24414 333.68555 C 466.89018 333.68555 464.09803 333.00931 467.89258 329.21484 L 486.88281 326.98047 z M 347.54297 676.94336 L 477.00195 808.89648 C 431.96884 819.49251 316.22266 858.55078 316.22266 858.55078 C 320.4271 769.05625 314.42026 709.29348 298.20312 679.26172 L 347.54297 676.94336 z M 647.77344 791.87891 C 660.98742 842.93284 652.88026 887.38272 623.44922 925.22266 C 579.60292 951.04997 526.59539 954.95262 464.42969 936.93359 C 402.26409 918.91455 343.25353 922.81917 287.39453 948.64648 C 292.80021 928.22487 339.04864 895.48897 426.14062 850.44141 L 647.77344 791.87891 z " />
</svg>
