<?xml version="1.0" encoding="UTF-8" standalone="no"?>
<svg
   width="900"
   height="1000"
   version="1.1"
   id="svg1"
   sodipodi:docname="137EE.svg"
   inkscape:version="1.4.3 (0d15f75, 2025-12-25)"
   xmlns:inkscape="http://www.inkscape.org/namespaces/inkscape"
   xmlns:sodipodi="http://sodipodi.sourceforge.net/DTD/sodipodi-0.dtd"
   xmlns="http://www.w3.org/2000/svg"
   xmlns:svg="http://www.w3.org/2000/svg">
  <defs
     id="defs1" />
  <sodipodi:namedview
     id="namedview1"
     pagecolor="#ffffff"
     bordercolor="#666666"
     borderopacity="1.0"
     inkscape:showpageshadow="2"
     inkscape:pageopacity="0.0"
     inkscape:pagecheckerboard="0"
     inkscape:deskcolor="#d1d1d1"
     showguides="true"
     inkscape:zoom="0.18875"
     inkscape:cx="505.96026"
     inkscape:cy="829.13907"
     inkscape:window-width="1680"
     inkscape:window-height="998"
     inkscape:window-x="-8"
     inkscape:window-y="-8"
     inkscape:window-maximized="1"
     inkscape:current-layer="svg1">
    <sodipodi:guide
       position="0,0"
       orientation="0,-1"
       id="guide1"
       inkscape:locked="false" />
  </sodipodi:namedview>
  <path
     id="path6"
     style="fill:#000000;stroke:none;stroke-width:1.0144"
     d="M 170.77734 0.001953125 C 161.65903 0.12449271 152.51149 5.0816107 143.33203 14.873047 C 124.97311 34.455925 130.7238 67.013045 160.58789 112.54297 C 139.53627 114.5013 119.2196 111.56339 99.636719 103.73047 C 94.740899 117.92795 94.740899 132.61594 99.636719 147.79297 C 118.24043 138.98012 139.53627 135.31014 163.52539 136.77734 L 160.75195 183.56641 C 157.0066 182.7961 153.69032 183.44219 150.80664 185.50195 C 128.0504 227.56651 119.94896 257.563 126.5 275.49219 C 133.05105 293.42131 141.8436 316.17648 152.87695 343.75977 L 145.63672 459.61133 C 141.49922 509.26127 157.36043 534.42958 193.21875 535.11914 C 229.07703 535.80872 292.17246 538.22184 382.50781 542.35938 C 387.33493 572.701 406.2985 616.4912 439.39844 673.72656 C 444.14313 711.09095 444.36306 752.10599 439.50586 791.80859 L 334.07227 680.50781 C 312.38358 661.04358 293.47516 651.3125 277.34766 651.3125 C 231.18967 651.86864 211.17176 670.77706 217.28906 708.03711 L 241.47656 882.38086 C 206.99708 891.27879 190.87118 917.69538 193.0957 961.62891 C 176.9682 963.85333 162.36961 967.88534 149.30078 973.72461 C 136.23197 979.56375 123.02464 982.06476 109.67773 981.23047 C 96.330858 980.39628 87.713162 986.65305 83.820312 1000 L 778.69141 1000 C 763.67616 972.75008 743.09863 961.90562 716.96094 967.4668 C 690.82327 973.02807 673.16816 961.34988 663.99219 932.43164 C 654.81617 903.51334 639.1042 897.67432 616.85938 914.91406 C 637.81076 874.11366 638.81214 831.67405 619.85938 787.59375 C 607.93632 733.89075 611.56845 651.45686 630.75781 540.29102 C 722.47234 536.84291 786.25889 534.94615 822.11719 534.60156 C 857.97549 534.25673 873.83675 508.91571 869.69922 458.57617 L 863.49219 343.75977 C 873.83591 316.17648 882.28293 293.24856 888.83398 274.97461 C 895.385 256.70064 887.6272 226.87692 865.56055 185.50195 C 862.80221 183.77801 859.82802 183.00142 856.63867 183.17383 C 856.25928 183.19433 855.87569 183.22804 855.49023 183.27539 L 851.72852 136.77539 C 872.78014 134.81708 894.07596 137.26501 915.61719 144.11914 C 920.02186 130.41087 919.77863 116.45919 914.88281 102.26172 C 892.85202 109.11585 872.5334 112.78505 853.92969 113.27539 C 882.81424 66.276726 888.20007 33.231969 870.08594 14.138672 C 851.9718 -4.9534731 833.73587 -4.7098254 815.37695 14.873047 C 797.01803 34.455925 802.76872 67.013045 832.63281 112.54297 C 811.58119 114.5013 791.26452 111.56339 771.68164 103.73047 C 766.78582 117.92795 766.78582 132.61594 771.68164 147.79297 C 790.28535 138.98012 811.58119 135.31014 835.57031 136.77734 L 830.93945 214.90625 C 830.43456 214.73765 829.9078 214.5899 829.35742 214.46289 C 814.87617 244.11499 814.87617 281.69653 829.35742 327.20898 C 818.3241 407.89019 812.80664 460.30013 812.80664 484.43555 C 755.57129 475.47097 704.54361 472.71225 659.7207 476.16016 C 631.44782 454.09352 600.41458 440.64742 566.625 435.82031 L 565.5918 397.54883 C 582.8314 400.30716 598.69265 393.75492 613.17383 377.89453 C 627.65504 362.03407 634.5509 334.45076 633.86133 295.14453 C 633.86133 264.8029 620.4152 243.94452 593.52148 232.56641 C 578.88631 226.37462 563.58755 222.73514 547.625 221.64844 L 547.625 122.05273 C 547.625 109.38309 550.29812 102.99219 555.80664 102.99219 C 561.31518 102.99218 564.08594 109.38309 564.08594 122.05273 L 583.14648 122.05273 C 583.69731 90.103201 573.04203 74.111328 551.2832 74.111328 C 529.52454 74.111328 518.64844 89.884518 518.64844 121.2832 L 518.64844 157.57422 L 502.95703 157.57422 C 496.89756 157.57422 493.81055 161.84072 493.81055 170.37891 C 493.81055 178.91718 496.89756 183.18164 502.95703 183.18164 L 518.64844 183.18164 L 518.64844 222.29883 C 518.46227 222.29338 518.37408 222.33903 518.375 222.42578 C 514.32766 222.89838 510.242 223.5185 506.11719 224.28906 C 474.74117 230.15052 452.50053 255.49349 439.39844 300.31641 C 431.12345 309.97053 421.81443 323.76222 411.4707 341.69141 C 406.6436 352.72473 406.8164 359.10419 411.98828 360.82812 C 417.16016 362.55208 421.12449 364.79244 423.88281 367.55078 C 416.46921 371.9989 419.47657 377.59139 425.86914 378.91211 C 425.4099 379.28653 424.40268 380.15499 422.84766 381.51562 C 420.08934 383.92913 420.60766 386.16954 424.40039 388.23828 C 428.19309 390.30702 429.91512 396.16811 429.57031 405.82227 C 429.22554 415.47645 436.63973 420.30469 451.81055 420.30469 C 459.39593 420.99426 465.94815 420.64869 471.46484 419.26953 L 475.60156 442.02539 C 440.43285 444.78372 406.6428 457.19506 374.23242 479.26172 L 373.19922 478.22852 C 316.65342 474.09098 259.76073 476.50415 202.52539 485.46875 C 203.21497 461.33333 198.04503 408.92535 187.01172 328.24414 C 201.49295 282.04211 201.49295 244.46052 187.01172 215.49805 C 186.68826 215.54781 186.3722 215.60445 186.06445 215.66992 L 179.68359 136.77539 C 200.73521 134.81708 222.03104 137.26501 243.57227 144.11914 C 247.97694 130.41087 247.73176 116.45919 242.83594 102.26172 C 220.80515 109.11585 200.48848 112.78505 181.88477 113.27539 C 210.76932 66.276726 216.15515 33.231969 198.04102 14.138672 C 188.98395 4.5925994 179.89565 -0.12058646 170.77734 0.001953125 z M 170.86914 22.216797 C 175.39767 22.216797 179.92664 24.664924 184.45508 29.560547 C 193.51234 39.352177 189.22806 62.606372 171.60352 99.324219 C 152.99981 62.606372 148.22594 39.352177 157.2832 29.560547 C 161.81164 24.664924 166.34061 22.216797 170.86914 22.216797 z M 842.91406 22.216797 C 847.44259 22.216797 851.97157 24.664924 856.5 29.560547 C 865.55726 39.352177 861.27298 62.606372 843.64844 99.324219 C 825.04473 62.606372 820.27282 39.352177 829.33008 29.560547 C 833.85851 24.664924 838.38553 22.216797 842.91406 22.216797 z M 157.9375 235.92383 L 177.9707 236.41016 C 178.06398 236.86293 178.1109 237.26898 178.21875 237.73633 C 181.32184 251.18322 177.70308 267.21724 167.35938 285.83594 C 158.55778 266.2016 155.4386 249.57551 157.9375 235.92383 z M 838.35938 236.12695 L 857.58008 236.59375 C 859.71279 249.70099 856.89467 265.74548 849.00977 284.80078 C 838.66601 266.18205 835.04535 250.32088 838.14844 237.21875 C 838.23914 236.8358 838.27898 236.50048 838.35938 236.12695 z M 530.54102 240.22852 C 543.22004 240.70113 557.31639 242.97402 572.83203 247.04688 C 600.41535 254.28751 614.20703 270.66518 614.20703 296.17969 C 610.75909 329.96929 602.65576 353.24079 589.89844 365.99805 C 577.14119 378.75535 566.28295 381.34325 557.31836 373.75781 C 546.97461 367.5516 549.213 357.03307 564.03906 342.20703 C 592.27114 313.975 580.09006 267.20885 526.28516 294.11133 C 518.01016 284.45714 498.01183 277.21577 466.29102 272.38867 C 472.49724 256.52828 484.91054 246.52811 503.5293 242.39062 C 508.18396 241.35626 513.11902 240.67871 518.33398 240.35547 C 522.2452 240.11304 526.31467 240.07098 530.54102 240.22852 z M 459.05273 286.86914 C 484.56729 288.24829 505.25482 294.79857 521.11523 306.52148 C 520.42563 316.17565 524.38994 316.52318 533.00977 307.55859 C 550.40609 289.46643 574.2365 299.37219 561.9707 324.625 C 556.10929 336.69273 548.35145 346.86173 538.69727 355.13672 C 529.04311 363.41174 526.63191 371.6879 531.45898 379.96289 C 536.28609 388.23787 540.07762 395.47928 542.83594 401.68555 C 542.14637 428.57927 544.90507 445.47334 551.11133 452.36914 C 557.31755 459.265 570.07433 463.57489 589.38281 465.29883 C 608.69115 467.02277 618.3457 475.46981 618.3457 490.64062 C 611.44991 505.12187 603.69209 534.60197 595.07227 579.08008 C 586.45248 623.55816 581.28056 654.58945 579.55664 672.17383 C 578.05689 687.4696 580.7215 743.71222 592.01172 788.26562 L 463.62305 817.26758 C 467.76057 760.0322 466.63777 709.23931 461.12109 672.69141 C 430.08987 609.24981 414.57227 550.6351 414.57227 496.84766 C 414.57227 478.22889 427.67475 468.57435 453.87891 467.88477 C 485.59972 467.88477 501.11534 459.26496 500.42578 442.02539 C 499.04661 416.51081 487.66807 404.96146 466.29102 407.375 C 444.91393 409.7885 435.95054 403.4091 439.39844 388.23828 C 452.50053 381.34248 457.15404 376.34336 453.36133 373.24023 C 449.56866 370.13711 442.84753 368.24036 433.19336 367.55078 C 433.19336 362.03407 428.71068 357.20586 419.74609 353.06836 C 428.71068 331.69132 437.33051 316.8668 445.60547 308.5918 C 454.57008 303.76473 463.87905 303.76473 473.5332 308.5918 C 483.18736 313.41888 492.83996 316.52124 502.49414 317.90039 L 502.49414 311.69531 C 496.28792 311.69531 488.35731 308.93655 478.70312 303.41992 C 469.04897 297.90323 459.05073 297.21209 448.70703 301.34961 C 452.84451 295.14334 456.29439 290.31704 459.05273 286.86914 z M 550.67578 303.16016 C 549.30067 303.19226 547.72941 303.43835 545.93945 303.93555 C 532.75885 307.59692 520.1678 328.73794 524.2168 335.48633 C 515.32442 340.5677 510.88159 349.61916 520.59766 354.10352 C 530.631 358.73434 552.65274 332.70531 556.80078 322.03906 C 560.22123 313.24347 560.3016 302.93499 550.67578 303.16016 z M 460.5332 309.98047 C 457.0449 310.08821 453.79233 311.00455 450.77539 312.72852 L 442.50195 321.00391 L 442.50195 327.20898 L 445.60547 326.17578 C 458.01797 332.38205 471.46407 332.38205 485.94531 326.17578 L 500.42578 330.3125 L 500.42578 322.03906 L 486.97852 321.00391 C 477.02269 313.41849 468.2075 309.74342 460.5332 309.98047 z M 547.33008 311.38281 C 550.34567 311.4996 552.16907 313.63709 551.62695 316.34766 C 549.45526 327.20632 540.35081 338.87019 533.00977 342.20703 C 529.21707 343.93099 529.21707 342.20899 533.00977 337.03711 C 536.80245 331.86523 536.80245 330.14127 533.00977 331.86523 C 529.21707 333.58921 528.35511 332.20885 530.42383 327.72656 C 535.92542 315.80657 542.36634 311.60496 546.71289 311.38672 C 546.92418 311.37611 547.12904 311.37503 547.33008 311.38281 z M 459.05273 314.79688 C 456.29439 318.24484 456.29439 321.3491 459.05273 324.10742 C 455.60481 323.41784 452.50055 322.38306 449.74219 321.00391 C 450.4318 318.24558 453.53607 316.17608 459.05273 314.79688 z M 468.36133 316.86523 L 480.77344 324.10742 C 475.94634 324.79699 471.46366 325.14062 467.32617 325.14062 C 470.77413 323.07189 471.11972 320.31313 468.36133 316.86523 z M 524.2168 342.72461 C 527.66475 344.79334 528.01032 346.86289 525.25195 348.93164 C 522.49364 351.00038 520.76966 351.00038 520.08008 348.93164 C 519.39047 346.86289 520.7689 344.79334 524.2168 342.72461 z M 443.6582 351.35938 C 443.01778 351.39558 442.66526 353.01123 443.01953 355.13672 C 443.65175 358.93021 439.7657 361.00195 435.26172 355.6543 C 430.83257 350.39551 427.66441 350.24653 427.49023 356.49414 C 429.55901 354.42536 431.46824 355.82747 434.22656 359.27539 C 440.32628 366.90013 446.85452 360.13257 445.60547 355.13672 C 444.91714 352.38337 444.18886 351.32948 443.6582 351.35938 z M 430.38477 371.05469 C 431.05154 371.04029 431.81428 371.0762 432.67578 371.17188 C 435.77888 371.51664 439.39963 372.03307 443.53711 372.72266 C 447.67461 373.41223 449.39657 374.10138 448.70703 374.79102 L 429.05469 374.79102 C 425.72402 373.6807 425.71741 371.15564 430.38477 371.05469 z M 448.70703 376.85938 C 445.63829 378.90517 438.82923 383.06641 434.22656 383.06641 C 430.19528 383.06641 427.61167 382.44098 431.125 378.92773 L 448.70703 376.85938 z M 319.69336 700.88672 L 439.55859 823.05859 C 397.86295 832.86933 290.69336 869.0332 290.69336 869.0332 C 294.5862 786.17125 289.02503 730.83732 274.00977 703.03125 L 319.69336 700.88672 z M 597.67383 807.30273 C 609.9085 854.57297 602.4022 895.72811 575.15234 930.76367 C 534.55556 954.67687 485.47648 958.29103 427.91797 941.60742 C 370.35957 924.9238 315.72115 928.53991 264.00195 952.45312 C 269.00701 933.54499 311.82933 903.23441 392.4668 861.52539 L 597.67383 807.30273 z " />
</svg>
