<?xml version="1.0" encoding="UTF-8" standalone="no"?>
<svg
   width="1143.9921"
   height="1000"
   version="1.1"
   id="svg1"
   sodipodi:docname="137EF.svg"
   inkscape:version="1.4.3 (0d15f75, 2025-12-25)"
   xmlns:inkscape="http://www.inkscape.org/namespaces/inkscape"
   xmlns:sodipodi="http://sodipodi.sourceforge.net/DTD/sodipodi-0.dtd"
   xmlns="http://www.w3.org/2000/svg"
   xmlns:svg="http://www.w3.org/2000/svg">
  <defs
     id="defs1" />
  <sodipodi:namedview
     id="namedview1"
     pagecolor="#ffffff"
     bordercolor="#666666"
     borderopacity="1.0"
     inkscape:showpageshadow="2"
     inkscape:pageopacity="0.0"
     inkscape:pagecheckerboard="0"
     inkscape:deskcolor="#d1d1d1"
     inkscape:zoom="0.3775"
     inkscape:cx="-186.75497"
     inkscape:cy="1031.7881"
     inkscape:window-width="1680"
     inkscape:window-height="998"
     inkscape:window-x="-8"
     inkscape:window-y="-8"
     inkscape:window-maximized="1"
     inkscape:current-layer="svg1" />
  <path
     style="fill:#000000;stroke:none;stroke-width:55.6401"
     d="M 199.63052,0 C 95.690954,0 43.686156,47.995319 43.686156,143.99044 H 0.97804854 L 43.686156,183.7644 v 18.80026 H 0.97804854 L 43.686156,245.27277 V 264.1817 H 0.97804854 L 43.686156,304.82504 v 18.90894 H 0 l 43.686156,39.77396 v 17.82221 L 0.97804854,382.3082 43.686156,421.10412 v 18.80025 H 1.9560965 l 32.8189525,37.49185 c 0.36205,14.3981 1.925676,24.01729 4.78157,29.01544 H 0.97804854 L 43.686156,546.18562 v 18.90893 H 0.97804854 l 42.70810746,42.7081 v 18.80029 H 0.97804854 L 43.686156,667.35495 v 18.80023 H 0 l 43.686156,39.77398 V 743.7514 H 0.97804854 L 43.686156,783.52532 v 18.90894 H 1.9560965 L 43.686156,850.03263 V 999.02196 H 80.417302 V 506.629 c 9.444069,-3.35164 14.477598,-5.38039 15.105413,-5.97696 h 0.108671 c 46.316194,42.19784 109.041294,62.08649 188.328624,59.44359 77.45811,-43.03221 123.24136,-72.35781 137.14411,-87.91566 13.90274,-15.55786 24.23749,-12.39272 31.18886,9.45446 12.49471,39.26896 22.66174,74.66743 59.11759,217.45273 -66.20352,-57.59705 -135.65531,-89.83058 -208.54162,-93.34925 -23.14429,-1.11731 -37.94019,11.91983 -44.22952,35.75309 -6.28933,23.83326 -5.44494,113.17776 2.49946,268.09387 v 1.08665 c 0,12.57861 -9.70274,21.4369 -29.23277,26.73328 -19.53006,5.2966 -45.5868,13.94747 -78.02653,25.86407 h -15.86611 c -13.90276,0 -14.5348,11.91983 -1.95608,35.75309 h 185.72049 c 8.82415,-6.86321 11.45126,-19.37538 7.93306,-37.49184 8.8464,17.71129 26.13263,30.11174 41.73006,38.46988 h 51.6192 C 473.3749,979.47693 543.20519,935.49111 632.5799,867.96348 l -6.95501,92.37126 c -26.48139,0 -39.77397,4.533 -39.77397,13.8013 v 24.88592 h 84.43816 l 26.842,-153.87959 c 0,-37.07399 -15.92937,-52.05519 -47.70703,-44.77285 30.4537,-40.38413 32.14283,-87.00673 4.9987,-139.96958 13.05266,-107.98116 21.28717,-156.69381 28.2547,-182.24301 2.97897,-10.9236 10.99821,-10.71171 23.90788,0.5436 12.90966,11.25466 53.41436,41 121.604,89.32837 65.54151,-1.32423 135.68774,-22.84294 210.49767,-64.55114 l 24.8859,8.58509 v 486.95933 h 36.7312 V 850.03285 l 41.7301,-47.59836 h -41.7301 v -18.90895 l 42.7081,-39.77392 h -42.7081 v -17.82224 l 43.6861,-39.77398 h -43.6861 v -18.80022 l 42.7081,-40.75202 h -42.7079 v -18.80051 l 42.7081,-42.7081 h -42.7081 v -18.90893 l 42.7081,-39.77396 h -42.7081 V 487.6114 l 41.7301,-47.70703 h -41.7301 v -18.80025 l 42.7081,-38.79592 -42.7081,-0.97805 v -17.82221 l 43.6862,-39.77396 h -43.6862 v -18.90894 l 42.7081,-40.64334 h -42.7081 v -18.90893 l 42.7081,-42.70811 h -42.7081 V 183.7644 l 42.7081,-39.77396 h -42.7081 C 1100.3043,47.99532 1048.2995,0 944.35992,0 v 24.777223 c 79.44428,0 119.21318,40.401023 119.21318,121.169317 v 301.89089 h -1.9563 c -17.8749,7.28244 -32.1155,18.88625 -42.7081,34.77505 -34.42577,11.91666 -63.96375,17.93088 -88.45902,17.93089 -24.49527,0 -53.60844,2.32075 -87.37229,6.95501 -46.34178,-29.7916 -89.38005,-65.86709 -129.10217,-108.23735 -11.2546,-19.86109 -42.0565,-29.8848 -92.37121,-29.8848 v -15.86612 c 11.46219,-4.73323 24.54033,-15.34171 32.81896,-29.88481 25.4895,-44.77735 29.31915,-77.85738 16.40949,-110.62812 -12.10862,-30.7372 -26.69611,-59.68378 -90.84985,-64.65986 V 51.727886 c 0,-13.916548 3.05576,-20.86503 9.01982,-20.86503 5.96389,0 8.91109,6.948482 8.91109,20.86503 h 20.86503 C 618.77643,17.267833 607.19779,0 584.0035,0 560.80921,0 549.22843,17.267833 549.22844,51.727886 v 27.820039 h -17.93089 c -6.62701,0 -9.88916,4.316947 -9.88915,12.931973 0,9.277722 3.26218,14.225392 9.88915,14.888062 h 17.93089 v 39.77396 0.1085 c 0.008,0.0451 0.10293,0.28265 0.1085,0.32605 v 0.1085 c -2.35152,0.0684 -4.72051,0.20921 -7.17236,0.32605 -27.80533,1.32438 -47.95148,18.83374 -60.53015,52.59755 -4.63426,19.861 -12.75693,38.00247 -24.34253,54.55335 -11.58564,16.55093 -8.4205,24.8859 9.45447,24.8859 -3.97222,5.95831 -3.65622,9.22715 0.97804,9.88915 -3.9722,3.3102 -4.28823,6.15931 -0.97804,8.47642 3.3102,2.31713 4.01827,7.77822 3.91217,16.40948 -0.1085,8.81623 11.79971,13.39852 25.86394,13.91002 h 19.887 c 7.94441,6.62035 12.26993,20.12027 12.93198,40.64334 -58.2591,0 -93.38655,11.28777 -105.3032,33.797 -45.0184,30.45358 -92.69768,65.58104 -143.01239,105.3032 -42.37025,-4.63427 -76.125,-8.32773 -101.28233,-10.97588 -25.15738,-2.64814 -46.67626,-8.55371 -64.55119,-17.82221 -9.31701,-13.15339 -20.921014,-23.19191 -34.775048,-29.99349 V 145.94654 c 0,-80.768294 39.768978,-121.169317 119.213218,-121.169317 z m 357.96564,164.63813 c 66.15572,-2.45017 128.1376,52.32268 89.87158,134.31862 -13.9029,29.79151 -27.08659,40.02272 -39.66531,30.75418 -12.57866,-9.26844 -18.90895,-20.87229 -18.90895,-34.77505 12.57867,-19.86106 20.38553,-34.73363 23.3645,-44.6642 4.49293,-14.97661 3.74457,-38.57151 -18.36557,-41.73005 -9.26847,-1.32407 -18.86755,1.31271 -28.79808,7.93305 -15.22635,-7.9444 -34.10871,-15.22272 -56.6179,-21.84307 5.17549,-23.80758 30.40719,-29.30045 49.11973,-29.99348 z m -64.0078,44.88154 c 23.17119,3.9722 47.66288,12.95923 72.15824,25.53793 6.69511,-7.0151 12.40022,-10.75935 19.99565,-11.30189 5.88995,-0.4212 12.69557,7.42365 8.5851,21.51706 -2.31741,7.9444 -11.70389,22.50101 -28.25476,43.68616 5.29638,31.77768 17.2161,50.97582 35.75309,57.59617 l -0.56419,41.56225 c 24.24194,-2.33099 48.26538,-0.60876 72.07026,5.16674 8.14716,1.97667 -0.50632,30.43018 -5.97691,44.6642 -16.37571,42.57699 -27.65557,131.63475 -36.73119,224.40774 L 534.2317,691.15411 C 519.6669,634.219 508.06309,590.23324 499.45665,559.11758 c -8.60648,-31.11561 -17.78084,-73.20539 -27.71137,-126.16822 -4.51586,-24.08444 -8.45741,-36.69167 0,-39.66528 22.67391,-7.97212 48.21662,-9.18208 76.32075,-5.4741 2.74121,-25.99296 0.99369,-54.24689 -16.76848,-72.00907 -8.95232,1.58063 -18.54021,0.85935 -35.7531,1.52142 -11.25465,0.662 -16.21213,-3.18017 -14.88806,-8.47643 1.32406,-5.29632 0.69205,-9.62182 -1.95609,-12.93196 8.28593,0.27607 29.33803,0.6537 16.84415,-8.47642 -8.60651,-6.28934 -14.62074,-8.08174 -17.93088,-5.4336 1.98609,-8.60647 -2.97144,-13.24796 -14.88807,-13.91002 13.90272,-21.84719 24.24246,-41.36134 30.86286,-58.57423 z m 12.71463,10.32385 c -5.21353,0.0829 -11.09318,0.95306 -17.71355,2.60813 v 8.9111 c 13.24075,-3.9722 24.10384,-4.28818 32.71028,-0.97804 8.60648,3.31019 20.2103,5.63092 34.77505,6.95501 l -4.89024,-4.02087 c -13.24071,-4.63426 -23.68413,-8.43142 -31.29754,-11.41057 -3.8067,-1.48968 -8.37047,-2.14749 -13.584,-2.06476 z m -0.54361,13.25798 c -7.77893,-0.16525 -13.21296,2.63178 -16.19213,8.25908 l -8.91086,5.86829 v 4.02086 l 7.93305,0.97805 c 10.59258,7.28239 26.83788,6.01828 48.68507,-3.91217 h 18.80026 v -5.97698 h -19.7783 c -12.57867,-5.95831 -22.75793,-9.07162 -30.53684,-9.23713 z m -4.23796,6.19431 c -2.64814,3.9722 -2.33215,7.66574 0.97804,10.97587 -3.9722,-0.662 -7.66569,-1.71874 -10.97587,-3.04281 1.32407,-2.64814 4.70153,-5.28489 9.99783,-7.93306 z m 12.93197,0 15.86611,5.97696 c -5.95831,2.64813 -11.23187,4.33692 -15.86611,4.99893 3.9722,-3.31014 3.9722,-7.00365 0,-10.97589 z M 306.99848,629.31973 c 1.88993,-0.0186 3.77963,0.11684 5.75962,0.32828 70.89361,7.42978 135.39446,40.01044 193.65356,96.28343 -23.83328,18.53699 -45.35217,36.04637 -64.55119,52.59729 l -89.32841,-89.33071 c -16.55088,-9.93058 -24.14519,-5.60501 -22.82113,12.93198 1.98613,28.46753 -2.0234,64.33067 -11.95392,107.69399 -9.93053,43.36321 -14.88806,86.92939 -14.88806,130.62377 7.28239,24.49526 6.33429,39.05188 -2.93413,43.68614 H 146.92461 v -6.95501 c 19.86106,-0.66212 34.84234,-3.19541 44.77287,-7.49839 9.93053,-4.30321 35.35024,-11.68514 76.39644,-22.27773 6.62033,-1.32424 9.99783,-11.97981 9.99783,-31.84093 -3.3102,-134.39316 -2.94626,-222.86661 2.93412,-265.15975 2.08623,-15.00429 12.74298,-20.95211 25.97261,-21.08236 z m 338.51335,59.87829 c 16.55092,48.32853 10.85271,86.19645 -16.95281,113.67096 -27.80546,27.4744 -63.03665,41.92719 -105.73789,43.25143 -42.70127,1.32423 -83.20593,25.47981 -121.604,72.48427 -3.31019,15.22686 6.07656,12.16532 28.25473,-9.01981 22.17821,-21.18513 54.14053,-36.47741 95.84873,-46.07694 41.70823,-9.59947 69.66109,-19.09484 83.89482,-28.36336 14.23379,-9.26847 29.51595,-16.8442 46.18561,-16.8442 14.04383,0 20.23318,10.95314 18.90894,26.842 L 654.42297,984.1339 h -54.66203 v -5.97697 l 43.68614,-4.99871 9.99785,-89.32836 c 0,-34.42585 -16.56127,-40.4401 -49.66316,-17.93091 -80.10618,54.28686 -142.02617,91.73508 -185.72047,112.2582 -29.12955,3.31003 -50.01643,-1.01543 -62.59509,-12.93198 -12.5787,-11.91666 -12.89472,-31.4308 -0.97804,-58.5742 33.10175,-52.30084 78.35664,-100.82455 135.62269,-145.51183 57.26606,-44.68738 109.05857,-68.63087 155.40097,-71.94089 z m -292.97977,31.73221 72.48425,72.48428 c -29.79159,26.48139 -55.63602,55.27858 -77.48316,86.39424 -13.83244,20.52557 -21.80431,37.4421 -23.90785,50.74982 0.0362,-39.64784 4.10724,-74.70582 12.0626,-105.30319 8.60644,-33.10179 14.19603,-67.91317 16.84416,-104.32515 z"
     id="path1"
     sodipodi:nodetypes="cccccccccccccccccccccccccccccccccccccccccccsscsscsccscccccccscccccsccccccccccccccccccccccccccccccccccccccccccccscccsccccsscssccsscssccccccccsccsccccccsccsccscsccsccscccccccscccssscccscsccccccsccscsccccccccssccccccccscccccscccccccsscsscssssccccccccscsccccccsc" />
</svg>
