<?xml version="1.0" encoding="UTF-8" standalone="no"?>
<svg
   width="752.19775"
   height="1000"
   version="1.1"
   id="svg1"
   sodipodi:docname="137F3.svg"
   inkscape:version="1.4.3 (0d15f75, 2025-12-25)"
   xmlns:inkscape="http://www.inkscape.org/namespaces/inkscape"
   xmlns:sodipodi="http://sodipodi.sourceforge.net/DTD/sodipodi-0.dtd"
   xmlns="http://www.w3.org/2000/svg"
   xmlns:svg="http://www.w3.org/2000/svg">
  <defs
     id="defs1" />
  <sodipodi:namedview
     id="namedview1"
     pagecolor="#ffffff"
     bordercolor="#666666"
     borderopacity="1.0"
     inkscape:showpageshadow="2"
     inkscape:pageopacity="0.0"
     inkscape:pagecheckerboard="0"
     inkscape:deskcolor="#d1d1d1"
     inkscape:zoom="0.37749999"
     inkscape:cx="687.41724"
     inkscape:cy="1476.8212"
     inkscape:window-width="1680"
     inkscape:window-height="998"
     inkscape:window-x="-8"
     inkscape:window-y="-8"
     inkscape:window-maximized="1"
     inkscape:current-layer="svg1"
     showguides="true">
    <sodipodi:guide
       position="15.265693,189.01574"
       orientation="0,-1"
       id="guide1"
       inkscape:locked="false" />
    <sodipodi:guide
       position="0,1000"
       orientation="0,-1"
       id="guide4"
       inkscape:locked="false" />
    <sodipodi:guide
       position="497.63703,594.5077"
       orientation="1,0"
       id="guide5"
       inkscape:locked="false" />
    <sodipodi:guide
       position="36.222335,173.03424"
       orientation="0,-1"
       id="guide6"
       inkscape:locked="false" />
    <sodipodi:guide
       position="497.63236,15.99078"
       orientation="0,-1"
       id="guide7"
       inkscape:locked="false" />
  </sodipodi:namedview>
  <path
     id="path1-2"
     style="fill:#000000;stroke:none;stroke-width:55.6401"
     d="m 802.27148,0 v 20.09375 c 64.42616,0 96.67774,32.763791 96.67774,98.26367 v 244.82031 h -1.58594 c -14.49583,5.90577 -26.04458,15.31794 -34.63476,28.20313 -27.91803,9.66392 -51.87161,14.53905 -71.73633,14.53906 -19.86471,0 -43.47433,1.88243 -70.85547,5.64063 -37.58132,-24.1598 -70.86404,-57.29907 -104.40625,-90.14063 -22.60276,-17.64117 -47.4088,-28.39096 -74.42188,-32.25 l -0.82812,-30.5957 c 13.78219,2.20514 26.46203,-3.0333 38.03906,-15.71289 11.57694,-12.67963 17.09027,-34.72899 16.53906,-66.15235 0,-24.25662 -10.74983,-40.93306 -32.25,-50.02929 -11.58391,-4.90088 -23.68838,-7.80288 -36.3125,-8.70313 V 38.328125 c 0,-10.128746 2.13719,-15.236328 6.54102,-15.236328 4.40376,-8e-6 6.61914,5.107582 6.61914,15.236328 h 15.23828 c 0.44035,-25.54205 -8.07951,-38.32421875 -25.47461,-38.32421875 -17.39493,0 -26.08984,12.60926375 -26.08984,37.71093775 v 29.013672 h -12.54492 c -4.84419,0 -7.31055,3.408523 -7.31055,10.234375 0,6.825919 2.46636,10.236328 7.31055,10.236328 h 12.54492 V 118.4707 c -0.11206,-0.003 -0.17879,0.0169 -0.20508,0.0566 -3.36396,0.38308 -6.76237,0.8942 -10.19336,1.53516 -25.08357,4.68593 -42.86345,24.94562 -53.33789,60.7793 -6.61541,7.71798 -14.05689,18.74463 -22.32617,33.07812 -3.85904,8.82059 -3.72054,13.92063 0.41406,15.29883 4.13468,1.37822 7.3046,3.1679 9.50977,5.37305 -5.92682,3.55606 -3.52261,8.02815 1.58789,9.08398 -0.36712,0.29934 -1.17287,0.99427 -2.41602,2.08203 -2.20516,1.92948 -1.79186,3.7192 1.24024,5.37305 3.03202,1.65386 4.41236,6.34058 4.13671,14.05859 -0.27565,7.71802 5.64904,11.57813 17.77735,11.57813 6.0642,0.55128 11.30256,0.27444 15.71289,-0.82813 l 3.30664,18.19141 c -28.11567,2.20514 -55.12864,12.12835 -81.03906,29.76953 -36.50813,24.69664 -87.68117,56.24589 -128.48438,88.45899 -34.36059,-3.75822 -61.73316,-6.75481 -82.13476,-8.90235 -20.40163,-2.14754 -37.85572,-6.93674 -52.35157,-14.45312 C 116.97161,378.337 107.5632,370.19745 96.328125,364.68164 V 118.36133 c 0,-65.499884 32.251615,-98.263674 96.677735,-98.263674 V 0.00390625 C 108.71501,0.00390625 66.539062,38.927168 66.539062,116.77539 H 31.90625 l 34.632812,32.25391 v 15.24804 H 31.90625 l 34.632812,34.63477 v 15.33398 H 31.90625 l 34.632812,32.95899 v 15.33594 H 31.113281 l 35.425781,32.2539 v 14.45313 l -34.632812,0.79297 34.632812,31.46289 V 356.75 H 32.699219 l 26.615234,30.4043 c 0.293608,11.67629 1.560932,19.47795 3.876953,23.53125 H 31.90625 l 34.632812,32.2539 v 15.33399 H 31.90625 l 34.632812,34.63476 v 15.2461 H 31.90625 l 34.632812,33.04882 v 15.2461 H 31.113281 l 35.425781,32.25586 V 603.1582 H 31.90625 l 34.632812,32.25391 v 15.33398 H 32.699219 l 33.83789,38.59766 v 0.002 37.37696 c -4.296062,2.05011 -9.615242,3.90543 -14.541015,5.64062 -23.643708,8.32906 -38.839621,19.08482 -45.5566409,32.25 -6.71693979,13.16527 -8.1675644,24.17848 -4.40625,33.04492 3.7613954,8.86644 8.4574339,13.30469 14.0996089,13.30469 h 18.945313 31.460937 28.195313 1.59375 v -1.64648 c 0.150589,0.55009 0.408774,1.09995 0.771484,1.64843 H 0.41210938 L 24.304688,837.64062 c 98.367692,109.82912 312.204092,162.36918 473.332032,162.36918 161.12794,0 374.96629,-52.54006 473.33398,-162.36918 l 23.89063,-26.67578 h -96.68555 c 0.36561,-0.55287 0.6235,-1.10564 0.77344,-1.66015 v 1.6582 h 29.78906 31.45703 18.94727 c 5.64218,0 10.33626,-4.43825 14.09765,-13.30469 3.76132,-8.86644 2.31069,-19.87965 -4.40625,-33.04492 -6.71702,-13.16518 -21.91293,-23.92094 -45.55664,-32.25 -4.92577,-1.73519 -10.243,-3.59051 -14.53906,-5.64062 v -37.37891 l 33.8418,-38.60156 h -33.8418 V 635.4082 l 34.63281,-32.2539 h -34.63281 v -14.45313 l 35.42774,-32.25586 h -35.42774 v -15.24609 l 34.63281,-33.04883 H 928.73828 V 492.9043 l 34.63281,-34.63477 h -34.63281 v -15.33398 l 34.63281,-32.25586 h -34.63281 v -15.2461 l 33.8418,-38.6875 h -33.8418 v -15.24804 l 34.63281,-31.46094 -34.63281,-0.79297 v -14.45312 l 35.42774,-32.25586 h -35.42774 v -15.33399 l 34.63281,-32.96094 h -34.63281 v -15.33398 l 34.63281,-34.63477 h -34.63281 v -15.24609 l 34.63281,-32.25586 H 928.73828 C 928.73828,38.921308 886.56243,0 802.27148,0 Z m -289.8125,132.80664 c 10.13625,0.37783 21.40659,2.19318 33.81055,5.44922 22.05146,5.78851 33.07617,18.88173 33.07617,39.2793 -2.75646,27.01309 -9.2348,45.61761 -19.43359,55.8164 -10.1988,10.19882 -18.88018,12.26731 -26.04688,6.20313 -8.26928,-4.96155 -6.47767,-13.36999 5.375,-25.22266 22.57015,-22.57008 12.83079,-59.95835 -30.18359,-38.45117 -6.6154,-7.71804 -22.60181,-13.5062 -47.96094,-17.36524 4.96153,-12.67957 14.88476,-20.67471 29.76953,-23.98242 3.72117,-0.82692 7.66684,-1.36854 11.83594,-1.62695 3.12682,-0.19381 6.37906,-0.22556 9.75781,-0.0996 z m -57.15234,37.28516 c 20.39759,1.10256 36.93563,6.33906 49.61524,15.71093 -0.55129,7.71803 2.6187,7.99487 9.50976,0.82813 13.90756,-14.46377 32.96011,-6.54384 23.1543,13.64453 -4.68597,9.64753 -10.8874,17.77909 -18.60547,24.39453 -7.71799,6.61546 -9.64801,13.23026 -5.78906,19.8457 3.85904,6.61544 6.89249,12.40364 9.09765,17.36524 -0.55129,21.50018 1.65166,35.00668 6.61328,40.51953 4.96153,5.51289 15.16144,8.95969 30.59766,10.33789 15.43606,1.37821 23.1543,8.13147 23.1543,20.25977 -5.51283,11.57702 -11.71434,35.14316 -18.60547,70.70117 -6.89105,35.558 -11.02616,60.36795 -12.4043,74.42578 -1.37839,14.05778 -1.23981,38.17564 0.41406,72.35547 L 458.61328,591 c 3.30775,-45.75678 2.75798,-83.24468 -1.65234,-112.46289 -24.80784,-50.71837 -37.21289,-97.57777 -37.21289,-140.57813 0,-14.88477 10.47494,-22.60301 31.42383,-23.15429 25.35921,0 37.76222,-6.89167 37.21093,-20.67383 -1.10258,-20.39763 -10.19726,-29.63068 -27.28711,-27.70117 -17.08994,1.92948 -24.25841,-3.17052 -21.50195,-15.29883 10.47444,-5.51285 14.19615,-9.50943 11.16406,-11.99024 -3.03202,-2.48079 -8.40701,-3.99754 -16.125,-4.54882 0,-4.41033 -3.58322,-8.26846 -10.75,-11.57618 7.16678,-17.08986 14.05843,-28.94119 20.67383,-35.55664 7.16678,-3.859 14.60818,-3.859 22.32617,0 7.71807,3.85901 15.43623,6.33886 23.1543,7.44141 v -4.96094 c -4.96162,0 -11.29951,-2.20691 -19.01758,-6.61718 -7.71799,-4.41031 -15.71314,-4.96008 -23.98242,-1.65235 3.30766,-4.96159 6.06437,-8.8217 8.26953,-11.57812 z m 73.25,13.02343 c -1.09934,0.0257 -2.35613,0.22362 -3.78711,0.6211 -10.53721,2.92708 -20.60414,19.82765 -17.36719,25.22265 -7.10904,4.06229 -10.66003,11.2978 -2.89257,14.88282 8.02112,3.70211 25.62522,-17.10569 28.9414,-25.63282 2.73448,-7.03164 2.80083,-15.27377 -4.89453,-15.09375 z m -72.06445,5.45313 c -2.78873,0.0861 -5.38888,0.81905 -7.80078,2.19726 l -6.61524,6.61524 v 4.96094 l 2.48047,-0.82618 c 9.92324,4.96161 20.67297,4.96161 32.25,0 l 11.57617,3.30665 v -6.61329 l -10.75,-0.82812 c -7.95921,-6.06416 -15.00538,-9.002 -21.14062,-8.8125 z m 69.38867,1.12109 c 2.41083,0.0934 3.86895,1.80376 3.43555,3.97071 -1.73619,8.68096 -9.01594,18.00423 -14.88477,20.67187 -3.03202,1.37823 -3.03202,0.002 0,-4.13281 3.03209,-4.13466 3.03209,-5.51299 0,-4.13477 -3.03202,1.37824 -3.72021,0.27478 -2.06641,-3.30859 4.39829,-9.52942 9.54664,-12.88803 13.02149,-13.0625 0.16892,-0.008 0.33342,-0.01 0.49414,-0.004 z m -70.57422,2.73047 c -2.20516,2.75648 -2.20516,5.23627 0,7.44141 -2.75645,-0.55128 -5.2382,-1.37791 -7.44336,-2.48047 0.55129,-2.20514 3.03303,-3.85833 7.44336,-4.96094 z m 7.44336,1.65235 9.92188,5.78906 c -3.85904,0.55128 -7.44226,0.82812 -10.75,0.82812 2.75646,-1.65385 3.03329,-3.86076 0.82812,-6.61718 z m 44.65234,20.67382 c 2.75645,1.65384 3.0333,3.30902 0.82813,4.96289 -2.20516,1.65384 -3.58348,1.65384 -4.13477,0 -0.55129,-1.65387 0.55018,-3.30905 3.30664,-4.96289 z M 443,221.64844 c -0.512,0.0289 -0.79298,1.32227 -0.50977,3.02148 0.50548,3.03271 -2.60237,4.68728 -6.20312,0.41211 -3.54081,-4.20415 -6.07367,-4.32278 -6.21289,0.67188 1.65386,-1.65388 3.18163,-0.53183 5.38672,2.22461 4.87646,6.09559 10.09432,0.68533 9.0957,-3.3086 -0.55028,-2.20115 -1.13244,-3.04538 -1.55664,-3.02148 z m -10.61133,15.74609 c 0.53305,-0.0115 1.14332,0.0173 1.83203,0.0937 2.48081,0.27562 5.3739,0.68895 8.68164,1.24024 3.30766,0.55127 4.68598,1.101 4.13477,1.65234 h -15.71094 c -2.66273,-0.88765 -2.66884,-2.90561 1.0625,-2.98633 z m 14.64844,4.64063 c -2.45332,1.63551 -7.89652,4.96289 -11.57617,4.96289 -3.22276,0 -5.28923,-0.49993 -2.48047,-3.3086 z M 384.92578,375.0625 c 5.31205,-0.17156 9.6275,5.00102 12.97461,15.51367 v 0.002 0.002 c 4.3e-4,0.001 0.003,0.005 0.004,0.006 4.5e-4,0.001 -2.5e-4,0.003 0,0.004 v 0.002 c 6.74858,22.79168 20.6439,52.38221 41.68945,88.77343 4.41032,34.73109 3.36303,70.28891 -2.48047,106.67383 -63.74685,-70.01345 -106.24324,-106.95155 -127.49219,-110.81054 -22.84263,3.85899 -37.71716,12.4058 -44.62304,25.63671 -20.18649,46.85939 -32.77995,122.93663 -46.06055,228.23243 -4.78098,27.01292 -14.47725,41.07116 -29.08594,42.17382 -13.41762,1.01269 -35.46191,5.51322 -66.13281,13.50196 -0.5156,-4.01662 2.04772,-7.93047 7.67187,-11.67969 5.64225,-3.7613 10.3383,-9.65246 14.09961,-17.71289 3.7614,-8.06034 5.63868,-13.00971 5.63868,-14.89063 0,-1.88079 1.19546,-3.67507 3.61328,-5.28711 2.4184,-1.61202 4.72367,-4.93999 6.87304,-10.04492 2.14936,-5.10469 1.55023,-10.40184 -1.67382,-15.77539 l 2.46875,-2.3789 c -3.22404,-9.13498 -7.83708,-14.25735 -13.74805,-15.33203 -5.91093,-1.07468 -10.94541,-1.07468 -15.24414,0 -6.44827,-3.76185 -13.10923,-4.95686 -19.82617,-3.61329 -6.71694,1.34362 -10.81375,4.16177 -12.42578,8.46094 -1.406711,2.39993 -3.086561,4.72126 -4.837895,6.94922 V 410.86133 c 7.658765,-2.71805 11.740865,-4.36387 12.249995,-4.84766 h 0.0879 c 37.5606,34.22076 88.42964,50.35032 152.72851,48.20703 62.81544,-34.8974 99.94222,-58.68007 111.2168,-71.29687 4.57917,-5.12432 8.67988,-7.74396 12.31445,-7.86133 z m 211.80664,6.17969 c 3.23652,0.0768 7.48023,2.40299 12.71485,6.96679 10.46922,9.12708 43.31615,33.24903 98.61523,72.44141 53.15156,-1.0739 110.03902,-18.52592 170.70703,-52.34961 l 20.17969,6.96289 v 288.21094 c -1.75265,-2.22939 -3.43406,-4.55347 -4.8418,-6.95508 -1.61211,-4.29917 -5.70689,-7.11732 -12.42383,-8.46094 -6.71694,-1.34358 -13.37782,-0.14855 -19.82617,3.61329 -4.29874,-1.07468 -9.33516,-1.07468 -15.24609,0 -5.91093,1.07469 -10.52205,6.19705 -13.7461,15.33203 l 2.46875,2.3789 c -3.22405,5.37355 -3.82515,10.6707 -1.67578,15.77539 2.14937,5.10492 4.45468,8.4329 6.87305,10.04492 2.4178,1.61204 3.61328,3.40632 3.61328,5.28711 0,1.88092 1.87931,6.83028 5.64063,14.89063 3.76139,8.06043 8.45539,13.95159 14.09765,17.71289 5.64241,3.76139 8.20345,7.69038 7.66602,11.7207 -0.53734,4.03029 -1.98618,7.27515 -4.4043,9.69336 -2.41828,2.41825 -11.4694,4.63394 -27.05273,6.78321 -1.61203,0 -4.00268,1.11234 -7.22657,3.26171 -3.21416,2.14277 -4.83578,4.26957 -4.8457,6.41211 H 552.88477 c 18.74372,-2.2052 28.39198,-7.44361 28.94335,-15.71289 6.06413,-25.91042 14.33221,-61.46738 24.80665,-103.36523 0,-15.98727 -7.99312,-23.98047 -23.98047,-23.98047 12.67969,-18.7438 13.50621,-49.48038 2.48047,-92.20508 -10.41852,-40.37173 -8.77735,-103.01632 4.92382,-187.93555 1.20792,-4.4293 3.43731,-6.60029 6.67383,-6.52343 z m -283.1289,117.96875 c 24.96754,11.57701 61.62351,47.4116 109.96484,107.50195 -33.99826,24.25655 -70.65424,54.8529 -109.96484,91.78906 z m 246.72265,65.32617 c 8.82065,24.80792 13.23242,47.96271 13.23242,69.46289 0,21.50017 -6.75321,35.83525 -20.25976,43.00195 -13.50654,7.16678 -37.62643,17.08992 -72.35742,29.76953 -52.37229,-7.71807 -99.34006,13.50474 -143.43164,63.67188 3.71859,-28.66688 32.93629,-76.90267 87.65234,-144.71094 z m -261.88281,37.08398 -0.77539,115.07422 c -12.74938,12.12831 -20.7189,21.49787 -23.90625,28.11328 -6.90587,13.2309 -5.17916,27.9792 5.17969,44.24219 8.0842,12.69181 18.02892,19.52504 29.83398,21.91406 h -48.4043 c 6.90596,-6.06407 8.23615,-19.02088 3.98633,-38.86718 -4.24982,-19.84631 -3.07938,-45.20415 11.79492,-76.07618 14.41253,-29.91389 21.84361,-61.38097 22.29102,-94.40039 z m -182.73047,97.3418 c 2.58185,0.12589 6.03247,1.15651 10.39844,3.17188 7.52295,-1.07468 12.90095,-0.64655 16.125,1.23437 3.22406,1.88091 3.48008,4.69759 0.79297,8.45898 -2.68671,3.7614 -6.18759,7.51791 -10.48633,11.2793 -0.53734,1.61203 0.31921,2.72243 2.4668,3.25977 5.37366,-3.76139 9.64312,-8.62813 12.86718,-14.53907 2.14937,2.14937 2.57602,5.22167 1.23243,9.25196 -1.34361,4.03028 -3.22047,7.10259 -5.63868,9.25195 -2.41828,2.14937 -3.86891,4.4548 -4.40625,6.87305 -0.53734,2.41826 -2.4147,7.03106 -5.63867,13.74804 -3.22406,6.71695 -6.89751,11.92416 -10.92773,15.68555 -4.03031,3.76139 -7.01945,6.57807 -8.90039,8.45899 -1.88094,1.88092 -2.81836,4.44195 -2.81836,7.66601 0,3.22404 0.93742,7.4068 2.81836,12.51172 1.70463,4.62633 3.31929,7.27745 4.58203,7.93164 0.0452,0.0181 0.22345,0.0767 0.26562,0.0898 0.50352,0.10375 0.99531,0.30153 1.23438,0.4414 l 0.0898,0.0918 h 0.0918 v 0.0898 0.0898 h 0.0898 v 0.0898 0.0918 l -0.0898,0.0898 v 0.0898 l -0.0918,0.0899 -0.0898,0.0918 h -0.0898 v 0.0898 c -0.81712,0.41192 -3.0395,0.70508 -6.3457,0.70508 -1.64536,0 -2.87169,-0.1862 -3.4375,-0.44336 l -0.0898,-0.0899 h -0.0879 l -0.0898,-0.0898 v -0.0898 l -0.0918,-0.0918 v -0.0898 -0.0898 -0.0898 l 0.0918,-0.0899 v -0.0918 l 0.0898,-0.0899 c 0.15425,-0.20663 0.43914,-0.45242 0.79101,-0.70507 1.88095,-1.34359 0.003,-5.61086 -5.63867,-12.86524 -5.642334,-7.25429 -6.581708,-17.32805 -2.82031,-30.22461 -5.373749,3.7614 -7.763908,10.16372 -7.226565,19.29883 -0.537343,7.523 -5.14642,12.3897 -13.744141,14.53906 -8.597719,2.14937 -14.488837,2.66062 -17.71289,1.58594 1.612027,-6.44828 1.183909,-11.65527 -1.234375,-15.68555 -2.418283,-4.03015 -6.428058,-6.76189 -12.070313,-8.10547 -5.641039,-1.34358 -11.195827,-2.79468 -16.568359,-4.40625 4.297685,3.76012 8.740286,7.00711 13.306641,9.69336 4.567489,2.68671 7.299212,5.24776 8.105468,7.66602 0.806257,2.41825 0.552503,5.23494 -0.791015,8.45898 -1.343599,3.22405 -5.099699,4.59008 -11.279297,4.05274 -6.179598,-0.53734 -12.498997,-1.13649 -18.947266,-1.67383 -2.417959,-0.39387 -4.09005,-0.23835 -4.845703,0.26562 h -0.08984 l -0.0918,0.0918 -0.08789,0.0898 -0.08984,0.0898 v 0.0898 l -0.08984,0.0918 v 0.0898 0.26563 0.0898 0.0918 0.0898 0.0899 0.0898 l 0.08984,0.0898 c 0.04509,0.0902 0.121446,0.26585 0.175781,0.35157 0.536855,0.66006 1.710328,1.46058 3.347657,2.11523 4.567327,1.71263 7.431452,3.07388 8.283203,3.87695 l 0.08984,0.0918 v 0.0898 l 0.08984,0.0898 v 0.0898 0.0898 0.0918 h -0.08984 v 0.0899 h -0.08984 l -0.08984,0.0879 h -0.0918 c -0.369068,0.15791 -1.026045,0.26758 -2.025391,0.26757 -4.56749,0 -8.068045,-0.85477 -10.486328,-2.46679 -2.418283,-1.61202 -3.868908,-3.49126 -4.40625,-5.64063 -0.537342,-2.14932 -0.537342,-3.68312 0,-4.75781 v -0.0898 -0.0899 h 0.0918 v -0.0918 h 0.08984 v -0.0899 h 0.08984 l 0.08984,-0.0898 c 1.322433,-0.7345 5.665188,-0.70653 12.953125,0 8.328966,0.80624 13.708752,0.29678 16.126954,-1.58594 0.453488,-0.35282 0.849115,-0.83066 1.05664,-1.14648 l 0.08984,-0.0899 v -0.0918 c 0.03179,-0.1173 0.07847,-0.36923 0.08984,-0.44141 v -0.0898 l -0.08984,-0.0899 v -0.0918 c -0.01322,-0.0451 -0.06955,-0.22152 -0.08984,-0.26563 -0.02709,-0.0451 -0.142532,-0.22361 -0.175781,-0.26562 -0.660933,-0.56261 -2.13529,-1.13968 -4.142578,-1.4961 -4.567493,-0.80623 -9.005951,-0.80623 -13.304688,0 -4.298738,0.80624 -8.823995,0.3763 -13.660156,-1.23437 2.686712,-8.59773 7.382669,-16.19517 14.099609,-22.91211 6.71694,-6.71699 13.291967,-11.49884 19.740235,-14.18555 6.448269,-2.68671 13.788139,-5.84408 22.117187,-9.60547 8.329047,-3.76138 21.390268,-13.7524 39.123044,-29.87304 0.53734,-3.76162 1.98796,-6.40752 4.40625,-8.01954 0.90681,-0.60367 2.15428,-0.86773 3.70313,-0.79101 z m 763.84766,0 0.01,0.0234 c 1.54885,-0.0767 2.79435,0.18734 3.70117,0.79101 2.41828,1.61202 3.86891,4.25792 4.40625,8.01954 17.73278,16.12063 30.79595,26.11166 39.125,29.87304 8.32904,3.76139 15.66892,6.91876 22.11719,9.60547 6.44827,2.68671 13.02134,7.46856 19.73828,14.18555 6.71694,6.71694 11.41289,14.31438 14.09961,22.91211 -4.83617,1.61067 -9.35947,2.04061 -13.6582,1.23437 -4.29874,-0.80623 -8.73915,-0.80623 -13.30664,0 -2.00729,0.35642 -3.48165,0.93349 -4.14258,1.4961 -0.0332,0.042 -0.1487,0.2205 -0.17578,0.26562 -0.0203,0.0441 -0.0765,0.22052 -0.0898,0.26563 v 0.0918 l -0.0898,0.0899 v 0.0898 c 0.0114,0.0722 0.058,0.32411 0.0898,0.44141 v 0.0918 l 0.0898,0.0899 c 0.20752,0.31582 0.6051,0.79366 1.05859,1.14648 2.4182,1.88272 7.79604,2.39218 16.125,1.58594 7.28794,-0.70653 11.6307,-0.7345 12.95313,0 l 0.0918,0.0898 h 0.0898 v 0.0899 h 0.0898 v 0.0898 h 0.0899 v 0.0918 0.0898 c 0.53734,1.07469 0.53734,2.60849 0,4.75781 -0.53734,2.14937 -1.98797,4.02861 -4.40625,5.64063 -2.41829,1.61202 -5.91689,2.46679 -10.48438,2.46679 -0.99934,0 -1.65827,-0.10966 -2.02734,-0.26757 h -0.0918 l -0.0898,-0.0879 h -0.0899 v -0.0899 h -0.0898 v -0.0918 -0.0898 -0.0898 l 0.0898,-0.0898 v -0.0918 l 0.0899,-0.0899 c 0.85176,-0.80307 3.71782,-2.16432 8.28515,-3.87695 1.63733,-0.65465 2.81081,-1.45517 3.34766,-2.11523 0.0543,-0.0857 0.13069,-0.26133 0.17578,-0.35157 l 0.0898,-0.0898 v -0.0898 -0.0899 -0.0918 -0.0898 -0.0898 -0.26563 -0.0918 l -0.0898,-0.0899 v -0.0898 l -0.0898,-0.0898 -0.0918,-0.0898 -0.0898,-0.0918 h -0.0899 c -0.75565,-0.50397 -2.42969,-0.65949 -4.84765,-0.26562 -6.44826,0.53734 -12.76376,1.13649 -18.94336,1.67383 -6.1796,0.53734 -9.9357,-0.82869 -11.2793,-4.05274 -1.34351,-3.22404 -1.60118,-6.04073 -0.79492,-8.45898 0.80626,-2.41826 3.54188,-4.97931 8.10937,-7.66602 4.56635,-2.68625 9.007,-5.93324 13.30469,-9.69336 -5.37253,1.61157 -10.92537,3.06267 -16.56641,4.40625 -5.64225,1.34358 -9.65397,4.07532 -12.07226,8.10547 -2.41828,4.03028 -2.84641,9.23727 -1.23438,15.68555 -3.22398,1.07468 -9.11321,0.56148 -17.71093,-1.58789 -8.59772,-2.14936 -13.20876,-7.01411 -13.7461,-14.53711 0.53734,-9.13511 -1.85281,-15.53743 -7.22656,-19.29883 3.7614,12.89656 2.82398,22.97032 -2.81836,30.22461 -5.64226,7.25438 -7.52156,11.52164 -5.64062,12.86524 0.35188,0.25265 0.63871,0.49844 0.79296,0.70507 l 0.0898,0.0899 v 0.0898 l 0.0898,0.0918 v 0.0898 0.0898 0.0898 l -0.0898,0.0918 v 0.0898 l -0.0898,0.0898 h -0.0898 l -0.0898,0.0899 c -0.56581,0.25716 -1.7902,0.44336 -3.43555,0.44336 -3.30621,0 -5.52866,-0.29316 -6.3457,-0.70508 v -0.0918 h -0.0899 l -0.0918,-0.0898 -0.0899,-0.0899 v -0.0898 l -0.0898,-0.0898 v -0.0918 -0.0898 h 0.0898 v -0.0898 -0.0898 h 0.0899 l 0.0918,-0.0918 c 0.23907,-0.13987 0.72889,-0.33765 1.23242,-0.4414 0.0422,-0.0131 0.22241,-0.0719 0.26758,-0.0898 1.26275,-0.65419 2.87739,-3.30531 4.58203,-7.93164 1.88094,-5.10492 2.81836,-9.28768 2.81836,-12.51172 0,-3.22406 -0.93742,-5.78509 -2.81836,-7.66601 -1.88094,-1.88092 -4.87008,-4.69955 -8.90039,-8.46094 -4.03023,-3.76139 -7.70367,-8.96665 -10.92773,-15.6836 -3.22397,-6.71699 -5.10133,-11.32978 -5.63867,-13.74804 -0.53735,-2.41825 -1.98796,-4.72368 -4.40625,-6.87305 -2.4182,-2.14936 -4.29703,-5.22167 -5.64063,-9.25195 -1.34359,-4.03029 -0.91499,-7.1026 1.23438,-9.25196 3.22405,5.91094 7.49157,10.77768 12.86523,14.53907 2.14759,-0.53734 3.00414,-1.64774 2.4668,-3.25977 -4.29874,-3.76139 -7.79961,-7.5179 -10.48633,-11.2793 -2.68711,-3.76139 -2.42913,-6.57807 0.79492,-8.45898 3.22405,-1.88092 8.60205,-2.30905 16.125,-1.23437 4.36597,-2.01537 7.81464,-3.04599 10.39649,-3.17188 z m -762.53516,1.60938 c -1.10801,-0.0753 -2.37823,0.1884 -3.78906,0.79296 -3.22405,1.61202 -4.07883,4.00055 -2.4668,7.22461 1.61202,3.22404 4.34562,4.07883 8.10742,2.4668 3.76139,-1.6118 4.52828,-4.08845 2.37891,-7.3125 -1.00745,-2.01492 -2.38334,-3.04555 -4.23047,-3.17187 z m 761.22266,0 c -1.84712,0.12632 -3.22107,1.15695 -4.22852,3.17187 -2.14937,3.22405 -1.38248,5.7007 2.37891,7.3125 3.7618,1.61203 6.49344,0.75724 8.10547,-2.4668 1.61203,-3.22406 0.75725,-5.61259 -2.4668,-7.22461 -1.41083,-0.60456 -2.68104,-0.86831 -3.78906,-0.79296 z m -330.32617,28.52539 c 20.94889,23.70534 14.33407,45.7577 -19.84571,62.84765 -23.15397,0 -23.15397,6.33997 0,19.01953 H 330.03516 c 19.94666,-3.21656 51.92202,-14.36755 95.92382,-35.14453 53.12237,-25.08348 95.5011,-40.65853 121.9629,-46.72265 z m -446.2754,68.98632 c 0.62293,0 1.14375,0.26931 1.54688,0.80664 l 0.0898,0.0898 c 0.0541,0.16243 0.15064,0.50635 0.17578,0.61914 v 0.0879 0.0898 0.0899 0.0918 0.0898 0.0898 0.0898 l -0.0898,0.0918 -0.0898,0.0899 c -0.33339,0.52877 -1.05686,1.14505 -2.11524,1.67382 -2.149369,1.07468 -3.687963,2.44071 -4.494138,4.05274 -0.348478,0.70308 -0.512279,1.40996 -0.498047,2.11523 l -6.617187,-0.55859 c -2.275668,-0.78558 -5.135717,-1.31214 -8.56836,-1.57617 10.209829,-3.22387 16.356491,-5.61455 18.50586,-7.22657 0.806022,-0.53733 1.531352,-0.80664 2.154292,-0.80664 z m 791.98243,0 c 0.62298,0 1.34633,0.26931 2.15234,0.80664 2.14937,1.61203 8.29603,4.0027 18.50586,7.22657 -3.43328,0.26408 -6.29451,0.79036 -8.57031,1.57617 l -6.61328,0.55859 c 0.0146,-0.70538 -0.15153,-1.41206 -0.5,-2.11523 -0.80617,-1.61203 -2.34478,-2.97806 -4.49414,-4.05274 -1.05839,-0.52877 -1.78185,-1.14505 -2.11524,-1.67382 l -0.0898,-0.0899 -0.0899,-0.0918 v -0.0898 -0.0898 -0.0898 -0.0918 -0.0899 -0.0898 -0.0879 c 0.0251,-0.11279 0.12365,-0.45671 0.17774,-0.61914 l 0.0879,-0.0898 c 0.40313,-0.53733 0.92593,-0.80664 1.54883,-0.80664 z M 76.408203,842.96484 H 918.86719 c -97.68411,79.43552 -282.33067,125.04493 -421.23047,125.04493 -138.89975,0 -323.54439,-45.60947 -421.228517,-125.04493 z"
     sodipodi:nodetypes="ccscccsccccscscssccsscssscccsccsccssscccccsccsccccccccccccccccccccccccccccccccccccccccssssccccccccscccccccssssccccccccccccccccccccccccccccccccccccccsscscsccssscccssscsscsccccsccscscccsccsccsccssssccccccccscssssccccccccccccsscssscsssscsccscsccscccscccccccscssscsccscsccccccsssccccccscsccscssssscscccccscscccccsscccccccsccsscccsccccssssssssccccccccccccccccsccccccccccccccccscscccsssccccccccccccccccccccccccccccccssscccccccccccccccccccccscsssccccccccssscscccccccccccccccccccccsssccccccccccccccccccccccccccccccssssccscsccscccccccccccccsccccccccccccccccssssssssccccsccccssccccssccccccscsccccccccccccccccccssccccccccccccccccccsccsc" />
</svg>
