<?xml version="1.0" encoding="UTF-8" standalone="no"?>
<svg
   width="1143.9921"
   height="1000"
   version="1.1"
   id="svg1"
   sodipodi:docname="137F0.svg"
   inkscape:version="1.4.3 (0d15f75, 2025-12-25)"
   xmlns:inkscape="http://www.inkscape.org/namespaces/inkscape"
   xmlns:sodipodi="http://sodipodi.sourceforge.net/DTD/sodipodi-0.dtd"
   xmlns="http://www.w3.org/2000/svg"
   xmlns:svg="http://www.w3.org/2000/svg">
  <defs
     id="defs1" />
  <sodipodi:namedview
     id="namedview1"
     pagecolor="#ffffff"
     bordercolor="#666666"
     borderopacity="1.0"
     inkscape:showpageshadow="2"
     inkscape:pageopacity="0.0"
     inkscape:pagecheckerboard="0"
     inkscape:deskcolor="#d1d1d1"
     inkscape:zoom="0.3775"
     inkscape:cx="719.2053"
     inkscape:cy="713.90728"
     inkscape:window-width="1680"
     inkscape:window-height="998"
     inkscape:window-x="-8"
     inkscape:window-y="-8"
     inkscape:window-maximized="1"
     inkscape:current-layer="svg1"
     showguides="true">
    <sodipodi:guide
       position="0,1000"
       orientation="0,-1"
       id="guide1"
       inkscape:locked="false" />
    <sodipodi:guide
       position="0,-1.1368684e-13"
       orientation="0,-1"
       id="guide2"
       inkscape:locked="false" />
    <sodipodi:guide
       position="-1.7166138e-05,40.000006"
       orientation="0,-1"
       id="guide15"
       inkscape:locked="false" />
    <sodipodi:guide
       position="1102.6129,861.77345"
       orientation="1,0"
       id="guide16"
       inkscape:locked="false" />
  </sodipodi:namedview>
  <path
     id="path1"
     style="fill:#000000;stroke:none;stroke-width:53.4145"
     d="M 911.90625 -0.00390625 L 911.90625 23.78125 C 988.17287 23.78125 1026.3516 62.567885 1026.3516 140.10547 L 1026.3516 429.91992 L 1024.4746 429.91992 C 1007.3147 436.91107 993.64156 448.05144 983.47266 463.30469 C 950.42385 474.74469 922.06819 480.51757 898.55273 480.51758 C 875.03727 480.51758 847.08908 482.74447 814.67578 487.19336 C 770.18768 458.59342 730.7887 419.36554 691.08203 380.48828 C 664.32529 359.60498 634.95808 346.87881 602.98047 342.31055 L 602.00195 306.0918 C 618.31706 308.7022 633.32658 302.50206 647.03125 287.49219 C 660.73583 272.48227 667.26189 246.3781 666.60938 209.17969 C 666.60937 180.46514 653.88316 160.72304 628.43164 149.95508 C 614.71897 144.15358 600.39127 140.72184 585.44727 139.65625 L 585.44727 45.369141 C 585.44727 33.378912 587.97823 27.332031 593.19141 27.332031 C 598.4045 27.332021 601.02539 33.378912 601.02539 45.369141 L 619.06445 45.369141 C 619.58573 15.132919 609.5002 -9.4739031e-15 588.9082 0 C 568.31639 0 558.02539 14.925711 558.02539 44.640625 L 558.02539 78.988281 L 543.17578 78.988281 C 537.44131 78.988281 534.51953 83.023195 534.51953 91.103516 C 534.51953 99.183914 537.44131 103.2207 543.17578 103.2207 L 558.02539 103.2207 L 558.02539 140.24023 C 557.89305 140.23636 557.81253 140.25996 557.78125 140.30664 C 553.79884 140.76015 549.77663 141.36621 545.71484 142.125 C 516.02137 147.67214 494.97563 171.65495 482.57617 214.07422 C 474.74497 223.21062 465.93356 236.26275 456.14453 253.23047 C 451.57628 263.67213 451.74031 269.70834 456.63477 271.33984 C 461.52933 272.97135 465.28215 275.09269 467.89258 277.70312 C 460.87652 281.91272 463.72177 287.2052 469.77148 288.45508 C 469.33689 288.80943 468.38373 289.63031 466.91211 290.91797 C 464.30168 293.20205 464.79151 295.32344 468.38086 297.28125 C 471.97011 299.23905 473.6017 304.78542 473.27539 313.92188 C 472.94909 323.05832 479.96499 327.62695 494.32227 327.62695 C 501.50096 328.27954 507.70101 327.95363 512.92188 326.64844 L 516.83789 348.18359 C 483.55507 350.794 451.57659 362.54246 420.9043 383.42578 C 377.68662 412.66122 317.10877 450.00539 268.80664 488.13867 C 228.13119 483.68977 195.72721 480.14378 171.57617 477.60156 C 147.42508 475.05934 126.76541 469.38995 109.60547 460.49219 C 100.66114 447.86493 89.522535 438.22874 76.222656 431.69922 L 76.222656 140.11133 C 76.222656 62.573751 114.40148 23.787109 190.66797 23.787109 L 190.66797 0 C 90.885963 0 40.958984 46.077098 40.958984 138.23242 L -0.0390625 138.23242 L 40.958984 176.41406 L 40.958984 194.46289 L -0.0390625 194.46289 L 40.958984 235.46289 L 40.958984 253.61523 L -0.0390625 253.61523 L 40.958984 292.63281 L 40.958984 310.78516 L -0.97851562 310.78516 L 40.958984 348.96875 L 40.958984 366.07812 L -0.0390625 367.01758 L 40.958984 404.25977 L 40.958984 422.30859 L 0.90039062 422.30859 L 32.40625 458.30078 C 32.753818 472.12295 34.254435 481.35803 36.996094 486.15625 L -0.0390625 486.15625 L 40.958984 524.33984 L 40.958984 542.49023 L -0.0390625 542.49023 L 40.958984 583.49219 L 40.958984 601.54102 L -0.0390625 601.54102 L 40.958984 640.66211 L 40.958984 658.70898 L -0.97851562 658.70898 L 40.958984 696.89453 L 40.958984 714.00391 L -0.0390625 714.00391 L 40.958984 752.18555 L 40.958984 770.33789 L 0.90039062 770.33789 L 40.958984 816.0332 L 40.958984 960 L 0 960 L 0 1000 L 1102.6133 1000 L 1102.6133 960 L 1061.6133 960 L 1061.6133 816.02734 L 1101.6758 770.33203 L 1061.6133 770.33203 L 1061.6133 752.17969 L 1102.6133 713.99805 L 1061.6133 713.99805 L 1061.6133 696.88867 L 1103.5527 658.70508 L 1061.6133 658.70508 L 1061.6133 640.6582 L 1102.6133 601.53516 L 1061.6133 601.53516 L 1061.6133 583.48633 L 1102.6133 542.48633 L 1061.6133 542.48633 L 1061.6133 524.33398 L 1102.6133 486.15234 L 1061.6133 486.15234 L 1061.6133 468.10352 L 1101.6758 422.30469 L 1061.6133 422.30469 L 1061.6133 404.25586 L 1102.6133 367.01172 L 1061.6133 366.07227 L 1061.6133 348.96289 L 1103.5527 310.78125 L 1061.6133 310.78125 L 1061.6133 292.62695 L 1102.6133 253.60938 L 1061.6133 253.60938 L 1061.6133 235.45898 L 1102.6133 194.45703 L 1061.6133 194.45703 L 1061.6133 176.4082 L 1102.6133 138.22656 L 1061.6133 138.22656 C 1061.6133 46.07124 1011.6884 -0.00390625 911.90625 -0.00390625 z M 557.27734 157.32812 C 572.08327 156.4104 589.27541 158.5209 608.85352 163.66016 C 634.95765 170.5125 648.00977 186.01191 648.00977 210.1582 C 644.74673 242.1358 637.07902 264.16123 625.00586 276.23438 C 612.93271 288.30755 602.65373 290.75484 594.16992 283.57617 C 584.38089 277.70278 586.50222 267.75168 600.5332 253.7207 C 627.25135 227.00264 615.72238 182.74136 564.80273 208.20117 C 556.97153 199.0647 538.04703 192.21278 508.02734 187.64453 C 513.90072 172.63467 525.64726 163.17146 543.26758 159.25586 C 547.67264 158.27696 552.34203 157.63403 557.27734 157.32812 z M 501.17383 201.34766 C 525.32013 202.65285 544.89831 208.85301 559.9082 219.94727 C 559.25559 229.08374 563.00851 229.40964 571.16602 220.92578 C 587.62954 203.80383 610.1841 213.1795 598.57617 237.07812 C 593.029 248.49871 585.68729 258.12579 576.55078 265.95703 C 567.41436 273.78829 565.12911 281.61798 569.69727 289.44922 C 574.26553 297.28046 577.85636 304.13435 580.4668 310.00781 C 579.81419 335.45933 582.42341 351.44664 588.29688 357.97266 C 594.17025 364.49872 606.24445 368.57749 624.51758 370.20898 C 642.79051 371.84048 651.92578 379.83609 651.92578 394.19336 C 645.3998 407.89803 638.05799 435.79574 629.90039 477.88867 C 621.74288 519.9816 616.84823 549.34882 615.2168 565.99023 C 613.58509 582.63158 613.74921 611.18309 615.70703 651.64453 L 505.08984 699.61133 C 509.00549 645.44527 508.35368 601.06847 503.13281 566.48047 C 473.76574 506.44097 459.08203 450.96947 459.08203 400.06641 C 459.08203 382.44609 471.48038 373.30885 496.2793 372.65625 C 526.29908 372.65625 540.98269 364.49867 540.33008 348.18359 C 539.02487 324.03725 528.258 313.10652 508.02734 315.39062 C 487.79659 317.67471 479.31313 311.63852 482.57617 297.28125 C 494.97563 290.75523 499.38037 286.02461 495.79102 283.08789 C 492.20177 280.15118 485.83759 278.35571 476.70117 277.70312 C 476.70117 272.48226 472.46046 267.91367 463.97656 263.99805 C 472.46046 243.76737 480.61802 229.7375 488.44922 221.90625 C 496.93312 217.33803 505.7425 217.33803 514.87891 221.90625 C 524.01543 226.47447 533.15255 229.40964 542.28906 230.71484 L 542.28906 224.8418 C 536.41559 224.8418 528.90995 222.23252 519.77344 217.01172 C 510.63702 211.79088 501.1738 211.13709 491.38477 215.05273 C 495.30032 209.17928 498.56339 204.61067 501.17383 201.34766 z M 587.88672 216.76562 C 586.58534 216.79607 585.09631 217.02947 583.40234 217.5 C 570.92857 220.96503 559.01386 240.97091 562.8457 247.35742 C 554.43015 252.16629 550.22494 260.73268 559.41992 264.97656 C 568.91518 269.35905 589.75601 244.72512 593.68164 234.63086 C 596.91867 226.30693 596.99635 216.55253 587.88672 216.76562 z M 502.57812 223.2207 C 499.27686 223.32267 496.19891 224.18881 493.34375 225.82031 L 485.51172 233.65234 L 485.51172 239.52539 L 488.44922 238.54688 C 500.19616 244.42033 512.92228 244.42032 526.62695 238.54688 L 540.33008 242.46289 L 540.33008 234.63086 L 527.60547 233.65234 C 518.18351 226.4737 509.8409 222.99638 502.57812 223.2207 z M 584.13281 224.55273 C 587.33218 224.3921 589.33437 226.51183 588.78711 229.24805 C 586.73185 239.52441 578.11344 250.5628 571.16602 253.7207 C 567.57677 255.35222 567.57677 253.7207 571.16602 248.82617 C 574.75536 243.93163 574.75536 242.30013 571.16602 243.93164 C 567.57677 245.56317 566.76102 244.25754 568.71875 240.01562 C 573.92537 228.73486 580.01935 224.75926 584.13281 224.55273 z M 501.17383 227.7793 C 498.56339 231.04237 498.56339 233.97944 501.17383 236.58984 C 497.91079 235.93724 494.97566 234.95753 492.36523 233.65234 C 493.01783 231.04194 495.95296 229.08455 501.17383 227.7793 z M 509.98438 229.73633 L 521.73242 236.58984 C 517.16416 237.24243 512.92151 237.56836 509.00586 237.56836 C 512.2689 235.61056 512.5948 232.99935 509.98438 229.73633 z M 562.8457 254.20898 C 566.10874 256.16677 566.43466 258.12422 563.82422 260.08203 C 561.21379 262.03983 559.5823 262.03983 558.92969 260.08203 C 558.27709 258.12422 559.58266 256.16677 562.8457 254.20898 z M 486.60547 262.37891 C 485.99938 262.41306 485.66669 263.94553 486.00195 265.95703 C 486.60031 269.54709 482.92266 271.50618 478.66016 266.44531 C 474.46861 261.46852 471.47147 261.32764 471.30664 267.24023 C 473.26447 265.28239 475.0713 266.60807 477.68164 269.87109 C 483.45431 277.08694 489.63136 270.68497 488.44922 265.95703 C 487.79781 263.35134 487.10766 262.35061 486.60547 262.37891 z M 474.04492 281.01953 C 474.67594 281.00588 475.3976 281.03831 476.21289 281.12891 C 479.14963 281.45518 482.57458 281.94505 486.49023 282.59766 C 490.40578 283.25025 492.03728 283.90204 491.38477 284.55469 L 472.78711 284.55469 C 469.635 283.50391 469.62782 281.11509 474.04492 281.01953 z M 491.38477 286.51367 C 488.48058 288.44976 482.03755 292.38672 477.68164 292.38672 C 473.8666 292.38672 471.41918 291.79556 474.74414 288.4707 L 491.38477 286.51367 z M 417.85938 443.98828 C 424.14791 443.78566 429.2565 449.91073 433.21875 462.35547 C 441.20601 489.33777 457.65842 524.3721 482.57617 567.45898 C 487.79704 608.57303 486.55611 650.66646 479.63867 693.73828 C 404.1763 610.85761 353.86897 567.13266 328.71484 562.56445 C 301.67414 567.13266 284.06567 577.24766 275.89062 592.91016 C 251.99422 648.38147 237.08658 738.4406 221.36523 863.08789 C 215.7056 895.0653 204.22905 911.70641 186.93555 913.01172 C 169.64214 914.31694 140.24253 920.51709 98.738281 931.61133 C 82.174987 937.96895 74.942603 953.15403 98.738281 960 L 76.222656 960 L 76.222656 486.36523 C 85.288964 483.14766 90.121911 481.19966 90.724609 480.62695 L 90.826172 480.62695 C 135.28973 521.13689 195.50915 540.23054 271.625 537.69336 C 345.98479 496.38243 389.9346 468.2285 403.28125 453.29297 C 408.70201 447.22687 413.55669 444.12692 417.85938 443.98828 z M 668.59375 451.30273 C 672.42509 451.39371 677.44789 454.14628 683.64453 459.54883 C 696.0378 470.3533 734.92074 498.90944 800.38281 545.30469 C 863.30267 544.03343 930.64329 523.37582 1002.4609 483.33594 L 1026.3516 491.57617 L 1026.3516 960 L 616.68555 960 C 638.87403 957.38948 650.29457 951.18942 650.94727 941.40039 C 658.12587 910.7281 667.91499 868.63504 680.31445 819.03711 C 680.31445 800.11167 670.85132 790.65039 651.92578 790.65039 C 666.93577 768.46181 667.91535 732.0787 654.86328 681.50195 C 642.53004 633.71069 644.47232 559.55108 660.69141 459.02539 L 660.69141 459.02344 C 662.12143 453.78138 664.76288 451.21177 668.59375 451.30273 z M 333.42969 590.95312 C 362.98582 604.65779 406.37792 647.07706 463.60352 718.21094 C 423.35699 746.92541 379.96488 783.14478 333.42969 826.86914 L 333.42969 590.95312 z M 625.49609 668.28711 C 635.93782 697.65428 641.1582 725.06214 641.1582 750.51367 C 641.1582 775.96519 633.16458 792.93416 617.17578 801.41797 C 601.18698 809.90187 572.63541 821.64831 531.52148 836.6582 C 469.52409 827.52169 413.92335 852.64625 361.72852 912.0332 C 366.13052 878.09787 400.71834 820.99483 465.49023 740.72461 L 625.49609 668.28711 z M 315.48242 712.17188 L 314.56445 848.4043 C 299.47196 862.76158 290.03877 873.8563 286.26562 881.6875 C 278.09058 897.35 280.13581 914.80675 292.39844 934.05859 C 301.75467 948.74743 313.21501 956.94127 326.78125 960 L 270.41602 960 C 278.59117 952.82141 280.16172 937.48589 275.13086 913.99219 C 270.1 890.49849 271.48778 860.47741 289.0957 823.93164 C 306.15875 788.51653 314.95448 751.264 315.48242 712.17188 z M 610.8125 863.08789 C 635.61142 891.14984 627.77978 917.25361 587.31836 937.48438 C 559.90911 937.48438 559.90911 944.99011 587.31836 960 L 354.13672 960 C 377.82576 955.87818 415.25823 942.5607 466.43359 918.39648 C 529.3189 888.7031 579.4875 870.26648 610.8125 863.08789 z M 14.679688 974.67969 L 1087.9336 974.67969 L 1087.9336 985.32031 L 14.679688 985.32031 L 14.679688 974.67969 z " />
</svg>
