<?xml version="1.0" encoding="UTF-8" standalone="no"?>
<svg
   width="1143.9921"
   height="1000"
   version="1.1"
   id="svg1"
   sodipodi:docname="137F9.svg"
   inkscape:version="1.4.3 (0d15f75, 2025-12-25)"
   xmlns:inkscape="http://www.inkscape.org/namespaces/inkscape"
   xmlns:sodipodi="http://sodipodi.sourceforge.net/DTD/sodipodi-0.dtd"
   xmlns="http://www.w3.org/2000/svg"
   xmlns:svg="http://www.w3.org/2000/svg">
  <defs
     id="defs1" />
  <sodipodi:namedview
     id="namedview1"
     pagecolor="#ffffff"
     bordercolor="#666666"
     borderopacity="1.0"
     inkscape:showpageshadow="2"
     inkscape:pageopacity="0.0"
     inkscape:pagecheckerboard="0"
     inkscape:deskcolor="#d1d1d1"
     inkscape:zoom="0.3775"
     inkscape:cx="168.21192"
     inkscape:cy="618.54305"
     inkscape:window-width="1680"
     inkscape:window-height="998"
     inkscape:window-x="-8"
     inkscape:window-y="-8"
     inkscape:window-maximized="1"
     inkscape:current-layer="svg1"
     showguides="true">
    <sodipodi:guide
       position="196.06133,982.11812"
       orientation="0,-1"
       id="guide1"
       inkscape:locked="false" />
    <sodipodi:guide
       position="0,1000"
       orientation="1,0"
       id="guide2"
       inkscape:locked="false" />
  </sodipodi:namedview>
  <path
     id="path1"
     style="fill:#000000;stroke:none;stroke-width:55.6401"
     inkscape:transform-center-x="-224.69313"
     inkscape:transform-center-y="-491.05647"
     d="M 588.65625 0 C 541.35815 0 502.82227 38.535882 502.82227 85.833984 C 502.82227 120.88583 523.98716 151.12629 554.19727 164.43555 C 526.49305 171.80884 506.65794 195.9591 494.69336 236.89062 C 486.68176 246.23749 477.66882 259.59063 467.6543 276.94922 C 462.98081 287.6314 463.14709 293.80749 468.1543 295.47656 C 473.16161 297.14565 477.0013 299.31578 479.67188 301.98633 C 472.49419 306.2929 475.40467 311.70765 481.59375 312.98633 C 481.14915 313.34884 480.17544 314.18853 478.66992 315.50586 C 475.99935 317.84255 476.49979 320.01272 480.17188 322.01562 C 483.8438 324.01853 485.51351 329.69215 485.17969 339.03906 C 484.84587 348.38598 492.02293 353.06055 506.71094 353.06055 C 514.05499 353.72817 520.39716 353.39385 525.73828 352.05859 L 529.74414 374.0918 C 495.69464 376.76233 462.9804 388.77821 431.60156 410.14258 C 387.38835 440.05148 325.41283 478.25784 275.99805 517.26953 C 234.38563 512.71815 201.23667 509.08907 176.5293 506.48828 C 151.82189 503.88751 130.68608 498.08709 113.13086 488.98438 C 103.98049 476.06624 92.586715 466.20923 78.980469 459.5293 L 78.980469 161.22461 C 78.980469 81.900922 118.03724 42.220703 196.06055 42.220703 L 196.06055 17.886719 C 93.980014 17.886719 42.904297 65.024592 42.904297 159.30273 L 0.9609375 159.30273 L 42.904297 198.36328 L 42.904297 216.82812 L 0.9609375 216.82812 L 42.904297 258.77344 L 42.904297 277.34375 L 0.9609375 277.34375 L 42.904297 317.25977 L 42.904297 335.83203 L 0 335.83203 L 42.904297 374.89258 L 42.904297 392.39648 L 0.9609375 393.35742 L 42.904297 431.45898 L 42.904297 449.92383 L 1.921875 449.92383 L 34.154297 486.74414 C 34.509871 500.88472 36.044795 510.33344 38.849609 515.24219 L 0.9609375 515.24219 L 42.904297 554.30273 L 42.904297 572.87305 L 0.9609375 572.87305 L 42.904297 614.81836 L 42.904297 633.2832 L 0.9609375 633.2832 L 42.904297 673.30664 L 42.904297 691.76953 L 0 691.76953 L 42.904297 730.83203 L 42.904297 748.33594 L 0.9609375 748.33594 L 42.904297 787.39844 L 42.904297 805.96875 L 1.921875 805.96875 L 42.900391 852.71094 L 42.900391 852.71289 L 42.900391 897.97852 C 37.697691 900.4613 31.256316 902.70719 25.291016 904.80859 C -3.3426856 914.89551 -21.746259 927.92349 -29.880859 943.86719 C -38.015459 959.811 -39.771897 973.149 -35.216797 983.88672 C -30.661497 994.62443 -24.975578 1000 -18.142578 1000 L 4.8007812 1000 L 42.904297 1000 L 77.048828 1000 L 78.980469 1000 L 78.980469 998.00977 C 79.165124 998.68272 79.482928 999.35437 79.929688 1000.0254 L 156.01758 1000.0254 L 164.875 1000.0254 C 164.875 1000.017 164.87504 1000.0084 164.875 1000 L 277.64453 1000 C 286.00799 992.65605 287.61745 976.96653 282.4707 952.93164 C 277.32395 928.89676 278.74233 898.18644 296.75586 860.79883 C 314.21112 824.56962 323.21108 786.45931 323.75195 746.46875 L 322.8125 885.83398 C 307.37235 900.52198 297.72139 911.87121 293.86133 919.88281 C 285.49796 935.9061 287.58966 953.76562 300.13477 973.46094 C 312.67987 993.15616 328.92363 1000 348.86719 1000 C 370.74069 1000 413.84383 987.81498 478.17773 957.4375 C 542.51163 927.06012 593.83623 908.19943 625.88281 900.85547 C 651.25298 929.56385 643.24112 956.27002 601.84766 976.9668 C 573.80702 976.9668 573.80702 984.64435 601.84766 1000 L 631.89258 1000 C 654.59218 997.32934 666.27562 990.98718 666.94336 980.97266 C 674.28732 949.59382 684.30124 906.53146 696.98633 855.79102 C 696.98633 836.42962 687.30486 826.74805 667.94336 826.74805 C 683.29911 804.04834 684.30194 766.82773 670.94922 715.08594 C 658.33194 666.19403 660.31965 590.32685 676.91211 487.48633 L 676.91211 487.48438 L 676.91211 487.48242 C 679.83862 476.75803 687.7153 476.96878 700.39258 488.02148 C 713.07134 499.07484 752.85226 528.28798 819.82227 575.75195 C 884.19151 574.4514 953.08267 553.31768 1026.5547 512.35547 L 1050.9941 520.78516 L 1050.9941 869.82227 C 1048.8717 867.12248 1046.8355 864.30871 1045.1309 861.40039 C 1043.1786 856.19387 1038.2185 852.78345 1030.084 851.15625 C 1021.9494 849.52912 1013.8833 850.97547 1006.0742 855.53125 C 1000.8682 854.22975 994.76976 854.22975 987.61133 855.53125 C 980.45285 856.83275 974.86737 863.03669 970.96289 874.09961 L 973.95117 876.98047 C 970.04668 883.48811 969.32085 889.90194 971.92383 896.08398 C 974.52683 902.2663 977.31925 906.29776 980.24805 908.25 C 983.17614 910.20224 984.62305 912.37461 984.62305 914.65234 C 984.62305 916.93022 986.89788 922.92601 991.45312 932.6875 C 996.00828 942.44909 1001.6942 949.5816 1008.5273 954.13672 C 1015.3605 958.69195 1018.4632 963.44915 1017.8125 968.33008 C 1017.1617 973.21096 1015.4051 977.13979 1012.4766 980.06836 C 1009.5479 982.997 998.5871 985.68423 979.71484 988.28711 C 977.76261 988.28711 974.86716 989.63137 970.96289 992.23438 C 967.0584 994.83736 965.09375 997.42255 965.09375 1000.0254 L 973.95117 1000.0254 L 1050.041 1000.0254 C 1050.4919 999.34821 1050.8102 998.6694 1050.9941 997.99023 L 1050.9941 1000 L 1052.9219 1000 L 1087.0703 1000 L 1125.168 1000 L 1148.1113 1000 C 1154.9443 1000 1160.6302 994.62443 1165.1855 983.88672 C 1169.7406 973.149 1167.9842 959.811 1159.8496 943.86719 C 1151.715 927.92349 1133.3114 914.89551 1104.6777 904.80859 C 1098.7126 902.70725 1092.2729 900.46122 1087.0703 897.97852 L 1087.0703 852.71094 L 1128.0547 805.96289 L 1087.0703 805.96289 L 1087.0703 787.39258 L 1129.0137 748.33203 L 1087.0703 748.33203 L 1087.0703 730.82812 L 1129.9746 691.76562 L 1087.0703 691.76562 L 1087.0703 673.30078 L 1129.0137 633.27734 L 1087.0703 633.27734 L 1087.0703 614.81445 L 1129.0137 572.86914 L 1087.0703 572.86914 L 1087.0703 554.29883 L 1129.0137 515.23633 L 1087.0703 515.23633 L 1087.0703 496.77148 L 1128.0547 449.91797 L 1087.0703 449.91797 L 1087.0703 431.45312 L 1129.0137 393.35352 L 1087.0703 392.39062 L 1087.0703 374.88867 L 1129.9746 335.82617 L 1087.0703 335.82617 L 1087.0703 317.25391 L 1129.0137 277.33789 L 1087.0703 277.33789 L 1087.0703 258.76758 L 1129.0137 216.82422 L 1087.0703 216.82422 L 1087.0703 198.35938 L 1129.0137 159.29688 L 1087.0703 159.29688 C 1087.0703 65.018692 1035.9947 17.882814 933.91406 17.882812 L 933.91406 42.216797 C 1011.9375 42.216797 1050.9941 81.895054 1050.9941 161.21875 L 1050.9941 457.70898 L 1049.0742 457.70898 C 1031.5191 464.86117 1017.5321 476.25867 1007.1289 491.86328 C 973.31891 503.5668 944.3091 509.47265 920.25195 509.47266 C 896.1948 509.47266 867.60332 511.75136 834.44336 516.30273 C 788.93047 487.04398 748.62328 446.91147 708.00195 407.13867 C 680.62885 385.77431 650.58531 372.75552 617.87109 368.08203 L 616.87109 331.0293 C 633.56202 333.69983 648.91714 327.35563 662.9375 312 C 676.95777 296.64432 683.63434 269.94006 682.9668 231.88477 C 682.9668 202.50878 669.94797 182.31287 643.91016 171.29688 C 637.14871 168.43627 630.2416 166.13745 623.1875 164.40234 C 653.35914 151.07698 674.48828 120.85832 674.48828 85.833984 C 674.48828 38.535882 635.95435 9.4739031e-15 588.65625 0 z M 588.65625 18 C 626.22643 18 656.48828 48.263804 656.48828 85.833984 C 656.48828 123.40416 626.22643 153.66797 588.65625 153.66797 C 551.08607 153.66797 520.82227 123.40416 520.82227 85.833984 C 520.82227 48.263804 551.08607 18 588.65625 18 z M 582.93555 178.71484 C 595.21106 179.17264 608.85904 181.37317 623.88086 185.31641 C 650.58631 192.3266 663.93945 208.18227 663.93945 232.88477 C 660.60125 265.59899 652.75556 288.13311 640.4043 300.48438 C 628.05304 312.83567 617.53857 315.33818 608.85938 307.99414 C 598.84486 301.98545 601.01301 291.80535 615.36719 277.45117 C 642.7008 250.11764 630.90706 204.83652 578.81445 230.88281 C 570.80286 221.53587 551.44167 214.52504 520.73047 209.85156 C 526.73915 194.49594 538.75699 184.81634 556.7832 180.81055 C 561.28973 179.80909 566.06819 179.15085 571.11719 178.83789 C 574.90394 178.60318 578.84371 178.56225 582.93555 178.71484 z M 513.7207 223.87305 C 538.42323 225.2083 558.45294 231.55057 573.80859 242.90039 C 573.14094 252.24732 576.9788 252.58163 585.32422 243.90234 C 602.16698 226.38598 625.24056 235.97663 613.36523 260.42578 C 607.69028 272.10944 600.179 281.95712 590.83203 289.96875 C 581.48515 297.9804 579.14888 305.99227 583.82227 314.00391 C 588.49575 322.01554 592.16733 329.02445 594.83789 335.0332 C 594.17025 361.07101 596.84084 377.42912 602.84961 384.10547 C 608.85828 390.78186 621.21025 394.95398 639.9043 396.62305 C 658.59816 398.29213 667.94531 406.47217 667.94531 421.16016 C 661.26899 435.18052 653.75762 463.72064 645.41211 506.7832 C 637.06669 549.84575 632.05962 579.88931 630.39062 596.91406 C 628.72132 613.93876 628.88771 643.14753 630.89062 684.54102 L 517.72656 733.61328 C 521.73241 678.19949 521.06379 632.80076 515.72266 597.41602 C 485.6791 535.99349 470.6582 479.24359 470.6582 427.16797 C 470.6582 409.14175 483.34273 399.79459 508.71289 399.12695 C 539.42419 399.12695 554.44694 390.7827 553.7793 374.0918 C 552.44402 349.38923 541.42715 338.20624 520.73047 340.54297 C 500.0337 342.87967 491.35515 336.70364 494.69336 322.01562 C 507.37844 315.33929 511.88492 310.49851 508.21289 307.49414 C 504.54097 304.48978 498.03047 302.65396 488.68359 301.98633 C 488.68359 296.6452 484.34536 291.97065 475.66602 287.96484 C 484.34536 267.26814 492.68957 252.91398 500.70117 244.90234 C 509.3805 240.22889 518.39335 240.22889 527.74023 244.90234 C 537.08721 249.57579 546.43427 252.58076 555.78125 253.91602 L 555.78125 247.9082 C 549.77248 247.9082 542.09503 245.23754 532.74805 239.89648 C 523.40117 234.55537 513.7196 233.88675 503.70508 237.89258 C 507.71083 231.88384 511.05014 227.21121 513.7207 223.87305 z M 602.42969 239.64453 C 601.09833 239.67568 599.57479 239.91511 597.8418 240.39648 C 585.0807 243.94132 572.89239 264.40779 576.8125 270.94141 C 568.20309 275.86106 563.89986 284.62516 573.30664 288.9668 C 583.02064 293.45024 604.34136 268.24866 608.35742 257.92188 C 611.66901 249.4062 611.74917 239.42652 602.42969 239.64453 z M 515.15625 246.24805 C 511.77894 246.35236 508.62991 247.23912 505.70898 248.9082 L 497.69727 256.91992 L 497.69727 262.92969 L 500.70117 261.92773 C 512.71871 267.93648 525.73744 267.93648 539.75781 261.92773 L 553.7793 265.93359 L 553.7793 257.92188 L 540.75977 256.91992 C 531.12077 249.57592 522.58633 246.01856 515.15625 246.24805 z M 599.18945 247.60742 C 602.10938 247.72043 603.87644 249.78978 603.35156 252.41406 C 601.24895 262.92714 592.43168 274.22052 585.32422 277.45117 C 581.65229 279.12027 581.65229 277.45064 585.32422 272.44336 C 588.99624 267.43607 588.99624 265.76645 585.32422 267.43555 C 581.65229 269.10466 580.81749 267.76933 582.82031 263.42969 C 588.14688 251.88907 594.38162 247.82262 598.58984 247.61133 C 598.79441 247.60106 598.99479 247.59989 599.18945 247.60742 z M 513.7207 250.91211 C 511.05014 254.25034 511.05014 257.25525 513.7207 259.92578 C 510.3825 259.25815 507.37759 258.25517 504.70703 256.91992 C 505.37467 254.24938 508.37957 252.24742 513.7207 250.91211 z M 522.73438 252.91406 L 534.75 259.92578 C 530.07651 260.59341 525.73826 260.92578 521.73242 260.92578 C 525.07062 258.92288 525.40492 256.25224 522.73438 252.91406 z M 576.8125 277.95117 C 580.15071 279.95406 580.48502 281.95607 577.81445 283.95898 C 575.14389 285.96187 573.47429 285.96187 572.80664 283.95898 C 572.139 281.95607 573.4743 279.95406 576.8125 277.95117 z M 498.81641 286.30859 C 498.19635 286.34353 497.85428 287.91091 498.19727 289.96875 C 498.80943 293.64151 495.04818 295.6462 490.6875 290.46875 C 486.39939 285.37731 483.33269 285.23246 483.16406 291.28125 C 485.16698 289.27831 487.01508 290.63642 489.68555 293.97461 C 495.5912 301.35668 501.91054 294.8056 500.70117 289.96875 C 500.03475 287.30303 499.33017 286.27964 498.81641 286.30859 z M 485.96484 305.37891 C 486.61039 305.36494 487.34952 305.39951 488.18359 305.49219 C 491.18798 305.82598 494.69338 306.3265 498.69922 306.99414 C 502.70497 307.66176 504.37263 308.3284 503.70508 308.99609 L 484.67773 308.99609 C 481.45302 307.92111 481.446 305.47666 485.96484 305.37891 z M 503.70508 311 C 500.73399 312.98069 494.14179 317.00781 489.68555 317.00781 C 485.78263 317.00781 483.28009 316.4034 486.68164 313.00195 L 503.70508 311 z M 428.48828 472.10156 C 434.92176 471.89459 440.14569 478.16118 444.19922 490.89258 C 452.37048 518.49643 469.20162 554.3366 494.69336 598.41602 C 500.03449 640.47715 498.76428 683.53953 491.6875 727.60352 C 414.48682 642.81367 363.02067 598.0836 337.28711 593.41016 C 309.62352 598.0836 291.60946 608.43178 283.24609 624.45508 C 258.79922 681.20418 243.54834 773.3369 227.46484 900.85547 C 221.67484 933.5695 209.93405 950.59431 192.24219 951.92969 C 175.99263 953.15612 149.29494 958.60661 112.15039 968.28125 C 111.5275 963.41786 114.63158 958.67637 121.44141 954.13672 C 128.27451 949.5816 133.96049 942.44909 138.51562 932.6875 C 143.07088 922.92601 145.3457 916.93022 145.3457 914.65234 C 145.3457 912.37461 146.79261 910.20224 149.7207 908.25 C 152.6495 906.29776 155.44192 902.2663 158.04492 896.08398 C 160.6479 889.90194 159.92207 883.48811 156.01758 876.98047 L 159.00586 874.09961 C 155.10138 863.03669 149.5159 856.83275 142.35742 855.53125 C 135.19899 854.22975 129.10248 854.22975 123.89648 855.53125 C 116.08738 850.97547 108.01937 849.52912 99.884766 851.15625 C 91.750266 852.78345 86.790191 856.19387 84.837891 861.40039 C 83.134568 864.3064 81.101088 867.11859 78.980469 869.81641 L 78.980469 515.45508 C 88.255623 512.16338 93.197872 510.16988 93.814453 509.58398 L 93.919922 509.58398 C 139.40772 551.02708 201.01361 570.56047 278.88281 567.96484 C 354.95551 525.7023 399.91819 496.90068 413.57227 481.62109 C 419.11789 475.41526 424.08643 472.24318 428.48828 472.10156 z M 342.11133 622.45117 C 372.3483 636.47153 416.73939 679.86816 475.2832 752.64062 C 434.10958 782.01654 389.71848 819.07116 342.11133 863.80273 L 342.11133 622.45117 z M 640.9043 701.56641 C 651.58656 731.61007 656.92773 759.65164 656.92773 785.68945 C 656.92773 811.72726 648.74969 829.08443 632.39258 837.76367 C 616.03547 846.443 586.82663 858.46076 544.76562 873.81641 C 481.3401 864.46944 424.45965 890.17474 371.0625 950.92969 C 375.56591 916.21264 410.94895 857.7931 477.21289 775.67383 L 640.9043 701.56641 z M 102.45508 864.36133 C 105.58188 864.51377 109.75944 865.76244 115.04688 868.20312 C 124.15757 866.90162 130.67168 867.41939 134.57617 869.69727 C 138.48066 871.97516 138.79134 875.38618 135.53711 879.94141 C 132.28336 884.49664 128.04389 889.04633 122.83789 893.60156 C 122.18719 895.55381 123.22537 896.90003 125.82617 897.55078 C 132.33394 892.99555 137.50176 887.09986 141.40625 879.94141 C 144.00925 882.5444 144.52756 886.2656 142.90039 891.14648 C 141.27322 896.02736 138.99888 899.74858 136.07031 902.35156 C 133.14165 904.95456 131.38512 907.74715 130.73438 910.67578 C 130.08362 913.60442 127.8087 919.1896 123.9043 927.32422 C 119.9998 935.45878 115.55266 941.76508 110.67188 946.32031 C 105.79098 950.87554 102.17048 954.28655 99.892578 956.56445 C 97.614578 958.84233 96.478516 961.94317 96.478516 965.84766 C 96.478516 969.75215 97.614578 974.81963 99.892578 981.00195 C 101.95698 986.60467 103.91416 989.81516 105.44336 990.60742 C 105.49806 990.6293 105.71465 990.701 105.76562 990.7168 C 106.37543 990.84246 106.97027 991.08256 107.25977 991.25195 L 107.36914 991.36133 L 107.47656 991.36133 L 107.47656 991.4707 L 107.47656 991.58008 L 107.58594 991.58008 L 107.58594 991.68945 L 107.58594 991.79883 L 107.47656 991.90625 L 107.47656 992.01562 L 107.36914 992.125 L 107.25977 992.23438 L 107.15039 992.23438 L 107.15039 992.34375 C 106.16079 992.84261 103.4708 993.19727 99.466797 993.19727 C 97.474197 993.19727 95.989987 992.97355 95.304688 992.66211 L 95.195312 992.55273 L 95.085938 992.55273 L 94.976562 992.44336 L 94.976562 992.33398 L 94.867188 992.22656 L 94.867188 992.11719 L 94.867188 992.00781 L 94.867188 991.89844 L 94.976562 991.78906 L 94.976562 991.67969 L 95.085938 991.57031 C 95.272738 991.32007 95.620775 991.02278 96.046875 990.7168 C 98.324775 989.08965 96.049897 983.92019 89.216797 975.13477 C 82.383697 966.34945 81.245581 954.14963 85.800781 938.53125 C 79.292881 943.08649 76.399981 950.83925 77.050781 961.90234 C 76.399981 971.01307 70.814544 976.90874 60.402344 979.51172 C 49.990044 982.11472 42.857625 982.73313 38.953125 981.43164 C 40.905325 973.62244 40.387684 967.31643 37.458984 962.43555 C 34.530284 957.55483 29.672844 954.24628 22.839844 952.61914 C 16.008244 950.992 9.2817906 949.2349 2.7753906 947.2832 C 7.9800906 951.8369 13.360525 955.76829 18.890625 959.02148 C 24.422025 962.27521 27.732484 965.37605 28.708984 968.30469 C 29.685384 971.23332 29.375047 974.6463 27.748047 978.55078 C 26.120847 982.45527 21.571691 984.10973 14.087891 983.45898 C 6.6040894 982.80823 -1.0463688 982.08239 -8.8554688 981.43164 C -11.783769 980.95465 -13.809509 981.1436 -14.724609 981.75391 L -14.833984 981.75391 L -14.943359 981.86328 L -15.052734 981.97266 L -15.162109 982.08203 L -15.162109 982.19141 L -15.271484 982.30078 L -15.271484 982.41016 L -15.271484 982.73242 L -15.271484 982.8418 L -15.271484 982.95117 L -15.271484 983.06055 L -15.271484 983.16992 L -15.271484 983.27734 L -15.162109 983.38672 C -15.107509 983.496 -15.015219 983.71064 -14.949219 983.81445 C -14.299019 984.61382 -12.877431 985.58219 -10.894531 986.375 C -5.3632319 988.44909 -1.8947813 990.09775 -0.86328125 991.07031 L -0.75390625 991.17969 L -0.75390625 991.28906 L -0.64453125 991.39844 L -0.64453125 991.50781 L -0.64453125 991.61719 L -0.64453125 991.72656 L -0.75390625 991.72656 L -0.75390625 991.83594 L -0.86328125 991.83594 L -0.97265625 991.94531 L -1.0820312 991.94531 C -1.5290313 992.13655 -2.3249563 992.26758 -3.5351562 992.26758 C -9.0666563 992.26758 -13.305675 991.23154 -16.234375 989.2793 C -19.162975 987.32706 -20.919512 985.05221 -21.570312 982.44922 C -22.221013 979.84628 -22.221013 977.98705 -21.570312 976.68555 L -21.570312 976.57617 L -21.570312 976.4668 L -21.460938 976.4668 L -21.460938 976.35742 L -21.351562 976.35742 L -21.351562 976.25 L -21.242188 976.25 L -21.132812 976.14062 C -19.531313 975.25113 -14.273366 975.28499 -5.4472656 976.14062 C 4.6395344 977.11703 11.153531 976.49883 14.082031 974.21875 C 14.631231 973.79147 15.111981 973.2145 15.363281 972.83203 L 15.472656 972.72266 L 15.472656 972.61328 C 15.510856 972.47121 15.568031 972.16554 15.582031 972.07812 L 15.582031 971.96875 L 15.472656 971.85938 L 15.472656 971.75 C 15.456356 971.69536 15.387281 971.48113 15.363281 971.42773 C 15.330481 971.37309 15.190391 971.15637 15.150391 971.10547 C 14.349991 970.42412 12.565766 969.72266 10.134766 969.29102 C 4.6033644 968.31463 -0.7744686 968.31463 -5.9804688 969.29102 C -11.186469 970.26741 -16.664584 969.74748 -22.521484 967.79688 C -19.267684 957.38459 -13.579913 948.18534 -5.4453125 940.05078 C 2.6891875 931.91616 10.649784 926.12288 18.458984 922.86914 C 26.268184 919.6154 35.157241 915.79351 45.244141 911.23828 C 55.331041 906.68305 71.151653 894.58347 92.626953 875.06055 C 93.277753 870.50505 95.034291 867.30186 97.962891 865.34961 C 99.061091 864.61854 100.56766 864.29577 102.44336 864.38867 L 102.45508 864.36133 z M 1027.5156 864.36133 L 1027.5254 864.38867 C 1029.4011 864.29577 1030.9096 864.61854 1032.0078 865.34961 C 1034.9364 867.30186 1036.6928 870.50505 1037.3438 875.06055 C 1058.819 894.58347 1074.6377 906.68305 1084.7246 911.23828 C 1094.8115 915.79351 1103.7025 919.6154 1111.5117 922.86914 C 1119.3209 926.12288 1127.2815 931.91616 1135.416 940.05078 C 1143.5506 948.18534 1149.2364 957.38459 1152.4902 967.79688 C 1146.6333 969.74748 1141.1552 970.26741 1135.9492 969.29102 C 1130.7432 968.31463 1125.3673 968.31463 1119.8359 969.29102 C 1117.4049 969.72266 1115.6188 970.42412 1114.8184 971.10547 C 1114.7784 971.15637 1114.6383 971.37309 1114.6055 971.42773 C 1114.5815 971.48113 1114.5124 971.69536 1114.4961 971.75 L 1114.4961 971.85938 L 1114.3867 971.96875 L 1114.3867 972.07812 C 1114.4007 972.16553 1114.4579 972.47121 1114.4961 972.61328 L 1114.4961 972.72266 L 1114.6055 972.83203 C 1114.8568 973.2145 1115.3375 973.79147 1115.8867 974.21875 C 1118.8152 976.49883 1125.3292 977.11703 1135.416 976.14062 C 1144.2421 975.28499 1149.502 975.25112 1151.1035 976.14062 L 1151.2129 976.25 L 1151.3223 976.25 L 1151.3223 976.35742 L 1151.4316 976.35742 L 1151.4316 976.4668 L 1151.541 976.4668 L 1151.541 976.57617 L 1151.541 976.68555 C 1152.1917 977.98705 1152.1917 979.84628 1151.541 982.44922 C 1150.8902 985.05221 1149.1337 987.32706 1146.2051 989.2793 C 1143.2764 991.23154 1139.0374 992.26758 1133.5059 992.26758 C 1132.2957 992.26758 1131.4978 992.13655 1131.0508 991.94531 L 1130.9414 991.94531 L 1130.832 991.83594 L 1130.7227 991.83594 L 1130.7227 991.72656 L 1130.6133 991.72656 L 1130.6133 991.61719 L 1130.6133 991.50781 L 1130.6133 991.39844 L 1130.7227 991.28906 L 1130.7227 991.17969 L 1130.832 991.07031 C 1131.8635 990.09775 1135.332 988.44909 1140.8633 986.375 C 1142.8462 985.58219 1144.2678 984.61382 1144.918 983.81445 C 1144.984 983.71064 1145.0763 983.496 1145.1309 983.38672 L 1145.2402 983.27734 L 1145.2402 983.16992 L 1145.2402 983.06055 L 1145.2402 982.95117 L 1145.2402 982.8418 L 1145.2402 982.73242 L 1145.2402 982.41016 L 1145.2402 982.30078 L 1145.1309 982.19141 L 1145.1309 982.08203 L 1145.0234 981.97266 L 1144.9141 981.86328 L 1144.8047 981.75391 L 1144.6953 981.75391 C 1143.7802 981.1436 1141.7545 980.95465 1138.8262 981.43164 C 1131.0171 982.08239 1123.3647 982.80823 1115.8809 983.45898 C 1108.3971 984.10973 1103.8479 982.45527 1102.2207 978.55078 C 1100.5937 974.6463 1100.2853 971.23332 1101.2617 968.30469 C 1102.2382 965.37605 1105.5467 962.27521 1111.0781 959.02148 C 1116.6082 955.76829 1121.9887 951.8369 1127.1934 947.2832 C 1120.687 949.2349 1113.9625 950.992 1107.1309 952.61914 C 1100.2979 954.24628 1095.4385 957.55483 1092.5098 962.43555 C 1089.5811 967.31643 1089.0634 973.62244 1091.0156 981.43164 C 1087.1111 982.73313 1079.9787 982.11472 1069.5664 979.51172 C 1059.1542 976.90874 1053.5688 971.01307 1052.918 961.90234 C 1053.5688 950.83925 1050.6759 943.08649 1044.168 938.53125 C 1048.7232 954.14963 1047.587 966.34945 1040.7539 975.13477 C 1033.9208 983.92019 1031.6459 989.08965 1033.9238 990.7168 C 1034.3499 991.02278 1034.698 991.32007 1034.8848 991.57031 L 1034.9922 991.67969 L 1034.9922 991.78906 L 1035.1016 991.89844 L 1035.1016 992.00781 L 1035.1016 992.11719 L 1035.1016 992.22656 L 1034.9922 992.33398 L 1034.9922 992.44336 L 1034.8848 992.55273 L 1034.7754 992.55273 L 1034.666 992.66211 C 1033.9807 992.97355 1032.4965 993.19727 1030.5039 993.19727 C 1026.4999 993.19727 1023.8099 992.84261 1022.8203 992.34375 L 1022.8203 992.23438 L 1022.7109 992.23438 L 1022.6016 992.125 L 1022.4922 992.01562 L 1022.4922 991.90625 L 1022.3828 991.79883 L 1022.3828 991.68945 L 1022.3828 991.58008 L 1022.4922 991.58008 L 1022.4922 991.4707 L 1022.4922 991.36133 L 1022.6016 991.36133 L 1022.7109 991.25195 C 1023.0004 991.08256 1023.5953 990.84246 1024.2051 990.7168 C 1024.2561 990.701 1024.4726 990.6293 1024.5273 990.60742 C 1026.0565 989.81516 1028.0118 986.60467 1030.0762 981.00195 C 1032.3542 974.81963 1033.4902 969.75215 1033.4902 965.84766 C 1033.4902 961.94317 1032.3542 958.84233 1030.0762 956.56445 C 1027.7983 954.28655 1024.1778 950.87554 1019.2969 946.32031 C 1014.4161 941.76508 1009.969 935.45878 1006.0645 927.32422 C 1002.1601 919.1896 999.88513 913.60442 999.23438 910.67578 C 998.58362 907.74715 996.8271 904.95456 993.89844 902.35156 C 990.96987 899.74858 988.69553 896.02736 987.06836 891.14648 C 985.44119 886.2656 985.9595 882.5444 988.5625 879.94141 C 992.46699 887.09986 997.63479 892.99555 1004.1426 897.55078 C 1006.7434 896.90003 1007.7816 895.55381 1007.1309 893.60156 C 1001.9249 889.04633 997.68539 884.49664 994.43164 879.94141 C 991.17741 875.38618 991.48809 871.97516 995.39258 869.69727 C 999.29707 867.41939 1005.8112 866.90163 1014.9219 868.20312 C 1020.2093 865.76243 1024.3888 864.51377 1027.5156 864.36133 z M 104.04492 866.30859 C 102.70302 866.21734 101.16563 866.53737 99.457031 867.26953 C 95.552531 869.22177 94.51655 872.11699 96.46875 876.02148 C 98.42105 879.92597 101.73141 880.96202 106.28711 879.00977 C 110.84241 877.0578 111.77097 874.05683 109.16797 870.15234 C 107.94787 867.71217 106.28182 866.46353 104.04492 866.31055 L 104.04492 866.30859 z M 1025.9238 866.30859 L 1025.9238 866.31055 C 1023.6869 866.46353 1022.0228 867.71217 1020.8027 870.15234 C 1018.1997 874.05683 1019.1283 877.0578 1023.6836 879.00977 C 1028.2393 880.96202 1031.5497 879.92597 1033.502 876.02148 C 1035.4542 872.11699 1034.4182 869.22177 1030.5137 867.26953 C 1028.8051 866.53737 1027.2657 866.21734 1025.9238 866.30859 z M 85.417969 984.4043 C 86.172369 984.4043 86.804769 984.72816 87.292969 985.37891 L 87.402344 985.48828 C 87.467944 985.68498 87.585234 986.09973 87.615234 986.23633 L 87.615234 986.3457 L 87.615234 986.45508 L 87.615234 986.56445 L 87.615234 986.67383 L 87.615234 986.7832 L 87.615234 986.89258 L 87.615234 987.00195 L 87.505859 987.10938 L 87.396484 987.21875 C 86.992784 987.85912 86.117635 988.60768 84.835938 989.24805 C 82.232937 990.54954 80.370831 992.204 79.394531 994.15625 C 78.972341 995.00803 78.771659 995.86236 78.789062 996.7168 L 70.78125 996.04102 L 70.777344 996.04102 C 68.021165 995.08937 64.558192 994.45068 60.400391 994.13086 C 72.764991 990.2266 80.207547 987.33114 82.810547 985.37891 C 83.786647 984.72816 84.663569 984.4043 85.417969 984.4043 z M 1044.5508 984.4043 C 1045.3052 984.4043 1046.1821 984.72816 1047.1582 985.37891 C 1049.7612 987.33114 1057.2038 990.2266 1069.5684 994.13086 C 1065.4106 994.45067 1061.9476 995.08938 1059.1914 996.04102 L 1059.1895 996.04102 L 1059.1875 996.04102 L 1051.1797 996.7168 C 1051.1972 995.86222 1050.9984 995.00817 1050.5762 994.15625 C 1049.5999 992.204 1047.7358 990.54954 1045.1328 989.24805 C 1043.8511 988.60768 1042.976 987.85912 1042.5723 987.21875 L 1042.4629 987.10938 L 1042.3535 987.00195 L 1042.3535 986.89258 L 1042.3535 986.7832 L 1042.3535 986.67383 L 1042.3535 986.56445 L 1042.3535 986.45508 L 1042.3535 986.3457 L 1042.3535 986.23633 C 1042.3835 986.09973 1042.5008 985.68498 1042.5664 985.48828 L 1042.6758 985.37891 C 1043.164 984.72816 1043.7964 984.4043 1044.5508 984.4043 z " />
</svg>
