<?xml version="1.0" encoding="UTF-8" standalone="no"?>
<svg
   width="1143.9921"
   height="1000"
   version="1.1"
   id="svg1"
   sodipodi:docname="137F0.svg"
   inkscape:version="1.4.3 (0d15f75, 2025-12-25)"
   xmlns:inkscape="http://www.inkscape.org/namespaces/inkscape"
   xmlns:sodipodi="http://sodipodi.sourceforge.net/DTD/sodipodi-0.dtd"
   xmlns="http://www.w3.org/2000/svg"
   xmlns:svg="http://www.w3.org/2000/svg">
  <defs
     id="defs1" />
  <sodipodi:namedview
     id="namedview1"
     pagecolor="#ffffff"
     bordercolor="#666666"
     borderopacity="1.0"
     inkscape:showpageshadow="2"
     inkscape:pageopacity="0.0"
     inkscape:pagecheckerboard="0"
     inkscape:deskcolor="#d1d1d1"
     inkscape:zoom="0.3775"
     inkscape:cx="287.41722"
     inkscape:cy="501.98675"
     inkscape:window-width="1680"
     inkscape:window-height="998"
     inkscape:window-x="-8"
     inkscape:window-y="-8"
     inkscape:window-maximized="1"
     inkscape:current-layer="svg1"
     showguides="true">
    <sodipodi:guide
       position="0,1000"
       orientation="0,-1"
       id="guide1"
       inkscape:locked="false" />
    <sodipodi:guide
       position="0,-1.1368684e-13"
       orientation="0,-1"
       id="guide2"
       inkscape:locked="false" />
    <sodipodi:guide
       position="1105.9336,56"
       orientation="0,-1"
       id="guide15"
       inkscape:locked="false" />
    <sodipodi:guide
       position="1084.2198,297.90208"
       orientation="1,0"
       id="guide16"
       inkscape:locked="false" />
  </sodipodi:namedview>
  <path
     id="path1"
     style="fill:#000000;stroke:none;stroke-width:53.4145"
     d="M 896.69141 -0.00390625 L 896.69141 23.384766 C 971.68692 23.384766 1009.2285 61.524238 1009.2285 137.76953 L 1009.2285 422.75586 L 1007.3828 422.75586 C 990.50891 429.63049 977.06583 440.583 967.06641 455.58203 C 934.56841 466.83137 906.68409 472.5078 883.56055 472.50781 C 860.43701 472.50781 832.95511 474.69947 801.08203 479.07422 C 757.3354 450.95094 718.59372 412.37579 679.54883 374.14648 C 653.23803 353.61124 624.35871 341.09759 592.91406 336.60547 L 591.95312 300.99023 C 607.99633 303.55713 622.75421 297.46087 636.23047 282.70117 C 649.70664 267.94141 656.12406 242.2718 655.48242 205.69336 C 655.48242 177.45738 642.96874 158.04552 617.94141 147.45703 C 604.45728 141.75222 590.36877 138.37595 575.67383 137.32812 L 575.67383 44.613281 C 575.67383 32.822888 578.16276 26.875 583.28906 26.875 C 588.41526 26.87499 590.99219 32.822888 590.99219 44.613281 L 608.73047 44.613281 C 609.24306 14.880993 599.32694 1.4210855e-14 579.07812 0 C 558.82952 0 548.70898 14.676816 548.70898 43.896484 L 548.70898 77.669922 L 534.10547 77.669922 C 528.46657 77.669922 525.5957 81.640289 525.5957 89.585938 C 525.5957 97.531662 528.46657 101.5 534.10547 101.5 L 548.70898 101.5 L 548.70898 137.90234 C 548.57884 137.89854 548.49951 137.9209 548.46875 137.9668 C 544.55272 138.41275 540.5976 139.00972 536.60352 139.75586 C 507.40493 145.21055 486.70844 168.79358 474.51562 210.50586 C 466.81494 219.48999 458.15127 232.32485 448.52539 249.00977 C 444.03328 259.27741 444.19493 265.21405 449.00781 266.81836 C 453.8208 268.42267 457.51121 270.5073 460.07812 273.07422 C 453.179 277.21365 455.97689 282.41939 461.92578 283.64844 C 461.49843 283.99688 460.56233 284.8041 459.11523 286.07031 C 456.54831 288.31632 457.02906 290.40099 460.55859 292.32617 C 464.08802 294.25134 465.69196 299.70724 465.37109 308.69141 C 465.05023 317.67559 471.94842 322.16602 486.06641 322.16602 C 493.12546 322.80774 499.22356 322.48851 504.35742 321.20508 L 508.20703 342.38086 C 475.47892 344.94776 444.03414 356.49989 413.87305 377.03516 C 371.37566 405.78334 311.80569 442.50422 264.30859 480.00195 C 224.31106 475.62719 192.44774 472.14047 168.69922 469.64062 C 144.95064 467.14077 124.63566 461.56587 107.76172 452.81641 C 98.966456 440.3996 88.013763 430.9246 74.935547 424.50391 L 74.935547 137.77539 C 74.935547 61.530101 112.47727 23.390625 187.47266 23.390625 L 187.47266 0 C 89.353676 0 40.259766 45.308327 40.259766 135.92773 L -0.0546875 135.92773 L 40.259766 173.47461 L 40.259766 191.22266 L -0.0546875 191.22266 L 40.259766 231.53906 L 40.259766 249.38867 L -0.0546875 249.38867 L 40.259766 287.75586 L 40.259766 305.60547 L -0.97851562 305.60547 L 40.259766 343.15234 L 40.259766 359.97656 L -0.0546875 360.90039 L 40.259766 397.52344 L 40.259766 415.27148 L 0.86914062 415.27148 L 31.849609 450.66406 C 32.191384 464.25586 33.667316 473.33644 36.363281 478.05469 L -0.0546875 478.05469 L 40.259766 515.59961 L 40.259766 533.44922 L -0.0546875 533.44922 L 40.259766 573.76758 L 40.259766 591.51562 L -0.0546875 591.51562 L 40.259766 629.98438 L 40.259766 647.73047 L -0.97851562 647.73047 L 40.259766 685.2793 L 40.259766 702.10352 L -0.0546875 702.10352 L 40.259766 739.64844 L 40.259766 757.49805 L 0.86914062 757.49805 L 40.259766 802.43164 L 40.259766 944 L 0 944 L 0 1000 L 1084.2207 1000 L 1084.2207 944 L 1043.9043 944 L 1043.9043 802.42773 L 1083.2988 757.49414 L 1043.9043 757.49414 L 1043.9043 739.64453 L 1084.2207 702.09766 L 1043.9043 702.09766 L 1043.9043 685.27344 L 1085.1426 647.72852 L 1043.9043 647.72852 L 1043.9043 629.98047 L 1084.2207 591.50977 L 1043.9043 591.50977 L 1043.9043 573.76172 L 1084.2207 533.44531 L 1043.9043 533.44531 L 1043.9043 515.5957 L 1084.2207 478.04883 L 1043.9043 478.04883 L 1043.9043 460.30078 L 1083.2988 415.26562 L 1043.9043 415.26562 L 1043.9043 397.51758 L 1084.2207 360.89453 L 1043.9043 359.9707 L 1043.9043 343.14648 L 1085.1426 305.60156 L 1043.9043 305.60156 L 1043.9043 287.75 L 1084.2207 249.38281 L 1043.9043 249.38281 L 1043.9043 231.5332 L 1084.2207 191.2168 L 1043.9043 191.2168 L 1043.9043 173.46875 L 1084.2207 135.92188 L 1043.9043 135.92188 C 1043.9043 45.302464 994.81049 -0.00390625 896.69141 -0.00390625 z M 547.97461 154.70703 C 562.53377 153.80461 579.43764 155.87999 598.68945 160.93359 C 624.35851 167.67172 637.19336 182.91239 637.19336 206.65625 C 633.9847 238.10089 626.44421 259.75893 614.57227 271.63086 C 602.70034 283.50282 592.59437 285.90864 584.25195 278.84961 C 574.62607 273.07411 576.71067 263.28736 590.50781 249.49023 C 616.78065 223.21747 605.44405 179.69499 555.37305 204.73047 C 547.67237 195.74628 529.06234 189.00773 499.54297 184.51562 C 505.31846 169.75593 516.87062 160.45191 534.19727 156.60156 C 538.52891 155.63897 543.12155 155.00784 547.97461 154.70703 z M 492.80469 197.99219 C 516.54855 199.27563 535.80082 205.3719 550.56055 216.28125 C 549.91882 225.26545 553.6093 225.5866 561.63086 217.24414 C 577.81999 200.40755 599.99844 209.62663 588.58398 233.12695 C 583.12926 244.35719 575.91002 253.82272 566.92578 261.52344 C 557.94164 269.22418 555.69547 276.92428 560.1875 284.625 C 564.67962 292.32572 568.20846 299.06427 570.77539 304.83984 C 570.13366 329.86717 572.70098 345.59055 578.47656 352.00781 C 584.25205 358.4251 596.12322 362.43476 614.0918 364.03906 C 632.06019 365.64337 641.04492 373.50507 641.04492 387.62305 C 634.62771 401.09931 627.40836 428.53244 619.38672 469.92383 C 611.36517 511.31521 606.5515 540.19258 604.94727 556.55664 C 603.34275 572.92063 603.50254 600.99612 605.42773 640.7832 L 496.65625 687.95117 C 500.50664 634.68787 499.86433 591.0506 494.73047 557.03906 C 465.85285 498.00021 451.41406 443.45312 451.41406 393.39844 C 451.41406 376.07179 463.60659 367.08704 487.99219 366.44531 C 517.51165 366.44531 531.95032 358.42402 531.30859 342.38086 C 530.02513 318.63695 519.43646 307.88873 499.54297 310.13477 C 479.6494 312.38078 471.30698 306.44415 474.51562 292.32617 C 486.70843 285.90891 491.04125 281.25691 487.51172 278.36914 C 483.98229 275.48137 477.72438 273.71593 468.74023 273.07422 C 468.74023 267.94036 464.56906 263.44802 456.22656 259.59766 C 464.56906 239.70416 472.59033 225.90776 480.29102 218.20703 C 488.63352 213.71495 497.29711 213.71495 506.28125 218.20703 C 515.2655 222.69912 524.25014 225.58764 533.23438 226.87109 L 533.23438 221.0957 C 527.4588 221.0957 520.07799 218.52832 511.09375 213.39453 C 502.10961 208.2607 492.80557 207.61837 483.17969 211.46875 C 487.02998 205.69319 490.23776 201.20082 492.80469 197.99219 z M 578.07227 213.15234 C 576.79258 213.18228 575.32784 213.41231 573.66211 213.875 C 561.39623 217.28228 549.68125 236.95431 553.44922 243.23438 C 545.17393 247.9631 541.03834 256.38741 550.08008 260.56055 C 559.41708 264.87 579.90933 240.64672 583.76953 230.7207 C 586.95261 222.53551 587.03007 212.9428 578.07227 213.15234 z M 494.18555 219.5 C 490.9393 219.60027 487.91304 220.45233 485.10547 222.05664 L 477.4043 229.75781 L 477.4043 235.5332 L 480.29102 234.57031 C 491.84217 240.34587 504.35577 240.34587 517.83203 234.57031 L 531.30859 238.42188 L 531.30859 230.7207 L 518.79492 229.75781 C 509.52999 222.69882 501.32728 219.27941 494.18555 219.5 z M 574.38086 220.80859 C 577.5269 220.65064 579.49517 222.73517 578.95703 225.42578 C 576.93602 235.53087 568.46249 246.38496 561.63086 249.49023 C 558.10143 251.09455 558.10143 249.49069 561.63086 244.67773 C 565.16037 239.86477 565.16037 238.26091 561.63086 239.86523 C 558.10143 241.46956 557.29951 240.18685 559.22461 236.01562 C 564.34446 224.92287 570.33595 221.01168 574.38086 220.80859 z M 492.80469 223.98242 C 490.23776 227.19111 490.23776 230.07959 492.80469 232.64648 C 489.59603 232.00476 486.70951 231.04125 484.14258 229.75781 C 484.78431 227.19092 487.67083 225.26592 492.80469 223.98242 z M 501.46875 225.9082 L 513.01953 232.64648 C 508.52741 233.28819 504.35625 233.60938 500.50586 233.60938 C 503.71452 231.68421 504.03568 229.11684 501.46875 225.9082 z M 553.44922 249.97266 C 556.65788 251.89782 556.97904 253.82287 554.41211 255.74805 C 551.84519 257.67322 550.2394 257.67322 549.59766 255.74805 C 548.95594 253.82287 550.24057 251.89782 553.44922 249.97266 z M 478.47852 258.00586 C 477.88252 258.03944 477.55509 259.54546 477.88477 261.52344 C 478.47316 265.05366 474.85747 266.98043 470.66602 262.00391 C 466.54432 257.11007 463.59764 256.97111 463.43555 262.78516 C 465.36075 260.85995 467.1363 262.16441 469.70312 265.37305 C 475.37958 272.46864 481.45345 266.17258 480.29102 261.52344 C 479.65046 258.96117 478.97234 257.97803 478.47852 258.00586 z M 466.12891 276.33594 C 466.7494 276.32251 467.45806 276.35428 468.25977 276.44336 C 471.14757 276.76419 474.5168 277.24499 478.36719 277.88672 C 482.21749 278.52844 483.82132 279.17073 483.17969 279.8125 L 464.89062 279.8125 C 461.79105 278.77924 461.78543 276.4299 466.12891 276.33594 z M 483.17969 281.73828 C 480.3239 283.64211 473.98644 287.51367 469.70312 287.51367 C 465.95166 287.51367 463.54687 286.93351 466.81641 283.66406 L 483.17969 281.73828 z M 410.87891 436.58789 C 417.06264 436.38867 422.08426 442.41105 425.98047 454.64844 C 433.83462 481.18102 450.01321 515.63323 474.51562 558.00195 C 479.64948 598.43076 478.43106 639.82182 471.62891 682.17578 C 397.42424 600.67645 347.95365 557.67957 323.21875 553.1875 C 296.62873 557.67957 279.31419 567.62784 271.27539 583.0293 C 247.77725 637.5761 233.11753 726.13329 217.6582 848.70312 C 212.0929 880.14759 200.80801 896.51136 183.80273 897.79492 C 166.79755 899.07838 137.88869 905.1766 97.076172 916.08594 C 80.788931 922.3376 73.677087 937.26812 97.076172 944 L 74.935547 944 L 74.935547 478.25781 C 83.850751 475.09386 88.60266 473.18036 89.195312 472.61719 L 89.296875 472.61719 C 133.01938 512.45197 192.23283 531.22537 267.08008 528.73047 C 340.20055 488.10806 383.41877 460.42489 396.54297 445.73828 C 401.87339 439.77327 406.64793 436.7242 410.87891 436.58789 z M 657.43359 443.78125 C 661.20107 443.87071 666.14101 446.57812 672.23438 451.89062 C 684.42108 462.51502 722.6563 490.59284 787.02734 536.21484 C 848.89854 534.96477 915.11759 514.65185 985.73828 475.2793 L 1009.2285 483.38281 L 1009.2285 944 L 606.39062 944 C 628.20929 941.43298 639.44021 935.33682 640.08203 925.71094 C 647.14099 895.54986 656.76618 854.15802 668.95898 805.38672 C 668.95898 786.7767 659.65504 777.47266 641.04492 777.47266 C 655.80474 755.65389 656.76618 719.87638 643.93164 670.14258 C 631.80394 623.14778 633.71524 550.22544 649.66406 451.375 L 649.66406 451.37305 C 651.07025 446.21838 653.66657 443.6918 657.43359 443.78125 z M 327.85742 581.10352 C 356.92095 594.57977 399.58754 636.29191 455.85938 706.24023 C 416.28362 734.47613 373.61702 770.09226 327.85742 813.08789 L 327.85742 581.10352 z M 615.05469 657.14844 C 625.3224 686.02616 630.45508 712.97852 630.45508 738.00586 C 630.45508 763.03319 622.59537 779.71813 606.87305 788.06055 C 591.15073 796.40305 563.07518 807.95316 522.64648 822.71289 C 461.68238 813.72865 407.00851 838.43681 355.68359 896.83398 C 360.01222 863.46424 394.02248 807.3113 457.71484 728.37891 L 615.05469 657.14844 z M 310.20703 700.32031 L 309.30664 834.26562 C 294.46569 848.38361 285.18878 859.29151 281.47852 866.99219 C 273.43972 882.39365 275.44956 899.56121 287.50781 918.49219 C 296.7081 932.93621 307.97822 940.99225 321.31836 944 L 265.89258 944 C 273.93148 936.94105 275.47631 921.85995 270.5293 898.75781 C 265.58228 875.65567 266.94727 846.1359 284.26172 810.19922 C 301.03753 775.38029 309.68521 738.75374 310.20703 700.32031 z M 600.61523 848.70312 C 625.00083 876.29738 617.30073 901.96775 577.51367 921.86133 C 550.56124 921.86133 550.56124 929.24027 577.51367 944 L 348.2168 944 C 371.51102 939.94688 408.32014 926.85132 458.64258 903.08984 C 520.4798 873.89135 569.81231 855.76207 600.61523 848.70312 z M 18 962 L 1066.2207 962 L 1066.2207 982 L 18 982 L 18 962 z " />
</svg>
