<?xml version="1.0" encoding="UTF-8" standalone="no"?>
<svg
   width="820.362"
   height="1000"
   version="1.1"
   id="svg1"
   sodipodi:docname="137F7.svg"
   inkscape:version="1.4.3 (0d15f75, 2025-12-25)"
   xmlns:inkscape="http://www.inkscape.org/namespaces/inkscape"
   xmlns:sodipodi="http://sodipodi.sourceforge.net/DTD/sodipodi-0.dtd"
   xmlns="http://www.w3.org/2000/svg"
   xmlns:svg="http://www.w3.org/2000/svg">
  <defs
     id="defs1" />
  <sodipodi:namedview
     id="namedview1"
     pagecolor="#ffffff"
     bordercolor="#666666"
     borderopacity="1.0"
     inkscape:showpageshadow="2"
     inkscape:pageopacity="0.0"
     inkscape:pagecheckerboard="0"
     inkscape:deskcolor="#d1d1d1"
     inkscape:zoom="0.755"
     inkscape:cx="141.0596"
     inkscape:cy="560.92715"
     inkscape:window-width="1680"
     inkscape:window-height="998"
     inkscape:window-x="-8"
     inkscape:window-y="-8"
     inkscape:window-maximized="1"
     inkscape:current-layer="svg1"
     showguides="true">
    <sodipodi:guide
       position="411.54382,814.05658"
       orientation="0,-1"
       id="guide1"
       inkscape:locked="false" />
    <sodipodi:guide
       position="820.362,0"
       orientation="0,-1"
       id="guide2"
       inkscape:locked="false" />
    <sodipodi:guide
       position="488.36063,806.05658"
       orientation="0,-1"
       id="guide3"
       inkscape:locked="false" />
  </sodipodi:namedview>
  <path
     id="path3"
     style="baseline-shift:baseline;display:inline;overflow:visible;vector-effect:none;fill:#000000;enable-background:accumulate;stop-color:#000000;stop-opacity:1;opacity:1"
     d="M 488.36133 0 C 434.91193 0 391.38867 43.523261 391.38867 96.972656 C 391.38867 139.84276 419.38801 176.32508 458.05078 189.08789 C 429.13163 194.93817 408.59433 218.65904 396.4375 260.24805 C 388.6711 269.30885 379.93271 282.2528 370.22461 299.08008 C 365.69411 309.43532 365.85704 315.42108 370.71094 317.03906 C 375.56504 318.65707 379.2862 320.76079 381.875 323.34961 C 374.917 327.52437 377.74058 332.77413 383.74023 334.01367 C 383.30922 334.36509 382.36377 335.17808 380.9043 336.45508 C 378.3155 338.72025 378.79998 340.82403 382.35938 342.76562 C 385.91898 344.70724 387.53834 350.2087 387.21484 359.26953 C 386.89134 368.33038 393.84744 372.86133 408.08594 372.86133 C 415.20524 373.50853 421.35365 373.18502 426.53125 371.89062 L 430.41406 393.24805 C 397.40666 395.83685 365.69379 407.48678 335.27539 428.19727 L 334.30469 427.22656 C 281.23419 423.34331 227.84075 425.60783 174.12305 434.02148 C 174.77035 411.36937 169.91585 362.18167 159.56055 286.45898 C 173.15185 243.09644 173.15185 207.82506 159.56055 180.64258 C 151.1469 181.93696 148.39618 188.89324 151.30859 201.51367 C 154.22096 214.13414 150.82323 229.18181 141.11523 246.65625 C 132.70159 227.88736 129.79009 212.03192 132.37891 199.08789 C 134.96772 186.14382 140.14372 174.49389 147.91016 164.13867 C 151.14618 161.54983 149.36789 158.1521 142.57227 153.94531 C 135.77665 149.73849 130.11242 149.2523 125.58203 152.48828 C 104.22433 191.96762 96.621106 220.12193 102.76953 236.94922 C 108.91797 253.77645 117.16819 275.1334 127.52344 301.02148 L 120.72852 409.75195 C 116.8453 456.35049 131.73033 479.97391 165.38477 480.62109 C 199.03937 481.26831 258.25937 483.53277 343.04297 487.41602 C 347.57327 515.89291 365.3719 556.98925 396.4375 610.70703 C 401.6152 651.4808 400.64274 693.22607 393.52344 735.94141 C 315.85914 653.7467 264.08341 610.38391 238.19531 605.85352 C 210.36581 610.38391 192.24368 620.41634 183.83008 635.94922 C 159.23648 690.96142 138.84998 780.275 122.66992 903.89062 C 116.84507 935.60346 105.03441 952.10792 87.236328 953.40234 C 69.438275 954.69686 39.180184 960.84523 -3.5351562 971.84766 C -37.836885 971.84766 -37.836885 981.23119 -3.5351562 1000 L 173.15234 1000 C 181.56584 992.88082 183.18346 977.67239 178.00586 954.37305 C 172.82826 931.07379 179.30027 901.30198 197.42188 865.05859 C 215.54358 828.81529 224.60547 790.6305 224.60547 750.50391 L 223.63281 889.32812 C 208.10001 903.56659 198.39307 914.56946 194.50977 922.33594 C 186.09607 937.86882 188.20001 955.18103 200.82031 974.27344 C 213.44071 993.36595 229.7823 1000 249.8457 1000 C 271.8504 1000 315.21329 988.18795 379.93359 958.74023 C 444.65369 929.2925 492.54573 911.0099 523.61133 903.89062 C 548.20503 931.72032 540.4389 957.60856 500.3125 977.67188 C 473.1301 977.67188 473.1301 985.11434 500.3125 1000 L 529.4375 1000 C 551.4423 997.41108 562.76666 991.2627 563.41406 981.55469 C 570.53326 951.13625 580.24226 909.39251 592.53906 860.20508 C 592.53906 841.43628 583.15347 832.05078 564.38477 832.05078 C 579.27047 810.04585 580.24293 773.96484 567.29883 723.80664 C 554.35483 673.64851 557.26626 594.20462 576.03516 485.47461 C 662.11316 482.23841 721.98017 480.45819 755.63477 480.13477 C 789.28917 479.81114 804.17422 456.02699 800.29102 408.78125 L 794.4668 301.02148 C 804.1747 275.1334 812.1016 253.61375 818.25 236.46289 C 824.3984 219.31202 817.1186 191.32042 796.4082 152.48828 C 791.2306 149.2523 785.24287 149.57578 778.44727 153.45898 C 771.65147 157.34219 769.87307 160.90262 773.10938 164.13867 C 780.87557 174.49389 786.05173 185.98107 788.64062 198.60156 C 791.22953 211.22198 788.6414 226.91668 780.875 245.68555 C 771.1672 228.21111 767.76934 213.3262 770.68164 201.0293 C 773.59414 188.73248 770.84339 181.61352 762.42969 179.67188 C 748.83849 207.50159 748.83849 242.77292 762.42969 285.48828 C 752.07449 361.21095 746.89648 410.39869 746.89648 433.05078 C 693.17868 424.63715 645.28705 422.04917 603.21875 425.28516 C 576.68355 404.57469 547.5586 391.95428 515.8457 387.42383 L 514.875 351.50391 C 531.0551 354.09271 545.93995 347.94423 559.53125 333.05859 C 573.12235 318.1729 579.59427 292.28507 578.94727 255.39453 C 578.94727 226.91763 566.32674 207.33897 541.08594 196.66016 C 533.59446 193.49071 525.91864 191.03323 518.05664 189.28906 C 557.03697 176.71187 585.33203 140.06997 585.33203 96.972656 C 585.33203 43.523261 541.81072 9.4739031e-15 488.36133 0 z M 488.36133 18 C 532.0828 18 567.33203 53.251183 567.33203 96.972656 C 567.33203 140.69413 532.0828 175.94336 488.36133 175.94336 C 444.63986 175.94336 409.38867 140.69413 409.38867 96.972656 C 409.38867 53.251183 444.63986 18 488.36133 18 z M 470.52148 203.9707 C 485.20483 203.06058 502.25392 205.15522 521.66992 210.25195 C 547.55802 217.04757 560.50195 232.41879 560.50195 256.36523 C 557.26585 288.07818 549.66285 309.9213 537.68945 321.89453 C 525.71625 333.86779 515.52092 336.29308 507.10742 329.17383 C 497.39952 323.34905 499.50317 313.4793 513.41797 299.56445 C 539.91507 273.06752 528.48257 229.17473 477.98438 254.42383 C 470.21797 245.36297 451.44893 238.5656 421.67773 234.03516 C 427.50243 219.14952 439.15235 209.76601 456.62695 205.88281 C 460.9955 204.91201 465.62703 204.27408 470.52148 203.9707 z M 414.88281 247.62695 C 438.82921 248.92132 458.24516 255.06983 473.13086 266.07227 C 472.48356 275.13312 476.20492 275.45663 484.29492 267.04297 C 500.62222 250.06272 522.98846 259.36167 511.47656 283.0625 C 505.97536 294.38857 498.69381 303.93475 489.63281 311.70117 C 480.57211 319.46762 478.30759 327.23357 482.83789 335 C 487.36839 342.76641 490.92868 349.56187 493.51758 355.38672 C 492.87028 380.62758 495.4583 396.48307 501.2832 402.95508 C 507.108 409.42714 519.08123 413.47382 537.20312 415.0918 C 555.32493 416.7098 564.38672 424.63657 564.38672 438.875 C 557.91472 452.46626 550.63307 480.13434 542.54297 521.87891 C 534.45307 563.62345 529.59857 592.74826 527.98047 609.25195 C 526.36237 625.75557 526.5251 654.0707 528.4668 694.19727 L 418.76562 741.76562 C 422.64892 688.04782 422.00192 644.03806 416.82422 609.73633 C 387.70012 550.19374 373.13672 495.18292 373.13672 444.70117 C 373.13672 427.22667 385.43374 418.16477 410.02734 417.51758 C 439.79874 417.51758 454.36214 409.4281 453.71484 393.24805 C 452.42054 369.30154 441.74103 358.46135 421.67773 360.72656 C 401.61433 362.99173 393.2015 357.00408 396.4375 342.76562 C 408.7344 336.29362 413.10247 331.60185 409.54297 328.68945 C 405.98347 325.77703 399.67203 323.99681 390.61133 323.34961 C 390.61133 318.17195 386.40589 313.64102 377.99219 309.75781 C 386.40589 289.69456 394.49542 275.7801 402.26172 268.01367 C 410.67552 263.48326 419.41196 263.48326 428.47266 268.01367 C 437.53366 272.54409 446.59545 275.45756 455.65625 276.75195 L 455.65625 270.92578 C 449.83145 270.92578 442.38903 268.33775 433.32812 263.16016 C 424.26732 257.98253 414.88183 257.33549 405.17383 261.21875 C 409.05703 255.39391 412.29391 250.86293 414.88281 247.62695 z M 500.87695 262.91602 C 499.58633 262.94621 498.10965 263.17985 496.42969 263.64648 C 484.05929 267.08283 472.24287 286.92221 476.04297 293.25586 C 467.69717 298.02492 463.52563 306.52171 472.64453 310.73047 C 482.06113 315.07669 502.73005 290.64548 506.62305 280.63477 C 509.83351 272.37974 509.91128 262.70468 500.87695 262.91602 z M 416.27344 269.31836 C 412.9995 269.41948 409.9468 270.27848 407.11523 271.89648 L 399.34961 279.66406 L 399.34961 285.48828 L 402.26172 284.51758 C 413.91152 290.34242 426.53185 290.34242 440.12305 284.51758 L 453.71484 288.40039 L 453.71484 280.63477 L 441.09375 279.66406 C 431.74973 272.54483 423.47611 269.09589 416.27344 269.31836 z M 497.1543 270.63867 C 500.32717 270.47937 502.31229 272.58135 501.76953 275.29492 C 499.73143 285.48622 491.18502 296.43268 484.29492 299.56445 C 480.73542 301.18246 480.73542 299.56496 484.29492 294.71094 C 487.85472 289.85689 487.85472 288.23941 484.29492 289.85742 C 480.73542 291.47546 479.92569 290.18142 481.86719 285.97461 C 487.03071 274.78721 493.07488 270.84349 497.1543 270.63867 z M 414.88281 273.83984 C 412.29391 277.07591 412.29391 279.98737 414.88281 282.57617 C 411.64681 281.92898 408.73323 280.95842 406.14453 279.66406 C 406.79163 277.07526 409.70511 275.13429 414.88281 273.83984 z M 423.61914 275.78125 L 435.26953 282.57617 C 430.73923 283.22336 426.53164 283.54688 422.64844 283.54688 C 425.88444 281.60528 426.20814 279.01726 423.61914 275.78125 z M 476.04297 300.05078 C 479.27897 301.99236 479.60237 303.93339 477.01367 305.875 C 474.42477 307.81658 472.80726 307.81658 472.16016 305.875 C 471.51276 303.93339 472.80697 301.99236 476.04297 300.05078 z M 400.43359 308.15234 C 399.83253 308.18622 399.50148 309.70632 399.83398 311.70117 C 400.42728 315.26152 396.77993 317.20454 392.55273 312.18555 C 388.39573 307.24996 385.42502 307.10901 385.26172 312.97266 C 387.20322 311.03101 388.99333 312.34798 391.58203 315.58398 C 397.30693 322.74012 403.43412 316.38997 402.26172 311.70117 C 401.6157 309.11705 400.93161 308.12428 400.43359 308.15234 z M 387.97656 326.63867 C 388.60236 326.62513 389.3184 326.6582 390.12695 326.74805 C 393.03925 327.07163 396.43691 327.55593 400.32031 328.20312 C 404.20331 328.85032 405.82103 329.49921 405.17383 330.14648 L 386.72852 330.14648 C 383.60249 329.10439 383.596 326.73343 387.97656 326.63867 z M 405.17383 332.08789 C 402.29363 334.00797 395.90193 337.91211 391.58203 337.91211 C 387.79853 337.91211 385.37252 337.32663 388.66992 334.0293 L 405.17383 332.08789 z M 243.04883 634.00781 C 273.46743 647.59905 318.12618 689.66582 377.02148 760.21094 C 335.60058 788.68781 290.94173 824.60813 243.04883 867.9707 L 243.04883 634.00781 z M 538.17383 710.70117 C 548.52923 739.82526 553.70703 767.00716 553.70703 792.24805 C 553.70703 817.48897 545.77828 834.31687 529.92188 842.73047 C 514.06547 851.14416 485.75026 862.79404 444.97656 877.67969 C 383.49226 868.6188 325.89163 893.5362 272.17383 952.43164 C 276.70443 918.77708 312.30099 862.14694 378.96289 782.54102 L 538.17383 710.70117 z " />
</svg>
