<?xml version="1.0" encoding="UTF-8" standalone="no"?>
<svg
   width="800"
   height="1000"
   id="svg1972"
   sodipodi:version="0.32"
   inkscape:version="1.4.3 (0d15f75, 2025-12-25)"
   sodipodi:docname="1380F.svg"
   version="1.1"
   xmlns:inkscape="http://www.inkscape.org/namespaces/inkscape"
   xmlns:sodipodi="http://sodipodi.sourceforge.net/DTD/sodipodi-0.dtd"
   xmlns="http://www.w3.org/2000/svg"
   xmlns:svg="http://www.w3.org/2000/svg"
   xmlns:rdf="http://www.w3.org/1999/02/22-rdf-syntax-ns#"
   xmlns:cc="http://creativecommons.org/ns#"
   xmlns:dc="http://purl.org/dc/elements/1.1/">
  <metadata
     id="metadata1979">
    <rdf:RDF>
      <cc:Work
         rdf:about="">
        <dc:format>image/svg+xml</dc:format>
        <dc:type
           rdf:resource="http://purl.org/dc/dcmitype/StillImage" />
      </cc:Work>
    </rdf:RDF>
  </metadata>
  <defs
     id="defs1977" />
  <sodipodi:namedview
     inkscape:window-height="998"
     inkscape:window-width="1680"
     inkscape:pageshadow="2"
     inkscape:pageopacity="0.0"
     guidetolerance="10.0"
     gridtolerance="10.0"
     objecttolerance="10.0"
     borderopacity="1.0"
     bordercolor="#666666"
     pagecolor="#ffffff"
     id="base"
     inkscape:showpageshadow="2"
     inkscape:pagecheckerboard="0"
     inkscape:deskcolor="#d1d1d1"
     inkscape:zoom="0.90414732"
     inkscape:cx="347.84154"
     inkscape:cy="207.37771"
     inkscape:window-x="-8"
     inkscape:window-y="-8"
     inkscape:window-maximized="1"
     inkscape:current-layer="svg1972"
     showguides="true">
    <sodipodi:guide
       position="476.00373,716.21708"
       orientation="1,0"
       id="guide2"
       inkscape:locked="false" />
    <sodipodi:guide
       position="459.53315,810.86499"
       orientation="1,0"
       id="guide3"
       inkscape:locked="false" />
  </sodipodi:namedview>
  <path
     id="path8"
     style="fill:#000000;stroke:none;stroke-width:49.6613"
     inkscape:transform-center-x="129.02254"
     inkscape:transform-center-y="78.773355"
     d="m 419.97266,0.18359375 c -19.24532,3.17e-6 -33.66173,13.60841725 -36.96289,29.58203125 -2.97935,14.416398 3.99975,30.88686 21.12304,39.636719 L 376.71094,233.80469 c 18.12922,0.34677 35.12691,5.77036 50.89844,14.57617 -1.12089,-0.0355 -2.25145,-0.0527 -3.39454,-0.0527 -7.92633,0 -25.15413,2.32432 -51.68164,6.97461 -13.49248,-4.071 -11.47204,-31.82546 6.0625,-83.26562 2.87873,-12.5329 0.18812,-20.87892 -8.07031,-25.03711 -6.19376,-3.1187 -13.53193,-4.7076 -22.01562,-4.76758 -2.82789,-0.02 -5.78291,0.12936 -8.86524,0.44922 -17.67982,2.4426 -26.12889,7.08057 -25.34375,13.91406 0.49437,5.49584 8.31685,7.64732 23.4668,6.45508 -9.68319,7.00798 -13.02636,23.84466 -10.03125,50.50977 1.76682,16.11763 3.74127,27.61251 5.92187,34.48633 -13.00516,-3.26113 -25.41485,-4.66847 -37.22851,-4.22266 -19.89017,0.75058 -31.8992,-4.50313 -36.02735,-15.76172 -4.12814,-11.25857 -9.19462,-16.51228 -15.19922,-15.76172 -6.75514,1.50116 -10.13281,11.25776 -10.13281,29.27149 0,11.25859 3.7521,22.3296 11.25781,33.21289 7.50573,10.88332 21.01639,16.32617 40.53126,16.32617 h 30.39843 c 14.26088,11.25858 26.26992,16.88672 36.02735,16.88672 9.00686,0.75056 19.32705,-0.93826 30.96093,-5.06641 11.63385,-4.12816 21.20325,-6.19141 28.70899,-6.19141 7.50572,0 13.8866,0.75081 19.14062,2.25196 l -4.5039,1.125 c -23.26775,-2.25174 -38.65445,3.37836 -46.16016,16.88867 -15.01145,4.50343 -30.77256,14.63642 -47.28516,30.39844 -10.50799,4.50344 -15.76367,11.2568 -15.76367,20.26367 -3.00232,3.00231 -4.50195,6.37993 -4.50195,10.13281 0,3.75285 3.00127,7.5069 9.00586,11.25977 0,4.50344 1.50163,7.1303 4.5039,7.88086 l -4.5039,19.13867 h 38.2793 l -4.50391,-15.76172 c 36.02747,-2.25172 54.7918,1.12595 56.29297,10.13281 1.50111,9.00687 7.50565,16.51299 18.01367,22.51758 -8.2563,9.75742 -12.38477,22.51729 -12.38477,38.2793 l -18.01367,111.45898 h 38.2793 c -12.00918,54.7918 -23.64179,130.59999 -34.90039,227.42383 h -1.12695 L 268.8457,628.86719 c -29.27232,-29.27232 -54.79199,-42.78103 -76.55859,-40.5293 V 421.71094 c 0.75058,-19.51488 -5.62834,-39.78083 -19.13867,-60.79688 8.2563,-17.26313 18.57648,-35.46391 30.96094,-54.60351 12.38443,-19.13959 11.07002,-34.71543 -3.94141,-46.72461 -12.00918,29.27232 -26.64503,52.54151 -43.9082,69.80468 -17.26313,17.26316 -29.45941,34.90034 -36.58985,52.91407 -7.13045,18.01373 -22.32992,52.16479 -45.597654,102.45312 21.766602,9.00686 38.278534,-7.50509 49.537114,-49.53711 11.25858,-16.51261 20.26633,-27.3964 27.02148,-32.65039 6.75515,-5.254 11.25804,3.00295 13.50976,24.76953 v 160.99805 c -32.27462,13.51033 -45.22166,26.27018 -38.84179,38.2793 6.37986,12.00917 19.32691,19.88971 38.84179,23.64258 18.7643,45.03432 53.29173,138.47971 103.58008,280.33789 h -1.12695 l -72.05469,31.52539 4.50391,37.15234 h 418.81836 l -57.41797,-59.66992 c 29.27233,-139.60648 47.28583,-258.57345 54.04102,-356.89844 h 58.54492 v -79.93555 c 0,-36.02747 -6.19172,-72.99256 -18.57618,-110.89648 -12.38444,-37.90388 -32.83762,-66.23766 -61.35937,-85.00195 16.5126,0 28.14524,-2.62683 34.90039,-7.88086 6.75515,-5.254 18.38979,-9.38246 34.90234,-12.38477 30.77349,3.75288 50.66305,-0.001 59.66993,-11.25976 10.50804,-15.76202 15.76171,-29.6471 15.76171,-41.65625 10e-6,-15.01145 -4.50286,-22.51758 -13.50976,-22.51758 -6.00456,0 -10.13305,4.12845 -12.38477,12.38476 -5.25404,18.01372 -12.38378,26.0835 -21.39062,24.20703 -9.00687,-1.87643 -20.45425,-4.69245 -34.33985,-8.44531 -11.20044,-3.02714 -23.62145,-1.41368 -37.26367,4.83789 1.75317,-7.0101 3.36441,-17.20944 4.83203,-30.59765 2.99511,-26.66511 -0.34806,-43.50179 -10.03125,-50.50977 15.14995,1.19224 22.97243,-0.95924 23.4668,-6.45508 0.78514,-6.83349 -7.66393,-11.47146 -25.34375,-13.91406 -3.08233,-0.31986 -6.03734,-0.46922 -8.86523,-0.44922 -8.48369,0.06 -15.82187,1.64888 -22.01563,4.76758 -8.25843,4.15819 -10.94904,12.50421 -8.07031,25.03711 17.53454,51.44016 19.55498,79.19462 6.0625,83.26562 l -2.35156,3.25586 c -5.72967,-0.37228 -11.28882,-1.90613 -16.67969,-4.60156 -10.44725,-4.64325 -20.6695,-7.49026 -30.66797,-8.54297 14.0232,-8.02214 29.71514,-10.46263 45.52149,-11.60937 L 547.875,69.402344 C 564.99829,60.652485 571.97739,44.182023 568.99805,29.765625 565.69688,13.792011 551.28047,0.18359692 532.03516,0.18359375 489.81628,0.18359375 485.375,37.576363 485.375,53.3125 v 91.36719 c -3.05136,-0.50087 -6.1818,-0.76172 -9.37109,-0.76172 -3.18993,0 -6.32111,0.26065 -9.37305,0.76172 l 0.002,-91.36719 c 0,-15.739188 -4.443,-53.12890625 -46.66015,-53.12890625 z m 0,15.00000025 c 21.89971,0 31.66015,13.512343 31.66015,38.128906 l -0.002,96.00977 c -19.72586,9.22434 -33.44922,29.27099 -33.44922,52.41796 0,10.45396 2.7984,20.27591 7.68555,28.75391 -10.44401,-5.04924 -21.02478,-8.43627 -31.71289,-10.09766 l 26.75,-160.36523 c -13.28622,-4.013347 -25.50981,-11.630758 -23.20508,-27.230469 1.92373,-9.308494 9.97734,-17.617185 22.27344,-17.617187 z m 112.0625,0 c 12.29609,2e-6 20.34971,8.308693 22.27343,17.617187 3.37339,15.898109 -10.70294,22.742627 -23.20507,27.230469 l 26.75,160.36523 c -10.68815,1.66138 -21.2689,5.04843 -31.7129,10.09766 4.88714,-8.47799 7.68555,-18.29997 7.68555,-28.75391 0,-23.14771 -13.72429,-43.19402 -33.45117,-52.41796 V 53.3125 c 0,-24.409162 9.59034,-38.128906 31.66016,-38.128906 z M 342.39258,150.48828 c 21.7508,0.17446 30.70753,5.93276 26.86914,17.27344 -10.70092,34.5454 -16.01343,57.1959 -15.27149,68.20703 0.7029,10.43206 3.1118,15.3662 7.17579,21.36523 -5.03785,-2.11265 -9.99549,-3.97761 -14.875,-5.59765 -3.80564,-6.04516 -6.90782,-19.09035 -9.30664,-39.13477 -2.7625,-28.81695 1.01693,-43.64698 11.33984,-44.49023 l 17.49023,-1.70117 -0.74023,-8.24414 c -27.77002,1.13404 -41.94577,0.3647 -42.52734,-2.31055 0.0872,-2.82062 3.61877,-4.28995 10.59765,-4.40625 -0.0873,2.82063 1.28094,4.27405 4.10156,4.36133 3.48948,-0.0582 5.20457,-1.83283 5.14649,-5.32227 z m 267.22265,0 c -0.0581,3.48944 1.65701,5.26407 5.14649,5.32227 2.82062,-0.0873 4.18886,-1.5407 4.10156,-4.36133 6.97888,0.1163 10.51046,1.58563 10.59766,4.40625 -0.58157,2.67525 -14.75733,3.44459 -42.52735,2.31055 l -0.74023,8.24414 17.49023,1.70117 c 10.32291,0.84325 14.10234,15.67328 11.33985,44.49023 -2.36034,19.72284 -5.40069,32.66874 -9.12305,38.83789 -5.12594,2.73116 -10.13946,4.68617 -15.03906,5.86524 4.05168,-5.98548 6.45257,-10.9213 7.15429,-21.33594 0.74194,-11.01113 -4.56861,-33.66163 -15.26953,-68.20703 -3.83839,-11.34068 5.11834,-17.09898 26.86914,-17.27344 z m -133.61132,8.42969 c 23.73924,0 42.82226,19.08302 42.82226,42.82226 0,23.73925 -19.08302,42.82422 -42.82226,42.82422 -23.73925,0 -42.82227,-19.08497 -42.82227,-42.82422 0,-23.73924 19.08302,-42.82226 42.82227,-42.82226 z M 246.32812,228.0625 h 2.25196 c 0.75056,1.50117 3.56462,6.75486 8.44336,15.76172 4.87874,9.00688 16.32613,13.50976 34.33984,13.50976 18.76433,0 36.77784,3.75405 54.04102,11.25977 17.26313,7.50572 29.27216,11.25781 36.02734,11.25781 l 42.7832,-4.5039 c 11.25859,0 19.51355,4.12846 24.76758,12.38476 l -7.88086,3.37891 c -14.26086,-9.00687 -30.20918,-10.50847 -47.84765,-4.50391 -17.63844,6.00458 -30.58745,9.00586 -38.84375,9.00586 -6.75515,0 -16.13734,-3.7521 -28.14649,-11.25781 -8.2563,-11.25859 -20.26531,-16.88867 -36.02734,-16.88867 -20.26545,0 -33.39974,-7.50417 -39.4043,-22.51563 h -2.25195 l -1.125,1.125 c 0,8.25631 7.88055,16.13686 23.64258,23.64258 28.52171,3.0023 42.7832,6.00556 42.7832,9.00781 h -28.14648 c -14.26086,0 -25.14465,-4.50485 -32.6504,-13.51172 -7.50571,-9.00686 -9.75814,-21.39033 -6.75586,-37.15234 z m 472.86133,1.125 h 1.125 c 0,21.01604 -11.63267,33.21423 -34.90039,36.5918 -23.26775,3.37757 -42.22128,9.1949 -56.85742,17.45117 -14.63619,8.25624 -27.39405,11.07036 -38.27734,8.44336 -10.88331,-2.62699 -25.70832,-3.94141 -44.47266,-3.94141 -16.51257,0 -33.02451,8.25693 -49.53711,24.76953 h -1.12695 c 18.7643,-21.76662 36.40341,-32.65039 52.91601,-32.65039 25.51949,0 46.91069,-4.87928 64.17383,-14.63672 17.26319,-9.75737 31.52464,-13.13314 42.7832,-10.13086 11.25857,3.00225 23.45485,4.31482 36.58985,3.93946 13.13503,-0.3753 22.32999,-10.32104 27.58398,-29.83594 z m 5.62891,0 c 0.75059,11.25859 -2.4399,22.32957 -9.57031,33.21289 -7.13046,10.88329 -22.70437,16.32617 -46.72266,16.32617 v -1.12695 c 21.7666,-2.25171 36.40248,-8.06707 43.9082,-17.44922 7.50573,-9.38216 11.63408,-19.7043 12.38477,-30.96289 z m -259.44531,29.39453 c 3.44734,0.64515 7.00125,0.98242 10.63086,0.98242 3.4126,0 6.75865,-0.2992 10.01171,-0.87109 -3.24833,2.26834 -6.58604,4.81854 -10.01171,7.64844 -3.31716,-2.94857 -6.86124,-5.53515 -10.63086,-7.75977 z m 61.29492,2.13086 c 10.50803,0 23.64231,3.37765 39.4043,10.13281 v 2.25196 c -28.52175,0 -48.22417,5.44091 -59.10743,16.32422 -10.88332,10.88329 -17.82583,18.20219 -20.82812,21.95507 l 4.5039,5.62891 c -20.26545,0.75059 -37.53014,6.37873 -51.79101,16.88672 -23.26776,6.75518 -34.90039,14.2613 -34.90039,22.51758 0,9.00687 9.38216,13.50976 28.14648,13.50976 8.25631,0 18.20014,-2.62687 29.83399,-7.88086 11.63385,-5.25403 21.95599,-8.2553 30.96289,-9.00586 1.50113,18.01373 -2.2529,27.3959 -11.25977,28.14649 -17.26318,14.26086 -25.89453,28.52038 -25.89453,42.78125 -12.00914,3.00227 -20.26609,-2.06227 -24.76953,-15.19727 -4.50343,-13.13501 -15.38528,-19.70312 -32.64844,-19.70312 h -66.42578 v -1.12696 l 18.01367,-12.38281 c 0.75057,-3.00226 -0.3766,-4.5039 -3.3789,-4.5039 l -19.13868,12.38476 c -2.25173,-2.25172 -3.37695,-4.50412 -3.37695,-6.75586 0,-3.00225 1.49964,-4.5039 4.50195,-4.5039 h 10.13282 c 2.25172,-10e-6 3.56601,-1.31247 3.9414,-3.93946 0.37526,-2.627 -0.18831,-3.9414 -1.68945,-3.9414 h -12.38477 c 1.50112,-3.00232 3.75355,-4.87835 6.75586,-5.62891 23.26772,-20.26545 41.28129,-31.52366 54.04102,-33.77539 7.50571,-10.50801 16.51345,-15.76172 27.02148,-15.76172 h 4.50196 c -12.00914,0.75055 -21.01495,6.75508 -27.01953,18.01367 -0.75058,2.25173 -0.18891,3.37695 1.6875,3.37695 h 5.0664 c 6.75516,-9.75743 14.26127,-15.01113 22.51758,-15.76171 15.76201,-0.75058 23.64258,-1.87581 23.64258,-3.37696 0.75058,-2.25173 0.002,-3.75332 -2.25,-4.5039 l -13.51172,1.125 v -1.125 c 3.00228,-0.75059 6.37995,-2.62663 10.13281,-5.62891 9.75744,-0.75056 22.51728,-6.38065 38.2793,-16.88867 18.01374,-15.76202 33.77678,-23.64258 47.28711,-23.64258 z m -102.45313,2.25195 c 18.76431,0 33.4002,4.87732 43.90821,14.63477 l -11.25977,5.63086 c -8.25628,-11.25857 -19.1381,-16.13787 -32.64844,-14.63672 -26.27003,3.00226 -43.53474,3.37673 -51.79101,1.125 24.76888,-4.50343 42.03359,-6.75391 51.79101,-6.75391 z M 546.93359,309.125 c 25.51945,0 49.5375,18.76434 72.05469,56.29297 22.51717,37.52862 33.77539,83.31231 33.77539,137.35351 v 60.79688 h -50.66406 l -7.88086,-60.79688 c 0,-21.01604 -13.13429,-31.71054 -39.4043,-32.08593 -26.27003,-0.37529 -39.40625,10.69573 -39.40625,33.21289 l -12.38476,59.66992 h -43.90821 l 16.88868,-146.36133 c 0.75056,-9.00687 7.12953,-18.38906 19.13867,-28.14648 10.50803,0 15.76367,-8.25696 15.76367,-24.76953 v -42.78321 c 10.50803,-8.2563 22.51705,-12.38281 36.02734,-12.38281 z m -124.9707,9.00586 c -10.50803,2.25172 -15.76172,7.131 -15.76172,14.63672 0,3.00231 2.25048,4.5039 6.75391,4.5039 12.75972,-2.25174 19.14062,-6.00576 19.14062,-11.25976 -2.25173,-5.25398 -5.62941,-7.88086 -10.13281,-7.88086 z m 76.55859,3.37695 v 23.64453 h -3.3789 v -22.51757 z m -7.88086,1.12696 v 22.51757 h -1.12695 v -21.39257 z m -7.88085,3.37695 v 20.26562 h -1.12696 c -21.76658,9.00686 -37.5277,14.07337 -47.28515,15.19922 -9.75743,1.12586 -16.88916,-0.9374 -21.39258,-6.1914 0,-2.25171 9.75855,-7.13097 29.27344,-14.63672 12.7597,-9.75742 26.27035,-14.63672 40.53125,-14.63672 z m -34.0586,117.65234 c 2.81464,0 5.16069,2.06521 7.03711,6.19336 l -16.88867,113.71094 h -19.13867 l 19.13867,-113.71094 c 3.75285,-4.12815 7.03692,-6.19336 9.85156,-6.19336 z m 106.11328,46.72266 c 12.75971,0 19.13867,4.50486 19.13867,13.51172 l 9.00782,78.80859 c 3.00227,60.79639 -15.76211,185.76796 -56.29297,374.91211 l 23.64258,14.63477 H 241.82617 L 306,944.10742 218.18164,705.42578 c -7.50571,-45.78494 6.75577,-58.54477 42.7832,-38.2793 l 145.23633,194.77344 24.76758,-13.50976 c 6.75515,-114.8376 18.7642,-203.40562 36.02734,-265.70313 h 54.04102 l 13.51172,-78.80859 c 0,-9.00686 6.75531,-13.51172 20.26562,-13.51172 z M 184.48633,609.2168 c 14.25501,-0.0806 28.86358,6.84482 43.82812,20.77734 -16.51262,2.25169 -29.64685,9.75781 -39.40429,22.51758 0,-18.01373 -9.00776,-26.64506 -27.02149,-25.89453 -18.01374,0.75059 -16.88653,-3.56512 3.37891,-12.94727 6.33295,-2.93193 12.7392,-4.41647 19.21875,-4.45312 z"
     sodipodi:nodetypes="sscccsccsscccccsscsssccsscccccscccccsccccccccccscssccsccscccccccccsscsccsscsscccccsscccccccssscsccssccscccsssscccscssccsccccccccccccccccccccsccsssssccsssccccsscscccccsscccssssccssssccsccsccscccsccscccssscccsscccccssscscccsccsccccccccssccccsssscccscccccscscsccccccccccccccccscccsccccsscccccccccccccssccsss" />
</svg>
