<?xml version="1.0" encoding="UTF-8" standalone="no"?>
<svg
   width="800"
   height="1000"
   version="1.1"
   id="svg1"
   sodipodi:docname="1381C.svg"
   inkscape:version="1.4.3 (0d15f75, 2025-12-25)"
   xmlns:inkscape="http://www.inkscape.org/namespaces/inkscape"
   xmlns:sodipodi="http://sodipodi.sourceforge.net/DTD/sodipodi-0.dtd"
   xmlns="http://www.w3.org/2000/svg"
   xmlns:svg="http://www.w3.org/2000/svg">
  <defs
     id="defs1" />
  <sodipodi:namedview
     id="namedview1"
     pagecolor="#ffffff"
     bordercolor="#000000"
     borderopacity="0.25"
     inkscape:showpageshadow="2"
     inkscape:pageopacity="0.0"
     inkscape:pagecheckerboard="0"
     inkscape:deskcolor="#d1d1d1"
     inkscape:zoom="0.32688404"
     inkscape:cx="585.83466"
     inkscape:cy="475.70386"
     inkscape:window-width="1680"
     inkscape:window-height="998"
     inkscape:window-x="-8"
     inkscape:window-y="-8"
     inkscape:window-maximized="1"
     inkscape:current-layer="svg1"
     showguides="true">
    <sodipodi:guide
       position="531.00884,970.23804"
       orientation="1,0"
       id="guide1"
       inkscape:locked="false" />
  </sodipodi:namedview>
  <path
     id="path1"
     style="fill:#000000;stroke:none;stroke-width:46.2751"
     d="m 550.6582,0 c -12.52891,0 -23.85935,3.933131 -28.7871,28.578125 l -0.16406,119.980465 c -17.46783,0.8887 -27.62141,5.30718 -30.46094,13.25782 -10.86927,1.27876 -28.13241,10.86912 -51.78906,28.77148 -19.82049,10.22994 -29.73047,18.22224 -29.73047,23.97656 0,6.39368 1.43924,9.75062 4.31641,10.07032 2.87717,0.31967 8.47141,8.47279 16.7832,24.45703 0,14.06615 4.47656,22.05842 13.42774,23.97656 3.83623,-0.63939 9.58926,-3.51784 17.26171,-8.63281 1.27872,6.39374 5.43568,13.10757 12.46876,20.14062 -37.72281,15.34487 -58.50364,39.96108 -62.33985,73.84766 -13.42675,22.37798 -27.49174,46.99413 -42.19726,73.84765 -23.65669,0 -61.38097,3.19614 -113.16993,9.58985 -10.86928,-6.39371 -22.05776,-10.22909 -33.5664,-11.50781 V 246.21484 c 0.63936,-16.62359 -3.83523,-31.969 -13.42578,-46.03515 5.7543,-12.78739 12.94664,-25.73472 21.57812,-38.8418 8.63151,-13.10709 7.83148,-23.81709 -2.39844,-32.12891 -8.95119,20.45985 -19.50039,36.60525 -31.64843,48.4336 -12.14802,11.82832 -20.93842,24.13444 -26.37305,36.92187 -5.43466,12.78738 -16.14469,36.44472 -32.12891,70.97071 15.34487,6.39368 27.17258,-5.1144 35.48438,-34.52539 8.31181,-11.50867 14.70606,-19.02254 19.18164,-22.53907 4.47561,-3.51651 7.67175,2.39928 9.58984,17.74414 v 184.13868 c -16.62359,-0.6394 -24.13553,1.43713 -22.53711,6.23242 1.59842,4.79528 5.27497,6.87377 11.0293,6.23437 -6.39369,15.3449 11.50781,45.07617 11.50781,45.07617 v 441.16407 c -12.78738,2.55744 -19.4993,11.50861 -20.13867,26.85351 -0.63934,4.47561 1.27837,9.11096 5.75391,13.90625 4.47563,4.79524 3.03635,11.02867 -4.31641,18.70117 -7.35276,7.67232 -4.79387,8.79205 7.67383,3.35743 12.46773,-5.43465 14.54422,-17.42309 6.23242,-35.96485 0.63938,-8.95118 5.75515,-13.42578 15.3457,-13.42578 8.95116,0 13.74541,4.4746 14.38477,13.42578 -6.39368,18.54176 -4.47407,30.36942 5.75586,35.48438 10.22991,5.11508 12.94565,4.15801 8.15039,-2.875 -4.79531,-7.0331 -5.59336,-13.10768 -2.39649,-18.22266 3.19686,-5.11495 4.47532,-9.91111 3.83594,-14.38672 0,-15.34502 -6.39425,-24.61582 -19.18164,-27.8125 L 222.71094,486.9375 c 0,0 20.46122,-6.39437 34.52734,-17.26367 31.96851,5.11496 76.72428,6.39347 134.26758,3.83594 31.32907,-34.52596 51.78834,-66.49331 61.37891,-95.9043 12.14802,22.37792 18.22265,45.71368 18.22265,70.00976 0,12.14802 -0.48041,27.01303 -1.43945,44.59571 -0.95907,17.58263 -5.59447,47.79306 -13.90625,90.63086 l -25.89453,142.90039 h 4.79492 c -4.47564,11.50866 -6.55411,20.29903 -6.23438,26.37304 0.31968,6.07399 -0.79798,11.3486 -3.35546,15.82422 -2.55748,4.4756 -5.59479,20.46023 -9.11133,47.95313 -3.51651,27.4929 -9.11078,53.86598 -16.78321,79.12109 -7.67243,25.25507 -14.8647,41.4005 -21.57812,48.4336 -6.71337,7.03309 -22.85881,13.42533 -48.43359,19.17968 -25.57482,5.75426 -43.79675,8.63282 -54.66602,8.63282 v 11.50781 c 0.63939,8.95118 12.14745,14.06697 34.52539,15.3457 13.42676,1.27872 26.53486,-0.63895 39.32227,-5.7539 12.78738,-5.11493 30.05049,-3.67769 51.78906,4.31445 21.7386,7.99197 31.64859,1.59973 29.73047,-19.17969 -1.91811,-20.77957 1.278,-40.76034 9.58984,-59.94141 29.41098,-51.14958 43.63681,-87.43458 42.67774,-108.85351 -0.95901,-21.41889 7.51367,-49.07045 25.41601,-82.95703 h 20.14063 c 0,1.27872 2.55687,4.79449 7.67187,10.54883 0,12.148 4.15498,22.69723 12.4668,31.64843 18.54171,88.23301 26.53406,142.58414 23.97656,157.60938 -2.55741,15.02515 -14.70476,27.1725 -36.44336,36.44336 -21.73857,9.27088 -42.19778,14.54548 -61.3789,15.82422 v 14.38671 c 1.27873,3.19684 5.27487,5.43418 11.98828,6.7129 6.71338,1.27858 21.89802,0.63947 45.55468,-1.91797 15.98427,-7.67246 29.72963,-9.10974 41.23828,-4.31446 11.50865,4.79518 23.81673,6.71289 36.92383,5.75391 13.10707,-0.959 19.66211,-6.55325 19.66211,-16.7832 0.63936,-7.03309 -1.4391,-18.70192 -6.23437,-35.00586 -4.79528,-16.30387 -5.59529,-30.84927 -2.39844,-43.63672 4.4756,-65.21572 1.59908,-109.33725 -8.63086,-126.91992 -10.22989,-17.58264 -15.3457,-34.36538 -15.3457,-50.34961 h 3.83593 c 25.57484,61.37948 45.07717,139.38111 58.50391,234.00781 l 15.34375,-1.91797 C 659.72026,861.92659 638.6218,780.72689 611.12891,714.23242 L 605.375,697.92969 600.57812,539.68555 c 0,-19.8205 -4.15502,-38.68356 -12.46679,-56.58594 1.91809,-13.42673 0.95928,-26.2133 -2.87695,-38.36133 -0.63937,-30.68981 5.11366,-58.18249 17.26171,-82.47851 h 2.87891 c 10.22991,28.13228 22.69683,54.0269 37.40234,77.68359 -10.86923,21.09919 -16.46345,42.67808 -16.7832,64.73633 -0.31965,22.05825 -3.03734,41.39785 -8.15234,58.02148 -4.47557,6.39372 -7.99137,11.82909 -10.54883,16.30469 -2.55746,4.47559 -3.03787,11.66792 -1.43945,21.57812 1.59842,9.91025 1.7592,17.74371 0.48046,23.49805 0.63935,5.11494 3.19627,5.75418 7.67188,1.91797 2.55745,-3.19686 3.19671,-12.46764 1.91797,-27.8125 2.5575,-4.4756 4.79478,-4.7952 6.71289,-0.95898 4.47557,8.31181 2.2383,25.89448 -6.71289,52.74804 0,3.19687 0.31937,5.27345 0.95898,6.23242 0.6393,0.95929 2.55704,0.48075 5.75391,-1.4375 1.91814,2.55746 4.15736,3.19669 6.71484,1.91797 1.27859,2.55745 3.51589,2.55745 6.71289,0 1.27872,1.91793 2.87698,1.91793 4.79493,0 1.91794,-1.91813 3.83564,-7.99273 5.7539,-18.22265 10.22995,-23.0173 7.35341,-44.75502 -8.63086,-65.21485 23.01718,-43.47715 36.12333,-85.99564 39.32031,-127.55468 -1.27872,-26.85357 -8.95142,-57.86205 -23.01757,-93.02735 -1.9181,-89.51181 -16.62236,-146.09724 -44.11524,-169.7539 -25.33848,-21.80287 -50.40579,-33.28569 -75.20117,-34.45118 0.0722,-4.70593 0.42068,-8.01261 1.02734,-10.55468 0.93212,-3.90593 2.41677,-6.13409 4.85938,-9.45313 8.42035,-9.67421 21.15412,-14.80812 33.59765,-16.76367 L 562.3418,57.291016 c -2.03084,-9.122285 -3.34068,-15.741928 -3.20896,-17.808594 7.36739,-4.96868 12.82227,-11.112861 12.82227,-19.867188 C 571.95508,7.6724151 563.21228,0 550.6582,0 Z m 0.20508,11.734375 c 5.19215,2.4e-5 9.95508,2.260359 9.95508,7.285156 0,4.109317 -3.32802,7.62853 -10.88086,12.732422 -4.61134,2.07628 -1.7031,18.077126 -1.65234,18.34375 l 9.57812,50.306637 c -8.35232,2.61307 -16.31654,6.85385 -24.85351,12.60547 V 30.082031 c 3.94165,-14.690262 10.14889,-18.347626 17.85351,-18.347656 z M 522.70117,161.5625 c 4.44562,-0.14985 10.26412,0.57345 17.45703,2.17188 -8.31183,1.27875 -13.74528,3.19841 -16.30273,5.75585 -4.47559,-1.27872 -7.03447,-3.51798 -7.67383,-6.71484 1.67834,-0.71929 3.85216,-1.12298 6.51953,-1.21289 z m 29.92578,6.00977 c 55.6252,11.50864 84.07676,69.3706 85.35547,173.58789 h -35.48437 l 10.54883,-35.48438 c 0.63938,-10.8693 -16.3041,-16.30469 -50.83008,-16.30469 v 62.33985 h -20.14063 v -58.50391 c 0,-19.18112 -2.23728,-31.96765 -6.71289,-38.36133 7.67242,-8.31183 14.5451,-17.74339 20.61914,-28.29297 6.07398,-10.54962 9.11133,-23.49692 9.11133,-38.84179 0,-8.95116 -4.155,-15.66309 -12.4668,-20.13867 z m -51.78906,0.95898 c 3.19686,0 8.31068,2.87652 15.34375,8.63086 -11.50864,12.14801 -17.26172,23.65607 -17.26172,34.52539 1.27874,10.22991 4.47491,15.3457 9.58985,15.3457 5.11495,0 9.26992,-3.19806 12.46679,-9.59179 8.95115,-24.29603 14.86697,-35.64332 17.74414,-34.04493 2.87718,1.59843 0.79867,5.91418 -6.23437,12.94727 l 3.83594,4.79492 c 7.67245,-5.11495 11.50781,-10.23073 11.50781,-15.3457 0,-6.39368 -3.19612,-9.58985 -9.58985,-9.58985 -8.3118,0 -14.70604,7.35308 -19.18164,22.0586 -4.47556,14.70551 -7.83248,20.77821 -10.07031,18.2207 -2.2378,-2.55746 -2.39658,-7.51247 -0.47851,-14.86523 1.91816,-7.35277 6.87311,-14.70389 14.86523,-22.05664 7.9921,-7.35275 14.54519,-9.91165 19.66016,-7.67383 5.11494,2.23778 7.67382,7.51242 7.67382,15.82422 0,10.86931 -4.31577,23.65779 -12.94726,38.36328 -8.63148,14.70548 -18.86308,24.61551 -30.69141,29.73047 -8.27348,3.57771 -21.2832,11.53449 -25.3164,15.99414 -2.51077,-2.56111 -6.67393,-6.29043 -7.76953,-9.75977 -1.91812,-6.07402 -5.11625,-9.11133 -9.5918,-9.11133 -4.47562,0 -8.31096,1.27846 -11.50781,3.83594 -3.19683,2.55749 -6.07335,3.51632 -8.63086,2.87695 -2.55744,-0.63936 -3.83789,-3.19629 -3.83789,-7.67187 0,-0.63939 7.35312,-2.55705 22.05859,-5.75391 l -0.95899,-4.79687 -24.93554,1.91797 c 0,-3.83623 -2.87651,-9.26968 -8.63086,-16.30274 0,-1.27876 3.19614,-4.15527 9.58984,-8.63086 l -8.63086,-5.75586 c -1.91809,-2.55749 8.95072,-10.86941 32.60742,-24.93554 l 1.91797,8.63281 c -10.86928,8.31179 -15.98313,14.38447 -15.34375,18.2207 0.63936,5.11496 2.3963,9.11111 5.27344,11.98828 2.87717,2.87717 7.83218,5.59484 14.86524,8.15235 -13.42674,-15.98427 -9.58945,-28.4512 11.50976,-37.40235 7.67241,-0.63936 11.50781,-3.83744 11.50781,-9.59179 0,-5.75434 -4.47461,-9.2701 -13.42578,-10.54883 11.50867,-2.55747 19.18138,-5.434 23.01758,-8.63086 z m -29.73047,13.42578 13.42578,4.79492 -13.42578,6.71485 c -3.19686,-3.83622 -3.19686,-7.67358 0,-11.50977 z m 53.70703,78.64258 c 6.39366,3.83624 8.63099,13.42664 6.71289,28.77148 h -16.30468 c -31.32911,0 -28.13107,-9.5904 9.59179,-28.77148 z m -44.11718,37.4043 h 19.18164 v 53.70703 h -19.18164 z m 33.5664,0.95898 h 17.26367 v 59.46094 c -1.91811,1.91815 -5.11619,2.87695 -9.59179,2.87695 -4.47558,0 -8.95018,-0.9588 -13.42578,-2.87695 v -55.625 z m -41.23828,0.95899 v 29.73046 c -3.83623,-9.59057 -6.07546,-18.86131 -6.71484,-27.8125 z m 104.41602,0.83789 c 7.43268,0.23977 14.50535,1.55939 21.21875,3.95703 -4.47561,16.62364 -14.06598,30.04939 -28.77149,40.27929 v -44.11523 c 2.55748,-0.15984 5.07518,-0.20102 7.55274,-0.12109 z m -118.80274,2.99804 c 2.5575,16.6236 7.35367,29.72976 14.38672,39.32031 v 20.14063 L 450.9668,304.7168 Z m 140.98047,19.17969 -8.63086,40.28125 h -5.7539 l 0.95898,-17.26367 z m -19.17969,24.93555 -1.91797,15.3457 h -11.50976 z m -99.74218,8.63281 h 20.14062 v 3.83594 h -20.14062 z m 61.3789,0 h 20.14063 v 3.83594 h -20.14063 z m -72.88672,18.2207 h 115.08594 l -2.87695,8.63282 H 472.06641 Z m 5.75391,19.18164 h 103.57812 c -3.83619,15.34487 -5.11659,31.3295 -3.83789,47.95313 l -93.02734,48.91211 c 1.91809,-34.52592 -0.31919,-66.81486 -6.71289,-96.86524 z m 97.82226,59.46094 c 6.39368,6.39368 7.67412,15.66448 3.8379,27.8125 l -84.39844,31.65039 c 3.19688,-7.03305 3.19688,-12.78807 0,-17.26367 z m 1.91797,41.24024 c 7.03306,4.47559 11.02921,21.57791 11.98829,51.30859 0.95906,29.7307 2.71795,83.27884 5.27539,160.64258 H 548.78906 C 508.50875,659.88656 484.8534,602.02262 477.82031,532.9707 c 51.78898,-18.54174 84.0759,-31.32827 96.86328,-38.36132 z m -94.46679,5.99414 c 2.87714,-2e-5 4.3164,2.15691 4.3164,6.47265 0,5.75436 -3.19614,9.91128 -9.58984,12.46875 l 1.91797,-18.22265 c 1.27873,-0.47954 2.39642,-0.71875 3.35547,-0.71875 z m -9.10938,60.17968 c 6.39372,56.26453 27.17255,104.85767 62.33789,145.77735 h -87.27343 z m -26.85351,151.53125 h 153.44726 l 0.95899,4.79493 H 443.29492 Z"
     sodipodi:nodetypes="sccccssccccccccccscssccsccsccccssscscsssccccccsscccsssssscccssscsccccssccscsscscsccccccccccccscsscccccccccsccccscsscscsssscscccsscccscccccccscssccccscsccsssssssssscssssscccccccccsccsccccccccscccccccccscccccccscccsccccccccccccccccccccccccccccccccccccccccsccccssccsccccccccc" />
</svg>
