<?xml version="1.0" encoding="UTF-8" standalone="no"?>
<svg
   width="800"
   height="1000"
   id="svg1972"
   sodipodi:version="0.32"
   inkscape:version="1.4.3 (0d15f75, 2025-12-25)"
   sodipodi:docname="13811.svg"
   version="1.1"
   xmlns:inkscape="http://www.inkscape.org/namespaces/inkscape"
   xmlns:sodipodi="http://sodipodi.sourceforge.net/DTD/sodipodi-0.dtd"
   xmlns="http://www.w3.org/2000/svg"
   xmlns:svg="http://www.w3.org/2000/svg"
   xmlns:rdf="http://www.w3.org/1999/02/22-rdf-syntax-ns#"
   xmlns:cc="http://creativecommons.org/ns#"
   xmlns:dc="http://purl.org/dc/elements/1.1/">
  <metadata
     id="metadata1979">
    <rdf:RDF>
      <cc:Work
         rdf:about="">
        <dc:format>image/svg+xml</dc:format>
        <dc:type
           rdf:resource="http://purl.org/dc/dcmitype/StillImage" />
      </cc:Work>
    </rdf:RDF>
  </metadata>
  <defs
     id="defs1977" />
  <sodipodi:namedview
     inkscape:window-height="998"
     inkscape:window-width="1680"
     inkscape:pageshadow="2"
     inkscape:pageopacity="0.0"
     guidetolerance="10.0"
     gridtolerance="10.0"
     objecttolerance="10.0"
     borderopacity="1.0"
     bordercolor="#666666"
     pagecolor="#ffffff"
     id="base"
     inkscape:showpageshadow="2"
     inkscape:pagecheckerboard="0"
     inkscape:deskcolor="#d1d1d1"
     inkscape:zoom="0.15983218"
     inkscape:cx="46.924219"
     inkscape:cy="-578.73204"
     inkscape:window-x="-8"
     inkscape:window-y="-8"
     inkscape:window-maximized="1"
     inkscape:current-layer="svg1972"
     showguides="true">
    <sodipodi:guide
       position="476.00373,716.21708"
       orientation="1,0"
       id="guide2"
       inkscape:locked="false" />
  </sodipodi:namedview>
  <path
     id="path8"
     style="fill:#000000;stroke:none;stroke-width:49.6613"
     inkscape:transform-center-x="129.02254"
     inkscape:transform-center-y="78.773355"
     d="M 487.13281 0.02734375 C 486.13851 0.077781886 485.13894 0.18292575 484.13672 0.34570312 C 476.11892 1.6479221 468.34184 6.5130393 461.82812 14.628906 C 418.44241 68.686131 393.09202 152.84206 387.88086 252.70312 C 383.16738 253.46927 378.05166 254.33534 372.5332 255.30273 C 359.04072 251.23173 361.06116 223.47727 378.5957 172.03711 C 381.47443 159.50421 378.78382 151.15819 370.52539 147 C 364.33163 143.8813 356.99346 142.2924 348.50977 142.23242 C 345.68188 142.21242 342.72686 142.36178 339.64453 142.68164 C 321.96471 145.12424 313.51564 149.76221 314.30078 156.5957 C 314.79515 162.09154 322.61763 164.24302 337.76758 163.05078 C 328.08439 170.05876 324.74122 186.89544 327.73633 213.56055 C 329.50315 229.67818 331.4776 241.17306 333.6582 248.04688 C 320.65304 244.78575 308.24335 243.37841 296.42969 243.82422 C 276.53952 244.5748 264.53049 239.32109 260.40234 228.0625 C 256.2742 216.80393 251.20772 211.55022 245.20312 212.30078 C 238.44798 213.80194 235.07031 223.55854 235.07031 241.57227 C 235.07031 252.83086 238.82241 263.90187 246.32812 274.78516 C 253.83385 285.66848 267.34451 291.11133 286.85938 291.11133 L 317.25781 291.11133 C 331.51869 302.36991 343.52773 307.99805 353.28516 307.99805 C 362.29202 308.74861 372.61221 307.05979 384.24609 302.93164 C 395.87994 298.80348 405.44934 296.74023 412.95508 296.74023 C 420.4608 296.74023 426.84168 297.49104 432.0957 298.99219 L 427.5918 300.11719 C 404.32405 297.86545 388.93735 303.49555 381.43164 317.00586 C 366.42019 321.50929 350.65908 331.64228 334.14648 347.4043 C 323.63849 351.90774 318.38281 358.6611 318.38281 367.66797 C 315.38049 370.67028 313.88086 374.0479 313.88086 377.80078 C 313.88086 381.55363 316.88213 385.30768 322.88672 389.06055 C 322.88672 393.56399 324.38835 396.19085 327.39062 396.94141 L 322.88672 416.08008 L 361.16602 416.08008 L 356.66211 400.31836 C 392.68958 398.06664 411.45391 401.44431 412.95508 410.45117 C 414.45619 419.45804 420.46073 426.96416 430.96875 432.96875 C 422.71245 442.72617 418.58398 455.48604 418.58398 471.24805 L 400.57031 582.70703 L 438.84961 582.70703 C 426.84043 637.49883 415.20782 713.30702 403.94922 810.13086 L 402.82227 810.13086 L 268.8457 628.86719 C 239.57338 599.59487 214.05371 586.08616 192.28711 588.33789 L 192.28711 421.71094 C 193.03769 402.19606 186.65877 381.93011 173.14844 360.91406 C 181.40474 343.65093 191.72492 325.45015 204.10938 306.31055 C 216.49381 287.17096 215.1794 271.59512 200.16797 259.58594 C 188.15879 288.85826 173.52294 312.12745 156.25977 329.39062 C 138.99664 346.65378 126.80036 364.29096 119.66992 382.30469 C 112.53947 400.31842 97.34 434.46948 74.072266 484.75781 C 95.838868 493.76467 112.3508 477.25272 123.60938 435.2207 C 134.86796 418.70809 143.87571 407.8243 150.63086 402.57031 C 157.38601 397.31631 161.8889 405.57326 164.14062 427.33984 L 164.14062 588.33789 C 131.866 601.84822 118.91896 614.60807 125.29883 626.61719 C 131.67869 638.62636 144.62574 646.5069 164.14062 650.25977 C 182.90492 695.29409 217.43235 788.73948 267.7207 930.59766 L 266.59375 930.59766 L 194.53906 962.12305 L 199.04297 999.27539 L 617.86133 999.27539 L 560.44336 939.60547 C 589.71569 799.99899 607.72919 681.03202 614.48438 582.70703 L 673.0293 582.70703 L 673.0293 502.77148 C 673.0293 466.74401 666.83758 429.77892 654.45312 391.875 C 642.06868 353.97112 621.6155 325.63734 593.09375 306.87305 C 609.60635 306.87305 621.23899 304.24622 627.99414 298.99219 C 634.74929 293.73819 646.38393 289.60973 662.89648 286.60742 C 693.66997 290.3603 713.55953 286.60623 722.56641 275.34766 C 733.07445 259.58564 738.32812 245.70056 738.32812 233.69141 C 738.32813 218.67996 733.82526 211.17383 724.81836 211.17383 C 718.8138 211.17383 714.68531 215.30228 712.43359 223.55859 C 707.17955 241.57231 700.04981 249.64209 691.04297 247.76562 C 682.0361 245.88919 670.58872 243.07317 656.70312 239.32031 C 645.50268 236.29317 633.08167 237.90663 619.43945 244.1582 C 621.19262 237.1481 622.80386 226.94876 624.27148 213.56055 C 627.26659 186.89544 623.92342 170.05876 614.24023 163.05078 C 629.39018 164.24302 637.21266 162.09154 637.70703 156.5957 C 638.49217 149.76221 630.0431 145.12424 612.36328 142.68164 C 609.28095 142.36178 606.32594 142.21242 603.49805 142.23242 C 595.01436 142.2924 587.67618 143.8813 581.48242 147 C 573.22399 151.15819 570.53338 159.50421 573.41211 172.03711 C 590.94665 223.47727 592.96709 251.23173 579.47461 255.30273 L 577.12305 258.55859 C 571.39338 258.18631 565.83423 256.65246 560.44336 253.95703 C 553.84926 251.0263 547.345 248.81084 540.92969 247.31055 C 566.52967 165.76548 581.71878 98.846032 573.35352 44.515625 C 571.76983 34.229962 567.46615 26.127271 561.17383 20.990234 C 556.45459 17.137457 550.78022 15.124577 545.04102 14.75 C 543.12795 14.625141 541.20671 14.682479 539.3125 14.914062 C 531.99879 15.808238 524.91662 19.10101 518.99414 24.332031 C 516.48024 16.84019 511.99429 10.447446 506.10742 6.015625 C 501.53361 2.5723148 495.97293 0.37272636 490.0957 0.037109375 C 489.11617 -0.018826785 488.12712 -0.023094386 487.13281 0.02734375 z M 489.32031 14.990234 C 492.04429 15.123479 494.6146 16.139498 497.08594 18 C 503.67618 22.961339 508.54879 34.342048 505.08594 47.267578 L 479.08008 144.33398 C 476.80168 144.05906 474.48324 143.91797 472.13281 143.91797 C 440.28696 143.91797 414.31055 169.89438 414.31055 201.74023 C 414.31055 221.5436 424.35635 239.07838 439.61133 249.50781 C 434.72496 248.72144 429.59269 248.32812 424.21484 248.32812 C 419.90421 248.32812 412.84139 249.01526 403.0293 250.39062 C 408.50829 154.02205 433.5729 73.799531 473.52734 24.017578 C 478.2813 18.094304 482.76656 15.765692 486.54297 15.152344 C 487.48707 14.999007 488.41232 14.94582 489.32031 14.990234 z M 542.64062 29.681641 C 546.09285 29.54889 549.09389 30.49196 551.6875 32.609375 C 554.65162 35.029278 557.3734 39.289591 558.5293 46.796875 C 566.25497 96.973328 551.70575 163.14074 525.90234 245.09375 C 524.27521 244.99754 522.65222 244.95117 521.03711 244.95117 C 516.8402 244.95117 512.40092 245.72083 507.7168 247.26367 C 521.23998 236.66304 529.95508 220.18641 529.95508 201.74023 C 529.95508 177.47707 514.8764 156.62077 493.61133 148.06445 L 519.57617 51.148438 C 523.03903 38.222907 532.94576 30.805639 541.13281 29.804688 C 541.6445 29.742128 542.14745 29.700605 542.64062 29.681641 z M 342.39258 150.48828 C 364.14338 150.66274 373.10011 156.42104 369.26172 167.76172 C 358.5608 202.30712 353.24829 224.95762 353.99023 235.96875 C 354.69313 246.40081 357.10203 251.33495 361.16602 257.33398 C 356.12817 255.22133 351.17053 253.35637 346.29102 251.73633 C 342.48538 245.69117 339.3832 232.64598 336.98438 212.60156 C 334.22188 183.78461 338.00131 168.95458 348.32422 168.11133 L 365.81445 166.41016 L 365.07422 158.16602 C 337.3042 159.30006 323.12845 158.53072 322.54688 155.85547 C 322.63407 153.03485 326.16565 151.56552 333.14453 151.44922 C 333.05723 154.26985 334.42547 155.72327 337.24609 155.81055 C 340.73557 155.75235 342.45066 153.97772 342.39258 150.48828 z M 609.61523 150.48828 C 609.55715 153.97772 611.27224 155.75235 614.76172 155.81055 C 617.58234 155.72327 618.95058 154.26985 618.86328 151.44922 C 625.84216 151.56552 629.37374 153.03485 629.46094 155.85547 C 628.87937 158.53072 614.70361 159.30006 586.93359 158.16602 L 586.19336 166.41016 L 603.68359 168.11133 C 614.0065 168.95458 617.78593 183.78461 615.02344 212.60156 C 612.6631 232.3244 609.62275 245.2703 605.90039 251.43945 C 600.77445 254.17061 595.76093 256.12562 590.86133 257.30469 C 594.91301 251.31921 597.3139 246.38339 598.01562 235.96875 C 598.75756 224.95762 593.44701 202.30712 582.74609 167.76172 C 578.9077 156.42104 587.86443 150.66274 609.61523 150.48828 z M 472.13281 158.91797 C 495.87206 158.91797 514.95508 178.00099 514.95508 201.74023 C 514.95508 225.47948 495.87206 244.56445 472.13281 244.56445 C 448.39356 244.56445 429.31055 225.47948 429.31055 201.74023 C 429.31055 178.00099 448.39356 158.91797 472.13281 158.91797 z M 246.32812 228.0625 L 248.58008 228.0625 C 249.33064 229.56367 252.1447 234.81736 257.02344 243.82422 C 261.90218 252.8311 273.34957 257.33398 291.36328 257.33398 C 310.12761 257.33398 328.14112 261.08803 345.4043 268.59375 C 362.66743 276.09947 374.67646 279.85156 381.43164 279.85156 L 424.21484 275.34766 C 435.47343 275.34766 443.72839 279.47612 448.98242 287.73242 L 441.10156 291.11133 C 426.8407 282.10446 410.89238 280.60286 393.25391 286.60742 C 375.61547 292.612 362.66646 295.61328 354.41016 295.61328 C 347.65501 295.61328 338.27282 291.86118 326.26367 284.35547 C 318.00737 273.09688 305.99836 267.4668 290.23633 267.4668 C 269.97088 267.4668 256.83659 259.96263 250.83203 244.95117 L 248.58008 244.95117 L 247.45508 246.07617 C 247.45508 254.33248 255.33563 262.21303 271.09766 269.71875 C 299.61937 272.72105 313.88086 275.72431 313.88086 278.72656 L 285.73438 278.72656 C 271.47352 278.72656 260.58973 274.22171 253.08398 265.21484 C 245.57827 256.20798 243.32584 243.82451 246.32812 228.0625 z M 719.18945 229.1875 L 720.31445 229.1875 C 720.31445 250.20354 708.68178 262.40173 685.41406 265.7793 C 662.14631 269.15687 643.19278 274.9742 628.55664 283.23047 C 613.92045 291.48671 601.16259 294.30083 590.2793 291.67383 C 579.39599 289.04684 564.57098 287.73242 545.80664 287.73242 C 529.29407 287.73242 512.78213 295.98935 496.26953 312.50195 L 495.14258 312.50195 C 513.90688 290.73533 531.54599 279.85156 548.05859 279.85156 C 573.57808 279.85156 594.96928 274.97228 612.23242 265.21484 C 629.49561 255.45747 643.75706 252.0817 655.01562 255.08398 C 666.27419 258.08623 678.47047 259.3988 691.60547 259.02344 C 704.7405 258.64814 713.93546 248.7024 719.18945 229.1875 z M 724.81836 229.1875 C 725.56895 240.44609 722.37846 251.51707 715.24805 262.40039 C 708.11759 273.28368 692.54368 278.72656 668.52539 278.72656 L 668.52539 277.59961 C 690.29199 275.3479 704.92787 269.53254 712.43359 260.15039 C 719.93932 250.76823 724.06767 240.44609 724.81836 229.1875 z M 487.97656 257.35156 C 484.11388 259.94237 480.12298 262.93909 476.00391 266.3418 C 473.03617 263.70382 469.88654 261.35538 466.55664 259.29688 C 468.39192 259.47387 470.25247 259.56445 472.13281 259.56445 C 477.62278 259.56445 482.93848 258.79263 487.97656 257.35156 z M 526.66797 260.71289 C 537.176 260.71289 550.31028 264.09054 566.07227 270.8457 L 566.07227 273.09766 C 537.55052 273.09766 517.8481 278.53857 506.96484 289.42188 C 496.08152 300.30517 489.13901 307.62407 486.13672 311.37695 L 490.64062 317.00586 C 470.37517 317.75645 453.11048 323.38459 438.84961 333.89258 C 415.58185 340.64776 403.94922 348.15388 403.94922 356.41016 C 403.94922 365.41703 413.33138 369.91992 432.0957 369.91992 C 440.35201 369.91992 450.29584 367.29305 461.92969 362.03906 C 473.56354 356.78503 483.88568 353.78376 492.89258 353.0332 C 494.39371 371.04693 490.63968 380.4291 481.63281 381.17969 C 464.36963 395.44055 455.73828 409.70007 455.73828 423.96094 C 443.72914 426.96321 435.47219 421.89867 430.96875 408.76367 C 426.46532 395.62866 415.58347 389.06055 398.32031 389.06055 L 331.89453 389.06055 L 331.89453 387.93359 L 349.9082 375.55078 C 350.65877 372.54852 349.5316 371.04688 346.5293 371.04688 L 327.39062 383.43164 C 325.13889 381.17992 324.01367 378.92752 324.01367 376.67578 C 324.01367 373.67353 325.51331 372.17188 328.51562 372.17188 L 338.64844 372.17188 C 340.90016 372.17187 342.21445 370.85941 342.58984 368.23242 C 342.9651 365.60542 342.40153 364.29102 340.90039 364.29102 L 328.51562 364.29102 C 330.01674 361.2887 332.26917 359.41267 335.27148 358.66211 C 358.5392 338.39666 376.55277 327.13845 389.3125 324.88672 C 396.81821 314.37871 405.82595 309.125 416.33398 309.125 L 420.83594 309.125 C 408.8268 309.87555 399.82099 315.88008 393.81641 327.13867 C 393.06583 329.3904 393.6275 330.51562 395.50391 330.51562 L 400.57031 330.51562 C 407.32547 320.75819 414.83158 315.50449 423.08789 314.75391 C 438.8499 314.00333 446.73047 312.8781 446.73047 311.37695 C 447.48105 309.12522 446.73215 307.62363 444.48047 306.87305 L 430.96875 307.99805 L 430.96875 306.87305 C 433.97103 306.12246 437.3487 304.24642 441.10156 301.24414 C 450.859 300.49358 463.61884 294.86349 479.38086 284.35547 C 497.3946 268.59345 513.15764 260.71289 526.66797 260.71289 z M 424.21484 262.96484 C 442.97915 262.96484 457.61504 267.84216 468.12305 277.59961 L 456.86328 283.23047 C 448.607 271.9719 437.72518 267.0926 424.21484 268.59375 C 397.94481 271.59601 380.6801 271.97048 372.42383 269.71875 C 397.19271 265.21532 414.45742 262.96484 424.21484 262.96484 z M 546.93359 309.125 C 572.45304 309.125 596.47109 327.88934 618.98828 365.41797 C 641.50545 402.94659 652.76367 448.73028 652.76367 502.77148 L 652.76367 563.56836 L 602.09961 563.56836 L 594.21875 502.77148 C 594.21875 481.75544 581.08446 471.06094 554.81445 470.68555 C 528.54442 470.31026 515.4082 481.38128 515.4082 503.89844 L 503.02344 563.56836 L 459.11523 563.56836 L 476.00391 417.20703 C 476.75447 408.20016 483.13344 398.81797 495.14258 389.06055 C 505.65061 389.06055 510.90625 380.80359 510.90625 364.29102 L 510.90625 321.50781 C 521.41428 313.25151 533.4233 309.125 546.93359 309.125 z M 421.96289 318.13086 C 411.45486 320.38258 406.20117 325.26186 406.20117 332.76758 C 406.20117 335.76989 408.45165 337.27148 412.95508 337.27148 C 425.7148 335.01974 432.0957 331.26572 432.0957 326.01172 C 429.84397 320.75774 426.46629 318.13086 421.96289 318.13086 z M 498.52148 321.50781 L 498.52148 345.15234 L 495.14258 345.15234 L 495.14258 322.63477 L 498.52148 321.50781 z M 490.64062 322.63477 L 490.64062 345.15234 L 489.51367 345.15234 L 489.51367 323.75977 L 490.64062 322.63477 z M 482.75977 326.01172 L 482.75977 346.27734 L 481.63281 346.27734 C 459.86623 355.2842 444.10511 360.35071 434.34766 361.47656 C 424.59023 362.60242 417.4585 360.53916 412.95508 355.28516 C 412.95508 353.03345 422.71363 348.15419 442.22852 340.64844 C 454.98822 330.89102 468.49887 326.01172 482.75977 326.01172 z M 448.70117 443.66406 C 451.51581 443.66406 453.86186 445.72927 455.73828 449.85742 L 438.84961 563.56836 L 419.71094 563.56836 L 438.84961 449.85742 C 442.60246 445.72927 445.88653 443.66406 448.70117 443.66406 z M 554.81445 490.38672 C 567.57416 490.38672 573.95312 494.89158 573.95312 503.89844 L 582.96094 582.70703 C 585.96321 643.50342 567.19883 768.47499 526.66797 957.61914 L 550.31055 972.25391 L 241.82617 972.25391 L 306 944.10742 L 218.18164 705.42578 C 210.67593 659.64084 224.93741 646.88101 260.96484 667.14648 L 406.20117 861.91992 L 430.96875 848.41016 C 437.7239 733.57256 449.73295 645.00454 466.99609 582.70703 L 521.03711 582.70703 L 534.54883 503.89844 C 534.54883 494.89158 541.30414 490.38672 554.81445 490.38672 z M 184.48633 609.2168 C 198.74134 609.13617 213.34991 616.06162 228.31445 629.99414 C 211.80183 632.24583 198.6676 639.75195 188.91016 652.51172 C 188.91016 634.49799 179.9024 625.86666 161.88867 626.61719 C 143.87493 627.36778 145.00214 623.05207 165.26758 613.66992 C 171.60053 610.73799 178.00678 609.25345 184.48633 609.2168 z " />
</svg>
