<?xml version="1.0" encoding="UTF-8" standalone="no"?>
<svg
   width="800"
   height="1000"
   version="1.1"
   id="svg1"
   sodipodi:docname="13836.svg"
   inkscape:version="1.4.3 (0d15f75, 2025-12-25)"
   xmlns:inkscape="http://www.inkscape.org/namespaces/inkscape"
   xmlns:sodipodi="http://sodipodi.sourceforge.net/DTD/sodipodi-0.dtd"
   xmlns="http://www.w3.org/2000/svg"
   xmlns:svg="http://www.w3.org/2000/svg">
  <defs
     id="defs1" />
  <sodipodi:namedview
     id="namedview1"
     pagecolor="#ffffff"
     bordercolor="#000000"
     borderopacity="0.25"
     inkscape:showpageshadow="2"
     inkscape:pageopacity="0.0"
     inkscape:pagecheckerboard="0"
     inkscape:deskcolor="#d1d1d1"
     inkscape:zoom="0.46201438"
     inkscape:cx="778.11431"
     inkscape:cy="739.15448"
     inkscape:window-width="1680"
     inkscape:window-height="998"
     inkscape:window-x="-8"
     inkscape:window-y="-8"
     inkscape:window-maximized="1"
     inkscape:current-layer="svg1"
     showguides="true">
    <sodipodi:guide
       position="196.96357,50"
       orientation="0,-1"
       id="guide3"
       inkscape:locked="false" />
  </sodipodi:namedview>
  <path
     id="path2275"
     style="fill:#000000;stroke:none;stroke-width:37.0144"
     d="M 512.50781 0.005859375 C 509.43887 -0.063726585 506.64964 0.5286692 504.13867 1.7832031 C 499.11642 4.294145 495.48848 8.3401759 493.25781 13.919922 C 492.14056 17.267844 491.58398 20.335758 491.58398 23.126953 C 488.79392 22.021009 484.46824 21.607774 478.60938 21.871094 C 472.75128 22.150209 469.82031 28.427528 469.82031 40.703125 C 477.63226 39.029162 481.82024 40.70235 482.37695 45.724609 C 482.37695 49.630399 479.58598 54.79188 474.00586 61.208984 C 468.42535 67.625707 465.35753 71.115146 464.80078 71.671875 C 459.22065 52.141828 447.50259 43.769352 429.64648 46.560547 C 415.13871 50.466328 408.72057 58.279943 410.39453 69.998047 C 410.95239 75.577793 415.13728 80.040755 422.94922 83.388672 C 419.60131 90.64276 407.88286 105.29099 387.79492 127.33203 C 368.36642 148.64916 354.67961 169.05432 346.73438 188.54492 C 344.72684 189.21521 342.69016 189.96471 340.625 190.79688 C 326.17568 196.61818 315.69179 198.31784 309.17188 195.89258 C 302.65195 193.46636 298.33331 191.9291 296.21875 191.2832 C 292.34151 190.31276 290.93464 191.76675 291.99023 195.64844 C 296.57184 206.32306 305.38433 211.90617 318.42383 212.39062 C 348.5968 213.5137 347.52013 206.49414 367.73438 206.49414 C 372.41343 206.70485 376.53539 207.0377 380.46875 207.5 C 379.56281 211.32083 378.65888 214.59085 377.75195 217.30859 C 376.63586 220.65648 373.42797 226.09803 368.12695 233.63086 C 362.82744 241.16406 360.73041 245.76746 361.84766 247.44141 C 361.84766 250.7897 364.36053 252.46289 369.38281 252.46289 C 369.38281 255.81079 367.98845 257.48438 365.19727 257.48438 C 364.08002 261.39013 364.91388 264.17953 367.70508 265.85352 C 364.91388 271.43361 365.19311 274.78118 368.54102 275.89844 L 370.21484 287.61719 C 369.84519 292.78992 371.28642 303.94442 369.38672 317.69531 C 351.71501 319.29882 338.39211 322.20455 329.28711 326.37891 L 310.01953 295.69531 C 280.10673 296.78304 261.88774 292.43222 255.36133 282.64258 C 246.65943 268.50199 250.7377 254.36126 267.59766 240.2207 C 279.01889 233.15041 287.58626 230.83772 293.29688 233.28516 C 299.00752 235.73256 303.22209 239.404 305.94141 244.29883 C 308.66076 249.19364 312.46651 257.89529 317.36133 270.4043 C 323.88776 283.45711 331.77378 286.17667 341.01953 278.5625 C 329.59827 263.87807 322.39165 251.77747 319.40039 242.25977 C 316.40912 232.74205 310.15444 225.9423 300.63672 221.86328 C 298.2573 220.84353 295.66762 220.25842 292.86328 220.10547 C 284.45035 219.64658 274.12573 223.08941 261.88867 230.43164 C 248.83582 238.58965 240.67725 250.55402 237.41406 266.32617 C 236.87017 272.85263 239.31712 280.46607 244.75586 289.16797 C 253.45774 302.76469 271.67874 310.10756 299.41602 311.19531 L 315.86133 337.13281 C 309.2701 346.26182 304.18465 361.1002 300.63672 381.76172 C 296.01383 408.68322 287.58665 433.15886 275.34961 455.18555 C 263.11255 477.2122 256.99219 507.53182 256.99219 546.14648 C 256.99219 555.9361 261.34303 560.83008 270.04492 560.83008 C 287.99258 560.83008 324.70313 545.05804 380.17773 513.51367 C 375.28292 549.40901 373.10847 571.98083 373.65234 581.22656 C 335.58152 584.48977 302.40424 588.7063 274.12305 593.87305 C 245.84187 599.03977 220.0094 605.69937 196.62305 613.85742 C 171.60511 623.64701 158.55255 645.40317 157.46484 679.12305 C 148.21906 727.52731 141.1487 772.80526 136.25391 814.95508 C 131.35908 857.10487 121.97606 884.70493 108.10742 897.75781 C 94.238744 910.81066 72.622793 922.23193 43.253906 932.02148 C 30.831029 935.33424 23.293985 941.32721 20.644531 950 L 0.25195312 950 L 0.25195312 1000 L 585.47656 1000 L 585.47656 950 L 563.73633 950 L 563.73633 670.96484 L 589.8418 670.96484 L 589.8418 564.91016 C 589.8418 562.6256 589.62164 560.50958 589.28516 558.48438 C 594.51714 559.93012 599.17825 560.83008 602.89453 560.83008 C 611.59642 560.83008 615.94531 555.9361 615.94531 546.14648 C 615.94531 507.53182 609.96508 477.2122 598 455.18555 C 586.03491 433.15886 577.60185 408.68322 572.70703 381.76172 C 568.3303 357.68958 561.98363 341.5059 553.69336 333.08789 L 609.42188 242.66797 L 635.52539 500.46094 L 650.21094 497.19727 L 646.94727 471.91016 L 665.71094 468.64453 L 671.42188 493.93555 L 685.28906 490.67188 L 679.58008 465.38281 L 697.52734 462.12109 L 706.5 488.22461 L 721.18555 484.96289 L 629.31641 256.32422 C 618.98289 220.97275 609.6906 213.02758 597.18164 235.32617 L 541.96094 324.26172 C 530.24683 316.55257 491.58411 315.30254 473.01953 315.1582 L 470.66211 277.57227 C 474.01002 275.89831 477.35717 272.27154 480.70508 266.69141 L 523.39258 259.99609 C 528.35791 246.62897 531.623 230.77739 533.18945 212.44336 C 536.20293 212.54381 539.64049 212.53879 543.62109 212.39062 C 556.66059 211.90617 565.47308 206.32306 570.05469 195.64844 C 571.11028 191.76675 569.70146 190.31276 565.82422 191.2832 C 563.70966 191.9291 559.39298 193.46636 552.87305 195.89258 C 548.45285 197.53679 542.20918 197.28502 534.14453 195.13867 C 534.23019 191.98925 534.27344 188.77853 534.27344 185.50391 C 534.27344 155.37183 535.66778 136.39791 538.45898 128.58594 C 546.27089 131.93384 552.68902 131.37807 557.71094 126.91406 C 566.63706 119.66033 566.9151 109.61508 558.54492 96.78125 C 547.94291 81.157363 533.99352 78.925687 516.69531 90.085938 C 516.69531 73.345938 517.81226 63.580252 520.04297 60.789062 C 523.94911 58.557241 528.13362 59.95273 532.59766 64.974609 C 540.96558 56.604802 541.80329 49.073183 535.10742 42.376953 C 533.43346 40.144378 531.47874 38.748137 529.24805 38.191406 C 531.47874 35.959585 533.15232 33.170189 534.26953 29.822266 C 536.50023 24.800376 536.50023 19.636943 534.26953 14.335938 C 532.03735 9.0349386 528.13285 4.9923645 522.55273 2.2011719 C 518.92587 0.80745937 515.57675 0.075449095 512.50781 0.005859375 z M 512.91992 6.8046875 C 514.87283 6.8047017 516.9653 7.2235813 519.19727 8.0605469 C 523.6613 10.292369 526.73033 13.081764 528.4043 16.429688 C 530.08202 19.777608 529.80101 23.404385 527.57031 27.310547 L 527.56836 27.310547 C 526.45226 31.774566 523.94132 34.843617 520.03516 36.517578 C 520.59339 29.821732 518.91982 24.241368 515.01367 19.777344 C 508.87568 20.335586 503.57534 23.126553 499.11133 28.148438 C 497.43735 24.800514 497.43735 20.89371 499.11133 16.429688 C 501.34352 12.523905 504.13255 9.7345092 507.48047 8.0605469 C 509.15439 7.2235814 510.967 6.8047018 512.91992 6.8046875 z M 512.50391 25.636719 L 514.17773 34.005859 C 513.06163 36.795915 510.55031 39.029162 506.64453 40.703125 C 504.97432 36.797336 504.69139 33.449396 505.80859 30.658203 L 512.50391 25.636719 z M 484.77344 28.455078 C 485.57762 28.494405 486.45097 28.672457 487.39258 28.986328 C 495.20452 32.334245 500.22829 39.865877 502.45898 51.583984 C 511.94487 44.886258 520.59236 42.933424 528.4043 45.724609 C 532.86945 47.956438 533.70915 51.305508 530.91797 55.769531 C 521.98993 49.631546 515.29411 50.189654 510.83008 57.443359 C 506.36571 65.813543 504.28941 91.479787 504.55273 134.44531 C 504.67666 153.52167 503.70099 170.4266 501.625 185.1582 C 498.07549 184.60908 494.62966 184.34997 491.28711 184.38281 L 491.28711 184.38477 C 473.64672 184.70056 449.74469 188.96696 432.08008 199.53125 L 429.96484 199.53125 C 419.75185 193.42339 407.45374 189.41972 395.48633 187.06836 C 402.38285 163.07784 418.51025 137.44679 443.86914 110.17383 C 473.44297 78.368166 489.34743 58.000314 491.57812 49.072266 C 492.69423 41.260311 488.22934 36.798872 478.18555 35.681641 C 479.02236 31.077313 480.95808 28.671842 483.99219 28.462891 C 484.24503 28.445476 484.50538 28.441969 484.77344 28.455078 z M 437.13672 54.591797 C 448.18314 54.958063 455.17017 63.440681 458.09961 80.041016 C 453.07734 85.062899 445.1272 93.29344 434.24609 104.73242 C 423.36532 116.17142 412.34539 130.4008 401.18555 147.41992 C 392.65658 160.42652 386.73238 173.02503 383.41797 185.2168 C 378.97718 184.72287 374.71045 184.45552 370.75781 184.38477 L 370.75781 184.38281 C 367.46276 184.35044 364.06648 184.6016 360.57031 185.13477 C 367.14302 170.55415 379.84491 152.54173 398.67383 131.09766 C 418.76173 108.22006 431.31601 90.643145 436.33789 78.367188 C 427.40984 78.925044 421.55095 75.57792 418.75977 68.324219 C 418.20189 61.070131 422.66605 56.605609 432.15234 54.931641 C 433.89604 54.652669 435.55866 54.539472 437.13672 54.591797 z M 535.73047 93.224609 C 541.729 93.085386 547.1008 95.943862 551.84375 101.80273 C 556.86563 109.61463 556.86563 115.75478 551.84375 120.21875 C 545.70577 124.12459 539.00956 122.72904 531.75586 116.0332 C 527.29259 128.86705 524.77939 150.34841 524.22266 180.48047 C 524.15065 184.367 524.0364 188.12972 523.88086 191.76562 C 523.07321 191.45707 522.25204 191.1329 521.41797 190.79688 C 518.28145 189.533 515.21257 188.45688 512.20898 187.56641 C 515.16671 168.58204 516.37733 151.7117 515.85156 136.95703 C 515.29482 121.3331 515.29482 109.89472 515.85156 102.64062 L 515.85156 102.63867 C 523.10545 96.501629 529.73193 93.363822 535.73047 93.224609 z M 494.31055 206.49414 C 495.41733 206.49414 496.45951 206.51509 497.44727 206.55469 C 495.09691 215.61423 492.16537 223.52373 488.65039 230.2832 C 477.76963 251.2081 470.37686 262.36613 466.4707 263.76172 C 462.56416 265.15654 460.05477 253.85697 458.9375 229.86328 L 458.93359 229.86328 C 460.60752 226.51535 461.44531 222.33043 461.44531 217.30859 C 461.44531 214.96994 460.78411 212.99999 459.46094 211.39648 C 472.19222 208.69099 481.00411 207.09338 494.31055 206.49414 z M 507.81445 207.89648 C 512.59585 208.98536 516.46054 210.47063 522.50977 211.45898 C 520.98157 226.64147 518.48359 238.9143 515.01562 248.27734 L 487.39453 253.30078 C 496.68762 237.94676 503.49512 222.81169 507.81445 207.89648 z M 387.79297 208.93945 C 393.37273 209.49731 401.46243 211.16974 412.06445 213.96094 C 422.66608 216.75098 427.96875 221.77323 427.96875 229.02734 C 432.43429 229.02734 434.66406 230.41973 434.66406 233.21094 C 428.52608 237.67493 425.17585 242.13988 424.61914 246.60352 C 424.06128 251.62767 426.57223 254.13672 432.15234 254.13672 C 435.50027 254.13672 440.80101 251.62577 448.05469 246.60352 C 450.84477 265.01747 454.19345 277.71255 458.09961 284.6875 L 460.91016 328.59375 L 461.00586 328.57812 L 460.99023 328.68945 C 490.23269 328.68945 520.68402 329.87732 534.0293 337.05469 L 473.17969 435.19727 C 467.74102 432.47792 456.86493 428.39963 440.54883 422.96094 C 437.82948 428.94351 438.64513 435.47078 442.99609 442.54102 C 438.10128 444.17264 436.19741 455.86443 437.28516 477.61914 C 437.82903 481.42622 439.73288 484.14573 442.99609 485.77734 L 435.6543 496.38477 L 429.12695 485.77734 C 432.39017 484.68961 434.5666 481.97007 435.6543 477.61914 C 436.74207 455.86443 434.56564 444.17264 429.12695 442.54102 C 434.02176 435.47078 434.83936 428.94351 431.57617 422.96094 C 412.54075 429.48738 401.39015 433.84015 398.12695 436.01562 L 337.76562 339.88281 C 344.79649 336.71459 354.21864 334.17237 366.15234 332.28711 C 365.32763 334.92616 364.34698 337.61027 363.18555 340.32031 C 352.02567 340.32031 346.44531 343.66899 346.44531 350.36523 C 346.44531 356.50247 349.51434 359.01369 355.65234 357.89648 C 367.37005 360.12832 377.13529 352.03896 384.94727 333.625 L 385.29297 330.01172 C 385.49141 329.99461 385.69121 329.97779 385.89062 329.96094 L 427.46094 328.68945 L 427.40625 328.5332 L 425.23828 298.31836 C 424.7624 291.68059 421.54564 282.92523 413.74023 282.59375 C 408.71797 282.59375 398.39538 283.98614 382.77148 286.77734 C 378.86493 284.54551 376.91211 280.91837 376.91211 275.89648 C 384.1662 273.10643 389.18928 269.7597 391.98047 265.85352 C 386.40037 261.38953 381.65616 258.32047 377.75 256.64648 L 378.58594 252.46094 C 384.16494 251.90193 386.95508 250.50606 386.95508 248.27539 C 385.83899 244.92934 384.16427 242.97275 381.93359 242.41602 C 379.68784 242.97462 378.86712 244.37084 379.42383 246.60156 C 381.65602 247.71876 380.54022 248.55658 376.07617 249.11328 C 372.17154 248.55658 369.93757 247.99816 369.38086 247.44141 C 369.38086 245.76559 369.65811 244.37312 370.21484 243.25586 C 379.70074 230.97993 385.56226 219.54146 387.79297 208.93945 z M 450.00391 213.41211 C 454.21925 214.17665 456.21013 216.45127 456 220.23633 C 455.72164 224.97914 454.60467 228.74398 452.65234 231.53516 C 450.69965 234.32521 447.76907 238.23003 443.86328 243.25195 C 438.84102 247.15962 435.49431 249.268 433.82031 249.53125 C 432.14526 249.81343 430.8916 249.53045 430.05273 248.69531 C 429.21764 247.85835 429.63463 246.32251 431.30859 244.0918 L 438.00586 235.72266 L 444.70117 231.53711 C 445.81838 230.42105 445.5392 228.60672 443.86523 226.09766 C 442.19126 223.58675 442.05364 221.49229 443.44922 219.81836 C 444.8441 218.14437 446.65798 218.14437 448.88867 219.81836 C 451.11937 221.49229 451.67969 224.00365 450.5625 227.35156 C 449.44677 229.58341 445.81963 234.04828 439.68164 240.74414 L 440.52148 240.74414 C 446.65947 235.16441 450.56432 231.53719 452.23828 229.86328 C 452.81382 227.63105 453.07812 224.84012 453.07812 221.49219 C 453.07812 218.14615 450.84682 216.19153 446.38281 215.63477 C 443.59347 216.19153 441.64066 217.16885 440.52344 218.56445 C 439.40623 219.9589 438.84961 221.49397 438.84961 223.16797 C 438.84961 225.40017 440.24201 227.90995 443.0332 230.70117 L 438.01172 234.04883 L 438.00391 234.04688 C 435.77321 228.46673 435.21089 223.58337 436.32812 219.39844 C 436.64807 218.19845 437.15301 217.17222 437.83984 216.31641 C 441.60353 215.29052 446.07541 214.26757 450.00391 213.41211 z M 395.48047 214.37891 C 393.1439 214.37891 390.85886 214.79777 388.62695 215.63477 C 386.95298 217.86547 386.67574 219.53901 387.79297 220.65625 C 395.04667 217.30831 405.09001 220.09925 417.92383 229.02734 L 425.45703 229.02734 L 425.45703 225.67773 L 417.92383 225.67773 L 417.92188 225.67773 C 409.97037 218.14494 402.49021 214.3789 395.48047 214.37891 z M 396.16211 222.32812 C 392.81531 222.32812 390.71986 222.88667 389.88477 224.00391 C 389.04967 225.11964 388.90811 226.51355 389.46484 228.1875 C 388.90661 231.53546 390.8602 233.21094 395.32422 233.21094 C 399.23002 233.77144 405.37005 232.93186 413.74023 230.70117 L 413.73828 230.69922 C 405.36846 225.67697 399.51003 222.88482 396.16211 222.32812 z M 434.66406 243.25586 C 432.98635 243.25586 432.15234 244.09165 432.15234 245.76562 C 432.15234 246.8791 432.9901 247.71672 434.66406 248.27344 C 435.78127 248.27344 436.33789 247.43956 436.33789 245.76562 C 436.33789 244.09166 435.78127 243.25586 434.66406 243.25586 z M 371.05273 259.99609 L 383.60742 263.34375 L 374.40039 263.34375 C 371.60921 262.78698 370.496 261.67004 371.05273 259.99609 z M 373.77344 267.32031 C 374.19186 267.32025 374.68063 267.39004 375.23828 267.5293 L 379.42188 268.36328 L 386.11719 267.5293 C 386.11719 268.08603 381.93233 269.20301 373.5625 270.87695 C 371.88855 270.87695 371.33388 270.32033 371.89062 269.20312 C 371.89062 267.94761 372.51814 267.32048 373.77344 267.32031 z M 388.62891 295.15039 C 398.11483 295.70711 405.64842 295.70711 411.22852 295.15039 L 412.43945 315.59961 L 386.57227 316.64844 L 388.62891 295.15039 z M 646.94727 336.48633 L 691.81641 448.25 L 676.31641 450.69922 L 646.94727 336.48633 z M 633.89453 338.93164 L 661.63086 453.14453 L 646.13086 456.4082 L 633.89453 338.93164 z M 545.76562 345.94727 C 547.26004 347.87288 548.33766 350.33683 549.05078 353.61719 C 559.92816 403.10921 571.07682 438.32472 582.49805 459.26367 C 593.91931 480.20261 600.44655 508.34969 602.07812 543.70117 C 600.44647 545.87662 598.27009 546.69036 595.55078 546.14648 C 592.31494 546.34873 585.30391 543.88321 576.42773 540.09961 C 574.59611 539.08653 572.57004 538.22478 570.35938 537.50391 C 555.50778 530.64884 535.1756 519.92153 508.25977 504.54102 L 514.78711 484.14453 C 519.68194 484.14453 541.16358 491.7599 579.23438 506.98828 L 580.86719 496.38477 C 559.65628 486.59511 535.18258 477.34644 507.44531 468.64453 C 504.1821 468.10067 500.37439 463.2067 496.02344 453.96094 C 494.39183 449.06615 491.12722 445.26041 486.23242 442.54102 L 545.76562 345.94727 z M 324.43555 350.64844 L 384.25977 444.98633 C 380.45266 447.1618 377.7312 450.15387 376.09961 453.96094 C 372.29252 463.2067 368.75732 468.10067 365.49414 468.64453 C 337.75683 477.34644 313.28314 486.59511 292.07227 496.38477 L 293.70312 506.98828 C 331.77396 491.7599 353.25946 484.14453 358.1543 484.14453 L 364.67969 504.54102 C 315.7315 532.82222 286.63442 546.69036 277.38867 546.14648 C 274.66931 546.69036 272.49295 545.87662 270.86133 543.70117 C 272.49295 508.34969 279.02018 480.20261 290.44141 459.26367 C 301.86267 438.32472 312.73877 403.10921 323.07227 353.61719 C 323.34295 352.57963 323.92167 351.62241 324.43555 350.64844 z M 418.52344 443.35547 C 423.41826 451.5135 425.04762 461.84652 423.41602 474.35547 C 417.43346 479.79417 407.37108 484.145 393.23047 487.4082 C 388.33568 485.23271 385.34749 478.4349 384.25977 467.01367 C 394.04937 451.78535 405.47057 443.89934 418.52344 443.35547 z M 454.41797 443.35547 C 467.47085 443.89934 478.89205 451.78535 488.68164 467.01367 L 479.70508 487.4082 C 465.02064 484.145 454.6896 479.79417 448.70703 474.35547 C 447.6193 461.84652 449.52316 451.5135 454.41797 443.35547 z M 373.65234 475.98633 L 380.99609 496.38477 L 376.91602 498.83008 L 370.38867 477.61914 L 373.65234 475.98633 z M 498.4707 475.98633 L 502.54883 477.61914 L 495.20703 498.83008 L 491.12695 496.38477 L 498.4707 475.98633 z M 456.04883 493.11914 C 457.68035 494.20682 464.75204 496.92681 477.25977 501.27734 C 476.71587 539.89204 478.48348 569.53219 482.5625 590.19922 C 486.64174 610.86621 487.72978 630.17538 485.82617 648.12305 C 483.92263 666.0708 470.19068 675.58618 444.62891 676.67383 L 244.75586 676.67383 C 227.89588 678.30544 218.10604 687.82474 215.38672 705.22852 C 211.03577 736.22903 203.69486 764.23597 193.36133 789.25391 C 183.02785 814.27192 172.96543 843.0984 163.17578 875.73047 L 163.99219 903.46875 C 177.04502 926.31125 174.05105 939.36372 155.01562 942.62695 L 50.595703 943.44336 L 49.779297 942.62695 C 80.779828 933.38115 104.30156 922.63937 120.3457 910.40234 C 136.3898 898.16524 146.8591 869.07014 151.75391 823.11328 C 156.64872 777.1564 164.26216 729.42954 174.5957 679.9375 C 175.13956 651.65632 185.74706 635.33926 206.41406 630.98828 C 224.36173 623.91802 247.34039 617.66527 275.34961 612.22656 C 303.35883 606.78791 341.83696 602.43706 390.78516 599.17383 C 391.32902 570.3488 393.50346 543.42616 397.31055 518.4082 L 397.31055 501.27734 C 407.10018 498.01415 413.08429 495.56716 415.25977 493.93555 L 422.60156 506.17188 L 447.07617 506.17188 L 456.04883 493.11914 z M 496.02344 510.25 C 511.88601 520.28549 525.98741 528.6426 538.71875 535.69141 C 520.68059 538.51422 511.52539 548.18294 511.52539 564.91016 C 511.52539 639.42019 508.26077 676.67383 501.73438 676.67383 L 495.19727 676.67383 C 499.80441 671.0913 502.60136 664.07808 503.36719 655.46289 C 505.54265 630.98879 504.72508 609.10029 500.91797 589.79297 C 497.11077 570.48563 495.47946 543.96984 496.02344 510.25 z M 550.27344 551.44922 C 564.68598 551.72116 572.16319 556.2083 572.70703 564.91016 L 572.70703 656.28125 L 557.20898 656.28125 L 557.20898 599.17383 L 541.70898 599.17383 L 541.70898 789.25391 L 409.54883 789.25391 L 409.54883 950 L 267.59766 950 L 267.59766 692.17578 L 450.33789 692.17578 L 513.15625 692.17578 C 523.48973 693.26353 528.6543 688.09507 528.6543 676.67383 L 528.6543 564.91016 C 528.6543 555.66441 535.86092 551.17728 550.27344 551.44922 z M 244.75586 692.17578 L 245.57227 692.17578 L 245.57227 950 L 188.30859 950 C 189.636 948.41849 190.50387 946.64115 190.91211 944.66797 C 192.5437 936.78192 191.32119 928.08021 187.24219 918.5625 C 183.16325 909.0448 180.98881 898.70985 180.7168 887.56055 C 180.44487 876.41126 187.37897 850.98562 201.51953 811.2832 C 217.83561 779.73882 226.94221 753.225 228.8457 731.74219 C 230.74925 710.25937 236.0539 697.07059 244.75586 692.17578 z M 425.04883 803.94141 L 541.70898 803.94141 L 541.70898 950 L 425.04883 950 L 425.04883 803.94141 z M 14.251953 964 L 571.47656 964 L 571.47656 986 L 14.251953 986 L 14.251953 964 z " />
</svg>
