<?xml version="1.0" encoding="UTF-8" standalone="no"?>
<svg
   width="400"
   height="1000"
   version="1.1"
   id="svg1"
   sodipodi:docname="13837.svg"
   inkscape:version="1.4.2 (f4327f4, 2025-05-13)"
   xmlns:inkscape="http://www.inkscape.org/namespaces/inkscape"
   xmlns:sodipodi="http://sodipodi.sourceforge.net/DTD/sodipodi-0.dtd"
   xmlns="http://www.w3.org/2000/svg"
   xmlns:svg="http://www.w3.org/2000/svg">
  <defs
     id="defs1" />
  <sodipodi:namedview
     id="namedview1"
     pagecolor="#ffffff"
     bordercolor="#666666"
     borderopacity="1.0"
     inkscape:showpageshadow="2"
     inkscape:pageopacity="0.0"
     inkscape:pagecheckerboard="0"
     inkscape:deskcolor="#d1d1d1"
     showguides="true"
     inkscape:zoom="0.53386562"
     inkscape:cx="512.3012"
     inkscape:cy="454.23416"
     inkscape:window-width="1680"
     inkscape:window-height="998"
     inkscape:window-x="-8"
     inkscape:window-y="-8"
     inkscape:window-maximized="1"
     inkscape:current-layer="svg1">
    <sodipodi:guide
       position="62.776575,614.24594"
       orientation="1,0"
       id="guide1"
       inkscape:locked="false" />
    <sodipodi:guide
       position="30.854959,816.8802"
       orientation="0.70710678,0.70710678"
       id="guide2"
       inkscape:locked="false" />
    <sodipodi:guide
       position="43.597233,615.91371"
       orientation="1,0"
       id="guide3"
       inkscape:locked="false" />
    <sodipodi:guide
       position="53.186904,35.099311"
       orientation="1,0"
       id="guide4"
       inkscape:locked="false" />
    <sodipodi:guide
       position="227.88597,817.71408"
       orientation="0,-1"
       id="guide5"
       inkscape:locked="false" />
    <sodipodi:guide
       position="226.2182,783.52476"
       orientation="0,-1"
       id="guide6"
       inkscape:locked="false" />
    <sodipodi:guide
       position="209.54046,801.87022"
       orientation="1,0"
       id="guide7"
       inkscape:locked="false" />
    <sodipodi:guide
       position="243.72983,800.20245"
       orientation="1,0"
       id="guide8"
       inkscape:locked="false" />
  </sodipodi:namedview>
  <path
     style="fill:#000000;stroke:none;stroke-width:55.6071"
     d="m 146.16519,203.13308 c -2.77962,-1.11184 -8.06091,-3.05757 -15.84386,-5.83719 -8.89477,-0.55592 -15.1489,-3.75249 -18.7624,-9.58972 -3.6135,-5.83719 -5.69821,-7.64394 -6.25414,-5.42025 1.66777,7.78296 4.16943,13.20323 7.50496,16.2608 3.33554,3.05757 7.227,5.14228 11.67439,6.25413 5.55923,0 12.78624,-0.55592 21.68105,-1.66777 z m -9.17273,-6.67107 c 12.23031,1.66777 21.40303,4.44738 27.51818,8.33884 6.11519,3.89146 11.81342,5.97617 17.09469,6.25414 5.28127,0.27803 9.03375,-0.41687 11.25744,-2.08471 -5.00331,-0.55593 -9.31171,-1.52879 -12.92521,-2.9186 -3.61353,-1.38981 -7.78297,-4.16942 -12.50832,-8.33884 -4.72535,-4.16946 -9.86763,-6.53215 -15.42686,-7.08808 -5.55923,-0.55592 -10.56254,1.38983 -15.00992,5.83725 z m 40.86039,4.16942 c 5.00331,2.77961 13.06419,5.55923 24.18265,8.33885 l -0.83388,-12.50827 c -10.00661,0 -17.78954,1.38981 -23.34877,4.16942 z m 103.40184,-0.83388 c -3.33554,-1.66777 -8.33887,-2.77962 -15.00998,-3.33554 -8.89477,-0.55596 -14.454,2.50162 -16.67769,9.17273 -1.11184,4.44738 0.13899,7.08801 3.75248,7.9219 3.6135,0.83389 7.50496,-1.25082 11.67439,-6.25413 4.16942,-5.00331 9.58969,-7.50496 16.2608,-7.50496 z m -10.84055,6.67107 c 4.44738,0.55593 11.39643,3.05758 20.84716,7.50496 10.56254,3.89146 19.59631,4.86433 27.1013,2.9186 7.50496,-1.94573 14.87094,-5.97618 22.09794,-12.09133 -6.11515,-1.11185 -13.20317,0.13898 -21.26405,3.75248 -8.06092,3.6135 -17.09469,3.05758 -27.1013,-1.66777 -10.00665,-4.72534 -17.23367,-4.86432 -21.68105,-0.41694 z m 121.74735,-1.66777 c -3.33554,0 -6.39312,1.66777 -9.17273,5.00331 -2.77965,3.33554 -7.644,5.69821 -14.59304,7.08802 -6.94903,1.38981 -15.1489,-1.52879 -24.59959,-8.75579 l -7.50501,4.16942 c 2.77961,0.55593 6.25413,2.36268 10.42355,5.42025 4.16946,3.05758 10.56259,4.86433 19.1794,5.42025 8.61681,0.55596 17.37261,-5.55919 26.26742,-18.34546 z m -118.41176,55.03643 c 10.56253,-3.33553 19.17934,-14.73195 25.85042,-34.18926 -7.227,-0.55592 -12.23031,-1.66778 -15.00992,-3.33559 -2.77965,-1.66777 -9.17279,-3.6135 -19.1794,-5.83719 3.89146,2.22369 5.83719,5.83718 5.83719,10.84049 0,5.55927 -1.94573,11.11852 -5.83719,16.67775 0,6.67107 2.77963,11.95234 8.3389,15.8438 z m -46.69764,-20.01322 c -7.78292,1.66777 -13.62013,2.22369 -17.51163,1.66776 -3.89146,0 -5.55923,-1.38981 -5.00331,-4.16942 0,-2.22369 0.27796,-3.75248 0.83389,-4.58636 0.55596,-0.83389 2.50171,-1.11185 5.83724,-0.83389 3.33554,0.27804 8.61681,2.91868 15.84381,7.92191 z m 4.16942,-5.8372 6.67108,0.83389 v 3.33554 h -6.67108 c -11.67438,-8.33885 -20.84713,-11.11848 -27.51824,-8.3389 -1.11185,-1.11185 -1.11185,-2.7796 0,-5.00325 8.33888,-2.77965 17.51163,0.27792 27.51824,9.17272 z m 14.17609,17.51158 c 1.11185,0 1.94573,0.83388 2.50166,2.50165 -0.55593,1.66777 -1.66777,2.22369 -3.33554,1.66777 -0.55593,0 -0.83389,-0.55592 -0.83389,-1.66777 0,-1.66777 0.55592,-2.50165 1.66777,-2.50165 z m 3.33548,-8.33885 5.00337,-3.33553 c -2.22369,-2.22369 -3.33554,-4.16943 -3.33554,-5.8372 0,-2.22373 0.55592,-4.03047 1.66777,-5.42024 1.11185,-1.38981 2.77961,-2.08472 5.0033,-2.08472 4.44739,0.55589 6.67108,2.22366 6.67108,5.00331 -0.55592,3.33554 -1.3898,5.97617 -2.50165,7.9219 -1.11185,1.94573 -4.16942,5.42025 -9.17273,10.42356 l -1.66777,-0.83389 c 5.55923,-5.55923 8.89476,-9.58967 10.00661,-12.09132 1.11185,-2.50165 0.69491,-4.58638 -1.25082,-6.25419 -1.94573,-1.66777 -3.6135,-1.66777 -5.00331,0 -1.38981,1.66781 -1.25079,3.61356 0.41705,5.83725 1.66777,2.22369 2.2237,3.89146 1.66777,5.0033 l -6.67119,4.16943 -6.67107,5.83719 c -1.66781,2.22369 -2.08477,3.75248 -1.25088,4.58636 0.83392,0.83389 1.94576,1.25083 3.33553,1.25083 1.38985,0 4.58642,-1.94573 9.58973,-5.83719 3.89146,-4.44739 6.67108,-7.92191 8.33885,-10.42356 1.66777,-2.50165 2.77961,-5.69821 3.33553,-9.58967 0,-4.44738 -3.05758,-6.67107 -9.17273,-6.67107 -5.00331,-0.55593 -8.06088,1.25082 -9.17272,5.42024 -1.11185,4.16943 -0.83391,8.47783 0.83382,12.92521 z m -60.87362,22.51494 c -0.55592,1.66777 0.55593,2.50165 3.33554,2.50165 l 8.33885,0.83389 z m 13.34216,6.67107 -6.67108,0.83389 -3.33554,-0.83389 c -2.22369,0 -3.33554,0.83389 -3.33554,2.50166 0,0.55592 0.55592,0.55592 1.66777,0 8.33885,-1.11185 12.23031,-1.94573 11.67439,-2.50166 z m 127.58454,-75.04971 c 3.33553,-12.23034 5.0033,-27.51826 5.0033,-45.86375 0,-22.23696 1.66777,-37.80282 5.00331,-46.69759 5.00335,4.44739 10.00667,5.55923 15.00998,3.33554 3.33553,-3.89146 2.77961,-8.616805 -1.66777,-14.176035 -6.67111,-7.782958 -13.89813,-8.616842 -21.68105,-2.501653 -1.11185,6.115152 -2.08471,17.650568 -2.9186,34.606258 -0.83389,16.95565 -1.94573,30.99273 -3.33554,42.11122 -1.38981,11.11846 -3.75248,21.68102 -7.08801,31.68767 3.33553,-1.66777 7.22699,-2.50166 11.67438,-2.50166 z M 207.87275,174.78096 c 2.77961,-13.34219 9.17273,-26.68436 19.17934,-40.02651 11.11849,-16.12181 22.51493,-29.74194 34.18932,-40.860395 8.33888,-8.338881 14.73199,-15.009975 19.17934,-20.013282 -1.11185,-17.789572 -8.06088,-26.128435 -20.84711,-25.016589 -8.33885,1.667769 -12.50827,5.83721 -12.50827,12.508323 1.66777,6.671075 6.67107,10.006613 15.00992,10.006613 -5.00331,11.118459 -16.95567,26.823303 -35.85709,47.11453 -18.90141,20.29122 -32.7995,39.88754 -41.69427,58.78896 3.33553,-0.55592 11.11847,-1.3898 23.34882,-2.50165 z M 62.776575,464.97319 c 11.118497,2.77965 24.182705,3.8915 39.192625,3.33554 l 88.39192,-22.51488 c -18.90142,-1.11185 -45.86372,-5.55925 -80.8869,-13.34221 -24.460651,1.11185 -40.026532,1.11185 -46.697645,0 z m 144.262285,-20.01323 12.50827,-2.50171 c 12.78623,-33.35541 26.1284,-65.87694 40.02651,-97.56459 5.00331,-15.00995 14.45401,-24.1827 28.35212,-27.51824 -26.12845,-10.00661 -46.9756,-0.83387 -62.54144,27.51824 -9.45069,28.90803 -15.56585,62.26347 -18.34546,100.0663 z m -3.33559,41.69428 c -2.22369,58.92791 5.1423,141.06565 22.09799,246.41324 16.95569,105.34755 22.93188,169.41777 17.92857,192.21064 -17.23365,22.23692 -39.74856,40.58243 -67.54475,55.03654 l 95.89682,-0.8341 c 10.00665,-3.89143 12.23035,-17.7895 6.67108,-41.69423 l 0.83388,-327.71714 c 17.23365,-20.01326 17.23365,-51.42294 0,-94.22905 12.78627,-38.35869 19.1794,-90.6155 19.1794,-156.77044 -2.77961,14.45403 -21.95899,54.75852 -57.53814,120.91346 -13.34215,3.89147 -25.85043,6.11516 -37.52485,6.67108 z M 269.58025,294.0266 c -5.00331,-9.45069 -8.89477,-22.5149 -11.67438,-39.19262 -6.67107,5.00331 -11.39642,7.227 -14.17604,6.67107 -5.00334,0 -7.50501,-2.22369 -7.50501,-6.67107 0.55592,-3.89147 3.61351,-8.06089 9.17278,-12.50827 0.55593,-2.22369 -1.11186,-3.33554 -5.00336,-3.33554 -0.55592,-7.78296 -5.55923,-12.78627 -15.00992,-15.00992 -9.45069,-2.22373 -16.67771,-3.33559 -21.68105,-3.33559 -2.22369,8.33888 -7.78292,18.34551 -16.67769,30.01989 -0.55592,1.66777 -0.83388,3.05758 -0.83388,4.16943 0,0.55592 1.94573,0.83388 5.83719,0.83388 3.89146,0 5.28127,-0.55592 4.16942,-1.66777 -1.11185,-1.66777 -0.55592,-2.77961 1.66777,-3.33554 2.22369,0.55593 3.6135,2.2237 4.16942,5.00331 0,1.66777 -2.50165,3.05757 -7.50496,4.16942 l -0.83388,3.3356 c 3.33553,1.66777 7.50497,4.44738 12.50832,8.33884 -2.22373,3.33554 -6.67114,6.11515 -13.34221,8.33884 -0.55592,4.44739 1.11185,8.06089 5.00331,10.8405 14.45403,-2.22369 23.90474,-3.33554 28.35212,-3.33554 4.44739,0 6.67108,1.80675 6.67108,5.42025 0,3.6135 1.38981,7.64396 4.16942,12.09138 4.44742,3.33554 10.56259,3.6135 18.34552,0.83389 7.78292,-2.77965 12.50826,-6.67113 14.17603,-11.67444 z m 56.70425,-256.002913 5.00331,-1.667769 -1.66777,-7.50496 -5.83719,4.169422 z m 2.50166,15.009975 c 4.44738,-5.559267 9.72867,-5.837228 15.84386,-0.833884 3.3355,-5.003344 3.05754,-8.060939 -0.83389,-9.172785 -5.55927,-2.223692 -13.06424,-0.555923 -22.51493,5.003307 -2.22369,-10.562537 -5.83721,-16.955651 -10.84056,-19.179342 -3.89142,-2.223692 -6.39307,-0.555923 -7.50496,5.003306 7.78296,1.111846 11.11852,5.55923 10.00667,13.342151 -2.77965,7.782959 -17.7896,25.57253 -45.02987,53.368715 -26.68434,27.24026 -42.80612,51.97887 -48.36535,74.21583 13.37977,0.51428 29.39974,4.51639 30.01989,20.84711 5.55923,-6.67107 11.39643,-10.00661 17.51158,-10.00661 6.67107,0.55592 19.17938,5.55924 37.52491,15.00997 6.67107,-22.79288 11.11846,-50.03316 13.34215,-81.72084 3.33554,-35.579107 6.94904,-57.538083 10.8405,-65.876928 z m 4.16942,-30.85378 c 2.77961,4.447384 4.16942,8.616806 4.16942,12.508267 5.00335,-1.667769 8.3389,-4.447384 10.00667,-8.338845 1.66773,-3.335537 1.94568,-6.671094 0.83383,-10.006669 -1.11181,-3.335537 -4.16938,-6.115152 -9.17273,-8.338844 -5.00331,-2.2236918 -9.17273,-2.5016533 -12.50827,-0.8338844 -3.33553,1.6677689 -5.55924,4.1694224 -6.67113,7.5049604 -1.66773,4.447421 -1.38975,8.894823 0.83394,13.342206 3.33554,-2.779615 7.50496,-4.725345 12.50827,-5.837191 z m -28.35207,221.813598 15.8438,-5.00331 2.50166,-15.00992 c -1.66777,1.11185 -5.28127,2.22367 -10.8405,3.33548 -2.77965,8.33889 -5.28131,13.89814 -7.50496,16.67775 z m -28.35213,28.35212 c 1.11181,9.45069 5.28124,19.17935 12.50827,29.18596 h 0.83388 c 16.12181,5.00335 24.46067,28.63011 25.01659,70.88029 -1.11185,76.16159 -5.55925,123.97106 -13.3422,143.4284 15.00995,43.36207 16.95568,73.93787 5.83719,91.7274 -6.67108,7.78292 -9.72866,17.51159 -9.17273,29.18601 v 299.36496 c 12.78627,33.91134 11.67442,55.03645 -3.33554,63.37533 H 125.31802 c 0.55592,-22.79288 11.39644,-34.18932 32.52155,-34.18932 35.57914,-17.23361 58.09406,-38.91463 67.54475,-65.04304 2.22369,-21.12511 -1.25083,-61.56856 -10.42356,-121.33035 -9.17276,-59.76183 -16.26079,-109.10009 -21.2641,-148.01477 -5.00331,-38.91468 -7.50496,-71.43623 -7.50496,-97.56465 v -45.8637 c -20.56919,3.89147 -48.64335,6.67108 -84.2225,8.33885 -15.00992,8.33888 -28.074128,14.45405 -39.192625,18.34551 v 424.44785 c 11.118496,2.77961 16.677744,11.11848 16.677744,25.01659 0.555923,3.33569 -0.555923,7.22713 -3.335538,11.67433 -2.779615,4.44742 -2.084711,9.72872 2.084712,15.84391 4.169422,6.11509 1.806749,6.94902 -7.088018,2.50177 -8.894805,-4.44753 -10.562574,-14.4542 -5.003307,-30.02001 -0.55596,-8.33892 -5.142343,-12.50838 -12.925264,-12.50838 -8.338845,0 -13.20317,3.8915 -13.759093,11.67449 7.226999,16.12173 5.420249,26.68429 -5.420249,31.68767 -10.840535,5.00333 -13.064245,4.16943 -6.671131,-2.50171 6.393151,-6.67107 7.643996,-12.23032 3.752535,-16.67774 -3.891497,-4.44739 -5.559285,-8.33883 -5.003362,-11.67433 0.555923,-13.89811 6.393133,-21.95902 17.511629,-24.18271 V 514.17248 c -5.559229,1.11185 -10.562554,-4.58638 -15.009975,-17.09468 -4.447384,-12.50827 -1.667751,-19.31832 8.3389,-20.43017 -4.447421,0 -7.643997,-1.80675 -9.589727,-5.42025 -1.945731,-3.61354 3.474537,-5.69827 16.260802,-6.25419 v -32.52155 c -8.338844,0 -13.620131,-6.81006 -15.84386,-20.43017 -2.223692,-13.62015 1.667787,-19.59634 11.674438,-17.92857 -5.003307,-1.11185 -8.060902,-3.33554 -9.172785,-6.67108 -1.111845,-3.33553 3.335557,-4.44738 13.342207,-3.33553 V 198.36662 c 0,-9.01035 -3.708899,-15.3875 -10.921082,-19.55146 -16.677726,14.45403 -27.949627,35.71436 -30.173319,55.1717 -2.22369195,19.45735 -7.2269986,29.74194 -15.00992,30.85378 -2.779615,-32.2436 -0.138981,-55.17548 7.9219022,-68.79563 8.0608832,-13.62011 17.6505728,-26.68432 28.7690688,-39.19262 11.118459,-12.50827 25.294513,-35.16215 42.528162,-67.961641 5.55923,15.565841 4.725346,29.880871 -2.501653,42.945101 -7.226999,13.06419 -15.009939,22.65387 -23.34882,28.76902 13.370913,5.3297 21.915003,15.60277 21.915003,35.25664 v 189.89255 c 12.230343,7.78292 26.406414,15.2879 42.528215,22.51493 l 87.55798,-1.66777 c 5.00331,-40.02653 16.39975,-71.15827 34.18932,-93.39522 l -3.33554,-15.00998 c -5.55923,0.55593 -12.50828,0.55593 -20.84717,0 l -12.50826,30.0199 c -6.67108,16.67773 -15.56587,24.1827 -26.68436,22.51493 -6.11515,-0.55592 -8.89477,-3.6135 -8.33884,-9.17273 0.55592,-5.55927 5.83721,-8.06092 15.84386,-7.50496 9.45069,-21.12511 14.45399,-35.30118 15.00992,-42.52821 l -0.83389,-10.8405 c -3.33554,-1.66777 -3.89146,-5.0033 -1.66777,-10.00661 -2.22369,-1.11185 -3.05758,-3.6135 -2.50165,-7.50496 3.33554,0 5.00331,-1.38983 5.00331,-4.16948 -4.44739,0 -6.94904,-1.38981 -7.50496,-4.16942 -0.55593,-2.22369 1.66776,-6.5321 6.67107,-12.92521 5.00331,-6.39311 8.06088,-11.25746 9.17273,-14.59304 1.11185,-3.33553 2.22369,-6.94903 3.33554,-10.84049 -5.00331,0.55592 -10.8405,0.55592 -17.51158,0 -10.00665,-0.55593 -19.73532,-3.6135 -29.18601,-9.17273 -6.67107,3.89146 -16.12178,5.55923 -28.35212,5.0033 -10.56254,-1.11185 -17.5116,-7.50496 -20.84717,-19.17934 -2.277553,-8.49994 -2.465177,-17.71361 2.50171,-22.51493 5.00331,2.22369 8.75579,5.6982 11.25744,10.42355 2.50165,4.72535 7.36598,7.9219 14.59298,9.58967 8.8948,-5.55923 16.12182,-8.33884 21.68105,-8.33884 6.11515,0.55592 14.45402,3.33553 25.01659,8.33884 6.67107,-1.11185 15.8438,-1.66777 27.51818,-1.66777 1.11189,-2.77961 2.22375,-4.72534 3.3356,-5.83719 -13.89811,1.66777 -26.96234,2.77962 -39.19268,3.33554 10.00665,-26.68434 25.15558,-50.17212 45.44681,-70.46335 20.29123,-20.291223 32.10461,-34.050334 35.44014,-41.277332 -7.22703,-2.779615 -10.84055,-6.949038 -10.84055,-12.508267 -0.55592,-11.118496 5.55925,-18.067552 18.34551,-20.847167 15.00992,-1.667769 25.01655,6.671094 30.0199,25.016589 0.55592,-0.555923 3.47452,-3.75248 8.75579,-9.589671 5.28127,-5.837228 8.19988,-10.423611 8.75584,-13.759149 -1.11189,-4.447383 -4.7254,-6.115152 -10.84055,-5.003306 0,-11.118459 3.89146,-16.677689 11.67438,-16.677689 2.77961,0 5.00332,0.277961 6.67113,0.833884 0,-3.335575 0.83388,-6.671131 2.50165,-10.006669 1.66777,-5.0033065 4.86433,-8.6168056 9.58967,-10.8404975 4.72535,-2.22369187 10.1456,-1.6677689 16.26075,1.6677689 7.22703,2.7796148 11.53545,6.5320947 12.92526,11.2574396 1.38981,4.725383 0.97287,9.589727 -1.25082,14.593034 -1.11189,3.335537 -2.77966,5.837191 -5.00331,7.50496 1.66773,1.111846 3.3355,2.501653 5.00331,4.169422 5.55923,6.115153 4.44736,13.064208 -3.3356,20.847167 -3.89146,-5.55923 -7.78292,-6.949038 -11.67438,-4.169423 -2.22369,3.891461 -3.89146,12.230305 -5.0033,25.016534 10.00665,-5.003307 18.90143,-2.223673 26.68435,8.3389 6.11515,9.450692 6.11515,16.677682 0,21.680992 -3.89146,3.33554 -8.33884,3.89146 -13.34215,1.66777 -2.22373,4.44739 -3.05763,18.06752 -2.50171,40.8604 0,16.1218 -1.66777,30.01991 -5.0033,41.69433 2.22369,0 7.50497,2.77961 15.84386,8.33884 8.33884,5.55923 16.12176,5.8372 23.34876,0.83389 7.22703,-5.00331 13.06424,-8.33886 17.51163,-10.00667 4.44739,-1.66773 6.11516,0.83394 5.00331,7.50501 -3.89146,6.67108 -8.89477,12.92521 -15.00992,18.7624 -6.11515,5.83719 -13.48115,8.47783 -22.098,7.92191 -8.61684,-0.55593 -18.76245,-4.16943 -30.43683,-10.8405 l -5.00331,26.68436 -27.51824,8.33884 c -5.00331,9.45073 -12.78623,15.5659 -23.34877,18.34551 z"
     id="path1"
     sodipodi:nodetypes="ccscscccsccsssccccccccsscccscssccssccsscccscscccccscccccccccsccssccssccsccsssscccsscsccsccccccccscccsccccsscccccccccscccccccccccccccsccccccccccccccccccssccccccccsscscccccccccccccccccccccccsssccccccccccccccccccccssscccccssccscssscccscsccscscccscsscscsccccccccscccccccssccccccsccccccsccccsccsccscscccccccccccssscsscccc" />
  <ellipse
     style="fill:#f9f06b;fill-rule:evenodd;stroke:none;stroke-width:10;stroke-linecap:round;stroke-miterlimit:5"
     id="path8"
     cx="226.63515"
     cy="199.38058"
     rx="17.094685"
     ry="17.09466" />
</svg>
