<?xml version="1.0" encoding="UTF-8" standalone="no"?>
<svg
   width="800"
   height="1000"
   version="1.1"
   id="svg1"
   sodipodi:docname="13846.svg"
   inkscape:version="1.4.2 (f4327f4, 2025-05-13)"
   xmlns:inkscape="http://www.inkscape.org/namespaces/inkscape"
   xmlns:sodipodi="http://sodipodi.sourceforge.net/DTD/sodipodi-0.dtd"
   xmlns="http://www.w3.org/2000/svg"
   xmlns:svg="http://www.w3.org/2000/svg">
  <defs
     id="defs1" />
  <sodipodi:namedview
     id="namedview1"
     pagecolor="#ffffff"
     bordercolor="#000000"
     borderopacity="0.25"
     inkscape:showpageshadow="2"
     inkscape:pageopacity="0.0"
     inkscape:pagecheckerboard="0"
     inkscape:deskcolor="#d1d1d1"
     inkscape:zoom="0.32688404"
     inkscape:cx="-47.417427"
     inkscape:cy="876.4576"
     inkscape:window-width="1680"
     inkscape:window-height="998"
     inkscape:window-x="-8"
     inkscape:window-y="-8"
     inkscape:window-maximized="1"
     inkscape:current-layer="svg1"
     showguides="true">
    <sodipodi:guide
       position="367.73944,780.43792"
       orientation="0,-1"
       id="guide1"
       inkscape:locked="false" />
    <sodipodi:guide
       position="292.09439,741.0371"
       orientation="1,0"
       id="guide2"
       inkscape:locked="false" />
    <sodipodi:guide
       position="293.68213,463.11236"
       orientation="0,-1"
       id="guide3"
       inkscape:locked="false" />
  </sodipodi:namedview>
  <path
     id="path1"
     style="fill:#000000;stroke:none;stroke-width:55.6728"
     d="M 659.13086 0 C 626.13594 0.84602307 599.48618 12.267054 579.18164 34.263672 C 558.87703 56.260294 548.72461 81.217947 548.72461 109.13672 C 548.72461 141.28565 563.10624 168.78236 591.87109 191.625 C 562.26026 197.54715 543.64744 220.81271 536.0332 261.42188 C 536.87921 267.34404 529.89918 280.66888 515.09375 301.39648 C 500.28835 322.12405 498.80802 334.39017 510.65234 338.19727 C 522.49669 342.00437 527.99639 356.59973 527.15039 381.98047 L 489.08008 482.23438 C 478.92778 491.54061 469.40863 494.92479 460.52539 492.38672 C 451.64215 489.84867 445.93264 494.07785 443.39453 505.07617 C 473.00538 529.61089 498.80806 522.4191 520.80469 483.50195 L 567.75977 393.40039 C 587.21834 391.70835 596.94727 405.24498 596.94727 434.00977 C 559.72221 503.38376 537.72523 620.9821 530.95703 786.80273 L 379.94141 583.75586 C 370.34391 557.52269 359.05313 541.20987 346.06836 534.81641 C 354.45894 524.91266 360.25345 513.71113 363.45117 501.21094 C 366.67338 488.6151 368.06438 476.97111 367.625 466.2793 C 367.18559 455.58748 359.46714 447.31164 348.33594 441.45312 L 340.42773 448.92188 C 342.77114 424.02312 343.94336 402.78655 343.94336 385.21094 L 348.77539 385.21094 C 353.46221 396.04923 355.87893 405.71606 356.02539 414.21094 C 356.17185 422.70581 355.65998 432.07961 354.48828 442.33203 L 359.32227 442.77148 L 361.07812 437.9375 L 366.57227 437.5 C 370.96616 416.11634 371.99185 400.51616 369.64844 390.70312 C 367.30502 380.8901 357.26975 374.51911 345.25977 371.58984 C 348.48198 360.75155 350.09375 349.91447 350.09375 339.07617 C 353.02302 340.83375 356.53769 338.34279 360.63867 331.60547 L 383.04883 260.86523 C 375.72566 258.81476 373.82082 252.07648 377.33594 240.65234 C 368.84109 243.28867 366.20555 239.33442 369.42773 228.78906 L 359.32031 231.86523 L 352.73047 219.5625 C 349.50828 222.49175 346.86932 231.96394 348.04102 239.28711 C 359.46515 260.37782 361.04479 273.66369 360.16602 284.64844 C 359.28801 295.62363 356.51237 304.67232 348.61914 320.46484 C 348.78185 320.58619 348.94212 320.7102 348.96289 320.73633 L 348.96484 320.73828 L 348.96484 320.74023 L 348.96484 320.74219 L 348.96289 320.74219 C 348.94587 320.73848 348.84129 320.67273 348.59766 320.50586 C 341.95567 315.95648 334.69275 313.06619 326.80664 311.83398 C 327.68543 304.21789 325.04792 297.91921 318.89648 292.93945 L 317.58008 283.71289 L 307.03516 298.65039 C 308.49981 291.03432 311.5749 284.29798 316.26172 278.43945 L 316.70117 273.60547 C 312.01436 273.60547 309.08382 275.80336 307.91211 280.19727 C 305.27577 277.26799 301.90761 275.0701 297.80664 273.60547 L 297.80664 279.31836 L 294.73047 279.31836 L 294.73047 273.16797 L 292.09375 273.16797 L 289.45703 273.16797 L 289.45703 279.31836 L 286.38281 279.31836 L 286.38281 273.60547 C 282.28184 275.0701 278.91173 277.26799 276.27539 280.19727 C 275.10368 275.80336 272.17509 273.60547 267.48828 273.60547 L 267.92773 278.43945 C 272.61455 284.29798 275.68965 291.03432 277.1543 298.65039 L 266.60938 283.71289 L 265.29102 292.93945 C 259.13958 297.91921 256.50402 304.21789 257.38281 311.83398 C 249.4967 313.06619 242.23183 315.95648 235.58984 320.50586 C 235.35596 320.66606 235.2496 320.73385 235.22656 320.74219 L 235.22461 320.74219 L 235.22461 320.74023 L 235.22461 320.73828 L 235.22656 320.73633 C 235.24733 320.7102 235.4076 320.58619 235.57031 320.46484 C 227.67709 304.67232 224.90144 295.62363 224.02344 284.64844 C 223.14467 273.66369 224.72431 260.37782 236.14844 239.28711 C 237.32014 231.96394 234.67922 222.49175 231.45703 219.5625 L 224.86719 231.86523 L 214.76172 228.78906 C 217.9839 239.33442 215.34837 243.28867 206.85352 240.65234 C 210.36864 252.07648 208.4638 258.81476 201.14062 260.86523 L 223.54883 331.60547 C 227.64981 338.34279 231.16448 340.83375 234.09375 339.07617 C 234.09375 349.91447 235.70552 360.75155 238.92773 371.58984 C 226.91775 374.51911 216.88444 380.8901 214.54102 390.70312 C 212.19761 400.51616 213.22134 416.11634 217.61523 437.5 L 223.10938 437.9375 L 224.86719 442.77148 L 229.69922 442.33203 C 228.52752 432.07961 228.0176 422.70581 228.16406 414.21094 C 228.31052 405.71606 230.72724 396.04923 235.41406 385.21094 L 240.24609 385.21094 C 240.24609 402.78655 241.41636 424.02312 243.75977 448.92188 L 235.85156 441.45312 C 224.72036 447.31164 217.00386 455.58748 216.56445 466.2793 C 216.12507 476.97111 217.51607 488.6151 220.73828 501.21094 C 223.66707 512.65987 228.77381 523.0202 236.05859 532.29102 C 221.30025 534.43774 223.99964 542.70982 244.15625 557.10742 C 244.15625 576.56594 250.50104 598.56098 263.19141 623.0957 C 259.80732 630.70988 272.70867 661.59077 301.89648 715.73633 C 331.0843 769.88182 356.2537 838.83346 377.4043 922.58984 L 294.91602 958.12109 L 299.99219 1000 L 773.34375 1000 L 712.42969 935.2793 C 736.11835 827.8343 745.84735 717.42776 741.61719 604.06055 L 787.30273 604.06055 L 787.30273 335.02539 C 783.91865 306.2606 776.72686 280.66768 765.72852 258.24805 C 754.73023 235.82842 734.42727 217.85083 704.81641 204.31445 C 747.96365 188.23998 769.53711 156.09054 769.53711 107.86719 C 769.53711 77.410347 758.53764 52.031137 736.54102 31.726562 C 714.54442 11.421989 688.74172 0.84602307 659.13086 0 z M 235.57031 320.46484 C 235.57718 320.47859 235.58296 320.4921 235.58984 320.50586 C 235.81745 320.32202 235.91503 320.23804 235.93164 320.2168 L 235.93359 320.21484 L 235.93359 320.21289 L 235.93359 320.21094 L 235.93164 320.21094 C 235.90228 320.22216 235.73445 320.34244 235.57031 320.46484 z M 348.59766 320.50586 C 348.60454 320.4921 348.61227 320.47859 348.61914 320.46484 C 348.455 320.34244 348.28522 320.22216 348.25586 320.21094 L 348.25391 320.21094 L 348.25391 320.21289 L 348.25586 320.21484 L 348.25781 320.2168 C 348.27442 320.23804 348.37005 320.32202 348.59766 320.50586 z M 659.13086 31.726562 C 677.74343 31.726563 695.29745 39.128165 711.79492 53.933594 C 728.29235 68.738986 736.54102 86.71659 736.54102 107.86719 C 736.54102 130.70984 729.56092 149.11092 715.60156 163.07031 C 701.64213 177.02972 682.39606 184.00977 657.86133 184.00977 C 635.86473 184.00977 617.67535 175.76113 603.29297 159.26367 C 588.91055 142.76618 581.71875 125.63369 581.71875 107.86719 C 581.71875 88.408638 588.91055 70.854539 603.29297 55.203125 C 617.67535 39.551673 636.2882 31.726562 659.13086 31.726562 z M 618.67969 210.85742 C 626.61116 210.83098 635.44064 211.82273 645.16992 213.83203 C 684.08701 221.86929 712.4288 237.73322 730.19531 261.42188 C 747.96179 285.11054 757.90268 318.10505 760.01758 360.40625 C 762.13302 402.70744 761.92307 475.04323 759.38477 577.41211 L 740.34766 577.41211 L 737.81055 469.54297 C 734.42645 435.70204 721.10159 418.56949 697.83594 418.14648 C 674.57028 417.72345 661.24544 449.23964 657.86133 512.69141 L 638.82617 512.69141 C 639.67217 424.70494 647.28554 372.88583 661.66797 357.23438 C 676.05038 341.58291 686.20288 325.50723 692.125 309.00977 C 698.0472 292.51231 695.29827 279.18746 683.87695 269.03516 C 672.45561 258.8829 658.70727 257.61431 642.63281 265.22852 C 624.02032 251.69212 600.33123 242.80823 571.56641 238.57812 C 579.18063 220.17712 594.88526 210.93675 618.67969 210.85742 z M 557.60742 258.88281 C 589.7563 261.42087 617.25111 272.42036 640.09375 291.87891 C 652.7841 280.0346 662.7248 278.76407 669.91602 288.07031 C 677.10724 297.37656 671.39768 311.54845 652.78516 330.58398 C 634.1726 349.61952 622.75157 381.55721 618.52148 426.39648 C 615.13739 409.47599 611.54152 396.15112 607.73438 386.42188 C 603.92729 376.6926 592.08271 372.67314 572.20117 374.36523 C 552.31959 376.05723 541.95539 362.52066 541.10938 333.75586 L 522.07422 323.60352 C 529.68842 310.0671 536.6685 299.4931 543.01367 291.87891 C 549.35886 284.26468 554.22329 273.26518 557.60742 258.88281 z M 571.39844 274.41406 C 563.94946 274.89987 558.92883 279.02988 556.33789 286.80273 C 559.72198 304.56918 578.33481 305.83778 612.17578 290.60938 C 594.56789 279.18806 580.97569 273.78946 571.39844 274.41406 z M 292.09375 317.36719 C 309.37962 317.36719 320.91941 320.32781 333.92578 328.70508 C 337.50006 344.40586 336.79853 359.75689 331.29102 377.91797 C 318.10933 379.96846 307.26749 382.25325 292.09375 388.28711 C 276.92001 382.25325 266.08013 379.96846 252.89844 377.91797 C 247.39093 359.75689 246.68744 344.40586 250.26172 328.70508 C 263.26809 320.32781 274.80788 317.36719 292.09375 317.36719 z M 256.72266 392.31641 C 266.02083 392.17967 275.05816 394.93317 285.00977 400.51562 L 285.00977 484.25 C 273.34272 481.12265 263.63139 475.55781 256.82617 465.49414 C 253.95499 439.07195 252.08203 419.4046 252.08203 392.625 C 253.6199 392.44191 255.16649 392.3393 256.72266 392.31641 z M 327.46484 392.31641 C 329.02101 392.3393 330.5676 392.44191 332.10547 392.625 C 332.10547 419.4046 330.23251 439.07195 327.36133 465.49414 C 320.55611 475.55781 310.84674 481.12265 299.17969 484.25 L 299.17969 400.51562 C 309.1313 394.93317 318.16667 392.17967 327.46484 392.31641 z M 698.79688 451.70703 C 699.10752 451.70042 699.42298 451.72447 699.74023 451.77734 C 709.89255 453.46936 713.69823 518.61331 711.16016 647.20898 C 708.62205 775.80457 694.6639 877.75069 669.2832 953.04688 L 697.20117 968.27344 L 348.2168 968.27344 L 420.55078 937.81836 C 396.0161 830.37335 367.67427 747.88509 335.52539 690.35547 C 303.37647 632.82587 298.30027 604.06055 320.29688 604.06055 C 343.98558 604.06055 363.86698 617.17367 379.94141 643.40039 L 524.61328 843.9082 L 561.41406 843.9082 C 567.3362 671.31931 585.94908 543.57046 617.25195 460.66016 L 617.25195 538.07031 L 679.43555 538.07031 C 682.71388 480.6993 689.16677 451.91194 698.79688 451.70703 z M 238.04883 458.58984 L 238.04883 459.0293 C 248.88706 481.58454 266.90224 494.91263 292.09375 499.01367 C 317.28526 494.91263 335.30239 481.58454 346.14062 459.0293 L 346.14062 458.58984 C 351.70624 466.49888 352.34941 475.68115 350.88477 485.78711 C 349.42015 495.89307 347.75129 506.62863 343.06445 518.3457 L 344.38281 522.30078 C 342.43183 526.92153 341.38293 530.44608 341.07227 532.87109 C 338.44234 532.10827 335.74845 531.72656 332.98828 531.72656 L 306.33789 531.72656 L 274.61328 531.72656 L 245.42383 531.72656 C 244.56464 531.72656 243.7356 531.73706 242.93555 531.75781 C 242.48526 529.41105 241.47735 526.25771 239.80664 522.30078 L 241.125 518.3457 C 236.43816 506.62863 234.76735 495.89307 233.30273 485.78711 C 231.83809 475.68115 232.48321 466.49888 238.04883 458.58984 z M 269.53711 555.83789 L 311.41406 555.83789 C 330.02659 555.83789 342.71814 564.72179 349.48633 582.48828 L 292.37891 582.48828 C 277.15046 582.48828 269.53711 573.60438 269.53711 555.83789 z " />
</svg>
