<?xml version="1.0" encoding="UTF-8" standalone="no"?>
<svg
   width="1000"
   height="1000"
   version="1.1"
   id="svg1"
   sodipodi:docname="13842.svg"
   inkscape:version="1.4.3 (0d15f75, 2025-12-25)"
   xmlns:inkscape="http://www.inkscape.org/namespaces/inkscape"
   xmlns:sodipodi="http://sodipodi.sourceforge.net/DTD/sodipodi-0.dtd"
   xmlns="http://www.w3.org/2000/svg"
   xmlns:svg="http://www.w3.org/2000/svg">
  <defs
     id="defs1" />
  <sodipodi:namedview
     id="namedview1"
     pagecolor="#ffffff"
     bordercolor="#666666"
     borderopacity="1.0"
     inkscape:showpageshadow="2"
     inkscape:pageopacity="0.0"
     inkscape:pagecheckerboard="0"
     inkscape:deskcolor="#d1d1d1"
     inkscape:zoom="0.3775"
     inkscape:cx="321.8543"
     inkscape:cy="753.64238"
     inkscape:window-width="1680"
     inkscape:window-height="998"
     inkscape:window-x="-8"
     inkscape:window-y="-8"
     inkscape:window-maximized="1"
     inkscape:current-layer="svg1"
     showguides="true">
    <sodipodi:guide
       position="627.93127,33"
       orientation="0,-1"
       id="guide12"
       inkscape:locked="false" />
    <sodipodi:guide
       position="627.93127,28"
       orientation="0,1"
       id="guide13"
       inkscape:label=""
       inkscape:locked="false"
       inkscape:color="rgb(0,134,229)" />
    <sodipodi:guide
       position="260.86793,525.67197"
       orientation="1,0"
       id="guide14"
       inkscape:locked="false" />
    <sodipodi:guide
       position="286.60476,595.37465"
       orientation="1,0"
       id="guide15"
       inkscape:locked="false" />
  </sodipodi:namedview>
  <path
     id="path12"
     style="fill:#000000;stroke:none;stroke-width:0.999995"
     d="M 300.03516 0 C 281.38404 26.857627 267.95457 44.203619 259.74805 52.037109 C 251.54153 59.870593 246.13263 68.820961 243.52148 78.892578 C 240.91032 88.964199 225.80292 117.12991 198.19922 163.38477 C 216.10433 161.14663 235.50132 141.74766 256.39062 105.19141 C 259.37482 99.969085 260.86719 98.849789 260.86719 101.83398 L 260.86719 208.33008 L 231.21289 208.33008 C 229.66798 209.60664 228.17627 211.21079 227.84766 213.26367 C 227.52939 215.15671 228.45337 217.01996 229.73242 218.36328 C 230.18639 218.86488 230.70145 219.30709 231.21289 219.74805 L 244.5 219.74805 C 245.80847 221.35395 246.13131 223.50228 246.23633 225.50977 C 246.24763 225.88141 246.26031 226.25313 246.25391 226.625 L 231.21289 226.625 C 229.66791 227.90152 228.17615 229.50562 227.84766 231.55859 C 227.5323 233.43258 228.4354 235.27947 229.69531 236.61719 C 230.15928 237.13369 230.68757 237.58902 231.21289 238.04102 L 244.5 238.04102 C 245.80848 239.64692 246.12938 241.79524 246.23438 243.80273 C 246.24568 244.17436 246.26021 244.54611 246.25391 244.91797 L 231.21094 244.91797 C 229.66601 246.19452 228.17627 247.80064 227.84766 249.85352 C 227.52939 251.74656 228.45142 253.60979 229.73047 254.95312 C 230.18443 255.45472 230.69949 255.89302 231.21094 256.33398 L 244.5332 256.33398 C 245.9489 257.84496 246.28254 260.01956 246.32227 262.01172 C 246.32227 262.41236 246.32157 262.81278 246.29688 263.21289 L 231.23047 263.21289 C 229.69069 264.40124 228.2078 265.93269 227.86328 267.92188 C 227.50376 269.85257 228.44265 271.76131 229.71094 273.16406 C 230.16345 273.69307 230.68122 274.15931 231.19336 274.62891 L 244.44922 274.62891 C 245.74667 276.51468 246.32942 278.77852 246.83789 280.98047 C 247.34153 283.32515 247.66097 285.69954 247.89844 288.08398 C 243.70552 288.65604 242.1307 290.50537 243.17383 293.63477 C 244.96112 298.99656 248.71437 302.39444 254.43359 303.82422 C 241.56527 301.67954 236.5622 310.25814 239.42188 329.56055 C 242.28149 348.86297 249.42872 358.51367 260.86719 358.51367 L 260.86719 404.625 C 243.70942 405.33991 236.38454 408.37843 238.88672 413.74023 C 241.36987 419.06121 245.78708 421.39014 252.14258 420.72656 C 238.6777 422.21157 234.79358 432.0349 240.49219 450.19922 C 246.21142 468.4293 253.00323 476.47284 260.86719 474.32812 L 260.86719 537.05273 C 212.03288 543.6465 183.79523 568.13449 176.15234 610.51758 C 176.15234 701.94684 185.44874 754.56825 182.58594 853.33008 C 160.42392 884.07102 137.90624 903.55212 115.0293 911.77344 C 92.152354 919.99491 71.06218 925.17757 51.759766 927.32227 C 35.161719 929.314 25.345984 940.64338 22.3125 960 L 5.7949219 960 L 5.7949219 1000 L 659.5625 1000 L 659.5625 960 L 643.70117 960 L 643.70117 476.47266 C 643.70117 471.46834 646.56007 468.9668 652.2793 468.9668 C 657.99854 468.9668 660.85742 471.46834 660.85742 476.47266 L 660.85742 566.55273 L 684.45117 566.55273 L 683.37695 468.9668 C 683.37695 453.95382 673.01151 446.44727 652.2793 446.44727 C 631.54703 446.44727 621.18164 453.95382 621.18164 468.9668 L 621.18164 489.3418 L 585.79297 489.3418 C 589.36754 470.75429 598.48316 423.03383 613.13867 346.18164 C 627.79421 269.32941 619.03587 219.10752 586.86523 195.51562 C 591.29666 185.66832 612.34933 163.69727 626.33398 163.69727 C 640.31872 163.69727 641.75661 174.01767 641.64844 177.95508 L 637.95508 312.36914 L 670.45312 312.36914 L 663.80469 176.47852 C 663.50237 170.29842 655.80208 147.80273 629.21484 147.80273 C 602.62761 147.80273 584.20031 170.71538 581.36719 177.1543 L 575.14844 155.52344 C 580.56444 151.58451 587.70388 146.16845 596.56641 139.27539 C 629.06219 124.01216 645.18554 98.163308 644.93945 61.728516 C 644.69328 25.293557 621.30751 5.1049164 574.7793 1.1660156 C 563.14725 0.18129357 552.55294 -0.17958062 542.99805 0.08203125 C 514.3333 0.86686683 495.01717 7.2603705 485.04688 19.261719 C 471.75308 35.263468 461.9046 51.386814 455.50391 67.634766 C 454.51918 75.020195 453.41061 80.930078 452.17969 85.361328 C 450.94878 89.792589 447.37906 96.315294 441.4707 104.93164 C 435.56235 113.54799 433.10121 119.08704 434.08594 121.54883 C 434.57829 124.99539 437.77915 126.71875 443.6875 126.71875 C 443.6875 130.1653 441.71627 132.38053 437.77734 133.36523 C 437.77734 137.79651 438.76297 140.75143 440.73242 142.22852 C 438.2706 149.12162 439.25624 153.30608 443.6875 154.7832 L 446.64258 168.81641 C 446.48322 170.33028 446.98197 171.54125 447.85352 172.55078 L 414.80859 273.54492 L 443.56641 279.51758 L 467.53125 176.94727 C 467.59315 176.94527 468.05859 176.93945 468.05859 176.93945 C 479.87527 175.95473 488.7418 175.15578 494.36133 173.21484 C 496.82312 185.03148 501.42831 204.794 505.36719 212.67188 C 497.50324 220.53585 488.03018 236.44334 476.94922 260.39258 C 465.86818 284.3419 460.32617 304.89502 460.32617 322.05273 L 343.43945 323.125 C 327.41556 315.64718 312.78919 307.96876 299.55859 300.0918 C 299.48023 292.34233 300.39362 284.29107 303.43945 277.06055 C 303.84183 276.19232 304.32687 275.35274 304.95703 274.62891 L 318.50977 274.62891 C 320.06894 273.47835 321.60017 272.00625 322.00781 270.03516 C 322.41887 268.1848 321.55571 266.31158 320.3418 264.94922 C 319.80178 264.31148 319.17426 263.75754 318.54297 263.21289 L 303.5 263.21289 C 303.494 261.20225 303.55776 259.11321 304.36719 257.24023 C 304.53881 256.92753 304.69533 256.51964 304.99023 256.33398 L 319.46484 256.33398 C 320.86939 254.96136 322.18473 253.26778 322.33008 251.23633 C 322.49909 249.2765 321.40144 247.45523 320.00781 246.16602 C 319.52094 245.72046 319.00919 245.25191 318.45508 244.91797 L 303.49805 244.91797 C 303.49205 242.71685 303.64002 240.39764 304.74023 238.4375 C 304.86786 238.12805 305.08517 237.95426 305.42969 238.04102 L 318.54297 238.04102 C 320.08713 236.76441 321.57627 235.16006 321.9043 233.10742 C 322.22282 231.21485 321.30136 229.35016 320.02148 228.00781 C 319.5677 227.50603 319.05492 227.06543 318.54297 226.625 L 303.49805 226.625 C 303.49205 224.42387 303.64002 222.10465 304.74023 220.14453 C 304.86786 219.83507 305.08517 219.6613 305.42969 219.74805 L 318.54297 219.74805 C 320.08724 218.47176 321.57506 216.8665 321.9043 214.81445 C 322.22016 212.9398 321.31808 211.08968 320.05664 209.75195 C 319.59278 209.23541 319.06886 208.78154 318.54297 208.33008 L 286.68359 208.33008 L 286.60547 208.33008 L 286.60547 100.71484 C 286.59747 83.55574 282.87648 75.349701 275.41602 76.095703 C 280.63835 67.889248 288.09641 56.885803 297.79492 43.083984 C 307.49358 29.282099 308.24174 14.920911 300.03516 0 z M 538.2207 13.720703 C 564.3159 13.720703 585.98019 16.30676 603.21289 21.476562 C 620.44555 26.646366 629.06055 40.554454 629.06055 63.203125 C 629.06055 85.851784 621.42926 102.46893 606.16602 113.05469 C 590.90279 123.64049 579.33287 132.1364 571.45508 138.53711 C 558.16134 129.67457 549.05257 117.85681 544.12891 103.08594 C 547.57546 98.162318 549.29883 92.74626 549.29883 86.837891 C 549.29883 76.990633 543.39093 71.820486 531.57422 71.328125 C 523.20407 71.328125 517.78799 76.006441 515.32617 85.361328 L 513.11133 85.361328 C 512.12662 76.006441 507.69419 70.09656 499.81641 67.634766 C 491.93862 65.172949 483.81549 62.957725 475.44531 60.988281 C 491.69326 29.477086 512.61786 13.720703 538.2207 13.720703 z M 463.62891 75.021484 C 470.02958 75.021484 478.39865 76.253039 488.73828 78.714844 C 503.01675 81.669022 510.40219 87.576953 510.89453 96.439453 C 515.81816 96.439453 518.2793 98.162836 518.2793 101.60938 C 510.89385 107.02536 507.20117 112.68735 507.20117 118.5957 C 507.20117 124.01166 510.40197 126.71875 516.80273 126.71875 C 521.23395 126.71875 526.896 123.27196 533.78906 116.37891 C 538.71272 131.14977 547.57553 143.70534 560.37695 154.04492 L 567.83984 192.22852 C 564.98024 200.09244 555.76827 206.06038 547.18945 207.84766 C 538.61055 209.63489 530.74474 210.17193 523.5957 209.45703 C 518.91827 202.81012 511.42471 182.88771 508.96289 169.10156 C 508.47053 165.16267 506.25533 163.43737 502.31641 163.92969 C 495.42336 163.92969 478.89126 166.10866 460.67383 168.07812 C 456.73496 166.60104 454.5197 164.75469 454.02734 162.53906 C 453.53498 160.32344 452.79528 157.49147 451.81055 154.04492 C 461.16547 150.5984 467.56715 146.65981 471.01367 142.22852 C 463.62823 136.81256 457.71836 133.36574 453.28711 131.88867 L 453.28711 127.45703 C 460.67252 125.97993 464.36523 124.01258 464.36523 121.55078 C 462.88816 117.6119 460.92078 115.64062 458.45898 115.64062 C 455.50481 116.13299 454.51918 117.11861 455.50391 118.5957 C 457.47334 120.56514 455.8729 121.67183 450.70312 121.91797 C 445.5333 122.16417 442.94922 121.79526 442.94922 120.81055 C 442.94922 119.33346 443.44105 117.85596 444.42578 116.37891 C 455.25776 100.62331 461.65943 86.838185 463.62891 75.021484 z M 531.57422 77.236328 C 539.45203 77.236328 543.39063 79.945355 543.39062 85.361328 C 543.39062 90.284974 542.40498 94.715397 540.43555 98.654297 C 538.46609 102.59318 535.01931 107.26956 530.0957 112.68555 C 524.18735 117.60918 520.3717 120.19522 518.64844 120.44141 C 516.92517 120.68759 515.4477 120.31874 514.2168 119.33398 C 512.98587 118.34923 513.35674 116.378 515.32617 113.42383 L 522.71094 105.30078 L 531.57422 98.654297 C 532.55895 97.669574 531.81921 95.946156 529.35742 93.484375 C 526.89561 91.022532 526.64966 88.55945 528.61914 86.097656 C 530.5886 83.635838 532.80578 83.391894 535.26758 85.361328 C 537.72937 87.330784 538.2212 90.037798 536.74414 93.484375 C 535.26702 96.930901 531.32845 102.34699 524.92773 109.73242 L 526.4043 110.4707 C 533.29739 103.08529 537.35894 98.162977 538.58984 95.701172 C 539.82075 93.239355 540.43555 90.036509 540.43555 86.097656 C 540.43555 82.158756 537.48256 80.191406 531.57422 80.191406 C 528.62005 80.191406 526.52778 81.052127 525.29688 82.775391 C 524.066 84.498643 523.45117 86.836849 523.45117 89.791016 C 523.45117 91.760484 524.92864 94.469514 527.88281 97.916016 L 522.71094 101.60742 C 520.24914 95.69907 519.63432 90.161991 520.86523 84.992188 C 522.09614 79.822419 525.66585 77.236328 531.57422 77.236328 z M 472.07422 79.867188 C 469.39701 79.959428 466.82703 80.560145 464.36523 81.667969 C 462.39578 84.129786 462.39578 86.09909 464.36523 87.576172 C 472.24304 83.144912 483.8149 86.345752 499.07812 97.177734 L 507.20117 97.177734 L 507.20117 92.746094 L 499.07812 92.746094 C 489.10778 83.883571 480.1059 79.59024 472.07422 79.867188 z M 471.29102 90.115234 C 468.89075 90.207464 467.32058 90.715482 466.58203 91.638672 C 465.59733 92.869586 465.10547 94.715917 465.10547 97.177734 C 465.10547 101.11661 467.68955 103.08594 472.85938 103.08594 C 478.02916 103.08594 485.04564 101.60845 493.9082 98.654297 C 484.55329 93.238288 477.90764 90.406335 473.96875 90.160156 C 472.98405 90.098666 472.09113 90.084614 471.29102 90.115234 z M 445.90234 136.32031 L 460.67383 139.27344 L 451.07422 139.27344 C 447.13532 139.27344 445.40995 138.28975 445.90234 136.32031 z M 463.62891 142.9668 C 463.62891 143.95153 458.70469 145.6749 448.85742 148.13672 C 447.87269 148.62907 447.38084 148.38322 447.38086 147.39844 C 447.38086 145.42902 448.36454 144.44336 450.33398 144.44336 L 455.50391 144.44336 L 463.62891 142.9668 z M 551.20117 231.63281 C 555.04935 231.50435 559.0734 231.61727 563.27344 231.97461 C 556.83933 236.26405 550.76222 249.49223 545.04297 271.6543 C 532.88956 290.95673 517.16174 323.83985 497.85938 370.30859 L 479.63086 375.66992 C 479.63086 333.49056 485.16899 298.28365 496.25 270.04492 C 505.94587 245.33606 524.26376 232.53208 551.20117 231.63281 z M 599.73438 289.88281 C 595.44494 328.48769 589.19012 365.48531 580.96875 400.87305 C 572.74732 436.26083 566.84793 471.82506 563.27344 507.57031 L 563.27344 534.37891 C 566.84791 585.13725 544.32834 611.23238 495.71484 612.66211 C 357.0234 608.3725 278.38438 610.15757 259.79688 618.02148 C 241.20936 625.88547 235.00829 647.56992 242.10156 682.89844 C 253.83909 741.35794 250.20855 780.81104 221.19141 877.99219 C 221.00096 901.59408 222.26367 919.63563 222.26367 932.14648 C 222.26367 944.65727 211.00387 948.94561 188.48438 945.01367 C 165.96488 941.08261 138.61992 940.90378 106.44922 944.47852 C 74.278521 948.05326 62.481696 948.59012 71.060547 946.08789 C 79.6394 943.58572 98.942752 936.79392 128.96875 925.71289 C 158.99475 914.63183 183.3012 895.86552 201.88867 869.41406 C 209.03775 809.36209 210.11179 766.36615 205.10742 664.13477 C 202.2478 599.79327 221.90653 566.55084 264.08594 564.40625 C 353.44897 547.96346 425.29812 536.52596 479.63086 530.0918 L 479.63086 433.57812 C 493.92894 431.43342 510.72688 428.2152 530.0293 423.92578 C 570.77889 353.15024 594.0152 308.47036 599.73438 289.88281 z M 347.73047 356.36914 C 394.91416 368.52256 431.01546 375.31435 456.03711 376.74414 L 339.15039 408.91602 C 318.41818 410.34587 300.90357 408.91444 286.60547 404.625 L 286.60547 357.44141 C 295.89923 359.58612 316.27468 359.2288 347.73047 356.36914 z M 456.03711 436.79492 L 456.03711 503.2832 C 419.36013 507.86785 362.88343 517.55119 286.60547 532.33594 L 286.60547 474.32812 C 301.61847 468.6089 319.13308 460.03027 339.15039 448.5918 C 386.3341 445.7322 425.29623 441.79926 456.03711 436.79492 z M 591.1543 510.78906 L 621.18164 510.78906 L 621.18164 760.74609 L 501.07617 760.74609 L 501.07617 949.48047 L 300.54688 950.55273 L 301.61719 645.90625 C 301.61719 638.57531 303.13294 635.18359 309.12305 635.18359 L 519.30664 635.18359 C 564.34567 635.18359 588.2947 601.22256 591.1543 533.30664 L 591.1543 510.78906 z M 278.02734 636.25391 L 278.02734 960 L 240.9707 960 C 244.70836 956.06935 246.5158 950.71669 246.39258 943.94336 C 246.03517 924.28352 244.78341 902.30091 242.63867 877.99414 C 269.80503 765.03925 275.08838 732.23093 269.72656 703.27734 C 264.3648 674.32363 270.87828 651.9818 278.02734 636.25391 z M 523.5957 783.26562 L 621.18164 783.26562 L 621.18164 949.48047 L 523.5957 949.48047 L 523.5957 783.26562 z M 19.794922 974 L 645.5625 974 L 645.5625 986 L 19.794922 986 L 19.794922 974 z " />
</svg>
