<?xml version="1.0" encoding="UTF-8" standalone="no"?>
<svg
   width="1100"
   height="1000"
   version="1.1"
   id="svg1"
   sodipodi:docname="13862.svg"
   inkscape:version="1.4.2 (f4327f4, 2025-05-13)"
   xmlns:inkscape="http://www.inkscape.org/namespaces/inkscape"
   xmlns:sodipodi="http://sodipodi.sourceforge.net/DTD/sodipodi-0.dtd"
   xmlns="http://www.w3.org/2000/svg"
   xmlns:svg="http://www.w3.org/2000/svg">
  <defs
     id="defs1" />
  <sodipodi:namedview
     id="namedview1"
     pagecolor="#ffffff"
     bordercolor="#000000"
     borderopacity="0.25"
     inkscape:showpageshadow="2"
     inkscape:pageopacity="0.0"
     inkscape:pagecheckerboard="0"
     inkscape:deskcolor="#d1d1d1"
     inkscape:zoom="0.53386562"
     inkscape:cx="401.7865"
     inkscape:cy="266.9211"
     inkscape:window-width="1680"
     inkscape:window-height="998"
     inkscape:window-x="-8"
     inkscape:window-y="-8"
     inkscape:window-maximized="1"
     inkscape:current-layer="svg1"
     showguides="true">
    <sodipodi:guide
       position="321.37426,514.21046"
       orientation="0,-1"
       id="guide3"
       inkscape:locked="false" />
    <sodipodi:guide
       position="451.23047,867.97967"
       orientation="-0.44754951,-0.89425916"
       id="guide4"
       inkscape:locked="false" />
    <sodipodi:guide
       position="451.23047,982.81055"
       orientation="1,0"
       id="guide6"
       inkscape:locked="false" />
    <sodipodi:guide
       position="405.91232,990.34072"
       orientation="1,0"
       id="guide7"
       inkscape:locked="false" />
    <sodipodi:guide
       position="396.90054,990.34072"
       orientation="1,0"
       id="guide8"
       inkscape:locked="false" />
    <sodipodi:guide
       position="407.90224,911.10059"
       orientation="-0.97521121,0.22127604"
       id="guide9"
       inkscape:locked="false" />
  </sodipodi:namedview>
  <path
     id="path2"
     style="fill:#000000;stroke:none;stroke-width:1px;stroke-linecap:butt;stroke-linejoin:miter;stroke-opacity:1"
     d="M 421.36523 0.03515625 C 406.41324 0.57887993 396.90039 10.612698 396.90039 24.898438 C 396.90039 40.830027 403.89503 48.724813 416.40039 51.443359 L 399.75977 124.78125 C 409.00286 124.78125 418.20227 127.27068 427.44531 132.16406 L 430.70117 137.05078 C 422.00175 134.33223 412.26094 131.62674 401.38672 128.9082 C 390.51256 126.18966 378.12049 128.56969 364.25586 136.18164 C 350.39127 143.79354 340.65232 146.12126 334.94336 143.13086 C 329.23442 140.14045 325.28222 138.46166 323.10742 137.91797 C 319.30141 136.28685 317.67895 137.91197 318.22266 142.80469 C 323.11607 156.94117 331.61226 164.19265 343.8457 164.73633 C 356.0792 165.27999 365.98185 163.6556 373.59375 159.84961 C 381.20571 156.04361 390.51255 155.44972 401.38672 157.89648 C 410.16338 159.87119 415.61548 161.33774 420.49609 162.78125 L 421.41016 162.76953 C 403.91225 169.35143 392.16501 186.88766 386.16602 215.38281 C 380.98276 222.2939 375.22235 232.08501 368.88672 244.75586 C 366.00687 252.24151 366.29432 256.41783 369.75 257.2832 C 373.20608 258.14856 375.7979 259.44434 377.52539 261.17188 C 369.76352 265.8324 377.88074 268.60789 379.25391 268.95117 C 379.37539 268.82971 379.44585 268.76586 379.46484 268.75977 L 379.4668 268.75977 L 379.46875 268.75977 L 379.46875 268.76172 L 379.46875 268.76367 C 379.44235 268.84658 378.79409 269.63201 377.52539 271.11328 C 375.7979 273.13033 376.23135 274.71354 378.82422 275.86523 C 381.41719 277.01693 382.85629 280.47302 383.14258 286.23242 C 383.43064 291.99214 385.87879 295.16048 390.48633 295.73633 C 395.09367 296.31218 402.29298 296.31218 412.08398 295.73633 L 415.54297 309.55078 C 398.8405 306.67092 380.12269 311.85488 359.38867 325.10156 C 330.01583 368.29698 308.99309 411.78114 296.32227 455.55273 C 269.58414 453.37722 244.91993 452.60157 223.32227 457.20898 C 201.72421 461.81669 181.13466 459.29619 161.55273 452.96094 L 161.55273 239.57422 C 161.55273 199.25834 151.6179 171.7569 131.74805 157.07031 C 111.87819 142.384 91.286673 140.22498 69.976562 150.5918 C 48.666771 160.95861 38.011719 180.54052 38.011719 209.33789 C 42.61945 222.0084 47.515989 222.0084 52.699219 209.33789 C 52.699219 192.63551 60.905862 180.10887 77.320312 171.75781 C 93.734793 163.40647 107.8456 165.85488 119.65234 179.10156 C 131.45908 192.34824 137.36328 212.50502 137.36328 239.57422 L 137.36328 451.23438 C 129.30019 450.65787 118.35604 452.09701 104.5332 455.55273 C 105.10937 461.88797 110.0059 465.05469 119.2207 465.05469 C 119.2207 493.27559 125.2683 506.23502 137.36328 503.93164 L 137.36328 765.69727 C 103.38267 746.11534 60.185901 739.20349 7.7753906 744.96289 C -2.5917493 748.99445 -2.5917493 753.02705 7.7753906 757.05859 C 57.306382 762.24217 90.566629 771.31274 107.55664 784.27148 C 124.54726 797.23024 133.90725 807.74157 135.63477 815.80469 C 136.21062 819.83625 136.78547 826.1716 137.36133 834.81055 C 103.38072 815.22862 60.185941 808.31676 7.7753906 814.07617 C -2.5917394 818.10773 -2.5917394 821.85092 7.7753906 825.30664 C 57.306381 830.49022 90.566639 839.56111 107.55664 852.51953 C 124.54726 865.47829 133.90724 876.27674 135.63477 884.91602 C 136.21062 888.37172 136.49805 925.12762 136.49805 1000 L 161.55078 1000 C 162.12663 925.12762 162.70345 888.37172 163.2793 884.91602 C 165.00716 876.27674 174.36518 865.62364 191.35547 852.95312 C 208.34545 840.28228 241.60571 831.06605 291.13672 825.30664 C 301.50385 821.85092 301.50385 818.10773 291.13672 814.07617 C 238.72618 808.31676 195.5314 815.22862 161.55078 834.81055 C 162.12663 826.1716 162.70345 820.12368 163.2793 816.66797 C 165.00716 808.02903 174.36515 797.23024 191.35547 784.27148 C 208.3454 771.31274 241.60569 762.24217 291.13672 757.05859 C 301.50384 753.02705 301.50384 749.2819 291.13672 745.82617 C 238.72616 739.49093 195.53136 746.11534 161.55078 765.69727 L 161.55078 496.15625 C 169.61389 495.00457 179.98151 491.54846 192.65234 485.78906 C 245.06286 489.24444 284.45816 489.67926 321.375 485.78906 C 344.98855 450.65642 361.97853 418.1167 372.3457 388.16797 C 389.04767 419.26873 397.39844 465.63216 397.39844 527.25781 L 355.06641 741.50781 C 339.51572 832.50667 327.70957 889.52486 319.64648 912.5625 C 311.00744 935.59887 301.50384 948.70041 291.13672 951.86914 C 280.76993 955.03694 263.20491 962.09218 238.43945 973.03516 C 221.16218 976.49087 210.93835 981.96225 207.76953 989.44922 C 204.60208 996.93649 211.65736 1000.3923 228.93555 999.81641 C 250.82124 999.81641 267.09104 998.6647 277.74609 996.36133 C 288.40079 994.05731 302.36817 994.63414 319.64648 998.08984 C 336.92467 1001.5457 345.27505 995.78513 344.69922 980.81055 C 347.0029 952.58934 358.09081 918.46543 377.96094 878.4375 C 397.83052 838.40954 406.90152 808.60539 405.17383 789.02344 C 403.44594 769.44151 409.78095 753.60247 424.17969 741.50781 L 488.97266 741.50781 C 502.2197 832.50635 510.28291 890.96531 513.16211 916.88281 C 514.31417 938.76844 510.85824 953.45413 502.79492 960.94141 C 494.7318 968.429 478.31817 973.32358 453.55273 975.62695 C 438.5782 983.69005 430.80239 989.88333 430.22656 994.20312 C 429.65073 998.52264 434.54728 1000.3942 444.91406 999.81836 C 455.28126 999.81836 467.9515 999.52897 482.92578 998.95312 C 497.90026 998.37728 515.8979 998.37728 536.91992 998.95312 C 557.94174 999.52897 564.997 992.90652 558.08594 979.08398 C 551.17328 937.04027 550.45237 895.86109 555.92383 855.54492 C 561.39499 815.22904 557.79546 777.21595 545.125 741.50781 L 525.25586 610.19336 C 534.46964 576.7889 533.46143 545.68768 522.23047 516.89062 C 510.99961 488.09359 516.32725 443.17089 538.21289 382.12109 C 545.70023 413.79767 557.50627 442.5942 573.63281 468.51172 C 569.02667 489.24566 570.03518 514.29899 576.6582 543.67188 C 583.28212 573.04512 582.41777 595.07545 574.06641 609.76172 C 565.71425 624.44833 564.70584 643.31003 571.04102 666.34766 C 577.3779 666.92351 580.11337 662.60379 579.24805 653.38867 C 578.38513 644.17356 579.97049 636.68682 584.00195 630.92773 C 589.76135 642.44655 592.06572 652.52512 590.91406 661.16406 C 589.762 669.80334 586.59378 678.7305 581.41016 687.94531 C 579.10674 691.40166 578.81934 694.56999 580.54688 697.44922 C 582.27471 700.32844 586.01784 701.48015 591.77734 700.9043 C 602.72026 684.77778 608.19141 669.80299 608.19141 655.98047 C 608.19141 641.58209 607.03975 621.99986 604.73633 597.23438 C 609.34377 537.91242 609.34377 497.30782 604.73633 475.42188 C 601.85663 448.92853 593.79341 410.62832 580.54688 360.52148 C 574.21159 336.33215 559.81308 321.93388 537.35156 317.32617 C 503.94802 314.44663 485.95018 309.55205 483.35742 302.64062 C 480.76436 295.72954 479.1793 287.95373 478.60352 279.31445 C 488.97016 274.70675 499.04878 266.3564 508.83984 254.26172 C 518.6308 242.16706 522.95049 226.03896 521.79883 205.88086 C 521.22255 183.41939 511.28822 169.31019 491.99414 163.55078 C 489.82167 162.90214 487.63085 162.3133 485.42188 161.78516 C 489.50197 160.64297 494.29712 159.4213 501.07422 157.89648 C 511.94839 155.44972 521.25523 156.04361 528.86719 159.84961 C 536.47909 163.6556 546.38173 165.27999 558.61523 164.73633 C 570.84867 164.19265 579.34487 156.94117 584.23828 142.80469 C 584.78199 137.91197 583.15953 136.28685 579.35352 137.91797 C 577.17872 138.46166 573.22652 140.14045 567.51758 143.13086 C 561.80862 146.12126 552.06967 143.79354 538.20508 136.18164 C 524.34045 128.56969 511.94838 126.18966 501.07422 128.9082 C 490.2 131.62674 480.45919 134.33223 471.75977 137.05078 L 475.01562 132.16406 C 484.25866 127.27068 493.45808 124.78125 502.70117 124.78125 L 486.06055 51.443359 C 498.56591 48.724813 505.56055 40.830027 505.56055 24.898438 C 505.56055 10.612698 496.04769 0.57887993 481.0957 0.03515625 C 466.14365 -0.50856739 455.23979 7.016625 451.23047 24.212891 C 447.22115 7.016625 436.31728 -0.50856739 421.36523 0.03515625 z M 426.68359 9.046875 C 440.10664 9.046875 446.22656 23.984875 446.22656 52.257812 L 446.22656 70.578125 C 431.19426 72.989867 419.63867 86.080017 419.63867 101.77148 C 419.63867 108.72382 421.90799 115.16583 425.74219 120.39453 C 419.23332 117.88869 414.37149 116.63867 411.1582 116.63867 L 427.44531 43.246094 C 413.85258 43.246094 405.91211 37.509702 405.91211 26.091797 C 405.91211 14.673891 413.39344 9.046875 426.68359 9.046875 z M 475.77734 9.046875 C 489.06749 9.046875 496.54883 14.673891 496.54883 26.091797 C 496.54883 37.509702 488.60836 43.246094 475.01562 43.246094 L 491.30273 116.63867 C 488.08945 116.63867 483.22762 117.88869 476.71875 120.39453 C 480.55294 115.16583 482.82227 108.72382 482.82227 101.77148 C 482.82227 86.080017 471.26668 72.989867 456.23438 70.578125 L 456.23438 52.257812 C 456.23437 23.984876 462.35429 9.046875 475.77734 9.046875 z M 451.23047 79.322266 C 463.68317 79.322266 473.67969 89.318785 473.67969 101.77148 C 473.67969 114.22419 463.68317 124.22266 451.23047 124.22266 C 438.77776 124.22266 428.78125 114.22419 428.78125 101.77148 C 428.78125 89.318785 438.77776 79.322266 451.23047 79.322266 z M 572.83789 150.08008 C 572.61732 150.26172 572.39504 150.43926 572.17188 150.61328 L 572.48828 150.20117 C 572.60532 150.16172 572.72157 150.12113 572.83789 150.08008 z M 451.60742 171.6543 C 459.38261 171.87064 467.94954 173.05885 477.30859 175.21875 C 496.02709 179.53822 505.96152 190.337 507.11328 207.61523 C 507.68906 224.89347 502.07422 240.01194 490.26758 252.9707 C 478.46084 265.92913 470.54183 269.81605 466.50977 264.63281 C 462.47821 258.87341 465.35738 250.66678 475.14844 240.01172 C 493.81629 219.69696 483.68374 188.51734 447.50391 208.47852 L 447.50391 208.47656 C 441.16871 202.71683 427.34526 198.6862 406.03516 196.38281 C 410.06668 184.86399 418.27531 177.37563 430.6582 173.91992 C 436.84954 172.1927 443.83223 171.43796 451.60742 171.6543 z M 400.85352 205.88867 C 418.70754 205.88867 433.39326 209.92095 444.91211 217.98438 L 444.91211 217.98828 C 444.33623 224.32352 446.78425 224.32352 452.25586 217.98828 C 463.27702 205.22713 479.97854 210.40897 472.12695 227.92383 C 468.38323 236.27486 463.48875 243.33044 457.44141 249.08984 C 451.39287 254.84925 450.38466 260.60777 454.41602 266.36719 C 458.44798 272.12658 460.75029 277.31025 461.32617 281.91797 C 464.78155 315.32243 478.02891 332.02539 501.06641 332.02539 C 524.10441 332.02539 528.42409 353.04613 514.02539 395.08984 C 499.62679 437.13357 494.44265 473.99498 498.47461 505.67188 L 418.13086 523.81445 C 415.25091 457.00522 409.20335 412.6571 399.98828 390.77148 C 390.7732 368.88553 383.71758 353.62336 378.82227 344.98438 C 373.92657 336.34512 382.13356 332.02539 403.44336 332.02539 C 424.75286 332.02539 434.25655 323.67473 431.95312 306.97266 C 429.64941 290.269 421.87364 283.50118 408.62695 286.66992 C 395.38096 289.83772 389.90956 285.94885 392.21289 275.00586 C 399.70117 269.82387 402.14962 266.22602 399.55664 264.20898 C 396.96507 262.19192 392.2142 261.18164 385.30273 261.18164 C 385.87866 257.14947 382.70999 253.98306 375.79883 251.67969 C 381.55824 237.28133 387.31874 226.91369 393.07812 220.57812 C 399.41345 217.69889 405.89215 217.69888 412.51562 220.57812 C 419.13883 223.45798 425.9069 225.18587 432.81836 225.76172 L 431.95312 221.44336 C 427.92151 221.44336 422.59585 219.85821 415.97266 216.68945 C 409.34917 213.52072 402.58108 213.0892 395.66992 215.39258 C 397.97394 211.3604 399.70186 208.19205 400.85352 205.88867 z M 465.37305 214.15234 C 464.12379 214.12516 462.63485 214.37896 460.89648 214.95898 C 452.06993 217.90195 443.98664 231.12608 447.50391 236.98828 L 447.50586 236.99023 C 440.60051 240.44425 438.80675 247.57184 445.34766 249.94922 C 452.47989 252.54219 466.19022 234.39812 469.10547 226.62305 C 471.71552 219.6606 470.78648 214.27012 465.37305 214.15234 z M 463.91797 219.81836 C 465.35784 219.88994 465.93247 220.86256 465.64453 222.73438 C 465.06865 226.478 463.48544 230.0775 460.89258 233.5332 C 458.30022 236.98764 455.85215 239.43574 453.54883 240.87695 C 451.24551 242.31529 451.24551 241.30696 453.54883 237.85156 C 455.85535 234.39649 455.712 233.24478 453.11914 234.39648 C 450.52638 235.54881 449.95118 234.39713 451.39258 230.94141 C 452.83228 227.48636 454.70528 224.6058 457.00781 222.30273 C 460.17405 220.5751 462.47851 219.74679 463.91797 219.81836 z M 404.39062 221.80273 C 401.52896 221.7758 398.90892 222.51942 396.5332 224.03125 L 390.48633 229.21484 L 390.48633 233.5332 L 393.94141 232.66797 C 402.00443 237.27569 410.93166 236.98825 420.72266 231.80469 L 430.22656 233.5332 L 430.22656 229.21289 L 420.72266 228.34961 C 414.60328 224.03037 409.16006 221.84762 404.39062 221.80273 z M 401.7168 224.89453 C 400.56514 227.19855 400.85249 229.50132 402.58008 231.80469 C 400.27596 231.22884 398.26069 230.36653 396.5332 229.21484 L 396.5332 229.21289 C 397.10963 227.48536 398.83745 226.04623 401.7168 224.89453 z M 408.62891 225.75781 L 417.26758 230.94141 C 413.81151 231.51727 410.93223 231.80469 408.62891 231.80469 C 410.93223 230.07651 410.93223 228.06119 408.62891 225.75781 z M 446.64062 241.30859 C 450.09902 243.03612 450.8199 244.61934 448.80273 246.06055 C 446.7857 247.50176 445.48794 247.50176 444.91211 246.06055 C 444.33623 244.61934 444.91318 243.03612 446.64062 241.30859 z M 385.50586 263.64648 C 388.18225 263.56069 390.98003 264.26172 393.85938 264.26172 C 396.73853 264.26172 397.68486 264.9222 396.5332 265.49805 L 383.57617 266.36328 C 381.95231 266.47152 379.82378 263.64648 385.50586 263.64648 z M 396.5332 267.22656 C 396.06035 267.69877 391.44909 271.14921 387.19531 272 C 384.92302 272.45447 382.76397 271.49174 385.30273 268.95312 L 396.5332 267.22656 z M 501.06641 526.39844 C 517.76843 548.86026 518.63268 576.79478 503.6582 610.19922 L 523.52734 722.50781 L 380.98242 722.50781 L 416.4043 547.13281 L 501.06641 526.39844 z " />
</svg>
