<?xml version="1.0" encoding="UTF-8" standalone="no"?>
<svg
   width="1000"
   height="1000"
   id="svg2"
   sodipodi:version="0.32"
   inkscape:version="1.4.3 (0d15f75, 2025-12-25)"
   sodipodi:docname="13866.svg"
   inkscape:output_extension="org.inkscape.output.svg.inkscape"
   version="1.0"
   xmlns:inkscape="http://www.inkscape.org/namespaces/inkscape"
   xmlns:sodipodi="http://sodipodi.sourceforge.net/DTD/sodipodi-0.dtd"
   xmlns="http://www.w3.org/2000/svg"
   xmlns:svg="http://www.w3.org/2000/svg"
   xmlns:rdf="http://www.w3.org/1999/02/22-rdf-syntax-ns#"
   xmlns:cc="http://creativecommons.org/ns#"
   xmlns:dc="http://purl.org/dc/elements/1.1/">
  <metadata
     id="metadata9">
    <rdf:RDF>
      <cc:Work
         rdf:about="">
        <dc:format>image/svg+xml</dc:format>
        <dc:type
           rdf:resource="http://purl.org/dc/dcmitype/StillImage" />
      </cc:Work>
    </rdf:RDF>
  </metadata>
  <defs
     id="defs7" />
  <sodipodi:namedview
     inkscape:window-height="998"
     inkscape:window-width="1680"
     inkscape:pageshadow="2"
     inkscape:pageopacity="0.0"
     guidetolerance="10.0"
     gridtolerance="10.0"
     objecttolerance="10.0"
     borderopacity="1.0"
     bordercolor="#666666"
     pagecolor="#ffffff"
     id="base"
     height="18px"
     width="16.41437px"
     inkscape:zoom="0.3775"
     inkscape:cx="109.93377"
     inkscape:cy="668.87417"
     inkscape:window-x="-8"
     inkscape:window-y="-8"
     inkscape:current-layer="svg2"
     inkscape:showpageshadow="2"
     inkscape:pagecheckerboard="0"
     inkscape:deskcolor="#d1d1d1"
     inkscape:window-maximized="1"
     showguides="true">
    <sodipodi:guide
       position="154.96689,621.19205"
       orientation="1,0"
       id="guide1"
       inkscape:locked="false" />
    <sodipodi:guide
       position="550.22814,944.2698"
       orientation="0,-1"
       id="guide2"
       inkscape:locked="false" />
  </sodipodi:namedview>
  <path
     id="path5"
     style="fill:#000000;stroke:none;stroke-width:1"
     d="M 665.82422 0.0234375 C 640.4452 -0.44362626 625.40534 6.0751335 623.78906 7.6914062 C 593.76459 7.6914062 569.24399 23.704406 550.22852 55.730469 C 467.79664 78.470293 367.2973 126.79816 314.53516 244.88477 C 307.52944 261.89859 307.03025 272.40685 313.03516 276.41016 C 319.04005 280.4134 329.54834 274.90871 344.56055 259.89648 C 449.14281 121.26413 596.09538 108.11915 625.28906 120.2832 C 626.2899 158.31419 612.27949 185.33463 583.25586 201.34766 C 554.23219 217.36071 530.46235 244.38303 511.94727 282.41406 C 493.43223 320.44501 488.17711 398.0101 496.18359 515.10547 L 553.23047 515.10547 L 553.23047 728.2793 L 305.52734 477.57422 C 273.50122 431.53673 236.47171 408.51758 194.4375 408.51758 L 194.4375 377.46289 C 219.07856 353.36947 234.73555 311.90838 236.76367 290.68359 C 239.47281 271.01948 238.5648 251.84003 241.5 233.8418 L 286.72266 215.95703 C 311.7104 206.07547 291.3044 151.08633 264.79688 158.45898 L 234.97656 166.75391 C 229.70512 158.39174 223.38957 150.63846 215.95703 143.98828 C 239.73642 137.79336 238.93094 103.91618 236.58789 98.664062 C 231.40499 88.255989 221.45449 81.438789 155.01953 81.189453 C 155.00163 81.189291 154.9847 81.189453 154.9668 81.189453 C 154.9489 81.189453 154.93196 81.189291 154.91406 81.189453 C 88.479103 81.438789 78.528603 88.255989 73.345703 98.664062 C 71.002653 103.91618 70.197172 137.79336 93.976562 143.98828 C 86.544022 150.63846 80.228471 158.39174 74.957031 166.75391 L 45.136719 158.45898 C 18.629199 151.08633 -1.7748494 206.07547 23.212891 215.95703 L 68.433594 233.8418 C 71.368794 251.84003 70.460782 271.01948 73.169922 290.68359 C 75.222045 312.15953 91.227905 354.35327 116.375 378.31055 L 116.375 408.51758 C 81.073916 434.99321 102.81552 476.20865 129.88672 484.33008 C 144.89893 488.83378 155.9064 502.59458 162.91211 525.61328 C 166.91538 563.6442 184.68135 609.68056 216.20703 663.72461 C 247.73271 717.76859 277.00533 797.33434 304.02734 902.41992 L 200.44336 947.45703 L 206.44922 1000 L 830.95703 1000 L 776.91602 929.44336 C 798.93395 810.34639 810.18737 731.53337 810.69141 693.00195 C 811.19017 654.47054 810.94195 613.68543 809.94141 570.65039 L 857.98047 570.65039 L 857.98047 220.86719 C 856.97963 140.80194 840.46555 87.755565 808.43945 61.734375 C 748.17783 12.771734 698.45438 0.62394804 665.82422 0.0234375 z M 653.8125 28.708984 C 715.27394 34.855208 720.67015 118.63864 670.32617 184.08594 C 645.30579 216.6124 636.54855 245.6374 644.05469 271.1582 C 651.56078 296.67899 644.305 312.44041 622.28711 318.44531 C 600.26915 324.45021 586.25884 315.44142 580.25391 291.42188 C 574.24904 267.40226 585.50603 242.38229 614.0293 216.36133 C 642.55252 190.34014 656.81445 154.81014 656.81445 109.77344 C 674.82916 85.753906 673.82887 58.733486 653.8125 28.708984 z M 616.29297 31.482422 C 634.46356 31.272235 643.07353 44.982263 646.30859 63.988281 C 650.31188 87.507458 629.7926 97.766163 584.75586 94.763672 C 470.9724 116.64513 408.98408 155.87726 364.07617 213.35938 C 339.05581 245.38544 325.0454 260.89725 322.04297 259.89648 C 319.04048 258.89566 331.05022 238.87944 358.07227 199.84766 C 429.07934 97.281634 571.26238 73.959693 575.74805 73.746094 C 581.75289 47.724904 594.01422 33.714831 612.5293 31.712891 C 613.8269 31.572588 615.0816 31.496434 616.29297 31.482422 z M 725.87109 43.720703 C 819.07658 85.145434 836.92598 139.37359 829.45703 355.97656 L 829.45703 536.12305 L 806.93945 536.12305 L 806.93945 352.97461 C 804.93791 320.94856 788.17413 303.43221 756.64844 300.42969 C 725.12276 297.42727 707.35674 320.94557 703.35352 370.98633 L 703.35352 485.08203 L 688.3418 485.08203 L 688.3418 405.51562 C 690.34347 343.4651 686.84136 300.67935 677.83398 277.16016 C 668.82666 253.64101 677.08273 223.1165 702.60352 185.58594 C 728.12433 148.05539 735.87926 100.76722 725.87109 43.720703 z M 612.86914 43.943359 C 603.50999 43.669692 596.64225 50.102577 592.26367 63.238281 C 605.27426 69.243168 615.53102 68.242871 623.03711 60.236328 C 633.02568 50.755584 622.59695 44.425164 612.86914 43.943359 z M 154.9668 105.87305 C 173.85501 105.87305 194.09276 106.90209 213.12109 109.87891 L 210.39844 119.51953 C 208.97791 120.6441 181.79597 120.92892 154.9668 120.86719 C 128.13763 120.92892 100.95569 120.6441 99.535156 119.51953 L 96.8125 109.87891 C 115.84083 106.90209 136.07859 105.87305 154.9668 105.87305 z M 154.9668 145.58203 C 199.78364 145.58203 221.63196 187.72122 223.2207 201.13086 C 221.92531 212.23953 217.28348 223.99652 215.83398 237.76562 C 213.25557 262.25874 214.55599 286.21964 207.72656 307.69922 C 195.5875 336.86652 178.27798 371.00195 154.9668 371.00195 C 131.65562 371.00195 114.34609 336.86652 102.20703 307.69922 C 95.377601 286.21964 96.678019 262.25874 94.099609 237.76562 C 92.650109 223.99652 88.008281 212.23953 86.712891 201.13086 C 88.301631 187.72122 110.14996 145.58203 154.9668 145.58203 z M 42.564453 183.26953 L 63.833984 189.25586 C 62.360524 194.42107 61.915791 199.71389 62.269531 204.95898 L 36.9375 194.87695 C 35.87936 189.41675 38.804113 185.01821 42.564453 183.26953 z M 267.36914 183.26953 C 271.12948 185.01821 274.05423 189.41675 272.99609 194.87695 L 247.66406 204.95898 C 248.0178 199.71389 247.57502 194.42107 246.10156 189.25586 L 267.36914 183.26953 z M 541.2207 285.41797 C 544.22319 313.44083 557.23521 337.95948 580.25391 358.97656 L 556.23242 489.58398 L 527.71094 489.58398 C 519.70444 400.51144 524.20687 332.45632 541.2207 285.41797 z M 750.64062 333.89648 C 759.27269 333.43438 767.9043 341.58331 767.9043 358.97656 L 767.9043 563.14258 C 769.90537 605.17679 769.40667 655.971 766.4043 715.51953 C 763.40185 775.06805 749.89066 850.37696 725.87109 941.45117 L 749.89258 962.46875 L 255.99023 962.46875 L 347.56445 923.4375 C 320.54244 791.32986 286.76545 694.49927 246.23242 632.94922 C 205.69942 571.39909 198.94087 531.36663 225.96289 512.85156 C 252.9849 494.33641 279.50615 504.59511 305.52734 543.62695 L 544.22266 779.32031 L 589.26172 779.32031 L 590.76172 525.61328 C 594.76495 457.55785 603.27065 403.515 616.28125 363.48242 L 653.8125 349.9707 L 653.8125 515.10547 L 733.37695 515.10547 L 733.37695 360.47852 C 733.37695 343.43108 742.00856 334.35859 750.64062 333.89648 z M 170.41992 440.79297 C 199.44355 440.29254 228.4666 449.05175 257.49023 467.06641 C 221.46089 467.06641 198.44173 477.57477 188.43359 498.5918 C 179.42626 480.57723 166.91537 466.56473 150.90234 456.55664 C 134.88926 446.5487 141.39625 441.297 170.41992 440.79297 z " />
</svg>
