<?xml version="1.0" encoding="UTF-8" standalone="no"?>
<svg
   width="800"
   height="1000"
   version="1.1"
   id="svg1"
   sodipodi:docname="13860.svg"
   inkscape:version="1.4.2 (f4327f4, 2025-05-13)"
   xmlns:inkscape="http://www.inkscape.org/namespaces/inkscape"
   xmlns:sodipodi="http://sodipodi.sourceforge.net/DTD/sodipodi-0.dtd"
   xmlns="http://www.w3.org/2000/svg"
   xmlns:svg="http://www.w3.org/2000/svg">
  <defs
     id="defs1" />
  <sodipodi:namedview
     id="namedview1"
     pagecolor="#ffffff"
     bordercolor="#000000"
     borderopacity="0.25"
     inkscape:showpageshadow="2"
     inkscape:pageopacity="0.0"
     inkscape:pagecheckerboard="0"
     inkscape:deskcolor="#d1d1d1"
     inkscape:zoom="0.23096767"
     inkscape:cx="898.39413"
     inkscape:cy="1080.2378"
     inkscape:window-width="1680"
     inkscape:window-height="998"
     inkscape:window-x="-8"
     inkscape:window-y="-8"
     inkscape:window-maximized="1"
     inkscape:current-layer="svg1"
     showguides="true">
    <sodipodi:guide
       position="307.41652,513.04405"
       orientation="1,0"
       id="guide1"
       inkscape:locked="false" />
  </sodipodi:namedview>
  <path
     id="path1"
     style="fill:#000000;stroke:none;stroke-width:55.5866"
     d="M 568.64844 1.6523438 C 551.26066 2.7741377 538.92252 11.468363 531.63086 27.734375 C 521.90866 49.422356 527.14365 66.249041 547.33594 78.214844 L 462.07812 296.96484 C 448.61664 289.48622 457.21852 260.31942 487.88086 209.46484 C 493.86376 196.75117 492.92871 187.21617 485.07617 180.85938 C 477.22359 174.50253 466.56696 170.5758 453.10547 169.08008 C 433.66105 167.58435 423.56426 170.57606 422.81641 178.05469 C 422.06859 184.03758 429.92013 188.15095 446.37305 190.39453 C 434.40725 195.62957 426.92895 212.83146 423.9375 241.99805 C 420.94608 270.41679 421.32123 286.12183 425.06055 289.11328 C 408.60756 292.8526 390.65728 289.4857 371.21289 279.01562 C 389.90943 310.42581 408.98139 325.75762 428.42578 325.00977 C 447.87021 324.2619 460.3969 327.06701 466.00586 333.42383 C 471.61481 339.78065 481.89822 343.33218 496.85547 344.08008 C 481.89822 368.01165 474.79312 382.59508 475.54102 387.83008 C 476.28884 393.06513 469.55701 405.59182 455.34766 425.41016 C 441.13827 445.22851 439.83002 457.00678 451.42188 460.74609 C 463.01372 464.48541 468.06211 482.80894 466.56641 515.71484 L 430.66797 597.60547 C 420.94578 605.83212 411.97257 608.82355 403.74609 606.58008 C 395.5196 604.33648 389.90943 608.44985 386.91797 618.91992 C 415.33672 642.1036 440.39015 635.37178 462.07812 598.72656 L 504.70703 525.81055 C 523.40357 524.31478 532.75195 532.91476 532.75195 551.61133 C 521.59612 582.28987 511.41469 617.60129 502.20898 657.54297 L 362.24023 664.91211 C 352.71673 659.11518 341.70302 653.43289 329.19922 647.86523 L 328.87305 484.89453 C 326.97507 464.6405 321.525 452.54563 312.52539 448.60742 C 289.54006 437.82402 276.84249 424.63491 274.43164 409.04102 C 272.66185 387.62201 282.55043 375.44458 304.09766 372.50977 C 320.79247 370.80963 331.7689 376.881 337.02539 390.72461 C 342.28186 404.56823 348.11613 414.49597 354.5293 420.50781 C 362.56173 427.87697 368.84089 429.74796 373.36719 426.11914 C 366.23219 410.5949 361.85564 402.15422 360.23633 400.79688 C 356.31769 366.76061 336.78953 351.34675 301.65234 354.55469 C 266.38693 358.92763 250.77735 377.54865 254.82422 410.41992 C 257.11242 432.48553 270.81838 449.91189 295.94141 462.69922 C 303.58368 468.25674 307.41037 476.34173 307.42188 486.95508 L 307.41797 638.86133 C 303.73145 637.44121 299.94215 636.0295 296.05273 634.625 L 295.99805 634.88477 L 263.52148 456.25977 L 38.041016 744.56055 C 26.823113 761.01353 23.458174 770.73511 27.945312 773.72656 C 39.163252 780.45726 51.503316 777.09232 64.964844 763.63086 C 61.22553 769.61369 58.793689 775.9704 57.671875 782.70117 C 56.5501 789.43198 58.233527 794.29382 62.720703 797.28516 C 66.45998 800.27683 71.135154 799.90143 76.744141 796.16211 C 82.353094 792.42281 87.026312 787.93631 90.765625 782.70117 C 84.034861 800.64986 85.904924 813.36317 96.375 820.8418 C 100.86218 823.83325 108.34052 817.10338 118.81055 800.65039 L 253.42578 531.41992 L 271.92773 634.50391 C 265.61867 633.2279 263.18969 634.95001 264.64258 639.67188 C 265.92694 643.84607 269.14267 646.50519 274.28711 647.64648 L 274.33594 647.91797 C 262.18288 647.699 258.20434 655.9815 262.40039 672.76562 C 265.07681 683.47129 268.68379 690.85018 273.22266 694.9043 C 272.61104 694.99831 271.99577 695.09771 271.375 695.20117 C 261.65278 700.43622 265.76613 705.2982 283.71484 709.78516 C 259.78307 718.01165 251.74316 731.28478 259.5957 749.60742 C 267.44823 767.92983 277.16987 775.59714 288.76172 772.60547 C 291.02802 772.02063 293.55838 771.35011 296.35352 770.59375 L 300.54102 793.91992 L 324.09766 789.43164 L 319.49414 764.11133 C 326.86097 761.99889 335.12719 759.59563 344.29102 756.90039 C 373.03179 769.21793 426.17312 774.64739 480.25977 773.18945 C 478.24242 786.1208 476.29411 799.38819 474.41797 812.99023 L 269.13086 872.44531 C 230.9899 891.88969 214.72303 917.12978 220.33203 948.16602 C 225.94098 979.20232 245.19956 996.96398 278.10547 1001.4512 L 763.8418 1001.4512 L 763.8418 979.01562 C 719.71796 952.84048 694.2893 929.46856 687.55859 908.90234 C 680.82784 888.33611 663.25277 885.15785 634.83398 899.36719 C 650.5391 828.3204 660.6361 764.75175 665.12305 708.66211 L 699.89844 708.66211 C 713.35996 511.22663 703.2651 398.2996 669.61133 369.88086 C 682.325 365.39369 697.84147 366.51532 716.16406 373.24609 C 734.48669 379.97686 756.36174 370.6285 781.78906 345.20117 C 754.86602 336.97473 737.66612 333.98495 730.1875 336.22852 C 734.67467 333.98495 741.03133 319.02635 749.25781 291.35547 C 756.73649 263.68458 756.3632 244.98783 748.13672 235.26562 C 763.84182 239.75279 772.44166 238.63115 773.9375 231.90039 C 775.43316 225.16962 767.20646 218.81298 749.25781 212.83008 C 736.54414 209.83863 725.13913 209.83863 715.04297 212.83008 C 704.94673 215.82153 700.64674 224.04825 702.14258 237.50977 C 711.8648 295.84299 708.87309 326.13142 693.16797 328.375 L 705.50781 115.23438 C 728.69149 113.73865 740.65862 100.83872 741.40625 76.533203 C 742.15417 52.227685 728.87902 36.147462 701.58203 28.294922 C 674.28504 20.442383 652.78318 33.717496 637.07812 68.119141 L 603.42578 222.92578 L 593.32812 220.68359 L 628.10352 65.875 C 628.85143 29.229768 615.39157 8.289726 587.7207 3.0546875 C 580.80299 1.7459279 574.44436 1.2784124 568.64844 1.6523438 z M 574.95898 25.876953 C 577.95043 25.993808 581.27019 26.612581 584.91602 27.734375 C 599.49934 32.221551 604.9209 46.431715 601.18164 70.363281 L 567.52734 221.80469 C 551.82225 226.29187 541.16564 238.07015 535.55664 257.14062 C 529.94769 276.21112 535.74256 293.22634 552.94336 308.18359 C 532.00324 306.6878 518.91666 307.06109 513.68164 309.30469 C 508.44659 311.54827 500.59308 310.05339 490.12305 304.81836 L 575.38086 66.998047 C 558.92793 59.519422 552.75785 49.98443 556.87109 38.392578 C 559.95601 29.698688 565.98465 25.526389 574.95898 25.876953 z M 686.61328 51.494141 C 688.36608 51.406503 690.17722 51.526324 692.04688 51.853516 C 707.00408 54.471017 714.2943 62.135945 713.92188 74.849609 C 713.54794 87.563219 703.26456 93.54669 683.07227 92.798828 L 665.12305 330.61914 C 655.40084 334.35846 647.92266 333.98327 642.6875 329.49609 C 637.45246 325.00892 626.9824 320.8975 611.27734 317.1582 C 629.97385 314.16675 640.81692 302.57311 643.80859 282.38086 C 646.80011 262.1886 640.8186 245.36191 625.86133 231.90039 L 658.39258 83.824219 C 664.93638 62.884099 674.34366 52.107605 686.61328 51.494141 z M 437.13672 176.19727 C 438.99469 176.12716 441.32638 176.37269 444.13086 176.93359 C 443.38299 179.92504 444.50464 181.79511 447.49609 182.54297 C 451.23539 183.29084 453.4787 181.794 454.22656 178.05469 C 477.41027 183.28973 485.63702 191.51645 478.90625 202.73438 C 459.46186 237.13599 448.99181 260.31936 447.49609 272.28516 C 446.74822 284.25095 446.74822 290.98279 447.49609 292.47852 L 439.64258 292.47852 C 432.91181 290.98279 431.04175 274.52933 434.0332 243.11914 C 437.77252 211.70893 445.2528 196.75232 456.4707 198.24805 L 475.54102 200.49023 L 476.66211 191.51562 C 446.74765 186.28059 431.79102 182.1692 431.79102 179.17773 C 432.25842 177.30808 434.0401 176.31412 437.13672 176.19727 z M 729.69727 220.12305 C 733.95073 220.12305 738.97556 220.6829 744.77148 221.80469 C 744.02327 224.79614 745.51849 226.66619 749.25781 227.41406 C 752.2492 228.16192 754.11956 227.04028 754.86719 224.04883 C 762.34571 225.54455 765.33765 227.78785 763.8418 230.7793 C 763.8418 233.02287 748.88319 231.52801 718.96875 226.29297 L 716.72656 234.14453 L 734.67383 238.63281 C 745.89151 242.37212 747.38856 259.19882 739.16211 289.11328 C 730.18772 319.02776 721.21256 333.98438 712.23828 333.98438 L 707.75195 331.74023 C 709.99552 329.49665 712.61185 322.76677 715.60352 311.54883 C 719.343 300.33093 718.22119 274.90231 712.23828 235.26562 C 711.11648 225.16947 716.93688 220.12305 729.69727 220.12305 z M 588.47266 245.10938 C 590.54096 245.23207 592.72139 245.50315 595.01172 245.92383 C 613.3342 249.28918 620.99949 259.38405 618.00781 276.21094 C 615.01636 293.03784 603.05143 300.70464 582.11133 299.20898 C 564.16268 291.73035 557.24417 280.13871 561.35742 264.43359 C 564.9565 250.69167 573.99453 244.2505 588.47266 245.10938 z M 557.67578 340.57422 C 565.27125 340.48073 573.60406 341.2763 582.67188 342.95898 C 618.94322 349.68975 645.86664 369.32151 663.44141 401.85352 C 681.01613 434.3855 686.81098 529.17559 680.82812 686.22656 L 660.63672 686.22656 L 662.87891 583.02148 C 662.13104 552.35918 650.72797 536.84091 628.66602 536.4668 C 606.60407 536.09287 593.70221 565.82145 589.96289 625.65039 L 572.01367 625.65039 C 572.76152 542.63776 580.05323 493.65251 593.88867 478.69531 C 607.72413 463.73805 617.26095 448.59484 622.49609 433.26367 C 627.73113 417.93251 625.11265 405.40581 614.64258 395.68359 C 604.17249 385.96144 591.08593 384.46458 575.38086 391.19531 C 558.18003 378.48167 536.11638 369.8817 509.19336 365.39453 C 518.72861 349.12854 534.88938 340.85468 557.67578 340.57422 z M 495.73242 386.70898 C 526.39472 388.2047 552.56979 398.29957 574.25781 416.99609 C 585.47575 405.03029 594.63751 403.72204 601.74219 413.07031 C 608.8469 422.41861 603.61188 436.06696 586.03711 454.01562 C 568.46236 471.96429 557.43053 502.25273 552.94336 544.88086 L 542.84766 519.64062 C 539.10834 510.29234 523.03012 506.3656 494.61133 507.86133 C 484.88918 507.86133 480.02734 499.26136 480.02734 482.06055 C 505.45461 482.80837 512.74633 480.00328 501.90234 473.64648 C 491.05835 467.28965 483.39342 465.98144 478.90625 469.7207 C 479.65394 468.97288 480.02734 464.48627 480.02734 456.25977 L 462.07812 447.28516 C 468.80893 433.82366 475.35414 423.72686 481.71094 416.99609 C 488.06776 410.26532 492.74097 400.17047 495.73242 386.70898 z M 511.99805 400.73047 C 503.39763 400.35654 497.6028 404.28328 494.61133 412.50977 C 497.60283 428.96271 514.8027 429.71112 546.21289 414.75391 C 532.00352 405.77956 520.59847 401.1044 511.99805 400.73047 z M 228.74609 539.27148 L 112.08008 772.60547 L 64.964844 740.07227 L 228.74609 539.27148 z M 629.76953 558.29492 C 630.14383 558.27959 630.52259 558.29505 630.9082 558.3418 C 643.24777 559.83753 644.55815 610.69283 634.83594 710.90625 C 631.84453 764.75231 620.62602 833.55584 601.18164 917.31641 L 612.39844 972.2832 L 336.4375 972.2832 C 281.8436 976.77037 253.052 966.86218 250.06055 942.55664 C 247.06909 918.2511 275.86068 898.61931 336.4375 883.66211 L 504.70703 835.42578 C 520.41212 713.52435 536.11718 627.14563 551.82227 576.29102 L 551.82227 649.20703 L 611.27734 649.20703 C 612.00183 589.07425 618.16633 558.77032 629.76953 558.29492 z M 274.79883 647.75391 C 275.49329 647.89116 276.22095 648.00133 276.98242 648.08594 C 276.23927 648.00771 275.52209 647.95668 274.83008 647.93164 L 274.79883 647.75391 z M 367.84766 691.83594 L 491.35547 709.12109 C 490.858 711.71054 490.36563 714.3156 489.875 716.9375 C 453.34538 718.1061 401.69504 720.95719 366.72656 725.49023 C 346.53427 718.75953 331.20246 711.09261 320.73242 702.49219 C 318.89158 700.98002 316.86698 699.65998 314.65625 698.5293 C 339.74324 698.21735 357.47293 695.98563 367.84766 691.83594 z M 658.67383 919.69922 C 664.46973 919.7927 668.11549 923.29907 669.61133 930.2168 C 672.6028 944.05226 686.06454 958.07387 709.99609 972.2832 L 643.80859 972.2832 L 634.83594 929.65625 C 644.93208 922.92546 652.87792 919.60574 658.67383 919.69922 z " />
</svg>
