<?xml version="1.0" encoding="UTF-8" standalone="no"?>
<svg
   width="800"
   height="1000"
   version="1.1"
   id="svg1"
   sodipodi:docname="13875.svg"
   inkscape:version="1.4.3 (0d15f75, 2025-12-25)"
   xmlns:inkscape="http://www.inkscape.org/namespaces/inkscape"
   xmlns:sodipodi="http://sodipodi.sourceforge.net/DTD/sodipodi-0.dtd"
   xmlns="http://www.w3.org/2000/svg"
   xmlns:svg="http://www.w3.org/2000/svg">
  <defs
     id="defs1" />
  <sodipodi:namedview
     id="namedview1"
     pagecolor="#ffffff"
     bordercolor="#000000"
     borderopacity="0.25"
     inkscape:showpageshadow="2"
     inkscape:pageopacity="0.0"
     inkscape:pagecheckerboard="0"
     inkscape:deskcolor="#d1d1d1"
     inkscape:zoom="1.306554"
     inkscape:cx="64.673942"
     inkscape:cy="276.68201"
     inkscape:window-width="1680"
     inkscape:window-height="998"
     inkscape:window-x="-8"
     inkscape:window-y="-8"
     inkscape:window-maximized="1"
     inkscape:current-layer="svg1" />
  <path
     id="path5"
     style="fill:#000000;stroke:none;stroke-width:49.8104"
     d="M 456.22852 0 C 448.73348 0 442.1617 3.378593 437.98633 9.4589844 L 437.2832 10.482422 L 437.2832 105.95117 L 500.50391 105.95117 C 499.34646 106.13873 498.187 106.33839 497.02344 106.55273 C 473.74026 110.84175 458.11571 130.4483 450.15039 165.37305 C 444.63595 172.72563 438.50742 183.14328 431.76758 196.62305 C 428.70405 204.58833 429.01122 209.03016 432.6875 209.94922 C 436.36379 210.86831 439.12085 212.24581 440.95898 214.08398 C 435.07448 218.49733 439.24941 221.46862 442.79688 222.35547 C 443.48131 222.96257 442.79712 222.50979 440.95898 224.6543 C 439.12087 226.79881 439.58068 228.48356 442.33789 229.70898 C 445.09509 230.93442 446.62723 234.61113 446.93359 240.73828 C 447.23995 246.86542 449.84438 250.08246 454.74609 250.38867 C 459.64784 250.69516 467.61176 250.84766 478.64062 250.84766 L 481.39844 264.63281 C 464.24241 262.18192 444.32868 268.00324 421.6582 282.0957 C 391.02244 328.04933 366.20706 372.47125 347.21289 415.36133 C 294.89294 416.92567 263.41196 437.40623 236.83789 425.77734 C 241.32104 426.54271 246.31224 426.92188 251.79883 426.92188 C 259.03545 426.92188 263.87298 426.38808 266.72266 424.90625 C 268.14749 424.16533 269.19024 422.94407 269.20898 421.48242 C 269.22768 420.02122 268.40952 418.70328 267.125 417.33984 C 263.80399 413.81127 259.00135 411.78277 252.92969 411.18555 L 252.91797 411.18555 L 252.9043 411.18359 C 246.73904 410.70935 241.65967 409.66569 237.68359 408.09375 C 233.72693 406.52948 230.88088 404.53775 229.0332 402.19141 C 227.79248 400.08908 227.06836 396.768 227.06836 392.21875 C 227.06836 389.05783 227.48982 384.97986 228.34766 380.02344 C 229.2074 375.05614 230.35615 369.64975 231.79297 363.80664 L 231.79492 363.79688 L 231.79688 363.78906 C 232.47463 360.88447 233.05603 358.07522 233.54102 355.35938 L 233.54492 355.33789 L 233.54688 355.31641 C 233.93884 352.57266 234.13672 349.96625 234.13672 347.49609 C 234.13672 340.47515 232.47981 334.57331 229.10352 329.92773 C 225.72722 325.28216 220.66725 321.94861 214.08008 319.91797 L 214.02344 319.90039 L 213.96484 319.88867 C 211.17288 319.31103 208.28605 318.73369 205.30273 318.15625 C 202.34772 317.56525 199.526 317.26563 196.83789 317.26562 C 187.66378 317.26562 179.83573 319.85999 173.54688 325.05078 L 173.54297 325.05273 L 173.53906 325.05664 C 166.05271 331.34518 162.2793 340.15034 162.2793 351.10352 C 162.2793 355.1369 162.72185 359.26219 163.60352 363.47461 C 165.80351 374.86171 166.89453 384.12482 166.89453 391.20703 C 166.89453 393.92508 166.66111 396.33862 166.20312 398.44531 L 166.18945 398.5 L 166.18359 398.55469 C 165.80147 401.61167 164.08288 403.88003 160.60938 405.65039 C 157.13587 407.42075 151.91028 408.53932 144.99023 408.87109 L 144.98828 408.87109 C 139.4999 409.14102 135.68602 406.99042 132.92773 402.03906 C 130.16944 397.08771 128.68359 389.21951 128.68359 378.51172 C 128.68359 376.99869 128.73089 375.28794 128.82617 373.38086 L 128.82617 373.37891 L 128.82617 373.37695 C 128.92177 371.36677 128.96939 369.40493 128.9707 367.48633 C 130.50429 352.55252 132.9449 338.2945 136.29297 324.71094 C 139.63678 311.14461 144.51009 297.96029 150.91406 285.15234 L 150.92773 285.12305 L 150.94141 285.09375 C 155.56363 274.50116 159.17733 265.6368 161.78711 258.48438 L 161.78906 258.48047 C 164.38832 251.45273 166.45934 245.52783 168.00586 240.69531 L 168.00586 240.69336 C 169.55626 235.94504 170.62876 231.90904 171.2207 228.55469 C 171.89164 225.29584 172.56343 222.03815 173.23438 218.7793 L 173.23828 218.75977 L 173.24023 218.74219 C 174.27991 212.78765 174.72052 208.55162 174.54688 205.71484 L 174.54883 205.62891 C 175.89153 195.65927 172.6889 187.74724 165.17578 182.5293 L 165.14258 182.49414 C 156.04956 172.61892 146.55589 167.65685 136.78711 167.95898 C 127.24598 168.25407 119.37943 170.9864 113.36914 176.19531 C 107.38155 181.38456 104.80449 187.45749 106.04102 193.94922 L 106.05469 194.02148 L 106.07617 194.09375 C 108.13234 200.51928 113.33129 204.48152 121.01953 205.68359 C 128.58163 206.86594 138.64594 205.57326 151.2793 201.98242 C 152.86464 202.89947 154.00683 204.25735 154.69531 206.36328 C 155.43015 208.61101 155.6323 211.65802 155.21875 215.4668 C 154.55515 218.67876 153.56241 222.56225 152.23047 227.12891 L 152.22656 227.14258 L 152.22266 227.15625 C 150.98612 231.81698 149.26695 237.07 147.06641 242.90625 L 147.06445 242.91406 L 147.06055 242.92383 C 144.94977 248.77643 142.59822 254.96718 140.00586 261.49609 C 137.31743 268.12096 134.38818 275.13203 131.21875 282.52734 C 123.97805 297.40517 118.32955 313.24522 114.27539 330.04102 L 114.27539 330.04297 L 114.27344 330.04492 C 110.30922 346.77205 108.32617 363.45991 108.32617 380.09961 L 108.32617 385.61328 L 108.32812 385.64648 C 109.05848 399.18244 112.38227 409.49862 118.47656 416.4707 C 123.30923 421.99943 129.86286 425.33042 137.96094 426.47266 C 134.99592 428.346 133.8144 432.30111 134.41797 438.33789 C 151.57399 450.5922 167.50377 456.7207 182.20898 456.7207 C 197.52683 456.7207 218.36024 455.18866 244.70703 452.125 C 308.42939 457.63942 354.87249 457.63942 377.54297 452.125 C 405.11515 414.74935 424.72168 380.13073 436.36328 348.26953 C 453.51932 381.96885 462.09766 431.5996 462.09766 497.16016 L 417.0625 725.08984 C 400.5192 821.89883 387.95886 882.55783 379.38086 907.06641 C 370.80283 930.96235 360.84695 944.74755 349.51172 948.42383 C 338.17647 952.10011 319.33502 959.75884 292.98828 971.40039 C 275.21954 975.07675 264.49662 980.89799 260.82031 988.86328 C 257.14405 996.82858 264.49744 1000.5053 282.87891 999.89258 C 306.7748 999.89258 324.23674 998.51304 335.26562 995.75586 C 346.29449 992.99857 360.99939 993.61111 379.38086 997.59375 C 397.76231 1001.5764 406.6479 995.6025 406.03516 979.67188 C 408.48604 949.64883 420.27932 913.3454 441.41797 870.76172 C 462.55665 828.17796 472.20727 796.47097 470.36914 775.63867 C 468.53099 754.8064 475.27198 737.95689 490.58984 725.08984 L 559.51953 725.08984 C 574.22468 821.89885 582.80304 884.08795 585.25391 911.66016 C 587.09205 934.94329 583.56795 950.56789 574.68359 958.5332 C 565.79925 966.49854 548.18463 971.70739 521.83789 974.1582 C 506.51998 982.73622 498.40153 989.3226 497.48242 993.91797 C 496.5634 998.51333 501.61773 1000.5053 512.64648 999.89258 C 524.28806 999.89258 537.92069 999.58536 553.54492 998.97266 C 569.16918 998.35989 588.16321 998.35989 610.52734 998.97266 C 632.89141 999.58536 640.39748 992.53919 633.04492 977.83398 C 625.69228 933.10584 624.92726 889.29633 630.74805 846.40625 C 636.56887 803.51617 633.04475 763.0782 620.17773 725.08984 L 598.12109 585.39062 C 608.53739 549.24044 607.61761 515.99932 595.36328 485.66992 C 583.109 455.34053 588.62308 407.70175 611.90625 342.75391 C 619.87153 376.45326 632.43187 407.08994 649.58789 434.66211 C 645.29887 456.71984 647.1382 484.13784 655.10352 516.91797 C 663.06878 549.69824 661.99648 573.13606 651.88672 587.22852 C 641.77689 601.32094 640.09219 620.62026 646.83203 645.12891 C 653.57207 645.74161 656.48172 641.14722 655.5625 631.34375 C 654.64343 621.54035 656.32818 613.57444 660.61719 607.44727 C 666.74423 619.7016 669.19603 630.42452 667.9707 639.61523 C 666.74528 648.80595 663.68102 658.30201 658.7793 668.10547 C 655.71596 671.78166 655.10339 675.15313 656.94141 678.2168 C 658.77954 681.28042 662.76152 682.50518 668.88867 681.89258 C 681.14298 664.73656 687.27148 648.80677 687.27148 634.10156 C 687.27148 618.78371 685.73944 597.95031 682.67578 571.60352 C 688.1902 507.88116 688.1902 464.6861 682.67578 442.01562 C 680.22493 413.83073 671.64659 372.7783 656.94141 318.85938 C 650.20152 293.73802 634.88415 278.72593 610.98828 273.82422 C 575.45081 270.76064 556.45673 265.55179 554.00586 258.19922 C 551.55491 250.84663 549.71557 242.57549 548.49023 233.38477 L 548.49023 232.4668 C 559.51908 228.17781 570.39468 219.59944 581.11719 206.73242 C 591.83962 193.86539 596.58861 176.7087 595.36328 155.26367 C 594.75056 131.36777 584.02762 116.20305 563.19531 109.76953 C 557.98776 108.16132 552.70445 106.88937 547.34375 105.95117 L 611.78906 105.95117 L 611.78906 10.4375 L 611.03711 9.3886719 C 606.70083 3.3485351 600.0966 1.1842379e-15 592.60156 0 C 586.93147 0 581.89732 1.3260852 577.93555 4.25 C 573.97377 7.1739148 571.30894 11.581434 569.93164 16.867188 C 567.65701 25.597074 563.40851 34.731784 557.09766 44.248047 C 551.50207 52.686045 541.08316 57.558958 524.41602 58.359375 C 507.74893 57.558642 497.33004 52.685754 491.73438 44.248047 C 485.42359 34.731769 481.17518 25.597113 478.90039 16.867188 C 477.5231 11.581438 474.85824 7.1739171 470.89648 4.25 C 466.93473 1.3260829 461.89858 0 456.22852 0 z M 456.4707 15.734375 C 458.31279 15.734375 459.5072 16.269764 461.01953 18.072266 C 462.53187 19.874767 464.07508 23.101357 465.23047 27.765625 C 467.93784 38.694936 474.43705 49.059594 484.37891 58.845703 C 494.69617 69.001406 508.33284 74.109375 524.41602 74.109375 C 540.50624 74.109375 554.1507 68.954222 564.46484 58.714844 C 574.39682 48.854846 580.89021 38.502355 583.59961 27.652344 C 584.75121 23.040536 586.30216 19.863827 587.83789 18.082031 C 589.37363 16.300236 590.64061 15.734375 592.60156 15.734375 C 594.21228 15.734375 595.05723 16.289664 596.06445 17.847656 L 596.06445 90.222656 L 453.00781 90.453125 L 453.00781 17.767578 C 453.89414 16.253261 454.65346 15.734375 456.4707 15.734375 z M 519.76953 118.73047 C 528.04119 118.88364 537.15471 120.03323 547.11133 122.17773 C 567.02453 126.46675 577.59484 138.1074 578.82031 157.10156 C 579.43305 175.48304 573.45909 191.56744 560.89844 205.35352 C 548.33775 219.13961 540.21924 223.27616 536.54297 217.76172 C 531.64124 211.63458 534.39826 202.90163 544.81445 191.56641 C 564.67439 169.95403 553.89342 136.78603 515.4043 158.02148 C 508.66443 151.28162 493.95952 146.99245 471.28906 145.1543 C 475.57805 132.89999 484.30907 124.93409 497.48242 121.25781 C 504.06912 119.41966 511.49787 118.57729 519.76953 118.73047 z M 466.69336 155.26367 C 485.07479 155.26367 500.39216 159.24759 512.64648 167.21289 C 512.03379 174.56546 514.63822 174.87074 520.45898 168.13086 C 532.18819 154.54967 549.7544 160.09833 542.05664 178.70117 C 538.38036 187.58552 533.32609 195.08963 526.89258 201.2168 C 520.45906 207.34395 519.23416 213.47245 523.2168 219.59961 C 527.19944 225.72674 529.80376 230.93365 531.0293 235.22266 C 534.70555 271.37286 548.49083 289.44922 572.38672 289.44922 C 597.50806 289.44922 602.25704 311.81278 586.63281 356.54102 C 571.00855 401.2692 565.3399 440.48232 569.62891 474.18164 L 484.15625 493.48242 C 481.09266 421.79477 474.65894 374.31054 464.85547 351.02734 C 455.05202 327.74418 447.54596 311.65978 442.33789 302.77539 C 437.12981 293.89101 445.86078 289.44922 468.53125 289.44922 C 491.20173 289.44922 501.3122 280.41105 498.86133 262.33594 C 496.41046 244.26085 488.29196 237.06198 474.50586 240.73828 C 460.71978 244.41454 454.74584 240.43067 456.58398 228.78906 C 465.16199 223.27463 467.91905 219.44529 464.85547 217.30078 C 461.79191 215.1563 456.89027 214.08398 450.15039 214.08398 C 450.15039 209.79497 446.78091 206.42548 440.04102 203.97461 C 445.55546 188.04401 451.37475 177.01581 457.50195 170.88867 C 464.24182 167.82509 471.13543 167.82509 478.18164 170.88867 C 485.22786 173.95224 492.42672 175.78964 499.7793 176.40234 L 498.86133 171.80664 C 494.57231 171.19394 488.90367 169.20392 481.85742 165.83398 C 474.81121 162.46405 467.61236 162.30948 460.25977 165.37305 C 462.71066 161.08404 464.85523 157.71451 466.69336 155.26367 z M 534.5918 164.05664 C 533.33359 164.02552 531.84348 164.29475 530.10938 164.91406 C 521.16112 168.10988 512.96718 182.25895 515.4043 188.35156 C 509.68096 190.64087 505.79738 198.55929 513.10547 201.2168 C 520.38375 203.86334 535.94882 186.57356 538.83984 177.32227 C 541.1387 169.96597 540.04404 164.19151 534.5918 164.05664 z M 532.86719 170.08398 C 534.39897 170.16057 535.01145 171.19423 534.70508 173.18555 C 534.09239 177.16822 532.40763 180.99756 529.65039 184.67383 C 526.89319 188.35013 524.28872 190.80194 521.83789 192.02734 C 519.38702 193.25277 519.38702 192.18048 521.83789 188.81055 C 524.28872 185.44064 524.28872 184.2157 521.83789 185.13477 C 519.38698 186.05385 518.77454 184.82697 520 181.45703 C 521.22548 178.0871 523.06282 175.17741 525.51367 172.72656 C 528.88361 170.8884 531.3354 170.0074 532.86719 170.08398 z M 469.66602 171.4043 C 466.53542 171.28941 463.70518 172.03615 461.17773 173.64453 L 455.66406 180.07812 L 455.66406 184.67383 L 458.42188 183.75586 C 466.99989 188.04487 476.49596 187.73767 486.91211 182.83594 L 497.94141 184.67383 L 497.02344 180.07812 L 487.83203 179.16016 C 480.93897 174.18183 474.88367 171.59577 469.66602 171.4043 z M 466.69336 175.48438 C 465.46794 177.93525 465.77317 180.38509 467.61133 182.83594 C 465.16047 181.6105 463.01587 180.69083 461.17773 180.07812 C 461.79045 178.23998 463.6298 176.70981 466.69336 175.48438 z M 474.96484 176.40234 L 483.23633 180.99805 C 480.17275 182.22347 477.10851 182.83593 474.04492 182.83594 C 476.49577 180.9978 476.80298 178.8532 474.96484 176.40234 z M 132.52539 176.60156 C 134.78964 176.45595 137.11068 177.01235 138.83008 178.13867 C 140.54947 179.26499 141.68271 180.8787 141.83789 183.12891 L 141.93164 184.48633 L 143.27344 184.26172 C 153.21714 182.60216 159.80882 186.18925 163.6543 192.44531 C 167.3267 198.41981 168.26096 206.99874 166.4043 215.71484 L 162.1543 214.67578 C 162.5581 209.65662 162.1374 205.47826 160.53711 202.35156 C 158.81091 198.97884 155.75749 196.83589 151.76172 196.10938 L 151.41797 196.04688 L 151.0918 196.17383 C 150.25029 196.50108 141.87116 199.67338 133.04102 200.52148 C 128.62594 200.94554 124.10987 200.77796 120.41211 199.48242 C 117.00626 198.28916 114.34905 196.15795 112.74609 192.58594 C 116.16691 190.3063 119.18211 188.47087 123.45508 187.10352 L 124.37695 186.80859 L 124.31055 185.8418 C 124.09421 182.7057 125.04368 180.56672 126.56445 179.07422 C 128.08523 177.58172 130.26114 176.74718 132.52539 176.60156 z M 132.79688 180.15234 A 5.2766981 5.2766981 0 0 0 127.51953 185.42773 A 5.2766981 5.2766981 0 0 0 132.79688 190.70508 A 5.2766981 5.2766981 0 0 0 138.07422 185.42773 A 5.2766981 5.2766981 0 0 0 132.79688 180.15234 z M 514.48438 192.94531 C 518.16064 194.78346 519.08032 196.46821 517.24219 198 C 515.40406 199.53178 514.02457 199.53178 513.10547 198 C 512.18645 196.46821 512.64625 194.78346 514.48438 192.94531 z M 458.15234 201.51758 C 457.3944 201.52438 456.74931 202.80006 457.04297 203.97461 C 457.53964 205.96139 455.01012 209.99174 451.52734 205.8125 C 446.41531 199.67788 445.64526 205.07768 446.47266 206.73242 C 447.69804 205.50698 449.23018 205.96682 451.06836 208.11133 C 454.93755 212.62541 460.40843 209.75543 459.80078 204.89453 C 459.48624 202.37825 458.78036 201.51194 458.15234 201.51758 z M 449.50781 216.26758 C 449.76838 216.27161 450.04721 216.28838 450.3418 216.31641 C 453.06844 216.57578 456.78538 217.18289 459.80859 217.73633 C 461.49911 218.04581 462.71038 218.06696 462.09766 218.67969 L 447.39258 218.67969 C 445.46188 218.67969 445.59928 216.20716 449.50781 216.26758 z M 461.17773 219.59961 L 461.17969 219.59961 C 460.02143 221.91615 455.01318 225.11328 451.06836 225.11328 C 447.97116 225.11328 446.65728 223.24353 449.23047 222.35547 L 461.17773 219.59961 z M 199.47461 334.73828 L 199.47852 334.73828 C 205.00003 334.55335 208.91736 335.74304 211.4668 338.12109 C 214.01688 340.49975 215.36523 344.19866 215.36523 349.51562 C 215.36523 351.37732 215.22579 353.54511 214.94141 356.00977 C 214.6624 358.42789 214.09968 361.15751 213.24805 364.18555 L 213.24609 364.19531 L 213.24219 364.20703 C 210.14724 376.00648 208.58594 385.95279 208.58594 394.09375 C 208.58594 402.04628 210.15485 408.50571 213.41016 413.38867 L 213.42773 413.41406 L 213.44727 413.44141 C 213.65178 413.71613 213.86051 413.98584 214.07617 414.25195 C 204.31632 411.58351 192.91942 411.56511 179.88281 414.19727 C 181.3688 412.09911 182.51088 409.7503 183.29688 407.16406 C 184.19335 404.66182 184.78408 401.84482 185.08008 398.71289 L 185.08008 398.71094 C 185.08006 398.70994 185.08013 398.70606 185.08008 398.70508 C 185.08006 398.70412 185.07997 398.7021 185.08008 398.70117 C 185.47032 395.47765 185.66602 392.11325 185.66602 388.60938 C 185.66602 384.40697 185.32408 379.83389 184.64453 374.88281 C 183.96932 369.96342 183.19801 364.99525 182.33008 359.98047 L 182.32227 359.93555 L 182.31055 359.89258 C 181.94342 358.42429 181.71631 356.96003 181.625 355.49805 L 181.62109 355.46484 L 181.61719 355.43164 C 181.42946 353.83576 181.33789 352.39112 181.33789 351.10352 C 181.33789 345.81339 182.8314 341.99355 185.76758 339.32031 C 188.69983 336.65064 193.21995 335.06861 199.47461 334.73828 z M 172.02539 421.29297 C 173.77695 424.41675 178.09018 425.6565 184.9668 425.01172 C 194.7702 424.09265 202.73611 425.7774 208.86328 430.06641 C 196.60895 436.19345 185.88602 438.64525 176.69531 437.41992 C 167.50459 436.1945 158.00854 433.13024 148.20508 428.22852 C 147.61155 427.73393 147.02483 427.30237 146.44727 426.93555 C 156.38695 426.92907 164.38477 425.37501 170.4375 422.16016 C 170.98168 421.88342 171.51128 421.59449 172.02539 421.29297 z M 572.38672 496.24023 C 590.15548 519.52341 591.38039 549.24044 576.0625 585.39062 L 597.20117 704.86914 L 444.63477 704.86914 L 482.31641 518.29688 L 572.38672 496.24023 z " />
</svg>
