<?xml version="1.0" encoding="UTF-8" standalone="no"?>
<svg
   width="800"
   height="1000"
   version="1.1"
   id="svg1"
   sodipodi:docname="13888.svg"
   inkscape:version="1.4.3 (0d15f75, 2025-12-25)"
   xmlns:inkscape="http://www.inkscape.org/namespaces/inkscape"
   xmlns:sodipodi="http://sodipodi.sourceforge.net/DTD/sodipodi-0.dtd"
   xmlns="http://www.w3.org/2000/svg"
   xmlns:svg="http://www.w3.org/2000/svg">
  <defs
     id="defs1" />
  <sodipodi:namedview
     id="namedview1"
     pagecolor="#ffffff"
     bordercolor="#000000"
     borderopacity="0.25"
     inkscape:showpageshadow="2"
     inkscape:pageopacity="0.0"
     inkscape:pagecheckerboard="0"
     inkscape:deskcolor="#d1d1d1"
     inkscape:zoom="0.64640862"
     inkscape:cx="92.04704"
     inkscape:cy="580.90191"
     inkscape:window-width="1680"
     inkscape:window-height="998"
     inkscape:window-x="-8"
     inkscape:window-y="-8"
     inkscape:window-maximized="1"
     inkscape:current-layer="svg1"
     showgrid="false" />
  <path
     id="path1"
     style="fill:#000000;stroke:none;stroke-width:54.9018"
     d="M 335.375 3.5235985e-08 C 339.13711 7.5242545 346.50368 19.280487 357.47656 35.269531 C 368.44944 51.258611 377.07158 73.204946 383.3418 101.10742 C 389.61201 129.00985 397.60733 147.66305 407.32617 157.06836 C 417.04499 166.4737 425.97957 172.74379 434.13086 175.87891 L 422.84375 175.87891 C 417.82756 179.64105 417.82756 183.08953 422.84375 186.22461 L 428.48828 186.22461 L 432.25 205.97656 L 426.60742 205.97656 C 406.54273 214.75488 393.37378 226.04148 387.10352 239.83594 C 380.83331 253.63042 378.63844 263.03657 380.51953 268.05273 C 373.6223 279.96615 370.17383 293.1332 370.17383 307.55469 C 352.61723 328.87344 345.09348 341.09929 347.60156 344.23438 C 351.36368 348.62356 355.12653 351.13276 358.88867 351.75977 L 357.00781 356.46094 C 351.3646 358.96905 351.3646 362.41947 357.00781 366.80859 C 353.87269 374.95988 356.06559 379.3476 363.58984 379.97461 C 363.58984 399.4123 371.42798 409.13086 387.10352 409.13086 L 417.20117 409.13086 C 422.8444 425.43341 428.8001 436.40759 435.07031 442.05078 C 425.03794 455.84524 410.46009 479.20047 391.33594 512.11914 C 372.21177 545.03777 371.11533 573.72386 388.04492 598.17773 C 392.43408 664.64202 382.71547 724.52352 358.88867 777.82031 L 234.73828 597.23828 C 225.23493 575.6039 202.58896 572.83175 180.84766 572.66797 L 176.42773 456.88477 L 215.64062 456.88477 L 232.38867 384.17578 C 232.38867 373.14688 227.48651 362.32274 218.5 354.35742 C 218.90847 352.92774 219.1144 351.4972 218.91016 349.86328 L 226.875 349.86328 L 227.2832 349.86328 C 234.0231 349.86328 231.77646 334.75 227.2832 334.75 L 220.13477 334.75 C 234.83997 303.90992 248.32062 269.59789 249.3418 238.75781 C 249.54605 225.0738 241.37572 213.2265 230.14258 207.50781 C 226.26203 205.66967 221.97374 204.64844 217.48047 204.64844 L 216.25391 204.64844 C 215.23272 204.64844 214.21259 204.85352 213.19141 204.85352 L 213.19141 191.16992 L 122.91797 191.16992 L 122.91797 204.85352 C 122.30527 204.64928 121.48687 204.64844 120.66992 204.64844 L 119.64844 204.64844 C 115.15519 204.64844 110.86687 205.66967 106.98633 207.50781 C 95.753197 213.2265 87.37863 225.0738 87.787109 238.75781 C 88.8083 270.00638 102.28977 303.90992 117.19922 334.75 L 108.00781 334.75 C 103.71878 334.75 101.67557 348.6373 107.80273 349.25 L 117.40234 349.25 C 117.40234 350.67967 117.40207 352.31447 117.81055 353.74414 C 109.43675 361.50521 104.12695 372.7384 104.12695 384.17578 L 118.62891 456.88477 L 158.86328 456.88477 L 153.63086 572.88477 C 121.80144 573.72727 105.88477 579.96355 105.88477 591.5957 C 100.24159 601.00116 103.37759 607.11409 115.29102 609.93555 C 127.2044 612.75716 137.86226 624.20094 147.26758 644.26563 C 208.71569 827.35595 238.50017 925.17054 236.61914 937.71094 C 235.36509 952.13246 226.43052 964.20302 209.81445 973.92188 C 193.19835 983.64069 188.65149 993.20213 196.17578 1002.6074 L 570.50781 1002.6074 C 583.04826 996.33723 583.04826 987.55985 570.50781 976.27344 C 537.90267 936.77105 527.40008 898.67874 539 861.99805 C 550.59991 825.31727 560.79006 743.01985 569.56836 615.10742 L 569.56836 598.17773 L 616.59375 598.17773 L 616.59375 458.03906 C 616.59375 306.92685 593.70815 222.90615 547.93555 205.97656 L 541.35156 205.97656 L 545.11328 186.22461 L 550.75586 186.22461 C 554.51798 183.08953 554.51798 179.64105 550.75586 175.87891 L 540.41016 175.87891 C 547.9344 172.74379 556.71374 166.4737 566.74609 157.06836 C 576.77846 147.66305 584.92901 129.00985 591.19922 101.10742 C 597.46946 73.204946 606.09158 51.258611 617.06445 35.269531 C 628.0373 19.280487 635.09142 7.5242545 638.22656 3.5235985e-08 C 629.44821 2.5080969 617.53485 12.226669 602.48633 29.15625 C 588.93229 44.404551 576.39438 73.132225 564.875 115.33984 C 565.49461 111.2516 565.80469 106.97759 565.80469 102.51758 C 565.80469 81.198865 559.06499 62.85815 545.58398 47.496094 C 532.10302 32.134072 512.50866 24.453125 486.80078 24.453125 C 461.71993 24.453125 442.28277 32.134072 428.48828 47.496094 C 414.69382 62.85815 407.79492 81.198865 407.79492 102.51758 C 407.79492 105.49324 407.96199 108.38709 408.29297 111.19727 C 396.61392 71.247745 384.22102 43.900238 371.11523 29.15625 C 356.06669 12.226669 344.15327 2.5080969 335.375 3.5235985e-08 z M 486.80078 41.382813 C 506.23847 41.382813 521.44314 47.340483 532.41602 59.253906 C 543.38886 71.167295 548.875 84.961146 548.875 100.63672 C 548.875 118.82031 542.91923 133.5554 531.00586 144.8418 C 519.09244 156.12819 504.3574 161.77148 486.80078 161.77148 C 469.87121 161.77148 455.4486 156.12819 443.53516 144.8418 C 431.62179 133.5554 425.66602 118.82031 425.66602 100.63672 C 425.66602 84.961146 431.15213 71.167295 442.125 59.253906 C 453.09789 47.340483 467.99013 41.382813 486.80078 41.382813 z M 438.83398 186.22461 L 535.70898 186.22461 L 531.00586 205.97656 L 442.5957 205.97656 L 438.83398 186.22461 z M 130.67773 199.54297 L 205.42969 199.54297 L 205.42969 203.01563 L 130.67773 203.01563 L 130.67773 199.54297 z M 138.43945 210.57227 L 197.66797 210.57227 C 195.42133 213.22737 193.58285 216.08623 192.35742 218.53711 C 191.7447 219.76253 191.13309 220.98941 190.72461 222.21484 L 146.4043 222.21484 C 145.79159 220.58093 144.97516 218.9464 144.1582 217.3125 L 143.75 217.10742 L 143.54492 216.69922 C 142.72796 215.67802 142.11578 214.86186 141.29883 214.04492 C 140.48187 212.81948 139.46065 211.7977 138.43945 210.57227 z M 120.26172 216.29102 C 124.75498 216.29102 129.45207 218.33321 133.94531 223.84766 C 135.57923 226.91124 136.39676 229.76985 135.98828 232.2207 C 135.78403 234.87582 134.55911 237.531 130.88281 240.79883 C 128.63617 242.63697 125.98018 243.6582 123.5293 243.6582 C 122.71235 243.6582 121.89508 243.45423 121.07812 243.25 C 118.01454 242.43303 115.1554 240.18687 113.52148 233.85547 L 101.88086 236.71484 C 104.33174 246.31406 110.45796 252.64596 117.81055 254.89258 C 119.64871 255.30107 121.48691 255.50586 123.5293 255.50586 C 128.02256 255.50586 132.51594 254.07504 136.39648 251.41992 L 130.47461 334.75 C 114.54396 302.68449 100.65486 269.18968 99.837891 238.34961 C 99.633658 229.97582 105.1485 221.80604 112.29687 218.33398 C 114.74775 217.10855 117.60661 216.29102 120.26172 216.29102 z M 216.86719 216.29102 C 219.52228 216.29102 222.17692 217.10855 224.83203 218.33398 C 231.98039 221.80604 237.49527 229.97582 237.29102 238.34961 C 236.26982 269.18968 222.3807 302.68449 206.6543 334.75 L 206.45117 334.75 L 199.91602 251.01172 C 204.0008 253.87108 208.69787 255.50586 213.59961 255.50586 C 215.43777 255.50586 217.48021 255.30107 219.31836 254.89258 C 226.46672 252.64596 232.79829 246.31406 235.04492 236.71484 L 223.40234 233.85547 C 221.97267 240.18687 218.91012 242.43303 216.05078 243.25 C 215.23383 243.45423 214.41657 243.6582 213.59961 243.6582 C 211.14875 243.6582 208.49271 242.63697 206.24609 240.79883 C 202.56978 237.531 201.34402 234.87582 200.93555 232.2207 C 200.73131 229.76985 201.34543 226.91124 203.18359 223.84766 C 207.67684 218.33321 212.16969 216.29102 216.86719 216.29102 z M 429.42773 228.54883 L 531.94531 228.54883 C 560.78828 228.54883 580.53985 280.9065 591.19922 385.61914 L 591.19922 572.78516 L 518.7793 572.78516 L 518.7793 321.66211 C 518.7793 293.44612 511.09839 278.5539 495.73633 276.98633 C 480.37431 275.4188 470.81094 271.34353 467.04883 264.75977 C 463.28669 258.17606 442.5959 254.25796 404.97461 253.00391 C 409.9908 239.83643 418.14134 231.68392 429.42773 228.54883 z M 148.03906 229.97461 L 189.08984 229.97461 C 188.88559 231.20004 188.88559 232.42497 189.08984 233.65039 C 189.08984 234.05887 189.29492 234.46846 189.29492 234.87695 L 147.83398 234.87695 L 147.83398 233.65039 C 148.03822 232.42497 148.03906 231.20004 148.03906 229.97461 z M 144.77148 242.63867 L 191.54102 242.63867 L 199.30273 335.1582 L 189.9082 335.1582 L 184.39258 248.56055 L 151.71484 248.56055 L 146.20117 335.1582 L 137.21289 335.1582 L 144.56641 243.04688 C 144.56641 242.84263 144.77148 242.84291 144.77148 242.63867 z M 157.63672 256.73047 L 178.67383 256.73047 L 183.7793 335.1582 L 152.53125 335.1582 L 157.63672 256.73047 z M 406.73828 271.24023 C 435.26775 271.85746 450.35404 286.15782 452 314.13867 L 458.58398 314.13867 C 462.34612 300.9712 467.98941 294.38672 475.51367 294.38672 C 486.17305 294.38672 488.05546 303.79287 481.1582 322.60352 C 474.26097 341.41417 468.30328 350.81836 463.28711 350.81836 C 460.15201 350.81836 458.58398 348.31108 458.58398 343.29492 L 458.58398 333.88867 L 452 333.88867 L 452 344.23438 C 452 353.01268 455.76287 357.40234 463.28711 357.40234 C 468.30328 357.40234 474.8878 350.19102 483.03906 335.76953 C 491.19042 330.12634 494.95134 333.57482 494.32422 346.11523 L 494.32422 409.13086 C 481.7838 427.94153 466.73628 435.15286 449.17969 430.76367 C 441.0284 421.35836 435.38513 408.8181 432.25 393.14258 L 394.62891 393.14258 C 382.0885 395.65068 376.44521 390.32178 377.69922 377.1543 L 396.50977 366.80859 C 396.50977 364.92753 388.98603 361.16468 373.9375 355.52148 L 365.47266 357.40234 L 370.17383 350.81836 C 370.80084 350.19132 369.39005 348.9377 365.94141 347.05664 C 362.49276 345.17556 360.45514 342.98072 359.82812 340.47266 C 359.20115 337.96456 364.84442 329.18719 376.75781 314.13867 C 380.51996 308.49546 382.71478 303.63617 383.3418 299.56055 C 383.96882 295.48489 388.04411 292.03446 395.56836 289.21289 C 403.09261 286.39128 411.24515 286.39128 420.02344 289.21289 C 428.80175 292.03448 436.9523 293.75972 444.47656 294.38672 L 444.47656 289.68359 C 434.44424 287.1755 424.56842 284.04144 414.84961 280.2793 C 405.13073 276.51719 395.25499 277.77083 385.22266 284.04102 C 387.10371 279.65186 389.92534 275.57658 393.6875 271.81445 C 398.31178 271.34419 402.66264 271.15206 406.73828 271.24023 z M 407.74414 292.76367 C 406.95546 292.78817 406.1899 292.85899 405.44531 292.97656 C 399.48864 293.91712 395.41138 296.11192 393.2168 299.56055 C 391.02221 303.00918 388.35775 305.35927 385.22266 306.61328 L 385.22266 309.43555 C 388.98477 310.68958 392.27799 311.78599 395.09961 312.72656 C 397.9212 313.66711 402.30895 313.66711 408.26562 312.72656 C 414.22232 311.78601 420.64961 309.12156 427.54687 304.73242 L 444.47656 304.73242 L 444.47656 299.08984 L 427.54687 299.08984 C 419.86587 294.70063 413.26489 292.59221 407.74414 292.76367 z M 367.35352 340.47266 C 367.35352 346.11584 371.42879 348.9375 379.58008 348.9375 C 384.59623 343.29433 380.52097 340.47266 367.35352 340.47266 z M 128.43164 358.64648 L 203.79492 358.64648 C 206.85849 360.07614 209.51399 361.50559 211.96484 363.34375 L 212.16992 363.54688 C 215.23351 365.99776 217.68418 368.65407 219.72656 371.92188 C 220.74775 374.37275 222.78935 379.06869 222.38086 384.37891 L 207.47266 447.69336 L 176.83594 447.69336 L 179.90039 436.05273 C 186.84452 429.1086 192.15488 424.00136 195.62695 420.5293 C 199.099 417.05724 201.54884 413.99382 202.97852 411.54297 C 204.61244 409.09208 205.83735 406.64144 206.6543 403.98633 C 207.26702 401.53546 207.67578 399.08453 207.67578 396.83789 C 209.10546 397.04213 211.14792 397.24609 213.39453 397.24609 C 217.88781 397.24609 220.13477 393.77505 220.13477 387.03516 C 220.13477 380.09103 217.48013 372.32915 212.16992 363.54688 C 211.96572 363.54688 211.96484 363.34384 211.96484 363.34375 C 208.49278 364.56917 205.83815 366.81447 204 369.67383 C 202.16184 372.32892 201.34486 374.16854 201.14062 374.78125 C 191.13292 367.83713 180.10311 364.36328 167.64453 364.36328 C 155.39019 364.36328 144.36123 367.83713 134.35352 374.78125 C 133.94503 373.35157 132.31137 371.10433 129.65625 368.44922 C 127.2054 365.58988 125.16433 363.95646 123.32617 363.34375 C 118.01596 372.33025 115.15625 380.09103 115.15625 387.03516 C 115.15625 388.46483 115.36022 389.8937 115.56445 391.11914 L 114.54297 386.01367 C 114.54297 379.27378 113.72687 382.74655 116.17773 371.92188 C 117.6074 365.79472 122.30448 361.50582 128.43164 358.64648 z M 167.64453 369.4707 C 181.94126 369.4707 194.39995 374.37231 205.22461 384.17578 C 205.22461 376.82318 207.06365 371.92044 211.14844 369.67383 C 213.80353 375.39252 215.23242 380.90798 215.23242 385.60547 C 215.23242 390.30297 214.21258 392.75391 211.76172 392.75391 C 209.71934 392.75391 207.88084 391.32419 206.45117 388.46484 L 202.16211 390.09766 L 202.97852 396.83789 C 202.97852 406.23289 194.40021 417.67148 177.24414 431.35547 C 175.81446 433.80634 172.54626 434.82617 167.64453 434.82617 C 163.15127 434.82617 160.08899 433.80634 158.45508 431.35547 C 141.09477 417.67148 132.3125 406.23289 132.3125 396.83789 L 133.33398 390.09766 L 129.04492 388.46484 C 127.61526 391.32419 125.9799 392.75391 123.9375 392.75391 C 121.48663 392.75391 120.26172 390.30213 120.26172 385.40039 C 120.26172 380.70291 121.6914 375.39252 124.55078 369.67383 C 128.4313 372.12468 130.26953 377.02741 130.26953 384.17578 C 140.88995 374.37231 153.3478 369.4707 167.64453 369.4707 z M 126.79687 375.39258 C 124.14177 376.82224 122.71289 379.27319 122.71289 382.54102 C 122.71289 383.56222 122.71374 384.58427 122.91797 385.60547 C 122.91797 387.03515 123.12082 388.26091 123.5293 389.48633 L 129.04492 384.58398 L 129.04492 383.9707 L 129.04492 383.5625 C 129.04492 382.33705 128.83902 380.90736 128.63477 379.27344 C 128.22629 377.63953 127.61384 376.41377 126.79687 375.39258 z M 179.90039 375.39258 C 178.06223 375.39258 176.83565 375.59738 175.81445 376.00586 C 172.75088 377.02704 170.70843 378.86469 170.0957 381.11133 C 169.07452 382.94948 168.66602 386.42249 168.66602 391.32422 C 168.66602 396.43018 169.68724 400.10605 171.52539 402.14844 C 173.36355 403.98658 174.38477 405.4163 174.38477 406.4375 C 173.77205 406.4375 173.16043 406.23242 172.75195 406.23242 C 172.34346 406.23242 171.7299 406.43723 171.11719 406.8457 C 170.30023 407.25418 170.0957 407.66352 170.0957 408.48047 C 170.0957 409.09318 170.09653 409.50168 170.30078 409.91016 C 169.8923 410.1144 169.4827 410.31836 169.07422 410.31836 L 166.625 410.31836 C 166.21652 410.31836 166.012 410.1144 165.60352 409.91016 L 165.60352 408.88867 C 165.60352 407.86749 165.1939 407.25418 164.37695 406.8457 C 163.96847 406.43723 163.35575 406.23242 162.94727 406.23242 C 162.33457 406.23242 161.7221 406.4375 161.10937 406.4375 C 161.31362 405.4163 162.33457 403.98658 164.37695 402.14844 C 166.21509 400.10605 167.23633 396.43018 167.23633 391.32422 C 167.23633 386.42249 166.62359 382.94948 165.80664 381.11133 C 164.98968 378.86469 162.94862 377.23129 159.47656 376.00586 C 158.65961 375.80163 157.84261 375.80078 156.61719 375.80078 C 155.39175 375.80078 153.96092 376.0067 152.53125 376.21094 C 151.10158 376.61941 149.4679 377.43583 147.83398 378.45703 C 143.7492 381.31638 139.66544 382.54102 136.19336 382.54102 L 136.19336 387.03516 C 138.64423 387.03516 142.31924 385.60431 146.8125 382.94922 C 150.4888 381.11107 153.14537 380.29492 154.7793 380.29492 C 156.61745 380.29492 158.25029 380.49889 159.27148 380.70313 C 162.53931 381.72432 164.37695 384.78857 164.37695 389.89453 C 164.37695 395.409 163.15177 399.08568 161.10937 400.92383 C 158.65851 402.96621 157.63672 405.21208 157.63672 407.86719 C 157.63672 409.70534 158.86247 410.93025 161.51758 411.54297 C 164.17269 412.15568 166.21484 412.36133 167.64453 412.36133 C 169.0742 412.36133 171.11834 412.15568 173.77344 411.54297 C 176.63278 410.93025 178.0625 409.70534 178.0625 407.86719 C 178.0625 405.21208 176.83646 402.96621 174.58984 400.92383 C 172.54745 399.08568 171.52539 395.409 171.52539 389.89453 C 171.52539 384.78857 173.15991 381.72432 176.42773 380.70313 C 177.44892 380.49889 178.87866 380.29492 180.7168 380.29492 C 182.55495 380.29492 185.00647 381.11107 188.47852 382.94922 C 193.38026 385.60431 197.055 387.03516 199.50586 387.03516 L 199.50586 382.54102 C 196.03379 382.54102 191.94918 381.31638 187.66016 378.45703 C 184.59657 376.41465 182.14701 375.39258 179.90039 375.39258 z M 208.90234 375.39258 C 207.88116 376.41377 207.26785 377.63953 206.85937 379.27344 C 206.65513 380.90736 206.45117 382.13225 206.45117 382.94922 L 206.45117 384.58398 L 211.76172 389.48633 C 212.1702 388.26091 212.57701 387.03515 212.78125 385.60547 C 212.98549 384.58427 212.98633 383.56222 212.98633 382.54102 C 212.98633 379.27319 211.55744 376.82224 208.90234 375.39258 z M 154.7793 384.17578 C 152.32843 384.17578 150.28459 384.99219 148.24219 386.42188 C 145.99556 387.64731 142.11629 388.46458 136.19336 388.87305 L 136.19336 391.73242 C 137.41881 391.52819 138.84851 391.32339 140.48242 391.11914 C 142.11633 390.91491 143.74889 390.91602 145.38281 390.91602 C 147.62944 392.14144 150.48889 392.95703 153.96094 392.95703 L 154.57422 392.95703 L 156.20703 392.95703 L 156.61719 392.95703 C 158.45533 392.95703 159.88504 392.95675 160.90625 393.36523 L 161.10937 391.73242 C 160.49666 386.62647 158.45559 384.17578 154.7793 384.17578 z M 180.92187 384.17578 C 177.24557 384.17578 175.20172 386.62647 174.38477 391.73242 L 174.99805 393.36523 C 176.01924 392.95675 177.24499 392.95703 178.87891 392.95703 L 179.69531 392.95703 L 181.5332 392.95703 L 182.14648 392.95703 C 185.41432 392.95703 188.06979 392.14144 190.31641 390.91602 C 193.78848 390.91602 196.85075 391.32396 199.50586 391.73242 L 199.50586 388.87305 C 193.58294 388.46458 189.70254 387.64731 187.66016 386.42188 C 185.41354 384.99219 183.1685 384.17578 180.92187 384.17578 z M 115.56445 391.73242 C 116.58565 395.40874 118.62756 397.24609 122.09961 397.24609 C 124.34624 397.24609 126.18446 397.04213 127.81836 396.83789 C 127.81836 401.73963 129.2489 406.84546 132.3125 411.54297 C 133.9464 413.99382 136.39708 417.05724 139.86914 420.5293 C 143.3412 424.00136 148.65157 429.10888 155.5957 435.64453 L 158.45508 447.69336 L 127.41016 447.69336 L 115.56445 391.73242 z M 164.37695 415.42383 C 164.17272 415.42383 163.7648 415.62778 163.56055 415.83203 C 162.33513 416.64898 160.29293 417.05859 157.43359 417.05859 C 156.20816 417.05859 155.5957 417.87391 155.5957 419.50781 C 155.5957 421.75444 156.61694 422.98047 158.45508 422.98047 C 161.72291 426.04404 164.78517 427.67773 167.64453 427.67773 C 170.91234 427.67773 174.18112 426.04404 177.85742 422.98047 C 179.49133 422.57198 180.30859 421.5502 180.30859 419.50781 C 180.30859 417.87391 179.69615 417.05859 178.4707 417.05859 C 175.20288 417.05859 172.95591 416.64898 171.73047 415.83203 C 171.322 415.62778 171.11746 415.42383 170.70898 415.42383 C 169.89202 415.42383 168.86996 416.03627 167.64453 417.26172 C 166.62332 416.03627 165.60322 415.42383 164.58203 415.42383 L 164.37695 415.42383 z M 164.78516 418.48828 C 165.80636 419.10099 166.62332 419.50781 167.64453 419.50781 C 168.66572 419.50781 169.27904 419.30384 169.6875 419.09961 C 169.89175 418.89536 170.50446 418.69251 171.11719 418.48828 C 171.7299 418.89674 172.9551 419.09961 174.38477 419.09961 C 173.15934 419.50808 171.93525 419.71373 170.91406 419.91797 C 169.89287 419.91797 168.66572 420.12109 167.64453 420.12109 C 167.03181 420.12109 166.21566 419.91797 164.99023 419.91797 C 163.96904 419.71373 162.53905 419.50808 161.10937 419.09961 C 162.7433 419.09961 164.17246 418.89674 164.78516 418.48828 z M 157.63672 420.12109 L 158.45508 420.32617 L 157.63672 420.32617 L 157.63672 420.12109 z M 178.0625 420.12109 L 177.85742 420.32617 L 177.44922 420.32617 C 177.65345 420.12194 177.85827 420.12109 178.0625 420.12109 z M 160.29297 420.9375 C 161.9269 421.34598 163.35659 421.75473 164.58203 421.95898 C 166.0117 422.16321 167.03181 422.36719 167.64453 422.36719 C 168.66572 422.36719 169.89259 422.16321 171.32227 421.95898 C 172.75194 421.75473 174.18166 421.34598 175.61133 420.9375 C 172.54775 422.57142 169.89115 423.38867 167.64453 423.38867 C 165.60213 423.38867 163.15233 422.57142 160.29297 420.9375 z M 494.32422 436.40625 L 494.32422 598.17773 L 546.05469 598.17773 C 545.42763 636.42604 541.82197 682.9833 535.23828 737.84766 C 528.65452 792.71208 520.34676 838.95488 510.31445 876.57617 C 500.2821 914.19745 507.17904 944.92121 531.00586 968.74805 L 252.60742 968.74805 C 258.87763 961.85082 263.1101 950.40896 265.30469 934.41992 C 267.49924 918.43081 260.44514 890.68396 244.14258 851.18164 L 173.60352 638.62109 C 176.11162 619.81051 190.53228 612.91354 216.86719 617.92969 L 312.80273 761.83203 L 348.54297 806.97656 C 367.98065 819.51703 380.52083 812.93448 386.16406 787.22656 C 408.7368 735.18381 417.51419 668.71789 412.49805 587.83203 C 385.53612 572.78352 401.2124 528.2659 459.52539 454.27734 C 479.59011 453.02333 491.18915 447.06561 494.32422 436.40625 z M 160.73047 588.09766 C 172.6047 587.45103 185.36035 591.12461 198.99805 599.11914 C 176.42528 599.11914 162.00261 605.70367 155.73242 618.87109 C 150.08919 608.21174 143.81911 601.94163 136.92187 600.06055 C 130.02465 598.17947 134.09993 594.88619 149.14844 590.18359 C 152.91057 589.00792 156.77239 588.3132 160.73047 588.09766 z " />
</svg>
