<?xml version="1.0" encoding="UTF-8" standalone="no"?>
<svg
   width="800"
   height="1000"
   version="1.1"
   id="svg1"
   sodipodi:docname="13896.svg"
   inkscape:version="1.4.3 (0d15f75, 2025-12-25)"
   xmlns:inkscape="http://www.inkscape.org/namespaces/inkscape"
   xmlns:sodipodi="http://sodipodi.sourceforge.net/DTD/sodipodi-0.dtd"
   xmlns="http://www.w3.org/2000/svg"
   xmlns:svg="http://www.w3.org/2000/svg">
  <defs
     id="defs1" />
  <sodipodi:namedview
     id="namedview1"
     pagecolor="#ffffff"
     bordercolor="#000000"
     borderopacity="0.25"
     inkscape:showpageshadow="2"
     inkscape:pageopacity="0.0"
     inkscape:pagecheckerboard="0"
     inkscape:deskcolor="#d1d1d1"
     inkscape:zoom="0.65376808"
     inkscape:cx="500.94217"
     inkscape:cy="505.53096"
     inkscape:window-width="1680"
     inkscape:window-height="998"
     inkscape:window-x="-8"
     inkscape:window-y="-8"
     inkscape:window-maximized="1"
     inkscape:current-layer="svg1"
     showguides="true">
    <sodipodi:guide
       position="110.94998,38"
       orientation="0,1"
       id="guide8"
       inkscape:locked="false"
       inkscape:label=""
       inkscape:color="rgb(0,134,229)" />
    <sodipodi:guide
       position="122.09007,43.08065"
       orientation="1,0"
       id="guide9"
       inkscape:locked="false" />
    <sodipodi:guide
       position="110.94998,43"
       orientation="0,-1"
       id="guide10"
       inkscape:locked="false" />
    <sodipodi:guide
       position="503.54705,860.08759"
       orientation="1,0"
       id="guide1"
       inkscape:locked="false" />
    <sodipodi:guide
       position="585.34449,860.08759"
       orientation="1,0"
       id="guide2"
       inkscape:locked="false" />
  </sodipodi:namedview>
  <path
     id="path1"
     style="fill:#000000;stroke:none;stroke-width:55.4841"
     inkscape:transform-center-x="-268.08034"
     inkscape:transform-center-y="-406.032"
     d="M 560.32031 0.021484375 L 560.32031 53.875 L 535.19922 53.875 L 535.19922 120.47461 L 503.54688 120.47461 L 503.54688 139.91211 C 494.65591 145.83949 488.43143 153.54559 484.875 163.0293 C 481.3186 172.51312 479.24314 178.73751 478.65039 181.70117 C 474.50127 189.99945 472.42773 199.18715 472.42773 209.26367 C 460.57302 223.48934 455.5343 231.78725 457.3125 234.1582 C 459.68346 236.52914 462.35272 238.30672 465.31641 239.49219 L 463.53516 242.1582 C 459.97877 243.93645 459.97877 246.30975 463.53516 249.27344 C 461.16427 254.60807 462.6478 257.57131 467.98242 258.16406 C 467.98242 271.20424 473.31708 277.72266 483.98633 277.72266 L 503.54688 277.72266 C 507.69601 288.98466 512.1409 296.69261 516.88281 300.8418 L 517.77148 300.8418 C 478.65085 300.8418 456.43965 312.99272 443.99219 337.29492 C 423.39881 365.22655 404.2918 392.55498 386.39844 425.96875 C 343.9524 422.98479 314.29469 422.38699 264.35156 419.88867 C 252.91603 412.05906 244.32213 407.27039 235.125 404.26953 L 235.125 210.26953 C 248.21912 210.26953 257.40023 201.24749 262.66992 183.20312 C 267.93943 165.15879 276.64131 156.13672 288.77734 156.13672 C 291.97115 153.26239 293.56836 149.58835 293.56836 145.11719 C 293.56836 134.89739 284.70745 127.95214 266.98242 124.2793 C 249.25739 120.60661 235.36291 118.76953 225.30273 118.76953 C 215.24269 118.76953 201.35198 120.60661 183.62695 124.2793 C 165.90194 127.95214 157.03906 134.89739 157.03906 145.11719 C 157.03906 149.58835 158.47523 153.26239 161.34961 156.13672 C 173.80494 156.13672 182.66784 165.15879 187.9375 183.20312 C 193.20705 201.24749 201.59062 210.26953 213.08789 210.26953 L 213.08789 400.10547 C 209.9375 399.81899 206.56864 399.59623 202.91797 399.41211 C 200.40339 404.1706 201.63363 411.128 208.28125 413.02734 C 200.42737 412.818 195.36244 418.43797 197.14062 433.55273 C 198.91881 448.66756 203.92221 457.16211 209.84961 457.16211 C 210.96238 457.19894 212.04067 457.23034 213.08789 457.25586 L 213.08789 907.97852 C 194.869 919.80184 171.58355 924.98506 147.9043 930.32617 C 133.8138 935.02298 125.49093 941.58135 122.9375 950 L 106.62695 950 L 106.62695 1000 L 642.27148 1000 L 642.27148 950 L 624.46289 950 L 624.46289 531.11914 L 625.35352 531.11914 C 625.35352 526.37727 627.42894 524.00781 631.57812 524.00781 C 636.32006 524.00781 638.69141 526.37727 638.69141 531.11914 L 638.69141 604.91602 L 658.25 604.91602 L 658.25 524.00781 C 658.25 511.56034 649.65621 505.33594 632.4668 505.33594 C 614.68482 505.33594 605.79297 511.56034 605.79297 524.00781 L 605.79297 531.11914 L 595.12305 531.11914 C 598.6795 491.40578 601.3488 449.91622 603.12695 406.64648 L 632.4668 406.64648 L 632.4668 348.85156 C 640.17241 341.73875 643.4316 332.40405 642.24609 320.8457 C 641.06058 309.28733 637.80149 303.50977 632.4668 303.50977 C 632.4668 205.70823 616.7587 151.17412 585.34375 139.91211 L 585.34375 0.021484375 L 560.32031 0.021484375 z M 569.32031 9.0214844 L 576.34375 9.0214844 L 576.34375 135.48828 L 512.54688 135.48828 L 512.54688 129.47461 L 544.19922 129.47461 L 544.19922 62.875 L 569.32031 62.875 L 569.32031 9.0214844 z M 225.06445 134.09961 C 245.18467 134.09961 261.3132 137.13314 273.44922 143.20117 C 260.3551 152.14358 252.45096 162.76284 249.73633 175.05859 C 247.02157 187.35424 242.22963 194.46068 235.36328 196.37695 C 228.49691 198.29309 221.71069 198.29309 215.00391 196.37695 C 208.29714 194.46068 203.58574 187.35424 200.87109 175.05859 C 198.15646 162.76284 190.25228 152.14358 177.1582 143.20117 C 188.97475 137.13314 204.9441 134.09961 225.06445 134.09961 z M 514.21484 155.02734 L 574.67383 155.02734 C 594.23418 155.02734 607.86664 190.59232 615.57227 261.7207 L 615.57227 389.75195 L 565.7832 389.75195 L 565.7832 218.1543 C 565.7832 202.1504 559.85481 194.14844 548 194.14844 C 536.73801 194.14844 531.10742 191.48111 531.10742 186.14648 C 531.10742 180.81185 519.55032 176.06908 496.43359 171.91992 C 498.80455 160.65793 504.73104 155.02734 514.21484 155.02734 z M 497.80859 184.04883 C 518.2302 184.63229 528.44141 194.51909 528.44141 213.70898 L 531.99805 213.70898 C 534.96173 204.22518 539.11067 199.48242 544.44531 199.48242 C 550.37266 199.48242 551.40946 206.00276 547.55664 219.04297 C 543.70383 232.08318 539.99982 238.60352 536.44336 238.60352 C 533.47972 238.60352 531.99805 236.824 531.99805 233.26758 L 531.99805 227.04688 L 528.44141 227.04688 L 528.44141 233.26758 C 528.44141 239.78773 531.10874 243.04883 536.44336 243.04883 C 541.77801 243.04883 546.22286 238.01012 549.7793 227.93359 L 549.7793 290.17188 C 545.03737 294.91377 537.3333 295.8016 526.66406 292.83789 C 520.73667 286.31779 516.88368 277.72395 515.10547 267.05469 L 489.32031 267.05469 C 480.42928 268.83289 476.57627 265.27777 477.76172 256.38672 L 490.20898 249.27344 C 490.20898 247.49522 485.17026 244.8279 475.09375 241.27148 L 469.75977 243.04883 L 472.42773 237.71484 L 469.31641 235.9375 C 467.24167 234.75202 466.05597 233.26846 465.75977 231.49023 C 465.46341 229.71204 469.16746 223.48761 476.87305 212.81836 C 479.83692 209.26193 481.46551 206.1517 481.76172 203.48438 C 482.05807 200.81707 484.72737 198.44565 489.76562 196.37109 C 494.80392 194.29651 500.28747 194.29651 506.21484 196.37109 C 512.14219 198.44565 517.77278 199.48242 523.10742 199.48242 L 523.10742 196.81641 C 516.5873 195.03818 509.91804 192.96272 503.10156 190.5918 C 496.28505 188.22084 489.32178 189.11061 482.20898 193.25977 C 483.98719 189.70333 486.06067 186.73814 488.43164 184.36719 C 491.76578 184.07082 494.89121 183.96549 497.80859 184.04883 z M 498.03125 198.4668 C 497.48477 198.4758 496.95224 198.51974 496.43359 198.59375 C 492.28444 199.18649 489.46817 200.6681 487.98633 203.03906 C 486.50453 205.41003 484.57994 207.18953 482.20898 208.375 L 482.20898 210.15234 C 485.17265 210.74506 487.69101 211.48587 489.76562 212.375 C 491.84015 213.26411 494.80345 213.41113 498.65625 212.81836 C 502.50905 212.22564 506.80695 210.15214 511.54883 206.5957 L 523.10742 206.5957 L 523.10742 203.03906 L 511.54883 203.03906 C 507.10332 200.37174 503.15817 198.87054 499.71289 198.53711 C 499.1387 198.48141 498.57769 198.4576 498.03125 198.4668 z M 470.65039 231.49023 C 470.65039 235.04666 473.31579 236.82422 478.65039 236.82422 C 482.20684 233.26778 479.54146 231.49023 470.65039 231.49023 z M 549.7793 305.28711 L 549.7793 363.11133 C 525.97218 394.36539 516.96899 408.78844 495.84766 441.13672 C 495.43567 436.37749 494.96432 431.62345 494.42773 426.87109 C 458.03141 414.23383 487.72113 399.343 492.00391 327.95898 C 492.70905 316.20589 499.10097 311.21472 536.44336 308.84375 L 549.7793 305.28711 z M 469.08398 372.71289 C 459.22251 406.41051 450.83919 423.39555 477.83984 438.98438 C 478.47192 445.70197 479.00852 452.34864 479.43945 459.04297 C 442.70956 480.77452 405.36341 501.3897 367.02539 524.03125 C 344.91781 516.52801 322.72858 520.89326 302.22266 525.36133 C 302.04913 533.24605 305.97867 536.34716 314.30469 538.57812 C 306.7302 542.73167 305.67222 549.72824 311.13672 559.56641 C 316.60118 569.40452 323.37115 575.4069 331.29297 574.50391 C 319.56656 577.91864 307.33828 581.53621 294.60742 585.35547 C 265.56333 597.2102 252.22481 622.40183 254.5957 660.92969 C 248.07561 713.68324 243.63072 777.10523 241.25977 851.19727 C 241.79731 864.78046 240.6897 875.54989 235.125 885.5625 L 235.125 455.77734 C 242.85609 454.02314 250.23572 450.50411 260.79492 443.89453 C 325.99599 454.56375 385.82274 466.37278 408.93945 462.81641 C 432.99192 427.58852 457.2376 395.92574 469.08398 372.71289 z M 574.32812 406.64648 L 586.23438 406.64648 C 584.45613 450.50899 582.38067 482.95982 580.00977 504.00195 C 577.63864 525.04413 577.78581 551.86434 580.45312 584.46484 C 583.12041 617.06535 567.26545 633.36523 532.88672 633.36523 L 346.17383 633.36523 C 328.98445 633.36523 320.39064 642.25695 320.39062 660.03906 L 320.39062 834.30469 L 258.15234 834.30469 C 259.33782 792.22042 264.08057 734.13114 272.37891 660.03906 C 269.41521 628.62401 282.15804 609.06298 310.60938 601.35742 C 383.51601 578.8334 445.75417 563.12736 497.32227 554.23633 C 498.04465 533.44248 498.50026 512.87768 498.24805 492.45703 C 499.65539 491.67215 501.07496 490.87523 502.50977 490.06836 C 531.79552 457.58227 555.43545 434.44163 574.32812 406.64648 z M 480.64453 502.08789 C 480.56135 512.79583 480.20545 524.12916 479.54102 536.45312 C 449.26529 542.24113 406.95063 552.88026 352.5957 568.36719 C 360.63267 564.43508 367.78935 558.8772 374.9082 552.01953 C 416.20108 534.10523 445.06636 521.15962 480.64453 502.08789 z M 594.23633 548.90039 L 605.79297 548.90039 L 605.79297 780.95703 L 505.32422 780.95703 L 505.32422 943.35156 L 339.06055 943.35156 L 339.06055 660.03906 C 339.06055 654.70444 341.43192 652.03713 346.17383 652.03711 L 531.99805 652.03711 C 587.12258 652.03711 607.86932 617.65784 594.23633 548.90039 z M 524.88477 799.62891 L 605.79297 800.51953 L 605.79297 943.35156 L 524.88477 943.35156 L 524.88477 799.62891 z M 298.16211 851.19727 L 320.39062 851.19727 L 320.39062 950 L 294.7168 950 C 297.53555 947.87854 299.27665 945.32152 299.94141 942.33008 C 301.71962 934.32819 300.38692 925.73433 295.94141 916.54688 C 291.49585 907.35947 292.23474 885.87188 298.16211 852.08594 L 298.16211 851.19727 z M 258.15234 852.08594 L 282.1582 852.08594 C 277.4163 887.65016 277.1204 911.80496 281.26953 924.54883 C 285.41869 937.29261 278.89834 943.66406 261.70898 943.66406 L 164.79688 944.55469 C 148.20025 945.14735 151.16349 942.47816 173.6875 936.55078 C 213.0869 927.75157 259.45785 910.0092 258.15234 852.08594 z M 120.62695 964 L 628.27148 964 L 628.27148 986 L 120.62695 986 L 120.62695 964 z " />
</svg>
