<?xml version="1.0" encoding="UTF-8" standalone="no"?>
<svg
   width="800"
   height="1000"
   version="1.1"
   id="svg1"
   sodipodi:docname="13895.svg"
   inkscape:version="1.4.3 (0d15f75, 2025-12-25)"
   xmlns:inkscape="http://www.inkscape.org/namespaces/inkscape"
   xmlns:sodipodi="http://sodipodi.sourceforge.net/DTD/sodipodi-0.dtd"
   xmlns="http://www.w3.org/2000/svg"
   xmlns:svg="http://www.w3.org/2000/svg">
  <defs
     id="defs1" />
  <sodipodi:namedview
     id="namedview1"
     pagecolor="#ffffff"
     bordercolor="#000000"
     borderopacity="0.25"
     inkscape:showpageshadow="2"
     inkscape:pageopacity="0.0"
     inkscape:pagecheckerboard="0"
     inkscape:deskcolor="#d1d1d1"
     inkscape:zoom="0.32688404"
     inkscape:cx="160.60741"
     inkscape:cy="959.05569"
     inkscape:window-width="1680"
     inkscape:window-height="998"
     inkscape:window-x="-8"
     inkscape:window-y="-8"
     inkscape:window-maximized="1"
     inkscape:current-layer="svg1"
     showguides="true">
    <sodipodi:guide
       position="88.777458,38"
       orientation="0,1"
       id="guide7"
       inkscape:locked="false"
       inkscape:label=""
       inkscape:color="rgb(0,134,229)" />
  </sodipodi:namedview>
  <path
     id="path4"
     style="fill:#000000;stroke:none;stroke-width:55.4842"
     d="M 423.7832 0 C 426.69908 5.8318235 432.23979 14.580529 440.4043 26.244141 C 448.56885 37.907753 454.83709 54.235941 459.21094 75.230469 C 463.58482 96.224964 469.56317 110.22249 477.14453 117.2207 C 484.72588 124.21885 491.43185 128.88405 497.26367 131.2168 L 488.51562 131.2168 C 485.01653 133.54954 485.01653 135.88021 488.51562 138.21289 L 492.89062 138.21289 L 496.39062 153.08594 C 487.6429 158.91777 481.51863 166.49725 478.01953 175.82812 C 474.52045 185.15904 472.47967 191.28333 471.89648 194.19922 C 467.81423 202.36374 465.77148 211.40429 465.77148 221.31836 C 454.10787 235.3147 449.15086 243.47784 450.90039 245.81055 C 453.23313 248.14329 455.85949 249.89223 458.77539 251.05859 L 457.02539 253.68359 C 453.52633 255.43317 453.52633 257.76573 457.02539 260.68164 C 454.69271 265.93026 456.14982 268.8465 461.39844 269.42969 C 461.39844 282.25965 466.64727 288.67383 477.14453 288.67383 L 496.39062 288.67383 C 500.47289 299.75428 504.84625 307.33763 509.51172 311.41992 L 510.38672 311.41992 C 471.89678 311.41992 450.04171 323.37473 437.79492 347.28516 C 417.53353 374.76649 398.73575 401.65419 381.13086 434.5293 C 339.36911 431.59344 310.1907 431.00492 261.05273 428.54688 C 249.80155 420.84348 241.34378 416.13217 232.29492 413.17969 L 232.29492 227.30664 C 245.17794 227.30664 254.21176 218.43118 259.39648 200.67773 C 264.58106 182.92428 273.1436 174.04688 285.08398 174.04688 C 288.2263 171.21887 289.79688 167.60612 289.79688 163.20703 C 289.79688 153.15201 281.07795 146.31673 263.63867 142.70312 C 246.1994 139.08963 232.5308 137.2832 222.63281 137.2832 C 212.73496 137.2832 199.06622 139.08963 181.62695 142.70312 C 164.1877 146.31673 155.46875 153.15201 155.46875 163.20703 C 155.46875 167.60612 156.8829 171.21888 159.71094 174.04688 C 171.96546 174.04688 180.68442 182.92428 185.86914 200.67773 C 191.05373 218.43118 199.30135 227.30664 210.61328 227.30664 L 210.61328 409.08398 C 207.51368 408.80212 204.20119 408.58155 200.60938 408.40039 C 198.13533 413.08218 199.34431 419.92816 205.88477 421.79688 C 198.15748 421.59091 193.1743 427.1211 194.92383 441.99219 C 196.67336 456.86335 201.59589 465.2207 207.42773 465.2207 C 208.52257 465.25694 209.58295 465.2874 210.61328 465.3125 L 210.61328 908.76953 C 192.68811 920.40224 169.77798 925.50086 146.48047 930.75586 C 132.68016 935.35595 124.50339 941.77129 121.95117 950 L 103.94922 950 L 103.94922 1000 L 632.42969 1000 L 632.42969 950 L 615.35742 950 L 615.35742 537.98438 L 616.23242 537.98438 C 616.23242 533.31895 618.27515 530.98828 622.35742 530.98828 C 627.02288 530.98828 629.35547 533.31895 629.35547 537.98438 L 629.35547 610.5918 L 648.59961 610.5918 L 648.59961 530.98828 C 648.59961 518.74148 640.14468 512.61719 623.23242 512.61719 C 605.73703 512.61719 596.98828 518.74148 596.98828 530.98828 L 596.98828 537.98438 L 586.49023 537.98438 C 589.98929 498.91125 592.6157 458.08975 594.36523 415.51758 L 623.23242 415.51758 L 623.23242 358.65625 C 630.81382 351.6581 634.0199 342.47358 632.85352 331.10156 C 631.68715 319.72951 628.48108 314.04492 623.23242 314.04492 C 623.23242 217.82008 607.77772 164.16639 576.86914 153.08594 L 580.36914 138.21289 L 584.74219 138.21289 C 587.07492 135.88021 587.07492 133.54954 584.74219 131.2168 L 575.99414 131.2168 C 582.40913 128.88405 589.26105 124.21885 596.55078 117.2207 C 603.84057 110.22249 609.81891 96.224964 614.48438 75.230469 C 619.14983 54.235941 625.564 37.907753 633.72852 26.244141 C 641.89309 14.580529 647.14188 5.8318235 649.47461 0 C 643.05959 2.3327295 634.16501 9.6243154 622.79297 21.871094 C 612.50254 32.953101 603.04854 54.539802 594.42969 86.632812 C 594.96815 83.258424 595.23828 79.749152 595.23828 76.105469 C 595.23828 60.359598 590.13537 46.799763 579.92969 35.427734 C 569.72399 24.055705 555.29068 18.371094 536.62891 18.371094 C 517.96711 18.371094 503.53378 24.055705 493.32812 35.427734 C 483.12246 46.799763 478.01953 60.359598 478.01953 76.105469 C 478.01953 79.732943 478.28617 83.227321 478.82031 86.587891 C 470.2295 54.519722 460.92227 32.947916 450.90039 21.871094 C 439.81995 9.6243154 430.78136 2.3327295 423.7832 0 z M 536.62891 30.617188 C 550.62528 30.617188 561.70467 34.990562 569.86914 43.738281 C 578.0337 52.485998 582.11719 62.983658 582.11719 75.230469 C 582.70038 88.643606 578.47292 99.577068 569.43359 108.0332 C 560.39432 116.4893 549.45891 120.71875 536.62891 120.71875 C 523.79894 120.71875 512.86353 116.4893 503.82422 108.0332 C 494.78493 99.577068 490.55748 88.643606 491.14062 75.230469 C 491.14062 62.983658 495.22217 52.485998 503.38672 43.738281 C 511.55125 34.990562 522.63256 30.617187 536.62891 30.617188 z M 500.76367 138.21289 L 572.49414 138.21289 L 569.86914 153.08594 L 503.38672 153.08594 L 500.76367 138.21289 z M 222.39648 152.36523 C 242.19233 152.36523 258.06157 155.35012 270.00195 161.32031 C 257.11894 170.11853 249.3408 180.56652 246.66992 192.66406 C 243.99893 204.76147 239.28692 211.75329 232.53125 213.63867 C 225.77557 215.52393 219.09865 215.52393 212.5 213.63867 C 205.90134 211.75329 201.26656 204.76147 198.5957 192.66406 C 195.92483 180.56652 188.14666 170.11853 175.26367 161.32031 C 186.88971 155.35012 202.6005 152.36523 222.39648 152.36523 z M 506.88672 167.95703 L 566.37109 167.95703 C 585.61609 167.95703 599.02805 202.94798 606.60938 272.92969 L 606.60938 398.89648 L 557.62305 398.89648 L 557.62305 230.06641 C 557.62305 214.32051 551.79059 206.44727 540.12695 206.44727 C 529.0465 206.44727 523.50781 203.82285 523.50781 198.57422 C 523.50781 193.3256 512.13468 188.65844 489.39062 184.57617 C 491.72336 173.49573 497.55581 167.95703 506.88672 167.95703 z M 490.74414 196.50977 C 510.83655 197.08383 520.88281 206.81089 520.88281 225.69141 L 524.38281 225.69141 C 527.29871 216.3605 531.38028 211.69531 536.62891 211.69531 C 542.46072 211.69531 543.4821 218.10947 539.69141 230.93945 C 535.90074 243.76945 532.25497 250.18555 528.75586 250.18555 C 525.83998 250.18555 524.38281 248.43465 524.38281 244.93555 L 524.38281 238.81445 L 520.88281 238.81445 L 520.88281 244.93555 C 520.88281 251.35059 523.50724 254.55859 528.75586 254.55859 C 534.0045 254.55859 538.37981 249.60158 541.87891 239.6875 L 541.87891 300.92188 C 537.21344 305.58733 529.63201 306.46085 519.13477 303.54492 C 513.30295 297.12993 509.51125 288.67499 507.76172 278.17773 L 482.39258 278.17773 C 473.64489 279.92726 469.85319 276.42936 471.01953 267.68164 L 483.26758 260.68164 C 483.26758 258.93208 478.31054 256.30962 468.39648 252.81055 L 463.14844 254.55859 L 465.77148 249.31055 L 462.71094 247.5625 C 460.66964 246.39613 459.50237 244.93706 459.21094 243.1875 C 458.91937 241.43797 462.56513 235.31366 470.14648 224.81641 C 473.06258 221.31732 474.66559 218.25517 474.95703 215.63086 C 475.2486 213.00655 477.87304 210.67587 482.83008 208.63477 C 487.78714 206.59362 493.18186 206.59362 499.01367 208.63477 C 504.84547 210.67587 510.38614 211.69531 515.63477 211.69531 L 515.63477 209.07031 C 509.21977 207.32075 502.65775 205.27997 495.95117 202.94727 C 489.24456 200.61453 482.39268 201.49 475.39453 205.57227 C 477.14406 202.07317 479.18679 199.15694 481.51953 196.82422 C 484.79991 196.53262 487.8738 196.42777 490.74414 196.50977 z M 490.96484 210.69531 C 490.42719 210.70431 489.90092 210.74752 489.39062 210.82031 C 485.30836 211.40349 482.53803 212.86258 481.08008 215.19531 C 479.62215 217.52805 477.72726 219.27698 475.39453 220.44336 L 475.39453 222.19141 C 478.31042 222.77458 480.78893 223.50412 482.83008 224.37891 C 484.87118 225.25369 487.78744 225.39963 491.57812 224.81641 C 495.36883 224.23325 499.59824 222.19245 504.26367 218.69336 L 515.63477 218.69336 L 515.63477 215.19531 L 504.26367 215.19531 C 499.88983 212.57099 496.00694 211.09367 492.61719 210.76562 C 492.05224 210.71093 491.50247 210.68631 490.96484 210.69531 z M 464.02344 243.1875 C 464.02344 246.68659 466.64787 248.43555 471.89648 248.43555 C 475.39559 244.93645 472.77117 243.1875 464.02344 243.1875 z M 541.87891 315.79297 L 541.87891 372.68555 C 518.45562 403.43575 509.59528 417.62635 488.81445 449.45312 C 488.40911 444.77062 487.94591 440.09176 487.41797 435.41602 C 451.60842 422.98249 480.81947 408.33282 485.0332 338.09961 C 485.72697 326.536 492.01547 321.62572 528.75586 319.29297 L 541.87891 315.79297 z M 462.48242 382.13281 C 452.77994 415.28718 444.5323 431.99842 471.09766 447.33594 C 471.71954 453.94523 472.24789 460.4839 472.67188 467.07031 C 436.53412 488.45153 399.78832 508.73519 362.06836 531.01172 C 340.31718 523.62945 318.4859 527.92427 298.31055 532.32031 C 298.13983 540.07792 302.00546 543.12922 310.19727 545.32422 C 302.74488 549.4108 301.70563 556.2931 307.08203 565.97266 C 312.4584 575.65218 319.11801 581.55834 326.91211 580.66992 C 315.37476 584.02961 303.34397 587.58997 290.81836 591.34766 C 262.2425 603.01128 249.12044 627.79444 251.45312 665.70117 C 245.03814 717.60427 240.66475 780.00477 238.33203 852.90234 C 238.8609 866.26658 237.76993 876.86364 232.29492 886.71484 L 232.29492 463.85742 C 239.90138 462.1315 247.16375 458.66904 257.55273 452.16602 C 321.70265 462.66324 380.56259 474.28225 403.30664 470.7832 C 426.97135 436.12323 450.82703 404.97143 462.48242 382.13281 z M 566.03125 415.51758 L 577.74414 415.51758 C 575.99458 458.67297 573.95382 490.60179 571.62109 511.30469 C 569.28817 532.00765 569.43231 558.39577 572.05664 590.4707 C 574.68096 622.54565 559.08234 638.58398 525.25781 638.58398 L 341.55469 638.58398 C 324.64242 638.58398 316.18752 647.33073 316.1875 664.82617 L 316.1875 836.2832 L 254.95312 836.2832 C 256.11948 794.87739 260.78467 737.72377 268.94922 664.82617 C 266.0333 633.91758 278.57178 614.67315 306.56445 607.0918 C 378.29573 584.93091 439.53084 569.47622 490.26758 560.72852 C 490.97832 540.2699 491.42393 520.03675 491.17578 499.94531 C 492.56044 499.17308 493.95747 498.39152 495.36914 497.59766 C 524.18274 465.6353 547.44311 442.86465 566.03125 415.51758 z M 473.85742 509.42188 C 473.77558 519.95719 473.42521 531.10714 472.77148 543.23242 C 442.98384 548.92712 401.34975 559.3936 347.87109 574.63086 C 355.77849 570.76214 362.82208 565.29594 369.82617 558.54883 C 410.45335 540.92332 438.85283 528.18614 473.85742 509.42188 z M 585.61719 555.48047 L 596.98828 555.48047 L 596.98828 783.79492 L 498.13867 783.79492 L 498.13867 943.62891 L 334.55664 943.62891 L 334.55664 664.82617 C 334.55664 659.57755 336.88924 656.9551 341.55469 656.95508 L 524.38281 656.95508 C 578.61861 656.95508 599.03032 623.12945 585.61719 555.48047 z M 517.38281 802.16602 L 596.98828 803.04297 L 596.98828 943.62891 L 517.38281 943.62891 L 517.38281 802.16602 z M 294.31641 852.90234 L 316.1875 852.90234 L 316.1875 950 L 291.07422 950 C 293.76037 947.93513 295.42411 945.45677 296.06641 942.56641 C 297.81594 934.69351 296.5047 926.23857 292.13086 917.19922 C 287.75698 908.15992 288.48459 887.01861 294.31641 853.77734 L 294.31641 852.90234 z M 254.95312 853.77734 L 278.57227 853.77734 C 273.90682 888.7682 273.61306 912.53386 277.69531 925.07227 C 281.77758 937.6106 275.3634 943.87891 258.45117 943.87891 L 163.10156 944.75586 C 146.7725 945.33898 149.68872 942.71269 171.84961 936.88086 C 184.6691 934.01784 198.23815 930.19213 210.61328 924.29297 L 210.61328 924.60938 L 211.24023 923.99219 C 235.99405 912.01149 255.80562 891.60129 254.95312 853.77734 z M 117.94922 964 L 618.42969 964 L 618.42969 986 L 117.94922 986 L 117.94922 964 z " />
</svg>
