<?xml version="1.0" encoding="UTF-8" standalone="no"?>
<svg
   width="1000"
   height="1000"
   version="1.1"
   id="svg1"
   sodipodi:docname="1389B.svg"
   inkscape:version="1.4.3 (0d15f75, 2025-12-25)"
   xmlns:inkscape="http://www.inkscape.org/namespaces/inkscape"
   xmlns:sodipodi="http://sodipodi.sourceforge.net/DTD/sodipodi-0.dtd"
   xmlns="http://www.w3.org/2000/svg"
   xmlns:svg="http://www.w3.org/2000/svg">
  <defs
     id="defs1" />
  <sodipodi:namedview
     id="namedview1"
     pagecolor="#ffffff"
     bordercolor="#666666"
     borderopacity="1.0"
     inkscape:showpageshadow="2"
     inkscape:pageopacity="0.0"
     inkscape:pagecheckerboard="0"
     inkscape:deskcolor="#d1d1d1"
     inkscape:zoom="0.755"
     inkscape:cx="559.60265"
     inkscape:cy="677.48344"
     inkscape:window-width="1680"
     inkscape:window-height="998"
     inkscape:window-x="-8"
     inkscape:window-y="-8"
     inkscape:window-maximized="1"
     inkscape:current-layer="svg1"
     showguides="true">
    <sodipodi:guide
       position="74.481026,50"
       orientation="0,-1"
       id="guide1"
       inkscape:locked="false" />
    <sodipodi:guide
       position="296.50621,31.28601"
       orientation="1,0"
       id="guide2"
       inkscape:locked="false" />
    <sodipodi:guide
       position="97.772268,31.28601"
       orientation="-0.99822529,0.059550588"
       id="guide3"
       inkscape:locked="false" />
    <sodipodi:guide
       position="87.100418,43"
       orientation="0,-1"
       id="guide4"
       inkscape:locked="false" />
    <sodipodi:guide
       position="238.38591,57.25826"
       orientation="0,-1"
       id="guide5"
       inkscape:locked="false" />
  </sodipodi:namedview>
  <path
     id="path1"
     style="fill:#000000;stroke:none;stroke-width:55.6398"
     d="M 411.46875 0 C 413.8452 5.9412247 419.19206 14.853916 427.50977 26.736328 C 435.82747 38.618743 442.36229 55.104025 447.11523 76.195312 C 451.86821 97.2866 457.95827 111.39789 465.38477 118.52734 C 472.81128 125.65678 479.79084 130.70712 486.32617 133.67773 L 477.41602 133.67773 C 473.85132 136.0542 473.85132 138.43015 477.41602 140.80664 L 480.98047 140.80664 L 483.88672 153.1543 C 478.7598 154.65548 474.22665 156.48203 470.28711 158.63086 C 464.94003 163.97797 461.22591 170.06804 459.14648 176.90039 C 457.06705 183.73277 455.73084 188.63484 455.13672 191.60547 C 450.97787 199.92314 448.89648 209.13038 448.89648 219.23047 C 437.01407 233.48935 431.96567 241.80715 433.74805 244.18359 C 436.12453 246.56012 438.50047 248.34303 440.87695 249.53125 L 439.98633 252.20508 C 436.42159 253.98746 436.42159 256.3634 439.98633 259.33398 C 437.60981 264.68106 438.79778 267.65002 443.55078 268.24414 C 443.55078 281.90897 449.19611 288.74219 460.48438 288.74219 L 480.08789 288.74219 C 482.46436 294.68338 486.03026 300.92169 490.7832 307.45703 C 461.67128 307.45703 439.98547 318.15072 425.72656 339.53906 C 410.27944 353.20385 387.40562 371.91877 357.10547 395.68359 C 336.90535 396.27771 302.44837 399.2506 253.73047 404.59766 C 241.25393 389.74467 229.37033 378.75251 218.08203 371.62305 C 209.17022 366.87009 204.8631 366.42335 205.16016 370.28516 C 205.45724 374.14692 207.09191 376.67307 210.0625 377.86133 L 140.25195 384.98438 C 139.30235 367.88844 140.7282 350.3171 144.52734 332.27148 C 133.13012 329.4223 121.73123 329.89823 110.33398 333.69727 C 117.93208 350.7932 121.73047 367.41251 121.73047 383.55859 C 68.027706 348.22793 40.468045 358.02013 40.019531 391.74609 C 39.571026 425.47207 68.135601 435.11226 121.73047 400.6582 C 121.73047 417.75415 117.9323 434.37151 110.33398 450.51758 C 120.78138 454.31664 132.17638 453.8426 144.52344 449.09375 C 138.82511 434.84732 136.92816 417.75379 138.82812 397.80859 L 192.86914 402.13086 C 193.25674 405.95297 194.5263 410.33775 196.69336 415.29102 C 210.95225 421.23221 228.18268 425.68761 248.38281 428.6582 C 280.4653 432.81706 323.24197 434.00501 376.71289 432.22266 C 412.95424 406.67543 439.69039 381.12727 456.91992 355.58008 L 437.3125 387.66406 C 440.87721 400.73473 446.81902 410.83538 455.13672 417.96484 L 455.13672 447.37305 C 449.19554 449.74953 437.46018 455.83959 419.93359 465.64258 C 402.40702 475.44557 383.84035 483.31854 364.23438 489.25977 C 342.25191 473.81261 324.13199 466.38441 309.87305 466.97852 C 303.2329 466.53584 301.04704 468.56559 303.3125 473.07031 C 289.70823 472.60947 270.72397 479.19814 246.7207 494.62891 C 246.7207 477.53296 250.52082 460.9117 258.11914 444.76562 C 247.67173 440.96657 236.27478 441.44256 223.92773 446.19141 C 229.62606 460.43783 231.52497 477.53135 229.625 497.47656 L 158.39062 491.7793 L 158.39062 517.42383 L 228.20117 510.30078 C 229.15077 527.3967 227.72297 544.96805 223.92383 563.01367 C 235.32105 565.86285 246.72189 565.38692 258.11914 561.58789 C 250.52104 544.49195 246.7207 527.87263 246.7207 511.72656 C 291.97432 541.49858 318.66439 539.22923 326.21094 517.59766 C 337.95631 516.96607 350.33412 514.64941 363.34375 510.64648 C 398.991 506.48763 430.18446 499.3598 456.91992 489.25977 C 457.51403 490.44799 457.2156 509.75595 456.02734 547.18555 C 415.62712 554.90916 353.54058 571.24616 269.76953 596.19922 C 241.25175 608.08163 228.1821 633.33334 230.55859 671.95117 C 224.02324 724.82793 220.2671 776.68415 217.89062 850.94922 C 217.29651 868.17878 213.13766 883.03324 205.41406 895.50977 C 197.69051 907.98629 170.65783 919.27297 124.31641 929.37305 C 110.00763 934.14262 101.63235 941.01831 99.193359 950 L 80.099609 950 L 80.099609 1000 L 619.14844 1000 L 619.14844 950 L 601.28906 950 L 601.28906 541.83789 C 601.28906 537.08489 603.66504 534.70898 608.41797 534.70898 C 613.17093 534.70898 615.54883 537.08489 615.54883 541.83789 L 615.54883 615.80664 L 634.26367 615.80664 L 634.26367 534.70898 C 634.26367 522.23245 625.94594 515.99414 609.31055 515.99414 C 591.48692 515.99414 582.57618 522.23245 582.57617 534.70898 L 582.57617 541.83789 L 571.88086 541.83789 C 574.8515 502.03175 577.22938 460.44307 579.01172 417.07227 L 609.31055 417.07227 L 609.31055 357.36328 C 617.03412 349.63973 620.15328 339.98575 618.66797 328.40039 C 617.1827 316.81504 614.06352 311.02148 609.31055 311.02148 C 609.31055 246.8564 599.21184 195.76396 579.01172 157.74023 C 576.67498 155.40348 573.04618 153.48367 568.12695 151.98242 L 570.09766 140.80664 L 574.55273 140.80664 C 577.5233 138.43015 577.5233 136.0542 574.55273 133.67773 L 565.64258 133.67773 C 572.17787 130.70712 579.15747 125.65678 586.58398 118.52734 C 594.01048 111.39789 600.10056 97.2866 604.85352 76.195312 C 609.60653 55.104024 616.14328 38.618743 624.46094 26.736328 C 632.77865 14.853916 638.1255 5.9412247 640.50195 0 C 633.96665 1.7823711 625.05392 9.0604041 613.76562 21.833984 C 603.62868 33.304792 594.21138 54.956115 585.51172 86.789062 C 585.93061 83.860546 586.14063 80.775886 586.14062 77.533203 C 586.14062 53.844903 572.08178 18.714844 526.42969 18.714844 C 475.69382 18.714844 466.72266 59.373863 466.72266 77.533203 C 466.72266 80.789064 466.93315 83.885086 467.35547 86.824219 C 458.62598 54.971767 449.05801 33.309077 438.65039 21.833984 C 427.06503 9.0604041 418.00406 1.7823711 411.46875 0 z M 526.42969 31.191406 C 558.78855 31.191406 572.77148 55.523685 572.77148 76.642578 C 572.77148 89.713214 568.31609 100.70341 559.4043 109.61523 C 550.49248 118.52705 539.50036 122.98242 526.42969 122.98242 C 512.7649 122.98242 501.47627 118.52705 492.56445 109.61523 C 483.65266 100.70341 479.19727 89.713214 479.19727 76.642578 C 479.19727 57.00717 491.59889 31.191406 526.42969 31.191406 z M 489 140.80664 L 562.07812 140.80664 L 560.42773 150.1582 C 552.27701 148.67619 541.83499 147.9375 529.10352 147.9375 C 514.24775 147.9375 501.5018 149.08816 490.86719 151.39062 L 489 140.80664 z M 526.87695 163.08594 C 535.64023 163.08594 544.55099 163.6809 553.61133 164.86914 C 571.73203 167.24563 584.35688 203.18903 591.48633 272.70117 L 591.48633 400.14062 L 542.47266 400.14062 L 542.47266 229.0332 C 542.47266 212.39783 536.53089 204.08007 524.64844 204.08008 C 512.76606 204.08006 506.82422 201.40763 506.82422 196.06055 C 506.82422 190.71347 495.23908 185.95964 472.06836 181.80078 C 474.44481 172.88897 484.09878 167.24563 501.03125 164.86914 C 509.49747 163.6809 518.11366 163.08594 526.87695 163.08594 z M 474.12891 194.15234 C 494.14335 195.12708 504.15234 204.97074 504.15234 223.68555 L 508.60742 223.68555 C 511.57801 214.77372 515.73687 210.31836 521.08398 210.31836 C 527.02517 210.31836 528.06489 216.70495 524.20312 229.47852 C 520.34132 242.25215 516.33074 248.64062 512.17188 248.64062 C 509.79539 248.64062 508.60742 246.85767 508.60742 243.29297 L 508.60742 237.05469 L 504.15234 237.05469 L 504.15234 243.29297 C 504.15234 249.82827 506.8248 253.0957 512.17188 253.0957 C 518.1131 253.0957 522.56848 248.04535 525.53906 237.94531 L 525.53906 300.32812 C 520.78609 305.0811 513.35981 305.97258 503.25977 303.00195 C 496.72444 296.46665 492.56559 287.85238 490.7832 277.1582 L 465.83008 277.1582 C 456.91826 278.94056 452.76135 275.37471 453.35547 266.46289 L 466.72266 259.33398 C 466.72266 258.14572 461.67232 255.47132 451.57227 251.3125 L 445.33203 253.0957 L 448.89648 247.74805 L 445.33203 245.9668 C 442.95556 244.77854 441.62129 243.2921 441.32422 241.50977 C 441.02717 239.7274 445.0378 233.48907 453.35547 222.79492 C 455.732 219.23017 457.21643 216.11299 457.81055 213.43945 C 458.40466 210.76591 461.07711 208.38803 465.83008 206.30859 C 470.58305 204.22917 476.08008 204.22917 482.31836 206.30859 C 488.5566 208.38803 494.34824 209.72425 499.69531 210.31836 L 499.69531 206.75391 C 492.56586 204.97155 485.73256 202.89211 479.19727 200.51562 C 472.66193 198.13914 465.83064 199.03059 458.70117 203.18945 C 459.8894 199.6247 461.96881 196.65382 464.93945 194.27734 C 468.20711 194.05455 471.2697 194.01309 474.12891 194.15234 z M 474.56055 208.76562 C 473.73978 208.81432 467.1812 209.67476 464.49219 213.43945 C 463.00687 215.51887 461.07766 217.15162 458.70117 218.33984 L 458.70117 220.12109 C 461.67178 220.71521 464.04771 221.45841 465.83008 222.34961 C 467.61244 223.24078 470.58334 223.38903 474.74219 222.79492 C 478.90101 222.20076 483.35641 220.12134 488.10938 216.55664 L 499.69531 216.55664 L 499.69531 213.88281 L 488.10938 213.88281 C 482.91084 210.24381 478.39449 208.53817 474.56055 208.76562 z M 447.11523 241.50977 C 447.11523 245.07447 449.78962 246.85742 455.13672 246.85742 C 458.10733 243.2927 455.43293 241.50977 447.11523 241.50977 z M 525.53906 315.47656 L 525.53906 380.53516 C 516.03313 397.17055 505.93441 414.69557 495.24023 433.11328 C 485.14017 436.08393 477.41544 438.16334 472.06836 439.35156 L 472.06836 412.61719 C 461.37417 404.89358 456.02734 397.16886 456.02734 389.44531 C 471.4745 366.27458 478.30582 348.30287 476.52344 335.5293 C 474.74106 322.75568 491.08005 316.07067 525.53906 315.47656 z M 66.095703 375.96289 C 77.15681 375.47131 93.485131 382.19766 110.33398 392.10742 C 81.718521 411.17983 52.076172 417.28122 52.076172 392.10742 C 52.076172 381.0939 57.492623 376.34523 66.095703 375.96289 z M 556.73047 416.18164 L 562.07812 417.07227 C 560.29579 461.03722 558.36654 493.71322 556.28711 515.10156 C 554.20768 536.48991 554.50418 563.37628 557.17773 595.75586 C 559.85125 628.13545 543.95706 644.32422 509.49805 644.32422 L 322.34961 644.32422 C 305.12008 644.32422 296.50586 653.53345 296.50586 671.95117 L 296.50586 834.01758 L 234.82227 834.01758 C 236.0105 791.835 240.0651 745.6222 248.38281 671.95117 C 245.41221 639.86868 257.88883 619.96575 285.8125 612.24219 C 359.48347 589.66558 421.86458 573.91959 472.95898 565.00781 C 474.14723 516.88401 474.74219 489.25839 474.74219 482.12891 C 487.21871 477.97005 502.07129 470.54376 519.30078 459.84961 C 531.77734 448.56135 544.25393 434.00528 556.73047 416.18164 z M 300.5293 486.50977 C 303.11871 486.54227 305.46527 486.92811 307.51367 487.70508 C 307.52997 488.28124 307.08171 488.83678 306.75586 489.25977 C 304.54294 492.13227 304.52625 494.75259 306.30859 496.83203 C 308.09096 498.91145 308.53765 500.99089 307.64648 503.07031 C 306.75528 505.14974 307.74238 507.75015 310.32031 511.09375 C 311.18089 512.20992 312.24266 513.31497 313.37695 514.29688 C 305.33599 525.0432 282.26385 517.38053 258.11914 503.17969 C 273.56396 492.8856 289.30849 486.3685 300.5293 486.50977 z M 570.98828 559.66211 L 581.68555 559.66211 L 581.68555 785.00391 L 481.87109 785.00391 L 481.87109 942.74414 L 315.2207 942.74414 L 315.2207 671.95117 C 315.2207 666.00999 317.59663 663.03907 322.34961 663.03906 L 508.60742 663.03906 C 563.86067 663.03906 584.65306 628.5801 570.98828 559.66211 z M 500.58789 803.71875 L 581.68555 804.60938 L 581.68555 942.74414 L 500.58789 942.74219 L 500.58789 803.71875 z M 234.82227 850.94922 L 258.88477 850.94922 C 254.1318 886.5965 253.83337 910.95468 257.99219 924.02539 C 262.15104 937.09599 255.61621 943.33626 238.38672 942.74219 L 141.24805 942.74219 C 124.61267 943.33634 127.5816 940.65998 150.1582 934.71875 C 182.83481 928.18342 204.96736 918.97725 216.55273 905.3125 C 228.13808 891.64769 234.22812 873.52582 234.82227 850.94922 z M 274.92383 850.94922 L 296.50586 850.94922 L 296.50586 950 L 271.2207 950 C 274.19297 947.76732 276.02125 945.05184 276.70703 941.85156 C 278.48939 933.5339 277.15318 924.76942 272.69727 915.56055 C 268.24137 906.35167 268.98264 884.81416 274.92383 850.94922 z M 94.099609 964 L 605.14844 964 L 605.14844 986 L 94.099609 986 L 94.099609 964 z " />
</svg>
