<?xml version="1.0" encoding="UTF-8" standalone="no"?>
<svg
   width="500"
   height="1000"
   id="svg2"
   sodipodi:version="0.32"
   inkscape:version="1.4.3 (0d15f75, 2025-12-25)"
   sodipodi:docname="13893.svg"
   inkscape:output_extension="org.inkscape.output.svg.inkscape"
   version="1.0"
   xmlns:inkscape="http://www.inkscape.org/namespaces/inkscape"
   xmlns:sodipodi="http://sodipodi.sourceforge.net/DTD/sodipodi-0.dtd"
   xmlns="http://www.w3.org/2000/svg"
   xmlns:svg="http://www.w3.org/2000/svg"
   xmlns:rdf="http://www.w3.org/1999/02/22-rdf-syntax-ns#"
   xmlns:cc="http://creativecommons.org/ns#"
   xmlns:dc="http://purl.org/dc/elements/1.1/">
  <metadata
     id="metadata9">
    <rdf:RDF>
      <cc:Work
         rdf:about="">
        <dc:format>image/svg+xml</dc:format>
        <dc:type
           rdf:resource="http://purl.org/dc/dcmitype/StillImage" />
      </cc:Work>
    </rdf:RDF>
  </metadata>
  <defs
     id="defs7" />
  <sodipodi:namedview
     inkscape:window-height="998"
     inkscape:window-width="1680"
     inkscape:pageshadow="2"
     inkscape:pageopacity="0.0"
     guidetolerance="10.0"
     gridtolerance="10.0"
     objecttolerance="10.0"
     borderopacity="1.0"
     bordercolor="#666666"
     pagecolor="#ffffff"
     id="base"
     height="18px"
     width="10.648681px"
     inkscape:zoom="0.5338656"
     inkscape:cx="426.13722"
     inkscape:cy="570.36827"
     inkscape:window-x="-8"
     inkscape:window-y="-8"
     inkscape:current-layer="svg2"
     inkscape:showpageshadow="2"
     inkscape:pagecheckerboard="0"
     inkscape:deskcolor="#d1d1d1"
     inkscape:window-maximized="1"
     showguides="true">
    <sodipodi:guide
       position="361.31016,1267.2462"
       orientation="1,0"
       id="guide2"
       inkscape:locked="false" />
    <sodipodi:guide
       position="105.13317,661.96676"
       orientation="1,0"
       id="guide5"
       inkscape:locked="false" />
  </sodipodi:namedview>
  <path
     id="path4"
     style="fill:#000000;stroke:none;stroke-width:48.9332"
     d="M 327.83984 0.125 L 327.83984 32.294922 L 313.24609 32.294922 L 313.24609 72.080078 L 294.85742 72.080078 L 294.85742 88.046875 L 298.18359 88.046875 C 270.67646 97.746076 262.99023 125.32404 262.99023 141.88672 C 262.99023 144.59394 263.14923 147.18281 263.46875 149.65039 C 254.85253 119.50228 245.61435 99.073004 235.75195 88.365234 C 224.60164 76.259153 215.84039 68.933425 209.46875 66.384766 C 212.01737 72.119227 217.27375 80.880483 225.23828 92.667969 C 233.20277 104.45551 239.57482 120.54245 244.35352 140.93164 C 248.9686 164.39788 259.34846 185.61681 282.10547 195.41016 L 273.50391 195.41016 C 269.68098 197.95883 269.68098 200.50605 273.50391 203.05469 L 277.32617 203.05469 L 279.00781 211.45703 C 267.099 218.66845 259.52866 230.52151 256.30078 247.01953 C 252.47782 266.77157 247.38143 281.10902 241.00977 290.0293 C 240.37263 294.48943 242.60002 296.40078 247.69727 295.76367 C 249.60883 297.6751 249.76867 299.10874 248.17578 300.06445 C 246.58284 301.02017 247.38061 302.77166 250.56641 305.32031 C 248.65491 309.78043 249.60869 312.00977 253.43164 312.00977 C 252.79446 315.83275 253.43229 319.33764 255.34375 322.52344 C 257.25526 325.70925 261.39791 326.82487 267.76953 325.86914 C 274.14113 324.91341 279.87539 324.11568 284.97266 323.47852 C 286.88415 333.03598 290.06916 340.68351 294.5293 346.41797 L 271.5918 346.41797 C 254.52458 346.41797 238.34943 365.87823 235.80078 383.71875 C 227.11861 422.24957 222.6995 446.19122 218.38867 478.49023 C 186.92976 497.05589 161.43518 504.52749 138.66406 521.78906 C 134.27263 519.15047 129.6359 517.76741 124.65039 517.04297 L 124.65039 338.0332 C 136.24744 338.0332 144.37969 330.04191 149.04688 314.06055 C 153.71395 298.07923 161.42139 290.08984 172.16992 290.08984 C 174.99856 287.54412 176.41211 284.29008 176.41211 280.33008 C 176.41211 271.27872 168.56377 265.12793 152.86523 261.875 C 137.1667 258.62221 124.86313 256.99414 115.95312 256.99414 C 107.04324 256.99414 94.73759 258.62221 79.039062 261.875 C 63.340554 265.12793 55.492188 271.27872 55.492188 280.33008 C 55.492188 284.29008 56.764787 287.54412 59.310547 290.08984 C 70.341847 290.08984 78.190224 298.07923 82.857422 314.06055 C 87.524489 330.04191 94.950023 338.0332 105.13281 338.0332 L 105.13281 516.25195 L 91.751953 516.25195 C 87.291822 519.43777 89.205158 523.89833 97.488281 529.63281 C 93.028148 532.18143 92.070491 537.2798 94.619141 544.92578 C 97.167766 552.57173 100.67265 556.71443 105.13281 557.35156 L 105.13281 999.99414 L 124.65039 999.99414 L 124.65039 554.53711 C 130.00569 552.23936 134.85326 548.48581 141.62305 543.01367 C 183.02594 527.32598 210.58886 511.62185 242.61133 489.57617 C 251.69722 465.30117 256.17818 448.57555 260.63281 428.98047 C 263.19009 435.26941 267.00311 439.60761 272.07031 441.99219 C 277.4862 444.54084 279.87544 448.04378 279.23828 452.50391 C 265.22074 557.63573 258.84874 621.35366 260.12305 643.6543 C 270.9548 706.09619 276.68896 741.61705 277.32617 750.21875 C 278.6292 767.81012 270.13459 877.24953 264.90234 911.25977 C 262.99081 925.27746 260.75958 935.15614 258.21094 940.89062 C 249.29064 955.5453 230.65449 966.53413 202.30078 973.86133 C 173.94703 981.18881 159.76953 987.72068 159.76953 993.45508 L 159.76953 999.19141 L 195.13281 1000.1445 C 218.07063 995.04682 237.82244 994.73085 254.38867 999.19141 C 272.22921 1000.4658 286.40676 999.19013 296.91992 995.36719 C 307.4331 991.54416 321.2908 993.13538 338.49414 1000.1445 C 358.24617 998.86995 363.34257 988.03944 353.78516 967.65039 C 352.51085 953.63283 352.83068 942.96028 354.74219 935.63281 C 356.65367 928.30546 357.92732 920.18008 358.56445 911.25977 C 364.93605 841.17203 366.84749 787.65076 364.29883 750.69531 C 361.75022 713.73999 363.66157 664.67932 370.0332 603.51172 C 377.6791 576.11384 379.9104 555.08837 376.72461 540.43359 C 366.53001 513.67278 360.79578 492.32751 359.52148 476.39844 L 362.38672 445.81445 L 371.94531 428.61133 C 379.16794 445.96696 390.05594 468.93668 402.54102 494.74805 C 402.90892 530.0696 407.75891 559.57606 414.65625 594.4082 L 414.74805 595.36523 C 406.91843 611.61097 403.84172 629.10185 401.16211 646.68359 C 388.00901 658.51731 401.643 687.20591 416.46094 710.25586 C 400.48232 710.25586 384.94825 706.7053 369.85742 699.60352 C 366.30666 709.36805 366.75295 720.02051 371.19141 731.56055 C 384.50675 726.23466 400.48331 724.45848 419.125 726.23438 L 413.79883 792.8125 L 437.76758 792.8125 L 431.10938 727.56641 C 447.08801 726.67892 463.51267 728.01162 480.37891 731.5625 C 483.0419 720.9101 482.59569 710.25594 479.04492 699.60352 C 463.06633 706.70504 447.53224 710.25586 432.44141 710.25586 C 453.58595 678.11604 459.70389 652.37828 443.00781 642.125 C 440.74163 627.61483 436.76362 613.44513 433.2793 599.1875 C 431.05277 550.126 429.77836 517.96303 427.05273 489.57812 C 416.2703 454.91017 411.38043 440.86933 398.70508 409.49609 L 402.5293 408.54102 L 402.5293 365.53125 C 402.5293 301.17786 394.24588 255.30428 377.67969 227.90625 C 373.67287 221.54255 368.25373 216.41275 361.45703 212.49023 L 363.34375 203.05469 L 367.16602 203.05469 C 370.35184 200.50605 370.35184 197.95879 367.16602 195.41016 L 358.56445 195.41016 C 383.00244 185.62669 391.14561 165.11231 396.79492 140.93164 C 401.25502 120.54242 407.46711 104.45551 415.43164 92.667969 C 423.39617 80.880483 428.65252 72.119227 431.20117 66.384766 C 424.82955 68.933416 416.06831 76.259137 404.91797 88.365234 C 395.20332 98.912523 386.33435 118.89146 378.3125 148.30078 C 378.527 146.24343 378.63477 144.10494 378.63477 141.88672 C 378.63477 123.77303 369.54706 97.453342 342.58398 88.046875 L 344.14844 88.046875 L 344.14844 0.125 L 327.83984 0.125 z M 334.83984 7.125 L 337.14844 7.125 L 337.14844 81.046875 L 301.85742 81.046875 L 301.85742 79.080078 L 320.24609 79.080078 L 320.24609 39.294922 L 334.83984 39.294922 L 334.83984 7.125 z M 320.33398 96.96875 C 352.74792 96.96875 365.25586 121.23792 365.25586 140.93164 C 365.25586 167.16333 345.39891 184.89648 320.33398 184.89648 C 296.4039 184.89648 275.41406 168.86164 275.41406 140.93164 C 275.41406 121.23684 287.92096 96.96875 320.33398 96.96875 z M 296.20508 217.39258 L 335.97656 217.39258 C 349.79905 220.14802 360.19525 225.88027 367.16602 234.59375 C 383.73221 261.35455 392.01562 305.0008 392.01562 365.53125 L 392.01562 398.98242 L 334.67188 398.98242 L 334.67188 296.7168 C 341.68068 287.15937 345.18555 278.87795 345.18555 271.86914 C 345.18555 254.66576 339.76925 246.06445 328.9375 246.06445 C 320.65439 246.06445 316.51172 249.56734 316.51172 256.57617 C 312.68874 257.21331 308.86595 254.18825 305.04297 247.49805 C 301.22001 240.80793 289.43173 238.41662 269.67969 240.32812 C 273.36322 228.35665 282.2068 220.71294 296.20508 217.39258 z M 283.28711 249.26172 C 291.59794 249.39589 297.42431 251.32861 299.78516 255.62109 C 303.28957 261.99271 311.09704 267.40901 323.20312 271.86914 C 323.20312 261.67459 325.11449 256.57617 328.9375 256.57617 C 332.76046 256.57617 334.67188 261.67458 334.67188 271.86914 C 334.67188 278.24077 331.16699 286.2062 324.1582 295.76367 L 324.1582 345.46094 L 308.86719 345.46094 C 302.49556 340.36368 296.75944 330.16886 291.66211 314.87695 C 286.56482 314.23979 280.67068 314.5596 273.98047 315.83398 C 267.29025 317.10826 263.30954 316.15065 262.03516 312.96484 C 260.76086 309.77904 263.15008 307.39177 269.20312 305.79883 C 275.25617 304.20592 272.54899 302.13462 261.08008 299.58594 L 260.12305 301.49609 C 260.12307 301.49613 259.80511 300.22248 259.16797 297.67383 C 260.44232 295.12523 260.60026 293.05388 259.64453 291.46094 C 258.68877 289.86797 256.30154 289.71002 252.47852 290.98438 L 262.03516 267.08984 C 269.68113 259.44386 283.38075 258.80611 303.13281 265.17773 L 303.13281 262.31055 C 282.74359 255.30174 269.67977 254.02813 263.94531 258.48828 L 265.85742 250.8418 C 272.42043 249.74795 278.30061 249.18122 283.28711 249.26172 z M 276.19141 264.07422 C 275.59409 264.09422 275.01653 264.14319 274.45898 264.22266 C 269.99885 264.85983 266.49398 267.40899 263.94531 271.86914 L 261.08008 272.82422 L 261.08008 276.64648 L 264.90234 276.64648 C 265.53948 276.64648 266.81315 276.96637 268.72461 277.60352 C 269.479 277.85493 277.66329 280.26841 291.66211 271.86914 L 303.13281 271.86914 L 303.13281 268.04688 L 291.66211 268.04688 C 285.52945 265.2593 280.37281 263.93486 276.19141 264.07422 z M 278.2832 267.08984 C 279.55767 267.08992 283.06263 268.04756 288.79688 269.95898 C 285.8574 271.42869 278.77422 274.7811 275.43945 274.73047 C 281.85993 273.10929 278.42158 267.23009 278.2832 267.08984 z M 272.54883 268.04688 C 271.26634 269.32984 270.52219 274.42533 274.95312 274.7207 C 271.67771 274.651 268.64504 274.33876 265.85742 273.78125 C 267.13179 273.14404 268.08749 272.18649 268.72461 270.91211 C 269.36182 269.63783 270.63732 268.68403 272.54883 268.04688 z M 115.74023 270.57227 C 133.56009 270.57227 147.84525 273.25855 158.59375 278.63281 C 146.99671 286.55282 139.99607 295.95765 137.5918 306.84766 C 135.1874 317.73754 130.9446 324.0313 124.86328 325.72852 C 118.78193 327.42558 112.77008 327.42558 106.83008 325.72852 C 100.89009 324.0313 96.71873 317.73754 94.314453 306.84766 C 91.910184 295.95765 84.909539 286.55282 73.3125 278.63281 C 83.778068 273.25855 97.920226 270.57227 115.74023 270.57227 z M 265.85742 358.8418 L 324.1582 358.8418 L 324.1582 409.49609 L 365.25586 409.49609 L 355.69727 434.3457 L 286.88477 434.3457 C 277.96447 434.3457 273.82185 431.47857 274.45898 425.74414 C 288.47656 397.709 285.60946 375.40805 265.85742 358.8418 z M 266.81445 400.89453 C 269.83083 408.13377 267.99071 416.51522 261.29688 426.03906 C 263.01845 418.36093 264.77067 410.17812 266.81445 400.89453 z M 288.79688 441.03711 L 353.78516 441.03711 L 352.83008 443.90234 L 289.75 443.90234 L 288.79688 441.03711 z M 300.26367 454.41602 L 344.22852 454.41602 C 342.95423 481.814 346.13922 505.38858 353.78516 525.14062 C 361.43107 544.89268 362.54673 564.48452 357.13086 583.91797 C 351.71499 603.35139 348.68794 625.49427 348.05078 650.34375 C 347.41363 675.19295 346.4599 699.0875 345.18555 722.02539 C 350.28283 767.90101 348.0516 830.65955 338.49414 910.30469 L 284.97266 910.30469 C 295.80443 816.64195 297.39591 748.94504 289.75 707.21094 C 282.10406 665.47674 278.2832 640.46665 278.2832 632.18359 C 279.55753 592.04236 286.88323 532.78702 300.26367 454.41602 z M 438.34961 655.47266 L 438.30078 655.83203 C 443.4956 656.7819 439.88124 673.37215 424.45312 699.60352 C 411.12263 679.603 406.25674 665.52692 406.03125 660.72461 C 407.31895 660.03123 408.12949 659.27118 408.46289 658.44336 C 412.11352 663.65149 415.5778 661.70253 419.02148 658.92383 C 421.78706 661.15275 424.03235 661.31209 425.75781 659.40039 C 427.48335 657.4898 429.34897 657.01095 431.35352 657.9668 C 433.35802 658.92266 435.67184 658.12683 438.29102 655.57812 L 438.34961 655.47266 z M 301.2207 922.73047 L 320.33398 922.73047 C 327.15667 948.65659 313.21872 964.82125 290.70703 969.56055 C 288.79552 959.36602 292.30042 943.75663 301.2207 922.73047 z " />
</svg>
