<?xml version="1.0" encoding="UTF-8" standalone="no"?>
<svg
   width="521.82166"
   height="1000"
   version="1.1"
   id="svg1"
   sodipodi:docname="138A4.svg"
   inkscape:version="1.4.3 (0d15f75, 2025-12-25)"
   xmlns:inkscape="http://www.inkscape.org/namespaces/inkscape"
   xmlns:sodipodi="http://sodipodi.sourceforge.net/DTD/sodipodi-0.dtd"
   xmlns="http://www.w3.org/2000/svg"
   xmlns:svg="http://www.w3.org/2000/svg">
  <defs
     id="defs1" />
  <sodipodi:namedview
     id="namedview1"
     pagecolor="#ffffff"
     bordercolor="#666666"
     borderopacity="1.0"
     inkscape:showpageshadow="2"
     inkscape:pageopacity="0.0"
     inkscape:pagecheckerboard="0"
     inkscape:deskcolor="#d1d1d1"
     inkscape:zoom="0.3775"
     inkscape:cx="-213.24503"
     inkscape:cy="380.13245"
     inkscape:window-width="1680"
     inkscape:window-height="998"
     inkscape:window-x="-8"
     inkscape:window-y="-8"
     inkscape:window-maximized="1"
     inkscape:current-layer="svg1" />
  <path
     id="path1"
     style="fill:#000000;stroke:none;stroke-width:0.999998"
     d="M 407.96875 0 L 407.96875 67.363281 L 379.50586 67.363281 L 379.50586 176.4707 L 331.11914 176.4707 L 331.11914 197.34375 C 310.87877 205.56635 297.43822 216.79386 290.79688 231.02539 C 284.15547 245.25687 281.78409 254.58608 283.68164 259.01367 C 277.35654 271.66387 274.19336 285.26277 274.19336 299.81055 C 255.85053 321.3159 248.26126 333.64993 251.42383 336.8125 C 254.58636 340.60759 258.06428 343.13731 261.85938 344.40234 L 259.96289 349.14648 C 254.90278 351.67654 254.90278 355.15444 259.96289 359.58203 C 256.80032 367.17216 259.01335 371.60024 266.60352 372.86523 C 266.60352 392.47312 274.82624 402.27734 291.27148 402.27734 L 320.68359 402.27734 C 326.37621 418.09011 332.38388 428.84257 338.70898 434.53516 C 329.22131 448.45039 314.67426 472.17029 295.06641 505.69336 C 275.45856 539.21647 274.51035 567.9958 292.2207 592.03125 C 296.64826 659.0774 286.844 719.79741 262.80859 774.19336 L 136.62305 591.08203 C 118.67123 576.29823 101.37954 567.68508 84.75 565.24219 L 84.75 351.36133 C 85.42611 335.81872 78.669456 319.26324 64.478516 301.69336 C 70.560366 287.50242 78.499978 272.80416 88.298828 257.59961 C 98.096068 242.39455 97.251732 229.7248 85.763672 219.58789 C 75.627312 243.24013 63.632687 261.99231 49.779297 275.8457 C 35.925907 289.69905 25.958763 304.05878 19.876953 318.92578 C 13.795103 333.79228 1.6302045 361.49697 -16.615234 402.04297 C 0.95464449 408.8009 14.468898 395.62417 23.929688 362.51172 C 33.390447 348.32027 40.659079 339.0272 45.724609 334.63672 C 50.792769 330.24463 54.342037 337.50865 56.367188 356.42969 L 56.367188 565.24219 L 56.378906 565.24219 C 35.182799 567.91378 18.602792 574.94532 6.640625 586.33789 C 1.5805156 595.19304 4.9020499 601.20266 16.603516 604.36523 C 28.304945 607.52776 39.215756 619.22839 49.335938 639.46875 C 111.32205 823.52946 141.36629 922.20159 139.46875 935.48438 C 137.57121 949.39956 128.24201 961.41693 111.48047 971.53711 C 94.718931 981.6573 90.449234 991.14485 98.671875 1000 L 476.28125 1000 C 488.29898 993.67494 488.29898 984.82076 476.28125 973.43555 C 442.75818 933.58734 431.8474 895.1621 443.54883 858.16016 C 455.2503 821.1583 465.52766 738.13969 474.38281 609.10742 L 474.38281 592.03125 L 521.82227 592.03125 L 521.82227 450.66406 C 521.82227 298.22889 498.73581 213.78903 452.5625 197.34375 L 445.91992 197.34375 L 445.91992 0 L 407.96875 0 z M 421.25195 11.384766 L 432.63672 11.384766 L 432.63672 197.34375 L 345.35156 197.34375 L 345.35156 188.80469 L 392.78906 188.80469 L 392.78906 78.748047 L 421.25195 78.748047 L 421.25195 11.384766 z M 333.01758 219.16602 L 436.43359 219.16602 C 466.16162 219.79853 486.40165 272.92925 497.1543 378.55859 L 497.1543 566.41406 L 424.09961 566.41406 L 424.09961 313.09375 C 424.09961 285.26326 416.35003 270.5559 400.85352 268.97461 C 385.35697 267.39336 375.55271 263.28202 371.44141 256.64062 C 367.33007 249.99927 346.30028 245.73152 308.34961 243.83398 C 313.40972 231.18375 321.63237 222.96107 333.01758 219.16602 z M 310.34961 262.45312 C 339.61314 263.56001 355.07598 278.22538 356.73633 306.45117 L 362.42969 306.45117 C 366.85728 293.16846 372.86495 286.52734 380.45508 286.52734 C 391.20777 286.52734 392.9477 296.0149 385.67383 314.99023 C 378.39992 333.96557 372.54865 343.45312 368.12109 343.45312 C 364.32601 343.45312 362.42969 340.92339 362.42969 335.86328 L 362.42969 326.375 L 356.73633 326.375 L 356.73633 335.86328 C 356.10382 345.35095 359.89845 350.0957 368.12109 350.0957 C 373.18116 350.0957 379.5075 342.50447 387.09766 327.32422 C 395.95281 322.26411 400.06415 325.744 399.43164 337.76172 L 399.43164 402.27734 C 386.14889 421.25263 370.96841 428.21046 353.89062 423.15039 C 345.03546 413.66272 339.34255 401.32873 336.8125 386.14844 L 298.86133 386.14844 C 285.57862 388.04601 279.56899 382.66976 280.83398 370.01953 L 300.75977 359.58203 C 300.75977 357.05198 293.16857 353.25734 277.98828 348.19727 L 269.44922 349.14648 L 274.19336 342.50391 L 268.97461 339.6582 C 265.49582 337.76066 263.4411 335.38924 262.80859 332.54297 C 262.17608 329.69666 268.18379 320.99894 280.83398 306.45117 C 284.62907 300.75858 286.84405 295.85739 287.47656 291.74609 C 288.10907 287.63475 292.06207 283.99655 299.33594 280.83398 C 306.60981 277.67141 314.8325 277.51498 324.00391 280.36133 C 333.17532 283.2076 341.55635 285.26231 349.14648 286.52734 L 349.14648 281.7832 C 339.0263 279.25314 328.90534 276.09191 318.78516 272.29688 C 308.66501 268.50182 298.54596 269.76674 288.42578 276.0918 C 290.95583 271.66424 293.80231 267.23614 296.96484 262.80859 C 301.70868 262.41327 306.16911 262.295 310.34961 262.45312 z M 312.0918 284.31836 C 311.29622 284.36778 310.52259 284.47273 309.77148 284.63086 C 303.76264 285.89589 299.6513 288.10895 297.4375 291.27148 C 295.22371 294.43405 292.22083 296.96379 288.42578 298.86133 L 288.42578 301.70703 C 292.85334 302.33954 296.48963 303.28966 299.33594 304.55469 C 302.18225 305.81968 306.61029 305.97807 312.61914 305.0293 C 318.62798 304.08057 325.11075 301.07574 332.06836 296.01562 L 349.14648 296.01562 L 349.14648 291.27148 L 332.06836 291.27148 C 324.3201 286.29048 317.66085 283.97245 312.0918 284.31836 z M 271.34766 333.01758 C 271.34766 338.07765 275.14229 340.60742 282.73242 340.60742 C 287.79253 335.54735 283.99789 333.01758 271.34766 333.01758 z M 399.43164 428.8418 L 399.43164 592.03125 L 451.61328 592.03125 C 450.98077 630.61444 447.34256 677.57718 440.70117 732.92188 C 434.05981 788.2666 425.68073 834.91456 415.56055 872.86523 C 405.4404 910.8159 412.08148 942.12504 435.48438 966.79297 L 155.59766 966.79297 C 161.92276 959.2028 166.19245 947.34387 168.40625 931.21484 C 170.62001 915.08582 163.50387 887.41294 147.05859 848.19727 L 75.900391 632.82812 C 78.430446 614.4853 92.979462 607.84223 119.54492 612.90234 L 216.31836 757.11523 L 252.37109 802.65625 C 271.97894 815.93896 284.62965 809.29788 290.32227 782.73242 C 313.09265 730.86652 321.94874 664.1369 316.88867 582.54297 C 289.69066 566.7302 305.18588 521.82213 363.37695 447.81836 C 384.24979 445.92079 396.26907 439.5945 399.43164 428.8418 z M 62.916016 582.1875 C 74.894209 581.47593 87.760459 585.38886 101.51758 593.92773 C 78.114643 593.92773 63.250881 600.56885 56.925781 613.85156 C 51.865672 602.46639 45.858004 595.98363 38.900391 594.40234 C 31.942778 592.82109 36.052168 589.49956 51.232422 584.43945 C 55.027495 583.17444 58.923284 582.42469 62.916016 582.1875 z " />
</svg>
