<?xml version="1.0" encoding="UTF-8" standalone="no"?>
<svg
   width="685.98352"
   height="1000"
   version="1.1"
   id="svg1"
   sodipodi:docname="138B8.svg"
   inkscape:version="1.4.3 (0d15f75, 2025-12-25)"
   xmlns:inkscape="http://www.inkscape.org/namespaces/inkscape"
   xmlns:sodipodi="http://sodipodi.sourceforge.net/DTD/sodipodi-0.dtd"
   xmlns="http://www.w3.org/2000/svg"
   xmlns:svg="http://www.w3.org/2000/svg">
  <defs
     id="defs1" />
  <sodipodi:namedview
     id="namedview1"
     pagecolor="#ffffff"
     bordercolor="#666666"
     borderopacity="1.0"
     inkscape:showpageshadow="2"
     inkscape:pageopacity="0.0"
     inkscape:pagecheckerboard="0"
     inkscape:deskcolor="#d1d1d1"
     inkscape:zoom="0.18875"
     inkscape:cx="-495.36424"
     inkscape:cy="-156.29139"
     inkscape:window-width="1680"
     inkscape:window-height="998"
     inkscape:window-x="-8"
     inkscape:window-y="-8"
     inkscape:window-maximized="1"
     inkscape:current-layer="svg1" />
  <path
     id="path1"
     style="fill:#000000;stroke:none;stroke-width:0.999999"
     d="M 486.00391 0 C 412.79211 0 386.48633 60.402676 386.48633 95.931641 C 386.48633 132.09406 407.12692 160.5365 433.26953 177.20117 C 420.2612 181.82558 413.75586 193.70418 413.75586 212.83789 C 376.12797 230.30797 356.47474 244.08322 354.79492 254.16211 C 353.11514 264.24103 345.38781 277.84634 331.61328 294.98047 C 317.83878 312.11458 308.26407 326.72954 302.88867 338.82422 C 290.79399 354.27854 294.15284 365.70058 312.9668 373.0918 C 318.3422 379.1391 326.7413 381.82816 338.16406 381.15625 C 334.13248 393.92284 337.32537 402.4899 347.74023 406.85742 C 358.15512 411.22493 367.226 411.39288 374.95312 407.36133 C 382.68032 403.32978 387.55065 397.28188 389.56641 389.21875 C 391.5822 381.15562 396.11862 378.30059 403.17383 380.65234 C 410.22905 383.00408 413.58789 389.21796 413.25195 399.29688 C 412.91599 409.37576 417.7883 418.44665 427.86719 426.50977 C 427.19527 427.85362 420.81148 436.25271 408.7168 451.70703 C 396.62209 467.16135 385.53592 485.64095 375.45703 507.14258 C 365.37815 528.64427 366.72166 550.14486 379.48828 571.64648 C 384.19177 639.51111 374.11325 702.33734 349.25195 760.12305 L 215.20117 565.59961 C 203.10646 521.92436 176.87831 500.4218 158.73633 501.09375 L 136.71875 501.09375 C 159.01622 487.79346 163.32787 418.77498 151.20117 356.22656 C 144.81787 323.30214 141.96286 300.7939 142.63477 288.69922 C 154.72944 262.49407 166.4874 245.69588 177.91016 238.30469 C 185.30136 240.99242 190.67747 241.6642 194.03711 240.32031 C 197.39675 238.97647 196.05125 235.61563 190.00391 230.24023 C 176.56538 216.8017 155.73657 210.08398 127.51562 210.08398 C 99.29472 210.08398 78.801776 216.8017 66.035156 230.24023 C 59.987817 235.61563 58.642313 238.97647 62.001953 240.32031 C 65.361593 241.6642 70.401845 240.99242 77.121094 238.30469 C 89.215773 245.69588 101.30962 262.49407 113.4043 288.69922 C 113.4043 300.7939 110.38132 323.30214 104.33398 356.22656 C 92.961865 418.14144 95.21275 487.72963 118.79883 501.09375 L 86.191406 501.09375 C 62.002049 501.09375 61.666146 509.15694 85.183594 525.2832 C 82.495864 552.83217 89.215542 566.60742 105.3418 566.60742 C 182.61337 795.73439 220.24234 917.35242 218.22656 931.46289 C 216.21079 946.24525 206.29826 959.01286 188.49219 969.76367 C 170.68614 980.51453 166.15168 990.59307 174.88672 1000 L 575.01953 1000 C 588.45807 993.95268 588.45807 984.54589 575.01953 971.7793 C 540.07952 929.44794 528.82325 888.62803 541.25391 849.32031 C 553.68452 810.01264 564.60279 722.15896 574.00977 585.75781 L 621.38086 584.75 C 625.41264 500.08725 626.75812 424.83121 625.41406 358.98242 C 604.47411 251.88939 562.2251 196.46909 498.66797 192.72266 C 553.65293 185.5768 583.72852 138.9469 583.72852 96.828125 C 584.22179 59.327598 551.58047 1.4210855e-14 486.00391 0 z M 485.7793 14.792969 C 497.43448 14.792969 509.31256 17.333558 521.41602 22.414062 L 486.90039 57.380859 L 451.48633 22.414062 C 462.69317 17.333558 474.12412 14.792969 485.7793 14.792969 z M 438.03711 32.724609 L 486.00391 80.689453 L 533.96875 32.724609 C 541.1412 36.011959 546.82 41.690769 551.00391 49.759766 L 503.48633 97.724609 L 550.55469 144.79492 C 546.66981 152.56489 540.84227 158.2418 533.07227 161.82812 L 486.00391 114.75977 L 439.83008 160.93164 C 432.05987 156.14998 426.38299 150.32268 422.79688 143.44922 L 468.96875 97.724609 L 420.55469 49.310547 C 423.84203 41.540332 429.66915 36.011959 438.03711 32.724609 z M 410.24414 60.517578 L 445.21094 95.484375 L 410.24414 130.44922 C 400.08334 106.24227 400.08334 82.931452 410.24414 60.517578 z M 561.31445 62.310547 C 571.47524 86.517495 571.47524 109.82832 561.31445 132.24219 L 526.34766 97.277344 L 561.31445 62.310547 z M 486.90039 136.72461 L 521.86523 171.69141 C 499.15261 181.8522 475.84179 181.8522 451.93359 171.69141 L 486.90039 136.72461 z M 473.64258 192.70117 C 475.09213 192.92072 476.53727 193.10326 477.97461 193.24805 C 476.73365 193.37737 475.48561 193.52379 474.23047 193.6875 C 474.03747 193.35414 473.84108 193.02537 473.64258 192.70117 z M 444.37891 198.69141 C 444.58298 198.69469 444.79002 198.70556 445 198.72656 C 456.42275 199.39847 461.46299 205.44637 460.11914 216.86914 C 458.77532 228.29188 450.04031 230.64308 433.91406 223.92383 C 434.56497 206.99966 438.05269 198.58969 444.37891 198.69141 z M 508.49805 214.85352 C 565.61182 243.07443 596.85709 298.84516 602.23242 382.16406 C 602.90446 441.29361 602.56867 502.10261 601.22461 564.5918 L 575.01953 564.5918 C 575.01953 470.52207 560.90844 423.48633 532.6875 423.48633 C 505.13854 423.48633 492.03507 442.63767 493.37891 480.9375 L 493.37891 561.56836 L 476.24609 561.56836 C 472.21454 455.40395 475.23752 386.53174 485.31641 354.95117 C 495.39529 323.37062 503.12262 276.67077 508.49805 214.85352 z M 128.52344 223.18555 C 143.30582 223.18555 155.73557 225.53674 165.81445 230.24023 C 151.70402 243.00682 139.27427 260.14092 128.52344 281.64258 L 127.51562 281.64258 C 116.09289 260.14092 103.32531 243.00682 89.214844 230.24023 C 100.63758 225.53674 113.74103 223.18555 128.52344 223.18555 z M 425.85156 231.98828 C 432.57084 244.08296 439.96229 250.46673 448.02539 251.13867 C 462.13586 254.49831 473.5579 249.79396 482.29297 237.02734 C 480.9491 274.65523 474.22944 311.27459 462.13477 346.88672 C 453.39972 373.76377 445.3365 394.59454 437.94531 409.37695 C 433.24182 404.00152 431.05857 395.93833 431.39453 385.1875 C 431.73047 374.43667 424.50698 366.5414 409.72461 361.50195 C 394.94223 356.46252 384.35986 360.66108 377.97656 374.09961 C 371.59324 387.53814 364.70565 392.74633 357.31445 389.72266 C 349.92327 386.69898 349.58736 380.48314 356.30664 371.07617 C 366.38553 363.01307 372.43343 355.95751 374.44922 349.91016 C 371.76149 343.86282 369.07247 342.85517 366.38477 346.88672 C 363.69706 350.91827 357.65111 357.63793 348.24414 367.04492 C 336.82139 368.38876 329.09409 365.36581 325.0625 357.97461 C 316.9994 355.28691 316.9994 348.56723 325.0625 337.81641 C 353.28343 302.87622 368.06631 280.70189 369.41016 271.29492 C 370.75401 261.88793 389.56752 248.78645 425.85156 231.98828 z M 407.70898 258.19336 C 401.66164 258.19336 395.10992 260.20868 388.05469 264.24023 C 380.99946 268.27178 377.47266 274.31969 377.47266 282.38281 C 376.80075 287.08631 379.15195 290.10928 384.52734 291.45312 C 400.6536 292.12506 414.42882 284.06184 425.85156 267.26367 C 419.80422 261.88823 413.75631 258.86527 407.70898 258.19336 z M 408.7168 268.27148 C 404.68522 274.99075 398.30145 279.69511 389.56641 282.38281 C 392.25414 274.99162 398.63791 270.28727 408.7168 268.27148 z M 127.51562 304.82422 L 128.52344 304.82422 C 137.25848 366.64149 141.62695 406.62168 141.62695 424.76367 C 141.62695 455.6723 137.25848 476.50309 128.52344 487.25391 L 127.51562 487.25391 C 118.78058 476.50309 114.07624 455.6723 113.4043 424.76367 C 114.07624 406.62168 118.78059 366.64149 127.51562 304.82422 z M 451.04883 437.59766 L 451.04883 585.75781 L 514.54492 585.75781 L 514.54492 479.92969 C 515.21687 458.42807 520.92887 447.67578 531.67969 447.67578 C 542.43054 447.67578 547.4689 459.0998 546.79688 481.94531 C 551.50037 549.13799 549.31711 619.68965 540.24609 693.60156 C 531.17509 767.51347 521.26449 824.62777 510.51367 864.94336 C 499.76285 905.25899 507.1543 938.5195 532.6875 964.72461 L 234.35156 964.72461 C 241.74274 956.66147 246.61505 944.06184 248.9668 926.92773 C 251.31853 909.79358 243.75913 880.39775 226.28906 838.73828 L 149.68945 609.94727 C 150.36139 573.66323 166.15194 566.60768 197.06055 588.78125 L 299.86523 741.98047 L 338.16406 790.35938 C 358.32184 804.46979 371.42532 797.41425 377.47266 769.19336 C 401.662 714.09537 411.06876 646.90257 405.69336 567.61523 C 386.20749 542.08202 401.32624 498.743 451.04883 437.59766 z M 108.36523 524.27539 L 143.64258 524.27539 C 165.14424 524.27539 179.25341 535.36351 185.97266 557.53711 L 143.64258 557.53711 C 120.12514 557.53711 108.36523 546.44899 108.36523 524.27539 z " />
</svg>
