<?xml version="1.0" encoding="UTF-8" standalone="no"?>
<svg
   width="800"
   height="1000"
   version="1.1"
   id="svg1"
   sodipodi:docname="138C5.svg"
   inkscape:version="1.4.3 (0d15f75, 2025-12-25)"
   xmlns:inkscape="http://www.inkscape.org/namespaces/inkscape"
   xmlns:sodipodi="http://sodipodi.sourceforge.net/DTD/sodipodi-0.dtd"
   xmlns="http://www.w3.org/2000/svg"
   xmlns:svg="http://www.w3.org/2000/svg">
  <defs
     id="defs1" />
  <sodipodi:namedview
     id="namedview1"
     pagecolor="#ffffff"
     bordercolor="#666666"
     borderopacity="1.0"
     inkscape:showpageshadow="2"
     inkscape:pageopacity="0.0"
     inkscape:pagecheckerboard="0"
     inkscape:deskcolor="#d1d1d1"
     showguides="true"
     inkscape:zoom="0.2669328"
     inkscape:cx="-447.67822"
     inkscape:cy="560.06605"
     inkscape:window-width="1680"
     inkscape:window-height="998"
     inkscape:window-x="-8"
     inkscape:window-y="-8"
     inkscape:window-maximized="1"
     inkscape:current-layer="svg1">
    <sodipodi:guide
       position="558.19292,538.2733"
       orientation="0,-1"
       id="guide1"
       inkscape:locked="false" />
    <sodipodi:guide
       position="386.2207,680.97463"
       orientation="0.96152749,0.27470874"
       id="guide9"
       inkscape:locked="false" />
  </sodipodi:namedview>
  <path
     id="path1-5"
     style="fill:#000000;stroke:none;stroke-width:0.885708"
     inkscape:transform-center-x="32.177921"
     inkscape:transform-center-y="-31.097383"
     d="M 452.75391 0.77539062 C 433.20026 0.77539062 417.38529 7.446553 405.30859 20.789062 C 393.23137 34.131584 387.19336 48.969655 387.19336 65.302734 C 387.19336 79.105345 390.41435 90.148144 396.85547 98.429688 C 395.01515 106.48122 392.25497 110.16079 388.57422 109.4707 C 384.89358 108.78059 383.05273 106.42419 383.05273 102.39844 C 383.05273 98.372684 382.93689 91.874056 382.70703 82.902344 C 385.46751 65.879128 382.131 55.181379 372.69922 50.810547 C 364.8778 48.510124 359.12792 48.165093 355.44727 49.775391 C 351.53677 51.385708 349.92462 54.032205 350.61523 57.712891 C 351.76545 60.24337 354.52575 62.427225 358.89648 64.267578 C 353.3752 68.178319 353.26173 76.115854 358.55273 88.078125 C 363.61367 97.049795 367.40893 106.0205 369.93945 114.99219 C 376.38067 126.72441 384.77697 130.17467 395.12891 125.34375 C 400.87994 120.05277 404.2143 114.7617 405.13477 109.4707 C 407.71801 112.19485 410.43731 114.62235 413.28906 116.75195 C 407.9968 119.98335 405.34961 126.19186 405.34961 135.37695 C 384.30637 145.57973 373.14838 153.39033 371.87305 158.81055 C 370.5977 164.23075 366.13258 171.88363 358.48047 181.76758 C 350.8284 191.65151 345.40904 200.10081 342.2207 207.11523 C 335.20626 215.40498 337.11853 221.78043 347.95898 226.24414 C 351.14735 230.07018 355.9299 231.66502 362.30664 231.02734 C 360.39361 238.67945 362.30763 243.62166 368.04688 245.85352 C 373.78595 248.08538 378.88589 248.08538 383.34961 245.85352 C 387.81332 243.62166 390.68361 240.27427 391.95898 235.81055 C 393.2343 231.34683 395.7853 229.59232 399.61133 230.54883 C 403.4374 231.50533 405.34961 236.44757 405.34961 245.375 C 405.34961 254.30247 410.77087 259.72176 421.61133 261.63477 C 405.66948 262.91012 396.19402 265.92982 386.62891 269.75586 C 367.63669 277.15799 362.40292 284.24195 356.27148 291.98828 C 328.07717 327.60835 314.45059 347.51648 286.60156 389.44727 C 272.78723 360.64789 259.4722 336.39545 230.42969 298.4375 C 230.58033 290.05157 229.897 280.87573 228.37891 270.9082 C 228.50837 266.40099 227.43415 261.3616 225.1582 255.79297 C 223.29417 251.58938 219.70819 246.11927 214.39844 239.38086 C 209.08869 232.64245 205.03632 226.11977 202.24023 219.81445 C 200.67978 217.60442 199.27048 216.39036 198.01367 216.17383 C 196.75683 215.9573 195.65245 216.73868 194.69922 218.51562 C 194.17909 217.77885 193.5492 217.67121 192.8125 218.19141 C 191.44742 218.60341 190.71174 219.12375 190.60352 219.75195 C 190.08338 219.01516 189.45544 218.90555 188.71875 219.42578 C 187.35362 219.83776 186.50841 220.9859 186.18359 222.87109 C 185.77168 221.50612 184.88262 221.02973 183.51758 221.44141 C 182.15244 221.85338 182.19625 223.47822 183.64844 226.31641 C 189.15351 235.67678 193.77997 242.62206 197.5293 247.15039 C 201.27861 251.67878 204.80259 259.40344 208.09766 270.32422 C 208.293 272.94613 208.07573 274.20396 207.44727 274.0957 C 206.81886 273.98742 205.9837 273.19398 204.94336 271.7207 C 203.59947 268.25383 202.3637 264.15929 201.23633 259.43555 C 200.10896 254.71184 198.45255 251.19134 196.26367 248.87305 C 194.07484 246.55476 192.24289 245.91492 190.76953 246.95508 C 189.18782 248.62417 190.01107 251.35678 193.24023 255.14844 C 194.25936 260.50054 195.47804 267.50353 196.89844 276.16016 C 198.31885 284.81676 204.44913 295.25463 215.28516 307.47461 C 235.8881 346.79671 237.56468 384.23052 273.07617 425.67383 C 277.75945 431.1394 283.97136 430.08017 287.83984 426.64062 C 331.39317 387.91652 352.87576 363.48427 386.2207 319.02539 C 384.65027 338.17877 377.92859 352.18109 365.35352 365.94922 C 371.65573 380.61789 381.64404 387.412 401.52344 389.80859 C 407.90019 398.09833 411.08984 416.27244 411.08984 444.33008 C 411.08984 471.11236 409.01598 494.22672 404.87109 513.67578 C 400.72623 533.12481 398.6543 556.24117 398.6543 583.02344 C 399.29196 617.45783 403.75513 645.83377 412.04492 668.15234 C 420.33467 690.47091 424.16112 729.68942 423.52344 785.80469 C 422.88577 841.91997 421.29091 883.36807 418.74023 910.15039 C 418.74023 937.57034 390.68364 959.57086 334.56836 976.15039 L 317.35156 976.15039 C 317.35156 990.17913 321.49538 997.19336 329.78516 997.19336 C 336.79955 997.19336 342.8576 997.83026 347.95898 999.10547 C 353.06039 1000.381 365.81516 999.74416 386.2207 997.19336 C 395.78583 1000.3819 409.9738 1000.3819 428.78516 997.19336 C 447.59654 994.00472 463.2197 994.16271 475.6543 997.66992 C 488.08895 1001.1771 495.8995 999.74202 499.08789 993.36523 C 502.27623 986.98851 503.23239 975.1918 501.95703 957.97461 L 501.95703 912.0625 L 505.7832 912.0625 C 508.97159 851.4835 508.65222 806.68797 504.82617 777.67383 C 501.00016 748.6597 500.36338 688.23907 502.91406 596.41406 C 513.75451 567.71876 519.17383 544.1253 519.17383 525.63281 C 519.17383 507.77792 516.14581 491.99512 510.08789 478.28516 C 504.02998 464.57516 501.47904 447.83625 502.43555 428.06836 C 503.39208 408.3005 514.07299 377.37359 534.47852 335.28711 C 534.47852 380.56196 537.66818 419.77848 544.04492 452.9375 C 539.58121 468.87933 538.78281 487.53243 541.65234 508.89453 C 544.52188 530.25659 544.97162 553.45692 543.05859 578.32617 C 534.92228 593.07834 531.05824 604.75647 531.4668 613.36133 C 531.87545 621.96611 532.105 628.81879 532.1582 633.91992 C 530.29184 638.40348 530.3218 641.27215 532.24805 642.52734 C 534.17424 643.78254 535.75991 642.81073 537.00195 639.60938 C 538.24399 636.4079 539.15894 632.57168 539.75 628.10156 C 539.69678 623.00031 540.29115 618.84981 541.5332 615.64844 C 541.51326 613.73555 541.82336 612.77458 542.46094 612.76758 C 543.09862 612.76093 543.74671 613.71094 544.4043 615.61719 C 543.25538 627.7456 541.43092 636.37422 538.93359 641.50195 C 536.43624 646.62966 533.3288 654.3145 529.60938 664.55664 C 529.005 667.75134 529.65934 669.33836 531.57227 669.31836 C 532.84765 669.3051 533.47814 668.66189 533.46484 667.38672 C 534.12245 669.29297 534.77058 670.24333 535.4082 670.23633 C 536.68349 670.22305 537.63654 669.89438 538.26758 669.25 C 538.27421 669.88742 538.91732 670.51813 540.19922 671.14258 C 541.47457 671.12929 542.10705 670.48411 542.09375 669.20898 C 543.38895 671.10857 544.67082 671.73311 545.93945 671.08203 C 547.20807 670.43131 548.46612 668.82371 549.71484 666.25977 C 550.92358 659.87007 553.40046 652.83019 557.14648 645.13867 C 560.89249 637.44708 563.06126 631.36661 563.65234 626.89648 C 564.22347 620.51345 564.16975 615.41098 563.49219 611.5918 C 562.74814 601.39621 561.37631 592.16388 559.37695 583.89453 C 572.13042 531.6053 575.60821 491.83598 569.86914 464.41602 C 574.33285 427.43095 574.97155 390.76535 571.7832 354.41797 C 567.95717 298.3027 552.97081 269.60739 526.82617 268.33203 L 526.82617 218.5918 C 516.00912 165.48992 496.28362 134.75618 467.64844 126.39062 C 479.94119 124.02976 489.9295 119.42671 497.61328 112.57812 C 509.80564 126.38074 538.67608 139.49173 584.22461 151.91406 C 585.60491 146.163 580.54319 140.52692 569.04102 135.00586 C 557.99889 132.70541 545.00158 126.49495 530.04883 116.37305 C 518.54667 109.93184 513.2553 100.26915 514.17578 87.386719 C 516.93626 80.025337 518.31641 72.664126 518.31641 65.302734 C 518.31641 49.1997 511.8178 34.420434 498.82031 20.962891 C 485.82281 7.5053474 470.46725 0.77539063 452.75391 0.77539062 z M 452.75391 20.099609 C 464.25609 20.099609 474.89695 24.643757 484.67383 33.730469 C 494.4506 42.81719 499.33789 53.571803 499.33789 65.994141 C 499.33789 77.266273 495.14072 87.617048 486.74414 97.048828 C 478.34755 106.48058 466.90288 111.19727 452.41016 111.19727 C 439.06757 111.19727 428.02489 106.25121 419.2832 96.359375 C 410.54151 86.467496 406.16992 76.114786 406.16992 65.302734 C 406.16992 54.030612 410.54151 43.679838 419.2832 34.248047 C 428.02489 24.816269 439.18136 20.099609 452.75391 20.099609 z M 452.75391 52.535156 C 445.85266 53.455328 441.94392 57.711298 441.02344 65.302734 C 441.48357 71.743965 445.39253 75.654915 452.75391 77.035156 C 459.65517 76.34503 463.56585 72.434091 464.48633 65.302734 C 463.56616 58.171388 459.65517 53.915419 452.75391 52.535156 z M 421.98438 127.66797 C 422.17368 127.66597 422.36714 127.68481 422.56641 127.72461 C 429.58083 127.72461 432.61081 130.9123 431.6543 137.28906 C 430.69777 143.66577 425.75555 145.26062 416.82812 142.07227 C 417.42595 132.50716 419.14476 127.70533 421.98438 127.66797 z M 460.82812 138.24609 C 492.07412 152.91256 509.60951 184.15883 513.43555 231.98438 L 513.43555 265.46094 C 508.97184 264.18561 498.45059 263.54883 481.87109 263.54883 C 472.94365 263.54883 468.48047 269.28752 468.48047 280.76562 L 468.48047 363.02539 L 437.87109 363.02539 L 437.87109 279.80859 C 439.78413 250.47561 443.45087 227.99799 448.87109 212.375 C 454.29133 196.75198 458.27746 172.04277 460.82812 138.24609 z M 412.04492 145.89844 C 415.87096 152.91286 420.33611 156.73926 425.4375 157.37695 C 433.08956 158.6523 439.46503 155.782 444.56641 148.76758 C 443.29109 170.44847 439.46464 191.49091 433.08789 211.89648 C 427.9865 227.20065 423.20395 238.99736 418.74023 247.28711 C 416.18952 244.09876 415.07373 239.47586 415.39258 233.41797 C 415.71142 227.36005 411.56755 222.89687 402.95898 220.02734 C 394.35038 217.1578 388.29237 219.54907 384.78516 227.20117 C 381.27795 234.85324 377.4515 237.72355 373.30664 235.81055 C 369.16175 233.89751 369.0021 230.39044 372.82812 225.28906 C 378.5672 220.82534 381.75686 216.67955 382.39453 212.85352 C 381.11918 209.66516 379.84368 209.3458 378.56836 211.89648 C 377.293 214.44715 373.78595 217.95422 368.04688 222.41797 C 361.67012 223.69329 357.20498 222.41784 354.6543 218.5918 C 350.19058 216.67877 350.19058 212.53491 354.6543 206.1582 C 370.59616 186.39031 379.04545 173.95491 380.00195 168.85352 C 380.95845 163.75213 391.63935 156.10122 412.04492 145.89844 z M 402.48047 161.20117 C 398.65444 161.20117 394.82799 162.31892 391.00195 164.55078 C 387.17592 166.78263 384.94432 170.13003 384.30664 174.59375 C 384.30664 177.78214 385.58213 179.69436 388.13281 180.33203 C 397.69791 180.33203 405.66817 175.54948 412.04492 165.98438 C 408.85653 163.43365 405.66883 161.83885 402.48047 161.20117 z M 402.48047 166.94141 C 400.56744 170.76747 396.74098 173.31843 391.00195 174.59375 C 392.91495 170.76772 396.7414 168.21676 402.48047 166.94141 z M 486.6543 273.11328 C 503.23383 273.11328 515.6673 275.02749 523.95703 278.85352 C 518.85564 294.15769 513.43633 306.11406 507.69727 314.72266 C 501.95823 323.33126 493.02988 327.31542 480.91406 326.67773 C 480.91406 290.968 482.82827 273.11328 486.6543 273.11328 z M 418.74023 274.07031 C 420.01556 282.36005 422.56651 286.82326 426.39258 287.46094 L 426.39258 326.67773 C 418.10284 326.67773 406.62547 311.05459 391.95898 279.80859 L 418.74023 274.07031 z M 525.87109 305.63477 L 524.91406 330.50391 L 520.32227 321.35742 L 525.87109 305.63477 z M 403.4375 320.93945 C 410.45193 330.50452 418.10284 335.60643 426.39258 336.24414 L 426.39258 374.50391 L 480.91406 374.50391 L 480.91406 337.19922 C 493.66754 336.56158 501.00102 334.32999 502.91406 330.50391 L 479.00195 386.9375 L 430.21875 386.9375 L 403.4375 320.93945 z M 518.69141 325.97656 L 518.69141 337.45508 L 500.04492 386.9375 L 497.17578 386.9375 L 518.69141 325.97656 z M 393.87109 342.93945 L 403.4375 379.28711 C 390.04636 380.56247 381.43738 376.09731 377.61133 365.89453 L 393.87109 342.93945 z M 423.52344 399.37305 L 489.52344 399.37305 C 485.69742 408.30051 483.7832 420.41657 483.7832 435.7207 C 484.42087 454.21324 487.61058 469.35733 493.34961 481.1543 C 499.08869 492.95125 501.95703 507.45857 501.95703 524.67578 C 501.31935 543.80595 498.13164 561.02394 492.39258 576.32812 C 486.65354 591.63229 483.62354 627.34176 483.30469 683.45703 C 482.98586 739.5723 484.74038 781.65917 488.56641 809.7168 C 492.39245 837.77443 492.07307 865.83103 487.60938 893.88867 L 436.91406 893.88867 C 440.10244 864.55567 441.69727 823.42692 441.69727 770.5 C 441.69727 728.41357 437.87085 695.89183 430.21875 672.93555 C 422.56668 649.97931 418.26315 624.95071 417.30664 597.84961 C 416.35011 570.74848 418.26235 542.8496 423.04492 514.1543 C 427.82746 485.45899 430.21875 464.41654 430.21875 451.02539 C 430.21875 434.44587 427.98716 417.22792 423.52344 399.37305 z M 427.34961 912.0625 L 445.52344 912.0625 L 445.52344 950.32227 C 434.0453 960.52501 412.36413 969.13402 380.48047 976.14844 L 363.26367 976.14844 C 363.90135 983.16283 365.4962 987.62607 368.04688 989.53906 C 359.75712 990.81429 353.06039 990.81429 347.95898 989.53906 C 342.8576 988.26384 337.75571 987.62695 332.6543 987.62695 C 328.19059 987.62695 325.95898 986.35156 325.95898 983.80078 L 334.56836 983.80078 L 370.91602 970.41016 C 408.53876 958.29431 427.34961 938.84475 427.34961 912.0625 z M 453.17578 912.0625 L 460.82812 912.0625 L 460.82812 934.0625 C 460.82812 941.07689 458.27719 945.54013 453.17578 947.45312 L 453.17578 912.0625 z M 469.43555 912.0625 L 494.30469 912.0625 L 494.30469 958.93164 C 496.21772 977.42423 494.62485 987.46839 489.52344 989.0625 C 484.42206 990.65672 473.58145 988.90217 457.00195 983.80078 C 446.16149 985.076 434.20512 986.67098 421.13281 988.58398 C 408.0605 990.49698 399.13215 990.81429 394.34961 989.53906 C 389.56703 988.26384 384.3074 987.62695 378.56836 987.62695 C 374.10465 987.62695 371.87305 986.35156 371.87305 983.80078 L 380.48047 983.80078 L 425.4375 970.41016 C 432.45189 967.22174 439.14669 963.71471 445.52344 959.88867 C 461.46529 953.51196 469.43555 945.22227 469.43555 935.01953 L 469.43555 912.0625 z " />
</svg>
