<?xml version="1.0" encoding="UTF-8" standalone="no"?>
<svg
   width="800"
   height="1000"
   version="1.1"
   id="svg1"
   sodipodi:docname="138C1.svg"
   inkscape:version="1.4.3 (0d15f75, 2025-12-25)"
   xmlns:inkscape="http://www.inkscape.org/namespaces/inkscape"
   xmlns:sodipodi="http://sodipodi.sourceforge.net/DTD/sodipodi-0.dtd"
   xmlns="http://www.w3.org/2000/svg"
   xmlns:svg="http://www.w3.org/2000/svg">
  <defs
     id="defs1" />
  <sodipodi:namedview
     id="namedview1"
     pagecolor="#ffffff"
     bordercolor="#000000"
     borderopacity="0.25"
     inkscape:showpageshadow="2"
     inkscape:pageopacity="0.0"
     inkscape:pagecheckerboard="0"
     inkscape:deskcolor="#d1d1d1"
     inkscape:zoom="0.23114192"
     inkscape:cx="638.13608"
     inkscape:cy="-88.690099"
     inkscape:window-width="1680"
     inkscape:window-height="998"
     inkscape:window-x="-8"
     inkscape:window-y="-8"
     inkscape:window-maximized="1"
     inkscape:current-layer="svg1" />
  <path
     id="path13"
     style="fill:#000000;stroke:none;stroke-width:55.4997"
     d="M 374.43555,0.02929688 C 354.62474,-0.60666945 332.27232,16.952649 329.35938,39.824219 327.5937,53.687817 332.0538,68.145884 340.4082,82.419922 l 90.81836,155.167968 c -34.21689,15.9648 -52.10565,28.63373 -53.66797,38.00781 -1.62959,9.77728 -9.12779,22.97812 -22.49023,39.59961 -13.3624,16.62148 -22.65062,30.47178 -27.86524,41.55274 -11.08102,14.99189 -7.49524,26.07214 10.75586,33.24218 5.21459,6.51824 13.03565,9.45263 23.46485,8.80079 -3.25908,12.3846 10e-4,20.69475 9.77929,24.93164 9.77741,4.23682 18.57652,4.23682 26.39844,0 7.82191,-4.23689 12.54816,-10.10368 14.17774,-17.59961 1.62954,-7.49598 5.86676,-10.26602 12.71093,-8.31055 6.84418,1.95548 10.10129,7.98462 9.77539,18.08789 -0.32594,10.10323 4.72703,19.06677 15.15626,26.88867 -0.65184,1.30362 -7.00764,9.4495 -19.06641,24.44141 -12.05877,14.9919 -22.97652,32.91904 -32.75391,53.77734 -9.77739,20.85831 -8.14783,41.71591 4.88867,62.57422 4.56279,65.83402 -5.54117,126.77927 -30.31054,182.83594 L 242.14062,577.71484 C 230.40776,535.34639 216.06857,514.16211 199.12109,514.16211 H 176.09961 V 333.56055 c 0.58412,-13.42765 -5.25567,-27.73109 -17.51563,-42.91016 5.25429,-12.2599 12.11455,-24.95815 20.58008,-38.09375 8.46412,-13.13602 7.73349,-24.0823 -2.1914,-32.83984 -8.75709,20.43376 -19.11954,36.6352 -31.08789,48.60351 -11.96835,11.96825 -20.57779,24.37282 -25.83204,37.2168 -5.2543,12.84354 -15.76456,36.77988 -31.527339,71.80859 15.179149,5.83834 26.855839,-5.54566 35.029299,-34.15234 8.17343,-12.26036 14.45187,-20.28898 18.82812,-24.08203 4.37855,-3.79444 7.44573,2.48176 9.19531,18.82812 v 176.22266 h -34.58789 c -23.465735,0 -23.792406,8.14778 -0.97851,24.44336 -2.60727,26.72473 3.9109,39.76122 19.55469,39.10937 74.95996,222.92314 111.46134,341.23163 109.50586,354.91993 -1.95547,14.34005 -11.56838,26.72315 -28.8418,37.15234 -17.27336,10.42919 -21.67293,20.20656 -13.19922,29.33203 h 389.14063 c 13.03647,-6.51817 13.03647,-15.64216 0,-27.375 -34.54676,-41.06477 -45.62881,-80.66328 -33.24415,-118.79492 12.38471,-38.1316 23.14007,-123.68648 32.26563,-256.6582 h 49.86328 c 0.6518,-82.12956 0.32708,-155.13116 -0.97656,-219.00977 -14.1683,-73.6748 -36.22023,-120.98824 -66.15625,-141.93945 L 663.42773,82.419922 C 671.78213,68.145864 676.2442,53.687817 674.47852,39.824219 671.56612,16.957039 649.2139,-0.60675626 629.40039,0.02929688 601.20977,0.93427246 584.22681,32.7056 603.43359,62.947266 c -20.45077,23.902523 -49.81982,49.505594 -90.14062,82.992184 29.56332,16.26745 54.19186,45.19336 43.42383,80.64453 l -22.23242,-7.69531 c -5.21465,-2.60727 -9.77852,-3.58733 -13.68946,-2.93555 l -26.39844,0.97852 c -7.17007,-12.3846 -18.2502,-18.57617 -33.24218,-18.57617 -7.2099,1.3865 -12.88664,4.42342 -17.0293,9.11328 0.98759,-28.71091 23.79985,-47.66285 46.41992,-61.5293 C 463.19866,123.23285 424.26294,90.835134 400.40234,62.947266 419.6098,32.705643 402.62582,0.93426129 374.43555,0.02929688 Z M 374.17773,17.544922 c 27.23231,3.798026 14.95924,31.603905 3.25391,45.80664 24.48621,30.589437 50.44836,53.461838 83.05469,80.876958 -23.94861,19.07257 -30.88251,40.8899 -32.88672,51.52734 L 355.94336,73.328125 c -7.05444,-12.052965 -9.79534,-22.85218 -8.72852,-31.228516 2.20902,-17.344335 20.22707,-24.620396 26.96289,-24.554687 z m 255.48243,0 c 6.73699,-0.06571 24.75449,7.215163 26.96289,24.554687 1.06682,8.376336 -1.67408,19.175551 -8.72852,31.228516 L 576.23828,195.75781 C 574.24106,185.1558 567.31593,163.31427 543.35156,144.22852 597.61061,98.607939 613.01697,80.075706 626.4043,63.351562 613.07657,50.773008 604.47197,19.117609 629.66016,17.544922 Z M 464.52148,221.78516 c 0.17887,0.003 0.35965,0.0148 0.54297,0.0352 11.08103,0 15.96966,5.70441 14.66602,17.11133 -1.30364,11.40686 -9.77609,13.8502 -25.41992,7.33203 1.26291,-16.41778 4.66601,-24.57712 10.21093,-24.47851 z m 62.14063,15.67968 c 56.05702,27.37649 86.36689,81.47675 90.92969,162.30274 0.65182,57.36032 0.65182,116.3512 0,176.9707 h -26.39844 c 0,-91.25514 -13.36303,-136.88281 -40.08789,-136.88281 -26.72485,0 -39.76121,18.5766 -39.10938,55.73047 v 78.21875 H 495.375 c -3.91096,-102.98788 -0.97658,-169.7999 8.80078,-200.43555 9.77738,-30.63565 17.27174,-75.93668 22.48633,-135.9043 z m -80.17383,15.64454 c 6.51826,12.38459 14.01259,18.90093 22.48633,19.55273 13.03652,2.6073 24.11858,-1.95469 33.24414,-13.6875 -1.9555,36.50205 -8.47366,72.02568 -19.55469,106.57227 -8.47374,26.07287 -16.62142,46.28099 -24.44336,60.62109 -4.56276,-5.86644 -6.68138,-14.01617 -6.35547,-24.44531 0.3259,-10.42913 -6.67938,-17.92355 -21.01953,-22.48633 -14.34015,-4.56276 -24.44606,-0.48985 -30.3125,12.2207 -5.86645,12.71054 -12.54697,17.76161 -20.04297,15.1543 -7.49597,-2.60726 -7.9831,-8.47407 -1.46484,-17.59961 9.77735,-7.82187 15.64217,-14.66489 17.59766,-20.53125 -2.60729,-5.8664 -5.05258,-6.84453 -7.33399,-2.93359 -2.28138,3.91093 -8.30853,10.10447 -18.08594,18.57812 -11.08102,1.30369 -18.57927,-1.30403 -22.49023,-7.82227 -7.17008,-2.60731 -7.17008,-9.45028 0,-20.53125 27.37667,-33.2429 41.8802,-54.42918 43.50977,-63.55468 1.62959,-9.12555 19.71887,-22.16011 54.26562,-39.10742 z m -16.62305,26.39843 c -6.51823,0 -13.03446,1.79193 -19.55273,5.37696 -6.51825,3.58499 -10.10403,9.61417 -10.75586,18.08789 0,4.56277 2.28096,7.49519 6.84375,8.79882 15.64378,0 29.00683,-7.82111 40.08789,-23.46484 -5.21462,-5.21456 -10.75661,-8.147 -16.62305,-8.79883 z m 0,9.77539 c -3.25911,6.51821 -9.45061,11.08216 -18.57617,13.68946 2.60733,-7.17002 8.79883,-11.73397 18.57617,-13.68946 z m 41.06641,164.25977 V 597.27148 H 532.5293 V 493.63086 c 1.30367,-20.20652 7.16845,-30.30859 17.59765,-30.30859 9.77738,0 14.34127,10.75352 13.68946,32.26367 4.56277,65.83402 2.60656,134.60226 -5.86719,206.30273 -8.47375,71.70039 -17.92631,127.10553 -28.35547,166.21485 -10.42923,39.10934 -3.58435,71.37385 20.5332,96.79492 H 261.69531 c 6.51823,-7.82187 10.9178,-20.04458 13.19922,-36.66602 2.28137,-16.62146 -5.05254,-45.1378 -22,-85.55078 L 179.56445,620.73633 c 0.6518,-35.19841 15.64439,-42.04333 44.97657,-20.53321 l 99.73046,148.61719 37.15235,46.92969 c 20.2066,13.68826 33.24292,6.8453 39.10937,-20.53125 23.46571,-54.1012 32.2668,-119.61041 26.40039,-196.52539 -18.90294,-24.76926 -4.23702,-66.4864 43.99805,-125.15039 z m -331.45312,84.08594 h 33.24218 c 20.85842,0 34.54619,10.75352 41.06446,32.26367 H 172.7207 c -22.16206,0 -33.24218,-10.75352 -33.24218,-32.26367 z"
     sodipodi:nodetypes="ssccsscccssssscsscccscccccsccccccscccscccscccccssccccccccccssccccssssccccsccscsccccscccsccccccssssccscccsccccccccccccccscssccscccccccccscscs" />
</svg>
