<?xml version="1.0" encoding="UTF-8" standalone="no"?>
<svg
   width="9.014784"
   height="17.972734"
   version="1.1"
   id="svg1"
   sodipodi:docname="138C3.svg"
   inkscape:version="1.4.3 (0d15f75, 2025-12-25)"
   xmlns:inkscape="http://www.inkscape.org/namespaces/inkscape"
   xmlns:sodipodi="http://sodipodi.sourceforge.net/DTD/sodipodi-0.dtd"
   xmlns="http://www.w3.org/2000/svg"
   xmlns:svg="http://www.w3.org/2000/svg">
  <defs
     id="defs1" />
  <sodipodi:namedview
     id="namedview1"
     pagecolor="#ffffff"
     bordercolor="#666666"
     borderopacity="1.0"
     inkscape:showpageshadow="2"
     inkscape:pageopacity="0.0"
     inkscape:pagecheckerboard="0"
     inkscape:deskcolor="#d1d1d1"
     inkscape:zoom="22.627417"
     inkscape:cx="7.3583299"
     inkscape:cy="7.5793008"
     inkscape:window-width="1680"
     inkscape:window-height="998"
     inkscape:window-x="-8"
     inkscape:window-y="-8"
     inkscape:window-maximized="1"
     inkscape:current-layer="svg1" />
  <path
     id="path6"
     style="fill:#000000;stroke:none"
     d="M 5.6171875 0 C 5.2249255 0 4.959047 0.14245304 4.8164062 0.42773438 C 4.8282932 0.48716837 4.8757782 0.53847479 4.9589844 0.58007812 C 5.0421914 0.62168143 5.1371599 0.64257812 5.2441406 0.64257812 C 5.3392346 0.64257812 5.3867187 0.69006222 5.3867188 0.78515625 C 5.148984 1.022891 5.0179139 1.5072472 4.9941406 2.2382812 C 4.9703666 2.9693152 5.0121596 3.3814692 5.1191406 3.4765625 C 5.2261213 3.5716565 5.3097066 3.6305236 5.3691406 3.6542969 C 5.2978196 3.7018439 5.2617188 3.8272229 5.2617188 4.0292969 C 4.596062 4.3502389 4.2484667 4.597174 4.21875 4.7695312 C 4.1890327 4.9418893 4.052271 5.1831328 3.8085938 5.4921875 C 3.5649157 5.8012422 3.3958754 6.0557378 3.3007812 6.2578125 C 3.0868201 6.5312072 3.1456869 6.7344804 3.4785156 6.8652344 C 3.5736096 6.9841017 3.7217541 7.0315858 3.9238281 7.0078125 C 3.8525081 7.2455472 3.909506 7.4032053 4.09375 7.4804688 C 4.2779947 7.5577328 4.4375221 7.5577327 4.5742188 7.4804688 C 4.7109166 7.4032057 4.7983244 7.2949011 4.8339844 7.1582031 C 4.8696444 7.0215058 4.949408 6.9721518 5.0742188 7.0078125 C 5.1990293 7.0434725 5.2578964 7.1498243 5.2519531 7.328125 C 5.2460131 7.5064263 5.333418 7.6735977 5.5117188 7.828125 C 5.4998321 7.8400117 5.3858357 7.9843332 5.171875 8.2636719 C 4.9579137 8.5430092 4.7622851 8.8735302 4.5839844 9.2539062 C 4.4056831 9.6342816 4.430402 10.014156 4.65625 10.394531 C 4.739457 11.595091 4.5609029 12.700564 4.1210938 13.710938 L 1.7675781 10.287109 C 1.3634294 9.8591878 0.92842642 9.758527 0.46484375 9.984375 C 0.00126108 10.210223 -0.116473 10.614817 0.109375 11.197266 C 1.2742743 14.656305 1.8383944 16.510145 1.8027344 16.759766 C 1.7670744 17.021274 1.5923423 17.245442 1.2773438 17.429688 C 0.9623457 17.61393 0.88062897 17.794355 1.0351562 17.972656 L 8.1152344 17.972656 C 8.3529684 17.853789 8.3529684 17.686617 8.1152344 17.472656 C 7.4971234 16.723793 7.2976734 16.002015 7.5175781 15.306641 C 7.7374828 14.611267 7.9292891 13.051846 8.0957031 10.626953 L 8.9335938 10.626953 C 9.0049144 9.1292252 9.0296324 7.7977118 9.0058594 6.6328125 C 8.7324647 4.6952758 7.95938 3.7151802 6.6875 3.6914062 C 6.1493549 3.4165398 5.8535156 3.2375722 5.8535156 2.9648438 C 5.8535156 2.8147912 5.9090374 2.5896543 6.0898438 2.2832031 C 6.4405023 1.6888668 6.6171875 1.3013476 6.6171875 1.1230469 C 6.6647348 0.93285885 6.6172501 0.74861317 6.4746094 0.5703125 C 6.4151754 0.41578517 6.3258985 0.28471503 6.2070312 0.17773438 C 6.0881639 0.070753695 5.8905822 0.01188667 5.6171875 0 z M 5.5273438 0.19335938 C 5.6031217 0.19187338 5.6833523 0.20185435 5.7695312 0.22265625 C 5.9418885 0.26426025 6.088164 0.3744337 6.2070312 0.55273438 L 5.5644531 0.55273438 C 5.3504918 0.55273436 5.2023476 0.51094167 5.1191406 0.42773438 C 5.1191406 0.34452768 5.1836986 0.2799692 5.3144531 0.23242188 C 5.3798301 0.20864858 5.4515662 0.1948452 5.5273438 0.19335938 z M 5.4394531 0.2265625 C 5.4067641 0.2265625 5.3744849 0.23131948 5.3417969 0.24023438 C 5.2764199 0.25806438 5.2384492 0.28847412 5.2265625 0.33007812 C 5.2146755 0.37168143 5.2469548 0.40209187 5.3242188 0.41992188 C 5.4014818 0.43775188 5.4755543 0.43962057 5.546875 0.42773438 C 5.6181951 0.41584714 5.6542969 0.3797458 5.6542969 0.3203125 C 5.6424102 0.28465183 5.6024861 0.25806436 5.5371094 0.24023438 C 5.5044209 0.23131936 5.4721418 0.2265625 5.4394531 0.2265625 z M 6.0175781 0.78125 C 6.2269082 0.7864265 6.3320312 0.88309634 6.3320312 1.0703125 C 6.2963705 1.3080465 6.1614782 1.6347452 5.9296875 2.0507812 C 5.6978962 2.4668167 5.5820313 2.7992068 5.5820312 3.0488281 C 5.5820312 3.1607593 5.6844941 3.3550739 5.8847656 3.4804688 C 5.9486249 3.5204526 6.0203762 3.5537885 6.0976562 3.5820312 C 5.778864 3.5722751 5.5590822 3.5106761 5.4394531 3.3964844 C 5.3086991 3.2716737 5.2441406 2.9658716 5.2441406 2.4785156 C 5.2441406 1.9911596 5.3068296 1.5865663 5.4316406 1.265625 C 5.5564513 0.944683 5.7198003 0.78515625 5.921875 0.78515625 C 5.9560493 0.78218458 5.9876738 0.7805105 6.0175781 0.78125 z M 7.9199219 2.5917969 L 7.9003906 2.6113281 L 7.9179688 2.6210938 C 7.9183635 2.6112238 7.9195719 2.6015569 7.9199219 2.5917969 z M 5.7832031 3.7949219 C 5.7934071 3.7942254 5.8033091 3.7946494 5.8144531 3.796875 C 6.0165271 3.796875 6.105804 3.8994878 6.0820312 4.1015625 C 6.0582572 4.3036365 5.9024688 4.3454298 5.6171875 4.2265625 C 5.6279595 3.9464817 5.6845685 3.8016547 5.7832031 3.7949219 z M 6.9375 4.171875 C 7.947872 4.504703 8.5006091 5.4620333 8.5957031 7.0429688 C 8.6075891 8.0771141 8.601893 9.1464872 8.578125 10.251953 L 8.1152344 10.251953 C 8.1152344 8.5878112 7.8644777 7.7558594 7.3652344 7.7558594 C 6.8778791 7.7558594 6.6461492 8.1015856 6.6699219 8.7910156 L 6.6699219 10.216797 L 6.3671875 10.216797 C 6.2958675 8.3386941 6.349043 7.1192236 6.5273438 6.5605469 C 6.7056444 6.0018709 6.842406 5.2060203 6.9375 4.171875 z M 5.4746094 4.3691406 C 5.5934767 4.5949886 5.7245462 4.7070312 5.8671875 4.7070312 C 6.1168082 4.7664643 6.3200814 4.6828793 6.4746094 4.4570312 C 6.4508354 5.1345754 6.3311488 5.7879719 6.1171875 6.4179688 C 5.9626602 6.8934381 5.8202071 7.2562387 5.6894531 7.5058594 C 5.6062464 7.4107661 5.5682753 7.268313 5.5742188 7.078125 C 5.5801619 6.8879377 5.4509611 6.749307 5.1894531 6.6601562 C 4.9279451 6.5710057 4.7418304 6.6450778 4.6289062 6.8828125 C 4.5159823 7.1205472 4.3944259 7.2116938 4.2636719 7.1582031 C 4.1329179 7.1047131 4.1272265 6.994539 4.2460938 6.828125 C 4.4243944 6.697371 4.5307462 6.5739454 4.5664062 6.4550781 C 4.5188595 6.3599841 4.4713748 6.346648 4.4238281 6.4179688 C 4.3762808 6.4892888 4.2699296 6.6032845 4.1035156 6.7578125 C 3.9014416 6.7815858 3.7646804 6.7341017 3.6933594 6.6152344 C 3.5507187 6.5558004 3.5507187 6.4304217 3.6933594 6.2402344 C 4.1926021 5.6340111 4.4527892 5.2484453 4.4765625 5.0820312 C 4.5003358 4.9156165 4.8327261 4.6781953 5.4746094 4.3691406 z M 5.1542969 4.8496094 C 5.0473162 4.8496094 4.9314513 4.8818886 4.8066406 4.9472656 C 4.6818296 5.0126426 4.6191406 5.1171249 4.6191406 5.2597656 C 4.6072536 5.3548586 4.6490476 5.413726 4.7441406 5.4375 C 5.0294226 5.4375 5.2725354 5.2950476 5.4746094 5.0097656 C 5.3676294 4.9146725 5.2612776 4.8614967 5.1542969 4.8496094 z M 5.171875 5.0273438 C 5.1005543 5.146211 4.9885117 5.2241056 4.8339844 5.2597656 C 4.8815311 5.1408983 4.9935737 5.0630038 5.171875 5.0273438 z M 5.921875 8.0234375 L 5.921875 10.644531 L 7.0449219 10.644531 L 7.0449219 8.7539062 C 7.0568086 8.3854176 7.1574691 8.2011719 7.3476562 8.2011719 C 7.5378443 8.2011719 7.6271217 8.3987536 7.6152344 8.7910156 C 7.6984414 9.9915756 7.6604704 11.245194 7.5 12.552734 C 7.3395293 13.860275 7.1628443 14.870781 6.9726562 15.583984 C 6.7824691 16.297187 6.9135392 16.878382 7.3652344 17.330078 L 2.0878906 17.330078 C 2.2186446 17.199324 2.3041001 16.982799 2.3457031 16.679688 C 2.3873061 16.376576 2.2543671 15.856118 1.9453125 15.119141 L 0.58984375 11.072266 C 0.60173045 10.430383 0.88094502 10.305004 1.4277344 10.697266 L 3.2460938 13.408203 L 3.9238281 14.263672 C 4.2804301 14.501407 4.5121599 14.376028 4.6191406 13.888672 C 5.0470626 12.902073 5.2142346 11.709275 5.1191406 10.306641 C 4.7744259 9.8549442 5.042257 9.0932428 5.921875 8.0234375 z " />
</svg>
