<?xml version="1.0" encoding="UTF-8" standalone="no"?>
<svg
   width="800"
   height="1000"
   version="1.1"
   id="svg1"
   sodipodi:docname="138C2.svg"
   inkscape:version="1.4.3 (0d15f75, 2025-12-25)"
   xmlns:inkscape="http://www.inkscape.org/namespaces/inkscape"
   xmlns:sodipodi="http://sodipodi.sourceforge.net/DTD/sodipodi-0.dtd"
   xmlns="http://www.w3.org/2000/svg"
   xmlns:svg="http://www.w3.org/2000/svg">
  <defs
     id="defs1" />
  <sodipodi:namedview
     id="namedview1"
     pagecolor="#ffffff"
     bordercolor="#000000"
     borderopacity="0.25"
     inkscape:showpageshadow="2"
     inkscape:pageopacity="0.0"
     inkscape:pagecheckerboard="0"
     inkscape:deskcolor="#d1d1d1"
     inkscape:zoom="0.92456769"
     inkscape:cx="429.93066"
     inkscape:cy="228.75556"
     inkscape:window-width="1680"
     inkscape:window-height="998"
     inkscape:window-x="-8"
     inkscape:window-y="-8"
     inkscape:window-maximized="1"
     inkscape:current-layer="svg1"
     showguides="true">
    <sodipodi:guide
       position="462.1879,803.86705"
       orientation="0,-1"
       id="guide1"
       inkscape:locked="false" />
    <sodipodi:guide
       position="800,1000"
       orientation="1,0"
       id="guide2"
       inkscape:locked="false" />
    <sodipodi:guide
       position="797.411,855.91763"
       orientation="1,0"
       id="guide3"
       inkscape:locked="false" />
  </sodipodi:namedview>
  <path
     id="path1-94"
     style="fill:#000000;stroke:none;stroke-width:1"
     d="M 550.81445 -0.00390625 C 536.0356 -0.00390637 523.5106 5.8729969 515.83008 15.972656 C 508.14955 26.072316 505.14828 39.359216 505.23047 54.146484 L 506.11523 213.31836 C 502.67473 213.49895 499.17456 213.82115 495.61719 214.28516 C 488.41218 201.84011 477.27794 195.94459 462.21289 196.59961 C 445.18283 199.21961 436.66797 211.33804 436.66797 232.95312 C 399.98788 249.98315 380.82892 263.41131 379.19141 273.23633 C 377.55394 283.06137 370.02132 296.32479 356.59375 313.02734 C 343.16621 329.72987 333.8318 343.97559 328.5918 355.76562 C 316.80177 370.83067 320.07791 381.96684 338.41797 389.17188 C 343.65798 395.06686 351.84543 397.68623 362.98047 397.03125 C 359.05044 409.47626 362.16193 417.82647 372.31445 422.08398 C 382.46701 426.34148 391.3093 426.50617 398.8418 422.57617 C 406.37435 418.64617 411.1229 412.75065 413.08789 404.89062 C 415.0529 397.0306 419.47406 394.24655 426.35156 396.53906 C 433.22907 398.83156 436.50325 404.89176 436.17578 414.7168 C 435.84828 424.54182 440.59686 433.38412 450.42188 441.24414 C 449.76689 442.55414 443.54589 450.7416 431.75586 465.80664 C 419.9658 480.87169 409.15705 498.88372 399.33203 519.84375 C 389.50702 540.80385 390.81667 561.76459 403.26172 582.72461 C 407.84674 648.87983 398.02219 710.12101 373.78711 766.45117 L 243.11523 576.82812 C 231.32517 534.25299 205.75728 513.29419 188.07227 513.94922 L 179.16602 513.94922 L 179.16602 318.45898 C 179.79365 304.03089 173.52098 288.66154 160.34766 272.35156 C 165.99338 259.17824 173.36277 245.53419 182.45898 231.41992 C 191.55367 217.3052 190.76976 205.54283 180.10547 196.13281 C 170.69598 218.08899 159.56312 235.49741 146.70312 248.35742 C 133.84314 261.21737 124.58904 274.54673 118.94336 288.34766 C 113.29762 302.14812 102.00545 327.86733 85.068359 365.50586 C 101.37834 371.77918 113.92464 359.54661 122.70703 328.80859 C 131.48937 315.63476 138.23522 307.0073 142.9375 302.93164 C 147.64224 298.85451 150.93844 305.59785 152.81836 323.16211 L 152.81836 513.94922 L 117.35352 513.94922 C 93.77346 513.94922 93.44601 521.80924 116.37109 537.5293 C 113.75106 564.38435 120.30142 577.81055 136.02148 577.81055 C 211.34669 801.16616 248.02751 919.72148 246.0625 933.47656 C 244.09751 947.88661 234.43569 960.3325 217.07812 970.8125 C 199.72059 981.2926 195.29943 991.11713 203.81445 1000.2871 L 593.86719 1000.2871 C 606.96723 994.3921 606.96723 985.22237 593.86719 972.77734 C 559.80727 931.51231 548.83557 891.7219 560.95312 853.4043 C 573.07063 815.08671 583.71473 729.44394 592.88477 596.47852 L 639.0625 595.49609 C 642.99273 512.96587 644.30239 439.60617 642.99219 375.41602 C 623.1866 274.12449 583.82769 220.25451 524.91211 213.80469 C 527.1512 199.68965 534.28019 190.25388 543.62891 183.32617 C 554.99836 174.90104 570.13485 170.90708 582.08398 170.58789 L 594.63672 170.25391 L 590.28711 158.47266 C 577.14198 122.87971 566.71237 90.497309 562.1582 66.289062 C 577.84496 57.736982 585.64186 43.09389 584.47266 29.371094 C 583.13888 13.716633 569.4975 -0.00390612 550.81445 -0.00390625 z M 550.81445 17.996094 C 561.53862 17.996094 565.9303 23.778275 566.53711 30.900391 C 567.14392 38.022507 563.31848 47.214061 548.76172 52.664062 L 541.92188 55.226562 L 543.01953 62.447266 C 546.79002 87.231295 556.92526 119.03003 569.48242 153.77148 C 557.22627 155.7904 544.21805 160.48717 532.91211 168.86523 C 529.71208 171.23656 526.72156 174.00533 523.91406 177.02148 L 523.23047 54.046875 C 523.16257 41.832017 525.82329 32.567465 530.1582 26.867188 C 534.49311 21.166912 540.33487 17.996094 550.81445 17.996094 z M 466.51953 219.16211 C 466.71846 219.16531 466.92031 219.1768 467.125 219.19727 C 478.26002 219.85225 483.17328 225.74776 481.86328 236.88281 C 480.55331 248.01782 472.03841 250.30977 456.31836 243.75977 C 456.95286 227.26189 460.35266 219.06295 466.51953 219.16211 z M 529.02344 234.91797 C 584.69859 262.42804 615.1546 316.79345 620.39453 398.01367 C 621.04964 455.65383 620.72232 514.93052 619.41211 575.8457 L 593.86719 575.8457 C 593.86719 484.14545 580.11362 438.29688 552.60352 438.29688 C 525.74848 438.29687 512.97517 456.96372 514.28516 494.29883 L 514.28516 572.89844 L 497.58203 572.89844 C 493.65203 469.40816 496.60077 402.27143 506.42578 371.48633 C 516.25079 340.70124 523.78341 295.17813 529.02344 234.91797 z M 448.45703 251.62109 C 455.00706 263.41112 462.21226 269.63404 470.07227 270.28906 C 483.82731 273.56407 494.96347 268.97825 503.47852 256.5332 C 502.1685 293.2133 495.61816 328.90989 483.82812 363.625 C 475.3131 389.82506 467.45306 410.13096 460.24805 424.54102 C 455.66303 419.30099 453.53383 411.44097 453.86133 400.96094 C 454.1888 390.4809 447.14831 382.78556 432.73828 377.87305 C 418.32825 372.96055 408.01158 377.05426 401.78906 390.1543 C 395.56653 403.25433 388.85151 408.33032 381.64648 405.38281 C 374.44148 402.4353 374.11403 396.3751 380.66406 387.20508 C 390.48908 379.34508 396.38459 372.46925 398.34961 366.57422 C 395.72958 360.67921 393.11023 359.695 390.49023 363.625 C 387.87022 367.55501 381.97471 374.10535 372.80469 383.27539 C 361.66966 384.58538 354.13707 381.63862 350.20703 374.43359 C 342.34702 371.81359 342.34702 365.26322 350.20703 354.7832 C 377.71711 320.7231 392.1275 299.10752 393.4375 289.9375 C 394.74751 280.76746 413.08693 267.99614 448.45703 251.62109 z M 430.77344 277.16602 C 424.87842 277.16602 418.4908 279.13055 411.61328 283.06055 C 404.73576 286.99055 401.29688 292.88607 401.29688 300.74609 C 400.64189 305.33112 402.93578 308.27789 408.17578 309.58789 C 423.89584 310.24289 437.32201 302.38286 448.45703 286.00781 C 442.56201 280.76777 436.66844 277.821 430.77344 277.16602 z M 431.75586 286.99023 C 427.82583 293.54026 421.60291 298.12609 413.08789 300.74609 C 415.70792 293.54108 421.93084 288.95525 431.75586 286.99023 z M 473.01953 452.05078 L 473.01953 596.47852 L 534.91797 596.47852 L 534.91797 493.31641 C 535.573 472.35639 541.14107 461.87695 551.62109 461.87695 C 562.10114 461.87695 567.01252 473.01119 566.35742 495.28125 C 570.94243 560.78145 568.81323 629.55722 559.9707 701.60742 C 551.12818 773.65758 541.4683 829.3328 530.98828 868.63281 C 520.50826 907.93301 527.71347 940.35536 552.60352 965.90039 L 261.78125 965.90039 C 268.98626 958.04029 273.73679 945.75916 276.0293 929.05664 C 278.32179 912.35412 270.95191 883.69805 253.92188 843.08789 L 179.25195 620.05859 C 179.90696 584.68849 195.29962 577.81073 225.42969 599.42578 L 325.64453 748.76758 L 362.98047 795.92773 C 382.63051 809.68281 395.40186 802.80498 401.29688 775.29492 C 424.87691 721.58476 434.04664 656.08318 428.80664 578.79297 C 409.81159 553.90291 424.54938 511.65595 473.01953 452.05078 z M 138.96875 536.54688 L 173.35742 536.54688 C 194.31749 536.54687 208.07108 547.35367 214.62109 568.96875 L 173.35742 568.96875 C 150.43235 568.96875 138.96875 558.16196 138.96875 536.54688 z " />
</svg>
