<?xml version="1.0" encoding="UTF-8" standalone="no"?>
<svg
   width="550"
   height="1000"
   version="1.1"
   id="svg1"
   sodipodi:docname="138DF.svg"
   inkscape:version="1.4.3 (0d15f75, 2025-12-25)"
   xmlns:inkscape="http://www.inkscape.org/namespaces/inkscape"
   xmlns:sodipodi="http://sodipodi.sourceforge.net/DTD/sodipodi-0.dtd"
   xmlns="http://www.w3.org/2000/svg"
   xmlns:svg="http://www.w3.org/2000/svg">
  <defs
     id="defs1" />
  <sodipodi:namedview
     id="namedview1"
     pagecolor="#ffffff"
     bordercolor="#666666"
     borderopacity="1.0"
     inkscape:showpageshadow="2"
     inkscape:pageopacity="0.0"
     inkscape:pagecheckerboard="0"
     inkscape:deskcolor="#d1d1d1"
     showguides="true"
     inkscape:zoom="1.0677312"
     inkscape:cx="337.63178"
     inkscape:cy="346.99743"
     inkscape:window-width="1680"
     inkscape:window-height="998"
     inkscape:window-x="-8"
     inkscape:window-y="-8"
     inkscape:window-maximized="1"
     inkscape:current-layer="svg1">
    <sodipodi:guide
       position="11.72266,430.85156"
       orientation="1,0"
       id="guide1"
       inkscape:locked="false" />
  </sodipodi:namedview>
  <path
     id="path1"
     style="fill:#000000;stroke:none;stroke-width:55.6391"
     d="M 436.50586 0.013671875 C 432.79353 0.15218883 429.49645 1.3286086 426.61523 3.5449219 C 418.93202 9.4550907 412.13478 20.094499 406.22461 35.460938 C 392.0402 56.737544 375.7883 72.399998 357.4668 82.447266 C 339.14526 92.494571 324.07421 104.75839 312.25391 119.23828 C 300.43353 133.7182 294.22771 141.84416 293.63672 143.61719 C 274.13318 129.43282 259.35786 115.83831 249.31055 102.83594 C 239.26328 89.833565 233.64883 78.604706 232.4668 69.148438 C 231.28477 59.692166 232.4658 52.305499 236.01172 46.986328 C 239.55782 41.667195 244.2871 38.268568 250.19727 36.791016 C 256.10744 35.313465 261.86973 36.198598 267.48438 39.449219 C 273.09902 42.699802 275.61056 47.872641 275.01953 54.964844 C 273.2465 62.648045 268.22345 67.375367 259.94922 69.148438 C 254.03905 66.784369 250.49258 67.375774 249.31055 70.921875 C 248.71956 79.196111 251.67461 83.47991 258.17578 83.775391 C 264.67695 84.070909 271.76794 81.559367 279.45117 76.240234 C 287.13437 70.921063 290.68083 61.466416 290.08984 47.873047 C 281.22457 31.324574 272.06365 22.311535 262.60742 20.833984 C 253.15115 19.356433 242.95727 21.720095 232.02344 27.925781 C 221.08962 34.131468 214.8838 44.916764 213.40625 60.283203 C 211.92874 75.649641 217.09958 91.164257 228.91992 106.82617 C 240.74022 122.48813 258.76634 140.36637 282.99805 160.46094 C 278.86092 166.96211 271.47421 179.66949 260.83594 198.58203 L 232.4668 198.58203 L 242.21875 264.18359 C 227.44335 274.23086 220.05469 286.64253 220.05469 301.41797 C 215.91755 297.87183 215.1783 292.25742 217.83789 284.57422 C 220.49748 276.89102 220.34964 270.68516 217.39453 265.95703 C 214.43946 261.2289 206.75707 260.04804 194.3457 262.41211 C 191.39064 261.82107 182.52544 265.36559 167.75 273.04883 C 161.24883 275.4129 157.70233 278.95936 157.11133 283.6875 L 157.11133 292.55273 L 165.97656 287.23438 C 177.20589 289.00741 185.4797 289.0074 190.79883 287.23438 C 196.118 285.4613 197.74433 287.67712 195.67578 293.88281 C 193.60719 300.0885 194.05075 307.0336 197.00586 314.7168 C 201.73399 320.62697 206.16563 323.58203 210.30273 323.58203 L 211.18945 333.33398 C 208.23435 342.79021 207.64295 351.65546 209.41602 359.92969 C 199.95975 377.6602 195.23242 389.77613 195.23242 396.27734 C 195.23242 399.23241 199.36835 401.00467 207.64258 401.5957 L 206.75781 409.57422 C 207.34884 411.34729 208.82538 412.53009 211.18945 413.12109 C 209.41638 414.89412 208.82499 416.9621 209.41602 419.32617 C 214.14415 421.69028 215.91836 422.87305 214.73633 422.87305 C 211.19023 440.60352 218.28121 449.46875 236.01172 449.46875 L 253.74219 449.46875 C 254.92422 460.69809 261.72148 475.7691 274.13281 494.68164 C 267.27443 503.48126 249.5211 523.56035 225.37305 566.49023 C 214.73475 585.40277 216.80467 604.31406 231.58008 623.22656 C 235.71721 682.91929 226.5563 737.88468 204.09766 788.12109 L 87.076172 617.9082 L 87.076172 617.02148 C 77.279487 585.90244 59.335983 569.67389 33.244141 568.33594 L 33.244141 335.77148 C 46.032611 335.77148 54.999814 326.87678 60.146484 309.08789 C 65.293034 291.29908 73.793724 282.4043 85.646484 282.4043 C 88.765674 279.57065 90.326172 275.95084 90.326172 271.54297 C 90.326172 261.46788 81.668732 254.61889 64.357422 250.99805 C 47.046153 247.37737 33.479657 245.56641 23.654297 245.56641 C 13.829057 245.56641 0.26049875 247.37737 -17.050781 250.99805 C -34.362041 254.61889 -43.017578 261.46788 -43.017578 271.54297 C -43.017578 275.95084 -41.613941 279.57065 -38.806641 282.4043 C -26.642091 282.4043 -17.986534 291.29908 -12.839844 309.08789 C -7.6933137 326.87678 0.49376625 335.77148 11.722656 335.77148 L 11.722656 569.14844 C -25.511425 568.55744 -32.308644 583.03704 -8.6679688 612.58789 L -0.89453125 639.9668 C -0.3896739 645.31139 1.7551938 652.24505 5.0410156 660.87305 L 5.1757812 661.34766 L 5.1972656 661.32031 C 5.3258902 661.65599 5.3833242 661.89318 5.515625 662.23438 C 63.435241 834.81122 91.213677 927.00975 88.849609 938.83008 C 87.667576 952.42349 79.245903 963.80019 63.583984 972.96094 C 47.922028 982.12169 43.636313 991.13477 50.728516 1000 L 403.56641 1000 C 415.38671 994.08987 415.38671 985.81607 403.56641 975.17773 C 372.2425 937.94372 362.1945 902.03933 373.42383 867.46484 C 384.65314 832.89034 394.40546 750.00063 402.67969 618.79492 L 443.45898 618.79492 C 460.59845 563.23937 470.35077 508.27394 472.71484 453.90039 L 505.51562 425.53125 L 496.65039 413.12109 L 486.01172 421.98633 C 486.62054 412.85447 483.79926 400.86227 472.71484 393.61719 C 470.94177 367.02145 467.3953 345.44886 462.07617 328.90039 C 466.2133 321.21719 468.28125 311.46487 468.28125 299.64453 C 467.69022 281.32299 460.30355 263.88827 446.11914 247.33984 L 415.08984 266.84375 C 412.30852 264.36043 409.10152 262.09417 405.46875 260.04492 L 508.17578 21.275391 L 486.01172 8.8652344 L 429.27539 116.13477 C 428.09336 97.222224 434.00349 80.083236 447.00586 64.716797 C 461.19026 52.89646 469.02054 42.700576 470.49805 34.130859 C 471.9756 25.561106 467.98557 16.843751 458.5293 7.9785156 C 450.03344 2.437721 442.69307 -0.21718975 436.50586 0.013671875 z M 440.13477 21.664062 C 442.05557 21.701003 444.05058 22.458005 446.11914 23.935547 C 453.80238 29.254717 449.96019 37.234743 434.59375 47.873047 C 417.45428 74.468787 408.44124 97.813635 407.55469 117.9082 C 406.66817 138.00277 399.42935 164.89408 385.83594 198.58203 L 286.54492 198.58203 C 294.81915 180.26052 303.98003 163.71099 314.02734 148.93555 C 334.12187 123.52184 353.32885 105.49573 371.65039 94.857422 C 389.9719 84.219119 407.70233 66.193004 424.8418 40.779297 C 429.27442 27.924667 434.37235 21.55325 440.13477 21.664062 z M 489.55859 23.048828 L 495.76367 26.595703 L 391.50195 253.92188 C 373.9521 247.97246 350.19627 245.1871 320.23242 245.56641 C 289.49954 245.56641 269.40549 247.34066 259.94922 250.88672 L 254.62891 214.53906 L 399.13281 213.65234 L 489.55859 23.048828 z M 310.48047 254.43164 C 324.66484 292.25672 333.82576 322.25093 337.96289 344.41406 C 342.09999 366.57718 337.12187 390.06987 317.02734 414.89258 L 327.32422 515.95703 C 350.37386 512.41089 376.08236 505.31991 404.45117 494.68164 C 418.63558 490.5445 423.36485 466.60826 418.63672 422.87305 L 407.11133 360.81641 L 438.14062 399.82227 C 435.18554 403.36837 433.41131 408.39141 432.82031 414.89258 C 432.82031 430.31692 442.33683 443.87853 458.5293 445.03516 L 447.89258 453.01367 L 456.75781 463.65234 C 453.80274 511.52469 445.527 556.73784 431.93359 599.29102 L 314.02734 599.29102 L 314.02734 398.04883 C 321.1195 390.36559 325.84687 381.20471 328.21094 370.56641 C 330.57501 359.9281 331.1664 350.32557 329.98438 341.75586 C 328.80234 333.18611 325.84728 328.30898 321.11914 327.12695 L 296.29688 255.31836 L 310.48047 254.43164 z M 325.55078 255.31836 C 345.05431 254.72732 362.19525 256.20585 376.9707 259.75195 C 398.8383 370.27209 409.32792 434.10076 408.44141 451.24023 C 407.5549 468.37974 399.42894 479.90624 384.0625 485.81641 C 368.69606 491.72658 353.62505 495.27111 338.84961 496.45312 L 331.21094 417.55273 C 347.16841 402.18633 351.85081 384.75159 351.25977 365.24805 C 351.25977 345.74448 342.69025 309.10087 325.55078 255.31836 z M 287.56836 255.72461 L 311.36719 326.24023 L 302.50195 326.24023 L 274.86523 257.07422 L 287.56836 255.72461 z M 442.57227 258.86523 C 451.43754 265.3664 457.05195 276.00386 459.41602 290.7793 C 461.18905 303.19063 458.52971 316.19374 451.4375 329.78711 L 431.93359 322.69531 C 436.07072 313.23908 436.95782 303.48675 434.59375 293.43945 C 432.22968 283.39218 427.79808 276.29924 421.29688 272.16211 L 442.57227 258.86523 z M 23.419922 260.67969 C 43.070462 260.67969 58.821098 263.67025 70.673828 269.65234 C 57.885378 278.46813 50.166884 288.93693 47.515625 301.05859 C 44.864215 313.18013 40.184566 320.18504 33.478516 322.07422 C 26.772406 323.96322 20.14397 323.96322 13.59375 322.07422 C 7.04353 320.18504 2.4423056 313.18013 -0.20898438 301.05859 C -2.8602544 288.93693 -10.578758 278.46813 -23.367188 269.65234 C -11.826457 263.67025 3.7692019 260.67969 23.419922 260.67969 z M 261.7207 261.52539 L 288.31641 328.90039 C 268.22184 314.71598 246.6512 312.35232 223.60156 321.80859 C 209.41715 318.85353 202.47206 312.352 202.76758 302.30469 C 203.06306 292.25742 204.09802 285.46017 205.87109 281.91406 C 207.64412 278.36796 208.5293 274.52772 208.5293 270.39062 C 213.25743 269.7996 213.84883 274.97051 210.30273 285.9043 C 206.75663 296.83812 210.00738 305.25975 220.05469 311.16992 L 226.25977 311.16992 C 226.25977 290.48435 238.08003 273.93676 261.7207 261.52539 z M 389.38086 265.07031 C 414.20357 274.52658 426.31952 285.75544 425.72852 298.75781 C 428.09259 315.30628 420.4102 328.60504 402.67969 338.65234 L 389.38086 265.07031 z M 193.51367 265.875 C 193.84612 265.8565 194.12407 265.88303 194.3457 265.95703 C 200.84691 265.95703 204.09766 268.61642 204.09766 273.93555 C 203.50663 278.66368 200.99512 281.32303 196.5625 281.91406 C 192.12989 282.50506 187.54845 283.24434 182.82031 284.13086 C 178.09218 285.01741 173.06917 285.16526 167.75 284.57422 L 179.27539 282.80078 C 190.5047 281.61874 195.82342 280.43789 195.23242 279.25586 C 195.23242 278.07383 194.64101 277.48242 193.45898 277.48242 C 192.27695 277.48242 190.80041 277.63015 189.02734 277.92578 C 187.25431 278.22129 186.0715 278.66486 185.48047 279.25586 L 185.48047 280.14258 C 188.43558 279.55155 190.65136 279.4037 192.12891 279.69922 C 193.60642 279.99473 189.32266 280.73203 179.27539 281.91406 L 175.72852 274.82227 C 175.72852 274.23124 176.0242 273.93555 176.61523 273.93555 C 176.61523 276.29962 177.20667 277.63026 178.38867 277.92578 C 179.5707 278.22129 180.45585 277.77773 181.04688 276.5957 C 181.04688 275.41367 180.16174 274.23086 178.38867 273.04883 C 186.14578 268.39455 191.18656 266.00427 193.51367 265.875 z M 192.57227 267.73047 C 190.2082 267.73047 189.02734 269.20704 189.02734 272.16211 C 189.02734 274.52618 190.2082 275.41327 192.57227 274.82227 C 195.52738 275.41327 197.30158 274.23241 197.89258 271.27734 C 197.30158 268.91327 195.52738 267.73047 192.57227 267.73047 z M 428.38867 328.90039 L 445.23242 335.99219 C 452.91563 350.76759 456.75781 368.7937 456.75781 390.07031 C 452.62071 390.07031 449.66565 390.9574 447.89258 392.73047 L 432.82031 374.11328 C 437.54844 372.93125 444.04998 374.11406 452.32422 377.66016 C 455.27929 361.70273 446.7098 346.04027 426.61523 330.67383 L 428.38867 328.90039 z M 252.39844 330.875 C 257.35744 330.778 261.94329 331.45002 266.1543 332.89062 C 277.3836 336.73226 282.99805 344.56251 282.99805 356.38281 L 296.29688 356.38281 C 296.29688 345.74454 299.54567 340.42578 306.04688 340.42578 C 311.95704 340.42578 314.17482 347.66464 312.69727 362.14453 C 311.21976 376.62446 305.16179 387.70744 294.52344 395.39062 L 294.52344 478.72266 L 282.99805 479.60938 C 280.04295 475.47228 277.08788 470.15351 274.13281 463.65234 C 271.17771 457.15114 268.81405 448.87735 267.04102 438.83008 L 240.44531 437.94336 C 230.98904 438.53439 226.25977 435.57933 226.25977 429.07812 C 226.8508 419.62185 231.28436 414.5988 239.55859 414.00781 C 239.55859 409.27967 238.0801 406.91406 235.125 406.91406 L 217.39453 406.02734 C 220.94063 398.93514 217.39653 394.20782 206.75781 391.84375 C 206.75781 387.70665 211.48514 377.0692 220.94141 359.92969 L 221.82812 346.63086 L 223.60156 351.06445 C 231.28476 346.92735 237.49062 344.85742 242.21875 344.85742 C 246.94688 344.85742 253.74215 346.04023 262.60742 348.4043 L 278.56641 348.4043 L 278.56641 342.19922 L 262.60742 342.19922 C 254.33319 338.65312 247.2422 336.87891 241.33203 336.87891 C 235.42186 336.87891 228.92032 339.83401 221.82812 345.74414 C 221.82812 342.19807 222.71525 339.5387 224.48828 337.76562 C 234.83107 333.33301 244.13343 331.0366 252.39844 330.875 z M 422.18164 335.99219 C 428.09181 339.53829 433.11681 344.26756 437.25391 350.17773 C 432.52578 348.9957 428.3879 349.88087 424.8418 352.83594 C 433.70707 353.42698 439.91288 355.20119 443.45898 358.15625 C 436.36678 355.79218 430.16097 356.08786 424.8418 359.04297 C 439.61724 360.81604 446.71018 362.88398 446.11914 365.24805 C 440.20897 362.29295 433.11603 361.99726 424.8418 364.36133 L 447.00586 370.56641 C 436.95855 369.38438 429.56993 369.38438 424.8418 370.56641 C 417.15859 361.70118 412.13555 353.72307 409.77148 346.63086 C 414.49962 343.67579 418.63554 340.12932 422.18164 335.99219 z M 240.83203 349.125 C 238.94817 349.0881 237.0458 349.1433 235.125 349.29102 C 227.4418 349.88205 222.41876 356.08786 220.05469 367.9082 C 225.37382 371.4543 231.28396 372.63516 237.78516 371.45312 C 245.46836 371.45312 251.08281 367.61293 254.62891 359.92969 L 278.56641 359.92969 L 278.56641 351.95117 L 257.28906 351.95117 C 251.96988 350.17812 246.48363 349.23582 240.83203 349.125 z M 239.55859 352.83594 C 244.28669 352.83594 248.71834 353.72302 252.85547 355.49609 C 250.4914 360.81526 247.24065 364.65741 243.10352 367.02148 C 244.87659 364.06638 245.46798 361.2592 244.87695 358.59961 C 244.28595 355.94002 242.51366 354.01797 239.55859 352.83594 z M 230.69336 354.60938 C 228.32929 358.15548 227.4422 360.96266 228.0332 363.03125 C 228.62423 365.0998 230.10273 366.72617 232.4668 367.9082 L 224.48828 365.24805 C 225.67032 361.70191 227.73826 358.15547 230.69336 354.60938 z M 459.0293 397.02539 C 466.48193 397.02539 481.26538 404.48094 479.80664 421.98633 L 472.71484 414.00781 C 472.16565 408.36146 466.89095 403.36914 459.70898 403.36914 C 453.04488 403.36914 445.87695 408.20943 445.87695 416.22266 C 445.87695 424.62643 452.74822 429.04041 455.09961 429.82422 L 461.18945 437.94336 C 441.17627 437.94336 439.91211 419.8958 439.91211 415.33594 C 439.91211 405.99997 449.56881 397.02539 459.0293 397.02539 z M 494.87695 419.32617 L 499.82031 425.75195 L 489.01367 434.06445 L 484.24023 428.19141 L 494.87695 419.32617 z M 472.71484 420.21289 L 485.125 437.05664 L 473.60156 445.92188 L 460.30273 429.96484 C 466.27783 429.96484 470.78869 426.41797 472.71484 420.21289 z M 465.42188 443.58789 L 469.52539 449.05859 L 458.9082 457.22656 L 454.98438 452.12695 L 465.42188 443.58789 z M 294.52344 515.95703 L 294.52344 618.79492 L 380.51562 618.79492 C 379.5568 677.28165 368.61372 798.62253 346.82812 880.31836 C 337.37187 915.77934 343.87342 945.03627 366.33203 968.08594 L 103.91992 968.08594 C 109.83009 960.99374 113.96796 949.91077 116.33203 934.83984 C 118.6961 919.76896 111.89888 894.2083 95.941406 858.15625 L 29.451172 656.91406 C 19.251747 626.04404 52.409181 610.13929 71.119141 638.29688 L 160.6582 773.04883 C 188.34272 814.71269 212.2468 845.37347 229.80664 796.98633 C 248.04704 746.72388 259.06132 688.53491 253.74219 618.79492 C 233.05658 596.33632 246.65109 562.05634 294.52344 515.95703 z M 5.5175781 586.87891 C 39.205561 585.69688 58.412535 594.26638 63.140625 612.58789 L 29.453125 612.58789 C 11.131584 610.81482 3.1535111 602.24531 5.5175781 586.87891 z M 36.851562 620.1582 C 36.343378 620.19738 35.907784 620.24048 35.408203 620.2793 L 35.451172 620.2207 L 36.851562 620.1582 z " />
  <circle
     style="fill:#f9f06b;fill-rule:evenodd;stroke-width:75;stroke-linecap:round;stroke-miterlimit:5"
     id="path11"
     cx="459.59592"
     cy="416.866"
     r="8.6853247" />
</svg>
