<?xml version="1.0" encoding="UTF-8" standalone="no"?>
<svg
   width="800"
   height="1000"
   version="1.1"
   id="svg1"
   sodipodi:docname="138F0.svg"
   inkscape:version="1.4.3 (0d15f75, 2025-12-25)"
   xmlns:inkscape="http://www.inkscape.org/namespaces/inkscape"
   xmlns:sodipodi="http://sodipodi.sourceforge.net/DTD/sodipodi-0.dtd"
   xmlns="http://www.w3.org/2000/svg"
   xmlns:svg="http://www.w3.org/2000/svg">
  <defs
     id="defs1" />
  <sodipodi:namedview
     id="namedview1"
     pagecolor="#ffffff"
     bordercolor="#000000"
     borderopacity="0.25"
     inkscape:showpageshadow="2"
     inkscape:pageopacity="0.0"
     inkscape:pagecheckerboard="0"
     inkscape:deskcolor="#d1d1d1"
     inkscape:zoom="0.91415984"
     inkscape:cx="789.24929"
     inkscape:cy="278.3977"
     inkscape:window-width="1680"
     inkscape:window-height="998"
     inkscape:window-x="-8"
     inkscape:window-y="-8"
     inkscape:window-maximized="1"
     inkscape:current-layer="svg1"
     showgrid="false"
     showguides="true" />
  <path
     id="path1"
     style="fill:#000000;stroke:none;stroke-width:55.2761"
     d="M 498.68555,-0.00390625 504.4375,18.181641 c -30.70888,1.800756 -42.76676,26.572997 -44.8457,31.439453 V 17.900391 h -24.34961 v 71.78125 h 84.95508 L 489.64844,200.82617 c -13.36663,0.81848 -22.41016,1.70313 -22.41016,1.70313 l -6.16211,1.72851 c -20.10796,8.79724 -33.30412,20.10939 -39.58789,33.9336 -6.28374,13.82424 -8.48279,23.2484 -6.59766,28.27539 -6.91209,11.93911 -10.36718,25.13531 -10.36718,39.58789 -17.59446,21.36473 -25.13654,33.6179 -22.62305,36.75976 3.77023,4.39865 7.54029,6.91267 11.31055,7.54102 l -1.88477,4.71289 c -5.65538,2.51352 -5.65538,5.9686 0,10.36719 -3.14188,8.16886 -0.94281,12.56892 6.59766,13.19726 0,19.47962 7.8551,29.21875 23.56445,29.21875 h 30.16211 c 5.6554,16.33772 11.62445,27.33487 17.9082,32.99024 -10.05401,13.8242 -24.66273,37.23103 -43.82812,70.2207 -19.16542,32.98962 -20.26491,61.73752 -3.29883,86.24414 4.39863,66.60763 -5.34251,126.61754 -29.2207,180.0293 L 268.79297,596.36328 c -5.65534,-16.33771 -22.93463,-24.50586 -51.83985,-24.50586 H 205.6875 V 316.82227 c 12.79427,0 21.76505,-8.81609 26.91406,-26.44727 5.14887,-17.63114 13.65359,-26.44727 25.51172,-26.44727 3.12063,-2.80852 4.67969,-6.39684 4.67969,-10.76562 0,-9.98578 -8.65936,-16.7726 -25.97852,-20.36133 -17.31914,-3.5886 -30.89283,-5.38281 -40.72265,-5.38281 -9.8297,0 -23.40352,1.79421 -40.72266,5.38281 -17.31913,3.58873 -25.98047,10.37555 -25.98047,20.36133 0,4.36878 1.40432,7.9571 4.21289,10.76562 12.17008,0 20.82949,8.81613 25.97852,26.44727 5.14886,17.63118 13.34022,26.44727 24.57422,26.44727 v 255.24414 c -29.66041,1.18654 -44.49219,7.40165 -44.49219,18.64257 -5.65535,9.42575 -2.51335,15.55135 9.42578,18.37891 11.93908,2.82767 22.62127,14.29632 32.04688,34.4043 61.58064,183.48521 91.43001,281.51066 89.54492,294.07812 -1.25677,14.4526 -10.21137,26.54925 -26.86328,36.28907 -16.65194,9.73977 -21.2085,19.32244 -13.66797,28.74802 h 375.13867 c 12.56749,-6.28372 12.56749,-15.07984 0,-26.3906 -32.67546,-39.58758 -43.19916,-77.76169 -31.57422,-114.52149 11.62492,-36.7599 21.83557,-119.23551 30.63281,-247.42383 v -16.96484 h 47.12696 V 456.86523 c 0,-151.43814 -22.93531,-235.64131 -68.80664,-252.60742 0,0 -0.90666,-0.49508 -2.0586,-0.75976 -7.02326,-1.61377 -15.49086,-2.64579 -24.5957,-3.26172 L 525.24805,89.681641 h 83.57422 V 17.900391 H 584.47266 V 49.617188 C 572.42049,21.411433 544.83721,18.48437 539.78125,18.183594 L 545.5332,-0.00390625 Z M 513.79883,10.263672 h 16.61914 l -2.67383,7.636719 H 516.47266 Z M 445.9707,28.167969 h 3.04688 v 48.355469 h 146.0293 V 28.167969 h 3.20117 v 51.40039 H 445.9707 Z m 59.53125,0.30664 h 33.06055 c 14.902,0 35.42101,14.494192 39.20312,37.322266 H 466.30664 c 3.74144,-22.348236 24.05598,-37.322266 39.19531,-37.322266 z m 17.22071,90.367191 21.57031,79.16015 h -6.76367 l -14.79297,-55.83007 -14.94531,55.83007 h -6.63672 z m 0,63.58008 3.65234,15.58007 h -7.30273 z m -58.81836,44.45703 h 102.73828 c 28.9052,0 48.69849,52.46972 59.38086,157.4082 V 571.85742 H 553.44727 V 320.19336 c 0,-28.27685 -7.69856,-43.20054 -23.09375,-44.77148 -15.39517,-1.57092 -24.97782,-5.65597 -28.74805,-12.25391 -3.77025,-6.59792 -24.50656,-10.52448 -62.20899,-11.78125 5.027,-13.19586 13.1971,-21.36596 24.50782,-24.50781 z m -268.04688,15.51757 c 19.65946,0 35.41924,2.96546 47.27735,8.89454 -12.79426,8.73763 -20.51941,19.11275 -23.17188,31.12695 -2.65261,12.01408 -7.33191,18.95765 -14.04101,20.83008 -6.70915,1.87224 -13.34133,1.87224 -19.89454,0 -6.5532,-1.87243 -11.15611,-8.816 -13.80859,-20.83008 -2.65248,-12.0142 -10.37568,-22.38932 -23.16992,-31.12695 11.54596,-5.92908 27.14894,-8.89454 46.80859,-8.89454 z m 245.30664,27.26758 c 28.59102,0.61856 43.71183,14.94708 45.36133,42.98828 h 6.59766 c 3.77025,-13.19586 9.42632,-19.79296 16.96679,-19.79296 10.68238,0 12.56642,9.42611 5.6543,28.27734 -6.91209,18.85121 -12.88122,28.27539 -17.9082,28.27539 -3.14187,0 -4.71289,-2.51209 -4.71289,-7.53906 v -9.42578 h -6.59766 v 10.36718 c 0,8.79724 3.77007,13.19532 11.31055,13.19532 5.02698,0 11.62413,-7.22514 19.79297,-21.67774 8.16895,-5.65535 11.94096,-2.20026 11.3125,10.36719 v 63.15234 c -12.56748,18.85124 -27.64967,26.07835 -45.24414,21.67969 -8.16886,-9.4256 -13.8249,-21.99377 -16.9668,-37.70313 H 429.0293 c -12.56746,2.51352 -18.22351,-2.82756 -16.9668,-16.02343 l 18.85156,-10.36914 c 0,-1.88512 -7.5401,-5.6552 -22.62109,-11.31055 l -8.48242,1.88477 4.71289,-6.59766 c 0.62837,-0.62839 -0.78612,-1.88441 -4.24219,-3.76953 -3.45608,-1.88513 -5.49859,-4.0842 -6.12695,-6.59766 -0.62833,-2.51351 5.0277,-11.31161 16.96679,-26.39258 3.77026,-5.65538 5.96928,-10.52495 6.59766,-14.60937 0.62838,-4.08445 4.71145,-7.53954 12.25195,-10.36719 7.54046,-2.8277 15.71058,-2.8277 24.50782,0 8.79722,2.82768 16.96535,4.55524 24.50586,5.1836 v -4.7129 c -10.05397,-2.51351 -19.94968,-5.65552 -29.68946,-9.42578 -9.73985,-3.77021 -19.63743,-2.51418 -29.6914,3.76953 1.88511,-4.39864 4.71214,-8.48171 8.48242,-12.25195 4.63425,-0.47128 8.99369,-0.66258 13.07812,-0.57422 z m 1.00977,21.56836 c -0.79038,0.0246 -1.55849,0.0951 -2.30469,0.21289 -5.96954,0.94258 -10.05459,3.14159 -12.25391,6.59766 -2.19932,3.45607 -4.86986,5.8136 -8.01171,7.07031 v 2.82617 c 3.77024,1.25672 7.06878,2.35624 9.89648,3.29883 2.82769,0.94259 7.22578,0.94259 13.19531,0 5.96954,-0.94258 12.41209,-3.61311 19.32422,-8.01172 h 16.96485 v -5.65429 h -16.96485 c -7.69757,-4.3987 -14.31305,-6.51169 -19.8457,-6.33985 z m -40.47852,47.8125 c 0,5.65533 4.08311,8.48242 12.25196,8.48242 5.02697,-5.65533 0.94389,-8.48242 -12.25196,-8.48242 z m 127.2461,96.14063 v 162.12109 h 51.83984 c -0.62841,38.3308 -4.24195,84.988 -10.83984,139.9707 -6.59794,54.98274 -14.92262,101.32491 -24.97657,139.02735 -10.05398,37.70241 -3.14187,68.49287 20.73633,92.37109 H 286.70312 c 6.28374,-6.9121 10.52529,-18.38078 12.72461,-34.4043 2.19928,-16.02359 -4.87127,-43.82849 -21.20898,-83.41601 L 207.52734,637.83594 c 2.51351,-18.85116 16.96574,-25.76329 43.35743,-20.73633 l 96.14062,144.21289 35.81836,45.24219 c 19.4796,12.56751 32.04773,5.97038 37.70313,-19.79297 22.62142,-52.155 31.41758,-118.76391 26.39062,-199.82422 -27.0201,-15.08097 -11.30984,-59.69559 47.12891,-133.84375 20.108,-1.2567 31.73315,-7.22584 34.875,-17.9082 z M 194.625,587.20312 c 11.89984,-0.64801 24.68445,3.03315 38.35156,11.04493 -22.62146,0 -37.0737,6.59909 -43.35742,19.79492 -5.65539,-10.68235 -11.93944,-16.96642 -18.85156,-18.85156 -6.91209,-1.88513 -2.82707,-5.18375 12.2539,-9.89649 3.77026,-1.1782 7.63691,-1.87579 11.60352,-2.0918 z m -11.85352,8.61524 h 22.20118 z"
     sodipodi:nodetypes="ccccccccccscccccccsccscccsccccscscscccccsccscccscccscscccccccccccccccccccccccssccsccccccccccccscccsssccsccccscssccssssccsscccccccccccsscsssccsccssssccssccccsccccccssccscccccccccsccsssccc" />
</svg>
