<?xml version="1.0" encoding="UTF-8" standalone="no"?>
<svg
   width="373.34625"
   height="1000"
   version="1.1"
   id="svg1"
   sodipodi:docname="1390C.svg"
   inkscape:version="1.4.3 (0d15f75, 2025-12-25)"
   xmlns:inkscape="http://www.inkscape.org/namespaces/inkscape"
   xmlns:sodipodi="http://sodipodi.sourceforge.net/DTD/sodipodi-0.dtd"
   xmlns="http://www.w3.org/2000/svg"
   xmlns:svg="http://www.w3.org/2000/svg">
  <defs
     id="defs1" />
  <sodipodi:namedview
     id="namedview1"
     pagecolor="#ffffff"
     bordercolor="#666666"
     borderopacity="1.0"
     inkscape:showpageshadow="2"
     inkscape:pageopacity="0.0"
     inkscape:pagecheckerboard="0"
     inkscape:deskcolor="#d1d1d1"
     inkscape:zoom="0.755"
     inkscape:cx="160.92715"
     inkscape:cy="526.49007"
     inkscape:window-width="1680"
     inkscape:window-height="998"
     inkscape:window-x="-8"
     inkscape:window-y="-8"
     inkscape:window-maximized="1"
     inkscape:current-layer="svg1"
     showguides="true">
    <sodipodi:guide
       position="87.10057,416.53782"
       orientation="0,1"
       id="guide1"
       inkscape:locked="false" />
    <sodipodi:guide
       position="87.10057,416.53782"
       orientation="1,0"
       id="guide2"
       inkscape:locked="false" />
  </sodipodi:namedview>
  <path
     id="path1"
     style="fill:#000000;stroke:none;stroke-width:0.999999"
     d="M 216.93945 0.015625 C 203.57289 0.34977861 196.72087 7.3676443 196.38672 21.068359 C 196.05257 34.769074 201.23256 42.621992 211.92578 44.626953 L 196.88867 111.79297 C 187.53211 109.11966 176.50485 110.95753 163.80664 117.30664 C 151.10842 123.65575 142.08683 125.49361 136.74023 122.82031 C 131.39362 120.14701 127.71591 118.81055 125.71094 118.81055 C 122.36932 117.4739 121.03286 118.81035 121.70117 122.82031 C 125.71116 134.18184 133.39824 140.19688 144.75977 140.86523 C 156.12133 141.53357 165.31068 140.3649 172.32812 137.35742 C 179.34555 134.34996 187.86571 133.84855 197.89062 135.85352 C 206.60471 137.59634 213.4248 139.08638 218.35156 140.32422 C 197.83414 145.05622 186.33548 156.59907 183.85547 174.95117 C 181.18212 182.30274 179.8457 191.99353 179.8457 204.02344 C 173.83076 214.71666 170.82422 222.06815 170.82422 226.07812 C 170.82422 228.75141 173.83077 230.08789 179.8457 230.08789 L 176.83984 234.09766 C 177.50817 236.10264 178.84463 237.10547 180.84961 237.10547 C 180.18129 239.11044 180.18129 241.11416 180.84961 243.11914 L 183.85547 243.11914 C 181.18214 254.4807 185.19346 260.16211 195.88672 260.16211 L 211.92578 260.16211 C 217.27239 266.17706 219.4439 271.52291 218.44141 276.20117 C 217.43894 280.87947 211.9253 284.55521 201.90039 287.22852 C 166.47904 287.22852 150.10599 303.60357 152.7793 336.35156 C 148.10103 366.4263 146.76457 392.15648 148.76953 413.54297 C 128.71975 425.57283 98.310923 446.62452 57.542969 476.69922 C 50.859707 470.6843 43.84184 466.00771 36.490234 462.66602 L 36.490234 248.13281 L 19.447266 248.13281 L 19.447266 462.66602 L 0.40039062 462.66602 C -0.93626177 470.68597 1.0693685 475.36256 6.4160156 476.69922 C 5.7476709 492.73909 8.7542378 504.43554 15.4375 511.78711 L 19.447266 511.78711 L 19.447266 1000 L 36.490234 1000 L 36.490234 511.78711 C 45.846801 507.77715 54.868382 504.10138 63.556641 500.75977 C 121.70108 478.70498 158.4605 457.98695 173.83203 438.60547 C 178.51033 422.5656 181.51687 409.53272 182.85352 399.50781 C 186.86348 401.5128 192.54488 403.18483 199.89648 404.52148 C 194.54988 437.93783 186.52921 480.71035 175.83594 532.83984 C 172.26359 550.25507 169.81122 567.12921 168.47656 583.46289 L 87.099609 583.46289 L 81.089844 624.51367 L 57.044922 798.93359 C 56.252754 811.0203 57.66391 817.05033 61.277344 817.01953 C 70.236243 816.748 76.325219 810.78216 79.546875 799.12109 C 79.576373 802.73478 80.351479 806.51638 81.869141 810.46484 C 83.386682 814.41301 86.149932 816.29779 90.158203 816.11523 C 93.377171 816.23709 95.935174 814.34556 97.833984 810.44336 C 99.732946 806.54151 100.79051 802.51004 101.00391 798.34961 C 103.6739 810.01199 109.36613 815.98055 118.08203 816.25586 C 121.30111 816.37803 123.03372 810.27529 123.2793 797.94531 L 103.16797 598.46289 L 167.55859 598.46289 C 166.47647 625.40623 168.56803 650.81539 173.83203 674.69141 C 183.18865 717.13016 187.86719 757.73116 187.86719 796.49414 C 187.86719 835.92539 181.51658 881.37275 168.81836 932.83398 C 168.81836 946.20056 164.97679 953.71772 157.29102 955.38867 C 149.60526 957.05946 141.08317 960.40176 131.72656 965.41406 C 122.37 970.42654 111.0091 974.26995 97.642578 976.94336 L 75.587891 976.94336 C 74.919581 992.31487 80.599034 1000 92.628906 1000 L 263.05273 1000 C 276.41925 994.65342 280.42863 980.95321 275.08203 958.89844 L 275.08203 931.83008 C 285.77525 877.02723 290.78942 835.759 290.12109 808.02344 C 289.45275 780.28787 286.77788 755.8941 282.09961 734.8418 C 277.4213 713.78949 281.09708 681.54281 293.12695 638.10156 C 297.14768 623.58231 300.49694 610.36913 303.17383 598.46289 L 331.30664 598.46289 C 330.6983 600.56426 330.22575 602.59477 329.91797 604.54297 C 329.16516 613.55631 330.32541 617.25665 333.39648 615.64453 C 336.46756 614.03237 337.96544 611.7958 337.89062 608.93164 C 346.86483 614.95573 359.62904 621.02072 373.41016 606.66797 C 374.59356 605.43302 374.99074 602.46779 374.81641 598.46289 L 390.17188 598.46289 L 390.17188 583.46289 L 372.68359 583.46289 C 371.01474 575.40782 368.58188 566.63602 366.09766 559.42188 C 377.45926 507.96071 378.00467 473.69169 369.31641 447.62695 C 367.31142 404.18573 363.30203 364.75532 357.28711 329.33398 C 354.61381 299.25928 341.58092 285.22354 318.18945 287.22852 C 318.18945 235.76734 313.17725 198.00705 303.15234 173.94727 C 296.02268 156.83603 283.82362 145.81092 266.55273 140.86914 C 266.55604 140.86826 266.55919 140.86612 266.5625 140.86523 C 271.57495 139.52858 278.92643 137.85851 288.61719 135.85352 C 298.30791 133.84855 306.82809 134.34996 314.17969 137.35742 C 321.5313 140.3649 330.88844 141.53357 342.25 140.86523 C 353.61157 140.19688 361.29672 134.18184 365.30664 122.82031 C 365.97497 118.81035 364.63851 117.4739 361.29688 118.81055 C 359.29189 118.81055 355.61614 120.14701 350.26953 122.82031 C 344.92292 125.49361 335.73357 123.82355 322.70117 117.80859 C 309.66879 111.79365 298.47376 109.78798 289.11719 111.79297 L 275.08203 44.626953 C 285.77525 42.621992 290.95524 34.769074 290.62109 21.068359 C 290.28694 7.3676443 283.26906 0.34977861 269.56836 0.015625 C 255.86764 -0.3185286 247.01387 4.5278234 243.00391 14.552734 C 238.99396 4.5278234 230.30597 -0.3185286 216.93945 0.015625 z M 221.44922 9.0390625 C 233.14494 9.3732162 238.99414 20.901872 238.99414 43.625 L 238.99414 123.82422 C 230.30591 116.47264 219.61228 112.79688 206.91406 112.79688 L 221.95117 35.603516 C 209.9213 36.271861 203.90625 31.928833 203.90625 22.572266 C 203.90625 13.21566 209.7535 8.7048715 221.44922 9.0390625 z M 265.55859 9.0390625 C 277.25431 8.7048715 283.10352 13.215662 283.10352 22.572266 C 283.10352 32.597177 277.08845 36.940206 265.05859 35.603516 L 280.0957 112.79688 C 267.39752 112.79687 256.70389 116.47261 248.01562 123.82422 L 248.01562 43.625 C 248.01563 20.901872 253.86288 9.3732162 265.55859 9.0390625 z M 244.00586 147.88281 C 266.72895 147.88281 282.9362 158.24282 292.62695 178.96094 C 302.31766 199.67907 307.16211 235.76734 307.16211 287.22852 L 307.16211 372.44141 L 240.99805 372.44141 L 240.99805 230.08789 C 243.67135 226.07794 247.17936 221.56717 251.52344 216.55469 C 255.8676 211.54224 258.04102 205.35939 258.04102 198.00781 C 258.04102 187.98292 253.69607 182.9707 245.00781 182.9707 C 238.99288 182.9707 235.31706 185.97724 233.98047 191.99219 C 233.98047 184.64058 230.47253 179.96201 223.45508 177.95703 C 216.43767 175.95206 206.57907 174.95117 193.88086 174.95117 C 195.88582 156.90635 212.59447 147.88281 244.00586 147.88281 z M 205.41016 183.72266 C 209.75428 183.88973 213.93145 184.64186 217.94141 185.97852 C 225.96138 188.65182 229.9707 193.99763 229.9707 202.01758 L 239.99609 202.01758 C 239.99609 194.66599 241.66618 190.99023 245.00781 190.99023 C 249.01777 190.99023 251.02344 193.32953 251.02344 198.00781 C 251.02344 201.34942 248.35052 206.19386 243.00391 212.54297 C 237.65731 218.89208 233.64595 224.40568 230.97266 229.08398 L 230.97266 382.4668 L 293.12695 382.4668 L 291.12305 391.48828 L 199.89648 391.48828 C 187.86658 391.48828 179.51225 385.80687 174.83398 374.44531 C 182.18558 361.74709 185.19213 346.04125 183.85547 327.32812 C 182.51878 308.61495 188.20022 298.59056 200.89844 297.25391 C 215.60165 296.5856 224.12373 291.74116 226.46289 282.71875 C 228.80203 273.69633 227.29782 263.83778 221.95117 253.14453 L 198.89453 253.14453 C 193.54792 253.14453 190.87305 251.47444 190.87305 248.13281 C 190.87305 242.11787 193.54792 238.77575 198.89453 238.10742 C 198.89453 235.43412 197.8917 233.76404 195.88672 233.0957 L 184.85938 233.0957 C 186.86437 228.4174 184.85871 225.40891 178.84375 224.07227 C 178.84375 221.39896 181.85223 214.71666 187.86719 204.02344 C 187.86719 196.67183 189.20365 190.32122 191.87695 184.97461 C 196.55524 183.97211 201.06603 183.55558 205.41016 183.72266 z M 202.9043 189.23633 C 197.89184 189.40341 193.88052 190.99057 190.87305 193.99805 L 190.87305 199.00977 C 198.22465 192.99482 208.25101 192.66116 220.94922 198.00781 L 226.96289 198.00781 L 226.96289 192.99609 L 220.94922 192.99609 C 213.93179 190.32279 207.91675 189.06924 202.9043 189.23633 z M 204.9082 197.00586 C 196.88824 197.00586 191.87607 200.0124 189.87109 206.02734 L 190.87305 208.0332 L 193.88086 208.0332 C 195.88582 209.36984 198.55875 210.03711 201.90039 210.03711 C 205.24204 210.03711 211.59266 207.69781 220.94922 203.01953 L 226.96289 204.02344 L 226.96289 201.01562 L 220.94922 201.01562 C 212.9293 198.34232 207.5815 197.00586 204.9082 197.00586 z M 205.91016 200.01367 C 209.25181 200.68197 212.26028 201.68288 214.93359 203.01953 C 212.92858 203.68788 209.58646 204.69069 204.9082 206.02734 C 206.24485 205.35902 206.91406 204.35618 206.91406 203.01953 C 206.91406 202.35121 206.57848 201.35031 205.91016 200.01367 z M 199.89648 201.01562 C 199.22794 201.68396 198.89453 202.35121 198.89453 203.01953 C 198.89453 204.35618 199.56178 205.35901 200.89844 206.02734 C 198.89348 206.02734 196.22054 205.69372 192.87891 205.02539 C 195.55222 202.35209 197.89151 201.01562 199.89648 201.01562 z M 304.1543 382.4668 L 318.18945 382.4668 L 326.21094 383.46875 C 329.55255 405.52353 334.56479 423.23309 341.24805 436.59961 C 339.24306 451.97112 340.07808 470.01625 343.75391 490.73438 C 347.42973 511.45254 348.14292 538.33674 347.47461 562.39648 C 343.8302 569.6515 340.16453 576.75207 337.10352 583.46289 L 306.32617 583.46289 C 309.55747 566.78858 311.17188 553.2565 311.17188 542.86523 C 311.17187 517.46883 304.48961 491.73662 291.12305 465.67188 C 293.79636 434.26048 298.13935 406.52654 304.1543 382.4668 z M 217.94141 401.51367 L 281.09766 401.51367 C 278.42436 409.53362 275.4178 431.25447 272.07617 466.67578 C 286.11104 492.0722 293.12695 517.46883 293.12695 542.86523 C 293.12695 553.25652 291.42254 566.78853 288.01172 583.46289 L 185.50781 583.46289 C 186.79645 566.37233 189.42195 548.82899 193.38086 530.83398 C 204.40823 480.70945 212.59479 437.60331 217.94141 401.51367 z M 184.7168 598.46289 L 284.68555 598.46289 C 281.85995 610.36913 278.32416 623.58231 274.08008 638.10156 C 261.38189 681.54281 257.87392 713.78949 263.55469 734.8418 C 269.23543 755.8941 272.07617 780.28787 272.07617 808.02344 C 272.07617 835.759 267.7312 870.6786 259.04297 912.7832 L 191.87695 912.7832 C 201.23352 876.69354 205.91016 838.26404 205.91016 797.49609 C 205.91016 756.05981 201.06572 713.7887 191.375 670.68164 C 186.18911 647.6134 183.96958 623.54071 184.7168 598.46289 z M 94.253906 626.93164 L 109.29688 786.32617 L 71.943359 786.41016 L 94.253906 626.93164 z M 206.91406 931.83008 L 239.99609 931.83008 L 239.99609 947.87109 C 238.6594 950.5444 226.96295 956.55939 204.9082 965.91602 C 206.91317 952.54949 207.58238 941.18665 206.91406 931.83008 z " />
</svg>
