<?xml version="1.0" encoding="UTF-8" standalone="no"?>
<svg
   width="800"
   height="1000"
   version="1.1"
   id="svg1"
   sodipodi:docname="13914.svg"
   inkscape:version="1.4.2 (f4327f4, 2025-05-13)"
   xmlns:inkscape="http://www.inkscape.org/namespaces/inkscape"
   xmlns:sodipodi="http://sodipodi.sourceforge.net/DTD/sodipodi-0.dtd"
   xmlns="http://www.w3.org/2000/svg"
   xmlns:svg="http://www.w3.org/2000/svg">
  <defs
     id="defs1" />
  <sodipodi:namedview
     id="namedview1"
     pagecolor="#ffffff"
     bordercolor="#000000"
     borderopacity="0.25"
     inkscape:showpageshadow="2"
     inkscape:pageopacity="0.0"
     inkscape:pagecheckerboard="0"
     inkscape:deskcolor="#d1d1d1"
     inkscape:zoom="0.46228386"
     inkscape:cx="347.18928"
     inkscape:cy="730.07092"
     inkscape:window-width="1680"
     inkscape:window-height="998"
     inkscape:window-x="-8"
     inkscape:window-y="-8"
     inkscape:window-maximized="1"
     inkscape:current-layer="svg1"
     showguides="true">
    <sodipodi:guide
       position="-344.71169,614.39033"
       orientation="-0.99975042,0.022340405"
       id="guide2"
       inkscape:locked="false" />
    <sodipodi:guide
       position="272.04824,614.39033"
       orientation="1,0"
       id="guide4"
       inkscape:locked="false" />
  </sodipodi:namedview>
  <path
     id="path1"
     style="fill:#000000;stroke:none;stroke-width:55.2817"
     d="M 625.52344 0 C 620.9792 1.2983323 617.08375 6.1661969 613.83789 14.605469 C 613.83789 21.097241 606.04893 30.349654 590.46875 42.359375 C 574.88854 54.369096 564.01481 64.106744 557.84766 71.572266 C 551.68051 79.03775 543.07894 95.753693 532.04297 121.7207 C 506.07599 130.80914 490.81963 138.27462 486.27539 144.11719 C 482.38035 148.66138 478.97206 154.0164 476.05078 160.18359 C 473.12949 166.35074 465.82772 177.54997 454.14258 193.7793 C 448.30002 200.92024 449.92133 207.41134 459.00977 213.25391 C 461.60647 221.04401 465.17843 225.26294 469.72266 225.91211 C 473.6177 234.35138 481.08318 238.24683 492.11914 237.59766 C 503.15512 236.94846 513.5417 236.29955 523.2793 235.65039 C 523.92846 238.89625 524.25195 242.79171 524.25195 247.33594 C 515.16351 249.93264 509.64676 255.44939 507.69922 263.88867 C 480.43391 267.7837 465.17755 279.47006 461.93164 298.94531 C 439.21057 328.15815 429.5226 357.4258 411.3457 386.63867 C 377.21431 404.53515 347.48954 418.54789 309.02734 440.98633 C 298.59964 437.27526 295.00336 435.70823 290.5625 435.21094 L 286.6543 266.69727 C 299.63776 239.43196 312.29656 219.95662 324.63086 208.27148 C 331.7718 213.46488 337.12877 214.92445 340.69922 212.65234 C 344.26968 210.38022 342.80814 204.70172 336.31641 195.61328 C 322.68373 174.19055 300.93623 163.47852 271.07422 163.47852 C 241.86137 163.47852 220.43931 174.19055 206.80664 195.61328 C 200.96407 204.70172 199.66625 210.38022 202.91211 212.65234 C 206.15799 214.92445 211.67474 213.46488 219.46484 208.27148 C 231.79915 219.95662 244.13445 239.43196 256.46875 266.69727 L 253.06836 434.30859 L 243.80859 435.02148 C 235.36931 437.61814 236.99256 442.48601 248.67773 449.62695 C 243.48432 455.46953 242.50998 462.935 245.75586 472.02344 C 248.01091 478.33758 250.1105 482.45729 252.05273 484.38477 L 249.65234 602.64453 C 246.37154 764.33914 243.4846 876.92189 246.73047 940.54102 C 251.92388 981.43905 260.36369 1001.2379 272.04883 999.93945 C 280.4881 1001.2379 288.92792 981.43905 297.36719 940.54102 C 300.61305 876.92189 298.19496 764.32894 294.44531 602.64453 L 291.70703 484.54297 C 299.35732 480.63548 309.95261 468.26636 314.77344 464.20117 C 378.93136 438.46836 413.35458 424.00301 433.8125 407.21094 C 466.27125 376.69977 472.9683 358.99396 500.88281 321.3418 L 500.88281 332.05273 L 493.0918 351.52734 C 496.98684 359.3174 501.85666 364.67442 507.69922 367.5957 C 513.5418 370.51699 516.13744 374.24873 515.48828 378.79297 C 499.9081 498.89026 492.44264 571.5982 493.0918 596.91602 C 506.0753 667.02685 512.89185 707.11355 513.54102 717.17578 C 514.19019 727.238 512.73065 755.31486 509.16016 801.40625 C 505.58971 847.49767 502.5049 879.95525 499.9082 898.78125 C 497.31154 915.01063 494.71584 926.04801 492.11914 931.89062 C 481.08318 949.41832 459.65916 962.23884 427.84961 970.35352 C 396.04006 978.46817 380.13672 985.77189 380.13672 992.26367 L 380.13672 999.08008 L 420.06055 999.08008 C 446.02752 993.88668 468.42392 993.88668 487.25 999.08008 C 507.3744 1000.3783 523.60319 998.91686 535.9375 994.69727 C 548.2718 990.47762 563.85166 992.2628 582.67773 1000.0527 C 604.74964 998.1054 610.59186 985.77193 600.20508 963.05078 C 598.90675 946.82141 599.23218 934.64989 601.17969 926.53516 C 603.12722 918.42051 604.42506 909.16805 605.07422 898.78125 C 612.21513 819.58198 614.32559 759.04754 611.4043 717.17578 C 608.48305 675.30404 610.91697 619.63748 618.70703 550.17578 C 627.14635 519.66456 629.41851 495.96838 625.52344 479.08984 C 614.48747 448.57863 608.31981 424.23547 607.02148 406.05859 L 609.94336 371.97656 L 617.73438 350.55469 C 620.33108 371.97748 639.28019 400.65506 647.07031 434.41211 C 649.37253 452.27446 649.31432 460.75886 652.88477 482.18164 C 656.45522 503.60438 657.5913 526.97522 656.29297 552.29492 L 657.26758 552.29492 C 653.37254 556.18996 650.77489 560.24719 649.47656 564.4668 C 648.17822 568.68646 648.01648 575.17951 648.99023 583.94336 C 649.66566 590.02226 649.79453 595.08637 649.37695 599.13477 C 638.82399 604.71544 636.32925 615.90704 636.55664 629.50781 C 637.04437 658.67743 651.07327 685.66542 662.14258 707.41406 L 618.9668 701.86914 L 618.52344 722.24414 L 665.44531 717.54297 L 657.68555 815.5918 L 684.31055 815.14648 L 673.27734 717.41211 L 720.33008 720.54297 L 719.20703 700.19336 L 676.24023 707.17969 C 686.5763 685.07315 699.69474 657.63054 699.20703 628.46094 C 698.96534 614.00549 695.74053 602.37089 683.25977 597.61719 C 684.50415 584.15344 681.3578 570.99282 673.82031 558.13477 C 684.85628 504.25328 683.01549 463.74082 678.68945 435.44141 C 679.33866 397.1401 657.98274 367.75732 650.8418 332.05273 L 673.23828 332.05273 L 673.23828 274.60156 C 673.23828 235.00191 651.4908 192.80474 607.99609 148.01172 C 617.73368 144.76585 630.06895 124.96706 645 88.613281 C 655.38677 60.049602 660.58008 44.467795 660.58008 41.871094 C 661.22928 32.782657 657.98274 29.212657 650.8418 31.160156 C 641.1042 37.002725 633.96221 42.521441 629.41797 47.714844 C 632.66385 41.223109 633.96361 29.536745 633.31445 12.658203 C 632.01611 5.5172653 629.41851 1.2983323 625.52344 0 z M 624.55078 11.685547 C 624.55078 27.265719 622.44036 39.762725 618.2207 49.175781 C 614.00108 58.588801 603.93799 69.624316 588.0332 82.283203 C 572.12844 94.94213 560.60578 111.00914 553.46484 130.48438 C 550.86814 127.23847 547.94705 124.9663 544.70117 123.66797 C 545.35034 121.72043 548.27144 113.7678 553.46484 99.810547 C 558.65826 85.853294 570.99352 71.896673 590.46875 57.939453 C 609.944 43.982197 621.30491 28.564089 624.55078 11.685547 z M 649.86719 41.871094 L 645.97266 55.503906 C 637.53339 86.015123 626.98509 109.54765 614.32617 126.10156 C 601.66728 142.65553 589.17025 152.55687 576.83594 155.80273 C 565.79997 159.04865 562.55346 155.80209 567.09766 146.06445 C 569.69436 129.83512 581.05528 113.92982 601.17969 98.349609 C 614.81237 90.559504 627.47111 76.926415 639.15625 57.451172 C 620.97938 75.628083 606.53561 87.801598 595.82422 93.96875 C 585.11283 100.1359 576.51126 108.73748 570.01953 119.77344 C 575.21293 105.4916 584.78882 93.481743 598.74609 83.744141 C 612.70335 74.0065 629.74279 60.047966 649.86719 41.871094 z M 535.9375 133.40625 C 541.1309 133.40625 546.97311 136.32734 553.46484 142.16992 C 551.51735 151.90756 553.46584 159.6965 559.30859 165.53906 C 563.20365 196.05025 559.95711 220.39537 549.57031 238.57227 L 549.57031 260.96875 C 539.83271 263.56545 534.63939 253.50236 533.99023 230.78125 C 543.07866 226.88622 550.21871 223.31618 555.41211 220.07031 C 555.41211 218.77194 554.11432 216.49977 551.51758 213.25391 C 542.42914 219.09647 531.39363 222.99192 518.41016 224.93945 C 505.42666 226.88696 495.68901 227.0487 489.19727 225.42578 C 482.70554 223.80283 479.45898 221.6924 479.45898 219.0957 C 484.00318 217.79737 488.22407 216.49953 492.11914 215.20117 C 494.06664 211.9553 493.41579 210.65748 490.16992 211.30664 C 486.27489 213.90334 480.43268 215.20117 472.64258 215.20117 C 462.90498 206.11273 459.66038 201.08116 462.90625 200.10742 C 466.15212 199.13367 468.26062 200.43346 469.23438 204.00391 C 470.20817 207.57436 471.99314 207.24891 474.58984 203.0293 C 477.1865 198.80965 474.91435 194.75245 467.77344 190.85742 C 476.21271 180.47061 483.3547 170.40752 489.19727 160.66992 C 491.1448 154.17814 497.6359 148.66138 508.67188 144.11719 C 519.70781 139.57295 528.79656 136.00295 535.9375 133.40625 z M 509.64648 158.72266 C 502.50554 158.72266 498.93555 163.59244 498.93555 173.33008 L 507.69922 173.33008 C 513.5418 173.33008 516.46289 170.08358 516.46289 163.5918 C 516.46289 160.34593 514.19068 158.72266 509.64648 158.72266 z M 597.73047 160.64844 C 602.55523 160.82533 613.93023 173.49097 631.85352 198.64648 C 650.35501 224.61345 659.60547 250.25641 659.60547 275.57422 L 659.60547 320.36719 L 649.86719 320.36719 L 644.02539 285.3125 C 640.77951 270.38146 631.69077 262.91602 616.75977 262.91602 C 602.47793 262.91602 592.74027 267.13492 587.54688 275.57422 C 582.35347 284.0135 579.75781 298.94444 579.75781 320.36719 L 561.25586 320.36719 L 561.25586 243.44141 C 570.34429 220.07113 573.58889 195.72601 570.99219 170.4082 C 581.379 169.75903 590.14426 166.51248 597.28516 160.66992 C 597.42716 160.64962 597.57483 160.64274 597.73047 160.64844 z M 272.04883 184.90039 C 287.62904 184.90039 300.93674 188.47239 311.97266 195.61328 C 297.04166 215.7377 283.73397 235.53648 272.04883 255.01172 C 259.71452 235.53648 246.40684 215.7377 232.125 195.61328 C 243.16098 188.47239 256.46865 184.90039 272.04883 184.90039 z M 526.19922 256.09961 L 526.19922 320.36719 L 514.51562 320.36719 L 514.51562 301.86523 C 514.51562 280.44245 515.48803 267.46026 517.43555 262.91602 C 519.38305 258.37182 522.30416 256.09961 526.19922 256.09961 z M 535.9375 273.62695 C 538.5342 276.22365 540.15748 277.52148 540.80664 277.52148 C 544.70167 277.52148 548.2717 276.22365 551.51758 273.62695 L 551.51758 332.05273 L 590.46875 332.05273 L 590.46875 297.9707 C 601.50473 297.9707 607.34692 300.56832 607.99609 305.76172 L 612.86523 332.05273 L 602.1543 358.34375 L 524.25195 358.34375 C 514.51435 358.99292 509.64648 355.74833 509.64648 348.60742 L 514.51562 332.05273 L 535.9375 332.05273 L 535.9375 273.62695 z M 526.19922 367.10742 L 600.20508 367.10742 L 599.23242 370.0293 L 527.17383 370.0293 L 526.19922 367.10742 z M 538.85938 382.6875 L 589.49414 382.6875 C 587.54664 413.19867 590.79316 439.49056 599.23242 461.5625 C 607.6717 483.63444 608.96951 505.86911 603.12695 528.26562 C 597.28435 550.66211 594.03975 575.97965 593.39062 604.21875 C 592.74144 632.45789 591.44166 659.56233 589.49414 685.5293 C 595.9859 736.81409 593.7137 807.57335 582.67773 897.80859 L 521.33203 897.80859 C 534.31553 791.99314 536.26227 715.38972 527.17383 668 C 518.0854 620.61025 513.54102 592.37167 513.54102 583.2832 C 515.48853 537.84102 523.92831 470.97524 538.85938 382.6875 z M 272.04883 389.39062 C 272.38864 404.81799 272.719 419.88217 273.04102 434.58203 L 271.05469 434.51758 C 271.37804 419.83809 271.70951 404.79549 272.04883 389.39062 z M 269.92773 485.65625 L 272.04883 485.65625 L 274.15625 485.65625 C 279.24266 719.55922 281.78516 849.43999 281.78516 875.29883 C 281.78516 924.63612 278.54056 957.4191 272.04883 973.64844 C 265.55709 957.4191 261.98705 924.63612 261.33789 875.29883 C 261.91252 849.43999 264.77519 719.55909 269.92773 485.65625 z M 658.79297 578.03125 C 659.52083 577.9958 660.31006 578.83108 661.16211 580.53516 C 662.33596 583.76323 662.71484 588.7822 662.29688 595.5918 C 660.42533 595.77808 658.68069 596.05177 657.05859 596.4082 C 657.13371 592.6925 656.87908 588.05051 656.29297 582.48242 C 657.02328 579.56116 657.85715 578.07683 658.79297 578.03125 z M 660.44531 611.30664 C 659.63215 616.39972 658.57297 622.04744 657.26758 628.24805 C 656.61841 630.84472 656.61841 632.46802 657.26758 633.11719 C 657.91674 633.76636 659.21457 633.44286 661.16211 632.14453 C 663.10965 634.7412 664.73291 635.06468 666.03125 633.11719 C 667.32961 635.71386 668.95285 636.03929 670.90039 634.0918 C 672.19869 635.38828 673.65829 635.22448 675.28125 633.60156 C 676.9042 631.97865 678.04029 626.29816 678.68945 616.56055 C 679.0823 615.54569 679.45191 614.53304 679.79688 613.52148 C 682.29317 616.01219 684.16663 619.8535 684.41992 625.73633 C 685.06026 640.6092 677.04777 672.0196 669.28711 698.39062 C 660.1798 672.30164 651.02543 651.33141 651.26562 626.29102 C 651.14071 618.82067 655.75011 613.89576 660.44531 611.30664 z M 540.80664 911.44141 L 562.22852 911.44141 C 566.12355 925.07411 564.98746 936.59675 558.82031 946.00977 C 552.65316 955.42282 542.75373 961.75222 529.12109 964.99805 C 527.17355 953.96212 531.06904 936.11009 540.80664 911.44141 z " />
</svg>
