<?xml version="1.0" encoding="UTF-8" standalone="no"?>
<svg
   width="1100"
   height="1000"
   id="svg2354"
   sodipodi:version="0.32"
   inkscape:version="1.4.2 (f4327f4, 2025-05-13)"
   sodipodi:docname="13928.svg"
   inkscape:output_extension="org.inkscape.output.svg.inkscape"
   sodipodi:modified="true"
   version="1.1"
   xmlns:inkscape="http://www.inkscape.org/namespaces/inkscape"
   xmlns:sodipodi="http://sodipodi.sourceforge.net/DTD/sodipodi-0.dtd"
   xmlns="http://www.w3.org/2000/svg"
   xmlns:svg="http://www.w3.org/2000/svg"
   xmlns:rdf="http://www.w3.org/1999/02/22-rdf-syntax-ns#"
   xmlns:cc="http://creativecommons.org/ns#"
   xmlns:dc="http://purl.org/dc/elements/1.1/">
  <metadata
     id="metadata2361">
    <rdf:RDF>
      <cc:Work
         rdf:about="">
        <dc:format>image/svg+xml</dc:format>
        <dc:type
           rdf:resource="http://purl.org/dc/dcmitype/StillImage" />
      </cc:Work>
    </rdf:RDF>
  </metadata>
  <defs
     id="defs2359" />
  <sodipodi:namedview
     inkscape:window-height="998"
     inkscape:window-width="1680"
     inkscape:pageshadow="2"
     inkscape:pageopacity="0.0"
     guidetolerance="10.0"
     gridtolerance="10.0"
     objecttolerance="10.0"
     borderopacity="1.0"
     bordercolor="#666666"
     pagecolor="#ffffff"
     id="base"
     inkscape:showpageshadow="2"
     inkscape:pagecheckerboard="0"
     inkscape:deskcolor="#d1d1d1"
     inkscape:zoom="0.57683159"
     inkscape:cx="377.05979"
     inkscape:cy="505.3468"
     inkscape:window-x="-8"
     inkscape:window-y="-8"
     inkscape:window-maximized="1"
     inkscape:current-layer="svg2354"
     showguides="true" />
  <path
     id="path2356"
     style="fill:#000000;stroke:none;stroke-width:50.0543"
     d="M 725.54297 0 C 734.21702 22.304827 745.98945 35.625848 760.85938 39.962891 L 760.85938 140.59375 C 737.86398 145.86159 723.92308 160.95456 719.03711 185.87305 C 714.70007 206.93874 709.43413 222.42855 703.23828 232.3418 C 701.99913 237.29843 703.85762 239.46723 708.81445 238.84766 C 711.29286 240.08681 711.75768 241.48034 710.20898 243.0293 C 708.65978 244.57824 709.43337 246.59199 712.53125 249.07031 C 710.05288 254.02692 711.29317 256.50586 716.25 256.50586 C 715.01106 260.22333 715.62901 263.78569 718.10742 267.19336 C 720.58573 270.60123 725.07842 271.68447 731.58398 270.44531 C 738.08956 269.20615 744.13083 268.58789 749.70703 268.58789 C 751.56575 278.50118 755.28309 286.556 760.85938 292.75195 L 743.20117 292.75195 C 723.37461 292.75195 707.88482 300.49685 696.73242 315.98633 C 664.51429 330.23664 634.1549 345.72451 605.6543 362.45312 C 592.64314 343.2462 574.36625 320.63166 550.82227 294.60938 C 550.82227 286.55482 549.58193 276.95123 547.10352 265.79883 C 546.48356 261.46177 544.93544 256.19578 542.45703 250 C 539.97871 245.66295 535.3329 240.24192 528.51758 233.73633 C 524.06889 229.4899 520.41163 225.17725 517.54688 220.79883 C 545.29422 199.66501 563.24023 166.28673 563.24023 128.80859 C 563.24023 65.095379 511.37533 13.232422 447.66211 13.232422 C 383.94889 13.232422 332.08398 65.095379 332.08398 128.80859 C 332.08398 166.45355 350.19011 199.96184 378.14844 221.08008 C 375.15755 225.68108 371.22182 230.21036 366.3418 234.66602 C 359.21663 241.17161 354.72592 246.59264 352.86719 250.92969 C 349.7693 256.50589 347.9106 261.77189 347.29102 266.72852 C 345.43227 277.26135 344.19184 286.55482 343.57227 294.60938 C 320.64786 321.25125 302.371 344.17588 288.74023 363.38281 C 260.23963 346.03462 230.19033 330.23469 198.5918 315.98438 C 186.81981 300.49489 171.01987 292.75 151.19336 292.75 L 134.46484 292.75 C 139.42148 287.17378 143.13883 279.12072 145.61719 268.58789 C 150.57381 269.20747 156.46002 270.13584 163.27539 271.375 C 170.09074 272.61416 174.58345 271.37566 176.75195 267.6582 C 178.9205 263.94072 179.6938 260.22333 179.07422 256.50586 C 183.41125 256.50586 184.3416 254.02692 181.86328 249.07031 C 185.58076 246.59199 186.50912 244.73328 184.65039 243.49414 C 182.79165 242.25498 183.10176 240.7064 185.58008 238.84766 C 190.5367 239.46723 192.70552 237.60852 192.08594 233.27148 C 185.27058 223.35821 180.00459 207.86843 176.28711 186.80273 C 172.46029 168.71233 164.13869 155.7022 151.32617 147.76953 L 153.05273 147.76953 L 153.05273 122.67578 L 120.52344 122.67578 L 120.52344 53.904297 L 101.00781 53.904297 L 101.00781 0.9296875 L 74.984375 0.9296875 L 74.984375 143.49805 C 61.711701 148.04612 51.799124 155.66566 45.246094 166.35742 C 26.658744 195.47759 17.365234 244.7341 17.365234 314.12695 L 17.365234 361.52344 L 44.316406 361.52344 C 55.46885 387.54578 61.973295 411.71081 63.832031 434.01562 C 62.592874 451.36385 56.398536 474.28841 45.246094 502.78906 C 42.148203 518.89814 44.625169 541.82081 52.679688 571.56055 C 60.114659 637.23592 62.438512 690.05675 59.650391 730.01953 C 56.862272 769.98235 58.5659 827.7571 64.761719 903.3457 C 66.000874 913.87859 67.549467 922.86187 69.408203 930.29688 C 71.266936 937.7318 71.577046 949.19415 70.337891 964.68359 C 60.424605 986.36887 66.00071 998.14138 87.066406 1000 C 105.03418 992.56511 119.9038 990.86142 131.67578 994.88867 C 143.44781 998.91586 158.93761 1000.3095 178.14453 999.07031 C 196.11232 994.11401 217.48831 994.11401 242.27148 999.07031 L 279.44531 999.07031 L 279.44531 992.56445 C 280.0649 986.3686 265.04023 979.399 234.37109 971.6543 C 203.70194 963.90961 183.4113 951.9821 173.49805 935.87305 C 171.01975 929.6772 168.54081 918.83521 166.0625 903.3457 C 163.58419 885.37792 160.64205 854.39831 157.23438 810.4082 C 153.82668 766.41812 152.43315 739.62302 153.05273 730.01953 C 153.67232 720.41609 160.17679 682.1567 172.56836 615.24219 C 173.18793 591.07863 167.92195 537.17439 156.76953 453.53125 C 175.3569 465.30324 204.47782 477.07566 244.13086 488.84766 L 244.13086 489.77734 C 249.08748 495.35355 255.59196 501.858 263.64648 509.29297 C 266.74438 513.01043 271.08198 516.41969 276.6582 519.51758 C 280.99524 521.3763 287.96488 522.92483 297.56836 524.16406 C 307.17183 525.40315 315.07159 527.88022 321.26758 531.59961 C 323.74589 532.21709 325.91472 532.06204 327.77344 531.13281 C 329.63219 530.20351 329.94229 528.49989 328.70312 526.02148 C 330.56187 526.02148 331.64534 525.403 331.95508 524.16406 C 332.26467 522.92458 332.10981 521.99448 331.49023 521.375 C 332.72938 521.375 333.65972 520.75455 334.2793 519.51562 C 334.89888 518.27664 334.58878 517.03781 333.34961 515.79883 C 334.58878 516.41834 335.67219 516.1081 336.60156 514.86914 C 337.53094 513.62979 336.4475 511.77134 333.34961 509.29297 C 322.1972 506.81444 313.36887 505.11084 306.86328 504.18164 C 300.35768 503.25227 292.14763 499.68992 282.23438 493.49414 C 280.37584 491.01583 279.6004 489.62216 279.91016 489.3125 C 280.21994 489.00268 281.30533 489.15776 283.16406 489.77734 C 286.88153 491.0165 291.21912 493.18531 296.17578 496.2832 C 299.89321 499.38109 303.45558 501.2398 306.86328 501.85938 C 310.27096 502.47896 311.97461 501.23852 311.97461 498.14062 C 312.59415 495.66232 310.11528 493.8036 304.53906 492.56445 C 300.20205 490.08613 294.47087 485.7505 287.3457 479.55469 C 280.22054 473.3589 268.60318 469.64146 252.49414 468.40234 C 220.27603 450.43451 193.63403 436.80343 172.56836 427.50977 C 166.99216 417.59652 161.10594 408.303 154.91016 399.62891 C 162.96468 394.6723 168.85089 388.47598 172.56836 381.04102 C 165.13341 367.41027 166.06374 357.80668 175.35742 352.23047 C 215.63004 371.43742 256.52142 386.92721 298.0332 398.69922 C 320.9576 374.53561 342.64377 343.556 363.08984 305.76172 C 375.48145 295.84843 382.60615 286.3999 384.46484 277.41602 C 386.32357 268.43213 388.18229 261.46248 390.04102 256.50586 C 394.37805 251.54924 395.61656 248.4501 393.75781 247.21094 C 391.89913 245.3522 389.73034 245.66231 387.25195 248.14062 C 384.77368 250.61894 382.60682 254.02817 380.74805 258.36523 C 378.88931 263.94143 376.72036 268.27712 374.24219 271.375 C 373.62261 272.61394 372.84733 273.07925 371.91797 272.76953 C 370.98826 272.45975 370.83355 271.06622 371.45312 268.58789 C 375.79017 257.43549 380.43792 249.53548 385.39453 244.88867 C 388.80733 241.6892 392.8069 237.68209 397.39453 232.86719 C 412.60253 240.2461 429.65947 244.38672 447.66211 244.38672 C 465.64562 244.38672 482.6851 240.25483 497.88086 232.89062 C 502.50143 237.78729 506.36282 241.78664 509.46484 244.88867 C 514.11169 249.53548 518.60425 257.43549 522.94336 268.58789 C 523.56083 271.06622 523.40578 272.45979 522.47656 272.76953 C 521.54732 273.07932 520.77181 272.30405 520.15234 270.44531 C 518.2936 267.96701 516.43489 263.63133 514.57617 257.43555 C 512.71744 253.09849 510.54862 249.68927 508.07031 247.21094 C 505.592 244.73262 503.11503 244.73262 500.63672 247.21094 C 498.77798 248.4501 500.01647 251.23913 504.35352 255.57617 C 506.21225 260.53279 508.22597 267.50242 510.39453 276.48633 C 512.56301 285.47024 519.53269 295.22889 531.30469 305.76172 C 551.75076 343.556 573.74696 374.22551 597.29102 397.76953 C 638.80282 386.6171 679.69419 371.12731 719.9668 351.30078 C 728.64088 357.49657 729.56926 367.10016 722.75391 380.11133 C 725.85183 388.16588 731.73948 394.3624 740.41406 398.69727 C 734.21825 407.99096 728.02194 417.59455 721.82617 427.50781 C 700.76047 436.1819 674.11853 449.5029 641.90039 467.4707 C 625.79137 468.70988 614.32902 472.42728 607.51367 478.62305 C 600.69833 484.81883 594.81231 489.15449 589.85547 491.63281 C 584.89896 493.49153 582.41992 495.35022 582.41992 497.20898 C 582.41992 500.30688 584.27873 501.54731 587.99609 500.92773 C 591.71352 500.30816 595.43106 498.75961 599.14844 496.28125 C 604.10508 492.56379 608.13257 490.39498 611.23047 489.77539 C 613.08888 489.15553 614.32974 489.0009 614.94922 489.31055 C 615.5687 489.62034 614.94878 490.70378 613.08984 492.5625 C 602.55703 499.37786 594.19186 503.25051 587.99609 504.17969 C 581.80026 505.10902 572.81688 506.81261 561.04492 509.29102 C 557.94534 511.14959 557.01692 512.85315 558.25586 514.40234 C 559.24299 515.63661 560.03507 516.18301 560.62891 516.04102 C 559.74322 516.65113 559.57225 517.49994 560.11523 518.58594 C 560.73471 519.82541 561.66534 520.75358 562.9043 521.37305 C 562.28482 521.37305 562.28482 522.14858 562.9043 523.69727 C 563.52376 525.24702 564.45248 525.70932 565.69141 525.08984 C 565.07194 527.56836 565.53724 529.2739 567.08594 530.20312 C 568.6349 531.13687 570.64855 531.28943 573.12695 530.66992 C 579.94232 527.572 587.99735 525.40304 597.29102 524.16406 C 606.5847 522.92465 613.3995 521.06632 617.73633 518.58789 C 623.31252 516.10955 627.65018 513.01035 630.74805 509.29297 C 639.42217 501.23846 645.9268 494.42389 650.26367 488.84766 L 651.19336 487.91797 C 690.22678 476.14595 719.34776 464.37353 738.55469 452.60156 C 726.78255 536.24471 721.51691 590.14891 722.75586 614.3125 C 734.52791 681.84657 740.72233 720.26096 741.3418 729.55469 C 741.96131 738.84837 740.7229 765.64353 737.625 809.94336 C 734.52709 854.24323 731.42993 885.3779 728.33203 903.3457 C 726.47331 918.8352 723.99437 929.36719 720.89648 934.94336 C 710.98329 951.05245 690.84765 962.97989 660.48828 970.72461 C 630.12887 978.46936 614.94922 985.43896 614.94922 991.63477 L 614.94922 998.14062 L 653.05273 999.07031 C 677.21626 994.11402 698.28221 993.8038 716.25 998.14062 C 735.45694 999.99942 750.94672 998.76069 762.71875 994.42383 C 774.4908 990.08678 789.67049 991.94554 808.25781 1000 C 828.70366 998.14138 833.96983 986.36887 824.05664 964.68359 C 823.43663 949.19415 824.05565 937.57675 825.91406 929.83203 C 827.77251 922.08731 829.0133 913.25901 829.63281 903.3457 C 835.82852 827.13752 837.6874 769.20772 835.20898 729.55469 C 832.73064 689.90162 835.20765 636.92775 842.64258 570.63281 C 850.07737 541.51264 852.24633 518.89814 849.14844 502.78906 C 837.99597 473.66887 831.80145 450.43419 830.5625 433.08594 C 833.04073 410.78113 839.54525 386.9262 850.07812 361.52344 L 877.95898 360.5957 L 877.95898 313.19727 C 877.95898 244.424 868.66553 195.16748 850.07812 165.42773 C 842.00378 152.67882 828.6828 144.44743 810.11523 140.73438 L 810.11523 39.033203 C 826.84389 35.315726 839.5447 22.304827 848.21875 0 L 725.54297 0 z M 738.55469 9.2929688 L 834.2793 9.2929688 C 828.70311 19.82581 820.64808 26.642335 810.11523 29.740234 L 804.53906 31.597656 C 798.9629 33.456388 792.61151 34.386719 785.48633 34.386719 C 778.36116 34.386719 772.6298 33.456388 768.29297 31.597656 L 762.7168 29.740234 C 752.80353 26.642335 744.75054 19.82581 738.55469 9.2929688 z M 83.349609 10.222656 L 91.714844 10.222656 L 91.714844 62.267578 L 111.23047 62.267578 L 111.23047 131.9707 L 143.75781 131.9707 L 143.75781 138.47656 L 83.349609 138.47656 L 83.349609 10.222656 z M 447.66211 33.232422 C 500.56653 33.232422 543.24023 75.904181 543.24023 128.80859 C 543.24023 181.71301 500.56653 224.38672 447.66211 224.38672 C 394.75769 224.38672 352.08398 181.71301 352.08398 128.80859 C 352.08398 75.904181 394.75769 33.232422 447.66211 33.232422 z M 770.15234 40.892578 C 773.25023 42.751311 778.05302 43.679688 784.55859 43.679688 C 791.06414 43.679687 796.79512 42.751311 801.75195 40.892578 L 801.75195 84.572266 L 778.51758 84.572266 L 778.51758 138.47656 L 770.15234 138.47656 L 770.15234 40.892578 z M 787.81055 93.865234 L 801.75195 93.865234 L 801.75195 138.47656 L 787.81055 138.47656 L 787.81055 93.865234 z M 113.08984 151.48633 C 139.73173 151.48633 155.83982 160.77984 161.41602 179.36719 C 140.35031 176.88887 127.64954 179.21272 123.3125 186.33789 C 118.97544 193.46302 114.94795 196.71528 111.23047 196.0957 C 111.23047 188.66076 106.58469 184.94336 97.291016 184.94336 C 85.519028 184.94336 79.632812 194.23879 79.632812 212.82617 C 79.632813 220.26112 83.660326 229.24451 91.714844 239.77734 L 91.714844 350.37109 L 29.445312 350.37109 L 29.445312 314.12695 C 29.445313 249.07116 38.120557 201.67336 55.46875 171.93359 C 67.240774 158.30287 86.447964 151.48633 113.08984 151.48633 z M 781.30469 151.48633 C 808.56621 151.48633 827.77342 158.30287 838.92578 171.93359 C 856.89364 201.67336 865.87695 248.76106 865.87695 313.19727 L 865.87695 349.44336 L 803.60938 349.44336 L 803.60938 239.77734 C 811.04448 229.24451 814.76172 219.95104 814.76172 211.89648 C 814.76172 193.30914 808.87556 184.01562 797.10352 184.01562 C 788.42922 184.01563 784.09375 188.04118 784.09375 196.0957 C 779.75671 196.71528 775.57398 193.46302 771.54688 186.33789 C 767.51962 179.21274 754.6638 176.58072 732.97852 178.43945 C 738.55478 160.47168 754.66282 151.48633 781.30469 151.48633 z M 749.30078 188.13086 C 758.40085 188.44549 764.11213 190.63714 766.43555 194.70312 C 770.15301 201.20871 778.20802 206.93989 790.59961 211.89648 C 790.59961 201.36366 793.07637 196.0957 798.0332 196.0957 C 801.75045 196.0957 803.60938 201.36366 803.60938 211.89648 C 803.60937 219.33147 799.58188 228.31483 791.52734 238.84766 L 791.52734 292.75195 L 775.72852 292.75195 C 768.91316 286.5562 762.71878 275.40205 757.14258 259.29297 C 751.56632 258.05396 745.21497 258.20887 738.08984 259.75781 C 730.96487 261.30677 726.93705 260.6885 726.00781 257.90039 C 725.0781 255.11229 723.68512 249.07102 721.82617 239.77734 C 723.68459 237.29902 723.99285 235.28529 722.75391 233.73633 C 721.51475 232.18719 718.72749 232.03231 714.39062 233.27148 L 725.54297 207.25 C 733.59751 199.19548 748.15674 198.57525 769.22266 205.39062 L 769.22266 202.60156 C 747.53741 194.54704 733.59815 193.30857 727.40234 198.88477 L 729.25977 189.5918 C 737.15941 188.43009 743.84074 187.94208 749.30078 188.13086 z M 145.16016 188.19727 C 150.57663 187.96492 157.23513 188.43009 165.13477 189.5918 L 167.92188 198.88477 C 161.10651 193.92815 146.85717 195.1666 125.17188 202.60156 L 125.17188 206.32031 C 146.23758 198.88533 160.79704 199.19548 168.85156 207.25 L 180.00391 233.27148 C 175.66685 232.03231 172.87781 232.34243 171.63867 234.20117 C 170.39951 236.0599 170.70963 238.22871 172.56836 240.70703 C 171.32921 250.00071 170.2458 255.88691 169.31641 258.36523 C 168.38706 260.84353 164.35954 261.46181 157.23438 260.22266 C 150.10922 258.98351 143.44774 258.98351 137.25195 260.22266 C 131.67574 276.33171 125.79149 287.17378 119.5957 292.75 L 102.86719 292.75 L 102.86719 238.84766 C 94.812666 228.9344 90.785156 220.26112 90.785156 212.82617 C 90.785156 201.67373 92.953965 196.0957 97.291016 196.0957 C 101.62806 196.0957 103.79492 201.67373 103.79492 212.82617 C 116.80606 207.86952 125.01614 201.98335 128.42383 195.16797 C 130.55363 190.90838 136.1327 188.5845 145.16016 188.19727 z M 740.4707 204.31641 C 739.81239 204.33577 739.17429 204.38348 738.55469 204.46094 C 734.83733 205.08047 732.20352 206.31899 730.6543 208.17773 C 729.10511 210.03652 728.02182 211.27697 727.40234 211.89648 L 723.68359 213.75391 L 724.61328 218.40234 L 728.33203 217.47266 C 728.95151 217.47266 730.34501 217.78277 732.51367 218.40234 C 734.68219 219.02197 737.31618 219.33008 740.41406 219.33008 C 744.75114 218.71049 750.32724 216.54365 757.14258 212.82617 L 769.22266 212.82617 L 769.22266 208.17773 L 757.14258 208.17773 C 750.63701 205.46708 745.07892 204.18083 740.4707 204.31641 z M 154.12695 204.33008 C 149.92543 204.26228 144.29969 205.85459 137.25195 209.10742 L 125.17188 209.10742 L 125.17188 213.75391 L 137.25195 213.75391 C 144.68693 216.85181 150.26494 218.71049 153.98242 219.33008 C 157.69988 219.94965 160.64203 219.79462 162.81055 218.86523 C 164.97909 217.93587 166.37261 217.78277 166.99219 218.40234 L 170.71094 218.40234 L 170.71094 213.75391 L 166.99219 211.89648 C 166.37261 211.89648 165.28917 210.8111 163.74023 208.64258 C 162.19129 206.47406 159.5573 205.08047 155.83984 204.46094 C 155.29771 204.38349 154.72717 204.33976 154.12695 204.33008 z M 742.27148 207.25 C 744.1302 207.25 748.15771 208.48844 754.35352 210.9668 C 748.77733 213.44507 744.13142 214.99365 740.41406 215.61328 L 735.76562 215.61328 C 734.52653 215.61328 732.35961 214.99307 729.26172 213.75391 C 730.50067 213.75391 731.73956 212.98059 732.97852 211.43164 C 734.21749 209.88269 734.86799 208.99344 736.69531 208.17773 C 735.42522 210.02431 733.00665 215.09022 740.41211 214.68359 C 743.6872 214.13299 747.99818 211.30728 742.27148 207.25 z M 151.48438 208.17773 C 151.75822 209.27312 148.43475 213.4662 154.91016 215.61328 C 157.05287 216.4228 163.07705 213.27929 158.62891 209.10742 C 159.86806 209.10742 161.10653 209.8827 162.3457 211.43164 C 163.58485 212.9806 164.5152 214.06405 165.13477 214.68359 C 162.65647 215.92275 160.48764 216.54297 158.62891 216.54297 L 153.98242 216.54297 C 150.26494 215.92345 145.61727 214.06469 140.04102 210.9668 C 146.85644 209.10801 149.62564 208.17773 151.48438 208.17773 z M 743.20117 306.69141 L 791.52734 306.69141 L 791.52734 332.71289 C 775.41829 350.68069 760.85883 368.95952 747.84766 387.54688 C 741.03239 388.16646 737.93517 385.06729 738.55469 378.25195 L 743.20117 362.45312 L 743.20117 306.69141 z M 102.86719 307.62109 L 152.12305 307.62109 L 152.12305 362.45312 L 156.76953 379.18164 C 156.76953 385.37745 153.36228 388.47656 146.54688 388.47656 C 133.53573 369.26963 118.97622 350.99082 102.86719 333.64258 L 102.86719 307.62109 z M 58.255859 361.52344 L 69.408203 361.52344 C 78.701877 372.05634 86.446794 381.0416 92.642578 388.47656 L 68.480469 388.47656 L 58.255859 361.52344 z M 824.98438 361.52344 L 836.13867 361.52344 L 825.91406 387.54688 L 801.75195 387.54688 C 807.94774 380.73149 815.6907 372.05634 824.98438 361.52344 z M 70.337891 395.91016 L 99.148438 395.91016 L 101.9375 398.69922 L 71.267578 398.69922 L 70.337891 395.91016 z M 795.24609 395.91016 L 824.98633 395.91016 L 823.12695 398.69922 L 793.38672 398.69922 L 795.24609 395.91016 z M 783.16406 409.85156 L 813.83203 409.85156 C 812.59291 439.59136 816.00216 464.9929 824.05664 486.05859 C 832.11087 507.12428 833.34971 528.19022 827.77344 549.25586 C 822.19722 570.32152 819.09995 594.48661 818.48047 621.74805 C 817.86101 649.00957 816.62066 674.72124 814.76172 698.88477 C 820.33792 748.45111 818.1691 816.29456 808.25586 902.41602 L 749.70703 902.41602 C 761.47904 800.80513 763.18266 727.54051 754.81836 682.62109 C 746.45409 637.7016 742.27148 610.59441 742.27148 601.30078 C 744.1302 557.93025 750.94476 502.16931 762.7168 434.01562 L 783.16406 409.85156 z M 80.560547 410.78125 L 112.16016 410.78125 L 132.60547 434.01562 C 144.3775 502.78888 151.194 558.86 153.05273 602.23047 C 153.05273 611.52415 148.71515 638.63128 140.04102 683.55078 C 131.36694 728.4702 133.22558 801.42471 145.61719 902.41602 L 87.066406 902.41602 C 76.533572 816.29456 74.364765 748.76122 80.560547 699.81445 C 78.701811 675.03135 77.463331 649.16453 76.84375 622.21289 C 76.224172 595.26122 72.971947 571.25124 67.085938 550.18555 C 61.199959 529.11988 62.438445 507.89891 70.802734 486.52344 C 79.167042 465.14795 82.419283 439.90145 80.560547 410.78125 z M 364.75781 416.16602 L 364.75781 436.16602 L 530.56641 436.16602 L 530.56641 416.16602 L 364.75781 416.16602 z M 767.36523 915.42773 L 788.74023 915.42773 C 791.83805 928.4389 790.44457 939.43595 784.55859 948.41992 C 778.6726 957.40383 769.22406 963.44508 756.21289 966.54297 C 754.35416 956.01009 758.07154 938.97178 767.36523 915.42773 z M 106.58398 916.35742 L 127.0293 916.35742 C 136.32298 939.28189 140.04032 956.01009 138.18164 966.54297 C 125.17045 963.44508 115.72192 957.55889 109.83594 948.88477 C 103.94995 940.21068 102.86651 929.3686 106.58398 916.35742 z " />
</svg>
