<?xml version="1.0" encoding="UTF-8" standalone="no"?>
<svg
   width="1000"
   height="1000"
   id="svg3507"
   sodipodi:version="0.32"
   inkscape:version="1.4.2 (f4327f4, 2025-05-13)"
   sodipodi:docname="1393E.svg"
   version="1.1"
   xmlns:inkscape="http://www.inkscape.org/namespaces/inkscape"
   xmlns:sodipodi="http://sodipodi.sourceforge.net/DTD/sodipodi-0.dtd"
   xmlns="http://www.w3.org/2000/svg"
   xmlns:svg="http://www.w3.org/2000/svg"
   xmlns:rdf="http://www.w3.org/1999/02/22-rdf-syntax-ns#"
   xmlns:cc="http://creativecommons.org/ns#"
   xmlns:dc="http://purl.org/dc/elements/1.1/">
  <metadata
     id="metadata3514">
    <rdf:RDF>
      <cc:Work
         rdf:about="">
        <dc:format>image/svg+xml</dc:format>
        <dc:type
           rdf:resource="http://purl.org/dc/dcmitype/StillImage" />
        <dc:date>30/09/06</dc:date>
        <dc:creator>
          <cc:Agent>
            <dc:title>ST</dc:title>
          </cc:Agent>
        </dc:creator>
        <dc:publisher>
          <cc:Agent>
            <dc:title>Serge Rosmorduc</dc:title>
          </cc:Agent>
        </dc:publisher>
        <dc:description>D82B
Var. de D82 
FCD p. 270 
in : SnTt 
Pyr. 1463c, pyr. de Merenre
</dc:description>
        <cc:license
           rdf:resource="http://creativecommons.org/licenses/GPL/2.0/" />
      </cc:Work>
      <cc:License
         rdf:about="http://creativecommons.org/licenses/GPL/2.0/">
        <cc:permits
           rdf:resource="http://web.resource.org/cc/Reproduction" />
        <cc:permits
           rdf:resource="http://web.resource.org/cc/Distribution" />
        <cc:requires
           rdf:resource="http://web.resource.org/cc/Notice" />
        <cc:permits
           rdf:resource="http://web.resource.org/cc/DerivativeWorks" />
        <cc:requires
           rdf:resource="http://web.resource.org/cc/ShareAlike" />
        <cc:requires
           rdf:resource="http://web.resource.org/cc/SourceCode" />
      </cc:License>
    </rdf:RDF>
  </metadata>
  <defs
     id="defs3512" />
  <sodipodi:namedview
     inkscape:window-height="998"
     inkscape:window-width="1680"
     inkscape:pageshadow="2"
     inkscape:pageopacity="0.0"
     guidetolerance="10.0"
     gridtolerance="10.0"
     objecttolerance="10.0"
     borderopacity="1.0"
     bordercolor="#666666"
     pagecolor="#ffffff"
     id="base"
     inkscape:zoom="0.53386563"
     inkscape:cx="527.28624"
     inkscape:cy="358.70449"
     inkscape:window-x="-8"
     inkscape:window-y="-8"
     inkscape:current-layer="svg3507"
     inkscape:showpageshadow="2"
     inkscape:pagecheckerboard="0"
     inkscape:deskcolor="#d1d1d1"
     inkscape:window-maximized="1"
     showguides="true">
    <sodipodi:guide
       position="517.37108,693.0626"
       orientation="1,0"
       id="guide1"
       inkscape:locked="false" />
    <sodipodi:guide
       position="391.70117,639.06836"
       orientation="0,-1"
       id="guide2"
       inkscape:locked="false" />
  </sodipodi:namedview>
  <path
     id="path3509"
     style="fill:#000000;stroke:none;stroke-width:0.999999"
     d="m 428.87674,300.27921 c -33.68231,1.40521 -62.01004,13.34931 -84.83395,35.83257 -36.51826,35.97321 -53.07788,62.12262 -49.8076,78.47407 -40.3336,57.77517 -51.84133,92.72869 -34.39977,104.71979 15.26134,0 22.93318,7.84317 22.93318,23.64958 0,15.80641 2.44025,31.06024 7.34572,45.77654 4.90545,14.71631 14.14425,20.99249 27.77045,18.81231 13.6262,-2.18025 30.79796,-1.65781 51.50984,1.61242 v 24.54346 c -83.93753,1.09012 -134.57952,27.85167 -152.02108,80.17633 -35.97321,47.9643 -77.98645,95.38037 -125.950727,142.25459 21.801947,-63.22565 35.488787,-125.37324 40.939277,-186.41871 38.15339,-25.07223 66.47979,-75.18981 85.01145,-150.40652 -17.44155,-5.45049 -28.59832,1.87035 -33.50374,22.03715 -4.90546,20.16681 -17.71686,40.56233 -38.4287,61.27419 6.54056,-32.70293 16.82403,-57.19551 30.9953,-73.54699 14.17128,-16.35145 30.55741,-27.76935 49.08907,-34.30996 7.63069,-3.27028 8.76519,-10.68093 3.31467,-22.12696 -5.45047,-11.44602 -15.30143,-17.11008 -29.47269,-17.11008 -54.50488,38.15342 -85.53271,71.62367 -93.16338,100.51124 -7.630709,28.88758 -14.168067,60.78872 -19.618525,95.67183 H 84.883296 C 17.297249,811.95034 -9.8967966,928.05364 3.1843701,1000 125.27529,952.03581 211.91549,884.48521 263.15007,797.27744 c 17.44156,-55.59502 73.83535,-88.6327 169.21883,-98.98862 20.0505,-2.17691 55.06787,-3.77319 85.00219,-4.72604 L 488.80582,579.77351 C 562.93247,555.79136 598.58181,509.1566 595.85656,439.93542 593.13137,370.71435 559.66107,327.13416 495.34533,309.14753 c -24.11842,-6.74497 -46.25921,-9.71145 -66.46859,-8.86832 z m 9.04582,27.23155 c 13.59215,0.44283 28.1399,3.02563 43.53755,7.7948 61.5905,19.07673 90.44135,54.55257 86.62601,106.33221 -3.81534,51.77962 -27.52441,86.38434 -71.12836,103.82589 -18.53162,9.81088 -27.24812,5.45265 -26.15803,-13.07901 21.80193,-27.25244 32.69758,-47.47663 32.69754,-60.5578 10e-5,-25.07225 -7.93299,-39.19159 -23.73939,-42.46188 -15.80643,-3.27029 -28.00783,-0.0465 -36.7286,9.76435 -7.6307,-16.35148 -41.9721,-35.43906 -103.01755,-57.241 24.52718,-37.60837 57.13437,-55.70612 97.91083,-54.37756 z m -98.71704,87.07509 c 22.07449,0.81755 53.8858,18.86053 95.58202,54.01616 9.81088,0 19.40062,-3.0524 28.66647,-9.04796 9.26583,-5.99552 14.14642,-3.20429 14.69144,8.24175 0.54491,11.44602 -12.79079,30.7969 -40.04326,58.04934 3.27031,29.43263 10.94218,53.92524 22.93319,73.547 5.45054,19.62176 -0.30287,31.91084 -17.19989,36.81627 -16.89652,4.90543 -29.71005,0.80837 -38.43083,-12.2728 -7.63067,-40.33357 -33.25563,-55.58526 -76.85951,-45.77441 -10.90099,4.36038 -17.43834,-5.49053 -19.61852,-29.47269 -1.09009,-30.52271 -8.76191,-45.77655 -22.93319,-45.77655 -17.44156,0 -5.93381,-27.80622 34.39977,-83.40116 5.17796,-3.54281 11.45416,-5.19748 18.81231,-4.92495 z m 0.35714,17.64684 c -13.35326,-0.27253 -22.41594,6.87175 -27.32137,21.58807 8.72077,20.71185 35.39037,21.32399 80.08436,1.70223 -21.80195,-15.26137 -39.4093,-23.01777 -52.76299,-23.2903 z"
     sodipodi:nodetypes="ssccsssccccccscscscsccccsccsssssscccsccsscscccccccscssccs" />
</svg>
