<?xml version="1.0" encoding="UTF-8" standalone="no"?>
<svg
   width="1000"
   height="1000"
   id="svg3507"
   sodipodi:version="0.32"
   inkscape:version="1.4.2 (f4327f4, 2025-05-13)"
   sodipodi:docname="1393D.svg"
   version="1.1"
   xmlns:inkscape="http://www.inkscape.org/namespaces/inkscape"
   xmlns:sodipodi="http://sodipodi.sourceforge.net/DTD/sodipodi-0.dtd"
   xmlns="http://www.w3.org/2000/svg"
   xmlns:svg="http://www.w3.org/2000/svg"
   xmlns:rdf="http://www.w3.org/1999/02/22-rdf-syntax-ns#"
   xmlns:cc="http://creativecommons.org/ns#"
   xmlns:dc="http://purl.org/dc/elements/1.1/">
  <metadata
     id="metadata3514">
    <rdf:RDF>
      <cc:Work
         rdf:about="">
        <dc:format>image/svg+xml</dc:format>
        <dc:type
           rdf:resource="http://purl.org/dc/dcmitype/StillImage" />
        <dc:date>30/09/06</dc:date>
        <dc:creator>
          <cc:Agent>
            <dc:title>ST</dc:title>
          </cc:Agent>
        </dc:creator>
        <dc:publisher>
          <cc:Agent>
            <dc:title>Serge Rosmorduc</dc:title>
          </cc:Agent>
        </dc:publisher>
        <dc:description>D82B
Var. de D82 
FCD p. 270 
in : SnTt 
Pyr. 1463c, pyr. de Merenre
</dc:description>
        <cc:license
           rdf:resource="http://creativecommons.org/licenses/GPL/2.0/" />
      </cc:Work>
      <cc:License
         rdf:about="http://creativecommons.org/licenses/GPL/2.0/">
        <cc:permits
           rdf:resource="http://web.resource.org/cc/Reproduction" />
        <cc:permits
           rdf:resource="http://web.resource.org/cc/Distribution" />
        <cc:requires
           rdf:resource="http://web.resource.org/cc/Notice" />
        <cc:permits
           rdf:resource="http://web.resource.org/cc/DerivativeWorks" />
        <cc:requires
           rdf:resource="http://web.resource.org/cc/ShareAlike" />
        <cc:requires
           rdf:resource="http://web.resource.org/cc/SourceCode" />
      </cc:License>
    </rdf:RDF>
  </metadata>
  <defs
     id="defs3512" />
  <sodipodi:namedview
     inkscape:window-height="998"
     inkscape:window-width="1680"
     inkscape:pageshadow="2"
     inkscape:pageopacity="0.0"
     guidetolerance="10.0"
     gridtolerance="10.0"
     objecttolerance="10.0"
     borderopacity="1.0"
     bordercolor="#666666"
     pagecolor="#ffffff"
     id="base"
     inkscape:zoom="0.53386563"
     inkscape:cx="797.01704"
     inkscape:cy="935.6287"
     inkscape:window-x="-8"
     inkscape:window-y="-8"
     inkscape:current-layer="svg3507"
     inkscape:showpageshadow="2"
     inkscape:pagecheckerboard="0"
     inkscape:deskcolor="#d1d1d1"
     inkscape:window-maximized="1" />
  <path
     id="path3509"
     style="fill:#000000;stroke:none;stroke-width:0.999999"
     d="M 391.70117 0.12695312 C 360.93847 1.4103578 335.06621 12.319126 314.2207 32.853516 C 280.86788 65.708542 265.74366 89.591302 268.73047 104.52539 C 231.89302 157.29255 221.38279 189.21627 237.3125 200.16797 C 251.25098 200.16797 258.25781 207.33129 258.25781 221.76758 C 258.25781 236.20388 260.48654 250.13549 264.9668 263.57617 C 269.44704 277.01686 277.88501 282.74901 290.33008 280.75781 C 302.77515 278.76655 318.45845 279.2437 337.375 282.23047 L 337.375 304.64648 C 260.71325 305.6421 214.46096 330.08394 198.53125 377.87305 C 165.67623 421.67976 127.30474 464.98576 83.498047 507.79688 C 103.41018 450.05169 115.91063 393.29111 120.88867 337.53711 C 155.73489 314.63817 181.60593 268.86483 198.53125 200.16797 C 182.60155 195.18993 172.41186 201.8762 167.93164 220.29492 C 163.45139 238.71365 151.7505 257.34127 132.83398 276.25781 C 138.8076 246.3896 148.19969 224.02006 161.14258 209.08594 C 174.08548 194.15185 189.05124 183.72366 205.97656 177.75 C 212.94582 174.76319 213.98198 167.9949 209.00391 157.54102 C 204.0259 147.08715 195.02883 141.91406 182.08594 141.91406 C 132.3056 176.76031 103.96729 207.32932 96.998047 233.71289 C 90.028779 260.09647 84.058085 289.23239 79.080078 321.0918 L 77.525391 321.0918 C 15.797765 467.44596 -9.039076 573.48532 2.9082031 639.19531 C 114.41617 595.38869 193.54632 533.69344 240.33984 454.04492 C 256.26955 403.26893 307.77507 373.09501 394.89062 363.63672 C 482.00623 354.17846 525.55273 369.86177 525.55273 410.68164 C 571.60545 596.56738 546.1734 490.65648 570.71484 586.0957 C 555.86956 636.19856 543.38774 730.5018 520.51172 783.92773 C 510.44808 802.94598 498.76661 819.81278 485.4668 834.52734 C 457.58564 865.37362 442.01602 915.67325 438.78125 985.45117 C 439.35286 995.47167 443.01659 998.03184 449.68945 993.01172 C 452.11128 999.31523 455.93716 999.91512 461.31055 994.71094 C 462.22204 997.79875 463.42981 999.51144 464.61133 999.90625 L 464.72852 999.92188 L 464.89062 1000 L 465.07031 999.9707 L 465.13672 999.91992 L 465.30078 999.99805 C 466.83101 999.71696 468.55226 997.3835 470.49414 993.01953 C 474.21553 999.50932 478.07771 1000.6585 481.96875 996.57031 C 483.62821 989.5164 484.9283 972.89305 486.00195 946.54102 C 487.07548 920.18905 495.08601 896.67493 509.90039 876.24023 C 518.24663 873.44413 520.22354 884.22808 515.80664 908.45117 C 511.38967 932.67415 510.40473 947.22034 513.00977 952.22656 C 515.24067 955.19426 517.88163 955.62851 520.84766 953.39648 C 525.1126 951.3489 529.32627 941.2261 533.56641 922.94141 C 537.80693 904.65672 543.70656 890.02559 551.20508 879.1582 C 558.70432 868.29126 562.67913 845.25812 562.99609 810.18555 C 573.02404 788.83396 586.29313 767.48497 602.79102 746.13477 C 634.33728 705.31024 649.15452 647.34762 647.29883 572.19336 C 647.29883 518.26501 621.77771 414.48786 600.25391 359.96094 C 578.34642 324.11359 550.72391 306.4397 517.37109 306.9375 C 484.01827 307.43529 460.37407 290.24076 446.43555 255.39453 C 514.13683 233.49117 546.69605 190.89876 544.20703 127.67773 C 541.71805 64.456714 511.14899 24.654089 452.4082 8.2265625 C 430.38038 2.0662507 410.15878 -0.64309017 391.70117 0.12695312 z M 399.96289 24.998047 C 412.37686 25.402494 425.66359 27.761407 439.72656 32.117188 C 495.97834 49.540328 522.32837 81.941093 518.84375 129.23242 C 515.35913 176.52374 493.70518 208.12889 453.88086 224.05859 C 436.95558 233.01905 428.99463 229.0386 429.99023 212.11328 C 449.90235 187.22311 459.85356 168.75197 459.85352 156.80469 C 459.85361 133.90572 452.60817 121.01026 438.17188 118.02344 C 423.73557 115.03662 412.5918 117.98092 404.62695 126.94141 C 397.65769 112.00729 366.29303 94.57424 310.53906 74.662109 C 332.9402 40.313672 362.72097 23.784655 399.96289 24.998047 z M 309.80273 104.52539 C 329.96378 105.27207 359.01766 121.75107 397.09961 153.85938 C 406.06008 153.85938 414.81857 151.07156 423.28125 145.5957 C 431.74391 140.11988 436.20144 142.66916 436.69922 153.12305 C 437.1969 163.57692 425.01715 181.25045 400.12695 206.14062 C 403.11378 233.022 410.12065 255.39157 421.07227 273.3125 C 426.05035 291.23343 420.79565 302.45728 405.36328 306.9375 C 389.93136 311.41772 378.22852 307.6758 370.26367 295.72852 C 363.29443 258.8911 339.89067 244.96144 300.06641 253.92188 C 290.11033 257.90429 284.13964 248.90727 282.14844 227.00391 C 281.15284 199.12693 274.14602 185.19531 261.20312 185.19531 C 245.27341 185.19531 255.78366 159.79936 292.62109 109.02344 C 297.35022 105.78772 303.08239 104.27648 309.80273 104.52539 z M 310.12891 120.64258 C 297.93313 120.39368 289.65601 126.91868 285.17578 140.35938 C 293.14063 159.27591 317.49848 159.83499 358.31836 141.91406 C 338.40622 127.97556 322.32509 120.89149 310.12891 120.64258 z " />
</svg>
