<?xml version="1.0" encoding="UTF-8" standalone="no"?>
<svg
   width="1100"
   height="800"
   id="svg3366"
   sodipodi:version="0.32"
   inkscape:version="1.4.2 (f4327f4, 2025-05-13)"
   sodipodi:docname="13938.svg"
   version="1.0"
   xmlns:inkscape="http://www.inkscape.org/namespaces/inkscape"
   xmlns:sodipodi="http://sodipodi.sourceforge.net/DTD/sodipodi-0.dtd"
   xmlns="http://www.w3.org/2000/svg"
   xmlns:svg="http://www.w3.org/2000/svg"
   xmlns:rdf="http://www.w3.org/1999/02/22-rdf-syntax-ns#"
   xmlns:cc="http://creativecommons.org/ns#"
   xmlns:dc="http://purl.org/dc/elements/1.1/">
  <metadata
     id="metadata3373">
    <rdf:RDF>
      <cc:Work
         rdf:about="">
        <dc:format>image/svg+xml</dc:format>
        <dc:type
           rdf:resource="http://purl.org/dc/dcmitype/StillImage" />
        <dc:date>30/09/06</dc:date>
        <dc:creator>
          <cc:Agent>
            <dc:title>ST</dc:title>
          </cc:Agent>
        </dc:creator>
        <dc:publisher>
          <cc:Agent>
            <dc:title>Serge Rosmorduc</dc:title>
          </cc:Agent>
        </dc:publisher>
        <dc:description>D77 &quot;de synthèse&quot; à partir d'un signe de S.T, Var. de D77 
FCD p. 136 
in : nhsi 
Pyr. 126b. Merenre
Pyr. 553d Pepi Ier
Pepi II 566a 
Merenre 1708c</dc:description>
        <cc:license
           rdf:resource="http://creativecommons.org/licenses/GPL/2.0/" />
      </cc:Work>
      <cc:License
         rdf:about="http://creativecommons.org/licenses/GPL/2.0/">
        <cc:permits
           rdf:resource="http://web.resource.org/cc/Reproduction" />
        <cc:permits
           rdf:resource="http://web.resource.org/cc/Distribution" />
        <cc:requires
           rdf:resource="http://web.resource.org/cc/Notice" />
        <cc:permits
           rdf:resource="http://web.resource.org/cc/DerivativeWorks" />
        <cc:requires
           rdf:resource="http://web.resource.org/cc/ShareAlike" />
        <cc:requires
           rdf:resource="http://web.resource.org/cc/SourceCode" />
      </cc:License>
    </rdf:RDF>
  </metadata>
  <defs
     id="defs3371" />
  <sodipodi:namedview
     inkscape:window-height="998"
     inkscape:window-width="1680"
     inkscape:pageshadow="2"
     inkscape:pageopacity="0.0"
     guidetolerance="10.0"
     gridtolerance="10.0"
     objecttolerance="10.0"
     borderopacity="1.0"
     bordercolor="#666666"
     pagecolor="#ffffff"
     id="base"
     inkscape:zoom="0.42"
     inkscape:cx="120.2381"
     inkscape:cy="255.95238"
     inkscape:window-x="-8"
     inkscape:window-y="-8"
     inkscape:current-layer="svg3366"
     width="1800px"
     height="1800px"
     inkscape:showpageshadow="2"
     inkscape:pagecheckerboard="0"
     inkscape:deskcolor="#d1d1d1"
     inkscape:window-maximized="1"
     showguides="true" />
  <path
     id="path1"
     style="fill:#000000;stroke:none;stroke-width:1"
     inkscape:transform-center-x="11.593558"
     inkscape:transform-center-y="-94.594296"
     d="M 750.10156 14.837891 C 717.43311 16.200847 690.03138 27.785431 667.89453 49.591797 C 632.47557 84.482272 616.35137 109.8576 619.52344 125.7168 C 580.40392 181.75279 569.30229 215.58467 586.21875 227.21484 C 601.02069 227.21484 608.42187 234.88053 608.42188 250.21094 C 608.42187 265.54167 610.80077 280.34403 615.55859 294.61719 C 620.31641 308.89066 629.30362 314.97 642.51953 312.85547 C 655.73573 310.73917 672.38831 311.26738 692.47656 314.43945 L 692.47656 338.23047 C 611.06573 339.28773 561.90084 365.18976 544.98438 415.93945 L 370.9082 485.04297 C 339.629 445.7498 278.29797 383.171 207.00195 311.42578 C 208.07916 288.35053 200.32733 262.52621 185.30078 233.13867 L 152.51172 169.01367 C 129.14864 176.97589 122.41046 190.97898 132.29492 211.02148 C 122.28154 215.35232 62.431863 246.47248 81.851562 290.95898 C 92.587463 315.55268 122.29214 326.12376 162.67188 345.0293 C 209.16235 439.53079 292.72849 535.18325 327.60352 583.39844 C 376.23957 570.77914 503.87384 551.51753 614.01172 468.91406 C 641.83599 435.73907 689.14832 408.25106 753.53125 400.87305 C 845.98235 390.27854 892.30078 407.48151 892.30078 450.83008 L 935.11914 623.69727 C 886.48397 631.09809 810.88836 652.771 708.33203 688.71875 C 686.91976 680.05028 659.98505 678.79972 627.27734 683.23047 L 555.91016 692.89844 C 555.67416 717.5799 566.64968 728.58096 588.83594 725.90234 C 589.60106 736.78527 599.11235 803.5682 647.52148 800 C 674.28372 798.02737 700.8875 775.7158 728.29102 740.54492 C 831.90461 737.37285 934.06253 712.50558 1023.9316 693.47461 C 1020.7599 576.11604 1003.3145 477.25952 971.5957 396.90625 C 948.33569 358.84458 918.99709 340.07758 883.57812 340.60547 C 848.15997 341.13424 823.05041 322.89785 808.24805 285.89453 C 880.14265 262.63451 914.76936 217.43455 912.12695 150.29688 C 909.48365 83.159523 876.97134 40.869072 814.5918 23.423828 C 791.19935 16.881975 769.70263 14.020117 750.10156 14.837891 z M 758.93359 41.212891 C 772.1166 41.642374 786.17524 44.171325 801.10938 48.796875 C 860.84591 67.299376 888.86462 101.65996 885.16406 151.88086 C 881.4635 202.10206 858.46709 235.67142 816.17578 252.58789 C 798.20057 262.10322 789.74203 257.8741 790.80078 239.90039 C 811.94628 213.46828 822.51953 193.90811 822.51953 181.2207 C 822.51953 156.90341 814.85387 143.1584 799.52344 139.98633 C 784.19273 136.81454 772.29793 139.98631 763.83984 149.50195 C 756.43872 133.64275 723.1355 115.13993 663.92773 93.994141 C 687.71654 57.517989 719.38459 39.924441 758.93359 41.212891 z M 663.13477 125.71289 C 684.54467 126.50583 715.46905 143.95152 755.91016 178.04883 C 765.4258 178.04883 774.67719 175.14125 783.66406 169.32617 C 792.6518 163.5111 797.40961 166.15419 797.9375 177.25586 C 798.46599 188.35725 785.51414 207.12455 759.08203 233.55664 C 762.2541 262.10327 769.65529 285.89284 781.28516 304.92383 C 786.57177 323.9551 781.0208 335.84795 764.63281 340.60547 C 748.24482 345.3633 735.82136 341.39836 727.36328 328.71094 C 719.96216 289.59171 695.11748 274.79129 652.82617 284.30664 C 642.25328 288.53597 635.90944 279.02009 633.79492 255.75977 C 632.73767 226.15589 625.33649 211.35352 611.5918 211.35352 C 594.67533 211.35352 605.77695 184.39216 644.89648 130.4707 C 649.91854 127.03453 655.99813 125.44857 663.13477 125.71289 z M 663.5293 142.76172 C 650.57756 142.49703 641.72461 149.50207 636.9668 163.77539 C 645.42518 183.86512 671.32721 184.39427 714.67578 165.36328 C 693.53013 150.56059 676.48103 143.0264 663.5293 142.76172 z " />
</svg>
