<?xml version="1.0" encoding="UTF-8" standalone="no"?>
<svg
   width="1000"
   height="1000"
   version="1.1"
   id="svg1"
   sodipodi:docname="13A35.svg"
   inkscape:version="1.4.2 (f4327f4, 2025-05-13)"
   xmlns:inkscape="http://www.inkscape.org/namespaces/inkscape"
   xmlns:sodipodi="http://sodipodi.sourceforge.net/DTD/sodipodi-0.dtd"
   xmlns="http://www.w3.org/2000/svg"
   xmlns:svg="http://www.w3.org/2000/svg">
  <defs
     id="defs1" />
  <sodipodi:namedview
     id="namedview1"
     pagecolor="#ffffff"
     bordercolor="#666666"
     borderopacity="1.0"
     inkscape:showpageshadow="2"
     inkscape:pageopacity="0.0"
     inkscape:pagecheckerboard="0"
     inkscape:deskcolor="#d1d1d1"
     inkscape:zoom="0.53386562"
     inkscape:cx="366.19702"
     inkscape:cy="624.68904"
     inkscape:window-width="1680"
     inkscape:window-height="998"
     inkscape:window-x="-8"
     inkscape:window-y="-8"
     inkscape:window-maximized="1"
     inkscape:current-layer="svg1"
     showguides="true">
    <sodipodi:guide
       position="500,500"
       orientation="0,-1"
       id="guide1"
       inkscape:locked="false" />
    <sodipodi:guide
       position="500,500"
       orientation="1,0"
       id="guide2"
       inkscape:locked="false" />
  </sodipodi:namedview>
  <circle
     style="fill:none;fill-rule:evenodd;stroke:#613583;stroke-width:35;stroke-linecap:round;stroke-miterlimit:5;stroke-dasharray:none"
     id="path2"
     cx="500.00003"
     cy="500.00003"
     r="482.49997" />
  <path
     id="path1"
     style="fill:#000000;stroke:none;stroke-width:55.6021"
     d="m 600.62276,79.385723 c -41.00662,0 -66.55164,7.563114 -76.63518,22.688507 -10.08357,15.12536 -15.12518,26.04904 -15.12518,32.77143 0.67222,7.39466 -5.37765,21.51108 -18.15021,42.35048 -3.36118,6.72239 0.33496,12.10108 11.09079,16.13453 l -1.00784,9.07509 c -1.34445,6.05015 1.68049,9.0751 9.07511,9.0751 -6.05017,6.7224 -4.70627,10.75569 4.03287,12.10015 -1.34452,6.72239 0.67365,11.09123 6.05159,13.10797 5.37789,2.01672 10.9229,2.18603 16.63692,0.50542 5.71408,-1.6806 9.5795,-0.33666 11.5962,4.03288 2.01674,4.36957 0.67285,6.72181 -4.03287,7.05791 -4.70566,0.33613 -13.78201,0.33613 -27.22681,0 -11.0693,0.33544 -19.79117,4.52941 -26.16466,12.57992 -24.1445,30.22487 -48.8995,59.96501 -74.96802,88.55427 10.06307,-37.56896 16.36135,-60.95139 21.05755,-89.79899 17.44269,0.67088 29.01665,-1.67734 34.71923,-7.04434 5.70112,-5.367 6.20329,-15.76619 1.50725,-31.1963 l 24.25459,-2.01267 c 6.23465,-0.51735 7.31905,-10.60187 -1.23869,-11.06664 -37.56755,-2.04034 -53.55057,0.33559 -62.27194,7.04433 -13.41747,10.73401 -25.15851,33.20821 -35.22165,67.4228 -19.45509,49.6447 -26.25897,71.01589 -22.56931,83.76248 3.68881,12.74663 6.2053,22.97734 7.54824,30.69241 1.34172,7.71504 8.21799,9.22388 20.62907,4.52775 38.00862,-16.65237 71.57683,-45.12859 93.01261,-80.69221 17.88216,41.15982 26.97207,71.68968 27.26908,91.58988 0.33612,22.51996 -1.5127,48.56992 -5.54616,78.14845 -62.51824,14.11705 -110.58332,36.29999 -144.19529,66.55075 -13.44478,52.43467 -21.51131,97.47481 -24.20026,135.12019 -2.68896,37.64539 -9.91498,68.06416 -21.67916,91.25644 -11.76419,23.19221 -37.14142,37.47799 -76.13128,42.85588 -18.82269,0.67229 -24.70477,5.21046 -17.64627,13.61342 7.05851,8.40304 12.94059,12.26711 17.64627,11.5947 h 61.51003 c 15.46152,-5.3779 28.06471,-6.21694 37.81218,-2.51962 9.74747,3.69746 18.82384,2.85686 27.22681,-2.5211 8.40298,-5.3779 8.23518,-17.64699 -0.50392,-36.80583 -8.7391,-19.1588 -4.03465,-44.0311 14.1158,-74.618 18.15045,-30.58687 27.22682,-60.33299 27.22682,-89.23925 0,-28.90633 3.02496,-43.35982 9.0751,-43.35982 14.78925,42.35108 28.23295,78.14703 40.33327,107.38945 12.10031,29.24241 17.47901,54.61963 16.13454,76.13128 -10.0836,24.87284 -28.906,37.30974 -56.46781,37.30974 -16.13375,0 -21.84805,4.70596 -17.14234,14.11734 4.70568,9.41133 10.41998,14.11732 17.14234,14.11732 h 39.32544 c 27.56181,-16.806 50.08185,-26.89065 67.56009,-30.25185 17.47822,-3.36116 18.82214,-16.46929 4.03287,-39.32544 -14.78927,-22.85615 -21.51037,-51.59388 -20.16586,-86.2142 1.34445,-34.62035 -7.39481,-62.6869 -26.21749,-84.19854 l 5.04073,-9.0751 c 26.2173,-12.1003 58.14935,-18.1502 95.79474,-18.1502 41.00651,0 61.84554,-10.75587 62.51788,-32.26754 0.6722,-21.51163 -7.72991,-66.55178 -25.20812,-135.12017 0,-20.83945 9.41044,-51.76315 28.23316,-92.76972 l 52.4349,69.5773 c -6.72239,44.36778 -8.40341,87.72689 -5.04222,130.07795 -19.49484,20.83939 -28.56967,42.35113 -27.2253,64.53506 6.72243,3.36121 11.09127,-0.16864 13.10798,-10.58837 2.01671,-10.41963 7.73101,-16.97294 17.14235,-19.66197 4.70571,18.82269 0.33681,37.64509 -13.10797,56.46779 12.10028,6.05014 22.18348,1.00858 30.25033,-15.12516 8.0669,-16.13375 10.08348,-44.36812 6.05007,-84.70246 11.42794,-25.54509 16.46955,-68.90419 15.12517,-130.07795 -14.11704,-32.26749 -30.75499,-62.35068 -49.9138,-90.2486 -19.15883,-27.89795 -34.11578,-41.84656 -44.8716,-41.84656 -21.51173,0 -32.94033,-6.0499 -34.28472,-18.15021 -1.34448,-10.08358 1.68198,-16.80618 9.07661,-20.16737 39.66211,-22.1839 55.29026,-50.25048 46.88728,-84.19854 -8.403,-33.948086 -33.44312,-50.921647 -75.12193,-50.921647 z m -8.57117,15.125169 c 33.94807,0 54.95488,9.244168 63.02177,27.730738 8.0669,18.48657 7.05859,35.29236 -3.02502,50.41772 -10.0836,15.12539 -21.00727,24.87294 -32.77145,29.24249 -11.7642,4.36957 -14.62134,3.52905 -8.57119,-2.52111 6.05018,-6.05016 9.0751,-15.125 9.0751,-27.22529 0,-12.10031 -4.03324,-18.15172 -12.10013,-18.15172 -7.39451,0 -10.41948,-2.85712 -9.07511,-8.57119 1.3445,-5.714 -6.04931,-11.76391 -22.18306,-18.1502 -16.13375,-6.38625 -31.5956,-7.89799 -46.38487,-4.53678 7.39464,-18.8227 28.06589,-28.234658 62.01396,-28.234658 z m -53.06558,41.469358 c 6.97444,0.42015 14.24324,1.89067 21.80589,4.41158 15.12525,5.04176 22.01569,10.75606 20.67131,17.14236 -1.34447,6.38626 2.35316,9.57901 11.0923,9.57901 9.4113,0 14.11732,3.02496 14.11732,9.0751 0,6.05015 -3.52987,11.09175 -10.58836,15.12518 -7.05849,4.03345 -5.88089,16.80594 3.53045,38.3176 2.01673,24.87284 7.89881,37.14193 17.64629,36.80582 9.74744,-0.33613 17.98179,4.87325 24.70417,15.62908 6.72251,10.75583 6.04966,21.17611 -2.01719,31.2597 -16.80598,42.3511 -25.2081,75.96265 -25.2081,100.83546 13.44478,66.55171 20.1674,109.23804 20.1674,128.06077 -2.68899,8.73908 -10.41988,16.47003 -23.19244,23.19243 -63.8627,0 -100.50072,4.37035 -109.91207,13.10947 0,-13.44481 -31.25931,-21.1757 -93.77755,-23.19242 28.23403,-19.4949 65.88035,-33.27575 112.93711,-41.34262 14.78926,-1e-5 22.52021,-11.09299 23.19242,-33.27689 0.67228,-22.18388 1.00785,-45.03955 1.00785,-68.56792 0,-23.52837 -11.76417,-62.51861 -35.29256,-116.96999 4.70566,-20.1672 12.10097,-30.25032 22.18458,-30.25032 h 34.2832 v -42.35048 l -36.3004,3.02503 c -5.37793,-2.68897 -8.40288,-6.38661 -9.07509,-11.09229 h 9.07509 v -6.05008 l -18.15019,-4.03287 c -3.36117,-4.03342 -3.69831,-7.39546 -1.00935,-10.08445 4.03341,-6.05014 1.00847,-11.09176 -9.07511,-15.12517 10.75583,-20.1672 16.47011,-33.94802 17.14236,-41.34264 6.38627,-1.68058 13.0662,-2.3106 20.04067,-1.89045 z m -6.87837,8.95893 c -3.03953,0.0985 -5.24281,0.93498 -6.6083,2.51055 -4.36955,5.04179 -4.36955,10.08339 0,15.12517 4.36956,5.04181 17.31137,2.52177 38.82301,-7.56183 -14.78926,-6.93246 -25.52777,-10.29053 -32.21471,-10.07389 z" />
</svg>
