<?xml version="1.0" encoding="UTF-8" standalone="no"?>
<svg
   width="1500"
   height="1000"
   version="1.1"
   id="svg1"
   sodipodi:docname="13A37.svg"
   inkscape:version="1.4.4 (dcaf3e7, 2026-05-05)"
   xmlns:inkscape="http://www.inkscape.org/namespaces/inkscape"
   xmlns:sodipodi="http://sodipodi.sourceforge.net/DTD/sodipodi-0.dtd"
   xmlns="http://www.w3.org/2000/svg"
   xmlns:svg="http://www.w3.org/2000/svg">
  <defs
     id="defs1" />
  <sodipodi:namedview
     id="namedview1"
     pagecolor="#ffffff"
     bordercolor="#000000"
     borderopacity="0.25"
     inkscape:showpageshadow="2"
     inkscape:pageopacity="0.0"
     inkscape:pagecheckerboard="0"
     inkscape:deskcolor="#d1d1d1"
     inkscape:zoom="0.35166667"
     inkscape:cx="462.08531"
     inkscape:cy="223.22275"
     inkscape:window-width="1920"
     inkscape:window-height="998"
     inkscape:window-x="-11"
     inkscape:window-y="-11"
     inkscape:window-maximized="1"
     inkscape:current-layer="svg1" />
  <path
     id="path1-8"
     style="fill:#000000;stroke:none;stroke-width:0.999999"
     inkscape:transform-center-x="-118.51713"
     inkscape:transform-center-y="-129.16139"
     d="M 556.48828 0.013671875 C 554.2831 0.094492549 551.89807 0.53825443 549.33398 1.34375 C 547.3804 1.9574584 545.32203 2.7800416 543.16016 3.8144531 C 493.3923 38.396241 447.78846 71.908129 406.34766 104.34766 C 365.65326 136.20289 318.33028 199.4106 291.08789 254.55859 C 273.9008 263.23012 257.50991 270.05883 247.70117 272.86133 C 236.53149 276.3433 228.29172 283.73091 222.97852 295.02148 C 215.74799 310.38642 203.31981 323.03845 185.69531 332.98047 C 168.07085 342.92248 154.51353 353.54405 145.02344 364.8418 C 135.53334 376.13955 121.75023 389.46909 103.67383 404.83398 C 64.809595 416.58365 46.280275 443.70017 48.087891 486.17969 C 44.472624 498.83314 44.020946 510.58189 46.732422 521.42773 C 47.636214 538.60027 57.578357 546.28418 76.558594 544.47656 C 77.462375 577.01408 86.95289 592.82769 105.0293 591.92383 C 120.39423 591.02004 128.07812 584.24329 128.07812 571.58984 C 154.28887 569.78218 166.9409 562.10025 166.03711 548.54297 C 166.03712 539.50475 172.36413 534.53275 185.01758 533.62891 L 229.75586 514.65039 C 253.2552 517.36182 272.46198 522.10415 287.375 528.88281 C 302.28802 535.66147 315.16784 561.64696 326.01367 606.83789 C 377.53137 693.60458 391.5403 740.60342 368.04102 747.83398 C 344.54171 755.06456 299.57721 762.29681 233.14648 769.52734 C 166.71573 776.75788 112.93824 791.21849 71.814453 812.91016 C 30.690696 834.60186 6.7376423 857.4238 -0.041015625 881.375 C -6.8196731 905.32624 -5.9144331 929.27538 2.671875 953.22656 C 11.25815 977.1778 20.069234 990.73703 29.107422 993.90039 C 38.145608 997.06375 65.262143 998.87036 110.45312 999.32227 C 155.64409 999.77418 254.16027 994.12467 406.00195 982.375 C 426.78981 990.5094 457.06789 995.93316 496.83594 998.64453 C 532.98873 999.54835 554.68157 985.53936 561.91211 956.61719 C 569.14265 927.6948 558.0694 912.10509 528.69531 909.8457 C 499.32115 907.58632 478.75944 906.22936 467.00977 905.77734 C 464.27359 905.67207 461.5011 905.59139 458.69141 905.53516 C 463.98993 905.17735 469.24841 904.80444 474.4668 904.41992 C 517.39821 901.25656 545.64194 897.86724 559.19922 894.25195 C 567.3336 888.82903 574.11225 882.50201 579.53516 875.27148 C 602.13065 876.17532 641.89921 877.98587 698.83984 880.69727 C 755.78049 883.40874 795.5471 880.47108 818.14258 871.88477 C 840.73804 863.2985 861.52757 854.9371 880.50781 846.80273 C 893.1613 865.78294 908.07359 886.57055 925.24609 909.16602 C 931.57281 922.72317 910.10776 928.37267 860.84961 926.11328 C 811.59149 923.85375 757.36033 919.33338 698.16016 912.55469 C 638.95995 905.776 605.74616 904.19529 598.51562 907.81055 C 575.0163 916.84878 563.26562 940.7998 563.26562 979.66406 C 563.26562 993.22131 575.46793 1000 599.87109 1000 L 1147.5859 1000 C 1237.0638 1000 1261.9184 932.21349 1222.1504 796.64062 C 1221.2465 783.0833 1224.1843 767.94528 1230.9629 751.22461 C 1237.7416 734.50396 1245.8771 714.39383 1255.3672 690.89453 C 1264.8574 667.39521 1276.6061 654.96701 1290.6152 653.61133 C 1304.6244 652.25558 1317.0506 666.03871 1327.8965 694.96094 C 1303.4931 703.99912 1290.8412 726.14166 1289.9375 761.39062 L 1276.3789 863.07227 C 1275.4751 879.34116 1284.9657 887.9264 1304.8496 888.83008 C 1325.6376 889.73392 1336.4831 882.95525 1337.3867 868.49414 L 1350.9453 765.45898 C 1354.5605 743.76734 1359.079 743.76734 1364.502 765.45898 L 1384.8379 865.7832 C 1386.6453 881.14821 1397.9426 887.92686 1418.7305 886.11914 C 1437.7105 881.60005 1446.7494 872.10954 1445.8457 857.64844 L 1421.4434 755.96875 C 1418.732 718.00829 1405.1728 697.67234 1380.7695 694.96094 C 1364.501 631.69358 1335.3538 600.06055 1293.3262 600.06055 C 1251.2987 600.06055 1223.2808 615.87808 1209.2715 647.51172 C 1195.2625 679.14541 1180.574 698.12443 1165.209 704.45117 C 1144.4211 681.85566 1109.3989 657.22515 1060.1406 630.5625 C 1010.8824 603.89981 934.73652 596.89733 831.70117 609.55078 C 728.66571 622.20427 664.04277 624.4625 637.83203 616.32812 C 611.62125 608.19372 590.60589 597.12247 574.78906 583.11328 C 558.97223 569.10408 537.50717 539.27765 510.39258 493.63477 C 483.27798 447.99189 469.04324 407.7736 467.6875 372.97656 C 466.3318 338.17952 452.54866 309.48222 426.33789 286.88672 C 463.39449 280.56001 494.12422 270.84369 518.52734 257.73828 C 542.93046 244.63292 572.07944 216.84086 605.97266 174.36133 C 639.86591 131.88182 663.13756 102.95869 675.79102 87.59375 C 677.37269 70.986074 670.99808 62.683604 656.66406 62.683594 C 654.61636 62.683592 652.40573 62.852476 650.0332 63.191406 C 612.94656 74.780992 577.62357 86.463031 544.06641 98.238281 C 558.54565 60.924244 568.87277 34.636331 575.04883 19.375 C 572.2307 6.1163945 566.04407 -0.33655104 556.48828 0.013671875 z M 549.40625 14.642578 L 557.49609 17.785156 L 544.26562 38.994141 C 538.84493 63.059354 531.23294 85.414748 521.77539 106.16797 C 510.77744 110.13429 499.97921 114.11039 489.37891 118.09766 C 440.12075 136.62595 394.25096 168.48674 351.77148 213.67773 C 348.34931 217.64025 343.68939 221.80582 338.20117 226.02148 C 363.13773 184.69166 394.56877 144.24376 421.49609 120.9043 C 458.35466 88.956896 500.99279 53.535685 549.40625 14.642578 z M 652.74414 75.394531 L 659.52344 80.816406 C 534.79637 129.62264 441.70192 185.20676 380.24219 247.57031 L 461.58594 255.70508 C 427.24081 258.41651 400.12621 263.84026 380.24219 271.97461 C 380.24219 284.62811 383.85927 290.95508 391.08984 290.95508 C 416.39678 312.64676 431.08324 342.69707 435.15039 381.10938 C 439.2176 419.52168 454.58148 461.55048 481.24414 507.19336 C 507.90681 552.83624 528.4705 584.24151 542.93164 601.41406 C 557.39275 618.58666 583.60209 633.95445 621.5625 647.51172 C 659.5229 661.06904 725.95441 661.06904 820.85547 647.51172 C 915.75651 633.95445 988.06144 638.01926 1037.7715 659.71094 C 1087.4816 681.40258 1120.2436 704.4504 1136.0605 728.85352 C 1151.8774 753.25665 1166.114 758.6803 1178.7676 745.12305 C 1199.5554 725.23899 1216.9536 699.47936 1230.9629 667.8457 C 1244.9722 636.2119 1267.3406 620.62024 1298.0703 621.07227 C 1328.8001 621.52417 1349.138 650.67315 1359.0801 708.51758 C 1386.1944 713.94049 1400.6551 731.11488 1402.4629 760.03711 L 1421.4434 845.44727 C 1423.251 857.19683 1420.5392 863.97547 1413.3086 865.7832 C 1407.8858 866.68702 1404.2706 861.26335 1402.4629 849.51367 L 1382.127 762.74609 C 1381.2231 749.18883 1376.7046 739.70029 1368.5703 734.27734 C 1360.436 728.85439 1351.8487 729.53189 1342.8105 736.31055 C 1333.7722 743.08917 1328.8002 751.90028 1327.8965 762.74609 L 1317.0508 844.0918 C 1317.0508 854.03368 1313.4357 858.55212 1306.2051 857.64844 C 1300.7824 857.64844 1298.5241 852.22472 1299.4277 841.37891 L 1310.2734 762.74609 C 1310.2734 736.53534 1323.3788 718.4596 1349.5898 708.51758 C 1339.6477 655.19235 1321.5704 628.30554 1295.3594 627.85352 C 1269.1489 627.4016 1249.2661 642.31386 1235.709 672.5918 C 1222.1516 702.86976 1204.5259 740.1523 1182.834 784.43945 C 1217.1793 881.14809 1219.6653 938.08911 1190.291 955.26172 C 1160.917 972.43425 1134.9314 975.1442 1112.3359 963.39453 C 1089.7404 951.64494 1070.9872 931.30898 1056.0742 902.38672 C 1041.1612 873.46453 1022.8597 850.87031 1001.168 834.60156 C 1009.3024 869.85056 1033.7051 917.75273 1074.377 978.30859 L 651.38867 978.30859 C 651.38867 972.88568 659.52226 963.39517 675.79102 949.83789 C 645.96499 949.83789 631.05273 959.78 631.05273 979.66406 L 621.5625 979.66406 C 621.5625 959.78 626.98619 944.86784 637.83203 934.92578 C 614.33275 934.92578 602.58203 949.83795 602.58203 979.66406 L 590.38086 979.66406 C 593.99611 943.51125 603.93631 925.43555 620.20508 925.43555 L 789.67188 941.70312 C 924.34104 953.45275 993.03072 951.19455 995.74219 934.92578 C 926.14806 859.90881 888.19001 800.48171 881.86328 756.64648 C 875.53651 712.81124 894.96722 691.57203 940.1582 692.92773 C 985.34931 694.28347 1048.1656 738.79436 1128.6055 826.46484 L 1128.6055 803.41992 C 1059.9152 709.42282 989.19112 662.1981 916.43359 661.74609 C 843.67616 661.29416 826.27592 713.03734 864.23633 816.97656 C 846.15995 821.4957 827.63256 828.72596 808.65234 838.66797 C 789.67214 848.60995 753.069 851.54761 698.83984 847.48047 C 644.61065 843.41328 606.64867 838.669 584.95703 833.24609 L 582.24609 773.59375 L 563.26562 745.12305 C 561.458 816.52475 551.9675 856.97085 534.79492 866.46094 C 517.62237 875.95087 463.62097 881.82425 372.78711 884.08398 C 281.95328 886.34355 211.45302 882.73034 161.29102 873.24023 C 111.12903 863.75009 86.048828 873.91614 86.048828 903.74219 C 86.048828 928.14528 111.12903 937.63577 161.29102 932.21289 C 211.45302 926.79011 316.97565 924.53186 477.85547 925.43555 L 460.23047 947.12695 L 458.875 955.26172 C 479.6628 950.74262 490.50825 941.25213 491.41211 926.79102 L 506.32617 928.14648 C 499.09564 943.51142 490.50843 952.5503 480.56641 955.26172 L 479.21094 960.68359 C 498.19114 960.68359 515.8152 949.83813 532.08398 928.14648 L 536.15039 928.14648 C 534.34278 958.87625 514.00878 972.88524 475.14453 970.17383 C 446.22235 965.65469 423.62618 959.77936 407.35742 952.54883 C 255.51575 963.39459 157.67703 969.72157 113.8418 971.5293 C 70.006526 973.33699 44.023032 964.97758 35.888672 946.44922 C 27.75431 927.92093 27.074892 909.61934 33.853516 891.54297 C 40.632173 873.46659 61.419757 855.16308 96.216797 836.63477 C 131.01386 818.10649 192.02361 804.32334 279.24219 795.28516 C 366.46073 786.24697 410.52195 770.20366 411.42578 747.15625 C 412.32961 724.10887 392.44335 671.01078 351.77148 587.85938 C 337.31036 541.76458 328.27345 516.45657 324.6582 511.9375 C 321.04288 507.41837 313.81065 503.80327 302.96484 501.0918 C 334.59849 497.47653 356.29134 488.88931 368.04102 475.33203 C 379.79068 461.77475 384.31109 443.69902 381.59961 421.10352 C 364.42706 454.54486 340.474 472.16895 309.74414 473.97656 C 279.01428 475.78423 232.01542 487.53293 168.74805 509.22461 C 158.80603 492.95584 145.7023 485.27587 129.43359 486.17969 C 124.01067 505.15989 111.35669 518.71525 91.472656 526.84961 C 84.242083 530.46489 80.626953 529.10992 80.626953 522.7832 C 77.011678 511.03355 78.36661 499.73448 84.693359 488.88867 C 82.885706 458.1588 92.827837 439.63144 114.51953 433.30469 C 156.99901 392.63282 185.46859 368.23006 199.92969 360.0957 C 214.3908 351.9613 226.36733 339.08149 235.85742 321.45703 C 245.34756 303.83253 255.96716 293.89234 267.7168 291.63281 C 279.46642 289.37326 294.8324 282.5945 313.8125 271.29688 L 313.8125 271.29492 C 332.79227 259.99736 351.77216 247.57069 370.75195 234.01367 C 411.42385 189.72651 454.13012 157.86572 498.86914 138.43359 C 543.60821 119.00148 594.89968 97.990003 652.74414 75.394531 z M 640.54297 97.083984 C 572.75653 191.0812 517.17043 237.17484 473.78711 235.36719 L 429.04883 229.94531 C 462.49014 201.02309 491.86297 179.33219 517.16992 164.87109 C 542.47687 150.40998 583.60237 127.81386 640.54297 97.083984 z M 362 274.03125 C 361.1951 274.49246 360.38921 274.94972 359.58203 275.40625 L 364.03906 276.46875 L 362.00195 274.03125 L 362 274.03125 z M 271.44531 319.59375 C 254.49869 320.61056 240.60169 328.23554 229.75586 342.4707 C 231.5635 349.70127 227.04505 358.28849 216.19922 368.23047 L 224.33398 373.6543 L 233.82422 364.16406 C 272.6885 364.16406 291.21782 349.70151 289.41016 320.7793 C 283.08342 319.64952 277.09418 319.25483 271.44531 319.59375 z M 110.41016 449.92383 C 103.88571 449.57782 96.670138 452.1731 88.761719 457.70898 L 92.828125 464.48633 C 101.86635 459.06341 107.06422 459.06341 108.41992 464.48633 C 109.77567 469.90924 104.12611 473.07277 91.472656 473.97656 L 91.472656 482.11133 C 110.45285 481.20754 120.61887 476.01162 121.97461 466.52148 C 123.33031 457.03139 120.39461 451.60766 113.16406 450.25195 C 112.26024 450.08248 111.34223 449.97326 110.41016 449.92383 z M 136.21094 476.68945 C 120.84599 484.82384 105.93376 495.66733 91.472656 509.22461 L 95.539062 514.65039 C 108.47826 502.31981 121.94293 489.91456 137.56836 480.75586 L 136.21094 476.68945 z M 148.41406 495.66992 L 151.12305 495.66992 L 152.48047 509.22461 C 153.38429 531.8201 148.41419 543.11914 137.56836 543.11914 L 136.21094 524.13867 L 105.0293 558.03125 C 103.22165 541.7625 109.77448 529.56209 124.6875 521.42773 C 139.60052 513.29336 147.51023 504.70814 148.41406 495.66992 z M 139.26172 894.75977 C 151.23732 894.19493 169.20114 896.06232 193.15234 900.35547 C 199.94388 901.57281 206.73844 902.68953 213.53906 903.70703 C 206.73844 904.51415 199.94388 905.42994 193.15234 906.45508 C 145.24993 913.68558 121.29883 912.78041 121.29883 903.74219 C 121.29883 898.31936 127.28612 895.32462 139.26172 894.75977 z " />
</svg>
