<?xml version="1.0" encoding="UTF-8" standalone="no"?>
<svg
   width="1300"
   height="1000"
   version="1.1"
   id="svg1"
   sodipodi:docname="13A89.svg"
   inkscape:version="1.4.2 (f4327f4, 2025-05-13)"
   xmlns:inkscape="http://www.inkscape.org/namespaces/inkscape"
   xmlns:sodipodi="http://sodipodi.sourceforge.net/DTD/sodipodi-0.dtd"
   xmlns="http://www.w3.org/2000/svg"
   xmlns:svg="http://www.w3.org/2000/svg">
  <defs
     id="defs1" />
  <sodipodi:namedview
     id="namedview1"
     pagecolor="#ffffff"
     bordercolor="#666666"
     borderopacity="1.0"
     inkscape:showpageshadow="2"
     inkscape:pageopacity="0.0"
     inkscape:pagecheckerboard="0"
     inkscape:deskcolor="#d1d1d1"
     showguides="true"
     inkscape:zoom="0.26693281"
     inkscape:cx="1238.1393"
     inkscape:cy="638.73752"
     inkscape:window-width="1680"
     inkscape:window-height="998"
     inkscape:window-x="-8"
     inkscape:window-y="-8"
     inkscape:window-maximized="1"
     inkscape:current-layer="svg1">
    <sodipodi:guide
       position="189.95434,493.03324"
       orientation="0,-1"
       id="guide1"
       inkscape:locked="false" />
    <sodipodi:guide
       position="1300,1000"
       orientation="0,-1"
       id="guide2"
       inkscape:locked="false" />
    <sodipodi:guide
       position="-0.0012430005,-0.49214816"
       orientation="0,-1"
       id="guide3"
       inkscape:locked="false" />
    <sodipodi:guide
       position="1027.039,493.03324"
       orientation="1,0"
       id="guide4"
       inkscape:locked="false" />
  </sodipodi:namedview>
  <path
     id="path1"
     style="fill:#000000;fill-rule:nonzero;stroke:none;stroke-width:55.6348"
     d="M 441.83008 0 L 425.75195 2.1445312 L 425.75195 55.734375 C 425.75195 74.312452 421.82282 85.743999 413.96289 90.03125 C 367.5177 90.03125 339.65038 94.675802 330.36133 103.96484 C 321.07234 113.25383 308.03195 120.40055 291.24023 125.40234 C 274.44851 130.40413 253.01237 135.94201 226.93164 142.01562 C 200.85089 148.08924 191.02618 156.48502 197.45703 167.20312 C 198.88614 172.91945 204.95961 179.70648 215.67773 187.56641 C 216.39226 208.2881 234.43493 215.97037 269.80469 210.61133 C 305.17448 205.25226 329.4685 206.14559 342.6875 213.29102 C 355.90651 220.43641 369.12475 224.90113 382.34375 226.6875 C 395.56276 228.47386 403.06717 240.08527 404.85352 261.52148 C 406.63988 282.95771 411.82006 300.64264 420.39453 314.57617 C 428.96904 328.50975 417.17778 365.84413 385.02344 426.58008 C 354.29819 439.44179 304.63891 442.65737 236.04297 436.22656 L 236.04297 437.29883 C 218.894 405.1445 201.56485 370.31029 184.05859 332.79688 C 166.55234 295.28348 141.36496 238.29963 108.49609 161.84375 C 101.35066 161.84375 93.848211 162.91498 85.988281 165.05859 L 75.271484 142.55078 L 100.99414 129.68945 C 92.419639 112.54048 81.879467 101.46468 69.375 96.462891 C 56.870532 91.461104 43.474419 92.890069 29.183594 100.75 C 14.892805 107.89539 5.7815646 117.89997 1.8515625 130.76172 C -2.0784025 143.62344 0.24385665 158.62833 8.8183594 175.77734 L 35.613281 162.91602 L 47.404297 185.42383 C 40.973438 189.71108 35.613423 195.06914 31.326172 201.5 C 72.769539 272.95409 103.67271 326.72426 124.03711 362.80859 C 144.40154 398.89288 163.15962 432.65396 180.30859 464.09375 C 179.58267 471.71606 180.0556 479.15465 181.72656 486.4082 L 181.72656 575.40039 L 1027.0391 575.40039 L 1027.0391 506.9668 C 1129.933 846.37363 1206.0307 1010.718 1255.334 1000 C 1297.4919 991.42545 1287.1316 899.42758 1224.252 724.00781 C 1161.3723 548.58805 1111.3553 433.36927 1074.1992 378.34961 C 1037.0431 323.32995 1001.8511 293.49801 968.625 288.85352 C 935.39889 284.20898 891.45538 291.53356 836.79297 310.82617 C 782.1306 330.11878 733.00498 339.76367 689.41797 339.76367 C 645.83096 339.76367 608.3187 323.15193 576.87891 289.92578 C 545.4766 256.73921 515.85574 216.24509 488.01758 168.44531 C 490.09479 149.56361 491.13281 134.14313 491.13281 122.18555 C 491.13281 89.31668 474.69894 48.588799 441.83008 0 z M 439.68555 32.154297 L 441.83008 32.154297 C 461.83723 69.310414 471.83984 98.606712 471.83984 120.04297 L 471.83984 126.47461 C 471.83984 137.19272 466.1241 150.76865 454.69141 167.20312 C 470.41134 200.07199 487.02499 229.0106 504.53125 254.01953 C 522.0375 279.02848 546.50943 304.93127 577.94922 331.72656 C 609.38897 358.52181 645.47425 371.91797 686.20312 371.91797 C 727.6465 371.91797 776.77016 362.45096 833.57617 343.51562 C 890.38219 324.5803 933.25645 316.89799 962.19531 320.4707 C 991.13424 324.04338 1018.1063 346.37287 1043.1152 387.45898 C 1068.1241 428.54506 1093.3134 482.31527 1118.6797 548.76758 C 1144.0458 615.21988 1173.342 694.17548 1206.5684 785.63672 C 1239.7945 877.09792 1254.2639 939.62164 1249.9766 973.20508 C 1209.9623 918.89995 1144.9383 756.34221 1054.9062 485.53125 L 1055.9785 485.53125 C 1055.9785 451.23332 1047.4029 430.15294 1030.2539 422.29297 L 1030.2539 443.73047 C 1043.8302 457.30672 1041.6877 471.24042 1023.8242 485.53125 L 730.14648 485.53125 C 743.72273 472.66953 762.30099 467.30951 785.88086 469.45312 C 809.46071 471.59674 830.89687 472.66797 850.18945 472.66797 C 869.48207 472.66797 895.56278 472.31216 928.43164 471.59766 L 928.43164 469.45312 C 894.84824 464.45133 873.23418 453.37552 863.58789 436.22656 C 853.94156 419.07755 859.12175 396.5702 879.12891 368.70312 C 772.6623 420.15003 697.27811 444.8018 652.97656 442.6582 C 608.67506 440.51459 570.08961 438.55002 537.2207 436.76367 C 504.35184 434.97735 475.77095 451.23332 451.47656 485.53125 L 246.05859 486.49023 L 222.10352 486.45898 C 221.5049 469.4171 241.15657 462.8545 281.05859 466.77344 C 321.07289 470.70341 362.87397 467.30991 406.46094 456.5918 C 414.32091 445.15915 425.39473 420.50737 439.68555 382.63672 C 453.97634 344.76603 455.94286 318.86323 445.58203 304.92969 C 435.22117 290.99616 428.61009 274.20459 425.75195 254.55469 C 422.89377 234.90482 419.14255 222.22218 414.49805 216.50586 C 409.85355 210.78953 400.38653 207.5739 386.0957 206.85938 C 371.80488 206.14483 357.33558 202.21574 342.6875 195.07031 C 328.03939 187.92492 306.961 186.67386 279.45117 191.31836 C 251.94139 195.9629 237.29223 196.85623 235.50586 193.99805 C 233.71951 191.1399 235.68406 188.8176 241.40039 187.03125 C 247.11671 185.24489 257.83479 183.81596 273.55469 182.74414 C 289.27458 181.67235 297.49246 178.81445 298.20703 174.16992 C 298.92157 169.52541 290.52582 169.16769 273.01953 173.09766 C 255.51332 177.02763 240.68628 179.34992 228.53906 180.06445 C 223.53727 173.6336 221.3948 167.56008 222.10938 161.84375 C 254.2637 153.26925 280.16458 146.30239 299.81445 140.94336 C 319.4643 135.58429 332.14886 129.33094 337.86523 122.18555 C 343.58155 115.04012 368.58911 111.46875 412.89062 111.46875 C 430.75417 111.46875 439.68555 92.890492 439.68555 55.734375 C 459.6927 104.32317 459.33692 133.26177 438.61523 142.55078 L 445.04492 154.33984 C 457.19214 140.76355 463.26562 130.04548 463.26562 122.18555 C 463.26562 99.320216 455.40545 69.310414 439.68555 32.154297 z M 52.611328 109.70117 C 55.927248 109.58394 59.192765 109.99381 62.408203 110.93164 C 70.982668 113.43254 76.700413 117.89922 79.558594 124.33008 L 18.464844 156.48438 C 14.892129 149.33897 14.534399 141.65862 17.392578 133.44141 C 20.250721 125.22419 26.324243 118.97084 35.613281 114.68359 C 41.418931 111.55747 47.084795 109.89656 52.611328 109.70117 z M 357.71875 129.61328 C 343.76846 128.94898 336.79297 133.61945 336.79297 143.62305 C 339.65115 152.19752 349.11813 155.05542 365.19531 152.19727 C 381.27246 149.3391 392.88387 145.05227 400.0293 139.33594 C 394.31293 135.76323 382.34383 132.7255 364.12305 130.22461 C 361.84545 129.912 359.71165 129.70818 357.71875 129.61328 z M 62.408203 148.98242 L 74.199219 171.49023 L 59.193359 178.99219 L 48.474609 156.48438 L 62.408203 148.98242 z M 98.849609 178.99219 C 121.71494 232.58277 160.30035 319.40051 214.60547 439.44336 L 194.24219 452.30469 C 128.50442 336.54905 80.987593 253.66236 51.691406 203.64453 C 55.978658 199.35724 63.48111 194.35496 74.199219 188.63867 C 84.202794 183.63688 92.418748 180.4213 98.849609 178.99219 z M 839.47266 412.64648 C 835.89995 428.36642 836.97117 440.51539 842.6875 449.08984 C 827.68217 454.80617 802.67271 456.05523 767.66016 452.83984 C 732.64765 449.62437 711.56922 458.73566 704.42383 480.17188 L 704.42383 487.07031 L 488.24219 486.79688 C 506.70374 469.33104 523.7456 461.40762 539.36523 463.02344 C 560.08691 465.16708 586.88106 466.95179 619.75 468.38086 C 652.61887 469.80997 683.34416 466.95207 711.92578 459.80664 C 740.50743 452.6612 783.02394 436.94087 839.47266 412.64648 z M 212.82031 517.50195 L 995.94531 517.50195 L 995.94531 545.37891 L 212.82031 545.37891 L 212.82031 517.50195 z " />
</svg>
