<?xml version="1.0" encoding="UTF-8" standalone="no"?>
<svg
   width="1400"
   height="1000"
   version="1.1"
   id="svg1"
   sodipodi:docname="13AA1.svg"
   inkscape:version="1.4.2 (f4327f4, 2025-05-13)"
   xmlns:inkscape="http://www.inkscape.org/namespaces/inkscape"
   xmlns:sodipodi="http://sodipodi.sourceforge.net/DTD/sodipodi-0.dtd"
   xmlns="http://www.w3.org/2000/svg"
   xmlns:svg="http://www.w3.org/2000/svg">
  <defs
     id="defs1" />
  <sodipodi:namedview
     id="namedview1"
     pagecolor="#ffffff"
     bordercolor="#000000"
     borderopacity="0.25"
     inkscape:showpageshadow="2"
     inkscape:pageopacity="0.0"
     inkscape:pagecheckerboard="0"
     inkscape:deskcolor="#d1d1d1"
     showguides="true"
     inkscape:zoom="0.35355339"
     inkscape:cx="-337.99704"
     inkscape:cy="222.03153"
     inkscape:window-width="1680"
     inkscape:window-height="998"
     inkscape:window-x="-8"
     inkscape:window-y="-8"
     inkscape:window-maximized="1"
     inkscape:current-layer="svg1" />
  <path
     id="path1"
     style="fill:#000000;stroke:none;stroke-width:34.5451"
     d="m 604.72002,0 c -12.19946,39.309525 -21.0096,62.691183 -26.43164,70.146484 L 548.80596,14.232422 530.50713,15.25 c -3.38877,25.076778 -8.47254,50.153675 -15.25,75.230469 0,6.099751 -7.11682,9.148437 -21.34961,9.148437 -31.17653,0 -51.1697,11.860774 -59.98047,35.582034 -25.75452,8.81076 -38.63086,18.63842 -38.63086,29.48242 0,30.4988 4.40409,47.78115 13.21485,51.84766 -3.38875,35.24302 11.18281,50.49229 43.71484,45.74804 19.65477,13.55498 29.48242,40.665 29.48242,81.33008 -16.94377,51.50907 -25.07619,93.53047 -24.39844,126.0625 -3.38873,-2.03323 -29.31229,2.54173 -77.77148,13.72461 -48.45919,11.18286 -88.61645,20.16194 -120.4707,26.93945 -21.68803,-33.20976 -43.71431,-40.66448 -66.08008,-22.36523 l -61.12305,-21.14453 c -1.96911,0 -6.06705,1.24581 -11.22265,3.16992 3.95582,-6.73511 7.02748,-14.81171 9.21289,-24.23047 7.6185,-32.83511 12.67449,-67.40059 15.16797,-103.69336 2.4935,-36.29277 2.13941,-73.43769 -1.06055,-111.43555 C 140.76144,192.6486 135.32186,157.21674 127.64385,124.35156 119.96583,91.486216 101.41494,75.166233 71.98955,75.388672 42.564155,75.611111 24.115412,92.211564 16.643849,125.19141 9.1721319,158.17111 4.1964519,193.68188 1.7161149,231.72266 c -2.48033803,38.04078 -2.27201703,75.18742 0.625,111.43945 2.896234,36.25205 8.3285891,70.73582 16.2968751,103.45312 1.648313,6.76785 3.755787,12.83111 6.322266,18.18946 -9.16956,-4.53409 -17.3507641,-7.6875 -23.2617191,-7.6875 -4.744241,27.11003 3.381431,40.01327 19.9863281,56.27929 16.604898,16.26604 40.835165,19.99438 72.689455,11.1836 25.75452,16.26604 44.73212,30.49774 56.93164,42.69726 12.19953,12.19947 36.76769,21.34945 73.70508,27.44922 36.93744,6.09976 126.56882,11.86119 268.89648,17.28321 14.91053,24.39906 32.53269,43.0368 52.86524,55.91406 46.76479,140.97214 46.08708,223.99549 -2.03321,249.07226 -33.20986,-3.38871 -56.08464,4.74563 -68.62304,24.40039 -12.53839,19.6548 -15.41817,39.308 -8.64063,58.96292 h 50.83203 c 25.75452,0 51.84701,-0.338 78.2793,-1.01565 l 56.93164,-91.49609 c 23.72126,9.48855 28.46518,-13.21743 14.23242,-68.11524 6.77754,-52.86454 11.52138,-93.19069 14.23242,-120.97851 63.70861,48.79809 120.30158,82.68705 169.77735,101.66406 8.13308,50.15361 21.68705,85.05618 40.66406,104.71094 -45.40926,-2.03328 -87.09083,-5.08216 -125.04492,-9.14844 -46.08706,-4.06644 -65.0627,24.05911 -56.92969,84.37893 h 449.34761 c 13.5551,-205.35845 -28.1265,-341.92413 -125.0449,-409.69924 27.7878,-12.19954 69.4693,-22.02719 125.0449,-29.48243 28.4656,-1.35552 41.3439,-12.19875 38.6328,-32.53125 0,-20.33254 -14.2337,-28.80474 -42.6992,-25.41601 -61.6753,7.45529 -120.3014,22.36474 -175.87696,44.73047 C 931.05679,506.61817 875.4813,471.71356 813.12822,443.24805 802.43488,399.80627 779.87937,365.59189 745.46026,340.60352 c 1.36588,0.41754 3.59028,0.40699 6.67187,-0.0332 l -30.5,-27.44922 21.34961,3.04883 h 8.13281 l -26.43164,-26.43164 c 4.74425,0 9.82595,-0.33787 15.24805,-1.01562 -19.65477,-16.94376 -31.17577,-27.44911 -34.56445,-31.51563 l 13.21679,1.01563 11.18164,-2.03321 -34.56445,-26.43164 c 7.45522,-2.03323 17.28292,-1.69536 29.48242,1.01563 -6.77748,-8.81074 -17.62269,-16.94321 -32.5332,-24.39844 l 18.30078,4.06641 -5.08398,-8.13282 -18.29883,-13.21679 c 2.71099,-1.35569 9.15013,-1.69337 19.3164,-1.01563 -11.52179,-16.26602 -28.1284,-31.17744 -49.8164,-44.73242 18.97701,-16.9438 21.5189,-38.80112 7.625,-65.572266 C 650.29875,51.000348 634.2029,25.076778 615.90362,0 Z m 6.09961,29.482422 h 2.0332 c 33.21008,54.220062 44.73266,85.227348 34.56641,93.021488 -10.16639,7.79412 -15.25,16.43531 -15.25,25.92382 2.71101,0 11.18324,6.09929 25.41602,18.29883 l -19.31641,-2.0332 28.4668,30.49805 -11.1836,-1.01563 18.29883,22.36524 h -11.18164 l -2.03516,9.15039 17.28321,13.21484 c -4.74448,0 -7.11524,4.06814 -7.11524,12.20117 l 15.24805,13.21485 c -5.42197,0 -8.13281,4.0662 -8.13281,12.19921 l 19.3164,15.25 c -6.77754,0 -10.16601,3.05064 -10.16601,9.1504 l 19.3164,19.31445 -9.15039,-2.03321 c -3.38857,0 -6.09939,3.05065 -8.13281,9.1504 52.18683,38.63182 86.75153,86.75251 103.69531,144.36132 64.38632,25.07678 117.25088,56.59279 158.59375,94.54688 -30.49876,20.33253 -56.76216,50.32229 -78.78906,89.9707 -22.02671,39.64843 -30.66829,84.20972 -25.92383,133.68555 -42.02055,-14.9105 -95.90079,-50.49084 -161.64258,-106.74414 7.45494,-48.12033 9.14834,-76.24783 5.08204,-84.38086 -4.06652,-8.13303 -11.52126,-17.79173 -22.36524,-28.97461 -10.844,-11.18287 -18.80762,4.40614 -23.89062,46.76562 -5.08316,42.3594 -22.87424,50.15399 -53.37305,23.38282 -30.49875,-26.77115 -50.1541,-57.94738 -58.96484,-93.5293 -8.81079,-35.58192 3.72771,-71.67296 37.61523,-108.27148 33.88753,-36.59854 62.01506,-54.89844 84.38086,-54.89844 22.3658,0 42.69879,9.14995 60.99805,27.44922 l 8.13281,-7.11524 c -17.62156,-22.36582 -39.64974,-33.54883 -66.08203,-33.54883 -26.4323,0 -58.62409,16.43376 -96.57813,49.30469 -37.95409,32.87092 -56.25394,70.31738 -54.89843,112.33789 1.04949,32.53381 4.9424,57.14478 11.67968,73.83399 -41.95562,-83.55362 -45.50872,-170.17918 -10.66211,-259.87696 1.3555,-16.9438 0.16904,-33.3795 -3.55859,-49.30664 -3.72761,-15.92713 -14.4019,-35.75135 -32.02344,-59.47265 -27.11001,4.74425 -39.98828,1.01788 -38.63281,-11.18164 11.52175,-4.06655 22.87372,-3.8976 34.05664,0.50781 11.18289,4.40538 16.60645,2.54121 16.26758,-5.5918 -0.33887,-8.13303 -4.74491,-10.33506 -13.2168,-6.60742 -8.47188,3.7276 -20.8414,4.57424 -37.10742,2.54102 -8.13297,-6.09978 -12.53904,-19.6538 -13.2168,-40.66407 2.71101,-2.71101 4.06836,-1.69546 4.06836,3.04883 0,4.06651 5.08176,5.42194 15.24805,4.06641 0,-20.33254 -6.777,-28.12516 -20.33203,-23.38086 21.68801,-8.13303 35.24205,-15.58968 40.66406,-22.36719 6.09979,-12.8773 31.85439,-18.63871 77.26367,-17.2832 33.20979,-0.67775 58.28686,-30.836432 75.23047,-90.478518 z m -64.04687,17.283203 h 4.0664 l 18.29883,38.630859 c 0.67779,8.133027 -11.52082,12.876904 -36.59766,14.232422 z m 71.16406,13.214844 c -9.48853,8.810755 -12.53922,31.516698 -9.15039,68.115231 h 10.16601 c -1.35552,-29.821023 1.01742,-48.798641 7.11719,-56.931638 z M 71.66338,90.25 c 9.32297,-0.07842 17.36219,3.576301 24.11914,10.96289 6.75694,7.37853 12.50706,16.43938 17.25,27.18359 -14.90241,-5.71446 -28.6169,-8.52446 -41.14453,-8.42968 -11.94491,0.0941 -25.324468,3.10773 -40.138672,9.04297 3.997145,-10.81032 9.318113,-19.95373 15.962891,-27.4336 C 54.35684,94.096314 62.34057,90.320492 71.66338,90.25 Z m 0.34375,45.44922 c 14.56701,-0.10966 29.59301,2.69078 45.07813,8.40039 5.68517,19.76923 8.4465,38.25026 8.28515,55.44141 -18.98398,32.48423 -28.22999,61.98066 -27.73828,88.49023 -0.39161,25.35101 9.14014,52.81143 28.59375,82.38281 0.7143,17.47593 -1.76851,35.99472 -7.44726,55.5586 -15.39693,5.94348 -30.3783,8.97191 -44.94532,9.08203 -14.85837,0.10965 -29.884363,-2.69079 -45.078122,-8.40039 -5.682973,-19.47788 -8.444309,-37.95874 -8.285157,-55.44141 l 0.435547,-0.002 c 19.295223,-29.86405 28.701686,-57.46822 28.21875,-82.8125 -0.200508,-26.51193 -10.036903,-55.86527 -29.509766,-88.0586 -0.422946,-17.47828 2.204069,-35.99878 7.882813,-55.5625 15.105723,-5.94144 29.942905,-8.96817 44.509765,-9.07812 z m 428.70703,0.29883 c -1.78439,0.11119 -3.54451,0.35704 -5.28125,0.73828 -13.89389,3.04993 -19.14654,13.3863 -15.75781,31.00781 -15.58827,8.81074 -14.57076,11.52159 3.05078,8.13281 27.78779,-4.0665 47.44309,-11.52318 58.96484,-22.36718 -14.82579,-12.4537 -28.48583,-18.29007 -40.97656,-17.51172 z M 127.8294,235.79492 c 5.21469,34.63135 5.47962,69.5918 0.79296,104.88086 -10.3593,-21.48129 -15.44562,-39.06871 -15.25781,-52.76367 -0.40885,-15.43875 4.41255,-32.81177 14.46485,-52.11719 z M 18.141896,236.625 c 10.341755,19.15071 15.424657,36.44769 15.25,51.89062 0.109654,13.69293 -4.710255,31.35613 -14.458984,52.99024 C 13.715874,306.58297 13.452881,271.62278 18.141896,236.625 Z m 96.826174,205.54688 c -4.57988,10.8147 -10.19131,19.96349 -16.83594,27.44335 -6.64478,7.47987 -14.63031,11.25374 -23.95312,11.32422 -9.61433,0.0784 -17.72664,-3.57544 -24.337895,-10.96093 -6.611262,-7.37946 -12.142175,-16.44094 -16.59375,-27.1875 14.902392,5.71446 28.470755,8.52407 40.707035,8.43164 12.52763,-0.0941 26.19945,-3.11101 41.01367,-9.05078 z m 889.28703,166.7871 c 74.5526,56.25337 115.5565,135.89009 123.0118,238.90821 -23.7213,-29.14335 -48.6293,-70.82491 -74.7227,-125.04492 -26.0933,-54.22013 -54.72766,-80.99209 -85.90426,-80.31446 9.4886,-12.87724 22.027,-24.06029 37.61516,-33.54883 z m -52.86516,59.98047 c 22.3658,0 48.96706,27.95866 79.80466,83.87305 30.8377,55.91447 53.3727,90.47913 67.6055,103.69531 14.2327,13.21612 24.9091,36.93767 32.0254,71.16407 7.1164,34.22645 -8.3039,51.33984 -46.2579,51.33984 -56.9311,-4.06644 -98.10376,-22.19743 -123.51946,-54.39063 -25.41556,-32.19314 -38.12304,-82.85379 -38.12304,-151.98437 0,-69.13059 9.48781,-103.69727 28.46484,-103.69727 z" />
</svg>
