<?xml version="1.0" encoding="UTF-8" standalone="no"?>
<svg
   width="1100"
   height="1000"
   version="1.1"
   id="svg1"
   sodipodi:docname="13AA4.svg"
   inkscape:version="1.4.3 (0d15f75, 2025-12-25)"
   xmlns:inkscape="http://www.inkscape.org/namespaces/inkscape"
   xmlns:sodipodi="http://sodipodi.sourceforge.net/DTD/sodipodi-0.dtd"
   xmlns="http://www.w3.org/2000/svg"
   xmlns:svg="http://www.w3.org/2000/svg">
  <defs
     id="defs1" />
  <sodipodi:namedview
     id="namedview1"
     pagecolor="#ffffff"
     bordercolor="#000000"
     borderopacity="0.25"
     inkscape:showpageshadow="2"
     inkscape:pageopacity="0.0"
     inkscape:pagecheckerboard="0"
     inkscape:deskcolor="#d1d1d1"
     inkscape:zoom="0.32679588"
     inkscape:cx="423.81196"
     inkscape:cy="466.65216"
     inkscape:window-width="1680"
     inkscape:window-height="998"
     inkscape:window-x="-8"
     inkscape:window-y="-8"
     inkscape:window-maximized="1"
     inkscape:current-layer="svg1" />
  <path
     id="path1"
     style="fill:#000000;stroke:none;stroke-width:25.419;stroke-dasharray:none"
     d="M 532.67578 2.1425781 C 525.72741 24.145725 520.70925 37.269413 517.62109 41.515625 L 500.82812 9.6699219 L 490.40625 10.248047 C 488.47616 24.530787 485.58091 38.814915 481.7207 53.097656 C 481.7207 56.957862 477.66696 58.888678 469.56055 58.888672 C 451.80362 58.888672 440.41669 65.449551 435.39844 78.574219 C 421.1157 83.592492 413.97461 89.190883 413.97461 95.367188 C 413.97461 112.73809 416.4837 122.58036 421.50195 124.89648 C 419.18583 144.96953 427.4854 153.65527 446.40039 150.95312 C 457.20896 158.67353 462.61328 174.11419 462.61328 197.27539 C 446.40043 246.68598 444.08345 288.18378 455.66406 321.76758 C 467.24467 355.3513 482.10706 375.42398 500.25 381.98633 C 526.49936 462.27849 526.1132 509.5669 499.0918 523.84961 C 480.17682 521.91952 467.0512 526.54954 459.7168 537.74414 C 452.77253 548.34327 450.84629 558.94374 453.9375 569.54297 L 374.19531 569.28516 L 374.19531 670.5332 L 259.21484 670.5332 L 259.21484 772.77148 L 144.23633 772.77148 L 144.23633 874.01758 L 28.128906 874.01758 L 28.128906 998.09375 L 965.16211 1000 L 965.16211 571.19141 L 859.58398 570.85156 C 916.17984 565.49346 962.85156 515.51685 962.85156 437.88086 C 962.85156 342.61797 888.12578 271.13353 799.31055 261.98828 C 790.24218 261.05436 782.13301 267.64842 781.19922 276.7168 C 780.2653 285.78517 786.85934 293.89434 795.92773 294.82812 C 869.39812 302.39333 929.83789 359.77673 929.83789 437.88086 C 929.83789 448.99542 927.37911 535.69684 850.72461 538.27539 C 851.90485 439.95283 826.48385 374.8466 777.60547 338.55859 C 737.38745 305.37833 698.98788 276.37999 651.37695 254.01953 C 645.33975 229.87078 632.66252 210.51635 613.34766 195.95703 C 614.12715 196.08033 615.22343 195.94033 616.63477 195.53711 L 599.8418 179.90234 L 612.00195 181.64062 L 616.05469 181.64062 L 601 166.58594 C 603.70215 166.58594 606.59739 166.39381 609.68555 166.00781 C 598.49097 156.74332 591.93011 150.75877 590 148.05664 L 597.52734 148.63672 L 604.47461 147.47656 L 584.20898 132.42188 C 588.45522 131.26381 594.05166 131.45786 601 133.00195 C 597.13982 127.9837 590.9651 123.5438 582.47266 119.68359 L 592.89453 121.42188 L 590 116.78906 L 580.15625 109.26172 C 581.70034 108.48968 585.17385 108.29757 590.57812 108.68359 C 584.01577 99.419114 574.55966 90.925467 562.20703 83.205078 C 573.01558 73.554576 574.55828 61.10716 566.83789 45.859375 C 559.11737 30.612409 549.85348 16.039307 539.04492 2.1425781 L 532.67578 2.1425781 z M 536.14844 18.355469 L 537.30664 18.355469 C 556.60763 49.237067 563.2665 66.89672 557.2832 71.335938 C 551.29989 75.775177 548.30859 80.697278 548.30859 86.101562 C 550.2387 86.101562 555.06477 89.575095 562.78516 96.523438 L 551.7832 95.367188 L 567.99609 112.73633 L 561.62695 112.1582 L 572.04883 124.89648 L 565.67969 124.89648 L 564.52148 130.10742 L 574.36523 137.63477 C 571.66308 137.63475 570.3125 139.95174 570.3125 144.58398 L 578.99805 152.11133 C 575.90989 152.11133 574.36523 154.42831 574.36523 159.06055 L 585.36719 167.74414 C 581.89302 167.74414 580.15625 169.48283 580.15625 172.95703 C 585.17451 178.36131 588.64801 182.22101 590.57812 184.53711 L 585.36719 182.80078 C 583.43709 182.80078 582.08649 184.72963 581.31445 188.58984 C 610.65197 210.20695 630.3385 237.42268 640.375 270.23438 C 687.72657 286.59623 721.7502 318.5429 760.23438 348.40234 C 802.50531 381.19989 826.43668 425.79959 830.29688 484.47461 C 817.17219 467.87576 803.08207 444.13553 788.02734 413.25391 C 772.97255 382.37221 753.31946 366.37122 735.60547 365.07812 C 713.33671 363.45254 702.23058 376.17128 697.98828 402.83008 C 695.58798 421.07193 695.1115 439.78053 696.55859 458.95117 C 674.26562 455.2624 643.95802 446.75083 578.41992 390.67188 C 583.05217 363.26445 584.11265 347.24355 581.60352 342.61133 C 579.09439 337.97907 574.84855 332.47867 568.86523 326.10938 C 562.88193 319.74005 561.04716 323.59974 563.36328 337.68945 C 565.6794 351.77918 562.10984 371.2736 552.65234 396.17188 C 543.19485 421.07018 529.29688 408.33263 510.96094 357.95703 C 492.62497 307.58139 493.10719 271.97007 512.4082 251.125 C 531.70919 230.27992 547.73009 219.85742 560.46875 219.85742 C 573.59344 219.85742 585.17441 225.06769 595.21094 235.49023 L 599.8418 231.4375 C 589.80527 218.69884 577.26181 212.33008 562.20703 212.33008 C 547.15225 212.33008 528.81636 221.6921 507.19922 240.41406 C 485.58211 259.13603 475.15765 280.46324 475.92969 304.39648 C 476.51575 322.56448 478.65909 336.39403 482.35938 345.88672 C 459.07599 298.47154 457.31876 249.32075 477.08789 198.43359 C 477.47392 189.1691 476.60554 179.90509 474.48242 170.64062 C 472.3593 161.37615 466.47277 149.98726 456.82227 136.47656 C 441.38148 139.17869 433.85422 137.05576 434.24023 130.10742 C 441.18859 127.7913 447.84747 127.88735 454.2168 130.39648 C 460.58613 132.90561 463.57744 131.84512 463.19141 127.21289 C 462.8054 122.58064 460.20025 121.3261 455.375 123.44922 C 450.54975 125.57233 443.50471 126.05455 434.24023 124.89648 C 429.60798 121.42231 427.29297 113.70294 427.29297 101.73633 C 428.45104 100.19224 429.0293 100.67446 429.0293 103.18359 C 429.0293 105.69272 432.11666 106.5611 438.29297 105.78906 C 438.29297 94.208483 434.24119 89.76857 426.13477 92.470703 C 438.48742 87.838458 446.20675 83.592628 449.29492 79.732422 C 452.76909 72.398049 467.43744 69.116633 493.30078 69.888672 C 512.21576 69.502644 526.49794 52.325206 536.14844 18.355469 z M 500.25 28.199219 L 501.98633 28.199219 L 512.4082 50.201172 C 512.79421 54.833411 506.03928 57.730599 492.14258 58.888672 L 500.25 28.199219 z M 540.20312 35.726562 C 534.79884 40.744836 533.06208 53.676404 534.99219 74.521484 L 541.36133 74.521484 C 540.20328 57.536587 541.35981 46.727926 544.83398 42.095703 L 540.20312 35.726562 z M 473.44727 79.023438 C 472.42492 79.086767 471.41886 79.226226 470.42969 79.443359 C 462.51626 81.180443 459.52497 87.066992 461.45508 97.103516 C 452.96263 102.12177 453.54092 103.66641 463.19141 101.73633 C 479.01824 99.420198 490.40516 95.172412 497.35352 88.996094 C 488.57156 81.902976 480.6037 78.580122 473.44727 79.023438 z M 730.125 383.14453 C 743.24968 382.75849 758.49629 398.58531 775.86719 430.625 C 793.2381 462.66465 805.97757 482.35118 814.08398 489.68555 C 822.19041 497.01995 828.26906 510.43374 832.32227 529.92773 C 836.37546 549.42173 827.59555 559.16988 805.97852 559.16992 C 791.50336 559.16992 769.81039 545.93376 734.83594 516.42188 C 723.25746 506.65182 713.91211 481.00101 713.91211 441.62695 C 713.91211 402.63893 719.31643 383.14453 730.125 383.14453 z M 576.68164 410.9375 C 613.53798 438.02747 652.7029 466.60525 698.4082 475.95703 C 704.2441 511.5783 722.06242 526.40202 730.57227 530.9707 L 714.87305 529.82227 C 674.36973 526.85775 662.86775 527.2219 625.32031 523.26953 C 599.79532 520.98358 588.93434 536.55722 592.73633 569.99023 L 528.64453 569.7832 L 560.46875 518.63672 C 573.97945 524.04103 576.68064 511.30347 568.57422 480.42188 C 572.43443 449.92629 575.13755 426.76432 576.68164 410.9375 z M 400.12109 591.12305 L 940.36328 593.0293 L 940.36328 978.16211 L 54.054688 976.25781 L 54.054688 895.85547 L 169.03516 895.85547 L 169.03516 794.60938 L 284.01367 794.60938 L 284.01367 693.36328 L 400.12109 693.36328 L 400.12109 591.12305 z " />
</svg>
