<?xml version="1.0" encoding="UTF-8" standalone="no"?>
<svg
   width="1400"
   height="1000"
   version="1.1"
   id="svg1"
   sodipodi:docname="13AA0.svg"
   inkscape:version="1.4.2 (f4327f4, 2025-05-13)"
   xmlns:inkscape="http://www.inkscape.org/namespaces/inkscape"
   xmlns:sodipodi="http://sodipodi.sourceforge.net/DTD/sodipodi-0.dtd"
   xmlns="http://www.w3.org/2000/svg"
   xmlns:svg="http://www.w3.org/2000/svg">
  <defs
     id="defs1" />
  <sodipodi:namedview
     id="namedview1"
     pagecolor="#ffffff"
     bordercolor="#000000"
     borderopacity="0.25"
     inkscape:showpageshadow="2"
     inkscape:pageopacity="0.0"
     inkscape:pagecheckerboard="0"
     inkscape:deskcolor="#d1d1d1"
     showguides="true"
     inkscape:zoom="0.37535714"
     inkscape:cx="1080.3045"
     inkscape:cy="678.02093"
     inkscape:window-width="1680"
     inkscape:window-height="998"
     inkscape:window-x="-8"
     inkscape:window-y="-8"
     inkscape:window-maximized="1"
     inkscape:current-layer="svg1" />
  <path
     id="path1"
     style="fill:#000000;stroke:none;stroke-width:34.5451"
     d="M 805.9375 0 C 793.73806 39.30952 784.92595 62.691183 779.50391 70.146484 L 750.02148 14.232422 L 731.72266 15.25 C 728.33388 40.32677 723.25206 65.403668 716.47461 90.480469 C 716.47461 96.580213 709.35779 99.628906 695.125 99.628906 C 663.94847 99.628906 643.95335 111.48968 635.14258 135.21094 C 609.38805 144.0217 596.51172 153.84934 596.51172 164.69336 C 596.51172 195.19215 600.91775 212.47453 609.72852 216.54102 C 606.33977 251.78404 620.91133 267.0333 653.44336 262.28906 C 673.09814 275.84404 682.92578 302.95408 682.92578 343.61914 C 665.98202 395.12822 657.84764 437.1496 658.52539 469.68164 C 655.13666 467.6484 629.2131 472.22336 580.75391 483.40625 C 532.29473 494.5891 492.13746 503.56819 460.2832 510.3457 C 438.59517 477.13594 416.56892 469.68122 394.20312 487.98047 L 344.88281 470.91797 C 352.42433 465.93715 359.43978 459.96899 365.7832 452.95117 C 389.57975 426.62472 403.29492 386.68894 403.29492 332.22656 C 403.29492 277.76419 389.92439 218.1837 367.83008 171.02344 C 356.78292 147.44331 343.56854 126.93559 328.03711 111.76172 C 312.50568 96.587843 294.04261 86.490234 273.74023 86.490234 C 253.43786 86.490237 234.97283 96.587842 219.44141 111.76172 C 203.90998 126.93559 190.69559 147.44331 179.64844 171.02344 C 157.55412 218.1837 144.18359 277.76419 144.18359 332.22656 C 144.18359 386.68894 157.89876 426.62472 181.69531 452.95117 C 187.75317 459.65306 194.42338 465.39855 201.58008 470.24023 C 201.30177 488.8866 209.22801 500.00123 222.90234 513.39648 C 239.50724 529.66252 263.73556 533.39086 295.58984 524.58008 C 321.34437 540.84611 340.32196 555.07782 352.52148 567.27734 C 364.72101 579.4768 389.28917 588.6268 426.22656 594.72656 C 463.164 600.82633 552.79734 606.58773 695.125 612.00977 C 710.03554 636.40881 727.65574 655.04658 747.98828 667.92383 C 794.75307 808.89598 794.07537 891.91931 745.95508 916.99609 C 712.74522 913.60738 689.87239 921.74172 677.33398 941.39648 C 664.7956 961.05128 661.91387 980.70448 668.69141 1000.3594 L 719.52344 1000.3594 C 745.27795 1000.3594 771.37044 1000.0214 797.80273 999.34375 L 854.73438 907.84766 C 878.45565 917.3362 883.19956 894.63023 868.9668 839.73242 C 875.74434 786.86788 880.48818 746.54172 883.19922 718.75391 C 946.9078 767.55199 1003.5008 801.44096 1052.9766 820.41797 C 1061.1097 870.57157 1074.6656 905.47415 1093.6426 925.12891 C 1048.2334 923.09563 1006.5518 920.04675 968.59766 915.98047 C 922.51057 911.91404 903.53302 940.03948 911.66602 1000.3594 L 1361.0137 1000.3594 C 1374.5687 795.00084 1332.8872 658.43527 1235.9688 590.66016 C 1263.7564 578.46062 1305.438 568.63297 1361.0137 561.17773 C 1389.4793 559.8222 1402.3575 548.97897 1399.6465 528.64648 C 1399.6465 508.31393 1385.4128 499.84174 1356.9473 503.23047 C 1295.2719 510.68576 1236.6479 525.5952 1181.0723 547.96094 C 1132.2743 506.61815 1076.6987 471.71357 1014.3457 443.24805 C 1003.6523 399.80627 981.09492 365.59188 946.67578 340.60352 C 948.04165 341.02106 950.26608 341.01051 953.34766 340.57031 L 922.84766 313.12109 L 944.19727 316.16992 L 952.33008 316.16992 L 925.89844 289.73828 C 930.64276 289.73828 935.72631 289.4004 941.14844 288.72266 C 921.49366 271.77889 909.97071 261.27355 906.58203 257.20703 L 919.79883 258.22266 L 930.98242 256.18945 L 896.41602 229.75781 C 903.87124 227.72457 913.69896 228.06245 925.89844 230.77344 C 919.12101 221.96271 908.2777 213.83025 893.36719 206.375 L 911.66602 210.44141 L 906.58203 202.30859 L 888.2832 189.0918 C 890.99419 187.7361 897.43333 187.39842 907.59961 188.07617 C 896.07782 171.81014 879.47316 156.89873 857.78516 143.34375 C 876.76217 126.39995 879.30405 104.54265 865.41016 77.771484 C 851.51623 51.00035 835.41844 25.076782 817.11914 0 L 805.9375 0 z M 812.03711 29.482422 L 814.07031 29.482422 C 847.28039 83.702478 858.80103 114.70977 848.63477 122.50391 C 838.46837 130.29804 833.38477 138.93921 833.38477 148.42773 C 836.09577 148.42773 844.568 154.52703 858.80078 166.72656 L 839.48633 164.69336 L 867.95117 195.19141 L 856.76758 194.17578 L 875.06641 216.54102 L 863.88477 216.54102 L 861.85156 225.69141 L 879.13477 238.90625 C 874.39029 238.90625 872.01758 242.9744 872.01758 251.10742 L 887.26758 264.32227 C 881.8456 264.32227 879.13477 268.38848 879.13477 276.52148 L 898.44922 291.77148 C 891.67168 291.77148 888.2832 294.82211 888.2832 300.92188 L 907.59961 320.23633 L 898.44922 318.20312 C 895.06065 318.20312 892.34984 321.25377 890.31641 327.35352 C 942.50326 365.98534 977.06793 414.10604 994.01172 471.71484 C 1058.398 496.79162 1111.2626 528.30764 1152.6055 566.26172 C 1122.1066 586.59425 1095.8453 616.58401 1073.8184 656.23242 C 1051.7917 695.88085 1043.1501 740.44213 1047.8945 789.91797 C 1005.8741 775.00746 951.99182 739.42714 886.25 683.17383 C 893.70495 635.05351 895.40026 606.92598 891.33398 598.79297 C 887.26745 590.65993 879.81078 581.00123 868.9668 569.81836 C 858.12279 558.63549 850.15917 574.2245 845.07617 616.58398 C 839.99301 658.94338 822.20192 666.73796 791.70312 639.9668 C 761.20437 613.19564 741.55096 582.01942 732.74023 546.4375 C 723.92944 510.85557 736.46796 474.76453 770.35547 438.16602 C 804.243 401.56747 832.36857 383.26758 854.73438 383.26758 C 877.10017 383.26758 897.4331 392.41753 915.73242 410.7168 L 923.86523 403.60156 C 906.24362 381.23573 884.21746 370.05273 857.78516 370.05273 C 831.35287 370.05273 799.15911 386.48649 761.20508 419.35742 C 723.251 452.22834 704.95112 489.67479 706.30664 531.69531 C 707.35614 564.22914 711.251 588.84009 717.98828 605.5293 C 676.03265 521.97568 672.47762 435.35012 707.32422 345.65234 C 708.67974 328.70853 707.49326 312.27282 703.76562 296.3457 C 700.03803 280.41856 689.36374 260.59435 671.74219 236.87305 C 644.6322 241.6173 631.75388 237.89094 633.10938 225.69141 C 644.63112 221.62486 655.98507 221.79381 667.16797 226.19922 C 678.35087 230.6046 683.77246 228.74042 683.43359 220.60742 C 683.09471 212.47438 678.68867 210.27237 670.2168 214 C 661.74489 217.72762 649.37539 218.57424 633.10938 216.54102 C 624.9764 210.44124 620.57228 196.88722 619.89453 175.87695 C 622.60553 173.16594 623.96094 174.18149 623.96094 178.92578 C 623.96094 182.99229 629.04465 184.34772 639.21094 182.99219 C 639.21094 162.65964 632.43199 154.86704 618.87695 159.61133 C 640.56497 151.4783 654.12096 144.02165 659.54297 137.24414 C 665.64275 124.36684 691.39736 118.60543 736.80664 119.96094 C 770.01642 119.28319 795.0935 89.124501 812.03711 29.482422 z M 747.98828 46.765625 L 752.05469 46.765625 L 770.35547 85.396484 C 771.03326 93.529517 758.83269 98.27339 733.75586 99.628906 L 747.98828 46.765625 z M 819.15234 59.980469 C 809.66381 68.791222 806.61509 91.497165 810.00391 128.0957 L 820.16992 128.0957 C 818.8144 98.274682 821.18539 79.297055 827.28516 71.164062 L 819.15234 59.980469 z M 273.74023 111.49023 C 285.76178 111.49023 298.08923 117.4546 310.56641 129.64453 C 323.04358 141.83446 335.05572 159.99432 345.19141 181.62891 C 365.46277 224.89808 378.29492 281.93321 378.29492 332.22656 C 378.29492 382.51992 365.80546 415.64422 347.23633 436.1875 C 328.6672 456.73078 303.39833 465.8457 273.74023 465.8457 C 244.08214 465.8457 218.81132 456.73078 200.24219 436.1875 C 181.67306 415.64422 169.18359 382.51992 169.18359 332.22656 C 169.18359 281.93321 182.01574 224.89808 202.28711 181.62891 C 212.42279 159.99432 224.43494 141.83446 236.91211 129.64453 C 249.38928 117.4546 261.71869 111.49024 273.74023 111.49023 z M 701.93164 135.99805 C 700.14725 136.10924 698.38517 136.35509 696.64844 136.73633 C 682.75454 139.78627 677.50387 150.12263 680.89258 167.74414 C 665.30432 176.55487 666.31986 179.26573 683.94141 175.87695 C 711.72919 171.81044 731.38449 164.35378 742.90625 153.50977 C 728.08046 141.05607 714.42237 135.2197 701.93164 135.99805 z M 238.85938 497.47461 C 239.03208 497.60817 239.20418 497.74 239.37695 497.87305 C 239.37333 497.90834 239.37018 497.94293 239.36719 497.97461 C 239.26319 497.86936 239.14919 497.77651 239.04492 497.67188 L 239.04102 497.66797 L 239.03906 497.66602 C 238.97963 497.60081 238.91982 497.53777 238.85938 497.47461 z M 1205.4707 608.95898 C 1280.0233 665.21235 1321.0273 744.84908 1328.4824 847.86719 C 1304.7613 818.72384 1279.8532 777.04228 1253.7598 722.82227 C 1227.6665 668.60214 1199.0321 641.83018 1167.8555 642.50781 C 1177.344 629.63057 1189.8824 618.44752 1205.4707 608.95898 z M 1152.6055 668.93945 C 1174.9713 668.93945 1201.5746 696.89812 1232.4121 752.8125 C 1263.2498 808.72698 1285.7848 843.29163 1300.0176 856.50781 C 1314.2503 869.72392 1324.9247 893.44548 1332.041 927.67188 C 1339.1575 961.89833 1323.7392 979.01172 1285.7852 979.01172 C 1228.8542 974.94528 1187.6794 956.81428 1162.2637 924.62109 C 1136.8481 892.42794 1124.1406 841.7673 1124.1406 772.63672 C 1124.1406 703.50613 1133.6285 668.93945 1152.6055 668.93945 z " />
</svg>
