<?xml version="1.0" encoding="UTF-8" standalone="no"?>
<svg
   width="1250"
   height="1000"
   version="1.1"
   id="svg1"
   sodipodi:docname="13B0C.svg"
   inkscape:version="1.4.3 (0d15f75, 2025-12-25)"
   xmlns:inkscape="http://www.inkscape.org/namespaces/inkscape"
   xmlns:sodipodi="http://sodipodi.sourceforge.net/DTD/sodipodi-0.dtd"
   xmlns="http://www.w3.org/2000/svg"
   xmlns:svg="http://www.w3.org/2000/svg">
  <defs
     id="defs1" />
  <sodipodi:namedview
     id="namedview1"
     pagecolor="#ffffff"
     bordercolor="#666666"
     borderopacity="1.0"
     inkscape:showpageshadow="2"
     inkscape:pageopacity="0.0"
     inkscape:pagecheckerboard="0"
     inkscape:deskcolor="#d1d1d1"
     inkscape:zoom="0.3775"
     inkscape:cx="332.45033"
     inkscape:cy="181.45695"
     inkscape:window-width="1680"
     inkscape:window-height="998"
     inkscape:window-x="-8"
     inkscape:window-y="-8"
     inkscape:window-maximized="1"
     inkscape:current-layer="svg1"
     showguides="true">
    <sodipodi:guide
       position="598.70214,840.98242"
       orientation="1,0"
       id="guide34"
       inkscape:locked="false" />
    <sodipodi:guide
       position="598.70214,840.98242"
       orientation="0,-1"
       id="guide35"
       inkscape:locked="false" />
    <sodipodi:guide
       position="612.57617,801.49414"
       orientation="0,-1"
       id="guide36"
       inkscape:locked="false" />
    <sodipodi:guide
       position="584.82812,775.88086"
       orientation="0,-1"
       id="guide37"
       inkscape:locked="false" />
    <sodipodi:guide
       position="1250,0"
       orientation="0,-1"
       id="guide46"
       inkscape:locked="false" />
  </sodipodi:namedview>
  <path
     id="path20"
     style="fill:#000000;stroke:none;stroke-width:0.999997"
     inkscape:transform-center-x="-0.99944008"
     inkscape:transform-center-y="420.10988"
     d="M 322.61328 0 C 272.46789 -9.4739031e-15 239.15796 21.848776 222.68164 65.546875 C 212.65258 97.783152 189.01252 143.27197 151.76172 202.01367 C 87.289119 272.93356 55.410653 376.44976 56.126953 512.55859 C 19.592553 526.88583 -8.5265625 558.58351 -28.226562 607.6543 C -47.926462 656.72514 -57.775391 750.74838 -57.775391 889.72266 C -59.208091 906.19901 -55.269631 914.43555 -45.957031 914.43555 C -35.211531 914.43555 -30.195609 906.91469 -30.912109 891.87109 C -32.344609 679.82784 -0.46614375 563.06117 64.722656 541.57031 C 64.722656 593.14841 85.853741 666.21754 128.11914 760.77734 C 100.89734 790.86455 82.273341 852.47053 72.244141 945.59766 C 66.513341 978.55029 75.467522 996.4607 99.107422 999.32617 C 118.44922 990.72985 141.01373 989.47368 166.80273 995.5625 C 192.59193 1001.6516 210.86005 1001.475 221.60547 995.02734 C 231.63456 1000.0419 241.48535 1000.7576 251.15625 997.17578 C 260.82713 993.59381 274.61637 993.05501 292.52539 995.5625 C 310.43447 998.07 343.38653 999.32617 391.38281 999.32617 C 390.66646 980.7007 380.63671 971.02882 361.29492 970.3125 C 353.41497 968.87986 343.38521 967.08879 331.20703 964.93945 C 333.3561 962.07418 335.32823 958.84956 337.11914 955.26758 C 338.91005 951.68562 341.41699 948.28407 344.64062 945.06055 C 347.86429 941.83712 347.68534 940.22461 344.10352 940.22461 C 340.5217 940.22461 336.76029 941.30027 332.82031 943.44922 C 328.88028 945.59818 323.32963 951.32781 316.16602 960.64062 C 303.29403 958.49543 286.49592 947.06907 265.77148 926.36328 L 281.7793 784.41602 C 291.80837 775.10331 295.92763 766.50694 294.13672 758.62695 C 292.3458 750.74699 292.88258 743.94187 295.74805 738.21094 C 298.6135 732.48005 297.53996 726.92739 292.52539 721.55469 C 287.51092 716.18196 281.42145 689.85609 274.25781 642.57617 C 267.0942 595.29629 249.54363 544.43572 221.60547 489.99219 C 280.34719 420.50506 313.6591 361.04622 321.53906 311.61719 L 393.53125 364.26953 L 397.00195 363.27734 C 403.53047 369.17599 415.41216 375.15939 432.65039 381.23047 C 456.75342 389.71927 500.06893 403.14081 546.69922 417.51953 C 556.55457 426.35163 566.12833 432.98817 575.32812 437.05078 L 566.35156 730.39844 C 536.413 743.00504 519.77404 760.14086 516.4375 781.80273 C 513.10092 803.4646 511.5405 825.49142 511.75391 847.88672 C 511.96731 870.28203 514.3066 893.93517 518.76953 918.8457 C 523.23247 943.75612 534.12647 963.37677 551.45312 977.70508 C 568.77975 992.03337 584.19623 999.23856 597.70312 999.32422 C 611.21006 999.41012 626.89669 992.04444 644.76367 977.22852 C 662.63064 962.41254 673.77307 943.11202 678.18945 919.32422 C 682.60592 895.53647 685.06473 872.26772 685.56445 849.52148 C 686.0642 826.77525 684.78216 804.55207 681.7207 782.84961 C 678.65924 761.14715 661.88553 743.80048 631.39844 730.81055 L 621.01758 431.56641 C 622.33929 430.42572 623.6443 429.18559 624.93164 427.8418 C 639.93401 413.82707 638.90994 400.0067 619.5625 389.59766 L 618.31836 353.70117 C 622.97375 353.08981 627.84681 352.18412 632.92188 351 C 680.72291 360.80776 725.19215 370.1244 750.4082 374.26758 C 775.62427 378.41078 796.84293 371.43314 801.85742 364.26953 L 873.85156 311.61719 C 881.73152 361.04622 915.04344 420.50506 973.78516 489.99219 C 945.847 544.43572 928.29642 595.29629 921.13281 642.57617 C 913.96917 689.85609 907.8797 716.18196 902.86523 721.55469 C 897.85066 726.92739 896.77713 732.48005 899.64258 738.21094 C 902.50805 743.94187 903.04287 750.74699 901.25195 758.62695 C 899.46104 766.50694 903.58031 775.10331 913.60938 784.41602 L 929.61914 926.36328 C 908.8947 947.06907 892.0966 958.49543 879.22461 960.64062 C 872.061 951.32781 866.51034 945.59818 862.57031 943.44922 C 858.63033 941.30027 854.86698 940.22461 851.28516 940.22461 C 847.70334 940.22461 847.52439 941.83712 850.74805 945.06055 C 853.97168 948.28407 856.48057 951.68562 858.27148 955.26758 C 860.06239 958.84956 862.03257 962.07418 864.18164 964.93945 C 852.00346 967.08879 841.9737 968.87986 834.09375 970.3125 C 814.75196 971.02882 804.72416 980.7007 804.00781 999.32617 C 852.00409 999.32617 884.95615 998.07 902.86523 995.5625 C 920.77425 993.05501 934.56349 993.59381 944.23438 997.17578 C 953.90527 1000.7576 963.75607 1000.0419 973.78516 995.02734 C 984.53058 1001.475 1002.7987 1001.6516 1028.5879 995.5625 C 1054.3769 989.47368 1076.9395 990.72985 1096.2812 999.32617 C 1119.9211 996.4607 1128.8773 978.55029 1123.1465 945.59766 C 1113.1173 852.47053 1094.4913 790.86455 1067.2695 760.77734 C 1109.5349 666.21754 1130.668 593.14841 1130.668 541.57031 C 1195.8568 563.06117 1227.7352 679.82784 1226.3027 891.87109 C 1225.5862 906.91469 1230.6022 914.43555 1241.3477 914.43555 C 1250.6603 914.43555 1254.5987 906.19901 1253.166 889.72266 C 1253.166 750.74838 1243.3171 656.72514 1223.6172 607.6543 C 1203.9172 558.58351 1175.7981 526.88583 1139.2637 512.55859 C 1139.98 376.44976 1108.1015 272.93356 1043.6289 202.01367 C 1006.3781 143.27197 982.73804 97.783152 972.70898 65.546875 C 956.23266 21.848776 922.92273 -9.4739031e-15 872.77734 0 C 855.58466 0 840.54101 2.8648116 827.64648 8.5957031 C 814.75195 14.326595 802.21525 24.356346 790.03711 38.683594 C 782.87351 34.385416 774.27715 36.892365 764.24805 46.205078 L 764.24805 76.292969 L 712.67188 119.27344 C 707.65734 125.72072 709.80448 130.37871 719.11719 133.24414 C 721.2663 138.97503 725.92429 146.49784 733.08789 155.81055 L 737.38477 155.81055 C 739.53384 165.83962 747.05468 174.43401 759.94922 181.59766 L 824.42383 171.92773 C 829.43837 181.95677 833.73658 188.40407 837.31836 191.26953 C 810.81297 234.96763 785.38167 267.20404 761.02539 287.97852 C 748.84724 260.75678 723.41598 222.42899 684.73242 173 L 684.73242 134.31836 C 684.73242 120.70746 673.27127 101.72347 650.34766 77.367188 C 643.90042 75.934438 638.70564 77.546751 634.76562 82.203125 C 630.82564 86.859463 631.00454 89.903222 635.30273 91.335938 C 642.46633 97.066866 648.55577 104.41072 653.57031 113.36523 C 658.58484 122.31975 661.0918 134.67558 661.0918 150.43555 C 652.49548 138.97376 648.19727 128.23024 648.19727 118.20117 C 648.19727 108.1721 644.25696 103.51412 636.37695 104.23047 C 635.6606 140.04857 642.82553 165.83766 657.86914 181.59766 C 681.57412 245.85063 702.83461 290.27566 721.65039 314.87305 C 698.50501 310.69207 675.55036 307.59553 646.37109 308.99219 C 635.33708 304.26798 625.34318 300.56103 616.37891 297.79883 L 613.8418 224.65039 L 638.57812 224.65039 L 638.57812 198.82812 L 612.94531 198.82812 L 611.56445 159.01758 L 583.83984 158.92969 L 582.61914 198.82812 L 556.80664 198.82812 L 556.80664 224.65039 L 581.82812 224.65039 L 579.78125 291.52734 C 559.87828 292.29685 553.20671 303.75454 559.35742 322.44336 C 562.68073 334.8128 569.06451 343.31961 578.03906 348.4668 L 577.16406 377.05273 C 570.42401 375.94486 563.07342 374.99435 555.09766 374.21875 C 524.94215 355.75915 491.29021 338.89232 459.96484 329.04883 C 462.00837 327.66297 463.91014 326.14889 465.52734 324.51172 C 486.30184 303.02087 510.29971 255.38297 537.52148 181.59766 C 552.56509 165.83766 559.73002 140.04857 559.01367 104.23047 C 551.13366 103.51412 547.19141 108.1721 547.19141 118.20117 C 547.19141 128.23024 542.89515 138.97376 534.29883 150.43555 C 534.29883 134.67558 536.80578 122.31975 541.82031 113.36523 C 546.83485 104.41072 552.92234 97.066866 560.08594 91.335938 C 564.38413 89.903222 564.56304 86.859463 560.62305 82.203125 C 556.68304 77.546751 551.49021 75.934438 545.04297 77.367188 C 522.11936 101.72347 510.65625 120.70746 510.65625 134.31836 L 510.65625 173 C 471.97269 222.42899 446.54338 260.75678 434.36523 287.97852 C 410.00895 267.20404 384.57766 234.96763 358.07227 191.26953 C 361.65405 188.40407 365.95226 181.95677 370.9668 171.92773 L 435.43945 181.59766 C 448.33399 174.43401 455.85679 165.83962 458.00586 155.81055 L 462.30273 155.81055 C 469.46633 146.49784 474.12433 138.97503 476.27344 133.24414 C 485.58615 130.37871 487.73328 125.72072 482.71875 119.27344 L 431.14062 76.292969 L 431.14062 46.205078 C 421.11153 36.892365 412.51712 34.385416 405.35352 38.683594 C 393.17538 24.356346 380.63867 14.326595 367.74414 8.5957031 C 354.84961 2.8648116 339.80596 0 322.61328 0 z M 327.98438 21.490234 C 353.05701 21.490234 370.60956 29.728761 380.63867 46.205078 C 372.75866 52.652364 351.98348 53.012179 318.31445 47.28125 L 318.31445 58.025391 C 338.37259 80.2326 348.40039 99.574417 348.40039 116.05078 C 348.40039 138.97434 335.14992 150.43555 308.64453 150.43555 C 270.67732 150.43555 251.33551 132.16922 250.61914 95.634766 C 250.61914 68.412984 257.42427 49.250069 271.03516 38.146484 C 284.64601 27.042861 303.62804 21.490234 327.98438 21.490234 z M 867.4043 21.490234 C 891.76063 21.490234 910.74462 27.042861 924.35547 38.146484 C 937.96636 49.250069 944.77148 68.412984 944.77148 95.634766 C 944.05511 132.16922 924.7133 150.43555 886.74609 150.43555 C 860.2407 150.43555 846.98828 138.97434 846.98828 116.05078 C 846.98828 99.574417 857.01803 80.2326 877.07617 58.025391 L 877.07617 47.28125 C 843.40714 53.012179 822.63196 52.652364 814.75195 46.205078 C 824.78106 29.728761 842.33166 21.490234 867.4043 21.490234 z M 398.9043 58.025391 L 412.875 58.025391 C 410.72585 66.621747 410.36608 73.605822 411.79883 78.978516 C 413.23155 84.351248 428.63501 97.782585 458.00586 119.27344 C 462.30404 122.85526 461.2285 128.40789 454.78125 135.92969 C 448.33397 143.45149 431.14121 143.98827 403.20312 137.54102 C 394.60677 134.67555 389.77182 134.85646 388.69727 138.08008 C 387.62276 141.30376 387.62276 143.62979 388.69727 145.0625 C 389.77182 146.49522 393.53323 146.49522 399.98047 145.0625 C 414.30772 148.64429 428.27582 150.79533 441.88672 151.51172 C 441.17035 159.39168 437.232 163.68791 430.06836 164.4043 C 417.89021 163.68791 394.25018 161.53885 359.14844 157.95703 C 353.41751 174.43339 342.67013 185.8965 326.91016 192.34375 C 311.86657 173.71835 289.65992 164.4043 260.28906 164.4043 L 260.28906 178.375 C 282.4963 174.79321 301.83813 185.5367 318.31445 210.60938 C 369.17615 284.39469 408.57553 327.37651 436.51367 339.55469 C 458.5007 343.74133 503.70384 362.72756 548.64258 387.01758 C 566.43257 401.70354 564.11094 406.66529 541.67578 401.9043 C 493.115 383.36466 445.65822 366.53136 415.20117 355.37891 L 411.36328 355.52539 C 398.49739 348.49443 377.6882 331.71098 348.9375 305.17188 C 316.34302 275.08467 290.01711 259.68124 269.95898 258.96484 L 266.73633 274.00781 C 282.49629 276.15692 293.5996 282.24828 300.04688 292.27734 C 297.1814 333.10997 267.09411 390.77567 209.78516 465.27734 C 189.72695 478.88823 176.47464 492.85633 170.02734 507.18359 L 165.72852 487.84375 L 170.02734 468.5 C 162.14734 462.76911 154.26662 469.57422 146.38672 488.91602 C 177.19022 558.40315 192.23388 642.93543 191.51758 742.50977 L 112.00195 930.55469 C 106.27115 941.30016 99.823656 941.30016 92.660156 930.55469 C 100.54016 849.60578 119.52413 793.72934 149.61133 762.92578 C 100.18233 659.05326 76.721316 561.98429 79.228516 471.72266 C 81.735916 381.46104 107.16698 302.1255 155.52148 233.71289 C 203.87576 165.30031 231.99113 113.18529 239.87109 77.367188 L 237.72461 95.634766 C 239.15732 140.76557 263.15518 163.33203 309.71875 163.33203 C 344.10413 163.33203 361.29492 147.5707 361.29492 116.05078 C 360.57856 99.574417 353.77344 82.73955 340.87891 65.546875 C 359.50433 70.561412 378.84615 68.05446 398.9043 58.025391 z M 782.51562 58.025391 L 796.48633 58.025391 C 816.54448 68.05446 835.8863 70.561412 854.51172 65.546875 C 841.61719 82.73955 834.81011 99.574417 834.09375 116.05078 C 834.09375 147.5707 851.2865 163.33203 885.67188 163.33203 C 932.23545 163.33203 956.23331 140.76557 957.66602 95.634766 L 955.51758 77.367188 C 963.39754 113.18529 991.51486 165.30031 1039.8691 233.71289 C 1088.2236 302.1255 1113.6547 381.46104 1116.1621 471.72266 C 1118.6693 561.98429 1095.2083 659.05326 1045.7793 762.92578 C 1075.8665 793.72934 1094.8505 849.60578 1102.7305 930.55469 C 1095.567 941.30016 1089.1195 941.30016 1083.3887 930.55469 L 1003.873 742.50977 C 1003.1567 642.93543 1018.2004 558.40315 1049.0039 488.91602 C 1041.124 469.57422 1033.2413 462.76911 1025.3613 468.5 L 1029.6602 487.84375 L 1025.3613 507.18359 C 1018.914 492.85633 1005.6637 478.88823 985.60547 465.27734 C 928.29652 390.77567 898.20922 333.10997 895.34375 292.27734 C 901.79103 282.24828 912.89434 276.15692 928.6543 274.00781 L 925.42969 258.96484 C 905.37156 259.68124 879.04565 275.08467 846.45117 305.17188 C 813.85669 335.25908 791.47111 352.80774 779.29297 357.82227 C 747.05666 361.4041 696.3261 346.80984 644.83203 339.72266 C 622.87051 333.11244 623.21949 327.64411 645.87891 323.31836 C 696.96122 323.62199 736.18749 333.20497 758.87695 339.55469 C 786.81509 327.37651 826.21447 284.39468 877.07617 210.60938 C 893.55249 185.53671 912.89432 174.79321 935.10156 178.375 L 935.10156 164.4043 C 905.7307 164.4043 883.52211 173.71835 868.47852 192.34375 C 852.71855 185.8965 841.97312 174.43339 836.24219 157.95703 C 801.14045 161.53885 777.50042 163.68791 765.32227 164.4043 C 758.15863 163.68791 754.22028 159.39168 753.50391 151.51172 C 767.11481 150.79533 781.08291 148.64429 795.41016 145.0625 C 801.8574 146.49522 805.61881 146.49522 806.69336 145.0625 C 807.76787 143.62979 807.76787 141.30376 806.69336 138.08008 C 805.61881 134.85646 800.78386 134.67555 792.1875 137.54102 C 764.24941 143.98827 747.05666 143.45149 740.60938 135.92969 C 734.16212 128.40789 733.08659 122.85526 737.38477 119.27344 C 766.75562 97.782585 782.15908 84.351248 783.5918 78.978516 C 785.02455 73.605822 784.66477 66.621747 782.51562 58.025391 z M 401.54492 88.042969 C 401.03843 88.045769 400.51775 88.068501 399.98047 88.113281 C 394.24958 93.127815 384.21983 95.992629 369.89258 96.708984 L 369.89258 99.933594 C 387.80165 104.23177 398.90494 107.81231 403.20312 110.67773 C 407.50125 113.5432 413.23284 116.40801 420.39648 119.27344 L 420.39648 116.05078 C 415.38194 113.18531 413.23286 108.52733 413.94922 102.08008 C 413.27763 92.677821 409.14228 88.001009 401.54492 88.042969 z M 793.84375 88.042969 C 786.24639 88.001009 782.113 92.677821 781.44141 102.08008 C 782.15777 108.52733 780.00868 113.18531 774.99414 116.05078 L 774.99414 119.27344 C 782.15778 116.40801 787.88937 113.5432 792.1875 110.67773 C 796.48569 107.81231 807.58898 104.23177 825.49805 99.933594 L 825.49805 96.708984 C 811.1708 95.992629 801.14105 93.127815 795.41016 88.113281 C 794.87288 88.068501 794.35024 88.045769 793.84375 88.042969 z M 592.26172 176.04492 L 603.99219 176.11914 L 601.55469 224.0918 L 603.10156 294.2168 C 599.51015 293.40126 596.13131 292.77279 592.96484 292.32617 L 594.08984 224.04297 L 592.26172 176.04492 z M 514.95508 189.11914 L 518.17773 194.49219 C 478.06145 278.30658 449.76734 320.92858 433.29102 322.36133 C 394.60746 285.82683 362.37105 247.503 336.58203 207.38672 C 340.16381 205.23766 343.02861 203.08856 345.17773 200.93945 C 375.26494 251.0848 405.35224 286.90363 435.43945 308.39453 L 514.95508 189.11914 z M 680.43359 189.11914 L 759.94922 308.39453 C 790.03643 286.90363 820.12568 251.0848 850.21289 200.93945 C 852.36201 203.08856 855.22681 205.23766 858.80859 207.38672 C 833.01957 247.503 800.78317 285.82683 762.09961 322.36133 C 761.49686 322.2588 760.89542 322.15616 760.29688 322.05273 C 743.59585 317.84659 715.90116 275.32714 677.21094 194.49219 L 680.43359 189.11914 z M 591.95703 353.47266 C 595.83939 354.22393 600.00465 354.60368 604.43359 354.63086 L 605.07031 383.56836 C 600.98493 382.23344 596.47069 380.99157 591.52148 379.85352 L 591.95703 353.47266 z M 606.31641 440.00977 L 613.14844 749.89062 C 641.52544 759.3126 657.08602 772.02988 659.82812 788.04297 C 662.5702 804.05601 663.49779 825.74456 662.61328 853.10938 C 661.72878 880.47415 656.93914 906.92495 648.24609 932.46289 C 639.55308 958.00103 622.7553 972.46884 597.85156 975.86523 C 572.99294 972.15296 556.55779 957.47403 548.54492 931.83008 C 540.53204 906.18617 536.07857 879.85461 535.18359 852.83398 C 534.28865 825.8134 535.1366 804.13546 537.72852 787.80078 C 540.32035 771.46605 556.2187 758.77153 585.42383 749.71484 L 590.50586 441.39844 C 595.95024 442.0466 601.22803 441.61357 606.31641 440.00977 z M 205.48828 501.81055 C 230.56096 555.53769 251.6921 627.53327 268.88477 717.79492 C 276.04841 725.67489 278.19749 731.76428 275.33203 736.0625 C 272.4666 740.36064 271.92979 746.09222 273.7207 753.25586 C 275.51162 760.41947 274.07826 765.79124 269.42188 769.37305 C 264.7655 772.95504 256.70593 825.24893 245.24414 926.25586 C 242.37872 944.16493 239.5139 944.16493 236.64844 926.25586 C 226.61937 841.00873 224.47219 785.85001 230.20312 760.77734 C 230.20313 750.03191 223.75394 734.27062 210.85938 713.49609 C 212.29214 631.83082 203.33799 571.29837 183.99609 531.89844 C 183.27969 521.86933 190.44467 511.83958 205.48828 501.81055 z M 989.90234 501.81055 C 1004.946 511.83958 1012.1109 521.86933 1011.3945 531.89844 C 992.05263 571.29837 983.09654 631.83082 984.5293 713.49609 C 971.63473 734.27062 965.1875 750.03191 965.1875 760.77734 C 970.91843 785.85001 968.7693 841.00873 958.74023 926.25586 C 955.87477 944.16493 953.0119 944.16493 950.14648 926.25586 C 938.68469 825.24893 930.62317 772.95504 925.9668 769.37305 C 921.31042 765.79124 919.87705 760.41947 921.66797 753.25586 C 923.45888 746.09222 922.92402 740.36064 920.05859 736.0625 C 917.19313 731.76428 919.34027 725.67489 926.50391 717.79492 C 943.69658 627.53327 964.82966 555.53769 989.90234 501.81055 z M 209.78516 746.80664 L 213.00977 759.70117 C 205.12976 790.50477 206.92099 846.02326 218.38281 926.25586 L 211.93359 964.93945 C 204.76997 966.3721 197.96493 962.43369 191.51758 953.12109 C 187.93578 950.25581 188.11479 946.6734 192.05469 942.375 C 195.99481 938.07686 198.68252 934.49438 200.11523 931.62891 C 201.54793 928.76364 200.47237 927.33203 196.89062 927.33203 C 193.30881 927.33203 189.54927 928.40574 185.60938 930.55469 C 181.66937 932.70403 177.19243 939.5091 172.17773 950.9707 C 157.13413 943.80706 144.95333 933.06159 135.64062 918.73438 L 203.33789 768.29883 C 208.35242 761.13522 210.50148 753.97028 209.78516 746.80664 z M 985.60547 746.80664 C 984.88915 753.97028 987.03625 761.13522 992.05078 768.29883 L 1059.748 918.73438 C 1050.4353 933.06159 1038.2565 943.80706 1023.2129 950.9707 C 1018.1982 939.5091 1013.7213 932.70403 1009.7812 930.55469 C 1005.8414 928.40574 1002.0818 927.33203 998.5 927.33203 C 994.91825 927.33203 993.84269 928.76364 995.27539 931.62891 C 996.7081 934.49438 999.39582 938.07686 1003.3359 942.375 C 1007.2758 946.6734 1007.4548 950.25581 1003.873 953.12109 C 997.4257 962.43369 990.62065 966.3721 983.45703 964.93945 L 977.00781 926.25586 C 988.46963 846.02326 990.26087 790.50477 982.38086 759.70117 L 985.60547 746.80664 z M 599.08203 781.79102 C 581.30976 781.67828 563.45339 795.07546 545.50977 821.97656 L 545.33984 848.63281 C 581.22709 794.83066 616.77278 795.05546 651.97461 849.30859 L 652.14453 822.65234 C 634.54363 795.52577 616.85429 781.90376 599.08203 781.79102 z M 598.7168 839.37305 C 592.67423 839.33465 586.62175 841.07373 580.55664 844.58984 C 567.00463 851.61308 560.15468 866.85702 560.00586 890.31641 L 570.24805 956.49609 L 576.67383 952.26953 L 572.64453 914.92188 C 570.68321 887.89447 574.53048 870.14559 584.18164 861.67578 C 593.83276 853.20597 603.42777 853.26584 612.9707 861.85742 C 622.51358 870.44898 625.78324 887.53337 622.77734 913.10742 L 619.32812 952.54102 L 626.7793 954.7207 L 635.71484 890.79492 C 635.15275 867.33103 628.85252 852.00589 616.8125 844.82031 C 610.79248 841.22753 604.75935 839.41139 598.7168 839.37305 z " />
</svg>
