<?xml version="1.0" encoding="UTF-8" standalone="no"?>
<svg
   width="1400"
   height="1000"
   version="1.1"
   id="svg1"
   sodipodi:docname="13B73.svg"
   inkscape:version="1.4.3 (0d15f75, 2025-12-25)"
   xmlns:inkscape="http://www.inkscape.org/namespaces/inkscape"
   xmlns:sodipodi="http://sodipodi.sourceforge.net/DTD/sodipodi-0.dtd"
   xmlns="http://www.w3.org/2000/svg"
   xmlns:svg="http://www.w3.org/2000/svg">
  <defs
     id="defs1" />
  <sodipodi:namedview
     id="namedview1"
     pagecolor="#ffffff"
     bordercolor="#000000"
     borderopacity="0.25"
     inkscape:showpageshadow="2"
     inkscape:pageopacity="0.0"
     inkscape:pagecheckerboard="0"
     inkscape:deskcolor="#d1d1d1"
     showguides="true"
     inkscape:zoom="0.18767857"
     inkscape:cx="849.85728"
     inkscape:cy="1015.0333"
     inkscape:window-width="1680"
     inkscape:window-height="998"
     inkscape:window-x="-8"
     inkscape:window-y="-8"
     inkscape:window-maximized="1"
     inkscape:current-layer="svg1">
    <sodipodi:guide
       position="1400,0"
       orientation="0,-1"
       id="guide1"
       inkscape:locked="false" />
    <sodipodi:guide
       position="1400,1000"
       orientation="0,-1"
       id="guide2"
       inkscape:locked="false" />
  </sodipodi:namedview>
  <path
     sodipodi:nodetypes="cssssccssscccssscssssccssssccccccccccccccccccsss"
     id="path1351"
     d="M 2618.5305,262.57311 C 2604.7852,157.97444 2519.5564,0 2359.5874,0 c -283.895,0 -451.0888,199.83072 -596.8736,366.46285 -98.8111,112.94115 -185.7089,242.96489 -320.5031,315.51056 -41.3945,22.27838 -70.5166,64.68381 -71.8973,112.82285 -1.1128,38.80001 -2.8961,80.94519 22.5606,112.97003 50.8124,66.95571 139.6996,101.03011 222.5669,90.2785 74.9975,-6.55075 149.5591,-17.97783 225.3125,-14.80657 207.4698,8.68519 415.4014,16.50468 623.0615,11.84569 65.4376,-1.46816 140.6167,-6.34683 188.952,-56.10579 41.5418,-42.76543 36.0384,-107.874 32.0485,-162.68484 -15.3327,-172.02774 -40.4276,-343.0074 -66.2849,-513.72017 z M 2359.1329,58.419228 c 202.2973,2.737767 220.8931,328.891392 238.4506,479.203862 8.963,76.73337 62.3771,303.35498 7.8584,359.02089 -44.28,45.21172 -123.8411,45.78576 -185.4356,46.19365 -214.5597,1.42098 -669.773,-20.214 -695.9886,-10.62443 23.4136,-57.87251 26.7436,-154.27029 -23.677,-196.67087 -35.5937,-29.93219 -76.4153,-55.47623 -120.7,-68.07298 -33.6703,-9.57747 -36.0131,40.36437 -5.3504,52.18158 39.3659,15.1715 87.2569,46.58236 91.9892,92.6374 5.2462,51.05611 -27.581,102.63856 -68.5756,133.64128 -60.6938,4.87332 -125.3467,-21.41483 -162.4513,-70.19533 -20.3666,-28.02664 -14.149,-64.61163 -9.5817,-96.26473 6.3199,-43.79921 55.6672,-57.22063 88.2376,-78.81163 136.8079,-90.69032 217.403,-239.65548 331.5184,-353.77078 223.4843,-223.48428 340.3748,-290.813669 513.706,-288.467912 z M 2084.3603,381.55935 c -52.9116,2.40273 -97.2088,36.92749 -149.416,42.97056 -34.3391,5.85613 -60.687,31.93084 -72.2407,64.00666 -21.2554,30.34705 -59.9802,40.50352 -87.4289,63.48943 -23.206,37.74042 29.3658,51.98591 56.2324,36.68915 88.7952,-11.23477 178.6865,-6.07142 267.6043,-14.72642 74.4629,-10.97497 104.0847,-118.4038 48.9383,-168.14307 -16.9593,-16.03919 -40.347,-24.998 -63.6894,-24.28631 z m 4.2515,53.11589 c 37.3934,2.22844 44.4578,52.25059 21.9726,75.72786 -15.9816,18.07416 -60.4338,14.7471 -70.5907,11.95618 17.6766,-20.41099 17.7241,-55.10714 -1.2402,-74.73639 15.9937,-6.04104 32.473,-13.04482 49.8583,-12.94765 z m -124.7285,38.45653 c -6.7255,19.74525 1.7588,58.15071 4.5471,53.96893 -19.9681,-1.7467 -59.405,6.6665 -66.5366,-1.46842 14.7127,-27.64996 26.5553,-52.07267 61.9895,-52.50051 z m -400.9919,300.88891 c -44.8333,5.65444 -105.1242,35.35244 -105.1242,57.63443 0,23.24025 84.9295,30.49096 133.4428,16.17808 44.1881,-13.03679 5.9095,-78.12946 -28.3186,-73.81251 z"
     style="color:#000000;display:inline;overflow:visible;visibility:visible;fill:#000000;fill-opacity:1;fill-rule:evenodd;stroke:none;stroke-width:60;stroke-linecap:butt;stroke-linejoin:round;stroke-miterlimit:4;stroke-dashoffset:0;stroke-opacity:1;marker:none;marker-start:none;marker-mid:none;marker-end:none" />
  <path
     sodipodi:nodetypes="cssssccssscccssscssssccssssccccccccccccccccccsss"
     id="path1"
     d="M 68.988994,262.57311 C 82.734294,157.97444 167.96309,0 327.93209,0 c 283.895,0 451.0888,199.83072 596.87355,366.46285 98.81106,112.94115 185.70886,242.96489 320.50306,315.51056 41.3945,22.27838 70.5166,64.68381 71.8973,112.82285 1.1128,38.80001 2.8961,80.94519 -22.5606,112.97003 -50.8124,66.95571 -139.6996,101.03011 -222.5669,90.2785 -74.99746,-6.55075 -149.55906,-17.97783 -225.31241,-14.80657 -207.4698,8.68519 -415.4014,16.50468 -623.0615,11.84569 C 158.26699,993.61575 83.087894,988.73708 34.752594,938.97812 -6.7892101,896.21269 -1.2858101,831.10412 2.7040899,776.29328 18.036794,604.26554 43.131694,433.28588 68.988994,262.57311 Z M 328.38659,58.419228 C 126.08929,61.156995 107.49349,387.31062 89.935994,537.62309 c -8.963,76.73337 -62.3771,303.35498 -7.8584,359.02089 44.279996,45.21172 123.841096,45.78576 185.435596,46.19365 214.5597,1.42098 669.77295,-20.214 695.98855,-10.62443 -23.4136,-57.87251 -26.7436,-154.27029 23.677,-196.67087 35.59366,-29.93219 76.41526,-55.47623 120.69996,-68.07298 33.6703,-9.57747 36.0131,40.36437 5.3504,52.18158 -39.3659,15.1715 -87.2569,46.58236 -91.9892,92.6374 -5.2462,51.05611 27.581,102.63856 68.5756,133.64128 60.6938,4.87332 125.3467,-21.41483 162.4513,-70.19533 20.3666,-28.02664 14.149,-64.61163 9.5817,-96.26473 -6.3199,-43.79921 -55.6672,-57.22063 -88.2376,-78.81163 C 1036.803,609.9676 956.20794,461.00244 842.09259,346.88714 618.60829,123.40286 501.71779,56.073471 328.38659,58.419228 Z m 274.7726,323.140122 c 52.9116,2.40273 97.2088,36.92749 149.416,42.97056 34.3391,5.85613 60.687,31.93084 72.2407,64.00666 21.2554,30.34705 59.9802,40.50352 87.4289,63.48943 23.20595,37.74042 -29.3658,51.98591 -56.2324,36.68915 -88.7952,-11.23477 -178.6865,-6.07142 -267.6043,-14.72642 -74.4629,-10.97497 -104.0847,-118.4038 -48.9383,-168.14307 16.9593,-16.03919 40.347,-24.998 63.6894,-24.28631 z m -4.2515,53.11589 c -37.3934,2.22844 -44.4578,52.25059 -21.9726,75.72786 15.9816,18.07416 60.4338,14.7471 70.5907,11.95618 -17.6766,-20.41099 -17.7241,-55.10714 1.2402,-74.73639 -15.9937,-6.04104 -32.473,-13.04482 -49.8583,-12.94765 z m 124.7285,38.45653 c 6.7255,19.74525 -1.7588,58.15071 -4.5471,53.96893 19.9681,-1.7467 59.405,6.6665 66.5366,-1.46842 -14.7127,-27.64996 -26.5553,-52.07267 -61.9895,-52.50051 z M 1124.628,774.02068 c 44.8333,5.65444 105.1242,35.35244 105.1242,57.63443 0,23.24025 -84.9295,30.49096 -133.4428,16.17808 -44.1881,-13.03679 -5.9095,-78.12946 28.3186,-73.81251 z"
     style="color:#000000;display:inline;overflow:visible;visibility:visible;fill:#000000;fill-opacity:1;fill-rule:evenodd;stroke:none;stroke-width:60;stroke-linecap:butt;stroke-linejoin:round;stroke-miterlimit:4;stroke-dashoffset:0;stroke-opacity:1;marker:none;marker-start:none;marker-mid:none;marker-end:none" />
</svg>
