<?xml version="1.0" encoding="UTF-8" standalone="no"?>
<svg
   width="2002.8369"
   height="1000"
   version="1.1"
   id="svg1"
   sodipodi:docname="13B75.svg"
   inkscape:version="1.4.3 (0d15f75, 2025-12-25)"
   xmlns:inkscape="http://www.inkscape.org/namespaces/inkscape"
   xmlns:sodipodi="http://sodipodi.sourceforge.net/DTD/sodipodi-0.dtd"
   xmlns="http://www.w3.org/2000/svg"
   xmlns:svg="http://www.w3.org/2000/svg">
  <defs
     id="defs1" />
  <sodipodi:namedview
     id="namedview1"
     pagecolor="#ffffff"
     bordercolor="#666666"
     borderopacity="1.0"
     inkscape:showpageshadow="2"
     inkscape:pageopacity="0.0"
     inkscape:pagecheckerboard="0"
     inkscape:deskcolor="#d1d1d1"
     showguides="true"
     inkscape:zoom="0.16363988"
     inkscape:cx="3.0554899"
     inkscape:cy="504.15583"
     inkscape:window-width="1680"
     inkscape:window-height="998"
     inkscape:window-x="-8"
     inkscape:window-y="-8"
     inkscape:window-maximized="1"
     inkscape:current-layer="svg1">
    <sodipodi:guide
       position="1001.4185,587.23403"
       orientation="1,0"
       id="guide1"
       inkscape:locked="false" />
  </sodipodi:namedview>
  <path
     id="path1"
     style="fill:#000000;stroke:none;stroke-width:1"
     d="M 492.19922 0 L 492.19922 24.113281 C 492.19922 59.101465 485.57859 87.471316 472.33984 109.2207 C 455.31852 146.10013 403.78245 177.77832 317.73047 204.25586 C 296.92666 200.47337 282.50656 201.89037 274.46875 208.50977 C 266.43094 215.12912 255.08299 215.36727 240.42578 209.2207 C 225.76853 203.07414 215.60342 203.31029 209.92969 209.92969 C 95.508874 169.26773 39.71587 105.90945 42.552734 19.857422 C 36.879006 7.5642952 30.260332 3.3092638 22.695312 7.0917969 C 7.565275 19.384924 0 40.189499 0 69.503906 C 0 97.872691 11.347911 134.04201 34.042969 178.01367 C 56.737979 221.98529 102.12776 257.20996 170.21289 283.6875 C 167.37598 300.70878 166.66748 314.42038 168.08594 324.82227 C 169.5044 335.22419 159.81163 370.68502 139.00781 431.20508 C 121.98658 445.3895 113.47461 460.52004 113.47461 476.5957 C 113.47461 493.61694 116.78495 504.96485 123.4043 510.63867 C 123.4043 525.76867 158.86512 533.33398 229.78711 533.33398 C 244.91715 532.38836 257.20976 521.98515 266.66602 502.12695 C 278.95919 518.20261 297.40007 532.15036 321.98633 543.9707 C 346.57263 555.79104 380.85061 595.50876 424.82227 663.12109 C 468.79388 730.73334 517.2578 778.72296 570.21289 807.0918 L 557.44727 824.11328 C 472.34086 845.86267 418.71167 850.49779 398.85352 857.11719 C 259.18872 879.9207 140.79183 895.88179 0 893.96484 C 13.304587 923.41691 37.893289 958.76174 73.767578 1000 C 92.763335 1000.6489 108.41067 986.35394 120.70703 957.11719 C 134.25929 990.34365 149.31666 995.98836 165.88281 974.05273 C 221.19824 950.52177 260.01748 935.79167 316.09961 931.16406 C 350.29908 928.34193 380.31416 918.28209 393.93359 917.98242 C 408.95086 916.40022 493.6179 920.33128 550.35547 917.02148 C 607.09309 913.71174 648.46404 908.51016 674.46875 901.41797 C 700.4735 894.32578 722.45887 881.79698 740.42578 863.83008 L 743.26172 834.04297 C 828.83569 857.3381 914.88791 868.92096 1001.418 868.79297 C 1087.9481 868.92096 1174.0002 857.3381 1259.5742 834.04297 L 1262.4102 863.83008 C 1280.3771 881.79698 1302.3625 894.32578 1328.3672 901.41797 C 1354.372 908.51016 1395.7429 913.71174 1452.4805 917.02148 C 1509.2181 920.33128 1593.885 916.40022 1608.9023 917.98242 C 1622.5217 918.28209 1652.5368 928.34193 1686.7363 931.16406 C 1742.8184 935.79167 1781.6377 950.52177 1836.9531 974.05273 C 1853.5192 995.98836 1868.5767 990.34365 1882.1289 957.11719 C 1894.4253 986.35394 1910.0727 1000.6489 1929.0684 1000 C 1964.9427 958.76174 1989.5313 923.41691 2002.8359 893.96484 C 1862.0441 895.88179 1743.6472 879.9207 1603.9824 857.11719 C 1584.1243 850.49779 1530.4951 845.86267 1445.3887 824.11328 L 1432.623 807.0918 C 1485.5781 778.72296 1534.0421 730.73334 1578.0137 663.12109 C 1621.9854 595.50876 1656.2633 555.79104 1680.8496 543.9707 C 1705.4358 532.15036 1723.8767 518.20261 1736.1699 502.12695 C 1745.6261 521.98515 1757.9187 532.38836 1773.0488 533.33398 C 1843.9708 533.33398 1879.4316 525.76867 1879.4316 510.63867 C 1886.051 504.96485 1889.3613 493.61694 1889.3613 476.5957 C 1889.3613 460.52004 1880.8493 445.3895 1863.8281 431.20508 C 1843.0243 370.68502 1833.3315 335.22419 1834.75 324.82227 C 1836.1684 314.42038 1835.4599 300.70878 1832.623 283.6875 C 1900.7081 257.20996 1946.098 221.98529 1968.793 178.01367 C 1991.4881 134.04201 2002.8359 97.872691 2002.8359 69.503906 C 2002.8359 40.189499 1995.2706 19.384924 1980.1406 7.0917969 C 1972.5756 3.3092638 1965.9569 7.5642952 1960.2832 19.857422 C 1963.12 105.90945 1907.3271 169.26773 1792.9062 209.92969 C 1787.2326 203.31029 1777.0675 203.07414 1762.4102 209.2207 C 1747.753 215.36727 1736.4051 215.12912 1728.3672 208.50977 C 1720.3294 201.89037 1705.9093 200.47337 1685.1055 204.25586 C 1599.0536 177.77832 1547.5174 146.10013 1530.4961 109.2207 C 1517.2573 87.471316 1510.6367 59.101465 1510.6367 24.113281 L 1510.6367 0 L 1490.7793 0 C 1482.2686 0 1474.7034 23.168218 1468.084 69.503906 C 1468.084 109.22024 1489.3609 154.13769 1531.9141 204.25586 L 1513.4746 198.58203 L 1512.0566 239.7168 C 1475.1772 258.62932 1399.7625 292.19881 1285.8145 340.42578 C 1171.8665 388.65271 1077.0682 412.76562 1001.418 412.76562 C 925.76782 412.76562 830.96951 388.65271 717.02148 340.42578 C 603.0735 292.19881 527.65872 258.62932 490.7793 239.7168 L 489.36133 198.58203 L 470.92188 204.25586 C 513.47507 154.13769 534.75195 109.22024 534.75195 69.503906 C 528.13255 23.168218 520.56728 0 512.05664 0 L 492.19922 0 z M 462.41211 226.95117 C 454.8471 275.17811 441.13549 299.52717 421.27734 300 C 401.41915 300.47279 383.45061 300.23664 367.375 299.29102 C 356.97307 299.29102 349.40975 303.07365 344.68164 310.63867 L 334.75195 296.45312 L 344.68164 289.36133 C 346.57289 270.44881 385.81635 249.64623 462.41211 226.95117 z M 1540.4238 226.95117 C 1617.0195 249.64623 1656.263 270.44881 1658.1543 289.36133 L 1668.084 296.45312 L 1658.1543 310.63867 C 1653.4262 303.07365 1645.8628 299.29102 1635.4609 299.29102 C 1619.3853 300.23664 1601.4168 300.47279 1581.5586 300 C 1561.7004 299.52717 1547.9888 275.17811 1540.4238 226.95117 z M 296.45312 231.20508 C 309.69194 241.60696 316.78485 257.68415 317.73047 279.43359 L 309.2207 285.10547 L 326.24023 313.47461 C 335.69649 325.76778 345.62741 328.60573 356.0293 321.98633 C 366.43118 315.36698 381.79597 313.94798 402.12695 317.73047 C 422.45788 321.51296 439.00747 320.56826 451.77344 314.89453 C 464.5394 309.22076 476.12346 298.34519 486.52539 282.26953 C 519.62228 295.50832 596.4541 327.65886 717.02148 378.72266 C 837.17936 429.61306 931.97765 455.14551 1001.418 455.31836 C 1070.8583 455.14551 1165.6566 429.61306 1285.8145 378.72266 C 1406.3819 327.65886 1483.2136 295.50832 1516.3105 282.26953 C 1526.7124 298.34519 1538.2965 309.22076 1551.0625 314.89453 C 1563.8284 320.56826 1580.378 321.51296 1600.709 317.73047 C 1621.0399 313.94798 1636.4047 315.36698 1646.8066 321.98633 C 1657.2085 328.60573 1667.1394 325.76778 1676.5957 313.47461 L 1693.6152 285.10547 L 1685.1055 279.43359 C 1686.0512 257.68415 1693.144 241.60696 1706.3828 231.20508 C 1727.1865 241.60696 1747.9893 243.02591 1768.793 235.46094 C 1773.5212 255.31908 1779.6674 270.92202 1787.2324 282.26953 C 1758.8636 275.65013 1728.1322 279.43277 1695.0352 293.61719 L 1695.0352 302.12695 C 1730.0234 289.83378 1765.4842 288.41678 1801.418 297.87305 C 1803.3093 330.96999 1814.6571 377.77873 1835.4609 438.29883 C 1817.494 448.70071 1809.9287 459.81052 1812.7656 471.63086 C 1815.6025 483.4512 1821.985 490.07183 1831.9141 491.49023 C 1841.8432 492.90869 1847.281 489.83454 1848.2266 482.26953 C 1849.1723 474.70451 1847.9893 469.73908 1844.6797 467.375 C 1841.37 465.01097 1841.1338 462.41109 1843.9707 459.57422 C 1846.8075 456.73731 1852.0092 460.51999 1859.5742 470.92188 C 1859.5742 487.94315 1847.2797 499.76341 1822.6934 506.38281 C 1804.7265 499.76341 1791.0149 499.76341 1781.5586 506.38281 C 1761.7004 506.38281 1750.8268 487.94388 1748.9355 451.06445 L 1736.1699 448.22656 C 1711.5836 483.21475 1686.2879 504.96397 1660.2832 513.47461 C 1634.2784 521.9852 1603.7812 552.71869 1568.793 605.67383 C 1533.8048 658.62887 1505.9093 694.08969 1485.1055 712.05664 C 1486.0512 635.46087 1470.9205 571.6322 1439.7148 520.56836 L 1421.2754 526.24023 C 1447.7529 581.08656 1460.9922 629.31425 1460.9922 670.92188 C 1460.9922 711.58373 1438.7706 754.60989 1394.3262 800 C 1395.2719 858.62887 1378.2499 883.21608 1343.2617 873.75977 C 1308.2735 864.30355 1288.888 838.77169 1285.1055 797.16406 C 1281.323 755.55653 1278.4869 720.09375 1276.5957 690.7793 L 1245.3887 658.15625 L 1255.3184 794.32617 C 1171.1629 813.81981 1086.5297 823.5132 1001.418 823.4043 C 916.30624 823.5132 831.67306 813.81981 747.51758 794.32617 L 757.44727 658.15625 L 726.24023 690.7793 C 724.34899 720.09375 721.51296 755.55653 717.73047 797.16406 C 713.94798 838.77169 694.5624 864.30355 659.57422 873.75977 C 624.58599 883.21608 607.56415 858.62887 608.50977 800 C 564.06537 754.60989 541.84375 711.58373 541.84375 670.92188 C 541.84375 629.31425 555.083 581.08656 581.56055 526.24023 L 563.12109 520.56836 C 531.91544 571.6322 516.78485 635.46087 517.73047 712.05664 C 496.9267 694.08969 469.0312 658.62887 434.04297 605.67383 C 399.05483 552.71869 368.55749 521.9852 342.55273 513.47461 C 316.54802 504.96397 291.25232 483.21475 266.66602 448.22656 L 253.90039 451.06445 C 252.00915 487.94388 241.13549 506.38281 221.27734 506.38281 C 211.82104 499.76341 198.10948 499.76341 180.14258 506.38281 C 155.55632 499.76341 143.26172 487.94315 143.26172 470.92188 C 150.82674 460.51999 156.02837 456.73731 158.86523 459.57422 C 161.7021 462.41109 161.46595 465.01097 158.15625 467.375 C 154.8466 469.73908 153.66375 474.70451 154.60938 482.26953 C 155.55498 489.83454 160.99282 492.90869 170.92188 491.49023 C 180.85097 490.07183 187.23345 483.4512 190.07031 471.63086 C 192.90723 459.81052 185.34191 448.70071 167.375 438.29883 C 188.17877 377.77873 199.52672 330.96999 201.41797 297.87305 C 237.35178 288.41678 272.8126 289.83378 307.80078 302.12695 L 307.80078 293.61719 C 274.70384 279.43277 243.9723 275.65013 215.60352 282.26953 C 223.16854 270.92202 229.31482 255.31908 234.04297 235.46094 C 254.84674 243.02591 275.64937 241.60696 296.45312 231.20508 z M 1676.5957 313.47461 C 1702.1276 331.44156 1727.1852 343.26181 1751.7715 348.93555 C 1735.6958 374.46747 1728.6048 398.58228 1730.4961 421.27734 L 1737.5879 421.27734 C 1737.5879 403.31044 1742.7895 388.41604 1753.1914 376.5957 C 1763.5933 364.77536 1771.8671 353.6636 1778.0137 343.26172 C 1784.1603 332.85979 1788.179 320.56718 1790.0703 306.38281 C 1763.5927 302.60028 1725.7683 304.96397 1676.5957 313.47461 z M 326.24023 313.47461 C 277.06763 304.96397 239.24316 302.60028 212.76562 306.38281 C 214.65687 320.56718 218.6757 332.85979 224.82227 343.26172 C 230.96887 353.6636 239.24264 364.77536 249.64453 376.5957 C 260.04641 388.41604 265.24805 403.31044 265.24805 421.27734 L 272.33984 421.27734 C 274.23114 398.58228 267.14011 374.46747 251.06445 348.93555 C 275.65075 343.26181 300.70831 331.44156 326.24023 313.47461 z M 451.06445 243.9707 C 438.77127 245.86194 424.82352 250.11888 409.2207 256.73828 C 393.61788 263.35767 376.83214 273.75894 358.86523 287.94336 C 359.81086 290.78023 367.61233 292.19922 382.26953 292.19922 C 396.92674 292.19922 408.51084 291.96302 417.02148 291.49023 C 425.53212 291.01739 431.9146 287.9433 436.16992 282.26953 C 440.42524 276.5958 443.02508 272.10462 443.9707 268.79492 C 444.91638 265.48522 442.08034 267.61271 435.46094 275.17773 C 428.84154 282.74271 419.62112 286.05105 407.80078 285.10547 C 395.98045 284.1598 393.61676 280.37911 400.70898 273.75977 C 407.80117 267.14037 424.58691 257.2095 451.06445 243.9707 z M 1551.7715 243.9707 C 1578.249 257.2095 1595.0348 267.14037 1602.127 273.75977 C 1609.2192 280.37911 1606.8555 284.1598 1595.0352 285.10547 C 1583.2149 286.05105 1573.9944 282.74271 1567.375 275.17773 C 1560.7556 267.61271 1557.9195 265.48522 1558.8652 268.79492 C 1559.8108 272.10462 1562.4107 276.5958 1566.666 282.26953 C 1570.9213 287.9433 1577.3039 291.01739 1585.8145 291.49023 C 1594.3252 291.96302 1605.9092 292.19922 1620.5664 292.19922 C 1635.2236 292.19922 1643.025 290.78023 1643.9707 287.94336 C 1626.0038 273.75894 1609.218 263.35767 1593.6152 256.73828 C 1578.0124 250.11888 1564.0646 245.86194 1551.7715 243.9707 z M 234.04297 320.56641 L 282.26953 321.98633 L 243.9707 336.16992 L 234.04297 320.56641 z M 1768.793 320.56641 L 1758.8652 336.16992 L 1720.5664 321.98633 L 1768.793 320.56641 z " />
</svg>
