<?xml version="1.0" encoding="UTF-8" standalone="no"?>
<svg
   width="1814.0156"
   height="1807.166"
   version="1.1"
   id="svg2"
   sodipodi:docname="13B83.svg"
   inkscape:version="1.4.3 (0d15f75, 2025-12-25)"
   xmlns:inkscape="http://www.inkscape.org/namespaces/inkscape"
   xmlns:sodipodi="http://sodipodi.sourceforge.net/DTD/sodipodi-0.dtd"
   xmlns="http://www.w3.org/2000/svg"
   xmlns:svg="http://www.w3.org/2000/svg"
   xmlns:rdf="http://www.w3.org/1999/02/22-rdf-syntax-ns#"
   xmlns:cc="http://creativecommons.org/ns#"
   xmlns:dc="http://purl.org/dc/elements/1.1/">
  <title
     id="title2">Q47</title>
  <defs
     id="defs2" />
  <sodipodi:namedview
     id="namedview2"
     pagecolor="#ffffff"
     bordercolor="#000000"
     borderopacity="0.25"
     inkscape:showpageshadow="2"
     inkscape:pageopacity="0.0"
     inkscape:pagecheckerboard="0"
     inkscape:deskcolor="#d1d1d1"
     inkscape:zoom="0.51068824"
     inkscape:cx="999.6314"
     inkscape:cy="1121.0362"
     inkscape:window-width="1680"
     inkscape:window-height="998"
     inkscape:window-x="-8"
     inkscape:window-y="-8"
     inkscape:window-maximized="1"
     inkscape:current-layer="svg2"
     showguides="true">
    <sodipodi:guide
       position="890.08194,1104.0467"
       orientation="-1,0"
       id="guide1"
       inkscape:locked="false"
       inkscape:label=""
       inkscape:color="rgb(0,134,229)" />
    <sodipodi:guide
       position="1075.0199,0"
       orientation="0,-1"
       id="guide3"
       inkscape:locked="false" />
    <sodipodi:guide
       position="968.08044,1207.9366"
       orientation="-1,0"
       id="guide5"
       inkscape:label=""
       inkscape:locked="false"
       inkscape:color="rgb(0,134,229)" />
    <sodipodi:guide
       position="693.9375,1137.4824"
       orientation="0,-1"
       id="guide6"
       inkscape:locked="false" />
    <sodipodi:guide
       position="890.08194,1142.7568"
       orientation="0,-1"
       id="guide7"
       inkscape:locked="false" />
    <sodipodi:guide
       position="911.97352,1142.7568"
       orientation="1,0"
       id="guide8"
       inkscape:locked="false" />
    <sodipodi:guide
       position="933.97352,1142.7568"
       orientation="-1,0"
       id="guide9"
       inkscape:label=""
       inkscape:locked="false"
       inkscape:color="rgb(0,134,229)" />
    <sodipodi:guide
       position="1024.2837,1158.7491"
       orientation="1,0"
       id="guide10"
       inkscape:locked="false" />
    <sodipodi:guide
       position="1002.2832,495.211"
       orientation="-1,0"
       id="guide11"
       inkscape:label=""
       inkscape:locked="false"
       inkscape:color="rgb(0,134,229)" />
    <sodipodi:guide
       position="1075.0199,22"
       orientation="0,1"
       id="guide12"
       inkscape:label=""
       inkscape:locked="false"
       inkscape:color="rgb(0,134,229)" />
    <sodipodi:guide
       position="588.98309,1122.7474"
       orientation="1,0"
       id="guide2"
       inkscape:locked="false" />
    <sodipodi:guide
       position="1814.0156,1807.166"
       orientation="0,-1"
       id="guide4"
       inkscape:locked="false" />
    <sodipodi:guide
       position="2072.5488,305.89062"
       orientation="1,0"
       id="guide13"
       inkscape:locked="false" />
    <sodipodi:guide
       position="891.44406,364.0155"
       orientation="0,-1"
       id="guide14"
       inkscape:locked="false" />
  </sodipodi:namedview>
  <path
     id="path1"
     style="fill:#000000;stroke:none;stroke-width:100"
     d="m 1123.3906,0 c -9.2987,0 -19.5625,0.53791103 -30.8965,1.5742188 -41.1855,3.765763 -62.0761,36.3103472 -62.0761,96.5625002 0,178.604551 -40.65412,265.552731 -120.70511,265.552731 -81.21098,0 -120.70703,-86.94818 -120.70703,-265.552731 0,-60.252153 -20.88871,-92.7967372 -62.07422,-96.5625002 -10.10575,-0.9240627 -20.05595,-1.36328131 -29.29883,-1.3632813 -9.59105,0 -18.42187,0.47289825 -25.88086,1.3632813 -14.647,1.7484032 -25.78507,4.966041 -34.48633,10.3457032 -17.40237,10.759325 -26.43154,23.948427 -27.59179,37.935547 5.16127,5.982828 11.99963,8.875 20.04492,8.875 6.42247,0 13.61632,-1.843416 21.3418,-5.425781 14.80456,-6.864844 28.8648,-10.705081 41.66211,-10.705079 2.2456,0 4.45456,0.118387 6.61914,0.359375 14.50215,1.613898 21.27158,20.969321 20.6914,58.626956 -0.58028,37.65759 0,81.33847 0,127.60351 0,47.34101 22.56838,107.68747 68.97461,186.23047 -22.04281,10.7594 -33.29477,30.65274 -37.93554,58.62696 l -106.91016,79.32031 c -32.48448,13.98711 -47.12306,35.3993 -48.2832,65.52539 -1.16057,30.12602 -4.57655,52.61418 -6.89649,65.52539 -2.32017,12.91113 7.83372,21.13418 31.03711,27.58984 16.15092,10.98413 30.44746,17.35938 42.1582,17.35938 0.90864,0 1.80063,-0.0376 2.67774,-0.11524 2.42176,-0.2135 4.80509,-0.3125 7.16015,-0.3125 9.49483,0 18.49552,1.60654 27.32618,3.76172 1.43977,0.35146 2.97001,0.52344 4.58398,0.52344 10.74068,0 25.11865,-7.65335 40.24805,-21.2168 9.37876,-8.40759 33.98041,-11.61718 69.3164,-11.61719 13.37409,0 28.28575,0.45736 44.49219,1.26954 l 31.99024,1.45312 v 748.22462 c -45.86665,32.8178 -68.80068,79.651 -68.80078,140.498 H 709.48242 v 74.459 h 116.12891 c 9.26766,71.1771 35.81184,140.8711 104.23242,140.8711 -17.41434,-47.3929 -28.61223,-93.4022 -34.13672,-140.8711 h 144.74807 c -5.5245,47.4689 -16.7244,93.4782 -34.1387,140.8711 68.4206,0 94.9648,-69.694 104.2324,-140.8711 h 116.1289 v -74.459 h -111.6894 c -10e-5,-60.805 -22.9017,-107.6151 -68.7051,-140.4297 V 661.28906 c 24.6595,-29.61864 35.8652,-64.68421 35.8652,-104.47265 0,-40.88537 15.7969,-77.86006 48.2813,-106.91016 32.4846,-29.05017 47.7013,-57.92605 48.2812,-89.66602 0.5803,-31.74002 1.1596,-60.17502 0,-82.76953 l -137.9472,100.01368 c 39.4454,-51.64466 62.0762,-102.02994 62.0761,-148.29493 0,-47.34095 -2.2867,-90.48384 -3.4472,-127.60351 -1.1606,-37.119615 5.6096,-56.475091 20.6914,-58.626956 2.7405,-0.390982 5.5039,-0.583984 8.2969,-0.583984 12.5787,0 25.7438,3.886072 39.9843,10.929688 7.6369,3.777177 14.7528,5.648437 21.1192,5.648437 8.1417,0 15.0592,-3.059779 20.2676,-9.097656 -1.1607,-13.987128 -13.0586,-26.638257 -31.0411,-37.935547 C 1165.677,3.7315547 1147.8814,0 1123.3906,0 Z m 24.2832,342.99609 c 0,32.27794 -14.6697,60.39633 -44.834,86.21875 -30.1643,25.82234 -65.1756,46.79169 -103.46089,58.62696 l 6.89649,27.59179 34.4883,-13.79687 v 44.83398 c 0,48.38618 -12.677,81.65604 -38.4805,100.09375 v 1.85157 44.01562 750.71876 H 933.97266 V 664.41016 h -0.0957 v -0.6836 c -0.008,2e-4 -0.0156,-2e-4 -0.0234,0 -14.91634,0.36021 -29.47868,0.6836 -43.77149,0.6836 -10.8437,0 -21.53116,-0.18653 -32.09961,-0.6836 -32.29474,-1.51948 -63.83404,-2.27596 -93.11719,-6.89844 -20.33458,13.25181 -46.29668,41.6543 -62.85742,41.6543 -0.91981,0 -1.80762,-0.0877 -2.66601,-0.26953 -2.24232,0.5792 -4.46927,0.8418 -6.6875,0.8418 -5.81382,0 -11.5746,-1.78723 -17.45313,-4.28907 20.8829,-25.8224 36.71086,-39.23292 44.83203,-41.38476 8.12063,-2.15189 13.79492,-7.33929 13.79492,-13.79492 -0.21897,-1.58441 -1.30802,-2.37696 -3.24804,-2.37696 -8.59821,0 -33.81257,15.60539 -72.62305,47.20899 l -17.24414,-3.44727 c -6.96136,-12.9112 -9.79682,-26.32172 -6.89648,-41.38476 2.90034,-15.06305 10.24952,-23.82411 20.6914,-27.58985 2.549,-0.91862 4.50822,-1.40039 5.9043,-1.40039 4.32358,0 3.24487,4.62205 -2.45508,15.19532 -6.36017,11.79702 -4.94726,17.875 4.35156,17.875 1.72674,0 3.72347,-0.20932 5.99414,-0.63086 14.50204,-2.68979 21.82025,-10.91286 24.14063,-27.58985 2.32017,-16.6769 -1.06111,-30.40403 -10.3457,-37.93554 34.80475,-33.35388 69.81631,-53.69207 103.46093,-65.52735 4.6412,-30.12602 31.20703,-54.66905 75.87305,-72.42187 27.84153,-11.06582 47.30818,-16.95313 59.14844,-16.95313 7.15506,0 11.52546,2.14938 13.27344,6.60742 4.64011,11.83523 14.79486,17.24414 31.0371,17.24414 17.40252,0 39.45498,-4.11159 62.07818,-13.79492 22.6229,-9.68347 62.695,-39.09726 120.7031,-89.66601 z M 826.94141,474.04688 c -16.24235,19.36678 -17.88627,32.77923 -10.34571,41.38671 5.13948,5.86615 10.68577,8.9375 18.47071,8.9375 3.6384,0 7.76685,-0.67238 12.57031,-2.04297 10.22302,-2.91719 25.98733,-4.94533 45.5625,-4.94531 9.30431,0 19.46731,0.45642 30.30664,1.4961 -17.40227,-26.89834 -35.48628,-39.7689 -51.72852,-41.38282 -16.24213,-1.61387 -32.07431,-2.37331 -44.83593,-3.44921 z M 968.08008,1501.2754 c 50.42432,0 75.91362,30.2043 76.46482,90.5605 H 891.61719 c 0.55121,-60.3562 26.03859,-90.5605 76.46289,-90.5605 z"
     sodipodi:nodetypes="ssssssssscscscssccccccscssscscccccccccccccccccsscccsssssscsscscccscccccccccsccscscscsccscscsccccsscscscccscscscsccs" />
  <metadata
     id="metadata2">
    <rdf:RDF>
      <cc:Work
         rdf:about="">
        <dc:title>Q47</dc:title>
        <dc:creator>
          <cc:Agent>
            <dc:title>Serge J. Paul THOMAS</dc:title>
          </cc:Agent>
        </dc:creator>
        <dc:description>Modified by S. Rosmorduc to match Hieroglyphica. Head of F11A instead of F1.
</dc:description>
      </cc:Work>
    </rdf:RDF>
  </metadata>
</svg>
