<?xml version="1.0" encoding="UTF-8" standalone="no"?>
<svg
   width="993.73987"
   height="1000"
   version="1.1"
   id="svg1"
   sodipodi:docname="13C95.svg"
   inkscape:version="1.4.3 (0d15f75, 2025-12-25)"
   xmlns:inkscape="http://www.inkscape.org/namespaces/inkscape"
   xmlns:sodipodi="http://sodipodi.sourceforge.net/DTD/sodipodi-0.dtd"
   xmlns="http://www.w3.org/2000/svg"
   xmlns:svg="http://www.w3.org/2000/svg"
   xmlns:rdf="http://www.w3.org/1999/02/22-rdf-syntax-ns#"
   xmlns:cc="http://creativecommons.org/ns#"
   xmlns:dc="http://purl.org/dc/elements/1.1/">
  <title
     id="title2">G129D</title>
  <defs
     id="defs1" />
  <sodipodi:namedview
     id="namedview1"
     pagecolor="#ffffff"
     bordercolor="#000000"
     borderopacity="0.25"
     inkscape:showpageshadow="2"
     inkscape:pageopacity="0.0"
     inkscape:pagecheckerboard="0"
     inkscape:deskcolor="#d1d1d1"
     inkscape:zoom="0.39101512"
     inkscape:cx="75.444653"
     inkscape:cy="666.21465"
     inkscape:window-width="1680"
     inkscape:window-height="998"
     inkscape:window-x="-8"
     inkscape:window-y="-8"
     inkscape:window-maximized="1"
     inkscape:current-layer="svg1"
     showguides="true">
    <sodipodi:guide
       position="787.61719,79.319489"
       orientation="1,0"
       id="guide1"
       inkscape:locked="false" />
  </sodipodi:namedview>
  <path
     id="path1"
     style="fill:#000000;stroke:none;stroke-width:63.8022"
     d="M 2.9609375,0 0,1000 H 993.74023 L 990.77734,0 H 496.86914 Z M 36.435547,33.574219 H 496.86914 957.30273 l 2.76172,932.851561 H 787.61719 V 714.16602 c 3.43008,3.6327 6.81875,7.31085 10.26367,10.92773 23.25105,3.81506 47.52385,-6.56376 71.15625,-8.40625 16.25893,-4.82229 36.83153,-1.23055 49.66211,-13.17188 6.43165,-20.39955 -19.91542,-32.00127 -29.5332,-47.28124 -8.85592,-10.4644 -36.77586,-37.73993 -32.85352,-36.89649 28.26678,16.4733 55.53215,35.19998 85.61719,48.21875 17.0877,-4.56954 -12.14245,-20.98821 -18.16797,-26.80469 -5.60155,-6.62106 -29.63663,-15.39002 -10.21289,-16.04101 22.68438,-17.82197 -11.12391,-35.32401 -25.13477,-44.06836 C 837.19683,544.20977 785.63599,508.19777 734.21289,472.03125 684.03461,401.00682 636.29886,328.14895 581.54102,260.48633 554.47013,223.52432 528.36665,181.23646 484.42578,162.66797 480.0027,130.89161 462.15406,98.518568 430.63672,87.03125 c -18.17905,-7.371724 -38.06409,-9.425786 -57.53516,-9.240234 -33.56882,0.07673 -73.18654,9.20153 -90.5625,41.048824 -10.74382,13.78509 2.11258,22.22546 15.63672,17.16993 18.7648,2.91654 22.10386,31.75742 20.94727,47.59961 -9.00395,41.02877 -3.45706,85.66569 19.01172,121.58398 7.13963,16.52536 24.12922,28.43252 26.58398,46.25 19.61886,63.79846 38.01736,128.79904 42.85742,195.64062 0.70174,12.89957 -4.52305,31.28741 10.82813,36.09571 -10.36458,34.3815 -20.72917,68.76304 -31.09375,103.14453 -24.55667,-4.47893 -49.4873,3.18066 -74.00196,-1.2168 -11.08256,0.95103 -23.69989,3.57801 -33.84375,9.41602 H 206.12305 V 966.42578 H 33.673828 Z M 370.00391,100.96875 c 0.7814,0.004 1.86086,0.14101 3.3125,0.4375 19.34483,-0.0133 39.14199,4.59416 55.24609,15.64648 0.18044,18.07432 -17.69132,29.20142 -33.70898,32.04493 -8.89283,-0.47499 -30.50391,9.04393 -11.04102,12.19726 22.00093,3.966 47.34653,6.25996 65.10547,-10.33203 11.29197,-0.15391 2.95302,37.05952 24.41211,36.68945 35.8699,16.68543 57.09748,52.30192 80.51562,82.38086 36.84352,46.59102 72.39777,94.19627 105.87305,143.28125 24.8767,35.79805 49.58289,71.72968 75.625,106.69727 C 666.11078,486.20991 597.04742,452.05698 528.38281,417.12109 484.48576,394.40993 442.88512,366.77468 407.9707,331.57227 c -18.10616,-18.25715 -35.57596,-39.09719 -42.63672,-64.28516 1.90119,-25.2883 21.07943,-44.61085 35.87696,-63.70703 6.4982,-7.78539 33.1215,-33.48698 9.13672,-31.28906 -26.29806,10.2493 -45.99437,33.03335 -60.65625,56.49023 -4.33807,9.51996 -6.90271,13.8156 -6.45703,0.7793 -1.44822,-17.70352 1.79234,-35.29258 5.30664,-52.44336 -0.87996,-19.92082 -10.67483,-37.93485 -16.38868,-56.67774 -7.05748,-7.59755 12.49146,-16.78426 7.51563,-2.3457 3.64362,20.60895 35.02279,13.99617 32.10351,-5.86914 1.88625,-4.72946 -7.23738,-11.28132 -1.76757,-11.25586 z m 69.16406,315.79883 c 0.57337,0.45528 1.14734,0.91194 1.7207,1.36719 38.1045,30.07301 79.3378,55.79693 120.13672,81.98437 -0.63802,28.65685 -0.34071,57.46787 2.07813,85.97461 -14.00865,-10.49489 -30.18831,-18.58132 -47.41797,-21.90039 -28.93936,-47.14437 -63.88552,-92.44875 -76.51758,-147.42578 z m -18.44336,34.62695 0.38281,1.0957 c 15.90243,44.66008 44.19956,83.18434 69.04492,123.08985 -10.75613,9.11192 -17.73868,16.21726 -26.40039,1.43945 -10.57121,-12.88441 -34.71906,-13.1886 -28.61328,-33.88867 -1.54411,-30.9859 -7.76765,-61.50689 -14.41406,-91.73633 z m 126.77148,6.57813 2.00977,1.00586 2.00781,1.00586 c 74.05847,36.62029 147.75824,73.96984 222.30078,109.60937 33.52296,40.44792 69.9026,78.38513 105.36524,117.10742 -22.96298,3.86229 -45.92569,7.72365 -68.88867,11.58594 C 758.97643,642.82899 708.1984,586.81736 656.50195,531.74805 621.45564,505.30147 584.32315,481.81888 547.49609,457.97266 Z m 41.34766,60.44531 c 23.59803,16.30589 49.33486,30.57824 67.35156,53.45117 37.82529,40.70455 75.08717,82.0121 112.97071,122.6543 H 610.33789 c -9.81188,-4.25556 -20.45207,-6.2236 -31.03711,-4.41602 -12.63798,0.22752 -33.42933,3.53522 -42.0039,-1.68945 -1.65201,-29.76356 -3.30308,-59.52746 -4.95508,-89.29102 17.43704,7.82687 29.79144,22.81635 42.83203,36.07813 28.70162,9.3076 19.35139,-28.14235 16.57812,-43.91016 -2.62526,-24.19251 -3.09929,-48.56206 -2.9082,-72.87695 z m -139.53906,83.0918 0.65039,0.6914 c 7.83272,15.31327 26.15614,30.33873 39.45117,10.63477 14.12775,-20.33862 7.71262,13.8047 10.33203,23.91601 0.98863,18.1101 1.97818,36.22 2.9668,54.33008 -21.98217,-4.95933 -41.13702,7.36888 -61.8457,-0.37305 -10.2224,-0.48246 -24.18749,2.95928 -15.07032,-11.38671 7.83903,-25.93743 15.67659,-51.87503 23.51563,-77.8125 z M 239.69727,728.09766 h 514.3457 v 238.32812 h -514.3457 z"
     sodipodi:nodetypes="ccccccccccccccccccccccccccccccccccccccccccccccccccccccccccccccccccccccccccccccccccccccccccccccccccccccccc" />
  <metadata
     id="metadata2">
    <rdf:RDF>
      <cc:Work
         rdf:about="">
        <dc:title>G129D</dc:title>
        <dc:creator>
          <cc:Agent>
            <dc:title>Serge Rosmorduc</dc:title>
          </cc:Agent>
        </dc:creator>
        <dc:description>Sign combination found in the latest version of the Hieroglyphica.</dc:description>
      </cc:Work>
    </rdf:RDF>
  </metadata>
</svg>
