<?xml version="1.0" encoding="UTF-8" standalone="no"?>
<svg
   width="1000"
   height="1000"
   version="1.1"
   id="svg1"
   sodipodi:docname="13D91.svg"
   inkscape:version="1.4.3 (0d15f75, 2025-12-25)"
   xmlns:inkscape="http://www.inkscape.org/namespaces/inkscape"
   xmlns:sodipodi="http://sodipodi.sourceforge.net/DTD/sodipodi-0.dtd"
   xmlns="http://www.w3.org/2000/svg"
   xmlns:svg="http://www.w3.org/2000/svg">
  <defs
     id="defs1" />
  <sodipodi:namedview
     id="namedview1"
     pagecolor="#ffffff"
     bordercolor="#666666"
     borderopacity="1.0"
     inkscape:showpageshadow="2"
     inkscape:pageopacity="0.0"
     inkscape:pagecheckerboard="0"
     inkscape:deskcolor="#d1d1d1"
     inkscape:zoom="0.3775"
     inkscape:cx="128.47682"
     inkscape:cy="446.35762"
     inkscape:window-width="1680"
     inkscape:window-height="998"
     inkscape:window-x="-8"
     inkscape:window-y="-8"
     inkscape:window-maximized="1"
     inkscape:current-layer="svg1" />
  <path
     id="path4"
     style="fill:#000000;stroke:none;stroke-width:1"
     d="M 134.95117 0.01953125 C 125.71827 -0.1951789 115.08872 1.4141079 103.06445 4.8496094 C 87.03214 9.4302777 72.908488 15.920461 60.693359 24.318359 C 46.951353 34.243135 40.463126 45.693308 41.226562 58.671875 C 40.463124 76.231111 48.096585 90.54725 64.128906 101.61719 C 80.161265 112.68716 100.01095 116.69442 123.67773 113.64062 C 91.613064 171.66245 74.627346 259.83988 72.71875 378.17383 C 70.810116 496.50777 67.946136 577.81593 64.128906 622.0957 C 21.376012 657.97761 0 699.77495 0 747.49023 C 0 795.20555 11.06908 827.07901 33.208984 843.11133 C 55.348889 859.14365 90.850495 867.16016 139.71094 867.16016 C 187.80798 867.16016 242.02254 858.19166 294.66602 837.68945 C 311.10317 831.28794 327.91854 822.31239 344.75781 813.99219 C 350.17175 826.57427 357.59635 836.28059 367.0293 843.11133 C 389.1692 859.14365 424.66886 867.16016 473.5293 867.16016 C 477.16224 867.16016 480.80922 867.10844 484.47266 867.00391 C 500.11687 923.99178 537.50423 968.32401 596.63281 1000 C 580.02988 938.52436 568.43825 891.02664 561.85742 857.50781 C 582.7405 853.08438 604.06603 847.13975 625.83594 839.67578 C 657.13715 870.21355 695.69136 885.48242 741.49805 885.48242 C 769.74554 885.48242 794.17607 874.41331 814.78906 852.27344 C 827.76763 916.4028 866.32178 965.64501 930.45117 1000 C 902.20368 895.4081 888.46117 831.27811 889.22461 807.61133 C 896.09563 729.73992 882.92667 679.35256 849.7168 656.44922 C 816.50696 633.54595 780.43375 622.47686 741.49805 623.24023 C 699.5086 623.24023 656.94712 633.73767 613.8125 654.73242 C 570.67785 675.72717 546.43786 677.25342 541.09375 659.3125 C 535.74964 641.37155 543.57556 604.53619 564.57031 548.80469 C 585.56502 493.07326 620.68358 423.79082 669.92578 340.95703 C 719.16797 258.12327 734.8179 186.9315 716.87695 127.38281 C 698.936 67.834118 668.77938 31.951457 626.4082 19.736328 C 584.03703 7.5212367 544.14711 5.6138573 506.73828 14.011719 C 498.34038 7.1407346 488.60704 2.7504305 477.53711 0.84179688 C 466.46718 -1.0667996 452.91517 0.26894077 436.88281 4.8496094 C 420.85049 9.4302777 406.72685 15.92046 394.51172 24.318359 C 380.76971 34.243135 374.28148 45.693308 375.04492 58.671875 C 374.28148 76.231111 381.91495 90.547255 397.94727 101.61719 C 413.97963 112.68716 433.82931 116.69442 457.49609 113.64062 C 425.43141 171.66243 408.4457 259.83988 406.53711 378.17383 C 404.62848 496.50778 401.7645 577.81593 397.94727 622.0957 C 397.3916 622.56206 396.83946 623.02774 396.29102 623.49609 C 357.9989 625.2206 319.23404 635.63334 279.99414 654.73242 C 236.85949 675.72717 212.6195 677.25342 207.27539 659.3125 C 201.93128 641.37155 209.75721 604.53619 230.75195 548.80469 C 251.74666 493.07326 286.86522 423.79082 336.10742 340.95703 C 385.34962 258.12327 400.99955 186.9315 383.05859 127.38281 C 365.11764 67.834162 334.96102 31.951457 292.58984 19.736328 C 250.21867 7.5212369 210.32875 5.6138568 172.91992 14.011719 C 164.52202 7.1407341 154.78868 2.7504305 143.71875 0.84179688 C 140.95127 0.36464776 138.02881 0.0911013 134.95117 0.01953125 z M 119.49023 26.876953 C 131.53835 27.175168 142.09621 30.903241 151.16211 38.060547 C 196.9688 29.662648 238.38504 31.760574 275.41211 44.357422 C 312.43918 56.95427 336.86974 89.7824 348.70312 142.8418 C 360.53654 195.90122 349.46745 248.57905 315.49414 300.875 C 281.52086 353.17099 253.08107 405.65823 230.17773 458.33594 C 191.24203 549.94931 171.77539 615.22449 171.77539 654.16016 C 171.77539 693.09582 183.79915 712.37195 207.84766 711.99023 C 231.89619 711.60851 261.28867 702.44682 296.02539 684.50586 C 316.86752 673.74125 338.60354 666.06913 361.23242 661.48828 C 348.15744 680.1885 339.75984 700.18333 336.03906 721.47266 C 320.0672 726.99377 303.86621 734.13891 287.4375 742.91016 C 242.39425 766.9587 198.49508 774.21103 155.74219 764.66797 C 112.98926 755.12492 94.284762 710.27301 99.628906 630.11133 C 101.91922 584.30464 104.01913 512.54127 105.92773 414.82031 C 107.83637 317.09939 116.61698 240.37212 132.26758 184.64062 C 147.91822 128.90917 169.86583 96.081025 198.11328 86.15625 C 213.38216 80.812143 240.48422 80.049956 279.41992 83.867188 C 287.81782 83.103712 288.58196 78.522862 281.71094 70.125 C 237.43113 58.67331 190.47935 64.780484 140.85547 88.447266 C 130.16722 91.501057 116.23416 92.836797 99.056641 92.455078 C 81.879161 92.073359 69.474304 80.81178 61.839844 58.671875 C 62.603282 45.693308 74.053455 36.150514 96.193359 30.042969 C 104.49582 27.752625 112.26137 26.698024 119.49023 26.876953 z M 453.31055 26.876953 C 465.35866 27.175168 475.91457 30.903241 484.98047 38.060547 C 530.78716 29.662648 572.2034 31.760574 609.23047 44.357422 C 646.25754 56.95427 670.68807 89.782406 682.52148 142.8418 C 694.35489 195.90123 683.28581 248.57905 649.3125 300.875 C 615.33922 353.17099 586.90139 405.65823 563.99805 458.33594 C 525.06234 549.94931 505.59375 615.22449 505.59375 654.16016 C 505.59375 693.09582 517.61751 712.37194 541.66602 711.99023 C 565.71455 711.60851 595.10703 702.44682 629.84375 684.50586 C 664.5805 666.56491 701.79894 657.21266 741.49805 656.44922 C 825.477 656.44922 865.17637 692.33188 860.5957 764.0957 C 829.29446 726.68688 792.84016 707.79185 751.23242 707.41016 C 709.62469 707.02844 666.29911 718.86169 621.25586 742.91016 C 576.21261 766.9587 532.31344 774.21103 489.56055 764.66797 C 446.80762 755.12492 428.10312 710.27302 433.44727 630.11133 C 435.73758 584.30464 437.83749 512.54126 439.74609 414.82031 C 441.65472 317.09939 450.43534 240.37212 466.08594 184.64062 C 481.73658 128.90915 503.68419 96.081025 531.93164 86.15625 C 547.20052 80.812143 574.30452 80.049958 613.24023 83.867188 C 621.63812 83.103713 622.40032 78.522862 615.5293 70.125 C 571.24949 58.67331 524.29771 64.780484 474.67383 88.447266 C 463.98558 91.501057 450.05251 92.836797 432.875 92.455078 C 415.69752 92.073359 403.29266 80.81178 395.6582 58.671875 C 396.42163 45.693308 407.87181 36.150514 430.01172 30.042969 C 438.31419 27.752625 446.08168 26.698024 453.31055 26.876953 z M 107.4668 34.203125 C 102.9577 34.006299 97.482584 34.910024 91.041016 36.914062 C 73.863536 42.25817 69.854288 52.374555 79.015625 67.261719 C 88.176962 82.148883 114.89796 81.194198 159.17773 64.398438 C 180.55419 56.000538 199.25869 47.221884 215.29102 38.060547 L 209.56641 36.914062 L 156.88867 57.527344 C 125.58743 68.215558 105.16415 72.796409 95.621094 71.269531 C 86.078037 69.742617 80.735001 65.352313 79.589844 58.099609 C 78.444648 50.846869 81.306713 45.313324 88.177734 41.496094 C 95.048719 37.678901 101.3464 37.295855 107.07227 40.349609 C 112.79809 43.403401 115.85265 47.029566 116.23438 51.228516 C 116.6161 55.427465 115.28036 59.817768 112.22656 64.398438 C 122.15138 61.344645 125.39644 54.663917 121.96094 44.357422 C 119.81374 37.915863 114.98196 34.531168 107.4668 34.203125 z M 441.28516 34.203125 C 436.77606 34.006299 431.30095 34.910022 424.85938 36.914062 C 407.68191 42.258169 403.67461 52.374555 412.83594 67.261719 C 421.99728 82.148883 448.71632 81.194198 492.99609 64.398438 C 514.37255 56.000539 533.07704 47.221884 549.10938 38.060547 L 543.38477 36.914062 L 490.70703 57.527344 C 459.40579 68.215559 438.98251 72.796408 429.43945 71.269531 C 419.8964 69.742617 414.55336 65.352313 413.4082 58.099609 C 412.26301 50.846868 415.12507 45.313324 421.99609 41.496094 C 428.86708 37.678901 435.16672 37.295855 440.89258 40.349609 C 446.61841 43.4034 449.67101 47.029567 450.05273 51.228516 C 450.43445 55.427465 449.09871 59.817768 446.04492 64.398438 C 455.96973 61.344647 459.21481 54.663917 455.7793 44.357422 C 453.6321 37.915863 448.80032 34.531168 441.28516 34.203125 z M 96.265625 40.851562 C 95.072743 40.899273 93.90298 41.114374 92.757812 41.496094 C 83.596475 46.840238 80.160857 52.56433 82.451172 58.671875 C 83.978049 63.252544 88.368353 66.307107 95.621094 67.833984 C 102.87383 69.360898 108.02827 66.879927 111.08203 60.390625 C 114.13582 53.90136 112.99059 48.746916 107.64648 44.929688 C 103.6384 42.066764 99.844271 40.708425 96.265625 40.851562 z M 430.08398 40.851562 C 428.8911 40.899275 427.72134 41.114374 426.57617 41.496094 C 417.41483 46.840239 413.98117 52.56433 416.27148 58.671875 C 417.79836 63.252544 422.18671 66.307107 429.43945 67.833984 C 436.69219 69.360898 441.84663 66.879927 444.90039 60.390625 C 447.95418 53.90136 446.80895 48.746918 441.46484 44.929688 C 437.45676 42.066765 433.66263 40.708425 430.08398 40.851562 z M 69.855469 661.03125 C 69.855469 691.56905 74.053273 718.28806 82.451172 741.19141 C 104.59108 781.65399 134.3666 802.26781 171.77539 803.03125 C 209.18418 803.79468 256.90004 791.77092 314.92188 766.95898 C 321.43318 764.17455 327.81179 761.62972 334.05859 759.32617 C 334.48806 769.58903 335.49418 779.03014 337.07422 787.64648 C 328.36878 791.45584 319.45664 795.82006 310.33984 800.74023 C 262.24284 826.69729 206.32186 839.4852 142.57422 839.10352 C 78.826572 838.7218 43.325006 817.72688 36.072266 776.11914 C 28.819562 734.51137 40.081141 696.14968 69.855469 661.03125 z M 403.67383 661.03125 C 403.67383 691.56905 407.87359 718.28806 416.27148 741.19141 C 438.41139 781.65399 468.18496 802.26781 505.59375 803.03125 C 543.00254 803.79468 590.71842 791.77092 648.74023 766.95898 C 706.76204 742.14701 754.28543 736.42096 791.3125 749.78125 C 828.33957 763.14154 850.28914 789.47948 857.16016 828.79688 C 864.03114 868.1143 877.39064 907.62313 897.24023 947.32227 C 865.93895 916.02099 846.2818 879.75723 838.26562 838.53125 C 830.24948 797.3052 807.91683 774.2104 771.27148 769.24805 C 734.62613 764.28566 692.25524 774.7831 644.1582 800.74023 C 596.0612 826.69729 540.14022 839.4852 476.39258 839.10352 C 412.64493 838.7218 377.14337 817.72688 369.89062 776.11914 C 362.63793 734.51137 373.8995 696.14968 403.67383 661.03125 z M 750.08594 793.29688 C 774.51617 792.91519 793.79424 803.03153 807.91797 823.64453 C 798.75667 838.91342 776.61656 850.74663 741.49805 859.14453 C 715.54095 859.14453 688.81995 848.07546 661.33594 825.93555 L 661.33594 825.93359 C 696.07267 804.55722 725.65571 793.67856 750.08594 793.29688 z M 530.93945 862.99219 C 538.49072 891.00598 549.31867 919.1159 563.42188 947.32227 C 539.08418 922.98457 521.78427 895.6464 511.52344 865.30859 C 517.95059 864.69085 524.42215 863.91902 530.93945 862.99219 z " />
</svg>
