<?xml version="1.0" encoding="UTF-8" standalone="no"?>
<svg
   width="893.13831"
   height="1000"
   version="1.1"
   id="svg1"
   sodipodi:docname="13DAE.svg"
   inkscape:version="1.4.3 (0d15f75, 2025-12-25)"
   xmlns:inkscape="http://www.inkscape.org/namespaces/inkscape"
   xmlns:sodipodi="http://sodipodi.sourceforge.net/DTD/sodipodi-0.dtd"
   xmlns="http://www.w3.org/2000/svg"
   xmlns:svg="http://www.w3.org/2000/svg">
  <defs
     id="defs1" />
  <sodipodi:namedview
     id="namedview1"
     pagecolor="#ffffff"
     bordercolor="#666666"
     borderopacity="1.0"
     inkscape:showpageshadow="2"
     inkscape:pageopacity="0.0"
     inkscape:pagecheckerboard="0"
     inkscape:deskcolor="#d1d1d1"
     inkscape:zoom="0.26693281"
     inkscape:cx="-174.20114"
     inkscape:cy="867.25944"
     inkscape:window-width="1680"
     inkscape:window-height="998"
     inkscape:window-x="-8"
     inkscape:window-y="-8"
     inkscape:window-maximized="1"
     inkscape:current-layer="svg1"
     showguides="true" />
  <path
     id="path1"
     style="fill:#000000;stroke:none;stroke-width:1"
     d="M 194.50195 0 C 164.24177 0 140.76394 33.921178 124.07227 101.76367 C 117.03906 100.74127 109.71608 100.22852 102.10352 100.22852 C 98.062259 100.44121 94.088781 100.80585 90.181641 101.32031 C 67.088154 42.122944 40.562438 12.523438 10.605469 12.523438 C 0.93831961 12.523438 -4.7733664 15.818935 -6.53125 22.410156 C -8.2889267 29.001375 -6.3122253 36.692194 -0.59960938 45.480469 C 26.491319 66.017137 44.674756 88.074153 53.951172 111.65234 C 46.624539 115.22977 39.736502 119.68567 33.289062 125.02148 C 9.3391694 140.20098 -1.9606181 156.39421 -0.61132812 173.59766 C 2.4245737 190.12646 15.917294 204.46186 39.867188 216.60547 C 64.154403 228.41175 95.862782 233.30324 134.99219 231.2793 C 192.67432 229.59269 209.87878 268.38352 186.60352 347.6543 L 134.99219 507.54688 C 51.373446 766.60098 37.003605 999.86719 261.25586 999.86719 C 484.88852 999.86719 432.42124 738.49533 427.45117 486.29492 C 425.87331 406.2285 384.7206 196.36914 496.21094 196.36914 C 604.59557 196.36914 575.15031 405.93077 565.87891 516.375 C 560.90869 575.58243 542.30859 669.62897 542.30859 783.30664 C 542.30859 892.93644 608.25536 965.12296 740.14844 999.86719 C 781.97644 999.86719 802.89062 992.27912 802.89062 977.09961 C 802.89062 967.31729 792.4335 956.18408 771.51953 943.70312 C 672.0094 912.66948 621.61888 859.51228 618.20703 784.31836 C 615.01934 714.06632 621.35263 688.67521 644.8125 493.60547 C 659.60807 370.58028 659.67583 124.01367 498.23633 124.01367 C 365.54663 124.01367 330.29819 238.35857 348.01172 491.86133 C 367.59198 772.07927 381.03485 919.92188 243.04102 919.92188 C 94.038925 919.92188 191.25639 627.29259 213.41992 506.02734 C 224.56306 457.97766 238.33682 410.60717 252.38086 363.33984 C 278.69201 268.55225 264.01757 203.11303 208.35938 167.01953 C 197.56507 142.73232 183.22965 125.52787 165.35156 115.4082 C 162.11424 113.60969 158.78759 111.97106 155.36914 110.49219 L 156.27148 110.73242 C 160.22621 93.595242 170.11271 75.359626 185.93164 56.025391 C 202.19 36.691165 210.10178 22.409342 209.66016 13.181641 C 209.22071 4.3935602 204.1691 1.1842379e-15 194.50195 0 z M 107.66992 110.34961 C 114.41637 110.34961 121.16175 113.04815 127.9082 118.44531 C 134.65465 123.50514 138.0293 131.43226 138.0293 142.22656 C 138.0293 154.7075 134.31757 162.12702 126.89648 164.48828 C 226.4066 184.72763 259.97083 240.04877 227.58789 330.45117 C 218.48017 363.50878 214.09431 375.14758 214.43164 365.36523 C 214.76895 355.58289 219.66044 330.11427 229.10547 288.96094 C 238.5505 247.47028 212.07066 219.97922 149.66602 206.48633 L 113.74219 206.48633 C 101.59858 206.48633 89.454156 205.47316 77.310547 203.44922 C 65.16694 201.76262 54.204223 198.22138 44.421875 192.82422 C 34.639524 187.42706 27.555115 180.34265 23.169922 171.57227 C 48.806426 164.4885 69.046485 162.12701 83.888672 164.48828 C 81.864736 162.12702 80.008861 159.25996 78.322266 155.88672 C 76.972959 152.51349 76.298828 147.96105 76.298828 142.22656 C 76.298828 131.43226 79.671522 123.50514 86.417969 118.44531 C 93.16442 113.04815 100.24883 110.34961 107.66992 110.34961 z M 107.66992 126.03516 A 15.938484 15.938484 0 0 0 91.730469 141.97266 A 15.938484 15.938484 0 0 0 107.66992 157.91211 A 15.938484 15.938484 0 0 0 123.60742 141.97266 A 15.938484 15.938484 0 0 0 107.66992 126.03516 z " />
</svg>
