<?xml version="1.0" encoding="UTF-8" standalone="no"?>
<svg
   width="1357.7052"
   height="1000"
   version="1.1"
   id="svg1"
   sodipodi:docname="13DBB.svg"
   inkscape:version="1.4.3 (0d15f75, 2025-12-25)"
   xmlns:inkscape="http://www.inkscape.org/namespaces/inkscape"
   xmlns:sodipodi="http://sodipodi.sourceforge.net/DTD/sodipodi-0.dtd"
   xmlns="http://www.w3.org/2000/svg"
   xmlns:svg="http://www.w3.org/2000/svg">
  <defs
     id="defs1" />
  <sodipodi:namedview
     id="namedview1"
     pagecolor="#ffffff"
     bordercolor="#666666"
     borderopacity="1.0"
     inkscape:showpageshadow="2"
     inkscape:pageopacity="0.0"
     inkscape:pagecheckerboard="0"
     inkscape:deskcolor="#d1d1d1"
     inkscape:zoom="0.34138486"
     inkscape:cx="575.5967"
     inkscape:cy="1088.2146"
     inkscape:window-width="1680"
     inkscape:window-height="998"
     inkscape:window-x="-8"
     inkscape:window-y="-8"
     inkscape:window-maximized="1"
     inkscape:current-layer="svg1"
     showguides="true">
    <sodipodi:guide
       position="87.152628,666.305"
       orientation="1,0"
       id="guide1"
       inkscape:locked="false" />
    <sodipodi:guide
       position="87.152628,653.37268"
       orientation="0,-1"
       id="guide2"
       inkscape:locked="false" />
    <sodipodi:guide
       position="90.165832,630.89112"
       orientation="0,-1"
       id="guide3"
       inkscape:locked="false" />
  </sodipodi:namedview>
  <path
     id="path4"
     style="fill:#000000;stroke:none;stroke-width:1"
     d="m 502.28711,0.01171875 c -5.97417,-0.20499611 -11.6545,1.56595295 -17.04297,5.31445315 l 3.93555,45.5449221 c -10.12095,7.497 -32.79926,14.993233 -68.03516,22.490234 4.75978,132.083892 32.22428,214.894312 52.85352,259.208982 -54.7281,12.7449 -83.72859,59.07601 -80.16886,138.88281 8.07598,181.05832 18.91001,299.33341 13.49414,355.91993 -5.45482,56.99353 -36.52,103.15217 -81.20419,107.25917 -57.28672,5.26532 -87.35259,-66.70584 -70.97697,-184.85292 8.92716,-64.40779 28.46261,-128.78807 35.55314,-193.42383 C 301.41271,458.65792 259.20964,395.35774 168.12109,366.86914 135.84262,321.47754 66.954458,317.0557 30.363281,343.81641 12.81174,356.65261 4.3108468,369.68118 5.0605469,383.17578 c 0.6232203,4.98576 7.3121081,40.37028 71.9707031,45.54297 38.9844,-4.87305 74.97023,0.75059 107.95703,16.86914 33.36165,16.4934 50.16744,54.30466 39.92188,111.89258 l -32.61133,183.30078 c -30.44637,171.13202 25.86159,258.46877 133.82031,258.08594 103.45796,-0.36687 147.30033,-72.8784 143.48504,-218.72657 -4.4316,-169.40784 -11.53608,-284.1516 -12.93164,-318.2653 -1.99333,-48.72577 21.07293,-73.0957 48.81184,-73.0957 32.9868,0 59.04167,24.08193 56.07126,71.9707 l -23.05273,385.17741 c 0,102.70891 33.51747,154.0625 113.73537,154.0625 89.96401,0 129.32363,-51.16595 118.07813,-153.5 -11.2455,-102.33406 -12.55273,-192.67931 -3.37305,-253.37758 9.18806,-60.75369 23.6332,-86.65458 43.29492,-87.15234 39.93469,-1.011 59.76282,36.49195 49.66284,122.57617 -9.18359,78.27365 -20.54538,156.32236 -27.55078,234.82094 -8.18081,91.66954 28.48967,136.63281 119.5813,136.63281 93.34066,0 131.42446,-52.52219 129.47266,-136.63281 -1.4246,-61.39414 -11.8086,-127.07833 -11.8086,-181.24341 0,-44.68426 24.0287,-66.15888 47.6445,-64.66211 29.6129,1.87688 52.4844,25.19887 48.1471,69.72266 -5.7856,59.39169 -15.1903,118.41177 -20.2422,177.87036 -7.6965,90.58534 23.4504,135.32158 105.9174,133.82227 52.479,0 85.8397,-28.67725 100.084,-86.0293 10.8706,-41.2335 7.8721,-61.84961 -8.9961,-61.84961 -8.2467,0 -15.779,14.40648 -27.7742,33.89868 -20.2419,29.988 -43.2152,46.72004 -63.3137,49.125 -24.0202,2.87422 -44.2115,-12.47805 -40.276,-52.85546 5.4394,-55.80771 15.4395,-119.93101 20.2422,-175.79712 7.9469,-92.44105 -19.7013,-144.31881 -94.6713,-155.18946 -1.8743,-95.96161 -7.8713,-206.35464 -17.9922,-331.17969 -8.9964,-4.12335 -17.8062,-2.8098 -26.4277,3.9375 l 2.8125,43.85743 c -9.3713,6.7473 -31.6762,14.05588 -66.9121,21.92773 4.2272,75.38504 17.3248,187.34966 56.791,262.58203 -53.9784,10.87065 -83.2616,57.00231 -84.1794,138.88281 -0.53852,48.03676 8.3881,132.93367 10.1211,177.12976 1.6578,42.27743 -17.41788,63.41489 -58.63896,65.2246 -35.62572,1.56406 -57.38409,-17.66181 -52.47534,-59.03906 l 27.55078,-232.23326 c 15.46878,-130.39073 -15.559,-199.04522 -96.52661,-204.66797 -0.7497,-95.21191 -6.74669,-204.48099 -17.99219,-327.80664 -8.9964,-4.12335 -17.80618,-3.18706 -26.42773,2.81054 l 3.93554,43.85742 c -9.37125,7.87185 -31.67425,15.55769 -66.91015,23.05469 1.74273,47.05379 10.47888,168.8328 53.97851,260.33203 -43.20358,7.39787 -67.98539,51.194 -75.73193,125.38868 -9.12179,87.36646 -7.90479,173.54971 3.93555,250.41797 11.77525,76.44571 -17.79388,123.12665 -53.02979,123.12665 -26.9892,0 -47.44852,-19.67981 -48.19822,-59.03906 L 624.28225,478.19922 C 629.02969,387.20667 599.75951,337.25632 530.78711,328.63477 529.28771,233.42287 523.47837,124.71673 513.35742,2.515625 509.56207,0.96936867 505.87161,0.13471642 502.28711,0.01171875 Z M 490.30469,91.353516 c 6.7473,91.088544 11.43269,170.183104 14.05664,237.281254 h -3.9375 c -26.2395,-69.7221 -42.17022,-144.69225 -47.79297,-224.91016 18.36765,-3.37365 30.92653,-7.498043 37.67383,-12.371094 z M 791.12109,195.9375 c 6.7473,92.9628 11.43269,173.18129 14.05664,240.6543 h -2.81054 c -26.9892,-70.84665 -43.29522,-146.75505 -48.91797,-227.72266 18.36765,-4.12335 30.92457,-8.43344 37.67187,-12.93164 z M 1096.998,306.14258 c 5.9976,93.71251 10.6831,174.68159 14.0567,242.9043 h -2.8106 c -26.9892,-70.84665 -43.2951,-147.69136 -48.9179,-230.53321 17.618,-4.12335 30.1748,-8.24774 37.6718,-12.37109 z M 87.152344,333.69531 c 7.113376,0 24.177736,5.38657 24.177736,25.30274 -0.14221,6.65565 -3.21201,12.19641 -7.8711,16.86718 41.80159,4.83877 151.0631,25.57242 150.39612,110.0868 -36.25091,-80.26412 -124.99215,-77.79445 -163.890256,-72.41492 -14.008488,-0.51883 -60.842237,-4.28953 -65.78711,-31.48633 18.80437,-7.05164 35.906716,-7.99271 45.544922,-6.18555 -3.166389,-5.31136 -7.064369,-10.35872 -6.748047,-16.86718 0,-19.9162 17.064398,-25.30274 24.177735,-25.30274 z"
     sodipodi:nodetypes="sccccssssscscccssssssccssssssssssssccscsssccccccsssssccccccsssccccscccccccccccccccscccccccs" />
  <circle
     style="fill:#1a5fb4;fill-rule:evenodd;stroke:none;stroke-width:65;stroke-linecap:round;stroke-linejoin:round;stroke-miterlimit:2.3"
     id="path3"
     cx="86.569603"
     cy="357.8681"
     r="11.24078" />
</svg>
