<?xml version="1.0" encoding="UTF-8" standalone="no"?>
<svg
   width="1100"
   height="1000"
   version="1.1"
   id="svg4036"
   sodipodi:docname="13DEA.svg"
   inkscape:version="1.4.3 (0d15f75, 2025-12-25)"
   xmlns:inkscape="http://www.inkscape.org/namespaces/inkscape"
   xmlns:sodipodi="http://sodipodi.sourceforge.net/DTD/sodipodi-0.dtd"
   xmlns="http://www.w3.org/2000/svg"
   xmlns:svg="http://www.w3.org/2000/svg">
  <sodipodi:namedview
     id="namedview1"
     pagecolor="#ffffff"
     bordercolor="#666666"
     borderopacity="1.0"
     inkscape:showpageshadow="2"
     inkscape:pageopacity="0.0"
     inkscape:pagecheckerboard="0"
     inkscape:deskcolor="#d1d1d1"
     showguides="true"
     inkscape:zoom="0.20972222"
     inkscape:cx="269.40397"
     inkscape:cy="941.72186"
     inkscape:window-width="1680"
     inkscape:window-height="998"
     inkscape:window-x="-8"
     inkscape:window-y="-8"
     inkscape:window-maximized="1"
     inkscape:current-layer="svg4036">
    <sodipodi:guide
       position="500.41943,820.24591"
       orientation="1,0"
       id="guide1"
       inkscape:locked="false" />
  </sodipodi:namedview>
  <defs
     id="defs4040" />
  <path
     id="path4034"
     style="fill:#000000;stroke:none;stroke-width:140.896"
     d="M 500.41992 0 C 447.84622 0 404.92569 42.327862 403.9668 94.677734 C 398.25766 89.319199 392.79609 84.992442 390.83984 83.175781 C 385.08303 79.144306 379.06214 75.42586 372.28906 72.458984 C 391.80466 103.10165 402.53034 131.52369 404.67969 157.89062 L 390.08594 157.89062 L 387.58594 196.47266 L 371.94141 196.47266 L 368.63672 240.25977 L 356.80469 240.25977 C 355.58085 275.17819 358.13125 309.59443 352.65234 352.48438 L 58.037109 132.32227 C -1.3324555 323.97578 60.769502 490.46678 243.4043 632.05078 C 250.67392 638.84304 259.67048 645.24449 264.96289 648.43359 C 274.76516 655.56261 284.89905 662.56211 295.33203 669.56055 L 295.33203 669.71289 C 292.57841 675.23597 288.35096 682.39302 282.84375 691.30078 C 276.72462 699.8522 275.71011 706.06111 279.6875 709.98047 C 283.66495 713.89994 288.68755 712.71839 294.80664 706.30469 C 302.50366 697.9382 308.20505 689.299 312.0293 680.43164 C 324.35844 688.37028 336.7339 696.39464 349.89062 704.16211 L 296.64648 773.67188 L 330.56445 925.13281 L 342.5293 920.8457 L 359.09375 955.14062 L 370.13672 945.49414 L 394.85156 991.42578 L 407.73633 973.20703 L 447.17578 1000 L 447.17578 973.20703 L 428.76953 957.28516 L 435.21289 942.2793 C 377.6933 932.30248 342.49465 842.44768 329.64453 776.88672 L 381.96875 737.23242 C 394.20698 765.73737 419.36036 787.48996 457.29883 802.45508 C 465.25363 833.81 479.61495 849.60938 500.41992 849.60938 C 521.22487 849.60938 535.89424 833.81 544.46094 802.45508 C 581.78748 787.48996 606.63291 765.73737 618.87109 737.23242 L 671.19336 776.88672 C 658.9551 842.44768 623.75836 932.30248 565.62695 942.2793 L 572.98828 957.28516 L 554.58398 973.20703 L 554.58398 1000 L 594.02344 973.20703 L 606.90625 991.42578 L 631.62305 945.49609 L 642.66602 955.14062 L 659.23047 920.8457 L 671.19336 925.13281 L 705.11133 773.67188 L 650.94727 704.16211 C 664.40921 696.21451 677.13344 688.09953 689.73047 679.97266 C 693.4764 689.02371 698.70837 697.7747 706.0332 706.30469 C 712.76417 712.71843 718.09294 713.89994 722.07031 709.98047 C 726.04772 706.06106 725.03323 699.85219 718.91602 691.30078 C 713.16769 682.00573 708.91246 674.7109 706.16406 669.10156 C 719.27928 660.29087 732.17097 651.47827 744.28906 642.46094 C 749.28959 637.38288 755.24484 633.88845 760.72266 629.60156 C 940.95014 488.55698 1002.2256 322.84963 943.72266 132.32227 L 649.10742 352.48438 C 643.62851 309.59443 646.17892 275.17819 644.95508 240.25977 L 633.12305 240.25977 L 629.81836 196.47266 L 614.17383 196.47266 L 611.67188 157.89062 L 597.08008 157.89062 C 599.22943 131.52369 609.9551 103.10165 629.4707 72.458984 C 622.69762 75.42586 616.67673 79.144306 610.91992 83.175781 C 608.86023 85.08851 602.91364 89.784731 596.88477 95.537109 C 596.38241 42.792272 553.28073 0 500.41992 0 z M 500.41992 18 C 543.86379 18 578.88867 53.024882 578.88867 96.46875 C 578.88867 139.91262 543.86379 174.9375 500.41992 174.9375 C 456.97605 174.9375 421.95117 139.91262 421.95117 96.46875 C 421.95117 53.024882 456.97605 18 500.41992 18 z M 70 164.32031 L 125.87305 207.18945 C 96.37837 334.28099 158.8066 452.92609 312.42383 563.46094 C 311.77629 564.04494 306.72036 570.02052 306.24414 573.10547 L 321.08008 571.69727 C 326.13019 577.76952 301.92869 592.6802 306.76953 598.36719 L 307.95312 597.29688 L 320.57422 597.29688 L 296.64648 626.08008 L 310.45117 626.08008 L 296.38477 641.39062 C 289.95434 636.77882 284.40261 633.07973 278.50391 628.98828 C 274.10686 625.28409 264.52679 618.24852 259.57422 614.44336 C 86.870424 480.72348 23.42348 330.66325 70 164.32031 z M 931.75977 164.32031 C 977.45748 329.35886 915.06614 478.30249 745.33984 611.22852 C 739.6043 615.30986 734.64725 619.49708 729.30078 623.63086 C 721.48042 629.47761 713.22397 635.30034 704.98047 641.08398 L 691.30859 626.08008 L 705.11133 626.08008 L 681.18555 597.29688 L 696.83008 597.29688 C 680.57924 584.30427 680.29215 583.46887 671.19336 575.86133 C 671.33339 575.76573 671.44791 575.65111 671.58789 575.55469 C 681.98286 579.51028 691.56277 571.69581 700.11719 570.04297 C 700.2323 569.96897 700.39459 569.96117 700.51172 569.89062 L 698.66992 568.35938 C 695.84502 566.17702 692.9677 564.31893 690.125 562.23633 C 842.52259 452.04932 904.68491 333.81091 875.88672 207.18945 L 931.75977 164.32031 z M 561.36914 171.17969 C 573.19239 191.02396 586.76586 208.34962 599.07227 226.32812 C 613.57625 247.51709 619.68578 296.61343 621.63086 379.27734 L 595.86328 395.19922 C 594.63941 396.62449 591.86549 389.95526 587.58203 374.99023 C 580.23917 350.76111 573.27795 338.55273 566.54688 338.55273 L 572.98828 333.19336 C 574.8241 314.66494 569.27396 299.37622 556.42383 287.26172 L 553.66406 264.91016 L 531.57617 300.12305 C 534.63571 282.30753 541.11174 265.94159 550.90234 250.97656 L 551.82227 240.25977 C 542.03172 240.25977 535.86559 245.6466 533.41797 256.33594 C 527.91075 249.2097 520.9495 243.82286 512.38281 240.25977 L 512.38281 254.19141 L 505.94141 254.19141 L 505.94141 239.1875 L 494.89844 239.1875 L 494.89844 254.19141 L 489.37695 254.19141 L 489.37695 240.25977 C 480.81015 243.82286 473.54095 249.2097 467.42188 256.33594 C 465.5861 245.64668 459.41807 240.25977 449.01562 240.25977 L 450.85742 250.97656 C 460.03594 265.94159 466.51016 282.30753 470.18164 300.12305 L 448.0957 264.91016 L 445.33594 287.26172 C 432.48583 299.37622 426.93384 314.66519 428.76953 333.19336 L 435.21289 338.55273 C 427.86997 338.55273 420.60077 350.76112 413.25781 374.99023 C 408.97438 389.95527 406.50644 396.62448 405.89453 395.19922 L 380.12891 379.27734 C 382.07399 296.61343 388.18157 247.51709 402.68555 226.32812 C 414.88804 208.50141 428.33926 191.31641 440.0918 171.68164 C 456.62706 184.97374 477.61488 192.9375 500.41992 192.9375 C 523.51069 192.9375 544.74012 184.77307 561.36914 171.17969 z M 141.51758 217.75391 L 191.08008 256.33594 C 172.87244 336.91239 234.28637 425.5747 375 522.27539 C 358.4192 529.90429 342.83157 539.22012 328.33008 550.29297 C 175.08789 449.34796 112.6469 338.51999 141.51758 217.75391 z M 859.32227 217.75391 C 888.17682 338.45324 825.82849 449.2405 672.77148 550.14062 C 656.84113 539.73293 640.60732 530.85355 624.12891 523.5 C 766.74436 426.31183 828.6553 337.26033 809.75977 256.33594 L 859.32227 217.75391 z M 207.64453 269.04297 L 345.28906 377.13477 L 341.60938 386.62695 C 347.72848 404.44246 367.94785 416.65085 402.21484 423.06445 L 402.21484 485.07227 C 394.25998 485.07227 388.09197 491.0241 383.80859 503.13867 C 251.02415 415.48644 192.34676 337.45459 207.64453 269.04297 z M 794.11523 269.04297 C 809.41257 337.45459 750.42573 415.48644 617.0293 503.13867 C 612.74596 491.0242 606.88784 485.07227 599.54492 485.07227 L 599.54492 423.06445 C 633.81191 416.65085 654.03127 404.44246 660.15039 386.62695 L 656.46875 377.13477 L 794.11523 269.04297 z M 448.0957 305.48242 C 454.21484 305.48242 457.60696 308.71334 458.21875 315.12695 C 458.21875 321.54064 455.13474 325.33857 449.01562 326.76367 C 442.28456 326.05113 438.89258 322.25314 438.89258 315.12695 C 438.89258 309.42596 441.97658 306.19497 448.0957 305.48242 z M 553.66406 305.48242 C 559.17133 306.19497 562.25332 309.42596 562.86523 315.12695 C 562.25338 322.25318 558.8613 326.05119 552.74219 326.76367 C 546.62314 325.33854 543.54102 321.54057 543.54102 315.12695 C 544.15292 308.71333 547.54502 305.48242 553.66406 305.48242 z M 451.77734 337.48047 C 468.29889 340.331 484.51021 341.76758 500.41992 341.76758 C 516.94145 341.76758 533.46082 340.33077 549.98242 337.48047 L 549.98242 341.76758 C 533.46082 348.18127 516.94145 351.41211 500.41992 351.41211 C 484.51021 351.41211 468.29889 348.18118 451.77734 341.76758 L 451.77734 337.48047 z M 439.81445 359.98633 C 460.61933 364.97477 480.83878 367.48828 500.41992 367.48828 C 520.61294 367.48828 541.1404 364.9747 561.94531 359.98633 C 578.46688 414.85814 585.42809 449.38434 582.98047 463.63672 C 573.80183 485.0153 546.31317 495.78906 500.41992 495.78906 C 455.13849 495.78906 427.64988 485.0153 417.85938 463.63672 C 416.02362 449.38434 423.29282 414.85814 439.81445 359.98633 z M 582.58789 508.34375 C 583.18827 508.45512 583.83016 508.35653 584.42578 508.49609 C 586.15993 508.90841 587.72467 509.65934 589.29102 510.48633 C 587.06552 509.79676 584.82299 508.98024 582.58789 508.34375 z M 500.41992 521.35742 C 505.84394 521.35742 511.12133 521.69987 516.45898 521.96875 L 503.17969 536.36133 L 490.69141 521.81641 C 493.95409 521.71294 497.12248 521.35738 500.41992 521.35742 z M 537.75586 523.80664 C 561.78631 526.71401 584.96773 532.34148 607.16992 540.95508 C 608.78503 548.10298 609.91655 556.27777 610.58789 565.75781 C 613.03556 600.31981 610.87771 642.3869 604.14648 691.91406 C 597.41541 741.44101 565.60884 772.63366 508.70117 785.46094 L 508.70117 561.92969 C 508.70118 552.66567 517.51243 540.60957 535.25781 525.64453 C 536.10511 524.92964 536.91485 524.47893 537.75586 523.80664 z M 463.60938 523.95898 C 464.41174 524.59235 465.16553 524.97383 465.97461 525.64453 C 484.02601 540.60984 493.05664 552.66566 493.05664 561.92969 L 493.05664 785.46094 C 436.1491 772.63366 404.34429 741.44101 397.61328 691.91406 C 390.88261 642.3869 388.72426 600.31981 391.17188 565.75781 C 391.81419 556.68792 392.9719 548.80816 394.45703 541.87305 C 416.50014 532.881 439.55703 526.96088 463.60938 523.95898 z M 359.48828 603.11328 C 362.7678 603.18008 366.38879 603.7301 370.13672 604.79883 C 368.99123 624.56527 369.56858 648.40805 371.97656 676.45117 L 364.61523 685.94336 C 351.12137 677.83736 338.31256 669.68453 325.70117 661.44727 C 327.81083 622.30297 338.88235 602.69345 359.48828 603.11328 z M 642.27148 603.11328 C 662.77509 602.69578 673.99894 622.07939 676.18945 660.83398 C 663.26525 669.29369 650.07702 677.62203 636.22461 685.94336 L 629.78125 676.45117 C 632.18922 648.40799 632.76845 624.56525 631.62305 604.79883 C 635.37105 603.72988 638.99217 603.18009 642.27148 603.11328 z M 481.09375 808.88477 L 520.66602 808.88477 C 520.66602 820.99966 513.88191 827.10352 500.41992 827.10352 C 487.56981 827.10352 481.09375 820.99915 481.09375 808.88477 z " />
</svg>
