<?xml version="1.0" encoding="UTF-8" standalone="no"?>
<svg
   width="1100"
   height="891.46344"
   version="1.1"
   id="svg1"
   sodipodi:docname="13E33.svg"
   inkscape:version="1.4.3 (0d15f75, 2025-12-25)"
   xmlns:inkscape="http://www.inkscape.org/namespaces/inkscape"
   xmlns:sodipodi="http://sodipodi.sourceforge.net/DTD/sodipodi-0.dtd"
   xmlns="http://www.w3.org/2000/svg"
   xmlns:svg="http://www.w3.org/2000/svg">
  <defs
     id="defs1" />
  <sodipodi:namedview
     id="namedview1"
     pagecolor="#ffffff"
     bordercolor="#666666"
     borderopacity="1.0"
     inkscape:showpageshadow="2"
     inkscape:pageopacity="0.0"
     inkscape:pagecheckerboard="0"
     inkscape:deskcolor="#d1d1d1"
     showguides="true"
     inkscape:zoom="0.29943215"
     inkscape:cx="1274.0783"
     inkscape:cy="-21.707756"
     inkscape:window-width="1680"
     inkscape:window-height="998"
     inkscape:window-x="-8"
     inkscape:window-y="-8"
     inkscape:window-maximized="1"
     inkscape:current-layer="svg1" />
  <path
     style="fill:#000000;stroke:none;stroke-width:0.999998"
     d="m 1050,756.09771 c -1.626,-60.97565 -24.7968,-91.46348 -69.51217,-91.46348 H 115.85367 c -43.089429,13.00811 -65.040647,43.49593 -65.853658,91.46348 0,47.96748 22.357723,76.42278 67.073168,85.36589 H 945.122 c 65.8537,0 100.813,-28.4553 104.878,-85.36589 z M 146.34149,131.70731 c 16.89655,-24.40618 14.56275,-30.96192 26.82928,-54.268289 10.20368,-20.240945 28.95709,-31.020129 49.99996,-37.195131 v -4.878061 c -27.64228,-8.130063 -55.28454,-12.195096 -82.92681,-12.195096 -27.64228,0 -55.284566,4.065034 -82.926872,12.195096 v 4.878061 c 21.607542,5.241624 39.247139,17.705418 50.000012,37.195131 11.93895,22.683959 10.18682,31.133829 25.60976,54.268289 z m 398.78053,0 c 16.3331,-23.5924 14.10232,-28.20492 26.82933,-53.658503 11.49584,-22.991974 32.05318,-31.822641 50.00002,-37.804917 v -4.878061 c -27.64229,-8.130063 -55.69109,-12.195096 -84.1465,-12.195096 -26.82922,0 -54.06499,4.065034 -81.7073,12.195096 v 4.878061 c 15.2109,5.070327 37.59415,13.624026 50.00002,37.195131 11.93992,22.685529 10.18594,31.132599 25.6097,54.268289 z m 401.21956,1.21951 c 15.07428,-22.61172 14.31829,-29.27773 26.82905,-53.048769 9.96366,-20.163106 27.82827,-31.037936 48.78057,-37.19513 V 37.80486 c -26.82924,-8.130064 -54.47147,-12.195096 -82.92677,-12.195096 -27.64229,0 -54.87802,3.658529 -81.7073,10.975581 v 6.097576 c 14.55679,4.043567 34.5348,10.316713 49.39017,35.975615 12.55477,21.686274 8.93548,30.171384 25.00015,54.268284 z M 514.63414,614.63422 V 164.63416 C 496.36526,134.18595 497.40686,124.98603 481.70734,96.951208 467.45194,70.805166 442.14578,56.343848 414.63423,47.560982 V 19.512188 C 455.28466,6.5040627 496.74807,0 539.02444,0 581.30086,0 622.76432,6.5040627 663.41477,19.512188 V 48.780497 C 635.29438,55.328659 611.087,70.649248 596.34155,95.731693 580.49749,124.02431 582.76928,135.20478 564.63415,163.41465 V 614.63422 H 714.6343 V 294.03165 h 49.99996 V 614.63422 H 914.63424 V 165.85368 C 895.82757,134.50912 898.58695,125.28706 882.31711,98.170724 867.64755,72.399328 843.81159,57.752181 815.85378,50.000012 V 20.731703 C 856.50412,7.723578 897.56102,1.2195152 939.02443,1.2195152 c 42.27636,0 83.73977,6.5040628 124.39017,19.5121878 v 30.487825 c -28.881,5.168842 -51.4924,21.438533 -66.46328,46.341466 -16.704,28.953776 -13.94056,39.706816 -32.31713,68.292686 v 448.78054 c 89.43081,0 134.55281,47.15448 135.36581,141.46349 0,90.24384 -50,135.36574 -149.99982,135.36574 H 115.85367 C 38.617889,879.26829 0,834.1464 0,756.09771 0,678.86191 38.617889,631.70743 115.85367,614.63422 V 163.41465 C 98.27448,136.06934 99.114601,126.40451 82.926868,96.341479 65.351273,63.701214 33.310878,52.874064 15.853642,47.560982 V 19.512188 C 56.504077,6.5040627 97.967499,0 140.24392,0 c 42.27645,0 83.73986,6.5040627 124.39021,19.512188 v 29.268309 c -28.79874,5.363817 -52.30548,21.780366 -67.07311,46.951196 -15.84429,28.293327 -13.5724,39.472997 -31.70734,67.682957 V 614.63422 H 314.63414 V 296.47074 h 48.78056 v 318.16348 z"
     id="path1"
     sodipodi:nodetypes="cscccsccsccsccccccsccsccscccsccsccsccccsccsccsccccccccsccsccscccscscccccsccsccccccc" />
</svg>
