<?xml version="1.0" encoding="UTF-8" standalone="no"?>
<svg
   width="1000"
   height="1000"
   version="1.1"
   id="svg1"
   sodipodi:docname="13FCA.svg"
   inkscape:version="1.4.2 (f4327f4, 2025-05-13)"
   xmlns:inkscape="http://www.inkscape.org/namespaces/inkscape"
   xmlns:sodipodi="http://sodipodi.sourceforge.net/DTD/sodipodi-0.dtd"
   xmlns="http://www.w3.org/2000/svg"
   xmlns:svg="http://www.w3.org/2000/svg">
  <defs
     id="defs1" />
  <sodipodi:namedview
     id="namedview1"
     pagecolor="#ffffff"
     bordercolor="#666666"
     borderopacity="1.0"
     inkscape:showpageshadow="2"
     inkscape:pageopacity="0.0"
     inkscape:pagecheckerboard="0"
     inkscape:deskcolor="#d1d1d1"
     inkscape:zoom="0.3775"
     inkscape:cx="258.27815"
     inkscape:cy="610.59603"
     inkscape:window-width="1680"
     inkscape:window-height="998"
     inkscape:window-x="-8"
     inkscape:window-y="-8"
     inkscape:window-maximized="1"
     inkscape:current-layer="g7"
     showguides="true">
    <sodipodi:guide
       position="500,1000"
       orientation="-1,0"
       id="guide1"
       inkscape:locked="false"
       inkscape:label=""
       inkscape:color="rgb(0,134,229)" />
    <sodipodi:guide
       position="30,1000"
       orientation="-1,0"
       id="guide2"
       inkscape:locked="false"
       inkscape:label=""
       inkscape:color="rgb(0,134,229)" />
    <sodipodi:guide
       position="0,970"
       orientation="0,1"
       id="guide3"
       inkscape:locked="false"
       inkscape:label=""
       inkscape:color="rgb(0,134,229)" />
    <sodipodi:guide
       position="500,30"
       orientation="0,1"
       id="guide4"
       inkscape:locked="false"
       inkscape:label=""
       inkscape:color="rgb(0,134,229)" />
    <sodipodi:guide
       position="0,0"
       orientation="0,-1"
       id="guide5"
       inkscape:locked="false" />
    <sodipodi:guide
       position="0,250"
       orientation="0,1"
       id="guide6"
       inkscape:locked="false"
       inkscape:label=""
       inkscape:color="rgb(0,134,229)" />
    <sodipodi:guide
       position="0,230"
       orientation="0,1"
       id="guide7"
       inkscape:label=""
       inkscape:locked="false"
       inkscape:color="rgb(0,134,229)" />
  </sodipodi:namedview>
  <g
     id="g7"
     inkscape:label="g7">
    <path
       id="path5"
       style="baseline-shift:baseline;display:inline;overflow:visible;opacity:1;vector-effect:none;fill:#000000;enable-background:accumulate;stop-color:#000000;stop-opacity:1"
       d="M 500,0 C 253.69014,0 142.1515,53.919636 0,175.23242 V 750 H 0.01171875 C 70.335417,848.78166 184.71956,999.98981 499.98438,1000 h 0.0312 C 815.295,999.98981 929.67727,848.76385 999.98828,750 H 1000 V 175.23242 C 857.82467,53.899289 746.27938,0 500,0 Z m 0,60 c 34.21267,0 65.38934,1.055933 93.99805,3.113281 V 86.257812 C 548.15332,96.330119 536.256,188.5957 500,188.5957 c -36.256,0 -48.15332,-92.265582 -93.99805,-102.337888 V 63.113281 C 434.61066,61.055933 465.78733,60 500,60 Z M 379.0293,65.421875 V 99.28125 c 52.94366,21.48798 62.1765,97.45816 93.8789,106.41602 -1e-5,29.02387 -5.80812,107.91592 -17.41992,188.25 -4.95418,34.28041 -8.53793,70.49108 -10.60547,106.44921 H 224.67578 c -12.24414,-10.7383 -21.60657,-20.13397 -26.5625,-27.07226 -22.13835,-27.16983 -25.84887,-68.80513 -4.7168,-97.48438 C 206.98139,357.2235 228.36478,345.9668 250,345.9668 c 46.45358,0 80.98411,53.44732 51.88672,91.19531 -9.05659,11.57232 -23.64828,18.8672 -37.73633,18.86719 -27.82478,0 -47.3691,-35.20225 -29.87305,-53.45899 L 220.125,388.41992 c -32.19704,34.55291 -1.23726,88.04883 45.59766,88.04883 19.62263,10e-6 39.3081,-9.55877 51.88672,-25.15625 11.57233,-15.09433 17.23403,-33.20753 15.7246,-50.31445 C 330.72235,361.82383 293.93997,325.52539 250,325.52539 c -28.67925,10e-6 -56.79348,13.58538 -73.90039,37.73633 -27.16982,36.72956 -22.95421,88.42876 4.71875,122.64258 1.87484,3.12474 6.37323,8.12117 12.97266,14.49218 h -88.89649 v 30 h 123.24805 c 32.43183,26.487 77.09603,59.29682 120.91406,86.00977 l 12.57813,-18.86719 C 329.79995,579.10838 292.82375,554.03718 261.72656,530.39648 H 443.50977 C 440.42525,621.2315 447.44128,706.47122 466.94141,750 H 60 V 203.02539 C 145.83283,130.73913 220.9998,81.224405 379.0293,65.421875 Z m 241.9414,0 C 779.0002,81.224405 854.16717,130.73913 940,203.02539 V 750 H 533.05859 c 29.28848,-65.37864 30.41405,-224.85276 11.45313,-356.05273 -11.6118,-80.33408 -17.41991,-159.22613 -17.41992,-188.25 31.7024,-8.95786 40.93524,-84.92804 93.8789,-106.41602 z M 500,245.3457 c 11.50804,104.01534 19.38132,194.49337 23.09766,255.05078 H 476.90234 C 480.61868,439.83907 488.49196,349.36104 500,245.3457 Z m -24.71094,285.05078 h 49.42188 c 0.5528,12.42672 0.83409,22.74756 0.83398,30.69727 -0.001,75.67127 -9.03045,153.75705 -25.54492,178.63477 -16.51447,-24.87772 -25.54389,-102.9635 -25.54492,-178.63477 -1.1e-4,-7.94971 0.28118,-18.27055 0.83398,-30.69727 z M 79.708984,790 H 492.01562 l -82.9707,84.05664 84.81641,85.92383 C 306.96544,958.78953 174.33405,903.15976 79.708984,790 Z m 428.275396,0 H 920.29102 C 825.66595,903.15976 693.03456,958.78953 506.13867,959.98047 l 84.81641,-85.92383 z M 500,810.38281 562.85352,874.05664 500,937.72852 437.14648,874.05664 Z"
       sodipodi:nodetypes="scccsscccssccsccsccccccccscsccsccsccccccccccccccccccccccccccccscscccccccccccccccc" />
  </g>
</svg>
