<?xml version="1.0" encoding="UTF-8" standalone="no"?>
<svg
   width="1799.998"
   height="600.75977"
   version="1.1"
   id="svg1"
   sodipodi:docname="14010.svg"
   inkscape:version="1.4.3 (0d15f75, 2025-12-25)"
   xmlns:inkscape="http://www.inkscape.org/namespaces/inkscape"
   xmlns:sodipodi="http://sodipodi.sourceforge.net/DTD/sodipodi-0.dtd"
   xmlns="http://www.w3.org/2000/svg"
   xmlns:svg="http://www.w3.org/2000/svg">
  <sodipodi:namedview
     id="namedview1"
     pagecolor="#ffffff"
     bordercolor="#666666"
     borderopacity="1.0"
     inkscape:showpageshadow="2"
     inkscape:pageopacity="0.0"
     inkscape:pagecheckerboard="0"
     inkscape:deskcolor="#d1d1d1"
     inkscape:zoom="0.30994881"
     inkscape:cx="988.87297"
     inkscape:cy="498.46941"
     inkscape:window-width="1680"
     inkscape:window-height="998"
     inkscape:window-x="-8"
     inkscape:window-y="-8"
     inkscape:window-maximized="1"
     inkscape:current-layer="svg1"
     showguides="true">
    <sodipodi:guide
       position="942.44513,154.05104"
       orientation="1,0"
       id="guide4"
       inkscape:locked="false" />
  </sodipodi:namedview>
  <defs
     id="defs1" />
  <path
     id="path22"
     style="display:inline;fill:#000000;stroke:none;stroke-width:108.834"
     d="M 299.23828 0 C 99.746926 0 -3.7895613e-14 101.2696 0 303.80664 C 0 501.77513 100.50929 600.75977 301.52344 600.75977 L 1500.7598 600.75977 C 1700.2511 599.23697 1799.998 497.20501 1799.998 294.66797 C 1799.998 98.222261 1699.4907 3.7895613e-14 1498.4766 0 L 299.23828 0 z M 299.23828 68.527344 L 657.34375 68.527344 L 831.94141 532.23242 L 299.23828 532.23242 C 151.52328 532.23242 77.664064 456.09008 77.664062 303.80664 C 77.664062 171.10133 133.70078 71.940467 299.23828 68.527344 z M 750.91211 68.527344 L 963.81641 68.527344 L 1138.4141 532.23242 L 921.07422 532.23242 L 750.91211 68.527344 z M 1057.3848 68.527344 L 1500.7598 68.527344 C 1648.4747 68.527344 1722.334 144.6697 1722.334 296.95312 C 1722.334 450.75946 1648.4747 529.18677 1500.7598 532.23242 L 1227.5469 532.23242 L 1057.3848 68.527344 z " />
</svg>
