<?xml version="1.0" encoding="UTF-8" standalone="no"?>
<svg
   width="1250"
   height="800"
   id="svg2445"
   sodipodi:version="0.32"
   inkscape:version="1.4.2 (f4327f4, 2025-05-13)"
   sodipodi:docname="14021.svg"
   inkscape:output_extension="org.inkscape.output.svg.inkscape"
   version="1.1"
   xml:space="preserve"
   xmlns:inkscape="http://www.inkscape.org/namespaces/inkscape"
   xmlns:sodipodi="http://sodipodi.sourceforge.net/DTD/sodipodi-0.dtd"
   xmlns="http://www.w3.org/2000/svg"
   xmlns:svg="http://www.w3.org/2000/svg"
   xmlns:rdf="http://www.w3.org/1999/02/22-rdf-syntax-ns#"
   xmlns:cc="http://creativecommons.org/ns#"
   xmlns:dc="http://purl.org/dc/elements/1.1/"><metadata
     id="metadata2452"><rdf:RDF><cc:Work
         rdf:about=""><dc:format>image/svg+xml</dc:format><dc:type
           rdf:resource="http://purl.org/dc/dcmitype/StillImage" /></cc:Work></rdf:RDF></metadata><defs
     id="defs2450"><inkscape:perspective
       sodipodi:type="inkscape:persp3d"
       inkscape:vp_x="0 : 795.08 : 1"
       inkscape:vp_y="0 : 1000 : 0"
       inkscape:vp_z="24.098856 : 795.08 : 1"
       inkscape:persp3d-origin="12.049428 : 793.44 : 1"
       id="perspective2454" /></defs><sodipodi:namedview
     inkscape:window-height="998"
     inkscape:window-width="1680"
     inkscape:pageshadow="2"
     inkscape:pageopacity="0.0"
     guidetolerance="10.0"
     gridtolerance="10.0"
     objecttolerance="10.0"
     borderopacity="1.0"
     bordercolor="#666666"
     pagecolor="#ffffff"
     id="base"
     showgrid="false"
     inkscape:showpageshadow="2"
     inkscape:pagecheckerboard="0"
     inkscape:deskcolor="#d1d1d1"
     showguides="true"
     inkscape:zoom="0.29726769"
     inkscape:cx="1179.072"
     inkscape:cy="593.74095"
     inkscape:window-x="-8"
     inkscape:window-y="-8"
     inkscape:window-maximized="1"
     inkscape:current-layer="svg2445"><sodipodi:guide
       position="972.18773,571.22258"
       orientation="0,-1"
       id="guide1"
       inkscape:locked="false" /><sodipodi:guide
       position="44.737314,571.22258"
       orientation="1,0"
       id="guide2"
       inkscape:locked="false" /><sodipodi:guide
       position="625,800"
       orientation="-1,0"
       id="guide4"
       inkscape:locked="false"
       inkscape:label=""
       inkscape:color="rgb(0,134,229)" /><sodipodi:guide
       position="692.93184,773.63824"
       orientation="1,0"
       id="guide5"
       inkscape:locked="false" /><sodipodi:guide
       position="706.47003,845.19505"
       orientation="0,-1"
       id="guide6"
       inkscape:locked="false" /><sodipodi:guide
       position="0,800"
       orientation="1,0"
       id="guide7"
       inkscape:locked="false" /><sodipodi:guide
       position="1250,800"
       orientation="1,0"
       id="guide8"
       inkscape:locked="false" /><sodipodi:guide
       position="773.71341,-959.35703"
       orientation="1,0"
       id="guide16"
       inkscape:locked="false" /><sodipodi:guide
       position="983.65454,463.38758"
       orientation="0,-1"
       id="guide17"
       inkscape:locked="false" /><sodipodi:guide
       position="785.93945,97.4668"
       orientation="0.91742503,0.39790868"
       id="guide9"
       inkscape:locked="false" /><sodipodi:guide
       position="966.15454,480.88757"
       orientation="0,-1"
       id="guide3"
       inkscape:locked="false" /></sodipodi:namedview><path
     id="path3"
     style="fill:#000000;stroke:none;stroke-width:51.8696"
     d="M 758.9668 -91.533203 C 728.57002 -91.684561 697.76172 -67.260286 697.76172 -28.71875 C 697.76172 -14.397189 696.23978 -3.6700727 693.31641 3.7949219 C 690.39303 11.259916 686.62963 15.868308 679.23047 20.265625 C 664.43214 29.060259 632.48784 34.142578 577.66211 34.142578 C 521.37619 34.142578 484.45049 36.96876 459.64648 59.115234 C 447.24448 70.188472 439.65497 85.543206 435.45508 103.88477 C 433.1709 113.86011 431.74996 124.85243 430.92969 137.1543 C 280.33124 108.14578 140.34596 52.279179 40.404297 5.1992188 C 34.771519 1.9495371 29.58482 0.22263637 24.845703 0.01953125 C 16.947175 -0.31897729 10.291136 3.5750146 4.875 11.699219 C -3.7908524 24.697946 -0.9020376 35.52946 13.541016 44.195312 C 148.7279 123.92088 263.98258 174.47196 359.30664 195.84766 C 454.6307 217.22339 542.96352 227.91016 625 227.91016 C 707.03648 227.91016 795.3693 217.22339 890.69336 195.84766 C 940.39148 184.70323 995.50775 165.62801 1056.041 138.62305 L 1080.4883 163.08398 C 1097.1639 209.00598 1111.3745 245.76443 1144.7793 278.86523 C 1153.2118 287.22099 1166.5845 295.89489 1181.2305 301.61328 L 983.6543 301.61328 L 983.6543 228.77734 L 266.3457 228.77734 L 266.3457 301.61328 L 0 301.61328 L 0 336.61328 L 1250 336.61328 L 1250 301.61328 L 1236.9473 301.61328 C 1238.231 300.7837 1239.4732 299.86653 1240.668 298.85938 L 1240.6699 298.85742 C 1240.6773 298.85025 1240.6803 298.84276 1240.6855 298.83594 C 1240.6955 298.82894 1240.7039 298.82291 1240.7109 298.81641 C 1262.925 272.45638 1240.8818 223.29229 1220.7012 202.93164 C 1187.5957 169.53143 1150.8362 155.32557 1104.9121 138.65625 L 1089.4297 123.1875 C 1135.4959 101.16596 1184.5051 74.834784 1236.459 44.195312 C 1250.902 35.52946 1253.7909 24.697946 1245.125 11.699219 C 1239.7089 3.5750146 1233.0528 -0.31897729 1225.1543 0.01953125 C 1220.4152 0.22263637 1215.2285 1.9495371 1209.5957 5.1992188 C 1161.6371 27.791311 1104.4572 52.40726 1041.3086 75.107422 L 889.49219 -76.582031 C 883.09237 -77.214487 878.53785 -75.664173 872.28711 -69.511719 C 866.13584 -63.260359 864.58731 -58.706189 865.2207 -52.306641 L 1005.1152 87.669922 C 946.9094 107.14585 884.44384 124.50976 820.02344 136.9707 L 820.02344 -22.882812 C 820.02344 -44.296272 812.94239 -61.985274 801.32617 -73.849609 C 789.70995 -85.713945 774.16519 -91.457524 758.9668 -91.533203 z M 758.81836 -61.533203 C 766.68554 -61.494033 774.20767 -58.665666 779.89062 -52.861328 C 785.57358 -47.056991 790.02344 -37.978524 790.02344 -22.882812 L 790.02344 142.38672 C 735.68382 151.48534 680.22631 156.85156 625 156.85156 C 570.01717 156.85156 514.80514 151.53157 460.69531 142.50586 C 461.42163 129.82145 462.72157 119.21676 464.69922 110.58008 C 468.01063 96.118624 472.75134 87.631137 479.62695 81.492188 C 493.37817 69.214291 522.79754 64.142578 577.66211 64.142578 C 633.98686 64.142578 669.5926 60.892749 694.55664 46.056641 C 707.03866 38.638586 716.20939 27.605831 721.25 14.734375 C 726.29061 1.8629185 727.76172 -12.440517 727.76172 -28.71875 C 727.76172 -52.442729 743.084 -61.611551 758.81836 -61.533203 z M 1110.5938 168.76172 L 1110.5957 168.76172 C 1131.8099 173.25899 1169.9068 191.81424 1196.2617 218.14648 C 1212.0643 233.93277 1229.8785 265.70286 1221.7227 279.84375 C 1221.7127 279.84975 1221.7101 279.85117 1221.7031 279.85547 C 1221.7006 279.85772 1221.6967 279.86156 1221.6953 279.86328 C 1221.6948 279.86406 1221.6937 279.8684 1221.6934 279.86914 L 1221.6934 279.87109 C 1221.6931 279.87259 1221.6917 279.8732 1221.6914 279.875 C 1207.5517 288.0327 1175.782 270.22089 1159.9922 254.42188 C 1133.656 228.07098 1115.0939 189.97522 1110.5938 168.76172 z M 301.3457 263.77734 L 948.6543 263.77734 L 948.6543 301.61328 L 301.3457 301.61328 L 301.3457 263.77734 z " /></svg>
