<?xml version="1.0" encoding="UTF-8" standalone="no"?>
<svg
   width="25.899359"
   height="12.429106"
   version="1.1"
   id="svg1"
   sodipodi:docname="14038.svg"
   inkscape:version="1.4.2 (f4327f4, 2025-05-13)"
   xmlns:inkscape="http://www.inkscape.org/namespaces/inkscape"
   xmlns:sodipodi="http://sodipodi.sourceforge.net/DTD/sodipodi-0.dtd"
   xmlns="http://www.w3.org/2000/svg"
   xmlns:svg="http://www.w3.org/2000/svg">
  <defs
     id="defs1" />
  <sodipodi:namedview
     id="namedview1"
     pagecolor="#ffffff"
     bordercolor="#666666"
     borderopacity="1.0"
     inkscape:showpageshadow="2"
     inkscape:pageopacity="0.0"
     inkscape:pagecheckerboard="0"
     inkscape:deskcolor="#d1d1d1"
     showguides="true"
     inkscape:zoom="15.186129"
     inkscape:cx="8.5933685"
     inkscape:cy="-1.6133144"
     inkscape:window-width="1680"
     inkscape:window-height="998"
     inkscape:window-x="-8"
     inkscape:window-y="-8"
     inkscape:window-maximized="1"
     inkscape:current-layer="svg1">
    <sodipodi:guide
       position="1.758958,5.1992718"
       orientation="1,0"
       id="guide1"
       inkscape:locked="false" />
  </sodipodi:namedview>
  <path
     style="fill:#000000;stroke:none"
     d="m 12.493773,8.342115 c 1.000192,0 1.94865,-0.086223 2.845374,-0.258669 v -4.26806 c 0,-0.965702 -0.474229,-1.448553 -1.422687,-1.448553 h -2.819506 c -0.948457,0 -1.422686,0.482851 -1.422686,1.448553 v 4.449129 c 0.758766,0.051733 1.698601,0.0776 2.819505,0.0776 z m 0,2.198698 c 4.155969,-0.01725 8.070512,-1.6296227 11.743631,-4.837134 V 5.26394 H 23.82353 C 20.081434,7.7816633 16.304848,9.040525 12.493773,9.040525 v 0 c -2.46599,0 -4.6560647,-0.1681353 -6.570224,-0.504406 -1.91416,-0.3362713 -2.87124,-0.7716997 -2.87124,-1.306285 0.448362,-2.121096 0.448362,-4.1904583 0,-6.208087 H 2.483234 c 0.448362,2.0176287 0.448362,4.086991 0,6.208087 0,0.672542 0.7932557,1.3580183 2.379767,2.056429 1.5865107,0.6984093 3.4058247,1.10797 5.457942,1.228683 z m -9.932937,0.672543 v 0.51734 h 19.245066 v -0.51734 z M 20.745356,6.298621 19.1416,4.462062 V 6.99703 c 0.534585,-0.206936 1.069171,-0.439739 1.603756,-0.698409 z m 2.405632,2.302165 c -0.396627,0.3104047 -0.44405,0.6639207 -0.142268,1.060548 0.301781,0.396628 0.728586,0.776011 1.280417,1.138149 0.55183,0.362138 0.896724,0.482851 1.034681,0.362139 0.155203,-0.137958 0.09485,-0.504408 -0.181068,-1.099349 C 24.866834,9.4673317 24.560741,8.9887917 24.22447,8.626653 23.888198,8.264515 23.530371,8.2558927 23.150988,8.600786 Z m -0.594941,1.91416 v 1.91416 H 1.758958 v -1.91416 h 4.811267 c -0.4138727,0 -1.3192187,-0.306093 -2.716038,-0.91828 C 2.4573677,8.98448 1.758958,8.195536 1.758958,7.229834 2.1900747,5.108738 2.1814523,2.8496843 1.733091,0.452673 h 2.043495 c 0.448362,2.414256 0.448362,4.6733097 0,6.777161 0,0.206936 0.836367,0.4397393 2.509101,0.69841 0.9139687,0.155202 1.8710487,0.2586697 2.87124,0.310403 V 3.815386 C 9.1741723,2.5220347 9.8294703,1.875359 11.122821,1.875359 h 2.767772 c 1.293351,0 1.948649,0.6466757 1.965894,1.940027 v 4.138725 c 0.965702,-0.189692 1.836559,-0.4311177 2.61257,-0.724277 V 3.737785 l -2.767773,-3.12991 c -0.137957,-0.155202 -0.112089,-0.310404 0.0776,-0.465606 0.206937,-0.189692 0.362139,-0.189692 0.465606,0 l 2.224565,2.534968 V 1.073482 c 0,-0.15520267 0.11209,-0.232804 0.336271,-0.232804 0.224181,0 0.336272,0.0776013 0.336272,0.232804 v 2.353899 l 2.224563,2.534968 c 0.689788,-0.3276487 1.474421,-0.7587657 2.353899,-1.293351 h 1.21575 V 5.910615 C 24.211536,6.565913 23.513127,7.14361 22.840584,7.643706 l 0.336271,0.362138 c 0.465607,-0.3793827 0.913968,-0.340582 1.345085,0.116402 0.431117,0.456984 0.8105,1.064859 1.138149,1.823625 0.32765,0.758767 0.319028,1.28473 -0.02587,1.577889 -0.327648,0.275915 -0.840677,0.194003 -1.539087,-0.245736 -0.69841,-0.43974 -1.241618,-0.909658 -1.629624,-1.409754 -0.388005,-0.5000953 -0.323337,-0.9657017 0.194004,-1.396819 h -0.02587 L 22.271509,8.031712 C 20.61602,9.20435 18.874307,10.040717 17.04637,10.540813 Z"
     id="path1"
     sodipodi:nodetypes="scsssscsccccsssccccsccccccccccccsscssccccccscccccccssccccccccssscccccccsscssccccc" />
</svg>
