<?xml version="1.0" encoding="UTF-8" standalone="no"?>
<svg
   width="1067.8533"
   height="1000"
   version="1.1"
   id="svg410"
   sodipodi:docname="1404B.svg"
   inkscape:version="1.4.3 (0d15f75, 2025-12-25)"
   xmlns:inkscape="http://www.inkscape.org/namespaces/inkscape"
   xmlns:sodipodi="http://sodipodi.sourceforge.net/DTD/sodipodi-0.dtd"
   xmlns="http://www.w3.org/2000/svg"
   xmlns:svg="http://www.w3.org/2000/svg">
  <defs
     id="defs414" />
  <sodipodi:namedview
     id="namedview412"
     pagecolor="#ffffff"
     bordercolor="#000000"
     borderopacity="0.25"
     inkscape:showpageshadow="2"
     inkscape:pageopacity="0.0"
     inkscape:pagecheckerboard="0"
     inkscape:deskcolor="#d1d1d1"
     showgrid="false"
     inkscape:zoom="0.26693281"
     inkscape:cx="597.52864"
     inkscape:cy="436.43942"
     inkscape:window-width="1680"
     inkscape:window-height="998"
     inkscape:window-x="-8"
     inkscape:window-y="-8"
     inkscape:window-maximized="1"
     inkscape:current-layer="svg410"
     showguides="true">
    <sodipodi:guide
       position="417.61038,333.09425"
       orientation="0,-1"
       id="guide1"
       inkscape:locked="false" />
    <sodipodi:guide
       position="583.88574,215.79883"
       orientation="1,0"
       id="guide2"
       inkscape:locked="false" />
  </sodipodi:namedview>
  <path
     id="path408"
     style="fill:#000000;stroke:none;stroke-width:1"
     d="M 29.455078 0 C 31.717696 5.0908784 36.384403 12.58544 43.455078 22.484375 C 50.525746 32.383337 55.899408 46.242473 59.576172 64.060547 C 63.252904 81.878648 68.344584 93.898892 74.849609 100.12109 C 81.354628 106.34326 86.869302 110.58504 91.394531 112.84766 L 84.607422 112.84766 C 81.213485 114.54463 81.213485 116.52449 84.607422 118.78711 L 88.001953 118.78711 L 90.546875 128.12109 C 88.849927 128.68674 86.020133 130.38267 82.060547 133.21094 C 73.575732 138.30181 69.333984 144.52344 69.333984 151.87695 C 67.637036 151.87693 67.637036 150.04002 69.333984 146.36328 C 71.030946 142.68652 70.889946 138.86776 68.910156 134.9082 C 66.930359 130.94862 61.697679 129.81671 53.212891 131.51367 C 51.515923 130.94802 46.424268 133.49582 37.939453 139.15234 C 33.979894 141.41496 32 143.95884 32 146.78711 L 32 154.42383 L 37.091797 151.87695 C 43.879644 152.4426 48.687358 152.16062 51.515625 151.0293 C 54.343912 149.89801 55.193819 150.74596 54.0625 153.57422 C 52.931207 156.40248 53.213214 159.79625 54.910156 163.75586 C 57.738443 167.71544 60.566264 170.26128 63.394531 171.39258 L 63.394531 174.78711 C 61.131913 179.87799 60.565974 184.96965 61.697266 190.06055 C 56.606388 199.67663 54.0625 206.18028 54.0625 209.57422 C 54.0625 211.83684 56.32438 212.96875 60.849609 212.96875 C 60.186578 216.28393 59.388515 218.60805 63.394531 219.75586 C 60.530164 222.62021 62.171623 225.00624 65.091797 224.84766 C 62.829179 237.29206 66.788926 243.51367 76.970703 243.51367 L 88.849609 243.51367 C 89.415258 247.47326 93.375027 254.82682 100.72852 265.57422 C 100.16287 266.13987 98.040012 268.40174 94.363281 272.36133 C 90.686516 276.32091 87.435682 281.41258 84.607422 287.63477 L 42.181641 287.63477 C 42.181641 306.86698 49.819155 325.24988 65.091797 342.78516 C 76.970522 355.7952 92.241621 363.43269 110.9082 365.69531 C 114.86778 378.13968 124.20318 393.41275 138.91016 411.51367 C 199.47228 492.26308 296.1066 577.38184 443.51367 604.9668 L 167.75781 604.9668 L 167.75781 666.90625 L 417.61133 666.90625 L 417.61133 690.25586 L 355.92188 690.25586 L 355.92188 717.51562 L 379.81641 717.51562 C 395.01537 727.15397 402.62305 739.91306 402.62305 755.85352 L 374.27734 1000 L 405.99023 1000 L 415.4375 905.94727 L 750.70508 905.94727 L 761.24023 1000 L 793.49609 1000 L 765.14844 755.85352 C 765.14844 739.91306 772.75801 727.15396 787.95703 717.51562 L 812.39258 717.51562 L 812.39258 690.25586 L 753.5293 690.25586 L 753.5293 666.90625 L 1011.1465 666.90625 L 1011.1465 604.9668 L 715.875 604.9668 C 820.52098 585.73458 906.50172 541.89722 973.81445 473.45312 L 985.69336 489.57422 C 979.4712 493.53378 981.30808 504.42212 991.20703 522.24023 C 1001.1059 540.05831 1021.1888 569.04756 1051.4512 609.20898 C 1081.7137 649.37041 1109.2889 668.32119 1134.1777 666.05859 C 1144.925 644.56378 1134.7438 614.01569 1103.6328 574.41992 C 1072.5219 534.82414 1049.4704 507.81674 1034.4805 493.39258 C 1019.4907 478.96841 1008.8843 473.73575 1002.6621 477.69531 L 988.23828 459.02734 C 1001.2484 444.32035 1014.2595 428.48328 1027.2695 411.51367 C 1042.5421 393.41275 1052.1577 378.13968 1056.1172 365.69531 C 1101.6879 359.99898 1124.8438 316.77343 1124.8438 287.63477 L 1079.0254 287.63477 C 1069.975 283.10955 1063.4712 276.60395 1059.5117 268.11914 C 1071.3904 265.29085 1075.3502 253.41161 1071.3906 232.48242 L 1063.7539 195.15039 C 1071.6731 191.75648 1077.0447 186.38282 1079.873 179.0293 L 1098.541 194.30078 C 1110.4198 163.75548 1106.1761 138.30299 1085.8125 117.93945 L 1069.6934 134.06055 C 1061.7742 130.10099 1053.8546 127.27119 1045.9355 125.57422 L 1047.6309 118.78711 L 1051.0254 118.78711 C 1053.288 116.52449 1053.288 114.54463 1051.0254 112.84766 L 1044.2383 112.84766 C 1049.3292 110.58504 1054.9848 106.34326 1061.207 100.12109 C 1067.4291 93.898892 1072.5209 81.878648 1076.4805 64.060547 C 1080.44 46.242473 1085.8137 32.383337 1092.6016 22.484375 C 1099.3895 12.58544 1103.9151 5.0908784 1106.1777 0 C 1100.5212 1.6969683 1093.0268 7.9186091 1083.6934 18.666016 C 1074.98 28.699713 1066.8814 48.100747 1059.4004 76.869141 C 1060.0393 73.343037 1060.3594 69.499004 1060.3594 65.333984 C 1060.3594 52.32394 1056.1157 40.867686 1047.6309 30.96875 C 1039.1461 21.069815 1026.9848 16.121094 1011.1465 16.121094 C 995.30818 16.121094 983.14695 21.069815 974.66211 30.96875 C 966.17734 40.867686 961.93542 52.32394 961.93555 65.333984 C 961.93555 69.508314 962.25667 73.360025 962.89844 76.892578 C 955.39835 48.11116 947.15768 28.70246 938.17773 18.666016 C 928.56162 7.9186091 920.92609 1.6969683 915.26953 0 C 917.53214 5.0908784 922.19886 12.58544 929.26953 22.484375 C 936.3402 32.383337 941.71391 46.242473 945.39062 64.060547 C 949.06741 81.878648 954.15712 93.898892 960.66211 100.12109 C 967.16718 106.34326 972.68181 110.58504 977.20703 112.84766 L 970.41992 112.84766 C 967.02597 114.54463 967.02597 116.52449 970.41992 118.78711 L 973.81445 118.78711 L 976.35938 128.12109 C 974.66243 128.68674 971.83455 130.38267 967.875 133.21094 C 959.39015 138.30181 955.14844 144.52344 955.14844 151.87695 C 953.4515 151.87693 953.4515 150.04002 955.14844 146.36328 C 956.84538 142.68652 956.70243 138.86776 954.72266 134.9082 C 952.74288 130.94862 947.51017 129.81671 939.02539 131.51367 C 937.32838 130.94802 932.23869 133.49582 923.75391 139.15234 C 919.79436 141.41496 917.81445 143.95884 917.81445 146.78711 L 917.81445 154.42383 L 922.90625 151.87695 C 929.69408 152.4426 934.49984 152.16062 937.32812 151.0293 C 940.1564 149.89801 941.00634 150.74596 939.875 153.57422 C 938.74373 156.40248 939.02572 159.79625 940.72266 163.75586 C 943.55094 167.71544 946.3807 170.26128 949.20898 171.39258 L 949.20898 174.78711 C 946.9463 179.87799 946.38044 184.96965 947.51172 190.06055 C 942.42082 199.67663 939.875 206.18028 939.875 209.57422 C 939.875 211.83684 942.13689 212.96875 946.66211 212.96875 C 945.99914 216.28393 945.20294 218.60805 949.20898 219.75586 C 946.34462 222.62021 947.98607 225.00624 950.90625 224.84766 C 948.64364 237.29206 952.60142 243.51367 962.7832 243.51367 L 974.66211 243.51367 C 975.22778 247.47326 979.18752 254.82682 986.54102 265.57422 C 985.97535 266.13987 983.85444 268.40174 980.17773 272.36133 C 976.50094 276.32091 973.2482 281.41258 970.41992 287.63477 L 924.60156 287.63477 C 924.60156 321.43158 951.86678 355.33105 979.75391 362.30273 L 978.05664 364.84766 C 961.65269 385.77683 951.18733 398.22011 946.66211 402.17969 L 888.11719 324.96875 L 892.35938 321.57422 C 879.34938 301.2107 869.16795 292.01828 861.81445 293.99805 C 854.46098 295.97785 849.37125 298.94861 846.54297 302.9082 C 843.71468 306.86779 842.86684 311.39157 843.99805 316.48242 C 841.16977 319.31071 841.16977 322.4225 843.99805 325.81641 L 849.93555 321.57422 C 855.59217 322.13987 857.99694 324.26074 857.14844 327.9375 C 856.29987 331.61424 858.13692 336.28094 862.66211 341.9375 L 866.9043 338.54297 L 927.99609 416.60352 C 861.24899 470.34061 795.9169 506.26041 731.99805 524.36133 L 703.99805 224.84766 C 707.392 224.84766 709.08789 221.45387 709.08789 214.66602 C 709.08789 206.74689 707.67398 202.78711 704.8457 202.78711 C 704.8457 192.60535 713.04918 181.01004 729.45312 168 L 729.45312 147.63672 L 515.63477 95.878906 C 452.28155 75.515392 424.84721 89.656505 433.33203 138.30273 C 425.41301 138.86838 420.8873 138.72545 419.75586 137.87695 C 418.62457 137.02848 420.32246 132.6457 424.84766 124.72656 C 429.37289 116.80739 431.63477 110.30377 431.63477 105.21289 C 431.63477 100.68766 427.95897 95.877988 420.60547 90.787109 C 417.21156 86.827523 413.25183 84.847656 408.72656 84.847656 C 403.07006 84.847656 398.4014 85.272597 394.72461 86.121094 C 391.04788 86.969565 389.21094 89.938418 389.21094 95.029297 C 389.21094 98.423227 392.32272 100.12109 398.54492 100.12109 C 395.71666 102.3837 394.30273 105.21155 394.30273 108.60547 C 394.30273 120.4842 395.15074 129.81762 396.84766 136.60547 C 398.54463 143.39332 401.5154 147.35306 405.75781 148.48438 C 410.00021 149.61567 416.64683 149.33369 425.69727 147.63672 L 425.69727 168 C 442.10123 181.01004 450.30078 192.60535 450.30078 202.78711 C 447.47252 202.78711 446.05859 206.74689 446.05859 214.66602 C 446.05859 221.45387 447.75646 224.84766 451.15039 224.84766 L 420.60547 526.90625 C 364.60576 510.5023 315.81774 483.49295 274.24219 445.87695 C 232.66664 408.26101 204.24139 381.25162 188.96875 364.84766 L 186.42383 362.30273 C 198.30255 359.47444 209.04992 352.96691 218.66602 342.78516 C 233.93866 325.24988 241.57617 306.86698 241.57617 287.63477 L 193.21289 287.63477 C 184.16241 283.10955 177.65686 276.60395 173.69727 268.11914 C 185.576 265.29085 189.53573 253.41161 185.57617 232.48242 L 177.93945 195.15039 C 185.85859 191.75648 191.23229 186.38282 194.06055 179.0293 L 212.72656 194.30078 C 224.60532 163.75548 220.36354 138.30299 200 117.93945 L 183.87891 134.06055 C 175.95977 130.10099 168.04024 127.27119 160.12109 125.57422 L 161.81836 118.78711 L 165.21289 118.78711 C 167.4755 116.52449 167.4755 114.54463 165.21289 112.84766 L 158.42383 112.84766 C 163.51471 110.58504 169.17234 106.34326 175.39453 100.12109 C 181.6167 93.898892 186.70644 81.878648 190.66602 64.060547 C 194.62561 46.242473 199.99927 32.383337 206.78711 22.484375 C 213.57496 12.58544 218.10066 5.0908784 220.36328 0 C 214.70673 1.6969683 207.2122 7.9186091 197.87891 18.666016 C 189.16545 28.699713 181.0688 48.100747 173.58789 76.869141 C 174.22681 73.343037 174.54492 69.499004 174.54492 65.333984 C 174.54492 52.32394 170.30318 40.867686 161.81836 30.96875 C 153.33355 21.069815 141.1723 16.121094 125.33398 16.121094 C 109.49571 16.121094 97.334424 21.069815 88.849609 30.96875 C 80.3648 40.867686 76.121094 52.32394 76.121094 65.333984 C 76.121094 69.508314 76.442207 73.360025 77.083984 76.892578 C 69.583888 48.11116 61.3452 28.70246 52.365234 18.666016 C 42.7491 7.9186091 35.111606 1.6969683 29.455078 0 z M 125.33398 26.302734 C 137.21274 26.302734 146.54615 30.121495 153.33398 37.757812 C 160.12182 45.394129 163.51562 54.302618 163.51562 64.484375 C 164.0813 75.797457 160.5465 85.130879 152.91016 92.484375 C 145.27384 99.837891 136.08143 103.51562 125.33398 103.51562 C 114.5866 103.51562 105.39413 99.837891 97.757812 92.484375 C 90.121468 85.130879 86.304687 75.797457 86.304688 64.484375 C 86.304688 54.302618 89.698474 45.394129 96.486328 37.757812 C 103.27418 30.121495 112.88963 26.302734 125.33398 26.302734 z M 1011.1465 26.302734 C 1023.0253 26.302734 1032.3586 30.121495 1039.1465 37.757812 C 1045.9343 45.394129 1049.3281 54.302618 1049.3281 64.484375 C 1049.8938 75.797457 1046.359 85.130879 1038.7227 92.484375 C 1031.0863 99.837891 1021.8939 103.51562 1011.1465 103.51562 C 1000.3991 103.51562 991.20861 99.837891 983.57227 92.484375 C 975.93594 85.130879 972.11719 75.797457 972.11719 64.484375 C 972.11719 54.302618 975.511 45.394129 982.29883 37.757812 C 989.08667 30.121495 998.70213 26.302734 1011.1465 26.302734 z M 400.95508 87.710938 C 403.01834 87.710757 404.69159 89.384013 404.69141 91.447266 C 404.69087 93.510012 403.01783 95.181821 400.95508 95.181641 C 398.89234 95.181821 397.22124 93.510012 397.2207 91.447266 C 397.22052 89.384013 398.89183 87.710758 400.95508 87.710938 z M 471.30078 100.22656 C 478.37145 100.15586 486.9284 101.81896 496.96875 105.21289 L 684.48242 147.63672 L 447.75586 147.63672 C 442.24075 116.24294 450.08876 100.43867 471.30078 100.22656 z M 95.636719 118.78711 L 154.18164 118.78711 L 153.33398 123.87695 C 134.66741 122.18001 120.24232 121.898 110.06055 123.0293 C 104.40403 123.59494 100.16227 124.44291 97.333984 125.57422 L 95.636719 118.78711 z M 981.45117 118.78711 L 1039.9961 118.78711 L 1039.1465 123.87695 C 1020.4799 122.18001 1006.0567 121.898 995.875 123.0293 C 990.21844 123.59494 985.97477 124.44291 983.14648 125.57422 L 981.45117 118.78711 z M 118.20898 130.91797 C 120.23764 131.00107 122.33042 131.19841 124.48633 131.51367 C 130.14287 151.87719 134.38462 168.28216 137.21289 180.72656 C 140.04117 193.17093 137.19704 206.46413 125.31836 220.60547 L 131.27344 277.45312 C 144.28348 275.1905 153.89889 273.21062 160.12109 271.51367 C 162.38368 279.43282 167.1914 284.80649 174.54492 287.63477 L 100.72852 287.63477 C 102.99114 281.41258 106.94892 277.73484 112.60547 276.60352 L 123.63672 276.60352 L 123.63672 210.42383 C 133.11335 200.94719 133.4189 189.63571 132.89062 182.38867 C 132.26413 173.79453 127.23944 170.54492 116.84766 170.54492 L 101.57617 133.21094 C 106.59999 131.45287 112.123 130.66858 118.20898 130.91797 z M 1004.0234 130.91797 C 1006.0521 131.00107 1008.1429 131.19841 1010.2988 131.51367 C 1015.9553 151.87719 1020.1972 168.28216 1023.0254 180.72656 C 1025.8537 193.17093 1023.0114 206.46413 1011.1328 220.60547 L 1017.0859 277.45312 C 1030.0959 275.1905 1039.7133 273.21062 1045.9355 271.51367 C 1048.1981 279.43282 1053.0059 284.80649 1060.3594 287.63477 L 986.54102 287.63477 C 988.80363 281.41258 992.76336 277.73484 998.41992 276.60352 L 1009.4492 276.60352 L 1009.4492 210.42383 C 1018.9259 200.94719 1019.2333 189.63571 1018.7051 182.38867 C 1018.0786 173.79453 1013.0539 170.54492 1002.6621 170.54492 L 987.39062 133.21094 C 992.41443 131.45287 997.93745 130.66858 1004.0234 130.91797 z M 132.12109 132.36328 C 140.04025 132.36328 147.3938 133.21124 154.18164 134.9082 L 174.54492 235.0293 C 176.80754 248.605 172.28377 256.6655 160.9707 259.21094 C 149.65762 261.75638 142.58608 263.3113 139.75781 263.87695 L 134.66797 220.60547 C 142.02147 212.68634 145.41331 203.3529 144.84766 192.60547 C 144.84766 181.85806 140.6059 161.77728 132.12109 132.36328 z M 1017.9355 132.36328 C 1025.8547 132.36328 1033.2082 133.21124 1039.9961 134.9082 L 1060.3594 235.0293 C 1062.622 248.605 1058.0963 256.6655 1046.7832 259.21094 C 1035.4702 261.75638 1028.4005 263.3113 1025.5723 263.87695 L 1020.4805 220.60547 C 1027.834 212.68634 1031.2277 203.3529 1030.6621 192.60547 C 1030.6621 181.85806 1026.4203 161.77728 1017.9355 132.36328 z M 197.45508 134.06055 C 208.20251 145.37363 211.5963 159.79675 207.63672 177.33203 L 198.30273 168 C 200.56534 158.94953 197.7375 149.89812 189.81836 140.84766 L 197.45508 134.06055 z M 1083.2676 134.06055 C 1094.0151 145.37363 1097.4088 159.79675 1093.4492 177.33203 L 1084.1152 168 C 1086.3778 158.94953 1083.552 149.89812 1075.6328 140.84766 L 1083.2676 134.06055 z M 54.910156 136.60547 C 58.304092 136.60547 60 138.0194 60 140.84766 C 59.43435 143.67594 57.87945 145.23084 55.333984 145.51367 C 52.788545 145.79649 50.242705 146.22146 47.697266 146.78711 C 45.151827 147.35275 42.182973 147.63672 38.789062 147.63672 L 45.576172 145.93945 L 43.878906 141.69727 C 45.919298 139.65374 52.891319 136.60547 54.910156 136.60547 z M 93.939453 136.60547 L 109.21289 172.24219 C 97.334161 163.75741 84.606943 162.34347 71.03125 168 C 63.112104 166.30303 59.152344 162.62528 59.152344 156.96875 C 59.152344 151.31222 59.71831 147.49346 60.849609 145.51367 C 61.980901 143.53388 62.262916 141.41496 61.697266 139.15234 C 65.091203 139.15234 65.516142 142.1212 62.970703 148.06055 C 60.425263 153.99993 62.546157 158.66468 69.333984 162.05859 L 74.423828 162.05859 C 74.423828 150.17986 80.929429 141.69635 93.939453 136.60547 z M 940.72266 136.60547 C 944.11661 136.60547 945.81445 138.0194 945.81445 140.84766 C 945.24878 143.67594 943.69388 145.23084 941.14844 145.51367 C 938.60299 145.79649 936.05717 146.22146 933.51172 146.78711 C 930.96634 147.35275 927.99545 147.63672 924.60156 147.63672 L 931.39062 145.93945 L 929.69336 141.69727 C 931.73376 139.65374 938.7038 136.60547 940.72266 136.60547 z M 979.75391 136.60547 L 995.02734 172.24219 C 983.14862 163.75741 970.42143 162.34347 956.8457 168 C 948.92659 166.30303 944.96484 162.62528 944.96484 156.96875 C 944.96484 151.31222 945.53084 147.49346 946.66211 145.51367 C 947.79345 143.53388 948.07739 141.41496 947.51172 139.15234 C 950.90567 139.15234 951.32864 142.1212 948.7832 148.06055 C 946.23775 153.99993 948.3606 158.66468 955.14844 162.05859 L 960.23828 162.05859 C 960.23828 150.17986 966.74391 141.69635 979.75391 136.60547 z M 53.212891 138.30273 C 52.081572 138.30273 51.515625 138.86871 51.515625 140 C 51.515625 141.69697 52.081572 142.26295 53.212891 141.69727 C 54.909859 141.69727 55.757812 141.13129 55.757812 140 C 55.757812 138.86871 54.909859 138.30273 53.212891 138.30273 z M 166.06055 138.30273 C 179.63625 142.82796 186.98977 150.18152 188.12109 160.36328 C 189.25238 170.54503 185.01064 178.74655 175.39453 184.96875 L 166.06055 138.30273 z M 939.02539 138.30273 C 937.89405 138.30273 937.32812 138.86871 937.32812 140 C 937.32812 141.69697 937.89405 142.26295 939.02539 141.69727 C 940.72233 141.69727 941.57227 141.13129 941.57227 140 C 941.57227 138.86871 940.72233 138.30273 939.02539 138.30273 z M 1051.873 138.30273 C 1065.4486 142.82796 1072.8042 150.18152 1073.9355 160.36328 C 1075.0668 170.54503 1070.8231 178.74655 1061.207 184.96875 L 1051.873 138.30273 z M 445.21094 168 L 710.78516 168 C 697.2095 177.05046 690.42188 188.64576 690.42188 202.78711 L 464.72656 202.78711 C 464.72656 188.64576 458.22096 177.05046 445.21094 168 z M 87.523438 172.82422 C 90.387064 172.71816 93.091273 173.09097 95.636719 173.93945 C 102.42456 176.20206 105.81836 180.72582 105.81836 187.51367 L 113.45508 187.51367 C 113.45508 181.29147 115.15099 178.18164 118.54492 178.18164 C 122.50448 178.18164 123.92035 182.42338 122.78906 190.9082 C 121.65774 199.39298 117.97999 205.61463 111.75781 209.57422 L 111.75781 256.24219 L 108.36328 256.24219 C 106.66631 254.54522 104.9704 251.85642 103.27344 248.17969 C 101.57647 244.50293 100.16255 239.5542 99.03125 233.33203 L 81.212891 233.33203 C 76.122012 233.33203 73.576172 231.9181 73.576172 229.08984 C 74.141821 223.43328 76.403695 220.60547 80.363281 220.60547 C 80.363281 217.21156 79.515327 215.51367 77.818359 215.51367 L 67.636719 215.51367 C 69.899336 211.55408 67.91947 208.72627 61.697266 207.0293 C 61.697266 204.76669 64.243099 199.11099 69.333984 190.06055 C 69.333984 182.14139 70.181938 177.89768 71.878906 177.33203 C 77.535447 174.50376 82.750733 173.00099 87.523438 172.82422 z M 973.33594 172.82422 C 976.19957 172.71816 978.90572 173.09097 981.45117 173.93945 C 988.239 176.20206 991.63281 180.72582 991.63281 187.51367 L 999.26953 187.51367 C 999.26953 181.29147 1000.9655 178.18164 1004.3594 178.18164 C 1008.319 178.18164 1009.7329 182.42338 1008.6016 190.9082 C 1007.4703 199.39298 1003.7944 205.61463 997.57227 209.57422 L 997.57227 256.24219 L 994.17773 256.24219 C 992.48078 254.54522 990.7849 251.85642 989.08789 248.17969 C 987.39095 244.50293 985.97503 239.5542 984.84375 233.33203 L 967.02539 233.33203 C 961.93456 233.33203 959.39062 231.9181 959.39062 229.08984 C 959.95629 223.43328 962.21811 220.60547 966.17773 220.60547 C 966.17773 217.21156 965.32975 215.51367 963.63281 215.51367 L 953.45117 215.51367 C 955.71378 211.55408 953.73395 208.72627 947.51172 207.0293 C 947.51172 204.76669 950.05755 199.11099 955.14844 190.06055 C 955.14844 182.14139 955.99641 177.89768 957.69336 177.33203 C 963.34992 174.50376 968.56323 173.00099 973.33594 172.82422 z M 82.273438 176.9082 C 78.455275 176.9082 74.707995 177.89912 71.03125 179.87891 L 71.878906 184.96875 C 78.666753 181.00916 86.020308 180.44322 93.939453 183.27148 L 103.27344 183.27148 L 103.27344 179.87891 L 93.939453 179.87891 C 89.97988 177.89912 86.091594 176.9082 82.273438 176.9082 z M 968.08789 176.9082 C 964.26979 176.9082 960.52248 177.89912 956.8457 179.87891 L 957.69336 184.96875 C 964.48119 181.00916 971.83481 180.44322 979.75391 183.27148 L 989.08789 183.27148 L 989.08789 179.87891 L 979.75391 179.87891 C 975.79436 177.89912 971.90606 176.9082 968.08789 176.9082 z M 82.988281 183.61719 C 82.016065 183.59949 81.000053 183.62491 79.939453 183.69531 C 75.697072 183.97816 72.162271 187.51293 69.333984 194.30078 C 72.162271 195.43207 75.556066 195.99805 79.515625 195.99805 C 84.040861 195.99805 87.15264 193.73617 88.849609 189.21094 L 103.27344 189.21094 L 103.27344 184.96875 L 90.546875 184.96875 C 88.425675 184.12026 85.90494 183.67022 82.988281 183.61719 z M 968.80273 183.61719 C 967.83051 183.59949 966.81456 183.62491 965.75391 183.69531 C 961.51159 183.97816 957.97672 187.51293 955.14844 194.30078 C 957.97672 195.43207 961.37052 195.99805 965.33008 195.99805 C 969.8553 195.99805 972.96517 193.73617 974.66211 189.21094 L 989.08789 189.21094 L 989.08789 184.96875 L 976.35938 184.96875 C 974.23821 184.12026 971.71937 183.67022 968.80273 183.61719 z M 470.66602 224.84766 L 684.48242 224.84766 L 713.33008 530.30078 L 674.30078 538.78516 L 649.69531 252.84766 L 505.45312 252.84766 L 480.84766 540.48242 L 443.51367 531.99609 L 470.66602 224.84766 z M 519.87695 268.11914 L 635.26953 268.11914 L 656.48242 542.17969 C 602.74535 548.40194 550.14051 548.11793 498.66602 541.33008 L 519.87695 268.11914 z M 71.03125 307.15039 L 212.72656 307.15039 C 209.8983 321.29173 201.83777 331.75512 188.54492 338.54297 C 175.25206 345.33082 159.83801 348.72461 142.30273 348.72461 C 124.20183 348.72461 108.50576 345.33082 95.212891 338.54297 C 81.920019 331.75512 73.85951 321.29173 71.03125 307.15039 z M 953.45117 307.15039 L 1095.1465 307.15039 C 1087.4392 345.68663 1039.618 348.72461 1024.7227 348.72461 C 1008.6423 348.72461 962.61452 345.33066 953.45117 307.15039 z M 136.36328 367.39258 L 160.12109 367.39258 L 172 380.9668 C 281.17118 508.80454 416.92885 572.72461 579.27148 572.72461 C 746.70495 572.72461 885.00652 508.80454 994.17773 380.9668 L 1006.0566 367.39258 L 1030.6621 367.39258 C 1027.2682 374.74608 1020.4806 384.0795 1010.2988 395.39258 C 906.2186 528.88685 762.5433 595.63281 579.27148 595.63281 C 398.82793 595.63281 257.97859 528.88685 156.72656 395.39258 C 146.5448 384.0795 139.7572 374.74609 136.36328 367.39258 z M 1011.1426 487.73242 C 1014.3158 487.91449 1021.7812 494.26954 1031.0859 503.57422 C 1042.6818 515.17009 1061.7737 538.78372 1088.3594 574.41992 C 1114.9452 610.05608 1126.8224 635.7945 1123.9941 651.63281 C 1107.0245 649.93587 1084.5409 631.41003 1056.541 596.05664 C 1028.5411 560.70328 1010.5813 536.09874 1002.6621 522.24023 C 994.74298 508.38179 991.91511 500.60329 994.17773 498.90625 L 1048.4805 564.24023 C 1077.469 598.91325 1093.1621 615.59023 1095.3105 614.20117 C 1097.4589 612.81212 1084.966 593.37102 1059.5117 556.60352 L 1010.2988 487.87695 C 1010.5325 487.76009 1010.8143 487.71359 1011.1426 487.73242 z M 193.21289 627.02734 L 986.54102 627.02734 L 986.54102 643.99609 L 193.21289 643.99609 L 193.21289 627.02734 z M 432.70703 666.90625 L 462.13867 666.90625 L 462.13867 690.25586 L 432.70703 690.25586 L 432.70703 666.90625 z M 478.21289 666.90625 L 695.09766 666.90625 L 695.09766 690.25586 L 478.21289 690.25586 L 478.21289 666.90625 z M 710.08594 666.90625 L 738.54102 666.90625 L 738.54102 690.25586 L 710.08594 690.25586 L 710.08594 666.90625 z M 403.16602 717.51562 L 764.0625 717.51562 C 754.42394 727.89541 749.61914 738.47801 749.61914 749.22852 L 417.61133 749.22852 C 417.61133 738.47801 412.80419 727.89542 403.16602 717.51562 z M 429.88281 784.20117 L 555.53906 784.20117 L 555.53906 857.07422 L 422.0625 857.07422 L 429.88281 784.20117 z M 571.07031 784.20117 L 596.70117 784.20117 L 596.70117 857.07422 L 571.07031 857.07422 L 571.07031 784.20117 z M 611.68945 784.20117 L 737.3457 784.20117 L 745.16602 857.07422 L 611.68945 857.07422 L 611.68945 784.20117 z M 419.34766 873.14844 L 747.99023 873.14844 L 749.07617 892.04688 L 418.80273 892.04688 L 419.34766 873.14844 z " />
</svg>
