<?xml version="1.0" encoding="UTF-8" standalone="no"?>
<svg
   width="1250"
   height="1000"
   id="svg2666"
   sodipodi:version="0.32"
   inkscape:version="1.4.3 (0d15f75, 2025-12-25)"
   sodipodi:docname="14057.svg"
   inkscape:output_extension="org.inkscape.output.svg.inkscape"
   version="1.0"
   xmlns:inkscape="http://www.inkscape.org/namespaces/inkscape"
   xmlns:sodipodi="http://sodipodi.sourceforge.net/DTD/sodipodi-0.dtd"
   xmlns="http://www.w3.org/2000/svg"
   xmlns:svg="http://www.w3.org/2000/svg"
   xmlns:rdf="http://www.w3.org/1999/02/22-rdf-syntax-ns#"
   xmlns:cc="http://creativecommons.org/ns#"
   xmlns:dc="http://purl.org/dc/elements/1.1/">
  <metadata
     id="metadata2673">
    <rdf:RDF>
      <cc:Work
         rdf:about="">
        <dc:format>image/svg+xml</dc:format>
        <dc:type
           rdf:resource="http://purl.org/dc/dcmitype/StillImage" />
      </cc:Work>
    </rdf:RDF>
  </metadata>
  <defs
     id="defs2671">
    <inkscape:perspective
       sodipodi:type="inkscape:persp3d"
       inkscape:vp_x="0 : -793.28 : 1"
       inkscape:vp_y="0 : 1000 : 0"
       inkscape:vp_z="25.861565 : -793.28 : 1"
       inkscape:persp3d-origin="12.930782 : -795.52 : 1"
       id="perspective2675" />
  </defs>
  <sodipodi:namedview
     inkscape:window-height="998"
     inkscape:window-width="1680"
     inkscape:pageshadow="2"
     inkscape:pageopacity="0.0"
     guidetolerance="10.0"
     gridtolerance="10.0"
     objecttolerance="10.0"
     borderopacity="1.0"
     bordercolor="#666666"
     pagecolor="#ffffff"
     id="base"
     showgrid="false"
     inkscape:zoom="0.39126576"
     inkscape:cx="330.97708"
     inkscape:cy="918.81283"
     inkscape:window-x="-8"
     inkscape:window-y="-8"
     inkscape:current-layer="svg2666"
     inkscape:showpageshadow="2"
     inkscape:pagecheckerboard="0"
     inkscape:deskcolor="#d1d1d1"
     inkscape:window-maximized="1"
     showguides="true" />
  <path
     id="path1"
     style="fill:#000000;stroke:none;stroke-width:1"
     d="M 393.63672 187.79492 L 393.63672 187.8125 C 384.35133 187.24202 374.74078 187.28999 364.9375 187.92383 C 324.11144 190.56358 294.4528 207.72039 284.32812 230.97266 C 282.63912 234.8264 277.99764 244.56545 286.01758 242.47266 C 313.34133 239.04618 310.55102 248.02535 314.61133 249.01562 C 318.00051 259.63655 325.49169 280.88095 326.00586 289.21484 C 316.8312 321.60783 320.2348 355.5734 323.57812 371.93359 C 329.20925 399.48514 347.30448 431.54301 371.05859 461.51172 C 370.5329 463.5736 370.35392 465.66929 371.05859 467.73633 C 382.39054 502.4294 395.58852 549.35739 405.03125 593.29297 C 414.47362 637.2282 419.81034 678.97775 416.95508 699.54102 C 416.1348 705.19153 419.7467 710.51604 425.28906 711.88477 C 426.94824 712.29862 428.43573 713.04851 430.03711 713.57422 L 399.11133 824.57617 C 373.84431 813.3554 342.39843 815.48073 325.88867 807.73047 C 316.34435 803.14679 279.92159 803.65262 268.54883 818.94922 C 243.0683 808.60502 219.48577 797.57117 197.80078 785.84961 C 256.40383 745.94958 290.07059 677.37147 298.79883 580.11523 L 146.36719 507.17383 C 128.28779 492.83496 122.67735 460.1044 129.53516 408.98242 C 84.647736 399.63092 48.020766 421.76323 19.654297 475.37891 C -8.7121831 528.99423 -6.3742606 571.69876 26.667969 603.49414 C 64.697567 569.20506 95.245359 555.8018 118.3125 563.2832 L 200.60742 616.58594 C 201.23068 673.31854 142.93851 729.74025 25.732422 785.84961 C 222.11499 929.24112 421.92562 1000.6246 625.16602 1000 C 828.4064 1000 1028.2189 928.61652 1224.6016 785.84961 C 1107.394 729.74025 1049.1019 673.31854 1049.7266 616.58594 L 1131.0859 563.2832 C 1154.1531 555.8018 1184.7005 569.20506 1222.7305 603.49414 C 1256.3959 571.69876 1258.891 528.99423 1230.2129 475.37891 C 1201.5348 421.76323 1164.7508 399.63092 1119.8633 408.98242 C 1126.7211 460.1044 1121.111 492.83496 1103.0312 507.17383 L 950.60156 580.11523 C 959.32947 677.37147 993.30665 745.94958 1052.5332 785.84961 L 1052.5332 785.85352 C 1022.4119 802.15775 988.30986 817.17626 950.22656 830.9082 C 949.78161 829.99312 949.20683 829.13259 948.51172 828.35938 C 920.5914 797.11589 891.74105 766.98824 863.78906 736.35547 C 916.96681 769.06649 985.86872 810.80557 980.16602 800.92773 C 976.61651 794.78097 946.28634 772.48411 913.37695 749.22852 C 918.60652 751.41341 923.74035 753.73783 928.99414 755.875 C 929.1806 755.98683 929.42934 756.17383 929.62695 756.29688 C 933.50494 757.59438 935.65007 758.47745 939.75586 758.61914 C 940.78119 758.65394 941.91513 758.54558 943.87109 757.98633 C 945.82853 757.41216 949.11438 755.77181 950.93945 752.28906 C 952.76268 748.80664 952.40588 745.22778 951.7832 743.32031 C 951.16428 741.41133 950.35525 740.41915 949.77734 739.625 C 947.46197 736.44835 945.89856 735.54931 943.65625 733.82227 C 941.41544 732.09599 938.83721 730.2058 935.95508 728.23047 C 930.19013 724.28165 923.28843 719.83209 917.38477 715.88477 C 911.48073 711.93743 906.1193 708.11091 905.04102 707.12695 C 904.70545 706.79141 904.34978 706.46483 903.98438 706.17773 C 855.16377 671.82321 806.34738 637.53474 757.53906 603.19922 C 757.24079 602.97556 756.81054 603.17382 756.48242 602.97656 C 706.29605 532.6527 659.09952 459.00939 604.23242 391.2168 C 576.22116 356.60648 544.06463 296.06974 491.86523 275.89648 C 489.34851 260.99377 483.66354 233.47955 463.48242 213.85547 C 446.31841 197.16496 421.49325 189.50928 393.63672 187.79492 z M 380.01172 205.26562 C 405.12399 205.66124 425.24699 213.08429 439.42773 223.26367 C 439.65139 225.28078 440.15907 227.30618 439.72656 229.2793 C 437.87724 238.61688 432.39679 247.26156 424.84961 253.01758 C 412.96174 260.79631 398.61112 263.03997 385.07227 266.41797 C 381.67565 266.75353 384.35325 267.57763 386.23242 267.89453 C 395.48649 269.49779 415.3994 271.93494 424.74219 271.58594 C 435.20316 270.38908 445.07207 266.03733 453.54688 259.87305 C 456.5222 257.37122 459.08264 254.26219 461.25 251.01172 C 466.80319 264.02258 469.80704 277.84009 471.06055 285.51367 C 471.74288 289.64779 474.65942 293.01565 478.6582 294.26953 C 521.49839 307.40382 555.35388 366.1431 587.01758 405.26562 C 652.0981 485.678 707.41384 575.60081 771.13086 659.64844 C 735.87776 642.50009 700.74082 625.17441 665.41016 607.94922 C 593.11356 569.92812 517.83876 539.60541 454.49609 491.67773 C 454.38426 491.60313 454.27383 491.45549 454.19922 491.38086 C 417.70118 460.99715 380.35079 428.9195 366.20312 386.29297 C 360.61264 351.66142 432.31807 289.31065 424.23438 286.69141 C 409.67841 281.97524 356.3381 326.70392 345.83984 369.19922 C 345.728 368.6586 345.41869 368.04119 345.31055 367.51172 C 342.57012 354.09482 339.49076 320.23077 347.8418 293.02148 C 348.22955 291.75008 348.3457 290.44454 348.26367 289.11719 C 347.67083 278.16555 346.00804 271.6662 343.62109 265.27148 C 341.23485 258.87678 338.38157 252.31505 333.80859 236.4668 C 332.64904 232.41171 328.4843 224.13265 326 223.49023 C 332.99536 218.30614 340.08735 212.91709 350.26758 209.35156 C 347.29598 212.22249 345.30859 216.37622 345.30859 221.16992 C 345.30859 229.8099 351.46518 236.78516 359.02539 236.78516 C 366.58563 236.78516 372.74219 229.8099 372.74219 221.16992 L 372.74219 221.05664 C 372.70509 214.12614 368.62074 208.40699 363.14062 206.39062 C 365.12791 206.12965 366.73087 205.69051 368.94336 205.54883 L 368.94727 205.53906 C 372.73563 205.29624 376.42425 205.20911 380.01172 205.26562 z M 99.609375 440.77734 C 92.751555 481.30063 105.53219 510.28993 137.95117 527.74609 L 269.80859 596.94727 C 260.45708 694.82676 215.56981 757.79476 135.14648 785.84961 C 292.25262 877.49489 455.59146 923.31836 625.16602 923.31836 C 794.74096 923.31836 958.08183 877.49489 1115.1875 785.84961 C 1034.141 757.79476 989.25368 694.82676 980.52539 596.94727 L 1112.3828 527.74609 C 1144.1778 510.28993 1156.6469 481.30063 1149.7891 440.77734 C 1167.8689 440.77734 1185.6357 457.14279 1203.0918 489.87305 C 1220.548 522.60365 1223.9773 546.44964 1213.3789 561.41211 C 1184.0776 532.73401 1153.2178 526.81197 1120.7988 543.64453 L 1013.2559 604.42969 C 1019.4899 674.87792 1069.0531 735.35123 1161.9453 785.84961 C 988.00663 904.9258 809.07981 964.46484 625.16602 964.46484 C 441.25223 964.46484 262.01542 904.9258 87.453125 785.84961 C 180.96884 735.35123 230.84391 674.87792 237.07812 604.42969 L 128.59961 543.64453 C 96.180971 526.81197 65.321213 532.73401 36.019531 561.41211 C 26.044769 546.44964 29.784071 522.60365 47.240234 489.87305 C 64.696397 457.14279 82.153212 440.77734 99.609375 440.77734 z M 403.13281 497.37891 C 405.58987 499.83225 408.22456 502.04911 410.73047 504.44727 C 418.78695 533.79295 426.24839 566.18459 436.79102 591.17578 C 454.9718 634.27471 482.53394 671.76364 506.00391 709.875 C 500.25948 712.95845 495.2881 716.4682 491.54883 720.00391 C 488.48028 722.90465 486.46421 724.82913 484.05859 727.2832 C 472.42388 711.96811 457.48583 700.08986 439.42773 693.51953 C 441.11672 666.31286 435.35916 629.1119 426.66211 588.64453 C 419.94191 557.37495 411.55655 526.22538 403.13281 497.37891 z M 441.01172 531.56445 C 484.22768 567.14248 532.35839 596.98421 579.33398 627.1543 C 578.65541 661.39212 578.67832 694.0701 582.5 727.81055 C 566.97164 714.81309 550.16652 705.37069 528.79492 700.16797 C 527.89635 699.94431 527.14732 700.58789 526.26367 700.58789 C 501.86603 660.56347 474.21916 623.08138 457.1543 582.62891 C 451.29516 568.73924 446.12405 550.6391 441.01172 531.56445 z M 499.89844 547.71289 C 550.85389 577.33807 604.65329 600.9351 655.51172 627.68164 C 655.58632 627.71884 655.65974 627.75769 655.73438 627.79492 C 704.47671 651.5591 753.07834 675.99614 802.28711 699.43555 C 839.31794 744.18768 879.50675 785.80117 918.13672 828.15625 C 891.16008 832.67965 864.18755 837.24418 837.21094 841.76758 C 783.70509 783.58436 730.13121 725.54256 676.625 667.35938 C 676.20367 666.85603 675.75724 666.40962 675.25391 665.98828 C 618.83059 623.20962 556.61526 587.63551 499.89844 547.71289 z M 601.5957 641.81836 C 621.89762 655.1264 641.9143 668.62486 660.89258 682.9668 C 715.56172 742.41507 770.29143 801.82906 824.96094 861.27734 C 827.4814 864.03268 831.1906 865.24423 834.87695 864.65625 C 838.40456 864.06481 841.93284 863.47379 845.46094 862.88477 C 826.94833 867.66414 807.7554 872.22445 787.88281 876.56445 C 738.22499 887.40792 688.63269 893.3202 639.10547 894.30078 C 626.71763 879.26947 604.72653 865.46818 590.93555 870.10352 C 577.95134 865.9624 562.77359 863.34063 547.28906 860.7832 L 541.66602 727.80664 C 559.99222 735.43249 573.90603 747.22043 589.88477 766.21289 C 593.1621 769.9891 598.56612 771.11583 603.07422 768.95703 C 607.58232 766.79824 610.08298 761.84673 609.19336 756.92773 C 601.95156 717.84773 601.15948 680.9804 601.5957 641.81836 z M 456.30859 729.28711 C 462.46801 735.0409 468.07645 741.68645 472.875 749.65234 C 474.48195 752.28837 477.2319 754.1004 480.25977 754.71484 C 483.28731 755.33005 486.40321 754.72527 488.91211 752.92188 C 497.03755 747.03909 501.99243 740.73771 506.84766 736.14648 C 508.63734 734.45374 510.49925 733.0966 512.44141 731.71484 L 518.4043 854.58594 C 500.54895 849.59645 481.39338 842.80767 470.57031 849.7793 C 464.06921 841.92629 447.02159 838.13896 427.41992 834.53125 L 456.30859 729.28711 z M 296.66211 829.79883 C 311.13783 832.41388 341.42598 832.37939 350.86719 841.13672 C 397.00987 848.96075 418.51973 857.53572 466.32422 867.86328 C 495.40824 873.73139 547.54046 883.50612 576.46875 888.08008 C 585.87324 890.12519 592.74204 892.23438 598.44336 893.99609 C 553.36961 892.43002 508.35019 886.77413 463.38477 877.02734 C 401.43406 863.5986 345.86016 847.8554 296.66211 829.79883 z " />
</svg>
