<?xml version="1.0" encoding="UTF-8" standalone="no"?>
<svg
   width="1250"
   height="1000"
   id="svg2666"
   sodipodi:version="0.32"
   inkscape:version="1.4.3 (0d15f75, 2025-12-25)"
   sodipodi:docname="14058.svg"
   inkscape:output_extension="org.inkscape.output.svg.inkscape"
   version="1.0"
   xmlns:inkscape="http://www.inkscape.org/namespaces/inkscape"
   xmlns:sodipodi="http://sodipodi.sourceforge.net/DTD/sodipodi-0.dtd"
   xmlns="http://www.w3.org/2000/svg"
   xmlns:svg="http://www.w3.org/2000/svg"
   xmlns:rdf="http://www.w3.org/1999/02/22-rdf-syntax-ns#"
   xmlns:cc="http://creativecommons.org/ns#"
   xmlns:dc="http://purl.org/dc/elements/1.1/">
  <metadata
     id="metadata2673">
    <rdf:RDF>
      <cc:Work
         rdf:about="">
        <dc:format>image/svg+xml</dc:format>
        <dc:type
           rdf:resource="http://purl.org/dc/dcmitype/StillImage" />
      </cc:Work>
    </rdf:RDF>
  </metadata>
  <defs
     id="defs2671">
    <inkscape:perspective
       sodipodi:type="inkscape:persp3d"
       inkscape:vp_x="0 : -793.28 : 1"
       inkscape:vp_y="0 : 1000 : 0"
       inkscape:vp_z="25.861565 : -793.28 : 1"
       inkscape:persp3d-origin="12.930782 : -795.52 : 1"
       id="perspective2675" />
  </defs>
  <sodipodi:namedview
     inkscape:window-height="998"
     inkscape:window-width="1680"
     inkscape:pageshadow="2"
     inkscape:pageopacity="0.0"
     guidetolerance="10.0"
     gridtolerance="10.0"
     objecttolerance="10.0"
     borderopacity="1.0"
     bordercolor="#666666"
     pagecolor="#ffffff"
     id="base"
     showgrid="false"
     inkscape:zoom="0.27666667"
     inkscape:cx="-92.168673"
     inkscape:cy="1339.1566"
     inkscape:window-x="-8"
     inkscape:window-y="-8"
     inkscape:current-layer="svg2666"
     inkscape:showpageshadow="2"
     inkscape:pagecheckerboard="0"
     inkscape:deskcolor="#d1d1d1"
     inkscape:window-maximized="1"
     showguides="true" />
  <path
     id="path2668"
     style="fill:#000000;stroke:none;stroke-width:1"
     d="M 334.42969 168.44141 L 334.42969 168.45703 C 325.88179 167.93186 317.03443 167.97711 308.00977 168.56055 C 270.42624 170.99064 243.12326 186.78396 233.80273 208.18945 C 232.24786 211.73711 227.97445 220.7039 235.35742 218.77734 C 260.51103 215.62644 257.94186 223.88721 261.67969 224.79883 C 264.79967 234.57621 271.69661 254.13273 272.16992 261.80469 C 263.72395 291.62493 266.85776 322.89428 269.93555 337.95508 C 275.11941 363.31839 291.77704 392.82947 313.64453 420.41797 C 313.16056 422.31607 312.9958 424.24553 313.64453 426.14844 C 324.07644 458.08605 336.22714 501.28635 344.91992 541.73242 C 353.61232 582.17815 358.52304 620.61096 355.89453 639.54102 C 355.13943 644.74277 358.46617 649.64622 363.56836 650.90625 C 365.09576 651.28722 366.46527 651.97697 367.93945 652.46094 L 339.55078 753.79297 C 316.88095 742.22501 287.86812 742.61715 273.07617 734.67383 C 264.92578 730.20391 234.07405 728.77646 221.50781 740.36133 C 213.36912 736.23544 205.23932 731.93955 197.12891 727.46484 C 256.13939 687.86575 289.52846 619.53905 297.29297 522.48242 L 145.88477 450.27148 C 128.02633 436.29536 122.59199 403.68535 129.58008 352.43945 C 123.9508 351.27477 118.45048 350.59624 113.08203 350.4082 C 75.502886 349.09186 44.315543 371.70354 19.517578 418.24219 C -8.8229542 471.42923 -6.3015543 513.93891 27.085938 545.77344 C 65.132151 511.60952 95.414525 498.41129 117.93164 506.17578 L 199.45898 559.75195 C 200.23543 615.65657 142.39178 671.56022 25.923828 727.46484 C 159.47373 824.52147 291.46992 888.19094 421.91406 918.47266 L 0.29882812 918.47266 L 0.29882812 1000 L 1250 1000 L 1250 918.47266 L 1245.3418 918.47266 C 1243.0125 899.06128 1232.9189 875.57189 1215.0605 848.00781 C 1197.2021 820.44373 1163.8149 808.99168 1114.8984 813.65039 L 1104.416 803.16992 C 1138.58 784.53507 1177.0138 759.29943 1219.7188 727.46484 C 1103.2507 671.56022 1045.4051 615.65657 1046.1816 559.75195 L 1127.709 506.17578 C 1150.2262 498.41129 1180.5085 511.60952 1218.5547 545.77344 C 1251.9422 513.93891 1254.4655 471.42923 1226.125 418.24219 C 1197.7844 365.05516 1161.0969 343.12201 1116.0625 352.43945 C 1123.0506 403.68535 1117.6163 436.29536 1099.7578 450.27148 L 948.34961 522.48242 C 956.11411 619.53905 989.50128 687.86575 1048.5117 727.46484 L 1038.0293 732.12305 L 927.38281 614.49023 L 927.38281 555.0918 C 927.38281 548.88016 921.94847 545.77344 911.07812 545.77344 C 900.20785 545.77344 894.77344 548.88016 894.77344 555.0918 L 894.77344 579.55078 L 870.31445 552.76367 C 865.65574 544.99917 859.05659 544.99917 850.51562 552.76367 C 841.97466 562.0811 840.80984 569.4574 847.02148 574.89258 L 894.77344 626.13867 L 894.77344 790.35742 C 883.42756 794.30377 738.6615 834.52611 623.40234 835.03125 C 604.66967 835.11335 582.86106 834.44284 558.65625 832.59961 C 548.62088 817.21682 527.36855 801.34954 513.625 805.1582 C 501.89484 800.70745 488.07387 797.54501 473.9668 794.42578 L 470.70312 665.5625 C 487.57378 672.5827 500.38019 683.43394 515.08984 700.91797 C 518.10688 704.39424 523.08236 705.43263 527.23242 703.44531 C 531.38247 701.45798 533.68418 696.89938 532.86523 692.37109 C 526.19859 656.39495 525.46953 622.45596 525.87109 586.4043 C 544.56057 598.65539 562.988 611.08034 580.45898 624.2832 C 630.78611 679.0099 681.16865 733.70691 731.49609 788.43359 C 733.81636 790.97008 737.23144 792.08425 740.625 791.54297 C 773.51096 786.02924 806.42259 780.64102 839.30859 775.12695 C 842.99974 774.52973 846.03126 771.95288 847.27344 768.42578 C 848.51594 764.89905 847.73312 760.91039 845.23438 758.13086 C 819.5316 729.36882 792.97218 701.63341 767.24023 673.43359 C 816.19438 703.54658 879.6248 741.97026 874.375 732.87695 C 871.10736 727.2184 843.18624 706.69179 812.89062 685.2832 C 817.70483 687.29456 822.42908 689.43492 827.26562 691.40234 C 827.43732 691.50525 827.66771 691.6758 827.84961 691.78906 C 831.41959 692.98352 833.39413 693.7973 837.17383 693.92773 C 838.11774 693.95963 839.16228 693.8604 840.96289 693.3457 C 842.76485 692.81712 845.79055 691.30577 847.4707 688.09961 C 849.14912 684.89381 848.81929 681.59972 848.24609 679.84375 C 847.67632 678.08638 846.93046 677.1725 846.39844 676.44141 C 844.26694 673.51706 842.82984 672.68946 840.76562 671.09961 C 838.7028 669.51041 836.32898 667.77159 833.67578 665.95312 C 828.36866 662.31792 822.01486 658.22172 816.58008 654.58789 C 811.14498 650.95407 806.20945 647.43117 805.2168 646.52539 C 804.90789 646.21648 804.58051 645.91467 804.24414 645.65039 C 759.30102 614.02442 714.3615 582.46199 669.42969 550.85352 C 669.1551 550.64761 668.75906 550.82809 668.45703 550.64648 C 622.25662 485.90795 578.80817 418.11533 528.29883 355.70703 C 502.51229 323.84559 472.91096 268.11598 424.85742 249.54492 C 422.54059 235.82584 417.30677 210.4971 398.72852 192.43164 C 382.92774 177.06675 360.07375 170.01962 334.42969 168.44141 z M 321.88672 184.52344 C 345.00448 184.88766 363.52952 191.72287 376.58398 201.09375 C 376.78991 202.95067 377.25751 204.81249 376.85938 206.62891 C 375.15693 215.22483 370.10987 223.18551 363.16211 228.48438 C 352.21844 235.64525 339.00846 237.70865 326.54492 240.81836 C 323.41808 241.12728 325.88337 241.88599 327.61328 242.17773 C 336.13234 243.65363 354.46366 245.89742 363.06445 245.57617 C 372.69458 244.4744 381.78031 240.46961 389.58203 234.79492 C 392.32104 232.49183 394.67662 229.62906 396.67188 226.63672 C 401.78398 238.61424 404.55111 251.33434 405.70508 258.39844 C 406.33321 262.20423 409.01804 265.30468 412.69922 266.45898 C 452.13688 278.55008 483.30234 332.62537 512.45117 368.64062 C 572.36277 442.66634 623.28505 525.44608 681.94141 602.81836 C 649.48824 587.03197 617.14176 571.08171 584.61719 555.22461 C 518.06265 520.22328 448.76684 492.31051 390.45508 448.18945 C 390.35218 448.12075 390.25029 447.9827 390.18164 447.91406 C 356.58239 419.94353 322.19981 390.41482 309.17578 351.17383 C 304.02931 319.29284 370.03739 261.89364 362.5957 259.48242 C 349.19583 255.14085 300.09413 296.31732 290.42969 335.4375 C 290.32688 334.9398 290.04094 334.3702 289.94141 333.88281 C 287.41863 321.53152 284.5837 290.35681 292.27148 265.30859 C 292.62844 264.13814 292.73567 262.93674 292.66016 261.71484 C 292.11443 251.63301 290.58409 245.65048 288.38672 239.76367 C 286.19002 233.87685 283.56328 227.83755 279.35352 213.24805 C 278.28607 209.51504 274.453 201.89215 272.16602 201.30078 C 278.60579 196.52843 285.13418 191.56751 294.50586 188.28516 C 291.7703 190.92804 289.93945 194.7511 289.93945 199.16406 C 289.93945 207.11786 295.60665 213.53906 302.56641 213.53906 C 309.52617 213.53906 315.19336 207.11786 315.19336 199.16406 L 315.19336 199.06055 C 315.15916 192.68052 311.40036 187.41679 306.35547 185.56055 C 308.18491 185.32032 309.66054 184.91559 311.69727 184.78516 L 311.70117 184.77539 C 315.18865 184.55186 318.58418 184.47141 321.88672 184.52344 z M 100.46094 383.88477 C 92.696395 424.26033 105.11943 452.98832 137.73047 470.07031 L 268.17578 538.78711 C 259.63478 636.62021 214.98744 699.5125 134.23633 727.46484 C 291.07984 819.0863 454.13557 864.89648 623.40234 864.89648 C 791.89262 864.89648 954.56071 819.0863 1111.4043 727.46484 C 1030.6531 699.5125 986.0058 636.62021 977.46484 538.78711 L 1107.9102 470.07031 C 1140.5213 452.98832 1152.9443 424.26033 1145.1797 383.88477 C 1163.8147 383.88477 1181.8677 400.18977 1199.3379 432.80078 C 1216.8082 465.41184 1220.1066 489.09505 1209.2363 503.84766 C 1179.731 475.89531 1149.0611 470.07143 1117.2266 486.37695 L 1010.0762 546.93945 C 1015.5114 617.59674 1064.8158 677.77186 1157.9902 727.46484 C 984.06462 846.26218 805.86883 905.66016 623.40234 905.66016 C 440.15944 905.66016 261.57588 846.26218 87.650391 727.46484 C 180.82477 677.77186 230.12928 617.59674 235.56445 546.93945 L 128.41406 486.37695 C 96.579499 470.07143 65.909516 475.89531 36.404297 503.84766 C 25.53396 489.09505 28.834494 465.41184 46.304688 432.80078 C 63.774881 400.18977 81.826057 383.88477 100.46094 383.88477 z M 343.17188 453.43555 C 345.43379 455.69406 347.85718 457.73567 350.16406 459.94336 C 357.58066 486.95833 364.45094 516.77687 374.15625 539.7832 C 390.89306 579.45905 416.26711 613.9703 437.87305 649.05469 C 432.58483 651.89325 428.00871 655.12401 424.56641 658.37891 C 421.74159 661.04929 419.88446 662.8229 417.66992 665.08203 C 406.95929 650.98335 393.20785 640.04846 376.58398 634 C 378.13882 608.95417 372.8383 574.70645 364.83203 537.45312 C 358.64556 508.66708 350.92658 479.99094 343.17188 453.43555 z M 378.04297 484.90625 C 417.82658 517.65857 462.13235 545.13044 505.37695 572.9043 C 504.75227 604.42285 504.77288 634.50574 508.29102 665.56641 C 493.996 653.60122 478.52773 644.90861 458.85352 640.11914 C 458.02634 639.9132 457.33687 640.50781 456.52344 640.50781 C 434.06352 603.66223 408.61182 569.15559 392.90234 531.91602 C 387.50856 519.1295 382.74928 502.46593 378.04297 484.90625 z M 432.25 499.77344 C 479.15898 527.0462 528.68613 548.76802 575.50586 573.39062 C 575.57466 573.42493 575.64222 573.46003 575.71094 573.49414 C 620.58198 595.37088 665.32455 617.86753 710.625 639.44531 C 744.71469 680.64305 781.71161 718.95225 817.27344 757.94336 C 792.43939 762.10749 767.60748 766.3085 742.77344 770.47266 C 693.51722 716.91059 644.19993 663.48007 594.94336 609.91797 C 594.55549 609.4546 594.14306 609.04217 593.67969 608.6543 C 541.73733 569.2729 484.4625 536.52562 432.25 499.77344 z M 927.38281 661.07812 L 1008.9121 747.26367 C 982.5128 760.46341 955.33515 771.33404 927.38281 779.875 L 927.38281 661.07812 z M 392.125 666.92578 C 397.79525 672.22257 402.95758 678.33868 407.375 685.67188 C 408.85434 688.09856 411.38643 689.76833 414.17383 690.33398 C 416.96089 690.90032 419.82709 690.34254 422.13672 688.68359 C 429.61682 683.26803 434.18078 677.46682 438.65039 673.24023 C 440.29792 671.68196 442.00898 670.43219 443.79688 669.16016 L 447.7207 787.29688 C 431.55491 781.82462 414.28311 774.63414 403.98828 780.50586 C 398.40177 772.96459 382.91777 768.63634 365.07812 764.34766 L 392.125 666.92578 z M 251.39453 754.74609 C 265.68081 757.18158 287.28664 759.29295 294.38086 766.62305 C 336.40889 776.10417 355.75606 785.05312 399.1875 796.91797 C 425.63158 803.75489 473.07041 815.32527 499.43555 820.96484 C 510.97335 824.13364 518.25379 827.18266 524.42578 829.3418 C 446.04571 820.40677 349.00535 799.29291 251.39453 754.74609 z M 1075.2988 819.47461 L 1091.6035 836.94531 C 1087.7212 868.77984 1093.1576 895.9555 1107.9102 918.47266 L 826.05664 918.47266 C 910.69013 899.06128 993.77125 866.06181 1075.2988 819.47461 z M 1143.9141 843.34375 C 1157.8599 843.22697 1170.7054 849.44175 1182.4492 861.98633 C 1199.5312 880.23298 1210.4018 899.06128 1215.0605 918.47266 L 1146.3438 918.47266 C 1122.2738 892.07325 1114.8974 868.39197 1124.2148 847.42773 C 1131.0088 844.75865 1137.5751 843.39683 1143.9141 843.34375 z M 24.757812 942.92969 L 1225.543 942.92969 L 1225.543 975.54297 L 24.757812 975.54297 L 24.757812 942.92969 z " />
</svg>
