<?xml version="1.0" encoding="UTF-8" standalone="no"?>
<svg
   width="300"
   height="1000"
   version="1.1"
   id="svg1"
   sodipodi:docname="14141.svg"
   inkscape:version="1.4.2 (f4327f4, 2025-05-13)"
   xmlns:inkscape="http://www.inkscape.org/namespaces/inkscape"
   xmlns:sodipodi="http://sodipodi.sourceforge.net/DTD/sodipodi-0.dtd"
   xmlns="http://www.w3.org/2000/svg"
   xmlns:svg="http://www.w3.org/2000/svg">
  <defs
     id="defs1" />
  <sodipodi:namedview
     id="namedview1"
     pagecolor="#ffffff"
     bordercolor="#666666"
     borderopacity="1.0"
     inkscape:showpageshadow="2"
     inkscape:pageopacity="0.0"
     inkscape:pagecheckerboard="0"
     inkscape:deskcolor="#d1d1d1"
     inkscape:zoom="0.3775"
     inkscape:cx="43.708609"
     inkscape:cy="819.86755"
     inkscape:window-width="1680"
     inkscape:window-height="998"
     inkscape:window-x="-8"
     inkscape:window-y="-8"
     inkscape:window-maximized="1"
     inkscape:current-layer="svg1"
     showguides="true">
    <sodipodi:guide
       position="0,1000"
       orientation="0,-1"
       id="guide1"
       inkscape:locked="false" />
    <sodipodi:guide
       position="0,0"
       orientation="0,-1"
       id="guide2"
       inkscape:locked="false" />
    <sodipodi:guide
       position="-48.701394,323.79987"
       orientation="0,-1"
       id="guide7"
       inkscape:locked="false" />
    <sodipodi:guide
       position="145.16211,261.95703"
       orientation="0,-1"
       id="guide8"
       inkscape:locked="false" />
    <sodipodi:guide
       position="169.95196,756.56707"
       orientation="1,0"
       id="guide9"
       inkscape:locked="false" />
    <sodipodi:guide
       position="145.16016,171.22656"
       orientation="0,-1"
       id="guide10"
       inkscape:locked="false" />
    <sodipodi:guide
       position="221.54983,764.39731"
       orientation="1,0"
       id="guide12"
       inkscape:locked="false" />
  </sodipodi:namedview>
  <path
     id="path13"
     style="fill:#000000;stroke:none;stroke-width:67.4125"
     d="M 415.03516 0 C 401.54584 -0.21722 385.938 8.3626754 368.21289 25.740234 L 193.5918 194.06445 C 185.52213 187.51757 175.29164 182.19163 162.40234 179.01562 C 178.34598 162.33042 193.73316 136.3747 208.56445 101.15039 C 223.76657 65.92606 217.46298 39.044976 189.6543 20.505859 C 179.64318 75.010865 160.36273 113.57174 131.8125 136.18945 C 103.63304 158.80718 85.279945 183.46383 76.751953 210.16016 C 68.22396 237.22728 42.639971 290.06406 0 368.66992 C 24.471635 379.79339 43.937925 371.08149 58.398438 342.53125 C 73.229731 313.98101 85.650986 296.5533 95.662109 290.25 C 105.67323 283.9467 116.98129 270.41225 129.58789 249.64844 C 136.36688 238.28366 142.87813 232.60156 149.12109 232.60156 C 158.30311 232.60157 169.95117 248.10179 169.95117 263.93945 L 169.95117 828.77344 C 131.30137 839.11 105.75391 864.72419 105.75391 905.62109 C 105.75391 920.45182 109.57282 940.00302 117.21289 964.27148 C 124.85297 988.09054 140.28969 1000 169.95117 1000 C 156.46869 951.91248 152.94336 921.35335 152.94336 908.32031 C 152.94336 886.27966 167.21327 875.047 195.75 874.625 C 224.28673 875.047 238.55664 886.27966 238.55664 908.32031 C 238.55664 921.35335 235.03326 951.91248 221.55078 1000 C 251.21226 1000 266.64703 988.09054 274.28711 964.27148 C 281.92718 940.00302 285.74609 920.45182 285.74609 905.62109 C 285.74609 864.72419 260.20058 839.11 221.55078 828.77344 L 221.55078 256.10938 C 221.5508 245.25818 219.1913 230.52208 211.92188 216.63477 L 211.95312 216.47656 C 221.59187 209.06213 235.12493 203.31621 252.54883 199.23828 C 269.60201 195.16035 293.88322 205.35467 325.39453 229.82227 L 411.03125 95.25 C 428.08443 99.32793 442.17133 96.363006 453.29297 86.353516 C 464.04388 76.344048 469.41992 65.036165 469.41992 52.431641 C 469.41992 39.456396 464.41573 27.964558 454.40625 17.955078 C 444.02606 7.9456091 431.79249 2.0137663 417.70508 0.16015625 C 416.82461 0.06745625 415.93446 0.01449 415.03516 0 z M 418.96484 24.236328 C 424.89059 24.218928 430.21666 26.57408 434.94336 31.300781 C 447.54789 43.9053 450.14295 55.3991 442.72852 65.779297 C 435.31409 75.788776 421.41114 78.011988 401.02148 72.451172 L 319.27734 190.89648 C 298.88768 175.32618 276.08795 168.28274 250.87891 169.76562 L 384.33984 44.091797 C 397.54679 30.884858 409.0886 24.265298 418.96484 24.236328 z " />
</svg>
