<?xml version="1.0" encoding="UTF-8" standalone="no"?>
<svg
   width="959.35413"
   height="1000"
   version="1.1"
   id="svg1"
   sodipodi:docname="14151.svg"
   inkscape:version="1.4.3 (0d15f75, 2025-12-25)"
   xmlns:inkscape="http://www.inkscape.org/namespaces/inkscape"
   xmlns:sodipodi="http://sodipodi.sourceforge.net/DTD/sodipodi-0.dtd"
   xmlns="http://www.w3.org/2000/svg"
   xmlns:svg="http://www.w3.org/2000/svg">
  <defs
     id="defs1" />
  <sodipodi:namedview
     id="namedview1"
     pagecolor="#ffffff"
     bordercolor="#666666"
     borderopacity="1.0"
     inkscape:showpageshadow="2"
     inkscape:pageopacity="0.0"
     inkscape:pagecheckerboard="0"
     inkscape:deskcolor="#d1d1d1"
     inkscape:zoom="0.26693281"
     inkscape:cx="54.320786"
     inkscape:cy="874.75196"
     inkscape:window-width="1680"
     inkscape:window-height="998"
     inkscape:window-x="-8"
     inkscape:window-y="-8"
     inkscape:window-maximized="1"
     inkscape:current-layer="svg1" />
  <path
     id="path1"
     style="fill:#000000;stroke:none;stroke-width:1"
     d="M 696.4668 0 C 680.41424 -0.027610886 664.73371 6.9022592 660.15234 18.292969 C 653.82627 34.021054 627.71799 86.979605 567.07812 134.73047 C 471.25022 189.47775 366.33896 328.43782 340.77148 398.91602 C 337.85447 406.95689 334.51326 415.96819 331.48438 425.95117 C 321.68036 422.24961 307.60572 398.92623 312.33398 384.80664 C 315.60259 375.04598 319.97479 365.37016 325.375 355.80078 C 330.77495 346.23148 336.04745 334.4966 341.17188 320.57812 C 346.29629 306.65933 347.84363 292.50184 345.82617 278.12695 C 343.44324 267.96405 339.78185 259.40699 334.83594 252.44922 C 329.89006 245.4917 324.82886 240.42293 319.67773 237.24219 C 314.52686 234.06142 308.1755 231.34406 300.62109 229.05664 C 294.95551 227.34107 288.85836 226.89916 282.30469 227.74609 C 280.12013 228.0284 277.88283 228.45644 275.59961 229.02344 C 266.46676 231.29168 258.99795 234.60956 253.23047 239.00586 C 247.46297 243.4019 243.87687 248.60386 242.45898 254.60156 C 244.65755 259.36221 248.03638 262.53481 252.5918 264.11328 C 257.14747 265.69173 265.62287 267.66695 277.98438 270.04492 C 267.18246 281.67571 261.43751 295.77594 260.77734 312.32617 C 260.11713 328.87613 262.08929 356.80787 266.67578 396.13281 C 270.89249 426.31764 307.43746 443.76566 325.49219 448.48047 C 322.54585 461.65924 317.26337 485.16855 317.07227 498.73828 C 319.46603 500.17432 381.4054 523.05403 399.38867 558.11133 C 407.73949 574.39059 422.12344 540.06624 436.29102 545.41797 C 465.42966 556.42541 419.24637 600.50983 419.01172 604.8125 C 418.38605 616.28444 424.11372 624.37756 431.98633 630.28906 L 0 630.28906 L 0 674.27539 L 241.64844 674.27539 C 302.15326 761.13508 373.97921 824.42469 457.12695 864.14258 L 457.12695 1000 L 502.22656 1000 L 502.22656 883.07422 C 569.4129 911.65625 641.98259 901.0761 719.93359 851.33594 C 803.08132 798.99741 810.69045 739.60606 742.76172 673.16211 L 959.35352 673.16211 L 959.35352 630.28906 L 505.21875 630.28906 C 576.92282 572.69145 655.14133 342.66396 667.38477 301.22461 C 678.87519 261.00813 680.86717 208.96234 684.69727 187.89648 C 702.50756 108.24275 733.84103 60.57458 735.66602 52.513672 C 744.17167 14.945247 719.92827 0.040338174 696.4668 0 z M 702.23438 26.685547 C 720.65693 65.127768 680.03406 79.78163 650.56641 207.64258 C 642.94725 332.06777 567.89141 490.89966 534.66992 543.26562 C 518.39189 579.65189 499.48996 604.54213 477.94531 617.94727 C 466.93372 619.38366 456.13778 616.29696 450.39258 601.45508 C 462.43741 586.67625 471.89074 555.94268 472.48242 545.48438 C 475.00028 500.9821 431.31728 522.33803 426.35547 518.19141 C 395.97362 492.80108 356.32213 475.66052 352.9707 464.16992 C 362.01251 384.92709 429.75443 294.84955 510.66602 209.15039 C 705.58013 72.042734 647.35099 52.205828 702.23438 26.685547 z M 341.31445 673.16211 L 457.12695 673.16211 L 457.12695 787.30469 C 415.18188 763.54819 376.578 725.50064 341.31445 673.16211 z M 502.22656 673.16211 L 614.69922 673.16211 C 728.28497 744.0604 768.93071 795.65718 736.63672 827.95117 C 703.97153 860.24516 642.35289 860.98694 551.78125 830.17773 C 525.42639 821.26904 508.90807 814.96 502.22656 811.24805 L 502.22656 673.16211 z " />
</svg>
