<?xml version="1.0" encoding="UTF-8" standalone="no"?>
<svg
   width="853.14929"
   height="1000"
   id="svg1962"
   sodipodi:version="0.32"
   inkscape:version="1.4.3 (0d15f75, 2025-12-25)"
   sodipodi:docname="1415B.svg"
   version="1.1"
   xmlns:inkscape="http://www.inkscape.org/namespaces/inkscape"
   xmlns:sodipodi="http://sodipodi.sourceforge.net/DTD/sodipodi-0.dtd"
   xmlns="http://www.w3.org/2000/svg"
   xmlns:svg="http://www.w3.org/2000/svg"
   xmlns:rdf="http://www.w3.org/1999/02/22-rdf-syntax-ns#"
   xmlns:cc="http://creativecommons.org/ns#"
   xmlns:dc="http://purl.org/dc/elements/1.1/">
  <metadata
     id="metadata1969">
    <rdf:RDF>
      <cc:Work
         rdf:about="">
        <dc:format>image/svg+xml</dc:format>
        <dc:type
           rdf:resource="http://purl.org/dc/dcmitype/StillImage" />
      </cc:Work>
    </rdf:RDF>
  </metadata>
  <defs
     id="defs1967" />
  <sodipodi:namedview
     inkscape:window-height="998"
     inkscape:window-width="1680"
     inkscape:pageshadow="2"
     inkscape:pageopacity="0.0"
     guidetolerance="10.0"
     gridtolerance="10.0"
     objecttolerance="10.0"
     borderopacity="1.0"
     bordercolor="#666666"
     pagecolor="#ffffff"
     id="base"
     inkscape:zoom="0.18875"
     inkscape:cx="463.57616"
     inkscape:cy="1035.7616"
     inkscape:window-x="-8"
     inkscape:window-y="-8"
     inkscape:current-layer="svg1962"
     inkscape:showpageshadow="2"
     inkscape:pagecheckerboard="0"
     inkscape:deskcolor="#d1d1d1"
     showguides="true"
     inkscape:window-maximized="1">
    <sodipodi:guide
       position="60.580315,684.81846"
       orientation="0,-1"
       id="guide1"
       inkscape:locked="false" />
    <sodipodi:guide
       position="102.82122,626.38441"
       orientation="1,0"
       id="guide2"
       inkscape:locked="false" />
  </sodipodi:namedview>
  <path
     id="path1964"
     style="fill:#000000;stroke:none;stroke-width:0.999999"
     d="M 790.99609 0 L 626.125 300.04297 C 640.97492 227.92713 640.79351 204.0322 655.5918 181.46484 C 670.39008 158.89744 684.07971 142.43301 696.6582 132.07422 C 724.77492 98.038176 737.72141 72.696887 735.50195 56.048828 C 733.28221 39.40077 724.03399 25.157008 707.75586 13.318359 C 690.73789 2.2196444 673.90589 -1.2941599 657.25781 2.7753906 C 640.60968 6.8449043 621.92653 28.485714 601.20898 67.701172 C 596.02955 83.239367 584.93008 101.55308 567.91211 122.64062 C 550.89409 143.7282 528.25884 165.93983 496.88086 184.23828 C 424.55278 226.41729 360.83809 270.67723 290.44531 362.92773 C 229.77235 317.79297 185.56123 278.39268 157.81445 244.72656 C 130.06768 211.06048 114.90024 181.834 112.31055 157.04688 C 109.72086 132.25976 112.86518 113.02238 121.74414 99.333984 C 130.6231 85.645582 143.01762 77.136262 158.92578 73.806641 C 174.83394 70.477021 190.0014 72.882419 204.42969 81.021484 C 218.85803 89.160548 225.33139 103.21764 223.85156 123.19531 C 220.15197 142.43306 207.20521 153.90197 185.00781 157.60156 C 170.20951 151.68225 160.95936 153.16206 157.25977 162.04102 C 153.56023 175.35949 160.58974 182.57373 178.34766 183.68359 C 196.10562 184.79345 212.93949 180.53881 228.84766 170.91992 C 244.75578 161.30106 251.96811 137.99374 250.48828 100.99805 C 237.90974 68.441826 218.8571 50.314819 193.33008 46.615234 C 167.80303 42.915649 143.94154 46.983617 121.74414 58.822266 C 99.546703 70.660876 86.598022 96.188838 82.898438 135.4043 C 79.198892 174.61972 92.888447 214.57424 123.96484 255.26953 C 155.04123 295.96481 203.50508 341.47102 269.35742 391.78516 C 257.51881 409.54312 237.91001 443.20895 210.5332 492.7832 L 141.68945 492.7832 C 123.08858 492.7832 60.529297 492.78208 60.529297 483.0293 C 60.529297 470.87673 85.862542 452.78085 94.113281 432.19141 C 102.36402 411.60197 104.69531 399.91509 104.69531 382.4043 C 104.69531 344.19245 86.118639 294.125 28.412109 294.125 C -0.84207067 294.125 -31.891153 320.63031 -30.070312 343.83594 C -22.779242 351.77157 -17.659883 352.38917 15.435547 348.38477 C 4.2710664 372.22257 -10.193324 460.56874 13.285156 512.23047 C 24.231102 534.93372 78.546238 534.88899 117.83008 533.4375 L 155.04102 782.45898 C 230.51229 780.23924 280.82537 799.84799 305.98242 841.2832 C 324.48031 828.70466 338.72407 819.63922 348.71289 814.08984 C 358.70171 808.54052 367.39575 809.6508 374.79492 817.41992 C 382.19405 825.18904 381.08373 836.28846 371.46484 850.7168 C 361.84598 865.14508 345.56822 888.63711 322.63086 921.19336 L 449.15625 999.99414 L 853.14844 32.185547 L 790.99609 0 z M 679.11523 31.351562 C 683.64215 31.376854 688.01049 32.764069 692.21875 35.515625 C 711.45651 48.834064 705.16592 75.841832 673.34961 116.53711 C 640.79341 154.27271 621.00188 185.16371 613.97266 209.21094 C 589.14079 305.46438 565.81382 402.12055 523.51758 492.7832 L 270.4668 492.7832 C 283.0453 445.42871 313.75159 395.48506 362.58594 342.95117 C 411.42029 290.41723 451.74621 253.05092 483.5625 230.85352 C 515.37883 208.65608 540.90483 189.234 560.14258 172.58594 C 579.38034 155.93785 600.83839 126.15524 624.51562 83.240234 C 644.74765 48.556772 662.94768 31.261236 679.11523 31.351562 z M 799.875 38.845703 L 814.99219 49.255859 L 429.10156 930.73047 L 384.8125 900.07617 C 403.31035 871.95945 405.68628 860.88946 414.19531 844.61133 C 422.70434 828.33326 421.40926 801.11327 410.31055 785.20508 C 399.21183 769.2969 386.0784 760.41837 370.91016 758.56836 C 355.74189 756.71857 335.57896 763.56144 310.42188 779.09961 C 286.74466 752.46268 263.67457 739.14453 202.26172 739.14453 L 170.63672 537.20703 L 550.1543 537.20703 L 799.875 38.845703 z " />
</svg>
