<?xml version="1.0" encoding="UTF-8" standalone="no"?>
<svg
   width="1100"
   height="850"
   id="svg2633"
   sodipodi:version="0.32"
   inkscape:version="1.4.2 (f4327f4, 2025-05-13)"
   sodipodi:docname="14160.svg"
   inkscape:output_extension="org.inkscape.output.svg.inkscape"
   version="1.1"
   xmlns:inkscape="http://www.inkscape.org/namespaces/inkscape"
   xmlns:sodipodi="http://sodipodi.sourceforge.net/DTD/sodipodi-0.dtd"
   xmlns="http://www.w3.org/2000/svg"
   xmlns:svg="http://www.w3.org/2000/svg"
   xmlns:rdf="http://www.w3.org/1999/02/22-rdf-syntax-ns#"
   xmlns:cc="http://creativecommons.org/ns#"
   xmlns:dc="http://purl.org/dc/elements/1.1/">
  <metadata
     id="metadata2640">
    <rdf:RDF>
      <cc:Work
         rdf:about="">
        <dc:format>image/svg+xml</dc:format>
        <dc:type
           rdf:resource="http://purl.org/dc/dcmitype/StillImage" />
      </cc:Work>
    </rdf:RDF>
  </metadata>
  <defs
     id="defs2638">
    <inkscape:perspective
       sodipodi:type="inkscape:persp3d"
       inkscape:vp_x="0 : 841.00839 : 1"
       inkscape:vp_y="0 : 1000 : 0"
       inkscape:vp_z="20.43009 : 841.00839 : 1"
       inkscape:persp3d-origin="10.215045 : 838.01119 : 1"
       id="perspective2642" />
  </defs>
  <sodipodi:namedview
     inkscape:window-height="998"
     inkscape:window-width="1680"
     inkscape:pageshadow="2"
     inkscape:pageopacity="0.0"
     guidetolerance="10.0"
     gridtolerance="10.0"
     objecttolerance="10.0"
     borderopacity="1.0"
     bordercolor="#666666"
     pagecolor="#ffffff"
     id="base"
     showgrid="false"
     inkscape:showpageshadow="2"
     inkscape:pagecheckerboard="0"
     inkscape:deskcolor="#d1d1d1"
     inkscape:zoom="0.3775"
     inkscape:cx="157.61589"
     inkscape:cy="398.6755"
     inkscape:window-x="-8"
     inkscape:window-y="-8"
     inkscape:window-maximized="1"
     inkscape:current-layer="svg2633"
     showguides="true">
    <sodipodi:guide
       position="0,607.4866"
       orientation="1,0"
       id="guide2"
       inkscape:locked="false" />
    <sodipodi:guide
       position="0,607.4866"
       orientation="0,-1"
       id="guide3"
       inkscape:locked="false" />
  </sodipodi:namedview>
  <path
     style="fill:#000000;stroke:none;stroke-width:1"
     d="m -2.5285098e-8,74.44895 c 0,2.85076 0.754341515285098,5.91473 2.095703125285098,9.19363 3.7322787,9.12327 17.2087199,16.58879 40.4316409,22.39453 -18.246573,21.56414 -28.821722,56.39734 -31.72461,104.50196 -2.9028506,48.10463 -5.3893939,86.67255 -7.4628902,115.70117 -2.0734605,29.02866 2.2804129,52.87195 13.0625002,71.5332 10.782051,18.66129 48.933277,22.60238 114.455076,11.82031 132.7024,-22.39357 205.27401,2.90235 217.71485,75.88868 l 129.38476,-21.1504 -11.19531,-65.93554 c -5.80574,-27.36987 -0.001,-42.71369 17.41601,-46.03125 21.56414,-4.14692 33.58996,15.13605 36.07813,57.84961 2.48817,42.71362 11.19795,89.57457 26.12695,140.58203 14.92899,51.00745 41.26067,85.01317 78.99805,102.01562 37.73727,17.00251 94.34388,7.67157 169.81836,-27.99218 h 1.24414 L 1031.5762,850 1100,747.98438 847.45117,581.27735 C 887.2619,547.27239 900.94673,494.19009 888.50586,422.03321 876.89441,349.87623 849.31638,284.77017 805.77344,226.71289 762.23045,168.65561 708.32068,122.20937 644.04297,87.375 579.76522,52.5406 493.16693,43.01921 384.65039,61.25 285.81306,77.85468 216.07826,118.4774 175.02344,180.68164 c -41.05482,62.20424 -58.26599,123.1648 -51.63086,182.88086 -32.346191,0 -43.957255,-13.47839 -34.833986,-40.43359 9.123306,-26.95513 25.090226,-59.92295 47.898436,-98.9043 22.80824,-38.98132 34.00456,-71.74275 33.58985,-98.2832 C 169.24395,74.55234 112.52897,42.58789 72.386719,42.58789 59.404864,42.58789 -2.5285098e-8,42.83603 -2.5285098e-8,74.44895 Z M 51.478516,62.60938 c 49.641954,0 84.355464,16.03218 84.355464,60.84375 0,23.73944 -15.75845,61.79084 -44.787105,115.70117 -29.028622,53.91033 -43.542969,89.57301 -43.542969,106.99023 0,17.41718 8.709773,29.44304 26.126953,36.07813 2.818279,1.07363 5.418767,2.0075 7.802735,2.79883 -33.85826,-3.53799 -49.730763,-17.11887 -47.615235,-40.74219 2.488173,-27.78459 5.39142,-66.14411 8.708985,-115.07813 3.317565,-48.93401 8.709342,-81.28066 16.173828,-97.03906 7.464522,-15.7584 14.721676,-24.88096 21.771484,-27.36914 7.049808,-2.48817 18.454455,-2.90293 34.212894,-1.24414 9.12327,-1.65879 9.95276,-6.22106 2.48828,-13.68555 C 97.268437,78.2518 81.095129,75.76331 68.654297,82.39844 56.213427,89.03354 46.053027,91.31565 38.173828,89.24219 30.29463,87.16873 26.355469,82.05002 26.355469,76.17774 c 0,-9.96773 15.905386,-13.56836 25.123047,-13.56836 z m -10.195313,4.86133 c -6.63513,3.31756 -9.123627,6.63361 -7.464844,9.95117 1.658782,2.48818 4.770398,4.56191 9.332032,6.2207 4.561634,1.65878 8.292424,0.62291 11.195312,-3.10937 2.902849,-3.73224 2.281725,-6.84387 -1.865234,-9.33204 -4.14692,-2.48816 -7.879702,-3.73046 -11.197266,-3.73046 z M 458.20703,96.20117 c 60.02709,-3.49898 109.324,4.54826 147.89063,24.14258 51.42217,26.12578 96.83249,59.5083 136.22851,100.14844 39.39602,40.6401 70.29003,102.43015 92.6836,185.36914 22.39351,82.939 -2.90237,142.44697 -75.88868,178.52539 -72.98631,36.07852 -123.37168,32.34573 -151.15625,-11.19726 -27.78458,-43.54294 -44.99571,-98.69696 -51.63086,-165.46289 -6.63515,-66.76588 -33.17528,-96.4157 -79.62109,-88.95118 -37.32257,6.63513 -52.25164,34.00479 -44.78711,82.10938 l 6.2207,31.10156 -53.49609,8.70899 c -12.44083,-73.81572 -82.52395,-99.9411 -210.25,-78.37696 -10.78208,-59.71607 3.31751,-114.45535 42.29883,-164.21875 48.17053,-61.49432 128.63927,-95.31931 241.50781,-101.89844 z"
     id="path2"
     sodipodi:nodetypes="sccssscccccsssccccccsssscsssssssssscsssscccsssccssscssssssscccccss" />
</svg>
