<?xml version="1.0" encoding="UTF-8" standalone="no"?>
<!-- Created with Inkscape (http://www.inkscape.org/) -->

<svg
   width="1800"
   height="1800"
   id="svg2"
   sodipodi:version="0.32"
   inkscape:version="1.4.3 (0d15f75, 2025-12-25)"
   version="1.0"
   sodipodi:docname="14165.svg"
   xmlns:inkscape="http://www.inkscape.org/namespaces/inkscape"
   xmlns:sodipodi="http://sodipodi.sourceforge.net/DTD/sodipodi-0.dtd"
   xmlns="http://www.w3.org/2000/svg"
   xmlns:svg="http://www.w3.org/2000/svg"
   xmlns:rdf="http://www.w3.org/1999/02/22-rdf-syntax-ns#"
   xmlns:cc="http://creativecommons.org/ns#"
   xmlns:dc="http://purl.org/dc/elements/1.1/">
  <defs
     id="defs4" />
  <sodipodi:namedview
     id="base"
     pagecolor="#ffffff"
     bordercolor="#666666"
     borderopacity="1.0"
     inkscape:pageopacity="0.0"
     inkscape:pageshadow="2"
     inkscape:zoom="0.14849243"
     inkscape:cx="616.19305"
     inkscape:cy="2629.7638"
     inkscape:document-units="px"
     inkscape:current-layer="layer1"
     width="1800px"
     height="1800px"
     inkscape:window-width="1680"
     inkscape:window-height="998"
     inkscape:window-x="-8"
     inkscape:window-y="-8"
     inkscape:showpageshadow="2"
     inkscape:pagecheckerboard="0"
     inkscape:deskcolor="#d1d1d1"
     inkscape:window-maximized="1"
     showguides="true">
    <sodipodi:guide
       position="52.762982,731.76368"
       orientation="1,0"
       id="guide8"
       inkscape:locked="false" />
    <sodipodi:guide
       position="790.15625,1009.75"
       orientation="0,-1"
       id="guide1"
       inkscape:locked="false" />
    <sodipodi:guide
       position="66.84375,324.9062"
       orientation="0,-1"
       id="guide2"
       inkscape:locked="false" />
    <sodipodi:guide
       position="89.40625,394.9062"
       orientation="0,-1"
       id="guide3"
       inkscape:locked="false" />
    <sodipodi:guide
       position="52.762982,264.6562"
       orientation="0,-1"
       id="guide4"
       inkscape:locked="false" />
  </sodipodi:namedview>
  <metadata
     id="metadata7">
    <rdf:RDF>
      <cc:Work
         rdf:about="">
        <dc:format>image/svg+xml</dc:format>
        <dc:type
           rdf:resource="http://purl.org/dc/dcmitype/StillImage" />
      </cc:Work>
    </rdf:RDF>
  </metadata>
  <g
     inkscape:label="Calque 1"
     inkscape:groupmode="layer"
     id="layer1">
    <path
       id="path2618"
       style="fill:#000000;fill-opacity:1;fill-rule:evenodd;stroke:none;stroke-width:70;stroke-linecap:butt;stroke-linejoin:miter;stroke-miterlimit:4;stroke-dasharray:none;stroke-opacity:1"
       d="M -140.10742 790.25 C -178.37638 790.25 -275.83541 803.36061 -299.24219 871.24023 C -288.74803 904.03435 -274.38136 911.11127 -177.43164 941.30859 C -221.26951 978.67872 -247.49921 1027.1856 -256.12305 1086.834 C -265.46556 1146.4822 -269.77723 1247.8142 -269.05859 1390.8262 C -268.37652 1526.5567 -189.50454 1604.9552 -32.03125 1605.3418 L -32.03125 1605.3438 L -31.167969 1605.3438 L -6.03125 1605.3438 L 1521.2188 1605.3438 C 1535.1886 1670.1916 1546.1214 1738.421 1575.5 1810.9062 L 1668.1875 1773.3438 C 1657.5777 1747.1663 1650.0241 1719.8238 1643.5 1691.5312 C 1671.3515 1722.3275 1704.0938 1752.8835 1746.0312 1783.125 L 1804.5 1702 C 1712.5309 1635.6805 1673.2327 1567.718 1614.8125 1486.3125 C 1699.0853 1466.6797 1799.807 1420.3427 1810.625 1340.0312 C 1821.443 1259.7198 1751.0955 1207.4686 1671.5312 1207.4688 C 1597.3842 1213.0511 1552.5413 1288.6352 1515.75 1345.1875 C 1478.474 1222.4946 1308.9958 790.24999 790.15625 790.25 C 293.25518 790.25001 91.40607 1180.7662 16.314453 1405.8828 L 16.376953 1405.0938 C -56.925706 1405.0938 -83.783796 1387.4857 -73.722656 1352.2715 C -62.942841 1317.0575 -53.430448 1292.3962 -25.833984 1243.2832 C 77.909366 1058.6528 62.508568 1066.1892 62.371094 1014.6523 C 61.951506 857.39456 -63.513356 790.25 -140.10742 790.25 z M -144.01172 832.70117 C -90.559244 833.51102 -61.739965 861.09017 -41.603516 885.25391 C -122.81137 901.78294 -175.99359 904.29729 -201.14648 892.79883 C -225.5807 881.30036 -234.20412 870.52014 -227.01758 860.45898 C -213.02229 839.46603 -165.11599 832.38142 -144.01172 832.70117 z M -146.16992 841.05664 C -168.54687 842.65502 -183.89844 856.5804 -183.89844 871.24023 C -178.14921 876.98946 -171.3212 880.93973 -163.41602 883.0957 C -156.22948 884.53301 -152.99618 880.22325 -153.71484 870.16211 C -154.43349 860.10096 -152.63613 855.07031 -148.32422 855.07031 C -145.44961 855.07031 -144.01172 860.10096 -144.01172 870.16211 C -144.01172 880.22325 -136.46869 883.45655 -121.37695 879.86328 C -106.28524 876.98868 -103.76893 869.44173 -113.83008 857.22461 C -124.60989 845.72616 -135.39012 840.33798 -146.16992 841.05664 z M 790.15625 860.25 C 1217.1 860.25 1391.9722 1168.9374 1463.0625 1401.6562 L 89.40625 1405.0938 C 170.99366 1177.091 361.49002 860.25 790.15625 860.25 z M -51.306641 959.63281 C -25.435107 959.63281 -11.062113 980.11476 -8.1875 1021.0781 C -5.312885 1062.7598 -15.413861 1081.2123 -72.1875 1192.6035 C -129.67978 1303.995 -154.11405 1378.7374 -145.49023 1416.8262 C -138.01598 1453.5178 -91.189116 1475.0938 -4.640625 1475.0938 C -4.6062548 1475.0938 -4.571484 1475.0938 -4.5371094 1475.0938 C 0.50941753 1475.0927 5.604019 1475.0163 10.818359 1475.0938 L 66.84375 1475.0938 L 1480 1475.0938 C 1493.2743 1497.0132 1492.256 1511.5677 1494.8438 1535.3438 L -19.203125 1535.2891 C -123.35035 1534.3894 -176.8724 1522.0535 -191.36523 1471.6738 C -206.45697 1419.2122 -217.31552 1353.4563 -210.84766 1274.4043 C -205.09843 1195.3526 -193.96068 1124.9233 -177.43164 1063.1191 C -160.90262 1001.3149 -118.86009 966.81931 -51.306641 959.63281 z M 1681.6484 1307.875 C 1698.2493 1307.798 1715.7859 1322.0012 1710.2188 1334.2812 C 1696.2568 1365.0785 1645.3146 1374.4478 1609.4688 1384.6875 C 1626.1337 1359.2265 1643.6081 1333.8769 1666.25 1313.3125 C 1670.6854 1309.5131 1676.1148 1307.9008 1681.6484 1307.875 z " />
  </g>
</svg>
