<?xml version="1.0" encoding="UTF-8" standalone="no"?>
<svg
   width="1056.1736"
   height="1000"
   version="1.1"
   id="svg1"
   sodipodi:docname="14175.svg"
   inkscape:version="1.4.3 (0d15f75, 2025-12-25)"
   xmlns:inkscape="http://www.inkscape.org/namespaces/inkscape"
   xmlns:sodipodi="http://sodipodi.sourceforge.net/DTD/sodipodi-0.dtd"
   xmlns="http://www.w3.org/2000/svg"
   xmlns:svg="http://www.w3.org/2000/svg">
  <defs
     id="defs1" />
  <sodipodi:namedview
     id="namedview1"
     pagecolor="#ffffff"
     bordercolor="#666666"
     borderopacity="1.0"
     inkscape:showpageshadow="2"
     inkscape:pageopacity="0.0"
     inkscape:pagecheckerboard="0"
     inkscape:deskcolor="#d1d1d1"
     inkscape:zoom="0.53386562"
     inkscape:cx="345.59259"
     inkscape:cy="832.60653"
     inkscape:window-width="1680"
     inkscape:window-height="998"
     inkscape:window-x="-8"
     inkscape:window-y="-8"
     inkscape:window-maximized="1"
     inkscape:current-layer="svg1"
     showguides="true">
    <sodipodi:guide
       position="528.35896,88.99791"
       orientation="1,0"
       id="guide1"
       inkscape:locked="false" />
    <sodipodi:guide
       position="528.35896,381.5391"
       orientation="0,-1"
       id="guide4"
       inkscape:locked="false" />
    <sodipodi:guide
       position="528.35896,118.75391"
       orientation="0,-1"
       id="guide5"
       inkscape:locked="false" />
    <sodipodi:guide
       position="528.35895,235.57697"
       orientation="-0.92756918,0.37365147"
       id="guide6"
       inkscape:locked="false" />
  </sodipodi:namedview>
  <path
     id="path4"
     style="fill:#000000;stroke:none;stroke-width:1"
     d="m 741.83789,0.05078125 c -29.50022,0 -60.24588,20.26889175 -77.70898,56.56445275 L 265.15625,885.8457 c -0.51083,0.0446 -1.02162,0.088 -1.5332,0.12891 -42.26534,3.3795 -88.13176,-8.00737 -137.92969,-33.36914 C 75.750953,827.17012 42.269363,814.40529 25.583984,813.67188 8.5285429,812.92219 0,823.68299 0,845.92969 c 0,22.24669 38.004145,54.31885 114.01367,96.21679 76.00954,41.89796 155.8018,49.16582 239.15235,21.13477 83.12946,-27.95669 119.01983,-15.94348 107.89648,36.70703 h 67.29688 67.29687 c -11.12335,-52.65051 24.76702,-64.66372 107.89648,-36.70703 83.35055,28.03105 163.14281,20.76319 239.15235,-21.13477 76.00952,-41.89794 114.01372,-73.9701 114.01372,-96.21679 -1e-4,-22.2467 -8.5285,-33.0075 -25.584,-32.25781 -16.6854,0.73341 -50.167,13.49824 -100.10941,38.93359 -49.79793,25.36177 -95.66435,36.74864 -137.92969,33.36914 -32.02725,-2.56087 -62.56827,-12.35973 -92.90429,-23.0957 0,0 150.58327,-470.39846 225.875,-705.59766 C 950.77014,80.110786 911.42095,37.436009 868.49414,36.644531 849.28538,36.290363 824.40719,45.960384 808.23347,69.649965 812.54994,32.672952 781.50348,0.05078125 741.83789,0.05078125 Z m 0.73438,29.81054675 c 30.49453,-0.81725 53.74342,29.50018 31.59765,84.207032 L 556.39433,652.04098 c -8.98219,-2.24739 -18.37362,-3.44141 -28.03515,-3.44141 -63.78965,0 -115.82422,52.03457 -115.82422,115.82422 0,35.11925 15.77162,66.67413 40.59375,87.94531 -16.90395,-4.40049 -43.49523,-8.40988 -92.73243,9.13477 -19.51141,6.95248 -39.08488,13.62806 -59.0625,18.34765 L 691.16211,69.621094 c 13.47711,-28.011205 33.76066,-39.286761 51.41016,-39.759766 z m 125.26757,36.822266 c 28.32165,0.285217 45.89331,30.72328 29.6543,81.451176 L 671.55078,853.94336 c -33.0534,-8.26599 -52.66382,-5.55511 -67.96289,-1.57227 24.82181,-21.27118 40.59375,-52.82783 40.59375,-87.94726 0,-43.17275 -23.83378,-80.96031 -59.01562,-100.87695 L 801.98633,125.30078 C 819.3051,82.307768 847.15678,66.4753 867.83984,66.683594 Z M 528.35938,678.59961 c 47.57645,0 85.82226,38.24778 85.82226,85.82422 0,47.57644 -38.24581,85.82226 -85.82226,85.82226 -47.57644,0 -85.82422,-38.24582 -85.82422,-85.82226 0,-47.57644 38.24778,-85.82422 85.82422,-85.82422 z M 28.636719,840.23438 c 11.555679,0.51814 44.982069,16.02236 100.394531,46.29687 65.95956,36.0369 130.69849,42.26724 194.10156,18.9082 63.40308,-23.35902 111.04862,-28.91927 142.93555,-16.68359 32.25771,12.23569 48.38672,40.04278 48.38672,83.42383 h -16.68555 c 0,-54.13362 -44.79808,-67.63151 -134.5918,-41.15625 -90.03425,26.54619 -170.00267,19.46592 -239.70898,-20.57813 -69.706307,-40.04404 -102.70583,-63.03239 -98.998047,-68.96484 0.637275,-0.92695 2.026075,-1.34206 4.166016,-1.24609 z m 999.445281,0 c 2.1399,-0.096 3.5287,0.31914 4.166,1.24609 3.7078,5.93245 -29.2916,28.9208 -98.998,68.96484 -69.70631,40.04405 -149.67473,47.12432 -239.70898,20.57813 -89.79372,-26.47526 -134.5918,-12.97737 -134.5918,41.15625 h -16.68555 c 0,-43.38105 16.12901,-71.18814 48.38672,-83.42383 31.88693,-12.23568 79.53247,-6.67543 142.93555,16.68359 63.40307,23.35904 128.142,17.1287 194.10156,-18.9082 55.41246,-30.27451 88.8388,-45.77873 100.3945,-46.29687 z m -522.46481,37.76367 c 7.35723,1.47491 14.96216,2.24804 22.74219,2.24804 7.78008,0 15.38495,-0.7731 22.74218,-2.24804 -12.13735,9.72142 -20.80611,21.11121 -22.74218,33.0039 -1.93608,-11.89268 -10.60487,-23.28249 -22.74219,-33.0039 z"
     sodipodi:nodetypes="ssccssssscccsssssscsscssscsscscssssccscsssssssssscccsscsscsscccssscsccc" />
</svg>
