<?xml version="1.0" encoding="UTF-8" standalone="no"?>
<svg
   width="1150"
   height="1000"
   version="1.1"
   id="svg1"
   sodipodi:docname="14191.svg"
   inkscape:version="1.4.2 (f4327f4, 2025-05-13)"
   xmlns:inkscape="http://www.inkscape.org/namespaces/inkscape"
   xmlns:sodipodi="http://sodipodi.sourceforge.net/DTD/sodipodi-0.dtd"
   xmlns="http://www.w3.org/2000/svg"
   xmlns:svg="http://www.w3.org/2000/svg">
  <defs
     id="defs1" />
  <sodipodi:namedview
     id="namedview1"
     pagecolor="#ffffff"
     bordercolor="#666666"
     borderopacity="1.0"
     inkscape:showpageshadow="2"
     inkscape:pageopacity="0.0"
     inkscape:pagecheckerboard="0"
     inkscape:deskcolor="#d1d1d1"
     showguides="true"
     inkscape:zoom="0.53386562"
     inkscape:cx="317.49563"
     inkscape:cy="482.33112"
     inkscape:window-width="1680"
     inkscape:window-height="998"
     inkscape:window-x="-8"
     inkscape:window-y="-8"
     inkscape:window-maximized="1"
     inkscape:current-layer="svg1">
    <sodipodi:guide
       position="562.84761,0"
       orientation="1,0"
       id="guide1"
       inkscape:locked="false" />
  </sodipodi:namedview>
  <path
     id="path1"
     style="fill:#000000;stroke:none;stroke-width:1"
     d="M 223.02539 0 C 202.26158 0 174.82292 11.124153 140.71094 33.371094 C 106.59897 55.988819 89.542969 93.066717 89.542969 144.60547 C 89.542969 205.04299 59.695957 268.0766 0 333.70508 L 0 369.85547 C 0 378.01268 20.393629 387.28216 61.179688 397.66406 C 101.59497 408.04597 140.8973 408.23182 179.08789 398.2207 C 217.27847 388.58036 236.37305 379.12503 236.37305 369.85547 L 236.37305 333.70508 C 180.01413 265.48112 151.83594 203.189 151.83594 146.83008 C 151.83594 90.471162 176.67844 61.92125 226.36328 61.179688 C 291.99175 61.179688 325.36227 103.07818 326.47461 186.875 C 292.22564 422.49522 266.40625 518.37775 266.40625 619.02148 C 266.40625 665.36925 278.45774 728.03117 302.55859 807.00781 C 353.35571 935.6691 440.11896 999.99983 562.84766 1000 C 685.57662 1000 772.33954 935.66927 823.13672 807.00781 C 847.23757 728.03117 859.28906 665.36925 859.28906 619.02148 C 859.28906 518.37775 833.46967 422.49522 799.2207 186.875 C 800.33304 103.07818 833.70356 61.179688 899.33203 61.179688 C 949.01687 61.92125 973.85938 90.471162 973.85938 146.83008 C 973.85938 203.189 945.68119 265.48112 889.32227 333.70508 L 889.32227 369.85547 C 889.32227 379.12503 908.41684 388.58036 946.60742 398.2207 C 984.79801 408.23182 1024.1003 408.04597 1064.5156 397.66406 C 1105.3017 387.28216 1125.6953 378.01268 1125.6953 369.85547 L 1125.6953 333.70508 C 1065.9993 268.0766 1036.1523 205.04299 1036.1523 144.60547 C 1036.1523 93.066717 1019.0963 55.988819 984.98438 33.371094 C 950.87239 11.124153 923.43373 0 902.66992 0 C 792.17678 1.8947806e-14 736.92969 60.993077 736.92969 182.98047 L 562.84766 182.98047 L 388.76562 182.98047 C 388.76562 60.993077 333.51853 1.8947806e-14 223.02539 0 z M 111.79102 186.875 L 133.48242 186.875 C 133.48242 235.81827 158.69469 288.09749 209.12109 343.71484 L 209.12109 362.06836 C 150.90826 375.41652 89.915192 375.41652 26.140625 362.06836 L 26.140625 344.82812 C 83.241109 289.21078 111.79102 237.30132 111.79102 189.09961 L 111.79102 186.875 z M 992.21289 186.875 L 1013.9043 186.875 L 1013.9043 189.09961 C 1013.9043 237.30132 1042.4542 289.21078 1099.5547 344.82812 L 1099.5547 362.06836 C 1035.7801 375.41652 974.78705 375.41652 916.57422 362.06836 L 916.57422 343.71484 C 967.00062 288.09749 992.21289 235.81827 992.21289 186.875 z M 388.76562 214.12695 L 414.7832 214.12695 C 398.78258 252.70356 392.37006 286.16015 393.5625 312.10156 C 394.25903 327.25455 397.48671 339.9887 403.94141 349.73828 C 410.3961 359.48786 421.02701 365.89453 432.70117 365.89453 C 444.37533 365.89453 455.00819 359.48786 461.46289 349.73828 C 467.91759 339.9887 471.14527 327.25455 471.8418 312.10156 C 473.03422 286.16015 466.62018 252.70356 450.61914 214.12695 L 501.54688 214.12695 C 485.54625 252.70356 479.13374 286.16015 480.32617 312.10156 C 481.0227 327.25455 484.25038 339.9887 490.70508 349.73828 C 497.15978 359.48786 507.79069 365.89453 519.46484 365.89453 C 531.139 365.89453 541.77186 359.48786 548.22656 349.73828 C 554.68126 339.9887 557.90894 327.25455 558.60547 312.10156 C 559.7979 286.16015 553.38539 252.70356 537.38477 214.12695 L 562.84766 214.12695 L 588.31055 214.12695 C 572.30992 252.70356 565.89742 286.16015 567.08984 312.10156 C 567.78637 327.25455 571.01405 339.9887 577.46875 349.73828 C 583.92345 359.48786 594.55631 365.89453 606.23047 365.89453 C 617.90463 365.89453 628.53554 359.48786 634.99023 349.73828 C 641.44493 339.9887 644.67261 327.25455 645.36914 312.10156 C 646.56158 286.16015 640.14906 252.70356 624.14844 214.12695 L 675.07617 214.12695 C 659.07514 252.70356 652.66108 286.16015 653.85352 312.10156 C 654.55004 327.25455 657.77772 339.9887 664.23242 349.73828 C 670.68712 359.48786 681.31998 365.89453 692.99414 365.89453 C 704.6683 365.89453 715.29921 359.48786 721.75391 349.73828 C 728.2086 339.9887 731.43628 327.25455 732.13281 312.10156 C 733.32525 286.16015 726.91273 252.70356 710.91211 214.12695 L 736.92969 214.12695 C 741.37907 214.12695 750.27879 269.37405 763.62695 379.86719 L 562.84766 379.86719 L 362.06836 379.86719 C 375.41652 269.37405 384.31625 214.12695 388.76562 214.12695 z M 432.70117 223.19336 C 447.37341 259.16433 452.85063 289.70389 451.86328 311.18359 C 451.27907 323.89319 448.36751 333.28626 444.78516 338.69727 C 441.20281 344.10827 437.89925 345.89453 432.70117 345.89453 C 427.50309 345.89453 424.19954 344.10827 420.61719 338.69727 C 417.03484 333.28626 414.12523 323.89319 413.54102 311.18359 C 412.55367 289.70389 418.02938 259.16433 432.70117 223.19336 z M 519.46484 223.19531 C 534.13639 259.16532 539.61428 289.70433 538.62695 311.18359 C 538.04274 323.89319 535.13118 333.28626 531.54883 338.69727 C 527.96648 344.10827 524.66292 345.89453 519.46484 345.89453 C 514.26677 345.89453 510.96516 344.10827 507.38281 338.69727 C 503.80046 333.28626 500.8889 323.89319 500.30469 311.18359 C 499.31736 289.70433 504.7933 259.16532 519.46484 223.19531 z M 606.23047 223.19531 C 620.90201 259.16532 626.37795 289.70433 625.39062 311.18359 C 624.80642 323.89319 621.89485 333.28626 618.3125 338.69727 C 614.73015 344.10827 611.42855 345.89453 606.23047 345.89453 C 601.03239 345.89453 597.72884 344.10827 594.14648 338.69727 C 590.56413 333.28626 587.65257 323.89319 587.06836 311.18359 C 586.08103 289.70433 591.55892 259.16532 606.23047 223.19531 z M 692.99219 223.19531 C 707.66373 259.16532 713.14162 289.70433 712.1543 311.18359 C 711.57008 323.89319 708.66048 333.28626 705.07812 338.69727 C 701.49577 344.10827 698.19222 345.89453 692.99414 345.89453 C 687.79606 345.89453 684.49251 344.10827 680.91016 338.69727 C 677.32781 333.28626 674.41625 323.89319 673.83203 311.18359 C 672.84471 289.70433 678.32064 259.16532 692.99219 223.19531 z M 355.95117 412.125 L 380.64258 412.125 C 364.23968 451.2575 357.66707 485.1819 358.87305 511.41797 C 359.56957 526.57095 362.79725 539.30315 369.25195 549.05273 C 375.70665 558.80232 386.33756 565.21094 398.01172 565.21094 C 409.68588 565.21094 420.31874 558.80232 426.77344 549.05273 C 433.22814 539.30315 436.45582 526.57095 437.15234 511.41797 C 438.35832 485.1819 431.78415 451.2575 415.38086 412.125 L 463.06055 412.125 C 446.65725 451.2575 440.08309 485.1819 441.28906 511.41797 C 441.98559 526.57095 445.21522 539.30315 451.66992 549.05273 C 458.12462 558.80232 468.75553 565.21094 480.42969 565.21094 C 492.10385 565.21094 502.73475 558.80232 509.18945 549.05273 C 515.64415 539.30315 518.87378 526.57095 519.57031 511.41797 C 520.77629 485.1819 514.20212 451.2575 497.79883 412.125 L 545.47852 412.125 C 529.07522 451.2575 522.50106 485.1819 523.70703 511.41797 C 524.40356 526.57095 527.63319 539.30315 534.08789 549.05273 C 540.54259 558.80232 551.1735 565.21094 562.84766 565.21094 C 574.52181 565.21094 585.15272 558.80232 591.60742 549.05273 C 598.06212 539.30315 601.29175 526.57095 601.98828 511.41797 C 603.19426 485.1819 596.62009 451.2575 580.2168 412.125 L 627.89648 412.125 C 611.49319 451.2575 604.91902 485.1819 606.125 511.41797 C 606.82153 526.57095 610.05116 539.30315 616.50586 549.05273 C 622.96056 558.80232 633.59148 565.21094 645.26562 565.21094 C 656.93979 565.21094 667.57069 558.80232 674.02539 549.05273 C 680.48009 539.30315 683.70972 526.57095 684.40625 511.41797 C 685.61223 485.1819 679.03806 451.2575 662.63477 412.125 L 710.31445 412.125 C 693.91116 451.2575 687.33699 485.1819 688.54297 511.41797 C 689.2395 526.57095 692.46718 539.30315 698.92188 549.05273 C 705.37658 558.80232 716.00944 565.21094 727.68359 565.21094 C 739.35775 565.21094 749.98866 558.80232 756.44336 549.05273 C 762.89806 539.30315 766.12574 526.57095 766.82227 511.41797 C 768.02824 485.1819 761.45564 451.2575 745.05273 412.125 L 769.74414 412.125 L 795.88477 588.98828 L 562.84766 588.98828 L 329.81055 588.98828 L 355.95117 412.125 z M 398.01172 422.50781 C 412.68395 458.47835 418.16117 489.01834 417.17383 510.49805 C 416.58961 523.20765 413.67805 532.60071 410.0957 538.01172 C 406.51335 543.42273 403.2098 545.21094 398.01172 545.21094 C 392.81364 545.21094 389.51009 543.42273 385.92773 538.01172 C 382.34538 532.60071 379.43578 523.20765 378.85156 510.49805 C 377.86422 489.01834 383.33991 458.47835 398.01172 422.50781 z M 480.42969 422.50781 C 495.10192 458.47835 500.57914 489.01834 499.5918 510.49805 C 499.00758 523.20765 496.09602 532.60071 492.51367 538.01172 C 488.93132 543.42273 485.62776 545.21094 480.42969 545.21094 C 475.23161 545.21094 471.92805 543.42273 468.3457 538.01172 C 464.76335 532.60071 461.85375 523.20765 461.26953 510.49805 C 460.28219 489.01834 465.75788 458.47835 480.42969 422.50781 z M 645.26562 422.50781 C 659.93742 458.47835 665.41313 489.01834 664.42578 510.49805 C 663.84157 523.20765 660.93196 532.60071 657.34961 538.01172 C 653.76726 543.42273 650.4637 545.21094 645.26562 545.21094 C 640.06755 545.21094 636.76399 543.42273 633.18164 538.01172 C 629.59929 532.60071 626.68773 523.20765 626.10352 510.49805 C 625.11617 489.01834 630.59339 458.47836 645.26562 422.50781 z M 727.68359 422.50781 C 742.35539 458.47835 747.8311 489.01834 746.84375 510.49805 C 746.25954 523.20765 743.34993 532.60071 739.76758 538.01172 C 736.18523 543.42273 732.88167 545.21094 727.68359 545.21094 C 722.48552 545.21094 719.18196 543.42273 715.59961 538.01172 C 712.01726 532.60071 709.1057 523.20765 708.52148 510.49805 C 707.53415 489.01834 713.01136 458.47836 727.68359 422.50781 z M 562.84766 422.50977 C 577.51941 458.48024 582.99516 489.01837 582.00781 510.49805 C 581.4236 523.20765 578.51399 532.60071 574.93164 538.01172 C 571.34929 543.42273 568.04573 545.21094 562.84766 545.21094 C 557.64958 545.21094 554.34602 543.42273 550.76367 538.01172 C 547.18132 532.60071 544.27171 523.20765 543.6875 510.49805 C 542.70016 489.01837 548.1759 458.48024 562.84766 422.50977 z M 329.81055 620.13281 L 379.19141 620.13281 C 363.85268 657.78308 357.70331 690.46252 358.87305 715.91016 C 359.56957 731.06314 362.79725 743.79729 369.25195 753.54688 C 375.70665 763.29647 386.33756 769.70312 398.01172 769.70312 C 409.68588 769.70312 420.31874 763.29646 426.77344 753.54688 C 433.22814 743.79729 436.45582 731.06314 437.15234 715.91016 C 438.32208 690.46252 432.1712 657.78308 416.83203 620.13281 L 461.60938 620.13281 C 446.2702 657.78308 440.11933 690.46252 441.28906 715.91016 C 441.98559 731.06314 445.21522 743.79729 451.66992 753.54688 C 458.12462 763.29647 468.75553 769.70312 480.42969 769.70312 C 492.10385 769.70312 502.73475 763.29646 509.18945 753.54688 C 515.64415 743.79729 518.87378 731.06314 519.57031 715.91016 C 520.74005 690.46252 514.58917 657.78308 499.25 620.13281 L 544.02734 620.13281 C 528.68817 657.78308 522.5373 690.46252 523.70703 715.91016 C 524.40356 731.06314 527.63319 743.79729 534.08789 753.54688 C 540.54259 763.29647 551.1735 769.70312 562.84766 769.70312 C 574.52181 769.70312 585.15272 763.29646 591.60742 753.54688 C 598.06212 743.79729 601.29175 731.06314 601.98828 715.91016 C 603.15802 690.46252 597.00715 657.78308 581.66797 620.13281 L 626.44531 620.13281 C 611.10614 657.78308 604.95526 690.46252 606.125 715.91016 C 606.82153 731.06314 610.05116 743.79729 616.50586 753.54688 C 622.96056 763.29647 633.59148 769.70312 645.26562 769.70312 C 656.93979 769.70312 667.57069 763.29646 674.02539 753.54688 C 680.48009 743.79729 683.70972 731.06314 684.40625 715.91016 C 685.57599 690.46252 679.42511 657.78308 664.08594 620.13281 L 708.86328 620.13281 C 693.5241 657.78308 687.37323 690.46252 688.54297 715.91016 C 689.2395 731.06314 692.46718 743.79729 698.92188 753.54688 C 705.37658 763.29647 716.00944 769.70312 727.68359 769.70312 C 739.35775 769.70312 749.98866 763.29646 756.44336 753.54688 C 762.89806 743.79729 766.12574 731.06314 766.82227 715.91016 C 767.992 690.46252 761.84264 657.78308 746.50391 620.13281 L 795.88477 620.13281 C 795.88477 675.00861 785.8738 729.32834 765.85156 783.0918 L 562.84766 783.0918 L 359.84375 783.0918 C 339.82151 729.32834 329.81055 675.00861 329.81055 620.13281 z M 398.01172 627.00195 C 412.68395 662.97293 418.16117 693.51248 417.17383 714.99219 C 416.58961 727.70179 413.67805 737.09485 410.0957 742.50586 C 406.51335 747.91687 403.2098 749.70312 398.01172 749.70312 C 392.81364 749.70312 389.51009 747.91687 385.92773 742.50586 C 382.34538 737.09485 379.43578 727.70179 378.85156 714.99219 C 377.86422 693.51248 383.33991 662.97293 398.01172 627.00195 z M 480.42969 627.00195 C 495.10192 662.97293 500.57914 693.51248 499.5918 714.99219 C 499.00758 727.70179 496.09602 737.09485 492.51367 742.50586 C 488.93132 747.91687 485.62776 749.70312 480.42969 749.70312 C 475.23161 749.70312 471.92805 747.91687 468.3457 742.50586 C 464.76335 737.09485 461.85375 727.70179 461.26953 714.99219 C 460.28219 693.51248 465.75788 662.97293 480.42969 627.00195 z M 562.84766 627.00195 C 577.51941 662.97287 582.99516 693.51251 582.00781 714.99219 C 581.4236 727.70179 578.51399 737.09485 574.93164 742.50586 C 571.34929 747.91687 568.04573 749.70312 562.84766 749.70312 C 557.64958 749.70312 554.34602 747.91687 550.76367 742.50586 C 547.18132 737.09485 544.27171 727.70179 543.6875 714.99219 C 542.70016 693.51251 548.1759 662.97287 562.84766 627.00195 z M 645.26562 627.00195 C 659.93742 662.97293 665.41313 693.51248 664.42578 714.99219 C 663.84157 727.70179 660.93196 737.09485 657.34961 742.50586 C 653.76726 747.91687 650.4637 749.70312 645.26562 749.70312 C 640.06755 749.70312 636.76399 747.91687 633.18164 742.50586 C 629.59929 737.09485 626.68773 727.70179 626.10352 714.99219 C 625.11617 693.51248 630.59339 662.97293 645.26562 627.00195 z M 727.68359 627.00195 C 742.35539 662.97293 747.8311 693.51248 746.84375 714.99219 C 746.25954 727.70179 743.34993 737.09485 739.76758 742.50586 C 736.18523 747.91687 732.88167 749.70312 727.68359 749.70312 C 722.48552 749.70312 719.18196 747.91687 715.59961 742.50586 C 712.01726 737.09485 709.1057 727.70179 708.52148 714.99219 C 707.53415 693.51248 713.01136 662.97293 727.68359 627.00195 z M 372.08008 815.34961 L 474.9043 815.34961 C 466.02421 840.13424 462.46927 861.73312 463.22852 878.88086 C 463.72665 890.13141 466.02347 899.5626 470.6543 906.82422 C 475.13406 913.84895 482.54719 918.66035 490.7832 918.9668 L 490.7832 918.98242 C 490.92274 918.98242 491.06207 918.9811 491.20117 918.97852 C 491.34028 918.9811 491.4796 918.98242 491.61914 918.98242 L 491.61914 918.9668 C 499.85504 918.66035 507.26633 913.84895 511.74609 906.82422 C 516.37692 899.5626 518.67375 890.13141 519.17188 878.88086 C 519.93113 861.73312 516.37618 840.13424 507.49609 815.34961 L 546.55273 815.34961 C 537.67264 840.13424 534.11771 861.73312 534.87695 878.88086 C 535.37509 890.13141 537.6719 899.5626 542.30273 906.82422 C 546.7825 913.84895 554.19379 918.66035 562.42969 918.9668 L 562.42969 918.98242 C 562.56923 918.98242 562.70855 918.9811 562.84766 918.97852 C 562.98676 918.9811 563.12609 918.98242 563.26562 918.98242 L 563.26562 918.9668 C 571.50152 918.66035 578.91282 913.84895 583.39258 906.82422 C 588.02341 899.5626 590.32022 890.13141 590.81836 878.88086 C 591.5776 861.73312 588.02267 840.13424 579.14258 815.34961 L 618.19922 815.34961 C 609.31912 840.13424 605.76419 861.73312 606.52344 878.88086 C 607.02158 890.13141 609.31839 899.5626 613.94922 906.82422 C 618.42898 913.84895 625.84028 918.66035 634.07617 918.9668 L 634.07617 918.98242 C 634.21571 918.98242 634.35504 918.9811 634.49414 918.97852 C 634.63324 918.9811 634.77257 918.98242 634.91211 918.98242 L 634.91211 918.9668 C 643.14812 918.66035 650.56125 913.84895 655.04102 906.82422 C 659.67185 899.5626 661.96866 890.13141 662.4668 878.88086 C 663.22604 861.73312 659.67111 840.13424 650.79102 815.34961 L 753.61523 815.34961 C 716.90778 897.6633 653.31855 938.82031 562.84766 938.82031 C 472.37677 938.82031 408.78753 897.6633 372.08008 815.34961 z M 490.91992 815.34961 L 491.48047 815.34961 C 501.22131 840.96202 504.87138 862.727 504.18555 878.2168 C 503.76558 887.70176 501.66189 894.73878 499.09766 898.75977 C 496.63623 902.61954 494.48833 903.88157 491.20117 903.97656 C 487.91388 903.88157 485.76416 902.61954 483.30273 898.75977 C 480.7385 894.73878 478.63481 887.70176 478.21484 878.2168 C 477.52901 862.727 481.17908 840.96202 490.91992 815.34961 z M 562.56641 815.34961 L 562.84766 815.34961 L 563.12891 815.34961 C 572.86975 840.96202 576.51982 862.727 575.83398 878.2168 C 575.41402 887.70176 573.31033 894.73878 570.74609 898.75977 C 568.28467 902.61954 566.13495 903.88157 562.84766 903.97656 C 559.56036 903.88157 557.41065 902.61954 554.94922 898.75977 C 552.38498 894.73878 550.28129 887.70176 549.86133 878.2168 C 549.17549 862.727 552.82556 840.96202 562.56641 815.34961 z M 634.21484 815.34961 L 634.77539 815.34961 C 644.51623 840.96202 648.16631 862.727 647.48047 878.2168 C 647.06051 887.70176 644.95682 894.73878 642.39258 898.75977 C 639.93115 902.61954 637.78143 903.88157 634.49414 903.97656 C 631.20699 903.88157 629.05908 902.61954 626.59766 898.75977 C 624.03342 894.73878 621.92973 887.70176 621.50977 878.2168 C 620.82393 862.727 624.474 840.96202 634.21484 815.34961 z " />
</svg>
