<?xml version="1.0" encoding="UTF-8" standalone="no"?>
<svg
   width="544.15881"
   height="1100"
   version="1.1"
   id="svg1"
   sodipodi:docname="141CE.svg"
   inkscape:version="1.4.3 (0d15f75, 2025-12-25)"
   xmlns:inkscape="http://www.inkscape.org/namespaces/inkscape"
   xmlns:sodipodi="http://sodipodi.sourceforge.net/DTD/sodipodi-0.dtd"
   xmlns="http://www.w3.org/2000/svg"
   xmlns:svg="http://www.w3.org/2000/svg">
  <defs
     id="defs1" />
  <sodipodi:namedview
     id="namedview1"
     pagecolor="#ffffff"
     bordercolor="#666666"
     borderopacity="1.0"
     inkscape:showpageshadow="2"
     inkscape:pageopacity="0.0"
     inkscape:pagecheckerboard="0"
     inkscape:deskcolor="#d1d1d1"
     inkscape:zoom="0.24266619"
     inkscape:cx="550.13844"
     inkscape:cy="826.23788"
     inkscape:window-width="1680"
     inkscape:window-height="998"
     inkscape:window-x="-8"
     inkscape:window-y="-8"
     inkscape:window-maximized="1"
     inkscape:current-layer="svg1" />
  <path
     id="path1"
     style="fill:#000000;stroke:none;stroke-width:0.999998"
     d="M 272.38672 0 C 90.795512 0 3.7895613e-14 96.740083 0 290.21875 L 244.10352 290.21875 L 241.61133 633.79297 L 0.15625 773.23438 L 20.160156 807.87305 L 241.27539 680.17969 L 238.56836 1053.2695 C 238.56836 1084.4229 249.84153 1100 272.38672 1100 C 294.52199 1100 305.58984 1084.4229 305.58984 1053.2695 L 302.62695 644.74805 L 399.70312 588.6875 L 517.59766 692.2832 L 544.00195 662.23438 L 404.54883 539.69727 L 302.29297 598.75 L 300.05664 290.21875 L 544.1582 290.21875 C 544.1582 96.740083 453.56801 -3.7895613e-14 272.38672 0 z M 272.38672 39.351562 C 420.77502 39.351562 498.24805 111.29066 504.80664 255.16992 L 39.351562 255.16992 C 45.090337 111.29066 122.76868 39.351563 272.38672 39.351562 z " />
</svg>
