<?xml version="1.0" encoding="UTF-8" standalone="no"?>
<svg
   width="1100"
   height="1000"
   version="1.1"
   id="svg1"
   sodipodi:docname="142A8.svg"
   inkscape:version="1.4.3 (0d15f75, 2025-12-25)"
   xmlns:inkscape="http://www.inkscape.org/namespaces/inkscape"
   xmlns:sodipodi="http://sodipodi.sourceforge.net/DTD/sodipodi-0.dtd"
   xmlns="http://www.w3.org/2000/svg"
   xmlns:svg="http://www.w3.org/2000/svg">
  <defs
     id="defs1" />
  <sodipodi:namedview
     id="namedview1"
     pagecolor="#ffffff"
     bordercolor="#666666"
     borderopacity="1.0"
     inkscape:showpageshadow="2"
     inkscape:pageopacity="0.0"
     inkscape:pagecheckerboard="0"
     inkscape:deskcolor="#d1d1d1"
     inkscape:zoom="0.755"
     inkscape:cx="690.72848"
     inkscape:cy="488.07947"
     inkscape:window-width="1680"
     inkscape:window-height="998"
     inkscape:window-x="-8"
     inkscape:window-y="-8"
     inkscape:window-maximized="1"
     inkscape:current-layer="svg1"
     showguides="true">
    <sodipodi:guide
       position="644.88477,660.73438"
       orientation="0,-1"
       id="guide1"
       inkscape:locked="false" />
    <sodipodi:guide
       position="694.28125,710.12891"
       orientation="1,0"
       id="guide2"
       inkscape:locked="false" />
    <sodipodi:guide
       position="455.69336,660.73438"
       orientation="1,0"
       id="guide3"
       inkscape:locked="false" />
    <sodipodi:guide
       position="694.28125,899.32031"
       orientation="0,-1"
       id="guide4"
       inkscape:locked="false" />
    <sodipodi:guide
       position="932.86719,660.73438"
       orientation="1,0"
       id="guide5"
       inkscape:locked="false" />
  </sodipodi:namedview>
  <path
     id="path1"
     style="fill:#000000;stroke:none;stroke-width:60.51"
     d="M 658.51953 100.67969 C 526.95944 100.67969 419.93359 207.70552 419.93359 339.26562 C 419.93359 452.10804 498.67154 546.90077 604.09375 571.58984 L 288.56055 571.58984 C 230.06757 572.39664 188.31548 528.4257 163.30469 439.67773 C 159.04378 425.58395 151.45569 418.68001 140.53711 418.9668 C 138.01744 419.033 135.31954 419.48244 132.44531 420.31445 C 117.11612 425.15525 111.87209 435.84537 116.71289 452.38477 C 148.58148 562.51293 205.86357 617.57617 288.56055 617.57617 C 223.38355 647.20208 173.28339 699.59273 138.86133 745.76172 C 96.107346 727.41949 65.931884 687.31298 48.335938 625.44336 C 43.09174 608.90397 32.805757 602.65155 17.476562 606.68555 C 2.1473683 610.71955 -3.0966577 621.61173 1.7441406 639.36133 C 22.733715 712.96113 59.655509 761.69284 112.51172 785.55859 C 87.073918 829.5756 74.355469 873.01946 74.355469 915.89062 C 74.355469 971.96321 101.58594 1000 156.04492 1000 C 211.7141 1000 239.54883 961.67722 239.54883 885.03125 C 239.54883 859.15038 243.51753 831.71979 251.45703 802.73828 L 1100 802.73828 L 1100 757.35547 L 1001.3691 757.35547 L 1001.3691 617.57617 L 1100 617.57617 L 1100 571.58984 L 712.94531 571.58984 C 818.36752 546.90077 897.10547 452.10804 897.10547 339.26562 C 897.10547 207.70552 790.07963 100.67969 658.51953 100.67969 z M 658.51953 135.67969 C 771.16422 135.67969 862.10547 226.62094 862.10547 339.26562 C 862.10547 451.91033 771.16422 542.85156 658.51953 542.85156 C 545.87484 542.85156 454.93359 451.91033 454.93359 339.26562 C 454.93359 226.62093 545.87484 135.67969 658.51953 135.67969 z M 341.81055 617.57617 L 420.47266 617.57617 L 420.47266 757.35547 L 266.63672 757.35547 C 283.66568 713.89836 308.72363 667.30443 341.81055 617.57617 z M 464.64453 617.57617 L 558.43555 617.57617 L 558.43555 757.35547 L 464.64453 757.35547 L 464.64453 617.57617 z M 602.60742 617.57617 L 822.25977 617.57617 L 822.25977 757.35547 L 602.60742 757.35547 L 602.60742 617.57617 z M 867.03711 617.57617 L 956.5918 617.57617 L 956.5918 757.35547 L 867.03711 757.35547 L 867.03711 617.57617 z M 272.22266 661.75 L 275.85352 661.75 C 253.76486 695.40891 236.47584 727.27719 223.98633 757.35547 L 199.61133 757.35547 C 193.28166 757.35547 187.1299 757.04813 181.1543 756.43555 C 204.42174 724.46816 234.77685 692.9072 272.22266 661.75 z M 154.66016 798.70508 C 168.78254 801.39376 183.76619 802.73828 199.61133 802.73828 L 208.41992 802.73828 C 202.54772 824.81029 199.61133 845.78639 199.61133 865.66797 C 199.61133 923.35415 186.30017 952.19727 159.67578 952.19727 C 133.05139 952.19727 119.73828 937.67565 119.73828 908.63086 C 119.73828 879.74945 131.3789 843.10733 154.66016 798.70508 z " />
  <circle
     style="fill:#000000;fill-rule:evenodd;stroke:none;stroke-width:50;stroke-miterlimit:2;stroke-dasharray:none"
     id="path3"
     cx="658.51965"
     cy="339.26559"
     r="49.394547" />
</svg>
