<?xml version="1.0" encoding="UTF-8" standalone="no"?>
<svg
   width="180"
   height="500"
   version="1.1"
   id="svg1"
   sodipodi:docname="142C2.svg"
   inkscape:version="1.4.2 (f4327f4, 2025-05-13)"
   xml:space="preserve"
   xmlns:inkscape="http://www.inkscape.org/namespaces/inkscape"
   xmlns:sodipodi="http://sodipodi.sourceforge.net/DTD/sodipodi-0.dtd"
   xmlns="http://www.w3.org/2000/svg"
   xmlns:svg="http://www.w3.org/2000/svg"><defs
     id="defs1" /><sodipodi:namedview
     id="namedview1"
     pagecolor="#ffffff"
     bordercolor="#666666"
     borderopacity="1.0"
     inkscape:showpageshadow="2"
     inkscape:pageopacity="0.0"
     inkscape:pagecheckerboard="0"
     inkscape:deskcolor="#d1d1d1"
     inkscape:zoom="1.0677312"
     inkscape:cx="-18.731307"
     inkscape:cy="341.37806"
     inkscape:window-width="1680"
     inkscape:window-height="998"
     inkscape:window-x="-8"
     inkscape:window-y="-8"
     inkscape:window-maximized="1"
     inkscape:current-layer="svg1"
     showguides="true"><sodipodi:guide
       position="186.09272,339.07284"
       orientation="1,0"
       id="guide1"
       inkscape:locked="false" /><sodipodi:guide
       position="90,500"
       orientation="1,0"
       id="guide2"
       inkscape:locked="false" /><sodipodi:guide
       position="180,0"
       orientation="0,-1"
       id="guide3"
       inkscape:locked="false" /><sodipodi:guide
       position="0,500"
       orientation="0,-1"
       id="guide4"
       inkscape:locked="false" /><sodipodi:guide
       position="423.41992,90.93359"
       orientation="1,0"
       id="guide6"
       inkscape:locked="false" /></sodipodi:namedview><path
     id="path5"
     style="baseline-shift:baseline;display:inline;overflow:visible;vector-effect:none;enable-background:accumulate;stop-color:#000000;stop-opacity:1;opacity:1"
     d="M 63.222656 -0.048828125 L 77.554688 63.644531 C 30.571224 69.706582 -5.9609375 109.60308 -5.9609375 157.81445 L -5.9609375 167.81445 L 75 167.81445 L 75 374.47461 C 53.297278 379.0165 39.248047 395.02254 39.248047 426.86719 L 46.8125 476.04297 C 52.066398 492.01481 62.048858 500 76.759766 500 L 63.205078 426.86719 C 63.62541 406.90236 72.557072 396.91992 90 396.91992 C 107.44293 396.91992 116.37459 406.90236 116.79492 426.86719 L 103.24023 500 C 117.95114 500 127.9336 492.01481 133.1875 476.04297 L 140.75195 426.86719 C 140.75195 395.02254 126.70272 379.0165 105 374.47461 L 105 167.81445 L 185.96094 167.81445 L 185.96094 157.81445 C 185.96094 109.60308 149.42878 69.706581 102.44531 63.644531 L 116.77734 -0.048828125 L 90 -0.048828125 L 63.222656 -0.048828125 z M 81.972656 14.951172 L 90 14.951172 L 98.027344 14.951172 L 90 50.625 L 81.972656 14.951172 z M 90 82.847656 C 128.67725 82.847656 160.27702 111.11092 165.21289 147.81445 L 90 147.81445 L 14.787109 147.81445 C 19.722982 111.11092 51.322748 82.847656 90 82.847656 z " /></svg>
