<?xml version="1.0" encoding="UTF-8" standalone="no"?>
<svg
   width="513.34814"
   height="1000"
   version="1.1"
   id="svg1"
   sodipodi:docname="1432E.svg"
   inkscape:version="1.4.3 (0d15f75, 2025-12-25)"
   xmlns:inkscape="http://www.inkscape.org/namespaces/inkscape"
   xmlns:sodipodi="http://sodipodi.sourceforge.net/DTD/sodipodi-0.dtd"
   xmlns="http://www.w3.org/2000/svg"
   xmlns:svg="http://www.w3.org/2000/svg">
  <defs
     id="defs1" />
  <sodipodi:namedview
     id="namedview1"
     pagecolor="#ffffff"
     bordercolor="#666666"
     borderopacity="1.0"
     inkscape:showpageshadow="2"
     inkscape:pageopacity="0.0"
     inkscape:pagecheckerboard="0"
     inkscape:deskcolor="#d1d1d1"
     inkscape:zoom="0.53386562"
     inkscape:cx="-69.30583"
     inkscape:cy="467.34607"
     inkscape:window-width="1680"
     inkscape:window-height="998"
     inkscape:window-x="-8"
     inkscape:window-y="-8"
     inkscape:window-maximized="1"
     inkscape:current-layer="svg1"
     showguides="true">
    <sodipodi:guide
       position="255.9242,898.85284"
       orientation="1,0"
       id="guide1"
       inkscape:locked="false" />
  </sodipodi:namedview>
  <path
     id="path1"
     style="fill:#000000;stroke:none;stroke-width:0.999998"
     d="M 236.67383 0 L 236.67383 40.994141 L 183.50391 40.994141 L 183.50391 80.994141 L 236.67383 80.994141 L 236.67383 120.20508 C 175.44453 125.43187 136.97204 156.51123 121.25586 213.44531 L 30.650391 213.44531 C 30.650391 330.00812 48.607726 430.24604 84.523438 514.1582 L 157.98828 514.1582 C 164.5184 539.2992 169.25283 562.80766 172.19141 584.68359 C 155.53958 584.68359 147.21289 595.29468 147.21289 616.51758 C 147.21289 637.74052 153.74442 648.35352 166.80469 648.35352 C 153.74442 648.35352 147.37663 657.8224 147.70312 676.75977 C 148.02964 695.69714 154.39743 705.16406 166.80469 705.16406 C 153.74442 705.16406 147.21289 716.42809 147.21289 738.95703 C 147.21289 760.50646 156.84549 771.2832 176.10938 771.2832 C 168.27319 833.64592 145.74322 904.16937 108.52148 982.85742 C 108.52148 993.63214 122.56108 999.347 150.64062 1000 C 188.51538 912.82277 212.18756 836.58448 221.65625 771.2832 L 291.69336 771.2832 C 301.16203 836.58448 324.50481 912.82277 361.72656 1000 C 390.45911 999.347 404.82617 993.63214 404.82617 982.85742 C 367.60442 904.16937 344.5852 833.64592 335.76953 771.2832 C 355.35993 771.2832 365.15625 760.50646 365.15625 738.95703 C 365.15625 716.42809 359.1159 705.16406 347.03516 705.16406 C 359.1159 705.16406 365.15625 695.69714 365.15625 676.75977 C 365.15625 657.8224 359.1159 648.35352 347.03516 648.35352 C 359.1159 648.35352 365.31802 637.74052 365.64453 616.51758 C 365.97104 595.29468 357.97181 584.68359 341.64648 584.68359 C 344.25854 562.80766 348.50375 539.2992 354.38086 514.1582 L 427.8457 514.1582 C 464.41443 430.24604 482.69727 330.00812 482.69727 213.44531 L 391.11328 213.44531 C 375.51523 156.93917 337.36871 125.90135 276.67383 120.32812 L 276.67383 80.994141 L 329.84375 80.994141 L 329.84375 40.994141 L 276.67383 40.994141 L 276.67383 0 L 236.67383 0 z M 255.93945 164.96094 C 295.77323 164.96094 323.8524 181.2849 340.17773 213.93555 C 356.82956 246.58619 354.70696 307.31719 333.81055 396.12695 C 312.91413 484.9367 299.202 547.78836 292.67188 584.68359 L 220.67578 584.68359 C 213.49264 547.78836 199.61873 484.9367 179.04883 396.12695 C 158.47892 307.31719 156.51809 246.58619 173.16992 213.93555 C 189.49525 181.2849 217.08518 164.96094 255.93945 164.96094 z M 61.994141 245.76953 L 114.88867 245.76953 C 114.88867 300.29612 127.1331 380.12663 151.62109 485.26172 L 106.07227 485.26172 C 76.686681 408.85919 61.994141 329.02868 61.994141 245.76953 z M 398.45898 245.76953 L 450.37305 245.76953 C 451.02605 329.02868 436.66097 408.85919 407.27539 485.26172 L 361.72656 485.26172 C 386.21453 380.12663 398.45898 300.29612 398.45898 245.76953 z M 182.9668 608.19141 L 329.40234 608.19141 C 338.87103 608.19141 343.60547 611.78365 343.60547 618.9668 C 343.60547 626.14995 339.19849 629.74219 330.38281 629.74219 L 182.9668 629.74219 C 173.49813 629.74219 168.76367 626.14995 168.76367 618.9668 C 168.76367 611.78365 173.49813 608.19141 182.9668 608.19141 z M 182.9668 667.45312 L 330.38281 667.45312 C 339.19849 667.45312 343.60547 671.04538 343.60547 678.22852 C 343.60547 685.41166 339.19849 689.00195 330.38281 689.00195 L 182.9668 689.00195 C 173.49813 689.00195 168.76367 685.41166 168.76367 678.22852 C 168.76367 671.04538 173.49813 667.45313 182.9668 667.45312 z M 182.9668 725.73438 L 329.40234 725.73438 C 338.87103 725.73438 343.7692 729.32662 344.0957 736.50977 C 344.42222 743.69291 339.52403 747.2832 329.40234 747.2832 L 182.9668 747.2832 C 173.49813 747.2832 168.76367 743.69291 168.76367 736.50977 C 168.76367 729.32662 173.49813 725.73437 182.9668 725.73438 z " />
</svg>
