<?xml version="1.0" encoding="UTF-8" standalone="no"?>
<svg
   width="778.08679"
   height="1000"
   version="1.1"
   id="svg1"
   sodipodi:docname="1435C.svg"
   inkscape:version="1.4.2 (f4327f4, 2025-05-13)"
   xmlns:inkscape="http://www.inkscape.org/namespaces/inkscape"
   xmlns:sodipodi="http://sodipodi.sourceforge.net/DTD/sodipodi-0.dtd"
   xmlns="http://www.w3.org/2000/svg"
   xmlns:svg="http://www.w3.org/2000/svg">
  <defs
     id="defs1" />
  <sodipodi:namedview
     id="namedview1"
     pagecolor="#ffffff"
     bordercolor="#666666"
     borderopacity="1.0"
     inkscape:showpageshadow="2"
     inkscape:pageopacity="0.0"
     inkscape:pagecheckerboard="0"
     inkscape:deskcolor="#d1d1d1"
     showguides="true"
     inkscape:zoom="0.755"
     inkscape:cx="405.96026"
     inkscape:cy="689.40397"
     inkscape:window-width="1680"
     inkscape:window-height="998"
     inkscape:window-x="-8"
     inkscape:window-y="-8"
     inkscape:window-maximized="1"
     inkscape:current-layer="svg1">
    <sodipodi:guide
       position="388.20912,961.06785"
       orientation="1,0"
       id="guide1"
       inkscape:locked="false" />
  </sodipodi:namedview>
  <path
     id="path1"
     style="fill:#000000;stroke:none;stroke-width:1"
     d="m 388.20898,102.61328 c -180.01946,0 -278.02957,118.93608 -299.220699,200.50195 L 28.365234,255.2832 H 0 c 8.527994,74.89804 8.8997105,149.79728 1.1132812,224.69532 H 29.476562 L 95.662109,415.46094 228.58789,1000 h 319.24219 l 132.92578,-584.53906 66.18555,64.51758 h 28.36328 c -7.78643,-74.89804 -7.41471,-149.79728 1.11328,-224.69532 h -28.36524 l -60.62304,47.83203 C 666.23856,221.54936 568.22844,102.61328 388.20898,102.61328 Z m 0,39.21094 c 132.6195,0 235.37852,86.85244 260.28907,166.29687 H 127.91992 C 152.83047,228.67666 255.58948,141.82422 388.20898,141.82422 Z M 28.365234,291.43555 86.207031,343.1582 c -0.741564,15.57286 0.185774,29.84879 2.78125,42.82618 L 29.476562,443.82617 C 38.37534,393.02899 38.005576,342.23273 28.365234,291.43555 Z m 719.687496,0 c -9.64035,50.79718 -10.0101,101.59344 -1.11132,152.39062 l -59.51172,-57.84179 c 2.59548,-12.97739 3.52281,-27.25332 2.78125,-42.82618 z m -617.9082,59.50976 h 516.12891 l -6.67383,15.57227 H 136.81836 Z m 15.57227,59.51172 H 630.70117 L 509.45508,954.94922 H 266.96289 Z"
     sodipodi:nodetypes="sccccccccccccccssccscccccccccccccccccccc" />
</svg>
