<?xml version="1.0" encoding="UTF-8" standalone="no"?>
<svg
   width="800"
   height="800"
   version="1.1"
   id="svg1"
   sodipodi:docname="1439B.svg"
   inkscape:version="1.4.2 (f4327f4, 2025-05-13)"
   xmlns:inkscape="http://www.inkscape.org/namespaces/inkscape"
   xmlns:sodipodi="http://sodipodi.sourceforge.net/DTD/sodipodi-0.dtd"
   xmlns="http://www.w3.org/2000/svg"
   xmlns:svg="http://www.w3.org/2000/svg">
  <defs
     id="defs1" />
  <sodipodi:namedview
     id="namedview1"
     pagecolor="#ffffff"
     bordercolor="#666666"
     borderopacity="1.0"
     inkscape:showpageshadow="2"
     inkscape:pageopacity="0.0"
     inkscape:pagecheckerboard="0"
     inkscape:deskcolor="#d1d1d1"
     inkscape:zoom="0.66733202"
     inkscape:cx="239.01146"
     inkscape:cy="487.7632"
     inkscape:window-width="1680"
     inkscape:window-height="998"
     inkscape:window-x="-8"
     inkscape:window-y="-8"
     inkscape:window-maximized="1"
     inkscape:current-layer="svg1"
     showguides="true">
    <sodipodi:guide
       position="353.38867,455.99609"
       orientation="0.99965026,0.026445294"
       id="guide2"
       inkscape:locked="false" />
    <sodipodi:guide
       position="523.58984,364.35156"
       orientation="-0.98554005,0.16944266"
       id="guide3"
       inkscape:locked="false" />
  </sodipodi:namedview>
  <path
     id="path1"
     style="fill:#000000;stroke:none;stroke-width:1"
     d="m 353.17674,335.9929 c -82.9035,1.38092 -137.59571,25.38653 -164.07713,72.01687 -27.58621,48.35002 -47.01532,72.52343 -58.28711,72.52343 -11.56841,0 -42.417102,-39.59972 -92.546875,-118.79882 C 12.755805,347.1997 0,346.90429 0,360.8457 v 414.23828 c 0,13.94142 12.755805,13.94142 38.265625,0 50.12978,-79.1991 80.978475,-118.94751 92.546875,-119.24414 11.27179,-0.29662 30.7009,23.58138 58.28711,71.63477 C 216.38919,775.82463 273.6377,800 360.8457,800 421.65401,800 510.04858,778.49512 626.0293,735.48438 742.01002,692.77025 800,636.85601 800,567.74219 800,499.51823 742.01002,443.75269 626.0293,400.44531 593.51464,388.38745 563.16814,378.01985 534.98974,369.34246 l -11.3999,66.30598 c -8.70511,50.62545 -30.55001,100.84765 -82.96679,100.84765 -30.17846,0 -82.26734,-4.86082 -85.8125,-138.74414 z m -34.00877,37.8821 0.65625,24.80273 c 2.5379,95.8439 29.39732,172.81836 120.79883,172.81836 83.33924,0 109.39164,-82.98822 117.46093,-129.91601 l 4.67188,-27.17578 c 14.10146,4.87257 28.66682,10.157 43.69531,15.85156 104.11569,39.45124 156.17383,85.28017 156.17383,137.48633 0,52.20615 -52.05814,98.18377 -156.17383,137.93164 -104.11568,39.45124 -185.98366,59.17578 -245.60547,59.17578 -75.6396,0 -126.36347,-24.17538 -152.16992,-72.52539 -25.80645,-48.05339 -48.94296,-71.93139 -69.41016,-71.63477 -20.46717,0.29662 -39.450245,11.12341 -56.951167,32.48047 -17.500925,21.65369 -33.815439,45.82907 -48.943359,72.52539 V 411.12305 c 15.12792,26.69633 31.442434,50.8717 48.943359,72.52539 17.500922,21.35706 36.483997,32.18384 56.951167,32.48047 20.46719,0.29662 43.60371,-23.87875 69.41016,-72.52539 20.73873,-38.85532 57.57029,-62.09824 110.49219,-69.72852 z"
     sodipodi:nodetypes="ccscsscccscscccsccccsccsscscsccccscc" />
</svg>
