<?xml version="1.0" encoding="UTF-8" standalone="no"?>
<svg
   width="800"
   height="1000"
   version="1.1"
   id="svg1"
   sodipodi:docname="143B7.svg"
   inkscape:version="1.4.3 (0d15f75, 2025-12-25)"
   xml:space="preserve"
   xmlns:inkscape="http://www.inkscape.org/namespaces/inkscape"
   xmlns:sodipodi="http://sodipodi.sourceforge.net/DTD/sodipodi-0.dtd"
   xmlns="http://www.w3.org/2000/svg"
   xmlns:svg="http://www.w3.org/2000/svg"><defs
     id="defs1" /><sodipodi:namedview
     id="namedview1"
     pagecolor="#ffffff"
     bordercolor="#666666"
     borderopacity="1.0"
     inkscape:showpageshadow="2"
     inkscape:pageopacity="0.0"
     inkscape:pagecheckerboard="0"
     inkscape:deskcolor="#d1d1d1"
     inkscape:zoom="0.26693281"
     inkscape:cx="-320.30532"
     inkscape:cy="897.22953"
     inkscape:window-width="1680"
     inkscape:window-height="998"
     inkscape:window-x="-8"
     inkscape:window-y="-8"
     inkscape:window-maximized="1"
     inkscape:current-layer="svg1"
     showguides="true"><sodipodi:guide
       position="400,500"
       orientation="0,-1"
       id="guide2"
       inkscape:locked="false" /><sodipodi:guide
       position="400,500"
       orientation="1,0"
       id="guide3"
       inkscape:locked="false" /><sodipodi:guide
       position="208.19461,522.5"
       orientation="0,-1"
       id="guide5"
       inkscape:locked="false" /><sodipodi:guide
       position="591.80539,522.5"
       orientation="1,0"
       id="guide6"
       inkscape:locked="false" /><sodipodi:guide
       position="208.19461,522.5"
       orientation="1,0"
       id="guide7"
       inkscape:locked="false" /></sodipodi:namedview><path
     id="path3"
     style="baseline-shift:baseline;display:inline;overflow:visible;opacity:1;vector-effect:none;fill:#000000;enable-background:accumulate;stop-color:#000000;stop-opacity:1"
     d="M 278.34961,0.02148438 C 266.44638,0.3005156 257.33336,3.2309636 251.00977,8.8105469 L 230.17969,34.103516 c -20.83066,7.439444 -32.48695,13.143634 -34.9668,17.111328 -10.41533,10.415434 -21.07893,18.102934 -31.99023,23.0625 -14.38308,2.97599 -42.90141,22.815944 -85.554691,59.517576 -21.8226,12.3992 -32.732422,29.50946 -32.732422,51.33203 -3.471773,12.89514 1.487759,18.35113 14.878906,16.36719 0,18.84639 9.919099,28.51719 29.757813,29.01367 L 87.339844,339.125 c 16.366946,-8.92743 29.758496,-22.31895 40.173826,-40.17383 10.41533,-17.85488 13.14328,-40.66916 8.1836,-68.44336 19.83872,0 38.43798,0.74478 55.79687,2.23242 0.99193,38.68558 7.19037,64.72222 18.59766,78.11329 15.37496,-20.83047 21.57535,-48.6045 18.59961,-83.32227 9.42333,-1.9839 17.11092,-0.99129 23.0625,2.97656 21.09548,13.99973 -16.63235,134.06944 -43.5586,246.99219 l 1.86914,24.23047 c 15.59692,202.17316 46.71425,353.56314 84.4961,498.51363 h 210.8789 c 38.01096,-145.82949 68.95502,-297.06435 84.4961,-498.51363 L 591.80469,477.5 C 611.47256,313.69758 590.37624,173.84379 563.8418,134.91016 537.30754,95.976705 514.86453,67.458231 496.51367,49.355469 478.16285,31.252531 440.96629,15.258278 384.92188,1.3710938 l -33.47852,7.4394531 c -17.35891,0 -37.44523,-2.7279086 -60.25977,-8.18359378 -4.5877,-0.49593981 -8.86624,-0.69847916 -12.83398,-0.60546874 z m 5.39453,33.33789062 69.93164,3.720703 c 41.16537,-1.487816 74.76636,6.570916 100.80469,24.177734 26.03834,17.60682 51.0842,46.498298 75.13867,86.671878 24.05439,40.17338 40.39446,180.15102 24.09961,329.57031 H 247.09766 c 36.87036,-132.82712 77.73184,-243.86577 26.1582,-276.00586 -46.12505,0 -111.27187,2.9761 -182.195313,8.92774 -8.927447,-0.49594 -13.390625,-2.72762 -13.390625,-6.69532 l 44.636718,-4.46484 c 6.94355,3.47121 12.39944,3.59497 16.36719,0.37109 3.96772,-3.22368 4.83536,-5.95178 2.60351,-8.18359 -2.23185,-2.23146 -6.57193,-2.60288 -13.01953,-1.11524 -6.44758,1.48746 -18.10193,2.48009 -34.964841,2.97657 -16.862934,0.49593 -25.294922,-2.7282 -25.294922,-9.67188 0,-6.9435 3.224288,-12.8959 9.671875,-17.85547 8.92744,4.95938 15.870405,5.70418 20.830078,2.23242 4.95967,-3.47174 8.67834,-13.14273 11.1582,-29.01367 20.33471,-18.84693 35.46347,-30.75135 45.38282,-35.71093 21.8226,-7.439626 37.69195,-17.110426 47.61132,-29.013676 -3.47181,7.43962 -3.2236,14.382513 0.74414,20.830078 l -64.72265,43.150388 3.71875,4.46289 66.95508,-40.91797 c 22.81446,-0.49593 33.72625,-6.694392 32.73437,-18.597652 0,-12.398653 -6.69479,-18.847273 -20.08594,-19.34375 4.95969,0 12.64716,-0.990674 23.0625,-2.974609 7.93549,-18.350815 20.83068,-27.527344 38.68555,-27.527344 z m 37.94141,4.464844 v 29.013672 c 17.85484,-3.96787 32.48531,-2.727045 43.89257,3.720703 -68.44369,40.173386 -101.92159,74.393936 -100.43359,102.664066 2.47983,17.35894 23.43576,19.09617 62.86524,5.20898 39.42946,-13.88701 69.30981,-28.51952 89.64453,-43.89453 l 27.52734,0.74414 c 0,-65.964731 -41.16536,-98.449986 -123.49609,-97.457031 z m 66.95507,49.099609 c 16.36706,0.992055 23.80636,9.423975 22.31836,25.294922 -21.8226,20.33457 -62.98797,36.7022 -123.49609,49.10156 29.26213,-32.73394 62.98821,-57.53348 101.17773,-74.396482 z M 257.04297,522.5 H 542.95703 C 530.5477,668.05328 507.81803,808.23064 470.4668,955.24414 H 329.5332 C 292.18197,808.23064 269.4523,668.05328 257.04297,522.5 Z"
     sodipodi:nodetypes="scccccccccscccccccccscsccccsccssccccccccccscscccccccccccccccccccccccccccc" /></svg>
