<?xml version="1.0" encoding="UTF-8" standalone="no"?>
<svg
   width="1100"
   height="352.72354"
   version="1.1"
   id="svg1"
   sodipodi:docname="143C7.svg"
   inkscape:version="1.4.3 (0d15f75, 2025-12-25)"
   xmlns:inkscape="http://www.inkscape.org/namespaces/inkscape"
   xmlns:sodipodi="http://sodipodi.sourceforge.net/DTD/sodipodi-0.dtd"
   xmlns="http://www.w3.org/2000/svg"
   xmlns:svg="http://www.w3.org/2000/svg">
  <defs
     id="defs1" />
  <sodipodi:namedview
     id="namedview1"
     pagecolor="#ffffff"
     bordercolor="#666666"
     borderopacity="1.0"
     inkscape:showpageshadow="2"
     inkscape:pageopacity="0.0"
     inkscape:pagecheckerboard="0"
     inkscape:deskcolor="#d1d1d1"
     inkscape:zoom="0.23886364"
     inkscape:cx="374.69077"
     inkscape:cy="508.65842"
     inkscape:window-width="1680"
     inkscape:window-height="998"
     inkscape:window-x="-8"
     inkscape:window-y="-8"
     inkscape:window-maximized="1"
     inkscape:current-layer="svg1"
     showguides="true">
    <sodipodi:guide
       position="144.70709,300.71943"
       orientation="1,0"
       id="guide5"
       inkscape:locked="false" />
    <sodipodi:guide
       position="550,176.36177"
       orientation="0,-1"
       id="guide8"
       inkscape:locked="false" />
    <sodipodi:guide
       position="954.72765,300.71943"
       orientation="1,0"
       id="guide9"
       inkscape:locked="false" />
    <sodipodi:guide
       position="144.70709,317.71943"
       orientation="0,1"
       id="guide10"
       inkscape:locked="false"
       inkscape:label=""
       inkscape:color="rgb(0,134,229)" />
    <sodipodi:guide
       position="144.70709,300.71943"
       orientation="0,-1"
       id="guide11"
       inkscape:locked="false" />
    <sodipodi:guide
       position="144.70709,52.004111"
       orientation="0,-1"
       id="guide12"
       inkscape:locked="false" />
    <sodipodi:guide
       position="144.70709,35.004111"
       orientation="0,1"
       id="guide13"
       inkscape:label=""
       inkscape:locked="false"
       inkscape:color="rgb(0,134,229)" />
  </sodipodi:namedview>
  <path
     id="path1"
     style="fill:#000000;stroke:none;stroke-width:1"
     d="M 144.70703 0 C 97.225019 0 58.221476 24.306931 34.480469 58.222656 C 10.739462 91.573119 0 133.96667 0 176.36133 C 0 218.75598 10.739462 261.15149 34.480469 294.50195 C 58.221476 328.41768 97.225019 352.72266 144.70703 352.72266 L 955.29297 352.72266 C 1002.7749 352.72266 1041.7785 328.41768 1065.5195 294.50195 C 1089.2605 261.15149 1100 218.75598 1100 176.36133 C 1100 133.96667 1089.2605 91.573119 1065.5195 58.222656 C 1041.7785 24.306931 1002.7758 4.7369516e-15 954.72852 0 L 145.27148 0 L 144.70703 0 z M 144.70703 52.003906 L 144.84375 52.003906 C 163.3906 52.059739 181.47726 63.520029 196.04297 85.730469 C 210.64433 107.99527 220.41016 140.33908 220.41016 176.36133 C 220.41016 212.38357 210.64433 244.72934 196.04297 266.99414 C 181.44161 289.25894 163.30151 300.71875 144.70703 300.71875 C 113.61762 300.71875 92.702338 287.71872 76.875 264.54297 C 61.047662 241.93249 52.003906 209.14653 52.003906 176.36133 C 52.003906 143.01087 61.047662 110.22572 76.875 87.615234 C 92.702338 65.004751 113.61762 52.003906 144.70703 52.003906 z M 213.0293 52.003906 L 886.40625 52.003906 C 882.29406 56.683404 878.46916 61.734491 874.96094 67.083984 C 858.59773 92.035326 848.17426 124.02247 845.63281 159.36133 L 253.80273 159.36133 C 251.26129 124.02247 240.83781 92.035326 224.47461 67.083984 C 220.96639 61.734491 217.14149 56.683404 213.0293 52.003906 z M 954.5918 52.003906 L 954.72852 52.003906 C 986.3832 52.003906 1006.7324 65.004751 1023.125 87.615234 C 1038.9523 110.22572 1047.9961 143.01087 1047.9961 176.36133 C 1047.9961 209.14653 1038.9523 241.93249 1023.125 264.54297 C 1007.2976 287.71872 986.38238 300.71875 955.29297 300.71875 L 954.72852 300.71875 C 936.13404 300.71875 917.99393 289.25894 903.39258 266.99414 C 888.79122 244.72934 879.02539 212.38357 879.02539 176.36133 C 879.02539 140.33908 888.79122 107.99527 903.39258 85.730469 C 917.95828 63.520029 936.04495 52.059739 954.5918 52.003906 z M 253.80273 193.36133 L 845.63281 193.36133 C 848.17426 228.70018 858.59773 260.68733 874.96094 285.63867 C 878.46938 290.9885 882.29571 296.039 886.4082 300.71875 L 213.02734 300.71875 C 217.13983 296.039 220.96617 290.9885 224.47461 285.63867 C 240.83781 260.68733 251.26129 228.70018 253.80273 193.36133 z " />
</svg>
