<?xml version="1.0" encoding ="US-ASCII" standalone="yes"?>
<svg width="19.916779" height="16.559999">
<path style="fill:#000000; stroke:none" d=" M 3.590322 0  Q 4.142323 0.573231 4.439552 1.910769  Q 4.545706 2.76 4.885398 3.142154  Q 7.242014 5.265231 8.314168 5.40323  Q 9.386321 5.54123 10.755708 5.54123  Q 12.125091 5.54123 13.643091 5.318307  Q 15.161091 5.095384 18.048471 6.029539  Q 18.536781 5.774769 18.536781 5.180308  Q 18.473087 4.755691 18.197086 4.755691  Q 17.814934 4.670768 17.687551 5.031692  Q 17.984779 5.519999 17.496475 5.689846  Q 16.944475 5.562462 17.093092 4.776922  Q 17.135551 4.076307 17.984779 3.970154  Q 19.025089 3.948923 19.27986 4.776922  Q 19.364784 5.711077 18.85524 6.666461  Q 19.152473 8.004001 18.770319 11.804306  Q 18.770319 12.186461 19.577087 13.163075  Q 19.577087 14.160922 19.916779 15.816924  Q 19.683243 16.475079 19.492168 16.559999  L 18.409397 16.559999  Q 18.112165 16.559999 18.144011 16.26277  Q 18.175858 15.965534 18.982626 15.880616  Q 19.088783 13.587691 17.931705 12.950769  Q 16.77463 12.313846 16.413706 10.785231  Q 15.564476 12.207692 15.522016 13.184308  Q 14.248167 14.691691 13.717398 16.26277  L 13.420167 16.347691  L 13.420167 16.559999  L 11.891552 16.559999  Q 11.764167 16.517536 11.764167 16.156612  Q 11.764167 15.795692 12.846937 15.625848  Q 13.016784 15.625848 13.398937 14.978308  Q 13.781091 14.330769 14.418014 12.653539  Q 14.099552 8.831999 14.86386 7.855384  L 14.821398 7.855384  Q 14.142015 7.855384 12.316169 8.768308  Q 10.490322 9.681229 9.492476 9.553844  Q 10.044475 12.526154 11.148476 15.965534  L 11.148476 16.432611  Q 11.106013 16.559999 10.893707 16.559999  L 9.534935 16.559999  Q 9.280167 15.901844 10.256783 15.68954  Q 9.534935 13.226768 9.26955 12.897692  Q 9.004166 12.568614 8.855552 11.73  Q 8.706935 10.891384 7.602937 9.426461  Q 6.329091 13.184308 5.777091 15.859383  Q 5.564783 16.284 5.288784 16.284  Q 5.288784 16.559999 4.354629 16.559999  L 3.484168 16.559999  Q 3.441707 15.838152 4.630629 15.540923  Q 5.543553 14.224615 6.03186 10.127076  L 6.074322 9.490152  Q 5.777091 7.643077 4.482013 5.838461  Q 4.014937 5.159076 3.40986 5.148461  Q 2.804784 5.137845 2.380168 4.957384  Q 1.955553 4.776922 0.448168 4.819384  Q -0.040139 4.182461 0.002322 3.418154  Q 0.618014 3.227077 1.913091 2.993538  Q 2.14663 2.908615 2.316476 2.653846  Q 2.507553 2.526461 2.889707 2.441538  Q 3.059553 1.125231 3.038322 0.127385  Q 3.335553 0.403385 3.484168 0.679385  Q 3.52663 0.339692 3.590322 0  Z  M 3.717707 0.700615  Q 3.654014 1.634769 3.717707 2.335384  Q 3.569091 2.781231 3.505399 2.292923  Q 3.441707 1.804615 3.314322 1.252615  L 3.293091 1.252615  L 3.208168 2.653846  Q 3.186937 2.802461 2.550014 3.014769  Q 2.231553 3.481846 1.913091 3.439384  Q 1.276168 3.630461 0.469399 3.757846  L 0.554322 3.927692  Q 2.061707 4.012615 0.702937 4.203692  L 0.702937 4.224922  L 0.830322 4.373537  Q 2.082937 4.309846 2.433245 4.469077  Q 2.783553 4.628307 3.82386 4.564615  Q 4.460783 4.713231 5.564783 6.454154  Q 5.989399 7.409538 6.318476 8.354306  Q 6.647552 9.299076 6.58386 10.27569  Q 6.923553 9.702461 7.390629 8.57723  Q 7.772783 8.53477 8.35663 9.352152  Q 8.940474 10.169538 9.11032 10.148306  Q 9.11032 9.808613 9.067859 9.362768  Q 8.919244 8.938153 9.386321 8.938153  Q 10.914937 8.938153 12.496629 8.152615  Q 14.078321 7.367076 14.778937 7.367076  Q 16.201397 7.367076 16.466785 8.301231  Q 16.732166 9.235385 16.965708 10.46677  Q 17.199244 11.698153 18.218321 12.101538  Q 18.579241 8.916921 18.345705 7.536923  Q 18.154629 6.496615 17.135551 6.348  Q 15.437092 5.817231 14.566629 5.817231  Q 11.658014 6.050769 10.193091 6.114461  Q 7.029706 6.517846 4.206014 3.057231  L 3.717707 0.700615  Z  M 2.741091 3.014769  Q 3.038322 3.036 3.908784 3.312  Q 2.953399 3.694154 2.688014 3.588  Q 2.42263 3.481846 2.42263 3.333231  Q 2.592476 3.036 2.741091 3.014769  Z  M 15.373398 8.004001  Q 14.778937 9.40523 15.012474 12.504922  L 15.033707 12.504922  Q 15.033707 12.101538 16.24386 9.936  Q 16.265089 8.810768 15.373398 8.004001  Z "/></svg>
