<?xml version="1.0" encoding="UTF-8" standalone="no"?>
<svg
   width="1100"
   height="891.64764"
   version="1.1"
   id="svg1"
   sodipodi:docname="13344.svg"
   inkscape:version="1.4.2 (f4327f4, 2025-05-13)"
   xmlns:inkscape="http://www.inkscape.org/namespaces/inkscape"
   xmlns:sodipodi="http://sodipodi.sourceforge.net/DTD/sodipodi-0.dtd"
   xmlns="http://www.w3.org/2000/svg"
   xmlns:svg="http://www.w3.org/2000/svg">
  <defs
     id="defs1" />
  <sodipodi:namedview
     id="namedview1"
     pagecolor="#ffffff"
     bordercolor="#666666"
     borderopacity="1.0"
     inkscape:showpageshadow="2"
     inkscape:pageopacity="0.0"
     inkscape:pagecheckerboard="0"
     inkscape:deskcolor="#d1d1d1"
     inkscape:zoom="0.29937029"
     inkscape:cx="-81.838449"
     inkscape:cy="395.83087"
     inkscape:window-width="1680"
     inkscape:window-height="998"
     inkscape:window-x="-8"
     inkscape:window-y="-8"
     inkscape:window-maximized="1"
     inkscape:current-layer="svg1" />
  <path
     id="path1"
     style="fill:#000000;stroke:none;stroke-width:1"
     d="M 178.61523 0 C 170.91611 0 167.06641 4.8529582 167.06641 14.560547 L 167.06641 98.414062 C 146.647 98.414063 131.58455 104.94302 121.87695 117.99805 C 108.48718 131.72257 92.252308 142.09927 73.171875 149.12891 C 54.426187 156.49328 35.679282 161.34624 16.933594 163.68945 C -1.8120942 166.03266 -4.9910126 175.07169 7.3945312 190.80469 C 8.733509 199.17329 13.419259 206.03471 21.453125 211.39062 C 21.453125 234.48799 43.546157 242.68903 87.732422 235.99414 C 131.91869 229.29925 169.07612 234.48858 199.20312 251.56055 C 200.106 458.99605 235.55774 596.49524 305.56055 664.05664 C 267.45982 715.29446 248.41016 765.58702 248.41016 814.93555 C 248.41016 866.15145 273.34769 891.75977 323.22461 891.75977 C 373.10153 891.75977 398.04102 857.27962 398.04102 788.32227 C 398.04102 764.23845 401.72024 738.7608 409.08008 711.88672 C 416.2624 712.63296 423.62871 713.00586 431.17969 713.00586 L 1100 713.00586 L 1100 673.33789 L 1011.627 673.33789 L 1011.627 545.80078 L 1100 545.80078 L 1100 506.13281 L 908.19141 506.13281 L 908.19141 357.00586 L 536.625 357.00586 L 536.625 506.13281 L 513.02539 506.13281 C 370.08952 506.13281 286.57035 421.27597 262.46875 251.56055 C 276.19327 250.22157 290.75605 243.52736 306.1543 231.47656 C 321.55254 219.42576 329.25 201.51686 329.25 177.75 C 329.25 153.64841 324.73146 135.57228 315.69336 123.52148 C 306.32052 111.80542 297.11622 105.94727 288.07812 105.94727 C 288.07812 94.900702 274.18614 64.437468 246.40234 14.560547 C 240.71169 4.8529582 232.51065 0 221.79883 0 C 217.44715 0 215.26953 4.8529582 215.26953 14.560547 L 215.26953 52.220703 C 209.91362 39.835159 202.38337 27.280836 192.67578 14.560547 C 187.31987 4.8529582 182.63217 0 178.61523 0 z M 233.84961 43.181641 L 236.86133 43.181641 C 260.29343 85.694186 270.83735 115.31942 268.49414 132.05664 C 265.81618 148.79386 261.46485 160.17577 255.43945 166.20117 L 264.47852 173.23047 C 277.53355 161.84916 285.0638 148.29158 287.07227 132.55859 C 290.08497 132.55859 293.60025 135.57226 297.61719 141.59766 C 301.63412 147.62305 303.64258 159.33743 303.64258 176.74414 C 303.64258 193.14662 292.59704 206.36978 270.50391 216.41211 C 248.07603 226.78918 223.13655 227.79439 195.6875 219.42578 C 167.90371 211.39191 136.43723 209.71788 101.28906 214.4043 C 65.806154 219.09072 47.228409 219.42514 45.554688 215.4082 C 43.880965 211.39127 50.577126 208.37761 65.640625 206.36914 C 80.704124 204.36067 91.582455 203.52463 98.277344 203.85938 C 105.30698 204.19412 108.48785 201.68404 107.81836 196.32812 C 107.14887 191.30696 102.12675 190.30175 92.753906 193.31445 C 83.715807 196.32715 66.141316 198.67003 40.03125 200.34375 C 30.99315 189.96668 29.989898 184.10851 37.019531 182.76953 C 64.468575 175.07041 84.051523 168.87783 95.767578 164.19141 C 107.81838 159.50499 118.86392 150.80232 128.90625 138.08203 C 138.61384 125.36174 168.90791 119.00195 219.78906 119.00195 C 225.81446 119.00195 228.82812 116.65908 228.82812 111.97266 L 228.82812 55.232422 C 243.89163 102.43139 250.41862 129.21212 248.41016 135.57227 C 246.40169 141.59767 242.55198 145.949 236.86133 148.62695 L 244.39258 159.17188 C 252.42644 150.80326 256.44336 141.59702 256.44336 131.55469 C 256.44336 120.50812 248.91311 91.050093 233.84961 43.181641 z M 185.64648 55.232422 C 192.00663 75.317087 196.52517 89.710707 199.20312 98.414062 L 185.64648 98.414062 L 185.64648 55.232422 z M 154.05859 142.74219 C 144.31962 142.52251 139.45117 146.66016 139.45117 155.1543 C 139.45117 164.52714 145.81096 167.87522 158.53125 165.19727 C 171.25154 162.51931 180.9594 159.17123 187.6543 155.1543 C 180.9594 148.79416 171.25154 144.77724 158.53125 143.10352 C 156.94121 142.8943 155.44988 142.77357 154.05859 142.74219 z M 240.87891 356 L 246.40234 356 C 288.58014 476.508 355.86249 539.10655 448.25195 543.79297 C 406.94645 562.98004 369.14251 591.28889 334.83789 628.7207 C 282.65986 579.13843 251.34022 488.23105 240.87891 356 z M 575.79102 398.17773 L 868.02148 398.17773 L 868.02148 506.13281 L 576.79492 506.13281 L 575.79102 398.17773 z M 489.42578 545.80078 L 559.2207 545.80078 L 559.2207 673.33789 L 451.26562 673.33789 C 441.36081 673.33789 431.79827 672.65916 422.58008 671.29883 C 437.79077 632.14725 460.07289 590.31396 489.42578 545.80078 z M 599.39062 545.80078 L 683.24414 545.80078 L 683.24414 673.33789 L 599.39062 673.33789 L 599.39062 545.80078 z M 724.41602 545.80078 L 849.44336 545.80078 L 849.44336 673.33789 L 724.41602 673.33789 L 724.41602 545.80078 z M 890.61719 545.80078 L 970.95508 545.80078 L 970.95508 673.33789 L 890.61719 673.33789 L 890.61719 545.80078 z M 430.17578 586.97461 C 412.82821 613.31253 398.76202 638.4535 387.97656 662.39648 C 379.62239 659.23135 371.61415 655.37823 363.95312 650.83984 C 382.15309 629.94292 404.22752 608.65507 430.17578 586.97461 z M 335.70703 687.53711 C 347.12105 694.55122 359.25027 700.11582 372.0957 704.23242 C 364.95561 727.70748 361.38672 749.88082 361.38672 770.75 C 361.38672 822.63539 349.67039 848.57617 326.23828 848.57617 C 302.47143 848.57617 290.58789 835.68938 290.58789 809.91406 C 290.58789 783.1345 301.1318 749.82677 322.2207 709.99219 C 326.1887 702.56007 330.68432 695.07588 335.70703 687.53711 z " />
</svg>
