<?xml version="1.0" encoding="UTF-8" standalone="no"?>
<svg
   width="500"
   height="1000"
   version="1.1"
   id="svg1"
   sodipodi:docname="13489.svg"
   inkscape:version="1.4.2 (f4327f4, 2025-05-13)"
   xmlns:inkscape="http://www.inkscape.org/namespaces/inkscape"
   xmlns:sodipodi="http://sodipodi.sourceforge.net/DTD/sodipodi-0.dtd"
   xmlns="http://www.w3.org/2000/svg"
   xmlns:svg="http://www.w3.org/2000/svg">
  <defs
     id="defs1" />
  <sodipodi:namedview
     id="namedview1"
     pagecolor="#ffffff"
     bordercolor="#666666"
     borderopacity="1.0"
     inkscape:showpageshadow="2"
     inkscape:pageopacity="0.0"
     inkscape:pagecheckerboard="0"
     inkscape:deskcolor="#d1d1d1"
     inkscape:zoom="4.270925"
     inkscape:cx="289.2816"
     inkscape:cy="91.666326"
     inkscape:window-width="1680"
     inkscape:window-height="998"
     inkscape:window-x="-8"
     inkscape:window-y="-8"
     inkscape:window-maximized="1"
     inkscape:current-layer="svg1" />
  <path
     style="fill:#000000;stroke:none;stroke-width:0.999999"
     d="M 207.19589,670.62074 H 376.44102 L 352.84927,537.2761 c 17.09548,-40.3453 16.06974,-73.5105 -3.07723,-99.49561 L 249.25078,462.39795 Z M 285.15121,94.161649 c -2.71979,-6.799442 6.42462,-22.589271 16.41166,-26.156104 10.32185,-3.686332 12.9021,3.742741 9.74445,13.847372 -3.14542,10.065195 -19.4793,29.656263 -27.69469,26.668933 -8.05885,-2.93051 -5.00241,-11.743793 1.53858,-14.360201 z m 5.12864,-7.692978 c -1.36764,3.761012 -0.68383,5.128652 2.05146,4.102929 2.73529,-1.025723 2.73529,0.341901 0,4.102873 -2.73529,3.761011 -2.73529,4.957694 0,3.590049 2.73529,-1.367606 5.81247,-4.102873 9.23156,-8.205802 3.41909,-4.102892 5.2996,-8.376763 5.64152,-12.821612 0.58304,-7.579262 -11.46747,-5.775376 -16.92454,9.231563 z m -4.10293,-26.156048 c 41.27275,-23.58439 54.20119,13.05866 31.79762,37.439075 -11.62495,12.650632 -14.70214,22.395042 -9.23157,29.233222 4.10293,6.15437 13.33448,1.5386 27.69463,-13.84732 14.3602,-15.38592 20.85648,-33.336166 19.48883,-53.850737 -0.6838,-21.198375 -12.30871,-34.190928 -34.87473,-38.97766 -22.56601,-4.786733 -41.20008,-5.128634 -55.9022,-1.025705 -14.70208,4.102892 -24.44648,12.992535 -29.23321,26.668928 25.98511,2.051446 42.73865,6.838178 50.26063,14.360197 z m -2.05141,38.97766 c -2.05149,2.051447 -2.56437,3.931947 -1.53864,5.641517 1.02576,1.70953 2.56436,1.70953 4.61581,0 2.05145,-1.70957 1.02572,-3.59007 -3.07717,-5.641517 z M 218.47892,90.05872 v -5.128634 l 6.15434,-7.180098 c 7.52202,-4.786732 17.4374,-2.735267 29.74615,6.154394 l 10.25727,1.025704 1.0257,5.128634 -11.28297,-2.051465 c -12.30875,5.470572 -23.24985,5.812492 -32.82332,1.02576 z m 6.15434,-5.128634 c 2.05145,0.683803 4.44481,1.709526 7.1801,3.077169 -2.05145,-2.735249 -2.39335,-5.470516 -1.02571,-8.205802 -3.41909,1.367643 -5.47055,3.077187 -6.15439,5.128633 z m 14.3602,3.077169 c 3.41909,0 7.18009,-0.683821 11.28302,-2.051464 l -10.25726,-5.128634 c 2.05144,2.735286 1.70952,5.128652 -1.02576,7.180098 z M 208.2216,114.67618 c -1.61081,-3.22168 2.46299,-7.22716 5.64151,-1.0257 3.8869,4.66421 6.70877,0.16595 6.1544,-2.05147 -0.59926,-2.39698 2.30243,-5.17189 3.07716,1.02571 0.67814,5.42499 -5.4262,8.62796 -9.74438,3.59005 -2.05149,-2.39337 -3.76105,-2.90623 -5.12869,-1.53859 z m 17.43742,14.3602 -14.3602,3.07717 c -1.21129,2.42251 -0.95625,3.07745 2.05124,3.07745 4.94941,0.0932 9.22222,-2.27866 12.30896,-6.15462 z m 0,-1.0257 c 0.6838,-0.68384 -0.41422,-0.73822 -3.81319,-1.10854 -3.41909,-0.37252 -6.43951,-0.9908 -9.43852,-1.64657 -4.71221,-1.03039 -6.18581,2.75511 -2.13425,2.75511 z m 57.44073,-57.44079 c -14.3602,-8.889624 -31.79757,-13.334436 -52.3121,-13.334436 -2.05148,2.735249 -4.44485,6.496239 -7.1801,11.282971 8.20583,-3.419089 16.24069,-3.248129 24.10459,0.51288 7.86394,3.761009 14.53118,5.983415 20.00171,6.667218 l 1.0257,5.128634 c -8.88962,-0.683803 -17.26638,-2.735249 -25.13029,-6.154338 -7.86393,-3.419089 -15.55689,-3.419089 -23.07887,0 -6.15438,6.838178 -12.65068,19.146908 -19.48889,36.926191 8.20586,2.73529 11.96687,6.4963 11.28303,11.28303 8.20582,0 13.84733,1.19667 16.92454,3.59 3.07717,2.39336 -0.17098,6.66723 -9.74444,12.82161 -2.05145,12.99255 4.78675,17.43738 20.51459,13.33449 15.7278,-4.10293 24.78838,3.93193 27.18175,24.10458 2.39337,20.17265 -9.06058,30.25898 -34.36185,30.25898 -24.6175,0 -34.19097,4.95769 -28.7204,14.87308 5.47054,9.91538 13.84732,27.86561 25.13035,53.85068 11.28299,25.98514 18.29212,78.98109 21.02741,158.98786 l 95.39269,-21.54029 c -4.10293,-37.61002 2.39334,-81.37441 19.48883,-131.29318 17.09548,-49.91877 11.96683,-74.87815 -15.38596,-74.87815 -27.35271,0 -43.08053,-20.17265 -47.18346,-60.51795 -1.36765,-4.78673 -4.27387,-10.59919 -8.71868,-17.43737 -4.44481,-6.83818 -3.07717,-13.67636 4.10293,-20.51453 7.18009,-6.83822 12.82161,-15.215001 16.92454,-25.130348 8.62015,-20.832164 -11.21704,-26.92061 -23.59176,-11.795908 -6.15438,7.522019 -8.88967,7.180117 -8.20586,-1.025704 z m -86.16112,118.98444 c 23.24982,0 40.00338,-3.41909 50.26068,-10.25726 l -3.07722,-15.38596 c -12.30871,0 -21.0274,-0.17103 -26.15605,-0.5131 -5.12865,-0.34173 -8.03488,-3.93169 -8.71868,-10.76987 -0.68384,-6.83818 -2.39339,-10.94109 -5.12864,-12.30873 -2.73528,-1.36765 -3.0772,-3.24815 -1.02576,-5.64152 2.05149,-2.39337 2.39341,-3.24815 1.02576,-2.56434 -3.95896,-0.98973 -8.61896,-4.30593 -2.05146,-9.23151 -2.05145,-2.05148 -5.12863,-3.59008 -9.23156,-4.61581 -4.10289,-1.02572 -4.10289,-5.98339 0,-14.87302 7.52201,-15.044035 14.01829,-26.668964 19.48883,-34.874785 8.88966,-38.97766 26.49798,-60.8598559 52.82497,-65.6465877 26.32703,-4.7867321 50.94451,-3.5900491 73.85245,3.5900491 22.9079,7.1800986 34.70377,24.1046206 35.38761,50.7735676 1.36764,23.933623 -3.93195,43.080536 -15.89878,57.440726 -11.96683,14.3602 -24.10462,23.93367 -36.41337,28.7204 v 1.02576 c 1.36764,10.25727 3.59006,19.48881 6.66727,27.69463 3.07717,8.20582 24.10459,14.01827 63.08225,17.43736 26.66891,5.47054 43.76437,22.2241 51.28639,50.26069 16.41164,60.17603 26.327,105.99187 29.74609,137.44752 5.47057,25.3013 5.47057,73.5105 0,144.62761 2.73529,29.40423 4.10293,52.65407 4.10293,69.74951 0,16.41168 -6.8382,34.19099 -20.51459,53.33792 -6.83817,0.68377 -11.28298,-0.68395 -13.33443,-4.10315 -2.05145,-3.41921 -1.36763,-7.18022 2.05146,-11.28303 6.15437,-10.94111 9.74442,-21.54029 10.77015,-31.79756 1.02572,-10.25727 -1.53859,-22.2241 -7.69292,-35.90049 -5.47057,6.83821 -7.693,15.72785 -6.66728,26.66892 1.02573,10.94111 -1.8805,16.06976 -8.71868,15.38596 -7.52202,-27.35264 -6.4963,-49.74764 3.07717,-67.18501 9.57347,-17.43736 10.59919,-43.59341 3.07717,-78.46814 -7.52198,-34.87477 -8.5477,-64.62088 -3.07717,-89.23835 -19.83073,-30.77184 -34.19091,-64.96277 -43.08053,-102.57278 v 0 c -25.30131,72.48479 -31.28472,125.65168 -17.95025,159.50069 13.33443,33.84901 14.53112,70.94616 3.59005,111.29146 l 23.5917,155.91064 v 0 c 14.3602,42.39675 18.46311,87.52879 12.30873,135.39611 -6.15437,47.86732 -5.47055,96.76033 2.05147,146.67902 8.88966,16.41168 0.8548,24.27562 -24.10458,23.59181 -24.95939,-0.68376 -46.32872,-0.68376 -64.10801,0 -17.77929,0.68377 -32.8233,1.02565 -45.13205,1.02565 -12.99255,0.68377 -18.97597,-1.53862 -17.95025,-6.66721 1.02573,-5.12862 10.08633,-12.47966 27.18181,-22.05312 29.40419,-2.73521 49.06398,-8.54767 58.97937,-17.43737 9.91535,-8.88966 14.18922,-26.32701 12.82161,-52.31204 -3.41913,-30.77187 -13.33451,-100.17949 -29.74615,-208.22285 h -76.92956 c -17.09548,14.36023 -24.44654,33.16524 -22.05317,56.41503 2.39337,23.24982 -8.20582,58.63745 -31.79757,106.16289 -23.59174,47.52536 -37.09715,88.0416 -40.51624,121.54873 0.6838,17.77934 -9.06062,24.44651 -29.23327,20.00165 -20.17265,-4.44481 -36.584297,-5.12857 -49.23493,-2.05129 -12.650633,3.07713 -32.310423,4.61569 -58.97937,4.61569 -20.5145343,0.68376 -28.7203554,-3.41912 -24.6174634,-12.30867 4.1029291,-8.88963 16.0697594,-15.38594 35.9004904,-19.48894 30.088036,-12.99252 51.28641,-21.54022 63.595123,-25.64311 12.30875,-4.10289 23.59176,-19.48883 33.84903,-46.15782 8.88966,-27.35271 22.56603,-95.05075 41.02912,-203.0941 v 0 l 50.26069,-254.38055 c 0,-73.16863 -9.91538,-130.95131 -29.74615,-173.34806 v 1.02576 c -8.88963,36.92621 -23.24981,70.77522 -43.08054,101.54702 5.47054,24.6175 4.44482,54.36362 -3.07717,89.23835 -7.52201,34.87477 -6.49629,61.20179 3.07717,78.98108 9.57343,17.77925 10.59915,40.34526 3.07717,67.69805 -6.83818,0.68377 -9.74441,-4.44488 -8.71868,-15.38595 1.02572,-10.94107 -1.19669,-20.17262 -6.66722,-27.69464 -6.15437,14.3602 -8.7187,26.66893 -7.69298,36.9262 1.02573,10.25727 4.61578,20.51453 10.77015,30.7718 3.41909,4.10297 4.10291,7.86398 2.05146,11.28303 -2.05148,3.4192 -6.49631,4.78692 -13.33449,4.10315 -13.67635,-19.14693 -20.51453,-36.92621 -20.51453,-53.33786 0,-16.41164 1.36764,-39.66146 4.10293,-69.74946 -5.47057,-70.43334 -5.47057,-118.64256 0,-144.62767 3.41909,-31.45583 13.33445,-76.92984 29.74609,-136.42203 7.52199,-28.72039 24.61745,-45.47396 51.2864,-50.26069 z"
     id="path1"
     sodipodi:nodetypes="cccccccssscssssssscscscsscccssccccccccccccccccccccssscccsccsssccccsccscccscsssssccsscsssscccccsssccsccsscsccsccccscscscscsscsssccsscsscscscccsscsscscscscccccsscscscscscccc" />
</svg>
