<?xml version="1.0" encoding="UTF-8" standalone="no"?>
<svg
   width="700"
   height="1000"
   version="1.1"
   id="svg1"
   sodipodi:docname="134C6.svg"
   inkscape:version="1.4.2 (f4327f4, 2025-05-13)"
   xmlns:inkscape="http://www.inkscape.org/namespaces/inkscape"
   xmlns:sodipodi="http://sodipodi.sourceforge.net/DTD/sodipodi-0.dtd"
   xmlns="http://www.w3.org/2000/svg"
   xmlns:svg="http://www.w3.org/2000/svg">
  <defs
     id="defs1" />
  <sodipodi:namedview
     id="namedview1"
     pagecolor="#ffffff"
     bordercolor="#666666"
     borderopacity="1.0"
     inkscape:showpageshadow="2"
     inkscape:pageopacity="0.0"
     inkscape:pagecheckerboard="0"
     inkscape:deskcolor="#d1d1d1"
     inkscape:zoom="0.3775"
     inkscape:cx="655.62914"
     inkscape:cy="737.74834"
     inkscape:window-width="1680"
     inkscape:window-height="998"
     inkscape:window-x="-8"
     inkscape:window-y="-8"
     inkscape:window-maximized="1"
     inkscape:current-layer="svg1" />
  <path
     id="path1"
     style="fill:#000000;stroke:none;stroke-width:1"
     d="M 469.75 0.1484375 C 457.46549 -0.38567622 444.73524 0.50389438 431.56055 2.8183594 C 405.21115 7.4473264 387.76254 28.989458 379.2168 67.445312 C 373.51962 75.991058 366.75547 87.74219 358.92188 102.69727 C 355.36116 111.95513 355.71736 117.1173 359.99023 118.18555 C 364.26311 119.25375 367.11089 120.85577 368.53516 122.99219 C 365.68658 125.12864 364.79702 126.90968 365.86523 128.33398 C 366.93347 129.75825 368.53546 130.82691 370.67188 131.53906 C 372.09618 130.82691 371.73998 131.53933 369.60352 133.67578 C 367.4671 135.8122 367.82331 137.77038 370.67188 139.55078 C 373.52045 141.33114 375.12242 145.60379 375.47852 152.36914 C 375.83457 159.13456 378.86141 162.87186 384.55859 163.58398 C 390.25577 164.29613 399.15721 163.94184 411.26367 162.51758 L 414.46875 179.60742 C 403.78655 186.01671 389.90008 189.04355 372.80859 188.6875 C 355.7171 188.33144 342.54306 196.87863 333.28516 214.32617 C 324.02726 231.77376 311.03036 252.06816 294.29492 275.21289 C 277.55949 298.35761 262.42526 321.32461 248.89453 344.11328 C 236.78802 329.15821 200.46987 298.53554 139.9375 252.24609 C 135.16946 244.75348 127.7945 238.56632 117.81445 233.67969 L 142.07227 34.330078 L 119.64062 32.193359 L 95.929688 223.78906 L 95.072266 223.4043 L 70.501953 223.4043 C 68.365535 232.6622 71.215234 239.4283 79.048828 243.70117 C 74.775955 279.30845 76.19887 297.11133 83.320312 297.11133 L 86.818359 297.40234 L 0 998.93164 L 24.568359 1000 L 109.9043 298.69727 C 118.13467 293.92152 126.36533 289.47651 134.5957 285.36133 C 156.67222 313.84717 178.5706 339.30766 200.29102 361.74023 C 222.01148 384.17281 241.41828 396.10109 258.50977 397.52539 C 310.49639 346.96303 345.03543 302.81011 362.12695 265.06641 C 382.77917 307.08302 393.10352 365.12241 393.10352 439.18555 L 341.83008 692.35352 C 323.31432 800.59964 309.42782 868.25291 300.16992 895.31445 C 290.19988 922.37596 279.3383 938.57686 267.58789 943.91797 C 255.83748 949.25906 234.65156 957.98338 204.0293 970.08984 C 184.08924 970.08984 171.98381 975.07488 167.71094 985.04492 C 163.43806 995.0149 171.62708 999.64368 192.2793 998.93164 L 294.82812 998.93164 C 333.28402 998.93164 345.03515 984.3328 330.08008 955.13477 C 332.92865 935.9069 346.1027 902.61359 369.60352 855.25586 C 393.10434 807.89817 403.78681 772.46954 401.65039 748.96875 C 399.51394 725.46794 406.99054 706.95265 424.08203 693.42188 L 500.99414 693.42188 C 516.66137 800.95588 526.27522 870.03399 529.83594 900.65625 C 531.26024 927.00568 526.81048 943.20653 516.48438 949.25977 C 506.15824 955.313 487.10768 962.25629 459.33398 970.08984 C 440.81823 970.08984 429.06706 975.07487 424.08203 985.04492 C 419.097 995.01497 427.28798 1000 448.65234 1000 L 543.72266 998.93164 C 582.89066 999.64375 593.21693 985.04491 574.70117 955.13477 C 572.56471 918.10322 574.70203 875.73133 581.11133 828.01758 C 587.52065 780.30382 583.248 735.43849 568.29297 693.42188 L 544.79102 536.39258 C 559.03394 497.93672 558.50058 461.43946 543.18945 426.90039 C 527.87829 392.36131 533.04046 340.19652 558.67773 270.40625 C 575.05707 305.30142 596.06588 335.56788 621.70312 361.20508 C 616.00599 404.64599 616.18309 437.22685 622.23633 458.94727 C 628.28956 480.66773 629.53721 502.92208 625.97656 525.71094 L 624.9082 525.71094 C 612.8017 543.51458 610.30821 567.01493 617.42969 596.21289 C 625.26343 596.21289 628.46938 590.51737 627.04492 579.12305 C 625.62066 567.7287 627.75599 558.4691 633.45312 551.34766 C 640.57475 566.3027 643.42445 579.12249 642 589.80469 C 640.57573 600.48689 636.65933 611.1694 630.25 621.85156 C 626.68906 626.12448 625.97679 630.21799 628.11328 634.13477 C 630.2497 638.05155 634.87856 639.2975 642 637.87305 C 656.24318 617.93295 663.5426 599.41767 663.89844 582.32617 C 664.25449 565.23469 660.51527 546.36315 652.68164 525.71094 C 666.21245 482.27002 668.34778 427.43462 659.08984 361.20508 C 649.11979 331.29496 630.24826 288.92308 602.47461 234.08789 C 587.51954 200.61702 566.51267 183.88086 539.45117 183.88086 C 512.38963 183.88086 497.43454 179.78536 494.58594 171.5957 C 491.73736 163.40602 489.60004 154.32747 488.17578 144.35742 L 488.17578 143.28906 C 500.99439 138.30408 513.27892 128.51112 525.0293 113.91211 C 536.7797 99.313128 541.94379 80.264454 540.51953 56.763672 C 539.80738 29.702133 528.05624 12.788822 505.26758 6.0234375 C 493.87324 2.6407451 482.03451 0.68255122 469.75 0.1484375 z M 456.66406 16.304688 C 465.92196 16.57174 476.06916 17.950847 487.10742 20.443359 C 509.1839 25.428384 521.29128 38.248179 523.42773 58.900391 C 524.13989 79.552603 517.37379 97.532619 503.13086 112.84375 C 488.88794 128.15492 479.6303 132.60659 475.35742 126.19727 C 469.66025 119.78794 472.68709 110.17409 484.4375 97.355469 C 496.18791 84.536851 498.67945 72.429471 491.91406 61.035156 C 485.14868 49.640804 471.79553 49.284597 451.85547 59.966797 C 444.73403 52.845355 428.35602 47.860325 402.71875 45.011719 C 406.99162 31.480949 416.60547 22.758575 431.56055 18.841797 C 439.03808 16.883389 447.40617 16.037635 456.66406 16.304688 z M 397.37695 56.763672 C 418.0292 56.763672 435.12161 61.392531 448.65234 70.650391 C 448.65234 78.484022 451.8563 78.484022 458.26562 70.650391 C 464.67492 62.816797 471.08481 60.502368 477.49414 63.707031 C 483.90347 66.911695 485.14924 73.498738 481.23242 83.46875 C 477.31561 93.438799 471.61813 101.80688 464.14062 108.57227 C 456.66309 115.33765 455.23826 122.1018 459.86719 128.86719 C 464.49612 135.63257 467.52297 141.50912 468.94727 146.49414 C 473.22014 187.08645 488.88768 207.38281 515.94922 207.38281 C 543.72291 207.38281 548.887 232.30608 531.43945 282.15625 C 513.99187 332.00646 507.75915 375.80509 512.74414 413.54883 L 416.60547 434.91211 C 413.7569 354.43968 406.81365 301.38528 395.77539 275.74805 C 384.73714 250.11077 376.36906 232.30794 370.67188 222.33789 C 364.97473 212.36788 374.58859 207.38281 399.51367 207.38281 C 425.15091 207.38281 436.54583 197.23366 433.69727 176.9375 C 430.84866 156.64135 421.59101 148.45236 405.92383 152.36914 C 390.2566 156.28595 383.4905 151.83424 385.62695 139.01562 C 395.59697 132.60633 398.80095 128.33372 395.24023 126.19727 C 391.67951 124.06081 385.98203 122.63595 378.14844 121.92383 C 378.86059 117.65095 375.3004 114.09079 367.4668 111.24219 C 373.87609 94.1507 380.28599 82.043318 386.69531 74.921875 C 394.52891 70.649002 402.36172 70.294747 410.19531 73.855469 C 418.02891 77.416189 426.21988 79.55152 434.76562 80.263672 L 433.69727 74.921875 C 428.71224 74.921875 422.30234 72.96369 414.46875 69.046875 C 406.63512 65.13006 398.44614 64.952914 389.90039 68.513672 C 392.749 63.528648 395.24053 59.612242 397.37695 56.763672 z M 472.73633 66.669922 C 471.36767 66.653233 469.74829 66.911199 467.87891 67.445312 C 462.89388 68.869579 458.62127 72.785985 455.06055 79.195312 C 451.49983 85.60464 450.43117 90.589669 451.85547 94.150391 C 448.29475 95.574693 446.15942 97.889121 445.44727 101.09375 C 444.73511 104.29841 446.33713 106.6128 450.25391 108.03711 C 454.17072 109.46138 459.33481 106.79078 465.74414 100.02539 C 472.15343 93.260006 476.06983 87.029171 477.49414 81.332031 C 478.91844 75.634855 478.91844 71.539387 477.49414 69.046875 C 476.60395 67.489055 475.01742 66.697736 472.73633 66.669922 z M 471.21875 72.919922 C 473.08812 73.008936 473.93389 74.210907 473.75586 76.525391 C 473.3998 81.154321 471.43966 85.426935 467.87891 89.34375 C 464.31822 93.260565 461.29333 96.108311 458.80078 97.888672 C 456.30827 99.669031 456.30827 98.423262 458.80078 94.150391 C 461.29333 89.877517 461.11423 88.452686 458.26562 89.876953 C 455.41705 91.301256 454.8837 90.055488 456.66406 86.138672 C 458.44438 82.221894 460.40257 78.838804 462.53906 75.990234 C 466.45584 73.853779 469.34938 72.830908 471.21875 72.919922 z M 400.68164 75.373047 C 397.14317 75.339666 393.90635 76.257569 390.96875 78.126953 L 384.55859 83.46875 L 384.55859 89.876953 L 388.83203 88.810547 C 398.08989 93.795571 408.4162 93.439364 419.81055 87.742188 L 431.56055 89.876953 L 431.56055 83.46875 L 420.87891 83.46875 C 413.31234 78.127659 406.5791 75.428681 400.68164 75.373047 z M 397.37695 80.263672 C 395.95265 82.40009 396.30886 84.893582 398.44531 87.742188 C 395.59675 86.317885 393.1052 85.249261 390.96875 84.537109 C 392.39305 82.400691 394.52838 80.975823 397.37695 80.263672 z M 405.92383 80.263672 L 416.60547 85.605469 C 413.04475 87.029771 409.48455 87.742187 405.92383 87.742188 C 408.06025 85.605733 408.06025 83.112241 405.92383 80.263672 z M 450.78906 99.492188 C 455.06194 101.62864 456.12861 103.40776 453.99219 104.83203 C 451.85573 106.25633 450.25375 106.07919 449.18555 104.29883 C 448.1173 102.51847 448.65261 100.91649 450.78906 99.492188 z M 387.51953 108.51367 C 387.42564 108.51889 387.32866 108.53889 387.22852 108.57227 C 386.1603 108.92837 385.8041 109.81793 386.16016 111.24219 C 386.51625 112.66649 386.16196 113.91226 385.09375 114.98047 C 384.0255 116.04868 382.60067 115.51533 380.82031 113.37891 C 379.03995 111.24245 377.79418 110.17383 377.08203 110.17383 C 375.65773 110.17383 374.76622 110.53004 374.41016 111.24219 C 374.0541 111.95434 374.23319 113.02296 374.94531 114.44727 C 376.36961 113.02296 378.1487 113.55631 380.28516 116.04883 C 382.42158 118.54134 384.55886 119.25375 386.69531 118.18555 C 388.83173 117.1173 389.72129 115.15912 389.36523 112.31055 C 389.04256 109.72903 388.42712 108.46327 387.51953 108.51367 z M 379.2168 125.12891 C 382.06536 125.84106 385.09221 126.19727 388.29688 126.19727 C 391.50154 126.19727 392.74926 126.55347 392.03711 127.26562 L 376.01367 128.33398 C 375.30153 128.33398 374.94531 127.79872 374.94531 126.73047 C 374.94531 125.66226 376.36819 125.12891 379.2168 125.12891 z M 392.03711 128.33398 C 390.61281 129.75825 388.83173 131.18312 386.69531 132.60742 C 384.55886 134.03173 382.42158 134.74414 380.28516 134.74414 C 378.86086 134.74414 377.79418 134.56519 377.08203 134.20898 C 376.36988 133.85292 376.72413 132.96336 378.14844 131.53906 L 392.03711 128.33398 z M 515.94922 437.04883 C 538.73789 464.82252 539.80651 497.93672 519.1543 536.39258 L 542.6543 669.91992 L 372.80859 669.91992 L 415.53711 461.61719 L 515.94922 437.04883 z " />
</svg>
