<?xml version="1.0" encoding="UTF-8" standalone="no"?>
<svg
   width="1250"
   height="1000"
   version="1.1"
   id="svg1"
   sodipodi:docname="13AA6.svg"
   inkscape:version="1.4.2 (f4327f4, 2025-05-13)"
   xmlns:inkscape="http://www.inkscape.org/namespaces/inkscape"
   xmlns:sodipodi="http://sodipodi.sourceforge.net/DTD/sodipodi-0.dtd"
   xmlns="http://www.w3.org/2000/svg"
   xmlns:svg="http://www.w3.org/2000/svg">
  <defs
     id="defs1" />
  <sodipodi:namedview
     id="namedview1"
     pagecolor="#ffffff"
     bordercolor="#666666"
     borderopacity="1.0"
     inkscape:showpageshadow="2"
     inkscape:pageopacity="0.0"
     inkscape:pagecheckerboard="0"
     inkscape:deskcolor="#d1d1d1"
     inkscape:zoom="1.51"
     inkscape:cx="254.63576"
     inkscape:cy="115.56291"
     inkscape:window-width="1680"
     inkscape:window-height="998"
     inkscape:window-x="-8"
     inkscape:window-y="-8"
     inkscape:window-maximized="1"
     inkscape:current-layer="svg1" />
  <path
     style="fill:#000000;stroke:none;stroke-width:0.999999"
     d="M 124.92558,0.59556294 C 212.45849,-4.5034197 280.44522,23.116181 328.88577,83.454365 c -9.34821,5.099019 -17.26548,16.459008 -31.71264,41.104205 16.99668,-10.19804 26.61362,-11.78494 36.81162,-11.78494 16.99669,41.64187 30.16912,83.70866 39.51729,126.20037 l -12.74752,7.64853 c 29.74418,72.23585 71.59851,111.11575 125.56298,116.6397 53.96444,5.52392 95.6063,7.6485 124.92558,6.37373 29.31928,-1.27476 72.44835,-8.49834 129.38721,-21.67073 56.93886,-13.17243 115.15247,-1.0623 174.64082,36.33039 l 43.34163,-12.74751 c 9.34817,-11.89767 31.01896,-13.17243 65.01236,-3.82429 33.9933,9.34817 49.7152,41.64187 47.1657,96.88111 -2.5497,55.2392 -8.0736,119.61413 -16.5719,193.12478 -8.4983,73.51061 -5.5238,148.08351 8.9234,223.71872 -3.3995,11.04783 -8.4985,16.57175 -15.2971,16.57175 -15.297,0 -28.4694,-30.38154 -39.5173,-91.14462 -11.04781,-60.76315 -12.95991,-124.71318 -5.7363,-191.85008 7.2236,-67.13683 9.3482,-115.57736 6.3737,-145.32157 -2.9743,-29.74417 -18.05886,-50.1402 -45.25357,-61.18807 -10.19804,-0.84983 -16.57181,4.67411 -19.1213,16.57181 5.09905,18.69631 7.64858,44.61623 7.64858,77.75976 0,32.29371 -26.76981,84.5585 -80.30942,156.79439 -0.84987,19.54621 26.34484,45.89106 81.58412,79.03456 -57.78873,122.37611 -86.6831,187.81331 -86.6831,196.31161 -7.64847,1.69973 -11.47271,6.79875 -11.47271,15.29706 l 8.92322,10.19797 c -6.79865,22.0957 -17.84648,33.14355 -33.1435,33.14355 -10.198,3.39947 -19.97111,1.69974 -29.31932,-5.0992 1.69974,-19.54618 8.07351,-38.24251 19.1213,-56.08898 50.14022,-96.03125 73.93555,-148.50851 71.38598,-157.43179 -2.5496,-8.92323 -37.81769,-37.18021 -105.80428,-84.77094 0,14.44719 14.02228,41.21696 42.06683,80.30931 v 2.5496 L 712.58577,942.63639 c -10.19804,1.69973 -15.29706,5.09907 -15.29706,10.19802 4.24919,7.64851 6.37379,15.29702 6.37379,22.94553 -19.54617,15.29699 -39.51726,19.54614 -59.91327,12.74746 0,-16.99668 7.22358,-37.81762 21.67073,-62.46281 0,-8.49831 16.14685,-30.38153 48.44056,-65.64966 32.29367,-35.26809 48.4405,-59.27589 48.4405,-72.02338 0,-17.84651 -13.38488,-38.87992 -40.15463,-63.10021 -26.76975,-24.22023 -46.9533,-57.15128 -60.55067,-98.79315 -37.39269,9.34813 -81.37159,15.29696 -131.9367,17.84649 -50.56511,2.54961 -103.04236,-1.69956 -157.43173,-12.74751 -2.54953,114.72755 12.32256,205.6598 44.61627,272.79674 l 5.09898,15.29695 -8.92322,24.22033 8.92322,34.41825 c -15.29702,11.89766 -28.46945,17.84649 -39.51728,17.84649 -11.04783,0 -18.27141,-1.69973 -21.67074,-5.0992 l 17.8465,-65.01231 c 0,-28.89431 -17.84651,-79.45941 -53.53954,-151.69529 0,-12.74753 -15.297,-66.28707 -45.89101,-160.61862 -30.59405,33.14353 -66.28707,88.38273 -107.07908,165.7176 -11.8977,41.64184 -17.84655,81.1591 -17.84655,118.55179 0,4.24923 -4.67409,14.44725 -14.02226,30.59407 6.79868,9.34817 11.47277,18.27144 14.02226,26.76982 3.39936,12.74746 -11.47273,27.61953 -44.61627,44.61621 l -8.92322,-48.44028 c 0,-21.24583 12.32258,-75.63519 36.96774,-163.16806 0,-34.84319 12.74751,-76.48505 38.24253,-124.92557 19.54618,-54.38941 31.01895,-87.95786 34.4183,-100.70535 -33.99336,-57.78869 -52.26481,-98.79319 -54.81434,-123.01349 -2.54949,-24.22026 -1.69964,-94.54402 2.54955,-210.97127 -9.34817,0 -33.14354,13.17243 -71.386091,39.51728 -7.648474,21.24584 -23.795308,31.44384 -48.440502,30.59401 v -21.67073 l -20.396042,2.54949 C 11.897682,279.76603 5.9488502,267.86835 0,244.07299 0.84983047,231.3255 18.696344,197.33215 53.53954,142.09294 51.839879,128.49558 63.737561,104.2753 89.232586,69.432107 68.836544,45.63678 58.638523,24.390945 58.638523,5.6946012 69.686393,12.493245 77.759819,15.892567 82.858802,15.892567 L 81.584056,1.8703086 124.92558,33.739117 Z M 93.056823,29.914824 C 90.507332,42.662355 106.22925,55.834783 140.22258,69.432107 124.92559,48.186272 109.20367,35.013844 93.056823,29.914824 Z m 47.165757,15.297004 c 10.198,14.447192 17.4216,27.194704 21.67079,38.242537 L 150.4206,88.553403 C 141.07243,86.853742 127.9,80.479977 110.90332,69.432107 87.107992,103.42548 75.635243,128.49558 76.485074,144.64243 c -24.645195,37.39269 -42.916623,70.53621 -54.814286,99.43056 0.84983,7.64851 5.523916,13.59734 14.022257,17.84649 11.897663,-16.14681 26.769752,-21.2458 44.616265,-15.29695 11.047833,-7.64851 25.70747,-17.63406 43.97892,-29.95666 18.27141,-12.32259 38.03005,-21.0334 59.27592,-26.13242 -2.54953,56.08903 -4.2492,121.10133 -5.09903,195.03692 -0.84983,73.93554 29.31928,137.67308 90.50733,191.21262 -6.79868,-56.93889 -7.2236,-99.8555 -1.27475,-128.74981 l 8.92328,3.82424 c 1.69966,76.48503 10.198,123.86327 25.49502,142.13472 15.29699,18.27141 31.23135,21.45829 47.8031,9.56062 16.57179,-11.89766 21.88326,-42.9166 15.93441,-93.05682 l 12.74751,3.82429 c 0,30.59401 1.69968,50.5651 5.09904,59.91327 3.39932,9.34817 3.39932,19.12126 0,29.31926 29.74417,11.89767 78.39716,17.8465 145.95896,17.8465 67.5618,0 128.53738,-16.14683 182.92675,-48.4405 -2.5496,-21.24587 -3.18691,-39.30485 -1.91192,-54.17694 1.27461,-14.87209 9.56049,-35.90548 24.85762,-63.10016 -13.59732,51.83987 -14.65956,93.05682 -3.18672,123.65083 11.47273,30.59404 30.80645,52.47727 58.00118,65.6497 27.19468,13.17243 47.59068,9.56062 61.18801,-10.83542 50.14025,-59.48839 75.21038,-105.37942 75.21038,-137.67309 0,-31.44383 -5.09904,-61.18803 -15.29711,-89.23258 -71.38624,-33.99337 -130.66226,-44.19137 -177.82805,-30.59401 -47.16579,13.59736 -100.06795,19.97113 -158.70647,19.1213 -104.52959,0 -171.45403,-22.5206 -200.77331,-67.5618 C 344.8201,283.16539 318.2628,216.45342 294.46747,128.07069 277.47079,91.527829 256.86232,67.095101 232.64206,54.772504 208.42176,42.449907 177.61527,39.263015 140.22258,45.211828 Z M 98.155805,124.24639 c 22.095705,8.49835 33.993385,15.29703 35.693045,20.39604 l -43.341519,7.64853 c -4.249189,-14.44719 -1.699698,-23.79538 7.648474,-28.04457 z M 53.53954,278.49129 c 11.897663,-0.84983 17.846495,-5.52392 17.846495,-14.02226 -11.897663,-3.39933 -17.846495,1.27476 -17.846495,14.02226 z m 615.70471,332.71 c -3.39947,11.89763 -2.12466,17.42153 3.82441,16.5717 5.94885,-0.84987 11.89768,-2.5496 17.84649,-5.09921 5.94885,-2.5496 11.89769,-5.09911 17.8465,-7.64853 -1.69973,8.49835 1.06222,15.08456 8.28587,19.75864 7.22361,4.67409 12.5351,1.06232 15.93446,-10.83531 0.84987,-10.19804 -2.54949,-21.67081 -10.19807,-34.4183 -22.09567,8.49835 -39.94216,15.72194 -53.53949,21.67079 z"
     id="path1"
     sodipodi:nodetypes="ccccccsssccssscssssccsccccccccsccccccccssscscccccscccccscccccccsccccccccccccccccccccccccscscccssccscscccsscscscscsccccccccssscsccss" />
</svg>
