<?xml version="1.0" encoding="UTF-8" standalone="no"?>
<svg
   xmlns:dc="http://purl.org/dc/elements/1.1/"
   xmlns:cc="http://web.resource.org/cc/"
   xmlns:rdf="http://www.w3.org/1999/02/22-rdf-syntax-ns#"
   xmlns:svg="http://www.w3.org/2000/svg"
   xmlns="http://www.w3.org/2000/svg"
   xmlns:sodipodi="http://sodipodi.sourceforge.net/DTD/sodipodi-0.dtd"
   xmlns:inkscape="http://www.inkscape.org/namespaces/inkscape"
   width="11.582346"
   height="17.983217"
   id="svg2250"
   sodipodi:version="0.32"
   inkscape:version="0.45"
   sodipodi:docname="L1VARF.svg"
   inkscape:output_extension="org.inkscape.output.svg.inkscape"
   sodipodi:docbase="C:\Program Files\JSesh\fontsST"
   sodipodi:modified="true">
  <metadata
     id="metadata2257">
    <rdf:RDF>
      <cc:Work
         rdf:about="">
        <dc:format>image/svg+xml</dc:format>
        <dc:type
           rdf:resource="http://purl.org/dc/dcmitype/StillImage" />
      </cc:Work>
    </rdf:RDF>
  </metadata>
  <defs
     id="defs2255" />
  <sodipodi:namedview
     inkscape:window-height="708"
     inkscape:window-width="1024"
     inkscape:pageshadow="2"
     inkscape:pageopacity="0.0"
     guidetolerance="10.0"
     gridtolerance="10.0"
     objecttolerance="10.0"
     borderopacity="1.0"
     bordercolor="#666666"
     pagecolor="#ffffff"
     id="base"
     inkscape:zoom="29.64756"
     inkscape:cx="5.791173"
     inkscape:cy="11.689976"
     inkscape:window-x="-4"
     inkscape:window-y="-4"
     inkscape:current-layer="svg2250" />
  <path
     style="fill:#000000; stroke:none"
     d="M 5.132832,2.253983 L 5.244415,3.035066 L 5.690748,3.035066 L 5.690748,2.253983 L 5.422948,2.030816 L 5.132832,2.253983 z M 4.441015,2.030816 C 4.574915,2.4920267 4.641865,2.856532 4.641865,3.124332 L 5.021248,3.035066 L 4.931982,2.253983 C 4.798082,2.253983 4.6344263,2.179594 4.441015,2.030816 z M 3.570665,6.895848 L 3.570665,14.751311 C 3.719443,14.929845 4.0021207,15.093501 4.418698,15.242278 L 4.418698,6.761948 C 4.1360207,6.74707 3.853343,6.7917033 3.570665,6.895848 z M 4.708815,6.761948 L 4.708815,15.309228 L 5.177465,15.487761 C 5.5196537,15.234839 5.6758703,14.9596 5.646115,14.662045 L 5.646115,7.252914 C 5.4229483,6.9107253 5.110515,6.74707 4.708815,6.761948 z M 2.454833,8.94898 L 2.454833,11.894779 C 2.454833,13.308168 2.7375107,14.215712 3.302866,14.617412 L 3.302866,7.029747 C 2.8118993,7.178525 2.5292217,7.8182693 2.454833,8.94898 z M 2.164716,9.14983 C 1.911794,9.1051967 1.7221023,9.0010523 1.595641,8.837397 C 1.4691797,8.6737417 1.353877,8.591914 1.249733,8.591914 C 1.0563217,8.591914 0.959616,8.8820303 0.959616,9.462263 C 0.959616,9.997863 1.361316,10.615291 2.164716,11.314547 L 2.164716,9.14983 z M 5.802331,16.134945 C 5.9808643,16.134945 6.129642,15.993606 6.248664,15.710928 C 6.0552533,15.591905 5.9064757,15.405933 5.802331,15.153011 C 5.683309,15.405933 5.5270927,15.591905 5.333682,15.710928 C 5.452704,15.993606 5.6089203,16.134945 5.802331,16.134945 L 5.802331,16.134945 z M 9.41763,11.314547 C 10.235907,10.615291 10.645046,9.997863 10.645046,9.462263 C 10.645046,8.8820303 10.540902,8.591914 10.332613,8.591914 C 10.228468,8.591914 10.113166,8.6737417 9.986705,8.837397 C 9.8602437,9.0010523 9.670552,9.1051967 9.41763,9.14983 L 9.41763,11.314547 z M 9.127514,8.94898 C 9.0531247,7.8182693 8.7778857,7.178525 8.301797,7.029747 L 8.301797,14.617412 C 8.852275,14.215712 9.127514,13.308168 9.127514,11.894779 L 9.127514,8.94898 z M 6.873531,6.761948 C 6.471831,6.74707 6.1593977,6.9107253 5.936231,7.252914 L 5.936231,14.662045 C 5.9064757,14.9596 6.0626923,15.234839 6.404881,15.487761 L 6.873531,15.309228 L 6.873531,6.761948 z M 8.011681,6.895848 C 7.729003,6.7917033 7.4463253,6.74707 7.163648,6.761948 L 7.163648,15.242278 C 7.5802253,15.093501 7.862903,14.929845 8.011681,14.751311 L 8.011681,6.895848 z M 5.802331,6.270981 C 5.8915977,6.0775703 6.137081,5.9622677 6.538781,5.925073 C 6.940481,5.8878783 7.4165697,5.9139143 7.967047,6.003181 C 8.4133803,5.0510037 8.4133803,4.3629067 7.967047,3.93889 C 7.5207137,3.514874 6.7991417,3.3177437 5.802331,3.347499 C 4.790643,3.3177437 4.0616323,3.514874 3.615299,3.93889 C 3.1689657,4.3629067 3.1689657,5.0510037 3.615299,6.003181 C 4.1657763,5.9139143 4.641865,5.8878783 5.043565,5.925073 C 5.445265,5.9622677 5.698187,6.0775703 5.802331,6.270981 z M 7.141331,2.030816 C 6.9479197,2.179594 6.784264,2.253983 6.650364,2.253983 L 6.561098,3.035066 L 6.940481,3.124332 C 6.940481,2.856532 7.007431,2.4920267 7.141331,2.030816 z M 6.159398,2.030816 L 5.891598,2.253983 L 5.891598,3.035066 L 6.337931,3.035066 L 6.449514,2.253983 L 6.159398,2.030816 z M 5.802331,1.963866 L 6.204031,1.718383 C 6.4420757,2.0308163 6.7098757,2.0680107 7.007431,1.829966 C 7.260353,1.815088 7.3793753,1.9043547 7.364498,2.097766 C 7.230598,2.5143433 7.163648,2.863971 7.163648,3.146649 C 8.5919133,3.548349 8.9787353,4.5079653 8.324114,6.025498 C 9.5440907,6.040376 10.258224,5.9287927 10.466513,5.690748 C 10.674802,5.452704 10.544621,4.6530237 10.075972,3.291707 C 9.607322,1.930391 9.1423913,1.249733 8.68118,1.249733 L 7.587664,1.249733 C 7.0966973,1.249733 6.732192,1.115833 6.494148,0.848033 C 6.2561033,0.580233 6.137081,0.386822 6.137081,0.2678 L 6.159398,0.223167 C 6.2635427,0.208289 6.5164647,0.327311 6.918164,0.580233 L 6.895848,0.06695 L 6.985114,0 L 7.632298,0.580233 L 8.056314,0.156217 L 8.413381,0.580233 L 8.770447,0.223167 C 8.9341023,0.69925567 9.231658,0.95217767 9.663114,0.981933 C 9.8267693,0.981933 10.172677,1.703505 10.700838,3.146649 C 11.228999,4.589793 11.515396,5.5196537 11.560029,5.936231 C 11.604663,6.352809 10.600413,6.6503643 8.54728,6.828897 C 8.963858,7.0520643 9.2019027,7.3719367 9.261414,7.788514 C 9.3060467,7.5951027 9.5217743,7.472361 9.908597,7.420289 C 10.295419,7.368217 10.656205,7.4835197 10.990954,7.766197 C 11.325704,8.048875 11.493079,8.6067917 11.493079,9.439947 C 11.493079,10.243346 10.81614,11.202963 9.462263,12.318796 C 9.477141,12.541962 9.4697023,12.772567 9.439947,13.010612 C 9.960669,12.683301 10.447916,12.698179 10.901688,13.055245 C 11.35546,13.412312 11.582346,13.925595 11.582346,14.595095 C 11.582346,15.309228 11.299668,15.826231 10.734313,16.146103 C 10.168958,16.465976 9.3506803,16.863956 8.279481,17.340044 C 7.9224143,17.816132 7.5244337,18.02814 7.085539,17.976068 C 6.646645,17.923997 6.427198,17.674794 6.427198,17.22846 C 6.9627973,17.436749 7.2677917,17.451627 7.342181,17.273094 C 7.2826697,17.064805 7.1413307,17.001575 6.918164,17.083403 C 6.694998,17.16523 6.668962,17.087122 6.840056,16.849077 C 7.0111507,16.611034 7.34962,16.596156 7.855464,16.804445 C 8.5398413,16.506888 9.183305,16.146102 9.785855,15.722086 C 10.388405,15.298069 10.68968,14.937284 10.68968,14.639729 C 10.68968,14.342174 10.604133,14.148762 10.433038,14.059495 C 10.261943,13.970228 10.098288,14.011142 9.942072,14.182237 C 9.7858553,14.353331 9.5292137,14.364489 9.172147,14.215712 C 8.4431357,14.989356 7.5430303,15.487761 6.471831,15.710928 C 6.471831,15.978727 6.2486643,16.209333 5.802331,16.402744 C 5.3411203,16.209333 5.110515,15.978727 5.110515,15.710928 C 4.0393157,15.487761 3.1392103,14.989356 2.410199,14.215712 C 2.0531323,14.364489 1.8002103,14.353331 1.651433,14.182237 C 1.502655,14.011142 1.3389993,13.970228 1.160466,14.059495 C 0.98193267,14.148762 0.892666,14.342174 0.892666,14.639729 C 0.892666,14.937284 1.193941,15.298069 1.796491,15.722086 C 2.399041,16.146102 3.0425047,16.506888 3.726882,16.804445 C 4.2327267,16.596156 4.571196,16.611034 4.74229,16.849077 C 4.9133847,17.087122 4.8873487,17.16523 4.664182,17.083403 C 4.4410153,17.001575 4.2996763,17.064805 4.240165,17.273094 C 4.3145537,17.451627 4.619548,17.436749 5.155148,17.22846 C 5.155148,17.674794 4.935701,17.923997 4.496807,17.976068 C 4.0579123,18.02814 3.659932,17.816132 3.302866,17.340044 C 2.231666,16.863956 1.4133883,16.465976 0.848033,16.146103 C 0.28267767,15.826231 0,15.309228 0,14.595095 C 0,13.925595 0.226886,13.412312 0.680658,13.055245 C 1.13443,12.698179 1.621677,12.683301 2.142399,13.010612 C 2.1126437,12.772567 2.105205,12.541962 2.120083,12.318796 C 0.76620567,11.202963 0.089267,10.243346 0.089267,9.439947 C 0.089267,8.6067917 0.25664167,8.048875 0.591391,7.766197 C 0.926141,7.4835197 1.286927,7.368217 1.673749,7.420289 C 2.0605717,7.472361 2.2762997,7.5951027 2.320933,7.788514 C 2.3804437,7.3719367 2.618488,7.0520643 3.035066,6.828897 C 0.98193333,6.6503643 -0.022316333,6.352809 0.022317,5.936231 C 0.066950333,5.5196537 0.35334733,4.589793 0.881508,3.146649 C 1.4096687,1.703505 1.755577,0.981933 1.919233,0.981933 C 2.3506883,0.95217767 2.6556827,0.69925567 2.834216,0.223167 L 3.168966,0.580233 L 3.526032,0.156217 L 3.950049,0.580233 L 4.597232,0 L 4.708815,0.06695 L 4.664182,0.580233 C 5.065882,0.327311 5.318804,0.208289 5.422948,0.223167 L 5.445265,0.2678 C 5.445265,0.386822 5.3262427,0.580233 5.088198,0.848033 C 4.850154,1.115833 4.4856487,1.249733 3.994682,1.249733 L 2.901166,1.249733 C 2.4399547,1.249733 1.975024,1.930391 1.506374,3.291707 C 1.0377247,4.6530237 0.90754433,5.452704 1.115833,5.690748 C 1.3241217,5.9287927 2.0382547,6.040376 3.258232,6.025498 C 2.60361,4.5079653 2.990432,3.548349 4.418698,3.146649 C 4.418698,2.863971 4.3517483,2.5143433 4.217849,2.097766 C 4.202971,1.9043547 4.321993,1.815088 4.574915,1.829966 C 4.8724703,2.0680107 5.1402703,2.0308163 5.378315,1.718383 L 5.802331,1.963866 z "
     id="path2252"
     sodipodi:nodetypes="ccccccccccccccccccccccccccccssscccccccccssscccccccccccccccccccscscscsccccccccccccccccccssccscccccccccsssccsssccssscsccsscsssscccccsssscssccscsssccsssccssscccccccccsccsscccccc" />
</svg>
