<?xml version="1.0" encoding="UTF-8" standalone="no"?>
<svg
   width="1100"
   height="1000"
   version="1.1"
   id="svg1"
   sodipodi:docname="140BE.svg"
   inkscape:version="1.4.2 (f4327f4, 2025-05-13)"
   xmlns:inkscape="http://www.inkscape.org/namespaces/inkscape"
   xmlns:sodipodi="http://sodipodi.sourceforge.net/DTD/sodipodi-0.dtd"
   xmlns="http://www.w3.org/2000/svg"
   xmlns:svg="http://www.w3.org/2000/svg">
  <defs
     id="defs1" />
  <sodipodi:namedview
     id="namedview1"
     pagecolor="#ffffff"
     bordercolor="#666666"
     borderopacity="1.0"
     inkscape:showpageshadow="2"
     inkscape:pageopacity="0.0"
     inkscape:pagecheckerboard="0"
     inkscape:deskcolor="#d1d1d1"
     inkscape:zoom="1.51"
     inkscape:cx="404.96689"
     inkscape:cy="258.60927"
     inkscape:window-width="1680"
     inkscape:window-height="998"
     inkscape:window-x="-8"
     inkscape:window-y="-8"
     inkscape:window-maximized="1"
     inkscape:current-layer="svg1"
     showguides="true">
    <sodipodi:guide
       position="492.6582,902.02815"
       orientation="-1,0"
       id="guide1"
       inkscape:locked="false"
       inkscape:label=""
       inkscape:color="rgb(0,134,229)" />
    <sodipodi:guide
       position="537.82031,540.60156"
       orientation="1,0"
       id="guide2"
       inkscape:locked="false" />
  </sodipodi:namedview>
  <path
     id="path1"
     style="fill:#000000;stroke:none;stroke-width:55.6174"
     d="m 465.51758,0 c -2.2247,0 -3.33789,2.4102982 -3.33789,7.2304688 0,5.5617352 1.11319,8.3417972 3.33789,8.3417972 h 5.00586 c 11.86504,10.381905 17.79687,19.09576 17.79687,26.140625 -2.75737,3.760048 -3.65059,7.690079 -2.67969,11.789062 -2.55624,-4.828302 -5.92603,-8.758333 -10.11132,-11.789062 -10.75269,-8.157212 -23.17393,-12.236329 -37.26368,-12.236329 -22.98849,0 -39.48887,7.045037 -49.5,21.134766 -9.64033,13.718947 -14.46093,29.291979 -14.46093,46.71875 0,24.471632 30.77434,70.077542 92.32422,136.818362 -14.8313,4.44939 -29.10528,5.56258 -42.82422,3.33789 0,30.03336 10.38072,45.05078 31.14453,45.05078 0,45.97701 18.16918,68.96484 54.50586,68.96484 v 67.85352 c -72.67334,0 -147.38673,9.08362 -224.13867,27.25195 -76.38117,18.16834 -156.09906,53.39352 -239.154301,105.67383 V 437.15234 H 0 V 1000 H 46.162109 V 902.66992 H 1029.4785 V 1000 h 46.1621 V 437.15234 h -46.1621 V 552.28125 C 946.42327,500.00094 866.70539,464.77576 790.32422,446.60742 713.57228,428.43909 638.85889,419.35547 566.18555,419.35547 v -67.85352 c 36.33668,0 54.50586,-22.98783 54.50586,-68.96484 20.76381,0 31.14453,-15.01742 31.14453,-45.05078 -13.71894,2.22469 -27.99292,1.1115 -42.82422,-3.33789 61.54988,-66.74082 92.32422,-112.34673 92.32422,-136.818362 0,-17.426771 -4.82061,-32.999803 -14.46094,-46.71875 -10.01113,-14.089729 -26.51151,-21.134766 -49.5,-21.134766 -14.08974,0 -26.51098,4.079117 -37.26367,12.236329 -4.18529,3.030729 -7.55509,6.96076 -10.11133,11.789062 0.9709,-4.098983 0.0777,-8.029014 -2.67969,-11.789062 0,-7.044865 5.93184,-15.75872 17.79688,-26.140625 h 5.00586 c 2.2247,0 3.33789,-2.780062 3.33789,-8.3417972 C 613.46094,2.4102982 612.34775,0 610.12305,0 Z m 30.58984,15.572266 h 83.42578 c -10.3819,10.381905 -15.57226,19.09576 -15.57226,26.140625 h -52.28125 c 0,-7.044865 -5.19037,-15.75872 -15.57227,-26.140625 z m -57.8418,37.820312 c 22.24694,0 33.36915,9.825099 33.36915,29.476563 0,18.539119 -7.22894,27.808589 -21.68946,27.808589 -8.52799,0 -12.79297,-4.44888 -12.79297,-13.347652 0.74157,-7.044865 3.89335,-9.083446 9.45508,-6.117187 5.56174,0 8.3418,-2.782015 8.3418,-8.34375 0,-7.044865 -4.44888,-10.566407 -13.34766,-10.566407 -14.83129,0 -22.24609,7.972375 -22.24609,23.916016 0,20.39303 11.86368,30.58789 35.59375,30.58789 20.57263,0 33.20565,-10.20463 36.70898,-30.859374 V 225.80664 C 428.99598,160.91973 397.66406,117.72412 397.66406,96.21875 c 0,-28.550241 13.53445,-42.826172 40.60156,-42.826172 z m 199.10938,0 c 27.06711,0 40.60156,14.275931 40.60156,42.826172 0,21.50537 -31.33192,64.70098 -93.99414,129.58789 V 95.947266 c 3.50333,20.654744 16.13636,30.859374 36.70899,30.859374 23.73007,0 35.59375,-10.19486 35.59375,-30.58789 0,-15.943641 -7.41481,-23.916016 -22.2461,-23.916016 -8.89878,0 -13.34765,3.521542 -13.34765,10.566407 0,5.561735 2.78005,8.34375 8.34179,8.34375 5.56173,-2.966259 8.71351,-0.927678 9.45508,6.117187 0,8.898772 -4.26498,13.347652 -12.79297,13.347652 -14.46052,0 -21.68945,-9.26947 -21.68945,-27.808589 0,-19.651464 11.1222,-29.476563 33.36914,-29.476563 z m -149.22852,5.845703 c 0.0572,0.09079 0.11498,0.180535 0.17383,0.271485 h 3.33789 v 12.623046 c -0.85295,-4.748237 -2.15378,-9.073779 -3.51172,-12.894531 z m 99.34766,0 c -1.35794,3.820752 -2.65877,8.146294 -3.51172,12.894531 V 59.509766 h 3.33789 c 0.0589,-0.09095 0.11663,-0.180695 0.17383,-0.271485 z m -75.81445,0.271485 h 52.28125 V 225.80664 c -2.59548,-3.33704 -6.48872,-5.19172 -11.67969,-5.5625 -4.82015,-0.37079 -7.41633,1.11218 -7.78711,4.44922 -0.74156,2.96626 -2.96601,5.19265 -6.67383,6.67578 -3.70782,-1.48313 -5.93227,-3.70952 -6.67383,-6.67578 -0.37078,-3.33704 -2.96695,-4.82001 -7.7871,-4.44922 -5.19097,0.37078 -9.08421,2.22546 -11.67969,5.5625 z m 0.83398,186.041014 c 7.78643,0.18539 16.22248,1.94616 25.30664,5.2832 9.08416,-3.33704 17.52021,-5.09781 25.30664,-5.2832 7.78643,-0.18539 14.92341,1.20562 21.41211,4.17188 12.97738,5.93252 28.55041,7.04376 46.71875,3.33593 -3.70782,12.6066 -12.79143,18.91016 -27.25195,18.91016 -9.26956,0 -13.9043,3.52349 -13.9043,10.56836 -11.86504,35.59511 -24.658,53.39258 -38.37695,53.39258 -4.44938,5.56173 -9.08413,8.34179 -13.9043,8.34179 -4.82017,0 -9.45491,-2.78006 -13.90429,-8.34179 -13.71895,0 -26.51192,-17.79747 -38.37696,-53.39258 0,-7.04487 -4.63473,-10.56836 -13.90429,-10.56836 -14.46052,0 -23.54414,-6.30356 -27.25196,-18.91016 18.16834,3.70783 33.74137,2.59659 46.71875,-3.33593 6.4887,-2.96626 13.62568,-4.35727 21.41211,-4.17188 z m 2.18164,26.34766 c -2.52016,0 -4.82255,0.57959 -6.9082,1.73828 -3.70783,1.85391 -7.60109,3.70859 -11.67969,5.5625 15.20208,7.04487 25.21305,8.52782 30.0332,4.44922 0,-6.3033 -2.22443,-10.0107 -6.67382,-11.12305 -1.66852,-0.41713 -3.25939,-0.62695 -4.77149,-0.62695 z m 46.25,0 c -1.5121,0 -3.10296,0.20982 -4.77148,0.62695 -4.44939,1.11235 -6.67383,4.81975 -6.67383,11.12305 4.82016,4.0786 14.83112,2.59565 30.0332,-4.44922 -4.0786,-1.85391 -7.97185,-3.70859 -11.67968,-5.5625 -2.08565,-1.15869 -4.38805,-1.73828 -6.90821,-1.73828 z m -29.98437,37.57812 c -0.91972,0 -1.78462,0.2898 -2.59571,0.86914 -2.22469,2.2247 -6.48966,4.07742 -12.79296,5.56055 8.52798,5.56173 15.94475,8.34374 22.24804,8.34375 6.3033,-10e-6 13.72007,-2.78202 22.24805,-8.34375 -6.3033,-1.48313 -10.56828,-3.33585 -12.79297,-5.56055 -0.81109,-0.57934 -1.67598,-0.86914 -2.5957,-0.86914 -2.02337,0 -4.31025,1.40105 -6.85938,4.20508 -2.54912,-2.80403 -4.83601,-4.20508 -6.85937,-4.20508 z m 6.85937,149.92188 c 76.01038,0 151.6511,8.528 226.91992,25.58398 74.89803,17.056 151.65,49.31525 230.25586,96.77539 H 80.644531 C 159.25039,534.29767 236.00236,502.03842 310.90039,484.98242 386.16911,467.92646 461.81003,459.39846 537.82031,459.39844 Z M 46.162109,624.58203 H 1029.4785 V 859.84375 H 46.162109 Z"
     sodipodi:nodetypes="cssccccscsccccccccccccccccccccccccscsccccsscccccccsssccssssccssssccssssccsssccccccccccccccccccccscsscsccsccscssscccsssscccssccsccscssccccsccccc" />
</svg>
