<?xml version="1.0" encoding="UTF-8" standalone="no"?>
<!-- Created with Inkscape (http://www.inkscape.org/) -->

<svg
   width="1050"
   height="1050"
   viewBox="0 0 1050 1050"
   version="1.1"
   id="svg1"
   sodipodi:docname="05.svg"
   inkscape:version="1.4.2 (f4327f4, 2025-05-13)"
   xmlns:inkscape="http://www.inkscape.org/namespaces/inkscape"
   xmlns:sodipodi="http://sodipodi.sourceforge.net/DTD/sodipodi-0.dtd"
   xmlns="http://www.w3.org/2000/svg"
   xmlns:svg="http://www.w3.org/2000/svg">
  <sodipodi:namedview
     id="namedview1"
     pagecolor="#ffffff"
     bordercolor="#666666"
     borderopacity="1.0"
     inkscape:showpageshadow="2"
     inkscape:pageopacity="0.0"
     inkscape:pagecheckerboard="0"
     inkscape:deskcolor="#d1d1d1"
     inkscape:document-units="px"
     inkscape:zoom="0.23779789"
     inkscape:cx="1255.2677"
     inkscape:cy="653.91665"
     inkscape:window-width="1680"
     inkscape:window-height="998"
     inkscape:window-x="-8"
     inkscape:window-y="-8"
     inkscape:window-maximized="1"
     inkscape:current-layer="layer1"
     showguides="true">
    <sodipodi:guide
       position="168.00626,1161.4392"
       orientation="0,-1"
       id="guide1"
       inkscape:locked="false" />
    <sodipodi:guide
       position="261.4392,1161.4392"
       orientation="-1,0"
       id="guide15"
       inkscape:locked="false"
       inkscape:label=""
       inkscape:color="rgb(0,134,229)" />
    <sodipodi:guide
       position="-1120.6153,525"
       orientation="0,1"
       id="guide3"
       inkscape:locked="false"
       inkscape:label=""
       inkscape:color="rgb(0,134,229)" />
    <sodipodi:guide
       position="525,1466.3199"
       orientation="-1,0"
       id="guide4"
       inkscape:locked="false"
       inkscape:label=""
       inkscape:color="rgb(0,134,229)" />
    <sodipodi:guide
       position="0,1050"
       orientation="0,-1"
       id="guide6"
       inkscape:locked="false" />
    <sodipodi:guide
       position="2261.4392,1161.4392"
       orientation="-1,0"
       id="guide2"
       inkscape:label=""
       inkscape:locked="false"
       inkscape:color="rgb(0,134,229)" />
  </sodipodi:namedview>
  <defs
     id="defs1" />
  <g
     inkscape:label="Layer 1"
     inkscape:groupmode="layer"
     id="layer1">
    <path
       id="use11"
       style="baseline-shift:baseline;display:inline;overflow:visible;vector-effect:none;enable-background:accumulate;stop-color:#000000;stop-opacity:1;opacity:1"
       d="M 131.61523 0 L 0 131.61523 L 0 168.38477 L 168.38477 0 L 131.61523 0 z M 331.61523 0 L 0 331.61523 L 0 368.38477 L 368.38477 0 L 331.61523 0 z M 531.61523 0 L 6.6152344 525 L 43.384766 525 L 568.38477 0 L 531.61523 0 z M 731.61523 0 L 206.61523 525 L 243.38477 525 L 768.38477 0 L 731.61523 0 z M 931.61523 0 L 406.61523 525 L 443.38477 525 L 968.38477 0 L 931.61523 0 z M 1050 81.615234 L 606.61523 525 L 643.38477 525 L 1050 118.38477 L 1050 81.615234 z M 1050 281.61523 L 806.61523 525 L 843.38477 525 L 1050 318.38477 L 1050 281.61523 z M 1050 481.61523 L 1006.6152 525 L 1043.3848 525 L 1050 518.38477 L 1050 481.61523 z " />
  </g>
</svg>
