<?xml version="1.0" encoding="UTF-8" standalone="no"?>
<!-- Created with Inkscape (http://www.inkscape.org/) -->

<svg
   width="1050"
   height="1050"
   viewBox="0 0 1050 1050"
   version="1.1"
   id="svg1"
   sodipodi:docname="base1.svg"
   inkscape:version="1.4.2 (f4327f4, 2025-05-13)"
   xmlns:inkscape="http://www.inkscape.org/namespaces/inkscape"
   xmlns:sodipodi="http://sodipodi.sourceforge.net/DTD/sodipodi-0.dtd"
   xmlns="http://www.w3.org/2000/svg"
   xmlns:svg="http://www.w3.org/2000/svg">
  <sodipodi:namedview
     id="namedview1"
     pagecolor="#ffffff"
     bordercolor="#666666"
     borderopacity="1.0"
     inkscape:showpageshadow="2"
     inkscape:pageopacity="0.0"
     inkscape:pagecheckerboard="0"
     inkscape:deskcolor="#d1d1d1"
     inkscape:document-units="px"
     inkscape:zoom="0.23779789"
     inkscape:cx="376.37003"
     inkscape:cy="910.43701"
     inkscape:window-width="1680"
     inkscape:window-height="998"
     inkscape:window-x="-8"
     inkscape:window-y="-8"
     inkscape:window-maximized="1"
     inkscape:current-layer="layer1"
     showguides="true">
    <sodipodi:guide
       position="168.00626,1161.4392"
       orientation="0,-1"
       id="guide1"
       inkscape:locked="false" />
    <sodipodi:guide
       position="161.4392,1161.4392"
       orientation="1,0"
       id="guide15"
       inkscape:locked="false" />
    <sodipodi:guide
       position="-1120.6153,500"
       orientation="0,1"
       id="guide3"
       inkscape:locked="false"
       inkscape:label=""
       inkscape:color="rgb(0,134,229)" />
    <sodipodi:guide
       position="550,1466.3199"
       orientation="-1,0"
       id="guide4"
       inkscape:locked="false"
       inkscape:label=""
       inkscape:color="rgb(0,134,229)" />
    <sodipodi:guide
       position="368.00626,1161.4392"
       orientation="1,0"
       id="guide5"
       inkscape:locked="false" />
    <sodipodi:guide
       position="0,1050"
       orientation="0,-1"
       id="guide6"
       inkscape:locked="false" />
    <sodipodi:guide
       position="50,1050"
       orientation="-1,0"
       id="guide7"
       inkscape:locked="false"
       inkscape:label=""
       inkscape:color="rgb(0,134,229)" />
    <sodipodi:guide
       position="2161.4392,1161.4392"
       orientation="-1,0"
       id="guide8"
       inkscape:label=""
       inkscape:locked="false"
       inkscape:color="rgb(0,134,229)" />
  </sodipodi:namedview>
  <defs
     id="defs1" />
  <g
     inkscape:label="Layer 1"
     inkscape:groupmode="layer"
     id="layer1">
    <path
       id="path1"
       style="baseline-shift:baseline;display:inline;overflow:visible;vector-effect:none;enable-background:accumulate;stop-color:#000000;stop-opacity:1;opacity:1"
       d="M 152.95312 -119.92383 L -1128.5957 1161.625 L -1111.627 1178.5957 L 169.92383 -102.95312 L 152.95312 -119.92383 z M 352.95312 -119.92383 L -928.5957 1161.625 L -911.62695 1178.5957 L 369.92383 -102.95312 L 352.95312 -119.92383 z M 552.95312 -119.92383 L -728.5957 1161.625 L -711.62695 1178.5957 L 569.92383 -102.95312 L 552.95312 -119.92383 z M 752.95312 -119.92383 L -528.5957 1161.625 L -511.62695 1178.5957 L 769.92383 -102.95312 L 752.95312 -119.92383 z M 952.95312 -119.92383 L -328.5957 1161.625 L -311.62695 1178.5957 L 969.92383 -102.95312 L 952.95312 -119.92383 z M 1152.9531 -119.92383 L -128.5957 1161.625 L -111.62695 1178.5957 L 1169.9238 -102.95312 L 1152.9531 -119.92383 z M 1352.9531 -119.92383 L 71.404297 1161.625 L 88.373047 1178.5957 L 1369.9238 -102.95312 L 1352.9531 -119.92383 z M 1552.9531 -119.92383 L 271.4043 1161.625 L 288.37305 1178.5957 L 1569.9238 -102.95312 L 1552.9531 -119.92383 z M 1752.9531 -119.92383 L 471.4043 1161.625 L 488.37305 1178.5957 L 1769.9238 -102.95312 L 1752.9531 -119.92383 z M 1952.9531 -119.92383 L 671.4043 1161.625 L 688.37305 1178.5957 L 1969.9238 -102.95312 L 1952.9531 -119.92383 z M 2152.9531 -119.92383 L 871.4043 1161.625 L 888.37305 1178.5957 L 2169.9238 -102.95312 L 2152.9531 -119.92383 z " />
  </g>
</svg>
