<?xml version="1.0" encoding="UTF-8" standalone="no"?>
<!-- Created with Inkscape (http://www.inkscape.org/) -->

<svg
   width="1050"
   height="1050"
   viewBox="0 0 1050 1050"
   version="1.1"
   id="svg1"
   sodipodi:docname="full.svg"
   inkscape:version="1.4.2 (f4327f4, 2025-05-13)"
   xmlns:inkscape="http://www.inkscape.org/namespaces/inkscape"
   xmlns:sodipodi="http://sodipodi.sourceforge.net/DTD/sodipodi-0.dtd"
   xmlns="http://www.w3.org/2000/svg"
   xmlns:svg="http://www.w3.org/2000/svg">
  <sodipodi:namedview
     id="namedview1"
     pagecolor="#ffffff"
     bordercolor="#666666"
     borderopacity="1.0"
     inkscape:showpageshadow="2"
     inkscape:pageopacity="0.0"
     inkscape:pagecheckerboard="0"
     inkscape:deskcolor="#d1d1d1"
     inkscape:document-units="px"
     inkscape:zoom="0.23779789"
     inkscape:cx="376.37003"
     inkscape:cy="910.43701"
     inkscape:window-width="1680"
     inkscape:window-height="998"
     inkscape:window-x="-8"
     inkscape:window-y="-8"
     inkscape:window-maximized="1"
     inkscape:current-layer="layer1"
     showguides="true">
    <sodipodi:guide
       position="168.00626,1161.4392"
       orientation="0,-1"
       id="guide1"
       inkscape:locked="false" />
    <sodipodi:guide
       position="161.4392,1161.4392"
       orientation="1,0"
       id="guide15"
       inkscape:locked="false" />
    <sodipodi:guide
       position="-1120.6153,525"
       orientation="0,1"
       id="guide3"
       inkscape:locked="false"
       inkscape:label=""
       inkscape:color="rgb(0,134,229)" />
    <sodipodi:guide
       position="525,1466.3199"
       orientation="-1,0"
       id="guide4"
       inkscape:locked="false"
       inkscape:label=""
       inkscape:color="rgb(0,134,229)" />
    <sodipodi:guide
       position="368.00626,1161.4392"
       orientation="1,0"
       id="guide5"
       inkscape:locked="false" />
    <sodipodi:guide
       position="0,1050"
       orientation="0,-1"
       id="guide6"
       inkscape:locked="false" />
    <sodipodi:guide
       position="50,1050"
       orientation="-1,0"
       id="guide7"
       inkscape:locked="false"
       inkscape:label=""
       inkscape:color="rgb(0,134,229)" />
    <sodipodi:guide
       position="2161.4392,1161.4392"
       orientation="-1,0"
       id="guide8"
       inkscape:label=""
       inkscape:locked="false"
       inkscape:color="rgb(0,134,229)" />
  </sodipodi:namedview>
  <defs
     id="defs1" />
  <g
     inkscape:label="Layer 1"
     inkscape:groupmode="layer"
     id="layer1">
    <path
       id="use11"
       style="baseline-shift:baseline;display:inline;overflow:visible;vector-effect:none;enable-background:accumulate;stop-color:#000000;stop-opacity:1;opacity:1"
       d="M 28.787109 0 L 0 28.787109 L 0 71.212891 L 71.212891 0 L 28.787109 0 z M 228.78711 0 L 0 228.78711 L 0 271.21289 L 271.21289 0 L 228.78711 0 z M 428.78711 0 L 0 428.78711 L 0 471.21289 L 471.21289 0 L 428.78711 0 z M 628.78711 0 L 0 628.78516 L 0 671.21484 L 671.21289 0 L 628.78711 0 z M 828.78711 0 L 0 828.78516 L 0 871.21484 L 871.21289 0 L 828.78711 0 z M 1028.7871 0 L 0 1028.7852 L 0 1050 L 21.214844 1050 L 1050 21.212891 L 1050 0 L 1028.7871 0 z M 1050 178.78711 L 178.78516 1050 L 221.21484 1050 L 1050 221.21289 L 1050 178.78711 z M 1050 378.78711 L 378.78516 1050 L 421.21484 1050 L 1050 421.21289 L 1050 378.78711 z M 1050 578.78516 L 578.78516 1050 L 621.21484 1050 L 1050 621.21484 L 1050 578.78516 z M 1050 778.78516 L 778.78516 1050 L 821.21484 1050 L 1050 821.21484 L 1050 778.78516 z M 1050 978.78516 L 978.78516 1050 L 1021.2148 1050 L 1050 1021.2148 L 1050 978.78516 z " />
  </g>
</svg>
