<?xml version="1.0" encoding="UTF-8" standalone="no"?>
<!-- Created with Inkscape (http://www.inkscape.org/) -->

<svg
   width="1050"
   height="1050"
   viewBox="0 0 1050 1050"
   version="1.1"
   id="svg1"
   sodipodi:docname="full.svg"
   inkscape:version="1.4.2 (f4327f4, 2025-05-13)"
   xmlns:inkscape="http://www.inkscape.org/namespaces/inkscape"
   xmlns:sodipodi="http://sodipodi.sourceforge.net/DTD/sodipodi-0.dtd"
   xmlns="http://www.w3.org/2000/svg"
   xmlns:svg="http://www.w3.org/2000/svg">
  <sodipodi:namedview
     id="namedview1"
     pagecolor="#ffffff"
     bordercolor="#666666"
     borderopacity="1.0"
     inkscape:showpageshadow="2"
     inkscape:pageopacity="0.0"
     inkscape:pagecheckerboard="0"
     inkscape:deskcolor="#d1d1d1"
     inkscape:document-units="px"
     inkscape:zoom="0.672594"
     inkscape:cx="353.11049"
     inkscape:cy="702.50403"
     inkscape:window-width="1680"
     inkscape:window-height="998"
     inkscape:window-x="-8"
     inkscape:window-y="-8"
     inkscape:window-maximized="1"
     inkscape:current-layer="layer1"
     showguides="true">
    <sodipodi:guide
       position="168.00626,1161.4392"
       orientation="0,-1"
       id="guide1"
       inkscape:locked="false" />
    <sodipodi:guide
       position="161.4392,1161.4392"
       orientation="1,0"
       id="guide15"
       inkscape:locked="false" />
    <sodipodi:guide
       position="-1120.6153,525"
       orientation="0,1"
       id="guide3"
       inkscape:locked="false"
       inkscape:label=""
       inkscape:color="rgb(0,134,229)" />
    <sodipodi:guide
       position="525,1466.3199"
       orientation="-1,0"
       id="guide4"
       inkscape:locked="false"
       inkscape:label=""
       inkscape:color="rgb(0,134,229)" />
    <sodipodi:guide
       position="368.00626,1161.4392"
       orientation="1,0"
       id="guide5"
       inkscape:locked="false" />
    <sodipodi:guide
       position="0,1050"
       orientation="0,-1"
       id="guide6"
       inkscape:locked="false" />
    <sodipodi:guide
       position="50,1050"
       orientation="-1,0"
       id="guide7"
       inkscape:locked="false"
       inkscape:label=""
       inkscape:color="rgb(0,134,229)" />
    <sodipodi:guide
       position="2161.4392,1161.4392"
       orientation="-1,0"
       id="guide8"
       inkscape:label=""
       inkscape:locked="false"
       inkscape:color="rgb(0,134,229)" />
  </sodipodi:namedview>
  <defs
     id="defs1" />
  <g
     inkscape:label="Layer 1"
     inkscape:groupmode="layer"
     id="layer1">
    <path
       id="path1"
       style="baseline-shift:baseline;display:inline;overflow:visible;vector-effect:none;enable-background:accumulate;stop-color:#000000;stop-opacity:1;opacity:1"
       d="M 33.029297 0 L 0 33.029297 L 0 66.970703 L 66.970703 0 L 33.029297 0 z M 233.0293 0 L 0 233.0293 L 0 266.9707 L 266.9707 0 L 233.0293 0 z M 433.0293 0 L 0 433.0293 L 0 466.9707 L 466.9707 0 L 433.0293 0 z M 633.0293 0 L 0 633.0293 L 0 666.96875 L 666.9707 0 L 633.0293 0 z M 833.0293 0 L 0 833.0293 L 0 866.96875 L 866.9707 0 L 833.0293 0 z M 1033.0293 0 L 0 1033.0293 L 0 1050 L 16.96875 1050 L 1050 16.970703 L 1050 0 L 1033.0293 0 z M 1050 183.0293 L 183.0293 1050 L 216.96875 1050 L 1050 216.9707 L 1050 183.0293 z M 1050 383.0293 L 383.0293 1050 L 416.96875 1050 L 1050 416.9707 L 1050 383.0293 z M 1050 583.0293 L 583.0293 1050 L 616.96875 1050 L 1050 616.96875 L 1050 583.0293 z M 1050 783.0293 L 783.0293 1050 L 816.96875 1050 L 1050 816.96875 L 1050 783.0293 z M 1050 983.0293 L 983.0293 1050 L 1016.9688 1050 L 1050 1016.9688 L 1050 983.0293 z " />
  </g>
</svg>
