<?xml version="1.0" encoding="UTF-8" standalone="no"?>
<svg
   width="1100"
   height="1000"
   id="svg2214"
   sodipodi:version="0.32"
   inkscape:version="1.4.2 (f4327f4, 2025-05-13)"
   sodipodi:docname="S42_vsmall.svg"
   inkscape:output_extension="org.inkscape.output.svg.inkscape"
   sodipodi:modified="true"
   version="1.1"
   xml:space="preserve"
   xmlns:inkscape="http://www.inkscape.org/namespaces/inkscape"
   xmlns:sodipodi="http://sodipodi.sourceforge.net/DTD/sodipodi-0.dtd"
   xmlns="http://www.w3.org/2000/svg"
   xmlns:svg="http://www.w3.org/2000/svg"
   xmlns:rdf="http://www.w3.org/1999/02/22-rdf-syntax-ns#"
   xmlns:cc="http://creativecommons.org/ns#"
   xmlns:dc="http://purl.org/dc/elements/1.1/"><metadata
     id="metadata2221"><rdf:RDF><cc:Work
         rdf:about=""><dc:format>image/svg+xml</dc:format><dc:type
           rdf:resource="http://purl.org/dc/dcmitype/StillImage" /></cc:Work></rdf:RDF></metadata><defs
     id="defs2219" /><sodipodi:namedview
     inkscape:window-height="998"
     inkscape:window-width="1680"
     inkscape:pageshadow="2"
     inkscape:pageopacity="0.0"
     guidetolerance="10.0"
     gridtolerance="10.0"
     objecttolerance="10.0"
     borderopacity="1.0"
     bordercolor="#666666"
     pagecolor="#ffffff"
     id="base"
     inkscape:showpageshadow="2"
     inkscape:pagecheckerboard="0"
     inkscape:deskcolor="#d1d1d1"
     inkscape:zoom="0.3775"
     inkscape:cx="239.7351"
     inkscape:cy="660.92715"
     inkscape:window-x="-8"
     inkscape:window-y="-8"
     inkscape:window-maximized="1"
     inkscape:current-layer="svg2214" /><path
     id="path2"
     style="baseline-shift:baseline;display:inline;overflow:visible;vector-effect:none;stroke-width:1;enable-background:accumulate;stop-color:#000000"
     d="m 21.876907,84.389873 c 9.55288,67.510357 10.47061,125.473847 0.78797,181.066857 -8.17725,4.23714 -27.41887,12.72748 -21.57955,25.41397 2.73074,5.44113 6.56102,9.41064 12.75971,8.427 15.79465,18.21132 28.93677,39.47571 39.32435,63.96922 4.19852,42.35688 2.91787,115.95647 -1.72854,220.49296 -0.87524,19.69151 5.40691,35.77051 20.96212,35.73551 15.55523,-0.035 22.06643,-14.0031 21.07869,-35.53487 -4.79482,-104.52327 -5.89485,-178.34452 -1.92144,-220.72527 10.180063,-24.49591 23.206653,-45.76447 38.975993,-63.98381 6.04423,0.95297 9.90901,-2.76452 12.74933,-8.43597 5.3575,-12.75766 -12.67077,-21.03986 -21.31198,-25.38948 -10.48138,-58.67533 -8.30761,-117.89547 0.95547,-181.074997 z m 26.82728,26.637997 47.17337,-0.0178 c -9.26867,56.94219 -4.20577,110.8258 0.84685,146.03124 -13.19582,-3.81481 -35.38815,-3.7882 -48.40002,-0.0375 4.45362,-28.8069 11.46321,-80.86842 0.3798,-145.97599 z m -10.00043,177.68551 c 22.54063,-9.81082 43.17484,-10.7443 67.421563,0.0279 -4.02215,4.72821 -7.857983,9.83437 -10.395433,14.89345 -4.37944,8.73147 -16.9132,35.24326 -23.59009,39.65596 -6.94151,-4.22162 -21.57658,-34.00692 -23.78781,-38.56878 -2.21988,-4.57969 -5.41885,-10.68232 -9.64823,-16.0085 z"
     sodipodi:nodetypes="cccccszscccccccccccccscsc"
     inkscape:transform-center-x="0.27176001"
     inkscape:transform-center-y="-267.57214" /></svg>
