<?xml version="1.0" encoding="UTF-8" standalone="no"?>
<svg
   width="1500"
   height="1000"
   version="1.1"
   id="svg1"
   sodipodi:docname="D392.svg"
   inkscape:version="1.4.2 (f4327f4, 2025-05-13)"
   xmlns:inkscape="http://www.inkscape.org/namespaces/inkscape"
   xmlns:sodipodi="http://sodipodi.sourceforge.net/DTD/sodipodi-0.dtd"
   xmlns:xlink="http://www.w3.org/1999/xlink"
   xmlns="http://www.w3.org/2000/svg"
   xmlns:svg="http://www.w3.org/2000/svg">
  <defs
     id="defs1" />
  <sodipodi:namedview
     id="namedview1"
     pagecolor="#ffffff"
     bordercolor="#666666"
     borderopacity="1.0"
     inkscape:showpageshadow="2"
     inkscape:pageopacity="0.0"
     inkscape:pagecheckerboard="0"
     inkscape:deskcolor="#d1d1d1"
     inkscape:zoom="0.755"
     inkscape:cx="741.0596"
     inkscape:cy="290.72848"
     inkscape:window-width="1680"
     inkscape:window-height="998"
     inkscape:window-x="-8"
     inkscape:window-y="-8"
     inkscape:window-maximized="1"
     inkscape:current-layer="svg1"
     showguides="true">
    <sodipodi:guide
       position="726.74845,0"
       orientation="1,0"
       id="guide1"
       inkscape:locked="false" />
    <sodipodi:guide
       position="698.79688,357.38482"
       orientation="0,-1"
       id="guide2"
       inkscape:locked="false" />
  </sodipodi:namedview>
  <path
     id="path1"
     style="fill:#000000;stroke:none;stroke-width:62.1891"
     d="M 301.48047,135.48828 0,145.4707 v 21.96289 C 4.428607,336.75846 114.40473,442.62873 265.54297,480.89453 322.19664,727.03246 458.96838,957.47239 726.74805,1000 V 932.83594 C 459.9284,905.80025 371.25061,645.98544 305.47461,424.99023 h -5.99023 c -68.84684,-11.64789 -105.49276,-24.35258 -143.75196,-59.89648 7.74416,3.92667 20.58975,5.84961 36.19336,5.84961 29.31001,0 68.25832,-7.01686 101.56836,-19.82617 7.342,-2.82335 14.41322,-11.10264 11.98047,-17.96875 -26.82894,-75.72107 -56.01249,-104.84621 -117.79688,-133.76953 37.63663,2.70168 67.43039,7.12227 103.82032,13.97656 136.20974,-18.51197 248.01219,-107.81645 435.25,-107.81645 V 0.03125 c -73.06133,0 -258.12984,11.350339 -425.26758,135.45703 z M 71.876953,197.38281 h 65.886717 c -0.88744,9.37762 98.93146,29.86929 153.73438,121.78907 C 250.89314,281.32249 133.00562,209.82293 71.876953,197.38281 Z m 583.851567,15.96094 c -0.28607,0 -0.57065,0.004 -0.85547,0.0117 -7.37506,0.1959 -19.76763,2.01999 -29.94922,3.99219 -120.89911,12.89229 -205.87385,59.89648 -299.48438,59.89648 -2.44328,1.31287 -0.26928,30.33084 0,47.91797 103.27382,-1.50044 202.45739,-43.48836 299.48438,-69.87891 5,-0.62127 9.5232,-0.92382 13.68359,-0.92382 14.94384,0 25.22077,3.89823 36.23047,10.90624 16.29136,47.84477 14.64933,85.38167 9.98242,135.76563 -12.6551,97.64913 -33.77717,109.59552 -75.86914,167.71094 -15.18321,25.00802 5.93627,56.49733 21.96289,61.89453 9.34203,6.01679 29.95284,11.45502 47.91602,13.97461 3.23632,12.64839 2.62037,31.38998 -3.99219,41.92773 -2.32898,2.14988 -3.66125,3.84037 -5.99023,5.99024 -11.01834,4.3296 -22.53357,6.21679 -34.47461,6.21679 -10.80454,0 -21.95716,-1.54533 -33.40821,-4.2207 -1.20324,-0.27985 -2.34622,-0.41016 -3.43359,-0.41016 -14.08986,0 -18.70673,22.06559 -20.52539,26.36915 -2.83259,16.76094 3.06755,34.25026 9.98242,39.92968 6.37226,3.81903 12.67593,4.72852 17.54297,4.72852 4.08483,0 7.15732,-0.63986 8.41211,-0.73438 30.65585,31.07958 74.54661,51.91011 113.80469,51.91011 v -29.95117 c -41.365,0 -75.99393,-23.67211 -109.81055,-43.92379 l -3.99414,-3.99219 c -4.39216,5.50248 -7.9969,7.59375 -10.88477,7.59375 -7.6834,0 -10.2838,-14.8065 -9.08007,-19.57422 46.38478,20.48238 111.20214,31.9453 133.76953,31.9453 v -15.97266 c -39.03502,-0.4602 -88.13327,-13.72559 -125.78321,-23.95898 1.55746,-1.45772 2.77331,-3.52764 3.99414,-3.99219 17.11181,3.61754 30.91492,5.09961 42.04688,5.09961 25.03209,0 36.55554,-7.49701 41.80859,-15.08203 10.4949,11.5936 27.47433,19.07561 37.9336,21.96093 v -23.95898 c -29.21132,-10.17699 -22.70317,-34.2585 -27.95117,-59.89649 h 27.95117 l 4e-4,-11.97848 h -33.93986 c 14.38352,-34.93713 -3.13782,-53.13281 -20.14453,-53.13281 -4.11692,0 -8.20231,1.06582 -11.79883,3.21875 -5.89117,0.79353 -13.85468,10.20898 -18.80468,10.20898 -1.28607,0 -2.36779,-0.63547 -3.15821,-2.22266 -5.15659,-16.89129 26.81412,-42.43247 39.92774,-63.89062 19.84913,-46.09583 27.60626,-69.04122 31.94531,-123.78711 3.90516,-49.27077 11.16951,-105.48865 -9.98242,-149.74219 -11.55,-16.08906 -23.48223,-37.94531 -45.06445,-37.94531 z M 59.896484,223.33789 C 138.16073,250.92583 211.60371,289.85733 285.50781,327.1582 209.51098,303.83942 135.74361,283.20802 63.890625,251.28906 62.59958,246.82233 61.232367,228.01189 59.896484,223.33789 Z m 15.972657,59.89649 c 52.984519,33.06218 155.973809,52.45781 209.638669,53.90624 -6.20491,4.16754 -20.59427,15.41797 -52.92773,15.41797 -27.70242,0 -68.57744,-6.79207 -128.75977,-29.39257 C 92.73816,311.07174 85.021691,296.3095 75.869141,283.23438 Z m 513.884769,15.95703 c -0.17288,0 -0.39563,0.005 -0.76758,0.0156 -37.95753,1.15199 -82.90097,20.34969 -115.80078,41.92774 -37.61941,14.05479 -76.77473,14.32509 -115.80078,17.96875 0.28544,9.50752 -0.28545,18.44371 0,27.95117 37.94135,-7.90659 77.24257,-11.30597 115.80078,-15.97071 28.14154,22.42308 55.64677,31.64756 83.85547,33.94141 2.06238,0.16791 4.03963,0.22266 5.99609,0.22266 3.91288,0 7.73877,-0.22266 11.97266,-0.22266 22.27009,0 45.84909,-2.85304 71.87695,-3.99414 l 17.96875,3.99414 7.98633,-17.9707 -5.99024,-11.97852 c -5.97015,-55.64652 -37.98356,-75.86914 -75.86914,-75.86914 -0.73588,0 -0.88224,-0.0156 -1.22851,-0.0156 z m -4.76172,27.96679 c 23.34384,0 43.38818,12.11243 53.9082,45.92188 -17.72438,2.5913 -38.55525,4.73242 -58.91016,4.73242 -30.87911,0 -60.66538,-4.92964 -76.85742,-20.70508 27.72736,-16.72761 57.23967,-29.57994 81.85938,-29.94922 z"
     sodipodi:nodetypes="cccccccccssscccccccccccccccscccccccscsccscccccscccccscccccccscsccscscccccssccsccccccssccccssccsccc" />
  <use
     x="0"
     y="0"
     xlink:href="#path1"
     id="use2"
     transform="matrix(-1,0,0,1,1453.4965,0)" />
</svg>
