<?xml version="1.0" encoding="UTF-8" standalone="no"?>
<svg
   width="1100"
   height="1000"
   version="1.1"
   id="svg1"
   sodipodi:docname="O23F.svg"
   inkscape:version="1.4.2 (f4327f4, 2025-05-13)"
   xmlns:inkscape="http://www.inkscape.org/namespaces/inkscape"
   xmlns:sodipodi="http://sodipodi.sourceforge.net/DTD/sodipodi-0.dtd"
   xmlns:xlink="http://www.w3.org/1999/xlink"
   xmlns="http://www.w3.org/2000/svg"
   xmlns:svg="http://www.w3.org/2000/svg">
  <defs
     id="defs1" />
  <sodipodi:namedview
     id="namedview1"
     pagecolor="#ffffff"
     bordercolor="#666666"
     borderopacity="1.0"
     inkscape:showpageshadow="2"
     inkscape:pageopacity="0.0"
     inkscape:pagecheckerboard="0"
     inkscape:deskcolor="#d1d1d1"
     showguides="true"
     inkscape:zoom="0.26693281"
     inkscape:cx="301.57402"
     inkscape:cy="605.02117"
     inkscape:window-width="1680"
     inkscape:window-height="998"
     inkscape:window-x="-8"
     inkscape:window-y="-8"
     inkscape:window-maximized="1"
     inkscape:current-layer="svg1">
    <sodipodi:guide
       position="530.27234,925.75118"
       orientation="1,0"
       id="guide1"
       inkscape:locked="false" />
  </sodipodi:namedview>
  <path
     id="path1"
     style="fill:#000000;stroke:none;stroke-width:1"
     d="m 372.64844,0.07617187 c -34.11986,0 -70.36919,8.84267753 -108.78321,23.94335913 -61.46244,24.161091 -109.574,36.242188 -144.33203,36.242188 H 13.988281 C 4.6629373,60.261719 0,64.922742 0,74.248047 0,84.421159 4.6629372,89.507812 13.988281,89.507812 h 66.125 v 39.421878 c -14.411884,0 -31.366815,2.96608 -50.865234,8.90039 C 9.7496278,143.76439 0,157.75323 0,179.79492 c 0,7.62985 2.1186527,13.98768 6.3574219,19.07422 16.9551501,0 29.2490621,17.37865 36.8789061,52.13672 4.238769,18.65065 8.476038,29.67147 12.714844,33.0625 L 3.8144531,365.45312 33.0625,383.25586 80.113281,309.50195 v 455.2461 C 179.52271,959.33669 376.27943,1000 530.27148,1000 v -39.4668 c -166.98676,0 -294.8213,-55.74736 -382.76171,-158.9082 H 530.27148 V 273.89453 c -4.71449,-0.0186 -9.37544,-0.86627 -13.98632,-2.54297 -9.32531,-3.39101 -15.89603,-16.10675 -19.71094,-38.14844 -3.8149,-22.04169 -15.04854,-41.11523 -33.69922,-57.22265 16.95515,-10.17306 39.42045,-15.25977 67.39648,-15.25977 V 74.248047 C 502.9813,15.119398 421.58518,0.07617187 372.64844,0.07617187 Z M 370.72266,30.318359 c 33.61912,-0.19933 128.48288,7.427064 141.74609,98.611331 -15.25965,0 -32.63831,2.96608 -52.13672,8.90039 -19.49842,5.93431 -29.24805,19.92315 -29.24805,41.96484 0,7.62985 2.12057,13.98768 6.35938,19.07422 16.95511,0 28.18682,12.292 33.69726,36.87695 5.51041,24.58496 10.80995,40.69243 15.89649,48.32227 l -52.13672,80.11328 29.24609,19.07422 48.32227,-72.48242 v 453.97461 l -104.27344,-1.27149 v -85.20117 c 0,-11.8686 7.20531,-17.80273 21.61719,-17.80273 16.95515,0 25.43359,-5.08671 25.43359,-15.25977 v -78.83984 c 0,-16.10742 -18.65178,-24.16211 -55.95312,-24.16211 -39.84457,0 -64.42857,19.71012 -73.75391,59.13086 -9.32534,39.42069 -36.24276,59.13086 -80.75,59.13086 -44.50728,0 -66.75976,34.33553 -66.75976,103.0039 l -58.4961,1.27149 V 310.77344 l 45.7793,73.7539 30.51953,-19.07422 -53.4082,-81.38476 c 5.08654,-1.69553 9.74947,-12.71635 13.98828,-33.0625 7.6298,-34.75807 20.34552,-52.13672 38.14844,-52.13672 4.23878,-5.08654 6.35742,-11.44437 6.35742,-19.07422 0,-22.04169 -9.53682,-36.03053 -28.61133,-41.96484 -19.07456,-5.93432 -36.66606,-8.90039 -52.77344,-8.90039 V 89.507812 c 34.75803,0 82.65675,-12.079144 143.69532,-36.240234 38.14907,-15.100682 73.98122,-22.750517 107.49414,-22.949219 z M 100.45898,160.7207 c 27.97599,0 50.86505,5.0867 68.66797,15.25977 -19.49842,16.10742 -30.94295,35.18097 -34.33398,57.22265 -3.39104,22.0417 -9.95977,34.97026 -19.70899,38.78516 -9.74921,3.8149 -19.498831,3.8149 -29.248042,0 -9.749212,-3.8149 -16.5308,-16.74347 -20.345704,-38.78516 C 61.675331,211.16143 50.441704,192.08789 31.791016,175.98047 48.746167,165.80741 71.635223,160.7207 100.45898,160.7207 Z m 307.73633,406.92383 c 11.02083,0 16.53125,4.66104 16.53125,13.98633 v 40.69336 c 0,8.47746 -7.20535,12.7168 -21.61718,12.7168 -16.95516,0 -25.4336,14.41062 -25.4336,43.23437 v 86.47266 H 213.63477 c 0,-53.40876 11.86823,-80.11328 35.60546,-80.11328 24.58496,0 45.77912,-5.08671 63.58204,-15.25977 17.80292,-10.17306 31.79176,-29.67234 41.96484,-58.49609 10.17307,-28.82374 27.97547,-43.23438 53.4082,-43.23438 z"
     sodipodi:nodetypes="ssssssccssccccccccccccsscccsscsscsccccccsssssssccccccccssccssscsssscssssssccssss" />
  <path
     d="m 530.27234,802.32717 89.01454,77.56983 -89.01454,80.11309 -90.2862,-80.11309 z m 0,27.97598 -58.49526,49.59385 58.49526,52.13711 57.2236,-52.13711 z"
     style="fill:#000000;stroke:none;stroke-width:1"
     id="path1-2" />
  <use
     x="0"
     y="0"
     xlink:href="#path1"
     id="use1"
     transform="matrix(-1,0,0,1,1060.5438,0)" />
</svg>
