<?xml version="1.0" encoding="UTF-8" standalone="no"?>
<svg
   width="1100"
   height="1000"
   version="1.1"
   id="svg1"
   sodipodi:docname="S61.svg"
   inkscape:version="1.4.2 (f4327f4, 2025-05-13)"
   xmlns:inkscape="http://www.inkscape.org/namespaces/inkscape"
   xmlns:sodipodi="http://sodipodi.sourceforge.net/DTD/sodipodi-0.dtd"
   xmlns:xlink="http://www.w3.org/1999/xlink"
   xmlns="http://www.w3.org/2000/svg"
   xmlns:svg="http://www.w3.org/2000/svg">
  <defs
     id="defs1" />
  <sodipodi:namedview
     id="namedview1"
     pagecolor="#ffffff"
     bordercolor="#666666"
     borderopacity="1.0"
     inkscape:showpageshadow="2"
     inkscape:pageopacity="0.0"
     inkscape:pagecheckerboard="0"
     inkscape:deskcolor="#d1d1d1"
     showguides="true"
     inkscape:zoom="0.5338656"
     inkscape:cx="429.88348"
     inkscape:cy="1059.2554"
     inkscape:window-width="1680"
     inkscape:window-height="998"
     inkscape:window-x="-8"
     inkscape:window-y="-8"
     inkscape:window-maximized="1"
     inkscape:current-layer="svg1">
    <sodipodi:guide
       position="298.67426,888.39283"
       orientation="1,0"
       id="guide5"
       inkscape:locked="false" />
    <sodipodi:guide
       position="299.2323,466.51592"
       orientation="0,-1"
       id="guide6"
       inkscape:locked="false" />
    <sodipodi:guide
       position="299.2323,445.31006"
       orientation="0,-1"
       id="guide7"
       inkscape:locked="false" />
    <sodipodi:guide
       position="299.2323,348.21667"
       orientation="0,-1"
       id="guide8"
       inkscape:locked="false" />
    <sodipodi:guide
       position="299.2323,327.01071"
       orientation="0,-1"
       id="guide9"
       inkscape:locked="false" />
    <sodipodi:guide
       position="477.2457,293.52679"
       orientation="1,0"
       id="guide10"
       inkscape:locked="false" />
    <sodipodi:guide
       position="655.81698,894.20533"
       orientation="1,0"
       id="guide11"
       inkscape:locked="false" />
    <sodipodi:guide
       position="125.68322,228.79451"
       orientation="0,-1"
       id="guide13"
       inkscape:locked="false" />
    <sodipodi:guide
       position="125.68322,237.72343"
       orientation="1,0"
       id="guide15"
       inkscape:locked="false" />
    <sodipodi:guide
       position="829.92433,237.72348"
       orientation="1,0"
       id="guide16"
       inkscape:locked="false" />
    <sodipodi:guide
       position="158.04925,206.47337"
       orientation="0,-1"
       id="guide19"
       inkscape:locked="false" />
  </sodipodi:namedview>
  <path
     style="fill:#000000;stroke:none;stroke-width:0.999998"
     d="m 273.0046,224.33037 h 4.46432 v -60.26785 c 0,-29.01788 -12.64881,-43.52682 -37.94643,-43.52682 v -3.34819 c 26.78573,0 40.17859,15.625 40.17859,46.87501 v 60.26785 h 4.46426 v -60.26785 c 0,-33.48216 -11.53275,-50.22324 -34.59824,-50.22324 -11.16072,0 -19.71726,2.97619 -25.66961,8.92858 33.48213,0 49.85116,13.76489 49.10711,41.29466 z m 60.26785,43.52677 -2.2321,-6.69643 h -63.61609 l -3.34824,6.69643 z m -4.46426,-14.50893 -2.23211,-6.69642 H 270.7725 l -2.23216,6.69642 z M 325.46,238.83929 v -7.8125 h -52.4554 l -1.11602,7.8125 z m 0,-74.77677 c -0.74405,-27.52977 15.62498,-41.29466 49.10711,-41.29466 -6.6964,-5.95239 -15.25293,-8.92858 -25.6696,-8.92858 -23.0655,0 -34.59825,16.74108 -34.59825,50.22324 v 60.26785 h 3.34824 v -60.26785 c 0,-31.25001 13.76487,-46.87501 41.29461,-46.87501 v 3.34819 c -25.29761,0 -37.94642,14.50894 -37.94642,43.52682 v 60.26785 H 325.46 Z M 300.90642,128.3482 v 95.98217 h 6.69642 v -60.26785 c 0,-21.57739 2.23214,-36.08633 6.69642,-43.52682 -4.46428,-5.95235 -9.67261,-8.92853 -15.625,-8.92853 -5.20833,0 -10.04464,2.97618 -14.50892,8.92853 4.46428,7.44049 6.69642,21.94943 6.69642,43.52682 v 60.26785 h 5.58034 V 128.3482 Z m 357.14289,0 v 95.98217 h 6.69642 v -60.26785 c 0,-21.57739 1.86013,-36.08633 5.58039,-43.52682 -3.72026,-5.95235 -8.55658,-8.92853 -14.50897,-8.92853 -5.95235,0 -11.16069,2.97618 -15.62501,8.92853 4.46432,7.44049 6.69648,21.94943 6.69648,43.52682 v 60.26785 h 6.69642 V 128.3482 Z m -27.90177,95.98217 h 3.34841 v -60.26785 c 0,-29.01788 -12.64881,-43.52682 -37.94643,-43.52682 v -3.34819 c 27.52974,0 41.29461,15.625 41.29461,46.87501 v 60.26785 h 3.3484 v -60.26785 c 0,-33.48216 -11.1607,-50.22324 -33.4821,-50.22324 -11.16072,0 -20.08928,2.97619 -26.78569,8.92858 33.48213,0 50.22319,13.76489 50.22319,41.29466 z m 52.45535,14.50892 -1.11614,-7.8125 h -51.33927 l -1.11613,7.8125 z m 3.3484,14.50892 -2.23227,-6.69642 h -55.80353 l -2.23227,6.69642 z m 4.46454,14.50893 -2.23227,-6.69643 h -64.73211 l -2.23227,6.69643 z m -8.92902,-103.79462 c 0,-27.52977 16.36904,-41.29466 49.10711,-41.29466 -5.95239,-5.95239 -14.50892,-8.92858 -25.66961,-8.92858 -23.06546,0 -34.59819,16.74108 -34.59819,50.22324 v 60.26785 h 4.46399 v -60.26785 c 0,-31.25001 13.76489,-46.87501 41.29466,-46.87501 v 3.34819 c -26.04163,0 -39.06245,14.50894 -39.06245,43.52682 v 60.26785 h 4.46454 z m -62.50001,112.7232 c -18.60117,57.29167 -31.62199,130.58036 -39.06245,219.86605 -3.72027,54.31549 -5.20845,114.21133 -4.46454,179.68752 34.97023,15.625 63.05802,19.71727 84.26336,12.27682 21.20539,-7.44049 46.68903,-10.04466 76.45092,-7.8125 0,-68.4524 -1.86013,-129.83635 -5.5804,-184.15184 -6.69625,-89.28569 -19.34499,-162.57438 -37.9462,-219.86605 z m 186.38394,-49.10711 c 0,-18.60121 -11.90477,-27.90182 -35.71432,-27.90182 -30.50591,0 -45.75887,25.66964 -45.75887,77.00893 19.34523,120.53573 29.01785,235.49111 29.01785,344.86612 v 61.38387 l 44.64284,13.3929 V 620.5357 c -5.20833,-150.29759 -18.60119,-270.83329 -40.17858,-361.60709 34.22621,0 50.22324,-10.41667 47.99108,-31.25 z M 479.47786,128.3482 v 95.98217 h 6.69642 v -60.26785 c 0,-21.57739 2.23214,-36.08633 6.69643,-43.52682 -4.46429,-5.95235 -9.67262,-8.92853 -15.62501,-8.92853 -5.95235,0 -10.78865,2.97618 -14.50892,8.92853 3.72027,7.44049 5.5804,21.94943 5.5804,43.52682 v 60.26785 h 6.69642 V 128.3482 Z m -27.90176,95.98217 h 3.34818 v -60.26785 c 0,-29.01788 -12.64881,-43.52682 -37.94642,-43.52682 v -3.34819 c 27.52977,0 41.29466,15.625 41.29466,46.87501 v 60.26785 h 4.46426 v -60.26785 c 0,-33.48216 -11.53275,-50.22324 -34.59824,-50.22324 -11.16072,0 -19.71726,2.97619 -25.66961,8.92858 32.73811,0 49.10717,13.76489 49.10717,41.29466 z m 52.45535,14.50892 -1.11608,-7.8125 H 451.5761 l -1.11608,7.8125 z m 3.34818,14.50892 -2.2321,-6.69642 h -55.80359 l -2.2321,6.69642 z m 4.46432,14.50893 -2.23216,-6.69643 h -64.73217 l -2.23216,6.69643 z m -8.92858,-103.79462 c 0,-27.52977 16.36905,-41.29466 49.10716,-41.29466 -5.95239,-5.95239 -14.50894,-8.92858 -25.66966,-8.92858 -22.32144,0 -33.48216,16.74108 -33.48216,50.22324 v 60.26785 h 3.34823 v -60.26785 c 0.74405,-31.25001 14.50894,-46.87501 41.29467,-46.87501 v 3.34819 c -25.29762,0 -37.94643,14.50894 -37.94643,43.52682 v 60.26785 h 3.34819 z M 387.95996,175.2232 v 0 c -13.39285,21.57739 -20.08927,55.43157 -20.08927,101.56252 v 63.61608 c 8.18451,26.78573 14.88093,75.14882 20.08927,145.08928 5.20837,-69.94046 11.90481,-118.30355 20.08932,-145.08928 v -63.61608 c 0,-46.13095 -6.69644,-79.98513 -20.08932,-101.56252 z m 179.68757,0 h -1.11608 c -13.39284,21.57739 -20.08926,55.43157 -20.08926,101.56252 v 63.61608 c 8.18451,26.78573 14.88093,75.14882 20.08926,145.08928 4.46428,-69.94046 11.53273,-118.30355 21.20535,-145.08928 v -63.61608 c 0,-46.13095 -6.69642,-79.98513 -20.08927,-101.56252 z M 248.45107,696.42861 c 71.42857,31.99402 116.07142,47.99103 133.92854,47.99103 19.34523,0 29.01785,8.55657 29.01785,25.66971 v 30.13387 l 20.08932,-4.46454 v -25.6696 c 0,-29.76194 -17.11311,-44.64291 -51.33933,-44.64291 -34.97023,0 -61.56991,-5.02231 -79.79904,-15.06693 -18.22921,-10.04447 -35.52832,-14.69468 -51.89734,-13.95063 z M 14.076046,676.33929 v 2.23227 c 18.601177,43.89879 48.363091,65.84819 89.285744,65.84819 41.66664,0 74.40473,-3.3482 98.21428,-10.04461 -20.08929,-4.46428 -41.48067,-4.09223 -64.17416,1.11614 -22.69341,5.20837 -48.921086,1.11612 -78.683018,-12.27676 29.761932,11.16072 60.267878,12.83474 91.517848,5.02205 31.25001,-7.8125 55.43156,-7.06841 72.54467,2.23227 17.11311,9.30057 30.50597,13.95085 40.17859,13.95085 h 16.74108 c -46.87501,-23.80955 -77.56698,-35.52832 -92.07592,-35.15631 -14.50894,0.37205 -28.08781,3.16224 -40.7366,8.37057 -12.64883,5.20833 -27.15775,7.8125 -43.52677,7.8125 -29.761932,0 -58.779794,-16.36905 -87.053585,-49.10716 z M 447.11184,794.64288 c 3.72023,-0.74409 11.16068,-1.11613 22.32136,-1.11613 v -54.68757 c -11.16068,-28.27379 -30.50593,-42.41068 -58.03574,-42.41068 -27.52974,0 -53.94342,3.72025 -79.24103,11.16074 0,2.97636 15.99701,4.46454 47.99102,4.46454 44.64293,0 66.96439,19.34525 66.96439,58.03574 z M 191.53141,700.89287 c 25.29761,2.23227 49.10714,10.04477 71.42859,23.4375 22.3214,13.39285 45.75888,20.08927 70.31245,20.08927 -10.41663,-2.23213 -28.08775,-10.04463 -53.01336,-23.43751 -24.92557,-13.39284 -54.50147,-20.08926 -88.72768,-20.08926 z m 571.42859,0 c -33.48213,0 -62.87202,6.69642 -88.16967,20.08926 -25.29761,13.39288 -43.15474,21.20538 -53.57137,23.43751 24.55357,0 47.99107,-6.69642 70.31251,-20.08927 22.32141,-13.39284 46.13092,-21.20534 71.42853,-23.4375 z m -254.46424,69.19648 c 0,-38.69049 21.9494,-58.03574 65.84819,-58.03574 31.99402,0 47.99103,-1.48818 47.99103,-4.46454 -25.29761,-7.44049 -51.33926,-11.16074 -78.12495,-11.16074 -28.27383,0 -47.99108,14.1369 -59.15177,42.41069 v 54.68756 c 11.16069,0 18.97319,0.37204 23.4375,1.11613 z m 430.80358,-93.75006 c -29.01788,32.73811 -58.03574,49.10716 -87.05359,49.10716 -17.11311,0 -31.99407,-2.60417 -44.6429,-7.8125 -12.64879,-5.20833 -22.69342,-8.18453 -30.13387,-8.92858 -21.57739,0 -55.8036,11.90476 -102.67865,35.71427 h 16.74114 c 9.67261,0 23.06546,-4.65029 40.17853,-13.95086 17.11311,-9.30061 41.48067,-10.0447 73.10268,-2.23227 31.62205,7.8125 61.94199,6.13848 90.95984,-5.02205 -29.01785,13.39288 -55.05952,17.48513 -78.12501,12.27676 -23.06546,-5.20829 -44.64283,-5.58034 -64.73211,-1.11613 23.80951,6.6964 56.5476,10.0446 98.21427,10.0446 40.92262,0 70.68454,-21.9494 89.28575,-65.84819 v -2.23227 z m -210.93753,18.97324 c -31.25,0 -55.98959,5.02233 -74.21876,15.06699 -18.22917,10.04462 -44.82887,15.06693 -79.7991,15.06693 -33.48212,0 -50.22318,14.88097 -50.22318,44.6429 v 25.66961 l 20.08926,4.46454 v -30.13387 c 0,-17.11315 9.30059,-25.66972 27.90177,-25.66972 17.85716,0 44.64288,-7.9985 80.35716,-23.99551 35.71429,-15.99701 61.0119,-24.36754 75.89285,-25.11159 z M 53.138551,435.26789 c 1.488106,0 2.976193,0.37201 4.464262,1.11603 1.488106,0.74405 1.860132,2.23216 1.116079,4.46432 -0.744053,2.23215 -2.23214,3.34823 -4.464262,3.34823 -2.232159,0 -3.720265,-1.11608 -4.464318,-3.34823 0,-2.23216 1.11608,-4.09228 3.348239,-5.58035 z m 40.178584,-1.11608 -17.857161,8.92858 c -15.625002,5.95239 -24.92559,6.32441 -27.901765,1.11608 -2.976212,-5.20837 -1.116098,-8.92861 5.580342,-11.16074 5.952387,-1.4881 9.300607,-0.37204 10.04466,3.34819 0.744053,3.72026 -0.744054,5.95242 -4.464319,6.69647 1.488106,-1.4881 2.418163,-2.9762 2.790171,-4.46431 0.372045,-1.48811 -0.185985,-2.60417 -1.674091,-3.34819 -1.488106,-0.74405 -3.90625,-0.55805 -7.254433,0.55802 -3.34822,1.11606 -4.836326,2.79017 -4.464318,5.02233 0.372045,2.23215 2.232158,3.72026 5.580341,4.46431 3.34822,0.74402 10.602691,-0.74408 21.763412,-4.46431 z m -21.205344,0 c -2.976212,-3.72026 -8.556572,-4.83634 -16.741081,-3.34823 -8.928599,2.23215 -13.392899,5.9524 -13.392899,11.16073 0,5.95239 3.720247,9.48662 11.16074,10.60268 7.440493,1.11606 13.020853,0.93005 16.741081,-0.55802 17.113108,-8.92859 33.110138,-11.16073 47.991088,-6.69642 2.23212,2.97614 1.86009,4.46421 -1.11608,4.46421 -13.39288,0 -23.437524,1.48811 -30.133927,4.46432 -6.69644,2.97617 -12.648827,12.09076 -17.857161,27.34375 -5.208334,15.25299 -7.812501,42.96877 -7.812501,83.14734 0,40.17857 0.186004,72.54463 0.558012,97.09819 0.372045,24.55361 26.971764,36.83041 79.799157,36.83041 v -14.50893 c -40.92262,0 -61.383928,-7.8125 -61.383928,-23.4375 0,-15.625 6.696423,-40.17858 20.089268,-73.66075 8.18451,-19.34523 18.04314,-38.50445 29.57591,-57.47767 11.53273,-18.97323 15.06695,-38.13245 10.60267,-57.47768 -4.46432,-19.34523 -12.83487,-31.25001 -25.11165,-35.71432 -12.27678,-4.46428 -26.599681,-5.20832 -42.968699,-2.23211 z m 809.151799,0 c -16.36901,-2.97621 -30.69193,-2.23217 -42.96875,2.23211 -12.27678,4.46431 -20.64731,16.36909 -25.1116,35.71432 -4.46428,19.34523 -0.93005,38.50445 10.60268,57.47768 11.53273,18.97322 21.39136,38.13244 29.57591,57.47767 13.39284,33.48217 20.08926,58.03575 20.08926,73.66075 0,15.625 -20.08928,23.4375 -60.26785,23.4375 v 14.50893 c 52.08331,0 78.311,-12.2768 78.68308,-36.83041 0.37205,-24.55356 0.55807,-56.91962 0.55807,-97.09819 0,-40.17857 -2.60415,-67.89435 -7.81245,-83.14734 -5.20833,-15.25299 -11.16072,-24.36758 -17.85716,-27.34375 -6.6964,-2.97621 -16.74106,-4.46432 -30.13398,-4.46432 -2.97599,0 -3.34803,-1.48807 -1.11613,-4.46421 15.625,-4.46431 31.99405,-2.23217 49.10716,6.69642 2.97636,1.48807 8.18468,1.67408 15.62495,0.55802 7.44053,-1.11606 11.16079,-4.65029 11.16079,-10.60268 0,-5.20833 -4.09227,-8.92858 -12.27682,-11.16073 -8.18454,-1.48811 -14.13693,-0.37203 -17.85716,3.34823 z m -20.08926,0 17.8571,6.69643 c 11.16073,3.72023 18.22918,5.20833 21.20535,4.46431 2.97636,-0.74405 4.83647,-2.23216 5.58034,-4.46431 0.74409,-2.23216 -0.74409,-3.90627 -4.46454,-5.02233 -3.72023,-1.11607 -6.32438,-1.30207 -7.81245,-0.55802 -1.48818,0.74402 -2.04625,1.86008 -1.6742,3.34819 0.37205,1.48811 1.30216,2.97621 2.79034,4.46431 -3.72023,-0.74405 -5.20822,-2.97621 -4.46398,-6.69647 0.74409,-3.72023 4.09229,-4.83629 10.0446,-3.34819 7.44053,2.23213 9.48668,5.95237 6.13846,11.16074 -3.34833,5.20833 -12.83499,4.83631 -28.45999,-1.11608 l -17.85717,-8.92858 z m 39.06245,1.11608 c 2.23227,1.48807 3.3484,3.34819 3.3484,5.58035 0,2.23215 -1.30216,3.34823 -3.90647,3.34823 -2.60431,0 -4.27852,-1.11608 -5.02261,-3.34823 -0.74409,-2.23216 -0.18602,-3.72027 1.67421,-4.46432 1.86022,-0.74402 3.16238,-1.11603 3.90647,-1.11603 z m -94.86604,554.68746 c 23.80951,0 35.52827,-8.55654 35.15626,-25.66961 -0.37205,-17.11311 0.74409,-35.15627 3.3484,-54.12949 2.60432,-18.97319 1.30216,-33.66811 -3.90647,-44.08478 -5.2083,-10.41667 -15.62495,-17.11309 -31.24995,-20.08927 -2.23227,-0.74409 -2.60431,-1.86022 -1.11613,-3.3484 11.16075,-2.97636 22.32147,-1.48818 33.48216,4.46454 2.97636,0.74409 7.06863,0.93011 12.27682,0.55807 5.20833,-0.37205 7.8125,-2.79021 7.8125,-7.25449 0,-4.46428 -2.97619,-7.06845 -8.92858,-7.8125 -5.95239,-1.48818 -10.04466,-0.74409 -12.27682,2.23227 -11.90477,-2.23227 -21.76341,-1.86023 -29.57591,1.11613 -7.8125,2.97636 -13.20682,11.34689 -16.18296,25.1116 -2.97636,13.76489 -0.37221,27.34377 7.81244,40.73665 8.18455,13.39284 14.88097,25.29758 20.08927,35.71421 5.20837,10.41667 7.81256,17.85716 7.81256,22.32148 0,12.64879 -8.18453,18.97318 -24.55359,18.97318 -24.55356,0 -36.83034,-13.39286 -36.83034,-40.17858 0,34.22618 12.27678,51.33927 36.83034,51.33927 z m 20.08927,-156.24996 12.27682,5.58034 c 7.44045,2.97636 12.46276,4.09249 15.06693,3.3484 2.60431,-0.74409 3.90647,-1.86022 3.90647,-3.3484 0,-1.48818 -1.11613,-2.79034 -3.3484,-3.90648 -2.23227,-1.11613 -3.90648,-1.30215 -5.02261,-0.55806 -1.11613,0.74409 -1.48818,1.6742 -1.11613,2.79033 0.37204,1.11614 0.93011,2.04625 1.6742,2.79034 -2.23227,0 -3.16239,-1.30216 -2.79034,-3.90647 0.37205,-2.60431 2.79021,-3.53443 7.25449,-2.79034 5.20833,2.23227 6.51031,5.02244 3.90592,8.37051 -2.60395,3.34841 -9.11435,2.79034 -19.5312,-1.6742 l -12.27682,-5.58034 z m 27.90182,2.23227 c 1.48818,0.74409 2.23227,1.86022 2.23227,3.3484 0,1.48818 -0.93011,2.23227 -2.79034,2.23227 -1.86023,0 -2.97636,-0.74409 -3.3484,-2.23227 -0.37205,-1.48818 0,-2.60431 1.11613,-3.3484 1.11613,-0.74409 2.04625,-0.74409 2.79034,0 z M 477.2457,706.47332 c 16.36906,-20.8333 43.52681,-30.87794 81.47325,-30.13392 0,-65.47619 -2.23214,-125.37203 -6.69642,-179.68752 -6.69644,-89.28577 -19.34525,-162.57449 -37.94642,-219.86616 h -72.54467 c -20.08932,57.29167 -33.11016,130.58036 -39.06251,219.86605 -4.46428,54.31549 -6.69642,115.32741 -6.69642,183.03576 38.69046,-2.97637 65.84819,5.95219 81.47319,26.78568 z M 810.95109,534.5983 c 1.48818,28.27383 2.23227,56.91967 2.23227,85.93751 v 51.33933 c 19.34527,0 32.5521,-2.41816 39.62051,-7.25449 7.06845,-4.83629 7.06845,-18.60118 0,-41.29467 -7.06841,-22.69341 -21.0193,-52.26931 -41.85267,-88.72768 z M 144.6564,532.36609 c -1.48811,4.46428 -7.44049,15.06695 -17.85716,31.80801 -10.41663,16.7411 -18.97316,36.45836 -25.6696,59.15177 -6.696443,22.69349 -6.696443,36.45838 0,41.29467 6.69644,4.83632 20.0893,7.25448 40.17858,7.25448 v -50.22318 c 0,-52.08338 1.11606,-81.8453 3.34818,-89.28575 z M 98.897477,420.75897 c 11.904773,0.74401 22.693473,3.53418 32.366083,8.37051 9.67261,4.83629 15.62498,12.46279 17.85711,22.87949 5.95239,-62.50004 15.25299,-123.13993 27.90182,-181.91968 -29.01789,0 -43.52683,-14.13689 -43.52683,-42.41068 0,-27.52978 17.11311,-41.29467 51.33933,-41.29467 40.92261,0 61.38392,34.59821 61.38392,103.79462 7.44049,-20.08929 13.02086,-42.03868 16.74109,-65.84819 v -60.26785 c 0,-22.32144 -14.50894,-33.48216 -43.52683,-33.48216 -6.6964,0 -8.18449,-3.34822 -4.46426,-10.04466 8.18451,-10.41667 19.71724,-15.625 34.59819,-15.625 8.9286,0 18.97326,2.60417 30.13398,7.8125 5.95239,-5.95235 12.27678,-8.92853 18.97318,-8.92853 7.44049,0 13.76491,2.97618 18.97324,8.92853 11.90474,-5.20833 22.32141,-7.8125 31.25001,-7.8125 14.88091,0 26.04161,5.20833 33.4821,15.625 3.72023,6.69644 2.60417,10.04466 -3.34818,10.04466 -29.76193,0 -44.6429,11.16072 -44.6429,33.48216 v 60.26785 c 3.72027,23.80951 9.67265,45.7589 17.85716,65.84819 v -42.41069 c 0,-26.78572 11.90476,-63.24406 35.71427,-109.37501 24.5536,46.13095 36.8304,82.21726 36.8304,108.25893 v 43.52677 c 7.44049,-20.08929 13.02085,-42.03868 16.74108,-65.84819 v -60.26785 c 0,-22.32144 -14.50894,-33.48216 -43.52682,-33.48216 -6.69644,0 -8.18453,-3.34822 -4.46427,-10.04466 8.18451,-10.41667 19.71724,-15.625 34.59819,-15.625 8.18455,0 18.22921,2.60417 30.13398,7.8125 5.20833,-5.95235 11.53273,-8.92853 18.97318,-8.92853 7.44049,0 14.13693,2.97618 20.08932,8.92853 11.16073,-5.20833 20.83334,-7.8125 29.01785,-7.8125 14.88095,0 26.41369,5.20833 34.59824,15.625 3.72023,6.69644 2.23205,10.04466 -4.46454,10.04466 -29.01792,0 -43.52688,11.16072 -43.52688,33.48216 v 60.26785 c 3.72045,23.80951 9.30093,45.7589 16.74142,65.84819 v -42.41069 c 0,-26.78572 12.27678,-63.24406 36.83034,-109.37501 24.55357,46.13095 36.83035,82.58929 36.83035,109.37501 v 42.41069 c 7.44049,-20.08929 13.02085,-42.03868 16.74108,-65.84819 v -60.26785 c 0,-22.32144 -14.88095,-33.48216 -44.64285,-33.48216 -5.95239,0 -7.06852,-3.34822 -3.3484,-10.04466 7.44045,-10.41667 18.9732,-15.625 34.59824,-15.625 8.18451,0 18.22913,2.60417 30.13387,7.8125 5.20837,-5.95235 11.53279,-8.92853 18.97324,-8.92853 6.69644,0 13.02083,2.97618 18.97318,8.92853 11.90478,-5.20833 21.94944,-7.8125 30.13398,-7.8125 15.62501,0 27.15774,5.20833 34.59819,15.625 3.72027,6.69644 2.23209,10.04466 -4.46454,10.04466 -29.01785,0 -43.52677,11.16072 -43.52677,33.48216 v 60.26785 c 3.72023,23.80951 9.30057,45.7589 16.74103,65.84819 0,-69.19641 20.46131,-103.79462 61.38393,-103.79462 34.22621,0 51.33932,13.76489 51.33932,41.29467 0,28.27379 -14.50892,42.41068 -43.52677,42.41068 12.64879,58.03573 21.94938,118.3036 27.90177,180.80361 2.97651,-10.41667 9.11505,-17.85717 18.41562,-22.32148 9.30061,-4.46429 19.53125,-7.06844 30.69193,-7.81245 -14.29455,-1.42946 -35.71426,-15.54845 -35.71426,-44.6429 0,-22.58773 19.73116,-46.87501 48.22522,-46.87501 33.06293,0 45.52479,28.17261 45.52479,46.87501 0,35.99125 -28.66099,44.6429 -34.59824,44.6429 5.20837,0 11.7188,0.55803 19.5313,1.67409 7.81247,1.11606 13.95086,3.16218 18.41518,6.13836 4.46428,3.72026 6.69642,8.18456 6.69642,13.39289 0,5.95239 -3.34822,10.97471 -10.04466,15.06694 -6.69641,4.09227 -13.39285,5.76638 -20.08932,5.02233 11.16072,20.83333 16.18303,52.64139 15.06693,95.42416 -1.11613,42.78273 -1.11613,72.91666 0,90.40177 1.11613,17.48511 -3.53413,34.04015 -13.9508,49.66512 l 33.48211,-29.01784 c 5.20837,-6.69644 11.71879,-8.18462 19.53125,-4.46454 7.81247,3.72026 10.23063,9.67263 7.25449,17.8571 -20.08932,52.82743 -53.94349,79.24115 -101.56251,79.24115 -46.13095,0 -79.24107,-3.72025 -99.33035,-11.16074 16.36905,20.83333 24.55358,50.2232 24.55358,88.16961 v 101.56257 c 0,17.85709 9.30059,26.78563 27.90176,26.78563 10.41667,0 14.32292,-3.90623 11.71875,-11.7187 -2.60431,-7.81246 -10.23079,-21.94936 -22.87943,-42.41069 -12.64883,-20.46133 -16.7411,-38.31849 -12.27682,-53.57148 4.46428,-15.25295 10.04462,-24.55354 16.74103,-27.90176 6.69647,-3.34841 13.02089,-5.39454 18.97324,-6.13841 -2.23227,0.74409 -6.32453,-1.48805 -12.27677,-6.69642 -5.95239,-5.95239 -8.92858,-14.1369 -8.92858,-24.55353 0,-8.18455 3.16222,-15.43902 9.48665,-21.76341 6.32439,-6.32443 14.3229,-9.48665 23.99552,-9.48665 9.67261,0 17.48511,3.34822 23.4375,10.04466 5.95239,6.6964 8.92858,13.76487 8.92858,21.2054 0,10.41663 -2.97619,18.60114 -8.92858,24.55353 -5.95239,5.95239 -10.04466,8.18453 -12.27682,6.69642 11.90477,1.48818 19.34525,3.34829 22.32142,5.58034 3.72023,2.97636 5.58034,6.32458 5.58034,10.04466 0,3.72027 -2.41814,7.06849 -7.25443,10.04466 -4.83633,2.97636 -9.48661,4.09249 -13.95085,3.3484 8.92856,18.60121 11.71873,37.38841 8.37051,56.3616 -3.34803,18.97322 -5.02205,38.8765 -5.02205,59.70984 0,20.08928 -15.25298,30.13392 -45.75893,30.13392 -29.76189,0 -44.64284,-16.74106 -44.64284,-50.22319 V 838.16965 c 0,-37.94641 -9.30059,-65.47616 -27.90177,-82.58927 -40.1786,10.41667 -93.00599,12.64881 -158.48218,6.69642 -9.67265,0 -14.50898,4.83631 -14.50898,14.50892 v 26.78574 c 14.13693,4.46428 33.85421,16.74106 59.15183,36.83035 v 12.27676 c -34.97023,-33.48209 -82.21727,-50.22313 -141.7411,-50.22313 -59.52383,0 -106.39884,16.74104 -140.62501,50.22313 v -12.27676 c 24.55356,-20.08929 44.27083,-32.36607 59.15182,-36.83035 v -26.78574 c 0,-9.67261 -5.20835,-14.50892 -15.62506,-14.50892 -65.47637,5.95239 -118.30383,3.72025 -158.4824,-6.69642 -18.60117,17.11311 -27.90176,44.64286 -27.90176,82.58927 v 111.60717 c 0,33.48212 -14.88097,50.22318 -44.6429,50.22318 -30.50592,0 -45.75888,-10.04464 -45.75888,-30.13392 0,-20.83333 -1.4881,-40.73661 -4.464313,-59.70983 -2.976175,-18.97319 -0.372008,-37.76039 7.812503,-56.3616 -4.46428,0.74409 -8.928562,-0.37205 -13.392845,-3.34841 -4.464281,-2.97636 -6.696422,-6.32458 -6.696422,-10.04466 0,-3.72023 1.488088,-7.06845 4.464263,-10.04466 2.976212,-2.23227 10.416684,-4.09238 22.321424,-5.58034 -2.23212,1.48818 -6.32437,-0.74396 -12.27676,-6.69642 -5.95239,-5.95239 -8.928585,-14.1369 -8.928585,-24.55353 0,-7.44053 2.976195,-14.50899 8.928585,-21.2054 5.95239,-6.69644 14.13691,-10.04466 24.55358,-10.04466 8.92856,0 16.55504,3.16222 22.87943,9.48665 6.3244,6.3244 9.4866,13.57887 9.4866,21.76341 0,10.41663 -2.97619,18.60114 -8.92858,24.55353 -5.95235,5.20833 -10.04461,7.44047 -12.27677,6.69642 5.95239,0.74409 12.2768,2.79023 18.97324,6.13841 6.69641,3.34803 12.27675,12.64862 16.74103,27.90177 4.46431,15.25299 0.55806,33.11015 -11.71875,53.57148 -12.27679,20.46133 -19.90327,34.59822 -22.87944,42.41069 -2.97621,7.81246 0.74402,11.71869 11.16069,11.71869 18.60121,0 27.90182,-8.92854 27.90182,-26.78563 V 838.16965 c 0,-37.94641 8.18453,-67.33628 24.55358,-88.16962 -20.08929,7.44049 -52.82738,11.16074 -98.21428,11.16074 -48.363109,0 -82.217278,-26.41371 -101.5625075,-79.24114 -3.720265,-8.18447 -1.67414703,-14.13684 6.1383539,-17.85711 7.8125006,-3.72026 14.6949446,-2.23208 20.6473316,4.46454 l 27.901821,23.43751 C 48.302243,680.05983 44.768001,665.3649 45.884062,647.87979 c 1.116098,-17.48512 1.116098,-47.61904 0,-90.40177 -1.116061,-42.78296 3.906268,-74.59111 15.066989,-95.42444 -6.696439,0.74405 -13.206857,-0.93006 -19.531252,-5.02233 -6.324395,-4.09223 -9.486592,-9.11455 -9.486592,-15.06694 0,-5.20833 2.23214,-9.67263 6.696421,-13.39289 3.720228,-2.97618 9.486593,-5.0223 17.299094,-6.13836 7.812501,-1.11606 13.950891,-1.67409 18.415172,-1.67409 -8.661432,0 -34.598186,-13.07205 -34.598186,-44.6429 0,-24.10786 18.52459,-46.87501 46.875005,-46.87501 31.587597,0 46.874947,24.8138 46.874947,46.87501 0,31.70716 -26.3067,45.67928 -34.598183,44.6429 z m 59.151773,274.55356 c 16.36905,-7.44046 30.87799,-11.53273 43.52682,-12.27682 v -61.38387 c 0,-109.37501 9.67261,-224.33039 29.01784,-344.86612 0,-51.33929 -15.25297,-77.00893 -45.75892,-77.00893 -23.0655,0 -34.97027,9.30061 -35.71432,27.90182 -2.23213,22.3214 13.7649,32.73807 47.99108,31.25 -21.57739,90.7738 -34.59822,211.68154 -39.0625,362.72323 z m 60.26784,-14.50892 c 29.76194,-2.23227 55.24558,0.37189 76.45092,7.8125 21.20538,7.44045 37.76044,8.18454 49.66518,2.23227 11.90477,-5.95239 23.80953,-9.30059 35.71426,-10.04461 0,-68.45239 -1.86011,-129.83634 -5.58034,-184.15184 -6.6964,-89.2858 -20.08926,-162.57454 -40.17858,-219.86621 H 262.96 c -18.60121,57.29167 -31.62205,130.58036 -39.06251,219.86605 -3.72027,54.31549 -5.5804,115.69944 -5.5804,184.15184 z M 102.24572,835.93754 c 0.74405,-0.74409 1.6741,-0.74409 2.79017,0 1.11606,0.74409 1.30206,1.86023 0.55801,3.34841 -0.74405,1.48818 -2.04614,2.23227 -3.90625,2.23227 -1.860115,0 -2.790173,-0.74409 -2.790173,-2.23227 0,-1.48818 1.116083,-2.60432 3.348243,-3.34841 z m 27.90176,-1.11613 -13.39284,5.58034 c -10.41667,4.46428 -16.74108,5.02235 -18.973243,1.6742 -2.232122,-3.34803 -0.744014,-6.1382 4.464323,-8.37051 3.72023,-0.74409 5.95237,0.18603 6.69642,2.79034 0.74405,2.60431 -0.37203,3.90647 -3.34824,3.90647 0.74405,-0.74409 1.30208,-1.6742 1.67409,-2.79034 0.37205,-1.11613 4e-5,-2.04624 -1.11602,-2.79033 -1.1161,-0.74409 -2.79021,-0.55807 -5.02233,0.55806 -2.232162,1.11614 -3.16222,2.4183 -2.790175,3.90648 0.372008,1.48818 1.674095,2.60431 3.906255,3.3484 2.23212,0.74409 7.06843,-0.37204 14.50892,-3.3484 l 12.27676,-5.58035 z m 18.97319,155.13388 c 24.5536,0 36.8304,-17.11309 36.8304,-51.33927 0,26.78573 -12.2768,40.17859 -36.8304,40.17859 -16.36902,0 -24.55353,-6.3244 -24.55353,-18.97319 0,-4.46431 2.79017,-11.9048 8.37051,-22.32147 5.58038,-10.41663 12.46282,-22.32137 20.64733,-35.71422 8.18451,-13.39288 10.60266,-26.97176 7.25444,-40.73665 -3.34819,-13.76489 -8.92853,-22.13542 -16.74103,-25.11159 -7.8125,-2.97636 -17.67114,-3.34841 -29.57591,-1.11614 -2.23212,-2.97636 -5.95235,-3.72045 -11.16069,-2.23227 -6.696437,0.74409 -10.044655,3.34826 -10.044655,7.8125 0,4.46429 2.604168,6.88245 7.812505,7.25449 5.20833,0.37205 9.30059,0.18603 12.27676,-0.55806 11.16072,-5.95239 22.32144,-7.44057 33.48216,-4.46455 1.48807,1.48819 1.11605,2.60432 -1.11608,3.34841 -15.625,2.97636 -26.04167,9.67278 -31.25,20.08926 -5.20833,10.41667 -6.51042,25.1116 -3.90625,44.08478 2.60417,18.97323 3.90625,37.01639 3.90625,54.1295 0,17.11307 11.53273,25.6696 34.59819,25.6696 z"
     id="path1"
     sodipodi:nodetypes="ccsccsccssccccccccccccccccccccssccsccsccccccscscscccccccscscsccccccsccsccssccccccccccccccccccscssccsccsccscccscccccscsccccccccscscsccccccsccsccsscsccccccccccccccccscsscccccsccsssscccssccscccsccssccssccccscsccsscssscccccscssccscsccscscsscscccscssccssscscsccccsssccssscccsssccccscscsssssccccssccsssssccscsssccssscsccsssssccssccccscssscscsccccssssccssccccssccsssssscccccssssscsccccccsssscsccccccsssscsssscssscsccsccssccsscscscscssccscsccsscscscscssccscsccsscscscscssccssccscssscscsscssccscscsssssssccssssssccsscsssssccscccscccsccssssscssccssssssccssssssscscsccsscsscscssscccscsccccccscccccccsssscccscscssssscccccssssscccsscccssscc" />
  <ellipse
     style="fill:#f9f06b;fill-rule:evenodd;stroke-width:20;stroke-linecap:round;stroke-miterlimit:5"
     id="path4"
     cx="86.062645"
     cy="375.55804"
     rx="32.924095"
     ry="32.924091" />
  <use
     x="0"
     y="0"
     xlink:href="#path4"
     id="use6"
     transform="translate(780.13401)" />
  <circle
     style="fill:#1a5fb4;fill-rule:evenodd;stroke-width:20;stroke-linecap:round;stroke-miterlimit:5"
     id="path12"
     cx="298.67426"
     cy="52.897335"
     r="52.897335" />
  <circle
     style="fill:#f9f06b;fill-rule:evenodd;stroke-width:20;stroke-linecap:round;stroke-miterlimit:5"
     id="path13"
     cx="298.67426"
     cy="52.897335"
     r="36.97126" />
  <use
     x="0"
     y="0"
     xlink:href="#path12"
     id="use15"
     transform="translate(178.57144)" />
  <use
     x="0"
     y="0"
     xlink:href="#path13"
     id="use16"
     transform="translate(178.57144)" />
  <use
     x="0"
     y="0"
     xlink:href="#path12"
     id="use17"
     transform="translate(357.14272)" />
  <use
     x="0"
     y="0"
     xlink:href="#path13"
     id="use18"
     transform="translate(357.14272)" />
  <circle
     style="fill:#1a5fb4;fill-rule:evenodd;stroke-width:20;stroke-linecap:round;stroke-miterlimit:5"
     id="path9"
     cx="298.67426"
     cy="603.23669"
     r="69.752602" />
  <circle
     style="fill:#f9f06b;fill-rule:evenodd;stroke-width:20;stroke-linecap:round;stroke-miterlimit:5"
     id="path10"
     cx="298.67426"
     cy="603.23663"
     r="48.546696" />
  <use
     x="0"
     y="0"
     xlink:href="#path9"
     id="use10"
     transform="translate(178.57144)" />
  <use
     x="0"
     y="0"
     xlink:href="#path10"
     id="use11"
     transform="translate(178.57144)" />
  <use
     x="0"
     y="0"
     xlink:href="#path9"
     id="use12"
     transform="translate(357.14272)" />
  <use
     x="0"
     y="0"
     xlink:href="#path10"
     id="use13"
     transform="translate(357.14272)" />
  <circle
     style="fill:#f9f06b;fill-rule:evenodd;stroke-width:20;stroke-linecap:round;stroke-miterlimit:5"
     id="path15"
     cx="125.68322"
     cy="794.08496"
     r="22.87949" />
  <use
     x="0"
     y="0"
     xlink:href="#path15"
     id="use19"
     transform="translate(704.24111,1.8961262e-5)" />
</svg>
