<?xml version="1.0" encoding="UTF-8" standalone="no"?>
<svg
   width="1100"
   height="1000"
   version="1.1"
   id="svg1"
   sodipodi:docname="S84.svg"
   inkscape:version="1.4.2 (f4327f4, 2025-05-13)"
   xmlns:inkscape="http://www.inkscape.org/namespaces/inkscape"
   xmlns:sodipodi="http://sodipodi.sourceforge.net/DTD/sodipodi-0.dtd"
   xmlns="http://www.w3.org/2000/svg"
   xmlns:svg="http://www.w3.org/2000/svg">
  <defs
     id="defs1" />
  <sodipodi:namedview
     id="namedview1"
     pagecolor="#ffffff"
     bordercolor="#666666"
     borderopacity="1.0"
     inkscape:showpageshadow="2"
     inkscape:pageopacity="0.0"
     inkscape:pagecheckerboard="0"
     inkscape:deskcolor="#d1d1d1"
     showguides="true"
     inkscape:zoom="0.70710678"
     inkscape:cx="686.60068"
     inkscape:cy="412.24325"
     inkscape:window-width="1680"
     inkscape:window-height="998"
     inkscape:window-x="-8"
     inkscape:window-y="-8"
     inkscape:window-maximized="1"
     inkscape:current-layer="svg1">
    <sodipodi:guide
       position="337.77607,782.96241"
       orientation="-0.5,0.8660254"
       id="guide1"
       inkscape:locked="false"
       inkscape:label=""
       inkscape:color="rgb(0,134,229)" />
    <sodipodi:guide
       position="174.08203,502.8454"
       orientation="0,-1"
       id="guide2"
       inkscape:locked="false" />
    <sodipodi:guide
       position="175.08203,502.8454"
       orientation="-1,0"
       id="guide3"
       inkscape:locked="false"
       inkscape:label=""
       inkscape:color="rgb(0,134,229)" />
    <sodipodi:guide
       position="174.08203,499.19462"
       orientation="0,-1"
       id="guide4"
       inkscape:locked="false" />
    <sodipodi:guide
       position="221,668.1875"
       orientation="-0.8660254,0.5"
       id="guide5"
       inkscape:locked="false" />
  </sodipodi:namedview>
  <path
     id="path1"
     style="fill:#000000;stroke:none;stroke-width:1"
     d="m 500.55664,0 c -18.9099,8.342603 -30.59061,30.032867 -36.15234,64.515625 -32.25807,0 -51.16725,3.337552 -57.28516,12.236328 -6.67408,8.898777 -2.7809,16.129289 13.9043,18.910156 15.57286,2.780868 25.58389,13.348371 27.80859,32.814451 1.66852,20.02224 7.78614,32.70175 20.57813,37.70731 12.79199,5.00556 23.36005,8.89844 31.14648,8.89844 8.89877,0 18.90918,-3.89288 31.70117,-8.89844 12.23582,-5.00556 19.46578,-17.68507 20.57813,-37.70731 1.11235,-19.46608 10.01159,-30.033583 26.14062,-32.814451 C 595.1056,92.881242 600.66674,85.65073 594.54883,76.751953 588.43092,67.853177 568.96556,64.515625 537.26367,64.515625 531.70193,30.032867 520.57888,8.342603 500.55664,0 Z m 0,21.134766 c 12.23581,11.123471 18.3539,26.140329 21.13477,46.71875 -10.5673,4.449388 -16.68538,18.353041 -21.13477,43.380864 -3.89322,-25.027823 -11.68076,-38.931476 -22.24805,-43.380864 3.33704,-20.578421 11.12458,-35.595279 22.24805,-46.71875 z m 229.14258,39.488281 c -18.9099,0 -38.37619,12.235395 -58.39844,36.707031 -21.69077,-12.235818 -37.81942,-18.910156 -48.38672,-18.910156 -2.78086,0 -5.00578,0.557575 -7.23047,1.669922 -10.01113,4.449389 -9.4541,12.234968 3.33789,22.246096 12.79199,10.5673 15.0169,23.9158 7.23047,42.26953 -8.89877,17.24138 -8.89877,32.25739 0,43.38086 5.56174,7.78643 11.67851,12.7928 17.24024,17.24219 -43.38153,-22.24694 -90.65524,-31.14649 -142.93555,-31.14649 -60.06674,0 -115.12805,12.79187 -162.95898,41.71289 l -1.18555,0.77539 c -24.47163,14.46051 -45.53337,31.48306 -66.66797,53.17383 -63.39081,63.94688 -95.64892,139.00144 -95.66211,227.41016 v 3.65039 c 0.0144,91.7415 32.27245,166.61757 95.66211,229.45117 21.1346,21.1346 43.38189,40.04488 67.85352,53.94922 47.83093,28.36485 102.89224,41.71289 162.95898,41.71289 60.52414,0 114.22166,-13.28403 163.10509,-42.10907 -6.59456,3.93845 -11.92663,11.08993 -20.16954,21.53094 -8.89877,10.01112 -8.89877,25.02713 0,43.38086 8.34261,17.79755 5.56152,30.58942 -7.23047,41.71289 -12.79199,10.01113 -13.34707,18.35484 -3.33594,22.24805 2.22469,1.11235 4.44961,1.66797 7.23047,1.66797 10.5673,0 26.69595,-6.67434 48.38672,-18.91016 20.02225,24.47164 40.04368,36.70703 59.50976,36.70703 h 5.00586 c 12.23582,-17.79756 11.67964,-42.82592 0,-75.08398 27.2525,-15.57286 42.82665,-27.25106 43.38282,-37.81836 0.55618,-7.78643 -2.78146,-11.67969 -10.01172,-11.67969 -3.33704,0 -7.78741,1.11273 -12.79297,2.78125 -4.44939,1.66852 -8.89781,2.7793 -12.79102,2.7793 -10.5673,0 -19.46552,-5.56011 -27.25195,-16.68359 -9.45495,-15.01668 -20.58012,-22.80469 -32.25977,-22.80469 h -3.89257 c -13.90434,2.22469 -24.47093,5.00717 -31.70118,8.90039 23.35928,-13.90434 43.93721,-31.70282 64.51563,-52.28125 22.24695,-21.13459 39.48871,-43.38243 53.94922,-66.18555 -3.33704,7.78643 -6.67375,17.79888 -8.89844,29.47852 -2.22469,13.34817 6.11753,25.58356 22.80274,36.70703 16.12903,11.67965 21.134,25.02823 15.57226,40.04492 -5.00556,14.46051 -3.33675,21.13477 5.00586,21.13477 h 2.22461 c 10.5673,-1.11234 23.91589,-14.46039 40.04492,-41.71289 16.12904,6.11791 30.58887,9.45507 43.38086,9.45507 12.23582,0 22.80387,-3.33716 31.14649,-9.45507 2.22469,-21.1346 -11.68063,-43.93861 -38.37696,-66.18555 15.57286,-27.80868 22.24822,-46.16224 17.79883,-55.61719 -2.2247,-3.89322 -4.4496,-6.11719 -7.23047,-6.11719 -3.89321,0 -9.45631,3.89279 -15.57422,11.12305 -6.67408,7.78643 -13.90396,11.67969 -22.80273,11.67969 -6.11791,0 -12.23608,-1.66835 -18.91016,-4.44922 -10.01113,-5.00556 -18.90888,-7.23047 -26.69531,-7.23047 -6.67408,0 -12.23616,1.66882 -16.68555,5.00586 -5.00556,3.89321 -8.89928,8.89734 -12.23633,12.23438 21.69077,-39.48832 31.70267,-82.86895 31.14649,-126.80664 87.31925,26.14016 134.59303,136.26317 140.71094,328.69921 11.12347,5.00556 21.69199,7.78516 31.70312,7.78516 12.79207,0 24.47067,-3.33662 36.15037,-11.12305 -8.8988,-172.4138 -57.84135,-282.53626 -145.71678,-330.36718 97.88654,0 149.05458,63.96048 151.27928,191.32421 5.5617,1.66852 11.1239,2.78125 16.6856,2.78125 10.5673,0 21.1338,-3.33763 31.7011,-10.01171 -7.7864,-141.82425 -58.9553,-211.90235 -154.61715,-211.90235 10.56729,-3.89321 28.92141,-21.13413 53.94922,-50.61133 25.02783,-30.03337 20.57933,-59.51062 -10.5664,-88.43164 -15.01668,-13.90434 -30.03364,-21.13476 -44.49415,-21.13476 -15.57285,0 -31.14495,8.34167 -45.60546,24.4707 -28.92102,31.70189 -49.50089,61.73671 -64.51758,90.10156 -7.78643,-48.94327 -26.69663,-92.32613 -56.17383,-131.81445 4.44939,5.56173 11.12419,10.5681 19.4668,17.24219 5.56173,3.89321 11.67989,6.11718 18.91015,6.11719 7.23025,0 15.57194,-2.22398 24.47071,-6.11719 7.23026,-3.33704 13.34842,-5.00586 18.91015,-5.00586 8.89878,0 16.68483,4.4499 22.80274,12.23633 6.11791,6.67409 11.12437,10.01171 15.01758,10.01172 3.33704,0 5.56241,-2.2264 7.7871,-6.67579 4.44939,-10.01112 -1.66932,-28.36468 -17.24218,-55.61718 26.69633,-22.24694 38.37704,-43.38103 36.15234,-64.51563 -8.3426,-6.67408 -19.46777,-10.01172 -32.25976,-10.01172 -11.67967,0 -25.02675,2.78202 -40.59961,8.34375 -16.12903,-26.69633 -28.92146,-41.15672 -40.04493,-41.71289 h -1.66796 c -8.89878,0 -10.56759,8.34223 -5.00586,22.80274 5.56174,15.57286 5.9e-4,28.36481 -15.57227,39.48828 -16.6852,11.12347 -24.47321,22.8027 -22.80469,36.70703 1.66852,13.90434 4.451,24.4724 8.90039,31.14648 -32.63926,-41.70569 -68.20009,-72.85668 -107.89843,-95.66211 6.67408,2.78087 13.90489,5.56195 23.91601,7.23047 h 4.44922 c 11.67965,0 22.24668,-6.67425 32.25781,-21.13476 8.3426,-12.23582 18.35311,-18.91016 29.47656,-18.91016 3.33705,0 6.67515,0.55562 10.56836,1.66797 5.56174,2.22469 10.01061,3.33789 13.34766,3.33789 6.67408,0 10.01125,-3.33763 9.45508,-10.01172 -1.11235,-11.12347 -16.12836,-24.47206 -43.38086,-40.04492 12.23582,-32.25806 12.23582,-56.172684 0,-73.414063 z M 338.67034,782.74537 c -7.23025,-3.33704 -17.79879,-6.67375 -31.70313,-8.89844 h -5.00391 c -11.67964,0 -22.76421,8.13397 -32.21916,22.59448 -8.3426,11.67965 -18.35457,17.79687 -28.92187,17.79687 -3.33704,0 -7.22984,-0.55609 -11.12305,-2.22461 -5.56174,-1.66852 -10.56726,-2.78125 -13.9043,-2.78125 -6.11791,0 -9.45461,3.33764 -8.89844,10.01172 0.55618,10.5673 14.46038,25.02769 41.7129,41.71289 -12.23582,32.25807 -10.56786,57.28596 1.66796,74.52735 h 4.44922 c 20.02224,0 39.48994,-13.34915 60.06836,-38.37696 21.69077,12.23582 37.26278,18.91016 47.83008,18.91016 3.33704,0 5.56242,-0.55516 7.78711,-1.11133 9.45495,-4.44939 8.89793,-12.23739 -3.33789,-22.80469 -12.79199,-10.56729 -15.57307,-24.47151 -7.23047,-41.71289 8.34261,-17.79756 9.41529,-34.82944 1.07268,-44.84057 -8.3426,-11.12347 -15.572,-17.79717 -22.24609,-22.80273 z m -88.393,-716.559823 c -12.23582,16.685206 -13.90379,42.267333 -1.66796,74.525393 -27.25253,16.68521 -41.15672,29.47762 -41.7129,40.04492 -0.55617,6.67408 2.78053,10.01172 8.89844,10.01172 3.33704,0 7.78639,-1.11273 13.9043,-2.78125 3.89321,-1.66852 7.78648,-2.78125 11.67969,-2.78125 10.5673,0 20.02263,6.11769 28.36523,18.35351 9.45495,14.46051 19.98441,21.86719 31.66406,21.86719 1.66852,0 2.78023,-4.6e-4 3.89258,-0.55664 13.90434,-1.66852 24.51722,-3.50941 31.74747,-7.40262 l 1.21289,-0.70898 c 6.60567,-4.43563 12.74875,-12.59742 20.98886,-23.03488 8.34261,-10.5673 8.93636,-24.64581 0.59375,-42.44336 -8.3426,-17.79755 -5.56152,-32.81356 7.23047,-43.38086 12.23582,-10.567297 12.79284,-16.68538 3.33789,-21.134768 -2.22469,-1.112347 -5.00671,-1.669922 -8.34375,-1.669922 -10.5673,0 -26.13885,6.674806 -47.27344,19.4668 C 294.21653,78.976565 274.19412,66.185547 254.17188,66.185547 Z M 725.25,76.751953 c 4.44939,15.572859 2.22588,32.814707 -5.56055,51.724607 h -1.66992 c -10.5673,0 -23.35831,9.45488 -38.375,27.8086 8.89878,-23.91546 10.56666,-41.15786 3.89258,-50.05664 C 695.77293,89.54331 709.67714,80.088994 725.25,76.751953 Z m -170.18945,2.224609 c 7.78643,0 14.46021,1.11273 20.57812,2.78125 -23.91546,3.893215 -37.81828,18.353608 -40.04297,41.712888 -1.66852,22.80312 -12.79212,36.03935 -35.03906,36.03935 -21.69077,0 -34.48382,-13.23623 -36.15234,-36.03935 -1.66852,-23.35928 -15.01516,-37.819671 -40.04297,-41.712888 5.56174,-1.66852 11.12232,-1.667968 17.24023,-1.667968 3.33704,-0.556173 7.22984,-0.556641 11.12305,-0.556641 2.78087,0 5.56288,4.68e-4 8.34375,0.556641 12.79199,1.112347 20.02139,10.565813 22.24609,26.138676 2.78087,15.01669 8.89958,22.24804 17.24219,22.24804 9.45495,0 15.57219,-7.23135 17.79688,-22.24804 2.22469,-15.572863 9.45605,-25.026329 22.24804,-26.138676 5.00556,-0.556173 10.0096,-1.113282 14.45899,-1.113282 z m -295.88282,4.449219 c 16.12904,3.893215 30.58887,13.903705 43.38086,29.476559 -7.23026,9.45495 -6.67463,25.0279 1.66797,48.94336 -15.01668,-18.35373 -26.69536,-26.13867 -38.375,-26.13867 h -1.66992 c -6.67409,-18.9099 -9.45329,-36.70839 -5.00391,-52.281249 z m 370.41016,8.898438 c 10.01112,2.224694 20.57919,7.787801 31.14649,15.574221 10.5673,7.78643 12.79219,20.02191 7.23046,34.48242 -5.56174,15.01669 -3.89432,23.91538 3.33594,27.80859 2.22469,1.66852 4.4496,2.22461 7.23047,2.22461 5.56173,0 11.6799,-3.89373 18.91016,-12.23633 7.23025,-8.89878 15.57341,-13.90429 23.91601,-13.90429 2.78087,0 6.11758,0.55562 8.89844,1.66797 12.23582,5.00556 21.13451,12.79364 27.80859,20.58007 -6.67408,-2.22469 -13.34888,-3.33789 -19.46679,-3.33789 -13.34817,0 -25.02748,6.11817 -34.48243,18.91016 -8.3426,12.23582 -17.24129,18.35352 -27.80859,18.35352 -5.56173,0 -12.23608,-1.66781 -18.91016,-6.11719 -18.9099,-10.5673 -23.91541,-27.25408 -13.90429,-48.38867 9.45495,-21.1346 5.0056,-40.04434 -13.9043,-55.617191 z m -274.75,8.343751 c -18.9099,15.57286 -23.91542,32.81463 -13.9043,53.94922 10.01113,21.1346 6.81408,37.77813 -11.53964,48.34542 -7.78643,3.89323 -15.15542,5.60184 -21.8295,5.60184 -10.56729,0 -19.46599,-5.56058 -27.80859,-17.24023 -9.45495,-13.90433 -21.13519,-20.57813 -35.5957,-20.57813 -5.56174,0 -11.67943,1.11125 -18.35352,3.33594 7.78643,-7.23025 17.79739,-12.23513 30.0332,-17.79687 3.89322,-1.66852 7.78647,-2.78125 11.67969,-2.78125 7.78643,0 14.46069,3.89325 21.13477,11.67968 7.23026,8.89877 13.90357,13.9043 20.02148,13.9043 2.22469,0 3.89444,-0.55563 6.11914,-1.66797 7.23025,-4.44939 6.67353,-15.018 1.66797,-29.47851 -5.00556,-14.46051 -1.66886,-25.58271 8.89844,-33.36914 10.56729,-7.78643 19.46544,-11.67961 29.47656,-13.9043 z m 452.16992,95.66211 c 6.67408,7.78643 12.23663,17.79692 17.24219,29.47656 5.00556,12.23582 1.66746,23.35997 -10.56836,33.37109 -11.67964,9.45495 -14.45963,18.35225 -10.56641,26.13868 2.78086,3.89322 6.11749,5.5625 11.12305,5.5625 4.44939,0 10.01147,-1.66788 16.68555,-3.89258 5.00557,-1.66852 8.89826,-2.22461 13.34765,-2.22461 8.89878,0 16.12967,3.89279 21.69141,11.12305 7.78643,10.01112 11.67961,21.1334 13.9043,31.14453 -10.56729,-12.792 -21.13575,-18.90821 -33.92774,-18.90821 -6.11791,0 -12.79122,1.66687 -20.02148,5.00391 -7.23025,3.33704 -13.90553,5.00586 -20.02344,5.00586 -11.67964,0 -21.68919,-6.67434 -28.36328,-18.91016 -11.67964,-19.46607 -7.23021,-35.5952 11.67969,-48.94336 19.46607,-13.34817 25.5833,-30.58798 17.79687,-53.94726 z m -302.55859,5.56054 c 78.42047,0 146.27412,30.03343 205.22851,88.43165 58.9544,58.9544 88.43163,128.47546 88.43165,208.56445 0,81.75751 -29.47725,152.39279 -88.43165,210.79101 -58.95439,58.39822 -126.80804,86.76368 -205.22851,86.76368 -83.42603,0 -155.17255,-28.36546 -214.12695,-86.76368 -58.39822,-58.39822 -86.76368,-129.0335 -86.76368,-210.79101 0,-80.08899 28.36546,-149.61005 86.76368,-208.56445 58.9544,-58.39822 130.70092,-88.43164 214.12695,-88.43165 z m -323.69336,3.3379 c -10.5673,1.66852 -23.35971,16.68453 -40.04492,43.38086 -16.12903,-6.11791 -30.03177,-8.89844 -42.267581,-8.89844 -11.679644,0 -22.24724,2.78052 -30.589843,8.89844 -2.780868,21.69076 8.898355,42.26868 36.707034,64.51562 -16.685208,27.2525 -22.246267,45.60607 -17.796878,55.61719 2.224694,3.89322 4.448115,5.5625 7.785156,5.5625 3.893215,0 8.899672,-3.33663 15.017582,-11.12305 6.1179,-7.23026 13.3488,-10.56836 21.6914,-10.56836 6.11791,0 12.79123,2.22546 20.02149,5.5625 8.89878,4.44939 17.74476,6.84885 24.97501,6.84885 7.23026,0 13.90311,-2.22397 19.46485,-6.11719 11.12347,-8.3426 18.35334,-15.57248 22.80273,-22.80273 3.33704,-7.78643 6.11906,-17.79832 8.34375,-31.14649 2.2247,-13.34816 -5.50809,-26.31522 -21.63712,-37.43869 -16.12903,-11.12347 -22.80392,-24.4716 -17.24219,-39.48828 5.56174,-14.46051 3.89292,-22.80273 -5.00586,-22.80273 z M 175.75,224.13867 c -7.78643,23.35929 -3.33568,42.26902 15.57422,55.61719 18.9099,13.34816 24.41684,29.65137 13.29337,48.0051 -7.23025,12.23581 -16.12895,18.91015 -27.80859,18.91015 -5.56174,0 -13.29358,-2.40047 -20.52384,-5.73752 -6.67408,-3.33704 -13.90553,-5.0039 -20.02344,-5.0039 -12.79199,0 -24.47028,6.11621 -35.59375,18.9082 3.33704,-10.56729 7.78583,-20.57723 15.57226,-31.14453 5.56173,-7.23025 12.23553,-11.67969 20.57813,-11.67969 3.89321,0 8.34358,1.11273 12.79297,2.78125 7.23026,2.78087 12.79084,3.89258 17.24023,3.89258 5.00556,0 8.34366,-1.66929 10.56836,-5.5625 4.44938,-7.23026 1.11128,-16.12754 -10.56836,-26.13867 -12.23582,-10.5673 -15.57196,-21.13528 -10.5664,-33.3711 5.00556,-11.67964 11.67841,-22.2463 19.46484,-29.47656 z m 704.67188,3.33594 c 6.11791,0 11.12381,0.55609 16.68554,2.22461 -3.89321,16.12903 -13.9037,30.59082 -29.47656,43.38281 -3.89322,-3.33704 -9.45482,-4.45117 -16.12891,-4.45117 -8.89877,0 -20.57809,2.78155 -34.48242,7.78711 18.9099,-16.12903 28.92094,-30.03325 27.80859,-41.71289 10.01113,-3.33704 19.46647,-6.11766 28.36524,-6.67383 2.2247,-0.55618 5.00381,-0.55664 7.22852,-0.55664 z M 106.22852,255.2832 c 1.11235,0 2.22554,4.7e-4 3.33789,0.55664 8.3426,0.55618 16.68567,3.33678 26.14062,6.67383 -1.66852,11.67964 8.34251,25.58386 27.80859,41.71289 -13.90432,-5.00556 -25.02895,-7.23047 -33.92773,-7.23047 -6.11791,0 -11.12241,1.11366 -15.01562,3.89453 -16.129043,-12.79198 -26.141479,-26.6962 -29.47852,-41.71289 6.674082,-2.22469 13.90451,-3.89453 21.13477,-3.89453 z m 829.25586,91.76953 c 11.12346,0 21.68958,5.56217 31.14453,14.46094 24.47163,22.24695 22.2486,47.83038 -5.00391,78.41992 -27.80867,30.58955 -51.72533,48.9431 -71.19141,55.61719 -20.02225,6.67408 -36.15081,10.56641 -50.61132,10.56641 v -10.56641 c 12.79199,0 26.69565,-2.22436 43.38085,-8.89844 17.79756,-6.11791 38.93164,-22.80414 64.51563,-50.05664 25.58398,-27.80868 30.59006,-51.1683 12.23633,-67.85351 -6.67408,-6.11791 -13.9035,-9.45313 -22.2461,-9.45313 -13.90434,0 -28.92221,9.45338 -45.60742,28.36328 -26.14015,30.03337 -42.26928,61.73607 -48.94336,93.99414 h -10.00976 c 6.67408,-33.92659 24.47202,-67.85317 53.94922,-102.33593 14.46051,-17.24138 28.36472,-28.36415 41.71289,-31.70117 2.22469,-0.55618 4.44912,-0.55665 6.67383,-0.55665 z m -0.55665,31.70118 c 0.55618,0 1.66843,4.6e-4 2.22461,0.55664 3.33704,0 6.11758,0.55506 8.89844,3.33593 10.5673,10.5673 6.11794,27.81018 -13.9043,50.61329 -20.02225,21.69077 -43.9375,36.15059 -69.52148,43.38085 5.56173,-26.14015 18.3547,-51.72469 38.37695,-75.08398 12.79199,-15.57286 24.47083,-22.80273 33.92578,-22.80273 z M 83.425781,402.66992 c -2.224694,0 -4.449134,0.55609 -6.673828,2.22461 -8.898776,6.67408 -12.236328,25.58373 -12.236328,57.8418 C 30.58905,468.29806 9.45495,479.97682 0,498.88672 c 9.45495,20.02224 30.58904,32.81521 64.515625,38.37695 0,31.70189 3.337552,49.49928 12.236328,55.61719 2.224694,1.66852 5.005775,2.78125 7.230469,2.78125 5.561735,0 9.454993,-5.56207 11.679687,-16.68555 2.780868,-16.12903 13.348371,-24.4721 32.814451,-26.14062 20.02224,-1.66852 34.19217,-8.15481 39.75391,-20.39063 4.8177,-12.3119 6.69008,-22.9932 6.85156,-31.64062 V 497.1543 C 174.778,489.76828 172.87042,479.59983 168.23047,467.74219 162.66873,454.9502 148.4988,448.83258 128.47656,447.16406 109.01048,444.93936 98.442977,436.5963 95.662109,421.02344 93.437415,408.78762 88.987517,402.66992 83.425781,402.66992 Z m -1.667969,21.69141 c 5.005562,23.91547 18.909778,38.37445 41.712888,40.04297 22.80312,1.66852 36.41798,12.79165 36.41798,34.48242 0,22.80311 -13.61486,35.04046 -36.41798,36.70898 -22.80311,1.66852 -36.707325,13.90337 -41.712888,38.375 -2.780867,-10.01112 -3.336488,-21.69089 -1.667968,-35.03906 1.112347,-12.79199 10.565813,-20.0214 26.138676,-22.24609 15.01669,-2.22469 22.24804,-8.34388 22.24804,-17.79883 0,-8.34261 -7.23135,-13.34758 -22.24804,-15.57227 -15.572863,-2.2247 -25.026329,-11.12253 -26.138676,-24.4707 -1.66852,-12.79199 -1.112899,-24.47129 1.667968,-34.48242 z m -13.904296,52.27929 c 5.005561,10.5673 18.909215,18.35288 43.380864,22.2461 -24.471649,5.00556 -38.375303,12.79357 -43.380864,22.80469 -20.578421,-2.78087 -36.707626,-10.56888 -46.71875,-22.80469 10.011124,-11.12347 26.140329,-18.90905 46.71875,-22.2461 z m 843.158204,20.57813 c 99.55508,0 151.83568,63.96048 158.50978,191.32422 l -13.9043,1.66797 C 1049.4993,566.18424 997.77466,504.44922 901.55664,504.44922 h -0.55469 z m -55.61719,21.13477 c 91.21246,31.14572 142.93616,136.81884 152.94727,316.46289 l -18.90821,1.66797 C 979.97864,661.84589 933.25907,556.72893 848.7207,520.02148 Z M 93.994141,625.13867 c -1.112347,0 -2.781717,9.4e-4 -3.337891,1.11328 -1.66852,0.55618 -2.780231,2.78116 -3.892578,5.00586 -4.449389,9.45495 1.11167,29.47648 17.796878,57.28516 -27.808679,21.69077 -39.487902,43.38103 -36.707034,64.51562 8.342603,6.11791 18.910199,9.45508 30.589843,9.45508 12.235811,0 26.138551,-3.33717 42.267581,-9.45508 16.68521,27.2525 29.47762,40.60055 40.04492,41.71289 h 2.22461 c 8.89878,0 10.5676,-6.67425 5.00586,-21.13476 -5.56173,-15.57286 1.11316,-28.9195 17.24219,-40.04297 16.12903,-11.12347 22.80282,-22.80418 20.57812,-36.15234 -2.22469,-13.34817 -3.43835,-25.46116 -6.77539,-32.69141 -4.44939,-7.78643 -13.24762,-15.13935 -24.37109,-22.92578 -5.00557,-3.89321 -10.56616,-5.5625 -17.24024,-5.5625 -7.78643,0 -16.68567,2.22491 -26.14062,7.23047 -6.67408,3.33705 -12.79178,5.00586 -18.35352,5.00586 -8.89877,0 -16.68529,-4.4499 -23.35937,-12.23633 -6.11791,-7.23026 -11.679055,-11.12305 -15.572269,-11.12305 z m 807.007809,18.35352 c -2.2247,9.45495 -7.7863,20.57918 -16.1289,31.14648 -5.00557,6.67408 -11.12373,10.01172 -18.91016,10.01172 -3.89322,0 -8.89874,-1.11273 -13.9043,-2.78125 -6.11791,-2.78087 -11.12435,-3.89453 -15.01757,-3.89453 -6.11791,0 -10.56632,2.78108 -12.79102,7.23047 -5.00556,7.23025 -1.66941,16.1295 10.56641,26.14062 12.23582,10.01113 15.57346,21.13482 10.01171,32.81446 -5.00554,12.23582 -11.12372,21.13451 -18.91015,27.80859 8.34261,-22.80312 3.89381,-40.60106 -15.57227,-53.94922 -18.9099,-12.79199 -21.69183,-29.47682 -10.56836,-48.38672 6.67408,-12.23582 15.01623,-17.79687 25.02735,-17.79687 6.11791,0 12.79318,1.66733 20.02343,5.56054 7.23028,3.33704 13.90358,4.44922 20.02149,4.44922 13.34816,0 25.02887,-6.11769 36.15234,-18.35351 z m -800.33398,3.33789 c 10.5673,11.67964 21.68997,17.79687 33.92578,17.79687 7.23026,0 14.46116,-2.2235 21.69141,-5.56054 7.23026,-3.33704 13.9031,-5.00586 19.46484,-5.00586 11.67964,0 22.1467,5.12793 29.37695,17.91992 11.12347,18.9099 5.10717,36.58543 -13.80273,49.93359 -18.9099,12.79199 -23.36065,30.03329 -15.57422,53.39258 -7.78643,-6.67408 -14.45928,-15.57277 -19.46484,-27.80859 -5.00556,-12.23581 -1.66942,-22.80334 10.5664,-32.81446 11.67964,-10.5673 15.01774,-18.91036 10.56836,-26.14062 -2.2247,-4.44939 -6.67506,-6.67383 -12.79297,-6.67383 -3.89321,0 -8.89771,1.11124 -15.01562,3.33594 -5.00556,1.66852 -8.89976,2.78125 -12.79297,2.78125 -8.3426,0 -15.0164,-4.44943 -20.57813,-11.67969 -7.78643,-10.01112 -12.23522,-19.46544 -15.57226,-29.47656 z m 739.1543,46.71875 c 13.34817,5.00556 23.9152,7.78515 32.25781,7.78515 6.1179,0 11.12437,-1.11171 15.01758,-3.89257 15.57286,12.23581 25.58334,26.14003 29.47656,41.71289 -5.56174,1.66852 -10.56764,2.78125 -16.68555,2.78125 -10.01112,0 -21.13379,-3.33624 -33.92578,-8.3418 1.66852,-11.12347 -7.23072,-23.35971 -26.14062,-40.04492 z m -676.30665,3.89258 c -19.46608,15.57286 -29.47711,28.36528 -27.80859,40.04492 -12.79199,4.44939 -23.91707,7.23047 -34.48437,7.23047 -5.561741,0 -10.567175,-0.55609 -16.12891,-2.22461 3.337041,-15.57286 13.349477,-30.59083 29.47852,-43.38281 4.44939,3.33704 10.01044,5.00585 17.79687,5.00585 8.3426,0 18.3545,-2.22444 31.14648,-6.67382 z m 529.47657,93.4375 c 10.5673,0 20.0231,5.56105 28.92187,17.79687 8.89878,12.79199 20.57857,19.4668 35.03906,19.4668 6.11793,0 13.34788,-1.11171 20.57813,-3.89258 -7.78642,7.78643 -17.79738,14.45881 -30.0332,18.9082 -3.33704,1.66852 -6.67468,2.22461 -10.01172,2.22461 -8.3426,0 -16.12866,-3.89177 -22.80274,-12.23437 -7.78643,-9.45495 -13.90552,-13.9043 -20.02343,-13.9043 -2.2247,0 -3.8925,0.55562 -6.11719,1.66797 -7.23026,5.00556 -8.89963,15.01605 -3.33789,29.47656 5.00556,13.90434 2.22503,25.02803 -8.89844,32.81445 -10.01112,7.78643 -19.46544,12.79336 -29.47656,15.57422 19.46607,-16.12903 23.91543,-34.48454 13.9043,-55.61914 -9.45497,-20.57842 -6.11741,-35.59331 12.23632,-46.71679 4.44939,-2.78086 9.45491,-4.44968 13.9043,-5.00586 2.22469,-0.55617 3.89249,-0.55664 6.11719,-0.55664 z M 310.3051,790.53052 c 6.11791,0 12.23654,2.22591 19.4668,6.11915 18.35372,10.56727 21.17282,27.04386 11.16169,48.17845 -10.01112,21.69079 -5.0056,40.0448 13.9043,56.17383 -10.01112,-2.78087 -18.90927,-8.34247 -29.47656,-16.1289 -10.5673,-7.78643 -13.904,-17.79778 -8.89844,-32.81446 5.00556,-14.46051 5.56228,-25.02912 -1.66797,-29.47851 -2.2247,-1.11235 -3.89445,-1.66797 -6.11914,-1.66797 -6.11791,0 -12.79122,5.00552 -20.02148,13.9043 -7.23025,8.3426 -15.01631,12.23632 -22.80274,12.23632 -3.33704,0 -6.67468,-0.55608 -10.01172,-2.22461 -12.23581,-4.44938 -22.24677,-11.12372 -30.0332,-18.91015 7.78643,2.78087 14.46022,3.89258 20.57813,3.89258 13.34817,0 24.47231,-6.11668 33.37109,-19.46485 6.67408,-9.45495 15.53281,-17.03337 23.87541,-18.70189 2.22469,-0.55617 4.44914,-1.11329 6.67383,-1.11329 z m 190.25154,32.30542 c -7.78643,0 -18.35449,1.66873 -31.14648,7.23047 -12.79199,5.00556 -18.90961,23.10471 -20.57813,43.12695 -2.2247,19.46608 -12.23573,30.03163 -27.80859,32.8125 -16.6852,2.78087 -20.57838,8.89959 -13.9043,17.24219 6.11791,8.89878 25.02709,12.23632 57.28516,12.23633 5.56173,34.48275 17.24244,55.61685 36.15234,64.51562 20.02224,-8.89877 31.14529,-30.03288 36.70703,-64.51562 31.70189,0 51.16725,-3.33755 57.28516,-12.23633 6.11791,-8.3426 0.55677,-14.46132 -15.57227,-17.24219 -16.12903,-2.78087 -25.02827,-13.34642 -26.14062,-32.8125 -1.11235,-20.02224 -8.34231,-38.12139 -20.57813,-43.12695 -12.79199,-5.56174 -22.8024,-7.23047 -31.70117,-7.23047 z m 196.88477,13.64844 c 13.90433,17.79755 27.252,26.14062 38.93164,26.14062 h 2.78125 c 6.67408,18.9099 7.23111,36.70839 3.33789,52.28125 -16.12903,-3.33704 -30.59083,-13.348 -43.38281,-30.0332 7.23023,-8.89878 6.11846,-24.47321 -1.66797,-48.38867 z m -393.21485,1.66992 c -8.3426,23.91546 -8.89823,39.48841 -1.66797,48.94336 -12.79199,15.57286 -27.25182,25.58334 -43.38086,29.47656 -4.44938,-15.57286 -1.67018,-31.70143 5.00391,-50.61133 h 2.78125 c 11.12348,0 22.80316,-9.45486 37.26367,-27.80859 z m 196.33008,0.2539 c 22.24694,0 33.37054,16.98596 35.03906,39.78907 2.22469,22.80312 16.12751,35.59553 40.04297,40.04492 -7.78643,2.22469 -16.12856,3.89258 -25.02734,3.89258 -3.33704,0 -6.67273,10e-4 -10.00977,-0.55469 -12.79199,-1.66852 -20.02335,-10.56777 -22.24804,-26.14063 -2.22469,-15.01668 -8.34193,-22.24609 -17.79688,-22.24609 -8.34261,0 -14.46132,7.22941 -17.24219,22.24609 -2.2247,15.57286 -9.4541,24.47211 -22.24609,26.14063 -3.33704,0.55617 -6.67468,0.55469 -10.01172,0.55469 -9.45495,0 -18.90888,-1.66789 -26.69531,-3.89258 25.02781,-4.44939 38.37445,-17.2418 40.04297,-40.04492 1.66852,-22.80311 14.46157,-39.78907 36.15234,-39.78907 z m 0,52.02539 c 4.44939,24.47164 10.56747,38.3753 21.13477,43.38086 -2.78087,19.46607 -8.89896,35.59528 -21.13477,46.71875 -11.12347,-11.12347 -18.91101,-27.25268 -22.24805,-46.71875 10.56729,-5.00556 18.35483,-18.90922 22.24805,-43.38086 z"
     sodipodi:nodetypes="cccccssccsscccccccscscccccscccccccscccccscscccscscscccccccsccscccscscsccccscccsccccsccccscscscccsccsccscccscscscccsccscscscccscsccccccccscscscccssccscscccscccsccscccsccsccscccscccsccscsccscsccccscscsccscscsscccccsssccssscccscssscscsccscccscscsccsscsccscscsccscsccccsccscccsscccsccssccccccccsccccssscscccsssccccsccccccccscssscccscccccccccccscccccccsccccsccscssccscscsccscscsccccscsccssscccsccscscccsccsccccsccscscsccscscccccccsscccsccscsccsccssccccccccsccscsccccccccscsccsccsccscssccccc" />
</svg>
