<?xml version="1.0" encoding="UTF-8" standalone="no"?>
<svg
   width="850"
   height="1000"
   version="1.1"
   id="svg1"
   sodipodi:docname="T116A.svg"
   inkscape:version="1.4.2 (f4327f4, 2025-05-13)"
   xmlns:inkscape="http://www.inkscape.org/namespaces/inkscape"
   xmlns:sodipodi="http://sodipodi.sourceforge.net/DTD/sodipodi-0.dtd"
   xmlns="http://www.w3.org/2000/svg"
   xmlns:svg="http://www.w3.org/2000/svg">
  <defs
     id="defs1" />
  <sodipodi:namedview
     id="namedview1"
     pagecolor="#ffffff"
     bordercolor="#666666"
     borderopacity="1.0"
     inkscape:showpageshadow="2"
     inkscape:pageopacity="0.0"
     inkscape:pagecheckerboard="0"
     inkscape:deskcolor="#d1d1d1"
     showguides="true"
     inkscape:zoom="0.755"
     inkscape:cx="121.19205"
     inkscape:cy="647.01987"
     inkscape:window-width="1680"
     inkscape:window-height="998"
     inkscape:window-x="-8"
     inkscape:window-y="-8"
     inkscape:window-maximized="1"
     inkscape:current-layer="svg1">
    <sodipodi:guide
       position="106.78532,390.98998"
       orientation="0,-1"
       id="guide1"
       inkscape:locked="false" />
    <sodipodi:guide
       position="106.78532,393.98998"
       orientation="0,1"
       id="guide2"
       inkscape:label=""
       inkscape:locked="false"
       inkscape:color="rgb(0,134,229)" />
    <sodipodi:guide
       position="122.91435,390.98998"
       orientation="-0.90523015,0.42492161"
       id="guide3"
       inkscape:locked="false" />
    <sodipodi:guide
       position="41.991101,973.58176"
       orientation="0.90429957,0.42689845"
       id="guide4"
       inkscape:locked="false" />
  </sodipodi:namedview>
  <path
     style="fill:#000000;stroke:none;stroke-width:1"
     d="m 86.763071,785.8732 v 79.53281 H 146.82981 V 785.8732 Z m 233.036709,0 h -60.06674 v 79.53281 h 60.06674 z m -146.82981,0 v 79.53281 h 60.06674 V 785.8732 Z M 86.763071,892.10234 v 80.64516 h 60.066739 v -80.64516 z m 86.206899,0 v 80.64516 h 60.06674 v -80.64516 z m 146.82981,0 h -60.06674 v 80.64516 h 60.06674 z m 26.14016,0 v 80.64516 h 60.06674 v -80.64516 z m 146.82981,0 h -60.06674 v 80.64516 h 60.06674 z M 345.93994,785.8732 v 79.53281 h 60.06674 V 785.8732 Z m 146.82981,0 h -60.06674 v 79.53281 h 60.06674 z m 172.96997,106.22914 h -60.06675 v 80.64516 h 60.06675 z m 0,-106.22914 h -60.06675 v 79.53281 h 60.06675 z m 86.20689,0 h -59.51057 v 79.53281 h 59.51057 z m 0,106.22914 h -59.51057 v 80.64516 h 59.51057 z M 579.53282,785.8732 h -60.06674 v 79.53281 h 60.06674 z m 0,106.22914 h -60.06674 v 80.64516 h 60.06674 z M 469.41046,634.594 h -36.70745 v 71.19021 c 45.23545,16.31442 74.89803,17.05598 88.98776,2.22469 13.71895,-15.20207 -3.70782,-39.67371 -52.28031,-73.4149 z m -114.57175,0 c 15.94364,27.43789 32.62885,45.60623 50.05562,54.505 V 634.594 Z M 219.68854,146.27364 c -45.97701,0 -76.38116,8.52799 -91.21245,25.58398 -14.46051,17.42677 -21.69077,42.26919 -21.69077,74.52725 V 609.01002 H 332.59177 V 246.38487 c 0,-32.25806 -7.41565,-57.10048 -22.24694,-74.52725 -14.46051,-17.05599 -44.67928,-25.58398 -90.65629,-25.58398 z M 51.724138,21.690768 58.954394,36.707453 76.195774,1.6685206 86.206897,11.679644 66.18465,51.724138 l 6.117909,14.460512 18.9099,-35.038932 8.898781,10.011123 -20.578425,39.488321 7.230256,15.016685 17.797549,-33.926585 10.01113,10.011123 -20.578423,39.488325 7.230253,14.46051 17.79756,-34.482761 10.01112,10.011121 -20.57842,39.48832 190.46364,401.89433 10.56729,-46.71857 6.11791,-2.78087 v 112.90323 l -86.76307,-71.19022 6.11791,-2.78086 43.38154,20.57842 L 87.875418,149.61068 45.050056,140.7119 42.825362,127.36374 80.645162,135.15017 74.527253,120.68966 31.145718,111.23471 29.477197,96.774194 66.18465,105.67297 60.066741,89.543938 17.241379,81.757509 15.016685,67.296997 52.836485,76.195774 46.718577,61.179088 2.7808677,51.167965 1.1123471,37.8198 39.488321,45.606229 32.258065,31.145718 Z m 354.282542,10.567297 -7.23026,14.460512 37.8198,-8.342603 -1.11235,13.348164 -43.9377,10.011124 -6.11791,14.460512 37.26362,-8.342603 -1.66852,14.460511 -42.82536,8.342603 -7.23026,15.016685 37.8198,-7.786429 -2.22469,13.904339 -42.82536,8.89878 -6.11791,14.46051 37.26363,-7.78643 -1.66852,14.46051 -43.93771,8.89878 -189.3593,402.4505 42.82536,-21.13459 5.56173,3.33704 -83.9822,70.63404 V 494.21914 l 4.44939,2.78086 10.5673,46.71858 190.47164,-401.89433 -20.57842,-39.48832 9.45495,-11.123471 18.35373,35.038931 7.23026,-14.46051 -20.57843,-39.488321 9.45495,-10.567297 17.79756,33.926585 6.67408,-13.904338 -20.02225,-39.488321 8.89878,-10.011123 18.35373,33.926585 7.23025,-14.460512 L 350.9455,12.791991 360.95662,1.6685206 378.75417,37.8198 385.98443,22.246941 Z M 615.6841,608.45384 v -92.3248 c 0,-14.46051 -4.264,-26.51094 -12.79199,-36.15128 -8.15721,-10.01113 -17.05599,-16.8706 -26.69633,-20.57842 -9.64034,-4.07861 -22.61772,-4.07861 -38.93215,0 -16.68521,3.70782 -41.71302,19.65146 -75.08343,47.83092 0,-15.57286 6.67408,-31.5165 20.02225,-47.83092 13.71895,-15.94365 30.40415,-26.32555 50.05562,-31.14572 19.65147,-4.82017 36.89285,-5.00557 51.72414,-0.55618 15.20207,4.44939 26.69633,12.05043 34.48276,22.80312 v -18.9099 c 0,-4.07861 -5.74713,-12.42121 -17.24138,-25.02781 -11.49425,-12.23582 -29.4772,-17.42677 -53.94884,-15.57286 -24.47163,2.22469 -52.4657,22.06155 -83.9822,59.51057 0,-18.9099 6.3033,-37.44902 18.9099,-55.61735 12.23582,-17.79755 32.25807,-28.73563 60.06674,-32.81424 27.80868,-4.07861 53.20727,2.78087 76.19578,20.57842 V 238.04227 c 0.37078,-48.20171 0.74156,-95.47646 1.11234,-141.824249 0.37079,-46.347795 -13.34816,-69.521692 -41.15684,-69.521692 -27.80867,-0.370782 -45.42083,9.454951 -52.83648,29.477198 -7.41565,20.022247 -8.528,35.965888 -3.33705,47.830923 6.67409,7.04487 9.82574,13.16278 9.45495,18.35373 -0.37078,5.19095 -2.59547,8.89878 -6.67408,11.12347 -4.07861,2.22469 -7.60104,1.66852 -10.56729,-1.66852 -2.96626,-3.70783 -5.93252,-10.38191 -8.89878,-20.02225 C 494.80905,86.948462 495.17984,62.106044 506.67409,37.263627 518.16834,12.421209 538.56137,0 567.85317,0 c 29.29181,0 49.87023,6.8594737 61.73527,20.578421 11.49425,13.718947 17.24138,41.15684 17.24138,82.313679 0,41.15684 0.18539,86.02151 0.55617,134.594 0.37078,48.20171 0.74156,96.77419 1.11235,145.71746 v -0.55617 c 22.24694,-17.79755 47.46014,-24.65703 75.6396,-20.57842 27.80867,4.07861 48.01631,15.01669 60.62291,32.81424 12.6066,18.16833 18.9099,36.70745 18.9099,55.61735 -31.5165,-37.44902 -59.51057,-57.28588 -83.9822,-59.51057 -24.47164,-1.85391 -42.45458,3.33704 -53.94883,15.57286 -11.49425,12.6066 -17.24138,20.9492 -17.24138,25.02781 v 18.9099 c 7.41565,-10.75269 18.16833,-18.35373 32.25806,-22.80312 14.46051,-4.44939 31.70189,-4.26399 51.72414,0.55618 20.02225,4.82017 36.70745,15.20207 50.05562,31.14572 13.34816,16.31442 20.02224,32.25806 20.02224,47.83092 -33.74119,-28.17946 -58.769,-44.1231 -75.08342,-47.83092 -15.94364,-4.07861 -28.73563,-4.07861 -38.37598,0 -9.64034,3.70782 -18.35372,10.56729 -26.14015,20.57842 -7.78643,9.64034 -11.67965,21.69077 -11.67965,36.15128 v 92.3248 l 185.76196,0.55618 V 634.594 H 523.91547 c 28.92102,31.5165 25.76937,59.88135 -9.45495,85.09455 -30.03337,21.50537 -57.28588,27.43789 -81.75751,17.79755 v 22.24694 h 404.89433 v 26.14016 h -58.9544 v 79.53281 h 58.9544 v 26.69633 h -58.9544 v 80.64516 h 58.9544 V 1000 H 0 V 972.7475 H 60.066741 V 892.10234 H 0 V 865.40601 H 60.066741 V 785.8732 H 0 V 759.73304 H 404.89433 V 724.69411 C 368.92844,705.78421 338.52429,675.75084 313.68187,634.594 H 1.1123471 V 609.01002 L 85.09455,608.45384 V 225.80645 c 0,-25.58398 9.64034,-48.94327 28.92102,-70.07786 18.9099,-20.76381 54.13422,-31.14572 105.67297,-31.14572 51.16797,0 86.57768,10.38191 106.22915,31.14572 19.28068,21.13459 28.92102,44.49388 28.92102,70.07786 v 382.64739 z"
     id="path1"
     sodipodi:nodetypes="cccccccccccccccccccccccccccccccccccccccccccccccccccccccccccccccccccccccccccccccccccccccccscsccscscccccccccccccccccccccccccccccccccccccccccccccccccccccccccccccccccccccccccccccccccccccscccccsccsccccsccscscssccsscsccccccccsccscccccscccccccccccccccccccccccccccccccccscscscc" />
</svg>
