<?xml version="1.0" encoding="UTF-8" standalone="no"?>
<svg
   width="1000"
   height="1000"
   version="1.1"
   id="svg1"
   sodipodi:docname="T116B.svg"
   inkscape:version="1.4.2 (f4327f4, 2025-05-13)"
   xmlns:inkscape="http://www.inkscape.org/namespaces/inkscape"
   xmlns:sodipodi="http://sodipodi.sourceforge.net/DTD/sodipodi-0.dtd"
   xmlns="http://www.w3.org/2000/svg"
   xmlns:svg="http://www.w3.org/2000/svg">
  <defs
     id="defs1" />
  <sodipodi:namedview
     id="namedview1"
     pagecolor="#ffffff"
     bordercolor="#666666"
     borderopacity="1.0"
     inkscape:showpageshadow="2"
     inkscape:pageopacity="0.0"
     inkscape:pagecheckerboard="0"
     inkscape:deskcolor="#d1d1d1"
     showguides="true"
     inkscape:zoom="0.53386562"
     inkscape:cx="98.339354"
     inkscape:cy="680.88295"
     inkscape:window-width="1680"
     inkscape:window-height="998"
     inkscape:window-x="-8"
     inkscape:window-y="-8"
     inkscape:window-maximized="1"
     inkscape:current-layer="svg1">
    <sodipodi:guide
       position="488.40927,969.41046"
       orientation="0.90487141,-0.42568501"
       id="guide1"
       inkscape:locked="false" />
    <sodipodi:guide
       position="93.804152,970.5228"
       orientation="0.90440625,0.42667241"
       id="guide2"
       inkscape:locked="false" />
    <sodipodi:guide
       position="418.33141,323.35595"
       orientation="0,1"
       id="guide3"
       inkscape:locked="false"
       inkscape:label=""
       inkscape:color="rgb(0,134,229)" />
  </sodipodi:namedview>
  <path
     style="fill:#000000;stroke:none;stroke-width:1"
     d="m 292.08002,162.95884 c -51.16797,0 -84.90916,9.82573 -101.22359,29.4772 -16.31442,19.28068 -24.47163,46.90397 -24.47163,82.86986 V 679.64405 H 418.33141 V 275.3059 c 0,-35.96589 -8.15721,-63.58918 -24.47164,-82.86986 -16.31442,-19.65147 -50.241,-29.4772 -101.77975,-29.4772 z M 105.20571,23.915462 l 7.23026,17.241379 20.02224,-38.9321469 10.5673,10.5672969 -22.80312,45.050056 7.78643,16.129032 20.02225,-38.932147 11.12347,11.123471 -22.80311,43.937709 7.78643,17.241378 18.9099,-39.488319 11.12347,12.235817 -21.69077,43.937712 6.67408,16.12903 20.02225,-37.8198 11.12347,10.5673 -22.80312,44.49388 212.7115,449.16908 11.67965,-52.28031 7.23025,-2.78087 v 125.13904 l -96.21802,-78.97664 6.11791,-3.33704 47.83093,23.35929 -211.59916,-450.28143 -48.943267,-10.01112 -1.112347,-15.01669 42.269184,8.89878 -8.3426,-16.12903 -47.830923,-11.12347 -2.224694,-16.12904 42.269187,9.45495 -8.3426,-17.24137 L 65.161215,91.212459 64.048868,75.083427 106.31806,85.09455 97.975453,67.853171 50.14453,57.285874 47.919836,42.269188 90.189024,51.167965 82.402594,35.038932 Z m 394.32703,12.235817 -7.78643,16.129033 42.82536,-9.45495 -2.22469,15.016685 -47.83092,11.123471 -7.78643,16.129032 41.71301,-8.898776 -1.66852,16.129032 -48.3871,8.898774 -6.67408,16.68521 40.60067,-8.89878 -0.55617,15.01669 -48.3871,11.12347 -7.78643,16.12903 41.71301,-8.89878 -1.66852,15.57286 -48.38709,10.01113 -212.7155,450.8376 48.38709,-24.47164 6.67409,3.33704 -95.10568,78.97664 V 552.61736 l 5.00557,2.78086 13.34816,52.28032 211.60315,-449.72526 -22.80311,-43.93771 11.67964,-11.67964 18.9099,38.93215 8.3426,-17.24138 -23.35928,-42.825365 11.12347,-12.235817 20.02224,38.375972 8.34261,-16.129031 -23.35929,-43.937709 11.12347,-11.123471 20.02225,37.8198 7.23025,-16.129032 L 439.466,13.904338 450.58947,2.2246941 470.61172,42.269188 477.2858,25.027809 Z M 686.96322,715.79533 H 511.76856 L 686.96322,859.84428 Z M 289.29915,714.68299 H 182.51383 l 15.57286,28.92102 h 76.19577 z M 69.05443,657.39711 c -1.853912,-24.47163 2.595476,-46.1624 13.348164,-65.0723 10.381906,-18.53912 7.78643,-32.07268 -7.786429,-40.60067 -15.572859,-8.89877 -28.550241,-3.15165 -38.932147,17.24138 -10.381906,20.39303 0.741565,49.87023 33.370412,88.43159 z m 907.6752,22.24694 v 35.03894 H 722.00215 V 1000 H 685.85087 V 906.56285 L 457.26355,714.68299 H 321.55721 l -32.25806,58.95439 H 183.07 L 150.25577,714.68299 C 96.121543,715.42455 54.779309,696.32926 26.229068,657.39711 -2.6919553,618.83575 -7.697517,582.1283 11.212383,547.27475 29.7515,512.792 56.44783,504.264 91.301371,521.69077 c 34.482759,17.05599 40.044499,47.64553 16.685209,91.76863 -23.359291,44.1231 -12.235821,65.81387 33.37041,65.07231 v -426.5851 c 0,-29.29181 10.75269,-55.43196 32.25806,-78.42047 21.87616,-22.98851 61.36448,-34.48276 118.46497,-34.48276 57.47126,0 96.95958,11.49425 118.46496,34.48276 21.13459,22.98851 31.70189,49.12866 31.70189,78.42047 v 426.5851 l 291.43493,1.11234 v -102.8921 c 0,-16.31442 -4.44939,-29.84798 -13.34817,-40.60067 -8.89877,-11.12347 -18.9099,-18.9099 -30.03337,-23.35929 -11.12347,-4.0786 -25.58398,-4.0786 -43.38153,0 -18.16834,4.44939 -45.97702,22.43234 -83.42603,53.94884 0,-17.42677 7.60104,-35.22433 22.80311,-53.39266 14.83129,-17.79755 33.37041,-29.4772 55.61736,-35.03893 21.87615,-5.19095 40.97144,-5.37635 57.28587,-0.55618 16.31442,5.19095 28.92102,13.71895 37.8198,25.58398 v -21.13459 c 0,-5.19095 -6.48869,-14.6459 -19.46607,-28.36485 -12.6066,-13.71895 -32.62885,-19.46607 -60.06675,-17.24138 -27.06711,1.85391 -58.39821,24.10085 -93.99332,66.74082 0,-21.13459 7.04486,-41.71301 21.13459,-61.73526 14.08973,-20.02225 36.70746,-32.44345 67.85317,-37.26362 31.5165,-4.82017 59.69596,2.78086 84.53838,22.80311 0.37078,-53.76344 0.74156,-107.52688 1.11235,-161.29032 0.37078,-53.76344 0.55617,-106.59993 0.55617,-158.50946 0,-51.538746 -15.38747,-77.49351 -46.1624,-77.864293 -30.40415,-0.370782 -49.87023,10.567297 -58.39822,32.814238 -8.15721,22.617724 -9.26956,40.600665 -3.33705,53.948835 7.41565,7.78643 10.93809,14.6459 10.5673,20.57842 -0.37078,5.56173 -2.96626,9.45495 -7.78643,11.67964 -4.44939,2.59548 -8.3426,2.03931 -11.67964,-1.66852 -3.33704,-3.70782 -7.04486,-11.30886 -11.12347,-22.80311 C 599.2732,96.218021 600.01476,68.594735 612.99214,41.156841 625.96953,13.718947 648.58725,0 680.84531,0 c 32.62885,0 55.43196,7.6010383 68.40935,22.803115 12.97738,15.572859 19.65146,46.347794 20.02224,92.324805 0.37079,45.97701 0.74157,96.03263 1.11235,150.16685 0.37078,54.13423 0.74156,108.45384 1.11235,162.95885 v -1.11235 c 24.84241,-20.02225 52.83648,-27.62328 83.9822,-22.80311 30.77493,4.82017 53.39266,17.24137 67.85317,37.26362 14.46051,20.02225 21.69077,40.60067 21.69077,61.73526 -35.59511,-42.63997 -67.11161,-64.88691 -94.5495,-66.74082 -27.80868,-2.22469 -47.83093,3.52243 -60.06674,17.24138 -12.6066,13.71895 -18.9099,23.1739 -18.9099,28.36485 v 21.13459 c 7.41565,-11.86503 19.28068,-20.39303 35.5951,-25.58398 16.31443,-4.82017 35.59511,-4.63477 57.84205,0.55618 21.87616,5.56173 40.41528,17.24138 55.61735,35.03893 14.8313,18.16833 22.24695,35.96589 22.24695,53.39266 -37.44902,-31.5165 -65.2577,-49.49945 -83.42603,-53.94884 -18.53912,-4.0786 -32.99963,-4.0786 -43.38154,0 -10.75269,4.44939 -20.39303,12.23582 -28.92102,23.35929 -8.15721,10.75269 -12.6066,24.28625 -13.34817,40.60067 v 102.8921 z"
     id="path1"
     sodipodi:nodetypes="scsccscsccccccccccccccccccccccccccccccccccccccccccccccccccccccccccccccccccccccccccccccccccccccccccccccccscccccccccccccccscscscsccsccccccccscccsccsscccccscsscsscccscccsccccccccccc" />
</svg>
