<?xml version="1.0" encoding="UTF-8" standalone="no"?>
<svg
   width="600"
   height="1047.3785"
   version="1.1"
   id="svg1"
   sodipodi:docname="T25C.svg"
   inkscape:version="1.4.2 (f4327f4, 2025-05-13)"
   xmlns:inkscape="http://www.inkscape.org/namespaces/inkscape"
   xmlns:sodipodi="http://sodipodi.sourceforge.net/DTD/sodipodi-0.dtd"
   xmlns="http://www.w3.org/2000/svg"
   xmlns:svg="http://www.w3.org/2000/svg">
  <defs
     id="defs1" />
  <sodipodi:namedview
     id="namedview1"
     pagecolor="#ffffff"
     bordercolor="#666666"
     borderopacity="1.0"
     inkscape:showpageshadow="2"
     inkscape:pageopacity="0.0"
     inkscape:pagecheckerboard="0"
     inkscape:deskcolor="#d1d1d1"
     showguides="true"
     inkscape:zoom="0.36042365"
     inkscape:cx="262.19145"
     inkscape:cy="298.26011"
     inkscape:window-width="1680"
     inkscape:window-height="998"
     inkscape:window-x="-8"
     inkscape:window-y="-8"
     inkscape:window-maximized="1"
     inkscape:current-layer="svg1">
    <sodipodi:guide
       position="251.85593,820.10672"
       orientation="0,1"
       id="guide1"
       inkscape:locked="false"
       inkscape:label=""
       inkscape:color="rgb(0,134,229)" />
  </sodipodi:namedview>
  <path
     style="fill:#000000;stroke:none;stroke-width:1"
     d="M 306.40774,161.94173 C 332.81551,128.54368 351.06793,86.601934 361.16502,36.116502 H 238.83493 c 10.09709,50.485432 28.34951,92.427178 54.75728,125.825228 h 6.40776 z M 108.3495,885.43681 C 81.941739,918.44652 63.689315,960.77661 53.592228,1012.4271 H 175.33979 C 165.63105,960.77661 147.37862,918.44652 120.58251,885.43681 Z M 299.99997,432.23297 c -8.93203,62.91261 -28.34951,136.89319 -58.25242,221.94173 -29.90291,85.04853 -57.86407,141.74756 -83.88349,170.09707 H 443.30093 C 417.66986,797.08731 390.29123,741.94168 361.16502,658.83489 332.03881,575.7281 311.65046,500.19413 299.99997,432.23297 Z M 273.78638,207.96115 c -34.5631,36.50485 -67.76698,92.62135 -99.61164,168.3495 -31.45631,75.33979 -52.03883,145.63105 -61.74757,210.87376 -9.32038,65.24271 -9.51456,144.27183 -0.58252,237.08736 h 11.65048 c 31.45631,-43.88349 61.35922,-105.43689 89.70873,-184.66018 27.96117,-79.22329 51.45631,-180.77668 70.48544,-304.66016 l 15.86856,-107.67961 h 0.88422 l 15.86857,107.67961 c 19.02913,122.71843 42.91262,223.49512 71.65048,302.33007 28.73786,79.22329 58.83494,141.55338 90.29125,186.99027 h 8.73787 c 9.70873,-93.59223 9.90291,-173.00969 0.58252,-238.2524 C 477.86404,520.77666 457.47569,450.29122 426.40773,374.56307 395.33977,299.22327 361.94171,243.6893 326.21356,207.96115 Z M 61.165043,844.07759 c -10.097087,0 -15.14563,3.8835 -15.14563,11.65049 0,6.60194 5.048543,9.90291 15.14563,9.90291 H 540.58248 c 8.93203,0 13.39805,-3.30097 13.39805,-9.90291 0,-7.76699 -4.46602,-11.65049 -13.39805,-11.65049 z m 418.252387,41.35922 c -26.40776,33.00971 -44.66018,74.95144 -54.75727,125.82519 H 546.40772 C 536.69898,960.38825 518.44655,918.44652 491.65044,885.43681 Z M 365.82521,200.38833 c 32.62135,39.2233 63.68931,95.53398 93.20388,168.93203 29.51456,73.39805 49.70873,145.63105 60.58251,216.69901 11.26214,71.06795 11.06797,150.48542 -0.58252,238.2524 h 21.5534 c 21.35922,0 32.03883,9.90291 32.03883,29.70874 0,20.97087 -10.67961,31.4563 -32.03883,31.4563 h -6.40777 c 23.30097,31.45631 45.24271,85.43688 65.82524,161.94169 H 371.06793 c 20.58252,-76.50481 42.13592,-130.48538 64.66019,-161.94169 H 163.10678 c 23.30097,31.45631 45.24271,85.43688 65.82524,161.94169 H 0 C 20.582523,970.87369 42.524268,916.89312 65.825237,885.43681 v 0 h -4.660194 c -23.300969,0 -34.951453,-9.90291 -34.951453,-29.70873 0,-20.97087 11.650484,-31.45631 34.951453,-31.45631 H 80.970867 C 69.320382,737.28149 69.126207,658.25237 80.388342,587.18441 91.650477,516.11646 112.03883,443.88345 141.55339,370.4854 171.06795,297.08735 202.33008,240.38833 235.33978,200.38833 Z m 4.07767,-33.7864 c 19.80582,0 29.70873,9.70874 29.70873,29.12621 0,19.02912 -6.60194,28.54368 -19.80582,28.54368 H 220.19416 c -13.20389,0 -19.80583,-9.51456 -19.80583,-28.54368 0,-19.41747 10.48544,-29.12621 31.45631,-29.12621 h 24.46602 C 229.90289,132.03882 206.40775,76.504847 185.82523,0 h 228.93201 c -20.97087,76.504847 -44.66018,132.03882 -71.06795,166.60193 z m -134.5631,20.38834 c -7.37864,0 -11.06796,2.3301 -11.06796,6.9903 0,4.27184 3.68932,6.40776 11.06796,6.40776 h 130.48543 c 5.82524,0 8.73786,-2.13592 8.73786,-6.40776 0,-4.6602 -2.91262,-6.9903 -8.73786,-6.9903 z"
     id="path1"
     sodipodi:nodetypes="ccccccccccccsccsccccccccccccccccccsssssssccccccsccssscccccccscssscssccssssssccccssssssss" />
</svg>
