<?xml version="1.0" encoding="UTF-8" standalone="no"?>
<svg
   width="372.45105"
   height="1000"
   version="1.1"
   id="svg1"
   sodipodi:docname="138C4.svg"
   inkscape:version="1.4.3 (0d15f75, 2025-12-25)"
   xmlns:inkscape="http://www.inkscape.org/namespaces/inkscape"
   xmlns:sodipodi="http://sodipodi.sourceforge.net/DTD/sodipodi-0.dtd"
   xmlns="http://www.w3.org/2000/svg"
   xmlns:svg="http://www.w3.org/2000/svg">
  <defs
     id="defs1" />
  <sodipodi:namedview
     id="namedview1"
     pagecolor="#ffffff"
     bordercolor="#666666"
     borderopacity="1.0"
     inkscape:showpageshadow="2"
     inkscape:pageopacity="0.0"
     inkscape:pagecheckerboard="0"
     inkscape:deskcolor="#d1d1d1"
     showguides="true"
     inkscape:zoom="1.51"
     inkscape:cx="330.13245"
     inkscape:cy="221.52318"
     inkscape:window-width="1680"
     inkscape:window-height="998"
     inkscape:window-x="-8"
     inkscape:window-y="-8"
     inkscape:window-maximized="1"
     inkscape:current-layer="svg1">
    <sodipodi:guide
       position="285.96618,692.13657"
       orientation="-0.94299031,0.33282018"
       id="guide1"
       inkscape:locked="false" />
  </sodipodi:namedview>
  <path
     style="fill:#000000;stroke:none;stroke-width:0.999998"
     d="m 167.17318,186.9106 c 16.55903,35.27791 29.51827,52.91686 38.8777,52.91686 v -44.27742 c -4.31977,-0.71996 -7.1996,-5.75966 -8.63949,-15.1191 z m 118.793,120.95283 h 3.23978 l 21.05259,-55.8691 V 239.03506 Z M 316.20439,185.8306 c -9.35944,-4.31974 -23.39862,-6.47961 -42.11754,-6.47961 -4.31974,0 -6.47961,20.15882 -6.47961,60.47647 13.67922,0.71997 23.75862,-3.77977 30.23821,-13.49921 6.47963,-9.71944 12.59927,-23.21866 18.35894,-40.49765 z m -48.59715,65.87614 v 42.11753 h -61.55636 v -43.19742 c -9.35943,-0.72 -17.99893,-6.47966 -25.91848,-17.27899 l 30.23821,74.51557 h 55.07675 l 26.99843,-63.71625 c -2.15989,4.31978 -10.4394,6.83963 -24.83855,7.55956 z m -64.79619,70.19585 c 5.03971,20.15881 7.55956,39.59767 7.55956,58.31658 0,15.11911 -2.69983,38.87771 -8.0995,71.2758 -5.3997,32.39809 -7.55957,63.89625 -6.47961,94.49446 1.07993,30.59817 5.93963,58.85648 14.57911,84.77495 8.63951,25.91851 12.95927,62.63634 12.95927,110.15351 0,59.75649 -1.79991,106.19376 -5.39972,139.31182 h 57.23664 c 5.0397,-31.67813 5.39968,-63.35627 1.07994,-95.0344 -4.31974,-31.67813 -6.29963,-79.19533 -5.93966,-142.5516 0.36,-63.35627 3.77979,-103.67389 10.25938,-120.95288 6.47963,-17.27899 10.07942,-36.71784 10.79938,-58.31653 0,-19.43888 -3.23981,-35.81793 -9.71944,-49.13714 -6.47959,-13.31922 -10.07936,-30.41821 -10.79932,-51.29698 0,-17.27895 2.15987,-30.95815 6.4796,-41.03759 z m 4.31978,578.84594 c 0,30.23817 -21.23875,52.19689 -63.71625,65.87614 l -41.03759,15.11904 h -9.719439 c 0,2.87993 2.51985,4.31989 7.559549,4.31989 5.75967,0 11.51933,0.71989 17.27899,2.15967 5.75967,1.43977 13.31922,1.43977 22.67866,0 -2.87981,-2.15985 -4.6797,-7.19954 -5.39966,-15.11905 h 19.43882 c 35.99787,-7.91955 60.47644,-17.63897 73.43569,-29.15826 v -43.19743 z m 29.15826,0 v 39.95759 c 5.75967,-2.15985 8.6395,-7.19953 8.6395,-15.11904 v -24.83855 z m 18.35894,0 v 25.91849 c 0,11.51929 -8.99948,20.87871 -26.99843,28.07826 -7.19959,4.31974 -14.75915,8.27954 -22.67866,11.87939 l -50.75703,15.11904 h -9.71938 c 0,2.87993 2.51985,4.31989 7.55955,4.31989 6.47959,0 12.41923,0.71989 17.81893,2.15967 5.39967,1.43977 15.47907,1.07974 30.23821,-1.08011 14.75914,-2.15985 28.25836,-3.95967 40.49765,-5.39945 18.71888,5.75967 30.95815,7.73954 36.71781,5.93961 5.75967,-1.79981 7.55956,-13.13914 5.39967,-34.01798 v -52.91681 z m -74.51563,-601.5246 -10.79939,-41.03759 -18.35888,25.91849 c 4.31974,11.51933 14.03916,16.55903 29.15827,15.1191 z M 226.56965,38.959283 c -5.75966,7.919552 -12.95923,11.159365 -21.59871,9.71944 -5.75966,-0.719963 -10.79936,-5.03972 -15.1191,-12.959272 -23.03866,11.519328 -35.09795,20.158824 -36.17787,25.918488 -1.07993,5.759663 -10.61937,19.79884 -28.61832,42.117531 -5.03971,7.19955 -5.03971,11.87927 0,14.03916 2.87981,4.31974 7.91951,5.75967 15.1191,4.31978 6.47963,-5.03974 10.4394,-8.99952 11.87933,-11.87933 1.43989,-2.87981 2.87979,-2.51983 4.31972,1.07995 -0.71997,4.31973 -4.31976,8.99945 -10.79939,14.03916 -4.31973,5.75966 -4.13973,9.71943 0.54,11.87932 4.67971,2.15985 8.99945,-1.07996 12.95922,-9.71944 3.95977,-8.63951 10.79938,-11.33936 20.51882,-8.09955 9.71941,3.23981 14.39913,8.27953 14.03916,15.11916 -0.36,6.83959 0.89993,12.05928 3.77978,15.65905 5.0397,-9.35944 10.43938,-22.67866 16.19905,-39.95765 7.19959,-23.038655 11.51932,-46.797254 12.95921,-71.275797 z M 219.0101,186.9106 v 93.95445 h 34.55798 v -92.87456 c 0,-12.95922 5.0397,-19.43883 15.11911,-19.43883 18.71888,0 30.59817,0.71995 35.63787,2.15984 V 132.91374 C 300.00532,78.916913 280.2065,43.639003 244.92859,27.080011 c -2.87981,38.157722 -7.37955,66.056078 -13.49922,83.695069 -6.11963,17.63895 -10.25938,43.01746 -12.41927,76.13552 z M 195.2515,31.399731 c 10.07941,3.599776 15.65909,1.799888 16.73905,-5.399664 1.07993,-7.199589 -2.33989,-10.799384 -10.25944,-10.799384 -3.59977,-0.719963 -5.75964,4.67972 -6.47961,16.199048 z m -16.19905,21.598712 c 3.59978,0.719963 7.19958,2.519869 10.79939,5.399719 -7.19959,10.799365 -16.19907,16.199048 -26.99843,16.199048 -2.87981,-0.719963 -4.31972,-2.87985 -4.31972,-6.479663 0.71996,-5.039701 3.23981,-8.819477 7.55955,-11.339328 4.31974,-2.519851 8.63948,-3.779776 12.95921,-3.779776 z m -12.95921,15.119104 c 6.47959,-1.439889 10.79932,-4.319721 12.95921,-8.639496 -6.47963,1.439925 -10.79936,4.319757 -12.95921,8.639496 z m -10.79939,192.228683 10.79939,-11.87933 -5.39972,-17.27893 z m 163.07042,-44.27737 -6.26489,17.75052 5.18495,10.3278 z M 140.17475,401.81788 c -15.11911,47.5172 -39.23769,88.91477 -72.355742,124.19272 -1.439925,9.35944 -3.959776,19.43882 -7.559552,30.23815 -0.719963,5.03974 -2.879832,10.43942 -6.479608,16.19905 -2.879813,4.31978 -7.919515,9.71948 -15.119104,16.19911 -7.199589,6.47962 -12.959253,12.95923 -17.278992,19.43882 -2.159887,2.15985 -3.959775,3.23978 -5.399664,3.23978 -1.439925,0 -2.519869,-1.07993 -3.239831,-3.23978 -0.719963,0.72007 -1.439925,0.72007 -2.159888,0 -1.4398884,-0.72007 -2.1598326,-1.43996 -2.1598326,-2.15967 -0.7199626,0.72007 -1.4399252,0.72007 -2.1598878,0 -1.4399253,-0.72007 -2.1598879,-2.16003 -2.1598879,-4.31988 -0.7199626,1.43977 -1.799888,1.79981 -3.23977616,1.08011 -1.43992523,-0.72007 -1.07994391,-2.51989 1.07994396,-5.39944 7.9195143,-9.35948 14.3991225,-16.19907 19.4388235,-20.51877 5.039701,-4.31978 10.439384,-12.23933 16.199048,-23.75866 0.719963,-2.87981 0.719963,-4.31972 0,-4.31972 -0.719963,0 -1.799907,0.71995 -3.239832,2.15984 -2.159851,3.59977 -4.31972,7.91953 -6.479608,12.95927 -2.159851,5.0397 -4.679701,8.63947 -7.559552,10.79932 -2.879813,2.15985 -5.039683,2.51989 -6.479608,1.08012 -1.439925,-2.1603 -1.8e-5,-5.04034 4.319721,-8.64011 2.159887,-5.75963 4.859738,-13.31918 8.099551,-22.67866 3.239813,-9.35944 12.059291,-19.79882 26.458432,-31.31815 12.959253,-25.19851 22.318711,-49.49707 28.078375,-72.89569 5.759627,-23.39861 14.399104,-42.65747 25.918431,-57.77658 h 1.07994 c -4.31973,-32.39809 -4.67971,-69.11593 -1.07994,-110.1535 v 0 c 4.31974,-62.63631 21.23875,-95.0344 50.75703,-97.19429 10.79937,-4.31974 25.19853,-7.19957 43.19748,-8.63949 -12.23929,-2.15985 -18.35893,-8.2795 -18.35893,-18.35894 0,-10.0794 -2.15989,-15.65906 -6.47967,-16.73899 -4.31974,-1.07993 -7.19955,0.89996 -8.63944,5.93966 -1.43993,5.03971 -4.67974,8.81948 -9.71944,11.33933 -5.0397,2.51985 -10.79936,2.51985 -17.27899,0 -6.47963,-2.51985 -8.6395,-8.09953 -6.47961,-16.73905 -7.19959,0.71997 -12.59927,-1.07992 -16.19905,-5.39966 -12.23929,-5.0397 -14.39915,-12.23927 -6.4796,-21.59871 3.59977,-7.919553 9.7194,-17.458994 18.35888,-28.618322 8.63951,-11.159365 13.67923,-19.79886 15.11916,-25.918487 1.43989,-6.119627 14.03914,-14.939104 37.79776,-26.458432 0,-14.399141 5.75964,-22.3186741 17.27893,-23.75859936 10.07944,-0.71996262 17.27903,3.23979486 21.59877,11.87927236 49.67705,-7.1995523 82.4351,28.078374 98.27417,105.833778 v 56.1567 c 29.51829,1.43993 46.4373,33.83802 50.75703,97.19428 3.59978,41.03757 2.87982,82.43513 -2.15988,124.19267 6.47963,30.95817 2.51987,75.95551 -11.87928,134.99204 2.15985,9.35944 3.59976,19.79882 4.31972,31.31815 0.71997,4.31974 0.71997,10.07941 0,17.279 -0.71996,5.0397 -3.23981,11.87931 -7.55955,20.51882 -4.31974,8.63944 -7.19955,16.55895 -8.63944,23.75854 -1.43996,2.87993 -2.87988,4.67974 -4.31977,5.39944 -1.43993,0.72008 -2.87983,1.9e-4 -4.31972,-2.15966 0,1.43977 -0.71998,2.15966 -2.15995,2.15966 -1.43989,-0.72007 -2.15983,-1.43996 -2.15983,-2.15966 -0.71996,0.72007 -1.7999,1.08011 -3.23983,1.08011 -0.71993,0 -1.43987,-1.07993 -2.15983,-3.23978 0,1.43978 -0.71996,2.15967 -2.15989,2.15967 -2.15989,0 -2.87985,-1.79981 -2.15989,-5.39944 4.31974,-11.51933 7.91953,-20.15882 10.79938,-25.91849 2.87981,-5.75967 5.03968,-15.47909 6.47961,-29.15826 -0.71996,-2.15985 -1.43992,-3.23978 -2.15989,-3.23978 -0.71992,0 -1.07988,1.07993 -1.07988,3.23978 -1.43997,3.59963 -2.15995,8.27935 -2.15995,14.03916 -0.71993,5.0397 -1.79985,9.35944 -3.23977,12.95921 -1.43993,3.59963 -3.23982,4.67955 -5.39967,3.23978 -2.15989,-1.43978 -2.15989,-4.67959 0,-9.71944 0,-5.75967 -0.18002,-13.4992 -0.54005,-23.2186 -0.35993,-9.71951 4.13983,-22.85879 13.49927,-39.41782 2.15989,-28.07832 1.61992,-54.17677 -1.61989,-78.29535 -3.23981,-24.11861 -2.33987,-45.17738 2.69983,-63.1763 -7.19959,-37.43779 -10.79938,-81.7152 -10.79938,-132.83221 -23.03862,47.51723 -35.09791,82.43518 -36.17787,104.75384 -1.07993,22.31869 1.7999,41.21758 8.63949,56.69669 6.83963,15.47907 10.25944,33.29802 10.25944,53.45686 0,20.87873 -6.11964,47.51715 -18.35893,79.91524 -2.87981,103.67391 -2.15987,171.8899 2.15983,204.64796 4.31977,32.75806 4.67975,83.33509 1.07994,151.73109 h -4.31972 v 51.83687 c 1.43993,19.43887 0.36,32.75809 -3.23977,39.95764 -3.59981,7.19964 -12.41931,8.81966 -26.45849,4.85994 -14.03914,-3.95977 -31.67809,-4.1396 -52.91686,-0.53949 -21.23873,3.60001 -37.2578,3.60001 -48.0572,0 -23.03862,2.87994 -37.43776,3.59981 -43.19743,2.15966 -5.75966,-1.43977 -12.59925,-2.15966 -20.518763,-2.15966 -9.359477,0 -14.039216,-7.9195 -14.039216,-23.75849 h 19.438879 c 63.35627,-18.71892 95.0344,-43.55746 95.0344,-74.51563 2.87981,-30.23825 4.6797,-77.0355 5.39966,-140.39177 0.71997,-63.35627 -3.59977,-107.63365 -12.95921,-132.83216 -9.35948,-25.19851 -14.39918,-57.23662 -15.11911,-96.11434 0,-30.23821 2.33985,-56.33666 7.01956,-78.29535 4.67973,-21.95873 7.0196,-48.0572 7.0196,-78.29541 0,-31.67813 -3.59979,-52.19692 -10.79938,-61.55635 -20.15881,-2.16037 -29.51825,-6.12039 -28.07832,-11.88006 0,18.71892 -3.23981,52.9169 -9.71944,102.59395 z"
     id="path1"
     sodipodi:nodetypes="cccccccccccscscccccccccccsssssccssscscccccccssccccccccscccsccccssscsccccccccccscccsccssssccccccsscccsccsccccccsccccccccccccccccscscccccccscscssccscsccssccssssscccscccccccccccscccccscscscsccsscscsccssscscccsssccscccsscssccc" />
</svg>
